<svg id="_158" data-name="158" xmlns="http://www.w3.org/2000/svg" viewBox="0 0 469.09 671.73"><defs><style>.cls-1{isolation:isolate;font-size:12px;fill:#969696;}.cls-1,.cls-3,.cls-5{font-family:PTSans-Regular, PT Sans;}.cls-2,.cls-4,.cls-6,.cls-7{fill:none;stroke-linecap:round;stroke-linejoin:round;}.cls-2{stroke:#969696;stroke-width:0.75px;}.cls-3{font-size:40px;}.cls-4,.cls-6,.cls-7{stroke:#000;}.cls-4{stroke-width:0.5px;}.cls-5{font-size:36px;}.cls-6{stroke-width:0.25px;stroke-dasharray:1 1;}</style></defs><title>17floor_158flat</title><text class="cls-1" transform="translate(228.97 668.53)">двор</text><line class="cls-2" x1="218.21" y1="671.35" x2="218.21" y2="662.55"/><polyline class="cls-2" points="214.71 667.85 218.21 671.35 221.71 667.85"/><text class="cls-3" transform="translate(110.05 412.06)">2E</text><text class="cls-3" transform="translate(83.79 462.23)">37.38</text><text class="cls-3" transform="translate(78.51 362.15)">№158</text><polyline class="cls-4" points="69.5 473.04 69.5 323.97 193.83 323.97 193.83 473.04"/><line class="cls-4" x1="69.5" y1="373.75" x2="193.83" y2="373.75"/><line class="cls-4" x1="69.5" y1="473.04" x2="193.83" y2="473.04"/><line class="cls-4" x1="69.5" y1="423.54" x2="193.83" y2="423.54"/><text class="cls-5" transform="translate(88.18 536.18)">10.30</text><text class="cls-5" transform="translate(311.54 535)">11.83</text><text class="cls-5" transform="translate(88.53 266.05)">2.20</text><text class="cls-5" transform="translate(347.53 175.15)">7.47</text><text class="cls-5" transform="translate(245.52 92.29)">1.89</text><text class="cls-5" transform="translate(77.67 139.61)">3.69</text><line class="cls-6" x1="445.48" y1="0.5" x2="373.15" y2="0.5"/><line class="cls-6" x1="160.36" y1="117.61" x2="160.36" y2="173.22"/><line class="cls-6" x1="166.58" y1="117.61" x2="166.58" y2="172.44"/><line class="cls-6" x1="325.97" y1="226.72" x2="255.86" y2="226.72"/><line class="cls-6" x1="243.28" y1="225.84" x2="173.17" y2="225.84"/><line class="cls-6" x1="325.97" y1="220.5" x2="255.86" y2="220.5"/><line class="cls-6" x1="309.58" y1="111.39" x2="254.87" y2="111.39"/><line class="cls-6" x1="309.58" y1="104.66" x2="254.87" y2="104.66"/><line class="cls-6" x1="243.28" y1="219.61" x2="173.17" y2="219.61"/><line class="cls-7" x1="1.22" y1="0.5" x2="1.22" y2="500.89"/><line class="cls-7" x1="12.61" y1="0.5" x2="12.61" y2="500.89"/><line class="cls-7" x1="0.5" y1="0.5" x2="0.5" y2="500.89"/><polyline class="cls-7" points="12.61 500.89 27.76 500.89 27.76 0.5"/><line class="cls-7" x1="449.67" y1="588.75" x2="453.44" y2="588.75"/><line class="cls-7" x1="453.44" y1="588.75" x2="468.59" y2="588.75"/><polyline class="cls-7" points="12.61 587.95 1.22 587.95 12.61 587.95"/><line class="cls-7" x1="421.21" y1="587.95" x2="442.05" y2="587.95"/><line class="cls-7" x1="215.58" y1="587.95" x2="286.37" y2="587.95"/><line class="cls-7" x1="12.61" y1="587.95" x2="80.75" y2="587.95"/><polyline class="cls-7" points="12.61 580.41 12.61 576.65 12.61 580.41"/><line class="cls-7" x1="12.61" y1="580.42" x2="80.75" y2="580.42"/><line class="cls-7" x1="215.58" y1="580.42" x2="286.37" y2="580.42"/><line class="cls-7" x1="421.21" y1="580.42" x2="449.67" y2="580.42"/><line class="cls-7" x1="83.79" y1="587.95" x2="83.79" y2="580.42"/><line class="cls-7" x1="212.62" y1="587.95" x2="212.62" y2="580.42"/><line class="cls-7" x1="80.75" y1="580.42" x2="83.07" y2="580.42"/><line class="cls-7" x1="83.07" y1="580.42" x2="83.79" y2="580.42"/><line class="cls-7" x1="83.79" y1="588.75" x2="83.79" y2="587.95"/><line class="cls-7" x1="215.58" y1="580.42" x2="213.34" y2="580.42"/><line class="cls-7" x1="213.34" y1="580.42" x2="212.62" y2="580.42"/><line class="cls-7" x1="212.62" y1="588.75" x2="212.62" y2="587.95"/><line class="cls-7" x1="80.75" y1="580.42" x2="80.75" y2="580.42"/><polyline class="cls-7" points="80.75 587.95 83.07 587.95 83.07 580.41 83.07 587.95"/><line class="cls-7" x1="83.07" y1="588.75" x2="83.79" y2="588.75"/><line class="cls-7" x1="215.58" y1="580.42" x2="215.58" y2="580.42"/><polyline class="cls-7" points="215.58 587.95 213.34 587.95 213.34 580.41 213.34 587.95"/><line class="cls-7" x1="213.34" y1="588.75" x2="212.62" y2="588.75"/><polyline class="cls-7" points="80.75 580.41 80.75 575.85 80.75 561.5"/><polyline class="cls-7" points="215.58 580.41 215.58 575.85 215.58 561.5"/><line class="cls-7" x1="289.42" y1="587.95" x2="289.42" y2="580.42"/><line class="cls-7" x1="418.16" y1="587.95" x2="418.16" y2="580.42"/><line class="cls-7" x1="286.37" y1="580.42" x2="288.7" y2="580.42"/><line class="cls-7" x1="288.7" y1="580.42" x2="289.42" y2="580.42"/><line class="cls-7" x1="289.42" y1="588.75" x2="289.42" y2="587.95"/><line class="cls-7" x1="421.21" y1="580.42" x2="418.96" y2="580.42"/><line class="cls-7" x1="418.96" y1="580.42" x2="418.16" y2="580.42"/><line class="cls-7" x1="418.16" y1="588.75" x2="418.16" y2="587.95"/><line class="cls-7" x1="286.37" y1="580.42" x2="286.37" y2="580.42"/><polyline class="cls-7" points="286.37 587.95 288.69 587.95 288.69 580.41 288.69 587.95"/><line class="cls-7" x1="288.7" y1="588.75" x2="289.42" y2="588.75"/><line class="cls-7" x1="421.21" y1="580.42" x2="421.21" y2="580.42"/><polyline class="cls-7" points="421.21 587.95 418.96 587.95 418.96 580.41 418.96 587.95"/><line class="cls-7" x1="418.96" y1="588.75" x2="418.16" y2="588.75"/><polyline class="cls-7" points="286.37 580.41 286.37 575.85 286.37 561.5"/><polyline class="cls-7" points="421.21 580.41 421.21 575.85 421.21 561.5"/><line class="cls-7" x1="0.5" y1="588.75" x2="83.07" y2="588.75"/><line class="cls-7" x1="213.34" y1="588.75" x2="288.7" y2="588.75"/><line class="cls-7" x1="418.96" y1="588.75" x2="441.33" y2="588.75"/><line class="cls-7" x1="468.59" y1="561.5" x2="421.21" y2="561.5"/><line class="cls-7" x1="286.37" y1="561.5" x2="215.58" y2="561.5"/><line class="cls-7" x1="80.75" y1="561.5" x2="27.76" y2="561.5"/><polyline class="cls-7" points="83.79 588.75 212.62 588.75 212.62 592.52 83.79 592.52 83.79 588.75"/><line class="cls-7" x1="215.58" y1="561.5" x2="80.75" y2="561.5"/><polyline class="cls-7" points="215.58 575.85 211.42 575.85 211.42 578.89 209.57 578.89 209.57 580.41 215.58 580.41"/><polyline class="cls-7" points="148.16 580.41 151.21 580.41 151.21 578.89 149.37 578.89 149.37 575.85 148.16 575.85"/><line class="cls-7" x1="151.21" y1="580.42" x2="209.57" y2="580.42"/><polyline class="cls-7" points="211.42 574.32 206.93 574.32 153.86 574.32"/><polyline class="cls-7" points="206.93 574.32 206.93 578.89 211.42 578.89 211.42 574.32"/><polyline class="cls-7" points="149.37 578.89 153.86 578.89 153.86 574.32 149.37 574.32 149.37 578.89"/><line class="cls-7" x1="153.86" y1="578.89" x2="206.93" y2="578.89"/><line class="cls-7" x1="206.93" y1="574.32" x2="153.86" y2="574.32"/><line class="cls-7" x1="206.93" y1="576.65" x2="153.86" y2="576.65"/><polyline class="cls-7" points="148.16 575.85 147.04 575.85 147.04 578.89 145.2 578.89 145.2 580.41 148.16 580.41"/><polyline class="cls-7" points="80.75 580.41 86.84 580.41 86.84 578.89 84.91 578.89 84.91 575.85 80.75 575.85"/><line class="cls-7" x1="86.84" y1="580.42" x2="145.2" y2="580.42"/><polyline class="cls-7" points="147.04 574.32 142.47 574.32 89.48 574.32"/><polyline class="cls-7" points="142.47 574.32 142.47 578.89 147.04 578.89 147.04 574.32"/><polyline class="cls-7" points="84.91 578.89 89.48 578.89 89.48 574.32 84.91 574.32 84.91 578.89"/><line class="cls-7" x1="89.48" y1="578.89" x2="142.47" y2="578.89"/><line class="cls-7" x1="142.47" y1="574.32" x2="89.48" y2="574.32"/><line class="cls-7" x1="142.47" y1="576.65" x2="89.48" y2="576.65"/><polyline class="cls-7" points="215.58 561.5 215.58 575.85 215.58 580.41 215.58 575.85"/><polyline class="cls-7" points="80.75 561.5 80.75 575.85 80.75 580.41 80.75 575.85"/><line class="cls-7" x1="212.62" y1="588.75" x2="212.62" y2="587.95"/><polyline class="cls-7" points="212.62 580.41 213.34 580.41 212.62 580.41"/><polyline class="cls-7" points="213.34 580.41 215.58 580.41 213.34 580.41"/><line class="cls-7" x1="83.79" y1="588.75" x2="83.79" y2="587.95"/><polyline class="cls-7" points="83.79 580.41 83.07 580.41 83.79 580.41"/><polyline class="cls-7" points="83.07 580.41 80.75 580.41 83.07 580.41"/><line class="cls-7" x1="212.62" y1="587.95" x2="212.62" y2="580.42"/><line class="cls-7" x1="83.79" y1="587.95" x2="83.79" y2="580.42"/><polyline class="cls-7" points="289.42 588.75 418.16 588.75 418.16 592.52 289.42 592.52 289.42 588.75"/><line class="cls-7" x1="421.21" y1="561.5" x2="286.37" y2="561.5"/><polyline class="cls-7" points="421.21 575.85 417.04 575.85 417.04 578.89 415.2 578.89 415.2 580.41 421.21 580.41"/><polyline class="cls-7" points="353.79 580.41 356.84 580.41 356.84 578.89 354.91 578.89 354.91 575.85 353.79 575.85"/><line class="cls-7" x1="356.84" y1="580.42" x2="415.2" y2="580.42"/><polyline class="cls-7" points="417.04 574.32 412.47 574.32 359.48 574.32"/><polyline class="cls-7" points="412.47 574.32 412.47 578.89 417.04 578.89 417.04 574.32"/><polyline class="cls-7" points="354.91 578.89 359.48 578.89 359.48 574.32 354.91 574.32 354.91 578.89"/><line class="cls-7" x1="359.48" y1="578.89" x2="412.47" y2="578.89"/><line class="cls-7" x1="412.47" y1="574.32" x2="359.48" y2="574.32"/><line class="cls-7" x1="412.47" y1="576.65" x2="359.48" y2="576.65"/><polyline class="cls-7" points="353.79 575.85 352.67 575.85 352.67 578.89 350.74 578.89 350.74 580.41 353.79 580.41"/><polyline class="cls-7" points="286.37 580.41 292.46 580.41 292.46 578.89 290.54 578.89 290.54 575.85 286.37 575.85"/><line class="cls-7" x1="292.46" y1="580.42" x2="350.74" y2="580.42"/><polyline class="cls-7" points="352.67 574.32 348.1 574.32 295.11 574.32"/><polyline class="cls-7" points="348.1 574.32 348.1 578.89 352.67 578.89 352.67 574.32"/><polyline class="cls-7" points="290.54 578.89 295.11 578.89 295.11 574.32 290.54 574.32 290.54 578.89"/><line class="cls-7" x1="295.11" y1="578.89" x2="348.1" y2="578.89"/><line class="cls-7" x1="348.1" y1="574.32" x2="295.11" y2="574.32"/><line class="cls-7" x1="348.1" y1="576.65" x2="295.11" y2="576.65"/><polyline class="cls-7" points="421.21 561.5 421.21 575.85 421.21 580.41 421.21 575.85"/><polyline class="cls-7" points="286.37 561.5 286.37 575.85 286.37 580.41 286.37 575.85"/><line class="cls-7" x1="418.16" y1="588.75" x2="418.16" y2="587.95"/><polyline class="cls-7" points="418.16 580.41 418.96 580.41 418.16 580.41"/><polyline class="cls-7" points="418.96 580.41 421.21 580.41 418.96 580.41"/><line class="cls-7" x1="289.42" y1="588.75" x2="289.42" y2="587.95"/><polyline class="cls-7" points="289.42 580.41 288.69 580.41 289.42 580.41"/><polyline class="cls-7" points="288.69 580.41 286.37 580.41 288.69 580.41"/><line class="cls-7" x1="418.16" y1="587.95" x2="418.16" y2="580.42"/><line class="cls-7" x1="289.42" y1="587.95" x2="289.42" y2="580.42"/><polyline class="cls-7" points="1.22 500.89 1.22 580.41 1.22 587.95"/><polyline class="cls-7" points="12.61 500.89 12.61 561.5 27.76 561.5 12.61 561.5 12.61 576.65 12.61 561.5"/><line class="cls-7" x1="0.5" y1="588.75" x2="0.5" y2="587.95"/><line class="cls-7" x1="0.5" y1="500.89" x2="0.5" y2="587.95"/><polyline class="cls-7" points="27.76 561.5 27.76 500.89 12.61 500.89"/><polyline class="cls-7" points="442.05 587.95 442.05 588.75 442.05 587.95"/><line class="cls-7" x1="449.67" y1="587.95" x2="449.67" y2="580.42"/><line class="cls-7" x1="449.67" y1="587.95" x2="449.67" y2="580.42"/><line class="cls-7" x1="442.05" y1="588.75" x2="442.05" y2="588.75"/><line class="cls-7" x1="449.67" y1="587.95" x2="449.67" y2="588.75"/><polyline class="cls-7" points="468.59 561.5 468.59 580.41 468.59 588.75"/><line class="cls-7" x1="456.93" y1="588.75" x2="441.33" y2="588.75"/><line class="cls-7" x1="449.67" y1="588.75" x2="468.59" y2="588.75"/><line class="cls-7" x1="445.9" y1="16.05" x2="445.9" y2="6.99"/><polyline class="cls-7" points="314.83 16.05 370.14 16.05 370.14 6.99"/><line class="cls-7" x1="445.9" y1="16.05" x2="453.44" y2="16.05"/><line class="cls-7" x1="468.59" y1="16.05" x2="468.59" y2="16.05"/><line class="cls-7" x1="468.59" y1="0.9" x2="445.9" y2="0.9"/><line class="cls-7" x1="370.14" y1="0.9" x2="0.5" y2="0.9"/><path class="cls-7" d="M373.19,7a69.7,69.7,0,0,0,69.7,69.7"/><polyline class="cls-7" points="370.14 0.9 373.19 0.9 373.19 6.99 370.14 6.99 370.14 0.9"/><polyline class="cls-7" points="445.9 6.99 442.85 6.99 442.85 0.9 445.9 0.9 445.9 6.99"/><line class="cls-7" x1="442.85" y1="6.99" x2="442.85" y2="76.65"/><line class="cls-7" x1="370.14" y1="16.05" x2="370.14" y2="6.99"/><line class="cls-7" x1="445.9" y1="16.05" x2="445.9" y2="6.99"/><polyline class="cls-7" points="453.44 16.05 453.44 561.5 468.59 561.5 468.59 16.05"/><line class="cls-7" x1="160.35" y1="119.06" x2="166.36" y2="119.06"/><polyline class="cls-7" points="160.35 172.13 166.36 172.13 166.36 219.83"/><line class="cls-7" x1="166.36" y1="119.06" x2="166.36" y2="111.53"/><line class="cls-7" x1="166.36" y1="105.43" x2="166.36" y2="59.98"/><polyline class="cls-7" points="166.36 53.97 166.36 16.05 160.35 16.05 160.35 119.06"/><line class="cls-7" x1="160.35" y1="172.13" x2="160.35" y2="175.9"/><line class="cls-7" x1="160.35" y1="181.99" x2="160.35" y2="219.83"/><polyline class="cls-7" points="31.52 175.9 31.52 178.95 31.52 181.99"/><polyline class="cls-7" points="160.35 175.9 61.83 175.9 61.83 178.95 61.83 181.99"/><polyline class="cls-7" points="31.52 175.9 27.76 175.9 27.76 181.99 31.52 181.99"/><line class="cls-7" x1="61.83" y1="181.99" x2="65.59" y2="181.99"/><line class="cls-7" x1="71.69" y1="181.99" x2="160.35" y2="181.99"/><line class="cls-7" x1="61.83" y1="175.9" x2="31.52" y2="175.9"/><line class="cls-7" x1="61.83" y1="181.99" x2="31.52" y2="181.99"/><path class="cls-7" d="M61.83,175.94A30.22,30.22,0,0,0,60,165.59"/><line class="cls-7" x1="31.52" y1="175.9" x2="59.98" y2="165.56"/><polyline class="cls-7" points="61.83 181.99 61.83 178.95 61.83 175.9 61.83 178.95"/><polyline class="cls-7" points="31.52 181.99 31.52 178.95 31.52 175.9 31.52 178.95"/><line class="cls-7" x1="71.69" y1="219.83" x2="71.69" y2="181.99"/><line class="cls-7" x1="65.59" y1="181.99" x2="65.59" y2="219.83"/><polyline class="cls-7" points="314.83 0.9 27.76 0.9 27.76 16.05 314.83 16.05"/><line class="cls-7" x1="255.75" y1="111.53" x2="255.75" y2="105.43"/><line class="cls-7" x1="308.74" y1="111.53" x2="308.74" y2="105.43"/><line class="cls-7" x1="166.36" y1="111.53" x2="255.75" y2="111.53"/><line class="cls-7" x1="308.74" y1="111.53" x2="329.98" y2="111.53"/><line class="cls-7" x1="323.89" y1="105.43" x2="308.74" y2="105.43"/><line class="cls-7" x1="255.75" y1="105.43" x2="202.76" y2="105.43"/><line class="cls-7" x1="196.67" y1="105.43" x2="166.36" y2="105.43"/><polyline class="cls-7" points="329.98 111.53 329.98 105.43 329.98 16.05 323.89 16.05 323.89 105.43"/><polyline class="cls-7" points="202.76 19.9 199.71 19.9 196.66 19.9"/><polyline class="cls-7" points="202.76 105.43 202.76 50.12 199.71 50.12 196.66 50.12"/><polyline class="cls-7" points="202.76 19.9 202.76 16.05 196.66 16.05 196.66 19.9"/><line class="cls-7" x1="196.67" y1="50.12" x2="196.67" y2="53.97"/><line class="cls-7" x1="196.67" y1="59.98" x2="196.67" y2="105.43"/><line class="cls-7" x1="202.76" y1="50.12" x2="202.76" y2="19.9"/><line class="cls-7" x1="196.67" y1="50.12" x2="196.67" y2="19.9"/><path class="cls-7" d="M202.8,50.2a30.22,30.22,0,0,0,10.35-1.83"/><line class="cls-7" x1="202.76" y1="19.9" x2="213.1" y2="48.36"/><polyline class="cls-7" points="196.66 50.12 199.71 50.12 202.76 50.12 199.71 50.12"/><polyline class="cls-7" points="196.66 19.9 199.71 19.9 202.76 19.9 199.71 19.9"/><line class="cls-7" x1="196.67" y1="53.97" x2="166.36" y2="53.97"/><line class="cls-7" x1="166.36" y1="59.98" x2="196.67" y2="59.98"/><line class="cls-7" x1="241.4" y1="225.92" x2="241.4" y2="219.83"/><polyline class="cls-7" points="27.76 225.92 173.18 225.92 173.18 219.83 166.36 219.83"/><line class="cls-7" x1="160.35" y1="219.83" x2="71.69" y2="219.83"/><polyline class="cls-7" points="65.59 219.83 27.76 219.83 27.76 225.92"/><line class="cls-7" x1="256.55" y1="225.92" x2="256.55" y2="219.83"/><line class="cls-7" x1="324.69" y1="225.92" x2="324.69" y2="219.83"/><line class="cls-7" x1="247.41" y1="225.92" x2="256.55" y2="225.92"/><polyline class="cls-7" points="324.69 225.92 453.44 225.92 453.44 219.83 324.69 219.83"/><polyline class="cls-7" points="241.4 219.83 247.41 219.83 256.55 219.83"/><polyline class="cls-7" points="27.76 580.41 27.76 576.65 12.61 576.65"/><polyline class="cls-7" points="256.55 580.41 256.55 576.65 241.4 576.65 241.4 580.41"/><line class="cls-7" x1="34.33" y1="66.07" x2="34.33" y2="27.43"/><line class="cls-7" x1="38.58" y1="22.86" x2="132.37" y2="22.86"/><line class="cls-7" x1="38.58" y1="70.64" x2="132.37" y2="70.64"/><line class="cls-7" x1="158.83" y1="18.37" x2="30" y2="18.37"/><polyline class="cls-7" points="158.83 18.37 158.83 75.13 30 75.13 30 18.37"/><line class="cls-7" x1="117.3" y1="62.71" x2="43.95" y2="62.71"/><line class="cls-7" x1="41.79" y1="60.46" x2="41.79" y2="33.04"/><line class="cls-7" x1="117.3" y1="30.8" x2="43.95" y2="30.8"/><line class="cls-7" x1="56.86" y1="48.12" x2="56.86" y2="50.92"/><line class="cls-7" x1="55.57" y1="46.75" x2="52.93" y2="46.75"/><line class="cls-7" x1="56.86" y1="45.39" x2="56.86" y2="42.58"/><line class="cls-7" x1="58.14" y1="46.75" x2="60.78" y2="46.75"/><path class="cls-7" d="M132.41,70.64C144.88,70.64,155,60,155,46.79s-10.1-23.85-22.57-23.85"/><path class="cls-7" d="M38.62,22.94a4.42,4.42,0,0,0-4.29,4.53"/><path class="cls-7" d="M34.33,66.11a4.42,4.42,0,0,0,4.29,4.53"/><path class="cls-7" d="M56.9,49.16a2.37,2.37,0,1,0-2.21-2.37,2.29,2.29,0,0,0,2.21,2.37"/><path class="cls-7" d="M117.34,62.79c8.3,0,15-7.16,15-16s-6.73-16-15-16"/><path class="cls-7" d="M41.87,60.5A2.21,2.21,0,0,0,44,62.79"/><path class="cls-7" d="M44,30.8a2.2,2.2,0,0,0-2.12,2.28"/><path class="cls-7" d="M56.9,50a3.17,3.17,0,1,0-3-3.17,3.09,3.09,0,0,0,3,3.17"/><polyline class="cls-7" points="47.32 110 30 110 30 150.89 47.32 150.89"/><line class="cls-7" x1="30" y1="136.94" x2="30" y2="124.03"/><line class="cls-7" x1="43.95" y1="133.89" x2="43.95" y2="131.73"/><line class="cls-7" x1="40.5" y1="130.45" x2="42.67" y2="130.45"/><line class="cls-7" x1="43.95" y1="129.16" x2="43.95" y2="127"/><line class="cls-7" x1="45.15" y1="130.45" x2="47.4" y2="130.45"/><path class="cls-7" d="M48.43,112.56a18.26,18.26,0,0,0-8.62,7.07"/><path class="cls-7" d="M39.83,119.63a18.28,18.28,0,0,0-2.56,10.88"/><path class="cls-7" d="M39.81,141.34a18.26,18.26,0,0,0,8.62,7.07"/><path class="cls-7" d="M37.27,130.47a18.27,18.27,0,0,0,2.56,10.87"/><path class="cls-7" d="M61.09,129.06a33.53,33.53,0,0,0-3.37-12.41"/><path class="cls-7" d="M47.39,151a10.37,10.37,0,0,0,8.54-3.88"/><path class="cls-7" d="M61.14,131.92a22.9,22.9,0,0,0,0-2.87"/><path class="cls-7" d="M40.5,119a75.08,75.08,0,0,0,0,22.89"/><path class="cls-7" d="M33.34,144.05A25.71,25.71,0,0,0,50,149.84"/><path class="cls-7" d="M30.88,130.5a51.15,51.15,0,0,0,1.27,11.7"/><path class="cls-7" d="M32.17,142.22a3.43,3.43,0,0,0,1.17,1.89"/><path class="cls-7" d="M32.49,130.5A87.44,87.44,0,0,0,33.32,142"/><path class="cls-7" d="M34.47,144.15a23.11,23.11,0,0,0,15.6,5.77"/><path class="cls-7" d="M33.32,142a3.38,3.38,0,0,0,1.12,2.08"/><path class="cls-7" d="M50,111.13a23.17,23.17,0,0,0-15.59,5.79"/><path class="cls-7" d="M50,111.13A25.62,25.62,0,0,0,33.32,117"/><path class="cls-7" d="M33.3,119a87.15,87.15,0,0,0-.81,11.53"/><path class="cls-7" d="M32.13,118.84a51.7,51.7,0,0,0-1.25,11.7"/><path class="cls-7" d="M34.44,116.87A3.4,3.4,0,0,0,33.32,119"/><path class="cls-7" d="M33.33,117a3.44,3.44,0,0,0-1.16,1.88"/><path class="cls-7" d="M55.93,114a10.37,10.37,0,0,0-8.54-3.88"/><path class="cls-7" d="M57.72,116.62A15.25,15.25,0,0,0,56,113.9"/><path class="cls-7" d="M56,147.08a15.69,15.69,0,0,0,1.76-2.73"/><path class="cls-7" d="M57.72,144.32a33.53,33.53,0,0,0,3.37-12.41"/><path class="cls-7" d="M58.19,136.12a24.12,24.12,0,0,0,0-11.27"/><path class="cls-7" d="M53.52,114.69a6.14,6.14,0,0,0-5.06-2.11"/><path class="cls-7" d="M58.12,124.87a22.19,22.19,0,0,0-4.67-10.18"/><path class="cls-7" d="M48.46,148.47a6.14,6.14,0,0,0,5.06-2.11"/><path class="cls-7" d="M53.45,146.28a22.15,22.15,0,0,0,4.67-10.18"/><path class="cls-7" d="M44,133.17a2.69,2.69,0,1,0-2.69-2.68A2.69,2.69,0,0,0,44,133.17"/><path class="cls-7" d="M44,132.37a1.89,1.89,0,1,0-1.88-1.88A1.88,1.88,0,0,0,44,132.37"/><line class="cls-7" x1="216.63" y1="63.43" x2="243.4" y2="63.43"/><polyline class="cls-7" points="215.02 64.55 205 64.55 205 35.77"/><line class="cls-7" x1="221.36" y1="50.12" x2="221.36" y2="39.46"/><polyline class="cls-7" points="243.32 63.43 221.36 60.86 221.36 50.12"/><line class="cls-7" x1="243.32" y1="36.89" x2="221.36" y2="39.46"/><line class="cls-7" x1="243.32" y1="62.71" x2="221.36" y2="60.14"/><line class="cls-7" x1="243.32" y1="37.61" x2="221.36" y2="40.18"/><line class="cls-7" x1="216.63" y1="36.89" x2="243.4" y2="36.89"/><line class="cls-7" x1="205" y1="35.77" x2="215.02" y2="35.77"/><polyline class="cls-7" points="243.32 63.43 246.29 63.03 249.09 61.9 251.58 60.06 253.58 57.74 254.95 54.85 255.67 51.72 255.67 48.6 254.95 45.47 253.58 42.58 251.58 40.26 249.09 38.42 246.29 37.29 243.32 36.89"/><polyline class="cls-7" points="243.32 62.71 246.13 62.38 248.77 61.26 251.1 59.58 253.02 57.34 254.3 54.61 255.03 51.64 255.03 48.68 254.3 45.71 253.02 42.98 251.1 40.74 248.77 39.06 246.13 37.94 243.32 37.61"/><path class="cls-7" d="M216.74,63.07a121,121,0,0,0,0-25.81"/><path class="cls-7" d="M215.06,64.55a1.7,1.7,0,0,0,1.72-1.46"/><path class="cls-7" d="M216.78,37.33a1.7,1.7,0,0,0-1.72-1.48"/><path class="cls-7" d="M212.78,50.16a1.41,1.41,0,1,0-1.4,1.4,1.4,1.4,0,0,0,1.4-1.4"/><polyline class="cls-7" points="31.52 271.38 73.21 271.38 73.21 229.69 31.52 229.69 31.52 271.38"/><polyline class="cls-7" points="35.29 267.53 69.44 267.53 69.44 237.23 35.29 237.23 35.29 267.53"/><polyline class="cls-7" points="321.64 31.84 321.64 18.37 289.82 18.37 289.82 31.84"/><line class="cls-7" x1="300.72" y1="18.37" x2="310.74" y2="18.37"/><line class="cls-7" x1="303.04" y1="29.2" x2="304.81" y2="29.2"/><line class="cls-7" x1="305.77" y1="26.47" x2="305.77" y2="28.23"/><line class="cls-7" x1="306.73" y1="29.2" x2="308.42" y2="29.2"/><line class="cls-7" x1="305.77" y1="30.16" x2="305.77" y2="31.84"/><path class="cls-7" d="M319.69,32.75A14.15,14.15,0,0,0,314.21,26"/><path class="cls-7" d="M314.23,26a14,14,0,0,0-8.43-2"/><path class="cls-7" d="M297.34,26a14.11,14.11,0,0,0-5.49,6.73"/><path class="cls-7" d="M305.74,24a14,14,0,0,0-8.43,2"/><path class="cls-7" d="M306.93,42.59A26,26,0,0,0,316.59,40"/><path class="cls-7" d="M289.91,31.85a8.17,8.17,0,0,0,3,6.7"/><path class="cls-7" d="M304.7,42.63a16.45,16.45,0,0,0,2.22,0"/><path class="cls-7" d="M314.71,26.52a57.68,57.68,0,0,0-17.79,0"/><path class="cls-7" d="M295.21,20.94A20.16,20.16,0,0,0,290.7,34"/><path class="cls-7" d="M305.79,19a39.27,39.27,0,0,0-9.1,1"/><path class="cls-7" d="M296.64,20a2.78,2.78,0,0,0-1.49.92"/><path class="cls-7" d="M305.75,20.3a67.29,67.29,0,0,0-9,.65"/><path class="cls-7" d="M295.2,21.77A18.1,18.1,0,0,0,290.7,34"/><path class="cls-7" d="M296.78,20.88a2.7,2.7,0,0,0-1.64.89"/><path class="cls-7" d="M320.92,33.94a18.14,18.14,0,0,0-4.51-12.19"/><path class="cls-7" d="M320.84,34a20.13,20.13,0,0,0-4.53-13"/><path class="cls-7" d="M314.74,20.93a67.12,67.12,0,0,0-9-.63"/><path class="cls-7" d="M314.88,20a39.82,39.82,0,0,0-9.1-1"/><path class="cls-7" d="M316.4,21.77a2.68,2.68,0,0,0-1.65-.89"/><path class="cls-7" d="M316.39,20.88A2.72,2.72,0,0,0,314.9,20"/><path class="cls-7" d="M318.63,38.55a8.18,8.18,0,0,0,3-6.7"/><path class="cls-7" d="M316.59,39.92a12.31,12.31,0,0,0,2.11-1.37"/><path class="cls-7" d="M292.92,38.55A12.71,12.71,0,0,0,295,39.92"/><path class="cls-7" d="M295,40a26,26,0,0,0,9.66,2.63"/><path class="cls-7" d="M301.44,40.3a18.71,18.71,0,0,0,8.74,0"/><path class="cls-7" d="M318.07,36.7a4.81,4.81,0,0,0,1.64-3.94"/><path class="cls-7" d="M310.17,40.4a17.28,17.28,0,0,0,7.94-3.66"/><path class="cls-7" d="M291.83,32.76a4.81,4.81,0,0,0,1.64,3.94"/><path class="cls-7" d="M293.43,36.74a17.28,17.28,0,0,0,7.94,3.66"/><path class="cls-7" d="M305.81,31.28a2,2,0,1,0-2-2,2,2,0,0,0,2,2"/><path class="cls-7" d="M305.81,30.72a1.49,1.49,0,1,0-1.48-1.48,1.48,1.48,0,0,0,1.48,1.48"/><polyline class="cls-7" points="212.22 590.68 211.82 590.68 211.82 632.28 212.22 632.28 212.22 590.68"/><polyline class="cls-7" points="210.69 633.81 210.69 633.4 141.03 633.4 141.03 633.81 210.69 633.81"/><polyline class="cls-7" points="139.51 632.28 139.83 632.28 139.83 590.68 139.51 590.68 139.51 632.28"/><polyline class="cls-7" points="212.62 588.75 210.69 588.75 210.69 590.68 212.62 590.68 212.62 588.75"/><polyline class="cls-7" points="212.62 632.28 210.69 632.28 210.69 634.21 212.62 634.21 212.62 632.28"/><polyline class="cls-7" points="141.03 634.21 141.03 632.28 139.11 632.28 139.11 634.21 141.03 634.21"/><polyline class="cls-7" points="139.11 590.68 141.03 590.68 141.03 588.75 139.11 588.75 139.11 590.68"/><line class="cls-7" x1="210.69" y1="589.71" x2="210.69" y2="632.28"/><line class="cls-7" x1="212.62" y1="634.21" x2="212.62" y2="589.71"/><line class="cls-7" x1="210.69" y1="632.28" x2="141.03" y2="632.28"/><line class="cls-7" x1="139.11" y1="634.21" x2="212.62" y2="634.21"/><line class="cls-7" x1="141.03" y1="632.28" x2="141.03" y2="589.71"/><line class="cls-7" x1="139.11" y1="589.71" x2="139.11" y2="634.21"/><polyline class="cls-7" points="212.62 589.71 212.62 588.75 210.69 588.75 210.69 589.71"/><polyline class="cls-7" points="141.03 589.71 141.03 588.75 139.11 588.75 139.11 589.71"/><polyline class="cls-7" points="139.11 634.21 212.62 634.21 212.62 589.71 210.69 589.71 210.69 632.28 141.03 632.28 141.03 589.71 139.11 589.71 139.11 634.21"/><polyline class="cls-7" points="142.87 620.58 208.77 620.58 208.77 596.29 142.87 596.29 142.87 620.58"/><polyline class="cls-7" points="142.87 618.17 208.77 618.17 208.77 596.29 142.87 596.29 142.87 618.17"/><line class="cls-7" x1="247.41" y1="561.5" x2="247.41" y2="225.92"/><polyline class="cls-7" points="241.4 219.83 241.4 561.5 247.41 561.5"/><polyline class="cls-7" points="453.44 356.91 468.59 356.91 468.59 281.16 453.44 281.16 453.44 356.91"/><polyline class="cls-7" points="241.4 500.89 256.55 500.89 256.55 576.65 241.4 576.65 241.4 500.89"/><polyline class="cls-7" points="241.4 281.16 256.55 281.16 256.55 356.91 241.4 356.91 241.4 281.16"/><polyline class="cls-7" points="173.18 16.05 173.18 0.9 248.93 0.9 248.93 16.05 173.18 16.05"/><polyline class="cls-7" points="453.44 76.66 468.59 76.66 468.59 0.9 453.44 0.9 453.44 76.66"/></svg>