<svg width="203" height="31" viewBox="0 0 203 31" fill="none" xmlns="http://www.w3.org/2000/svg">
<path d="M199.595 9.50005C197.395 7.40005 194.495 6.30005 191.395 6.30005L174.196 6.30005L174.196 29.2001H191.395C194.495 29.2001 197.495 28.1 199.595 26C201.795 23.9 202.995 21 202.995 17.8C203.095 14.5 201.795 11.6 199.595 9.50005ZM191.395 24.1H179.396V11.2H191.395C195.295 11.2 197.795 13.7 197.795 17.7C197.795 21.7 195.295 24.1 191.395 24.1Z" fill="black"/>
<path d="M148.397 15.1C148.397 9.79995 144.297 6.19995 138.097 6.19995L119.498 6.19995L119.498 29.1H124.698V22.6V17.5L124.698 11.2H138.197C140.497 11.2 143.097 12.2 143.097 15.1C143.097 17.6 141.297 19.1 138.197 19.1H133.298V21.6L140.497 29.1H146.897L140.597 23C146.297 22.2999 148.397 18.4 148.397 15.1Z" fill="black"/>
<path d="M153.597 29.1H168.296L168.296 24.5H158.497V19.6H164.696V15.3H158.497V10.8H168.296V6.19995L153.597 6.19995L153.597 29.1Z" fill="black"/>
<path d="M90.1996 30C85.0998 30 81 25.9 81 20.8H85.5998C85.5998 23.4 87.6997 25.5 90.2996 25.5C92.8995 25.5 94.9994 23.4 94.9994 20.8C94.9994 18.4 93.2995 16.7 91.4995 16.1C89.9996 15.6 87.9997 15.6 87.9997 15.6L87.9997 12.9L95.7993 5.80005L98.8992 9.20005L93.8994 12.7C97.6993 13.8 99.5992 17.4 99.5992 20.8C99.3992 25.9 95.2994 30 90.1996 30Z" fill="black"/>
<path d="M85.4998 4.5H89.8996V0L81 0V8.9H85.4998V4.5Z" fill="#E52628"/>
<path d="M113.499 15.8H104.499V20.8H113.499V15.8Z" fill="black"/>
<path d="M70 20.6052V6H0.46875V31H58.513L70 20.6052Z" fill="#E42A2E"/>
<path d="M10.2915 11.7842H6.5957V24.5902H10.2915V11.7842Z" fill="white"/>
<path d="M26.7947 21.2357V24.5902H17.2275V11.7842H20.9233V21.2357H26.7947Z" fill="white"/>
<path d="M31.8244 11.7842H28.1287V24.5902H31.8244V11.7842Z" fill="white"/>
<path d="M47.7139 24.5902H43.2557L39.1648 19.211H37.8864V24.5902H34.186V11.7842H37.8864V16.6618L39.0719 16.6664L42.7862 11.7842H47.4071L42.4747 17.8812L47.7139 24.5902Z" fill="white"/>
<path d="M52.4929 15.1387V16.6618H56.091V19.5285H52.4929V21.2357H57.4205V24.5902H48.7925V11.7842H57.4205V15.1387H52.4929Z" fill="white"/>
</svg>
