<svg width="62" height="279" viewBox="0 0 62 279" fill="none" xmlns="http://www.w3.org/2000/svg">
    <path transform="translate(-10 0)" d="M43.6946 23H25L25 112H57L57 37.7034L43.6946 23Z" fill="#E42A2E"/>
    <path transform="translate(-10 0)" d="M32.4038 99.4269V104.157H48.7955V99.4269H32.4038Z" fill="white"/>
    <path transform="translate(-10 0)" d="M44.5017 78.3028H48.7955V90.5487H32.4038V85.8181H44.5017V78.3028Z" fill="white"/>
    <path transform="translate(-10 0)" d="M32.4038 71.8647V76.5952H48.7955V71.8647H32.4038Z" fill="white"/>
    <path transform="translate(-10 0)" d="M48.7955 51.5261V57.2325L41.9102 62.4689V64.1052H48.7955V68.8417H32.4038V64.1052H38.6471L38.653 62.5879L32.4038 57.8335V51.9188L40.208 58.2322L48.7955 51.5261Z" fill="white"/>
    <path transform="translate(-10 0)" d="M36.6976 45.4089H38.6471V40.8033H42.3166V45.4089H44.5017V39.1015H48.7955V50.1454H32.4038V39.1015H36.6976V45.4089Z" fill="white"/>
    <path transform="translate(-10 0)" d="M35.5003 131.405C33.4003 133.605 32.3003 136.505 32.3003 139.605L32.3003 156.804L55.2003 156.804L55.2003 139.605C55.2003 136.505 54.1003 133.505 52.0003 131.405C49.9003 129.205 47.0003 128.005 43.8003 128.005C40.5003 127.905 37.6003 129.205 35.5003 131.405ZM50.1003 139.605L50.1003 151.604L37.2003 151.604L37.2003 139.605C37.2003 135.705 39.7003 133.205 43.7003 133.205C47.7003 133.205 50.1003 135.705 50.1003 139.605Z" fill="#0B0B0B"/>
    <path transform="translate(-10 0)" d="M41.1002 182.603C35.8002 182.603 32.2002 186.703 32.2002 192.902L32.2002 211.502L55.1002 211.502L55.1002 206.302L48.6002 206.302L43.5002 206.302L37.2002 206.302L37.2002 192.802C37.2002 190.503 38.2002 187.903 41.1002 187.903C43.6002 187.903 45.1002 189.703 45.1002 192.802L45.1002 197.702L47.6002 197.702L55.1002 190.503L55.1002 184.103L49.0002 190.403C48.3002 184.703 44.4002 182.603 41.1002 182.603Z" fill="#0B0B0B"/>
    <path transform="translate(-10 0)" d="M55.1002 177.403L55.1002 162.704L50.5002 162.704L50.5002 172.504L45.6002 172.504L45.6002 166.304L41.3002 166.304L41.3002 172.504L36.8002 172.504L36.8002 162.704L32.2002 162.704L32.2002 177.403L55.1002 177.403Z" fill="#0B0B0B"/>
    <path transform="translate(-10 0)" d="M56.0003 240.8C56.0003 245.9 51.9003 250 46.8003 250L46.8003 245.4C49.4003 245.4 51.5003 243.3 51.5003 240.7C51.5003 238.101 49.4003 236.001 46.8003 236.001C44.4003 236.001 42.7003 237.701 42.1003 239.5C41.6003 241 41.6003 243 41.6003 243L38.9003 243L31.8003 235.201L35.2003 232.101L38.7003 237.101C39.8003 233.301 43.4003 231.401 46.8003 231.401C51.9003 231.601 56.0003 235.701 56.0003 240.8Z" fill="#0B0B0B"/>
    <path transform="translate(-10 0)" d="M30.5 245.5L30.5 241.1L26 241.1L26 250L34.9 250L34.9 245.5L30.5 245.5Z" fill="#E52628"/>
    <path transform="translate(-10 0)" d="M41.7998 217.502L41.7998 226.501L46.7998 226.501L46.7998 217.502L41.7998 217.502Z" fill="#0B0B0B"/>
</svg>
