<svg id="_156" data-name="156" xmlns="http://www.w3.org/2000/svg" viewBox="0 0 281.26 800.06"><defs><style>.cls-1{isolation:isolate;font-size:12px;fill:#969696;}.cls-1,.cls-3,.cls-5{font-family:PTSans-Regular, PT Sans;}.cls-2,.cls-4,.cls-6,.cls-7{fill:none;stroke-linecap:round;stroke-linejoin:round;}.cls-2{stroke:#969696;stroke-width:0.75px;}.cls-3{font-size:40px;}.cls-4,.cls-6,.cls-7{stroke:#000;}.cls-4{stroke-width:0.5px;}.cls-5{font-size:36px;}.cls-6{stroke-width:0.25px;stroke-dasharray:1 1;}</style></defs><title>17floor_156flat</title><text class="cls-1" transform="translate(133.21 796.87)">двор</text><line class="cls-2" x1="122.45" y1="799.69" x2="122.45" y2="790.89"/><polyline class="cls-2" points="118.95 796.19 122.45 799.69 125.95 796.19"/><text class="cls-3" transform="translate(115.48 500.14)">CT</text><text class="cls-3" transform="translate(90.12 550.32)">26.11</text><text class="cls-3" transform="translate(84.84 450.24)">№156</text><polyline class="cls-4" points="75.83 561.13 75.83 412.06 200.15 412.06 200.15 561.13"/><line class="cls-4" x1="75.83" y1="461.84" x2="200.15" y2="461.84"/><line class="cls-4" x1="75.83" y1="561.13" x2="200.15" y2="561.13"/><line class="cls-4" x1="75.83" y1="511.63" x2="200.15" y2="511.63"/><text class="cls-5" transform="translate(99.95 642.78)">16.74</text><text class="cls-5" transform="translate(82.83 305.32)">2.20</text><text class="cls-5" transform="translate(174.47 151.6)">3.81</text><text class="cls-5" transform="translate(66.01 169.62)">3.36</text><line class="cls-6" x1="233.24" y1="0.13" x2="160.92" y2="0.13"/><line class="cls-6" x1="238.97" y1="211.27" x2="168.86" y2="211.27"/><line class="cls-6" x1="147.76" y1="123.54" x2="147.76" y2="193.65"/><line class="cls-6" x1="154.06" y1="123.54" x2="154.06" y2="193.65"/><line class="cls-6" x1="238.97" y1="217.57" x2="168.86" y2="217.57"/><polyline class="cls-7" points="269.78 694.6 280.6 693.03 269.78 694.6 228.17 700.61"/><line class="cls-7" x1="280.76" y1="685.34" x2="250.14" y2="689.79"/><line class="cls-7" x1="280.76" y1="685.34" x2="250.14" y2="689.79"/><line class="cls-7" x1="227.05" y1="693.07" x2="250.14" y2="689.79"/><line class="cls-7" x1="225.12" y1="701.01" x2="224.08" y2="693.47"/><line class="cls-7" x1="227.05" y1="693.07" x2="224.8" y2="693.39"/><line class="cls-7" x1="224.8" y1="693.39" x2="224.08" y2="693.47"/><line class="cls-7" x1="225.28" y1="701.73" x2="225.12" y2="701.01"/><line class="cls-7" x1="227.05" y1="693.07" x2="227.05" y2="693.07"/><polyline class="cls-7" points="228.17 700.61 225.93 700.93 224.8 693.39 225.93 700.93"/><line class="cls-7" x1="226.01" y1="701.65" x2="225.28" y2="701.73"/><polyline class="cls-7" points="227.05 693.07 226.41 688.58 224.4 674.32"/><line class="cls-7" x1="226.01" y1="701.65" x2="280.52" y2="693.76"/><line class="cls-7" x1="272.82" y1="667.34" x2="224.4" y2="674.31"/><polyline class="cls-7" points="117.22 721.13 225.85 705.5 225.28 701.73"/><line class="cls-7" x1="118.18" y1="689.63" x2="224.4" y2="674.31"/><line class="cls-7" x1="117.3" y1="717.28" x2="225.28" y2="701.73"/><line class="cls-7" x1="118.18" y1="689.63" x2="224.4" y2="674.31"/><polyline class="cls-7" points="117.7 704.22 121.87 703.66 122.27 706.62 124.11 706.38 124.36 707.9 118.34 708.71 117.62 708.87"/><polyline class="cls-7" points="182.07 699.57 179.11 699.97 178.87 698.52 180.79 698.2 180.31 695.24 181.43 695.08"/><line class="cls-7" x1="179.11" y1="699.97" x2="124.36" y2="707.9"/><polyline class="cls-7" points="121.63 702.13 126.12 701.49 175.58 694.36"/><polyline class="cls-7" points="126.12 701.49 126.76 705.98 122.27 706.62 121.63 702.13"/><polyline class="cls-7" points="180.79 698.2 176.22 698.85 175.58 694.36 180.07 693.72 180.79 698.2"/><line class="cls-7" x1="176.22" y1="698.85" x2="126.76" y2="705.98"/><line class="cls-7" x1="126.12" y1="701.49" x2="175.58" y2="694.36"/><line class="cls-7" x1="126.44" y1="703.74" x2="175.9" y2="696.6"/><line class="cls-7" x1="118.34" y1="708.71" x2="117.7" y2="704.22"/><polyline class="cls-7" points="181.43 695.08 182.56 694.92 183.04 697.88 184.88 697.64 185.12 699.17 182.07 699.57"/><polyline class="cls-7" points="227.05 693.07 221.12 693.96 220.88 692.43 222.72 692.19 222.32 689.15 226.41 688.58"/><line class="cls-7" x1="221.12" y1="693.96" x2="185.12" y2="699.17"/><polyline class="cls-7" points="182.4 693.39 186.88 692.75 217.59 688.34"/><polyline class="cls-7" points="186.88 692.75 187.53 697.24 183.04 697.88 182.4 693.39"/><polyline class="cls-7" points="222.72 692.19 218.23 692.83 217.59 688.34 222.08 687.7 222.72 692.19"/><line class="cls-7" x1="218.23" y1="692.83" x2="187.53" y2="697.24"/><line class="cls-7" x1="186.89" y1="692.75" x2="217.59" y2="688.34"/><line class="cls-7" x1="187.21" y1="695" x2="217.91" y2="690.59"/><polyline class="cls-7" points="224.4 674.32 226.41 688.58 227.05 693.07 226.41 688.58"/><line class="cls-7" x1="225.28" y1="701.73" x2="225.12" y2="701.01"/><polyline class="cls-7" points="224.08 693.47 224.8 693.39 224.08 693.47"/><polyline class="cls-7" points="224.8 693.39 227.05 693.07 224.8 693.39"/><line class="cls-7" x1="225.12" y1="701.01" x2="224.08" y2="693.47"/><line class="cls-7" x1="0.58" y1="692.63" x2="48.52" y2="702.37"/><line class="cls-7" x1="0.82" y1="684.94" x2="50.04" y2="694.92"/><line class="cls-7" x1="51.49" y1="703.01" x2="53.01" y2="695.56"/><line class="cls-7" x1="50.04" y1="694.92" x2="52.29" y2="695.4"/><line class="cls-7" x1="52.29" y1="695.4" x2="53.01" y2="695.56"/><line class="cls-7" x1="51.33" y1="703.74" x2="51.49" y2="703.01"/><line class="cls-7" x1="50.04" y1="694.92" x2="50.04" y2="694.92"/><polyline class="cls-7" points="48.52 702.37 50.76 702.85 52.29 695.4 50.76 702.85"/><line class="cls-7" x1="50.6" y1="703.58" x2="51.33" y2="703.74"/><polyline class="cls-7" points="50.04 694.92 50.92 690.51 53.81 676.4"/><line class="cls-7" x1="0.5" y1="693.35" x2="50.6" y2="703.58"/><line class="cls-7" x1="53.81" y1="676.4" x2="8.36" y2="667.02"/><polyline class="cls-7" points="117.22 721.13 50.52 707.42 51.33 703.74"/><line class="cls-7" x1="118.18" y1="689.63" x2="53.81" y2="676.4"/><line class="cls-7" x1="117.3" y1="717.28" x2="51.33" y2="703.74"/><line class="cls-7" x1="118.18" y1="689.63" x2="53.81" y2="676.4"/><polyline class="cls-7" points="117.7 704.22 113.61 703.41 113.05 706.38 111.21 705.98 110.89 707.5 116.82 708.71 117.62 708.87"/><polyline class="cls-7" points="50.04 694.92 55.98 696.2 56.3 694.68 54.45 694.28 55.01 691.31 50.92 690.51"/><line class="cls-7" x1="55.97" y1="696.2" x2="110.89" y2="707.5"/><polyline class="cls-7" points="113.93 701.89 109.53 701.01 59.82 690.75"/><polyline class="cls-7" points="109.53 701.01 108.56 705.42 113.05 706.38 113.93 701.89"/><polyline class="cls-7" points="54.45 694.28 58.86 695.24 59.82 690.75 55.33 689.87 54.45 694.28"/><line class="cls-7" x1="58.86" y1="695.24" x2="108.56" y2="705.42"/><line class="cls-7" x1="109.53" y1="701.01" x2="59.82" y2="690.75"/><line class="cls-7" x1="109.04" y1="703.25" x2="59.34" y2="692.99"/><line class="cls-7" x1="116.82" y1="708.71" x2="117.7" y2="704.22"/><polyline class="cls-7" points="53.81 676.4 50.92 690.51 50.04 694.92 50.92 690.51"/><line class="cls-7" x1="51.33" y1="703.74" x2="51.49" y2="703.01"/><polyline class="cls-7" points="53.01 695.56 52.29 695.4 53.01 695.56"/><polyline class="cls-7" points="52.29 695.4 50.04 694.92 52.29 695.4"/><line class="cls-7" x1="51.49" y1="703.01" x2="53.01" y2="695.56"/><line class="cls-7" x1="265.61" y1="15.67" x2="265.61" y2="254.89"/><line class="cls-7" x1="280.76" y1="254.89" x2="280.76" y2="42.21"/><line class="cls-7" x1="280.76" y1="27.06" x2="280.76" y2="0.52"/><polyline class="cls-7" points="0.5 15.67 0.5 667.18 15.65 667.18 15.65 66.42"/><line class="cls-7" x1="15.65" y1="51.27" x2="15.65" y2="0.52"/><line class="cls-7" x1="154.26" y1="182.34" x2="148.25" y2="182.34"/><line class="cls-7" x1="154.26" y1="129.35" x2="148.25" y2="129.35"/><line class="cls-7" x1="154.26" y1="265.71" x2="154.26" y2="217.93"/><line class="cls-7" x1="154.26" y1="211.92" x2="154.26" y2="182.34"/><polyline class="cls-7" points="154.26 129.35 154.26 66.42 148.25 66.42 148.25 129.35"/><line class="cls-7" x1="148.25" y1="182.34" x2="148.25" y2="211.92"/><line class="cls-7" x1="148.25" y1="217.93" x2="148.25" y2="259.62"/><line class="cls-7" x1="167.16" y1="211.92" x2="167.16" y2="217.93"/><line class="cls-7" x1="235.31" y1="211.92" x2="235.31" y2="217.93"/><polyline class="cls-7" points="19.42 211.92 19.42 214.89 19.42 217.93"/><polyline class="cls-7" points="49.72 211.92 49.72 214.89 49.72 217.93"/><line class="cls-7" x1="265.61" y1="211.92" x2="235.31" y2="211.92"/><line class="cls-7" x1="167.16" y1="211.92" x2="154.26" y2="211.92"/><line class="cls-7" x1="148.25" y1="211.92" x2="49.72" y2="211.92"/><polyline class="cls-7" points="19.42 211.92 15.65 211.92 15.65 217.93 19.42 217.93"/><line class="cls-7" x1="49.72" y1="217.93" x2="53.57" y2="217.93"/><line class="cls-7" x1="59.58" y1="217.93" x2="148.25" y2="217.93"/><line class="cls-7" x1="154.26" y1="217.93" x2="167.16" y2="217.93"/><polyline class="cls-7" points="235.31 217.93 265.61 217.93 265.61 211.92"/><line class="cls-7" x1="49.72" y1="211.92" x2="19.42" y2="211.92"/><line class="cls-7" x1="49.72" y1="217.93" x2="19.42" y2="217.93"/><path class="cls-7" d="M49.72,212a30.45,30.45,0,0,0-1.82-10.35"/><line class="cls-7" x1="19.42" y1="211.92" x2="47.96" y2="201.5"/><polyline class="cls-7" points="49.72 217.93 49.72 214.89 49.72 211.92 49.72 214.89"/><polyline class="cls-7" points="19.42 217.93 19.42 214.89 19.42 211.92 19.42 214.89"/><line class="cls-7" x1="53.57" y1="217.93" x2="53.57" y2="259.62"/><polyline class="cls-7" points="148.25 259.62 59.58 259.62 59.58 217.93"/><polyline class="cls-7" points="53.57 259.62 15.65 259.62 15.65 265.71"/><polyline class="cls-7" points="154.26 265.71 148.25 265.71 15.65 265.71"/><line class="cls-7" x1="15.65" y1="66.42" x2="154.26" y2="66.42"/><line class="cls-7" x1="139.11" y1="51.27" x2="15.65" y2="51.27"/><polyline class="cls-7" points="154.26 66.42 154.26 51.27 154.26 15.67"/><line class="cls-7" x1="139.11" y1="0.52" x2="139.11" y2="51.27"/><line class="cls-7" x1="159.55" y1="15.67" x2="159.55" y2="6.62"/><line class="cls-7" x1="235.31" y1="15.67" x2="235.31" y2="6.62"/><line class="cls-7" x1="154.26" y1="15.67" x2="159.55" y2="15.67"/><line class="cls-7" x1="235.31" y1="15.67" x2="265.61" y2="15.67"/><polyline class="cls-7" points="280.76 0.52 265.61 0.52 235.31 0.52"/><polyline class="cls-7" points="139.11 0.52 154.26 0.52 159.55 0.52"/><path class="cls-7" d="M162.63,76.36a69.71,69.71,0,0,0,69.71-69.7"/><polyline class="cls-7" points="235.31 0.52 232.34 0.52 232.34 6.62 235.31 6.62 235.31 0.52"/><polyline class="cls-7" points="159.55 6.62 162.59 6.62 162.59 0.52 159.55 0.52 159.55 6.62"/><line class="cls-7" x1="162.59" y1="6.62" x2="162.59" y2="76.28"/><line class="cls-7" x1="235.31" y1="15.67" x2="235.31" y2="6.62"/><line class="cls-7" x1="159.55" y1="15.67" x2="159.55" y2="6.62"/><line class="cls-7" x1="15.65" y1="0.52" x2="0.5" y2="0.52"/><polyline class="cls-7" points="265.61 254.89 265.61 667.18 280.76 667.18 280.76 254.89"/><line class="cls-7" x1="8.12" y1="9.66" x2="95.18" y2="9.66"/><polyline class="cls-7" points="104.31 9.66 139.11 9.66 139.11 0.52 8.12 0.52 8.12 9.66"/><polyline class="cls-7" points="95.18 9.66 95.18 51.27 104.31 51.27 104.31 9.66"/><polyline class="cls-7" points="15.65 687.86 15.65 682.33 0.5 682.33 0.5 693.35"/><polyline class="cls-7" points="280.76 693.75 280.76 682.33 265.61 682.33 265.61 687.54"/><polyline class="cls-7" points="17.98 311.08 59.58 311.08 59.58 269.48 17.98 269.48 17.98 311.08"/><polyline class="cls-7" points="21.74 307.32 55.81 307.32 55.81 277.01 21.74 277.01 21.74 307.32"/><line class="cls-7" x1="22.22" y1="76.28" x2="22.22" y2="114.92"/><line class="cls-7" x1="26.55" y1="119.49" x2="120.27" y2="119.49"/><line class="cls-7" x1="26.55" y1="71.79" x2="120.27" y2="71.79"/><line class="cls-7" x1="146.72" y1="124.06" x2="17.98" y2="124.06"/><polyline class="cls-7" points="146.72 124.06 146.72 67.22 17.98 67.22 17.98 124.06"/><line class="cls-7" x1="105.2" y1="79.65" x2="31.84" y2="79.65"/><line class="cls-7" x1="29.68" y1="81.89" x2="29.68" y2="109.31"/><line class="cls-7" x1="105.2" y1="111.55" x2="31.84" y2="111.55"/><line class="cls-7" x1="44.75" y1="94.24" x2="44.75" y2="91.43"/><line class="cls-7" x1="43.47" y1="95.6" x2="40.82" y2="95.6"/><line class="cls-7" x1="44.75" y1="97.04" x2="44.75" y2="99.85"/><line class="cls-7" x1="46.11" y1="95.6" x2="48.76" y2="95.6"/><path class="cls-7" d="M120.31,119.49c12.46,0,22.56-10.68,22.56-23.85s-10.1-23.85-22.56-23.85"/><path class="cls-7" d="M22.3,115a4.42,4.42,0,0,0,4.29,4.53"/><path class="cls-7" d="M26.59,71.79a4.42,4.42,0,0,0-4.29,4.53"/><path class="cls-7" d="M44.79,98a2.37,2.37,0,1,0-2.2-2.36A2.28,2.28,0,0,0,44.79,98"/><path class="cls-7" d="M105.24,111.63c8.3,0,15-7.16,15-16s-6.73-16-15-16"/><path class="cls-7" d="M31.88,79.65a2.2,2.2,0,0,0-2.12,2.28"/><path class="cls-7" d="M29.76,109.35a2.2,2.2,0,0,0,2.12,2.28"/><path class="cls-7" d="M44.79,98.81a3.17,3.17,0,1,0-3-3.17,3.1,3.1,0,0,0,3,3.17"/><polyline class="cls-7" points="35.21 164.94 17.98 164.94 17.98 124.06 35.21 124.06"/><line class="cls-7" x1="17.98" y1="138.01" x2="17.98" y2="150.91"/><line class="cls-7" x1="31.84" y1="141.05" x2="31.84" y2="143.22"/><line class="cls-7" x1="28.4" y1="144.5" x2="30.56" y2="144.5"/><line class="cls-7" x1="31.84" y1="145.78" x2="31.84" y2="147.95"/><line class="cls-7" x1="33.13" y1="144.5" x2="35.29" y2="144.5"/><path class="cls-7" d="M27.71,155.39a18.24,18.24,0,0,0,8.62,7.08"/><path class="cls-7" d="M25.17,144.52a18.2,18.2,0,0,0,2.56,10.87"/><path class="cls-7" d="M36.33,126.54a18.16,18.16,0,0,0-8.62,7.07"/><path class="cls-7" d="M27.73,133.61a18.2,18.2,0,0,0-2.56,10.87"/><path class="cls-7" d="M45.61,158.38A33.79,33.79,0,0,0,49,146"/><path class="cls-7" d="M43.83,127.94a10.4,10.4,0,0,0-8.54-3.87"/><path class="cls-7" d="M49,146a19.5,19.5,0,0,0,0-2.86"/><path class="cls-7" d="M28.4,133.1a74.45,74.45,0,0,0,0,22.89"/><path class="cls-7" d="M37.94,125.18a25.68,25.68,0,0,0-16.7,5.8"/><path class="cls-7" d="M20.12,132.82a51.23,51.23,0,0,0-1.26,11.71"/><path class="cls-7" d="M21.23,130.92a3.4,3.4,0,0,0-1.17,1.88"/><path class="cls-7" d="M21.21,133a87.32,87.32,0,0,0-.83,11.54"/><path class="cls-7" d="M38,125.1a23.18,23.18,0,0,0-15.6,5.78"/><path class="cls-7" d="M22.42,130.92A3.4,3.4,0,0,0,21.3,133"/><path class="cls-7" d="M22.34,158.1a23.11,23.11,0,0,0,15.59,5.8"/><path class="cls-7" d="M21.21,158.08A25.75,25.75,0,0,0,37.9,163.9"/><path class="cls-7" d="M20.38,144.52a87.28,87.28,0,0,0,.82,11.53"/><path class="cls-7" d="M18.86,144.48a50.67,50.67,0,0,0,1.25,11.71"/><path class="cls-7" d="M21.21,156.07a3.46,3.46,0,0,0,1.12,2.09"/><path class="cls-7" d="M20.06,156.19a3.43,3.43,0,0,0,1.17,1.89"/><path class="cls-7" d="M35.29,164.93a10.38,10.38,0,0,0,8.54-3.87"/><path class="cls-7" d="M43.85,161.13a16.69,16.69,0,0,0,1.77-2.72"/><path class="cls-7" d="M45.62,130.67A16.69,16.69,0,0,0,43.85,128"/><path class="cls-7" d="M49,143.12a33.84,33.84,0,0,0-3.38-12.42"/><path class="cls-7" d="M46.09,150.17a24.08,24.08,0,0,0,0-11.26"/><path class="cls-7" d="M36.35,162.44a6.12,6.12,0,0,0,5.07-2.11"/><path class="cls-7" d="M41.43,160.34a22.23,22.23,0,0,0,4.67-10.19"/><path class="cls-7" d="M41.42,128.67a6.15,6.15,0,0,0-5.07-2.11"/><path class="cls-7" d="M46.1,138.93a22.23,22.23,0,0,0-4.67-10.19"/><path class="cls-7" d="M31.88,147.23a2.69,2.69,0,1,0-2.68-2.69,2.69,2.69,0,0,0,2.68,2.69"/><path class="cls-7" d="M31.88,146.42A1.88,1.88,0,1,0,30,144.54a1.88,1.88,0,0,0,1.88,1.88"/><line class="cls-7" x1="29.6" y1="194.84" x2="56.3" y2="194.84"/><polyline class="cls-7" points="28 195.97 17.98 195.97 17.98 167.19"/><line class="cls-7" x1="34.25" y1="181.62" x2="34.25" y2="170.96"/><polyline class="cls-7" points="56.3 194.84 34.25 192.28 34.25 181.62"/><line class="cls-7" x1="56.3" y1="168.31" x2="34.25" y2="170.96"/><line class="cls-7" x1="56.3" y1="194.2" x2="34.25" y2="191.56"/><line class="cls-7" x1="56.3" y1="169.03" x2="34.25" y2="171.6"/><line class="cls-7" x1="29.6" y1="168.31" x2="56.3" y2="168.31"/><line class="cls-7" x1="17.98" y1="167.19" x2="28" y2="167.19"/><polyline class="cls-7" points="56.3 194.84 59.26 194.44 62.07 193.32 64.55 191.56 66.48 189.15 67.92 186.27 68.64 183.22 68.64 180.01 67.92 176.89 66.48 174.08 64.55 171.68 62.07 169.83 59.26 168.71 56.3 168.31"/><polyline class="cls-7" points="56.3 194.2 59.1 193.8 61.75 192.76 64.07 191 65.92 188.75 67.28 186.03 67.92 183.14 67.92 180.09 67.28 177.13 65.92 174.48 64.07 172.16 61.75 170.47 59.1 169.35 56.3 169.03"/><path class="cls-7" d="M29.64,194.56a122.25,122.25,0,0,0,0-25.8"/><path class="cls-7" d="M28,196a1.69,1.69,0,0,0,1.71-1.47"/><path class="cls-7" d="M29.75,168.75A1.7,1.7,0,0,0,28,167.27"/><path class="cls-7" d="M25.75,181.66a1.4,1.4,0,1,0-1.4,1.4,1.41,1.41,0,0,0,1.4-1.4"/><polyline class="cls-7" points="116.58 719.05 116.18 719.05 107.84 759.85 108.16 759.93 116.58 719.05"/><polyline class="cls-7" points="106.4 761.05 106.48 760.73 38.18 746.62 38.1 747.02 106.4 761.05"/><polyline class="cls-7" points="36.98 745.26 37.3 745.34 45.71 704.54 45.31 704.46 36.98 745.26"/><polyline class="cls-7" points="117.3 717.28 115.46 716.96 115.06 718.81 116.98 719.13 117.3 717.28"/><polyline class="cls-7" points="108.56 759.93 106.72 759.61 106.32 761.46 108.16 761.86 108.56 759.93"/><polyline class="cls-7" points="38.1 747.43 38.42 745.58 36.58 745.18 36.17 747.02 38.1 747.43"/><polyline class="cls-7" points="44.99 704.38 46.84 704.7 47.24 702.85 45.39 702.53 44.99 704.38"/><line class="cls-7" x1="115.3" y1="717.84" x2="106.72" y2="759.61"/><line class="cls-7" x1="108.16" y1="761.86" x2="117.14" y2="718.25"/><line class="cls-7" x1="106.72" y1="759.61" x2="38.42" y2="745.58"/><line class="cls-7" x1="36.17" y1="747.03" x2="108.16" y2="761.86"/><line class="cls-7" x1="38.42" y1="745.58" x2="47" y2="703.82"/><line class="cls-7" x1="45.15" y1="703.41" x2="36.17" y2="747.03"/><polyline class="cls-7" points="117.14 718.25 117.3 717.28 115.46 716.96 115.3 717.85"/><polyline class="cls-7" points="47 703.82 47.24 702.85 45.39 702.53 45.15 703.41"/><polyline class="cls-7" points="36.17 747.02 108.16 761.86 117.14 718.25 115.3 717.85 106.72 759.61 38.42 745.58 47 703.82 45.15 703.41 36.17 747.02"/><polyline class="cls-7" points="42.67 734.44 107.2 747.75 112.09 723.94 47.56 710.71 42.67 734.44"/><polyline class="cls-7" points="43.15 732.03 107.68 745.34 112.09 723.94 47.56 710.71 43.15 732.03"/><polyline class="cls-7" points="265.61 280.78 280.76 280.78 280.76 356.54 265.61 356.54 265.61 280.78"/><polyline class="cls-7" points="265.61 606.58 280.76 606.58 280.76 682.33 265.61 682.33 265.61 606.58"/><polyline class="cls-7" points="0.5 606.58 15.65 606.58 15.65 682.33 0.5 682.33 0.5 606.58"/><polyline class="cls-7" points="0.5 280.78 15.65 280.78 15.65 356.54 0.5 356.54 0.5 280.78"/><polyline class="cls-7" points="265.61 0.52 280.76 0.52 280.76 76.28 265.61 76.28 265.61 0.52"/><polyline class="cls-7" points="0.5 0.52 15.65 0.52 15.65 76.28 0.5 76.28 0.5 0.52"/></svg>