<svg id="_150" data-name="150" xmlns="http://www.w3.org/2000/svg" viewBox="0 0 370.29 795.68"><defs><style>.cls-1{isolation:isolate;font-size:12px;fill:#969696;}.cls-1,.cls-4,.cls-5{font-family:PTSans-Regular, PT Sans;}.cls-2,.cls-3,.cls-6,.cls-7{fill:none;stroke-linecap:round;stroke-linejoin:round;}.cls-2{stroke:#969696;stroke-width:0.75px;}.cls-3,.cls-6{stroke:#7d7d7d;stroke-width:0.5px;}.cls-4{font-size:28px;}.cls-5{font-size:24px;}.cls-6{stroke-dasharray:4 4;}.cls-7{stroke:#000;stroke-width:0.78px;}</style></defs><title>15floor_150flat</title><text class="cls-1" transform="translate(179.57 10.2)">двор</text><line class="cls-2" x1="168.81" y1="1.4" x2="168.81" y2="10.2"/><polyline class="cls-2" points="172.31 4.9 168.81 1.4 165.31 4.9"/><polyline class="cls-3" points="139.92 366.29 139.92 257.52 230.63 257.52 230.63 366.29"/><line class="cls-3" x1="139.92" y1="293.85" x2="230.63" y2="293.85"/><line class="cls-3" x1="139.92" y1="366.29" x2="230.63" y2="366.29"/><line class="cls-3" x1="139.92" y1="330.17" x2="230.63" y2="330.17"/><text class="cls-4" transform="translate(169.52 319.96)">CT</text><text class="cls-4" transform="translate(151.76 356.94)">21.43</text><text class="cls-4" transform="translate(148.07 283.55)">№150</text><text class="cls-5" transform="translate(82.74 665.95)">3.91</text><text class="cls-5" transform="translate(211.15 438.71)">2.20</text><text class="cls-5" transform="translate(205.75 662.43)">3.52</text><text class="cls-5" transform="translate(161.01 201.3)">11.80</text><polyline class="cls-6" points="177.65 492.64 350.77 492.64 350.77 379.17 177.65 379.17 177.65 492.64"/><line class="cls-7" x1="312.61" y1="118.29" x2="312.61" y2="118.29"/><line class="cls-7" x1="276.88" y1="125" x2="280.27" y2="119.04"/><line class="cls-7" x1="280.27" y1="128.54" x2="285.77" y2="119.04"/><line class="cls-7" x1="285.77" y1="128.54" x2="291.2" y2="119.04"/><line class="cls-7" x1="291.2" y1="128.54" x2="296.71" y2="119.04"/><line class="cls-7" x1="296.71" y1="128.54" x2="302.13" y2="119.04"/><line class="cls-7" x1="302.13" y1="128.54" x2="307.56" y2="119.04"/><line class="cls-7" x1="307.56" y1="128.54" x2="313.07" y2="119.04"/><line class="cls-7" x1="313.07" y1="128.54" x2="318.5" y2="119.04"/><line class="cls-7" x1="318.5" y1="128.54" x2="324" y2="119.04"/><line class="cls-7" x1="324" y1="128.54" x2="329.43" y2="119.04"/><line class="cls-7" x1="329.43" y1="128.54" x2="334.93" y2="119.04"/><line class="cls-7" x1="334.93" y1="128.54" x2="339.08" y2="121.23"/><line class="cls-7" x1="278.31" y1="128.54" x2="276.8" y2="125.9"/><line class="cls-7" x1="283.74" y1="128.54" x2="278.31" y2="119.04"/><line class="cls-7" x1="289.17" y1="128.54" x2="283.74" y2="119.04"/><line class="cls-7" x1="294.67" y1="128.54" x2="289.17" y2="119.04"/><line class="cls-7" x1="300.1" y1="128.54" x2="294.67" y2="119.04"/><line class="cls-7" x1="305.6" y1="128.54" x2="300.1" y2="119.04"/><line class="cls-7" x1="311.03" y1="128.54" x2="305.6" y2="119.04"/><line class="cls-7" x1="316.54" y1="128.54" x2="311.03" y2="119.04"/><line class="cls-7" x1="321.96" y1="128.54" x2="316.54" y2="119.04"/><line class="cls-7" x1="327.39" y1="128.54" x2="321.96" y2="119.04"/><line class="cls-7" x1="332.9" y1="128.54" x2="327.39" y2="119.04"/><line class="cls-7" x1="338.33" y1="128.54" x2="332.9" y2="119.04"/><line class="cls-7" x1="339" y1="120.17" x2="338.33" y2="119.04"/><line class="cls-7" x1="279.06" y1="149.35" x2="289.09" y2="139.32"/><line class="cls-7" x1="292.41" y1="136.01" x2="299.87" y2="128.54"/><line class="cls-7" x1="305.75" y1="149.35" x2="315.78" y2="139.32"/><line class="cls-7" x1="319.17" y1="136.01" x2="326.64" y2="128.54"/><line class="cls-7" x1="332.52" y1="149.35" x2="341.12" y2="140.83"/><line class="cls-7" x1="275.37" y1="139.63" x2="275.67" y2="139.32"/><line class="cls-7" x1="279.06" y1="136.01" x2="286.53" y2="128.54"/><line class="cls-7" x1="292.41" y1="149.35" x2="302.44" y2="139.32"/><line class="cls-7" x1="305.75" y1="136.01" x2="313.29" y2="128.54"/><line class="cls-7" x1="319.17" y1="149.35" x2="329.2" y2="139.32"/><line class="cls-7" x1="332.52" y1="136.01" x2="339.83" y2="128.69"/><line class="cls-7" x1="338.85" y1="119.04" x2="277.48" y2="119.04"/><line class="cls-7" x1="339.83" y1="128.54" x2="276.5" y2="128.54"/><line class="cls-7" x1="338.78" y1="118.14" x2="277.55" y2="118.14"/><line class="cls-7" x1="274.09" y1="152.14" x2="342.25" y2="152.14"/><line class="cls-7" x1="47.44" y1="108.56" x2="47.44" y2="108.56"/><line class="cls-7" x1="10.57" y1="115.87" x2="10.57" y2="115.87"/><line class="cls-7" x1="4.54" y1="123.79" x2="8.46" y2="117.01"/><line class="cls-7" x1="10.04" y1="123.79" x2="14.72" y2="115.72"/><line class="cls-7" x1="15.47" y1="123.79" x2="20.9" y2="114.44"/><line class="cls-7" x1="20.75" y1="124.09" x2="27.08" y2="113.16"/><line class="cls-7" x1="26.93" y1="122.89" x2="33.26" y2="111.88"/><line class="cls-7" x1="33.11" y1="121.61" x2="39.45" y2="110.6"/><line class="cls-7" x1="39.37" y1="120.32" x2="45.18" y2="110.14"/><line class="cls-7" x1="45.55" y1="119.04" x2="46.61" y2="117.16"/><line class="cls-7" x1="2.5" y1="123.79" x2="0.69" y2="120.65"/><line class="cls-7" x1="8.01" y1="123.79" x2="4.54" y2="117.84"/><line class="cls-7" x1="13.43" y1="123.79" x2="9.44" y2="116.78"/><line class="cls-7" x1="18.94" y1="123.79" x2="14.26" y2="115.8"/><line class="cls-7" x1="24.14" y1="123.41" x2="19.16" y2="114.82"/><line class="cls-7" x1="29.04" y1="122.43" x2="24.07" y2="113.76"/><line class="cls-7" x1="33.94" y1="121.38" x2="28.97" y2="112.78"/><line class="cls-7" x1="38.77" y1="120.4" x2="33.79" y2="111.8"/><line class="cls-7" x1="43.67" y1="119.42" x2="38.69" y2="110.75"/><line class="cls-7" x1="45.93" y1="113.84" x2="43.59" y2="109.77"/><line class="cls-7" x1="19.69" y1="141.21" x2="21.58" y2="139.32"/><line class="cls-7" x1="24.89" y1="136.01" x2="34.92" y2="125.98"/><line class="cls-7" x1="38.32" y1="122.66" x2="40.95" y2="119.95"/><line class="cls-7" x1="44.2" y1="143.47" x2="48.34" y2="139.32"/><line class="cls-7" x1="51.66" y1="136.01" x2="56.34" y2="131.33"/><line class="cls-7" x1="19.69" y1="127.79" x2="21.58" y2="125.98"/><line class="cls-7" x1="27.38" y1="146.86" x2="34.92" y2="139.32"/><line class="cls-7" x1="38.32" y1="136.01" x2="48.34" y2="125.98"/><line class="cls-7" x1="51.66" y1="122.66" x2="54" y2="120.25"/><line class="cls-7" x1="45.18" y1="110.14" x2="45.63" y2="109.32"/><line class="cls-7" x1="46.61" y1="117.16" x2="51.89" y2="108.03"/><line class="cls-7" x1="51.74" y1="117.76" x2="55.2" y2="111.8"/><line class="cls-7" x1="48.57" y1="118.44" x2="45.93" y2="113.84"/><line class="cls-7" x1="53.47" y1="117.38" x2="48.49" y2="108.79"/><line class="cls-7" x1="54.9" y1="110.45" x2="53.32" y2="107.73"/><line class="cls-7" x1="45.03" y1="109.47" x2="0.84" y2="118.52"/><line class="cls-7" x1="46.91" y1="118.74" x2="19.69" y2="124.32"/><line class="cls-7" x1="55.2" y1="107.36" x2="57.17" y2="116.63"/><line class="cls-7" x1="53.4" y1="117.38" x2="56.18" y2="116.86"/><line class="cls-7" x1="56.18" y1="116.86" x2="57.17" y2="116.63"/><line class="cls-7" x1="55.05" y1="106.45" x2="55.2" y2="107.36"/><line class="cls-7" x1="53.4" y1="117.38" x2="53.4" y2="117.38"/><line class="cls-7" x1="46.91" y1="118.74" x2="53.4" y2="117.38"/><line class="cls-7" x1="46.91" y1="118.74" x2="46.91" y2="118.74"/><polyline class="cls-7" points="45.03 109.47 54.3 107.58 56.19 116.86 54.3 107.58"/><line class="cls-7" x1="54.07" y1="106.68" x2="55.05" y2="106.45"/><polyline class="cls-7" points="53.4 117.38 54.6 122.96 58.22 140.53 19.69 148.45"/><line class="cls-7" x1="54.07" y1="106.68" x2="0.69" y2="117.61"/><line class="cls-7" x1="137.92" y1="89.41" x2="55.05" y2="106.45"/><line class="cls-7" x1="137.92" y1="124.17" x2="58.22" y2="140.53"/><polyline class="cls-7" points="137.92 105.77 132.87 106.83 132.11 103.13 129.77 103.66 129.4 101.78 136.79 100.27 137.92 100.04"/><polyline class="cls-7" points="53.4 117.38 60.86 115.88 61.24 117.76 58.9 118.21 59.65 121.91 54.6 122.96"/><line class="cls-7" x1="60.86" y1="115.87" x2="129.4" y2="101.78"/><polyline class="cls-7" points="133.24 108.71 127.66 109.84 65.61 122.58"/><polyline class="cls-7" points="127.66 109.84 126.53 104.26 132.11 103.13 133.24 108.71"/><polyline class="cls-7" points="58.9 118.21 64.48 117.08 65.61 122.58 60.03 123.79 58.9 118.21"/><line class="cls-7" x1="64.48" y1="117.08" x2="126.53" y2="104.26"/><line class="cls-7" x1="127.66" y1="109.84" x2="65.61" y2="122.59"/><line class="cls-7" x1="127.13" y1="107.05" x2="65.01" y2="119.87"/><line class="cls-7" x1="136.79" y1="100.27" x2="137.92" y2="105.77"/><polyline class="cls-7" points="58.22 140.53 54.6 122.96 53.4 117.38 54.6 122.96"/><line class="cls-7" x1="55.05" y1="106.45" x2="55.2" y2="107.36"/><polyline class="cls-7" points="57.16 116.63 56.19 116.86 57.16 116.63"/><polyline class="cls-7" points="56.19 116.86 53.4 117.38 56.19 116.86"/><line class="cls-7" x1="55.2" y1="107.36" x2="57.17" y2="116.63"/><line class="cls-7" x1="273.33" y1="128.32" x2="273.71" y2="127.94"/><line class="cls-7" x1="269.86" y1="145.2" x2="275.37" y2="139.63"/><line class="cls-7" x1="270.92" y1="125.83" x2="275.14" y2="118.59"/><line class="cls-7" x1="274.99" y1="128.24" x2="279.97" y2="119.57"/><line class="cls-7" x1="272.35" y1="127.64" x2="270.99" y2="125.38"/><line class="cls-7" x1="278.53" y1="128.92" x2="272.43" y2="118.44"/><line class="cls-7" x1="281.02" y1="123.79" x2="278.38" y2="119.27"/><line class="cls-7" x1="271.6" y1="117.84" x2="269.71" y2="127.11"/><line class="cls-7" x1="273.41" y1="127.86" x2="270.62" y2="127.34"/><line class="cls-7" x1="270.62" y1="127.34" x2="269.71" y2="127.11"/><line class="cls-7" x1="271.82" y1="116.93" x2="271.6" y2="117.84"/><line class="cls-7" x1="273.41" y1="127.86" x2="273.41" y2="127.86"/><line class="cls-7" x1="279.89" y1="129.22" x2="273.41" y2="127.86"/><line class="cls-7" x1="279.89" y1="129.22" x2="279.89" y2="129.22"/><polyline class="cls-7" points="281.78 119.95 272.5 118.06 270.62 127.33 272.5 118.06"/><line class="cls-7" x1="272.73" y1="117.16" x2="271.82" y2="116.93"/><polyline class="cls-7" points="273.41 127.86 272.28 133.44 268.66 151.01 274.09 152.14"/><line class="cls-7" x1="277.55" y1="118.14" x2="272.73" y2="117.16"/><line class="cls-7" x1="137.92" y1="89.41" x2="271.82" y2="116.93"/><line class="cls-7" x1="137.92" y1="124.17" x2="268.66" y2="151.01"/><polyline class="cls-7" points="137.92 105.77 143.04 106.83 143.8 103.13 146.13 103.66 146.51 101.78 139.05 100.27 137.92 100.04"/><polyline class="cls-7" points="217.84 116.48 214.14 115.65 213.77 117.53 216.03 117.99 215.28 121.76 216.71 121.98"/><line class="cls-7" x1="214.14" y1="115.65" x2="146.51" y2="101.78"/><polyline class="cls-7" points="142.67 108.71 148.25 109.84 209.32 122.44"/><polyline class="cls-7" points="148.25 109.84 149.38 104.26 143.8 103.13 142.67 108.71"/><polyline class="cls-7" points="216.03 117.99 210.53 116.86 209.32 122.44 214.9 123.57 216.03 117.99"/><line class="cls-7" x1="210.53" y1="116.86" x2="149.38" y2="104.26"/><line class="cls-7" x1="148.25" y1="109.84" x2="209.32" y2="122.43"/><line class="cls-7" x1="148.77" y1="107.05" x2="209.92" y2="119.64"/><line class="cls-7" x1="139.05" y1="100.27" x2="137.92" y2="105.77"/><polyline class="cls-7" points="216.71 121.98 218.06 122.28 218.82 118.59 221.16 119.04 221.53 117.23 217.84 116.48"/><polyline class="cls-7" points="273.41 127.86 266.02 126.36 265.64 128.24 267.9 128.69 267.15 132.39 272.28 133.44"/><line class="cls-7" x1="266.02" y1="126.36" x2="221.53" y2="117.23"/><polyline class="cls-7" points="217.69 124.17 223.27 125.3 261.19 133.07"/><polyline class="cls-7" points="223.27 125.3 224.4 119.72 218.82 118.59 217.69 124.17"/><polyline class="cls-7" points="267.9 128.69 262.4 127.56 261.19 133.07 266.77 134.27 267.9 128.69"/><line class="cls-7" x1="262.4" y1="127.56" x2="224.4" y2="119.72"/><line class="cls-7" x1="223.27" y1="125.3" x2="261.19" y2="133.07"/><line class="cls-7" x1="223.8" y1="122.51" x2="261.8" y2="130.35"/><polyline class="cls-7" points="268.66 151.01 272.28 133.44 273.41 127.86 272.28 133.44"/><line class="cls-7" x1="271.82" y1="116.93" x2="271.6" y2="117.84"/><polyline class="cls-7" points="269.71 127.11 270.62 127.33 269.71 127.11"/><polyline class="cls-7" points="270.62 127.33 273.41 127.86 270.62 127.33"/><line class="cls-7" x1="271.6" y1="117.84" x2="269.71" y2="127.11"/><line class="cls-7" x1="344.13" y1="117.38" x2="344.13" y2="117.38"/><line class="cls-7" x1="343.98" y1="117.46" x2="343.98" y2="117.46"/><line class="cls-7" x1="366.22" y1="113.24" x2="366.22" y2="113.24"/><line class="cls-7" x1="339.08" y1="121.23" x2="340.59" y2="118.74"/><line class="cls-7" x1="340.44" y1="128.39" x2="346.77" y2="117.46"/><line class="cls-7" x1="346.62" y1="127.11" x2="350.77" y2="120.02"/><line class="cls-7" x1="351.29" y1="119.04" x2="352.95" y2="116.18"/><line class="cls-7" x1="356.72" y1="119.04" x2="359.14" y2="114.89"/><line class="cls-7" x1="362.23" y1="119.04" x2="365.32" y2="113.61"/><line class="cls-7" x1="343.38" y1="127.79" x2="339" y2="120.17"/><line class="cls-7" x1="348.28" y1="126.81" x2="343.3" y2="118.14"/><line class="cls-7" x1="350.77" y1="121.61" x2="348.13" y2="117.16"/><line class="cls-7" x1="354.69" y1="119.04" x2="353.03" y2="116.18"/><line class="cls-7" x1="360.19" y1="119.04" x2="357.93" y2="115.12"/><line class="cls-7" x1="365.62" y1="119.04" x2="362.83" y2="114.14"/><line class="cls-7" x1="341.12" y1="140.83" x2="342.55" y2="139.32"/><line class="cls-7" x1="345.94" y1="136.01" x2="350.77" y2="131.18"/><line class="cls-7" x1="339.83" y1="128.69" x2="340.06" y2="128.47"/><line class="cls-7" x1="345.94" y1="149.35" x2="350.77" y2="144.53"/><line class="cls-7" x1="369.83" y1="112.69" x2="338.85" y2="119.04"/><line class="cls-7" x1="350.77" y1="126.28" x2="339.83" y2="128.54"/><line class="cls-7" x1="342.25" y1="152.14" x2="350.77" y2="150.41"/><line class="cls-7" x1="369.9" y1="111.74" x2="338.78" y2="118.14"/><line class="cls-7" x1="18.18" y1="771.31" x2="10.72" y2="763.77"/><line class="cls-7" x1="8.16" y1="761.28" x2="0.84" y2="753.9"/><line class="cls-7" x1="19.69" y1="746.05" x2="14.04" y2="740.4"/><line class="cls-7" x1="11.55" y1="737.91" x2="4.01" y2="730.37"/><line class="cls-7" x1="1.52" y1="727.88" x2="0.84" y2="727.13"/><line class="cls-7" x1="19.69" y1="719.29" x2="17.35" y2="716.95"/><line class="cls-7" x1="14.87" y1="714.46" x2="7.33" y2="706.92"/><line class="cls-7" x1="4.84" y1="704.43" x2="0.84" y2="700.44"/><line class="cls-7" x1="18.18" y1="691.09" x2="10.72" y2="683.55"/><line class="cls-7" x1="8.16" y1="681.06" x2="0.84" y2="673.67"/><line class="cls-7" x1="19.69" y1="665.83" x2="14.04" y2="660.18"/><line class="cls-7" x1="11.55" y1="657.61" x2="4.01" y2="650.07"/><line class="cls-7" x1="1.52" y1="647.58" x2="0.84" y2="646.91"/><line class="cls-7" x1="19.69" y1="639.06" x2="17.35" y2="636.73"/><line class="cls-7" x1="14.87" y1="634.24" x2="7.33" y2="626.7"/><line class="cls-7" x1="4.84" y1="624.21" x2="0.84" y2="620.14"/><line class="cls-7" x1="18.18" y1="610.79" x2="10.72" y2="603.33"/><line class="cls-7" x1="8.16" y1="600.76" x2="0.84" y2="593.37"/><line class="cls-7" x1="19.69" y1="585.61" x2="14.04" y2="579.88"/><line class="cls-7" x1="11.55" y1="577.39" x2="4.01" y2="569.85"/><line class="cls-7" x1="1.52" y1="567.36" x2="0.84" y2="566.68"/><line class="cls-7" x1="19.69" y1="558.84" x2="17.35" y2="556.5"/><line class="cls-7" x1="14.87" y1="553.94" x2="7.33" y2="546.47"/><line class="cls-7" x1="4.84" y1="543.91" x2="0.84" y2="539.92"/><line class="cls-7" x1="9.89" y1="776.36" x2="8.99" y2="775.54"/><line class="cls-7" x1="6.5" y1="772.97" x2="0.84" y2="767.32"/><line class="cls-7" x1="19.69" y1="759.48" x2="12.38" y2="752.09"/><line class="cls-7" x1="9.89" y1="749.6" x2="2.35" y2="742.06"/><line class="cls-7" x1="19.69" y1="732.71" x2="15.7" y2="728.71"/><line class="cls-7" x1="13.21" y1="726.15" x2="5.67" y2="718.68"/><line class="cls-7" x1="3.18" y1="716.12" x2="0.84" y2="713.78"/><line class="cls-7" x1="19.69" y1="705.94" x2="19.09" y2="705.26"/><line class="cls-7" x1="16.53" y1="702.78" x2="8.99" y2="695.24"/><line class="cls-7" x1="6.5" y1="692.75" x2="0.84" y2="687.02"/><line class="cls-7" x1="19.69" y1="679.18" x2="12.38" y2="671.86"/><line class="cls-7" x1="9.89" y1="669.3" x2="2.35" y2="661.83"/><line class="cls-7" x1="19.69" y1="652.49" x2="15.7" y2="648.41"/><line class="cls-7" x1="13.21" y1="645.93" x2="5.67" y2="638.39"/><line class="cls-7" x1="3.18" y1="635.9" x2="0.84" y2="633.56"/><line class="cls-7" x1="19.69" y1="625.72" x2="19.09" y2="625.04"/><line class="cls-7" x1="16.53" y1="622.55" x2="8.99" y2="615.01"/><line class="cls-7" x1="6.5" y1="612.52" x2="0.84" y2="606.79"/><line class="cls-7" x1="19.69" y1="598.95" x2="12.38" y2="591.56"/><line class="cls-7" x1="9.89" y1="589.08" x2="2.35" y2="581.54"/><line class="cls-7" x1="19.69" y1="572.19" x2="15.7" y2="568.19"/><line class="cls-7" x1="13.21" y1="565.7" x2="5.67" y2="558.16"/><line class="cls-7" x1="3.18" y1="555.67" x2="0.84" y2="553.26"/><line class="cls-7" x1="19.69" y1="545.42" x2="19.09" y2="544.82"/><line class="cls-7" x1="16.53" y1="542.25" x2="14.19" y2="539.92"/><line class="cls-7" x1="13.28" y1="445.37" x2="10.72" y2="442.8"/><line class="cls-7" x1="8.16" y1="440.31" x2="0.84" y2="432.93"/><line class="cls-7" x1="19.69" y1="425.08" x2="14.04" y2="419.35"/><line class="cls-7" x1="11.55" y1="416.87" x2="4.01" y2="409.33"/><line class="cls-7" x1="1.52" y1="406.84" x2="0.84" y2="406.16"/><line class="cls-7" x1="19.69" y1="398.32" x2="17.35" y2="395.98"/><line class="cls-7" x1="14.87" y1="393.49" x2="7.33" y2="385.95"/><line class="cls-7" x1="4.84" y1="383.46" x2="0.84" y2="379.39"/><line class="cls-7" x1="18.18" y1="370.04" x2="10.72" y2="362.58"/><line class="cls-7" x1="8.16" y1="360.01" x2="0.84" y2="352.63"/><line class="cls-7" x1="19.69" y1="344.86" x2="14.04" y2="339.13"/><line class="cls-7" x1="11.55" y1="336.64" x2="4.01" y2="329.1"/><line class="cls-7" x1="1.52" y1="326.61" x2="0.84" y2="325.93"/><line class="cls-7" x1="19.69" y1="318.09" x2="17.35" y2="315.76"/><line class="cls-7" x1="14.87" y1="313.19" x2="7.33" y2="305.73"/><line class="cls-7" x1="4.84" y1="303.16" x2="0.84" y2="299.17"/><line class="cls-7" x1="18.18" y1="289.82" x2="10.72" y2="282.28"/><line class="cls-7" x1="8.16" y1="279.79" x2="0.84" y2="272.4"/><line class="cls-7" x1="19.69" y1="264.56" x2="14.04" y2="258.91"/><line class="cls-7" x1="11.55" y1="256.34" x2="4.01" y2="248.88"/><line class="cls-7" x1="1.52" y1="246.31" x2="0.84" y2="245.64"/><line class="cls-7" x1="19.69" y1="237.79" x2="17.35" y2="235.46"/><line class="cls-7" x1="14.87" y1="232.97" x2="9.74" y2="227.84"/><line class="cls-7" x1="19.69" y1="438.43" x2="12.38" y2="431.12"/><line class="cls-7" x1="9.89" y1="428.55" x2="2.35" y2="421.09"/><line class="cls-7" x1="19.69" y1="411.66" x2="15.7" y2="407.67"/><line class="cls-7" x1="13.21" y1="405.18" x2="5.67" y2="397.64"/><line class="cls-7" x1="3.18" y1="395.15" x2="0.84" y2="392.81"/><line class="cls-7" x1="19.69" y1="384.97" x2="19.09" y2="384.29"/><line class="cls-7" x1="16.53" y1="381.8" x2="8.99" y2="374.27"/><line class="cls-7" x1="6.5" y1="371.78" x2="0.84" y2="366.05"/><line class="cls-7" x1="19.69" y1="358.21" x2="12.38" y2="350.82"/><line class="cls-7" x1="9.89" y1="348.33" x2="2.35" y2="340.79"/><line class="cls-7" x1="19.69" y1="331.44" x2="15.7" y2="327.44"/><line class="cls-7" x1="13.21" y1="324.95" x2="5.67" y2="317.41"/><line class="cls-7" x1="3.18" y1="314.93" x2="0.84" y2="312.51"/><line class="cls-7" x1="19.69" y1="304.67" x2="19.09" y2="303.99"/><line class="cls-7" x1="16.53" y1="301.51" x2="8.99" y2="293.97"/><line class="cls-7" x1="6.5" y1="291.48" x2="0.84" y2="285.75"/><line class="cls-7" x1="19.69" y1="277.98" x2="12.38" y2="270.59"/><line class="cls-7" x1="9.89" y1="268.1" x2="2.35" y2="260.56"/><line class="cls-7" x1="19.69" y1="251.22" x2="15.7" y2="247.22"/><line class="cls-7" x1="13.21" y1="244.66" x2="5.67" y2="237.12"/><line class="cls-7" x1="3.18" y1="234.63" x2="0.84" y2="232.29"/><line class="cls-7" x1="19.69" y1="776.36" x2="19.69" y2="539.92"/><line class="cls-7" x1="19.69" y1="445.37" x2="19.69" y2="227.84"/><line class="cls-7" x1="0.84" y1="227.84" x2="0.84" y2="445.37"/><line class="cls-7" x1="0.84" y1="539.92" x2="0.84" y2="776.36"/><line class="cls-7" x1="355.97" y1="734.52" x2="350.77" y2="729.32"/><line class="cls-7" x1="369.31" y1="721.17" x2="361.77" y2="713.63"/><line class="cls-7" x1="359.29" y1="711.15" x2="351.75" y2="703.61"/><line class="cls-7" x1="369.62" y1="694.78" x2="365.17" y2="690.26"/><line class="cls-7" x1="362.6" y1="687.7" x2="355.06" y2="680.23"/><line class="cls-7" x1="352.58" y1="677.67" x2="350.77" y2="675.86"/><line class="cls-7" x1="369.62" y1="668.02" x2="368.48" y2="666.81"/><line class="cls-7" x1="366" y1="664.32" x2="358.46" y2="656.78"/><line class="cls-7" x1="355.97" y1="654.29" x2="350.77" y2="649.09"/><line class="cls-7" x1="369.31" y1="640.95" x2="361.77" y2="633.41"/><line class="cls-7" x1="359.29" y1="630.85" x2="351.75" y2="623.38"/><line class="cls-7" x1="369.62" y1="614.48" x2="365.17" y2="609.96"/><line class="cls-7" x1="362.6" y1="607.47" x2="355.06" y2="599.93"/><line class="cls-7" x1="352.58" y1="597.44" x2="350.77" y2="595.56"/><line class="cls-7" x1="369.62" y1="587.72" x2="368.48" y2="586.59"/><line class="cls-7" x1="366" y1="584.1" x2="358.46" y2="576.56"/><line class="cls-7" x1="355.97" y1="574.07" x2="350.77" y2="568.87"/><line class="cls-7" x1="369.31" y1="560.65" x2="361.77" y2="553.11"/><line class="cls-7" x1="359.29" y1="550.62" x2="351.75" y2="543.08"/><line class="cls-7" x1="367.66" y1="732.86" x2="360.12" y2="725.32"/><line class="cls-7" x1="357.63" y1="722.83" x2="350.77" y2="715.97"/><line class="cls-7" x1="369.62" y1="708.13" x2="363.43" y2="701.95"/><line class="cls-7" x1="360.95" y1="699.46" x2="353.41" y2="691.92"/><line class="cls-7" x1="350.92" y1="689.43" x2="350.77" y2="689.2"/><line class="cls-7" x1="369.62" y1="681.36" x2="366.83" y2="678.5"/><line class="cls-7" x1="364.26" y1="676.01" x2="356.8" y2="668.47"/><line class="cls-7" x1="354.23" y1="665.98" x2="350.77" y2="662.44"/><line class="cls-7" x1="367.66" y1="652.64" x2="360.12" y2="645.1"/><line class="cls-7" x1="357.63" y1="642.61" x2="350.77" y2="635.75"/><line class="cls-7" x1="369.62" y1="627.91" x2="363.43" y2="621.72"/><line class="cls-7" x1="360.95" y1="619.16" x2="353.41" y2="611.62"/><line class="cls-7" x1="350.92" y1="609.13" x2="350.77" y2="608.98"/><line class="cls-7" x1="369.62" y1="601.14" x2="366.83" y2="598.27"/><line class="cls-7" x1="364.26" y1="595.79" x2="356.8" y2="588.25"/><line class="cls-7" x1="354.23" y1="585.76" x2="350.77" y2="582.21"/><line class="cls-7" x1="367.66" y1="572.34" x2="360.12" y2="564.87"/><line class="cls-7" x1="357.63" y1="562.31" x2="350.77" y2="555.45"/><line class="cls-7" x1="369.62" y1="547.61" x2="363.43" y2="541.42"/><line class="cls-7" x1="368.86" y1="426.44" x2="368.48" y2="426.06"/><line class="cls-7" x1="366" y1="423.58" x2="358.46" y2="416.04"/><line class="cls-7" x1="355.97" y1="413.55" x2="350.77" y2="408.35"/><line class="cls-7" x1="369.31" y1="400.13" x2="361.77" y2="392.66"/><line class="cls-7" x1="359.29" y1="390.1" x2="351.75" y2="382.63"/><line class="cls-7" x1="369.62" y1="373.74" x2="365.17" y2="369.21"/><line class="cls-7" x1="362.6" y1="366.73" x2="355.06" y2="359.19"/><line class="cls-7" x1="352.58" y1="356.7" x2="350.77" y2="354.81"/><line class="cls-7" x1="369.62" y1="346.97" x2="368.48" y2="345.84"/><line class="cls-7" x1="366" y1="343.35" x2="358.46" y2="335.81"/><line class="cls-7" x1="355.97" y1="333.25" x2="350.77" y2="328.12"/><line class="cls-7" x1="369.31" y1="319.9" x2="361.77" y2="312.36"/><line class="cls-7" x1="359.29" y1="309.87" x2="351.75" y2="302.34"/><line class="cls-7" x1="369.62" y1="293.51" x2="365.17" y2="288.99"/><line class="cls-7" x1="362.6" y1="286.5" x2="355.06" y2="278.96"/><line class="cls-7" x1="352.58" y1="276.47" x2="350.77" y2="274.59"/><line class="cls-7" x1="369.62" y1="266.75" x2="368.48" y2="265.54"/><line class="cls-7" x1="366" y1="263.05" x2="358.46" y2="255.51"/><line class="cls-7" x1="355.97" y1="253.02" x2="350.77" y2="247.82"/><line class="cls-7" x1="369.31" y1="239.68" x2="361.77" y2="232.14"/><line class="cls-7" x1="359.29" y1="229.65" x2="357.48" y2="227.84"/><line class="cls-7" x1="354.23" y1="425.23" x2="350.77" y2="421.69"/><line class="cls-7" x1="367.66" y1="411.89" x2="360.12" y2="404.35"/><line class="cls-7" x1="357.63" y1="401.86" x2="350.77" y2="394.92"/><line class="cls-7" x1="369.62" y1="387.16" x2="363.43" y2="380.9"/><line class="cls-7" x1="360.95" y1="378.41" x2="353.41" y2="370.87"/><line class="cls-7" x1="350.92" y1="368.38" x2="350.77" y2="368.23"/><line class="cls-7" x1="369.62" y1="360.39" x2="366.83" y2="357.53"/><line class="cls-7" x1="364.26" y1="355.04" x2="356.8" y2="347.5"/><line class="cls-7" x1="354.23" y1="345.01" x2="350.77" y2="341.47"/><line class="cls-7" x1="367.66" y1="331.59" x2="360.12" y2="324.13"/><line class="cls-7" x1="357.63" y1="321.56" x2="350.77" y2="314.7"/><line class="cls-7" x1="369.62" y1="306.86" x2="363.43" y2="300.68"/><line class="cls-7" x1="360.95" y1="298.19" x2="353.41" y2="290.65"/><line class="cls-7" x1="350.92" y1="288.16" x2="350.77" y2="287.93"/><line class="cls-7" x1="369.62" y1="280.09" x2="366.83" y2="277.3"/><line class="cls-7" x1="364.26" y1="274.74" x2="356.8" y2="267.27"/><line class="cls-7" x1="354.23" y1="264.71" x2="350.77" y2="261.24"/><line class="cls-7" x1="367.66" y1="251.37" x2="360.12" y2="243.83"/><line class="cls-7" x1="357.63" y1="241.34" x2="350.77" y2="234.48"/><line class="cls-7" x1="369.62" y1="738.67" x2="369.62" y2="539.92"/><line class="cls-7" x1="369.62" y1="426.44" x2="369.62" y2="227.84"/><line class="cls-7" x1="350.77" y1="227.84" x2="350.77" y2="426.44"/><line class="cls-7" x1="350.77" y1="539.92" x2="350.77" y2="719.59"/><line class="cls-7" x1="0.39" y1="555.07" x2="0.84" y2="554.69"/><line class="cls-7" x1="295.88" y1="500.33" x2="296.03" y2="500.18"/><line class="cls-7" x1="295.88" y1="507.04" x2="302.74" y2="500.18"/><line class="cls-7" x1="295.88" y1="513.75" x2="303.42" y2="506.14"/><line class="cls-7" x1="295.88" y1="520.39" x2="303.42" y2="512.85"/><line class="cls-7" x1="295.88" y1="527.1" x2="303.42" y2="519.56"/><line class="cls-7" x1="295.88" y1="533.81" x2="303.42" y2="526.19"/><line class="cls-7" x1="295.88" y1="540.44" x2="303.42" y2="532.9"/><line class="cls-7" x1="295.88" y1="547.15" x2="303.42" y2="539.61"/><line class="cls-7" x1="302.21" y1="547.53" x2="303.42" y2="546.25"/><line class="cls-7" x1="303.42" y1="547.53" x2="303.42" y2="500.18"/><line class="cls-7" x1="295.88" y1="500.18" x2="295.88" y2="547.53"/><line class="cls-7" x1="19.69" y1="549.11" x2="21.35" y2="547.53"/><line class="cls-7" x1="20.45" y1="555.07" x2="28.06" y2="547.53"/><line class="cls-7" x1="27.16" y1="555.07" x2="34.7" y2="547.53"/><line class="cls-7" x1="33.87" y1="555.07" x2="38.62" y2="550.24"/><line class="cls-7" x1="123.74" y1="552.13" x2="128.34" y2="547.53"/><line class="cls-7" x1="127.44" y1="555.07" x2="135.05" y2="547.53"/><line class="cls-7" x1="134.15" y1="555.07" x2="141.76" y2="547.53"/><line class="cls-7" x1="140.86" y1="555.07" x2="148.4" y2="547.53"/><line class="cls-7" x1="147.57" y1="555.07" x2="155.11" y2="547.53"/><line class="cls-7" x1="154.2" y1="555.07" x2="161.82" y2="547.53"/><line class="cls-7" x1="160.91" y1="555.07" x2="168.45" y2="547.53"/><line class="cls-7" x1="167.62" y1="555.07" x2="175.16" y2="547.53"/><line class="cls-7" x1="174.26" y1="555.07" x2="177.65" y2="551.68"/><line class="cls-7" x1="38.62" y1="547.53" x2="38.62" y2="555.07"/><line class="cls-7" x1="123.74" y1="547.53" x2="123.74" y2="555.07"/><line class="cls-7" x1="19.69" y1="555.07" x2="38.62" y2="555.07"/><line class="cls-7" x1="123.74" y1="555.07" x2="177.65" y2="555.07"/><line class="cls-7" x1="177.65" y1="547.53" x2="123.74" y2="547.53"/><polyline class="cls-7" points="38.62 547.53 19.69 547.53 19.69 555.07"/><line class="cls-6" x1="123.74" y1="547.53" x2="36.24" y2="547.53"/><line class="cls-6" x1="123.74" y1="555.07" x2="36.24" y2="555.07"/><line class="cls-7" x1="177.65" y1="504.86" x2="182.33" y2="500.18"/><line class="cls-7" x1="177.65" y1="511.57" x2="185.27" y2="504.03"/><line class="cls-7" x1="177.65" y1="518.28" x2="185.27" y2="510.66"/><line class="cls-7" x1="177.65" y1="524.91" x2="185.27" y2="517.37"/><line class="cls-7" x1="177.65" y1="531.62" x2="185.27" y2="524.08"/><line class="cls-7" x1="177.65" y1="538.33" x2="185.27" y2="530.72"/><line class="cls-7" x1="177.65" y1="544.97" x2="185.27" y2="537.43"/><line class="cls-7" x1="177.65" y1="551.68" x2="185.27" y2="544.14"/><line class="cls-7" x1="177.65" y1="558.39" x2="185.27" y2="550.77"/><line class="cls-7" x1="177.65" y1="565.02" x2="185.27" y2="557.48"/><line class="cls-7" x1="177.65" y1="571.73" x2="185.27" y2="564.19"/><line class="cls-7" x1="177.65" y1="578.44" x2="185.27" y2="570.9"/><line class="cls-7" x1="177.65" y1="585.15" x2="185.27" y2="577.54"/><line class="cls-7" x1="177.65" y1="591.79" x2="185.27" y2="584.25"/><line class="cls-7" x1="177.65" y1="598.5" x2="185.27" y2="590.96"/><line class="cls-7" x1="177.65" y1="605.21" x2="185.27" y2="597.6"/><line class="cls-7" x1="177.65" y1="611.85" x2="185.27" y2="604.31"/><line class="cls-7" x1="177.65" y1="618.56" x2="185.27" y2="611.02"/><line class="cls-7" x1="177.65" y1="625.27" x2="185.27" y2="617.65"/><line class="cls-7" x1="177.65" y1="631.9" x2="185.27" y2="624.36"/><line class="cls-7" x1="178.93" y1="637.33" x2="185.27" y2="631.07"/><line class="cls-7" x1="177.65" y1="705.49" x2="179.61" y2="703.53"/><line class="cls-7" x1="177.65" y1="712.2" x2="185.27" y2="704.59"/><line class="cls-7" x1="177.65" y1="718.84" x2="185.27" y2="711.3"/><line class="cls-7" x1="177.65" y1="725.55" x2="185.27" y2="718.01"/><line class="cls-7" x1="177.65" y1="732.26" x2="185.27" y2="724.72"/><line class="cls-7" x1="177.65" y1="738.97" x2="185.27" y2="731.35"/><line class="cls-7" x1="177.65" y1="745.6" x2="185.27" y2="738.06"/><line class="cls-7" x1="177.65" y1="752.31" x2="185.27" y2="744.77"/><line class="cls-7" x1="177.65" y1="759.02" x2="185.27" y2="751.41"/><line class="cls-7" x1="177.65" y1="765.66" x2="185.27" y2="758.12"/><line class="cls-7" x1="177.65" y1="772.37" x2="185.27" y2="764.83"/><line class="cls-7" x1="180.37" y1="776.36" x2="185.27" y2="771.46"/><line class="cls-7" x1="177.65" y1="498.22" x2="180.44" y2="495.43"/><line class="cls-7" x1="182.33" y1="500.18" x2="183.76" y2="498.75"/><line class="cls-7" x1="185.27" y1="703.53" x2="177.65" y2="703.53"/><line class="cls-7" x1="185.27" y1="637.33" x2="177.65" y2="637.33"/><line class="cls-7" x1="177.65" y1="492.64" x2="177.65" y2="547.53"/><line class="cls-7" x1="177.65" y1="555.07" x2="177.65" y2="637.33"/><line class="cls-7" x1="177.65" y1="703.53" x2="177.65" y2="776.36"/><line class="cls-7" x1="185.27" y1="776.36" x2="185.27" y2="703.53"/><line class="cls-7" x1="185.27" y1="637.33" x2="185.27" y2="555.07"/><line class="cls-7" x1="185.27" y1="547.53" x2="185.27" y2="500.18"/><line class="cls-6" x1="177.65" y1="635.9" x2="177.65" y2="703.53"/><line class="cls-6" x1="185.27" y1="635.9" x2="185.27" y2="703.53"/><line class="cls-7" x1="180.44" y1="495.43" x2="183.23" y2="492.64"/><line class="cls-7" x1="183.76" y1="498.75" x2="185.27" y2="497.32"/><line class="cls-7" x1="177.65" y1="492.64" x2="185.27" y2="492.64"/><line class="cls-7" x1="185.27" y1="550.77" x2="188.51" y2="547.53"/><line class="cls-7" x1="187.68" y1="555.07" x2="195.22" y2="547.53"/><line class="cls-7" x1="194.31" y1="555.07" x2="201.93" y2="547.53"/><line class="cls-7" x1="201.03" y1="555.07" x2="208.56" y2="547.53"/><line class="cls-7" x1="207.74" y1="555.07" x2="215.28" y2="547.53"/><line class="cls-7" x1="214.45" y1="555.07" x2="221.99" y2="547.53"/><line class="cls-7" x1="221.08" y1="555.07" x2="228.7" y2="547.53"/><line class="cls-7" x1="227.79" y1="555.07" x2="235.33" y2="547.53"/><line class="cls-7" x1="234.5" y1="555.07" x2="242.04" y2="547.53"/><line class="cls-7" x1="241.14" y1="555.07" x2="248.75" y2="547.53"/><line class="cls-7" x1="247.85" y1="555.07" x2="255.39" y2="547.53"/><line class="cls-7" x1="254.56" y1="555.07" x2="262.1" y2="547.53"/><line class="cls-7" x1="261.19" y1="555.07" x2="268.81" y2="547.53"/><line class="cls-7" x1="267.9" y1="555.07" x2="275.44" y2="547.53"/><line class="cls-7" x1="274.61" y1="555.07" x2="282.15" y2="547.53"/><line class="cls-7" x1="281.25" y1="555.07" x2="288.86" y2="547.53"/><line class="cls-7" x1="287.96" y1="555.07" x2="295.57" y2="547.53"/><line class="cls-7" x1="294.67" y1="555.07" x2="302.21" y2="547.53"/><line class="cls-7" x1="301.38" y1="555.07" x2="303.42" y2="552.96"/><line class="cls-7" x1="341.27" y1="548.59" x2="342.32" y2="547.53"/><line class="cls-7" x1="341.49" y1="555.07" x2="349.03" y2="547.53"/><line class="cls-7" x1="348.13" y1="555.07" x2="350.77" y2="552.51"/><polyline class="cls-7" points="341.27 555.07 341.27 551.3 341.27 547.53"/><polyline class="cls-7" points="303.42 555.07 303.42 551.3 303.42 547.53"/><line class="cls-7" x1="350.77" y1="547.53" x2="341.27" y2="547.53"/><line class="cls-7" x1="295.88" y1="547.53" x2="185.27" y2="547.53"/><line class="cls-7" x1="185.27" y1="555.07" x2="303.42" y2="555.07"/><polyline class="cls-7" points="341.27 555.07 350.77 555.07 350.77 547.53"/><line class="cls-7" x1="303.42" y1="555.07" x2="341.27" y2="555.07"/><line class="cls-7" x1="303.42" y1="547.53" x2="341.27" y2="547.53"/><path class="cls-7" d="M303.56,583.38a37.75,37.75,0,0,0,2.28,12.93" transform="translate(-0.14 -28.35)"/><line class="cls-7" x1="341.27" y1="555.07" x2="305.75" y2="568.04"/><polyline class="cls-7" points="303.42 547.53 303.42 551.3 303.42 555.07 303.42 551.3"/><polyline class="cls-7" points="341.27 547.53 341.27 551.3 341.27 555.07 341.27 551.3"/><line class="cls-7" x1="306.43" y1="738.51" x2="301.61" y2="733.69"/><line class="cls-7" x1="299.12" y1="731.2" x2="291.58" y2="723.66"/><line class="cls-7" x1="289.09" y1="721.17" x2="287.51" y2="719.59"/><line class="cls-7" x1="332.52" y1="737.91" x2="324.98" y2="730.37"/><line class="cls-7" x1="322.49" y1="727.88" x2="314.95" y2="720.34"/><line class="cls-7" x1="350.77" y1="729.32" x2="348.43" y2="726.98"/><line class="cls-7" x1="345.94" y1="724.49" x2="341.04" y2="719.59"/><line class="cls-7" x1="293.09" y1="738.51" x2="289.92" y2="735.35"/><line class="cls-7" x1="287.36" y1="732.86" x2="279.89" y2="725.32"/><line class="cls-7" x1="319.78" y1="738.51" x2="313.29" y2="732.03"/><line class="cls-7" x1="310.81" y1="729.54" x2="303.27" y2="722"/><line class="cls-7" x1="344.21" y1="736.18" x2="336.74" y2="728.71"/><line class="cls-7" x1="334.18" y1="726.15" x2="327.62" y2="719.59"/><line class="cls-7" x1="277.33" y1="722.83" x2="274.16" y2="719.59"/><line class="cls-7" x1="350.77" y1="719.59" x2="260.89" y2="719.59"/><line class="cls-7" x1="279.82" y1="738.51" x2="369.62" y2="738.51"/><line class="cls-7" x1="279.67" y1="738.51" x2="278.16" y2="737.08"/><line class="cls-7" x1="275.67" y1="734.52" x2="268.13" y2="726.98"/><line class="cls-7" x1="265.64" y1="724.49" x2="260.89" y2="719.74"/><line class="cls-7" x1="263.98" y1="736.18" x2="260.89" y2="733.09"/><line class="cls-7" x1="260.89" y1="719.59" x2="260.89" y2="738.51"/><line class="cls-7" x1="263.98" y1="776.36" x2="261.49" y2="773.8"/><line class="cls-7" x1="279.82" y1="765.43" x2="274.84" y2="760.46"/><line class="cls-7" x1="272.35" y1="757.97" x2="264.81" y2="750.43"/><line class="cls-7" x1="262.32" y1="747.94" x2="260.89" y2="746.51"/><line class="cls-7" x1="279.82" y1="738.67" x2="279.67" y2="738.51"/><line class="cls-7" x1="277.4" y1="776.36" x2="273.18" y2="772.14"/><line class="cls-7" x1="270.69" y1="769.65" x2="263.15" y2="762.11"/><line class="cls-7" x1="279.82" y1="752.01" x2="276.5" y2="748.77"/><line class="cls-7" x1="274.01" y1="746.21" x2="266.47" y2="738.74"/><line class="cls-7" x1="260.89" y1="738.51" x2="260.89" y2="776.36"/><line class="cls-7" x1="279.82" y1="776.36" x2="279.82" y2="738.51"/><line class="cls-7" x1="185.27" y1="497.32" x2="189.87" y2="492.64"/><line class="cls-7" x1="189.04" y1="500.18" x2="196.58" y2="492.64"/><line class="cls-7" x1="195.67" y1="500.18" x2="203.29" y2="492.64"/><line class="cls-7" x1="202.38" y1="500.18" x2="209.92" y2="492.64"/><line class="cls-7" x1="209.09" y1="500.18" x2="216.63" y2="492.64"/><line class="cls-7" x1="215.73" y1="500.18" x2="223.34" y2="492.64"/><line class="cls-7" x1="222.44" y1="500.18" x2="230.05" y2="492.64"/><line class="cls-7" x1="229.15" y1="500.18" x2="236.69" y2="492.64"/><line class="cls-7" x1="235.86" y1="500.18" x2="243.4" y2="492.64"/><line class="cls-7" x1="242.49" y1="500.18" x2="250.11" y2="492.64"/><line class="cls-7" x1="249.2" y1="500.18" x2="256.74" y2="492.64"/><line class="cls-7" x1="255.92" y1="500.18" x2="263.45" y2="492.64"/><line class="cls-7" x1="262.55" y1="500.18" x2="270.17" y2="492.64"/><line class="cls-7" x1="269.26" y1="500.18" x2="276.8" y2="492.64"/><line class="cls-7" x1="275.97" y1="500.18" x2="283.51" y2="492.64"/><line class="cls-7" x1="282.61" y1="500.18" x2="290.22" y2="492.64"/><line class="cls-7" x1="289.32" y1="500.18" x2="296.86" y2="492.64"/><line class="cls-7" x1="296.03" y1="500.18" x2="303.57" y2="492.64"/><line class="cls-7" x1="302.74" y1="500.18" x2="310.28" y2="492.64"/><line class="cls-7" x1="309.37" y1="500.18" x2="316.99" y2="492.64"/><line class="cls-7" x1="316.08" y1="500.18" x2="323.62" y2="492.64"/><line class="cls-7" x1="322.79" y1="500.18" x2="330.33" y2="492.64"/><line class="cls-7" x1="329.43" y1="500.18" x2="337.04" y2="492.64"/><line class="cls-7" x1="336.14" y1="500.18" x2="343.68" y2="492.64"/><line class="cls-7" x1="342.85" y1="500.18" x2="350.39" y2="492.64"/><line class="cls-7" x1="349.48" y1="500.18" x2="350.77" y2="498.97"/><line class="cls-7" x1="185.27" y1="500.18" x2="295.88" y2="500.18"/><line class="cls-7" x1="303.42" y1="500.18" x2="350.77" y2="500.18"/><line class="cls-7" x1="350.77" y1="492.64" x2="185.27" y2="492.64"/><line class="cls-7" x1="14.87" y1="794.76" x2="7.33" y2="787.22"/><line class="cls-7" x1="4.84" y1="784.66" x2="0.84" y2="780.66"/><line class="cls-7" x1="2.05" y1="795.29" x2="0.84" y2="794.01"/><line class="cls-7" x1="19.69" y1="786.17" x2="19.09" y2="785.56"/><line class="cls-7" x1="16.53" y1="783" x2="9.89" y2="776.36"/><line class="cls-7" x1="122.46" y1="795.29" x2="121.03" y2="793.86"/><line class="cls-7" x1="149.15" y1="795.29" x2="144.48" y2="790.54"/><line class="cls-7" x1="141.91" y1="788.05" x2="134.45" y2="780.51"/><line class="cls-7" x1="131.88" y1="778.02" x2="130.3" y2="776.36"/><line class="cls-7" x1="165.36" y1="784.66" x2="157.82" y2="777.19"/><line class="cls-7" x1="135.81" y1="795.29" x2="132.71" y2="792.2"/><line class="cls-7" x1="130.23" y1="789.71" x2="122.69" y2="782.17"/><line class="cls-7" x1="120.2" y1="779.68" x2="118.99" y2="778.48"/><line class="cls-7" x1="162.57" y1="795.29" x2="156.16" y2="788.88"/><line class="cls-7" x1="153.68" y1="786.39" x2="146.14" y2="778.85"/><polyline class="cls-7" points="0.84 795.29 0.84 787.75 0.84 776.37"/><polyline class="cls-7" points="19.69 795.29 19.69 787.75 19.69 776.37"/><polyline class="cls-7" points="118.99 795.29 118.99 787.75 118.99 776.37"/><line class="cls-7" x1="0.84" y1="795.29" x2="19.69" y2="795.29"/><line class="cls-7" x1="118.99" y1="795.29" x2="166.34" y2="795.29"/><line class="cls-7" x1="166.34" y1="776.36" x2="118.99" y2="776.36"/><polyline class="cls-7" points="0.84 776.37 0.84 787.75 0.84 795.29 0.84 787.75"/><path class="cls-7" d="M115.36,816.06a87,87,0,0,0-87-87" transform="translate(-0.14 -28.35)"/><line class="cls-7" x1="24.44" y1="787.75" x2="19.69" y2="787.75"/><polyline class="cls-7" points="24.44 795.29 19.69 795.29 19.69 787.75"/><polyline class="cls-7" points="118.99 795.29 115.22 795.29 115.22 787.75 118.99 787.75 118.99 795.29"/><polyline class="cls-7" points="24.44 787.75 28.21 787.75 28.21 795.29 24.44 795.29 24.44 787.75"/><line class="cls-7" x1="28.21" y1="787.75" x2="28.21" y2="700.74"/><polyline class="cls-7" points="118.99 776.37 118.99 787.75 118.99 795.29 118.99 787.75"/><polyline class="cls-7" points="19.69 776.37 19.69 787.75 19.69 795.29 19.69 787.75"/><line class="cls-7" x1="0.84" y1="130.28" x2="2.12" y2="127.94"/><line class="cls-7" x1="4.54" y1="133.22" x2="8.38" y2="126.66"/><line class="cls-7" x1="10.04" y1="133.22" x2="14.56" y2="125.38"/><line class="cls-7" x1="15.47" y1="133.22" x2="19.69" y2="125.9"/><line class="cls-7" x1="2.5" y1="133.22" x2="0.84" y2="130.28"/><line class="cls-7" x1="8.01" y1="133.22" x2="4.61" y2="127.41"/><line class="cls-7" x1="13.43" y1="133.22" x2="9.51" y2="126.43"/><line class="cls-7" x1="18.94" y1="133.22" x2="14.41" y2="125.45"/><line class="cls-7" x1="19.69" y1="125.22" x2="19.32" y2="124.39"/><line class="cls-7" x1="2.12" y1="127.94" x2="4.54" y2="123.79"/><line class="cls-7" x1="8.38" y1="126.66" x2="10.04" y2="123.79"/><line class="cls-7" x1="14.56" y1="125.38" x2="15.47" y2="123.79"/><line class="cls-7" x1="4.61" y1="127.41" x2="2.5" y2="123.79"/><line class="cls-7" x1="9.51" y1="126.43" x2="8.01" y2="123.79"/><line class="cls-7" x1="14.41" y1="125.45" x2="13.43" y2="123.79"/><line class="cls-7" x1="19.32" y1="124.39" x2="18.94" y2="123.79"/><polyline class="cls-7" points="0.84 117.61 0.84 133.22 19.69 133.22 19.69 124.32"/><line class="cls-7" x1="350.77" y1="129.45" x2="352.8" y2="125.83"/><line class="cls-7" x1="354.01" y1="133.22" x2="359.06" y2="124.55"/><line class="cls-7" x1="359.44" y1="133.22" x2="365.24" y2="123.34"/><line class="cls-7" x1="364.94" y1="133.22" x2="369.62" y2="125.07"/><line class="cls-7" x1="351.97" y1="133.22" x2="350.77" y2="131.11"/><line class="cls-7" x1="357.48" y1="133.22" x2="353.18" y2="125.75"/><line class="cls-7" x1="362.91" y1="133.22" x2="358" y2="124.77"/><line class="cls-7" x1="368.41" y1="133.22" x2="362.91" y2="123.79"/><line class="cls-7" x1="369.62" y1="125.98" x2="367.81" y2="122.81"/><line class="cls-7" x1="350.77" y1="120.02" x2="351.29" y2="119.04"/><line class="cls-7" x1="352.8" y1="125.83" x2="356.72" y2="119.04"/><line class="cls-7" x1="359.06" y1="124.55" x2="362.23" y2="119.04"/><line class="cls-7" x1="365.24" y1="123.34" x2="367.66" y2="119.04"/><line class="cls-7" x1="353.18" y1="125.75" x2="350.77" y2="121.61"/><line class="cls-7" x1="358" y1="124.77" x2="354.69" y2="119.04"/><line class="cls-7" x1="362.91" y1="123.79" x2="360.19" y2="119.04"/><line class="cls-7" x1="367.81" y1="122.81" x2="365.62" y2="119.04"/><polyline class="cls-7" points="350.77 126.28 350.77 133.22 369.62 133.22 369.62 111.75"/><polyline class="cls-7" points="271 114.37 281.48 63.4 281.93 63.47 271.45 114.44 271 114.37"/><polyline class="cls-7" points="280.34 61.74 195.14 44.17 195.22 43.72 280.5 61.29 280.34 61.74"/><polyline class="cls-7" points="193.49 45.3 183 96.27 182.55 96.12 193.03 45.23 193.49 45.3"/><polyline class="cls-7" points="269.11 116.4 269.56 114.06 271.9 114.52 271.45 116.86 269.11 116.4"/><polyline class="cls-7" points="280.12 63.1 280.57 60.83 282.91 61.29 282.38 63.62 280.12 63.1"/><polyline class="cls-7" points="194.84 45.6 192.5 45.08 193.03 42.81 195.37 43.27 194.84 45.6"/><polyline class="cls-7" points="184.36 96.5 183.91 98.83 181.57 98.38 182.03 96.05 184.36 96.5"/><line class="cls-7" x1="269.34" y1="115.2" x2="280.12" y2="63.1"/><line class="cls-7" x1="282.91" y1="61.29" x2="271.67" y2="115.72"/><line class="cls-7" x1="280.12" y1="63.1" x2="194.84" y2="45.6"/><line class="cls-7" x1="193.03" y1="42.81" x2="282.91" y2="61.29"/><line class="cls-7" x1="194.84" y1="45.6" x2="184.14" y2="97.7"/><line class="cls-7" x1="181.8" y1="97.18" x2="193.03" y2="42.81"/><polyline class="cls-7" points="271.67 115.72 271.45 116.86 269.11 116.4 269.34 115.2"/><polyline class="cls-7" points="184.14 97.7 183.91 98.83 181.57 98.38 181.8 97.18"/><polyline class="cls-7" points="193.03 42.81 282.91 61.29 271.67 115.72 269.34 115.2 280.12 63.1 194.84 45.6 184.14 97.7 181.8 97.18 193.03 42.81"/><polyline class="cls-7" points="194.24 60.38 274.84 76.97 268.73 106.68 188.13 90.09 194.24 60.38"/><polyline class="cls-7" points="193.64 63.4 274.24 79.98 268.73 106.68 188.13 90.09 193.64 63.4"/><line class="cls-7" x1="369.62" y1="738.67" x2="369.62" y2="705.41"/><line class="cls-7" x1="369.62" y1="649.62" x2="369.62" y2="700.74"/><line class="cls-7" x1="369.62" y1="683.25" x2="369.62" y2="667.11"/><line class="cls-7" x1="369.62" y1="644.95" x2="369.62" y2="608.98"/><line class="cls-7" x1="346.02" y1="435.87" x2="293.99" y2="435.87"/><line class="cls-7" x1="293.99" y1="435.87" x2="293.99" y2="487.89"/><line class="cls-7" x1="293.99" y1="487.89" x2="346.02" y2="487.89"/><line class="cls-7" x1="346.02" y1="487.89" x2="346.02" y2="435.87"/><line class="cls-7" x1="341.27" y1="440.62" x2="298.74" y2="440.62"/><line class="cls-7" x1="298.74" y1="440.62" x2="298.74" y2="478.47"/><line class="cls-7" x1="298.74" y1="478.47" x2="341.27" y2="478.47"/><line class="cls-7" x1="341.27" y1="478.47" x2="341.27" y2="440.62"/><line class="cls-7" x1="251.09" y1="555.07" x2="200.04" y2="555.07"/><line class="cls-7" x1="200.04" y1="555.07" x2="200.04" y2="576.63"/><line class="cls-7" x1="251.09" y1="555.07" x2="251.09" y2="576.63"/><line class="cls-7" x1="217.54" y1="555.07" x2="233.6" y2="555.07"/><line class="cls-7" x1="221.23" y1="572.41" x2="223.95" y2="572.41"/><line class="cls-7" x1="225.53" y1="568.11" x2="225.53" y2="570.83"/><line class="cls-7" x1="227.11" y1="572.41" x2="229.83" y2="572.41"/><line class="cls-7" x1="225.53" y1="574" x2="225.53" y2="576.71"/><path class="cls-7" d="M248,606.32a22.65,22.65,0,0,0-8.81-10.75" transform="translate(-0.14 -28.35)"/><path class="cls-7" d="M239.17,595.57a22.68,22.68,0,0,0-13.55-3.18" transform="translate(-0.14 -28.35)"/><path class="cls-7" d="M212.1,595.57a22.73,22.73,0,0,0-8.82,10.75" transform="translate(-0.14 -28.35)"/><path class="cls-7" d="M225.65,592.39a22.68,22.68,0,0,0-13.55,3.18" transform="translate(-0.14 -28.35)"/><path class="cls-7" d="M227.44,622.13A42,42,0,0,0,243,617.91" transform="translate(-0.14 -28.35)"/><path class="cls-7" d="M200.12,605a13,13,0,0,0,4.86,10.7" transform="translate(-0.14 -28.35)"/><path class="cls-7" d="M223.85,622.11a26.58,26.58,0,0,0,3.57,0" transform="translate(-0.14 -28.35)"/><path class="cls-7" d="M239.93,596.36a93.16,93.16,0,0,0-28.58,0" transform="translate(-0.14 -28.35)"/><path class="cls-7" d="M208.65,587.38a32.18,32.18,0,0,0-7.25,20.9" transform="translate(-0.14 -28.35)"/><path class="cls-7" d="M225.67,584.4A63.5,63.5,0,0,0,211.06,586" transform="translate(-0.14 -28.35)"/><path class="cls-7" d="M211,586a4.24,4.24,0,0,0-2.35,1.46" transform="translate(-0.14 -28.35)"/><path class="cls-7" d="M225.62,586.43a110.06,110.06,0,0,0-14.4,1" transform="translate(-0.14 -28.35)"/><path class="cls-7" d="M208.67,588.89a28.83,28.83,0,0,0-7.2,19.45" transform="translate(-0.14 -28.35)"/><path class="cls-7" d="M211.25,587.45a4.27,4.27,0,0,0-2.61,1.4" transform="translate(-0.14 -28.35)"/><path class="cls-7" d="M249.87,608.3a28.8,28.8,0,0,0-7.23-19.44" transform="translate(-0.14 -28.35)"/><path class="cls-7" d="M250,608.32a32.15,32.15,0,0,0-7.29-20.9" transform="translate(-0.14 -28.35)"/><path class="cls-7" d="M240.05,587.45a108.34,108.34,0,0,0-14.4-1" transform="translate(-0.14 -28.35)"/><path class="cls-7" d="M240.2,586a63.48,63.48,0,0,0-14.61-1.56" transform="translate(-0.14 -28.35)"/><path class="cls-7" d="M242.62,588.85a4.27,4.27,0,0,0-2.61-1.4" transform="translate(-0.14 -28.35)"/><path class="cls-7" d="M242.58,587.39a4.3,4.3,0,0,0-2.36-1.46" transform="translate(-0.14 -28.35)"/><path class="cls-7" d="M246.36,615.69a13,13,0,0,0,4.86-10.7" transform="translate(-0.14 -28.35)"/><path class="cls-7" d="M243,617.84a20.22,20.22,0,0,0,3.39-2.19" transform="translate(-0.14 -28.35)"/><path class="cls-7" d="M205,615.65a19.74,19.74,0,0,0,3.38,2.19" transform="translate(-0.14 -28.35)"/><path class="cls-7" d="M208.32,617.91a42,42,0,0,0,15.51,4.22" transform="translate(-0.14 -28.35)"/><path class="cls-7" d="M218.6,618.47a30.1,30.1,0,0,0,14.06,0" transform="translate(-0.14 -28.35)"/><path class="cls-7" d="M245.41,612.62a7.66,7.66,0,0,0,2.64-6.32" transform="translate(-0.14 -28.35)"/><path class="cls-7" d="M232.71,618.51a27.81,27.81,0,0,0,12.73-5.84" transform="translate(-0.14 -28.35)"/><path class="cls-7" d="M203.3,606.3a7.65,7.65,0,0,0,2.63,6.32" transform="translate(-0.14 -28.35)"/><path class="cls-7" d="M205.9,612.67a27.85,27.85,0,0,0,12.74,5.84" transform="translate(-0.14 -28.35)"/><path class="cls-7" d="M222.35,600.72a3.28,3.28,0,1,0,3.28-3.28,3.28,3.28,0,0,0-3.28,3.28" transform="translate(-0.14 -28.35)"/><path class="cls-7" d="M223.26,600.72a2.38,2.38,0,1,0,2.37-2.38,2.37,2.37,0,0,0-2.37,2.38" transform="translate(-0.14 -28.35)"/><line class="cls-7" x1="336.21" y1="615.09" x2="302.81" y2="615.09"/><line class="cls-7" x1="350.77" y1="616.52" x2="350.77" y2="580.63"/><line class="cls-7" x1="350.77" y1="616.52" x2="338.17" y2="616.52"/><line class="cls-7" x1="330.33" y1="598.58" x2="330.33" y2="585.23"/><line class="cls-7" x1="302.89" y1="615.09" x2="330.33" y2="611.92"/><line class="cls-7" x1="330.33" y1="598.58" x2="330.33" y2="611.92"/><line class="cls-7" x1="302.89" y1="581.99" x2="330.33" y2="585.23"/><line class="cls-7" x1="302.89" y1="614.26" x2="330.33" y2="611.02"/><line class="cls-7" x1="302.89" y1="582.89" x2="330.33" y2="586.06"/><line class="cls-7" x1="336.21" y1="581.99" x2="302.81" y2="581.99"/><line class="cls-7" x1="350.77" y1="580.63" x2="338.17" y2="580.63"/><line class="cls-7" x1="302.89" y1="615.09" x2="299.12" y2="614.64"/><line class="cls-7" x1="299.12" y1="614.64" x2="295.65" y2="613.2"/><line class="cls-7" x1="295.65" y1="613.2" x2="292.56" y2="610.94"/><line class="cls-7" x1="292.56" y1="610.94" x2="290.15" y2="608"/><line class="cls-7" x1="290.15" y1="608" x2="288.41" y2="604.46"/><line class="cls-7" x1="288.41" y1="604.46" x2="287.51" y2="600.54"/><line class="cls-7" x1="287.51" y1="600.54" x2="287.51" y2="596.54"/><line class="cls-7" x1="287.51" y1="596.54" x2="288.41" y2="592.69"/><line class="cls-7" x1="288.41" y1="592.69" x2="290.15" y2="589.15"/><line class="cls-7" x1="290.15" y1="589.15" x2="292.56" y2="586.13"/><line class="cls-7" x1="292.56" y1="586.13" x2="295.65" y2="583.87"/><line class="cls-7" x1="295.65" y1="583.87" x2="299.12" y2="582.52"/><line class="cls-7" x1="299.12" y1="582.52" x2="302.89" y2="581.99"/><line class="cls-7" x1="302.89" y1="614.26" x2="299.34" y2="613.81"/><line class="cls-7" x1="299.34" y1="613.81" x2="296.03" y2="612.45"/><line class="cls-7" x1="296.03" y1="612.45" x2="293.16" y2="610.34"/><line class="cls-7" x1="293.16" y1="610.34" x2="290.82" y2="607.47"/><line class="cls-7" x1="290.82" y1="607.47" x2="289.17" y2="604.15"/><line class="cls-7" x1="289.17" y1="604.15" x2="288.34" y2="600.46"/><line class="cls-7" x1="288.34" y1="600.46" x2="288.34" y2="596.69"/><line class="cls-7" x1="288.34" y1="596.69" x2="289.17" y2="593"/><line class="cls-7" x1="289.17" y1="593" x2="290.82" y2="589.68"/><line class="cls-7" x1="290.82" y1="589.68" x2="293.16" y2="586.81"/><line class="cls-7" x1="293.16" y1="586.81" x2="296.03" y2="584.7"/><line class="cls-7" x1="296.03" y1="584.7" x2="299.34" y2="583.34"/><line class="cls-7" x1="299.34" y1="583.34" x2="302.89" y2="582.89"/><path class="cls-7" d="M336.23,610.78a152.2,152.2,0,0,0,0,32.22" transform="translate(-0.14 -28.35)"/><path class="cls-7" d="M336.22,643a2.07,2.07,0,0,0,2.06,1.85" transform="translate(-0.14 -28.35)"/><path class="cls-7" d="M338.28,608.9a2.07,2.07,0,0,0-2.06,1.87" transform="translate(-0.14 -28.35)"/><path class="cls-7" d="M344.73,626.88a1.78,1.78,0,1,0-1.78,1.77,1.78,1.78,0,0,0,1.78-1.77" transform="translate(-0.14 -28.35)"/><line class="cls-7" x1="336.74" y1="697.87" x2="331.31" y2="697.87"/><line class="cls-7" x1="328.98" y1="700.21" x2="328.98" y2="705.64"/><line class="cls-7" x1="326.64" y1="697.87" x2="321.21" y2="697.87"/><line class="cls-7" x1="328.98" y1="690.11" x2="328.98" y2="695.54"/><line class="cls-7" x1="345.04" y1="639.22" x2="322.34" y2="639.22"/><line class="cls-7" x1="323.25" y1="714.91" x2="271.3" y2="714.91"/><line class="cls-7" x1="270.32" y1="691.24" x2="270.32" y2="713.93"/><line class="cls-7" x1="345.04" y1="639.22" x2="322.34" y2="639.22"/><line class="cls-7" x1="346.02" y1="640.2" x2="346.02" y2="692.14"/><line class="cls-7" x1="349.79" y1="634.54" x2="322.34" y2="634.54"/><line class="cls-7" x1="349.79" y1="719.59" x2="266.55" y2="719.59"/><line class="cls-7" x1="265.64" y1="691.24" x2="265.64" y2="718.68"/><line class="cls-7" x1="350.77" y1="635.45" x2="350.77" y2="718.68"/><path class="cls-7" d="M345.84,722a4.76,4.76,0,0,0,.24-1.5" transform="translate(-0.14 -28.35)"/><path class="cls-7" d="M346.08,668.5a.94.94,0,0,0-.94-.94" transform="translate(-0.14 -28.35)"/><path class="cls-7" d="M345.84,722a4.76,4.76,0,0,0,.24-1.5" transform="translate(-0.14 -28.35)"/><path class="cls-7" d="M322.45,662.81a56.74,56.74,0,0,0-56.74,56.74" transform="translate(-0.14 -28.35)"/><path class="cls-7" d="M350.83,663.75a.94.94,0,0,0-.94-.94" transform="translate(-0.14 -28.35)"/><path class="cls-7" d="M322.45,667.56a52,52,0,0,0-52,52" transform="translate(-0.14 -28.35)"/><path class="cls-7" d="M265.71,747a.94.94,0,0,0,.94.94" transform="translate(-0.14 -28.35)"/><path class="cls-7" d="M270.46,742.24a.94.94,0,0,0,.94.94" transform="translate(-0.14 -28.35)"/><path class="cls-7" d="M349.89,747.93a.94.94,0,0,0,.94-.94" transform="translate(-0.14 -28.35)"/><path class="cls-7" d="M324.33,743.09a51,51,0,0,0,21.73-21.73" transform="translate(-0.14 -28.35)"/><path class="cls-7" d="M323.35,743.18a4.8,4.8,0,0,0,1.5-.24" transform="translate(-0.14 -28.35)"/><path class="cls-7" d="M324.88,743a33.31,33.31,0,0,0,21-21" transform="translate(-0.14 -28.35)"/><path class="cls-7" d="M323.35,743.18a4.8,4.8,0,0,0,1.5-.24" transform="translate(-0.14 -28.35)"/><path class="cls-7" d="M329.08,721.92a4.26,4.26,0,1,0,4.26,4.26,4.26,4.26,0,0,0-4.26-4.26" transform="translate(-0.14 -28.35)"/><path class="cls-7" d="M329.08,720.19a6,6,0,1,0,6,6,6,6,0,0,0-6-6" transform="translate(-0.14 -28.35)"/><line class="cls-7" x1="0.84" y1="138.72" x2="6.27" y2="133.22"/><line class="cls-7" x1="0.84" y1="146.71" x2="14.26" y2="133.22"/><line class="cls-7" x1="0.84" y1="154.78" x2="19.69" y2="135.86"/><line class="cls-7" x1="0.84" y1="162.77" x2="19.69" y2="143.85"/><line class="cls-7" x1="0.84" y1="170.76" x2="19.69" y2="151.92"/><line class="cls-7" x1="0.84" y1="178.83" x2="19.69" y2="159.91"/><line class="cls-7" x1="0.84" y1="186.82" x2="19.69" y2="167.9"/><line class="cls-7" x1="0.84" y1="194.89" x2="19.69" y2="175.97"/><line class="cls-7" x1="0.84" y1="202.88" x2="19.69" y2="183.96"/><line class="cls-7" x1="0.84" y1="210.95" x2="19.69" y2="192.03"/><line class="cls-7" x1="0.84" y1="218.94" x2="19.69" y2="200.02"/><line class="cls-7" x1="0.84" y1="227.01" x2="19.69" y2="208.09"/><line class="cls-7" x1="8.01" y1="227.84" x2="19.69" y2="216.08"/><line class="cls-7" x1="16" y1="227.84" x2="19.69" y2="224.15"/><line class="cls-7" x1="0.84" y1="134.72" x2="1.82" y2="133.67"/><line class="cls-7" x1="0.84" y1="142.72" x2="0.84" y2="142.72"/><line class="cls-7" x1="1.82" y1="141.66" x2="1.82" y2="141.66"/><line class="cls-7" x1="2.8" y1="140.68" x2="5.82" y2="137.67"/><line class="cls-7" x1="6.87" y1="136.68" x2="6.87" y2="136.68"/><line class="cls-7" x1="7.85" y1="135.7" x2="10.27" y2="133.22"/><line class="cls-7" x1="0.84" y1="150.71" x2="0.84" y2="150.71"/><line class="cls-7" x1="1.82" y1="149.73" x2="4.84" y2="146.71"/><line class="cls-7" x1="5.82" y1="145.73" x2="5.82" y2="145.73"/><line class="cls-7" x1="6.87" y1="144.68" x2="9.89" y2="141.66"/><line class="cls-7" x1="10.87" y1="140.68" x2="10.87" y2="140.68"/><line class="cls-7" x1="11.85" y1="139.7" x2="14.87" y2="136.68"/><line class="cls-7" x1="15.85" y1="135.7" x2="15.85" y2="135.7"/><line class="cls-7" x1="16.9" y1="134.65" x2="18.26" y2="133.22"/><line class="cls-7" x1="0.84" y1="158.78" x2="3.86" y2="155.76"/><line class="cls-7" x1="4.84" y1="154.71" x2="4.84" y2="154.71"/><line class="cls-7" x1="5.82" y1="153.72" x2="8.83" y2="150.71"/><line class="cls-7" x1="9.89" y1="149.73" x2="9.89" y2="149.73"/><line class="cls-7" x1="10.87" y1="148.67" x2="13.89" y2="145.73"/><line class="cls-7" x1="14.87" y1="144.68" x2="14.87" y2="144.68"/><line class="cls-7" x1="15.85" y1="143.7" x2="18.86" y2="140.68"/><line class="cls-7" x1="0.84" y1="166.77" x2="2.8" y2="164.73"/><line class="cls-7" x1="3.86" y1="163.75" x2="3.86" y2="163.75"/><line class="cls-7" x1="4.84" y1="162.77" x2="7.85" y2="159.76"/><line class="cls-7" x1="8.83" y1="158.78" x2="8.83" y2="158.78"/><line class="cls-7" x1="9.89" y1="157.72" x2="12.83" y2="154.71"/><line class="cls-7" x1="13.89" y1="153.72" x2="13.89" y2="153.72"/><line class="cls-7" x1="14.87" y1="152.74" x2="17.88" y2="149.73"/><line class="cls-7" x1="18.86" y1="148.67" x2="18.86" y2="148.67"/><line class="cls-7" x1="0.84" y1="174.84" x2="1.82" y2="173.78"/><line class="cls-7" x1="2.8" y1="172.8" x2="2.8" y2="172.8"/><line class="cls-7" x1="3.86" y1="171.75" x2="6.87" y2="168.8"/><line class="cls-7" x1="7.85" y1="167.75" x2="7.85" y2="167.75"/><line class="cls-7" x1="8.83" y1="166.77" x2="11.85" y2="163.75"/><line class="cls-7" x1="12.83" y1="162.77" x2="12.83" y2="162.77"/><line class="cls-7" x1="13.89" y1="161.72" x2="16.9" y2="158.78"/><line class="cls-7" x1="17.88" y1="157.72" x2="17.88" y2="157.72"/><line class="cls-7" x1="18.86" y1="156.74" x2="19.69" y2="155.91"/><line class="cls-7" x1="0.84" y1="182.83" x2="0.84" y2="182.83"/><line class="cls-7" x1="1.82" y1="181.85" x2="1.82" y2="181.85"/><line class="cls-7" x1="2.8" y1="180.79" x2="5.82" y2="177.78"/><line class="cls-7" x1="6.87" y1="176.8" x2="6.87" y2="176.8"/><line class="cls-7" x1="7.85" y1="175.82" x2="10.87" y2="172.8"/><line class="cls-7" x1="11.85" y1="171.75" x2="11.85" y2="171.75"/><line class="cls-7" x1="12.83" y1="170.76" x2="15.85" y2="167.75"/><line class="cls-7" x1="16.9" y1="166.77" x2="16.9" y2="166.77"/><line class="cls-7" x1="17.88" y1="165.79" x2="19.69" y2="163.9"/><line class="cls-7" x1="0.84" y1="190.82" x2="0.84" y2="190.82"/><line class="cls-7" x1="1.82" y1="189.84" x2="4.84" y2="186.82"/><line class="cls-7" x1="5.82" y1="185.84" x2="5.82" y2="185.84"/><line class="cls-7" x1="6.87" y1="184.79" x2="9.89" y2="181.85"/><line class="cls-7" x1="10.87" y1="180.79" x2="10.87" y2="180.79"/><line class="cls-7" x1="11.85" y1="179.81" x2="14.87" y2="176.8"/><line class="cls-7" x1="15.85" y1="175.82" x2="15.85" y2="175.82"/><line class="cls-7" x1="16.9" y1="174.76" x2="19.69" y2="171.97"/><line class="cls-7" x1="0.84" y1="198.89" x2="3.86" y2="195.87"/><line class="cls-7" x1="4.84" y1="194.82" x2="4.84" y2="194.82"/><line class="cls-7" x1="5.82" y1="193.84" x2="8.83" y2="190.82"/><line class="cls-7" x1="9.89" y1="189.84" x2="9.89" y2="189.84"/><line class="cls-7" x1="10.87" y1="188.86" x2="13.89" y2="185.84"/><line class="cls-7" x1="14.87" y1="184.79" x2="14.87" y2="184.79"/><line class="cls-7" x1="15.85" y1="183.81" x2="18.86" y2="180.79"/><line class="cls-7" x1="0.84" y1="206.88" x2="2.8" y2="204.92"/><line class="cls-7" x1="3.86" y1="203.86" x2="3.86" y2="203.86"/><line class="cls-7" x1="4.84" y1="202.88" x2="7.85" y2="199.87"/><line class="cls-7" x1="8.83" y1="198.89" x2="8.83" y2="198.89"/><line class="cls-7" x1="9.89" y1="197.83" x2="12.83" y2="194.82"/><line class="cls-7" x1="13.89" y1="193.84" x2="13.89" y2="193.84"/><line class="cls-7" x1="14.87" y1="192.86" x2="17.88" y2="189.84"/><line class="cls-7" x1="18.86" y1="188.86" x2="18.86" y2="188.86"/><line class="cls-7" x1="0.84" y1="214.95" x2="1.82" y2="213.89"/><line class="cls-7" x1="2.8" y1="212.91" x2="2.8" y2="212.91"/><line class="cls-7" x1="3.86" y1="211.93" x2="6.87" y2="208.92"/><line class="cls-7" x1="7.85" y1="207.86" x2="7.85" y2="207.86"/><line class="cls-7" x1="8.83" y1="206.88" x2="11.85" y2="203.86"/><line class="cls-7" x1="12.83" y1="202.88" x2="12.83" y2="202.88"/><line class="cls-7" x1="13.89" y1="201.9" x2="16.9" y2="198.89"/><line class="cls-7" x1="17.88" y1="197.83" x2="17.88" y2="197.83"/><line class="cls-7" x1="18.86" y1="196.85" x2="19.69" y2="196.02"/><line class="cls-7" x1="0.84" y1="222.94" x2="0.84" y2="222.94"/><line class="cls-7" x1="1.82" y1="221.96" x2="1.82" y2="221.96"/><line class="cls-7" x1="2.8" y1="220.9" x2="5.82" y2="217.89"/><line class="cls-7" x1="6.87" y1="216.91" x2="6.87" y2="216.91"/><line class="cls-7" x1="7.85" y1="215.93" x2="10.87" y2="212.91"/><line class="cls-7" x1="11.85" y1="211.93" x2="11.85" y2="211.93"/><line class="cls-7" x1="12.83" y1="210.88" x2="15.85" y2="207.86"/><line class="cls-7" x1="16.9" y1="206.88" x2="16.9" y2="206.88"/><line class="cls-7" x1="17.88" y1="205.9" x2="19.69" y2="204.02"/><line class="cls-7" x1="3.93" y1="227.84" x2="4.84" y2="226.94"/><line class="cls-7" x1="5.82" y1="225.96" x2="5.82" y2="225.96"/><line class="cls-7" x1="6.87" y1="224.98" x2="9.89" y2="221.96"/><line class="cls-7" x1="10.87" y1="220.9" x2="10.87" y2="220.9"/><line class="cls-7" x1="11.85" y1="219.92" x2="14.87" y2="216.91"/><line class="cls-7" x1="15.85" y1="215.93" x2="15.85" y2="215.93"/><line class="cls-7" x1="16.9" y1="214.95" x2="19.69" y2="212.08"/><line class="cls-7" x1="12" y1="227.84" x2="13.89" y2="225.96"/><line class="cls-7" x1="14.87" y1="224.98" x2="14.87" y2="224.98"/><line class="cls-7" x1="15.85" y1="223.92" x2="18.86" y2="220.9"/><polyline class="cls-7" points="0.84 227.84 19.69 227.84 19.69 133.22 0.84 133.22 0.84 227.84"/><line class="cls-7" x1="0.84" y1="451.7" x2="7.1" y2="445.37"/><line class="cls-7" x1="0.84" y1="459.69" x2="15.17" y2="445.37"/><line class="cls-7" x1="0.84" y1="467.76" x2="19.69" y2="448.83"/><line class="cls-7" x1="0.84" y1="475.75" x2="19.69" y2="456.83"/><line class="cls-7" x1="0.84" y1="483.74" x2="19.69" y2="464.89"/><line class="cls-7" x1="0.84" y1="491.81" x2="19.69" y2="472.89"/><line class="cls-7" x1="0.84" y1="499.8" x2="19.69" y2="480.88"/><line class="cls-7" x1="0.84" y1="507.87" x2="19.69" y2="488.95"/><line class="cls-7" x1="0.84" y1="515.86" x2="19.69" y2="496.94"/><line class="cls-7" x1="0.84" y1="523.93" x2="19.69" y2="505.01"/><line class="cls-7" x1="0.84" y1="531.92" x2="19.69" y2="513"/><line class="cls-7" x1="0.84" y1="539.92" x2="19.69" y2="521.07"/><line class="cls-7" x1="8.83" y1="539.92" x2="19.69" y2="529.06"/><line class="cls-7" x1="16.9" y1="539.92" x2="19.69" y2="537.13"/><line class="cls-7" x1="0.84" y1="447.7" x2="2.8" y2="445.67"/><line class="cls-7" x1="0.84" y1="455.7" x2="1.82" y2="454.64"/><line class="cls-7" x1="2.8" y1="453.66" x2="2.8" y2="453.66"/><line class="cls-7" x1="3.86" y1="452.68" x2="6.87" y2="449.66"/><line class="cls-7" x1="7.85" y1="448.68" x2="7.85" y2="448.68"/><line class="cls-7" x1="8.83" y1="447.63" x2="11.17" y2="445.37"/><line class="cls-7" x1="0.84" y1="463.69" x2="0.84" y2="463.69"/><line class="cls-7" x1="1.82" y1="462.71" x2="1.82" y2="462.71"/><line class="cls-7" x1="2.8" y1="461.65" x2="5.82" y2="458.71"/><line class="cls-7" x1="6.87" y1="457.66" x2="6.87" y2="457.66"/><line class="cls-7" x1="7.85" y1="456.68" x2="10.87" y2="453.66"/><line class="cls-7" x1="11.85" y1="452.68" x2="11.85" y2="452.68"/><line class="cls-7" x1="12.83" y1="451.62" x2="15.85" y2="448.68"/><line class="cls-7" x1="16.9" y1="447.63" x2="16.9" y2="447.63"/><line class="cls-7" x1="17.88" y1="446.65" x2="19.16" y2="445.37"/><line class="cls-7" x1="0.84" y1="471.76" x2="0.84" y2="471.76"/><line class="cls-7" x1="1.82" y1="470.7" x2="4.84" y2="467.68"/><line class="cls-7" x1="5.82" y1="466.7" x2="5.82" y2="466.7"/><line class="cls-7" x1="6.87" y1="465.72" x2="9.89" y2="462.71"/><line class="cls-7" x1="10.87" y1="461.65" x2="10.87" y2="461.65"/><line class="cls-7" x1="11.85" y1="460.67" x2="14.87" y2="457.66"/><line class="cls-7" x1="15.85" y1="456.68" x2="15.85" y2="456.68"/><line class="cls-7" x1="16.9" y1="455.7" x2="19.69" y2="452.83"/><line class="cls-7" x1="0.84" y1="479.75" x2="3.86" y2="476.73"/><line class="cls-7" x1="4.84" y1="475.75" x2="4.84" y2="475.75"/><line class="cls-7" x1="5.82" y1="474.7" x2="8.83" y2="471.76"/><line class="cls-7" x1="9.89" y1="470.7" x2="9.89" y2="470.7"/><line class="cls-7" x1="10.87" y1="469.72" x2="13.89" y2="466.7"/><line class="cls-7" x1="14.87" y1="465.72" x2="14.87" y2="465.72"/><line class="cls-7" x1="15.85" y1="464.67" x2="18.86" y2="461.65"/><line class="cls-7" x1="0.84" y1="487.81" x2="2.8" y2="485.78"/><line class="cls-7" x1="3.86" y1="484.72" x2="3.86" y2="484.72"/><line class="cls-7" x1="4.84" y1="483.74" x2="7.85" y2="480.73"/><line class="cls-7" x1="8.83" y1="479.75" x2="8.83" y2="479.75"/><line class="cls-7" x1="9.89" y1="478.77" x2="12.83" y2="475.75"/><line class="cls-7" x1="13.89" y1="474.7" x2="13.89" y2="474.7"/><line class="cls-7" x1="14.87" y1="473.72" x2="17.88" y2="470.7"/><line class="cls-7" x1="18.86" y1="469.72" x2="18.86" y2="469.72"/><line class="cls-7" x1="0.84" y1="495.81" x2="1.82" y2="494.83"/><line class="cls-7" x1="2.8" y1="493.77" x2="2.8" y2="493.77"/><line class="cls-7" x1="3.86" y1="492.79" x2="6.87" y2="489.78"/><line class="cls-7" x1="7.85" y1="488.8" x2="7.85" y2="488.8"/><line class="cls-7" x1="8.83" y1="487.74" x2="11.85" y2="484.72"/><line class="cls-7" x1="12.83" y1="483.74" x2="12.83" y2="483.74"/><line class="cls-7" x1="13.89" y1="482.76" x2="16.9" y2="479.75"/><line class="cls-7" x1="17.88" y1="478.77" x2="17.88" y2="478.77"/><line class="cls-7" x1="18.86" y1="477.71" x2="19.69" y2="476.88"/><line class="cls-7" x1="0.84" y1="503.87" x2="0.84" y2="503.8"/><line class="cls-7" x1="1.82" y1="502.82" x2="1.82" y2="502.82"/><line class="cls-7" x1="2.8" y1="501.84" x2="5.82" y2="498.82"/><line class="cls-7" x1="6.87" y1="497.77" x2="6.87" y2="497.77"/><line class="cls-7" x1="7.85" y1="496.79" x2="10.87" y2="493.77"/><line class="cls-7" x1="11.85" y1="492.79" x2="11.85" y2="492.79"/><line class="cls-7" x1="12.83" y1="491.81" x2="15.85" y2="488.8"/><line class="cls-7" x1="16.9" y1="487.74" x2="16.9" y2="487.74"/><line class="cls-7" x1="17.88" y1="486.76" x2="19.69" y2="484.95"/><line class="cls-7" x1="0.84" y1="511.87" x2="0.84" y2="511.87"/><line class="cls-7" x1="1.82" y1="510.81" x2="4.84" y2="507.8"/><line class="cls-7" x1="5.82" y1="506.82" x2="5.82" y2="506.82"/><line class="cls-7" x1="6.87" y1="505.84" x2="9.89" y2="502.82"/><line class="cls-7" x1="10.87" y1="501.84" x2="10.87" y2="501.84"/><line class="cls-7" x1="11.85" y1="500.78" x2="14.87" y2="497.77"/><line class="cls-7" x1="15.85" y1="496.79" x2="15.85" y2="496.79"/><line class="cls-7" x1="16.9" y1="495.81" x2="19.69" y2="492.94"/><line class="cls-7" x1="0.84" y1="519.86" x2="3.86" y2="516.84"/><line class="cls-7" x1="4.84" y1="515.86" x2="4.84" y2="515.86"/><line class="cls-7" x1="5.82" y1="514.88" x2="8.83" y2="511.87"/><line class="cls-7" x1="9.89" y1="510.81" x2="9.89" y2="510.81"/><line class="cls-7" x1="10.87" y1="509.83" x2="13.89" y2="506.82"/><line class="cls-7" x1="14.87" y1="505.84" x2="14.87" y2="505.84"/><line class="cls-7" x1="15.85" y1="504.86" x2="18.86" y2="501.84"/><line class="cls-7" x1="0.84" y1="527.93" x2="2.8" y2="525.89"/><line class="cls-7" x1="3.86" y1="524.91" x2="3.86" y2="524.91"/><line class="cls-7" x1="4.84" y1="523.86" x2="7.85" y2="520.84"/><line class="cls-7" x1="8.83" y1="519.86" x2="8.83" y2="519.86"/><line class="cls-7" x1="9.89" y1="518.88" x2="12.83" y2="515.86"/><line class="cls-7" x1="13.89" y1="514.88" x2="13.89" y2="514.88"/><line class="cls-7" x1="14.87" y1="513.83" x2="17.88" y2="510.81"/><line class="cls-7" x1="18.86" y1="509.83" x2="18.86" y2="509.83"/><line class="cls-7" x1="0.84" y1="535.92" x2="1.82" y2="534.94"/><line class="cls-7" x1="2.8" y1="533.88" x2="2.8" y2="533.88"/><line class="cls-7" x1="3.86" y1="532.9" x2="6.87" y2="529.89"/><line class="cls-7" x1="7.85" y1="528.91" x2="7.85" y2="528.91"/><line class="cls-7" x1="8.83" y1="527.93" x2="11.85" y2="524.91"/><line class="cls-7" x1="12.83" y1="523.86" x2="12.83" y2="523.86"/><line class="cls-7" x1="13.89" y1="522.88" x2="16.9" y2="519.86"/><line class="cls-7" x1="17.88" y1="518.88" x2="17.88" y2="518.88"/><line class="cls-7" x1="18.86" y1="517.9" x2="19.69" y2="516.99"/><line class="cls-7" x1="4.84" y1="539.92" x2="5.82" y2="538.94"/><line class="cls-7" x1="6.87" y1="537.95" x2="6.87" y2="537.95"/><line class="cls-7" x1="7.85" y1="536.9" x2="10.87" y2="533.88"/><line class="cls-7" x1="11.85" y1="532.9" x2="11.85" y2="532.9"/><line class="cls-7" x1="12.83" y1="531.92" x2="15.85" y2="528.91"/><line class="cls-7" x1="16.9" y1="527.93" x2="16.9" y2="527.93"/><line class="cls-7" x1="17.88" y1="526.87" x2="19.69" y2="525.06"/><line class="cls-7" x1="12.83" y1="539.92" x2="14.87" y2="537.95"/><line class="cls-7" x1="15.85" y1="536.9" x2="15.85" y2="536.9"/><line class="cls-7" x1="16.9" y1="535.92" x2="19.69" y2="533.05"/><polyline class="cls-7" points="19.69 445.37 0.84 445.37 0.84 539.91 19.69 539.91 19.69 445.37"/><line class="cls-7" x1="350.77" y1="133.82" x2="351.29" y2="133.22"/><line class="cls-7" x1="350.77" y1="141.89" x2="359.36" y2="133.22"/><line class="cls-7" x1="350.77" y1="149.88" x2="367.35" y2="133.22"/><line class="cls-7" x1="350.77" y1="157.95" x2="369.62" y2="139.02"/><line class="cls-7" x1="350.77" y1="165.94" x2="369.62" y2="147.01"/><line class="cls-7" x1="350.77" y1="174.01" x2="369.62" y2="155.08"/><line class="cls-7" x1="350.77" y1="182" x2="369.62" y2="163.07"/><line class="cls-7" x1="350.77" y1="189.99" x2="369.62" y2="171.14"/><line class="cls-7" x1="350.77" y1="198.06" x2="369.62" y2="179.13"/><line class="cls-7" x1="350.77" y1="206.05" x2="369.62" y2="187.13"/><line class="cls-7" x1="350.77" y1="214.12" x2="369.62" y2="195.19"/><line class="cls-7" x1="350.77" y1="222.11" x2="369.62" y2="203.19"/><line class="cls-7" x1="353.03" y1="227.84" x2="369.62" y2="211.25"/><line class="cls-7" x1="361.1" y1="227.84" x2="369.62" y2="219.25"/><line class="cls-7" x1="369.09" y1="227.84" x2="369.62" y2="227.31"/><line class="cls-7" x1="350.92" y1="137.67" x2="353.93" y2="134.65"/><line class="cls-7" x1="354.91" y1="133.67" x2="354.91" y2="133.67"/><line class="cls-7" x1="350.77" y1="145.88" x2="352.95" y2="143.7"/><line class="cls-7" x1="353.93" y1="142.72" x2="353.93" y2="142.72"/><line class="cls-7" x1="354.91" y1="141.66" x2="357.93" y2="138.65"/><line class="cls-7" x1="358.91" y1="137.67" x2="358.91" y2="137.67"/><line class="cls-7" x1="359.96" y1="136.68" x2="362.98" y2="133.67"/><line class="cls-7" x1="350.77" y1="153.88" x2="351.9" y2="152.74"/><line class="cls-7" x1="352.95" y1="151.69" x2="352.95" y2="151.69"/><line class="cls-7" x1="353.93" y1="150.71" x2="356.95" y2="147.69"/><line class="cls-7" x1="357.93" y1="146.71" x2="357.93" y2="146.71"/><line class="cls-7" x1="358.91" y1="145.73" x2="361.93" y2="142.72"/><line class="cls-7" x1="362.98" y1="141.66" x2="362.98" y2="141.66"/><line class="cls-7" x1="363.96" y1="140.68" x2="366.98" y2="137.67"/><line class="cls-7" x1="367.96" y1="136.68" x2="367.96" y2="136.68"/><line class="cls-7" x1="369.01" y1="135.7" x2="369.62" y2="135.03"/><line class="cls-7" x1="350.77" y1="161.94" x2="350.92" y2="161.72"/><line class="cls-7" x1="351.9" y1="160.74" x2="351.9" y2="160.74"/><line class="cls-7" x1="352.95" y1="159.76" x2="355.97" y2="156.74"/><line class="cls-7" x1="356.95" y1="155.76" x2="356.95" y2="155.76"/><line class="cls-7" x1="357.93" y1="154.71" x2="360.95" y2="151.69"/><line class="cls-7" x1="361.93" y1="150.71" x2="361.93" y2="150.71"/><line class="cls-7" x1="362.98" y1="149.73" x2="366" y2="146.71"/><line class="cls-7" x1="366.98" y1="145.73" x2="366.98" y2="145.73"/><line class="cls-7" x1="367.96" y1="144.68" x2="369.62" y2="143.02"/><line class="cls-7" x1="350.92" y1="169.78" x2="350.92" y2="169.78"/><line class="cls-7" x1="351.9" y1="168.8" x2="354.91" y2="165.79"/><line class="cls-7" x1="355.97" y1="164.73" x2="355.97" y2="164.73"/><line class="cls-7" x1="356.95" y1="163.75" x2="359.96" y2="160.74"/><line class="cls-7" x1="360.95" y1="159.76" x2="360.95" y2="159.76"/><line class="cls-7" x1="361.93" y1="158.78" x2="364.94" y2="155.76"/><line class="cls-7" x1="366" y1="154.71" x2="366" y2="154.71"/><line class="cls-7" x1="366.98" y1="153.72" x2="369.62" y2="151.01"/><line class="cls-7" x1="350.92" y1="177.78" x2="353.93" y2="174.76"/><line class="cls-7" x1="354.91" y1="173.78" x2="354.91" y2="173.78"/><line class="cls-7" x1="355.97" y1="172.8" x2="358.91" y2="169.78"/><line class="cls-7" x1="359.96" y1="168.8" x2="359.96" y2="168.8"/><line class="cls-7" x1="360.95" y1="167.75" x2="363.96" y2="164.73"/><line class="cls-7" x1="364.94" y1="163.75" x2="364.94" y2="163.75"/><line class="cls-7" x1="366" y1="162.77" x2="369.01" y2="159.76"/><line class="cls-7" x1="350.77" y1="186" x2="352.95" y2="183.81"/><line class="cls-7" x1="353.93" y1="182.83" x2="353.93" y2="182.83"/><line class="cls-7" x1="354.91" y1="181.85" x2="357.93" y2="178.83"/><line class="cls-7" x1="358.91" y1="177.78" x2="358.91" y2="177.78"/><line class="cls-7" x1="359.96" y1="176.8" x2="362.98" y2="173.78"/><line class="cls-7" x1="363.96" y1="172.8" x2="363.96" y2="172.8"/><line class="cls-7" x1="364.94" y1="171.75" x2="367.96" y2="168.8"/><line class="cls-7" x1="369.01" y1="167.75" x2="369.01" y2="167.75"/><line class="cls-7" x1="350.77" y1="194.06" x2="351.9" y2="192.86"/><line class="cls-7" x1="352.95" y1="191.88" x2="352.95" y2="191.88"/><line class="cls-7" x1="353.93" y1="190.82" x2="356.95" y2="187.8"/><line class="cls-7" x1="357.93" y1="186.82" x2="357.93" y2="186.82"/><line class="cls-7" x1="358.91" y1="185.84" x2="361.93" y2="182.83"/><line class="cls-7" x1="362.98" y1="181.85" x2="362.98" y2="181.85"/><line class="cls-7" x1="363.96" y1="180.79" x2="366.98" y2="177.78"/><line class="cls-7" x1="367.96" y1="176.8" x2="367.96" y2="176.8"/><line class="cls-7" x1="369.01" y1="175.82" x2="369.62" y2="175.14"/><line class="cls-7" x1="350.77" y1="202.06" x2="350.92" y2="201.9"/><line class="cls-7" x1="351.9" y1="200.85" x2="351.9" y2="200.85"/><line class="cls-7" x1="352.95" y1="199.87" x2="355.97" y2="196.85"/><line class="cls-7" x1="356.95" y1="195.87" x2="356.95" y2="195.87"/><line class="cls-7" x1="357.93" y1="194.82" x2="360.95" y2="191.88"/><line class="cls-7" x1="361.93" y1="190.82" x2="361.93" y2="190.82"/><line class="cls-7" x1="362.98" y1="189.84" x2="366" y2="186.82"/><line class="cls-7" x1="366.98" y1="185.84" x2="366.98" y2="185.84"/><line class="cls-7" x1="367.96" y1="184.79" x2="369.62" y2="183.13"/><line class="cls-7" x1="350.92" y1="209.9" x2="350.92" y2="209.9"/><line class="cls-7" x1="351.9" y1="208.92" x2="354.91" y2="205.9"/><line class="cls-7" x1="355.97" y1="204.92" x2="355.97" y2="204.92"/><line class="cls-7" x1="356.95" y1="203.86" x2="359.96" y2="200.85"/><line class="cls-7" x1="360.95" y1="199.87" x2="360.95" y2="199.87"/><line class="cls-7" x1="361.93" y1="198.89" x2="364.94" y2="195.87"/><line class="cls-7" x1="366" y1="194.82" x2="366" y2="194.82"/><line class="cls-7" x1="366.98" y1="193.84" x2="369.62" y2="191.2"/><line class="cls-7" x1="350.92" y1="217.89" x2="353.93" y2="214.95"/><line class="cls-7" x1="354.91" y1="213.89" x2="354.91" y2="213.89"/><line class="cls-7" x1="355.97" y1="212.91" x2="358.91" y2="209.9"/><line class="cls-7" x1="359.96" y1="208.92" x2="359.96" y2="208.92"/><line class="cls-7" x1="360.95" y1="207.86" x2="363.96" y2="204.92"/><line class="cls-7" x1="364.94" y1="203.86" x2="364.94" y2="203.86"/><line class="cls-7" x1="366" y1="202.88" x2="369.01" y2="199.87"/><line class="cls-7" x1="350.77" y1="226.11" x2="352.95" y2="223.92"/><line class="cls-7" x1="353.93" y1="222.94" x2="353.93" y2="222.94"/><line class="cls-7" x1="354.91" y1="221.96" x2="357.93" y2="218.94"/><line class="cls-7" x1="358.91" y1="217.89" x2="358.91" y2="217.89"/><line class="cls-7" x1="359.96" y1="216.91" x2="362.98" y2="213.89"/><line class="cls-7" x1="363.96" y1="212.91" x2="363.96" y2="212.91"/><line class="cls-7" x1="364.94" y1="211.93" x2="367.96" y2="208.92"/><line class="cls-7" x1="369.01" y1="207.86" x2="369.01" y2="207.86"/><line class="cls-7" x1="357.93" y1="226.94" x2="357.93" y2="226.94"/><line class="cls-7" x1="358.91" y1="225.96" x2="361.93" y2="222.94"/><line class="cls-7" x1="362.98" y1="221.96" x2="362.98" y2="221.96"/><line class="cls-7" x1="363.96" y1="220.9" x2="366.98" y2="217.89"/><line class="cls-7" x1="367.96" y1="216.91" x2="367.96" y2="216.91"/><line class="cls-7" x1="369.01" y1="215.93" x2="369.62" y2="215.25"/><line class="cls-7" x1="365.09" y1="227.84" x2="366" y2="226.94"/><line class="cls-7" x1="366.98" y1="225.96" x2="366.98" y2="225.96"/><line class="cls-7" x1="367.96" y1="224.98" x2="369.62" y2="223.24"/><polyline class="cls-7" points="350.77 227.84 369.62 227.84 369.62 133.22 350.77 133.22 350.77 227.84"/><line class="cls-7" x1="350.77" y1="430.74" x2="355.06" y2="426.44"/><line class="cls-7" x1="350.77" y1="438.81" x2="363.13" y2="426.44"/><line class="cls-7" x1="350.77" y1="446.8" x2="369.62" y2="427.87"/><line class="cls-7" x1="350.77" y1="454.87" x2="369.62" y2="435.94"/><line class="cls-7" x1="350.77" y1="462.86" x2="369.62" y2="443.93"/><line class="cls-7" x1="350.77" y1="470.93" x2="369.62" y2="452"/><line class="cls-7" x1="350.77" y1="478.92" x2="369.62" y2="459.99"/><line class="cls-7" x1="350.77" y1="486.99" x2="369.62" y2="468.06"/><line class="cls-7" x1="350.77" y1="494.98" x2="369.62" y2="476.05"/><line class="cls-7" x1="350.77" y1="502.97" x2="369.62" y2="484.12"/><line class="cls-7" x1="350.77" y1="511.04" x2="369.62" y2="492.11"/><line class="cls-7" x1="350.77" y1="519.03" x2="369.62" y2="500.1"/><line class="cls-7" x1="350.77" y1="527.1" x2="369.62" y2="508.17"/><line class="cls-7" x1="350.77" y1="535.09" x2="369.62" y2="516.16"/><line class="cls-7" x1="353.93" y1="539.92" x2="369.62" y2="524.23"/><line class="cls-7" x1="361.93" y1="539.92" x2="369.62" y2="532.22"/><line class="cls-7" x1="350.77" y1="426.74" x2="351.07" y2="426.44"/><line class="cls-7" x1="350.77" y1="434.81" x2="351.9" y2="433.6"/><line class="cls-7" x1="352.95" y1="432.62" x2="352.95" y2="432.62"/><line class="cls-7" x1="353.93" y1="431.57" x2="356.95" y2="428.55"/><line class="cls-7" x1="357.93" y1="427.57" x2="357.93" y2="427.57"/><line class="cls-7" x1="358.91" y1="426.59" x2="359.06" y2="426.44"/><line class="cls-7" x1="350.77" y1="442.8" x2="350.92" y2="442.65"/><line class="cls-7" x1="351.9" y1="441.6" x2="351.9" y2="441.6"/><line class="cls-7" x1="352.95" y1="440.62" x2="355.97" y2="437.6"/><line class="cls-7" x1="356.95" y1="436.62" x2="356.95" y2="436.62"/><line class="cls-7" x1="357.93" y1="435.64" x2="360.95" y2="432.62"/><line class="cls-7" x1="361.93" y1="431.57" x2="361.93" y2="431.57"/><line class="cls-7" x1="362.98" y1="430.59" x2="366" y2="427.57"/><line class="cls-7" x1="366.98" y1="426.59" x2="366.98" y2="426.59"/><line class="cls-7" x1="350.92" y1="450.64" x2="350.92" y2="450.64"/><line class="cls-7" x1="351.9" y1="449.66" x2="354.91" y2="446.65"/><line class="cls-7" x1="355.97" y1="445.67" x2="355.97" y2="445.67"/><line class="cls-7" x1="356.95" y1="444.61" x2="359.96" y2="441.6"/><line class="cls-7" x1="360.95" y1="440.62" x2="360.95" y2="440.62"/><line class="cls-7" x1="361.93" y1="439.64" x2="364.94" y2="436.62"/><line class="cls-7" x1="366" y1="435.64" x2="366" y2="435.64"/><line class="cls-7" x1="366.98" y1="434.58" x2="369.62" y2="431.94"/><line class="cls-7" x1="350.92" y1="458.71" x2="353.93" y2="455.7"/><line class="cls-7" x1="354.91" y1="454.64" x2="354.91" y2="454.64"/><line class="cls-7" x1="355.97" y1="453.66" x2="358.91" y2="450.64"/><line class="cls-7" x1="359.96" y1="449.66" x2="359.96" y2="449.66"/><line class="cls-7" x1="360.95" y1="448.68" x2="363.96" y2="445.67"/><line class="cls-7" x1="364.94" y1="444.61" x2="364.94" y2="444.61"/><line class="cls-7" x1="366" y1="443.63" x2="369.01" y2="440.62"/><line class="cls-7" x1="350.77" y1="466.85" x2="352.95" y2="464.67"/><line class="cls-7" x1="353.93" y1="463.69" x2="353.93" y2="463.69"/><line class="cls-7" x1="354.91" y1="462.71" x2="357.93" y2="459.69"/><line class="cls-7" x1="358.91" y1="458.71" x2="358.91" y2="458.71"/><line class="cls-7" x1="359.96" y1="457.66" x2="362.98" y2="454.64"/><line class="cls-7" x1="363.96" y1="453.66" x2="363.96" y2="453.66"/><line class="cls-7" x1="364.94" y1="452.68" x2="367.96" y2="449.66"/><line class="cls-7" x1="369.01" y1="448.68" x2="369.01" y2="448.68"/><line class="cls-7" x1="350.77" y1="474.92" x2="351.9" y2="473.72"/><line class="cls-7" x1="352.95" y1="472.74" x2="352.95" y2="472.74"/><line class="cls-7" x1="353.93" y1="471.76" x2="356.95" y2="468.74"/><line class="cls-7" x1="357.93" y1="467.68" x2="357.93" y2="467.68"/><line class="cls-7" x1="358.91" y1="466.7" x2="361.93" y2="463.69"/><line class="cls-7" x1="362.98" y1="462.71" x2="362.98" y2="462.71"/><line class="cls-7" x1="363.96" y1="461.65" x2="366.98" y2="458.71"/><line class="cls-7" x1="367.96" y1="457.66" x2="367.96" y2="457.66"/><line class="cls-7" x1="369.01" y1="456.68" x2="369.62" y2="456"/><line class="cls-7" x1="350.77" y1="482.91" x2="350.92" y2="482.76"/><line class="cls-7" x1="351.9" y1="481.78" x2="351.9" y2="481.78"/><line class="cls-7" x1="352.95" y1="480.73" x2="355.97" y2="477.71"/><line class="cls-7" x1="356.95" y1="476.73" x2="356.95" y2="476.73"/><line class="cls-7" x1="357.93" y1="475.75" x2="360.95" y2="472.74"/><line class="cls-7" x1="361.93" y1="471.76" x2="361.93" y2="471.76"/><line class="cls-7" x1="362.98" y1="470.7" x2="366" y2="467.68"/><line class="cls-7" x1="366.98" y1="466.7" x2="366.98" y2="466.7"/><line class="cls-7" x1="367.96" y1="465.72" x2="369.62" y2="463.99"/><line class="cls-7" x1="350.92" y1="490.76" x2="350.92" y2="490.76"/><line class="cls-7" x1="351.9" y1="489.78" x2="354.91" y2="486.76"/><line class="cls-7" x1="355.97" y1="485.78" x2="355.97" y2="485.78"/><line class="cls-7" x1="356.95" y1="484.72" x2="359.96" y2="481.78"/><line class="cls-7" x1="360.95" y1="480.73" x2="360.95" y2="480.73"/><line class="cls-7" x1="361.93" y1="479.75" x2="364.94" y2="476.73"/><line class="cls-7" x1="366" y1="475.75" x2="366" y2="475.75"/><line class="cls-7" x1="366.98" y1="474.7" x2="369.62" y2="472.06"/><line class="cls-7" x1="350.92" y1="498.82" x2="353.93" y2="495.81"/><line class="cls-7" x1="354.91" y1="494.83" x2="354.91" y2="494.83"/><line class="cls-7" x1="355.97" y1="493.77" x2="358.91" y2="490.76"/><line class="cls-7" x1="359.96" y1="489.78" x2="359.96" y2="489.78"/><line class="cls-7" x1="360.95" y1="488.8" x2="363.96" y2="485.78"/><line class="cls-7" x1="364.94" y1="484.72" x2="364.94" y2="484.72"/><line class="cls-7" x1="366" y1="483.74" x2="369.01" y2="480.73"/><line class="cls-7" x1="350.77" y1="507.04" x2="352.95" y2="504.86"/><line class="cls-7" x1="353.93" y1="503.8" x2="353.93" y2="503.8"/><line class="cls-7" x1="354.91" y1="502.82" x2="357.93" y2="499.8"/><line class="cls-7" x1="358.91" y1="498.82" x2="358.91" y2="498.82"/><line class="cls-7" x1="359.96" y1="497.77" x2="362.98" y2="494.83"/><line class="cls-7" x1="363.96" y1="493.77" x2="363.96" y2="493.77"/><line class="cls-7" x1="364.94" y1="492.79" x2="367.96" y2="489.78"/><line class="cls-7" x1="369.01" y1="488.8" x2="369.01" y2="488.8"/><line class="cls-7" x1="350.77" y1="515.03" x2="351.9" y2="513.83"/><line class="cls-7" x1="352.95" y1="512.85" x2="352.95" y2="512.85"/><line class="cls-7" x1="353.93" y1="511.87" x2="356.95" y2="508.85"/><line class="cls-7" x1="357.93" y1="507.8" x2="357.93" y2="507.8"/><line class="cls-7" x1="358.91" y1="506.82" x2="361.93" y2="503.8"/><line class="cls-7" x1="362.98" y1="502.82" x2="362.98" y2="502.82"/><line class="cls-7" x1="363.96" y1="501.84" x2="366.98" y2="498.82"/><line class="cls-7" x1="367.96" y1="497.77" x2="367.96" y2="497.77"/><line class="cls-7" x1="369.01" y1="496.79" x2="369.62" y2="496.11"/><line class="cls-7" x1="350.77" y1="523.03" x2="350.92" y2="522.88"/><line class="cls-7" x1="351.9" y1="521.9" x2="351.9" y2="521.9"/><line class="cls-7" x1="352.95" y1="520.84" x2="355.97" y2="517.9"/><line class="cls-7" x1="356.95" y1="516.84" x2="356.95" y2="516.84"/><line class="cls-7" x1="357.93" y1="515.86" x2="360.95" y2="512.85"/><line class="cls-7" x1="361.93" y1="511.87" x2="361.93" y2="511.87"/><line class="cls-7" x1="362.98" y1="510.81" x2="366" y2="507.8"/><line class="cls-7" x1="366.98" y1="506.82" x2="366.98" y2="506.82"/><line class="cls-7" x1="367.96" y1="505.84" x2="369.62" y2="504.18"/><line class="cls-7" x1="350.92" y1="530.87" x2="350.92" y2="530.87"/><line class="cls-7" x1="351.9" y1="529.89" x2="354.91" y2="526.87"/><line class="cls-7" x1="355.97" y1="525.89" x2="355.97" y2="525.89"/><line class="cls-7" x1="356.95" y1="524.91" x2="359.96" y2="521.9"/><line class="cls-7" x1="360.95" y1="520.84" x2="360.95" y2="520.84"/><line class="cls-7" x1="361.93" y1="519.86" x2="364.94" y2="516.84"/><line class="cls-7" x1="366" y1="515.86" x2="366" y2="515.86"/><line class="cls-7" x1="366.98" y1="514.88" x2="369.62" y2="512.17"/><line class="cls-7" x1="350.92" y1="538.94" x2="353.93" y2="535.92"/><line class="cls-7" x1="354.91" y1="534.94" x2="354.91" y2="534.94"/><line class="cls-7" x1="355.97" y1="533.88" x2="358.91" y2="530.87"/><line class="cls-7" x1="359.96" y1="529.89" x2="359.96" y2="529.89"/><line class="cls-7" x1="360.95" y1="528.91" x2="363.96" y2="525.89"/><line class="cls-7" x1="364.94" y1="524.91" x2="364.94" y2="524.91"/><line class="cls-7" x1="366" y1="523.86" x2="369.01" y2="520.84"/><line class="cls-7" x1="358.91" y1="538.94" x2="358.91" y2="538.94"/><line class="cls-7" x1="359.96" y1="537.95" x2="362.98" y2="534.94"/><line class="cls-7" x1="363.96" y1="533.88" x2="363.96" y2="533.88"/><line class="cls-7" x1="364.94" y1="532.9" x2="367.96" y2="529.89"/><line class="cls-7" x1="369.01" y1="528.91" x2="369.01" y2="528.91"/><line class="cls-7" x1="366" y1="539.92" x2="366.98" y2="538.94"/><line class="cls-7" x1="367.96" y1="537.95" x2="367.96" y2="537.95"/><line class="cls-7" x1="369.01" y1="536.9" x2="369.62" y2="536.22"/><polyline class="cls-7" points="369.62 426.44 350.77 426.44 350.77 539.91 369.62 539.91 369.62 426.44"/><line class="cls-7" x1="166.34" y1="783.75" x2="173.66" y2="776.36"/><line class="cls-7" x1="166.34" y1="791.75" x2="181.72" y2="776.36"/><line class="cls-7" x1="170.79" y1="795.29" x2="189.72" y2="776.36"/><line class="cls-7" x1="178.86" y1="795.29" x2="197.71" y2="776.36"/><line class="cls-7" x1="186.85" y1="795.29" x2="205.78" y2="776.36"/><line class="cls-7" x1="194.84" y1="795.29" x2="213.77" y2="776.36"/><line class="cls-7" x1="202.91" y1="795.29" x2="221.84" y2="776.36"/><line class="cls-7" x1="210.9" y1="795.29" x2="229.83" y2="776.36"/><line class="cls-7" x1="218.97" y1="795.29" x2="237.9" y2="776.36"/><line class="cls-7" x1="226.96" y1="795.29" x2="245.89" y2="776.36"/><line class="cls-7" x1="235.03" y1="795.29" x2="253.88" y2="776.36"/><line class="cls-7" x1="243.02" y1="795.29" x2="261.95" y2="776.36"/><line class="cls-7" x1="251.01" y1="795.29" x2="269.94" y2="776.36"/><line class="cls-7" x1="259.08" y1="795.29" x2="278.01" y2="776.36"/><line class="cls-7" x1="267.07" y1="795.29" x2="279.82" y2="782.55"/><line class="cls-7" x1="275.14" y1="795.29" x2="279.82" y2="790.61"/><line class="cls-7" x1="166.34" y1="779.68" x2="166.34" y2="779.68"/><line class="cls-7" x1="167.32" y1="778.7" x2="167.32" y2="778.7"/><line class="cls-7" x1="168.38" y1="777.65" x2="169.66" y2="776.36"/><line class="cls-7" x1="166.34" y1="787.67" x2="166.34" y2="787.67"/><line class="cls-7" x1="167.32" y1="786.69" x2="170.34" y2="783.68"/><line class="cls-7" x1="171.39" y1="782.7" x2="171.39" y2="782.7"/><line class="cls-7" x1="172.37" y1="781.72" x2="175.39" y2="778.7"/><line class="cls-7" x1="176.37" y1="777.65" x2="176.37" y2="777.65"/><line class="cls-7" x1="177.35" y1="776.67" x2="177.65" y2="776.36"/><line class="cls-7" x1="166.79" y1="795.29" x2="169.36" y2="792.73"/><line class="cls-7" x1="170.34" y1="791.75" x2="170.34" y2="791.75"/><line class="cls-7" x1="171.39" y1="790.69" x2="174.33" y2="787.67"/><line class="cls-7" x1="175.39" y1="786.69" x2="175.39" y2="786.69"/><line class="cls-7" x1="176.37" y1="785.71" x2="179.39" y2="782.7"/><line class="cls-7" x1="180.37" y1="781.72" x2="180.37" y2="781.72"/><line class="cls-7" x1="181.42" y1="780.66" x2="184.44" y2="777.65"/><line class="cls-7" x1="185.42" y1="776.67" x2="185.42" y2="776.67"/><line class="cls-7" x1="175.39" y1="794.76" x2="178.41" y2="791.75"/><line class="cls-7" x1="179.39" y1="790.69" x2="179.39" y2="790.69"/><line class="cls-7" x1="180.37" y1="789.71" x2="183.38" y2="786.69"/><line class="cls-7" x1="184.44" y1="785.71" x2="184.44" y2="785.71"/><line class="cls-7" x1="185.42" y1="784.66" x2="188.43" y2="781.72"/><line class="cls-7" x1="189.41" y1="780.66" x2="189.41" y2="780.66"/><line class="cls-7" x1="190.39" y1="779.68" x2="193.41" y2="776.67"/><line class="cls-7" x1="183.38" y1="794.76" x2="183.38" y2="794.76"/><line class="cls-7" x1="184.44" y1="793.71" x2="187.38" y2="790.69"/><line class="cls-7" x1="188.43" y1="789.71" x2="188.43" y2="789.71"/><line class="cls-7" x1="189.41" y1="788.73" x2="192.43" y2="785.71"/><line class="cls-7" x1="193.41" y1="784.66" x2="193.41" y2="784.66"/><line class="cls-7" x1="194.47" y1="783.68" x2="197.41" y2="780.66"/><line class="cls-7" x1="198.46" y1="779.68" x2="198.46" y2="779.68"/><line class="cls-7" x1="199.44" y1="778.7" x2="201.78" y2="776.36"/><line class="cls-7" x1="190.85" y1="795.29" x2="191.45" y2="794.76"/><line class="cls-7" x1="192.43" y1="793.71" x2="192.43" y2="793.71"/><line class="cls-7" x1="193.41" y1="792.73" x2="196.43" y2="789.71"/><line class="cls-7" x1="197.41" y1="788.73" x2="197.41" y2="788.73"/><line class="cls-7" x1="198.46" y1="787.67" x2="201.48" y2="784.66"/><line class="cls-7" x1="202.46" y1="783.68" x2="202.46" y2="783.68"/><line class="cls-7" x1="203.44" y1="782.7" x2="206.45" y2="779.68"/><line class="cls-7" x1="207.51" y1="778.7" x2="207.51" y2="778.7"/><line class="cls-7" x1="208.49" y1="777.65" x2="209.77" y2="776.36"/><line class="cls-7" x1="198.91" y1="795.29" x2="200.42" y2="793.71"/><line class="cls-7" x1="201.48" y1="792.73" x2="201.48" y2="792.73"/><line class="cls-7" x1="202.46" y1="791.75" x2="205.47" y2="788.73"/><line class="cls-7" x1="206.45" y1="787.67" x2="206.45" y2="787.67"/><line class="cls-7" x1="207.51" y1="786.69" x2="210.45" y2="783.68"/><line class="cls-7" x1="211.51" y1="782.7" x2="211.51" y2="782.7"/><line class="cls-7" x1="212.49" y1="781.72" x2="215.5" y2="778.7"/><line class="cls-7" x1="216.48" y1="777.65" x2="216.48" y2="777.65"/><line class="cls-7" x1="217.54" y1="776.67" x2="217.84" y2="776.36"/><line class="cls-7" x1="206.91" y1="795.29" x2="209.47" y2="792.73"/><line class="cls-7" x1="210.45" y1="791.75" x2="210.45" y2="791.75"/><line class="cls-7" x1="211.51" y1="790.69" x2="214.52" y2="787.67"/><line class="cls-7" x1="215.5" y1="786.69" x2="215.5" y2="786.69"/><line class="cls-7" x1="216.48" y1="785.71" x2="219.5" y2="782.7"/><line class="cls-7" x1="220.48" y1="781.72" x2="220.48" y2="781.72"/><line class="cls-7" x1="221.53" y1="780.66" x2="224.55" y2="777.65"/><line class="cls-7" x1="225.53" y1="776.67" x2="225.53" y2="776.67"/><line class="cls-7" x1="215.5" y1="794.76" x2="218.52" y2="791.75"/><line class="cls-7" x1="219.5" y1="790.69" x2="219.5" y2="790.69"/><line class="cls-7" x1="220.48" y1="789.71" x2="223.49" y2="786.69"/><line class="cls-7" x1="224.55" y1="785.71" x2="224.55" y2="785.71"/><line class="cls-7" x1="225.53" y1="784.66" x2="228.55" y2="781.72"/><line class="cls-7" x1="229.53" y1="780.66" x2="229.53" y2="780.66"/><line class="cls-7" x1="230.58" y1="779.68" x2="233.52" y2="776.67"/><line class="cls-7" x1="223.49" y1="794.76" x2="223.49" y2="794.76"/><line class="cls-7" x1="224.55" y1="793.71" x2="227.57" y2="790.69"/><line class="cls-7" x1="228.55" y1="789.71" x2="228.55" y2="789.71"/><line class="cls-7" x1="229.53" y1="788.73" x2="232.54" y2="785.71"/><line class="cls-7" x1="233.52" y1="784.66" x2="233.52" y2="784.66"/><line class="cls-7" x1="234.58" y1="783.68" x2="237.59" y2="780.66"/><line class="cls-7" x1="238.57" y1="779.68" x2="238.57" y2="779.68"/><line class="cls-7" x1="239.55" y1="778.7" x2="241.89" y2="776.36"/><line class="cls-7" x1="230.96" y1="795.29" x2="231.56" y2="794.76"/><line class="cls-7" x1="232.54" y1="793.71" x2="232.54" y2="793.71"/><line class="cls-7" x1="233.52" y1="792.73" x2="236.54" y2="789.71"/><line class="cls-7" x1="237.59" y1="788.73" x2="237.59" y2="788.73"/><line class="cls-7" x1="238.57" y1="787.67" x2="241.59" y2="784.66"/><line class="cls-7" x1="242.57" y1="783.68" x2="242.57" y2="783.68"/><line class="cls-7" x1="243.55" y1="782.7" x2="246.57" y2="779.68"/><line class="cls-7" x1="247.62" y1="778.7" x2="247.62" y2="778.7"/><line class="cls-7" x1="248.6" y1="777.65" x2="249.88" y2="776.36"/><line class="cls-7" x1="239.03" y1="795.29" x2="240.61" y2="793.71"/><line class="cls-7" x1="241.59" y1="792.73" x2="241.59" y2="792.73"/><line class="cls-7" x1="242.57" y1="791.75" x2="245.59" y2="788.73"/><line class="cls-7" x1="246.57" y1="787.67" x2="246.57" y2="787.67"/><line class="cls-7" x1="247.62" y1="786.69" x2="250.64" y2="783.68"/><line class="cls-7" x1="251.62" y1="782.7" x2="251.62" y2="782.7"/><line class="cls-7" x1="252.6" y1="781.72" x2="255.61" y2="778.7"/><line class="cls-7" x1="256.59" y1="777.65" x2="256.59" y2="777.65"/><line class="cls-7" x1="257.65" y1="776.67" x2="257.95" y2="776.36"/><line class="cls-7" x1="247.02" y1="795.29" x2="249.58" y2="792.73"/><line class="cls-7" x1="250.64" y1="791.75" x2="250.64" y2="791.75"/><line class="cls-7" x1="251.62" y1="790.69" x2="254.63" y2="787.67"/><line class="cls-7" x1="255.61" y1="786.69" x2="255.61" y2="786.69"/><line class="cls-7" x1="256.59" y1="785.71" x2="259.61" y2="782.7"/><line class="cls-7" x1="260.67" y1="781.72" x2="260.67" y2="781.72"/><line class="cls-7" x1="261.65" y1="780.66" x2="264.66" y2="777.65"/><line class="cls-7" x1="265.64" y1="776.67" x2="265.64" y2="776.67"/><line class="cls-7" x1="255.61" y1="794.76" x2="258.63" y2="791.75"/><line class="cls-7" x1="259.61" y1="790.69" x2="259.61" y2="790.69"/><line class="cls-7" x1="260.67" y1="789.71" x2="263.68" y2="786.69"/><line class="cls-7" x1="264.66" y1="785.71" x2="264.66" y2="785.71"/><line class="cls-7" x1="265.64" y1="784.66" x2="268.66" y2="781.72"/><line class="cls-7" x1="269.64" y1="780.66" x2="269.64" y2="780.66"/><line class="cls-7" x1="270.69" y1="779.68" x2="273.71" y2="776.67"/><line class="cls-7" x1="263.68" y1="794.76" x2="263.68" y2="794.76"/><line class="cls-7" x1="264.66" y1="793.71" x2="267.68" y2="790.69"/><line class="cls-7" x1="268.66" y1="789.71" x2="268.66" y2="789.71"/><line class="cls-7" x1="269.64" y1="788.73" x2="272.65" y2="785.71"/><line class="cls-7" x1="273.71" y1="784.66" x2="273.71" y2="784.66"/><line class="cls-7" x1="274.69" y1="783.68" x2="277.71" y2="780.66"/><line class="cls-7" x1="278.69" y1="779.68" x2="278.69" y2="779.68"/><line class="cls-7" x1="279.67" y1="778.7" x2="279.82" y2="778.55"/><line class="cls-7" x1="271.15" y1="795.29" x2="271.67" y2="794.76"/><line class="cls-7" x1="272.65" y1="793.71" x2="272.65" y2="793.71"/><line class="cls-7" x1="273.71" y1="792.73" x2="276.73" y2="789.71"/><line class="cls-7" x1="277.71" y1="788.73" x2="277.71" y2="788.73"/><line class="cls-7" x1="278.69" y1="787.67" x2="279.82" y2="786.62"/><line class="cls-7" x1="279.14" y1="795.29" x2="279.82" y2="794.61"/><polyline class="cls-7" points="279.82 776.37 279.82 795.29 166.34 795.29 166.34 776.37 279.82 776.37"/></svg>