<svg id="_211" data-name="211" xmlns="http://www.w3.org/2000/svg" viewBox="0 0 341.8 911.43"><defs><style>.cls-1{isolation:isolate;font-size:12px;fill:#969696;}.cls-1,.cls-4,.cls-5,.cls-7{font-family:PTSans-Regular, PT Sans;}.cls-2{letter-spacing:-0.01em;}.cls-10,.cls-11,.cls-3,.cls-6,.cls-8,.cls-9{fill:none;stroke-linecap:round;stroke-linejoin:round;}.cls-3{stroke:#969696;stroke-width:0.75px;}.cls-4{font-size:40px;}.cls-5{font-size:40.54px;}.cls-10,.cls-11,.cls-6,.cls-8,.cls-9{stroke:#000;}.cls-6{stroke-width:0.5px;}.cls-7{font-size:36px;}.cls-10,.cls-8,.cls-9{stroke-width:0.25px;}.cls-9{stroke-dasharray:0.93 0.93;}.cls-10{stroke-dasharray:0.92 0.92;}</style></defs><title>9floor_211flat</title><text class="cls-1" transform="translate(162.78 10.2)"><tspan class="cls-2">у</tspan><tspan x="5.42" y="0">лица</tspan></text><line class="cls-3" x1="152.02" y1="4.22" x2="152.02" y2="13.02"/><polyline class="cls-3" points="155.52 7.72 152.02 4.22 148.52 7.72"/><text class="cls-4" transform="translate(120.53 341.9)">СТ</text><text class="cls-5" transform="translate(94.52 392.07)">28.92</text><text class="cls-4" transform="translate(89.89 291.99)">№211</text><polyline class="cls-6" points="80.88 402.88 80.88 253.81 205.2 253.81 205.2 402.88"/><line class="cls-6" x1="80.88" y1="303.59" x2="205.2" y2="303.59"/><line class="cls-6" x1="80.88" y1="402.88" x2="205.2" y2="402.88"/><line class="cls-6" x1="80.88" y1="353.38" x2="205.2" y2="353.38"/><text class="cls-7" transform="translate(96.78 185.55)">17.86</text><text class="cls-7" transform="translate(91.79 608.28)">2.38</text><text class="cls-7" transform="translate(191.96 750.45)">4.20</text><text class="cls-7" transform="translate(83.94 795.11)">4.48</text><line class="cls-8" x1="173.69" y1="730.94" x2="173.69" y2="731.4"/><line class="cls-9" x1="173.69" y1="732.33" x2="173.69" y2="787.85"/><line class="cls-8" x1="173.69" y1="788.32" x2="173.69" y2="788.78"/><line class="cls-8" x1="180.02" y1="730.94" x2="180.02" y2="731.4"/><line class="cls-9" x1="180.02" y1="732.33" x2="180.02" y2="787.85"/><line class="cls-8" x1="180.02" y1="788.32" x2="180.02" y2="788.78"/><line class="cls-8" x1="266.15" y1="671.7" x2="265.69" y2="671.7"/><line class="cls-10" x1="264.77" y1="671.7" x2="188.37" y2="671.7"/><line class="cls-8" x1="187.91" y1="671.7" x2="187.45" y2="671.7"/><line class="cls-8" x1="264.3" y1="656" x2="263.84" y2="656"/><line class="cls-10" x1="262.92" y1="656" x2="186.51" y2="656"/><line class="cls-8" x1="186.06" y1="656" x2="185.6" y2="656"/><line class="cls-8" x1="341.34" y1="701.4" x2="341.34" y2="701.86"/><line class="cls-10" x1="341.34" y1="702.78" x2="341.34" y2="779.18"/><line class="cls-8" x1="341.34" y1="779.64" x2="341.34" y2="780.1"/><line class="cls-11" x1="12.33" y1="98" x2="0.5" y2="98"/><line class="cls-11" x1="12.33" y1="114.57" x2="0.5" y2="114.57"/><line class="cls-11" x1="0.5" y1="114.57" x2="0.5" y2="130.31"/><line class="cls-11" x1="0.5" y1="88.59" x2="0.5" y2="98"/><line class="cls-11" x1="0.5" y1="130.31" x2="12.33" y2="130.31"/><line class="cls-11" x1="12.33" y1="88.59" x2="0.5" y2="88.59"/><polyline class="cls-11" points="0.5 103.58 0.5 98.83 0.5 103.58"/><polyline class="cls-11" points="0.5 98.83 0.5 98.83 0.5 98.83"/><polyline class="cls-11" points="0.5 88.59 0.5 98 0.5 98.83"/><polyline class="cls-11" points="0.5 103.58 0.5 114.57 0.5 130.31"/><line class="cls-11" x1="278.33" y1="98" x2="225.61" y2="98"/><line class="cls-11" x1="91.78" y1="98" x2="12.33" y2="98"/><line class="cls-11" x1="88.7" y1="114.57" x2="12.33" y2="114.57"/><line class="cls-11" x1="278.33" y1="114.57" x2="228.78" y2="114.57"/><line class="cls-11" x1="228.78" y1="114.57" x2="228.78" y2="130.31"/><line class="cls-11" x1="225.61" y1="88.59" x2="225.61" y2="98"/><line class="cls-11" x1="88.7" y1="114.57" x2="88.7" y2="130.31"/><line class="cls-11" x1="91.78" y1="88.59" x2="91.78" y2="98"/><line class="cls-11" x1="278.33" y1="114.57" x2="278.33" y2="130.31"/><line class="cls-11" x1="278.33" y1="88.59" x2="278.33" y2="98"/><line class="cls-11" x1="12.33" y1="130.31" x2="88.7" y2="130.31"/><line class="cls-11" x1="228.78" y1="130.31" x2="278.33" y2="130.31"/><line class="cls-11" x1="278.33" y1="88.59" x2="225.61" y2="88.59"/><line class="cls-11" x1="91.78" y1="88.59" x2="12.33" y2="88.59"/><polyline class="cls-11" points="225.62 88.59 91.78 88.59 91.78 84.67 225.62 84.67 225.62 88.59"/><line class="cls-11" x1="88.7" y1="130.31" x2="228.78" y2="130.31"/><polyline class="cls-11" points="88.7 103.58 93.03 103.58 93.03 100.42 94.94 100.42 94.94 98.83 88.7 98.83"/><polyline class="cls-11" points="158.74 98.83 155.57 98.83 155.57 100.42 157.49 100.42 157.49 103.58 158.74 103.58"/><line class="cls-11" x1="155.57" y1="98.83" x2="94.94" y2="98.83"/><polyline class="cls-11" points="93.03 105.08 97.69 105.08 152.82 105.08"/><polyline class="cls-11" points="97.69 105.08 97.69 100.42 93.03 100.42 93.03 105.08"/><polyline class="cls-11" points="157.49 100.42 152.82 100.42 152.82 105.08 157.49 105.08 157.49 100.42"/><line class="cls-11" x1="152.83" y1="100.42" x2="97.69" y2="100.42"/><line class="cls-11" x1="97.69" y1="105.08" x2="152.83" y2="105.08"/><line class="cls-11" x1="97.69" y1="102.75" x2="152.83" y2="102.75"/><polyline class="cls-11" points="158.74 103.58 159.9 103.58 159.9 100.42 161.82 100.42 161.82 98.83 158.74 98.83"/><polyline class="cls-11" points="228.78 98.83 222.45 98.83 222.45 100.42 224.45 100.42 224.45 103.58 228.78 103.58"/><line class="cls-11" x1="222.45" y1="98.83" x2="161.82" y2="98.83"/><polyline class="cls-11" points="159.9 105.08 164.57 105.08 219.7 105.08"/><polyline class="cls-11" points="164.57 105.08 164.57 100.42 159.9 100.42 159.9 105.08"/><polyline class="cls-11" points="224.45 100.42 219.7 100.42 219.7 105.08 224.45 105.08 224.45 100.42"/><line class="cls-11" x1="219.7" y1="100.42" x2="164.57" y2="100.42"/><line class="cls-11" x1="164.57" y1="105.08" x2="219.7" y2="105.08"/><line class="cls-11" x1="164.57" y1="102.75" x2="219.7" y2="102.75"/><polyline class="cls-11" points="88.7 103.58 88.7 98.83 88.7 103.58"/><polyline class="cls-11" points="88.7 98.83 91.78 98.83 88.7 98.83"/><polyline class="cls-11" points="91.78 88.59 91.78 98 91.78 98.83"/><polyline class="cls-11" points="88.7 103.58 88.7 114.57 88.7 130.31"/><polyline class="cls-11" points="228.78 103.58 228.78 98.83 228.78 103.58"/><polyline class="cls-11" points="228.78 98.83 225.62 98.83 228.78 98.83"/><polyline class="cls-11" points="225.62 88.59 225.62 98 225.62 98.83"/><polyline class="cls-11" points="228.78 103.58 228.78 114.57 228.78 130.31"/><polyline class="cls-11" points="278.33 103.58 278.33 98.83 278.33 103.58"/><polyline class="cls-11" points="278.33 98.83 278.33 98.83 278.33 98.83"/><polyline class="cls-11" points="278.33 88.59 278.33 98 278.33 98.83"/><polyline class="cls-11" points="278.33 103.58 278.33 114.57 278.33 130.31"/><polyline class="cls-11" points="262.59 130.31 262.59 656 278.33 656 278.33 130.31 262.59 130.31"/><polyline class="cls-11" points="262.59 895.19 24.15 895.19 24.15 910.93 278.33 910.93"/><line class="cls-11" x1="179.98" y1="788.17" x2="173.65" y2="788.17"/><line class="cls-11" x1="179.98" y1="733.12" x2="173.65" y2="733.12"/><line class="cls-11" x1="173.65" y1="671.74" x2="173.65" y2="703.22"/><line class="cls-11" x1="173.65" y1="709.47" x2="173.65" y2="733.12"/><polyline class="cls-11" points="173.65 788.17 173.65 895.19 179.97 895.19 179.97 788.17"/><polyline class="cls-11" points="179.97 733.12 179.97 671.74 173.65 671.74"/><polyline class="cls-11" points="85.53 703.22 85.53 671.74 79.2 671.74 79.2 703.22"/><line class="cls-11" x1="262.59" y1="656" x2="262.59" y2="671.74"/><line class="cls-11" x1="191.72" y1="656" x2="191.72" y2="671.74"/><polyline class="cls-11" points="262.59 656 341.3 656 341.3 679.93"/><line class="cls-11" x1="191.72" y1="656" x2="24.15" y2="656"/><line class="cls-11" x1="24.15" y1="671.74" x2="191.72" y2="671.74"/><line class="cls-11" x1="262.59" y1="671.74" x2="341.3" y2="671.74"/><polyline class="cls-11" points="43.81 709.47 43.81 706.3 43.81 703.22"/><polyline class="cls-11" points="75.29 709.47 75.29 706.3 75.29 703.22"/><line class="cls-11" x1="173.65" y1="703.22" x2="85.53" y2="703.22"/><line class="cls-11" x1="79.2" y1="703.22" x2="75.29" y2="703.22"/><polyline class="cls-11" points="43.81 703.22 24.15 703.22 24.15 709.47 43.81 709.47"/><line class="cls-11" x1="75.29" y1="709.47" x2="173.65" y2="709.47"/><line class="cls-11" x1="75.29" y1="709.47" x2="43.81" y2="709.47"/><line class="cls-11" x1="75.29" y1="703.22" x2="43.81" y2="703.22"/><path class="cls-11" d="M73.15,748.6A31.53,31.53,0,0,0,75,737.85" transform="translate(0.25 -28.34)"/><line class="cls-11" x1="43.81" y1="709.47" x2="73.37" y2="720.29"/><polyline class="cls-11" points="75.29 703.22 75.29 706.3 75.29 709.47 75.29 706.3"/><polyline class="cls-11" points="43.81 703.22 43.81 706.3 43.81 709.47 43.81 706.3"/><polyline class="cls-11" points="341.3 791.33 262.59 791.33 262.59 807.07 341.3 807.07 341.3 788.78"/><polyline class="cls-11" points="325.56 777.92 334.97 777.92 341.3 777.92"/><polyline class="cls-11" points="325.56 671.74 325.56 699.22 334.97 699.22 341.3 699.22"/><polyline class="cls-11" points="325.56 777.92 325.56 791.33 341.3 791.33 341.3 777.92"/><polyline class="cls-11" points="341.3 699.22 341.3 671.74 325.56 671.74"/><path class="cls-11" d="M334.76,730.81a72.41,72.41,0,0,0-72.41,72.42" transform="translate(0.25 -28.34)"/><polyline class="cls-11" points="341.3 699.22 341.3 702.39 334.97 702.39 334.97 699.22 341.3 699.22"/><polyline class="cls-11" points="334.97 777.92 334.97 774.84 341.3 774.84 341.3 777.92 334.97 777.92"/><line class="cls-11" x1="334.97" y1="774.84" x2="262.59" y2="774.84"/><polyline class="cls-11" points="341.3 699.22 334.97 699.22 341.3 699.22"/><line class="cls-11" x1="325.55" y1="699.22" x2="334.97" y2="699.22"/><polyline class="cls-11" points="341.3 777.92 334.97 777.92 341.3 777.92"/><line class="cls-11" x1="325.55" y1="777.92" x2="334.97" y2="777.92"/><line class="cls-11" x1="262.59" y1="807.07" x2="262.59" y2="895.19"/><polyline class="cls-11" points="278.33 910.93 278.33 895.19 278.33 807.07 262.59 807.07"/><line class="cls-11" x1="30.98" y1="843.3" x2="30.98" y2="883.44"/><line class="cls-11" x1="35.4" y1="888.19" x2="132.84" y2="888.19"/><line class="cls-11" x1="35.4" y1="838.56" x2="132.84" y2="838.56"/><line class="cls-11" x1="160.32" y1="892.86" x2="26.48" y2="892.86"/><polyline class="cls-11" points="160.32 892.86 160.32 833.89 26.48 833.89 26.48 892.86"/><line class="cls-11" x1="117.18" y1="846.8" x2="40.98" y2="846.8"/><line class="cls-11" x1="38.73" y1="849.13" x2="38.73" y2="877.61"/><line class="cls-11" x1="117.18" y1="879.95" x2="40.98" y2="879.95"/><line class="cls-11" x1="54.38" y1="861.96" x2="54.38" y2="859.04"/><line class="cls-11" x1="52.97" y1="863.37" x2="50.22" y2="863.37"/><line class="cls-11" x1="54.38" y1="864.79" x2="54.38" y2="867.7"/><line class="cls-11" x1="55.72" y1="863.37" x2="58.47" y2="863.37"/><path class="cls-11" d="M132.63,916.53c13,0,23.45-11.09,23.45-24.77S145.58,867,132.63,867" transform="translate(0.25 -28.34)"/><path class="cls-11" d="M30.74,911.83a4.58,4.58,0,0,0,4.45,4.7" transform="translate(0.25 -28.34)"/><path class="cls-11" d="M35.19,867a4.58,4.58,0,0,0-4.45,4.7" transform="translate(0.25 -28.34)"/><path class="cls-11" d="M54.18,889.3a2.46,2.46,0,1,0,2.29,2.46,2.38,2.38,0,0,0-2.29-2.46" transform="translate(0.25 -28.34)"/><path class="cls-11" d="M117,908.37c8.62,0,15.61-7.44,15.61-16.61s-7-16.62-15.61-16.62" transform="translate(0.25 -28.34)"/><path class="cls-11" d="M40.77,875.14a2.29,2.29,0,0,0-2.21,2.37" transform="translate(0.25 -28.34)"/><path class="cls-11" d="M38.56,906a2.29,2.29,0,0,0,2.21,2.37" transform="translate(0.25 -28.34)"/><path class="cls-11" d="M54.18,888.47a3.29,3.29,0,1,0,3.12,3.29,3.2,3.2,0,0,0-3.12-3.29" transform="translate(0.25 -28.34)"/><polyline class="cls-11" points="44.47 791.33 26.48 791.33 26.48 833.89 44.47 833.89"/><line class="cls-11" x1="26.48" y1="819.32" x2="26.48" y2="805.91"/><line class="cls-11" x1="40.89" y1="816.15" x2="40.89" y2="813.9"/><line class="cls-11" x1="37.31" y1="812.57" x2="39.64" y2="812.57"/><line class="cls-11" x1="40.89" y1="811.32" x2="40.89" y2="808.99"/><line class="cls-11" x1="42.22" y1="812.57" x2="44.47" y2="812.57"/><path class="cls-11" d="M45.39,822.33a18.88,18.88,0,0,0-9,7.35" transform="translate(0.25 -28.34)"/><path class="cls-11" d="M36.45,829.68A19,19,0,0,0,33.79,841" transform="translate(0.25 -28.34)"/><path class="cls-11" d="M36.43,852.31a18.93,18.93,0,0,0,9,7.35" transform="translate(0.25 -28.34)"/><path class="cls-11" d="M33.79,841a19.07,19.07,0,0,0,2.66,11.3" transform="translate(0.25 -28.34)"/><path class="cls-11" d="M58.46,839.47A34.91,34.91,0,0,0,55,826.58" transform="translate(0.25 -28.34)"/><path class="cls-11" d="M44.31,862.22a10.79,10.79,0,0,0,8.87-4" transform="translate(0.25 -28.34)"/><path class="cls-11" d="M58.5,842.52a21,21,0,0,0,0-3" transform="translate(0.25 -28.34)"/><path class="cls-11" d="M37.15,829.06a77.71,77.71,0,0,0,0,23.78" transform="translate(0.25 -28.34)"/><path class="cls-11" d="M29.71,855.12a26.67,26.67,0,0,0,17.35,6" transform="translate(0.25 -28.34)"/><path class="cls-11" d="M27.16,841a52.78,52.78,0,0,0,1.31,12.15" transform="translate(0.25 -28.34)"/><path class="cls-11" d="M28.49,853.14a3.58,3.58,0,0,0,1.21,2" transform="translate(0.25 -28.34)"/><path class="cls-11" d="M28.82,841a90.57,90.57,0,0,0,.86,12" transform="translate(0.25 -28.34)"/><path class="cls-11" d="M30.88,855.15a24.06,24.06,0,0,0,16.2,6" transform="translate(0.25 -28.34)"/><path class="cls-11" d="M29.69,853a3.53,3.53,0,0,0,1.16,2.16" transform="translate(0.25 -28.34)"/><path class="cls-11" d="M47.05,820.84a24.08,24.08,0,0,0-16.2,6" transform="translate(0.25 -28.34)"/><path class="cls-11" d="M47,820.84a26.65,26.65,0,0,0-17.34,6" transform="translate(0.25 -28.34)"/><path class="cls-11" d="M29.67,829a90.56,90.56,0,0,0-.85,12" transform="translate(0.25 -28.34)"/><path class="cls-11" d="M28.45,828.85A53.46,53.46,0,0,0,27.16,841" transform="translate(0.25 -28.34)"/><path class="cls-11" d="M30.85,826.89a3.48,3.48,0,0,0-1.16,2.17" transform="translate(0.25 -28.34)"/><path class="cls-11" d="M29.7,826.89a3.52,3.52,0,0,0-1.21,2" transform="translate(0.25 -28.34)"/><path class="cls-11" d="M53.18,823.79a10.76,10.76,0,0,0-8.87-4" transform="translate(0.25 -28.34)"/><path class="cls-11" d="M55,826.63a17,17,0,0,0-1.84-2.83" transform="translate(0.25 -28.34)"/><path class="cls-11" d="M53.2,858.27A17,17,0,0,0,55,855.44" transform="translate(0.25 -28.34)"/><path class="cls-11" d="M55,855.41a34.91,34.91,0,0,0,3.51-12.89" transform="translate(0.25 -28.34)"/><path class="cls-11" d="M55.52,846.89a24.92,24.92,0,0,0,0-11.71" transform="translate(0.25 -28.34)"/><path class="cls-11" d="M50.67,824.55a6.39,6.39,0,0,0-5.26-2.2" transform="translate(0.25 -28.34)"/><path class="cls-11" d="M55.45,835.12a23,23,0,0,0-4.85-10.58" transform="translate(0.25 -28.34)"/><path class="cls-11" d="M45.41,859.63a6.36,6.36,0,0,0,5.26-2.19" transform="translate(0.25 -28.34)"/><path class="cls-11" d="M50.6,857.45a23,23,0,0,0,4.85-10.58" transform="translate(0.25 -28.34)"/><path class="cls-11" d="M40.69,843.74A2.79,2.79,0,1,0,37.9,841a2.79,2.79,0,0,0,2.79,2.79" transform="translate(0.25 -28.34)"/><path class="cls-11" d="M40.69,842.91a2,2,0,1,0-2-2,2,2,0,0,0,2,2" transform="translate(0.25 -28.34)"/><line class="cls-11" x1="38.64" y1="731.12" x2="66.38" y2="731.12"/><polyline class="cls-11" points="36.9 729.95 26.48 729.95 26.48 759.85"/><line class="cls-11" x1="43.47" y1="744.86" x2="43.47" y2="756.02"/><polyline class="cls-11" points="66.38 731.12 43.47 733.78 43.47 744.86"/><line class="cls-11" x1="66.38" y1="758.69" x2="43.47" y2="756.02"/><line class="cls-11" x1="66.38" y1="731.87" x2="43.47" y2="734.53"/><line class="cls-11" x1="66.38" y1="757.94" x2="43.47" y2="755.27"/><line class="cls-11" x1="38.56" y1="758.69" x2="66.38" y2="758.69"/><line class="cls-11" x1="26.48" y1="759.85" x2="36.89" y2="759.85"/><polyline class="cls-11" points="66.38 731.12 69.46 731.54 72.29 732.7 74.87 734.62 76.95 737.03 78.37 740.03 79.12 743.28 79.12 746.53 78.37 749.77 76.95 752.77 74.87 755.19 72.29 757.1 69.46 758.27 66.38 758.69"/><polyline class="cls-11" points="66.38 731.87 69.29 732.2 72.04 733.37 74.46 735.12 76.37 737.45 77.7 740.28 78.45 743.36 78.45 746.44 77.7 749.52 76.37 752.36 74.46 754.69 72.04 756.44 69.29 757.6 66.38 757.94"/><path class="cls-11" d="M38.44,786.64a127.8,127.8,0,0,0,0-26.81" transform="translate(0.25 -28.34)"/><path class="cls-11" d="M38.47,759.9a1.76,1.76,0,0,0-1.78-1.52" transform="translate(0.25 -28.34)"/><path class="cls-11" d="M36.69,788.19a1.75,1.75,0,0,0,1.78-1.53" transform="translate(0.25 -28.34)"/><path class="cls-11" d="M34.32,773.24a1.46,1.46,0,1,0-1.46,1.46,1.46,1.46,0,0,0,1.46-1.46" transform="translate(0.25 -28.34)"/><polyline class="cls-11" points="71.37 608.78 28.07 608.78 28.07 652 71.37 652 71.37 608.78"/><polyline class="cls-11" points="67.46 612.69 31.98 612.69 31.98 644.17 67.46 644.17 67.46 612.69"/><polyline class="cls-11" points="224.78 86.59 224.78 43.37 225.2 43.37 225.2 86.59 224.78 86.59"/><polyline class="cls-11" points="223.62 42.2 151.24 42.2 151.24 41.78 223.62 41.78 223.62 42.2"/><polyline class="cls-11" points="150.08 43.37 150.08 86.59 149.66 86.59 149.66 43.37 150.08 43.37"/><polyline class="cls-11" points="223.62 88.59 223.62 86.59 225.62 86.59 225.62 88.59 223.62 88.59"/><polyline class="cls-11" points="223.62 43.37 223.62 41.37 225.62 41.37 225.62 43.37 223.62 43.37"/><polyline class="cls-11" points="151.24 43.37 149.24 43.37 149.24 41.37 151.24 41.37 151.24 43.37"/><polyline class="cls-11" points="151.24 86.59 151.24 88.59 149.24 88.59 149.24 86.59 151.24 86.59"/><line class="cls-11" x1="223.62" y1="87.59" x2="223.62" y2="43.37"/><line class="cls-11" x1="225.61" y1="41.37" x2="225.61" y2="87.59"/><line class="cls-11" x1="223.62" y1="43.37" x2="151.24" y2="43.37"/><line class="cls-11" x1="149.24" y1="41.37" x2="225.61" y2="41.37"/><line class="cls-11" x1="151.24" y1="43.37" x2="151.24" y2="87.59"/><line class="cls-11" x1="149.24" y1="87.59" x2="149.24" y2="41.37"/><polyline class="cls-11" points="225.62 87.59 225.62 88.59 223.62 88.59 223.62 87.59"/><polyline class="cls-11" points="151.24 87.59 151.24 88.59 149.24 88.59 149.24 87.59"/><polyline class="cls-11" points="149.24 41.37 225.62 41.37 225.62 87.59 223.62 87.59 223.62 43.37 151.24 43.37 151.24 87.59 149.24 87.59 149.24 41.37"/><polyline class="cls-11" points="153.16 55.53 221.7 55.53 221.7 80.76 153.16 80.76 153.16 55.53"/><polyline class="cls-11" points="153.16 58.02 221.7 58.02 221.7 80.76 153.16 80.76 153.16 58.02"/><polyline class="cls-11" points="0.5 130.31 0.5 910.93 232.13 910.93"/><line class="cls-11" x1="0.5" y1="737.78" x2="0.5" y2="903.1"/><line class="cls-11" x1="24.15" y1="910.93" x2="24.15" y2="671.74"/><polyline class="cls-11" points="24.15 656 24.15 130.31 0.5 130.31"/></svg>