<svg id="_703" data-name="703" xmlns="http://www.w3.org/2000/svg" viewBox="0 0 344.12 726.4"><defs><style>.cls-1{isolation:isolate;font-size:12px;fill:#969696;}.cls-1,.cls-4,.cls-5,.cls-7{font-family:PTSans-Regular, PT Sans;}.cls-2{letter-spacing:-0.01em;}.cls-10,.cls-11,.cls-3,.cls-6,.cls-8,.cls-9{fill:none;stroke-linecap:round;stroke-linejoin:round;}.cls-3{stroke:#969696;stroke-width:0.75px;}.cls-4{font-size:40.03px;}.cls-5{font-size:40.57px;}.cls-10,.cls-11,.cls-6,.cls-8,.cls-9{stroke:#000;}.cls-11,.cls-6{stroke-width:0.5px;}.cls-7{font-size:36.03px;}.cls-8,.cls-9{stroke-width:0.25px;}.cls-9{stroke-dasharray:1.01 1.01;}.cls-11{stroke-dasharray:3 3;}</style></defs><title>7floor_703flat</title><text class="cls-1" transform="translate(163.92 723.46)"><tspan class="cls-2">у</tspan><tspan x="5.42" y="0">лица</tspan></text><line class="cls-3" x1="153.16" y1="725.28" x2="153.16" y2="716.48"/><polyline class="cls-3" points="149.66 721.78 153.16 725.28 156.66 721.78"/><text class="cls-4" transform="translate(149.59 445.71)">СТ</text><text class="cls-5" transform="translate(123.57 495.92)">22.53</text><text class="cls-4" transform="translate(118.92 395.76)">№703</text><polyline class="cls-6" points="109.91 506.74 109.91 357.54 234.33 357.54 234.33 506.74"/><line class="cls-6" x1="109.91" y1="407.37" x2="234.33" y2="407.37"/><line class="cls-6" x1="109.91" y1="506.74" x2="234.33" y2="506.74"/><line class="cls-6" x1="109.91" y1="457.2" x2="234.33" y2="457.2"/><text class="cls-7" transform="translate(201.28 154.32)">3.57</text><text class="cls-7" transform="translate(52.07 132.81)">4.49</text><text class="cls-7" transform="translate(187.07 324.3)">2.20</text><text class="cls-7" transform="translate(129 556.25)">12.27</text><line class="cls-8" x1="64.56" y1="0.13" x2="65.06" y2="0.13"/><line class="cls-9" x1="66.07" y1="0.13" x2="148.38" y2="0.13"/><line class="cls-8" x1="148.89" y1="0.13" x2="149.39" y2="0.13"/><line class="cls-8" x1="58.86" y1="206.42" x2="59.36" y2="206.42"/><line class="cls-9" x1="60.37" y1="206.42" x2="142.68" y2="206.42"/><line class="cls-8" x1="143.18" y1="206.42" x2="143.68" y2="206.42"/><line class="cls-8" x1="58.86" y1="199.34" x2="59.36" y2="199.34"/><line class="cls-9" x1="60.37" y1="199.34" x2="142.68" y2="199.34"/><line class="cls-8" x1="143.18" y1="199.34" x2="143.68" y2="199.34"/><line class="cls-8" x1="175.18" y1="171.59" x2="175.18" y2="171.09"/><line class="cls-9" x1="175.18" y1="170.08" x2="175.18" y2="87.77"/><line class="cls-8" x1="175.18" y1="87.27" x2="175.18" y2="86.77"/><line class="cls-8" x1="168.1" y1="171.59" x2="168.1" y2="171.09"/><line class="cls-9" x1="168.1" y1="170.08" x2="168.1" y2="87.77"/><line class="cls-8" x1="168.1" y1="87.27" x2="168.1" y2="86.77"/><line class="cls-10" x1="258.05" y1="623.97" x2="258.05" y2="615.15"/><line class="cls-10" x1="84.29" y1="623.97" x2="84.29" y2="615.15"/><line class="cls-10" x1="258.05" y1="624.9" x2="258.05" y2="623.97"/><line class="cls-10" x1="84.29" y1="624.9" x2="84.29" y2="623.97"/><line class="cls-10" x1="258.99" y1="624.9" x2="258.05" y2="624.9"/><line class="cls-10" x1="83.44" y1="624.9" x2="84.29" y2="624.9"/><polyline class="cls-10" points="261.61 615.15 261.61 609.8 261.61 593"/><polyline class="cls-10" points="80.72 615.15 80.72 609.8 80.72 593"/><line class="cls-10" x1="343.62" y1="593" x2="261.61" y2="593"/><line class="cls-10" x1="80.72" y1="593" x2="0.5" y2="593"/><line class="cls-10" x1="0.5" y1="624.9" x2="83.44" y2="624.9"/><line class="cls-10" x1="258.99" y1="624.9" x2="343.62" y2="624.9"/><polyline class="cls-10" points="258.05 624.9 84.28 624.9 84.28 629.31 258.05 629.31 258.05 624.9"/><line class="cls-10" x1="80.72" y1="593" x2="261.61" y2="593"/><polyline class="cls-10" points="80.72 609.8 85.6 609.8 85.6 613.36 87.85 613.36 87.85 615.15 80.72 615.15"/><polyline class="cls-10" points="142.27 615.15 138.7 615.15 138.7 613.36 140.86 613.36 140.86 609.8 142.27 609.8"/><line class="cls-10" x1="138.7" y1="615.15" x2="87.85" y2="615.15"/><polyline class="cls-10" points="85.6 608.01 90.95 608.01 135.61 608.01"/><polyline class="cls-10" points="90.95 608.01 90.95 613.36 85.6 613.36 85.6 608.01"/><polyline class="cls-10" points="140.86 613.36 135.61 613.36 135.61 608.01 140.86 608.01 140.86 613.36"/><line class="cls-10" x1="135.61" y1="613.36" x2="90.95" y2="613.36"/><line class="cls-10" x1="90.95" y1="608.02" x2="135.61" y2="608.02"/><line class="cls-10" x1="90.95" y1="610.64" x2="135.61" y2="610.64"/><polyline class="cls-10" points="142.27 609.8 143.58 609.8 143.58 613.36 145.74 613.36 145.74 615.15 142.27 615.15"/><polyline class="cls-10" points="200.16 615.15 196.59 615.15 196.59 613.36 198.84 613.36 198.84 609.8 200.16 609.8"/><line class="cls-10" x1="196.59" y1="615.15" x2="145.74" y2="615.15"/><polyline class="cls-10" points="143.58 608.01 148.84 608.01 193.5 608.01"/><polyline class="cls-10" points="148.84 608.01 148.84 613.36 143.58 613.36 143.58 608.01"/><polyline class="cls-10" points="198.84 613.36 193.5 613.36 193.5 608.01 198.84 608.01 198.84 613.36"/><line class="cls-10" x1="193.5" y1="613.36" x2="148.84" y2="613.36"/><line class="cls-10" x1="148.84" y1="608.02" x2="193.5" y2="608.02"/><line class="cls-10" x1="148.84" y1="610.64" x2="193.5" y2="610.64"/><polyline class="cls-10" points="200.16 609.8 201.47 609.8 201.47 613.36 203.72 613.36 203.72 615.15 200.16 615.15"/><polyline class="cls-10" points="261.61 615.15 254.48 615.15 254.48 613.36 256.74 613.36 256.74 609.8 261.61 609.8"/><line class="cls-10" x1="254.48" y1="615.15" x2="203.72" y2="615.15"/><polyline class="cls-10" points="201.47 608.01 206.82 608.01 251.39 608.01"/><polyline class="cls-10" points="206.82 608.01 206.82 613.36 201.47 613.36 201.47 608.01"/><polyline class="cls-10" points="256.74 613.36 251.39 613.36 251.39 608.01 256.74 608.01 256.74 613.36"/><line class="cls-10" x1="251.39" y1="613.36" x2="206.82" y2="613.36"/><line class="cls-10" x1="206.82" y1="608.02" x2="251.39" y2="608.02"/><line class="cls-10" x1="206.82" y1="610.64" x2="251.39" y2="610.64"/><polyline class="cls-10" points="80.72 593 80.72 609.8 80.72 615.15 80.72 609.8"/><polyline class="cls-10" points="261.61 593 261.61 609.8 261.61 615.15 261.61 609.8"/><line class="cls-10" x1="84.29" y1="624.9" x2="84.29" y2="623.97"/><polyline class="cls-10" points="84.28 615.15 83.44 615.15 84.28 615.15"/><polyline class="cls-10" points="83.44 615.15 80.72 615.15 83.44 615.15"/><line class="cls-10" x1="258.05" y1="624.9" x2="258.05" y2="623.97"/><polyline class="cls-10" points="258.05 615.15 258.99 615.15 258.05 615.15"/><polyline class="cls-10" points="258.99 615.15 261.61 615.15 258.99 615.15"/><line class="cls-10" x1="84.29" y1="623.97" x2="84.29" y2="615.15"/><line class="cls-10" x1="258.05" y1="623.97" x2="258.05" y2="615.15"/><line class="cls-10" x1="343.62" y1="593" x2="343.62" y2="593"/><polyline class="cls-10" points="343.62 624.9 343.62 624.9 343.62 474.53"/><polyline class="cls-10" points="343.62 173.61 343.62 173.61 343.62 190.03"/><polyline class="cls-10" points="343.62 77.91 343.62 77.91 343.62 173.61"/><line class="cls-10" x1="343.62" y1="173.61" x2="343.62" y2="173.61"/><line class="cls-10" x1="343.62" y1="190.03" x2="343.62" y2="243.22"/><polyline class="cls-10" points="343.62 386.4 343.62 386.4 343.62 412.95"/><line class="cls-10" x1="343.62" y1="412.95" x2="343.62" y2="412.95"/><polyline class="cls-10" points="343.62 359.75 343.62 359.75 343.62 386.4"/><line class="cls-10" x1="343.62" y1="386.4" x2="343.62" y2="386.4"/><polyline class="cls-10" points="343.62 333.2 343.62 333.2 343.62 359.75"/><line class="cls-10" x1="343.62" y1="359.76" x2="343.62" y2="359.76"/><polyline class="cls-10" points="343.62 306.65 343.62 306.65 343.62 333.2"/><line class="cls-10" x1="343.62" y1="333.2" x2="343.62" y2="333.2"/><polyline class="cls-10" points="343.62 280 343.62 280 343.62 306.65"/><line class="cls-10" x1="343.62" y1="306.65" x2="343.62" y2="306.65"/><polyline class="cls-10" points="343.62 253.45 343.62 253.45 343.62 280"/><line class="cls-10" x1="343.62" y1="280" x2="343.62" y2="280"/><line class="cls-10" x1="343.62" y1="253.45" x2="343.62" y2="253.45"/><polyline class="cls-10" points="343.62 226.81 343.62 226.81 343.62 253.45"/><polyline class="cls-10" points="343.62 253.45 343.62 200.25 343.62 226.81 343.62 226.81"/><polyline class="cls-10" points="343.62 60.17 343.62 60.17 343.62 77.91"/><line class="cls-10" x1="343.62" y1="77.91" x2="343.62" y2="77.91"/><line class="cls-10" x1="168.07" y1="160.28" x2="175.2" y2="160.28"/><line class="cls-10" x1="168.07" y1="98.27" x2="175.2" y2="98.27"/><line class="cls-10" x1="175.2" y1="241.91" x2="175.2" y2="206.45"/><line class="cls-10" x1="175.2" y1="199.31" x2="175.2" y2="160.28"/><polyline class="cls-10" points="175.2 98.27 175.2 18.52 168.07 18.52 168.07 98.27"/><line class="cls-10" x1="168.07" y1="160.28" x2="168.07" y2="199.31"/><polyline class="cls-10" points="168.07 206.44 168.07 248.95 175.2 248.95"/><line class="cls-10" x1="142.36" y1="199.31" x2="142.36" y2="206.45"/><line class="cls-10" x1="62.61" y1="199.31" x2="62.61" y2="206.45"/><polyline class="cls-10" points="325.88 199.31 325.88 202.88 325.88 206.44"/><polyline class="cls-10" points="290.42 199.31 290.42 202.88 290.42 206.44"/><line class="cls-10" x1="18.23" y1="206.45" x2="62.61" y2="206.45"/><line class="cls-10" x1="142.36" y1="206.45" x2="168.07" y2="206.45"/><line class="cls-10" x1="175.2" y1="206.45" x2="278.88" y2="206.45"/><line class="cls-10" x1="286.01" y1="206.45" x2="290.42" y2="206.45"/><polyline class="cls-10" points="325.88 206.44 330.29 206.44 330.29 199.31 325.88 199.31"/><line class="cls-10" x1="290.42" y1="199.31" x2="175.2" y2="199.31"/><line class="cls-10" x1="168.07" y1="199.31" x2="142.36" y2="199.31"/><polyline class="cls-10" points="62.61 199.31 18.23 199.31 18.23 206.44"/><line class="cls-10" x1="290.42" y1="199.31" x2="325.88" y2="199.31"/><line class="cls-10" x1="290.42" y1="206.45" x2="325.88" y2="206.45"/><path class="cls-10" d="M291.87,187a35.46,35.46,0,0,0-2.13,12.11" transform="translate(0.78 0.13)"/><line class="cls-10" x1="325.88" y1="199.31" x2="292.58" y2="187.21"/><polyline class="cls-10" points="290.42 206.44 290.42 202.88 290.42 199.31 290.42 202.88"/><polyline class="cls-10" points="325.88 206.44 325.88 202.88 325.88 199.31 325.88 202.88"/><line class="cls-10" x1="278.88" y1="206.45" x2="278.88" y2="241.91"/><line class="cls-10" x1="286.01" y1="241.91" x2="286.01" y2="206.45"/><polyline class="cls-10" points="175.2 248.95 330.29 248.95 330.29 241.91 286.01 241.91"/><line class="cls-10" x1="278.88" y1="241.91" x2="175.2" y2="241.91"/><polyline class="cls-10" points="330.29 0.78 343.62 0.78 343.62 0.78"/><line class="cls-10" x1="343.62" y1="11.38" x2="343.62" y2="11.38"/><polyline class="cls-10" points="173.42 627.06 173.42 675.85 172.95 675.85 172.95 627.06 173.42 627.06"/><polyline class="cls-10" points="174.73 677.16 256.27 677.16 256.27 677.63 174.73 677.63 174.73 677.16"/><polyline class="cls-10" points="257.58 675.85 257.58 627.06 258.05 627.06 258.05 675.85 257.58 675.85"/><polyline class="cls-10" points="174.73 624.9 174.73 627.06 172.48 627.06 172.48 624.9 174.73 624.9"/><polyline class="cls-10" points="174.73 675.85 174.73 678.1 172.48 678.1 172.48 675.85 174.73 675.85"/><polyline class="cls-10" points="256.27 675.85 258.52 675.85 258.52 678.1 256.27 678.1 256.27 675.85"/><polyline class="cls-10" points="256.27 627.06 256.27 624.9 258.52 624.9 258.52 627.06 256.27 627.06"/><line class="cls-10" x1="174.73" y1="625.94" x2="174.73" y2="675.85"/><line class="cls-10" x1="172.48" y1="678.1" x2="172.48" y2="625.94"/><line class="cls-10" x1="174.73" y1="675.85" x2="256.27" y2="675.85"/><line class="cls-10" x1="258.52" y1="678.1" x2="172.48" y2="678.1"/><line class="cls-10" x1="256.27" y1="675.85" x2="256.27" y2="625.94"/><line class="cls-10" x1="258.52" y1="625.94" x2="258.52" y2="678.1"/><polyline class="cls-10" points="172.48 625.94 172.48 624.9 174.73 624.9 174.73 625.94"/><polyline class="cls-10" points="256.27 625.94 256.27 624.9 258.52 624.9 258.52 625.94"/><polyline class="cls-10" points="258.52 678.1 172.48 678.1 172.48 625.94 174.73 625.94 174.73 675.85 256.27 675.85 256.27 625.94 258.52 625.94 258.52 678.1"/><polyline class="cls-10" points="254.11 662.15 176.98 662.15 176.98 633.72 254.11 633.72 254.11 662.15"/><polyline class="cls-10" points="254.11 659.24 176.98 659.24 176.98 633.72 254.11 633.72 254.11 659.24"/><line class="cls-10" x1="323.54" y1="30.9" x2="323.54" y2="76.12"/><line class="cls-10" x1="318.47" y1="81.47" x2="208.79" y2="81.47"/><line class="cls-10" x1="318.47" y1="25.55" x2="208.79" y2="25.55"/><line class="cls-10" x1="177.83" y1="86.73" x2="328.51" y2="86.73"/><polyline class="cls-10" points="177.83 86.72 177.83 20.3 328.51 20.3 328.51 86.72"/><line class="cls-10" x1="226.43" y1="34.84" x2="312.28" y2="34.84"/><line class="cls-10" x1="314.81" y1="37.47" x2="314.81" y2="69.56"/><line class="cls-10" x1="226.43" y1="72.18" x2="312.28" y2="72.18"/><line class="cls-10" x1="297.17" y1="51.92" x2="297.17" y2="48.63"/><line class="cls-10" x1="298.67" y1="53.51" x2="301.77" y2="53.51"/><line class="cls-10" x1="297.17" y1="55.11" x2="297.17" y2="58.39"/><line class="cls-10" x1="295.58" y1="53.51" x2="292.48" y2="53.51"/><path class="cls-10" d="M208.06,25.43c-14.59,0-26.41,12.49-26.41,27.91s11.82,27.91,26.41,27.91" transform="translate(0.78 0.13)"/><path class="cls-10" d="M317.74,81.25a5.17,5.17,0,0,0,5-5.3" transform="translate(0.78 0.13)"/><path class="cls-10" d="M322.76,30.73a5.17,5.17,0,0,0-5-5.3" transform="translate(0.78 0.13)"/><path class="cls-10" d="M296.44,50.57A2.78,2.78,0,1,0,299,53.34a2.68,2.68,0,0,0-2.58-2.77" transform="translate(0.78 0.13)"/><path class="cls-10" d="M225.7,34.62c-9.72,0-17.59,8.38-17.59,18.72S216,72.06,225.7,72.06" transform="translate(0.78 0.13)"/><path class="cls-10" d="M314,37.3a2.59,2.59,0,0,0-2.49-2.68" transform="translate(0.78 0.13)"/><path class="cls-10" d="M311.55,72.06A2.59,2.59,0,0,0,314,69.38" transform="translate(0.78 0.13)"/><path class="cls-10" d="M296.44,49.63A3.72,3.72,0,1,0,300,53.34a3.61,3.61,0,0,0-3.52-3.71" transform="translate(0.78 0.13)"/><polyline class="cls-10" points="308.34 134.58 328.51 134.58 328.51 86.72 308.34 86.72"/><line class="cls-10" x1="328.51" y1="103.14" x2="328.51" y2="118.25"/><line class="cls-10" x1="312.28" y1="106.62" x2="312.28" y2="109.24"/><line class="cls-10" x1="316.31" y1="110.65" x2="313.78" y2="110.65"/><line class="cls-10" x1="312.28" y1="112.15" x2="312.28" y2="114.68"/><line class="cls-10" x1="310.78" y1="110.65" x2="308.24" y2="110.65"/><path class="cls-10" d="M306.35,131.55a21.37,21.37,0,0,0,10.09-8.28" transform="translate(0.78 0.13)"/><path class="cls-10" d="M316.42,123.27a21.33,21.33,0,0,0,3-12.72" transform="translate(0.78 0.13)"/><path class="cls-10" d="M316.44,97.78a21.37,21.37,0,0,0-10.09-8.28" transform="translate(0.78 0.13)"/><path class="cls-10" d="M319.41,110.5a21.33,21.33,0,0,0-3-12.72" transform="translate(0.78 0.13)"/><path class="cls-10" d="M291.53,112.15a39.13,39.13,0,0,0,4,14.52" transform="translate(0.78 0.13)"/><path class="cls-10" d="M307.57,86.61a12.16,12.16,0,0,0-10,4.54" transform="translate(0.78 0.13)"/><path class="cls-10" d="M291.48,108.8a23.41,23.41,0,0,0,0,3.35" transform="translate(0.78 0.13)"/><path class="cls-10" d="M315.63,123.88a87.2,87.2,0,0,0,0-26.79" transform="translate(0.78 0.13)"/><path class="cls-10" d="M324,94.61a30.09,30.09,0,0,0-19.54-6.79" transform="translate(0.78 0.13)"/><path class="cls-10" d="M326.79,110.56a59.53,59.53,0,0,0-1.48-13.7" transform="translate(0.78 0.13)"/><path class="cls-10" d="M325.38,96.84A3.93,3.93,0,0,0,324,94.63" transform="translate(0.78 0.13)"/><path class="cls-10" d="M325,110.46A101.78,101.78,0,0,0,324,97" transform="translate(0.78 0.13)"/><path class="cls-10" d="M322.69,94.58a27,27,0,0,0-18.25-6.76" transform="translate(0.78 0.13)"/><path class="cls-10" d="M323.94,97a4,4,0,0,0-1.31-2.44" transform="translate(0.78 0.13)"/><path class="cls-10" d="M304.48,133.23a27,27,0,0,0,18.24-6.79" transform="translate(0.78 0.13)"/><path class="cls-10" d="M304.51,133.13A30,30,0,0,0,324,126.32" transform="translate(0.78 0.13)"/><path class="cls-10" d="M324.06,123.94a103.2,103.2,0,0,0,.95-13.49" transform="translate(0.78 0.13)"/><path class="cls-10" d="M325.33,124.21a60.19,60.19,0,0,0,1.46-13.7" transform="translate(0.78 0.13)"/><path class="cls-10" d="M322.73,126.41A4,4,0,0,0,324,124" transform="translate(0.78 0.13)"/><path class="cls-10" d="M324,126.42a4,4,0,0,0,1.37-2.21" transform="translate(0.78 0.13)"/><path class="cls-10" d="M297.57,129.9a12.13,12.13,0,0,0,10,4.54" transform="translate(0.78 0.13)"/><path class="cls-10" d="M295.48,126.71a19,19,0,0,0,2.06,3.18" transform="translate(0.78 0.13)"/><path class="cls-10" d="M297.54,91.06a19.09,19.09,0,0,0-2.06,3.19" transform="translate(0.78 0.13)"/><path class="cls-10" d="M295.49,94.29a39.13,39.13,0,0,0-4,14.52" transform="translate(0.78 0.13)"/><path class="cls-10" d="M294.93,103.89a28,28,0,0,0,0,13.18" transform="translate(0.78 0.13)"/><path class="cls-10" d="M300.39,129.05a7.18,7.18,0,0,0,5.93,2.48" transform="translate(0.78 0.13)"/><path class="cls-10" d="M294.91,117.05A26.1,26.1,0,0,0,300.38,129" transform="translate(0.78 0.13)"/><path class="cls-10" d="M306.32,89.53A7.17,7.17,0,0,0,300.39,92" transform="translate(0.78 0.13)"/><path class="cls-10" d="M300.38,92a26,26,0,0,0-5.47,11.92" transform="translate(0.78 0.13)"/><path class="cls-10" d="M314.69,110.48a3.14,3.14,0,1,0-3.14,3.14,3.13,3.13,0,0,0,3.14-3.14" transform="translate(0.78 0.13)"/><path class="cls-10" d="M313.75,110.48a2.21,2.21,0,1,0-2.2,2.2,2.2,2.2,0,0,0,2.2-2.2" transform="translate(0.78 0.13)"/><line class="cls-10" x1="314.91" y1="179.42" x2="283.66" y2="179.42"/><polyline class="cls-10" points="316.78 180.74 328.51 180.74 328.51 147.06"/><line class="cls-10" x1="309.46" y1="163.85" x2="309.46" y2="151.37"/><polyline class="cls-10" points="283.66 179.42 309.46 176.33 309.46 163.85"/><line class="cls-10" x1="283.66" y1="148.37" x2="309.46" y2="151.37"/><line class="cls-10" x1="283.66" y1="178.58" x2="309.46" y2="175.58"/><line class="cls-10" x1="283.66" y1="149.12" x2="309.46" y2="152.21"/><line class="cls-10" x1="314.91" y1="148.37" x2="283.66" y2="148.37"/><line class="cls-10" x1="328.51" y1="147.05" x2="316.78" y2="147.05"/><polyline class="cls-10" points="283.66 179.42 280.19 178.96 276.91 177.64 274 175.48 271.75 172.67 270.06 169.38 269.21 165.73 269.21 161.97 270.06 158.41 271.75 155.03 274 152.22 276.91 150.15 280.19 148.84 283.66 148.37"/><polyline class="cls-10" points="283.66 178.58 280.38 178.2 277.28 176.89 274.56 174.92 272.4 172.2 270.81 169.1 270.06 165.63 270.06 162.07 270.81 158.69 272.4 155.5 274.56 152.87 277.28 150.81 280.38 149.59 283.66 149.12"/><path class="cls-10" d="M314.18,148.58a142.46,142.46,0,0,0,0,30.2" transform="translate(0.78 0.13)"/><path class="cls-10" d="M314.05,178.81a2,2,0,0,0,2,1.71" transform="translate(0.78 0.13)"/><path class="cls-10" d="M316.05,146.93a2,2,0,0,0-2,1.73" transform="translate(0.78 0.13)"/><path class="cls-10" d="M322,163.68a1.64,1.64,0,1,0-1.64,1.64,1.63,1.63,0,0,0,1.64-1.64" transform="translate(0.78 0.13)"/><polyline class="cls-10" points="278.88 302.15 278.88 253.45 327.67 253.45 327.67 302.15 278.88 302.15"/><polyline class="cls-10" points="323.26 297.74 283.38 297.74 283.38 262.27 323.26 262.27 323.26 297.74"/><polyline class="cls-11" points="168.07 211.79 168.07 348.87 330.29 348.87"/><line class="cls-10" x1="343.62" y1="173.61" x2="343.62" y2="173.61"/><line class="cls-10" x1="343.62" y1="412.95" x2="343.62" y2="412.95"/><polygon points="0.5 63.46 0.5 63.55 0.5 63.55 0.5 63.46"/><path d="M-.28,63.43v.28h0Zm0,0h0v0Z" transform="translate(0.78 0.13)"/><path d="M-.28,63.71V64h0Zm0,0h0v0Z" transform="translate(0.78 0.13)"/><path d="M-.28,64v.47h0Zm0,0h0v0Z" transform="translate(0.78 0.13)"/><path d="M-.28,64.46v.47h0Zm0,0h0v0Z" transform="translate(0.78 0.13)"/><path d="M-.28,64.93v.28h0Zm0,0h0v0Z" transform="translate(0.78 0.13)"/><path d="M-.28,65.49h0v0Zm0-.28v.28h0Z" transform="translate(0.78 0.13)"/><polygon points="0.5 65.33 0.5 65.33 0.5 65.61 0.5 65.33"/><polygon points="319.04 198.19 319.5 198.28 318.66 198.28 319.04 198.19"/><path d="M317.88,198.16l1.22.28h-1.59Zm.85,0h-.85l1.22.28Z" transform="translate(0.78 0.13)"/><path d="M317.51,198.44l1.78.37h-2.06Zm1.59,0h-1.59l1.78.37Z" transform="translate(0.78 0.13)"/><path d="M317.23,198.81l2.15.38h-2.25Zm2.06,0h-2.06l2.15.38Z" transform="translate(0.78 0.13)"/><path d="M317.13,199.19l2.16.47h-2.06Zm2.25,0h-2.25l2.16.47Z" transform="translate(0.78 0.13)"/><path d="M317.23,199.66l1.87.37h-1.59Zm2.06,0h-2.06l1.87.37Z" transform="translate(0.78 0.13)"/><path d="M317.88,200.22h.85l-.47.1Zm-.37-.19.37.19h.85Z" transform="translate(0.78 0.13)"/><polygon points="318.28 200.16 319.88 200.16 319.5 200.35 318.28 200.16"/><polygon points="240.6 198.19 240.97 198.28 240.13 198.28 240.6 198.19"/><path d="M239.35,198.16l1.22.28H239Zm.85,0h-.85l1.22.28Z" transform="translate(0.78 0.13)"/><path d="M239,198.44l1.87.37h-2.06Zm1.59,0H239l1.87.37Z" transform="translate(0.78 0.13)"/><path d="M238.79,198.81l2.06.38h-2.16Zm2.06,0h-2.06l2.06.38Z" transform="translate(0.78 0.13)"/><path d="M238.69,199.19l2.16.47h-2.06Zm2.16,0h-2.16l2.16.47Z" transform="translate(0.78 0.13)"/><path d="M238.79,199.66l1.78.37H239Zm2.06,0h-2.06l1.78.37Z" transform="translate(0.78 0.13)"/><path d="M239.35,200.22h.85l-.38.1ZM239,200l.37.19h.85Z" transform="translate(0.78 0.13)"/><polygon points="239.75 200.16 241.35 200.16 240.97 200.35 239.75 200.16"/><polygon points="234.59 247.92 234.97 247.92 234.12 247.92 234.59 247.92"/><path d="M233.35,247.79l1.22.28H233Zm.84,0h-.84l1.22.28Z" transform="translate(0.78 0.13)"/><path d="M233,248.07l1.88.38h-2.07Zm1.6,0H233l1.88.38Z" transform="translate(0.78 0.13)"/><path d="M232.78,248.45l2.16.37h-2.25Zm2.07,0h-2.07l2.16.37Z" transform="translate(0.78 0.13)"/><path d="M232.69,248.82l2.16.47h-2.07Zm2.25,0h-2.25l2.16.47Z" transform="translate(0.78 0.13)"/><path d="M232.78,249.29l1.79.38H233Zm2.07,0h-2.07l1.79.38Z" transform="translate(0.78 0.13)"/><path d="M233.35,249.86h.84l-.37.09Zm-.38-.19.38.19h.84Z" transform="translate(0.78 0.13)"/><polygon points="233.75 249.79 235.34 249.79 234.97 249.98 233.75 249.79"/><polygon points="323.63 247.92 324.1 247.92 323.26 247.92 323.63 247.92"/><path d="M322.48,247.79l1.22.28h-1.6Zm.84,0h-.84l1.22.28Z" transform="translate(0.78 0.13)"/><path d="M322.1,248.07l1.79.38h-2Zm1.6,0h-1.6l1.79.38Z" transform="translate(0.78 0.13)"/><path d="M321.92,248.45l2.06.37h-2.16Zm2,0h-2l2.06.37Z" transform="translate(0.78 0.13)"/><path d="M321.82,248.82l2.07.47h-2Zm2.16,0h-2.16l2.07.47Z" transform="translate(0.78 0.13)"/><path d="M321.92,249.29l1.78.38h-1.6Zm2,0h-2l1.78.38Z" transform="translate(0.78 0.13)"/><path d="M322.48,249.86h.84l-.46.09Zm-.38-.19.38.19h.84Z" transform="translate(0.78 0.13)"/><polygon points="322.88 249.79 324.48 249.79 324.1 249.98 322.88 249.79"/><polygon points="290.42 198.19 290.89 198.28 290.04 198.28 290.42 198.19"/><path d="M289.27,198.16l1.12.28h-1.5Zm.84,0h-.84l1.12.28Z" transform="translate(0.78 0.13)"/><path d="M288.89,198.44l1.78.37h-2.06Zm1.5,0h-1.5l1.78.37Z" transform="translate(0.78 0.13)"/><path d="M288.61,198.81l2.16.38h-2.25Zm2.06,0h-2.06l2.16.38Z" transform="translate(0.78 0.13)"/><path d="M288.52,199.19l2.15.47h-2.06Zm2.25,0h-2.25l2.15.47Z" transform="translate(0.78 0.13)"/><path d="M288.61,199.66l1.78.37h-1.5Zm2.06,0h-2.06l1.78.37Z" transform="translate(0.78 0.13)"/><path d="M289.27,200.22h.84l-.47.1Zm-.38-.19.38.19h.84Z" transform="translate(0.78 0.13)"/><polygon points="289.67 200.16 291.17 200.16 290.89 200.35 289.67 200.16"/><polyline class="cls-10" points="343.62 11.38 343.62 11.38 343.62 0.78 343.62 0.78"/><polyline class="cls-10" points="0.5 64.58 0.5 64.58 0.5 57.45 0.5 57.45 0.5 64.58"/><polyline class="cls-10" points="312.56 199.31 330.29 199.31 330.29 206.44 312.56 206.44 312.56 199.31"/><polyline class="cls-10" points="330.29 248.95 317.06 248.95 317.06 241.91 330.29 241.91 330.29 248.95"/><polyline class="cls-10" points="225.68 241.91 243.41 241.91 243.41 248.95 225.68 248.95 225.68 241.91"/><polyline class="cls-10" points="247.16 206.44 233.94 206.44 233.94 199.31 247.16 199.31 247.16 206.44"/><polyline class="cls-10" points="0.5 18.52 0.5 593 18.23 593 18.23 18.52"/><polyline class="cls-10" points="0.5 64.58 0.5 61.02 0.5 57.45"/><polyline class="cls-10" points="0.5 64.58 0.5 64.58 0.5 57.45 0.5 57.45"/><line class="cls-10" x1="0.5" y1="64.58" x2="0.5" y2="64.58"/><line class="cls-10" x1="0.5" y1="57.45" x2="0.5" y2="57.45"/><line class="cls-10" x1="0.5" y1="64.58" x2="0.5" y2="76.69"/><polyline class="cls-10" points="0.5 57.45 0.5 61.02 0.5 64.58 0.5 61.02"/><line class="cls-10" x1="343.62" y1="610.64" x2="343.62" y2="11.38"/><polyline class="cls-10" points="330.29 0.78 330.29 610.64 343.62 610.64"/><polyline class="cls-10" points="62.61 0.78 62.61 7.82 62.61 18.52"/><polyline class="cls-10" points="330.29 0.78 151.28 0.78 151.28 7.82 151.28 18.52"/><line class="cls-10" x1="62.61" y1="0.78" x2="0.5" y2="0.78"/><line class="cls-10" x1="0.5" y1="0.78" x2="0.5" y2="625.42"/><line class="cls-10" x1="18.23" y1="18.51" x2="62.61" y2="18.51"/><polyline class="cls-10" points="151.28 18.52 330.29 18.52 330.29 0.78"/><path class="cls-10" d="M65.35,89.23A81.58,81.58,0,0,0,146.93,7.65" transform="translate(0.78 0.13)"/><polyline class="cls-10" points="151.28 0.78 147.71 0.78 147.71 7.82 151.28 7.82 151.28 0.78"/><polyline class="cls-10" points="62.61 7.82 66.08 7.82 66.08 0.78 62.61 0.78 62.61 7.82"/><line class="cls-10" x1="66.08" y1="7.82" x2="66.08" y2="89.45"/><polyline class="cls-10" points="151.28 18.52 151.28 7.82 151.28 0.78 151.28 7.82"/><polyline class="cls-10" points="62.61 18.52 62.61 7.82 62.61 0.78 62.61 7.82"/><polyline class="cls-10" points="0.5 610.64 18.23 610.64 18.23 522.07 0.5 522.07 0.5 610.64"/><polyline class="cls-10" points="0.5 318.1 18.23 318.1 18.23 229.43 0.5 229.43 0.5 318.1"/><polyline class="cls-10" points="330.29 610.64 343.62 610.64 343.62 522.07 330.29 522.07 330.29 610.64"/><polyline class="cls-10" points="0.5 68.99 0.5 68.99 0.5 117.78 0.5 117.78"/><polyline class="cls-10" points="0.5 73.5 0.5 73.5 0.5 113.37 0.5 113.37"/></svg>