<svg id="_524" data-name="524" xmlns="http://www.w3.org/2000/svg" viewBox="0 0 323.07 669.71"><defs><style>.cls-1{isolation:isolate;font-size:12px;fill:#969696;}.cls-1,.cls-6,.cls-7,.cls-9{font-family:PTSans-Regular, PT Sans;}.cls-2{letter-spacing:-0.01em;}.cls-10,.cls-11,.cls-12,.cls-3,.cls-4,.cls-5,.cls-8{fill:none;stroke-linecap:round;stroke-linejoin:round;}.cls-3{stroke:#969696;stroke-width:0.75px;}.cls-10,.cls-11,.cls-12,.cls-4,.cls-5,.cls-8{stroke:#000;}.cls-4,.cls-5{stroke-width:0.25px;}.cls-5{stroke-dasharray:1 1;}.cls-6{font-size:40px;}.cls-7{font-size:40.54px;}.cls-11,.cls-12,.cls-8{stroke-width:0.5px;}.cls-9{font-size:36px;}.cls-11{stroke-dasharray:3.04 3.04;}.cls-12{stroke-dasharray:3.02 3.02;}</style></defs><title>10floor524flat</title><text class="cls-1" transform="translate(155.96 666.77)"><tspan class="cls-2">у</tspan><tspan x="5.42" y="0">лица</tspan></text><line class="cls-3" x1="145.2" y1="668.59" x2="145.2" y2="659.79"/><polyline class="cls-3" points="141.71 665.09 145.21 668.59 148.71 665.09"/><line class="cls-4" x1="181.18" y1="0.5" x2="181.68" y2="0.5"/><line class="cls-5" x1="182.67" y1="0.5" x2="257.98" y2="0.5"/><line class="cls-4" x1="258.47" y1="0.5" x2="258.97" y2="0.5"/><line class="cls-4" x1="161.48" y1="159.64" x2="161.48" y2="159.14"/><line class="cls-5" x1="161.48" y1="158.14" x2="161.48" y2="82.84"/><line class="cls-4" x1="161.48" y1="82.34" x2="161.48" y2="81.84"/><line class="cls-4" x1="168.14" y1="159.64" x2="168.14" y2="159.14"/><line class="cls-5" x1="168.14" y1="158.14" x2="168.14" y2="82.84"/><line class="cls-4" x1="168.14" y1="82.34" x2="168.14" y2="81.84"/><line class="cls-4" x1="260.61" y1="192.09" x2="260.11" y2="192.09"/><line class="cls-5" x1="259.11" y1="192.09" x2="183.81" y2="192.09"/><line class="cls-4" x1="183.31" y1="192.09" x2="182.81" y2="192.09"/><line class="cls-4" x1="260.61" y1="185.43" x2="260.11" y2="185.43"/><line class="cls-5" x1="259.11" y1="185.43" x2="183.81" y2="185.43"/><line class="cls-4" x1="183.31" y1="185.43" x2="182.81" y2="185.43"/><text class="cls-6" transform="translate(145.22 429.89)">CT</text><text class="cls-7" transform="translate(119.22 480.06)">21.37</text><text class="cls-6" transform="translate(114.58 379.98)">№524</text><polyline class="cls-8" points="105.58 490.88 105.58 341.8 229.9 341.8 229.9 490.88"/><line class="cls-8" x1="105.58" y1="391.59" x2="229.9" y2="391.59"/><line class="cls-8" x1="105.58" y1="490.88" x2="229.9" y2="490.88"/><line class="cls-8" x1="105.58" y1="441.37" x2="229.9" y2="441.37"/><text class="cls-9" transform="translate(86.05 136.15)">3.57</text><text class="cls-9" transform="translate(206.9 131.2)">3.41</text><text class="cls-9" transform="translate(83.12 298.34)">2.20</text><text class="cls-9" transform="translate(124.65 530.13)">12.19</text><line class="cls-10" x1="0.5" y1="581.02" x2="54.95" y2="581.02"/><polyline class="cls-10" points="223.46 581.02 322.57 581.02 322.57 581.02 322.57 581.02"/><line class="cls-10" x1="220.14" y1="581.02" x2="220.14" y2="572.8"/><line class="cls-10" x1="58.27" y1="581.02" x2="58.27" y2="572.8"/><line class="cls-10" x1="220.14" y1="581.89" x2="220.14" y2="581.02"/><line class="cls-10" x1="58.27" y1="581.89" x2="58.27" y2="581.02"/><line class="cls-10" x1="223.46" y1="572.8" x2="223.46" y2="572.8"/><polyline class="cls-10" points="223.46 581.02 220.93 581.02 220.93 572.8 220.93 581.02"/><line class="cls-10" x1="220.93" y1="581.89" x2="220.14" y2="581.89"/><line class="cls-10" x1="54.95" y1="572.8" x2="54.95" y2="572.8"/><polyline class="cls-10" points="54.95 581.02 57.48 581.02 57.48 572.8 57.48 581.02"/><line class="cls-10" x1="57.49" y1="581.89" x2="58.27" y2="581.89"/><polyline class="cls-10" points="223.46 572.8 223.46 567.82 223.46 552.17"/><polyline class="cls-10" points="54.95 572.8 54.95 567.82 54.95 552.17"/><line class="cls-10" x1="306.05" y1="552.17" x2="223.46" y2="552.17"/><line class="cls-10" x1="54.95" y1="552.17" x2="0.5" y2="552.17"/><polyline class="cls-10" points="57.48 581.89 0.5 581.89 0.5 561.61"/><line class="cls-10" x1="220.93" y1="581.89" x2="322.57" y2="581.89"/><polyline class="cls-10" points="220.14 581.89 58.27 581.89 58.27 586 220.14 586 220.14 581.89"/><line class="cls-10" x1="54.95" y1="552.17" x2="223.46" y2="552.17"/><polyline class="cls-10" points="54.95 567.82 59.5 567.82 59.5 571.14 61.59 571.14 61.59 572.8 54.95 572.8"/><polyline class="cls-10" points="112.2 572.8 108.97 572.8 108.97 571.14 110.97 571.14 110.97 567.82 112.2 567.82"/><line class="cls-10" x1="108.96" y1="572.8" x2="61.59" y2="572.8"/><polyline class="cls-10" points="59.5 566.16 64.48 566.16 105.99 566.16"/><polyline class="cls-10" points="64.48 566.16 64.48 571.14 59.5 571.14 59.5 566.16"/><polyline class="cls-10" points="110.97 571.14 105.99 571.14 105.99 566.16 110.97 566.16 110.97 571.14"/><line class="cls-10" x1="105.99" y1="571.14" x2="64.48" y2="571.14"/><line class="cls-10" x1="64.48" y1="566.16" x2="105.99" y2="566.16"/><line class="cls-10" x1="64.48" y1="568.61" x2="105.99" y2="568.61"/><polyline class="cls-10" points="112.2 567.82 113.51 567.82 113.51 571.14 115.52 571.14 115.52 572.8 112.2 572.8"/><polyline class="cls-10" points="166.21 572.8 162.89 572.8 162.89 571.14 164.99 571.14 164.99 567.82 166.21 567.82"/><line class="cls-10" x1="162.89" y1="572.8" x2="115.52" y2="572.8"/><polyline class="cls-10" points="113.51 566.16 118.4 566.16 160.01 566.16"/><polyline class="cls-10" points="118.4 566.16 118.4 571.14 113.51 571.14 113.51 566.16"/><polyline class="cls-10" points="164.99 571.14 160.01 571.14 160.01 566.16 164.99 566.16 164.99 571.14"/><line class="cls-10" x1="160.01" y1="571.14" x2="118.4" y2="571.14"/><line class="cls-10" x1="118.4" y1="566.16" x2="160.01" y2="566.16"/><line class="cls-10" x1="118.4" y1="568.61" x2="160.01" y2="568.61"/><polyline class="cls-10" points="166.21 567.82 167.44 567.82 167.44 571.14 169.45 571.14 169.45 572.8 166.21 572.8"/><polyline class="cls-10" points="223.46 572.8 216.82 572.8 216.82 571.14 218.91 571.14 218.91 567.82 223.46 567.82"/><line class="cls-10" x1="216.82" y1="572.8" x2="169.45" y2="572.8"/><polyline class="cls-10" points="167.44 566.16 172.42 566.16 213.93 566.16"/><polyline class="cls-10" points="172.42 566.16 172.42 571.14 167.44 571.14 167.44 566.16"/><polyline class="cls-10" points="218.91 571.14 213.93 571.14 213.93 566.16 218.91 566.16 218.91 571.14"/><line class="cls-10" x1="213.93" y1="571.14" x2="172.42" y2="571.14"/><line class="cls-10" x1="172.42" y1="566.16" x2="213.93" y2="566.16"/><line class="cls-10" x1="172.42" y1="568.61" x2="213.93" y2="568.61"/><polyline class="cls-10" points="54.95 552.17 54.95 567.82 54.95 572.8 54.95 567.82"/><polyline class="cls-10" points="223.46 552.17 223.46 567.82 223.46 572.8 223.46 567.82"/><line class="cls-10" x1="58.27" y1="581.89" x2="58.27" y2="581.02"/><polyline class="cls-10" points="58.27 572.8 57.48 572.8 58.27 572.8"/><polyline class="cls-10" points="57.48 572.8 54.95 572.8 57.48 572.8"/><line class="cls-10" x1="220.14" y1="581.89" x2="220.14" y2="581.02"/><polyline class="cls-10" points="220.14 572.8 220.93 572.8 220.14 572.8"/><polyline class="cls-10" points="220.93 572.8 223.46 572.8 220.93 572.8"/><line class="cls-10" x1="58.27" y1="581.02" x2="58.27" y2="572.8"/><line class="cls-10" x1="220.14" y1="581.02" x2="220.14" y2="572.8"/><polyline class="cls-10" points="322.57 581.02 322.57 572.8 322.57 486.1"/><polyline class="cls-10" points="322.57 486.1 322.57 552.17 306.05 552.17 322.57 552.17 322.57 568.61 322.57 552.17"/><line class="cls-10" x1="322.57" y1="581.89" x2="322.57" y2="486.1"/><polyline class="cls-10" points="322.57 486.1 306.05 486.1 306.05 552.17"/><line class="cls-10" x1="322.57" y1="29.34" x2="322.57" y2="29.34"/><polyline class="cls-10" points="322.57 21.13 322.57 30.22 322.57 30.22"/><line class="cls-10" x1="322.57" y1="29.34" x2="322.57" y2="21.13"/><line class="cls-10" x1="322.57" y1="11.25" x2="322.57" y2="0.5"/><line class="cls-10" x1="322.57" y1="21.13" x2="322.57" y2="11.25"/><line class="cls-10" x1="322.57" y1="30.22" x2="322.57" y2="30.22"/><line class="cls-10" x1="322.57" y1="0.5" x2="306.05" y2="0.5"/><line class="cls-10" x1="322.57" y1="11.25" x2="322.57" y2="11.25"/><polyline class="cls-10" points="322.57 21.13 322.57 21.13 322.57 11.25"/><polyline class="cls-10" points="322.57 21.13 322.57 21.13 322.57 11.25"/><line class="cls-10" x1="322.57" y1="11.25" x2="322.57" y2="11.25"/><polyline class="cls-10" points="322.57 11.25 322.57 21.13 322.57 11.25"/><line class="cls-10" x1="322.57" y1="11.25" x2="322.57" y2="0.5"/><polyline class="cls-10" points="322.57 30.22 322.57 30.22 322.57 21.13"/><polyline class="cls-10" points="260.61 17.02 260.61 7.05 260.61 0.5"/><polyline class="cls-10" points="178.01 17.02 178.01 7.05 178.01 0.5"/><line class="cls-10" x1="0.5" y1="17.02" x2="0.5" y2="17.02"/><line class="cls-10" x1="17.02" y1="17.02" x2="178.01" y2="17.02"/><polyline class="cls-10" points="260.61 17.02 306.05 17.02 306.05 0.5 260.61 0.5"/><line class="cls-10" x1="178.01" y1="0.5" x2="0.5" y2="0.5"/><path class="cls-10" d="M181.11,6.79a76,76,0,0,0,76,76" transform="translate(0.23 0.22)"/><polyline class="cls-10" points="178.01 0.5 181.33 0.5 181.33 7.05 178.01 7.05 178.01 0.5"/><polyline class="cls-10" points="260.61 7.05 257.28 7.05 257.28 0.5 260.61 0.5 260.61 7.05"/><line class="cls-10" x1="257.28" y1="7.06" x2="257.28" y2="83.09"/><polyline class="cls-10" points="178.01 0.5 178.01 7.05 178.01 0.5"/><line class="cls-10" x1="178.01" y1="17.02" x2="178.01" y2="7.06"/><polyline class="cls-10" points="260.61 0.5 260.61 7.05 260.61 0.5"/><line class="cls-10" x1="260.61" y1="17.02" x2="260.61" y2="7.06"/><line class="cls-10" x1="168.13" y1="149.08" x2="161.49" y2="149.08"/><line class="cls-10" x1="168.13" y1="91.31" x2="161.49" y2="91.31"/><line class="cls-10" x1="168.13" y1="231.68" x2="168.13" y2="192.08"/><line class="cls-10" x1="168.13" y1="185.44" x2="168.13" y2="149.08"/><polyline class="cls-10" points="168.13 91.31 168.13 17.02 161.49 17.02 161.49 91.31"/><line class="cls-10" x1="161.49" y1="149.08" x2="161.49" y2="185.44"/><line class="cls-10" x1="161.49" y1="192.08" x2="161.49" y2="225.12"/><line class="cls-10" x1="161.49" y1="231.68" x2="168.13" y2="231.68"/><line class="cls-10" x1="186.31" y1="185.44" x2="186.31" y2="192.08"/><line class="cls-10" x1="260.61" y1="185.44" x2="260.61" y2="192.08"/><polyline class="cls-10" points="21.13 185.44 21.13 188.76 21.13 192.08"/><polyline class="cls-10" points="54.16 185.44 54.16 188.76 54.16 192.08"/><line class="cls-10" x1="306.05" y1="185.44" x2="260.61" y2="185.44"/><line class="cls-10" x1="186.31" y1="185.44" x2="168.13" y2="185.44"/><line class="cls-10" x1="161.49" y1="185.44" x2="54.16" y2="185.44"/><polyline class="cls-10" points="21.13 185.44 17.02 185.44 17.02 192.08 21.13 192.08"/><line class="cls-10" x1="54.16" y1="192.08" x2="58.27" y2="192.08"/><line class="cls-10" x1="64.91" y1="192.08" x2="161.49" y2="192.08"/><line class="cls-10" x1="168.13" y1="192.08" x2="186.31" y2="192.08"/><polyline class="cls-10" points="260.61 192.08 306.05 192.08 306.05 185.44"/><line class="cls-10" x1="54.16" y1="185.44" x2="21.13" y2="185.44"/><line class="cls-10" x1="54.16" y1="192.08" x2="21.13" y2="192.08"/><path class="cls-10" d="M53.94,185.17a32.85,32.85,0,0,0-2-11.28" transform="translate(0.23 0.22)"/><line class="cls-10" x1="21.13" y1="185.44" x2="52.15" y2="174.17"/><polyline class="cls-10" points="54.16 192.08 54.16 188.76 54.16 185.44 54.16 188.76"/><polyline class="cls-10" points="21.13 192.08 21.13 188.76 21.13 185.44 21.13 188.76"/><line class="cls-10" x1="58.27" y1="192.08" x2="58.27" y2="225.12"/><polyline class="cls-10" points="161.49 225.12 64.91 225.12 64.91 192.08"/><polyline class="cls-10" points="58.27 225.12 17.02 225.12 17.02 231.68 161.49 231.68"/><line class="cls-10" x1="17.02" y1="552.17" x2="17.02" y2="17.02"/><polyline class="cls-10" points="0.5 0.5 0.5 552.17 17.02 552.17"/><polyline class="cls-10" points="322.57 30.22 322.57 29.34 322.57 30.22 322.57 486.1"/><line class="cls-10" x1="322.57" y1="486.1" x2="322.57" y2="30.22"/><polyline class="cls-10" points="306.05 0.5 306.05 21.13 306.05 486.1"/><polyline class="cls-10" points="322.57 559.6 322.57 559.6 322.57 559.6"/><line class="cls-10" x1="322.57" y1="581.02" x2="322.57" y2="581.02"/><polyline class="cls-10" points="322.57 559.6 322.57 559.6 322.57 559.6"/><polyline class="cls-10" points="322.57 559.6 322.57 30.22 322.57 30.22 322.57 30.22"/><polyline class="cls-10" points="322.57 581.89 322.57 581.02 322.57 572.8 322.57 559.6 322.57 30.22"/><line class="cls-10" x1="23.31" y1="28.56" x2="23.31" y2="70.68"/><line class="cls-10" x1="28.03" y1="75.66" x2="130.2" y2="75.66"/><line class="cls-10" x1="28.03" y1="23.57" x2="130.2" y2="23.57"/><line class="cls-10" x1="159.05" y1="80.56" x2="18.59" y2="80.56"/><polyline class="cls-10" points="159.04 80.56 159.04 18.68 18.59 18.68 18.59 80.56"/><line class="cls-10" x1="113.77" y1="32.23" x2="33.8" y2="32.23"/><line class="cls-10" x1="31.44" y1="34.67" x2="31.44" y2="64.56"/><line class="cls-10" x1="113.77" y1="67.01" x2="33.8" y2="67.01"/><line class="cls-10" x1="47.87" y1="48.13" x2="47.87" y2="45.07"/><line class="cls-10" x1="46.47" y1="49.62" x2="43.59" y2="49.62"/><line class="cls-10" x1="47.87" y1="51.11" x2="47.87" y2="54.16"/><line class="cls-10" x1="49.36" y1="49.62" x2="52.24" y2="49.62"/><path class="cls-10" d="M130,75.35c13.59,0,24.61-11.64,24.61-26s-11-26-24.61-26" transform="translate(0.23 0.22)"/><path class="cls-10" d="M23.17,70.41a4.82,4.82,0,0,0,4.68,4.94" transform="translate(0.23 0.22)"/><path class="cls-10" d="M27.85,23.35a4.82,4.82,0,0,0-4.68,4.94" transform="translate(0.23 0.22)"/><path class="cls-10" d="M47.69,46.77a2.59,2.59,0,1,0,2.4,2.58,2.5,2.5,0,0,0-2.4-2.58" transform="translate(0.23 0.22)"/><path class="cls-10" d="M113.59,66.79c9,0,16.39-7.81,16.39-17.44s-7.34-17.44-16.39-17.44" transform="translate(0.23 0.22)"/><path class="cls-10" d="M33.62,31.91a2.42,2.42,0,0,0-2.32,2.5" transform="translate(0.23 0.22)"/><path class="cls-10" d="M31.3,64.3a2.41,2.41,0,0,0,2.32,2.49" transform="translate(0.23 0.22)"/><path class="cls-10" d="M47.69,45.9A3.45,3.45,0,1,0,51,49.35a3.37,3.37,0,0,0-3.28-3.45" transform="translate(0.23 0.22)"/><polyline class="cls-10" points="37.47 125.13 18.59 125.13 18.59 80.56 37.47 80.56"/><line class="cls-10" x1="18.59" y1="95.85" x2="18.59" y2="109.93"/><line class="cls-10" x1="33.8" y1="99.09" x2="33.8" y2="101.54"/><line class="cls-10" x1="30.04" y1="102.85" x2="32.4" y2="102.85"/><line class="cls-10" x1="33.8" y1="104.24" x2="33.8" y2="106.6"/><line class="cls-10" x1="35.11" y1="102.85" x2="37.56" y2="102.85"/><path class="cls-10" d="M29.06,114.5a19.9,19.9,0,0,0,9.4,7.71" transform="translate(0.23 0.22)"/><path class="cls-10" d="M26.3,102.64a19.9,19.9,0,0,0,2.78,11.86" transform="translate(0.23 0.22)"/><path class="cls-10" d="M38.46,83a19.84,19.84,0,0,0-9.4,7.71" transform="translate(0.23 0.22)"/><path class="cls-10" d="M29.08,90.75A19.85,19.85,0,0,0,26.3,102.6" transform="translate(0.23 0.22)"/><path class="cls-10" d="M48.58,117.66a36.66,36.66,0,0,0,3.69-13.53" transform="translate(0.23 0.22)"/><path class="cls-10" d="M46.64,84.57a11.32,11.32,0,0,0-9.31-4.23" transform="translate(0.23 0.22)"/><path class="cls-10" d="M52.31,104.14a23.2,23.2,0,0,0,0-3.12" transform="translate(0.23 0.22)"/><path class="cls-10" d="M29.82,90.11a80.91,80.91,0,0,0,0,25" transform="translate(0.23 0.22)"/><path class="cls-10" d="M40.22,81.47A28,28,0,0,0,22,87.79" transform="translate(0.23 0.22)"/><path class="cls-10" d="M20.71,89.89a55.92,55.92,0,0,0-1.38,12.76" transform="translate(0.23 0.22)"/><path class="cls-10" d="M22,87.82a3.67,3.67,0,0,0-1.27,2.05" transform="translate(0.23 0.22)"/><path class="cls-10" d="M22,90a94.4,94.4,0,0,0-.9,12.57" transform="translate(0.23 0.22)"/><path class="cls-10" d="M40.24,81.47a25.2,25.2,0,0,0-17,6.3" transform="translate(0.23 0.22)"/><path class="cls-10" d="M23.21,87.73A3.68,3.68,0,0,0,22,90" transform="translate(0.23 0.22)"/><path class="cls-10" d="M23.21,117.45a25.26,25.26,0,0,0,17,6.32" transform="translate(0.23 0.22)"/><path class="cls-10" d="M22,117.34a28,28,0,0,0,18.2,6.34" transform="translate(0.23 0.22)"/><path class="cls-10" d="M21.08,102.55A96,96,0,0,0,22,115.12" transform="translate(0.23 0.22)"/><path class="cls-10" d="M19.33,102.6a55.93,55.93,0,0,0,1.36,12.77" transform="translate(0.23 0.22)"/><path class="cls-10" d="M22,115.14a3.71,3.71,0,0,0,1.21,2.28" transform="translate(0.23 0.22)"/><path class="cls-10" d="M20.73,115.37a3.67,3.67,0,0,0,1.27,2" transform="translate(0.23 0.22)"/><path class="cls-10" d="M37.33,124.9a11.32,11.32,0,0,0,9.31-4.23" transform="translate(0.23 0.22)"/><path class="cls-10" d="M46.67,120.66a17.44,17.44,0,0,0,1.92-3" transform="translate(0.23 0.22)"/><path class="cls-10" d="M48.59,87.46a17.52,17.52,0,0,0-1.92-3" transform="translate(0.23 0.22)"/><path class="cls-10" d="M52.27,101a36.71,36.71,0,0,0-3.69-13.53" transform="translate(0.23 0.22)"/><path class="cls-10" d="M49.1,108.72a26.27,26.27,0,0,0,0-12.28" transform="translate(0.23 0.22)"/><path class="cls-10" d="M38.49,122.18a6.64,6.64,0,0,0,5.52-2.3" transform="translate(0.23 0.22)"/><path class="cls-10" d="M44,119.8a24.08,24.08,0,0,0,5.09-11.1" transform="translate(0.23 0.22)"/><path class="cls-10" d="M44,85.36a6.7,6.7,0,0,0-5.52-2.3" transform="translate(0.23 0.22)"/><path class="cls-10" d="M49.11,96.46A24.11,24.11,0,0,0,44,85.35" transform="translate(0.23 0.22)"/><path class="cls-10" d="M36.55,102.58a2.93,2.93,0,1,0-2.93,2.93,2.93,2.93,0,0,0,2.93-2.93" transform="translate(0.23 0.22)"/><path class="cls-10" d="M35.67,102.58a2.06,2.06,0,1,0-2.05,2,2.05,2.05,0,0,0,2.05-2" transform="translate(0.23 0.22)"/><line class="cls-10" x1="31.35" y1="166.91" x2="60.46" y2="166.91"/><polyline class="cls-10" points="29.6 168.13 18.59 168.13 18.59 136.76"/><line class="cls-10" x1="36.42" y1="152.4" x2="36.42" y2="140.78"/><polyline class="cls-10" points="60.46 166.91 36.42 164.03 36.42 152.4"/><line class="cls-10" x1="60.46" y1="137.98" x2="36.42" y2="140.78"/><line class="cls-10" x1="60.46" y1="166.12" x2="36.42" y2="163.33"/><line class="cls-10" x1="60.46" y1="138.68" x2="36.42" y2="141.57"/><line class="cls-10" x1="31.35" y1="137.98" x2="60.46" y2="137.98"/><line class="cls-10" x1="18.59" y1="136.76" x2="29.6" y2="136.76"/><polyline class="cls-10" points="60.46 166.91 63.69 166.47 66.75 165.25 69.37 163.24 71.56 160.62 73.04 157.56 73.83 154.15 73.83 150.66 73.04 147.33 71.56 144.19 69.37 141.56 66.75 139.64 63.69 138.42 60.46 137.98"/><polyline class="cls-10" points="60.46 166.13 63.52 165.78 66.4 164.55 68.94 162.72 70.94 160.18 72.43 157.3 73.13 154.06 73.13 150.74 72.43 147.6 70.94 144.62 68.94 142.18 66.4 140.25 63.52 139.12 60.46 138.68"/><path class="cls-10" d="M31.17,166.21a133.68,133.68,0,0,0,0-28.14" transform="translate(0.23 0.22)"/><path class="cls-10" d="M29.42,167.82a1.85,1.85,0,0,0,1.87-1.59" transform="translate(0.23 0.22)"/><path class="cls-10" d="M31.29,138.15a1.84,1.84,0,0,0-1.87-1.62" transform="translate(0.23 0.22)"/><path class="cls-10" d="M26.84,152.13a1.53,1.53,0,1,0-1.52,1.53,1.53,1.53,0,0,0,1.52-1.53" transform="translate(0.23 0.22)"/><polyline class="cls-10" points="19.47 281.23 64.91 281.23 64.91 235.87 19.47 235.87 19.47 281.23"/><polyline class="cls-10" points="23.57 277.12 60.72 277.12 60.72 244.09 23.57 244.09 23.57 277.12"/><polyline class="cls-10" points="141.3 583.9 141.3 629.35 140.87 629.35 140.87 583.9 141.3 583.9"/><polyline class="cls-10" points="142.53 630.57 218.48 630.57 218.48 631.01 142.53 631.01 142.53 630.57"/><polyline class="cls-10" points="219.7 629.35 219.7 583.9 220.14 583.9 220.14 629.35 219.7 629.35"/><polyline class="cls-10" points="142.53 581.89 142.53 583.9 140.43 583.9 140.43 581.89 142.53 581.89"/><polyline class="cls-10" points="142.53 629.35 142.53 631.45 140.43 631.45 140.43 629.35 142.53 629.35"/><polyline class="cls-10" points="218.48 629.35 220.58 629.35 220.58 631.45 218.48 631.45 218.48 629.35"/><polyline class="cls-10" points="218.48 583.9 218.48 581.89 220.58 581.89 220.58 583.9 218.48 583.9"/><line class="cls-10" x1="142.53" y1="582.85" x2="142.53" y2="629.35"/><line class="cls-10" x1="140.43" y1="631.45" x2="140.43" y2="582.85"/><line class="cls-10" x1="142.53" y1="629.35" x2="218.48" y2="629.35"/><line class="cls-10" x1="220.58" y1="631.45" x2="140.43" y2="631.45"/><line class="cls-10" x1="218.48" y1="629.35" x2="218.48" y2="582.85"/><line class="cls-10" x1="220.58" y1="582.85" x2="220.58" y2="631.45"/><polyline class="cls-10" points="140.43 582.85 140.43 581.89 142.53 581.89 142.53 582.85"/><polyline class="cls-10" points="218.48 582.85 218.48 581.89 220.58 581.89 220.58 582.85"/><polyline class="cls-10" points="220.58 631.45 140.43 631.45 140.43 582.85 142.53 582.85 142.53 629.35 218.48 629.35 218.48 582.85 220.58 582.85 220.58 631.45"/><polyline class="cls-10" points="216.38 616.59 144.54 616.59 144.54 590.11 216.38 590.11 216.38 616.59"/><polyline class="cls-10" points="216.38 613.88 144.54 613.88 144.54 590.11 216.38 590.11 216.38 613.88"/><line class="cls-8" x1="168.13" y1="197.06" x2="168.13" y2="198.56"/><line class="cls-11" x1="168.13" y1="201.6" x2="168.13" y2="327.77"/><polyline class="cls-8" points="168.13 329.29 168.13 330.79 166.63 330.79"/><line class="cls-12" x1="163.61" y1="330.79" x2="20.03" y2="330.79"/><line class="cls-8" x1="18.52" y1="330.79" x2="17.02" y2="330.79"/><line class="cls-10" x1="0.5" y1="17.02" x2="58.27" y2="17.02"/><polyline class="cls-10" points="58.27 17.02 58.27 0.5 0.5 0.5"/><polyline class="cls-10" points="17.02 296.09 0.5 296.09 0.5 213.5 17.02 213.5 17.02 296.09"/><polyline class="cls-10" points="17.02 568.61 0.5 568.61 0.5 486.1 17.02 486.1 17.02 568.61"/><polyline class="cls-10" points="322.57 296.09 306.05 296.09 306.05 213.5 322.57 213.5 322.57 296.09"/><polyline class="cls-10" points="322.57 568.61 306.05 568.61 306.05 486.1 322.57 486.1 322.57 568.61"/></svg>