<svg id="_29" data-name="29" xmlns="http://www.w3.org/2000/svg" viewBox="0 0 363.82 782.33"><defs><style>.cls-1{isolation:isolate;font-size:12px;fill:#969696;}.cls-1,.cls-4,.cls-5{font-family:PTSans-Regular, PT Sans;}.cls-2,.cls-3,.cls-6,.cls-7,.cls-8,.cls-9{fill:none;stroke-linecap:round;stroke-linejoin:round;}.cls-2{stroke:#969696;stroke-width:0.75px;}.cls-3,.cls-6,.cls-7,.cls-8{stroke:#7d7d7d;stroke-width:0.5px;}.cls-4{font-size:28px;}.cls-5{font-size:24px;}.cls-6{stroke-dasharray:4.05 4.05;}.cls-7{stroke-dasharray:3.98 3.98;}.cls-8{stroke-dasharray:4 4;}.cls-9{stroke:#000;}</style></defs><title>4floor_29flat</title><text class="cls-1" transform="translate(176.34 10.2)">двор</text><line class="cls-2" x1="165.58" y1="4.22" x2="165.58" y2="13.02"/><polyline class="cls-2" points="169.08 7.72 165.58 4.22 162.08 7.72"/><polyline class="cls-3" points="131.16 345.29 131.16 236.53 221.87 236.53 221.87 345.29"/><line class="cls-3" x1="131.16" y1="272.85" x2="221.87" y2="272.85"/><line class="cls-3" x1="131.16" y1="345.29" x2="221.87" y2="345.29"/><line class="cls-3" x1="131.16" y1="309.18" x2="221.87" y2="309.18"/><text class="cls-4" transform="translate(160.75 298.97)">CT</text><text class="cls-4" transform="translate(143 335.94)">21.43</text><text class="cls-4" transform="translate(146.93 262.55)">№29</text><text class="cls-5" transform="translate(148.34 185.37)">11.80</text><text class="cls-5" transform="translate(76.07 634.29)">3.91</text><text class="cls-5" transform="translate(207.96 634.29)">3.52</text><text class="cls-5" transform="translate(213.72 435.32)">2.20</text><line class="cls-3" x1="174.66" y1="484.43" x2="176.66" y2="484.43"/><line class="cls-6" x1="180.71" y1="484.43" x2="340.75" y2="484.43"/><polyline class="cls-3" points="342.78 484.43 344.78 484.43 344.78 482.43"/><line class="cls-7" x1="344.78" y1="478.45" x2="344.78" y2="376.87"/><polyline class="cls-3" points="344.78 374.88 344.78 372.88 342.78 372.88"/><line class="cls-6" x1="338.72" y1="372.88" x2="178.69" y2="372.88"/><polyline class="cls-3" points="176.66 372.88 174.66 372.88 174.66 374.88"/><line class="cls-7" x1="174.66" y1="378.87" x2="174.66" y2="480.44"/><line class="cls-3" x1="174.66" y1="482.43" x2="174.66" y2="484.43"/><line class="cls-8" x1="121.68" y1="538.29" x2="38.1" y2="538.29"/><line class="cls-8" x1="121.68" y1="545.79" x2="38.1" y2="545.79"/><line class="cls-8" x1="174.66" y1="626.44" x2="174.66" y2="691.7"/><line class="cls-8" x1="182.09" y1="626.44" x2="182.09" y2="691.7"/><line class="cls-9" x1="46.78" y1="107.04" x2="46.78" y2="107.04"/><line class="cls-9" x1="10.51" y1="114.18" x2="10.51" y2="114.18"/><line class="cls-9" x1="4.55" y1="121.98" x2="8.45" y2="115.28"/><line class="cls-9" x1="9.92" y1="121.98" x2="14.55" y2="114.03"/><line class="cls-9" x1="15.29" y1="121.98" x2="20.59" y2="112.78"/><line class="cls-9" x1="20.51" y1="122.27" x2="26.69" y2="111.53"/><line class="cls-9" x1="26.55" y1="121.02" x2="32.8" y2="110.28"/><line class="cls-9" x1="32.65" y1="119.77" x2="38.91" y2="109.03"/><line class="cls-9" x1="38.76" y1="118.52" x2="44.5" y2="108.59"/><line class="cls-9" x1="44.87" y1="117.27" x2="45.9" y2="115.43"/><line class="cls-9" x1="7.93" y1="121.98" x2="4.55" y2="116.09"/><line class="cls-9" x1="13.3" y1="121.98" x2="9.33" y2="115.14"/><line class="cls-9" x1="18.67" y1="121.98" x2="14.19" y2="114.11"/><line class="cls-9" x1="23.82" y1="121.61" x2="18.97" y2="113.15"/><line class="cls-9" x1="28.68" y1="120.65" x2="23.75" y2="112.12"/><line class="cls-9" x1="33.46" y1="119.62" x2="28.53" y2="111.16"/><line class="cls-9" x1="38.25" y1="118.67" x2="33.32" y2="110.13"/><line class="cls-9" x1="43.03" y1="117.64" x2="38.1" y2="109.18"/><line class="cls-9" x1="45.24" y1="112.19" x2="42.96" y2="108.22"/><line class="cls-9" x1="19.48" y1="139.05" x2="21.32" y2="137.28"/><line class="cls-9" x1="24.56" y1="133.97" x2="34.42" y2="124.11"/><line class="cls-9" x1="37.73" y1="120.8" x2="40.31" y2="118.23"/><line class="cls-9" x1="43.54" y1="141.26" x2="47.59" y2="137.28"/><line class="cls-9" x1="50.9" y1="133.97" x2="55.46" y2="129.41"/><line class="cls-9" x1="19.48" y1="125.95" x2="21.32" y2="124.11"/><line class="cls-9" x1="26.99" y1="144.64" x2="34.42" y2="137.28"/><line class="cls-9" x1="37.73" y1="133.97" x2="47.59" y2="124.11"/><line class="cls-9" x1="50.9" y1="120.8" x2="53.18" y2="118.52"/><line class="cls-9" x1="44.5" y1="108.59" x2="44.94" y2="107.78"/><line class="cls-9" x1="45.9" y1="115.43" x2="51.05" y2="106.53"/><line class="cls-9" x1="50.9" y1="116.02" x2="54.29" y2="110.21"/><line class="cls-9" x1="47.81" y1="116.68" x2="45.24" y2="112.19"/><line class="cls-9" x1="52.59" y1="115.72" x2="47.74" y2="107.19"/><line class="cls-9" x1="54.07" y1="108.88" x2="52.52" y2="106.23"/><line class="cls-9" x1="44.35" y1="107.92" x2="0.9" y2="116.57"/><line class="cls-9" x1="46.27" y1="116.98" x2="19.48" y2="122.49"/><line class="cls-9" x1="54.36" y1="105.86" x2="56.27" y2="114.91"/><line class="cls-9" x1="52.59" y1="115.72" x2="55.32" y2="115.14"/><line class="cls-9" x1="55.32" y1="115.14" x2="56.27" y2="114.91"/><line class="cls-9" x1="54.21" y1="104.91" x2="54.36" y2="105.86"/><line class="cls-9" x1="52.59" y1="115.72" x2="52.59" y2="115.72"/><line class="cls-9" x1="46.27" y1="116.98" x2="52.59" y2="115.72"/><line class="cls-9" x1="46.27" y1="116.98" x2="46.27" y2="116.98"/><polyline class="cls-9" points="44.35 107.92 53.48 106.01 55.32 115.14 53.48 106.01"/><line class="cls-9" x1="53.26" y1="105.13" x2="54.21" y2="104.91"/><polyline class="cls-9" points="52.59 115.72 53.7 121.17 57.3 138.46 19.48 146.26"/><line class="cls-9" x1="53.26" y1="105.13" x2="0.83" y2="115.61"/><line class="cls-9" x1="135.66" y1="88.13" x2="54.21" y2="104.91"/><line class="cls-9" x1="135.66" y1="122.35" x2="57.3" y2="138.46"/><polyline class="cls-9" points="135.66 104.32 130.66 105.35 129.93 101.67 127.64 102.19 127.28 100.35 134.56 98.8 135.66 98.58"/><polyline class="cls-9" points="52.59 115.72 59.88 114.18 60.25 116.02 57.97 116.46 58.77 120.14 53.7 121.17"/><line class="cls-9" x1="59.88" y1="114.18" x2="127.28" y2="100.35"/><polyline class="cls-9" points="131.03 107.12 125.58 108.29 64.59 120.8"/><polyline class="cls-9" points="125.58 108.29 124.41 102.78 129.93 101.67 131.03 107.12"/><polyline class="cls-9" points="57.97 116.46 63.48 115.36 64.59 120.8 59.14 121.98 57.97 116.46"/><line class="cls-9" x1="63.48" y1="115.36" x2="124.41" y2="102.77"/><line class="cls-9" x1="125.58" y1="108.29" x2="64.59" y2="120.8"/><line class="cls-9" x1="125" y1="105.57" x2="64" y2="118.08"/><line class="cls-9" x1="134.56" y1="98.8" x2="135.66" y2="104.32"/><polyline class="cls-9" points="57.3 138.46 53.7 121.17 52.59 115.72 53.7 121.17"/><line class="cls-9" x1="54.21" y1="104.91" x2="54.36" y2="105.86"/><polyline class="cls-9" points="56.27 114.92 55.32 115.14 56.27 114.92"/><polyline class="cls-9" points="55.32 115.14 52.59 115.72 55.32 115.14"/><line class="cls-9" x1="54.36" y1="105.86" x2="56.27" y2="114.91"/><line class="cls-9" x1="268.7" y1="126.47" x2="269.06" y2="126.03"/><line class="cls-9" x1="265.24" y1="143.02" x2="270.76" y2="137.58"/><line class="cls-9" x1="266.34" y1="123.97" x2="270.46" y2="116.83"/><line class="cls-9" x1="270.39" y1="126.32" x2="275.24" y2="117.86"/><line class="cls-9" x1="267.74" y1="125.8" x2="266.41" y2="123.52"/><line class="cls-9" x1="273.77" y1="127.06" x2="267.81" y2="116.68"/><line class="cls-9" x1="276.27" y1="121.98" x2="273.7" y2="117.49"/><line class="cls-9" x1="267" y1="116.17" x2="265.16" y2="125.22"/><line class="cls-9" x1="268.77" y1="126.03" x2="266.05" y2="125.44"/><line class="cls-9" x1="266.05" y1="125.44" x2="265.16" y2="125.22"/><line class="cls-9" x1="267.22" y1="115.21" x2="267" y2="116.17"/><line class="cls-9" x1="268.77" y1="126.03" x2="268.77" y2="126.03"/><line class="cls-9" x1="275.17" y1="127.28" x2="268.77" y2="126.03"/><line class="cls-9" x1="275.17" y1="127.28" x2="275.17" y2="127.28"/><polyline class="cls-9" points="277.01 118.23 267.89 116.31 266.05 125.44 267.89 116.31"/><line class="cls-9" x1="268.11" y1="115.43" x2="267.22" y2="115.21"/><polyline class="cls-9" points="268.77 126.03 267.67 131.47 264.06 148.76 269.43 149.87"/><line class="cls-9" x1="272.89" y1="116.39" x2="268.11" y2="115.43"/><line class="cls-9" x1="135.66" y1="88.13" x2="267.22" y2="115.21"/><line class="cls-9" x1="135.66" y1="122.35" x2="264.06" y2="148.76"/><polyline class="cls-9" points="135.66 104.32 140.67 105.35 141.4 101.67 143.68 102.19 144.05 100.35 136.77 98.8 135.66 98.58"/><polyline class="cls-9" points="214.17 114.77 210.49 114.03 210.13 115.8 212.41 116.31 211.67 119.92 213 120.21"/><line class="cls-9" x1="210.49" y1="114.03" x2="144.05" y2="100.35"/><polyline class="cls-9" points="140.3 107.12 145.75 108.29 205.86 120.65"/><polyline class="cls-9" points="145.75 108.29 146.85 102.78 141.4 101.67 140.3 107.12"/><polyline class="cls-9" points="212.41 116.31 206.96 115.14 205.86 120.65 211.3 121.76 212.41 116.31"/><line class="cls-9" x1="206.96" y1="115.14" x2="146.85" y2="102.77"/><line class="cls-9" x1="145.74" y1="108.29" x2="205.86" y2="120.65"/><line class="cls-9" x1="146.33" y1="105.57" x2="206.37" y2="117.93"/><line class="cls-9" x1="136.77" y1="98.8" x2="135.66" y2="104.32"/><polyline class="cls-9" points="213 120.21 214.39 120.51 215.13 116.83 217.41 117.34 217.78 115.5 214.17 114.77"/><polyline class="cls-9" points="268.77 126.03 261.48 124.48 261.12 126.32 263.4 126.76 262.66 130.44 267.67 131.47"/><line class="cls-9" x1="261.48" y1="124.48" x2="217.78" y2="115.5"/><polyline class="cls-9" points="214.03 122.35 219.47 123.45 256.77 131.1"/><polyline class="cls-9" points="219.47 123.45 220.57 118 215.13 116.83 214.03 122.35"/><polyline class="cls-9" points="263.4 126.76 257.95 125.66 256.77 131.1 262.29 132.28 263.4 126.76"/><line class="cls-9" x1="257.95" y1="125.66" x2="220.57" y2="118.01"/><line class="cls-9" x1="219.47" y1="123.45" x2="256.78" y2="131.1"/><line class="cls-9" x1="220.06" y1="120.73" x2="257.36" y2="128.38"/><polyline class="cls-9" points="264.06 148.76 267.67 131.47 268.77 126.03 267.67 131.47"/><line class="cls-9" x1="267.22" y1="115.21" x2="267" y2="116.17"/><polyline class="cls-9" points="265.16 125.22 266.05 125.44 265.16 125.22"/><polyline class="cls-9" points="266.05 125.44 268.77 126.03 266.05 125.44"/><line class="cls-9" x1="267" y1="116.17" x2="265.16" y2="125.22"/><line class="cls-9" x1="338.3" y1="115.65" x2="338.3" y2="115.65"/><line class="cls-9" x1="338.15" y1="115.72" x2="338.15" y2="115.72"/><line class="cls-9" x1="360.01" y1="111.6" x2="360.01" y2="111.6"/><line class="cls-9" x1="333.3" y1="119.48" x2="334.77" y2="116.98"/><line class="cls-9" x1="334.62" y1="126.47" x2="340.88" y2="115.72"/><line class="cls-9" x1="340.73" y1="125.22" x2="344.78" y2="118.23"/><line class="cls-9" x1="345.29" y1="117.34" x2="346.91" y2="114.47"/><line class="cls-9" x1="350.66" y1="117.34" x2="353.02" y2="113.22"/><line class="cls-9" x1="356.03" y1="117.34" x2="359.12" y2="111.97"/><line class="cls-9" x1="337.57" y1="125.88" x2="333.22" y2="118.45"/><line class="cls-9" x1="342.35" y1="124.92" x2="337.42" y2="116.46"/><line class="cls-9" x1="344.78" y1="119.84" x2="342.2" y2="115.43"/><line class="cls-9" x1="348.68" y1="117.34" x2="347.06" y2="114.47"/><line class="cls-9" x1="354.05" y1="117.34" x2="351.84" y2="113.44"/><line class="cls-9" x1="359.42" y1="117.34" x2="356.62" y2="112.49"/><line class="cls-9" x1="335.28" y1="138.68" x2="336.76" y2="137.28"/><line class="cls-9" x1="339.99" y1="133.97" x2="344.78" y2="129.19"/><line class="cls-9" x1="334.03" y1="126.76" x2="334.25" y2="126.61"/><line class="cls-9" x1="339.99" y1="147.14" x2="344.78" y2="142.36"/><line class="cls-9" x1="363.32" y1="111.13" x2="333.08" y2="117.34"/><line class="cls-9" x1="344.78" y1="124.41" x2="334.03" y2="126.61"/><line class="cls-9" x1="336.39" y1="149.86" x2="344.78" y2="148.17"/><line class="cls-9" x1="363.32" y1="110.25" x2="333" y2="116.39"/><line class="cls-9" x1="307.32" y1="116.61" x2="307.32" y2="116.61"/><line class="cls-9" x1="272.15" y1="123.16" x2="275.54" y2="117.34"/><line class="cls-9" x1="275.54" y1="126.61" x2="280.91" y2="117.34"/><line class="cls-9" x1="280.91" y1="126.61" x2="286.28" y2="117.34"/><line class="cls-9" x1="286.28" y1="126.61" x2="291.65" y2="117.34"/><line class="cls-9" x1="291.65" y1="126.61" x2="297.02" y2="117.34"/><line class="cls-9" x1="297.02" y1="126.61" x2="302.39" y2="117.34"/><line class="cls-9" x1="302.39" y1="126.61" x2="307.77" y2="117.34"/><line class="cls-9" x1="307.77" y1="126.61" x2="313.14" y2="117.34"/><line class="cls-9" x1="313.14" y1="126.61" x2="318.51" y2="117.34"/><line class="cls-9" x1="318.51" y1="126.61" x2="323.81" y2="117.34"/><line class="cls-9" x1="323.81" y1="126.61" x2="329.18" y2="117.34"/><line class="cls-9" x1="329.18" y1="126.61" x2="333.3" y2="119.48"/><line class="cls-9" x1="273.55" y1="126.61" x2="272.08" y2="124.11"/><line class="cls-9" x1="278.92" y1="126.61" x2="273.55" y2="117.34"/><line class="cls-9" x1="284.29" y1="126.61" x2="278.92" y2="117.34"/><line class="cls-9" x1="289.67" y1="126.61" x2="284.29" y2="117.34"/><line class="cls-9" x1="295.04" y1="126.61" x2="289.67" y2="117.34"/><line class="cls-9" x1="300.41" y1="126.61" x2="295.04" y2="117.34"/><line class="cls-9" x1="305.78" y1="126.61" x2="300.41" y2="117.34"/><line class="cls-9" x1="311.15" y1="126.61" x2="305.78" y2="117.34"/><line class="cls-9" x1="316.52" y1="126.61" x2="311.15" y2="117.34"/><line class="cls-9" x1="321.82" y1="126.61" x2="316.52" y2="117.34"/><line class="cls-9" x1="327.19" y1="126.61" x2="321.82" y2="117.34"/><line class="cls-9" x1="332.56" y1="126.61" x2="327.19" y2="117.34"/><line class="cls-9" x1="333.22" y1="118.45" x2="332.56" y2="117.34"/><line class="cls-9" x1="274.29" y1="147.14" x2="284.15" y2="137.28"/><line class="cls-9" x1="287.46" y1="133.97" x2="294.82" y2="126.61"/><line class="cls-9" x1="300.55" y1="147.14" x2="310.41" y2="137.28"/><line class="cls-9" x1="313.73" y1="133.97" x2="321.08" y2="126.61"/><line class="cls-9" x1="326.9" y1="147.14" x2="335.28" y2="138.68"/><line class="cls-9" x1="270.76" y1="137.58" x2="270.98" y2="137.28"/><line class="cls-9" x1="274.29" y1="133.97" x2="281.64" y2="126.61"/><line class="cls-9" x1="287.46" y1="147.14" x2="297.32" y2="137.28"/><line class="cls-9" x1="300.55" y1="133.97" x2="307.91" y2="126.61"/><line class="cls-9" x1="313.73" y1="147.14" x2="323.59" y2="137.28"/><line class="cls-9" x1="326.9" y1="133.97" x2="334.03" y2="126.76"/><line class="cls-9" x1="333.08" y1="117.34" x2="272.82" y2="117.34"/><line class="cls-9" x1="334.03" y1="126.61" x2="271.86" y2="126.61"/><line class="cls-9" x1="269.43" y1="149.86" x2="336.39" y2="149.86"/><line class="cls-9" x1="333" y1="116.39" x2="272.89" y2="116.39"/><line class="cls-9" x1="18.01" y1="758.29" x2="10.58" y2="750.86"/><line class="cls-9" x1="8.15" y1="748.43" x2="0.87" y2="741.15"/><line class="cls-9" x1="19.48" y1="733.42" x2="13.89" y2="727.9"/><line class="cls-9" x1="11.46" y1="725.4" x2="4.03" y2="718.04"/><line class="cls-9" x1="1.6" y1="715.54" x2="0.87" y2="714.88"/><line class="cls-9" x1="19.48" y1="707.15" x2="17.2" y2="704.87"/><line class="cls-9" x1="14.7" y1="702.37" x2="7.34" y2="695.01"/><line class="cls-9" x1="4.84" y1="692.51" x2="0.87" y2="688.61"/><line class="cls-9" x1="18.01" y1="679.41" x2="10.58" y2="671.98"/><line class="cls-9" x1="8.15" y1="669.55" x2="0.87" y2="662.27"/><line class="cls-9" x1="19.48" y1="654.62" x2="13.89" y2="649.02"/><line class="cls-9" x1="11.46" y1="646.52" x2="4.03" y2="639.16"/><line class="cls-9" x1="1.6" y1="636.66" x2="0.87" y2="636"/><line class="cls-9" x1="19.48" y1="628.28" x2="17.2" y2="625.99"/><line class="cls-9" x1="14.7" y1="623.57" x2="7.34" y2="616.13"/><line class="cls-9" x1="4.84" y1="613.71" x2="0.87" y2="609.73"/><line class="cls-9" x1="18.01" y1="600.54" x2="10.58" y2="593.18"/><line class="cls-9" x1="8.15" y1="590.68" x2="0.87" y2="583.47"/><line class="cls-9" x1="19.48" y1="575.74" x2="13.89" y2="570.15"/><line class="cls-9" x1="11.46" y1="567.72" x2="4.03" y2="560.29"/><line class="cls-9" x1="1.6" y1="557.86" x2="0.87" y2="557.12"/><line class="cls-9" x1="19.48" y1="549.47" x2="17.2" y2="547.12"/><line class="cls-9" x1="14.7" y1="544.69" x2="7.34" y2="537.26"/><line class="cls-9" x1="4.84" y1="534.83" x2="0.94" y2="530.86"/><line class="cls-9" x1="9.84" y1="763.22" x2="8.96" y2="762.34"/><line class="cls-9" x1="6.53" y1="759.91" x2="0.87" y2="754.32"/><line class="cls-9" x1="19.48" y1="746.59" x2="12.27" y2="739.38"/><line class="cls-9" x1="9.77" y1="736.88" x2="2.41" y2="729.52"/><line class="cls-9" x1="19.48" y1="720.32" x2="15.51" y2="716.35"/><line class="cls-9" x1="13.08" y1="713.92" x2="5.72" y2="706.49"/><line class="cls-9" x1="3.22" y1="704.06" x2="0.87" y2="701.71"/><line class="cls-9" x1="19.48" y1="694.05" x2="18.82" y2="693.39"/><line class="cls-9" x1="16.39" y1="690.89" x2="8.96" y2="683.53"/><line class="cls-9" x1="6.53" y1="681.03" x2="0.87" y2="675.44"/><line class="cls-9" x1="19.48" y1="667.71" x2="12.27" y2="660.5"/><line class="cls-9" x1="9.77" y1="658.07" x2="2.41" y2="650.64"/><line class="cls-9" x1="19.48" y1="641.45" x2="15.51" y2="637.55"/><line class="cls-9" x1="13.08" y1="635.04" x2="5.72" y2="627.69"/><line class="cls-9" x1="3.22" y1="625.18" x2="0.87" y2="622.83"/><line class="cls-9" x1="19.48" y1="615.18" x2="18.82" y2="614.52"/><line class="cls-9" x1="16.39" y1="612.01" x2="8.96" y2="604.66"/><line class="cls-9" x1="6.53" y1="602.15" x2="0.87" y2="596.56"/><line class="cls-9" x1="19.48" y1="588.91" x2="12.27" y2="581.63"/><line class="cls-9" x1="9.77" y1="579.2" x2="2.41" y2="571.77"/><line class="cls-9" x1="19.48" y1="562.57" x2="15.51" y2="558.67"/><line class="cls-9" x1="13.08" y1="556.17" x2="5.72" y2="548.81"/><line class="cls-9" x1="3.22" y1="546.31" x2="0.87" y2="544.03"/><line class="cls-9" x1="19.48" y1="536.3" x2="18.82" y2="535.64"/><line class="cls-9" x1="16.39" y1="533.21" x2="14.04" y2="530.86"/><line class="cls-9" x1="13.16" y1="437.93" x2="10.58" y2="435.42"/><line class="cls-9" x1="8.15" y1="433" x2="0.87" y2="425.71"/><line class="cls-9" x1="19.48" y1="417.99" x2="13.89" y2="412.47"/><line class="cls-9" x1="11.46" y1="409.97" x2="4.03" y2="402.61"/><line class="cls-9" x1="1.6" y1="400.11" x2="0.87" y2="399.44"/><line class="cls-9" x1="19.48" y1="391.72" x2="17.2" y2="389.44"/><line class="cls-9" x1="14.7" y1="386.94" x2="7.34" y2="379.58"/><line class="cls-9" x1="4.84" y1="377.15" x2="0.87" y2="373.18"/><line class="cls-9" x1="18.01" y1="363.98" x2="10.58" y2="356.55"/><line class="cls-9" x1="8.15" y1="354.12" x2="0.87" y2="346.84"/><line class="cls-9" x1="19.48" y1="339.18" x2="13.89" y2="333.59"/><line class="cls-9" x1="11.46" y1="331.09" x2="4.03" y2="323.73"/><line class="cls-9" x1="1.6" y1="321.23" x2="0.87" y2="320.57"/><line class="cls-9" x1="19.48" y1="312.92" x2="17.2" y2="310.56"/><line class="cls-9" x1="14.7" y1="308.13" x2="7.34" y2="300.7"/><line class="cls-9" x1="4.84" y1="298.27" x2="0.87" y2="294.3"/><line class="cls-9" x1="18.01" y1="285.1" x2="10.58" y2="277.75"/><line class="cls-9" x1="8.15" y1="275.24" x2="0.87" y2="268.03"/><line class="cls-9" x1="19.48" y1="260.31" x2="13.89" y2="254.71"/><line class="cls-9" x1="11.46" y1="252.29" x2="4.03" y2="244.86"/><line class="cls-9" x1="1.6" y1="242.43" x2="0.87" y2="241.69"/><line class="cls-9" x1="19.48" y1="234.04" x2="17.2" y2="231.76"/><line class="cls-9" x1="14.7" y1="229.26" x2="9.7" y2="224.18"/><line class="cls-9" x1="19.48" y1="431.16" x2="12.27" y2="423.95"/><line class="cls-9" x1="9.77" y1="421.44" x2="2.41" y2="414.09"/><line class="cls-9" x1="19.48" y1="404.89" x2="15.51" y2="400.92"/><line class="cls-9" x1="13.08" y1="398.49" x2="5.72" y2="391.06"/><line class="cls-9" x1="3.22" y1="388.63" x2="0.87" y2="386.27"/><line class="cls-9" x1="19.48" y1="378.62" x2="18.82" y2="377.96"/><line class="cls-9" x1="16.39" y1="375.46" x2="8.96" y2="368.1"/><line class="cls-9" x1="6.53" y1="365.6" x2="0.87" y2="360.01"/><line class="cls-9" x1="19.48" y1="352.28" x2="12.27" y2="345.07"/><line class="cls-9" x1="9.77" y1="342.64" x2="2.41" y2="335.21"/><line class="cls-9" x1="19.48" y1="326.01" x2="15.51" y2="322.11"/><line class="cls-9" x1="13.08" y1="319.61" x2="5.72" y2="312.25"/><line class="cls-9" x1="3.22" y1="309.75" x2="0.87" y2="307.47"/><line class="cls-9" x1="19.48" y1="299.75" x2="18.82" y2="299.08"/><line class="cls-9" x1="16.39" y1="296.58" x2="8.96" y2="289.22"/><line class="cls-9" x1="6.53" y1="286.72" x2="0.87" y2="281.13"/><line class="cls-9" x1="19.48" y1="273.48" x2="12.27" y2="266.19"/><line class="cls-9" x1="9.77" y1="263.77" x2="2.41" y2="256.33"/><line class="cls-9" x1="19.48" y1="247.14" x2="15.51" y2="243.24"/><line class="cls-9" x1="13.08" y1="240.74" x2="5.72" y2="233.38"/><line class="cls-9" x1="3.22" y1="230.88" x2="0.87" y2="228.59"/><line class="cls-9" x1="19.48" y1="763.22" x2="19.48" y2="530.86"/><line class="cls-9" x1="19.48" y1="437.93" x2="19.48" y2="224.18"/><line class="cls-9" x1="0.87" y1="224.18" x2="0.87" y2="437.93"/><line class="cls-9" x1="0.87" y1="530.86" x2="0.87" y2="763.22"/><line class="cls-9" x1="350.88" y1="775.73" x2="345.73" y2="770.58"/><line class="cls-9" x1="357.43" y1="769.11" x2="357.28" y2="768.96"/><line class="cls-9" x1="354.78" y1="766.46" x2="351.55" y2="763.22"/><line class="cls-9" x1="363.32" y1="761.89" x2="358.9" y2="757.41"/><line class="cls-9" x1="356.47" y1="754.98" x2="349.04" y2="747.55"/><line class="cls-9" x1="346.62" y1="745.12" x2="344.78" y2="743.28"/><line class="cls-9" x1="363.32" y1="735.63" x2="362.21" y2="734.45"/><line class="cls-9" x1="359.71" y1="731.95" x2="352.35" y2="724.59"/><line class="cls-9" x1="349.85" y1="722.09" x2="344.78" y2="717.01"/><line class="cls-9" x1="363.02" y1="708.99" x2="355.59" y2="701.56"/><line class="cls-9" x1="353.16" y1="699.13" x2="345.73" y2="691.7"/><line class="cls-9" x1="363.32" y1="683.02" x2="358.9" y2="678.6"/><line class="cls-9" x1="356.47" y1="676.1" x2="349.04" y2="668.74"/><line class="cls-9" x1="346.62" y1="666.24" x2="344.78" y2="664.4"/><line class="cls-9" x1="363.32" y1="656.75" x2="362.21" y2="655.57"/><line class="cls-9" x1="359.71" y1="653.14" x2="352.35" y2="645.71"/><line class="cls-9" x1="349.85" y1="643.29" x2="344.78" y2="638.13"/><line class="cls-9" x1="363.02" y1="630.11" x2="355.59" y2="622.76"/><line class="cls-9" x1="353.16" y1="620.26" x2="345.73" y2="612.9"/><line class="cls-9" x1="363.32" y1="604.14" x2="358.9" y2="599.73"/><line class="cls-9" x1="356.47" y1="597.22" x2="349.04" y2="589.87"/><line class="cls-9" x1="346.62" y1="587.44" x2="344.78" y2="585.6"/><line class="cls-9" x1="363.32" y1="577.87" x2="362.21" y2="576.7"/><line class="cls-9" x1="359.71" y1="574.27" x2="352.35" y2="566.84"/><line class="cls-9" x1="349.85" y1="564.41" x2="344.78" y2="559.26"/><line class="cls-9" x1="363.02" y1="551.24" x2="355.59" y2="543.88"/><line class="cls-9" x1="353.16" y1="541.38" x2="345.73" y2="534.02"/><line class="cls-9" x1="351.55" y1="763.22" x2="347.42" y2="759.1"/><line class="cls-9" x1="344.92" y1="756.6" x2="344.78" y2="756.45"/><line class="cls-9" x1="363.32" y1="748.72" x2="360.52" y2="745.93"/><line class="cls-9" x1="358.09" y1="743.5" x2="350.66" y2="736.07"/><line class="cls-9" x1="348.23" y1="733.64" x2="344.78" y2="730.18"/><line class="cls-9" x1="361.4" y1="720.47" x2="353.97" y2="713.11"/><line class="cls-9" x1="351.55" y1="710.61" x2="344.78" y2="703.84"/><line class="cls-9" x1="363.32" y1="696.19" x2="357.28" y2="690.08"/><line class="cls-9" x1="354.78" y1="687.65" x2="347.42" y2="680.22"/><line class="cls-9" x1="344.92" y1="677.79" x2="344.78" y2="677.57"/><line class="cls-9" x1="363.32" y1="669.85" x2="360.52" y2="667.05"/><line class="cls-9" x1="358.09" y1="664.62" x2="350.66" y2="657.19"/><line class="cls-9" x1="348.23" y1="654.76" x2="344.78" y2="651.31"/><line class="cls-9" x1="361.4" y1="641.59" x2="353.97" y2="634.24"/><line class="cls-9" x1="351.55" y1="631.73" x2="344.78" y2="625.04"/><line class="cls-9" x1="363.32" y1="617.31" x2="357.28" y2="611.2"/><line class="cls-9" x1="354.78" y1="608.78" x2="347.42" y2="601.35"/><line class="cls-9" x1="344.92" y1="598.92" x2="344.78" y2="598.7"/><line class="cls-9" x1="363.32" y1="591.04" x2="360.52" y2="588.25"/><line class="cls-9" x1="358.09" y1="585.75" x2="350.66" y2="578.39"/><line class="cls-9" x1="348.23" y1="575.89" x2="344.78" y2="572.43"/><line class="cls-9" x1="361.4" y1="562.79" x2="353.97" y2="555.36"/><line class="cls-9" x1="351.55" y1="552.93" x2="344.78" y2="546.16"/><line class="cls-9" x1="363.32" y1="538.44" x2="357.28" y2="532.4"/><line class="cls-9" x1="362.58" y1="419.38" x2="362.21" y2="419.02"/><line class="cls-9" x1="359.71" y1="416.52" x2="352.35" y2="409.16"/><line class="cls-9" x1="349.85" y1="406.66" x2="344.78" y2="401.58"/><line class="cls-9" x1="363.02" y1="393.56" x2="355.59" y2="386.13"/><line class="cls-9" x1="353.16" y1="383.7" x2="345.73" y2="376.27"/><line class="cls-9" x1="363.32" y1="367.59" x2="358.9" y2="363.17"/><line class="cls-9" x1="356.47" y1="360.67" x2="349.04" y2="353.31"/><line class="cls-9" x1="346.62" y1="350.81" x2="344.78" y2="348.97"/><line class="cls-9" x1="363.32" y1="341.32" x2="362.21" y2="340.14"/><line class="cls-9" x1="359.71" y1="337.71" x2="352.35" y2="330.28"/><line class="cls-9" x1="349.85" y1="327.85" x2="344.78" y2="322.7"/><line class="cls-9" x1="363.02" y1="314.68" x2="355.59" y2="307.32"/><line class="cls-9" x1="353.16" y1="304.82" x2="345.73" y2="297.46"/><line class="cls-9" x1="363.32" y1="288.71" x2="358.9" y2="284.29"/><line class="cls-9" x1="356.47" y1="281.87" x2="349.04" y2="274.43"/><line class="cls-9" x1="346.62" y1="272.01" x2="344.78" y2="270.17"/><line class="cls-9" x1="363.32" y1="262.44" x2="362.21" y2="261.26"/><line class="cls-9" x1="359.71" y1="258.84" x2="352.35" y2="251.4"/><line class="cls-9" x1="349.85" y1="248.98" x2="344.78" y2="243.9"/><line class="cls-9" x1="363.02" y1="235.81" x2="355.59" y2="228.45"/><line class="cls-9" x1="353.16" y1="225.95" x2="351.4" y2="224.18"/><line class="cls-9" x1="348.23" y1="418.21" x2="344.78" y2="414.75"/><line class="cls-9" x1="361.4" y1="405.04" x2="353.97" y2="397.68"/><line class="cls-9" x1="351.55" y1="395.18" x2="344.78" y2="388.41"/><line class="cls-9" x1="363.32" y1="380.76" x2="357.28" y2="374.65"/><line class="cls-9" x1="354.78" y1="372.22" x2="347.42" y2="364.79"/><line class="cls-9" x1="344.92" y1="362.36" x2="344.78" y2="362.14"/><line class="cls-9" x1="363.32" y1="354.41" x2="360.52" y2="351.62"/><line class="cls-9" x1="358.09" y1="349.19" x2="350.66" y2="341.76"/><line class="cls-9" x1="348.23" y1="339.33" x2="344.78" y2="335.87"/><line class="cls-9" x1="361.4" y1="326.16" x2="353.97" y2="318.8"/><line class="cls-9" x1="351.55" y1="316.3" x2="344.78" y2="309.6"/><line class="cls-9" x1="363.32" y1="301.88" x2="357.28" y2="295.77"/><line class="cls-9" x1="354.78" y1="293.34" x2="347.42" y2="285.91"/><line class="cls-9" x1="344.92" y1="283.48" x2="344.78" y2="283.26"/><line class="cls-9" x1="363.32" y1="275.61" x2="360.52" y2="272.82"/><line class="cls-9" x1="358.09" y1="270.31" x2="350.66" y2="262.96"/><line class="cls-9" x1="348.23" y1="260.45" x2="344.78" y2="257"/><line class="cls-9" x1="361.4" y1="247.36" x2="353.97" y2="239.93"/><line class="cls-9" x1="351.55" y1="237.5" x2="344.78" y2="230.73"/><line class="cls-9" x1="363.32" y1="763.22" x2="363.32" y2="530.86"/><line class="cls-9" x1="363.32" y1="419.38" x2="363.32" y2="224.18"/><line class="cls-9" x1="344.78" y1="224.18" x2="344.78" y2="419.38"/><line class="cls-9" x1="344.78" y1="530.86" x2="344.78" y2="707.45"/><line class="cls-9" x1="344.78" y1="726.06" x2="344.78" y2="781.83"/><line class="cls-9" x1="356.99" y1="781.83" x2="355.59" y2="780.44"/><line class="cls-9" x1="353.16" y1="778.01" x2="350.88" y2="775.73"/><line class="cls-9" x1="363.32" y1="774.99" x2="357.43" y2="769.11"/><line class="cls-9" x1="344.78" y1="781.83" x2="363.32" y2="781.83"/><line class="cls-9" x1="0.5" y1="545.79" x2="0.87" y2="545.35"/><line class="cls-9" x1="290.84" y1="492.01" x2="290.99" y2="491.86"/><line class="cls-9" x1="290.84" y1="498.56" x2="297.54" y2="491.86"/><line class="cls-9" x1="290.84" y1="505.1" x2="298.27" y2="497.67"/><line class="cls-9" x1="290.84" y1="511.73" x2="298.27" y2="504.29"/><line class="cls-9" x1="290.84" y1="518.27" x2="298.27" y2="510.84"/><line class="cls-9" x1="290.84" y1="524.82" x2="298.27" y2="517.39"/><line class="cls-9" x1="290.84" y1="531.45" x2="298.27" y2="524.01"/><line class="cls-9" x1="290.84" y1="537.99" x2="298.27" y2="530.56"/><line class="cls-9" x1="297.1" y1="538.29" x2="298.27" y2="537.11"/><line class="cls-9" x1="298.27" y1="538.29" x2="298.27" y2="491.86"/><line class="cls-9" x1="290.84" y1="491.86" x2="290.84" y2="538.29"/><line class="cls-9" x1="19.48" y1="539.91" x2="21.1" y2="538.29"/><line class="cls-9" x1="20.22" y1="545.79" x2="27.65" y2="538.29"/><line class="cls-9" x1="26.77" y1="545.79" x2="34.2" y2="538.29"/><line class="cls-9" x1="33.39" y1="545.79" x2="38.1" y2="541.08"/><line class="cls-9" x1="121.68" y1="542.85" x2="126.25" y2="538.29"/><line class="cls-9" x1="125.36" y1="545.79" x2="132.79" y2="538.29"/><line class="cls-9" x1="131.91" y1="545.79" x2="139.34" y2="538.29"/><line class="cls-9" x1="138.53" y1="545.79" x2="145.97" y2="538.29"/><line class="cls-9" x1="145.08" y1="545.79" x2="152.51" y2="538.29"/><line class="cls-9" x1="151.63" y1="545.79" x2="159.06" y2="538.29"/><line class="cls-9" x1="158.25" y1="545.79" x2="165.68" y2="538.29"/><line class="cls-9" x1="164.8" y1="545.79" x2="172.23" y2="538.29"/><line class="cls-9" x1="171.35" y1="545.79" x2="174.66" y2="542.41"/><line class="cls-9" x1="38.1" y1="538.29" x2="38.1" y2="545.79"/><line class="cls-9" x1="121.68" y1="538.29" x2="121.68" y2="545.79"/><line class="cls-9" x1="19.48" y1="545.79" x2="38.1" y2="545.79"/><line class="cls-9" x1="121.68" y1="545.79" x2="174.66" y2="545.79"/><line class="cls-9" x1="174.66" y1="538.29" x2="121.68" y2="538.29"/><polyline class="cls-9" points="38.1 538.29 19.48 538.29 19.48 545.79"/><line class="cls-9" x1="174.66" y1="496.42" x2="179.3" y2="491.86"/><line class="cls-9" x1="174.66" y1="503.04" x2="182.09" y2="495.54"/><line class="cls-9" x1="174.66" y1="509.59" x2="182.09" y2="502.16"/><line class="cls-9" x1="174.66" y1="516.14" x2="182.09" y2="508.71"/><line class="cls-9" x1="174.66" y1="522.69" x2="182.09" y2="515.26"/><line class="cls-9" x1="174.66" y1="529.31" x2="182.09" y2="521.88"/><line class="cls-9" x1="174.66" y1="535.86" x2="182.09" y2="528.43"/><line class="cls-9" x1="174.66" y1="542.41" x2="182.09" y2="534.98"/><line class="cls-9" x1="174.66" y1="549.03" x2="182.09" y2="541.6"/><line class="cls-9" x1="174.66" y1="555.58" x2="182.09" y2="548.15"/><line class="cls-9" x1="174.66" y1="562.13" x2="182.09" y2="554.7"/><line class="cls-9" x1="174.66" y1="568.75" x2="182.09" y2="561.32"/><line class="cls-9" x1="174.66" y1="575.3" x2="182.09" y2="567.87"/><line class="cls-9" x1="174.66" y1="581.85" x2="182.09" y2="574.42"/><line class="cls-9" x1="174.66" y1="588.47" x2="182.09" y2="581.04"/><line class="cls-9" x1="174.66" y1="595.02" x2="182.09" y2="587.59"/><line class="cls-9" x1="174.66" y1="601.57" x2="182.09" y2="594.13"/><line class="cls-9" x1="174.66" y1="608.19" x2="182.09" y2="600.68"/><line class="cls-9" x1="174.66" y1="614.74" x2="182.09" y2="607.31"/><line class="cls-9" x1="174.66" y1="621.29" x2="182.09" y2="613.85"/><line class="cls-9" x1="175.91" y1="626.58" x2="182.09" y2="620.4"/><line class="cls-9" x1="174.66" y1="693.61" x2="176.57" y2="691.7"/><line class="cls-9" x1="174.66" y1="700.16" x2="182.09" y2="692.73"/><line class="cls-9" x1="174.66" y1="706.71" x2="182.09" y2="699.28"/><line class="cls-9" x1="174.66" y1="713.26" x2="182.09" y2="705.83"/><line class="cls-9" x1="174.66" y1="719.88" x2="182.09" y2="712.45"/><line class="cls-9" x1="174.66" y1="726.43" x2="182.09" y2="719"/><line class="cls-9" x1="174.66" y1="732.98" x2="182.09" y2="725.55"/><line class="cls-9" x1="174.66" y1="739.6" x2="182.09" y2="732.17"/><line class="cls-9" x1="174.66" y1="746.15" x2="182.09" y2="738.72"/><line class="cls-9" x1="174.66" y1="752.7" x2="182.09" y2="745.27"/><line class="cls-9" x1="174.66" y1="759.32" x2="182.09" y2="751.89"/><line class="cls-9" x1="177.31" y1="763.22" x2="182.09" y2="758.44"/><line class="cls-9" x1="174.66" y1="489.87" x2="177.38" y2="487.15"/><line class="cls-9" x1="179.3" y1="491.86" x2="180.69" y2="490.46"/><line class="cls-9" x1="182.09" y1="691.7" x2="174.66" y2="691.7"/><line class="cls-9" x1="182.09" y1="626.58" x2="174.66" y2="626.58"/><line class="cls-9" x1="174.66" y1="484.43" x2="174.66" y2="538.29"/><line class="cls-9" x1="174.66" y1="545.79" x2="174.66" y2="626.58"/><line class="cls-9" x1="174.66" y1="691.7" x2="174.66" y2="763.22"/><line class="cls-9" x1="182.09" y1="763.22" x2="182.09" y2="691.7"/><line class="cls-9" x1="182.09" y1="626.58" x2="182.09" y2="545.79"/><line class="cls-9" x1="182.09" y1="538.29" x2="182.09" y2="491.86"/><line class="cls-9" x1="177.38" y1="487.15" x2="180.11" y2="484.43"/><line class="cls-9" x1="180.69" y1="490.46" x2="182.09" y2="488.99"/><line class="cls-9" x1="174.66" y1="484.43" x2="182.09" y2="484.43"/><line class="cls-9" x1="182.09" y1="541.6" x2="185.4" y2="538.29"/><line class="cls-9" x1="184.52" y1="545.79" x2="191.95" y2="538.29"/><line class="cls-9" x1="191.07" y1="545.79" x2="198.5" y2="538.29"/><line class="cls-9" x1="197.69" y1="545.79" x2="205.12" y2="538.29"/><line class="cls-9" x1="204.24" y1="545.79" x2="211.67" y2="538.29"/><line class="cls-9" x1="210.79" y1="545.79" x2="218.22" y2="538.29"/><line class="cls-9" x1="217.34" y1="545.79" x2="224.84" y2="538.29"/><line class="cls-9" x1="223.96" y1="545.79" x2="231.39" y2="538.29"/><line class="cls-9" x1="230.51" y1="545.79" x2="237.94" y2="538.29"/><line class="cls-9" x1="237.06" y1="545.79" x2="244.49" y2="538.29"/><line class="cls-9" x1="243.68" y1="545.79" x2="251.11" y2="538.29"/><line class="cls-9" x1="250.23" y1="545.79" x2="257.66" y2="538.29"/><line class="cls-9" x1="256.78" y1="545.79" x2="264.21" y2="538.29"/><line class="cls-9" x1="263.4" y1="545.79" x2="270.83" y2="538.29"/><line class="cls-9" x1="269.95" y1="545.79" x2="277.38" y2="538.29"/><line class="cls-9" x1="276.49" y1="545.79" x2="283.93" y2="538.29"/><line class="cls-9" x1="283.12" y1="545.79" x2="290.55" y2="538.29"/><line class="cls-9" x1="289.67" y1="545.79" x2="297.1" y2="538.29"/><line class="cls-9" x1="296.21" y1="545.79" x2="298.27" y2="543.66"/><line class="cls-9" x1="335.5" y1="539.39" x2="336.53" y2="538.29"/><line class="cls-9" x1="335.65" y1="545.79" x2="343.08" y2="538.29"/><line class="cls-9" x1="342.2" y1="545.79" x2="344.78" y2="543.22"/><polyline class="cls-9" points="335.5 545.79 335.5 542.04 335.5 538.29"/><polyline class="cls-9" points="298.27 545.79 298.27 542.04 298.27 538.29"/><line class="cls-9" x1="344.78" y1="538.29" x2="335.5" y2="538.29"/><line class="cls-9" x1="290.84" y1="538.29" x2="182.09" y2="538.29"/><line class="cls-9" x1="182.09" y1="545.79" x2="298.27" y2="545.79"/><polyline class="cls-9" points="335.5 545.79 344.78 545.79 344.78 538.29"/><line class="cls-9" x1="298.27" y1="545.79" x2="335.5" y2="545.79"/><line class="cls-9" x1="298.27" y1="538.29" x2="335.5" y2="538.29"/><path class="cls-9" d="M298.59,574.09a37,37,0,0,0,2.24,12.72" transform="translate(-0.31 -28.34)"/><line class="cls-9" x1="335.5" y1="545.79" x2="300.55" y2="558.45"/><polyline class="cls-9" points="298.27 538.29 298.27 542.04 298.27 545.79 298.27 542.04"/><polyline class="cls-9" points="335.5 538.29 335.5 542.04 335.5 545.79 335.5 542.04"/><line class="cls-9" x1="301.22" y1="726.06" x2="296.51" y2="721.28"/><line class="cls-9" x1="294.01" y1="718.85" x2="286.65" y2="711.42"/><line class="cls-9" x1="284.15" y1="708.99" x2="282.68" y2="707.45"/><line class="cls-9" x1="326.9" y1="725.4" x2="319.46" y2="718.04"/><line class="cls-9" x1="317.04" y1="715.54" x2="309.61" y2="708.18"/><line class="cls-9" x1="344.78" y1="717.01" x2="342.49" y2="714.73"/><line class="cls-9" x1="339.99" y1="712.23" x2="335.21" y2="707.45"/><line class="cls-9" x1="288.12" y1="726.06" x2="284.96" y2="722.97"/><line class="cls-9" x1="282.53" y1="720.47" x2="275.1" y2="713.11"/><line class="cls-9" x1="314.39" y1="726.06" x2="307.99" y2="719.66"/><line class="cls-9" x1="305.48" y1="717.16" x2="298.13" y2="709.8"/><line class="cls-9" x1="338.37" y1="723.78" x2="330.94" y2="716.35"/><line class="cls-9" x1="328.51" y1="713.92" x2="322.04" y2="707.45"/><line class="cls-9" x1="272.67" y1="710.61" x2="269.5" y2="707.45"/><line class="cls-9" x1="344.78" y1="707.45" x2="256.48" y2="707.45"/><line class="cls-9" x1="275.1" y1="726.06" x2="344.78" y2="726.06"/><line class="cls-9" x1="274.95" y1="726.06" x2="273.48" y2="724.59"/><line class="cls-9" x1="270.98" y1="722.09" x2="263.62" y2="714.73"/><line class="cls-9" x1="261.19" y1="712.23" x2="256.48" y2="707.59"/><line class="cls-9" x1="259.5" y1="723.78" x2="256.48" y2="720.69"/><line class="cls-9" x1="256.48" y1="707.45" x2="256.48" y2="726.06"/><line class="cls-9" x1="259.57" y1="763.22" x2="257.07" y2="760.72"/><line class="cls-9" x1="275.1" y1="752.48" x2="270.17" y2="747.55"/><line class="cls-9" x1="267.74" y1="745.12" x2="260.31" y2="737.76"/><line class="cls-9" x1="257.88" y1="735.26" x2="256.48" y2="733.86"/><line class="cls-9" x1="275.1" y1="726.14" x2="274.95" y2="726.06"/><line class="cls-9" x1="272.67" y1="763.22" x2="268.55" y2="759.1"/><line class="cls-9" x1="266.12" y1="756.6" x2="258.69" y2="749.24"/><line class="cls-9" x1="275.1" y1="739.31" x2="271.86" y2="736.07"/><line class="cls-9" x1="269.36" y1="733.64" x2="262" y2="726.21"/><line class="cls-9" x1="256.48" y1="726.06" x2="256.48" y2="763.22"/><line class="cls-9" x1="275.1" y1="763.22" x2="275.1" y2="726.06"/><line class="cls-9" x1="363.32" y1="781.83" x2="363.32" y2="777.13"/><line class="cls-9" x1="363.32" y1="774.7" x2="363.32" y2="767.27"/><line class="cls-9" x1="363.32" y1="764.84" x2="363.32" y2="763.22"/><line class="cls-9" x1="363.32" y1="781.83" x2="363.32" y2="778.82"/><line class="cls-9" x1="363.32" y1="776.32" x2="363.32" y2="774.99"/><line class="cls-9" x1="363.32" y1="781.83" x2="363.32" y2="775.51"/><line class="cls-9" x1="363.32" y1="773.08" x2="363.32" y2="765.65"/><line class="cls-9" x1="363.32" y1="781.83" x2="363.32" y2="781.83"/><line class="cls-9" x1="363.32" y1="763.22" x2="363.32" y2="763.22"/><line class="cls-9" x1="275.39" y1="781.83" x2="286.57" y2="770.65"/><line class="cls-9" x1="290.18" y1="781.83" x2="301.36" y2="770.65"/><line class="cls-9" x1="304.97" y1="781.83" x2="316.08" y2="770.65"/><line class="cls-9" x1="319.76" y1="781.83" x2="330.87" y2="770.65"/><line class="cls-9" x1="334.55" y1="781.83" x2="344.78" y2="771.61"/><line class="cls-9" x1="275.1" y1="777.2" x2="281.64" y2="770.65"/><line class="cls-9" x1="285.25" y1="781.83" x2="296.43" y2="770.65"/><line class="cls-9" x1="300.04" y1="781.83" x2="311.15" y2="770.65"/><line class="cls-9" x1="314.83" y1="781.83" x2="325.94" y2="770.65"/><line class="cls-9" x1="329.62" y1="781.83" x2="340.73" y2="770.65"/><line class="cls-9" x1="344.41" y1="781.83" x2="344.78" y2="781.47"/><polyline class="cls-9" points="275.1 781.84 344.78 781.84 344.78 770.65 275.1 770.65"/><line class="cls-9" x1="182.09" y1="488.99" x2="186.73" y2="484.43"/><line class="cls-9" x1="185.85" y1="491.86" x2="193.28" y2="484.43"/><line class="cls-9" x1="192.39" y1="491.86" x2="199.83" y2="484.43"/><line class="cls-9" x1="199.02" y1="491.86" x2="206.45" y2="484.43"/><line class="cls-9" x1="205.56" y1="491.86" x2="213" y2="484.43"/><line class="cls-9" x1="212.11" y1="491.86" x2="219.54" y2="484.43"/><line class="cls-9" x1="218.74" y1="491.86" x2="226.17" y2="484.43"/><line class="cls-9" x1="225.28" y1="491.86" x2="232.72" y2="484.43"/><line class="cls-9" x1="231.83" y1="491.86" x2="239.26" y2="484.43"/><line class="cls-9" x1="238.38" y1="491.86" x2="245.89" y2="484.43"/><line class="cls-9" x1="245" y1="491.86" x2="252.43" y2="484.43"/><line class="cls-9" x1="251.55" y1="491.86" x2="258.98" y2="484.43"/><line class="cls-9" x1="258.1" y1="491.86" x2="265.53" y2="484.43"/><line class="cls-9" x1="264.72" y1="491.86" x2="272.15" y2="484.43"/><line class="cls-9" x1="271.27" y1="491.86" x2="278.7" y2="484.43"/><line class="cls-9" x1="277.82" y1="491.86" x2="285.25" y2="484.43"/><line class="cls-9" x1="284.44" y1="491.86" x2="291.87" y2="484.43"/><line class="cls-9" x1="290.99" y1="491.86" x2="298.42" y2="484.43"/><line class="cls-9" x1="297.54" y1="491.86" x2="304.97" y2="484.43"/><line class="cls-9" x1="304.16" y1="491.86" x2="311.59" y2="484.43"/><line class="cls-9" x1="310.71" y1="491.86" x2="318.14" y2="484.43"/><line class="cls-9" x1="317.26" y1="491.86" x2="324.69" y2="484.43"/><line class="cls-9" x1="323.88" y1="491.86" x2="331.31" y2="484.43"/><line class="cls-9" x1="330.43" y1="491.86" x2="337.86" y2="484.43"/><line class="cls-9" x1="336.98" y1="491.86" x2="344.41" y2="484.43"/><line class="cls-9" x1="343.52" y1="491.86" x2="344.78" y2="490.68"/><line class="cls-9" x1="182.09" y1="491.86" x2="290.84" y2="491.86"/><line class="cls-9" x1="298.27" y1="491.86" x2="344.78" y2="491.86"/><line class="cls-9" x1="344.78" y1="484.43" x2="182.09" y2="484.43"/><line class="cls-9" x1="14.7" y1="781.25" x2="7.34" y2="773.89"/><line class="cls-9" x1="4.84" y1="771.39" x2="0.87" y2="767.41"/><line class="cls-9" x1="2.12" y1="781.83" x2="0.87" y2="780.58"/><line class="cls-9" x1="19.48" y1="772.86" x2="18.82" y2="772.2"/><line class="cls-9" x1="16.39" y1="769.77" x2="9.84" y2="763.22"/><line class="cls-9" x1="120.43" y1="781.83" x2="119.04" y2="780.44"/><line class="cls-9" x1="146.7" y1="781.83" x2="142.07" y2="777.13"/><line class="cls-9" x1="139.56" y1="774.7" x2="132.21" y2="767.27"/><line class="cls-9" x1="129.7" y1="764.84" x2="128.09" y2="763.22"/><line class="cls-9" x1="162.59" y1="771.39" x2="155.16" y2="764.03"/><line class="cls-9" x1="133.53" y1="781.83" x2="130.51" y2="778.82"/><line class="cls-9" x1="128.09" y1="776.32" x2="120.65" y2="768.96"/><line class="cls-9" x1="118.23" y1="766.46" x2="117.05" y2="765.35"/><line class="cls-9" x1="159.87" y1="781.83" x2="153.54" y2="775.51"/><line class="cls-9" x1="151.12" y1="773.08" x2="143.68" y2="765.65"/><polyline class="cls-9" points="0.87 781.84 0.87 774.4 0.87 763.22"/><polyline class="cls-9" points="19.48 781.84 19.48 774.4 19.48 763.22"/><polyline class="cls-9" points="117.05 781.84 117.05 774.4 117.05 763.22"/><line class="cls-9" x1="0.87" y1="781.83" x2="19.48" y2="781.83"/><line class="cls-9" x1="117.05" y1="781.83" x2="163.55" y2="781.83"/><line class="cls-9" x1="163.55" y1="763.22" x2="117.05" y2="763.22"/><polyline class="cls-9" points="0.87 763.22 0.87 774.4 0.87 781.84 0.87 774.4"/><path class="cls-9" d="M113.68,802.7a85.53,85.53,0,0,0-85.53-85.53" transform="translate(-0.31 -28.34)"/><line class="cls-9" x1="24.12" y1="774.4" x2="19.48" y2="774.4"/><polyline class="cls-9" points="24.12 781.84 19.48 781.84 19.48 774.4"/><polyline class="cls-9" points="117.05 781.84 113.37 781.84 113.37 774.4 117.05 774.4 117.05 781.84"/><polyline class="cls-9" points="24.12 774.4 27.87 774.4 27.87 781.84 24.12 781.84 24.12 774.4"/><line class="cls-9" x1="27.87" y1="774.4" x2="27.87" y2="688.9"/><polyline class="cls-9" points="117.05 763.22 117.05 774.4 117.05 781.84 117.05 774.4"/><polyline class="cls-9" points="19.48 763.22 19.48 774.4 19.48 781.84 19.48 774.4"/><line class="cls-9" x1="0.87" y1="128.38" x2="2.19" y2="126.03"/><line class="cls-9" x1="4.55" y1="131.25" x2="8.3" y2="124.77"/><line class="cls-9" x1="9.92" y1="131.25" x2="14.41" y2="123.52"/><line class="cls-9" x1="15.29" y1="131.25" x2="19.48" y2="124.04"/><line class="cls-9" x1="2.63" y1="131.25" x2="0.87" y2="128.31"/><line class="cls-9" x1="7.93" y1="131.25" x2="4.69" y2="125.58"/><line class="cls-9" x1="13.3" y1="131.25" x2="9.48" y2="124.55"/><line class="cls-9" x1="18.67" y1="131.25" x2="14.26" y2="123.6"/><line class="cls-9" x1="19.48" y1="123.38" x2="19.04" y2="122.57"/><line class="cls-9" x1="2.19" y1="126.03" x2="4.55" y2="121.98"/><line class="cls-9" x1="8.3" y1="124.77" x2="9.92" y2="121.98"/><line class="cls-9" x1="14.41" y1="123.52" x2="15.29" y2="121.98"/><line class="cls-9" x1="4.69" y1="125.58" x2="2.63" y2="121.98"/><line class="cls-9" x1="9.48" y1="124.55" x2="7.93" y2="121.98"/><line class="cls-9" x1="14.26" y1="123.6" x2="13.3" y2="121.98"/><line class="cls-9" x1="19.04" y1="122.57" x2="18.67" y2="121.98"/><polyline class="cls-9" points="0.87 116.97 0.87 131.25 19.48 131.25 19.48 122.49"/><line class="cls-9" x1="344.78" y1="127.57" x2="346.84" y2="123.97"/><line class="cls-9" x1="348.01" y1="131.25" x2="352.87" y2="122.71"/><line class="cls-9" x1="353.38" y1="131.25" x2="358.98" y2="121.46"/><line class="cls-9" x1="358.68" y1="131.25" x2="363.32" y2="123.23"/><line class="cls-9" x1="346.03" y1="131.25" x2="344.78" y2="129.12"/><line class="cls-9" x1="351.4" y1="131.25" x2="347.13" y2="123.97"/><line class="cls-9" x1="356.7" y1="131.25" x2="351.91" y2="122.94"/><line class="cls-9" x1="362.07" y1="131.25" x2="356.7" y2="121.98"/><line class="cls-9" x1="363.32" y1="124.11" x2="361.48" y2="120.95"/><line class="cls-9" x1="344.78" y1="118.23" x2="345.29" y2="117.34"/><line class="cls-9" x1="346.84" y1="123.97" x2="350.66" y2="117.34"/><line class="cls-9" x1="352.87" y1="122.71" x2="356.03" y2="117.34"/><line class="cls-9" x1="358.98" y1="121.46" x2="361.4" y2="117.34"/><line class="cls-9" x1="347.13" y1="123.97" x2="344.78" y2="119.84"/><line class="cls-9" x1="351.91" y1="122.94" x2="348.68" y2="117.34"/><line class="cls-9" x1="356.7" y1="121.98" x2="354.05" y2="117.34"/><line class="cls-9" x1="361.48" y1="120.95" x2="359.42" y2="117.34"/><polyline class="cls-9" points="344.78 124.41 344.78 131.25 363.32 131.25 363.32 110.25"/><polyline class="cls-9" points="266.41 112.71 276.71 62.6 277.16 62.75 266.86 112.78 266.41 112.71"/><polyline class="cls-9" points="275.61 60.98 191.88 43.76 191.95 43.32 275.69 60.54 275.61 60.98"/><polyline class="cls-9" points="190.19 44.87 179.88 94.9 179.44 94.83 189.75 44.72 190.19 44.87"/><polyline class="cls-9" points="264.57 114.69 265.02 112.41 267.3 112.86 266.86 115.14 264.57 114.69"/><polyline class="cls-9" points="275.32 62.38 275.83 60.1 278.04 60.54 277.6 62.82 275.32 62.38"/><polyline class="cls-9" points="191.58 45.09 189.3 44.65 189.75 42.37 192.03 42.81 191.58 45.09"/><polyline class="cls-9" points="181.28 95.2 180.84 97.48 178.56 96.96 179 94.68 181.28 95.2"/><line class="cls-9" x1="264.8" y1="113.52" x2="275.32" y2="62.38"/><line class="cls-9" x1="278.04" y1="60.54" x2="267.08" y2="114.03"/><line class="cls-9" x1="275.32" y1="62.38" x2="191.58" y2="45.09"/><line class="cls-9" x1="189.74" y1="42.37" x2="278.04" y2="60.54"/><line class="cls-9" x1="191.58" y1="45.09" x2="181.06" y2="96.3"/><line class="cls-9" x1="178.78" y1="95.86" x2="189.74" y2="42.37"/><polyline class="cls-9" points="267.08 114.03 266.86 115.14 264.57 114.69 264.8 113.52"/><polyline class="cls-9" points="181.06 96.3 180.84 97.48 178.56 96.96 178.78 95.86"/><polyline class="cls-9" points="189.75 42.37 278.04 60.54 267.08 114.03 264.8 113.52 275.32 62.38 191.58 45.09 181.06 96.3 178.78 95.86 189.75 42.37"/><polyline class="cls-9" points="190.92 59.73 270.17 75.99 264.13 105.13 184.96 88.8 190.92 59.73"/><polyline class="cls-9" points="190.33 62.6 269.58 78.94 264.13 105.13 184.96 88.8 190.33 62.6"/><line class="cls-9" x1="363.32" y1="763.22" x2="363.32" y2="763.22"/><line class="cls-9" x1="363.32" y1="763.22" x2="363.32" y2="693.54"/><line class="cls-9" x1="363.32" y1="638.72" x2="363.32" y2="688.9"/><line class="cls-9" x1="363.32" y1="671.69" x2="363.32" y2="655.87"/><line class="cls-9" x1="363.32" y1="634.01" x2="363.32" y2="598.7"/><line class="cls-9" x1="340.14" y1="428.66" x2="289" y2="428.66"/><line class="cls-9" x1="289" y1="428.66" x2="289" y2="479.79"/><line class="cls-9" x1="289" y1="479.79" x2="340.14" y2="479.79"/><line class="cls-9" x1="340.14" y1="479.79" x2="340.14" y2="428.66"/><line class="cls-9" x1="335.5" y1="433.29" x2="293.64" y2="433.29"/><line class="cls-9" x1="293.64" y1="433.29" x2="293.64" y2="470.45"/><line class="cls-9" x1="293.64" y1="470.45" x2="335.5" y2="470.45"/><line class="cls-9" x1="335.5" y1="470.45" x2="335.5" y2="433.29"/><line class="cls-9" x1="246.84" y1="545.72" x2="196.66" y2="545.72"/><line class="cls-9" x1="196.66" y1="545.72" x2="196.66" y2="566.98"/><line class="cls-9" x1="246.84" y1="545.72" x2="246.84" y2="566.98"/><line class="cls-9" x1="213.81" y1="545.72" x2="229.62" y2="545.72"/><line class="cls-9" x1="217.56" y1="562.79" x2="220.21" y2="562.79"/><line class="cls-9" x1="221.75" y1="558.6" x2="221.75" y2="561.24"/><line class="cls-9" x1="223.3" y1="562.79" x2="225.95" y2="562.79"/><line class="cls-9" x1="221.75" y1="564.34" x2="221.75" y2="566.98"/><path class="cls-9" d="M244,596.62a22.44,22.44,0,0,0-8.68-10.6" transform="translate(-0.31 -28.34)"/><path class="cls-9" d="M235.31,586A22.35,22.35,0,0,0,222,582.88" transform="translate(-0.31 -28.34)"/><path class="cls-9" d="M208.7,586a22.46,22.46,0,0,0-8.69,10.6" transform="translate(-0.31 -28.34)"/><path class="cls-9" d="M222,582.88A22.35,22.35,0,0,0,208.67,586" transform="translate(-0.31 -28.34)"/><path class="cls-9" d="M223.81,612.13A41.29,41.29,0,0,0,239.05,608" transform="translate(-0.31 -28.34)"/><path class="cls-9" d="M196.91,595.25a12.77,12.77,0,0,0,4.77,10.5" transform="translate(-0.31 -28.34)"/><path class="cls-9" d="M220.27,612.11a25.7,25.7,0,0,0,3.51,0" transform="translate(-0.31 -28.34)"/><path class="cls-9" d="M236.07,586.84a91.17,91.17,0,0,0-28.08,0" transform="translate(-0.31 -28.34)"/><path class="cls-9" d="M205.34,578.05a31.54,31.54,0,0,0-7.11,20.5" transform="translate(-0.31 -28.34)"/><path class="cls-9" d="M222,575.09a62.49,62.49,0,0,0-14.36,1.55" transform="translate(-0.31 -28.34)"/><path class="cls-9" d="M207.64,576.66a4.19,4.19,0,0,0-2.3,1.42" transform="translate(-0.31 -28.34)"/><path class="cls-9" d="M222,577.07a108,108,0,0,0-14.15,1" transform="translate(-0.31 -28.34)"/><path class="cls-9" d="M205.31,579.47a28.33,28.33,0,0,0-7.08,19.13" transform="translate(-0.31 -28.34)"/><path class="cls-9" d="M207.84,578.07a4.08,4.08,0,0,0-2.54,1.37" transform="translate(-0.31 -28.34)"/><path class="cls-9" d="M245.83,598.56a28.38,28.38,0,0,0-7.11-19.12" transform="translate(-0.31 -28.34)"/><path class="cls-9" d="M245.75,598.5A31.51,31.51,0,0,0,238.61,578" transform="translate(-0.31 -28.34)"/><path class="cls-9" d="M236.12,578.07a108,108,0,0,0-14.15-1" transform="translate(-0.31 -28.34)"/><path class="cls-9" d="M236.34,576.62A62.47,62.47,0,0,0,222,575.09" transform="translate(-0.31 -28.34)"/><path class="cls-9" d="M238.68,579.43a4.14,4.14,0,0,0-2.55-1.36" transform="translate(-0.31 -28.34)"/><path class="cls-9" d="M238.63,578.08a4.07,4.07,0,0,0-2.3-1.42" transform="translate(-0.31 -28.34)"/><path class="cls-9" d="M242.38,605.75a12.73,12.73,0,0,0,4.76-10.5" transform="translate(-0.31 -28.34)"/><path class="cls-9" d="M239,607.93a19.18,19.18,0,0,0,3.33-2.16" transform="translate(-0.31 -28.34)"/><path class="cls-9" d="M201.73,605.77a19.56,19.56,0,0,0,3.33,2.16" transform="translate(-0.31 -28.34)"/><path class="cls-9" d="M205,608a41.34,41.34,0,0,0,15.25,4.15" transform="translate(-0.31 -28.34)"/><path class="cls-9" d="M215.13,608.48a29.49,29.49,0,0,0,13.79,0" transform="translate(-0.31 -28.34)"/><path class="cls-9" d="M241.45,602.83a7.55,7.55,0,0,0,2.6-6.23" transform="translate(-0.31 -28.34)"/><path class="cls-9" d="M228.89,608.59a27.21,27.21,0,0,0,12.53-5.75" transform="translate(-0.31 -28.34)"/><path class="cls-9" d="M200,596.6a7.54,7.54,0,0,0,2.59,6.23" transform="translate(-0.31 -28.34)"/><path class="cls-9" d="M202.56,602.84a27.21,27.21,0,0,0,12.53,5.75" transform="translate(-0.31 -28.34)"/><path class="cls-9" d="M218.75,591.09a3.28,3.28,0,1,0,3.28-3.28,3.27,3.27,0,0,0-3.28,3.28" transform="translate(-0.31 -28.34)"/><path class="cls-9" d="M219.71,591.09a2.32,2.32,0,1,0,2.32-2.32,2.32,2.32,0,0,0-2.32,2.32" transform="translate(-0.31 -28.34)"/><line class="cls-9" x1="330.5" y1="604.73" x2="297.69" y2="604.73"/><line class="cls-9" x1="344.78" y1="606.13" x2="344.78" y2="570.88"/><line class="cls-9" x1="344.78" y1="606.13" x2="332.49" y2="606.13"/><line class="cls-9" x1="324.69" y1="588.54" x2="324.69" y2="575.45"/><line class="cls-9" x1="297.69" y1="604.73" x2="324.69" y2="601.57"/><line class="cls-9" x1="324.69" y1="588.54" x2="324.69" y2="601.57"/><line class="cls-9" x1="297.69" y1="572.28" x2="324.69" y2="575.45"/><line class="cls-9" x1="297.69" y1="603.92" x2="324.69" y2="600.76"/><line class="cls-9" x1="297.69" y1="573.09" x2="324.69" y2="576.25"/><line class="cls-9" x1="330.5" y1="572.28" x2="297.69" y2="572.28"/><line class="cls-9" x1="344.78" y1="570.88" x2="332.49" y2="570.88"/><line class="cls-9" x1="297.69" y1="604.73" x2="294.08" y2="604.29"/><line class="cls-9" x1="294.08" y1="604.29" x2="290.62" y2="602.89"/><line class="cls-9" x1="290.62" y1="602.89" x2="287.6" y2="600.68"/><line class="cls-9" x1="287.6" y1="600.68" x2="285.18" y2="597.74"/><line class="cls-9" x1="285.18" y1="597.74" x2="283.48" y2="594.28"/><line class="cls-9" x1="283.48" y1="594.28" x2="282.6" y2="590.46"/><line class="cls-9" x1="282.6" y1="590.46" x2="282.6" y2="586.56"/><line class="cls-9" x1="282.6" y1="586.56" x2="283.48" y2="582.73"/><line class="cls-9" x1="283.48" y1="582.73" x2="285.18" y2="579.27"/><line class="cls-9" x1="285.18" y1="579.27" x2="287.6" y2="576.33"/><line class="cls-9" x1="287.6" y1="576.33" x2="290.62" y2="574.12"/><line class="cls-9" x1="290.62" y1="574.12" x2="294.08" y2="572.72"/><line class="cls-9" x1="294.08" y1="572.72" x2="297.69" y2="572.28"/><line class="cls-9" x1="297.69" y1="603.92" x2="294.3" y2="603.48"/><line class="cls-9" x1="294.3" y1="603.48" x2="291.06" y2="602.15"/><line class="cls-9" x1="291.06" y1="602.15" x2="288.19" y2="600.02"/><line class="cls-9" x1="288.19" y1="600.02" x2="285.91" y2="597.3"/><line class="cls-9" x1="285.91" y1="597.3" x2="284.29" y2="593.99"/><line class="cls-9" x1="284.29" y1="593.99" x2="283.41" y2="590.38"/><line class="cls-9" x1="283.41" y1="590.38" x2="283.41" y2="586.63"/><line class="cls-9" x1="283.41" y1="586.63" x2="284.29" y2="583.02"/><line class="cls-9" x1="284.29" y1="583.02" x2="285.91" y2="579.71"/><line class="cls-9" x1="285.91" y1="579.71" x2="288.19" y2="576.99"/><line class="cls-9" x1="288.19" y1="576.99" x2="291.06" y2="574.86"/><line class="cls-9" x1="291.06" y1="574.86" x2="294.3" y2="573.53"/><line class="cls-9" x1="294.3" y1="573.53" x2="297.69" y2="573.09"/><path class="cls-9" d="M330.7,601a149.49,149.49,0,0,0,0,31.65" transform="translate(-0.31 -28.34)"/><path class="cls-9" d="M330.68,632.66a2.06,2.06,0,0,0,2.08,1.8" transform="translate(-0.31 -28.34)"/><path class="cls-9" d="M332.76,599.15a2.06,2.06,0,0,0-2.08,1.82" transform="translate(-0.31 -28.34)"/><path class="cls-9" d="M339,616.84a1.73,1.73,0,1,0-1.73,1.73,1.73,1.73,0,0,0,1.73-1.73" transform="translate(-0.31 -28.34)"/><line class="cls-9" x1="331.02" y1="686.11" x2="325.72" y2="686.11"/><line class="cls-9" x1="323.36" y1="688.39" x2="323.36" y2="693.69"/><line class="cls-9" x1="321.08" y1="686.11" x2="315.79" y2="686.11"/><line class="cls-9" x1="323.36" y1="678.46" x2="323.36" y2="683.75"/><line class="cls-9" x1="339.18" y1="628.5" x2="316.89" y2="628.5"/><line class="cls-9" x1="317.77" y1="702.81" x2="266.71" y2="702.81"/><line class="cls-9" x1="265.75" y1="679.56" x2="265.75" y2="701.85"/><line class="cls-9" x1="339.18" y1="628.5" x2="316.89" y2="628.5"/><line class="cls-9" x1="340.14" y1="629.38" x2="340.14" y2="680.44"/><line class="cls-9" x1="343.82" y1="623.79" x2="316.89" y2="623.79"/><line class="cls-9" x1="343.82" y1="707.45" x2="262.07" y2="707.45"/><line class="cls-9" x1="261.12" y1="679.56" x2="261.12" y2="706.56"/><line class="cls-9" x1="344.78" y1="624.74" x2="344.78" y2="706.56"/><path class="cls-9" d="M340.21,710.23a4.7,4.7,0,0,0,.24-1.49" transform="translate(-0.31 -28.34)"/><path class="cls-9" d="M340.38,657.68a.92.92,0,0,0-.92-.92" transform="translate(-0.31 -28.34)"/><path class="cls-9" d="M340.21,710.23a4.7,4.7,0,0,0,.24-1.49" transform="translate(-0.31 -28.34)"/><path class="cls-9" d="M317.16,652.12a55.74,55.74,0,0,0-55.73,55.74" transform="translate(-0.31 -28.34)"/><path class="cls-9" d="M345,653a.92.92,0,0,0-.92-.92" transform="translate(-0.31 -28.34)"/><path class="cls-9" d="M317.16,656.76a51.1,51.1,0,0,0-51.1,51.1" transform="translate(-0.31 -28.34)"/><path class="cls-9" d="M261.43,734.86a.92.92,0,0,0,.92.92" transform="translate(-0.31 -28.34)"/><path class="cls-9" d="M266.06,730.15a.92.92,0,0,0,.92.92" transform="translate(-0.31 -28.34)"/><path class="cls-9" d="M344.09,735.78a.92.92,0,0,0,.92-.92" transform="translate(-0.31 -28.34)"/><path class="cls-9" d="M319,731.09a50.2,50.2,0,0,0,21.37-21.37" transform="translate(-0.31 -28.34)"/><path class="cls-9" d="M318.05,731.15a4.69,4.69,0,0,0,1.48-.25" transform="translate(-0.31 -28.34)"/><path class="cls-9" d="M319.53,730.85a32.71,32.71,0,0,0,20.63-20.62" transform="translate(-0.31 -28.34)"/><path class="cls-9" d="M318.05,731.15a4.69,4.69,0,0,0,1.48-.25" transform="translate(-0.31 -28.34)"/><path class="cls-9" d="M323.64,710.25a4.16,4.16,0,1,0,4.16,4.16,4.16,4.16,0,0,0-4.16-4.16" transform="translate(-0.31 -28.34)"/><path class="cls-9" d="M323.64,708.56a5.85,5.85,0,1,0,5.85,5.85,5.85,5.85,0,0,0-5.85-5.85" transform="translate(-0.31 -28.34)"/><line class="cls-9" x1="0.87" y1="136.62" x2="6.24" y2="131.25"/><line class="cls-9" x1="0.87" y1="144.49" x2="14.11" y2="131.25"/><line class="cls-9" x1="0.87" y1="152.37" x2="19.48" y2="133.82"/><line class="cls-9" x1="0.87" y1="160.31" x2="19.48" y2="141.7"/><line class="cls-9" x1="0.87" y1="168.19" x2="19.48" y2="149.57"/><line class="cls-9" x1="0.87" y1="176.06" x2="19.48" y2="157.44"/><line class="cls-9" x1="0.87" y1="183.93" x2="19.48" y2="165.32"/><line class="cls-9" x1="0.87" y1="191.81" x2="19.48" y2="173.26"/><line class="cls-9" x1="0.87" y1="199.68" x2="19.48" y2="181.14"/><line class="cls-9" x1="0.87" y1="207.62" x2="19.48" y2="189.01"/><line class="cls-9" x1="0.87" y1="215.5" x2="19.48" y2="196.88"/><line class="cls-9" x1="0.87" y1="223.37" x2="19.48" y2="204.75"/><line class="cls-9" x1="7.93" y1="224.18" x2="19.48" y2="212.63"/><line class="cls-9" x1="15.8" y1="224.18" x2="19.48" y2="220.57"/><line class="cls-9" x1="0.87" y1="132.65" x2="1.9" y2="131.69"/><line class="cls-9" x1="0.87" y1="140.59" x2="0.94" y2="140.52"/><line class="cls-9" x1="1.9" y1="139.56" x2="1.9" y2="139.56"/><line class="cls-9" x1="2.93" y1="138.61" x2="5.87" y2="135.59"/><line class="cls-9" x1="6.83" y1="134.63" x2="6.83" y2="134.63"/><line class="cls-9" x1="7.86" y1="133.68" x2="10.21" y2="131.25"/><line class="cls-9" x1="0.94" y1="148.39" x2="0.94" y2="148.39"/><line class="cls-9" x1="1.9" y1="147.44" x2="4.84" y2="144.49"/><line class="cls-9" x1="5.87" y1="143.46" x2="5.87" y2="143.46"/><line class="cls-9" x1="6.83" y1="142.51" x2="9.77" y2="139.56"/><line class="cls-9" x1="10.8" y1="138.61" x2="10.8" y2="138.61"/><line class="cls-9" x1="11.76" y1="137.58" x2="14.7" y2="134.63"/><line class="cls-9" x1="15.73" y1="133.68" x2="15.73" y2="133.68"/><line class="cls-9" x1="16.69" y1="132.65" x2="18.09" y2="131.25"/><line class="cls-9" x1="0.94" y1="156.34" x2="3.88" y2="153.32"/><line class="cls-9" x1="4.84" y1="152.37" x2="4.84" y2="152.37"/><line class="cls-9" x1="5.87" y1="151.41" x2="8.81" y2="148.39"/><line class="cls-9" x1="9.77" y1="147.44" x2="9.77" y2="147.44"/><line class="cls-9" x1="10.8" y1="146.48" x2="13.74" y2="143.46"/><line class="cls-9" x1="14.7" y1="142.51" x2="14.7" y2="142.51"/><line class="cls-9" x1="15.73" y1="141.55" x2="18.67" y2="138.61"/><line class="cls-9" x1="0.87" y1="164.21" x2="2.93" y2="162.23"/><line class="cls-9" x1="3.88" y1="161.27" x2="3.88" y2="161.27"/><line class="cls-9" x1="4.84" y1="160.24" x2="7.86" y2="157.3"/><line class="cls-9" x1="8.81" y1="156.34" x2="8.81" y2="156.34"/><line class="cls-9" x1="9.77" y1="155.31" x2="12.79" y2="152.37"/><line class="cls-9" x1="13.74" y1="151.41" x2="13.74" y2="151.41"/><line class="cls-9" x1="14.7" y1="150.38" x2="17.72" y2="147.44"/><line class="cls-9" x1="18.67" y1="146.48" x2="18.67" y2="146.48"/><line class="cls-9" x1="0.87" y1="172.09" x2="1.9" y2="171.13"/><line class="cls-9" x1="2.93" y1="170.1" x2="2.93" y2="170.1"/><line class="cls-9" x1="3.88" y1="169.14" x2="6.83" y2="166.2"/><line class="cls-9" x1="7.86" y1="165.17" x2="7.86" y2="165.17"/><line class="cls-9" x1="8.81" y1="164.21" x2="11.76" y2="161.27"/><line class="cls-9" x1="12.79" y1="160.24" x2="12.79" y2="160.24"/><line class="cls-9" x1="13.74" y1="159.28" x2="16.69" y2="156.34"/><line class="cls-9" x1="17.72" y1="155.31" x2="17.72" y2="155.31"/><line class="cls-9" x1="18.67" y1="154.35" x2="19.48" y2="153.54"/><line class="cls-9" x1="0.87" y1="179.96" x2="0.94" y2="179.96"/><line class="cls-9" x1="1.9" y1="179" x2="1.9" y2="179"/><line class="cls-9" x1="2.93" y1="177.97" x2="5.87" y2="175.03"/><line class="cls-9" x1="6.83" y1="174.07" x2="6.83" y2="174.07"/><line class="cls-9" x1="7.86" y1="173.04" x2="10.8" y2="170.1"/><line class="cls-9" x1="11.76" y1="169.14" x2="11.76" y2="169.14"/><line class="cls-9" x1="12.79" y1="168.11" x2="15.73" y2="165.17"/><line class="cls-9" x1="16.69" y1="164.21" x2="16.69" y2="164.21"/><line class="cls-9" x1="17.72" y1="163.18" x2="19.48" y2="161.42"/><line class="cls-9" x1="0.94" y1="187.83" x2="0.94" y2="187.83"/><line class="cls-9" x1="1.9" y1="186.88" x2="4.84" y2="183.93"/><line class="cls-9" x1="5.87" y1="182.9" x2="5.87" y2="182.9"/><line class="cls-9" x1="6.83" y1="181.95" x2="9.77" y2="179"/><line class="cls-9" x1="10.8" y1="177.97" x2="10.8" y2="177.97"/><line class="cls-9" x1="11.76" y1="177.02" x2="14.7" y2="174.07"/><line class="cls-9" x1="15.73" y1="173.04" x2="15.73" y2="173.04"/><line class="cls-9" x1="16.69" y1="172.09" x2="19.48" y2="169.29"/><line class="cls-9" x1="0.94" y1="195.78" x2="3.88" y2="192.76"/><line class="cls-9" x1="4.84" y1="191.81" x2="4.84" y2="191.81"/><line class="cls-9" x1="5.87" y1="190.85" x2="8.81" y2="187.83"/><line class="cls-9" x1="9.77" y1="186.88" x2="9.77" y2="186.88"/><line class="cls-9" x1="10.8" y1="185.92" x2="13.74" y2="182.9"/><line class="cls-9" x1="14.7" y1="181.95" x2="14.7" y2="181.95"/><line class="cls-9" x1="15.73" y1="180.99" x2="18.67" y2="177.97"/><line class="cls-9" x1="0.87" y1="203.65" x2="2.93" y2="201.66"/><line class="cls-9" x1="3.88" y1="200.71" x2="3.88" y2="200.71"/><line class="cls-9" x1="4.84" y1="199.68" x2="7.86" y2="196.73"/><line class="cls-9" x1="8.81" y1="195.78" x2="8.81" y2="195.78"/><line class="cls-9" x1="9.77" y1="194.75" x2="12.79" y2="191.81"/><line class="cls-9" x1="13.74" y1="190.85" x2="13.74" y2="190.85"/><line class="cls-9" x1="14.7" y1="189.82" x2="17.72" y2="186.88"/><line class="cls-9" x1="18.67" y1="185.92" x2="18.67" y2="185.92"/><line class="cls-9" x1="0.87" y1="211.52" x2="1.9" y2="210.49"/><line class="cls-9" x1="2.93" y1="209.54" x2="2.93" y2="209.54"/><line class="cls-9" x1="3.88" y1="208.58" x2="6.83" y2="205.56"/><line class="cls-9" x1="7.86" y1="204.61" x2="7.86" y2="204.61"/><line class="cls-9" x1="8.81" y1="203.65" x2="11.76" y2="200.71"/><line class="cls-9" x1="12.79" y1="199.68" x2="12.79" y2="199.68"/><line class="cls-9" x1="13.74" y1="198.72" x2="16.69" y2="195.78"/><line class="cls-9" x1="17.72" y1="194.75" x2="17.72" y2="194.75"/><line class="cls-9" x1="18.67" y1="193.79" x2="19.48" y2="192.98"/><line class="cls-9" x1="0.87" y1="219.4" x2="0.94" y2="219.4"/><line class="cls-9" x1="1.9" y1="218.44" x2="1.9" y2="218.44"/><line class="cls-9" x1="2.93" y1="217.41" x2="5.87" y2="214.47"/><line class="cls-9" x1="6.83" y1="213.51" x2="6.83" y2="213.51"/><line class="cls-9" x1="7.86" y1="212.48" x2="10.8" y2="209.54"/><line class="cls-9" x1="11.76" y1="208.58" x2="11.76" y2="208.58"/><line class="cls-9" x1="12.79" y1="207.55" x2="15.73" y2="204.61"/><line class="cls-9" x1="16.69" y1="203.65" x2="16.69" y2="203.65"/><line class="cls-9" x1="17.72" y1="202.62" x2="19.48" y2="200.86"/><line class="cls-9" x1="4.03" y1="224.18" x2="4.84" y2="223.37"/><line class="cls-9" x1="5.87" y1="222.34" x2="5.87" y2="222.34"/><line class="cls-9" x1="6.83" y1="221.38" x2="9.77" y2="218.44"/><line class="cls-9" x1="10.8" y1="217.41" x2="10.8" y2="217.41"/><line class="cls-9" x1="11.76" y1="216.45" x2="14.7" y2="213.51"/><line class="cls-9" x1="15.73" y1="212.48" x2="15.73" y2="212.48"/><line class="cls-9" x1="16.69" y1="211.52" x2="19.48" y2="208.73"/><line class="cls-9" x1="11.9" y1="224.18" x2="13.74" y2="222.34"/><line class="cls-9" x1="14.7" y1="221.38" x2="14.7" y2="221.38"/><line class="cls-9" x1="15.73" y1="220.35" x2="18.67" y2="217.41"/><polyline class="cls-9" points="0.87 224.18 19.48 224.18 19.48 131.25 0.87 131.25 0.87 224.18"/><line class="cls-9" x1="0.87" y1="444.18" x2="7.12" y2="437.93"/><line class="cls-9" x1="0.87" y1="452.05" x2="14.99" y2="437.93"/><line class="cls-9" x1="0.87" y1="459.93" x2="19.48" y2="441.38"/><line class="cls-9" x1="0.87" y1="467.8" x2="19.48" y2="449.26"/><line class="cls-9" x1="0.87" y1="475.75" x2="19.48" y2="457.13"/><line class="cls-9" x1="0.87" y1="483.62" x2="19.48" y2="465"/><line class="cls-9" x1="0.87" y1="491.49" x2="19.48" y2="472.88"/><line class="cls-9" x1="0.87" y1="499.36" x2="19.48" y2="480.75"/><line class="cls-9" x1="0.87" y1="507.24" x2="19.48" y2="488.7"/><line class="cls-9" x1="0.87" y1="515.11" x2="19.48" y2="496.57"/><line class="cls-9" x1="0.87" y1="523.06" x2="19.48" y2="504.44"/><line class="cls-9" x1="0.94" y1="530.86" x2="19.48" y2="512.31"/><line class="cls-9" x1="8.81" y1="530.86" x2="19.48" y2="520.19"/><line class="cls-9" x1="16.69" y1="530.86" x2="19.48" y2="528.06"/><line class="cls-9" x1="0.87" y1="440.21" x2="2.93" y2="438.22"/><line class="cls-9" x1="0.87" y1="448.08" x2="1.9" y2="447.12"/><line class="cls-9" x1="2.93" y1="446.09" x2="2.93" y2="446.09"/><line class="cls-9" x1="3.88" y1="445.14" x2="6.83" y2="442.19"/><line class="cls-9" x1="7.86" y1="441.16" x2="7.86" y2="441.16"/><line class="cls-9" x1="8.81" y1="440.21" x2="11.02" y2="437.93"/><line class="cls-9" x1="0.87" y1="456.03" x2="0.94" y2="455.95"/><line class="cls-9" x1="1.9" y1="455" x2="1.9" y2="455"/><line class="cls-9" x1="2.93" y1="453.97" x2="5.87" y2="451.02"/><line class="cls-9" x1="6.83" y1="450.07" x2="6.83" y2="450.07"/><line class="cls-9" x1="7.86" y1="449.04" x2="10.8" y2="446.09"/><line class="cls-9" x1="11.76" y1="445.14" x2="11.76" y2="445.14"/><line class="cls-9" x1="12.79" y1="444.18" x2="15.73" y2="441.16"/><line class="cls-9" x1="16.69" y1="440.21" x2="16.69" y2="440.21"/><line class="cls-9" x1="17.72" y1="439.25" x2="18.97" y2="437.93"/><line class="cls-9" x1="0.94" y1="463.83" x2="0.94" y2="463.83"/><line class="cls-9" x1="1.9" y1="462.87" x2="4.84" y2="459.93"/><line class="cls-9" x1="5.87" y1="458.9" x2="5.87" y2="458.9"/><line class="cls-9" x1="6.83" y1="457.94" x2="9.77" y2="455"/><line class="cls-9" x1="10.8" y1="453.97" x2="10.8" y2="453.97"/><line class="cls-9" x1="11.76" y1="453.01" x2="14.7" y2="450.07"/><line class="cls-9" x1="15.73" y1="449.04" x2="15.73" y2="449.04"/><line class="cls-9" x1="16.69" y1="448.08" x2="19.48" y2="445.28"/><line class="cls-9" x1="0.94" y1="471.77" x2="3.88" y2="468.76"/><line class="cls-9" x1="4.84" y1="467.8" x2="4.84" y2="467.8"/><line class="cls-9" x1="5.87" y1="466.84" x2="8.81" y2="463.83"/><line class="cls-9" x1="9.77" y1="462.87" x2="9.77" y2="462.87"/><line class="cls-9" x1="10.8" y1="461.91" x2="13.74" y2="458.9"/><line class="cls-9" x1="14.7" y1="457.94" x2="14.7" y2="457.94"/><line class="cls-9" x1="15.73" y1="456.98" x2="18.67" y2="453.97"/><line class="cls-9" x1="0.87" y1="479.65" x2="2.93" y2="477.66"/><line class="cls-9" x1="3.88" y1="476.7" x2="3.88" y2="476.7"/><line class="cls-9" x1="4.84" y1="475.67" x2="7.86" y2="472.73"/><line class="cls-9" x1="8.81" y1="471.77" x2="8.81" y2="471.77"/><line class="cls-9" x1="9.77" y1="470.74" x2="12.79" y2="467.8"/><line class="cls-9" x1="13.74" y1="466.84" x2="13.74" y2="466.84"/><line class="cls-9" x1="14.7" y1="465.81" x2="17.72" y2="462.87"/><line class="cls-9" x1="18.67" y1="461.91" x2="18.67" y2="461.91"/><line class="cls-9" x1="0.87" y1="487.52" x2="1.9" y2="486.56"/><line class="cls-9" x1="2.93" y1="485.53" x2="2.93" y2="485.53"/><line class="cls-9" x1="3.88" y1="484.58" x2="6.83" y2="481.63"/><line class="cls-9" x1="7.86" y1="480.6" x2="7.86" y2="480.6"/><line class="cls-9" x1="8.81" y1="479.65" x2="11.76" y2="476.7"/><line class="cls-9" x1="12.79" y1="475.67" x2="12.79" y2="475.67"/><line class="cls-9" x1="13.74" y1="474.72" x2="16.69" y2="471.77"/><line class="cls-9" x1="17.72" y1="470.74" x2="17.72" y2="470.74"/><line class="cls-9" x1="18.67" y1="469.79" x2="19.48" y2="468.98"/><line class="cls-9" x1="0.87" y1="495.39" x2="0.94" y2="495.39"/><line class="cls-9" x1="1.9" y1="494.44" x2="1.9" y2="494.44"/><line class="cls-9" x1="2.93" y1="493.41" x2="5.87" y2="490.46"/><line class="cls-9" x1="6.83" y1="489.51" x2="6.83" y2="489.51"/><line class="cls-9" x1="7.86" y1="488.48" x2="10.8" y2="485.53"/><line class="cls-9" x1="11.76" y1="484.58" x2="11.76" y2="484.58"/><line class="cls-9" x1="12.79" y1="483.55" x2="15.73" y2="480.6"/><line class="cls-9" x1="16.69" y1="479.65" x2="16.69" y2="479.65"/><line class="cls-9" x1="17.72" y1="478.62" x2="19.48" y2="476.85"/><line class="cls-9" x1="0.94" y1="503.26" x2="0.94" y2="503.26"/><line class="cls-9" x1="1.9" y1="502.31" x2="4.84" y2="499.36"/><line class="cls-9" x1="5.87" y1="498.33" x2="5.87" y2="498.33"/><line class="cls-9" x1="6.83" y1="497.38" x2="9.77" y2="494.44"/><line class="cls-9" x1="10.8" y1="493.41" x2="10.8" y2="493.41"/><line class="cls-9" x1="11.76" y1="492.45" x2="14.7" y2="489.51"/><line class="cls-9" x1="15.73" y1="488.48" x2="15.73" y2="488.48"/><line class="cls-9" x1="16.69" y1="487.52" x2="19.48" y2="484.72"/><line class="cls-9" x1="0.94" y1="511.14" x2="3.88" y2="508.19"/><line class="cls-9" x1="4.84" y1="507.24" x2="4.84" y2="507.24"/><line class="cls-9" x1="5.87" y1="506.21" x2="8.81" y2="503.26"/><line class="cls-9" x1="9.77" y1="502.31" x2="9.77" y2="502.31"/><line class="cls-9" x1="10.8" y1="501.35" x2="13.74" y2="498.33"/><line class="cls-9" x1="14.7" y1="497.38" x2="14.7" y2="497.38"/><line class="cls-9" x1="15.73" y1="496.42" x2="18.67" y2="493.41"/><line class="cls-9" x1="0.87" y1="519.08" x2="2.93" y2="517.1"/><line class="cls-9" x1="3.88" y1="516.07" x2="3.88" y2="516.07"/><line class="cls-9" x1="4.84" y1="515.11" x2="7.86" y2="512.17"/><line class="cls-9" x1="8.81" y1="511.14" x2="8.81" y2="511.14"/><line class="cls-9" x1="9.77" y1="510.18" x2="12.79" y2="507.24"/><line class="cls-9" x1="13.74" y1="506.21" x2="13.74" y2="506.21"/><line class="cls-9" x1="14.7" y1="505.25" x2="17.72" y2="502.31"/><line class="cls-9" x1="18.67" y1="501.35" x2="18.67" y2="501.35"/><line class="cls-9" x1="0.87" y1="526.96" x2="1.9" y2="525.93"/><line class="cls-9" x1="2.93" y1="524.97" x2="2.93" y2="524.97"/><line class="cls-9" x1="3.88" y1="524.01" x2="6.83" y2="521"/><line class="cls-9" x1="7.86" y1="520.04" x2="7.86" y2="520.04"/><line class="cls-9" x1="8.81" y1="519.08" x2="11.76" y2="516.07"/><line class="cls-9" x1="12.79" y1="515.11" x2="12.79" y2="515.11"/><line class="cls-9" x1="13.74" y1="514.15" x2="16.69" y2="511.14"/><line class="cls-9" x1="17.72" y1="510.18" x2="17.72" y2="510.18"/><line class="cls-9" x1="18.67" y1="509.22" x2="19.48" y2="508.42"/><line class="cls-9" x1="4.84" y1="530.86" x2="5.87" y2="529.9"/><line class="cls-9" x1="6.83" y1="528.94" x2="6.83" y2="528.94"/><line class="cls-9" x1="7.86" y1="527.91" x2="10.8" y2="524.97"/><line class="cls-9" x1="11.76" y1="524.01" x2="11.76" y2="524.01"/><line class="cls-9" x1="12.79" y1="522.98" x2="15.73" y2="520.04"/><line class="cls-9" x1="16.69" y1="519.08" x2="16.69" y2="519.08"/><line class="cls-9" x1="17.72" y1="518.05" x2="19.48" y2="516.29"/><line class="cls-9" x1="12.79" y1="530.86" x2="14.7" y2="528.94"/><line class="cls-9" x1="15.73" y1="527.91" x2="15.73" y2="527.91"/><line class="cls-9" x1="16.69" y1="526.96" x2="19.48" y2="524.16"/><polyline class="cls-9" points="19.48 437.93 0.87 437.93 0.87 530.86 19.48 530.86 19.48 437.93"/><line class="cls-9" x1="344.78" y1="131.84" x2="345.36" y2="131.25"/><line class="cls-9" x1="344.78" y1="139.71" x2="353.24" y2="131.25"/><line class="cls-9" x1="344.78" y1="147.66" x2="361.11" y2="131.25"/><line class="cls-9" x1="344.78" y1="155.53" x2="363.32" y2="136.92"/><line class="cls-9" x1="344.78" y1="163.4" x2="363.32" y2="144.79"/><line class="cls-9" x1="344.78" y1="171.28" x2="363.32" y2="152.66"/><line class="cls-9" x1="344.78" y1="179.15" x2="363.32" y2="160.61"/><line class="cls-9" x1="344.78" y1="187.02" x2="363.32" y2="168.48"/><line class="cls-9" x1="344.78" y1="194.97" x2="363.32" y2="176.35"/><line class="cls-9" x1="344.78" y1="202.84" x2="363.32" y2="184.23"/><line class="cls-9" x1="344.78" y1="210.71" x2="363.32" y2="192.1"/><line class="cls-9" x1="344.78" y1="218.59" x2="363.32" y2="199.97"/><line class="cls-9" x1="347.06" y1="224.18" x2="363.32" y2="207.92"/><line class="cls-9" x1="354.93" y1="224.18" x2="363.32" y2="215.79"/><line class="cls-9" x1="362.8" y1="224.18" x2="363.32" y2="223.66"/><line class="cls-9" x1="344.92" y1="135.59" x2="347.87" y2="132.65"/><line class="cls-9" x1="348.9" y1="131.69" x2="348.9" y2="131.69"/><line class="cls-9" x1="344.78" y1="143.68" x2="346.91" y2="141.55"/><line class="cls-9" x1="347.87" y1="140.52" x2="347.87" y2="140.52"/><line class="cls-9" x1="348.9" y1="139.56" x2="351.84" y2="136.62"/><line class="cls-9" x1="352.8" y1="135.59" x2="352.8" y2="135.59"/><line class="cls-9" x1="353.83" y1="134.63" x2="356.77" y2="131.69"/><line class="cls-9" x1="344.78" y1="151.56" x2="345.95" y2="150.38"/><line class="cls-9" x1="346.91" y1="149.42" x2="346.91" y2="149.42"/><line class="cls-9" x1="347.87" y1="148.39" x2="350.88" y2="145.45"/><line class="cls-9" x1="351.84" y1="144.49" x2="351.84" y2="144.49"/><line class="cls-9" x1="352.8" y1="143.46" x2="355.81" y2="140.52"/><line class="cls-9" x1="356.77" y1="139.56" x2="356.77" y2="139.56"/><line class="cls-9" x1="357.73" y1="138.61" x2="360.74" y2="135.59"/><line class="cls-9" x1="361.7" y1="134.63" x2="361.7" y2="134.63"/><line class="cls-9" x1="362.66" y1="133.68" x2="363.32" y2="133.02"/><line class="cls-9" x1="344.78" y1="159.43" x2="344.92" y2="159.28"/><line class="cls-9" x1="345.95" y1="158.25" x2="345.95" y2="158.25"/><line class="cls-9" x1="346.91" y1="157.3" x2="349.85" y2="154.35"/><line class="cls-9" x1="350.88" y1="153.32" x2="350.88" y2="153.32"/><line class="cls-9" x1="351.84" y1="152.37" x2="354.78" y2="149.42"/><line class="cls-9" x1="355.81" y1="148.39" x2="355.81" y2="148.39"/><line class="cls-9" x1="356.77" y1="147.44" x2="359.71" y2="144.49"/><line class="cls-9" x1="360.74" y1="143.46" x2="360.74" y2="143.46"/><line class="cls-9" x1="361.7" y1="142.51" x2="363.32" y2="140.89"/><line class="cls-9" x1="344.92" y1="167.16" x2="344.92" y2="167.16"/><line class="cls-9" x1="345.95" y1="166.2" x2="348.9" y2="163.18"/><line class="cls-9" x1="349.85" y1="162.23" x2="349.85" y2="162.23"/><line class="cls-9" x1="350.88" y1="161.27" x2="353.83" y2="158.25"/><line class="cls-9" x1="354.78" y1="157.3" x2="354.78" y2="157.3"/><line class="cls-9" x1="355.81" y1="156.34" x2="358.76" y2="153.32"/><line class="cls-9" x1="359.71" y1="152.37" x2="359.71" y2="152.37"/><line class="cls-9" x1="360.74" y1="151.41" x2="363.32" y2="148.76"/><line class="cls-9" x1="344.92" y1="175.03" x2="347.87" y2="172.09"/><line class="cls-9" x1="348.9" y1="171.13" x2="348.9" y2="171.13"/><line class="cls-9" x1="349.85" y1="170.1" x2="352.8" y2="167.16"/><line class="cls-9" x1="353.83" y1="166.2" x2="353.83" y2="166.2"/><line class="cls-9" x1="354.78" y1="165.17" x2="357.73" y2="162.23"/><line class="cls-9" x1="358.76" y1="161.27" x2="358.76" y2="161.27"/><line class="cls-9" x1="359.71" y1="160.24" x2="362.66" y2="157.3"/><line class="cls-9" x1="344.78" y1="183.12" x2="346.91" y2="180.99"/><line class="cls-9" x1="347.87" y1="179.96" x2="347.87" y2="179.96"/><line class="cls-9" x1="348.9" y1="179" x2="351.84" y2="176.06"/><line class="cls-9" x1="352.8" y1="175.03" x2="352.8" y2="175.03"/><line class="cls-9" x1="353.83" y1="174.07" x2="356.77" y2="171.13"/><line class="cls-9" x1="357.73" y1="170.1" x2="357.73" y2="170.1"/><line class="cls-9" x1="358.76" y1="169.14" x2="361.7" y2="166.2"/><line class="cls-9" x1="362.66" y1="165.17" x2="362.66" y2="165.17"/><line class="cls-9" x1="344.78" y1="191" x2="345.95" y2="189.82"/><line class="cls-9" x1="346.91" y1="188.86" x2="346.91" y2="188.86"/><line class="cls-9" x1="347.87" y1="187.83" x2="350.88" y2="184.89"/><line class="cls-9" x1="351.84" y1="183.93" x2="351.84" y2="183.93"/><line class="cls-9" x1="352.8" y1="182.9" x2="355.81" y2="179.96"/><line class="cls-9" x1="356.77" y1="179" x2="356.77" y2="179"/><line class="cls-9" x1="357.73" y1="177.97" x2="360.74" y2="175.03"/><line class="cls-9" x1="361.7" y1="174.07" x2="361.7" y2="174.07"/><line class="cls-9" x1="362.66" y1="173.04" x2="363.32" y2="172.38"/><line class="cls-9" x1="344.78" y1="198.87" x2="344.92" y2="198.72"/><line class="cls-9" x1="345.95" y1="197.69" x2="345.95" y2="197.69"/><line class="cls-9" x1="346.91" y1="196.73" x2="349.85" y2="193.79"/><line class="cls-9" x1="350.88" y1="192.76" x2="350.88" y2="192.76"/><line class="cls-9" x1="351.84" y1="191.81" x2="354.78" y2="188.86"/><line class="cls-9" x1="355.81" y1="187.83" x2="355.81" y2="187.83"/><line class="cls-9" x1="356.77" y1="186.88" x2="359.71" y2="183.93"/><line class="cls-9" x1="360.74" y1="182.9" x2="360.74" y2="182.9"/><line class="cls-9" x1="361.7" y1="181.95" x2="363.32" y2="180.33"/><line class="cls-9" x1="344.92" y1="206.59" x2="344.92" y2="206.59"/><line class="cls-9" x1="345.95" y1="205.56" x2="348.9" y2="202.62"/><line class="cls-9" x1="349.85" y1="201.66" x2="349.85" y2="201.66"/><line class="cls-9" x1="350.88" y1="200.71" x2="353.83" y2="197.69"/><line class="cls-9" x1="354.78" y1="196.73" x2="354.78" y2="196.73"/><line class="cls-9" x1="355.81" y1="195.78" x2="358.76" y2="192.76"/><line class="cls-9" x1="359.71" y1="191.81" x2="359.71" y2="191.81"/><line class="cls-9" x1="360.74" y1="190.85" x2="363.32" y2="188.2"/><line class="cls-9" x1="344.92" y1="214.47" x2="347.87" y2="211.52"/><line class="cls-9" x1="348.9" y1="210.49" x2="348.9" y2="210.49"/><line class="cls-9" x1="349.85" y1="209.54" x2="352.8" y2="206.59"/><line class="cls-9" x1="353.83" y1="205.56" x2="353.83" y2="205.56"/><line class="cls-9" x1="354.78" y1="204.61" x2="357.73" y2="201.66"/><line class="cls-9" x1="358.76" y1="200.71" x2="358.76" y2="200.71"/><line class="cls-9" x1="359.71" y1="199.68" x2="362.66" y2="196.73"/><line class="cls-9" x1="344.78" y1="222.56" x2="346.91" y2="220.35"/><line class="cls-9" x1="347.87" y1="219.4" x2="347.87" y2="219.4"/><line class="cls-9" x1="348.9" y1="218.44" x2="351.84" y2="215.42"/><line class="cls-9" x1="352.8" y1="214.47" x2="352.8" y2="214.47"/><line class="cls-9" x1="353.83" y1="213.51" x2="356.77" y2="210.49"/><line class="cls-9" x1="357.73" y1="209.54" x2="357.73" y2="209.54"/><line class="cls-9" x1="358.76" y1="208.58" x2="361.7" y2="205.56"/><line class="cls-9" x1="362.66" y1="204.61" x2="362.66" y2="204.61"/><line class="cls-9" x1="351.84" y1="223.37" x2="351.84" y2="223.37"/><line class="cls-9" x1="352.8" y1="222.34" x2="355.81" y2="219.4"/><line class="cls-9" x1="356.77" y1="218.44" x2="356.77" y2="218.44"/><line class="cls-9" x1="357.73" y1="217.41" x2="360.74" y2="214.47"/><line class="cls-9" x1="361.7" y1="213.51" x2="361.7" y2="213.51"/><line class="cls-9" x1="362.66" y1="212.48" x2="363.32" y2="211.82"/><line class="cls-9" x1="358.9" y1="224.18" x2="359.71" y2="223.37"/><line class="cls-9" x1="360.74" y1="222.34" x2="360.74" y2="222.34"/><line class="cls-9" x1="361.7" y1="221.38" x2="363.32" y2="219.69"/><polyline class="cls-9" points="344.78 224.18 363.32 224.18 363.32 131.25 344.78 131.25 344.78 224.18"/><line class="cls-9" x1="344.78" y1="423.65" x2="349.04" y2="419.38"/><line class="cls-9" x1="344.78" y1="431.53" x2="356.92" y2="419.38"/><line class="cls-9" x1="344.78" y1="439.4" x2="363.32" y2="420.78"/><line class="cls-9" x1="344.78" y1="447.27" x2="363.32" y2="428.73"/><line class="cls-9" x1="344.78" y1="455.14" x2="363.32" y2="436.6"/><line class="cls-9" x1="344.78" y1="463.02" x2="363.32" y2="444.47"/><line class="cls-9" x1="344.78" y1="470.96" x2="363.32" y2="452.35"/><line class="cls-9" x1="344.78" y1="478.84" x2="363.32" y2="460.22"/><line class="cls-9" x1="344.78" y1="486.71" x2="363.32" y2="468.09"/><line class="cls-9" x1="344.78" y1="494.58" x2="363.32" y2="476.04"/><line class="cls-9" x1="344.78" y1="502.46" x2="363.32" y2="483.91"/><line class="cls-9" x1="344.78" y1="510.4" x2="363.32" y2="491.79"/><line class="cls-9" x1="344.78" y1="518.27" x2="363.32" y2="499.66"/><line class="cls-9" x1="344.78" y1="526.15" x2="363.32" y2="507.53"/><line class="cls-9" x1="347.87" y1="530.86" x2="363.32" y2="515.41"/><line class="cls-9" x1="355.81" y1="530.86" x2="363.32" y2="523.35"/><line class="cls-9" x1="344.78" y1="419.68" x2="345.07" y2="419.38"/><line class="cls-9" x1="344.78" y1="427.55" x2="345.95" y2="426.37"/><line class="cls-9" x1="346.91" y1="425.42" x2="346.91" y2="425.42"/><line class="cls-9" x1="347.87" y1="424.46" x2="350.88" y2="421.44"/><line class="cls-9" x1="351.84" y1="420.49" x2="351.84" y2="420.49"/><line class="cls-9" x1="352.8" y1="419.53" x2="352.94" y2="419.38"/><line class="cls-9" x1="344.78" y1="435.42" x2="344.92" y2="435.28"/><line class="cls-9" x1="345.95" y1="434.32" x2="345.95" y2="434.32"/><line class="cls-9" x1="346.91" y1="433.29" x2="349.85" y2="430.35"/><line class="cls-9" x1="350.88" y1="429.39" x2="350.88" y2="429.39"/><line class="cls-9" x1="351.84" y1="428.36" x2="354.78" y2="425.42"/><line class="cls-9" x1="355.81" y1="424.46" x2="355.81" y2="424.46"/><line class="cls-9" x1="356.77" y1="423.43" x2="359.71" y2="420.49"/><line class="cls-9" x1="360.74" y1="419.53" x2="360.74" y2="419.53"/><line class="cls-9" x1="344.92" y1="443.15" x2="344.92" y2="443.15"/><line class="cls-9" x1="345.95" y1="442.19" x2="348.9" y2="439.25"/><line class="cls-9" x1="349.85" y1="438.22" x2="349.85" y2="438.22"/><line class="cls-9" x1="350.88" y1="437.26" x2="353.83" y2="434.32"/><line class="cls-9" x1="354.78" y1="433.29" x2="354.78" y2="433.29"/><line class="cls-9" x1="355.81" y1="432.33" x2="358.76" y2="429.39"/><line class="cls-9" x1="359.71" y1="428.36" x2="359.71" y2="428.36"/><line class="cls-9" x1="360.74" y1="427.4" x2="363.32" y2="424.76"/><line class="cls-9" x1="344.92" y1="451.02" x2="347.87" y2="448.08"/><line class="cls-9" x1="348.9" y1="447.12" x2="348.9" y2="447.12"/><line class="cls-9" x1="349.85" y1="446.09" x2="352.8" y2="443.15"/><line class="cls-9" x1="353.83" y1="442.19" x2="353.83" y2="442.19"/><line class="cls-9" x1="354.78" y1="441.16" x2="357.73" y2="438.22"/><line class="cls-9" x1="358.76" y1="437.26" x2="358.76" y2="437.26"/><line class="cls-9" x1="359.71" y1="436.23" x2="362.66" y2="433.29"/><line class="cls-9" x1="344.78" y1="459.12" x2="346.91" y2="456.98"/><line class="cls-9" x1="347.87" y1="455.95" x2="347.87" y2="455.95"/><line class="cls-9" x1="348.9" y1="455" x2="351.84" y2="452.05"/><line class="cls-9" x1="352.8" y1="451.02" x2="352.8" y2="451.02"/><line class="cls-9" x1="353.83" y1="450.07" x2="356.77" y2="447.12"/><line class="cls-9" x1="357.73" y1="446.09" x2="357.73" y2="446.09"/><line class="cls-9" x1="358.76" y1="445.14" x2="361.7" y2="442.19"/><line class="cls-9" x1="362.66" y1="441.16" x2="362.66" y2="441.16"/><line class="cls-9" x1="344.78" y1="466.99" x2="345.95" y2="465.81"/><line class="cls-9" x1="346.91" y1="464.86" x2="346.91" y2="464.86"/><line class="cls-9" x1="347.87" y1="463.83" x2="350.88" y2="460.88"/><line class="cls-9" x1="351.84" y1="459.93" x2="351.84" y2="459.93"/><line class="cls-9" x1="352.8" y1="458.9" x2="355.81" y2="455.95"/><line class="cls-9" x1="356.77" y1="455" x2="356.77" y2="455"/><line class="cls-9" x1="357.73" y1="453.97" x2="360.74" y2="451.02"/><line class="cls-9" x1="361.7" y1="450.07" x2="361.7" y2="450.07"/><line class="cls-9" x1="362.66" y1="449.04" x2="363.32" y2="448.37"/><line class="cls-9" x1="344.78" y1="474.86" x2="344.92" y2="474.72"/><line class="cls-9" x1="345.95" y1="473.69" x2="345.95" y2="473.69"/><line class="cls-9" x1="346.91" y1="472.73" x2="349.85" y2="469.79"/><line class="cls-9" x1="350.88" y1="468.76" x2="350.88" y2="468.76"/><line class="cls-9" x1="351.84" y1="467.8" x2="354.78" y2="464.86"/><line class="cls-9" x1="355.81" y1="463.83" x2="355.81" y2="463.83"/><line class="cls-9" x1="356.77" y1="462.87" x2="359.71" y2="459.93"/><line class="cls-9" x1="360.74" y1="458.9" x2="360.74" y2="458.9"/><line class="cls-9" x1="361.7" y1="457.94" x2="363.32" y2="456.32"/><line class="cls-9" x1="344.92" y1="482.59" x2="344.92" y2="482.59"/><line class="cls-9" x1="345.95" y1="481.63" x2="348.9" y2="478.62"/><line class="cls-9" x1="349.85" y1="477.66" x2="349.85" y2="477.66"/><line class="cls-9" x1="350.88" y1="476.7" x2="353.83" y2="473.69"/><line class="cls-9" x1="354.78" y1="472.73" x2="354.78" y2="472.73"/><line class="cls-9" x1="355.81" y1="471.77" x2="358.76" y2="468.76"/><line class="cls-9" x1="359.71" y1="467.8" x2="359.71" y2="467.8"/><line class="cls-9" x1="360.74" y1="466.84" x2="363.32" y2="464.19"/><line class="cls-9" x1="344.92" y1="490.46" x2="347.87" y2="487.52"/><line class="cls-9" x1="348.9" y1="486.56" x2="348.9" y2="486.56"/><line class="cls-9" x1="349.85" y1="485.53" x2="352.8" y2="482.59"/><line class="cls-9" x1="353.83" y1="481.63" x2="353.83" y2="481.63"/><line class="cls-9" x1="354.78" y1="480.6" x2="357.73" y2="477.66"/><line class="cls-9" x1="358.76" y1="476.7" x2="358.76" y2="476.7"/><line class="cls-9" x1="359.71" y1="475.67" x2="362.66" y2="472.73"/><line class="cls-9" x1="344.78" y1="498.56" x2="346.91" y2="496.42"/><line class="cls-9" x1="347.87" y1="495.39" x2="347.87" y2="495.39"/><line class="cls-9" x1="348.9" y1="494.44" x2="351.84" y2="491.49"/><line class="cls-9" x1="352.8" y1="490.46" x2="352.8" y2="490.46"/><line class="cls-9" x1="353.83" y1="489.51" x2="356.77" y2="486.56"/><line class="cls-9" x1="357.73" y1="485.53" x2="357.73" y2="485.53"/><line class="cls-9" x1="358.76" y1="484.58" x2="361.7" y2="481.63"/><line class="cls-9" x1="362.66" y1="480.6" x2="362.66" y2="480.6"/><line class="cls-9" x1="344.78" y1="506.43" x2="345.95" y2="505.25"/><line class="cls-9" x1="346.91" y1="504.29" x2="346.91" y2="504.29"/><line class="cls-9" x1="347.87" y1="503.26" x2="350.88" y2="500.32"/><line class="cls-9" x1="351.84" y1="499.36" x2="351.84" y2="499.36"/><line class="cls-9" x1="352.8" y1="498.33" x2="355.81" y2="495.39"/><line class="cls-9" x1="356.77" y1="494.44" x2="356.77" y2="494.44"/><line class="cls-9" x1="357.73" y1="493.41" x2="360.74" y2="490.46"/><line class="cls-9" x1="361.7" y1="489.51" x2="361.7" y2="489.51"/><line class="cls-9" x1="362.66" y1="488.48" x2="363.32" y2="487.81"/><line class="cls-9" x1="344.78" y1="514.3" x2="344.92" y2="514.15"/><line class="cls-9" x1="345.95" y1="513.12" x2="345.95" y2="513.12"/><line class="cls-9" x1="346.91" y1="512.17" x2="349.85" y2="509.22"/><line class="cls-9" x1="350.88" y1="508.19" x2="350.88" y2="508.19"/><line class="cls-9" x1="351.84" y1="507.24" x2="354.78" y2="504.29"/><line class="cls-9" x1="355.81" y1="503.26" x2="355.81" y2="503.26"/><line class="cls-9" x1="356.77" y1="502.31" x2="359.71" y2="499.36"/><line class="cls-9" x1="360.74" y1="498.33" x2="360.74" y2="498.33"/><line class="cls-9" x1="361.7" y1="497.38" x2="363.32" y2="495.76"/><line class="cls-9" x1="344.92" y1="522.03" x2="344.92" y2="522.03"/><line class="cls-9" x1="345.95" y1="521" x2="348.9" y2="518.05"/><line class="cls-9" x1="349.85" y1="517.1" x2="349.85" y2="517.1"/><line class="cls-9" x1="350.88" y1="516.07" x2="353.83" y2="513.12"/><line class="cls-9" x1="354.78" y1="512.17" x2="354.78" y2="512.17"/><line class="cls-9" x1="355.81" y1="511.14" x2="358.76" y2="508.19"/><line class="cls-9" x1="359.71" y1="507.24" x2="359.71" y2="507.24"/><line class="cls-9" x1="360.74" y1="506.21" x2="363.32" y2="503.63"/><line class="cls-9" x1="344.92" y1="529.9" x2="347.87" y2="526.96"/><line class="cls-9" x1="348.9" y1="525.93" x2="348.9" y2="525.93"/><line class="cls-9" x1="349.85" y1="524.97" x2="352.8" y2="522.03"/><line class="cls-9" x1="353.83" y1="521" x2="353.83" y2="521"/><line class="cls-9" x1="354.78" y1="520.04" x2="357.73" y2="517.1"/><line class="cls-9" x1="358.76" y1="516.07" x2="358.76" y2="516.07"/><line class="cls-9" x1="359.71" y1="515.11" x2="362.66" y2="512.17"/><line class="cls-9" x1="352.8" y1="529.9" x2="352.8" y2="529.9"/><line class="cls-9" x1="353.83" y1="528.94" x2="356.77" y2="525.93"/><line class="cls-9" x1="357.73" y1="524.97" x2="357.73" y2="524.97"/><line class="cls-9" x1="358.76" y1="524.01" x2="361.7" y2="521"/><line class="cls-9" x1="362.66" y1="520.04" x2="362.66" y2="520.04"/><line class="cls-9" x1="359.71" y1="530.86" x2="360.74" y2="529.9"/><line class="cls-9" x1="361.7" y1="528.94" x2="361.7" y2="528.94"/><line class="cls-9" x1="362.66" y1="527.91" x2="363.32" y2="527.25"/><polyline class="cls-9" points="363.32 419.38 344.78 419.38 344.78 530.86 363.32 530.86 363.32 419.38"/><line class="cls-9" x1="163.55" y1="770.43" x2="170.76" y2="763.22"/><line class="cls-9" x1="163.55" y1="778.3" x2="178.63" y2="763.22"/><line class="cls-9" x1="167.97" y1="781.83" x2="186.51" y2="763.22"/><line class="cls-9" x1="175.84" y1="781.83" x2="194.45" y2="763.22"/><line class="cls-9" x1="183.71" y1="781.83" x2="202.33" y2="763.22"/><line class="cls-9" x1="191.58" y1="781.83" x2="210.2" y2="763.22"/><line class="cls-9" x1="199.46" y1="781.83" x2="218.07" y2="763.22"/><line class="cls-9" x1="207.4" y1="781.83" x2="225.95" y2="763.22"/><line class="cls-9" x1="215.28" y1="781.83" x2="233.82" y2="763.22"/><line class="cls-9" x1="223.15" y1="781.83" x2="241.77" y2="763.22"/><line class="cls-9" x1="231.02" y1="781.83" x2="249.64" y2="763.22"/><line class="cls-9" x1="238.9" y1="781.83" x2="257.51" y2="763.22"/><line class="cls-9" x1="246.77" y1="781.83" x2="265.38" y2="763.22"/><line class="cls-9" x1="254.72" y1="781.83" x2="273.26" y2="763.22"/><line class="cls-9" x1="262.59" y1="781.83" x2="275.1" y2="769.33"/><line class="cls-9" x1="270.46" y1="781.83" x2="275.1" y2="777.2"/><line class="cls-9" x1="163.55" y1="766.53" x2="163.55" y2="766.46"/><line class="cls-9" x1="164.58" y1="765.5" x2="164.58" y2="765.5"/><line class="cls-9" x1="165.54" y1="764.47" x2="166.79" y2="763.22"/><line class="cls-9" x1="163.55" y1="774.33" x2="163.55" y2="774.33"/><line class="cls-9" x1="164.58" y1="773.37" x2="167.52" y2="770.43"/><line class="cls-9" x1="168.48" y1="769.4" x2="168.48" y2="769.4"/><line class="cls-9" x1="169.51" y1="768.44" x2="172.45" y2="765.5"/><line class="cls-9" x1="173.41" y1="764.47" x2="173.41" y2="764.47"/><line class="cls-9" x1="174.44" y1="763.51" x2="174.73" y2="763.22"/><line class="cls-9" x1="163.99" y1="781.83" x2="166.49" y2="779.26"/><line class="cls-9" x1="167.52" y1="778.3" x2="167.52" y2="778.3"/><line class="cls-9" x1="168.48" y1="777.35" x2="171.42" y2="774.33"/><line class="cls-9" x1="172.45" y1="773.37" x2="172.45" y2="773.37"/><line class="cls-9" x1="173.41" y1="772.42" x2="176.35" y2="769.4"/><line class="cls-9" x1="177.38" y1="768.44" x2="177.38" y2="768.44"/><line class="cls-9" x1="178.34" y1="767.49" x2="181.28" y2="764.47"/><line class="cls-9" x1="182.31" y1="763.51" x2="182.31" y2="763.51"/><line class="cls-9" x1="172.45" y1="781.25" x2="175.4" y2="778.3"/><line class="cls-9" x1="176.35" y1="777.35" x2="176.35" y2="777.35"/><line class="cls-9" x1="177.38" y1="776.32" x2="180.33" y2="773.37"/><line class="cls-9" x1="181.28" y1="772.42" x2="181.28" y2="772.42"/><line class="cls-9" x1="182.31" y1="771.39" x2="185.26" y2="768.44"/><line class="cls-9" x1="186.21" y1="767.49" x2="186.21" y2="767.49"/><line class="cls-9" x1="187.24" y1="766.46" x2="190.19" y2="763.51"/><line class="cls-9" x1="180.33" y1="781.25" x2="180.33" y2="781.25"/><line class="cls-9" x1="181.28" y1="780.29" x2="184.3" y2="777.35"/><line class="cls-9" x1="185.26" y1="776.32" x2="185.26" y2="776.32"/><line class="cls-9" x1="186.21" y1="775.36" x2="189.23" y2="772.42"/><line class="cls-9" x1="190.19" y1="771.39" x2="190.19" y2="771.39"/><line class="cls-9" x1="191.14" y1="770.43" x2="194.16" y2="767.49"/><line class="cls-9" x1="195.12" y1="766.46" x2="195.12" y2="766.46"/><line class="cls-9" x1="196.07" y1="765.5" x2="198.35" y2="763.22"/><line class="cls-9" x1="187.68" y1="781.83" x2="188.2" y2="781.25"/><line class="cls-9" x1="189.23" y1="780.29" x2="189.23" y2="780.29"/><line class="cls-9" x1="190.19" y1="779.26" x2="193.13" y2="776.32"/><line class="cls-9" x1="194.16" y1="775.36" x2="194.16" y2="775.36"/><line class="cls-9" x1="195.12" y1="774.33" x2="198.06" y2="771.39"/><line class="cls-9" x1="199.09" y1="770.43" x2="199.09" y2="770.43"/><line class="cls-9" x1="200.05" y1="769.4" x2="202.99" y2="766.46"/><line class="cls-9" x1="204.02" y1="765.5" x2="204.02" y2="765.5"/><line class="cls-9" x1="204.98" y1="764.47" x2="206.23" y2="763.22"/><line class="cls-9" x1="195.56" y1="781.83" x2="197.1" y2="780.29"/><line class="cls-9" x1="198.06" y1="779.26" x2="198.06" y2="779.26"/><line class="cls-9" x1="199.09" y1="778.3" x2="202.03" y2="775.36"/><line class="cls-9" x1="202.99" y1="774.33" x2="202.99" y2="774.33"/><line class="cls-9" x1="204.02" y1="773.37" x2="206.96" y2="770.43"/><line class="cls-9" x1="207.92" y1="769.4" x2="207.92" y2="769.4"/><line class="cls-9" x1="208.88" y1="768.44" x2="211.89" y2="765.5"/><line class="cls-9" x1="212.85" y1="764.47" x2="212.85" y2="764.47"/><line class="cls-9" x1="213.81" y1="763.51" x2="214.1" y2="763.22"/><line class="cls-9" x1="203.43" y1="781.83" x2="205.93" y2="779.26"/><line class="cls-9" x1="206.96" y1="778.3" x2="206.96" y2="778.3"/><line class="cls-9" x1="207.92" y1="777.35" x2="210.86" y2="774.33"/><line class="cls-9" x1="211.89" y1="773.37" x2="211.89" y2="773.37"/><line class="cls-9" x1="212.85" y1="772.42" x2="215.79" y2="769.4"/><line class="cls-9" x1="216.82" y1="768.44" x2="216.82" y2="768.44"/><line class="cls-9" x1="217.78" y1="767.49" x2="220.72" y2="764.47"/><line class="cls-9" x1="221.75" y1="763.51" x2="221.75" y2="763.51"/><line class="cls-9" x1="211.89" y1="781.25" x2="214.84" y2="778.3"/><line class="cls-9" x1="215.79" y1="777.35" x2="215.79" y2="777.35"/><line class="cls-9" x1="216.82" y1="776.32" x2="219.77" y2="773.37"/><line class="cls-9" x1="220.72" y1="772.42" x2="220.72" y2="772.42"/><line class="cls-9" x1="221.75" y1="771.39" x2="224.69" y2="768.44"/><line class="cls-9" x1="225.65" y1="767.49" x2="225.65" y2="767.49"/><line class="cls-9" x1="226.68" y1="766.46" x2="229.62" y2="763.51"/><line class="cls-9" x1="219.77" y1="781.25" x2="219.77" y2="781.25"/><line class="cls-9" x1="220.72" y1="780.29" x2="223.66" y2="777.35"/><line class="cls-9" x1="224.69" y1="776.32" x2="224.69" y2="776.32"/><line class="cls-9" x1="225.65" y1="775.36" x2="228.59" y2="772.42"/><line class="cls-9" x1="229.62" y1="771.39" x2="229.62" y2="771.39"/><line class="cls-9" x1="230.58" y1="770.43" x2="233.52" y2="767.49"/><line class="cls-9" x1="234.55" y1="766.46" x2="234.55" y2="766.46"/><line class="cls-9" x1="235.51" y1="765.5" x2="237.79" y2="763.22"/><line class="cls-9" x1="227.12" y1="781.83" x2="227.64" y2="781.25"/><line class="cls-9" x1="228.59" y1="780.29" x2="228.59" y2="780.29"/><line class="cls-9" x1="229.62" y1="779.26" x2="232.57" y2="776.32"/><line class="cls-9" x1="233.52" y1="775.36" x2="233.52" y2="775.36"/><line class="cls-9" x1="234.55" y1="774.33" x2="237.5" y2="771.39"/><line class="cls-9" x1="238.45" y1="770.43" x2="238.45" y2="770.43"/><line class="cls-9" x1="239.48" y1="769.4" x2="242.43" y2="766.46"/><line class="cls-9" x1="243.38" y1="765.5" x2="243.38" y2="765.5"/><line class="cls-9" x1="244.41" y1="764.47" x2="245.66" y2="763.22"/><line class="cls-9" x1="235" y1="781.83" x2="236.54" y2="780.29"/><line class="cls-9" x1="237.5" y1="779.26" x2="237.5" y2="779.26"/><line class="cls-9" x1="238.45" y1="778.3" x2="241.47" y2="775.36"/><line class="cls-9" x1="242.43" y1="774.33" x2="242.43" y2="774.33"/><line class="cls-9" x1="243.38" y1="773.37" x2="246.4" y2="770.43"/><line class="cls-9" x1="247.36" y1="769.4" x2="247.36" y2="769.4"/><line class="cls-9" x1="248.31" y1="768.44" x2="251.33" y2="765.5"/><line class="cls-9" x1="252.29" y1="764.47" x2="252.29" y2="764.47"/><line class="cls-9" x1="253.24" y1="763.51" x2="253.54" y2="763.22"/><line class="cls-9" x1="242.87" y1="781.83" x2="245.37" y2="779.26"/><line class="cls-9" x1="246.4" y1="778.3" x2="246.4" y2="778.3"/><line class="cls-9" x1="247.36" y1="777.35" x2="250.3" y2="774.33"/><line class="cls-9" x1="251.33" y1="773.37" x2="251.33" y2="773.37"/><line class="cls-9" x1="252.29" y1="772.42" x2="255.23" y2="769.4"/><line class="cls-9" x1="256.26" y1="768.44" x2="256.26" y2="768.44"/><line class="cls-9" x1="257.22" y1="767.49" x2="260.16" y2="764.47"/><line class="cls-9" x1="261.19" y1="763.51" x2="261.19" y2="763.51"/><line class="cls-9" x1="251.33" y1="781.25" x2="254.27" y2="778.3"/><line class="cls-9" x1="255.23" y1="777.35" x2="255.23" y2="777.35"/><line class="cls-9" x1="256.26" y1="776.32" x2="259.2" y2="773.37"/><line class="cls-9" x1="260.16" y1="772.42" x2="260.16" y2="772.42"/><line class="cls-9" x1="261.19" y1="771.39" x2="264.13" y2="768.44"/><line class="cls-9" x1="265.09" y1="767.49" x2="265.09" y2="767.49"/><line class="cls-9" x1="266.12" y1="766.46" x2="269.06" y2="763.51"/><line class="cls-9" x1="259.2" y1="781.25" x2="259.2" y2="781.25"/><line class="cls-9" x1="260.16" y1="780.29" x2="263.1" y2="777.35"/><line class="cls-9" x1="264.13" y1="776.32" x2="264.13" y2="776.32"/><line class="cls-9" x1="265.09" y1="775.36" x2="268.03" y2="772.42"/><line class="cls-9" x1="269.06" y1="771.39" x2="269.06" y2="771.39"/><line class="cls-9" x1="270.02" y1="770.43" x2="272.96" y2="767.49"/><line class="cls-9" x1="273.99" y1="766.46" x2="273.99" y2="766.46"/><line class="cls-9" x1="274.95" y1="765.5" x2="275.1" y2="765.35"/><line class="cls-9" x1="266.49" y1="781.83" x2="267.08" y2="781.25"/><line class="cls-9" x1="268.03" y1="780.29" x2="268.03" y2="780.29"/><line class="cls-9" x1="269.06" y1="779.26" x2="272.01" y2="776.32"/><line class="cls-9" x1="272.96" y1="775.36" x2="272.96" y2="775.36"/><line class="cls-9" x1="273.99" y1="774.33" x2="275.1" y2="773.3"/><line class="cls-9" x1="274.43" y1="781.83" x2="275.1" y2="781.17"/><polyline class="cls-9" points="275.1 763.22 275.1 781.84 163.55 781.84 163.55 763.22 275.1 763.22"/></svg>