<svg id="_93" data-name="93" xmlns="http://www.w3.org/2000/svg" viewBox="0 0 1098.86 883.62"><defs><style>.cls-1{font-size:40px;}.cls-1,.cls-3,.cls-6{font-family:PTSans-Regular, PT Sans;}.cls-2,.cls-4,.cls-5,.cls-8{fill:none;stroke-linecap:round;stroke-linejoin:round;}.cls-2,.cls-4,.cls-5{stroke:#000;}.cls-2{stroke-width:0.5px;}.cls-3{font-size:36px;}.cls-5{stroke-width:0.25px;stroke-dasharray:1 1;}.cls-6{isolation:isolate;font-size:12px;fill:#969696;}.cls-7{letter-spacing:-0.01em;}.cls-8{stroke:#969696;stroke-width:0.75px;}</style></defs><title>11floor_93flat</title><text class="cls-1" transform="translate(675.68 362.73)">3K</text><text class="cls-1" transform="translate(650.9 412.91)">76.55</text><text class="cls-1" transform="translate(656.52 312.83)">№93</text><polyline class="cls-2" points="636.62 423.72 636.62 274.64 760.94 274.64 760.94 423.72"/><line class="cls-2" x1="636.62" y1="324.43" x2="760.94" y2="324.43"/><line class="cls-2" x1="636.62" y1="423.72" x2="760.94" y2="423.72"/><line class="cls-2" x1="636.62" y1="374.22" x2="760.94" y2="374.22"/><text class="cls-3" transform="translate(56.76 763.02)">6.88</text><text class="cls-3" transform="translate(237.91 635.82)">5.33</text><text class="cls-3" transform="translate(440.21 661.91)">11.90</text><text class="cls-3" transform="translate(225.91 810.79)">2.66</text><text class="cls-3" transform="translate(121.73 587.01)">3.95</text><text class="cls-3" transform="translate(90.74 240.96)">12.75</text><text class="cls-3" transform="translate(369.49 240.96)">11.33</text><text class="cls-3" transform="translate(649.96 240.96)">20.32</text><text class="cls-3" transform="translate(644.83 573.45)">0.51</text><text class="cls-3" transform="translate(620.2 120.2)">0.92</text><line class="cls-4" x1="293.43" y1="511.32" x2="293.43" y2="505.08"/><line class="cls-4" x1="222.21" y1="511.32" x2="222.21" y2="505.08"/><line class="cls-4" x1="309.27" y1="505.08" x2="309.27" y2="511.32"/><line class="cls-4" x1="372.62" y1="505.08" x2="372.62" y2="511.32"/><line class="cls-4" x1="537.26" y1="511.32" x2="537.26" y2="505.08"/><line class="cls-4" x1="608.57" y1="511.32" x2="608.57" y2="505.08"/><line class="cls-4" x1="537.26" y1="505.08" x2="372.62" y2="505.08"/><line class="cls-4" x1="309.27" y1="505.08" x2="293.43" y2="505.08"/><polyline class="cls-4" points="222.21 505.08 211.07 505.08 211.07 511.32 222.21 511.32"/><line class="cls-4" x1="293.43" y1="511.32" x2="309.27" y2="511.32"/><line class="cls-4" x1="372.62" y1="511.32" x2="537.26" y2="511.32"/><line class="cls-4" x1="222.21" y1="511.32" x2="222.21" y2="505.08"/><line class="cls-4" x1="293.43" y1="511.32" x2="293.43" y2="505.08"/><line class="cls-4" x1="372.62" y1="505.08" x2="372.62" y2="511.32"/><line class="cls-4" x1="309.27" y1="505.08" x2="309.27" y2="511.32"/><line class="cls-4" x1="608.57" y1="511.32" x2="608.57" y2="505.08"/><line class="cls-4" x1="537.26" y1="511.32" x2="537.26" y2="505.08"/><polyline class="cls-4" points="383.68 710.94 377.39 710.94 383.68 710.94"/><line class="cls-4" x1="383.68" y1="671.68" x2="377.39" y2="671.68"/><polyline class="cls-4" points="383.68 553.82 377.39 553.82 377.39 511.32"/><line class="cls-4" x1="377.39" y1="671.68" x2="377.39" y2="710.94"/><polyline class="cls-4" points="383.68 717.26 383.68 710.94 383.68 671.68"/><polyline class="cls-4" points="383.68 553.82 383.68 511.32 377.39 511.32"/><line class="cls-4" x1="383.68" y1="553.82" x2="377.39" y2="553.82"/><line class="cls-4" x1="383.68" y1="671.68" x2="377.39" y2="671.68"/><polyline class="cls-4" points="521.43 181.27 521.43 507.41 527.8 507.41 527.8 181.27 521.43 181.27"/><polyline class="cls-4" points="293.43 181.27 293.43 507.41 299.8 507.41 299.8 181.27 293.43 181.27"/><line class="cls-4" x1="226.9" y1="710.94" x2="226.9" y2="717.26"/><line class="cls-4" x1="282.37" y1="710.94" x2="282.37" y2="717.26"/><line class="cls-4" x1="211.07" y1="717.26" x2="226.9" y2="717.26"/><line class="cls-4" x1="282.37" y1="717.26" x2="331.47" y2="717.26"/><line class="cls-4" x1="337.76" y1="717.26" x2="377.39" y2="717.26"/><line class="cls-4" x1="377.39" y1="710.94" x2="282.37" y2="710.94"/><line class="cls-4" x1="226.9" y1="710.94" x2="211.07" y2="710.94"/><line class="cls-4" x1="282.37" y1="710.94" x2="282.37" y2="717.26"/><line class="cls-4" x1="226.9" y1="710.94" x2="226.9" y2="717.26"/><line class="cls-4" x1="204.78" y1="621.36" x2="54.29" y2="621.36"/><polyline class="cls-4" points="48.01 621.36 16.34 621.36 16.34 627.68 204.78 627.68"/><polyline class="cls-4" points="331.47 725.08 334.57 725.08 337.76 725.08"/><polyline class="cls-4" points="331.47 756.52 334.57 756.52 337.76 756.52"/><line class="cls-4" x1="331.47" y1="717.26" x2="331.47" y2="725.08"/><polyline class="cls-4" points="331.47 756.52 331.47 854.75 337.76 854.75 337.76 768.33"/><line class="cls-4" x1="337.76" y1="762.01" x2="337.76" y2="756.52"/><line class="cls-4" x1="337.76" y1="725.08" x2="337.76" y2="717.26"/><path class="cls-4" d="M320.7,783a31.65,31.65,0,0,0,10.82,1.9" transform="translate(0 -28.35)"/><line class="cls-4" x1="331.47" y1="725.08" x2="320.58" y2="754.69"/><polyline class="cls-4" points="337.76 756.52 334.57 756.52 331.47 756.52 334.57 756.52"/><polyline class="cls-4" points="337.76 725.08 334.57 725.08 331.47 725.08 334.57 725.08"/><polyline class="cls-4" points="211.07 451.6 16.34 451.6 16.34 457.92 48.01 457.92"/><line class="cls-4" x1="54.29" y1="457.92" x2="204.78" y2="457.92"/><polyline class="cls-4" points="54.29 617.45 51.19 617.45 48.01 617.45"/><polyline class="cls-4" points="54.29 586.01 51.19 586.01 48.01 586.01"/><line class="cls-4" x1="54.29" y1="621.36" x2="54.29" y2="617.45"/><line class="cls-4" x1="54.29" y1="586.01" x2="54.29" y2="457.92"/><line class="cls-4" x1="48.01" y1="457.92" x2="48.01" y2="575.78"/><line class="cls-4" x1="48.01" y1="582.1" x2="48.01" y2="586.01"/><line class="cls-4" x1="48.01" y1="617.45" x2="48.01" y2="621.36"/><path class="cls-4" d="M65.15,616.33a31.82,31.82,0,0,0-10.81-1.89" transform="translate(0 -28.35)"/><line class="cls-4" x1="54.29" y1="617.45" x2="65.19" y2="587.92"/><polyline class="cls-4" points="48.01 586.01 51.19 586.01 54.29 586.01 51.19 586.01"/><polyline class="cls-4" points="48.01 617.45 51.19 617.45 54.29 617.45 51.19 617.45"/><polyline class="cls-4" points="48.01 575.78 16.34 575.78 16.34 582.1 48.01 582.1"/><line class="cls-4" x1="337.76" y1="768.33" x2="377.39" y2="768.33"/><line class="cls-4" x1="377.39" y1="762.01" x2="337.76" y2="762.01"/><line class="cls-4" x1="377.39" y1="717.26" x2="377.39" y2="762.01"/><polyline class="cls-4" points="377.39 768.33 377.39 854.75 383.68 854.75 383.68 717.26"/><line class="cls-4" x1="204.78" y1="627.68" x2="211.07" y2="627.68"/><line class="cls-4" x1="204.78" y1="710.94" x2="211.07" y2="710.94"/><line class="cls-4" x1="204.78" y1="550.66" x2="211.07" y2="550.66"/><line class="cls-4" x1="204.78" y1="605.64" x2="211.07" y2="605.64"/><line class="cls-4" x1="211.07" y1="854.75" x2="211.07" y2="717.26"/><line class="cls-4" x1="211.07" y1="627.68" x2="211.07" y2="605.64"/><polyline class="cls-4" points="211.07 451.6 211.07 457.92 211.07 550.66"/><line class="cls-4" x1="204.78" y1="457.92" x2="204.78" y2="550.66"/><line class="cls-4" x1="204.78" y1="605.64" x2="204.78" y2="621.36"/><polyline class="cls-4" points="204.78 710.94 204.78 854.75 211.07 854.75"/><line class="cls-4" x1="204.78" y1="710.94" x2="211.07" y2="710.94"/><line class="cls-4" x1="204.78" y1="627.68" x2="211.07" y2="627.68"/><line class="cls-4" x1="204.78" y1="605.64" x2="211.07" y2="605.64"/><line class="cls-4" x1="204.78" y1="550.66" x2="211.07" y2="550.66"/><polyline class="cls-4" points="636.22 532.53 637.06 532.53 636.22 532.53"/><line class="cls-4" x1="637.06" y1="532.53" x2="750.68" y2="532.53"/><polyline class="cls-4" points="608.57 505.08 628.35 505.08 750.68 505.08"/><line class="cls-4" x1="637.06" y1="533.36" x2="750.68" y2="533.36"/><line class="cls-4" x1="750.68" y1="524.71" x2="750.68" y2="505.08"/><line class="cls-4" x1="67.03" y1="153.74" x2="0.5" y2="153.74"/><line class="cls-4" x1="334.57" y1="153.74" x2="228.49" y2="153.74"/><line class="cls-4" x1="865.89" y1="153.74" x2="720.18" y2="153.74"/><line class="cls-4" x1="584.02" y1="153.74" x2="475.51" y2="153.74"/><line class="cls-4" x1="863.46" y1="161.64" x2="722.53" y2="161.64"/><line class="cls-4" x1="581.59" y1="161.64" x2="475.51" y2="161.64"/><line class="cls-4" x1="70.13" y1="153.74" x2="70.13" y2="161.64"/><line class="cls-4" x1="225.31" y1="153.74" x2="225.31" y2="161.64"/><line class="cls-4" x1="70.13" y1="152.99" x2="70.13" y2="153.74"/><line class="cls-4" x1="225.31" y1="152.99" x2="225.31" y2="153.74"/><line class="cls-4" x1="67.03" y1="161.64" x2="67.03" y2="161.64"/><polyline class="cls-4" points="67.03 153.74 69.38 153.74 69.38 161.64 69.38 153.74"/><line class="cls-4" x1="69.38" y1="152.99" x2="70.13" y2="152.99"/><line class="cls-4" x1="228.49" y1="161.64" x2="228.49" y2="161.64"/><polyline class="cls-4" points="228.5 153.74 226.15 153.74 226.15 161.64 226.15 153.74"/><line class="cls-4" x1="226.15" y1="152.99" x2="225.31" y2="152.99"/><polyline class="cls-4" points="67.03 161.64 67.03 166.3 67.03 181.27"/><polyline class="cls-4" points="228.5 161.64 228.5 166.3 228.5 181.27"/><line class="cls-4" x1="472.41" y1="153.74" x2="472.41" y2="161.64"/><line class="cls-4" x1="337.76" y1="153.74" x2="337.76" y2="161.64"/><line class="cls-4" x1="472.41" y1="152.99" x2="472.41" y2="153.74"/><line class="cls-4" x1="337.76" y1="152.99" x2="337.76" y2="153.74"/><line class="cls-4" x1="475.51" y1="161.64" x2="475.51" y2="161.64"/><polyline class="cls-4" points="475.51 153.74 473.16 153.74 473.16 161.64 473.16 153.74"/><line class="cls-4" x1="473.16" y1="152.99" x2="472.41" y2="152.99"/><line class="cls-4" x1="334.57" y1="161.64" x2="334.57" y2="161.64"/><polyline class="cls-4" points="334.57 153.74 337 153.74 337 161.64 337 153.74"/><line class="cls-4" x1="337" y1="152.99" x2="337.76" y2="152.99"/><polyline class="cls-4" points="475.51 161.64 475.51 166.3 475.51 181.27"/><polyline class="cls-4" points="334.57 161.64 334.57 166.3 334.57 181.27"/><line class="cls-4" x1="866.65" y1="153.74" x2="866.65" y2="161.64"/><line class="cls-4" x1="866.65" y1="152.99" x2="866.65" y2="153.74"/><line class="cls-4" x1="865.89" y1="153.74" x2="865.89" y2="161.64"/><line class="cls-4" x1="865.89" y1="152.99" x2="866.65" y2="152.99"/><polyline class="cls-4" points="863.46 161.64 863.46 166.3 863.46 181.27"/><line class="cls-4" x1="719.43" y1="153.74" x2="719.43" y2="161.64"/><line class="cls-4" x1="584.77" y1="153.74" x2="584.77" y2="161.64"/><line class="cls-4" x1="719.43" y1="152.99" x2="719.43" y2="153.74"/><line class="cls-4" x1="584.77" y1="152.99" x2="584.77" y2="153.74"/><line class="cls-4" x1="581.59" y1="161.64" x2="584.02" y2="161.64"/><line class="cls-4" x1="720.18" y1="153.74" x2="720.18" y2="161.64"/><line class="cls-4" x1="720.18" y1="152.99" x2="719.43" y2="152.99"/><line class="cls-4" x1="584.02" y1="153.74" x2="584.02" y2="161.64"/><line class="cls-4" x1="584.02" y1="152.99" x2="584.77" y2="152.99"/><polyline class="cls-4" points="722.53 161.64 722.53 166.3 722.53 181.27"/><polyline class="cls-4" points="581.59 161.64 581.59 166.3 581.59 181.27"/><line class="cls-4" x1="0.5" y1="181.27" x2="67.03" y2="181.27"/><line class="cls-4" x1="228.49" y1="181.27" x2="334.57" y2="181.27"/><line class="cls-4" x1="475.51" y1="181.27" x2="581.59" y2="181.27"/><line class="cls-4" x1="722.53" y1="181.27" x2="863.46" y2="181.27"/><line class="cls-4" x1="865.89" y1="152.99" x2="720.18" y2="152.99"/><line class="cls-4" x1="584.02" y1="152.99" x2="473.16" y2="152.99"/><line class="cls-4" x1="337" y1="152.99" x2="226.15" y2="152.99"/><polyline class="cls-4" points="69.38 152.99 0.5 152.99 0.5 180.57"/><polyline class="cls-4" points="70.13 152.99 225.31 152.99 225.31 149 70.13 149 70.13 152.99"/><line class="cls-4" x1="228.49" y1="181.27" x2="67.03" y2="181.27"/><polyline class="cls-4" points="228.5 166.3 224.14 166.3 224.14 163.14 222.21 163.14 222.21 161.64 228.5 161.64"/><polyline class="cls-4" points="173.61 161.64 176.8 161.64 176.8 163.14 174.78 163.14 174.78 166.3 173.61 166.3"/><line class="cls-4" x1="176.8" y1="161.64" x2="222.21" y2="161.64"/><polyline class="cls-4" points="224.14 167.88 219.44 167.88 179.56 167.88"/><polyline class="cls-4" points="219.44 167.88 219.44 163.14 224.14 163.14 224.14 167.88"/><polyline class="cls-4" points="174.78 163.14 179.56 163.14 179.56 167.88 174.78 167.88 174.78 163.14"/><line class="cls-4" x1="179.56" y1="163.14" x2="219.45" y2="163.14"/><line class="cls-4" x1="219.45" y1="167.88" x2="179.56" y2="167.88"/><line class="cls-4" x1="219.45" y1="165.55" x2="179.56" y2="165.55"/><polyline class="cls-4" points="173.61 166.3 172.44 166.3 172.44 163.14 170.43 163.14 170.43 161.64 173.61 161.64"/><polyline class="cls-4" points="121.91 161.64 125.1 161.64 125.1 163.14 123.09 163.14 123.09 166.3 121.91 166.3"/><line class="cls-4" x1="125.1" y1="161.64" x2="170.43" y2="161.64"/><polyline class="cls-4" points="172.44 167.88 167.66 167.88 127.86 167.88"/><polyline class="cls-4" points="167.66 167.88 167.66 163.14 172.44 163.14 172.44 167.88"/><polyline class="cls-4" points="123.09 163.14 127.86 163.14 127.86 167.88 123.09 167.88 123.09 163.14"/><line class="cls-4" x1="127.86" y1="163.14" x2="167.66" y2="163.14"/><line class="cls-4" x1="167.66" y1="167.88" x2="127.86" y2="167.88"/><line class="cls-4" x1="167.66" y1="165.55" x2="127.86" y2="165.55"/><polyline class="cls-4" points="121.91 166.3 120.74 166.3 120.74 163.14 118.73 163.14 118.73 161.64 121.91 161.64"/><polyline class="cls-4" points="67.03 161.64 73.31 161.64 73.31 163.14 71.39 163.14 71.39 166.3 67.03 166.3"/><line class="cls-4" x1="73.31" y1="161.64" x2="118.73" y2="161.64"/><polyline class="cls-4" points="120.74 167.88 115.96 167.88 76.08 167.88"/><polyline class="cls-4" points="115.96 167.88 115.96 163.14 120.74 163.14 120.74 167.88"/><polyline class="cls-4" points="71.39 163.14 76.08 163.14 76.08 167.88 71.39 167.88 71.39 163.14"/><line class="cls-4" x1="76.08" y1="163.14" x2="115.96" y2="163.14"/><line class="cls-4" x1="115.96" y1="167.88" x2="76.08" y2="167.88"/><line class="cls-4" x1="115.96" y1="165.55" x2="76.08" y2="165.55"/><polyline class="cls-4" points="228.5 181.27 228.5 166.3 228.5 161.64 228.5 166.3"/><polyline class="cls-4" points="67.03 181.27 67.03 166.3 67.03 161.64 67.03 166.3"/><line class="cls-4" x1="225.31" y1="152.99" x2="225.31" y2="153.74"/><polyline class="cls-4" points="225.31 161.64 226.15 161.64 225.31 161.64"/><polyline class="cls-4" points="226.15 161.64 228.5 161.64 226.15 161.64"/><line class="cls-4" x1="70.13" y1="152.99" x2="70.13" y2="153.74"/><polyline class="cls-4" points="70.13 161.64 69.38 161.64 70.13 161.64"/><polyline class="cls-4" points="69.38 161.64 67.03 161.64 69.38 161.64"/><line class="cls-4" x1="225.31" y1="153.74" x2="225.31" y2="161.64"/><line class="cls-4" x1="70.13" y1="153.74" x2="70.13" y2="161.64"/><polyline class="cls-4" points="472.41 152.99 337.76 152.99 337.76 149 472.41 149 472.41 152.99"/><line class="cls-4" x1="334.57" y1="181.27" x2="475.51" y2="181.27"/><polyline class="cls-4" points="334.57 166.3 338.93 166.3 338.93 163.14 340.94 163.14 340.94 161.64 334.57 161.64"/><polyline class="cls-4" points="405.04 161.64 401.94 161.64 401.94 163.14 403.87 163.14 403.87 166.3 405.04 166.3"/><line class="cls-4" x1="401.94" y1="161.64" x2="340.94" y2="161.64"/><polyline class="cls-4" points="338.93 167.88 343.71 167.88 399.09 167.88"/><polyline class="cls-4" points="343.71 167.88 343.71 163.14 338.93 163.14 338.93 167.88"/><polyline class="cls-4" points="403.87 163.14 399.09 163.14 399.09 167.88 403.87 167.88 403.87 163.14"/><line class="cls-4" x1="399.09" y1="163.14" x2="343.71" y2="163.14"/><line class="cls-4" x1="343.71" y1="167.88" x2="399.09" y2="167.88"/><line class="cls-4" x1="343.71" y1="165.55" x2="399.09" y2="165.55"/><polyline class="cls-4" points="405.04 166.3 406.3 166.3 406.3 163.14 408.23 163.14 408.23 161.64 405.04 161.64"/><polyline class="cls-4" points="475.51 161.64 469.23 161.64 469.23 163.14 471.15 163.14 471.15 166.3 475.51 166.3"/><line class="cls-4" x1="469.23" y1="161.64" x2="408.23" y2="161.64"/><polyline class="cls-4" points="406.3 167.88 410.99 167.88 466.46 167.88"/><polyline class="cls-4" points="410.99 167.88 410.99 163.14 406.3 163.14 406.3 167.88"/><polyline class="cls-4" points="471.15 163.14 466.46 163.14 466.46 167.88 471.15 167.88 471.15 163.14"/><line class="cls-4" x1="466.46" y1="163.14" x2="410.99" y2="163.14"/><line class="cls-4" x1="410.99" y1="167.88" x2="466.46" y2="167.88"/><line class="cls-4" x1="410.99" y1="165.55" x2="466.46" y2="165.55"/><polyline class="cls-4" points="334.57 181.27 334.57 166.3 334.57 161.64 334.57 166.3"/><polyline class="cls-4" points="475.51 181.27 475.51 166.3 475.51 161.64 475.51 166.3"/><line class="cls-4" x1="337.76" y1="152.99" x2="337.76" y2="153.74"/><polyline class="cls-4" points="337.76 161.64 337 161.64 337.76 161.64"/><polyline class="cls-4" points="337 161.64 334.57 161.64 337 161.64"/><line class="cls-4" x1="472.41" y1="152.99" x2="472.41" y2="153.74"/><polyline class="cls-4" points="472.41 161.64 473.16 161.64 472.41 161.64"/><polyline class="cls-4" points="473.16 161.64 475.51 161.64 473.16 161.64"/><line class="cls-4" x1="337.76" y1="153.74" x2="337.76" y2="161.64"/><line class="cls-4" x1="472.41" y1="153.74" x2="472.41" y2="161.64"/><polyline class="cls-4" points="1070.26 149 866.65 149 866.65 152.99"/><line class="cls-4" x1="1014.54" y1="181.27" x2="863.46" y2="181.27"/><line class="cls-4" x1="1063.47" y1="152.99" x2="866.65" y2="152.99"/><line class="cls-4" x1="1014.54" y1="181.27" x2="863.46" y2="181.27"/><polyline class="cls-4" points="1040.35 166.3 1028.45 166.3 1028.45 161.64 1040.35 161.64 1048.47 161.64"/><polyline class="cls-4" points="980.35 161.64 983.53 161.64 983.53 166.3 980.35 166.3"/><line class="cls-4" x1="1028.45" y1="163.97" x2="983.53" y2="163.97"/><line class="cls-4" x1="1028.45" y1="166.3" x2="983.53" y2="166.3"/><line class="cls-4" x1="983.53" y1="161.64" x2="1028.45" y2="161.64"/><line class="cls-4" x1="1040.34" y1="161.64" x2="1040.34" y2="166.3"/><polyline class="cls-4" points="980.35 166.3 979.18 166.3 979.18 163.14 977.17 163.14 977.17 161.64 980.35 161.64"/><polyline class="cls-4" points="923.54 161.64 926.64 161.64 926.64 163.14 924.71 163.14 924.71 166.3 923.54 166.3"/><line class="cls-4" x1="926.64" y1="161.64" x2="977.17" y2="161.64"/><polyline class="cls-4" points="979.18 167.88 974.4 167.88 929.4 167.88"/><polyline class="cls-4" points="974.4 167.88 974.4 163.14 979.18 163.14 979.18 167.88"/><polyline class="cls-4" points="924.71 163.14 929.4 163.14 929.4 167.88 924.71 167.88 924.71 163.14"/><line class="cls-4" x1="929.41" y1="163.14" x2="974.4" y2="163.14"/><line class="cls-4" x1="974.4" y1="167.88" x2="929.41" y2="167.88"/><line class="cls-4" x1="974.4" y1="165.55" x2="929.41" y2="165.55"/><polyline class="cls-4" points="923.54 166.3 922.28 166.3 922.28 163.14 920.36 163.14 920.36 161.64 923.54 161.64"/><polyline class="cls-4" points="863.46 161.64 869.83 161.64 869.83 163.14 867.82 163.14 867.82 166.3 863.46 166.3"/><line class="cls-4" x1="869.83" y1="161.64" x2="920.36" y2="161.64"/><polyline class="cls-4" points="922.28 167.88 917.59 167.88 872.6 167.88"/><polyline class="cls-4" points="917.59 167.88 917.59 163.14 922.28 163.14 922.28 167.88"/><polyline class="cls-4" points="867.82 163.14 872.6 163.14 872.6 167.88 867.82 167.88 867.82 163.14"/><line class="cls-4" x1="872.6" y1="163.14" x2="917.59" y2="163.14"/><line class="cls-4" x1="917.59" y1="167.88" x2="872.6" y2="167.88"/><line class="cls-4" x1="917.59" y1="165.55" x2="872.6" y2="165.55"/><polyline class="cls-4" points="863.46 181.27 863.46 166.3 863.46 161.64 863.46 166.3"/><polyline class="cls-4" points="863.46 161.64 865.89 161.64 863.46 161.64"/><line class="cls-4" x1="866.65" y1="152.99" x2="866.65" y2="153.74"/><polyline class="cls-4" points="866.65 161.64 865.89 161.64 866.65 161.64 866.65 153.74"/><line class="cls-4" x1="584.77" y1="152.99" x2="719.43" y2="152.99"/><line class="cls-4" x1="581.59" y1="181.27" x2="722.53" y2="181.27"/><polyline class="cls-4" points="581.59 166.3 587.96 166.3 587.96 161.64 581.59 161.64"/><polyline class="cls-4" points="649.29 161.64 646.53 161.64 646.53 166.3 649.29 166.3"/><line class="cls-4" x1="587.96" y1="163.97" x2="646.53" y2="163.97"/><line class="cls-4" x1="587.96" y1="166.3" x2="646.53" y2="166.3"/><line class="cls-4" x1="646.53" y1="161.64" x2="587.96" y2="161.64"/><polyline class="cls-4" points="649.29 166.3 650.13 166.3 650.13 163.14 652.06 163.14 652.06 161.64 649.29 161.64"/><polyline class="cls-4" points="722.53 161.64 716.24 161.64 716.24 163.14 718.17 163.14 718.17 166.3 722.53 166.3"/><line class="cls-4" x1="718.17" y1="167.88" x2="659.26" y2="201.65"/><line class="cls-4" x1="716.24" y1="161.64" x2="652.06" y2="161.64"/><polyline class="cls-4" points="650.13 167.88 654.82 167.88 713.48 167.88"/><polyline class="cls-4" points="654.82 167.88 654.82 163.14 650.13 163.14 650.13 167.88"/><polyline class="cls-4" points="718.17 163.14 713.48 163.14 713.48 167.88 718.17 167.88 718.17 163.14"/><line class="cls-4" x1="713.48" y1="163.14" x2="654.82" y2="163.14"/><line class="cls-4" x1="654.82" y1="167.88" x2="713.48" y2="167.88"/><line class="cls-4" x1="654.82" y1="165.55" x2="713.48" y2="165.55"/><path class="cls-4" d="M650.13,196.27a67.28,67.28,0,0,0,9.12,33.79" transform="translate(0 -28.35)"/><polyline class="cls-4" points="581.59 181.27 581.59 166.3 581.59 161.64 581.59 166.3"/><polyline class="cls-4" points="722.53 181.27 722.53 166.3 722.53 161.64 722.53 166.3"/><polyline class="cls-4" points="584.02 161.64 581.59 161.64 584.02 161.64"/><polyline class="cls-4" points="722.53 161.64 720.18 161.64 722.53 161.64"/><line class="cls-4" x1="584.77" y1="152.99" x2="584.77" y2="153.74"/><polyline class="cls-4" points="584.77 161.64 584.02 161.64 584.77 161.64"/><line class="cls-4" x1="719.43" y1="152.99" x2="719.43" y2="153.74"/><polyline class="cls-4" points="719.43 161.64 720.18 161.64 719.43 161.64"/><line class="cls-4" x1="584.77" y1="153.74" x2="584.77" y2="161.64"/><line class="cls-4" x1="719.43" y1="153.74" x2="719.43" y2="161.64"/><polyline class="cls-4" points="944.57 359.85 852.74 520.8 846.03 532.53 852.74 520.8"/><polyline class="cls-4" points="843.69 520.8 839.08 520.8 843.69 520.8"/><line class="cls-4" x1="843.69" y1="520.8" x2="937.45" y2="356.36"/><line class="cls-4" x1="946.08" y1="357.11" x2="939.21" y2="353.28"/><line class="cls-4" x1="946.75" y1="357.52" x2="946.08" y2="357.11"/><polyline class="cls-4" points="944.57 359.85 945.75 357.86 938.79 353.95 945.75 357.86"/><line class="cls-4" x1="946.41" y1="358.19" x2="946.75" y2="357.52"/><polyline class="cls-4" points="937.45 356.36 933.26 354.03 920.19 346.71 829.86 505.08"/><line class="cls-4" x1="846.54" y1="533.36" x2="946.41" y2="358.19"/><polyline class="cls-4" points="1070.26 149 950.19 359.44 946.75 357.52"/><line class="cls-4" x1="1014.54" y1="181.27" x2="920.19" y2="346.71"/><line class="cls-4" x1="1063.47" y1="152.99" x2="946.75" y2="357.52"/><line class="cls-4" x1="1014.54" y1="181.27" x2="920.19" y2="346.71"/><polyline class="cls-4" points="1040.35 166.3 1038.25 170.13 1040.93 171.62 1040.01 173.37 1041.35 174.12 1044.53 168.63 1048.47 161.64"/><polyline class="cls-4" points="1008.25 232.18 1009.85 229.43 1008.5 228.6 1007.5 230.34 1004.73 228.76 1004.15 229.85"/><line class="cls-4" x1="1009.84" y1="229.43" x2="1041.35" y2="174.12"/><polyline class="cls-4" points="1036.83 169.29 1034.48 173.45 1005.65 223.94"/><polyline class="cls-4" points="1034.48 173.45 1038.67 175.7 1040.93 171.62 1036.83 169.29"/><polyline class="cls-4" points="1007.5 230.34 1009.85 226.27 1005.65 223.94 1003.39 228.02 1007.5 230.34"/><line class="cls-4" x1="1009.84" y1="226.27" x2="1038.67" y2="175.7"/><line class="cls-4" x1="1034.48" y1="173.45" x2="1005.66" y2="223.94"/><line class="cls-4" x1="1036.57" y1="174.53" x2="1007.75" y2="225.11"/><line class="cls-4" x1="1044.53" y1="168.63" x2="1040.34" y2="166.3"/><polyline class="cls-4" points="1004.15 229.85 1003.56 230.84 1006.33 232.43 1005.32 234.09 1006.75 234.84 1008.25 232.18"/><polyline class="cls-4" points="973.65 292.89 975.15 290.15 973.82 289.4 972.81 291.06 970.04 289.57 969.46 290.56"/><line class="cls-4" x1="975.16" y1="290.15" x2="1006.74" y2="234.84"/><polyline class="cls-4" points="1002.22 230.1 999.87 234.17 971.05 284.66"/><polyline class="cls-4" points="999.87 234.17 1003.98 236.5 1006.33 232.43 1002.22 230.1"/><polyline class="cls-4" points="972.81 291.06 975.15 286.99 971.05 284.66 968.7 288.74 972.81 291.06"/><line class="cls-4" x1="975.16" y1="286.99" x2="1003.98" y2="236.5"/><line class="cls-4" x1="999.87" y1="234.17" x2="971.05" y2="284.66"/><line class="cls-4" x1="1001.88" y1="235.34" x2="973.14" y2="285.82"/><polyline class="cls-4" points="969.46 290.56 968.87 291.56 971.64 293.14 970.71 294.89 972.05 295.64 973.65 292.89"/><polyline class="cls-4" points="937.45 356.36 940.55 350.95 939.13 350.12 938.2 351.87 935.44 350.29 933.26 354.03"/><line class="cls-4" x1="940.55" y1="350.95" x2="972.06" y2="295.64"/><polyline class="cls-4" points="967.53 290.81 965.18 294.89 936.36 345.46"/><polyline class="cls-4" points="965.18 294.89 969.29 297.22 971.64 293.14 967.53 290.81"/><polyline class="cls-4" points="938.2 351.87 940.55 347.79 936.36 345.46 934.01 349.54 938.2 351.87"/><line class="cls-4" x1="940.55" y1="347.79" x2="969.29" y2="297.22"/><line class="cls-4" x1="965.18" y1="294.89" x2="936.36" y2="345.46"/><line class="cls-4" x1="967.28" y1="296.05" x2="938.45" y2="346.63"/><polyline class="cls-4" points="920.19 346.71 933.26 354.03 937.45 356.36 933.26 354.03"/><polyline class="cls-4" points="937.45 356.36 937.62 356.02 937.45 356.36"/><line class="cls-4" x1="946.75" y1="357.52" x2="946.08" y2="357.11"/><polyline class="cls-4" points="939.21 353.28 938.79 353.95 939.21 353.28"/><polyline class="cls-4" points="938.79 353.95 937.62 356.02 938.79 353.95"/><line class="cls-4" x1="946.08" y1="357.11" x2="939.21" y2="353.28"/><line class="cls-4" x1="746.99" y1="557.9" x2="760.99" y2="533.36"/><line class="cls-4" x1="667.81" y1="696.72" x2="677.53" y2="679.58"/><line class="cls-4" x1="677.53" y1="679.58" x2="673.42" y2="677.25"/><line class="cls-4" x1="746.99" y1="557.9" x2="742.89" y2="555.57"/><polyline class="cls-4" points="673.42 677.25 669.99 675.34 669.32 674.92"/><polyline class="cls-4" points="742.89 555.57 739.45 553.57 738.7 553.24 750.09 533.36"/><line class="cls-4" x1="669.32" y1="674.92" x2="659.52" y2="692.06"/><line class="cls-4" x1="667.81" y1="696.72" x2="659.52" y2="692.06"/><polyline class="cls-4" points="681.89 678.42 748.17 562.14 751.6 564.05 685.32 680.33 681.89 678.42"/><line class="cls-4" x1="738.7" y1="553.24" x2="669.32" y2="674.92"/><polyline class="cls-4" points="739.45 553.57 737.27 557.4 740.04 558.89 739.03 560.64 739.79 560.97 742.89 555.57"/><polyline class="cls-4" points="719.17 597.07 720.77 594.33 720.1 593.91 719.09 595.66 716.33 594.08 715.74 595.08"/><line class="cls-4" x1="720.77" y1="594.33" x2="739.79" y2="560.97"/><polyline class="cls-4" points="735.93 556.56 733.59 560.72 717.33 589.17"/><polyline class="cls-4" points="733.59 560.72 737.69 563.05 740.04 558.89 735.93 556.56"/><polyline class="cls-4" points="719.09 595.66 721.44 591.5 717.33 589.17 714.99 593.33 719.09 595.66"/><line class="cls-4" x1="721.44" y1="591.5" x2="737.69" y2="563.05"/><line class="cls-4" x1="733.59" y1="560.72" x2="717.33" y2="589.17"/><line class="cls-4" x1="735.6" y1="561.89" x2="719.34" y2="590.33"/><polyline class="cls-4" points="715.74 595.08 715.15 596.16 717.92 597.65 716.91 599.4 717.67 599.73 719.17 597.07"/><polyline class="cls-4" points="697.14 635.75 698.64 633.09 697.98 632.67 696.97 634.33 694.21 632.84 693.62 633.84"/><line class="cls-4" x1="698.65" y1="633.09" x2="717.67" y2="599.73"/><polyline class="cls-4" points="713.81 595.33 711.47 599.48 695.21 627.93"/><polyline class="cls-4" points="711.47 599.48 715.57 601.81 717.92 597.65 713.81 595.33"/><polyline class="cls-4" points="696.97 634.33 699.32 630.26 695.21 627.93 692.86 632.09 696.97 634.33"/><line class="cls-4" x1="699.32" y1="630.26" x2="715.57" y2="601.81"/><line class="cls-4" x1="711.47" y1="599.48" x2="695.21" y2="627.93"/><line class="cls-4" x1="713.56" y1="600.65" x2="697.3" y2="629.09"/><polyline class="cls-4" points="693.62 633.84 693.03 634.92 695.8 636.41 694.88 638.16 695.54 638.49 697.14 635.75"/><polyline class="cls-4" points="673.42 677.25 676.52 671.85 675.85 671.43 674.85 673.1 672.17 671.6 669.99 675.34"/><line class="cls-4" x1="676.52" y1="671.85" x2="695.55" y2="638.49"/><polyline class="cls-4" points="691.69 634.09 689.35 638.24 673.09 666.69"/><polyline class="cls-4" points="689.35 638.24 693.45 640.49 695.8 636.41 691.69 634.09"/><polyline class="cls-4" points="674.85 673.1 677.2 669.02 673.09 666.69 670.74 670.77 674.85 673.1"/><line class="cls-4" x1="677.19" y1="669.02" x2="693.45" y2="640.49"/><line class="cls-4" x1="689.34" y1="638.24" x2="673.09" y2="666.69"/><line class="cls-4" x1="691.44" y1="639.41" x2="675.18" y2="667.85"/><polyline class="cls-4" points="738.7 553.24 739.45 553.57 742.89 555.57 739.45 553.57"/><polyline class="cls-4" points="669.32 674.92 669.99 675.34 673.42 677.25 669.99 675.34"/><line class="cls-4" x1="748.17" y1="562.14" x2="747.5" y2="561.72"/><polyline class="cls-4" points="741.29 558.31 741.71 557.56 741.29 558.31"/><polyline class="cls-4" points="741.71 557.56 742.89 555.57 741.71 557.56"/><line class="cls-4" x1="681.89" y1="678.42" x2="681.22" y2="678"/><polyline class="cls-4" points="675.02 674.51 674.6 675.26 675.02 674.51"/><polyline class="cls-4" points="674.6 675.26 673.42 677.25 674.6 675.26"/><polyline class="cls-4" points="747.5 561.72 745.4 560.56 741.29 558.31"/><polyline class="cls-4" points="681.22 678 679.12 676.84 675.02 674.51"/><polyline class="cls-4" points="341.7 882.28 555.62 882.28 564.66 882.28"/><polyline class="cls-4" points="469.39 870.47 539.61 870.47 548.58 854.75 539.61 870.47 557.79 870.47 539.61 870.47"/><line class="cls-4" x1="548.58" y1="854.75" x2="469.39" y2="854.75"/><line class="cls-4" x1="469.39" y1="870.47" x2="469.39" y2="854.75"/><line class="cls-4" x1="341.7" y1="883.12" x2="565.17" y2="883.12"/><polyline class="cls-4" points="750.68 532.53 761.4 532.53 750.68 532.53"/><line class="cls-4" x1="761.41" y1="532.53" x2="760.99" y2="533.36"/><polyline class="cls-4" points="764.17 532.53 836.9 532.53 846.03 532.53"/><polyline class="cls-4" points="750.68 520.8 820.9 520.8 829.86 505.08 820.9 520.8 839.08 520.8 820.9 520.8"/><line class="cls-4" x1="829.86" y1="505.08" x2="750.68" y2="505.08"/><line class="cls-4" x1="750.68" y1="520.8" x2="750.68" y2="505.08"/><line class="cls-4" x1="764.59" y1="533.36" x2="845.61" y2="533.36"/><polyline class="cls-4" points="626.59 773.74 571.45 870.47 564.66 882.28 571.45 870.47"/><polyline class="cls-4" points="562.32 870.47 557.79 870.47 562.32 870.47"/><line class="cls-4" x1="562.32" y1="870.47" x2="619.71" y2="769.91"/><line class="cls-4" x1="602.45" y1="760.26" x2="548.58" y2="854.75"/><line class="cls-4" x1="565.59" y1="882.28" x2="627.26" y2="774.15"/><line class="cls-4" x1="619.71" y1="769.91" x2="602.45" y2="760.26"/><polyline class="cls-4" points="0.5 870.47 321.92 870.47 321.92 854.75 16.34 854.75"/><line class="cls-4" x1="0.5" y1="854.75" x2="0.5" y2="854.75"/><line class="cls-4" x1="0.5" y1="181.27" x2="0.5" y2="728.42"/><polyline class="cls-4" points="16.34 722 16.34 706.28 16.34 181.27 0.5 181.27"/><polyline class="cls-4" points="16.34 828.05 6.87 828.05 0.5 828.05"/><polyline class="cls-4" points="16.34 749.45 6.87 749.45 0.5 749.45 0.5 722"/><line class="cls-4" x1="0.5" y1="828.05" x2="0.5" y2="870.47"/><line class="cls-4" x1="16.34" y1="854.75" x2="16.34" y2="828.05"/><line class="cls-4" x1="16.34" y1="749.45" x2="16.34" y2="722"/><line class="cls-4" x1="0.5" y1="749.45" x2="0.5" y2="749.7"/><line class="cls-4" x1="0.5" y1="749.78" x2="0.5" y2="749.78"/><line class="cls-4" x1="0.5" y1="749.87" x2="0.5" y2="750.12"/><line class="cls-4" x1="0.5" y1="750.2" x2="0.5" y2="750.2"/><line class="cls-4" x1="0.5" y1="750.28" x2="0.5" y2="750.28"/><polyline class="cls-4" points="0.5 750.37 0.5 750.62 0.5 750.7 0.5 750.78 0.5 751.03"/><line class="cls-4" x1="0.5" y1="751.11" x2="0.5" y2="751.11"/><line class="cls-4" x1="0.5" y1="751.2" x2="0.5" y2="751.2"/><line class="cls-4" x1="0.5" y1="751.28" x2="0.5" y2="751.45"/><line class="cls-4" x1="0.5" y1="751.53" x2="0.5" y2="751.53"/><line class="cls-4" x1="0.5" y1="751.61" x2="0.5" y2="751.61"/><line class="cls-4" x1="0.5" y1="751.7" x2="0.5" y2="751.95"/><polyline class="cls-4" points="0.5 752.03 0.5 752.11 0.5 752.36"/><line class="cls-4" x1="0.5" y1="752.45" x2="0.5" y2="752.45"/><line class="cls-4" x1="0.5" y1="752.53" x2="0.5" y2="752.53"/><polyline class="cls-4" points="0.5 752.61 0.5 752.86 0.5 752.94 0.5 753.03 0.5 753.28"/><line class="cls-4" x1="0.5" y1="824.14" x2="0.5" y2="824.14"/><line class="cls-4" x1="0.5" y1="824.23" x2="0.5" y2="824.23"/><line class="cls-4" x1="0.5" y1="824.31" x2="0.5" y2="824.48"/><line class="cls-4" x1="0.5" y1="824.56" x2="0.5" y2="824.56"/><line class="cls-4" x1="0.5" y1="824.64" x2="0.5" y2="824.64"/><polyline class="cls-4" points="0.5 824.73 0.5 824.98 0.5 825.06 0.5 825.14 0.5 825.39"/><line class="cls-4" x1="0.5" y1="825.47" x2="0.5" y2="825.47"/><line class="cls-4" x1="0.5" y1="825.56" x2="0.5" y2="825.56"/><line class="cls-4" x1="0.5" y1="825.64" x2="0.5" y2="825.89"/><line class="cls-4" x1="0.5" y1="825.97" x2="0.5" y2="825.97"/><line class="cls-4" x1="0.5" y1="826.06" x2="0.5" y2="826.31"/><line class="cls-4" x1="0.5" y1="826.39" x2="0.5" y2="826.39"/><line class="cls-4" x1="0.5" y1="826.47" x2="0.5" y2="826.72"/><line class="cls-4" x1="0.5" y1="826.81" x2="0.5" y2="826.81"/><line class="cls-4" x1="0.5" y1="826.89" x2="0.5" y2="826.89"/><polyline class="cls-4" points="0.5 826.97 0.5 827.22 0.5 827.3 0.5 827.39 0.5 827.64"/><line class="cls-4" x1="0.5" y1="827.72" x2="0.5" y2="827.72"/><line class="cls-4" x1="0.5" y1="827.8" x2="0.5" y2="827.8"/><line class="cls-4" x1="0.5" y1="827.89" x2="0.5" y2="828.05"/><path class="cls-4" d="M79.77,853.28C79.77,813.34,47.15,781,6.91,781" transform="translate(0 -28.35)"/><polyline class="cls-4" points="0.5 749.45 0.5 752.61 6.87 752.61 6.87 749.45 0.5 749.45"/><polyline class="cls-4" points="6.87 828.05 6.87 824.89 0.5 824.89 0.5 828.05 6.87 828.05"/><line class="cls-4" x1="6.87" y1="824.89" x2="79.68" y2="824.89"/><polyline class="cls-4" points="0.5 749.45 6.87 749.45 0.5 749.45"/><line class="cls-4" x1="16.34" y1="749.45" x2="6.87" y2="749.45"/><polyline class="cls-4" points="0.5 828.05 6.87 828.05 0.5 828.05"/><line class="cls-4" x1="16.34" y1="828.05" x2="6.87" y2="828.05"/><line class="cls-4" x1="768.44" y1="152.99" x2="760.57" y2="152.99"/><polyline class="cls-4" points="772.47 41.37 772.47 152.99 768.44 152.99"/><line class="cls-4" x1="760.57" y1="53.18" x2="760.57" y2="152.99"/><line class="cls-4" x1="768.44" y1="45.28" x2="768.44" y2="152.99"/><polyline class="cls-4" points="768.44 45.28 768.44 53.18 768.44 57.09 765.34 57.09 765.34 55.09 760.57 55.09 760.57 53.18 760.57 152.99"/><polyline class="cls-4" points="768.44 152.99 768.44 146.67 765.34 146.67 765.34 148.67 760.57 148.67 760.57 152.99"/><line class="cls-4" x1="768.44" y1="146.67" x2="768.44" y2="57.09"/><polyline class="cls-4" points="760.57 55.09 760.57 59.83 760.57 143.93"/><polyline class="cls-4" points="760.57 59.83 765.34 59.83 765.34 55.09 760.57 55.09"/><polyline class="cls-4" points="765.34 148.67 765.34 143.93 760.57 143.93 760.57 148.67 765.34 148.67"/><line class="cls-4" x1="765.34" y1="143.92" x2="765.34" y2="59.83"/><line class="cls-4" x1="760.57" y1="59.83" x2="760.57" y2="143.92"/><line class="cls-4" x1="762.91" y1="59.83" x2="762.91" y2="143.92"/><line class="cls-4" x1="768.44" y1="53.18" x2="760.57" y2="53.18"/><polyline class="cls-4" points="760.57 152.99 768.44 152.99 760.57 152.99"/><line class="cls-4" x1="526.96" y1="41.37" x2="772.47" y2="41.37"/><line class="cls-4" x1="538.86" y1="53.18" x2="760.57" y2="53.18"/><line class="cls-4" x1="530.98" y1="45.28" x2="768.44" y2="45.28"/><polyline class="cls-4" points="530.98 45.28 538.86 45.28 542.79 45.28 542.79 48.44 540.87 48.44 540.87 53.18 538.86 53.18 760.57 53.18"/><polyline class="cls-4" points="613.01 45.28 609.83 45.28 609.83 48.44 611.84 48.44 611.84 53.18 613.01 53.18"/><line class="cls-4" x1="609.83" y1="45.28" x2="542.79" y2="45.28"/><polyline class="cls-4" points="540.87 53.18 545.64 53.18 607.06 53.18"/><polyline class="cls-4" points="545.64 53.18 545.64 48.44 540.87 48.44 540.87 53.18"/><polyline class="cls-4" points="611.84 48.44 607.06 48.44 607.06 53.18 611.84 53.18 611.84 48.44"/><line class="cls-4" x1="607.06" y1="48.44" x2="545.64" y2="48.44"/><line class="cls-4" x1="545.64" y1="53.18" x2="607.06" y2="53.18"/><line class="cls-4" x1="545.64" y1="50.77" x2="607.06" y2="50.77"/><line class="cls-4" x1="538.86" y1="45.28" x2="538.86" y2="53.18"/><polyline class="cls-4" points="613.01 53.18 614.18 53.18 614.18 48.44 616.2 48.44 616.2 45.28 613.01 45.28"/><polyline class="cls-4" points="686.41 45.28 683.23 45.28 683.23 48.44 685.24 48.44 685.24 53.18 686.41 53.18"/><line class="cls-4" x1="683.23" y1="45.28" x2="616.2" y2="45.28"/><polyline class="cls-4" points="614.18 53.18 618.96 53.18 680.46 53.18"/><polyline class="cls-4" points="618.96 53.18 618.96 48.44 614.18 48.44 614.18 53.18"/><polyline class="cls-4" points="685.24 48.44 680.46 48.44 680.46 53.18 685.24 53.18 685.24 48.44"/><line class="cls-4" x1="680.46" y1="48.44" x2="618.96" y2="48.44"/><line class="cls-4" x1="618.96" y1="53.18" x2="680.46" y2="53.18"/><line class="cls-4" x1="618.96" y1="50.77" x2="680.46" y2="50.77"/><polyline class="cls-4" points="686.41 53.18 687.59 53.18 687.59 48.44 689.6 48.44 689.6 45.28 686.41 45.28"/><polyline class="cls-4" points="768.44 45.28 760.57 45.28 756.63 45.28 756.63 48.44 758.56 48.44 758.56 53.18 760.57 53.18"/><line class="cls-4" x1="756.63" y1="45.28" x2="689.6" y2="45.28"/><polyline class="cls-4" points="687.59 53.18 692.36 53.18 753.86 53.18"/><polyline class="cls-4" points="692.36 53.18 692.36 48.44 687.59 48.44 687.59 53.18"/><polyline class="cls-4" points="758.56 48.44 753.86 48.44 753.86 53.18 758.56 53.18 758.56 48.44"/><line class="cls-4" x1="753.86" y1="48.44" x2="692.36" y2="48.44"/><line class="cls-4" x1="692.36" y1="53.18" x2="753.86" y2="53.18"/><line class="cls-4" x1="692.36" y1="50.77" x2="753.86" y2="50.77"/><line class="cls-4" x1="760.57" y1="45.28" x2="760.57" y2="53.18"/><line class="cls-4" x1="530.98" y1="152.99" x2="538.86" y2="152.99"/><polyline class="cls-4" points="526.96 41.37 526.96 152.99 530.98 152.99"/><line class="cls-4" x1="538.86" y1="53.18" x2="538.86" y2="152.99"/><line class="cls-4" x1="530.98" y1="45.28" x2="530.98" y2="152.99"/><polyline class="cls-4" points="530.98 45.28 530.98 53.18 530.98 57.09 534.16 57.09 534.16 55.09 538.86 55.09 538.86 53.18 538.86 152.99"/><polyline class="cls-4" points="530.98 152.99 530.98 146.67 534.16 146.67 534.16 148.67 538.86 148.67 538.86 152.99"/><line class="cls-4" x1="530.98" y1="146.67" x2="530.98" y2="57.09"/><polyline class="cls-4" points="538.86 55.09 538.86 59.83 538.86 143.93"/><polyline class="cls-4" points="538.86 59.83 534.16 59.83 534.16 55.09 538.86 55.09"/><polyline class="cls-4" points="534.16 148.67 534.16 143.93 538.86 143.93 538.86 148.67 534.16 148.67"/><line class="cls-4" x1="534.16" y1="143.92" x2="534.16" y2="59.83"/><line class="cls-4" x1="538.86" y1="59.83" x2="538.86" y2="143.92"/><line class="cls-4" x1="536.51" y1="59.83" x2="536.51" y2="143.92"/><line class="cls-4" x1="530.98" y1="53.18" x2="538.86" y2="53.18"/><polyline class="cls-4" points="538.86 152.99 530.98 152.99 538.86 152.99"/><polyline class="cls-4" points="626.59 773.74 665.63 705.37 669.49 698.55"/><polyline class="cls-4" points="616.28 768 645.52 716.68 631.7 708.94 645.52 716.68 653.32 702.96 645.52 716.68"/><line class="cls-4" x1="631.7" y1="708.94" x2="602.45" y2="760.26"/><line class="cls-4" x1="616.28" y1="768" x2="602.45" y2="760.26"/><line class="cls-4" x1="627.26" y1="774.15" x2="670.58" y2="698.21"/><polyline class="cls-4" points="469.39 874.47 469.39 854.75 321.92 854.75"/><line class="cls-4" x1="636.22" y1="679.83" x2="636.22" y2="664.61"/><line class="cls-4" x1="636.22" y1="533.36" x2="628.34" y2="533.36"/><line class="cls-4" x1="636.22" y1="661.45" x2="628.34" y2="661.45"/><line class="cls-4" x1="637.06" y1="533.36" x2="636.22" y2="533.36"/><line class="cls-4" x1="637.06" y1="661.45" x2="636.22" y2="661.45"/><polyline class="cls-4" points="636.22 530.2 636.22 532.53 628.35 532.53 636.22 532.53"/><line class="cls-4" x1="637.06" y1="532.53" x2="637.06" y2="533.36"/><line class="cls-4" x1="628.34" y1="664.61" x2="628.34" y2="664.61"/><polyline class="cls-4" points="636.22 664.61 636.22 662.28 628.35 662.28 636.22 662.28"/><line class="cls-4" x1="637.06" y1="662.28" x2="637.06" y2="661.45"/><polyline class="cls-4" points="628.35 524.71 623.57 524.71 608.57 524.71"/><polyline class="cls-4" points="628.35 664.61 623.57 664.61 608.57 664.61"/><line class="cls-4" x1="608.57" y1="505.08" x2="608.57" y2="524.71"/><line class="cls-4" x1="608.57" y1="664.61" x2="608.57" y2="695.89"/><line class="cls-4" x1="637.06" y1="679.42" x2="637.06" y2="662.28"/><line class="cls-4" x1="637.06" y1="661.45" x2="637.06" y2="533.36"/><line class="cls-4" x1="608.57" y1="664.61" x2="608.57" y2="524.71"/><polyline class="cls-4" points="623.57 664.61 623.57 660.29 626.75 660.29 626.75 658.29 628.35 658.29 628.35 664.61"/><polyline class="cls-4" points="628.35 594.66 628.35 597.4 626.75 597.4 626.75 595.41 623.57 595.41 623.57 594.66"/><line class="cls-4" x1="621.98" y1="660.29" x2="589.38" y2="604.14"/><line class="cls-4" x1="628.34" y1="597.4" x2="628.34" y2="658.29"/><polyline class="cls-4" points="621.98 660.29 621.98 655.54 621.98 600.15"/><polyline class="cls-4" points="621.98 655.54 626.75 655.54 626.75 660.29 621.98 660.29"/><polyline class="cls-4" points="626.75 595.41 626.75 600.15 621.98 600.15 621.98 595.41 626.75 595.41"/><line class="cls-4" x1="626.75" y1="600.15" x2="626.75" y2="655.54"/><line class="cls-4" x1="621.98" y1="655.54" x2="621.98" y2="600.15"/><line class="cls-4" x1="624.41" y1="655.54" x2="624.41" y2="600.15"/><polyline class="cls-4" points="623.57 594.66 623.57 593.83 626.75 593.83 626.75 591.91 628.35 591.91 628.35 594.66"/><polyline class="cls-4" points="628.35 524.71 628.35 531.03 626.75 531.03 626.75 529.03 623.57 529.03 623.57 524.71"/><line class="cls-4" x1="621.98" y1="529.03" x2="589.38" y2="585.18"/><line class="cls-4" x1="628.34" y1="531.03" x2="628.34" y2="591.91"/><polyline class="cls-4" points="621.98 593.83 621.98 589.17 621.98 533.77"/><polyline class="cls-4" points="621.98 589.17 626.75 589.17 626.75 593.83 621.98 593.83"/><polyline class="cls-4" points="626.75 529.03 626.75 533.77 621.98 533.77 621.98 529.03 626.75 529.03"/><line class="cls-4" x1="626.75" y1="533.77" x2="626.75" y2="589.17"/><line class="cls-4" x1="621.98" y1="589.17" x2="621.98" y2="533.77"/><line class="cls-4" x1="624.41" y1="589.17" x2="624.41" y2="533.77"/><path class="cls-4" d="M622,623.84a65.68,65.68,0,0,0-32.66,8.68" transform="translate(0 -28.35)"/><path class="cls-4" d="M589.36,613.57A65.69,65.69,0,0,0,622,622.26" transform="translate(0 -28.35)"/><polyline class="cls-4" points="608.57 664.61 623.57 664.61 628.35 664.61 623.57 664.61"/><polyline class="cls-4" points="608.57 524.71 623.57 524.71 628.35 524.71 623.57 524.71"/><polyline class="cls-4" points="628.35 524.71 628.35 530.2 628.35 524.71"/><line class="cls-4" x1="637.06" y1="661.45" x2="636.22" y2="661.45"/><polyline class="cls-4" points="628.35 661.45 628.35 662.28 628.35 661.45"/><polyline class="cls-4" points="628.35 662.28 628.35 664.61 628.35 662.28"/><line class="cls-4" x1="637.06" y1="533.36" x2="636.22" y2="533.36"/><polyline class="cls-4" points="628.35 533.36 628.35 532.53 628.35 533.36"/><polyline class="cls-4" points="628.35 532.53 628.35 530.2 628.35 532.53"/><line class="cls-4" x1="636.22" y1="661.45" x2="628.34" y2="661.45"/><line class="cls-4" x1="636.22" y1="533.36" x2="628.34" y2="533.36"/><polyline class="cls-4" points="341.7 874.47 337 874.47 321.92 874.47"/><line class="cls-4" x1="321.92" y1="854.75" x2="321.92" y2="874.47"/><polyline class="cls-4" points="321.92 874.47 337 874.47 341.7 874.47 337 874.47"/><polyline class="cls-4" points="341.7 874.47 341.7 879.96 341.7 874.47"/><polyline class="cls-4" points="341.7 883.12 341.7 882.28 341.7 883.12"/><polyline class="cls-4" points="341.7 882.28 341.7 879.96 341.7 882.28"/><polyline class="cls-4" points="637.06 680.33 636.22 679.83 637.06 680.33"/><polyline class="cls-4" points="637.06 680.33 659.18 692.72 669.49 698.55 659.18 692.72"/><polyline class="cls-4" points="655.24 699.54 653.32 702.96 655.24 699.54"/><polyline class="cls-4" points="608.57 695.88 628.35 707.03 631.7 708.94"/><line class="cls-4" x1="669.91" y1="697.88" x2="637.06" y2="679.42"/><line class="cls-4" x1="608.57" y1="749.53" x2="608.57" y2="691.81"/><polyline class="cls-4" points="608.57 751.61 641.5 691.81 608.57 691.81"/><polyline class="cls-4" points="937.45 356.36 933.93 354.44 894.97 422.82 898.4 424.81"/><polyline class="cls-4" points="784.28 161.64 784.28 165.55 863.46 165.55 863.46 161.64"/><polyline class="cls-4" points="431.19 760.51 431.19 717.26 387.61 717.26 387.61 760.51 431.19 760.51"/><polyline class="cls-4" points="427.25 756.52 427.25 721.17 395.57 721.17 395.57 756.52 427.25 756.52"/><line class="cls-4" x1="316.89" y1="762.43" x2="288.91" y2="762.43"/><polyline class="cls-4" points="318.57 763.59 329.04 763.59 329.04 733.73"/><line class="cls-4" x1="311.95" y1="748.7" x2="311.95" y2="737.64"/><polyline class="cls-4" points="288.99 762.43 311.95 759.76 311.95 748.7"/><line class="cls-4" x1="288.99" y1="734.98" x2="311.95" y2="737.64"/><line class="cls-4" x1="288.99" y1="761.76" x2="311.95" y2="759.1"/><line class="cls-4" x1="288.99" y1="735.64" x2="311.95" y2="738.31"/><line class="cls-4" x1="316.89" y1="734.98" x2="288.91" y2="734.98"/><line class="cls-4" x1="329.04" y1="733.73" x2="318.57" y2="733.73"/><polyline class="cls-4" points="288.99 762.43 285.89 762.01 282.96 760.85 280.36 759.02 278.35 756.52 276.84 753.61 276.09 750.37 276.09 747.04 276.84 743.79 278.35 740.88 280.36 738.39 282.96 736.48 285.89 735.31 288.99 734.98"/><polyline class="cls-4" points="288.99 761.76 286.06 761.35 283.29 760.26 280.86 758.43 278.94 756.11 277.51 753.28 276.84 750.28 276.84 747.12 277.51 744.04 278.94 741.3 280.86 738.89 283.29 737.14 286.06 736.06 288.99 735.64"/><path class="cls-4" d="M316.86,763.71a124.78,124.78,0,0,0,0,26.77" transform="translate(0 -28.35)"/><path class="cls-4" d="M316.82,790.5a1.76,1.76,0,0,0,1.79,1.52" transform="translate(0 -28.35)"/><path class="cls-4" d="M318.61,762.16a1.76,1.76,0,0,0-1.79,1.53" transform="translate(0 -28.35)"/><path class="cls-4" d="M323.93,777.09a1.47,1.47,0,1,0-1.46,1.46,1.46,1.46,0,0,0,1.46-1.46" transform="translate(0 -28.35)"/><polyline class="cls-4" points="315.72 818.49 329.88 818.49 329.88 785.55 315.72 785.55"/><line class="cls-4" x1="329.88" y1="796.78" x2="329.88" y2="807.18"/><line class="cls-4" x1="318.57" y1="799.27" x2="318.57" y2="801.02"/><line class="cls-4" x1="321.34" y1="802.02" x2="319.58" y2="802.02"/><line class="cls-4" x1="318.57" y1="803.02" x2="318.57" y2="804.76"/><line class="cls-4" x1="317.48" y1="802.02" x2="315.72" y2="802.02"/><path class="cls-4" d="M314.94,844.81a14.85,14.85,0,0,0,7-5.69" transform="translate(0 -28.35)"/><path class="cls-4" d="M322,839.14a14.55,14.55,0,0,0,2.08-8.75" transform="translate(0 -28.35)"/><path class="cls-4" d="M322,821.61a14.85,14.85,0,0,0-7-5.69" transform="translate(0 -28.35)"/><path class="cls-4" d="M324.05,830.42a14.55,14.55,0,0,0-2.08-8.75" transform="translate(0 -28.35)"/><path class="cls-4" d="M304.65,831.57a27,27,0,0,0,2.76,10" transform="translate(0 -28.35)"/><path class="cls-4" d="M315.79,813.9a8.61,8.61,0,0,0-7,3.12" transform="translate(0 -28.35)"/><path class="cls-4" d="M304.53,829.25a17.81,17.81,0,0,0,0,2.31" transform="translate(0 -28.35)"/><path class="cls-4" d="M321.45,839.64a59.52,59.52,0,0,0,0-18.46" transform="translate(0 -28.35)"/><path class="cls-4" d="M327.2,819.41a21.19,21.19,0,0,0-13.64-4.68" transform="translate(0 -28.35)"/><path class="cls-4" d="M329.21,830.39a41.15,41.15,0,0,0-1-9.45" transform="translate(0 -28.35)"/><path class="cls-4" d="M328.22,821a2.86,2.86,0,0,0-1-1.54" transform="translate(0 -28.35)"/><path class="cls-4" d="M327.87,830.42a68.91,68.91,0,0,0-.68-9.3" transform="translate(0 -28.35)"/><path class="cls-4" d="M326.33,819.39a19.05,19.05,0,0,0-12.74-4.66" transform="translate(0 -28.35)"/><path class="cls-4" d="M327.26,821.12a2.73,2.73,0,0,0-.93-1.7" transform="translate(0 -28.35)"/><path class="cls-4" d="M313.61,846.08a19,19,0,0,0,12.74-4.68" transform="translate(0 -28.35)"/><path class="cls-4" d="M313.59,846.08a21.07,21.07,0,0,0,13.63-4.7" transform="translate(0 -28.35)"/><path class="cls-4" d="M327.21,839.67a70.41,70.41,0,0,0,.66-9.29" transform="translate(0 -28.35)"/><path class="cls-4" d="M328.19,839.81a40.46,40.46,0,0,0,1-9.44" transform="translate(0 -28.35)"/><path class="cls-4" d="M326.34,841.39a2.76,2.76,0,0,0,.92-1.7" transform="translate(0 -28.35)"/><path class="cls-4" d="M327.26,841.38a2.8,2.8,0,0,0,1-1.54" transform="translate(0 -28.35)"/><path class="cls-4" d="M308.79,843.79a8.61,8.61,0,0,0,7,3.12" transform="translate(0 -28.35)"/><path class="cls-4" d="M307.36,841.59a12.68,12.68,0,0,0,1.43,2.19" transform="translate(0 -28.35)"/><path class="cls-4" d="M308.79,817a13.08,13.08,0,0,0-1.43,2.19" transform="translate(0 -28.35)"/><path class="cls-4" d="M307.41,819.22a27,27,0,0,0-2.76,10" transform="translate(0 -28.35)"/><path class="cls-4" d="M307,825.87a19.06,19.06,0,0,0,0,9.07" transform="translate(0 -28.35)"/><path class="cls-4" d="M310.82,843.21a5,5,0,0,0,4.11,1.7" transform="translate(0 -28.35)"/><path class="cls-4" d="M307,834.93a17.8,17.8,0,0,0,3.82,8.24" transform="translate(0 -28.35)"/><path class="cls-4" d="M314.93,815.9a5,5,0,0,0-4.11,1.71" transform="translate(0 -28.35)"/><path class="cls-4" d="M310.77,817.64a17.85,17.85,0,0,0-3.82,8.24" transform="translate(0 -28.35)"/><path class="cls-4" d="M320.75,830.41a2.14,2.14,0,1,0-2.14,2.12,2.13,2.13,0,0,0,2.14-2.12" transform="translate(0 -28.35)"/><path class="cls-4" d="M320.16,830.41a1.55,1.55,0,1,0-1.55,1.54,1.54,1.54,0,0,0,1.55-1.54" transform="translate(0 -28.35)"/><line class="cls-4" x1="61.16" y1="469.73" x2="61.16" y2="509.74"/><line class="cls-4" x1="65.69" y1="514.48" x2="163.64" y2="514.48"/><line class="cls-4" x1="65.69" y1="464.99" x2="163.64" y2="464.99"/><line class="cls-4" x1="191.29" y1="519.22" x2="56.72" y2="519.22"/><polyline class="cls-4" points="191.29 519.22 191.29 460.25 56.72 460.25 56.72 519.22"/><line class="cls-4" x1="147.89" y1="473.14" x2="71.22" y2="473.14"/><line class="cls-4" x1="68.96" y1="475.55" x2="68.96" y2="503.91"/><line class="cls-4" x1="147.89" y1="506.33" x2="71.22" y2="506.33"/><line class="cls-4" x1="84.71" y1="488.28" x2="84.71" y2="485.37"/><line class="cls-4" x1="83.37" y1="489.69" x2="80.6" y2="489.69"/><line class="cls-4" x1="84.71" y1="491.19" x2="84.71" y2="494.1"/><line class="cls-4" x1="86.13" y1="489.69" x2="88.9" y2="489.69"/><path class="cls-4" d="M163.68,542.82c13,0,23.59-11.08,23.59-24.74s-10.56-24.75-23.59-24.75" transform="translate(0 -28.35)"/><path class="cls-4" d="M61.25,538.12a4.59,4.59,0,0,0,4.48,4.7" transform="translate(0 -28.35)"/><path class="cls-4" d="M65.73,493.42a4.59,4.59,0,0,0-4.48,4.7" transform="translate(0 -28.35)"/><path class="cls-4" d="M84.75,520.53a2.46,2.46,0,1,0-2.3-2.45,2.39,2.39,0,0,0,2.3,2.45" transform="translate(0 -28.35)"/><path class="cls-4" d="M147.93,534.67c8.68,0,15.71-7.43,15.71-16.59s-7-16.6-15.71-16.6" transform="translate(0 -28.35)"/><path class="cls-4" d="M71.26,501.57A2.3,2.3,0,0,0,69,503.94" transform="translate(0 -28.35)"/><path class="cls-4" d="M69,532.3a2.3,2.3,0,0,0,2.22,2.37" transform="translate(0 -28.35)"/><path class="cls-4" d="M84.75,521.36a3.29,3.29,0,1,0-3.14-3.28,3.21,3.21,0,0,0,3.14,3.28" transform="translate(0 -28.35)"/><polyline class="cls-4" points="74.82 561.64 56.72 561.64 56.72 519.22 74.82 519.22"/><line class="cls-4" x1="56.72" y1="533.77" x2="56.72" y2="547.08"/><line class="cls-4" x1="71.22" y1="536.85" x2="71.22" y2="539.1"/><line class="cls-4" x1="67.62" y1="540.43" x2="69.88" y2="540.43"/><line class="cls-4" x1="71.22" y1="541.76" x2="71.22" y2="544"/><line class="cls-4" x1="72.56" y1="540.43" x2="74.82" y2="540.43"/><path class="cls-4" d="M67,580.08a19,19,0,0,0,9,7.33" transform="translate(0 -28.35)"/><path class="cls-4" d="M64.24,568.79a18.9,18.9,0,0,0,2.67,11.29" transform="translate(0 -28.35)"/><path class="cls-4" d="M76,550.22a19,19,0,0,0-9,7.34" transform="translate(0 -28.35)"/><path class="cls-4" d="M66.91,557.56a18.85,18.85,0,0,0-2.67,11.28" transform="translate(0 -28.35)"/><path class="cls-4" d="M85.61,583.17a34.7,34.7,0,0,0,3.53-12.88" transform="translate(0 -28.35)"/><path class="cls-4" d="M83.75,551.59a10.93,10.93,0,0,0-8.93-4" transform="translate(0 -28.35)"/><path class="cls-4" d="M89.18,570.3a21,21,0,0,0,0-3" transform="translate(0 -28.35)"/><path class="cls-4" d="M67.62,557a76.83,76.83,0,0,0,0,23.74" transform="translate(0 -28.35)"/><path class="cls-4" d="M77.67,548.73a26.9,26.9,0,0,0-17.45,6" transform="translate(0 -28.35)"/><path class="cls-4" d="M59,556.66a52.76,52.76,0,0,0-1.32,12.14" transform="translate(0 -28.35)"/><path class="cls-4" d="M60.13,554.68a3.48,3.48,0,0,0-1.22,2" transform="translate(0 -28.35)"/><path class="cls-4" d="M60.19,556.83a92.29,92.29,0,0,0-.87,12" transform="translate(0 -28.35)"/><path class="cls-4" d="M77.61,548.65a24.3,24.3,0,0,0-16.3,6" transform="translate(0 -28.35)"/><path class="cls-4" d="M61.37,554.69a3.5,3.5,0,0,0-1.18,2.16" transform="translate(0 -28.35)"/><path class="cls-4" d="M61.28,583a24.3,24.3,0,0,0,16.3,6" transform="translate(0 -28.35)"/><path class="cls-4" d="M60.19,582.86a27,27,0,0,0,17.45,6" transform="translate(0 -28.35)"/><path class="cls-4" d="M59.32,568.79a90.26,90.26,0,0,0,.85,12" transform="translate(0 -28.35)"/><path class="cls-4" d="M57.65,568.76A52.74,52.74,0,0,0,59,580.9" transform="translate(0 -28.35)"/><path class="cls-4" d="M60.19,580.78a3.54,3.54,0,0,0,1.17,2.16" transform="translate(0 -28.35)"/><path class="cls-4" d="M58.91,580.9a3.52,3.52,0,0,0,1.21,2" transform="translate(0 -28.35)"/><path class="cls-4" d="M74.82,590a10.87,10.87,0,0,0,8.93-4" transform="translate(0 -28.35)"/><path class="cls-4" d="M83.85,586a17,17,0,0,0,1.85-2.83" transform="translate(0 -28.35)"/><path class="cls-4" d="M85.7,554.43a17,17,0,0,0-1.85-2.83" transform="translate(0 -28.35)"/><path class="cls-4" d="M89.14,567.34a34.7,34.7,0,0,0-3.53-12.88" transform="translate(0 -28.35)"/><path class="cls-4" d="M86.19,574.66a24.84,24.84,0,0,0,0-11.69" transform="translate(0 -28.35)"/><path class="cls-4" d="M75.93,587.39a6.39,6.39,0,0,0,5.29-2.19" transform="translate(0 -28.35)"/><path class="cls-4" d="M81.23,585.21a22.88,22.88,0,0,0,4.89-10.57" transform="translate(0 -28.35)"/><path class="cls-4" d="M81.22,552.43a6.39,6.39,0,0,0-5.29-2.19" transform="translate(0 -28.35)"/><path class="cls-4" d="M86.12,563a22.88,22.88,0,0,0-4.89-10.57" transform="translate(0 -28.35)"/><path class="cls-4" d="M71.26,571.6a2.79,2.79,0,1,0-2.81-2.78,2.8,2.8,0,0,0,2.81,2.78" transform="translate(0 -28.35)"/><path class="cls-4" d="M71.26,570.77a2,2,0,1,0-2-1.95,2,2,0,0,0,2,1.95" transform="translate(0 -28.35)"/><line class="cls-4" x1="68.87" y1="602.15" x2="96.86" y2="602.15"/><polyline class="cls-4" points="67.2 603.31 56.72 603.31 56.72 573.45"/><line class="cls-4" x1="73.82" y1="588.34" x2="73.82" y2="577.28"/><polyline class="cls-4" points="96.78 602.14 73.82 599.4 73.82 588.34"/><line class="cls-4" x1="96.78" y1="574.61" x2="73.82" y2="577.28"/><line class="cls-4" x1="96.78" y1="601.4" x2="73.82" y2="598.73"/><line class="cls-4" x1="96.78" y1="575.28" x2="73.82" y2="578.02"/><line class="cls-4" x1="68.87" y1="574.61" x2="96.86" y2="574.61"/><line class="cls-4" x1="56.72" y1="573.45" x2="67.2" y2="573.45"/><polyline class="cls-4" points="96.78 602.14 99.88 601.73 102.81 600.57 105.41 598.65 107.42 596.16 108.92 593.25 109.68 590 109.68 586.67 108.92 583.51 107.42 580.52 105.41 578.02 102.81 576.19 99.88 575.03 96.78 574.61"/><polyline class="cls-4" points="96.78 601.4 99.71 601.06 102.47 599.9 104.9 598.15 106.91 595.74 108.25 593 108.92 589.92 108.92 586.76 108.25 583.76 106.91 580.93 104.9 578.61 102.47 576.78 99.71 575.7 96.78 575.28"/><path class="cls-4" d="M69,630.12a125.42,125.42,0,0,0,0-26.77" transform="translate(0 -28.35)"/><path class="cls-4" d="M67.24,631.66A1.77,1.77,0,0,0,69,630.14" transform="translate(0 -28.35)"/><path class="cls-4" d="M69,603.41a1.76,1.76,0,0,0-1.79-1.53" transform="translate(0 -28.35)"/><path class="cls-4" d="M64.85,616.73a1.47,1.47,0,1,0-1.47,1.45,1.46,1.46,0,0,0,1.47-1.45" transform="translate(0 -28.35)"/><polyline class="cls-4" points="413.76 151 413.76 107.74 414.18 107.74 414.18 151 413.76 151"/><polyline class="cls-4" points="412.58 106.58 339.77 106.58 339.77 106.16 412.58 106.16 412.58 106.58"/><polyline class="cls-4" points="338.6 107.74 338.6 151 338.18 151 338.18 107.74 338.6 107.74"/><polyline class="cls-4" points="412.58 152.99 412.58 151 414.59 151 414.59 152.99 412.58 152.99"/><polyline class="cls-4" points="412.58 107.74 412.58 105.83 414.59 105.83 414.59 107.74 412.58 107.74"/><polyline class="cls-4" points="339.77 107.74 337.76 107.74 337.76 105.83 339.77 105.83 339.77 107.74"/><polyline class="cls-4" points="339.77 151 339.77 152.99 337.76 152.99 337.76 151 339.77 151"/><line class="cls-4" x1="412.58" y1="151.99" x2="412.58" y2="107.74"/><line class="cls-4" x1="414.59" y1="105.83" x2="414.59" y2="151.99"/><line class="cls-4" x1="412.58" y1="107.74" x2="339.77" y2="107.74"/><line class="cls-4" x1="337.76" y1="105.83" x2="414.59" y2="105.83"/><line class="cls-4" x1="339.77" y1="107.74" x2="339.77" y2="151.99"/><line class="cls-4" x1="337.76" y1="151.99" x2="337.76" y2="105.83"/><polyline class="cls-4" points="414.59 151.99 414.59 152.99 412.58 152.99 412.58 151.99"/><polyline class="cls-4" points="339.77 151.99 339.77 152.99 337.76 152.99 337.76 151.99"/><polyline class="cls-4" points="337.76 105.83 414.59 105.83 414.59 151.99 412.58 151.99 412.58 107.74 339.77 107.74 339.77 151.99 337.76 151.99 337.76 105.83"/><polyline class="cls-4" points="341.7 119.97 410.57 119.97 410.57 145.09 341.7 145.09 341.7 119.97"/><polyline class="cls-4" points="341.7 122.47 410.57 122.47 410.57 145.09 341.7 145.09 341.7 122.47"/><polyline class="cls-4" points="146.21 151 146.21 107.74 146.55 107.74 146.55 151 146.21 151"/><polyline class="cls-4" points="144.96 106.58 72.14 106.58 72.14 106.16 144.96 106.16 144.96 106.58"/><polyline class="cls-4" points="70.97 107.74 70.97 151 70.55 151 70.55 107.74 70.97 107.74"/><polyline class="cls-4" points="144.96 152.99 144.96 151 146.97 151 146.97 152.99 144.96 152.99"/><polyline class="cls-4" points="144.96 107.74 144.96 105.83 146.97 105.83 146.97 107.74 144.96 107.74"/><polyline class="cls-4" points="72.14 107.74 70.13 107.74 70.13 105.83 72.14 105.83 72.14 107.74"/><polyline class="cls-4" points="72.14 151 72.14 152.99 70.13 152.99 70.13 151 72.14 151"/><line class="cls-4" x1="144.96" y1="151.99" x2="144.96" y2="107.74"/><line class="cls-4" x1="146.97" y1="105.83" x2="146.97" y2="151.99"/><line class="cls-4" x1="144.96" y1="107.74" x2="72.14" y2="107.74"/><line class="cls-4" x1="70.13" y1="105.83" x2="146.97" y2="105.83"/><line class="cls-4" x1="72.14" y1="107.74" x2="72.14" y2="151.99"/><line class="cls-4" x1="70.13" y1="151.99" x2="70.13" y2="105.83"/><polyline class="cls-4" points="146.97 151.99 146.97 152.99 144.96 152.99 144.96 151.99"/><polyline class="cls-4" points="72.14 151.99 72.14 152.99 70.13 152.99 70.13 151.99"/><polyline class="cls-4" points="70.13 105.83 146.97 105.83 146.97 151.99 144.96 151.99 144.96 107.74 72.14 107.74 72.14 151.99 70.13 151.99 70.13 105.83"/><polyline class="cls-4" points="74.15 119.97 143.03 119.97 143.03 145.09 74.15 145.09 74.15 119.97"/><polyline class="cls-4" points="74.15 122.47 143.03 122.47 143.03 145.09 74.15 145.09 74.15 122.47"/><polyline class="cls-4" points="751.1 520.8 751.1 505.08 830.2 505.08 830.2 520.8 751.1 520.8"/><polyline class="cls-4" points="293.43 244.15 309.27 244.15 309.27 165.55 293.43 165.55 293.43 244.15"/><polyline class="cls-4" points="784.28 181.27 784.28 165.55 863.46 165.55 863.46 181.27 784.28 181.27"/><polyline class="cls-4" points="0.5 244.15 16.34 244.15 16.34 165.55 0.5 165.55 0.5 244.15"/><polyline class="cls-4" points="0.5 511.32 16.34 511.32 16.34 432.71 0.5 432.71 0.5 511.32"/><polyline class="cls-4" points="230.09 870.47 230.09 854.75 309.27 854.75 309.27 870.47 230.09 870.47"/><polyline class="cls-4" points="521.43 511.32 537.26 511.32 537.26 432.71 521.43 432.71 521.43 511.32"/><polyline class="cls-4" points="521.43 244.15 537.26 244.15 537.26 165.55 521.43 165.55 521.43 244.15"/><polyline class="cls-4" points="469.39 870.47 469.39 854.75 548.58 854.75 548.58 870.47 469.39 870.47"/><polyline class="cls-4" points="920.19 346.71 933.93 354.44 894.97 422.82 881.23 415.08 920.19 346.71"/><polyline class="cls-4" points="0.5 854.75 37.7 854.75 37.7 870.47 0.5 870.47"/><polyline class="cls-4" points="641.5 691.81 655.24 699.54 616.28 768 602.45 760.26 641.5 691.81"/><polyline class="cls-4" points="293.43 511.32 309.27 511.32 309.27 432.71 293.43 432.71 293.43 511.32"/><line class="cls-5" x1="294.45" y1="511.95" x2="223.94" y2="511.95"/><line class="cls-5" x1="294.45" y1="505.6" x2="223.94" y2="505.6"/><line class="cls-5" x1="372.71" y1="505.6" x2="309.27" y2="505.6"/><line class="cls-5" x1="608.57" y1="505.6" x2="537.98" y2="505.6"/><line class="cls-5" x1="608.57" y1="511.95" x2="537.98" y2="511.95"/><line class="cls-5" x1="372.71" y1="511.95" x2="309.27" y2="511.95"/><line class="cls-5" x1="281.81" y1="711.49" x2="226.9" y2="711.49"/><line class="cls-5" x1="281.81" y1="717.79" x2="226.9" y2="717.79"/><line class="cls-5" x1="204.81" y1="551.2" x2="204.81" y2="606.03"/><line class="cls-5" x1="211.03" y1="551.2" x2="211.03" y2="606.03"/><line class="cls-5" x1="377.42" y1="554.11" x2="377.42" y2="674"/><line class="cls-5" x1="383.64" y1="554.11" x2="383.64" y2="674"/><line class="cls-5" x1="0.5" y1="753.4" x2="0.5" y2="825.73"/><text class="cls-6" transform="translate(555.46 10.2)"><tspan class="cls-7">у</tspan><tspan x="5.42" y="0">лица</tspan></text><line class="cls-8" x1="544.7" y1="4.22" x2="544.7" y2="13.02"/><polyline class="cls-8" points="548.2 7.72 544.7 4.22 541.2 7.72"/><text class="cls-6" transform="translate(1095.66 435.77) rotate(-90)"><tspan class="cls-7">у</tspan><tspan x="5.42" y="0">лица</tspan></text><line class="cls-8" x1="1098.49" y1="446.53" x2="1089.69" y2="446.53"/><polyline class="cls-8" points="1094.99 450.03 1098.49 446.53 1094.99 443.03"/></svg>