<svg id="_472" data-name="472" xmlns="http://www.w3.org/2000/svg" viewBox="0 0 884.97 848.39"><defs><style>.cls-1{isolation:isolate;font-size:12px;fill:#969696;}.cls-1,.cls-4,.cls-6{font-family:PTSans-Regular, PT Sans;}.cls-2{letter-spacing:-0.01em;}.cls-3,.cls-5,.cls-7,.cls-8{fill:none;stroke-linecap:round;stroke-linejoin:round;}.cls-3{stroke:#969696;stroke-width:0.75px;}.cls-4{font-size:40px;}.cls-5,.cls-7,.cls-8{stroke:#000;}.cls-5{stroke-width:0.5px;}.cls-6{font-size:36px;}.cls-7{stroke-width:0.25px;stroke-dasharray:1 1;}</style></defs><title>17floor_472flat</title><text class="cls-1" transform="translate(434.34 845.2)"><tspan class="cls-2">у</tspan><tspan x="5.42" y="0">лица</tspan></text><line class="cls-3" x1="423.58" y1="848.02" x2="423.58" y2="839.22"/><polyline class="cls-3" points="420.08 844.52 423.58 848.02 427.08 844.52"/><text class="cls-4" transform="translate(410.13 432.85)">2K</text><text class="cls-4" transform="translate(385.35 483.02)">54.66</text><text class="cls-4" transform="translate(380.07 382.94)">№472</text><polyline class="cls-5" points="371.06 493.83 371.06 344.76 495.38 344.76 495.38 493.83"/><line class="cls-5" x1="371.06" y1="394.55" x2="495.38" y2="394.55"/><line class="cls-5" x1="371.06" y1="493.83" x2="495.38" y2="493.83"/><line class="cls-5" x1="371.06" y1="444.33" x2="495.38" y2="444.33"/><text class="cls-6" transform="translate(390.13 611.44)">11.83</text><text class="cls-6" transform="translate(684.07 611.44)">13.98</text><text class="cls-6" transform="translate(104.92 611.44)">11.92</text><text class="cls-6" transform="translate(693.87 758.11)">0.92</text><text class="cls-6" transform="translate(704.1 114.97)">2.22</text><text class="cls-6" transform="translate(85.65 141.4)">3.91</text><text class="cls-6" transform="translate(403.31 125.48)">9.88</text><line class="cls-7" x1="686.81" y1="158.39" x2="686.81" y2="75.14"/><line class="cls-7" x1="694.28" y1="158.39" x2="694.28" y2="75.14"/><line class="cls-7" x1="189.48" y1="150.35" x2="189.48" y2="67.1"/><line class="cls-7" x1="196.95" y1="150.35" x2="196.95" y2="67.1"/><line class="cls-7" x1="584.59" y1="205.53" x2="674.71" y2="205.53"/><line class="cls-7" x1="583.92" y1="197.88" x2="674.04" y2="197.88"/><line class="cls-7" x1="322.09" y1="205.53" x2="412.22" y2="205.53"/><line class="cls-7" x1="322.09" y1="197.81" x2="412.22" y2="197.81"/><line class="cls-7" x1="200.67" y1="205.53" x2="290.8" y2="205.53"/><line class="cls-7" x1="200.67" y1="197.81" x2="290.8" y2="197.81"/><line class="cls-7" x1="491.75" y1="1.04" x2="588.06" y2="1.04"/><line class="cls-8" x1="8.24" y1="677.31" x2="58.79" y2="677.31"/><line class="cls-8" x1="518.04" y1="677.31" x2="650" y2="677.31"/><line class="cls-8" x1="815.58" y1="677.31" x2="884.47" y2="677.31"/><line class="cls-8" x1="230.18" y1="677.31" x2="346.65" y2="677.31"/><line class="cls-8" x1="62.66" y1="677.31" x2="62.66" y2="667.73"/><line class="cls-8" x1="226.31" y1="677.31" x2="226.31" y2="667.73"/><line class="cls-8" x1="62.66" y1="678.33" x2="62.66" y2="677.31"/><line class="cls-8" x1="226.31" y1="678.33" x2="226.31" y2="677.31"/><line class="cls-8" x1="58.79" y1="667.73" x2="58.79" y2="667.73"/><polyline class="cls-8" points="58.79 677.31 61.64 677.31 61.64 667.73 61.64 677.31"/><line class="cls-8" x1="61.64" y1="678.33" x2="62.66" y2="678.33"/><line class="cls-8" x1="230.18" y1="667.73" x2="230.18" y2="667.73"/><polyline class="cls-8" points="230.18 677.31 227.32 677.31 227.32 667.73 227.32 677.31"/><line class="cls-8" x1="227.33" y1="678.33" x2="226.31" y2="678.33"/><polyline class="cls-8" points="58.79 667.73 58.79 661.92 58.79 643.68"/><polyline class="cls-8" points="230.18 667.73 230.18 661.92 230.18 643.68"/><line class="cls-8" x1="350.52" y1="677.31" x2="350.52" y2="667.73"/><line class="cls-8" x1="514.17" y1="677.31" x2="514.17" y2="667.73"/><line class="cls-8" x1="350.52" y1="678.33" x2="350.52" y2="677.31"/><line class="cls-8" x1="514.17" y1="678.33" x2="514.17" y2="677.31"/><line class="cls-8" x1="346.65" y1="667.73" x2="346.65" y2="667.73"/><polyline class="cls-8" points="346.65 677.31 349.6 677.31 349.6 667.73 349.6 677.31"/><line class="cls-8" x1="349.6" y1="678.33" x2="350.52" y2="678.33"/><line class="cls-8" x1="518.04" y1="667.73" x2="518.04" y2="667.73"/><polyline class="cls-8" points="518.04 677.31 515.19 677.31 515.19 667.73 515.19 677.31"/><line class="cls-8" x1="515.19" y1="678.33" x2="514.17" y2="678.33"/><polyline class="cls-8" points="346.65 667.73 346.65 661.92 346.65 643.68"/><polyline class="cls-8" points="518.04 667.73 518.04 661.92 518.04 643.68"/><line class="cls-8" x1="650.92" y1="677.31" x2="650.92" y2="667.73"/><line class="cls-8" x1="814.67" y1="677.31" x2="814.67" y2="667.73"/><line class="cls-8" x1="650.92" y1="678.33" x2="650.92" y2="677.31"/><line class="cls-8" x1="814.67" y1="678.33" x2="814.67" y2="677.31"/><line class="cls-8" x1="818.44" y1="667.73" x2="815.58" y2="667.73"/><line class="cls-8" x1="650" y1="677.31" x2="650" y2="667.73"/><line class="cls-8" x1="650" y1="678.33" x2="650.92" y2="678.33"/><line class="cls-8" x1="815.58" y1="677.31" x2="815.58" y2="667.73"/><line class="cls-8" x1="815.58" y1="678.33" x2="814.67" y2="678.33"/><polyline class="cls-8" points="647.04 667.73 647.04 661.92 647.04 643.68"/><polyline class="cls-8" points="818.44 667.73 818.44 661.92 818.44 643.68"/><line class="cls-8" x1="8.24" y1="678.33" x2="61.64" y2="678.33"/><line class="cls-8" x1="227.33" y1="678.33" x2="349.6" y2="678.33"/><line class="cls-8" x1="515.19" y1="678.33" x2="650" y2="678.33"/><line class="cls-8" x1="815.58" y1="678.33" x2="884.47" y2="678.33"/><line class="cls-8" x1="884.47" y1="643.68" x2="884.47" y2="643.68"/><line class="cls-8" x1="865.21" y1="643.68" x2="818.44" y2="643.68"/><line class="cls-8" x1="647.04" y1="643.68" x2="576.33" y2="643.68"/><line class="cls-8" x1="557.07" y1="643.68" x2="518.04" y2="643.68"/><line class="cls-8" x1="346.65" y1="643.68" x2="306.7" y2="643.68"/><line class="cls-8" x1="287.45" y1="643.68" x2="230.18" y2="643.68"/><line class="cls-8" x1="58.79" y1="643.68" x2="15.99" y2="643.68"/><line class="cls-8" x1="226.31" y1="678.33" x2="62.66" y2="678.33"/><line class="cls-8" x1="230.18" y1="643.68" x2="58.79" y2="643.68"/><polyline class="cls-8" points="230.18 661.92 224.88 661.92 224.88 665.79 222.43 665.79 222.43 667.73 230.18 667.73"/><polyline class="cls-8" points="144.48 667.73 148.35 667.73 148.35 665.79 145.91 665.79 145.91 661.92 144.48 661.92"/><line class="cls-8" x1="148.35" y1="667.73" x2="222.43" y2="667.73"/><polyline class="cls-8" points="224.88 659.99 219.07 659.99 151.72 659.99"/><polyline class="cls-8" points="219.07 659.99 219.07 665.79 224.88 665.79 224.88 659.99"/><polyline class="cls-8" points="145.91 665.79 151.72 665.79 151.72 659.99 145.91 659.99 145.91 665.79"/><line class="cls-8" x1="151.72" y1="665.79" x2="219.07" y2="665.79"/><line class="cls-8" x1="219.07" y1="659.99" x2="151.72" y2="659.99"/><line class="cls-8" x1="219.07" y1="662.94" x2="151.72" y2="662.94"/><polyline class="cls-8" points="144.48 661.92 143.06 661.92 143.06 665.79 140.61 665.79 140.61 667.73 144.48 667.73"/><polyline class="cls-8" points="58.79 667.73 66.53 667.73 66.53 665.79 64.08 665.79 64.08 661.92 58.79 661.92"/><line class="cls-8" x1="66.53" y1="667.73" x2="140.61" y2="667.73"/><polyline class="cls-8" points="143.06 659.99 137.25 659.99 69.89 659.99"/><polyline class="cls-8" points="137.25 659.99 137.25 665.79 143.06 665.79 143.06 659.99"/><polyline class="cls-8" points="64.08 665.79 69.89 665.79 69.89 659.99 64.08 659.99 64.08 665.79"/><line class="cls-8" x1="69.89" y1="665.79" x2="137.25" y2="665.79"/><line class="cls-8" x1="137.25" y1="659.99" x2="69.89" y2="659.99"/><line class="cls-8" x1="137.25" y1="662.94" x2="69.89" y2="662.94"/><polyline class="cls-8" points="230.18 643.68 230.18 661.92 230.18 667.73 230.18 661.92"/><polyline class="cls-8" points="58.79 643.68 58.79 661.92 58.79 667.73 58.79 661.92"/><line class="cls-8" x1="226.31" y1="678.33" x2="226.31" y2="677.31"/><polyline class="cls-8" points="226.31 667.73 227.32 667.73 226.31 667.73"/><polyline class="cls-8" points="227.32 667.73 230.18 667.73 227.32 667.73"/><line class="cls-8" x1="62.66" y1="678.33" x2="62.66" y2="677.31"/><polyline class="cls-8" points="62.66 667.73 61.64 667.73 62.66 667.73"/><polyline class="cls-8" points="61.64 667.73 58.79 667.73 61.64 667.73"/><line class="cls-8" x1="226.31" y1="677.31" x2="226.31" y2="667.73"/><line class="cls-8" x1="62.66" y1="677.31" x2="62.66" y2="667.73"/><line class="cls-8" x1="514.17" y1="678.33" x2="350.52" y2="678.33"/><line class="cls-8" x1="518.04" y1="643.68" x2="346.65" y2="643.68"/><polyline class="cls-8" points="518.04 661.92 512.74 661.92 512.74 665.79 510.4 665.79 510.4 667.73 518.04 667.73"/><polyline class="cls-8" points="432.35 667.73 436.22 667.73 436.22 665.79 433.77 665.79 433.77 661.92 432.35 661.92"/><line class="cls-8" x1="436.22" y1="667.73" x2="510.4" y2="667.73"/><polyline class="cls-8" points="512.74 659.99 507.04 659.99 439.58 659.99"/><polyline class="cls-8" points="507.04 659.99 507.04 665.79 512.74 665.79 512.74 659.99"/><polyline class="cls-8" points="433.77 665.79 439.58 665.79 439.58 659.99 433.77 659.99 433.77 665.79"/><line class="cls-8" x1="439.58" y1="665.79" x2="507.04" y2="665.79"/><line class="cls-8" x1="507.04" y1="659.99" x2="439.58" y2="659.99"/><line class="cls-8" x1="507.04" y1="662.94" x2="439.58" y2="662.94"/><polyline class="cls-8" points="432.35 661.92 430.92 661.92 430.92 665.79 428.57 665.79 428.57 667.73 432.35 667.73"/><polyline class="cls-8" points="346.65 667.73 354.39 667.73 354.39 665.79 351.95 665.79 351.95 661.92 346.65 661.92"/><line class="cls-8" x1="354.39" y1="667.73" x2="428.57" y2="667.73"/><polyline class="cls-8" points="430.92 659.99 425.11 659.99 357.75 659.99"/><polyline class="cls-8" points="425.11 659.99 425.11 665.79 430.92 665.79 430.92 659.99"/><polyline class="cls-8" points="351.95 665.79 357.75 665.79 357.75 659.99 351.95 659.99 351.95 665.79"/><line class="cls-8" x1="357.76" y1="665.79" x2="425.11" y2="665.79"/><line class="cls-8" x1="425.11" y1="659.99" x2="357.76" y2="659.99"/><line class="cls-8" x1="425.11" y1="662.94" x2="357.76" y2="662.94"/><polyline class="cls-8" points="518.04 643.68 518.04 661.92 518.04 667.73 518.04 661.92"/><polyline class="cls-8" points="346.65 643.68 346.65 661.92 346.65 667.73 346.65 661.92"/><line class="cls-8" x1="514.17" y1="678.33" x2="514.17" y2="677.31"/><polyline class="cls-8" points="514.17 667.73 515.19 667.73 514.17 667.73"/><polyline class="cls-8" points="515.19 667.73 518.04 667.73 515.19 667.73"/><line class="cls-8" x1="350.52" y1="678.33" x2="350.52" y2="677.31"/><polyline class="cls-8" points="350.52 667.73 349.6 667.73 350.52 667.73"/><polyline class="cls-8" points="349.6 667.73 346.65 667.73 349.6 667.73"/><line class="cls-8" x1="514.17" y1="677.31" x2="514.17" y2="667.73"/><line class="cls-8" x1="350.52" y1="677.31" x2="350.52" y2="667.73"/><line class="cls-8" x1="814.67" y1="678.33" x2="650.92" y2="678.33"/><line class="cls-8" x1="818.44" y1="643.68" x2="647.04" y2="643.68"/><polyline class="cls-8" points="818.44 661.92 810.79 661.92 810.79 667.73 818.44 667.73"/><polyline class="cls-8" points="736.1 667.73 739.57 667.73 739.57 661.92 736.1 661.92"/><line class="cls-8" x1="810.79" y1="664.88" x2="739.57" y2="664.88"/><line class="cls-8" x1="810.79" y1="661.92" x2="739.57" y2="661.92"/><line class="cls-8" x1="739.57" y1="667.73" x2="810.79" y2="667.73"/><polyline class="cls-8" points="736.1 661.92 735.19 661.92 735.19 665.79 732.74 665.79 732.74 667.73 736.1 667.73"/><polyline class="cls-8" points="647.04 667.73 654.79 667.73 654.79 665.79 652.34 665.79 652.34 661.92 647.04 661.92"/><line class="cls-8" x1="652.34" y1="659.99" x2="724.08" y2="618.61"/><line class="cls-8" x1="654.79" y1="667.73" x2="732.74" y2="667.73"/><polyline class="cls-8" points="735.19 659.99 729.38 659.99 658.15 659.99"/><polyline class="cls-8" points="729.38 659.99 729.38 665.79 735.19 665.79 735.19 659.99"/><polyline class="cls-8" points="652.34 665.79 658.15 665.79 658.15 659.99 652.34 659.99 652.34 665.79"/><line class="cls-8" x1="658.15" y1="665.79" x2="729.38" y2="665.79"/><line class="cls-8" x1="729.38" y1="659.99" x2="658.15" y2="659.99"/><line class="cls-8" x1="729.38" y1="662.94" x2="658.15" y2="662.94"/><path class="cls-8" d="M735.29,659.43A82.85,82.85,0,0,0,724.2,618" transform="translate(-0.1 0.5)"/><polyline class="cls-8" points="818.44 643.68 818.44 661.92 818.44 667.73 818.44 661.92"/><polyline class="cls-8" points="647.04 643.68 647.04 661.92 647.04 667.73 647.04 661.92"/><polyline class="cls-8" points="815.58 667.73 818.44 667.73 815.58 667.73"/><polyline class="cls-8" points="647.04 667.73 650 667.73 647.04 667.73"/><line class="cls-8" x1="814.67" y1="678.33" x2="814.67" y2="677.31"/><polyline class="cls-8" points="814.67 667.73 815.58 667.73 814.67 667.73"/><line class="cls-8" x1="650.92" y1="678.33" x2="650.92" y2="677.31"/><polyline class="cls-8" points="650.92 667.73 650 667.73 650.92 667.73"/><line class="cls-8" x1="814.67" y1="677.31" x2="814.67" y2="667.73"/><line class="cls-8" x1="650.92" y1="677.31" x2="650.92" y2="667.73"/><line class="cls-8" x1="0.5" y1="677.31" x2="8.24" y2="677.31"/><line class="cls-8" x1="0.5" y1="677.31" x2="0.5" y2="667.73"/><line class="cls-8" x1="0.5" y1="678.33" x2="0.5" y2="677.31"/><line class="cls-8" x1="0.5" y1="667.73" x2="0.5" y2="667.73"/><polyline class="cls-8" points="0.5 677.31 0.5 677.31 0.5 667.73 0.5 677.31"/><line class="cls-8" x1="0.5" y1="678.33" x2="0.5" y2="678.33"/><polyline class="cls-8" points="0.5 667.73 0.5 661.92 0.5 643.68"/><line class="cls-8" x1="0.5" y1="678.33" x2="8.24" y2="678.33"/><line class="cls-8" x1="0.5" y1="643.68" x2="0.5" y2="643.68"/><polyline class="cls-8" points="0.5 643.68 0.5 661.92 0.5 667.73 0.5 661.92"/><line class="cls-8" x1="0.5" y1="678.33" x2="0.5" y2="677.31"/><polyline class="cls-8" points="0.5 667.73 0.5 667.73 0.5 667.73"/><polyline class="cls-8" points="0.5 667.73 0.5 667.73 0.5 667.73"/><line class="cls-8" x1="0.5" y1="677.31" x2="0.5" y2="667.73"/><line class="cls-8" x1="585.91" y1="678.33" x2="595.59" y2="678.33"/><line class="cls-8" x1="585.91" y1="810.18" x2="585.91" y2="678.33"/><polyline class="cls-8" points="585.9 810.18 585.9 800.61 585.9 795.82 589.78 795.82 589.78 798.16 595.59 798.16 595.59 800.61 595.59 678.33"/><polyline class="cls-8" points="585.9 678.33 585.9 690.86 585.9 698.5 589.78 698.5 589.78 696.16 595.59 696.16 595.59 690.86 595.59 678.33"/><line class="cls-8" x1="585.91" y1="698.5" x2="585.91" y2="795.82"/><polyline class="cls-8" points="595.59 798.16 595.59 792.45 595.59 701.87"/><polyline class="cls-8" points="595.59 792.45 589.78 792.45 589.78 798.16 595.59 798.16"/><polyline class="cls-8" points="589.78 696.16 589.78 701.87 595.59 701.87 595.59 696.16 589.78 696.16"/><line class="cls-8" x1="589.78" y1="701.87" x2="589.78" y2="792.45"/><line class="cls-8" x1="595.59" y1="792.45" x2="595.59" y2="701.87"/><line class="cls-8" x1="592.73" y1="792.45" x2="592.73" y2="701.87"/><line class="cls-8" x1="585.91" y1="800.61" x2="595.59" y2="800.61"/><line class="cls-8" x1="585.91" y1="690.86" x2="595.59" y2="690.86"/><polyline class="cls-8" points="595.59 678.33 585.9 678.33 595.59 678.33"/><line class="cls-8" x1="874.79" y1="810.18" x2="585.91" y2="810.18"/><polyline class="cls-8" points="874.79 810.18 865.21 810.18 860.32 810.18 860.32 806.41 862.76 806.41 862.76 800.61 865.21 800.61 595.59 800.61"/><polyline class="cls-8" points="775.03 810.18 778.8 810.18 778.8 806.41 776.46 806.41 776.46 800.61 775.03 800.61"/><line class="cls-8" x1="778.8" y1="810.18" x2="860.32" y2="810.18"/><polyline class="cls-8" points="862.76 800.61 856.96 800.61 782.16 800.61"/><polyline class="cls-8" points="856.96 800.61 856.96 806.41 862.76 806.41 862.76 800.61"/><polyline class="cls-8" points="776.46 806.41 782.16 806.41 782.16 800.61 776.46 800.61 776.46 806.41"/><line class="cls-8" x1="782.16" y1="806.41" x2="856.95" y2="806.41"/><line class="cls-8" x1="856.95" y1="800.61" x2="782.16" y2="800.61"/><line class="cls-8" x1="856.95" y1="803.46" x2="782.16" y2="803.46"/><line class="cls-8" x1="865.21" y1="810.18" x2="865.21" y2="800.61"/><polyline class="cls-8" points="775.03 800.61 773.5 800.61 773.5 806.41 771.16 806.41 771.16 810.18 775.03 810.18"/><polyline class="cls-8" points="685.77 810.18 689.64 810.18 689.64 806.41 687.19 806.41 687.19 800.61 685.77 800.61"/><line class="cls-8" x1="689.64" y1="810.18" x2="771.16" y2="810.18"/><polyline class="cls-8" points="773.5 800.61 767.79 800.61 693 800.61"/><polyline class="cls-8" points="767.79 800.61 767.79 806.41 773.5 806.41 773.5 800.61"/><polyline class="cls-8" points="687.19 806.41 693 806.41 693 800.61 687.19 800.61 687.19 806.41"/><line class="cls-8" x1="693" y1="806.41" x2="767.79" y2="806.41"/><line class="cls-8" x1="767.79" y1="800.61" x2="693" y2="800.61"/><line class="cls-8" x1="767.79" y1="803.46" x2="693" y2="803.46"/><polyline class="cls-8" points="685.77 800.61 684.34 800.61 684.34 806.41 681.89 806.41 681.89 810.18 685.77 810.18"/><polyline class="cls-8" points="585.9 810.18 595.59 810.18 600.38 810.18 600.38 806.41 598.03 806.41 598.03 800.61 595.59 800.61"/><line class="cls-8" x1="600.37" y1="810.18" x2="681.89" y2="810.18"/><polyline class="cls-8" points="684.34 800.61 678.53 800.61 603.74 800.61"/><polyline class="cls-8" points="678.53 800.61 678.53 806.41 684.34 806.41 684.34 800.61"/><polyline class="cls-8" points="598.03 806.41 603.74 806.41 603.74 800.61 598.03 800.61 598.03 806.41"/><line class="cls-8" x1="603.74" y1="806.41" x2="678.53" y2="806.41"/><line class="cls-8" x1="678.53" y1="800.61" x2="603.74" y2="800.61"/><line class="cls-8" x1="678.53" y1="803.46" x2="603.74" y2="803.46"/><line class="cls-8" x1="595.59" y1="810.18" x2="595.59" y2="800.61"/><line class="cls-8" x1="874.79" y1="678.33" x2="865.21" y2="678.33"/><line class="cls-8" x1="874.79" y1="810.18" x2="874.79" y2="678.33"/><polyline class="cls-8" points="874.79 810.18 874.79 800.61 874.79 795.82 870.91 795.82 870.91 798.16 865.21 798.16 865.21 800.61 865.21 678.33"/><polyline class="cls-8" points="874.79 678.33 874.79 690.86 874.79 698.5 870.91 698.5 870.91 696.16 865.21 696.16 865.21 690.86 865.21 678.33"/><line class="cls-8" x1="874.79" y1="698.5" x2="874.79" y2="795.82"/><polyline class="cls-8" points="865.21 798.16 865.21 792.45 865.21 701.87"/><polyline class="cls-8" points="865.21 792.45 870.91 792.45 870.91 798.16 865.21 798.16"/><polyline class="cls-8" points="870.91 696.16 870.91 701.87 865.21 701.87 865.21 696.16 870.91 696.16"/><line class="cls-8" x1="870.91" y1="701.87" x2="870.91" y2="792.45"/><line class="cls-8" x1="865.21" y1="792.45" x2="865.21" y2="701.87"/><line class="cls-8" x1="868.06" y1="792.45" x2="868.06" y2="701.87"/><line class="cls-8" x1="874.79" y1="800.61" x2="865.21" y2="800.61"/><line class="cls-8" x1="874.79" y1="690.86" x2="865.21" y2="690.86"/><polyline class="cls-8" points="865.21 678.33 874.79 678.33 865.21 678.33"/><line class="cls-8" x1="884.47" y1="0.5" x2="674.56" y2="0.5"/><line class="cls-8" x1="693.82" y1="19.76" x2="865.21" y2="19.76"/><line class="cls-8" x1="884.47" y1="0.5" x2="884.47" y2="0.5"/><line class="cls-8" x1="865.21" y1="19.76" x2="865.21" y2="248.93"/><line class="cls-8" x1="865.21" y1="345.22" x2="865.21" y2="566.65"/><line class="cls-8" x1="884.47" y1="677.31" x2="884.47" y2="345.22"/><line class="cls-8" x1="884.47" y1="248.93" x2="884.47" y2="0.5"/><line class="cls-8" x1="557.07" y1="205.52" x2="557.07" y2="248.93"/><line class="cls-8" x1="557.07" y1="345.22" x2="557.07" y2="566.65"/><line class="cls-8" x1="564.81" y1="566.65" x2="564.81" y2="345.22"/><line class="cls-8" x1="564.81" y1="248.93" x2="564.81" y2="205.52"/><polyline class="cls-8" points="25.57 65.92 25.57 62.15 25.57 58.28"/><polyline class="cls-8" points="64.08 65.92 64.08 62.15 64.08 58.28"/><line class="cls-8" x1="15.99" y1="65.92" x2="25.57" y2="65.92"/><line class="cls-8" x1="64.08" y1="65.92" x2="137.25" y2="65.92"/><line class="cls-8" x1="129.61" y1="58.28" x2="71.83" y2="58.28"/><polyline class="cls-8" points="25.57 58.28 15.99 58.28 15.99 65.92"/><line class="cls-8" x1="64.08" y1="65.92" x2="25.57" y2="65.92"/><line class="cls-8" x1="64.08" y1="58.28" x2="25.57" y2="58.28"/><line class="cls-8" x1="25.57" y1="65.92" x2="61.74" y2="79.17"/><polyline class="cls-8" points="64.08 58.28 64.08 62.15 64.08 65.92 64.08 62.15"/><polyline class="cls-8" points="25.57 58.28 25.57 62.15 25.57 65.92 25.57 62.15"/><line class="cls-8" x1="196.96" y1="77.54" x2="189.22" y2="77.54"/><polyline class="cls-8" points="196.96 269.1 196.96 144.89 189.22 144.89"/><polyline class="cls-8" points="196.96 77.53 196.96 19.76 189.22 19.76 189.22 77.53"/><line class="cls-8" x1="189.22" y1="144.89" x2="189.22" y2="261.46"/><polyline class="cls-8" points="189.22 261.46 15.99 261.46 15.99 269.1"/><polyline class="cls-8" points="196.96 269.1 189.22 269.1 15.99 269.1"/><polyline class="cls-8" points="71.83 58.28 71.83 19.76 64.08 19.76 64.08 58.28"/><line class="cls-8" x1="299.06" y1="205.52" x2="299.06" y2="248.93"/><line class="cls-8" x1="299.06" y1="345.22" x2="299.06" y2="566.65"/><line class="cls-8" x1="306.7" y1="566.65" x2="306.7" y2="345.22"/><line class="cls-8" x1="306.7" y1="248.93" x2="306.7" y2="205.52"/><line class="cls-8" x1="686.07" y1="154.57" x2="693.82" y2="154.57"/><polyline class="cls-8" points="686.07 75.6 686.07 87.11 693.82 87.11"/><line class="cls-8" x1="686.07" y1="154.57" x2="686.07" y2="197.88"/><line class="cls-8" x1="693.82" y1="197.88" x2="693.82" y2="154.57"/><polyline class="cls-8" points="693.82 87.11 693.82 75.6 686.07 75.6"/><polyline class="cls-8" points="809.37 197.88 813.14 197.88 817.01 197.88"/><polyline class="cls-8" points="809.37 159.36 813.14 159.36 817.01 159.36 817.01 142.95"/><polyline class="cls-8" points="817.01 135.31 817.01 19.76 809.37 19.76 809.37 159.36"/><line class="cls-8" x1="809.37" y1="159.36" x2="809.37" y2="197.88"/><line class="cls-8" x1="817.01" y1="159.36" x2="817.01" y2="197.88"/><path class="cls-8" d="M809.52,158.86a38.36,38.36,0,0,0-13.16,2.32" transform="translate(-0.1 0.5)"/><line class="cls-8" x1="809.37" y1="197.88" x2="796.12" y2="161.7"/><polyline class="cls-8" points="817.01 159.36 813.14 159.36 809.37 159.36 813.14 159.36"/><polyline class="cls-8" points="817.01 197.88 813.14 197.88 809.37 197.88 813.14 197.88"/><polyline class="cls-8" points="817.01 142.95 865.21 142.95 865.21 135.31 817.01 135.31"/><line class="cls-8" x1="865.21" y1="197.88" x2="817.01" y2="197.88"/><line class="cls-8" x1="809.37" y1="197.88" x2="693.82" y2="197.88"/><polyline class="cls-8" points="686.07 197.88 686.07 205.52 865.21 205.52 865.21 197.88"/><polyline class="cls-8" points="137.25 65.92 137.25 58.28 137.25 19.76 129.6 19.76 129.6 58.28"/><polyline class="cls-8" points="674.56 0.5 674.56 19.76 674.56 56.34"/><line class="cls-8" x1="693.82" y1="75.6" x2="693.82" y2="19.76"/><polyline class="cls-8" points="587.84 19.76 587.84 12.02 587.84 0.5"/><polyline class="cls-8" points="491.55 19.76 491.55 12.02 491.55 0.5"/><line class="cls-8" x1="611.99" y1="0.5" x2="587.84" y2="0.5"/><line class="cls-8" x1="491.55" y1="0.5" x2="486.76" y2="0.5"/><line class="cls-8" x1="491.75" y1="0.5" x2="0.5" y2="0.5"/><polyline class="cls-8" points="297.13 0.5 15.99 0.5 15.99 19.76 297.13 19.76"/><line class="cls-8" x1="393.42" y1="19.76" x2="491.55" y2="19.76"/><line class="cls-8" x1="587.84" y1="19.76" x2="592.73" y2="19.76"/><line class="cls-8" x1="491.55" y1="19.76" x2="491.85" y2="19.76"/><line class="cls-8" x1="587.64" y1="19.76" x2="587.84" y2="19.76"/><line class="cls-8" x1="491.55" y1="0.5" x2="491.85" y2="0.5"/><line class="cls-8" x1="587.64" y1="0.5" x2="587.84" y2="0.5"/><path class="cls-8" d="M495.62,19.21a88.6,88.6,0,0,0,88.6,88.6" transform="translate(-0.1 0.5)"/><polyline class="cls-8" points="491.55 12.02 495.42 12.02 495.42 19.76 491.55 19.76 491.55 12.02"/><polyline class="cls-8" points="587.84 19.76 584.07 19.76 584.07 12.02 587.84 12.02 587.84 19.76"/><line class="cls-8" x1="584.07" y1="19.76" x2="584.07" y2="108.31"/><polyline class="cls-8" points="491.55 0.5 491.55 12.02 491.55 19.76 491.55 12.02"/><polyline class="cls-8" points="587.84 0.5 587.84 12.02 587.84 19.76 587.84 12.02"/><line class="cls-8" x1="674.56" y1="56.34" x2="611.99" y2="56.34"/><polyline class="cls-8" points="693.82 75.6 674.56 75.6 592.73 75.6 592.73 56.34 592.73 19.76"/><polyline class="cls-8" points="611.99 0.5 611.99 19.76 611.99 56.34"/><polyline class="cls-8" points="611.99 12.02 674.56 12.02 674.56 0.5 611.99 0.5 611.99 12.02"/><line class="cls-8" x1="287.45" y1="205.52" x2="287.45" y2="197.88"/><line class="cls-8" x1="210.41" y1="205.52" x2="210.41" y2="197.88"/><line class="cls-8" x1="584.07" y1="197.88" x2="584.07" y2="205.52"/><line class="cls-8" x1="670.68" y1="197.88" x2="670.68" y2="205.52"/><line class="cls-8" x1="325.96" y1="197.88" x2="325.96" y2="205.52"/><line class="cls-8" x1="403" y1="197.88" x2="403" y2="205.52"/><line class="cls-8" x1="686.07" y1="197.88" x2="670.68" y2="197.88"/><line class="cls-8" x1="584.07" y1="197.88" x2="403" y2="197.88"/><line class="cls-8" x1="325.96" y1="197.88" x2="287.45" y2="197.88"/><polyline class="cls-8" points="210.41 197.88 196.96 197.88 196.96 205.52 210.41 205.52"/><line class="cls-8" x1="287.45" y1="205.52" x2="299.06" y2="205.52"/><line class="cls-8" x1="306.7" y1="205.52" x2="325.96" y2="205.52"/><line class="cls-8" x1="403" y1="205.52" x2="557.07" y2="205.52"/><line class="cls-8" x1="564.81" y1="205.52" x2="584.07" y2="205.52"/><polyline class="cls-8" points="670.68 205.52 686.07 205.52 686.07 197.88"/><polyline class="cls-8" points="25.57 65.92 25.57 62.15 25.57 58.28"/><polyline class="cls-8" points="64.08 65.92 64.08 62.15 64.08 58.28"/><line class="cls-8" x1="15.99" y1="65.92" x2="25.57" y2="65.92"/><line class="cls-8" x1="64.08" y1="65.92" x2="133.38" y2="65.92"/><line class="cls-8" x1="133.38" y1="58.28" x2="71.83" y2="58.28"/><polyline class="cls-8" points="25.57 58.28 15.99 58.28 15.99 65.92"/><line class="cls-8" x1="64.08" y1="65.92" x2="25.57" y2="65.92"/><line class="cls-8" x1="64.08" y1="58.28" x2="25.57" y2="58.28"/><path class="cls-8" d="M61.87,78.52a38.55,38.55,0,0,0,2.32-13.15" transform="translate(-0.1 0.5)"/><line class="cls-8" x1="25.57" y1="65.92" x2="61.74" y2="79.17"/><polyline class="cls-8" points="64.08 58.28 64.08 62.15 64.08 65.92 64.08 62.15"/><polyline class="cls-8" points="25.57 58.28 25.57 62.15 25.57 65.92 25.57 62.15"/><polyline class="cls-8" points="421.75 680.67 421.75 733.66 421.34 733.66 421.34 680.67 421.75 680.67"/><polyline class="cls-8" points="423.28 735.08 511.82 735.08 511.82 735.59 423.28 735.59 423.28 735.08"/><polyline class="cls-8" points="513.25 733.66 513.25 680.67 513.76 680.67 513.76 733.66 513.25 733.66"/><polyline class="cls-8" points="423.28 678.33 423.28 680.67 420.83 680.67 420.83 678.33 423.28 678.33"/><polyline class="cls-8" points="423.28 733.66 423.28 736.1 420.83 736.1 420.83 733.66 423.28 733.66"/><polyline class="cls-8" points="511.82 733.66 514.17 733.66 514.17 736.1 511.82 736.1 511.82 733.66"/><polyline class="cls-8" points="511.82 680.67 511.82 678.33 514.17 678.33 514.17 680.67 511.82 680.67"/><line class="cls-8" x1="423.28" y1="679.55" x2="423.28" y2="733.66"/><line class="cls-8" x1="420.83" y1="736.1" x2="420.83" y2="679.55"/><line class="cls-8" x1="423.28" y1="733.66" x2="511.83" y2="733.66"/><line class="cls-8" x1="514.17" y1="736.1" x2="420.83" y2="736.1"/><line class="cls-8" x1="511.83" y1="733.66" x2="511.83" y2="679.55"/><line class="cls-8" x1="514.17" y1="679.55" x2="514.17" y2="736.1"/><polyline class="cls-8" points="420.83 679.55 420.83 678.33 423.28 678.33 423.28 679.55"/><polyline class="cls-8" points="511.82 679.55 511.82 678.33 514.17 678.33 514.17 679.55"/><polyline class="cls-8" points="514.17 736.1 420.83 736.1 420.83 679.55 423.28 679.55 423.28 733.66 511.82 733.66 511.82 679.55 514.17 679.55 514.17 736.1"/><polyline class="cls-8" points="509.38 718.78 425.62 718.78 425.62 687.91 509.38 687.91 509.38 718.78"/><polyline class="cls-8" points="509.38 715.62 425.62 715.62 425.62 687.91 509.38 687.91 509.38 715.62"/><polyline class="cls-8" points="787.36 90.99 809.37 90.99 809.37 39.02 787.36 39.02"/><line class="cls-8" x1="809.37" y1="56.85" x2="809.37" y2="73.15"/><line class="cls-8" x1="791.64" y1="60.62" x2="791.64" y2="63.37"/><line class="cls-8" x1="796.02" y1="65" x2="793.27" y2="65"/><line class="cls-8" x1="791.64" y1="66.63" x2="791.64" y2="69.38"/><line class="cls-8" x1="790.11" y1="65" x2="787.26" y2="65"/><path class="cls-8" d="M786.14,87.23a23.14,23.14,0,0,0,11-9" transform="translate(-0.1 0.5)"/><path class="cls-8" d="M797.08,78.24a23.17,23.17,0,0,0,3.25-13.82" transform="translate(-0.1 0.5)"/><path class="cls-8" d="M797.1,50.66a23.1,23.1,0,0,0-11-9" transform="translate(-0.1 0.5)"/><path class="cls-8" d="M800.33,64.48a23.17,23.17,0,0,0-3.25-13.82" transform="translate(-0.1 0.5)"/><path class="cls-8" d="M770.05,66.26A42.78,42.78,0,0,0,774.34,82" transform="translate(-0.1 0.5)"/><path class="cls-8" d="M787.47,38.53a13.21,13.21,0,0,0-10.86,4.92" transform="translate(-0.1 0.5)"/><path class="cls-8" d="M770,62.63a24.57,24.57,0,0,0,0,3.64" transform="translate(-0.1 0.5)"/><path class="cls-8" d="M796.22,79a94.59,94.59,0,0,0,0-29.09" transform="translate(-0.1 0.5)"/><path class="cls-8" d="M805.33,47.21a32.64,32.64,0,0,0-21.23-7.36" transform="translate(-0.1 0.5)"/><path class="cls-8" d="M808.45,64.43a64.71,64.71,0,0,0-1.61-14.87" transform="translate(-0.1 0.5)"/><path class="cls-8" d="M806.82,49.53a4.35,4.35,0,0,0-1.49-2.39" transform="translate(-0.1 0.5)"/><path class="cls-8" d="M806.41,64.43a112.42,112.42,0,0,0-1-14.66" transform="translate(-0.1 0.5)"/><path class="cls-8" d="M803.89,47.09a29.38,29.38,0,0,0-19.82-7.35" transform="translate(-0.1 0.5)"/><path class="cls-8" d="M805.35,49.79a4.37,4.37,0,0,0-1.42-2.65" transform="translate(-0.1 0.5)"/><path class="cls-8" d="M784.11,89.16a29.4,29.4,0,0,0,19.81-7.37" transform="translate(-0.1 0.5)"/><path class="cls-8" d="M784.14,89.06a32.66,32.66,0,0,0,21.22-7.4" transform="translate(-0.1 0.5)"/><path class="cls-8" d="M805.38,79.08a110.67,110.67,0,0,0,1-14.66" transform="translate(-0.1 0.5)"/><path class="cls-8" d="M806.86,79.26a65.34,65.34,0,0,0,1.59-14.88" transform="translate(-0.1 0.5)"/><path class="cls-8" d="M803.93,81.76a4.32,4.32,0,0,0,1.42-2.66" transform="translate(-0.1 0.5)"/><path class="cls-8" d="M805.34,81.66a4.42,4.42,0,0,0,1.48-2.4" transform="translate(-0.1 0.5)"/><path class="cls-8" d="M776.61,85.45a13.21,13.21,0,0,0,10.86,4.92" transform="translate(-0.1 0.5)"/><path class="cls-8" d="M774.34,82.08a21.09,21.09,0,0,0,2.24,3.46" transform="translate(-0.1 0.5)"/><path class="cls-8" d="M776.58,43.36a21.09,21.09,0,0,0-2.24,3.46" transform="translate(-0.1 0.5)"/><path class="cls-8" d="M774.34,46.86a42.78,42.78,0,0,0-4.29,15.78" transform="translate(-0.1 0.5)"/><path class="cls-8" d="M773.74,57.29a30.41,30.41,0,0,0,0,14.32" transform="translate(-0.1 0.5)"/><path class="cls-8" d="M779.67,84.52a7.83,7.83,0,0,0,6.44,2.69" transform="translate(-0.1 0.5)"/><path class="cls-8" d="M773.83,71.58a28,28,0,0,0,5.94,13" transform="translate(-0.1 0.5)"/><path class="cls-8" d="M786.11,41.69a7.83,7.83,0,0,0-6.44,2.69" transform="translate(-0.1 0.5)"/><path class="cls-8" d="M779.77,44.37a28,28,0,0,0-5.94,13" transform="translate(-0.1 0.5)"/><path class="cls-8" d="M795.2,64.45a3.41,3.41,0,1,0-3.41,3.41,3.41,3.41,0,0,0,3.41-3.41" transform="translate(-0.1 0.5)"/><path class="cls-8" d="M794.19,64.45a2.4,2.4,0,1,0-2.4,2.4,2.4,2.4,0,0,0,2.4-2.4" transform="translate(-0.1 0.5)"/><line class="cls-8" x1="794.49" y1="166.59" x2="760.56" y2="166.59"/><polyline class="cls-8" points="796.53 168.02 809.37 168.02 809.37 131.44"/><line class="cls-8" x1="788.58" y1="149.68" x2="788.58" y2="136.13"/><polyline class="cls-8" points="760.56 166.59 788.58 163.33 788.58 149.68"/><line class="cls-8" x1="760.56" y1="132.87" x2="788.58" y2="136.13"/><line class="cls-8" x1="760.56" y1="165.68" x2="788.58" y2="162.42"/><line class="cls-8" x1="760.56" y1="133.78" x2="788.58" y2="137.04"/><line class="cls-8" x1="794.49" y1="132.87" x2="760.56" y2="132.87"/><line class="cls-8" x1="809.37" y1="131.44" x2="796.53" y2="131.44"/><polyline class="cls-8" points="760.56 166.59 756.79 166.09 753.22 164.66 750.16 162.31 747.62 159.36 745.89 155.69 744.97 151.72 744.97 147.64 745.89 143.77 747.62 140.1 750.16 137.15 753.22 134.8 756.79 133.38 760.56 132.87"/><polyline class="cls-8" points="760.56 165.68 756.99 165.27 753.63 163.84 750.67 161.7 748.33 158.85 746.7 155.38 745.78 151.62 745.78 147.84 746.7 144.07 748.33 140.61 750.67 137.76 753.63 135.62 756.99 134.19 760.56 133.78"/><path class="cls-8" d="M794.65,132.74a154.92,154.92,0,0,0,0,32.79" transform="translate(-0.1 0.5)"/><path class="cls-8" d="M794.5,165.56a2.16,2.16,0,0,0,2.18,1.86" transform="translate(-0.1 0.5)"/><path class="cls-8" d="M796.68,130.94a2.16,2.16,0,0,0-2.18,1.88" transform="translate(-0.1 0.5)"/><path class="cls-8" d="M803.25,149.13a1.78,1.78,0,1,0-1.78,1.78,1.78,1.78,0,0,0,1.78-1.78" transform="translate(-0.1 0.5)"/><line class="cls-8" x1="21.39" y1="249.85" x2="21.39" y2="200.73"/><line class="cls-8" x1="26.89" y1="195.02" x2="146.01" y2="195.02"/><line class="cls-8" x1="26.89" y1="255.65" x2="146.01" y2="255.65"/><line class="cls-8" x1="179.64" y1="189.22" x2="15.99" y2="189.22"/><polyline class="cls-8" points="179.64 189.22 179.64 261.46 15.99 261.46 15.99 189.22"/><line class="cls-8" x1="126.85" y1="245.57" x2="33.62" y2="245.57"/><line class="cls-8" x1="30.87" y1="242.71" x2="30.87" y2="207.86"/><line class="cls-8" x1="126.85" y1="205.01" x2="33.62" y2="205.01"/><line class="cls-8" x1="50.02" y1="227.12" x2="50.02" y2="230.69"/><line class="cls-8" x1="48.39" y1="225.29" x2="45.03" y2="225.29"/><line class="cls-8" x1="50.02" y1="223.56" x2="50.02" y2="219.99"/><line class="cls-8" x1="51.75" y1="225.29" x2="55.12" y2="225.29"/><path class="cls-8" d="M146.16,255.05c15.85,0,28.69-13.57,28.69-30.31S162,194.42,146.16,194.42" transform="translate(-0.1 0.5)"/><path class="cls-8" d="M27,194.42a5.61,5.61,0,0,0-5.45,5.76" transform="translate(-0.1 0.5)"/><path class="cls-8" d="M21.59,249.29A5.61,5.61,0,0,0,27,255.05" transform="translate(-0.1 0.5)"/><path class="cls-8" d="M50.18,221.73a3,3,0,1,0,2.8,3,2.92,2.92,0,0,0-2.8-3" transform="translate(-0.1 0.5)"/><path class="cls-8" d="M127,245.07c10.55,0,19.1-9.11,19.1-20.33s-8.55-20.33-19.1-20.33" transform="translate(-0.1 0.5)"/><path class="cls-8" d="M31.07,242.16a2.81,2.81,0,0,0,2.7,2.91" transform="translate(-0.1 0.5)"/><path class="cls-8" d="M33.77,204.41a2.81,2.81,0,0,0-2.7,2.9" transform="translate(-0.1 0.5)"/><path class="cls-8" d="M50.18,220.71a4,4,0,1,0,3.82,4,3.93,3.93,0,0,0-3.82-4" transform="translate(-0.1 0.5)"/><polyline class="cls-8" points="189.22 48.49 189.22 26.48 137.25 26.48 137.25 48.49"/><line class="cls-8" x1="155.08" y1="26.48" x2="171.49" y2="26.48"/><line class="cls-8" x1="158.85" y1="44.11" x2="161.7" y2="44.11"/><line class="cls-8" x1="163.23" y1="39.73" x2="163.23" y2="42.48"/><line class="cls-8" x1="164.86" y1="44.11" x2="167.61" y2="44.11"/><line class="cls-8" x1="163.23" y1="45.74" x2="163.23" y2="48.49"/><path class="cls-8" d="M186.17,49.31a23.21,23.21,0,0,0-9-11" transform="translate(-0.1 0.5)"/><path class="cls-8" d="M177.28,38.27A23.18,23.18,0,0,0,163.46,35" transform="translate(-0.1 0.5)"/><path class="cls-8" d="M149.59,38.35a23.21,23.21,0,0,0-9,11" transform="translate(-0.1 0.5)"/><path class="cls-8" d="M163.41,35a23.18,23.18,0,0,0-13.82,3.24" transform="translate(-0.1 0.5)"/><path class="cls-8" d="M165.2,65.3A42.73,42.73,0,0,0,181,61" transform="translate(-0.1 0.5)"/><path class="cls-8" d="M137.46,47.89a13.17,13.17,0,0,0,4.93,10.85" transform="translate(-0.1 0.5)"/><path class="cls-8" d="M161.56,65.35a24.71,24.71,0,0,0,3.65,0" transform="translate(-0.1 0.5)"/><path class="cls-8" d="M177.94,39.13a94.65,94.65,0,0,0-29.1,0" transform="translate(-0.1 0.5)"/><path class="cls-8" d="M146.15,30.13a32.66,32.66,0,0,0-7.37,21.23" transform="translate(-0.1 0.5)"/><path class="cls-8" d="M163.37,27a65.86,65.86,0,0,0-14.88,1.61" transform="translate(-0.1 0.5)"/><path class="cls-8" d="M148.57,28.64a4.31,4.31,0,0,0-2.4,1.48" transform="translate(-0.1 0.5)"/><path class="cls-8" d="M163.37,29A110.74,110.74,0,0,0,148.7,30.1" transform="translate(-0.1 0.5)"/><path class="cls-8" d="M146.12,31.46a29.37,29.37,0,0,0-7.34,19.82" transform="translate(-0.1 0.5)"/><path class="cls-8" d="M148.73,30.1a4.33,4.33,0,0,0-2.66,1.43" transform="translate(-0.1 0.5)"/><path class="cls-8" d="M188.09,51.35a29.38,29.38,0,0,0-7.37-19.82" transform="translate(-0.1 0.5)"/><path class="cls-8" d="M188,51.31a32.64,32.64,0,0,0-7.4-21.21" transform="translate(-0.1 0.5)"/><path class="cls-8" d="M178,30.08a110.57,110.57,0,0,0-14.66-1" transform="translate(-0.1 0.5)"/><path class="cls-8" d="M178.29,28.59A64.68,64.68,0,0,0,163.42,27" transform="translate(-0.1 0.5)"/><path class="cls-8" d="M180.69,31.52A4.37,4.37,0,0,0,178,30.1" transform="translate(-0.1 0.5)"/><path class="cls-8" d="M180.69,30a4.28,4.28,0,0,0-2.39-1.48" transform="translate(-0.1 0.5)"/><path class="cls-8" d="M184.48,58.74a13.17,13.17,0,0,0,4.93-10.85" transform="translate(-0.1 0.5)"/><path class="cls-8" d="M181,61.12a20.28,20.28,0,0,0,3.46-2.24" transform="translate(-0.1 0.5)"/><path class="cls-8" d="M142.3,58.88a20.28,20.28,0,0,0,3.46,2.24" transform="translate(-0.1 0.5)"/><path class="cls-8" d="M145.8,61a42.73,42.73,0,0,0,15.77,4.29" transform="translate(-0.1 0.5)"/><path class="cls-8" d="M156.22,61.71a30.41,30.41,0,0,0,14.32,0" transform="translate(-0.1 0.5)"/><path class="cls-8" d="M183.56,55.68a7.79,7.79,0,0,0,2.68-6.44" transform="translate(-0.1 0.5)"/><path class="cls-8" d="M170.52,61.63a28.3,28.3,0,0,0,12.95-5.94" transform="translate(-0.1 0.5)"/><path class="cls-8" d="M140.63,49.24a7.79,7.79,0,0,0,2.68,6.44" transform="translate(-0.1 0.5)"/><path class="cls-8" d="M143.3,55.69a28.3,28.3,0,0,0,12.95,5.94" transform="translate(-0.1 0.5)"/><path class="cls-8" d="M166.8,43.56A3.42,3.42,0,1,0,163.38,47a3.42,3.42,0,0,0,3.42-3.42" transform="translate(-0.1 0.5)"/><path class="cls-8" d="M165.78,43.56a2.4,2.4,0,1,0-2.4,2.4,2.39,2.39,0,0,0,2.4-2.4" transform="translate(-0.1 0.5)"/><polyline class="cls-8" points="807.43 263.3 807.43 210.41 860.32 210.41 860.32 263.3 807.43 263.3"/><polyline class="cls-8" points="855.53 258.51 812.22 258.51 812.22 219.99 855.53 219.99 855.53 258.51"/><line class="cls-8" x1="884.47" y1="0.5" x2="884.47" y2="0.5"/><polyline class="cls-8" points="884.47 0.5 884.47 0.5 884.47 0.5"/><line class="cls-8" x1="179.64" y1="0.5" x2="15.99" y2="0.5"/><polyline class="cls-8" points="0.5 566.65 0.5 643.68 0.5 662.94 15.99 662.94 15.99 643.68 15.99 566.65"/><line class="cls-8" x1="15.99" y1="566.65" x2="15.99" y2="0.5"/><line class="cls-8" x1="0.5" y1="0.5" x2="0.5" y2="566.65"/><polyline class="cls-8" points="306.7 662.94 287.44 662.94 287.44 566.65 306.7 566.65 306.7 662.94"/><polyline class="cls-8" points="306.7 345.22 287.44 345.22 287.44 248.93 306.7 248.93 306.7 345.22"/><polyline class="cls-8" points="884.47 662.94 865.21 662.94 865.21 566.65 884.47 566.65 884.47 662.94"/><polyline class="cls-8" points="884.47 345.22 865.21 345.22 865.21 248.93 884.47 248.93 884.47 345.22"/><polyline class="cls-8" points="393.42 0.5 393.42 19.76 297.13 19.76 297.13 0.5 393.42 0.5"/><polyline class="cls-8" points="576.33 345.22 557.07 345.22 557.07 248.93 576.33 248.93 576.33 345.22"/><polyline class="cls-8" points="576.33 662.94 557.07 662.94 557.07 566.65 576.33 566.65 576.33 662.94"/></svg>