<svg id="_15" data-name="15" xmlns="http://www.w3.org/2000/svg" viewBox="0 0 400.57 781.25"><defs><style>.cls-1{isolation:isolate;font-size:12px;fill:#969696;}.cls-1,.cls-3,.cls-5{font-family:PTSans-Regular, PT Sans;}.cls-10,.cls-11,.cls-2,.cls-4,.cls-6,.cls-7,.cls-8,.cls-9{fill:none;stroke-linecap:round;stroke-linejoin:round;}.cls-2{stroke:#969696;stroke-width:0.75px;}.cls-3{font-size:28px;}.cls-10,.cls-4{stroke:#000;}.cls-4,.cls-6,.cls-7,.cls-8,.cls-9{stroke-width:0.5px;}.cls-5{font-size:24px;}.cls-6,.cls-7,.cls-8,.cls-9{stroke:#7d7d7d;}.cls-7{stroke-dasharray:3.98 3.98;}.cls-8{stroke-dasharray:4.05 4.05;}.cls-9{stroke-dasharray:4 4;}.cls-11{stroke:#356e5f;}</style></defs><title>3floor_15flat</title><text class="cls-1" transform="translate(194.72 10.2)">двор</text><line class="cls-2" x1="183.96" y1="4.22" x2="183.96" y2="13.02"/><polyline class="cls-2" points="187.46 7.72 183.96 4.22 180.46 7.72"/><text class="cls-3" transform="translate(181.43 297.98)">CT</text><text class="cls-3" transform="translate(163.67 334.95)">24.14</text><text class="cls-3" transform="translate(167.61 261.56)">№15</text><polyline class="cls-4" points="151.84 344.3 151.84 235.54 242.54 235.54 242.54 344.3"/><line class="cls-4" x1="151.84" y1="271.86" x2="242.54" y2="271.86"/><line class="cls-4" x1="151.84" y1="344.3" x2="242.54" y2="344.3"/><line class="cls-4" x1="151.84" y1="308.19" x2="242.54" y2="308.19"/><text class="cls-5" transform="translate(168.46 184.38)">13.44</text><text class="cls-5" transform="translate(265.22 633.3)">4.93</text><text class="cls-5" transform="translate(104.2 633.3)">3.57</text><text class="cls-5" transform="translate(104.2 467.4)">2.20</text><line class="cls-6" x1="189.15" y1="511.28" x2="189.15" y2="509.28"/><line class="cls-7" x1="189.15" y1="505.29" x2="189.15" y2="403.72"/><polyline class="cls-6" points="189.15 401.73 189.15 399.73 187.15 399.73"/><line class="cls-8" x1="183.1" y1="399.73" x2="23.08" y2="399.73"/><polyline class="cls-6" points="21.05 399.73 19.05 399.73 19.05 401.73"/><line class="cls-7" x1="19.05" y1="405.71" x2="19.05" y2="507.29"/><polyline class="cls-6" points="19.05 509.28 19.05 511.28 21.05 511.28"/><line class="cls-8" x1="25.1" y1="511.28" x2="185.12" y2="511.28"/><line class="cls-6" x1="187.15" y1="511.28" x2="189.15" y2="511.28"/><line class="cls-9" x1="291.72" y1="518.73" x2="207.7" y2="518.73"/><line class="cls-9" x1="291.72" y1="511.28" x2="207.7" y2="511.28"/><line class="cls-9" x1="189.15" y1="618.18" x2="189.15" y2="684.11"/><line class="cls-9" x1="181.7" y1="618.18" x2="181.7" y2="684.11"/><line class="cls-10" x1="391.1" y1="120.98" x2="394.45" y2="115.05"/><line class="cls-10" x1="396.42" y1="120.98" x2="400.07" y2="114.63"/><line class="cls-10" x1="389.13" y1="120.98" x2="388.82" y2="120.52"/><line class="cls-10" x1="394.45" y1="120.98" x2="391.41" y2="115.73"/><line class="cls-10" x1="399.85" y1="120.98" x2="396.2" y2="114.74"/><line class="cls-10" x1="400.07" y1="114.24" x2="388.44" y2="116.34"/><line class="cls-10" x1="400.07" y1="113.04" x2="388.29" y2="115.43"/><line class="cls-10" x1="284.35" y1="137.55" x2="285.64" y2="136.26"/><line class="cls-10" x1="288.91" y1="132.99" x2="289.29" y2="132.61"/><line class="cls-10" x1="285.56" y1="117.94" x2="286.93" y2="115.5"/><line class="cls-10" x1="286.86" y1="125.01" x2="291.72" y2="116.49"/><line class="cls-10" x1="291.65" y1="125.92" x2="294.31" y2="121.28"/><line class="cls-10" x1="289.82" y1="125.62" x2="285.49" y2="118.09"/><line class="cls-10" x1="293.93" y1="123.34" x2="289.67" y2="116.04"/><line class="cls-10" x1="285.18" y1="115.12" x2="283.28" y2="124.25"/><line class="cls-10" x1="286.93" y1="125.01" x2="284.19" y2="124.4"/><line class="cls-10" x1="284.19" y1="124.4" x2="283.28" y2="124.25"/><line class="cls-10" x1="285.33" y1="114.21" x2="285.18" y2="115.12"/><line class="cls-10" x1="286.93" y1="125.01" x2="286.93" y2="125.01"/><line class="cls-10" x1="293.32" y1="126.3" x2="286.93" y2="125.01"/><line class="cls-10" x1="293.32" y1="126.3" x2="293.32" y2="126.3"/><polyline class="cls-10" points="295.14 117.18 286.1 115.35 284.19 124.4 286.1 115.35"/><line class="cls-10" x1="286.25" y1="114.44" x2="285.33" y2="114.21"/><polyline class="cls-10" points="286.93 125.01 285.79 130.48 282.22 147.74 287.62 148.88"/><line class="cls-10" x1="291.04" y1="115.43" x2="286.25" y2="114.44"/><line class="cls-10" x1="153.79" y1="87.14" x2="285.33" y2="114.21"/><line class="cls-10" x1="153.79" y1="121.36" x2="282.22" y2="147.74"/><polyline class="cls-10" points="153.79 103.26 158.81 104.33 159.57 100.68 161.85 101.13 162.23 99.31 154.93 97.86 153.79 97.64"/><polyline class="cls-10" points="232.34 113.75 228.69 113 228.31 114.82 230.59 115.28 229.83 118.93 231.2 119.23"/><line class="cls-10" x1="228.69" y1="112.99" x2="162.23" y2="99.31"/><polyline class="cls-10" points="158.43 106.15 163.9 107.29 223.97 119.61"/><polyline class="cls-10" points="163.9 107.29 165.04 101.82 159.57 100.68 158.43 106.15"/><polyline class="cls-10" points="230.59 115.28 225.11 114.14 223.97 119.61 229.45 120.75 230.59 115.28"/><line class="cls-10" x1="225.11" y1="114.14" x2="165.04" y2="101.82"/><line class="cls-10" x1="163.9" y1="107.29" x2="223.97" y2="119.61"/><line class="cls-10" x1="164.44" y1="104.55" x2="224.58" y2="116.87"/><line class="cls-10" x1="154.93" y1="97.86" x2="153.79" y2="103.26"/><polyline class="cls-10" points="231.2 119.23 232.56 119.53 233.33 115.88 235.61 116.34 235.91 114.52 232.34 113.75"/><polyline class="cls-10" points="286.93 125.01 279.63 123.49 279.25 125.31 281.53 125.77 280.77 129.42 285.79 130.48"/><line class="cls-10" x1="279.63" y1="123.49" x2="235.91" y2="114.52"/><polyline class="cls-10" points="232.19 121.28 237.66 122.42 274.92 130.1"/><polyline class="cls-10" points="237.66 122.42 238.72 116.95 233.33 115.88 232.19 121.28"/><polyline class="cls-10" points="281.53 125.77 276.06 124.63 274.92 130.1 280.39 131.24 281.53 125.77"/><line class="cls-10" x1="276.06" y1="124.63" x2="238.72" y2="116.95"/><line class="cls-10" x1="237.66" y1="122.42" x2="274.92" y2="130.1"/><line class="cls-10" x1="238.19" y1="119.69" x2="275.53" y2="127.37"/><polyline class="cls-10" points="282.22 147.74 285.79 130.48 286.93 125.01 285.79 130.48"/><line class="cls-10" x1="285.33" y1="114.21" x2="285.18" y2="115.12"/><polyline class="cls-10" points="283.28 124.25 284.19 124.4 283.28 124.25"/><polyline class="cls-10" points="284.19 124.4 286.93 125.01 284.19 124.4"/><line class="cls-10" x1="285.18" y1="115.12" x2="283.28" y2="124.25"/><line class="cls-11" x1="65.51" y1="106" x2="65.51" y2="106"/><line class="cls-11" x1="33.2" y1="112.69" x2="33.2" y2="112.69"/><line class="cls-10" x1="18.22" y1="116.34" x2="18.37" y2="115.96"/><line class="cls-10" x1="23.54" y1="116.34" x2="24.45" y2="114.74"/><line class="cls-10" x1="28.94" y1="116.34" x2="30.53" y2="113.45"/><line class="cls-10" x1="34.26" y1="116.34" x2="36.62" y2="112.23"/><line class="cls-10" x1="39.66" y1="116.34" x2="42.78" y2="110.94"/><line class="cls-10" x1="44.98" y1="116.34" x2="48.86" y2="109.73"/><line class="cls-10" x1="50.38" y1="116.34" x2="54.94" y2="108.43"/><line class="cls-10" x1="55.78" y1="116.34" x2="61.03" y2="107.22"/><line class="cls-10" x1="61.1" y1="116.34" x2="63.61" y2="112.01"/><line class="cls-10" x1="21.56" y1="116.34" x2="21.03" y2="115.43"/><line class="cls-10" x1="26.96" y1="116.34" x2="25.82" y2="114.44"/><line class="cls-10" x1="32.28" y1="116.34" x2="30.61" y2="113.45"/><line class="cls-10" x1="37.68" y1="116.34" x2="35.4" y2="112.46"/><line class="cls-10" x1="43" y1="116.34" x2="40.27" y2="111.47"/><line class="cls-10" x1="48.4" y1="116.34" x2="45.06" y2="110.49"/><line class="cls-10" x1="53.73" y1="116.34" x2="49.85" y2="109.5"/><line class="cls-10" x1="59.12" y1="116.34" x2="54.64" y2="108.51"/><line class="cls-10" x1="64.3" y1="116.04" x2="59.43" y2="107.52"/><line class="cls-10" x1="33.42" y1="125.62" x2="35.93" y2="123.11"/><line class="cls-10" x1="59.73" y1="125.62" x2="62.24" y2="123.11"/><line class="cls-10" x1="65.51" y1="119.84" x2="70.61" y2="114.74"/><line class="cls-10" x1="20.27" y1="125.62" x2="20.95" y2="124.93"/><line class="cls-10" x1="46.58" y1="125.62" x2="49.09" y2="123.11"/><line class="cls-10" x1="52.36" y1="119.84" x2="54.03" y2="118.17"/><line class="cls-10" x1="72.81" y1="125.62" x2="72.96" y2="125.46"/><line class="cls-10" x1="63.61" y1="112.01" x2="67.11" y2="105.92"/><line class="cls-10" x1="66.96" y1="115.5" x2="71.97" y2="106.76"/><line class="cls-10" x1="73.04" y1="114.21" x2="73.42" y2="113.6"/><line class="cls-10" x1="69.09" y1="115.05" x2="64.22" y2="106.53"/><line class="cls-10" x1="73.27" y1="112.92" x2="69.01" y2="105.54"/><polyline class="cls-10" points="16.7 116.34 21.18 115.43 62.55 106.91"/><polyline class="cls-10" points="17.61 125.62 62.77 116.34 64.37 116.04"/><line class="cls-10" x1="72.51" y1="104.86" x2="74.41" y2="113.91"/><line class="cls-10" x1="70.76" y1="114.67" x2="73.5" y2="114.14"/><line class="cls-10" x1="73.5" y1="114.14" x2="74.41" y2="113.91"/><line class="cls-10" x1="72.36" y1="103.95" x2="72.51" y2="104.86"/><line class="cls-10" x1="70.76" y1="114.67" x2="70.76" y2="114.67"/><line class="cls-10" x1="64.37" y1="116.04" x2="70.76" y2="114.67"/><line class="cls-10" x1="64.37" y1="116.04" x2="64.37" y2="116.04"/><polyline class="cls-10" points="62.55 106.91 71.59 105.01 73.5 114.14 71.59 105.01"/><line class="cls-10" x1="71.44" y1="104.1" x2="72.36" y2="103.95"/><polyline class="cls-10" points="70.76 114.67 71.9 120.14 75.47 137.48 20.04 148.88"/><line class="cls-10" x1="71.44" y1="104.1" x2="16.62" y2="115.43"/><line class="cls-10" x1="153.79" y1="87.14" x2="72.36" y2="103.95"/><line class="cls-10" x1="153.79" y1="121.36" x2="75.47" y2="137.48"/><polyline class="cls-10" points="153.79 103.26 148.77 104.33 148.09 100.68 145.81 101.13 145.43 99.31 152.73 97.86 153.79 97.64"/><polyline class="cls-10" points="70.76 114.67 78.06 113.22 78.44 115.05 76.16 115.5 76.92 119.15 71.9 120.14"/><line class="cls-10" x1="78.06" y1="113.22" x2="145.43" y2="99.31"/><polyline class="cls-10" points="149.15 106.15 143.75 107.29 82.77 119.84"/><polyline class="cls-10" points="143.75 107.29 142.61 101.82 148.09 100.68 149.15 106.15"/><polyline class="cls-10" points="76.16 115.5 81.63 114.36 82.77 119.84 77.3 120.98 76.16 115.5"/><line class="cls-10" x1="81.63" y1="114.36" x2="142.61" y2="101.82"/><line class="cls-10" x1="143.75" y1="107.29" x2="82.77" y2="119.84"/><line class="cls-10" x1="143.15" y1="104.55" x2="82.16" y2="117.1"/><line class="cls-10" x1="152.73" y1="97.86" x2="153.79" y2="103.26"/><polyline class="cls-10" points="75.47 137.48 71.9 120.14 70.76 114.67 71.9 120.14"/><line class="cls-10" x1="72.36" y1="103.95" x2="72.51" y2="104.86"/><polyline class="cls-10" points="74.41 113.91 73.5 114.14 74.41 113.91"/><polyline class="cls-10" points="73.5 114.14 70.76 114.67 73.5 114.14"/><line class="cls-10" x1="72.51" y1="104.86" x2="74.41" y2="113.91"/><line class="cls-11" x1="0.5" y1="116.04" x2="0.5" y2="116.04"/><line class="cls-10" x1="2.1" y1="125.62" x2="7.42" y2="116.34"/><line class="cls-10" x1="7.42" y1="125.62" x2="12.82" y2="116.34"/><line class="cls-10" x1="12.82" y1="125.62" x2="16.92" y2="118.55"/><line class="cls-10" x1="5.44" y1="125.62" x2="0.5" y2="116.34"/><line class="cls-10" x1="10.84" y1="125.62" x2="5.44" y2="116.34"/><line class="cls-10" x1="16.16" y1="125.62" x2="10.84" y2="116.34"/><line class="cls-10" x1="16.77" y1="117.4" x2="16.16" y2="116.34"/><line class="cls-10" x1="19.05" y1="139.99" x2="19.13" y2="139.91"/><line class="cls-10" x1="16.7" y1="116.34" x2="0.5" y2="116.34"/><line class="cls-10" x1="19.05" y1="148.88" x2="20.04" y2="148.88"/><line class="cls-10" x1="16.62" y1="115.43" x2="0.5" y2="115.43"/><line class="cls-10" x1="16.92" y1="118.55" x2="18.22" y2="116.34"/><line class="cls-10" x1="18.29" y1="125.46" x2="23.54" y2="116.34"/><line class="cls-10" x1="24.38" y1="124.25" x2="28.94" y2="116.34"/><line class="cls-10" x1="30.46" y1="122.96" x2="34.26" y2="116.34"/><line class="cls-10" x1="36.54" y1="121.74" x2="39.66" y2="116.34"/><line class="cls-10" x1="42.62" y1="120.45" x2="44.98" y2="116.34"/><line class="cls-10" x1="48.71" y1="119.23" x2="50.38" y2="116.34"/><line class="cls-10" x1="54.79" y1="118.01" x2="55.78" y2="116.34"/><line class="cls-10" x1="60.87" y1="116.72" x2="61.1" y2="116.34"/><line class="cls-10" x1="21.18" y1="124.93" x2="16.77" y2="117.4"/><line class="cls-10" x1="25.97" y1="123.94" x2="21.56" y2="116.34"/><line class="cls-10" x1="30.76" y1="122.96" x2="26.96" y2="116.34"/><line class="cls-10" x1="35.55" y1="121.97" x2="32.28" y2="116.34"/><line class="cls-10" x1="40.34" y1="120.98" x2="37.68" y2="116.34"/><line class="cls-10" x1="45.13" y1="119.99" x2="43" y2="116.34"/><line class="cls-10" x1="49.92" y1="119" x2="48.4" y2="116.34"/><line class="cls-10" x1="54.71" y1="118.01" x2="53.73" y2="116.34"/><line class="cls-10" x1="59.5" y1="117.02" x2="59.12" y2="116.34"/><line class="cls-10" x1="19.13" y1="139.91" x2="22.78" y2="136.26"/><line class="cls-10" x1="26.05" y1="132.99" x2="33.42" y2="125.62"/><line class="cls-10" x1="40.72" y1="144.63" x2="49.09" y2="136.26"/><line class="cls-10" x1="52.36" y1="132.99" x2="59.73" y2="125.62"/><line class="cls-10" x1="73.8" y1="137.78" x2="75.24" y2="136.41"/><line class="cls-10" x1="19.05" y1="126.83" x2="20.27" y2="125.62"/><line class="cls-10" x1="26.05" y1="146.15" x2="35.93" y2="136.26"/><line class="cls-10" x1="39.2" y1="132.99" x2="46.58" y2="125.62"/><line class="cls-10" x1="57.3" y1="141.2" x2="62.24" y2="136.26"/><line class="cls-10" x1="65.51" y1="132.99" x2="72.81" y2="125.62"/><line class="cls-10" x1="16.7" y1="116.34" x2="21.18" y2="115.43"/><line class="cls-10" x1="17.61" y1="125.62" x2="62.77" y2="116.34"/><line class="cls-11" x1="299.17" y1="115.88" x2="299.17" y2="115.88"/><line class="cls-11" x1="338.1" y1="115.96" x2="338.1" y2="115.96"/><line class="cls-11" x1="384.87" y1="115.88" x2="384.87" y2="115.88"/><line class="cls-10" x1="290.73" y1="118.17" x2="291.8" y2="116.34"/><line class="cls-10" x1="291.8" y1="125.62" x2="297.2" y2="116.34"/><line class="cls-10" x1="297.2" y1="125.62" x2="302.52" y2="116.34"/><line class="cls-10" x1="302.52" y1="125.62" x2="307.92" y2="116.34"/><line class="cls-10" x1="307.92" y1="125.62" x2="313.32" y2="116.34"/><line class="cls-10" x1="313.32" y1="125.62" x2="318.64" y2="116.34"/><line class="cls-10" x1="318.64" y1="125.62" x2="324.04" y2="116.34"/><line class="cls-10" x1="324.04" y1="125.62" x2="329.36" y2="116.34"/><line class="cls-10" x1="329.36" y1="125.62" x2="334.76" y2="116.34"/><line class="cls-10" x1="334.76" y1="125.62" x2="340.08" y2="116.34"/><line class="cls-10" x1="340.08" y1="125.62" x2="345.48" y2="116.34"/><line class="cls-10" x1="345.48" y1="125.62" x2="350.8" y2="116.34"/><line class="cls-10" x1="350.8" y1="125.62" x2="356.2" y2="116.34"/><line class="cls-10" x1="356.2" y1="125.62" x2="361.6" y2="116.34"/><line class="cls-10" x1="361.6" y1="125.62" x2="366.92" y2="116.34"/><line class="cls-10" x1="366.92" y1="125.62" x2="372.32" y2="116.34"/><line class="cls-10" x1="372.32" y1="125.62" x2="377.64" y2="116.34"/><line class="cls-10" x1="377.64" y1="125.62" x2="383.04" y2="116.34"/><line class="cls-10" x1="385.7" y1="120.98" x2="388.36" y2="116.34"/><line class="cls-10" x1="295.22" y1="125.62" x2="290.73" y2="117.94"/><line class="cls-10" x1="300.54" y1="125.62" x2="295.22" y2="116.34"/><line class="cls-10" x1="305.94" y1="125.62" x2="300.54" y2="116.34"/><line class="cls-10" x1="311.26" y1="125.62" x2="305.94" y2="116.34"/><line class="cls-10" x1="316.66" y1="125.62" x2="311.26" y2="116.34"/><line class="cls-10" x1="322.06" y1="125.62" x2="316.66" y2="116.34"/><line class="cls-10" x1="327.38" y1="125.62" x2="322.06" y2="116.34"/><line class="cls-10" x1="332.78" y1="125.62" x2="327.38" y2="116.34"/><line class="cls-10" x1="338.1" y1="125.62" x2="332.78" y2="116.34"/><line class="cls-10" x1="343.5" y1="125.62" x2="338.1" y2="116.34"/><line class="cls-10" x1="348.83" y1="125.62" x2="343.5" y2="116.34"/><line class="cls-10" x1="354.22" y1="125.62" x2="348.83" y2="116.34"/><line class="cls-10" x1="359.55" y1="125.62" x2="354.22" y2="116.34"/><line class="cls-10" x1="364.95" y1="125.62" x2="359.55" y2="116.34"/><line class="cls-10" x1="370.34" y1="125.62" x2="364.95" y2="116.34"/><line class="cls-10" x1="375.67" y1="125.62" x2="370.34" y2="116.34"/><line class="cls-10" x1="381.07" y1="125.62" x2="375.67" y2="116.34"/><line class="cls-10" x1="383.73" y1="120.98" x2="381.07" y2="116.34"/><line class="cls-10" x1="388.82" y1="120.52" x2="386.39" y2="116.34"/><line class="cls-10" x1="289.29" y1="132.61" x2="296.28" y2="125.62"/><line class="cls-10" x1="302.06" y1="146.15" x2="311.95" y2="136.26"/><line class="cls-10" x1="315.22" y1="132.99" x2="322.52" y2="125.62"/><line class="cls-10" x1="328.37" y1="146.15" x2="338.18" y2="136.26"/><line class="cls-10" x1="341.53" y1="132.99" x2="348.83" y2="125.62"/><line class="cls-10" x1="354.6" y1="146.15" x2="364.49" y2="136.26"/><line class="cls-10" x1="367.76" y1="132.99" x2="375.13" y2="125.62"/><line class="cls-10" x1="380.91" y1="146.15" x2="381.52" y2="145.54"/><line class="cls-10" x1="288.91" y1="146.15" x2="298.79" y2="136.26"/><line class="cls-10" x1="302.06" y1="132.99" x2="309.44" y2="125.62"/><line class="cls-10" x1="315.22" y1="146.15" x2="325.03" y2="136.26"/><line class="cls-10" x1="328.37" y1="132.99" x2="335.67" y2="125.62"/><line class="cls-10" x1="341.53" y1="146.15" x2="351.33" y2="136.26"/><line class="cls-10" x1="354.6" y1="132.99" x2="361.98" y2="125.62"/><line class="cls-10" x1="367.76" y1="146.15" x2="377.64" y2="136.26"/><line class="cls-10" x1="380.91" y1="132.99" x2="381.52" y2="132.38"/><line class="cls-10" x1="388.44" y1="116.34" x2="290.96" y2="116.34"/><line class="cls-10" x1="381.52" y1="125.62" x2="289.97" y2="125.62"/><line class="cls-10" x1="287.62" y1="148.88" x2="381.52" y2="148.88"/><line class="cls-10" x1="388.29" y1="115.43" x2="291.04" y2="115.43"/><line class="cls-10" x1="390.8" y1="760.53" x2="383.35" y2="753.15"/><line class="cls-10" x1="400.07" y1="743.57" x2="396.5" y2="740"/><line class="cls-10" x1="394.07" y1="737.49" x2="386.69" y2="730.11"/><line class="cls-10" x1="384.18" y1="727.68" x2="381.52" y2="724.94"/><line class="cls-10" x1="400.07" y1="717.26" x2="399.77" y2="716.96"/><line class="cls-10" x1="397.34" y1="714.52" x2="389.96" y2="707.15"/><line class="cls-10" x1="387.45" y1="704.64" x2="381.52" y2="698.71"/><line class="cls-10" x1="400.07" y1="690.95" x2="393.23" y2="684.11"/><line class="cls-10" x1="390.8" y1="681.68" x2="383.35" y2="674.3"/><line class="cls-10" x1="400.07" y1="664.72" x2="396.5" y2="661.15"/><line class="cls-10" x1="394.07" y1="658.64" x2="386.69" y2="651.26"/><line class="cls-10" x1="384.18" y1="648.83" x2="381.52" y2="646.09"/><line class="cls-10" x1="400.07" y1="638.41" x2="399.77" y2="638.11"/><line class="cls-10" x1="397.34" y1="635.67" x2="389.96" y2="628.3"/><line class="cls-10" x1="387.45" y1="625.79" x2="381.52" y2="619.78"/><line class="cls-10" x1="400.07" y1="612.1" x2="393.23" y2="605.26"/><line class="cls-10" x1="390.8" y1="602.83" x2="383.35" y2="595.45"/><line class="cls-10" x1="400.07" y1="585.87" x2="396.5" y2="582.3"/><line class="cls-10" x1="394.07" y1="579.79" x2="386.69" y2="572.41"/><line class="cls-10" x1="384.18" y1="569.98" x2="381.52" y2="567.24"/><line class="cls-10" x1="400.07" y1="559.56" x2="399.77" y2="559.26"/><line class="cls-10" x1="397.34" y1="556.82" x2="389.96" y2="549.45"/><line class="cls-10" x1="387.45" y1="546.94" x2="381.52" y2="540.93"/><line class="cls-10" x1="400.07" y1="533.25" x2="396.65" y2="529.91"/><line class="cls-10" x1="400.07" y1="756.65" x2="394.9" y2="751.48"/><line class="cls-10" x1="392.4" y1="749.04" x2="385.02" y2="741.59"/><line class="cls-10" x1="382.59" y1="739.16" x2="381.52" y2="738.1"/><line class="cls-10" x1="400.07" y1="730.42" x2="398.17" y2="728.51"/><line class="cls-10" x1="395.66" y1="726.01" x2="388.29" y2="718.63"/><line class="cls-10" x1="385.86" y1="716.2" x2="381.52" y2="711.79"/><line class="cls-10" x1="399.01" y1="703.04" x2="391.56" y2="695.67"/><line class="cls-10" x1="389.13" y1="693.16" x2="381.75" y2="685.78"/><line class="cls-10" x1="400.07" y1="677.8" x2="394.9" y2="672.63"/><line class="cls-10" x1="392.4" y1="670.19" x2="385.02" y2="662.74"/><line class="cls-10" x1="382.59" y1="660.31" x2="381.52" y2="659.24"/><line class="cls-10" x1="400.07" y1="651.56" x2="398.17" y2="649.66"/><line class="cls-10" x1="395.66" y1="647.15" x2="388.29" y2="639.78"/><line class="cls-10" x1="385.86" y1="637.35" x2="381.52" y2="632.94"/><line class="cls-10" x1="399.01" y1="624.19" x2="391.56" y2="616.74"/><line class="cls-10" x1="389.13" y1="614.31" x2="381.75" y2="606.93"/><line class="cls-10" x1="400.07" y1="598.95" x2="394.9" y2="593.78"/><line class="cls-10" x1="392.4" y1="591.34" x2="385.02" y2="583.89"/><line class="cls-10" x1="382.59" y1="581.46" x2="381.52" y2="580.39"/><line class="cls-10" x1="400.07" y1="572.71" x2="398.17" y2="570.81"/><line class="cls-10" x1="395.66" y1="568.3" x2="388.29" y2="560.93"/><line class="cls-10" x1="385.86" y1="558.42" x2="381.52" y2="554.09"/><line class="cls-10" x1="399.01" y1="545.34" x2="391.56" y2="537.89"/><line class="cls-10" x1="389.13" y1="535.46" x2="383.57" y2="529.91"/><line class="cls-10" x1="400.07" y1="428.09" x2="396.5" y2="424.59"/><line class="cls-10" x1="394.07" y1="422.09" x2="386.69" y2="414.71"/><line class="cls-10" x1="384.18" y1="412.28" x2="381.52" y2="409.54"/><line class="cls-10" x1="400.07" y1="401.86" x2="399.77" y2="401.56"/><line class="cls-10" x1="397.34" y1="399.12" x2="389.96" y2="391.75"/><line class="cls-10" x1="387.45" y1="389.24" x2="381.52" y2="383.23"/><line class="cls-10" x1="400.07" y1="375.55" x2="393.23" y2="368.71"/><line class="cls-10" x1="390.8" y1="366.27" x2="383.35" y2="358.82"/><line class="cls-10" x1="400.07" y1="349.24" x2="396.5" y2="345.74"/><line class="cls-10" x1="394.07" y1="343.23" x2="386.69" y2="335.86"/><line class="cls-10" x1="384.18" y1="333.43" x2="381.52" y2="330.69"/><line class="cls-10" x1="400.07" y1="323.01" x2="399.77" y2="322.7"/><line class="cls-10" x1="397.34" y1="320.27" x2="389.96" y2="312.82"/><line class="cls-10" x1="387.45" y1="310.39" x2="381.52" y2="304.38"/><line class="cls-10" x1="400.07" y1="296.7" x2="393.23" y2="289.86"/><line class="cls-10" x1="390.8" y1="287.42" x2="383.35" y2="279.97"/><line class="cls-10" x1="400.07" y1="270.39" x2="396.5" y2="266.89"/><line class="cls-10" x1="394.07" y1="264.38" x2="386.69" y2="257.01"/><line class="cls-10" x1="384.18" y1="254.5" x2="381.52" y2="251.84"/><line class="cls-10" x1="400.07" y1="244.16" x2="399.77" y2="243.85"/><line class="cls-10" x1="397.34" y1="241.42" x2="389.96" y2="233.97"/><line class="cls-10" x1="387.45" y1="231.54" x2="381.52" y2="225.53"/><line class="cls-10" x1="395.74" y1="436.91" x2="394.9" y2="436.08"/><line class="cls-10" x1="392.4" y1="433.57" x2="385.02" y2="426.19"/><line class="cls-10" x1="382.59" y1="423.76" x2="381.52" y2="422.69"/><line class="cls-10" x1="400.07" y1="415.01" x2="398.17" y2="413.04"/><line class="cls-10" x1="395.66" y1="410.6" x2="388.29" y2="403.23"/><line class="cls-10" x1="385.86" y1="400.72" x2="381.52" y2="396.38"/><line class="cls-10" x1="399.01" y1="387.64" x2="391.56" y2="380.19"/><line class="cls-10" x1="389.13" y1="377.76" x2="381.75" y2="370.38"/><line class="cls-10" x1="400.07" y1="362.4" x2="394.9" y2="357.23"/><line class="cls-10" x1="392.4" y1="354.72" x2="385.02" y2="347.34"/><line class="cls-10" x1="382.59" y1="344.91" x2="381.52" y2="343.84"/><line class="cls-10" x1="400.07" y1="336.16" x2="398.17" y2="334.19"/><line class="cls-10" x1="395.66" y1="331.75" x2="388.29" y2="324.38"/><line class="cls-10" x1="385.86" y1="321.87" x2="381.52" y2="317.53"/><line class="cls-10" x1="399.01" y1="308.71" x2="391.56" y2="301.34"/><line class="cls-10" x1="389.13" y1="298.91" x2="381.75" y2="291.53"/><line class="cls-10" x1="400.07" y1="283.55" x2="394.9" y2="278.38"/><line class="cls-10" x1="392.4" y1="275.87" x2="385.02" y2="268.49"/><line class="cls-10" x1="382.59" y1="266.06" x2="381.52" y2="264.99"/><line class="cls-10" x1="400.07" y1="257.24" x2="398.17" y2="255.34"/><line class="cls-10" x1="395.66" y1="252.9" x2="388.29" y2="245.53"/><line class="cls-10" x1="385.86" y1="243.02" x2="381.52" y2="238.68"/><line class="cls-10" x1="399.01" y1="229.86" x2="392.32" y2="223.17"/><line class="cls-10" x1="400.07" y1="780.75" x2="400.07" y2="529.91"/><line class="cls-10" x1="400.07" y1="436.91" x2="400.07" y2="223.17"/><line class="cls-10" x1="381.52" y1="223.17" x2="381.52" y2="436.91"/><line class="cls-10" x1="381.52" y1="529.91" x2="381.52" y2="706.46"/><line class="cls-10" x1="381.52" y1="725.02" x2="381.52" y2="762.2"/><line class="cls-10" x1="19.05" y1="756.8" x2="12.13" y2="749.8"/><line class="cls-10" x1="9.62" y1="747.37" x2="2.25" y2="740"/><line class="cls-10" x1="19.05" y1="730.49" x2="15.4" y2="726.84"/><line class="cls-10" x1="12.89" y1="724.41" x2="5.52" y2="716.96"/><line class="cls-10" x1="3.09" y1="714.52" x2="0.5" y2="711.94"/><line class="cls-10" x1="19.05" y1="704.26" x2="18.67" y2="703.88"/><line class="cls-10" x1="16.24" y1="701.37" x2="8.79" y2="693.99"/><line class="cls-10" x1="6.35" y1="691.48" x2="0.5" y2="685.63"/><line class="cls-10" x1="19.05" y1="677.95" x2="12.13" y2="670.95"/><line class="cls-10" x1="9.62" y1="668.52" x2="2.25" y2="661.15"/><line class="cls-10" x1="19.05" y1="651.64" x2="15.4" y2="647.99"/><line class="cls-10" x1="12.89" y1="645.56" x2="5.52" y2="638.11"/><line class="cls-10" x1="3.09" y1="635.67" x2="0.5" y2="633.09"/><line class="cls-10" x1="19.05" y1="625.41" x2="18.67" y2="624.95"/><line class="cls-10" x1="16.24" y1="622.52" x2="8.79" y2="615.14"/><line class="cls-10" x1="6.35" y1="612.63" x2="0.5" y2="606.78"/><line class="cls-10" x1="19.05" y1="599.1" x2="12.13" y2="592.1"/><line class="cls-10" x1="9.62" y1="589.67" x2="2.25" y2="582.3"/><line class="cls-10" x1="19.05" y1="572.79" x2="15.4" y2="569.14"/><line class="cls-10" x1="12.89" y1="566.63" x2="5.52" y2="559.26"/><line class="cls-10" x1="3.09" y1="556.82" x2="0.5" y2="554.24"/><line class="cls-10" x1="19.05" y1="546.48" x2="18.67" y2="546.1"/><line class="cls-10" x1="16.24" y1="543.67" x2="8.79" y2="536.29"/><line class="cls-10" x1="6.35" y1="533.78" x2="2.4" y2="529.91"/><line class="cls-10" x1="11.3" y1="762.2" x2="10.46" y2="761.36"/><line class="cls-10" x1="8.03" y1="758.85" x2="0.58" y2="751.48"/><line class="cls-10" x1="19.05" y1="743.65" x2="13.73" y2="738.32"/><line class="cls-10" x1="11.3" y1="735.89" x2="3.92" y2="728.51"/><line class="cls-10" x1="1.41" y1="726.01" x2="0.5" y2="725.09"/><line class="cls-10" x1="19.05" y1="717.34" x2="17" y2="715.36"/><line class="cls-10" x1="14.57" y1="712.85" x2="7.19" y2="705.48"/><line class="cls-10" x1="4.68" y1="703.04" x2="0.5" y2="698.78"/><line class="cls-10" x1="17.84" y1="689.89" x2="10.46" y2="682.51"/><line class="cls-10" x1="8.03" y1="680" x2="0.58" y2="672.63"/><line class="cls-10" x1="19.05" y1="664.8" x2="13.73" y2="659.47"/><line class="cls-10" x1="11.3" y1="657.04" x2="3.92" y2="649.66"/><line class="cls-10" x1="1.41" y1="647.15" x2="0.5" y2="646.24"/><line class="cls-10" x1="19.05" y1="638.49" x2="17" y2="636.51"/><line class="cls-10" x1="14.57" y1="634" x2="7.19" y2="626.62"/><line class="cls-10" x1="4.68" y1="624.19" x2="0.5" y2="619.93"/><line class="cls-10" x1="17.84" y1="611.04" x2="10.46" y2="603.66"/><line class="cls-10" x1="8.03" y1="601.15" x2="0.58" y2="593.78"/><line class="cls-10" x1="19.05" y1="585.95" x2="13.73" y2="580.62"/><line class="cls-10" x1="11.3" y1="578.19" x2="3.92" y2="570.81"/><line class="cls-10" x1="1.41" y1="568.3" x2="0.5" y2="567.39"/><line class="cls-10" x1="19.05" y1="559.64" x2="17" y2="557.66"/><line class="cls-10" x1="14.57" y1="555.15" x2="7.19" y2="547.77"/><line class="cls-10" x1="4.68" y1="545.34" x2="0.5" y2="541.08"/><line class="cls-10" x1="17.84" y1="532.19" x2="15.56" y2="529.91"/><line class="cls-10" x1="14.64" y1="436.91" x2="12.13" y2="434.4"/><line class="cls-10" x1="9.62" y1="431.97" x2="2.25" y2="424.59"/><line class="cls-10" x1="19.05" y1="415.09" x2="15.4" y2="411.44"/><line class="cls-10" x1="12.89" y1="408.93" x2="5.52" y2="401.56"/><line class="cls-10" x1="3.09" y1="399.12" x2="0.5" y2="396.54"/><line class="cls-10" x1="19.05" y1="388.78" x2="18.67" y2="388.4"/><line class="cls-10" x1="16.24" y1="385.97" x2="8.79" y2="378.59"/><line class="cls-10" x1="6.35" y1="376.08" x2="0.5" y2="370.23"/><line class="cls-10" x1="19.05" y1="362.55" x2="12.13" y2="355.55"/><line class="cls-10" x1="9.62" y1="353.12" x2="2.25" y2="345.74"/><line class="cls-10" x1="19.05" y1="336.24" x2="15.4" y2="332.59"/><line class="cls-10" x1="12.89" y1="330.08" x2="5.52" y2="322.7"/><line class="cls-10" x1="3.09" y1="320.27" x2="0.5" y2="317.69"/><line class="cls-10" x1="19.05" y1="309.93" x2="18.67" y2="309.55"/><line class="cls-10" x1="16.24" y1="307.12" x2="8.79" y2="299.74"/><line class="cls-10" x1="6.35" y1="297.23" x2="0.5" y2="291.38"/><line class="cls-10" x1="19.05" y1="283.7" x2="12.13" y2="276.7"/><line class="cls-10" x1="9.62" y1="274.27" x2="2.25" y2="266.89"/><line class="cls-10" x1="19.05" y1="257.39" x2="15.4" y2="253.74"/><line class="cls-10" x1="12.89" y1="251.23" x2="5.52" y2="243.85"/><line class="cls-10" x1="3.09" y1="241.42" x2="0.5" y2="238.84"/><line class="cls-10" x1="19.05" y1="231.08" x2="18.67" y2="230.7"/><line class="cls-10" x1="16.24" y1="228.27" x2="11.15" y2="223.17"/><line class="cls-10" x1="1.49" y1="436.91" x2="0.58" y2="436.08"/><line class="cls-10" x1="19.05" y1="428.24" x2="13.73" y2="422.92"/><line class="cls-10" x1="11.3" y1="420.49" x2="3.92" y2="413.04"/><line class="cls-10" x1="1.41" y1="410.6" x2="0.5" y2="409.62"/><line class="cls-10" x1="19.05" y1="401.94" x2="17" y2="399.96"/><line class="cls-10" x1="14.57" y1="397.45" x2="7.19" y2="390.07"/><line class="cls-10" x1="4.68" y1="387.64" x2="0.5" y2="383.38"/><line class="cls-10" x1="17.84" y1="374.49" x2="10.46" y2="367.03"/><line class="cls-10" x1="8.03" y1="364.6" x2="0.58" y2="357.23"/><line class="cls-10" x1="19.05" y1="349.39" x2="13.73" y2="344.07"/><line class="cls-10" x1="11.3" y1="341.64" x2="3.92" y2="334.19"/><line class="cls-10" x1="1.41" y1="331.75" x2="0.5" y2="330.76"/><line class="cls-10" x1="19.05" y1="323.08" x2="17" y2="321.11"/><line class="cls-10" x1="14.57" y1="318.6" x2="7.19" y2="311.22"/><line class="cls-10" x1="4.68" y1="308.71" x2="0.5" y2="304.53"/><line class="cls-10" x1="17.84" y1="295.64" x2="10.46" y2="288.18"/><line class="cls-10" x1="8.03" y1="285.75" x2="0.58" y2="278.38"/><line class="cls-10" x1="19.05" y1="270.54" x2="13.73" y2="265.22"/><line class="cls-10" x1="11.3" y1="262.79" x2="3.92" y2="255.34"/><line class="cls-10" x1="1.41" y1="252.9" x2="0.5" y2="251.91"/><line class="cls-10" x1="19.05" y1="244.23" x2="17" y2="242.18"/><line class="cls-10" x1="14.57" y1="239.75" x2="7.19" y2="232.37"/><line class="cls-10" x1="4.68" y1="229.86" x2="0.5" y2="225.68"/><line class="cls-10" x1="19.05" y1="762.2" x2="19.05" y2="529.91"/><line class="cls-10" x1="19.05" y1="436.91" x2="19.05" y2="223.17"/><line class="cls-10" x1="0.5" y1="223.17" x2="0.5" y2="436.91"/><line class="cls-10" x1="0.5" y1="529.91" x2="0.5" y2="762.2"/><line class="cls-10" x1="95.09" y1="780.22" x2="93.42" y2="778.55"/><line class="cls-10" x1="121.93" y1="780.75" x2="120.56" y2="779.38"/><line class="cls-10" x1="118.05" y1="776.95" x2="110.68" y2="769.57"/><line class="cls-10" x1="108.24" y1="767.07" x2="103.3" y2="762.2"/><line class="cls-10" x1="148.16" y1="780.75" x2="143.53" y2="776.11"/><line class="cls-10" x1="141.09" y1="773.68" x2="133.64" y2="766.3"/><line class="cls-10" x1="131.21" y1="763.8" x2="129.61" y2="762.2"/><line class="cls-10" x1="173.94" y1="780.22" x2="166.56" y2="772.84"/><line class="cls-10" x1="164.06" y1="770.41" x2="156.68" y2="762.96"/><line class="cls-10" x1="200.78" y1="780.75" x2="199.41" y2="779.38"/><line class="cls-10" x1="196.9" y1="776.95" x2="189.53" y2="769.57"/><line class="cls-10" x1="187.1" y1="767.07" x2="182.15" y2="762.2"/><line class="cls-10" x1="106.57" y1="778.62" x2="99.2" y2="771.17"/><line class="cls-10" x1="96.69" y1="768.74" x2="93.42" y2="765.47"/><line class="cls-10" x1="135.01" y1="780.75" x2="132.04" y2="777.79"/><line class="cls-10" x1="129.53" y1="775.28" x2="122.16" y2="767.9"/><line class="cls-10" x1="119.73" y1="765.47" x2="116.46" y2="762.2"/><line class="cls-10" x1="161.32" y1="780.75" x2="155.01" y2="774.52"/><line class="cls-10" x1="152.57" y1="772.01" x2="145.2" y2="764.63"/><line class="cls-10" x1="185.42" y1="778.62" x2="178.05" y2="771.17"/><line class="cls-10" x1="175.54" y1="768.74" x2="169" y2="762.2"/><line class="cls-10" x1="206.79" y1="773.68" x2="201.01" y2="767.9"/><line class="cls-10" x1="198.58" y1="765.47" x2="195.31" y2="762.2"/><polyline class="cls-10" points="304.34 780.75 304.34 773.38 304.34 762.2"/><polyline class="cls-10" points="206.79 780.75 206.79 773.38 206.79 762.2"/><polyline class="cls-10" points="0.5 780.75 0.5 773.38 0.5 762.2"/><line class="cls-10" x1="93.42" y1="780.75" x2="206.79" y2="780.75"/><line class="cls-10" x1="206.79" y1="762.2" x2="93.42" y2="762.2"/><path class="cls-10" d="M296.17,716.19a85.5,85.5,0,0,0-85.5,85.5" transform="translate(-0.23 -28.35)"/><line class="cls-10" x1="299.71" y1="773.38" x2="304.34" y2="773.38"/><polyline class="cls-10" points="299.71 780.75 304.34 780.75 304.34 773.38"/><polyline class="cls-10" points="206.79 780.75 210.51 780.75 210.51 773.38 206.79 773.38 206.79 780.75"/><polyline class="cls-10" points="299.71 773.38 295.98 773.38 295.98 780.75 299.71 780.75 299.71 773.38"/><line class="cls-10" x1="295.98" y1="773.38" x2="295.98" y2="687.83"/><polyline class="cls-10" points="206.79 762.2 206.79 773.38 206.79 780.75 206.79 773.38"/><polyline class="cls-10" points="304.34 762.2 304.34 773.38 304.34 780.75 304.34 773.38"/><polyline class="cls-10" points="0.5 762.2 0.5 773.38 0.5 780.75 0.5 773.38"/><line class="cls-10" x1="65.51" y1="520.63" x2="67.49" y2="518.73"/><line class="cls-10" x1="65.51" y1="527.24" x2="72.96" y2="519.79"/><line class="cls-10" x1="65.51" y1="533.78" x2="72.96" y2="526.33"/><line class="cls-10" x1="65.51" y1="540.32" x2="72.96" y2="532.95"/><line class="cls-10" x1="65.51" y1="546.94" x2="72.96" y2="539.49"/><line class="cls-10" x1="65.51" y1="553.48" x2="72.96" y2="546.03"/><line class="cls-10" x1="65.51" y1="560.09" x2="72.96" y2="552.64"/><line class="cls-10" x1="66.96" y1="565.19" x2="72.96" y2="559.18"/><line class="cls-10" x1="72.96" y1="565.19" x2="72.96" y2="518.73"/><line class="cls-10" x1="65.51" y1="518.73" x2="65.51" y2="565.19"/><line class="cls-10" x1="19.05" y1="514.55" x2="22.32" y2="511.28"/><line class="cls-10" x1="21.49" y1="518.73" x2="28.86" y2="511.28"/><line class="cls-10" x1="28.03" y1="518.73" x2="35.48" y2="511.28"/><line class="cls-10" x1="34.56" y1="518.73" x2="42.02" y2="511.28"/><line class="cls-10" x1="41.18" y1="518.73" x2="48.63" y2="511.28"/><line class="cls-10" x1="47.72" y1="518.73" x2="55.17" y2="511.28"/><line class="cls-10" x1="54.33" y1="518.73" x2="61.71" y2="511.28"/><line class="cls-10" x1="60.87" y1="518.73" x2="68.33" y2="511.28"/><line class="cls-10" x1="67.49" y1="518.73" x2="74.86" y2="511.28"/><line class="cls-10" x1="74.03" y1="518.73" x2="81.48" y2="511.28"/><line class="cls-10" x1="80.57" y1="518.73" x2="88.02" y2="511.28"/><line class="cls-10" x1="87.18" y1="518.73" x2="94.63" y2="511.28"/><line class="cls-10" x1="93.72" y1="518.73" x2="101.17" y2="511.28"/><line class="cls-10" x1="100.34" y1="518.73" x2="107.71" y2="511.28"/><line class="cls-10" x1="106.88" y1="518.73" x2="114.33" y2="511.28"/><line class="cls-10" x1="113.42" y1="518.73" x2="120.87" y2="511.28"/><line class="cls-10" x1="120.03" y1="518.73" x2="127.48" y2="511.28"/><line class="cls-10" x1="126.57" y1="518.73" x2="134.02" y2="511.28"/><line class="cls-10" x1="133.18" y1="518.73" x2="140.56" y2="511.28"/><line class="cls-10" x1="139.72" y1="518.73" x2="147.18" y2="511.28"/><line class="cls-10" x1="146.34" y1="518.73" x2="153.71" y2="511.28"/><line class="cls-10" x1="152.88" y1="518.73" x2="160.33" y2="511.28"/><line class="cls-10" x1="159.42" y1="518.73" x2="166.87" y2="511.28"/><line class="cls-10" x1="166.03" y1="518.73" x2="173.48" y2="511.28"/><line class="cls-10" x1="172.57" y1="518.73" x2="180.02" y2="511.28"/><line class="cls-10" x1="179.19" y1="518.73" x2="186.56" y2="511.28"/><line class="cls-10" x1="185.73" y1="518.73" x2="193.18" y2="511.28"/><line class="cls-10" x1="192.34" y1="518.73" x2="199.72" y2="511.28"/><line class="cls-10" x1="198.88" y1="518.73" x2="206.33" y2="511.28"/><line class="cls-10" x1="205.42" y1="518.73" x2="207.7" y2="516.45"/><line class="cls-10" x1="291.34" y1="511.66" x2="291.72" y2="511.28"/><line class="cls-10" x1="291.34" y1="518.27" x2="298.34" y2="511.28"/><line class="cls-10" x1="297.42" y1="518.73" x2="304.88" y2="511.28"/><line class="cls-10" x1="304.04" y1="518.73" x2="311.42" y2="511.28"/><line class="cls-10" x1="310.58" y1="518.73" x2="318.03" y2="511.28"/><line class="cls-10" x1="317.12" y1="518.73" x2="324.57" y2="511.28"/><line class="cls-10" x1="323.73" y1="518.73" x2="331.19" y2="511.28"/><line class="cls-10" x1="330.27" y1="518.73" x2="337.72" y2="511.28"/><line class="cls-10" x1="336.89" y1="518.73" x2="344.34" y2="511.28"/><line class="cls-10" x1="343.43" y1="518.73" x2="350.88" y2="511.28"/><line class="cls-10" x1="350.04" y1="518.73" x2="357.42" y2="511.28"/><line class="cls-10" x1="356.58" y1="518.73" x2="364.03" y2="511.28"/><line class="cls-10" x1="363.12" y1="518.73" x2="370.57" y2="511.28"/><line class="cls-10" x1="369.74" y1="518.73" x2="377.19" y2="511.28"/><line class="cls-10" x1="376.28" y1="518.73" x2="381.52" y2="513.56"/><line class="cls-10" x1="207.7" y1="511.28" x2="207.7" y2="518.73"/><polyline class="cls-10" points="381.52 511.28 291.34 511.28 291.34 518.73"/><line class="cls-10" x1="207.7" y1="511.28" x2="19.05" y2="511.28"/><line class="cls-10" x1="19.05" y1="518.73" x2="65.51" y2="518.73"/><line class="cls-10" x1="72.96" y1="518.73" x2="181.7" y2="518.73"/><line class="cls-10" x1="189.15" y1="518.73" x2="207.7" y2="518.73"/><line class="cls-10" x1="291.34" y1="518.73" x2="381.52" y2="518.73"/><line class="cls-10" x1="181.7" y1="522.76" x2="185.73" y2="518.73"/><line class="cls-10" x1="181.7" y1="529.3" x2="189.15" y2="521.92"/><line class="cls-10" x1="181.7" y1="535.91" x2="189.15" y2="528.46"/><line class="cls-10" x1="181.7" y1="542.45" x2="189.15" y2="535"/><line class="cls-10" x1="181.7" y1="549.07" x2="189.15" y2="541.62"/><line class="cls-10" x1="181.7" y1="555.61" x2="189.15" y2="548.15"/><line class="cls-10" x1="181.7" y1="562.22" x2="189.15" y2="554.77"/><line class="cls-10" x1="181.7" y1="568.76" x2="189.15" y2="561.31"/><line class="cls-10" x1="181.7" y1="575.3" x2="189.15" y2="567.92"/><line class="cls-10" x1="181.7" y1="581.92" x2="189.15" y2="574.46"/><line class="cls-10" x1="181.7" y1="588.45" x2="189.15" y2="581"/><line class="cls-10" x1="181.7" y1="595.07" x2="189.15" y2="587.62"/><line class="cls-10" x1="181.7" y1="601.61" x2="189.15" y2="594.16"/><line class="cls-10" x1="181.7" y1="608.15" x2="189.15" y2="600.77"/><line class="cls-10" x1="181.7" y1="614.76" x2="189.15" y2="607.31"/><line class="cls-10" x1="184.89" y1="618.18" x2="189.15" y2="613.93"/><line class="cls-10" x1="181.7" y1="687.07" x2="185.5" y2="683.2"/><line class="cls-10" x1="181.7" y1="693.61" x2="189.15" y2="686.16"/><line class="cls-10" x1="181.7" y1="700.15" x2="189.15" y2="692.78"/><line class="cls-10" x1="181.7" y1="706.77" x2="189.15" y2="699.32"/><line class="cls-10" x1="181.7" y1="713.31" x2="189.15" y2="705.86"/><line class="cls-10" x1="181.7" y1="719.92" x2="189.15" y2="712.47"/><line class="cls-10" x1="181.7" y1="726.46" x2="189.15" y2="719.01"/><line class="cls-10" x1="181.7" y1="733" x2="189.15" y2="725.63"/><line class="cls-10" x1="181.7" y1="739.62" x2="189.15" y2="732.16"/><line class="cls-10" x1="181.7" y1="746.15" x2="189.15" y2="738.78"/><line class="cls-10" x1="181.7" y1="752.77" x2="189.15" y2="745.32"/><line class="cls-10" x1="181.7" y1="759.31" x2="189.15" y2="751.86"/><line class="cls-10" x1="185.42" y1="762.2" x2="189.15" y2="758.47"/><line class="cls-10" x1="181.7" y1="683.2" x2="189.15" y2="683.2"/><line class="cls-10" x1="181.7" y1="618.18" x2="189.15" y2="618.18"/><line class="cls-10" x1="181.7" y1="518.73" x2="181.7" y2="565.19"/><line class="cls-10" x1="181.7" y1="572.64" x2="181.7" y2="618.18"/><polyline class="cls-10" points="181.7 683.2 181.7 762.2 189.15 762.2 189.15 683.2"/><line class="cls-10" x1="189.15" y1="618.18" x2="189.15" y2="518.73"/><line class="cls-10" x1="19.05" y1="567.09" x2="20.95" y2="565.19"/><line class="cls-10" x1="20.12" y1="572.64" x2="27.57" y2="565.19"/><line class="cls-10" x1="26.66" y1="572.64" x2="28.33" y2="570.97"/><line class="cls-10" x1="65.51" y1="566.63" x2="66.96" y2="565.19"/><line class="cls-10" x1="66.12" y1="572.64" x2="73.57" y2="565.19"/><line class="cls-10" x1="72.66" y1="572.64" x2="80.11" y2="565.19"/><line class="cls-10" x1="79.27" y1="572.64" x2="86.73" y2="565.19"/><line class="cls-10" x1="85.81" y1="572.64" x2="93.27" y2="565.19"/><line class="cls-10" x1="92.43" y1="572.64" x2="99.8" y2="565.19"/><line class="cls-10" x1="98.97" y1="572.64" x2="106.42" y2="565.19"/><line class="cls-10" x1="105.58" y1="572.64" x2="112.96" y2="565.19"/><line class="cls-10" x1="112.12" y1="572.64" x2="119.57" y2="565.19"/><line class="cls-10" x1="118.66" y1="572.64" x2="126.11" y2="565.19"/><line class="cls-10" x1="125.28" y1="572.64" x2="132.73" y2="565.19"/><line class="cls-10" x1="131.82" y1="572.64" x2="139.27" y2="565.19"/><line class="cls-10" x1="138.43" y1="572.64" x2="145.81" y2="565.19"/><line class="cls-10" x1="144.97" y1="572.64" x2="152.42" y2="565.19"/><line class="cls-10" x1="151.51" y1="572.64" x2="158.96" y2="565.19"/><line class="cls-10" x1="158.12" y1="572.64" x2="165.58" y2="565.19"/><line class="cls-10" x1="164.66" y1="572.64" x2="172.12" y2="565.19"/><line class="cls-10" x1="171.28" y1="572.64" x2="178.73" y2="565.19"/><line class="cls-10" x1="177.82" y1="572.64" x2="181.7" y2="568.76"/><polyline class="cls-10" points="28.33 572.64 28.33 568.91 28.33 565.19"/><polyline class="cls-10" points="65.51 572.64 65.51 568.91 65.51 565.19"/><line class="cls-10" x1="19.05" y1="572.64" x2="28.33" y2="572.64"/><line class="cls-10" x1="65.51" y1="572.64" x2="181.7" y2="572.64"/><line class="cls-10" x1="181.7" y1="565.19" x2="72.96" y2="565.19"/><polyline class="cls-10" points="28.33 565.19 19.05 565.19 19.05 572.64"/><line class="cls-10" x1="65.51" y1="572.64" x2="28.33" y2="572.64"/><line class="cls-10" x1="65.51" y1="565.19" x2="28.33" y2="565.19"/><path class="cls-10" d="M63.42,613.66A37,37,0,0,0,65.66,601" transform="translate(-0.23 -28.35)"/><line class="cls-10" x1="28.33" y1="572.64" x2="63.31" y2="585.34"/><polyline class="cls-10" points="65.51 565.19 65.51 568.91 65.51 572.64 65.51 568.91"/><polyline class="cls-10" points="28.33 565.19 28.33 568.91 28.33 572.64 28.33 568.91"/><line class="cls-10" x1="305.33" y1="780.22" x2="304.34" y2="779.23"/><line class="cls-10" x1="321.76" y1="770.33" x2="314.38" y2="762.96"/><line class="cls-10" x1="311.95" y1="760.53" x2="304.5" y2="753.15"/><line class="cls-10" x1="322.97" y1="745.24" x2="317.65" y2="740"/><line class="cls-10" x1="315.22" y1="737.49" x2="307.84" y2="730.11"/><line class="cls-10" x1="305.33" y1="727.68" x2="304.34" y2="726.69"/><line class="cls-10" x1="313.54" y1="775.28" x2="312.71" y2="774.52"/><line class="cls-10" x1="310.27" y1="772.01" x2="304.34" y2="766.08"/><line class="cls-10" x1="322.97" y1="758.4" x2="316.05" y2="751.48"/><line class="cls-10" x1="313.54" y1="749.04" x2="306.17" y2="741.59"/><line class="cls-10" x1="322.97" y1="732.09" x2="319.32" y2="728.51"/><polyline class="cls-10" points="316.81 726 315.83 725.02 309.44 718.63"/><line class="cls-10" x1="307.01" y1="716.2" x2="304.34" y2="713.54"/><line class="cls-10" x1="322.97" y1="769.65" x2="322.97" y2="725.02"/><line class="cls-10" x1="304.34" y1="706.46" x2="304.34" y2="762.2"/><line class="cls-10" x1="305.86" y1="780.75" x2="305.33" y2="780.22"/><line class="cls-10" x1="321.76" y1="770.41" x2="321.76" y2="770.33"/><line class="cls-10" x1="319.02" y1="780.75" x2="313.54" y2="775.28"/><line class="cls-10" x1="322.97" y1="780.75" x2="322.97" y2="769.65"/><line class="cls-10" x1="304.34" y1="780.75" x2="322.97" y2="780.75"/><line class="cls-10" x1="322.97" y1="719.01" x2="320.92" y2="716.96"/><line class="cls-10" x1="318.49" y1="714.52" x2="311.11" y2="707.15"/><line class="cls-10" x1="304.34" y1="706.46" x2="322.97" y2="706.46"/><line class="cls-10" x1="328.37" y1="724.41" x2="322.97" y2="719.01"/><line class="cls-10" x1="355.29" y1="725.02" x2="353.84" y2="723.57"/><line class="cls-10" x1="351.33" y1="721.06" x2="343.96" y2="713.69"/><line class="cls-10" x1="341.53" y1="711.25" x2="336.66" y2="706.46"/><line class="cls-10" x1="381.52" y1="724.94" x2="376.81" y2="720.3"/><line class="cls-10" x1="374.37" y1="717.79" x2="366.92" y2="710.42"/><line class="cls-10" x1="364.49" y1="707.98" x2="362.97" y2="706.46"/><line class="cls-10" x1="339.85" y1="722.74" x2="332.48" y2="715.36"/><line class="cls-10" x1="329.97" y1="712.85" x2="323.58" y2="706.46"/><line class="cls-10" x1="368.44" y1="725.02" x2="365.33" y2="721.9"/><line class="cls-10" x1="362.82" y1="719.47" x2="355.44" y2="712.09"/><line class="cls-10" x1="353.01" y1="709.58" x2="349.81" y2="706.46"/><line class="cls-10" x1="381.52" y1="711.79" x2="378.48" y2="708.74"/><line class="cls-10" x1="322.97" y1="725.02" x2="381.52" y2="725.02"/><line class="cls-10" x1="381.52" y1="706.46" x2="322.97" y2="706.46"/><line class="cls-10" x1="322.97" y1="774.14" x2="327.46" y2="769.65"/><line class="cls-10" x1="331.11" y1="780.75" x2="342.21" y2="769.65"/><line class="cls-10" x1="345.86" y1="780.75" x2="357.04" y2="769.65"/><line class="cls-10" x1="360.69" y1="780.75" x2="371.79" y2="769.65"/><line class="cls-10" x1="375.44" y1="780.75" x2="381.52" y2="774.74"/><line class="cls-10" x1="326.17" y1="780.75" x2="337.27" y2="769.65"/><line class="cls-10" x1="340.92" y1="780.75" x2="352.1" y2="769.65"/><line class="cls-10" x1="355.75" y1="780.75" x2="366.85" y2="769.65"/><line class="cls-10" x1="370.5" y1="780.75" x2="381.52" y2="769.8"/><line class="cls-10" x1="322.97" y1="780.75" x2="322.97" y2="769.65"/><line class="cls-10" x1="322.97" y1="780.75" x2="381.52" y2="780.75"/><line class="cls-10" x1="381.52" y1="769.65" x2="322.97" y2="769.65"/><polyline class="cls-10" points="0.5 115.43 0.5 115.43 0.5 115.43"/><line class="cls-10" x1="0.5" y1="128.43" x2="2.1" y2="125.62"/><line class="cls-10" x1="4.76" y1="130.26" x2="7.42" y2="125.62"/><line class="cls-10" x1="10.16" y1="130.26" x2="12.82" y2="125.62"/><line class="cls-10" x1="15.48" y1="130.26" x2="18.22" y2="125.62"/><line class="cls-10" x1="2.78" y1="130.26" x2="0.5" y2="126.3"/><line class="cls-10" x1="8.18" y1="130.26" x2="5.44" y2="125.62"/><line class="cls-10" x1="13.5" y1="130.26" x2="10.84" y2="125.62"/><line class="cls-10" x1="18.9" y1="130.26" x2="16.16" y2="125.62"/><polyline class="cls-10" points="0.5 115.39 0.5 130.25 19.05 130.25 19.05 125.62 17.61 125.62"/><line class="cls-10" x1="381.52" y1="128.28" x2="383.04" y2="125.62"/><line class="cls-10" x1="385.7" y1="130.26" x2="388.36" y2="125.62"/><line class="cls-10" x1="391.1" y1="130.26" x2="394.37" y2="124.63"/><line class="cls-10" x1="396.42" y1="130.26" x2="400.07" y2="123.94"/><line class="cls-10" x1="383.73" y1="130.26" x2="381.52" y2="126.38"/><line class="cls-10" x1="389.13" y1="130.26" x2="386.39" y2="125.62"/><line class="cls-10" x1="394.45" y1="130.26" x2="391.48" y2="125.16"/><line class="cls-10" x1="399.85" y1="130.26" x2="396.35" y2="124.17"/><line class="cls-10" x1="383.04" y1="125.62" x2="385.7" y2="120.98"/><line class="cls-10" x1="388.36" y1="125.62" x2="389.2" y2="124.17"/><line class="cls-10" x1="386.39" y1="125.62" x2="383.73" y2="120.98"/><line class="cls-10" x1="389.2" y1="124.17" x2="391.1" y2="120.98"/><line class="cls-10" x1="394.37" y1="124.63" x2="396.42" y2="120.98"/><line class="cls-10" x1="391.48" y1="125.16" x2="389.13" y2="120.98"/><line class="cls-10" x1="396.35" y1="124.17" x2="394.45" y2="120.98"/><line class="cls-10" x1="400.07" y1="121.43" x2="399.85" y2="120.98"/><polyline class="cls-10" points="381.52 125.62 381.52 130.25 400.07 130.25 400.07 113.04"/><line class="cls-10" x1="23.69" y1="506.64" x2="23.69" y2="455.54"/><line class="cls-10" x1="74.79" y1="506.64" x2="23.69" y2="506.64"/><line class="cls-10" x1="74.79" y1="455.54" x2="74.79" y2="506.64"/><line class="cls-10" x1="23.69" y1="455.54" x2="74.79" y2="455.54"/><line class="cls-10" x1="28.33" y1="460.18" x2="70.15" y2="460.18"/><line class="cls-10" x1="70.15" y1="460.18" x2="70.15" y2="497.36"/><line class="cls-10" x1="70.15" y1="497.36" x2="28.33" y2="497.36"/><line class="cls-10" x1="28.33" y1="497.36" x2="28.33" y2="460.18"/><line class="cls-10" x1="24.3" y1="751.02" x2="24.3" y2="703.65"/><line class="cls-10" x1="29.62" y1="698.1" x2="144.59" y2="698.1"/><line class="cls-10" x1="29.62" y1="756.65" x2="144.59" y2="756.65"/><line class="cls-10" x1="177.06" y1="692.47" x2="19.05" y2="692.47"/><line class="cls-10" x1="177.06" y1="762.2" x2="19.05" y2="762.2"/><line class="cls-10" x1="177.06" y1="762.2" x2="177.06" y2="692.47"/><line class="cls-10" x1="19.05" y1="762.2" x2="19.05" y2="692.47"/><line class="cls-10" x1="126.11" y1="746.92" x2="36.16" y2="746.92"/><line class="cls-10" x1="33.5" y1="744.1" x2="33.5" y2="710.57"/><line class="cls-10" x1="126.11" y1="707.76" x2="36.16" y2="707.76"/><line class="cls-10" x1="51.98" y1="729.05" x2="51.98" y2="732.47"/><line class="cls-10" x1="50.38" y1="727.37" x2="47.11" y2="727.37"/><line class="cls-10" x1="51.98" y1="725.63" x2="51.98" y2="722.2"/><line class="cls-10" x1="53.57" y1="727.37" x2="56.84" y2="727.37"/><path class="cls-10" d="M144.78,784.92c15.27,0,27.64-13.09,27.64-29.23s-12.37-29.24-27.64-29.24" transform="translate(-0.23 -28.35)"/><path class="cls-10" d="M29.81,726.37A5.44,5.44,0,0,0,24.53,732" transform="translate(-0.23 -28.35)"/><path class="cls-10" d="M24.53,779.33a5.44,5.44,0,0,0,5.28,5.59" transform="translate(-0.23 -28.35)"/><path class="cls-10" d="M52.17,752.76a2.93,2.93,0,1,0,2.77,2.93,2.85,2.85,0,0,0-2.77-2.93" transform="translate(-0.23 -28.35)"/><path class="cls-10" d="M126.3,775.27c10.23,0,18.52-8.77,18.52-19.58s-8.29-19.58-18.52-19.58" transform="translate(-0.23 -28.35)"/><path class="cls-10" d="M33.73,772.42a2.7,2.7,0,0,0,2.62,2.77" transform="translate(-0.23 -28.35)"/><path class="cls-10" d="M36.35,736.11a2.7,2.7,0,0,0-2.62,2.77" transform="translate(-0.23 -28.35)"/><path class="cls-10" d="M52.17,751.77a3.92,3.92,0,1,0,3.68,3.92,3.81,3.81,0,0,0-3.68-3.92" transform="translate(-0.23 -28.35)"/><line class="cls-10" x1="19.05" y1="637.65" x2="19.05" y2="687.83"/><line class="cls-10" x1="19.05" y1="687.83" x2="40.27" y2="687.83"/><line class="cls-10" x1="19.05" y1="637.65" x2="40.27" y2="637.65"/><line class="cls-10" x1="19.05" y1="670.65" x2="19.05" y2="654.83"/><line class="cls-10" x1="36.09" y1="667" x2="36.09" y2="664.26"/><line class="cls-10" x1="31.9" y1="662.74" x2="34.56" y2="662.74"/><line class="cls-10" x1="36.09" y1="661.22" x2="36.09" y2="658.56"/><line class="cls-10" x1="37.68" y1="662.74" x2="40.34" y2="662.74"/><path class="cls-10" d="M41.81,669a22.47,22.47,0,0,0-10.59,8.68" transform="translate(-0.23 -28.35)"/><path class="cls-10" d="M31.16,677.75A22.44,22.44,0,0,0,28,691.1" transform="translate(-0.23 -28.35)"/><path class="cls-10" d="M31.22,704.42a22.41,22.41,0,0,0,10.59,8.68" transform="translate(-0.23 -28.35)"/><path class="cls-10" d="M28,691.08a22.41,22.41,0,0,0,3.14,13.35" transform="translate(-0.23 -28.35)"/><path class="cls-10" d="M57.26,689.32a41,41,0,0,0-4.14-15.22" transform="translate(-0.23 -28.35)"/><path class="cls-10" d="M40.52,716.17A12.73,12.73,0,0,0,51,711.42" transform="translate(-0.23 -28.35)"/><path class="cls-10" d="M57.24,692.81a25.7,25.7,0,0,0,0-3.51" transform="translate(-0.23 -28.35)"/><path class="cls-10" d="M32.07,677a91.8,91.8,0,0,0,0,28.08" transform="translate(-0.23 -28.35)"/><path class="cls-10" d="M23.2,707.76a31.59,31.59,0,0,0,20.54,7.13" transform="translate(-0.23 -28.35)"/><path class="cls-10" d="M20.27,691a63.05,63.05,0,0,0,1.55,14.36" transform="translate(-0.23 -28.35)"/><path class="cls-10" d="M21.89,705.43a4.19,4.19,0,0,0,1.42,2.29" transform="translate(-0.23 -28.35)"/><path class="cls-10" d="M22.25,691.05a108.13,108.13,0,0,0,1,14.16" transform="translate(-0.23 -28.35)"/><path class="cls-10" d="M24.69,707.74a28.27,28.27,0,0,0,19.11,7.07" transform="translate(-0.23 -28.35)"/><path class="cls-10" d="M23.27,705.24a4.21,4.21,0,0,0,1.37,2.54" transform="translate(-0.23 -28.35)"/><path class="cls-10" d="M43.76,667.3a28.27,28.27,0,0,0-19.1,7.1" transform="translate(-0.23 -28.35)"/><path class="cls-10" d="M43.77,667.22a31.61,31.61,0,0,0-20.53,7.16" transform="translate(-0.23 -28.35)"/><path class="cls-10" d="M23.25,677a106.26,106.26,0,0,0-1,14.15" transform="translate(-0.23 -28.35)"/><path class="cls-10" d="M21.81,676.71a62.63,62.63,0,0,0-1.54,14.37" transform="translate(-0.23 -28.35)"/><path class="cls-10" d="M24.63,674.42A4.14,4.14,0,0,0,23.27,677" transform="translate(-0.23 -28.35)"/><path class="cls-10" d="M23.23,674.47a4.12,4.12,0,0,0-1.41,2.29" transform="translate(-0.23 -28.35)"/><path class="cls-10" d="M51,670.77A12.74,12.74,0,0,0,40.52,666" transform="translate(-0.23 -28.35)"/><path class="cls-10" d="M53.14,674A20.27,20.27,0,0,0,51,670.69" transform="translate(-0.23 -28.35)"/><path class="cls-10" d="M51,711.42a20.27,20.27,0,0,0,2.16-3.34" transform="translate(-0.23 -28.35)"/><path class="cls-10" d="M53.12,708.09a41,41,0,0,0,4.14-15.22" transform="translate(-0.23 -28.35)"/><path class="cls-10" d="M53.82,698a29.65,29.65,0,0,0,0-13.83" transform="translate(-0.23 -28.35)"/><path class="cls-10" d="M48,671.71a7.5,7.5,0,0,0-6.18-2.57" transform="translate(-0.23 -28.35)"/><path class="cls-10" d="M53.77,684.19A27.17,27.17,0,0,0,48,671.67" transform="translate(-0.23 -28.35)"/><path class="cls-10" d="M41.77,713.05A7.48,7.48,0,0,0,48,710.47" transform="translate(-0.23 -28.35)"/><path class="cls-10" d="M48,710.52A27.21,27.21,0,0,0,53.77,698" transform="translate(-0.23 -28.35)"/><path class="cls-10" d="M36.28,694.29A3.24,3.24,0,1,0,33,691.06a3.23,3.23,0,0,0,3.24,3.23" transform="translate(-0.23 -28.35)"/><path class="cls-10" d="M36.28,693.37A2.32,2.32,0,1,0,34,691.06a2.3,2.3,0,0,0,2.32,2.31" transform="translate(-0.23 -28.35)"/><line class="cls-10" x1="33.35" y1="631.64" x2="66.2" y2="631.64"/><line class="cls-10" x1="19.05" y1="633.01" x2="19.05" y2="597.73"/><line class="cls-10" x1="19.05" y1="633.01" x2="31.37" y2="633.01"/><line class="cls-10" x1="39.13" y1="615.37" x2="39.13" y2="602.29"/><line class="cls-10" x1="66.12" y1="631.64" x2="39.13" y2="628.45"/><line class="cls-10" x1="39.13" y1="615.37" x2="39.13" y2="628.45"/><line class="cls-10" x1="66.12" y1="599.1" x2="39.13" y2="602.29"/><line class="cls-10" x1="66.12" y1="630.81" x2="39.13" y2="627.61"/><line class="cls-10" x1="66.12" y1="599.94" x2="39.13" y2="603.13"/><line class="cls-10" x1="33.35" y1="599.1" x2="66.2" y2="599.1"/><line class="cls-10" x1="19.05" y1="597.73" x2="31.37" y2="597.73"/><line class="cls-10" x1="66.12" y1="631.64" x2="69.77" y2="631.19"/><line class="cls-10" x1="69.77" y1="631.19" x2="73.19" y2="629.74"/><line class="cls-10" x1="73.19" y1="629.74" x2="76.23" y2="627.54"/><line class="cls-10" x1="76.23" y1="627.54" x2="78.67" y2="624.65"/><line class="cls-10" x1="78.67" y1="624.65" x2="80.34" y2="621.15"/><line class="cls-10" x1="80.34" y1="621.15" x2="81.25" y2="617.35"/><line class="cls-10" x1="81.25" y1="617.35" x2="81.25" y2="613.39"/><line class="cls-10" x1="81.25" y1="613.39" x2="80.34" y2="609.59"/><line class="cls-10" x1="80.34" y1="609.59" x2="78.67" y2="606.09"/><line class="cls-10" x1="78.67" y1="606.09" x2="76.23" y2="603.21"/><line class="cls-10" x1="76.23" y1="603.21" x2="73.19" y2="600.92"/><line class="cls-10" x1="73.19" y1="600.92" x2="69.77" y2="599.56"/><line class="cls-10" x1="69.77" y1="599.56" x2="66.12" y2="599.1"/><line class="cls-10" x1="66.12" y1="630.81" x2="69.54" y2="630.35"/><line class="cls-10" x1="69.54" y1="630.35" x2="72.81" y2="629.06"/><line class="cls-10" x1="72.81" y1="629.06" x2="75.62" y2="626.93"/><line class="cls-10" x1="75.62" y1="626.93" x2="77.98" y2="624.12"/><line class="cls-10" x1="77.98" y1="624.12" x2="79.58" y2="620.85"/><line class="cls-10" x1="79.58" y1="620.85" x2="80.41" y2="617.2"/><line class="cls-10" x1="80.41" y1="617.2" x2="80.41" y2="613.47"/><line class="cls-10" x1="80.41" y1="613.47" x2="79.58" y2="609.9"/><line class="cls-10" x1="79.58" y1="609.9" x2="77.98" y2="606.63"/><line class="cls-10" x1="77.98" y1="606.63" x2="75.62" y2="603.81"/><line class="cls-10" x1="75.62" y1="603.81" x2="72.81" y2="601.68"/><line class="cls-10" x1="72.81" y1="601.68" x2="69.54" y2="600.39"/><line class="cls-10" x1="69.54" y1="600.39" x2="66.12" y2="599.94"/><path class="cls-10" d="M33.65,659.51a149.39,149.39,0,0,0,0-31.64" transform="translate(-0.23 -28.35)"/><path class="cls-10" d="M31.56,661.29a2.07,2.07,0,0,0,2.08-1.8" transform="translate(-0.23 -28.35)"/><path class="cls-10" d="M33.64,627.9a2.07,2.07,0,0,0-2.08-1.82" transform="translate(-0.23 -28.35)"/><path class="cls-10" d="M28.71,643.68A1.71,1.71,0,1,0,27,645.4a1.72,1.72,0,0,0,1.71-1.72" transform="translate(-0.23 -28.35)"/><polyline class="cls-10" points="284.57 111.7 294.84 61.59 295.3 61.75 285.03 111.78 284.57 111.7"/><polyline class="cls-10" points="293.77 60 210.06 42.74 210.13 42.28 293.85 59.54 293.77 60"/><polyline class="cls-10" points="208.38 43.8 198.04 93.91 197.59 93.83 207.93 43.73 208.38 43.8"/><polyline class="cls-10" points="282.75 113.68 283.21 111.4 285.49 111.85 284.95 114.14 282.75 113.68"/><polyline class="cls-10" points="293.47 61.37 293.93 59.08 296.21 59.54 295.75 61.82 293.47 61.37"/><polyline class="cls-10" points="209.75 44.1 207.47 43.65 207.93 41.37 210.21 41.82 209.75 44.1"/><polyline class="cls-10" points="199.41 94.21 198.96 96.5 196.68 95.96 197.13 93.68 199.41 94.21"/><line class="cls-10" x1="282.98" y1="112.54" x2="293.47" y2="61.37"/><line class="cls-10" x1="296.21" y1="59.54" x2="285.26" y2="112.99"/><line class="cls-10" x1="293.47" y1="61.37" x2="209.75" y2="44.11"/><line class="cls-10" x1="207.93" y1="41.37" x2="296.21" y2="59.54"/><line class="cls-10" x1="209.75" y1="44.11" x2="199.18" y2="95.35"/><line class="cls-10" x1="196.9" y1="94.82" x2="207.93" y2="41.37"/><polyline class="cls-10" points="285.26 113 284.95 114.14 282.75 113.68 282.98 112.54"/><polyline class="cls-10" points="199.19 95.35 198.96 96.5 196.68 95.96 196.9 94.82"/><polyline class="cls-10" points="207.93 41.37 296.21 59.54 285.26 113 282.98 112.54 293.47 61.37 209.75 44.1 199.19 95.35 196.9 94.82 207.93 41.37"/><polyline class="cls-10" points="209.15 58.7 288.3 74.98 282.29 104.1 203.14 87.83 209.15 58.7"/><polyline class="cls-10" points="208.54 61.59 287.69 77.87 282.29 104.1 203.14 87.83 208.54 61.59"/><line class="cls-10" x1="381.52" y1="135.05" x2="386.24" y2="130.26"/><line class="cls-10" x1="381.52" y1="142.88" x2="394.14" y2="130.26"/><line class="cls-10" x1="381.52" y1="150.79" x2="400.07" y2="132.23"/><line class="cls-10" x1="381.52" y1="158.69" x2="400.07" y2="140.06"/><line class="cls-10" x1="381.52" y1="166.52" x2="400.07" y2="147.97"/><line class="cls-10" x1="381.52" y1="174.43" x2="400.07" y2="155.88"/><line class="cls-10" x1="381.52" y1="182.34" x2="400.07" y2="163.71"/><line class="cls-10" x1="381.52" y1="190.25" x2="400.07" y2="171.62"/><line class="cls-10" x1="381.52" y1="198.08" x2="400.07" y2="179.53"/><line class="cls-10" x1="381.52" y1="205.99" x2="400.07" y2="187.43"/><line class="cls-10" x1="381.52" y1="213.9" x2="400.07" y2="195.27"/><line class="cls-10" x1="381.52" y1="221.73" x2="400.07" y2="203.17"/><line class="cls-10" x1="387.91" y1="223.17" x2="400.07" y2="211.08"/><line class="cls-10" x1="395.82" y1="223.17" x2="400.07" y2="218.91"/><line class="cls-10" x1="381.9" y1="130.64" x2="382.28" y2="130.26"/><line class="cls-10" x1="381.52" y1="139" x2="383.88" y2="136.57"/><line class="cls-10" x1="384.87" y1="135.58" x2="384.87" y2="135.58"/><line class="cls-10" x1="385.86" y1="134.59" x2="388.82" y2="131.62"/><line class="cls-10" x1="389.81" y1="130.64" x2="389.81" y2="130.64"/><line class="cls-10" x1="381.52" y1="146.83" x2="382.89" y2="145.46"/><line class="cls-10" x1="383.88" y1="144.47" x2="383.88" y2="144.47"/><line class="cls-10" x1="384.87" y1="143.49" x2="387.83" y2="140.52"/><line class="cls-10" x1="388.82" y1="139.53" x2="388.82" y2="139.53"/><line class="cls-10" x1="389.81" y1="138.54" x2="392.78" y2="135.58"/><line class="cls-10" x1="393.76" y1="134.59" x2="393.76" y2="134.59"/><line class="cls-10" x1="394.75" y1="133.6" x2="397.64" y2="130.64"/><line class="cls-10" x1="381.52" y1="154.74" x2="381.9" y2="154.36"/><line class="cls-10" x1="382.89" y1="153.37" x2="382.89" y2="153.37"/><line class="cls-10" x1="383.88" y1="152.38" x2="386.84" y2="149.42"/><line class="cls-10" x1="387.83" y1="148.43" x2="387.83" y2="148.43"/><line class="cls-10" x1="388.82" y1="147.44" x2="391.79" y2="144.47"/><line class="cls-10" x1="392.78" y1="143.49" x2="392.78" y2="143.49"/><line class="cls-10" x1="393.76" y1="142.5" x2="396.65" y2="139.53"/><line class="cls-10" x1="397.64" y1="138.54" x2="397.64" y2="138.54"/><line class="cls-10" x1="398.63" y1="137.55" x2="400.07" y2="136.11"/><line class="cls-10" x1="381.9" y1="162.19" x2="381.9" y2="162.19"/><line class="cls-10" x1="382.89" y1="161.2" x2="385.86" y2="158.24"/><line class="cls-10" x1="386.84" y1="157.25" x2="386.84" y2="157.25"/><line class="cls-10" x1="387.83" y1="156.26" x2="390.8" y2="153.37"/><line class="cls-10" x1="391.79" y1="152.38" x2="391.79" y2="152.38"/><line class="cls-10" x1="392.78" y1="151.39" x2="395.66" y2="148.43"/><line class="cls-10" x1="396.65" y1="147.44" x2="396.65" y2="147.44"/><line class="cls-10" x1="397.64" y1="146.45" x2="400.07" y2="144.02"/><line class="cls-10" x1="381.9" y1="170.1" x2="384.87" y2="167.13"/><line class="cls-10" x1="385.86" y1="166.14" x2="385.86" y2="166.14"/><line class="cls-10" x1="386.84" y1="165.16" x2="389.81" y2="162.19"/><line class="cls-10" x1="390.8" y1="161.2" x2="390.8" y2="161.2"/><line class="cls-10" x1="391.79" y1="160.21" x2="394.75" y2="157.25"/><line class="cls-10" x1="395.66" y1="156.26" x2="395.66" y2="156.26"/><line class="cls-10" x1="396.65" y1="155.35" x2="399.62" y2="152.38"/><line class="cls-10" x1="381.52" y1="178.39" x2="383.88" y2="176.03"/><line class="cls-10" x1="384.87" y1="175.04" x2="384.87" y2="175.04"/><line class="cls-10" x1="385.86" y1="174.05" x2="388.82" y2="171.09"/><line class="cls-10" x1="389.81" y1="170.1" x2="389.81" y2="170.1"/><line class="cls-10" x1="390.8" y1="169.11" x2="393.76" y2="166.14"/><line class="cls-10" x1="394.75" y1="165.16" x2="394.75" y2="165.16"/><line class="cls-10" x1="395.66" y1="164.17" x2="398.63" y2="161.2"/><line class="cls-10" x1="399.62" y1="160.21" x2="399.62" y2="160.21"/><line class="cls-10" x1="381.52" y1="186.29" x2="382.89" y2="184.85"/><line class="cls-10" x1="383.88" y1="183.86" x2="383.88" y2="183.86"/><line class="cls-10" x1="384.87" y1="182.87" x2="387.83" y2="179.98"/><line class="cls-10" x1="388.82" y1="178.99" x2="388.82" y2="178.99"/><line class="cls-10" x1="389.81" y1="178.01" x2="392.78" y2="175.04"/><line class="cls-10" x1="393.76" y1="174.05" x2="393.76" y2="174.05"/><line class="cls-10" x1="394.75" y1="173.06" x2="397.64" y2="170.1"/><line class="cls-10" x1="398.63" y1="169.11" x2="398.63" y2="169.11"/><line class="cls-10" x1="399.62" y1="168.12" x2="400.07" y2="167.67"/><line class="cls-10" x1="381.52" y1="194.13" x2="381.9" y2="193.75"/><line class="cls-10" x1="382.89" y1="192.76" x2="382.89" y2="192.76"/><line class="cls-10" x1="383.88" y1="191.77" x2="386.84" y2="188.8"/><line class="cls-10" x1="387.83" y1="187.82" x2="387.83" y2="187.82"/><line class="cls-10" x1="388.82" y1="186.83" x2="391.79" y2="183.86"/><line class="cls-10" x1="392.78" y1="182.87" x2="392.78" y2="182.87"/><line class="cls-10" x1="393.76" y1="181.96" x2="396.65" y2="178.99"/><line class="cls-10" x1="397.64" y1="178.01" x2="397.64" y2="178.01"/><line class="cls-10" x1="398.63" y1="177.02" x2="400.07" y2="175.57"/><line class="cls-10" x1="381.9" y1="201.65" x2="381.9" y2="201.65"/><line class="cls-10" x1="382.89" y1="200.67" x2="385.86" y2="197.7"/><line class="cls-10" x1="386.84" y1="196.71" x2="386.84" y2="196.71"/><line class="cls-10" x1="387.83" y1="195.72" x2="390.8" y2="192.76"/><line class="cls-10" x1="391.79" y1="191.77" x2="391.79" y2="191.77"/><line class="cls-10" x1="392.78" y1="190.78" x2="395.66" y2="187.82"/><line class="cls-10" x1="396.65" y1="186.83" x2="396.65" y2="186.83"/><line class="cls-10" x1="397.64" y1="185.84" x2="400.07" y2="183.48"/><line class="cls-10" x1="381.9" y1="209.56" x2="384.87" y2="206.6"/><line class="cls-10" x1="385.86" y1="205.61" x2="385.86" y2="205.61"/><line class="cls-10" x1="386.84" y1="204.62" x2="389.81" y2="201.65"/><line class="cls-10" x1="390.8" y1="200.67" x2="390.8" y2="200.67"/><line class="cls-10" x1="391.79" y1="199.68" x2="394.75" y2="196.71"/><line class="cls-10" x1="395.66" y1="195.72" x2="395.66" y2="195.72"/><line class="cls-10" x1="396.65" y1="194.73" x2="399.62" y2="191.77"/><line class="cls-10" x1="381.52" y1="217.85" x2="383.88" y2="215.42"/><line class="cls-10" x1="384.87" y1="214.43" x2="384.87" y2="214.43"/><line class="cls-10" x1="385.86" y1="213.44" x2="388.82" y2="210.47"/><line class="cls-10" x1="389.81" y1="209.56" x2="389.81" y2="209.56"/><line class="cls-10" x1="390.8" y1="208.57" x2="393.76" y2="205.61"/><line class="cls-10" x1="394.75" y1="204.62" x2="394.75" y2="204.62"/><line class="cls-10" x1="395.66" y1="203.63" x2="398.63" y2="200.67"/><line class="cls-10" x1="399.62" y1="199.68" x2="399.62" y2="199.68"/><line class="cls-10" x1="384.87" y1="222.34" x2="387.83" y2="219.37"/><line class="cls-10" x1="388.82" y1="218.38" x2="388.82" y2="218.38"/><line class="cls-10" x1="389.81" y1="217.39" x2="392.78" y2="214.43"/><line class="cls-10" x1="393.76" y1="213.44" x2="393.76" y2="213.44"/><line class="cls-10" x1="394.75" y1="212.45" x2="397.64" y2="209.56"/><line class="cls-10" x1="398.63" y1="208.57" x2="398.63" y2="208.57"/><line class="cls-10" x1="399.62" y1="207.58" x2="400.07" y2="207.13"/><line class="cls-10" x1="392.78" y1="222.34" x2="392.78" y2="222.34"/><line class="cls-10" x1="393.76" y1="221.35" x2="396.65" y2="218.38"/><line class="cls-10" x1="397.64" y1="217.39" x2="397.64" y2="217.39"/><line class="cls-10" x1="398.63" y1="216.41" x2="400.07" y2="215.04"/><line class="cls-10" x1="399.77" y1="223.17" x2="400.07" y2="222.87"/><polyline class="cls-10" points="381.52 223.17 400.07 223.17 400.07 130.25 381.52 130.25 381.52 223.17"/><line class="cls-10" x1="381.52" y1="442.54" x2="387.07" y2="436.91"/><line class="cls-10" x1="381.52" y1="450.45" x2="394.98" y2="436.91"/><line class="cls-10" x1="381.52" y1="458.35" x2="400.07" y2="439.73"/><line class="cls-10" x1="381.52" y1="466.19" x2="400.07" y2="447.63"/><line class="cls-10" x1="381.52" y1="474.09" x2="400.07" y2="455.54"/><line class="cls-10" x1="381.52" y1="482" x2="400.07" y2="463.37"/><line class="cls-10" x1="381.52" y1="489.83" x2="400.07" y2="471.28"/><line class="cls-10" x1="381.52" y1="497.74" x2="400.07" y2="479.19"/><line class="cls-10" x1="381.52" y1="505.65" x2="400.07" y2="487.02"/><line class="cls-10" x1="381.52" y1="513.56" x2="400.07" y2="494.93"/><line class="cls-10" x1="381.52" y1="521.39" x2="400.07" y2="502.84"/><line class="cls-10" x1="381.52" y1="529.3" x2="400.07" y2="510.67"/><line class="cls-10" x1="388.82" y1="529.91" x2="400.07" y2="518.58"/><line class="cls-10" x1="396.65" y1="529.91" x2="400.07" y2="526.48"/><line class="cls-10" x1="381.9" y1="438.2" x2="381.9" y2="438.2"/><line class="cls-10" x1="382.89" y1="437.22" x2="383.19" y2="436.91"/><line class="cls-10" x1="381.9" y1="446.11" x2="384.87" y2="443.15"/><line class="cls-10" x1="385.86" y1="442.16" x2="385.86" y2="442.16"/><line class="cls-10" x1="386.84" y1="441.17" x2="389.81" y2="438.2"/><line class="cls-10" x1="390.8" y1="437.22" x2="390.8" y2="437.22"/><line class="cls-10" x1="381.52" y1="454.4" x2="383.88" y2="451.97"/><line class="cls-10" x1="384.87" y1="450.98" x2="384.87" y2="450.98"/><line class="cls-10" x1="385.86" y1="450.07" x2="388.82" y2="447.1"/><line class="cls-10" x1="389.81" y1="446.11" x2="389.81" y2="446.11"/><line class="cls-10" x1="390.8" y1="445.12" x2="393.76" y2="442.16"/><line class="cls-10" x1="394.75" y1="441.17" x2="394.75" y2="441.17"/><line class="cls-10" x1="395.66" y1="440.18" x2="398.63" y2="437.22"/><line class="cls-10" x1="381.52" y1="462.23" x2="382.89" y2="460.86"/><line class="cls-10" x1="383.88" y1="459.88" x2="383.88" y2="459.88"/><line class="cls-10" x1="384.87" y1="458.89" x2="387.83" y2="455.92"/><line class="cls-10" x1="388.82" y1="454.93" x2="388.82" y2="454.93"/><line class="cls-10" x1="389.81" y1="453.94" x2="392.78" y2="450.98"/><line class="cls-10" x1="393.76" y1="450.07" x2="393.76" y2="450.07"/><line class="cls-10" x1="394.75" y1="449.08" x2="397.64" y2="446.11"/><line class="cls-10" x1="398.63" y1="445.12" x2="398.63" y2="445.12"/><line class="cls-10" x1="399.62" y1="444.14" x2="400.07" y2="443.68"/><line class="cls-10" x1="381.52" y1="470.14" x2="381.9" y2="469.76"/><line class="cls-10" x1="382.89" y1="468.77" x2="382.89" y2="468.77"/><line class="cls-10" x1="383.88" y1="467.78" x2="386.84" y2="464.82"/><line class="cls-10" x1="387.83" y1="463.83" x2="387.83" y2="463.83"/><line class="cls-10" x1="388.82" y1="462.84" x2="391.79" y2="459.88"/><line class="cls-10" x1="392.78" y1="458.89" x2="392.78" y2="458.89"/><line class="cls-10" x1="393.76" y1="457.9" x2="396.65" y2="454.93"/><line class="cls-10" x1="397.64" y1="453.94" x2="397.64" y2="453.94"/><line class="cls-10" x1="398.63" y1="452.96" x2="400.07" y2="451.59"/><line class="cls-10" x1="381.9" y1="477.59" x2="381.9" y2="477.59"/><line class="cls-10" x1="382.89" y1="476.68" x2="385.86" y2="473.71"/><line class="cls-10" x1="386.84" y1="472.73" x2="386.84" y2="472.73"/><line class="cls-10" x1="387.83" y1="471.74" x2="390.8" y2="468.77"/><line class="cls-10" x1="391.79" y1="467.78" x2="391.79" y2="467.78"/><line class="cls-10" x1="392.78" y1="466.79" x2="395.66" y2="463.83"/><line class="cls-10" x1="396.65" y1="462.84" x2="396.65" y2="462.84"/><line class="cls-10" x1="397.64" y1="461.85" x2="400.07" y2="459.42"/><line class="cls-10" x1="381.9" y1="485.5" x2="384.87" y2="482.53"/><line class="cls-10" x1="385.86" y1="481.55" x2="385.86" y2="481.55"/><line class="cls-10" x1="386.84" y1="480.56" x2="389.81" y2="477.59"/><line class="cls-10" x1="390.8" y1="476.68" x2="390.8" y2="476.68"/><line class="cls-10" x1="391.79" y1="475.69" x2="394.75" y2="472.73"/><line class="cls-10" x1="395.66" y1="471.74" x2="395.66" y2="471.74"/><line class="cls-10" x1="396.65" y1="470.75" x2="399.62" y2="467.78"/><line class="cls-10" x1="381.52" y1="493.79" x2="383.88" y2="491.43"/><line class="cls-10" x1="384.87" y1="490.44" x2="384.87" y2="490.44"/><line class="cls-10" x1="385.86" y1="489.45" x2="388.82" y2="486.49"/><line class="cls-10" x1="389.81" y1="485.5" x2="389.81" y2="485.5"/><line class="cls-10" x1="390.8" y1="484.51" x2="393.76" y2="481.55"/><line class="cls-10" x1="394.75" y1="480.56" x2="394.75" y2="480.56"/><line class="cls-10" x1="395.66" y1="479.57" x2="398.63" y2="476.68"/><line class="cls-10" x1="399.62" y1="475.69" x2="399.62" y2="475.69"/><line class="cls-10" x1="381.52" y1="501.7" x2="382.89" y2="500.33"/><line class="cls-10" x1="383.88" y1="499.34" x2="383.88" y2="499.34"/><line class="cls-10" x1="384.87" y1="498.35" x2="387.83" y2="495.38"/><line class="cls-10" x1="388.82" y1="494.4" x2="388.82" y2="494.4"/><line class="cls-10" x1="389.81" y1="493.41" x2="392.78" y2="490.44"/><line class="cls-10" x1="393.76" y1="489.45" x2="393.76" y2="489.45"/><line class="cls-10" x1="394.75" y1="488.47" x2="397.64" y2="485.5"/><line class="cls-10" x1="398.63" y1="484.51" x2="398.63" y2="484.51"/><line class="cls-10" x1="399.62" y1="483.52" x2="400.07" y2="483.14"/><line class="cls-10" x1="381.52" y1="509.6" x2="381.9" y2="509.15"/><line class="cls-10" x1="382.89" y1="508.16" x2="382.89" y2="508.16"/><line class="cls-10" x1="383.88" y1="507.17" x2="386.84" y2="504.21"/><line class="cls-10" x1="387.83" y1="503.29" x2="387.83" y2="503.29"/><line class="cls-10" x1="388.82" y1="502.3" x2="391.79" y2="499.34"/><line class="cls-10" x1="392.78" y1="498.35" x2="392.78" y2="498.35"/><line class="cls-10" x1="393.76" y1="497.36" x2="396.65" y2="494.4"/><line class="cls-10" x1="397.64" y1="493.41" x2="397.64" y2="493.41"/><line class="cls-10" x1="398.63" y1="492.42" x2="400.07" y2="490.97"/><line class="cls-10" x1="381.9" y1="517.06" x2="381.9" y2="517.06"/><line class="cls-10" x1="382.89" y1="516.07" x2="385.86" y2="513.1"/><line class="cls-10" x1="386.84" y1="512.11" x2="386.84" y2="512.11"/><line class="cls-10" x1="387.83" y1="511.12" x2="390.8" y2="508.16"/><line class="cls-10" x1="391.79" y1="507.17" x2="391.79" y2="507.17"/><line class="cls-10" x1="392.78" y1="506.18" x2="395.66" y2="503.29"/><line class="cls-10" x1="396.65" y1="502.3" x2="396.65" y2="502.3"/><line class="cls-10" x1="397.64" y1="501.32" x2="400.07" y2="498.88"/><line class="cls-10" x1="381.9" y1="524.96" x2="384.87" y2="522"/><line class="cls-10" x1="385.86" y1="521.01" x2="385.86" y2="521.01"/><line class="cls-10" x1="386.84" y1="520.02" x2="389.81" y2="517.06"/><line class="cls-10" x1="390.8" y1="516.07" x2="390.8" y2="516.07"/><line class="cls-10" x1="391.79" y1="515.08" x2="394.75" y2="512.11"/><line class="cls-10" x1="395.66" y1="511.12" x2="395.66" y2="511.12"/><line class="cls-10" x1="396.65" y1="510.14" x2="399.62" y2="507.17"/><line class="cls-10" x1="385.86" y1="528.92" x2="388.82" y2="525.95"/><line class="cls-10" x1="389.81" y1="524.96" x2="389.81" y2="524.96"/><line class="cls-10" x1="390.8" y1="523.97" x2="393.76" y2="521.01"/><line class="cls-10" x1="394.75" y1="520.02" x2="394.75" y2="520.02"/><line class="cls-10" x1="395.66" y1="519.03" x2="398.63" y2="516.07"/><line class="cls-10" x1="399.62" y1="515.08" x2="399.62" y2="515.08"/><line class="cls-10" x1="393.76" y1="528.92" x2="393.76" y2="528.92"/><line class="cls-10" x1="394.75" y1="527.93" x2="397.64" y2="524.96"/><line class="cls-10" x1="398.63" y1="523.97" x2="398.63" y2="523.97"/><line class="cls-10" x1="399.62" y1="522.99" x2="400.07" y2="522.53"/><polyline class="cls-10" points="400.07 436.91 381.52 436.91 381.52 529.91 400.07 529.91 400.07 436.91"/><line class="cls-10" x1="0.5" y1="137.55" x2="7.72" y2="130.26"/><line class="cls-10" x1="0.5" y1="145.39" x2="15.63" y2="130.26"/><line class="cls-10" x1="0.5" y1="153.29" x2="19.05" y2="134.74"/><line class="cls-10" x1="0.5" y1="161.2" x2="19.05" y2="142.57"/><line class="cls-10" x1="0.5" y1="169.11" x2="19.05" y2="150.48"/><line class="cls-10" x1="0.5" y1="176.94" x2="19.05" y2="158.39"/><line class="cls-10" x1="0.5" y1="184.85" x2="19.05" y2="166.3"/><line class="cls-10" x1="0.5" y1="192.76" x2="19.05" y2="174.13"/><line class="cls-10" x1="0.5" y1="200.59" x2="19.05" y2="182.04"/><line class="cls-10" x1="0.5" y1="208.5" x2="19.05" y2="189.94"/><line class="cls-10" x1="0.5" y1="216.41" x2="19.05" y2="197.78"/><line class="cls-10" x1="1.56" y1="223.17" x2="19.05" y2="205.68"/><line class="cls-10" x1="9.47" y1="223.17" x2="19.05" y2="213.59"/><line class="cls-10" x1="17.3" y1="223.17" x2="19.05" y2="221.42"/><line class="cls-10" x1="0.5" y1="133.6" x2="3.39" y2="130.64"/><line class="cls-10" x1="0.5" y1="141.51" x2="2.4" y2="139.53"/><line class="cls-10" x1="3.39" y1="138.54" x2="3.39" y2="138.54"/><line class="cls-10" x1="4.38" y1="137.55" x2="7.34" y2="134.59"/><line class="cls-10" x1="8.33" y1="133.6" x2="8.33" y2="133.6"/><line class="cls-10" x1="9.32" y1="132.61" x2="11.68" y2="130.26"/><line class="cls-10" x1="0.5" y1="149.34" x2="1.41" y2="148.43"/><line class="cls-10" x1="2.4" y1="147.44" x2="2.4" y2="147.44"/><line class="cls-10" x1="3.39" y1="146.45" x2="6.35" y2="143.49"/><line class="cls-10" x1="7.34" y1="142.5" x2="7.34" y2="142.5"/><line class="cls-10" x1="8.33" y1="141.51" x2="11.3" y2="138.54"/><line class="cls-10" x1="12.29" y1="137.55" x2="12.29" y2="137.55"/><line class="cls-10" x1="13.27" y1="136.57" x2="16.24" y2="133.6"/><line class="cls-10" x1="17.23" y1="132.61" x2="17.23" y2="132.61"/><line class="cls-10" x1="18.22" y1="131.62" x2="19.05" y2="130.79"/><line class="cls-10" x1="1.41" y1="156.26" x2="1.41" y2="156.26"/><line class="cls-10" x1="2.4" y1="155.35" x2="5.37" y2="152.38"/><line class="cls-10" x1="6.35" y1="151.39" x2="6.35" y2="151.39"/><line class="cls-10" x1="7.34" y1="150.4" x2="10.31" y2="147.44"/><line class="cls-10" x1="11.3" y1="146.45" x2="11.3" y2="146.45"/><line class="cls-10" x1="12.29" y1="145.46" x2="15.25" y2="142.5"/><line class="cls-10" x1="16.24" y1="141.51" x2="16.24" y2="141.51"/><line class="cls-10" x1="17.23" y1="140.52" x2="19.05" y2="138.7"/><line class="cls-10" x1="1.41" y1="164.17" x2="4.38" y2="161.2"/><line class="cls-10" x1="5.37" y1="160.21" x2="5.37" y2="160.21"/><line class="cls-10" x1="6.35" y1="159.23" x2="9.32" y2="156.26"/><line class="cls-10" x1="10.31" y1="155.35" x2="10.31" y2="155.35"/><line class="cls-10" x1="11.3" y1="154.36" x2="14.26" y2="151.39"/><line class="cls-10" x1="15.25" y1="150.4" x2="15.25" y2="150.4"/><line class="cls-10" x1="16.24" y1="149.42" x2="19.05" y2="146.53"/><line class="cls-10" x1="0.5" y1="172.99" x2="3.39" y2="170.1"/><line class="cls-10" x1="4.38" y1="169.11" x2="4.38" y2="169.11"/><line class="cls-10" x1="5.37" y1="168.12" x2="8.33" y2="165.16"/><line class="cls-10" x1="9.32" y1="164.17" x2="9.32" y2="164.17"/><line class="cls-10" x1="10.31" y1="163.18" x2="13.27" y2="160.21"/><line class="cls-10" x1="14.26" y1="159.23" x2="14.26" y2="159.23"/><line class="cls-10" x1="15.25" y1="158.24" x2="18.22" y2="155.35"/><line class="cls-10" x1="0.5" y1="180.9" x2="2.4" y2="178.99"/><line class="cls-10" x1="3.39" y1="178.01" x2="3.39" y2="178.01"/><line class="cls-10" x1="4.38" y1="177.02" x2="7.34" y2="174.05"/><line class="cls-10" x1="8.33" y1="173.06" x2="8.33" y2="173.06"/><line class="cls-10" x1="9.32" y1="172.08" x2="12.29" y2="169.11"/><line class="cls-10" x1="13.27" y1="168.12" x2="13.27" y2="168.12"/><line class="cls-10" x1="14.26" y1="167.13" x2="17.23" y2="164.17"/><line class="cls-10" x1="18.22" y1="163.18" x2="18.22" y2="163.18"/><line class="cls-10" x1="0.5" y1="188.8" x2="1.41" y2="187.82"/><line class="cls-10" x1="2.4" y1="186.83" x2="2.4" y2="186.83"/><line class="cls-10" x1="3.39" y1="185.84" x2="6.35" y2="182.87"/><line class="cls-10" x1="7.34" y1="181.96" x2="7.34" y2="181.96"/><line class="cls-10" x1="8.33" y1="180.97" x2="11.3" y2="178.01"/><line class="cls-10" x1="12.29" y1="177.02" x2="12.29" y2="177.02"/><line class="cls-10" x1="13.27" y1="176.03" x2="16.24" y2="173.06"/><line class="cls-10" x1="17.23" y1="172.08" x2="17.23" y2="172.08"/><line class="cls-10" x1="18.22" y1="171.09" x2="19.05" y2="170.17"/><line class="cls-10" x1="1.41" y1="195.72" x2="1.41" y2="195.72"/><line class="cls-10" x1="2.4" y1="194.73" x2="5.37" y2="191.77"/><line class="cls-10" x1="6.35" y1="190.78" x2="6.35" y2="190.78"/><line class="cls-10" x1="7.34" y1="189.79" x2="10.31" y2="186.83"/><line class="cls-10" x1="11.3" y1="185.84" x2="11.3" y2="185.84"/><line class="cls-10" x1="12.29" y1="184.85" x2="15.25" y2="181.96"/><line class="cls-10" x1="16.24" y1="180.97" x2="16.24" y2="180.97"/><line class="cls-10" x1="17.23" y1="179.98" x2="19.05" y2="178.08"/><line class="cls-10" x1="1.41" y1="203.63" x2="4.38" y2="200.67"/><line class="cls-10" x1="5.37" y1="199.68" x2="5.37" y2="199.68"/><line class="cls-10" x1="6.35" y1="198.69" x2="9.32" y2="195.72"/><line class="cls-10" x1="10.31" y1="194.73" x2="10.31" y2="194.73"/><line class="cls-10" x1="11.3" y1="193.75" x2="14.26" y2="190.78"/><line class="cls-10" x1="15.25" y1="189.79" x2="15.25" y2="189.79"/><line class="cls-10" x1="16.24" y1="188.8" x2="19.05" y2="185.99"/><line class="cls-10" x1="0.5" y1="212.45" x2="3.39" y2="209.56"/><line class="cls-10" x1="4.38" y1="208.57" x2="4.38" y2="208.57"/><line class="cls-10" x1="5.37" y1="207.58" x2="8.33" y2="204.62"/><line class="cls-10" x1="9.32" y1="203.63" x2="9.32" y2="203.63"/><line class="cls-10" x1="10.31" y1="202.64" x2="13.27" y2="199.68"/><line class="cls-10" x1="14.26" y1="198.69" x2="14.26" y2="198.69"/><line class="cls-10" x1="15.25" y1="197.7" x2="18.22" y2="194.73"/><line class="cls-10" x1="0.5" y1="220.36" x2="2.4" y2="218.38"/><line class="cls-10" x1="3.39" y1="217.39" x2="3.39" y2="217.39"/><line class="cls-10" x1="4.38" y1="216.41" x2="7.34" y2="213.44"/><line class="cls-10" x1="8.33" y1="212.45" x2="8.33" y2="212.45"/><line class="cls-10" x1="9.32" y1="211.46" x2="12.29" y2="208.57"/><line class="cls-10" x1="13.27" y1="207.58" x2="13.27" y2="207.58"/><line class="cls-10" x1="14.26" y1="206.6" x2="17.23" y2="203.63"/><line class="cls-10" x1="18.22" y1="202.64" x2="18.22" y2="202.64"/><line class="cls-10" x1="5.52" y1="223.17" x2="6.35" y2="222.34"/><line class="cls-10" x1="7.34" y1="221.35" x2="7.34" y2="221.35"/><line class="cls-10" x1="8.33" y1="220.36" x2="11.3" y2="217.39"/><line class="cls-10" x1="12.29" y1="216.41" x2="12.29" y2="216.41"/><line class="cls-10" x1="13.27" y1="215.42" x2="16.24" y2="212.45"/><line class="cls-10" x1="17.23" y1="211.46" x2="17.23" y2="211.46"/><line class="cls-10" x1="18.22" y1="210.47" x2="19.05" y2="209.64"/><line class="cls-10" x1="13.35" y1="223.17" x2="15.25" y2="221.35"/><line class="cls-10" x1="16.24" y1="220.36" x2="16.24" y2="220.36"/><line class="cls-10" x1="17.23" y1="219.37" x2="19.05" y2="217.55"/><polyline class="cls-10" points="0.5 223.17 19.05 223.17 19.05 130.25 0.5 130.25 0.5 223.17"/><line class="cls-10" x1="0.5" y1="437.22" x2="0.73" y2="436.91"/><line class="cls-10" x1="0.5" y1="445.05" x2="8.64" y2="436.91"/><line class="cls-10" x1="0.5" y1="452.96" x2="16.47" y2="436.91"/><line class="cls-10" x1="0.5" y1="460.86" x2="19.05" y2="442.24"/><line class="cls-10" x1="0.5" y1="468.7" x2="19.05" y2="450.14"/><line class="cls-10" x1="0.5" y1="476.6" x2="19.05" y2="458.05"/><line class="cls-10" x1="0.5" y1="484.51" x2="19.05" y2="465.88"/><line class="cls-10" x1="0.5" y1="492.34" x2="19.05" y2="473.79"/><line class="cls-10" x1="0.5" y1="500.25" x2="19.05" y2="481.7"/><line class="cls-10" x1="0.5" y1="508.16" x2="19.05" y2="489.53"/><line class="cls-10" x1="0.5" y1="516.07" x2="19.05" y2="497.44"/><line class="cls-10" x1="0.5" y1="523.9" x2="19.05" y2="505.35"/><line class="cls-10" x1="2.4" y1="529.91" x2="19.05" y2="513.25"/><line class="cls-10" x1="10.31" y1="529.91" x2="19.05" y2="521.09"/><line class="cls-10" x1="18.22" y1="529.91" x2="19.05" y2="528.99"/><line class="cls-10" x1="1.41" y1="440.18" x2="4.38" y2="437.22"/><line class="cls-10" x1="0.5" y1="449" x2="3.39" y2="446.11"/><line class="cls-10" x1="4.38" y1="445.12" x2="4.38" y2="445.12"/><line class="cls-10" x1="5.37" y1="444.14" x2="8.33" y2="441.17"/><line class="cls-10" x1="9.32" y1="440.18" x2="9.32" y2="440.18"/><line class="cls-10" x1="10.31" y1="439.19" x2="12.51" y2="436.91"/><line class="cls-10" x1="0.5" y1="456.91" x2="2.4" y2="454.93"/><line class="cls-10" x1="3.39" y1="453.94" x2="3.39" y2="453.94"/><line class="cls-10" x1="4.38" y1="452.96" x2="7.34" y2="450.07"/><line class="cls-10" x1="8.33" y1="449.08" x2="8.33" y2="449.08"/><line class="cls-10" x1="9.32" y1="448.09" x2="12.29" y2="445.12"/><line class="cls-10" x1="13.27" y1="444.14" x2="13.27" y2="444.14"/><line class="cls-10" x1="14.26" y1="443.15" x2="17.23" y2="440.18"/><line class="cls-10" x1="18.22" y1="439.19" x2="18.22" y2="439.19"/><line class="cls-10" x1="0.5" y1="464.82" x2="1.41" y2="463.83"/><line class="cls-10" x1="2.4" y1="462.84" x2="2.4" y2="462.84"/><line class="cls-10" x1="3.39" y1="461.85" x2="6.35" y2="458.89"/><line class="cls-10" x1="7.34" y1="457.9" x2="7.34" y2="457.9"/><line class="cls-10" x1="8.33" y1="456.91" x2="11.3" y2="453.94"/><line class="cls-10" x1="12.29" y1="452.96" x2="12.29" y2="452.96"/><line class="cls-10" x1="13.27" y1="451.97" x2="16.24" y2="449.08"/><line class="cls-10" x1="17.23" y1="448.09" x2="17.23" y2="448.09"/><line class="cls-10" x1="18.22" y1="447.1" x2="19.05" y2="446.19"/><line class="cls-10" x1="1.41" y1="471.74" x2="1.41" y2="471.74"/><line class="cls-10" x1="2.4" y1="470.75" x2="5.37" y2="467.78"/><line class="cls-10" x1="6.35" y1="466.79" x2="6.35" y2="466.79"/><line class="cls-10" x1="7.34" y1="465.81" x2="10.31" y2="462.84"/><line class="cls-10" x1="11.3" y1="461.85" x2="11.3" y2="461.85"/><line class="cls-10" x1="12.29" y1="460.86" x2="15.25" y2="457.9"/><line class="cls-10" x1="16.24" y1="456.91" x2="16.24" y2="456.91"/><line class="cls-10" x1="17.23" y1="455.92" x2="19.05" y2="454.1"/><line class="cls-10" x1="1.41" y1="479.57" x2="4.38" y2="476.68"/><line class="cls-10" x1="5.37" y1="475.69" x2="5.37" y2="475.69"/><line class="cls-10" x1="6.35" y1="474.7" x2="9.32" y2="471.74"/><line class="cls-10" x1="10.31" y1="470.75" x2="10.31" y2="470.75"/><line class="cls-10" x1="11.3" y1="469.76" x2="14.26" y2="466.79"/><line class="cls-10" x1="15.25" y1="465.81" x2="15.25" y2="465.81"/><line class="cls-10" x1="16.24" y1="464.82" x2="19.05" y2="461.93"/><line class="cls-10" x1="0.5" y1="488.47" x2="3.39" y2="485.5"/><line class="cls-10" x1="4.38" y1="484.51" x2="4.38" y2="484.51"/><line class="cls-10" x1="5.37" y1="483.52" x2="8.33" y2="480.56"/><line class="cls-10" x1="9.32" y1="479.57" x2="9.32" y2="479.57"/><line class="cls-10" x1="10.31" y1="478.58" x2="13.27" y2="475.69"/><line class="cls-10" x1="14.26" y1="474.7" x2="14.26" y2="474.7"/><line class="cls-10" x1="15.25" y1="473.71" x2="18.22" y2="470.75"/><line class="cls-10" x1="0.5" y1="496.3" x2="2.4" y2="494.4"/><line class="cls-10" x1="3.39" y1="493.41" x2="3.39" y2="493.41"/><line class="cls-10" x1="4.38" y1="492.42" x2="7.34" y2="489.45"/><line class="cls-10" x1="8.33" y1="488.47" x2="8.33" y2="488.47"/><line class="cls-10" x1="9.32" y1="487.48" x2="12.29" y2="484.51"/><line class="cls-10" x1="13.27" y1="483.52" x2="13.27" y2="483.52"/><line class="cls-10" x1="14.26" y1="482.53" x2="17.23" y2="479.57"/><line class="cls-10" x1="18.22" y1="478.58" x2="18.22" y2="478.58"/><line class="cls-10" x1="0.5" y1="504.21" x2="1.41" y2="503.29"/><line class="cls-10" x1="2.4" y1="502.3" x2="2.4" y2="502.3"/><line class="cls-10" x1="3.39" y1="501.32" x2="6.35" y2="498.35"/><line class="cls-10" x1="7.34" y1="497.36" x2="7.34" y2="497.36"/><line class="cls-10" x1="8.33" y1="496.37" x2="11.3" y2="493.41"/><line class="cls-10" x1="12.29" y1="492.42" x2="12.29" y2="492.42"/><line class="cls-10" x1="13.27" y1="491.43" x2="16.24" y2="488.47"/><line class="cls-10" x1="17.23" y1="487.48" x2="17.23" y2="487.48"/><line class="cls-10" x1="18.22" y1="486.49" x2="19.05" y2="485.65"/><line class="cls-10" x1="1.41" y1="511.12" x2="1.41" y2="511.12"/><line class="cls-10" x1="2.4" y1="510.14" x2="5.37" y2="507.17"/><line class="cls-10" x1="6.35" y1="506.18" x2="6.35" y2="506.18"/><line class="cls-10" x1="7.34" y1="505.19" x2="10.31" y2="502.3"/><line class="cls-10" x1="11.3" y1="501.32" x2="11.3" y2="501.32"/><line class="cls-10" x1="12.29" y1="500.33" x2="15.25" y2="497.36"/><line class="cls-10" x1="16.24" y1="496.37" x2="16.24" y2="496.37"/><line class="cls-10" x1="17.23" y1="495.38" x2="19.05" y2="493.48"/><line class="cls-10" x1="1.41" y1="519.03" x2="4.38" y2="516.07"/><line class="cls-10" x1="5.37" y1="515.08" x2="5.37" y2="515.08"/><line class="cls-10" x1="6.35" y1="514.09" x2="9.32" y2="511.12"/><line class="cls-10" x1="10.31" y1="510.14" x2="10.31" y2="510.14"/><line class="cls-10" x1="11.3" y1="509.15" x2="14.26" y2="506.18"/><line class="cls-10" x1="15.25" y1="505.19" x2="15.25" y2="505.19"/><line class="cls-10" x1="16.24" y1="504.21" x2="19.05" y2="501.39"/><line class="cls-10" x1="0.5" y1="527.85" x2="3.39" y2="524.96"/><line class="cls-10" x1="4.38" y1="523.97" x2="4.38" y2="523.97"/><line class="cls-10" x1="5.37" y1="522.99" x2="8.33" y2="520.02"/><line class="cls-10" x1="9.32" y1="519.03" x2="9.32" y2="519.03"/><line class="cls-10" x1="10.31" y1="518.04" x2="13.27" y2="515.08"/><line class="cls-10" x1="14.26" y1="514.09" x2="14.26" y2="514.09"/><line class="cls-10" x1="15.25" y1="513.1" x2="18.22" y2="510.14"/><line class="cls-10" x1="6.35" y1="529.91" x2="7.34" y2="528.92"/><line class="cls-10" x1="8.33" y1="527.93" x2="8.33" y2="527.93"/><line class="cls-10" x1="9.32" y1="526.94" x2="12.29" y2="523.97"/><line class="cls-10" x1="13.27" y1="522.99" x2="13.27" y2="522.99"/><line class="cls-10" x1="14.26" y1="522" x2="17.23" y2="519.03"/><line class="cls-10" x1="18.22" y1="518.04" x2="18.22" y2="518.04"/><line class="cls-10" x1="14.26" y1="529.91" x2="16.24" y2="527.93"/><line class="cls-10" x1="17.23" y1="526.94" x2="17.23" y2="526.94"/><line class="cls-10" x1="18.22" y1="525.95" x2="19.05" y2="525.04"/><polyline class="cls-10" points="19.05 436.91 0.5 436.91 0.5 529.91 19.05 529.91 19.05 436.91"/><line class="cls-10" x1="0.5" y1="768.36" x2="6.66" y2="762.2"/><line class="cls-10" x1="0.5" y1="776.27" x2="14.57" y2="762.2"/><line class="cls-10" x1="3.85" y1="780.75" x2="22.4" y2="762.2"/><line class="cls-10" x1="11.75" y1="780.75" x2="30.31" y2="762.2"/><line class="cls-10" x1="19.59" y1="780.75" x2="38.21" y2="762.2"/><line class="cls-10" x1="27.49" y1="780.75" x2="46.05" y2="762.2"/><line class="cls-10" x1="35.4" y1="780.75" x2="53.95" y2="762.2"/><line class="cls-10" x1="43.23" y1="780.75" x2="61.86" y2="762.2"/><line class="cls-10" x1="51.14" y1="780.75" x2="69.77" y2="762.2"/><line class="cls-10" x1="59.05" y1="780.75" x2="77.6" y2="762.2"/><line class="cls-10" x1="66.96" y1="780.75" x2="85.51" y2="762.2"/><line class="cls-10" x1="74.79" y1="780.75" x2="93.42" y2="762.2"/><line class="cls-10" x1="82.7" y1="780.75" x2="93.42" y2="770.03"/><line class="cls-10" x1="90.6" y1="780.75" x2="93.42" y2="777.94"/><line class="cls-10" x1="0.5" y1="764.4" x2="2.71" y2="762.2"/><line class="cls-10" x1="0.5" y1="772.31" x2="2.4" y2="770.41"/><line class="cls-10" x1="3.39" y1="769.42" x2="3.39" y2="769.42"/><line class="cls-10" x1="4.38" y1="768.43" x2="7.34" y2="765.47"/><line class="cls-10" x1="8.33" y1="764.48" x2="8.33" y2="764.48"/><line class="cls-10" x1="9.32" y1="763.49" x2="10.61" y2="762.2"/><line class="cls-10" x1="0.5" y1="780.22" x2="1.41" y2="779.23"/><line class="cls-10" x1="2.4" y1="778.24" x2="2.4" y2="778.24"/><line class="cls-10" x1="3.39" y1="777.25" x2="6.35" y2="774.29"/><line class="cls-10" x1="7.34" y1="773.3" x2="7.34" y2="773.3"/><line class="cls-10" x1="8.33" y1="772.31" x2="11.3" y2="769.42"/><line class="cls-10" x1="12.29" y1="768.43" x2="12.29" y2="768.43"/><line class="cls-10" x1="13.27" y1="767.45" x2="16.24" y2="764.48"/><line class="cls-10" x1="17.23" y1="763.49" x2="17.23" y2="763.49"/><line class="cls-10" x1="18.22" y1="762.5" x2="18.44" y2="762.2"/><line class="cls-10" x1="7.8" y1="780.75" x2="10.31" y2="778.24"/><line class="cls-10" x1="11.3" y1="777.25" x2="11.3" y2="777.25"/><line class="cls-10" x1="12.29" y1="776.27" x2="15.25" y2="773.3"/><line class="cls-10" x1="16.24" y1="772.31" x2="16.24" y2="772.31"/><line class="cls-10" x1="17.23" y1="771.4" x2="20.19" y2="768.43"/><line class="cls-10" x1="21.11" y1="767.45" x2="21.11" y2="767.45"/><line class="cls-10" x1="22.09" y1="766.46" x2="25.06" y2="763.49"/><line class="cls-10" x1="26.05" y1="762.5" x2="26.05" y2="762.5"/><line class="cls-10" x1="16.24" y1="780.22" x2="19.21" y2="777.25"/><line class="cls-10" x1="20.19" y1="776.27" x2="20.19" y2="776.27"/><line class="cls-10" x1="21.11" y1="775.28" x2="24.07" y2="772.31"/><line class="cls-10" x1="25.06" y1="771.4" x2="25.06" y2="771.4"/><line class="cls-10" x1="26.05" y1="770.41" x2="29.01" y2="767.45"/><line class="cls-10" x1="30" y1="766.46" x2="30" y2="766.46"/><line class="cls-10" x1="30.99" y1="765.47" x2="33.96" y2="762.5"/><line class="cls-10" x1="24.07" y1="780.22" x2="24.07" y2="780.22"/><line class="cls-10" x1="25.06" y1="779.23" x2="28.03" y2="776.27"/><line class="cls-10" x1="29.01" y1="775.28" x2="29.01" y2="775.28"/><line class="cls-10" x1="30" y1="774.29" x2="32.97" y2="771.4"/><line class="cls-10" x1="33.96" y1="770.41" x2="33.96" y2="770.41"/><line class="cls-10" x1="34.94" y1="769.42" x2="37.91" y2="766.46"/><line class="cls-10" x1="38.9" y1="765.47" x2="38.9" y2="765.47"/><line class="cls-10" x1="39.89" y1="764.48" x2="42.17" y2="762.2"/><line class="cls-10" x1="31.45" y1="780.75" x2="31.98" y2="780.22"/><line class="cls-10" x1="32.97" y1="779.23" x2="32.97" y2="779.23"/><line class="cls-10" x1="33.96" y1="778.24" x2="36.92" y2="775.28"/><line class="cls-10" x1="37.91" y1="774.29" x2="37.91" y2="774.29"/><line class="cls-10" x1="38.9" y1="773.3" x2="41.86" y2="770.41"/><line class="cls-10" x1="42.85" y1="769.42" x2="42.85" y2="769.42"/><line class="cls-10" x1="43.84" y1="768.43" x2="46.81" y2="765.47"/><line class="cls-10" x1="47.8" y1="764.48" x2="47.8" y2="764.48"/><line class="cls-10" x1="48.71" y1="763.49" x2="50" y2="762.2"/><line class="cls-10" x1="39.36" y1="780.75" x2="40.88" y2="779.23"/><line class="cls-10" x1="41.86" y1="778.24" x2="41.86" y2="778.24"/><line class="cls-10" x1="42.85" y1="777.25" x2="45.82" y2="774.29"/><line class="cls-10" x1="46.81" y1="773.3" x2="46.81" y2="773.3"/><line class="cls-10" x1="47.8" y1="772.31" x2="50.68" y2="769.42"/><line class="cls-10" x1="51.67" y1="768.43" x2="51.67" y2="768.43"/><line class="cls-10" x1="52.66" y1="767.45" x2="55.63" y2="764.48"/><line class="cls-10" x1="56.62" y1="763.49" x2="56.62" y2="763.49"/><line class="cls-10" x1="57.6" y1="762.5" x2="57.91" y2="762.2"/><line class="cls-10" x1="47.19" y1="780.75" x2="49.7" y2="778.24"/><line class="cls-10" x1="50.68" y1="777.25" x2="50.68" y2="777.25"/><line class="cls-10" x1="51.67" y1="776.27" x2="54.64" y2="773.3"/><line class="cls-10" x1="55.63" y1="772.31" x2="55.63" y2="772.31"/><line class="cls-10" x1="56.62" y1="771.4" x2="59.58" y2="768.43"/><line class="cls-10" x1="60.57" y1="767.45" x2="60.57" y2="767.45"/><line class="cls-10" x1="61.56" y1="766.46" x2="64.52" y2="763.49"/><line class="cls-10" x1="65.51" y1="762.5" x2="65.51" y2="762.5"/><line class="cls-10" x1="55.63" y1="780.22" x2="58.59" y2="777.25"/><line class="cls-10" x1="59.58" y1="776.27" x2="59.58" y2="776.27"/><line class="cls-10" x1="60.57" y1="775.28" x2="63.53" y2="772.31"/><line class="cls-10" x1="64.52" y1="771.4" x2="64.52" y2="771.4"/><line class="cls-10" x1="65.51" y1="770.41" x2="68.48" y2="767.45"/><line class="cls-10" x1="69.47" y1="766.46" x2="69.47" y2="766.46"/><line class="cls-10" x1="70.45" y1="765.47" x2="73.42" y2="762.5"/><line class="cls-10" x1="63.53" y1="780.22" x2="63.53" y2="780.22"/><line class="cls-10" x1="64.52" y1="779.23" x2="67.49" y2="776.27"/><line class="cls-10" x1="68.48" y1="775.28" x2="68.48" y2="775.28"/><line class="cls-10" x1="69.47" y1="774.29" x2="72.43" y2="771.4"/><line class="cls-10" x1="73.42" y1="770.41" x2="73.42" y2="770.41"/><line class="cls-10" x1="74.41" y1="769.42" x2="77.3" y2="766.46"/><line class="cls-10" x1="78.29" y1="765.47" x2="78.29" y2="765.47"/><line class="cls-10" x1="79.27" y1="764.48" x2="81.56" y2="762.2"/><line class="cls-10" x1="70.83" y1="780.75" x2="71.44" y2="780.22"/><line class="cls-10" x1="72.43" y1="779.23" x2="72.43" y2="779.23"/><line class="cls-10" x1="73.42" y1="778.24" x2="76.31" y2="775.28"/><line class="cls-10" x1="77.3" y1="774.29" x2="77.3" y2="774.29"/><line class="cls-10" x1="78.29" y1="773.3" x2="81.25" y2="770.41"/><line class="cls-10" x1="82.24" y1="769.42" x2="82.24" y2="769.42"/><line class="cls-10" x1="83.23" y1="768.43" x2="86.19" y2="765.47"/><line class="cls-10" x1="87.18" y1="764.48" x2="87.18" y2="764.48"/><line class="cls-10" x1="88.17" y1="763.49" x2="89.46" y2="762.2"/><line class="cls-10" x1="78.74" y1="780.75" x2="80.26" y2="779.23"/><line class="cls-10" x1="81.25" y1="778.24" x2="81.25" y2="778.24"/><line class="cls-10" x1="82.24" y1="777.25" x2="85.21" y2="774.29"/><line class="cls-10" x1="86.19" y1="773.3" x2="86.19" y2="773.3"/><line class="cls-10" x1="87.18" y1="772.31" x2="90.15" y2="769.42"/><line class="cls-10" x1="91.14" y1="768.43" x2="91.14" y2="768.43"/><line class="cls-10" x1="92.12" y1="767.45" x2="93.42" y2="766.15"/><line class="cls-10" x1="86.65" y1="780.75" x2="89.16" y2="778.24"/><line class="cls-10" x1="90.15" y1="777.25" x2="90.15" y2="777.25"/><line class="cls-10" x1="91.14" y1="776.27" x2="93.42" y2="773.98"/><polyline class="cls-10" points="0.5 780.75 0.5 762.2 93.42 762.2 93.42 780.75 0.5 780.75"/><line class="cls-10" x1="381.52" y1="765.85" x2="385.17" y2="762.2"/><line class="cls-10" x1="381.52" y1="773.76" x2="393" y2="762.2"/><line class="cls-10" x1="381.52" y1="769.8" x2="383.88" y2="767.45"/><line class="cls-10" x1="384.87" y1="766.46" x2="384.87" y2="766.46"/><line class="cls-10" x1="385.86" y1="765.47" x2="388.82" y2="762.5"/><line class="cls-10" x1="381.52" y1="777.71" x2="382.89" y2="776.27"/><line class="cls-10" x1="383.88" y1="775.28" x2="383.88" y2="775.28"/><line class="cls-10" x1="384.87" y1="774.29" x2="387.83" y2="771.4"/><line class="cls-10" x1="388.82" y1="770.41" x2="388.82" y2="770.41"/><line class="cls-10" x1="389.81" y1="769.42" x2="392.78" y2="766.46"/><line class="cls-10" x1="393.76" y1="765.47" x2="393.76" y2="765.47"/><line class="cls-10" x1="394.75" y1="764.48" x2="396.96" y2="762.2"/><line class="cls-10" x1="386.31" y1="780.75" x2="386.84" y2="780.22"/><line class="cls-10" x1="387.83" y1="779.23" x2="387.83" y2="779.23"/><line class="cls-10" x1="388.82" y1="778.24" x2="391.79" y2="775.28"/><line class="cls-10" x1="392.78" y1="774.29" x2="392.78" y2="774.29"/><line class="cls-10" x1="393.76" y1="773.3" x2="396.65" y2="770.41"/><line class="cls-10" x1="394.14" y1="780.75" x2="395.66" y2="779.23"/><line class="cls-10" x1="396.65" y1="778.24" x2="396.65" y2="778.24"/><polyline class="cls-10" points="400.07 762.2 381.52 762.2 381.52 780.75 400.07 780.75"/></svg>