<svg xmlns="http://www.w3.org/2000/svg" width="25" height="20" viewBox="0 0 25 20">
    <path fill="#0070C9" fill-rule="nonzero" d="M7.422 11.538c0 2.762 2.273 5 5.078 5s5.078-2.238 5.078-5c0-2.761-2.273-5-5.078-5s-5.078 2.239-5.078 5zm16.015-8.461H17.97C17.579 1.538 17.187 0 15.625 0h-6.25C7.813 0 7.422 1.538 7.031 3.077H1.562C.703 3.077 0 3.769 0 4.615v13.847C0 19.308.703 20 1.562 20h21.875c.86 0 1.563-.692 1.563-1.538V4.615c0-.846-.703-1.538-1.563-1.538zM12.5 18.365c-3.83 0-6.934-3.056-6.934-6.827 0-3.77 3.105-6.826 6.934-6.826 3.83 0 6.934 3.056 6.934 6.826 0 3.77-3.105 6.827-6.934 6.827zM23.437 7.692h-3.124V6.154h3.124v1.538z"/>
</svg>
