<svg id="_13" data-name="13" xmlns="http://www.w3.org/2000/svg" viewBox="0 0 1110.62 830.35"><defs><style>.cls-1{font-size:40px;}.cls-1,.cls-14,.cls-3{font-family:PTSans-Regular, PT Sans;}.cls-10,.cls-11,.cls-12,.cls-13,.cls-16,.cls-2,.cls-4,.cls-5,.cls-6,.cls-7,.cls-8,.cls-9{fill:none;stroke-linecap:round;stroke-linejoin:round;}.cls-10,.cls-11,.cls-12,.cls-13,.cls-2,.cls-4,.cls-5,.cls-6,.cls-7,.cls-8,.cls-9{stroke:#000;}.cls-2{stroke-width:0.5px;}.cls-3{font-size:36px;}.cls-10,.cls-11,.cls-12,.cls-13,.cls-5,.cls-6,.cls-7,.cls-8,.cls-9{stroke-width:0.25px;}.cls-5{stroke-dasharray:1 1;}.cls-7{stroke-dasharray:1.01 1.01;}.cls-8{stroke-dasharray:0.99 0.99;}.cls-9{stroke-dasharray:1.01 1.01;}.cls-10{stroke-dasharray:1.02 1.02;}.cls-11{stroke-dasharray:1.02 1.02;}.cls-12{stroke-dasharray:1 1;}.cls-13{stroke-dasharray:1 1;}.cls-14{isolation:isolate;font-size:12px;fill:#969696;}.cls-15{letter-spacing:-0.01em;}.cls-16{stroke:#969696;stroke-width:0.75px;}</style></defs><title>3floor_13flat</title><text class="cls-1" transform="translate(695.01 297.93)">3K</text><text class="cls-1" transform="translate(670.23 348.1)">75.63</text><text class="cls-1" transform="translate(675.85 248.02)">№13</text><polyline class="cls-2" points="655.94 358.91 655.94 209.84 780.26 209.84 780.26 358.91"/><line class="cls-2" x1="655.94" y1="259.62" x2="780.26" y2="259.62"/><line class="cls-2" x1="655.94" y1="358.91" x2="780.26" y2="358.91"/><line class="cls-2" x1="655.94" y1="309.41" x2="780.26" y2="309.41"/><text class="cls-3" transform="translate(76.08 698.21)">6.88</text><text class="cls-3" transform="translate(257.23 571.02)">5.33</text><text class="cls-3" transform="translate(443.09 597.1)">11.90</text><text class="cls-3" transform="translate(219.76 750.55)">2.66</text><text class="cls-3" transform="translate(114.4 522.2)">3.95</text><text class="cls-3" transform="translate(110.06 176.15)">12.75</text><text class="cls-3" transform="translate(361.89 176.15)">11.33</text><text class="cls-3" transform="translate(669.29 176.15)">20.32</text><text class="cls-3" transform="translate(639.53 528.09)">0.51</text><line class="cls-4" x1="290.48" y1="459.08" x2="290.48" y2="452.86"/><line class="cls-4" x1="219.97" y1="459.08" x2="219.97" y2="452.86"/><line class="cls-4" x1="306.16" y1="452.86" x2="306.16" y2="459.08"/><line class="cls-4" x1="368.86" y1="452.86" x2="368.86" y2="459.08"/><line class="cls-4" x1="531.85" y1="459.08" x2="531.85" y2="452.86"/><line class="cls-4" x1="602.44" y1="459.08" x2="602.44" y2="452.86"/><line class="cls-4" x1="531.85" y1="452.86" x2="368.86" y2="452.86"/><line class="cls-4" x1="306.16" y1="452.86" x2="290.48" y2="452.86"/><polyline class="cls-4" points="219.97 452.86 208.94 452.86 208.94 459.08 219.97 459.08"/><line class="cls-4" x1="290.48" y1="459.08" x2="306.16" y2="459.08"/><line class="cls-4" x1="368.86" y1="459.08" x2="531.85" y2="459.08"/><line class="cls-4" x1="219.97" y1="459.08" x2="219.97" y2="452.86"/><line class="cls-4" x1="290.48" y1="459.08" x2="290.48" y2="452.86"/><line class="cls-4" x1="368.86" y1="452.86" x2="368.86" y2="459.08"/><line class="cls-4" x1="306.16" y1="452.86" x2="306.16" y2="459.08"/><line class="cls-4" x1="602.44" y1="459.08" x2="602.44" y2="452.86"/><line class="cls-4" x1="531.85" y1="459.08" x2="531.85" y2="452.86"/><polyline class="cls-4" points="379.81 658.15 373.59 658.15 379.81 658.15"/><line class="cls-4" x1="379.81" y1="619" x2="373.59" y2="619"/><polyline class="cls-4" points="379.81 501.47 373.59 501.47 373.59 459.08"/><line class="cls-4" x1="373.59" y1="619" x2="373.59" y2="658.15"/><polyline class="cls-4" points="379.81 664.46 379.81 658.15 379.81 619"/><polyline class="cls-4" points="379.81 501.47 379.81 459.08 373.59 459.08"/><line class="cls-4" x1="379.81" y1="501.47" x2="373.59" y2="501.47"/><line class="cls-4" x1="379.81" y1="619" x2="373.59" y2="619"/><polyline class="cls-4" points="516.17 129.95 516.17 455.18 522.48 455.18 522.48 129.95 516.17 129.95"/><polyline class="cls-4" points="290.48 129.95 290.48 455.18 296.78 455.18 296.78 129.95 290.48 129.95"/><line class="cls-4" x1="224.62" y1="658.15" x2="224.62" y2="664.46"/><line class="cls-4" x1="279.53" y1="658.15" x2="279.53" y2="664.46"/><line class="cls-4" x1="208.94" y1="664.46" x2="224.62" y2="664.46"/><line class="cls-4" x1="279.53" y1="664.46" x2="328.14" y2="664.46"/><line class="cls-4" x1="334.36" y1="664.46" x2="373.59" y2="664.46"/><line class="cls-4" x1="373.59" y1="658.15" x2="279.53" y2="658.15"/><line class="cls-4" x1="224.62" y1="658.15" x2="208.94" y2="658.15"/><line class="cls-4" x1="279.53" y1="658.15" x2="279.53" y2="664.46"/><line class="cls-4" x1="224.62" y1="658.15" x2="224.62" y2="664.46"/><line class="cls-4" x1="202.72" y1="568.82" x2="53.75" y2="568.82"/><polyline class="cls-4" points="47.53 568.82 16.18 568.82 16.18 575.12 202.72 575.12"/><polyline class="cls-4" points="328.14 672.25 331.2 672.25 334.36 672.25"/><polyline class="cls-4" points="328.14 703.61 331.2 703.61 334.36 703.61"/><line class="cls-4" x1="328.14" y1="664.46" x2="328.14" y2="672.25"/><polyline class="cls-4" points="328.14 703.61 328.14 801.57 334.36 801.57 334.36 715.38"/><line class="cls-4" x1="334.36" y1="709.08" x2="334.36" y2="703.61"/><line class="cls-4" x1="334.36" y1="672.25" x2="334.36" y2="664.46"/><line class="cls-5" x1="328.14" y1="703.61" x2="328.14" y2="672.25"/><line class="cls-5" x1="334.36" y1="703.61" x2="334.36" y2="672.25"/><path class="cls-5" d="M317.24,730.07A31.53,31.53,0,0,0,328,732" transform="translate(0.23 -28.35)"/><line class="cls-4" x1="328.14" y1="672.25" x2="317.35" y2="701.78"/><polyline class="cls-4" points="334.36 703.61 331.2 703.61 328.14 703.61 331.2 703.61"/><polyline class="cls-4" points="334.36 672.25 331.2 672.25 328.14 672.25 331.2 672.25"/><polyline class="cls-4" points="208.94 399.53 16.18 399.53 16.18 405.83 47.53 405.83"/><line class="cls-4" x1="53.75" y1="405.83" x2="202.72" y2="405.83"/><polyline class="cls-4" points="53.75 564.92 50.68 564.92 47.53 564.92"/><polyline class="cls-4" points="53.75 533.57 50.68 533.57 47.53 533.57"/><line class="cls-4" x1="53.75" y1="568.82" x2="53.75" y2="564.92"/><line class="cls-4" x1="53.75" y1="533.57" x2="53.75" y2="405.83"/><line class="cls-4" x1="47.53" y1="405.83" x2="47.53" y2="523.37"/><line class="cls-4" x1="47.53" y1="529.67" x2="47.53" y2="533.57"/><line class="cls-4" x1="47.53" y1="564.92" x2="47.53" y2="568.82"/><line class="cls-5" x1="53.75" y1="533.57" x2="53.75" y2="564.92"/><line class="cls-5" x1="47.53" y1="533.57" x2="47.53" y2="564.92"/><path class="cls-5" d="M64.28,563.89A31.34,31.34,0,0,0,53.57,562" transform="translate(0.23 -28.35)"/><line class="cls-4" x1="53.75" y1="564.92" x2="64.53" y2="535.48"/><polyline class="cls-4" points="47.53 533.57 50.68 533.57 53.75 533.57 50.68 533.57"/><polyline class="cls-4" points="47.53 564.92 50.68 564.92 53.75 564.92 50.68 564.92"/><polyline class="cls-4" points="47.53 523.37 16.18 523.37 16.18 529.67 47.53 529.67"/><line class="cls-4" x1="334.36" y1="715.38" x2="373.59" y2="715.38"/><line class="cls-4" x1="373.59" y1="709.08" x2="334.36" y2="709.08"/><line class="cls-4" x1="373.59" y1="664.46" x2="373.59" y2="709.08"/><polyline class="cls-4" points="373.59 715.38 373.59 801.57 379.81 801.57 379.81 664.46"/><line class="cls-4" x1="202.72" y1="575.12" x2="208.94" y2="575.12"/><line class="cls-4" x1="202.72" y1="658.15" x2="208.94" y2="658.15"/><line class="cls-4" x1="202.72" y1="498.32" x2="208.94" y2="498.32"/><line class="cls-4" x1="202.72" y1="553.14" x2="208.94" y2="553.14"/><line class="cls-4" x1="208.94" y1="801.57" x2="208.94" y2="664.46"/><line class="cls-4" x1="208.94" y1="575.12" x2="208.94" y2="553.14"/><polyline class="cls-4" points="208.94 399.53 208.94 405.83 208.94 498.32"/><line class="cls-4" x1="202.72" y1="405.83" x2="202.72" y2="498.32"/><line class="cls-4" x1="202.72" y1="553.14" x2="202.72" y2="568.82"/><polyline class="cls-4" points="202.72 658.15 202.72 801.57 208.94 801.57"/><line class="cls-4" x1="202.72" y1="658.15" x2="208.94" y2="658.15"/><line class="cls-4" x1="202.72" y1="575.12" x2="208.94" y2="575.12"/><line class="cls-4" x1="202.72" y1="553.14" x2="208.94" y2="553.14"/><line class="cls-4" x1="202.72" y1="498.32" x2="208.94" y2="498.32"/><line class="cls-4" x1="739.46" y1="505.53" x2="755.64" y2="477"/><line class="cls-4" x1="661.08" y1="643.97" x2="670.7" y2="626.88"/><line class="cls-4" x1="670.7" y1="626.88" x2="666.64" y2="624.56"/><line class="cls-4" x1="739.46" y1="505.53" x2="735.4" y2="503.21"/><polyline class="cls-4" points="666.64 624.56 663.24 622.65 662.57 622.24"/><polyline class="cls-4" points="735.4 503.21 732 501.22 731.25 500.89 747.43 472.35"/><line class="cls-4" x1="662.57" y1="622.24" x2="652.87" y2="639.32"/><line class="cls-4" x1="661.08" y1="643.97" x2="652.87" y2="639.32"/><line class="cls-4" x1="755.64" y1="477" x2="747.43" y2="472.35"/><polyline class="cls-4" points="675.01 625.72 740.63 509.76 744.03 511.67 678.42 627.63 675.01 625.72"/><line class="cls-4" x1="731.25" y1="500.89" x2="662.57" y2="622.24"/><polyline class="cls-4" points="732 501.22 729.84 505.03 732.58 506.53 731.58 508.27 732.33 508.6 735.4 503.21"/><polyline class="cls-4" points="711.93 544.6 713.5 541.86 712.84 541.45 711.84 543.19 709.11 541.61 708.52 542.61"/><line class="cls-4" x1="713.5" y1="541.86" x2="732.33" y2="508.6"/><polyline class="cls-4" points="728.51 504.2 726.19 508.35 710.1 536.72"/><polyline class="cls-4" points="726.19 508.35 730.26 510.68 732.58 506.53 728.51 504.2"/><polyline class="cls-4" points="711.84 543.19 714.16 539.04 710.1 536.72 707.78 540.87 711.84 543.19"/><line class="cls-4" x1="714.17" y1="539.04" x2="730.26" y2="510.67"/><line class="cls-4" x1="726.19" y1="508.35" x2="710.1" y2="536.72"/><line class="cls-4" x1="728.18" y1="509.51" x2="712.09" y2="537.88"/><polyline class="cls-4" points="708.52 542.61 707.94 543.69 710.68 545.18 709.69 546.92 710.43 547.25 711.93 544.6"/><polyline class="cls-4" points="690.11 583.17 691.6 580.51 690.94 580.1 689.95 581.76 687.21 580.27 686.63 581.26"/><line class="cls-4" x1="691.6" y1="580.51" x2="710.43" y2="547.25"/><polyline class="cls-4" points="706.62 542.86 704.29 547 688.2 575.37"/><polyline class="cls-4" points="704.29 547 708.36 549.33 710.68 545.18 706.62 542.86"/><polyline class="cls-4" points="689.95 581.76 692.27 577.7 688.2 575.37 685.88 579.52 689.95 581.76"/><line class="cls-4" x1="692.27" y1="577.69" x2="708.36" y2="549.33"/><line class="cls-4" x1="704.29" y1="547" x2="688.2" y2="575.37"/><line class="cls-4" x1="706.37" y1="548.17" x2="690.28" y2="576.53"/><polyline class="cls-4" points="686.63 581.26 686.05 582.34 688.78 583.83 687.87 585.58 688.53 585.91 690.11 583.17"/><polyline class="cls-4" points="666.64 624.56 669.71 619.17 669.04 618.75 668.05 620.41 665.39 618.92 663.24 622.65"/><line class="cls-4" x1="669.71" y1="619.17" x2="688.53" y2="585.91"/><polyline class="cls-4" points="684.72 581.51 682.4 585.66 666.3 614.02"/><polyline class="cls-4" points="682.4 585.66 686.46 587.9 688.78 583.83 684.72 581.51"/><polyline class="cls-4" points="668.05 620.41 670.37 616.35 666.3 614.02 663.98 618.09 668.05 620.41"/><line class="cls-4" x1="670.37" y1="616.35" x2="686.46" y2="587.9"/><line class="cls-4" x1="682.4" y1="585.66" x2="666.31" y2="614.02"/><line class="cls-4" x1="684.47" y1="586.82" x2="668.38" y2="615.19"/><polyline class="cls-4" points="731.25 500.89 732 501.22 735.4 503.21 732 501.22"/><polyline class="cls-4" points="662.57 622.24 663.24 622.65 666.64 624.56 663.24 622.65"/><line class="cls-4" x1="740.62" y1="509.76" x2="739.96" y2="509.35"/><polyline class="cls-4" points="733.82 505.95 734.24 505.2 733.82 505.95"/><polyline class="cls-4" points="734.24 505.2 735.4 503.21 734.24 505.2"/><line class="cls-4" x1="675.01" y1="625.72" x2="674.35" y2="625.31"/><polyline class="cls-4" points="668.21 621.82 667.8 622.57 668.21 621.82"/><polyline class="cls-4" points="667.8 622.57 666.64 624.56 667.8 622.57"/><polyline class="cls-4" points="739.96 509.35 737.89 508.19 733.82 505.95"/><polyline class="cls-4" points="674.35 625.31 672.28 624.14 668.21 621.82"/><polyline class="cls-4" points="629.81 480.23 630.64 480.23 629.81 480.23"/><line class="cls-4" x1="630.64" y1="480.23" x2="743.53" y2="480.23"/><polyline class="cls-4" points="602.44 452.86 622.01 452.86 743.53 452.86"/><line class="cls-4" x1="630.64" y1="481.06" x2="743.53" y2="481.06"/><line class="cls-4" x1="743.53" y1="472.44" x2="743.53" y2="452.86"/><line class="cls-6" x1="290.48" y1="459.08" x2="289.98" y2="459.08"/><line class="cls-7" x1="288.97" y1="459.08" x2="220.98" y2="459.08"/><line class="cls-6" x1="220.47" y1="459.08" x2="219.97" y2="459.08"/><line class="cls-6" x1="290.48" y1="452.73" x2="289.98" y2="452.73"/><line class="cls-7" x1="288.97" y1="452.73" x2="220.98" y2="452.73"/><line class="cls-6" x1="220.47" y1="452.73" x2="219.97" y2="452.73"/><line class="cls-6" x1="368.86" y1="452.73" x2="368.36" y2="452.73"/><line class="cls-8" x1="367.37" y1="452.73" x2="306.41" y2="452.73"/><line class="cls-6" x1="305.92" y1="452.73" x2="305.42" y2="452.73"/><line class="cls-6" x1="602.44" y1="452.73" x2="601.94" y2="452.73"/><line class="cls-9" x1="600.93" y1="452.73" x2="532.85" y2="452.73"/><line class="cls-6" x1="532.35" y1="452.73" x2="531.85" y2="452.73"/><line class="cls-6" x1="602.44" y1="459.08" x2="601.94" y2="459.08"/><line class="cls-9" x1="600.93" y1="459.08" x2="532.85" y2="459.08"/><line class="cls-6" x1="532.35" y1="459.08" x2="531.85" y2="459.08"/><line class="cls-6" x1="368.86" y1="459.08" x2="368.36" y2="459.08"/><line class="cls-8" x1="367.37" y1="459.08" x2="306.41" y2="459.08"/><line class="cls-6" x1="305.92" y1="459.08" x2="305.42" y2="459.08"/><line class="cls-6" x1="279.53" y1="658.15" x2="279.03" y2="658.15"/><line class="cls-10" x1="278.01" y1="658.15" x2="225.63" y2="658.15"/><line class="cls-6" x1="225.12" y1="658.15" x2="224.62" y2="658.15"/><line class="cls-6" x1="279.53" y1="664.46" x2="279.03" y2="664.46"/><line class="cls-10" x1="278.01" y1="664.46" x2="225.63" y2="664.46"/><line class="cls-6" x1="225.12" y1="664.46" x2="224.62" y2="664.46"/><line class="cls-6" x1="202.72" y1="499.1" x2="202.72" y2="499.6"/><line class="cls-11" x1="202.72" y1="500.62" x2="202.72" y2="552.92"/><line class="cls-6" x1="202.72" y1="553.43" x2="202.72" y2="553.93"/><line class="cls-6" x1="208.94" y1="499.1" x2="208.94" y2="499.6"/><line class="cls-11" x1="208.94" y1="500.62" x2="208.94" y2="552.92"/><line class="cls-6" x1="208.94" y1="553.43" x2="208.94" y2="553.93"/><line class="cls-6" x1="373.59" y1="499.1" x2="373.59" y2="499.6"/><line class="cls-12" x1="373.59" y1="500.6" x2="373.59" y2="618"/><line class="cls-6" x1="373.59" y1="618.5" x2="373.59" y2="619"/><line class="cls-6" x1="379.81" y1="499.1" x2="379.81" y2="499.6"/><line class="cls-12" x1="379.81" y1="500.6" x2="379.81" y2="618"/><line class="cls-6" x1="379.81" y1="618.5" x2="379.81" y2="619"/><line class="cls-6" x1="0.45" y1="698.41" x2="0.45" y2="698.91"/><line class="cls-13" x1="0.45" y1="699.91" x2="0.45" y2="769.74"/><line class="cls-6" x1="0.45" y1="770.24" x2="0.45" y2="770.74"/><line class="cls-4" x1="1059.47" y1="97.77" x2="1059.47" y2="97.77"/><line class="cls-4" x1="69.43" y1="97.77" x2="0.5" y2="97.77"/><line class="cls-4" x1="334.36" y1="97.77" x2="223.04" y2="97.77"/><line class="cls-4" x1="578.88" y1="97.77" x2="467.65" y2="97.77"/><line class="cls-4" x1="864.21" y1="97.77" x2="712.17" y2="97.77"/><line class="cls-4" x1="1058.14" y1="98.6" x2="1058.14" y2="98.6"/><line class="cls-4" x1="66.36" y1="98.6" x2="0.5" y2="98.6"/><line class="cls-4" x1="331.2" y1="98.6" x2="226.2" y2="98.6"/><line class="cls-4" x1="575.73" y1="98.6" x2="470.72" y2="98.6"/><line class="cls-4" x1="854.76" y1="98.6" x2="715.24" y2="98.6"/><line class="cls-4" x1="715.24" y1="103.33" x2="715.24" y2="129.95"/><line class="cls-4" x1="712.17" y1="88.4" x2="712.17" y2="97.77"/><line class="cls-4" x1="715.24" y1="98.6" x2="715.24" y2="103.33"/><line class="cls-4" x1="575.73" y1="103.33" x2="575.73" y2="129.95"/><line class="cls-4" x1="578.88" y1="88.4" x2="578.88" y2="97.77"/><line class="cls-4" x1="575.73" y1="98.6" x2="575.73" y2="103.33"/><line class="cls-4" x1="66.36" y1="103.33" x2="66.36" y2="129.95"/><line class="cls-4" x1="69.43" y1="88.4" x2="69.43" y2="97.77"/><line class="cls-4" x1="66.36" y1="98.6" x2="66.36" y2="103.33"/><line class="cls-4" x1="226.2" y1="103.33" x2="226.2" y2="129.95"/><line class="cls-4" x1="223.04" y1="88.4" x2="223.04" y2="97.77"/><line class="cls-4" x1="226.2" y1="98.6" x2="226.2" y2="103.33"/><line class="cls-4" x1="470.72" y1="103.33" x2="470.72" y2="129.95"/><line class="cls-4" x1="467.65" y1="88.4" x2="467.65" y2="97.77"/><line class="cls-4" x1="470.72" y1="98.6" x2="470.72" y2="103.33"/><line class="cls-4" x1="331.2" y1="103.33" x2="331.2" y2="129.95"/><line class="cls-4" x1="334.36" y1="88.4" x2="334.36" y2="97.77"/><line class="cls-4" x1="331.2" y1="98.6" x2="331.2" y2="103.33"/><line class="cls-4" x1="854.76" y1="103.33" x2="854.76" y2="129.95"/><line class="cls-4" x1="864.21" y1="88.4" x2="864.21" y2="97.77"/><line class="cls-4" x1="854.76" y1="98.6" x2="854.76" y2="103.33"/><line class="cls-4" x1="0.5" y1="129.95" x2="66.36" y2="129.95"/><line class="cls-4" x1="226.2" y1="129.95" x2="331.2" y2="129.95"/><line class="cls-4" x1="470.72" y1="129.95" x2="575.73" y2="129.95"/><line class="cls-4" x1="715.24" y1="129.95" x2="854.76" y2="129.95"/><line class="cls-4" x1="864.21" y1="88.4" x2="712.17" y2="88.4"/><line class="cls-4" x1="578.88" y1="88.4" x2="467.65" y2="88.4"/><line class="cls-4" x1="334.36" y1="88.4" x2="223.04" y2="88.4"/><line class="cls-4" x1="69.43" y1="88.4" x2="0.5" y2="88.4"/><polyline class="cls-4" points="712.17 88.4 578.88 88.4 578.88 84.5 712.17 84.5 712.17 88.4"/><line class="cls-4" x1="575.73" y1="129.95" x2="715.24" y2="129.95"/><polyline class="cls-4" points="575.73 103.33 580.04 103.33 580.04 100.18 582.03 100.18 582.03 98.6 575.73 98.6"/><polyline class="cls-4" points="645.49 98.6 642.42 98.6 642.42 100.18 644.33 100.18 644.33 103.33 645.49 103.33"/><line class="cls-4" x1="642.42" y1="98.6" x2="582.03" y2="98.6"/><polyline class="cls-4" points="580.04 104.82 584.77 104.82 639.68 104.82"/><polyline class="cls-4" points="584.77 104.82 584.77 100.18 580.04 100.18 580.04 104.82"/><polyline class="cls-4" points="644.33 100.18 639.68 100.18 639.68 104.82 644.33 104.82 644.33 100.18"/><line class="cls-4" x1="639.68" y1="100.18" x2="584.77" y2="100.18"/><line class="cls-4" x1="584.77" y1="104.82" x2="639.68" y2="104.82"/><line class="cls-4" x1="584.77" y1="102.5" x2="639.68" y2="102.5"/><polyline class="cls-4" points="645.49 103.33 646.73 103.33 646.73 100.18 648.64 100.18 648.64 98.6 645.49 98.6"/><polyline class="cls-4" points="715.24 98.6 709.02 98.6 709.02 100.18 710.93 100.18 710.93 103.33 715.24 103.33"/><line class="cls-4" x1="709.02" y1="98.6" x2="648.64" y2="98.6"/><polyline class="cls-4" points="646.73 104.82 651.38 104.82 706.28 104.82"/><polyline class="cls-4" points="651.38 104.82 651.38 100.18 646.73 100.18 646.73 104.82"/><polyline class="cls-4" points="710.93 100.18 706.28 100.18 706.28 104.82 710.93 104.82 710.93 100.18"/><line class="cls-4" x1="706.29" y1="100.18" x2="651.38" y2="100.18"/><line class="cls-4" x1="651.38" y1="104.82" x2="706.29" y2="104.82"/><line class="cls-4" x1="651.38" y1="102.5" x2="706.29" y2="102.5"/><polyline class="cls-4" points="575.73 103.33 575.73 98.6 575.73 103.33"/><polyline class="cls-4" points="575.73 98.6 578.88 98.6 575.73 98.6"/><polyline class="cls-4" points="578.88 88.4 578.88 97.77 578.88 98.6"/><line class="cls-4" x1="575.73" y1="103.33" x2="575.73" y2="129.95"/><polyline class="cls-4" points="715.24 103.33 715.24 98.6 715.24 103.33"/><polyline class="cls-4" points="715.24 98.6 712.17 98.6 715.24 98.6"/><polyline class="cls-4" points="712.17 88.4 712.17 97.77 712.17 98.6"/><line class="cls-4" x1="715.24" y1="103.33" x2="715.24" y2="129.95"/><polyline class="cls-4" points="69.43 88.4 223.04 88.4 223.04 84.5 69.43 84.5 69.43 88.4"/><line class="cls-4" x1="226.2" y1="129.95" x2="66.36" y2="129.95"/><polyline class="cls-4" points="226.19 103.33 221.88 103.33 221.88 100.18 219.97 100.18 219.97 98.6 226.19 98.6"/><polyline class="cls-4" points="171.87 98.6 175.02 98.6 175.02 100.18 173.03 100.18 173.03 103.33 171.87 103.33"/><line class="cls-4" x1="175.02" y1="98.6" x2="219.97" y2="98.6"/><polyline class="cls-4" points="221.88 104.82 217.24 104.82 177.75 104.82"/><polyline class="cls-4" points="217.24 104.82 217.24 100.18 221.88 100.18 221.88 104.82"/><polyline class="cls-4" points="173.03 100.18 177.75 100.18 177.75 104.82 173.03 104.82 173.03 100.18"/><line class="cls-4" x1="177.76" y1="100.18" x2="217.24" y2="100.18"/><line class="cls-4" x1="217.24" y1="104.82" x2="177.76" y2="104.82"/><line class="cls-4" x1="217.24" y1="102.5" x2="177.76" y2="102.5"/><polyline class="cls-4" points="171.87 103.33 170.71 103.33 170.71 100.18 168.71 100.18 168.71 98.6 171.87 98.6"/><polyline class="cls-4" points="120.69 98.6 123.84 98.6 123.84 100.18 121.85 100.18 121.85 103.33 120.69 103.33"/><line class="cls-4" x1="123.84" y1="98.6" x2="168.71" y2="98.6"/><polyline class="cls-4" points="170.71 104.82 165.98 104.82 126.58 104.82"/><polyline class="cls-4" points="165.98 104.82 165.98 100.18 170.71 100.18 170.71 104.82"/><polyline class="cls-4" points="121.85 100.18 126.58 100.18 126.58 104.82 121.85 104.82 121.85 100.18"/><line class="cls-4" x1="126.58" y1="100.18" x2="165.98" y2="100.18"/><line class="cls-4" x1="165.98" y1="104.82" x2="126.58" y2="104.82"/><line class="cls-4" x1="165.98" y1="102.5" x2="126.58" y2="102.5"/><polyline class="cls-4" points="120.69 103.33 119.53 103.33 119.53 100.18 117.54 100.18 117.54 98.6 120.69 98.6"/><polyline class="cls-4" points="66.36 98.6 72.58 98.6 72.58 100.18 70.67 100.18 70.67 103.33 66.36 103.33"/><line class="cls-4" x1="72.58" y1="98.6" x2="117.54" y2="98.6"/><polyline class="cls-4" points="119.53 104.82 114.8 104.82 75.32 104.82"/><polyline class="cls-4" points="114.8 104.82 114.8 100.18 119.53 100.18 119.53 104.82"/><polyline class="cls-4" points="70.67 100.18 75.32 100.18 75.32 104.82 70.67 104.82 70.67 100.18"/><line class="cls-4" x1="75.32" y1="100.18" x2="114.8" y2="100.18"/><line class="cls-4" x1="114.8" y1="104.82" x2="75.32" y2="104.82"/><line class="cls-4" x1="114.8" y1="102.5" x2="75.32" y2="102.5"/><polyline class="cls-4" points="226.19 103.33 226.19 98.6 226.19 103.33"/><polyline class="cls-4" points="226.19 98.6 223.04 98.6 226.19 98.6"/><polyline class="cls-4" points="223.04 88.4 223.04 97.77 223.04 98.6"/><line class="cls-4" x1="226.2" y1="103.33" x2="226.2" y2="129.95"/><polyline class="cls-4" points="66.36 103.33 66.36 98.6 66.36 103.33"/><polyline class="cls-4" points="66.36 98.6 69.43 98.6 66.36 98.6"/><polyline class="cls-4" points="69.43 88.4 69.43 97.77 69.43 98.6"/><line class="cls-4" x1="66.36" y1="103.33" x2="66.36" y2="129.95"/><polyline class="cls-4" points="467.65 88.4 334.36 88.4 334.36 84.5 467.65 84.5 467.65 88.4"/><line class="cls-4" x1="331.2" y1="129.95" x2="470.72" y2="129.95"/><polyline class="cls-4" points="331.2 103.33 335.52 103.33 335.52 100.18 337.51 100.18 337.51 98.6 331.2 98.6"/><polyline class="cls-4" points="400.96 98.6 397.89 98.6 397.89 100.18 399.8 100.18 399.8 103.33 400.96 103.33"/><line class="cls-4" x1="397.89" y1="98.6" x2="337.51" y2="98.6"/><polyline class="cls-4" points="335.52 104.82 340.25 104.82 395.07 104.82"/><polyline class="cls-4" points="340.25 104.82 340.25 100.18 335.52 100.18 335.52 104.82"/><polyline class="cls-4" points="399.8 100.18 395.07 100.18 395.07 104.82 399.8 104.82 399.8 100.18"/><line class="cls-4" x1="395.07" y1="100.18" x2="340.25" y2="100.18"/><line class="cls-4" x1="340.25" y1="104.82" x2="395.07" y2="104.82"/><line class="cls-4" x1="340.25" y1="102.5" x2="395.07" y2="102.5"/><polyline class="cls-4" points="400.96 103.33 402.21 103.33 402.21 100.18 404.11 100.18 404.11 98.6 400.96 98.6"/><polyline class="cls-4" points="470.72 98.6 464.5 98.6 464.5 100.18 466.41 100.18 466.41 103.33 470.72 103.33"/><line class="cls-4" x1="464.5" y1="98.6" x2="404.11" y2="98.6"/><polyline class="cls-4" points="402.21 104.82 406.85 104.82 461.76 104.82"/><polyline class="cls-4" points="406.85 104.82 406.85 100.18 402.21 100.18 402.21 104.82"/><polyline class="cls-4" points="466.41 100.18 461.76 100.18 461.76 104.82 466.41 104.82 466.41 100.18"/><line class="cls-4" x1="461.76" y1="100.18" x2="406.85" y2="100.18"/><line class="cls-4" x1="406.85" y1="104.82" x2="461.76" y2="104.82"/><line class="cls-4" x1="406.85" y1="102.5" x2="461.76" y2="102.5"/><polyline class="cls-4" points="331.2 103.33 331.2 98.6 331.2 103.33"/><polyline class="cls-4" points="331.2 98.6 334.36 98.6 331.2 98.6"/><polyline class="cls-4" points="334.36 88.4 334.36 97.77 334.36 98.6"/><line class="cls-4" x1="331.2" y1="103.33" x2="331.2" y2="129.95"/><polyline class="cls-4" points="470.72 103.33 470.72 98.6 470.72 103.33"/><polyline class="cls-4" points="470.72 98.6 467.65 98.6 470.72 98.6"/><polyline class="cls-4" points="467.65 88.4 467.65 97.77 467.65 98.6"/><line class="cls-4" x1="470.72" y1="103.33" x2="470.72" y2="129.95"/><polyline class="cls-4" points="1082.28 84.5 864.21 84.5 864.21 88.4"/><line class="cls-4" x1="1004.31" y1="129.95" x2="854.76" y2="129.95"/><line class="cls-4" x1="1075.56" y1="88.4" x2="864.21" y2="88.4"/><line class="cls-4" x1="1004.31" y1="129.95" x2="854.76" y2="129.95"/><polyline class="cls-4" points="1050.01 103.33 1038.32 103.33 1038.32 98.6 1050.01 98.6 1058.14 98.6"/><polyline class="cls-4" points="985.98 98.6 989.13 98.6 989.13 103.33 985.98 103.33"/><line class="cls-4" x1="1038.32" y1="100.92" x2="989.13" y2="100.92"/><line class="cls-4" x1="1038.32" y1="103.33" x2="989.13" y2="103.33"/><line class="cls-4" x1="989.13" y1="98.6" x2="1038.32" y2="98.6"/><line class="cls-4" x1="1050.01" y1="98.6" x2="1050.01" y2="103.33"/><polyline class="cls-4" points="985.98 103.33 984.82 103.33 984.82 100.18 982.83 100.18 982.83 98.6 985.98 98.6"/><polyline class="cls-4" points="925.1 98.6 928.25 98.6 928.25 100.18 926.26 100.18 926.26 103.33 925.1 103.33"/><line class="cls-4" x1="928.25" y1="98.6" x2="982.83" y2="98.6"/><polyline class="cls-4" points="984.82 104.82 980.09 104.82 930.99 104.82"/><polyline class="cls-4" points="980.09 104.82 980.09 100.18 984.82 100.18 984.82 104.82"/><polyline class="cls-4" points="926.26 100.18 930.99 100.18 930.99 104.82 926.26 104.82 926.26 100.18"/><line class="cls-4" x1="930.99" y1="100.18" x2="980.09" y2="100.18"/><line class="cls-4" x1="980.09" y1="104.82" x2="930.99" y2="104.82"/><line class="cls-4" x1="980.09" y1="102.5" x2="930.99" y2="102.5"/><polyline class="cls-4" points="925.1 103.33 923.93 103.33 923.93 100.18 921.94 100.18 921.94 98.6 925.1 98.6"/><polyline class="cls-4" points="854.76 98.6 861.06 98.6 867.28 98.6 867.28 100.18 865.38 100.18 865.38 103.33 861.06 103.33 854.76 103.33"/><line class="cls-4" x1="867.28" y1="98.6" x2="921.94" y2="98.6"/><polyline class="cls-4" points="923.93 104.82 919.21 104.82 870.1 104.82"/><polyline class="cls-4" points="919.21 104.82 919.21 100.18 923.93 100.18 923.93 104.82"/><polyline class="cls-4" points="865.38 100.18 870.1 100.18 870.1 104.82 865.38 104.82 865.38 100.18"/><line class="cls-4" x1="870.1" y1="100.18" x2="919.21" y2="100.18"/><line class="cls-4" x1="919.21" y1="104.82" x2="870.1" y2="104.82"/><line class="cls-4" x1="919.21" y1="102.5" x2="870.1" y2="102.5"/><line class="cls-4" x1="861.06" y1="98.6" x2="861.06" y2="103.33"/><polyline class="cls-4" points="854.76 103.33 854.76 98.6 854.76 103.33"/><polyline class="cls-4" points="854.76 98.6 864.21 98.6 854.76 98.6"/><polyline class="cls-4" points="864.21 88.4 864.21 97.77 864.21 98.6"/><line class="cls-4" x1="854.76" y1="103.33" x2="854.76" y2="129.95"/><polyline class="cls-4" points="0.5 817.24 318.68 817.24 318.68 801.57 16.18 801.57"/><line class="cls-4" x1="0.5" y1="801.57" x2="0.5" y2="801.57"/><line class="cls-4" x1="0.5" y1="87.4" x2="0.5" y2="687.93"/><polyline class="cls-4" points="16.18 669.18 16.18 653.51 16.18 129.95 0.5 129.95"/><polyline class="cls-4" points="16.18 774.94 6.8 774.94 0.5 774.94"/><polyline class="cls-4" points="16.18 696.56 6.8 696.56 0.5 696.56 0.5 669.18"/><line class="cls-4" x1="0.5" y1="774.94" x2="0.5" y2="817.24"/><line class="cls-4" x1="16.18" y1="801.57" x2="16.18" y2="774.94"/><line class="cls-4" x1="16.18" y1="696.56" x2="16.18" y2="669.18"/><line class="cls-4" x1="16.18" y1="696.56" x2="16.18" y2="696.8"/><line class="cls-4" x1="16.18" y1="696.89" x2="16.18" y2="696.89"/><line class="cls-4" x1="16.18" y1="774.61" x2="16.18" y2="774.61"/><line class="cls-4" x1="16.18" y1="774.69" x2="16.18" y2="774.69"/><line class="cls-4" x1="16.18" y1="774.77" x2="16.18" y2="774.94"/><line class="cls-4" x1="0.5" y1="696.56" x2="0.5" y2="696.8"/><line class="cls-4" x1="0.5" y1="696.89" x2="0.5" y2="696.89"/><line class="cls-4" x1="0.5" y1="696.97" x2="0.5" y2="697.22"/><line class="cls-4" x1="0.5" y1="697.3" x2="0.5" y2="697.3"/><line class="cls-4" x1="0.5" y1="697.39" x2="0.5" y2="697.39"/><polyline class="cls-4" points="0.5 697.47 0.5 697.72 0.5 697.8 0.5 697.88 0.5 698.13"/><line class="cls-4" x1="0.5" y1="698.21" x2="0.5" y2="698.21"/><line class="cls-4" x1="0.5" y1="698.3" x2="0.5" y2="698.3"/><line class="cls-4" x1="0.5" y1="698.38" x2="0.5" y2="698.55"/><line class="cls-4" x1="0.5" y1="698.63" x2="0.5" y2="698.63"/><line class="cls-4" x1="0.5" y1="698.71" x2="0.5" y2="698.71"/><line class="cls-4" x1="0.5" y1="698.8" x2="0.5" y2="699.04"/><polyline class="cls-4" points="0.5 699.13 0.5 699.21 0.5 699.46"/><line class="cls-4" x1="0.5" y1="699.54" x2="0.5" y2="699.54"/><line class="cls-4" x1="0.5" y1="699.62" x2="0.5" y2="699.62"/><line class="cls-4" x1="0.5" y1="772.37" x2="0.5" y2="772.37"/><line class="cls-4" x1="0.5" y1="772.45" x2="0.5" y2="772.45"/><line class="cls-4" x1="0.5" y1="772.53" x2="0.5" y2="772.78"/><line class="cls-4" x1="0.5" y1="772.87" x2="0.5" y2="772.87"/><line class="cls-4" x1="0.5" y1="772.95" x2="0.5" y2="773.2"/><line class="cls-4" x1="0.5" y1="773.28" x2="0.5" y2="773.28"/><line class="cls-4" x1="0.5" y1="773.36" x2="0.5" y2="773.61"/><line class="cls-4" x1="0.5" y1="773.7" x2="0.5" y2="773.7"/><line class="cls-4" x1="0.5" y1="773.78" x2="0.5" y2="773.78"/><polyline class="cls-4" points="0.5 773.86 0.5 774.11 0.5 774.19 0.5 774.28 0.5 774.52"/><line class="cls-4" x1="0.5" y1="774.61" x2="0.5" y2="774.61"/><line class="cls-4" x1="0.5" y1="774.69" x2="0.5" y2="774.69"/><line class="cls-4" x1="0.5" y1="774.77" x2="0.5" y2="774.94"/><path class="cls-4" d="M78.74,800.18A72.12,72.12,0,0,0,6.62,728.06" transform="translate(0.23 -28.35)"/><polyline class="cls-4" points="0.5 696.56 0.5 699.71 6.8 699.71 6.8 696.56 0.5 696.56"/><polyline class="cls-4" points="6.8 774.94 6.8 771.79 0.5 771.79 0.5 774.94 6.8 774.94"/><line class="cls-4" x1="6.8" y1="771.79" x2="78.88" y2="771.79"/><polyline class="cls-4" points="0.5 696.56 6.8 696.56 0.5 696.56"/><line class="cls-4" x1="16.18" y1="696.56" x2="6.8" y2="696.56"/><polyline class="cls-4" points="0.5 774.94 6.8 774.94 0.5 774.94"/><line class="cls-4" x1="16.18" y1="774.94" x2="6.8" y2="774.94"/><polyline class="cls-4" points="840.24 484.96 840.66 484.21 940.61 307.62"/><line class="cls-4" x1="1059.47" y1="97.77" x2="1059.47" y2="97.77"/><line class="cls-4" x1="1059.47" y1="97.77" x2="1059.47" y2="97.77"/><polyline class="cls-4" points="839.83 484.21 857.58 452.86 938.2 310.36"/><line class="cls-4" x1="1058.14" y1="98.6" x2="1058.14" y2="98.6"/><line class="cls-4" x1="1058.14" y1="98.6" x2="1058.14" y2="98.6"/><line class="cls-4" x1="934.14" y1="308.04" x2="910.91" y2="294.93"/><line class="cls-4" x1="948.82" y1="312.27" x2="940.61" y2="307.62"/><line class="cls-4" x1="938.2" y1="310.36" x2="934.14" y2="308.04"/><line class="cls-4" x1="910.91" y1="294.93" x2="821.5" y2="452.86"/><line class="cls-4" x1="845.72" y1="494.42" x2="948.82" y2="312.27"/><polyline class="cls-4" points="1082.28 84.5 952.22 314.18 948.82 312.27"/><line class="cls-4" x1="1004.31" y1="129.95" x2="910.91" y2="294.93"/><line class="cls-4" x1="1075.56" y1="88.4" x2="948.82" y2="312.27"/><line class="cls-4" x1="1004.31" y1="129.95" x2="910.91" y2="294.93"/><polyline class="cls-4" points="1050.01 103.33 1045.2 111.79 1047.94 113.36 1046.94 115.11 1048.35 115.85 1054.16 105.57 1058.14 98.6"/><polyline class="cls-4" points="1013.18 177.98 1014.68 175.24 1013.35 174.5 1012.36 176.15 1009.62 174.58 1009.04 175.66"/><line class="cls-4" x1="1014.68" y1="175.24" x2="1048.35" y2="115.85"/><polyline class="cls-4" points="1043.87 111.04 1041.55 115.11 1010.61 169.77"/><polyline class="cls-4" points="1041.55 115.11 1045.62 117.43 1047.94 113.36 1043.87 111.04"/><polyline class="cls-4" points="1012.36 176.15 1014.68 172.09 1010.61 169.77 1008.29 173.83 1012.36 176.15"/><line class="cls-4" x1="1014.68" y1="172.09" x2="1045.62" y2="117.43"/><line class="cls-4" x1="1041.55" y1="115.11" x2="1010.61" y2="169.77"/><line class="cls-4" x1="1043.54" y1="116.27" x2="1012.69" y2="170.93"/><line class="cls-4" x1="1054.16" y1="105.57" x2="1050.01" y2="103.33"/><polyline class="cls-4" points="1009.04 175.66 1008.46 176.65 1011.19 178.23 1010.28 179.89 1011.61 180.72 1013.18 177.98"/><polyline class="cls-4" points="976.44 242.84 978.01 240.11 976.61 239.28 975.69 241.02 972.96 239.44 972.38 240.52"/><line class="cls-4" x1="978.02" y1="240.11" x2="1011.61" y2="180.72"/><polyline class="cls-4" points="1007.13 175.91 1004.81 179.97 973.87 234.63"/><polyline class="cls-4" points="1004.81 179.97 1008.87 182.29 1011.19 178.23 1007.13 175.91"/><polyline class="cls-4" points="975.69 241.02 978.01 236.95 973.87 234.63 971.55 238.7 975.69 241.02"/><line class="cls-4" x1="978.02" y1="236.95" x2="1008.87" y2="182.29"/><line class="cls-4" x1="1004.81" y1="179.97" x2="973.87" y2="234.63"/><line class="cls-4" x1="1006.88" y1="181.13" x2="975.94" y2="235.79"/><polyline class="cls-4" points="972.38 240.52 971.79 241.52 974.53 243.09 973.54 244.75 974.95 245.5 976.44 242.84"/><polyline class="cls-4" points="938.2 310.36 941.27 304.89 939.94 304.14 938.95 305.88 936.21 304.31 934.14 308.04"/><line class="cls-4" x1="941.27" y1="304.89" x2="974.95" y2="245.5"/><polyline class="cls-4" points="970.38 240.77 968.06 244.83 937.21 299.41"/><polyline class="cls-4" points="968.06 244.83 972.21 247.16 974.53 243.09 970.38 240.77"/><polyline class="cls-4" points="938.95 305.88 941.27 301.73 937.21 299.41 934.88 303.56 938.95 305.88"/><line class="cls-4" x1="941.27" y1="301.73" x2="972.21" y2="247.16"/><line class="cls-4" x1="968.06" y1="244.83" x2="937.21" y2="299.41"/><line class="cls-4" x1="970.14" y1="245.99" x2="939.2" y2="300.57"/><polyline class="cls-4" points="934.14 308.04 938.2 310.36 934.14 308.04"/><polyline class="cls-4" points="938.2 310.36 939.94 307.29 938.2 310.36"/><polyline class="cls-4" points="948.82 312.27 940.61 307.62 939.94 307.29"/><line class="cls-4" x1="934.14" y1="308.04" x2="910.91" y2="294.93"/><polyline class="cls-4" points="743.53 484.96 839.33 484.96 840.24 484.96 839.33 484.96"/><polyline class="cls-4" points="743.53 484.21 803.75 484.21 839.83 484.21 803.75 484.21"/><line class="cls-4" x1="821.5" y1="452.86" x2="743.53" y2="452.86"/><line class="cls-4" x1="743.53" y1="494.42" x2="743.53" y2="484.96"/><line class="cls-4" x1="743.53" y1="484.21" x2="743.53" y2="452.86"/><polyline class="cls-4" points="845.72 494.42 834.93 494.42 743.53 494.42"/><path class="cls-4" d="M534,845.59" transform="translate(0.23 -28.35)"/><polyline class="cls-4" points="464.66 817.24 534.17 817.24 543.05 801.57 534.17 817.24"/><line class="cls-4" x1="543.05" y1="801.57" x2="464.66" y2="801.57"/><line class="cls-4" x1="464.66" y1="817.24" x2="464.66" y2="801.57"/><line class="cls-4" x1="338.25" y1="829.85" x2="559.47" y2="829.85"/><polyline class="cls-4" points="620.27 720.78 565.69 817.24 558.97 829.02 565.69 817.24"/><line class="cls-4" x1="596.38" y1="707.34" x2="543.05" y2="801.57"/><line class="cls-4" x1="559.89" y1="829.02" x2="620.93" y2="721.19"/><line class="cls-4" x1="613.47" y1="716.96" x2="596.38" y2="707.34"/><polyline class="cls-4" points="620.27 720.78 658.92 652.6 662.74 645.79"/><polyline class="cls-4" points="610.07 715.05 639.02 663.88 625.33 656.16 639.02 663.88 646.73 650.19 639.02 663.88"/><line class="cls-4" x1="625.33" y1="656.16" x2="596.38" y2="707.34"/><line class="cls-4" x1="610.07" y1="715.05" x2="596.38" y2="707.34"/><line class="cls-4" x1="620.93" y1="721.19" x2="663.82" y2="645.46"/><line class="cls-4" x1="346.88" y1="829.85" x2="464.66" y2="829.85"/><polyline class="cls-4" points="464.66 817.24 464.66 801.57 318.68 801.57"/><line class="cls-4" x1="629.81" y1="627.13" x2="629.81" y2="611.95"/><line class="cls-4" x1="629.81" y1="481.06" x2="622.01" y2="481.06"/><line class="cls-4" x1="629.81" y1="608.8" x2="622.01" y2="608.8"/><line class="cls-4" x1="630.64" y1="481.06" x2="629.81" y2="481.06"/><line class="cls-4" x1="630.64" y1="608.8" x2="629.81" y2="608.8"/><polyline class="cls-4" points="629.81 477.91 629.81 480.23 622.01 480.23 629.81 480.23"/><line class="cls-4" x1="630.64" y1="480.23" x2="630.64" y2="481.06"/><line class="cls-4" x1="622.01" y1="611.95" x2="622.01" y2="611.95"/><polyline class="cls-4" points="629.81 611.95 629.81 609.63 622.01 609.63 629.81 609.63"/><line class="cls-4" x1="630.64" y1="609.63" x2="630.64" y2="608.8"/><polyline class="cls-4" points="622.01 472.44 617.28 472.44 602.44 472.44"/><polyline class="cls-4" points="622.01 611.95 617.28 611.95 602.44 611.95"/><line class="cls-4" x1="602.44" y1="452.86" x2="602.44" y2="472.44"/><line class="cls-4" x1="602.44" y1="611.95" x2="602.44" y2="643.14"/><line class="cls-4" x1="630.64" y1="626.72" x2="630.64" y2="609.63"/><line class="cls-4" x1="630.64" y1="608.8" x2="630.64" y2="481.06"/><line class="cls-4" x1="602.44" y1="611.95" x2="602.44" y2="472.44"/><polyline class="cls-4" points="617.28 611.95 617.28 607.64 620.44 607.64 620.44 605.65 622.01 605.65 622.01 611.95"/><polyline class="cls-4" points="622.01 542.19 622.01 544.93 620.44 544.93 620.44 542.94 617.28 542.94 617.28 542.19"/><line class="cls-4" x1="615.71" y1="607.64" x2="583.44" y2="551.65"/><line class="cls-4" x1="622.01" y1="544.93" x2="622.01" y2="605.65"/><polyline class="cls-4" points="615.71 607.64 615.71 602.91 615.71 547.67"/><polyline class="cls-4" points="615.71 602.91 620.44 602.91 620.44 607.64 615.71 607.64"/><polyline class="cls-4" points="620.44 542.94 620.44 547.67 615.71 547.67 615.71 542.94 620.44 542.94"/><line class="cls-4" x1="620.44" y1="547.67" x2="620.44" y2="602.91"/><line class="cls-4" x1="615.71" y1="602.91" x2="615.71" y2="547.67"/><line class="cls-4" x1="618.11" y1="602.91" x2="618.11" y2="547.67"/><polyline class="cls-4" points="617.28 542.19 617.28 541.36 620.44 541.36 620.44 539.46 622.01 539.46 622.01 542.19"/><polyline class="cls-4" points="622.01 472.44 622.01 478.74 620.44 478.74 620.44 476.75 617.28 476.75 617.28 472.44"/><line class="cls-4" x1="615.71" y1="476.75" x2="583.44" y2="532.74"/><line class="cls-4" x1="622.01" y1="478.74" x2="622.01" y2="539.46"/><polyline class="cls-4" points="615.71 541.36 615.71 536.72 615.71 481.48"/><polyline class="cls-4" points="615.71 536.72 620.44 536.72 620.44 541.36 615.71 541.36"/><polyline class="cls-4" points="620.44 476.75 620.44 481.48 615.71 481.48 615.71 476.75 620.44 476.75"/><line class="cls-4" x1="620.44" y1="481.48" x2="620.44" y2="536.72"/><line class="cls-4" x1="615.71" y1="536.72" x2="615.71" y2="481.48"/><line class="cls-4" x1="618.11" y1="536.72" x2="618.11" y2="481.48"/><path class="cls-4" d="M615.52,571.37A64.7,64.7,0,0,0,583.2,580" transform="translate(0.23 -28.35)"/><path class="cls-4" d="M583.2,561.13a64.61,64.61,0,0,0,32.32,8.67" transform="translate(0.23 -28.35)"/><polyline class="cls-4" points="602.44 611.95 617.28 611.95 622.01 611.95 617.28 611.95"/><polyline class="cls-4" points="602.44 472.44 617.28 472.44 622.01 472.44 617.28 472.44"/><polyline class="cls-4" points="622.01 472.44 622.01 477.91 622.01 472.44"/><line class="cls-4" x1="630.64" y1="608.8" x2="629.81" y2="608.8"/><polyline class="cls-4" points="622.01 608.8 622.01 609.63 622.01 608.8"/><polyline class="cls-4" points="622.01 609.63 622.01 611.95 622.01 609.63"/><line class="cls-4" x1="630.64" y1="481.06" x2="629.81" y2="481.06"/><polyline class="cls-4" points="622.01 481.06 622.01 480.23 622.01 481.06"/><polyline class="cls-4" points="622.01 480.23 622.01 477.91 622.01 480.23"/><line class="cls-4" x1="629.81" y1="608.8" x2="622.01" y2="608.8"/><line class="cls-4" x1="629.81" y1="481.06" x2="622.01" y2="481.06"/><line class="cls-4" x1="346.13" y1="829.85" x2="338.25" y2="829.85"/><line class="cls-4" x1="346.88" y1="829.85" x2="346.13" y2="829.85"/><polyline class="cls-4" points="338.25 821.22 333.61 821.22 318.68 821.22"/><line class="cls-4" x1="318.68" y1="801.57" x2="318.68" y2="821.22"/><polyline class="cls-4" points="318.68 821.22 333.61 821.22 338.25 821.22 333.61 821.22"/><polyline class="cls-4" points="338.25 821.22 338.25 826.7 338.25 821.22"/><line class="cls-4" x1="346.88" y1="829.85" x2="346.13" y2="829.85"/><polyline class="cls-4" points="338.25 829.85 338.25 829.02 338.25 829.85"/><polyline class="cls-4" points="338.25 829.02 338.25 826.7 338.25 829.02"/><line class="cls-4" x1="346.13" y1="829.85" x2="338.25" y2="829.85"/><polyline class="cls-4" points="630.64 627.63 629.81 627.13 630.64 627.63"/><polyline class="cls-4" points="630.64 627.63 652.54 639.99 662.74 645.79 652.54 639.99"/><polyline class="cls-4" points="648.64 646.79 646.73 650.19 648.64 646.79"/><polyline class="cls-4" points="602.44 643.14 622.01 654.25 625.33 656.16"/><line class="cls-4" x1="663.15" y1="645.13" x2="630.64" y2="626.72"/><line class="cls-4" x1="602.44" y1="696.64" x2="602.44" y2="639.07"/><polyline class="cls-4" points="602.44 698.71 635.03 639.08 602.44 639.08"/><polyline class="cls-4" points="426.84 707.59 426.84 664.46 383.71 664.46 383.71 707.59 426.84 707.59"/><polyline class="cls-4" points="422.94 703.61 422.94 668.35 391.59 668.35 391.59 703.61 422.94 703.61"/><line class="cls-4" x1="313.7" y1="709.5" x2="286" y2="709.5"/><polyline class="cls-4" points="315.36 710.66 325.73 710.66 325.73 680.88"/><line class="cls-4" x1="308.81" y1="695.81" x2="308.81" y2="684.78"/><polyline class="cls-4" points="286.08 709.5 308.81 706.84 308.81 695.81"/><line class="cls-4" x1="286.08" y1="682.12" x2="308.81" y2="684.78"/><line class="cls-4" x1="286.08" y1="708.83" x2="308.81" y2="706.18"/><line class="cls-4" x1="286.08" y1="682.79" x2="308.81" y2="685.44"/><line class="cls-4" x1="313.7" y1="682.12" x2="286" y2="682.12"/><line class="cls-4" x1="325.73" y1="680.88" x2="315.36" y2="680.88"/><polyline class="cls-4" points="286.08 709.5 283.01 709.08 280.11 707.92 277.54 706.1 275.55 703.61 274.06 700.7 273.31 697.47 273.31 694.15 274.06 690.92 275.55 688.01 277.54 685.52 280.11 683.62 283.01 682.46 286.08 682.12"/><polyline class="cls-4" points="286.08 708.83 283.18 708.42 280.44 707.34 278.04 705.51 276.13 703.19 274.72 700.37 274.06 697.38 274.06 694.23 274.72 691.16 276.13 688.43 278.04 686.02 280.44 684.28 283.18 683.2 286.08 682.79"/><path class="cls-4" d="M313.44,710.86a126.66,126.66,0,0,0,0,26.69" transform="translate(0.23 -28.35)"/><path class="cls-4" d="M313.41,737.57a1.75,1.75,0,0,0,1.77,1.52" transform="translate(0.23 -28.35)"/><path class="cls-4" d="M315.18,709.31a1.76,1.76,0,0,0-1.78,1.53" transform="translate(0.23 -28.35)"/><path class="cls-4" d="M320.45,724.2a1.46,1.46,0,1,0-1.46,1.45,1.45,1.45,0,0,0,1.46-1.45" transform="translate(0.23 -28.35)"/><polyline class="cls-4" points="312.54 765.4 326.56 765.4 326.56 732.55 312.54 732.55"/><line class="cls-4" x1="326.56" y1="743.75" x2="326.56" y2="754.12"/><line class="cls-4" x1="315.36" y1="746.24" x2="315.36" y2="747.98"/><line class="cls-4" x1="318.1" y1="748.98" x2="316.36" y2="748.98"/><line class="cls-4" x1="315.36" y1="749.97" x2="315.36" y2="751.71"/><line class="cls-4" x1="314.28" y1="748.98" x2="312.54" y2="748.98"/><path class="cls-4" d="M311.54,791.73a14.72,14.72,0,0,0,7-5.68" transform="translate(0.23 -28.35)"/><path class="cls-4" d="M318.5,786.08a14.53,14.53,0,0,0,2.06-8.73" transform="translate(0.23 -28.35)"/><path class="cls-4" d="M318.51,768.6a14.72,14.72,0,0,0-7-5.68" transform="translate(0.23 -28.35)"/><path class="cls-4" d="M320.56,777.38a14.56,14.56,0,0,0-2.06-8.73" transform="translate(0.23 -28.35)"/><path class="cls-4" d="M301.36,778.52a26.86,26.86,0,0,0,2.73,10" transform="translate(0.23 -28.35)"/><path class="cls-4" d="M312.39,760.91a8.47,8.47,0,0,0-6.93,3.11" transform="translate(0.23 -28.35)"/><path class="cls-4" d="M301.24,776.22a17.65,17.65,0,0,0,0,2.3" transform="translate(0.23 -28.35)"/><path class="cls-4" d="M318,786.58a59.88,59.88,0,0,0,0-18.42" transform="translate(0.23 -28.35)"/><path class="cls-4" d="M323.68,766.4a20.83,20.83,0,0,0-13.5-4.67" transform="translate(0.23 -28.35)"/><path class="cls-4" d="M325.67,777.35a41.45,41.45,0,0,0-1-9.42" transform="translate(0.23 -28.35)"/><path class="cls-4" d="M324.69,768a2.84,2.84,0,0,0-.95-1.54" transform="translate(0.23 -28.35)"/><path class="cls-4" d="M324.34,777.38a68.46,68.46,0,0,0-.67-9.27" transform="translate(0.23 -28.35)"/><path class="cls-4" d="M322.82,766.38a18.79,18.79,0,0,0-12.62-4.65" transform="translate(0.23 -28.35)"/><path class="cls-4" d="M323.74,768.11a2.76,2.76,0,0,0-.92-1.7" transform="translate(0.23 -28.35)"/><path class="cls-4" d="M310.23,793a18.73,18.73,0,0,0,12.61-4.67" transform="translate(0.23 -28.35)"/><path class="cls-4" d="M310.2,793a20.77,20.77,0,0,0,13.5-4.69" transform="translate(0.23 -28.35)"/><path class="cls-4" d="M323.69,786.61a70.1,70.1,0,0,0,.65-9.27" transform="translate(0.23 -28.35)"/><path class="cls-4" d="M324.66,786.75a40.88,40.88,0,0,0,1-9.42" transform="translate(0.23 -28.35)"/><path class="cls-4" d="M322.82,788.32a2.76,2.76,0,0,0,.92-1.7" transform="translate(0.23 -28.35)"/><path class="cls-4" d="M323.74,788.31a2.81,2.81,0,0,0,.95-1.54" transform="translate(0.23 -28.35)"/><path class="cls-4" d="M305.46,790.71a8.44,8.44,0,0,0,6.93,3.11" transform="translate(0.23 -28.35)"/><path class="cls-4" d="M304,788.52a13.68,13.68,0,0,0,1.42,2.19" transform="translate(0.23 -28.35)"/><path class="cls-4" d="M305.46,764a13.24,13.24,0,0,0-1.42,2.19" transform="translate(0.23 -28.35)"/><path class="cls-4" d="M304.09,766.22a26.76,26.76,0,0,0-2.73,10" transform="translate(0.23 -28.35)"/><path class="cls-4" d="M303.65,772.84a19.23,19.23,0,0,0,0,9" transform="translate(0.23 -28.35)"/><path class="cls-4" d="M307.46,790.13a4.93,4.93,0,0,0,4.08,1.7" transform="translate(0.23 -28.35)"/><path class="cls-4" d="M303.63,781.88a17.93,17.93,0,0,0,3.79,8.22" transform="translate(0.23 -28.35)"/><path class="cls-4" d="M311.54,762.9a5,5,0,0,0-4.08,1.7" transform="translate(0.23 -28.35)"/><path class="cls-4" d="M307.42,764.64a17.89,17.89,0,0,0-3.79,8.21" transform="translate(0.23 -28.35)"/><path class="cls-4" d="M317.29,777.37a2.12,2.12,0,1,0-2.11,2.11,2.11,2.11,0,0,0,2.11-2.11" transform="translate(0.23 -28.35)"/><path class="cls-4" d="M316.71,777.37a1.54,1.54,0,1,0-1.53,1.53,1.53,1.53,0,0,0,1.53-1.53" transform="translate(0.23 -28.35)"/><line class="cls-4" x1="60.55" y1="417.61" x2="60.55" y2="457.51"/><line class="cls-4" x1="65.03" y1="462.23" x2="162" y2="462.23"/><line class="cls-4" x1="65.03" y1="412.88" x2="162" y2="412.88"/><line class="cls-4" x1="189.37" y1="466.96" x2="56.16" y2="466.96"/><polyline class="cls-4" points="189.37 466.96 189.37 408.15 56.16 408.15 56.16 466.96"/><line class="cls-4" x1="146.4" y1="421.01" x2="70.51" y2="421.01"/><line class="cls-4" x1="68.27" y1="423.42" x2="68.27" y2="451.7"/><line class="cls-4" x1="146.4" y1="454.11" x2="70.51" y2="454.11"/><line class="cls-4" x1="83.86" y1="436.11" x2="83.86" y2="433.2"/><line class="cls-4" x1="82.53" y1="437.52" x2="79.8" y2="437.52"/><line class="cls-4" x1="83.86" y1="439.01" x2="83.86" y2="441.91"/><line class="cls-4" x1="85.27" y1="437.52" x2="88.01" y2="437.52"/><path class="cls-4" d="M161.81,490.58c12.9,0,23.35-11.05,23.35-24.67s-10.45-24.68-23.35-24.68" transform="translate(0.23 -28.35)"/><path class="cls-4" d="M60.41,485.9a4.57,4.57,0,0,0,4.44,4.68" transform="translate(0.23 -28.35)"/><path class="cls-4" d="M64.85,441.31A4.57,4.57,0,0,0,60.41,446" transform="translate(0.23 -28.35)"/><path class="cls-4" d="M83.68,468.35a2.45,2.45,0,1,0-2.28-2.44,2.36,2.36,0,0,0,2.28,2.44" transform="translate(0.23 -28.35)"/><path class="cls-4" d="M146.22,482.45c8.59,0,15.55-7.41,15.55-16.54s-7-16.55-15.55-16.55" transform="translate(0.23 -28.35)"/><path class="cls-4" d="M70.32,449.44a2.29,2.29,0,0,0-2.2,2.36" transform="translate(0.23 -28.35)"/><path class="cls-4" d="M68.12,480.09a2.29,2.29,0,0,0,2.2,2.36" transform="translate(0.23 -28.35)"/><path class="cls-4" d="M83.68,469.18a3.28,3.28,0,1,0-3.11-3.27,3.2,3.2,0,0,0,3.11,3.27" transform="translate(0.23 -28.35)"/><polyline class="cls-4" points="74.07 509.26 56.16 509.26 56.16 466.96 74.07 466.96"/><line class="cls-4" x1="56.16" y1="481.48" x2="56.16" y2="494.75"/><line class="cls-4" x1="70.51" y1="484.55" x2="70.51" y2="486.79"/><line class="cls-4" x1="66.94" y1="488.11" x2="69.18" y2="488.11"/><line class="cls-4" x1="70.51" y1="489.44" x2="70.51" y2="491.68"/><line class="cls-4" x1="71.83" y1="488.11" x2="74.07" y2="488.11"/><path class="cls-4" d="M66.08,527.73A18.93,18.93,0,0,0,75,535.05" transform="translate(0.23 -28.35)"/><path class="cls-4" d="M63.37,516.48A18.89,18.89,0,0,0,66,527.73" transform="translate(0.23 -28.35)"/><path class="cls-4" d="M75,498a18.85,18.85,0,0,0-8.92,7.31" transform="translate(0.23 -28.35)"/><path class="cls-4" d="M66,505.27a18.92,18.92,0,0,0-2.65,11.25" transform="translate(0.23 -28.35)"/><path class="cls-4" d="M84.52,530.82A34.7,34.7,0,0,0,88,518" transform="translate(0.23 -28.35)"/><path class="cls-4" d="M82.68,499.33a10.72,10.72,0,0,0-8.84-4" transform="translate(0.23 -28.35)"/><path class="cls-4" d="M88.06,518a20.89,20.89,0,0,0,0-3" transform="translate(0.23 -28.35)"/><path class="cls-4" d="M66.72,504.67a77.06,77.06,0,0,0,0,23.68" transform="translate(0.23 -28.35)"/><path class="cls-4" d="M76.67,496.47a26.63,26.63,0,0,0-17.28,6" transform="translate(0.23 -28.35)"/><path class="cls-4" d="M58.15,504.38a52.49,52.49,0,0,0-1.3,12.11" transform="translate(0.23 -28.35)"/><path class="cls-4" d="M59.3,502.41a3.55,3.55,0,0,0-1.21,1.95" transform="translate(0.23 -28.35)"/><path class="cls-4" d="M59.36,504.55a91.82,91.82,0,0,0-.86,11.94" transform="translate(0.23 -28.35)"/><path class="cls-4" d="M76.61,496.39a23.89,23.89,0,0,0-16.14,6" transform="translate(0.23 -28.35)"/><path class="cls-4" d="M60.53,502.41a3.48,3.48,0,0,0-1.16,2.16" transform="translate(0.23 -28.35)"/><path class="cls-4" d="M60.45,530.62a23.91,23.91,0,0,0,16.13,6" transform="translate(0.23 -28.35)"/><path class="cls-4" d="M59.36,530.51a26.55,26.55,0,0,0,17.27,6" transform="translate(0.23 -28.35)"/><path class="cls-4" d="M58.5,516.48a89.93,89.93,0,0,0,.85,11.93" transform="translate(0.23 -28.35)"/><path class="cls-4" d="M56.85,516.44a52.56,52.56,0,0,0,1.29,12.12" transform="translate(0.23 -28.35)"/><path class="cls-4" d="M59.37,528.43a3.52,3.52,0,0,0,1.15,2.16" transform="translate(0.23 -28.35)"/><path class="cls-4" d="M58.09,528.56a3.53,3.53,0,0,0,1.21,2" transform="translate(0.23 -28.35)"/><path class="cls-4" d="M73.84,537.6a10.72,10.72,0,0,0,8.84-4" transform="translate(0.23 -28.35)"/><path class="cls-4" d="M82.79,533.67a16.75,16.75,0,0,0,1.82-2.82" transform="translate(0.23 -28.35)"/><path class="cls-4" d="M84.61,502.15a16.67,16.67,0,0,0-1.82-2.81" transform="translate(0.23 -28.35)"/><path class="cls-4" d="M88,515a34.6,34.6,0,0,0-3.5-12.84" transform="translate(0.23 -28.35)"/><path class="cls-4" d="M85.1,522.33a25,25,0,0,0,0-11.66" transform="translate(0.23 -28.35)"/><path class="cls-4" d="M75,535a6.39,6.39,0,0,0,5.24-2.19" transform="translate(0.23 -28.35)"/><path class="cls-4" d="M80.19,532.85A22.89,22.89,0,0,0,85,522.31" transform="translate(0.23 -28.35)"/><path class="cls-4" d="M80.19,500.16A6.35,6.35,0,0,0,75,498" transform="translate(0.23 -28.35)"/><path class="cls-4" d="M85,510.7a22.89,22.89,0,0,0-4.84-10.54" transform="translate(0.23 -28.35)"/><path class="cls-4" d="M70.32,519.28a2.78,2.78,0,1,0-2.78-2.78,2.77,2.77,0,0,0,2.78,2.78" transform="translate(0.23 -28.35)"/><path class="cls-4" d="M70.32,518.45a2,2,0,1,0-1.95-2,1.95,1.95,0,0,0,1.95,2" transform="translate(0.23 -28.35)"/><line class="cls-4" x1="68.18" y1="549.66" x2="95.89" y2="549.66"/><polyline class="cls-4" points="66.53 550.82 56.16 550.82 56.16 521.04"/><line class="cls-4" x1="73.08" y1="535.89" x2="73.08" y2="524.86"/><polyline class="cls-4" points="95.81 549.66 73.08 546.92 73.08 535.89"/><line class="cls-4" x1="95.8" y1="522.2" x2="73.08" y2="524.86"/><line class="cls-4" x1="95.8" y1="548.91" x2="73.08" y2="546.26"/><line class="cls-4" x1="95.8" y1="522.87" x2="73.08" y2="525.6"/><line class="cls-4" x1="68.18" y1="522.2" x2="95.89" y2="522.2"/><line class="cls-4" x1="56.16" y1="521.04" x2="66.52" y2="521.04"/><polyline class="cls-4" points="95.81 549.66 98.87 549.24 101.78 548.08 104.35 546.17 106.34 543.69 107.83 540.78 108.58 537.55 108.58 534.23 107.83 531.08 106.34 528.09 104.35 525.61 101.78 523.78 98.87 522.62 95.81 522.2"/><polyline class="cls-4" points="95.81 548.91 98.71 548.58 101.44 547.42 103.85 545.68 105.84 543.27 107.17 540.53 107.83 537.47 107.83 534.31 107.17 531.33 105.84 528.51 103.85 526.18 101.44 524.36 98.71 523.28 95.81 522.87"/><path class="cls-4" d="M68.08,577.63a126.66,126.66,0,0,0,0-26.69" transform="translate(0.23 -28.35)"/><path class="cls-4" d="M66.34,579.17a1.75,1.75,0,0,0,1.77-1.52" transform="translate(0.23 -28.35)"/><path class="cls-4" d="M68.12,551a1.76,1.76,0,0,0-1.78-1.53" transform="translate(0.23 -28.35)"/><path class="cls-4" d="M64,564.28a1.46,1.46,0,1,0-1.45,1.45A1.45,1.45,0,0,0,64,564.28" transform="translate(0.23 -28.35)"/><polyline class="cls-4" points="222.3 86.41 222.3 43.36 222.71 43.36 222.71 86.41 222.3 86.41"/><polyline class="cls-4" points="221.14 42.2 149.06 42.2 149.06 41.78 221.14 41.78 221.14 42.2"/><polyline class="cls-4" points="147.81 43.36 147.81 86.41 147.48 86.41 147.48 43.36 147.81 43.36"/><polyline class="cls-4" points="221.14 88.4 221.14 86.41 223.04 86.41 223.04 88.4 221.14 88.4"/><polyline class="cls-4" points="221.14 43.36 221.14 41.37 223.04 41.37 223.04 43.36 221.14 43.36"/><polyline class="cls-4" points="149.06 43.36 147.06 43.36 147.06 41.37 149.06 41.37 149.06 43.36"/><polyline class="cls-4" points="149.06 86.41 149.06 88.4 147.06 88.4 147.06 86.41 149.06 86.41"/><line class="cls-4" x1="221.14" y1="87.4" x2="221.14" y2="43.36"/><line class="cls-4" x1="223.04" y1="41.37" x2="223.04" y2="87.4"/><line class="cls-4" x1="221.14" y1="43.36" x2="149.06" y2="43.36"/><line class="cls-4" x1="147.06" y1="41.37" x2="223.04" y2="41.37"/><line class="cls-4" x1="149.06" y1="43.36" x2="149.06" y2="87.4"/><line class="cls-4" x1="147.06" y1="87.4" x2="147.06" y2="41.37"/><polyline class="cls-4" points="223.04 87.4 223.04 88.4 221.14 88.4 221.14 87.4"/><polyline class="cls-4" points="149.06 87.4 149.06 88.4 147.06 88.4 147.06 87.4"/><polyline class="cls-4" points="147.06 41.37 223.04 41.37 223.04 87.4 221.14 87.4 221.14 43.36 149.06 43.36 149.06 87.4 147.06 87.4 147.06 41.37"/><polyline class="cls-4" points="150.96 55.47 219.15 55.47 219.15 80.6 150.96 80.6 150.96 55.47"/><polyline class="cls-4" points="150.96 57.96 219.15 57.96 219.15 80.6 150.96 80.6 150.96 57.96"/><polyline class="cls-4" points="466.82 86.41 466.82 43.36 467.24 43.36 467.24 86.41 466.82 86.41"/><polyline class="cls-4" points="465.66 42.2 393.58 42.2 393.58 41.78 465.66 41.78 465.66 42.2"/><polyline class="cls-4" points="392.34 43.36 392.34 86.41 392 86.41 392 43.36 392.34 43.36"/><polyline class="cls-4" points="465.66 88.4 465.66 86.41 467.65 86.41 467.65 88.4 465.66 88.4"/><polyline class="cls-4" points="465.66 43.36 465.66 41.37 467.65 41.37 467.65 43.36 465.66 43.36"/><polyline class="cls-4" points="393.58 43.36 391.59 43.36 391.59 41.37 393.58 41.37 393.58 43.36"/><polyline class="cls-4" points="393.58 86.41 393.58 88.4 391.59 88.4 391.59 86.41 393.58 86.41"/><line class="cls-4" x1="465.66" y1="87.4" x2="465.66" y2="43.36"/><line class="cls-4" x1="467.65" y1="41.37" x2="467.65" y2="87.4"/><line class="cls-4" x1="465.66" y1="43.36" x2="393.58" y2="43.36"/><line class="cls-4" x1="391.59" y1="41.37" x2="467.65" y2="41.37"/><line class="cls-4" x1="393.58" y1="43.36" x2="393.58" y2="87.4"/><line class="cls-4" x1="391.59" y1="87.4" x2="391.59" y2="41.37"/><polyline class="cls-4" points="467.65 87.4 467.65 88.4 465.66 88.4 465.66 87.4"/><polyline class="cls-4" points="393.58 87.4 393.58 88.4 391.59 88.4 391.59 87.4"/><polyline class="cls-4" points="391.59 41.37 467.65 41.37 467.65 87.4 465.66 87.4 465.66 43.36 393.58 43.36 393.58 87.4 391.59 87.4 391.59 41.37"/><polyline class="cls-4" points="395.49 55.47 463.67 55.47 463.67 80.6 395.49 80.6 395.49 55.47"/><polyline class="cls-4" points="395.49 57.96 463.67 57.96 463.67 80.6 395.49 80.6 395.49 57.96"/><polyline class="cls-4" points="743.53 468.54 743.53 452.86 821.83 452.86 821.83 468.54 743.53 468.54"/><polyline class="cls-4" points="290.48 192.66 306.15 192.66 306.15 114.28 290.48 114.28 290.48 192.66"/><polyline class="cls-4" points="776.37 129.95 776.37 114.28 854.76 114.28 854.76 129.95 776.37 129.95"/><polyline class="cls-4" points="0.5 192.66 16.18 192.66 16.18 114.28 0.5 114.28 0.5 192.66"/><polyline class="cls-4" points="0.5 459.08 16.18 459.08 16.18 380.7 0.5 380.7 0.5 459.08"/><polyline class="cls-4" points="227.77 817.24 227.77 801.57 306.15 801.57 306.15 817.24 227.77 817.24"/><polyline class="cls-4" points="516.17 459.08 531.85 459.08 531.85 380.7 516.17 380.7 516.17 459.08"/><polyline class="cls-4" points="516.17 192.66 531.85 192.66 531.85 114.28 516.17 114.28 516.17 192.66"/><polyline class="cls-4" points="464.66 817.24 464.66 801.57 543.05 801.57 543.05 817.24 464.66 817.24"/><polyline class="cls-4" points="910.91 294.93 924.51 302.65 885.95 370.83 872.34 363.11 910.91 294.93"/><polyline class="cls-4" points="0.5 801.57 37.33 801.57 37.33 817.24 0.5 817.24"/><polyline class="cls-4" points="635.03 639.08 648.64 646.79 610.07 715.05 596.38 707.34 635.03 639.08"/><polyline class="cls-4" points="290.48 459.08 306.15 459.08 306.15 380.7 290.48 380.7 290.48 459.08"/><text class="cls-14" transform="translate(561.45 10.2)"><tspan class="cls-15">у</tspan><tspan x="5.42" y="0">лица</tspan></text><line class="cls-16" x1="550.69" y1="4.22" x2="550.69" y2="13.02"/><polyline class="cls-16" points="554.19 7.72 550.69 4.22 547.19 7.72"/><text class="cls-14" transform="translate(1100.42 392.75) rotate(90)"><tspan class="cls-15">у</tspan><tspan x="5.42" y="0">лица</tspan></text><line class="cls-16" x1="1106.4" y1="381.99" x2="1097.6" y2="381.99"/><polyline class="cls-16" points="1102.9 385.49 1106.4 381.99 1102.9 378.49"/></svg>