<svg width="24" height="24" viewBox="0 0 24 24" fill="none" xmlns="http://www.w3.org/2000/svg">
<path d="M12.0005 6.25153C11.2551 6.25153 10.6299 6.90083 10.6299 7.64631C10.6299 8.39179 11.2551 9.01708 12.0005 9.01708C12.7701 9.01708 13.3953 8.39179 13.3953 7.64631C13.3953 6.90083 12.7701 6.25153 12.0005 6.25153Z" fill="white"/>
<path d="M13.1064 10.3889H10.918V17.4589H13.1064V10.3889Z" fill="white"/>
<path d="M12 0C5.38677 0 0 5.38677 0 12C0 18.6132 5.38677 24 12 24C15.1984 24 18.2284 22.7494 20.489 20.489C22.7495 18.2284 24 15.1984 24 12C24 5.38677 18.6132 0 12 0ZM18.9259 18.9499C17.0741 20.8016 14.5972 21.8356 11.976 21.8356C6.56514 21.8356 2.16432 17.4348 2.16432 12.024C2.16432 6.61321 6.58916 2.18838 12 2.18838C17.4108 2.18838 21.8116 6.58919 21.8116 12C21.8116 14.6212 20.8016 17.0981 18.9259 18.9499Z" fill="white"/>
</svg>
