<svg id="_345" data-name="345" xmlns="http://www.w3.org/2000/svg" viewBox="0 0 405.53 789.17"><defs><style>.cls-1{isolation:isolate;font-size:12px;fill:#969696;}.cls-1,.cls-3,.cls-5{font-family:PTSans-Regular, PT Sans;}.cls-2,.cls-4,.cls-6,.cls-7,.cls-8,.cls-9{fill:none;stroke-linecap:round;stroke-linejoin:round;}.cls-2{stroke:#969696;stroke-width:0.75px;}.cls-3{font-size:40px;}.cls-4,.cls-6,.cls-7,.cls-8,.cls-9{stroke:#000;}.cls-4,.cls-8,.cls-9{stroke-width:0.5px;}.cls-5{font-size:36px;}.cls-6{stroke-width:0.25px;stroke-dasharray:1 1;}.cls-8{stroke-dasharray:3.04 3.04;}.cls-9{stroke-dasharray:3.04 3.04;}</style></defs><title>4floor_345flat</title><text class="cls-1" transform="translate(197.19 10.2)">двор</text><line class="cls-2" x1="186.43" y1="4.22" x2="186.43" y2="13.02"/><polyline class="cls-2" points="189.93 7.72 186.43 4.22 182.93 7.72"/><text class="cls-3" transform="translate(179.6 310.43)">CT</text><text class="cls-3" transform="translate(154.24 360.6)">23.60</text><text class="cls-3" transform="translate(148.96 260.52)">№345</text><polyline class="cls-4" points="139.95 371.42 139.95 222.34 264.27 222.34 264.27 371.42"/><line class="cls-4" x1="139.95" y1="272.13" x2="264.27" y2="272.13"/><line class="cls-4" x1="139.95" y1="371.42" x2="264.27" y2="371.42"/><line class="cls-4" x1="139.95" y1="321.91" x2="264.27" y2="321.91"/><text class="cls-5" transform="translate(166.12 187.06)">14.06</text><text class="cls-5" transform="translate(264.24 652.55)">3.75</text><text class="cls-5" transform="translate(91.58 652.55)">3.59</text><text class="cls-5" transform="translate(105.55 445.95)">2.20</text><line class="cls-6" x1="188.43" y1="695.75" x2="188.43" y2="612.5"/><line class="cls-6" x1="195.9" y1="695.75" x2="195.9" y2="612.5"/><line class="cls-6" x1="322.79" y1="572.08" x2="235.21" y2="572.08"/><line class="cls-6" x1="322.79" y1="564.6" x2="235.21" y2="564.6"/><line class="cls-6" x1="243.93" y1="789.05" x2="334.01" y2="789.05"/><line class="cls-7" x1="405.03" y1="99.98" x2="291.89" y2="99.98"/><polyline class="cls-7" points="292 98.96 405.03 98.96 405.03 142.2"/><line class="cls-7" x1="288.43" y1="133.61" x2="385.76" y2="133.61"/><line class="cls-7" x1="405.03" y1="133.61" x2="405.03" y2="133.61"/><line class="cls-7" x1="19.76" y1="769.3" x2="19.76" y2="528.46"/><line class="cls-7" x1="19.76" y1="432.24" x2="19.76" y2="210.67"/><line class="cls-7" x1="0.5" y1="210.67" x2="0.5" y2="432.24"/><line class="cls-7" x1="0.5" y1="528.46" x2="0.5" y2="769.3"/><line class="cls-7" x1="405.03" y1="710.49" x2="405.03" y2="528.46"/><line class="cls-7" x1="405.03" y1="432.24" x2="405.03" y2="210.67"/><line class="cls-7" x1="385.76" y1="210.67" x2="385.76" y2="432.24"/><line class="cls-7" x1="385.76" y1="528.46" x2="385.76" y2="710.49"/><line class="cls-7" x1="195.99" y1="619.98" x2="188.34" y2="619.98"/><line class="cls-7" x1="195.99" y1="687.46" x2="188.34" y2="687.46"/><line class="cls-7" x1="188.34" y1="511.13" x2="188.34" y2="564.13"/><line class="cls-7" x1="188.34" y1="571.88" x2="188.34" y2="619.98"/><polyline class="cls-7" points="188.34 687.46 188.34 769.3 195.99 769.3 195.99 687.46"/><line class="cls-7" x1="195.99" y1="619.98" x2="195.99" y2="571.88"/><line class="cls-7" x1="195.99" y1="564.13" x2="195.99" y2="503.49"/><line class="cls-7" x1="195.99" y1="687.46" x2="188.34" y2="687.46"/><line class="cls-7" x1="195.99" y1="619.98" x2="188.34" y2="619.98"/><line class="cls-7" x1="241.34" y1="571.88" x2="241.34" y2="564.13"/><polyline class="cls-7" points="327.97 571.88 327.97 564.13 385.76 564.13"/><line class="cls-7" x1="241.34" y1="564.13" x2="195.99" y2="564.13"/><line class="cls-7" x1="195.99" y1="571.88" x2="241.34" y2="571.88"/><polyline class="cls-7" points="327.97 571.88 385.76 571.88 385.76 564.13"/><line class="cls-7" x1="327.97" y1="571.88" x2="327.97" y2="564.13"/><line class="cls-7" x1="241.34" y1="571.88" x2="241.34" y2="564.13"/><polyline class="cls-7" points="195.99 503.49 188.34 503.49 75.62 503.49"/><line class="cls-7" x1="67.97" y1="503.49" x2="19.76" y2="503.49"/><line class="cls-7" x1="19.76" y1="511.13" x2="67.97" y2="511.13"/><polyline class="cls-7" points="75.62 564.13 75.62 511.13 188.34 511.13"/><line class="cls-7" x1="75.62" y1="503.49" x2="67.97" y2="503.49"/><line class="cls-7" x1="67.97" y1="511.13" x2="67.97" y2="564.13"/><polyline class="cls-7" points="29.45 571.88 29.45 568 29.45 564.13"/><polyline class="cls-7" points="67.97 571.88 67.97 568 67.97 564.13"/><line class="cls-7" x1="19.76" y1="571.88" x2="29.45" y2="571.88"/><line class="cls-7" x1="67.97" y1="571.88" x2="188.34" y2="571.88"/><line class="cls-7" x1="188.34" y1="564.13" x2="75.62" y2="564.13"/><polyline class="cls-7" points="29.45 564.13 19.76 564.13 19.76 571.88"/><line class="cls-7" x1="67.97" y1="571.88" x2="29.45" y2="571.88"/><line class="cls-7" x1="67.97" y1="564.13" x2="29.45" y2="564.13"/><path class="cls-7" d="M65.43,613.34a38.6,38.6,0,0,0,2.32-13.16" transform="translate(0.22 -28.35)"/><line class="cls-7" x1="29.45" y1="571.88" x2="65.63" y2="585.03"/><polyline class="cls-7" points="67.97 564.13 67.97 568 67.97 571.88 67.97 568"/><polyline class="cls-7" points="29.45 564.13 29.45 568 29.45 571.88 29.45 568"/><line class="cls-7" x1="339.49" y1="710.49" x2="339.49" y2="769.3"/><line class="cls-7" x1="358.75" y1="788.56" x2="358.75" y2="729.75"/><polyline class="cls-7" points="332.76 788.56 332.76 780.82 332.76 769.3"/><polyline class="cls-7" points="236.45 788.56 236.45 780.82 236.45 769.3"/><line class="cls-7" x1="58.29" y1="788.56" x2="236.45" y2="788.56"/><polyline class="cls-7" points="358.75 788.56 339.49 788.56 332.76 788.56"/><line class="cls-7" x1="339.49" y1="769.3" x2="332.76" y2="769.3"/><line class="cls-7" x1="236.45" y1="769.3" x2="58.29" y2="769.3"/><path class="cls-7" d="M328.72,720.5a88.62,88.62,0,0,0-88.62,88.62" transform="translate(0.22 -28.35)"/><polyline class="cls-7" points="236.45 788.56 240.32 788.56 240.32 780.82 236.45 780.82 236.45 788.56"/><polyline class="cls-7" points="332.76 780.82 328.89 780.82 328.89 788.56 332.76 788.56 332.76 780.82"/><line class="cls-7" x1="328.89" y1="780.82" x2="328.89" y2="692.25"/><polyline class="cls-7" points="236.45 769.3 236.45 780.82 236.45 788.56 236.45 780.82"/><polyline class="cls-7" points="332.76 769.3 332.76 780.82 332.76 788.56 332.76 780.82"/><line class="cls-7" x1="358.75" y1="729.75" x2="405.03" y2="729.75"/><line class="cls-7" x1="405.03" y1="710.49" x2="405.03" y2="710.49"/><polyline class="cls-7" points="339.49 710.49 358.75 710.49 385.76 710.49"/><polyline class="cls-7" points="405.03 729.75 405.03 729.75 405.03 729.75"/><polyline class="cls-7" points="405.03 710.49 405.03 729.75 405.03 729.75"/><line class="cls-7" x1="24.86" y1="757.68" x2="24.86" y2="708.55"/><line class="cls-7" x1="30.06" y1="702.85" x2="142.17" y2="702.85"/><line class="cls-7" x1="30.06" y1="763.49" x2="142.17" y2="763.49"/><line class="cls-7" x1="173.87" y1="697.04" x2="19.76" y2="697.04"/><polyline class="cls-7" points="173.87 697.04 173.87 769.3 19.76 769.3 19.76 697.04"/><line class="cls-7" x1="124.23" y1="753.4" x2="36.38" y2="753.4"/><line class="cls-7" x1="33.83" y1="750.55" x2="33.83" y2="715.79"/><line class="cls-7" x1="124.23" y1="712.83" x2="36.38" y2="712.83"/><line class="cls-7" x1="51.87" y1="734.95" x2="51.87" y2="738.52"/><line class="cls-7" x1="50.34" y1="733.12" x2="47.08" y2="733.12"/><line class="cls-7" x1="51.87" y1="731.38" x2="51.87" y2="727.82"/><line class="cls-7" x1="53.5" y1="733.12" x2="56.66" y2="733.12"/><path class="cls-7" d="M142,791.74c14.89,0,27-13.57,27-30.32s-12.07-30.32-27-30.32" transform="translate(0.22 -28.35)"/><path class="cls-7" d="M29.89,731.1c-2.85,0-5.15,2.58-5.15,5.76" transform="translate(0.22 -28.35)"/><path class="cls-7" d="M24.74,786c0,3.18,2.3,5.76,5.15,5.76" transform="translate(0.22 -28.35)"/><path class="cls-7" d="M51.7,758.41a3,3,0,1,0,2.7,3,2.87,2.87,0,0,0-2.7-3" transform="translate(0.22 -28.35)"/><path class="cls-7" d="M124.06,781.75c9.94,0,18-9.1,18-20.33s-8.05-20.33-18-20.33" transform="translate(0.22 -28.35)"/><path class="cls-7" d="M33.61,778.85a2.76,2.76,0,0,0,2.6,2.9" transform="translate(0.22 -28.35)"/><path class="cls-7" d="M36.21,741.19a2.76,2.76,0,0,0-2.6,2.9" transform="translate(0.22 -28.35)"/><path class="cls-7" d="M51.7,757.39a4.05,4.05,0,1,0,3.62,4,3.84,3.84,0,0,0-3.62-4" transform="translate(0.22 -28.35)"/><polyline class="cls-7" points="41.78 642.1 19.76 642.1 19.76 694.18 41.78 694.18"/><line class="cls-7" x1="19.76" y1="676.35" x2="19.76" y2="659.94"/><line class="cls-7" x1="37.4" y1="672.47" x2="37.4" y2="669.72"/><line class="cls-7" x1="33.01" y1="668.09" x2="35.76" y2="668.09"/><line class="cls-7" x1="37.4" y1="666.56" x2="37.4" y2="663.71"/><line class="cls-7" x1="39.03" y1="668.09" x2="41.78" y2="668.09"/><path class="cls-7" d="M43,673.6a23.21,23.21,0,0,0-11,9" transform="translate(0.22 -28.35)"/><path class="cls-7" d="M31.94,682.6a23.11,23.11,0,0,0-3.25,13.82" transform="translate(0.22 -28.35)"/><path class="cls-7" d="M32,710.29a23.13,23.13,0,0,0,11,9" transform="translate(0.22 -28.35)"/><path class="cls-7" d="M28.69,696.47a23.11,23.11,0,0,0,3.25,13.82" transform="translate(0.22 -28.35)"/><path class="cls-7" d="M59,694.58a42.78,42.78,0,0,0-4.29-15.78" transform="translate(0.22 -28.35)"/><path class="cls-7" d="M41.55,722.42a13.21,13.21,0,0,0,10.86-4.92" transform="translate(0.22 -28.35)"/><path class="cls-7" d="M59,698.32a24.71,24.71,0,0,0,0-3.65" transform="translate(0.22 -28.35)"/><path class="cls-7" d="M32.9,681.94a95,95,0,0,0,0,29.1" transform="translate(0.22 -28.35)"/><path class="cls-7" d="M23.79,713.74A32.62,32.62,0,0,0,45,721.1" transform="translate(0.22 -28.35)"/><path class="cls-7" d="M20.66,696.41a65.86,65.86,0,0,0,1.61,14.88" transform="translate(0.22 -28.35)"/><path class="cls-7" d="M22.3,711.31a4.27,4.27,0,0,0,1.48,2.4" transform="translate(0.22 -28.35)"/><path class="cls-7" d="M22.7,696.41a110.74,110.74,0,0,0,1.06,14.67" transform="translate(0.22 -28.35)"/><path class="cls-7" d="M25.22,713.76a29.4,29.4,0,0,0,19.83,7.35" transform="translate(0.22 -28.35)"/><path class="cls-7" d="M23.76,711.16a4.33,4.33,0,0,0,1.43,2.65" transform="translate(0.22 -28.35)"/><path class="cls-7" d="M45,671.78a29.45,29.45,0,0,0-19.82,7.37" transform="translate(0.22 -28.35)"/><path class="cls-7" d="M45,671.78a32.64,32.64,0,0,0-21.22,7.4" transform="translate(0.22 -28.35)"/><path class="cls-7" d="M23.74,681.77a110.42,110.42,0,0,0-1,14.65" transform="translate(0.22 -28.35)"/><path class="cls-7" d="M22.25,681.58a64.83,64.83,0,0,0-1.58,14.88" transform="translate(0.22 -28.35)"/><path class="cls-7" d="M25.18,679.18a4.37,4.37,0,0,0-1.42,2.66" transform="translate(0.22 -28.35)"/><path class="cls-7" d="M23.68,679.18a4.31,4.31,0,0,0-1.48,2.4" transform="translate(0.22 -28.35)"/><path class="cls-7" d="M52.41,675.39a13.21,13.21,0,0,0-10.86-4.92" transform="translate(0.22 -28.35)"/><path class="cls-7" d="M54.78,678.87a20.15,20.15,0,0,0-2.24-3.47" transform="translate(0.22 -28.35)"/><path class="cls-7" d="M52.54,717.59a20.46,20.46,0,0,0,2.24-3.46" transform="translate(0.22 -28.35)"/><path class="cls-7" d="M54.68,714.09A42.83,42.83,0,0,0,59,698.31" transform="translate(0.22 -28.35)"/><path class="cls-7" d="M55.38,703.66a30.45,30.45,0,0,0,0-14.33" transform="translate(0.22 -28.35)"/><path class="cls-7" d="M49.34,676.32a7.77,7.77,0,0,0-6.43-2.69" transform="translate(0.22 -28.35)"/><path class="cls-7" d="M55.3,689.26a28.12,28.12,0,0,0-5.95-13" transform="translate(0.22 -28.35)"/><path class="cls-7" d="M42.91,719.26a7.8,7.8,0,0,0,6.43-2.69" transform="translate(0.22 -28.35)"/><path class="cls-7" d="M49.35,716.58a28.12,28.12,0,0,0,5.95-13" transform="translate(0.22 -28.35)"/><path class="cls-7" d="M40.64,696.39a3.42,3.42,0,1,0-3.42,3.42,3.42,3.42,0,0,0,3.42-3.42" transform="translate(0.22 -28.35)"/><path class="cls-7" d="M39.62,696.39a2.4,2.4,0,1,0-2.4,2.4,2.39,2.39,0,0,0,2.4-2.4" transform="translate(0.22 -28.35)"/><line class="cls-7" x1="34.54" y1="593.48" x2="68.58" y2="593.48"/><polyline class="cls-7" points="32.5 592.06 19.76 592.06 19.76 628.65"/><line class="cls-7" x1="40.56" y1="610.4" x2="40.56" y2="623.96"/><polyline class="cls-7" points="68.48 593.49 40.55 596.75 40.55 610.4"/><line class="cls-7" x1="68.48" y1="627.22" x2="40.56" y2="623.96"/><line class="cls-7" x1="68.48" y1="594.4" x2="40.56" y2="597.66"/><line class="cls-7" x1="68.48" y1="626.3" x2="40.56" y2="623.04"/><line class="cls-7" x1="34.54" y1="627.22" x2="68.58" y2="627.22"/><line class="cls-7" x1="19.76" y1="628.65" x2="32.5" y2="628.65"/><polyline class="cls-7" points="68.48 593.49 72.25 593.99 75.82 595.42 78.98 597.76 81.53 600.82 83.26 604.39 84.18 608.37 84.18 612.44 83.26 616.32 81.53 619.98 78.98 623.04 75.82 625.28 72.25 626.71 68.48 627.22"/><polyline class="cls-7" points="68.48 594.4 72.05 594.81 75.41 596.24 78.37 598.38 80.81 601.33 82.44 604.7 83.36 608.47 83.36 612.34 82.44 616.01 80.81 619.48 78.37 622.33 75.41 624.57 72.05 625.9 68.48 626.3"/><path class="cls-7" d="M34.47,655.1a155,155,0,0,0,0-32.8" transform="translate(0.22 -28.35)"/><path class="cls-7" d="M34.51,622.27a2.15,2.15,0,0,0-2.18-1.86" transform="translate(0.22 -28.35)"/><path class="cls-7" d="M32.33,656.9A2.15,2.15,0,0,0,34.51,655" transform="translate(0.22 -28.35)"/><path class="cls-7" d="M29.43,638.71a1.79,1.79,0,1,0-1.79,1.78,1.79,1.79,0,0,0,1.79-1.78" transform="translate(0.22 -28.35)"/><polyline class="cls-7" points="77.55 445.7 77.55 498.7 24.55 498.7 24.55 445.7 77.55 445.7"/><polyline class="cls-7" points="29.45 450.49 72.76 450.49 72.76 489.01 29.45 489.01 29.45 450.49"/><polyline class="cls-7" points="0.5 788.56 0.5 769.3 0.5 697.04"/><line class="cls-7" x1="0.5" y1="676.35" x2="0.5" y2="659.94"/><polyline class="cls-7" points="384.44 96.62 384.44 43.62 384.95 43.62 384.95 96.62 384.44 96.62"/><polyline class="cls-7" points="383.01 42.19 294.34 42.19 294.34 41.68 383.01 41.68 383.01 42.19"/><polyline class="cls-7" points="292.91 43.62 292.91 96.62 292.5 96.62 292.5 43.62 292.91 43.62"/><polyline class="cls-7" points="383.01 98.96 383.01 96.62 385.36 96.62 385.36 98.96 383.01 98.96"/><polyline class="cls-7" points="383.01 43.62 383.01 41.17 385.36 41.17 385.36 43.62 383.01 43.62"/><polyline class="cls-7" points="294.34 43.62 292 43.62 292 41.17 294.34 41.17 294.34 43.62"/><polyline class="cls-7" points="294.34 96.62 294.34 98.96 292 98.96 292 96.62 294.34 96.62"/><line class="cls-7" x1="383.01" y1="97.74" x2="383.01" y2="43.62"/><line class="cls-7" x1="385.36" y1="41.17" x2="385.36" y2="97.74"/><line class="cls-7" x1="383.01" y1="43.62" x2="294.34" y2="43.62"/><line class="cls-7" x1="292" y1="41.17" x2="385.36" y2="41.17"/><line class="cls-7" x1="294.34" y1="43.62" x2="294.34" y2="97.74"/><line class="cls-7" x1="292" y1="97.74" x2="292" y2="41.17"/><polyline class="cls-7" points="385.36 97.74 385.36 98.96 383.01 98.96 383.01 97.74"/><polyline class="cls-7" points="294.34 97.74 294.34 98.96 292 98.96 292 97.74"/><polyline class="cls-7" points="292 41.17 385.36 41.17 385.36 97.74 383.01 97.74 383.01 43.62 294.34 43.62 294.34 97.74 292 97.74 292 41.17"/><polyline class="cls-7" points="296.79 58.5 380.56 58.5 380.56 89.38 296.79 89.38 296.79 58.5"/><polyline class="cls-7" points="296.79 61.66 380.56 61.66 380.56 89.38 296.79 89.38 296.79 61.66"/><line class="cls-4" x1="19.76" y1="387.91" x2="21.26" y2="387.91"/><line class="cls-8" x1="24.3" y1="387.91" x2="192.97" y2="387.91"/><polyline class="cls-4" points="194.49 387.91 195.99 387.91 195.99 389.41"/><line class="cls-9" x1="195.99" y1="392.45" x2="195.99" y2="500.47"/><line class="cls-4" x1="195.99" y1="501.99" x2="195.99" y2="503.49"/><polyline class="cls-7" points="7.74 99.98 0.5 99.98 0.5 125.09"/><line class="cls-7" x1="7.63" y1="98.96" x2="0.5" y2="98.96"/><line class="cls-7" x1="0.5" y1="133.61" x2="0.5" y2="133.61"/><line class="cls-7" x1="149.82" y1="70.73" x2="149.82" y2="70.73"/><line class="cls-7" x1="61.75" y1="88.87" x2="7.74" y2="99.98"/><line class="cls-7" x1="65.53" y1="88.06" x2="67.46" y2="97.43"/><line class="cls-7" x1="65.32" y1="87.14" x2="65.53" y2="88.06"/><line class="cls-7" x1="63.69" y1="98.25" x2="63.69" y2="98.25"/><polyline class="cls-7" points="61.76 88.87 64.61 88.26 66.55 97.64 64.61 88.26"/><line class="cls-7" x1="64.4" y1="87.34" x2="65.32" y2="87.14"/><polyline class="cls-7" points="63.69 98.25 64.91 103.96 68.58 121.79 19.76 131.88"/><line class="cls-7" x1="64.4" y1="87.34" x2="7.63" y2="98.96"/><line class="cls-7" x1="149.82" y1="69.71" x2="65.32" y2="87.14"/><line class="cls-7" x1="149.82" y1="105.18" x2="68.58" y2="121.79"/><polyline class="cls-7" points="149.81 86.42 144.62 87.55 143.8 83.78 141.46 84.18 141.05 82.35 148.59 80.82 149.81 80.51"/><polyline class="cls-7" points="63.69 98.25 71.23 96.72 71.64 98.55 69.3 99.06 70.11 102.83 64.91 103.96"/><line class="cls-7" x1="71.23" y1="96.72" x2="141.05" y2="82.35"/><polyline class="cls-7" points="145.03 89.38 139.32 90.6 76.13 103.55"/><polyline class="cls-7" points="139.32 90.6 138.2 84.9 143.8 83.78 145.03 89.38"/><polyline class="cls-7" points="69.3 99.06 75 97.94 76.13 103.55 70.42 104.77 69.3 99.06"/><line class="cls-7" x1="75" y1="97.94" x2="138.2" y2="84.9"/><line class="cls-7" x1="139.32" y1="90.6" x2="76.13" y2="103.55"/><line class="cls-7" x1="138.71" y1="87.75" x2="75.51" y2="100.69"/><line class="cls-7" x1="148.59" y1="80.82" x2="149.82" y2="86.42"/><polyline class="cls-7" points="68.58 121.79 64.91 103.96 63.69 98.25 64.91 103.96"/><line class="cls-7" x1="65.32" y1="87.14" x2="65.53" y2="88.06"/><polyline class="cls-7" points="67.46 97.43 66.55 97.64 67.46 97.43"/><polyline class="cls-7" points="66.55 97.64 63.69 98.25 66.55 97.64"/><line class="cls-7" x1="65.53" y1="88.06" x2="67.46" y2="97.43"/><line class="cls-7" x1="288.73" y1="99.27" x2="286.8" y2="108.75"/><line class="cls-7" x1="288.94" y1="98.35" x2="288.73" y2="99.27"/><line class="cls-7" x1="290.57" y1="109.56" x2="290.57" y2="109.56"/><polyline class="cls-7" points="292.5 100.08 289.65 99.47 287.71 108.95 289.65 99.47"/><line class="cls-7" x1="289.86" y1="98.55" x2="288.94" y2="98.35"/><polyline class="cls-7" points="290.57 109.56 289.35 115.17 285.68 133.1 288.43 133.62"/><line class="cls-7" x1="292" y1="98.96" x2="289.86" y2="98.55"/><line class="cls-7" x1="146.96" y1="69.2" x2="288.94" y2="98.35"/><line class="cls-7" x1="146.96" y1="104.57" x2="285.68" y2="133.11"/><polyline class="cls-7" points="146.96 85.92 152.16 86.94 152.87 83.16 155.32 83.67 155.62 81.74 148.08 80.21 146.96 80"/><polyline class="cls-7" points="234 97.84 230.23 97.13 229.82 98.96 232.17 99.47 231.35 103.24 232.78 103.55"/><line class="cls-7" x1="230.23" y1="97.13" x2="155.62" y2="81.74"/><polyline class="cls-7" points="151.75 88.87 157.46 89.99 225.34 103.96"/><polyline class="cls-7" points="157.46 89.99 158.58 84.28 152.87 83.16 151.75 88.87"/><polyline class="cls-7" points="232.17 99.47 226.46 98.35 225.34 103.96 230.94 105.08 232.17 99.47"/><line class="cls-7" x1="226.46" y1="98.35" x2="158.58" y2="84.28"/><line class="cls-7" x1="157.46" y1="89.99" x2="225.34" y2="103.96"/><line class="cls-7" x1="157.97" y1="87.14" x2="225.95" y2="101.1"/><line class="cls-7" x1="148.08" y1="80.21" x2="146.96" y2="85.92"/><polyline class="cls-7" points="232.78 103.55 234.21 103.85 235.02 100.08 237.37 100.49 237.77 98.66 234 97.84"/><polyline class="cls-7" points="290.57 109.56 283.03 107.93 282.62 109.87 284.96 110.38 284.25 114.15 289.35 115.17"/><line class="cls-7" x1="283.03" y1="107.93" x2="237.77" y2="98.66"/><polyline class="cls-7" points="233.8 105.69 239.51 106.91 278.13 114.86"/><polyline class="cls-7" points="239.51 106.91 240.63 101.2 235.02 100.08 233.8 105.69"/><polyline class="cls-7" points="284.96 110.38 279.36 109.15 278.13 114.86 283.84 115.98 284.96 110.38"/><line class="cls-7" x1="279.36" y1="109.15" x2="240.63" y2="101.2"/><line class="cls-7" x1="239.51" y1="106.91" x2="278.13" y2="114.86"/><line class="cls-7" x1="240.02" y1="104.06" x2="278.75" y2="112.01"/><polyline class="cls-7" points="285.68 133.1 289.35 115.17 290.57 109.56 289.35 115.17"/><line class="cls-7" x1="288.94" y1="98.35" x2="288.73" y2="99.27"/><polyline class="cls-7" points="286.8 108.75 287.71 108.95 286.8 108.75"/><polyline class="cls-7" points="287.71 108.95 290.57 109.56 287.71 108.95"/><line class="cls-7" x1="288.73" y1="99.27" x2="286.8" y2="108.75"/><polyline class="cls-7" points="0.5 788.56 58.29 788.56 58.29 769.3 0.5 769.3"/><polyline class="cls-7" points="0.5 210.67 19.76 210.67 19.76 114.35 0.5 114.35 0.5 210.67"/><polyline class="cls-7" points="19.76 432.25 0.5 432.25 0.5 528.46 19.76 528.46 19.76 432.25"/><polyline class="cls-7" points="385.76 210.67 405.03 210.67 405.03 114.35 385.76 114.35 385.76 210.67"/><polyline class="cls-7" points="405.03 432.25 385.76 432.25 385.76 528.46 405.03 528.46 405.03 432.25"/></svg>