<svg id="_82" data-name="82" xmlns="http://www.w3.org/2000/svg" viewBox="0 0 323.16 670.05"><defs><style>.cls-1{isolation:isolate;font-size:12px;fill:#969696;}.cls-1,.cls-4,.cls-6{font-family:PTSans-Regular, PT Sans;}.cls-2{letter-spacing:-0.01em;}.cls-3,.cls-5,.cls-7,.cls-8{fill:none;stroke-linecap:round;stroke-linejoin:round;}.cls-3{stroke:#969696;stroke-width:0.75px;}.cls-4{font-size:40px;}.cls-5,.cls-7,.cls-8{stroke:#000;}.cls-5{stroke-width:0.5px;}.cls-6{font-size:36px;}.cls-8{stroke-width:0.25px;stroke-dasharray:1 1;}</style></defs><title>10floor_82flat</title><text class="cls-1" transform="translate(153.44 10.2)"><tspan class="cls-2">у</tspan><tspan x="5.42" y="0">лица</tspan></text><line class="cls-3" x1="142.68" y1="4.22" x2="142.68" y2="13.02"/><polyline class="cls-3" points="146.18 7.72 142.68 4.22 139.18 7.72"/><text class="cls-4" transform="translate(134.19 296.93)">СТ</text><text class="cls-4" transform="translate(108.83 347.1)">23.11</text><text class="cls-4" transform="translate(114.45 247.02)">№82</text><polyline class="cls-5" points="94.54 357.92 94.54 208.84 218.86 208.84 218.86 357.92"/><line class="cls-5" x1="94.54" y1="258.63" x2="218.86" y2="258.63"/><line class="cls-5" x1="94.54" y1="357.92" x2="218.86" y2="357.92"/><line class="cls-5" x1="94.54" y1="308.41" x2="218.86" y2="308.41"/><text class="cls-6" transform="translate(55.1 573.45)">3.72</text><text class="cls-6" transform="translate(175.16 556.15)">3.48</text><text class="cls-6" transform="translate(158.94 413.48)">2.20</text><text class="cls-6" transform="translate(113.61 175.15)">13.71</text><line class="cls-7" x1="163.16" y1="528.1" x2="169.48" y2="528.1"/><line class="cls-7" x1="163.16" y1="583.07" x2="169.48" y2="583.07"/><line class="cls-7" x1="163.16" y1="441.61" x2="163.16" y2="491.17"/><line class="cls-7" x1="163.16" y1="497.41" x2="163.16" y2="528.1"/><polyline class="cls-7" points="163.16 583.07 163.16 653.84 169.48 653.84 169.48 583.07"/><line class="cls-7" x1="169.48" y1="528.1" x2="169.48" y2="497.41"/><line class="cls-7" x1="169.48" y1="491.17" x2="169.48" y2="447.93"/><line class="cls-7" x1="163.16" y1="583.07" x2="169.48" y2="583.07"/><line class="cls-7" x1="163.16" y1="528.1" x2="169.48" y2="528.1"/><line class="cls-7" x1="145.86" y1="497.41" x2="145.86" y2="491.17"/><line class="cls-7" x1="75.18" y1="497.41" x2="75.18" y2="491.17"/><polyline class="cls-7" points="303.04 497.41 303.04 494.33 303.04 491.17"/><polyline class="cls-7" points="271.6 497.41 271.6 494.33 271.6 491.17"/><line class="cls-7" x1="16.22" y1="497.41" x2="75.18" y2="497.41"/><line class="cls-7" x1="145.86" y1="497.41" x2="163.16" y2="497.41"/><line class="cls-7" x1="169.48" y1="497.41" x2="271.6" y2="497.41"/><polyline class="cls-7" points="303.04 497.41 306.95 497.41 306.95 491.17 303.04 491.17"/><line class="cls-7" x1="271.6" y1="491.17" x2="267.69" y2="491.17"/><line class="cls-7" x1="261.37" y1="491.17" x2="169.48" y2="491.17"/><line class="cls-7" x1="163.16" y1="491.17" x2="145.86" y2="491.17"/><polyline class="cls-7" points="75.18 491.17 16.22 491.17 16.22 497.41"/><line class="cls-7" x1="75.18" y1="497.41" x2="75.18" y2="491.17"/><line class="cls-7" x1="145.86" y1="497.41" x2="145.86" y2="491.17"/><line class="cls-7" x1="271.6" y1="497.41" x2="303.04" y2="497.41"/><line class="cls-7" x1="271.6" y1="491.17" x2="303.04" y2="491.17"/><path class="cls-7" d="M271.69,525.8a31.47,31.47,0,0,0,1.89,10.74" transform="translate(0 -28.35)"/><line class="cls-7" x1="303.04" y1="497.41" x2="273.52" y2="508.22"/><polyline class="cls-7" points="271.6 491.17 271.6 494.33 271.6 497.41 271.6 494.33"/><polyline class="cls-7" points="303.04 491.17 303.04 494.33 303.04 497.41 303.04 494.33"/><line class="cls-7" x1="267.69" y1="491.17" x2="267.69" y2="447.93"/><polyline class="cls-7" points="169.48 447.93 261.37 447.93 261.37 491.17"/><polyline class="cls-7" points="267.69 447.93 306.95 447.93 306.95 441.61"/><polyline class="cls-7" points="163.16 441.61 169.48 441.61 306.95 441.61"/><line class="cls-7" x1="69.69" y1="101.4" x2="69.69" y2="109.3"/><line class="cls-7" x1="223.7" y1="101.4" x2="223.7" y2="109.3"/><line class="cls-7" x1="69.69" y1="100.65" x2="69.69" y2="101.4"/><line class="cls-7" x1="223.7" y1="100.65" x2="223.7" y2="101.4"/><line class="cls-7" x1="68.86" y1="100.65" x2="69.69" y2="100.65"/><line class="cls-7" x1="224.45" y1="100.65" x2="223.7" y2="100.65"/><polyline class="cls-7" points="66.53 109.3 66.53 113.96 66.53 128.93"/><polyline class="cls-7" points="226.78 109.3 226.78 113.96 226.78 128.93"/><line class="cls-7" x1="14.64" y1="128.93" x2="66.53" y2="128.93"/><line class="cls-7" x1="226.78" y1="128.93" x2="322.66" y2="128.93"/><line class="cls-7" x1="322.66" y1="100.65" x2="224.45" y2="100.65"/><line class="cls-7" x1="68.86" y1="100.65" x2="14.64" y2="100.65"/><polyline class="cls-7" points="69.69 100.65 223.7 100.65 223.7 83.36 69.69 83.36 69.69 100.65"/><line class="cls-7" x1="226.78" y1="128.93" x2="66.53" y2="128.93"/><polyline class="cls-7" points="226.78 113.96 222.46 113.96 222.46 110.8 220.54 110.8 220.54 109.3 226.78 109.3"/><polyline class="cls-7" points="172.31 109.3 175.47 109.3 175.47 110.8 173.47 110.8 173.47 113.96 172.31 113.96"/><line class="cls-7" x1="175.47" y1="109.3" x2="220.54" y2="109.3"/><polyline class="cls-7" points="222.46 115.54 217.8 115.54 178.21 115.54"/><polyline class="cls-7" points="217.8 115.54 217.8 110.8 222.46 110.8 222.46 115.54"/><polyline class="cls-7" points="173.47 110.8 178.21 110.8 178.21 115.54 173.47 115.54 173.47 110.8"/><line class="cls-7" x1="178.21" y1="110.8" x2="217.8" y2="110.8"/><line class="cls-7" x1="217.8" y1="115.54" x2="178.21" y2="115.54"/><line class="cls-7" x1="217.8" y1="113.21" x2="178.21" y2="113.21"/><polyline class="cls-7" points="172.31 113.96 171.15 113.96 171.15 110.8 169.15 110.8 169.15 109.3 172.31 109.3"/><polyline class="cls-7" points="121 109.3 124.16 109.3 124.16 110.8 122.16 110.8 122.16 113.96 121 113.96"/><line class="cls-7" x1="124.16" y1="109.3" x2="169.15" y2="109.3"/><polyline class="cls-7" points="171.15 115.54 166.41 115.54 126.9 115.54"/><polyline class="cls-7" points="166.41 115.54 166.41 110.8 171.15 110.8 171.15 115.54"/><polyline class="cls-7" points="122.16 110.8 126.9 110.8 126.9 115.54 122.16 115.54 122.16 110.8"/><line class="cls-7" x1="126.9" y1="110.8" x2="166.4" y2="110.8"/><line class="cls-7" x1="166.4" y1="115.54" x2="126.9" y2="115.54"/><line class="cls-7" x1="166.4" y1="113.21" x2="126.9" y2="113.21"/><polyline class="cls-7" points="121 113.96 119.83 113.96 119.83 110.8 117.84 110.8 117.84 109.3 121 109.3"/><polyline class="cls-7" points="66.53 109.3 72.77 109.3 72.77 110.8 70.85 110.8 70.85 113.96 66.53 113.96"/><line class="cls-7" x1="72.77" y1="109.3" x2="117.84" y2="109.3"/><polyline class="cls-7" points="119.83 115.54 115.09 115.54 75.51 115.54"/><polyline class="cls-7" points="115.09 115.54 115.09 110.8 119.83 110.8 119.83 115.54"/><polyline class="cls-7" points="70.85 110.8 75.51 110.8 75.51 115.54 70.85 115.54 70.85 110.8"/><line class="cls-7" x1="75.51" y1="110.8" x2="115.09" y2="110.8"/><line class="cls-7" x1="115.09" y1="115.54" x2="75.51" y2="115.54"/><line class="cls-7" x1="115.09" y1="113.21" x2="75.51" y2="113.21"/><polyline class="cls-7" points="226.78 128.93 226.78 113.96 226.78 109.3 226.78 113.96"/><polyline class="cls-7" points="66.53 128.93 66.53 113.96 66.53 109.3 66.53 113.96"/><line class="cls-7" x1="223.7" y1="100.65" x2="223.7" y2="101.4"/><polyline class="cls-7" points="223.7 109.3 224.45 109.3 223.7 109.3"/><polyline class="cls-7" points="224.45 109.3 226.78 109.3 224.45 109.3"/><line class="cls-7" x1="69.69" y1="100.65" x2="69.69" y2="101.4"/><polyline class="cls-7" points="69.69 109.3 68.86 109.3 69.69 109.3"/><polyline class="cls-7" points="68.86 109.3 66.53 109.3 68.86 109.3"/><line class="cls-7" x1="223.7" y1="101.4" x2="223.7" y2="109.3"/><line class="cls-7" x1="69.69" y1="101.4" x2="69.69" y2="109.3"/><line class="cls-7" x1="0.5" y1="128.93" x2="14.64" y2="128.93"/><line class="cls-7" x1="14.64" y1="100.65" x2="0.5" y2="100.65"/><line class="cls-7" x1="0.5" y1="128.93" x2="14.64" y2="128.93"/><polyline class="cls-7" points="14.64 87.26 0.5 87.26 0.5 177.84"/><line class="cls-7" x1="14.64" y1="128.93" x2="322.66" y2="128.93"/><polyline class="cls-7" points="14.64 87.26 322.66 87.26 322.66 175.15"/><polyline class="cls-7" points="145.86 669.55 145.86 663.23 145.86 653.84"/><polyline class="cls-7" points="67.28 669.55 67.28 663.23 67.28 653.84"/><line class="cls-7" x1="306.95" y1="653.83" x2="145.86" y2="653.83"/><line class="cls-7" x1="67.28" y1="653.83" x2="16.22" y2="653.83"/><line class="cls-7" x1="0.5" y1="653.83" x2="0.5" y2="653.83"/><line class="cls-7" x1="0.5" y1="669.55" x2="67.28" y2="669.55"/><line class="cls-7" x1="145.86" y1="669.55" x2="306.95" y2="669.55"/><polyline class="cls-7" points="67.28 669.55 67.53 669.55 67.61 669.55 67.69 669.55 67.94 669.55"/><line class="cls-7" x1="68.03" y1="669.55" x2="68.03" y2="669.55"/><line class="cls-7" x1="68.11" y1="669.55" x2="68.11" y2="669.55"/><polyline class="cls-7" points="68.19 669.55 68.44 669.55 68.53 669.55"/><line class="cls-7" x1="68.61" y1="669.55" x2="68.86" y2="669.55"/><line class="cls-7" x1="68.94" y1="669.55" x2="68.94" y2="669.55"/><line class="cls-7" x1="69.02" y1="669.55" x2="69.27" y2="669.55"/><line class="cls-7" x1="69.36" y1="669.55" x2="69.36" y2="669.55"/><line class="cls-7" x1="69.44" y1="669.55" x2="69.44" y2="669.55"/><polyline class="cls-7" points="69.52 669.55 69.77 669.55 69.86 669.55 69.94 669.55 70.19 669.55"/><line class="cls-7" x1="70.27" y1="669.55" x2="70.27" y2="669.55"/><line class="cls-7" x1="70.35" y1="669.55" x2="70.35" y2="669.55"/><line class="cls-7" x1="70.44" y1="669.55" x2="70.6" y2="669.55"/><line class="cls-7" x1="70.69" y1="669.55" x2="70.69" y2="669.55"/><line class="cls-7" x1="70.77" y1="669.55" x2="70.77" y2="669.55"/><line class="cls-7" x1="70.85" y1="669.55" x2="71.1" y2="669.55"/><polyline class="cls-7" points="71.19 669.55 71.27 669.55 71.52 669.55"/><line class="cls-7" x1="71.6" y1="669.55" x2="71.6" y2="669.55"/><line class="cls-7" x1="71.69" y1="669.55" x2="71.69" y2="669.55"/><polyline class="cls-7" points="71.77 669.55 72.02 669.55 72.1 669.55 72.18 669.55 72.43 669.55"/><line class="cls-7" x1="72.52" y1="669.55" x2="72.52" y2="669.55"/><line class="cls-7" x1="72.6" y1="669.55" x2="72.6" y2="669.55"/><line class="cls-7" x1="72.68" y1="669.55" x2="72.85" y2="669.55"/><line class="cls-7" x1="72.93" y1="669.55" x2="72.93" y2="669.55"/><line class="cls-7" x1="73.02" y1="669.55" x2="73.02" y2="669.55"/><polyline class="cls-7" points="73.1 669.55 73.35 669.55 73.43 669.55 73.52 669.55 73.76 669.55"/><line class="cls-7" x1="73.85" y1="669.55" x2="73.85" y2="669.55"/><line class="cls-7" x1="73.93" y1="669.55" x2="73.93" y2="669.55"/><polyline class="cls-7" points="74.01 669.55 74.26 669.55 74.35 669.55"/><line class="cls-7" x1="74.43" y1="669.55" x2="74.68" y2="669.55"/><line class="cls-7" x1="74.76" y1="669.55" x2="74.76" y2="669.55"/><line class="cls-7" x1="74.85" y1="669.55" x2="74.85" y2="669.55"/><line class="cls-7" x1="74.93" y1="669.55" x2="75.09" y2="669.55"/><line class="cls-7" x1="75.18" y1="669.55" x2="75.18" y2="669.55"/><line class="cls-7" x1="75.26" y1="669.55" x2="75.26" y2="669.55"/><polyline class="cls-7" points="75.34 669.55 75.59 669.55 75.68 669.55 75.76 669.55 76.01 669.55"/><line class="cls-7" x1="76.09" y1="669.55" x2="76.09" y2="669.55"/><line class="cls-7" x1="76.18" y1="669.55" x2="76.18" y2="669.55"/><line class="cls-7" x1="76.26" y1="669.55" x2="76.51" y2="669.55"/><line class="cls-7" x1="76.59" y1="669.55" x2="76.59" y2="669.55"/><line class="cls-7" x1="76.67" y1="669.55" x2="76.92" y2="669.55"/><polyline class="cls-7" points="77.01 669.55 77.09 669.55 77.34 669.55"/><line class="cls-7" x1="77.42" y1="669.55" x2="77.42" y2="669.55"/><line class="cls-7" x1="77.51" y1="669.55" x2="77.51" y2="669.55"/><polyline class="cls-7" points="77.59 669.55 77.84 669.55 77.92 669.55 78 669.55 78.25 669.55"/><line class="cls-7" x1="78.34" y1="669.55" x2="78.34" y2="669.55"/><line class="cls-7" x1="78.42" y1="669.55" x2="78.42" y2="669.55"/><line class="cls-7" x1="78.5" y1="669.55" x2="78.67" y2="669.55"/><line class="cls-7" x1="78.75" y1="669.55" x2="78.75" y2="669.55"/><line class="cls-7" x1="78.84" y1="669.55" x2="78.84" y2="669.55"/><polyline class="cls-7" points="78.92 669.55 79.17 669.55 79.25 669.55 79.34 669.55 79.59 669.55"/><line class="cls-7" x1="79.67" y1="669.55" x2="79.67" y2="669.55"/><line class="cls-7" x1="79.75" y1="669.55" x2="79.75" y2="669.55"/><polyline class="cls-7" points="79.83 669.55 80.08 669.55 80.17 669.55"/><line class="cls-7" x1="80.25" y1="669.55" x2="80.5" y2="669.55"/><line class="cls-7" x1="80.58" y1="669.55" x2="80.58" y2="669.55"/><line class="cls-7" x1="80.67" y1="669.55" x2="80.67" y2="669.55"/><line class="cls-7" x1="80.75" y1="669.55" x2="80.92" y2="669.55"/><line class="cls-7" x1="81" y1="669.55" x2="81" y2="669.55"/><line class="cls-7" x1="81.08" y1="669.55" x2="81.08" y2="669.55"/><polyline class="cls-7" points="81.17 669.55 81.42 669.55 81.5 669.55 81.58 669.55 81.83 669.55"/><line class="cls-7" x1="81.91" y1="669.55" x2="81.91" y2="669.55"/><line class="cls-7" x1="82" y1="669.55" x2="82" y2="669.55"/><line class="cls-7" x1="82.08" y1="669.55" x2="82.33" y2="669.55"/><line class="cls-7" x1="82.41" y1="669.55" x2="82.41" y2="669.55"/><line class="cls-7" x1="82.5" y1="669.55" x2="82.75" y2="669.55"/><line class="cls-7" x1="82.83" y1="669.55" x2="82.83" y2="669.55"/><line class="cls-7" x1="82.91" y1="669.55" x2="83.16" y2="669.55"/><line class="cls-7" x1="83.24" y1="669.55" x2="83.24" y2="669.55"/><line class="cls-7" x1="83.33" y1="669.55" x2="83.33" y2="669.55"/><polyline class="cls-7" points="83.41 669.55 83.66 669.55 83.74 669.55 83.83 669.55 84.08 669.55"/><line class="cls-7" x1="84.16" y1="669.55" x2="84.16" y2="669.55"/><line class="cls-7" x1="84.24" y1="669.55" x2="84.24" y2="669.55"/><line class="cls-7" x1="84.33" y1="669.55" x2="84.49" y2="669.55"/><line class="cls-7" x1="84.58" y1="669.55" x2="84.58" y2="669.55"/><line class="cls-7" x1="84.66" y1="669.55" x2="84.66" y2="669.55"/><polyline class="cls-7" points="84.74 669.55 84.99 669.55 85.07 669.55 85.16 669.55 85.41 669.55"/><line class="cls-7" x1="85.49" y1="669.55" x2="85.49" y2="669.55"/><line class="cls-7" x1="85.57" y1="669.55" x2="85.57" y2="669.55"/><polyline class="cls-7" points="85.66 669.55 85.91 669.55 85.99 669.55"/><line class="cls-7" x1="86.07" y1="669.55" x2="86.32" y2="669.55"/><line class="cls-7" x1="86.4" y1="669.55" x2="86.4" y2="669.55"/><line class="cls-7" x1="86.49" y1="669.55" x2="86.49" y2="669.55"/><line class="cls-7" x1="86.57" y1="669.55" x2="86.74" y2="669.55"/><line class="cls-7" x1="86.82" y1="669.55" x2="86.82" y2="669.55"/><line class="cls-7" x1="86.9" y1="669.55" x2="86.9" y2="669.55"/><polyline class="cls-7" points="86.99 669.55 87.24 669.55 87.32 669.55 87.4 669.55 87.65 669.55"/><line class="cls-7" x1="87.74" y1="669.55" x2="87.74" y2="669.55"/><line class="cls-7" x1="87.82" y1="669.55" x2="87.82" y2="669.55"/><line class="cls-7" x1="87.9" y1="669.55" x2="88.15" y2="669.55"/><line class="cls-7" x1="88.23" y1="669.55" x2="88.23" y2="669.55"/><line class="cls-7" x1="88.32" y1="669.55" x2="88.57" y2="669.55"/><line class="cls-7" x1="88.65" y1="669.55" x2="88.65" y2="669.55"/><line class="cls-7" x1="88.73" y1="669.55" x2="88.98" y2="669.55"/><line class="cls-7" x1="89.07" y1="669.55" x2="89.07" y2="669.55"/><line class="cls-7" x1="89.15" y1="669.55" x2="89.15" y2="669.55"/><polyline class="cls-7" points="89.23 669.55 89.48 669.55 89.56 669.55 89.65 669.55 89.9 669.55"/><line class="cls-7" x1="89.98" y1="669.55" x2="89.98" y2="669.55"/><line class="cls-7" x1="90.06" y1="669.55" x2="90.06" y2="669.55"/><line class="cls-7" x1="90.15" y1="669.55" x2="90.31" y2="669.55"/><line class="cls-7" x1="90.4" y1="669.55" x2="90.4" y2="669.55"/><line class="cls-7" x1="90.48" y1="669.55" x2="90.48" y2="669.55"/><line class="cls-7" x1="90.56" y1="669.55" x2="90.81" y2="669.55"/><polyline class="cls-7" points="90.89 669.55 90.98 669.55 91.23 669.55"/><line class="cls-7" x1="91.31" y1="669.55" x2="91.31" y2="669.55"/><line class="cls-7" x1="91.39" y1="669.55" x2="91.39" y2="669.55"/><polyline class="cls-7" points="91.48 669.55 91.73 669.55 91.81 669.55 91.89 669.55 92.14 669.55"/><line class="cls-7" x1="92.23" y1="669.55" x2="92.23" y2="669.55"/><line class="cls-7" x1="92.31" y1="669.55" x2="92.31" y2="669.55"/><line class="cls-7" x1="92.39" y1="669.55" x2="92.56" y2="669.55"/><line class="cls-7" x1="92.64" y1="669.55" x2="92.64" y2="669.55"/><line class="cls-7" x1="92.72" y1="669.55" x2="92.72" y2="669.55"/><polyline class="cls-7" points="92.81 669.55 93.06 669.55 93.14 669.55 93.22 669.55 93.47 669.55"/><line class="cls-7" x1="93.56" y1="669.55" x2="93.56" y2="669.55"/><line class="cls-7" x1="93.64" y1="669.55" x2="93.64" y2="669.55"/><polyline class="cls-7" points="93.72 669.55 93.97 669.55 94.06 669.55"/><line class="cls-7" x1="94.14" y1="669.55" x2="94.39" y2="669.55"/><line class="cls-7" x1="94.47" y1="669.55" x2="94.47" y2="669.55"/><line class="cls-7" x1="94.55" y1="669.55" x2="94.8" y2="669.55"/><line class="cls-7" x1="94.89" y1="669.55" x2="94.89" y2="669.55"/><line class="cls-7" x1="94.97" y1="669.55" x2="94.97" y2="669.55"/><polyline class="cls-7" points="95.05 669.55 95.3 669.55 95.39 669.55 95.47 669.55 95.72 669.55"/><line class="cls-7" x1="95.8" y1="669.55" x2="95.8" y2="669.55"/><line class="cls-7" x1="95.88" y1="669.55" x2="95.88" y2="669.55"/><line class="cls-7" x1="95.97" y1="669.55" x2="96.13" y2="669.55"/><line class="cls-7" x1="96.22" y1="669.55" x2="96.22" y2="669.55"/><line class="cls-7" x1="96.3" y1="669.55" x2="96.3" y2="669.55"/><line class="cls-7" x1="96.38" y1="669.55" x2="96.63" y2="669.55"/><polyline class="cls-7" points="96.72 669.55 96.8 669.55 97.05 669.55"/><line class="cls-7" x1="97.13" y1="669.55" x2="97.13" y2="669.55"/><line class="cls-7" x1="97.22" y1="669.55" x2="97.22" y2="669.55"/><polyline class="cls-7" points="97.3 669.55 97.55 669.55 97.63 669.55 97.71 669.55 97.96 669.55"/><line class="cls-7" x1="98.05" y1="669.55" x2="98.05" y2="669.55"/><line class="cls-7" x1="98.13" y1="669.55" x2="98.13" y2="669.55"/><line class="cls-7" x1="98.21" y1="669.55" x2="98.38" y2="669.55"/><line class="cls-7" x1="98.46" y1="669.55" x2="98.46" y2="669.55"/><line class="cls-7" x1="98.55" y1="669.55" x2="98.55" y2="669.55"/><polyline class="cls-7" points="98.63 669.55 98.88 669.55 98.96 669.55 99.05 669.55 99.29 669.55"/><line class="cls-7" x1="99.38" y1="669.55" x2="99.38" y2="669.55"/><line class="cls-7" x1="99.46" y1="669.55" x2="99.46" y2="669.55"/><polyline class="cls-7" points="99.54 669.55 99.79 669.55 99.88 669.55"/><line class="cls-7" x1="99.96" y1="669.55" x2="100.21" y2="669.55"/><line class="cls-7" x1="100.29" y1="669.55" x2="100.29" y2="669.55"/><line class="cls-7" x1="100.38" y1="669.55" x2="100.38" y2="669.55"/><line class="cls-7" x1="100.46" y1="669.55" x2="100.63" y2="669.55"/><line class="cls-7" x1="100.71" y1="669.55" x2="100.71" y2="669.55"/><line class="cls-7" x1="100.79" y1="669.55" x2="100.79" y2="669.55"/><polyline class="cls-7" points="100.88 669.55 101.12 669.55 101.21 669.55 101.29 669.55 101.54 669.55"/><line class="cls-7" x1="101.62" y1="669.55" x2="101.62" y2="669.55"/><line class="cls-7" x1="101.71" y1="669.55" x2="101.71" y2="669.55"/><line class="cls-7" x1="101.79" y1="669.55" x2="102.04" y2="669.55"/><line class="cls-7" x1="102.12" y1="669.55" x2="102.12" y2="669.55"/><line class="cls-7" x1="102.21" y1="669.55" x2="102.45" y2="669.55"/><polyline class="cls-7" points="102.54 669.55 102.62 669.55 102.87 669.55"/><line class="cls-7" x1="102.95" y1="669.55" x2="102.95" y2="669.55"/><line class="cls-7" x1="103.04" y1="669.55" x2="103.04" y2="669.55"/><polyline class="cls-7" points="103.12 669.55 103.37 669.55 103.45 669.55 103.54 669.55 103.78 669.55"/><line class="cls-7" x1="103.87" y1="669.55" x2="103.87" y2="669.55"/><line class="cls-7" x1="103.95" y1="669.55" x2="103.95" y2="669.55"/><line class="cls-7" x1="104.03" y1="669.55" x2="104.2" y2="669.55"/><line class="cls-7" x1="104.28" y1="669.55" x2="104.28" y2="669.55"/><line class="cls-7" x1="104.37" y1="669.55" x2="104.37" y2="669.55"/><polyline class="cls-7" points="104.45 669.55 104.7 669.55 104.78 669.55 104.87 669.55 105.12 669.55"/><line class="cls-7" x1="105.2" y1="669.55" x2="105.2" y2="669.55"/><line class="cls-7" x1="105.28" y1="669.55" x2="105.28" y2="669.55"/><polyline class="cls-7" points="105.36 669.55 105.61 669.55 105.7 669.55"/><line class="cls-7" x1="105.78" y1="669.55" x2="106.03" y2="669.55"/><line class="cls-7" x1="106.11" y1="669.55" x2="106.11" y2="669.55"/><line class="cls-7" x1="106.2" y1="669.55" x2="106.2" y2="669.55"/><line class="cls-7" x1="106.28" y1="669.55" x2="106.45" y2="669.55"/><line class="cls-7" x1="106.53" y1="669.55" x2="106.53" y2="669.55"/><line class="cls-7" x1="106.61" y1="669.55" x2="106.61" y2="669.55"/><polyline class="cls-7" points="106.7 669.55 106.94 669.55 107.03 669.55 107.11 669.55 107.36 669.55"/><line class="cls-7" x1="107.44" y1="669.55" x2="107.44" y2="669.55"/><line class="cls-7" x1="107.53" y1="669.55" x2="107.53" y2="669.55"/><line class="cls-7" x1="107.61" y1="669.55" x2="107.86" y2="669.55"/><line class="cls-7" x1="107.94" y1="669.55" x2="107.94" y2="669.55"/><line class="cls-7" x1="108.03" y1="669.55" x2="108.28" y2="669.55"/><line class="cls-7" x1="108.36" y1="669.55" x2="108.36" y2="669.55"/><line class="cls-7" x1="108.44" y1="669.55" x2="108.69" y2="669.55"/><line class="cls-7" x1="108.77" y1="669.55" x2="108.77" y2="669.55"/><line class="cls-7" x1="108.86" y1="669.55" x2="108.86" y2="669.55"/><polyline class="cls-7" points="108.94 669.55 109.19 669.55 109.27 669.55 109.36 669.55 109.61 669.55"/><line class="cls-7" x1="109.69" y1="669.55" x2="109.69" y2="669.55"/><line class="cls-7" x1="109.77" y1="669.55" x2="109.77" y2="669.55"/><line class="cls-7" x1="109.86" y1="669.55" x2="110.02" y2="669.55"/><line class="cls-7" x1="110.11" y1="669.55" x2="110.11" y2="669.55"/><line class="cls-7" x1="110.19" y1="669.55" x2="110.19" y2="669.55"/><polyline class="cls-7" points="110.27 669.55 110.52 669.55 110.6 669.55 110.69 669.55 110.94 669.55"/><line class="cls-7" x1="111.02" y1="669.55" x2="111.02" y2="669.55"/><line class="cls-7" x1="111.1" y1="669.55" x2="111.1" y2="669.55"/><polyline class="cls-7" points="111.19 669.55 111.44 669.55 111.52 669.55"/><line class="cls-7" x1="111.6" y1="669.55" x2="111.85" y2="669.55"/><line class="cls-7" x1="111.93" y1="669.55" x2="111.93" y2="669.55"/><line class="cls-7" x1="112.02" y1="669.55" x2="112.02" y2="669.55"/><line class="cls-7" x1="112.1" y1="669.55" x2="112.27" y2="669.55"/><line class="cls-7" x1="112.35" y1="669.55" x2="112.35" y2="669.55"/><line class="cls-7" x1="112.43" y1="669.55" x2="112.43" y2="669.55"/><polyline class="cls-7" points="112.52 669.55 112.77 669.55 112.85 669.55 112.93 669.55 113.18 669.55"/><line class="cls-7" x1="113.27" y1="669.55" x2="113.27" y2="669.55"/><line class="cls-7" x1="113.35" y1="669.55" x2="113.35" y2="669.55"/><line class="cls-7" x1="113.43" y1="669.55" x2="113.68" y2="669.55"/><line class="cls-7" x1="113.76" y1="669.55" x2="113.76" y2="669.55"/><line class="cls-7" x1="113.85" y1="669.55" x2="114.1" y2="669.55"/><line class="cls-7" x1="114.18" y1="669.55" x2="114.18" y2="669.55"/><line class="cls-7" x1="114.26" y1="669.55" x2="114.51" y2="669.55"/><line class="cls-7" x1="114.6" y1="669.55" x2="114.6" y2="669.55"/><line class="cls-7" x1="114.68" y1="669.55" x2="114.68" y2="669.55"/><polyline class="cls-7" points="114.76 669.55 115.01 669.55 115.09 669.55 115.18 669.55 115.43 669.55"/><line class="cls-7" x1="115.51" y1="669.55" x2="115.51" y2="669.55"/><line class="cls-7" x1="115.59" y1="669.55" x2="115.59" y2="669.55"/><line class="cls-7" x1="115.68" y1="669.55" x2="115.84" y2="669.55"/><line class="cls-7" x1="115.93" y1="669.55" x2="115.93" y2="669.55"/><line class="cls-7" x1="116.01" y1="669.55" x2="116.01" y2="669.55"/><line class="cls-7" x1="116.09" y1="669.55" x2="116.34" y2="669.55"/><polyline class="cls-7" points="116.42 669.55 116.51 669.55 116.76 669.55"/><line class="cls-7" x1="116.84" y1="669.55" x2="116.84" y2="669.55"/><line class="cls-7" x1="116.92" y1="669.55" x2="116.92" y2="669.55"/><polyline class="cls-7" points="117.01 669.55 117.26 669.55 117.34 669.55 117.42 669.55 117.67 669.55"/><line class="cls-7" x1="117.76" y1="669.55" x2="117.76" y2="669.55"/><line class="cls-7" x1="117.84" y1="669.55" x2="117.84" y2="669.55"/><line class="cls-7" x1="117.92" y1="669.55" x2="118.09" y2="669.55"/><line class="cls-7" x1="118.17" y1="669.55" x2="118.17" y2="669.55"/><line class="cls-7" x1="118.26" y1="669.55" x2="118.26" y2="669.55"/><polyline class="cls-7" points="118.34 669.55 118.59 669.55 118.67 669.55 118.75 669.55 119 669.55"/><line class="cls-7" x1="119.09" y1="669.55" x2="119.09" y2="669.55"/><line class="cls-7" x1="119.17" y1="669.55" x2="119.17" y2="669.55"/><line class="cls-7" x1="119.25" y1="669.55" x2="119.5" y2="669.55"/><line class="cls-7" x1="119.59" y1="669.55" x2="119.59" y2="669.55"/><line class="cls-7" x1="119.67" y1="669.55" x2="119.92" y2="669.55"/><line class="cls-7" x1="120" y1="669.55" x2="120" y2="669.55"/><line class="cls-7" x1="120.08" y1="669.55" x2="120.33" y2="669.55"/><line class="cls-7" x1="120.42" y1="669.55" x2="120.42" y2="669.55"/><line class="cls-7" x1="120.5" y1="669.55" x2="120.5" y2="669.55"/><polyline class="cls-7" points="120.58 669.55 120.83 669.55 120.92 669.55 121 669.55 121.25 669.55"/><line class="cls-7" x1="121.33" y1="669.55" x2="121.33" y2="669.55"/><line class="cls-7" x1="121.42" y1="669.55" x2="121.42" y2="669.55"/><line class="cls-7" x1="121.5" y1="669.55" x2="121.66" y2="669.55"/><line class="cls-7" x1="121.75" y1="669.55" x2="121.75" y2="669.55"/><line class="cls-7" x1="121.83" y1="669.55" x2="121.83" y2="669.55"/><line class="cls-7" x1="121.91" y1="669.55" x2="122.16" y2="669.55"/><polyline class="cls-7" points="122.25 669.55 122.33 669.55 122.58 669.55"/><line class="cls-7" x1="122.66" y1="669.55" x2="122.66" y2="669.55"/><line class="cls-7" x1="122.75" y1="669.55" x2="122.75" y2="669.55"/><polyline class="cls-7" points="122.83 669.55 123.08 669.55 123.16 669.55 123.25 669.55 123.49 669.55"/><line class="cls-7" x1="123.58" y1="669.55" x2="123.58" y2="669.55"/><line class="cls-7" x1="123.66" y1="669.55" x2="123.66" y2="669.55"/><line class="cls-7" x1="123.74" y1="669.55" x2="123.91" y2="669.55"/><line class="cls-7" x1="123.99" y1="669.55" x2="123.99" y2="669.55"/><line class="cls-7" x1="124.08" y1="669.55" x2="124.08" y2="669.55"/><polyline class="cls-7" points="124.16 669.55 124.41 669.55 124.49 669.55 124.58 669.55 124.83 669.55"/><line class="cls-7" x1="124.91" y1="669.55" x2="124.91" y2="669.55"/><line class="cls-7" x1="124.99" y1="669.55" x2="124.99" y2="669.55"/><polyline class="cls-7" points="125.07 669.55 125.32 669.55 125.41 669.55"/><line class="cls-7" x1="125.49" y1="669.55" x2="125.74" y2="669.55"/><line class="cls-7" x1="125.82" y1="669.55" x2="125.82" y2="669.55"/><line class="cls-7" x1="125.91" y1="669.55" x2="125.91" y2="669.55"/><line class="cls-7" x1="125.99" y1="669.55" x2="126.16" y2="669.55"/><line class="cls-7" x1="126.24" y1="669.55" x2="126.24" y2="669.55"/><line class="cls-7" x1="126.32" y1="669.55" x2="126.32" y2="669.55"/><polyline class="cls-7" points="126.41 669.55 126.65 669.55 126.74 669.55 126.82 669.55 127.07 669.55"/><line class="cls-7" x1="127.15" y1="669.55" x2="127.15" y2="669.55"/><line class="cls-7" x1="127.24" y1="669.55" x2="127.24" y2="669.55"/><line class="cls-7" x1="127.32" y1="669.55" x2="127.57" y2="669.55"/><line class="cls-7" x1="127.65" y1="669.55" x2="127.65" y2="669.55"/><line class="cls-7" x1="127.74" y1="669.55" x2="127.98" y2="669.55"/><polyline class="cls-7" points="128.07 669.55 128.15 669.55 128.4 669.55"/><line class="cls-7" x1="128.48" y1="669.55" x2="128.48" y2="669.55"/><line class="cls-7" x1="128.57" y1="669.55" x2="128.57" y2="669.55"/><polyline class="cls-7" points="128.65 669.55 128.9 669.55 128.98 669.55 129.07 669.55 129.31 669.55"/><line class="cls-7" x1="129.4" y1="669.55" x2="129.4" y2="669.55"/><line class="cls-7" x1="129.48" y1="669.55" x2="129.48" y2="669.55"/><line class="cls-7" x1="129.56" y1="669.55" x2="129.73" y2="669.55"/><line class="cls-7" x1="129.81" y1="669.55" x2="129.81" y2="669.55"/><line class="cls-7" x1="129.9" y1="669.55" x2="129.9" y2="669.55"/><polyline class="cls-7" points="129.98 669.55 130.23 669.55 130.31 669.55 130.4 669.55 130.65 669.55"/><line class="cls-7" x1="130.73" y1="669.55" x2="130.73" y2="669.55"/><line class="cls-7" x1="130.81" y1="669.55" x2="130.81" y2="669.55"/><polyline class="cls-7" points="130.9 669.55 131.15 669.55 131.23 669.55"/><line class="cls-7" x1="131.31" y1="669.55" x2="131.56" y2="669.55"/><line class="cls-7" x1="131.64" y1="669.55" x2="131.64" y2="669.55"/><line class="cls-7" x1="131.73" y1="669.55" x2="131.73" y2="669.55"/><line class="cls-7" x1="131.81" y1="669.55" x2="131.98" y2="669.55"/><line class="cls-7" x1="132.06" y1="669.55" x2="132.06" y2="669.55"/><line class="cls-7" x1="132.14" y1="669.55" x2="132.14" y2="669.55"/><polyline class="cls-7" points="132.23 669.55 132.48 669.55 132.56 669.55 132.64 669.55 132.89 669.55"/><line class="cls-7" x1="132.97" y1="669.55" x2="132.97" y2="669.55"/><line class="cls-7" x1="133.06" y1="669.55" x2="133.06" y2="669.55"/><line class="cls-7" x1="133.14" y1="669.55" x2="133.39" y2="669.55"/><line class="cls-7" x1="133.47" y1="669.55" x2="133.47" y2="669.55"/><line class="cls-7" x1="133.56" y1="669.55" x2="133.81" y2="669.55"/><line class="cls-7" x1="133.89" y1="669.55" x2="133.89" y2="669.55"/><line class="cls-7" x1="133.97" y1="669.55" x2="134.22" y2="669.55"/><line class="cls-7" x1="134.31" y1="669.55" x2="134.31" y2="669.55"/><line class="cls-7" x1="134.39" y1="669.55" x2="134.39" y2="669.55"/><polyline class="cls-7" points="134.47 669.55 134.72 669.55 134.8 669.55 134.89 669.55 135.14 669.55"/><line class="cls-7" x1="135.22" y1="669.55" x2="135.22" y2="669.55"/><line class="cls-7" x1="135.3" y1="669.55" x2="135.3" y2="669.55"/><line class="cls-7" x1="135.39" y1="669.55" x2="135.55" y2="669.55"/><line class="cls-7" x1="135.64" y1="669.55" x2="135.64" y2="669.55"/><line class="cls-7" x1="135.72" y1="669.55" x2="135.72" y2="669.55"/><polyline class="cls-7" points="135.8 669.55 136.05 669.55 136.13 669.55 136.22 669.55 136.47 669.55"/><line class="cls-7" x1="136.55" y1="669.55" x2="136.55" y2="669.55"/><line class="cls-7" x1="136.63" y1="669.55" x2="136.63" y2="669.55"/><polyline class="cls-7" points="136.72 669.55 136.97 669.55 137.05 669.55"/><line class="cls-7" x1="137.13" y1="669.55" x2="137.38" y2="669.55"/><line class="cls-7" x1="137.47" y1="669.55" x2="137.47" y2="669.55"/><line class="cls-7" x1="137.55" y1="669.55" x2="137.55" y2="669.55"/><line class="cls-7" x1="137.63" y1="669.55" x2="137.8" y2="669.55"/><line class="cls-7" x1="137.88" y1="669.55" x2="137.88" y2="669.55"/><line class="cls-7" x1="137.96" y1="669.55" x2="137.96" y2="669.55"/><polyline class="cls-7" points="138.05 669.55 138.3 669.55 138.38 669.55 138.46 669.55 138.71 669.55"/><line class="cls-7" x1="138.8" y1="669.55" x2="138.8" y2="669.55"/><line class="cls-7" x1="138.88" y1="669.55" x2="138.88" y2="669.55"/><line class="cls-7" x1="138.96" y1="669.55" x2="139.21" y2="669.55"/><line class="cls-7" x1="139.29" y1="669.55" x2="139.29" y2="669.55"/><line class="cls-7" x1="139.38" y1="669.55" x2="139.63" y2="669.55"/><line class="cls-7" x1="139.71" y1="669.55" x2="139.71" y2="669.55"/><line class="cls-7" x1="139.79" y1="669.55" x2="140.04" y2="669.55"/><line class="cls-7" x1="140.13" y1="669.55" x2="140.13" y2="669.55"/><line class="cls-7" x1="140.21" y1="669.55" x2="140.21" y2="669.55"/><polyline class="cls-7" points="140.29 669.55 140.54 669.55 140.63 669.55 140.71 669.55 140.96 669.55"/><line class="cls-7" x1="141.04" y1="669.55" x2="141.04" y2="669.55"/><line class="cls-7" x1="141.12" y1="669.55" x2="141.12" y2="669.55"/><line class="cls-7" x1="141.21" y1="669.55" x2="141.37" y2="669.55"/><line class="cls-7" x1="141.46" y1="669.55" x2="141.46" y2="669.55"/><line class="cls-7" x1="141.54" y1="669.55" x2="141.54" y2="669.55"/><line class="cls-7" x1="141.62" y1="669.55" x2="141.87" y2="669.55"/><polyline class="cls-7" points="141.96 669.55 142.04 669.55 142.29 669.55"/><line class="cls-7" x1="142.37" y1="669.55" x2="142.37" y2="669.55"/><line class="cls-7" x1="142.45" y1="669.55" x2="142.45" y2="669.55"/><polyline class="cls-7" points="142.54 669.55 142.79 669.55 142.87 669.55 142.95 669.55 143.2 669.55"/><line class="cls-7" x1="143.29" y1="669.55" x2="143.29" y2="669.55"/><line class="cls-7" x1="143.37" y1="669.55" x2="143.37" y2="669.55"/><line class="cls-7" x1="143.45" y1="669.55" x2="143.62" y2="669.55"/><line class="cls-7" x1="143.7" y1="669.55" x2="143.7" y2="669.55"/><line class="cls-7" x1="143.79" y1="669.55" x2="143.79" y2="669.55"/><polyline class="cls-7" points="143.87 669.55 144.12 669.55 144.2 669.55 144.28 669.55 144.53 669.55"/><line class="cls-7" x1="144.62" y1="669.55" x2="144.62" y2="669.55"/><line class="cls-7" x1="144.7" y1="669.55" x2="144.7" y2="669.55"/><line class="cls-7" x1="144.78" y1="669.55" x2="145.03" y2="669.55"/><line class="cls-7" x1="145.12" y1="669.55" x2="145.12" y2="669.55"/><line class="cls-7" x1="145.2" y1="669.55" x2="145.45" y2="669.55"/><line class="cls-7" x1="145.53" y1="669.55" x2="145.53" y2="669.55"/><line class="cls-7" x1="145.61" y1="669.55" x2="145.86" y2="669.55"/><path class="cls-7" d="M142.75,619.31a72.31,72.31,0,0,0-72.31,72.31" transform="translate(0 -28.35)"/><polyline class="cls-7" points="67.28 669.55 70.44 669.55 70.44 663.23 67.28 663.23 67.28 669.55"/><polyline class="cls-7" points="145.86 663.23 142.7 663.23 142.7 669.55 145.86 669.55 145.86 663.23"/><line class="cls-7" x1="142.7" y1="663.23" x2="142.7" y2="590.97"/><polyline class="cls-7" points="67.28 653.84 67.28 663.23 67.28 669.55 67.28 663.23"/><polyline class="cls-7" points="145.86 653.84 145.86 663.23 145.86 669.55 145.86 663.23"/><line class="cls-7" x1="306.95" y1="128.93" x2="306.95" y2="653.83"/><polyline class="cls-7" points="322.66 669.55 322.66 653.84 322.66 128.93 306.95 128.93"/><line class="cls-7" x1="0.5" y1="128.93" x2="0.5" y2="669.55"/><polyline class="cls-7" points="16.22 653.84 16.22 128.93 0.5 128.93"/><polyline class="cls-7" points="322.66 669.55 313.27 669.55 306.95 669.55 306.95 669.55"/><line class="cls-7" x1="322.66" y1="669.55" x2="322.66" y2="669.55"/><line class="cls-7" x1="306.95" y1="669.55" x2="306.95" y2="669.55"/><line class="cls-7" x1="306.95" y1="669.55" x2="306.95" y2="669.55"/><line class="cls-7" x1="306.95" y1="669.55" x2="306.95" y2="669.55"/><line class="cls-7" x1="306.95" y1="669.55" x2="306.95" y2="669.55"/><line class="cls-7" x1="306.95" y1="669.55" x2="306.95" y2="669.55"/><polyline class="cls-7" points="306.95 669.55 306.95 669.55 306.95 669.55 306.95 669.55 306.95 669.55"/><line class="cls-7" x1="306.95" y1="669.55" x2="306.95" y2="669.55"/><line class="cls-7" x1="306.95" y1="669.55" x2="306.95" y2="669.55"/><line class="cls-7" x1="306.95" y1="669.55" x2="306.95" y2="669.55"/><line class="cls-7" x1="306.95" y1="669.55" x2="306.95" y2="669.55"/><line class="cls-7" x1="306.95" y1="669.55" x2="306.95" y2="669.55"/><line class="cls-7" x1="306.95" y1="669.55" x2="306.95" y2="669.55"/><polyline class="cls-7" points="306.95 669.55 306.95 669.55 306.95 669.55"/><line class="cls-7" x1="306.95" y1="669.55" x2="306.95" y2="669.55"/><line class="cls-7" x1="306.95" y1="669.55" x2="306.95" y2="669.55"/><polyline class="cls-7" points="306.95 669.55 306.95 669.55 313.27 669.55 313.27 669.55 306.95 669.55"/><polyline class="cls-7" points="306.95 669.55 313.27 669.55 306.95 669.55"/><line class="cls-7" x1="322.66" y1="669.55" x2="313.27" y2="669.55"/><line class="cls-7" x1="300.13" y1="642.03" x2="300.13" y2="601.94"/><line class="cls-7" x1="295.72" y1="597.2" x2="198.42" y2="597.2"/><line class="cls-7" x1="295.72" y1="646.77" x2="198.42" y2="646.77"/><line class="cls-7" x1="170.98" y1="592.55" x2="304.62" y2="592.55"/><polyline class="cls-7" points="170.98 592.55 170.98 651.42 304.62 651.42 304.62 592.55"/><line class="cls-7" x1="214.06" y1="638.53" x2="290.15" y2="638.53"/><line class="cls-7" x1="292.39" y1="636.2" x2="292.39" y2="607.76"/><line class="cls-7" x1="214.06" y1="605.44" x2="290.15" y2="605.44"/><line class="cls-7" x1="276.76" y1="623.4" x2="276.76" y2="626.31"/><line class="cls-7" x1="278.17" y1="621.98" x2="280.92" y2="621.98"/><line class="cls-7" x1="276.76" y1="620.57" x2="276.76" y2="617.66"/><line class="cls-7" x1="275.43" y1="621.98" x2="272.68" y2="621.98"/><path class="cls-7" d="M198.46,625.63c-12.93,0-23.41,11.08-23.41,24.74s10.48,24.74,23.41,24.74" transform="translate(0 -28.35)"/><path class="cls-7" d="M300.21,630.33a4.58,4.58,0,0,0-4.45-4.7" transform="translate(0 -28.35)"/><path class="cls-7" d="M295.76,675.11a4.57,4.57,0,0,0,4.45-4.69" transform="translate(0 -28.35)"/><path class="cls-7" d="M276.8,652.83a2.46,2.46,0,1,0-2.29-2.46,2.38,2.38,0,0,0,2.29,2.46" transform="translate(0 -28.35)"/><path class="cls-7" d="M214.1,633.78c-8.61,0-15.6,7.43-15.6,16.59s7,16.59,15.6,16.59" transform="translate(0 -28.35)"/><path class="cls-7" d="M290.19,667a2.29,2.29,0,0,0,2.2-2.37" transform="translate(0 -28.35)"/><path class="cls-7" d="M292.39,636.15a2.29,2.29,0,0,0-2.2-2.37" transform="translate(0 -28.35)"/><path class="cls-7" d="M276.8,653.66a3.29,3.29,0,1,0-3.12-3.29,3.21,3.21,0,0,0,3.12,3.29" transform="translate(0 -28.35)"/><polyline class="cls-7" points="286.65 550.05 304.62 550.05 304.62 592.55 286.65 592.55"/><line class="cls-7" x1="304.62" y1="577.99" x2="304.62" y2="564.6"/><line class="cls-7" x1="290.23" y1="574.83" x2="290.23" y2="572.59"/><line class="cls-7" x1="293.81" y1="571.26" x2="291.48" y2="571.26"/><line class="cls-7" x1="290.23" y1="570.01" x2="290.23" y2="567.68"/><line class="cls-7" x1="288.9" y1="571.26" x2="286.65" y2="571.26"/><path class="cls-7" d="M294.52,588.39a18.91,18.91,0,0,0-8.94-7.34" transform="translate(0 -28.35)"/><path class="cls-7" d="M297.16,599.67a18.91,18.91,0,0,0-2.66-11.28" transform="translate(0 -28.35)"/><path class="cls-7" d="M285.58,618.32a18.89,18.89,0,0,0,8.94-7.33" transform="translate(0 -28.35)"/><path class="cls-7" d="M294.5,611a18.93,18.93,0,0,0,2.66-11.28" transform="translate(0 -28.35)"/><path class="cls-7" d="M276,585.29a35,35,0,0,0-3.5,12.88" transform="translate(0 -28.35)"/><path class="cls-7" d="M277.8,616.86a10.73,10.73,0,0,0,8.86,4" transform="translate(0 -28.35)"/><path class="cls-7" d="M272.49,598.16a21,21,0,0,0,0,3" transform="translate(0 -28.35)"/><path class="cls-7" d="M293.81,611.51a77.14,77.14,0,0,0,0-23.74" transform="translate(0 -28.35)"/><path class="cls-7" d="M283.91,619.81a26.63,26.63,0,0,0,17.32-6" transform="translate(0 -28.35)"/><path class="cls-7" d="M302.47,611.8a52.75,52.75,0,0,0,1.31-12.14" transform="translate(0 -28.35)"/><path class="cls-7" d="M301.24,613.78a3.52,3.52,0,0,0,1.21-2" transform="translate(0 -28.35)"/><path class="cls-7" d="M301.26,611.63a90.54,90.54,0,0,0,.86-12" transform="translate(0 -28.35)"/><path class="cls-7" d="M283.89,619.81a24,24,0,0,0,16.18-6" transform="translate(0 -28.35)"/><path class="cls-7" d="M300.09,613.86a3.54,3.54,0,0,0,1.17-2.17" transform="translate(0 -28.35)"/><path class="cls-7" d="M300.09,585.58a24,24,0,0,0-16.17-6" transform="translate(0 -28.35)"/><path class="cls-7" d="M301.26,585.6a26.61,26.61,0,0,0-17.31-6" transform="translate(0 -28.35)"/><path class="cls-7" d="M302.12,599.67a92,92,0,0,0-.84-12" transform="translate(0 -28.35)"/><path class="cls-7" d="M303.78,599.7a52.79,52.79,0,0,0-1.29-12.14" transform="translate(0 -28.35)"/><path class="cls-7" d="M301.26,587.77a3.61,3.61,0,0,0-1.16-2.17" transform="translate(0 -28.35)"/><path class="cls-7" d="M302.45,587.56a3.52,3.52,0,0,0-1.21-2" transform="translate(0 -28.35)"/><path class="cls-7" d="M286.66,578.49a10.76,10.76,0,0,0-8.86,4" transform="translate(0 -28.35)"/><path class="cls-7" d="M277.77,582.44a17,17,0,0,0-1.83,2.82" transform="translate(0 -28.35)"/><path class="cls-7" d="M275.94,614.11a17.54,17.54,0,0,0,1.83,2.83" transform="translate(0 -28.35)"/><path class="cls-7" d="M272.53,601.21a35,35,0,0,0,3.5,12.87" transform="translate(0 -28.35)"/><path class="cls-7" d="M275.46,593.8a24.84,24.84,0,0,0,0,11.69" transform="translate(0 -28.35)"/><path class="cls-7" d="M285.55,581.07a6.4,6.4,0,0,0-5.25,2.19" transform="translate(0 -28.35)"/><path class="cls-7" d="M280.38,583.26a22.88,22.88,0,0,0-4.85,10.56" transform="translate(0 -28.35)"/><path class="cls-7" d="M280.3,616.11a6.34,6.34,0,0,0,5.25,2.19" transform="translate(0 -28.35)"/><path class="cls-7" d="M275.53,605.55a22.91,22.91,0,0,0,4.85,10.57" transform="translate(0 -28.35)"/><path class="cls-7" d="M290.27,602.43a2.79,2.79,0,1,0-2.78-2.78,2.79,2.79,0,0,0,2.78,2.78" transform="translate(0 -28.35)"/><path class="cls-7" d="M290.27,601.6a2,2,0,1,0-1.95-2,2,2,0,0,0,1.95,2" transform="translate(0 -28.35)"/><line class="cls-7" x1="292.48" y1="515.12" x2="264.78" y2="515.12"/><polyline class="cls-7" points="294.22 513.96 304.62 513.96 304.62 543.81"/><line class="cls-7" x1="287.65" y1="528.84" x2="287.65" y2="539.91"/><polyline class="cls-7" points="264.78 515.12 287.65 517.78 287.65 528.85"/><line class="cls-7" x1="264.78" y1="542.65" x2="287.65" y2="539.91"/><line class="cls-7" x1="264.78" y1="515.79" x2="287.65" y2="518.53"/><line class="cls-7" x1="264.78" y1="541.9" x2="287.65" y2="539.24"/><line class="cls-7" x1="292.56" y1="542.65" x2="264.78" y2="542.65"/><line class="cls-7" x1="304.62" y1="543.81" x2="294.22" y2="543.81"/><polyline class="cls-7" points="264.78 515.12 261.71 515.54 258.88 516.7 256.3 518.53 254.22 521.03 252.81 524.02 252.06 527.18 252.06 530.51 252.81 533.75 254.22 536.66 256.3 539.16 258.88 541.07 261.71 542.23 264.78 542.65"/><polyline class="cls-7" points="264.78 515.79 261.87 516.2 259.13 517.28 256.72 519.12 254.8 521.44 253.47 524.27 252.72 527.26 252.72 530.42 253.47 533.5 254.8 536.25 256.72 538.66 259.13 540.4 261.87 541.57 264.78 541.9"/><path class="cls-7" d="M292.52,543.84a126.08,126.08,0,0,0,0,26.77" transform="translate(0 -28.35)"/><path class="cls-7" d="M294.26,542.39a1.75,1.75,0,0,0-1.77,1.52" transform="translate(0 -28.35)"/><path class="cls-7" d="M292.48,570.63a1.77,1.77,0,0,0,1.78,1.53" transform="translate(0 -28.35)"/><path class="cls-7" d="M299.54,557.23a1.46,1.46,0,1,0-1.45,1.46,1.45,1.45,0,0,0,1.45-1.46" transform="translate(0 -28.35)"/><polyline class="cls-7" points="304.62 394.46 261.37 394.46 261.37 437.7 304.62 437.7 304.62 394.46"/><polyline class="cls-7" points="300.71 398.45 265.28 398.45 265.28 429.88 300.71 429.88 300.71 398.45"/><polyline class="cls-7" points="147.86 85.27 148.19 85.27 148.19 42.11 147.86 42.11 147.86 85.27"/><polyline class="cls-7" points="149.44 40.53 149.44 40.86 221.71 40.86 221.71 40.53 149.44 40.53"/><polyline class="cls-7" points="223.29 42.11 222.87 42.11 222.87 85.27 223.29 85.27 223.29 42.11"/><polyline class="cls-7" points="147.44 87.26 149.44 87.26 149.44 85.27 147.44 85.27 147.44 87.26"/><polyline class="cls-7" points="147.44 42.11 149.44 42.11 149.44 40.11 147.44 40.11 147.44 42.11"/><polyline class="cls-7" points="221.71 40.11 221.71 42.11 223.7 42.11 223.7 40.11 221.71 40.11"/><polyline class="cls-7" points="223.7 85.27 221.71 85.27 221.71 87.26 223.7 87.26 223.7 85.27"/><line class="cls-7" x1="149.44" y1="86.27" x2="149.44" y2="42.11"/><line class="cls-7" x1="147.44" y1="40.11" x2="147.44" y2="86.27"/><line class="cls-7" x1="149.44" y1="42.11" x2="221.71" y2="42.11"/><line class="cls-7" x1="223.7" y1="40.11" x2="147.44" y2="40.11"/><line class="cls-7" x1="221.71" y1="42.11" x2="221.71" y2="86.27"/><line class="cls-7" x1="223.7" y1="86.27" x2="223.7" y2="40.11"/><polyline class="cls-7" points="147.44 86.27 147.44 87.26 149.44 87.26 149.44 86.27"/><polyline class="cls-7" points="221.71 86.27 221.71 87.26 223.7 87.26 223.7 86.27"/><polyline class="cls-7" points="223.7 40.11 147.44 40.11 147.44 86.27 149.44 86.27 149.44 42.11 221.71 42.11 221.71 86.27 223.7 86.27 223.7 40.11"/><polyline class="cls-7" points="219.71 54.25 151.35 54.25 151.35 79.36 219.71 79.36 219.71 54.25"/><polyline class="cls-7" points="219.71 56.74 151.35 56.74 151.35 79.36 219.71 79.36 219.71 56.74"/><polyline class="cls-7" points="306.95 191.8 322.66 191.8 322.66 113.21 306.95 113.21 306.95 191.8"/><polyline class="cls-7" points="306.95 458.91 322.66 458.91 322.66 380.32 306.95 380.32 306.95 458.91"/><polyline class="cls-7" points="0.5 458.91 16.22 458.91 16.22 380.32 0.5 380.32 0.5 458.91"/><polyline class="cls-7" points="0.5 191.8 16.22 191.8 16.22 113.21 0.5 113.21 0.5 191.8"/><line class="cls-8" x1="146.15" y1="497.42" x2="75.65" y2="497.42"/><line class="cls-8" x1="146.15" y1="491.16" x2="75.65" y2="491.16"/><line class="cls-8" x1="163.64" y1="528.09" x2="163.64" y2="582.91"/><line class="cls-8" x1="169.86" y1="528.09" x2="169.86" y2="582.91"/><line class="cls-8" x1="142.57" y1="669.55" x2="70.24" y2="669.55"/></svg>