<svg id="_418" data-name="418" xmlns="http://www.w3.org/2000/svg" viewBox="0 0 636.48 1012.96"><defs><style>.cls-1{isolation:isolate;font-size:12px;fill:#969696;}.cls-1,.cls-3,.cls-5{font-family:PTSans-Regular, PT Sans;}.cls-2,.cls-4,.cls-6,.cls-7{fill:none;stroke-linecap:round;stroke-linejoin:round;}.cls-2{stroke:#969696;stroke-width:0.75px;}.cls-3{font-size:40px;}.cls-4,.cls-6,.cls-7{stroke:#000;}.cls-4{stroke-width:0.5px;}.cls-5{font-size:36px;}.cls-6{stroke-width:0.25px;stroke-dasharray:1 1;}</style></defs><title>11floor_418flat</title><text class="cls-1" transform="translate(312.67 10.2)">двор</text><line class="cls-2" x1="301.91" y1="4.22" x2="301.91" y2="13.02"/><polyline class="cls-2" points="305.41 7.72 301.91 4.22 298.41 7.72"/><text class="cls-3" transform="translate(147.02 425.14)">2K</text><text class="cls-3" transform="translate(122.24 475.32)">43.92</text><text class="cls-3" transform="translate(116.96 375.24)">№418</text><polyline class="cls-4" points="107.95 486.13 107.95 337.06 232.28 337.06 232.28 486.13"/><line class="cls-4" x1="107.95" y1="386.84" x2="232.28" y2="386.84"/><line class="cls-4" x1="107.95" y1="486.13" x2="232.28" y2="486.13"/><line class="cls-4" x1="107.95" y1="436.63" x2="232.28" y2="436.63"/><text class="cls-5" transform="translate(127.02 250.4)">11.93</text><text class="cls-5" transform="translate(107.66 120.25)">0.92</text><text class="cls-5" transform="translate(429.02 250.4)">13.83</text><text class="cls-5" transform="translate(120.67 727.76)">3.62</text><text class="cls-5" transform="translate(228.04 900.86)">5.16</text><text class="cls-5" transform="translate(435.05 821.52)">8.46</text><line class="cls-6" x1="215.32" y1="744.2" x2="215.32" y2="660.95"/><line class="cls-6" x1="222.79" y1="744.2" x2="222.79" y2="660.95"/><line class="cls-6" x1="327.87" y1="668.58" x2="327.87" y2="579.62"/><line class="cls-6" x1="327.87" y1="829.73" x2="327.87" y2="740.77"/><line class="cls-6" x1="320.13" y1="829.73" x2="320.13" y2="740.77"/><line class="cls-6" x1="320.13" y1="675.63" x2="320.13" y2="586.67"/><line class="cls-6" x1="310.88" y1="586.93" x2="223.29" y2="586.93"/><line class="cls-6" x1="530.02" y1="675.54" x2="356.7" y2="675.54"/><line class="cls-6" x1="530.02" y1="667.77" x2="356.7" y2="667.77"/><line class="cls-6" x1="307.91" y1="578.92" x2="222.19" y2="578.92"/><line class="cls-6" x1="386.31" y1="1012.67" x2="298.73" y2="1012.67"/><line class="cls-6" x1="152.07" y1="968.85" x2="152.07" y2="878.76"/><polyline class="cls-7" points="616.73 158.53 634.86 158.53 616.73 158.53"/><line class="cls-7" x1="387.58" y1="158.53" x2="268.16" y2="158.53"/><line class="cls-7" x1="616.73" y1="158.53" x2="558.95" y2="158.53"/><line class="cls-7" x1="102.59" y1="158.53" x2="0.5" y2="158.53"/><polyline class="cls-7" points="616.73 172.89 616.73 174.83 616.73 172.89"/><line class="cls-7" x1="267.25" y1="158.53" x2="267.25" y2="168.1"/><line class="cls-7" x1="103.51" y1="158.53" x2="103.51" y2="168.1"/><line class="cls-7" x1="267.25" y1="157.51" x2="267.25" y2="158.53"/><line class="cls-7" x1="103.51" y1="157.51" x2="103.51" y2="158.53"/><line class="cls-7" x1="99.64" y1="168.1" x2="102.59" y2="168.1"/><line class="cls-7" x1="268.16" y1="158.53" x2="268.16" y2="168.1"/><line class="cls-7" x1="268.16" y1="157.51" x2="267.25" y2="157.51"/><line class="cls-7" x1="102.59" y1="158.53" x2="102.59" y2="168.1"/><line class="cls-7" x1="102.59" y1="157.51" x2="103.51" y2="157.51"/><polyline class="cls-7" points="271.01 168.1 271.01 173.91 271.01 192.15"/><polyline class="cls-7" points="99.64 168.1 99.64 173.91 99.64 192.15"/><line class="cls-7" x1="555.08" y1="158.53" x2="555.08" y2="168.1"/><line class="cls-7" x1="391.35" y1="158.53" x2="391.35" y2="168.1"/><line class="cls-7" x1="555.08" y1="157.51" x2="555.08" y2="158.53"/><line class="cls-7" x1="391.35" y1="157.51" x2="391.35" y2="158.53"/><line class="cls-7" x1="558.95" y1="168.1" x2="558.95" y2="168.1"/><polyline class="cls-7" points="558.95 158.53 556 158.53 556 168.1 556 158.53"/><line class="cls-7" x1="556" y1="157.51" x2="555.08" y2="157.51"/><line class="cls-7" x1="387.58" y1="168.1" x2="387.58" y2="168.1"/><polyline class="cls-7" points="387.58 158.53 390.43 158.53 390.43 168.1 390.43 158.53"/><line class="cls-7" x1="390.43" y1="157.51" x2="391.35" y2="157.51"/><polyline class="cls-7" points="558.95 168.1 558.95 173.91 558.95 192.15"/><polyline class="cls-7" points="387.58 168.1 387.58 173.91 387.58 192.15"/><line class="cls-7" x1="0.5" y1="192.15" x2="10.18" y2="192.15"/><line class="cls-7" x1="29.44" y1="192.15" x2="99.64" y2="192.15"/><line class="cls-7" x1="271.02" y1="192.15" x2="308.61" y2="192.15"/><line class="cls-7" x1="327.87" y1="192.15" x2="387.58" y2="192.15"/><line class="cls-7" x1="558.95" y1="192.15" x2="597.47" y2="192.15"/><line class="cls-7" x1="635.98" y1="157.51" x2="556" y2="157.51"/><line class="cls-7" x1="390.43" y1="157.51" x2="268.16" y2="157.51"/><line class="cls-7" x1="102.59" y1="157.51" x2="0.5" y2="157.51"/><line class="cls-7" x1="103.51" y1="157.51" x2="267.25" y2="157.51"/><line class="cls-7" x1="99.64" y1="192.15" x2="271.02" y2="192.15"/><polyline class="cls-7" points="99.64 173.91 107.38 173.91 107.38 168.1 99.64 168.1"/><polyline class="cls-7" points="181.96 168.1 178.6 168.1 178.6 173.91 181.96 173.91"/><line class="cls-7" x1="107.38" y1="171.06" x2="178.6" y2="171.06"/><line class="cls-7" x1="107.38" y1="173.91" x2="178.6" y2="173.91"/><line class="cls-7" x1="178.6" y1="168.1" x2="107.38" y2="168.1"/><polyline class="cls-7" points="181.96 173.91 182.98 173.91 182.98 170.04 185.33 170.04 185.33 168.1 181.96 168.1"/><polyline class="cls-7" points="271.01 168.1 263.37 168.1 263.37 170.04 265.72 170.04 265.72 173.91 271.01 173.91"/><line class="cls-7" x1="265.72" y1="175.85" x2="194.09" y2="217.21"/><line class="cls-7" x1="263.37" y1="168.1" x2="185.33" y2="168.1"/><polyline class="cls-7" points="182.98 175.85 188.69 175.85 260.01 175.85"/><polyline class="cls-7" points="188.69 175.85 188.69 170.04 182.98 170.04 182.98 175.85"/><polyline class="cls-7" points="265.72 170.04 260.01 170.04 260.01 175.85 265.72 175.85 265.72 170.04"/><line class="cls-7" x1="260.01" y1="170.04" x2="188.69" y2="170.04"/><line class="cls-7" x1="188.69" y1="175.85" x2="260.01" y2="175.85"/><line class="cls-7" x1="188.69" y1="172.89" x2="260.01" y2="172.89"/><path class="cls-7" d="M182.58,204.15a82.82,82.82,0,0,0,11.08,41.39" transform="translate(0.41 -28.35)"/><polyline class="cls-7" points="99.64 192.15 99.64 173.91 99.64 168.1 99.64 173.91"/><polyline class="cls-7" points="271.01 192.15 271.01 173.91 271.01 168.1 271.01 173.91"/><polyline class="cls-7" points="102.59 168.1 99.64 168.1 102.59 168.1"/><polyline class="cls-7" points="271.01 168.1 268.16 168.1 271.01 168.1"/><line class="cls-7" x1="103.51" y1="157.51" x2="103.51" y2="158.53"/><polyline class="cls-7" points="103.51 168.1 102.59 168.1 103.51 168.1"/><line class="cls-7" x1="267.25" y1="157.51" x2="267.25" y2="158.53"/><polyline class="cls-7" points="267.25 168.1 268.16 168.1 267.25 168.1"/><line class="cls-7" x1="103.51" y1="158.53" x2="103.51" y2="168.1"/><line class="cls-7" x1="267.25" y1="158.53" x2="267.25" y2="168.1"/><line class="cls-7" x1="391.35" y1="157.51" x2="555.08" y2="157.51"/><line class="cls-7" x1="387.58" y1="192.15" x2="558.95" y2="192.15"/><polyline class="cls-7" points="387.58 173.91 392.88 173.91 392.88 170.04 395.22 170.04 395.22 168.1 387.58 168.1"/><polyline class="cls-7" points="473.26 168.1 469.39 168.1 469.39 170.04 471.74 170.04 471.74 173.91 473.26 173.91"/><line class="cls-7" x1="469.39" y1="168.1" x2="395.22" y2="168.1"/><polyline class="cls-7" points="392.88 175.85 398.58 175.85 466.03 175.85"/><polyline class="cls-7" points="398.58 175.85 398.58 170.04 392.88 170.04 392.88 175.85"/><polyline class="cls-7" points="471.74 170.04 466.03 170.04 466.03 175.85 471.74 175.85 471.74 170.04"/><line class="cls-7" x1="466.03" y1="170.04" x2="398.58" y2="170.04"/><line class="cls-7" x1="398.58" y1="175.85" x2="466.03" y2="175.85"/><line class="cls-7" x1="398.58" y1="172.89" x2="466.03" y2="172.89"/><polyline class="cls-7" points="473.26 173.91 474.69 173.91 474.69 170.04 477.04 170.04 477.04 168.1 473.26 168.1"/><polyline class="cls-7" points="558.95 168.1 551.21 168.1 551.21 170.04 553.66 170.04 553.66 173.91 558.95 173.91"/><line class="cls-7" x1="551.21" y1="168.1" x2="477.04" y2="168.1"/><polyline class="cls-7" points="474.69 175.85 480.4 175.85 547.85 175.85"/><polyline class="cls-7" points="480.4 175.85 480.4 170.04 474.69 170.04 474.69 175.85"/><polyline class="cls-7" points="553.66 170.04 547.85 170.04 547.85 175.85 553.66 175.85 553.66 170.04"/><line class="cls-7" x1="547.85" y1="170.04" x2="480.4" y2="170.04"/><line class="cls-7" x1="480.4" y1="175.85" x2="547.85" y2="175.85"/><line class="cls-7" x1="480.4" y1="172.89" x2="547.85" y2="172.89"/><polyline class="cls-7" points="387.58 192.15 387.58 173.91 387.58 168.1 387.58 173.91"/><polyline class="cls-7" points="558.95 192.15 558.95 173.91 558.95 168.1 558.95 173.91"/><line class="cls-7" x1="391.35" y1="157.51" x2="391.35" y2="158.53"/><polyline class="cls-7" points="391.35 168.1 390.43 168.1 391.35 168.1"/><polyline class="cls-7" points="390.43 168.1 387.58 168.1 390.43 168.1"/><line class="cls-7" x1="555.08" y1="157.51" x2="555.08" y2="158.53"/><polyline class="cls-7" points="555.08 168.1 556 168.1 555.08 168.1"/><polyline class="cls-7" points="556 168.1 558.95 168.1 556 168.1"/><line class="cls-7" x1="391.35" y1="158.53" x2="391.35" y2="168.1"/><line class="cls-7" x1="555.08" y1="158.53" x2="555.08" y2="168.1"/><polyline class="cls-7" points="151.19 993.2 151.19 993.2 151.19 1000.84 151.19 1012.46 634.96 1012.46"/><line class="cls-7" x1="151.19" y1="993.2" x2="151.19" y2="993.2"/><line class="cls-7" x1="151.19" y1="1012.46" x2="151.19" y2="1012.46"/><polyline class="cls-7" points="151.19 1012.46 151.19 1000.84 151.19 993.2 151.19 1000.84"/><polyline class="cls-7" points="151.19 973.95 158.94 973.95 170.45 973.95"/><polyline class="cls-7" points="151.19 846.89 151.19 877.66 158.94 877.66 170.45 877.66"/><line class="cls-7" x1="151.19" y1="973.94" x2="151.19" y2="993.2"/><line class="cls-7" x1="170.45" y1="993.2" x2="170.45" y2="973.94"/><line class="cls-7" x1="170.45" y1="877.66" x2="170.45" y2="827.63"/><path class="cls-7" d="M247.17,998.37a88.59,88.59,0,0,0-88.59-88.59" transform="translate(0.41 -28.35)"/><polyline class="cls-7" points="151.19 877.66 151.19 881.53 158.94 881.53 158.94 877.66 151.19 877.66"/><polyline class="cls-7" points="158.94 973.95 158.94 970.07 151.19 970.07 151.19 973.95 158.94 973.95"/><line class="cls-7" x1="158.94" y1="970.07" x2="247.48" y2="970.07"/><polyline class="cls-7" points="170.45 877.66 158.94 877.66 151.19 877.66 158.94 877.66"/><polyline class="cls-7" points="170.45 973.95 158.94 973.95 151.19 973.95 158.94 973.95"/><line class="cls-7" x1="53.48" y1="846.89" x2="151.19" y2="846.89"/><polyline class="cls-7" points="170.45 827.63 151.19 827.63 72.74 827.63"/><line class="cls-7" x1="170.45" y1="1012.46" x2="260.42" y2="1012.46"/><polyline class="cls-7" points="356.7 1012.46 597.47 1012.46 597.47 993.2 356.7 993.2"/><line class="cls-7" x1="260.42" y1="993.2" x2="170.45" y2="993.2"/><line class="cls-7" x1="327.87" y1="826.61" x2="320.13" y2="826.61"/><line class="cls-7" x1="327.87" y1="740.01" x2="320.13" y2="740.01"/><line class="cls-7" x1="327.87" y1="586.87" x2="320.13" y2="586.87"/><line class="cls-7" x1="327.87" y1="667.77" x2="320.13" y2="667.77"/><line class="cls-7" x1="320.13" y1="269.18" x2="320.13" y2="490.68"/><line class="cls-7" x1="320.13" y1="667.77" x2="320.13" y2="740.01"/><polyline class="cls-7" points="320.13 826.61 320.13 836.29 327.87 836.29 327.87 826.61"/><line class="cls-7" x1="327.87" y1="740.01" x2="327.87" y2="675.41"/><line class="cls-7" x1="327.87" y1="490.68" x2="327.87" y2="269.18"/><line class="cls-7" x1="308.61" y1="579.23" x2="308.61" y2="586.87"/><line class="cls-7" x1="222.92" y1="579.23" x2="222.92" y2="586.87"/><line class="cls-7" x1="29.44" y1="586.87" x2="31.37" y2="586.87"/><line class="cls-7" x1="39.01" y1="586.87" x2="215.18" y2="586.87"/><line class="cls-7" x1="222.92" y1="579.23" x2="29.44" y2="579.23"/><line class="cls-7" x1="530.02" y1="667.77" x2="530.02" y2="675.41"/><polyline class="cls-7" points="356.7 667.77 356.7 675.41 327.87 675.41"/><polyline class="cls-7" points="530.02 675.41 597.47 675.41 597.47 667.77 530.02 667.77"/><line class="cls-7" x1="356.7" y1="667.77" x2="327.87" y2="667.77"/><polyline class="cls-7" points="120.83 785.25 120.83 827.63 128.57 827.63 128.57 785.25"/><polyline class="cls-7" points="82.32 777.5 82.32 781.38 82.32 785.25"/><polyline class="cls-7" points="215.18 777.5 120.83 777.5 120.83 781.38 120.83 785.25"/><polyline class="cls-7" points="82.32 777.5 72.74 777.5 72.74 785.25 82.32 785.25"/><line class="cls-7" x1="128.57" y1="785.25" x2="215.18" y2="785.25"/><line class="cls-7" x1="120.83" y1="777.5" x2="82.32" y2="777.5"/><line class="cls-7" x1="120.83" y1="785.25" x2="82.32" y2="785.25"/><path class="cls-7" d="M120.42,805.8a38.35,38.35,0,0,0-2.32-13.15" transform="translate(0.41 -28.35)"/><line class="cls-7" x1="82.32" y1="777.5" x2="118.49" y2="764.36"/><polyline class="cls-7" points="120.83 785.25 120.83 781.38 120.83 777.5 120.83 781.38"/><polyline class="cls-7" points="82.32 785.25 82.32 781.38 82.32 777.5 82.32 781.38"/><line class="cls-7" x1="222.92" y1="736.14" x2="215.18" y2="736.14"/><polyline class="cls-7" points="222.92 668.79 215.18 668.79 215.18 586.87"/><line class="cls-7" x1="215.18" y1="736.14" x2="215.18" y2="777.5"/><line class="cls-7" x1="215.18" y1="785.25" x2="215.18" y2="827.63"/><line class="cls-7" x1="222.92" y1="835.27" x2="222.92" y2="736.14"/><line class="cls-7" x1="222.92" y1="668.79" x2="222.92" y2="586.87"/><polyline class="cls-7" points="215.18 827.63 170.45 827.63 170.45 835.27"/><polyline class="cls-7" points="222.92 835.27 215.18 835.27 170.45 835.27"/><line class="cls-7" x1="374.03" y1="993.2" x2="374.03" y2="836.29"/><line class="cls-7" x1="366.38" y1="843.93" x2="366.38" y2="937.37"/><polyline class="cls-7" points="366.38 945.01 366.38 993.2 374.02 993.2"/><line class="cls-7" x1="366.38" y1="937.37" x2="327.87" y2="937.37"/><line class="cls-7" x1="327.87" y1="945.01" x2="366.38" y2="945.01"/><polyline class="cls-7" points="374.02 836.29 366.38 836.29 327.87 836.29"/><line class="cls-7" x1="327.87" y1="843.93" x2="366.38" y2="843.93"/><line class="cls-7" x1="10.18" y1="796.76" x2="53.48" y2="796.76"/><line class="cls-7" x1="72.74" y1="777.5" x2="29.44" y2="777.5"/><line class="cls-7" x1="10.18" y1="796.76" x2="10.18" y2="796.76"/><polyline class="cls-7" points="53.48 846.89 53.48 827.63 53.48 796.76"/><polyline class="cls-7" points="72.74 777.5 72.74 796.76 72.74 827.63"/><line class="cls-7" x1="29.44" y1="777.5" x2="29.44" y2="586.87"/><line class="cls-7" x1="29.44" y1="490.68" x2="29.44" y2="269.18"/><line class="cls-7" x1="10.18" y1="269.18" x2="10.18" y2="490.68"/><line class="cls-7" x1="10.18" y1="586.87" x2="10.18" y2="796.76"/><polyline class="cls-7" points="31.37 586.87 31.37 777.5 39.01 777.5 39.01 586.87"/><polyline class="cls-7" points="320.13 993.2 324 993.2 327.87 993.2"/><polyline class="cls-7" points="320.13 836.29 320.13 954.69 324 954.69 327.87 954.69 327.87 945.01"/><line class="cls-7" x1="327.87" y1="937.37" x2="327.87" y2="843.93"/><line class="cls-7" x1="327.87" y1="836.29" x2="320.13" y2="836.29"/><line class="cls-7" x1="320.13" y1="954.69" x2="320.13" y2="993.2"/><line class="cls-7" x1="327.87" y1="954.69" x2="327.87" y2="993.2"/><path class="cls-7" d="M319.77,983a38.6,38.6,0,0,0-13.16,2.32" transform="translate(0.41 -28.35)"/><line class="cls-7" x1="320.13" y1="993.2" x2="306.98" y2="957.03"/><polyline class="cls-7" points="327.87 954.69 324 954.69 320.13 954.69 324 954.69"/><polyline class="cls-7" points="327.87 993.2 324 993.2 320.13 993.2 324 993.2"/><line class="cls-7" x1="634.96" y1="821.52" x2="634.96" y2="269.18"/><line class="cls-7" x1="634.96" y1="1012.46" x2="634.96" y2="930.23"/><line class="cls-7" x1="616.73" y1="1012.46" x2="616.73" y2="930.23"/><line class="cls-7" x1="616.73" y1="821.52" x2="616.73" y2="269.18"/><polyline class="cls-7" points="616.73 821.52 610.92 821.52 597.47 821.52"/><polyline class="cls-7" points="616.73 930.23 610.92 930.23 597.47 930.23"/><line class="cls-7" x1="635.98" y1="1012.46" x2="635.98" y2="927.38"/><line class="cls-7" x1="635.98" y1="824.37" x2="635.98" y2="269.18"/><line class="cls-7" x1="597.47" y1="269.18" x2="597.47" y2="821.52"/><line class="cls-7" x1="597.47" y1="930.23" x2="597.47" y2="1012.46"/><line class="cls-7" x1="635.98" y1="926.46" x2="635.98" y2="825.29"/><line class="cls-7" x1="597.47" y1="930.23" x2="597.47" y2="821.52"/><polyline class="cls-7" points="610.92 930.23 610.92 924.93 614.79 924.93 614.79 922.59 616.73 922.59 616.73 930.23"/><polyline class="cls-7" points="616.73 821.52 616.73 829.16 614.79 829.16 614.79 826.81 610.92 826.81 610.92 821.52"/><line class="cls-7" x1="616.73" y1="829.16" x2="616.73" y2="922.59"/><polyline class="cls-7" points="608.98 924.93 608.98 919.23 608.98 832.52"/><polyline class="cls-7" points="608.98 919.23 614.79 919.23 614.79 924.93 608.98 924.93"/><polyline class="cls-7" points="614.79 826.81 614.79 832.52 608.98 832.52 608.98 826.81 614.79 826.81"/><line class="cls-7" x1="614.79" y1="832.52" x2="614.79" y2="919.23"/><line class="cls-7" x1="608.98" y1="919.23" x2="608.98" y2="832.52"/><line class="cls-7" x1="611.83" y1="919.23" x2="611.83" y2="832.52"/><polyline class="cls-7" points="597.47 930.23 610.92 930.23 616.73 930.23 610.92 930.23"/><polyline class="cls-7" points="597.47 821.52 610.92 821.52 616.73 821.52 610.92 821.52"/><line class="cls-7" x1="635.98" y1="926.46" x2="634.96" y2="926.46"/><polyline class="cls-7" points="616.73 926.46 616.73 927.38 616.73 926.46"/><polyline class="cls-7" points="616.73 927.38 616.73 930.23 616.73 927.38"/><line class="cls-7" x1="635.98" y1="825.29" x2="634.96" y2="825.29"/><polyline class="cls-7" points="616.73 825.29 616.73 824.37 616.73 825.29"/><polyline class="cls-7" points="616.73 824.37 616.73 821.52 616.73 824.37"/><line class="cls-7" x1="634.96" y1="926.46" x2="616.73" y2="926.46"/><line class="cls-7" x1="634.96" y1="825.29" x2="616.73" y2="825.29"/><polyline class="cls-7" points="634.96 269.18 634.96 168.1 634.96 158.53 634.86 158.53 634.96 158.53"/><polyline class="cls-7" points="616.73 269.18 616.73 192.15 616.73 174.83 616.73 192.15"/><line class="cls-7" x1="635.98" y1="269.18" x2="635.98" y2="158.53"/><line class="cls-7" x1="0.5" y1="41.97" x2="289.36" y2="41.97"/><polyline class="cls-7" points="0.5 41.97 10.18 41.97 14.97 41.97 14.97 45.84 12.52 45.84 12.52 51.65 10.18 51.65 279.68 51.65"/><polyline class="cls-7" points="100.35 41.97 96.48 41.97 96.48 45.84 98.92 45.84 98.92 51.65 100.35 51.65"/><line class="cls-7" x1="96.48" y1="41.97" x2="14.97" y2="41.97"/><polyline class="cls-7" points="12.52 51.65 18.33 51.65 93.12 51.65"/><polyline class="cls-7" points="18.33 51.65 18.33 45.84 12.52 45.84 12.52 51.65"/><polyline class="cls-7" points="98.92 45.84 93.12 45.84 93.12 51.65 98.92 51.65 98.92 45.84"/><line class="cls-7" x1="93.12" y1="45.84" x2="18.33" y2="45.84"/><line class="cls-7" x1="18.33" y1="51.64" x2="93.12" y2="51.64"/><line class="cls-7" x1="18.33" y1="48.79" x2="93.12" y2="48.79"/><line class="cls-7" x1="10.18" y1="41.97" x2="10.18" y2="51.64"/><polyline class="cls-7" points="100.35 51.65 101.78 51.65 101.78 45.84 104.12 45.84 104.12 41.97 100.35 41.97"/><polyline class="cls-7" points="189.5 41.97 185.73 41.97 185.73 45.84 188.08 45.84 188.08 51.65 189.5 51.65"/><line class="cls-7" x1="185.73" y1="41.97" x2="104.12" y2="41.97"/><polyline class="cls-7" points="101.78 51.65 107.58 51.65 182.27 51.65"/><polyline class="cls-7" points="107.58 51.65 107.58 45.84 101.78 45.84 101.78 51.65"/><polyline class="cls-7" points="188.08 45.84 182.27 45.84 182.27 51.65 188.08 51.65 188.08 45.84"/><line class="cls-7" x1="182.27" y1="45.84" x2="107.59" y2="45.84"/><line class="cls-7" x1="107.59" y1="51.64" x2="182.27" y2="51.64"/><line class="cls-7" x1="107.59" y1="48.79" x2="182.27" y2="48.79"/><polyline class="cls-7" points="189.5 51.65 190.93 51.65 190.93 45.84 193.38 45.84 193.38 41.97 189.5 41.97"/><polyline class="cls-7" points="289.36 41.97 279.68 41.97 274.89 41.97 274.89 45.84 277.33 45.84 277.33 51.65 279.68 51.65"/><line class="cls-7" x1="274.89" y1="41.97" x2="193.38" y2="41.97"/><polyline class="cls-7" points="190.93 51.65 196.74 51.65 271.52 51.65"/><polyline class="cls-7" points="196.74 51.65 196.74 45.84 190.93 45.84 190.93 51.65"/><polyline class="cls-7" points="277.33 45.84 271.52 45.84 271.52 51.65 277.33 51.65 277.33 45.84"/><line class="cls-7" x1="271.52" y1="45.84" x2="196.74" y2="45.84"/><line class="cls-7" x1="196.74" y1="51.64" x2="271.52" y2="51.64"/><line class="cls-7" x1="196.74" y1="48.79" x2="271.52" y2="48.79"/><line class="cls-7" x1="279.68" y1="41.97" x2="279.68" y2="51.64"/><line class="cls-7" x1="0.5" y1="157.51" x2="10.18" y2="157.51"/><line class="cls-7" x1="0.5" y1="41.97" x2="0.5" y2="157.51"/><polyline class="cls-7" points="0.5 41.97 0.5 51.65 0.5 56.43 4.37 56.43 4.37 54.09 10.18 54.09 10.18 51.65 10.18 157.51"/><polyline class="cls-7" points="0.5 157.51 0.5 149.87 4.37 149.87 4.37 152.21 10.18 152.21 10.18 157.51"/><line class="cls-7" x1="0.5" y1="192.15" x2="0.5" y2="56.43"/><polyline class="cls-7" points="10.18 54.09 10.18 59.8 10.18 146.5"/><polyline class="cls-7" points="10.18 59.8 4.37 59.8 4.37 54.09 10.18 54.09"/><polyline class="cls-7" points="4.37 152.21 4.37 146.5 10.18 146.5 10.18 152.21 4.37 152.21"/><line class="cls-7" x1="4.37" y1="146.5" x2="4.37" y2="59.8"/><line class="cls-7" x1="10.18" y1="59.8" x2="10.18" y2="146.5"/><line class="cls-7" x1="7.22" y1="59.8" x2="7.22" y2="146.5"/><line class="cls-7" x1="0.5" y1="51.64" x2="10.18" y2="51.64"/><polyline class="cls-7" points="10.18 157.51 0.5 157.51 10.18 157.51"/><line class="cls-7" x1="289.36" y1="157.51" x2="279.68" y2="157.51"/><line class="cls-7" x1="289.36" y1="41.97" x2="289.36" y2="157.51"/><polyline class="cls-7" points="289.36 41.97 289.36 51.65 289.36 56.43 285.48 56.43 285.48 54.09 279.68 54.09 279.68 51.65 279.68 157.51"/><polyline class="cls-7" points="289.36 157.51 289.36 149.87 285.48 149.87 285.48 152.21 279.68 152.21 279.68 157.51"/><line class="cls-7" x1="289.36" y1="149.87" x2="289.36" y2="56.43"/><polyline class="cls-7" points="279.68 54.09 279.68 59.8 279.68 146.5"/><polyline class="cls-7" points="279.68 59.8 285.48 59.8 285.48 54.09 279.68 54.09"/><polyline class="cls-7" points="285.48 152.21 285.48 146.5 279.68 146.5 279.68 152.21 285.48 152.21"/><line class="cls-7" x1="285.48" y1="146.5" x2="285.48" y2="59.8"/><line class="cls-7" x1="279.68" y1="59.8" x2="279.68" y2="146.5"/><line class="cls-7" x1="282.63" y1="59.8" x2="282.63" y2="146.5"/><line class="cls-7" x1="289.36" y1="51.64" x2="279.68" y2="51.64"/><polyline class="cls-7" points="279.68 157.51 289.36 157.51 279.68 157.51"/><polyline class="cls-7" points="432 940.22 432 993.2 379.02 993.2 379.02 940.22 432 940.22"/><polyline class="cls-7" points="383.81 945.01 427.11 945.01 427.11 983.52 383.81 983.52 383.81 945.01"/><line class="cls-7" x1="44.52" y1="598.48" x2="44.52" y2="647.59"/><line class="cls-7" x1="49.92" y1="653.3" x2="169.13" y2="653.3"/><line class="cls-7" x1="49.92" y1="592.68" x2="169.13" y2="592.68"/><line class="cls-7" x1="202.65" y1="659.11" x2="39.01" y2="659.11"/><polyline class="cls-7" points="202.65 659.11 202.65 586.87 39.01 586.87 39.01 659.11"/><line class="cls-7" x1="149.97" y1="602.76" x2="56.74" y2="602.76"/><line class="cls-7" x1="53.99" y1="605.62" x2="53.99" y2="640.36"/><line class="cls-7" x1="149.97" y1="643.31" x2="56.74" y2="643.31"/><line class="cls-7" x1="73.15" y1="621.21" x2="73.15" y2="617.64"/><line class="cls-7" x1="71.41" y1="623.04" x2="68.05" y2="623.04"/><line class="cls-7" x1="73.15" y1="624.77" x2="73.15" y2="628.34"/><line class="cls-7" x1="74.78" y1="623.04" x2="78.14" y2="623.04"/><path class="cls-7" d="M168.77,681.65c15.84,0,28.68-13.57,28.68-30.31S184.61,621,168.77,621" transform="translate(0.41 -28.35)"/><path class="cls-7" d="M44.11,675.9a5.6,5.6,0,0,0,5.45,5.75" transform="translate(0.41 -28.35)"/><path class="cls-7" d="M49.56,621a5.61,5.61,0,0,0-5.45,5.76" transform="translate(0.41 -28.35)"/><path class="cls-7" d="M72.79,648.33a3,3,0,1,0,2.8,3,2.91,2.91,0,0,0-2.8-3" transform="translate(0.41 -28.35)"/><path class="cls-7" d="M149.61,671.67c10.55,0,19.11-9.1,19.11-20.33S160.16,631,149.61,631" transform="translate(0.41 -28.35)"/><path class="cls-7" d="M56.39,631a2.8,2.8,0,0,0-2.7,2.91" transform="translate(0.41 -28.35)"/><path class="cls-7" d="M53.69,668.66a2.8,2.8,0,0,0,2.7,2.91" transform="translate(0.41 -28.35)"/><path class="cls-7" d="M72.79,647.32a4,4,0,1,0,3.82,4,3.92,3.92,0,0,0-3.82-4" transform="translate(0.41 -28.35)"/><polyline class="cls-7" points="61.02 714.33 39.01 714.33 39.01 662.27 61.02 662.27"/><line class="cls-7" x1="39.01" y1="680.1" x2="39.01" y2="696.5"/><line class="cls-7" x1="56.64" y1="683.97" x2="56.64" y2="686.72"/><line class="cls-7" x1="52.26" y1="688.35" x2="55.11" y2="688.35"/><line class="cls-7" x1="56.64" y1="689.88" x2="56.64" y2="692.73"/><line class="cls-7" x1="58.27" y1="688.35" x2="61.02" y2="688.35"/><path class="cls-7" d="M51.07,730.45a23.19,23.19,0,0,0,11,9" transform="translate(0.41 -28.35)"/><path class="cls-7" d="M47.85,716.63a23.16,23.16,0,0,0,3.25,13.81" transform="translate(0.41 -28.35)"/><path class="cls-7" d="M62,693.77a23.21,23.21,0,0,0-11,9" transform="translate(0.41 -28.35)"/><path class="cls-7" d="M51.1,702.76a23.17,23.17,0,0,0-3.25,13.82" transform="translate(0.41 -28.35)"/><path class="cls-7" d="M73.73,734.24A42.78,42.78,0,0,0,78,718.46" transform="translate(0.41 -28.35)"/><path class="cls-7" d="M71.57,695.56a13.19,13.19,0,0,0-10.86-4.93" transform="translate(0.41 -28.35)"/><path class="cls-7" d="M78.08,718.47a27.63,27.63,0,0,0,0-3.64" transform="translate(0.41 -28.35)"/><path class="cls-7" d="M52,702.11a94.9,94.9,0,0,0,0,29.09" transform="translate(0.41 -28.35)"/><path class="cls-7" d="M64.08,692a32.71,32.71,0,0,0-21.23,7.36" transform="translate(0.41 -28.35)"/><path class="cls-7" d="M41.34,701.76a64.71,64.71,0,0,0-1.61,14.87" transform="translate(0.41 -28.35)"/><path class="cls-7" d="M42.84,699.34a4.38,4.38,0,0,0-1.48,2.4" transform="translate(0.41 -28.35)"/><path class="cls-7" d="M42.82,702a110.7,110.7,0,0,0-1,14.66" transform="translate(0.41 -28.35)"/><path class="cls-7" d="M64.11,692a29.39,29.39,0,0,0-19.83,7.34" transform="translate(0.41 -28.35)"/><path class="cls-7" d="M44.25,699.34A4.38,4.38,0,0,0,42.82,702" transform="translate(0.41 -28.35)"/><path class="cls-7" d="M44.25,733.89a29.45,29.45,0,0,0,19.82,7.37" transform="translate(0.41 -28.35)"/><path class="cls-7" d="M42.82,733.86A32.57,32.57,0,0,0,64,741.25" transform="translate(0.41 -28.35)"/><path class="cls-7" d="M41.77,716.62a110.41,110.41,0,0,0,1,14.65" transform="translate(0.41 -28.35)"/><path class="cls-7" d="M39.73,716.58a64.78,64.78,0,0,0,1.59,14.88" transform="translate(0.41 -28.35)"/><path class="cls-7" d="M42.82,731.2a4.28,4.28,0,0,0,1.43,2.65" transform="translate(0.41 -28.35)"/><path class="cls-7" d="M41.36,731.46a4.31,4.31,0,0,0,1.48,2.4" transform="translate(0.41 -28.35)"/><path class="cls-7" d="M60.71,742.57a13.21,13.21,0,0,0,10.86-4.92" transform="translate(0.41 -28.35)"/><path class="cls-7" d="M71.6,737.74a21.09,21.09,0,0,0,2.24-3.46" transform="translate(0.41 -28.35)"/><path class="cls-7" d="M73.84,699a20.28,20.28,0,0,0-2.24-3.46" transform="translate(0.41 -28.35)"/><path class="cls-7" d="M78,714.74A42.78,42.78,0,0,0,73.73,699" transform="translate(0.41 -28.35)"/><path class="cls-7" d="M74.43,723.81a30.41,30.41,0,0,0,0-14.32" transform="translate(0.41 -28.35)"/><path class="cls-7" d="M62.07,739.41a7.81,7.81,0,0,0,6.43-2.69" transform="translate(0.41 -28.35)"/><path class="cls-7" d="M68.41,736.73a28.11,28.11,0,0,0,5.94-13" transform="translate(0.41 -28.35)"/><path class="cls-7" d="M68.5,696.48a7.77,7.77,0,0,0-6.43-2.68" transform="translate(0.41 -28.35)"/><path class="cls-7" d="M74.35,709.42a28.11,28.11,0,0,0-5.94-12.95" transform="translate(0.41 -28.35)"/><path class="cls-7" d="M59.7,716.65a3.42,3.42,0,1,0-3.42,3.41,3.42,3.42,0,0,0,3.42-3.41" transform="translate(0.41 -28.35)"/><path class="cls-7" d="M58.68,716.65a2.4,2.4,0,1,0-2.4,2.4,2.39,2.39,0,0,0,2.4-2.4" transform="translate(0.41 -28.35)"/><line class="cls-7" x1="53.79" y1="755.9" x2="87.82" y2="755.9"/><polyline class="cls-7" points="51.75 757.33 39.01 757.33 39.01 720.75"/><line class="cls-7" x1="59.8" y1="738.99" x2="59.8" y2="725.44"/><polyline class="cls-7" points="87.72 755.9 59.8 752.64 59.8 738.99"/><line class="cls-7" x1="87.72" y1="722.18" x2="59.8" y2="725.44"/><line class="cls-7" x1="87.72" y1="754.99" x2="59.8" y2="751.72"/><line class="cls-7" x1="87.72" y1="723.09" x2="59.8" y2="726.35"/><line class="cls-7" x1="53.79" y1="722.18" x2="87.82" y2="722.18"/><line class="cls-7" x1="39.01" y1="720.75" x2="51.75" y2="720.75"/><polyline class="cls-7" points="87.72 755.9 91.49 755.39 95.05 753.97 98.21 751.62 100.76 748.57 102.49 745 103.41 741.03 103.41 736.95 102.49 733.08 100.76 729.41 98.21 726.35 95.05 724.11 91.49 722.69 87.72 722.18"/><polyline class="cls-7" points="87.72 754.99 91.28 754.58 94.64 753.15 97.6 751.01 100.05 748.06 101.68 744.7 102.59 740.92 102.59 737.05 101.68 733.38 100.05 729.92 97.6 727.07 94.64 724.83 91.28 723.5 87.72 723.09"/><path class="cls-7" d="M53.53,783.7a155,155,0,0,0,0-32.8" transform="translate(0.41 -28.35)"/><path class="cls-7" d="M51.39,785.58a2.15,2.15,0,0,0,2.18-1.86" transform="translate(0.41 -28.35)"/><path class="cls-7" d="M53.57,751a2.16,2.16,0,0,0-2.18-1.88" transform="translate(0.41 -28.35)"/><path class="cls-7" d="M48.49,767.29a1.79,1.79,0,1,0-1.78,1.78,1.78,1.78,0,0,0,1.78-1.78" transform="translate(0.41 -28.35)"/><polyline class="cls-7" points="483.86 155.16 483.86 102.18 484.27 102.18 484.27 155.16 483.86 155.16"/><polyline class="cls-7" points="482.33 100.75 393.79 100.75 393.79 100.25 482.33 100.25 482.33 100.75"/><polyline class="cls-7" points="392.37 102.18 392.37 155.16 391.86 155.16 391.86 102.18 392.37 102.18"/><polyline class="cls-7" points="482.33 157.51 482.33 155.16 484.78 155.16 484.78 157.51 482.33 157.51"/><polyline class="cls-7" points="482.33 102.18 482.33 99.74 484.78 99.74 484.78 102.18 482.33 102.18"/><polyline class="cls-7" points="393.79 102.18 391.35 102.18 391.35 99.74 393.79 99.74 393.79 102.18"/><polyline class="cls-7" points="393.79 155.16 393.79 157.51 391.35 157.51 391.35 155.16 393.79 155.16"/><line class="cls-7" x1="482.33" y1="156.29" x2="482.33" y2="102.18"/><line class="cls-7" x1="484.78" y1="99.74" x2="484.78" y2="156.29"/><line class="cls-7" x1="482.33" y1="102.18" x2="393.79" y2="102.18"/><line class="cls-7" x1="391.35" y1="99.74" x2="484.78" y2="99.74"/><line class="cls-7" x1="393.79" y1="102.18" x2="393.79" y2="156.29"/><line class="cls-7" x1="391.35" y1="156.29" x2="391.35" y2="99.74"/><polyline class="cls-7" points="484.78 156.28 484.78 157.51 482.33 157.51 482.33 156.28"/><polyline class="cls-7" points="393.79 156.28 393.79 157.51 391.35 157.51 391.35 156.28"/><polyline class="cls-7" points="391.35 99.74 484.78 99.74 484.78 156.28 482.33 156.28 482.33 102.18 393.79 102.18 393.79 156.28 391.35 156.28 391.35 99.74"/><polyline class="cls-7" points="396.24 117.06 479.99 117.06 479.99 147.93 396.24 147.93 396.24 117.06"/><polyline class="cls-7" points="396.24 120.22 479.99 120.22 479.99 147.93 396.24 147.93 396.24 120.22"/><polyline class="cls-7" points="10.18 269.18 29.44 269.18 29.44 172.89 10.18 172.89 10.18 269.18"/><polyline class="cls-7" points="29.44 490.69 10.18 490.69 10.18 586.87 29.44 586.87 29.44 490.69"/><polyline class="cls-7" points="308.61 269.18 327.87 269.18 327.87 172.89 308.61 172.89 308.61 269.18"/><polyline class="cls-7" points="327.87 490.69 308.61 490.69 308.61 586.87 327.87 586.87 327.87 490.69"/><polyline class="cls-7" points="356.7 993.2 356.7 1012.46 260.42 1012.46 260.42 993.2 356.7 993.2"/><polyline class="cls-7" points="616.73 172.89 597.47 172.89 597.47 269.18"/></svg>