<svg id="_429" data-name="429" xmlns="http://www.w3.org/2000/svg" viewBox="0 0 555.59 1462.83"><defs><style>.cls-1{isolation:isolate;font-size:12px;fill:#969696;}.cls-1,.cls-10,.cls-7,.cls-8{font-family:PTSans-Regular, PT Sans;}.cls-2,.cls-3,.cls-4,.cls-5,.cls-6,.cls-9{fill:none;stroke-linecap:round;stroke-linejoin:round;}.cls-2{stroke:#969696;stroke-width:0.75px;}.cls-3,.cls-4,.cls-5,.cls-6,.cls-9{stroke:#000;}.cls-4,.cls-5,.cls-6{stroke-width:0.25px;}.cls-5{stroke-dasharray:1 1;}.cls-6{stroke-dasharray:1.01 1.01;}.cls-7{font-size:40px;}.cls-8{font-size:40.54px;}.cls-9{stroke-width:0.5px;}.cls-10{font-size:36px;}.cls-11{letter-spacing:-0.01em;}</style></defs><title>2floor_429flat</title><text class="cls-1" transform="translate(272.22 10.2)">двор</text><line class="cls-2" x1="261.46" y1="3.22" x2="261.46" y2="12.02"/><polyline class="cls-2" points="264.96 6.72 261.46 3.22 257.96 6.72"/><line class="cls-3" x1="107.9" y1="91.18" x2="64.62" y2="100.11"/><line class="cls-3" x1="111.14" y1="90.47" x2="112.8" y2="98.62"/><line class="cls-3" x1="110.96" y1="89.69" x2="111.14" y2="90.47"/><line class="cls-3" x1="109.56" y1="99.32" x2="109.56" y2="99.32"/><polyline class="cls-3" points="107.9 91.17 110.35 90.65 112.01 98.8 110.35 90.65"/><line class="cls-3" x1="110.17" y1="89.86" x2="110.96" y2="89.69"/><polyline class="cls-3" points="109.56 99.32 110.53 104.14 113.68 119.56 67.6 129.02"/><line class="cls-3" x1="110.17" y1="89.86" x2="64.54" y2="99.23"/><polyline class="cls-3" points="186.74 69.89 110.09 85.66 110.96 89.69"/><line class="cls-3" x1="186.74" y1="104.49" x2="113.68" y2="119.56"/><line class="cls-3" x1="186.74" y1="74.09" x2="110.96" y2="89.69"/><line class="cls-3" x1="186.74" y1="104.49" x2="113.68" y2="119.56"/><polyline class="cls-3" points="186.74 88.46 182.27 89.42 181.66 86.18 179.64 86.53 179.29 84.96 185.77 83.64 186.74 83.38"/><polyline class="cls-3" points="109.56 99.32 116.04 97.92 116.39 99.58 114.38 100.02 114.99 103.26 110.53 104.14"/><line class="cls-3" x1="116.04" y1="97.92" x2="179.29" y2="84.96"/><polyline class="cls-3" points="182.62 91 177.8 91.96 120.16 103.88"/><polyline class="cls-3" points="177.8 91.96 176.75 87.15 181.66 86.18 182.62 91"/><polyline class="cls-3" points="114.38 100.02 119.2 98.97 120.16 103.88 115.34 104.84 114.38 100.02"/><line class="cls-3" x1="119.2" y1="98.97" x2="176.75" y2="87.15"/><line class="cls-3" x1="177.8" y1="91.96" x2="120.16" y2="103.88"/><line class="cls-3" x1="177.28" y1="89.6" x2="119.72" y2="101.42"/><line class="cls-3" x1="185.77" y1="83.64" x2="186.74" y2="88.46"/><polyline class="cls-3" points="113.68 119.56 110.53 104.14 109.56 99.32 110.53 104.14"/><line class="cls-3" x1="110.96" y1="89.69" x2="111.14" y2="90.47"/><polyline class="cls-3" points="112.8 98.62 112.01 98.8 112.8 98.62"/><polyline class="cls-3" points="112.01 98.8 109.56 99.32 112.01 98.8"/><line class="cls-3" x1="111.14" y1="90.47" x2="112.8" y2="98.62"/><line class="cls-3" x1="304.73" y1="99.23" x2="265.66" y2="91.18"/><line class="cls-3" x1="262.42" y1="90.47" x2="260.76" y2="98.62"/><line class="cls-3" x1="262.6" y1="89.69" x2="262.42" y2="90.47"/><line class="cls-3" x1="264" y1="99.32" x2="264" y2="99.32"/><polyline class="cls-3" points="265.66 91.17 263.21 90.65 261.55 98.8 263.21 90.65"/><line class="cls-3" x1="263.39" y1="89.86" x2="262.6" y2="89.69"/><polyline class="cls-3" points="264 99.32 262.95 104.14 259.8 119.56"/><line class="cls-3" x1="304.73" y1="98.36" x2="263.39" y2="89.86"/><line class="cls-3" x1="259.79" y1="119.56" x2="304.73" y2="128.76"/><polyline class="cls-3" points="186.74 69.89 263.39 85.66 262.6 89.69"/><line class="cls-3" x1="186.74" y1="104.49" x2="259.79" y2="119.56"/><line class="cls-3" x1="186.74" y1="74.09" x2="262.6" y2="89.69"/><line class="cls-3" x1="186.74" y1="104.49" x2="259.79" y2="119.56"/><polyline class="cls-3" points="186.74 88.46 191.2 89.42 191.91 86.18 193.92 86.53 194.27 84.96 187.79 83.64 186.74 83.38"/><polyline class="cls-3" points="264 99.32 257.52 97.92 257.17 99.58 259.18 100.02 258.48 103.26 262.95 104.14"/><line class="cls-3" x1="257.52" y1="97.92" x2="194.27" y2="84.96"/><polyline class="cls-3" points="190.85 91 195.76 91.96 253.31 103.88"/><polyline class="cls-3" points="195.76 91.96 196.72 87.15 191.91 86.18 190.85 91"/><polyline class="cls-3" points="259.18 100.02 254.28 98.97 253.31 103.88 258.13 104.84 259.18 100.02"/><line class="cls-3" x1="254.28" y1="98.97" x2="196.72" y2="87.15"/><line class="cls-3" x1="195.76" y1="91.96" x2="253.31" y2="103.88"/><line class="cls-3" x1="196.28" y1="89.6" x2="253.84" y2="101.42"/><line class="cls-3" x1="187.79" y1="83.64" x2="186.74" y2="88.46"/><polyline class="cls-3" points="259.8 119.56 262.95 104.14 264 99.32 262.95 104.14"/><line class="cls-3" x1="262.6" y1="89.69" x2="262.42" y2="90.47"/><polyline class="cls-3" points="260.76 98.62 261.55 98.8 260.76 98.62"/><polyline class="cls-3" points="261.55 98.8 264 99.32 261.55 98.8"/><line class="cls-3" x1="262.42" y1="90.47" x2="260.76" y2="98.62"/><line class="cls-3" x1="555.09" y1="100.11" x2="544.76" y2="100.11"/><polyline class="cls-3" points="541.87 129.02 555.09 129.02 555.09 112.46"/><line class="cls-3" x1="555.09" y1="99.23" x2="544.84" y2="99.23"/><line class="cls-3" x1="544.76" y1="100.11" x2="501.57" y2="91.18"/><line class="cls-3" x1="498.33" y1="90.47" x2="496.66" y2="98.62"/><line class="cls-3" x1="498.5" y1="89.69" x2="498.33" y2="90.47"/><line class="cls-3" x1="499.9" y1="99.32" x2="499.9" y2="99.32"/><polyline class="cls-3" points="501.57 91.17 499.12 90.65 497.45 98.8 499.12 90.65"/><line class="cls-3" x1="499.29" y1="89.86" x2="498.5" y2="89.69"/><polyline class="cls-3" points="499.9 99.32 498.85 104.14 495.7 119.56 541.87 129.02"/><line class="cls-3" x1="544.84" y1="99.23" x2="499.29" y2="89.86"/><polyline class="cls-3" points="422.64 69.89 499.29 85.66 498.5 89.69"/><line class="cls-3" x1="422.64" y1="104.49" x2="495.7" y2="119.56"/><line class="cls-3" x1="422.64" y1="74.09" x2="498.5" y2="89.69"/><line class="cls-3" x1="422.64" y1="104.49" x2="495.7" y2="119.56"/><polyline class="cls-3" points="422.64 88.46 427.11 89.42 427.81 86.18 429.82 86.53 430.18 84.96 423.69 83.64 422.64 83.38"/><polyline class="cls-3" points="499.9 99.32 493.42 97.92 493.07 99.58 495.09 100.02 494.39 103.26 498.85 104.14"/><line class="cls-3" x1="493.42" y1="97.92" x2="430.18" y2="84.96"/><polyline class="cls-3" points="426.76 91 431.67 91.96 489.22 103.88"/><polyline class="cls-3" points="431.67 91.96 432.63 87.15 427.81 86.18 426.76 91"/><polyline class="cls-3" points="495.09 100.02 490.18 98.97 489.22 103.88 494.04 104.84 495.09 100.02"/><line class="cls-3" x1="490.18" y1="98.97" x2="432.63" y2="87.15"/><line class="cls-3" x1="431.66" y1="91.96" x2="489.22" y2="103.88"/><line class="cls-3" x1="432.19" y1="89.6" x2="489.74" y2="101.42"/><line class="cls-3" x1="423.69" y1="83.64" x2="422.64" y2="88.46"/><polyline class="cls-3" points="495.7 119.56 498.85 104.14 499.9 99.32 498.85 104.14"/><line class="cls-3" x1="498.5" y1="89.69" x2="498.33" y2="90.47"/><polyline class="cls-3" points="496.66 98.62 497.45 98.8 496.66 98.62"/><polyline class="cls-3" points="497.45 98.8 499.9 99.32 497.45 98.8"/><line class="cls-3" x1="498.33" y1="90.47" x2="496.66" y2="98.62"/><polyline class="cls-3" points="306.75 98.8 304.73 99.23 306.75 98.8 343.8 91.17"/><line class="cls-3" x1="347.04" y1="90.47" x2="348.71" y2="98.62"/><line class="cls-3" x1="346.87" y1="89.69" x2="347.04" y2="90.47"/><line class="cls-3" x1="345.47" y1="99.32" x2="345.47" y2="99.32"/><polyline class="cls-3" points="343.8 91.17 346.25 90.65 347.92 98.8 346.25 90.65"/><line class="cls-3" x1="346.08" y1="89.86" x2="346.87" y2="89.69"/><polyline class="cls-3" points="345.47 99.32 346.43 104.14 349.58 119.56 304.73 128.76"/><line class="cls-3" x1="346.08" y1="89.86" x2="304.73" y2="98.36"/><polyline class="cls-3" points="422.64 69.89 345.99 85.66 346.87 89.69"/><line class="cls-3" x1="422.64" y1="104.49" x2="349.58" y2="119.56"/><line class="cls-3" x1="422.64" y1="74.09" x2="346.87" y2="89.69"/><line class="cls-3" x1="422.64" y1="104.49" x2="349.58" y2="119.56"/><polyline class="cls-3" points="422.64 88.46 418.18 89.42 417.56 86.18 415.55 86.53 415.2 84.96 421.68 83.64 422.64 83.38"/><polyline class="cls-3" points="345.47 99.32 351.95 97.92 352.3 99.58 350.2 100.02 350.9 103.26 346.43 104.14"/><line class="cls-3" x1="351.95" y1="97.92" x2="415.2" y2="84.96"/><polyline class="cls-3" points="418.52 91 413.71 91.96 356.07 103.88"/><polyline class="cls-3" points="413.71 91.96 412.66 87.15 417.56 86.18 418.52 91"/><polyline class="cls-3" points="350.2 100.02 355.1 98.97 356.07 103.88 351.25 104.84 350.2 100.02"/><line class="cls-3" x1="355.1" y1="98.97" x2="412.66" y2="87.15"/><line class="cls-3" x1="413.71" y1="91.96" x2="356.07" y2="103.88"/><line class="cls-3" x1="413.18" y1="89.6" x2="355.63" y2="101.42"/><line class="cls-3" x1="421.68" y1="83.64" x2="422.64" y2="88.46"/><polyline class="cls-3" points="349.58 119.56 346.43 104.14 345.47 99.32 346.43 104.14"/><line class="cls-3" x1="346.87" y1="89.69" x2="347.04" y2="90.47"/><polyline class="cls-3" points="348.71 98.62 347.92 98.8 348.71 98.62"/><polyline class="cls-3" points="347.92 98.8 345.47 99.32 347.92 98.8"/><line class="cls-3" x1="347.04" y1="90.47" x2="348.71" y2="98.62"/><line class="cls-3" x1="281.96" y1="1404.56" x2="352.74" y2="1404.56"/><line class="cls-3" x1="493.42" y1="1404.56" x2="555.09" y2="1404.56"/><line class="cls-3" x1="281.96" y1="1403.68" x2="349.41" y2="1403.68"/><line class="cls-3" x1="496.75" y1="1403.68" x2="555.09" y2="1403.68"/><line class="cls-3" x1="281.96" y1="1398.77" x2="281.96" y2="1370.65"/><line class="cls-3" x1="281.96" y1="1414.45" x2="281.96" y2="1404.56"/><line class="cls-3" x1="281.96" y1="1403.68" x2="281.96" y2="1398.77"/><line class="cls-3" x1="349.41" y1="1398.77" x2="349.41" y2="1370.65"/><line class="cls-3" x1="352.74" y1="1414.45" x2="352.74" y2="1404.56"/><line class="cls-3" x1="349.41" y1="1403.68" x2="349.41" y2="1398.77"/><line class="cls-3" x1="496.75" y1="1398.77" x2="496.75" y2="1370.65"/><line class="cls-3" x1="493.42" y1="1414.45" x2="493.42" y2="1404.56"/><line class="cls-3" x1="496.75" y1="1403.68" x2="496.75" y2="1398.77"/><line class="cls-3" x1="555.09" y1="1370.65" x2="496.75" y2="1370.65"/><line class="cls-3" x1="349.41" y1="1370.65" x2="281.96" y2="1370.65"/><line class="cls-3" x1="281.96" y1="1414.45" x2="352.74" y2="1414.45"/><polyline class="cls-3" points="493.42 1414.45 555.09 1414.45 555.09 1404.56"/><line class="cls-3" x1="555.09" y1="1403.68" x2="555.09" y2="1370.65"/><polyline class="cls-3" points="281.96 1403.68 281.96 1403.68 281.96 1402.1 281.96 1402.1 281.96 1398.77 281.96 1398.77"/><polyline class="cls-3" points="281.96 1402.1 281.96 1402.1 281.96 1397.11 281.96 1397.11 281.96 1402.1"/><polyline class="cls-3" points="281.96 1398.77 281.96 1403.68 281.96 1398.77"/><polyline class="cls-3" points="281.96 1403.68 281.96 1403.68 281.96 1403.68"/><polyline class="cls-3" points="281.96 1414.45 281.96 1404.56 281.96 1403.68"/><line class="cls-3" x1="281.96" y1="1398.77" x2="281.96" y2="1370.65"/><polyline class="cls-3" points="352.74 1414.45 493.42 1414.45 493.42 1418.66 352.74 1418.66 352.74 1414.45"/><line class="cls-3" x1="496.75" y1="1370.65" x2="349.41" y2="1370.65"/><polyline class="cls-3" points="496.75 1398.77 492.2 1398.77 492.2 1402.1 490.09 1402.1 490.09 1403.68 496.75 1403.68"/><polyline class="cls-3" points="423.08 1403.68 426.41 1403.68 426.41 1402.1 424.31 1402.1 424.31 1398.77 423.08 1398.77"/><line class="cls-3" x1="426.41" y1="1403.68" x2="490.09" y2="1403.68"/><polyline class="cls-3" points="492.2 1397.11 487.2 1397.11 429.3 1397.11"/><polyline class="cls-3" points="487.2 1397.11 487.2 1402.1 492.2 1402.1 492.2 1397.11"/><polyline class="cls-3" points="424.31 1402.1 429.3 1402.1 429.3 1397.11 424.31 1397.11 424.31 1402.1"/><line class="cls-3" x1="429.3" y1="1402.1" x2="487.2" y2="1402.1"/><line class="cls-3" x1="487.2" y1="1397.11" x2="429.3" y2="1397.11"/><line class="cls-3" x1="487.2" y1="1399.56" x2="429.3" y2="1399.56"/><polyline class="cls-3" points="423.08 1398.77 421.85 1398.77 421.85 1402.1 419.75 1402.1 419.75 1403.68 423.08 1403.68"/><polyline class="cls-3" points="349.41 1403.68 356.07 1403.68 356.07 1402.1 353.96 1402.1 353.96 1398.77 349.41 1398.77"/><line class="cls-3" x1="356.07" y1="1403.68" x2="419.75" y2="1403.68"/><polyline class="cls-3" points="421.85 1397.11 416.86 1397.11 358.96 1397.11"/><polyline class="cls-3" points="416.86 1397.11 416.86 1402.1 421.85 1402.1 421.85 1397.11"/><polyline class="cls-3" points="353.96 1402.1 358.96 1402.1 358.96 1397.11 353.96 1397.11 353.96 1402.1"/><line class="cls-3" x1="358.96" y1="1402.1" x2="416.86" y2="1402.1"/><line class="cls-3" x1="416.86" y1="1397.11" x2="358.96" y2="1397.11"/><line class="cls-3" x1="416.86" y1="1399.56" x2="358.96" y2="1399.56"/><polyline class="cls-3" points="496.75 1398.77 496.75 1403.68 496.75 1398.77"/><polyline class="cls-3" points="496.75 1403.68 493.42 1403.68 496.75 1403.68"/><polyline class="cls-3" points="493.42 1414.45 493.42 1404.56 493.42 1403.68"/><line class="cls-3" x1="496.75" y1="1398.77" x2="496.75" y2="1370.65"/><polyline class="cls-3" points="349.41 1398.77 349.41 1403.68 349.41 1398.77"/><polyline class="cls-3" points="349.41 1403.68 352.74 1403.68 349.41 1403.68"/><polyline class="cls-3" points="352.74 1414.45 352.74 1404.56 352.74 1403.68"/><line class="cls-3" x1="349.41" y1="1398.77" x2="349.41" y2="1370.65"/><line class="cls-3" x1="64.62" y1="100.11" x2="0.5" y2="100.11"/><line class="cls-3" x1="17.06" y1="129.02" x2="67.6" y2="129.02"/><line class="cls-3" x1="64.54" y1="99.23" x2="0.5" y2="99.23"/><line class="cls-3" x1="298.51" y1="1370.65" x2="298.51" y2="817.73"/><polyline class="cls-3" points="281.96 834.28 281.96 1370.65 298.51 1370.65"/><polyline class="cls-3" points="124.72 782.95 131.29 782.95 141.27 782.95"/><polyline class="cls-3" points="124.72 700.17 131.29 700.17 141.27 700.17"/><line class="cls-3" x1="141.27" y1="817.73" x2="141.27" y2="782.95"/><line class="cls-3" x1="141.27" y1="700.17" x2="141.27" y2="675.38"/><line class="cls-3" x1="124.72" y1="691.85" x2="124.72" y2="700.17"/><line class="cls-3" x1="124.72" y1="782.95" x2="124.72" y2="817.73"/><path class="cls-3" d="M207.5,807.92a76.17,76.17,0,0,0-76.17-76.17" transform="translate(0 -28.34)"/><polyline class="cls-3" points="124.72 700.17 124.72 703.5 131.29 703.5 131.29 700.17 124.72 700.17"/><polyline class="cls-3" points="131.29 782.95 131.29 779.62 124.72 779.62 124.72 782.95 131.29 782.95"/><line class="cls-3" x1="131.29" y1="779.62" x2="207.41" y2="779.62"/><polyline class="cls-3" points="141.27 700.17 131.29 700.17 124.72 700.17 131.29 700.17"/><polyline class="cls-3" points="141.27 782.95 131.29 782.95 124.72 782.95 131.29 782.95"/><polyline class="cls-3" points="124.72 834.28 124.72 824.3 124.72 817.73"/><line class="cls-3" x1="124.72" y1="834.28" x2="281.96" y2="834.28"/><polyline class="cls-3" points="298.51 817.73 281.96 817.73 141.27 817.73"/><line class="cls-3" x1="124.72" y1="817.73" x2="124.72" y2="817.73"/><line class="cls-3" x1="124.72" y1="817.73" x2="124.72" y2="817.73"/><line class="cls-3" x1="124.72" y1="817.73" x2="124.72" y2="817.73"/><line class="cls-3" x1="124.72" y1="817.73" x2="124.72" y2="817.73"/><polyline class="cls-3" points="124.72 817.73 124.72 817.73 124.72 817.73"/><line class="cls-3" x1="124.72" y1="817.73" x2="124.72" y2="817.73"/><line class="cls-3" x1="124.72" y1="817.73" x2="124.72" y2="817.73"/><polyline class="cls-3" points="124.72 817.73 124.72 817.73 124.72 817.73 124.72 817.73 124.72 817.73"/><line class="cls-3" x1="124.72" y1="817.73" x2="124.72" y2="817.73"/><line class="cls-3" x1="124.72" y1="817.73" x2="124.72" y2="817.73"/><line class="cls-3" x1="124.72" y1="817.73" x2="124.72" y2="817.73"/><line class="cls-3" x1="124.72" y1="817.73" x2="124.72" y2="817.73"/><line class="cls-3" x1="124.72" y1="817.73" x2="124.72" y2="817.73"/><polyline class="cls-3" points="124.72 817.73 124.72 817.73 124.72 817.73 124.72 817.73 124.72 817.73"/><polyline class="cls-3" points="124.72 817.73 124.72 817.73 124.72 824.3 124.72 824.3 124.72 817.73"/><polyline class="cls-3" points="124.72 817.73 124.72 824.3 124.72 817.73"/><line class="cls-3" x1="124.72" y1="834.28" x2="124.72" y2="824.3"/><line class="cls-3" x1="306.75" y1="638.94" x2="306.75" y2="632.28"/><line class="cls-3" x1="381.3" y1="638.94" x2="381.3" y2="632.28"/><line class="cls-3" x1="287.74" y1="638.94" x2="287.74" y2="632.28"/><line class="cls-3" x1="213.28" y1="638.94" x2="213.28" y2="632.28"/><line class="cls-3" x1="300.18" y1="632.28" x2="287.74" y2="632.28"/><line class="cls-3" x1="213.28" y1="632.28" x2="134.61" y2="632.28"/><line class="cls-3" x1="141.27" y1="638.94" x2="213.28" y2="638.94"/><line class="cls-3" x1="287.74" y1="638.94" x2="306.75" y2="638.94"/><line class="cls-3" x1="381.3" y1="638.94" x2="381.3" y2="632.28"/><line class="cls-3" x1="306.75" y1="638.94" x2="306.75" y2="632.28"/><line class="cls-3" x1="213.28" y1="638.94" x2="213.28" y2="632.28"/><line class="cls-3" x1="287.74" y1="638.94" x2="287.74" y2="632.28"/><line class="cls-3" x1="300.18" y1="129.02" x2="300.18" y2="632.28"/><polyline class="cls-3" points="306.75 632.28 306.75 129.02 300.18 129.02"/><line class="cls-3" x1="493.86" y1="638.94" x2="493.86" y2="678.62"/><line class="cls-3" x1="500.43" y1="672.05" x2="500.43" y2="638.94"/><polyline class="cls-3" points="537.75 678.62 537.75 675.38 537.75 672.05"/><polyline class="cls-3" points="504.63 678.62 504.63 675.38 504.63 672.05"/><line class="cls-3" x1="541.87" y1="672.05" x2="537.75" y2="672.05"/><line class="cls-3" x1="504.64" y1="672.05" x2="500.43" y2="672.05"/><polyline class="cls-3" points="493.86 678.62 500.43 678.62 504.63 678.62"/><polyline class="cls-3" points="537.75 678.62 541.87 678.62 541.87 672.05"/><line class="cls-3" x1="504.64" y1="678.62" x2="537.75" y2="678.62"/><line class="cls-3" x1="504.64" y1="672.05" x2="537.75" y2="672.05"/><path class="cls-3" d="M504.72,706.92a33.11,33.11,0,0,0,2,11.31" transform="translate(0 -28.34)"/><line class="cls-3" x1="537.75" y1="678.62" x2="506.56" y2="690.01"/><polyline class="cls-3" points="504.63 672.05 504.63 675.38 504.63 678.62 504.63 675.38"/><polyline class="cls-3" points="537.75 672.05 537.75 675.38 537.75 678.62 537.75 675.38"/><line class="cls-3" x1="541.87" y1="632.28" x2="381.3" y2="632.28"/><line class="cls-3" x1="387.87" y1="638.94" x2="493.86" y2="638.94"/><polyline class="cls-3" points="500.43 638.93 541.87 638.93 541.87 632.28"/><line class="cls-3" x1="541.87" y1="890.52" x2="387.87" y2="890.52"/><line class="cls-3" x1="387.87" y1="897.18" x2="502.09" y2="897.18"/><polyline class="cls-3" points="508.75 897.18 541.87 897.18 541.87 890.52"/><polyline class="cls-3" points="134.62 632.28 134.62 638.93 134.62 675.38 141.27 675.38 141.27 638.93"/><polyline class="cls-3" points="502.1 901.3 505.42 901.3 508.75 901.3"/><polyline class="cls-3" points="502.1 934.41 505.42 934.41 508.75 934.41 508.75 938.53"/><line class="cls-3" x1="508.75" y1="901.3" x2="508.75" y2="897.18"/><line class="cls-3" x1="502.09" y1="897.18" x2="502.09" y2="901.3"/><line class="cls-3" x1="502.09" y1="934.41" x2="502.09" y2="945.18"/><line class="cls-3" x1="502.09" y1="934.41" x2="502.09" y2="901.3"/><line class="cls-3" x1="508.75" y1="934.41" x2="508.75" y2="901.3"/><path class="cls-3" d="M490.83,960.67a33,33,0,0,0,11.31,2" transform="translate(0 -28.34)"/><line class="cls-3" x1="502.09" y1="901.3" x2="490.79" y2="932.39"/><polyline class="cls-3" points="508.75 934.41 505.42 934.41 502.1 934.41 505.42 934.41"/><polyline class="cls-3" points="508.75 901.3 505.42 901.3 502.1 901.3 505.42 901.3"/><line class="cls-3" x1="306.75" y1="1025.42" x2="306.75" y2="1032.08"/><line class="cls-3" x1="381.3" y1="1025.42" x2="381.3" y2="1032.08"/><line class="cls-3" x1="541.87" y1="1025.42" x2="387.87" y2="1025.42"/><polyline class="cls-3" points="306.75 1025.42 298.51 1025.42 298.51 1032.08 306.75 1032.08"/><polyline class="cls-3" points="381.3 1032.08 541.87 1032.08 541.87 1025.42"/><line class="cls-3" x1="381.3" y1="1025.42" x2="381.3" y2="1032.08"/><line class="cls-3" x1="306.75" y1="1025.42" x2="306.75" y2="1032.08"/><line class="cls-3" x1="381.3" y1="795.39" x2="387.87" y2="795.39"/><line class="cls-3" x1="381.3" y1="737.4" x2="387.87" y2="737.4"/><line class="cls-3" x1="381.3" y1="984.08" x2="387.87" y2="984.08"/><line class="cls-3" x1="381.3" y1="926.09" x2="387.87" y2="926.09"/><line class="cls-3" x1="387.87" y1="1025.42" x2="387.87" y2="984.08"/><line class="cls-3" x1="387.87" y1="926.09" x2="387.87" y2="897.18"/><line class="cls-3" x1="387.87" y1="890.52" x2="387.87" y2="795.39"/><line class="cls-3" x1="387.87" y1="737.4" x2="387.87" y2="638.94"/><polyline class="cls-3" points="381.3 632.28 381.3 638.93 381.3 737.4"/><line class="cls-3" x1="381.3" y1="795.39" x2="381.3" y2="926.09"/><line class="cls-3" x1="381.3" y1="984.08" x2="381.3" y2="1025.42"/><line class="cls-3" x1="381.3" y1="737.4" x2="387.87" y2="737.4"/><line class="cls-3" x1="381.3" y1="795.39" x2="387.87" y2="795.39"/><line class="cls-3" x1="381.3" y1="926.09" x2="387.87" y2="926.09"/><line class="cls-3" x1="381.3" y1="984.08" x2="387.87" y2="984.08"/><polyline class="cls-3" points="502.1 945.18 508.75 945.18 541.87 945.18 541.87 938.53 508.75 938.53"/><line class="cls-3" x1="17.06" y1="675.38" x2="17.06" y2="129.02"/><line class="cls-3" x1="0.5" y1="127.53" x2="0.5" y2="665.4"/><polyline class="cls-3" points="0.5 648.83 0.5 691.85 17.06 691.85 124.72 691.85"/><polyline class="cls-3" points="141.27 675.38 124.72 675.38 17.06 675.38"/><polyline class="cls-3" points="0.5 99.23 60.24 99.23 64.53 99.23"/><line class="cls-3" x1="63.4" y1="87.67" x2="0.5" y2="87.67"/><line class="cls-3" x1="64.54" y1="99.23" x2="186.74" y2="74.09"/><line class="cls-3" x1="186.74" y1="62.27" x2="63.4" y2="87.67"/><line class="cls-3" x1="186.74" y1="74.09" x2="304.73" y2="98.36"/><polyline class="cls-3" points="186.74 62.27 190.85 63.14 304.73 86.53"/><polyline class="cls-3" points="304.73 98.36 329.35 93.28 422.64 74.09"/><line class="cls-3" x1="422.64" y1="62.27" x2="304.73" y2="86.53"/><line class="cls-3" x1="422.64" y1="74.09" x2="544.84" y2="99.23"/><polyline class="cls-3" points="422.64 62.27 426.76 63.14 546.07 87.67"/><line class="cls-3" x1="544.84" y1="99.23" x2="555.09" y2="99.23"/><line class="cls-3" x1="543.53" y1="87.67" x2="555.09" y2="87.67"/><line class="cls-3" x1="124.72" y1="790.39" x2="124.72" y2="796.96"/><polyline class="cls-3" points="541.87 112.46 555.09 112.46 555.09 87.67"/><polyline class="cls-3" points="492.2 582.61 492.2 628.16 537.75 628.16 537.75 582.61 492.2 582.61"/><polyline class="cls-3" points="496.31 586.73 496.31 624.04 529.43 624.04 529.43 586.73 496.31 586.73"/><line class="cls-3" x1="527.5" y1="992.84" x2="498.24" y2="992.84"/><polyline class="cls-3" points="529.25 994.15 540.2 994.15 540.2 962.7"/><line class="cls-3" x1="522.33" y1="978.38" x2="522.33" y2="966.73"/><polyline class="cls-3" points="498.33 992.84 522.33 990.03 522.33 978.38"/><line class="cls-3" x1="498.33" y1="963.93" x2="522.33" y2="966.73"/><line class="cls-3" x1="498.33" y1="992.14" x2="522.33" y2="989.33"/><line class="cls-3" x1="498.33" y1="964.63" x2="522.33" y2="967.43"/><line class="cls-3" x1="527.5" y1="963.93" x2="498.24" y2="963.93"/><line class="cls-3" x1="540.2" y1="962.7" x2="529.25" y2="962.7"/><polyline class="cls-3" points="498.33 992.84 495.09 992.49 492.02 991.26 489.31 989.25 487.12 986.62 485.63 983.55 484.84 980.14 484.84 976.63 485.63 973.22 487.12 970.15 489.31 967.52 492.02 965.59 495.09 964.28 498.33 963.93"/><polyline class="cls-3" points="498.33 992.14 495.26 991.7 492.37 990.56 489.83 988.63 487.73 986.18 486.33 983.29 485.54 980.05 485.54 976.72 486.33 973.48 487.73 970.59 489.83 968.13 492.37 966.21 495.26 965.07 498.33 964.63"/><polyline class="cls-3" points="527.41 964.28 526.89 969.97 526.71 975.58 526.71 981.19 526.89 986.88 527.41 992.49"/><path class="cls-3" d="M527.42,1020.81a1.85,1.85,0,0,0,1.87,1.59" transform="translate(0 -28.34)"/><path class="cls-3" d="M529.29,991a1.85,1.85,0,0,0-1.87,1.61" transform="translate(0 -28.34)"/><path class="cls-3" d="M534.86,1006.68a1.54,1.54,0,1,0-1.54,1.53,1.53,1.53,0,0,0,1.54-1.53" transform="translate(0 -28.34)"/><polyline class="cls-3" points="400.3 913.56 400.3 898.84 435.08 898.84 435.08 913.56"/><line class="cls-3" x1="423.17" y1="898.84" x2="412.22" y2="898.84"/><line class="cls-3" x1="420.63" y1="910.67" x2="418.79" y2="910.67"/><line class="cls-3" x1="417.65" y1="907.69" x2="417.65" y2="909.62"/><line class="cls-3" x1="416.6" y1="910.67" x2="414.76" y2="910.67"/><line class="cls-3" x1="417.65" y1="911.72" x2="417.65" y2="913.56"/><path class="cls-3" d="M408.52,935.45a15.57,15.57,0,0,0-6,7.35" transform="translate(0 -28.34)"/><path class="cls-3" d="M417.71,933.28a15.38,15.38,0,0,0-9.22,2.18" transform="translate(0 -28.34)"/><path class="cls-3" d="M433,942.8a15.51,15.51,0,0,0-6-7.35" transform="translate(0 -28.34)"/><path class="cls-3" d="M427,935.46a15.37,15.37,0,0,0-9.21-2.18" transform="translate(0 -28.34)"/><path class="cls-3" d="M406,950.68a28.6,28.6,0,0,0,10.56,2.88" transform="translate(0 -28.34)"/><path class="cls-3" d="M431.79,949.14a8.94,8.94,0,0,0,3.28-7.31" transform="translate(0 -28.34)"/><path class="cls-3" d="M416.48,953.6a19.7,19.7,0,0,0,2.43,0" transform="translate(0 -28.34)"/><path class="cls-3" d="M427.41,936A62.74,62.74,0,0,0,408,936" transform="translate(0 -28.34)"/><path class="cls-3" d="M434.2,944.16a22,22,0,0,0-4.93-14.26" transform="translate(0 -28.34)"/><path class="cls-3" d="M427.66,928.88a43.22,43.22,0,0,0-10-1.08" transform="translate(0 -28.34)"/><path class="cls-3" d="M429.34,929.84a3,3,0,0,0-1.63-1" transform="translate(0 -28.34)"/><path class="cls-3" d="M427.56,929.91a74.74,74.74,0,0,0-9.8-.71" transform="translate(0 -28.34)"/><path class="cls-3" d="M434.2,944.13a19.74,19.74,0,0,0-4.91-13.32" transform="translate(0 -28.34)"/><path class="cls-3" d="M429.35,930.81a2.92,2.92,0,0,0-1.79-1" transform="translate(0 -28.34)"/><path class="cls-3" d="M406.2,930.79a19.8,19.8,0,0,0-4.93,13.31" transform="translate(0 -28.34)"/><path class="cls-3" d="M406.22,929.87a22,22,0,0,0-5,14.26" transform="translate(0 -28.34)"/><path class="cls-3" d="M417.72,929.2a74.69,74.69,0,0,0-9.79.69" transform="translate(0 -28.34)"/><path class="cls-3" d="M417.73,927.8a43.82,43.82,0,0,0-10,1.06" transform="translate(0 -28.34)"/><path class="cls-3" d="M407.92,929.84a3,3,0,0,0-1.8,1" transform="translate(0 -28.34)"/><path class="cls-3" d="M407.76,928.83a2.92,2.92,0,0,0-1.62,1" transform="translate(0 -28.34)"/><path class="cls-3" d="M400.4,941.83a8.92,8.92,0,0,0,3.29,7.31" transform="translate(0 -28.34)"/><path class="cls-3" d="M403.61,949.14a13.06,13.06,0,0,0,2.31,1.5" transform="translate(0 -28.34)"/><path class="cls-3" d="M429.56,950.64a13.44,13.44,0,0,0,2.31-1.5" transform="translate(0 -28.34)"/><path class="cls-3" d="M418.92,953.56a28.55,28.55,0,0,0,10.55-2.88" transform="translate(0 -28.34)"/><path class="cls-3" d="M412.91,951.05a20.33,20.33,0,0,0,9.56,0" transform="translate(0 -28.34)"/><path class="cls-3" d="M402.51,942.81a5.21,5.21,0,0,0,1.79,4.31" transform="translate(0 -28.34)"/><path class="cls-3" d="M404.25,947.16a18.75,18.75,0,0,0,8.68,4" transform="translate(0 -28.34)"/><path class="cls-3" d="M431.17,947.12a5.25,5.25,0,0,0,1.8-4.31" transform="translate(0 -28.34)"/><path class="cls-3" d="M422.55,951.16a18.76,18.76,0,0,0,8.67-4" transform="translate(0 -28.34)"/><path class="cls-3" d="M417.69,936.73a2.24,2.24,0,1,0,2.24,2.24,2.23,2.23,0,0,0-2.24-2.24" transform="translate(0 -28.34)"/><path class="cls-3" d="M417.69,937.35a1.62,1.62,0,1,0,1.62,1.62,1.62,1.62,0,0,0-1.62-1.62" transform="translate(0 -28.34)"/><line class="cls-3" x1="535.47" y1="878.96" x2="535.47" y2="836.74"/><line class="cls-3" x1="530.83" y1="831.74" x2="428.34" y2="831.74"/><line class="cls-3" x1="530.83" y1="883.95" x2="428.34" y2="883.95"/><line class="cls-3" x1="399.52" y1="826.84" x2="540.2" y2="826.84"/><polyline class="cls-3" points="399.52 826.84 399.52 888.86 540.2 888.86 540.2 826.84"/><line class="cls-3" x1="444.8" y1="875.28" x2="525.05" y2="875.28"/><line class="cls-3" x1="527.32" y1="872.83" x2="527.32" y2="842.87"/><line class="cls-3" x1="444.8" y1="840.41" x2="525.05" y2="840.41"/><line class="cls-3" x1="510.85" y1="859.34" x2="510.85" y2="862.4"/><line class="cls-3" x1="512.34" y1="857.85" x2="515.23" y2="857.85"/><line class="cls-3" x1="510.85" y1="856.36" x2="510.85" y2="853.29"/><line class="cls-3" x1="509.45" y1="857.85" x2="506.56" y2="857.85"/><path class="cls-3" d="M428.38,860.08c-13.62,0-24.66,11.67-24.66,26.06s11,26.06,24.66,26.06" transform="translate(0 -28.34)"/><path class="cls-3" d="M535.56,865a4.83,4.83,0,0,0-4.69-4.95" transform="translate(0 -28.34)"/><path class="cls-3" d="M530.87,912.2a4.82,4.82,0,0,0,4.69-4.94" transform="translate(0 -28.34)"/><path class="cls-3" d="M510.9,883.56a2.59,2.59,0,1,0,2.41,2.58,2.5,2.5,0,0,0-2.41-2.58" transform="translate(0 -28.34)"/><path class="cls-3" d="M444.85,868.67c-9.07,0-16.43,7.82-16.43,17.47s7.36,17.48,16.43,17.48" transform="translate(0 -28.34)"/><path class="cls-3" d="M525.09,903.62a2.42,2.42,0,0,0,2.32-2.5" transform="translate(0 -28.34)"/><path class="cls-3" d="M527.41,871.16a2.41,2.41,0,0,0-2.32-2.49" transform="translate(0 -28.34)"/><path class="cls-3" d="M510.9,882.68a3.46,3.46,0,1,0,3.28,3.46,3.38,3.38,0,0,0-3.28-3.46" transform="translate(0 -28.34)"/><polyline class="cls-3" points="521.28 759.74 540.2 759.74 540.2 804.5 521.28 804.5"/><line class="cls-3" x1="540.2" y1="789.17" x2="540.2" y2="775.07"/><line class="cls-3" x1="525.05" y1="785.84" x2="525.05" y2="783.47"/><line class="cls-3" x1="528.81" y1="782.07" x2="526.45" y2="782.07"/><line class="cls-3" x1="525.05" y1="780.76" x2="525.05" y2="778.31"/><line class="cls-3" x1="523.64" y1="782.07" x2="521.28" y2="782.07"/><path class="cls-3" d="M529.57,798.51a19.93,19.93,0,0,0-9.42-7.73" transform="translate(0 -28.34)"/><path class="cls-3" d="M532.43,810.39a20,20,0,0,0-2.79-11.88" transform="translate(0 -28.34)"/><path class="cls-3" d="M520.15,830a19.91,19.91,0,0,0,9.42-7.72" transform="translate(0 -28.34)"/><path class="cls-3" d="M529.64,822.32a20,20,0,0,0,2.79-11.88" transform="translate(0 -28.34)"/><path class="cls-3" d="M510.09,795.25a36.86,36.86,0,0,0-3.69,13.56" transform="translate(0 -28.34)"/><path class="cls-3" d="M512,828.51a11.33,11.33,0,0,0,9.33,4.23" transform="translate(0 -28.34)"/><path class="cls-3" d="M506.35,808.8a23.5,23.5,0,0,0,0,3.14" transform="translate(0 -28.34)"/><path class="cls-3" d="M528.81,822.87a81.3,81.3,0,0,0,0-25" transform="translate(0 -28.34)"/><path class="cls-3" d="M518.39,831.52a28.06,28.06,0,0,0,18.25-6.33" transform="translate(0 -28.34)"/><path class="cls-3" d="M537.94,823.17a55.51,55.51,0,0,0,1.38-12.79" transform="translate(0 -28.34)"/><path class="cls-3" d="M536.64,825.25a3.65,3.65,0,0,0,1.28-2.06" transform="translate(0 -28.34)"/><path class="cls-3" d="M536.66,823a95,95,0,0,0,.91-12.61" transform="translate(0 -28.34)"/><path class="cls-3" d="M518.36,831.61a25.31,25.31,0,0,0,17-6.31" transform="translate(0 -28.34)"/><path class="cls-3" d="M535.44,825.25a3.75,3.75,0,0,0,1.22-2.28" transform="translate(0 -28.34)"/><path class="cls-3" d="M535.43,795.55a25.23,25.23,0,0,0-17-6.33" transform="translate(0 -28.34)"/><path class="cls-3" d="M536.67,795.58a28.06,28.06,0,0,0-18.24-6.36" transform="translate(0 -28.34)"/><path class="cls-3" d="M537.57,810.4a94.72,94.72,0,0,0-.89-12.6" transform="translate(0 -28.34)"/><path class="cls-3" d="M539.32,810.43A56.16,56.16,0,0,0,538,797.64" transform="translate(0 -28.34)"/><path class="cls-3" d="M536.66,797.86a3.7,3.7,0,0,0-1.22-2.28" transform="translate(0 -28.34)"/><path class="cls-3" d="M538,797.64a3.69,3.69,0,0,0-1.27-2.06" transform="translate(0 -28.34)"/><path class="cls-3" d="M521.37,788.09a11.31,11.31,0,0,0-9.33,4.23" transform="translate(0 -28.34)"/><path class="cls-3" d="M511.92,792.24a17.61,17.61,0,0,0-1.92,3" transform="translate(0 -28.34)"/><path class="cls-3" d="M510,825.52a17.61,17.61,0,0,0,1.92,3" transform="translate(0 -28.34)"/><path class="cls-3" d="M506.4,811.93a36.86,36.86,0,0,0,3.69,13.56" transform="translate(0 -28.34)"/><path class="cls-3" d="M509.48,804.22a26.4,26.4,0,0,0,0,12.31" transform="translate(0 -28.34)"/><path class="cls-3" d="M520.21,790.81a6.71,6.71,0,0,0-5.54,2.3" transform="translate(0 -28.34)"/><path class="cls-3" d="M514.66,793.11a24.25,24.25,0,0,0-5.1,11.13" transform="translate(0 -28.34)"/><path class="cls-3" d="M514.67,827.71a6.69,6.69,0,0,0,5.54,2.31" transform="translate(0 -28.34)"/><path class="cls-3" d="M509.56,816.59a24.25,24.25,0,0,0,5.1,11.13" transform="translate(0 -28.34)"/><path class="cls-3" d="M528,810.37a2.93,2.93,0,1,0-2.93,2.93,2.93,2.93,0,0,0,2.93-2.93" transform="translate(0 -28.34)"/><path class="cls-3" d="M527.15,810.37a2.06,2.06,0,1,0-2.06,2.06,2.06,2.06,0,0,0,2.06-2.06" transform="translate(0 -28.34)"/><line class="cls-3" x1="527.5" y1="730.39" x2="498.24" y2="730.39"/><polyline class="cls-3" points="529.25 731.62 540.2 731.62 540.2 700.17"/><line class="cls-3" x1="522.33" y1="715.85" x2="522.33" y2="704.2"/><polyline class="cls-3" points="498.33 730.39 522.33 727.59 522.33 715.85"/><line class="cls-3" x1="498.33" y1="701.39" x2="522.33" y2="704.2"/><line class="cls-3" x1="498.33" y1="729.6" x2="522.33" y2="726.8"/><line class="cls-3" x1="498.33" y1="702.18" x2="522.33" y2="704.99"/><line class="cls-3" x1="527.5" y1="701.39" x2="498.24" y2="701.39"/><line class="cls-3" x1="540.2" y1="700.17" x2="529.25" y2="700.17"/><polyline class="cls-3" points="498.33 730.39 495.09 729.95 492.02 728.73 489.31 726.71 487.12 724.17 485.63 721.02 484.84 717.6 484.84 714.18 485.63 710.77 487.12 707.61 489.31 705.07 492.02 703.06 495.09 701.83 498.33 701.39"/><polyline class="cls-3" points="498.33 729.6 495.26 729.25 492.37 728.02 489.83 726.18 487.73 723.73 486.33 720.75 485.54 717.51 485.54 714.27 486.33 711.03 487.73 708.05 489.83 705.6 492.37 703.76 495.26 702.53 498.33 702.18"/><polyline class="cls-3" points="527.41 701.83 526.89 707.44 526.71 713.04 526.71 718.74 526.89 724.35 527.41 729.95"/><path class="cls-3" d="M527.42,758.27a1.86,1.86,0,0,0,1.87,1.6" transform="translate(0 -28.34)"/><path class="cls-3" d="M529.29,728.51a1.86,1.86,0,0,0-1.87,1.61" transform="translate(0 -28.34)"/><path class="cls-3" d="M534.86,744.14a1.54,1.54,0,1,0-1.54,1.54,1.54,1.54,0,0,0,1.54-1.54" transform="translate(0 -28.34)"/><polyline class="cls-3" points="263.74 87.93 264.18 87.93 264.18 42.38 263.74 42.38 263.74 87.93"/><polyline class="cls-3" points="265.4 40.72 265.4 41.16 341.52 41.16 341.52 40.72 265.4 40.72"/><polyline class="cls-3" points="343.19 42.38 342.75 42.38 342.75 87.93 343.19 87.93 343.19 42.38"/><polyline class="cls-3" points="263.3 89.95 265.4 89.95 265.4 87.93 263.3 87.93 263.3 89.95"/><polyline class="cls-3" points="263.3 42.38 265.4 42.38 265.4 40.37 263.3 40.37 263.3 42.38"/><polyline class="cls-3" points="341.52 40.37 341.52 42.38 343.63 42.38 343.63 40.37 341.52 40.37"/><polyline class="cls-3" points="343.63 87.93 341.52 87.93 341.52 89.95 343.63 89.95 343.63 87.93"/><line class="cls-3" x1="265.4" y1="88.99" x2="265.4" y2="42.38"/><line class="cls-3" x1="263.3" y1="40.37" x2="263.3" y2="88.99"/><line class="cls-3" x1="265.4" y1="42.38" x2="341.53" y2="42.38"/><line class="cls-3" x1="343.63" y1="40.37" x2="263.3" y2="40.37"/><line class="cls-3" x1="341.53" y1="42.38" x2="341.53" y2="88.99"/><line class="cls-3" x1="343.63" y1="88.99" x2="343.63" y2="40.37"/><polyline class="cls-3" points="263.3 88.98 263.3 89.95 265.4 89.95 265.4 88.98"/><polyline class="cls-3" points="341.52 88.98 341.52 89.95 343.63 89.95 343.63 88.98"/><polyline class="cls-3" points="343.63 40.37 263.3 40.37 263.3 88.98 265.4 88.98 265.4 42.38 341.52 42.38 341.52 88.98 343.63 88.98 343.63 40.37"/><polyline class="cls-3" points="339.51 55.26 267.5 55.26 267.5 81.72 339.51 81.72 339.51 55.26"/><polyline class="cls-3" points="339.51 57.89 267.5 57.89 267.5 81.72 339.51 81.72 339.51 57.89"/><polyline class="cls-3" points="555.09 1370.65 555.09 129.02 541.87 129.02 541.87 1370.65 555.09 1370.65"/><polyline class="cls-3" points="541.87 195.24 555.09 195.24 555.09 112.46 541.87 112.46 541.87 195.24"/><polyline class="cls-3" points="199.18 817.73 199.18 834.28 298.51 834.28 298.51 817.73 199.18 817.73"/><polyline class="cls-3" points="298.51 1387.12 281.96 1387.12 281.96 1304.43 298.51 1304.43 298.51 1387.12"/><polyline class="cls-3" points="298.51 1113.99 281.96 1113.99 281.96 1031.21 298.51 1031.21 298.51 1113.99"/><polyline class="cls-3" points="290.19 195.24 306.75 195.24 306.75 112.46 290.19 112.46 290.19 195.24"/><polyline class="cls-3" points="0.5 195.24 17.06 195.24 17.06 112.46 0.5 112.46 0.5 195.24"/><polyline class="cls-3" points="0.5 468.38 17.06 468.38 17.06 385.6 0.5 385.6 0.5 468.38"/><polyline class="cls-3" points="290.19 468.38 306.75 468.38 306.75 385.6 290.19 385.6 290.19 468.38"/><polyline class="cls-3" points="555.09 1387.12 541.87 1387.12 541.87 1304.43 555.09 1304.43 555.09 1387.12"/><line class="cls-4" x1="124.72" y1="777.96" x2="124.72" y2="777.46"/><line class="cls-5" x1="124.72" y1="776.47" x2="124.72" y2="701.17"/><line class="cls-4" x1="124.72" y1="700.67" x2="124.72" y2="700.17"/><line class="cls-4" x1="381.3" y1="812.59" x2="381.3" y2="812.09"/><line class="cls-5" x1="381.3" y1="811.09" x2="381.3" y2="735.79"/><line class="cls-4" x1="381.3" y1="735.29" x2="381.3" y2="734.79"/><line class="cls-4" x1="387.87" y1="812.59" x2="387.87" y2="812.09"/><line class="cls-5" x1="387.87" y1="811.09" x2="387.87" y2="735.79"/><line class="cls-4" x1="387.87" y1="735.29" x2="387.87" y2="734.79"/><line class="cls-4" x1="387.87" y1="1001.51" x2="387.87" y2="1001.01"/><line class="cls-5" x1="387.87" y1="1000.02" x2="387.87" y2="924.72"/><line class="cls-4" x1="387.87" y1="924.22" x2="387.87" y2="923.72"/><line class="cls-4" x1="381.3" y1="1001.51" x2="381.3" y2="1001.01"/><line class="cls-5" x1="381.3" y1="1000.02" x2="381.3" y2="924.72"/><line class="cls-4" x1="381.3" y1="924.22" x2="381.3" y2="923.72"/><line class="cls-4" x1="289.89" y1="638.89" x2="289.39" y2="638.89"/><line class="cls-5" x1="288.39" y1="638.89" x2="213.09" y2="638.89"/><line class="cls-4" x1="212.59" y1="638.89" x2="212.09" y2="638.89"/><line class="cls-4" x1="381.3" y1="1032.08" x2="380.8" y2="1032.08"/><line class="cls-5" x1="379.8" y1="1032.08" x2="304.5" y2="1032.08"/><line class="cls-4" x1="304" y1="1032.08" x2="303.5" y2="1032.08"/><line class="cls-4" x1="381.3" y1="1025.42" x2="380.8" y2="1025.42"/><line class="cls-5" x1="379.8" y1="1025.42" x2="304.5" y2="1025.42"/><line class="cls-4" x1="304" y1="1025.42" x2="303.5" y2="1025.42"/><line class="cls-4" x1="289.89" y1="632.32" x2="289.39" y2="632.32"/><line class="cls-5" x1="288.39" y1="632.32" x2="213.09" y2="632.32"/><line class="cls-4" x1="212.59" y1="632.32" x2="212.09" y2="632.32"/><line class="cls-4" x1="381.26" y1="638.89" x2="380.76" y2="638.89"/><line class="cls-5" x1="379.76" y1="638.89" x2="304.46" y2="638.89"/><line class="cls-4" x1="303.96" y1="638.89" x2="303.46" y2="638.89"/><line class="cls-4" x1="381.26" y1="632.32" x2="380.76" y2="632.32"/><line class="cls-6" x1="379.75" y1="632.32" x2="307.75" y2="632.32"/><line class="cls-4" x1="307.25" y1="632.32" x2="306.75" y2="632.32"/><text class="cls-7" transform="translate(135.09 341.21)">2K</text><text class="cls-8" transform="translate(109.66 391.39)">68.20</text><text class="cls-7" transform="translate(105.03 291.31)">№429</text><polyline class="cls-9" points="96.02 402.2 96.02 253.12 220.34 253.12 220.34 402.2"/><line class="cls-9" x1="96.02" y1="302.91" x2="220.34" y2="302.91"/><line class="cls-9" x1="96.02" y1="402.2" x2="220.34" y2="402.2"/><line class="cls-9" x1="96.02" y1="352.7" x2="220.34" y2="352.7"/><text class="cls-10" transform="translate(411.52 749.84)">5.38</text><text class="cls-10" transform="translate(411.52 979.87)">2.60</text><text class="cls-10" transform="translate(234.84 749.84)">8.77</text><text class="cls-10" transform="translate(383.67 184.26)">17.69</text><text class="cls-10" transform="translate(115.09 184.26)">21.74</text><text class="cls-10" transform="translate(378.76 1345.78)">12.02</text><text class="cls-1" transform="translate(269.66 1459.89)"><tspan class="cls-11">у</tspan><tspan x="5.42" y="0">лица</tspan></text><line class="cls-2" x1="258.9" y1="1461.71" x2="258.9" y2="1452.91"/><polyline class="cls-2" points="255.4 1458.21 258.9 1461.71 262.4 1458.21"/></svg>