<svg id="_105" data-name="105" xmlns="http://www.w3.org/2000/svg" viewBox="0 0 249.32 641.11"><defs><style>.cls-1,.cls-5,.cls-8{fill:none;stroke-linecap:round;stroke-linejoin:round;stroke-width:0.5px;}.cls-1{stroke:#969595;}.cls-2{isolation:isolate;font-size:12px;fill:#969595;}.cls-2,.cls-6,.cls-7{font-family:PTSans-Regular, PT Sans;}.cls-3{letter-spacing:-0.01em;}.cls-4{fill-rule:evenodd;}.cls-5{stroke:#000;}.cls-6{font-size:20px;}.cls-6,.cls-7{fill:#181716;}.cls-7{font-size:24px;}.cls-8{stroke:#181716;}</style></defs><title>7floor_105flat</title><line class="cls-1" x1="106.34" y1="638.55" x2="106.34" y2="629.75"/><polyline class="cls-1" points="102.94 635.25 106.44 638.75 109.94 635.25"/><text class="cls-2" transform="translate(115.82 638.17)"><tspan class="cls-3">у</tspan><tspan x="5.42" y="0">лица</tspan></text><polyline class="cls-4" points="11.08 213.88 33.94 213.88 33.94 218.22 11.08 218.22 11.08 213.88"/><polyline class="cls-4" points="82.63 213.88 106.25 213.88 106.25 218.22 82.63 218.22 82.63 213.88"/><line class="cls-5" x1="33.94" y1="218.22" x2="33.94" y2="213.89"/><line class="cls-5" x1="82.63" y1="218.22" x2="82.63" y2="213.89"/><line class="cls-5" x1="106.25" y1="213.89" x2="82.63" y2="213.89"/><line class="cls-5" x1="33.94" y1="213.89" x2="11.08" y2="213.89"/><line class="cls-5" x1="11.08" y1="218.22" x2="33.94" y2="218.22"/><line class="cls-5" x1="82.63" y1="218.22" x2="106.25" y2="218.22"/><line class="cls-5" x1="106.25" y1="213.89" x2="106.25" y2="218.22"/><path class="cls-5" d="M108.8,291.09a44.34,44.34,0,0,1-44.35,44.35" transform="translate(-28.34 -72.87)"/><polyline class="cls-4" points="82.63 213.88 82.63 218.22 80.46 218.22 80.46 213.88 82.63 213.88"/><polyline class="cls-4" points="33.94 218.22 33.94 213.88 36.11 213.88 36.11 218.22 33.94 218.22"/><line class="cls-5" x1="82.63" y1="213.89" x2="80.46" y2="213.89"/><line class="cls-5" x1="80.46" y1="213.89" x2="80.46" y2="218.22"/><line class="cls-5" x1="80.46" y1="218.22" x2="82.63" y2="218.22"/><line class="cls-5" x1="82.63" y1="218.22" x2="82.63" y2="213.89"/><line class="cls-5" x1="33.94" y1="218.22" x2="36.11" y2="218.22"/><line class="cls-5" x1="36.11" y1="218.22" x2="36.11" y2="213.89"/><line class="cls-5" x1="36.11" y1="213.89" x2="33.94" y2="213.89"/><line class="cls-5" x1="33.94" y1="213.89" x2="33.94" y2="218.22"/><line class="cls-5" x1="36.11" y1="218.22" x2="36.11" y2="262.57"/><line class="cls-5" x1="82.63" y1="218.22" x2="82.63" y2="213.89"/><line class="cls-5" x1="82.63" y1="218.22" x2="82.63" y2="213.89"/><line class="cls-5" x1="33.94" y1="218.22" x2="33.94" y2="213.89"/><line class="cls-5" x1="33.94" y1="218.22" x2="33.94" y2="213.89"/><line class="cls-5" x1="192.26" y1="21.88" x2="192.26" y2="21.88"/><line class="cls-5" x1="114.91" y1="0.25" x2="114.91" y2="1.6"/><polyline class="cls-4" points="0.25 512.99 0.25 512.99 11.08 511.36 11.08 512.99 0.25 512.99"/><polyline class="cls-4" points="0.25 512.99 0.25 512.99 11.08 503.26 11.08 511.36 0.25 512.99"/><line class="cls-5" x1="0.25" y1="512.99" x2="11.08" y2="512.99"/><line class="cls-5" x1="11.08" y1="503.26" x2="0.25" y2="512.99"/><polyline class="cls-4" points="188.49 511.36 188.49 503.26 238.24 503.26 238.24 511.36 188.49 511.36"/><polyline class="cls-4" points="188.49 503.26 188.49 492.43 238.24 492.43 238.24 503.26 188.49 503.26"/><line class="cls-5" x1="238.24" y1="492.43" x2="188.49" y2="492.43"/><line class="cls-5" x1="188.49" y1="511.36" x2="249.07" y2="511.36"/><line class="cls-5" x1="238.24" y1="503.26" x2="238.24" y2="492.43"/><polyline class="cls-4" points="249.07 503.26 249.07 511.36 238.24 511.36 238.24 503.26 249.07 503.26"/><line class="cls-5" x1="249.07" y1="503.26" x2="238.24" y2="503.26"/><line class="cls-5" x1="249.07" y1="443.75" x2="249.07" y2="454.58"/><line class="cls-5" x1="249.07" y1="454.58" x2="249.07" y2="503.26"/><line class="cls-5" x1="0.25" y1="512.99" x2="0.25" y2="512.99"/><polyline class="cls-4" points="11.08 511.36 41.9 511.36 41.9 512.99 11.08 512.99 11.08 511.36"/><polyline class="cls-4" points="179.29 512.99 179.29 511.36 188.49 511.36 188.49 512.99 179.29 512.99"/><polyline class="cls-4" points="11.08 503.26 41.9 503.26 41.9 511.36 11.08 511.36 11.08 503.26"/><polyline class="cls-4" points="179.29 511.36 179.29 503.26 188.49 503.26 188.49 511.36 179.29 511.36"/><polyline class="cls-4" points="11.08 492.43 43.53 492.43 43.53 503.26 11.08 503.26 11.08 492.43"/><polyline class="cls-4" points="177.66 492.43 188.49 492.43 188.49 503.26 177.66 503.26 177.66 492.43"/><polyline class="cls-4" points="179.29 512.99 177.66 512.99 177.66 503.26 179.29 503.26 179.29 512.99"/><polyline class="cls-4" points="41.9 512.99 41.9 503.26 43.53 503.26 43.53 512.99 41.9 512.99"/><polyline class="cls-4" points="41.9 512.99 41.9 503.26 43.53 503.26 43.53 512.99 41.9 512.99"/><line class="cls-5" x1="177.66" y1="511.36" x2="177.66" y2="503.26"/><line class="cls-5" x1="177.66" y1="512.99" x2="177.66" y2="511.36"/><line class="cls-5" x1="179.29" y1="512.99" x2="177.66" y2="512.99"/><line class="cls-5" x1="177.66" y1="500.53" x2="177.66" y2="492.43"/><line class="cls-5" x1="177.66" y1="503.26" x2="177.66" y2="500.53"/><line class="cls-5" x1="11.08" y1="512.99" x2="41.9" y2="512.99"/><line class="cls-5" x1="179.29" y1="512.99" x2="188.49" y2="512.99"/><line class="cls-5" x1="188.49" y1="512.99" x2="188.49" y2="511.36"/><line class="cls-5" x1="188.49" y1="492.43" x2="177.66" y2="492.43"/><line class="cls-5" x1="43.53" y1="492.43" x2="11.08" y2="492.43"/><line class="cls-5" x1="11.08" y1="503.26" x2="11.08" y2="492.43"/><line class="cls-5" x1="89.52" y1="512.99" x2="177.66" y2="512.99"/><line class="cls-5" x1="89.52" y1="492.43" x2="177.66" y2="492.43"/><polyline class="cls-4" points="89.52 500.53 94.92 500.53 94.92 503.26 89.52 503.26 89.52 500.53"/><polyline class="cls-4" points="123.58 503.26 119.78 503.26 119.78 500.53 123.58 500.53 123.58 503.26"/><polyline class="cls-4" points="123.58 500.53 127.37 500.53 127.37 503.26 123.58 503.26 123.58 500.53"/><polyline class="cls-4" points="177.66 503.26 172.26 503.26 172.26 500.53 177.66 500.53 177.66 503.26"/><line class="cls-5" x1="89.52" y1="500.53" x2="94.92" y2="500.53"/><line class="cls-5" x1="94.92" y1="500.53" x2="94.92" y2="503.26"/><line class="cls-5" x1="94.92" y1="503.26" x2="89.52" y2="503.26"/><line class="cls-5" x1="123.58" y1="503.26" x2="119.78" y2="503.26"/><line class="cls-5" x1="119.78" y1="503.26" x2="119.78" y2="500.53"/><line class="cls-5" x1="119.78" y1="500.53" x2="123.58" y2="500.53"/><line class="cls-5" x1="94.92" y1="500.53" x2="119.78" y2="500.53"/><line class="cls-5" x1="119.78" y1="503.26" x2="94.92" y2="503.26"/><line class="cls-5" x1="123.58" y1="500.53" x2="127.37" y2="500.53"/><line class="cls-5" x1="127.37" y1="500.53" x2="127.37" y2="503.26"/><line class="cls-5" x1="127.37" y1="503.26" x2="123.58" y2="503.26"/><line class="cls-5" x1="177.66" y1="503.26" x2="172.26" y2="503.26"/><line class="cls-5" x1="172.26" y1="503.26" x2="172.26" y2="500.53"/><line class="cls-5" x1="172.26" y1="500.53" x2="177.66" y2="500.53"/><line class="cls-5" x1="127.37" y1="500.53" x2="172.26" y2="500.53"/><line class="cls-5" x1="172.26" y1="503.26" x2="127.37" y2="503.26"/><line class="cls-5" x1="177.66" y1="503.26" x2="177.66" y2="500.53"/><line class="cls-5" x1="177.66" y1="503.26" x2="177.66" y2="500.53"/><line class="cls-5" x1="177.66" y1="500.53" x2="177.66" y2="492.43"/><line class="cls-5" x1="177.66" y1="512.99" x2="177.66" y2="511.36"/><line class="cls-5" x1="177.66" y1="511.36" x2="177.66" y2="503.26"/><line class="cls-5" x1="89.52" y1="512.94" x2="43.53" y2="512.94"/><line class="cls-5" x1="43.53" y1="492.36" x2="89.52" y2="492.36"/><path class="cls-5" d="M74,531.78a41.64,41.64,0,0,1,41.65,41.63h0" transform="translate(-28.34 -72.87)"/><polyline class="cls-4" points="89.52 503.26 87.35 503.26 87.35 500.53 89.52 500.53 89.52 503.26"/><polyline class="cls-4" points="43.53 500.53 45.7 500.53 45.7 503.26 43.53 503.26 43.53 500.53"/><line class="cls-5" x1="89.52" y1="503.26" x2="87.35" y2="503.26"/><line class="cls-5" x1="87.35" y1="503.26" x2="87.35" y2="500.53"/><line class="cls-5" x1="87.35" y1="500.53" x2="89.52" y2="500.53"/><line class="cls-5" x1="43.53" y1="500.53" x2="45.7" y2="500.53"/><line class="cls-5" x1="45.7" y1="500.53" x2="45.7" y2="503.26"/><line class="cls-5" x1="45.7" y1="503.26" x2="43.53" y2="503.26"/><line class="cls-5" x1="43.53" y1="503.26" x2="43.53" y2="500.53"/><line class="cls-5" x1="45.7" y1="500.53" x2="45.7" y2="458.91"/><line class="cls-5" x1="43.53" y1="503.26" x2="43.53" y2="500.53"/><line class="cls-5" x1="43.53" y1="503.26" x2="43.53" y2="500.53"/><line class="cls-5" x1="43.53" y1="500.53" x2="43.53" y2="492.43"/><line class="cls-5" x1="43.53" y1="500.53" x2="43.53" y2="492.43"/><line class="cls-5" x1="43.53" y1="512.99" x2="43.53" y2="511.36"/><line class="cls-5" x1="43.53" y1="512.99" x2="43.53" y2="511.36"/><line class="cls-5" x1="43.53" y1="511.36" x2="43.53" y2="503.26"/><line class="cls-5" x1="43.53" y1="511.36" x2="43.53" y2="503.26"/><line class="cls-5" x1="89.52" y1="512.94" x2="43.53" y2="512.94"/><line class="cls-5" x1="43.53" y1="492.36" x2="89.52" y2="492.36"/><path class="cls-5" d="M74,531.78a41.64,41.64,0,0,1,41.65,41.63h0" transform="translate(-28.34 -72.87)"/><polyline class="cls-4" points="89.52 503.26 87.35 503.26 87.35 500.53 89.52 500.53 89.52 503.26"/><polyline class="cls-4" points="43.53 500.53 45.7 500.53 45.7 503.26 43.53 503.26 43.53 500.53"/><line class="cls-5" x1="89.52" y1="503.26" x2="87.35" y2="503.26"/><line class="cls-5" x1="87.35" y1="503.26" x2="87.35" y2="500.53"/><line class="cls-5" x1="87.35" y1="500.53" x2="89.52" y2="500.53"/><line class="cls-5" x1="43.53" y1="500.53" x2="45.7" y2="500.53"/><line class="cls-5" x1="45.7" y1="500.53" x2="45.7" y2="503.26"/><line class="cls-5" x1="45.7" y1="503.26" x2="43.53" y2="503.26"/><line class="cls-5" x1="43.53" y1="503.26" x2="43.53" y2="500.53"/><line class="cls-5" x1="45.7" y1="500.53" x2="45.7" y2="458.91"/><line class="cls-5" x1="43.53" y1="503.26" x2="43.53" y2="500.53"/><line class="cls-5" x1="43.53" y1="503.26" x2="43.53" y2="500.53"/><line class="cls-5" x1="43.53" y1="500.53" x2="43.53" y2="492.43"/><line class="cls-5" x1="43.53" y1="500.53" x2="43.53" y2="492.43"/><line class="cls-5" x1="43.53" y1="512.99" x2="43.53" y2="511.36"/><line class="cls-5" x1="43.53" y1="512.99" x2="43.53" y2="511.36"/><line class="cls-5" x1="43.53" y1="511.36" x2="43.53" y2="503.26"/><line class="cls-5" x1="43.53" y1="511.36" x2="43.53" y2="503.26"/><polyline class="cls-4" points="8.91 564.38 8.91 570.85 2.42 570.85 2.42 570.85 8.91 564.38"/><polyline class="cls-4" points="21.91 564.38 21.91 570.85 8.91 570.85 8.91 564.38 21.91 564.38"/><line class="cls-5" x1="2.42" y1="570.85" x2="8.91" y2="570.85"/><line class="cls-5" x1="21.91" y1="564.38" x2="8.91" y2="564.38"/><line class="cls-5" x1="194.99" y1="570.85" x2="21.91" y2="570.85"/><line class="cls-5" x1="188.49" y1="564.38" x2="21.91" y2="564.38"/><polyline class="cls-4" points="192.26 568.15 192.26 570.85 189.02 570.85 189.02 568.15 192.26 568.15"/><polyline class="cls-4" points="134.94 570.85 134.94 568.15 136.57 568.15 136.57 570.85 134.94 570.85"/><polyline class="cls-4" points="134.94 568.15 134.94 570.85 133.31 570.85 133.31 568.15 134.94 568.15"/><polyline class="cls-4" points="79.22 570.85 79.22 568.15 80.86 568.15 80.86 570.85 79.22 570.85"/><polyline class="cls-4" points="79.22 568.15 79.22 570.85 77.59 570.85 77.59 568.15 79.22 568.15"/><polyline class="cls-4" points="21.91 570.85 21.91 568.15 25.14 568.15 25.14 570.85 21.91 570.85"/><line class="cls-5" x1="192.26" y1="568.15" x2="189.02" y2="568.15"/><line class="cls-5" x1="189.02" y1="568.15" x2="189.02" y2="570.85"/><line class="cls-5" x1="189.02" y1="570.85" x2="192.26" y2="570.85"/><line class="cls-5" x1="134.94" y1="570.85" x2="136.57" y2="570.85"/><line class="cls-5" x1="136.57" y1="570.85" x2="136.57" y2="568.15"/><line class="cls-5" x1="136.57" y1="568.15" x2="134.94" y2="568.15"/><line class="cls-5" x1="189.02" y1="568.15" x2="136.57" y2="568.15"/><line class="cls-5" x1="136.57" y1="570.85" x2="189.02" y2="570.85"/><line class="cls-5" x1="134.94" y1="568.15" x2="133.31" y2="568.15"/><line class="cls-5" x1="133.31" y1="568.15" x2="133.31" y2="570.85"/><line class="cls-5" x1="133.31" y1="570.85" x2="134.94" y2="570.85"/><line class="cls-5" x1="79.22" y1="570.85" x2="80.86" y2="570.85"/><line class="cls-5" x1="80.86" y1="570.85" x2="80.86" y2="568.15"/><line class="cls-5" x1="80.86" y1="568.15" x2="79.22" y2="568.15"/><line class="cls-5" x1="133.31" y1="568.15" x2="80.86" y2="568.15"/><line class="cls-5" x1="80.86" y1="570.85" x2="133.31" y2="570.85"/><line class="cls-5" x1="79.22" y1="568.15" x2="77.59" y2="568.15"/><line class="cls-5" x1="77.59" y1="568.15" x2="77.59" y2="570.85"/><line class="cls-5" x1="77.59" y1="570.85" x2="79.22" y2="570.85"/><line class="cls-5" x1="21.91" y1="570.85" x2="25.14" y2="570.85"/><line class="cls-5" x1="25.14" y1="570.85" x2="25.14" y2="568.15"/><line class="cls-5" x1="25.14" y1="568.15" x2="21.91" y2="568.15"/><line class="cls-5" x1="77.59" y1="568.15" x2="25.14" y2="568.15"/><line class="cls-5" x1="25.14" y1="570.85" x2="77.59" y2="570.85"/><polyline class="cls-4" points="192.26 568.15 196.05 571.94 192.26 571.94 192.26 568.15"/><line class="cls-5" x1="192.26" y1="568.15" x2="192.26" y2="571.94"/><line class="cls-5" x1="192.26" y1="571.94" x2="196.05" y2="571.94"/><line class="cls-5" x1="194.99" y1="570.85" x2="21.91" y2="570.85"/><line class="cls-5" x1="188.49" y1="564.38" x2="21.91" y2="564.38"/><polyline class="cls-4" points="192.26 568.15 192.26 570.85 189.02 570.85 189.02 568.15 192.26 568.15"/><polyline class="cls-4" points="136.37 570.85 136.37 568.15 138 568.15 138 570.85 136.37 570.85"/><polyline class="cls-4" points="136.37 568.15 136.37 570.85 132.6 570.85 132.6 568.15 136.37 568.15"/><polyline class="cls-4" points="77.79 570.85 77.79 568.15 81.59 568.15 81.59 570.85 77.79 570.85"/><polyline class="cls-4" points="77.79 568.15 77.79 570.85 76.16 570.85 76.16 568.15 77.79 568.15"/><polyline class="cls-4" points="21.91 570.85 21.91 568.15 25.14 568.15 25.14 570.85 21.91 570.85"/><line class="cls-5" x1="192.26" y1="568.15" x2="189.02" y2="568.15"/><line class="cls-5" x1="189.02" y1="568.15" x2="189.02" y2="570.85"/><line class="cls-5" x1="189.02" y1="570.85" x2="192.26" y2="570.85"/><line class="cls-5" x1="136.37" y1="570.85" x2="138" y2="570.85"/><line class="cls-5" x1="138" y1="570.85" x2="138" y2="568.15"/><line class="cls-5" x1="138" y1="568.15" x2="136.37" y2="568.15"/><line class="cls-5" x1="189.02" y1="568.15" x2="138" y2="568.15"/><line class="cls-5" x1="138" y1="570.85" x2="189.02" y2="570.85"/><line class="cls-5" x1="136.37" y1="568.15" x2="132.6" y2="568.15"/><line class="cls-5" x1="132.6" y1="568.15" x2="132.6" y2="570.85"/><line class="cls-5" x1="132.6" y1="570.85" x2="136.37" y2="570.85"/><line class="cls-5" x1="77.79" y1="570.85" x2="81.59" y2="570.85"/><line class="cls-5" x1="81.59" y1="570.85" x2="81.59" y2="568.15"/><line class="cls-5" x1="81.59" y1="568.15" x2="77.79" y2="568.15"/><line class="cls-5" x1="132.6" y1="568.15" x2="81.59" y2="568.15"/><line class="cls-5" x1="81.59" y1="570.85" x2="132.6" y2="570.85"/><line class="cls-5" x1="77.79" y1="568.15" x2="76.16" y2="568.15"/><line class="cls-5" x1="76.16" y1="568.15" x2="76.16" y2="570.85"/><line class="cls-5" x1="76.16" y1="570.85" x2="77.79" y2="570.85"/><line class="cls-5" x1="6.04" y1="570.85" x2="25.14" y2="570.85"/><line class="cls-5" x1="25.14" y1="570.85" x2="25.14" y2="568.15"/><line class="cls-5" x1="25.14" y1="568.15" x2="21.91" y2="568.15"/><line class="cls-5" x1="76.16" y1="568.15" x2="25.14" y2="568.15"/><line class="cls-5" x1="25.14" y1="570.85" x2="76.16" y2="570.85"/><polyline class="cls-4" points="192.26 568.15 196.05 571.94 192.26 571.94 192.26 568.15"/><line class="cls-5" x1="192.26" y1="568.15" x2="192.26" y2="571.94"/><line class="cls-5" x1="192.26" y1="571.94" x2="196.05" y2="571.94"/><line class="cls-5" x1="203.09" y1="174.4" x2="203.09" y2="142.5"/><line class="cls-5" x1="203.09" y1="138.17" x2="203.09" y2="21.88"/><line class="cls-5" x1="108.42" y1="213.89" x2="192.26" y2="213.89"/><line class="cls-5" x1="192.26" y1="213.89" x2="192.26" y2="32.71"/><line class="cls-5" x1="192.26" y1="32.71" x2="108.42" y2="32.71"/><line class="cls-5" x1="108.42" y1="32.71" x2="108.42" y2="213.89"/><polyline class="cls-4" points="0.25 0.25 11.08 0.25 11.08 59.73 0.25 59.73 0.25 0.25"/><line class="cls-5" x1="0.25" y1="0.25" x2="0.25" y2="59.73"/><line class="cls-5" x1="11.08" y1="59.73" x2="0.25" y2="59.73"/><line class="cls-5" x1="11.08" y1="59.73" x2="11.08" y2="0.25"/><line class="cls-5" x1="11.08" y1="0.25" x2="0.25" y2="0.25"/><polyline class="cls-4" points="11.08 292.33 0.25 292.33 0.25 232.81 11.08 232.81 11.08 292.33"/><line class="cls-5" x1="11.08" y1="292.33" x2="11.08" y2="232.81"/><line class="cls-5" x1="11.08" y1="232.81" x2="0.25" y2="232.81"/><line class="cls-5" x1="0.25" y1="232.81" x2="0.25" y2="292.33"/><line class="cls-5" x1="11.08" y1="292.33" x2="0.25" y2="292.33"/><polyline class="cls-4" points="249.07 292.33 238.24 292.33 238.24 228.48 249.07 228.48 249.07 292.33"/><line class="cls-5" x1="249.07" y1="292.33" x2="249.07" y2="228.48"/><line class="cls-5" x1="249.07" y1="228.48" x2="238.24" y2="228.48"/><line class="cls-5" x1="238.24" y1="228.48" x2="238.24" y2="292.33"/><line class="cls-5" x1="249.07" y1="292.33" x2="238.24" y2="292.33"/><polyline class="cls-4" points="238.24 443.75 249.07 443.75 249.07 503.26 238.24 503.26 238.24 443.75"/><line class="cls-5" x1="238.24" y1="443.75" x2="238.24" y2="503.26"/><line class="cls-5" x1="249.07" y1="503.26" x2="238.24" y2="503.26"/><line class="cls-5" x1="249.07" y1="503.26" x2="249.07" y2="443.75"/><line class="cls-5" x1="249.07" y1="443.75" x2="238.24" y2="443.75"/><polyline class="cls-4" points="0.25 443.75 11.08 443.75 11.08 503.26 0.25 512.99 0.25 443.75"/><line class="cls-5" x1="0.25" y1="443.75" x2="0.25" y2="512.99"/><line class="cls-5" x1="11.08" y1="503.26" x2="0.25" y2="512.99"/><line class="cls-5" x1="11.08" y1="503.26" x2="11.08" y2="443.75"/><line class="cls-5" x1="11.08" y1="443.75" x2="0.25" y2="443.75"/><line class="cls-5" x1="203.09" y1="207.39" x2="203.09" y2="211.72"/><line class="cls-5" x1="203.09" y1="138.17" x2="203.09" y2="142.5"/><line class="cls-5" x1="203.09" y1="174.54" x2="203.09" y2="175.89"/><polyline class="cls-4" points="0.25 59.73 11.08 59.73 11.08 232.81 0.25 232.81 0.25 59.73"/><line class="cls-5" x1="0.25" y1="59.73" x2="0.25" y2="213.89"/><line class="cls-5" x1="0.25" y1="209.22" x2="0.25" y2="232.81"/><line class="cls-5" x1="0.25" y1="232.81" x2="11.08" y2="232.81"/><line class="cls-5" x1="11.08" y1="232.81" x2="11.08" y2="218.22"/><line class="cls-5" x1="11.08" y1="213.89" x2="11.08" y2="59.73"/><line class="cls-5" x1="0.25" y1="59.73" x2="11.08" y2="59.73"/><polyline class="cls-4" points="11.08 11.08 11.08 0.25 45.14 0.25 45.14 11.08 11.08 11.08"/><polyline class="cls-4" points="101.95 11.08 101.95 0.25 114.91 0.25 104.09 11.08 101.95 11.08"/><line class="cls-5" x1="101.95" y1="11.08" x2="101.95" y2="0.25"/><line class="cls-5" x1="45.14" y1="11.08" x2="45.14" y2="0.25"/><line class="cls-5" x1="11.08" y1="11.08" x2="45.14" y2="11.08"/><line class="cls-5" x1="101.95" y1="11.08" x2="104.09" y2="11.08"/><line class="cls-5" x1="114.91" y1="0.25" x2="101.95" y2="0.25"/><line class="cls-5" x1="45.14" y1="0.25" x2="11.08" y2="0.25"/><line class="cls-5" x1="11.08" y1="0.25" x2="11.08" y2="11.08"/><path class="cls-5" d="M128.12,136.4A52.46,52.46,0,0,1,75.64,84" transform="translate(-28.34 -72.87)"/><polyline class="cls-4" points="45.14 0.25 47.3 0.25 47.3 11.08 45.14 11.08 45.14 0.25"/><polyline class="cls-4" points="101.95 11.08 99.78 11.08 99.78 0.25 101.95 0.25 101.95 11.08"/><line class="cls-5" x1="45.14" y1="0.25" x2="47.3" y2="0.25"/><line class="cls-5" x1="47.3" y1="0.25" x2="47.3" y2="11.08"/><line class="cls-5" x1="47.3" y1="11.08" x2="45.14" y2="11.08"/><line class="cls-5" x1="45.14" y1="11.08" x2="45.14" y2="0.25"/><line class="cls-5" x1="101.95" y1="11.08" x2="99.78" y2="11.08"/><line class="cls-5" x1="99.78" y1="11.08" x2="99.78" y2="0.25"/><line class="cls-5" x1="99.78" y1="0.25" x2="101.95" y2="0.25"/><line class="cls-5" x1="101.95" y1="0.25" x2="101.95" y2="11.08"/><line class="cls-5" x1="99.78" y1="11.08" x2="99.78" y2="63.53"/><line class="cls-5" x1="45.14" y1="11.08" x2="45.14" y2="0.25"/><line class="cls-5" x1="45.14" y1="11.08" x2="45.14" y2="0.25"/><line class="cls-5" x1="101.95" y1="11.08" x2="101.95" y2="0.25"/><line class="cls-5" x1="101.95" y1="11.08" x2="101.95" y2="0.25"/><polyline class="cls-4" points="104.09 11.08 114.91 0.25 114.91 21.88 104.09 32.71 104.09 11.08"/><line class="cls-5" x1="104.09" y1="11.08" x2="104.09" y2="32.71"/><line class="cls-5" x1="114.91" y1="21.88" x2="114.91" y2="0.25"/><polyline class="cls-4" points="104.09 32.71 114.91 21.88 192.26 21.88 203.09 32.71 104.09 32.71"/><line class="cls-5" x1="104.09" y1="32.71" x2="192.26" y2="32.71"/><line class="cls-5" x1="203.09" y1="21.88" x2="114.91" y2="21.88"/><polyline class="cls-4" points="192.26 32.71 203.09 32.71 203.09 228.48 192.26 239.31 192.26 32.71"/><line class="cls-5" x1="192.26" y1="32.71" x2="192.26" y2="213.89"/><line class="cls-5" x1="192.26" y1="218.22" x2="192.26" y2="234.98"/><line class="cls-5" x1="203.09" y1="228.48" x2="203.09" y2="32.71"/><polyline class="cls-4" points="192.26 239.31 203.09 228.48 238.24 228.48 238.24 239.31 192.26 239.31"/><line class="cls-5" x1="192.26" y1="239.31" x2="238.24" y2="239.31"/><line class="cls-5" x1="238.24" y1="228.48" x2="238.24" y2="239.31"/><line class="cls-5" x1="238.24" y1="228.48" x2="203.09" y2="228.48"/><polyline class="cls-4" points="203.09 32.71 192.26 21.88 192.26 21.88 203.09 21.88 203.09 32.71"/><line class="cls-5" x1="203.09" y1="32.71" x2="203.09" y2="21.88"/><line class="cls-5" x1="192.26" y1="21.88" x2="192.26" y2="21.88"/><polyline class="cls-4" points="238.24 292.33 249.07 292.33 249.07 454.58 238.24 454.58 238.24 292.33"/><line class="cls-5" x1="238.24" y1="292.33" x2="238.24" y2="454.58"/><line class="cls-5" x1="249.07" y1="454.58" x2="238.24" y2="454.58"/><line class="cls-5" x1="249.07" y1="454.58" x2="249.07" y2="292.33"/><line class="cls-5" x1="249.07" y1="292.33" x2="238.24" y2="292.33"/><polyline class="cls-4" points="0.25 292.33 11.08 292.33 11.08 443.75 0.25 443.75 0.25 292.33"/><line class="cls-5" x1="0.25" y1="292.33" x2="0.25" y2="443.75"/><line class="cls-5" x1="0.25" y1="443.75" x2="11.08" y2="443.75"/><line class="cls-5" x1="11.08" y1="443.75" x2="11.08" y2="292.33"/><line class="cls-5" x1="0.25" y1="292.33" x2="11.08" y2="292.33"/><line class="cls-5" x1="238.24" y1="228.48" x2="238.24" y2="228.48"/><polyline class="cls-4" points="192.26 234.98 192.26 239.31 120.31 239.31 124.64 234.98 192.26 234.98"/><line class="cls-5" x1="192.26" y1="234.98" x2="124.65" y2="234.98"/><line class="cls-5" x1="120.31" y1="239.31" x2="192.26" y2="239.31"/><polyline class="cls-4" points="104.11 167.93 104.11 32.71 108.42 32.71 108.42 167.93 104.11 167.93"/><polyline class="cls-4" points="104.11 218.22 104.11 205.79 108.42 205.79 108.42 213.88 104.11 218.22"/><line class="cls-5" x1="104.11" y1="205.79" x2="108.42" y2="205.79"/><line class="cls-5" x1="104.11" y1="167.93" x2="108.42" y2="167.93"/><line class="cls-5" x1="108.42" y1="213.89" x2="108.42" y2="205.79"/><line class="cls-5" x1="108.42" y1="167.93" x2="108.42" y2="32.71"/><line class="cls-5" x1="104.11" y1="32.71" x2="108.42" y2="32.71"/><line class="cls-5" x1="104.11" y1="32.71" x2="104.11" y2="167.93"/><line class="cls-5" x1="104.11" y1="205.79" x2="104.11" y2="218.22"/><line class="cls-5" x1="108.42" y1="203.62" x2="108.42" y2="170.07"/><line class="cls-5" x1="104.11" y1="170.07" x2="104.11" y2="203.62"/><path class="cls-5" d="M98.9,276.49a33.55,33.55,0,0,1,33.55-33.55" transform="translate(-28.34 -72.87)"/><polyline class="cls-4" points="108.42 167.93 108.42 170.07 104.11 170.07 104.11 167.93 108.42 167.93"/><polyline class="cls-4" points="104.11 205.79 104.11 203.62 108.42 203.62 108.42 205.79 104.11 205.79"/><line class="cls-5" x1="108.42" y1="167.93" x2="108.42" y2="170.07"/><line class="cls-5" x1="108.42" y1="170.07" x2="104.11" y2="170.07"/><line class="cls-5" x1="104.11" y1="170.07" x2="104.11" y2="167.93"/><line class="cls-5" x1="104.11" y1="167.93" x2="108.42" y2="167.93"/><line class="cls-5" x1="104.11" y1="205.79" x2="104.11" y2="203.62"/><line class="cls-5" x1="104.11" y1="203.62" x2="108.42" y2="203.62"/><line class="cls-5" x1="108.42" y1="203.62" x2="108.42" y2="205.79"/><line class="cls-5" x1="108.42" y1="205.79" x2="104.11" y2="205.79"/><line class="cls-5" x1="104.11" y1="203.62" x2="70.56" y2="203.62"/><line class="cls-5" x1="104.11" y1="167.93" x2="108.42" y2="167.93"/><line class="cls-5" x1="104.11" y1="167.93" x2="108.42" y2="167.93"/><line class="cls-5" x1="104.11" y1="205.79" x2="108.42" y2="205.79"/><line class="cls-5" x1="104.11" y1="205.79" x2="108.42" y2="205.79"/><polyline class="cls-4" points="104.11 218.22 108.42 213.88 192.26 213.88 192.26 218.22 104.11 218.22"/><line class="cls-5" x1="104.11" y1="218.22" x2="120.31" y2="218.22"/><line class="cls-5" x1="124.65" y1="218.22" x2="192.26" y2="218.22"/><line class="cls-5" x1="192.26" y1="213.89" x2="108.42" y2="213.89"/><polyline class="cls-4" points="178.62 213.88 177.27 213.88 177.27 181.04 178.62 182.39 178.62 213.88"/><line class="cls-5" x1="178.62" y1="213.89" x2="178.62" y2="182.39"/><line class="cls-5" x1="177.27" y1="181.04" x2="177.27" y2="213.89"/><line class="cls-5" x1="177.27" y1="213.89" x2="178.62" y2="213.89"/><polyline class="cls-4" points="124.64 234.98 120.31 239.31 120.31 218.22 124.64 218.22 124.64 234.98"/><line class="cls-5" x1="124.65" y1="234.98" x2="124.65" y2="218.22"/><line class="cls-5" x1="120.31" y1="218.22" x2="120.31" y2="239.31"/><polyline class="cls-4" points="178.62 182.39 177.27 181.04 192.26 181.04 192.26 182.39 178.62 182.39"/><line class="cls-5" x1="178.62" y1="182.39" x2="192.26" y2="182.39"/><line class="cls-5" x1="192.26" y1="181.04" x2="192.26" y2="182.39"/><line class="cls-5" x1="192.26" y1="181.04" x2="177.27" y2="181.04"/><polyline class="cls-4" points="184.41 206.32 185.37 206.71 185.76 207.67 185.37 208.63 184.41 209.02 183.46 208.63 183.06 207.67 183.46 206.71 184.41 206.32"/><line class="cls-5" x1="184.41" y1="206.32" x2="185.37" y2="206.71"/><line class="cls-5" x1="185.37" y1="206.71" x2="185.76" y2="207.67"/><line class="cls-5" x1="185.76" y1="207.67" x2="185.37" y2="208.63"/><line class="cls-5" x1="185.37" y1="208.63" x2="184.41" y2="209.02"/><line class="cls-5" x1="184.41" y1="209.02" x2="183.45" y2="208.63"/><line class="cls-5" x1="183.45" y1="208.63" x2="183.06" y2="207.67"/><line class="cls-5" x1="183.06" y1="207.67" x2="183.45" y2="206.71"/><line class="cls-5" x1="183.45" y1="206.71" x2="184.41" y2="206.32"/><polyline class="cls-4" points="184.41 200.92 185.37 201.31 185.76 202.27 185.37 203.23 184.41 203.62 183.46 203.23 183.06 202.27 183.46 201.31 184.41 200.92"/><line class="cls-5" x1="184.41" y1="200.92" x2="185.37" y2="201.31"/><line class="cls-5" x1="185.37" y1="201.31" x2="185.76" y2="202.27"/><line class="cls-5" x1="185.76" y1="202.27" x2="185.37" y2="203.23"/><line class="cls-5" x1="185.37" y1="203.23" x2="184.41" y2="203.62"/><line class="cls-5" x1="184.41" y1="203.62" x2="183.45" y2="203.23"/><line class="cls-5" x1="183.45" y1="203.23" x2="183.06" y2="202.27"/><line class="cls-5" x1="183.06" y1="202.27" x2="183.45" y2="201.31"/><line class="cls-5" x1="183.45" y1="201.31" x2="184.41" y2="200.92"/><path class="cls-4" d="M210.16,261.62l.76,1.82,1.83.76,1.86-.76.76-1.82-.76-1.83-1.86-.76-1.83.76-.76,1.83m-.11,0,.79-1.92,1.91-.78,1.91.78.79,1.92-.79,1.91-1.91.79-1.91-.79-.79-1.91" transform="translate(-28.34 -72.87)"/><polyline class="cls-4" points="181.82 188.74 182.58 186.91 184.41 186.16 186.27 186.91 187.03 188.74 186.27 190.57 184.41 191.33 182.58 190.57 181.82 188.74"/><line class="cls-5" x1="181.71" y1="188.74" x2="182.5" y2="190.65"/><line class="cls-5" x1="182.5" y1="190.65" x2="184.41" y2="191.44"/><line class="cls-5" x1="184.41" y1="191.44" x2="186.32" y2="190.65"/><line class="cls-5" x1="186.32" y1="190.65" x2="187.11" y2="188.74"/><line class="cls-5" x1="187.11" y1="188.74" x2="186.32" y2="186.83"/><line class="cls-5" x1="186.32" y1="186.83" x2="184.41" y2="186.04"/><line class="cls-5" x1="184.41" y1="186.04" x2="182.5" y2="186.83"/><line class="cls-5" x1="182.5" y1="186.83" x2="181.71" y2="188.74"/><line class="cls-5" x1="170.63" y1="219.85" x2="170.63" y2="233.35"/><line class="cls-5" x1="170.63" y1="233.35" x2="138.17" y2="233.35"/><line class="cls-5" x1="138.17" y1="233.35" x2="138.17" y2="219.85"/><line class="cls-5" x1="138.17" y1="219.85" x2="170.63" y2="219.85"/><polyline class="cls-4" points="183.06 196.84 183.46 195.89 184.41 195.49 185.37 195.89 185.76 196.84 185.37 197.8 184.41 198.19 183.46 197.8 183.06 196.84"/><line class="cls-5" x1="183.06" y1="196.84" x2="183.45" y2="195.89"/><line class="cls-5" x1="183.45" y1="195.89" x2="184.41" y2="195.49"/><line class="cls-5" x1="184.41" y1="195.49" x2="185.37" y2="195.89"/><line class="cls-5" x1="185.37" y1="195.89" x2="185.76" y2="196.84"/><line class="cls-5" x1="185.76" y1="196.84" x2="185.37" y2="197.8"/><line class="cls-5" x1="185.37" y1="197.8" x2="184.41" y2="198.19"/><line class="cls-5" x1="184.41" y1="198.19" x2="183.45" y2="197.8"/><line class="cls-5" x1="183.45" y1="197.8" x2="183.06" y2="196.84"/><line class="cls-5" x1="157.1" y1="271.77" x2="124.67" y2="271.77"/><line class="cls-5" x1="124.67" y1="271.77" x2="124.67" y2="239.31"/><line class="cls-5" x1="124.67" y1="239.31" x2="157.1" y2="239.31"/><line class="cls-5" x1="157.1" y1="239.31" x2="157.1" y2="271.77"/><line class="cls-5" x1="156.57" y1="268.79" x2="125.21" y2="268.79"/><line class="cls-5" x1="125.21" y1="268.79" x2="125.21" y2="242.29"/><line class="cls-5" x1="125.21" y1="242.29" x2="156.57" y2="242.29"/><line class="cls-5" x1="156.57" y1="242.29" x2="156.57" y2="268.79"/><path class="cls-5" d="M181.79,321.13a3.93,3.93,0,1,0-7.85,0,3.93,3.93,0,0,0,7.85,0" transform="translate(-28.34 -72.87)"/><path class="cls-5" d="M181.76,333.7a5.68,5.68,0,1,0-5.68,5.68,5.7,5.7,0,0,0,5.68-5.68" transform="translate(-28.34 -72.87)"/><path class="cls-5" d="M166.26,322.17A4.87,4.87,0,1,0,161.4,327a4.88,4.88,0,0,0,4.86-4.86" transform="translate(-28.34 -72.87)"/><path class="cls-5" d="M164.21,334.52a3.93,3.93,0,1,0-3.91,3.9,3.93,3.93,0,0,0,3.91-3.9" transform="translate(-28.34 -72.87)"/><path class="cls-5" d="M221.69,343a1.09,1.09,0,0,1-1.09-1.07" transform="translate(-28.34 -72.87)"/><line class="cls-5" x1="192.26" y1="241.48" x2="192.26" y2="269.07"/><path class="cls-5" d="M220.6,314.35a1.11,1.11,0,0,1,1.09-1.1" transform="translate(-28.34 -72.87)"/><line class="cls-5" x1="234.44" y1="240.38" x2="193.35" y2="240.38"/><path class="cls-5" d="M262.79,313.25a1.1,1.1,0,0,1,1.09,1.1" transform="translate(-28.34 -72.87)"/><line class="cls-5" x1="235.54" y1="269.07" x2="235.54" y2="241.48"/><path class="cls-5" d="M263.88,341.94a1.08,1.08,0,0,1-1.09,1.07" transform="translate(-28.34 -72.87)"/><line class="cls-5" x1="193.35" y1="270.14" x2="234.44" y2="270.14"/><line class="cls-5" x1="189.56" y1="271.77" x2="238.24" y2="271.77"/><line class="cls-5" x1="189.56" y1="239.31" x2="238.24" y2="239.31"/><line class="cls-5" x1="189.56" y1="271.77" x2="189.56" y2="239.31"/><line class="cls-5" x1="238.24" y1="271.77" x2="238.24" y2="239.31"/><line class="cls-5" x1="196.05" y1="267.44" x2="217.2" y2="267.44"/><line class="cls-5" x1="218.27" y1="266.37" x2="218.27" y2="246.88"/><line class="cls-5" x1="217.2" y1="245.81" x2="196.05" y2="245.81"/><line class="cls-5" x1="194.99" y1="246.88" x2="194.99" y2="266.37"/><line class="cls-5" x1="196.05" y1="267.44" x2="196.05" y2="267.44"/><line class="cls-5" x1="221" y1="267.44" x2="231.74" y2="267.44"/><line class="cls-5" x1="232.84" y1="266.37" x2="232.84" y2="249.58"/><line class="cls-5" x1="231.74" y1="248.51" x2="221" y2="248.51"/><line class="cls-5" x1="219.9" y1="249.58" x2="219.9" y2="266.37"/><line class="cls-5" x1="221" y1="267.44" x2="221" y2="267.44"/><line class="cls-5" x1="222.07" y1="267.15" x2="230.68" y2="267.15"/><line class="cls-5" x1="230.68" y1="267.15" x2="230.68" y2="266.9"/><line class="cls-5" x1="230.68" y1="266.9" x2="222.07" y2="266.9"/><line class="cls-5" x1="222.07" y1="266.9" x2="222.07" y2="267.15"/><line class="cls-5" x1="222.07" y1="265.38" x2="230.68" y2="265.38"/><line class="cls-5" x1="230.68" y1="265.38" x2="230.68" y2="265.1"/><line class="cls-5" x1="230.68" y1="265.1" x2="222.07" y2="265.1"/><line class="cls-5" x1="222.07" y1="265.1" x2="222.07" y2="265.38"/><line class="cls-5" x1="222.07" y1="263.58" x2="230.68" y2="263.58"/><line class="cls-5" x1="230.68" y1="263.58" x2="230.68" y2="263.33"/><line class="cls-5" x1="230.68" y1="263.33" x2="222.07" y2="263.33"/><line class="cls-5" x1="222.07" y1="263.33" x2="222.07" y2="263.58"/><line class="cls-5" x1="222.07" y1="261.81" x2="230.68" y2="261.81"/><line class="cls-5" x1="230.68" y1="261.81" x2="230.68" y2="261.53"/><line class="cls-5" x1="230.68" y1="261.53" x2="222.07" y2="261.53"/><line class="cls-5" x1="222.07" y1="261.53" x2="222.07" y2="261.81"/><line class="cls-5" x1="222.07" y1="260.04" x2="230.68" y2="260.04"/><line class="cls-5" x1="230.68" y1="260.04" x2="230.68" y2="259.76"/><line class="cls-5" x1="230.68" y1="259.76" x2="222.07" y2="259.76"/><line class="cls-5" x1="222.07" y1="259.76" x2="222.07" y2="260.04"/><line class="cls-5" x1="222.07" y1="258.24" x2="230.68" y2="258.24"/><line class="cls-5" x1="230.68" y1="258.24" x2="230.68" y2="257.96"/><line class="cls-5" x1="230.68" y1="257.96" x2="222.07" y2="257.96"/><line class="cls-5" x1="222.07" y1="257.96" x2="222.07" y2="258.24"/><line class="cls-5" x1="222.07" y1="256.47" x2="230.68" y2="256.47"/><line class="cls-5" x1="230.68" y1="256.47" x2="230.68" y2="256.19"/><line class="cls-5" x1="230.68" y1="256.19" x2="222.07" y2="256.19"/><line class="cls-5" x1="222.07" y1="256.19" x2="222.07" y2="256.47"/><line class="cls-5" x1="222.07" y1="254.67" x2="230.68" y2="254.67"/><line class="cls-5" x1="230.68" y1="254.67" x2="230.68" y2="254.41"/><line class="cls-5" x1="230.68" y1="254.41" x2="222.07" y2="254.41"/><line class="cls-5" x1="222.07" y1="254.41" x2="222.07" y2="254.67"/><line class="cls-5" x1="222.07" y1="252.89" x2="230.68" y2="252.89"/><line class="cls-5" x1="230.68" y1="252.89" x2="230.68" y2="252.61"/><line class="cls-5" x1="230.68" y1="252.61" x2="222.07" y2="252.61"/><line class="cls-5" x1="222.07" y1="252.61" x2="222.07" y2="252.89"/><line class="cls-5" x1="222.07" y1="251.09" x2="230.68" y2="251.09"/><line class="cls-5" x1="230.68" y1="251.09" x2="230.68" y2="250.84"/><line class="cls-5" x1="230.68" y1="250.84" x2="222.07" y2="250.84"/><line class="cls-5" x1="222.07" y1="250.84" x2="222.07" y2="251.09"/><line class="cls-5" x1="222.07" y1="249.32" x2="230.68" y2="249.32"/><line class="cls-5" x1="230.68" y1="249.32" x2="230.68" y2="249.04"/><line class="cls-5" x1="230.68" y1="249.04" x2="222.07" y2="249.04"/><line class="cls-5" x1="222.07" y1="249.04" x2="222.07" y2="249.32"/><path class="cls-5" d="M246.61,339.24a1.06,1.06,0,0,1-1.07,1.07" transform="translate(-28.34 -72.87)"/><path class="cls-5" d="M245.54,318.68a1.06,1.06,0,0,1,1.07,1.07" transform="translate(-28.34 -72.87)"/><path class="cls-5" d="M223.33,319.75a1.06,1.06,0,0,1,1.06-1.07" transform="translate(-28.34 -72.87)"/><path class="cls-5" d="M224.39,340.31a1.06,1.06,0,0,1-1.06-1.07" transform="translate(-28.34 -72.87)"/><path class="cls-5" d="M261.18,339.24a1.09,1.09,0,0,1-1.1,1.07" transform="translate(-28.34 -72.87)"/><path class="cls-5" d="M260.08,321.38a1.09,1.09,0,0,1,1.1,1.07" transform="translate(-28.34 -72.87)"/><path class="cls-5" d="M248.24,322.45a1.08,1.08,0,0,1,1.1-1.07" transform="translate(-28.34 -72.87)"/><path class="cls-5" d="M249.34,340.31a1.08,1.08,0,0,1-1.1-1.07" transform="translate(-28.34 -72.87)"/><line class="cls-5" x1="220.52" y1="244.4" x2="222.21" y2="244.94"/><path class="cls-5" d="M248.86,317.28a1.5,1.5,0,0,1-1,.78" transform="translate(-28.34 -72.87)"/><line class="cls-5" x1="219.51" y1="255.48" x2="219.51" y2="245.19"/><path class="cls-5" d="M247.85,328.36a.42.42,0,0,1-.42.42.43.43,0,0,1-.42-.42" transform="translate(-28.34 -72.87)"/><line class="cls-5" x1="218.67" y1="245.19" x2="218.67" y2="255.48"/><path class="cls-5" d="M247,318.06a1.66,1.66,0,0,1-1-.78" transform="translate(-28.34 -72.87)"/><line class="cls-5" x1="215.99" y1="244.94" x2="217.65" y2="244.4"/><line class="cls-5" x1="215.83" y1="244.85" x2="215.99" y2="244.94"/><line class="cls-5" x1="215.54" y1="244.65" x2="215.83" y2="244.85"/><line class="cls-5" x1="215.43" y1="244.46" x2="215.54" y2="244.65"/><line class="cls-5" x1="215.35" y1="244.18" x2="215.43" y2="244.46"/><line class="cls-5" x1="215.32" y1="243.84" x2="215.35" y2="244.18"/><line class="cls-5" x1="215.32" y1="243.44" x2="215.32" y2="243.84"/><line class="cls-5" x1="215.35" y1="243.11" x2="215.32" y2="243.44"/><line class="cls-5" x1="215.43" y1="242.8" x2="215.35" y2="243.11"/><line class="cls-5" x1="215.54" y1="242.63" x2="215.43" y2="242.8"/><line class="cls-5" x1="215.83" y1="242.4" x2="215.54" y2="242.63"/><line class="cls-5" x1="215.99" y1="242.35" x2="215.83" y2="242.4"/><line class="cls-5" x1="217.65" y1="242.88" x2="215.99" y2="242.35"/><path class="cls-5" d="M246,315.76a1.65,1.65,0,0,1,1.44-.88,1.59,1.59,0,0,1,1.43.88" transform="translate(-28.34 -72.87)"/><line class="cls-5" x1="222.21" y1="242.35" x2="220.52" y2="242.88"/><line class="cls-5" x1="222.35" y1="242.4" x2="222.21" y2="242.35"/><line class="cls-5" x1="222.63" y1="242.63" x2="222.35" y2="242.4"/><line class="cls-5" x1="222.74" y1="242.8" x2="222.63" y2="242.63"/><line class="cls-5" x1="222.83" y1="243.11" x2="222.74" y2="242.8"/><line class="cls-5" x1="222.89" y1="243.44" x2="222.83" y2="243.11"/><line class="cls-5" x1="222.89" y1="243.84" x2="222.89" y2="243.44"/><line class="cls-5" x1="222.83" y1="244.18" x2="222.89" y2="243.84"/><line class="cls-5" x1="222.74" y1="244.46" x2="222.83" y2="244.18"/><line class="cls-5" x1="222.63" y1="244.65" x2="222.74" y2="244.46"/><line class="cls-5" x1="222.35" y1="244.85" x2="222.63" y2="244.65"/><line class="cls-5" x1="222.21" y1="244.94" x2="222.35" y2="244.85"/><line class="cls-5" x1="218.67" y1="243.56" x2="218.67" y2="245.19"/><line class="cls-5" x1="218.02" y1="244.29" x2="217.65" y2="244.4"/><line class="cls-5" x1="218.02" y1="242.99" x2="217.65" y2="242.88"/><line class="cls-5" x1="219.51" y1="243.56" x2="219.51" y2="245.19"/><line class="cls-5" x1="220.19" y1="244.29" x2="220.52" y2="244.4"/><line class="cls-5" x1="220.19" y1="242.99" x2="220.52" y2="242.88"/><path class="cls-5" d="M244.62,315.5a4.47,4.47,0,0,1,.14,1,4,4,0,0,1-.14,1" transform="translate(-28.34 -72.87)"/><path class="cls-5" d="M244.62,317.5a.4.4,0,0,1-.29.31" transform="translate(-28.34 -72.87)"/><path class="cls-5" d="M244.33,315.22a.36.36,0,0,1,.29.28" transform="translate(-28.34 -72.87)"/><path class="cls-5" d="M250.27,317.5a3,3,0,0,1-.17-1,3.3,3.3,0,0,1,.17-1" transform="translate(-28.34 -72.87)"/><path class="cls-5" d="M250.55,317.81a.4.4,0,0,1-.28-.31" transform="translate(-28.34 -72.87)"/><path class="cls-5" d="M250.27,315.5a.37.37,0,0,1,.28-.28" transform="translate(-28.34 -72.87)"/><path class="cls-5" d="M247,316.43a.44.44,0,0,1,.42-.36.42.42,0,0,1,.42.36" transform="translate(-28.34 -72.87)"/><path class="cls-5" d="M247,317.3a.89.89,0,1,1,1.32-.78.84.84,0,0,1-.48.78" transform="translate(-28.34 -72.87)"/><line class="cls-5" x1="157.1" y1="271.77" x2="189.56" y2="271.77"/><line class="cls-5" x1="157.1" y1="239.31" x2="189.56" y2="239.31"/><line class="cls-5" x1="157.1" y1="271.77" x2="157.1" y2="239.31"/><line class="cls-5" x1="189.56" y1="271.77" x2="189.56" y2="239.31"/><line class="cls-5" x1="155.36" y1="180.08" x2="152.6" y2="180.39"/><line class="cls-5" x1="158.17" y1="180.16" x2="155.36" y2="180.08"/><line class="cls-5" x1="177.13" y1="181.94" x2="158.17" y2="180.16"/><line class="cls-5" x1="177.13" y1="197.18" x2="177.13" y2="181.94"/><line class="cls-5" x1="158.17" y1="198.92" x2="177.13" y2="197.18"/><line class="cls-5" x1="155.36" y1="199.01" x2="158.17" y2="198.92"/><line class="cls-5" x1="152.6" y1="198.73" x2="155.36" y2="199.01"/><line class="cls-5" x1="149.9" y1="198.05" x2="152.6" y2="198.73"/><line class="cls-5" x1="147.37" y1="197.01" x2="149.9" y2="198.05"/><line class="cls-5" x1="145.35" y1="195.63" x2="147.37" y2="197.01"/><line class="cls-5" x1="143.8" y1="193.83" x2="145.35" y2="195.63"/><line class="cls-5" x1="142.84" y1="191.78" x2="143.8" y2="193.83"/><line class="cls-5" x1="142.5" y1="189.56" x2="142.84" y2="191.78"/><line class="cls-5" x1="142.84" y1="187.34" x2="142.5" y2="189.56"/><line class="cls-5" x1="143.8" y1="185.26" x2="142.84" y2="187.34"/><line class="cls-5" x1="145.35" y1="183.48" x2="143.8" y2="185.26"/><line class="cls-5" x1="147.37" y1="182.08" x2="145.35" y2="183.48"/><line class="cls-5" x1="149.9" y1="181.06" x2="147.37" y2="182.08"/><line class="cls-5" x1="152.6" y1="180.39" x2="149.9" y2="181.06"/><line class="cls-5" x1="172.51" y1="180.36" x2="172.51" y2="198.75"/><line class="cls-5" x1="172.57" y1="179.74" x2="172.51" y2="180.36"/><line class="cls-5" x1="172.77" y1="179.21" x2="172.57" y2="179.74"/><line class="cls-5" x1="173.02" y1="178.87" x2="172.77" y2="179.21"/><line class="cls-5" x1="173.33" y1="178.73" x2="173.02" y2="178.87"/><line class="cls-5" x1="176.31" y1="178.73" x2="173.33" y2="178.73"/><line class="cls-5" x1="176.62" y1="178.87" x2="176.31" y2="178.73"/><line class="cls-5" x1="176.87" y1="179.21" x2="176.62" y2="178.87"/><line class="cls-5" x1="177.04" y1="179.74" x2="176.87" y2="179.21"/><line class="cls-5" x1="177.13" y1="180.36" x2="177.04" y2="179.74"/><line class="cls-5" x1="177.13" y1="198.75" x2="177.13" y2="180.36"/><line class="cls-5" x1="177.04" y1="199.37" x2="177.13" y2="198.75"/><line class="cls-5" x1="176.87" y1="199.88" x2="177.04" y2="199.37"/><line class="cls-5" x1="176.62" y1="200.24" x2="176.87" y2="199.88"/><line class="cls-5" x1="176.31" y1="200.36" x2="176.62" y2="200.24"/><line class="cls-5" x1="173.33" y1="200.36" x2="176.31" y2="200.36"/><line class="cls-5" x1="173.02" y1="200.24" x2="173.33" y2="200.36"/><line class="cls-5" x1="172.77" y1="199.88" x2="173.02" y2="200.24"/><line class="cls-5" x1="172.57" y1="199.37" x2="172.77" y2="199.88"/><line class="cls-5" x1="172.51" y1="198.75" x2="172.57" y2="199.37"/><line class="cls-5" x1="177.66" y1="128.08" x2="190.09" y2="128.08"/><path class="cls-5" d="M218.43,201a.54.54,0,0,1,.54.54" transform="translate(-28.34 -72.87)"/><line class="cls-5" x1="190.63" y1="128.61" x2="190.63" y2="128.61"/><line class="cls-5" x1="190.63" y1="128.61" x2="190.63" y2="145.94"/><line class="cls-5" x1="190.63" y1="145.94" x2="190.63" y2="163.23"/><path class="cls-5" d="M219,236.11a.52.52,0,0,1-.54.53" transform="translate(-28.34 -72.87)"/><line class="cls-5" x1="190.09" y1="163.77" x2="190.09" y2="163.77"/><line class="cls-5" x1="190.09" y1="163.77" x2="177.66" y2="163.77"/><path class="cls-5" d="M206,236.64a10.6,10.6,0,0,1-9.17-5.23" transform="translate(-28.34 -72.87)"/><line class="cls-5" x1="168.49" y1="158.54" x2="168.49" y2="158.54"/><path class="cls-5" d="M196.83,231.41a22.68,22.68,0,0,1-3.82-12.6" transform="translate(-28.34 -72.87)"/><line class="cls-5" x1="164.67" y1="145.94" x2="164.67" y2="145.94"/><path class="cls-5" d="M193,218.81a22.7,22.7,0,0,1,3.82-12.63" transform="translate(-28.34 -72.87)"/><line class="cls-5" x1="168.49" y1="133.31" x2="168.49" y2="133.31"/><path class="cls-5" d="M196.83,206.18A10.67,10.67,0,0,1,206,201" transform="translate(-28.34 -72.87)"/><line class="cls-5" x1="177.66" y1="128.08" x2="177.66" y2="128.08"/><line class="cls-5" x1="150.07" y1="124.65" x2="190.63" y2="124.65"/><line class="cls-5" x1="150.07" y1="32.71" x2="150.07" y2="124.65"/><line class="cls-5" x1="190.63" y1="32.71" x2="150.07" y2="32.71"/><line class="cls-5" x1="190.63" y1="124.65" x2="190.63" y2="32.71"/><line class="cls-5" x1="143.63" y1="32.71" x2="143.63" y2="65.16"/><line class="cls-5" x1="143.63" y1="65.16" x2="111.17" y2="65.16"/><line class="cls-5" x1="111.17" y1="65.16" x2="111.17" y2="32.71"/><line class="cls-5" x1="111.17" y1="32.71" x2="143.63" y2="32.71"/><line class="cls-5" x1="134.1" y1="573.01" x2="134.1" y2="599.53"/><line class="cls-5" x1="133.56" y1="573.01" x2="133.56" y2="599.53"/><line class="cls-5" x1="134.1" y1="599.53" x2="133.56" y2="599.53"/><line class="cls-5" x1="133.56" y1="573.01" x2="133.56" y2="570.85"/><line class="cls-5" x1="134.1" y1="570.85" x2="133.56" y2="570.85"/><line class="cls-5" x1="134.1" y1="573.01" x2="134.1" y2="570.85"/><line class="cls-5" x1="171.95" y1="593.43" x2="141.13" y2="593.43"/><line class="cls-5" x1="182.78" y1="592.61" x2="182.67" y2="593.04"/><line class="cls-5" x1="182.78" y1="577.76" x2="182.78" y2="592.61"/><line class="cls-5" x1="182.67" y1="577.34" x2="182.78" y2="577.76"/><line class="cls-5" x1="182.36" y1="577.06" x2="182.67" y2="577.34"/><line class="cls-5" x1="181.96" y1="576.95" x2="182.36" y2="577.06"/><line class="cls-5" x1="140.31" y1="576.95" x2="181.96" y2="576.95"/><line class="cls-5" x1="139.92" y1="577.06" x2="140.31" y2="576.95"/><line class="cls-5" x1="139.61" y1="577.34" x2="139.92" y2="577.06"/><line class="cls-5" x1="139.5" y1="577.76" x2="139.61" y2="577.34"/><line class="cls-5" x1="139.5" y1="592.61" x2="139.5" y2="577.76"/><line class="cls-5" x1="139.61" y1="593.04" x2="139.5" y2="592.61"/><line class="cls-5" x1="139.92" y1="593.32" x2="139.61" y2="593.04"/><line class="cls-5" x1="140.31" y1="593.43" x2="139.92" y2="593.32"/><line class="cls-5" x1="181.96" y1="593.43" x2="140.31" y2="593.43"/><line class="cls-5" x1="182.36" y1="593.32" x2="181.96" y2="593.43"/><line class="cls-5" x1="182.67" y1="593.04" x2="182.36" y2="593.32"/><line class="cls-5" x1="133.56" y1="600.07" x2="133.56" y2="599.53"/><line class="cls-5" x1="133.56" y1="600.07" x2="187.67" y2="600.07"/><line class="cls-5" x1="187.67" y1="599.53" x2="187.67" y2="600.07"/><line class="cls-5" x1="133.56" y1="599.53" x2="187.67" y2="599.53"/><line class="cls-5" x1="134.1" y1="573.01" x2="187.67" y2="573.01"/><line class="cls-5" x1="134.1" y1="599.53" x2="134.1" y2="573.01"/><line class="cls-5" x1="187.67" y1="573.01" x2="187.67" y2="599.53"/><line class="cls-5" x1="187.67" y1="599.53" x2="134.1" y2="599.53"/><line class="cls-5" x1="188.21" y1="600.07" x2="187.67" y2="600.07"/><line class="cls-5" x1="188.21" y1="600.07" x2="188.21" y2="573.01"/><line class="cls-5" x1="187.67" y1="599.53" x2="187.67" y2="573.01"/><line class="cls-5" x1="187.67" y1="573.01" x2="187.67" y2="570.85"/><line class="cls-5" x1="188.21" y1="573.01" x2="188.21" y2="570.85"/><line class="cls-5" x1="188.21" y1="570.85" x2="187.67" y2="570.85"/><line class="cls-5" x1="249.07" y1="492.43" x2="238.24" y2="492.43"/><line class="cls-5" x1="227.41" y1="492.43" x2="205.79" y2="492.43"/><line class="cls-5" x1="194.99" y1="492.43" x2="173.33" y2="492.43"/><line class="cls-5" x1="162.53" y1="492.43" x2="140.87" y2="492.43"/><line class="cls-5" x1="130.07" y1="492.43" x2="108.45" y2="492.43"/><line class="cls-5" x1="97.62" y1="492.43" x2="75.99" y2="492.43"/><line class="cls-5" x1="65.16" y1="492.43" x2="43.53" y2="492.43"/><line class="cls-5" x1="32.71" y1="492.43" x2="11.08" y2="492.43"/><line class="cls-5" x1="249.07" y1="503.26" x2="238.24" y2="503.26"/><line class="cls-5" x1="227.41" y1="503.26" x2="205.79" y2="503.26"/><line class="cls-5" x1="194.99" y1="503.26" x2="173.33" y2="503.26"/><line class="cls-5" x1="162.53" y1="503.26" x2="140.87" y2="503.26"/><line class="cls-5" x1="130.07" y1="503.26" x2="108.45" y2="503.26"/><line class="cls-5" x1="32.71" y1="503.26" x2="11.08" y2="503.26"/><line class="cls-5" x1="249.07" y1="492.43" x2="249.07" y2="511.36"/><line class="cls-5" x1="249.07" y1="443.75" x2="249.07" y2="454.58"/><polyline class="cls-4" points="173.33 226.88 174.31 224.49 176.71 223.48 179.09 224.49 180.08 226.88 179.09 229.27 176.71 230.25 174.31 229.27 173.33 226.88"/><line class="cls-5" x1="173.33" y1="226.88" x2="174.31" y2="224.49"/><line class="cls-5" x1="174.31" y1="224.49" x2="176.7" y2="223.48"/><line class="cls-5" x1="176.7" y1="223.48" x2="179.1" y2="224.49"/><line class="cls-5" x1="179.1" y1="224.49" x2="180.08" y2="226.88"/><line class="cls-5" x1="180.08" y1="226.88" x2="179.1" y2="229.27"/><line class="cls-5" x1="179.1" y1="229.27" x2="176.7" y2="230.25"/><line class="cls-5" x1="176.7" y1="230.25" x2="174.31" y2="229.27"/><line class="cls-5" x1="174.31" y1="229.27" x2="173.33" y2="226.88"/><line class="cls-5" x1="124.65" y1="234.98" x2="124.65" y2="218.22"/><line class="cls-5" x1="124.65" y1="218.22" x2="184.16" y2="218.22"/><line class="cls-5" x1="184.16" y1="218.22" x2="184.16" y2="234.98"/><line class="cls-5" x1="184.16" y1="234.98" x2="124.65" y2="234.98"/><polyline class="cls-4" points="128.72 226.57 129.71 224.18 132.1 223.19 134.49 224.18 135.47 226.57 134.49 228.96 132.1 229.94 129.71 228.96 128.72 226.57"/><line class="cls-5" x1="128.72" y1="226.57" x2="129.71" y2="228.96"/><line class="cls-5" x1="129.71" y1="228.96" x2="132.1" y2="229.94"/><line class="cls-5" x1="132.1" y1="229.94" x2="134.49" y2="228.96"/><line class="cls-5" x1="134.49" y1="228.96" x2="135.47" y2="226.57"/><line class="cls-5" x1="135.47" y1="226.57" x2="134.49" y2="224.18"/><line class="cls-5" x1="134.49" y1="224.18" x2="132.1" y2="223.2"/><line class="cls-5" x1="132.1" y1="223.2" x2="129.71" y2="224.18"/><line class="cls-5" x1="129.71" y1="224.18" x2="128.72" y2="226.57"/><polyline class="cls-4" points="8.91 564.38 2.42 570.85 2.42 512.99 8.91 512.99 8.91 564.38"/><line class="cls-5" x1="8.91" y1="564.38" x2="8.91" y2="512.99"/><line class="cls-5" x1="8.91" y1="512.99" x2="2.42" y2="512.99"/><line class="cls-5" x1="2.42" y1="512.99" x2="2.42" y2="570.85"/><polyline class="cls-4" points="188.49 511.36 194.99 511.36 188.49 511.36"/><line class="cls-5" x1="194.99" y1="511.36" x2="194.99" y2="511.36"/><line class="cls-5" x1="194.99" y1="511.36" x2="188.49" y2="511.36"/><line class="cls-5" x1="194.99" y1="570.87" x2="194.99" y2="511.36"/><line class="cls-5" x1="188.49" y1="564.38" x2="188.49" y2="511.36"/><polyline class="cls-4" points="192.26 568.15 192.26 564.91 194.99 564.91 194.99 568.15 192.26 568.15"/><polyline class="cls-4" points="194.99 511.36 194.99 514.62 192.26 514.62 192.26 511.36 194.99 511.36"/><line class="cls-5" x1="192.26" y1="568.15" x2="192.26" y2="564.91"/><line class="cls-5" x1="192.26" y1="564.91" x2="194.99" y2="564.91"/><line class="cls-5" x1="194.99" y1="564.91" x2="194.99" y2="568.15"/><line class="cls-5" x1="194.99" y1="511.36" x2="194.99" y2="514.62"/><line class="cls-5" x1="194.99" y1="514.62" x2="192.26" y2="514.62"/><line class="cls-5" x1="192.26" y1="514.62" x2="192.26" y2="511.36"/><line class="cls-5" x1="192.26" y1="564.91" x2="192.26" y2="514.62"/><line class="cls-5" x1="194.99" y1="514.62" x2="194.99" y2="564.91"/><polyline class="cls-4" points="192.26 568.15 196.05 568.15 196.05 571.94 192.26 568.15"/><line class="cls-5" x1="194.99" y1="511.36" x2="192.26" y2="511.36"/><line class="cls-5" x1="194.99" y1="511.36" x2="192.26" y2="511.36"/><line class="cls-5" x1="192.26" y1="511.36" x2="188.49" y2="511.36"/><line class="cls-5" x1="192.26" y1="568.15" x2="196.05" y2="568.15"/><line class="cls-5" x1="196.05" y1="568.15" x2="196.05" y2="571.94"/><line class="cls-5" x1="194.99" y1="570.87" x2="194.99" y2="511.36"/><line class="cls-5" x1="188.49" y1="564.38" x2="188.49" y2="511.36"/><polyline class="cls-4" points="192.26 568.15 192.26 564.91 194.99 564.91 194.99 568.15 192.26 568.15"/><polyline class="cls-4" points="194.99 511.36 194.99 514.62 192.26 514.62 192.26 511.36 194.99 511.36"/><line class="cls-5" x1="192.26" y1="568.15" x2="192.26" y2="564.91"/><line class="cls-5" x1="192.26" y1="564.91" x2="194.99" y2="564.91"/><line class="cls-5" x1="194.99" y1="564.91" x2="194.99" y2="568.15"/><line class="cls-5" x1="194.99" y1="511.36" x2="194.99" y2="514.62"/><line class="cls-5" x1="194.99" y1="514.62" x2="192.26" y2="514.62"/><line class="cls-5" x1="192.26" y1="514.62" x2="192.26" y2="511.36"/><line class="cls-5" x1="192.26" y1="564.91" x2="192.26" y2="514.62"/><line class="cls-5" x1="194.99" y1="514.62" x2="194.99" y2="564.91"/><polyline class="cls-4" points="192.26 568.15 196.05 568.15 196.05 571.94 192.26 568.15"/><line class="cls-5" x1="194.99" y1="511.36" x2="192.26" y2="511.36"/><line class="cls-5" x1="194.99" y1="511.36" x2="192.26" y2="511.36"/><line class="cls-5" x1="192.26" y1="511.36" x2="188.49" y2="511.36"/><line class="cls-5" x1="192.26" y1="568.15" x2="196.05" y2="568.15"/><line class="cls-5" x1="196.05" y1="568.15" x2="196.05" y2="571.94"/><line class="cls-5" x1="0.25" y1="0.25" x2="0.25" y2="11.08"/><text class="cls-6" transform="translate(100.73 473.51)">20.44</text><text class="cls-6" transform="translate(39.8 115.2)">6.45</text><text class="cls-6" transform="translate(75.95 543.82)">1.58</text><text class="cls-6" transform="translate(117.88 153.57)">5.02</text><text class="cls-7" transform="translate(111.96 359.71)">CT</text><text class="cls-7" transform="translate(96.75 392.72)">33.49</text><text class="cls-7" transform="translate(93.58 327.2)">№105</text><polyline class="cls-8" points="84.98 401.07 84.98 303.95 165.97 303.95 165.97 401.07"/><line class="cls-8" x1="84.98" y1="336.39" x2="165.97" y2="336.39"/><line class="cls-8" x1="84.98" y1="401.07" x2="165.97" y2="401.07"/><line class="cls-8" x1="84.98" y1="368.82" x2="165.97" y2="368.82"/></svg>