<svg id="_57" data-name="57" xmlns="http://www.w3.org/2000/svg" viewBox="0 0 291.73 820.16"><defs><style>.cls-1{isolation:isolate;font-size:12px;fill:#969696;}.cls-1,.cls-3,.cls-5{font-family:PTSans-Regular, PT Sans;}.cls-2,.cls-4,.cls-6,.cls-7{fill:none;stroke-linecap:round;stroke-linejoin:round;}.cls-2{stroke:#969696;stroke-width:0.75px;}.cls-3{font-size:40px;}.cls-4,.cls-6,.cls-7{stroke:#000;}.cls-4{stroke-width:0.5px;}.cls-5{font-size:36px;}.cls-6{stroke-width:0.25px;stroke-dasharray:1 1;}</style></defs><title>7floor_57flat</title><text class="cls-1" transform="translate(140.29 816.97)">двор</text><line class="cls-2" x1="129.53" y1="819.79" x2="129.53" y2="810.99"/><polyline class="cls-2" points="126.03 816.29 129.53 819.79 133.03 816.29"/><text class="cls-3" transform="translate(120.32 512.88)">CT</text><text class="cls-3" transform="translate(94.96 563.06)">26.60</text><text class="cls-3" transform="translate(100.58 462.98)">№57</text><polyline class="cls-4" points="80.67 573.87 80.67 424.8 205 424.8 205 573.87"/><line class="cls-4" x1="80.67" y1="474.58" x2="205" y2="474.58"/><line class="cls-4" x1="80.67" y1="573.87" x2="205" y2="573.87"/><line class="cls-4" x1="80.67" y1="524.37" x2="205" y2="524.37"/><text class="cls-5" transform="translate(96.01 653.75)">17.01</text><text class="cls-5" transform="translate(150.9 327.84)">2.16</text><text class="cls-5" transform="translate(32.83 142.64)">3.81</text><text class="cls-5" transform="translate(151.03 126.93)">3.62</text><line class="cls-6" x1="121.63" y1="0.5" x2="49.3" y2="0.5"/><line class="cls-6" x1="131.74" y1="94.42" x2="131.74" y2="164.53"/><line class="cls-6" x1="138.04" y1="94.42" x2="138.04" y2="164.53"/><line class="cls-6" x1="122.33" y1="226.02" x2="52.22" y2="226.02"/><line class="cls-6" x1="122.33" y1="219.72" x2="52.22" y2="219.72"/><polyline class="cls-7" points="288.99 718.76 291.23 718.43 288.99 718.76 236.68 726.5"/><line class="cls-7" x1="233.6" y1="726.91" x2="232.44" y2="719.18"/><line class="cls-7" x1="233.68" y1="727.74" x2="233.6" y2="726.91"/><line class="cls-7" x1="235.51" y1="718.68" x2="235.51" y2="718.68"/><polyline class="cls-7" points="236.68 726.5 234.35 726.83 233.18 719.01 234.35 726.83"/><line class="cls-7" x1="234.43" y1="727.58" x2="233.68" y2="727.74"/><polyline class="cls-7" points="235.51 718.68 234.85 714.02 232.69 699.3"/><polyline class="cls-7" points="234.43 727.58 291.23 719.26 291.23 701.77"/><line class="cls-7" x1="275.6" y1="693" x2="232.69" y2="699.3"/><polyline class="cls-7" points="121.58 748.03 234.26 731.57 233.68 727.74"/><line class="cls-7" x1="122.58" y1="715.27" x2="232.69" y2="699.3"/><line class="cls-7" x1="121.75" y1="744.04" x2="233.68" y2="727.74"/><line class="cls-7" x1="122.58" y1="715.27" x2="232.69" y2="699.3"/><polyline class="cls-7" points="122.08 730.49 126.41 729.82 126.82 732.9 128.82 732.65 128.98 734.23 122.75 735.14 122 735.23"/><polyline class="cls-7" points="188.86 725.5 185.78 725.91 185.53 724.42 187.53 724.08 187.03 721.01 188.19 720.84"/><line class="cls-7" x1="185.78" y1="725.91" x2="128.98" y2="734.23"/><polyline class="cls-7" points="126.16 728.24 130.81 727.58 182.12 720.09"/><polyline class="cls-7" points="130.81 727.58 131.48 732.23 126.82 732.9 126.16 728.24"/><polyline class="cls-7" points="187.53 724.08 182.79 724.83 182.12 720.09 186.78 719.43 187.53 724.08"/><line class="cls-7" x1="182.79" y1="724.83" x2="131.48" y2="732.23"/><line class="cls-7" x1="130.81" y1="727.58" x2="182.12" y2="720.09"/><line class="cls-7" x1="131.15" y1="729.9" x2="182.46" y2="722.42"/><line class="cls-7" x1="122.75" y1="735.14" x2="122.08" y2="730.49"/><polyline class="cls-7" points="188.19 720.84 189.36 720.67 189.86 723.75 191.77 723.5 192.02 725.08 188.86 725.5"/><polyline class="cls-7" points="235.51 718.68 229.36 719.59 229.11 718.1 231.02 717.76 230.61 714.69 234.85 714.02"/><line class="cls-7" x1="229.36" y1="719.59" x2="192.02" y2="725.08"/><polyline class="cls-7" points="189.11 719.09 193.85 718.43 225.7 713.77"/><polyline class="cls-7" points="193.85 718.43 194.51 723.09 189.86 723.75 189.11 719.09"/><polyline class="cls-7" points="231.02 717.76 226.37 718.43 225.7 713.77 230.36 713.11 231.02 717.76"/><line class="cls-7" x1="226.37" y1="718.43" x2="194.51" y2="723.09"/><line class="cls-7" x1="193.85" y1="718.43" x2="225.7" y2="713.77"/><line class="cls-7" x1="194.18" y1="720.76" x2="226.03" y2="716.1"/><polyline class="cls-7" points="232.69 699.3 234.85 714.02 235.51 718.68 234.85 714.02"/><line class="cls-7" x1="233.68" y1="727.74" x2="233.6" y2="726.91"/><polyline class="cls-7" points="232.44 719.18 233.18 719.01 232.44 719.18"/><polyline class="cls-7" points="233.18 719.01 235.51 718.68 233.18 719.01"/><line class="cls-7" x1="233.6" y1="726.91" x2="232.44" y2="719.18"/><line class="cls-7" x1="0.5" y1="717.93" x2="50.31" y2="728.49"/><line class="cls-7" x1="53.39" y1="729.16" x2="54.97" y2="721.42"/><line class="cls-7" x1="53.22" y1="729.9" x2="53.39" y2="729.16"/><line class="cls-7" x1="51.89" y1="720.84" x2="51.89" y2="720.84"/><polyline class="cls-7" points="50.31 728.49 52.64 728.99 54.22 721.26 52.64 728.99"/><line class="cls-7" x1="52.48" y1="729.74" x2="53.22" y2="729.9"/><polyline class="cls-7" points="51.89 720.84 52.89 716.18 55.88 701.55"/><path class="cls-7" d="M52.25,729.24l-52-11.06V695.12" transform="translate(0.22 0.5)"/><line class="cls-7" x1="55.89" y1="701.55" x2="16.22" y2="693.42"/><polyline class="cls-7" points="121.58 748.03 52.48 733.73 53.22 729.9"/><line class="cls-7" x1="122.58" y1="715.27" x2="55.89" y2="701.55"/><line class="cls-7" x1="121.75" y1="744.04" x2="53.22" y2="729.9"/><line class="cls-7" x1="122.58" y1="715.27" x2="55.89" y2="701.55"/><polyline class="cls-7" points="122.16 730.49 117.92 729.57 117.26 732.65 115.34 732.23 115.01 733.81 121.17 735.06 122 735.23"/><polyline class="cls-7" points="51.89 720.84 58.05 722.09 58.38 720.51 56.47 720.17 57.13 717.1 52.89 716.18"/><line class="cls-7" x1="58.05" y1="722.09" x2="115.01" y2="733.81"/><polyline class="cls-7" points="118.17 728.08 113.6 727.08 62.04 716.52"/><polyline class="cls-7" points="113.6 727.08 112.68 731.73 117.26 732.65 118.17 728.08"/><polyline class="cls-7" points="56.47 720.17 61.04 721.09 62.04 716.52 57.38 715.52 56.47 720.17"/><line class="cls-7" x1="61.04" y1="721.09" x2="112.68" y2="731.73"/><line class="cls-7" x1="113.6" y1="727.08" x2="62.04" y2="716.52"/><line class="cls-7" x1="113.1" y1="729.41" x2="61.54" y2="718.76"/><line class="cls-7" x1="121.17" y1="735.06" x2="122.16" y2="730.49"/><polyline class="cls-7" points="55.88 701.55 52.89 716.18 51.89 720.84 52.89 716.18"/><line class="cls-7" x1="53.22" y1="729.9" x2="53.39" y2="729.16"/><polyline class="cls-7" points="54.97 721.42 54.22 721.26 54.97 721.42"/><polyline class="cls-7" points="54.22 721.26 51.89 720.84 54.22 721.26"/><line class="cls-7" x1="53.39" y1="729.16" x2="54.97" y2="721.42"/><line class="cls-7" x1="131.73" y1="152.93" x2="138.05" y2="152.93"/><line class="cls-7" x1="131.73" y1="97.96" x2="138.05" y2="97.96"/><line class="cls-7" x1="138.05" y1="219.71" x2="138.05" y2="152.93"/><polyline class="cls-7" points="138.05 97.97 138.05 57.05 131.73 57.05 131.73 97.97"/><line class="cls-7" x1="131.73" y1="152.93" x2="131.73" y2="219.71"/><line class="cls-7" x1="131.73" y1="97.96" x2="138.05" y2="97.96"/><line class="cls-7" x1="131.73" y1="152.93" x2="138.05" y2="152.93"/><line class="cls-7" x1="51.64" y1="219.71" x2="51.64" y2="226.03"/><line class="cls-7" x1="122.33" y1="219.71" x2="122.33" y2="226.03"/><line class="cls-7" x1="16.22" y1="226.03" x2="51.64" y2="226.03"/><line class="cls-7" x1="122.33" y1="226.03" x2="160.83" y2="226.03"/><line class="cls-7" x1="167.15" y1="226.03" x2="253.56" y2="226.03"/><polyline class="cls-7" points="259.88 226.03 275.6 226.03 275.6 219.71 138.05 219.71"/><line class="cls-7" x1="131.73" y1="219.71" x2="122.33" y2="219.71"/><polyline class="cls-7" points="51.64 219.71 16.22 219.71 16.22 226.03"/><line class="cls-7" x1="122.33" y1="219.71" x2="122.33" y2="226.03"/><line class="cls-7" x1="51.64" y1="219.71" x2="51.64" y2="226.03"/><line class="cls-7" x1="160.83" y1="226.03" x2="160.83" y2="275.51"/><line class="cls-7" x1="167.15" y1="269.19" x2="167.15" y2="226.03"/><polyline class="cls-7" points="160.83 275.51 167.16 275.51 275.6 275.51 275.6 269.19 259.88 269.19"/><line class="cls-7" x1="253.56" y1="269.19" x2="167.15" y2="269.19"/><polyline class="cls-7" points="261.38 57.05 261.38 53.89 261.38 50.81"/><polyline class="cls-7" points="226.03 57.05 229.94 57.05 229.94 53.89 229.94 50.81"/><polyline class="cls-7" points="261.38 57.05 275.6 57.05 275.6 50.81 261.38 50.81"/><polyline class="cls-7" points="229.94 50.81 226.03 50.81 226.03 57.05"/><line class="cls-6" x1="229.94" y1="57.05" x2="261.38" y2="57.05"/><line class="cls-6" x1="229.94" y1="50.81" x2="261.38" y2="50.81"/><path class="cls-6" d="M229.8,56.59a31.47,31.47,0,0,0,1.89,10.74" transform="translate(0.22 0.5)"/><line class="cls-7" x1="261.38" y1="57.05" x2="231.85" y2="67.78"/><polyline class="cls-7" points="229.94 50.81 229.94 53.89 229.94 57.05 229.94 53.89"/><polyline class="cls-7" points="261.38 50.81 261.38 53.89 261.38 57.05 261.38 53.89"/><line class="cls-7" x1="253.56" y1="226.03" x2="253.56" y2="269.19"/><line class="cls-7" x1="259.88" y1="269.19" x2="259.88" y2="226.03"/><polyline class="cls-7" points="147.44 9.9 210.31 9.9 210.31 0.5 147.44 0.5 147.44 9.9"/><polyline class="cls-7" points="126.24 16.22 126.24 6.74 126.24 0.5"/><polyline class="cls-7" points="47.65 16.22 47.65 6.74 47.65 0.5"/><polyline class="cls-7" points="0.5 16.22 0.5 6.74 0.5 0.5"/><line class="cls-7" x1="0.5" y1="16.22" x2="0.5" y2="16.22"/><line class="cls-7" x1="16.22" y1="16.22" x2="47.65" y2="16.22"/><line class="cls-7" x1="126.24" y1="16.22" x2="131.73" y2="16.22"/><line class="cls-7" x1="147.45" y1="0.5" x2="126.24" y2="0.5"/><line class="cls-7" x1="47.65" y1="0.5" x2="0.5" y2="0.5"/><line class="cls-7" x1="47.65" y1="0.5" x2="47.9" y2="0.5"/><line class="cls-7" x1="47.98" y1="0.5" x2="47.98" y2="0.5"/><line class="cls-7" x1="48.07" y1="0.5" x2="48.32" y2="0.5"/><line class="cls-7" x1="48.4" y1="0.5" x2="48.4" y2="0.5"/><line class="cls-7" x1="48.48" y1="0.5" x2="48.48" y2="0.5"/><polyline class="cls-7" points="48.57 0.5 48.82 0.5 48.9 0.5 48.98 0.5 49.23 0.5"/><line class="cls-7" x1="49.32" y1="0.5" x2="49.32" y2="0.5"/><line class="cls-7" x1="49.4" y1="0.5" x2="49.4" y2="0.5"/><line class="cls-7" x1="49.48" y1="0.5" x2="49.65" y2="0.5"/><line class="cls-7" x1="49.73" y1="0.5" x2="49.73" y2="0.5"/><line class="cls-7" x1="49.81" y1="0.5" x2="49.81" y2="0.5"/><line class="cls-7" x1="49.9" y1="0.5" x2="50.15" y2="0.5"/><polyline class="cls-7" points="50.23 0.5 50.31 0.5 50.56 0.5"/><line class="cls-7" x1="50.65" y1="0.5" x2="50.65" y2="0.5"/><line class="cls-7" x1="50.73" y1="0.5" x2="50.73" y2="0.5"/><line class="cls-7" x1="122.75" y1="0.5" x2="122.75" y2="0.5"/><polyline class="cls-7" points="122.91 0.5 123.16 0.5 123.25 0.5 123.33 0.5 123.58 0.5"/><line class="cls-7" x1="123.66" y1="0.5" x2="123.66" y2="0.5"/><line class="cls-7" x1="123.74" y1="0.5" x2="123.74" y2="0.5"/><line class="cls-7" x1="123.83" y1="0.5" x2="124.08" y2="0.5"/><line class="cls-7" x1="124.16" y1="0.5" x2="124.16" y2="0.5"/><line class="cls-7" x1="124.24" y1="0.5" x2="124.49" y2="0.5"/><line class="cls-7" x1="124.58" y1="0.5" x2="124.58" y2="0.5"/><line class="cls-7" x1="124.66" y1="0.5" x2="124.91" y2="0.5"/><line class="cls-7" x1="124.99" y1="0.5" x2="124.99" y2="0.5"/><line class="cls-7" x1="125.08" y1="0.5" x2="125.08" y2="0.5"/><polyline class="cls-7" points="125.16 0.5 125.41 0.5 125.49 0.5 125.57 0.5 125.82 0.5"/><line class="cls-7" x1="125.91" y1="0.5" x2="125.91" y2="0.5"/><line class="cls-7" x1="125.99" y1="0.5" x2="125.99" y2="0.5"/><line class="cls-7" x1="126.07" y1="0.5" x2="126.24" y2="0.5"/><path class="cls-7" d="M50.59,6.28A72.31,72.31,0,0,0,122.9,78.59" transform="translate(0.22 0.5)"/><polyline class="cls-7" points="47.65 0.5 50.81 0.5 50.81 6.74 47.65 6.74 47.65 0.5"/><polyline class="cls-7" points="126.24 6.74 123.08 6.74 123.08 0.5 126.24 0.5 126.24 6.74"/><line class="cls-7" x1="123.08" y1="6.74" x2="123.08" y2="79.09"/><polyline class="cls-7" points="47.65 0.5 47.65 6.74 47.65 0.5"/><line class="cls-7" x1="47.65" y1="16.22" x2="47.65" y2="6.74"/><polyline class="cls-7" points="126.24 0.5 126.24 6.74 126.24 0.5"/><line class="cls-7" x1="126.24" y1="16.22" x2="126.24" y2="6.74"/><polyline class="cls-7" points="0.5 0.5 0.5 6.74 0.5 0.5"/><line class="cls-7" x1="0.5" y1="16.22" x2="0.5" y2="6.74"/><polyline class="cls-7" points="275.6 16.22 275.6 691.98 291.23 691.98 291.23 68.86"/><line class="cls-7" x1="291.23" y1="53.14" x2="291.23" y2="0.5"/><polyline class="cls-7" points="0.5 16.22 0.5 691.98 16.22 691.98 16.22 16.22"/><line class="cls-7" x1="131.73" y1="16.22" x2="131.73" y2="57.05"/><polyline class="cls-7" points="147.44 0.5 147.44 16.22 147.44 41.33 210.31 41.33"/><polyline class="cls-7" points="131.73 57.05 147.44 57.05 226.03 57.05 226.03 41.33 226.03 16.22"/><line class="cls-7" x1="210.32" y1="0.5" x2="210.32" y2="41.33"/><line class="cls-7" x1="226.03" y1="16.22" x2="275.6" y2="16.22"/><line class="cls-7" x1="291.23" y1="0.5" x2="275.6" y2="0.5"/><polyline class="cls-7" points="210.31 0.5 226.03 0.5 275.6 0.5"/><line class="cls-7" x1="268.78" y1="207.9" x2="268.78" y2="167.82"/><line class="cls-7" x1="264.29" y1="163.16" x2="167.07" y2="163.16"/><line class="cls-7" x1="264.29" y1="212.64" x2="167.07" y2="212.64"/><line class="cls-7" x1="139.63" y1="158.42" x2="273.18" y2="158.42"/><polyline class="cls-7" points="139.63 158.42 139.63 217.38 273.19 217.38 273.19 158.42"/><line class="cls-7" x1="182.71" y1="204.41" x2="258.8" y2="204.41"/><line class="cls-7" x1="260.96" y1="202.08" x2="260.96" y2="173.72"/><line class="cls-7" x1="182.71" y1="171.31" x2="258.8" y2="171.31"/><line class="cls-7" x1="245.41" y1="189.36" x2="245.41" y2="192.27"/><line class="cls-7" x1="246.74" y1="187.86" x2="249.48" y2="187.86"/><line class="cls-7" x1="245.41" y1="186.45" x2="245.41" y2="183.54"/><line class="cls-7" x1="244" y1="187.86" x2="241.25" y2="187.86"/><path class="cls-7" d="M166.89,162.66c-12.93,0-23.41,11.08-23.41,24.74s10.48,24.74,23.41,24.74" transform="translate(0.22 0.5)"/><path class="cls-7" d="M268.55,167.36a4.58,4.58,0,0,0-4.45-4.7" transform="translate(0.22 0.5)"/><path class="cls-7" d="M264.1,212.14a4.57,4.57,0,0,0,4.45-4.69" transform="translate(0.22 0.5)"/><path class="cls-7" d="M245.23,189.86a2.46,2.46,0,1,0-2.29-2.46,2.37,2.37,0,0,0,2.29,2.46" transform="translate(0.22 0.5)"/><path class="cls-7" d="M182.52,170.81c-8.61,0-15.59,7.43-15.59,16.59s7,16.59,15.59,16.59" transform="translate(0.22 0.5)"/><path class="cls-7" d="M258.62,204a2.29,2.29,0,0,0,2.2-2.37" transform="translate(0.22 0.5)"/><path class="cls-7" d="M260.82,173.27a2.29,2.29,0,0,0-2.2-2.37" transform="translate(0.22 0.5)"/><path class="cls-7" d="M245.23,190.69a3.29,3.29,0,1,0-3.12-3.29,3.2,3.2,0,0,0,3.12,3.29" transform="translate(0.22 0.5)"/><polyline class="cls-7" points="255.22 116.01 273.19 116.01 273.19 158.42 255.22 158.42"/><line class="cls-7" x1="273.18" y1="143.87" x2="273.18" y2="130.56"/><line class="cls-7" x1="258.8" y1="140.79" x2="258.8" y2="138.55"/><line class="cls-7" x1="262.37" y1="137.22" x2="260.13" y2="137.22"/><line class="cls-7" x1="258.8" y1="135.89" x2="258.8" y2="133.64"/><line class="cls-7" x1="257.47" y1="137.22" x2="255.22" y2="137.22"/><path class="cls-7" d="M262.87,125.5a18.94,18.94,0,0,0-9-7.34" transform="translate(0.22 0.5)"/><path class="cls-7" d="M265.58,136.78a18.92,18.92,0,0,0-2.65-11.28" transform="translate(0.22 0.5)"/><path class="cls-7" d="M253.92,155.35a18.92,18.92,0,0,0,9-7.33" transform="translate(0.22 0.5)"/><path class="cls-7" d="M262.93,148a18.92,18.92,0,0,0,2.65-11.28" transform="translate(0.22 0.5)"/><path class="cls-7" d="M244.38,122.41a34.76,34.76,0,0,0-3.51,12.87" transform="translate(0.22 0.5)"/><path class="cls-7" d="M246.22,153.89a10.75,10.75,0,0,0,8.86,4" transform="translate(0.22 0.5)"/><path class="cls-7" d="M240.83,135.27a21,21,0,0,0,0,3" transform="translate(0.22 0.5)"/><path class="cls-7" d="M262.23,148.63a77.52,77.52,0,0,0,0-23.75" transform="translate(0.22 0.5)"/><path class="cls-7" d="M252.25,156.84a26.64,26.64,0,0,0,17.33-6" transform="translate(0.22 0.5)"/><path class="cls-7" d="M270.82,148.91a53.25,53.25,0,0,0,1.31-12.14" transform="translate(0.22 0.5)"/><path class="cls-7" d="M269.67,150.89a3.58,3.58,0,0,0,1.21-2" transform="translate(0.22 0.5)"/><path class="cls-7" d="M269.6,148.74a90.42,90.42,0,0,0,.86-12" transform="translate(0.22 0.5)"/><path class="cls-7" d="M252.31,156.92a24,24,0,0,0,16.18-6" transform="translate(0.22 0.5)"/><path class="cls-7" d="M268.44,150.89a3.58,3.58,0,0,0,1.16-2.17" transform="translate(0.22 0.5)"/><path class="cls-7" d="M268.52,122.61a24,24,0,0,0-16.18-6" transform="translate(0.22 0.5)"/><path class="cls-7" d="M269.61,122.71a26.71,26.71,0,0,0-17.32-6" transform="translate(0.22 0.5)"/><path class="cls-7" d="M270.46,136.78a88.71,88.71,0,0,0-.84-12" transform="translate(0.22 0.5)"/><path class="cls-7" d="M272.13,136.82a53.39,53.39,0,0,0-1.3-12.15" transform="translate(0.22 0.5)"/><path class="cls-7" d="M269.6,124.8a3.53,3.53,0,0,0-1.16-2.17" transform="translate(0.22 0.5)"/><path class="cls-7" d="M270.88,124.67a3.52,3.52,0,0,0-1.21-2" transform="translate(0.22 0.5)"/><path class="cls-7" d="M255.08,115.6a10.81,10.81,0,0,0-8.86,4" transform="translate(0.22 0.5)"/><path class="cls-7" d="M246.12,119.55a16.2,16.2,0,0,0-1.83,2.82" transform="translate(0.22 0.5)"/><path class="cls-7" d="M244.29,151.14a16.28,16.28,0,0,0,1.83,2.83" transform="translate(0.22 0.5)"/><path class="cls-7" d="M240.87,138.24a34.86,34.86,0,0,0,3.51,12.87" transform="translate(0.22 0.5)"/><path class="cls-7" d="M243.8,130.92a24.8,24.8,0,0,0,0,11.68" transform="translate(0.22 0.5)"/><path class="cls-7" d="M254,118.19a6.34,6.34,0,0,0-5.25,2.19" transform="translate(0.22 0.5)"/><path class="cls-7" d="M248.72,120.37a22.91,22.91,0,0,0-4.85,10.57" transform="translate(0.22 0.5)"/><path class="cls-7" d="M248.73,153.14a6.34,6.34,0,0,0,5.25,2.19" transform="translate(0.22 0.5)"/><path class="cls-7" d="M243.87,142.58a22.91,22.91,0,0,0,4.85,10.57" transform="translate(0.22 0.5)"/><path class="cls-7" d="M258.62,139.54a2.79,2.79,0,1,0-2.79-2.78,2.78,2.78,0,0,0,2.79,2.78" transform="translate(0.22 0.5)"/><path class="cls-7" d="M258.62,138.71a2,2,0,1,0-2-2,2,2,0,0,0,2,2" transform="translate(0.22 0.5)"/><line class="cls-7" x1="261.13" y1="74.76" x2="233.35" y2="74.76"/><polyline class="cls-7" points="262.79 73.6 273.19 73.6 273.19 103.45"/><line class="cls-7" x1="256.22" y1="88.48" x2="256.22" y2="99.54"/><polyline class="cls-7" points="233.43 74.76 256.22 77.42 256.22 88.48"/><line class="cls-7" x1="233.43" y1="102.21" x2="256.22" y2="99.54"/><line class="cls-7" x1="233.43" y1="75.43" x2="256.22" y2="78.09"/><line class="cls-7" x1="233.43" y1="101.54" x2="256.22" y2="98.88"/><line class="cls-7" x1="261.13" y1="102.21" x2="233.35" y2="102.21"/><line class="cls-7" x1="273.18" y1="103.45" x2="262.79" y2="103.45"/><polyline class="cls-7" points="233.43 74.76 230.36 75.18 227.45 76.34 224.87 78.17 222.79 80.67 221.38 83.58 220.63 86.82 220.63 90.15 221.38 93.39 222.79 96.3 224.87 98.8 227.45 100.71 230.36 101.87 233.43 102.21"/><polyline class="cls-7" points="233.43 75.43 230.52 75.84 227.78 76.92 225.37 78.75 223.37 81.08 222.04 83.91 221.38 86.9 221.38 90.06 222.04 93.14 223.37 95.89 225.37 98.3 227.78 100.04 230.52 101.13 233.43 101.54"/><path class="cls-7" d="M260.86,74.64a127.32,127.32,0,0,0,0,26.76" transform="translate(0.22 0.5)"/><path class="cls-7" d="M262.61,73.1a1.76,1.76,0,0,0-1.78,1.52" transform="translate(0.22 0.5)"/><path class="cls-7" d="M260.83,101.42a1.75,1.75,0,0,0,1.78,1.53" transform="translate(0.22 0.5)"/><path class="cls-7" d="M267.89,88a1.46,1.46,0,1,0-1.46,1.45A1.46,1.46,0,0,0,267.89,88" transform="translate(0.22 0.5)"/><polyline class="cls-7" points="228.44 277.84 228.44 321.09 271.61 321.09 271.61 277.84 228.44 277.84"/><polyline class="cls-7" points="232.35 281.83 232.35 317.18 263.79 317.18 263.79 281.83 232.35 281.83"/><polyline class="cls-7" points="120.92 745.87 120.58 745.79 111.85 788.12 112.27 788.2 120.92 745.87"/><polyline class="cls-7" points="110.36 789.37 110.44 789.03 39.67 774.48 39.59 774.81 110.36 789.37"/><polyline class="cls-7" points="38.34 772.98 38.75 773.07 47.4 730.74 47.07 730.65 38.34 772.98"/><polyline class="cls-7" points="121.75 744.04 119.84 743.63 119.42 745.54 121.33 745.96 121.75 744.04"/><polyline class="cls-7" points="112.6 788.28 110.69 787.87 110.27 789.78 112.19 790.2 112.6 788.28"/><polyline class="cls-7" points="39.5 775.23 39.92 773.32 37.92 772.9 37.59 774.81 39.5 775.23"/><polyline class="cls-7" points="46.65 730.57 48.57 730.99 48.98 729.07 47.07 728.66 46.65 730.57"/><line class="cls-7" x1="119.59" y1="744.54" x2="110.69" y2="787.87"/><line class="cls-7" x1="112.19" y1="790.2" x2="121.5" y2="744.96"/><line class="cls-7" x1="110.69" y1="787.87" x2="39.92" y2="773.31"/><line class="cls-7" x1="37.59" y1="774.81" x2="112.19" y2="790.2"/><line class="cls-7" x1="39.92" y1="773.31" x2="48.82" y2="729.99"/><line class="cls-7" x1="46.9" y1="729.57" x2="37.59" y2="774.81"/><polyline class="cls-7" points="121.5 744.96 121.75 744.04 119.84 743.63 119.59 744.54"/><polyline class="cls-7" points="48.82 729.99 48.98 729.07 47.07 728.66 46.9 729.57"/><polyline class="cls-7" points="37.59 774.81 112.19 790.2 121.5 744.96 119.59 744.54 110.69 787.87 39.92 773.32 48.82 729.99 46.9 729.57 37.59 774.81"/><polyline class="cls-7" points="44.24 761.76 111.19 775.56 116.26 750.95 49.31 737.14 44.24 761.76"/><polyline class="cls-7" points="44.74 759.26 111.77 773.07 116.26 750.95 49.31 737.14 44.74 759.26"/><polyline class="cls-7" points="0.5 707.7 16.22 707.7 16.22 629.11 0.5 629.11 0.5 707.7"/><polyline class="cls-7" points="0.5 369.82 16.22 369.82 16.22 291.23 0.5 291.23 0.5 369.82"/><polyline class="cls-7" points="275.6 629.11 291.23 629.11 291.23 707.7 275.6 707.7 275.6 629.11"/><polyline class="cls-7" points="275.6 291.23 291.23 291.23 291.23 369.82 275.6 369.82 275.6 291.23"/><polyline class="cls-7" points="275.6 0.5 291.23 0.5 291.23 79.09 275.6 79.09 275.6 0.5"/><polyline class="cls-7" points="0.5 79.09 16.22 79.09 16.22 0.5 0.5 0.5 0.5 79.09"/></svg>