<svg xmlns="http://www.w3.org/2000/svg" width="19" height="22" viewBox="0 0 19 22">
    <path fill="#E7490F" fill-rule="nonzero" d="M16.498 12.665c-.29-.29-.931-.442-1.908-.455a15.608 15.608 0 0 0-2.294.17c-.374-.219-.76-.457-1.064-.745-.815-.771-1.496-1.842-1.92-3.02l.073-.305s.459-2.644.337-3.538a1.044 1.044 0 0 0-.06-.254l-.04-.104c-.124-.292-.37-.6-.753-.584l-.226-.007h-.006c-.428 0-.777.222-.869.553-.278 1.04.01 2.598.53 4.614l-.133.328c-.373.921-.84 1.85-1.253 2.668l-.054.106c-.434.86-.827 1.59-1.184 2.21l-.369.197c-.026.014-.658.352-.806.443-1.257.76-2.09 1.623-2.227 2.308-.044.218-.012.498.212.627l.356.182c.155.079.318.118.485.118.895 0 1.934-1.13 3.365-3.66a33.157 33.157 0 0 1 5.183-1.248c1.257.717 2.802 1.215 3.778 1.215.173 0 .322-.017.443-.05a.755.755 0 0 0 .441-.304c.19-.289.228-.686.177-1.093-.016-.121-.11-.27-.214-.372zM3.131 17.489c.163-.452.81-1.346 1.764-2.139.06-.049.208-.19.344-.32-1 1.614-1.668 2.258-2.108 2.46zM8.788 4.29c.288 0 .452.735.465 1.424.014.688-.145 1.172-.342 1.53-.164-.53-.243-1.365-.243-1.91 0 0-.012-1.044.12-1.044zm-1.687 9.406c.2-.363.409-.747.622-1.153.519-.995.847-1.774 1.091-2.414a7.956 7.956 0 0 0 1.802 2.267c.09.076.183.153.282.229-1.447.29-2.697.643-3.797 1.071zm9.12-.082c-.089.055-.341.088-.504.088-.524 0-1.172-.243-2.08-.638.349-.026.669-.04.956-.04.525 0 .681-.001 1.195.131.514.133.52.403.432.459zm1.58-9.33l-3.03-3.069C14.111.547 12.808 0 11.875 0H1.696C.763 0 0 .773 0 1.719V20.28C0 21.227.763 22 1.696 22h15.608c.933 0 1.696-.773 1.696-1.719V7.22c0-.946-.54-2.266-1.2-2.934zm-.96.973c.066.067.132.15.197.243H13.57V1.988c.093.065.174.132.24.2l3.03 3.069zm.802 15.024a.346.346 0 0 1-.34.344H1.697a.346.346 0 0 1-.339-.344V1.72c0-.187.156-.344.34-.344h10.178c.103 0 .217.013.34.037v5.463h5.392c.023.123.036.24.036.344V20.28z"/>
</svg>
