<svg id="_247" data-name="247" xmlns="http://www.w3.org/2000/svg" viewBox="0 0 504.39 719.03"><defs><style>.cls-1{isolation:isolate;font-size:12px;fill:#969696;}.cls-1,.cls-7,.cls-8,.cls-9{font-family:PTSans-Regular, PT Sans;}.cls-10,.cls-11,.cls-12,.cls-13,.cls-14,.cls-2,.cls-3,.cls-4,.cls-5,.cls-6{fill:none;stroke-linecap:round;stroke-linejoin:round;}.cls-2{stroke:#969696;stroke-width:0.75px;}.cls-10,.cls-11,.cls-12,.cls-13,.cls-14,.cls-3,.cls-4,.cls-5,.cls-6{stroke:#000;}.cls-4,.cls-5,.cls-6{stroke-width:0.5px;}.cls-5{stroke-dasharray:2.96 2.96;}.cls-6{stroke-dasharray:3.06 3.06;}.cls-7{font-size:40px;}.cls-8{font-size:40.54px;}.cls-9{font-size:36px;}.cls-10,.cls-11,.cls-12,.cls-13,.cls-14{stroke-width:0.25px;}.cls-11{stroke-dasharray:1 1;}.cls-12{stroke-dasharray:0.99 0.99;}.cls-13{stroke-dasharray:1.01 1.01;}.cls-14{stroke-dasharray:0.99 0.99;}</style></defs><title>2floor_247flat</title><text class="cls-1" transform="translate(244.06 10.2)">двор</text><line class="cls-2" x1="233.3" y1="4.22" x2="233.3" y2="13.02"/><polyline class="cls-2" points="236.8 7.72 233.3 4.22 229.8 7.72"/><line class="cls-3" x1="289.66" y1="109.75" x2="252.99" y2="117.3"/><line class="cls-3" x1="292.95" y1="109.04" x2="294.63" y2="117.3"/><line class="cls-3" x1="292.77" y1="108.25" x2="292.95" y2="109.04"/><line class="cls-3" x1="291.35" y1="117.92" x2="291.35" y2="117.92"/><polyline class="cls-3" points="289.66 109.75 292.15 109.22 293.83 117.39 292.15 109.22"/><line class="cls-3" x1="291.97" y1="108.42" x2="292.77" y2="108.25"/><polyline class="cls-3" points="291.35 117.92 292.41 122.89 295.61 138.52"/><line class="cls-3" x1="291.97" y1="108.42" x2="252.99" y2="116.41"/><line class="cls-3" x1="252.99" y1="147.22" x2="295.61" y2="138.52"/><polyline class="cls-3" points="369.65 88.18 291.97 104.16 292.77 108.25"/><line class="cls-3" x1="369.65" y1="123.25" x2="295.61" y2="138.52"/><line class="cls-3" x1="369.65" y1="92.44" x2="292.77" y2="108.25"/><line class="cls-3" x1="369.65" y1="123.25" x2="295.61" y2="138.52"/><polyline class="cls-3" points="369.65 107 365.13 107.89 364.42 104.61 362.37 105.05 362.02 103.36 368.59 102.03 369.65 101.85"/><polyline class="cls-3" points="291.35 117.92 297.92 116.59 298.27 118.19 296.23 118.63 296.94 121.92 292.41 122.89"/><line class="cls-3" x1="297.92" y1="116.59" x2="362.02" y2="103.36"/><polyline class="cls-3" points="365.48 109.58 360.51 110.55 302.18 122.54"/><polyline class="cls-3" points="360.51 110.55 359.53 105.67 364.42 104.61 365.48 109.58"/><polyline class="cls-3" points="296.23 118.63 301.2 117.66 302.18 122.54 297.21 123.61 296.23 118.63"/><line class="cls-3" x1="301.2" y1="117.66" x2="359.53" y2="105.67"/><line class="cls-3" x1="360.51" y1="110.55" x2="302.18" y2="122.54"/><line class="cls-3" x1="359.98" y1="108.07" x2="301.65" y2="120.14"/><line class="cls-3" x1="368.59" y1="102.03" x2="369.65" y2="107"/><polyline class="cls-3" points="295.61 138.52 292.41 122.89 291.35 117.92 292.41 122.89"/><line class="cls-3" x1="292.77" y1="108.25" x2="292.95" y2="109.04"/><polyline class="cls-3" points="294.63 117.3 293.83 117.39 294.63 117.3"/><polyline class="cls-3" points="293.83 117.39 291.35 117.92 293.83 117.39"/><line class="cls-3" x1="292.95" y1="109.04" x2="294.63" y2="117.3"/><polyline class="cls-3" points="503.89 120.8 501.85 120.36 503.89 120.8"/><line class="cls-3" x1="501.85" y1="120.36" x2="449.56" y2="109.75"/><line class="cls-3" x1="446.27" y1="109.04" x2="444.59" y2="117.3"/><line class="cls-3" x1="446.45" y1="108.25" x2="446.27" y2="109.04"/><line class="cls-3" x1="447.87" y1="117.92" x2="447.87" y2="117.92"/><polyline class="cls-3" points="449.56 109.75 447.07 109.22 445.38 117.39 447.07 109.22"/><line class="cls-3" x1="447.25" y1="108.42" x2="446.45" y2="108.25"/><polyline class="cls-3" points="447.87 117.92 446.89 122.89 443.61 138.52"/><line class="cls-3" x1="503.89" y1="119.91" x2="447.25" y2="108.42"/><line class="cls-3" x1="443.61" y1="138.52" x2="487.11" y2="147.45"/><polyline class="cls-3" points="369.65 88.18 447.34 104.16 446.45 108.25"/><line class="cls-3" x1="369.65" y1="123.25" x2="443.61" y2="138.52"/><line class="cls-3" x1="369.65" y1="92.44" x2="446.45" y2="108.25"/><line class="cls-3" x1="369.65" y1="123.25" x2="443.61" y2="138.52"/><polyline class="cls-3" points="369.65 107 374.18 107.89 374.8 104.61 376.85 105.05 377.2 103.36 370.63 102.03 369.65 101.85"/><polyline class="cls-3" points="447.87 117.92 441.3 116.59 440.94 118.19 442.99 118.63 442.37 121.92 446.89 122.89"/><line class="cls-3" x1="441.3" y1="116.59" x2="377.2" y2="103.36"/><polyline class="cls-3" points="373.83 109.58 378.71 110.55 437.04 122.54"/><polyline class="cls-3" points="378.71 110.55 379.77 105.67 374.8 104.61 373.83 109.58"/><polyline class="cls-3" points="442.99 118.63 438.11 117.66 437.04 122.54 442.01 123.61 442.99 118.63"/><line class="cls-3" x1="438.1" y1="117.66" x2="379.77" y2="105.67"/><line class="cls-3" x1="378.71" y1="110.55" x2="437.04" y2="122.54"/><line class="cls-3" x1="379.24" y1="108.07" x2="437.57" y2="120.14"/><line class="cls-3" x1="370.63" y1="102.03" x2="369.65" y2="107"/><polyline class="cls-3" points="443.61 138.52 446.89 122.89 447.87 117.92 446.89 122.89"/><line class="cls-3" x1="446.45" y1="108.25" x2="446.27" y2="109.04"/><polyline class="cls-3" points="444.58 117.3 445.38 117.39 444.58 117.3"/><polyline class="cls-3" points="445.38 117.39 447.87 117.92 445.38 117.39"/><line class="cls-3" x1="446.27" y1="109.04" x2="444.59" y2="117.3"/><line class="cls-3" x1="56.52" y1="109.75" x2="0.5" y2="121.52"/><line class="cls-3" x1="59.81" y1="109.04" x2="61.49" y2="117.3"/><line class="cls-3" x1="59.63" y1="108.25" x2="59.81" y2="109.04"/><line class="cls-3" x1="58.21" y1="117.92" x2="58.21" y2="117.92"/><polyline class="cls-3" points="56.52 109.75 58.92 109.22 60.6 117.39 58.92 109.22"/><line class="cls-3" x1="58.74" y1="108.42" x2="59.63" y2="108.25"/><polyline class="cls-3" points="58.21 117.92 59.19 122.89 62.38 138.52"/><line class="cls-3" x1="58.74" y1="108.42" x2="0.5" y2="120.63"/><line class="cls-3" x1="17.28" y1="147.74" x2="62.38" y2="138.52"/><polyline class="cls-3" points="136.42 88.18 58.74 104.16 59.63 108.25"/><line class="cls-3" x1="136.42" y1="123.25" x2="62.38" y2="138.52"/><line class="cls-3" x1="136.42" y1="92.44" x2="59.63" y2="108.25"/><line class="cls-3" x1="136.42" y1="123.25" x2="62.38" y2="138.52"/><polyline class="cls-3" points="136.42 107 131.9 107.89 131.19 104.61 129.14 105.05 128.79 103.36 135.45 102.03 136.42 101.85"/><polyline class="cls-3" points="58.21 117.92 64.78 116.59 65.04 118.19 63 118.63 63.71 121.92 59.19 122.89"/><line class="cls-3" x1="64.78" y1="116.59" x2="128.79" y2="103.36"/><polyline class="cls-3" points="132.25 109.58 127.28 110.55 68.95 122.54"/><polyline class="cls-3" points="127.28 110.55 126.3 105.67 131.19 104.61 132.25 109.58"/><polyline class="cls-3" points="63 118.63 67.97 117.66 68.95 122.54 64.07 123.61 63 118.63"/><line class="cls-3" x1="67.97" y1="117.66" x2="126.3" y2="105.67"/><line class="cls-3" x1="127.28" y1="110.55" x2="68.95" y2="122.54"/><line class="cls-3" x1="126.84" y1="108.07" x2="68.51" y2="120.14"/><line class="cls-3" x1="135.45" y1="102.03" x2="136.42" y2="107"/><polyline class="cls-3" points="62.38 138.52 59.19 122.89 58.21 117.92 59.19 122.89"/><line class="cls-3" x1="59.63" y1="108.25" x2="59.81" y2="109.04"/><polyline class="cls-3" points="61.49 117.3 60.6 117.39 61.49 117.3"/><polyline class="cls-3" points="60.6 117.39 58.21 117.92 60.6 117.39"/><line class="cls-3" x1="59.81" y1="109.04" x2="61.49" y2="117.3"/><polyline class="cls-3" points="253 117.3 250.95 116.86 253 117.3"/><line class="cls-3" x1="250.95" y1="116.86" x2="216.33" y2="109.75"/><line class="cls-3" x1="213.04" y1="109.04" x2="211.36" y2="117.3"/><line class="cls-3" x1="213.22" y1="108.25" x2="213.04" y2="109.04"/><line class="cls-3" x1="214.64" y1="117.92" x2="214.64" y2="117.92"/><polyline class="cls-3" points="216.33 109.75 213.93 109.22 212.24 117.39 213.93 109.22"/><line class="cls-3" x1="214.11" y1="108.42" x2="213.22" y2="108.25"/><polyline class="cls-3" points="214.64 117.92 213.66 122.89 210.47 138.52"/><line class="cls-3" x1="252.99" y1="116.41" x2="214.11" y2="108.42"/><line class="cls-3" x1="210.47" y1="138.52" x2="252.99" y2="147.22"/><polyline class="cls-3" points="136.42 88.18 214.11 104.16 213.22 108.25"/><line class="cls-3" x1="136.42" y1="123.25" x2="210.47" y2="138.52"/><line class="cls-3" x1="136.42" y1="92.44" x2="213.22" y2="108.25"/><line class="cls-3" x1="136.42" y1="123.25" x2="210.47" y2="138.52"/><polyline class="cls-3" points="136.42 107 140.95 107.89 141.57 104.61 143.71 105.05 143.97 103.36 137.4 102.03 136.42 101.85"/><polyline class="cls-3" points="214.64 117.92 208.07 116.59 207.72 118.19 209.85 118.63 209.14 121.92 213.66 122.89"/><line class="cls-3" x1="208.07" y1="116.59" x2="143.97" y2="103.36"/><polyline class="cls-3" points="140.6 109.58 145.57 110.55 203.9 122.54"/><polyline class="cls-3" points="145.57 110.55 146.55 105.67 141.57 104.61 140.6 109.58"/><polyline class="cls-3" points="209.85 118.63 204.88 117.66 203.9 122.54 208.78 123.61 209.85 118.63"/><line class="cls-3" x1="204.88" y1="117.66" x2="146.55" y2="105.67"/><line class="cls-3" x1="145.57" y1="110.55" x2="203.9" y2="122.54"/><line class="cls-3" x1="146.01" y1="108.07" x2="204.34" y2="120.14"/><line class="cls-3" x1="137.4" y1="102.03" x2="136.42" y2="107"/><polyline class="cls-3" points="210.47 138.52 213.66 122.89 214.64 117.92 213.66 122.89"/><line class="cls-3" x1="213.22" y1="108.25" x2="213.04" y2="109.04"/><polyline class="cls-3" points="211.36 117.3 212.24 117.39 211.36 117.3"/><polyline class="cls-3" points="212.24 117.39 214.64 117.92 212.24 117.39"/><line class="cls-3" x1="213.04" y1="109.04" x2="211.36" y2="117.3"/><line class="cls-3" x1="503.89" y1="718.53" x2="503.89" y2="710.18"/><line class="cls-3" x1="487.11" y1="718.53" x2="487.11" y2="718.53"/><line class="cls-3" x1="0.5" y1="139.67" x2="0.5" y2="662.33"/><polyline class="cls-3" points="17.28 645.55 17.28 139.67 0.5 139.67"/><line class="cls-3" x1="260.54" y1="523.03" x2="260.54" y2="529.78"/><line class="cls-3" x1="327.66" y1="523.03" x2="327.66" y2="529.78"/><line class="cls-3" x1="243.76" y1="523.03" x2="243.76" y2="529.78"/><line class="cls-3" x1="168.3" y1="523.03" x2="168.3" y2="529.78"/><line class="cls-3" x1="333.52" y1="523.03" x2="327.66" y2="523.03"/><line class="cls-3" x1="253.88" y1="523.03" x2="243.76" y2="523.03"/><polyline class="cls-3" points="168.3 523.03 17.28 523.03 17.28 529.78 154.89 529.78"/><line class="cls-3" x1="161.55" y1="529.78" x2="168.3" y2="529.78"/><line class="cls-3" x1="243.76" y1="529.78" x2="260.54" y2="529.78"/><polyline class="cls-3" points="327.66 529.78 333.52 529.78 333.52 523.03"/><line class="cls-3" x1="327.66" y1="523.03" x2="327.66" y2="529.78"/><line class="cls-3" x1="260.54" y1="523.03" x2="260.54" y2="529.78"/><line class="cls-3" x1="168.3" y1="523.03" x2="168.3" y2="529.78"/><line class="cls-3" x1="243.76" y1="523.03" x2="243.76" y2="529.78"/><line class="cls-3" x1="340.27" y1="632.94" x2="333.52" y2="632.94"/><polyline class="cls-3" points="340.27 574.26 333.52 574.26 333.52 474.38"/><polyline class="cls-3" points="333.52 632.95 333.52 701.75 340.27 701.75 340.27 632.95"/><line class="cls-3" x1="340.27" y1="574.26" x2="340.27" y2="481.13"/><line class="cls-3" x1="340.27" y1="474.38" x2="333.52" y2="474.38"/><line class="cls-3" x1="340.27" y1="574.26" x2="333.52" y2="574.26"/><line class="cls-3" x1="340.27" y1="632.94" x2="333.52" y2="632.94"/><line class="cls-3" x1="340.27" y1="481.13" x2="438.37" y2="481.13"/><polyline class="cls-3" points="445.12 514.69 445.12 481.13 487.11 481.13 487.11 474.38 340.27 474.38"/><line class="cls-3" x1="438.37" y1="481.13" x2="438.37" y2="521.43"/><line class="cls-3" x1="154.89" y1="632.94" x2="161.55" y2="632.94"/><line class="cls-3" x1="154.89" y1="574.26" x2="161.55" y2="574.26"/><line class="cls-3" x1="161.55" y1="645.55" x2="161.55" y2="632.94"/><line class="cls-3" x1="161.55" y1="574.26" x2="161.55" y2="529.78"/><line class="cls-3" x1="154.89" y1="529.78" x2="154.89" y2="574.26"/><polyline class="cls-3" points="154.89 632.95 154.89 645.55 161.55 645.55"/><line class="cls-3" x1="154.89" y1="574.26" x2="161.55" y2="574.26"/><line class="cls-3" x1="154.89" y1="632.94" x2="161.55" y2="632.94"/><polyline class="cls-3" points="482.85 521.43 482.85 518.06 482.85 514.69"/><polyline class="cls-3" points="449.29 521.43 449.29 518.06 449.29 514.69"/><polyline class="cls-3" points="438.37 521.43 445.12 521.43 449.29 521.43"/><polyline class="cls-3" points="482.85 521.43 487.11 521.43 487.11 514.69 482.85 514.69"/><line class="cls-3" x1="449.29" y1="514.69" x2="445.12" y2="514.69"/><line class="cls-3" x1="449.29" y1="521.43" x2="482.85" y2="521.43"/><line class="cls-3" x1="449.29" y1="514.69" x2="482.85" y2="514.69"/><path class="cls-3" d="M449.34,549.73a33.51,33.51,0,0,0,2,11.47" transform="translate(0.04 -28.34)"/><line class="cls-3" x1="482.85" y1="521.43" x2="451.33" y2="532.89"/><polyline class="cls-3" points="449.29 514.69 449.29 518.06 449.29 521.43 449.29 518.06"/><polyline class="cls-3" points="482.85 514.69 482.85 518.06 482.85 521.43 482.85 518.06"/><line class="cls-3" x1="487.11" y1="149.97" x2="487.11" y2="701.75"/><polyline class="cls-3" points="503.89 710.18 503.89 146.51 487.11 146.51"/><polyline class="cls-3" points="312.57 701.75 312.57 711.78 312.57 718.53"/><polyline class="cls-3" points="228.67 701.75 228.67 711.78 228.67 718.53"/><line class="cls-3" x1="487.11" y1="701.75" x2="312.57" y2="701.75"/><line class="cls-3" x1="228.67" y1="701.75" x2="161.55" y2="701.75"/><line class="cls-3" x1="144.77" y1="718.53" x2="228.67" y2="718.53"/><line class="cls-3" x1="312.57" y1="718.53" x2="503.89" y2="718.53"/><path class="cls-3" d="M309.2,662.89A77.19,77.19,0,0,0,232,740.08" transform="translate(0.04 -28.34)"/><polyline class="cls-3" points="228.67 718.53 232.04 718.53 232.04 711.78 228.67 711.78 228.67 718.53"/><polyline class="cls-3" points="312.57 711.78 309.19 711.78 309.19 718.53 312.57 718.53 312.57 711.78"/><line class="cls-3" x1="309.19" y1="711.78" x2="309.19" y2="634.63"/><polyline class="cls-3" points="228.67 718.53 228.67 711.78 228.67 718.53"/><line class="cls-3" x1="228.67" y1="701.75" x2="228.67" y2="711.78"/><polyline class="cls-3" points="312.57 718.53 312.57 711.78 312.57 718.53"/><line class="cls-3" x1="312.57" y1="701.75" x2="312.57" y2="711.78"/><line class="cls-3" x1="161.55" y1="645.55" x2="17.28" y2="645.55"/><line class="cls-3" x1="0.5" y1="662.33" x2="144.77" y2="662.33"/><polyline class="cls-3" points="144.77 718.53 144.77 701.75 144.77 662.33"/><polyline class="cls-3" points="161.55 645.55 161.55 662.33 161.55 701.75"/><path class="cls-3" d="M.46,149" transform="translate(0.04 -28.34)"/><path class="cls-3" d="M.46,137" transform="translate(0.04 -28.34)"/><polyline class="cls-3" points="0.5 120.63 35.66 113.13 136.42 92.44"/><polyline class="cls-3" points="136.42 80.46 0.5 108.64 0.5 135.25"/><line class="cls-3" x1="136.42" y1="92.44" x2="252.99" y2="116.41"/><polyline class="cls-3" points="136.42 80.46 140.6 81.26 253 104.43"/><polyline class="cls-3" points="253 116.41 278.03 111.26 369.65 92.44"/><line class="cls-3" x1="369.65" y1="80.46" x2="252.99" y2="104.43"/><line class="cls-3" x1="369.65" y1="92.44" x2="503.89" y2="119.91"/><polyline class="cls-3" points="369.65 80.46 373.83 81.26 503.89 107.93 503.89 136.06"/><line class="cls-3" x1="480.63" y1="647.24" x2="480.63" y2="690.03"/><line class="cls-3" x1="475.93" y1="695" x2="372.05" y2="695"/><line class="cls-3" x1="475.93" y1="642.18" x2="372.05" y2="642.18"/><line class="cls-3" x1="342.75" y1="700.06" x2="485.43" y2="700.06"/><polyline class="cls-3" points="342.75 700.06 342.75 637.21 485.43 637.21 485.43 700.06"/><line class="cls-3" x1="388.74" y1="650.97" x2="469.98" y2="650.97"/><line class="cls-3" x1="472.37" y1="653.45" x2="472.37" y2="683.82"/><line class="cls-3" x1="388.74" y1="686.3" x2="469.98" y2="686.3"/><line class="cls-3" x1="455.68" y1="667.04" x2="455.68" y2="663.93"/><line class="cls-3" x1="457.1" y1="668.63" x2="460.03" y2="668.63"/><line class="cls-3" x1="455.68" y1="670.14" x2="455.68" y2="673.25"/><line class="cls-3" x1="454.26" y1="668.63" x2="451.33" y2="668.63"/><path class="cls-3" d="M372.05,670.52c-13.8,0-25,11.83-25,26.41s11.19,26.42,25,26.42" transform="translate(0.04 -28.34)"/><path class="cls-3" d="M475.93,723.35a4.89,4.89,0,0,0,4.75-5" transform="translate(0.04 -28.34)"/><path class="cls-3" d="M480.68,675.54a4.89,4.89,0,0,0-4.75-5" transform="translate(0.04 -28.34)"/><path class="cls-3" d="M455.68,694.31a2.63,2.63,0,1,0,2.45,2.62,2.54,2.54,0,0,0-2.45-2.62" transform="translate(0.04 -28.34)"/><path class="cls-3" d="M388.74,679.22c-9.19,0-16.64,7.93-16.64,17.71s7.45,17.71,16.64,17.71" transform="translate(0.04 -28.34)"/><path class="cls-3" d="M472.33,681.75a2.44,2.44,0,0,0-2.35-2.53" transform="translate(0.04 -28.34)"/><path class="cls-3" d="M470,714.64a2.44,2.44,0,0,0,2.35-2.53" transform="translate(0.04 -28.34)"/><path class="cls-3" d="M455.68,693.43a3.51,3.51,0,1,0,3.33,3.5,3.42,3.42,0,0,0-3.33-3.5" transform="translate(0.04 -28.34)"/><polyline class="cls-3" points="466.25 637.21 485.43 637.21 485.43 591.84 466.25 591.84"/><line class="cls-3" x1="485.43" y1="607.38" x2="485.43" y2="621.67"/><line class="cls-3" x1="469.98" y1="610.75" x2="469.98" y2="613.15"/><line class="cls-3" x1="473.79" y1="614.48" x2="471.4" y2="614.48"/><line class="cls-3" x1="469.98" y1="615.9" x2="469.98" y2="618.3"/><line class="cls-3" x1="468.65" y1="614.48" x2="466.16" y2="614.48"/><path class="cls-3" d="M465.06,662.72a20.21,20.21,0,0,0,9.55-7.84" transform="translate(0.04 -28.34)"/><path class="cls-3" d="M474.59,654.88a20.33,20.33,0,0,0,2.83-12" transform="translate(0.04 -28.34)"/><path class="cls-3" d="M474.61,630.76a20.21,20.21,0,0,0-9.55-7.84" transform="translate(0.04 -28.34)"/><path class="cls-3" d="M477.42,642.8a20.33,20.33,0,0,0-2.83-12" transform="translate(0.04 -28.34)"/><path class="cls-3" d="M451,644.35a37.25,37.25,0,0,0,3.74,13.75" transform="translate(0.04 -28.34)"/><path class="cls-3" d="M466.21,620.19a11.5,11.5,0,0,0-9.46,4.29" transform="translate(0.04 -28.34)"/><path class="cls-3" d="M451,641.19a24,24,0,0,0,0,3.17" transform="translate(0.04 -28.34)"/><path class="cls-3" d="M473.84,655.45a82.81,82.81,0,0,0,0-25.34" transform="translate(0.04 -28.34)"/><path class="cls-3" d="M481.77,627.76a28.41,28.41,0,0,0-18.49-6.42" transform="translate(0.04 -28.34)"/><path class="cls-3" d="M484.49,642.85a55.94,55.94,0,0,0-1.4-13" transform="translate(0.04 -28.34)"/><path class="cls-3" d="M483.07,629.87a3.8,3.8,0,0,0-1.29-2.09" transform="translate(0.04 -28.34)"/><path class="cls-3" d="M482.72,642.85a97.7,97.7,0,0,0-.92-12.78" transform="translate(0.04 -28.34)"/><path class="cls-3" d="M480.52,627.73a25.56,25.56,0,0,0-17.27-6.39" transform="translate(0.04 -28.34)"/><path class="cls-3" d="M481.8,630a3.82,3.82,0,0,0-1.25-2.31" transform="translate(0.04 -28.34)"/><path class="cls-3" d="M463.28,664.3a25.57,25.57,0,0,0,17.27-6.42" transform="translate(0.04 -28.34)"/><path class="cls-3" d="M463.31,664.3a28.43,28.43,0,0,0,18.49-6.44" transform="translate(0.04 -28.34)"/><path class="cls-3" d="M481.82,655.61a97.41,97.41,0,0,0,.9-12.77" transform="translate(0.04 -28.34)"/><path class="cls-3" d="M483.11,655.77a56.62,56.62,0,0,0,1.38-13" transform="translate(0.04 -28.34)"/><path class="cls-3" d="M480.56,657.86a3.85,3.85,0,0,0,1.24-2.32" transform="translate(0.04 -28.34)"/><path class="cls-3" d="M481.78,657.86a3.78,3.78,0,0,0,1.29-2.09" transform="translate(0.04 -28.34)"/><path class="cls-3" d="M456.75,661.16a11.5,11.5,0,0,0,9.46,4.29" transform="translate(0.04 -28.34)"/><path class="cls-3" d="M454.77,658.13a18.1,18.1,0,0,0,2,3" transform="translate(0.04 -28.34)"/><path class="cls-3" d="M456.72,624.4a18.1,18.1,0,0,0-2,3" transform="translate(0.04 -28.34)"/><path class="cls-3" d="M454.78,627.45A37.25,37.25,0,0,0,451,641.2" transform="translate(0.04 -28.34)"/><path class="cls-3" d="M454.25,636.54a26.55,26.55,0,0,0,0,12.47" transform="translate(0.04 -28.34)"/><path class="cls-3" d="M459.42,660.35a6.79,6.79,0,0,0,5.61,2.34" transform="translate(0.04 -28.34)"/><path class="cls-3" d="M454.33,649.08a24.55,24.55,0,0,0,5.17,11.28" transform="translate(0.04 -28.34)"/><path class="cls-3" d="M465,623a6.79,6.79,0,0,0-5.61,2.34" transform="translate(0.04 -28.34)"/><path class="cls-3" d="M459.5,625.28a24.55,24.55,0,0,0-5.17,11.28" transform="translate(0.04 -28.34)"/><path class="cls-3" d="M473,642.78a3,3,0,1,0-3,3,3,3,0,0,0,3-3" transform="translate(0.04 -28.34)"/><path class="cls-3" d="M472.07,642.78a2.09,2.09,0,1,0-2.09,2.08,2.09,2.09,0,0,0,2.09-2.08" transform="translate(0.04 -28.34)"/><line class="cls-3" x1="472.46" y1="548.69" x2="442.9" y2="548.69"/><polyline class="cls-3" points="474.24 547.45 485.43 547.45 485.43 579.32"/><line class="cls-3" x1="467.31" y1="563.34" x2="467.31" y2="575.15"/><polyline class="cls-3" points="442.9 548.69 467.31 551.53 467.31 563.34"/><line class="cls-3" x1="442.9" y1="577.99" x2="467.31" y2="575.15"/><line class="cls-3" x1="442.9" y1="549.4" x2="467.31" y2="552.24"/><line class="cls-3" x1="442.9" y1="577.28" x2="467.31" y2="574.44"/><line class="cls-3" x1="472.55" y1="577.99" x2="442.9" y2="577.99"/><line class="cls-3" x1="485.43" y1="579.32" x2="474.24" y2="579.32"/><polyline class="cls-3" points="442.9 548.69 439.61 549.05 436.51 550.38 433.84 552.33 431.62 554.99 430.11 558.1 429.31 561.56 429.31 565.12 430.11 568.58 431.62 571.68 433.84 574.35 436.51 576.39 439.61 577.63 442.9 577.99"/><polyline class="cls-3" points="442.9 549.4 439.79 549.85 436.86 551 434.29 552.95 432.25 555.44 430.82 558.37 430.02 561.65 430.02 565.03 430.82 568.31 432.25 571.24 434.29 573.73 436.86 575.68 439.79 576.84 442.9 577.28"/><path class="cls-3" d="M472.47,577.34a135.17,135.17,0,0,0,0,28.58" transform="translate(0.04 -28.34)"/><path class="cls-3" d="M474.24,575.7a1.89,1.89,0,0,0-1.9,1.62" transform="translate(0.04 -28.34)"/><path class="cls-3" d="M472.34,605.94a1.87,1.87,0,0,0,1.9,1.63" transform="translate(0.04 -28.34)"/><path class="cls-3" d="M480,591.64a1.56,1.56,0,1,0-3.11,0,1.56,1.56,0,0,0,3.11,0" transform="translate(0.04 -28.34)"/><polyline class="cls-3" points="482.85 424.13 436.77 424.13 436.77 470.21 482.85 470.21 482.85 424.13"/><polyline class="cls-3" points="478.68 428.3 440.94 428.3 440.94 461.86 478.68 461.86 478.68 428.3"/><polyline class="cls-3" points="210.38 106.11 210.82 106.11 210.82 59.95 210.38 59.95 210.38 106.11"/><polyline class="cls-3" points="212.07 58.35 212.07 58.7 289.22 58.7 289.22 58.35 212.07 58.35"/><polyline class="cls-3" points="290.9 59.95 290.55 59.95 290.55 106.11 290.9 106.11 290.9 59.95"/><polyline class="cls-3" points="210.02 108.25 212.07 108.25 212.07 106.11 210.02 106.11 210.02 108.25"/><polyline class="cls-3" points="210.02 59.95 212.07 59.95 212.07 57.91 210.02 57.91 210.02 59.95"/><polyline class="cls-3" points="289.22 57.91 289.22 59.95 291.35 59.95 291.35 57.91 289.22 57.91"/><polyline class="cls-3" points="291.35 106.11 289.22 106.11 289.22 108.25 291.35 108.25 291.35 106.11"/><line class="cls-3" x1="212.07" y1="107.18" x2="212.07" y2="59.95"/><line class="cls-3" x1="210.02" y1="57.91" x2="210.02" y2="107.18"/><line class="cls-3" x1="212.07" y1="59.95" x2="289.22" y2="59.95"/><line class="cls-3" x1="291.35" y1="57.91" x2="210.02" y2="57.91"/><line class="cls-3" x1="289.22" y1="59.95" x2="289.22" y2="107.18"/><line class="cls-3" x1="291.35" y1="107.18" x2="291.35" y2="57.91"/><polyline class="cls-3" points="210.02 107.18 210.02 108.25 212.07 108.25 212.07 107.18"/><polyline class="cls-3" points="289.22 107.18 289.22 108.25 291.35 108.25 291.35 107.18"/><polyline class="cls-3" points="291.35 57.91 210.02 57.91 210.02 107.18 212.07 107.18 212.07 59.95 289.22 59.95 289.22 107.18 291.35 107.18 291.35 57.91"/><polyline class="cls-3" points="287.18 73 214.2 73 214.2 99.81 287.18 99.81 287.18 73"/><polyline class="cls-3" points="287.18 75.66 214.2 75.66 214.2 99.81 287.18 99.81 287.18 75.66"/><line class="cls-3" x1="253.88" y1="139.67" x2="253.88" y2="523.03"/><polyline class="cls-3" points="260.54 523.03 260.54 139.67 253.88 139.67"/><polyline class="cls-3" points="260.54 131.33 243.76 131.33 243.76 215.23 260.54 215.23 260.54 131.33"/><polyline class="cls-3" points="17.28 131.33 0.5 131.33 0.5 215.23 17.28 215.23 17.28 131.33"/><polyline class="cls-3" points="17.28 408.15 0.5 408.15 0.5 492.05 17.28 492.05 17.28 408.15"/><polyline class="cls-3" points="373.83 701.75 373.83 718.53 457.73 718.53 457.73 701.75 373.83 701.75"/><polyline class="cls-3" points="260.54 408.15 243.76 408.15 243.76 492.05 260.54 492.05 260.54 408.15"/><polyline class="cls-3" points="228.67 701.75 144.77 701.75 144.77 718.53 228.67 718.53"/><path class="cls-3" d="M228.63,746.87" transform="translate(0.04 -28.34)"/><polyline class="cls-3" points="503.89 408.15 487.11 408.15 487.11 492.05 503.89 492.05 503.89 408.15"/><polyline class="cls-3" points="503.89 131.33 487.11 131.33 487.11 215.23 503.89 215.23 503.89 131.33"/><line class="cls-4" x1="487.64" y1="373.79" x2="486.14" y2="373.79"/><line class="cls-5" x1="483.18" y1="373.79" x2="336.5" y2="373.79"/><polyline class="cls-4" points="335.02 373.79 333.52 373.79 333.52 375.29"/><line class="cls-6" x1="333.52" y1="378.35" x2="333.52" y2="474.72"/><line class="cls-4" x1="333.52" y1="476.25" x2="333.52" y2="477.75"/><text class="cls-7" transform="translate(110.64 302.56)">2E</text><text class="cls-8" transform="translate(83.74 352.73)">35.03</text><text class="cls-7" transform="translate(79.1 252.65)">№247</text><polyline class="cls-4" points="70.09 363.54 70.09 214.47 194.41 214.47 194.41 363.54"/><line class="cls-4" x1="70.09" y1="264.25" x2="194.41" y2="264.25"/><line class="cls-4" x1="70.09" y1="363.54" x2="194.41" y2="363.54"/><line class="cls-4" x1="70.09" y1="314.04" x2="194.41" y2="314.04"/><text class="cls-9" transform="translate(340.55 173.28)">9.24</text><text class="cls-9" transform="translate(92.36 173.28)">12.81</text><text class="cls-9" transform="translate(355.46 610.3)">4.32</text><text class="cls-9" transform="translate(51.12 610.3)">2.26</text><text class="cls-9" transform="translate(218.87 610.3)">4.20</text><text class="cls-9" transform="translate(356.04 420.71)">2.20</text><line class="cls-10" x1="154.89" y1="572.35" x2="154.89" y2="572.85"/><line class="cls-11" x1="154.89" y1="573.86" x2="154.89" y2="643.52"/><line class="cls-10" x1="154.89" y1="644.02" x2="154.89" y2="644.52"/><line class="cls-10" x1="161.55" y1="572.35" x2="161.55" y2="572.85"/><line class="cls-11" x1="161.55" y1="573.86" x2="161.55" y2="643.52"/><line class="cls-10" x1="161.55" y1="644.02" x2="161.55" y2="644.52"/><line class="cls-10" x1="340.27" y1="572.35" x2="340.27" y2="572.85"/><line class="cls-11" x1="340.27" y1="573.86" x2="340.27" y2="643.52"/><line class="cls-10" x1="340.27" y1="644.02" x2="340.27" y2="644.52"/><line class="cls-10" x1="333.52" y1="572.35" x2="333.52" y2="572.85"/><line class="cls-11" x1="333.52" y1="573.86" x2="333.52" y2="643.52"/><line class="cls-10" x1="333.52" y1="644.02" x2="333.52" y2="644.52"/><line class="cls-10" x1="168.3" y1="529.78" x2="168.8" y2="529.78"/><line class="cls-12" x1="169.79" y1="529.78" x2="242.77" y2="529.78"/><line class="cls-10" x1="243.26" y1="529.78" x2="243.76" y2="529.78"/><line class="cls-10" x1="168.3" y1="523.03" x2="168.8" y2="523.03"/><line class="cls-12" x1="169.79" y1="523.03" x2="242.77" y2="523.03"/><line class="cls-10" x1="243.26" y1="523.03" x2="243.76" y2="523.03"/><line class="cls-10" x1="260.54" y1="523.03" x2="261.04" y2="523.03"/><line class="cls-13" x1="262.06" y1="523.03" x2="332.51" y2="523.03"/><line class="cls-10" x1="333.02" y1="523.03" x2="333.52" y2="523.03"/><line class="cls-10" x1="260.54" y1="529.78" x2="261.04" y2="529.78"/><line class="cls-13" x1="262.06" y1="529.78" x2="332.51" y2="529.78"/><line class="cls-10" x1="333.02" y1="529.78" x2="333.52" y2="529.78"/><line class="cls-10" x1="232.04" y1="718.53" x2="232.54" y2="718.53"/><line class="cls-14" x1="233.54" y1="718.53" x2="306.6" y2="718.53"/><line class="cls-10" x1="307.1" y1="718.53" x2="307.6" y2="718.53"/></svg>