<svg id="_156" data-name="156" xmlns="http://www.w3.org/2000/svg" viewBox="0 0 365.31 791.11"><defs><style>.cls-1{isolation:isolate;font-size:12px;fill:#969696;}.cls-1,.cls-4,.cls-6{font-family:PTSans-Regular, PT Sans;}.cls-2{letter-spacing:-0.01em;}.cls-10,.cls-3,.cls-5,.cls-7,.cls-8,.cls-9{fill:none;stroke-linecap:round;stroke-linejoin:round;}.cls-3{stroke:#969696;stroke-width:0.75px;}.cls-4{font-size:40px;}.cls-10,.cls-5,.cls-7,.cls-8,.cls-9{stroke:#000;}.cls-10,.cls-5,.cls-9{stroke-width:0.5px;}.cls-6{font-size:36px;}.cls-7{stroke-width:0.25px;stroke-dasharray:1 1;}.cls-9{stroke-dasharray:3.02 3.02;}.cls-10{stroke-dasharray:3.04 3.04;}</style></defs><title>3floor_156flat</title><text class="cls-1" transform="translate(174.51 787.91)"><tspan class="cls-2">у</tspan><tspan x="5.42" y="0">лица</tspan></text><line class="cls-3" x1="163.75" y1="790.73" x2="163.75" y2="781.93"/><polyline class="cls-3" points="160.25 787.23 163.75 790.73 167.25 787.23"/><text class="cls-4" transform="translate(165.85 489)">СТ</text><text class="cls-4" transform="translate(140.49 539.18)">20.12</text><text class="cls-4" transform="translate(135.21 439.1)">№156</text><polyline class="cls-5" points="126.2 549.99 126.2 400.91 250.53 400.91 250.53 549.99"/><line class="cls-5" x1="126.2" y1="450.7" x2="250.53" y2="450.7"/><line class="cls-5" x1="126.2" y1="549.99" x2="250.53" y2="549.99"/><line class="cls-5" x1="126.2" y1="500.49" x2="250.53" y2="500.49"/><text class="cls-6" transform="translate(145.27 615.35)">11.53</text><text class="cls-6" transform="translate(246.67 152.77)">2.94</text><text class="cls-6" transform="translate(107.76 364.81)">2.20</text><text class="cls-6" transform="translate(101.64 152.77)">3.45</text><line class="cls-7" x1="203.58" y1="225.02" x2="292.5" y2="225.02"/><line class="cls-7" x1="188.5" y1="177.31" x2="188.5" y2="94.06"/><line class="cls-7" x1="195.98" y1="177.31" x2="195.98" y2="94.06"/><line class="cls-7" x1="203.58" y1="217.29" x2="292.5" y2="217.29"/><line class="cls-7" x1="256.2" y1="0.5" x2="346.29" y2="0.5"/><line class="cls-8" x1="295.86" y1="683.73" x2="357.06" y2="683.73"/><line class="cls-8" x1="0.5" y1="683.73" x2="69.34" y2="683.73"/><line class="cls-8" x1="299.74" y1="682.81" x2="357.06" y2="682.81"/><line class="cls-8" x1="0.5" y1="682.81" x2="65.57" y2="682.81"/><line class="cls-8" x1="299.74" y1="677" x2="299.74" y2="644.26"/><line class="cls-8" x1="295.86" y1="695.26" x2="295.86" y2="683.73"/><line class="cls-8" x1="299.74" y1="682.81" x2="299.74" y2="677"/><line class="cls-8" x1="65.57" y1="677" x2="65.57" y2="644.26"/><line class="cls-8" x1="69.34" y1="695.26" x2="69.34" y2="683.73"/><line class="cls-8" x1="65.57" y1="682.81" x2="65.57" y2="677"/><polyline class="cls-8" points="69.34 695.26 0.5 695.26 0.5 624.94"/><line class="cls-8" x1="295.86" y1="695.26" x2="357.06" y2="695.26"/><line class="cls-8" x1="349.31" y1="644.26" x2="299.74" y2="644.26"/><line class="cls-8" x1="65.57" y1="644.26" x2="19.78" y2="644.26"/><line class="cls-8" x1="0.5" y1="644.26" x2="0.5" y2="644.26"/><line class="cls-8" x1="69.34" y1="695.26" x2="295.86" y2="695.26"/><line class="cls-8" x1="65.57" y1="644.26" x2="299.74" y2="644.26"/><polyline class="cls-8" points="65.57 677 70.87 677 70.87 680.88 73.22 680.88 73.22 682.81 65.57 682.81"/><polyline class="cls-8" points="144.92 682.81 141.04 682.81 141.04 680.88 143.39 680.88 143.39 677 144.92 677"/><line class="cls-8" x1="141.04" y1="682.81" x2="73.22" y2="682.81"/><polyline class="cls-8" points="70.87 675.06 76.58 675.06 137.68 675.06"/><polyline class="cls-8" points="76.58 675.06 76.58 680.88 70.87 680.88 70.87 675.06"/><polyline class="cls-8" points="143.39 680.88 137.68 680.88 137.68 675.06 143.39 675.06 143.39 680.88"/><line class="cls-8" x1="137.68" y1="680.88" x2="76.58" y2="680.88"/><line class="cls-8" x1="76.58" y1="675.06" x2="137.68" y2="675.06"/><line class="cls-8" x1="76.58" y1="677.92" x2="137.68" y2="677.92"/><polyline class="cls-8" points="144.92 677 146.35 677 146.35 680.88 148.69 680.88 148.69 682.81 144.92 682.81"/><polyline class="cls-8" points="220.39 682.81 216.51 682.81 216.51 680.88 218.96 680.88 218.96 677 220.39 677"/><line class="cls-8" x1="216.52" y1="682.81" x2="148.69" y2="682.81"/><polyline class="cls-8" points="146.35 675.06 152.16 675.06 213.15 675.06"/><polyline class="cls-8" points="152.16 675.06 152.16 680.88 146.35 680.88 146.35 675.06"/><polyline class="cls-8" points="218.96 680.88 213.15 680.88 213.15 675.06 218.96 675.06 218.96 680.88"/><line class="cls-8" x1="213.15" y1="680.88" x2="152.16" y2="680.88"/><line class="cls-8" x1="152.16" y1="675.06" x2="213.15" y2="675.06"/><line class="cls-8" x1="152.16" y1="677.92" x2="213.15" y2="677.92"/><polyline class="cls-8" points="220.39 677 221.82 677 221.82 680.88 224.27 680.88 224.27 682.81 220.39 682.81"/><polyline class="cls-8" points="299.74 682.81 291.99 682.81 291.99 680.88 294.44 680.88 294.44 677 299.74 677"/><line class="cls-8" x1="291.99" y1="682.81" x2="224.27" y2="682.81"/><polyline class="cls-8" points="221.82 675.06 227.63 675.06 288.62 675.06"/><polyline class="cls-8" points="227.63 675.06 227.63 680.88 221.82 680.88 221.82 675.06"/><polyline class="cls-8" points="294.44 680.88 288.62 680.88 288.62 675.06 294.44 675.06 294.44 680.88"/><line class="cls-8" x1="288.62" y1="680.88" x2="227.63" y2="680.88"/><line class="cls-8" x1="227.63" y1="675.06" x2="288.62" y2="675.06"/><line class="cls-8" x1="227.63" y1="677.92" x2="288.62" y2="677.92"/><polyline class="cls-8" points="65.57 677 65.57 682.81 65.57 677"/><polyline class="cls-8" points="65.57 682.81 69.34 682.81 65.57 682.81"/><polyline class="cls-8" points="69.34 695.26 69.34 683.73 69.34 682.81"/><line class="cls-8" x1="65.57" y1="677" x2="65.57" y2="644.26"/><polyline class="cls-8" points="299.74 677 299.74 682.81 299.74 677"/><polyline class="cls-8" points="299.74 682.81 295.86 682.81 299.74 682.81"/><polyline class="cls-8" points="295.86 695.26 295.86 683.73 295.86 682.81"/><line class="cls-8" x1="299.74" y1="677" x2="299.74" y2="644.26"/><line class="cls-8" x1="357.06" y1="683.73" x2="364.81" y2="683.73"/><line class="cls-8" x1="357.06" y1="682.81" x2="364.81" y2="682.81"/><polyline class="cls-8" points="357.06 695.26 364.81 695.26 364.81 630.87"/><line class="cls-8" x1="364.81" y1="644.26" x2="364.81" y2="644.26"/><line class="cls-8" x1="0.5" y1="0.5" x2="0.5" y2="249.15"/><line class="cls-8" x1="0.5" y1="364.81" x2="0.5" y2="567.16"/><line class="cls-8" x1="19.78" y1="567.16" x2="19.78" y2="364.81"/><line class="cls-8" x1="19.78" y1="249.15" x2="19.78" y2="19.78"/><line class="cls-8" x1="67.92" y1="224.98" x2="67.92" y2="278.02"/><line class="cls-8" x1="75.67" y1="278.02" x2="75.67" y2="224.98"/><line class="cls-8" x1="196.12" y1="101.67" x2="188.37" y2="101.67"/><line class="cls-8" x1="196.12" y1="169.09" x2="188.37" y2="169.09"/><line class="cls-8" x1="196.12" y1="285.77" x2="196.12" y2="224.98"/><line class="cls-8" x1="196.12" y1="217.33" x2="196.12" y2="169.09"/><polyline class="cls-8" points="196.12 101.67 196.12 84.34 188.37 84.34 188.37 101.67"/><line class="cls-8" x1="188.37" y1="169.09" x2="188.37" y2="217.33"/><line class="cls-8" x1="188.37" y1="224.98" x2="188.37" y2="278.02"/><line class="cls-8" x1="196.12" y1="169.09" x2="188.37" y2="169.09"/><line class="cls-8" x1="196.12" y1="101.67" x2="188.37" y2="101.67"/><line class="cls-8" x1="205.81" y1="217.33" x2="205.81" y2="224.98"/><line class="cls-8" x1="292.5" y1="217.33" x2="292.5" y2="224.98"/><polyline class="cls-8" points="29.36 217.33 29.36 221.21 29.36 224.98"/><polyline class="cls-8" points="67.92 217.33 67.92 221.21 67.92 224.98"/><line class="cls-8" x1="349.31" y1="217.33" x2="292.5" y2="217.33"/><line class="cls-8" x1="205.81" y1="217.33" x2="196.12" y2="217.33"/><line class="cls-8" x1="188.37" y1="217.33" x2="67.92" y2="217.33"/><polyline class="cls-8" points="29.36 217.33 19.78 217.33 19.78 224.98 29.36 224.98"/><line class="cls-8" x1="75.67" y1="224.98" x2="188.37" y2="224.98"/><line class="cls-8" x1="196.12" y1="224.98" x2="205.81" y2="224.98"/><polyline class="cls-8" points="292.5 224.98 349.31 224.98 349.31 217.33"/><line class="cls-8" x1="292.5" y1="217.33" x2="292.5" y2="224.98"/><line class="cls-8" x1="205.81" y1="217.33" x2="205.81" y2="224.98"/><line class="cls-8" x1="67.92" y1="217.33" x2="29.36" y2="217.33"/><line class="cls-8" x1="67.92" y1="224.98" x2="29.36" y2="224.98"/><path class="cls-8" d="M67.92,216.78a38.43,38.43,0,0,0-2.33-13.17" transform="translate(0 0.5)"/><line class="cls-8" x1="29.36" y1="217.33" x2="65.57" y2="204.17"/><polyline class="cls-8" points="67.92 224.98 67.92 221.21 67.92 217.33 67.92 221.21"/><polyline class="cls-8" points="29.36 224.98 29.36 221.21 29.36 217.33 29.36 221.21"/><line class="cls-8" x1="188.37" y1="278.02" x2="75.67" y2="278.02"/><line class="cls-8" x1="67.92" y1="278.02" x2="19.78" y2="278.02"/><polyline class="cls-8" points="196.12 285.77 188.37 285.77 19.78 285.77"/><polyline class="cls-8" points="349.31 0.5 349.31 8.15 349.31 19.78"/><polyline class="cls-8" points="253.03 0.5 253.03 8.15 253.03 19.78"/><line class="cls-8" x1="364.81" y1="0.5" x2="349.31" y2="0.5"/><line class="cls-8" x1="253.03" y1="0.5" x2="222.12" y2="0.5"/><line class="cls-8" x1="241.4" y1="19.78" x2="253.03" y2="19.78"/><line class="cls-8" x1="349.1" y1="0.5" x2="349.31" y2="0.5"/><line class="cls-8" x1="349.1" y1="19.78" x2="349.31" y2="19.78"/><path class="cls-8" d="M256.9,7.6a88.68,88.68,0,0,0,88.68,88.68" transform="translate(0 0.5)"/><polyline class="cls-8" points="253.03 0.5 256.8 0.5 256.8 8.15 253.03 8.15 253.03 0.5"/><polyline class="cls-8" points="349.31 8.15 345.53 8.15 345.53 0.5 349.31 0.5 349.31 8.15"/><line class="cls-8" x1="345.53" y1="8.15" x2="345.53" y2="96.88"/><polyline class="cls-8" points="253.03 19.78 253.03 8.15 253.03 0.5 253.03 8.15"/><polyline class="cls-8" points="349.31 19.78 349.31 8.15 349.31 0.5 349.31 8.15"/><line class="cls-8" x1="169.09" y1="19.78" x2="169.09" y2="84.34"/><line class="cls-8" x1="188.37" y1="65.06" x2="188.37" y2="0.5"/><polyline class="cls-8" points="169.09 84.34 188.37 84.34 241.4 84.34"/><line class="cls-8" x1="222.12" y1="65.06" x2="188.37" y2="65.06"/><polyline class="cls-8" points="241.4 84.34 241.4 65.06 241.4 19.78"/><polyline class="cls-8" points="222.13 0.5 222.13 19.78 222.13 65.06"/><polyline class="cls-8" points="188.37 0.5 169.09 0.5 0.5 0.5"/><line class="cls-8" x1="0.5" y1="0.5" x2="0.5" y2="0.5"/><line class="cls-8" x1="19.78" y1="19.78" x2="169.09" y2="19.78"/><polyline class="cls-8" points="188.37 12.03 222.13 12.03 222.13 0.5 188.37 0.5 188.37 12.03"/><line class="cls-8" x1="34.56" y1="195.61" x2="68.63" y2="195.61"/><polyline class="cls-8" points="32.52 197.03 19.78 197.03 19.78 160.42"/><line class="cls-8" x1="40.58" y1="178.78" x2="40.58" y2="165.21"/><polyline class="cls-8" points="68.53 195.61 40.58 192.34 40.58 178.78"/><line class="cls-8" x1="68.53" y1="161.95" x2="40.58" y2="165.21"/><line class="cls-8" x1="68.53" y1="194.79" x2="40.58" y2="191.53"/><line class="cls-8" x1="68.53" y1="162.77" x2="40.58" y2="166.03"/><line class="cls-8" x1="34.56" y1="161.95" x2="68.63" y2="161.95"/><line class="cls-8" x1="19.78" y1="160.42" x2="32.52" y2="160.42"/><polyline class="cls-8" points="68.53 195.61 72.3 195.2 75.87 193.67 79.03 191.43 81.58 188.37 83.32 184.8 84.23 180.82 84.23 176.74 83.32 172.76 81.58 169.19 79.03 166.13 75.87 163.79 72.3 162.36 68.53 161.95"/><polyline class="cls-8" points="68.53 194.79 72.1 194.28 75.46 192.96 78.42 190.71 80.87 187.86 82.5 184.49 83.32 180.72 83.32 176.84 82.5 173.07 80.87 169.7 78.42 166.74 75.46 164.6 72.1 163.28 68.53 162.77"/><path class="cls-8" d="M34.71,194.65a154.63,154.63,0,0,0,0-32.83" transform="translate(0 0.5)"/><path class="cls-8" d="M32.58,196.53a2.17,2.17,0,0,0,2.18-1.86" transform="translate(0 0.5)"/><path class="cls-8" d="M34.76,161.8a2.16,2.16,0,0,0-2.18-1.88" transform="translate(0 0.5)"/><path class="cls-8" d="M29.67,178.23A1.79,1.79,0,1,0,27.88,180a1.79,1.79,0,0,0,1.79-1.78" transform="translate(0 0.5)"/><polyline class="cls-8" points="41.81 144.1 19.78 144.1 19.78 92.09 41.81 92.09"/><line class="cls-8" x1="19.78" y1="109.83" x2="19.78" y2="126.25"/><line class="cls-8" x1="37.42" y1="113.71" x2="37.42" y2="116.46"/><line class="cls-8" x1="33.03" y1="118.09" x2="35.79" y2="118.09"/><line class="cls-8" x1="37.42" y1="119.62" x2="37.42" y2="122.48"/><line class="cls-8" x1="39.05" y1="118.09" x2="41.81" y2="118.09"/><path class="cls-8" d="M32.26,131.35a23.16,23.16,0,0,0,11,9" transform="translate(0 0.5)"/><path class="cls-8" d="M28.93,117.52a23.23,23.23,0,0,0,3.25,13.83" transform="translate(0 0.5)"/><path class="cls-8" d="M43.23,94.64a23.14,23.14,0,0,0-11,9" transform="translate(0 0.5)"/><path class="cls-8" d="M32.18,103.64a23.2,23.2,0,0,0-3.25,13.83" transform="translate(0 0.5)"/><path class="cls-8" d="M54.93,135.15a42.65,42.65,0,0,0,4.3-15.79" transform="translate(0 0.5)"/><path class="cls-8" d="M52.67,96.43A13.21,13.21,0,0,0,41.8,91.5" transform="translate(0 0.5)"/><path class="cls-8" d="M59.28,119.37a24.7,24.7,0,0,0,0-3.65" transform="translate(0 0.5)"/><path class="cls-8" d="M33,103a94.78,94.78,0,0,0,0,29.12" transform="translate(0 0.5)"/><path class="cls-8" d="M45.27,92.92A32.69,32.69,0,0,0,24,100.29" transform="translate(0 0.5)"/><path class="cls-8" d="M22.51,102.64a64.82,64.82,0,0,0-1.61,14.89" transform="translate(0 0.5)"/><path class="cls-8" d="M23.92,100.21a4.41,4.41,0,0,0-1.49,2.4" transform="translate(0 0.5)"/><path class="cls-8" d="M24,102.85a110.89,110.89,0,0,0-1.06,14.68" transform="translate(0 0.5)"/><path class="cls-8" d="M45.2,92.81a29.46,29.46,0,0,0-19.84,7.35" transform="translate(0 0.5)"/><path class="cls-8" d="M25.43,100.22A4.31,4.31,0,0,0,24,102.87" transform="translate(0 0.5)"/><path class="cls-8" d="M25.33,134.8a29.4,29.4,0,0,0,19.83,7.37" transform="translate(0 0.5)"/><path class="cls-8" d="M24,134.77a32.72,32.72,0,0,0,21.24,7.4" transform="translate(0 0.5)"/><path class="cls-8" d="M22.94,117.51a112.42,112.42,0,0,0,1,14.67" transform="translate(0 0.5)"/><path class="cls-8" d="M20.9,117.47a65.36,65.36,0,0,0,1.59,14.89" transform="translate(0 0.5)"/><path class="cls-8" d="M24,132.11a4.29,4.29,0,0,0,1.42,2.65" transform="translate(0 0.5)"/><path class="cls-8" d="M22.43,132.37a4.4,4.4,0,0,0,1.48,2.4" transform="translate(0 0.5)"/><path class="cls-8" d="M41.8,143.49a13.21,13.21,0,0,0,10.87-4.93" transform="translate(0 0.5)"/><path class="cls-8" d="M52.8,138.65A21.09,21.09,0,0,0,55,135.19" transform="translate(0 0.5)"/><path class="cls-8" d="M55,99.9a20.28,20.28,0,0,0-2.24-3.46" transform="translate(0 0.5)"/><path class="cls-8" d="M59.23,115.73a42.65,42.65,0,0,0-4.3-15.79" transform="translate(0 0.5)"/><path class="cls-8" d="M55.64,124.71a30.45,30.45,0,0,0,0-14.33" transform="translate(0 0.5)"/><path class="cls-8" d="M43.16,140.32a7.8,7.8,0,0,0,6.44-2.69" transform="translate(0 0.5)"/><path class="cls-8" d="M49.61,137.64a28.09,28.09,0,0,0,5.94-13" transform="translate(0 0.5)"/><path class="cls-8" d="M49.6,97.35a7.79,7.79,0,0,0-6.44-2.68" transform="translate(0 0.5)"/><path class="cls-8" d="M55.55,110.4a28.13,28.13,0,0,0-5.94-13" transform="translate(0 0.5)"/><path class="cls-8" d="M40.89,117.54A3.42,3.42,0,1,0,37.47,121a3.42,3.42,0,0,0,3.42-3.42" transform="translate(0 0.5)"/><path class="cls-8" d="M39.87,117.54a2.4,2.4,0,1,0-2.4,2.4,2.39,2.39,0,0,0,2.4-2.4" transform="translate(0 0.5)"/><line class="cls-8" x1="24.57" y1="31.3" x2="24.57" y2="80.46"/><line class="cls-8" x1="29.36" y1="86.27" x2="134.62" y2="86.27"/><line class="cls-8" x1="29.36" y1="25.59" x2="134.62" y2="25.59"/><line class="cls-8" x1="164.3" y1="92.09" x2="19.78" y2="92.09"/><polyline class="cls-8" points="164.3 92.09 164.3 19.78 19.78 19.78 19.78 92.09"/><line class="cls-8" x1="117.69" y1="35.58" x2="35.38" y2="35.58"/><line class="cls-8" x1="32.93" y1="38.54" x2="32.93" y2="73.32"/><line class="cls-8" x1="117.69" y1="76.18" x2="35.38" y2="76.18"/><line class="cls-8" x1="49.86" y1="54.15" x2="49.86" y2="50.58"/><line class="cls-8" x1="48.44" y1="55.88" x2="45.38" y2="55.88"/><line class="cls-8" x1="49.86" y1="57.72" x2="49.86" y2="61.29"/><line class="cls-8" x1="51.39" y1="55.88" x2="54.35" y2="55.88"/><path class="cls-8" d="M134.67,85.67c14,0,25.34-13.58,25.34-30.34S148.67,25,134.67,25" transform="translate(0 0.5)"/><path class="cls-8" d="M24.57,79.91c0,3.18,2.17,5.76,4.84,5.76" transform="translate(0 0.5)"/><path class="cls-8" d="M29.41,25c-2.67,0-4.84,2.58-4.84,5.76" transform="translate(0 0.5)"/><path class="cls-8" d="M49.91,52.32a3.06,3.06,0,0,0,0,6,3.06,3.06,0,0,0,0-6" transform="translate(0 0.5)"/><path class="cls-8" d="M117.74,75.68c9.32,0,16.88-9.11,16.88-20.35S127.06,35,117.74,35" transform="translate(0 0.5)"/><path class="cls-8" d="M35.43,35.08A2.7,2.7,0,0,0,33,38" transform="translate(0 0.5)"/><path class="cls-8" d="M33,72.77a2.69,2.69,0,0,0,2.4,2.91" transform="translate(0 0.5)"/><path class="cls-8" d="M49.91,51.3c-1.83,0-3.31,1.8-3.31,4s1.48,4,3.31,4,3.32-1.81,3.32-4-1.49-4-3.32-4" transform="translate(0 0.5)"/><polyline class="cls-8" points="24.57 343.6 77.6 343.6 77.6 290.56 24.57 290.56 24.57 343.6"/><polyline class="cls-8" points="29.36 338.7 72.81 338.7 72.81 300.15 29.36 300.15 29.36 338.7"/><polyline class="cls-8" points="295.35 697.7 294.94 697.7 294.94 750.74 295.35 750.74 295.35 697.7"/><polyline class="cls-8" points="293.42 752.68 293.42 752.17 204.79 752.17 204.79 752.68 293.42 752.68"/><polyline class="cls-8" points="202.85 750.74 203.36 750.74 203.36 697.7 202.85 697.7 202.85 750.74"/><polyline class="cls-8" points="295.86 695.26 293.42 695.26 293.42 697.7 295.86 697.7 295.86 695.26"/><polyline class="cls-8" points="295.86 750.74 293.42 750.74 293.42 753.09 295.86 753.09 295.86 750.74"/><polyline class="cls-8" points="204.79 753.09 204.79 750.74 202.34 750.74 202.34 753.09 204.79 753.09"/><polyline class="cls-8" points="202.34 697.7 204.79 697.7 204.79 695.26 202.34 695.26 202.34 697.7"/><line class="cls-8" x1="293.42" y1="696.48" x2="293.42" y2="750.74"/><line class="cls-8" x1="295.86" y1="753.08" x2="295.86" y2="696.48"/><line class="cls-8" x1="293.42" y1="750.74" x2="204.79" y2="750.74"/><line class="cls-8" x1="202.34" y1="753.08" x2="295.86" y2="753.08"/><line class="cls-8" x1="204.79" y1="750.74" x2="204.79" y2="696.48"/><line class="cls-8" x1="202.34" y1="696.48" x2="202.34" y2="753.08"/><polyline class="cls-8" points="295.86 696.48 295.86 695.26 293.42 695.26 293.42 696.48"/><polyline class="cls-8" points="204.79 696.48 204.79 695.26 202.34 695.26 202.34 696.48"/><polyline class="cls-8" points="202.34 753.09 295.86 753.09 295.86 696.48 293.42 696.48 293.42 750.74 204.79 750.74 204.79 696.48 202.34 696.48 202.34 753.09"/><polyline class="cls-8" points="207.23 735.75 291.07 735.75 291.07 704.95 207.23 704.95 207.23 735.75"/><polyline class="cls-8" points="207.23 732.69 291.07 732.69 291.07 704.95 207.23 704.95 207.23 732.69"/><line class="cls-5" x1="196.12" y1="285.77" x2="196.12" y2="287.27"/><line class="cls-9" x1="196.12" y1="290.29" x2="196.12" y2="385.4"/><polyline class="cls-5" points="196.12 386.91 196.12 388.41 194.62 388.41"/><line class="cls-10" x1="191.58" y1="388.41" x2="22.8" y2="388.41"/><line class="cls-5" x1="21.28" y1="388.41" x2="19.78" y2="388.41"/><polyline class="cls-8" points="19.78 663.54 0.5 663.54 0.5 567.16 19.78 567.16 19.78 663.54"/><polyline class="cls-8" points="19.78 364.81 0.5 364.81 0.5 249.15 19.78 249.15 19.78 364.81"/><line class="cls-8" x1="364.81" y1="567.16" x2="364.81" y2="0.5"/><line class="cls-8" x1="349.31" y1="19.78" x2="349.31" y2="567.16"/><polyline class="cls-8" points="349.31 567.16 349.31 644.26 349.31 663.54 364.81 663.54 364.81 644.26 364.81 567.16"/></svg>