<svg id="_457" data-name="457" xmlns="http://www.w3.org/2000/svg" viewBox="0 0 578.71 790.05"><defs><style>.cls-1{isolation:isolate;font-size:12px;fill:#969696;}.cls-1,.cls-3,.cls-5{font-family:PTSans-Regular, PT Sans;}.cls-2,.cls-4,.cls-6,.cls-7,.cls-8,.cls-9{fill:none;stroke-linecap:round;stroke-linejoin:round;}.cls-2{stroke:#969696;stroke-width:0.75px;}.cls-3{font-size:40px;}.cls-4,.cls-6,.cls-7,.cls-8,.cls-9{stroke:#000;}.cls-4,.cls-8,.cls-9{stroke-width:0.5px;}.cls-5{font-size:36px;}.cls-6{stroke-width:0.25px;stroke-dasharray:1 1;}.cls-8{stroke-dasharray:3.04 3.04;}.cls-9{stroke-dasharray:3.05 3.05;}</style></defs><title>15floor_457flat</title><text class="cls-1" transform="translate(283.78 10.2)">двор</text><line class="cls-2" x1="273.02" y1="4.22" x2="273.02" y2="13.02"/><polyline class="cls-2" points="276.52 7.72 273.02 4.22 269.52 7.72"/><text class="cls-3" transform="translate(414.29 368.03)">2E</text><text class="cls-3" transform="translate(388.03 418.2)">35.51</text><text class="cls-3" transform="translate(382.75 318.12)">№457</text><polyline class="cls-4" points="373.74 429.02 373.74 279.94 498.07 279.94 498.07 429.02"/><line class="cls-4" x1="373.74" y1="329.73" x2="498.07" y2="329.73"/><line class="cls-4" x1="373.74" y1="429.02" x2="498.07" y2="429.02"/><line class="cls-4" x1="373.74" y1="379.51" x2="498.07" y2="379.51"/><text class="cls-5" transform="translate(393.32 193.3)">11.94</text><text class="cls-5" transform="translate(123.69 193.3)">9.70</text><text class="cls-5" transform="translate(264.38 653.46)">5.28</text><text class="cls-5" transform="translate(99.31 653.46)">3.59</text><text class="cls-5" transform="translate(447.43 653.46)">2.91</text><text class="cls-5" transform="translate(108.92 446.86)">2.09</text><line class="cls-6" x1="188.22" y1="696.29" x2="188.22" y2="613.04"/><line class="cls-6" x1="195.86" y1="696.29" x2="195.86" y2="613.04"/><line class="cls-6" x1="395.16" y1="707.26" x2="395.16" y2="624.01"/><line class="cls-6" x1="402.9" y1="707.26" x2="402.9" y2="624.01"/><line class="cls-6" x1="391.07" y1="572.65" x2="303.48" y2="572.65"/><line class="cls-6" x1="391.07" y1="565.18" x2="303.48" y2="565.18"/><line class="cls-6" x1="274.05" y1="789.47" x2="364.13" y2="789.47"/><line class="cls-7" x1="578.21" y1="101.12" x2="532.05" y2="101.12"/><line class="cls-7" x1="360.66" y1="101.12" x2="282.2" y2="101.12"/><line class="cls-7" x1="528.18" y1="101.12" x2="528.18" y2="110.7"/><line class="cls-7" x1="364.53" y1="101.12" x2="364.53" y2="110.7"/><line class="cls-7" x1="528.18" y1="100.1" x2="528.18" y2="101.12"/><line class="cls-7" x1="364.53" y1="100.1" x2="364.53" y2="101.12"/><line class="cls-7" x1="532.05" y1="110.7" x2="532.05" y2="110.7"/><polyline class="cls-7" points="532.05 101.12 529.2 101.12 529.2 110.7 529.2 101.12"/><line class="cls-7" x1="529.2" y1="100.1" x2="528.18" y2="100.1"/><line class="cls-7" x1="360.66" y1="110.7" x2="360.66" y2="110.7"/><polyline class="cls-7" points="360.66 101.12 363.51 101.12 363.51 110.7 363.51 101.12"/><line class="cls-7" x1="363.51" y1="100.1" x2="364.53" y2="100.1"/><polyline class="cls-7" points="532.05 110.7 532.05 116.51 532.05 134.75"/><polyline class="cls-7" points="360.66 110.7 360.66 116.51 360.66 134.75"/><line class="cls-7" x1="278.84" y1="134.75" x2="289.43" y2="134.75"/><line class="cls-7" x1="308.69" y1="134.75" x2="360.66" y2="134.75"/><line class="cls-7" x1="532.05" y1="134.75" x2="558.95" y2="134.75"/><line class="cls-7" x1="578.21" y1="134.75" x2="578.21" y2="134.75"/><polyline class="cls-7" points="529.2 100.1 578.21 100.1 578.21 132.38"/><line class="cls-7" x1="363.51" y1="100.1" x2="282.3" y2="100.1"/><line class="cls-7" x1="364.53" y1="100.1" x2="528.18" y2="100.1"/><line class="cls-7" x1="360.66" y1="134.75" x2="532.05" y2="134.75"/><polyline class="cls-7" points="360.66 116.51 365.96 116.51 365.96 112.64 368.4 112.64 368.4 110.7 360.66 110.7"/><polyline class="cls-7" points="446.36 110.7 442.48 110.7 442.48 112.64 444.93 112.64 444.93 116.51 446.36 116.51"/><line class="cls-7" x1="442.48" y1="110.7" x2="368.4" y2="110.7"/><polyline class="cls-7" points="365.96 118.44 371.77 118.44 439.12 118.44"/><polyline class="cls-7" points="371.77 118.44 371.77 112.64 365.96 112.64 365.96 118.44"/><polyline class="cls-7" points="444.93 112.64 439.12 112.64 439.12 118.44 444.93 118.44 444.93 112.64"/><line class="cls-7" x1="439.12" y1="112.64" x2="371.77" y2="112.64"/><line class="cls-7" x1="371.77" y1="118.44" x2="439.12" y2="118.44"/><line class="cls-7" x1="371.77" y1="115.49" x2="439.12" y2="115.49"/><polyline class="cls-7" points="446.36 116.51 447.78 116.51 447.78 112.64 450.23 112.64 450.23 110.7 446.36 110.7"/><polyline class="cls-7" points="532.05 110.7 524.31 110.7 524.31 112.64 526.75 112.64 526.75 116.51 532.05 116.51"/><line class="cls-7" x1="524.31" y1="110.7" x2="450.23" y2="110.7"/><polyline class="cls-7" points="447.78 118.44 453.59 118.44 520.95 118.44"/><polyline class="cls-7" points="453.59 118.44 453.59 112.64 447.78 112.64 447.78 118.44"/><polyline class="cls-7" points="526.75 112.64 520.95 112.64 520.95 118.44 526.75 118.44 526.75 112.64"/><line class="cls-7" x1="520.95" y1="112.64" x2="453.59" y2="112.64"/><line class="cls-7" x1="453.59" y1="118.44" x2="520.95" y2="118.44"/><line class="cls-7" x1="453.59" y1="115.49" x2="520.95" y2="115.49"/><polyline class="cls-7" points="360.66 134.75 360.66 116.51 360.66 110.7 360.66 116.51"/><polyline class="cls-7" points="532.05 134.75 532.05 116.51 532.05 110.7 532.05 116.51"/><line class="cls-7" x1="364.53" y1="100.1" x2="364.53" y2="101.12"/><polyline class="cls-7" points="364.53 110.7 363.51 110.7 364.53 110.7"/><polyline class="cls-7" points="363.51 110.7 360.66 110.7 363.51 110.7"/><line class="cls-7" x1="528.18" y1="100.1" x2="528.18" y2="101.12"/><polyline class="cls-7" points="528.18 110.7 529.2 110.7 528.18 110.7"/><polyline class="cls-7" points="529.2 110.7 532.05 110.7 529.2 110.7"/><line class="cls-7" x1="364.53" y1="101.12" x2="364.53" y2="110.7"/><line class="cls-7" x1="528.18" y1="101.12" x2="528.18" y2="110.7"/><polyline class="cls-7" points="2.79 100.1 0.6 100.61 2.79 100.1 52.21 90.01"/><line class="cls-7" x1="55.98" y1="89.2" x2="57.92" y2="98.57"/><line class="cls-7" x1="55.78" y1="88.28" x2="55.98" y2="89.2"/><line class="cls-7" x1="54.15" y1="99.39" x2="54.15" y2="99.39"/><polyline class="cls-7" points="52.21 90.01 55.07 89.4 57 98.78 55.07 89.4"/><line class="cls-7" x1="54.86" y1="88.49" x2="55.78" y2="88.28"/><polyline class="cls-7" points="54.15 99.39 55.27 105.09 58.94 122.93 19.81 131.08"/><line class="cls-7" x1="54.86" y1="88.49" x2="0.5" y2="99.59"/><line class="cls-7" x1="140.15" y1="70.86" x2="55.78" y2="88.28"/><line class="cls-7" x1="140.15" y1="106.32" x2="58.94" y2="122.93"/><polyline class="cls-7" points="140.15 87.57 134.96 88.69 134.24 84.92 131.9 85.33 131.49 83.49 139.03 81.96 140.15 81.66"/><polyline class="cls-7" points="54.15 99.39 61.69 97.86 62.1 99.69 59.65 100.2 60.47 103.97 55.27 105.09"/><line class="cls-7" x1="61.69" y1="97.86" x2="131.49" y2="83.49"/><polyline class="cls-7" points="135.36 90.52 129.76 91.75 66.48 104.69"/><polyline class="cls-7" points="129.76 91.75 128.53 86.04 134.24 84.92 135.36 90.52"/><polyline class="cls-7" points="59.65 100.2 65.36 99.08 66.48 104.69 60.88 105.91 59.65 100.2"/><line class="cls-7" x1="65.36" y1="99.08" x2="128.54" y2="86.04"/><line class="cls-7" x1="129.76" y1="91.75" x2="66.48" y2="104.69"/><line class="cls-7" x1="129.15" y1="88.89" x2="65.97" y2="101.83"/><line class="cls-7" x1="139.03" y1="81.96" x2="140.15" y2="87.57"/><polyline class="cls-7" points="58.94 122.93 55.27 105.09 54.15 99.39 55.27 105.09"/><line class="cls-7" x1="55.78" y1="88.28" x2="55.98" y2="89.2"/><polyline class="cls-7" points="57.92 98.57 57 98.78 57.92 98.57"/><polyline class="cls-7" points="57 98.78 54.15 99.39 57 98.78"/><line class="cls-7" x1="55.98" y1="89.2" x2="57.92" y2="98.57"/><polyline class="cls-7" points="282.2 101.12 277.51 100.1 282.2 101.12"/><line class="cls-7" x1="277.51" y1="100.1" x2="274.35" y2="99.49"/><line class="cls-7" x1="270.58" y1="98.68" x2="268.65" y2="108.15"/><line class="cls-7" x1="270.79" y1="97.76" x2="270.58" y2="98.68"/><line class="cls-7" x1="272.42" y1="108.86" x2="272.42" y2="108.86"/><polyline class="cls-7" points="274.35 99.49 271.5 98.88 269.56 108.36 271.5 98.88"/><line class="cls-7" x1="271.7" y1="97.96" x2="270.79" y2="97.76"/><polyline class="cls-7" points="272.42 108.86 271.3 114.57 267.52 132.5 278.83 134.75"/><line class="cls-7" x1="282.3" y1="100.1" x2="271.7" y2="97.96"/><line class="cls-7" x1="140.15" y1="70.86" x2="270.79" y2="97.76"/><line class="cls-7" x1="140.15" y1="106.32" x2="267.52" y2="132.51"/><polyline class="cls-7" points="140.15 87.57 145.35 88.69 146.16 84.92 148.51 85.33 148.91 83.49 141.37 81.96 140.15 81.66"/><polyline class="cls-7" points="221.47 98.47 217.7 97.66 217.29 99.49 219.73 100 218.92 103.77 220.35 104.08"/><line class="cls-7" x1="217.7" y1="97.66" x2="148.91" y2="83.49"/><polyline class="cls-7" points="144.94 90.52 150.65 91.75 212.91 104.48"/><polyline class="cls-7" points="150.65 91.75 151.77 86.04 146.16 84.92 144.94 90.52"/><polyline class="cls-7" points="219.73 100 214.03 98.88 212.91 104.48 218.51 105.71 219.73 100"/><line class="cls-7" x1="214.03" y1="98.88" x2="151.77" y2="86.04"/><line class="cls-7" x1="150.65" y1="91.75" x2="212.91" y2="104.48"/><line class="cls-7" x1="151.26" y1="88.89" x2="213.42" y2="101.73"/><line class="cls-7" x1="141.37" y1="81.96" x2="140.15" y2="87.57"/><polyline class="cls-7" points="220.35 104.08 221.77 104.38 222.49 100.61 224.83 101.12 225.24 99.18 221.47 98.47"/><polyline class="cls-7" points="272.42 108.86 264.88 107.34 264.47 109.27 266.81 109.68 266.1 113.45 271.3 114.57"/><line class="cls-7" x1="264.88" y1="107.34" x2="225.24" y2="99.18"/><polyline class="cls-7" points="221.37 106.22 226.97 107.44 259.98 114.27"/><polyline class="cls-7" points="226.97 107.44 228.19 101.73 222.49 100.61 221.37 106.22"/><polyline class="cls-7" points="266.81 109.68 261.21 108.56 259.98 114.27 265.69 115.39 266.81 109.68"/><line class="cls-7" x1="261.21" y1="108.56" x2="228.19" y2="101.73"/><line class="cls-7" x1="226.97" y1="107.44" x2="259.98" y2="114.27"/><line class="cls-7" x1="227.58" y1="104.59" x2="260.6" y2="111.41"/><polyline class="cls-7" points="267.52 132.5 271.3 114.57 272.42 108.86 271.3 114.57"/><line class="cls-7" x1="270.79" y1="97.76" x2="270.58" y2="98.68"/><polyline class="cls-7" points="268.64 108.15 269.56 108.36 268.64 108.15"/><polyline class="cls-7" points="269.56 108.36 272.42 108.86 269.56 108.36"/><line class="cls-7" x1="270.58" y1="98.68" x2="268.65" y2="108.15"/><line class="cls-7" x1="19.81" y1="770.29" x2="19.81" y2="529.5"/><line class="cls-7" x1="19.81" y1="433.31" x2="19.81" y2="211.78"/><line class="cls-7" x1="0.55" y1="211.78" x2="0.55" y2="433.31"/><line class="cls-7" x1="0.55" y1="529.5" x2="0.55" y2="789.55"/><line class="cls-7" x1="501.28" y1="789.55" x2="501.28" y2="739.41"/><line class="cls-7" x1="482.02" y1="720.15" x2="482.02" y2="770.29"/><line class="cls-7" x1="501.28" y1="739.41" x2="578.21" y2="739.41"/><polyline class="cls-7" points="482.02 720.15 501.28 720.15 558.95 720.15"/><polyline class="cls-7" points="366.47 789.54 366.47 781.8 366.47 770.29"/><polyline class="cls-7" points="58.33 789.54 270.17 789.54 270.17 781.8 270.17 770.29"/><polyline class="cls-7" points="501.28 789.54 482.02 789.54 462.76 789.54"/><line class="cls-7" x1="482.02" y1="770.29" x2="462.76" y2="770.29"/><line class="cls-7" x1="270.17" y1="770.29" x2="58.33" y2="770.29"/><line class="cls-7" x1="270.17" y1="789.55" x2="270.38" y2="789.55"/><line class="cls-7" x1="270.48" y1="789.55" x2="270.48" y2="789.55"/><line class="cls-7" x1="270.58" y1="789.55" x2="270.58" y2="789.55"/><line class="cls-7" x1="270.17" y1="770.29" x2="270.38" y2="770.29"/><line class="cls-7" x1="270.48" y1="770.29" x2="270.48" y2="770.29"/><line class="cls-7" x1="270.58" y1="770.29" x2="270.58" y2="770.29"/><path class="cls-7" d="M362.69,721.48a88.61,88.61,0,0,0-88.6,88.61" transform="translate(-0.05 -28.34)"/><polyline class="cls-7" points="270.17 789.54 274.05 789.54 274.05 781.8 270.17 781.8 270.17 789.54"/><polyline class="cls-7" points="366.47 781.8 362.6 781.8 362.6 789.54 366.47 789.54 366.47 781.8"/><line class="cls-7" x1="362.6" y1="781.8" x2="362.6" y2="693.25"/><polyline class="cls-7" points="270.17 770.29 270.17 781.8 270.17 789.54 270.17 781.8"/><polyline class="cls-7" points="366.47 770.29 366.47 781.8 366.47 789.54 366.47 781.8"/><line class="cls-7" x1="289.43" y1="211.78" x2="289.43" y2="433.31"/><line class="cls-7" x1="289.43" y1="529.5" x2="289.43" y2="565.17"/><line class="cls-7" x1="297.07" y1="565.17" x2="297.07" y2="529.5"/><line class="cls-7" x1="297.07" y1="433.31" x2="297.07" y2="211.78"/><line class="cls-7" x1="289.43" y1="565.17" x2="289.43" y2="572.91"/><line class="cls-7" x1="195.99" y1="565.17" x2="195.99" y2="572.91"/><line class="cls-7" x1="308.69" y1="565.17" x2="308.69" y2="572.91"/><line class="cls-7" x1="385.73" y1="565.17" x2="385.73" y2="572.91"/><line class="cls-7" x1="289.43" y1="572.91" x2="308.69" y2="572.91"/><line class="cls-7" x1="385.73" y1="572.91" x2="395.3" y2="572.91"/><polyline class="cls-7" points="403.05 572.91 558.95 572.91 558.95 565.16 385.73 565.16"/><line class="cls-7" x1="308.69" y1="565.17" x2="297.07" y2="565.17"/><line class="cls-7" x1="188.35" y1="688.46" x2="195.99" y2="688.46"/><line class="cls-7" x1="188.35" y1="621.01" x2="195.99" y2="621.01"/><line class="cls-7" x1="188.35" y1="512.18" x2="188.35" y2="565.17"/><line class="cls-7" x1="188.35" y1="572.91" x2="188.35" y2="621.01"/><polyline class="cls-7" points="188.35 688.46 188.35 770.29 195.99 770.29 195.99 688.46"/><line class="cls-7" x1="195.99" y1="621.01" x2="195.99" y2="504.54"/><polyline class="cls-7" points="29.49 572.91 29.49 569.04 29.49 565.16"/><polyline class="cls-7" points="67.91 572.91 67.91 569.04 67.91 565.16"/><line class="cls-7" x1="188.35" y1="565.17" x2="75.65" y2="565.17"/><polyline class="cls-7" points="29.49 565.16 19.81 565.16 19.81 572.91 29.49 572.91"/><line class="cls-7" x1="67.91" y1="572.91" x2="188.35" y2="572.91"/><line class="cls-7" x1="67.91" y1="572.91" x2="29.49" y2="572.91"/><line class="cls-7" x1="67.91" y1="565.17" x2="29.49" y2="565.17"/><path class="cls-7" d="M65.73,614.35a38.36,38.36,0,0,0,2.32-13.16" transform="translate(-0.05 -28.34)"/><line class="cls-7" x1="29.49" y1="572.91" x2="65.66" y2="586.05"/><polyline class="cls-7" points="67.91 565.16 67.91 569.04 67.91 572.91 67.91 569.04"/><polyline class="cls-7" points="29.49 565.16 29.49 569.04 29.49 572.91 29.49 569.04"/><line class="cls-7" x1="395.3" y1="626.81" x2="403.05" y2="626.81"/><line class="cls-7" x1="395.3" y1="694.17" x2="403.05" y2="694.17"/><line class="cls-7" x1="395.3" y1="572.91" x2="395.3" y2="626.81"/><line class="cls-7" x1="395.3" y1="694.17" x2="395.3" y2="770.29"/><line class="cls-7" x1="403.05" y1="770.29" x2="403.05" y2="694.17"/><line class="cls-7" x1="403.05" y1="626.81" x2="403.05" y2="572.91"/><polyline class="cls-7" points="195.99 504.54 188.35 504.54 19.81 504.54"/><line class="cls-7" x1="19.81" y1="512.18" x2="67.91" y2="512.18"/><polyline class="cls-7" points="75.65 565.16 75.65 512.18 188.35 512.18"/><line class="cls-7" x1="67.91" y1="512.18" x2="67.91" y2="565.17"/><line class="cls-7" x1="578.21" y1="739.41" x2="578.21" y2="529.5"/><line class="cls-7" x1="578.21" y1="433.31" x2="578.21" y2="211.78"/><line class="cls-7" x1="558.95" y1="211.78" x2="558.95" y2="433.31"/><line class="cls-7" x1="558.95" y1="529.5" x2="558.95" y2="720.15"/><polyline class="cls-7" points="456.95 97.76 456.95 44.77 457.46 44.77 457.46 97.76 456.95 97.76"/><polyline class="cls-7" points="455.53 43.34 366.88 43.34 366.88 42.84 455.53 42.84 455.53 43.34"/><polyline class="cls-7" points="365.45 44.77 365.45 97.76 365.04 97.76 365.04 44.77 365.45 44.77"/><polyline class="cls-7" points="455.53 100.1 455.53 97.76 457.87 97.76 457.87 100.1 455.53 100.1"/><polyline class="cls-7" points="455.53 44.77 455.53 42.33 457.87 42.33 457.87 44.77 455.53 44.77"/><polyline class="cls-7" points="366.88 44.77 364.53 44.77 364.53 42.33 366.88 42.33 366.88 44.77"/><polyline class="cls-7" points="366.88 97.76 366.88 100.1 364.53 100.1 364.53 97.76 366.88 97.76"/><line class="cls-7" x1="455.53" y1="98.88" x2="455.53" y2="44.77"/><line class="cls-7" x1="457.87" y1="42.33" x2="457.87" y2="98.88"/><line class="cls-7" x1="455.53" y1="44.77" x2="366.88" y2="44.77"/><line class="cls-7" x1="364.53" y1="42.33" x2="457.87" y2="42.33"/><line class="cls-7" x1="366.88" y1="44.77" x2="366.88" y2="98.88"/><line class="cls-7" x1="364.53" y1="98.88" x2="364.53" y2="42.33"/><polyline class="cls-7" points="457.87 98.88 457.87 100.1 455.53 100.1 455.53 98.88"/><polyline class="cls-7" points="366.88 98.88 366.88 100.1 364.53 100.1 364.53 98.88"/><polyline class="cls-7" points="364.53 42.33 457.87 42.33 457.87 98.88 455.53 98.88 455.53 44.77 366.88 44.77 366.88 98.88 364.53 98.88 364.53 42.33"/><polyline class="cls-7" points="369.32 59.65 453.08 59.65 453.08 90.52 369.32 90.52 369.32 59.65"/><polyline class="cls-7" points="369.32 62.81 453.08 62.81 453.08 90.52 369.32 90.52 369.32 62.81"/><line class="cls-7" x1="0.55" y1="770.29" x2="0.55" y2="770.29"/><line class="cls-7" x1="0.55" y1="663.9" x2="0.55" y2="680.21"/><line class="cls-7" x1="25.31" y1="709.55" x2="25.31" y2="758.67"/><line class="cls-7" x1="30.71" y1="764.48" x2="149.93" y2="764.48"/><line class="cls-7" x1="30.71" y1="703.85" x2="149.93" y2="703.85"/><line class="cls-7" x1="183.46" y1="770.29" x2="19.81" y2="770.29"/><polyline class="cls-7" points="183.46 770.29 183.46 698.04 19.81 698.04 19.81 770.29"/><line class="cls-7" x1="130.78" y1="713.83" x2="37.44" y2="713.83"/><line class="cls-7" x1="34.79" y1="716.79" x2="34.79" y2="751.54"/><line class="cls-7" x1="130.78" y1="754.39" x2="37.44" y2="754.39"/><line class="cls-7" x1="53.95" y1="732.38" x2="53.95" y2="728.81"/><line class="cls-7" x1="52.21" y1="734.11" x2="48.85" y2="734.11"/><line class="cls-7" x1="53.95" y1="735.95" x2="53.95" y2="739.51"/><line class="cls-7" x1="55.58" y1="734.11" x2="58.94" y2="734.11"/><path class="cls-7" d="M150,792.71c15.84,0,28.68-13.57,28.68-30.31S165.87,732.08,150,732.08" transform="translate(-0.05 -28.34)"/><path class="cls-7" d="M25.36,787a5.61,5.61,0,0,0,5.45,5.76" transform="translate(-0.05 -28.34)"/><path class="cls-7" d="M30.81,732.08a5.61,5.61,0,0,0-5.45,5.76" transform="translate(-0.05 -28.34)"/><path class="cls-7" d="M54,759.39a3,3,0,1,0,2.8,3,2.91,2.91,0,0,0-2.8-3" transform="translate(-0.05 -28.34)"/><path class="cls-7" d="M130.87,782.73c10.56,0,19.11-9.11,19.11-20.33s-8.55-20.33-19.11-20.33" transform="translate(-0.05 -28.34)"/><path class="cls-7" d="M37.53,742.17a2.81,2.81,0,0,0-2.7,2.9" transform="translate(-0.05 -28.34)"/><path class="cls-7" d="M34.83,779.82a2.81,2.81,0,0,0,2.7,2.91" transform="translate(-0.05 -28.34)"/><path class="cls-7" d="M54,758.37a4,4,0,1,0,3.82,4,3.93,3.93,0,0,0-3.82-4" transform="translate(-0.05 -28.34)"/><polyline class="cls-7" points="41.82 698.04 19.81 698.04 19.81 646.07 41.82 646.07"/><line class="cls-7" x1="19.81" y1="663.9" x2="19.81" y2="680.21"/><line class="cls-7" x1="37.44" y1="667.67" x2="37.44" y2="670.43"/><line class="cls-7" x1="33.06" y1="672.06" x2="35.81" y2="672.06"/><line class="cls-7" x1="37.44" y1="673.69" x2="37.44" y2="676.44"/><line class="cls-7" x1="39.07" y1="672.06" x2="41.82" y2="672.06"/><path class="cls-7" d="M32.32,714.14a23.24,23.24,0,0,0,11,9" transform="translate(-0.05 -28.34)"/><path class="cls-7" d="M29,700.31a23.17,23.17,0,0,0,3.25,13.82" transform="translate(-0.05 -28.34)"/><path class="cls-7" d="M43.29,677.56a23.13,23.13,0,0,0-11,9" transform="translate(-0.05 -28.34)"/><path class="cls-7" d="M32.25,686.55A23.17,23.17,0,0,0,29,700.37" transform="translate(-0.05 -28.34)"/><path class="cls-7" d="M55,717.93a43,43,0,0,0,4.3-15.78" transform="translate(-0.05 -28.34)"/><path class="cls-7" d="M52.72,679.24a13.21,13.21,0,0,0-10.86-4.92" transform="translate(-0.05 -28.34)"/><path class="cls-7" d="M59.33,702.16a27.63,27.63,0,0,0,0-3.64" transform="translate(-0.05 -28.34)"/><path class="cls-7" d="M33.2,685.8a94.9,94.9,0,0,0,0,29.09" transform="translate(-0.05 -28.34)"/><path class="cls-7" d="M45.33,675.74A32.62,32.62,0,0,0,24.1,683.1" transform="translate(-0.05 -28.34)"/><path class="cls-7" d="M22.59,685.45A64.71,64.71,0,0,0,21,700.32" transform="translate(-0.05 -28.34)"/><path class="cls-7" d="M24.09,683a4.39,4.39,0,0,0-1.48,2.39" transform="translate(-0.05 -28.34)"/><path class="cls-7" d="M24.07,685.66A110.7,110.7,0,0,0,23,700.32" transform="translate(-0.05 -28.34)"/><path class="cls-7" d="M45.36,675.63A29.4,29.4,0,0,0,25.53,683" transform="translate(-0.05 -28.34)"/><path class="cls-7" d="M25.5,683a4.38,4.38,0,0,0-1.43,2.65" transform="translate(-0.05 -28.34)"/><path class="cls-7" d="M25.5,717.68a29.4,29.4,0,0,0,19.82,7.37" transform="translate(-0.05 -28.34)"/><path class="cls-7" d="M24.07,717.55A32.64,32.64,0,0,0,45.29,725" transform="translate(-0.05 -28.34)"/><path class="cls-7" d="M23,700.31a112.4,112.4,0,0,0,1,14.66" transform="translate(-0.05 -28.34)"/><path class="cls-7" d="M21,700.27a64.78,64.78,0,0,0,1.59,14.88" transform="translate(-0.05 -28.34)"/><path class="cls-7" d="M24.07,715a4.33,4.33,0,0,0,1.43,2.66" transform="translate(-0.05 -28.34)"/><path class="cls-7" d="M22.51,715.15a4.31,4.31,0,0,0,1.48,2.4" transform="translate(-0.05 -28.34)"/><path class="cls-7" d="M41.86,726.26a13.21,13.21,0,0,0,10.86-4.92" transform="translate(-0.05 -28.34)"/><path class="cls-7" d="M52.85,721.43A21.09,21.09,0,0,0,55.09,718" transform="translate(-0.05 -28.34)"/><path class="cls-7" d="M55.09,682.72a20.76,20.76,0,0,0-2.24-3.47" transform="translate(-0.05 -28.34)"/><path class="cls-7" d="M59.28,698.53A43,43,0,0,0,55,682.75" transform="translate(-0.05 -28.34)"/><path class="cls-7" d="M55.69,707.5a30.67,30.67,0,0,0,0-14.32" transform="translate(-0.05 -28.34)"/><path class="cls-7" d="M43.22,723.1a7.81,7.81,0,0,0,6.43-2.69" transform="translate(-0.05 -28.34)"/><path class="cls-7" d="M49.66,720.42a28.11,28.11,0,0,0,5.94-12.95" transform="translate(-0.05 -28.34)"/><path class="cls-7" d="M49.65,680.17a7.78,7.78,0,0,0-6.43-2.69" transform="translate(-0.05 -28.34)"/><path class="cls-7" d="M55.6,693.21a28.11,28.11,0,0,0-5.94-13" transform="translate(-0.05 -28.34)"/><path class="cls-7" d="M41,700.34a3.42,3.42,0,1,0-3.42,3.41A3.42,3.42,0,0,0,41,700.34" transform="translate(-0.05 -28.34)"/><path class="cls-7" d="M39.93,700.34a2.4,2.4,0,1,0-2.4,2.4,2.39,2.39,0,0,0,2.4-2.4" transform="translate(-0.05 -28.34)"/><line class="cls-7" x1="34.59" y1="594.51" x2="68.62" y2="594.51"/><polyline class="cls-7" points="32.55 593.09 19.81 593.09 19.81 629.67"/><line class="cls-7" x1="40.6" y1="611.43" x2="40.6" y2="624.98"/><polyline class="cls-7" points="68.52 594.51 40.6 597.77 40.6 611.43"/><line class="cls-7" x1="68.52" y1="628.24" x2="40.6" y2="624.98"/><line class="cls-7" x1="68.52" y1="595.43" x2="40.6" y2="598.69"/><line class="cls-7" x1="68.52" y1="627.32" x2="40.6" y2="624.06"/><line class="cls-7" x1="34.59" y1="628.24" x2="68.62" y2="628.24"/><line class="cls-7" x1="19.81" y1="629.67" x2="32.55" y2="629.67"/><polyline class="cls-7" points="68.52 594.51 72.29 595.02 75.85 596.45 79.01 598.79 81.56 601.85 83.29 605.41 84.21 609.39 84.21 613.47 83.29 617.34 81.56 621 79.01 624.06 75.85 626.3 72.29 627.73 68.52 628.24"/><polyline class="cls-7" points="68.52 595.43 72.08 595.84 75.45 597.26 78.4 599.4 80.85 602.36 82.48 605.72 83.39 609.49 83.39 613.36 82.48 617.03 80.85 620.5 78.4 623.35 75.45 625.59 72.08 626.91 68.52 627.32"/><path class="cls-7" d="M34.78,656.1a155,155,0,0,0,0-32.8" transform="translate(-0.05 -28.34)"/><path class="cls-7" d="M34.82,623.28a2.15,2.15,0,0,0-2.18-1.86" transform="translate(-0.05 -28.34)"/><path class="cls-7" d="M32.64,657.9A2.15,2.15,0,0,0,34.82,656" transform="translate(-0.05 -28.34)"/><path class="cls-7" d="M29.74,639.71A1.79,1.79,0,1,0,28,641.49a1.78,1.78,0,0,0,1.78-1.78" transform="translate(-0.05 -28.34)"/><polyline class="cls-7" points="77.59 446.76 77.59 499.75 24.6 499.75 24.6 446.76 77.59 446.76"/><polyline class="cls-7" points="29.49 451.55 72.8 451.55 72.8 490.07 29.49 490.07 29.49 451.55"/><line class="cls-4" x1="19.81" y1="394.79" x2="21.31" y2="394.79"/><line class="cls-8" x1="24.35" y1="394.79" x2="192.97" y2="394.79"/><polyline class="cls-4" points="194.49 394.79 195.99 394.79 195.99 396.29"/><line class="cls-9" x1="195.99" y1="399.34" x2="195.99" y2="501.51"/><line class="cls-4" x1="195.99" y1="503.04" x2="195.99" y2="504.54"/><polyline class="cls-7" points="308.69 115.49 289.43 115.49 289.43 211.78 308.69 211.78 308.69 115.49"/><polyline class="cls-7" points="308.69 433.31 289.43 433.31 289.43 529.5 308.69 529.5 308.69 433.31"/><polyline class="cls-7" points="462.76 770.29 462.76 789.54 366.47 789.54 366.47 770.29 462.76 770.29"/><polyline class="cls-7" points="0.55 770.29 58.33 770.29 58.33 789.54 0.55 789.54"/><polyline class="cls-7" points="0.55 211.78 19.81 211.78 19.81 115.49 0.55 115.49 0.55 211.78"/><polyline class="cls-7" points="19.81 433.31 0.55 433.31 0.55 529.5 19.81 529.5 19.81 433.31"/><polyline class="cls-7" points="558.95 211.78 578.21 211.78 578.21 115.49 558.95 115.49 558.95 211.78"/><polyline class="cls-7" points="578.21 433.31 558.95 433.31 558.95 529.5 578.21 529.5 578.21 433.31"/></svg>