<svg id="_184" data-name="184" xmlns="http://www.w3.org/2000/svg" viewBox="0 0 252.85 807.02"><defs><style>.cls-1{isolation:isolate;font-size:12px;fill:#969696;}.cls-1,.cls-3,.cls-4,.cls-6{font-family:PTSans-Regular, PT Sans;}.cls-10,.cls-2,.cls-5,.cls-7,.cls-8,.cls-9{fill:none;stroke-linecap:round;stroke-linejoin:round;}.cls-2{stroke:#969696;stroke-width:0.75px;}.cls-3{font-size:40px;}.cls-4{font-size:40.54px;}.cls-10,.cls-5,.cls-7,.cls-8,.cls-9{stroke:#000;}.cls-5{stroke-width:0.5px;}.cls-6{font-size:36px;}.cls-10,.cls-7,.cls-8{stroke-width:0.25px;}.cls-8{stroke-dasharray:0.93 0.93;}.cls-10{stroke-dasharray:0.92 0.92;}</style></defs><title>6floor_184flat</title><text class="cls-1" transform="translate(120.85 803.83)">двор</text><line class="cls-2" x1="110.09" y1="806.65" x2="110.09" y2="797.85"/><polyline class="cls-2" points="106.59 803.15 110.09 806.65 113.59 803.15"/><text class="cls-3" transform="translate(100.4 462.48)">CT</text><text class="cls-4" transform="translate(74.4 512.65)">21.84</text><text class="cls-3" transform="translate(69.76 412.57)">№184</text><polyline class="cls-5" points="60.75 523.46 60.75 374.39 185.08 374.39 185.08 523.46"/><line class="cls-5" x1="60.75" y1="424.17" x2="185.08" y2="424.17"/><line class="cls-5" x1="60.75" y1="523.46" x2="185.08" y2="523.46"/><line class="cls-5" x1="60.75" y1="473.96" x2="185.08" y2="473.96"/><text class="cls-6" transform="translate(79.82 318.21)">2.02</text><text class="cls-6" transform="translate(83.86 648.47)">14.29</text><text class="cls-6" transform="translate(161.04 129.06)">2.73</text><text class="cls-6" transform="translate(76.17 129.06)">2.80</text><line class="cls-7" x1="150.18" y1="88.66" x2="150.18" y2="89.12"/><line class="cls-8" x1="150.18" y1="90.05" x2="150.18" y2="159.9"/><line class="cls-7" x1="150.18" y1="160.37" x2="150.18" y2="160.83"/><line class="cls-7" x1="156.43" y1="81.82" x2="156.43" y2="82.28"/><line class="cls-8" x1="156.43" y1="83.21" x2="156.43" y2="153.06"/><line class="cls-7" x1="156.43" y1="153.53" x2="156.43" y2="153.99"/><line class="cls-7" x1="233.27" y1="198.76" x2="232.81" y2="198.76"/><line class="cls-8" x1="231.89" y1="198.76" x2="162.03" y2="198.76"/><line class="cls-7" x1="161.57" y1="198.76" x2="161.11" y2="198.76"/><line class="cls-7" x1="233.97" y1="205.07" x2="233.51" y2="205.07"/><line class="cls-8" x1="232.58" y1="205.07" x2="162.73" y2="205.07"/><line class="cls-7" x1="162.26" y1="205.07" x2="161.8" y2="205.07"/><line class="cls-7" x1="229.34" y1="0.48" x2="228.88" y2="0.48"/><line class="cls-8" x1="227.95" y1="0.48" x2="158.1" y2="0.48"/><line class="cls-7" x1="157.63" y1="0.48" x2="157.17" y2="0.48"/><line class="cls-9" x1="219.28" y1="720.56" x2="252.35" y2="720.56"/><line class="cls-9" x1="12.33" y1="720.56" x2="79.2" y2="720.56"/><line class="cls-9" x1="219.28" y1="708.73" x2="252.35" y2="708.73"/><line class="cls-9" x1="12.33" y1="708.73" x2="79.2" y2="708.73"/><line class="cls-9" x1="82.37" y1="720.56" x2="82.37" y2="708.73"/><line class="cls-9" x1="216.12" y1="720.56" x2="216.12" y2="708.73"/><polyline class="cls-9" points="79.2 708.73 81.53 708.73 82.37 708.73"/><line class="cls-9" x1="82.37" y1="721.31" x2="82.37" y2="720.56"/><polyline class="cls-9" points="219.28 708.73 216.87 708.73 216.12 708.73"/><line class="cls-9" x1="216.12" y1="721.31" x2="216.12" y2="720.56"/><line class="cls-9" x1="79.2" y1="708.73" x2="79.2" y2="708.73"/><polyline class="cls-9" points="79.2 720.56 81.53 720.56 81.53 708.73 81.53 720.56"/><line class="cls-9" x1="81.53" y1="721.31" x2="82.37" y2="721.31"/><line class="cls-9" x1="219.28" y1="708.73" x2="219.28" y2="708.73"/><polyline class="cls-9" points="219.28 720.56 216.87 720.56 216.87 708.73 216.87 720.56"/><line class="cls-9" x1="216.87" y1="721.31" x2="216.12" y2="721.31"/><polyline class="cls-9" points="79.2 708.73 79.2 703.99 79.2 692.99"/><polyline class="cls-9" points="219.28 708.73 219.28 703.99 219.28 692.99"/><line class="cls-9" x1="12.33" y1="721.31" x2="81.53" y2="721.31"/><polyline class="cls-9" points="216.87 721.31 252.34 721.31 252.34 680.73"/><line class="cls-9" x1="252.35" y1="692.99" x2="219.28" y2="692.99"/><line class="cls-9" x1="79.2" y1="692.99" x2="24.07" y2="692.99"/><polyline class="cls-9" points="82.37 721.31 216.12 721.31 216.12 725.3 82.37 725.3 82.37 721.31"/><line class="cls-9" x1="219.28" y1="692.99" x2="79.2" y2="692.99"/><polyline class="cls-9" points="219.28 703.99 214.95 703.99 214.95 707.15 212.95 707.15 212.95 708.73 219.28 708.73"/><polyline class="cls-9" points="149.24 708.73 152.41 708.73 152.41 707.15 150.41 707.15 150.41 703.99 149.24 703.99"/><line class="cls-9" x1="152.41" y1="708.73" x2="212.95" y2="708.73"/><polyline class="cls-9" points="214.95 702.49 210.21 702.49 155.16 702.49"/><polyline class="cls-9" points="210.21 702.49 210.21 707.15 214.95 707.15 214.95 702.49"/><polyline class="cls-9" points="150.41 707.15 155.16 707.15 155.16 702.49 150.41 702.49 150.41 707.15"/><line class="cls-9" x1="155.16" y1="707.15" x2="210.2" y2="707.15"/><line class="cls-9" x1="210.2" y1="702.49" x2="155.16" y2="702.49"/><line class="cls-9" x1="210.2" y1="704.82" x2="155.16" y2="704.82"/><polyline class="cls-9" points="149.24 703.99 148.08 703.99 148.08 707.15 146.08 707.15 146.08 708.73 149.24 708.73"/><polyline class="cls-9" points="79.2 708.73 85.45 708.73 85.45 707.15 83.53 707.15 83.53 703.99 79.2 703.99"/><line class="cls-9" x1="85.45" y1="708.73" x2="146.08" y2="708.73"/><polyline class="cls-9" points="148.08 702.49 143.33 702.49 88.28 702.49"/><polyline class="cls-9" points="143.33 702.49 143.33 707.15 148.08 707.15 148.08 702.49"/><polyline class="cls-9" points="83.53 707.15 88.28 707.15 88.28 702.49 83.53 702.49 83.53 707.15"/><line class="cls-9" x1="88.28" y1="707.15" x2="143.33" y2="707.15"/><line class="cls-9" x1="143.33" y1="702.49" x2="88.28" y2="702.49"/><line class="cls-9" x1="143.33" y1="704.82" x2="88.28" y2="704.82"/><polyline class="cls-9" points="219.28 692.99 219.28 703.99 219.28 708.73 219.28 703.99"/><polyline class="cls-9" points="79.2 692.99 79.2 703.99 79.2 708.73 79.2 703.99"/><line class="cls-9" x1="216.12" y1="721.31" x2="216.12" y2="720.56"/><polyline class="cls-9" points="216.12 708.73 216.87 708.73 216.12 708.73"/><polyline class="cls-9" points="216.87 708.73 219.28 708.73 216.87 708.73"/><line class="cls-9" x1="82.37" y1="721.31" x2="82.37" y2="720.56"/><polyline class="cls-9" points="82.37 708.73 81.53 708.73 82.37 708.73"/><polyline class="cls-9" points="81.53 708.73 79.2 708.73 81.53 708.73"/><line class="cls-9" x1="216.12" y1="720.56" x2="216.12" y2="708.73"/><line class="cls-9" x1="82.37" y1="720.56" x2="82.37" y2="708.73"/><line class="cls-9" x1="0.5" y1="720.56" x2="12.33" y2="720.56"/><line class="cls-9" x1="0.5" y1="708.73" x2="12.33" y2="708.73"/><line class="cls-9" x1="0.5" y1="721.31" x2="12.33" y2="721.31"/><line class="cls-9" x1="0.5" y1="692.99" x2="0.5" y2="692.99"/><line class="cls-9" x1="24.07" y1="692.99" x2="24.07" y2="16.24"/><polyline class="cls-9" points="24.07 0.5 0.5 0.5 0.5 721.31"/><polyline class="cls-9" points="236.6 16.24 236.6 692.99 252.34 692.99 252.34 16.24 236.6 16.24"/><line class="cls-9" x1="161.82" y1="198.79" x2="161.82" y2="205.12"/><polyline class="cls-9" points="236.6 198.79 232.61 198.79 232.61 205.12"/><line class="cls-9" x1="161.82" y1="198.79" x2="156.32" y2="198.79"/><line class="cls-9" x1="156.32" y1="205.12" x2="161.82" y2="205.12"/><polyline class="cls-9" points="232.61 205.12 236.6 205.12 236.6 198.79"/><line class="cls-9" x1="232.61" y1="198.79" x2="232.61" y2="205.12"/><line class="cls-9" x1="161.82" y1="198.79" x2="161.82" y2="205.12"/><line class="cls-9" x1="149.99" y1="219.28" x2="69.79" y2="219.28"/><polyline class="cls-9" points="63.46 219.28 24.07 219.28 24.07 225.61 156.32 225.61"/><line class="cls-9" x1="156.32" y1="144.49" x2="149.99" y2="144.49"/><line class="cls-9" x1="156.32" y1="89.45" x2="149.99" y2="89.45"/><polyline class="cls-9" points="156.32 225.61 156.32 219.28 156.32 205.12"/><line class="cls-9" x1="156.32" y1="198.79" x2="156.32" y2="144.49"/><line class="cls-9" x1="156.32" y1="89.45" x2="156.32" y2="79.2"/><line class="cls-9" x1="149.99" y1="85.45" x2="149.99" y2="89.45"/><line class="cls-9" x1="149.99" y1="144.49" x2="149.99" y2="173.64"/><line class="cls-9" x1="149.99" y1="179.97" x2="149.99" y2="219.28"/><line class="cls-9" x1="156.32" y1="89.45" x2="149.99" y2="89.45"/><line class="cls-9" x1="156.32" y1="144.49" x2="149.99" y2="144.49"/><line class="cls-9" x1="63.46" y1="179.97" x2="63.46" y2="219.28"/><line class="cls-9" x1="69.79" y1="219.28" x2="69.79" y2="179.97"/><line class="cls-9" x1="114.6" y1="12.33" x2="114.6" y2="85.45"/><polyline class="cls-9" points="120.93 79.2 120.93 12.33 114.6 12.33"/><polyline class="cls-9" points="114.6 85.45 120.93 85.45 149.99 85.45"/><polyline class="cls-9" points="156.32 79.2 149.99 79.2 120.93 79.2"/><polyline class="cls-9" points="28.07 173.64 28.07 176.81 28.07 179.97"/><polyline class="cls-9" points="149.99 173.64 59.55 173.64 59.55 176.81 59.55 179.97"/><polyline class="cls-9" points="28.07 173.64 24.07 173.64 24.07 179.97 28.07 179.97"/><line class="cls-9" x1="59.55" y1="179.97" x2="63.46" y2="179.97"/><line class="cls-9" x1="69.79" y1="179.97" x2="149.99" y2="179.97"/><line class="cls-10" x1="59.55" y1="173.64" x2="28.07" y2="173.64"/><line class="cls-10" x1="59.55" y1="179.97" x2="28.07" y2="179.97"/><path class="cls-9" d="M59.55,173.69a31.35,31.35,0,0,0-1.9-10.76"/><line class="cls-9" x1="28.07" y1="173.64" x2="57.63" y2="162.9"/><polyline class="cls-9" points="59.55 179.97 59.55 176.81 59.55 173.64 59.55 176.81"/><polyline class="cls-9" points="28.07 179.97 28.07 176.81 28.07 173.64 28.07 176.81"/><polyline class="cls-9" points="146.08 158.07 146.08 172.06 113.01 172.06 113.01 158.07"/><line class="cls-9" x1="124.34" y1="172.06" x2="134.75" y2="172.06"/><line class="cls-9" x1="126.76" y1="160.82" x2="128.5" y2="160.82"/><line class="cls-9" x1="129.59" y1="163.65" x2="129.59" y2="161.82"/><line class="cls-9" x1="130.59" y1="160.82" x2="132.34" y2="160.82"/><line class="cls-9" x1="129.59" y1="159.82" x2="129.59" y2="157.99"/><path class="cls-9" d="M138.35,164.2a14.76,14.76,0,0,0,5.7-7"/><path class="cls-9" d="M129.62,166.27a14.66,14.66,0,0,0,8.76-2.07"/><path class="cls-9" d="M115.12,157.21a14.82,14.82,0,0,0,5.7,7"/><path class="cls-9" d="M120.8,164.2a14.63,14.63,0,0,0,8.76,2.07"/><path class="cls-9" d="M140.83,149.72a27.26,27.26,0,0,0-10-2.74"/><path class="cls-9" d="M116.23,151.1a8.48,8.48,0,0,0-3.12,7"/><path class="cls-9" d="M130.79,147a18,18,0,0,0-2.32,0"/><path class="cls-9" d="M120.39,163.68a59.71,59.71,0,0,0,18.49,0"/><path class="cls-9" d="M113.93,155.92a20.93,20.93,0,0,0,4.69,13.56"/><path class="cls-9" d="M120.15,170.45a41.3,41.3,0,0,0,9.46,1"/><path class="cls-9" d="M118.56,169.45a2.73,2.73,0,0,0,1.54,1"/><path class="cls-9" d="M120.25,169.39a70.84,70.84,0,0,0,9.31.67"/><path class="cls-9" d="M113.93,156a18.84,18.84,0,0,0,4.67,12.66"/><path class="cls-9" d="M118.54,168.53a2.74,2.74,0,0,0,1.71.92"/><path class="cls-9" d="M140.64,168.63A18.86,18.86,0,0,0,145.33,156"/><path class="cls-9" d="M140.54,169.5a20.91,20.91,0,0,0,4.7-13.55"/><path class="cls-9" d="M129.6,170.06a69.16,69.16,0,0,0,9.31-.66"/><path class="cls-9" d="M129.59,171.48a40.68,40.68,0,0,0,9.46-1"/><path class="cls-9" d="M138.92,169.54a2.79,2.79,0,0,0,1.71-.92"/><path class="cls-9" d="M139.07,170.49a2.72,2.72,0,0,0,1.54-1"/><path class="cls-9" d="M146.07,158.06a8.54,8.54,0,0,0-3.12-7"/><path class="cls-9" d="M143,151.19a13.08,13.08,0,0,0-2.19-1.43"/><path class="cls-9" d="M118.43,149.76a12.68,12.68,0,0,0-2.19,1.43"/><path class="cls-9" d="M128.47,147a27.26,27.26,0,0,0-10,2.74"/><path class="cls-9" d="M134.17,149.37a19.1,19.1,0,0,0-9.08,0"/><path class="cls-9" d="M144.07,157.2a5,5,0,0,0-1.71-4.09"/><path class="cls-9" d="M142.41,153.07a17.8,17.8,0,0,0-8.25-3.8"/><path class="cls-9" d="M116.81,153.11a5,5,0,0,0-1.7,4.09"/><path class="cls-9" d="M125,149.27a17.81,17.81,0,0,0-8.24,3.8"/><path class="cls-9" d="M129.63,163a2.12,2.12,0,1,0-2.12-2.12,2.12,2.12,0,0,0,2.12,2.12"/><path class="cls-9" d="M129.63,162.4a1.54,1.54,0,1,0-1.54-1.54,1.54,1.54,0,0,0,1.54,1.54"/><line class="cls-9" x1="38.56" y1="155.9" x2="66.38" y2="155.9"/><polyline class="cls-9" points="36.89 157.15 26.48 157.15 26.48 127.26"/><line class="cls-9" x1="43.47" y1="142.16" x2="43.47" y2="131.09"/><polyline class="cls-9" points="66.29 155.91 43.47 153.24 43.47 142.16"/><line class="cls-9" x1="66.29" y1="128.42" x2="43.47" y2="131.09"/><line class="cls-9" x1="66.29" y1="155.24" x2="43.47" y2="152.57"/><line class="cls-9" x1="66.29" y1="129.09" x2="43.47" y2="131.75"/><line class="cls-9" x1="38.56" y1="128.42" x2="66.38" y2="128.42"/><line class="cls-9" x1="26.48" y1="127.26" x2="36.89" y2="127.26"/><polyline class="cls-9" points="66.29 155.91 69.37 155.57 72.29 154.41 74.87 152.49 76.95 149.99 78.37 147.08 79.12 143.83 79.12 140.5 78.37 137.25 76.95 134.34 74.87 131.84 72.29 130 69.37 128.84 66.29 128.42"/><polyline class="cls-9" points="66.29 155.24 69.21 154.82 71.96 153.74 74.37 151.99 76.37 149.57 77.7 146.83 78.37 143.75 78.37 140.58 77.7 137.58 76.37 134.75 74.37 132.42 71.96 130.59 69.21 129.5 66.29 129.09"/><path class="cls-9" d="M38.68,155.61a126.36,126.36,0,0,0,0-26.8"/><path class="cls-9" d="M36.94,157.15a1.76,1.76,0,0,0,1.78-1.52"/><path class="cls-9" d="M38.72,128.79a1.75,1.75,0,0,0-1.78-1.53"/><path class="cls-9" d="M34.56,142.2a1.46,1.46,0,1,0-1.46,1.46,1.45,1.45,0,0,0,1.46-1.46"/><polyline class="cls-9" points="28.07 272.83 28.07 229.53 71.29 229.53 71.29 272.83 28.07 272.83"/><polyline class="cls-9" points="67.38 268.83 31.98 268.83 31.98 237.35 67.38 237.35 67.38 268.83"/><polyline class="cls-9" points="158.32 723.31 157.9 723.31 157.9 766.61 158.32 766.61 158.32 723.31"/><polyline class="cls-9" points="156.74 768.2 156.74 767.78 84.28 767.78 84.28 768.2 156.74 768.2"/><polyline class="cls-9" points="82.7 766.61 83.12 766.61 83.12 723.31 82.7 723.31 82.7 766.61"/><polyline class="cls-9" points="158.65 721.31 156.74 721.31 156.74 723.31 158.65 723.31 158.65 721.31"/><polyline class="cls-9" points="158.65 766.61 156.74 766.61 156.74 768.53 158.65 768.53 158.65 766.61"/><polyline class="cls-9" points="84.28 768.53 84.28 766.61 82.37 766.61 82.37 768.53 84.28 768.53"/><polyline class="cls-9" points="82.37 723.31 84.28 723.31 84.28 721.31 82.37 721.31 82.37 723.31"/><line class="cls-9" x1="156.74" y1="722.31" x2="156.74" y2="766.61"/><line class="cls-9" x1="158.65" y1="768.53" x2="158.65" y2="722.31"/><line class="cls-9" x1="156.74" y1="766.61" x2="84.28" y2="766.61"/><line class="cls-9" x1="82.37" y1="768.53" x2="158.65" y2="768.53"/><line class="cls-9" x1="84.28" y1="766.61" x2="84.28" y2="722.31"/><line class="cls-9" x1="82.37" y1="722.31" x2="82.37" y2="768.53"/><polyline class="cls-9" points="158.65 722.31 158.65 721.31 156.74 721.31 156.74 722.31"/><polyline class="cls-9" points="84.28 722.31 84.28 721.31 82.37 721.31 82.37 722.31"/><polyline class="cls-9" points="82.37 768.53 158.65 768.53 158.65 722.31 156.74 722.31 156.74 766.61 84.28 766.61 84.28 722.31 82.37 722.31 82.37 768.53"/><polyline class="cls-9" points="86.28 754.37 154.74 754.37 154.74 729.22 86.28 729.22 86.28 754.37"/><polyline class="cls-9" points="86.28 751.87 154.74 751.87 154.74 729.22 86.28 729.22 86.28 751.87"/><line class="cls-9" x1="46.14" y1="31.81" x2="46.14" y2="36.31"/><line class="cls-9" x1="44.22" y1="38.31" x2="39.73" y2="38.31"/><line class="cls-9" x1="46.14" y1="40.23" x2="46.14" y2="44.72"/><line class="cls-9" x1="52.55" y1="38.31" x2="48.14" y2="38.31"/><line class="cls-9" x1="94.94" y1="24.9" x2="94.94" y2="43.81"/><line class="cls-9" x1="31.98" y1="43.06" x2="31.98" y2="86.28"/><line class="cls-9" x1="51.64" y1="87.03" x2="32.73" y2="87.03"/><line class="cls-9" x1="94.94" y1="24.9" x2="94.94" y2="43.81"/><line class="cls-9" x1="94.11" y1="24.07" x2="50.89" y2="24.07"/><line class="cls-9" x1="98.86" y1="20.99" x2="98.86" y2="43.81"/><line class="cls-9" x1="28.07" y1="20.99" x2="28.07" y2="90.19"/><line class="cls-9" x1="51.64" y1="91.03" x2="28.82" y2="91.03"/><line class="cls-9" x1="98.11" y1="20.15" x2="28.82" y2="20.15"/><path class="cls-9" d="M50.93,24.15a3.87,3.87,0,0,0-1.26.21"/><path class="cls-9" d="M94.94,24.94a.79.79,0,0,0-.79-.79"/><path class="cls-9" d="M50.93,24.15a3.87,3.87,0,0,0-1.26.21"/><path class="cls-9" d="M51.68,91A47.19,47.19,0,0,0,98.86,43.85"/><path class="cls-9" d="M98.94,21a.79.79,0,0,0-.79-.79"/><path class="cls-9" d="M51.68,87.11A43.26,43.26,0,0,0,94.94,43.85"/><path class="cls-9" d="M28.07,90.24a.79.79,0,0,0,.79.79"/><path class="cls-9" d="M32,86.32a.79.79,0,0,0,.79.79"/><path class="cls-9" d="M28.86,20.24a.79.79,0,0,0-.79.79"/><path class="cls-9" d="M50.18,24.19A42.41,42.41,0,0,0,32.1,42.27"/><path class="cls-9" d="M32.19,41.84A3.87,3.87,0,0,0,32,43.1"/><path class="cls-9" d="M49.71,24.34A27.68,27.68,0,0,0,32.25,41.8"/><path class="cls-9" d="M32.19,41.84A3.87,3.87,0,0,0,32,43.1"/><path class="cls-9" d="M46.18,41.89a3.54,3.54,0,1,0-3.54-3.54,3.53,3.53,0,0,0,3.54,3.54"/><path class="cls-9" d="M46.18,43.31a5,5,0,1,0-5-5,5,5,0,0,0,5,5"/><polyline class="cls-9" points="252.34 16.24 252.34 6.83 252.34 0.5"/><polyline class="cls-9" points="232.69 16.24 232.69 6.83 232.69 0.5"/><polyline class="cls-9" points="153.99 16.24 153.99 6.83 153.99 0.5"/><line class="cls-9" x1="252.35" y1="0.5" x2="232.69" y2="0.5"/><line class="cls-9" x1="153.99" y1="0.5" x2="24.07" y2="0.5"/><line class="cls-9" x1="24.07" y1="16.24" x2="153.99" y2="16.24"/><line class="cls-9" x1="232.69" y1="16.24" x2="252.35" y2="16.24"/><polyline class="cls-9" points="252.34 6.83 252.34 6.83 252.34 0.5 252.34 0.5 252.34 6.83"/><line class="cls-9" x1="252.35" y1="6.83" x2="252.35" y2="77.62"/><polyline class="cls-9" points="252.34 0.5 252.34 6.83 252.34 0.5"/><line class="cls-9" x1="252.35" y1="16.24" x2="252.35" y2="6.83"/><path class="cls-9" d="M157.15,6.87a72.41,72.41,0,0,0,72.42,72.41"/><polyline class="cls-9" points="153.99 0.5 157.15 0.5 157.15 6.83 153.99 6.83 153.99 0.5"/><polyline class="cls-9" points="232.69 6.83 229.53 6.83 229.53 0.5 232.69 0.5 232.69 6.83"/><line class="cls-9" x1="229.53" y1="6.83" x2="229.53" y2="79.2"/><polyline class="cls-9" points="153.99 0.5 153.99 6.83 153.99 0.5"/><line class="cls-9" x1="153.99" y1="16.24" x2="153.99" y2="6.83"/><polyline class="cls-9" points="232.69 0.5 232.69 6.83 232.69 0.5"/><line class="cls-9" x1="232.69" y1="16.24" x2="232.69" y2="6.83"/><polyline class="cls-9" points="236.6 205.12 252.34 205.12 252.34 283.83 236.6 283.83 236.6 205.12"/><polyline class="cls-9" points="236.6 630.03 252.34 630.03 252.34 708.73 236.6 708.73 236.6 630.03"/></svg>