<svg xmlns="http://www.w3.org/2000/svg" width="42" height="28" viewBox="0 0 42 28">
    <g fill="none" fill-rule="evenodd">
        <path fill="#FFF" d="M40.218 24.78V13.449a3.228 3.228 0 0 0-2.993-3.213H41.5V6.864h-3.77l-1.166 2.429-2.703-5.947A4.857 4.857 0 0 0 29.44.5H13.23a4.856 4.856 0 0 0-4.154 2.339l-3.76 6.204-1.045-2.179H.499v3.372h3.865a3.228 3.228 0 0 0-2.994 3.213V24.78"/>
        <path stroke="#CDA571" d="M40.218 24.78V13.449a3.228 3.228 0 0 0-2.993-3.213H41.5V6.864h-3.77l-1.166 2.429-2.703-5.947A4.857 4.857 0 0 0 29.44.5H13.23a4.856 4.856 0 0 0-4.154 2.339l-3.76 6.204-1.045-2.179H.499v3.372h3.865a3.228 3.228 0 0 0-2.994 3.213V24.78M1.37 24.78h.078a3.236 3.236 0 0 0 3.16 2.545h3.238a3.236 3.236 0 0 0 3.159-2.545h19.58a3.236 3.236 0 0 0 3.158 2.545h3.238a3.236 3.236 0 0 0 3.16-2.545h.078M4.364 10.236h32.86"/>
        <path stroke="#CDA571" stroke-width="3" d="M20.794 14.014v7M25.795 14.014v7M15.794 14.014v7"/>
    </g>
</svg>
