<svg id="_134" data-name="134" xmlns="http://www.w3.org/2000/svg" viewBox="0 0 952.58 830.57"><defs><style>.cls-1{isolation:isolate;font-size:12px;fill:#969696;}.cls-1,.cls-4,.cls-6{font-family:PTSans-Regular, PT Sans;}.cls-2,.cls-5,.cls-7,.cls-8{fill:none;stroke-linecap:round;stroke-linejoin:round;}.cls-2{stroke:#969696;stroke-width:0.75px;}.cls-3{letter-spacing:-0.01em;}.cls-4{font-size:40px;}.cls-5,.cls-7,.cls-8{stroke:#000;}.cls-5{stroke-width:0.5px;}.cls-6{font-size:36px;}.cls-7{stroke-width:0.25px;stroke-dasharray:1 1;}</style></defs><title>15floor_134flat</title><text class="cls-1" transform="translate(484.89 827.38)">двор</text><line class="cls-2" x1="474.13" y1="830.2" x2="474.13" y2="821.4"/><polyline class="cls-2" points="470.63 826.7 474.13 830.2 477.63 826.7"/><text class="cls-1" transform="translate(949.38 437.6) rotate(-90)"><tspan class="cls-3">у</tspan><tspan x="5.42" y="0">лица</tspan></text><line class="cls-2" x1="952.2" y1="448.36" x2="943.4" y2="448.36"/><polyline class="cls-2" points="948.7 451.86 952.2 448.36 948.7 444.86"/><text class="cls-4" transform="translate(96.46 524.77)">2K</text><text class="cls-4" transform="translate(71.68 574.94)">61.18</text><text class="cls-4" transform="translate(66.4 474.87)">№134</text><polyline class="cls-5" points="57.39 585.76 57.39 436.68 181.71 436.68 181.71 585.76"/><line class="cls-5" x1="57.39" y1="486.47" x2="181.71" y2="486.47"/><line class="cls-5" x1="57.39" y1="585.76" x2="181.71" y2="585.76"/><line class="cls-5" x1="57.39" y1="536.26" x2="181.71" y2="536.26"/><text class="cls-6" transform="translate(289.32 665.64)">11.34</text><text class="cls-6" transform="translate(62.13 665.64)">11.92</text><text class="cls-6" transform="translate(28.33 203.49)">10.96</text><text class="cls-6" transform="translate(513.77 229.2)">18.46</text><text class="cls-6" transform="translate(145.01 101.87)">1.65</text><text class="cls-6" transform="translate(143.84 244.15)">1.79</text><text class="cls-6" transform="translate(246.67 199.32)">4.01</text><text class="cls-6" transform="translate(785.18 100.8)">0.56</text><text class="cls-6" transform="translate(513.06 453.71)">0.49</text><line class="cls-7" x1="134.77" y1="64.11" x2="134.77" y2="121.01"/><line class="cls-7" x1="402.19" y1="283.11" x2="402.19" y2="353.8"/><line class="cls-7" x1="408.42" y1="283.11" x2="408.42" y2="353.8"/><line class="cls-7" x1="141.08" y1="64.11" x2="141.08" y2="121.01"/><line class="cls-7" x1="338.9" y1="271.24" x2="283.99" y2="271.24"/><line class="cls-7" x1="338.25" y1="369.89" x2="266.88" y2="369.89"/><line class="cls-7" x1="229.4" y1="369.89" x2="159.6" y2="369.89"/><line class="cls-7" x1="228.65" y1="376.11" x2="158.85" y2="376.11"/><line class="cls-7" x1="338.9" y1="376.11" x2="267.48" y2="376.11"/><line class="cls-7" x1="338.9" y1="264.93" x2="283.99" y2="264.93"/><line class="cls-7" x1="215.4" y1="264.93" x2="160.48" y2="264.93"/><line class="cls-7" x1="215.4" y1="271.24" x2="160.48" y2="271.24"/><line class="cls-7" x1="108.89" y1="1.48" x2="36.57" y2="1.48"/><polyline class="cls-8" points="235.84 722.78 239.68 722.03 235.84 722.78 198.45 730.46"/><line class="cls-8" x1="238.84" y1="714.1" x2="200.54" y2="722.03"/><line class="cls-8" x1="238.84" y1="714.1" x2="200.54" y2="722.03"/><line class="cls-8" x1="196.86" y1="722.78" x2="200.54" y2="722.03"/><line class="cls-8" x1="195.36" y1="731.13" x2="193.78" y2="723.37"/><line class="cls-8" x1="196.86" y1="722.78" x2="194.53" y2="723.2"/><line class="cls-8" x1="194.53" y1="723.2" x2="193.78" y2="723.37"/><line class="cls-8" x1="195.53" y1="731.88" x2="195.36" y2="731.13"/><line class="cls-8" x1="196.86" y1="722.78" x2="196.86" y2="722.78"/><polyline class="cls-8" points="198.45 730.46 196.11 730.96 194.53 723.2 196.11 730.96"/><line class="cls-8" x1="196.28" y1="731.71" x2="195.53" y2="731.88"/><polyline class="cls-8" points="196.86 722.78 195.95 718.11 192.86 703.42"/><line class="cls-8" x1="196.28" y1="731.71" x2="239.76" y2="722.78"/><line class="cls-8" x1="236.84" y1="694.41" x2="192.86" y2="703.42"/><polyline class="cls-8" points="123.34 750.74 196.28 735.72 195.53 731.88"/><line class="cls-8" x1="123.34" y1="717.78" x2="192.86" y2="703.42"/><line class="cls-8" x1="123.34" y1="746.73" x2="195.53" y2="731.88"/><line class="cls-8" x1="123.34" y1="717.78" x2="192.86" y2="703.42"/><polyline class="cls-8" points="123.34 733.05 127.52 732.21 128.18 735.3 130.1 734.88 130.44 736.38 124.26 737.72 123.34 737.89"/><polyline class="cls-8" points="196.86 722.78 190.69 724.03 190.35 722.45 192.27 722.12 191.69 719.03 195.95 718.11"/><line class="cls-8" x1="190.69" y1="724.03" x2="130.44" y2="736.39"/><polyline class="cls-8" points="127.27 730.63 131.85 729.71 186.68 718.36"/><polyline class="cls-8" points="131.85 729.71 132.86 734.3 128.18 735.3 127.27 730.63"/><polyline class="cls-8" points="192.27 722.12 187.68 723.03 186.68 718.36 191.36 717.44 192.27 722.12"/><line class="cls-8" x1="187.68" y1="723.03" x2="132.86" y2="734.3"/><line class="cls-8" x1="131.85" y1="729.71" x2="186.68" y2="718.36"/><line class="cls-8" x1="132.36" y1="731.96" x2="187.18" y2="720.7"/><line class="cls-8" x1="124.26" y1="737.72" x2="123.34" y2="733.05"/><polyline class="cls-8" points="192.86 703.42 195.95 718.11 196.86 722.78 195.95 718.11"/><line class="cls-8" x1="195.53" y1="731.88" x2="195.36" y2="731.13"/><polyline class="cls-8" points="193.78 723.37 194.53 723.2 193.78 723.37"/><polyline class="cls-8" points="194.53 723.2 196.86 722.78 194.53 723.2"/><line class="cls-8" x1="195.36" y1="731.13" x2="193.78" y2="723.37"/><polyline class="cls-8" points="0.5 721.11 2.42 721.53 0.5 721.11"/><line class="cls-8" x1="28.21" y1="718.36" x2="0.5" y2="713.02"/><line class="cls-8" x1="28.21" y1="718.36" x2="0.5" y2="713.02"/><line class="cls-8" x1="2.42" y1="721.53" x2="48.15" y2="730.46"/><line class="cls-8" x1="28.21" y1="718.36" x2="49.74" y2="722.78"/><line class="cls-8" x1="51.24" y1="731.13" x2="52.82" y2="723.37"/><line class="cls-8" x1="49.74" y1="722.78" x2="52.07" y2="723.2"/><line class="cls-8" x1="52.07" y1="723.2" x2="52.82" y2="723.37"/><line class="cls-8" x1="51.07" y1="731.88" x2="51.24" y2="731.13"/><line class="cls-8" x1="49.74" y1="722.78" x2="49.74" y2="722.78"/><polyline class="cls-8" points="48.15 730.46 50.49 730.96 52.07 723.2 50.49 730.96"/><line class="cls-8" x1="50.32" y1="731.71" x2="51.07" y2="731.88"/><polyline class="cls-8" points="49.74 722.78 50.74 718.11 53.74 703.42"/><polyline class="cls-8" points="50.32 731.71 0.5 721.87 0.5 699.42"/><line class="cls-8" x1="53.74" y1="703.42" x2="8.68" y2="694.16"/><polyline class="cls-8" points="123.34 750.74 50.32 735.72 51.07 731.88"/><line class="cls-8" x1="123.34" y1="717.78" x2="53.74" y2="703.42"/><line class="cls-8" x1="123.34" y1="746.73" x2="51.07" y2="731.88"/><line class="cls-8" x1="123.34" y1="717.78" x2="53.74" y2="703.42"/><polyline class="cls-8" points="123.34 733.05 119.09 732.21 118.42 735.3 116.5 734.88 116.17 736.38 122.34 737.72 123.34 737.89"/><polyline class="cls-8" points="49.74 722.78 55.91 724.03 56.25 722.45 54.33 722.12 54.91 719.03 50.74 718.11"/><line class="cls-8" x1="55.91" y1="724.03" x2="116.17" y2="736.39"/><polyline class="cls-8" points="119.34 730.63 114.75 729.71 59.92 718.36"/><polyline class="cls-8" points="114.75 729.71 113.83 734.3 118.42 735.3 119.34 730.63"/><polyline class="cls-8" points="54.33 722.12 58.92 723.03 59.92 718.36 55.24 717.44 54.33 722.12"/><line class="cls-8" x1="58.92" y1="723.03" x2="113.83" y2="734.3"/><line class="cls-8" x1="114.75" y1="729.71" x2="59.92" y2="718.36"/><line class="cls-8" x1="114.25" y1="731.96" x2="59.42" y2="720.7"/><line class="cls-8" x1="122.34" y1="737.72" x2="123.34" y2="733.05"/><polyline class="cls-8" points="53.74 703.42 50.74 718.11 49.74 722.78 50.74 718.11"/><line class="cls-8" x1="51.07" y1="731.88" x2="51.24" y2="731.13"/><polyline class="cls-8" points="52.83 723.37 52.07 723.2 52.83 723.37"/><polyline class="cls-8" points="52.07 723.2 49.74 722.78 52.07 723.2"/><line class="cls-8" x1="51.24" y1="731.13" x2="52.82" y2="723.37"/><line class="cls-8" x1="894.19" y1="77.53" x2="914.14" y2="42.31"/><line class="cls-8" x1="815.33" y1="216.81" x2="825.01" y2="199.62"/><line class="cls-8" x1="892.11" y1="76.36" x2="911.39" y2="42.31"/><line class="cls-8" x1="813.25" y1="215.64" x2="823.01" y2="198.45"/><line class="cls-8" x1="824.51" y1="195.7" x2="820.42" y2="193.44"/><line class="cls-8" x1="826.6" y1="196.86" x2="824.51" y2="195.7"/><line class="cls-8" x1="890.61" y1="79.11" x2="886.43" y2="76.78"/><line class="cls-8" x1="892.61" y1="80.28" x2="890.61" y2="79.11"/><line class="cls-8" x1="818.84" y1="196.11" x2="820" y2="194.11"/><line class="cls-8" x1="820" y1="194.11" x2="820.42" y2="193.44"/><line class="cls-8" x1="827.27" y1="197.28" x2="826.6" y2="196.86"/><line class="cls-8" x1="888.02" y1="74.02" x2="886.85" y2="76.02"/><line class="cls-8" x1="886.85" y1="76.02" x2="886.43" y2="76.78"/><line class="cls-8" x1="893.28" y1="80.61" x2="892.61" y2="80.28"/><line class="cls-8" x1="823.01" y1="198.45" x2="818.84" y2="196.11"/><line class="cls-8" x1="825.01" y1="199.62" x2="826.18" y2="197.62"/><line class="cls-8" x1="820" y1="194.11" x2="826.18" y2="197.62"/><line class="cls-8" x1="826.18" y1="197.62" x2="820" y2="194.11"/><line class="cls-8" x1="826.85" y1="197.95" x2="827.27" y2="197.28"/><line class="cls-8" x1="892.11" y1="76.36" x2="888.02" y2="74.02"/><line class="cls-8" x1="894.19" y1="77.53" x2="893.03" y2="79.53"/><line class="cls-8" x1="886.85" y1="76.02" x2="893.03" y2="79.53"/><line class="cls-8" x1="893.03" y1="79.53" x2="886.85" y2="76.02"/><line class="cls-8" x1="893.69" y1="79.95" x2="893.28" y2="80.61"/><polyline class="cls-8" points="818.84 196.11 815.41 194.19 814.75 193.78"/><polyline class="cls-8" points="888.02 74.02 884.6 72.1 883.93 71.69 900.54 42.31"/><line class="cls-8" x1="814.75" y1="193.78" x2="804.98" y2="210.97"/><line class="cls-8" x1="816" y1="217.23" x2="815.33" y2="216.81"/><line class="cls-8" x1="815.33" y1="216.81" x2="813.25" y2="215.64"/><line class="cls-8" x1="813.25" y1="215.64" x2="804.98" y2="210.97"/><line class="cls-8" x1="816" y1="217.23" x2="826.85" y2="197.95"/><line class="cls-8" x1="893.69" y1="79.95" x2="915.06" y2="42.31"/><polyline class="cls-8" points="827.26 197.28 893.28 80.61 896.78 82.62 830.69 199.2 827.26 197.28"/><line class="cls-8" x1="883.93" y1="71.69" x2="814.75" y2="193.78"/><polyline class="cls-8" points="884.6 72.1 882.43 75.86 885.18 77.36 884.18 79.11 884.93 79.53 888.02 74.02"/><polyline class="cls-8" points="864.4 115.67 865.99 112.91 865.32 112.49 864.32 114.25 861.56 112.66 860.98 113.66"/><line class="cls-8" x1="865.99" y1="112.91" x2="884.93" y2="79.53"/><polyline class="cls-8" points="881.09 75.02 878.76 79.2 862.57 107.74"/><polyline class="cls-8" points="878.76 79.2 882.85 81.53 885.18 77.36 881.09 75.02"/><polyline class="cls-8" points="864.32 114.25 866.65 110.07 862.57 107.74 860.23 111.91 864.32 114.25"/><line class="cls-8" x1="866.65" y1="110.07" x2="882.84" y2="81.53"/><line class="cls-8" x1="878.76" y1="79.2" x2="862.57" y2="107.74"/><line class="cls-8" x1="880.76" y1="80.36" x2="864.57" y2="108.9"/><polyline class="cls-8" points="860.98 113.66 860.4 114.75 863.15 116.25 862.23 118 862.9 118.42 864.4 115.67"/><polyline class="cls-8" points="842.45 154.55 843.96 151.8 843.29 151.38 842.29 153.13 839.53 151.55 839.03 152.55"/><line class="cls-8" x1="843.96" y1="151.8" x2="862.9" y2="118.42"/><polyline class="cls-8" points="859.06 113.91 856.72 118.08 840.53 146.63"/><polyline class="cls-8" points="856.72 118.08 860.81 120.42 863.15 116.25 859.06 113.91"/><polyline class="cls-8" points="842.29 153.13 844.62 148.96 840.53 146.63 838.2 150.8 842.29 153.13"/><line class="cls-8" x1="844.62" y1="148.96" x2="860.81" y2="120.42"/><line class="cls-8" x1="856.72" y1="118.08" x2="840.53" y2="146.63"/><line class="cls-8" x1="858.81" y1="119.25" x2="842.62" y2="147.79"/><polyline class="cls-8" points="839.03 152.55 838.45 153.64 841.12 155.14 840.2 156.89 840.87 157.22 842.45 154.55"/><polyline class="cls-8" points="818.84 196.11 821.92 190.69 821.26 190.27 820.34 192.02 817.59 190.44 815.41 194.19"/><line class="cls-8" x1="821.92" y1="190.69" x2="840.87" y2="157.22"/><polyline class="cls-8" points="837.03 152.8 834.69 156.97 818.5 185.51"/><polyline class="cls-8" points="834.69 156.97 838.78 159.31 841.12 155.14 837.03 152.8"/><polyline class="cls-8" points="820.34 192.02 822.67 187.85 818.5 185.51 816.17 189.69 820.34 192.02"/><line class="cls-8" x1="822.68" y1="187.85" x2="838.78" y2="159.31"/><line class="cls-8" x1="834.69" y1="156.97" x2="818.5" y2="185.51"/><line class="cls-8" x1="836.78" y1="158.14" x2="820.59" y2="186.68"/><polyline class="cls-8" points="883.93 71.69 884.6 72.1 888.02 74.02 884.6 72.1"/><polyline class="cls-8" points="814.75 193.78 815.41 194.19 818.84 196.11 815.41 194.19"/><line class="cls-8" x1="893.28" y1="80.61" x2="892.61" y2="80.28"/><polyline class="cls-8" points="886.43 76.78 886.85 76.03 886.43 76.78"/><polyline class="cls-8" points="886.85 76.03 888.02 74.02 886.85 76.03"/><line class="cls-8" x1="827.27" y1="197.28" x2="826.6" y2="196.86"/><polyline class="cls-8" points="820.42 193.44 820 194.11 820.42 193.44"/><polyline class="cls-8" points="820 194.11 818.84 196.11 820 194.11"/><polyline class="cls-8" points="892.61 80.28 890.61 79.11 886.43 76.78"/><polyline class="cls-8" points="826.6 196.86 824.51 195.7 820.42 193.44"/><line class="cls-8" x1="619.05" y1="419.35" x2="632.07" y2="396.4"/><line class="cls-8" x1="540.19" y1="558.63" x2="549.95" y2="541.52"/><line class="cls-8" x1="617.05" y1="418.18" x2="630.07" y2="395.23"/><line class="cls-8" x1="538.19" y1="557.46" x2="547.87" y2="540.36"/><line class="cls-8" x1="549.45" y1="537.6" x2="545.28" y2="535.26"/><line class="cls-8" x1="551.45" y1="538.77" x2="549.45" y2="537.6"/><line class="cls-8" x1="615.46" y1="420.93" x2="611.37" y2="418.6"/><line class="cls-8" x1="617.55" y1="422.1" x2="615.46" y2="420.93"/><line class="cls-8" x1="543.78" y1="538.02" x2="544.95" y2="535.93"/><line class="cls-8" x1="544.95" y1="535.93" x2="545.28" y2="535.26"/><line class="cls-8" x1="552.21" y1="539.19" x2="551.45" y2="538.77"/><line class="cls-8" x1="612.88" y1="415.84" x2="611.71" y2="417.93"/><line class="cls-8" x1="611.71" y1="417.93" x2="611.37" y2="418.6"/><line class="cls-8" x1="618.22" y1="422.52" x2="617.55" y2="422.1"/><line class="cls-8" x1="547.87" y1="540.36" x2="543.78" y2="538.02"/><line class="cls-8" x1="549.95" y1="541.52" x2="551.12" y2="539.44"/><line class="cls-8" x1="544.95" y1="535.93" x2="551.12" y2="539.44"/><line class="cls-8" x1="551.12" y1="539.44" x2="544.95" y2="535.93"/><line class="cls-8" x1="551.79" y1="539.85" x2="552.21" y2="539.19"/><line class="cls-8" x1="617.05" y1="418.18" x2="612.88" y2="415.84"/><line class="cls-8" x1="619.05" y1="419.35" x2="617.88" y2="421.44"/><line class="cls-8" x1="611.71" y1="417.93" x2="617.88" y2="421.44"/><line class="cls-8" x1="617.88" y1="421.44" x2="611.71" y2="417.93"/><line class="cls-8" x1="618.63" y1="421.77" x2="618.22" y2="422.52"/><polyline class="cls-8" points="543.78 538.02 540.36 536.1 539.6 535.68"/><polyline class="cls-8" points="612.88 415.84 609.45 413.92 608.79 413.51 621.8 390.56"/><line class="cls-8" x1="539.6" y1="535.68" x2="529.92" y2="552.87"/><line class="cls-8" x1="540.94" y1="559.05" x2="540.19" y2="558.63"/><line class="cls-8" x1="540.19" y1="558.63" x2="538.19" y2="557.46"/><line class="cls-8" x1="538.19" y1="557.46" x2="529.92" y2="552.87"/><line class="cls-8" x1="540.94" y1="559.05" x2="551.79" y2="539.85"/><line class="cls-8" x1="618.63" y1="421.77" x2="632.74" y2="396.82"/><line class="cls-8" x1="632.74" y1="396.82" x2="632.07" y2="396.4"/><line class="cls-8" x1="632.07" y1="396.4" x2="630.07" y2="395.23"/><line class="cls-8" x1="630.07" y1="395.23" x2="621.8" y2="390.56"/><polyline class="cls-8" points="552.21 539.19 618.22 422.52 621.64 424.44 555.63 541.11 552.21 539.19"/><line class="cls-8" x1="608.79" y1="413.51" x2="539.6" y2="535.68"/><polyline class="cls-8" points="609.45 413.92 607.37 417.68 610.12 419.26 609.12 420.93 609.79 421.35 612.88 415.84"/><polyline class="cls-8" points="589.34 457.49 590.93 454.73 590.18 454.4 589.26 456.07 586.5 454.48 585.92 455.57"/><line class="cls-8" x1="590.93" y1="454.73" x2="609.79" y2="421.35"/><polyline class="cls-8" points="605.95 416.93 603.61 421.02 587.42 449.64"/><polyline class="cls-8" points="603.61 421.02 607.78 423.36 610.12 419.26 605.95 416.93"/><polyline class="cls-8" points="589.26 456.07 591.6 451.98 587.42 449.64 585.09 453.73 589.26 456.07"/><line class="cls-8" x1="591.59" y1="451.98" x2="607.78" y2="423.35"/><line class="cls-8" x1="603.61" y1="421.02" x2="587.42" y2="449.64"/><line class="cls-8" x1="605.7" y1="422.19" x2="589.51" y2="450.81"/><polyline class="cls-8" points="585.92 455.57 585.34 456.57 588.09 458.15 587.09 459.82 587.76 460.24 589.34 457.49"/><polyline class="cls-8" points="567.31 496.38 568.9 493.62 568.23 493.29 567.23 494.96 564.47 493.37 563.89 494.46"/><line class="cls-8" x1="568.9" y1="493.62" x2="587.76" y2="460.24"/><polyline class="cls-8" points="583.92 455.82 581.66 459.91 565.47 488.53"/><polyline class="cls-8" points="581.66 459.91 585.75 462.24 588.09 458.15 583.92 455.82"/><polyline class="cls-8" points="567.23 494.96 569.56 490.87 565.47 488.53 563.14 492.62 567.23 494.96"/><line class="cls-8" x1="569.56" y1="490.87" x2="585.75" y2="462.24"/><line class="cls-8" x1="581.66" y1="459.91" x2="565.47" y2="488.53"/><line class="cls-8" x1="583.67" y1="461.08" x2="567.48" y2="489.7"/><polyline class="cls-8" points="563.89 494.46 563.3 495.46 566.06 497.04 565.06 498.71 565.81 499.13 567.31 496.38"/><polyline class="cls-8" points="543.78 538.02 546.86 532.51 546.2 532.09 545.2 533.85 542.44 532.26 540.36 536.1"/><line class="cls-8" x1="546.86" y1="532.51" x2="565.81" y2="499.13"/><polyline class="cls-8" points="561.97 494.71 559.63 498.8 543.44 527.42"/><polyline class="cls-8" points="559.63 498.8 563.72 501.13 566.06 497.04 561.97 494.71"/><polyline class="cls-8" points="545.2 533.85 547.53 529.76 543.44 527.42 541.11 531.51 545.2 533.85"/><line class="cls-8" x1="547.53" y1="529.76" x2="563.72" y2="501.13"/><line class="cls-8" x1="559.63" y1="498.8" x2="543.44" y2="527.42"/><line class="cls-8" x1="561.64" y1="499.96" x2="545.45" y2="528.59"/><polyline class="cls-8" points="608.79 413.51 609.45 413.92 612.88 415.84 609.45 413.92"/><polyline class="cls-8" points="539.6 535.68 540.36 536.1 543.78 538.02 540.36 536.1"/><line class="cls-8" x1="618.22" y1="422.52" x2="617.55" y2="422.1"/><polyline class="cls-8" points="611.37 418.6 611.71 417.93 611.37 418.6"/><polyline class="cls-8" points="611.71 417.93 612.88 415.84 611.71 417.93"/><line class="cls-8" x1="552.21" y1="539.19" x2="551.45" y2="538.77"/><polyline class="cls-8" points="545.28 535.26 544.95 535.93 545.28 535.26"/><polyline class="cls-8" points="544.95 535.93 543.78 538.02 544.95 535.93"/><polyline class="cls-8" points="617.55 422.1 615.46 420.93 611.37 418.6"/><polyline class="cls-8" points="551.45 538.77 549.45 537.6 545.28 535.26"/><line class="cls-8" x1="403.41" y1="722.03" x2="434.12" y2="722.03"/><line class="cls-8" x1="239.68" y1="722.03" x2="282.82" y2="722.03"/><polyline class="cls-8" points="447.72 722.03 434.12 722.03 447.72 722.03"/><line class="cls-8" x1="238.84" y1="714.1" x2="282.82" y2="714.1"/><line class="cls-8" x1="403.41" y1="714.1" x2="438.63" y2="714.1"/><polyline class="cls-8" points="438.63 714.1 440.88 710.18 438.63 714.1"/><line class="cls-8" x1="291.5" y1="722.03" x2="291.5" y2="714.1"/><line class="cls-8" x1="394.73" y1="722.03" x2="394.73" y2="714.1"/><line class="cls-8" x1="288.33" y1="714.1" x2="290.66" y2="714.1"/><line class="cls-8" x1="290.66" y1="714.1" x2="291.5" y2="714.1"/><line class="cls-8" x1="291.5" y1="722.78" x2="291.5" y2="722.03"/><line class="cls-8" x1="397.9" y1="714.1" x2="395.56" y2="714.1"/><line class="cls-8" x1="395.56" y1="714.1" x2="394.73" y2="714.1"/><line class="cls-8" x1="394.73" y1="722.78" x2="394.73" y2="722.03"/><line class="cls-8" x1="288.33" y1="714.1" x2="288.33" y2="714.1"/><line class="cls-8" x1="282.82" y1="714.1" x2="288.33" y2="714.1"/><line class="cls-8" x1="282.82" y1="714.1" x2="282.82" y2="714.1"/><polyline class="cls-8" points="282.82 722.03 290.67 722.03 290.67 714.1 290.67 722.03"/><line class="cls-8" x1="290.66" y1="722.78" x2="291.5" y2="722.78"/><line class="cls-8" x1="397.9" y1="714.1" x2="397.9" y2="714.1"/><line class="cls-8" x1="403.41" y1="714.1" x2="397.9" y2="714.1"/><line class="cls-8" x1="403.41" y1="714.1" x2="403.41" y2="714.1"/><polyline class="cls-8" points="403.41 722.03 395.56 722.03 395.56 714.1 395.56 722.03"/><line class="cls-8" x1="395.56" y1="722.78" x2="394.73" y2="722.78"/><polyline class="cls-8" points="288.33 714.1 288.33 709.35 288.33 694.41"/><polyline class="cls-8" points="397.9 714.1 397.9 709.35 397.9 694.41 431.7 694.41"/><line class="cls-8" x1="288.33" y1="694.41" x2="236.84" y2="694.41"/><line class="cls-8" x1="239.76" y1="722.78" x2="290.66" y2="722.78"/><line class="cls-8" x1="395.56" y1="722.78" x2="448.22" y2="722.78"/><polyline class="cls-8" points="291.5 722.78 394.73 722.78 394.73 726.71 291.5 726.71 291.5 722.78"/><line class="cls-8" x1="397.9" y1="694.41" x2="288.33" y2="694.41"/><polyline class="cls-8" points="397.9 709.35 393.56 709.35 393.56 712.52 391.64 712.52 391.64 714.1 397.9 714.1"/><polyline class="cls-8" points="327.72 714.1 330.89 714.1 330.89 712.52 328.97 712.52 328.97 709.35 327.72 709.35"/><line class="cls-8" x1="330.89" y1="714.1" x2="391.64" y2="714.1"/><polyline class="cls-8" points="393.56 707.76 388.89 707.76 333.64 707.76"/><polyline class="cls-8" points="388.89 707.76 388.89 712.52 393.56 712.52 393.56 707.76"/><polyline class="cls-8" points="328.97 712.52 333.64 712.52 333.64 707.76 328.97 707.76 328.97 712.52"/><line class="cls-8" x1="333.64" y1="712.52" x2="388.89" y2="712.52"/><line class="cls-8" x1="388.89" y1="707.76" x2="333.64" y2="707.76"/><line class="cls-8" x1="388.89" y1="710.18" x2="333.64" y2="710.18"/><polyline class="cls-8" points="327.72 709.35 326.55 709.35 326.55 712.52 324.63 712.52 324.63 714.1 327.72 714.1"/><polyline class="cls-8" points="288.33 714.1 294.59 714.1 294.59 712.52 292.67 712.52 292.67 709.35 288.33 709.35"/><line class="cls-8" x1="294.59" y1="714.1" x2="324.63" y2="714.1"/><polyline class="cls-8" points="326.55 707.76 321.79 707.76 297.42 707.76"/><polyline class="cls-8" points="321.79 707.76 321.79 712.52 326.55 712.52 326.55 707.76"/><polyline class="cls-8" points="292.67 712.52 297.42 712.52 297.42 707.76 292.67 707.76 292.67 712.52"/><line class="cls-8" x1="297.42" y1="712.52" x2="321.79" y2="712.52"/><line class="cls-8" x1="321.79" y1="707.76" x2="297.42" y2="707.76"/><line class="cls-8" x1="321.79" y1="710.18" x2="297.42" y2="710.18"/><polyline class="cls-8" points="397.9 694.41 397.9 709.35 397.9 714.1 397.9 709.35"/><polyline class="cls-8" points="288.33 694.41 288.33 709.35 288.33 714.1 288.33 709.35"/><line class="cls-8" x1="394.73" y1="722.78" x2="394.73" y2="722.03"/><polyline class="cls-8" points="394.73 714.1 395.56 714.1 394.73 714.1"/><polyline class="cls-8" points="395.56 714.1 397.9 714.1 395.56 714.1"/><line class="cls-8" x1="291.5" y1="722.78" x2="291.5" y2="722.03"/><polyline class="cls-8" points="291.5 714.1 290.67 714.1 291.5 714.1"/><polyline class="cls-8" points="290.67 714.1 288.33 714.1 290.67 714.1"/><line class="cls-8" x1="394.73" y1="722.03" x2="394.73" y2="714.1"/><line class="cls-8" x1="291.5" y1="722.03" x2="291.5" y2="714.1"/><polyline class="cls-8" points="901.2 41.48 911.89 41.48 901.2 41.48"/><line class="cls-8" x1="911.89" y1="41.48" x2="911.39" y2="42.31"/><line class="cls-8" x1="914.14" y1="42.31" x2="914.56" y2="41.48"/><line class="cls-8" x1="914.14" y1="42.31" x2="914.56" y2="41.48"/><polyline class="cls-8" points="914.56 41.48 915.06 41.48 915.06 41.48"/><polyline class="cls-8" points="901.2 29.63 915.06 29.63 915.06 13.85 915.06 29.63 915.06 29.63 915.06 29.63"/><line class="cls-8" x1="915.06" y1="13.85" x2="901.2" y2="13.85"/><line class="cls-8" x1="901.2" y1="33.63" x2="901.2" y2="29.62"/><line class="cls-8" x1="901.2" y1="29.62" x2="901.2" y2="13.85"/><line class="cls-8" x1="915.06" y1="42.31" x2="915.06" y2="42.31"/><polyline class="cls-8" points="618.3 397.15 704.17 397.15 713.19 397.15"/><polyline class="cls-8" points="618.3 385.3 688.23 385.3 697.16 369.53 688.23 385.3 706.34 385.3 688.23 385.3"/><line class="cls-8" x1="697.16" y1="369.53" x2="618.3" y2="369.53"/><line class="cls-8" x1="618.3" y1="389.22" x2="618.3" y2="385.3"/><line class="cls-8" x1="618.3" y1="385.3" x2="618.3" y2="369.53"/><line class="cls-8" x1="618.3" y1="397.9" x2="713.69" y2="397.9"/><polyline class="cls-8" points="447.72 722.03 452.23 714.1 490.03 647.34"/><polyline class="cls-8" points="479.69 641.58 449.81 694.41 431.7 694.41 449.81 694.41 440.88 710.18 449.81 694.41"/><line class="cls-8" x1="466" y1="633.74" x2="431.7" y2="694.41"/><line class="cls-8" x1="448.22" y1="722.78" x2="448.64" y2="722.03"/><line class="cls-8" x1="448.64" y1="722.03" x2="490.7" y2="647.76"/><line class="cls-8" x1="483.11" y1="643.5" x2="479.69" y2="641.58"/><line class="cls-8" x1="479.69" y1="641.58" x2="466" y2="633.74"/><polyline class="cls-8" points="772.19 293 719.95 385.3 713.19 397.15 719.95 385.3"/><polyline class="cls-8" points="710.85 385.3 706.34 385.3 710.85 385.3"/><line class="cls-8" x1="710.85" y1="385.3" x2="765.34" y2="289.08"/><line class="cls-8" x1="748.15" y1="279.4" x2="697.16" y2="369.53"/><line class="cls-8" x1="713.69" y1="397.9" x2="714.1" y2="397.15"/><line class="cls-8" x1="714.1" y1="397.15" x2="772.85" y2="293.34"/><line class="cls-8" x1="765.34" y1="289.08" x2="748.15" y2="279.4"/><polyline class="cls-8" points="915.06 29.63 915.06 29.63 915.06 29.63"/><line class="cls-8" x1="915.06" y1="42.31" x2="915.06" y2="16.75"/><line class="cls-8" x1="0.5" y1="0.5" x2="0.5" y2="16.27"/><polyline class="cls-8" points="0.5 32.05 0.5 694.41 16.27 694.41 16.27 16.27"/><polyline class="cls-8" points="408.17 29.63 754.33 29.63 754.33 13.85 449.98 13.85"/><line class="cls-8" x1="434.2" y1="13.85" x2="392.39" y2="13.85"/><line class="cls-8" x1="408.17" y1="353.75" x2="401.91" y2="353.75"/><line class="cls-8" x1="408.17" y1="282.82" x2="401.91" y2="282.82"/><line class="cls-8" x1="408.17" y1="369.53" x2="408.17" y2="353.75"/><polyline class="cls-8" points="408.17 282.82 408.17 57.25 401.91 57.25 401.91 108.49"/><line class="cls-8" x1="401.91" y1="114.83" x2="401.91" y2="264.63"/><line class="cls-8" x1="401.91" y1="270.97" x2="401.91" y2="282.82"/><polyline class="cls-8" points="401.91 353.75 401.91 369.53 408.17 369.53"/><polyline class="cls-8" points="242.6 375.87 242.6 694.41 248.85 694.41 248.85 375.87"/><line class="cls-8" x1="338.82" y1="264.63" x2="338.82" y2="270.97"/><line class="cls-8" x1="283.57" y1="264.63" x2="283.57" y2="270.97"/><line class="cls-8" x1="160.56" y1="270.97" x2="160.56" y2="264.63"/><line class="cls-8" x1="215.81" y1="270.97" x2="215.81" y2="264.63"/><line class="cls-8" x1="134.52" y1="270.97" x2="160.56" y2="270.97"/><line class="cls-8" x1="215.81" y1="270.97" x2="283.57" y2="270.97"/><line class="cls-8" x1="338.82" y1="270.97" x2="401.91" y2="270.97"/><line class="cls-8" x1="401.91" y1="264.63" x2="338.82" y2="264.63"/><line class="cls-8" x1="283.57" y1="264.63" x2="235.5" y2="264.63"/><line class="cls-8" x1="229.16" y1="264.63" x2="215.81" y2="264.63"/><line class="cls-8" x1="160.56" y1="264.63" x2="140.87" y2="264.63"/><line class="cls-8" x1="140.87" y1="138.45" x2="229.16" y2="138.45"/><line class="cls-8" x1="229.16" y1="132.19" x2="140.87" y2="132.19"/><polyline class="cls-8" points="392.39 13.85 392.39 29.63 392.39 41.48"/><line class="cls-8" x1="408.17" y1="57.25" x2="408.17" y2="29.62"/><line class="cls-8" x1="392.39" y1="41.48" x2="244.93" y2="41.48"/><polyline class="cls-8" points="408.17 57.25 392.39 57.25 229.16 57.25"/><line class="cls-8" x1="244.93" y1="41.48" x2="244.93" y2="0.5"/><polyline class="cls-8" points="229.16 57.25 229.16 41.48 229.16 16.27"/><polyline class="cls-8" points="32.8 16.27 32.8 6.76 32.8 0.5"/><polyline class="cls-8" points="111.66 16.27 111.66 6.76 111.66 0.5"/><line class="cls-8" x1="16.27" y1="16.27" x2="32.8" y2="16.27"/><line class="cls-8" x1="111.66" y1="16.27" x2="229.16" y2="16.27"/><polyline class="cls-8" points="244.93 0.5 229.16 0.5 111.66 0.5"/><polyline class="cls-8" points="0.5 0.5 16.27 0.5 32.8 0.5"/><line class="cls-8" x1="111.66" y1="0.5" x2="111.49" y2="0.5"/><line class="cls-8" x1="111.41" y1="0.5" x2="111.41" y2="0.5"/><line class="cls-8" x1="111.33" y1="0.5" x2="111.33" y2="0.5"/><line class="cls-8" x1="33.46" y1="0.5" x2="33.3" y2="0.5"/><line class="cls-8" x1="33.21" y1="0.5" x2="33.21" y2="0.5"/><line class="cls-8" x1="33.13" y1="0.5" x2="33.13" y2="0.5"/><line class="cls-8" x1="33.05" y1="0.5" x2="32.8" y2="0.5"/><path class="cls-8" d="M36,79.36A72.56,72.56,0,0,0,108.57,6.8"/><polyline class="cls-8" points="111.66 0.5 108.57 0.5 108.57 6.76 111.66 6.76 111.66 0.5"/><polyline class="cls-8" points="32.8 6.76 35.97 6.76 35.97 0.5 32.8 0.5 32.8 6.76"/><line class="cls-8" x1="35.97" y1="6.76" x2="35.97" y2="79.36"/><polyline class="cls-8" points="111.66 0.5 111.66 6.76 111.66 0.5"/><line class="cls-8" x1="111.66" y1="16.27" x2="111.66" y2="6.76"/><polyline class="cls-8" points="32.8 0.5 32.8 6.76 32.8 0.5"/><line class="cls-8" x1="32.8" y1="16.27" x2="32.8" y2="6.76"/><line class="cls-8" x1="140.87" y1="122.67" x2="134.52" y2="122.67"/><polyline class="cls-8" points="140.87 67.51 134.53 67.51 134.53 16.27"/><polyline class="cls-8" points="134.53 270.97 134.53 264.63 134.53 122.67"/><line class="cls-8" x1="140.87" y1="264.63" x2="140.87" y2="138.45"/><line class="cls-8" x1="140.87" y1="132.19" x2="140.87" y2="122.67"/><polyline class="cls-8" points="140.87 67.51 140.87 16.27 134.53 16.27"/><line class="cls-8" x1="229.16" y1="57.25" x2="229.16" y2="132.19"/><line class="cls-8" x1="229.16" y1="138.45" x2="229.16" y2="264.63"/><line class="cls-8" x1="235.5" y1="264.63" x2="235.5" y2="114.83"/><polyline class="cls-8" points="235.5 108.49 235.5 57.25 229.16 57.25"/><polyline class="cls-8" points="323.38 108.49 323.38 57.25 317.12 57.25 317.12 108.49"/><polyline class="cls-8" points="269.38 108.49 269.38 57.25 263.13 57.25 263.13 108.49"/><polyline class="cls-8" points="490.03 647.34 535.93 566.23 539.85 559.38"/><line class="cls-8" x1="483.11" y1="643.5" x2="519.41" y2="579.49"/><line class="cls-8" x1="519.41" y1="579.49" x2="529.09" y2="562.3"/><polyline class="cls-8" points="502.22 569.73 466 633.74 483.11 643.5"/><line class="cls-8" x1="490.7" y1="647.76" x2="540.94" y2="559.05"/><line class="cls-8" x1="781.95" y1="41.48" x2="901.2" y2="41.48"/><line class="cls-8" x1="774.02" y1="33.63" x2="901.2" y2="33.63"/><line class="cls-8" x1="782.7" y1="42.31" x2="901.2" y2="42.31"/><polyline class="cls-8" points="901.2 33.63 901.2 13.85 754.33 13.85"/><polyline class="cls-8" points="772.19 293 811.08 224.32 814.91 217.48"/><polyline class="cls-8" points="761.92 287.16 791.05 235.67 777.28 227.91 791.05 235.67 798.81 221.98 791.05 235.67"/><line class="cls-8" x1="777.28" y1="227.91" x2="748.15" y2="279.4"/><line class="cls-8" x1="765.34" y1="289.08" x2="761.92" y2="287.16"/><line class="cls-8" x1="761.92" y1="287.16" x2="748.15" y2="279.4"/><line class="cls-8" x1="772.85" y1="293.34" x2="816" y2="217.23"/><line class="cls-8" x1="506.72" y1="397.15" x2="618.3" y2="397.15"/><line class="cls-8" x1="498.88" y1="389.22" x2="618.3" y2="389.22"/><line class="cls-8" x1="507.56" y1="397.9" x2="618.3" y2="397.9"/><polyline class="cls-8" points="618.3 389.22 618.3 369.53 479.18 369.53"/><line class="cls-8" x1="781.95" y1="198.78" x2="781.95" y2="174"/><line class="cls-8" x1="774.02" y1="203.37" x2="774.02" y2="174"/><line class="cls-8" x1="781.95" y1="42.31" x2="774.02" y2="42.31"/><line class="cls-8" x1="781.95" y1="170.83" x2="774.02" y2="170.83"/><line class="cls-8" x1="774.02" y1="39.14" x2="774.02" y2="41.48"/><line class="cls-8" x1="774.02" y1="41.48" x2="774.02" y2="42.31"/><line class="cls-8" x1="782.7" y1="42.31" x2="781.95" y2="42.31"/><line class="cls-8" x1="774.02" y1="174" x2="774.02" y2="171.58"/><line class="cls-8" x1="774.02" y1="171.58" x2="774.02" y2="170.83"/><line class="cls-8" x1="782.7" y1="170.83" x2="781.95" y2="170.83"/><line class="cls-8" x1="774.02" y1="39.14" x2="774.02" y2="33.63"/><line class="cls-8" x1="774.02" y1="39.14" x2="774.02" y2="39.14"/><polyline class="cls-8" points="781.95 39.14 781.95 41.48 774.02 41.48 781.95 41.48"/><line class="cls-8" x1="782.7" y1="41.48" x2="782.7" y2="42.31"/><line class="cls-8" x1="774.02" y1="174" x2="774.02" y2="174"/><polyline class="cls-8" points="781.95 174 781.95 171.58 774.02 171.58 781.95 171.58"/><line class="cls-8" x1="782.7" y1="171.58" x2="782.7" y2="170.83"/><polyline class="cls-8" points="774.02 33.63 769.35 33.63 754.33 33.63"/><polyline class="cls-8" points="774.02 174 769.35 174 754.33 174"/><line class="cls-8" x1="754.33" y1="13.85" x2="754.33" y2="33.63"/><line class="cls-8" x1="754.33" y1="174" x2="754.33" y2="214.89"/><line class="cls-8" x1="782.7" y1="198.37" x2="782.7" y2="171.58"/><line class="cls-8" x1="782.7" y1="170.83" x2="782.7" y2="42.31"/><line class="cls-8" x1="754.33" y1="174" x2="754.33" y2="33.63"/><polyline class="cls-8" points="769.35 174 769.35 169.66 772.52 169.66 772.52 167.66 774.02 167.66 774.02 174"/><polyline class="cls-8" points="774.02 103.81 774.02 106.57 772.52 106.57 772.52 104.56 769.35 104.56 769.35 103.81"/><line class="cls-8" x1="767.76" y1="169.66" x2="735.22" y2="113.33"/><line class="cls-8" x1="774.02" y1="106.57" x2="774.02" y2="167.66"/><polyline class="cls-8" points="767.76 169.66 767.76 164.9 767.76 109.32"/><polyline class="cls-8" points="767.76 164.9 772.52 164.9 772.52 169.66 767.76 169.66"/><polyline class="cls-8" points="772.52 104.56 772.52 109.32 767.76 109.32 767.76 104.56 772.52 104.56"/><line class="cls-8" x1="772.52" y1="109.32" x2="772.52" y2="164.9"/><line class="cls-8" x1="767.76" y1="164.9" x2="767.76" y2="109.32"/><line class="cls-8" x1="770.1" y1="164.9" x2="770.1" y2="109.32"/><polyline class="cls-8" points="769.35 103.81 769.35 102.98 772.52 102.98 772.52 101.06 774.02 101.06 774.02 103.81"/><polyline class="cls-8" points="774.02 33.63 774.02 39.89 772.52 39.89 772.52 37.97 769.35 37.97 769.35 33.63"/><line class="cls-8" x1="767.76" y1="37.97" x2="735.22" y2="94.3"/><line class="cls-8" x1="774.02" y1="39.89" x2="774.02" y2="101.06"/><polyline class="cls-8" points="767.76 102.98 767.76 98.22 767.76 42.64"/><polyline class="cls-8" points="767.76 98.22 772.52 98.22 772.52 102.98 767.76 102.98"/><polyline class="cls-8" points="772.52 37.97 772.52 42.64 767.76 42.64 767.76 37.97 772.52 37.97"/><line class="cls-8" x1="772.52" y1="42.64" x2="772.52" y2="98.22"/><line class="cls-8" x1="767.76" y1="98.22" x2="767.76" y2="42.64"/><line class="cls-8" x1="770.1" y1="98.22" x2="770.1" y2="42.64"/><path class="cls-8" d="M767.81,104.65a65.06,65.06,0,0,0-32.53,8.71"/><path class="cls-8" d="M735.28,94.35a65.06,65.06,0,0,0,32.53,8.71"/><polyline class="cls-8" points="754.33 174 769.35 174 774.02 174 769.35 174"/><polyline class="cls-8" points="754.33 33.63 769.35 33.63 774.02 33.63 769.35 33.63"/><polyline class="cls-8" points="774.02 33.63 774.02 39.14 774.02 33.63"/><line class="cls-8" x1="782.7" y1="170.83" x2="781.95" y2="170.83"/><polyline class="cls-8" points="774.02 170.83 774.02 171.58 774.02 170.83"/><polyline class="cls-8" points="774.02 171.58 774.02 174 774.02 171.58"/><line class="cls-8" x1="782.7" y1="42.31" x2="781.95" y2="42.31"/><polyline class="cls-8" points="774.02 42.31 774.02 41.48 774.02 42.31"/><polyline class="cls-8" points="774.02 41.48 774.02 39.14 774.02 41.48"/><line class="cls-8" x1="781.95" y1="170.83" x2="774.02" y2="170.83"/><line class="cls-8" x1="781.95" y1="42.31" x2="774.02" y2="42.31"/><polyline class="cls-8" points="782.7 199.28 781.95 198.78 782.7 199.28"/><polyline class="cls-8" points="782.7 199.28 804.65 211.63 814.91 217.48 804.65 211.63"/><line class="cls-8" x1="774.02" y1="203.37" x2="781.95" y2="207.88"/><line class="cls-8" x1="774.02" y1="203.37" x2="781.95" y2="207.88"/><polyline class="cls-8" points="800.73 218.48 798.81 221.98 800.73 218.48"/><line class="cls-8" x1="800.73" y1="218.48" x2="781.95" y2="207.88"/><polyline class="cls-8" points="754.33 214.89 774.02 226.07 777.28 227.91"/><line class="cls-8" x1="816" y1="217.23" x2="815.33" y2="216.81"/><line class="cls-8" x1="815.33" y1="216.81" x2="782.7" y2="198.37"/><polyline class="cls-8" points="754.33 210.72 754.33 268.72 787.04 210.72 754.33 210.72"/><polyline class="cls-8" points="506.72 540.61 533.01 555.46 539.85 559.38 533.01 555.46"/><line class="cls-8" x1="529.09" y1="562.3" x2="511.9" y2="552.62"/><line class="cls-8" x1="529.09" y1="562.3" x2="511.9" y2="552.62"/><line class="cls-8" x1="511.9" y1="552.62" x2="498.88" y2="545.2"/><line class="cls-8" x1="479.18" y1="556.71" x2="502.22" y2="569.73"/><line class="cls-8" x1="540.94" y1="559.05" x2="540.19" y2="558.63"/><line class="cls-8" x1="540.19" y1="558.63" x2="507.56" y2="540.19"/><polyline class="cls-8" points="506.72 540.61 506.72 539.69 506.72 540.61"/><line class="cls-8" x1="498.88" y1="536.18" x2="498.88" y2="545.2"/><line class="cls-8" x1="498.88" y1="536.18" x2="498.88" y2="545.2"/><line class="cls-8" x1="506.72" y1="539.69" x2="506.72" y2="529.59"/><line class="cls-8" x1="498.88" y1="536.18" x2="498.88" y2="529.59"/><line class="cls-8" x1="506.72" y1="397.9" x2="498.88" y2="397.9"/><line class="cls-8" x1="506.72" y1="526.5" x2="498.88" y2="526.5"/><line class="cls-8" x1="498.88" y1="394.81" x2="498.88" y2="397.15"/><line class="cls-8" x1="498.88" y1="397.15" x2="498.88" y2="397.9"/><line class="cls-8" x1="507.56" y1="397.9" x2="506.72" y2="397.9"/><line class="cls-8" x1="498.88" y1="529.59" x2="498.88" y2="527.25"/><line class="cls-8" x1="498.88" y1="527.25" x2="498.88" y2="526.5"/><line class="cls-8" x1="507.56" y1="526.5" x2="506.72" y2="526.5"/><line class="cls-8" x1="498.88" y1="394.81" x2="498.88" y2="389.22"/><line class="cls-8" x1="498.88" y1="394.81" x2="498.88" y2="394.81"/><polyline class="cls-8" points="506.72 394.81 506.72 397.15 498.88 397.15 506.72 397.15"/><line class="cls-8" x1="507.56" y1="397.15" x2="507.56" y2="397.9"/><line class="cls-8" x1="498.88" y1="529.59" x2="498.88" y2="529.59"/><polyline class="cls-8" points="506.72 529.59 506.72 527.25 498.88 527.25 506.72 527.25"/><line class="cls-8" x1="507.56" y1="527.25" x2="507.56" y2="526.5"/><polyline class="cls-8" points="498.88 389.22 494.12 389.22 479.18 389.22"/><polyline class="cls-8" points="498.88 529.59 494.12 529.59 479.18 529.59"/><line class="cls-8" x1="479.18" y1="369.53" x2="479.18" y2="389.22"/><polyline class="cls-8" points="479.18 556.71 479.18 534.01 479.18 529.59"/><line class="cls-8" x1="507.56" y1="540.19" x2="507.56" y2="527.25"/><line class="cls-8" x1="507.56" y1="526.5" x2="507.56" y2="397.9"/><line class="cls-8" x1="479.18" y1="529.59" x2="479.18" y2="389.22"/><polyline class="cls-8" points="494.12 529.59 494.12 525.25 497.29 525.25 497.29 523.33 498.88 523.33 498.88 529.59"/><polyline class="cls-8" points="498.88 459.41 498.88 462.16 497.29 462.16 497.29 460.24 494.12 460.24 494.12 459.41"/><line class="cls-8" x1="492.54" y1="525.25" x2="459.99" y2="468.92"/><line class="cls-8" x1="498.88" y1="462.16" x2="498.88" y2="523.33"/><polyline class="cls-8" points="492.54 525.25 492.54 520.58 492.54 465"/><polyline class="cls-8" points="492.54 520.58 497.29 520.58 497.29 525.25 492.54 525.25"/><polyline class="cls-8" points="497.29 460.24 497.29 465 492.54 465 492.54 460.24 497.29 460.24"/><line class="cls-8" x1="497.29" y1="465" x2="497.29" y2="520.58"/><line class="cls-8" x1="492.54" y1="520.58" x2="492.54" y2="465"/><line class="cls-8" x1="494.96" y1="520.58" x2="494.96" y2="465"/><polyline class="cls-8" points="494.12 459.41 494.12 458.65 497.29 458.65 497.29 456.65 498.88 456.65 498.88 459.41"/><polyline class="cls-8" points="498.88 389.22 498.88 395.56 497.29 395.56 497.29 393.56 494.12 393.56 494.12 389.22"/><line class="cls-8" x1="492.54" y1="393.56" x2="459.99" y2="449.89"/><line class="cls-8" x1="498.88" y1="395.56" x2="498.88" y2="456.65"/><polyline class="cls-8" points="492.54 458.65 492.54 453.9 492.54 398.32"/><polyline class="cls-8" points="492.54 453.9 497.29 453.9 497.29 458.65 492.54 458.65"/><polyline class="cls-8" points="497.29 393.56 497.29 398.32 492.54 398.32 492.54 393.56 497.29 393.56"/><line class="cls-8" x1="497.29" y1="398.32" x2="497.29" y2="453.9"/><line class="cls-8" x1="492.54" y1="453.9" x2="492.54" y2="398.32"/><line class="cls-8" x1="494.96" y1="453.9" x2="494.96" y2="398.32"/><path class="cls-8" d="M492.58,460.24A65.16,65.16,0,0,0,460.05,469"/><path class="cls-8" d="M460.05,449.94a65.06,65.06,0,0,0,32.53,8.71"/><polyline class="cls-8" points="479.18 529.59 494.12 529.59 498.88 529.59 494.12 529.59"/><polyline class="cls-8" points="479.18 389.22 494.12 389.22 498.88 389.22 494.12 389.22"/><polyline class="cls-8" points="498.88 389.22 498.88 394.81 498.88 389.22"/><line class="cls-8" x1="507.56" y1="526.5" x2="506.72" y2="526.5"/><polyline class="cls-8" points="498.88 526.5 498.88 527.25 498.88 526.5"/><polyline class="cls-8" points="498.88 527.25 498.88 529.59 498.88 527.25"/><line class="cls-8" x1="507.56" y1="397.9" x2="506.72" y2="397.9"/><polyline class="cls-8" points="498.88 397.9 498.88 397.15 498.88 397.9"/><polyline class="cls-8" points="498.88 397.15 498.88 394.81 498.88 397.15"/><line class="cls-8" x1="506.72" y1="526.5" x2="498.88" y2="526.5"/><line class="cls-8" x1="506.72" y1="397.9" x2="498.88" y2="397.9"/><polyline class="cls-8" points="479.18 552.62 479.18 610.62 512.07 552.62 479.18 552.62"/><polyline class="cls-8" points="313.2 114.83 313.2 111.66 313.2 108.49"/><polyline class="cls-8" points="235.5 114.83 281.65 114.83 281.65 111.66 281.65 108.49"/><line class="cls-8" x1="313.2" y1="114.83" x2="401.91" y2="114.83"/><line class="cls-8" x1="401.91" y1="108.49" x2="323.38" y2="108.49"/><line class="cls-8" x1="317.12" y1="108.49" x2="313.2" y2="108.49"/><line class="cls-8" x1="281.65" y1="108.49" x2="269.38" y2="108.49"/><line class="cls-8" x1="263.13" y1="108.49" x2="235.5" y2="108.49"/><line class="cls-8" x1="281.65" y1="114.83" x2="313.2" y2="114.83"/><line class="cls-8" x1="281.65" y1="108.49" x2="313.2" y2="108.49"/><path class="cls-8" d="M281.74,114.87a31.47,31.47,0,0,0,1.9,10.78"/><line class="cls-8" x1="313.2" y1="114.83" x2="283.49" y2="125.6"/><polyline class="cls-8" points="281.65 108.49 281.65 111.66 281.65 114.83 281.65 111.66"/><polyline class="cls-8" points="313.2 108.49 313.2 111.66 313.2 114.83 313.2 111.66"/><polyline class="cls-8" points="479.18 369.53 471.26 369.53 471.26 385.3 479.18 385.3 479.18 369.53"/><line class="cls-8" x1="267.8" y1="375.87" x2="267.8" y2="369.53"/><line class="cls-8" x1="338.82" y1="375.87" x2="338.82" y2="369.53"/><line class="cls-8" x1="231.58" y1="375.87" x2="231.58" y2="369.53"/><line class="cls-8" x1="160.56" y1="375.87" x2="160.56" y2="369.53"/><line class="cls-8" x1="471.26" y1="369.53" x2="338.82" y2="369.53"/><line class="cls-8" x1="267.8" y1="369.53" x2="231.58" y2="369.53"/><polyline class="cls-8" points="160.56 369.53 16.27 369.53 16.27 375.87 160.56 375.87"/><line class="cls-8" x1="231.58" y1="375.87" x2="242.6" y2="375.87"/><line class="cls-8" x1="248.86" y1="375.87" x2="267.8" y2="375.87"/><polyline class="cls-8" points="338.82 375.87 471.26 375.87 471.26 369.53"/><polyline class="cls-8" points="248.85 714.1 248.85 710.18 233.08 710.18 233.08 715.27"/><line class="cls-8" x1="349.83" y1="121.67" x2="390.06" y2="121.67"/><line class="cls-8" x1="394.73" y1="126.1" x2="394.73" y2="223.74"/><line class="cls-8" x1="345.08" y1="126.1" x2="345.08" y2="223.74"/><line class="cls-8" x1="399.49" y1="251.28" x2="399.49" y2="117.17"/><polyline class="cls-8" points="399.49 251.28 340.4 251.28 340.4 117.17 399.49 117.17"/><line class="cls-8" x1="353.34" y1="208.05" x2="353.34" y2="131.69"/><line class="cls-8" x1="355.67" y1="129.43" x2="384.22" y2="129.43"/><line class="cls-8" x1="386.55" y1="208.05" x2="386.55" y2="131.69"/><line class="cls-8" x1="368.44" y1="145.12" x2="365.52" y2="145.12"/><line class="cls-8" x1="369.94" y1="143.79" x2="369.94" y2="140.95"/><line class="cls-8" x1="371.36" y1="145.12" x2="374.28" y2="145.12"/><line class="cls-8" x1="369.94" y1="146.46" x2="369.94" y2="149.21"/><path class="cls-8" d="M345.16,223.78c0,13,11.11,23.49,24.83,23.49s24.82-10.52,24.82-23.49"/><path class="cls-8" d="M394.81,126.14a4.59,4.59,0,0,0-4.71-4.47"/><path class="cls-8" d="M349.87,121.67a4.59,4.59,0,0,0-4.71,4.47"/><path class="cls-8" d="M372.45,145.17a2.47,2.47,0,1,0-2.46,2.29,2.38,2.38,0,0,0,2.46-2.29"/><path class="cls-8" d="M353.34,208.09c0,8.64,7.45,15.65,16.65,15.65s16.65-7,16.65-15.65"/><path class="cls-8" d="M355.72,129.52a2.3,2.3,0,0,0-2.38,2.21"/><path class="cls-8" d="M386.64,131.73a2.3,2.3,0,0,0-2.38-2.21"/><path class="cls-8" d="M373.28,145.17a3.3,3.3,0,1,0-3.29,3.12,3.21,3.21,0,0,0,3.29-3.12"/><polyline class="cls-8" points="281.99 135.19 281.99 117.17 239.43 117.17 239.43 135.19"/><line class="cls-8" x1="254.03" y1="117.17" x2="267.47" y2="117.17"/><line class="cls-8" x1="257.12" y1="131.6" x2="259.45" y2="131.6"/><line class="cls-8" x1="260.71" y1="128.02" x2="260.71" y2="130.35"/><line class="cls-8" x1="262.04" y1="131.6" x2="264.29" y2="131.6"/><line class="cls-8" x1="260.71" y1="132.94" x2="260.71" y2="135.19"/><path class="cls-8" d="M279.41,136.36a19,19,0,0,0-7.36-9"/><path class="cls-8" d="M272,127.4a19,19,0,0,0-11.31-2.66"/><path class="cls-8" d="M249.45,127.38a19,19,0,0,0-7.36,9"/><path class="cls-8" d="M260.77,124.74a19,19,0,0,0-11.32,2.66"/><path class="cls-8" d="M262.23,149.45a34.88,34.88,0,0,0,12.92-3.52"/><path class="cls-8" d="M239.52,135.27a10.79,10.79,0,0,0,4,8.89"/><path class="cls-8" d="M259.26,149.58a21.17,21.17,0,0,0,3,0"/><path class="cls-8" d="M272.66,128.1a77.34,77.34,0,0,0-23.82,0"/><path class="cls-8" d="M246.63,120.64a26.77,26.77,0,0,0-6,17.39"/><path class="cls-8" d="M260.73,118.09a53.72,53.72,0,0,0-12.18,1.31"/><path class="cls-8" d="M248.61,119.42a3.59,3.59,0,0,0-2,1.22"/><path class="cls-8" d="M260.73,119.76a91.15,91.15,0,0,0-12,.86"/><path class="cls-8" d="M246.61,121.82a24,24,0,0,0-6,16.23"/><path class="cls-8" d="M248.74,120.62a3.54,3.54,0,0,0-2.17,1.17"/><path class="cls-8" d="M281,138a24.11,24.11,0,0,0-6-16.23"/><path class="cls-8" d="M280.9,138a26.74,26.74,0,0,0-6.06-17.37"/><path class="cls-8" d="M272.72,120.6a92.47,92.47,0,0,0-12-.85"/><path class="cls-8" d="M273,119.39a53.17,53.17,0,0,0-12.19-1.3"/><path class="cls-8" d="M274.92,121.79a3.54,3.54,0,0,0-2.17-1.17"/><path class="cls-8" d="M274.92,120.64a3.54,3.54,0,0,0-2-1.22"/><path class="cls-8" d="M278,144.16a10.79,10.79,0,0,0,4-8.89"/><path class="cls-8" d="M275.18,146a16.58,16.58,0,0,0,2.84-1.83"/><path class="cls-8" d="M243.48,144.19a16.89,16.89,0,0,0,2.83,1.83"/><path class="cls-8" d="M246.34,145.93a34.88,34.88,0,0,0,12.92,3.52"/><path class="cls-8" d="M254.88,146.51a25,25,0,0,0,11.73,0"/><path class="cls-8" d="M277.27,141.65a6.4,6.4,0,0,0,2.2-5.27"/><path class="cls-8" d="M266.59,146.44a23,23,0,0,0,10.6-4.86"/><path class="cls-8" d="M242.11,136.38a6.37,6.37,0,0,0,2.2,5.27"/><path class="cls-8" d="M244.3,141.58a23,23,0,0,0,10.61,4.86"/><path class="cls-8" d="M260.75,134.44a2.8,2.8,0,1,0-2.8-2.79,2.79,2.79,0,0,0,2.8,2.79"/><path class="cls-8" d="M260.75,133.61a2,2,0,1,0-2-2,2,2,0,0,0,2,2"/><polyline class="cls-8" points="455.48 142.54 412.09 142.54 412.09 99.22 455.48 99.22 455.48 142.54"/><polyline class="cls-8" points="451.56 103.15 451.56 138.61 420.02 138.61 420.02 103.15 451.56 103.15"/><line class="cls-8" x1="211.47" y1="152.97" x2="211.47" y2="180.84"/><polyline class="cls-8" points="212.64 151.3 212.64 140.87 182.68 140.87"/><line class="cls-8" x1="197.62" y1="157.89" x2="186.52" y2="157.89"/><polyline class="cls-8" points="211.47 180.76 208.71 157.89 197.62 157.89"/><line class="cls-8" x1="183.85" y1="180.76" x2="186.52" y2="157.89"/><line class="cls-8" x1="210.72" y1="180.76" x2="208.05" y2="157.89"/><line class="cls-8" x1="184.51" y1="180.76" x2="187.27" y2="157.89"/><line class="cls-8" x1="183.85" y1="152.97" x2="183.85" y2="180.84"/><line class="cls-8" x1="182.68" y1="140.87" x2="182.68" y2="151.3"/><polyline class="cls-8" points="211.47 180.76 211.05 183.85 209.88 186.77 207.96 189.35 205.46 191.36 202.54 192.86 199.28 193.61 195.95 193.61 192.78 192.86 189.77 191.36 187.27 189.35 185.43 186.77 184.26 183.85 183.85 180.76"/><polyline class="cls-8" points="210.72 180.76 210.38 183.68 209.22 186.43 207.46 188.85 205.04 190.77 202.29 192.19 199.2 192.86 196.03 192.86 193.03 192.19 190.19 190.77 187.85 188.85 186.01 186.43 184.93 183.68 184.51 180.76"/><path class="cls-8" d="M184.23,153.09a126.93,126.93,0,0,0,26.86,0"/><path class="cls-8" d="M211.11,153.12a1.76,1.76,0,0,0,1.53-1.78"/><path class="cls-8" d="M182.76,151.34a1.78,1.78,0,0,0,1.54,1.79"/><path class="cls-8" d="M197.66,149a1.46,1.46,0,1,0-1.46-1.46,1.46,1.46,0,0,0,1.46,1.46"/><polyline class="cls-8" points="144.79 154.14 144.79 140.03 177.92 140.03 177.92 154.14"/><line class="cls-8" x1="166.57" y1="140.03" x2="156.14" y2="140.03"/><line class="cls-8" x1="164.15" y1="151.3" x2="162.4" y2="151.3"/><line class="cls-8" x1="161.4" y1="148.54" x2="161.4" y2="150.3"/><line class="cls-8" x1="160.31" y1="151.3" x2="158.56" y2="151.3"/><line class="cls-8" x1="161.4" y1="152.38" x2="161.4" y2="154.14"/><path class="cls-8" d="M152.62,148a14.79,14.79,0,0,0-5.72,7"/><path class="cls-8" d="M161.37,145.92a14.64,14.64,0,0,0-8.78,2.08"/><path class="cls-8" d="M175.89,155a14.83,14.83,0,0,0-5.71-7"/><path class="cls-8" d="M170.21,148a14.66,14.66,0,0,0-8.79-2.08"/><path class="cls-8" d="M150.22,162.5a27.32,27.32,0,0,0,10.05,2.75"/><path class="cls-8" d="M174.78,161.12a8.51,8.51,0,0,0,3.13-7"/><path class="cls-8" d="M160.28,165.36a15,15,0,0,0,2.32,0"/><path class="cls-8" d="M170.7,148.51a60,60,0,0,0-18.53,0"/><path class="cls-8" d="M177.08,156.37a21,21,0,0,0-4.69-13.59"/><path class="cls-8" d="M170.85,141.81a41.38,41.38,0,0,0-9.47-1"/><path class="cls-8" d="M172.45,142.73a2.85,2.85,0,0,0-1.55-1"/><path class="cls-8" d="M170.75,142.79a71,71,0,0,0-9.33-.67"/><path class="cls-8" d="M177.17,156.34a18.89,18.89,0,0,0-4.68-12.69"/><path class="cls-8" d="M172.47,143.65a2.81,2.81,0,0,0-1.72-.92"/><path class="cls-8" d="M150.41,143.63a18.84,18.84,0,0,0-4.7,12.69"/><path class="cls-8" d="M150.42,142.76a21,21,0,0,0-4.71,13.58"/><path class="cls-8" d="M161.38,142.12a69.19,69.19,0,0,0-9.32.66"/><path class="cls-8" d="M161.39,140.79a41.25,41.25,0,0,0-9.47,1"/><path class="cls-8" d="M152,142.73a2.79,2.79,0,0,0-1.71.92"/><path class="cls-8" d="M151.89,141.77a2.77,2.77,0,0,0-1.54,1"/><path class="cls-8" d="M144.88,154.15a8.53,8.53,0,0,0,3.13,7"/><path class="cls-8" d="M148,161.12a12.71,12.71,0,0,0,2.2,1.42"/><path class="cls-8" d="M172.66,162.54a13.1,13.1,0,0,0,2.2-1.42"/><path class="cls-8" d="M162.6,165.25a27.37,27.37,0,0,0,10.06-2.75"/><path class="cls-8" d="M156.89,162.94a19.44,19.44,0,0,0,9.1,0"/><path class="cls-8" d="M146.89,155a4.92,4.92,0,0,0,1.71,4.09"/><path class="cls-8" d="M148.55,159.15a18,18,0,0,0,8.26,3.81"/><path class="cls-8" d="M174.2,159.1a5,5,0,0,0,1.71-4.09"/><path class="cls-8" d="M166,163a18,18,0,0,0,8.26-3.81"/><path class="cls-8" d="M161.44,153.47a2.13,2.13,0,1,0-2.13-2.13,2.13,2.13,0,0,0,2.13,2.13"/><path class="cls-8" d="M161.44,152.88a1.54,1.54,0,1,0-1.55-1.54,1.54,1.54,0,0,0,1.55,1.54"/><polyline class="cls-8" points="122.51 748.57 122.17 748.49 113.41 790.96 113.75 791.05 122.51 748.57"/><polyline class="cls-8" points="111.91 792.3 111.99 791.88 40.97 777.28 40.89 777.69 111.91 792.3"/><polyline class="cls-8" points="39.64 775.77 40.06 775.86 48.74 733.38 48.4 733.3 39.64 775.77"/><polyline class="cls-8" points="123.34 746.73 121.34 746.32 121.01 748.24 122.92 748.65 123.34 746.73"/><polyline class="cls-8" points="114.16 791.13 112.24 790.71 111.83 792.72 113.75 793.05 114.16 791.13"/><polyline class="cls-8" points="40.81 778.03 41.14 776.11 39.22 775.77 38.89 777.69 40.81 778.03"/><polyline class="cls-8" points="47.98 733.21 49.9 733.63 50.32 731.71 48.4 731.29 47.98 733.21"/><line class="cls-8" x1="121.17" y1="747.32" x2="112.24" y2="790.71"/><line class="cls-8" x1="113.75" y1="793.05" x2="123.09" y2="747.73"/><line class="cls-8" x1="112.24" y1="790.71" x2="41.14" y2="776.11"/><line class="cls-8" x1="38.89" y1="777.69" x2="113.75" y2="793.05"/><line class="cls-8" x1="41.14" y1="776.11" x2="50.15" y2="732.71"/><line class="cls-8" x1="48.15" y1="732.3" x2="38.89" y2="777.69"/><polyline class="cls-8" points="123.09 747.74 123.34 746.73 121.34 746.32 121.17 747.32"/><polyline class="cls-8" points="50.15 732.71 50.32 731.71 48.4 731.29 48.15 732.3"/><polyline class="cls-8" points="38.89 777.69 113.75 793.05 123.09 747.74 121.17 747.32 112.24 790.71 41.14 776.11 50.15 732.71 48.15 732.3 38.89 777.69"/><polyline class="cls-8" points="45.56 764.59 112.74 778.36 117.83 753.66 50.66 739.81 45.56 764.59"/><polyline class="cls-8" points="46.06 762.09 113.25 775.94 117.83 753.66 50.66 739.81 46.06 762.09"/><polyline class="cls-8" points="233.08 631.32 248.85 631.32 248.85 710.18 233.08 710.18 233.08 631.32"/><polyline class="cls-8" points="662.86 29.63 662.86 13.85 741.73 13.85 741.73 29.63 662.86 29.63"/><polyline class="cls-8" points="466 633.74 479.69 641.58 440.88 710.18 427.11 702.42 466 633.74"/><polyline class="cls-8" points="901.2 29.63 901.2 13.85 915.06 13.85 915.06 29.63 901.2 29.63"/><polyline class="cls-8" points="787.04 210.72 800.73 218.48 761.92 287.16 748.15 279.4 787.04 210.72"/><polyline class="cls-8" points="392.39 29.63 392.39 13.85 471.26 13.85 471.26 29.63 392.39 29.63"/><polyline class="cls-8" points="618.3 385.3 618.3 369.53 697.16 369.53 697.16 385.3 618.3 385.3"/><polyline class="cls-8" points="0.5 0.5 16.27 0.5 16.27 79.36 0.5 79.36 0.5 0.5"/><polyline class="cls-8" points="392.39 385.3 392.39 369.53 471.26 369.53 471.26 385.3 392.39 385.3"/><polyline class="cls-8" points="0.5 631.32 16.27 631.32 16.27 710.18 0.5 710.18 0.5 631.32"/><polyline class="cls-8" points="0.5 292.25 16.27 292.25 16.27 371.11 0.5 371.11 0.5 292.25"/></svg>