<svg id="_34" data-name="34" xmlns="http://www.w3.org/2000/svg" viewBox="0 0 934.07 816.73"><defs><style>.cls-1{isolation:isolate;font-size:12px;fill:#969696;}.cls-1,.cls-4,.cls-6{font-family:PTSans-Regular, PT Sans;}.cls-2,.cls-5,.cls-7,.cls-8{fill:none;stroke-linecap:round;stroke-linejoin:round;}.cls-2{stroke:#969696;stroke-width:0.75px;}.cls-3{letter-spacing:-0.01em;}.cls-4{font-size:40px;}.cls-5,.cls-7,.cls-8{stroke:#000;}.cls-5{stroke-width:0.5px;}.cls-6{font-size:36px;}.cls-7{stroke-width:0.25px;stroke-dasharray:1 1;}</style></defs><title>5floor_34flat</title><text class="cls-1" transform="translate(475.64 813.53)">двор</text><line class="cls-2" x1="464.88" y1="816.36" x2="464.88" y2="807.56"/><polyline class="cls-2" points="461.38 812.86 464.88 816.36 468.38 812.86"/><text class="cls-1" transform="translate(923.87 414.39) rotate(90)"><tspan class="cls-3">у</tspan><tspan x="5.42" y="0">лица</tspan></text><line class="cls-2" x1="929.85" y1="403.63" x2="921.05" y2="403.63"/><polyline class="cls-2" points="926.35 407.13 929.85 403.63 926.35 400.13"/><text class="cls-4" transform="translate(106.68 514.69)">2K</text><text class="cls-4" transform="translate(81.9 564.86)">61.18</text><text class="cls-4" transform="translate(87.52 464.78)">№34</text><polyline class="cls-5" points="67.61 575.67 67.61 426.6 191.94 426.6 191.94 575.67"/><line class="cls-5" x1="67.61" y1="476.38" x2="191.93" y2="476.38"/><line class="cls-5" x1="67.61" y1="575.67" x2="191.93" y2="575.67"/><line class="cls-5" x1="67.61" y1="526.17" x2="191.93" y2="526.17"/><text class="cls-6" transform="translate(310.3 655.55)">11.34</text><text class="cls-6" transform="translate(83.12 655.55)">11.92</text><text class="cls-6" transform="translate(32.44 193.41)">10.96</text><text class="cls-6" transform="translate(534.76 219.12)">18.46</text><text class="cls-6" transform="translate(148.13 102.41)">1.65</text><text class="cls-6" transform="translate(150.54 234.07)">1.79</text><text class="cls-6" transform="translate(254.63 189.24)">4.01</text><text class="cls-6" transform="translate(783.7 98.52)">0.56</text><text class="cls-6" transform="translate(509.4 446.53)">0.49</text><line class="cls-7" x1="133.47" y1="65" x2="133.47" y2="121.9"/><line class="cls-7" x1="139.77" y1="65" x2="139.77" y2="121.9"/><line class="cls-7" x1="336.52" y1="269.3" x2="281.61" y2="269.3"/><line class="cls-7" x1="336.52" y1="367.26" x2="266.72" y2="367.26"/><line class="cls-7" x1="229.94" y1="367.26" x2="160.13" y2="367.26"/><line class="cls-7" x1="229.19" y1="373.48" x2="159.38" y2="373.48"/><line class="cls-7" x1="338.74" y1="373.48" x2="268.94" y2="373.48"/><line class="cls-7" x1="336.52" y1="262.99" x2="281.61" y2="262.99"/><line class="cls-7" x1="213.35" y1="262.99" x2="158.44" y2="262.99"/><line class="cls-7" x1="213.35" y1="269.3" x2="158.44" y2="269.3"/><line class="cls-7" x1="107.76" y1="0.43" x2="35.43" y2="0.43"/><polyline class="cls-8" points="234.38 718.3 238.19 717.55 234.38 718.3 197.22 725.93"/><line class="cls-8" x1="194.15" y1="726.59" x2="192.58" y2="718.88"/><line class="cls-8" x1="194.32" y1="727.34" x2="194.15" y2="726.59"/><line class="cls-8" x1="195.64" y1="718.3" x2="195.64" y2="718.3"/><polyline class="cls-8" points="197.22 725.93 194.9 726.42 193.32 718.71 194.9 726.42"/><line class="cls-8" x1="195.06" y1="727.17" x2="194.32" y2="727.34"/><polyline class="cls-8" points="195.65 718.3 194.73 713.65 191.66 699.06"/><line class="cls-8" x1="195.06" y1="727.17" x2="238.27" y2="718.3"/><line class="cls-8" x1="235.37" y1="690.1" x2="191.66" y2="699.06"/><polyline class="cls-8" points="122.58 746.08 195.06 731.15 194.32 727.34"/><line class="cls-8" x1="122.58" y1="713.32" x2="191.66" y2="699.06"/><line class="cls-8" x1="122.58" y1="742.1" x2="194.32" y2="727.34"/><line class="cls-8" x1="122.58" y1="713.32" x2="191.66" y2="699.06"/><polyline class="cls-8" points="122.58 728.5 126.73 727.67 127.39 730.74 129.3 730.32 129.63 731.82 123.49 733.14 122.58 733.31"/><polyline class="cls-8" points="195.65 718.3 189.51 719.54 189.18 717.97 191.08 717.63 190.5 714.57 194.73 713.65"/><line class="cls-8" x1="189.51" y1="719.54" x2="129.63" y2="731.82"/><polyline class="cls-8" points="126.48 726.09 131.04 725.18 185.53 713.9"/><polyline class="cls-8" points="131.04 725.18 132.03 729.74 127.39 730.74 126.48 726.09"/><polyline class="cls-8" points="191.08 717.63 186.52 718.55 185.53 713.9 190.17 712.99 191.08 717.63"/><line class="cls-8" x1="186.52" y1="718.55" x2="132.03" y2="729.74"/><line class="cls-8" x1="131.04" y1="725.18" x2="185.53" y2="713.9"/><line class="cls-8" x1="131.54" y1="727.42" x2="186.02" y2="716.22"/><line class="cls-8" x1="123.49" y1="733.14" x2="122.58" y2="728.5"/><polyline class="cls-8" points="191.66 699.06 194.73 713.65 195.65 718.3 194.73 713.65"/><line class="cls-8" x1="194.32" y1="727.34" x2="194.15" y2="726.59"/><polyline class="cls-8" points="192.58 718.88 193.32 718.71 192.58 718.88"/><polyline class="cls-8" points="193.32 718.71 195.65 718.3 193.32 718.71"/><line class="cls-8" x1="194.15" y1="726.59" x2="192.58" y2="718.88"/><polyline class="cls-8" points="0.5 716.22 2.41 716.64 0.5 716.22"/><line class="cls-8" x1="2.41" y1="716.64" x2="47.86" y2="725.93"/><line class="cls-8" x1="50.92" y1="726.59" x2="52.5" y2="718.88"/><line class="cls-8" x1="50.76" y1="727.34" x2="50.92" y2="726.59"/><line class="cls-8" x1="49.43" y1="718.3" x2="49.43" y2="718.3"/><polyline class="cls-8" points="47.86 725.93 50.18 726.42 51.75 718.71 50.18 726.42"/><line class="cls-8" x1="50.01" y1="727.17" x2="50.76" y2="727.34"/><polyline class="cls-8" points="49.43 718.3 50.43 713.65 53.41 699.06"/><line class="cls-8" x1="0.5" y1="716.97" x2="50.01" y2="727.17"/><line class="cls-8" x1="53.41" y1="699.06" x2="8.63" y2="689.85"/><polyline class="cls-8" points="122.58 746.08 50.01 731.15 50.76 727.34"/><line class="cls-8" x1="122.58" y1="713.32" x2="53.41" y2="699.06"/><line class="cls-8" x1="122.58" y1="742.1" x2="50.76" y2="727.34"/><line class="cls-8" x1="122.58" y1="713.32" x2="53.41" y2="699.06"/><polyline class="cls-8" points="122.58 728.5 118.35 727.67 117.69 730.74 115.78 730.32 115.45 731.82 121.58 733.14 122.58 733.31"/><polyline class="cls-8" points="49.43 718.3 55.57 719.54 55.9 717.97 53.99 717.63 54.57 714.57 50.43 713.65"/><line class="cls-8" x1="55.57" y1="719.54" x2="115.45" y2="731.82"/><polyline class="cls-8" points="118.6 726.09 114.04 725.18 59.55 713.9"/><polyline class="cls-8" points="114.04 725.18 113.13 729.74 117.69 730.74 118.6 726.09"/><polyline class="cls-8" points="53.99 717.63 58.55 718.55 59.55 713.9 54.91 712.99 53.99 717.63"/><line class="cls-8" x1="58.55" y1="718.55" x2="113.12" y2="729.74"/><line class="cls-8" x1="114.04" y1="725.18" x2="59.55" y2="713.9"/><line class="cls-8" x1="113.54" y1="727.42" x2="59.05" y2="716.22"/><line class="cls-8" x1="121.58" y1="733.14" x2="122.58" y2="728.5"/><polyline class="cls-8" points="53.41 699.06 50.43 713.65 49.43 718.3 50.43 713.65"/><line class="cls-8" x1="50.76" y1="727.34" x2="50.92" y2="726.59"/><polyline class="cls-8" points="52.5 718.88 51.75 718.71 52.5 718.88"/><polyline class="cls-8" points="51.75 718.71 49.43 718.3 51.75 718.71"/><line class="cls-8" x1="50.92" y1="726.59" x2="52.5" y2="718.88"/><line class="cls-8" x1="405.63" y1="351.56" x2="399.41" y2="351.56"/><line class="cls-8" x1="405.63" y1="281.07" x2="399.41" y2="281.07"/><line class="cls-8" x1="405.63" y1="367.24" x2="405.63" y2="351.56"/><polyline class="cls-8" points="405.63 281.07 405.63 56.9 399.41 56.9 399.41 107.82"/><line class="cls-8" x1="399.41" y1="114.12" x2="399.41" y2="262.99"/><line class="cls-8" x1="399.41" y1="269.29" x2="399.41" y2="281.07"/><polyline class="cls-8" points="399.41 351.56 399.41 367.24 405.63 367.24"/><line class="cls-8" x1="405.63" y1="281.07" x2="399.41" y2="281.07"/><line class="cls-8" x1="405.63" y1="351.56" x2="399.41" y2="351.56"/><polyline class="cls-8" points="241.09 373.46 241.09 690.1 247.31 690.1 247.31 373.46"/><line class="cls-8" x1="227.74" y1="56.9" x2="227.74" y2="110.97"/><polyline class="cls-8" points="234.04 110.97 234.04 56.9 227.74 56.9"/><line class="cls-8" x1="336.72" y1="262.99" x2="336.72" y2="269.29"/><line class="cls-8" x1="281.81" y1="262.99" x2="281.81" y2="269.29"/><line class="cls-8" x1="159.57" y1="269.29" x2="159.57" y2="262.99"/><line class="cls-8" x1="214.47" y1="269.29" x2="214.47" y2="262.99"/><line class="cls-8" x1="133.69" y1="269.29" x2="159.57" y2="269.29"/><line class="cls-8" x1="214.47" y1="269.29" x2="281.81" y2="269.29"/><line class="cls-8" x1="336.72" y1="269.29" x2="399.41" y2="269.29"/><line class="cls-8" x1="399.41" y1="262.99" x2="336.72" y2="262.99"/><line class="cls-8" x1="281.81" y1="262.99" x2="234.04" y2="262.99"/><line class="cls-8" x1="227.74" y1="262.99" x2="214.47" y2="262.99"/><line class="cls-8" x1="159.57" y1="262.99" x2="140" y2="262.99"/><line class="cls-8" x1="281.81" y1="262.99" x2="281.81" y2="269.29"/><line class="cls-8" x1="336.72" y1="262.99" x2="336.72" y2="269.29"/><line class="cls-8" x1="214.47" y1="269.29" x2="214.47" y2="262.99"/><line class="cls-8" x1="159.57" y1="269.29" x2="159.57" y2="262.99"/><line class="cls-8" x1="140" y1="137.59" x2="227.74" y2="137.59"/><line class="cls-8" x1="227.74" y1="131.37" x2="140" y2="131.37"/><line class="cls-8" x1="140" y1="121.92" x2="133.69" y2="121.92"/><polyline class="cls-8" points="140 67.1 133.69 67.1 133.69 16.18"/><polyline class="cls-8" points="133.69 269.29 133.69 262.99 133.69 121.92"/><line class="cls-8" x1="140" y1="262.99" x2="140" y2="137.59"/><line class="cls-8" x1="140" y1="131.37" x2="140" y2="121.92"/><polyline class="cls-8" points="140 67.1 140 16.18 133.69 16.18"/><line class="cls-8" x1="140" y1="67.1" x2="133.69" y2="67.1"/><line class="cls-8" x1="140" y1="121.92" x2="133.69" y2="121.92"/><line class="cls-8" x1="227.74" y1="107.82" x2="227.74" y2="131.37"/><line class="cls-8" x1="227.74" y1="137.59" x2="227.74" y2="262.99"/><line class="cls-8" x1="234.04" y1="262.99" x2="234.04" y2="114.12"/><polyline class="cls-8" points="321.37 107.82 321.37 56.9 315.15 56.9 315.15 107.82"/><polyline class="cls-8" points="267.71 107.82 267.71 56.9 261.5 56.9 261.5 107.82"/><polyline class="cls-8" points="311.25 114.12 311.25 110.97 311.25 107.82"/><polyline class="cls-8" points="234.04 114.12 279.91 114.12 279.91 110.97 279.91 107.82"/><line class="cls-8" x1="311.26" y1="114.12" x2="399.41" y2="114.12"/><line class="cls-8" x1="399.41" y1="107.82" x2="321.37" y2="107.82"/><line class="cls-8" x1="315.15" y1="107.82" x2="311.26" y2="107.82"/><line class="cls-8" x1="279.91" y1="107.82" x2="267.71" y2="107.82"/><line class="cls-8" x1="261.49" y1="107.82" x2="234.04" y2="107.82"/><line class="cls-7" x1="279.91" y1="114.12" x2="311.26" y2="114.12"/><line class="cls-7" x1="279.91" y1="107.82" x2="311.26" y2="107.82"/><path class="cls-7" d="M280,114.16a31.3,31.3,0,0,0,1.89,10.71"/><line class="cls-8" x1="311.26" y1="114.12" x2="281.73" y2="124.82"/><polyline class="cls-8" points="279.91 107.82 279.91 110.97 279.91 114.12 279.91 110.97"/><polyline class="cls-8" points="311.25 107.82 311.25 110.97 311.25 114.12 311.25 110.97"/><line class="cls-8" x1="266.14" y1="373.46" x2="266.14" y2="367.24"/><line class="cls-8" x1="336.72" y1="373.46" x2="336.72" y2="367.24"/><line class="cls-8" x1="230.15" y1="373.46" x2="230.15" y2="367.24"/><line class="cls-8" x1="159.57" y1="373.46" x2="159.57" y2="367.24"/><line class="cls-8" x1="468.33" y1="367.24" x2="336.72" y2="367.24"/><line class="cls-8" x1="266.14" y1="367.24" x2="230.15" y2="367.24"/><polyline class="cls-8" points="159.57 367.24 16.18 367.24 16.18 373.46 159.57 373.46"/><line class="cls-8" x1="230.15" y1="373.46" x2="241.09" y2="373.46"/><line class="cls-8" x1="247.31" y1="373.46" x2="266.14" y2="373.46"/><polyline class="cls-8" points="336.72 373.46 468.33 373.46 468.33 367.24"/><line class="cls-8" x1="336.72" y1="373.46" x2="336.72" y2="367.24"/><line class="cls-8" x1="266.14" y1="373.46" x2="266.14" y2="367.24"/><line class="cls-8" x1="159.57" y1="373.46" x2="159.57" y2="367.24"/><line class="cls-8" x1="230.15" y1="373.46" x2="230.15" y2="367.24"/><line class="cls-8" x1="886.57" y1="75.89" x2="905.73" y2="42.05"/><line class="cls-8" x1="808.2" y1="214.3" x2="817.9" y2="197.22"/><line class="cls-8" x1="817.9" y1="197.22" x2="813.75" y2="194.9"/><line class="cls-8" x1="886.57" y1="75.89" x2="882.51" y2="73.57"/><polyline class="cls-8" points="813.75 194.9 810.35 192.99 809.69 192.58"/><polyline class="cls-8" points="882.51 73.56 879.11 71.66 878.44 71.24 894.95 42.05"/><line class="cls-8" x1="809.69" y1="192.58" x2="799.99" y2="209.66"/><line class="cls-8" x1="808.2" y1="214.3" x2="799.99" y2="209.66"/><polyline class="cls-8" points="822.13 196.06 887.73 80.12 891.22 82.11 825.53 197.97 822.13 196.06"/><line class="cls-8" x1="878.44" y1="71.24" x2="809.69" y2="192.58"/><polyline class="cls-8" points="879.11 71.66 876.95 75.39 879.69 76.88 878.69 78.62 879.44 79.04 882.51 73.56"/><polyline class="cls-8" points="859.04 114.95 860.61 112.21 859.95 111.8 858.95 113.54 856.22 111.96 855.64 112.96"/><line class="cls-8" x1="860.61" y1="112.21" x2="879.44" y2="79.04"/><polyline class="cls-8" points="875.62 74.56 873.3 78.71 857.21 107.07"/><polyline class="cls-8" points="873.3 78.71 877.37 81.03 879.69 76.88 875.62 74.56"/><polyline class="cls-8" points="858.95 113.54 861.28 109.39 857.21 107.07 854.89 111.22 858.95 113.54"/><line class="cls-8" x1="861.28" y1="109.39" x2="877.37" y2="81.03"/><line class="cls-8" x1="873.3" y1="78.71" x2="857.21" y2="107.07"/><line class="cls-8" x1="875.29" y1="79.87" x2="859.2" y2="108.23"/><polyline class="cls-8" points="855.64 112.96 855.06 114.04 857.79 115.53 856.88 117.27 857.54 117.69 859.04 114.95"/><polyline class="cls-8" points="837.23 153.6 838.72 150.86 838.05 150.44 837.06 152.19 834.32 150.61 833.83 151.61"/><line class="cls-8" x1="838.72" y1="150.86" x2="857.54" y2="117.69"/><polyline class="cls-8" points="853.73 113.21 851.41 117.36 835.32 145.72"/><polyline class="cls-8" points="851.41 117.36 855.47 119.68 857.79 115.53 853.73 113.21"/><polyline class="cls-8" points="837.06 152.19 839.38 148.04 835.32 145.72 833 149.87 837.06 152.19"/><line class="cls-8" x1="839.38" y1="148.04" x2="855.47" y2="119.68"/><line class="cls-8" x1="851.41" y1="117.35" x2="835.32" y2="145.72"/><line class="cls-8" x1="853.48" y1="118.52" x2="837.39" y2="146.88"/><polyline class="cls-8" points="833.83 151.61 833.24 152.69 835.9 154.18 834.99 155.92 835.65 156.25 837.23 153.6"/><polyline class="cls-8" points="813.75 194.9 816.82 189.51 816.16 189.09 815.25 190.84 812.51 189.26 810.35 192.99"/><line class="cls-8" x1="816.82" y1="189.51" x2="835.65" y2="156.25"/><polyline class="cls-8" points="831.84 151.85 829.51 156 813.42 184.37"/><polyline class="cls-8" points="829.51 156 833.58 158.32 835.9 154.18 831.84 151.85"/><polyline class="cls-8" points="815.25 190.84 817.57 186.69 813.42 184.37 811.1 188.51 815.25 190.84"/><line class="cls-8" x1="817.57" y1="186.69" x2="833.58" y2="158.32"/><line class="cls-8" x1="829.51" y1="156" x2="813.42" y2="184.37"/><line class="cls-8" x1="831.59" y1="157.16" x2="815.5" y2="185.53"/><polyline class="cls-8" points="878.44 71.24 879.11 71.66 882.51 73.56 879.11 71.66"/><polyline class="cls-8" points="809.69 192.58 810.35 192.99 813.75 194.9 810.35 192.99"/><line class="cls-8" x1="887.73" y1="80.12" x2="887.07" y2="79.79"/><polyline class="cls-8" points="880.93 76.3 881.35 75.56 880.93 76.3"/><polyline class="cls-8" points="881.35 75.56 882.51 73.56 881.35 75.56"/><line class="cls-8" x1="822.13" y1="196.06" x2="821.47" y2="195.64"/><polyline class="cls-8" points="815.33 192.24 814.92 192.91 815.33 192.24"/><polyline class="cls-8" points="814.92 192.91 813.75 194.9 814.92 192.91"/><polyline class="cls-8" points="887.07 79.78 885.08 78.62 880.93 76.3"/><polyline class="cls-8" points="821.47 195.65 819.39 194.48 815.33 192.24"/><line class="cls-8" x1="613.22" y1="415.59" x2="624.58" y2="395.43"/><line class="cls-8" x1="534.85" y1="554" x2="544.47" y2="537"/><line class="cls-8" x1="544.47" y1="537" x2="540.4" y2="534.68"/><line class="cls-8" x1="613.22" y1="415.59" x2="609.07" y2="413.26"/><polyline class="cls-8" points="540.4 534.68 537 532.77 536.26 532.36"/><polyline class="cls-8" points="609.07 413.26 605.67 411.36 605.01 410.94 613.8 395.43"/><line class="cls-8" x1="536.26" y1="532.36" x2="526.64" y2="549.44"/><line class="cls-8" x1="534.85" y1="554" x2="526.64" y2="549.44"/><polyline class="cls-8" points="548.78 535.84 614.38 419.9 617.78 421.81 552.18 537.75 548.78 535.84"/><line class="cls-8" x1="605.01" y1="410.94" x2="536.26" y2="532.36"/><polyline class="cls-8" points="605.67 411.36 603.6 415.09 606.34 416.67 605.34 418.32 606 418.74 609.07 413.26"/><polyline class="cls-8" points="585.68 454.65 587.26 451.91 586.51 451.58 585.6 453.24 582.87 451.66 582.28 452.74"/><line class="cls-8" x1="587.26" y1="451.91" x2="606" y2="418.74"/><polyline class="cls-8" points="602.19 414.34 599.87 418.41 583.78 446.85"/><polyline class="cls-8" points="599.87 418.41 604.01 420.73 606.34 416.67 602.19 414.34"/><polyline class="cls-8" points="585.6 453.24 587.92 449.18 583.78 446.85 581.46 450.92 585.6 453.24"/><line class="cls-8" x1="587.92" y1="449.18" x2="604.01" y2="420.73"/><line class="cls-8" x1="599.87" y1="418.41" x2="583.78" y2="446.85"/><line class="cls-8" x1="601.94" y1="419.57" x2="585.85" y2="448.01"/><polyline class="cls-8" points="582.28 452.74 581.7 453.74 584.44 455.31 583.45 456.97 584.11 457.39 585.68 454.65"/><polyline class="cls-8" points="563.79 493.3 565.37 490.56 564.7 490.23 563.71 491.89 560.97 490.31 560.39 491.39"/><line class="cls-8" x1="565.37" y1="490.56" x2="584.11" y2="457.39"/><polyline class="cls-8" points="580.29 452.99 578.05 457.05 561.97 485.5"/><polyline class="cls-8" points="578.05 457.05 582.12 459.38 584.44 455.31 580.29 452.99"/><polyline class="cls-8" points="563.71 491.89 566.03 487.82 561.97 485.5 559.64 489.56 563.71 491.89"/><line class="cls-8" x1="566.03" y1="487.82" x2="582.12" y2="459.38"/><line class="cls-8" x1="578.06" y1="457.05" x2="561.97" y2="485.5"/><line class="cls-8" x1="580.05" y1="458.21" x2="563.96" y2="486.66"/><polyline class="cls-8" points="560.39 491.39 559.81 492.38 562.55 493.96 561.55 495.62 562.3 496.03 563.79 493.3"/><polyline class="cls-8" points="540.4 534.68 543.47 529.21 542.81 528.79 541.81 530.53 539.08 528.96 537 532.77"/><line class="cls-8" x1="543.47" y1="529.21" x2="562.3" y2="496.03"/><polyline class="cls-8" points="558.48 491.64 556.16 495.7 540.07 524.15"/><polyline class="cls-8" points="556.16 495.7 560.22 498.02 562.55 493.96 558.48 491.64"/><polyline class="cls-8" points="541.81 530.53 544.13 526.47 540.07 524.15 537.75 528.21 541.81 530.53"/><line class="cls-8" x1="544.14" y1="526.47" x2="560.22" y2="498.02"/><line class="cls-8" x1="556.16" y1="495.7" x2="540.07" y2="524.15"/><line class="cls-8" x1="558.15" y1="496.86" x2="542.06" y2="525.31"/><polyline class="cls-8" points="605.01 410.94 605.67 411.36 609.07 413.26 605.67 411.36"/><polyline class="cls-8" points="536.26 532.36 537 532.77 540.4 534.68 537 532.77"/><line class="cls-8" x1="614.38" y1="419.9" x2="613.72" y2="419.48"/><polyline class="cls-8" points="607.58 416 607.91 415.34 607.58 416"/><polyline class="cls-8" points="607.91 415.34 609.07 413.26 607.91 415.34"/><line class="cls-8" x1="548.78" y1="535.84" x2="548.03" y2="535.43"/><polyline class="cls-8" points="541.9 531.94 541.56 532.61 541.9 531.94"/><polyline class="cls-8" points="541.56 532.61 540.4 534.68 541.56 532.61"/><polyline class="cls-8" points="613.72 419.49 611.64 418.32 607.58 416"/><polyline class="cls-8" points="548.03 535.43 546.04 534.27 541.9 531.94"/><line class="cls-8" x1="400.91" y1="717.55" x2="431.43" y2="717.55"/><line class="cls-8" x1="238.19" y1="717.55" x2="281.07" y2="717.55"/><polyline class="cls-8" points="444.95 717.55 431.43 717.55 444.95 717.55"/><polyline class="cls-8" points="435.91 709.67 438.14 705.77 435.91 709.67"/><line class="cls-8" x1="289.69" y1="717.55" x2="289.69" y2="709.67"/><line class="cls-8" x1="392.28" y1="717.55" x2="392.28" y2="709.67"/><line class="cls-8" x1="289.69" y1="718.3" x2="289.69" y2="717.55"/><line class="cls-8" x1="392.28" y1="718.3" x2="392.28" y2="717.55"/><line class="cls-8" x1="286.54" y1="709.67" x2="286.54" y2="709.67"/><polyline class="cls-8" points="281.07 717.55 288.86 717.55 288.86 709.67 288.86 717.55"/><line class="cls-8" x1="288.86" y1="718.3" x2="289.69" y2="718.3"/><line class="cls-8" x1="395.43" y1="709.67" x2="395.43" y2="709.67"/><polyline class="cls-8" points="400.91 717.55 393.11 717.55 393.11 709.67 393.11 717.55"/><line class="cls-8" x1="393.11" y1="718.3" x2="392.28" y2="718.3"/><polyline class="cls-8" points="286.54 709.67 286.54 704.95 286.54 690.1"/><polyline class="cls-8" points="395.43 709.67 395.43 704.95 395.43 690.1 429.02 690.1"/><line class="cls-8" x1="286.54" y1="690.1" x2="235.37" y2="690.1"/><line class="cls-8" x1="238.27" y1="718.3" x2="288.86" y2="718.3"/><line class="cls-8" x1="393.11" y1="718.3" x2="445.44" y2="718.3"/><polyline class="cls-8" points="289.69 718.3 392.28 718.3 392.28 722.2 289.69 722.2 289.69 718.3"/><line class="cls-8" x1="395.43" y1="690.1" x2="286.54" y2="690.1"/><polyline class="cls-8" points="395.43 704.95 391.12 704.95 391.12 708.1 389.21 708.1 389.21 709.67 395.43 709.67"/><polyline class="cls-8" points="325.69 709.67 328.84 709.67 328.84 708.1 326.93 708.1 326.93 704.95 325.69 704.95"/><line class="cls-8" x1="328.84" y1="709.67" x2="389.21" y2="709.67"/><polyline class="cls-8" points="391.12 703.37 386.48 703.37 331.57 703.37"/><polyline class="cls-8" points="386.48 703.37 386.48 708.1 391.12 708.1 391.12 703.37"/><polyline class="cls-8" points="326.93 708.1 331.57 708.1 331.57 703.37 326.93 703.37 326.93 708.1"/><line class="cls-8" x1="331.57" y1="708.1" x2="386.48" y2="708.1"/><line class="cls-8" x1="386.48" y1="703.37" x2="331.57" y2="703.37"/><line class="cls-8" x1="386.48" y1="705.77" x2="331.57" y2="705.77"/><polyline class="cls-8" points="325.69 704.95 324.52 704.95 324.52 708.1 322.62 708.1 322.62 709.67 325.69 709.67"/><polyline class="cls-8" points="286.54 709.67 292.76 709.67 292.76 708.1 290.85 708.1 290.85 704.95 286.54 704.95"/><line class="cls-8" x1="292.76" y1="709.67" x2="322.62" y2="709.67"/><polyline class="cls-8" points="324.52 703.37 319.8 703.37 295.58 703.37"/><polyline class="cls-8" points="319.8 703.37 319.8 708.1 324.52 708.1 324.52 703.37"/><polyline class="cls-8" points="290.85 708.1 295.58 708.1 295.58 703.37 290.85 703.37 290.85 708.1"/><line class="cls-8" x1="295.58" y1="708.1" x2="319.8" y2="708.1"/><line class="cls-8" x1="319.8" y1="703.37" x2="295.58" y2="703.37"/><line class="cls-8" x1="319.8" y1="705.77" x2="295.58" y2="705.77"/><polyline class="cls-8" points="395.43 690.1 395.43 704.95 395.43 709.67 395.43 704.95"/><polyline class="cls-8" points="286.54 690.1 286.54 704.95 286.54 709.67 286.54 704.95"/><line class="cls-8" x1="392.28" y1="718.3" x2="392.28" y2="717.55"/><polyline class="cls-8" points="392.28 709.67 393.11 709.67 392.28 709.67"/><polyline class="cls-8" points="393.11 709.67 395.43 709.67 393.11 709.67"/><line class="cls-8" x1="289.69" y1="718.3" x2="289.69" y2="717.55"/><polyline class="cls-8" points="289.69 709.67 288.86 709.67 289.69 709.67"/><polyline class="cls-8" points="288.86 709.67 286.54 709.67 288.86 709.67"/><line class="cls-8" x1="392.28" y1="717.55" x2="392.28" y2="709.67"/><line class="cls-8" x1="289.69" y1="717.55" x2="289.69" y2="709.67"/><polyline class="cls-8" points="895.61 41.22 905.73 41.22 895.61 41.22"/><line class="cls-8" x1="905.73" y1="41.22" x2="905.73" y2="42.05"/><line class="cls-8" x1="905.73" y1="13.77" x2="905.73" y2="13.77"/><line class="cls-8" x1="905.73" y1="29.44" x2="905.73" y2="13.77"/><polyline class="cls-8" points="614.46 394.69 625.08 394.69 614.46 394.69"/><line class="cls-8" x1="625.08" y1="394.69" x2="624.58" y2="395.43"/><polyline class="cls-8" points="627.73 394.69 699.8 394.69 708.76 394.69"/><polyline class="cls-8" points="614.46 382.91 683.96 382.91 692.84 367.24 683.96 382.91 701.96 382.91 683.96 382.91"/><line class="cls-8" x1="692.84" y1="367.24" x2="614.46" y2="367.24"/><line class="cls-8" x1="614.46" y1="382.91" x2="614.46" y2="367.24"/><line class="cls-8" x1="628.23" y1="395.43" x2="709.26" y2="395.43"/><polyline class="cls-8" points="444.95 717.55 449.42 709.67 486.99 643.33"/><polyline class="cls-8" points="476.71 637.6 447.02 690.1 429.02 690.1 447.02 690.1 438.14 705.77 447.02 690.1"/><line class="cls-8" x1="463.11" y1="629.81" x2="429.02" y2="690.1"/><line class="cls-8" x1="445.86" y1="717.55" x2="487.66" y2="643.74"/><line class="cls-8" x1="476.71" y1="637.6" x2="463.11" y2="629.81"/><polyline class="cls-8" points="767.39 291.19 715.48 382.91 708.76 394.69 715.48 382.91"/><polyline class="cls-8" points="706.44 382.91 701.96 382.91 706.44 382.91"/><line class="cls-8" x1="743.51" y1="277.67" x2="692.84" y2="367.24"/><line class="cls-8" x1="709.67" y1="394.69" x2="768.06" y2="291.52"/><line class="cls-8" x1="760.59" y1="287.29" x2="743.51" y2="277.67"/><line class="cls-8" x1="0.5" y1="0.5" x2="0.5" y2="16.17"/><polyline class="cls-8" points="0.5 31.85 0.5 690.1 16.18 690.1 16.18 16.18"/><polyline class="cls-8" points="405.63 29.44 749.65 29.44 749.65 13.77 447.19 13.77"/><line class="cls-8" x1="431.51" y1="13.77" x2="389.96" y2="13.77"/><polyline class="cls-8" points="389.96 13.77 389.96 29.44 389.96 41.22"/><line class="cls-8" x1="405.63" y1="56.9" x2="405.63" y2="29.44"/><line class="cls-8" x1="389.96" y1="41.22" x2="243.41" y2="41.22"/><polyline class="cls-8" points="405.63 56.9 389.96 56.9 227.74 56.9"/><line class="cls-8" x1="243.41" y1="41.22" x2="243.41" y2="0.5"/><polyline class="cls-8" points="227.74 56.9 227.74 41.22 227.74 16.18"/><polyline class="cls-8" points="32.6 16.18 32.6 6.72 32.6 0.5"/><polyline class="cls-8" points="110.97 16.18 110.97 6.72 110.97 0.5"/><line class="cls-8" x1="16.17" y1="16.17" x2="32.6" y2="16.17"/><line class="cls-8" x1="110.97" y1="16.17" x2="227.74" y2="16.17"/><polyline class="cls-8" points="243.41 0.5 227.74 0.5 110.97 0.5"/><polyline class="cls-8" points="0.5 0.5 16.18 0.5 32.6 0.5"/><line class="cls-8" x1="110.97" y1="0.5" x2="110.8" y2="0.5"/><line class="cls-8" x1="110.72" y1="0.5" x2="110.72" y2="0.5"/><line class="cls-8" x1="110.64" y1="0.5" x2="110.64" y2="0.5"/><polyline class="cls-8" points="110.55 0.5 110.31 0.5 110.22 0.5 110.14 0.5 109.89 0.5"/><line class="cls-8" x1="109.81" y1="0.5" x2="109.81" y2="0.5"/><line class="cls-8" x1="109.72" y1="0.5" x2="109.72" y2="0.5"/><line class="cls-8" x1="109.64" y1="0.5" x2="109.48" y2="0.5"/><line class="cls-8" x1="109.39" y1="0.5" x2="109.39" y2="0.5"/><line class="cls-8" x1="109.31" y1="0.5" x2="109.31" y2="0.5"/><polyline class="cls-8" points="109.23 0.5 108.98 0.5 108.89 0.5 108.81 0.5 108.56 0.5"/><line class="cls-8" x1="108.48" y1="0.5" x2="108.48" y2="0.5"/><line class="cls-8" x1="108.4" y1="0.5" x2="108.4" y2="0.5"/><polyline class="cls-8" points="108.31 0.5 108.07 0.5 107.98 0.5"/><line class="cls-8" x1="107.9" y1="0.5" x2="107.65" y2="0.5"/><line class="cls-8" x1="35.66" y1="0.5" x2="35.66" y2="0.5"/><line class="cls-8" x1="35.58" y1="0.5" x2="35.58" y2="0.5"/><line class="cls-8" x1="35.5" y1="0.5" x2="35.33" y2="0.5"/><line class="cls-8" x1="35.25" y1="0.5" x2="35.25" y2="0.5"/><line class="cls-8" x1="35.17" y1="0.5" x2="35.17" y2="0.5"/><line class="cls-8" x1="35.08" y1="0.5" x2="34.83" y2="0.5"/><polyline class="cls-8" points="34.75 0.5 34.67 0.5 34.42 0.5"/><line class="cls-8" x1="34.34" y1="0.5" x2="34.34" y2="0.5"/><line class="cls-8" x1="34.25" y1="0.5" x2="34.25" y2="0.5"/><polyline class="cls-8" points="34.17 0.5 33.92 0.5 33.84 0.5 33.76 0.5 33.51 0.5"/><line class="cls-8" x1="33.43" y1="0.5" x2="33.43" y2="0.5"/><line class="cls-8" x1="33.34" y1="0.5" x2="33.34" y2="0.5"/><line class="cls-8" x1="33.26" y1="0.5" x2="33.09" y2="0.5"/><line class="cls-8" x1="33.01" y1="0.5" x2="33.01" y2="0.5"/><line class="cls-8" x1="32.93" y1="0.5" x2="32.93" y2="0.5"/><line class="cls-8" x1="32.84" y1="0.5" x2="32.6" y2="0.5"/><path class="cls-8" d="M35.79,78.87A72.11,72.11,0,0,0,107.9,6.76"/><polyline class="cls-8" points="110.97 0.5 107.9 0.5 107.9 6.72 110.97 6.72 110.97 0.5"/><polyline class="cls-8" points="32.6 6.72 35.75 6.72 35.75 0.5 32.6 0.5 32.6 6.72"/><line class="cls-8" x1="35.75" y1="6.72" x2="35.75" y2="78.87"/><polyline class="cls-8" points="110.97 0.5 110.97 6.72 110.97 0.5"/><line class="cls-8" x1="110.97" y1="16.17" x2="110.97" y2="6.72"/><polyline class="cls-8" points="32.6 0.5 32.6 6.72 32.6 0.5"/><line class="cls-8" x1="32.6" y1="16.17" x2="32.6" y2="6.72"/><polyline class="cls-8" points="486.99 643.33 532.61 562.71 536.5 555.91"/><polyline class="cls-8" points="499.1 566.2 463.11 629.81 480.11 639.51"/><line class="cls-8" x1="487.66" y1="643.74" x2="537.58" y2="555.58"/><line class="cls-8" x1="777.1" y1="41.22" x2="895.61" y2="41.22"/><line class="cls-8" x1="777.84" y1="42.05" x2="895.61" y2="42.05"/><polyline class="cls-8" points="905.73 42.05 905.73 13.77 749.65 13.77"/><polyline class="cls-8" points="767.39 291.19 806.04 222.93 809.86 216.13"/><polyline class="cls-8" points="757.19 285.38 786.14 234.21 772.45 226.5 786.14 234.21 793.85 220.61 786.14 234.21"/><line class="cls-8" x1="772.45" y1="226.5" x2="743.51" y2="277.67"/><line class="cls-8" x1="757.19" y1="285.38" x2="743.51" y2="277.67"/><line class="cls-8" x1="768.06" y1="291.52" x2="810.94" y2="215.88"/><line class="cls-8" x1="503.58" y1="394.69" x2="614.46" y2="394.69"/><line class="cls-8" x1="504.41" y1="395.43" x2="614.46" y2="395.43"/><polyline class="cls-8" points="614.46 386.81 614.46 367.24 476.21 367.24"/><line class="cls-8" x1="777.1" y1="197.55" x2="777.1" y2="172.92"/><line class="cls-8" x1="777.1" y1="42.05" x2="769.22" y2="42.05"/><line class="cls-8" x1="777.1" y1="169.77" x2="769.22" y2="169.77"/><line class="cls-8" x1="777.84" y1="42.05" x2="777.1" y2="42.05"/><line class="cls-8" x1="777.84" y1="169.77" x2="777.1" y2="169.77"/><polyline class="cls-8" points="777.1 41.22 769.22 41.22 777.1 41.22"/><line class="cls-8" x1="777.84" y1="41.22" x2="777.84" y2="42.05"/><line class="cls-8" x1="769.22" y1="172.92" x2="769.22" y2="172.92"/><polyline class="cls-8" points="777.1 172.92 777.1 170.52 769.22 170.52 777.1 170.52"/><line class="cls-8" x1="777.84" y1="170.52" x2="777.84" y2="169.77"/><polyline class="cls-8" points="769.22 33.42 764.58 33.42 749.65 33.42"/><polyline class="cls-8" points="769.22 172.92 764.58 172.92 749.65 172.92"/><line class="cls-8" x1="749.65" y1="13.77" x2="749.65" y2="33.42"/><line class="cls-8" x1="749.65" y1="172.92" x2="749.65" y2="213.56"/><line class="cls-8" x1="777.84" y1="197.14" x2="777.84" y2="170.52"/><line class="cls-8" x1="777.84" y1="169.77" x2="777.84" y2="42.05"/><line class="cls-8" x1="749.65" y1="172.92" x2="749.65" y2="33.42"/><polyline class="cls-8" points="764.58 172.92 764.58 168.61 767.73 168.61 767.73 166.62 769.22 166.62 769.22 172.92"/><polyline class="cls-8" points="769.22 103.17 769.22 105.91 767.73 105.91 767.73 103.92 764.58 103.92 764.58 103.17"/><line class="cls-8" x1="763" y1="168.61" x2="730.65" y2="112.63"/><line class="cls-8" x1="769.22" y1="105.91" x2="769.22" y2="166.62"/><polyline class="cls-8" points="763 168.61 763 163.88 763 108.65"/><polyline class="cls-8" points="763 163.88 767.73 163.88 767.73 168.61 763 168.61"/><polyline class="cls-8" points="767.73 103.92 767.73 108.65 763 108.65 763 103.92 767.73 103.92"/><line class="cls-8" x1="767.73" y1="108.65" x2="767.73" y2="163.88"/><line class="cls-8" x1="763" y1="163.88" x2="763" y2="108.65"/><line class="cls-8" x1="765.32" y1="163.88" x2="765.32" y2="108.65"/><polyline class="cls-8" points="764.58 103.17 764.58 102.34 767.73 102.34 767.73 100.44 769.22 100.44 769.22 103.17"/><polyline class="cls-8" points="769.22 33.42 769.22 39.65 767.73 39.65 767.73 37.74 764.58 37.74 764.58 33.42"/><line class="cls-8" x1="763" y1="37.74" x2="730.65" y2="93.72"/><line class="cls-8" x1="769.22" y1="39.65" x2="769.22" y2="100.44"/><polyline class="cls-8" points="763 102.34 763 97.62 763 42.38"/><polyline class="cls-8" points="763 97.62 767.73 97.62 767.73 102.34 763 102.34"/><polyline class="cls-8" points="767.73 37.74 767.73 42.38 763 42.38 763 37.74 767.73 37.74"/><line class="cls-8" x1="767.73" y1="42.38" x2="767.73" y2="97.62"/><line class="cls-8" x1="763" y1="97.62" x2="763" y2="42.38"/><line class="cls-8" x1="765.32" y1="97.62" x2="765.32" y2="42.38"/><path class="cls-8" d="M763,104a64.67,64.67,0,0,0-32.32,8.66"/><path class="cls-8" d="M730.72,93.77A64.67,64.67,0,0,0,763,102.43"/><polyline class="cls-8" points="749.65 172.92 764.58 172.92 769.22 172.92 764.58 172.92"/><polyline class="cls-8" points="749.65 33.42 764.58 33.42 769.22 33.42 764.58 33.42"/><polyline class="cls-8" points="769.22 33.42 769.22 38.9 769.22 33.42"/><line class="cls-8" x1="777.84" y1="169.77" x2="777.1" y2="169.77"/><polyline class="cls-8" points="769.22 169.77 769.22 170.52 769.22 169.77"/><polyline class="cls-8" points="769.22 170.52 769.22 172.92 769.22 170.52"/><line class="cls-8" x1="777.84" y1="42.05" x2="777.1" y2="42.05"/><polyline class="cls-8" points="769.22 42.05 769.22 41.22 769.22 42.05"/><polyline class="cls-8" points="769.22 41.22 769.22 38.9 769.22 41.22"/><line class="cls-8" x1="777.1" y1="169.77" x2="769.22" y2="169.77"/><line class="cls-8" x1="777.1" y1="42.05" x2="769.22" y2="42.05"/><polyline class="cls-8" points="777.84 198.05 777.1 197.55 777.84 198.05"/><polyline class="cls-8" points="777.84 198.05 799.66 210.32 809.86 216.13 799.66 210.32"/><polyline class="cls-8" points="795.76 217.13 793.85 220.61 795.76 217.13"/><polyline class="cls-8" points="749.65 213.56 769.22 224.67 772.45 226.5"/><line class="cls-8" x1="810.27" y1="215.47" x2="777.84" y2="197.14"/><polyline class="cls-8" points="749.65 209.41 749.65 267.05 782.16 209.41 749.65 209.41"/><polyline class="cls-8" points="503.58 537.25 529.7 552.01 536.5 555.91 529.7 552.01"/><line class="cls-8" x1="476.21" y1="553.26" x2="499.1" y2="566.2"/><line class="cls-8" x1="536.84" y1="555.17" x2="504.41" y2="536.84"/><polyline class="cls-8" points="503.58 537.25 503.58 536.34 503.58 537.25"/><line class="cls-8" x1="503.58" y1="536.34" x2="503.58" y2="526.3"/><line class="cls-8" x1="503.58" y1="395.43" x2="495.78" y2="395.43"/><line class="cls-8" x1="503.58" y1="523.24" x2="495.78" y2="523.24"/><line class="cls-8" x1="504.41" y1="395.43" x2="503.58" y2="395.43"/><line class="cls-8" x1="504.41" y1="523.24" x2="503.58" y2="523.24"/><polyline class="cls-8" points="503.58 392.37 503.58 394.69 495.78 394.69 503.58 394.69"/><line class="cls-8" x1="504.41" y1="394.69" x2="504.41" y2="395.43"/><line class="cls-8" x1="495.78" y1="526.3" x2="495.78" y2="526.3"/><polyline class="cls-8" points="503.58 526.3 503.58 523.98 495.78 523.98 503.58 523.98"/><line class="cls-8" x1="504.41" y1="523.98" x2="504.41" y2="523.24"/><polyline class="cls-8" points="495.78 386.81 491.06 386.81 476.21 386.81"/><polyline class="cls-8" points="495.78 526.3 491.06 526.3 476.21 526.3"/><line class="cls-8" x1="476.21" y1="367.24" x2="476.21" y2="386.81"/><polyline class="cls-8" points="476.21 553.26 476.21 530.7 476.21 526.3"/><line class="cls-8" x1="504.41" y1="536.84" x2="504.41" y2="523.98"/><line class="cls-8" x1="504.41" y1="523.24" x2="504.41" y2="395.43"/><line class="cls-8" x1="476.21" y1="526.3" x2="476.21" y2="386.81"/><polyline class="cls-8" points="491.06 526.3 491.06 521.99 494.21 521.99 494.21 520.08 495.78 520.08 495.78 526.3"/><polyline class="cls-8" points="495.78 456.56 495.78 459.29 494.21 459.29 494.21 457.39 491.06 457.39 491.06 456.56"/><line class="cls-8" x1="489.48" y1="521.99" x2="457.14" y2="466.01"/><line class="cls-8" x1="495.78" y1="459.29" x2="495.78" y2="520.08"/><polyline class="cls-8" points="489.48 521.99 489.48 517.35 489.48 462.11"/><polyline class="cls-8" points="489.48 517.35 494.21 517.35 494.21 521.99 489.48 521.99"/><polyline class="cls-8" points="494.21 457.39 494.21 462.11 489.48 462.11 489.48 457.39 494.21 457.39"/><line class="cls-8" x1="494.21" y1="462.11" x2="494.21" y2="517.35"/><line class="cls-8" x1="489.48" y1="517.35" x2="489.48" y2="462.11"/><line class="cls-8" x1="491.89" y1="517.35" x2="491.89" y2="462.11"/><polyline class="cls-8" points="491.06 456.56 491.06 455.81 494.21 455.81 494.21 453.82 495.78 453.82 495.78 456.56"/><polyline class="cls-8" points="495.78 386.81 495.78 393.11 494.21 393.11 494.21 391.12 491.06 391.12 491.06 386.81"/><line class="cls-8" x1="489.48" y1="391.12" x2="457.14" y2="447.1"/><line class="cls-8" x1="495.78" y1="393.11" x2="495.78" y2="453.82"/><polyline class="cls-8" points="489.48 455.81 489.48 451.08 489.48 395.85"/><polyline class="cls-8" points="489.48 451.08 494.21 451.08 494.21 455.81 489.48 455.81"/><polyline class="cls-8" points="494.21 391.12 494.21 395.85 489.48 395.85 489.48 391.12 494.21 391.12"/><line class="cls-8" x1="494.21" y1="395.85" x2="494.21" y2="451.08"/><line class="cls-8" x1="489.48" y1="451.08" x2="489.48" y2="395.85"/><line class="cls-8" x1="491.89" y1="451.08" x2="491.89" y2="395.85"/><path class="cls-8" d="M489.52,457.39a64.6,64.6,0,0,0-32.32,8.66"/><path class="cls-8" d="M457.2,447.15a64.7,64.7,0,0,0,32.32,8.66"/><polyline class="cls-8" points="476.21 526.3 491.06 526.3 495.78 526.3 491.06 526.3"/><polyline class="cls-8" points="476.21 386.81 491.06 386.81 495.78 386.81 491.06 386.81"/><polyline class="cls-8" points="495.78 386.81 495.78 392.37 495.78 386.81"/><line class="cls-8" x1="504.41" y1="523.24" x2="503.58" y2="523.24"/><polyline class="cls-8" points="495.78 523.24 495.78 523.98 495.78 523.24"/><polyline class="cls-8" points="495.78 523.98 495.78 526.3 495.78 523.98"/><line class="cls-8" x1="504.41" y1="395.43" x2="503.58" y2="395.43"/><polyline class="cls-8" points="495.78 395.43 495.78 394.69 495.78 395.43"/><polyline class="cls-8" points="495.78 394.69 495.78 392.37 495.78 394.69"/><line class="cls-8" x1="503.58" y1="523.24" x2="495.78" y2="523.24"/><line class="cls-8" x1="503.58" y1="395.43" x2="495.78" y2="395.43"/><polyline class="cls-8" points="476.21 549.19 476.21 606.83 508.89 549.19 476.21 549.19"/><polyline class="cls-8" points="476.21 367.24 468.33 367.24 468.33 382.91 476.21 382.91 476.21 367.24"/><polyline class="cls-8" points="16.18 711.41 16.18 705.77 0.5 705.77 0.5 716.97"/><polyline class="cls-8" points="247.31 709.67 247.31 705.77 231.64 705.77 231.64 710.83"/><line class="cls-8" x1="387.64" y1="120.92" x2="347.66" y2="120.92"/><line class="cls-8" x1="342.94" y1="125.32" x2="342.94" y2="222.35"/><line class="cls-8" x1="392.28" y1="125.32" x2="392.28" y2="222.35"/><line class="cls-8" x1="338.29" y1="249.72" x2="338.29" y2="116.44"/><polyline class="cls-8" points="338.29 249.72 397.01 249.72 397.01 116.44 338.29 116.44"/><line class="cls-8" x1="384.15" y1="206.76" x2="384.15" y2="130.87"/><line class="cls-8" x1="381.83" y1="128.63" x2="353.47" y2="128.63"/><line class="cls-8" x1="351.15" y1="206.76" x2="351.15" y2="130.87"/><line class="cls-8" x1="369.06" y1="144.23" x2="371.96" y2="144.23"/><line class="cls-8" x1="367.65" y1="142.9" x2="367.65" y2="140.08"/><line class="cls-8" x1="366.16" y1="144.23" x2="363.26" y2="144.23"/><line class="cls-8" x1="367.65" y1="145.55" x2="367.65" y2="148.29"/><path class="cls-8" d="M343,222.39c0,12.89,11.05,23.35,24.67,23.35s24.68-10.46,24.68-23.35"/><path class="cls-8" d="M347.7,120.92a4.57,4.57,0,0,0-4.68,4.44"/><path class="cls-8" d="M392.37,125.36a4.57,4.57,0,0,0-4.69-4.44"/><path class="cls-8" d="M370.14,144.27a2.45,2.45,0,1,0-2.45,2.28,2.37,2.37,0,0,0,2.45-2.28"/><path class="cls-8" d="M351.15,206.8c0,8.59,7.4,15.55,16.54,15.55s16.55-7,16.55-15.55"/><path class="cls-8" d="M384.24,130.91a2.28,2.28,0,0,0-2.37-2.19"/><path class="cls-8" d="M353.51,128.72a2.28,2.28,0,0,0-2.36,2.19"/><path class="cls-8" d="M371,144.27a3.28,3.28,0,1,0-3.28,3.11,3.2,3.2,0,0,0,3.28-3.11"/><polyline class="cls-8" points="237.94 134.36 237.94 116.44 280.24 116.44 280.24 134.36"/><line class="cls-8" x1="265.81" y1="116.44" x2="252.45" y2="116.44"/><line class="cls-8" x1="262.66" y1="130.79" x2="260.42" y2="130.79"/><line class="cls-8" x1="259.09" y1="127.22" x2="259.09" y2="129.55"/><line class="cls-8" x1="257.76" y1="130.79" x2="255.52" y2="130.79"/><line class="cls-8" x1="259.09" y1="132.12" x2="259.09" y2="134.36"/><path class="cls-8" d="M247.9,126.59a18.85,18.85,0,0,0-7.31,8.92"/><path class="cls-8" d="M259.15,124a18.89,18.89,0,0,0-11.25,2.64"/><path class="cls-8" d="M277.67,135.51a18.85,18.85,0,0,0-7.31-8.92"/><path class="cls-8" d="M270.36,126.61A18.89,18.89,0,0,0,259.11,124"/><path class="cls-8" d="M244.82,145a34.79,34.79,0,0,0,12.84,3.5"/><path class="cls-8" d="M276.3,143.27a10.72,10.72,0,0,0,4-8.83"/><path class="cls-8" d="M257.65,148.65a20.89,20.89,0,0,0,3,0"/><path class="cls-8" d="M271,127.31a77.06,77.06,0,0,0-23.68,0"/><path class="cls-8" d="M279.16,137.18a26.63,26.63,0,0,0-6-17.28"/><path class="cls-8" d="M271.25,118.66a53,53,0,0,0-12.11-1.3"/><path class="cls-8" d="M273.22,119.89a3.48,3.48,0,0,0-2-1.2"/><path class="cls-8" d="M271.08,119.87a91.69,91.69,0,0,0-11.94-.86"/><path class="cls-8" d="M279.24,137.2a23.92,23.92,0,0,0-6-16.14"/><path class="cls-8" d="M273.22,121a3.46,3.46,0,0,0-2.16-1.16"/><path class="cls-8" d="M245,121a23.93,23.93,0,0,0-6,16.13"/><path class="cls-8" d="M245.12,119.87a26.59,26.59,0,0,0-6,17.27"/><path class="cls-8" d="M259.16,119a89.81,89.81,0,0,0-11.93.85"/><path class="cls-8" d="M259.19,117.36a52.48,52.48,0,0,0-12.11,1.29"/><path class="cls-8" d="M247.21,119.88a3.46,3.46,0,0,0-2.16,1.15"/><path class="cls-8" d="M247.08,118.68a3.52,3.52,0,0,0-2,1.21"/><path class="cls-8" d="M238,134.44a10.77,10.77,0,0,0,4,8.83"/><path class="cls-8" d="M242,143.3a16.36,16.36,0,0,0,2.82,1.82"/><path class="cls-8" d="M273.48,145.12a16.67,16.67,0,0,0,2.81-1.82"/><path class="cls-8" d="M260.61,148.53a34.79,34.79,0,0,0,12.83-3.5"/><path class="cls-8" d="M253.3,145.61a25,25,0,0,0,11.66,0"/><path class="cls-8" d="M240.61,135.54a6.35,6.35,0,0,0,2.18,5.24"/><path class="cls-8" d="M242.79,140.7a23,23,0,0,0,10.54,4.84"/><path class="cls-8" d="M275.55,140.78a6.35,6.35,0,0,0,2.18-5.24"/><path class="cls-8" d="M264.94,145.54a23,23,0,0,0,10.54-4.84"/><path class="cls-8" d="M259.13,133.61a2.78,2.78,0,1,0-2.78-2.78,2.77,2.77,0,0,0,2.78,2.78"/><path class="cls-8" d="M259.13,132.78a2,2,0,1,0-1.95-1.95,1.95,1.95,0,0,0,1.95,1.95"/><polyline class="cls-8" points="452.66 141.57 409.53 141.57 409.53 98.45 452.66 98.45 452.66 141.57"/><polyline class="cls-8" points="448.76 102.34 448.76 137.59 417.41 137.59 417.41 102.34 448.76 102.34"/><line class="cls-8" x1="210.16" y1="152.02" x2="210.16" y2="179.72"/><polyline class="cls-8" points="211.32 150.36 211.32 140 181.55 140"/><line class="cls-8" x1="196.39" y1="156.91" x2="185.36" y2="156.91"/><polyline class="cls-8" points="210.16 179.64 207.42 156.91 196.39 156.91"/><line class="cls-8" x1="182.71" y1="179.64" x2="185.36" y2="156.91"/><line class="cls-8" x1="209.41" y1="179.64" x2="206.76" y2="156.91"/><line class="cls-8" x1="183.37" y1="179.64" x2="186.11" y2="156.91"/><line class="cls-8" x1="182.71" y1="152.02" x2="182.71" y2="179.72"/><line class="cls-8" x1="181.55" y1="140" x2="181.55" y2="150.36"/><polyline class="cls-8" points="210.16 179.64 209.74 182.71 208.58 185.61 206.68 188.18 204.19 190.17 201.28 191.66 198.05 192.41 194.73 192.41 191.58 191.66 188.59 190.17 186.11 188.18 184.28 185.61 183.12 182.71 182.71 179.64"/><polyline class="cls-8" points="209.41 179.64 209.08 182.54 207.92 185.28 206.18 187.68 203.77 189.59 201.03 191 197.97 191.66 194.81 191.66 191.83 191 189.01 189.59 186.69 187.68 184.86 185.28 183.78 182.54 183.37 179.64"/><path class="cls-8" d="M183.09,152.14a125.42,125.42,0,0,0,26.7,0"/><path class="cls-8" d="M209.8,152.18a1.76,1.76,0,0,0,1.52-1.78"/><path class="cls-8" d="M181.63,150.4a1.75,1.75,0,0,0,1.53,1.78"/><path class="cls-8" d="M196.43,148a1.45,1.45,0,1,0-1.45-1.45,1.45,1.45,0,0,0,1.45,1.45"/><polyline class="cls-8" points="143.89 153.18 143.89 139.17 176.82 139.17 176.82 153.18"/><line class="cls-8" x1="165.54" y1="139.17" x2="155.17" y2="139.17"/><line class="cls-8" x1="163.13" y1="150.36" x2="161.39" y2="150.36"/><line class="cls-8" x1="160.4" y1="147.63" x2="160.4" y2="149.37"/><line class="cls-8" x1="159.32" y1="150.36" x2="157.58" y2="150.36"/><line class="cls-8" x1="160.4" y1="151.44" x2="160.4" y2="153.18"/><path class="cls-8" d="M151.67,147.08a14.7,14.7,0,0,0-5.68,7"/><path class="cls-8" d="M160.37,145a14.56,14.56,0,0,0-8.73,2.06"/><path class="cls-8" d="M174.8,154a14.65,14.65,0,0,0-5.68-7"/><path class="cls-8" d="M169.15,147.08a14.52,14.52,0,0,0-8.72-2.06"/><path class="cls-8" d="M149.29,161.49a26.81,26.81,0,0,0,10,2.73"/><path class="cls-8" d="M173.7,160.12a8.47,8.47,0,0,0,3.11-6.93"/><path class="cls-8" d="M159.29,164.34a17.65,17.65,0,0,0,2.3,0"/><path class="cls-8" d="M169.64,147.59a59.82,59.82,0,0,0-18.41,0"/><path class="cls-8" d="M176,155.4a20.85,20.85,0,0,0-4.67-13.5"/><path class="cls-8" d="M169.79,140.94a40.87,40.87,0,0,0-9.41-1"/><path class="cls-8" d="M171.38,141.85a2.79,2.79,0,0,0-1.54-1"/><path class="cls-8" d="M169.7,141.91a70.27,70.27,0,0,0-9.28-.67"/><path class="cls-8" d="M176.07,155.38a18.79,18.79,0,0,0-4.65-12.62"/><path class="cls-8" d="M171.4,142.76a2.78,2.78,0,0,0-1.7-.91"/><path class="cls-8" d="M149.47,142.75a18.73,18.73,0,0,0-4.66,12.6"/><path class="cls-8" d="M149.49,141.88a20.82,20.82,0,0,0-4.68,13.5"/><path class="cls-8" d="M160.38,141.24a68.3,68.3,0,0,0-9.26.66"/><path class="cls-8" d="M160.39,139.91a41.35,41.35,0,0,0-9.41,1"/><path class="cls-8" d="M151.1,141.85a2.78,2.78,0,0,0-1.7.91"/><path class="cls-8" d="M151,140.89a2.78,2.78,0,0,0-1.53,1"/><path class="cls-8" d="M144,153.19a8.48,8.48,0,0,0,3.12,6.93"/><path class="cls-8" d="M147.1,160.12a12.63,12.63,0,0,0,2.19,1.42"/><path class="cls-8" d="M171.59,161.54a13,13,0,0,0,2.19-1.42"/><path class="cls-8" d="M161.6,164.22a26.86,26.86,0,0,0,10-2.73"/><path class="cls-8" d="M155.92,161.93a19.19,19.19,0,0,0,9,0"/><path class="cls-8" d="M146,154.05a4.9,4.9,0,0,0,1.7,4.07"/><path class="cls-8" d="M147.63,158.16a17.79,17.79,0,0,0,8.21,3.79"/><path class="cls-8" d="M173.12,158.12a5,5,0,0,0,1.7-4.07"/><path class="cls-8" d="M165,162a17.78,17.78,0,0,0,8.22-3.79"/><path class="cls-8" d="M160.44,152.52a2.12,2.12,0,1,0-2.12-2.12,2.11,2.11,0,0,0,2.12,2.12"/><path class="cls-8" d="M160.44,151.94a1.54,1.54,0,1,0-1.54-1.54,1.53,1.53,0,0,0,1.54,1.54"/><polyline class="cls-8" points="121.75 743.92 121.42 743.84 112.71 786.05 113.04 786.14 121.75 743.92"/><polyline class="cls-8" points="111.22 787.38 111.3 786.97 40.72 772.45 40.64 772.87 111.22 787.38"/><polyline class="cls-8" points="39.4 770.96 39.81 771.04 48.44 728.83 48.1 728.75 39.4 770.96"/><polyline class="cls-8" points="122.58 742.1 120.59 741.68 120.26 743.59 122.17 744.01 122.58 742.1"/><polyline class="cls-8" points="113.46 786.22 111.55 785.81 111.14 787.8 113.04 788.13 113.46 786.22"/><polyline class="cls-8" points="40.56 773.2 40.89 771.29 38.98 770.96 38.65 772.87 40.56 773.2"/><polyline class="cls-8" points="47.69 728.66 49.6 729.08 50.01 727.17 48.1 726.76 47.69 728.66"/><line class="cls-8" x1="120.42" y1="742.68" x2="111.55" y2="785.81"/><line class="cls-8" x1="113.04" y1="788.13" x2="122.33" y2="743.09"/><line class="cls-8" x1="111.55" y1="785.81" x2="40.89" y2="771.29"/><line class="cls-8" x1="38.65" y1="772.87" x2="113.04" y2="788.13"/><line class="cls-8" x1="40.89" y1="771.29" x2="49.85" y2="728.17"/><line class="cls-8" x1="47.86" y1="727.75" x2="38.65" y2="772.87"/><polyline class="cls-8" points="122.33 743.1 122.58 742.1 120.59 741.68 120.42 742.68"/><polyline class="cls-8" points="49.85 728.17 50.01 727.17 48.1 726.76 47.86 727.75"/><polyline class="cls-8" points="38.65 772.87 113.04 788.13 122.33 743.1 120.42 742.68 111.55 785.81 40.89 771.29 49.85 728.17 47.86 727.75 38.65 772.87"/><polyline class="cls-8" points="45.28 759.85 112.05 773.53 117.11 748.98 50.34 735.22 45.28 759.85"/><polyline class="cls-8" points="45.78 757.36 112.54 771.13 117.11 748.98 50.34 735.22 45.78 757.36"/><polyline class="cls-8" points="231.64 627.4 247.31 627.4 247.31 705.77 231.64 705.77 231.64 627.4"/><polyline class="cls-8" points="658.75 29.44 658.75 13.77 737.12 13.77 737.12 29.44 658.75 29.44"/><polyline class="cls-8" points="463.11 629.81 476.71 637.6 438.14 705.77 424.46 698.06 463.11 629.81"/><polyline class="cls-8" points="782.16 209.41 795.76 217.13 757.19 285.38 743.51 277.67 782.16 209.41"/><polyline class="cls-8" points="389.96 29.44 389.96 13.77 468.33 13.77 468.33 29.44 389.96 29.44"/><polyline class="cls-8" points="614.46 382.91 614.46 367.24 692.84 367.24 692.84 382.91 614.46 382.91"/><polyline class="cls-8" points="0.5 0.5 16.18 0.5 16.18 78.87 0.5 78.87 0.5 0.5"/><polyline class="cls-8" points="389.96 382.91 389.96 367.24 468.33 367.24 468.33 382.91 389.96 382.91"/><polyline class="cls-8" points="0.5 627.4 16.18 627.4 16.18 705.77 0.5 705.77 0.5 627.4"/><polyline class="cls-8" points="0.5 290.44 16.18 290.44 16.18 368.81 0.5 368.81 0.5 290.44"/><polyline class="cls-8" points="237.94 212.81 237.94 259.84 273.19 259.84 273.19 212.81 237.94 212.81"/></svg>