<svg id="_81" data-name="81" xmlns="http://www.w3.org/2000/svg" viewBox="0 0 366.2 773.1"><defs><style>.cls-1{isolation:isolate;font-size:12px;fill:#969696;}.cls-1,.cls-4,.cls-6{font-family:PTSans-Regular, PT Sans;}.cls-2{letter-spacing:-0.01em;}.cls-10,.cls-3,.cls-5,.cls-7,.cls-8,.cls-9{fill:none;stroke-linecap:round;stroke-linejoin:round;}.cls-3{stroke:#969696;stroke-width:0.75px;}.cls-4{font-size:40px;}.cls-10,.cls-5,.cls-7,.cls-8,.cls-9{stroke:#000;}.cls-10,.cls-5,.cls-9{stroke-width:0.5px;}.cls-6{font-size:36px;}.cls-7{stroke-width:0.25px;stroke-dasharray:1 1;}.cls-9{stroke-dasharray:2.97 2.97;}.cls-10{stroke-dasharray:2.96 2.96;}</style></defs><title>10floor_81flat</title><text class="cls-1" transform="translate(174.96 769.9)"><tspan class="cls-2">у</tspan><tspan x="5.42" y="0">лица</tspan></text><line class="cls-3" x1="164.2" y1="772.72" x2="164.2" y2="763.92"/><polyline class="cls-3" points="160.7 769.22 164.2 772.72 167.7 769.22"/><text class="cls-4" transform="translate(241.24 439.56)">CT</text><text class="cls-4" transform="translate(215.88 489.73)">20.85</text><text class="cls-4" transform="translate(221.5 389.65)">№81</text><polyline class="cls-5" points="201.59 500.54 201.59 351.47 325.92 351.47 325.92 500.54"/><line class="cls-5" x1="201.59" y1="401.25" x2="325.92" y2="401.25"/><line class="cls-5" x1="201.59" y1="500.54" x2="325.92" y2="500.54"/><line class="cls-5" x1="201.59" y1="451.04" x2="325.92" y2="451.04"/><text class="cls-6" transform="translate(132.09 591.68)">11.96</text><text class="cls-6" transform="translate(225.1 157.96)">3.10</text><text class="cls-6" transform="translate(102.14 353.46)">2.20</text><text class="cls-6" transform="translate(91.57 158.02)">3.59</text><line class="cls-7" x1="192.17" y1="219.85" x2="283.74" y2="219.85"/><line class="cls-7" x1="192.17" y1="212.13" x2="283.74" y2="212.13"/><line class="cls-7" x1="187.56" y1="180.65" x2="187.56" y2="89.08"/><line class="cls-7" x1="179.83" y1="180.65" x2="179.83" y2="89.08"/><line class="cls-7" x1="202.75" y1="0.39" x2="292.84" y2="0.39"/><line class="cls-8" x1="0.5" y1="667.83" x2="17.44" y2="667.83"/><line class="cls-8" x1="0.5" y1="666.94" x2="17.44" y2="666.94"/><polyline class="cls-8" points="17.43 679.09 0.5 679.09 0.5 623.86"/><line class="cls-8" x1="17.44" y1="629.28" x2="15.54" y2="629.28"/><line class="cls-8" x1="0.5" y1="629.28" x2="0.5" y2="629.28"/><line class="cls-8" x1="17.44" y1="667.83" x2="77.21" y2="667.83"/><line class="cls-8" x1="298.36" y1="667.83" x2="365.7" y2="667.83"/><line class="cls-8" x1="17.44" y1="666.94" x2="73.42" y2="666.94"/><line class="cls-8" x1="302.14" y1="666.94" x2="365.7" y2="666.94"/><line class="cls-8" x1="302.14" y1="661.26" x2="302.14" y2="629.28"/><line class="cls-8" x1="298.36" y1="679.09" x2="298.36" y2="667.83"/><line class="cls-8" x1="302.14" y1="666.94" x2="302.14" y2="661.26"/><line class="cls-8" x1="73.42" y1="661.26" x2="73.42" y2="629.28"/><line class="cls-8" x1="77.21" y1="679.09" x2="77.21" y2="667.83"/><line class="cls-8" x1="73.42" y1="666.94" x2="73.42" y2="661.26"/><line class="cls-8" x1="17.44" y1="679.09" x2="77.21" y2="679.09"/><line class="cls-8" x1="298.36" y1="679.09" x2="365.7" y2="679.09"/><line class="cls-8" x1="365.7" y1="629.28" x2="365.7" y2="629.28"/><line class="cls-8" x1="346.87" y1="629.28" x2="302.14" y2="629.28"/><line class="cls-8" x1="73.42" y1="629.28" x2="17.44" y2="629.28"/><line class="cls-8" x1="77.21" y1="679.09" x2="298.36" y2="679.09"/><line class="cls-8" x1="73.42" y1="629.28" x2="302.14" y2="629.28"/><polyline class="cls-8" points="73.42 661.26 78.6 661.26 78.6 665.04 80.99 665.04 80.99 666.94 73.42 666.94"/><polyline class="cls-8" points="150.92 666.94 147.14 666.94 147.14 665.04 149.53 665.04 149.53 661.26 150.92 661.26"/><line class="cls-8" x1="147.14" y1="666.94" x2="80.99" y2="666.94"/><polyline class="cls-8" points="78.6 659.37 84.28 659.37 143.85 659.37"/><polyline class="cls-8" points="84.28 659.37 84.28 665.04 78.6 665.04 78.6 659.37"/><polyline class="cls-8" points="149.53 665.04 143.85 665.04 143.85 659.37 149.53 659.37 149.53 665.04"/><line class="cls-8" x1="143.85" y1="665.05" x2="84.28" y2="665.05"/><line class="cls-8" x1="84.28" y1="659.37" x2="143.85" y2="659.37"/><line class="cls-8" x1="84.28" y1="662.16" x2="143.85" y2="662.16"/><polyline class="cls-8" points="150.92 661.26 152.32 661.26 152.32 665.04 154.71 665.04 154.71 666.94 150.92 666.94"/><polyline class="cls-8" points="224.64 666.94 220.85 666.94 220.85 665.04 223.24 665.04 223.24 661.26 224.64 661.26"/><line class="cls-8" x1="220.85" y1="666.94" x2="154.71" y2="666.94"/><polyline class="cls-8" points="152.32 659.37 158 659.37 217.57 659.37"/><polyline class="cls-8" points="158 659.37 158 665.04 152.32 665.04 152.32 659.37"/><polyline class="cls-8" points="223.24 665.04 217.57 665.04 217.57 659.37 223.24 659.37 223.24 665.04"/><line class="cls-8" x1="217.57" y1="665.05" x2="157.99" y2="665.05"/><line class="cls-8" x1="157.99" y1="659.37" x2="217.57" y2="659.37"/><line class="cls-8" x1="157.99" y1="662.16" x2="217.57" y2="662.16"/><polyline class="cls-8" points="224.64 661.26 226.03 661.26 226.03 665.04 228.42 665.04 228.42 666.94 224.64 666.94"/><polyline class="cls-8" points="302.14 666.94 294.67 666.94 294.67 665.04 296.96 665.04 296.96 661.26 302.14 661.26"/><line class="cls-8" x1="294.67" y1="666.94" x2="228.42" y2="666.94"/><polyline class="cls-8" points="226.03 659.37 231.71 659.37 291.38 659.37"/><polyline class="cls-8" points="231.71 659.37 231.71 665.04 226.03 665.04 226.03 659.37"/><polyline class="cls-8" points="296.96 665.04 291.38 665.04 291.38 659.37 296.96 659.37 296.96 665.04"/><line class="cls-8" x1="291.38" y1="665.05" x2="231.71" y2="665.05"/><line class="cls-8" x1="231.71" y1="659.37" x2="291.38" y2="659.37"/><line class="cls-8" x1="231.71" y1="662.16" x2="291.38" y2="662.16"/><polyline class="cls-8" points="73.42 661.26 73.42 666.94 73.42 661.26"/><polyline class="cls-8" points="73.42 666.94 77.2 666.94 73.42 666.94"/><polyline class="cls-8" points="77.2 679.09 77.2 667.84 77.2 666.94"/><line class="cls-8" x1="73.42" y1="661.26" x2="73.42" y2="629.28"/><polyline class="cls-8" points="302.14 661.26 302.14 666.94 302.14 661.26"/><polyline class="cls-8" points="302.14 666.94 298.36 666.94 302.14 666.94"/><polyline class="cls-8" points="298.36 679.09 298.36 667.84 298.36 666.94"/><line class="cls-8" x1="302.14" y1="661.26" x2="302.14" y2="629.28"/><line class="cls-8" x1="356.23" y1="679.09" x2="365.7" y2="679.09"/><polyline class="cls-8" points="365.7 679.09 356.23 679.09 365.7 679.09 365.7 591.68"/><line class="cls-8" x1="0.5" y1="0.5" x2="0.5" y2="0.5"/><line class="cls-8" x1="0.5" y1="0.5" x2="0.5" y2="0.5"/><line class="cls-8" x1="0.5" y1="0.5" x2="0.5" y2="0.5"/><line class="cls-8" x1="15.54" y1="0.5" x2="0.5" y2="0.5"/><polyline class="cls-8" points="0.5 0.5 0.5 0.5 0.5 0.5"/><line class="cls-8" x1="0.5" y1="0.5" x2="0.5" y2="0.5"/><line class="cls-8" x1="0.5" y1="0.5" x2="0.5" y2="0.5"/><polyline class="cls-8" points="15.54 0.5 15.54 15.54 15.54 553.97"/><line class="cls-8" x1="0.5" y1="0.5" x2="0.5" y2="553.97"/><polyline class="cls-8" points="168.06 681.48 167.56 681.48 167.56 733.28 168.06 733.28 168.06 681.48"/><polyline class="cls-8" points="166.16 735.18 166.16 734.68 79.5 734.68 79.5 735.18 166.16 735.18"/><polyline class="cls-8" points="77.7 733.28 78.1 733.28 78.1 681.48 77.7 681.48 77.7 733.28"/><polyline class="cls-8" points="168.45 679.09 166.16 679.09 166.16 681.48 168.45 681.48 168.45 679.09"/><polyline class="cls-8" points="168.45 733.28 166.16 733.28 166.16 735.57 168.45 735.57 168.45 733.28"/><polyline class="cls-8" points="79.5 735.57 79.5 733.28 77.2 733.28 77.2 735.57 79.5 735.57"/><polyline class="cls-8" points="77.2 681.48 79.5 681.48 79.5 679.09 77.2 679.09 77.2 681.48"/><line class="cls-8" x1="166.16" y1="680.29" x2="166.16" y2="733.28"/><line class="cls-8" x1="168.45" y1="735.57" x2="168.45" y2="680.29"/><line class="cls-8" x1="166.16" y1="733.28" x2="79.5" y2="733.28"/><line class="cls-8" x1="77.21" y1="735.57" x2="168.45" y2="735.57"/><line class="cls-8" x1="79.5" y1="733.28" x2="79.5" y2="680.29"/><line class="cls-8" x1="77.21" y1="680.29" x2="77.21" y2="735.57"/><polyline class="cls-8" points="168.45 680.29 168.45 679.09 166.16 679.09 166.16 680.29"/><polyline class="cls-8" points="79.5 680.29 79.5 679.09 77.2 679.09 77.2 680.29"/><polyline class="cls-8" points="77.2 735.57 168.45 735.57 168.45 680.29 166.16 680.29 166.16 733.28 79.5 733.28 79.5 680.29 77.2 680.29 77.2 735.57"/><polyline class="cls-8" points="81.89 718.64 163.77 718.64 163.77 688.55 81.89 688.55 81.89 718.64"/><polyline class="cls-8" points="81.89 715.65 163.77 715.65 163.77 688.55 81.89 688.55 81.89 715.65"/><line class="cls-5" x1="15.54" y1="392.09" x2="17.04" y2="392.09"/><line class="cls-9" x1="20.01" y1="392.09" x2="184.8" y2="392.09"/><polyline class="cls-5" points="186.28 392.1 187.78 392.1 187.78 390.6"/><line class="cls-10" x1="187.78" y1="387.63" x2="187.78" y2="276.53"/><line class="cls-5" x1="187.78" y1="275.05" x2="187.78" y2="273.55"/><polyline class="cls-8" points="295.07 0.5 295.07 7.97 295.07 19.33"/><polyline class="cls-8" points="200.93 0.5 200.93 7.97 200.93 19.33 15.54 19.33"/><line class="cls-8" x1="313.9" y1="0.5" x2="295.07" y2="0.5"/><polyline class="cls-8" points="200.93 0.5 15.54 0.5 15.54 19.33"/><line class="cls-8" x1="200.93" y1="0.5" x2="201.23" y2="0.5"/><line class="cls-8" x1="294.77" y1="0.5" x2="294.77" y2="0.5"/><line class="cls-8" x1="294.87" y1="0.5" x2="295.07" y2="0.5"/><line class="cls-8" x1="200.93" y1="19.33" x2="201.23" y2="19.33"/><line class="cls-8" x1="294.77" y1="19.33" x2="294.77" y2="19.33"/><line class="cls-8" x1="294.87" y1="19.33" x2="295.07" y2="19.33"/><path class="cls-8" d="M204.81,7.92a86.62,86.62,0,0,0,86.62,86.62"/><polyline class="cls-8" points="200.93 0.5 204.72 0.5 204.72 7.97 200.93 7.97 200.93 0.5"/><polyline class="cls-8" points="295.07 7.97 291.38 7.97 291.38 0.5 295.07 0.5 295.07 7.97"/><line class="cls-8" x1="291.38" y1="7.97" x2="291.38" y2="94.64"/><polyline class="cls-8" points="200.93 19.33 200.93 7.97 200.93 0.5 200.93 7.97"/><polyline class="cls-8" points="295.07 19.33 295.07 7.97 295.07 0.5 295.07 7.97"/><line class="cls-8" x1="365.7" y1="63.56" x2="365.7" y2="63.56"/><line class="cls-8" x1="346.87" y1="82.39" x2="346.87" y2="243.37"/><line class="cls-8" x1="346.87" y1="337.5" x2="346.87" y2="553.97"/><line class="cls-8" x1="365.7" y1="553.97" x2="365.7" y2="337.5"/><line class="cls-8" x1="365.7" y1="243.37" x2="365.7" y2="63.56"/><line class="cls-8" x1="187.78" y1="165.17" x2="180.31" y2="165.17"/><line class="cls-8" x1="187.78" y1="99.32" x2="180.31" y2="99.32"/><line class="cls-8" x1="187.78" y1="279.13" x2="187.78" y2="219.76"/><line class="cls-8" x1="187.78" y1="212.29" x2="187.78" y2="165.17"/><polyline class="cls-8" points="187.78 99.32 187.78 19.33 180.31 19.33 180.31 99.32"/><line class="cls-8" x1="180.31" y1="165.17" x2="180.31" y2="212.29"/><line class="cls-8" x1="180.31" y1="219.76" x2="180.31" y2="271.56"/><line class="cls-8" x1="187.78" y1="99.32" x2="180.31" y2="99.32"/><line class="cls-8" x1="187.78" y1="165.17" x2="180.31" y2="165.17"/><line class="cls-8" x1="197.24" y1="212.29" x2="197.24" y2="219.76"/><polyline class="cls-8" points="346.87 212.29 281.92 212.29 281.92 219.76"/><line class="cls-8" x1="197.24" y1="212.29" x2="187.78" y2="212.29"/><line class="cls-8" x1="187.78" y1="219.76" x2="197.24" y2="219.76"/><polyline class="cls-8" points="281.92 219.76 346.87 219.76 346.87 212.29"/><line class="cls-8" x1="281.92" y1="212.29" x2="281.92" y2="219.76"/><line class="cls-8" x1="197.24" y1="212.29" x2="197.24" y2="219.76"/><line class="cls-8" x1="180.31" y1="271.56" x2="70.13" y2="271.56"/><polyline class="cls-8" points="62.56 271.56 15.54 271.56 15.54 279.13 62.56 279.13"/><polyline class="cls-8" points="187.78 279.13 180.31 279.13 70.13 279.13"/><line class="cls-8" x1="62.56" y1="219.76" x2="62.56" y2="271.56"/><line class="cls-8" x1="62.56" y1="279.13" x2="70.13" y2="279.13"/><line class="cls-8" x1="70.13" y1="271.56" x2="70.13" y2="219.76"/><polyline class="cls-8" points="24.91 212.29 24.91 216.07 24.91 219.76"/><polyline class="cls-8" points="62.56 212.29 62.56 216.07 62.56 219.76"/><line class="cls-8" x1="15.54" y1="219.76" x2="24.91" y2="219.76"/><line class="cls-8" x1="70.13" y1="219.76" x2="180.31" y2="219.76"/><line class="cls-8" x1="180.31" y1="212.29" x2="62.56" y2="212.29"/><polyline class="cls-8" points="24.91 212.29 15.54 212.29 15.54 219.76"/><line class="cls-8" x1="62.56" y1="212.29" x2="24.91" y2="212.29"/><line class="cls-8" x1="62.56" y1="219.76" x2="24.91" y2="219.76"/><path class="cls-8" d="M62.56,212.24a37.68,37.68,0,0,0-2.27-12.87"/><line class="cls-8" x1="24.91" y1="212.29" x2="60.37" y2="199.44"/><polyline class="cls-8" points="62.56 219.76 62.56 216.07 62.56 212.29 62.56 216.07"/><polyline class="cls-8" points="24.91 219.76 24.91 216.07 24.91 212.29 24.91 216.07"/><line class="cls-8" x1="295.07" y1="19.33" x2="295.07" y2="82.39"/><polyline class="cls-8" points="313.89 0.5 313.89 19.33 313.89 63.56"/><polyline class="cls-8" points="295.07 82.39 313.89 82.39 346.87 82.39"/><line class="cls-8" x1="365.7" y1="63.56" x2="313.9" y2="63.56"/><polyline class="cls-8" points="346.87 648.11 365.7 648.11 365.7 553.97 346.87 553.97 346.87 648.11"/><polyline class="cls-8" points="346.87 337.5 365.7 337.5 365.7 243.37 346.87 243.37 346.87 337.5"/><polyline class="cls-8" points="0.5 553.97 0.5 629.28 0.5 648.11 15.54 648.11 15.54 629.28 15.54 553.97"/><line class="cls-8" x1="20.82" y1="30.58" x2="20.82" y2="78.6"/><line class="cls-8" x1="26.2" y1="84.28" x2="142.65" y2="84.28"/><line class="cls-8" x1="26.2" y1="25.01" x2="142.65" y2="25.01"/><line class="cls-8" x1="175.53" y1="89.96" x2="15.54" y2="89.96"/><polyline class="cls-8" points="175.53 89.96 175.53 19.33 15.54 19.33 15.54 89.96"/><line class="cls-8" x1="123.93" y1="34.77" x2="32.78" y2="34.77"/><line class="cls-8" x1="30.19" y1="37.66" x2="30.19" y2="71.63"/><line class="cls-8" x1="123.93" y1="74.42" x2="32.78" y2="74.42"/><line class="cls-8" x1="48.91" y1="52.9" x2="48.91" y2="49.41"/><line class="cls-8" x1="47.22" y1="54.59" x2="43.93" y2="54.59"/><line class="cls-8" x1="48.91" y1="56.39" x2="48.91" y2="59.87"/><line class="cls-8" x1="50.51" y1="54.59" x2="53.8" y2="54.59"/><path class="cls-8" d="M142.7,84.18c15.49,0,28.05-13.27,28.05-29.64S158.19,24.91,142.7,24.91"/><path class="cls-8" d="M20.92,78.55a5.49,5.49,0,0,0,5.33,5.63"/><path class="cls-8" d="M26.25,24.91a5.49,5.49,0,0,0-5.33,5.62"/><path class="cls-8" d="M49,51.6a2.95,2.95,0,1,0,2.74,2.94A2.85,2.85,0,0,0,49,51.6"/><path class="cls-8" d="M124,74.42c10.31,0,18.67-8.9,18.67-19.88S134.29,34.67,124,34.67"/><path class="cls-8" d="M32.83,34.77a2.74,2.74,0,0,0-2.64,2.84"/><path class="cls-8" d="M30.19,71.58a2.75,2.75,0,0,0,2.64,2.84"/><path class="cls-8" d="M49,50.61a3.94,3.94,0,1,0,3.74,3.93A3.83,3.83,0,0,0,49,50.61"/><polyline class="cls-8" points="37.06 143.55 15.54 143.55 15.54 92.75 37.06 92.75"/><line class="cls-8" x1="15.54" y1="110.18" x2="15.54" y2="126.12"/><line class="cls-8" x1="32.78" y1="113.86" x2="32.78" y2="116.55"/><line class="cls-8" x1="28.49" y1="118.15" x2="31.18" y2="118.15"/><line class="cls-8" x1="32.78" y1="119.74" x2="32.78" y2="122.43"/><line class="cls-8" x1="34.37" y1="118.15" x2="37.06" y2="118.15"/><path class="cls-8" d="M27.73,131.58a22.69,22.69,0,0,0,10.72,8.79"/><path class="cls-8" d="M24.48,118.07a22.62,22.62,0,0,0,3.18,13.51"/><path class="cls-8" d="M38.45,95.82a22.75,22.75,0,0,0-10.72,8.79"/><path class="cls-8" d="M27.66,104.61a22.64,22.64,0,0,0-3.18,13.51"/><path class="cls-8" d="M49.88,135.29a41.68,41.68,0,0,0,4.2-15.42"/><path class="cls-8" d="M47.67,97.57a12.89,12.89,0,0,0-10.62-4.81"/><path class="cls-8" d="M54.13,119.88a26.43,26.43,0,0,0,0-3.56"/><path class="cls-8" d="M28.49,103.88a92.88,92.88,0,0,0,0,28.44"/><path class="cls-8" d="M40.45,94.05a31.93,31.93,0,0,0-20.76,7.2"/><path class="cls-8" d="M18.21,103.54a63.5,63.5,0,0,0-1.57,14.54"/><path class="cls-8" d="M19.59,101.17a4.25,4.25,0,0,0-1.45,2.34"/><path class="cls-8" d="M19.66,103.75a109.11,109.11,0,0,0-1,14.33"/><path class="cls-8" d="M40.38,93.94A28.8,28.8,0,0,0,21,101.12"/><path class="cls-8" d="M21.06,101.17a4.23,4.23,0,0,0-1.39,2.6"/><path class="cls-8" d="M21,135.05a28.74,28.74,0,0,0,19.38,7.2"/><path class="cls-8" d="M19.66,134.92a31.9,31.9,0,0,0,20.74,7.23"/><path class="cls-8" d="M18.63,118.07a109.09,109.09,0,0,0,1,14.33"/><path class="cls-8" d="M16.64,118a64,64,0,0,0,1.55,14.54"/><path class="cls-8" d="M19.67,132.42a4.18,4.18,0,0,0,1.39,2.6"/><path class="cls-8" d="M18.14,132.58a4.18,4.18,0,0,0,1.44,2.34"/><path class="cls-8" d="M37.05,143.44a12.9,12.9,0,0,0,10.62-4.82"/><path class="cls-8" d="M47.8,138.71A20.36,20.36,0,0,0,50,135.33"/><path class="cls-8" d="M50,100.87a20.45,20.45,0,0,0-2.19-3.39"/><path class="cls-8" d="M54.08,116.33a41.62,41.62,0,0,0-4.2-15.42"/><path class="cls-8" d="M50.57,125.1a29.85,29.85,0,0,0,0-14"/><path class="cls-8" d="M38.38,140.34a7.59,7.59,0,0,0,6.29-2.62"/><path class="cls-8" d="M44.68,137.73a27.52,27.52,0,0,0,5.81-12.66"/><path class="cls-8" d="M44.67,98.47a7.65,7.65,0,0,0-6.29-2.62"/><path class="cls-8" d="M50.49,111.12a27.53,27.53,0,0,0-5.81-12.65"/><path class="cls-8" d="M36.16,118.1a3.34,3.34,0,1,0-3.33,3.34,3.33,3.33,0,0,0,3.33-3.34"/><path class="cls-8" d="M35.17,118.1a2.35,2.35,0,1,0-2.34,2.34,2.34,2.34,0,0,0,2.34-2.34"/><line class="cls-8" x1="29.99" y1="191.07" x2="63.26" y2="191.07"/><polyline class="cls-8" points="27.99 192.46 15.54 192.46 15.54 156.7"/><line class="cls-8" x1="35.86" y1="174.63" x2="35.86" y2="161.38"/><polyline class="cls-8" points="63.16 191.07 35.86 187.88 35.86 174.63"/><line class="cls-8" x1="63.16" y1="158.19" x2="35.86" y2="161.38"/><line class="cls-8" x1="63.16" y1="190.27" x2="35.86" y2="187.08"/><line class="cls-8" x1="63.16" y1="158.99" x2="35.86" y2="162.18"/><line class="cls-8" x1="29.99" y1="158.19" x2="63.26" y2="158.19"/><line class="cls-8" x1="15.54" y1="156.7" x2="27.99" y2="156.7"/><polyline class="cls-8" points="63.16 191.07 66.84 190.67 70.33 189.18 73.42 186.98 75.91 184 77.6 180.51 78.5 176.62 78.5 172.64 77.6 168.75 75.91 165.27 73.42 162.28 70.33 159.99 66.84 158.59 63.16 158.19"/><polyline class="cls-8" points="63.16 190.27 66.65 189.77 69.93 188.48 72.82 186.29 75.21 183.5 76.81 180.21 77.6 176.52 77.6 172.74 76.81 169.05 75.21 165.76 72.82 162.88 69.93 160.78 66.65 159.49 63.16 158.99"/><path class="cls-8" d="M30.13,190.62a150.7,150.7,0,0,0,0-32.06"/><path class="cls-8" d="M28,192.46a2.1,2.1,0,0,0,2.13-1.82"/><path class="cls-8" d="M30.18,158.54A2.12,2.12,0,0,0,28,156.7"/><path class="cls-8" d="M25.21,174.58a1.75,1.75,0,1,0-1.75,1.74,1.75,1.75,0,0,0,1.75-1.74"/><polyline class="cls-8" points="20.22 335.61 72.03 335.61 72.03 283.81 20.22 283.81 20.22 335.61"/><polyline class="cls-8" points="24.91 330.83 67.34 330.83 67.34 293.18 24.91 293.18 24.91 330.83"/></svg>