<svg id="_154" data-name="154" xmlns="http://www.w3.org/2000/svg" viewBox="0 0 365.76 594.08"><defs><style>.cls-1,.cls-6,.cls-7{fill:none;}.cls-1{stroke:#969595;}.cls-1,.cls-6,.cls-7,.cls-9{stroke-linecap:round;stroke-linejoin:round;stroke-width:0.5px;}.cls-2{isolation:isolate;font-size:12px;fill:#969595;}.cls-2,.cls-4,.cls-5{font-family:PTSans-Regular, PT Sans;}.cls-3{letter-spacing:-0.01em;}.cls-4{font-size:20px;}.cls-4,.cls-5{fill:#181716;}.cls-5{font-size:24px;}.cls-6{stroke:#181716;}.cls-7,.cls-9{stroke:#000;}.cls-8{fill-rule:evenodd;}</style></defs><title>5floor_154flat</title><line class="cls-1" x1="164.56" y1="591.53" x2="164.56" y2="582.73"/><polyline class="cls-1" points="161.16 588.24 164.66 591.74 168.16 588.24"/><text class="cls-2" transform="translate(174.06 591.14)"><tspan class="cls-3">у</tspan><tspan x="5.42" y="0">лица</tspan></text><text class="cls-4" transform="translate(260.9 73.27)">3.59</text><text class="cls-4" transform="translate(73.68 430.43)">17.25</text><text class="cls-4" transform="translate(223.85 430.43)">14.20</text><text class="cls-4" transform="translate(243.69 500.66)">1.58</text><text class="cls-4" transform="translate(168.96 103.05)">6.29</text><text class="cls-4" transform="translate(271.27 161.3)">1.71</text><text class="cls-5" transform="translate(85.11 304)">1К</text><text class="cls-5" transform="translate(70.25 337.01)">44.62</text><text class="cls-5" transform="translate(67.08 271.48)">№154</text><polyline class="cls-6" points="58.47 345.36 58.47 248.24 139.47 248.24 139.47 345.36"/><line class="cls-6" x1="58.47" y1="280.67" x2="139.47" y2="280.67"/><line class="cls-6" x1="58.47" y1="345.36" x2="139.47" y2="345.36"/><line class="cls-6" x1="58.47" y1="313.11" x2="139.47" y2="313.11"/><line class="cls-7" x1="0.25" y1="218.34" x2="0.25" y2="214"/><polyline class="cls-8" points="135.52 168.02 135.52 163.69 142.95 163.69 142.95 168.02 135.52 168.02"/><polyline class="cls-8" points="191.66 168.02 191.66 163.69 199.4 163.69 199.4 168.02 191.66 168.02"/><polyline class="cls-8" points="242.68 168.02 242.68 163.69 246.48 163.69 246.48 168.02 242.68 168.02"/><line class="cls-7" x1="191.66" y1="168.02" x2="191.66" y2="163.69"/><line class="cls-7" x1="142.95" y1="168.02" x2="142.95" y2="163.69"/><line class="cls-7" x1="199.4" y1="168.02" x2="199.4" y2="163.69"/><line class="cls-7" x1="242.68" y1="168.02" x2="242.68" y2="163.69"/><line class="cls-7" x1="135.52" y1="168.02" x2="142.95" y2="168.02"/><line class="cls-7" x1="191.66" y1="168.02" x2="192.36" y2="168.02"/><line class="cls-7" x1="196.67" y1="168.02" x2="199.4" y2="168.02"/><line class="cls-7" x1="242.68" y1="168.02" x2="246.48" y2="168.02"/><line class="cls-7" x1="246.48" y1="163.69" x2="246.48" y2="168.02"/><line class="cls-7" x1="246.48" y1="163.69" x2="242.68" y2="163.69"/><line class="cls-7" x1="199.4" y1="163.69" x2="191.66" y2="163.69"/><line class="cls-7" x1="142.95" y1="163.69" x2="135.52" y2="163.69"/><line class="cls-7" x1="135.52" y1="163.69" x2="135.52" y2="168.02"/><path class="cls-7" d="M217.84,258.44a44.38,44.38,0,0,1-44.38-44.38" transform="translate(-28.34 -46.04)"/><polyline class="cls-8" points="142.95 163.69 145.12 163.69 145.12 168.02 142.95 168.02 142.95 163.69"/><polyline class="cls-8" points="191.66 168.02 189.49 168.02 189.49 163.69 191.66 163.69 191.66 168.02"/><line class="cls-7" x1="142.95" y1="163.69" x2="145.12" y2="163.69"/><line class="cls-7" x1="145.12" y1="163.69" x2="145.12" y2="168.02"/><line class="cls-7" x1="145.12" y1="168.02" x2="142.95" y2="168.02"/><line class="cls-7" x1="142.95" y1="168.02" x2="142.95" y2="163.69"/><line class="cls-7" x1="191.66" y1="168.02" x2="189.49" y2="168.02"/><line class="cls-7" x1="189.49" y1="168.02" x2="189.49" y2="163.69"/><line class="cls-7" x1="189.49" y1="163.69" x2="191.66" y2="163.69"/><line class="cls-7" x1="191.66" y1="163.69" x2="191.66" y2="168.02"/><line class="cls-7" x1="189.49" y1="168.02" x2="189.49" y2="212.4"/><line class="cls-7" x1="142.95" y1="168.02" x2="142.95" y2="163.69"/><line class="cls-7" x1="142.95" y1="168.02" x2="142.95" y2="163.69"/><line class="cls-7" x1="191.66" y1="168.02" x2="191.66" y2="163.69"/><line class="cls-7" x1="191.66" y1="168.02" x2="191.66" y2="163.69"/><path class="cls-7" d="M268.85,214.06a39,39,0,0,1-39,38.94" transform="translate(-28.34 -46.04)"/><polyline class="cls-8" points="242.68 163.69 242.68 168.02 240.51 168.02 240.51 163.69 242.68 163.69"/><polyline class="cls-8" points="199.4 168.02 199.4 163.69 201.54 163.69 201.54 168.02 199.4 168.02"/><line class="cls-7" x1="242.68" y1="163.69" x2="240.51" y2="163.69"/><line class="cls-7" x1="240.51" y1="163.69" x2="240.51" y2="168.02"/><line class="cls-7" x1="240.51" y1="168.02" x2="242.68" y2="168.02"/><line class="cls-7" x1="242.68" y1="168.02" x2="242.68" y2="163.69"/><line class="cls-7" x1="199.4" y1="168.02" x2="201.54" y2="168.02"/><line class="cls-7" x1="201.54" y1="168.02" x2="201.54" y2="163.69"/><line class="cls-7" x1="201.54" y1="163.69" x2="199.4" y2="163.69"/><line class="cls-7" x1="199.4" y1="163.69" x2="199.4" y2="168.02"/><line class="cls-7" x1="201.54" y1="168.02" x2="201.54" y2="206.97"/><line class="cls-7" x1="242.68" y1="168.02" x2="242.68" y2="163.69"/><line class="cls-7" x1="242.68" y1="168.02" x2="242.68" y2="163.69"/><line class="cls-7" x1="199.4" y1="168.02" x2="199.4" y2="163.69"/><line class="cls-7" x1="199.4" y1="168.02" x2="199.4" y2="163.69"/><polyline class="cls-8" points="192.36 168.02 196.67 168.02 196.67 457.53 192.36 457.53 192.36 168.02"/><line class="cls-7" x1="192.36" y1="168.02" x2="192.36" y2="457.53"/><line class="cls-7" x1="196.67" y1="457.53" x2="192.36" y2="457.53"/><line class="cls-7" x1="196.67" y1="457.53" x2="196.67" y2="168.02"/><line class="cls-7" x1="0.25" y1="457.53" x2="0.25" y2="446.7"/><polyline class="cls-8" points="170.7 467.27 170.7 465.66 217.78 465.66 217.78 467.27 170.7 467.27"/><polyline class="cls-8" points="323.86 467.27 323.86 465.66 354.7 465.66 354.7 467.27 323.86 467.27"/><polyline class="cls-8" points="170.7 465.66 170.7 457.53 217.78 457.53 217.78 465.66 170.7 465.66"/><polyline class="cls-8" points="323.86 457.53 354.7 457.53 354.7 465.66 323.86 465.66 323.86 457.53"/><polyline class="cls-8" points="170.7 446.7 219.41 446.7 219.41 457.53 170.7 457.53 170.7 446.7"/><polyline class="cls-8" points="354.7 446.7 354.7 457.53 322.23 457.53 322.23 446.7 354.7 446.7"/><polyline class="cls-8" points="217.78 467.27 217.78 457.53 219.41 457.53 219.41 467.27 217.78 467.27"/><polyline class="cls-8" points="323.86 467.27 322.23 467.27 322.23 457.53 323.86 457.53 323.86 467.27"/><polyline class="cls-8" points="323.86 467.27 322.23 467.27 322.23 457.53 323.86 457.53 323.86 467.27"/><line class="cls-7" x1="219.41" y1="465.66" x2="219.41" y2="457.53"/><line class="cls-7" x1="219.41" y1="467.27" x2="219.41" y2="465.66"/><line class="cls-7" x1="217.77" y1="467.27" x2="219.41" y2="467.27"/><line class="cls-7" x1="219.41" y1="454.83" x2="219.41" y2="446.7"/><line class="cls-7" x1="219.41" y1="457.53" x2="219.41" y2="454.83"/><line class="cls-7" x1="354.71" y1="446.7" x2="322.23" y2="446.7"/><line class="cls-7" x1="219.41" y1="446.7" x2="170.7" y2="446.7"/><line class="cls-7" x1="170.7" y1="467.27" x2="170.7" y2="465.66"/><line class="cls-7" x1="170.7" y1="467.27" x2="217.77" y2="467.27"/><line class="cls-7" x1="323.86" y1="467.27" x2="354.71" y2="467.27"/><line class="cls-7" x1="354.71" y1="457.53" x2="354.71" y2="446.7"/><line class="cls-7" x1="219.41" y1="467.27" x2="276.22" y2="467.27"/><line class="cls-7" x1="219.41" y1="446.7" x2="276.22" y2="446.7"/><polyline class="cls-8" points="219.41 454.83 224.81 454.83 224.81 457.53 219.41 457.53 219.41 454.83"/><polyline class="cls-8" points="276.22 457.53 270.82 457.53 270.82 454.83 276.22 454.83 276.22 457.53"/><line class="cls-7" x1="219.41" y1="454.83" x2="224.81" y2="454.83"/><line class="cls-7" x1="224.81" y1="454.83" x2="224.81" y2="457.53"/><line class="cls-7" x1="224.81" y1="457.53" x2="219.41" y2="457.53"/><line class="cls-7" x1="276.22" y1="457.53" x2="270.82" y2="457.53"/><line class="cls-7" x1="270.82" y1="457.53" x2="270.82" y2="454.83"/><line class="cls-7" x1="270.82" y1="454.83" x2="276.22" y2="454.83"/><line class="cls-7" x1="224.81" y1="454.83" x2="270.82" y2="454.83"/><line class="cls-7" x1="270.82" y1="457.53" x2="224.81" y2="457.53"/><line class="cls-7" x1="219.41" y1="457.53" x2="219.41" y2="454.83"/><line class="cls-7" x1="219.41" y1="457.53" x2="219.41" y2="454.83"/><line class="cls-7" x1="219.41" y1="454.83" x2="219.41" y2="446.7"/><line class="cls-7" x1="219.41" y1="467.27" x2="219.41" y2="465.66"/><line class="cls-7" x1="219.41" y1="465.66" x2="219.41" y2="457.53"/><line class="cls-7" x1="276.22" y1="467.25" x2="322.23" y2="467.25"/><line class="cls-7" x1="322.23" y1="446.61" x2="276.22" y2="446.61"/><path class="cls-7" d="M306.73,500.86a41.68,41.68,0,0,1,41.68-41.67" transform="translate(-28.34 -46.04)"/><polyline class="cls-8" points="276.22 457.53 276.22 454.83 278.39 454.83 278.39 457.53 276.22 457.53"/><polyline class="cls-8" points="322.23 454.83 322.23 457.53 320.06 457.53 320.06 454.83 322.23 454.83"/><line class="cls-7" x1="276.22" y1="457.53" x2="278.39" y2="457.53"/><line class="cls-7" x1="278.39" y1="457.53" x2="278.39" y2="454.83"/><line class="cls-7" x1="278.39" y1="454.83" x2="276.22" y2="454.83"/><line class="cls-7" x1="322.23" y1="454.83" x2="320.06" y2="454.83"/><line class="cls-7" x1="320.06" y1="454.83" x2="320.06" y2="457.53"/><line class="cls-7" x1="320.06" y1="457.53" x2="322.23" y2="457.53"/><line class="cls-7" x1="322.23" y1="457.53" x2="322.23" y2="454.83"/><line class="cls-7" x1="320.06" y1="454.83" x2="320.06" y2="413.15"/><line class="cls-7" x1="322.23" y1="457.53" x2="322.23" y2="454.83"/><line class="cls-7" x1="322.23" y1="457.53" x2="322.23" y2="454.83"/><line class="cls-7" x1="322.23" y1="454.83" x2="322.23" y2="446.7"/><line class="cls-7" x1="322.23" y1="454.83" x2="322.23" y2="446.7"/><line class="cls-7" x1="322.23" y1="467.27" x2="322.23" y2="465.66"/><line class="cls-7" x1="322.23" y1="467.27" x2="322.23" y2="465.66"/><line class="cls-7" x1="322.23" y1="465.66" x2="322.23" y2="457.53"/><line class="cls-7" x1="322.23" y1="465.66" x2="322.23" y2="457.53"/><line class="cls-7" x1="276.22" y1="467.25" x2="322.23" y2="467.25"/><line class="cls-7" x1="322.23" y1="446.61" x2="276.22" y2="446.61"/><path class="cls-7" d="M306.73,500.86a41.68,41.68,0,0,1,41.68-41.67" transform="translate(-28.34 -46.04)"/><polyline class="cls-8" points="276.22 457.53 276.22 454.83 278.39 454.83 278.39 457.53 276.22 457.53"/><polyline class="cls-8" points="322.23 454.83 322.23 457.53 320.06 457.53 320.06 454.83 322.23 454.83"/><line class="cls-7" x1="276.22" y1="457.53" x2="278.39" y2="457.53"/><line class="cls-7" x1="278.39" y1="457.53" x2="278.39" y2="454.83"/><line class="cls-7" x1="278.39" y1="454.83" x2="276.22" y2="454.83"/><line class="cls-7" x1="322.23" y1="454.83" x2="320.06" y2="454.83"/><line class="cls-7" x1="320.06" y1="454.83" x2="320.06" y2="457.53"/><line class="cls-7" x1="320.06" y1="457.53" x2="322.23" y2="457.53"/><line class="cls-7" x1="322.23" y1="457.53" x2="322.23" y2="454.83"/><line class="cls-7" x1="320.06" y1="454.83" x2="320.06" y2="413.15"/><line class="cls-7" x1="322.23" y1="457.53" x2="322.23" y2="454.83"/><line class="cls-7" x1="322.23" y1="457.53" x2="322.23" y2="454.83"/><line class="cls-7" x1="322.23" y1="454.83" x2="322.23" y2="446.7"/><line class="cls-7" x1="322.23" y1="454.83" x2="322.23" y2="446.7"/><line class="cls-7" x1="322.23" y1="467.27" x2="322.23" y2="465.66"/><line class="cls-7" x1="322.23" y1="467.27" x2="322.23" y2="465.66"/><line class="cls-7" x1="322.23" y1="465.66" x2="322.23" y2="457.53"/><line class="cls-7" x1="322.23" y1="465.66" x2="322.23" y2="457.53"/><polyline class="cls-8" points="0.25 465.66 0.25 457.53 11.06 457.53 11.06 465.66 0.25 465.66"/><line class="cls-7" x1="0.25" y1="465.66" x2="11.06" y2="465.66"/><line class="cls-7" x1="11.06" y1="457.53" x2="0.25" y2="457.53"/><polyline class="cls-8" points="354.7 467.27 354.7 465.66 365.51 465.66 365.51 467.27 354.7 467.27"/><polyline class="cls-8" points="354.7 465.66 354.7 457.53 365.51 457.53 365.51 465.66 354.7 465.66"/><line class="cls-7" x1="354.71" y1="467.27" x2="365.51" y2="467.27"/><line class="cls-7" x1="365.51" y1="457.53" x2="354.71" y2="457.53"/><polyline class="cls-8" points="356.87 518.68 356.87 525.18 343.87 525.18 343.87 518.68 356.87 518.68"/><polyline class="cls-8" points="363.35 518.68 363.35 525.18 356.87 525.18 356.87 518.68 363.35 518.68"/><line class="cls-7" x1="340.96" y1="525.18" x2="363.34" y2="525.18"/><line class="cls-7" x1="356.87" y1="518.68" x2="343.87" y2="518.68"/><line class="cls-7" x1="170.7" y1="525.18" x2="343.87" y2="525.18"/><line class="cls-7" x1="177.2" y1="518.68" x2="343.87" y2="518.68"/><line class="cls-7" x1="173.4" y1="522.48" x2="176.66" y2="522.48"/><line class="cls-7" x1="176.66" y1="522.48" x2="176.66" y2="525.18"/><line class="cls-7" x1="176.66" y1="525.18" x2="173.4" y2="525.18"/><line class="cls-7" x1="229.34" y1="525.18" x2="227.71" y2="525.18"/><line class="cls-7" x1="227.71" y1="525.18" x2="227.71" y2="522.48"/><line class="cls-7" x1="227.71" y1="522.48" x2="229.34" y2="522.48"/><line class="cls-7" x1="176.66" y1="522.48" x2="227.71" y2="522.48"/><line class="cls-7" x1="227.71" y1="525.18" x2="176.66" y2="525.18"/><line class="cls-7" x1="229.34" y1="522.48" x2="233.11" y2="522.48"/><line class="cls-7" x1="233.11" y1="522.48" x2="233.11" y2="525.18"/><line class="cls-7" x1="233.11" y1="525.18" x2="229.34" y2="525.18"/><line class="cls-7" x1="287.96" y1="525.18" x2="284.16" y2="525.18"/><line class="cls-7" x1="284.16" y1="525.18" x2="284.16" y2="522.48"/><line class="cls-7" x1="284.16" y1="522.48" x2="287.96" y2="522.48"/><line class="cls-7" x1="233.11" y1="522.48" x2="284.16" y2="522.48"/><line class="cls-7" x1="284.16" y1="525.18" x2="233.11" y2="525.18"/><line class="cls-7" x1="287.96" y1="522.48" x2="289.59" y2="522.48"/><line class="cls-7" x1="289.59" y1="522.48" x2="289.59" y2="525.18"/><line class="cls-7" x1="289.59" y1="525.18" x2="287.96" y2="525.18"/><line class="cls-7" x1="343.87" y1="525.18" x2="340.64" y2="525.18"/><line class="cls-7" x1="340.64" y1="525.18" x2="340.64" y2="522.48"/><line class="cls-7" x1="340.64" y1="522.48" x2="343.87" y2="522.48"/><line class="cls-7" x1="289.59" y1="522.48" x2="340.64" y2="522.48"/><line class="cls-7" x1="340.64" y1="525.18" x2="289.59" y2="525.18"/><line class="cls-7" x1="173.4" y1="522.48" x2="173.4" y2="526.25"/><line class="cls-7" x1="173.4" y1="526.25" x2="169.63" y2="526.25"/><line class="cls-7" x1="170.7" y1="525.18" x2="343.87" y2="525.18"/><line class="cls-7" x1="177.2" y1="518.68" x2="343.87" y2="518.68"/><line class="cls-7" x1="173.4" y1="522.48" x2="176.66" y2="522.48"/><line class="cls-7" x1="176.66" y1="522.48" x2="176.66" y2="525.18"/><line class="cls-7" x1="176.66" y1="525.18" x2="173.4" y2="525.18"/><line class="cls-7" x1="230.78" y1="525.18" x2="229.14" y2="525.18"/><line class="cls-7" x1="229.14" y1="525.18" x2="229.14" y2="522.48"/><line class="cls-7" x1="229.14" y1="522.48" x2="230.78" y2="522.48"/><line class="cls-7" x1="176.66" y1="522.48" x2="229.14" y2="522.48"/><line class="cls-7" x1="229.14" y1="525.18" x2="176.66" y2="525.18"/><line class="cls-7" x1="230.78" y1="522.48" x2="232.41" y2="522.48"/><line class="cls-7" x1="232.41" y1="522.48" x2="232.41" y2="525.18"/><line class="cls-7" x1="232.41" y1="525.18" x2="230.78" y2="525.18"/><line class="cls-7" x1="286.52" y1="525.18" x2="284.89" y2="525.18"/><line class="cls-7" x1="284.89" y1="525.18" x2="284.89" y2="522.48"/><line class="cls-7" x1="284.89" y1="522.48" x2="286.52" y2="522.48"/><line class="cls-7" x1="232.41" y1="522.48" x2="284.89" y2="522.48"/><line class="cls-7" x1="284.89" y1="525.18" x2="232.41" y2="525.18"/><line class="cls-7" x1="286.52" y1="522.48" x2="288.13" y2="522.48"/><line class="cls-7" x1="288.13" y1="522.48" x2="288.13" y2="525.18"/><line class="cls-7" x1="288.13" y1="525.18" x2="286.52" y2="525.18"/><line class="cls-7" x1="343.87" y1="525.18" x2="340.64" y2="525.18"/><line class="cls-7" x1="340.64" y1="525.18" x2="340.64" y2="522.48"/><line class="cls-7" x1="340.64" y1="522.48" x2="343.87" y2="522.48"/><line class="cls-7" x1="288.13" y1="522.48" x2="340.64" y2="522.48"/><line class="cls-7" x1="340.64" y1="525.18" x2="288.13" y2="525.18"/><line class="cls-7" x1="173.4" y1="522.48" x2="173.4" y2="526.25"/><line class="cls-7" x1="173.4" y1="526.25" x2="169.63" y2="526.25"/><polyline class="cls-8" points="11.06 465.66 11.06 457.53 24.59 457.53 24.59 465.66 11.06 465.66"/><polyline class="cls-8" points="143.65 465.66 143.65 457.53 170.7 457.53 170.7 465.66 143.65 465.66"/><polyline class="cls-8" points="11.06 446.7 32.72 446.7 32.72 457.53 11.06 457.53 11.06 446.7"/><polyline class="cls-8" points="135.52 457.53 135.52 446.7 170.7 446.7 170.7 457.53 135.52 457.53"/><polyline class="cls-8" points="24.59 465.66 24.59 457.53 32.72 457.53 32.72 465.66 24.59 465.66"/><polyline class="cls-8" points="143.65 465.66 135.52 465.66 135.52 457.53 143.65 457.53 143.65 465.66"/><line class="cls-7" x1="135.52" y1="457.53" x2="135.52" y2="465.66"/><line class="cls-7" x1="32.72" y1="457.53" x2="32.72" y2="465.66"/><line class="cls-7" x1="143.65" y1="465.66" x2="135.52" y2="465.66"/><line class="cls-7" x1="24.59" y1="465.66" x2="32.72" y2="465.66"/><line class="cls-7" x1="135.52" y1="454.83" x2="135.52" y2="446.7"/><line class="cls-7" x1="135.52" y1="457.53" x2="135.52" y2="454.83"/><line class="cls-7" x1="32.72" y1="454.83" x2="32.72" y2="446.7"/><line class="cls-7" x1="32.72" y1="457.53" x2="32.72" y2="454.83"/><line class="cls-7" x1="170.7" y1="446.7" x2="135.52" y2="446.7"/><line class="cls-7" x1="32.72" y1="446.7" x2="11.06" y2="446.7"/><line class="cls-7" x1="11.06" y1="457.53" x2="11.06" y2="446.7"/><line class="cls-7" x1="11.06" y1="465.66" x2="24.59" y2="465.66"/><line class="cls-7" x1="143.65" y1="465.66" x2="170.7" y2="465.66"/><line class="cls-7" x1="32.72" y1="465.66" x2="135.52" y2="465.66"/><line class="cls-7" x1="32.72" y1="446.7" x2="135.52" y2="446.7"/><polyline class="cls-8" points="32.72 454.83 38.13 454.83 38.13 457.53 32.72 457.53 32.72 454.83"/><polyline class="cls-8" points="84.11 457.53 80.34 457.53 80.34 454.83 84.11 454.83 84.11 457.53"/><polyline class="cls-8" points="84.11 454.83 87.91 454.83 87.91 457.53 84.11 457.53 84.11 454.83"/><polyline class="cls-8" points="135.52 457.53 130.12 457.53 130.12 454.83 135.52 454.83 135.52 457.53"/><line class="cls-7" x1="32.72" y1="454.83" x2="38.13" y2="454.83"/><line class="cls-7" x1="38.13" y1="454.83" x2="38.13" y2="457.53"/><line class="cls-7" x1="38.13" y1="457.53" x2="32.72" y2="457.53"/><line class="cls-7" x1="84.11" y1="457.53" x2="80.34" y2="457.53"/><line class="cls-7" x1="80.34" y1="457.53" x2="80.34" y2="454.83"/><line class="cls-7" x1="80.34" y1="454.83" x2="84.11" y2="454.83"/><line class="cls-7" x1="38.13" y1="454.83" x2="80.34" y2="454.83"/><line class="cls-7" x1="80.34" y1="457.53" x2="38.13" y2="457.53"/><line class="cls-7" x1="84.11" y1="454.83" x2="87.91" y2="454.83"/><line class="cls-7" x1="87.91" y1="454.83" x2="87.91" y2="457.53"/><line class="cls-7" x1="87.91" y1="457.53" x2="84.11" y2="457.53"/><line class="cls-7" x1="135.52" y1="457.53" x2="130.12" y2="457.53"/><line class="cls-7" x1="130.12" y1="457.53" x2="130.12" y2="454.83"/><line class="cls-7" x1="130.12" y1="454.83" x2="135.52" y2="454.83"/><line class="cls-7" x1="87.91" y1="454.83" x2="130.12" y2="454.83"/><line class="cls-7" x1="130.12" y1="457.53" x2="87.91" y2="457.53"/><line class="cls-7" x1="32.72" y1="457.53" x2="32.72" y2="454.83"/><line class="cls-7" x1="32.72" y1="457.53" x2="32.72" y2="454.83"/><line class="cls-7" x1="32.72" y1="454.83" x2="32.72" y2="446.7"/><line class="cls-7" x1="135.52" y1="457.53" x2="135.52" y2="454.83"/><line class="cls-7" x1="135.52" y1="457.53" x2="135.52" y2="454.83"/><line class="cls-7" x1="135.52" y1="454.83" x2="135.52" y2="446.7"/><line class="cls-7" x1="32.72" y1="457.53" x2="32.72" y2="465.66"/><line class="cls-7" x1="32.72" y1="457.53" x2="32.72" y2="465.66"/><line class="cls-7" x1="135.52" y1="457.53" x2="135.52" y2="465.66"/><line class="cls-7" x1="135.52" y1="457.53" x2="135.52" y2="465.66"/><polyline class="cls-8" points="363.35 518.68 356.87 518.68 356.87 467.27 363.35 467.27 363.35 518.68"/><line class="cls-7" x1="363.34" y1="525.18" x2="363.34" y2="467.27"/><line class="cls-7" x1="363.34" y1="467.27" x2="356.87" y2="467.27"/><line class="cls-7" x1="356.87" y1="467.27" x2="356.87" y2="518.68"/><line class="cls-7" x1="365.51" y1="457.53" x2="365.51" y2="446.7"/><line class="cls-7" x1="282.72" y1="165.29" x2="339.54" y2="165.29"/><line class="cls-7" x1="339.54" y1="165.29" x2="339.54" y2="116.61"/><line class="cls-7" x1="339.54" y1="116.61" x2="250.78" y2="116.61"/><line class="cls-7" x1="250.78" y1="116.61" x2="250.78" y2="186.4"/><line class="cls-7" x1="250.78" y1="186.4" x2="282.72" y2="186.4"/><line class="cls-7" x1="282.72" y1="186.4" x2="282.72" y2="165.29"/><line class="cls-7" x1="354.71" y1="11.08" x2="250.78" y2="11.08"/><line class="cls-7" x1="250.78" y1="11.08" x2="250.78" y2="112.28"/><line class="cls-7" x1="250.78" y1="112.28" x2="354.71" y2="112.28"/><line class="cls-7" x1="354.71" y1="112.28" x2="354.71" y2="11.08"/><line class="cls-7" x1="365.51" y1="11.08" x2="365.51" y2="11.08"/><line class="cls-7" x1="365.51" y1="112.28" x2="365.51" y2="11.08"/><polyline class="cls-8" points="11.06 168.02 0.25 157.19 59.77 157.19 59.77 168.02 11.06 168.02"/><line class="cls-7" x1="11.06" y1="168.02" x2="59.77" y2="168.02"/><line class="cls-7" x1="59.77" y1="168.02" x2="59.77" y2="157.19"/><line class="cls-7" x1="59.77" y1="157.19" x2="0.25" y2="157.19"/><polyline class="cls-8" points="0.25 157.19 11.06 168.02 11.06 216.71 0.25 216.71 0.25 157.19"/><line class="cls-7" x1="0.25" y1="157.19" x2="0.25" y2="216.71"/><line class="cls-7" x1="11.06" y1="216.71" x2="0.25" y2="216.71"/><line class="cls-7" x1="11.06" y1="216.71" x2="11.06" y2="168.02"/><polyline class="cls-8" points="11.06 457.53 0.25 457.53 0.25 398.01 11.06 398.01 11.06 457.53"/><line class="cls-7" x1="11.06" y1="457.53" x2="11.06" y2="398.01"/><line class="cls-7" x1="11.06" y1="398.01" x2="0.25" y2="398.01"/><line class="cls-7" x1="0.25" y1="398.01" x2="0.25" y2="465.66"/><line class="cls-7" x1="11.06" y1="457.53" x2="0.25" y2="457.53"/><polyline class="cls-8" points="365.51 457.53 354.7 457.53 354.7 398.01 365.51 398.01 365.51 457.53"/><line class="cls-7" x1="365.51" y1="467.25" x2="365.51" y2="398.01"/><line class="cls-7" x1="365.51" y1="398.01" x2="354.71" y2="398.01"/><line class="cls-7" x1="354.71" y1="398.01" x2="354.71" y2="457.53"/><line class="cls-7" x1="365.51" y1="457.53" x2="354.71" y2="457.53"/><polyline class="cls-8" points="365.51 216.71 354.7 216.71 354.7 103.07 365.51 103.07 365.51 216.71"/><line class="cls-7" x1="365.51" y1="216.71" x2="365.51" y2="103.07"/><line class="cls-7" x1="365.51" y1="103.07" x2="354.71" y2="103.07"/><line class="cls-7" x1="354.71" y1="103.07" x2="354.71" y2="216.71"/><line class="cls-7" x1="365.51" y1="216.71" x2="354.71" y2="216.71"/><polyline class="cls-8" points="354.7 186.4 354.7 190.73 246.48 190.73 250.78 186.4 354.7 186.4"/><line class="cls-7" x1="354.71" y1="186.4" x2="287.06" y2="186.4"/><line class="cls-7" x1="282.72" y1="186.4" x2="250.78" y2="186.4"/><line class="cls-7" x1="246.48" y1="190.73" x2="354.71" y2="190.73"/><line class="cls-7" x1="354.71" y1="190.73" x2="354.71" y2="186.4"/><polyline class="cls-8" points="250.78 157.19 250.78 186.4 246.48 190.73 246.48 157.19 250.78 157.19"/><polyline class="cls-8" points="250.78 11.08 250.78 46.26 246.48 46.26 246.48 11.08 250.78 11.08"/><polyline class="cls-8" points="246.48 119.31 246.48 84.14 250.78 84.14 250.78 119.31 246.48 119.31"/><line class="cls-7" x1="250.78" y1="119.31" x2="246.48" y2="119.31"/><line class="cls-7" x1="250.78" y1="157.19" x2="246.48" y2="157.19"/><line class="cls-7" x1="246.48" y1="84.14" x2="250.78" y2="84.14"/><line class="cls-7" x1="246.48" y1="46.26" x2="250.78" y2="46.26"/><line class="cls-7" x1="250.78" y1="186.4" x2="250.78" y2="157.19"/><line class="cls-7" x1="250.78" y1="119.31" x2="250.78" y2="116.61"/><line class="cls-7" x1="250.78" y1="112.28" x2="250.78" y2="84.14"/><line class="cls-7" x1="250.78" y1="46.26" x2="250.78" y2="11.08"/><line class="cls-7" x1="246.48" y1="11.08" x2="250.78" y2="11.08"/><line class="cls-7" x1="246.48" y1="11.08" x2="246.48" y2="46.26"/><line class="cls-7" x1="246.48" y1="84.14" x2="246.48" y2="119.31"/><line class="cls-7" x1="246.48" y1="157.19" x2="246.48" y2="190.73"/><line class="cls-7" x1="246.48" y1="121.48" x2="246.48" y2="155.02"/><line class="cls-7" x1="250.78" y1="155.02" x2="250.78" y2="121.48"/><path class="cls-7" d="M312.7,167.51a33.57,33.57,0,0,1-33.57,33.55" transform="translate(-28.34 -46.04)"/><polyline class="cls-8" points="246.48 157.19 246.48 155.02 250.78 155.02 250.78 157.19 246.48 157.19"/><polyline class="cls-8" points="250.78 119.31 250.78 121.48 246.48 121.48 246.48 119.31 250.78 119.31"/><line class="cls-7" x1="246.48" y1="157.19" x2="246.48" y2="155.02"/><line class="cls-7" x1="246.48" y1="155.02" x2="250.78" y2="155.02"/><line class="cls-7" x1="250.78" y1="155.02" x2="250.78" y2="157.19"/><line class="cls-7" x1="250.78" y1="157.19" x2="246.48" y2="157.19"/><line class="cls-7" x1="250.78" y1="119.31" x2="250.78" y2="121.48"/><line class="cls-7" x1="250.78" y1="121.48" x2="246.48" y2="121.48"/><line class="cls-7" x1="246.48" y1="121.48" x2="246.48" y2="119.31"/><line class="cls-7" x1="246.48" y1="119.31" x2="250.78" y2="119.31"/><line class="cls-7" x1="250.78" y1="121.48" x2="284.35" y2="121.48"/><line class="cls-7" x1="250.78" y1="157.19" x2="246.48" y2="157.19"/><line class="cls-7" x1="250.78" y1="157.19" x2="246.48" y2="157.19"/><line class="cls-7" x1="250.78" y1="119.31" x2="246.48" y2="119.31"/><line class="cls-7" x1="250.78" y1="119.31" x2="246.48" y2="119.31"/><line class="cls-7" x1="250.78" y1="81.97" x2="250.78" y2="48.43"/><line class="cls-7" x1="246.48" y1="48.43" x2="246.48" y2="81.97"/><path class="cls-7" d="M241.25,128a33.54,33.54,0,0,1,33.57-33.54" transform="translate(-28.34 -46.04)"/><polyline class="cls-8" points="250.78 46.26 250.78 48.43 246.48 48.43 246.48 46.26 250.78 46.26"/><polyline class="cls-8" points="246.48 84.14 246.48 81.97 250.78 81.97 250.78 84.14 246.48 84.14"/><line class="cls-7" x1="250.78" y1="46.26" x2="250.78" y2="48.43"/><line class="cls-7" x1="250.78" y1="48.43" x2="246.48" y2="48.43"/><line class="cls-7" x1="246.48" y1="48.43" x2="246.48" y2="46.26"/><line class="cls-7" x1="246.48" y1="46.26" x2="250.78" y2="46.26"/><line class="cls-7" x1="246.48" y1="84.14" x2="246.48" y2="81.97"/><line class="cls-7" x1="246.48" y1="81.97" x2="250.78" y2="81.97"/><line class="cls-7" x1="250.78" y1="81.97" x2="250.78" y2="84.14"/><line class="cls-7" x1="250.78" y1="84.14" x2="246.48" y2="84.14"/><line class="cls-7" x1="246.48" y1="81.97" x2="212.91" y2="81.97"/><line class="cls-7" x1="246.48" y1="46.26" x2="250.78" y2="46.26"/><line class="cls-7" x1="246.48" y1="46.26" x2="250.78" y2="46.26"/><line class="cls-7" x1="246.48" y1="84.14" x2="250.78" y2="84.14"/><line class="cls-7" x1="246.48" y1="84.14" x2="250.78" y2="84.14"/><polyline class="cls-8" points="287.06 186.4 282.72 186.4 282.72 165.29 287.06 169.63 287.06 186.4"/><line class="cls-7" x1="287.06" y1="186.4" x2="287.06" y2="169.63"/><line class="cls-7" x1="282.72" y1="165.29" x2="282.72" y2="186.4"/><polyline class="cls-8" points="287.06 169.63 282.72 165.29 354.7 165.29 354.7 169.63 287.06 169.63"/><line class="cls-7" x1="287.06" y1="169.63" x2="354.71" y2="169.63"/><line class="cls-7" x1="354.71" y1="165.29" x2="354.71" y2="169.63"/><line class="cls-7" x1="354.71" y1="165.29" x2="282.72" y2="165.29"/><polyline class="cls-8" points="341.03 165.29 339.68 165.29 339.68 116.61 341.03 116.61 341.03 165.29"/><line class="cls-7" x1="341.03" y1="165.29" x2="341.03" y2="116.61"/><line class="cls-7" x1="339.68" y1="116.61" x2="341.03" y2="116.61"/><line class="cls-7" x1="339.68" y1="116.61" x2="339.68" y2="165.29"/><line class="cls-7" x1="339.68" y1="165.29" x2="341.03" y2="165.29"/><polyline class="cls-8" points="250.78 116.61 250.78 112.28 354.7 112.28 354.7 116.61 250.78 116.61"/><line class="cls-7" x1="250.78" y1="116.61" x2="354.71" y2="116.61"/><line class="cls-7" x1="354.71" y1="112.28" x2="354.71" y2="116.61"/><line class="cls-7" x1="354.71" y1="112.28" x2="250.78" y2="112.28"/><line class="cls-7" x1="365.51" y1="190.73" x2="365.51" y2="186.4"/><line class="cls-7" x1="365.51" y1="165.29" x2="365.51" y2="169.63"/><line class="cls-7" x1="365.51" y1="112.28" x2="365.51" y2="116.61"/><polyline class="cls-8" points="113.49 0.25 186.93 0.25 186.93 11.08 124.29 11.08 113.49 0.25"/><line x1="365.51" y1="11.08" x2="243.75" y2="11.08"/><polyline class="cls-8" points="243.75 11.08 243.75 0.25 365.51 0.25"/><line class="cls-7" x1="186.93" y1="11.08" x2="186.93" y2="0.25"/><line class="cls-7" x1="243.75" y1="11.08" x2="243.75" y2="0.25"/><line class="cls-7" x1="124.29" y1="11.08" x2="181.11" y2="11.08"/><line class="cls-7" x1="185.44" y1="11.08" x2="186.93" y2="11.08"/><line class="cls-7" x1="243.75" y1="11.08" x2="354.71" y2="11.08"/><line class="cls-7" x1="365.51" y1="11.08" x2="365.51" y2="11.08"/><line class="cls-7" x1="365.51" y1="0.25" x2="243.75" y2="0.25"/><line class="cls-7" x1="268.54" y1="0.25" x2="113.49" y2="0.25"/><line class="cls-7" x1="268.54" y1="11.08" x2="113.49" y2="11.08"/><path class="cls-7" d="M270,57.12a52.5,52.5,0,0,1-52.51,52.48" transform="translate(-28.34 -46.04)"/><polyline class="cls-8" points="243.75 0.25 243.75 11.08 241.61 11.08 241.61 0.25 243.75 0.25"/><polyline class="cls-8" points="186.93 11.08 186.93 0.25 189.1 0.25 189.1 11.08 186.93 11.08"/><line class="cls-7" x1="243.75" y1="0.25" x2="241.61" y2="0.25"/><line class="cls-7" x1="241.61" y1="0.25" x2="241.61" y2="11.08"/><line class="cls-7" x1="241.61" y1="11.08" x2="243.75" y2="11.08"/><line class="cls-7" x1="243.75" y1="11.08" x2="243.75" y2="0.25"/><line class="cls-7" x1="186.93" y1="11.08" x2="189.1" y2="11.08"/><line class="cls-7" x1="189.1" y1="11.08" x2="189.1" y2="0.25"/><line class="cls-7" x1="189.1" y1="0.25" x2="186.93" y2="0.25"/><line class="cls-7" x1="186.93" y1="0.25" x2="186.93" y2="11.08"/><line class="cls-7" x1="189.1" y1="11.08" x2="189.1" y2="63.57"/><line class="cls-7" x1="243.75" y1="11.08" x2="243.75" y2="0.25"/><line class="cls-7" x1="243.75" y1="11.08" x2="243.75" y2="0.25"/><line class="cls-7" x1="186.93" y1="11.08" x2="186.93" y2="0.25"/><line class="cls-7" x1="186.93" y1="11.08" x2="186.93" y2="0.25"/><polyline class="cls-8" points="113.49 0.25 124.29 11.08 124.29 157.19 113.49 157.19 113.49 0.25"/><line class="cls-7" x1="113.49" y1="0.25" x2="113.49" y2="157.19"/><line class="cls-7" x1="124.29" y1="157.19" x2="124.29" y2="11.08"/><polyline class="cls-8" points="135.52 157.19 135.52 168.02 59.77 168.02 59.77 157.19 135.52 157.19"/><line class="cls-7" x1="135.52" y1="157.19" x2="124.29" y2="157.19"/><line class="cls-7" x1="113.49" y1="157.19" x2="59.77" y2="157.19"/><line class="cls-7" x1="59.77" y1="157.19" x2="59.77" y2="168.02"/><line class="cls-7" x1="59.77" y1="168.02" x2="135.52" y2="168.02"/><line class="cls-7" x1="135.52" y1="157.19" x2="135.52" y2="168.02"/><polyline class="cls-8" points="0.25 216.71 11.06 216.71 11.06 398.01 0.25 398.01 0.25 216.71"/><line class="cls-7" x1="0.25" y1="216.71" x2="0.25" y2="398.01"/><line class="cls-7" x1="0.25" y1="398.01" x2="11.06" y2="398.01"/><line class="cls-7" x1="11.06" y1="398.01" x2="11.06" y2="216.71"/><line class="cls-7" x1="0.25" y1="216.71" x2="11.06" y2="216.71"/><polyline class="cls-8" points="365.51 398.01 354.7 398.01 354.7 216.71 365.51 216.71 365.51 398.01"/><line class="cls-7" x1="365.51" y1="398.01" x2="365.51" y2="216.71"/><line class="cls-7" x1="365.51" y1="216.71" x2="354.71" y2="216.71"/><line class="cls-7" x1="354.71" y1="216.71" x2="354.71" y2="398.01"/><line class="cls-7" x1="365.51" y1="398.01" x2="354.71" y2="398.01"/><polyline class="cls-8" points="365.51 103.07 354.7 103.07 354.7 11.08 365.51 11.08 365.51 103.07"/><line class="cls-7" x1="365.51" y1="103.07" x2="365.51" y2="11.08"/><line class="cls-7" x1="354.71" y1="11.08" x2="354.71" y2="103.07"/><line class="cls-7" x1="365.51" y1="103.07" x2="354.71" y2="103.07"/><line class="cls-7" x1="173.4" y1="0.25" x2="184.23" y2="0.25"/><line class="cls-7" x1="173.4" y1="0.25" x2="184.23" y2="0.25"/><line class="cls-7" x1="173.4" y1="0.25" x2="184.23" y2="0.25"/><line class="cls-7" x1="173.4" y1="0.25" x2="184.23" y2="0.25"/><polyline class="cls-8" points="181.11 11.08 185.44 11.08 185.44 46.26 181.11 46.26 181.11 11.08"/><line class="cls-7" x1="181.11" y1="11.08" x2="181.11" y2="46.26"/><line class="cls-7" x1="185.44" y1="46.26" x2="181.11" y2="46.26"/><line class="cls-7" x1="185.44" y1="46.26" x2="185.44" y2="11.08"/><polyline class="cls-8" points="346.85 160.42 347.81 160.82 348.2 161.78 347.81 162.73 346.85 163.15 345.9 162.73 345.5 161.78 345.9 160.82 346.85 160.42"/><line class="cls-7" x1="346.85" y1="160.42" x2="347.81" y2="160.82"/><line class="cls-7" x1="347.81" y1="160.82" x2="348.2" y2="161.77"/><line class="cls-7" x1="348.2" y1="161.77" x2="347.81" y2="162.73"/><line class="cls-7" x1="347.81" y1="162.73" x2="346.85" y2="163.15"/><line class="cls-7" x1="346.85" y1="163.15" x2="345.9" y2="162.73"/><line class="cls-7" x1="345.9" y1="162.73" x2="345.5" y2="161.77"/><line class="cls-7" x1="345.5" y1="161.77" x2="345.9" y2="160.82"/><line class="cls-7" x1="345.9" y1="160.82" x2="346.85" y2="160.42"/><polyline class="cls-8" points="346.85 149.62 347.81 150.01 348.2 150.97 347.81 151.93 346.85 152.32 345.9 151.93 345.5 150.97 345.9 150.01 346.85 149.62"/><line class="cls-7" x1="346.85" y1="149.62" x2="347.81" y2="150.01"/><line class="cls-7" x1="347.81" y1="150.01" x2="348.2" y2="150.97"/><line class="cls-7" x1="348.2" y1="150.97" x2="347.81" y2="151.93"/><line class="cls-7" x1="347.81" y1="151.93" x2="346.85" y2="152.32"/><line class="cls-7" x1="346.85" y1="152.32" x2="345.9" y2="151.93"/><line class="cls-7" x1="345.9" y1="151.93" x2="345.5" y2="150.97"/><line class="cls-7" x1="345.5" y1="150.97" x2="345.9" y2="150.01"/><line class="cls-7" x1="345.9" y1="150.01" x2="346.85" y2="149.62"/><path class="cls-8" d="M370.44,186.17l.76,1.86,1.83.76,1.83-.76.76-1.86-.76-1.83-1.83-.76-1.83.76-.76,1.83m-.11,0,.79-1.91,1.91-.79,1.91.79.79,1.91-.79,1.91-1.91.79-1.91-.79-.79-1.91" transform="translate(-28.34 -46.04)"/><polyline class="cls-8" points="342.1 140.13 342.86 138.31 344.69 137.55 346.52 138.31 347.28 140.13 346.52 141.99 344.69 142.75 342.86 141.99 342.1 140.13"/><line class="cls-7" x1="341.99" y1="140.14" x2="342.77" y2="142.05"/><line class="cls-7" x1="342.77" y1="142.05" x2="344.69" y2="142.84"/><line class="cls-7" x1="344.69" y1="142.84" x2="346.6" y2="142.05"/><line class="cls-7" x1="346.6" y1="142.05" x2="347.39" y2="140.14"/><line class="cls-7" x1="347.39" y1="140.14" x2="346.6" y2="138.22"/><line class="cls-7" x1="346.6" y1="138.22" x2="344.69" y2="137.43"/><line class="cls-7" x1="344.69" y1="137.43" x2="342.77" y2="138.22"/><line class="cls-7" x1="342.77" y1="138.22" x2="341.99" y2="140.14"/><line class="cls-7" x1="333.07" y1="171.26" x2="333.07" y2="184.79"/><line class="cls-7" x1="333.07" y1="184.79" x2="300.59" y2="184.79"/><line class="cls-7" x1="300.59" y1="184.79" x2="300.59" y2="171.26"/><line class="cls-7" x1="300.59" y1="171.26" x2="333.07" y2="171.26"/><polyline class="cls-8" points="345.5 129.33 345.9 128.37 346.85 127.98 347.81 128.37 348.2 129.33 347.81 130.29 346.85 130.68 345.9 130.29 345.5 129.33"/><line class="cls-7" x1="345.5" y1="129.33" x2="345.9" y2="128.37"/><line class="cls-7" x1="345.9" y1="128.37" x2="346.85" y2="127.98"/><line class="cls-7" x1="346.85" y1="127.98" x2="347.81" y2="128.37"/><line class="cls-7" x1="347.81" y1="128.37" x2="348.2" y2="129.33"/><line class="cls-7" x1="348.2" y1="129.33" x2="347.81" y2="130.29"/><line class="cls-7" x1="347.81" y1="130.29" x2="346.85" y2="130.68"/><line class="cls-7" x1="346.85" y1="130.68" x2="345.9" y2="130.29"/><line class="cls-7" x1="345.9" y1="130.29" x2="345.5" y2="129.33"/><line class="cls-7" x1="362.27" y1="452.13" x2="346.04" y2="452.13"/><line class="cls-7" x1="199.91" y1="452.13" x2="183.67" y2="452.13"/><line class="cls-7" x1="317.79" y1="131.5" x2="315" y2="131.78"/><line class="cls-7" x1="320.6" y1="131.58" x2="317.79" y2="131.5"/><line class="cls-7" x1="339.54" y1="133.32" x2="320.6" y2="131.58"/><line class="cls-7" x1="339.54" y1="148.58" x2="339.54" y2="133.32"/><line class="cls-7" x1="320.6" y1="150.32" x2="339.54" y2="148.58"/><line class="cls-7" x1="317.79" y1="150.41" x2="320.6" y2="150.32"/><line class="cls-7" x1="315" y1="150.13" x2="317.79" y2="150.41"/><line class="cls-7" x1="312.33" y1="149.45" x2="315" y2="150.13"/><line class="cls-7" x1="309.77" y1="148.41" x2="312.33" y2="149.45"/><line class="cls-7" x1="307.77" y1="147.03" x2="309.77" y2="148.41"/><line class="cls-7" x1="306.22" y1="145.26" x2="307.77" y2="147.03"/><line class="cls-7" x1="305.26" y1="143.17" x2="306.22" y2="145.26"/><line class="cls-7" x1="304.93" y1="140.95" x2="305.26" y2="143.17"/><line class="cls-7" x1="305.26" y1="138.73" x2="304.93" y2="140.95"/><line class="cls-7" x1="306.22" y1="136.65" x2="305.26" y2="138.73"/><line class="cls-7" x1="307.77" y1="134.87" x2="306.22" y2="136.65"/><line class="cls-7" x1="309.77" y1="133.49" x2="307.77" y2="134.87"/><line class="cls-7" x1="312.33" y1="132.45" x2="309.77" y2="133.49"/><line class="cls-7" x1="315" y1="131.78" x2="312.33" y2="132.45"/><line class="cls-7" x1="334.95" y1="131.75" x2="334.95" y2="150.15"/><line class="cls-7" x1="335.01" y1="131.13" x2="334.95" y2="131.75"/><line class="cls-7" x1="335.18" y1="130.6" x2="335.01" y2="131.13"/><line class="cls-7" x1="335.46" y1="130.26" x2="335.18" y2="130.6"/><line class="cls-7" x1="335.77" y1="130.12" x2="335.46" y2="130.26"/><line class="cls-7" x1="338.72" y1="130.12" x2="335.77" y2="130.12"/><line class="cls-7" x1="339.03" y1="130.26" x2="338.72" y2="130.12"/><line class="cls-7" x1="339.31" y1="130.6" x2="339.03" y2="130.26"/><line class="cls-7" x1="339.48" y1="131.13" x2="339.31" y2="130.6"/><line class="cls-7" x1="339.54" y1="131.75" x2="339.48" y2="131.13"/><line class="cls-7" x1="339.54" y1="150.15" x2="339.54" y2="131.75"/><line class="cls-7" x1="339.48" y1="150.77" x2="339.54" y2="150.15"/><line class="cls-7" x1="339.31" y1="151.31" x2="339.48" y2="150.77"/><line class="cls-7" x1="339.03" y1="151.64" x2="339.31" y2="151.31"/><line class="cls-7" x1="338.72" y1="151.79" x2="339.03" y2="151.64"/><line class="cls-7" x1="335.77" y1="151.79" x2="338.72" y2="151.79"/><line class="cls-7" x1="335.46" y1="151.64" x2="335.77" y2="151.79"/><line class="cls-7" x1="335.18" y1="151.31" x2="335.46" y2="151.64"/><line class="cls-7" x1="335.01" y1="150.77" x2="335.18" y2="151.31"/><line class="cls-7" x1="334.95" y1="150.15" x2="335.01" y2="150.77"/><path class="cls-7" d="M281.91,231.36a.81.81,0,0,1-.81-.81" transform="translate(-28.34 -46.04)"/><line class="cls-7" x1="252.75" y1="169.91" x2="252.75" y2="184.51"/><path class="cls-7" d="M281.1,215.94a.81.81,0,0,1,.81-.81" transform="translate(-28.34 -46.04)"/><line class="cls-7" x1="279.01" y1="169.09" x2="253.57" y2="169.09"/><path class="cls-7" d="M307.35,215.13a.82.82,0,0,1,.82.81" transform="translate(-28.34 -46.04)"/><line class="cls-7" x1="279.82" y1="184.51" x2="279.82" y2="169.91"/><path class="cls-7" d="M308.17,230.55a.82.82,0,0,1-.82.81" transform="translate(-28.34 -46.04)"/><line class="cls-7" x1="253.57" y1="185.33" x2="279.01" y2="185.33"/><line class="cls-7" x1="348.2" y1="143.93" x2="348.2" y2="136.36"/><line class="cls-7" x1="341.17" y1="143.93" x2="348.2" y2="143.93"/><line class="cls-7" x1="347.5" y1="143.17" x2="341.17" y2="143.93"/><line class="cls-7" x1="348.2" y1="136.36" x2="347.5" y2="143.17"/><line class="cls-7" x1="348.2" y1="136.36" x2="341.17" y2="136.36"/><line class="cls-7" x1="341.17" y1="136.36" x2="341.17" y2="143.93"/><line class="cls-7" x1="265.92" y1="98.21" x2="265.92" y2="110.64"/><path class="cls-7" d="M294.8,157.21a.53.53,0,0,1-.53-.53" transform="translate(-28.34 -46.04)"/><line class="cls-7" x1="266.46" y1="111.18" x2="266.46" y2="111.18"/><line class="cls-7" x1="266.46" y1="111.18" x2="283.79" y2="111.18"/><line class="cls-7" x1="283.79" y1="111.18" x2="301.1" y2="111.18"/><path class="cls-7" d="M330,156.68a.52.52,0,0,1-.54.53" transform="translate(-28.34 -46.04)"/><line class="cls-7" x1="301.63" y1="110.64" x2="301.63" y2="110.64"/><line class="cls-7" x1="301.63" y1="110.64" x2="301.63" y2="98.21"/><path class="cls-7" d="M324.77,135a10.71,10.71,0,0,1,5.21,9.2" transform="translate(-28.34 -46.04)"/><line class="cls-7" x1="296.43" y1="89" x2="296.43" y2="89"/><path class="cls-7" d="M312.13,131.24a22.92,22.92,0,0,1,12.64,3.8" transform="translate(-28.34 -46.04)"/><line class="cls-7" x1="283.79" y1="85.21" x2="283.79" y2="85.21"/><path class="cls-7" d="M299.5,135a22.84,22.84,0,0,1,12.63-3.8" transform="translate(-28.34 -46.04)"/><line class="cls-7" x1="271.16" y1="89" x2="271.16" y2="89"/><path class="cls-7" d="M294.27,144.24a10.73,10.73,0,0,1,5.23-9.2" transform="translate(-28.34 -46.04)"/><line class="cls-7" x1="265.92" y1="98.21" x2="265.92" y2="98.21"/><line class="cls-7" x1="312.49" y1="111.18" x2="353.07" y2="111.18"/><line class="cls-7" x1="312.49" y1="19.19" x2="312.49" y2="111.18"/><line class="cls-7" x1="353.07" y1="19.19" x2="312.49" y2="19.19"/><line class="cls-7" x1="353.07" y1="111.18" x2="353.07" y2="19.19"/><line class="cls-7" x1="284.89" y1="13.25" x2="252.42" y2="13.25"/><line class="cls-7" x1="284.89" y1="45.7" x2="284.89" y2="13.25"/><line class="cls-7" x1="252.42" y1="45.7" x2="284.89" y2="45.7"/><line class="cls-7" x1="252.42" y1="13.25" x2="252.42" y2="45.7"/><line class="cls-7" x1="353.61" y1="289.22" x2="321.13" y2="289.22"/><line class="cls-7" x1="353.61" y1="321.7" x2="353.61" y2="289.22"/><line class="cls-7" x1="321.13" y1="321.7" x2="353.61" y2="321.7"/><line class="cls-7" x1="321.13" y1="289.22" x2="321.13" y2="321.7"/><line class="cls-7" x1="353.61" y1="289.22" x2="321.13" y2="289.22"/><line class="cls-7" x1="353.61" y1="321.7" x2="353.61" y2="289.22"/><line class="cls-7" x1="321.13" y1="321.7" x2="353.61" y2="321.7"/><line class="cls-7" x1="321.13" y1="289.22" x2="321.13" y2="321.7"/><line class="cls-7" x1="350.65" y1="289.79" x2="324.12" y2="289.79"/><line class="cls-7" x1="350.65" y1="321.16" x2="350.65" y2="289.79"/><line class="cls-7" x1="324.12" y1="321.16" x2="350.65" y2="321.16"/><line class="cls-7" x1="324.12" y1="289.79" x2="324.12" y2="321.16"/><path class="cls-7" d="M376.94,342.88A3.93,3.93,0,1,0,373,346.8a3.93,3.93,0,0,0,3.91-3.92" transform="translate(-28.34 -46.04)"/><path class="cls-7" d="M366.11,344.66a5.69,5.69,0,1,0-5.69,5.68,5.71,5.71,0,0,0,5.69-5.68" transform="translate(-28.34 -46.04)"/><path class="cls-7" d="M376.86,359.35a4.87,4.87,0,1,0-4.87,4.86,4.89,4.89,0,0,0,4.87-4.86" transform="translate(-28.34 -46.04)"/><path class="cls-7" d="M363.55,360.44a3.93,3.93,0,1,0-3.91,3.94,3.91,3.91,0,0,0,3.91-3.94" transform="translate(-28.34 -46.04)"/><line class="cls-7" x1="325.21" y1="244.84" x2="325.21" y2="203.73"/><path class="cls-7" d="M353.56,249.77a1.1,1.1,0,0,1,1.07-1.1" transform="translate(-28.34 -46.04)"/><line class="cls-7" x1="326.28" y1="202.63" x2="351.19" y2="202.63"/><path class="cls-7" d="M379.53,248.67a1.1,1.1,0,0,1,1.07,1.1" transform="translate(-28.34 -46.04)"/><line class="cls-7" x1="352.26" y1="203.73" x2="352.26" y2="244.84"/><path class="cls-7" d="M380.6,290.88a1.08,1.08,0,0,1-1.07,1.1" transform="translate(-28.34 -46.04)"/><line class="cls-7" x1="351.19" y1="245.94" x2="326.28" y2="245.94"/><path class="cls-7" d="M354.63,292a1.08,1.08,0,0,1-1.07-1.1" transform="translate(-28.34 -46.04)"/><line class="cls-7" x1="321.13" y1="256.75" x2="321.13" y2="191.83"/><line class="cls-7" x1="353.61" y1="256.75" x2="353.61" y2="191.83"/><line class="cls-7" x1="321.13" y1="256.75" x2="353.61" y2="256.75"/><line class="cls-7" x1="321.13" y1="191.83" x2="353.61" y2="191.83"/><line class="cls-7" x1="327.92" y1="242.14" x2="327.92" y2="226.19"/><line class="cls-7" x1="328.98" y1="225.09" x2="345.76" y2="225.09"/><line class="cls-7" x1="346.85" y1="226.19" x2="346.85" y2="242.14"/><line class="cls-7" x1="345.76" y1="243.24" x2="328.98" y2="243.24"/><line class="cls-7" x1="327.92" y1="242.14" x2="327.92" y2="242.14"/><line class="cls-7" x1="327.92" y1="222.39" x2="327.92" y2="206.43"/><line class="cls-7" x1="328.98" y1="205.36" x2="345.76" y2="205.36"/><line class="cls-7" x1="346.85" y1="206.43" x2="346.85" y2="222.39"/><line class="cls-7" x1="345.76" y1="223.49" x2="328.98" y2="223.49"/><line class="cls-7" x1="327.92" y1="222.39" x2="327.92" y2="222.39"/><path class="cls-7" d="M356.26,272.22a1.09,1.09,0,0,1,1.07-1.09" transform="translate(-28.34 -46.04)"/><path class="cls-7" d="M374.1,271.13a1.09,1.09,0,0,1,1.1,1.09" transform="translate(-28.34 -46.04)"/><path class="cls-7" d="M375.2,288.18a1.1,1.1,0,0,1-1.1,1.1" transform="translate(-28.34 -46.04)"/><path class="cls-7" d="M357.33,289.28a1.1,1.1,0,0,1-1.07-1.1" transform="translate(-28.34 -46.04)"/><path class="cls-7" d="M356.26,252.47a1.07,1.07,0,0,1,1.07-1.07" transform="translate(-28.34 -46.04)"/><path class="cls-7" d="M374.1,251.4a1.08,1.08,0,0,1,1.1,1.07" transform="translate(-28.34 -46.04)"/><path class="cls-7" d="M375.2,268.43a1.08,1.08,0,0,1-1.1,1.09" transform="translate(-28.34 -46.04)"/><path class="cls-7" d="M357.33,269.52a1.08,1.08,0,0,1-1.07-1.09" transform="translate(-28.34 -46.04)"/><path class="cls-7" d="M368.27,270.82a.47.47,0,0,1-.47-.48.48.48,0,0,1,.47-.51h0" transform="translate(-28.34 -46.04)"/><line class="cls-7" x1="339.93" y1="223.8" x2="350.65" y2="223.8"/><path class="cls-7" d="M379,269.83a.5.5,0,0,1,.47.51.49.49,0,0,1-.47.48" transform="translate(-28.34 -46.04)"/><line class="cls-7" x1="350.65" y1="224.78" x2="339.93" y2="224.78"/><line class="cls-7" x1="347.87" y1="225.37" x2="347.87" y2="224.78"/><line class="cls-7" x1="347.87" y1="224.78" x2="350.65" y2="224.78"/><path class="cls-7" d="M379,269.83a.5.5,0,0,1,.47.51.49.49,0,0,1-.47.48" transform="translate(-28.34 -46.04)"/><line class="cls-7" x1="350.65" y1="223.8" x2="347.87" y2="223.8"/><line class="cls-7" x1="347.87" y1="223.8" x2="347.87" y2="223.21"/><line class="cls-7" x1="347.87" y1="223.21" x2="351.38" y2="223.21"/><line class="cls-7" x1="351.38" y1="223.21" x2="351.38" y2="225.37"/><line class="cls-7" x1="351.38" y1="225.37" x2="347.87" y2="225.37"/><line class="cls-7" x1="345.93" y1="225.37" x2="345.93" y2="224.78"/><line class="cls-7" x1="345.93" y1="224.78" x2="347.84" y2="224.78"/><line class="cls-7" x1="347.84" y1="224.78" x2="347.84" y2="225.37"/><line class="cls-7" x1="347.84" y1="225.37" x2="345.93" y2="225.37"/><line class="cls-7" x1="345.93" y1="223.23" x2="347.84" y2="223.23"/><line class="cls-7" x1="347.84" y1="223.23" x2="347.84" y2="223.8"/><line class="cls-7" x1="347.84" y1="223.8" x2="345.93" y2="223.8"/><line class="cls-7" x1="345.93" y1="223.8" x2="345.93" y2="223.23"/><line class="cls-7" x1="321.13" y1="354.17" x2="321.13" y2="321.7"/><line class="cls-7" x1="353.61" y1="354.17" x2="353.61" y2="321.7"/><line class="cls-7" x1="321.13" y1="354.17" x2="353.61" y2="354.17"/><line class="cls-7" x1="321.13" y1="321.7" x2="353.61" y2="321.7"/><line class="cls-7" x1="321.13" y1="386.64" x2="321.13" y2="354.17"/><line class="cls-7" x1="353.61" y1="386.64" x2="353.61" y2="354.17"/><line class="cls-7" x1="321.13" y1="386.64" x2="353.61" y2="386.64"/><line class="cls-7" x1="321.13" y1="354.17" x2="353.61" y2="354.17"/><line class="cls-7" x1="321.13" y1="289.22" x2="321.13" y2="256.75"/><line class="cls-7" x1="353.61" y1="289.22" x2="353.61" y2="256.75"/><line class="cls-7" x1="321.13" y1="289.22" x2="353.61" y2="289.22"/><line class="cls-7" x1="321.13" y1="256.75" x2="353.61" y2="256.75"/><line class="cls-7" x1="313.03" y1="111.18" x2="313.03" y2="19.19"/><line class="cls-7" x1="313.03" y1="19.19" x2="353.61" y2="19.19"/><line class="cls-7" x1="353.61" y1="19.19" x2="353.61" y2="111.18"/><line class="cls-7" x1="353.61" y1="111.18" x2="313.03" y2="111.18"/><line class="cls-7" x1="266.57" y1="98.21" x2="266.57" y2="110.64"/><path class="cls-7" d="M295.45,157.21a.52.52,0,0,1-.54-.53" transform="translate(-28.34 -46.04)"/><line class="cls-7" x1="267.1" y1="111.18" x2="267.1" y2="111.18"/><line class="cls-7" x1="267.1" y1="111.18" x2="284.41" y2="111.18"/><line class="cls-7" x1="284.41" y1="111.18" x2="301.75" y2="111.18"/><path class="cls-7" d="M330.62,156.68a.53.53,0,0,1-.53.53" transform="translate(-28.34 -46.04)"/><line class="cls-7" x1="302.28" y1="110.64" x2="302.28" y2="110.64"/><line class="cls-7" x1="302.28" y1="110.64" x2="302.28" y2="98.21"/><path class="cls-7" d="M325.39,135a10.75,10.75,0,0,1,5.23,9.2" transform="translate(-28.34 -46.04)"/><line class="cls-7" x1="297.05" y1="89" x2="297.05" y2="89"/><path class="cls-7" d="M312.75,131.24a22.85,22.85,0,0,1,12.64,3.8" transform="translate(-28.34 -46.04)"/><line class="cls-7" x1="284.41" y1="85.21" x2="284.41" y2="85.21"/><path class="cls-7" d="M300.12,135a22.91,22.91,0,0,1,12.63-3.8" transform="translate(-28.34 -46.04)"/><line class="cls-7" x1="271.78" y1="89" x2="271.78" y2="89"/><path class="cls-7" d="M294.91,144.24a10.71,10.71,0,0,1,5.21-9.2" transform="translate(-28.34 -46.04)"/><line class="cls-7" x1="266.57" y1="98.21" x2="266.57" y2="98.21"/><line class="cls-7" x1="253.51" y1="46.26" x2="253.51" y2="13.79"/><line class="cls-7" x1="253.51" y1="13.79" x2="285.96" y2="13.79"/><line class="cls-7" x1="285.96" y1="13.79" x2="285.96" y2="46.26"/><line class="cls-7" x1="285.96" y1="46.26" x2="253.51" y2="46.26"/><line class="cls-7" x1="176.66" y1="527.35" x2="176.66" y2="553.85"/><line class="cls-7" x1="176.13" y1="527.35" x2="176.13" y2="553.85"/><line class="cls-7" x1="176.66" y1="553.85" x2="176.13" y2="553.85"/><line class="cls-7" x1="176.13" y1="527.35" x2="176.13" y2="525.18"/><line class="cls-7" x1="176.66" y1="525.18" x2="176.13" y2="525.18"/><line class="cls-7" x1="176.66" y1="527.35" x2="176.66" y2="525.18"/><line class="cls-7" x1="214.54" y1="547.78" x2="183.7" y2="547.78"/><line class="cls-7" x1="225.37" y1="546.96" x2="225.26" y2="547.35"/><line class="cls-7" x1="225.37" y1="532.07" x2="225.37" y2="546.96"/><line class="cls-7" x1="225.26" y1="531.68" x2="225.37" y2="532.07"/><line class="cls-7" x1="224.95" y1="531.37" x2="225.26" y2="531.68"/><line class="cls-7" x1="224.56" y1="531.26" x2="224.95" y2="531.37"/><line class="cls-7" x1="182.88" y1="531.26" x2="224.56" y2="531.26"/><line class="cls-7" x1="182.49" y1="531.37" x2="182.88" y2="531.26"/><line class="cls-7" x1="182.18" y1="531.68" x2="182.49" y2="531.37"/><line class="cls-7" x1="182.06" y1="532.07" x2="182.18" y2="531.68"/><line class="cls-7" x1="182.06" y1="546.96" x2="182.06" y2="532.07"/><line class="cls-7" x1="182.18" y1="547.35" x2="182.06" y2="546.96"/><line class="cls-7" x1="182.49" y1="547.66" x2="182.18" y2="547.35"/><line class="cls-7" x1="182.88" y1="547.78" x2="182.49" y2="547.66"/><line class="cls-7" x1="224.56" y1="547.78" x2="182.88" y2="547.78"/><line class="cls-7" x1="224.95" y1="547.66" x2="224.56" y2="547.78"/><line class="cls-7" x1="225.26" y1="547.35" x2="224.95" y2="547.66"/><line class="cls-7" x1="176.13" y1="554.39" x2="176.13" y2="553.85"/><line class="cls-7" x1="176.13" y1="554.39" x2="230.27" y2="554.39"/><line class="cls-7" x1="230.27" y1="553.85" x2="230.27" y2="554.39"/><line class="cls-7" x1="176.13" y1="553.85" x2="230.27" y2="553.85"/><line class="cls-7" x1="176.66" y1="527.35" x2="230.27" y2="527.35"/><line class="cls-7" x1="176.66" y1="553.85" x2="176.66" y2="527.35"/><line class="cls-7" x1="230.27" y1="527.35" x2="230.27" y2="553.85"/><line class="cls-7" x1="230.27" y1="553.85" x2="176.66" y2="553.85"/><line class="cls-7" x1="230.8" y1="554.39" x2="230.27" y2="554.39"/><line class="cls-7" x1="230.8" y1="554.39" x2="230.8" y2="527.35"/><line class="cls-7" x1="230.27" y1="553.85" x2="230.27" y2="527.35"/><line class="cls-7" x1="230.27" y1="527.35" x2="230.27" y2="525.18"/><line class="cls-7" x1="230.8" y1="527.35" x2="230.8" y2="525.18"/><line class="cls-7" x1="230.8" y1="525.18" x2="230.27" y2="525.18"/><line class="cls-7" x1="17.84" y1="457.53" x2="39.48" y2="457.53"/><line class="cls-7" x1="50.28" y1="457.53" x2="71.95" y2="457.53"/><line class="cls-7" x1="82.76" y1="457.53" x2="104.43" y2="457.53"/><line class="cls-7" x1="115.23" y1="457.53" x2="136.87" y2="457.53"/><line class="cls-7" x1="147.71" y1="457.53" x2="169.34" y2="457.53"/><line class="cls-7" x1="180.18" y1="457.53" x2="201.82" y2="457.53"/><line class="cls-7" x1="212.65" y1="457.53" x2="234.29" y2="457.53"/><line class="cls-7" x1="245.13" y1="457.53" x2="266.77" y2="457.53"/><line class="cls-7" x1="342.52" y1="457.53" x2="364.16" y2="457.53"/><line class="cls-7" x1="17.84" y1="446.7" x2="39.48" y2="446.7"/><line class="cls-7" x1="50.28" y1="446.7" x2="71.95" y2="446.7"/><line class="cls-7" x1="82.76" y1="446.7" x2="104.43" y2="446.7"/><line class="cls-7" x1="115.23" y1="446.7" x2="136.87" y2="446.7"/><line class="cls-7" x1="147.71" y1="446.7" x2="169.34" y2="446.7"/><line class="cls-7" x1="180.18" y1="446.7" x2="201.82" y2="446.7"/><line class="cls-7" x1="212.65" y1="446.7" x2="234.29" y2="446.7"/><line class="cls-7" x1="245.13" y1="446.7" x2="266.77" y2="446.7"/><line class="cls-7" x1="342.52" y1="446.7" x2="364.16" y2="446.7"/><polyline class="cls-8" points="335.77 178.29 336.75 175.9 339.14 174.92 341.54 175.9 342.52 178.29 341.54 180.69 339.14 181.67 336.75 180.69 335.77 178.29"/><line class="cls-7" x1="335.77" y1="178.29" x2="336.75" y2="175.9"/><line class="cls-7" x1="336.75" y1="175.9" x2="339.14" y2="174.92"/><line class="cls-7" x1="339.14" y1="174.92" x2="341.54" y2="175.9"/><line class="cls-7" x1="341.54" y1="175.9" x2="342.52" y2="178.29"/><line class="cls-7" x1="342.52" y1="178.29" x2="341.54" y2="180.69"/><line class="cls-7" x1="341.54" y1="180.69" x2="339.14" y2="181.67"/><line class="cls-7" x1="339.14" y1="181.67" x2="336.75" y2="180.69"/><line class="cls-7" x1="336.75" y1="180.69" x2="335.77" y2="178.29"/><line class="cls-7" x1="287.06" y1="186.4" x2="287.06" y2="169.63"/><line class="cls-7" x1="287.06" y1="169.63" x2="346.57" y2="169.63"/><line class="cls-7" x1="346.57" y1="169.63" x2="346.57" y2="186.4"/><line class="cls-7" x1="346.57" y1="186.4" x2="287.06" y2="186.4"/><polyline class="cls-8" points="291.11 177.98 292.09 175.59 294.49 174.61 296.88 175.59 297.89 177.98 296.88 180.38 294.49 181.36 292.09 180.38 291.11 177.98"/><line class="cls-7" x1="291.11" y1="177.98" x2="292.09" y2="180.38"/><line class="cls-7" x1="292.09" y1="180.38" x2="294.48" y2="181.36"/><line class="cls-7" x1="294.48" y1="181.36" x2="296.88" y2="180.38"/><line class="cls-7" x1="296.88" y1="180.38" x2="297.89" y2="177.98"/><line class="cls-7" x1="297.89" y1="177.98" x2="296.88" y2="175.59"/><line class="cls-7" x1="296.88" y1="175.59" x2="294.48" y2="174.61"/><line class="cls-7" x1="294.48" y1="174.61" x2="292.09" y2="175.59"/><line class="cls-7" x1="292.09" y1="175.59" x2="291.11" y2="177.98"/><line class="cls-7" x1="173.4" y1="465.63" x2="177.2" y2="465.63"/><line class="cls-7" x1="170.7" y1="465.63" x2="173.4" y2="465.63"/><line class="cls-7" x1="170.7" y1="525.18" x2="170.7" y2="465.66"/><line class="cls-7" x1="177.2" y1="518.68" x2="177.2" y2="465.66"/><line class="cls-7" x1="173.4" y1="522.48" x2="173.4" y2="519.21"/><line class="cls-7" x1="173.4" y1="519.21" x2="170.7" y2="519.21"/><line class="cls-7" x1="170.7" y1="519.21" x2="170.7" y2="522.48"/><line class="cls-7" x1="170.7" y1="465.66" x2="170.7" y2="468.9"/><line class="cls-7" x1="170.7" y1="468.9" x2="173.4" y2="468.9"/><line class="cls-7" x1="173.4" y1="468.9" x2="173.4" y2="465.66"/><line class="cls-7" x1="173.4" y1="519.21" x2="173.4" y2="468.9"/><line class="cls-7" x1="170.7" y1="468.9" x2="170.7" y2="519.21"/><line class="cls-7" x1="170.7" y1="465.66" x2="173.4" y2="465.66"/><line class="cls-7" x1="170.7" y1="465.66" x2="173.4" y2="465.66"/><line class="cls-7" x1="173.4" y1="465.66" x2="177.2" y2="465.66"/><line class="cls-7" x1="173.4" y1="522.48" x2="169.63" y2="522.48"/><line class="cls-7" x1="169.63" y1="522.48" x2="169.63" y2="526.25"/><line class="cls-7" x1="170.7" y1="525.18" x2="170.7" y2="465.63"/><line class="cls-7" x1="177.2" y1="518.68" x2="177.2" y2="465.63"/><line class="cls-7" x1="173.4" y1="522.48" x2="173.4" y2="519.21"/><line class="cls-7" x1="173.4" y1="519.21" x2="170.7" y2="519.21"/><line class="cls-7" x1="170.7" y1="519.21" x2="170.7" y2="522.48"/><line class="cls-7" x1="170.7" y1="465.63" x2="170.7" y2="468.9"/><line class="cls-7" x1="170.7" y1="468.9" x2="173.4" y2="468.9"/><line class="cls-7" x1="173.4" y1="468.9" x2="173.4" y2="465.63"/><line class="cls-7" x1="173.4" y1="519.21" x2="173.4" y2="468.9"/><line class="cls-7" x1="170.7" y1="468.9" x2="170.7" y2="519.21"/><line class="cls-7" x1="170.7" y1="465.63" x2="173.4" y2="465.63"/><line class="cls-7" x1="170.7" y1="465.63" x2="173.4" y2="465.63"/><line class="cls-7" x1="173.4" y1="465.63" x2="177.2" y2="465.63"/><line class="cls-7" x1="173.4" y1="522.48" x2="169.63" y2="522.48"/><line class="cls-7" x1="169.63" y1="522.48" x2="169.63" y2="526.25"/><rect class="cls-9" x="242.68" y="0.25" width="122.83" height="10.83"/></svg>