<svg id="_373" data-name="373" xmlns="http://www.w3.org/2000/svg" viewBox="0 0 605.8 954.17"><defs><style>.cls-1{isolation:isolate;font-size:12px;fill:#969696;}.cls-1,.cls-3,.cls-5{font-family:PTSans-Regular, PT Sans;}.cls-2,.cls-4,.cls-6,.cls-7,.cls-8,.cls-9{fill:none;stroke-linecap:round;stroke-linejoin:round;}.cls-2{stroke:#969696;stroke-width:0.75px;}.cls-3{font-size:40px;}.cls-4,.cls-6,.cls-7,.cls-8,.cls-9{stroke:#000;}.cls-4,.cls-8,.cls-9{stroke-width:0.5px;}.cls-5{font-size:36px;}.cls-6{stroke-width:0.25px;stroke-dasharray:1 1;}.cls-8{stroke-dasharray:3.05 3.05;}.cls-9{stroke-dasharray:2.96 2.96;}</style></defs><title>7floor_373flat</title><text class="cls-1" transform="translate(297.33 10.2)">двор</text><line class="cls-2" x1="286.57" y1="4.22" x2="286.57" y2="13.02"/><polyline class="cls-2" points="290.07 7.72 286.57 4.22 283.07 7.72"/><text class="cls-3" transform="translate(422.18 366.03)">2E</text><text class="cls-3" transform="translate(395.92 416.21)">44.48</text><text class="cls-3" transform="translate(390.64 316.13)">№373</text><polyline class="cls-4" points="381.63 427.02 381.63 277.94 505.96 277.94 505.96 427.02"/><line class="cls-4" x1="381.63" y1="327.73" x2="505.96" y2="327.73"/><line class="cls-4" x1="381.63" y1="427.02" x2="505.96" y2="427.02"/><line class="cls-4" x1="381.63" y1="377.52" x2="505.96" y2="377.52"/><text class="cls-5" transform="translate(408.82 191.3)">18.62</text><text class="cls-5" transform="translate(111.34 191.3)">13.99</text><text class="cls-5" transform="translate(101.95 582.28)">3.15</text><text class="cls-5" transform="translate(93.64 800.93)">3.73</text><text class="cls-5" transform="translate(292.87 841.75)">4.99</text><line class="cls-6" x1="406.83" y1="761.35" x2="323.58" y2="761.35"/><line class="cls-6" x1="406.83" y1="753.87" x2="323.58" y2="753.87"/><line class="cls-6" x1="191.41" y1="861.81" x2="191.41" y2="778.56"/><line class="cls-6" x1="198.88" y1="861.81" x2="198.88" y2="778.56"/><line class="cls-6" x1="486.87" y1="911.53" x2="486.87" y2="821.44"/><line class="cls-7" x1="78.57" y1="99.47" x2="8.25" y2="99.47"/><line class="cls-7" x1="605.3" y1="99.47" x2="550.47" y2="99.47"/><line class="cls-7" x1="379.04" y1="99.47" x2="274.97" y2="99.47"/><line class="cls-7" x1="271.2" y1="99.47" x2="271.2" y2="109.05"/><line class="cls-7" x1="82.44" y1="99.47" x2="82.44" y2="109.05"/><line class="cls-7" x1="271.2" y1="98.45" x2="271.2" y2="99.47"/><line class="cls-7" x1="82.44" y1="98.45" x2="82.44" y2="99.47"/><line class="cls-7" x1="274.97" y1="109.05" x2="274.97" y2="109.05"/><polyline class="cls-7" points="274.97 99.47 272.12 99.47 272.12 109.05 272.12 99.47"/><line class="cls-7" x1="272.12" y1="98.45" x2="271.2" y2="98.45"/><line class="cls-7" x1="78.57" y1="109.05" x2="78.57" y2="109.05"/><polyline class="cls-7" points="78.57 99.47 81.42 99.47 81.42 109.05 81.42 99.47"/><line class="cls-7" x1="81.43" y1="98.45" x2="82.44" y2="98.45"/><polyline class="cls-7" points="274.97 109.05 274.97 114.86 274.97 133.1"/><polyline class="cls-7" points="78.57 109.05 78.57 114.86 78.57 133.1"/><line class="cls-7" x1="546.59" y1="99.47" x2="546.59" y2="109.05"/><line class="cls-7" x1="382.91" y1="99.47" x2="382.91" y2="109.05"/><line class="cls-7" x1="546.59" y1="98.45" x2="546.59" y2="99.47"/><line class="cls-7" x1="382.91" y1="98.45" x2="382.91" y2="99.47"/><line class="cls-7" x1="550.47" y1="109.05" x2="550.47" y2="109.05"/><polyline class="cls-7" points="550.47 99.47 547.51 99.47 547.51 109.05 547.51 99.47"/><line class="cls-7" x1="547.51" y1="98.45" x2="546.59" y2="98.45"/><line class="cls-7" x1="379.04" y1="109.05" x2="379.04" y2="109.05"/><polyline class="cls-7" points="379.04 99.47 381.89 99.47 381.89 109.05 381.89 99.47"/><line class="cls-7" x1="381.89" y1="98.45" x2="382.91" y2="98.45"/><polyline class="cls-7" points="550.47 109.05 550.47 114.86 550.47 133.1"/><polyline class="cls-7" points="379.04 109.05 379.04 114.86 379.04 133.1"/><line class="cls-7" x1="605.3" y1="98.45" x2="547.51" y2="98.45"/><line class="cls-7" x1="381.89" y1="98.45" x2="272.12" y2="98.45"/><line class="cls-7" x1="81.43" y1="98.45" x2="8.25" y2="98.45"/><line class="cls-7" x1="15.99" y1="133.1" x2="78.57" y2="133.1"/><line class="cls-7" x1="274.97" y1="133.1" x2="297.19" y2="133.1"/><line class="cls-7" x1="316.46" y1="133.1" x2="379.04" y2="133.1"/><line class="cls-7" x1="550.47" y1="133.1" x2="586.04" y2="133.1"/><line class="cls-7" x1="82.44" y1="98.45" x2="271.2" y2="98.45"/><line class="cls-7" x1="78.57" y1="133.1" x2="274.97" y2="133.1"/><polyline class="cls-7" points="78.57 114.86 83.87 114.86 83.87 110.99 86.22 110.99 86.22 109.05 78.57 109.05"/><polyline class="cls-7" points="145.33 109.05 141.46 109.05 141.46 110.99 143.9 110.99 143.9 114.86 145.33 114.86"/><line class="cls-7" x1="141.46" y1="109.05" x2="86.22" y2="109.05"/><polyline class="cls-7" points="83.87 116.8 89.58 116.8 138.09 116.8"/><polyline class="cls-7" points="89.58 116.8 89.58 110.99 83.87 110.99 83.87 116.8"/><polyline class="cls-7" points="143.9 110.99 138.09 110.99 138.09 116.8 143.9 116.8 143.9 110.99"/><line class="cls-7" x1="138.09" y1="110.99" x2="89.58" y2="110.99"/><line class="cls-7" x1="89.58" y1="116.8" x2="138.09" y2="116.8"/><line class="cls-7" x1="89.58" y1="113.84" x2="138.09" y2="113.84"/><polyline class="cls-7" points="145.33 114.86 146.76 114.86 146.76 110.99 149.2 110.99 149.2 109.05 145.33 109.05"/><polyline class="cls-7" points="208.22 109.05 204.34 109.05 204.34 110.99 206.79 110.99 206.79 114.86 208.22 114.86"/><line class="cls-7" x1="204.34" y1="109.05" x2="149.2" y2="109.05"/><polyline class="cls-7" points="146.76 116.8 152.57 116.8 200.98 116.8"/><polyline class="cls-7" points="152.57 116.8 152.57 110.99 146.76 110.99 146.76 116.8"/><polyline class="cls-7" points="206.79 110.99 200.98 110.99 200.98 116.8 206.79 116.8 206.79 110.99"/><line class="cls-7" x1="200.98" y1="110.99" x2="152.57" y2="110.99"/><line class="cls-7" x1="152.57" y1="116.8" x2="200.98" y2="116.8"/><line class="cls-7" x1="152.57" y1="113.84" x2="200.98" y2="113.84"/><polyline class="cls-7" points="208.22 114.86 209.64 114.86 209.64 110.99 212.09 110.99 212.09 109.05 208.22 109.05"/><polyline class="cls-7" points="274.97 109.05 267.33 109.05 267.33 110.99 269.67 110.99 269.67 114.86 274.97 114.86"/><line class="cls-7" x1="267.33" y1="109.05" x2="212.09" y2="109.05"/><polyline class="cls-7" points="209.64 116.8 215.45 116.8 263.97 116.8"/><polyline class="cls-7" points="215.45 116.8 215.45 110.99 209.64 110.99 209.64 116.8"/><polyline class="cls-7" points="269.67 110.99 263.97 110.99 263.97 116.8 269.67 116.8 269.67 110.99"/><line class="cls-7" x1="263.97" y1="110.99" x2="215.45" y2="110.99"/><line class="cls-7" x1="215.45" y1="116.8" x2="263.97" y2="116.8"/><line class="cls-7" x1="215.45" y1="113.84" x2="263.97" y2="113.84"/><polyline class="cls-7" points="78.57 133.1 78.57 114.86 78.57 109.05 78.57 114.86"/><polyline class="cls-7" points="274.97 133.1 274.97 114.86 274.97 109.05 274.97 114.86"/><line class="cls-7" x1="82.44" y1="98.45" x2="82.44" y2="99.47"/><polyline class="cls-7" points="82.44 109.05 81.42 109.05 82.44 109.05"/><polyline class="cls-7" points="81.42 109.05 78.57 109.05 81.42 109.05"/><line class="cls-7" x1="271.2" y1="98.45" x2="271.2" y2="99.47"/><polyline class="cls-7" points="271.2 109.05 272.12 109.05 271.2 109.05"/><polyline class="cls-7" points="272.12 109.05 274.97 109.05 272.12 109.05"/><line class="cls-7" x1="82.44" y1="99.47" x2="82.44" y2="109.05"/><line class="cls-7" x1="271.2" y1="99.47" x2="271.2" y2="109.05"/><line class="cls-7" x1="382.91" y1="98.45" x2="546.59" y2="98.45"/><line class="cls-7" x1="379.04" y1="133.1" x2="550.47" y2="133.1"/><polyline class="cls-7" points="379.04 114.86 384.33 114.86 384.33 110.99 386.78 110.99 386.78 109.05 379.04 109.05"/><polyline class="cls-7" points="464.75 109.05 460.88 109.05 460.88 110.99 463.32 110.99 463.32 114.86 464.75 114.86"/><line class="cls-7" x1="460.88" y1="109.05" x2="386.78" y2="109.05"/><polyline class="cls-7" points="384.33 116.8 390.14 116.8 457.51 116.8"/><polyline class="cls-7" points="390.14 116.8 390.14 110.99 384.33 110.99 384.33 116.8"/><polyline class="cls-7" points="463.32 110.99 457.51 110.99 457.51 116.8 463.32 116.8 463.32 110.99"/><line class="cls-7" x1="457.51" y1="110.99" x2="390.14" y2="110.99"/><line class="cls-7" x1="390.14" y1="116.8" x2="457.51" y2="116.8"/><line class="cls-7" x1="390.14" y1="113.84" x2="457.51" y2="113.84"/><polyline class="cls-7" points="464.75 114.86 466.18 114.86 466.18 110.99 468.62 110.99 468.62 109.05 464.75 109.05"/><polyline class="cls-7" points="550.47 109.05 542.72 109.05 542.72 110.99 545.17 110.99 545.17 114.86 550.47 114.86"/><line class="cls-7" x1="542.72" y1="109.05" x2="468.62" y2="109.05"/><polyline class="cls-7" points="466.18 116.8 471.99 116.8 539.36 116.8"/><polyline class="cls-7" points="471.99 116.8 471.99 110.99 466.18 110.99 466.18 116.8"/><polyline class="cls-7" points="545.17 110.99 539.36 110.99 539.36 116.8 545.17 116.8 545.17 110.99"/><line class="cls-7" x1="539.36" y1="110.99" x2="471.99" y2="110.99"/><line class="cls-7" x1="471.99" y1="116.8" x2="539.36" y2="116.8"/><line class="cls-7" x1="471.99" y1="113.84" x2="539.36" y2="113.84"/><polyline class="cls-7" points="379.04 133.1 379.04 114.86 379.04 109.05 379.04 114.86"/><polyline class="cls-7" points="550.47 133.1 550.47 114.86 550.47 109.05 550.47 114.86"/><line class="cls-7" x1="382.91" y1="98.45" x2="382.91" y2="99.47"/><polyline class="cls-7" points="382.91 109.05 381.89 109.05 382.91 109.05"/><polyline class="cls-7" points="381.89 109.05 379.04 109.05 381.89 109.05"/><line class="cls-7" x1="546.59" y1="98.45" x2="546.59" y2="99.47"/><polyline class="cls-7" points="546.59 109.05 547.51 109.05 546.59 109.05"/><polyline class="cls-7" points="547.51 109.05 550.47 109.05 547.51 109.05"/><line class="cls-7" x1="382.91" y1="99.47" x2="382.91" y2="109.05"/><line class="cls-7" x1="546.59" y1="99.47" x2="546.59" y2="109.05"/><line class="cls-7" x1="8.25" y1="99.47" x2="0.5" y2="99.47"/><line class="cls-7" x1="0.5" y1="99.47" x2="0.5" y2="109.05"/><line class="cls-7" x1="0.5" y1="98.45" x2="0.5" y2="99.47"/><line class="cls-7" x1="0.5" y1="109.05" x2="0.5" y2="109.05"/><polyline class="cls-7" points="0.5 99.47 0.5 99.47 0.5 109.05 0.5 99.47"/><line class="cls-7" x1="0.5" y1="98.45" x2="0.5" y2="98.45"/><polyline class="cls-7" points="0.5 109.05 0.5 114.86 0.5 133.1"/><line class="cls-7" x1="8.25" y1="98.45" x2="0.5" y2="98.45"/><line class="cls-7" x1="0.5" y1="133.1" x2="0.5" y2="133.1"/><polyline class="cls-7" points="0.5 133.1 0.5 114.86 0.5 109.05 0.5 114.86"/><line class="cls-7" x1="0.5" y1="98.45" x2="0.5" y2="99.47"/><polyline class="cls-7" points="0.5 109.05 0.5 109.05 0.5 109.05"/><polyline class="cls-7" points="0.5 109.05 0.5 109.05 0.5 109.05"/><line class="cls-7" x1="0.5" y1="99.47" x2="0.5" y2="109.05"/><line class="cls-7" x1="605.3" y1="691.73" x2="605.3" y2="527.95"/><line class="cls-7" x1="605.3" y1="431.73" x2="605.3" y2="98.96"/><line class="cls-7" x1="586.04" y1="210.16" x2="586.04" y2="431.73"/><line class="cls-7" x1="586.04" y1="527.95" x2="586.04" y2="691.73"/><polyline class="cls-7" points="486.87 915.14 479.22 915.14 467.61 915.14"/><polyline class="cls-7" points="486.87 818.83 479.22 818.83 467.61 818.83 467.61 754.31"/><line class="cls-7" x1="467.6" y1="915.15" x2="467.6" y2="934.41"/><line class="cls-7" x1="486.87" y1="934.41" x2="486.87" y2="915.15"/><line class="cls-7" x1="486.87" y1="818.83" x2="486.87" y2="773.58"/><path class="cls-7" d="M479.28,850.94a88.62,88.62,0,0,0-88.62,88.62" transform="translate(-0.01 -28.33)"/><polyline class="cls-7" points="486.87 818.83 486.87 822.7 479.22 822.7 479.22 818.83 486.87 818.83"/><polyline class="cls-7" points="479.22 915.14 479.22 911.27 486.87 911.27 486.87 915.14 479.22 915.14"/><line class="cls-7" x1="479.22" y1="911.27" x2="390.55" y2="911.27"/><polyline class="cls-7" points="467.61 818.83 479.22 818.83 486.87 818.83 479.22 818.83"/><polyline class="cls-7" points="467.61 915.14 479.22 915.14 486.87 915.14 479.22 915.14"/><line class="cls-7" x1="486.87" y1="773.58" x2="586.04" y2="773.58"/><polyline class="cls-7" points="467.61 754.31 486.87 754.31 586.04 754.31"/><line class="cls-7" x1="297.19" y1="754.31" x2="297.19" y2="762.06"/><line class="cls-7" x1="198.94" y1="754.31" x2="198.94" y2="762.06"/><line class="cls-7" x1="326.04" y1="754.31" x2="326.04" y2="762.06"/><polyline class="cls-7" points="467.61 754.31 403.09 754.31 403.09 762.06"/><line class="cls-7" x1="326.04" y1="754.31" x2="304.84" y2="754.31"/><line class="cls-7" x1="297.19" y1="762.06" x2="326.04" y2="762.06"/><polyline class="cls-7" points="403.09 762.06 467.61 762.06 467.61 754.31"/><line class="cls-7" x1="198.94" y1="754.31" x2="198.94" y2="762.06"/><line class="cls-7" x1="297.19" y1="754.31" x2="297.19" y2="762.06"/><line class="cls-7" x1="403.09" y1="754.31" x2="403.09" y2="762.06"/><line class="cls-7" x1="326.04" y1="754.31" x2="326.04" y2="762.06"/><line class="cls-7" x1="297.19" y1="210.16" x2="297.19" y2="431.73"/><line class="cls-7" x1="297.19" y1="527.95" x2="297.19" y2="754.31"/><line class="cls-7" x1="304.84" y1="754.31" x2="304.84" y2="527.95"/><line class="cls-7" x1="304.84" y1="431.73" x2="304.84" y2="210.16"/><line class="cls-7" x1="191.19" y1="852.57" x2="198.94" y2="852.57"/><line class="cls-7" x1="191.19" y1="785.2" x2="198.94" y2="785.2"/><line class="cls-7" x1="191.19" y1="676.34" x2="191.19" y2="729.24"/><line class="cls-7" x1="191.19" y1="736.99" x2="191.19" y2="785.2"/><polyline class="cls-7" points="191.19 852.57 191.19 934.41 198.94 934.41 198.94 852.57"/><line class="cls-7" x1="198.94" y1="785.2" x2="198.94" y2="668.6"/><line class="cls-7" x1="191.19" y1="785.2" x2="198.94" y2="785.2"/><line class="cls-7" x1="191.19" y1="852.57" x2="198.94" y2="852.57"/><line class="cls-7" x1="85.3" y1="729.24" x2="85.3" y2="676.34"/><line class="cls-7" x1="77.55" y1="676.34" x2="77.55" y2="729.24"/><polyline class="cls-7" points="39.03 736.99 39.03 733.11 39.03 729.24"/><polyline class="cls-7" points="77.55 736.99 77.55 733.11 77.55 729.24"/><line class="cls-7" x1="15.99" y1="736.99" x2="39.03" y2="736.99"/><line class="cls-7" x1="77.55" y1="736.99" x2="191.19" y2="736.99"/><line class="cls-7" x1="191.19" y1="729.24" x2="85.3" y2="729.24"/><polyline class="cls-7" points="39.03 729.24 15.99 729.24 15.99 736.99"/><line class="cls-7" x1="77.55" y1="736.99" x2="39.03" y2="736.99"/><line class="cls-7" x1="77.55" y1="729.24" x2="39.03" y2="729.24"/><path class="cls-7" d="M75.24,778.43a38.6,38.6,0,0,0,2.32-13.16" transform="translate(-0.01 -28.33)"/><line class="cls-7" x1="39.03" y1="736.99" x2="75.31" y2="750.13"/><polyline class="cls-7" points="77.55 729.24 77.55 733.11 77.55 736.99 77.55 733.11"/><polyline class="cls-7" points="39.03 729.24 39.03 733.11 39.03 736.99 39.03 733.11"/><line class="cls-7" x1="15.99" y1="676.34" x2="77.55" y2="676.34"/><line class="cls-7" x1="85.3" y1="676.34" x2="191.19" y2="676.34"/><polyline class="cls-7" points="198.94 668.6 191.19 668.6 15.99 668.6 15.99 676.34"/><polyline class="cls-7" points="486.87 953.67 486.87 945.92 486.87 934.41"/><line class="cls-7" x1="486.87" y1="934.41" x2="486.87" y2="934.41"/><line class="cls-7" x1="467.6" y1="934.41" x2="393.51" y2="934.41"/><polyline class="cls-7" points="297.19 934.41 15.99 934.41 15.99 953.67 297.19 953.67"/><line class="cls-7" x1="393.51" y1="953.67" x2="486.87" y2="953.67"/><polyline class="cls-7" points="486.87 945.92 486.87 945.92 486.87 953.67 486.87 953.67 486.87 945.92"/><polyline class="cls-7" points="486.87 934.41 486.87 945.92 486.87 953.67 486.87 945.92"/><polyline class="cls-7" points="270.18 96.11 270.18 43.11 270.69 43.11 270.69 96.11 270.18 96.11"/><polyline class="cls-7" points="268.76 41.68 180.19 41.68 180.19 41.17 268.76 41.17 268.76 41.68"/><polyline class="cls-7" points="178.76 43.11 178.76 96.11 178.25 96.11 178.25 43.11 178.76 43.11"/><polyline class="cls-7" points="268.76 98.45 268.76 96.11 271.2 96.11 271.2 98.45 268.76 98.45"/><polyline class="cls-7" points="268.76 43.11 268.76 40.66 271.2 40.66 271.2 43.11 268.76 43.11"/><polyline class="cls-7" points="180.19 43.11 177.74 43.11 177.74 40.66 180.19 40.66 180.19 43.11"/><polyline class="cls-7" points="180.19 96.11 180.19 98.45 177.74 98.45 177.74 96.11 180.19 96.11"/><line class="cls-7" x1="268.76" y1="97.23" x2="268.76" y2="43.11"/><line class="cls-7" x1="271.2" y1="40.66" x2="271.2" y2="97.23"/><line class="cls-7" x1="268.76" y1="43.11" x2="180.19" y2="43.11"/><line class="cls-7" x1="177.74" y1="40.66" x2="271.2" y2="40.66"/><line class="cls-7" x1="180.19" y1="43.11" x2="180.19" y2="97.23"/><line class="cls-7" x1="177.74" y1="97.23" x2="177.74" y2="40.66"/><polyline class="cls-7" points="271.2 97.23 271.2 98.45 268.76 98.45 268.76 97.23"/><polyline class="cls-7" points="180.19 97.23 180.19 98.45 177.74 98.45 177.74 97.23"/><polyline class="cls-7" points="177.74 40.66 271.2 40.66 271.2 97.23 268.76 97.23 268.76 43.11 180.19 43.11 180.19 97.23 177.74 97.23 177.74 40.66"/><polyline class="cls-7" points="182.53 57.99 266.31 57.99 266.31 88.87 182.53 88.87 182.53 57.99"/><polyline class="cls-7" points="182.53 61.15 266.31 61.15 266.31 88.87 182.53 88.87 182.53 61.15"/><line class="cls-7" x1="21.39" y1="873.77" x2="21.39" y2="922.79"/><line class="cls-7" x1="26.9" y1="928.6" x2="146.04" y2="928.6"/><line class="cls-7" x1="26.9" y1="867.96" x2="146.04" y2="867.96"/><line class="cls-7" x1="179.68" y1="934.41" x2="15.99" y2="934.41"/><polyline class="cls-7" points="179.68 934.41 179.68 862.15 15.99 862.15 15.99 934.41"/><line class="cls-7" x1="126.88" y1="878.05" x2="33.62" y2="878.05"/><line class="cls-7" x1="30.87" y1="880.9" x2="30.87" y2="915.65"/><line class="cls-7" x1="126.88" y1="918.61" x2="33.62" y2="918.61"/><line class="cls-7" x1="50.03" y1="896.49" x2="50.03" y2="892.93"/><line class="cls-7" x1="48.4" y1="898.33" x2="45.04" y2="898.33"/><line class="cls-7" x1="50.03" y1="900.06" x2="50.03" y2="903.63"/><line class="cls-7" x1="51.77" y1="898.33" x2="55.13" y2="898.33"/><path class="cls-7" d="M146.1,956.93c15.85,0,28.69-13.57,28.69-30.32S162,896.29,146.1,896.29" transform="translate(-0.01 -28.33)"/><path class="cls-7" d="M21.5,951.07A5.61,5.61,0,0,0,27,956.83" transform="translate(-0.01 -28.33)"/><path class="cls-7" d="M27,896.29a5.61,5.61,0,0,0-5.45,5.76" transform="translate(-0.01 -28.33)"/><path class="cls-7" d="M50.09,923.61a3,3,0,1,0,2.8,3,2.9,2.9,0,0,0-2.8-3" transform="translate(-0.01 -28.33)"/><path class="cls-7" d="M126.94,947c10.55,0,19.11-9.11,19.11-20.34s-8.56-20.33-19.11-20.33" transform="translate(-0.01 -28.33)"/><path class="cls-7" d="M33.68,906.28a2.81,2.81,0,0,0-2.7,2.9" transform="translate(-0.01 -28.33)"/><path class="cls-7" d="M31,943.94a2.81,2.81,0,0,0,2.7,2.9" transform="translate(-0.01 -28.33)"/><path class="cls-7" d="M50.09,922.59a4,4,0,1,0,3.82,4,3.92,3.92,0,0,0-3.82-4" transform="translate(-0.01 -28.33)"/><polyline class="cls-7" points="37.91 798.65 15.99 798.65 15.99 850.63 37.91 850.63"/><line class="cls-7" x1="15.99" y1="832.79" x2="15.99" y2="816.38"/><line class="cls-7" x1="33.62" y1="829.02" x2="33.62" y2="826.17"/><line class="cls-7" x1="29.24" y1="824.64" x2="31.99" y2="824.64"/><line class="cls-7" x1="33.62" y1="823.01" x2="33.62" y2="820.26"/><line class="cls-7" x1="35.26" y1="824.64" x2="38.01" y2="824.64"/><path class="cls-7" d="M39.33,830.13a23.22,23.22,0,0,0-11,9" transform="translate(-0.01 -28.33)"/><path class="cls-7" d="M28.39,839a23.22,23.22,0,0,0-3.25,13.83" transform="translate(-0.01 -28.33)"/><path class="cls-7" d="M28.37,866.72a23.16,23.16,0,0,0,11,9" transform="translate(-0.01 -28.33)"/><path class="cls-7" d="M25.14,852.9a23.19,23.19,0,0,0,3.25,13.82" transform="translate(-0.01 -28.33)"/><path class="cls-7" d="M55.43,851.11a42.79,42.79,0,0,0-4.3-15.78" transform="translate(-0.01 -28.33)"/><path class="cls-7" d="M38,878.85a13.19,13.19,0,0,0,10.86-4.93" transform="translate(-0.01 -28.33)"/><path class="cls-7" d="M55.48,854.74a27.63,27.63,0,0,0,0-3.64" transform="translate(-0.01 -28.33)"/><path class="cls-7" d="M29.25,838.37a94.65,94.65,0,0,0,0,29.1" transform="translate(-0.01 -28.33)"/><path class="cls-7" d="M20.14,870.16a32.71,32.71,0,0,0,21.24,7.37" transform="translate(-0.01 -28.33)"/><path class="cls-7" d="M17.12,852.94a64.8,64.8,0,0,0,1.61,14.88" transform="translate(-0.01 -28.33)"/><path class="cls-7" d="M18.65,867.74a4.38,4.38,0,0,0,1.49,2.4" transform="translate(-0.01 -28.33)"/><path class="cls-7" d="M19.06,852.94a110.73,110.73,0,0,0,1.05,14.67" transform="translate(-0.01 -28.33)"/><path class="cls-7" d="M21.58,870.19a29.38,29.38,0,0,0,19.83,7.34" transform="translate(-0.01 -28.33)"/><path class="cls-7" d="M20.22,867.58a4.37,4.37,0,0,0,1.42,2.66" transform="translate(-0.01 -28.33)"/><path class="cls-7" d="M41.37,828.21a29.36,29.36,0,0,0-19.82,7.37" transform="translate(-0.01 -28.33)"/><path class="cls-7" d="M41.33,828.31a32.68,32.68,0,0,0-21.22,7.4" transform="translate(-0.01 -28.33)"/><path class="cls-7" d="M20.09,838.3a110.41,110.41,0,0,0-1,14.65" transform="translate(-0.01 -28.33)"/><path class="cls-7" d="M18.71,838a65.34,65.34,0,0,0-1.59,14.88" transform="translate(-0.01 -28.33)"/><path class="cls-7" d="M21.54,835.61a4.38,4.38,0,0,0-1.43,2.66" transform="translate(-0.01 -28.33)"/><path class="cls-7" d="M20.13,835.61a4.31,4.31,0,0,0-1.48,2.4" transform="translate(-0.01 -28.33)"/><path class="cls-7" d="M48.87,831.82A13.19,13.19,0,0,0,38,826.89" transform="translate(-0.01 -28.33)"/><path class="cls-7" d="M51.14,835.29a21.09,21.09,0,0,0-2.24-3.46" transform="translate(-0.01 -28.33)"/><path class="cls-7" d="M48.9,874a20.28,20.28,0,0,0,2.24-3.46" transform="translate(-0.01 -28.33)"/><path class="cls-7" d="M51.13,870.51a42.74,42.74,0,0,0,4.3-15.77" transform="translate(-0.01 -28.33)"/><path class="cls-7" d="M51.74,860.08a30.67,30.67,0,0,0,0-14.32" transform="translate(-0.01 -28.33)"/><path class="cls-7" d="M45.8,832.74a7.81,7.81,0,0,0-6.44-2.68" transform="translate(-0.01 -28.33)"/><path class="cls-7" d="M51.75,845.79a28.11,28.11,0,0,0-5.94-12.95" transform="translate(-0.01 -28.33)"/><path class="cls-7" d="M39.36,875.68A7.78,7.78,0,0,0,45.8,873" transform="translate(-0.01 -28.33)"/><path class="cls-7" d="M45.81,873a28.2,28.2,0,0,0,5.94-13" transform="translate(-0.01 -28.33)"/><path class="cls-7" d="M37.1,852.92a3.42,3.42,0,1,0-3.42,3.42,3.42,3.42,0,0,0,3.42-3.42" transform="translate(-0.01 -28.33)"/><path class="cls-7" d="M36.08,852.92a2.4,2.4,0,1,0-2.4,2.4,2.4,2.4,0,0,0,2.4-2.4" transform="translate(-0.01 -28.33)"/><line class="cls-7" x1="30.77" y1="746.77" x2="64.71" y2="746.77"/><polyline class="cls-7" points="28.73 745.34 15.99 745.34 15.99 781.93"/><line class="cls-7" x1="36.68" y1="763.59" x2="36.68" y2="777.14"/><polyline class="cls-7" points="64.71 746.77 36.68 750.03 36.68 763.59"/><line class="cls-7" x1="64.71" y1="780.51" x2="36.68" y2="777.14"/><line class="cls-7" x1="64.71" y1="747.59" x2="36.68" y2="750.95"/><line class="cls-7" x1="64.71" y1="779.59" x2="36.68" y2="776.33"/><line class="cls-7" x1="30.77" y1="780.51" x2="64.71" y2="780.51"/><line class="cls-7" x1="15.99" y1="781.93" x2="28.73" y2="781.93"/><polyline class="cls-7" points="64.71 746.77 68.48 747.28 72.05 748.71 75.21 750.95 77.65 754.01 79.49 757.68 80.41 761.55 80.41 765.63 79.49 769.6 77.65 773.17 75.21 776.23 72.05 778.57 68.48 780 64.71 780.51"/><polyline class="cls-7" points="64.71 747.59 68.28 748.1 71.64 749.42 74.6 751.66 76.94 754.52 78.67 757.98 79.49 761.65 79.49 765.52 78.67 769.3 76.94 772.66 74.6 775.62 71.64 777.76 68.28 779.18 64.71 779.59"/><polyline class="cls-7" points="30.87 780 31.38 773.48 31.69 766.85 31.69 760.33 31.38 753.8 30.87 747.18"/><path class="cls-7" d="M31,775.54a2.16,2.16,0,0,0-2.18-1.86" transform="translate(-0.01 -28.33)"/><path class="cls-7" d="M28.79,810.17A2.16,2.16,0,0,0,31,808.29" transform="translate(-0.01 -28.33)"/><path class="cls-7" d="M25.88,791.87a1.78,1.78,0,1,0-1.78,1.79,1.78,1.78,0,0,0,1.78-1.79" transform="translate(-0.01 -28.33)"/><polyline class="cls-7" points="73.78 610.81 73.78 663.81 20.78 663.81 20.78 610.81 73.78 610.81"/><polyline class="cls-7" points="25.57 615.6 68.89 615.6 68.89 654.13 25.57 654.13 25.57 615.6"/><line class="cls-4" x1="15.99" y1="508.68" x2="17.49" y2="508.68"/><line class="cls-8" x1="20.54" y1="508.68" x2="195.92" y2="508.68"/><polyline class="cls-4" points="197.44 508.68 198.94 508.68 198.94 510.18"/><line class="cls-9" x1="198.94" y1="513.14" x2="198.94" y2="665.62"/><line class="cls-4" x1="198.94" y1="667.1" x2="198.94" y2="668.6"/><polyline class="cls-7" points="15.99 210.16 15.99 133.1 15.99 113.84 0.5 113.84 0.5 133.1 0.5 210.16"/><polyline class="cls-7" points="297.19 431.73 316.45 431.73 316.45 527.95 297.19 527.95 297.19 431.73"/><polyline class="cls-7" points="316.45 210.16 297.19 210.16 297.19 113.84 316.45 113.84 316.45 210.16"/><line class="cls-7" x1="15.99" y1="953.67" x2="15.99" y2="210.16"/><polyline class="cls-7" points="0.5 210.16 0.5 953.67 182.79 953.67"/><polyline class="cls-7" points="586.04 773.58 605.3 773.58 605.3 691.73 586.04 691.73 586.04 773.58"/><polyline class="cls-7" points="586.04 210.16 605.3 210.16 605.3 113.84 586.04 113.84 586.04 210.16"/><polyline class="cls-7" points="605.3 431.73 586.04 431.73 586.04 527.95 605.3 527.95 605.3 431.73"/><polyline class="cls-7" points="393.51 934.41 393.51 953.67 297.19 953.67 297.19 934.41 393.51 934.41"/></svg>