<svg id="_328" data-name="328" xmlns="http://www.w3.org/2000/svg" viewBox="0 0 930.55 316.71"><defs><style>.cls-1{isolation:isolate;font-size:12px;fill:#969696;}.cls-1,.cls-3,.cls-4,.cls-6{font-family:PTSans-Regular, PT Sans;}.cls-10,.cls-11,.cls-2,.cls-5,.cls-7,.cls-8,.cls-9{fill:none;stroke-linecap:round;stroke-linejoin:round;}.cls-2{stroke:#969696;stroke-width:0.75px;}.cls-3{font-size:40px;}.cls-4{font-size:40.54px;}.cls-10,.cls-11,.cls-5,.cls-7,.cls-8,.cls-9{stroke:#000;}.cls-10,.cls-11,.cls-5{stroke-width:0.5px;}.cls-6{font-size:36px;}.cls-7,.cls-8{stroke-width:0.25px;}.cls-8{stroke-dasharray:0.99 0.99;}.cls-10{stroke-dasharray:2.96 2.96;}.cls-11{stroke-dasharray:2.96 2.96;}</style></defs><title>7floor_328flat</title><text class="cls-1" transform="translate(927.35 144.83) rotate(-90)">двор</text><line class="cls-2" x1="930.17" y1="155.59" x2="921.37" y2="155.59"/><polyline class="cls-2" points="926.67 159.09 930.17 155.59 926.67 152.09"/><text class="cls-3" transform="translate(564.65 162.36)">CT</text><text class="cls-4" transform="translate(538.64 212.53)">27.46</text><text class="cls-3" transform="translate(534.01 112.45)">№328</text><polyline class="cls-5" points="525 223.34 525 74.27 649.32 74.27 649.32 223.34"/><line class="cls-5" x1="525" y1="124.06" x2="649.32" y2="124.06"/><line class="cls-5" x1="525" y1="223.34" x2="649.32" y2="223.34"/><line class="cls-5" x1="525" y1="173.84" x2="649.32" y2="173.84"/><text class="cls-6" transform="translate(125.2 248.03)">2.52</text><text class="cls-6" transform="translate(91.64 155)">3.72</text><text class="cls-6" transform="translate(292.69 114.23)">2.20</text><text class="cls-6" transform="translate(685.85 160.13)">19.02</text><line class="cls-7" x1="82.17" y1="175.33" x2="82.67" y2="175.33"/><line class="cls-8" x1="83.66" y1="175.33" x2="158.74" y2="175.33"/><line class="cls-7" x1="159.24" y1="175.33" x2="159.74" y2="175.33"/><line class="cls-7" x1="71.67" y1="181.97" x2="72.17" y2="181.97"/><line class="cls-8" x1="73.16" y1="181.97" x2="148.24" y2="181.97"/><line class="cls-7" x1="148.74" y1="181.97" x2="149.24" y2="181.97"/><line class="cls-7" x1="56.15" y1="299.43" x2="56.65" y2="299.43"/><line class="cls-8" x1="57.65" y1="299.43" x2="132.73" y2="299.43"/><line class="cls-7" x1="133.22" y1="299.43" x2="133.72" y2="299.43"/><line class="cls-7" x1="193.42" y1="271.09" x2="193.42" y2="270.59"/><line class="cls-8" x1="193.42" y1="269.6" x2="193.42" y2="194.52"/><line class="cls-7" x1="193.42" y1="194.02" x2="193.42" y2="193.52"/><line class="cls-7" x1="210.2" y1="271.09" x2="210.2" y2="270.59"/><line class="cls-8" x1="210.2" y1="269.6" x2="210.2" y2="194.52"/><line class="cls-7" x1="210.2" y1="194.02" x2="210.2" y2="193.52"/><polyline class="cls-9" points="258.86 30.95 255.48 30.95 252.2 30.95"/><polyline class="cls-9" points="258.86 64.51 255.48 64.51 252.2 64.51"/><line class="cls-9" x1="252.2" y1="26.78" x2="252.2" y2="30.95"/><line class="cls-9" x1="252.2" y1="64.51" x2="252.2" y2="68.68"/><line class="cls-9" x1="252.2" y1="75.43" x2="252.2" y2="161.01"/><line class="cls-9" x1="258.86" y1="167.67" x2="258.86" y2="64.51"/><polyline class="cls-9" points="258.86 30.95 258.86 26.78 252.2 26.78"/><line class="cls-9" x1="258.86" y1="64.51" x2="258.86" y2="30.95"/><line class="cls-9" x1="252.2" y1="64.51" x2="252.2" y2="30.95"/><path class="cls-9" d="M258.9,64.42a33.41,33.41,0,0,0,11.46-2"/><line class="cls-9" x1="258.86" y1="30.95" x2="270.31" y2="62.47"/><polyline class="cls-9" points="252.2 64.51 255.48 64.51 258.86 64.51 255.48 64.51"/><polyline class="cls-9" points="252.2 30.95 255.48 30.95 258.86 30.95 255.48 30.95"/><line class="cls-9" x1="147.26" y1="181.97" x2="147.26" y2="175.22"/><polyline class="cls-9" points="17.28 181.97 88.57 181.97 88.57 175.22"/><polyline class="cls-9" points="147.26 181.97 193.42 181.97 193.42 175.22 147.26 175.22"/><polyline class="cls-9" points="88.57 175.22 17.28 175.22 17.28 181.97"/><line class="cls-9" x1="88.57" y1="181.97" x2="88.57" y2="175.22"/><line class="cls-9" x1="147.26" y1="181.97" x2="147.26" y2="175.22"/><polyline class="cls-9" points="252.2 68.68 210.2 68.68 210.2 75.43 252.2 75.43"/><polyline class="cls-9" points="252.2 161.01 210.2 161.01 210.2 167.67"/><polyline class="cls-9" points="258.86 167.67 252.2 167.67 210.2 167.67"/><line class="cls-9" x1="716.08" y1="316.21" x2="716.08" y2="315.32"/><line class="cls-9" x1="716.08" y1="316.21" x2="716.08" y2="302.8"/><line class="cls-9" x1="716.08" y1="316.21" x2="716.08" y2="316.21"/><polyline class="cls-9" points="716.09 316.21 711.02 316.21 699.3 316.21 699.3 299.43"/><polyline class="cls-9" points="699.3 316.21 711.02 316.21 716.09 316.21 711.02 316.21"/><polyline class="cls-9" points="716.09 315.32 716.09 315.32 716.09 315.32"/><polyline class="cls-9" points="716.09 302.8 728.6 302.8 716.09 302.8"/><polyline class="cls-9" points="716.09 315.32 829.28 315.32 841.89 315.32"/><polyline class="cls-9" points="728.6 302.8 812.5 302.8 829.28 302.8"/><line class="cls-9" x1="716.08" y1="316.21" x2="842.69" y2="316.21"/><polyline class="cls-9" points="699.3 286.02 716.09 286.02 812.5 286.02"/><polyline class="cls-9" points="842.69 0.5 841.89 0.5 842.69 0.5"/><polyline class="cls-9" points="841.89 302.8 841.89 315.32 841.89 302.8"/><line class="cls-9" x1="841.89" y1="85.46" x2="841.89" y2="0.5"/><line class="cls-9" x1="841.89" y1="302.8" x2="841.89" y2="234.79"/><polyline class="cls-9" points="841.89 0.5 838.34 0.5 841.89 0.5"/><polyline class="cls-9" points="829.28 234.79 829.28 286.02 829.28 302.8 829.28 286.02"/><path class="cls-9" d="M829.28,26.78"/><line class="cls-9" x1="829.28" y1="85.46" x2="829.28" y2="0.5"/><line class="cls-9" x1="841.89" y1="231.51" x2="829.28" y2="231.51"/><line class="cls-9" x1="841.89" y1="88.83" x2="829.28" y2="88.83"/><polyline class="cls-9" points="829.28 234.79 829.28 232.31 829.28 231.51"/><line class="cls-9" x1="842.69" y1="231.51" x2="841.89" y2="231.51"/><polyline class="cls-9" points="829.28 85.46 829.28 88.04 829.28 88.83"/><line class="cls-9" x1="842.69" y1="88.83" x2="841.89" y2="88.83"/><line class="cls-9" x1="829.28" y1="234.79" x2="829.28" y2="234.79"/><polyline class="cls-9" points="841.89 234.79 841.89 232.31 829.28 232.31 841.89 232.31"/><line class="cls-9" x1="842.69" y1="232.31" x2="842.69" y2="231.51"/><line class="cls-9" x1="829.28" y1="85.46" x2="829.28" y2="85.46"/><polyline class="cls-9" points="841.89 85.46 841.89 88.04 829.28 88.04 841.89 88.04"/><line class="cls-9" x1="842.69" y1="88.04" x2="842.69" y2="88.83"/><polyline class="cls-9" points="829.28 234.79 824.31 234.79 812.5 234.79"/><polyline class="cls-9" points="829.28 85.46 824.31 85.46 812.5 85.46"/><polyline class="cls-9" points="842.69 316.21 842.69 315.32 842.69 232.31"/><polyline class="cls-9" points="842.69 0.5 842.69 0.5 842.69 88.04"/><line class="cls-9" x1="812.5" y1="26.78" x2="812.5" y2="85.46"/><line class="cls-9" x1="812.5" y1="234.79" x2="812.5" y2="286.02"/><polyline class="cls-9" points="842.69 231.51 842.69 88.83 846.95 88.83 846.95 231.51 842.69 231.51"/><line class="cls-9" x1="812.5" y1="85.46" x2="812.5" y2="234.79"/><polyline class="cls-9" points="824.31 85.46 824.31 90.08 827.6 90.08 827.6 92.21 829.28 92.21 829.28 85.46"/><polyline class="cls-9" points="829.28 160.13 829.28 156.84 827.6 156.84 827.6 158.88 824.31 158.88 824.31 160.13"/><line class="cls-9" x1="829.28" y1="156.84" x2="829.28" y2="92.21"/><polyline class="cls-9" points="822.62 90.08 822.62 95.14 822.62 153.91"/><polyline class="cls-9" points="822.62 95.14 827.6 95.14 827.6 90.08 822.62 90.08"/><polyline class="cls-9" points="827.6 158.88 827.6 153.91 822.62 153.91 822.62 158.88 827.6 158.88"/><line class="cls-9" x1="827.6" y1="153.91" x2="827.6" y2="95.14"/><line class="cls-9" x1="822.62" y1="95.14" x2="822.62" y2="153.91"/><line class="cls-9" x1="825.11" y1="95.14" x2="825.11" y2="153.91"/><polyline class="cls-9" points="824.31 160.13 824.31 161.46 827.6 161.46 827.6 163.5 829.28 163.5 829.28 160.13"/><polyline class="cls-9" points="829.28 234.79 829.28 228.13 827.6 228.13 827.6 230.18 824.31 230.18 824.31 234.79"/><line class="cls-9" x1="829.28" y1="228.13" x2="829.28" y2="163.5"/><polyline class="cls-9" points="822.62 161.46 822.62 166.43 822.62 225.2"/><polyline class="cls-9" points="822.62 166.43 827.6 166.43 827.6 161.46 822.62 161.46"/><polyline class="cls-9" points="827.6 230.18 827.6 225.2 822.62 225.2 822.62 230.18 827.6 230.18"/><line class="cls-9" x1="827.6" y1="225.2" x2="827.6" y2="166.43"/><line class="cls-9" x1="822.62" y1="166.43" x2="822.62" y2="225.2"/><line class="cls-9" x1="825.11" y1="166.43" x2="825.11" y2="225.2"/><polyline class="cls-9" points="812.5 85.46 824.31 85.46 829.28 85.46 824.31 85.46"/><polyline class="cls-9" points="812.5 234.79 824.31 234.79 829.28 234.79 824.31 234.79"/><line class="cls-9" x1="842.69" y1="88.83" x2="841.89" y2="88.83"/><polyline class="cls-9" points="829.28 88.83 829.28 88.04 829.28 88.83"/><polyline class="cls-9" points="829.28 88.04 829.28 85.46 829.28 88.04"/><line class="cls-9" x1="842.69" y1="231.51" x2="841.89" y2="231.51"/><polyline class="cls-9" points="829.28 231.51 829.28 232.31 829.28 231.51"/><polyline class="cls-9" points="829.28 232.31 829.28 234.79 829.28 232.31"/><line class="cls-9" x1="841.89" y1="88.83" x2="829.28" y2="88.83"/><line class="cls-9" x1="841.89" y1="231.51" x2="829.28" y2="231.51"/><polyline class="cls-9" points="55.01 299.43 55.01 292.68 55.01 282.65"/><polyline class="cls-9" points="138.91 299.43 138.91 292.68 138.91 282.65 193.42 282.65"/><polyline class="cls-9" points="55.01 282.65 17.28 282.65 17.28 299.43 55.01 299.43"/><polyline class="cls-9" points="138.91 299.43 193.42 299.43 193.42 282.65"/><path class="cls-9" d="M135.63,292.63a77.2,77.2,0,0,0-77.2-77.19"/><polyline class="cls-9" points="138.91 299.43 135.54 299.43 135.54 292.68 138.91 292.68 138.91 299.43"/><polyline class="cls-9" points="55.01 292.68 58.39 292.68 58.39 299.43 55.01 299.43 55.01 292.68"/><line class="cls-9" x1="58.39" y1="292.68" x2="58.39" y2="215.53"/><polyline class="cls-9" points="138.91 282.65 138.91 292.68 138.91 299.43 138.91 292.68"/><polyline class="cls-9" points="55.01 282.65 55.01 292.68 55.01 299.43 55.01 292.68"/><polyline class="cls-9" points="812.5 0.5 829.28 0.5 829.28 0.5 829.28 0.5 838.34 0.5 829.28 0.5"/><polyline class="cls-9" points="812.5 0.5 829.28 0.5 829.28 0.5 829.28 0.5"/><path class="cls-9" d="M829.28.5"/><polyline class="cls-9" points="812.5 0.5 812.5 0.5 829.28 0.5"/><line class="cls-9" x1="842.69" y1="0.5" x2="812.5" y2="0.5"/><line class="cls-9" x1="812.5" y1="0.5" x2="0.5" y2="0.5"/><line class="cls-9" x1="0.5" y1="26.78" x2="0.5" y2="26.78"/><line class="cls-9" x1="17.28" y1="26.78" x2="193.42" y2="26.78"/><line class="cls-9" x1="210.2" y1="26.78" x2="812.5" y2="26.78"/><polyline class="cls-9" points="307.51 77.12 353.68 77.12 353.68 30.95 307.51 30.95 307.51 77.12"/><polyline class="cls-9" points="311.68 72.94 349.5 72.94 349.5 39.38 311.68 39.38 311.68 72.94"/><line class="cls-9" x1="72.59" y1="34.06" x2="29.89" y2="34.06"/><line class="cls-9" x1="24.83" y1="38.76" x2="24.83" y2="142.64"/><line class="cls-9" x1="77.65" y1="38.76" x2="77.65" y2="142.64"/><line class="cls-9" x1="19.77" y1="171.94" x2="19.77" y2="29.26"/><polyline class="cls-9" points="19.77 171.94 82.71 171.94 82.71 29.26 19.77 29.26"/><line class="cls-9" x1="68.95" y1="125.95" x2="68.95" y2="44.71"/><line class="cls-9" x1="66.38" y1="42.31" x2="36.1" y2="42.31"/><line class="cls-9" x1="33.62" y1="125.95" x2="33.62" y2="44.71"/><line class="cls-9" x1="52.79" y1="59" x2="55.9" y2="59"/><line class="cls-9" x1="51.28" y1="57.58" x2="51.28" y2="54.65"/><line class="cls-9" x1="49.69" y1="59" x2="46.58" y2="59"/><line class="cls-9" x1="51.28" y1="60.42" x2="51.28" y2="63.44"/><path class="cls-9" d="M24.92,142.59c0,13.81,11.82,25,26.41,25s26.41-11.18,26.41-25"/><path class="cls-9" d="M29.93,34a4.88,4.88,0,0,0-5,4.75"/><path class="cls-9" d="M77.65,38.72a4.88,4.88,0,0,0-5-4.75"/><path class="cls-9" d="M54,59a2.63,2.63,0,1,0-2.62,2.44A2.54,2.54,0,0,0,54,59"/><path class="cls-9" d="M33.62,125.9c0,9.2,7.93,16.65,17.71,16.65S69,135.1,69,125.9"/><path class="cls-9" d="M69,44.67a2.45,2.45,0,0,0-2.53-2.36"/><path class="cls-9" d="M36.15,42.31a2.45,2.45,0,0,0-2.53,2.36"/><path class="cls-9" d="M54.83,59a3.51,3.51,0,1,0-3.5,3.33A3.42,3.42,0,0,0,54.83,59"/><polyline class="cls-9" points="171.76 89.55 190.94 89.55 190.94 134.82 171.76 134.82"/><line class="cls-9" x1="190.94" y1="119.38" x2="190.94" y2="105.08"/><line class="cls-9" x1="175.58" y1="116" x2="175.58" y2="113.61"/><line class="cls-9" x1="179.4" y1="112.18" x2="176.91" y2="112.18"/><line class="cls-9" x1="175.58" y1="110.76" x2="175.58" y2="108.37"/><line class="cls-9" x1="174.16" y1="112.18" x2="171.76" y2="112.18"/><path class="cls-9" d="M180.16,100.12a20.15,20.15,0,0,0-9.55-7.83"/><path class="cls-9" d="M183,112.16a20.19,20.19,0,0,0-2.83-12"/><path class="cls-9" d="M170.61,132.08a20.15,20.15,0,0,0,9.55-7.83"/><path class="cls-9" d="M180.14,124.25a20.19,20.19,0,0,0,2.83-12"/><path class="cls-9" d="M160.42,96.82a37.2,37.2,0,0,0-3.74,13.74"/><path class="cls-9" d="M162.31,130.52a11.47,11.47,0,0,0,9.46,4.29"/><path class="cls-9" d="M156.55,110.55a21.1,21.1,0,0,0,0,3.18"/><path class="cls-9" d="M179.4,124.81a82.56,82.56,0,0,0,0-25.35"/><path class="cls-9" d="M168.83,133.58a28.51,28.51,0,0,0,18.5-6.42"/><path class="cls-9" d="M188.65,125.12a57.2,57.2,0,0,0,1.4-13"/><path class="cls-9" d="M187.33,127.22a3.79,3.79,0,0,0,1.3-2.08"/><path class="cls-9" d="M187.35,124.93a95.73,95.73,0,0,0,.92-12.77"/><path class="cls-9" d="M168.81,133.67a25.64,25.64,0,0,0,17.27-6.4"/><path class="cls-9" d="M186.11,127.22a3.7,3.7,0,0,0,1.24-2.31"/><path class="cls-9" d="M186.11,97.12a25.64,25.64,0,0,0-17.27-6.42"/><path class="cls-9" d="M187.36,97.15a28.5,28.5,0,0,0-18.49-6.45"/><path class="cls-9" d="M188.27,112.17a95.71,95.71,0,0,0-.9-12.77"/><path class="cls-9" d="M190.05,112.2a56.48,56.48,0,0,0-1.39-13"/><path class="cls-9" d="M187.35,99.37a3.75,3.75,0,0,0-1.24-2.31"/><path class="cls-9" d="M188.63,99.24a3.8,3.8,0,0,0-1.29-2.09"/><path class="cls-9" d="M171.77,89.56a11.47,11.47,0,0,0-9.46,4.29"/><path class="cls-9" d="M162.28,93.77a17.62,17.62,0,0,0-1.95,3"/><path class="cls-9" d="M160.33,127.5a17.62,17.62,0,0,0,1.95,3"/><path class="cls-9" d="M156.68,113.72a37.2,37.2,0,0,0,3.74,13.74"/><path class="cls-9" d="M159.81,105.9a26.59,26.59,0,0,0,0,12.48"/><path class="cls-9" d="M170.58,92.31a6.79,6.79,0,0,0-5.6,2.34"/><path class="cls-9" d="M165.06,94.64a24.5,24.5,0,0,0-5.18,11.29"/><path class="cls-9" d="M165,129.72a6.79,6.79,0,0,0,5.6,2.34"/><path class="cls-9" d="M159.88,118.36a24.51,24.51,0,0,0,5.18,11.28"/><path class="cls-9" d="M178.6,112.14a3,3,0,1,0-3,3,3,3,0,0,0,3-3"/><path class="cls-9" d="M177.71,112.14a2.09,2.09,0,1,0-2.09,2.09,2.09,2.09,0,0,0,2.09-2.09"/><line class="cls-9" x1="177.98" y1="45.69" x2="148.41" y2="45.69"/><polyline class="cls-9" points="179.84 44.35 190.94 44.35 190.94 76.32"/><line class="cls-9" x1="172.83" y1="60.34" x2="172.83" y2="72.14"/><polyline class="cls-9" points="148.41 45.69 172.83 48.53 172.83 60.34"/><line class="cls-9" x1="148.41" y1="74.98" x2="172.83" y2="72.14"/><line class="cls-9" x1="148.41" y1="46.4" x2="172.83" y2="49.24"/><line class="cls-9" x1="148.41" y1="74.27" x2="172.83" y2="71.43"/><line class="cls-9" x1="178.06" y1="74.98" x2="148.41" y2="74.98"/><line class="cls-9" x1="190.94" y1="76.32" x2="179.84" y2="76.32"/><polyline class="cls-9" points="148.41 45.69 145.13 46.04 142.11 47.28 139.35 49.33 137.14 51.99 135.63 55.1 134.83 58.56 134.83 62.11 135.63 65.57 137.14 68.68 139.35 71.34 142.11 73.39 145.13 74.63 148.41 74.98"/><polyline class="cls-9" points="148.41 46.4 145.3 46.84 142.37 47.99 139.8 49.95 137.76 52.43 136.34 55.36 135.54 58.65 135.54 62.02 136.34 65.31 137.76 68.24 139.8 70.72 142.37 72.68 145.3 73.83 148.41 74.28"/><path class="cls-9" d="M178,46a135.07,135.07,0,0,0,0,28.57"/><path class="cls-9" d="M179.88,44.36A1.86,1.86,0,0,0,178,46"/><path class="cls-9" d="M178,74.59a1.86,1.86,0,0,0,1.89,1.64"/><path class="cls-9" d="M185.52,60.29a1.56,1.56,0,0,0-3.11,0,1.56,1.56,0,1,0,3.11,0"/><polyline class="cls-9" points="844.82 169.36 890.99 169.36 890.99 169.8 844.82 169.8 844.82 169.36"/><polyline class="cls-9" points="892.23 168.12 892.23 90.97 892.67 90.97 892.67 168.12 892.23 168.12"/><polyline class="cls-9" points="890.99 89.72 844.82 89.72 844.82 89.28 890.99 89.28 890.99 89.72"/><polyline class="cls-9" points="842.69 168.12 844.82 168.12 844.82 170.25 842.69 170.25 842.69 168.12"/><polyline class="cls-9" points="890.99 168.12 893.03 168.12 893.03 170.25 890.99 170.25 890.99 168.12"/><polyline class="cls-9" points="890.99 90.97 890.99 88.83 893.03 88.83 893.03 90.97 890.99 90.97"/><polyline class="cls-9" points="844.82 90.97 842.69 90.97 842.69 88.83 844.82 88.83 844.82 90.97"/><line class="cls-9" x1="843.75" y1="168.12" x2="890.99" y2="168.12"/><line class="cls-9" x1="893.03" y1="170.25" x2="843.75" y2="170.25"/><line class="cls-9" x1="890.99" y1="168.12" x2="890.99" y2="90.97"/><line class="cls-9" x1="893.03" y1="88.83" x2="893.03" y2="170.25"/><line class="cls-9" x1="890.99" y1="90.97" x2="843.75" y2="90.97"/><line class="cls-9" x1="843.75" y1="88.83" x2="893.03" y2="88.83"/><polyline class="cls-9" points="843.75 170.25 842.69 170.25 842.69 168.12 843.75 168.12"/><polyline class="cls-9" points="843.75 90.97 842.69 90.97 842.69 88.83 843.75 88.83"/><polyline class="cls-9" points="893.03 88.83 893.03 170.25 843.75 170.25 843.75 168.12 890.99 168.12 890.99 90.97 843.75 90.97 843.75 88.83 893.03 88.83"/><polyline class="cls-9" points="877.93 93.1 877.93 166.07 851.12 166.07 851.12 93.1 877.93 93.1"/><polyline class="cls-9" points="875.27 93.1 875.27 166.07 851.12 166.07 851.12 93.1 875.27 93.1"/><line class="cls-9" x1="699.3" y1="286.02" x2="210.2" y2="286.02"/><polyline class="cls-9" points="193.42 286.02 193.42 299.43 287.85 299.43"/><line class="cls-9" x1="210.2" y1="299.43" x2="699.3" y2="299.43"/><line class="cls-9" x1="17.28" y1="299.43" x2="17.28" y2="26.78"/><polyline class="cls-9" points="0.5 0.5 0.5 299.43 51.24 299.43"/><line class="cls-9" x1="210.2" y1="269.24" x2="193.42" y2="269.24"/><line class="cls-9" x1="210.2" y1="193.69" x2="193.42" y2="193.69"/><line class="cls-9" x1="210.2" y1="286.02" x2="210.2" y2="269.24"/><line class="cls-9" x1="210.2" y1="193.69" x2="210.2" y2="26.78"/><line class="cls-9" x1="193.42" y1="26.78" x2="193.42" y2="193.69"/><line class="cls-9" x1="193.42" y1="269.24" x2="193.42" y2="286.02"/><line class="cls-9" x1="210.2" y1="193.69" x2="193.42" y2="193.69"/><line class="cls-9" x1="210.2" y1="269.24" x2="193.42" y2="269.24"/><line class="cls-5" x1="258.23" y1="127.46" x2="259.73" y2="127.46"/><line class="cls-10" x1="262.7" y1="127.46" x2="409.38" y2="127.46"/><polyline class="cls-5" points="410.86 127.45 412.36 127.45 412.36 125.95"/><line class="cls-11" x1="412.36" y1="123" x2="412.36" y2="29.76"/><line class="cls-5" x1="412.36" y1="28.28" x2="412.36" y2="26.78"/></svg>