<?xml version="1.0" encoding="UTF-8"?>
<svg width="43px" height="36px" viewBox="0 0 43 36" version="1.1" xmlns="http://www.w3.org/2000/svg" xmlns:xlink="http://www.w3.org/1999/xlink">
    <!-- Generator: Sketch 55.2 (78181) - https://sketchapp.com -->
    <title>Остановка</title>
    <desc>Created with Sketch.</desc>
    <defs>
        <path d="M6.8401455,21.1301091 L-7.66951701e-17,16 L6.8401455,10.8698909 C8.97819945,4.54960393 14.9577913,0 22,0 C30.836556,0 38,7.163444 38,16 C38,24.836556 30.836556,32 22,32 C14.9577913,32 8.97819945,27.4503961 6.8401455,21.1301091 Z" id="path-1"></path>
        <filter x="-11.0%" y="-7.8%" width="120.2%" height="121.9%" filterUnits="objectBoundingBox" id="filter-2">
            <feMorphology radius="0.5" operator="dilate" in="SourceAlpha" result="shadowSpreadOuter1"></feMorphology>
            <feOffset dx="0" dy="1" in="shadowSpreadOuter1" result="shadowOffsetOuter1"></feOffset>
            <feGaussianBlur stdDeviation="0.5" in="shadowOffsetOuter1" result="shadowBlurOuter1"></feGaussianBlur>
            <feColorMatrix values="0 0 0 0 0   0 0 0 0 0   0 0 0 0 0  0 0 0 0.2 0" type="matrix" in="shadowBlurOuter1"></feColorMatrix>
        </filter>
    </defs>
    <g id="Расположение++" stroke="none" stroke-width="1" fill="none" fill-rule="evenodd">
        <g id="Новотомилино_расположение_состояния-элементов" transform="translate(-47.000000, -454.000000)">
            <g id="Остановка-+-подпись" transform="translate(50.000000, 455.000000)">
                <g id="Остановка">
                    <g id="Combined-Shape">
                        <use fill="black" fill-opacity="1" filter="url(#filter-2)" xlink:href="#path-1"></use>
                        <use fill="#297ACC" fill-rule="evenodd" xlink:href="#path-1"></use>
                    </g>
                    <g id="Shape-4" transform="translate(15.000000, 8.000000)" fill="#FFFFFF" fill-rule="nonzero">
                        <path d="M13.4139535,2.43274972 C13.3054372,1.99610234 13.1209302,1.66340822 12.8604651,1.43469855 C12.6,1.20598889 12.2201442,0.998051169 11.7209302,0.810916575 C11.2217163,0.602978851 10.5054372,0.415844257 9.57209302,0.249512792 C8.63874884,0.0831813271 7.7868,0 7.01627907,0 C6.24572558,0 5.3938093,0.0831813271 4.46046512,0.249512792 C3.52712093,0.415844257 2.81084186,0.602978851 2.31162791,0.810916575 C1.81241395,0.998051169 1.43255814,1.20598889 1.17209302,1.43469855 C0.911627907,1.66340822 0.737995349,1.99610234 0.651162791,2.43274972 L0,7.42300557 L0,14.3781746 L1.00930233,14.3781746 L1.00930233,15.0019566 C1.00930233,15.4178009 1.14497209,15.7089199 1.41627907,15.8752514 C1.68758605,16.0415829 1.96433023,16.0415829 2.24651163,15.8752514 C2.52869302,15.7089199 2.66976744,15.4178009 2.66976744,15.0019566 L2.66976744,14.3781746 L11.0046512,14.3781746 L11.0046512,15.0019566 C11.0046512,15.4178009 11.1728791,15.7089199 11.5093023,15.8752514 C11.8457256,16.0415829 12.1767442,16.0415829 12.5023256,15.8752514 C12.827907,15.7089199 12.9906977,15.4178009 12.9906977,15.0019566 L12.9906977,14.3781746 L14,14.3781746 L14,7.42300557 L13.4139535,2.43274972 Z M3.54883721,1.20078031 C3.63566977,1.04483482 3.7876186,0.96686207 4.00465116,0.96686207 L10.6790698,0.96686207 L10.6790698,1.90253504 L4.00465116,1.90253504 C3.78758605,1.90253504 3.63566977,1.82456229 3.54883721,1.6686168 C3.46200465,1.5126713 3.46200465,1.35672581 3.54883721,1.20078031 Z M1.17209302,7.29824917 L1.7255814,3.49317909 C1.7689814,3.28524137 1.95348837,3.1812881 2.27906977,3.1812881 L11.8186047,3.1812881 C12.144186,3.1812881 12.328693,3.28524137 12.372093,3.49317909 L12.9255814,7.36062737 C12.9472977,7.42300557 12.9581395,7.46458064 12.9581395,7.48538376 C12.9581395,7.63094329 12.9038651,7.75049111 12.7953488,7.8440584 C12.6868326,7.9376257 12.5457256,7.98440935 12.372093,7.98440935 L1.7255814,7.98440935 C1.55194884,7.98440935 1.41084186,7.93241712 1.30232558,7.82846385 C1.1938093,7.72451059 1.13953488,7.58933703 1.13953488,7.42300557 C1.13953488,7.3814305 1.15037674,7.33982424 1.17209302,7.29824917 Z M2.89767442,11.9610195 C2.6806093,12.15854 2.4255814,12.2573159 2.13255814,12.2573159 C1.83953488,12.2573159 1.58450698,12.15854 1.36744186,11.9610195 C1.15037674,11.7634989 1.04186047,11.5243721 1.04186047,11.2436702 C1.04186047,10.9629683 1.15037674,10.7238415 1.36744186,10.5263209 C1.58450698,10.3288004 1.83953488,10.2300245 2.13255814,10.2300245 C2.4255814,10.2300245 2.6806093,10.3288004 2.89767442,10.5263209 C3.11473953,10.7238415 3.22325581,10.9629683 3.22325581,11.2436702 C3.22325581,11.5243721 3.11473953,11.7634989 2.89767442,11.9610195 Z M12.7302326,11.9610195 C12.5131674,12.15854 12.2581395,12.2573159 11.9651163,12.2573159 C11.672093,12.2573159 11.4170651,12.15854 11.2,11.9610195 C10.9829349,11.7634989 10.8744186,11.5243721 10.8744186,11.2436702 C10.8744186,10.9629683 10.9829349,10.7238415 11.2,10.5263209 C11.4170651,10.3288004 11.672093,10.2300245 11.9651163,10.2300245 C12.2581395,10.2300245 12.5131674,10.3288004 12.7302326,10.5263209 C12.9472977,10.7238415 13.055814,10.9629683 13.055814,11.2436702 C13.055814,11.5243721 12.9472977,11.7634989 12.7302326,11.9610195 Z" id="Shape"></path>
                    </g>
                </g>
            </g>
        </g>
    </g>
</svg>