<svg id="_75" data-name="75" xmlns="http://www.w3.org/2000/svg" viewBox="0 0 472.39 819.29"><defs><style>.cls-1{isolation:isolate;font-size:12px;fill:#969696;}.cls-1,.cls-3,.cls-5{font-family:PTSans-Regular, PT Sans;}.cls-2,.cls-4,.cls-6,.cls-7{fill:none;stroke-linecap:round;stroke-linejoin:round;}.cls-2{stroke:#969696;stroke-width:0.75px;}.cls-3{font-size:40px;}.cls-4,.cls-6,.cls-7{stroke:#000;}.cls-4{stroke-width:0.5px;}.cls-5{font-size:36px;}.cls-6{stroke-width:0.25px;stroke-dasharray:1 1;}</style></defs><title>9floor_75flat</title><text class="cls-1" transform="translate(230.62 816.09)">двор</text><line class="cls-2" x1="219.86" y1="818.91" x2="219.86" y2="810.11"/><polyline class="cls-2" points="216.36 815.41 219.86 818.91 223.36 815.41"/><text class="cls-3" transform="translate(318.52 512.92)">2E</text><text class="cls-3" transform="translate(292.26 563.09)">45.39</text><text class="cls-3" transform="translate(297.88 463.02)">№75</text><polyline class="cls-4" points="277.97 573.91 277.97 424.83 402.3 424.83 402.3 573.91"/><line class="cls-4" x1="277.97" y1="474.62" x2="402.3" y2="474.62"/><line class="cls-4" x1="277.97" y1="573.91" x2="402.3" y2="573.91"/><line class="cls-4" x1="277.97" y1="524.4" x2="402.3" y2="524.4"/><text class="cls-5" transform="translate(301.11 653.79)">13.68</text><text class="cls-5" transform="translate(69.27 653.79)">16.34</text><text class="cls-5" transform="translate(326.26 152.82)">4.18</text><text class="cls-5" transform="translate(196.29 152.82)">5.36</text><text class="cls-5" transform="translate(320.7 327.87)">2.20</text><text class="cls-5" transform="translate(42.95 152.82)">3.63</text><line class="cls-6" x1="220.28" y1="219.75" x2="150.17" y2="219.75"/><line class="cls-6" x1="306.11" y1="219.75" x2="236" y2="219.75"/><line class="cls-6" x1="143.08" y1="112.67" x2="143.08" y2="182.78"/><line class="cls-6" x1="149.78" y1="112.67" x2="149.78" y2="182.78"/><line class="cls-6" x1="312.27" y1="108.81" x2="312.27" y2="178.92"/><line class="cls-6" x1="318.49" y1="108.81" x2="318.49" y2="178.92"/><line class="cls-6" x1="306.11" y1="226.06" x2="236" y2="226.06"/><line class="cls-6" x1="246.07" y1="0.53" x2="173.75" y2="0.53"/><line class="cls-6" x1="220.28" y1="226.06" x2="150.17" y2="226.06"/><line class="cls-7" x1="424.99" y1="727.83" x2="471.89" y2="718.1"/><line class="cls-7" x1="421.91" y1="728.49" x2="420.33" y2="720.76"/><line class="cls-7" x1="422.08" y1="729.24" x2="421.91" y2="728.49"/><line class="cls-7" x1="423.41" y1="720.18" x2="423.41" y2="720.18"/><polyline class="cls-7" points="424.99 727.83 422.66 728.33 421.08 720.59 422.66 728.33"/><line class="cls-7" x1="422.83" y1="729.07" x2="422.08" y2="729.24"/><polyline class="cls-7" points="423.41 720.18 422.41 715.52 419.42 700.88"/><line class="cls-7" x1="422.83" y1="729.07" x2="471.89" y2="718.85"/><line class="cls-7" x1="456.17" y1="693.33" x2="419.42" y2="700.89"/><polyline class="cls-7" points="350.07 748.03 422.83 733.07 422.08 729.24"/><line class="cls-7" x1="350.07" y1="715.19" x2="419.42" y2="700.89"/><line class="cls-7" x1="350.07" y1="744.04" x2="422.08" y2="729.24"/><line class="cls-7" x1="350.07" y1="715.19" x2="419.42" y2="700.89"/><polyline class="cls-7" points="350.07 730.4 354.31 729.57 354.98 732.65 356.89 732.23 357.22 733.73 351.07 735.06 350.07 735.23"/><polyline class="cls-7" points="423.41 720.18 417.25 721.42 416.92 719.84 418.83 719.51 418.17 716.43 422.41 715.52"/><line class="cls-7" x1="417.26" y1="721.42" x2="357.22" y2="733.73"/><polyline class="cls-7" points="354.06 727.99 358.63 727.08 413.26 715.77"/><polyline class="cls-7" points="358.63 727.08 359.55 731.65 354.98 732.65 354.06 727.99"/><polyline class="cls-7" points="418.83 719.51 414.26 720.43 413.26 715.77 417.92 714.86 418.83 719.51"/><line class="cls-7" x1="414.26" y1="720.43" x2="359.55" y2="731.65"/><line class="cls-7" x1="358.63" y1="727.08" x2="413.26" y2="715.77"/><line class="cls-7" x1="359.13" y1="729.32" x2="413.76" y2="718.1"/><line class="cls-7" x1="351.07" y1="735.06" x2="350.07" y2="730.4"/><polyline class="cls-7" points="419.42 700.88 422.41 715.52 423.41 720.18 422.41 715.52"/><line class="cls-7" x1="422.08" y1="729.24" x2="421.91" y2="728.49"/><polyline class="cls-7" points="420.33 720.76 421.08 720.59 420.33 720.76"/><polyline class="cls-7" points="421.08 720.59 423.41 720.18 421.08 720.59"/><line class="cls-7" x1="421.91" y1="728.49" x2="420.33" y2="720.76"/><line class="cls-7" x1="234.99" y1="719.59" x2="275.23" y2="727.83"/><line class="cls-7" x1="278.31" y1="728.49" x2="279.89" y2="720.76"/><line class="cls-7" x1="278.14" y1="729.24" x2="278.31" y2="728.49"/><line class="cls-7" x1="276.81" y1="720.18" x2="276.81" y2="720.18"/><polyline class="cls-7" points="275.23 727.83 277.56 728.33 279.14 720.59 277.56 728.33"/><line class="cls-7" x1="277.39" y1="729.07" x2="278.14" y2="729.24"/><polyline class="cls-7" points="276.81 720.18 277.73 715.52 280.8 700.88"/><line class="cls-7" x1="234.99" y1="720.34" x2="277.39" y2="729.07"/><line class="cls-7" x1="280.8" y1="700.89" x2="234.99" y2="691.49"/><polyline class="cls-7" points="350.07 748.03 277.39 733.07 278.14 729.24"/><line class="cls-7" x1="350.07" y1="715.19" x2="280.8" y2="700.89"/><line class="cls-7" x1="350.07" y1="744.04" x2="278.14" y2="729.24"/><line class="cls-7" x1="350.07" y1="715.19" x2="280.8" y2="700.89"/><polyline class="cls-7" points="350.07 730.4 345.91 729.57 345.25 732.65 343.33 732.23 343 733.73 349.15 735.06 350.07 735.23"/><polyline class="cls-7" points="276.81 720.18 282.97 721.42 283.3 719.84 281.39 719.51 281.97 716.43 277.73 715.52"/><line class="cls-7" x1="282.97" y1="721.42" x2="343" y2="733.73"/><polyline class="cls-7" points="346.16 727.99 341.59 727.08 286.96 715.77"/><polyline class="cls-7" points="341.59 727.08 340.59 731.65 345.25 732.65 346.16 727.99"/><polyline class="cls-7" points="281.39 719.51 285.96 720.43 286.96 715.77 282.3 714.86 281.39 719.51"/><line class="cls-7" x1="285.96" y1="720.43" x2="340.59" y2="731.65"/><line class="cls-7" x1="341.59" y1="727.08" x2="286.96" y2="715.77"/><line class="cls-7" x1="341.09" y1="729.32" x2="286.46" y2="718.1"/><line class="cls-7" x1="349.15" y1="735.06" x2="350.07" y2="730.4"/><polyline class="cls-7" points="280.8 700.88 277.73 715.52 276.81 720.18 277.73 715.52"/><line class="cls-7" x1="278.14" y1="729.24" x2="278.31" y2="728.49"/><polyline class="cls-7" points="279.89 720.76 279.14 720.59 279.89 720.76"/><polyline class="cls-7" points="279.14 720.59 276.81 720.18 279.14 720.59"/><line class="cls-7" x1="278.31" y1="728.49" x2="279.89" y2="720.76"/><polyline class="cls-7" points="233.07 719.93 234.99 719.59 233.07 719.93 194.82 727.83"/><line class="cls-7" x1="191.75" y1="728.49" x2="190.17" y2="720.76"/><line class="cls-7" x1="191.91" y1="729.24" x2="191.75" y2="728.49"/><line class="cls-7" x1="193.25" y1="720.18" x2="193.25" y2="720.18"/><polyline class="cls-7" points="194.82 727.83 192.5 728.33 190.92 720.59 192.5 728.33"/><line class="cls-7" x1="192.66" y1="729.07" x2="191.91" y2="729.24"/><polyline class="cls-7" points="193.25 720.18 192.25 715.52 189.25 700.88"/><line class="cls-7" x1="192.66" y1="729.07" x2="234.99" y2="720.34"/><line class="cls-7" x1="234.99" y1="691.49" x2="189.25" y2="700.89"/><polyline class="cls-7" points="119.91 748.03 192.66 733.07 191.91 729.24"/><line class="cls-7" x1="119.91" y1="715.19" x2="189.25" y2="700.89"/><line class="cls-7" x1="119.91" y1="744.04" x2="191.91" y2="729.24"/><line class="cls-7" x1="119.91" y1="715.19" x2="189.25" y2="700.89"/><polyline class="cls-7" points="119.91 730.4 124.15 729.57 124.81 732.65 126.72 732.23 127.06 733.73 120.9 735.06 119.91 735.23"/><polyline class="cls-7" points="193.25 720.18 187.09 721.42 186.76 719.84 188.67 719.51 188.09 716.43 192.25 715.52"/><line class="cls-7" x1="187.09" y1="721.42" x2="127.06" y2="733.73"/><polyline class="cls-7" points="123.9 727.99 128.47 727.08 183.1 715.77"/><polyline class="cls-7" points="128.47 727.08 129.38 731.65 124.81 732.65 123.9 727.99"/><polyline class="cls-7" points="188.67 719.51 184.1 720.43 183.1 715.77 187.76 714.86 188.67 719.51"/><line class="cls-7" x1="184.1" y1="720.43" x2="129.38" y2="731.65"/><line class="cls-7" x1="128.47" y1="727.08" x2="183.1" y2="715.77"/><line class="cls-7" x1="128.97" y1="729.32" x2="183.6" y2="718.1"/><line class="cls-7" x1="120.9" y1="735.06" x2="119.91" y2="730.4"/><polyline class="cls-7" points="189.25 700.88 192.25 715.52 193.25 720.18 192.25 715.52"/><line class="cls-7" x1="191.91" y1="729.24" x2="191.75" y2="728.49"/><polyline class="cls-7" points="190.17 720.76 190.92 720.59 190.17 720.76"/><polyline class="cls-7" points="190.92 720.59 193.25 720.18 190.92 720.59"/><line class="cls-7" x1="191.75" y1="728.49" x2="190.17" y2="720.76"/><line class="cls-7" x1="0.5" y1="718.47" x2="45.07" y2="727.83"/><line class="cls-7" x1="48.15" y1="728.49" x2="49.73" y2="720.76"/><line class="cls-7" x1="47.98" y1="729.24" x2="48.15" y2="728.49"/><line class="cls-7" x1="46.65" y1="720.18" x2="46.65" y2="720.18"/><polyline class="cls-7" points="45.07 727.83 47.4 728.33 48.98 720.59 47.4 728.33"/><line class="cls-7" x1="47.23" y1="729.07" x2="47.98" y2="729.24"/><polyline class="cls-7" points="46.65 720.18 47.56 715.52 50.64 700.88"/><line class="cls-7" x1="0.5" y1="719.3" x2="47.23" y2="729.07"/><line class="cls-7" x1="50.64" y1="700.89" x2="16.22" y2="693.85"/><polyline class="cls-7" points="119.91 748.03 47.23 733.07 47.98 729.24"/><line class="cls-7" x1="119.91" y1="715.19" x2="50.64" y2="700.89"/><line class="cls-7" x1="119.91" y1="744.04" x2="47.98" y2="729.24"/><line class="cls-7" x1="119.91" y1="715.19" x2="50.64" y2="700.89"/><polyline class="cls-7" points="119.91 730.4 115.75 729.57 115.08 732.65 113.17 732.23 112.84 733.73 118.99 735.06 119.91 735.23"/><polyline class="cls-7" points="46.65 720.18 52.8 721.42 53.13 719.84 51.22 719.51 51.8 716.43 47.56 715.52"/><line class="cls-7" x1="52.8" y1="721.42" x2="112.84" y2="733.73"/><polyline class="cls-7" points="116 727.99 111.42 727.08 56.79 715.77"/><polyline class="cls-7" points="111.42 727.08 110.43 731.65 115.08 732.65 116 727.99"/><polyline class="cls-7" points="51.22 719.51 55.8 720.43 56.79 715.77 52.14 714.86 51.22 719.51"/><line class="cls-7" x1="55.8" y1="720.43" x2="110.43" y2="731.65"/><line class="cls-7" x1="111.42" y1="727.08" x2="56.79" y2="715.77"/><line class="cls-7" x1="110.93" y1="729.32" x2="56.29" y2="718.1"/><line class="cls-7" x1="118.99" y1="735.06" x2="119.91" y2="730.4"/><polyline class="cls-7" points="50.64 700.88 47.56 715.52 46.65 720.18 47.56 715.52"/><line class="cls-7" x1="47.98" y1="729.24" x2="48.15" y2="728.49"/><polyline class="cls-7" points="49.73 720.76 48.98 720.59 49.73 720.76"/><polyline class="cls-7" points="48.98 720.59 46.65 720.18 48.98 720.59"/><line class="cls-7" x1="48.15" y1="728.49" x2="49.73" y2="720.76"/><polyline class="cls-7" points="452.26 219.69 452.26 222.85 452.26 226.01"/><polyline class="cls-7" points="420.83 219.69 420.83 222.85 420.83 226.01"/><line class="cls-7" x1="456.17" y1="219.69" x2="452.26" y2="219.69"/><line class="cls-7" x1="420.83" y1="219.69" x2="318.64" y2="219.69"/><line class="cls-7" x1="318.64" y1="226.01" x2="410.6" y2="226.01"/><line class="cls-7" x1="416.92" y1="226.01" x2="420.83" y2="226.01"/><polyline class="cls-7" points="452.26 226.01 456.17 226.01 456.17 219.69"/><line class="cls-7" x1="420.83" y1="219.69" x2="452.26" y2="219.69"/><line class="cls-7" x1="420.83" y1="226.01" x2="452.26" y2="226.01"/><path class="cls-7" d="M422.81,209a31.24,31.24,0,0,0-1.9,10.74"/><line class="cls-7" x1="452.26" y1="219.69" x2="422.74" y2="208.96"/><polyline class="cls-7" points="420.83 226.01 420.83 222.85 420.83 219.69 420.83 222.85"/><polyline class="cls-7" points="452.26 226.01 452.26 222.85 452.26 219.69 452.26 222.85"/><line class="cls-7" x1="318.64" y1="117.58" x2="312.4" y2="117.58"/><line class="cls-7" x1="318.64" y1="172.54" x2="312.4" y2="172.54"/><line class="cls-7" x1="318.64" y1="269.16" x2="318.64" y2="226.01"/><line class="cls-7" x1="318.64" y1="219.69" x2="318.64" y2="172.54"/><polyline class="cls-7" points="318.64 117.58 318.64 31.93 312.4 31.93 312.4 117.58"/><line class="cls-7" x1="312.4" y1="172.54" x2="312.4" y2="275.48"/><line class="cls-7" x1="318.64" y1="172.54" x2="312.4" y2="172.54"/><line class="cls-7" x1="318.64" y1="117.58" x2="312.4" y2="117.58"/><polyline class="cls-7" points="312.4 275.48 318.64 275.48 456.17 275.48 456.17 269.16 416.92 269.16"/><polyline class="cls-7" points="410.6 226.01 410.6 269.16 318.64 269.16"/><line class="cls-7" x1="416.92" y1="269.16" x2="416.92" y2="226.01"/><line class="cls-7" x1="236.15" y1="699.72" x2="236.15" y2="226.01"/><polyline class="cls-7" points="229.91 226.01 229.91 699.72 236.15 699.72"/><line class="cls-7" x1="143.44" y1="117.58" x2="149.76" y2="117.58"/><line class="cls-7" x1="143.44" y1="172.54" x2="149.76" y2="172.54"/><line class="cls-7" x1="143.44" y1="43.74" x2="143.44" y2="117.58"/><line class="cls-7" x1="143.44" y1="172.54" x2="143.44" y2="219.69"/><line class="cls-7" x1="149.76" y1="219.69" x2="149.76" y2="172.54"/><polyline class="cls-7" points="149.76 117.58 149.76 43.74 143.44 43.74"/><line class="cls-7" x1="143.44" y1="172.54" x2="149.76" y2="172.54"/><line class="cls-7" x1="143.44" y1="117.58" x2="149.76" y2="117.58"/><line class="cls-7" x1="236.15" y1="226.01" x2="236.15" y2="219.69"/><line class="cls-7" x1="306.91" y1="226.01" x2="306.91" y2="219.69"/><line class="cls-7" x1="220.44" y1="226.01" x2="220.44" y2="219.69"/><line class="cls-7" x1="149.76" y1="226.01" x2="149.76" y2="219.69"/><line class="cls-7" x1="312.4" y1="219.69" x2="306.91" y2="219.69"/><line class="cls-7" x1="236.15" y1="219.69" x2="220.44" y2="219.69"/><polyline class="cls-7" points="143.44 219.69 16.22 219.69 16.22 226.01 149.76 226.01"/><line class="cls-7" x1="220.44" y1="226.01" x2="229.91" y2="226.01"/><polyline class="cls-7" points="306.91 226.01 312.4 226.01 312.4 219.69"/><line class="cls-7" x1="306.91" y1="226.01" x2="306.91" y2="219.69"/><line class="cls-7" x1="236.15" y1="226.01" x2="236.15" y2="219.69"/><line class="cls-7" x1="149.76" y1="226.01" x2="149.76" y2="219.69"/><line class="cls-7" x1="220.44" y1="226.01" x2="220.44" y2="219.69"/><line class="cls-7" x1="0.5" y1="28.02" x2="0.5" y2="264.34"/><line class="cls-7" x1="16.22" y1="264.34" x2="16.22" y2="43.74"/><line class="cls-7" x1="16.22" y1="28.02" x2="16.22" y2="28.02"/><line class="cls-7" x1="456.17" y1="16.22" x2="456.17" y2="16.22"/><polyline class="cls-7" points="456.17 31.93 456.17 691.9 471.89 691.9 471.89 16.22"/><polyline class="cls-7" points="170.96 0.5 170.96 6.74 170.96 16.22"/><polyline class="cls-7" points="249.54 0.5 249.54 6.74 249.54 16.22"/><line class="cls-7" x1="149.76" y1="16.22" x2="170.96" y2="16.22"/><line class="cls-7" x1="249.54" y1="16.22" x2="312.4" y2="16.22"/><line class="cls-7" x1="328.12" y1="0.5" x2="249.54" y2="0.5"/><line class="cls-7" x1="170.96" y1="0.5" x2="134.04" y2="0.5"/><polyline class="cls-7" points="249.54 0.5 249.29 0.5 249.21 0.5 249.12 0.5 248.87 0.5"/><line class="cls-7" x1="248.79" y1="0.5" x2="248.79" y2="0.5"/><line class="cls-7" x1="248.71" y1="0.5" x2="248.71" y2="0.5"/><line class="cls-7" x1="248.62" y1="0.5" x2="248.46" y2="0.5"/><line class="cls-7" x1="248.37" y1="0.5" x2="248.37" y2="0.5"/><line class="cls-7" x1="248.29" y1="0.5" x2="248.29" y2="0.5"/><polyline class="cls-7" points="248.21 0.5 247.96 0.5 247.88 0.5 247.79 0.5 247.54 0.5"/><line class="cls-7" x1="247.46" y1="0.5" x2="247.46" y2="0.5"/><line class="cls-7" x1="247.38" y1="0.5" x2="247.38" y2="0.5"/><polyline class="cls-7" points="247.29 0.5 247.04 0.5 246.96 0.5"/><line class="cls-7" x1="246.88" y1="0.5" x2="246.63" y2="0.5"/><line class="cls-7" x1="246.55" y1="0.5" x2="246.55" y2="0.5"/><line class="cls-7" x1="246.46" y1="0.5" x2="246.46" y2="0.5"/><line class="cls-7" x1="246.38" y1="0.5" x2="246.21" y2="0.5"/><line class="cls-7" x1="174.29" y1="0.5" x2="174.12" y2="0.5"/><line class="cls-7" x1="174.04" y1="0.5" x2="174.04" y2="0.5"/><line class="cls-7" x1="173.95" y1="0.5" x2="173.95" y2="0.5"/><line class="cls-7" x1="173.87" y1="0.5" x2="173.62" y2="0.5"/><polyline class="cls-7" points="173.54 0.5 173.46 0.5 173.21 0.5"/><line class="cls-7" x1="173.12" y1="0.5" x2="173.12" y2="0.5"/><line class="cls-7" x1="173.04" y1="0.5" x2="173.04" y2="0.5"/><polyline class="cls-7" points="172.96 0.5 172.71 0.5 172.62 0.5 172.54 0.5 172.29 0.5"/><line class="cls-7" x1="172.21" y1="0.5" x2="172.21" y2="0.5"/><line class="cls-7" x1="172.12" y1="0.5" x2="172.12" y2="0.5"/><line class="cls-7" x1="172.04" y1="0.5" x2="171.88" y2="0.5"/><line class="cls-7" x1="171.79" y1="0.5" x2="171.79" y2="0.5"/><line class="cls-7" x1="171.71" y1="0.5" x2="171.71" y2="0.5"/><polyline class="cls-7" points="171.63 0.5 171.38 0.5 171.29 0.5 171.21 0.5 170.96 0.5"/><path class="cls-7" d="M174.16,79.08a72.3,72.3,0,0,0,72.3-72.3"/><polyline class="cls-7" points="249.54 0.5 246.38 0.5 246.38 6.74 249.54 6.74 249.54 0.5"/><polyline class="cls-7" points="170.96 6.74 174.12 6.74 174.12 0.5 170.96 0.5 170.96 6.74"/><line class="cls-7" x1="174.12" y1="6.74" x2="174.12" y2="79.08"/><polyline class="cls-7" points="249.54 16.22 249.54 6.74 249.54 0.5 249.54 6.74"/><polyline class="cls-7" points="170.96 16.22 170.96 6.74 170.96 0.5 170.96 6.74"/><line class="cls-7" x1="312.4" y1="16.22" x2="312.4" y2="31.93"/><line class="cls-7" x1="328.12" y1="0.5" x2="328.12" y2="16.22"/><polyline class="cls-7" points="312.4 31.93 328.12 31.93 456.17 31.93"/><line class="cls-7" x1="456.17" y1="16.22" x2="328.12" y2="16.22"/><polyline class="cls-7" points="0.5 264.34 0.5 691.9 16.22 691.9 16.22 264.34"/><line class="cls-7" x1="16.22" y1="43.74" x2="149.76" y2="43.74"/><line class="cls-7" x1="134.04" y1="28.02" x2="16.22" y2="28.02"/><polyline class="cls-7" points="149.76 43.74 149.76 28.02 149.76 16.22"/><polyline class="cls-7" points="134.04 0.5 134.04 16.22 134.04 28.02"/><polyline class="cls-7" points="16.22 707.62 0.5 707.62 0.5 719.3"/><polyline class="cls-7" points="471.89 718.85 471.89 707.62 456.17 707.62"/><polyline class="cls-7" points="119.16 745.87 118.74 745.79 110.09 788.11 110.43 788.19 119.16 745.87"/><polyline class="cls-7" points="108.6 789.44 108.68 789.03 37.84 774.47 37.84 774.89 108.6 789.44"/><polyline class="cls-7" points="36.59 772.98 36.92 773.06 45.65 730.74 45.32 730.65 36.59 772.98"/><polyline class="cls-7" points="119.91 744.04 117.99 743.63 117.66 745.54 119.57 745.95 119.91 744.04"/><polyline class="cls-7" points="110.84 788.28 108.93 787.86 108.51 789.86 110.43 790.19 110.84 788.28"/><polyline class="cls-7" points="37.75 775.22 38.09 773.31 36.17 772.98 35.76 774.89 37.75 775.22"/><polyline class="cls-7" points="44.9 730.57 46.81 730.99 47.23 729.07 45.32 728.66 44.9 730.57"/><line class="cls-7" x1="117.83" y1="744.62" x2="108.93" y2="787.86"/><line class="cls-7" x1="110.43" y1="790.19" x2="119.74" y2="745.04"/><line class="cls-7" x1="108.93" y1="787.86" x2="38.08" y2="773.31"/><line class="cls-7" x1="35.76" y1="774.89" x2="110.43" y2="790.19"/><line class="cls-7" x1="38.08" y1="773.31" x2="46.98" y2="730.07"/><line class="cls-7" x1="45.07" y1="729.66" x2="35.76" y2="774.89"/><polyline class="cls-7" points="119.74 745.04 119.91 744.04 117.99 743.63 117.83 744.62"/><polyline class="cls-7" points="46.98 730.07 47.23 729.07 45.32 728.66 45.07 729.66"/><polyline class="cls-7" points="35.76 774.89 110.43 790.19 119.74 745.04 117.83 744.62 108.93 787.86 38.09 773.31 46.98 730.07 45.07 729.66 35.76 774.89"/><polyline class="cls-7" points="42.49 761.84 109.43 775.55 114.5 750.94 47.56 737.14 42.49 761.84"/><polyline class="cls-7" points="42.99 759.34 109.93 773.14 114.5 750.94 47.56 737.14 42.99 759.34"/><polyline class="cls-7" points="220.44 629.04 236.15 629.04 236.15 707.62 220.44 707.62 220.44 629.04"/><polyline class="cls-7" points="220.44 291.2 236.15 291.2 236.15 369.78 220.44 369.78 220.44 291.2"/><polyline class="cls-7" points="0.5 291.2 16.22 291.2 16.22 369.78 0.5 369.78 0.5 291.2"/><polyline class="cls-7" points="0.5 629.04 16.22 629.04 16.22 707.62 0.5 707.62 0.5 629.04"/><polyline class="cls-7" points="249.54 16.22 249.54 0.5 328.12 0.5 328.12 16.22 249.54 16.22"/><polyline class="cls-7" points="0.5 28.02 16.22 28.02 16.22 79.08 0.5 79.08 0.5 28.02"/><polyline class="cls-7" points="456.17 16.22 471.89 16.22 471.89 79.08 456.17 79.08 456.17 16.22"/><polyline class="cls-7" points="456.17 629.04 471.89 629.04 471.89 707.62 456.17 707.62 456.17 629.04"/><polyline class="cls-7" points="456.17 291.2 471.89 291.2 471.89 369.78 456.17 369.78 456.17 291.2"/><line class="cls-7" x1="449.35" y1="83.73" x2="449.35" y2="43.74"/><line class="cls-7" x1="444.94" y1="39" x2="347.66" y2="39"/><line class="cls-7" x1="444.94" y1="88.47" x2="347.66" y2="88.47"/><line class="cls-7" x1="320.22" y1="34.26" x2="453.84" y2="34.26"/><polyline class="cls-7" points="320.22 34.26 320.22 93.21 453.84 93.21 453.84 34.26"/><line class="cls-7" x1="363.29" y1="80.33" x2="439.37" y2="80.33"/><line class="cls-7" x1="441.62" y1="77.91" x2="441.62" y2="49.56"/><line class="cls-7" x1="363.29" y1="47.15" x2="439.37" y2="47.15"/><line class="cls-7" x1="425.99" y1="65.19" x2="425.99" y2="68.1"/><line class="cls-7" x1="427.32" y1="63.7" x2="430.14" y2="63.7"/><line class="cls-7" x1="425.99" y1="62.28" x2="425.99" y2="59.37"/><line class="cls-7" x1="424.66" y1="63.7" x2="421.91" y2="63.7"/><path class="cls-7" d="M347.7,39c-12.93,0-23.41,11.07-23.41,24.74s10.48,24.73,23.41,24.73"/><path class="cls-7" d="M449.44,43.78a4.59,4.59,0,0,0-4.45-4.7"/><path class="cls-7" d="M445,88.47a4.58,4.58,0,0,0,4.45-4.69"/><path class="cls-7" d="M426,66.19a2.46,2.46,0,1,0-2.29-2.45A2.37,2.37,0,0,0,426,66.19"/><path class="cls-7" d="M363.33,47.15c-8.61,0-15.59,7.43-15.59,16.59s7,16.59,15.59,16.59"/><path class="cls-7" d="M439.42,80.33a2.3,2.3,0,0,0,2.2-2.37"/><path class="cls-7" d="M441.62,49.6a2.29,2.29,0,0,0-2.2-2.37"/><path class="cls-7" d="M426,67a3.29,3.29,0,1,0-3.12-3.28A3.21,3.21,0,0,0,426,67"/><polyline class="cls-7" points="435.88 113.59 453.84 113.59 453.84 156.08 435.88 156.08"/><line class="cls-7" x1="453.84" y1="141.52" x2="453.84" y2="128.14"/><line class="cls-7" x1="439.46" y1="138.37" x2="439.46" y2="136.12"/><line class="cls-7" x1="442.95" y1="134.87" x2="440.7" y2="134.87"/><line class="cls-7" x1="439.46" y1="133.54" x2="439.46" y2="131.3"/><line class="cls-7" x1="438.13" y1="134.87" x2="435.88" y2="134.87"/><path class="cls-7" d="M443.75,123.57a18.89,18.89,0,0,0-8.94-7.33"/><path class="cls-7" d="M446.38,134.85a18.87,18.87,0,0,0-2.65-11.27"/><path class="cls-7" d="M434.81,153.51a18.91,18.91,0,0,0,8.94-7.34"/><path class="cls-7" d="M443.73,146.17a18.91,18.91,0,0,0,2.65-11.28"/><path class="cls-7" d="M425.26,120.56a35,35,0,0,0-3.5,12.88"/><path class="cls-7" d="M427,152.05a10.78,10.78,0,0,0,8.86,4"/><path class="cls-7" d="M421.63,133.43a21,21,0,0,0,0,3"/><path class="cls-7" d="M443,146.78A77.45,77.45,0,0,0,443,123"/><path class="cls-7" d="M433.14,155a26.63,26.63,0,0,0,17.32-6"/><path class="cls-7" d="M451.7,147A53.25,53.25,0,0,0,453,134.84"/><path class="cls-7" d="M450.47,149a3.58,3.58,0,0,0,1.21-2"/><path class="cls-7" d="M450.48,146.81a90.28,90.28,0,0,0,.87-12"/><path class="cls-7" d="M433.11,155a24,24,0,0,0,16.18-6"/><path class="cls-7" d="M449.32,149a3.53,3.53,0,0,0,1.16-2.16"/><path class="cls-7" d="M449.32,120.77a24,24,0,0,0-16.17-6"/><path class="cls-7" d="M450.49,120.79a26.64,26.64,0,0,0-17.32-6"/><path class="cls-7" d="M451.35,134.86a90.26,90.26,0,0,0-.85-12"/><path class="cls-7" d="M453,134.89a53.3,53.3,0,0,0-1.3-12.14"/><path class="cls-7" d="M450.48,123a3.48,3.48,0,0,0-1.16-2.17"/><path class="cls-7" d="M451.68,122.75a3.58,3.58,0,0,0-1.21-2"/><path class="cls-7" d="M435.89,113.68a10.73,10.73,0,0,0-8.86,4"/><path class="cls-7" d="M427,117.71a17,17,0,0,0-1.83,2.82"/><path class="cls-7" d="M425.17,149.3a17.46,17.46,0,0,0,1.83,2.82"/><path class="cls-7" d="M421.76,136.39a35,35,0,0,0,3.5,12.88"/><path class="cls-7" d="M424.69,129.07a24.84,24.84,0,0,0,0,11.69"/><path class="cls-7" d="M434.78,116.26a6.37,6.37,0,0,0-5.25,2.19"/><path class="cls-7" d="M429.6,118.44A23,23,0,0,0,424.76,129"/><path class="cls-7" d="M429.53,151.29a6.34,6.34,0,0,0,5.25,2.19"/><path class="cls-7" d="M424.76,140.74a23,23,0,0,0,4.84,10.56"/><path class="cls-7" d="M439.5,137.7a2.79,2.79,0,1,0-2.79-2.79,2.78,2.78,0,0,0,2.79,2.79"/><path class="cls-7" d="M439.5,136.87a2,2,0,1,0-2-2,2,2,0,0,0,2,2"/><line class="cls-7" x1="441.7" y1="198.07" x2="414.01" y2="198.07"/><polyline class="cls-7" points="443.45 199.23 453.84 199.23 453.84 169.38"/><line class="cls-7" x1="436.88" y1="184.35" x2="436.88" y2="173.29"/><polyline class="cls-7" points="414.01 198.07 436.88 195.41 436.88 184.35"/><line class="cls-7" x1="414.01" y1="170.63" x2="436.88" y2="173.29"/><line class="cls-7" x1="414.01" y1="197.4" x2="436.88" y2="194.74"/><line class="cls-7" x1="414.01" y1="171.29" x2="436.88" y2="173.95"/><line class="cls-7" x1="441.79" y1="170.63" x2="414.01" y2="170.63"/><line class="cls-7" x1="453.84" y1="169.38" x2="443.45" y2="169.38"/><polyline class="cls-7" points="414.01 198.07 410.94 197.65 408.03 196.49 405.53 194.66 403.45 192.16 402.04 189.25 401.29 186.01 401.29 182.69 402.04 179.44 403.45 176.53 405.53 174.04 408.03 172.13 410.94 170.96 414.01 170.63"/><polyline class="cls-7" points="414.01 197.4 411.1 196.99 408.36 195.91 405.95 194.08 404.03 191.75 402.7 189 401.95 185.93 401.95 182.77 402.7 179.69 404.03 176.95 405.95 174.54 408.36 172.79 411.1 171.71 414.01 171.29"/><path class="cls-7" d="M441.75,171a126.08,126.08,0,0,0,0,26.77"/><path class="cls-7" d="M441.71,197.8a1.77,1.77,0,0,0,1.78,1.52"/><path class="cls-7" d="M443.49,169.46a1.76,1.76,0,0,0-1.78,1.54"/><path class="cls-7" d="M448.77,184.39a1.46,1.46,0,1,0-1.46,1.45,1.46,1.46,0,0,0,1.46-1.45"/><polyline class="cls-7" points="409.02 322.63 409.02 279.39 452.26 279.39 452.26 322.63 409.02 322.63"/><polyline class="cls-7" points="448.35 318.72 412.93 318.72 412.93 287.29 448.35 287.29 448.35 318.72"/><polyline class="cls-7" points="368.2 182.02 368.2 217.36 321.05 217.36 321.05 182.02 368.2 182.02"/></svg>