<svg xmlns="http://www.w3.org/2000/svg" xmlns:xlink="http://www.w3.org/1999/xlink" width="43" height="36" viewBox="0 0 43 36">
    <defs>
        <path id="b" d="M6.84 21.13L0 16l6.84-5.13C8.978 4.55 14.958 0 22 0c8.837 0 16 7.163 16 16s-7.163 16-16 16c-7.042 0-13.022-4.55-15.16-10.87z"/>
        <filter id="a" width="120.2%" height="121.9%" x="-11%" y="-7.8%" filterUnits="objectBoundingBox">
            <feMorphology in="SourceAlpha" operator="dilate" radius=".5" result="shadowSpreadOuter1"/>
            <feOffset dy="1" in="shadowSpreadOuter1" result="shadowOffsetOuter1"/>
            <feGaussianBlur in="shadowOffsetOuter1" result="shadowBlurOuter1" stdDeviation=".5"/>
            <feColorMatrix in="shadowBlurOuter1" values="0 0 0 0 0 0 0 0 0 0 0 0 0 0 0 0 0 0 0.2 0"/>
        </filter>
    </defs>
    <g fill="none" fill-rule="evenodd">
        <g transform="translate(3 1)">
            <use fill="#000" filter="url(#a)" xlink:href="#b"/>
            <use fill="#EC1F27" xlink:href="#b"/>
        </g>
        <path fill="#FFF" fill-rule="nonzero" d="M23.17 13.544v-1.792H21.36V9h8.282v2.752h-1.876v1.792h2.588c.388 0 .647.256.647.64v9.6c0 .32-.324.64-.647.64h-9.706c-.388 0-.647-.256-.647-.64v-9.6c0-.384.259-.64.647-.64h2.524zm1.36 4.096h-2.265v1.792h2.264v2.24h1.812v-2.24h2.33V17.64h-2.33v-2.304H24.53v2.304z"/>
    </g>
</svg>
