<svg xmlns="http://www.w3.org/2000/svg" xmlns:xlink="http://www.w3.org/1999/xlink" width="43" height="36" viewBox="0 0 43 36">
    <defs>
        <path id="b" d="M6.84 21.13L0 16l6.84-5.13C8.978 4.55 14.958 0 22 0c8.837 0 16 7.163 16 16s-7.163 16-16 16c-7.042 0-13.022-4.55-15.16-10.87z"/>
        <filter id="a" width="120.2%" height="121.9%" x="-11%" y="-7.8%" filterUnits="objectBoundingBox">
            <feMorphology in="SourceAlpha" operator="dilate" radius=".5" result="shadowSpreadOuter1"/>
            <feOffset dy="1" in="shadowSpreadOuter1" result="shadowOffsetOuter1"/>
            <feGaussianBlur in="shadowOffsetOuter1" result="shadowBlurOuter1" stdDeviation=".5"/>
            <feColorMatrix in="shadowBlurOuter1" values="0 0 0 0 0 0 0 0 0 0 0 0 0 0 0 0 0 0 0.2 0"/>
        </filter>
    </defs>
    <g fill="none" fill-rule="evenodd">
        <g transform="translate(3 1)">
            <use fill="#000" filter="url(#a)" xlink:href="#b"/>
            <use fill="#F2883D" xlink:href="#b"/>
        </g>
        <g fill="#FFF" transform="translate(19 9)">
            <path d="M4.005 0v15a1 1 0 0 1-2 0v-5H1a1 1 0 0 1-.97-1.243L.47 7a16.857 16.857 0 0 1 2.517-5.538L4.005 0zM6.5 0a.5.5 0 0 1 .5.5V5h1.5V.5a.5.5 0 0 1 1 0V5H11V.5a.5.5 0 1 1 1 0V6a1 1 0 0 1-1 1H7a1 1 0 0 1-1-1V.5a.5.5 0 0 1 .5-.5z"/>
            <rect width="2" height="8" x="8" y="8" rx=".5"/>
        </g>
    </g>
</svg>
