<svg xmlns="http://www.w3.org/2000/svg" xmlns:xlink="http://www.w3.org/1999/xlink" width="43" height="36" viewBox="0 0 43 36">
    <defs>
        <path id="b" d="M7.397 22.548L0 17l6.466-4.85C8.19 5.173 14.491 0 22 0c8.837 0 16 7.163 16 16s-7.163 16-16 16c-6.504 0-12.101-3.88-14.603-9.452z"/>
        <filter id="a" width="120.2%" height="121.9%" x="-11%" y="-7.8%" filterUnits="objectBoundingBox">
            <feMorphology in="SourceAlpha" operator="dilate" radius=".5" result="shadowSpreadOuter1"/>
            <feOffset dy="1" in="shadowSpreadOuter1" result="shadowOffsetOuter1"/>
            <feGaussianBlur in="shadowOffsetOuter1" result="shadowBlurOuter1" stdDeviation=".5"/>
            <feColorMatrix in="shadowBlurOuter1" values="0 0 0 0 0 0 0 0 0 0 0 0 0 0 0 0 0 0 0.2 0"/>
        </filter>
    </defs>
    <g fill="none" fill-rule="evenodd">
        <g transform="translate(3 1)">
            <use fill="#000" filter="url(#a)" xlink:href="#b"/>
            <use fill="#ABAEB3" xlink:href="#b"/>
        </g>
        <g fill="#FFF">
            <path d="M21 16.932l4 1.5 4-1.5v4.287a1 1 0 0 1-.757.97l-2.758.69a2 2 0 0 1-.97 0l-2.758-.69a1 1 0 0 1-.757-.97v-4.287z"/>
            <path d="M17 14.932l8-3 8 3-8 3z"/>
            <path d="M31 14.932h1v4h-1z"/>
        </g>
    </g>
</svg>
