<svg id="_6" data-name="6" xmlns="http://www.w3.org/2000/svg" viewBox="0 0 321.34 811.16"><defs><style>.cls-1{isolation:isolate;font-size:12px;fill:#969696;}.cls-1,.cls-7,.cls-8{font-family:PTSans-Regular, PT Sans;}.cls-2,.cls-3,.cls-4,.cls-5,.cls-6{fill:none;stroke-linecap:round;stroke-linejoin:round;}.cls-2{stroke:#969696;stroke-width:0.75px;}.cls-3,.cls-4,.cls-5,.cls-6{stroke:#000;}.cls-4,.cls-5,.cls-6{stroke-width:0.25px;}.cls-5{stroke-dasharray:0.91 0.91;}.cls-6{stroke-dasharray:0.92 0.92;}.cls-7{font-size:40px;}.cls-8{font-size:36px;}</style></defs><title>2floor_6flat</title><text class="cls-1" transform="translate(155.1 807.97)">двор</text><line class="cls-2" x1="144.34" y1="810.79" x2="144.34" y2="801.99"/><polyline class="cls-2" points="140.84 807.29 144.34 810.79 147.84 807.29"/><line class="cls-3" x1="263.11" y1="725.2" x2="262.03" y2="717.49"/><line class="cls-3" x1="265.1" y1="716.99" x2="262.78" y2="717.32"/><line class="cls-3" x1="262.78" y1="717.32" x2="262.03" y2="717.49"/><polyline class="cls-3" points="264.02 725.87 263.19 726.03 263.11 725.2"/><polyline class="cls-3" points="265.1 716.99 264.44 712.35 262.28 697.66"/><line class="cls-3" x1="264.02" y1="725.87" x2="320.84" y2="717.74"/><line class="cls-3" x1="312.38" y1="690.45" x2="262.28" y2="697.66"/><polyline class="cls-3" points="151.38 746.02 263.77 729.85 263.19 726.03"/><line class="cls-3" x1="152.37" y1="713.42" x2="262.28" y2="697.66"/><line class="cls-3" x1="151.55" y1="742.12" x2="263.19" y2="726.03"/><line class="cls-3" x1="152.37" y1="713.42" x2="262.28" y2="697.66"/><polyline class="cls-3" points="151.96 728.6 156.19 727.94 156.69 731.09 158.6 730.76 158.84 732.34 152.62 733.25 151.79 733.33"/><polyline class="cls-3" points="218.57 723.71 215.41 724.21 215.25 722.63 217.16 722.3 216.74 719.23 217.9 719.07"/><line class="cls-3" x1="215.41" y1="724.21" x2="158.84" y2="732.34"/><polyline class="cls-3" points="156.02 726.36 160.67 725.7 211.85 718.32"/><polyline class="cls-3" points="160.67 725.7 161.33 730.35 156.69 731.09 156.02 726.36"/><polyline class="cls-3" points="217.16 722.3 212.51 723.05 211.85 718.32 216.49 717.65 217.16 722.3"/><line class="cls-3" x1="212.51" y1="723.05" x2="161.33" y2="730.35"/><line class="cls-3" x1="160.67" y1="725.7" x2="211.85" y2="718.32"/><line class="cls-3" x1="161" y1="728.02" x2="212.18" y2="720.72"/><line class="cls-3" x1="152.62" y1="733.25" x2="151.96" y2="728.6"/><polyline class="cls-3" points="217.9 719.07 219.06 718.9 219.48 721.97 221.47 721.72 221.63 723.29 218.57 723.71"/><polyline class="cls-3" points="265.1 716.99 258.88 717.9 258.63 716.33 260.62 716.08 260.12 713.01 264.44 712.35"/><line class="cls-3" x1="258.88" y1="717.9" x2="221.64" y2="723.29"/><polyline class="cls-3" points="218.81 717.32 223.46 716.66 255.31 712.1"/><polyline class="cls-3" points="223.46 716.66 224.12 721.3 219.48 721.97 218.81 717.32"/><polyline class="cls-3" points="260.62 716.08 255.97 716.74 255.31 712.1 259.96 711.43 260.62 716.08"/><line class="cls-3" x1="255.97" y1="716.74" x2="224.12" y2="721.3"/><line class="cls-3" x1="223.46" y1="716.66" x2="255.31" y2="712.1"/><line class="cls-3" x1="223.79" y1="718.98" x2="255.64" y2="714.42"/><polyline class="cls-3" points="262.28 697.66 264.44 712.35 265.1 716.99 264.44 712.35"/><line class="cls-3" x1="263.19" y1="726.03" x2="263.11" y2="725.2"/><polyline class="cls-3" points="262.03 717.49 262.78 717.32 262.03 717.49"/><polyline class="cls-3" points="262.78 717.32 265.1 716.99 262.78 717.32"/><line class="cls-3" x1="263.11" y1="725.2" x2="262.03" y2="717.49"/><line class="cls-3" x1="83.36" y1="727.28" x2="84.94" y2="719.56"/><line class="cls-3" x1="81.87" y1="718.98" x2="84.19" y2="719.4"/><line class="cls-3" x1="84.19" y1="719.4" x2="84.94" y2="719.56"/><polyline class="cls-3" points="82.45 727.86 83.2 728.02 83.36 727.28"/><polyline class="cls-3" points="81.87 718.98 82.87 714.34 85.85 699.74"/><line class="cls-3" x1="37.91" y1="718.73" x2="82.45" y2="727.86"/><line class="cls-3" x1="85.85" y1="699.74" x2="38.74" y2="690.03"/><polyline class="cls-3" points="151.38 746.02 82.45 731.84 83.2 728.02"/><line class="cls-3" x1="152.37" y1="713.42" x2="85.85" y2="699.74"/><line class="cls-3" x1="151.55" y1="742.12" x2="83.2" y2="728.02"/><line class="cls-3" x1="152.37" y1="713.42" x2="85.85" y2="699.74"/><polyline class="cls-3" points="151.96 728.6 147.73 727.69 147.07 730.76 145.16 730.35 144.83 731.92 150.97 733.16 151.79 733.33"/><polyline class="cls-3" points="81.87 718.98 88.01 720.23 88.34 718.65 86.43 718.32 87.1 715.25 82.87 714.34"/><line class="cls-3" x1="88.01" y1="720.23" x2="144.83" y2="731.92"/><polyline class="cls-3" points="148.06 726.2 143.42 725.2 91.99 714.67"/><polyline class="cls-3" points="143.42 725.2 142.5 729.85 147.07 730.76 148.06 726.2"/><polyline class="cls-3" points="86.43 718.32 91.08 719.23 91.99 714.67 87.43 713.67 86.43 718.32"/><line class="cls-3" x1="91.08" y1="719.23" x2="142.5" y2="729.85"/><line class="cls-3" x1="143.42" y1="725.2" x2="91.99" y2="714.67"/><line class="cls-3" x1="142.92" y1="727.53" x2="91.49" y2="716.91"/><line class="cls-3" x1="150.96" y1="733.17" x2="151.96" y2="728.6"/><polyline class="cls-3" points="85.85 699.74 82.87 714.34 81.87 718.98 82.87 714.34"/><line class="cls-3" x1="83.2" y1="728.02" x2="83.36" y2="727.28"/><polyline class="cls-3" points="84.94 719.56 84.19 719.4 84.94 719.56"/><polyline class="cls-3" points="84.19 719.4 81.87 718.98 84.19 719.4"/><line class="cls-3" x1="83.36" y1="727.28" x2="84.94" y2="719.56"/><line class="cls-3" x1="0.5" y1="716.83" x2="0.5" y2="717.16"/><polyline class="cls-3" points="0.5 716.83 0.5 712.18 0.5 697.5"/><line class="cls-3" x1="0.5" y1="725.7" x2="37.91" y2="718.73"/><line class="cls-3" x1="38.74" y1="690.03" x2="0.5" y2="697.5"/><line class="cls-3" x1="0.5" y1="712.84" x2="0.5" y2="712.18"/><line class="cls-3" x1="0.5" y1="716.83" x2="0.5" y2="733.91"/><polyline class="cls-3" points="0.5 697.5 0.5 712.18 0.5 716.83 0.5 712.18"/><polyline class="cls-3" points="0.5 717.16 0.5 716.83 0.5 717.16"/><line class="cls-3" x1="305" y1="16.18" x2="305" y2="263.69"/><line class="cls-3" x1="320.67" y1="263.69" x2="320.67" y2="43.63"/><line class="cls-3" x1="320.67" y1="27.96" x2="320.67" y2="0.5"/><polyline class="cls-3" points="30.69 16.18 30.69 690.2 46.37 690.2 46.37 68.68"/><line class="cls-3" x1="46.37" y1="53.01" x2="46.37" y2="0.5"/><line class="cls-4" x1="183.48" y1="188.77" x2="183.48" y2="188.31"/><line class="cls-5" x1="183.48" y1="187.4" x2="183.48" y2="134.94"/><line class="cls-4" x1="183.48" y1="134.49" x2="183.48" y2="134.03"/><line class="cls-4" x1="189.78" y1="188.77" x2="189.78" y2="188.31"/><line class="cls-5" x1="189.78" y1="187.4" x2="189.78" y2="134.94"/><line class="cls-4" x1="189.78" y1="134.49" x2="189.78" y2="134.03"/><line class="cls-3" x1="189.78" y1="188.62" x2="183.48" y2="188.62"/><line class="cls-3" x1="189.78" y1="133.71" x2="183.48" y2="133.71"/><line class="cls-3" x1="189.78" y1="274.8" x2="189.78" y2="188.62"/><polyline class="cls-3" points="189.78 133.71 189.78 68.68 183.48 68.68 183.48 133.71"/><line class="cls-3" x1="183.48" y1="188.62" x2="183.48" y2="268.5"/><line class="cls-3" x1="189.78" y1="133.71" x2="183.48" y2="133.71"/><line class="cls-3" x1="189.78" y1="188.62" x2="183.48" y2="188.62"/><line class="cls-3" x1="203.14" y1="219.15" x2="203.14" y2="225.45"/><polyline class="cls-3" points="305 219.15 273.64 219.15 273.64 225.45"/><polyline class="cls-3" points="203.14 219.15 189.78 219.15 189.78 225.45 203.14 225.45"/><polyline class="cls-3" points="273.64 225.45 305 225.45 305 219.15"/><line class="cls-3" x1="273.64" y1="219.15" x2="273.64" y2="225.45"/><line class="cls-3" x1="203.14" y1="219.15" x2="203.14" y2="225.45"/><line class="cls-3" x1="85.52" y1="237.15" x2="85.52" y2="268.5"/><polyline class="cls-3" points="183.48 268.5 91.82 268.5 91.82 230.93"/><polyline class="cls-3" points="85.52 268.5 46.37 268.5 46.37 274.8"/><polyline class="cls-3" points="189.78 274.8 183.48 274.8 46.37 274.8"/><line class="cls-3" x1="46.37" y1="68.68" x2="189.78" y2="68.68"/><line class="cls-3" x1="174.11" y1="53.01" x2="46.37" y2="53.01"/><polyline class="cls-3" points="189.78 68.68 189.78 53.01 189.78 16.18"/><line class="cls-3" x1="174.11" y1="0.5" x2="174.11" y2="53.01"/><polyline class="cls-3" points="195.26 16.18 195.26 6.72 195.26 0.5"/><polyline class="cls-3" points="273.64 16.18 273.64 6.72 273.64 0.5"/><line class="cls-3" x1="189.78" y1="16.18" x2="195.26" y2="16.18"/><line class="cls-3" x1="273.64" y1="16.18" x2="305" y2="16.18"/><polyline class="cls-3" points="320.67 0.5 305 0.5 273.64 0.5"/><polyline class="cls-3" points="174.11 0.5 189.78 0.5 195.26 0.5"/><polyline class="cls-3" points="273.64 0.5 273.39 0.5 273.31 0.5"/><line class="cls-3" x1="273.23" y1="0.5" x2="272.98" y2="0.5"/><line class="cls-3" x1="272.9" y1="0.5" x2="272.9" y2="0.5"/><line class="cls-3" x1="272.81" y1="0.5" x2="272.81" y2="0.5"/><line class="cls-3" x1="272.73" y1="0.5" x2="272.56" y2="0.5"/><line class="cls-3" x1="272.48" y1="0.5" x2="272.48" y2="0.5"/><line class="cls-3" x1="272.4" y1="0.5" x2="272.4" y2="0.5"/><polyline class="cls-3" points="272.31 0.5 272.07 0.5 271.98 0.5 271.9 0.5 271.65 0.5"/><line class="cls-3" x1="271.57" y1="0.5" x2="271.57" y2="0.5"/><line class="cls-3" x1="271.49" y1="0.5" x2="271.49" y2="0.5"/><line class="cls-3" x1="271.4" y1="0.5" x2="271.15" y2="0.5"/><line class="cls-3" x1="271.07" y1="0.5" x2="271.07" y2="0.5"/><line class="cls-3" x1="270.99" y1="0.5" x2="270.74" y2="0.5"/><line class="cls-3" x1="270.66" y1="0.5" x2="270.66" y2="0.5"/><line class="cls-3" x1="198.66" y1="0.5" x2="198.66" y2="0.5"/><line class="cls-6" x1="289.32" y1="0.5" x2="198.41" y2="0.5"/><line class="cls-3" x1="198.33" y1="0.5" x2="198.33" y2="0.5"/><line class="cls-3" x1="198.24" y1="0.5" x2="198.24" y2="0.5"/><line class="cls-3" x1="198.16" y1="0.5" x2="197.91" y2="0.5"/><polyline class="cls-3" points="197.83 0.5 197.75 0.5 197.5 0.5"/><line class="cls-3" x1="197.41" y1="0.5" x2="197.41" y2="0.5"/><line class="cls-3" x1="197.33" y1="0.5" x2="197.33" y2="0.5"/><polyline class="cls-3" points="197.25 0.5 197 0.5 196.92 0.5 196.83 0.5 196.59 0.5"/><line class="cls-3" x1="196.5" y1="0.5" x2="196.5" y2="0.5"/><line class="cls-3" x1="196.42" y1="0.5" x2="196.42" y2="0.5"/><line class="cls-3" x1="196.34" y1="0.5" x2="196.17" y2="0.5"/><line class="cls-3" x1="196.09" y1="0.5" x2="196.09" y2="0.5"/><line class="cls-3" x1="196" y1="0.5" x2="196" y2="0.5"/><polyline class="cls-3" points="195.92 0.5 195.67 0.5 195.59 0.5 195.51 0.5 195.26 0.5"/><path class="cls-3" d="M198.45,78.88A72.12,72.12,0,0,0,270.57,6.76"/><polyline class="cls-3" points="273.64 0.5 270.49 0.5 270.49 6.72 273.64 6.72 273.64 0.5"/><polyline class="cls-3" points="195.26 6.72 198.41 6.72 198.41 0.5 195.26 0.5 195.26 6.72"/><line class="cls-3" x1="198.41" y1="6.72" x2="198.41" y2="78.88"/><polyline class="cls-3" points="273.64 0.5 273.64 6.72 273.64 0.5"/><line class="cls-3" x1="273.64" y1="16.18" x2="273.64" y2="6.72"/><polyline class="cls-3" points="195.26 0.5 195.26 6.72 195.26 0.5"/><line class="cls-3" x1="195.26" y1="16.18" x2="195.26" y2="6.72"/><line class="cls-3" x1="46.37" y1="0.5" x2="30.69" y2="0.5"/><polyline class="cls-3" points="305 263.69 305 690.2 320.67 690.2 320.67 263.69"/><line class="cls-3" x1="46.37" y1="9.87" x2="128.65" y2="9.87"/><polyline class="cls-3" points="138.03 9.87 174.11 9.87 174.11 0.5 46.37 0.5 46.37 9.87"/><polyline class="cls-3" points="128.65 9.87 128.65 53.01 138.03 53.01 138.03 9.87"/><polyline class="cls-3" points="50.27 230.93 50.27 234.08 50.27 237.15"/><polyline class="cls-3" points="81.62 230.93 81.62 234.08 81.62 237.15"/><polyline class="cls-3" points="91.82 230.93 85.52 230.93 81.62 230.93"/><polyline class="cls-3" points="50.27 230.93 46.37 230.93 46.37 237.15 50.27 237.15"/><line class="cls-3" x1="81.62" y1="237.15" x2="85.52" y2="237.15"/><line class="cls-6" x1="81.62" y1="230.93" x2="50.27" y2="230.93"/><line class="cls-6" x1="81.62" y1="237.15" x2="50.27" y2="237.15"/><path class="cls-3" d="M81.62,231a31.26,31.26,0,0,0-1.89-10.71"/><line class="cls-3" x1="50.27" y1="230.93" x2="79.71" y2="220.23"/><polyline class="cls-3" points="81.62 237.15 81.62 234.08 81.62 230.93 81.62 234.08"/><polyline class="cls-3" points="50.27 237.15 50.27 234.08 50.27 230.93 50.27 234.08"/><line class="cls-6" x1="203.14" y1="225.45" x2="273.73" y2="225.45"/><line class="cls-6" x1="203.14" y1="219.15" x2="273.73" y2="219.15"/><polyline class="cls-3" points="320.84 717.74 284.09 722.96 151.54 742.12"/><polyline class="cls-3" points="151.21 753.24 320.51 728.85 320.51 692.28"/><line class="cls-3" x1="151.55" y1="742.12" x2="37.91" y2="718.73"/><polyline class="cls-3" points="151.21 753.24 146.65 752.33 37.58 729.85"/><polyline class="cls-3" points="37.91 718.73 10.54 722.71 0.67 724.29"/><line class="cls-3" x1="0.5" y1="735.41" x2="37.58" y2="729.85"/><polyline class="cls-3" points="48.69 321.83 91.82 321.83 91.82 278.7 48.69 278.7 48.69 321.83"/><polyline class="cls-3" points="52.59 317.94 87.92 317.94 87.92 286.58 52.59 286.58 52.59 317.94"/><line class="cls-3" x1="53.17" y1="78.88" x2="53.17" y2="118.86"/><line class="cls-3" x1="57.57" y1="123.51" x2="154.61" y2="123.51"/><line class="cls-3" x1="57.57" y1="74.16" x2="154.61" y2="74.16"/><line class="cls-3" x1="181.9" y1="128.24" x2="48.69" y2="128.24"/><polyline class="cls-3" points="181.9 128.24 181.9 69.43 48.69 69.43 48.69 128.24"/><line class="cls-3" x1="139.02" y1="82.37" x2="63.12" y2="82.37"/><line class="cls-3" x1="60.88" y1="84.69" x2="60.88" y2="112.98"/><line class="cls-3" x1="139.02" y1="115.38" x2="63.12" y2="115.38"/><line class="cls-3" x1="76.48" y1="97.38" x2="76.48" y2="94.48"/><line class="cls-3" x1="75.07" y1="98.87" x2="72.33" y2="98.87"/><line class="cls-3" x1="76.48" y1="100.28" x2="76.48" y2="103.19"/><line class="cls-3" x1="77.81" y1="98.87" x2="80.54" y2="98.87"/><path class="cls-3" d="M154.66,123.59c12.89,0,23.35-11,23.35-24.67s-10.46-24.68-23.35-24.68"/><path class="cls-3" d="M53.17,118.91a4.57,4.57,0,0,0,4.44,4.68"/><path class="cls-3" d="M57.61,74.24a4.57,4.57,0,0,0-4.44,4.69"/><path class="cls-3" d="M76.52,101.36a2.45,2.45,0,1,0-2.28-2.44,2.36,2.36,0,0,0,2.28,2.44"/><path class="cls-3" d="M139.06,115.46c8.59,0,15.55-7.41,15.55-16.54s-7-16.55-15.55-16.55"/><path class="cls-3" d="M63.17,82.37A2.28,2.28,0,0,0,61,84.73"/><path class="cls-3" d="M61,113a2.28,2.28,0,0,0,2.2,2.36"/><path class="cls-3" d="M76.52,102.19a3.28,3.28,0,1,0-3.11-3.27,3.19,3.19,0,0,0,3.11,3.27"/><polyline class="cls-3" points="66.61 170.54 48.69 170.54 48.69 128.24 66.61 128.24"/><line class="cls-3" x1="48.69" y1="142.75" x2="48.69" y2="156.11"/><line class="cls-3" x1="63.04" y1="145.82" x2="63.04" y2="148.06"/><line class="cls-3" x1="59.47" y1="149.39" x2="61.8" y2="149.39"/><line class="cls-3" x1="63.04" y1="150.72" x2="63.04" y2="152.96"/><line class="cls-3" x1="64.37" y1="149.39" x2="66.61" y2="149.39"/><path class="cls-3" d="M58.84,160.66A18.93,18.93,0,0,0,67.76,168"/><path class="cls-3" d="M56.13,149.41a18.9,18.9,0,0,0,2.65,11.25"/><path class="cls-3" d="M67.76,130.88a18.93,18.93,0,0,0-8.92,7.32"/><path class="cls-3" d="M58.78,138.2a18.9,18.9,0,0,0-2.65,11.25"/><path class="cls-3" d="M77.28,163.75a34.7,34.7,0,0,0,3.5-12.84"/><path class="cls-3" d="M75.53,132.34a10.74,10.74,0,0,0-8.84-4"/><path class="cls-3" d="M80.82,150.91a20.89,20.89,0,0,0,0-3"/><path class="cls-3" d="M59.56,137.59a77.06,77.06,0,0,0,0,23.68"/><path class="cls-3" d="M69.43,129.4a26.57,26.57,0,0,0-17.28,6"/><path class="cls-3" d="M50.91,137.31a52.43,52.43,0,0,0-1.3,12.11"/><path class="cls-3" d="M52.14,135.42a3.48,3.48,0,0,0-1.2,2"/><path class="cls-3" d="M52.12,137.48a91.69,91.69,0,0,0-.86,11.94"/><path class="cls-3" d="M69.45,129.32a24,24,0,0,0-16.14,6"/><path class="cls-3" d="M53.29,135.34a3.46,3.46,0,0,0-1.16,2.16"/><path class="cls-3" d="M53.29,163.54a23.9,23.9,0,0,0,16.13,6"/><path class="cls-3" d="M52.12,163.44a26.56,26.56,0,0,0,17.27,6"/><path class="cls-3" d="M51.26,149.41a89.66,89.66,0,0,0,.85,11.92"/><path class="cls-3" d="M49.61,149.46a52.53,52.53,0,0,0,1.29,12.11"/><path class="cls-3" d="M52.13,161.36a3.52,3.52,0,0,0,1.15,2.16"/><path class="cls-3" d="M50.85,161.57a3.5,3.5,0,0,0,1.21,2"/><path class="cls-3" d="M66.69,170.61a10.74,10.74,0,0,0,8.84-4"/><path class="cls-3" d="M75.55,166.6a16.75,16.75,0,0,0,1.82-2.82"/><path class="cls-3" d="M77.37,135.08a16.28,16.28,0,0,0-1.82-2.81"/><path class="cls-3" d="M80.78,148a34.7,34.7,0,0,0-3.5-12.85"/><path class="cls-3" d="M77.86,155.26a25,25,0,0,0,0-11.66"/><path class="cls-3" d="M67.79,168A6.39,6.39,0,0,0,73,165.85"/><path class="cls-3" d="M73,165.78a22.89,22.89,0,0,0,4.84-10.54"/><path class="cls-3" d="M73,133.09a6.35,6.35,0,0,0-5.24-2.18"/><path class="cls-3" d="M77.79,143.62A22.89,22.89,0,0,0,73,133.08"/><path class="cls-3" d="M63.08,152.21a2.78,2.78,0,1,0-2.78-2.78,2.78,2.78,0,0,0,2.78,2.78"/><path class="cls-3" d="M63.08,151.38a1.95,1.95,0,1,0-1.95-1.95,1.95,1.95,0,0,0,1.95,1.95"/><line class="cls-3" x1="59.97" y1="212.51" x2="87.59" y2="212.51"/><polyline class="cls-3" points="58.31 213.67 47.95 213.67 47.95 183.9"/><line class="cls-3" x1="64.87" y1="198.74" x2="64.87" y2="187.71"/><polyline class="cls-3" points="87.59 212.51 64.87 209.86 64.87 198.74"/><line class="cls-3" x1="87.59" y1="185.06" x2="64.87" y2="187.71"/><line class="cls-3" x1="87.59" y1="211.76" x2="64.87" y2="209.11"/><line class="cls-3" x1="87.59" y1="185.8" x2="64.87" y2="188.46"/><line class="cls-3" x1="59.97" y1="185.06" x2="87.59" y2="185.06"/><line class="cls-3" x1="47.95" y1="183.89" x2="58.31" y2="183.89"/><polyline class="cls-3" points="87.59 212.51 90.66 212.1 93.57 210.94 96.14 209.03 98.13 206.54 99.62 203.64 100.37 200.4 100.37 197.08 99.62 193.93 98.13 190.94 96.14 188.54 93.57 186.63 90.66 185.47 87.59 185.06"/><polyline class="cls-3" points="87.59 211.76 90.5 211.43 93.23 210.27 95.64 208.53 97.55 206.21 98.96 203.39 99.62 200.32 99.62 197.25 98.96 194.18 97.55 191.36 95.64 189.04 93.23 187.29 90.5 186.13 87.59 185.8"/><path class="cls-3" d="M60,212.14a126.08,126.08,0,0,0,0-26.7"/><path class="cls-3" d="M58.36,213.67a1.76,1.76,0,0,0,1.77-1.51"/><path class="cls-3" d="M60.13,185.51A1.75,1.75,0,0,0,58.36,184"/><path class="cls-3" d="M56,198.78a1.45,1.45,0,1,0-1.45,1.45A1.45,1.45,0,0,0,56,198.78"/><polyline class="cls-3" points="76.15 728.02 75.73 728.02 75.73 771.15 76.15 771.15 76.15 728.02"/><polyline class="cls-3" points="74.57 772.73 74.57 772.32 2.49 772.32 2.49 772.73 74.57 772.73"/><polyline class="cls-3" points="0.92 771.15 1.25 771.15 1.25 728.02 0.92 728.02 0.92 771.15"/><polyline class="cls-3" points="76.56 726.12 74.57 726.12 74.57 728.02 76.56 728.02 76.56 726.12"/><polyline class="cls-3" points="76.56 771.15 74.57 771.15 74.57 773.15 76.56 773.15 76.56 771.15"/><polyline class="cls-3" points="2.49 773.15 2.49 771.15 0.5 771.15 0.5 773.15 2.49 773.15"/><polyline class="cls-3" points="0.5 728.02 2.49 728.02 2.49 726.12 0.5 726.12 0.5 728.02"/><line class="cls-3" x1="74.57" y1="727.03" x2="74.57" y2="771.15"/><line class="cls-3" x1="76.56" y1="773.15" x2="76.56" y2="727.03"/><line class="cls-3" x1="74.57" y1="771.15" x2="2.49" y2="771.15"/><line class="cls-3" x1="0.5" y1="773.15" x2="76.56" y2="773.15"/><line class="cls-3" x1="2.49" y1="771.15" x2="2.49" y2="727.03"/><line class="cls-3" x1="0.5" y1="727.03" x2="0.5" y2="773.15"/><polyline class="cls-3" points="76.56 727.03 76.56 726.12 74.57 726.12 74.57 727.03"/><polyline class="cls-3" points="2.49 727.03 2.49 726.12 0.5 726.12 0.5 727.03"/><polyline class="cls-3" points="0.5 773.15 76.56 773.15 76.56 727.03 74.57 727.03 74.57 771.15 2.49 771.15 2.49 727.03 0.5 727.03 0.5 773.15"/><polyline class="cls-3" points="4.4 759.04 72.58 759.04 72.58 733.91 4.4 733.91 4.4 759.04"/><polyline class="cls-3" points="4.4 756.47 72.58 756.47 72.58 733.91 4.4 733.91 4.4 756.47"/><polyline class="cls-3" points="305 290.48 320.67 290.48 320.67 368.87 305 368.87 305 290.48"/><polyline class="cls-3" points="305 627.49 320.67 627.49 320.67 705.88 305 705.88 305 627.49"/><polyline class="cls-3" points="30.69 627.49 46.37 627.49 46.37 705.88 30.69 705.88 30.69 627.49"/><polyline class="cls-3" points="30.69 290.48 46.37 290.48 46.37 368.87 30.69 368.87 30.69 290.48"/><polyline class="cls-3" points="305 0.5 320.67 0.5 320.67 78.88 305 78.88 305 0.5"/><polyline class="cls-3" points="30.69 0.5 46.37 0.5 46.37 78.88 30.69 78.88 30.69 0.5"/><text class="cls-7" transform="translate(153.75 514.72)">CT</text><text class="cls-7" transform="translate(128.39 564.89)">26.93</text><text class="cls-7" transform="translate(144.91 464.81)">№6</text><polyline class="cls-4" points="114.1 575.71 114.1 426.63 238.43 426.63 238.43 575.71"/><line class="cls-4" x1="114.1" y1="476.42" x2="238.43" y2="476.42"/><line class="cls-4" x1="114.1" y1="575.71" x2="238.43" y2="575.71"/><line class="cls-4" x1="114.1" y1="526.2" x2="238.43" y2="526.2"/><text class="cls-8" transform="translate(132.59 655.58)">16.74</text><text class="cls-8" transform="translate(118.43 329.67)">2.20</text><text class="cls-8" transform="translate(210.67 144.47)">3.81</text><text class="cls-8" transform="translate(104.74 196.42)">4.18</text></svg>