<svg id="_96" data-name="96" xmlns="http://www.w3.org/2000/svg" viewBox="0 0 396.27 770.96"><defs><style>.cls-1{isolation:isolate;font-size:12px;fill:#969696;}.cls-1,.cls-3,.cls-5{font-family:PTSans-Regular, PT Sans;}.cls-2,.cls-4,.cls-6,.cls-7,.cls-8,.cls-9{fill:none;stroke-linecap:round;stroke-linejoin:round;}.cls-2{stroke:#969696;stroke-width:0.75px;}.cls-3{font-size:40px;}.cls-4,.cls-6,.cls-7,.cls-8,.cls-9{stroke:#000;}.cls-4,.cls-8,.cls-9{stroke-width:0.5px;}.cls-5{font-size:36px;}.cls-6{stroke-width:0.25px;stroke-dasharray:1 1;}.cls-8{stroke-dasharray:2.97 2.97;}.cls-9{stroke-dasharray:2.97 2.97;}</style></defs><title>12floor_96flat</title><text class="cls-1" transform="translate(192.57 10.2)">двор</text><line class="cls-2" x1="181.81" y1="4.22" x2="181.81" y2="13.02"/><polyline class="cls-2" points="185.31 7.72 181.81 4.22 178.31 7.72"/><text class="cls-3" transform="translate(256.18 366.67)">CT</text><text class="cls-3" transform="translate(230.82 416.84)">23.40</text><text class="cls-3" transform="translate(236.44 316.76)">№96</text><polyline class="cls-4" points="216.53 427.66 216.53 278.58 340.85 278.58 340.85 427.66"/><line class="cls-4" x1="216.53" y1="328.37" x2="340.85" y2="328.37"/><line class="cls-4" x1="216.53" y1="427.66" x2="340.85" y2="427.66"/><line class="cls-4" x1="216.53" y1="378.15" x2="340.85" y2="378.15"/><text class="cls-5" transform="translate(93.94 634.58)">3.59</text><text class="cls-5" transform="translate(252.04 634.58)">3.55</text><text class="cls-5" transform="translate(101.42 435.08)">2.20</text><text class="cls-5" transform="translate(152 194.62)">14.06</text><line class="cls-6" x1="226.08" y1="558.52" x2="317.64" y2="558.52"/><line class="cls-6" x1="226.08" y1="550.8" x2="317.64" y2="550.8"/><line class="cls-6" x1="191.37" y1="676.2" x2="191.37" y2="592.96"/><line class="cls-6" x1="183.65" y1="676.2" x2="183.65" y2="592.96"/><line class="cls-6" x1="195.13" y1="770.3" x2="285.22" y2="770.3"/><line class="cls-7" x1="146.34" y1="102.53" x2="280.92" y2="130.23"/><polyline class="cls-7" points="146.34 67.87 287.79 96.95 287.59 97.95 285.7 107.12 280.92 130.23"/><line class="cls-7" x1="1.7" y1="132.22" x2="146.34" y2="102.53"/><polyline class="cls-7" points="146.34 67.87 144.05 68.37 0.5 98.35"/><line class="cls-7" x1="0.5" y1="132.22" x2="1.7" y2="132.22"/><line class="cls-7" x1="0.5" y1="98.35" x2="0.5" y2="98.35"/><line class="cls-7" x1="284.9" y1="97.35" x2="283.01" y2="106.62"/><line class="cls-7" x1="285.1" y1="96.46" x2="284.9" y2="97.35"/><line class="cls-7" x1="286.7" y1="107.32" x2="286.7" y2="107.32"/><polyline class="cls-7" points="288.59 98.15 285.8 97.55 283.91 106.82 285.8 97.55"/><line class="cls-7" x1="286" y1="96.66" x2="285.1" y2="96.46"/><polyline class="cls-7" points="286.69 107.31 285.6 112.89 282.01 130.43"/><line class="cls-7" x1="146.34" y1="67.87" x2="285.1" y2="96.46"/><line class="cls-7" x1="146.34" y1="102.53" x2="282.01" y2="130.43"/><polyline class="cls-7" points="146.34 84.2 151.42 85.3 152.21 81.61 154.51 82.01 154.9 80.22 147.53 78.73 146.34 78.43"/><polyline class="cls-7" points="231.41 95.96 227.72 95.16 227.32 97.06 229.62 97.55 228.92 101.24 230.21 101.54"/><line class="cls-7" x1="227.72" y1="95.16" x2="154.9" y2="80.22"/><polyline class="cls-7" points="151.02 87.09 156.6 88.29 222.94 101.94"/><polyline class="cls-7" points="156.6 88.29 157.69 82.71 152.21 81.61 151.02 87.09"/><polyline class="cls-7" points="229.62 97.55 224.14 96.36 222.94 101.94 228.52 103.03 229.62 97.55"/><line class="cls-7" x1="224.14" y1="96.36" x2="157.69" y2="82.71"/><line class="cls-7" x1="156.6" y1="88.29" x2="222.94" y2="101.94"/><line class="cls-7" x1="157.2" y1="85.5" x2="223.54" y2="99.15"/><line class="cls-7" x1="147.53" y1="78.73" x2="146.34" y2="84.2"/><polyline class="cls-7" points="230.21 101.54 231.61 101.74 232.41 98.05 234.7 98.55 235.09 96.76 231.41 95.96"/><polyline class="cls-7" points="286.69 107.31 279.32 105.82 278.93 107.71 281.22 108.11 280.52 111.8 285.6 112.89"/><line class="cls-7" x1="279.32" y1="105.82" x2="235.09" y2="96.76"/><polyline class="cls-7" points="231.31 103.63 236.79 104.72 274.64 112.5"/><polyline class="cls-7" points="236.79 104.72 237.88 99.25 232.41 98.05 231.31 103.63"/><polyline class="cls-7" points="281.22 108.11 275.74 107.02 274.64 112.5 280.12 113.69 281.22 108.11"/><line class="cls-7" x1="275.74" y1="107.02" x2="237.88" y2="99.25"/><line class="cls-7" x1="236.79" y1="104.73" x2="274.64" y2="112.5"/><line class="cls-7" x1="237.39" y1="102.04" x2="275.14" y2="109.81"/><polyline class="cls-7" points="282.01 130.43 285.6 112.89 286.69 107.31 285.6 112.89"/><line class="cls-7" x1="285.1" y1="96.46" x2="284.9" y2="97.35"/><polyline class="cls-7" points="283.01 106.62 283.91 106.82 283.01 106.62"/><polyline class="cls-7" points="283.91 106.82 286.69 107.31 283.91 106.82"/><line class="cls-7" x1="284.9" y1="97.35" x2="283.01" y2="106.62"/><line class="cls-7" x1="60.37" y1="86.6" x2="0.5" y2="99.35"/><line class="cls-7" x1="64.05" y1="85.8" x2="65.95" y2="94.96"/><line class="cls-7" x1="63.86" y1="84.9" x2="64.05" y2="85.8"/><line class="cls-7" x1="62.26" y1="95.76" x2="62.26" y2="95.76"/><polyline class="cls-7" points="60.37 86.59 63.16 86 65.05 95.16 63.16 86"/><line class="cls-7" x1="62.96" y1="85.1" x2="63.86" y2="84.9"/><polyline class="cls-7" points="62.26 95.76 63.36 101.34 66.94 118.77 19.33 128.63"/><line class="cls-7" x1="62.96" y1="85.1" x2="0.5" y2="98.35"/><line class="cls-7" x1="146.34" y1="67.87" x2="63.86" y2="84.9"/><line class="cls-7" x1="146.34" y1="102.53" x2="66.94" y2="118.77"/><polyline class="cls-7" points="146.34 84.2 141.26 85.3 140.56 81.61 138.27 82.01 137.87 80.22 145.24 78.73 146.34 78.43"/><polyline class="cls-7" points="62.26 95.76 69.63 94.27 70.03 96.06 67.74 96.56 68.44 100.24 63.36 101.34"/><line class="cls-7" x1="69.63" y1="94.27" x2="137.87" y2="80.22"/><polyline class="cls-7" points="141.66 87.09 136.18 88.29 74.31 100.94"/><polyline class="cls-7" points="136.18 88.29 134.98 82.71 140.56 81.61 141.66 87.09"/><polyline class="cls-7" points="67.74 96.56 73.22 95.46 74.31 100.94 68.84 102.14 67.74 96.56"/><line class="cls-7" x1="73.22" y1="95.46" x2="134.98" y2="82.71"/><line class="cls-7" x1="136.18" y1="88.29" x2="74.32" y2="100.94"/><line class="cls-7" x1="135.58" y1="85.5" x2="73.82" y2="98.15"/><line class="cls-7" x1="145.24" y1="78.73" x2="146.34" y2="84.2"/><polyline class="cls-7" points="66.94 118.77 63.36 101.34 62.26 95.76 63.36 101.34"/><line class="cls-7" x1="63.86" y1="84.9" x2="64.05" y2="85.8"/><polyline class="cls-7" points="65.95 94.96 65.05 95.16 65.95 94.96"/><polyline class="cls-7" points="65.05 95.16 62.26 95.76 65.05 95.16"/><line class="cls-7" x1="64.05" y1="85.8" x2="65.95" y2="94.96"/><line class="cls-7" x1="0.5" y1="99.35" x2="0.5" y2="99.35"/><line class="cls-7" x1="0.5" y1="132.22" x2="0.5" y2="132.22"/><polyline class="cls-7" points="0.5 98.35 0.5 98.35 0.5 124.61"/><line class="cls-7" x1="395.77" y1="97.45" x2="285.2" y2="97.45"/><line class="cls-7" x1="281.91" y1="130.33" x2="376.95" y2="130.33"/><line class="cls-7" x1="395.77" y1="130.33" x2="395.77" y2="130.33"/><line class="cls-7" x1="395.77" y1="96.46" x2="285.3" y2="96.46"/><line class="cls-7" x1="315.78" y1="716.76" x2="376.95" y2="716.76"/><polyline class="cls-7" points="296.96 697.94 315.78 697.94 376.95 697.94"/><polyline class="cls-7" points="375.65 95.06 375.65 43.26 376.05 43.26 376.05 95.06 375.65 95.06"/><polyline class="cls-7" points="374.16 41.87 287.59 41.87 287.59 41.47 374.16 41.47 374.16 41.87"/><polyline class="cls-7" points="286.2 43.26 286.2 95.06 285.7 95.06 285.7 43.26 286.2 43.26"/><polyline class="cls-7" points="374.16 97.45 374.16 95.06 376.55 95.06 376.55 97.45 374.16 97.45"/><polyline class="cls-7" points="374.16 43.26 374.16 40.97 376.55 40.97 376.55 43.26 374.16 43.26"/><polyline class="cls-7" points="287.59 43.26 285.2 43.26 285.2 40.97 287.59 40.97 287.59 43.26"/><polyline class="cls-7" points="287.59 95.06 287.59 97.45 285.2 97.45 285.2 95.06 287.59 95.06"/><line class="cls-7" x1="374.16" y1="96.26" x2="374.16" y2="43.26"/><line class="cls-7" x1="376.55" y1="40.97" x2="376.55" y2="96.26"/><line class="cls-7" x1="374.16" y1="43.26" x2="287.59" y2="43.26"/><line class="cls-7" x1="285.2" y1="40.97" x2="376.55" y2="40.97"/><line class="cls-7" x1="287.59" y1="43.26" x2="287.59" y2="96.26"/><line class="cls-7" x1="285.2" y1="96.26" x2="285.2" y2="40.97"/><polyline class="cls-7" points="376.55 96.26 376.55 97.45 374.16 97.45 374.16 96.26"/><polyline class="cls-7" points="287.59 96.26 287.59 97.45 285.2 97.45 285.2 96.26"/><polyline class="cls-7" points="285.2 40.97 376.55 40.97 376.55 96.26 374.16 96.26 374.16 43.26 287.59 43.26 287.59 96.26 285.2 96.26 285.2 40.97"/><polyline class="cls-7" points="289.98 57.91 371.87 57.91 371.87 87.99 289.98 87.99 289.98 57.91"/><polyline class="cls-7" points="289.98 60.89 371.87 60.89 371.87 87.99 289.98 87.99 289.98 60.89"/><line class="cls-4" x1="19.33" y1="378.87" x2="20.83" y2="378.87"/><line class="cls-8" x1="23.8" y1="378.87" x2="188.58" y2="378.87"/><polyline class="cls-4" points="190.06 378.87 191.56 378.87 191.56 380.37"/><line class="cls-9" x1="191.56" y1="383.34" x2="191.56" y2="488.85"/><line class="cls-4" x1="191.56" y1="490.33" x2="191.56" y2="491.83"/><line class="cls-7" x1="19.33" y1="751.63" x2="19.33" y2="516.24"/><line class="cls-7" x1="19.33" y1="422.2" x2="19.33" y2="205.64"/><line class="cls-7" x1="0.5" y1="205.64" x2="0.5" y2="422.2"/><line class="cls-7" x1="0.5" y1="516.24" x2="0.5" y2="751.63"/><line class="cls-7" x1="395.77" y1="716.76" x2="395.77" y2="516.24"/><line class="cls-7" x1="395.77" y1="422.2" x2="395.77" y2="96.86"/><line class="cls-7" x1="376.95" y1="205.64" x2="376.95" y2="422.2"/><line class="cls-7" x1="376.95" y1="516.24" x2="376.95" y2="697.94"/><line class="cls-7" x1="376.95" y1="716.76" x2="376.95" y2="716.76"/><line class="cls-7" x1="191.56" y1="605.69" x2="183.99" y2="605.69"/><line class="cls-7" x1="191.56" y1="671.64" x2="183.99" y2="671.64"/><line class="cls-7" x1="183.99" y1="499.3" x2="183.99" y2="551.1"/><line class="cls-7" x1="183.99" y1="558.67" x2="183.99" y2="605.69"/><polyline class="cls-7" points="183.99 671.64 183.99 751.63 191.56 751.63 191.56 671.64"/><line class="cls-7" x1="191.56" y1="605.69" x2="191.56" y2="558.67"/><line class="cls-7" x1="191.56" y1="551.1" x2="191.56" y2="491.83"/><line class="cls-7" x1="191.56" y1="671.64" x2="183.99" y2="671.64"/><line class="cls-7" x1="191.56" y1="605.69" x2="183.99" y2="605.69"/><line class="cls-7" x1="226.33" y1="558.67" x2="226.33" y2="551.1"/><polyline class="cls-7" points="311.1 558.67 311.1 551.1 376.95 551.1"/><line class="cls-7" x1="226.33" y1="551.1" x2="191.56" y2="551.1"/><line class="cls-7" x1="183.99" y1="551.1" x2="183.1" y2="551.1"/><line class="cls-7" x1="183.1" y1="558.67" x2="183.99" y2="558.67"/><line class="cls-7" x1="191.56" y1="558.67" x2="226.33" y2="558.67"/><polyline class="cls-7" points="311.1 558.67 376.95 558.67 376.95 551.1"/><line class="cls-7" x1="311.1" y1="558.67" x2="311.1" y2="551.1"/><line class="cls-7" x1="226.33" y1="558.67" x2="226.33" y2="551.1"/><polyline class="cls-7" points="395.77 706.4 395.77 710.19 395.77 713.97"/><line class="cls-7" x1="395.77" y1="706.4" x2="395.77" y2="706.4"/><line class="cls-7" x1="395.77" y1="713.97" x2="395.77" y2="713.97"/><line class="cls-7" x1="395.77" y1="706.4" x2="395.77" y2="693.55"/><polyline class="cls-7" points="395.77 713.97 395.77 710.19 395.77 706.4 395.77 710.19"/><polyline class="cls-7" points="191.56 491.83 183.99 491.83 19.33 491.83"/><line class="cls-7" x1="19.33" y1="499.3" x2="66.35" y2="499.3"/><line class="cls-7" x1="73.92" y1="499.3" x2="183.99" y2="499.3"/><line class="cls-7" x1="73.92" y1="551.1" x2="73.92" y2="499.3"/><line class="cls-7" x1="66.35" y1="499.3" x2="66.35" y2="551.1"/><polyline class="cls-7" points="28.69 558.67 28.69 554.89 28.69 551.1"/><polyline class="cls-7" points="66.35 558.67 66.35 554.89 66.35 551.1"/><line class="cls-7" x1="19.33" y1="558.67" x2="28.69" y2="558.67"/><line class="cls-7" x1="66.35" y1="558.67" x2="183.1" y2="558.67"/><line class="cls-7" x1="183.1" y1="551.1" x2="73.92" y2="551.1"/><polyline class="cls-7" points="28.69 551.1 19.33 551.1 19.33 558.67"/><line class="cls-7" x1="66.35" y1="558.67" x2="28.69" y2="558.67"/><line class="cls-7" x1="66.35" y1="551.1" x2="28.69" y2="551.1"/><path class="cls-7" d="M64.08,599.84A37.58,37.58,0,0,0,66.35,587" transform="translate(0 -28.36)"/><line class="cls-7" x1="28.69" y1="558.67" x2="64.05" y2="571.52"/><polyline class="cls-7" points="66.35 551.1 66.35 554.89 66.35 558.67 66.35 554.89"/><polyline class="cls-7" points="28.69 551.1 28.69 554.89 28.69 558.67 28.69 554.89"/><polyline class="cls-7" points="191.66 770.46 191.66 762.88 191.66 751.63"/><polyline class="cls-7" points="285.8 770.46 285.8 762.88 285.8 751.63"/><line class="cls-7" x1="57.08" y1="770.46" x2="191.66" y2="770.46"/><line class="cls-7" x1="285.8" y1="770.46" x2="315.78" y2="770.46"/><line class="cls-7" x1="296.96" y1="751.63" x2="285.8" y2="751.63"/><line class="cls-7" x1="191.66" y1="751.63" x2="57.08" y2="751.63"/><polyline class="cls-7" points="285.8 770.46 285.5 770.46 285.4 770.46"/><polyline class="cls-7" points="285.8 751.63 285.5 751.63 285.4 751.63"/><path class="cls-7" d="M282.11,791.19a86.61,86.61,0,0,0-86.61-86.61" transform="translate(0 -28.36)"/><polyline class="cls-7" points="285.8 770.46 282.01 770.46 282.01 762.88 285.8 762.88 285.8 770.46"/><polyline class="cls-7" points="191.66 762.88 195.45 762.88 195.45 770.46 191.66 770.46 191.66 762.88"/><line class="cls-7" x1="195.45" y1="762.89" x2="195.45" y2="676.32"/><polyline class="cls-7" points="285.8 751.63 285.8 762.88 285.8 770.46 285.8 762.88"/><polyline class="cls-7" points="191.66 751.63 191.66 762.88 191.66 770.46 191.66 762.88"/><polyline class="cls-7" points="315.78 770.46 315.78 751.63 315.78 716.76"/><line class="cls-7" x1="296.96" y1="697.94" x2="296.96" y2="751.63"/><polyline class="cls-7" points="0.5 751.63 57.08 751.63 57.08 770.46 0.5 770.46"/><polyline class="cls-7" points="376.95 205.64 395.77 205.64 395.77 111.5 376.95 111.5 376.95 205.64"/><polyline class="cls-7" points="395.77 422.2 376.95 422.2 376.95 516.24 395.77 516.24 395.77 422.2"/><polyline class="cls-7" points="0.5 205.64 19.33 205.64 19.33 111.5 0.5 111.5 0.5 205.64"/><polyline class="cls-7" points="19.33 422.2 0.5 422.2 0.5 516.24 19.33 516.24 19.33 422.2"/><line class="cls-7" x1="395.77" y1="716.76" x2="376.95" y2="716.76"/><line class="cls-7" x1="24.31" y1="740.27" x2="24.31" y2="692.26"/><line class="cls-7" x1="29.29" y1="686.68" x2="138.97" y2="686.68"/><line class="cls-7" x1="29.29" y1="745.95" x2="138.97" y2="745.95"/><line class="cls-7" x1="169.85" y1="681" x2="19.33" y2="681"/><polyline class="cls-7" points="169.85 681 169.85 751.63 19.33 751.63 19.33 681"/><line class="cls-7" x1="121.33" y1="736.09" x2="35.56" y2="736.09"/><line class="cls-7" x1="33.07" y1="733.3" x2="33.07" y2="699.33"/><line class="cls-7" x1="121.33" y1="696.44" x2="35.56" y2="696.44"/><line class="cls-7" x1="50.71" y1="718.06" x2="50.71" y2="721.54"/><line class="cls-7" x1="49.11" y1="716.27" x2="46.02" y2="716.27"/><line class="cls-7" x1="50.71" y1="714.57" x2="50.71" y2="711.09"/><line class="cls-7" x1="52.2" y1="716.27" x2="55.29" y2="716.27"/><path class="cls-7" d="M139,774.21c14.55,0,26.34-13.27,26.34-29.64S153.57,714.94,139,714.94" transform="translate(0 -28.36)"/><path class="cls-7" d="M29.34,714.94c-2.78,0-5,2.52-5,5.63" transform="translate(0 -28.36)"/><path class="cls-7" d="M24.31,768.58c0,3.11,2.25,5.63,5,5.63" transform="translate(0 -28.36)"/><path class="cls-7" d="M50.76,741.63a3,3,0,1,0,2.64,2.94,2.8,2.8,0,0,0-2.64-2.94" transform="translate(0 -28.36)"/><path class="cls-7" d="M121.38,764.45c9.71,0,17.59-8.9,17.59-19.88s-7.88-19.87-17.59-19.87" transform="translate(0 -28.36)"/><path class="cls-7" d="M33.07,761.61a2.71,2.71,0,0,0,2.54,2.84" transform="translate(0 -28.36)"/><path class="cls-7" d="M35.61,724.8a2.7,2.7,0,0,0-2.54,2.84" transform="translate(0 -28.36)"/><path class="cls-7" d="M50.76,740.64a4,4,0,1,0,3.53,3.93,3.75,3.75,0,0,0-3.53-3.93" transform="translate(0 -28.36)"/><polyline class="cls-7" points="40.74 627.31 19.33 627.31 19.33 678.21 40.74 678.21"/><line class="cls-7" x1="19.33" y1="660.78" x2="19.33" y2="644.74"/><line class="cls-7" x1="36.56" y1="656.99" x2="36.56" y2="654.3"/><line class="cls-7" x1="32.28" y1="652.71" x2="34.97" y2="652.71"/><line class="cls-7" x1="36.56" y1="651.22" x2="36.56" y2="648.43"/><line class="cls-7" x1="38.15" y1="652.71" x2="40.84" y2="652.71"/><path class="cls-7" d="M42.13,658.74a22.68,22.68,0,0,0-10.71,8.79" transform="translate(0 -28.36)"/><path class="cls-7" d="M31.44,667.53A22.71,22.71,0,0,0,28.27,681" transform="translate(0 -28.36)"/><path class="cls-7" d="M31.42,694.6a22.62,22.62,0,0,0,10.71,8.79" transform="translate(0 -28.36)"/><path class="cls-7" d="M28.27,681.09a22.69,22.69,0,0,0,3.17,13.51" transform="translate(0 -28.36)"/><path class="cls-7" d="M57.87,679.25a41.82,41.82,0,0,0-4.2-15.42" transform="translate(0 -28.36)"/><path class="cls-7" d="M40.84,706.46a12.9,12.9,0,0,0,10.61-4.82" transform="translate(0 -28.36)"/><path class="cls-7" d="M57.92,682.9a26.43,26.43,0,0,0,0-3.56" transform="translate(0 -28.36)"/><path class="cls-7" d="M32.28,666.89a92.88,92.88,0,0,0,0,28.44" transform="translate(0 -28.36)"/><path class="cls-7" d="M23.38,698a31.92,31.92,0,0,0,20.75,7.2" transform="translate(0 -28.36)"/><path class="cls-7" d="M20.42,681A64.1,64.1,0,0,0,22,695.58" transform="translate(0 -28.36)"/><path class="cls-7" d="M21.92,695.6a4.22,4.22,0,0,0,1.45,2.34" transform="translate(0 -28.36)"/><path class="cls-7" d="M22.32,681a107.45,107.45,0,0,0,1,14.34" transform="translate(0 -28.36)"/><path class="cls-7" d="M24.78,698a28.67,28.67,0,0,0,19.38,7.18" transform="translate(0 -28.36)"/><path class="cls-7" d="M23.45,695.45a4.25,4.25,0,0,0,1.4,2.59" transform="translate(0 -28.36)"/><path class="cls-7" d="M44.12,657a28.76,28.76,0,0,0-19.37,7.21" transform="translate(0 -28.36)"/><path class="cls-7" d="M44.09,657a32,32,0,0,0-20.74,7.22" transform="translate(0 -28.36)"/><path class="cls-7" d="M23.33,666.72a109,109,0,0,0-1,14.33" transform="translate(0 -28.36)"/><path class="cls-7" d="M22,666.54a63,63,0,0,0-1.55,14.55" transform="translate(0 -28.36)"/><path class="cls-7" d="M24.74,664.2a4.23,4.23,0,0,0-1.39,2.59" transform="translate(0 -28.36)"/><path class="cls-7" d="M23.37,664.2a4.22,4.22,0,0,0-1.45,2.34" transform="translate(0 -28.36)"/><path class="cls-7" d="M51.45,660.49a12.89,12.89,0,0,0-10.61-4.81" transform="translate(0 -28.36)"/><path class="cls-7" d="M53.67,663.89a19.82,19.82,0,0,0-2.19-3.39" transform="translate(0 -28.36)"/><path class="cls-7" d="M51.48,701.73a19.74,19.74,0,0,0,2.19-3.38" transform="translate(0 -28.36)"/><path class="cls-7" d="M53.67,698.31a41.87,41.87,0,0,0,4.2-15.42" transform="translate(0 -28.36)"/><path class="cls-7" d="M54.26,688.12a29.85,29.85,0,0,0,0-14" transform="translate(0 -28.36)"/><path class="cls-7" d="M48.46,661.39a7.66,7.66,0,0,0-6.3-2.62" transform="translate(0 -28.36)"/><path class="cls-7" d="M54.27,674a27.61,27.61,0,0,0-5.8-12.65" transform="translate(0 -28.36)"/><path class="cls-7" d="M42.16,703.36a7.6,7.6,0,0,0,6.3-2.62" transform="translate(0 -28.36)"/><path class="cls-7" d="M48.47,700.75a27.6,27.6,0,0,0,5.8-12.66" transform="translate(0 -28.36)"/><path class="cls-7" d="M40,681a3.34,3.34,0,1,0-3.34,3.34A3.35,3.35,0,0,0,40,681" transform="translate(0 -28.36)"/><path class="cls-7" d="M39,681a2.34,2.34,0,1,0-2.34,2.34A2.34,2.34,0,0,0,39,681" transform="translate(0 -28.36)"/><line class="cls-7" x1="33.77" y1="579.79" x2="66.94" y2="579.79"/><polyline class="cls-7" points="31.78 578.4 19.33 578.4 19.33 614.16"/><line class="cls-7" x1="39.55" y1="596.33" x2="39.55" y2="609.58"/><polyline class="cls-7" points="66.94 579.79 39.55 582.98 39.55 596.33"/><line class="cls-7" x1="66.94" y1="612.76" x2="39.55" y2="609.58"/><line class="cls-7" x1="66.94" y1="580.69" x2="39.55" y2="583.88"/><line class="cls-7" x1="66.94" y1="611.87" x2="39.55" y2="608.68"/><line class="cls-7" x1="33.77" y1="612.76" x2="66.94" y2="612.76"/><line class="cls-7" x1="19.33" y1="614.16" x2="31.78" y2="614.16"/><polyline class="cls-7" points="66.94 579.79 70.63 580.29 74.12 581.68 77.2 583.98 79.59 586.96 81.39 590.45 82.28 594.34 82.28 598.32 81.39 602.11 79.59 605.69 77.2 608.68 74.12 610.87 70.63 612.27 66.94 612.76"/><polyline class="cls-7" points="66.94 580.69 70.43 581.09 73.72 582.48 76.61 584.57 78.9 587.46 80.59 590.75 81.39 594.43 81.39 598.22 80.59 601.81 78.9 605.19 76.61 607.98 73.72 610.17 70.43 611.47 66.94 611.87"/><path class="cls-7" d="M33.82,640.66a152,152,0,0,0,0-32.06" transform="translate(0 -28.36)"/><path class="cls-7" d="M34,608.57a2.12,2.12,0,0,0-2.13-1.82" transform="translate(0 -28.36)"/><path class="cls-7" d="M31.83,642.42A2.11,2.11,0,0,0,34,640.58" transform="translate(0 -28.36)"/><path class="cls-7" d="M29,624.64a1.75,1.75,0,1,0-1.74,1.74A1.74,1.74,0,0,0,29,624.64" transform="translate(0 -28.36)"/><line class="cls-7" x1="0.5" y1="644.74" x2="0.5" y2="660.78"/><polyline class="cls-7" points="75.81 435.35 75.81 487.15 24.01 487.15 24.01 435.35 75.81 435.35"/><polyline class="cls-7" points="28.69 440.03 71.03 440.03 71.03 477.69 28.69 477.69 28.69 440.03"/><polyline class="cls-7" points="0.5 770.46 0.5 751.63 0.5 681"/></svg>