<svg id="_373" data-name="373" xmlns="http://www.w3.org/2000/svg" viewBox="0 0 504.39 719.53"><defs><style>.cls-1{isolation:isolate;font-size:12px;fill:#969696;}.cls-1,.cls-3,.cls-4,.cls-6{font-family:PTSans-Regular, PT Sans;}.cls-10,.cls-11,.cls-12,.cls-13,.cls-14,.cls-2,.cls-5,.cls-7,.cls-8,.cls-9{fill:none;stroke-linecap:round;stroke-linejoin:round;}.cls-2{stroke:#969696;stroke-width:0.75px;}.cls-3{font-size:40px;}.cls-4{font-size:40.54px;}.cls-10,.cls-11,.cls-12,.cls-13,.cls-14,.cls-5,.cls-7,.cls-8,.cls-9{stroke:#000;}.cls-13,.cls-14,.cls-5{stroke-width:0.5px;}.cls-6{font-size:36px;}.cls-10,.cls-11,.cls-7,.cls-8,.cls-9{stroke-width:0.25px;}.cls-8{stroke-dasharray:1 1;}.cls-9{stroke-dasharray:0.99 0.99;}.cls-10{stroke-dasharray:1.01 1.01;}.cls-11{stroke-dasharray:0.99 0.99;}.cls-13{stroke-dasharray:2.96 2.96;}.cls-14{stroke-dasharray:3.06 3.06;}</style></defs><title>11floor_373flat</title><text class="cls-1" transform="translate(246.62 10.2)">двор</text><line class="cls-2" x1="235.86" y1="4.22" x2="235.86" y2="13.02"/><polyline class="cls-2" points="239.36 7.72 235.86 4.22 232.36 7.72"/><text class="cls-3" transform="translate(110.09 303.05)">2E</text><text class="cls-4" transform="translate(83.19 353.23)">34.30</text><text class="cls-3" transform="translate(78.55 253.15)">№373</text><polyline class="cls-5" points="69.54 364.04 69.54 214.97 193.87 214.97 193.87 364.04"/><line class="cls-5" x1="69.54" y1="264.75" x2="193.87" y2="264.75"/><line class="cls-5" x1="69.54" y1="364.04" x2="193.87" y2="364.04"/><line class="cls-5" x1="69.54" y1="314.54" x2="193.87" y2="314.54"/><text class="cls-6" transform="translate(340 173.78)">9.24</text><text class="cls-6" transform="translate(91.81 173.78)">12.81</text><text class="cls-6" transform="translate(354.91 610.8)">3.59</text><text class="cls-6" transform="translate(50.57 610.8)">2.26</text><text class="cls-6" transform="translate(218.32 610.8)">4.20</text><text class="cls-6" transform="translate(355.49 421.21)">2.20</text><line class="cls-7" x1="154.34" y1="572.85" x2="154.34" y2="573.35"/><line class="cls-8" x1="154.34" y1="574.36" x2="154.34" y2="644.02"/><line class="cls-7" x1="154.34" y1="644.52" x2="154.34" y2="645.02"/><line class="cls-7" x1="161" y1="572.85" x2="161" y2="573.35"/><line class="cls-8" x1="161" y1="574.36" x2="161" y2="644.02"/><line class="cls-7" x1="161" y1="644.52" x2="161" y2="645.02"/><line class="cls-7" x1="339.72" y1="572.85" x2="339.72" y2="573.35"/><line class="cls-8" x1="339.72" y1="574.36" x2="339.72" y2="644.02"/><line class="cls-7" x1="339.72" y1="644.52" x2="339.72" y2="645.02"/><line class="cls-7" x1="332.97" y1="572.85" x2="332.97" y2="573.35"/><line class="cls-8" x1="332.97" y1="574.36" x2="332.97" y2="644.02"/><line class="cls-7" x1="332.97" y1="644.52" x2="332.97" y2="645.02"/><line class="cls-7" x1="167.75" y1="530.28" x2="168.25" y2="530.28"/><line class="cls-9" x1="169.24" y1="530.28" x2="242.22" y2="530.28"/><line class="cls-7" x1="242.71" y1="530.28" x2="243.21" y2="530.28"/><line class="cls-7" x1="167.75" y1="523.53" x2="168.25" y2="523.53"/><line class="cls-9" x1="169.24" y1="523.53" x2="242.22" y2="523.53"/><line class="cls-7" x1="242.71" y1="523.53" x2="243.21" y2="523.53"/><line class="cls-7" x1="259.99" y1="523.53" x2="260.49" y2="523.53"/><line class="cls-10" x1="261.51" y1="523.53" x2="331.97" y2="523.53"/><line class="cls-7" x1="332.47" y1="523.53" x2="332.97" y2="523.53"/><line class="cls-7" x1="259.99" y1="530.28" x2="260.49" y2="530.28"/><line class="cls-10" x1="261.51" y1="530.28" x2="331.97" y2="530.28"/><line class="cls-7" x1="332.47" y1="530.28" x2="332.97" y2="530.28"/><line class="cls-7" x1="231.5" y1="719.03" x2="232" y2="719.03"/><line class="cls-11" x1="232.99" y1="719.03" x2="306.05" y2="719.03"/><line class="cls-7" x1="306.55" y1="719.03" x2="307.05" y2="719.03"/><line class="cls-12" x1="260.54" y1="523.62" x2="260.54" y2="530.28"/><line class="cls-12" x1="327.66" y1="523.62" x2="327.66" y2="530.28"/><line class="cls-12" x1="243.76" y1="523.62" x2="243.76" y2="530.28"/><line class="cls-12" x1="168.3" y1="523.62" x2="168.3" y2="530.28"/><line class="cls-12" x1="333.52" y1="523.62" x2="327.66" y2="523.62"/><line class="cls-12" x1="253.88" y1="523.62" x2="243.76" y2="523.62"/><polyline class="cls-12" points="168.3 523.62 17.28 523.62 17.28 530.28 154.89 530.28"/><line class="cls-12" x1="161.55" y1="530.28" x2="168.3" y2="530.28"/><line class="cls-12" x1="243.76" y1="530.28" x2="260.54" y2="530.28"/><polyline class="cls-12" points="327.66 530.28 333.52 530.28 333.52 523.62"/><line class="cls-12" x1="327.66" y1="523.62" x2="327.66" y2="530.28"/><line class="cls-12" x1="260.54" y1="523.62" x2="260.54" y2="530.28"/><line class="cls-12" x1="168.3" y1="523.62" x2="168.3" y2="530.28"/><line class="cls-12" x1="243.76" y1="523.62" x2="243.76" y2="530.28"/><line class="cls-12" x1="340.27" y1="633.44" x2="333.52" y2="633.44"/><polyline class="cls-12" points="340.27 574.76 333.52 574.76 333.52 474.97"/><polyline class="cls-12" points="333.52 633.45 333.52 702.25 340.27 702.25 340.27 633.45"/><line class="cls-12" x1="340.27" y1="574.76" x2="340.27" y2="530.28"/><line class="cls-12" x1="340.27" y1="523.62" x2="340.27" y2="481.63"/><line class="cls-12" x1="340.27" y1="474.97" x2="333.52" y2="474.97"/><line class="cls-12" x1="340.27" y1="574.76" x2="333.52" y2="574.76"/><line class="cls-12" x1="340.27" y1="633.44" x2="333.52" y2="633.44"/><line class="cls-12" x1="340.27" y1="481.63" x2="438.37" y2="481.63"/><polyline class="cls-12" points="445.12 481.63 487.11 481.63 487.11 474.97 445.12 474.97"/><line class="cls-12" x1="438.37" y1="474.97" x2="340.27" y2="474.97"/><line class="cls-12" x1="445.12" y1="523.62" x2="445.12" y2="481.63"/><line class="cls-12" x1="445.12" y1="474.97" x2="438.37" y2="474.97"/><line class="cls-12" x1="438.37" y1="481.63" x2="438.37" y2="523.62"/><line class="cls-12" x1="253.88" y1="140.26" x2="253.88" y2="523.62"/><polyline class="cls-12" points="260.54 523.62 260.54 140.26 253.88 140.26"/><line class="cls-12" x1="154.89" y1="633.44" x2="161.55" y2="633.44"/><line class="cls-12" x1="154.89" y1="574.76" x2="161.55" y2="574.76"/><line class="cls-12" x1="161.55" y1="646.05" x2="161.55" y2="633.44"/><line class="cls-12" x1="161.55" y1="574.76" x2="161.55" y2="530.28"/><line class="cls-12" x1="154.89" y1="530.28" x2="154.89" y2="574.76"/><polyline class="cls-12" points="154.89 633.45 154.89 646.05 161.55 646.05"/><line class="cls-12" x1="154.89" y1="574.76" x2="161.55" y2="574.76"/><line class="cls-12" x1="154.89" y1="633.44" x2="161.55" y2="633.44"/><polyline class="cls-12" points="482.85 530.28 482.85 526.91 482.85 523.62"/><polyline class="cls-12" points="340.27 530.28 449.29 530.28 449.29 526.91 449.29 523.62"/><polyline class="cls-12" points="482.85 530.28 487.11 530.28 487.11 523.62 482.85 523.62"/><line class="cls-12" x1="449.29" y1="523.62" x2="445.12" y2="523.62"/><line class="cls-12" x1="438.37" y1="523.62" x2="340.27" y2="523.62"/><line class="cls-12" x1="449.29" y1="530.28" x2="482.85" y2="530.28"/><line class="cls-12" x1="449.29" y1="523.62" x2="482.85" y2="523.62"/><path class="cls-12" d="M449.34,558.59a33.41,33.41,0,0,0,2,11.46" transform="translate(0.04 -28.35)"/><line class="cls-12" x1="482.85" y1="530.28" x2="451.33" y2="541.82"/><polyline class="cls-12" points="449.29 523.62 449.29 526.91 449.29 530.28 449.29 526.91"/><polyline class="cls-12" points="482.85 523.62 482.85 526.91 482.85 530.28 482.85 526.91"/><line class="cls-12" x1="289.66" y1="110.25" x2="252.99" y2="117.8"/><line class="cls-12" x1="292.95" y1="109.54" x2="294.63" y2="117.8"/><line class="cls-12" x1="292.77" y1="108.75" x2="292.95" y2="109.54"/><line class="cls-12" x1="291.35" y1="118.42" x2="291.35" y2="118.42"/><polyline class="cls-12" points="289.66 110.25 292.15 109.72 293.83 117.98 292.15 109.72"/><line class="cls-12" x1="291.97" y1="108.92" x2="292.77" y2="108.75"/><polyline class="cls-12" points="291.35 118.42 292.41 123.39 295.61 139.02"/><line class="cls-12" x1="291.97" y1="108.92" x2="252.99" y2="116.91"/><line class="cls-12" x1="252.99" y1="147.72" x2="295.61" y2="139.02"/><polyline class="cls-12" points="369.65 88.68 291.97 104.66 292.77 108.75"/><line class="cls-12" x1="369.65" y1="123.75" x2="295.61" y2="139.02"/><line class="cls-12" x1="369.65" y1="92.94" x2="292.77" y2="108.75"/><line class="cls-12" x1="369.65" y1="123.75" x2="295.61" y2="139.02"/><polyline class="cls-12" points="369.65 107.5 365.13 108.39 364.42 105.11 362.37 105.55 362.02 103.95 368.59 102.53 369.65 102.35"/><polyline class="cls-12" points="291.35 118.42 297.92 117.09 298.27 118.78 296.23 119.13 296.94 122.42 292.41 123.39"/><line class="cls-12" x1="297.92" y1="117.09" x2="362.02" y2="103.95"/><polyline class="cls-12" points="365.48 110.08 360.51 111.05 302.18 123.04"/><polyline class="cls-12" points="360.51 111.05 359.53 106.17 364.42 105.11 365.48 110.08"/><polyline class="cls-12" points="296.23 119.13 301.2 118.16 302.18 123.04 297.21 124.11 296.23 119.13"/><line class="cls-12" x1="301.2" y1="118.16" x2="359.53" y2="106.17"/><line class="cls-12" x1="360.51" y1="111.05" x2="302.18" y2="123.04"/><line class="cls-12" x1="359.98" y1="108.57" x2="301.65" y2="120.64"/><line class="cls-12" x1="368.59" y1="102.53" x2="369.65" y2="107.5"/><polyline class="cls-12" points="295.61 139.02 292.41 123.39 291.35 118.42 292.41 123.39"/><line class="cls-12" x1="292.77" y1="108.75" x2="292.95" y2="109.54"/><polyline class="cls-12" points="294.63 117.8 293.83 117.98 294.63 117.8"/><polyline class="cls-12" points="293.83 117.98 291.35 118.42 293.83 117.98"/><line class="cls-12" x1="292.95" y1="109.54" x2="294.63" y2="117.8"/><polyline class="cls-12" points="503.89 121.49 491.29 118.78 503.89 121.49"/><line class="cls-12" x1="491.28" y1="118.78" x2="449.56" y2="110.25"/><line class="cls-12" x1="446.27" y1="109.54" x2="444.59" y2="117.8"/><line class="cls-12" x1="446.45" y1="108.75" x2="446.27" y2="109.54"/><line class="cls-12" x1="447.87" y1="118.42" x2="447.87" y2="118.42"/><polyline class="cls-12" points="449.56 110.25 447.07 109.72 445.38 117.98 447.07 109.72"/><line class="cls-12" x1="447.25" y1="108.92" x2="446.45" y2="108.75"/><polyline class="cls-12" points="447.87 118.42 446.89 123.39 443.61 139.02"/><polyline class="cls-12" points="447.25 108.92 503.89 120.69 503.89 137.49"/><line class="cls-12" x1="443.61" y1="139.02" x2="487.11" y2="147.95"/><polyline class="cls-12" points="369.65 88.68 447.34 104.66 446.45 108.75"/><line class="cls-12" x1="369.65" y1="123.75" x2="443.61" y2="139.02"/><line class="cls-12" x1="369.65" y1="92.94" x2="446.45" y2="108.75"/><line class="cls-12" x1="369.65" y1="123.75" x2="443.61" y2="139.02"/><polyline class="cls-12" points="369.65 107.5 374.18 108.39 374.8 105.11 376.85 105.55 377.2 103.95 370.63 102.53 369.65 102.35"/><polyline class="cls-12" points="447.87 118.42 441.3 117.09 440.94 118.78 442.99 119.13 442.37 122.42 446.89 123.39"/><line class="cls-12" x1="441.3" y1="117.09" x2="377.2" y2="103.95"/><polyline class="cls-12" points="373.83 110.08 378.71 111.05 437.04 123.04"/><polyline class="cls-12" points="378.71 111.05 379.77 106.17 374.8 105.11 373.83 110.08"/><polyline class="cls-12" points="442.99 119.13 438.11 118.16 437.04 123.04 442.01 124.11 442.99 119.13"/><line class="cls-12" x1="438.1" y1="118.16" x2="379.77" y2="106.17"/><line class="cls-12" x1="378.71" y1="111.05" x2="437.04" y2="123.04"/><line class="cls-12" x1="379.24" y1="108.57" x2="437.57" y2="120.64"/><line class="cls-12" x1="370.63" y1="102.53" x2="369.65" y2="107.5"/><polyline class="cls-12" points="443.61 139.02 446.89 123.39 447.87 118.42 446.89 123.39"/><line class="cls-12" x1="446.45" y1="108.75" x2="446.27" y2="109.54"/><polyline class="cls-12" points="444.58 117.8 445.38 117.98 444.58 117.8"/><polyline class="cls-12" points="445.38 117.98 447.87 118.42 445.38 117.98"/><line class="cls-12" x1="446.27" y1="109.54" x2="444.59" y2="117.8"/><line class="cls-12" x1="56.52" y1="110.25" x2="0.5" y2="121.57"/><line class="cls-12" x1="59.81" y1="109.54" x2="61.49" y2="117.8"/><line class="cls-12" x1="59.63" y1="108.75" x2="59.81" y2="109.54"/><line class="cls-12" x1="58.21" y1="118.42" x2="58.21" y2="118.42"/><polyline class="cls-12" points="56.52 110.25 58.92 109.72 60.6 117.98 58.92 109.72"/><line class="cls-12" x1="58.74" y1="108.92" x2="59.63" y2="108.75"/><polyline class="cls-12" points="58.21 118.42 59.19 123.39 62.38 139.02"/><polyline class="cls-12" points="58.74 108.92 0.5 120.69 0.5 134.01"/><line class="cls-12" x1="17.28" y1="148.24" x2="62.38" y2="139.02"/><polyline class="cls-12" points="136.42 88.68 58.74 104.66 59.63 108.75"/><line class="cls-12" x1="136.42" y1="123.75" x2="62.38" y2="139.02"/><line class="cls-12" x1="136.42" y1="92.94" x2="59.63" y2="108.75"/><line class="cls-12" x1="136.42" y1="123.75" x2="62.38" y2="139.02"/><polyline class="cls-12" points="136.42 107.5 131.9 108.39 131.19 105.11 129.14 105.55 128.79 103.95 135.45 102.53 136.42 102.35"/><polyline class="cls-12" points="58.21 118.42 64.78 117.09 65.04 118.78 63 119.13 63.71 122.42 59.19 123.39"/><line class="cls-12" x1="64.78" y1="117.09" x2="128.79" y2="103.95"/><polyline class="cls-12" points="132.25 110.08 127.28 111.05 68.95 123.04"/><polyline class="cls-12" points="127.28 111.05 126.3 106.17 131.19 105.11 132.25 110.08"/><polyline class="cls-12" points="63 119.13 67.97 118.16 68.95 123.04 64.07 124.11 63 119.13"/><line class="cls-12" x1="67.97" y1="118.16" x2="126.3" y2="106.17"/><line class="cls-12" x1="127.28" y1="111.05" x2="68.95" y2="123.04"/><line class="cls-12" x1="126.84" y1="108.57" x2="68.51" y2="120.64"/><line class="cls-12" x1="135.45" y1="102.53" x2="136.42" y2="107.5"/><polyline class="cls-12" points="62.38 139.02 59.19 123.39 58.21 118.42 59.19 123.39"/><line class="cls-12" x1="59.63" y1="108.75" x2="59.81" y2="109.54"/><polyline class="cls-12" points="61.49 117.8 60.6 117.98 61.49 117.8"/><polyline class="cls-12" points="60.6 117.98 58.21 118.42 60.6 117.98"/><line class="cls-12" x1="59.81" y1="109.54" x2="61.49" y2="117.8"/><polyline class="cls-12" points="253 117.8 250.95 117.36 253 117.8"/><line class="cls-12" x1="250.95" y1="117.36" x2="216.33" y2="110.25"/><line class="cls-12" x1="213.04" y1="109.54" x2="211.36" y2="117.8"/><line class="cls-12" x1="213.22" y1="108.75" x2="213.04" y2="109.54"/><line class="cls-12" x1="214.64" y1="118.42" x2="214.64" y2="118.42"/><polyline class="cls-12" points="216.33 110.25 213.93 109.72 212.24 117.98 213.93 109.72"/><line class="cls-12" x1="214.11" y1="108.92" x2="213.22" y2="108.75"/><polyline class="cls-12" points="214.64 118.42 213.66 123.39 210.47 139.02"/><line class="cls-12" x1="252.99" y1="116.91" x2="214.11" y2="108.92"/><line class="cls-12" x1="210.47" y1="139.02" x2="252.99" y2="147.72"/><polyline class="cls-12" points="136.42 88.68 214.11 104.66 213.22 108.75"/><line class="cls-12" x1="136.42" y1="123.75" x2="210.47" y2="139.02"/><line class="cls-12" x1="136.42" y1="92.94" x2="213.22" y2="108.75"/><line class="cls-12" x1="136.42" y1="123.75" x2="210.47" y2="139.02"/><polyline class="cls-12" points="136.42 107.5 140.95 108.39 141.57 105.11 143.71 105.55 143.97 103.95 137.4 102.53 136.42 102.35"/><polyline class="cls-12" points="214.64 118.42 208.07 117.09 207.72 118.78 209.85 119.13 209.14 122.42 213.66 123.39"/><line class="cls-12" x1="208.07" y1="117.09" x2="143.97" y2="103.95"/><polyline class="cls-12" points="140.6 110.08 145.57 111.05 203.9 123.04"/><polyline class="cls-12" points="145.57 111.05 146.55 106.17 141.57 105.11 140.6 110.08"/><polyline class="cls-12" points="209.85 119.13 204.88 118.16 203.9 123.04 208.78 124.11 209.85 119.13"/><line class="cls-12" x1="204.88" y1="118.16" x2="146.55" y2="106.17"/><line class="cls-12" x1="145.57" y1="111.05" x2="203.9" y2="123.04"/><line class="cls-12" x1="146.01" y1="108.57" x2="204.34" y2="120.64"/><line class="cls-12" x1="137.4" y1="102.53" x2="136.42" y2="107.5"/><polyline class="cls-12" points="210.47 139.02 213.66 123.39 214.64 118.42 213.66 123.39"/><line class="cls-12" x1="213.22" y1="108.75" x2="213.04" y2="109.54"/><polyline class="cls-12" points="211.36 117.8 212.24 117.98 211.36 117.8"/><polyline class="cls-12" points="212.24 117.98 214.64 118.42 212.24 117.98"/><line class="cls-12" x1="213.04" y1="109.54" x2="211.36" y2="117.8"/><line class="cls-12" x1="503.89" y1="719.03" x2="503.89" y2="702.25"/><line class="cls-12" x1="0.5" y1="140.26" x2="0.5" y2="646.05"/><polyline class="cls-12" points="17.28 646.05 17.28 140.26 0.5 140.26"/><polyline class="cls-12" points="312.57 702.25 312.57 712.37 312.57 719.03"/><path class="cls-12" d="M228.63,747.38" transform="translate(0.04 -28.35)"/><line class="cls-12" x1="228.67" y1="702.25" x2="228.67" y2="712.37"/><line class="cls-12" x1="487.11" y1="702.25" x2="312.57" y2="702.25"/><line class="cls-12" x1="228.67" y1="702.25" x2="161.55" y2="702.25"/><line class="cls-12" x1="144.77" y1="719.03" x2="228.67" y2="719.03"/><line class="cls-12" x1="312.57" y1="719.03" x2="503.89" y2="719.03"/><path class="cls-12" d="M309.2,663.48a77.2,77.2,0,0,0-77.2,77.2" transform="translate(0.04 -28.35)"/><polyline class="cls-12" points="228.67 719.03 232.04 719.03 232.04 712.37 228.67 712.37 228.67 719.03"/><polyline class="cls-12" points="312.57 712.37 309.19 712.37 309.19 719.03 312.57 719.03 312.57 712.37"/><line class="cls-12" x1="309.19" y1="712.37" x2="309.19" y2="635.13"/><path class="cls-12" d="M228.63,747.38" transform="translate(0.04 -28.35)"/><path class="cls-12" d="M228.63,740.72" transform="translate(0.04 -28.35)"/><path class="cls-12" d="M228.63,747.38" transform="translate(0.04 -28.35)"/><line class="cls-12" x1="228.67" y1="702.25" x2="228.67" y2="712.37"/><polyline class="cls-12" points="312.57 719.03 312.57 712.37 312.57 719.03"/><line class="cls-12" x1="312.57" y1="702.25" x2="312.57" y2="712.37"/><line class="cls-12" x1="487.11" y1="150.47" x2="487.11" y2="702.25"/><polyline class="cls-12" points="503.89 702.25 503.89 147.1 487.11 147.1"/><line class="cls-12" x1="161.55" y1="646.05" x2="17.28" y2="646.05"/><line class="cls-12" x1="0.5" y1="662.83" x2="0.5" y2="646.05"/><line class="cls-12" x1="0.5" y1="662.83" x2="144.77" y2="662.83"/><polyline class="cls-12" points="144.77 719.03 144.77 702.25 144.77 662.83"/><polyline class="cls-12" points="161.55 646.05 161.55 662.83 161.55 702.25"/><line class="cls-12" x1="480.63" y1="647.74" x2="480.63" y2="690.53"/><line class="cls-12" x1="475.93" y1="695.59" x2="372.05" y2="695.59"/><line class="cls-12" x1="475.93" y1="642.68" x2="372.05" y2="642.68"/><line class="cls-12" x1="342.75" y1="700.56" x2="485.43" y2="700.56"/><polyline class="cls-12" points="342.75 700.56 342.75 637.71 485.43 637.71 485.43 700.56"/><line class="cls-12" x1="388.74" y1="651.47" x2="469.98" y2="651.47"/><line class="cls-12" x1="472.37" y1="653.95" x2="472.37" y2="684.32"/><line class="cls-12" x1="388.74" y1="686.8" x2="469.98" y2="686.8"/><line class="cls-12" x1="455.68" y1="667.63" x2="455.68" y2="664.52"/><line class="cls-12" x1="457.1" y1="669.13" x2="460.03" y2="669.13"/><line class="cls-12" x1="455.68" y1="670.64" x2="455.68" y2="673.75"/><line class="cls-12" x1="454.26" y1="669.13" x2="451.33" y2="669.13"/><path class="cls-12" d="M372.05,671c-13.8,0-25,11.83-25,26.41s11.19,26.42,25,26.42" transform="translate(0.04 -28.35)"/><path class="cls-12" d="M475.93,723.86a4.89,4.89,0,0,0,4.75-5" transform="translate(0.04 -28.35)"/><path class="cls-12" d="M480.68,676.05a4.89,4.89,0,0,0-4.75-5" transform="translate(0.04 -28.35)"/><path class="cls-12" d="M455.68,694.82a2.63,2.63,0,1,0,2.45,2.62,2.54,2.54,0,0,0-2.45-2.62" transform="translate(0.04 -28.35)"/><path class="cls-12" d="M388.74,679.73c-9.19,0-16.64,7.93-16.64,17.71s7.45,17.71,16.64,17.71" transform="translate(0.04 -28.35)"/><path class="cls-12" d="M472.33,682.26a2.44,2.44,0,0,0-2.35-2.53" transform="translate(0.04 -28.35)"/><path class="cls-12" d="M470,715.15a2.44,2.44,0,0,0,2.35-2.53" transform="translate(0.04 -28.35)"/><path class="cls-12" d="M455.68,693.94a3.51,3.51,0,1,0,3.33,3.5,3.42,3.42,0,0,0-3.33-3.5" transform="translate(0.04 -28.35)"/><polyline class="cls-12" points="466.25 637.71 485.43 637.71 485.43 592.34 466.25 592.34"/><line class="cls-12" x1="485.43" y1="607.88" x2="485.43" y2="622.17"/><line class="cls-12" x1="469.98" y1="611.25" x2="469.98" y2="613.65"/><line class="cls-12" x1="473.79" y1="615.07" x2="471.4" y2="615.07"/><line class="cls-12" x1="469.98" y1="616.4" x2="469.98" y2="618.88"/><line class="cls-12" x1="468.65" y1="615.07" x2="466.16" y2="615.07"/><path class="cls-12" d="M465.06,663.23a20.21,20.21,0,0,0,9.55-7.84" transform="translate(0.04 -28.35)"/><path class="cls-12" d="M474.59,655.39a20.33,20.33,0,0,0,2.83-12" transform="translate(0.04 -28.35)"/><path class="cls-12" d="M474.61,631.27a20.21,20.21,0,0,0-9.55-7.84" transform="translate(0.04 -28.35)"/><path class="cls-12" d="M477.42,643.31a20.33,20.33,0,0,0-2.83-12" transform="translate(0.04 -28.35)"/><path class="cls-12" d="M451,645a37.25,37.25,0,0,0,3.74,13.75" transform="translate(0.04 -28.35)"/><path class="cls-12" d="M466.21,620.7a11.52,11.52,0,0,0-9.46,4.29" transform="translate(0.04 -28.35)"/><path class="cls-12" d="M451,641.79a24,24,0,0,0,0,3.17" transform="translate(0.04 -28.35)"/><path class="cls-12" d="M473.84,656.05a82.81,82.81,0,0,0,0-25.34" transform="translate(0.04 -28.35)"/><path class="cls-12" d="M481.77,628.36a28.41,28.41,0,0,0-18.49-6.42" transform="translate(0.04 -28.35)"/><path class="cls-12" d="M484.49,643.36a55.94,55.94,0,0,0-1.4-13" transform="translate(0.04 -28.35)"/><path class="cls-12" d="M483.07,630.38a3.8,3.8,0,0,0-1.29-2.09" transform="translate(0.04 -28.35)"/><path class="cls-12" d="M482.72,643.36a97.7,97.7,0,0,0-.92-12.78" transform="translate(0.04 -28.35)"/><path class="cls-12" d="M480.52,628.24a25.56,25.56,0,0,0-17.27-6.39" transform="translate(0.04 -28.35)"/><path class="cls-12" d="M481.8,630.6a3.82,3.82,0,0,0-1.25-2.31" transform="translate(0.04 -28.35)"/><path class="cls-12" d="M463.28,664.81a25.57,25.57,0,0,0,17.27-6.42" transform="translate(0.04 -28.35)"/><path class="cls-12" d="M463.31,664.81a28.43,28.43,0,0,0,18.49-6.44" transform="translate(0.04 -28.35)"/><path class="cls-12" d="M481.82,656.12a97.41,97.41,0,0,0,.9-12.77" transform="translate(0.04 -28.35)"/><path class="cls-12" d="M483.11,656.28a56.62,56.62,0,0,0,1.38-13" transform="translate(0.04 -28.35)"/><path class="cls-12" d="M480.56,658.37a3.85,3.85,0,0,0,1.24-2.32" transform="translate(0.04 -28.35)"/><path class="cls-12" d="M481.78,658.37a3.78,3.78,0,0,0,1.29-2.09" transform="translate(0.04 -28.35)"/><path class="cls-12" d="M456.75,661.67a11.5,11.5,0,0,0,9.46,4.29" transform="translate(0.04 -28.35)"/><path class="cls-12" d="M454.77,658.73a18.1,18.1,0,0,0,2,3" transform="translate(0.04 -28.35)"/><path class="cls-12" d="M456.72,625a18.1,18.1,0,0,0-2,3" transform="translate(0.04 -28.35)"/><path class="cls-12" d="M454.78,628.05A37.25,37.25,0,0,0,451,641.8" transform="translate(0.04 -28.35)"/><path class="cls-12" d="M454.25,637.14a26.55,26.55,0,0,0,0,12.47" transform="translate(0.04 -28.35)"/><path class="cls-12" d="M459.42,660.86A6.79,6.79,0,0,0,465,663.2" transform="translate(0.04 -28.35)"/><path class="cls-12" d="M454.33,649.59a24.55,24.55,0,0,0,5.17,11.28" transform="translate(0.04 -28.35)"/><path class="cls-12" d="M465,623.46a6.79,6.79,0,0,0-5.61,2.34" transform="translate(0.04 -28.35)"/><path class="cls-12" d="M459.5,625.79a24.55,24.55,0,0,0-5.17,11.28" transform="translate(0.04 -28.35)"/><path class="cls-12" d="M473,643.38a3,3,0,1,0-3,3,3,3,0,0,0,3-3" transform="translate(0.04 -28.35)"/><path class="cls-12" d="M472.07,643.38a2.09,2.09,0,1,0-2.09,2.08,2.09,2.09,0,0,0,2.09-2.08" transform="translate(0.04 -28.35)"/><line class="cls-12" x1="472.46" y1="549.19" x2="442.9" y2="549.19"/><polyline class="cls-12" points="474.24 547.95 485.43 547.95 485.43 579.82"/><line class="cls-12" x1="467.31" y1="563.84" x2="467.31" y2="575.65"/><polyline class="cls-12" points="442.9 549.19 467.31 552.03 467.31 563.84"/><line class="cls-12" x1="442.9" y1="578.58" x2="467.31" y2="575.65"/><line class="cls-12" x1="442.9" y1="549.9" x2="467.31" y2="552.83"/><line class="cls-12" x1="442.9" y1="577.78" x2="467.31" y2="574.94"/><line class="cls-12" x1="472.55" y1="578.58" x2="442.9" y2="578.58"/><line class="cls-12" x1="485.43" y1="579.82" x2="474.24" y2="579.82"/><polyline class="cls-12" points="442.9 549.19 439.61 549.63 436.51 550.88 433.84 552.83 431.62 555.49 430.11 558.6 429.31 562.06 429.31 565.62 430.11 569.08 431.62 572.18 433.84 574.85 436.51 576.89 439.61 578.13 442.9 578.58"/><polyline class="cls-12" points="442.9 549.9 439.79 550.35 436.86 551.5 434.29 553.45 432.25 555.94 430.82 558.96 430.02 562.15 430.02 565.53 430.82 568.81 432.25 571.74 434.29 574.32 436.86 576.18 439.79 577.42 442.9 577.78"/><path class="cls-12" d="M472.47,577.85a135.17,135.17,0,0,0,0,28.58" transform="translate(0.04 -28.35)"/><path class="cls-12" d="M474.24,576.3a1.89,1.89,0,0,0-1.9,1.62" transform="translate(0.04 -28.35)"/><path class="cls-12" d="M472.34,606.45a1.87,1.87,0,0,0,1.9,1.63" transform="translate(0.04 -28.35)"/><path class="cls-12" d="M480,592.15a1.56,1.56,0,1,0-3.11,0,1.56,1.56,0,0,0,3.11,0" transform="translate(0.04 -28.35)"/><polyline class="cls-12" points="482.85 424.63 436.77 424.63 436.77 470.71 482.85 470.71 482.85 424.63"/><polyline class="cls-12" points="478.68 428.8 440.94 428.8 440.94 462.36 478.68 462.36 478.68 428.8"/><polyline class="cls-12" points="448.94 107.15 458.26 61.87 458.61 61.96 449.38 107.15 448.94 107.15"/><polyline class="cls-12" points="457.28 60.45 381.64 44.91 381.73 44.47 457.37 60 457.28 60.45"/><polyline class="cls-12" points="380.13 45.89 370.9 91.08 370.45 90.99 379.77 45.8 380.13 45.89"/><polyline class="cls-12" points="447.25 108.92 447.69 106.88 449.74 107.24 449.29 109.37 447.25 108.92"/><polyline class="cls-12" points="457.01 61.69 457.46 59.56 459.5 60 459.06 62.05 457.01 61.69"/><polyline class="cls-12" points="381.37 46.06 379.33 45.71 379.77 43.67 381.82 44.02 381.37 46.06"/><polyline class="cls-12" points="372.14 91.25 371.7 93.39 369.65 92.94 370.01 90.9 372.14 91.25"/><line class="cls-12" x1="447.52" y1="107.86" x2="457.02" y2="61.69"/><line class="cls-12" x1="459.5" y1="60" x2="449.56" y2="108.3"/><line class="cls-12" x1="457.02" y1="61.69" x2="381.37" y2="46.07"/><line class="cls-12" x1="379.77" y1="43.67" x2="459.5" y2="60"/><line class="cls-12" x1="381.37" y1="46.07" x2="371.87" y2="92.32"/><line class="cls-12" x1="369.83" y1="91.88" x2="379.77" y2="43.67"/><polyline class="cls-12" points="449.56 108.3 449.29 109.37 447.25 108.92 447.51 107.86"/><polyline class="cls-12" points="371.87 92.32 371.7 93.39 369.65 92.94 369.83 91.88"/><polyline class="cls-12" points="379.77 43.67 459.5 60 449.56 108.3 447.51 107.86 457.01 61.69 381.37 46.06 371.87 92.32 369.83 91.88 379.77 43.67"/><polyline class="cls-12" points="380.84 59.29 452.31 73.94 446.89 100.22 375.43 85.57 380.84 59.29"/><polyline class="cls-12" points="380.31 61.87 451.78 76.61 446.89 100.22 375.43 85.57 380.31 61.87"/><polyline class="cls-12" points="260.54 131.83 243.76 131.83 243.76 215.73 260.54 215.73 260.54 131.83"/><polyline class="cls-12" points="17.28 131.83 0.5 131.83 0.5 215.73 17.28 215.73 17.28 131.83"/><polyline class="cls-12" points="17.28 408.65 0.5 408.65 0.5 492.55 17.28 492.55 17.28 408.65"/><polyline class="cls-12" points="373.83 702.25 373.83 719.03 457.73 719.03 457.73 702.25 373.83 702.25"/><polyline class="cls-12" points="260.54 408.65 243.76 408.65 243.76 492.55 260.54 492.55 260.54 408.65"/><polyline class="cls-12" points="228.67 719.03 228.67 702.25 144.77 702.25 144.77 719.03 228.67 719.03"/><polyline class="cls-12" points="503.89 408.65 487.11 408.65 487.11 492.55 503.89 492.55 503.89 408.65"/><polyline class="cls-12" points="503.89 131.83 487.11 131.83 487.11 215.73 503.89 215.73 503.89 131.83"/><line class="cls-5" x1="487.64" y1="374.29" x2="486.14" y2="374.29"/><line class="cls-13" x1="483.18" y1="374.29" x2="336.5" y2="374.29"/><polyline class="cls-5" points="335.02 374.29 333.52 374.29 333.52 375.79"/><line class="cls-14" x1="333.52" y1="378.85" x2="333.52" y2="475.22"/><line class="cls-5" x1="333.52" y1="476.75" x2="333.52" y2="478.25"/></svg>