<svg id="_299" data-name="299" xmlns="http://www.w3.org/2000/svg" viewBox="0 0 294.07 712.92"><defs><style>.cls-1{isolation:isolate;font-size:12px;fill:#969696;}.cls-1,.cls-4,.cls-6{font-family:PTSans-Regular, PT Sans;}.cls-2{letter-spacing:-0.01em;}.cls-3,.cls-5,.cls-7,.cls-8,.cls-9{fill:none;stroke-linecap:round;stroke-linejoin:round;}.cls-3{stroke:#969696;stroke-width:0.75px;}.cls-4{font-size:28px;}.cls-5,.cls-8{stroke:#000;}.cls-5{stroke-width:0.5px;}.cls-6{font-size:24px;}.cls-7{stroke:#7d7d7d;stroke-dasharray:4 4;}.cls-9{stroke:#356e5f;}</style></defs><title>2floor_299flat</title><text class="cls-1" transform="translate(138.9 10.2)"><tspan class="cls-2">у</tspan><tspan x="5.42" y="0">лица</tspan></text><line class="cls-3" x1="128.14" y1="1.4" x2="128.14" y2="10.2"/><polyline class="cls-3" points="131.64 4.9 128.14 1.4 124.64 4.9"/><text class="cls-4" transform="translate(127.69 278.79)">CT</text><text class="cls-4" transform="translate(109.93 315.77)">19.49</text><text class="cls-4" transform="translate(106.24 242.38)">№299</text><polyline class="cls-5" points="98.1 325.12 98.1 216.35 188.81 216.35 188.81 325.12"/><line class="cls-5" x1="98.1" y1="252.68" x2="188.81" y2="252.68"/><line class="cls-5" x1="98.1" y1="325.12" x2="188.81" y2="325.12"/><line class="cls-5" x1="98.1" y1="289" x2="188.81" y2="289"/><text class="cls-6" transform="translate(192.68 586.09)">3.12</text><text class="cls-6" transform="translate(76.05 586.09)">3.74</text><text class="cls-6" transform="translate(85.2 397.4)">1.90</text><text class="cls-6" transform="translate(114.72 167.93)">10.73</text><polyline class="cls-7" points="17.99 354.88 17.99 457.97 153.77 457.97 153.77 354.88 17.99 354.88"/><line class="cls-8" x1="2.29" y1="102.92" x2="5.2" y2="97.84"/><line class="cls-8" x1="5.2" y1="106.49" x2="10.2" y2="97.84"/><line class="cls-8" x1="10.2" y1="106.49" x2="15.15" y2="97.84"/><line class="cls-8" x1="15.15" y1="106.49" x2="20.09" y2="97.9"/><line class="cls-8" x1="20.09" y1="106.49" x2="20.83" y2="105.2"/><line class="cls-8" x1="8.35" y1="106.49" x2="3.4" y2="97.84"/><line class="cls-8" x1="13.29" y1="106.49" x2="8.35" y2="97.84"/><line class="cls-8" x1="18.3" y1="106.49" x2="13.29" y2="97.84"/><line class="cls-8" x1="20.52" y1="101.73" x2="18.3" y2="97.84"/><line class="cls-8" x1="21.02" y1="125.41" x2="22.75" y2="123.68"/><line class="cls-8" x1="21.02" y1="113.29" x2="21.64" y2="112.67"/><line class="cls-8" x1="20.09" y1="97.84" x2="0.81" y2="97.84"/><line class="cls-8" x1="20.96" y1="106.49" x2="17.99" y2="106.49"/><line class="cls-8" x1="17.99" y1="127.94" x2="23.18" y2="127.94"/><line class="cls-8" x1="20.03" y1="97.04" x2="0.81" y2="97.04"/><line class="cls-9" x1="66.14" y1="88.32" x2="66.14" y2="88.32"/><line class="cls-9" x1="22.44" y1="96.67" x2="22.44" y2="96.67"/><line class="cls-8" x1="20.09" y1="97.84" x2="20.09" y2="97.84"/><line class="cls-8" x1="25.1" y1="97.84" x2="25.72" y2="96.73"/><line class="cls-8" x1="30.04" y1="97.84" x2="31.34" y2="95.55"/><line class="cls-8" x1="34.99" y1="97.84" x2="37.03" y2="94.38"/><line class="cls-8" x1="39.93" y1="97.84" x2="42.65" y2="93.21"/><line class="cls-8" x1="44.94" y1="97.84" x2="48.27" y2="92.09"/><line class="cls-8" x1="49.88" y1="97.84" x2="53.9" y2="90.92"/><line class="cls-8" x1="54.83" y1="97.84" x2="59.52" y2="89.74"/><line class="cls-8" x1="59.83" y1="97.84" x2="63.11" y2="92.16"/><line class="cls-8" x1="23.24" y1="97.84" x2="22.87" y2="97.28"/><line class="cls-8" x1="28.19" y1="97.84" x2="27.32" y2="96.36"/><line class="cls-8" x1="33.13" y1="97.84" x2="31.77" y2="95.49"/><line class="cls-8" x1="38.14" y1="97.84" x2="36.22" y2="94.57"/><line class="cls-8" x1="43.08" y1="97.84" x2="40.61" y2="93.64"/><line class="cls-8" x1="48.03" y1="97.84" x2="45.06" y2="92.71"/><line class="cls-8" x1="53.03" y1="97.84" x2="49.51" y2="91.85"/><line class="cls-8" x1="57.98" y1="97.84" x2="53.96" y2="90.92"/><line class="cls-8" x1="62.92" y1="97.84" x2="58.41" y2="89.99"/><line class="cls-8" x1="20.09" y1="97.9" x2="20.09" y2="97.84"/><line class="cls-8" x1="20.83" y1="105.2" x2="25.1" y2="97.84"/><line class="cls-8" x1="25.59" y1="105.5" x2="30.04" y2="97.84"/><line class="cls-8" x1="31.28" y1="104.33" x2="34.99" y2="97.84"/><line class="cls-8" x1="36.9" y1="103.22" x2="39.93" y2="97.84"/><line class="cls-8" x1="42.53" y1="102.04" x2="44.94" y2="97.84"/><line class="cls-8" x1="48.15" y1="100.87" x2="49.88" y2="97.84"/><line class="cls-8" x1="53.78" y1="99.7" x2="54.83" y2="97.84"/><line class="cls-8" x1="59.4" y1="98.58" x2="59.83" y2="97.84"/><line class="cls-8" x1="23" y1="106.06" x2="20.52" y2="101.73"/><line class="cls-8" x1="27.45" y1="105.13" x2="23.24" y2="97.84"/><line class="cls-8" x1="31.83" y1="104.21" x2="28.19" y2="97.84"/><line class="cls-8" x1="36.28" y1="103.34" x2="33.13" y2="97.84"/><line class="cls-8" x1="40.73" y1="102.41" x2="38.14" y2="97.84"/><line class="cls-8" x1="45.18" y1="101.49" x2="43.08" y2="97.84"/><line class="cls-8" x1="49.63" y1="100.56" x2="48.03" y2="97.84"/><line class="cls-8" x1="54.02" y1="99.63" x2="53.03" y2="97.84"/><line class="cls-8" x1="58.47" y1="98.77" x2="57.98" y2="97.84"/><line class="cls-8" x1="39.93" y1="106.49" x2="42.28" y2="104.15"/><line class="cls-8" x1="64.28" y1="106.49" x2="66.57" y2="104.15"/><line class="cls-8" x1="69.6" y1="101.12" x2="70.83" y2="99.88"/><line class="cls-8" x1="27.82" y1="106.49" x2="29.55" y2="104.7"/><line class="cls-8" x1="52.11" y1="106.49" x2="54.39" y2="104.15"/><line class="cls-8" x1="57.48" y1="101.12" x2="60.14" y2="98.4"/><line class="cls-8" x1="22.75" y1="123.68" x2="30.1" y2="116.32"/><line class="cls-8" x1="33.13" y1="113.29" x2="39.93" y2="106.49"/><line class="cls-8" x1="47.84" y1="122.87" x2="54.39" y2="116.32"/><line class="cls-8" x1="57.48" y1="113.29" x2="64.28" y2="106.49"/><line class="cls-8" x1="21.64" y1="112.67" x2="27.82" y2="106.49"/><line class="cls-8" x1="33.13" y1="125.41" x2="42.28" y2="116.32"/><line class="cls-8" x1="45.31" y1="113.29" x2="52.11" y2="106.49"/><line class="cls-8" x1="63.17" y1="119.72" x2="66.57" y2="116.32"/><line class="cls-8" x1="69.6" y1="113.29" x2="72.93" y2="109.95"/><line class="cls-8" x1="63.11" y1="92.16" x2="65.15" y2="88.57"/><line class="cls-8" x1="65.02" y1="97.41" x2="70.77" y2="87.46"/><line class="cls-8" x1="70.65" y1="96.23" x2="72.19" y2="93.64"/><line class="cls-8" x1="67.37" y1="96.91" x2="62.8" y2="89.06"/><line class="cls-8" x1="71.76" y1="95.99" x2="67.25" y2="88.2"/><line class="cls-8" x1="62.49" y1="89.13" x2="20.09" y2="97.84"/><line class="cls-8" x1="64.22" y1="97.59" x2="20.96" y2="106.49"/><line class="cls-8" x1="71.76" y1="87.27" x2="73.49" y2="95.68"/><line class="cls-8" x1="70.09" y1="96.36" x2="72.63" y2="95.86"/><line class="cls-8" x1="72.63" y1="95.86" x2="73.49" y2="95.68"/><line class="cls-8" x1="71.57" y1="86.41" x2="71.76" y2="87.27"/><line class="cls-8" x1="70.09" y1="96.36" x2="70.09" y2="96.36"/><line class="cls-8" x1="64.22" y1="97.59" x2="70.09" y2="96.36"/><line class="cls-8" x1="64.22" y1="97.59" x2="64.22" y2="97.59"/><polyline class="cls-8" points="62.49 89.13 70.89 87.4 72.63 95.86 70.89 87.4"/><line class="cls-8" x1="70.71" y1="86.59" x2="71.57" y2="86.41"/><polyline class="cls-8" points="70.09 96.36 71.14 101.43 74.42 117.37 23.18 127.94"/><line class="cls-8" x1="70.71" y1="86.59" x2="20.03" y2="97.04"/><line class="cls-8" x1="146.91" y1="70.89" x2="71.57" y2="86.41"/><line class="cls-8" x1="146.91" y1="102.48" x2="74.42" y2="117.37"/><polyline class="cls-8" points="146.91 85.79 142.28 86.78 141.6 83.38 139.5 83.81 139.13 82.14 145.86 80.78 146.91 80.54"/><polyline class="cls-8" points="70.09 96.36 76.83 95 77.2 96.67 75.1 97.1 75.78 100.44 71.14 101.43"/><line class="cls-8" x1="76.83" y1="95" x2="139.13" y2="82.14"/><polyline class="cls-8" points="142.65 88.45 137.58 89.5 81.15 101.12"/><polyline class="cls-8" points="137.58 89.5 136.53 84.43 141.6 83.38 142.65 88.45"/><polyline class="cls-8" points="75.1 97.1 80.17 96.05 81.15 101.12 76.15 102.17 75.1 97.1"/><line class="cls-8" x1="80.17" y1="96.05" x2="136.53" y2="84.43"/><line class="cls-8" x1="137.58" y1="89.5" x2="81.15" y2="101.12"/><line class="cls-8" x1="137.09" y1="86.96" x2="80.66" y2="98.58"/><line class="cls-8" x1="145.86" y1="80.78" x2="146.91" y2="85.79"/><polyline class="cls-8" points="74.42 117.37 71.14 101.43 70.09 96.36 71.14 101.43"/><line class="cls-8" x1="71.57" y1="86.41" x2="71.76" y2="87.27"/><polyline class="cls-8" points="73.49 95.68 72.63 95.86 73.49 95.68"/><polyline class="cls-8" points="72.63 95.86 70.09 96.36 72.63 95.86"/><line class="cls-8" x1="71.76" y1="87.27" x2="73.49" y2="95.68"/><line class="cls-9" x1="276.7" y1="97.9" x2="276.7" y2="97.9"/><line class="cls-9" x1="274.79" y1="97.35" x2="274.79" y2="97.35"/><line class="cls-8" x1="273.18" y1="106.49" x2="275.84" y2="101.86"/><line class="cls-8" x1="278.12" y1="106.49" x2="281.46" y2="100.68"/><line class="cls-8" x1="283.13" y1="106.49" x2="284.43" y2="104.15"/><line class="cls-8" x1="271.14" y1="106.12" x2="270.95" y2="105.75"/><line class="cls-8" x1="276.33" y1="106.49" x2="273.86" y2="102.23"/><line class="cls-8" x1="281.28" y1="106.49" x2="278.31" y2="101.36"/><line class="cls-8" x1="284.43" y1="103.34" x2="282.76" y2="100.44"/><line class="cls-8" x1="272.19" y1="99.57" x2="273.24" y2="97.78"/><line class="cls-8" x1="275.84" y1="101.86" x2="277.69" y2="98.71"/><line class="cls-8" x1="281.46" y1="100.68" x2="282.14" y2="99.57"/><line class="cls-8" x1="273.86" y1="102.23" x2="272.25" y2="99.39"/><line class="cls-8" x1="278.31" y1="101.36" x2="276.64" y2="98.46"/><line class="cls-8" x1="282.76" y1="100.44" x2="282.26" y2="99.63"/><line class="cls-8" x1="264.09" y1="125.41" x2="273.24" y2="116.32"/><line class="cls-8" x1="264.09" y1="113.29" x2="264.4" y2="112.98"/><line class="cls-8" x1="273.18" y1="128.5" x2="273.24" y2="128.43"/><line class="cls-8" x1="264.4" y1="112.98" x2="271.26" y2="106.12"/><line class="cls-9" x1="262.05" y1="101.98" x2="262.05" y2="101.98"/><line class="cls-8" x1="264.09" y1="96.48" x2="264.4" y2="95.93"/><line class="cls-8" x1="264.28" y1="104.7" x2="268.79" y2="96.85"/><line class="cls-8" x1="268.73" y1="105.63" x2="272.19" y2="99.57"/><line class="cls-8" x1="265.52" y1="104.95" x2="263.17" y2="100.87"/><line class="cls-8" x1="270.95" y1="105.75" x2="265.39" y2="96.17"/><line class="cls-8" x1="272.25" y1="99.39" x2="271.02" y2="97.28"/><line class="cls-8" x1="284.43" y1="100.07" x2="272.62" y2="97.66"/><line class="cls-8" x1="275.84" y1="107.05" x2="270.89" y2="106.06"/><line class="cls-8" x1="263.35" y1="95.74" x2="261.62" y2="104.15"/><line class="cls-8" x1="264.96" y1="104.82" x2="262.42" y2="104.33"/><line class="cls-8" x1="262.42" y1="104.33" x2="261.62" y2="104.15"/><line class="cls-8" x1="263.54" y1="94.87" x2="263.35" y2="95.74"/><line class="cls-8" x1="264.96" y1="104.82" x2="264.96" y2="104.82"/><line class="cls-8" x1="270.89" y1="106.06" x2="264.96" y2="104.82"/><line class="cls-8" x1="270.89" y1="106.06" x2="270.89" y2="106.06"/><polyline class="cls-8" points="272.62 97.66 264.15 95.92 262.43 104.33 264.15 95.92"/><line class="cls-8" x1="264.34" y1="95.06" x2="263.54" y2="94.87"/><polyline class="cls-8" points="264.96 104.83 263.97 109.89 260.63 125.9 275.84 128.99"/><line class="cls-8" x1="284.43" y1="99.2" x2="264.34" y2="95.06"/><line class="cls-8" x1="146.91" y1="70.89" x2="263.54" y2="94.87"/><line class="cls-8" x1="146.91" y1="102.48" x2="260.63" y2="125.9"/><polyline class="cls-8" points="146.91 85.79 151.55 86.78 152.23 83.38 154.33 83.81 154.7 82.14 147.96 80.78 146.91 80.54"/><polyline class="cls-8" points="219.53 95.49 216.13 94.81 215.82 96.48 217.93 96.91 217.25 100.25 218.48 100.56"/><line class="cls-8" x1="216.13" y1="94.81" x2="154.7" y2="82.14"/><polyline class="cls-8" points="151.18 88.45 156.25 89.5 211.81 100.93"/><polyline class="cls-8" points="156.25 89.5 157.3 84.43 152.23 83.38 151.18 88.45"/><polyline class="cls-8" points="217.93 96.91 212.86 95.86 211.81 100.93 216.88 101.98 217.93 96.91"/><line class="cls-8" x1="212.86" y1="95.86" x2="157.3" y2="84.43"/><line class="cls-8" x1="156.25" y1="89.5" x2="211.81" y2="100.93"/><line class="cls-8" x1="156.8" y1="86.96" x2="212.36" y2="98.4"/><line class="cls-8" x1="147.96" y1="80.78" x2="146.91" y2="85.79"/><polyline class="cls-8" points="218.48 100.56 219.72 100.81 220.46 97.41 222.56 97.84 222.87 96.17 219.53 95.49"/><polyline class="cls-8" points="264.96 104.83 258.22 103.47 257.91 105.13 260.01 105.57 259.33 108.97 263.97 109.89"/><line class="cls-8" x1="258.22" y1="103.47" x2="222.87" y2="96.17"/><polyline class="cls-8" points="219.41 102.48 224.48 103.53 253.9 109.58"/><polyline class="cls-8" points="224.48 103.53 225.47 98.46 220.46 97.41 219.41 102.48"/><polyline class="cls-8" points="260.01 105.57 254.95 104.52 253.9 109.58 258.96 110.64 260.01 105.57"/><line class="cls-8" x1="254.95" y1="104.52" x2="225.47" y2="98.46"/><line class="cls-8" x1="224.48" y1="103.53" x2="253.9" y2="109.58"/><line class="cls-8" x1="224.97" y1="100.99" x2="254.45" y2="107.05"/><polyline class="cls-8" points="260.63 125.9 263.97 109.89 264.96 104.83 263.97 109.89"/><line class="cls-8" x1="263.54" y1="94.87" x2="263.35" y2="95.74"/><polyline class="cls-8" points="261.62 104.14 262.43 104.33 261.62 104.14"/><polyline class="cls-8" points="262.43 104.33 264.96 104.83 262.43 104.33"/><line class="cls-8" x1="263.35" y1="95.74" x2="261.62" y2="104.15"/><line class="cls-9" x1="284.67" y1="99.51" x2="284.67" y2="99.51"/><line class="cls-8" x1="284.43" y1="104.15" x2="286.53" y2="100.5"/><line class="cls-8" x1="288.07" y1="106.49" x2="290.98" y2="101.43"/><line class="cls-8" x1="286.22" y1="106.49" x2="284.43" y2="103.34"/><line class="cls-8" x1="291.23" y1="106.49" x2="287.95" y2="100.81"/><line class="cls-8" x1="284.43" y1="100.07" x2="286.59" y2="99.63"/><line class="cls-8" x1="286.53" y1="100.5" x2="287.15" y2="99.51"/><line class="cls-8" x1="290.98" y1="101.43" x2="292.77" y2="98.34"/><line class="cls-8" x1="287.95" y1="100.81" x2="287.21" y2="99.51"/><line class="cls-8" x1="293.57" y1="101.92" x2="291.6" y2="98.58"/><polyline class="cls-8" points="284.43 100.07 286.59 99.63 293.12 98.05"/><line class="cls-8" x1="292.92" y1="97.26" x2="284.43" y2="99.2"/><polyline class="cls-8" points="0.81 645.36 0.81 648.82 0.81 652.22"/><polyline class="cls-8" points="0.81 652.22 0.81 648.82 0.81 645.36 0.81 648.82"/><line class="cls-8" x1="7.36" y1="695.24" x2="1.98" y2="689.86"/><line class="cls-8" x1="17.99" y1="681.58" x2="14.16" y2="677.75"/><line class="cls-8" x1="11.87" y1="675.46" x2="5.07" y2="668.6"/><line class="cls-8" x1="2.79" y1="666.31" x2="0.81" y2="664.4"/><line class="cls-8" x1="17.99" y1="657.23" x2="17.19" y2="656.42"/><line class="cls-8" x1="14.9" y1="654.2" x2="8.1" y2="647.34"/><line class="cls-8" x1="5.82" y1="645.05" x2="0.81" y2="640.05"/><line class="cls-8" x1="17.93" y1="632.88" x2="11.13" y2="626.08"/><line class="cls-8" x1="8.84" y1="623.79" x2="1.98" y2="616.93"/><line class="cls-8" x1="17.99" y1="608.65" x2="14.16" y2="604.82"/><line class="cls-8" x1="11.87" y1="602.53" x2="5.07" y2="595.67"/><line class="cls-8" x1="2.79" y1="593.38" x2="0.81" y2="591.47"/><line class="cls-8" x1="17.99" y1="584.3" x2="17.19" y2="583.5"/><line class="cls-8" x1="14.9" y1="581.21" x2="8.1" y2="574.41"/><line class="cls-8" x1="5.82" y1="572.12" x2="0.81" y2="567.12"/><line class="cls-8" x1="17.93" y1="559.95" x2="11.13" y2="553.15"/><line class="cls-8" x1="8.84" y1="550.86" x2="1.98" y2="544"/><line class="cls-8" x1="17.99" y1="535.72" x2="14.16" y2="531.83"/><line class="cls-8" x1="11.87" y1="529.6" x2="5.07" y2="522.74"/><line class="cls-8" x1="2.79" y1="520.46" x2="0.81" y2="518.48"/><line class="cls-8" x1="17.99" y1="511.37" x2="17.19" y2="510.57"/><line class="cls-8" x1="14.9" y1="508.28" x2="8.1" y2="501.48"/><line class="cls-8" x1="5.82" y1="499.2" x2="0.81" y2="494.19"/><line class="cls-8" x1="17.93" y1="487.02" x2="11.25" y2="480.35"/><line class="cls-8" x1="17.99" y1="693.69" x2="12.61" y2="688.38"/><line class="cls-8" x1="10.39" y1="686.09" x2="3.53" y2="679.23"/><line class="cls-8" x1="1.24" y1="676.94" x2="0.81" y2="676.51"/><line class="cls-8" x1="17.99" y1="669.4" x2="15.7" y2="667.05"/><line class="cls-8" x1="13.42" y1="664.83" x2="6.56" y2="657.97"/><line class="cls-8" x1="4.27" y1="655.68" x2="0.81" y2="652.22"/><line class="cls-8" x1="16.45" y1="643.51" x2="9.59" y2="636.71"/><line class="cls-8" x1="7.3" y1="634.42" x2="0.81" y2="627.93"/><line class="cls-8" x1="17.99" y1="620.76" x2="12.61" y2="615.45"/><line class="cls-8" x1="10.39" y1="613.16" x2="3.53" y2="606.3"/><line class="cls-8" x1="1.24" y1="604.01" x2="0.81" y2="603.58"/><line class="cls-8" x1="17.99" y1="596.47" x2="15.7" y2="594.13"/><line class="cls-8" x1="13.42" y1="591.9" x2="6.56" y2="585.04"/><line class="cls-8" x1="4.27" y1="582.75" x2="0.81" y2="579.29"/><line class="cls-8" x1="16.45" y1="570.58" x2="9.59" y2="563.78"/><line class="cls-8" x1="7.3" y1="561.49" x2="0.81" y2="555"/><line class="cls-8" x1="17.99" y1="547.84" x2="12.61" y2="542.52"/><line class="cls-8" x1="10.39" y1="540.23" x2="3.53" y2="533.37"/><line class="cls-8" x1="1.24" y1="531.09" x2="0.81" y2="530.65"/><line class="cls-8" x1="17.99" y1="523.55" x2="15.7" y2="521.2"/><line class="cls-8" x1="13.42" y1="518.97" x2="6.56" y2="512.11"/><line class="cls-8" x1="4.27" y1="509.83" x2="0.81" y2="506.36"/><line class="cls-8" x1="16.45" y1="497.65" x2="9.59" y2="490.85"/><line class="cls-8" x1="7.3" y1="488.57" x2="0.81" y2="482.01"/><line class="cls-8" x1="17.99" y1="389.86" x2="14.16" y2="385.97"/><line class="cls-8" x1="11.87" y1="383.75" x2="5.07" y2="376.89"/><line class="cls-8" x1="2.79" y1="374.6" x2="0.81" y2="372.62"/><line class="cls-8" x1="17.99" y1="365.51" x2="17.19" y2="364.71"/><line class="cls-8" x1="14.9" y1="362.42" x2="8.1" y2="355.63"/><line class="cls-8" x1="5.82" y1="353.34" x2="0.81" y2="348.33"/><line class="cls-8" x1="17.93" y1="341.16" x2="11.13" y2="334.36"/><line class="cls-8" x1="8.84" y1="332.08" x2="1.98" y2="325.22"/><line class="cls-8" x1="17.99" y1="316.87" x2="14.16" y2="313.04"/><line class="cls-8" x1="11.87" y1="310.76" x2="5.07" y2="303.96"/><line class="cls-8" x1="2.79" y1="301.67" x2="0.81" y2="299.69"/><line class="cls-8" x1="17.99" y1="292.59" x2="17.19" y2="291.78"/><line class="cls-8" x1="14.9" y1="289.5" x2="8.1" y2="282.7"/><line class="cls-8" x1="5.82" y1="280.41" x2="0.81" y2="275.4"/><line class="cls-8" x1="17.93" y1="268.23" x2="11.13" y2="261.37"/><line class="cls-8" x1="8.84" y1="259.15" x2="1.98" y2="252.29"/><line class="cls-8" x1="17.99" y1="243.95" x2="14.16" y2="240.11"/><line class="cls-8" x1="11.87" y1="237.83" x2="5.07" y2="231.03"/><line class="cls-8" x1="2.79" y1="228.74" x2="0.81" y2="226.76"/><line class="cls-8" x1="17.99" y1="219.66" x2="17.19" y2="218.85"/><line class="cls-8" x1="14.9" y1="216.57" x2="8.1" y2="209.77"/><line class="cls-8" x1="5.82" y1="207.48" x2="0.81" y2="202.48"/><line class="cls-8" x1="10.39" y1="394.38" x2="3.53" y2="387.52"/><line class="cls-8" x1="1.24" y1="385.23" x2="0.81" y2="384.8"/><line class="cls-8" x1="17.99" y1="377.69" x2="15.7" y2="375.34"/><line class="cls-8" x1="13.42" y1="373.05" x2="6.56" y2="366.26"/><line class="cls-8" x1="4.27" y1="363.97" x2="0.81" y2="360.51"/><line class="cls-8" x1="16.45" y1="351.79" x2="9.59" y2="344.99"/><line class="cls-8" x1="7.3" y1="342.71" x2="0.81" y2="336.16"/><line class="cls-8" x1="17.99" y1="329.05" x2="12.61" y2="323.67"/><line class="cls-8" x1="10.39" y1="321.45" x2="3.53" y2="314.59"/><line class="cls-8" x1="1.24" y1="312.3" x2="0.81" y2="311.87"/><line class="cls-8" x1="17.99" y1="304.76" x2="15.7" y2="302.41"/><line class="cls-8" x1="13.42" y1="300.13" x2="6.56" y2="293.33"/><line class="cls-8" x1="4.27" y1="291.04" x2="0.81" y2="287.58"/><line class="cls-8" x1="16.45" y1="278.86" x2="9.59" y2="272.07"/><line class="cls-8" x1="7.3" y1="269.78" x2="0.81" y2="263.23"/><line class="cls-8" x1="17.99" y1="256.12" x2="12.61" y2="250.74"/><line class="cls-8" x1="10.39" y1="248.52" x2="3.53" y2="241.66"/><line class="cls-8" x1="1.24" y1="239.37" x2="0.81" y2="238.94"/><line class="cls-8" x1="17.99" y1="231.83" x2="15.7" y2="229.48"/><line class="cls-8" x1="13.42" y1="227.2" x2="6.56" y2="220.4"/><line class="cls-8" x1="4.27" y1="218.11" x2="0.81" y2="214.65"/><line class="cls-8" x1="16.45" y1="205.94" x2="9.59" y2="199.14"/><line class="cls-8" x1="7.3" y1="196.85" x2="7.24" y2="196.73"/><line class="cls-8" x1="17.99" y1="695.24" x2="17.99" y2="480.35"/><line class="cls-8" x1="17.99" y1="394.38" x2="17.99" y2="196.73"/><line class="cls-8" x1="0.81" y1="196.73" x2="0.81" y2="394.38"/><line class="cls-8" x1="0.81" y1="480.35" x2="0.81" y2="712.42"/><line class="cls-8" x1="146.91" y1="461.37" x2="150.31" y2="457.97"/><line class="cls-8" x1="67.87" y1="461.43" x2="71.33" y2="457.97"/><line class="cls-8" x1="70.52" y1="464.89" x2="77.38" y2="457.97"/><line class="cls-8" x1="76.58" y1="464.89" x2="83.44" y2="457.97"/><line class="cls-8" x1="82.64" y1="464.89" x2="89.56" y2="457.97"/><line class="cls-8" x1="88.76" y1="464.89" x2="95.62" y2="457.97"/><line class="cls-8" x1="94.81" y1="464.89" x2="101.67" y2="457.97"/><line class="cls-8" x1="100.87" y1="464.89" x2="107.79" y2="457.97"/><line class="cls-8" x1="106.99" y1="464.89" x2="113.85" y2="457.97"/><line class="cls-8" x1="113.04" y1="464.89" x2="119.91" y2="457.97"/><line class="cls-8" x1="119.1" y1="464.89" x2="126.02" y2="457.97"/><line class="cls-8" x1="125.22" y1="464.89" x2="132.08" y2="457.97"/><line class="cls-8" x1="131.28" y1="464.89" x2="138.14" y2="457.97"/><line class="cls-8" x1="137.33" y1="464.89" x2="144.26" y2="457.97"/><line class="cls-8" x1="143.45" y1="464.89" x2="146.91" y2="461.37"/><line class="cls-8" x1="17.99" y1="462.67" x2="22.69" y2="457.97"/><line class="cls-8" x1="21.88" y1="464.89" x2="28.74" y2="457.97"/><line class="cls-8" x1="27.94" y1="464.89" x2="34.86" y2="457.97"/><line class="cls-8" x1="34.06" y1="464.89" x2="40.92" y2="457.97"/><line class="cls-8" x1="40.12" y1="464.89" x2="46.98" y2="457.97"/><line class="cls-8" x1="46.17" y1="464.89" x2="53.1" y2="457.97"/><line class="cls-8" x1="52.29" y1="464.89" x2="59.15" y2="457.97"/><line class="cls-8" x1="58.35" y1="464.89" x2="60.94" y2="462.24"/><line class="cls-8" x1="17.99" y1="464.89" x2="60.94" y2="464.89"/><line class="cls-8" x1="67.87" y1="464.89" x2="146.91" y2="464.89"/><line class="cls-8" x1="153.77" y1="457.97" x2="67.87" y2="457.97"/><line class="cls-8" x1="60.94" y1="457.97" x2="17.99" y2="457.97"/><line class="cls-8" x1="149.51" y1="464.89" x2="153.77" y2="460.57"/><line class="cls-8" x1="153.77" y1="457.97" x2="153.77" y2="464.89"/><line class="cls-8" x1="153.77" y1="503.15" x2="157.67" y2="499.26"/><line class="cls-8" x1="162.98" y1="506.12" x2="169.84" y2="499.26"/><line class="cls-8" x1="175.1" y1="506.12" x2="181.28" y2="499.94"/><line class="cls-8" x1="260.2" y1="506.12" x2="267.06" y2="499.26"/><line class="cls-8" x1="272.38" y1="506.12" x2="275.84" y2="502.66"/><line class="cls-8" x1="181.28" y1="499.26" x2="181.28" y2="506.12"/><polyline class="cls-8" points="275.84 499.26 258.65 499.26 258.65 506.12"/><polyline class="cls-8" points="181.28 499.26 153.77 499.26 153.77 506.12 181.28 506.12"/><polyline class="cls-8" points="258.65 506.12 275.84 506.12 275.84 499.26"/><line class="cls-7" x1="258.65" y1="506.12" x2="181.28" y2="506.12"/><line class="cls-7" x1="258.65" y1="499.26" x2="181.28" y2="499.26"/><line class="cls-8" x1="60.94" y1="462.24" x2="65.21" y2="457.97"/><line class="cls-8" x1="64.41" y1="464.89" x2="67.87" y2="461.43"/><line class="cls-8" x1="63.73" y1="502.04" x2="66.51" y2="499.26"/><line class="cls-8" x1="66.75" y1="505.07" x2="67.87" y2="504.02"/><polyline class="cls-8" points="67.87 464.89 64.41 464.89 60.94 464.89"/><polyline class="cls-8" points="67.87 506.12 67.87 499.26 64.41 499.26 60.94 499.26"/><line class="cls-8" x1="60.94" y1="457.97" x2="67.87" y2="457.97"/><line class="cls-8" x1="67.87" y1="499.26" x2="67.87" y2="464.89"/><line class="cls-8" x1="60.94" y1="499.26" x2="60.94" y2="464.89"/><path class="cls-8" d="M67.84,527.6a34.2,34.2,0,0,0,11.76-2.08" transform="translate(0 -28.34)"/><line class="cls-8" x1="67.87" y1="464.89" x2="79.61" y2="497.16"/><polyline class="cls-8" points="60.94 499.26 64.41 499.26 67.87 499.26 64.41 499.26"/><polyline class="cls-8" points="60.94 464.89 64.41 464.89 67.87 464.89 64.41 464.89"/><line class="cls-8" x1="60.94" y1="504.82" x2="63.73" y2="502.04"/><line class="cls-8" x1="65.7" y1="506.12" x2="66.75" y2="505.07"/><line class="cls-8" x1="67.87" y1="506.12" x2="60.94" y2="506.12"/><line class="cls-8" x1="146.91" y1="467.49" x2="149.51" y2="464.89"/><line class="cls-8" x1="146.91" y1="473.55" x2="153.77" y2="466.69"/><line class="cls-8" x1="146.91" y1="479.6" x2="153.77" y2="472.74"/><line class="cls-8" x1="146.91" y1="485.72" x2="153.77" y2="478.8"/><line class="cls-8" x1="146.91" y1="491.78" x2="153.77" y2="484.92"/><line class="cls-8" x1="146.91" y1="497.84" x2="153.77" y2="490.98"/><line class="cls-8" x1="146.91" y1="503.95" x2="153.77" y2="497.03"/><line class="cls-8" x1="146.91" y1="510.01" x2="153.77" y2="503.15"/><line class="cls-8" x1="146.91" y1="516.07" x2="153.77" y2="509.21"/><line class="cls-8" x1="146.91" y1="522.19" x2="153.77" y2="515.26"/><line class="cls-8" x1="146.91" y1="528.24" x2="153.77" y2="521.38"/><line class="cls-8" x1="146.91" y1="534.3" x2="153.77" y2="527.44"/><line class="cls-8" x1="146.91" y1="540.42" x2="153.77" y2="533.5"/><line class="cls-8" x1="146.91" y1="546.48" x2="153.77" y2="539.62"/><line class="cls-8" x1="146.91" y1="552.53" x2="153.77" y2="545.67"/><line class="cls-8" x1="146.91" y1="558.65" x2="153.77" y2="551.73"/><line class="cls-8" x1="146.91" y1="564.71" x2="153.77" y2="557.85"/><line class="cls-8" x1="147.1" y1="570.58" x2="153.77" y2="563.9"/><line class="cls-8" x1="153.22" y1="570.58" x2="153.77" y2="569.96"/><line class="cls-8" x1="146.91" y1="631.58" x2="147.72" y2="630.78"/><line class="cls-8" x1="146.91" y1="637.64" x2="153.77" y2="630.78"/><line class="cls-8" x1="146.91" y1="643.69" x2="153.77" y2="636.83"/><line class="cls-8" x1="146.91" y1="649.81" x2="153.77" y2="642.89"/><line class="cls-8" x1="146.91" y1="655.87" x2="153.77" y2="649.01"/><line class="cls-8" x1="146.91" y1="661.93" x2="153.77" y2="655.06"/><line class="cls-8" x1="146.91" y1="668.04" x2="153.77" y2="661.12"/><line class="cls-8" x1="146.91" y1="674.1" x2="153.77" y2="667.24"/><line class="cls-8" x1="146.91" y1="680.16" x2="153.77" y2="673.3"/><line class="cls-8" x1="146.91" y1="686.28" x2="153.77" y2="679.35"/><line class="cls-8" x1="146.91" y1="692.33" x2="153.77" y2="685.47"/><line class="cls-8" x1="150.13" y1="695.24" x2="153.77" y2="691.53"/><line class="cls-8" x1="146.91" y1="570.58" x2="153.77" y2="570.58"/><line class="cls-8" x1="146.91" y1="630.78" x2="153.77" y2="630.78"/><line class="cls-8" x1="146.91" y1="464.89" x2="146.91" y2="570.58"/><polyline class="cls-8" points="146.91 630.78 146.91 695.24 153.77 695.24 153.77 630.78"/><line class="cls-8" x1="153.77" y1="570.58" x2="153.77" y2="464.89"/><line class="cls-7" x1="153.77" y1="630.78" x2="153.77" y2="566.99"/><line class="cls-7" x1="146.91" y1="630.78" x2="146.91" y2="566.99"/><line class="cls-8" x1="17.99" y1="505.25" x2="23.99" y2="499.26"/><line class="cls-8" x1="23.18" y1="506.12" x2="30.04" y2="499.26"/><line class="cls-8" x1="29.24" y1="506.12" x2="36.1" y2="499.26"/><line class="cls-8" x1="35.3" y1="506.12" x2="42.22" y2="499.26"/><line class="cls-8" x1="41.41" y1="506.12" x2="48.27" y2="499.26"/><line class="cls-8" x1="47.47" y1="506.12" x2="54.33" y2="499.26"/><line class="cls-8" x1="53.53" y1="506.12" x2="60.45" y2="499.26"/><line class="cls-8" x1="59.65" y1="506.12" x2="60.94" y2="504.82"/><polyline class="cls-8" points="60.94 499.26 17.99 499.26 17.99 506.12 60.94 506.12"/><line class="cls-8" x1="24.54" y1="712.42" x2="20.22" y2="708.09"/><line class="cls-8" x1="17.93" y1="705.81" x2="11.13" y2="699.01"/><line class="cls-8" x1="8.84" y1="696.72" x2="7.36" y2="695.24"/><line class="cls-8" x1="48.34" y1="711.92" x2="41.54" y2="705.06"/><line class="cls-8" x1="39.25" y1="702.78" x2="32.39" y2="695.98"/><line class="cls-8" x1="73.18" y1="712.42" x2="71.88" y2="711.12"/><line class="cls-8" x1="69.6" y1="708.9" x2="62.8" y2="702.04"/><line class="cls-8" x1="60.51" y1="699.75" x2="56" y2="695.24"/><line class="cls-8" x1="97.47" y1="712.42" x2="93.14" y2="708.09"/><line class="cls-8" x1="90.92" y1="705.81" x2="84.06" y2="699.01"/><line class="cls-8" x1="81.77" y1="696.72" x2="80.29" y2="695.24"/><line class="cls-8" x1="121.26" y1="711.92" x2="114.47" y2="705.06"/><line class="cls-8" x1="112.18" y1="702.78" x2="105.32" y2="695.98"/><line class="cls-8" x1="146.11" y1="712.42" x2="144.81" y2="711.12"/><line class="cls-8" x1="142.53" y1="708.9" x2="135.73" y2="702.04"/><line class="cls-8" x1="133.44" y1="699.75" x2="128.93" y2="695.24"/><line class="cls-8" x1="170.4" y1="712.42" x2="166.07" y2="708.09"/><line class="cls-8" x1="163.85" y1="705.81" x2="156.99" y2="699.01"/><line class="cls-8" x1="154.7" y1="696.72" x2="153.22" y2="695.24"/><line class="cls-8" x1="185.11" y1="702.78" x2="178.25" y2="695.98"/><line class="cls-8" x1="12.37" y1="712.42" x2="9.59" y2="709.64"/><line class="cls-8" x1="7.3" y1="707.35" x2="0.5" y2="700.49"/><line class="cls-8" x1="36.72" y1="712.42" x2="30.85" y2="706.61"/><line class="cls-8" x1="28.62" y1="704.32" x2="21.76" y2="697.46"/><line class="cls-8" x1="58.97" y1="710.38" x2="52.17" y2="703.52"/><line class="cls-8" x1="49.88" y1="701.29" x2="43.82" y2="695.24"/><line class="cls-8" x1="85.29" y1="712.42" x2="82.51" y2="709.64"/><line class="cls-8" x1="80.23" y1="707.35" x2="73.43" y2="700.49"/><line class="cls-8" x1="71.14" y1="698.2" x2="68.11" y2="695.24"/><line class="cls-8" x1="109.65" y1="712.42" x2="103.77" y2="706.61"/><line class="cls-8" x1="101.55" y1="704.32" x2="94.69" y2="697.46"/><line class="cls-8" x1="131.9" y1="710.38" x2="125.1" y2="703.52"/><line class="cls-8" x1="122.81" y1="701.29" x2="116.75" y2="695.24"/><line class="cls-8" x1="158.22" y1="712.42" x2="155.44" y2="709.64"/><line class="cls-8" x1="153.16" y1="707.35" x2="146.36" y2="700.49"/><line class="cls-8" x1="144.07" y1="698.2" x2="141.04" y2="695.24"/><line class="cls-8" x1="182.57" y1="712.42" x2="176.76" y2="706.61"/><line class="cls-8" x1="174.48" y1="704.32" x2="167.62" y2="697.46"/><polyline class="cls-8" points="275.84 712.42 275.84 705.56 275.84 695.24"/><polyline class="cls-8" points="185.6 712.42 185.6 705.56 185.6 695.24"/><line class="cls-8" x1="0.81" y1="712.42" x2="185.6" y2="712.42"/><line class="cls-8" x1="185.6" y1="695.24" x2="17.99" y2="695.24"/><path class="cls-8" d="M268.08,654.79A79.09,79.09,0,0,0,189,733.87" transform="translate(0 -28.34)"/><line class="cls-8" x1="271.57" y1="705.56" x2="275.84" y2="705.56"/><polyline class="cls-8" points="271.57 712.42 275.84 712.42 275.84 705.56"/><polyline class="cls-8" points="185.6 712.42 189.06 712.42 189.06 705.56 185.6 705.56 185.6 712.42"/><polyline class="cls-8" points="271.57 705.56 268.11 705.56 268.11 712.42 271.57 712.42 271.57 705.56"/><line class="cls-8" x1="268.11" y1="705.56" x2="268.11" y2="626.45"/><polyline class="cls-8" points="185.6 695.24 185.6 705.56 185.6 712.42 185.6 705.56"/><polyline class="cls-8" points="275.84 695.24 275.84 705.56 275.84 712.42 275.84 705.56"/><polyline class="cls-8" points="293.02 712.42 293.02 705.56 293.02 695.24"/><polyline class="cls-8" points="293.02 695.24 293.02 705.56 293.02 712.42 293.02 705.56"/><line class="cls-8" x1="289.99" y1="394.38" x2="284.61" y2="389.06"/><line class="cls-8" x1="282.33" y1="386.77" x2="275.84" y2="380.28"/><line class="cls-8" x1="293.02" y1="373.18" x2="287.64" y2="367.74"/><line class="cls-8" x1="285.35" y1="365.51" x2="278.56" y2="358.65"/><line class="cls-8" x1="276.27" y1="356.37" x2="275.84" y2="355.93"/><line class="cls-8" x1="293.02" y1="348.83" x2="290.67" y2="346.48"/><line class="cls-8" x1="288.38" y1="344.19" x2="281.58" y2="337.39"/><line class="cls-8" x1="279.3" y1="335.11" x2="275.84" y2="331.65"/><line class="cls-8" x1="291.47" y1="322.93" x2="284.61" y2="316.13"/><line class="cls-8" x1="282.33" y1="313.85" x2="275.84" y2="307.36"/><line class="cls-8" x1="293.02" y1="300.25" x2="287.64" y2="294.81"/><line class="cls-8" x1="285.35" y1="292.52" x2="278.56" y2="285.72"/><line class="cls-8" x1="276.27" y1="283.44" x2="275.84" y2="283.01"/><line class="cls-8" x1="293.02" y1="275.9" x2="290.67" y2="273.55"/><line class="cls-8" x1="288.38" y1="271.26" x2="281.58" y2="264.46"/><line class="cls-8" x1="279.3" y1="262.18" x2="275.84" y2="258.72"/><line class="cls-8" x1="291.47" y1="250" x2="284.61" y2="243.14"/><line class="cls-8" x1="282.33" y1="240.92" x2="275.84" y2="234.43"/><line class="cls-8" x1="293.02" y1="227.26" x2="287.64" y2="221.88"/><line class="cls-8" x1="285.35" y1="219.59" x2="278.56" y2="212.8"/><line class="cls-8" x1="276.27" y1="210.51" x2="275.84" y2="210.08"/><line class="cls-8" x1="293.02" y1="202.97" x2="290.67" y2="200.62"/><line class="cls-8" x1="288.38" y1="198.33" x2="286.78" y2="196.73"/><line class="cls-8" x1="277.81" y1="394.38" x2="275.84" y2="392.4"/><line class="cls-8" x1="292.96" y1="385.23" x2="286.16" y2="378.37"/><line class="cls-8" x1="283.87" y1="376.14" x2="277.01" y2="369.28"/><line class="cls-8" x1="293.02" y1="361" x2="289.19" y2="357.11"/><line class="cls-8" x1="286.9" y1="354.82" x2="280.04" y2="348.02"/><line class="cls-8" x1="277.75" y1="345.74" x2="275.84" y2="343.82"/><line class="cls-8" x1="293.02" y1="336.71" x2="292.21" y2="335.85"/><line class="cls-8" x1="289.93" y1="333.56" x2="283.07" y2="326.76"/><line class="cls-8" x1="280.84" y1="324.48" x2="275.84" y2="319.47"/><line class="cls-8" x1="292.96" y1="312.3" x2="286.16" y2="305.44"/><line class="cls-8" x1="283.87" y1="303.22" x2="277.01" y2="296.36"/><line class="cls-8" x1="293.02" y1="288.07" x2="289.19" y2="284.18"/><line class="cls-8" x1="286.9" y1="281.89" x2="280.04" y2="275.09"/><line class="cls-8" x1="277.75" y1="272.81" x2="275.84" y2="270.89"/><line class="cls-8" x1="293.02" y1="263.78" x2="292.21" y2="262.92"/><line class="cls-8" x1="289.93" y1="260.63" x2="283.07" y2="253.83"/><line class="cls-8" x1="280.84" y1="251.55" x2="275.84" y2="246.54"/><line class="cls-8" x1="292.96" y1="239.37" x2="286.16" y2="232.51"/><line class="cls-8" x1="283.87" y1="230.29" x2="277.01" y2="223.43"/><line class="cls-8" x1="293.02" y1="215.14" x2="289.19" y2="211.25"/><line class="cls-8" x1="286.9" y1="208.96" x2="280.04" y2="202.17"/><line class="cls-8" x1="277.75" y1="199.88" x2="275.84" y2="197.96"/><line class="cls-8" x1="293.02" y1="394.38" x2="293.02" y2="196.73"/><polyline class="cls-8" points="275.84 196.73 275.84 394.38 293.02 394.38"/><line class="cls-8" x1="275.84" y1="400.56" x2="281.95" y2="394.38"/><line class="cls-8" x1="275.84" y1="407.85" x2="289.25" y2="394.38"/><line class="cls-8" x1="275.84" y1="415.14" x2="293.02" y2="397.9"/><line class="cls-8" x1="275.84" y1="422.44" x2="293.02" y2="405.19"/><line class="cls-8" x1="275.84" y1="429.73" x2="293.02" y2="412.48"/><line class="cls-8" x1="275.84" y1="437.02" x2="293.02" y2="419.78"/><line class="cls-8" x1="275.84" y1="444.31" x2="293.02" y2="427.07"/><line class="cls-8" x1="275.84" y1="451.61" x2="293.02" y2="434.36"/><line class="cls-8" x1="275.84" y1="458.9" x2="293.02" y2="441.66"/><line class="cls-8" x1="275.84" y1="466.19" x2="293.02" y2="448.95"/><line class="cls-8" x1="275.84" y1="473.49" x2="293.02" y2="456.24"/><line class="cls-8" x1="275.84" y1="480.78" x2="293.02" y2="463.53"/><line class="cls-8" x1="275.84" y1="488.07" x2="293.02" y2="470.83"/><line class="cls-8" x1="275.84" y1="495.36" x2="293.02" y2="478.12"/><line class="cls-8" x1="275.84" y1="502.66" x2="293.02" y2="485.41"/><line class="cls-8" x1="275.84" y1="509.95" x2="293.02" y2="492.71"/><line class="cls-8" x1="275.84" y1="517.24" x2="293.02" y2="500.06"/><line class="cls-8" x1="275.84" y1="524.54" x2="293.02" y2="507.35"/><line class="cls-8" x1="275.84" y1="531.83" x2="293.02" y2="514.65"/><line class="cls-8" x1="275.84" y1="539.12" x2="293.02" y2="521.94"/><line class="cls-8" x1="275.84" y1="546.41" x2="293.02" y2="529.23"/><line class="cls-8" x1="275.84" y1="553.71" x2="293.02" y2="536.53"/><line class="cls-8" x1="275.84" y1="561" x2="293.02" y2="543.82"/><line class="cls-8" x1="275.84" y1="568.29" x2="293.02" y2="551.11"/><line class="cls-8" x1="275.84" y1="575.59" x2="293.02" y2="558.4"/><line class="cls-8" x1="275.84" y1="582.88" x2="293.02" y2="565.7"/><line class="cls-8" x1="275.84" y1="590.17" x2="293.02" y2="572.99"/><line class="cls-8" x1="275.84" y1="597.46" x2="293.02" y2="580.28"/><line class="cls-8" x1="275.84" y1="604.76" x2="293.02" y2="587.57"/><line class="cls-8" x1="275.84" y1="612.05" x2="293.02" y2="594.87"/><line class="cls-8" x1="275.84" y1="619.34" x2="293.02" y2="602.16"/><line class="cls-8" x1="275.84" y1="626.64" x2="293.02" y2="609.45"/><line class="cls-8" x1="275.84" y1="633.93" x2="293.02" y2="616.75"/><line class="cls-8" x1="275.84" y1="641.22" x2="293.02" y2="624.04"/><line class="cls-8" x1="275.84" y1="648.51" x2="293.02" y2="631.33"/><line class="cls-8" x1="275.84" y1="655.81" x2="293.02" y2="638.63"/><line class="cls-8" x1="275.84" y1="663.1" x2="293.02" y2="645.92"/><line class="cls-8" x1="275.84" y1="670.39" x2="293.02" y2="653.21"/><line class="cls-8" x1="275.84" y1="677.69" x2="293.02" y2="660.5"/><line class="cls-8" x1="275.84" y1="684.98" x2="293.02" y2="667.8"/><line class="cls-8" x1="275.84" y1="692.27" x2="293.02" y2="675.09"/><line class="cls-8" x1="278" y1="697.4" x2="293.02" y2="682.38"/><line class="cls-8" x1="281.65" y1="701.05" x2="293.02" y2="689.67"/><line class="cls-8" x1="285.29" y1="704.69" x2="293.02" y2="696.97"/><line class="cls-8" x1="288.94" y1="708.34" x2="293.02" y2="704.26"/><line class="cls-8" x1="292.59" y1="711.99" x2="293.02" y2="711.55"/><line class="cls-8" x1="275.84" y1="396.91" x2="276.27" y2="396.48"/><line class="cls-8" x1="277.2" y1="395.55" x2="277.2" y2="395.55"/><line class="cls-8" x1="278.06" y1="394.69" x2="278.31" y2="394.38"/><line class="cls-8" x1="276.27" y1="403.77" x2="276.27" y2="403.77"/><line class="cls-8" x1="277.2" y1="402.84" x2="279.92" y2="400.12"/><line class="cls-8" x1="280.84" y1="399.2" x2="280.84" y2="399.2"/><line class="cls-8" x1="281.71" y1="398.33" x2="284.49" y2="395.55"/><line class="cls-8" x1="285.35" y1="394.69" x2="285.35" y2="394.69"/><line class="cls-8" x1="276.27" y1="411.06" x2="278.99" y2="408.34"/><line class="cls-8" x1="279.92" y1="407.42" x2="279.92" y2="407.42"/><line class="cls-8" x1="280.84" y1="406.49" x2="283.56" y2="403.77"/><line class="cls-8" x1="284.49" y1="402.84" x2="284.49" y2="402.84"/><line class="cls-8" x1="285.35" y1="401.98" x2="288.14" y2="399.2"/><line class="cls-8" x1="289" y1="398.33" x2="289" y2="398.33"/><line class="cls-8" x1="289.93" y1="397.4" x2="292.65" y2="394.69"/><line class="cls-8" x1="275.84" y1="418.79" x2="278.06" y2="416.56"/><line class="cls-8" x1="278.99" y1="415.64" x2="278.99" y2="415.64"/><line class="cls-8" x1="279.92" y1="414.71" x2="282.63" y2="411.99"/><line class="cls-8" x1="283.56" y1="411.06" x2="283.56" y2="411.06"/><line class="cls-8" x1="284.49" y1="410.14" x2="287.21" y2="407.42"/><line class="cls-8" x1="288.14" y1="406.49" x2="288.14" y2="406.49"/><line class="cls-8" x1="289" y1="405.62" x2="291.78" y2="402.84"/><line class="cls-8" x1="292.65" y1="401.98" x2="292.65" y2="401.98"/><line class="cls-8" x1="275.84" y1="426.08" x2="277.2" y2="424.72"/><line class="cls-8" x1="278.06" y1="423.86" x2="278.06" y2="423.86"/><line class="cls-8" x1="278.99" y1="422.93" x2="281.71" y2="420.21"/><line class="cls-8" x1="282.63" y1="419.28" x2="282.63" y2="419.28"/><line class="cls-8" x1="283.56" y1="418.36" x2="286.28" y2="415.64"/><line class="cls-8" x1="287.21" y1="414.71" x2="287.21" y2="414.71"/><line class="cls-8" x1="288.14" y1="413.78" x2="290.85" y2="411.06"/><line class="cls-8" x1="291.78" y1="410.14" x2="291.78" y2="410.14"/><line class="cls-8" x1="292.65" y1="409.27" x2="293.02" y2="408.84"/><line class="cls-8" x1="275.84" y1="433.37" x2="276.27" y2="432.94"/><line class="cls-8" x1="277.2" y1="432.01" x2="277.2" y2="432.01"/><line class="cls-8" x1="278.06" y1="431.15" x2="280.84" y2="428.37"/><line class="cls-8" x1="281.71" y1="427.5" x2="281.71" y2="427.5"/><line class="cls-8" x1="282.63" y1="426.58" x2="285.35" y2="423.86"/><line class="cls-8" x1="286.28" y1="422.93" x2="286.28" y2="422.93"/><line class="cls-8" x1="287.21" y1="422" x2="289.93" y2="419.28"/><line class="cls-8" x1="290.85" y1="418.36" x2="290.85" y2="418.36"/><line class="cls-8" x1="291.78" y1="417.43" x2="293.02" y2="416.13"/><line class="cls-8" x1="276.27" y1="440.23" x2="276.27" y2="440.23"/><line class="cls-8" x1="277.2" y1="439.31" x2="279.92" y2="436.59"/><line class="cls-8" x1="280.84" y1="435.66" x2="280.84" y2="435.66"/><line class="cls-8" x1="281.71" y1="434.8" x2="284.49" y2="432.01"/><line class="cls-8" x1="285.35" y1="431.15" x2="285.35" y2="431.15"/><line class="cls-8" x1="286.28" y1="430.22" x2="289" y2="427.5"/><line class="cls-8" x1="289.93" y1="426.58" x2="289.93" y2="426.58"/><line class="cls-8" x1="290.85" y1="425.65" x2="293.02" y2="423.42"/><line class="cls-8" x1="276.27" y1="447.53" x2="278.99" y2="444.81"/><line class="cls-8" x1="279.92" y1="443.88" x2="279.92" y2="443.88"/><line class="cls-8" x1="280.84" y1="442.95" x2="283.56" y2="440.23"/><line class="cls-8" x1="284.49" y1="439.31" x2="284.49" y2="439.31"/><line class="cls-8" x1="285.35" y1="438.44" x2="288.14" y2="435.66"/><line class="cls-8" x1="289" y1="434.8" x2="289" y2="434.8"/><line class="cls-8" x1="289.93" y1="433.87" x2="292.65" y2="431.15"/><line class="cls-8" x1="275.84" y1="455.25" x2="278.06" y2="453.03"/><line class="cls-8" x1="278.99" y1="452.1" x2="278.99" y2="452.1"/><line class="cls-8" x1="279.92" y1="451.17" x2="282.63" y2="448.45"/><line class="cls-8" x1="283.56" y1="447.53" x2="283.56" y2="447.53"/><line class="cls-8" x1="284.49" y1="446.6" x2="287.21" y2="443.88"/><line class="cls-8" x1="288.14" y1="442.95" x2="288.14" y2="442.95"/><line class="cls-8" x1="289" y1="442.09" x2="291.78" y2="439.31"/><line class="cls-8" x1="292.65" y1="438.44" x2="292.65" y2="438.44"/><line class="cls-8" x1="275.84" y1="462.55" x2="277.2" y2="461.19"/><line class="cls-8" x1="278.06" y1="460.32" x2="278.06" y2="460.32"/><line class="cls-8" x1="278.99" y1="459.39" x2="281.71" y2="456.67"/><line class="cls-8" x1="282.63" y1="455.75" x2="282.63" y2="455.75"/><line class="cls-8" x1="283.56" y1="454.82" x2="286.28" y2="452.1"/><line class="cls-8" x1="287.21" y1="451.17" x2="287.21" y2="451.17"/><line class="cls-8" x1="288.14" y1="450.25" x2="290.85" y2="447.53"/><line class="cls-8" x1="291.78" y1="446.6" x2="291.78" y2="446.6"/><line class="cls-8" x1="292.65" y1="445.74" x2="293.02" y2="445.3"/><line class="cls-8" x1="275.84" y1="469.84" x2="276.27" y2="469.41"/><line class="cls-8" x1="277.2" y1="468.48" x2="277.2" y2="468.48"/><line class="cls-8" x1="278.06" y1="467.61" x2="280.84" y2="464.83"/><line class="cls-8" x1="281.71" y1="463.97" x2="281.71" y2="463.97"/><line class="cls-8" x1="282.63" y1="463.04" x2="285.35" y2="460.32"/><line class="cls-8" x1="286.28" y1="459.39" x2="286.28" y2="459.39"/><line class="cls-8" x1="287.21" y1="458.47" x2="289.93" y2="455.75"/><line class="cls-8" x1="290.85" y1="454.82" x2="290.85" y2="454.82"/><line class="cls-8" x1="291.78" y1="453.89" x2="293.02" y2="452.6"/><line class="cls-8" x1="276.27" y1="476.7" x2="276.27" y2="476.7"/><line class="cls-8" x1="277.2" y1="475.77" x2="279.92" y2="473.05"/><line class="cls-8" x1="280.84" y1="472.13" x2="280.84" y2="472.13"/><line class="cls-8" x1="281.71" y1="471.26" x2="284.49" y2="468.48"/><line class="cls-8" x1="285.35" y1="467.61" x2="285.35" y2="467.61"/><line class="cls-8" x1="286.28" y1="466.69" x2="289" y2="463.97"/><line class="cls-8" x1="289.93" y1="463.04" x2="289.93" y2="463.04"/><line class="cls-8" x1="290.85" y1="462.11" x2="293.02" y2="459.89"/><line class="cls-8" x1="276.27" y1="483.99" x2="278.99" y2="481.27"/><line class="cls-8" x1="279.92" y1="480.35" x2="279.92" y2="480.35"/><line class="cls-8" x1="280.84" y1="479.42" x2="283.56" y2="476.7"/><line class="cls-8" x1="284.49" y1="475.77" x2="284.49" y2="475.77"/><line class="cls-8" x1="285.35" y1="474.91" x2="288.14" y2="472.13"/><line class="cls-8" x1="289" y1="471.26" x2="289" y2="471.26"/><line class="cls-8" x1="289.93" y1="470.33" x2="292.65" y2="467.61"/><line class="cls-8" x1="275.84" y1="491.72" x2="278.06" y2="489.49"/><line class="cls-8" x1="278.99" y1="488.57" x2="278.99" y2="488.57"/><line class="cls-8" x1="279.92" y1="487.64" x2="282.63" y2="484.92"/><line class="cls-8" x1="283.56" y1="483.99" x2="283.56" y2="483.99"/><line class="cls-8" x1="284.49" y1="483.06" x2="287.21" y2="480.35"/><line class="cls-8" x1="288.14" y1="479.42" x2="288.14" y2="479.42"/><line class="cls-8" x1="289" y1="478.55" x2="291.78" y2="475.77"/><line class="cls-8" x1="292.65" y1="474.91" x2="292.65" y2="474.91"/><line class="cls-8" x1="275.84" y1="499.01" x2="277.2" y2="497.65"/><line class="cls-8" x1="278.06" y1="496.79" x2="278.06" y2="496.79"/><line class="cls-8" x1="278.99" y1="495.86" x2="281.71" y2="493.14"/><line class="cls-8" x1="282.63" y1="492.21" x2="282.63" y2="492.21"/><line class="cls-8" x1="283.56" y1="491.28" x2="286.28" y2="488.57"/><line class="cls-8" x1="287.21" y1="487.64" x2="287.21" y2="487.64"/><line class="cls-8" x1="288.14" y1="486.71" x2="290.85" y2="483.99"/><line class="cls-8" x1="291.78" y1="483.06" x2="291.78" y2="483.06"/><line class="cls-8" x1="292.65" y1="482.2" x2="293.02" y2="481.77"/><line class="cls-8" x1="275.84" y1="506.3" x2="276.27" y2="505.87"/><line class="cls-8" x1="277.2" y1="504.94" x2="277.2" y2="504.94"/><line class="cls-8" x1="278.06" y1="504.08" x2="280.84" y2="501.3"/><line class="cls-8" x1="281.71" y1="500.43" x2="281.71" y2="500.43"/><line class="cls-8" x1="282.63" y1="499.5" x2="285.35" y2="496.79"/><line class="cls-8" x1="286.28" y1="495.86" x2="286.28" y2="495.86"/><line class="cls-8" x1="287.21" y1="494.93" x2="289.93" y2="492.21"/><line class="cls-8" x1="290.85" y1="491.28" x2="290.85" y2="491.28"/><line class="cls-8" x1="291.78" y1="490.36" x2="293.02" y2="489.06"/><line class="cls-8" x1="276.27" y1="513.16" x2="276.27" y2="513.16"/><line class="cls-8" x1="277.2" y1="512.24" x2="279.92" y2="509.52"/><line class="cls-8" x1="280.84" y1="508.59" x2="280.84" y2="508.59"/><line class="cls-8" x1="281.71" y1="507.72" x2="284.49" y2="504.94"/><line class="cls-8" x1="285.35" y1="504.08" x2="285.35" y2="504.08"/><line class="cls-8" x1="286.28" y1="503.15" x2="289" y2="500.43"/><line class="cls-8" x1="289.93" y1="499.5" x2="289.93" y2="499.5"/><line class="cls-8" x1="290.85" y1="498.58" x2="293.02" y2="496.41"/><line class="cls-8" x1="276.27" y1="520.46" x2="278.99" y2="517.74"/><line class="cls-8" x1="279.92" y1="516.81" x2="279.92" y2="516.81"/><line class="cls-8" x1="280.84" y1="515.88" x2="283.56" y2="513.16"/><line class="cls-8" x1="284.49" y1="512.24" x2="284.49" y2="512.24"/><line class="cls-8" x1="285.35" y1="511.37" x2="288.14" y2="508.59"/><line class="cls-8" x1="289" y1="507.72" x2="289" y2="507.72"/><line class="cls-8" x1="289.93" y1="506.8" x2="292.65" y2="504.08"/><line class="cls-8" x1="275.84" y1="528.18" x2="278.06" y2="525.96"/><line class="cls-8" x1="278.99" y1="525.03" x2="278.99" y2="525.03"/><line class="cls-8" x1="279.92" y1="524.1" x2="282.63" y2="521.38"/><line class="cls-8" x1="283.56" y1="520.46" x2="283.56" y2="520.46"/><line class="cls-8" x1="284.49" y1="519.53" x2="287.21" y2="516.81"/><line class="cls-8" x1="288.14" y1="515.88" x2="288.14" y2="515.88"/><line class="cls-8" x1="289" y1="515.02" x2="291.78" y2="512.24"/><line class="cls-8" x1="292.65" y1="511.37" x2="292.65" y2="511.37"/><line class="cls-8" x1="275.84" y1="535.47" x2="277.2" y2="534.11"/><line class="cls-8" x1="278.06" y1="533.25" x2="278.06" y2="533.25"/><line class="cls-8" x1="278.99" y1="532.32" x2="281.71" y2="529.6"/><line class="cls-8" x1="282.63" y1="528.68" x2="282.63" y2="528.68"/><line class="cls-8" x1="283.56" y1="527.75" x2="286.28" y2="525.03"/><line class="cls-8" x1="287.21" y1="524.1" x2="287.21" y2="524.1"/><line class="cls-8" x1="288.14" y1="523.18" x2="290.85" y2="520.46"/><line class="cls-8" x1="291.78" y1="519.53" x2="291.78" y2="519.53"/><line class="cls-8" x1="292.65" y1="518.66" x2="293.02" y2="518.29"/><line class="cls-8" x1="275.84" y1="542.77" x2="276.27" y2="542.33"/><line class="cls-8" x1="277.2" y1="541.41" x2="277.2" y2="541.41"/><line class="cls-8" x1="278.06" y1="540.54" x2="280.84" y2="537.76"/><line class="cls-8" x1="281.71" y1="536.9" x2="281.71" y2="536.9"/><line class="cls-8" x1="282.63" y1="535.97" x2="285.35" y2="533.25"/><line class="cls-8" x1="286.28" y1="532.32" x2="286.28" y2="532.32"/><line class="cls-8" x1="287.21" y1="531.4" x2="289.93" y2="528.68"/><line class="cls-8" x1="290.85" y1="527.75" x2="290.85" y2="527.75"/><line class="cls-8" x1="291.78" y1="526.82" x2="293.02" y2="525.59"/><line class="cls-8" x1="276.27" y1="549.63" x2="276.27" y2="549.63"/><line class="cls-8" x1="277.2" y1="548.7" x2="279.92" y2="545.98"/><line class="cls-8" x1="280.84" y1="545.05" x2="280.84" y2="545.05"/><line class="cls-8" x1="281.71" y1="544.19" x2="284.49" y2="541.41"/><line class="cls-8" x1="285.35" y1="540.54" x2="285.35" y2="540.54"/><line class="cls-8" x1="286.28" y1="539.62" x2="289" y2="536.9"/><line class="cls-8" x1="289.93" y1="535.97" x2="289.93" y2="535.97"/><line class="cls-8" x1="290.85" y1="535.04" x2="293.02" y2="532.88"/><line class="cls-8" x1="276.27" y1="556.92" x2="278.99" y2="554.2"/><line class="cls-8" x1="279.92" y1="553.27" x2="279.92" y2="553.27"/><line class="cls-8" x1="280.84" y1="552.35" x2="283.56" y2="549.63"/><line class="cls-8" x1="284.49" y1="548.7" x2="284.49" y2="548.7"/><line class="cls-8" x1="285.35" y1="547.84" x2="288.14" y2="545.05"/><line class="cls-8" x1="289" y1="544.19" x2="289" y2="544.19"/><line class="cls-8" x1="289.93" y1="543.26" x2="292.65" y2="540.54"/><line class="cls-8" x1="275.84" y1="564.65" x2="278.06" y2="562.42"/><line class="cls-8" x1="278.99" y1="561.49" x2="278.99" y2="561.49"/><line class="cls-8" x1="279.92" y1="560.57" x2="282.63" y2="557.85"/><line class="cls-8" x1="283.56" y1="556.92" x2="283.56" y2="556.92"/><line class="cls-8" x1="284.49" y1="555.99" x2="287.21" y2="553.27"/><line class="cls-8" x1="288.14" y1="552.35" x2="288.14" y2="552.35"/><line class="cls-8" x1="289" y1="551.48" x2="291.78" y2="548.7"/><line class="cls-8" x1="292.65" y1="547.84" x2="292.65" y2="547.84"/><line class="cls-8" x1="275.84" y1="571.94" x2="277.2" y2="570.58"/><line class="cls-8" x1="278.06" y1="569.71" x2="278.06" y2="569.71"/><line class="cls-8" x1="278.99" y1="568.79" x2="281.71" y2="566.07"/><line class="cls-8" x1="282.63" y1="565.14" x2="282.63" y2="565.14"/><line class="cls-8" x1="283.56" y1="564.21" x2="286.28" y2="561.49"/><line class="cls-8" x1="287.21" y1="560.57" x2="287.21" y2="560.57"/><line class="cls-8" x1="288.14" y1="559.64" x2="290.85" y2="556.92"/><line class="cls-8" x1="291.78" y1="555.99" x2="291.78" y2="555.99"/><line class="cls-8" x1="292.65" y1="555.13" x2="293.02" y2="554.76"/><line class="cls-8" x1="275.84" y1="579.23" x2="276.27" y2="578.8"/><line class="cls-8" x1="277.2" y1="577.87" x2="277.2" y2="577.87"/><line class="cls-8" x1="278.06" y1="577.01" x2="280.84" y2="574.23"/><line class="cls-8" x1="281.71" y1="573.36" x2="281.71" y2="573.36"/><line class="cls-8" x1="282.63" y1="572.43" x2="285.35" y2="569.71"/><line class="cls-8" x1="286.28" y1="568.79" x2="286.28" y2="568.79"/><line class="cls-8" x1="287.21" y1="567.86" x2="289.93" y2="565.14"/><line class="cls-8" x1="290.85" y1="564.21" x2="290.85" y2="564.21"/><line class="cls-8" x1="291.78" y1="563.29" x2="293.02" y2="562.05"/><line class="cls-8" x1="276.27" y1="586.09" x2="276.27" y2="586.09"/><line class="cls-8" x1="277.2" y1="585.16" x2="279.92" y2="582.45"/><line class="cls-8" x1="280.84" y1="581.52" x2="280.84" y2="581.52"/><line class="cls-8" x1="281.71" y1="580.65" x2="284.49" y2="577.87"/><line class="cls-8" x1="285.35" y1="577.01" x2="285.35" y2="577.01"/><line class="cls-8" x1="286.28" y1="576.08" x2="289" y2="573.36"/><line class="cls-8" x1="289.93" y1="572.43" x2="289.93" y2="572.43"/><line class="cls-8" x1="290.85" y1="571.51" x2="293.02" y2="569.34"/><line class="cls-8" x1="276.27" y1="593.38" x2="278.99" y2="590.67"/><line class="cls-8" x1="279.92" y1="589.74" x2="279.92" y2="589.74"/><line class="cls-8" x1="280.84" y1="588.81" x2="283.56" y2="586.09"/><line class="cls-8" x1="284.49" y1="585.16" x2="284.49" y2="585.16"/><line class="cls-8" x1="285.35" y1="584.3" x2="288.14" y2="581.52"/><line class="cls-8" x1="289" y1="580.65" x2="289" y2="580.65"/><line class="cls-8" x1="289.93" y1="579.73" x2="292.65" y2="577.01"/><line class="cls-8" x1="275.84" y1="601.11" x2="278.06" y2="598.89"/><line class="cls-8" x1="278.99" y1="597.96" x2="278.99" y2="597.96"/><line class="cls-8" x1="279.92" y1="597.03" x2="282.63" y2="594.31"/><line class="cls-8" x1="283.56" y1="593.38" x2="283.56" y2="593.38"/><line class="cls-8" x1="284.49" y1="592.46" x2="287.21" y2="589.74"/><line class="cls-8" x1="288.14" y1="588.81" x2="288.14" y2="588.81"/><line class="cls-8" x1="289" y1="587.95" x2="291.78" y2="585.16"/><line class="cls-8" x1="292.65" y1="584.3" x2="292.65" y2="584.3"/><line class="cls-8" x1="275.84" y1="608.4" x2="277.2" y2="607.04"/><line class="cls-8" x1="278.06" y1="606.18" x2="278.06" y2="606.18"/><line class="cls-8" x1="278.99" y1="605.25" x2="281.71" y2="602.53"/><line class="cls-8" x1="282.63" y1="601.6" x2="282.63" y2="601.6"/><line class="cls-8" x1="283.56" y1="600.68" x2="286.28" y2="597.96"/><line class="cls-8" x1="287.21" y1="597.03" x2="287.21" y2="597.03"/><line class="cls-8" x1="288.14" y1="596.1" x2="290.85" y2="593.38"/><line class="cls-8" x1="291.78" y1="592.46" x2="291.78" y2="592.46"/><line class="cls-8" x1="292.65" y1="591.59" x2="293.02" y2="591.22"/><line class="cls-8" x1="275.84" y1="615.7" x2="276.27" y2="615.26"/><line class="cls-8" x1="277.2" y1="614.34" x2="277.2" y2="614.34"/><line class="cls-8" x1="278.06" y1="613.47" x2="280.84" y2="610.69"/><line class="cls-8" x1="281.71" y1="609.82" x2="281.71" y2="609.82"/><line class="cls-8" x1="282.63" y1="608.9" x2="285.35" y2="606.18"/><line class="cls-8" x1="286.28" y1="605.25" x2="286.28" y2="605.25"/><line class="cls-8" x1="287.21" y1="604.32" x2="289.93" y2="601.6"/><line class="cls-8" x1="290.85" y1="600.68" x2="290.85" y2="600.68"/><line class="cls-8" x1="291.78" y1="599.75" x2="293.02" y2="598.51"/><line class="cls-8" x1="276.27" y1="622.56" x2="276.27" y2="622.56"/><line class="cls-8" x1="277.2" y1="621.63" x2="279.92" y2="618.91"/><line class="cls-8" x1="280.84" y1="617.98" x2="280.84" y2="617.98"/><line class="cls-8" x1="281.71" y1="617.12" x2="284.49" y2="614.34"/><line class="cls-8" x1="285.35" y1="613.47" x2="285.35" y2="613.47"/><line class="cls-8" x1="286.28" y1="612.54" x2="289" y2="609.82"/><line class="cls-8" x1="289.93" y1="608.9" x2="289.93" y2="608.9"/><line class="cls-8" x1="290.85" y1="607.97" x2="293.02" y2="605.81"/><line class="cls-8" x1="276.27" y1="629.85" x2="278.99" y2="627.13"/><line class="cls-8" x1="279.92" y1="626.2" x2="279.92" y2="626.2"/><line class="cls-8" x1="280.84" y1="625.28" x2="283.56" y2="622.56"/><line class="cls-8" x1="284.49" y1="621.63" x2="284.49" y2="621.63"/><line class="cls-8" x1="285.35" y1="620.76" x2="288.14" y2="617.98"/><line class="cls-8" x1="289" y1="617.12" x2="289" y2="617.12"/><line class="cls-8" x1="289.93" y1="616.19" x2="292.65" y2="613.47"/><line class="cls-8" x1="275.84" y1="637.57" x2="278.06" y2="635.35"/><line class="cls-8" x1="278.99" y1="634.42" x2="278.99" y2="634.42"/><line class="cls-8" x1="279.92" y1="633.5" x2="282.63" y2="630.78"/><line class="cls-8" x1="283.56" y1="629.85" x2="283.56" y2="629.85"/><line class="cls-8" x1="284.49" y1="628.92" x2="287.21" y2="626.2"/><line class="cls-8" x1="288.14" y1="625.28" x2="288.14" y2="625.28"/><line class="cls-8" x1="289" y1="624.41" x2="291.78" y2="621.63"/><line class="cls-8" x1="292.65" y1="620.76" x2="292.65" y2="620.76"/><line class="cls-8" x1="275.84" y1="644.87" x2="277.2" y2="643.51"/><line class="cls-8" x1="278.06" y1="642.64" x2="278.06" y2="642.64"/><line class="cls-8" x1="278.99" y1="641.72" x2="281.71" y2="639"/><line class="cls-8" x1="282.63" y1="638.07" x2="282.63" y2="638.07"/><line class="cls-8" x1="283.56" y1="637.14" x2="286.28" y2="634.42"/><line class="cls-8" x1="287.21" y1="633.5" x2="287.21" y2="633.5"/><line class="cls-8" x1="288.14" y1="632.57" x2="290.85" y2="629.85"/><line class="cls-8" x1="291.78" y1="628.92" x2="291.78" y2="628.92"/><line class="cls-8" x1="292.65" y1="628.06" x2="293.02" y2="627.69"/><line class="cls-8" x1="275.84" y1="652.16" x2="276.27" y2="651.73"/><line class="cls-8" x1="277.2" y1="650.8" x2="277.2" y2="650.8"/><line class="cls-8" x1="278.06" y1="649.94" x2="280.84" y2="647.15"/><line class="cls-8" x1="281.71" y1="646.29" x2="281.71" y2="646.29"/><line class="cls-8" x1="282.63" y1="645.36" x2="285.35" y2="642.64"/><line class="cls-8" x1="286.28" y1="641.72" x2="286.28" y2="641.72"/><line class="cls-8" x1="287.21" y1="640.79" x2="289.93" y2="638.07"/><line class="cls-8" x1="290.85" y1="637.14" x2="290.85" y2="637.14"/><line class="cls-8" x1="291.78" y1="636.21" x2="293.02" y2="634.98"/><line class="cls-8" x1="276.27" y1="659.02" x2="276.27" y2="659.02"/><line class="cls-8" x1="277.2" y1="658.09" x2="279.92" y2="655.37"/><line class="cls-8" x1="280.84" y1="654.45" x2="280.84" y2="654.45"/><line class="cls-8" x1="281.71" y1="653.58" x2="284.49" y2="650.8"/><line class="cls-8" x1="285.35" y1="649.94" x2="285.35" y2="649.94"/><line class="cls-8" x1="286.28" y1="649.01" x2="289" y2="646.29"/><line class="cls-8" x1="289.93" y1="645.36" x2="289.93" y2="645.36"/><line class="cls-8" x1="290.85" y1="644.43" x2="293.02" y2="642.27"/><line class="cls-8" x1="276.27" y1="666.31" x2="278.99" y2="663.59"/><line class="cls-8" x1="279.92" y1="662.67" x2="279.92" y2="662.67"/><line class="cls-8" x1="280.84" y1="661.74" x2="283.56" y2="659.02"/><line class="cls-8" x1="284.49" y1="658.09" x2="284.49" y2="658.09"/><line class="cls-8" x1="285.35" y1="657.23" x2="288.14" y2="654.45"/><line class="cls-8" x1="289" y1="653.58" x2="289" y2="653.58"/><line class="cls-8" x1="289.93" y1="652.65" x2="292.65" y2="649.94"/><line class="cls-8" x1="275.84" y1="674.04" x2="278.06" y2="671.81"/><line class="cls-8" x1="278.99" y1="670.89" x2="278.99" y2="670.89"/><line class="cls-8" x1="279.92" y1="669.96" x2="282.63" y2="667.24"/><line class="cls-8" x1="283.56" y1="666.31" x2="283.56" y2="666.31"/><line class="cls-8" x1="284.49" y1="665.39" x2="287.21" y2="662.67"/><line class="cls-8" x1="288.14" y1="661.74" x2="288.14" y2="661.74"/><line class="cls-8" x1="289" y1="660.87" x2="291.78" y2="658.09"/><line class="cls-8" x1="292.65" y1="657.23" x2="292.65" y2="657.23"/><line class="cls-8" x1="275.84" y1="681.33" x2="277.2" y2="679.97"/><line class="cls-8" x1="278.06" y1="679.11" x2="278.06" y2="679.11"/><line class="cls-8" x1="278.99" y1="678.18" x2="281.71" y2="675.46"/><line class="cls-8" x1="282.63" y1="674.53" x2="282.63" y2="674.53"/><line class="cls-8" x1="283.56" y1="673.61" x2="286.28" y2="670.89"/><line class="cls-8" x1="287.21" y1="669.96" x2="287.21" y2="669.96"/><line class="cls-8" x1="288.14" y1="669.03" x2="290.85" y2="666.31"/><line class="cls-8" x1="291.78" y1="665.39" x2="291.78" y2="665.39"/><line class="cls-8" x1="292.65" y1="664.52" x2="293.02" y2="664.15"/><line class="cls-8" x1="275.84" y1="688.62" x2="276.27" y2="688.19"/><line class="cls-8" x1="277.2" y1="687.26" x2="277.2" y2="687.26"/><line class="cls-8" x1="278.06" y1="686.4" x2="280.84" y2="683.62"/><line class="cls-8" x1="281.71" y1="682.75" x2="281.71" y2="682.75"/><line class="cls-8" x1="282.63" y1="681.83" x2="285.35" y2="679.11"/><line class="cls-8" x1="286.28" y1="678.18" x2="286.28" y2="678.18"/><line class="cls-8" x1="287.21" y1="677.25" x2="289.93" y2="674.53"/><line class="cls-8" x1="290.85" y1="673.61" x2="290.85" y2="673.61"/><line class="cls-8" x1="291.78" y1="672.68" x2="293.02" y2="671.44"/><line class="cls-8" x1="276.27" y1="695.48" x2="276.27" y2="695.48"/><line class="cls-8" x1="277.2" y1="694.56" x2="279.92" y2="691.84"/><line class="cls-8" x1="280.84" y1="690.91" x2="280.84" y2="690.91"/><line class="cls-8" x1="281.71" y1="690.05" x2="284.49" y2="687.26"/><line class="cls-8" x1="285.35" y1="686.4" x2="285.35" y2="686.4"/><line class="cls-8" x1="286.28" y1="685.47" x2="289" y2="682.75"/><line class="cls-8" x1="289.93" y1="681.83" x2="289.93" y2="681.83"/><line class="cls-8" x1="290.85" y1="680.9" x2="293.02" y2="678.74"/><line class="cls-8" x1="279.92" y1="699.13" x2="279.92" y2="699.13"/><line class="cls-8" x1="280.84" y1="698.2" x2="283.56" y2="695.48"/><line class="cls-8" x1="284.49" y1="694.56" x2="284.49" y2="694.56"/><line class="cls-8" x1="285.35" y1="693.69" x2="288.14" y2="690.91"/><line class="cls-8" x1="289" y1="690.05" x2="289" y2="690.05"/><line class="cls-8" x1="289.93" y1="689.12" x2="292.65" y2="686.4"/><line class="cls-8" x1="283.56" y1="702.78" x2="283.56" y2="702.78"/><line class="cls-8" x1="284.49" y1="701.85" x2="287.21" y2="699.13"/><line class="cls-8" x1="288.14" y1="698.2" x2="288.14" y2="698.2"/><line class="cls-8" x1="289" y1="697.34" x2="291.78" y2="694.56"/><line class="cls-8" x1="292.65" y1="693.69" x2="292.65" y2="693.69"/><line class="cls-8" x1="287.21" y1="706.42" x2="287.21" y2="706.42"/><line class="cls-8" x1="288.14" y1="705.5" x2="290.85" y2="702.78"/><line class="cls-8" x1="291.78" y1="701.85" x2="291.78" y2="701.85"/><line class="cls-8" x1="292.65" y1="700.99" x2="293.02" y2="700.61"/><line class="cls-8" x1="290.85" y1="710.07" x2="290.85" y2="710.07"/><line class="cls-8" x1="291.78" y1="709.14" x2="293.02" y2="707.91"/><polyline class="cls-8" points="293.02 712.42 293.02 394.38 275.84 394.38 275.84 695.24"/><line class="cls-8" x1="275.84" y1="699.56" x2="278" y2="697.4"/><line class="cls-8" x1="275.84" y1="706.86" x2="281.65" y2="701.05"/><line class="cls-8" x1="277.57" y1="712.42" x2="285.29" y2="704.69"/><line class="cls-8" x1="284.86" y1="712.42" x2="288.94" y2="708.34"/><line class="cls-8" x1="292.15" y1="712.42" x2="292.59" y2="711.99"/><line class="cls-8" x1="276.27" y1="702.78" x2="278.99" y2="700.06"/><line class="cls-8" x1="275.84" y1="710.5" x2="278.06" y2="708.28"/><line class="cls-8" x1="278.99" y1="707.35" x2="278.99" y2="707.35"/><line class="cls-8" x1="279.92" y1="706.42" x2="282.63" y2="703.7"/><line class="cls-8" x1="281.21" y1="712.42" x2="281.71" y2="711.92"/><line class="cls-8" x1="282.63" y1="711" x2="282.63" y2="711"/><line class="cls-8" x1="283.56" y1="710.07" x2="286.28" y2="707.35"/><line class="cls-8" x1="288.51" y1="712.42" x2="289.93" y2="711"/><line class="cls-8" x1="293.02" y1="712.42" x2="275.84" y2="712.42"/><line class="cls-8" x1="2.73" y1="110.76" x2="5.2" y2="106.49"/><line class="cls-8" x1="7.67" y1="110.76" x2="10.2" y2="106.49"/><line class="cls-8" x1="12.68" y1="110.76" x2="15.15" y2="106.49"/><line class="cls-8" x1="17.62" y1="110.76" x2="17.99" y2="110.14"/><line class="cls-8" x1="0.87" y1="110.76" x2="0.81" y2="110.63"/><line class="cls-8" x1="5.88" y1="110.76" x2="3.4" y2="106.49"/><line class="cls-8" x1="10.82" y1="110.76" x2="8.35" y2="106.49"/><line class="cls-8" x1="15.77" y1="110.76" x2="13.29" y2="106.49"/><polyline class="cls-8" points="0.81 97.56 0.81 110.76 17.99 110.76 17.99 106.49"/><line class="cls-8" x1="275.84" y1="110.45" x2="277.57" y2="107.42"/><line class="cls-8" x1="280.66" y1="110.76" x2="282.02" y2="108.35"/><line class="cls-8" x1="285.6" y1="110.76" x2="287.02" y2="108.35"/><line class="cls-8" x1="290.55" y1="110.76" x2="292.65" y2="107.17"/><line class="cls-8" x1="278.8" y1="110.76" x2="276.76" y2="107.3"/><line class="cls-8" x1="283.75" y1="110.76" x2="282.39" y2="108.41"/><line class="cls-8" x1="288.69" y1="110.76" x2="287.27" y2="108.29"/><line class="cls-8" x1="293.02" y1="109.65" x2="291.72" y2="107.36"/><line class="cls-8" x1="277.57" y1="107.42" x2="278.12" y2="106.49"/><line class="cls-8" x1="282.02" y1="108.35" x2="283.13" y2="106.49"/><line class="cls-8" x1="276.76" y1="107.3" x2="276.33" y2="106.49"/><line class="cls-8" x1="282.39" y1="108.41" x2="281.28" y2="106.49"/><line class="cls-8" x1="287.02" y1="108.35" x2="288.07" y2="106.49"/><line class="cls-8" x1="292.65" y1="107.17" x2="293.02" y2="106.49"/><line class="cls-8" x1="287.27" y1="108.29" x2="286.22" y2="106.49"/><line class="cls-8" x1="291.72" y1="107.36" x2="291.23" y2="106.49"/><polyline class="cls-8" points="275.84 107.05 275.84 110.76 293.02 110.76 293.02 97.26"/><line class="cls-8" x1="37.77" y1="682.51" x2="37.77" y2="677.62"/><line class="cls-8" x1="35.6" y1="675.46" x2="30.72" y2="675.46"/><line class="cls-8" x1="37.77" y1="673.3" x2="37.77" y2="668.41"/><line class="cls-8" x1="44.81" y1="675.46" x2="39.93" y2="675.46"/><line class="cls-8" x1="91.04" y1="690.05" x2="91.04" y2="669.47"/><line class="cls-8" x1="22.32" y1="670.27" x2="22.32" y2="623.05"/><line class="cls-8" x1="43.76" y1="622.19" x2="23.18" y2="622.19"/><line class="cls-8" x1="91.04" y1="690.05" x2="91.04" y2="669.47"/><line class="cls-8" x1="90.18" y1="690.91" x2="42.96" y2="690.91"/><line class="cls-8" x1="95.37" y1="694.37" x2="95.37" y2="669.47"/><line class="cls-8" x1="17.99" y1="694.37" x2="17.99" y2="618.72"/><line class="cls-8" x1="43.76" y1="617.86" x2="18.86" y2="617.86"/><line class="cls-8" x1="94.5" y1="695.24" x2="18.86" y2="695.24"/><path class="cls-8" d="M41.56,719a4.23,4.23,0,0,0,1.37.22" transform="translate(0 -28.34)"/><path class="cls-8" d="M90.15,719.19a.83.83,0,0,0,.83-.83" transform="translate(0 -28.34)"/><path class="cls-8" d="M41.56,719a4.23,4.23,0,0,0,1.37.22" transform="translate(0 -28.34)"/><path class="cls-8" d="M95.31,697.78A51.58,51.58,0,0,0,43.73,646.2" transform="translate(0 -28.34)"/><path class="cls-8" d="M94.47,723.52a.85.85,0,0,0,.84-.84" transform="translate(0 -28.34)"/><path class="cls-8" d="M91,697.78a47.24,47.24,0,0,0-47.25-47.25" transform="translate(0 -28.34)"/><path class="cls-8" d="M18.82,646.2A.83.83,0,0,0,18,647" transform="translate(0 -28.34)"/><path class="cls-8" d="M23.15,650.53a.83.83,0,0,0-.83.83" transform="translate(0 -28.34)"/><path class="cls-8" d="M18,722.68a.84.84,0,0,0,.83.84" transform="translate(0 -28.34)"/><path class="cls-8" d="M22.35,699.42a46.24,46.24,0,0,0,19.73,19.74" transform="translate(0 -28.34)"/><path class="cls-8" d="M22.26,698.58a4.21,4.21,0,0,0,.22,1.36" transform="translate(0 -28.34)"/><path class="cls-8" d="M22.46,700A30.25,30.25,0,0,0,41.54,719" transform="translate(0 -28.34)"/><path class="cls-8" d="M22.26,698.58a4.21,4.21,0,0,0,.22,1.36" transform="translate(0 -28.34)"/><path class="cls-8" d="M41.6,703.77a3.87,3.87,0,1,0-3.86,3.86,3.86,3.86,0,0,0,3.86-3.86" transform="translate(0 -28.34)"/><path class="cls-8" d="M43.14,703.77a5.41,5.41,0,1,0-5.4,5.41,5.41,5.41,0,0,0,5.4-5.41" transform="translate(0 -28.34)"/><line class="cls-8" x1="17.99" y1="570.58" x2="17.99" y2="616.99"/><line class="cls-8" x1="17.99" y1="616.99" x2="37.64" y2="616.99"/><line class="cls-8" x1="17.99" y1="570.58" x2="37.64" y2="570.58"/><line class="cls-8" x1="17.99" y1="601.11" x2="17.99" y2="586.46"/><line class="cls-8" x1="33.75" y1="597.71" x2="33.75" y2="595.24"/><line class="cls-8" x1="29.86" y1="593.82" x2="32.33" y2="593.82"/><line class="cls-8" x1="33.75" y1="592.33" x2="33.75" y2="589.86"/><line class="cls-8" x1="35.17" y1="593.82" x2="37.64" y2="593.82"/><path class="cls-8" d="M38.8,601.79a20.65,20.65,0,0,0-9.78,8" transform="translate(0 -28.34)"/><path class="cls-8" d="M29.05,609.79a20.76,20.76,0,0,0-2.9,12.33" transform="translate(0 -28.34)"/><path class="cls-8" d="M29,634.45a20.67,20.67,0,0,0,9.78,8" transform="translate(0 -28.34)"/><path class="cls-8" d="M26.15,622.14a20.71,20.71,0,0,0,2.9,12.32" transform="translate(0 -28.34)"/><path class="cls-8" d="M53.12,620.5a38.16,38.16,0,0,0-3.84-14.08" transform="translate(0 -28.34)"/><path class="cls-8" d="M37.6,645.32a11.84,11.84,0,0,0,9.74-4.41" transform="translate(0 -28.34)"/><path class="cls-8" d="M53.16,623.75a22,22,0,0,0,0-3.25" transform="translate(0 -28.34)"/><path class="cls-8" d="M29.81,609.14a84.39,84.39,0,0,0,0,26" transform="translate(0 -28.34)"/><path class="cls-8" d="M21.67,637.57a29.25,29.25,0,0,0,19,6.59" transform="translate(0 -28.34)"/><path class="cls-8" d="M18.86,622.12a58.24,58.24,0,0,0,1.43,13.29" transform="translate(0 -28.34)"/><path class="cls-8" d="M20.37,635.4a3.84,3.84,0,0,0,1.33,2.14" transform="translate(0 -28.34)"/><path class="cls-8" d="M20.77,622.13a98.87,98.87,0,0,0,.95,13.09" transform="translate(0 -28.34)"/><path class="cls-8" d="M22.92,637.61a26.28,26.28,0,0,0,17.7,6.55" transform="translate(0 -28.34)"/><path class="cls-8" d="M21.67,635.21A3.85,3.85,0,0,0,23,637.57" transform="translate(0 -28.34)"/><path class="cls-8" d="M40.64,600.1A26.2,26.2,0,0,0,23,606.67" transform="translate(0 -28.34)"/><path class="cls-8" d="M40.61,600.1a29.17,29.17,0,0,0-19,6.61" transform="translate(0 -28.34)"/><path class="cls-8" d="M21.7,609.05a98.82,98.82,0,0,0-.93,13.08" transform="translate(0 -28.34)"/><path class="cls-8" d="M20.28,608.86a57.68,57.68,0,0,0-1.42,13.29" transform="translate(0 -28.34)"/><path class="cls-8" d="M22.94,606.69a3.89,3.89,0,0,0-1.27,2.37" transform="translate(0 -28.34)"/><path class="cls-8" d="M21.63,606.72a3.83,3.83,0,0,0-1.32,2.14" transform="translate(0 -28.34)"/><path class="cls-8" d="M47.34,603.29a11.84,11.84,0,0,0-9.74-4.42" transform="translate(0 -28.34)"/><path class="cls-8" d="M49.29,606.44a18.42,18.42,0,0,0-2-3.08" transform="translate(0 -28.34)"/><path class="cls-8" d="M47.3,640.9a18.84,18.84,0,0,0,2-3.08" transform="translate(0 -28.34)"/><path class="cls-8" d="M49.28,637.84a38.26,38.26,0,0,0,3.84-14.09" transform="translate(0 -28.34)"/><path class="cls-8" d="M49.86,628.51a27,27,0,0,0,0-12.77" transform="translate(0 -28.34)"/><path class="cls-8" d="M44.55,604.17a7,7,0,0,0-5.74-2.39" transform="translate(0 -28.34)"/><path class="cls-8" d="M49.87,615.72a25.23,25.23,0,0,0-5.31-11.58" transform="translate(0 -28.34)"/><path class="cls-8" d="M38.81,642.48a7,7,0,0,0,5.74-2.4" transform="translate(0 -28.34)"/><path class="cls-8" d="M44.56,640.05a25.2,25.2,0,0,0,5.31-11.57" transform="translate(0 -28.34)"/><path class="cls-8" d="M33.72,625.12a3,3,0,1,0-3-3,3,3,0,0,0,3,3" transform="translate(0 -28.34)"/><path class="cls-8" d="M33.72,624.26a2.13,2.13,0,1,0-2.13-2.13,2.13,2.13,0,0,0,2.13,2.13" transform="translate(0 -28.34)"/><line class="cls-8" x1="31.22" y1="521.2" x2="61.56" y2="521.2"/><line class="cls-8" x1="17.99" y1="519.9" x2="17.99" y2="552.53"/><line class="cls-8" x1="17.99" y1="519.9" x2="29.36" y2="519.9"/><line class="cls-8" x1="36.53" y1="536.22" x2="36.53" y2="548.33"/><line class="cls-8" x1="61.5" y1="521.2" x2="36.53" y2="524.1"/><line class="cls-8" x1="36.53" y1="536.22" x2="36.53" y2="524.1"/><line class="cls-8" x1="61.5" y1="551.23" x2="36.53" y2="548.33"/><line class="cls-8" x1="61.5" y1="521.94" x2="36.53" y2="524.84"/><line class="cls-8" x1="61.5" y1="550.49" x2="36.53" y2="547.59"/><line class="cls-8" x1="31.22" y1="551.23" x2="61.56" y2="551.23"/><line class="cls-8" x1="17.99" y1="552.53" x2="29.36" y2="552.53"/><line class="cls-8" x1="61.5" y1="521.2" x2="64.9" y2="521.63"/><line class="cls-8" x1="64.9" y1="521.63" x2="68.05" y2="522.87"/><line class="cls-8" x1="68.05" y1="522.87" x2="70.83" y2="524.97"/><line class="cls-8" x1="70.83" y1="524.97" x2="73.12" y2="527.69"/><line class="cls-8" x1="73.12" y1="527.69" x2="74.66" y2="530.9"/><line class="cls-8" x1="74.66" y1="530.9" x2="75.47" y2="534.42"/><line class="cls-8" x1="75.47" y1="534.42" x2="75.47" y2="538.01"/><line class="cls-8" x1="75.47" y1="538.01" x2="74.66" y2="541.53"/><line class="cls-8" x1="74.66" y1="541.53" x2="73.12" y2="544.74"/><line class="cls-8" x1="73.12" y1="544.74" x2="70.83" y2="547.46"/><line class="cls-8" x1="70.83" y1="547.46" x2="68.05" y2="549.57"/><line class="cls-8" x1="68.05" y1="549.57" x2="64.9" y2="550.8"/><line class="cls-8" x1="64.9" y1="550.8" x2="61.5" y2="551.23"/><line class="cls-8" x1="61.5" y1="521.94" x2="64.71" y2="522.37"/><line class="cls-8" x1="64.71" y1="522.37" x2="67.68" y2="523.61"/><line class="cls-8" x1="67.68" y1="523.61" x2="70.34" y2="525.52"/><line class="cls-8" x1="70.34" y1="525.52" x2="72.44" y2="528.12"/><line class="cls-8" x1="72.44" y1="528.12" x2="73.92" y2="531.15"/><line class="cls-8" x1="73.92" y1="531.15" x2="74.73" y2="534.49"/><line class="cls-8" x1="74.73" y1="534.49" x2="74.73" y2="537.95"/><line class="cls-8" x1="74.73" y1="537.95" x2="73.92" y2="541.28"/><line class="cls-8" x1="73.92" y1="541.28" x2="72.44" y2="544.31"/><line class="cls-8" x1="72.44" y1="544.31" x2="70.34" y2="546.91"/><line class="cls-8" x1="70.34" y1="546.91" x2="67.68" y2="548.82"/><line class="cls-8" x1="67.68" y1="548.82" x2="64.71" y2="550.06"/><line class="cls-8" x1="64.71" y1="550.06" x2="61.5" y2="550.49"/><path class="cls-8" d="M31.24,579.15a137.59,137.59,0,0,0,0-29.26" transform="translate(0 -28.34)"/><path class="cls-8" d="M31.27,549.86a1.93,1.93,0,0,0-1.94-1.68" transform="translate(0 -28.34)"/><path class="cls-8" d="M29.33,580.87a1.92,1.92,0,0,0,1.94-1.69" transform="translate(0 -28.34)"/><path class="cls-8" d="M23.55,564.53A1.58,1.58,0,1,0,25.13,563a1.57,1.57,0,0,0-1.58,1.58" transform="translate(0 -28.34)"/><line class="cls-8" x1="22.32" y1="453.71" x2="22.32" y2="406.43"/><line class="cls-8" x1="69.6" y1="453.71" x2="22.32" y2="453.71"/><line class="cls-8" x1="69.6" y1="406.43" x2="69.6" y2="453.71"/><line class="cls-8" x1="22.32" y1="406.43" x2="69.6" y2="406.43"/><line class="cls-8" x1="26.58" y1="410.75" x2="65.27" y2="410.75"/><line class="cls-8" x1="65.27" y1="410.75" x2="65.27" y2="445.12"/><line class="cls-8" x1="65.27" y1="445.12" x2="26.58" y2="445.12"/><line class="cls-8" x1="26.58" y1="445.12" x2="26.58" y2="410.75"/><polyline class="cls-8" points="263.11 92.59 272.31 46.23 272.75 46.36 263.54 92.71 263.11 92.59"/><polyline class="cls-8" points="271.32 44.75 193.76 29.3 193.82 28.87 271.39 44.32 271.32 44.75"/><polyline class="cls-8" points="192.22 30.35 183.01 76.7 182.57 76.58 191.78 30.23 192.22 30.35"/><polyline class="cls-8" points="261.44 94.44 261.81 92.34 263.91 92.77 263.54 94.88 261.44 94.44"/><polyline class="cls-8" points="271.08 45.99 271.45 43.89 273.55 44.32 273.18 46.42 271.08 45.99"/><polyline class="cls-8" points="193.51 30.6 191.41 30.17 191.78 28.07 193.88 28.5 193.51 30.6"/><polyline class="cls-8" points="184.24 76.95 183.87 79.05 181.77 78.62 182.14 76.52 184.24 76.95"/><line class="cls-8" x1="261.62" y1="93.39" x2="271.08" y2="45.99"/><line class="cls-8" x1="273.55" y1="44.32" x2="263.72" y2="93.82"/><line class="cls-8" x1="271.08" y1="45.99" x2="193.51" y2="30.6"/><line class="cls-8" x1="191.78" y1="28.06" x2="273.55" y2="44.32"/><line class="cls-8" x1="193.51" y1="30.6" x2="184.06" y2="78"/><line class="cls-8" x1="181.96" y1="77.57" x2="191.78" y2="28.06"/><polyline class="cls-8" points="263.72 93.82 263.54 94.88 261.44 94.44 261.62 93.39"/><polyline class="cls-8" points="184.06 78 183.87 79.05 181.77 78.62 181.96 77.57"/><polyline class="cls-8" points="191.78 28.07 273.55 44.32 263.72 93.82 261.62 93.39 271.08 45.99 193.51 30.6 184.06 78 181.96 77.57 191.78 28.07"/><polyline class="cls-8" points="193.02 44.07 266.32 58.66 261 85.6 187.64 71.02 193.02 44.07"/><polyline class="cls-8" points="192.46 46.79 265.82 61.31 261 85.6 187.64 71.02 192.46 46.79"/><line class="cls-8" x1="293.02" y1="712.42" x2="293.02" y2="706.61"/><line class="cls-8" x1="293.02" y1="701.05" x2="293.02" y2="695.24"/><line class="cls-8" x1="0.81" y1="113.97" x2="4.02" y2="110.76"/><line class="cls-8" x1="0.81" y1="121.26" x2="11.32" y2="110.76"/><line class="cls-8" x1="0.81" y1="128.56" x2="17.99" y2="111.38"/><line class="cls-8" x1="0.81" y1="135.85" x2="17.99" y2="118.67"/><line class="cls-8" x1="0.81" y1="143.14" x2="17.99" y2="125.96"/><line class="cls-8" x1="0.81" y1="150.44" x2="17.99" y2="133.25"/><line class="cls-8" x1="0.81" y1="157.73" x2="17.99" y2="140.55"/><line class="cls-8" x1="0.81" y1="165.02" x2="17.99" y2="147.84"/><line class="cls-8" x1="0.81" y1="172.31" x2="17.99" y2="155.13"/><line class="cls-8" x1="0.81" y1="179.67" x2="17.99" y2="162.43"/><line class="cls-8" x1="0.81" y1="186.96" x2="17.99" y2="169.72"/><line class="cls-8" x1="0.81" y1="194.26" x2="17.99" y2="177.01"/><line class="cls-8" x1="5.63" y1="196.73" x2="17.99" y2="184.3"/><line class="cls-8" x1="12.92" y1="196.73" x2="17.99" y2="191.6"/><line class="cls-8" x1="0.93" y1="117.49" x2="3.65" y2="114.78"/><line class="cls-8" x1="4.58" y1="113.85" x2="4.58" y2="113.85"/><line class="cls-8" x1="5.51" y1="112.98" x2="7.67" y2="110.76"/><line class="cls-8" x1="0.81" y1="124.91" x2="2.79" y2="123"/><line class="cls-8" x1="3.65" y1="122.07" x2="3.65" y2="122.07"/><line class="cls-8" x1="4.58" y1="121.14" x2="7.3" y2="118.42"/><line class="cls-8" x1="8.23" y1="117.49" x2="8.23" y2="117.49"/><line class="cls-8" x1="9.15" y1="116.63" x2="11.87" y2="113.85"/><line class="cls-8" x1="12.8" y1="112.98" x2="12.8" y2="112.98"/><line class="cls-8" x1="13.73" y1="112.06" x2="14.96" y2="110.76"/><line class="cls-8" x1="0.81" y1="132.2" x2="1.86" y2="131.22"/><line class="cls-8" x1="2.79" y1="130.29" x2="2.79" y2="130.29"/><line class="cls-8" x1="3.65" y1="129.36" x2="6.43" y2="126.64"/><line class="cls-8" x1="7.3" y1="125.71" x2="7.3" y2="125.71"/><line class="cls-8" x1="8.23" y1="124.79" x2="10.94" y2="122.07"/><line class="cls-8" x1="11.87" y1="121.14" x2="11.87" y2="121.14"/><line class="cls-8" x1="12.8" y1="120.28" x2="15.52" y2="117.49"/><line class="cls-8" x1="16.45" y1="116.63" x2="16.45" y2="116.63"/><line class="cls-8" x1="17.37" y1="115.7" x2="17.99" y2="115.02"/><line class="cls-8" x1="0.81" y1="139.5" x2="0.93" y2="139.37"/><line class="cls-8" x1="1.86" y1="138.51" x2="1.86" y2="138.51"/><line class="cls-8" x1="2.79" y1="137.58" x2="5.51" y2="134.86"/><line class="cls-8" x1="6.43" y1="133.93" x2="6.43" y2="133.93"/><line class="cls-8" x1="7.3" y1="133.01" x2="10.08" y2="130.29"/><line class="cls-8" x1="10.94" y1="129.36" x2="10.94" y2="129.36"/><line class="cls-8" x1="11.87" y1="128.43" x2="14.59" y2="125.71"/><line class="cls-8" x1="15.52" y1="124.79" x2="15.52" y2="124.79"/><line class="cls-8" x1="16.45" y1="123.92" x2="17.99" y2="122.32"/><line class="cls-8" x1="0.93" y1="146.67" x2="0.93" y2="146.67"/><line class="cls-8" x1="1.86" y1="145.8" x2="4.58" y2="143.02"/><line class="cls-8" x1="5.51" y1="142.15" x2="5.51" y2="142.15"/><line class="cls-8" x1="6.43" y1="141.23" x2="9.15" y2="138.51"/><line class="cls-8" x1="10.08" y1="137.58" x2="10.08" y2="137.58"/><line class="cls-8" x1="10.94" y1="136.65" x2="13.73" y2="133.93"/><line class="cls-8" x1="14.59" y1="133.01" x2="14.59" y2="133.01"/><line class="cls-8" x1="15.52" y1="132.08" x2="17.99" y2="129.61"/><line class="cls-8" x1="0.93" y1="153.96" x2="3.65" y2="151.24"/><line class="cls-8" x1="4.58" y1="150.31" x2="4.58" y2="150.31"/><line class="cls-8" x1="5.51" y1="149.45" x2="8.23" y2="146.67"/><line class="cls-8" x1="9.15" y1="145.8" x2="9.15" y2="145.8"/><line class="cls-8" x1="10.08" y1="144.87" x2="12.8" y2="142.15"/><line class="cls-8" x1="13.73" y1="141.23" x2="13.73" y2="141.23"/><line class="cls-8" x1="14.59" y1="140.3" x2="17.37" y2="137.58"/><line class="cls-8" x1="0.81" y1="161.38" x2="2.79" y2="159.46"/><line class="cls-8" x1="3.65" y1="158.53" x2="3.65" y2="158.53"/><line class="cls-8" x1="4.58" y1="157.61" x2="7.3" y2="154.89"/><line class="cls-8" x1="8.23" y1="153.96" x2="8.23" y2="153.96"/><line class="cls-8" x1="9.15" y1="153.09" x2="11.87" y2="150.31"/><line class="cls-8" x1="12.8" y1="149.45" x2="12.8" y2="149.45"/><line class="cls-8" x1="13.73" y1="148.52" x2="16.45" y2="145.8"/><line class="cls-8" x1="17.37" y1="144.87" x2="17.37" y2="144.87"/><line class="cls-8" x1="0.81" y1="168.67" x2="1.86" y2="167.68"/><line class="cls-8" x1="2.79" y1="166.75" x2="2.79" y2="166.75"/><line class="cls-8" x1="3.65" y1="165.83" x2="6.43" y2="163.11"/><line class="cls-8" x1="7.3" y1="162.18" x2="7.3" y2="162.18"/><line class="cls-8" x1="8.23" y1="161.25" x2="10.94" y2="158.53"/><line class="cls-8" x1="11.87" y1="157.61" x2="11.87" y2="157.61"/><line class="cls-8" x1="12.8" y1="156.74" x2="15.52" y2="153.96"/><line class="cls-8" x1="16.45" y1="153.09" x2="16.45" y2="153.09"/><line class="cls-8" x1="17.37" y1="152.17" x2="17.99" y2="151.49"/><line class="cls-8" x1="0.81" y1="175.96" x2="0.93" y2="175.84"/><line class="cls-8" x1="1.86" y1="174.97" x2="1.86" y2="174.97"/><line class="cls-8" x1="2.79" y1="174.05" x2="5.51" y2="171.33"/><line class="cls-8" x1="6.43" y1="170.4" x2="6.43" y2="170.4"/><line class="cls-8" x1="7.3" y1="169.47" x2="10.08" y2="166.75"/><line class="cls-8" x1="10.94" y1="165.83" x2="10.94" y2="165.83"/><line class="cls-8" x1="11.87" y1="164.9" x2="14.59" y2="162.18"/><line class="cls-8" x1="15.52" y1="161.25" x2="15.52" y2="161.25"/><line class="cls-8" x1="16.45" y1="160.39" x2="17.99" y2="158.78"/><line class="cls-8" x1="0.93" y1="183.13" x2="0.93" y2="183.13"/><line class="cls-8" x1="1.86" y1="182.27" x2="4.58" y2="179.48"/><line class="cls-8" x1="5.51" y1="178.62" x2="5.51" y2="178.62"/><line class="cls-8" x1="6.43" y1="177.69" x2="9.15" y2="174.97"/><line class="cls-8" x1="10.08" y1="174.05" x2="10.08" y2="174.05"/><line class="cls-8" x1="10.94" y1="173.12" x2="13.73" y2="170.4"/><line class="cls-8" x1="14.59" y1="169.47" x2="14.59" y2="169.47"/><line class="cls-8" x1="15.52" y1="168.54" x2="17.99" y2="166.07"/><line class="cls-8" x1="0.93" y1="190.42" x2="3.65" y2="187.7"/><line class="cls-8" x1="4.58" y1="186.78" x2="4.58" y2="186.78"/><line class="cls-8" x1="5.51" y1="185.91" x2="8.23" y2="183.13"/><line class="cls-8" x1="9.15" y1="182.27" x2="9.15" y2="182.27"/><line class="cls-8" x1="10.08" y1="181.34" x2="12.8" y2="178.62"/><line class="cls-8" x1="13.73" y1="177.69" x2="13.73" y2="177.69"/><line class="cls-8" x1="14.59" y1="176.76" x2="17.37" y2="174.05"/><line class="cls-8" x1="1.98" y1="196.73" x2="2.79" y2="195.92"/><line class="cls-8" x1="3.65" y1="195" x2="3.65" y2="195"/><line class="cls-8" x1="4.58" y1="194.07" x2="7.3" y2="191.35"/><line class="cls-8" x1="8.23" y1="190.42" x2="8.23" y2="190.42"/><line class="cls-8" x1="9.15" y1="189.56" x2="11.87" y2="186.78"/><line class="cls-8" x1="12.8" y1="185.91" x2="12.8" y2="185.91"/><line class="cls-8" x1="13.73" y1="184.98" x2="16.45" y2="182.27"/><line class="cls-8" x1="17.37" y1="181.34" x2="17.37" y2="181.34"/><line class="cls-8" x1="9.28" y1="196.73" x2="10.94" y2="195"/><line class="cls-8" x1="11.87" y1="194.07" x2="11.87" y2="194.07"/><line class="cls-8" x1="12.8" y1="193.2" x2="15.52" y2="190.42"/><line class="cls-8" x1="16.45" y1="189.56" x2="16.45" y2="189.56"/><line class="cls-8" x1="17.37" y1="188.63" x2="17.99" y2="187.95"/><line class="cls-8" x1="16.57" y1="196.73" x2="17.99" y2="195.24"/><polyline class="cls-8" points="0.81 196.73 17.99 196.73 17.99 110.76 0.81 110.76 0.81 196.73"/><line class="cls-8" x1="0.81" y1="398.46" x2="4.83" y2="394.38"/><line class="cls-8" x1="0.81" y1="405.75" x2="12.12" y2="394.38"/><line class="cls-8" x1="0.81" y1="413.04" x2="17.99" y2="395.86"/><line class="cls-8" x1="0.81" y1="420.33" x2="17.99" y2="403.15"/><line class="cls-8" x1="0.81" y1="427.63" x2="17.99" y2="410.45"/><line class="cls-8" x1="0.81" y1="434.92" x2="17.99" y2="417.74"/><line class="cls-8" x1="0.81" y1="442.21" x2="17.99" y2="425.03"/><line class="cls-8" x1="0.81" y1="449.51" x2="17.99" y2="432.32"/><line class="cls-8" x1="0.81" y1="456.8" x2="17.99" y2="439.62"/><line class="cls-8" x1="0.81" y1="464.09" x2="17.99" y2="446.91"/><line class="cls-8" x1="0.81" y1="471.38" x2="17.99" y2="454.2"/><line class="cls-8" x1="0.81" y1="478.68" x2="17.99" y2="461.5"/><line class="cls-8" x1="6.43" y1="480.35" x2="17.99" y2="468.79"/><line class="cls-8" x1="13.73" y1="480.35" x2="17.99" y2="476.08"/><line class="cls-8" x1="0.81" y1="394.81" x2="0.93" y2="394.69"/><line class="cls-8" x1="0.93" y1="401.98" x2="0.93" y2="401.98"/><line class="cls-8" x1="1.86" y1="401.05" x2="4.58" y2="398.33"/><line class="cls-8" x1="5.51" y1="397.4" x2="5.51" y2="397.4"/><line class="cls-8" x1="6.43" y1="396.48" x2="8.47" y2="394.38"/><line class="cls-8" x1="0.93" y1="409.27" x2="3.65" y2="406.49"/><line class="cls-8" x1="4.58" y1="405.62" x2="4.58" y2="405.62"/><line class="cls-8" x1="5.51" y1="404.7" x2="8.23" y2="401.98"/><line class="cls-8" x1="9.15" y1="401.05" x2="9.15" y2="401.05"/><line class="cls-8" x1="10.08" y1="400.12" x2="12.8" y2="397.4"/><line class="cls-8" x1="13.73" y1="396.48" x2="13.73" y2="396.48"/><line class="cls-8" x1="14.59" y1="395.55" x2="15.77" y2="394.38"/><line class="cls-8" x1="0.81" y1="416.69" x2="2.79" y2="414.71"/><line class="cls-8" x1="3.65" y1="413.78" x2="3.65" y2="413.78"/><line class="cls-8" x1="4.58" y1="412.92" x2="7.3" y2="410.14"/><line class="cls-8" x1="8.23" y1="409.27" x2="8.23" y2="409.27"/><line class="cls-8" x1="9.15" y1="408.34" x2="11.87" y2="405.62"/><line class="cls-8" x1="12.8" y1="404.7" x2="12.8" y2="404.7"/><line class="cls-8" x1="13.73" y1="403.77" x2="16.45" y2="401.05"/><line class="cls-8" x1="17.37" y1="400.12" x2="17.37" y2="400.12"/><line class="cls-8" x1="0.81" y1="423.98" x2="1.86" y2="422.93"/><line class="cls-8" x1="2.79" y1="422" x2="2.79" y2="422"/><line class="cls-8" x1="3.65" y1="421.08" x2="6.43" y2="418.36"/><line class="cls-8" x1="7.3" y1="417.43" x2="7.3" y2="417.43"/><line class="cls-8" x1="8.23" y1="416.56" x2="10.94" y2="413.78"/><line class="cls-8" x1="11.87" y1="412.92" x2="11.87" y2="412.92"/><line class="cls-8" x1="12.8" y1="411.99" x2="15.52" y2="409.27"/><line class="cls-8" x1="16.45" y1="408.34" x2="16.45" y2="408.34"/><line class="cls-8" x1="17.37" y1="407.42" x2="17.99" y2="406.8"/><line class="cls-8" x1="0.81" y1="431.27" x2="0.93" y2="431.15"/><line class="cls-8" x1="1.86" y1="430.22" x2="1.86" y2="430.22"/><line class="cls-8" x1="2.79" y1="429.3" x2="5.51" y2="426.58"/><line class="cls-8" x1="6.43" y1="425.65" x2="6.43" y2="425.65"/><line class="cls-8" x1="7.3" y1="424.72" x2="10.08" y2="422"/><line class="cls-8" x1="10.94" y1="421.08" x2="10.94" y2="421.08"/><line class="cls-8" x1="11.87" y1="420.21" x2="14.59" y2="417.43"/><line class="cls-8" x1="15.52" y1="416.56" x2="15.52" y2="416.56"/><line class="cls-8" x1="16.45" y1="415.64" x2="17.99" y2="414.09"/><line class="cls-8" x1="0.93" y1="438.44" x2="0.93" y2="438.44"/><line class="cls-8" x1="1.86" y1="437.52" x2="4.58" y2="434.8"/><line class="cls-8" x1="5.51" y1="433.87" x2="5.51" y2="433.87"/><line class="cls-8" x1="6.43" y1="432.94" x2="9.15" y2="430.22"/><line class="cls-8" x1="10.08" y1="429.3" x2="10.08" y2="429.3"/><line class="cls-8" x1="10.94" y1="428.37" x2="13.73" y2="425.65"/><line class="cls-8" x1="14.59" y1="424.72" x2="14.59" y2="424.72"/><line class="cls-8" x1="15.52" y1="423.86" x2="17.99" y2="421.38"/><line class="cls-8" x1="0.93" y1="445.74" x2="3.65" y2="442.95"/><line class="cls-8" x1="4.58" y1="442.09" x2="4.58" y2="442.09"/><line class="cls-8" x1="5.51" y1="441.16" x2="8.23" y2="438.44"/><line class="cls-8" x1="9.15" y1="437.52" x2="9.15" y2="437.52"/><line class="cls-8" x1="10.08" y1="436.59" x2="12.8" y2="433.87"/><line class="cls-8" x1="13.73" y1="432.94" x2="13.73" y2="432.94"/><line class="cls-8" x1="14.59" y1="432.01" x2="17.37" y2="429.3"/><line class="cls-8" x1="0.81" y1="453.15" x2="2.79" y2="451.17"/><line class="cls-8" x1="3.65" y1="450.25" x2="3.65" y2="450.25"/><line class="cls-8" x1="4.58" y1="449.38" x2="7.3" y2="446.6"/><line class="cls-8" x1="8.23" y1="445.74" x2="8.23" y2="445.74"/><line class="cls-8" x1="9.15" y1="444.81" x2="11.87" y2="442.09"/><line class="cls-8" x1="12.8" y1="441.16" x2="12.8" y2="441.16"/><line class="cls-8" x1="13.73" y1="440.23" x2="16.45" y2="437.52"/><line class="cls-8" x1="17.37" y1="436.59" x2="17.37" y2="436.59"/><line class="cls-8" x1="0.81" y1="460.44" x2="1.86" y2="459.39"/><line class="cls-8" x1="2.79" y1="458.47" x2="2.79" y2="458.47"/><line class="cls-8" x1="3.65" y1="457.54" x2="6.43" y2="454.82"/><line class="cls-8" x1="7.3" y1="453.89" x2="7.3" y2="453.89"/><line class="cls-8" x1="8.23" y1="453.03" x2="10.94" y2="450.25"/><line class="cls-8" x1="11.87" y1="449.38" x2="11.87" y2="449.38"/><line class="cls-8" x1="12.8" y1="448.45" x2="15.52" y2="445.74"/><line class="cls-8" x1="16.45" y1="444.81" x2="16.45" y2="444.81"/><line class="cls-8" x1="17.37" y1="443.88" x2="17.99" y2="443.26"/><line class="cls-8" x1="0.81" y1="467.74" x2="0.93" y2="467.61"/><line class="cls-8" x1="1.86" y1="466.69" x2="1.86" y2="466.69"/><line class="cls-8" x1="2.79" y1="465.76" x2="5.51" y2="463.04"/><line class="cls-8" x1="6.43" y1="462.11" x2="6.43" y2="462.11"/><line class="cls-8" x1="7.3" y1="461.19" x2="10.08" y2="458.47"/><line class="cls-8" x1="10.94" y1="457.54" x2="10.94" y2="457.54"/><line class="cls-8" x1="11.87" y1="456.67" x2="14.59" y2="453.89"/><line class="cls-8" x1="15.52" y1="453.03" x2="15.52" y2="453.03"/><line class="cls-8" x1="16.45" y1="452.1" x2="17.99" y2="450.56"/><line class="cls-8" x1="0.93" y1="474.91" x2="0.93" y2="474.91"/><line class="cls-8" x1="1.86" y1="473.98" x2="4.58" y2="471.26"/><line class="cls-8" x1="5.51" y1="470.33" x2="5.51" y2="470.33"/><line class="cls-8" x1="6.43" y1="469.41" x2="9.15" y2="466.69"/><line class="cls-8" x1="10.08" y1="465.76" x2="10.08" y2="465.76"/><line class="cls-8" x1="10.94" y1="464.83" x2="13.73" y2="462.11"/><line class="cls-8" x1="14.59" y1="461.19" x2="14.59" y2="461.19"/><line class="cls-8" x1="15.52" y1="460.32" x2="17.99" y2="457.85"/><line class="cls-8" x1="2.79" y1="480.35" x2="3.65" y2="479.42"/><line class="cls-8" x1="4.58" y1="478.55" x2="4.58" y2="478.55"/><line class="cls-8" x1="5.51" y1="477.63" x2="8.23" y2="474.91"/><line class="cls-8" x1="9.15" y1="473.98" x2="9.15" y2="473.98"/><line class="cls-8" x1="10.08" y1="473.05" x2="12.8" y2="470.33"/><line class="cls-8" x1="13.73" y1="469.41" x2="13.73" y2="469.41"/><line class="cls-8" x1="14.59" y1="468.48" x2="17.37" y2="465.76"/><line class="cls-8" x1="10.08" y1="480.35" x2="11.87" y2="478.55"/><line class="cls-8" x1="12.8" y1="477.63" x2="12.8" y2="477.63"/><line class="cls-8" x1="13.73" y1="476.7" x2="16.45" y2="473.98"/><line class="cls-8" x1="17.37" y1="473.05" x2="17.37" y2="473.05"/><line class="cls-8" x1="17.37" y1="480.35" x2="17.99" y2="479.73"/><polyline class="cls-8" points="17.99 394.38 0.81 394.38 0.81 480.35 17.99 480.35 17.99 394.38"/><line class="cls-8" x1="275.84" y1="116.07" x2="281.21" y2="110.76"/><line class="cls-8" x1="275.84" y1="123.37" x2="288.51" y2="110.76"/><line class="cls-8" x1="275.84" y1="130.66" x2="293.02" y2="113.48"/><line class="cls-8" x1="275.84" y1="137.95" x2="293.02" y2="120.77"/><line class="cls-8" x1="275.84" y1="145.24" x2="293.02" y2="128.06"/><line class="cls-8" x1="275.84" y1="152.54" x2="293.02" y2="135.36"/><line class="cls-8" x1="275.84" y1="159.83" x2="293.02" y2="142.65"/><line class="cls-8" x1="275.84" y1="167.12" x2="293.02" y2="149.94"/><line class="cls-8" x1="275.84" y1="174.42" x2="293.02" y2="157.23"/><line class="cls-8" x1="275.84" y1="181.71" x2="293.02" y2="164.53"/><line class="cls-8" x1="275.84" y1="189" x2="293.02" y2="171.82"/><line class="cls-8" x1="275.84" y1="196.29" x2="293.02" y2="179.11"/><line class="cls-8" x1="282.76" y1="196.73" x2="293.02" y2="186.41"/><line class="cls-8" x1="290.05" y1="196.73" x2="293.02" y2="193.7"/><line class="cls-8" x1="276.27" y1="112.06" x2="276.27" y2="112.06"/><line class="cls-8" x1="277.2" y1="111.13" x2="277.57" y2="110.76"/><line class="cls-8" x1="276.27" y1="119.35" x2="278.99" y2="116.63"/><line class="cls-8" x1="279.92" y1="115.7" x2="279.92" y2="115.7"/><line class="cls-8" x1="280.84" y1="114.78" x2="283.56" y2="112.06"/><line class="cls-8" x1="284.49" y1="111.13" x2="284.49" y2="111.13"/><line class="cls-8" x1="275.84" y1="127.01" x2="278.06" y2="124.79"/><line class="cls-8" x1="278.99" y1="123.92" x2="278.99" y2="123.92"/><line class="cls-8" x1="279.92" y1="123" x2="282.63" y2="120.28"/><line class="cls-8" x1="283.56" y1="119.35" x2="283.56" y2="119.35"/><line class="cls-8" x1="284.49" y1="118.42" x2="287.21" y2="115.7"/><line class="cls-8" x1="288.14" y1="114.78" x2="288.14" y2="114.78"/><line class="cls-8" x1="289" y1="113.85" x2="291.78" y2="111.13"/><line class="cls-8" x1="275.84" y1="134.31" x2="277.2" y2="133.01"/><line class="cls-8" x1="278.06" y1="132.08" x2="278.06" y2="132.08"/><line class="cls-8" x1="278.99" y1="131.22" x2="281.71" y2="128.43"/><line class="cls-8" x1="282.63" y1="127.57" x2="282.63" y2="127.57"/><line class="cls-8" x1="283.56" y1="126.64" x2="286.28" y2="123.92"/><line class="cls-8" x1="287.21" y1="123" x2="287.21" y2="123"/><line class="cls-8" x1="288.14" y1="122.07" x2="290.85" y2="119.35"/><line class="cls-8" x1="291.78" y1="118.42" x2="291.78" y2="118.42"/><line class="cls-8" x1="292.65" y1="117.49" x2="293.02" y2="117.12"/><line class="cls-8" x1="275.84" y1="141.6" x2="276.27" y2="141.23"/><line class="cls-8" x1="277.2" y1="140.3" x2="277.2" y2="140.3"/><line class="cls-8" x1="278.06" y1="139.37" x2="280.84" y2="136.65"/><line class="cls-8" x1="281.71" y1="135.73" x2="281.71" y2="135.73"/><line class="cls-8" x1="282.63" y1="134.86" x2="285.35" y2="132.08"/><line class="cls-8" x1="286.28" y1="131.22" x2="286.28" y2="131.22"/><line class="cls-8" x1="287.21" y1="130.29" x2="289.93" y2="127.57"/><line class="cls-8" x1="290.85" y1="126.64" x2="290.85" y2="126.64"/><line class="cls-8" x1="291.78" y1="125.71" x2="293.02" y2="124.42"/><line class="cls-8" x1="276.27" y1="148.52" x2="276.27" y2="148.52"/><line class="cls-8" x1="277.2" y1="147.59" x2="279.92" y2="144.87"/><line class="cls-8" x1="280.84" y1="143.95" x2="280.84" y2="143.95"/><line class="cls-8" x1="281.71" y1="143.02" x2="284.49" y2="140.3"/><line class="cls-8" x1="285.35" y1="139.37" x2="285.35" y2="139.37"/><line class="cls-8" x1="286.28" y1="138.51" x2="289" y2="135.73"/><line class="cls-8" x1="289.93" y1="134.86" x2="289.93" y2="134.86"/><line class="cls-8" x1="290.85" y1="133.93" x2="293.02" y2="131.71"/><line class="cls-8" x1="276.27" y1="155.81" x2="278.99" y2="153.09"/><line class="cls-8" x1="279.92" y1="152.17" x2="279.92" y2="152.17"/><line class="cls-8" x1="280.84" y1="151.24" x2="283.56" y2="148.52"/><line class="cls-8" x1="284.49" y1="147.59" x2="284.49" y2="147.59"/><line class="cls-8" x1="285.35" y1="146.67" x2="288.14" y2="143.95"/><line class="cls-8" x1="289" y1="143.02" x2="289" y2="143.02"/><line class="cls-8" x1="289.93" y1="142.15" x2="292.65" y2="139.37"/><line class="cls-8" x1="275.84" y1="163.48" x2="278.06" y2="161.25"/><line class="cls-8" x1="278.99" y1="160.39" x2="278.99" y2="160.39"/><line class="cls-8" x1="279.92" y1="159.46" x2="282.63" y2="156.74"/><line class="cls-8" x1="283.56" y1="155.81" x2="283.56" y2="155.81"/><line class="cls-8" x1="284.49" y1="154.89" x2="287.21" y2="152.17"/><line class="cls-8" x1="288.14" y1="151.24" x2="288.14" y2="151.24"/><line class="cls-8" x1="289" y1="150.31" x2="291.78" y2="147.59"/><line class="cls-8" x1="292.65" y1="146.67" x2="292.65" y2="146.67"/><line class="cls-8" x1="275.84" y1="170.77" x2="277.2" y2="169.47"/><line class="cls-8" x1="278.06" y1="168.54" x2="278.06" y2="168.54"/><line class="cls-8" x1="278.99" y1="167.68" x2="281.71" y2="164.9"/><line class="cls-8" x1="282.63" y1="164.03" x2="282.63" y2="164.03"/><line class="cls-8" x1="283.56" y1="163.11" x2="286.28" y2="160.39"/><line class="cls-8" x1="287.21" y1="159.46" x2="287.21" y2="159.46"/><line class="cls-8" x1="288.14" y1="158.53" x2="290.85" y2="155.81"/><line class="cls-8" x1="291.78" y1="154.89" x2="291.78" y2="154.89"/><line class="cls-8" x1="292.65" y1="153.96" x2="293.02" y2="153.59"/><line class="cls-8" x1="275.84" y1="178.06" x2="276.27" y2="177.69"/><line class="cls-8" x1="277.2" y1="176.76" x2="277.2" y2="176.76"/><line class="cls-8" x1="278.06" y1="175.84" x2="280.84" y2="173.12"/><line class="cls-8" x1="281.71" y1="172.19" x2="281.71" y2="172.19"/><line class="cls-8" x1="282.63" y1="171.33" x2="285.35" y2="168.54"/><line class="cls-8" x1="286.28" y1="167.68" x2="286.28" y2="167.68"/><line class="cls-8" x1="287.21" y1="166.75" x2="289.93" y2="164.03"/><line class="cls-8" x1="290.85" y1="163.11" x2="290.85" y2="163.11"/><line class="cls-8" x1="291.78" y1="162.18" x2="293.02" y2="160.88"/><line class="cls-8" x1="276.27" y1="184.98" x2="276.27" y2="184.98"/><line class="cls-8" x1="277.2" y1="184.06" x2="279.92" y2="181.34"/><line class="cls-8" x1="280.84" y1="180.41" x2="280.84" y2="180.41"/><line class="cls-8" x1="281.71" y1="179.48" x2="284.49" y2="176.76"/><line class="cls-8" x1="285.35" y1="175.84" x2="285.35" y2="175.84"/><line class="cls-8" x1="286.28" y1="174.97" x2="289" y2="172.19"/><line class="cls-8" x1="289.93" y1="171.33" x2="289.93" y2="171.33"/><line class="cls-8" x1="290.85" y1="170.4" x2="293.02" y2="168.17"/><line class="cls-8" x1="276.27" y1="192.28" x2="278.99" y2="189.56"/><line class="cls-8" x1="279.92" y1="188.63" x2="279.92" y2="188.63"/><line class="cls-8" x1="280.84" y1="187.7" x2="283.56" y2="184.98"/><line class="cls-8" x1="284.49" y1="184.06" x2="284.49" y2="184.06"/><line class="cls-8" x1="285.35" y1="183.13" x2="288.14" y2="180.41"/><line class="cls-8" x1="289" y1="179.48" x2="289" y2="179.48"/><line class="cls-8" x1="289.93" y1="178.62" x2="292.65" y2="175.84"/><line class="cls-8" x1="279.92" y1="195.92" x2="282.63" y2="193.2"/><line class="cls-8" x1="283.56" y1="192.28" x2="283.56" y2="192.28"/><line class="cls-8" x1="284.49" y1="191.35" x2="287.21" y2="188.63"/><line class="cls-8" x1="288.14" y1="187.7" x2="288.14" y2="187.7"/><line class="cls-8" x1="289" y1="186.78" x2="291.78" y2="184.06"/><line class="cls-8" x1="292.65" y1="183.13" x2="292.65" y2="183.13"/><line class="cls-8" x1="287.21" y1="195.92" x2="287.21" y2="195.92"/><line class="cls-8" x1="288.14" y1="195" x2="290.85" y2="192.28"/><line class="cls-8" x1="291.78" y1="191.35" x2="291.78" y2="191.35"/><line class="cls-8" x1="292.65" y1="190.42" x2="293.02" y2="190.05"/><polyline class="cls-8" points="275.84 196.73 293.02 196.73 293.02 110.76 275.84 110.76 275.84 196.73"/></svg>