<svg id="_258" data-name="258" xmlns="http://www.w3.org/2000/svg" viewBox="0 0 536.1 555.17"><defs><style>.cls-1,.cls-6{fill:none;}.cls-1{stroke:#969595;}.cls-1,.cls-6,.cls-8{stroke-linecap:round;stroke-linejoin:round;stroke-width:0.5px;}.cls-2{isolation:isolate;font-size:12px;fill:#969595;}.cls-2,.cls-4,.cls-5{font-family:PTSans-Regular, PT Sans;}.cls-3{letter-spacing:-0.01em;}.cls-4{font-size:20px;}.cls-5{font-size:24px;}.cls-6,.cls-8{stroke:#000;}.cls-7{fill-rule:evenodd;}</style></defs><title>10floor_258flat</title><line class="cls-1" x1="2" y1="295.7" x2="10.8" y2="295.7"/><polyline class="cls-1" points="5.29 292.3 1.79 295.8 5.29 299.3"/><text class="cls-2" transform="translate(10.2 286.41) rotate(-90)"><tspan class="cls-3">у</tspan><tspan x="5.42" y="0">лица</tspan></text><text class="cls-4" transform="translate(79.84 464.1)">1.58</text><text class="cls-4" transform="translate(373.71 488.01)">1.71</text><text class="cls-4" transform="translate(454.03 495.21)">3.59</text><text class="cls-4" transform="translate(153.34 284.91)">19.15</text><text class="cls-4" transform="translate(153.34 101.4)">15.74</text><text class="cls-4" transform="translate(153.34 464.1)">11.53</text><text class="cls-4" transform="translate(466.12 223.21)">9.93</text><text class="cls-5" transform="translate(255.24 284.54)">2К</text><text class="cls-5" transform="translate(240.37 317.55)">63.23</text><text class="cls-5" transform="translate(237.2 252.02)">№258</text><polyline class="cls-6" points="228.6 325.9 228.6 228.78 309.6 228.78 309.6 325.9"/><line class="cls-6" x1="228.6" y1="261.21" x2="309.6" y2="261.21"/><line class="cls-6" x1="228.6" y1="325.9" x2="309.6" y2="325.9"/><line class="cls-6" x1="228.6" y1="293.65" x2="309.6" y2="293.65"/><polyline class="cls-7" points="194.94 186.96 194.94 182.62 446.56 182.62 442.23 186.96 194.94 186.96"/><line class="cls-6" x1="194.95" y1="186.95" x2="442.23" y2="186.95"/><line class="cls-6" x1="446.57" y1="182.63" x2="435.76" y2="182.63"/><line class="cls-6" x1="431.43" y1="182.63" x2="194.94" y2="182.63"/><line class="cls-6" x1="194.95" y1="186.95" x2="194.95" y2="182.62"/><polyline class="cls-7" points="194.94 381.78 194.94 377.44 442.23 377.44 446.56 381.78 194.94 381.78"/><line class="cls-6" x1="194.95" y1="381.78" x2="371.88" y2="381.78"/><line class="cls-6" x1="376.22" y1="381.78" x2="446.57" y2="381.78"/><line class="cls-6" x1="442.23" y1="377.45" x2="194.94" y2="377.45"/><line class="cls-6" x1="194.95" y1="381.78" x2="194.95" y2="377.45"/><polyline class="cls-7" points="442.23 186.96 446.56 182.62 446.56 284.37 442.23 284.37 442.23 186.96"/><polyline class="cls-7" points="442.23 377.44 442.23 333.07 446.56 333.07 446.56 381.78 442.23 377.44"/><line class="cls-6" x1="446.57" y1="333.07" x2="442.23" y2="333.07"/><line class="cls-6" x1="446.57" y1="284.36" x2="442.23" y2="284.36"/><line class="cls-6" x1="442.23" y1="186.95" x2="442.23" y2="284.37"/><line class="cls-6" x1="442.23" y1="333.07" x2="442.23" y2="377.45"/><line class="cls-6" x1="446.57" y1="381.78" x2="446.57" y2="333.07"/><line class="cls-6" x1="446.57" y1="284.36" x2="446.57" y2="182.64"/><path class="cls-6" d="M426.2,360.25a44.36,44.36,0,0,1,44.37-44.37" transform="translate(-28.34 -29.35)"/><polyline class="cls-7" points="446.56 284.36 446.56 286.53 442.23 286.53 442.23 284.36 446.56 284.36"/><polyline class="cls-7" points="442.23 333.07 442.23 330.9 446.56 330.9 446.56 333.07 442.23 333.07"/><line class="cls-6" x1="446.57" y1="284.36" x2="446.57" y2="286.53"/><line class="cls-6" x1="446.57" y1="286.53" x2="442.23" y2="286.53"/><line class="cls-6" x1="442.23" y1="286.53" x2="442.23" y2="284.36"/><line class="cls-6" x1="442.23" y1="284.36" x2="446.57" y2="284.36"/><line class="cls-6" x1="442.23" y1="333.07" x2="442.23" y2="330.9"/><line class="cls-6" x1="442.23" y1="330.9" x2="446.57" y2="330.9"/><line class="cls-6" x1="446.57" y1="330.9" x2="446.57" y2="333.07"/><line class="cls-6" x1="446.57" y1="333.07" x2="442.23" y2="333.07"/><line class="cls-6" x1="442.23" y1="330.9" x2="397.86" y2="330.9"/><line class="cls-6" x1="446.57" y1="284.36" x2="442.23" y2="284.36"/><line class="cls-6" x1="446.57" y1="284.36" x2="442.23" y2="284.36"/><line class="cls-6" x1="446.57" y1="333.07" x2="442.23" y2="333.07"/><line class="cls-6" x1="446.57" y1="333.07" x2="442.23" y2="333.07"/><polyline class="cls-7" points="431.43 122.01 435.76 122.01 435.76 124.71 431.43 124.71 431.43 122.01"/><polyline class="cls-7" points="431.43 182.63 431.43 173.43 435.76 173.43 435.76 182.63 431.43 182.63"/><line class="cls-6" x1="431.43" y1="173.42" x2="435.76" y2="173.42"/><line class="cls-6" x1="431.43" y1="124.72" x2="435.76" y2="124.72"/><line class="cls-6" x1="431.43" y1="122.01" x2="431.43" y2="124.71"/><line class="cls-6" x1="431.43" y1="173.42" x2="431.43" y2="182.62"/><line class="cls-6" x1="435.76" y1="182.63" x2="435.76" y2="173.43"/><line class="cls-6" x1="435.76" y1="124.72" x2="435.76" y2="122.01"/><line class="cls-6" x1="431.43" y1="122.01" x2="435.76" y2="122.01"/><path class="cls-6" d="M415.39,200.6a44.37,44.37,0,0,1,44.38-44.37" transform="translate(-28.34 -29.35)"/><polyline class="cls-7" points="435.76 124.72 435.76 126.88 431.43 126.88 431.43 124.72 435.76 124.72"/><polyline class="cls-7" points="431.43 173.42 431.43 171.25 435.76 171.25 435.76 173.42 431.43 173.42"/><line class="cls-6" x1="435.76" y1="124.72" x2="435.76" y2="126.88"/><line class="cls-6" x1="435.76" y1="126.88" x2="431.43" y2="126.88"/><line class="cls-6" x1="431.43" y1="126.88" x2="431.43" y2="124.72"/><line class="cls-6" x1="431.43" y1="124.72" x2="435.76" y2="124.72"/><line class="cls-6" x1="431.43" y1="173.42" x2="431.43" y2="171.25"/><line class="cls-6" x1="431.43" y1="171.26" x2="435.76" y2="171.26"/><line class="cls-6" x1="435.76" y1="171.26" x2="435.76" y2="173.42"/><line class="cls-6" x1="435.76" y1="173.42" x2="431.43" y2="173.42"/><line class="cls-6" x1="431.43" y1="171.26" x2="387.05" y2="171.26"/><line class="cls-6" x1="431.43" y1="124.72" x2="435.76" y2="124.72"/><line class="cls-6" x1="431.43" y1="124.72" x2="435.76" y2="124.72"/><line class="cls-6" x1="431.43" y1="173.42" x2="435.76" y2="173.42"/><line class="cls-6" x1="431.43" y1="173.42" x2="435.76" y2="173.42"/><line class="cls-6" x1="405.99" y1="0.26" x2="401.66" y2="0.26"/><polyline class="cls-7" points="371.88 381.78 376.22 381.78 376.22 386.08 371.88 386.08 371.88 381.78"/><polyline class="cls-7" points="371.88 435.89 371.88 429.39 376.22 429.39 376.22 435.89 371.88 435.89"/><line class="cls-6" x1="376.22" y1="386.08" x2="371.88" y2="386.08"/><line class="cls-6" x1="376.22" y1="429.39" x2="371.88" y2="429.39"/><line class="cls-6" x1="371.88" y1="381.78" x2="371.88" y2="386.08"/><line class="cls-6" x1="371.88" y1="429.39" x2="371.88" y2="435.89"/><line class="cls-6" x1="376.22" y1="435.89" x2="371.88" y2="435.89"/><line class="cls-6" x1="376.22" y1="435.89" x2="376.22" y2="429.39"/><line class="cls-6" x1="376.22" y1="386.08" x2="376.22" y2="381.78"/><path class="cls-6" d="M400.22,456.57a39,39,0,0,1-38.94-39" transform="translate(-28.34 -29.35)"/><polyline class="cls-7" points="376.22 429.39 371.88 429.39 371.88 427.22 376.22 427.22 376.22 429.39"/><polyline class="cls-7" points="371.88 386.08 376.22 386.08 376.22 388.25 371.88 388.25 371.88 386.08"/><line class="cls-6" x1="376.22" y1="429.39" x2="376.22" y2="427.22"/><line class="cls-6" x1="376.22" y1="427.22" x2="371.88" y2="427.22"/><line class="cls-6" x1="371.88" y1="427.22" x2="371.88" y2="429.39"/><line class="cls-6" x1="371.88" y1="429.39" x2="376.22" y2="429.39"/><line class="cls-6" x1="371.88" y1="386.08" x2="371.88" y2="388.25"/><line class="cls-6" x1="371.88" y1="388.25" x2="376.22" y2="388.25"/><line class="cls-6" x1="376.22" y1="388.25" x2="376.22" y2="386.08"/><line class="cls-6" x1="376.22" y1="386.08" x2="371.88" y2="386.08"/><line class="cls-6" x1="371.88" y1="388.25" x2="332.94" y2="388.25"/><line class="cls-6" x1="376.22" y1="429.39" x2="371.88" y2="429.39"/><line class="cls-6" x1="376.22" y1="429.39" x2="371.88" y2="429.39"/><line class="cls-6" x1="376.22" y1="386.08" x2="371.88" y2="386.08"/><line class="cls-6" x1="376.22" y1="386.08" x2="371.88" y2="386.08"/><line class="cls-6" x1="470.93" y1="111.19" x2="477.41" y2="111.19"/><polyline class="cls-7" points="127.3 546.28 125.67 546.28 125.67 544.11 127.3 544.11 127.3 546.28"/><polyline class="cls-7" points="127.3 552.75 125.67 552.75 125.67 546.28 127.3 546.28 127.3 552.75"/><polyline class="cls-7" points="125.67 552.75 127.3 552.75 127.3 554.92 125.67 554.92 125.67 552.75"/><polyline class="cls-7" points="127.3 544.11 135.43 544.11 135.43 554.92 127.3 554.92 127.3 544.11"/><line class="cls-6" x1="135.43" y1="554.92" x2="135.43" y2="544.11"/><line class="cls-6" x1="125.67" y1="544.11" x2="125.67" y2="546.28"/><line class="cls-6" x1="125.67" y1="552.75" x2="125.67" y2="554.92"/><polyline class="cls-7" points="127.3 546.28 125.67 546.28 125.67 544.11 127.3 544.11 127.3 546.28"/><polyline class="cls-7" points="127.3 552.75 125.67 552.75 125.67 546.28 127.3 546.28 127.3 552.75"/><polyline class="cls-7" points="125.67 552.75 127.3 552.75 127.3 554.92 125.67 554.92 125.67 552.75"/><polyline class="cls-7" points="127.3 544.11 135.43 544.11 135.43 554.92 127.3 554.92 127.3 544.11"/><line class="cls-6" x1="135.43" y1="554.92" x2="135.43" y2="544.11"/><line class="cls-6" x1="125.67" y1="544.11" x2="125.67" y2="546.28"/><line class="cls-6" x1="125.67" y1="552.75" x2="125.67" y2="554.92"/><polyline class="cls-7" points="127.3 186.96 135.43 186.96 135.43 195.06 127.3 195.06 127.3 186.96"/><polyline class="cls-7" points="127.3 360.11 127.3 314.13 135.43 314.13 135.43 360.11 127.3 360.11"/><polyline class="cls-7" points="146.24 186.96 146.24 203.19 135.43 203.19 135.43 186.96 146.24 186.96"/><polyline class="cls-7" points="135.43 306 146.24 306 146.24 360.11 135.43 360.11 135.43 306"/><polyline class="cls-7" points="127.3 314.13 127.3 306 135.43 306 135.43 314.13 127.3 314.13"/><polyline class="cls-7" points="127.3 195.07 135.43 195.07 135.43 203.18 127.3 203.18 127.3 195.07"/><line class="cls-6" x1="135.43" y1="203.19" x2="127.3" y2="203.19"/><line class="cls-6" x1="135.43" y1="306" x2="127.3" y2="306"/><line class="cls-6" x1="127.3" y1="195.07" x2="127.3" y2="203.18"/><line class="cls-6" x1="127.3" y1="314.13" x2="127.3" y2="306"/><line class="cls-6" x1="138.13" y1="203.19" x2="146.24" y2="203.19"/><line class="cls-6" x1="135.43" y1="203.19" x2="138.13" y2="203.19"/><line class="cls-6" x1="138.13" y1="306" x2="146.24" y2="306"/><line class="cls-6" x1="135.43" y1="306" x2="138.13" y2="306"/><line class="cls-6" x1="146.24" y1="360.11" x2="146.24" y2="306"/><line class="cls-6" x1="146.24" y1="203.19" x2="146.24" y2="186.95"/><line class="cls-6" x1="135.43" y1="186.95" x2="146.24" y2="186.95"/><line class="cls-6" x1="127.3" y1="186.95" x2="127.3" y2="195.06"/><line class="cls-6" x1="127.3" y1="314.13" x2="127.3" y2="360.11"/><line class="cls-6" x1="127.3" y1="306" x2="127.3" y2="203.18"/><line class="cls-6" x1="146.24" y1="306" x2="146.24" y2="203.18"/><polyline class="cls-7" points="138.13 306 135.43 306 135.43 300.6 138.13 300.6 138.13 306"/><polyline class="cls-7" points="135.43 254.59 138.13 254.59 138.13 258.39 135.43 258.39 135.43 254.59"/><polyline class="cls-7" points="138.13 254.59 135.43 254.59 135.43 250.82 138.13 250.82 138.13 254.59"/><polyline class="cls-7" points="135.43 203.19 138.13 203.19 138.13 208.59 135.43 208.59 135.43 203.19"/><line class="cls-6" x1="138.13" y1="306" x2="138.13" y2="300.6"/><line class="cls-6" x1="138.13" y1="300.6" x2="135.43" y2="300.6"/><line class="cls-6" x1="135.43" y1="300.6" x2="135.43" y2="306"/><line class="cls-6" x1="135.43" y1="254.59" x2="135.43" y2="258.39"/><line class="cls-6" x1="135.43" y1="258.39" x2="138.13" y2="258.39"/><line class="cls-6" x1="138.13" y1="258.39" x2="138.13" y2="254.59"/><line class="cls-6" x1="138.13" y1="300.6" x2="138.13" y2="258.39"/><line class="cls-6" x1="135.43" y1="258.39" x2="135.43" y2="300.6"/><line class="cls-6" x1="138.13" y1="254.59" x2="138.13" y2="250.82"/><line class="cls-6" x1="138.13" y1="250.82" x2="135.43" y2="250.82"/><line class="cls-6" x1="135.43" y1="250.82" x2="135.43" y2="254.59"/><line class="cls-6" x1="135.43" y1="203.19" x2="135.43" y2="208.59"/><line class="cls-6" x1="135.43" y1="208.6" x2="138.13" y2="208.6"/><line class="cls-6" x1="138.13" y1="208.6" x2="138.13" y2="203.2"/><line class="cls-6" x1="138.13" y1="250.82" x2="138.13" y2="208.61"/><line class="cls-6" x1="135.43" y1="208.6" x2="135.43" y2="250.81"/><line class="cls-6" x1="135.43" y1="306" x2="138.13" y2="306"/><line class="cls-6" x1="135.43" y1="306" x2="138.13" y2="306"/><line class="cls-6" x1="138.13" y1="306" x2="146.24" y2="306"/><line class="cls-6" x1="135.43" y1="203.19" x2="138.13" y2="203.19"/><line class="cls-6" x1="135.43" y1="203.19" x2="138.13" y2="203.19"/><line class="cls-6" x1="138.13" y1="203.19" x2="146.24" y2="203.19"/><line class="cls-6" x1="135.43" y1="306" x2="127.3" y2="306"/><line class="cls-6" x1="135.43" y1="306" x2="127.3" y2="306"/><line class="cls-6" x1="135.43" y1="203.19" x2="127.3" y2="203.19"/><line class="cls-6" x1="135.43" y1="203.19" x2="127.3" y2="203.19"/><polyline class="cls-7" points="135.43 186.96 127.3 186.96 127.3 176.12 135.43 176.12 135.43 186.96"/><line class="cls-6" x1="135.43" y1="186.95" x2="135.43" y2="176.12"/><line class="cls-6" x1="127.3" y1="176.13" x2="127.3" y2="186.97"/><polyline class="cls-7" points="127.3 11.08 135.43 11.08 135.43 35.45 127.3 35.45 127.3 11.08"/><polyline class="cls-7" points="127.3 176.13 127.3 154.49 135.43 154.49 135.43 176.13 127.3 176.13"/><polyline class="cls-7" points="146.24 11.08 146.24 43.56 135.43 43.56 135.43 11.08 146.24 11.08"/><polyline class="cls-7" points="135.43 146.37 146.24 146.37 146.24 176.14 135.43 176.14 135.43 146.37"/><polyline class="cls-7" points="127.3 35.44 135.43 35.44 135.43 43.54 127.3 43.54 127.3 35.44"/><polyline class="cls-7" points="127.3 154.49 127.3 146.38 135.43 146.38 135.43 154.49 127.3 154.49"/><line class="cls-6" x1="135.43" y1="146.37" x2="127.3" y2="146.37"/><line class="cls-6" x1="135.43" y1="43.56" x2="127.3" y2="43.56"/><line class="cls-6" x1="127.3" y1="154.49" x2="127.3" y2="146.39"/><line class="cls-6" x1="127.3" y1="35.44" x2="127.3" y2="43.54"/><line class="cls-6" x1="138.13" y1="146.37" x2="146.24" y2="146.37"/><line class="cls-6" x1="135.43" y1="146.37" x2="138.13" y2="146.37"/><line class="cls-6" x1="138.13" y1="43.56" x2="146.24" y2="43.56"/><line class="cls-6" x1="135.43" y1="43.56" x2="138.13" y2="43.56"/><line class="cls-6" x1="146.24" y1="176.13" x2="146.24" y2="146.36"/><line class="cls-6" x1="146.24" y1="43.56" x2="146.24" y2="11.08"/><line class="cls-6" x1="135.43" y1="11.08" x2="146.24" y2="11.08"/><line class="cls-6" x1="127.3" y1="11.08" x2="127.3" y2="35.45"/><line class="cls-6" x1="127.3" y1="154.49" x2="127.3" y2="176.13"/><line class="cls-6" x1="135.43" y1="176.13" x2="146.24" y2="176.13"/><line class="cls-6" x1="127.3" y1="43.56" x2="127.3" y2="146.38"/><line class="cls-6" x1="146.24" y1="43.56" x2="146.24" y2="146.38"/><polyline class="cls-7" points="138.13 43.56 138.13 48.96 135.43 48.96 135.43 43.56 138.13 43.56"/><polyline class="cls-7" points="135.43 94.96 135.43 91.17 138.13 91.17 138.13 94.96 135.43 94.96"/><polyline class="cls-7" points="138.13 94.96 138.13 98.76 135.43 98.76 135.43 94.96 138.13 94.96"/><polyline class="cls-7" points="135.43 146.37 135.43 140.97 138.13 140.97 138.13 146.37 135.43 146.37"/><line class="cls-6" x1="138.13" y1="43.56" x2="138.13" y2="48.96"/><line class="cls-6" x1="138.13" y1="48.97" x2="135.43" y2="48.97"/><line class="cls-6" x1="135.43" y1="48.97" x2="135.43" y2="43.56"/><line class="cls-6" x1="135.43" y1="94.96" x2="135.43" y2="91.16"/><line class="cls-6" x1="135.43" y1="91.18" x2="138.13" y2="91.18"/><line class="cls-6" x1="138.13" y1="91.18" x2="138.13" y2="94.98"/><line class="cls-6" x1="138.13" y1="48.97" x2="138.13" y2="91.18"/><line class="cls-6" x1="135.43" y1="91.18" x2="135.43" y2="48.97"/><line class="cls-6" x1="138.13" y1="94.96" x2="138.13" y2="98.76"/><line class="cls-6" x1="138.13" y1="98.75" x2="135.43" y2="98.75"/><line class="cls-6" x1="135.43" y1="98.75" x2="135.43" y2="94.95"/><line class="cls-6" x1="135.43" y1="146.37" x2="135.43" y2="140.97"/><line class="cls-6" x1="135.43" y1="140.96" x2="138.13" y2="140.96"/><line class="cls-6" x1="138.13" y1="140.96" x2="138.13" y2="146.36"/><line class="cls-6" x1="138.13" y1="98.75" x2="138.13" y2="140.96"/><line class="cls-6" x1="135.43" y1="140.96" x2="135.43" y2="98.75"/><line class="cls-6" x1="135.43" y1="43.56" x2="138.13" y2="43.56"/><line class="cls-6" x1="135.43" y1="43.56" x2="138.13" y2="43.56"/><line class="cls-6" x1="138.13" y1="43.56" x2="146.24" y2="43.56"/><line class="cls-6" x1="135.43" y1="146.37" x2="138.13" y2="146.37"/><line class="cls-6" x1="135.43" y1="146.37" x2="138.13" y2="146.37"/><line class="cls-6" x1="138.13" y1="146.37" x2="146.24" y2="146.37"/><line class="cls-6" x1="135.43" y1="43.56" x2="127.3" y2="43.56"/><line class="cls-6" x1="135.43" y1="43.56" x2="127.3" y2="43.56"/><line class="cls-6" x1="135.43" y1="146.37" x2="127.3" y2="146.37"/><line class="cls-6" x1="135.43" y1="146.37" x2="127.3" y2="146.37"/><polyline class="cls-7" points="135.43 11.08 127.3 11.08 127.3 0.25 135.43 0.25 135.43 11.08"/><line class="cls-6" x1="135.43" y1="11.08" x2="135.43" y2="0.25"/><line class="cls-6" x1="127.3" y1="0.26" x2="127.3" y2="11.1"/><line class="cls-6" x1="135.43" y1="0.26" x2="146.24" y2="0.26"/><polyline class="cls-7" points="67.78 552.75 67.78 533.28 74.25 533.28 74.25 552.75 67.78 552.75"/><line class="cls-6" x1="74.26" y1="552.75" x2="74.26" y2="533.28"/><line class="cls-6" x1="67.78" y1="533.28" x2="67.78" y2="552.75"/><polyline class="cls-7" points="67.78 552.75 70.48 552.75 70.48 552.75 67.78 552.75 67.78 552.75"/><line class="cls-6" x1="67.78" y1="552.75" x2="67.78" y2="552.75"/><line class="cls-6" x1="67.78" y1="552.75" x2="70.48" y2="552.75"/><line class="cls-6" x1="70.48" y1="552.75" x2="70.48" y2="552.75"/><line class="cls-6" x1="67.78" y1="360.11" x2="67.78" y2="533.28"/><line class="cls-6" x1="74.26" y1="366.61" x2="74.26" y2="533.28"/><polyline class="cls-7" points="70.48 362.81 70.48 366.08 67.78 366.08 67.78 362.81 70.48 362.81"/><polyline class="cls-7" points="67.78 418.75 67.78 417.12 70.48 417.12 70.48 418.75 67.78 418.75"/><polyline class="cls-7" points="70.48 418.75 70.48 422.52 67.78 422.52 67.78 418.75 70.48 418.75"/><polyline class="cls-7" points="67.78 477.37 67.78 473.57 70.48 473.57 70.48 477.37 67.78 477.37"/><polyline class="cls-7" points="70.48 477.37 70.48 479 67.78 479 67.78 477.37 70.48 477.37"/><polyline class="cls-7" points="67.78 533.28 67.78 530.04 70.48 530.04 70.48 533.28 67.78 533.28"/><line class="cls-6" x1="70.48" y1="362.81" x2="70.48" y2="366.08"/><line class="cls-6" x1="70.48" y1="366.08" x2="67.78" y2="366.08"/><line class="cls-6" x1="67.78" y1="366.08" x2="67.78" y2="362.81"/><line class="cls-6" x1="67.78" y1="418.75" x2="67.78" y2="417.12"/><line class="cls-6" x1="67.78" y1="417.12" x2="70.48" y2="417.12"/><line class="cls-6" x1="70.48" y1="417.12" x2="70.48" y2="418.75"/><line class="cls-6" x1="70.48" y1="366.08" x2="70.48" y2="417.12"/><line class="cls-6" x1="67.78" y1="417.12" x2="67.78" y2="366.08"/><line class="cls-6" x1="70.48" y1="418.75" x2="70.48" y2="422.52"/><line class="cls-6" x1="70.48" y1="422.52" x2="67.78" y2="422.52"/><line class="cls-6" x1="67.78" y1="422.52" x2="67.78" y2="418.75"/><line class="cls-6" x1="67.78" y1="477.37" x2="67.78" y2="473.57"/><line class="cls-6" x1="67.78" y1="473.57" x2="70.48" y2="473.57"/><line class="cls-6" x1="70.48" y1="473.57" x2="70.48" y2="477.37"/><line class="cls-6" x1="70.48" y1="422.52" x2="70.48" y2="473.57"/><line class="cls-6" x1="67.78" y1="473.57" x2="67.78" y2="422.52"/><line class="cls-6" x1="70.48" y1="477.37" x2="70.48" y2="479"/><line class="cls-6" x1="70.48" y1="479" x2="67.78" y2="479"/><line class="cls-6" x1="67.78" y1="479" x2="67.78" y2="477.37"/><line class="cls-6" x1="67.78" y1="533.28" x2="67.78" y2="530.04"/><line class="cls-6" x1="67.78" y1="530.04" x2="70.48" y2="530.04"/><line class="cls-6" x1="70.48" y1="530.04" x2="70.48" y2="533.28"/><line class="cls-6" x1="70.48" y1="479" x2="70.48" y2="530.04"/><line class="cls-6" x1="67.78" y1="530.04" x2="67.78" y2="479"/><polyline class="cls-7" points="70.48 362.81 66.69 362.81 66.69 359.04 70.48 362.81"/><line class="cls-6" x1="70.48" y1="362.81" x2="66.69" y2="362.81"/><line class="cls-6" x1="66.69" y1="362.81" x2="66.69" y2="359.04"/><polyline class="cls-7" points="67.78 552.75 70.48 552.75 70.48 552.75 67.78 552.75 67.78 552.75"/><line class="cls-6" x1="67.78" y1="552.75" x2="67.78" y2="552.75"/><line class="cls-6" x1="67.78" y1="552.75" x2="70.48" y2="552.75"/><line class="cls-6" x1="70.48" y1="552.75" x2="70.48" y2="552.75"/><line class="cls-6" x1="67.78" y1="360.11" x2="67.78" y2="533.28"/><line class="cls-6" x1="74.26" y1="366.61" x2="74.26" y2="533.28"/><polyline class="cls-7" points="70.48 362.81 70.48 366.08 67.78 366.08 67.78 362.81 70.48 362.81"/><polyline class="cls-7" points="67.78 420.19 67.78 418.56 70.48 418.56 70.48 420.19 67.78 420.19"/><polyline class="cls-7" points="70.48 420.19 70.48 421.82 67.78 421.82 67.78 420.19 70.48 420.19"/><polyline class="cls-7" points="67.78 475.93 67.78 474.3 70.48 474.3 70.48 475.93 67.78 475.93"/><polyline class="cls-7" points="70.48 475.93 70.48 477.54 67.78 477.54 67.78 475.93 70.48 475.93"/><polyline class="cls-7" points="67.78 533.28 67.78 530.04 70.48 530.04 70.48 533.28 67.78 533.28"/><line class="cls-6" x1="70.48" y1="362.81" x2="70.48" y2="366.08"/><line class="cls-6" x1="70.48" y1="366.08" x2="67.78" y2="366.08"/><line class="cls-6" x1="67.78" y1="366.08" x2="67.78" y2="362.81"/><line class="cls-6" x1="67.78" y1="420.19" x2="67.78" y2="418.56"/><line class="cls-6" x1="67.78" y1="418.56" x2="70.48" y2="418.56"/><line class="cls-6" x1="70.48" y1="418.56" x2="70.48" y2="420.19"/><line class="cls-6" x1="70.48" y1="366.08" x2="70.48" y2="418.56"/><line class="cls-6" x1="67.78" y1="418.56" x2="67.78" y2="366.08"/><line class="cls-6" x1="70.48" y1="420.19" x2="70.48" y2="421.82"/><line class="cls-6" x1="70.48" y1="421.82" x2="67.78" y2="421.82"/><line class="cls-6" x1="67.78" y1="421.82" x2="67.78" y2="420.19"/><line class="cls-6" x1="67.78" y1="475.93" x2="67.78" y2="474.3"/><line class="cls-6" x1="67.78" y1="474.3" x2="70.48" y2="474.3"/><line class="cls-6" x1="70.48" y1="474.3" x2="70.48" y2="475.93"/><line class="cls-6" x1="70.48" y1="421.82" x2="70.48" y2="474.3"/><line class="cls-6" x1="67.78" y1="474.3" x2="67.78" y2="421.82"/><line class="cls-6" x1="70.48" y1="475.93" x2="70.48" y2="477.54"/><line class="cls-6" x1="70.48" y1="477.54" x2="67.78" y2="477.54"/><line class="cls-6" x1="67.78" y1="477.54" x2="67.78" y2="475.93"/><line class="cls-6" x1="67.78" y1="533.28" x2="67.78" y2="530.04"/><line class="cls-6" x1="67.78" y1="530.04" x2="70.48" y2="530.04"/><line class="cls-6" x1="70.48" y1="530.04" x2="70.48" y2="533.28"/><line class="cls-6" x1="70.48" y1="477.54" x2="70.48" y2="530.04"/><line class="cls-6" x1="67.78" y1="530.04" x2="67.78" y2="477.54"/><polyline class="cls-7" points="70.48 362.81 66.69 362.81 66.69 359.04 70.48 362.81"/><line class="cls-6" x1="70.48" y1="362.81" x2="66.69" y2="362.81"/><line class="cls-6" x1="66.69" y1="362.81" x2="66.69" y2="359.04"/><polyline class="cls-7" points="125.67 370.94 127.3 370.94 127.3 381.78 125.67 381.78 125.67 370.94"/><polyline class="cls-7" points="127.3 370.94 135.43 370.94 135.43 381.78 127.3 381.78 127.3 370.94"/><line class="cls-6" x1="135.43" y1="381.78" x2="135.43" y2="370.95"/><line class="cls-6" x1="125.67" y1="370.95" x2="125.67" y2="381.78"/><line class="cls-6" x1="135.43" y1="554.92" x2="146.24" y2="554.92"/><polyline class="cls-7" points="125.67 546.28 125.67 552.75 74.25 552.75 74.25 546.28 125.67 546.28"/><line class="cls-6" x1="125.67" y1="546.28" x2="74.26" y2="546.28"/><line class="cls-6" x1="74.26" y1="546.28" x2="74.26" y2="552.75"/><line class="cls-6" x1="67.78" y1="552.75" x2="125.67" y2="552.75"/><polyline class="cls-7" points="125.67 381.78 127.3 381.78 127.3 390.95 125.67 390.95 125.67 381.78"/><polyline class="cls-7" points="125.67 544.11 125.67 497.04 127.3 497.04 127.3 544.11 125.67 544.11"/><polyline class="cls-7" points="127.3 381.78 135.43 381.78 135.43 390.95 127.3 390.95 127.3 381.78"/><polyline class="cls-7" points="135.43 497.04 135.43 544.11 127.3 544.11 127.3 497.04 135.43 497.04"/><polyline class="cls-7" points="135.43 381.78 146.24 381.78 146.24 392.58 135.43 392.58 135.43 381.78"/><polyline class="cls-7" points="135.43 495.4 146.24 495.4 146.24 544.11 135.43 544.11 135.43 495.4"/><polyline class="cls-7" points="125.67 497.04 125.67 495.4 135.43 495.4 135.43 497.04 125.67 497.04"/><polyline class="cls-7" points="125.67 390.95 135.43 390.95 135.43 392.58 125.67 392.58 125.67 390.95"/><polyline class="cls-7" points="125.67 390.95 135.43 390.95 135.43 392.58 125.67 392.58 125.67 390.95"/><polyline class="cls-7" points="125.67 390.95 135.43 390.95 135.43 392.58 125.67 392.58 125.67 390.95"/><line class="cls-6" x1="127.3" y1="495.41" x2="135.43" y2="495.41"/><line class="cls-6" x1="125.67" y1="495.41" x2="127.3" y2="495.41"/><line class="cls-6" x1="125.67" y1="497.04" x2="125.67" y2="495.41"/><line class="cls-6" x1="138.13" y1="495.41" x2="146.24" y2="495.41"/><line class="cls-6" x1="135.43" y1="495.41" x2="138.13" y2="495.41"/><line class="cls-6" x1="146.24" y1="544.11" x2="146.24" y2="495.41"/><line class="cls-6" x1="146.24" y1="392.58" x2="146.24" y2="381.78"/><line class="cls-6" x1="135.43" y1="381.78" x2="146.24" y2="381.78"/><line class="cls-6" x1="125.67" y1="381.78" x2="125.67" y2="390.95"/><line class="cls-6" x1="125.67" y1="497.04" x2="125.67" y2="544.11"/><line class="cls-6" x1="135.43" y1="544.11" x2="146.24" y2="544.11"/><line class="cls-6" x1="125.67" y1="495.41" x2="125.67" y2="438.59"/><line class="cls-6" x1="146.24" y1="495.41" x2="146.24" y2="438.59"/><polyline class="cls-7" points="138.13 495.4 135.43 495.4 135.43 490 138.13 490 138.13 495.4"/><polyline class="cls-7" points="135.43 438.59 138.13 438.59 138.13 443.99 135.43 443.99 135.43 438.59"/><line class="cls-6" x1="138.13" y1="495.41" x2="138.13" y2="490"/><line class="cls-6" x1="138.13" y1="490" x2="135.43" y2="490"/><line class="cls-6" x1="135.43" y1="490" x2="135.43" y2="495.41"/><line class="cls-6" x1="135.43" y1="438.59" x2="135.43" y2="443.99"/><line class="cls-6" x1="135.43" y1="443.99" x2="138.13" y2="443.99"/><line class="cls-6" x1="138.13" y1="443.99" x2="138.13" y2="438.59"/><line class="cls-6" x1="138.13" y1="490" x2="138.13" y2="443.99"/><line class="cls-6" x1="135.43" y1="443.99" x2="135.43" y2="490"/><line class="cls-6" x1="135.43" y1="495.41" x2="138.13" y2="495.41"/><line class="cls-6" x1="135.43" y1="495.41" x2="138.13" y2="495.41"/><line class="cls-6" x1="138.13" y1="495.41" x2="146.24" y2="495.41"/><line class="cls-6" x1="125.67" y1="495.41" x2="127.3" y2="495.41"/><line class="cls-6" x1="127.3" y1="495.41" x2="135.43" y2="495.41"/><line class="cls-6" x1="124.06" y1="438.59" x2="124.06" y2="392.58"/><line class="cls-6" x1="124.06" y1="392.58" x2="125.67" y2="392.58"/><line class="cls-6" x1="146.24" y1="392.58" x2="147.87" y2="392.58"/><line class="cls-6" x1="147.87" y1="392.58" x2="147.87" y2="438.59"/><path class="cls-6" d="M208.12,424.1a41.64,41.64,0,0,1-41.65,41.67" transform="translate(-28.34 -29.35)"/><polyline class="cls-7" points="135.43 438.59 135.43 436.43 138.13 436.43 138.13 438.59 135.43 438.59"/><polyline class="cls-7" points="138.13 392.58 138.13 394.75 135.43 394.75 135.43 392.58 138.13 392.58"/><line class="cls-6" x1="135.43" y1="438.59" x2="135.43" y2="436.42"/><line class="cls-6" x1="135.43" y1="436.43" x2="138.13" y2="436.43"/><line class="cls-6" x1="138.13" y1="436.43" x2="138.13" y2="438.59"/><line class="cls-6" x1="138.13" y1="392.58" x2="138.13" y2="394.75"/><line class="cls-6" x1="138.13" y1="394.75" x2="135.43" y2="394.75"/><line class="cls-6" x1="135.43" y1="394.75" x2="135.43" y2="392.58"/><line class="cls-6" x1="135.43" y1="392.58" x2="138.13" y2="392.58"/><line class="cls-6" x1="138.13" y1="394.75" x2="179.78" y2="394.75"/><line class="cls-6" x1="135.43" y1="392.58" x2="138.13" y2="392.58"/><line class="cls-6" x1="135.43" y1="392.58" x2="138.13" y2="392.58"/><line class="cls-6" x1="138.13" y1="392.58" x2="146.24" y2="392.58"/><line class="cls-6" x1="138.13" y1="392.58" x2="146.24" y2="392.58"/><line class="cls-6" x1="125.67" y1="392.58" x2="127.3" y2="392.58"/><line class="cls-6" x1="125.67" y1="392.58" x2="127.3" y2="392.58"/><line class="cls-6" x1="127.3" y1="392.58" x2="135.43" y2="392.58"/><line class="cls-6" x1="127.3" y1="392.58" x2="135.43" y2="392.58"/><line class="cls-6" x1="124.06" y1="438.59" x2="124.06" y2="392.58"/><line class="cls-6" x1="124.06" y1="392.58" x2="125.67" y2="392.58"/><line class="cls-6" x1="146.24" y1="392.58" x2="147.87" y2="392.58"/><line class="cls-6" x1="147.87" y1="392.58" x2="147.87" y2="438.59"/><path class="cls-6" d="M208.12,424.1a41.64,41.64,0,0,1-41.65,41.67" transform="translate(-28.34 -29.35)"/><polyline class="cls-7" points="135.43 438.59 135.43 436.43 138.13 436.43 138.13 438.59 135.43 438.59"/><polyline class="cls-7" points="138.13 392.58 138.13 394.75 135.43 394.75 135.43 392.58 138.13 392.58"/><line class="cls-6" x1="135.43" y1="438.59" x2="135.43" y2="436.42"/><line class="cls-6" x1="135.43" y1="436.43" x2="138.13" y2="436.43"/><line class="cls-6" x1="138.13" y1="436.43" x2="138.13" y2="438.59"/><line class="cls-6" x1="138.13" y1="392.58" x2="138.13" y2="394.75"/><line class="cls-6" x1="138.13" y1="394.75" x2="135.43" y2="394.75"/><line class="cls-6" x1="135.43" y1="394.75" x2="135.43" y2="392.58"/><line class="cls-6" x1="135.43" y1="392.58" x2="138.13" y2="392.58"/><line class="cls-6" x1="138.13" y1="394.75" x2="179.78" y2="394.75"/><line class="cls-6" x1="135.43" y1="392.58" x2="138.13" y2="392.58"/><line class="cls-6" x1="135.43" y1="392.58" x2="138.13" y2="392.58"/><line class="cls-6" x1="138.13" y1="392.58" x2="146.24" y2="392.58"/><line class="cls-6" x1="138.13" y1="392.58" x2="146.24" y2="392.58"/><line class="cls-6" x1="125.67" y1="392.58" x2="127.3" y2="392.58"/><line class="cls-6" x1="125.67" y1="392.58" x2="127.3" y2="392.58"/><line class="cls-6" x1="127.3" y1="392.58" x2="135.43" y2="392.58"/><line class="cls-6" x1="127.3" y1="392.58" x2="135.43" y2="392.58"/><line class="cls-6" x1="124.06" y1="438.59" x2="124.06" y2="392.58"/><line class="cls-6" x1="124.06" y1="392.58" x2="125.67" y2="392.58"/><line class="cls-6" x1="146.24" y1="392.58" x2="147.87" y2="392.58"/><line class="cls-6" x1="147.87" y1="392.58" x2="147.87" y2="438.59"/><path class="cls-6" d="M208.12,424.1a41.64,41.64,0,0,1-41.65,41.67" transform="translate(-28.34 -29.35)"/><polyline class="cls-7" points="135.43 438.59 135.43 436.43 138.13 436.43 138.13 438.59 135.43 438.59"/><polyline class="cls-7" points="138.13 392.58 138.13 394.75 135.43 394.75 135.43 392.58 138.13 392.58"/><line class="cls-6" x1="135.43" y1="438.59" x2="135.43" y2="436.42"/><line class="cls-6" x1="135.43" y1="436.43" x2="138.13" y2="436.43"/><line class="cls-6" x1="138.13" y1="436.43" x2="138.13" y2="438.59"/><line class="cls-6" x1="138.13" y1="392.58" x2="138.13" y2="394.75"/><line class="cls-6" x1="138.13" y1="394.75" x2="135.43" y2="394.75"/><line class="cls-6" x1="135.43" y1="394.75" x2="135.43" y2="392.58"/><line class="cls-6" x1="135.43" y1="392.58" x2="138.13" y2="392.58"/><line class="cls-6" x1="138.13" y1="394.75" x2="179.78" y2="394.75"/><line class="cls-6" x1="135.43" y1="392.58" x2="138.13" y2="392.58"/><line class="cls-6" x1="135.43" y1="392.58" x2="138.13" y2="392.58"/><line class="cls-6" x1="138.13" y1="392.58" x2="146.24" y2="392.58"/><line class="cls-6" x1="138.13" y1="392.58" x2="146.24" y2="392.58"/><line class="cls-6" x1="125.67" y1="392.58" x2="127.3" y2="392.58"/><line class="cls-6" x1="125.67" y1="392.58" x2="127.3" y2="392.58"/><line class="cls-6" x1="127.3" y1="392.58" x2="135.43" y2="392.58"/><line class="cls-6" x1="127.3" y1="392.58" x2="135.43" y2="392.58"/><polyline class="cls-7" points="125.67 360.11 127.3 360.11 127.3 370.94 125.67 370.94 125.67 360.11"/><polyline class="cls-7" points="127.3 360.11 135.43 360.11 135.43 370.94 127.3 370.94 127.3 360.11"/><polyline class="cls-7" points="135.43 360.11 146.24 360.11 146.24 370.94 135.43 370.94 135.43 360.11"/><line class="cls-6" x1="146.24" y1="370.95" x2="146.24" y2="360.11"/><line class="cls-6" x1="125.67" y1="360.11" x2="127.3" y2="360.11"/><line class="cls-6" x1="125.67" y1="360.11" x2="125.67" y2="370.94"/><line class="cls-6" x1="135.43" y1="370.95" x2="146.24" y2="370.95"/><line class="cls-6" x1="370.82" y1="472.13" x2="370.82" y2="529.09"/><line class="cls-6" x1="370.82" y1="529.09" x2="419.52" y2="529.09"/><line class="cls-6" x1="419.52" y1="529.09" x2="419.52" y2="440.2"/><line class="cls-6" x1="419.52" y1="440.2" x2="349.71" y2="440.2"/><line class="cls-6" x1="349.71" y1="440.2" x2="349.71" y2="472.13"/><line class="cls-6" x1="349.71" y1="472.13" x2="370.82" y2="472.13"/><line class="cls-6" x1="525.05" y1="544.11" x2="525.05" y2="440.2"/><line class="cls-6" x1="525.05" y1="440.2" x2="423.86" y2="440.2"/><line class="cls-6" x1="423.86" y1="440.2" x2="423.86" y2="544.11"/><line class="cls-6" x1="423.86" y1="544.11" x2="525.05" y2="544.11"/><line class="cls-6" x1="525.05" y1="554.92" x2="525.05" y2="554.92"/><line class="cls-6" x1="525.05" y1="554.92" x2="423.72" y2="554.92"/><polyline class="cls-7" points="525.05 176.13 535.85 176.13 535.85 276.25 525.05 276.25 525.05 176.13"/><polyline class="cls-7" points="525.05 381.78 525.05 333.07 535.85 333.07 535.85 381.78 525.05 381.78"/><line class="cls-6" x1="525.05" y1="276.26" x2="535.85" y2="276.26"/><line class="cls-6" x1="525.05" y1="333.07" x2="535.85" y2="333.07"/><line class="cls-6" x1="525.05" y1="176.13" x2="525.05" y2="276.25"/><line class="cls-6" x1="525.05" y1="333.07" x2="525.05" y2="381.78"/><line class="cls-6" x1="525.05" y1="381.78" x2="535.85" y2="381.78"/><line class="cls-6" x1="535.85" y1="381.78" x2="535.85" y2="333.07"/><line class="cls-6" x1="535.85" y1="276.26" x2="535.85" y2="176.14"/><line class="cls-6" x1="525.05" y1="176.13" x2="535.85" y2="176.13"/><path class="cls-6" d="M553.39,360.25a52.49,52.49,0,0,1-52.51-52.51" transform="translate(-28.34 -29.35)"/><polyline class="cls-7" points="535.85 333.07 525.05 333.07 525.05 330.9 535.85 330.9 535.85 333.07"/><polyline class="cls-7" points="525.05 276.26 535.85 276.26 535.85 278.39 525.05 278.39 525.05 276.26"/><line class="cls-6" x1="535.85" y1="333.07" x2="535.85" y2="330.9"/><line class="cls-6" x1="535.85" y1="330.9" x2="525.05" y2="330.9"/><line class="cls-6" x1="525.05" y1="330.9" x2="525.05" y2="333.07"/><line class="cls-6" x1="525.05" y1="333.07" x2="535.85" y2="333.07"/><line class="cls-6" x1="525.05" y1="276.26" x2="525.05" y2="278.4"/><line class="cls-6" x1="525.05" y1="278.4" x2="535.85" y2="278.4"/><line class="cls-6" x1="535.85" y1="278.4" x2="535.85" y2="276.26"/><line class="cls-6" x1="535.85" y1="276.26" x2="525.05" y2="276.26"/><line class="cls-6" x1="525.05" y1="278.4" x2="472.54" y2="278.4"/><line class="cls-6" x1="525.05" y1="333.07" x2="535.85" y2="333.07"/><line class="cls-6" x1="525.05" y1="333.07" x2="535.85" y2="333.07"/><line class="cls-6" x1="525.05" y1="276.26" x2="535.85" y2="276.26"/><line class="cls-6" x1="525.05" y1="276.26" x2="535.85" y2="276.26"/><polyline class="cls-7" points="359.98 11.08 359.98 0.25 419.52 0.25 419.52 11.08 359.98 11.08"/><line class="cls-6" x1="359.98" y1="11.08" x2="419.52" y2="11.08"/><line class="cls-6" x1="419.52" y1="11.08" x2="419.52" y2="0.25"/><line class="cls-6" x1="419.52" y1="0.26" x2="359.98" y2="0.26"/><line class="cls-6" x1="359.98" y1="11.08" x2="359.98" y2="0.25"/><polyline class="cls-7" points="135.43 554.92 135.43 544.11 388.68 544.11 388.68 554.92 135.43 554.92"/><line class="cls-6" x1="125.67" y1="554.92" x2="388.68" y2="554.92"/><line class="cls-6" x1="388.68" y1="554.92" x2="388.68" y2="544.11"/><line class="cls-6" x1="388.68" y1="544.11" x2="135.43" y2="544.11"/><line class="cls-6" x1="135.43" y1="554.92" x2="135.43" y2="544.11"/><polyline class="cls-7" points="135.43 381.78 135.43 370.94 194.94 370.94 194.94 381.78 135.43 381.78"/><line class="cls-6" x1="135.43" y1="381.78" x2="194.94" y2="381.78"/><line class="cls-6" x1="194.95" y1="381.78" x2="194.95" y2="370.95"/><line class="cls-6" x1="194.95" y1="370.95" x2="135.43" y2="370.95"/><line class="cls-6" x1="135.43" y1="381.78" x2="135.43" y2="370.95"/><polyline class="cls-7" points="135.43 186.96 135.43 176.12 194.94 176.12 194.94 186.96 135.43 186.96"/><line class="cls-6" x1="135.43" y1="186.95" x2="194.94" y2="186.95"/><line class="cls-6" x1="194.95" y1="186.95" x2="194.95" y2="176.12"/><line class="cls-6" x1="194.95" y1="176.13" x2="135.43" y2="176.13"/><line class="cls-6" x1="135.43" y1="186.95" x2="135.43" y2="176.12"/><polyline class="cls-7" points="135.43 11.08 135.43 0.25 194.94 0.25 194.94 11.08 135.43 11.08"/><line class="cls-6" x1="135.43" y1="11.08" x2="194.94" y2="11.08"/><line class="cls-6" x1="194.95" y1="11.08" x2="194.95" y2="0.25"/><line class="cls-6" x1="194.95" y1="0.26" x2="127.3" y2="0.26"/><line class="cls-6" x1="135.43" y1="11.08" x2="135.43" y2="0.25"/><polyline class="cls-7" points="349.71 544.11 345.38 544.11 345.38 435.89 349.71 440.19 349.71 544.11"/><line class="cls-6" x1="349.71" y1="544.11" x2="349.71" y2="476.47"/><line class="cls-6" x1="349.71" y1="472.13" x2="349.71" y2="440.2"/><line class="cls-6" x1="345.38" y1="435.89" x2="345.38" y2="544.11"/><line class="cls-6" x1="345.38" y1="544.11" x2="349.71" y2="544.11"/><polyline class="cls-7" points="345.38 435.89 378.92 435.89 378.92 440.19 349.71 440.19 345.38 435.89"/><polyline class="cls-7" points="416.82 440.19 416.82 435.89 452 435.89 452 440.19 416.82 440.19"/><polyline class="cls-7" points="525.05 435.89 525.05 440.19 489.87 440.19 489.87 435.89 525.05 435.89"/><line class="cls-6" x1="416.82" y1="440.2" x2="416.82" y2="435.89"/><line class="cls-6" x1="378.92" y1="440.2" x2="378.92" y2="435.89"/><line class="cls-6" x1="452" y1="435.89" x2="452" y2="440.2"/><line class="cls-6" x1="489.87" y1="435.89" x2="489.87" y2="440.2"/><line class="cls-6" x1="349.71" y1="440.2" x2="378.92" y2="440.2"/><line class="cls-6" x1="416.82" y1="440.2" x2="419.52" y2="440.2"/><line class="cls-6" x1="423.86" y1="440.2" x2="452" y2="440.2"/><line class="cls-6" x1="489.87" y1="440.2" x2="525.05" y2="440.2"/><line class="cls-6" x1="525.05" y1="435.89" x2="525.05" y2="440.2"/><line class="cls-6" x1="525.05" y1="435.89" x2="489.87" y2="435.89"/><line class="cls-6" x1="452" y1="435.89" x2="416.82" y2="435.89"/><line class="cls-6" x1="378.92" y1="435.89" x2="345.38" y2="435.89"/><line class="cls-6" x1="414.66" y1="435.89" x2="381.09" y2="435.89"/><line class="cls-6" x1="381.09" y1="440.2" x2="414.66" y2="440.2"/><path class="cls-6" d="M443,503.11a33.56,33.56,0,0,1-33.57-33.57" transform="translate(-28.34 -29.35)"/><polyline class="cls-7" points="378.92 435.89 381.09 435.89 381.09 440.19 378.92 440.19 378.92 435.89"/><polyline class="cls-7" points="416.82 440.19 414.66 440.19 414.66 435.89 416.82 435.89 416.82 440.19"/><line class="cls-6" x1="378.92" y1="435.89" x2="381.09" y2="435.89"/><line class="cls-6" x1="381.09" y1="435.89" x2="381.09" y2="440.2"/><line class="cls-6" x1="381.09" y1="440.2" x2="378.92" y2="440.2"/><line class="cls-6" x1="378.92" y1="440.2" x2="378.92" y2="435.89"/><line class="cls-6" x1="416.82" y1="440.2" x2="414.66" y2="440.2"/><line class="cls-6" x1="414.66" y1="440.2" x2="414.66" y2="435.89"/><line class="cls-6" x1="414.66" y1="435.89" x2="416.82" y2="435.89"/><line class="cls-6" x1="416.82" y1="435.89" x2="416.82" y2="440.2"/><line class="cls-6" x1="414.66" y1="440.2" x2="414.66" y2="473.77"/><line class="cls-6" x1="378.92" y1="440.2" x2="378.92" y2="435.89"/><line class="cls-6" x1="378.92" y1="440.2" x2="378.92" y2="435.89"/><line class="cls-6" x1="416.82" y1="440.2" x2="416.82" y2="435.89"/><line class="cls-6" x1="416.82" y1="440.2" x2="416.82" y2="435.89"/><line class="cls-6" x1="454.14" y1="440.2" x2="487.71" y2="440.2"/><line class="cls-6" x1="487.71" y1="435.89" x2="454.13" y2="435.89"/><path class="cls-6" d="M482.48,431.67a33.56,33.56,0,0,1,33.57,33.57" transform="translate(-28.34 -29.35)"/><polyline class="cls-7" points="489.87 440.19 487.7 440.19 487.7 435.89 489.87 435.89 489.87 440.19"/><polyline class="cls-7" points="452 435.89 454.13 435.89 454.13 440.19 452 440.19 452 435.89"/><line class="cls-6" x1="489.87" y1="440.2" x2="487.7" y2="440.2"/><line class="cls-6" x1="487.71" y1="440.2" x2="487.71" y2="435.89"/><line class="cls-6" x1="487.71" y1="435.89" x2="489.87" y2="435.89"/><line class="cls-6" x1="489.87" y1="435.89" x2="489.87" y2="440.2"/><line class="cls-6" x1="452" y1="435.89" x2="454.13" y2="435.89"/><line class="cls-6" x1="454.14" y1="435.89" x2="454.14" y2="440.2"/><line class="cls-6" x1="454.14" y1="440.2" x2="452" y2="440.2"/><line class="cls-6" x1="452" y1="440.2" x2="452" y2="435.89"/><line class="cls-6" x1="454.14" y1="435.89" x2="454.14" y2="402.32"/><line class="cls-6" x1="489.87" y1="435.89" x2="489.87" y2="440.2"/><line class="cls-6" x1="489.87" y1="435.89" x2="489.87" y2="440.2"/><line class="cls-6" x1="452" y1="435.89" x2="452" y2="440.2"/><line class="cls-6" x1="452" y1="435.89" x2="452" y2="440.2"/><polyline class="cls-7" points="349.71 476.47 349.71 472.13 370.81 472.13 366.48 476.47 349.71 476.47"/><line class="cls-6" x1="349.71" y1="476.47" x2="366.48" y2="476.47"/><line class="cls-6" x1="370.82" y1="472.13" x2="349.71" y2="472.13"/><polyline class="cls-7" points="366.48 476.47 370.81 472.13 370.81 544.11 366.48 544.11 366.48 476.47"/><line class="cls-6" x1="366.48" y1="476.47" x2="366.48" y2="544.11"/><line class="cls-6" x1="370.82" y1="544.11" x2="366.48" y2="544.11"/><line class="cls-6" x1="370.82" y1="544.11" x2="370.82" y2="472.13"/><polyline class="cls-7" points="370.81 530.44 370.81 529.09 419.52 529.09 419.52 530.44 370.81 530.44"/><line class="cls-6" x1="370.82" y1="530.44" x2="419.52" y2="530.44"/><line class="cls-6" x1="419.52" y1="529.09" x2="419.52" y2="530.44"/><line class="cls-6" x1="419.52" y1="529.09" x2="370.81" y2="529.09"/><line class="cls-6" x1="370.82" y1="529.09" x2="370.82" y2="530.44"/><polyline class="cls-7" points="419.52 440.19 423.86 440.19 423.86 544.11 419.52 544.11 419.52 440.19"/><line class="cls-6" x1="419.52" y1="440.2" x2="419.52" y2="544.11"/><line class="cls-6" x1="423.86" y1="544.11" x2="419.52" y2="544.11"/><line class="cls-6" x1="423.86" y1="544.11" x2="423.86" y2="440.2"/><line x1="525.05" y1="554.92" x2="525.05" y2="381.78"/><polyline class="cls-7" points="525.05 381.78 535.85 381.78 535.85 554.92"/><line class="cls-6" x1="525.05" y1="381.78" x2="525.05" y2="544.11"/><line class="cls-6" x1="525.05" y1="554.92" x2="525.05" y2="554.92"/><line class="cls-6" x1="535.85" y1="554.92" x2="535.85" y2="381.78"/><line class="cls-6" x1="535.85" y1="381.78" x2="525.05" y2="381.78"/><polyline class="cls-7" points="408.69 11.08 419.52 11.08 419.52 111.2 408.69 122.01 408.69 11.08"/><line class="cls-6" x1="408.69" y1="11.08" x2="408.69" y2="122.01"/><line class="cls-6" x1="419.52" y1="111.19" x2="419.52" y2="84.12"/><line class="cls-6" x1="419.52" y1="73.32" x2="419.52" y2="11.07"/><line class="cls-6" x1="408.69" y1="11.08" x2="419.52" y2="11.08"/><polyline class="cls-7" points="408.69 122.02 419.52 111.19 525.05 111.21 525.05 122.02 408.69 122.02"/><line class="cls-6" x1="408.69" y1="122.02" x2="525.05" y2="122.02"/><line class="cls-6" x1="525.05" y1="111.21" x2="419.52" y2="111.19"/><polyline class="cls-7" points="388.68 554.92 388.68 544.11 525.05 544.11 525.05 554.92 388.68 554.92"/><line class="cls-6" x1="388.68" y1="554.92" x2="525.05" y2="554.92"/><line class="cls-6" x1="525.05" y1="544.11" x2="388.68" y2="544.11"/><line class="cls-6" x1="388.68" y1="544.11" x2="388.68" y2="554.92"/><polyline class="cls-7" points="359.98 0.26 359.98 11.1 194.94 11.1 194.94 0.26 359.98 0.26"/><line class="cls-6" x1="359.98" y1="0.26" x2="194.94" y2="0.26"/><line class="cls-6" x1="194.95" y1="0.26" x2="194.95" y2="11.1"/><line class="cls-6" x1="194.95" y1="11.08" x2="359.98" y2="11.08"/><line class="cls-6" x1="359.98" y1="0.26" x2="359.98" y2="11.1"/><polyline class="cls-7" points="525.05 176.13 525.05 111.21 535.85 111.21 535.85 176.13 525.05 176.13"/><line class="cls-6" x1="535.85" y1="111.21" x2="525.05" y2="111.21"/><line class="cls-6" x1="535.85" y1="176.13" x2="535.85" y2="111.21"/><line class="cls-6" x1="525.05" y1="111.21" x2="525.05" y2="111.21"/><line class="cls-6" x1="525.05" y1="111.21" x2="525.05" y2="111.21"/><line class="cls-6" x1="525.05" y1="122.02" x2="525.05" y2="176.13"/><line class="cls-6" x1="535.85" y1="176.13" x2="525.05" y2="176.13"/><polyline class="cls-7" points="525.05 111.21 525.05 111.21 535.85 111.21 535.85 111.21 525.05 111.21"/><line class="cls-6" x1="525.05" y1="111.21" x2="525.05" y2="111.21"/><line class="cls-6" x1="525.05" y1="111.21" x2="535.85" y2="111.21"/><line class="cls-6" x1="535.85" y1="111.21" x2="535.85" y2="111.21"/><line class="cls-6" x1="535.85" y1="111.21" x2="525.05" y2="111.21"/><line class="cls-6" x1="535.85" y1="111.21" x2="525.05" y2="111.21"/><line class="cls-6" x1="535.85" y1="111.21" x2="525.05" y2="111.21"/><line class="cls-6" x1="356.75" y1="554.92" x2="361.08" y2="554.92"/><line class="cls-6" x1="382.18" y1="554.92" x2="377.85" y2="554.92"/><line class="cls-6" x1="423.72" y1="554.92" x2="422.37" y2="554.92"/><polyline class="cls-7" points="375.68 536.26 375.29 537.22 374.33 537.61 373.38 537.22 372.98 536.26 373.38 535.31 374.33 534.91 375.29 535.31 375.68 536.26"/><line class="cls-6" x1="375.68" y1="536.26" x2="375.29" y2="537.22"/><line class="cls-6" x1="375.29" y1="537.22" x2="374.33" y2="537.61"/><line class="cls-6" x1="374.33" y1="537.61" x2="373.38" y2="537.22"/><line class="cls-6" x1="373.38" y1="537.22" x2="372.98" y2="536.26"/><line class="cls-6" x1="372.98" y1="536.26" x2="373.38" y2="535.31"/><line class="cls-6" x1="373.38" y1="535.31" x2="374.33" y2="534.91"/><line class="cls-6" x1="374.33" y1="534.91" x2="375.29" y2="535.31"/><line class="cls-6" x1="375.29" y1="535.31" x2="375.68" y2="536.26"/><polyline class="cls-7" points="386.52 536.26 386.12 537.22 385.17 537.61 384.21 537.22 383.79 536.26 384.21 535.31 385.17 534.91 386.12 535.31 386.52 536.26"/><line class="cls-6" x1="386.52" y1="536.26" x2="386.12" y2="537.22"/><line class="cls-6" x1="386.12" y1="537.22" x2="385.17" y2="537.61"/><line class="cls-6" x1="385.17" y1="537.61" x2="384.21" y2="537.22"/><line class="cls-6" x1="384.21" y1="537.22" x2="383.79" y2="536.26"/><line class="cls-6" x1="383.79" y1="536.26" x2="384.21" y2="535.31"/><line class="cls-6" x1="384.21" y1="535.31" x2="385.17" y2="534.91"/><line class="cls-6" x1="385.17" y1="534.91" x2="386.12" y2="535.31"/><line class="cls-6" x1="386.12" y1="535.31" x2="386.52" y2="536.26"/><path class="cls-7" d="M424.31,560.86l-1.83.76-.76,1.82.76,1.83,1.83.76,1.83-.76.76-1.83-.76-1.82-1.83-.76m0-.12,1.91.79.79,1.91-.79,1.92-1.91.79-1.91-.79-.79-1.92.79-1.91,1.91-.79" transform="translate(-28.34 -29.35)"/><polyline class="cls-7" points="395.97 531.51 397.8 532.27 398.56 534.1 397.8 535.93 395.97 536.69 394.14 535.93 393.38 534.1 394.14 532.27 395.97 531.51"/><line class="cls-6" x1="395.97" y1="531.39" x2="394.06" y2="532.18"/><line class="cls-6" x1="394.06" y1="532.18" x2="393.27" y2="534.1"/><line class="cls-6" x1="393.27" y1="534.1" x2="394.06" y2="536.01"/><line class="cls-6" x1="394.06" y1="536.01" x2="395.97" y2="536.8"/><line class="cls-6" x1="395.97" y1="536.8" x2="397.88" y2="536.01"/><line class="cls-6" x1="397.88" y1="536.01" x2="398.67" y2="534.1"/><line class="cls-6" x1="398.67" y1="534.1" x2="397.88" y2="532.18"/><line class="cls-6" x1="397.88" y1="532.18" x2="395.97" y2="531.39"/><line class="cls-6" x1="364.85" y1="522.48" x2="351.34" y2="522.48"/><line class="cls-6" x1="351.34" y1="522.48" x2="351.34" y2="490"/><line class="cls-6" x1="351.34" y1="490" x2="364.85" y2="490"/><line class="cls-6" x1="364.85" y1="490" x2="364.85" y2="522.48"/><polyline class="cls-7" points="406.81 534.91 407.76 535.31 408.15 536.26 407.76 537.22 406.81 537.61 405.85 537.22 405.45 536.26 405.85 535.31 406.81 534.91"/><line class="cls-6" x1="406.8" y1="534.91" x2="407.76" y2="535.31"/><line class="cls-6" x1="407.76" y1="535.31" x2="408.16" y2="536.26"/><line class="cls-6" x1="408.16" y1="536.26" x2="407.76" y2="537.22"/><line class="cls-6" x1="407.76" y1="537.22" x2="406.8" y2="537.61"/><line class="cls-6" x1="406.8" y1="537.61" x2="405.85" y2="537.22"/><line class="cls-6" x1="405.85" y1="537.22" x2="405.45" y2="536.26"/><line class="cls-6" x1="405.45" y1="536.26" x2="405.85" y2="535.31"/><line class="cls-6" x1="405.85" y1="535.31" x2="406.8" y2="534.91"/><line class="cls-6" x1="404.64" y1="506.24" x2="404.33" y2="503.48"/><line class="cls-6" x1="404.55" y1="509.05" x2="404.64" y2="506.24"/><line class="cls-6" x1="402.78" y1="528.02" x2="404.55" y2="509.05"/><line class="cls-6" x1="387.53" y1="528.02" x2="402.78" y2="528.02"/><line class="cls-6" x1="385.79" y1="509.05" x2="387.53" y2="528.02"/><line class="cls-6" x1="385.7" y1="506.24" x2="385.78" y2="509.05"/><line class="cls-6" x1="385.98" y1="503.48" x2="385.7" y2="506.24"/><line class="cls-6" x1="386.66" y1="500.78" x2="385.98" y2="503.48"/><line class="cls-6" x1="387.7" y1="498.25" x2="386.66" y2="500.78"/><line class="cls-6" x1="389.08" y1="496.22" x2="387.7" y2="498.25"/><line class="cls-6" x1="390.88" y1="494.67" x2="389.08" y2="496.22"/><line class="cls-6" x1="392.93" y1="493.72" x2="390.88" y2="494.67"/><line class="cls-6" x1="395.16" y1="493.38" x2="392.93" y2="493.72"/><line class="cls-6" x1="397.38" y1="493.72" x2="395.16" y2="493.38"/><line class="cls-6" x1="399.46" y1="494.67" x2="397.38" y2="493.72"/><line class="cls-6" x1="401.23" y1="496.22" x2="399.46" y2="494.67"/><line class="cls-6" x1="402.64" y1="498.25" x2="401.23" y2="496.22"/><line class="cls-6" x1="403.65" y1="500.78" x2="402.64" y2="498.25"/><line class="cls-6" x1="404.33" y1="503.48" x2="403.65" y2="500.78"/><line class="cls-6" x1="404.36" y1="523.4" x2="385.95" y2="523.4"/><line class="cls-6" x1="404.98" y1="523.46" x2="404.36" y2="523.4"/><line class="cls-6" x1="405.51" y1="523.66" x2="404.98" y2="523.46"/><line class="cls-6" x1="405.88" y1="523.91" x2="405.51" y2="523.66"/><line class="cls-6" x1="405.99" y1="524.22" x2="405.88" y2="523.91"/><line class="cls-6" x1="405.99" y1="527.17" x2="405.99" y2="524.22"/><line class="cls-6" x1="405.88" y1="527.51" x2="405.99" y2="527.17"/><line class="cls-6" x1="405.51" y1="527.77" x2="405.88" y2="527.51"/><line class="cls-6" x1="404.98" y1="527.93" x2="405.51" y2="527.77"/><line class="cls-6" x1="404.36" y1="528.02" x2="404.98" y2="527.93"/><line class="cls-6" x1="385.95" y1="528.02" x2="404.36" y2="528.02"/><line class="cls-6" x1="385.33" y1="527.93" x2="385.95" y2="528.02"/><line class="cls-6" x1="384.83" y1="527.77" x2="385.33" y2="527.93"/><line class="cls-6" x1="384.46" y1="527.51" x2="384.83" y2="527.77"/><line class="cls-6" x1="384.35" y1="527.17" x2="384.46" y2="527.51"/><line class="cls-6" x1="384.35" y1="524.22" x2="384.35" y2="527.17"/><line class="cls-6" x1="384.46" y1="523.91" x2="384.35" y2="524.22"/><line class="cls-6" x1="384.83" y1="523.66" x2="384.46" y2="523.91"/><line class="cls-6" x1="385.33" y1="523.46" x2="384.83" y2="523.66"/><line class="cls-6" x1="385.95" y1="523.4" x2="385.33" y2="523.46"/><path class="cls-6" d="M379.12,472.33a.82.82,0,0,1,.82-.82" transform="translate(-28.34 -29.35)"/><line class="cls-6" x1="366.2" y1="442.17" x2="351.6" y2="442.17"/><path class="cls-6" d="M394.54,471.51a.82.82,0,0,1,.82.82" transform="translate(-28.34 -29.35)"/><line class="cls-6" x1="367.02" y1="468.42" x2="367.02" y2="442.98"/><path class="cls-6" d="M395.36,497.77a.82.82,0,0,1-.82.81" transform="translate(-28.34 -29.35)"/><line class="cls-6" x1="351.6" y1="469.24" x2="366.2" y2="469.24"/><path class="cls-6" d="M379.94,498.58a.82.82,0,0,1-.82-.81" transform="translate(-28.34 -29.35)"/><line class="cls-6" x1="350.78" y1="442.98" x2="350.78" y2="468.42"/><polyline class="cls-7" points="399.77 537.61 392.2 537.61 392.2 530.58 392.93 536.91 399.77 537.61"/><line class="cls-6" x1="392.2" y1="537.61" x2="399.77" y2="537.61"/><line class="cls-6" x1="392.2" y1="530.58" x2="392.2" y2="537.61"/><line class="cls-6" x1="392.93" y1="536.91" x2="392.2" y2="530.58"/><line class="cls-6" x1="399.77" y1="537.61" x2="392.93" y2="536.91"/><line class="cls-6" x1="399.77" y1="537.61" x2="399.77" y2="530.58"/><line class="cls-6" x1="399.77" y1="530.58" x2="392.2" y2="530.58"/><line class="cls-6" x1="437.93" y1="455.33" x2="425.46" y2="455.33"/><path class="cls-6" d="M453.27,485.22a.56.56,0,0,1,.53-.54" transform="translate(-28.34 -29.35)"/><line class="cls-6" x1="424.93" y1="455.87" x2="424.93" y2="455.87"/><line class="cls-6" x1="424.93" y1="455.87" x2="424.93" y2="473.2"/><line class="cls-6" x1="424.93" y1="473.2" x2="424.93" y2="490.51"/><path class="cls-6" d="M453.8,520.39a.53.53,0,0,1-.53-.53" transform="translate(-28.34 -29.35)"/><line class="cls-6" x1="425.46" y1="491.04" x2="425.46" y2="491.04"/><line class="cls-6" x1="425.46" y1="491.04" x2="437.93" y2="491.04"/><path class="cls-6" d="M475.44,515.19a10.64,10.64,0,0,1-9.17,5.2" transform="translate(-28.34 -29.35)"/><line class="cls-6" x1="447.1" y1="485.84" x2="447.1" y2="485.84"/><path class="cls-6" d="M479.24,502.55a23,23,0,0,1-3.8,12.64" transform="translate(-28.34 -29.35)"/><line class="cls-6" x1="450.9" y1="473.2" x2="450.9" y2="473.2"/><path class="cls-6" d="M475.44,489.92a22.84,22.84,0,0,1,3.8,12.63" transform="translate(-28.34 -29.35)"/><line class="cls-6" x1="447.1" y1="460.57" x2="447.1" y2="460.57"/><path class="cls-6" d="M466.27,484.68a10.65,10.65,0,0,1,9.17,5.24" transform="translate(-28.34 -29.35)"/><line class="cls-6" x1="437.93" y1="455.33" x2="437.93" y2="455.33"/><line class="cls-6" x1="424.93" y1="501.91" x2="424.93" y2="542.48"/><line class="cls-6" x1="516.91" y1="501.91" x2="424.93" y2="501.91"/><line class="cls-6" x1="516.91" y1="542.48" x2="516.91" y2="501.91"/><line class="cls-6" x1="424.93" y1="542.48" x2="516.91" y2="542.48"/><line class="cls-6" x1="522.88" y1="474.3" x2="522.88" y2="441.83"/><line class="cls-6" x1="490.41" y1="474.3" x2="522.88" y2="474.3"/><line class="cls-6" x1="490.41" y1="441.83" x2="490.41" y2="474.3"/><line class="cls-6" x1="522.88" y1="441.83" x2="490.41" y2="441.83"/><line class="cls-6" x1="246.89" y1="543.02" x2="246.89" y2="510.54"/><line class="cls-6" x1="214.42" y1="543.02" x2="246.89" y2="543.02"/><line class="cls-6" x1="214.42" y1="510.54" x2="214.42" y2="543.02"/><line class="cls-6" x1="246.89" y1="510.54" x2="214.42" y2="510.54"/><line class="cls-6" x1="246.89" y1="543.02" x2="246.89" y2="510.54"/><line class="cls-6" x1="214.42" y1="543.02" x2="246.89" y2="543.02"/><line class="cls-6" x1="214.42" y1="510.54" x2="214.42" y2="543.02"/><line class="cls-6" x1="246.89" y1="510.54" x2="214.42" y2="510.54"/><line class="cls-6" x1="246.36" y1="540.06" x2="246.36" y2="513.53"/><line class="cls-6" x1="214.95" y1="540.06" x2="246.36" y2="540.06"/><line class="cls-6" x1="214.95" y1="513.53" x2="214.95" y2="540.06"/><line class="cls-6" x1="246.36" y1="513.53" x2="214.95" y2="513.53"/><path class="cls-6" d="M271.54,563.44a3.93,3.93,0,1,0-3.91,3.92,3.93,3.93,0,0,0,3.91-3.92" transform="translate(-28.34 -29.35)"/><path class="cls-6" d="M271.52,550.84a5.69,5.69,0,1,0-5.69,5.68,5.68,5.68,0,0,0,5.69-5.68" transform="translate(-28.34 -29.35)"/><path class="cls-6" d="M256,562.4a4.87,4.87,0,1,0-4.87,4.87A4.85,4.85,0,0,0,256,562.4" transform="translate(-28.34 -29.35)"/><path class="cls-6" d="M254,550.05a3.93,3.93,0,1,0-7.85,0,3.93,3.93,0,0,0,7.85,0" transform="translate(-28.34 -29.35)"/><line class="cls-6" x1="291.27" y1="514.62" x2="332.4" y2="514.62"/><path class="cls-6" d="M360.74,544a1.06,1.06,0,0,1,1.07,1.07" transform="translate(-28.34 -29.35)"/><line class="cls-6" x1="333.47" y1="515.69" x2="333.47" y2="540.6"/><path class="cls-6" d="M361.81,569.94a1.06,1.06,0,0,1-1.07,1.07" transform="translate(-28.34 -29.35)"/><line class="cls-6" x1="332.4" y1="541.67" x2="291.27" y2="541.67"/><path class="cls-6" d="M319.61,571a1.06,1.06,0,0,1-1.07-1.07" transform="translate(-28.34 -29.35)"/><line class="cls-6" x1="290.2" y1="540.6" x2="290.2" y2="515.69"/><path class="cls-6" d="M318.54,545a1.06,1.06,0,0,1,1.07-1.07" transform="translate(-28.34 -29.35)"/><line class="cls-6" x1="279.36" y1="510.54" x2="344.31" y2="510.54"/><line class="cls-6" x1="279.36" y1="543.02" x2="344.31" y2="543.02"/><line class="cls-6" x1="279.36" y1="510.54" x2="279.36" y2="543.02"/><line class="cls-6" x1="344.31" y1="510.54" x2="344.31" y2="543.02"/><line class="cls-6" x1="293.97" y1="517.33" x2="309.92" y2="517.33"/><line class="cls-6" x1="311.02" y1="518.4" x2="311.02" y2="535.17"/><line class="cls-6" x1="309.92" y1="536.26" x2="293.97" y2="536.26"/><line class="cls-6" x1="292.9" y1="535.17" x2="292.9" y2="518.4"/><line class="cls-6" x1="293.97" y1="517.33" x2="293.97" y2="517.33"/><line class="cls-6" x1="313.72" y1="517.33" x2="329.67" y2="517.33"/><line class="cls-6" x1="330.77" y1="518.4" x2="330.77" y2="535.17"/><line class="cls-6" x1="329.68" y1="536.26" x2="313.72" y2="536.26"/><line class="cls-6" x1="312.65" y1="535.17" x2="312.65" y2="518.4"/><line class="cls-6" x1="313.72" y1="517.33" x2="313.72" y2="517.33"/><path class="cls-6" d="M338.26,546.67a1.08,1.08,0,0,1,1.1,1.07" transform="translate(-28.34 -29.35)"/><path class="cls-6" d="M339.36,564.51a1.08,1.08,0,0,1-1.1,1.1" transform="translate(-28.34 -29.35)"/><path class="cls-6" d="M322.31,565.61a1.08,1.08,0,0,1-1.07-1.1" transform="translate(-28.34 -29.35)"/><path class="cls-6" d="M321.24,547.74a1.07,1.07,0,0,1,1.07-1.07" transform="translate(-28.34 -29.35)"/><path class="cls-6" d="M358,546.67a1.08,1.08,0,0,1,1.09,1.07" transform="translate(-28.34 -29.35)"/><path class="cls-6" d="M359.11,564.51a1.08,1.08,0,0,1-1.09,1.1" transform="translate(-28.34 -29.35)"/><path class="cls-6" d="M342.06,565.61a1.08,1.08,0,0,1-1.07-1.1" transform="translate(-28.34 -29.35)"/><path class="cls-6" d="M341,547.74a1.07,1.07,0,0,1,1.07-1.07" transform="translate(-28.34 -29.35)"/><path class="cls-6" d="M339.67,558.69a.48.48,0,0,1,.5-.48.47.47,0,0,1,.48.48h0" transform="translate(-28.34 -29.35)"/><line class="cls-6" x1="312.31" y1="529.34" x2="312.31" y2="540.06"/><path class="cls-6" d="M340.65,569.41a.49.49,0,0,1-1,0" transform="translate(-28.34 -29.35)"/><line class="cls-6" x1="311.33" y1="540.06" x2="311.33" y2="529.34"/><line class="cls-6" x1="310.74" y1="537.28" x2="311.33" y2="537.28"/><line class="cls-6" x1="311.33" y1="537.28" x2="311.33" y2="540.06"/><path class="cls-6" d="M340.65,569.41a.49.49,0,0,1-1,0" transform="translate(-28.34 -29.35)"/><line class="cls-6" x1="312.31" y1="540.06" x2="312.31" y2="537.28"/><line class="cls-6" x1="312.31" y1="537.28" x2="312.9" y2="537.28"/><line class="cls-6" x1="312.9" y1="537.28" x2="312.9" y2="540.79"/><line class="cls-6" x1="312.9" y1="540.79" x2="310.74" y2="540.79"/><line class="cls-6" x1="310.74" y1="540.79" x2="310.74" y2="537.28"/><line class="cls-6" x1="310.77" y1="535.33" x2="311.33" y2="535.33"/><line class="cls-6" x1="311.33" y1="535.33" x2="311.33" y2="537.25"/><line class="cls-6" x1="311.33" y1="537.25" x2="310.77" y2="537.25"/><line class="cls-6" x1="310.77" y1="537.25" x2="310.77" y2="535.33"/><line class="cls-6" x1="312.9" y1="535.33" x2="312.9" y2="537.25"/><line class="cls-6" x1="312.9" y1="537.25" x2="312.31" y2="537.25"/><line class="cls-6" x1="312.31" y1="537.25" x2="312.31" y2="535.33"/><line class="cls-6" x1="312.31" y1="535.33" x2="312.9" y2="535.33"/><line class="cls-6" x1="181.94" y1="510.54" x2="214.42" y2="510.54"/><line class="cls-6" x1="181.94" y1="543.02" x2="214.42" y2="543.02"/><line class="cls-6" x1="181.94" y1="510.54" x2="181.94" y2="543.02"/><line class="cls-6" x1="214.42" y1="510.54" x2="214.42" y2="543.02"/><line class="cls-6" x1="149.5" y1="510.54" x2="181.94" y2="510.54"/><line class="cls-6" x1="149.5" y1="543.02" x2="181.94" y2="543.02"/><line class="cls-6" x1="149.5" y1="510.54" x2="149.5" y2="543.02"/><line class="cls-6" x1="181.94" y1="510.54" x2="181.94" y2="543.02"/><line class="cls-6" x1="246.89" y1="510.54" x2="279.36" y2="510.54"/><line class="cls-6" x1="246.89" y1="543.02" x2="279.36" y2="543.02"/><line class="cls-6" x1="246.89" y1="510.54" x2="246.89" y2="543.02"/><line class="cls-6" x1="279.36" y1="510.54" x2="279.36" y2="543.02"/><line class="cls-6" x1="435.11" y1="554.92" x2="435.11" y2="554.92"/><line class="cls-6" x1="435.11" y1="554.92" x2="452.45" y2="554.92"/><line class="cls-6" x1="452.45" y1="554.92" x2="469.75" y2="554.92"/><line class="cls-6" x1="525.05" y1="554.92" x2="525.05" y2="554.92"/><line class="cls-6" x1="484.44" y1="554.92" x2="525.05" y2="554.92"/><line class="cls-6" x1="424.93" y1="502.44" x2="516.91" y2="502.44"/><line class="cls-6" x1="516.91" y1="502.44" x2="516.91" y2="543.02"/><line class="cls-6" x1="516.91" y1="543.02" x2="424.93" y2="543.02"/><line class="cls-6" x1="424.93" y1="543.02" x2="424.93" y2="502.44"/><line class="cls-6" x1="437.93" y1="455.98" x2="425.46" y2="455.98"/><path class="cls-6" d="M453.27,485.86a.53.53,0,0,1,.53-.53" transform="translate(-28.34 -29.35)"/><line class="cls-6" x1="424.93" y1="456.52" x2="424.93" y2="456.52"/><line class="cls-6" x1="424.93" y1="456.52" x2="424.93" y2="473.82"/><line class="cls-6" x1="424.93" y1="473.82" x2="424.93" y2="491.16"/><path class="cls-6" d="M453.8,521a.55.55,0,0,1-.53-.54" transform="translate(-28.34 -29.35)"/><line class="cls-6" x1="425.46" y1="491.69" x2="425.46" y2="491.69"/><line class="cls-6" x1="425.46" y1="491.69" x2="437.93" y2="491.69"/><path class="cls-6" d="M475.44,515.8a10.65,10.65,0,0,1-9.17,5.24" transform="translate(-28.34 -29.35)"/><line class="cls-6" x1="447.1" y1="486.46" x2="447.1" y2="486.46"/><path class="cls-6" d="M479.24,503.17a22.84,22.84,0,0,1-3.8,12.63" transform="translate(-28.34 -29.35)"/><line class="cls-6" x1="450.9" y1="473.82" x2="450.9" y2="473.82"/><path class="cls-6" d="M475.44,490.54a22.91,22.91,0,0,1,3.8,12.63" transform="translate(-28.34 -29.35)"/><line class="cls-6" x1="447.1" y1="461.19" x2="447.1" y2="461.19"/><path class="cls-6" d="M466.27,485.33a10.63,10.63,0,0,1,9.17,5.21" transform="translate(-28.34 -29.35)"/><line class="cls-6" x1="437.93" y1="455.98" x2="437.93" y2="455.98"/><line class="cls-6" x1="489.87" y1="442.93" x2="522.34" y2="442.93"/><line class="cls-6" x1="522.34" y1="442.93" x2="522.34" y2="475.37"/><line class="cls-6" x1="522.34" y1="475.37" x2="489.87" y2="475.37"/><line class="cls-6" x1="489.87" y1="475.37" x2="489.87" y2="442.93"/><line class="cls-6" x1="65.62" y1="366.08" x2="39.08" y2="366.08"/><line class="cls-6" x1="65.62" y1="365.54" x2="39.08" y2="365.54"/><line class="cls-6" x1="39.08" y1="366.08" x2="39.08" y2="365.54"/><line class="cls-6" x1="65.62" y1="365.54" x2="67.78" y2="365.54"/><line class="cls-6" x1="67.78" y1="366.08" x2="67.78" y2="365.54"/><line class="cls-6" x1="65.62" y1="366.08" x2="67.78" y2="366.08"/><line class="cls-6" x1="45.19" y1="403.95" x2="45.19" y2="373.11"/><line class="cls-6" x1="46" y1="414.79" x2="45.58" y2="414.67"/><line class="cls-6" x1="60.89" y1="414.79" x2="46" y2="414.79"/><line class="cls-6" x1="61.28" y1="414.67" x2="60.89" y2="414.79"/><line class="cls-6" x1="61.56" y1="414.36" x2="61.28" y2="414.67"/><line class="cls-6" x1="61.68" y1="413.97" x2="61.56" y2="414.36"/><line class="cls-6" x1="61.68" y1="372.3" x2="61.68" y2="413.97"/><line class="cls-6" x1="61.56" y1="371.9" x2="61.68" y2="372.3"/><line class="cls-6" x1="61.28" y1="371.59" x2="61.56" y2="371.9"/><line class="cls-6" x1="60.89" y1="371.48" x2="61.28" y2="371.59"/><line class="cls-6" x1="46" y1="371.48" x2="60.89" y2="371.48"/><line class="cls-6" x1="45.58" y1="371.59" x2="46" y2="371.48"/><line class="cls-6" x1="45.3" y1="371.9" x2="45.58" y2="371.59"/><line class="cls-6" x1="45.19" y1="372.3" x2="45.3" y2="371.9"/><line class="cls-6" x1="45.19" y1="413.97" x2="45.19" y2="372.3"/><line class="cls-6" x1="45.3" y1="414.36" x2="45.19" y2="413.97"/><line class="cls-6" x1="45.58" y1="414.67" x2="45.3" y2="414.36"/><line class="cls-6" x1="38.55" y1="365.54" x2="39.08" y2="365.54"/><line class="cls-6" x1="38.55" y1="365.54" x2="38.55" y2="419.68"/><line class="cls-6" x1="39.08" y1="419.68" x2="38.55" y2="419.68"/><line class="cls-6" x1="39.08" y1="365.54" x2="39.08" y2="419.68"/><line class="cls-6" x1="65.62" y1="366.08" x2="65.62" y2="419.68"/><line class="cls-6" x1="39.08" y1="366.08" x2="65.62" y2="366.08"/><line class="cls-6" x1="65.62" y1="419.68" x2="39.08" y2="419.68"/><line class="cls-6" x1="39.08" y1="419.68" x2="39.08" y2="366.08"/><line class="cls-6" x1="38.55" y1="420.22" x2="38.55" y2="419.68"/><line class="cls-6" x1="38.55" y1="420.22" x2="65.62" y2="420.22"/><line class="cls-6" x1="39.08" y1="419.68" x2="65.62" y2="419.68"/><line class="cls-6" x1="65.62" y1="419.68" x2="67.78" y2="419.68"/><line class="cls-6" x1="65.62" y1="420.22" x2="67.78" y2="420.22"/><line class="cls-6" x1="67.78" y1="420.22" x2="67.78" y2="419.68"/><line class="cls-6" x1="135.43" y1="20.56" x2="135.43" y2="42.19"/><line class="cls-6" x1="135.43" y1="53.02" x2="135.43" y2="74.66"/><line class="cls-6" x1="135.43" y1="85.49" x2="135.43" y2="107.13"/><line class="cls-6" x1="135.43" y1="117.96" x2="135.43" y2="139.6"/><line class="cls-6" x1="135.43" y1="150.43" x2="135.43" y2="172.07"/><line class="cls-6" x1="135.43" y1="182.9" x2="135.43" y2="204.54"/><line class="cls-6" x1="135.43" y1="215.37" x2="135.43" y2="237.01"/><line class="cls-6" x1="135.43" y1="247.84" x2="135.43" y2="269.48"/><line class="cls-6" x1="135.43" y1="280.31" x2="135.43" y2="301.95"/><line class="cls-6" x1="135.43" y1="312.78" x2="135.43" y2="334.42"/><line class="cls-6" x1="135.43" y1="345.23" x2="135.43" y2="366.89"/><line class="cls-6" x1="135.43" y1="442.64" x2="135.43" y2="464.28"/><line class="cls-6" x1="135.43" y1="475.12" x2="135.43" y2="496.76"/><line class="cls-6" x1="135.43" y1="507.59" x2="135.43" y2="529.23"/><line class="cls-6" x1="146.24" y1="9.73" x2="146.24" y2="31.37"/><line class="cls-6" x1="146.24" y1="42.2" x2="146.24" y2="63.84"/><line class="cls-6" x1="146.24" y1="74.67" x2="146.24" y2="96.31"/><line class="cls-6" x1="146.24" y1="107.14" x2="146.24" y2="128.78"/><line class="cls-6" x1="146.24" y1="139.61" x2="146.24" y2="161.25"/><line class="cls-6" x1="146.24" y1="172.07" x2="146.24" y2="193.71"/><line class="cls-6" x1="146.24" y1="204.54" x2="146.24" y2="226.18"/><line class="cls-6" x1="146.24" y1="237" x2="146.24" y2="258.67"/><line class="cls-6" x1="146.24" y1="269.48" x2="146.24" y2="291.11"/><line class="cls-6" x1="146.24" y1="301.95" x2="146.24" y2="323.59"/><line class="cls-6" x1="146.24" y1="334.42" x2="146.24" y2="356.06"/><line class="cls-6" x1="146.24" y1="366.89" x2="146.24" y2="388.53"/><line class="cls-6" x1="146.24" y1="464.28" x2="146.24" y2="485.92"/><line class="cls-6" x1="146.24" y1="496.76" x2="146.24" y2="518.4"/><line class="cls-6" x1="146.24" y1="529.23" x2="146.24" y2="550.87"/><polyline class="cls-7" points="357.81 525.18 360.21 526.16 361.22 528.55 360.21 530.95 357.81 531.93 355.42 530.95 354.44 528.55 355.42 526.16 357.81 525.18"/><line class="cls-6" x1="357.81" y1="525.18" x2="360.21" y2="526.16"/><line class="cls-6" x1="360.21" y1="526.16" x2="361.22" y2="528.55"/><line class="cls-6" x1="361.22" y1="528.55" x2="360.21" y2="530.94"/><line class="cls-6" x1="360.21" y1="530.95" x2="357.81" y2="531.93"/><line class="cls-6" x1="357.81" y1="531.93" x2="355.42" y2="530.94"/><line class="cls-6" x1="355.42" y1="530.95" x2="354.44" y2="528.55"/><line class="cls-6" x1="354.44" y1="528.55" x2="355.42" y2="526.16"/><line class="cls-6" x1="355.42" y1="526.16" x2="357.81" y2="525.18"/><line class="cls-6" x1="349.71" y1="476.47" x2="349.71" y2="535.98"/><line class="cls-6" x1="366.48" y1="476.47" x2="349.71" y2="476.47"/><line class="cls-6" x1="349.71" y1="535.98" x2="366.48" y2="535.98"/><line class="cls-6" x1="366.48" y1="535.98" x2="366.48" y2="476.47"/><polyline class="cls-7" points="358.12 480.52 360.52 481.5 361.5 483.9 360.52 486.29 358.12 487.3 355.73 486.29 354.75 483.9 355.73 481.5 358.12 480.52"/><line class="cls-6" x1="358.12" y1="480.52" x2="355.73" y2="481.5"/><line class="cls-6" x1="355.73" y1="481.5" x2="354.75" y2="483.9"/><line class="cls-6" x1="354.75" y1="483.9" x2="355.73" y2="486.29"/><line class="cls-6" x1="355.73" y1="486.29" x2="358.12" y2="487.3"/><line class="cls-6" x1="358.12" y1="487.3" x2="360.52" y2="486.29"/><line class="cls-6" x1="360.52" y1="486.29" x2="361.5" y2="483.9"/><line class="cls-6" x1="361.5" y1="483.9" x2="360.52" y2="481.5"/><line class="cls-6" x1="360.52" y1="481.5" x2="358.12" y2="480.52"/><line class="cls-6" x1="67.78" y1="360.11" x2="127.3" y2="360.11"/><line class="cls-6" x1="74.26" y1="366.61" x2="127.3" y2="366.61"/><polyline class="cls-7" points="70.48 362.81 70.48 360.11 73.72 360.11 73.72 362.81 70.48 362.81"/><polyline class="cls-7" points="127.3 360.11 127.3 362.81 124.06 362.81 124.06 360.11 127.3 360.11"/><line class="cls-6" x1="70.48" y1="362.81" x2="73.72" y2="362.81"/><line class="cls-6" x1="73.72" y1="362.81" x2="73.72" y2="360.11"/><line class="cls-6" x1="73.72" y1="360.11" x2="70.48" y2="360.11"/><line class="cls-6" x1="127.3" y1="360.11" x2="124.06" y2="360.11"/><line class="cls-6" x1="124.06" y1="360.11" x2="124.06" y2="362.81"/><line class="cls-6" x1="124.06" y1="362.81" x2="127.3" y2="362.81"/><line class="cls-6" x1="73.72" y1="362.81" x2="124.06" y2="362.81"/><line class="cls-6" x1="124.06" y1="360.11" x2="73.72" y2="360.11"/><polyline class="cls-7" points="70.48 362.81 66.69 359.04 70.48 359.04 70.48 362.81"/><line class="cls-6" x1="127.3" y1="360.11" x2="127.3" y2="362.81"/><line class="cls-6" x1="127.3" y1="360.11" x2="127.3" y2="362.81"/><line class="cls-6" x1="127.3" y1="362.81" x2="127.3" y2="366.61"/><line class="cls-6" x1="70.48" y1="362.81" x2="70.48" y2="359.04"/><line class="cls-6" x1="70.48" y1="359.04" x2="66.69" y2="359.04"/><line class="cls-6" x1="67.78" y1="360.11" x2="127.3" y2="360.11"/><line class="cls-6" x1="74.26" y1="366.61" x2="127.3" y2="366.61"/><polyline class="cls-7" points="70.48 362.81 70.48 360.11 73.72 360.11 73.72 362.81 70.48 362.81"/><polyline class="cls-7" points="127.3 360.11 127.3 362.81 124.06 362.81 124.06 360.11 127.3 360.11"/><line class="cls-6" x1="70.48" y1="362.81" x2="73.72" y2="362.81"/><line class="cls-6" x1="73.72" y1="362.81" x2="73.72" y2="360.11"/><line class="cls-6" x1="73.72" y1="360.11" x2="70.48" y2="360.11"/><line class="cls-6" x1="127.3" y1="360.11" x2="124.06" y2="360.11"/><line class="cls-6" x1="124.06" y1="360.11" x2="124.06" y2="362.81"/><line class="cls-6" x1="124.06" y1="362.81" x2="127.3" y2="362.81"/><line class="cls-6" x1="73.72" y1="362.81" x2="124.06" y2="362.81"/><line class="cls-6" x1="124.06" y1="360.11" x2="73.72" y2="360.11"/><polyline class="cls-7" points="70.48 362.81 66.69 359.04 70.48 359.04 70.48 362.81"/><line class="cls-6" x1="127.3" y1="360.11" x2="127.3" y2="362.81"/><line class="cls-6" x1="127.3" y1="360.11" x2="127.3" y2="362.81"/><line class="cls-6" x1="127.3" y1="362.81" x2="127.3" y2="366.61"/><line class="cls-6" x1="70.48" y1="362.81" x2="70.48" y2="359.04"/><line class="cls-6" x1="70.48" y1="359.04" x2="66.69" y2="359.04"/><rect class="cls-8" x="525.05" y="371.3" width="10.81" height="183.62"/></svg>