<svg id="_3" data-name="3" xmlns="http://www.w3.org/2000/svg" viewBox="0 0 898.36 852.63"><defs><style>.cls-1{isolation:isolate;font-size:12px;fill:#969696;}.cls-1,.cls-4,.cls-6{font-family:PTSans-Regular, PT Sans;}.cls-2,.cls-3,.cls-5,.cls-7{fill:none;stroke-linecap:round;stroke-linejoin:round;}.cls-2{stroke:#969696;stroke-width:0.75px;}.cls-3,.cls-5,.cls-7{stroke:#000;}.cls-4{font-size:40px;}.cls-5{stroke-width:0.5px;}.cls-6{font-size:36px;}.cls-7{stroke-width:0.25px;stroke-dasharray:1 1;}</style></defs><title>2floor_3flat</title><text class="cls-1" transform="translate(441.04 10.2)">двор</text><line class="cls-2" x1="430.28" y1="4.22" x2="430.28" y2="13.02"/><polyline class="cls-2" points="433.78 7.72 430.28 4.22 426.78 7.72"/><polyline class="cls-3" points="11.86 97.87 11.86 98.87 11.86 97.87"/><line class="cls-3" x1="113.5" y1="98.87" x2="11.86" y2="98.87"/><line class="cls-3" x1="419.53" y1="98.87" x2="281.12" y2="98.87"/><line class="cls-3" x1="897.86" y1="98.87" x2="831.99" y2="98.87"/><line class="cls-3" x1="664.38" y1="98.87" x2="550.47" y2="98.87"/><polyline class="cls-3" points="11.86 98.87 11.86 105.54 11.86 98.87"/><line class="cls-3" x1="546.69" y1="98.87" x2="546.69" y2="108.23"/><line class="cls-3" x1="423.32" y1="98.87" x2="423.32" y2="108.23"/><line class="cls-3" x1="546.69" y1="97.87" x2="546.69" y2="98.87"/><line class="cls-3" x1="423.32" y1="97.87" x2="423.32" y2="98.87"/><line class="cls-3" x1="550.47" y1="108.23" x2="550.47" y2="108.23"/><polyline class="cls-3" points="550.47 98.87 547.59 98.87 547.59 108.23 547.59 98.87"/><line class="cls-3" x1="547.58" y1="97.87" x2="546.69" y2="97.87"/><line class="cls-3" x1="419.53" y1="108.23" x2="419.53" y2="108.23"/><polyline class="cls-3" points="419.53 98.87 422.32 98.87 422.32 108.23 422.32 98.87"/><line class="cls-3" x1="422.32" y1="97.87" x2="423.32" y2="97.87"/><polyline class="cls-3" points="550.47 108.23 550.47 113.91 550.47 131.75"/><polyline class="cls-3" points="419.53 108.23 419.53 113.91 419.53 131.75"/><line class="cls-3" x1="828.2" y1="98.87" x2="828.2" y2="108.23"/><line class="cls-3" x1="668.16" y1="98.87" x2="668.16" y2="108.23"/><line class="cls-3" x1="828.2" y1="97.87" x2="828.2" y2="98.87"/><line class="cls-3" x1="668.16" y1="97.87" x2="668.16" y2="98.87"/><line class="cls-3" x1="831.99" y1="108.23" x2="831.99" y2="108.23"/><polyline class="cls-3" points="831.99 98.87 829.1 98.87 829.1 108.23 829.1 98.87"/><line class="cls-3" x1="829.1" y1="97.87" x2="828.2" y2="97.87"/><line class="cls-3" x1="664.38" y1="108.23" x2="664.38" y2="108.23"/><polyline class="cls-3" points="664.38 98.87 667.17 98.87 667.17 108.23 667.17 98.87"/><line class="cls-3" x1="667.17" y1="97.87" x2="668.16" y2="97.87"/><polyline class="cls-3" points="831.99 108.23 831.99 113.91 831.99 131.75"/><polyline class="cls-3" points="664.38 108.23 664.38 113.91 664.38 131.75"/><line class="cls-3" x1="277.33" y1="98.87" x2="277.33" y2="108.23"/><line class="cls-3" x1="117.29" y1="98.87" x2="117.29" y2="108.23"/><line class="cls-3" x1="277.33" y1="97.87" x2="277.33" y2="98.87"/><line class="cls-3" x1="117.29" y1="97.87" x2="117.29" y2="98.87"/><line class="cls-3" x1="281.12" y1="108.23" x2="281.12" y2="108.23"/><polyline class="cls-3" points="281.12 98.87 278.33 98.87 278.33 108.23 278.33 98.87"/><line class="cls-3" x1="278.33" y1="97.87" x2="277.33" y2="97.87"/><line class="cls-3" x1="113.5" y1="108.23" x2="113.5" y2="108.23"/><polyline class="cls-3" points="113.5 98.87 116.3 98.87 116.3 108.23 116.3 98.87"/><line class="cls-3" x1="116.29" y1="97.87" x2="117.29" y2="97.87"/><polyline class="cls-3" points="281.12 108.23 281.12 113.91 281.12 131.75"/><polyline class="cls-3" points="113.5 108.23 113.5 113.91 113.5 131.75"/><line class="cls-3" x1="50.43" y1="131.75" x2="113.5" y2="131.75"/><line class="cls-3" x1="281.12" y1="131.75" x2="370.6" y2="131.75"/><line class="cls-3" x1="389.44" y1="131.75" x2="419.53" y2="131.75"/><line class="cls-3" x1="550.47" y1="131.75" x2="605.98" y2="131.75"/><line class="cls-3" x1="624.81" y1="131.75" x2="664.38" y2="131.75"/><line class="cls-3" x1="831.99" y1="131.75" x2="879.02" y2="131.75"/><line class="cls-3" x1="897.86" y1="131.75" x2="897.86" y2="131.75"/><line class="cls-3" x1="897.86" y1="97.87" x2="829.1" y2="97.87"/><line class="cls-3" x1="667.17" y1="97.87" x2="547.58" y2="97.87"/><line class="cls-3" x1="422.32" y1="97.87" x2="278.33" y2="97.87"/><polyline class="cls-3" points="0.5 97.87 11.86 97.87 116.3 97.87"/><line class="cls-3" x1="423.32" y1="97.87" x2="546.69" y2="97.87"/><line class="cls-3" x1="419.53" y1="131.75" x2="550.47" y2="131.75"/><polyline class="cls-3" points="419.53 113.91 424.71 113.91 424.71 110.13 427.11 110.13 427.11 108.23 419.53 108.23"/><polyline class="cls-3" points="503.34 108.23 499.55 108.23 499.55 110.13 501.94 110.13 501.94 113.91 503.34 113.91"/><line class="cls-3" x1="499.55" y1="108.23" x2="427.11" y2="108.23"/><polyline class="cls-3" points="424.71 115.81 430.39 115.81 496.26 115.81"/><polyline class="cls-3" points="430.39 115.81 430.39 110.13 424.71 110.13 424.71 115.81"/><polyline class="cls-3" points="501.94 110.13 496.26 110.13 496.26 115.81 501.94 115.81 501.94 110.13"/><line class="cls-3" x1="496.26" y1="110.13" x2="430.39" y2="110.13"/><line class="cls-3" x1="430.39" y1="115.81" x2="496.26" y2="115.81"/><line class="cls-3" x1="430.39" y1="112.92" x2="496.26" y2="112.92"/><polyline class="cls-3" points="503.34 113.91 504.74 113.91 504.74 110.13 507.13 110.13 507.13 108.23 503.34 108.23"/><polyline class="cls-3" points="550.47 108.23 542.9 108.23 542.9 110.13 545.29 110.13 545.29 113.91 550.47 113.91"/><line class="cls-3" x1="542.9" y1="108.23" x2="507.13" y2="108.23"/><polyline class="cls-3" points="504.74 115.81 510.42 115.81 539.61 115.81"/><polyline class="cls-3" points="510.42 115.81 510.42 110.13 504.74 110.13 504.74 115.81"/><polyline class="cls-3" points="545.29 110.13 539.61 110.13 539.61 115.81 545.29 115.81 545.29 110.13"/><line class="cls-3" x1="539.61" y1="110.13" x2="510.41" y2="110.13"/><line class="cls-3" x1="510.41" y1="115.81" x2="539.61" y2="115.81"/><line class="cls-3" x1="510.41" y1="112.92" x2="539.61" y2="112.92"/><polyline class="cls-3" points="419.53 131.75 419.53 113.91 419.53 108.23 419.53 113.91"/><polyline class="cls-3" points="550.47 131.75 550.47 113.91 550.47 108.23 550.47 113.91"/><line class="cls-3" x1="423.32" y1="97.87" x2="423.32" y2="98.87"/><polyline class="cls-3" points="423.32 108.23 422.32 108.23 423.32 108.23"/><polyline class="cls-3" points="422.32 108.23 419.53 108.23 422.32 108.23"/><line class="cls-3" x1="546.69" y1="97.87" x2="546.69" y2="98.87"/><polyline class="cls-3" points="546.69 108.23 547.59 108.23 546.69 108.23"/><polyline class="cls-3" points="547.59 108.23 550.47 108.23 547.59 108.23"/><line class="cls-3" x1="423.32" y1="98.87" x2="423.32" y2="108.23"/><line class="cls-3" x1="546.69" y1="98.87" x2="546.69" y2="108.23"/><line class="cls-3" x1="668.16" y1="97.87" x2="828.2" y2="97.87"/><line class="cls-3" x1="664.38" y1="131.75" x2="831.99" y2="131.75"/><polyline class="cls-3" points="664.38 113.91 669.56 113.91 669.56 110.13 671.85 110.13 671.85 108.23 664.38 108.23"/><polyline class="cls-3" points="748.18 108.23 744.39 108.23 744.39 110.13 746.79 110.13 746.79 113.91 748.18 113.91"/><line class="cls-3" x1="744.4" y1="108.23" x2="671.85" y2="108.23"/><polyline class="cls-3" points="669.56 115.81 675.24 115.81 741.11 115.81"/><polyline class="cls-3" points="675.24 115.81 675.24 110.13 669.56 110.13 669.56 115.81"/><polyline class="cls-3" points="746.79 110.13 741.11 110.13 741.11 115.81 746.79 115.81 746.79 110.13"/><line class="cls-3" x1="741.11" y1="110.13" x2="675.24" y2="110.13"/><line class="cls-3" x1="675.24" y1="115.81" x2="741.11" y2="115.81"/><line class="cls-3" x1="675.24" y1="112.92" x2="741.11" y2="112.92"/><polyline class="cls-3" points="748.18 113.91 749.58 113.91 749.58 110.13 751.97 110.13 751.97 108.23 748.18 108.23"/><polyline class="cls-3" points="831.99 108.23 824.41 108.23 824.41 110.13 826.81 110.13 826.81 113.91 831.99 113.91"/><line class="cls-3" x1="824.42" y1="108.23" x2="751.97" y2="108.23"/><polyline class="cls-3" points="749.58 115.81 755.26 115.81 821.13 115.81"/><polyline class="cls-3" points="755.26 115.81 755.26 110.13 749.58 110.13 749.58 115.81"/><polyline class="cls-3" points="826.81 110.13 821.13 110.13 821.13 115.81 826.81 115.81 826.81 110.13"/><line class="cls-3" x1="821.13" y1="110.13" x2="755.26" y2="110.13"/><line class="cls-3" x1="755.26" y1="115.81" x2="821.13" y2="115.81"/><line class="cls-3" x1="755.26" y1="112.92" x2="821.13" y2="112.92"/><polyline class="cls-3" points="664.38 131.75 664.38 113.91 664.38 108.23 664.38 113.91"/><polyline class="cls-3" points="831.99 131.75 831.99 113.91 831.99 108.23 831.99 113.91"/><line class="cls-3" x1="668.16" y1="97.87" x2="668.16" y2="98.87"/><polyline class="cls-3" points="668.16 108.23 667.17 108.23 668.16 108.23"/><polyline class="cls-3" points="667.17 108.23 664.38 108.23 667.17 108.23"/><line class="cls-3" x1="828.2" y1="97.87" x2="828.2" y2="98.87"/><polyline class="cls-3" points="828.2 108.23 829.1 108.23 828.2 108.23"/><polyline class="cls-3" points="829.1 108.23 831.99 108.23 829.1 108.23"/><line class="cls-3" x1="668.16" y1="98.87" x2="668.16" y2="108.23"/><line class="cls-3" x1="828.2" y1="98.87" x2="828.2" y2="108.23"/><line class="cls-3" x1="117.29" y1="97.87" x2="277.33" y2="97.87"/><line class="cls-3" x1="113.5" y1="131.75" x2="281.12" y2="131.75"/><polyline class="cls-3" points="113.5 113.91 118.69 113.91 118.69 110.13 121.08 110.13 121.08 108.23 113.5 108.23"/><polyline class="cls-3" points="197.31 108.23 193.52 108.23 193.52 110.13 195.92 110.13 195.92 113.91 197.31 113.91"/><line class="cls-3" x1="193.52" y1="108.23" x2="121.08" y2="108.23"/><polyline class="cls-3" points="118.69 115.81 124.37 115.81 190.24 115.81"/><polyline class="cls-3" points="124.37 115.81 124.37 110.13 118.69 110.13 118.69 115.81"/><polyline class="cls-3" points="195.92 110.13 190.24 110.13 190.24 115.81 195.92 115.81 195.92 110.13"/><line class="cls-3" x1="190.24" y1="110.13" x2="124.37" y2="110.13"/><line class="cls-3" x1="124.37" y1="115.81" x2="190.24" y2="115.81"/><line class="cls-3" x1="124.37" y1="112.92" x2="190.24" y2="112.92"/><polyline class="cls-3" points="197.31 113.91 198.71 113.91 198.71 110.13 201.1 110.13 201.1 108.23 197.31 108.23"/><polyline class="cls-3" points="281.12 108.23 273.54 108.23 273.54 110.13 275.94 110.13 275.94 113.91 281.12 113.91"/><line class="cls-3" x1="273.54" y1="108.23" x2="201.1" y2="108.23"/><polyline class="cls-3" points="198.71 115.81 204.39 115.81 270.26 115.81"/><polyline class="cls-3" points="204.39 115.81 204.39 110.13 198.71 110.13 198.71 115.81"/><polyline class="cls-3" points="275.94 110.13 270.26 110.13 270.26 115.81 275.94 115.81 275.94 110.13"/><line class="cls-3" x1="270.26" y1="110.13" x2="204.39" y2="110.13"/><line class="cls-3" x1="204.39" y1="115.81" x2="270.26" y2="115.81"/><line class="cls-3" x1="204.39" y1="112.92" x2="270.26" y2="112.92"/><polyline class="cls-3" points="113.5 131.75 113.5 113.91 113.5 108.23 113.5 113.91"/><polyline class="cls-3" points="281.12 131.75 281.12 113.91 281.12 108.23 281.12 113.91"/><line class="cls-3" x1="117.29" y1="97.87" x2="117.29" y2="98.87"/><polyline class="cls-3" points="117.29 108.23 116.3 108.23 117.29 108.23"/><polyline class="cls-3" points="116.3 108.23 113.5 108.23 116.3 108.23"/><line class="cls-3" x1="277.33" y1="97.87" x2="277.33" y2="98.87"/><polyline class="cls-3" points="277.33 108.23 278.33 108.23 277.33 108.23"/><polyline class="cls-3" points="278.33 108.23 281.12 108.23 278.33 108.23"/><line class="cls-3" x1="117.29" y1="98.87" x2="117.29" y2="108.23"/><line class="cls-3" x1="277.33" y1="98.87" x2="277.33" y2="108.23"/><line class="cls-3" x1="11.86" y1="773.01" x2="11.86" y2="852.13"/><line class="cls-3" x1="12.76" y1="773.01" x2="12.76" y2="852.13"/><line class="cls-3" x1="0.5" y1="773.01" x2="0.5" y2="852.13"/><line class="cls-3" x1="50.43" y1="833.29" x2="50.43" y2="773.01"/><polyline class="cls-3" points="11.86 108.23 11.86 105.54 11.86 108.23"/><polyline class="cls-3" points="11.86 131.75 12.76 131.75 11.86 131.75 11.86 108.23 11.86 131.75"/><line class="cls-3" x1="11.86" y1="676.94" x2="11.86" y2="773.01"/><line class="cls-3" x1="11.86" y1="131.75" x2="11.86" y2="578.09"/><polyline class="cls-3" points="12.76 131.75 31.59 131.75 12.76 131.75"/><line class="cls-3" x1="12.76" y1="680.73" x2="12.76" y2="773.01"/><line class="cls-3" x1="12.76" y1="131.75" x2="12.76" y2="574.3"/><line class="cls-3" x1="18.44" y1="680.73" x2="50.43" y2="680.73"/><line class="cls-3" x1="0.5" y1="676.94" x2="11.86" y2="676.94"/><line class="cls-3" x1="12.76" y1="680.73" x2="18.44" y2="680.73"/><line class="cls-3" x1="18.44" y1="574.3" x2="50.43" y2="574.3"/><line class="cls-3" x1="0.5" y1="578.09" x2="11.86" y2="578.09"/><line class="cls-3" x1="12.76" y1="574.3" x2="18.44" y2="574.3"/><line class="cls-3" x1="50.43" y1="773.01" x2="50.43" y2="680.73"/><line class="cls-3" x1="50.43" y1="574.3" x2="50.43" y2="517.8"/><line class="cls-3" x1="50.43" y1="423.73" x2="50.43" y2="207.09"/><line class="cls-3" x1="0.5" y1="97.87" x2="0.5" y2="578.09"/><line class="cls-3" x1="0.5" y1="676.94" x2="0.5" y2="773.01"/><line class="cls-3" x1="0.5" y1="578.09" x2="0.5" y2="676.94"/><line class="cls-3" x1="50.43" y1="574.3" x2="50.43" y2="680.73"/><polyline class="cls-3" points="18.44 574.3 18.44 579.48 14.65 579.48 14.65 581.88 12.76 581.88 12.76 574.3"/><polyline class="cls-3" points="12.76 680.73 12.76 673.25 14.65 673.25 14.65 675.55 18.44 675.55 18.44 680.73"/><line class="cls-3" x1="12.76" y1="673.26" x2="12.76" y2="581.88"/><polyline class="cls-3" points="20.33 579.48 20.33 585.16 20.33 669.87"/><polyline class="cls-3" points="20.33 585.16 14.65 585.16 14.65 579.48 20.33 579.48"/><polyline class="cls-3" points="14.65 675.55 14.65 669.87 20.33 669.87 20.33 675.55 14.65 675.55"/><line class="cls-3" x1="14.65" y1="669.87" x2="14.65" y2="585.16"/><line class="cls-3" x1="20.33" y1="585.16" x2="20.33" y2="669.87"/><line class="cls-3" x1="17.44" y1="585.16" x2="17.44" y2="669.87"/><polyline class="cls-3" points="18.44 574.3 12.76 574.3 18.44 574.3"/><polyline class="cls-3" points="12.76 574.3 12.76 578.09 12.76 574.3"/><polyline class="cls-3" points="0.5 578.09 11.86 578.09 12.76 578.09"/><line class="cls-3" x1="18.44" y1="574.3" x2="50.43" y2="574.3"/><polyline class="cls-3" points="18.44 680.73 12.76 680.73 18.44 680.73"/><polyline class="cls-3" points="12.76 680.73 12.76 676.94 12.76 680.73"/><polyline class="cls-3" points="0.5 676.94 11.86 676.94 12.76 676.94"/><line class="cls-3" x1="18.44" y1="680.73" x2="50.43" y2="680.73"/><polyline class="cls-3" points="758.55 95.58 758.55 43.76 758.95 43.76 758.95 95.58 758.55 95.58"/><polyline class="cls-3" points="757.15 42.36 670.45 42.36 670.45 41.87 757.15 41.87 757.15 42.36"/><polyline class="cls-3" points="669.06 43.76 669.06 95.58 668.56 95.58 668.56 43.76 669.06 43.76"/><polyline class="cls-3" points="757.15 97.87 757.15 95.58 759.44 95.58 759.44 97.87 757.15 97.87"/><polyline class="cls-3" points="757.15 43.76 757.15 41.37 759.44 41.37 759.44 43.76 757.15 43.76"/><polyline class="cls-3" points="670.45 43.76 668.16 43.76 668.16 41.37 670.45 41.37 670.45 43.76"/><polyline class="cls-3" points="670.45 95.58 670.45 97.87 668.16 97.87 668.16 95.58 670.45 95.58"/><line class="cls-3" x1="757.15" y1="96.67" x2="757.15" y2="43.76"/><line class="cls-3" x1="759.44" y1="41.37" x2="759.44" y2="96.67"/><line class="cls-3" x1="757.15" y1="43.76" x2="670.45" y2="43.76"/><line class="cls-3" x1="668.16" y1="41.37" x2="759.44" y2="41.37"/><line class="cls-3" x1="670.45" y1="43.76" x2="670.45" y2="96.67"/><line class="cls-3" x1="668.16" y1="96.67" x2="668.16" y2="41.37"/><polyline class="cls-3" points="759.44 96.67 759.44 97.87 757.15 97.87 757.15 96.67"/><polyline class="cls-3" points="670.45 96.67 670.45 97.87 668.16 97.87 668.16 96.67"/><polyline class="cls-3" points="668.16 41.37 759.44 41.37 759.44 96.67 757.15 96.67 757.15 43.76 670.45 43.76 670.45 96.67 668.16 96.67 668.16 41.37"/><polyline class="cls-3" points="672.85 58.31 754.76 58.31 754.76 88.5 672.85 88.5 672.85 58.31"/><polyline class="cls-3" points="672.85 61.4 754.76 61.4 754.76 88.5 672.85 88.5 672.85 61.4"/><polyline class="cls-3" points="50.42 852.13 50.42 833.29 31.59 833.29 31.59 852.13"/><polyline class="cls-3" points="31.59 207.09 50.42 207.09 50.42 112.92 31.59 112.92 31.59 207.09"/><polyline class="cls-3" points="50.42 423.73 31.59 423.73 31.59 517.8 50.42 517.8 50.42 423.73"/><polyline class="cls-3" points="709.52 772.11 709.52 764.54 709.52 753.27"/><polyline class="cls-3" points="568.31 772.11 615.45 772.11 615.45 764.54 615.45 753.27"/><line class="cls-3" x1="803.69" y1="772.11" x2="897.86" y2="772.11"/><line class="cls-3" x1="897.86" y1="753.28" x2="897.86" y2="753.28"/><line class="cls-3" x1="879.02" y1="753.28" x2="803.69" y2="753.28"/><line class="cls-3" x1="615.45" y1="753.28" x2="549.48" y2="753.28"/><path class="cls-3" d="M705.88,706.19a86.65,86.65,0,0,0-86.65,86.65" transform="translate(0 -28.35)"/><polyline class="cls-3" points="615.45 772.11 619.13 772.11 619.13 764.54 615.45 764.54 615.45 772.11"/><polyline class="cls-3" points="709.52 764.54 705.83 764.54 705.83 772.11 709.52 772.11 709.52 764.54"/><line class="cls-3" x1="705.83" y1="764.54" x2="705.83" y2="677.94"/><polyline class="cls-3" points="615.45 753.27 615.45 764.54 615.45 772.11 615.45 764.54"/><polyline class="cls-3" points="709.52 753.27 709.52 764.54 709.52 772.11 709.52 764.54"/><polyline class="cls-3" points="549.48 753.27 549.48 772.11 549.48 833.29"/><line class="cls-3" x1="549.48" y1="852.13" x2="549.48" y2="852.13"/><line class="cls-3" x1="568.31" y1="852.13" x2="568.31" y2="772.11"/><line class="cls-3" x1="0.5" y1="852.13" x2="304.64" y2="852.13"/><line class="cls-3" x1="398.81" y1="852.13" x2="568.31" y2="852.13"/><line class="cls-3" x1="549.48" y1="833.29" x2="398.81" y2="833.29"/><line class="cls-3" x1="304.64" y1="833.29" x2="50.43" y2="833.29"/><line class="cls-3" x1="897.86" y1="772.11" x2="897.86" y2="517.8"/><line class="cls-3" x1="897.86" y1="423.73" x2="897.86" y2="98.87"/><line class="cls-3" x1="879.02" y1="207.09" x2="879.02" y2="423.73"/><line class="cls-3" x1="879.02" y1="517.8" x2="879.02" y2="753.28"/><line class="cls-3" x1="370.6" y1="207.09" x2="370.6" y2="423.73"/><line class="cls-3" x1="370.6" y1="517.8" x2="370.6" y2="535.74"/><line class="cls-3" x1="378.08" y1="535.74" x2="378.08" y2="517.8"/><line class="cls-3" x1="378.08" y1="423.73" x2="378.08" y2="207.09"/><line class="cls-3" x1="408.27" y1="535.74" x2="408.27" y2="543.31"/><line class="cls-3" x1="483.61" y1="535.74" x2="483.61" y2="543.31"/><line class="cls-3" x1="311.21" y1="535.74" x2="311.21" y2="543.31"/><line class="cls-3" x1="141.81" y1="535.74" x2="141.81" y2="543.31"/><line class="cls-3" x1="624.81" y1="535.74" x2="624.81" y2="543.31"/><line class="cls-3" x1="709.52" y1="535.74" x2="709.52" y2="543.31"/><line class="cls-3" x1="50.43" y1="543.31" x2="141.81" y2="543.31"/><line class="cls-3" x1="311.21" y1="543.31" x2="408.27" y2="543.31"/><line class="cls-3" x1="483.61" y1="543.31" x2="624.81" y2="543.31"/><line class="cls-3" x1="617.24" y1="535.74" x2="483.61" y2="535.74"/><line class="cls-3" x1="408.27" y1="535.74" x2="378.08" y2="535.74"/><line class="cls-3" x1="370.6" y1="535.74" x2="311.21" y2="535.74"/><polyline class="cls-3" points="141.81 535.74 50.42 535.74 50.42 543.31"/><line class="cls-3" x1="483.61" y1="535.74" x2="483.61" y2="543.31"/><line class="cls-3" x1="408.27" y1="535.74" x2="408.27" y2="543.31"/><line class="cls-3" x1="141.81" y1="535.74" x2="141.81" y2="543.31"/><line class="cls-3" x1="311.21" y1="535.74" x2="311.21" y2="543.31"/><line class="cls-3" x1="709.52" y1="535.74" x2="709.52" y2="543.31"/><line class="cls-3" x1="624.81" y1="535.74" x2="624.81" y2="543.31"/><line class="cls-3" x1="557.05" y1="753.28" x2="557.05" y2="646.85"/><polyline class="cls-3" points="549.48 654.42 549.48 753.27 557.05 753.27"/><line class="cls-3" x1="507.13" y1="646.85" x2="507.13" y2="654.42"/><polyline class="cls-3" points="441.16 646.85 441.16 654.42 375.29 654.42"/><line class="cls-3" x1="507.13" y1="654.42" x2="549.48" y2="654.42"/><polyline class="cls-3" points="557.05 646.85 549.48 646.85 507.13 646.85"/><line class="cls-3" x1="441.16" y1="646.85" x2="375.29" y2="646.85"/><line class="cls-3" x1="441.16" y1="646.85" x2="441.16" y2="654.42"/><line class="cls-3" x1="507.13" y1="646.85" x2="507.13" y2="654.42"/><line class="cls-3" x1="709.52" y1="595.03" x2="717.09" y2="595.03"/><polyline class="cls-3" points="709.52 661 717.09 661 717.09 753.27"/><line class="cls-3" x1="717.09" y1="595.03" x2="717.09" y2="515.01"/><line class="cls-3" x1="709.52" y1="507.54" x2="709.52" y2="595.03"/><line class="cls-3" x1="709.52" y1="661" x2="709.52" y2="753.28"/><line class="cls-3" x1="709.52" y1="661" x2="717.09" y2="661"/><line class="cls-3" x1="709.52" y1="595.03" x2="717.09" y2="595.03"/><polyline class="cls-3" points="869.66 708.03 869.66 711.82 869.66 715.61"/><polyline class="cls-3" points="831.99 708.03 831.99 711.82 831.99 715.61"/><line class="cls-3" x1="879.02" y1="708.03" x2="869.66" y2="708.03"/><line class="cls-3" x1="831.99" y1="708.03" x2="824.42" y2="708.03"/><polyline class="cls-3" points="869.66 715.61 879.02 715.61 879.02 708.03"/><line class="cls-3" x1="831.99" y1="708.03" x2="869.66" y2="708.03"/><line class="cls-3" x1="831.99" y1="715.61" x2="869.66" y2="715.61"/><path class="cls-3" d="M834.36,723.47a37.62,37.62,0,0,0-2.27,12.86" transform="translate(0 -28.35)"/><line class="cls-3" x1="869.66" y1="708.03" x2="834.28" y2="695.18"/><polyline class="cls-3" points="831.99 715.61 831.99 711.82 831.99 708.03 831.99 711.82"/><polyline class="cls-3" points="869.66 715.61 869.66 711.82 869.66 708.03 869.66 711.82"/><line class="cls-3" x1="831.99" y1="753.28" x2="831.99" y2="715.61"/><polyline class="cls-3" points="824.41 708.03 824.41 715.61 824.41 753.27 831.99 753.27"/><line class="cls-3" x1="624.81" y1="535.74" x2="624.81" y2="517.8"/><line class="cls-3" x1="624.81" y1="423.73" x2="624.81" y2="207.09"/><line class="cls-3" x1="617.24" y1="207.09" x2="617.24" y2="423.73"/><line class="cls-3" x1="617.24" y1="517.8" x2="617.24" y2="535.74"/><polyline class="cls-3" points="422.32 795.63 422.32 833.29 429.9 833.29 429.9 788.05"/><polyline class="cls-3" points="384.65 788.05 384.65 791.84 384.65 795.63"/><polyline class="cls-3" points="422.32 788.05 422.32 791.84 422.32 795.63"/><line class="cls-3" x1="375.29" y1="795.63" x2="384.65" y2="795.63"/><line class="cls-3" x1="429.9" y1="788.05" x2="422.32" y2="788.05"/><line class="cls-3" x1="384.65" y1="788.05" x2="375.29" y2="788.05"/><line class="cls-3" x1="422.32" y1="788.05" x2="384.65" y2="788.05"/><line class="cls-3" x1="422.32" y1="795.63" x2="384.65" y2="795.63"/><path class="cls-3" d="M422.32,816.35a37.39,37.39,0,0,0-2.27-12.86" transform="translate(0 -28.35)"/><line class="cls-3" x1="384.65" y1="788.05" x2="420.13" y2="775.2"/><polyline class="cls-3" points="422.32 795.63 422.32 791.84 422.32 788.05 422.32 791.84"/><polyline class="cls-3" points="384.65 795.63 384.65 791.84 384.65 788.05 384.65 791.84"/><line class="cls-3" x1="375.29" y1="637.38" x2="367.71" y2="637.38"/><polyline class="cls-3" points="375.29 552.68 367.71 552.68 367.71 543.31"/><line class="cls-3" x1="367.71" y1="637.38" x2="367.71" y2="833.29"/><line class="cls-3" x1="375.29" y1="833.29" x2="375.29" y2="795.63"/><line class="cls-3" x1="375.29" y1="788.05" x2="375.29" y2="654.42"/><line class="cls-3" x1="375.29" y1="646.85" x2="375.29" y2="637.38"/><polyline class="cls-3" points="375.29 552.68 375.29 543.31 367.71 543.31"/><line class="cls-3" x1="375.29" y1="552.68" x2="367.71" y2="552.68"/><line class="cls-3" x1="375.29" y1="637.38" x2="367.71" y2="637.38"/><line class="cls-3" x1="717.09" y1="515.01" x2="879.02" y2="515.01"/><polyline class="cls-3" points="709.52 507.54 717.09 507.54 879.02 507.54"/><polyline class="cls-3" points="398.81 852.13 398.81 833.29 304.63 833.29 304.63 852.13 398.81 852.13"/><polyline class="cls-3" points="879.02 207.09 897.86 207.09 897.86 112.92 879.02 112.92 879.02 207.09"/><polyline class="cls-3" points="897.86 423.73 879.02 423.73 879.02 517.8 897.86 517.8 897.86 423.73"/><polyline class="cls-3" points="370.6 207.09 389.44 207.09 389.44 112.92 370.6 112.92 370.6 207.09"/><polyline class="cls-3" points="389.44 423.73 370.6 423.73 370.6 517.8 389.44 517.8 389.44 423.73"/><polyline class="cls-3" points="605.98 207.09 624.81 207.09 624.81 112.92 605.98 112.92 605.98 207.09"/><polyline class="cls-3" points="803.69 772.11 803.69 753.27 709.52 753.27 709.52 772.11 803.69 772.11"/><polyline class="cls-3" points="624.81 423.73 605.98 423.73 605.98 517.8 624.81 517.8 624.81 423.73"/><line class="cls-3" x1="422.82" y1="852.13" x2="406.78" y2="852.13"/><polyline class="cls-3" points="526.86 811.77 526.86 833.29 476.04 833.29 476.04 811.77"/><line class="cls-3" x1="493.37" y1="833.29" x2="509.42" y2="833.29"/><line class="cls-3" x1="497.16" y1="816.06" x2="499.85" y2="816.06"/><line class="cls-3" x1="501.45" y1="820.34" x2="501.45" y2="817.55"/><line class="cls-3" x1="503.04" y1="816.06" x2="505.73" y2="816.06"/><line class="cls-3" x1="501.45" y1="814.46" x2="501.45" y2="811.77"/><path class="cls-3" d="M515,849.45a22.7,22.7,0,0,0,8.79-10.72" transform="translate(0 -28.35)"/><path class="cls-3" d="M501.47,852.6A22.74,22.74,0,0,0,515,849.43" transform="translate(0 -28.35)"/><path class="cls-3" d="M479.21,838.73A22.7,22.7,0,0,0,488,849.45" transform="translate(0 -28.35)"/><path class="cls-3" d="M488,849.43a22.71,22.71,0,0,0,13.51,3.17" transform="translate(0 -28.35)"/><path class="cls-3" d="M518.69,827.29a41.87,41.87,0,0,0-15.42-4.2" transform="translate(0 -28.35)"/><path class="cls-3" d="M480.86,829.41A12.89,12.89,0,0,0,476.05,840" transform="translate(0 -28.35)"/><path class="cls-3" d="M503.28,823a26.43,26.43,0,0,0-3.56,0" transform="translate(0 -28.35)"/><path class="cls-3" d="M487.27,848.59a93,93,0,0,0,28.46,0" transform="translate(0 -28.35)"/><path class="cls-3" d="M477.43,836.73a32,32,0,0,0,7.21,20.76" transform="translate(0 -28.35)"/><path class="cls-3" d="M486.93,859a64.15,64.15,0,0,0,14.55,1.57" transform="translate(0 -28.35)"/><path class="cls-3" d="M484.56,857.5a4.28,4.28,0,0,0,2.35,1.45" transform="translate(0 -28.35)"/><path class="cls-3" d="M487.14,857.52a107.45,107.45,0,0,0,14.34,1" transform="translate(0 -28.35)"/><path class="cls-3" d="M477.33,836.7a28.8,28.8,0,0,0,7.18,19.39" transform="translate(0 -28.35)"/><path class="cls-3" d="M484.57,856.13a4.23,4.23,0,0,0,2.59,1.39" transform="translate(0 -28.35)"/><path class="cls-3" d="M518.45,856.12a28.78,28.78,0,0,0,7.21-19.38" transform="translate(0 -28.35)"/><path class="cls-3" d="M518.33,857.53a32,32,0,0,0,7.23-20.75" transform="translate(0 -28.35)"/><path class="cls-3" d="M501.47,858.56a109.1,109.1,0,0,0,14.33-1" transform="translate(0 -28.35)"/><path class="cls-3" d="M501.43,860.55A63.64,63.64,0,0,0,516,859" transform="translate(0 -28.35)"/><path class="cls-3" d="M515.82,857.52a4.23,4.23,0,0,0,2.6-1.39" transform="translate(0 -28.35)"/><path class="cls-3" d="M516,859a4.22,4.22,0,0,0,2.34-1.45" transform="translate(0 -28.35)"/><path class="cls-3" d="M526.85,840A12.93,12.93,0,0,0,522,829.41" transform="translate(0 -28.35)"/><path class="cls-3" d="M522.12,829.38a19.82,19.82,0,0,0-3.39-2.19" transform="translate(0 -28.35)"/><path class="cls-3" d="M484.26,827.19a20.22,20.22,0,0,0-3.39,2.19" transform="translate(0 -28.35)"/><path class="cls-3" d="M499.72,823.09a41.87,41.87,0,0,0-15.42,4.2" transform="translate(0 -28.35)"/><path class="cls-3" d="M508.5,826.6a29.89,29.89,0,0,0-14,0" transform="translate(0 -28.35)"/><path class="cls-3" d="M523.75,838.7a7.65,7.65,0,0,0-2.62-6.29" transform="translate(0 -28.35)"/><path class="cls-3" d="M521.14,832.5a27.6,27.6,0,0,0-12.67-5.81" transform="translate(0 -28.35)"/><path class="cls-3" d="M481.77,832.41a7.63,7.63,0,0,0-2.63,6.29" transform="translate(0 -28.35)"/><path class="cls-3" d="M494.52,826.69a27.52,27.52,0,0,0-12.66,5.81" transform="translate(0 -28.35)"/><path class="cls-3" d="M504.83,844.36a3.34,3.34,0,1,0-3.33,3.33,3.33,3.33,0,0,0,3.33-3.33" transform="translate(0 -28.35)"/><path class="cls-3" d="M503.84,844.36a2.35,2.35,0,1,0-2.34,2.34,2.35,2.35,0,0,0,2.34-2.34" transform="translate(0 -28.35)"/><line class="cls-3" x1="389.74" y1="701.95" x2="423.02" y2="701.95"/><polyline class="cls-3" points="387.74 700.56 375.29 700.56 375.29 736.33"/><line class="cls-3" x1="395.62" y1="718.4" x2="395.62" y2="731.65"/><polyline class="cls-3" points="422.92 701.96 395.62 705.14 395.62 718.4"/><line class="cls-3" x1="422.92" y1="734.84" x2="395.62" y2="731.65"/><line class="cls-3" x1="422.92" y1="702.75" x2="395.62" y2="705.94"/><line class="cls-3" x1="422.92" y1="734.04" x2="395.62" y2="730.85"/><line class="cls-3" x1="389.74" y1="734.84" x2="423.02" y2="734.84"/><line class="cls-3" x1="375.29" y1="736.33" x2="387.74" y2="736.33"/><polyline class="cls-3" points="422.92 701.96 426.61 702.35 430.1 703.85 433.19 706.04 435.68 709.03 437.37 712.52 438.27 716.4 438.27 720.39 437.37 724.28 435.68 727.76 433.19 730.75 430.1 733.05 426.61 734.44 422.92 734.84"/><polyline class="cls-3" points="422.92 702.75 426.41 703.25 429.7 704.55 432.59 706.74 434.98 709.53 436.57 712.82 437.37 716.5 437.37 720.29 436.57 723.98 434.98 727.27 432.59 730.06 429.7 732.25 426.41 733.54 422.92 734.04"/><path class="cls-3" d="M389.88,762.73a150.88,150.88,0,0,0,0-32.08" transform="translate(0 -28.35)"/><path class="cls-3" d="M389.92,730.63a2.1,2.1,0,0,0-2.13-1.82" transform="translate(0 -28.35)"/><path class="cls-3" d="M387.79,764.59a2.12,2.12,0,0,0,2.14-1.84" transform="translate(0 -28.35)"/><path class="cls-3" d="M385,746.7a1.74,1.74,0,1,0-1.74,1.74A1.74,1.74,0,0,0,385,746.7" transform="translate(0 -28.35)"/><polyline class="cls-3" points="311.21 724.97 363.03 724.97 363.03 776.79 311.21 776.79 311.21 724.97"/><polyline class="cls-3" points="316 772.11 316 729.66 353.66 729.66 353.66 772.11 316 772.11"/><line class="cls-3" x1="873.74" y1="526.37" x2="873.74" y2="574.3"/><line class="cls-3" x1="868.36" y1="579.98" x2="751.87" y2="579.98"/><line class="cls-3" x1="868.36" y1="520.69" x2="751.87" y2="520.69"/><line class="cls-3" x1="718.98" y1="585.66" x2="879.02" y2="585.66"/><polyline class="cls-3" points="718.98 585.66 718.98 515.01 879.02 515.01 879.02 585.66"/><line class="cls-3" x1="770.6" y1="530.46" x2="861.78" y2="530.46"/><line class="cls-3" x1="864.48" y1="533.35" x2="864.48" y2="567.33"/><line class="cls-3" x1="770.6" y1="570.12" x2="861.78" y2="570.12"/><line class="cls-3" x1="845.74" y1="548.59" x2="845.74" y2="545.1"/><line class="cls-3" x1="847.34" y1="550.29" x2="850.62" y2="550.29"/><line class="cls-3" x1="845.74" y1="552.08" x2="845.74" y2="555.57"/><line class="cls-3" x1="844.05" y1="550.29" x2="840.76" y2="550.29"/><path class="cls-3" d="M751.92,548.94c-15.49,0-28,13.27-28,29.65s12.56,29.64,28,29.64" transform="translate(0 -28.35)"/><path class="cls-3" d="M868.41,608.23a5.48,5.48,0,0,0,5.33-5.63" transform="translate(0 -28.35)"/><path class="cls-3" d="M873.74,554.67a5.48,5.48,0,0,0-5.33-5.63" transform="translate(0 -28.35)"/><path class="cls-3" d="M845.79,575.65a2.95,2.95,0,1,0,2.74,2.94,2.84,2.84,0,0,0-2.74-2.94" transform="translate(0 -28.35)"/><path class="cls-3" d="M770.65,558.71c-10.32,0-18.68,8.9-18.68,19.88s8.36,19.88,18.68,19.88" transform="translate(0 -28.35)"/><path class="cls-3" d="M864.48,561.65a2.75,2.75,0,0,0-2.65-2.84" transform="translate(0 -28.35)"/><path class="cls-3" d="M861.83,598.47a2.75,2.75,0,0,0,2.65-2.84" transform="translate(0 -28.35)"/><path class="cls-3" d="M845.79,574.65a3.94,3.94,0,1,0,3.74,3.94,3.84,3.84,0,0,0-3.74-3.94" transform="translate(0 -28.35)"/><polyline class="cls-3" points="857.5 667.38 879.02 667.38 879.02 616.55 857.5 616.55"/><line class="cls-3" x1="879.02" y1="633.89" x2="879.02" y2="649.94"/><line class="cls-3" x1="861.78" y1="637.68" x2="861.78" y2="640.37"/><line class="cls-3" x1="866.07" y1="641.96" x2="863.38" y2="641.96"/><line class="cls-3" x1="861.78" y1="643.56" x2="861.78" y2="646.25"/><line class="cls-3" x1="860.19" y1="641.96" x2="857.5" y2="641.96"/><path class="cls-3" d="M856.31,692.55A22.75,22.75,0,0,0,867,683.76" transform="translate(0 -28.35)"/><path class="cls-3" d="M867,683.76a22.67,22.67,0,0,0,3.18-13.52" transform="translate(0 -28.35)"/><path class="cls-3" d="M867,656.67a22.75,22.75,0,0,0-10.72-8.79" transform="translate(0 -28.35)"/><path class="cls-3" d="M870.18,670.19A22.64,22.64,0,0,0,867,656.68" transform="translate(0 -28.35)"/><path class="cls-3" d="M840.57,672a41.87,41.87,0,0,0,4.2,15.42" transform="translate(0 -28.35)"/><path class="cls-3" d="M857.6,644.82A12.89,12.89,0,0,0,847,649.63" transform="translate(0 -28.35)"/><path class="cls-3" d="M840.52,668.48a26.58,26.58,0,0,0,0,3.57" transform="translate(0 -28.35)"/><path class="cls-3" d="M866.17,684.5a93,93,0,0,0,0-28.46" transform="translate(0 -28.35)"/><path class="cls-3" d="M875.07,653.41a32,32,0,0,0-20.76-7.21" transform="translate(0 -28.35)"/><path class="cls-3" d="M878,670.25a63.6,63.6,0,0,0-1.58-14.55" transform="translate(0 -28.35)"/><path class="cls-3" d="M876.53,655.68a4.28,4.28,0,0,0-1.45-2.35" transform="translate(0 -28.35)"/><path class="cls-3" d="M876.13,670.25a107.45,107.45,0,0,0-1-14.34" transform="translate(0 -28.35)"/><path class="cls-3" d="M873.67,653.28a28.8,28.8,0,0,0-19.39-7.18" transform="translate(0 -28.35)"/><path class="cls-3" d="M875,655.93a4.25,4.25,0,0,0-1.4-2.59" transform="translate(0 -28.35)"/><path class="cls-3" d="M854.32,694.33a28.78,28.78,0,0,0,19.38-7.21" transform="translate(0 -28.35)"/><path class="cls-3" d="M854.25,694.33A32,32,0,0,0,875,687.1" transform="translate(0 -28.35)"/><path class="cls-3" d="M875.12,684.57a109.09,109.09,0,0,0,1-14.33" transform="translate(0 -28.35)"/><path class="cls-3" d="M876.47,684.75A63.64,63.64,0,0,0,878,670.2" transform="translate(0 -28.35)"/><path class="cls-3" d="M873.71,687.19a4.23,4.23,0,0,0,1.39-2.6" transform="translate(0 -28.35)"/><path class="cls-3" d="M875.08,687.09a4.22,4.22,0,0,0,1.45-2.34" transform="translate(0 -28.35)"/><path class="cls-3" d="M847,690.8a12.89,12.89,0,0,0,10.61,4.81" transform="translate(0 -28.35)"/><path class="cls-3" d="M844.77,687.5a19.24,19.24,0,0,0,2.19,3.39" transform="translate(0 -28.35)"/><path class="cls-3" d="M847,649.64a19.61,19.61,0,0,0-2.19,3.39" transform="translate(0 -28.35)"/><path class="cls-3" d="M844.77,653.07a41.87,41.87,0,0,0-4.2,15.42" transform="translate(0 -28.35)"/><path class="cls-3" d="M844.08,663.26a29.89,29.89,0,0,0,0,14" transform="translate(0 -28.35)"/><path class="cls-3" d="M850,689.9a7.63,7.63,0,0,0,6.29,2.62" transform="translate(0 -28.35)"/><path class="cls-3" d="M844.17,677.24A27.52,27.52,0,0,0,850,689.9" transform="translate(0 -28.35)"/><path class="cls-3" d="M856.28,647.91a7.61,7.61,0,0,0-6.29,2.63" transform="translate(0 -28.35)"/><path class="cls-3" d="M850,650.63a27.52,27.52,0,0,0-5.81,12.66" transform="translate(0 -28.35)"/><path class="cls-3" d="M865.17,670.27a3.34,3.34,0,1,0-3.34,3.33,3.33,3.33,0,0,0,3.34-3.33" transform="translate(0 -28.35)"/><path class="cls-3" d="M864.18,670.27a2.35,2.35,0,1,0-2.35,2.34,2.35,2.35,0,0,0,2.35-2.34" transform="translate(0 -28.35)"/><line class="cls-3" x1="897.86" y1="633.89" x2="897.86" y2="649.94"/><text class="cls-4" transform="translate(193.55 368.47)">3K</text><text class="cls-4" transform="translate(168.77 418.65)">59.52</text><text class="cls-4" transform="translate(185.29 318.56)">№3</text><polyline class="cls-5" points="154.48 429.46 154.48 280.38 278.81 280.38 278.81 429.46"/><line class="cls-5" x1="154.48" y1="330.17" x2="278.81" y2="330.17"/><line class="cls-5" x1="154.48" y1="429.46" x2="278.81" y2="429.46"/><line class="cls-5" x1="154.48" y1="379.96" x2="278.81" y2="379.96"/><text class="cls-6" transform="translate(461.48 746.2)">3.24</text><text class="cls-6" transform="translate(752.07 657.31)">4.07</text><text class="cls-6" transform="translate(591.53 632.43)">5.74</text><text class="cls-6" transform="translate(714.06 196.42)">11.04</text><text class="cls-6" transform="translate(173.5 196.42)">14.59</text><text class="cls-6" transform="translate(452.7 196.42)">10.46</text><text class="cls-6" transform="translate(155.62 695.18)">10.38</text><line class="cls-7" x1="367.76" y1="638.46" x2="367.76" y2="550.41"/><line class="cls-7" x1="375.24" y1="638.46" x2="375.24" y2="550.41"/><line class="cls-7" x1="314.08" y1="543.26" x2="141.81" y2="543.26"/><line class="cls-7" x1="314.08" y1="535.79" x2="141.81" y2="535.79"/><line class="cls-7" x1="432.52" y1="653.8" x2="515.77" y2="653.8"/><line class="cls-7" x1="432.52" y1="646.08" x2="515.77" y2="646.08"/><line class="cls-7" x1="402.39" y1="543.38" x2="485.64" y2="543.38"/><line class="cls-7" x1="402.39" y1="535.66" x2="485.64" y2="535.66"/><line class="cls-7" x1="624.81" y1="543.38" x2="709.2" y2="543.38"/><line class="cls-7" x1="624.81" y1="535.66" x2="709.2" y2="535.66"/><line class="cls-7" x1="717.17" y1="674.05" x2="717.17" y2="590.8"/><line class="cls-7" x1="709.44" y1="674.05" x2="709.44" y2="590.8"/><line class="cls-7" x1="617.51" y1="772.11" x2="707.6" y2="772.11"/></svg>