<svg id="_8" data-name="8" xmlns="http://www.w3.org/2000/svg" viewBox="0 0 865.37 768.95"><defs><style>.cls-1{isolation:isolate;font-size:12px;fill:#969696;}.cls-1,.cls-5,.cls-7{font-family:PTSans-Regular, PT Sans;}.cls-2{letter-spacing:-0.01em;}.cls-3,.cls-4,.cls-6,.cls-8{fill:none;stroke-linecap:round;stroke-linejoin:round;}.cls-3{stroke:#969696;stroke-width:0.75px;}.cls-4,.cls-6,.cls-8{stroke:#000;}.cls-5{font-size:40px;}.cls-6{stroke-width:0.5px;}.cls-7{font-size:36px;}.cls-8{stroke-width:0.25px;stroke-dasharray:1 1;}</style></defs><title>2floor_8flat</title><text class="cls-1" transform="translate(427.12 765.75)"><tspan class="cls-2">у</tspan><tspan x="5.42" y="0">лица</tspan></text><line class="cls-3" x1="416.36" y1="768.57" x2="416.36" y2="759.77"/><polyline class="cls-3" points="412.86 765.07 416.36 768.57 419.86 765.07"/><line class="cls-4" x1="0.5" y1="668.06" x2="73.44" y2="668.06"/><line class="cls-4" x1="515.1" y1="668.06" x2="636.57" y2="668.06"/><line class="cls-4" x1="796.61" y1="668.06" x2="864.87" y2="668.06"/><line class="cls-4" x1="233.58" y1="668.06" x2="355.06" y2="668.06"/><line class="cls-4" x1="0.5" y1="667.17" x2="69.76" y2="667.17"/><line class="cls-4" x1="518.89" y1="667.17" x2="632.79" y2="667.17"/><line class="cls-4" x1="800.4" y1="667.17" x2="864.87" y2="667.17"/><line class="cls-4" x1="237.27" y1="667.17" x2="351.27" y2="667.17"/><line class="cls-4" x1="69.76" y1="661.49" x2="69.76" y2="629.5"/><line class="cls-4" x1="73.44" y1="679.32" x2="73.44" y2="668.06"/><line class="cls-4" x1="69.76" y1="667.17" x2="69.76" y2="661.49"/><line class="cls-4" x1="237.27" y1="661.49" x2="237.27" y2="629.5"/><line class="cls-4" x1="233.58" y1="679.32" x2="233.58" y2="668.06"/><line class="cls-4" x1="237.27" y1="667.17" x2="237.27" y2="661.49"/><line class="cls-4" x1="351.27" y1="661.49" x2="351.27" y2="629.5"/><line class="cls-4" x1="355.06" y1="679.32" x2="355.06" y2="668.06"/><line class="cls-4" x1="351.27" y1="667.17" x2="351.27" y2="661.49"/><line class="cls-4" x1="518.89" y1="661.49" x2="518.89" y2="629.5"/><line class="cls-4" x1="515.1" y1="679.32" x2="515.1" y2="668.06"/><line class="cls-4" x1="518.89" y1="667.17" x2="518.89" y2="661.49"/><line class="cls-4" x1="632.79" y1="661.49" x2="632.79" y2="629.5"/><line class="cls-4" x1="636.57" y1="679.32" x2="636.57" y2="668.06"/><line class="cls-4" x1="632.79" y1="667.17" x2="632.79" y2="661.49"/><line class="cls-4" x1="800.4" y1="661.49" x2="800.4" y2="629.5"/><line class="cls-4" x1="796.61" y1="679.32" x2="796.61" y2="668.06"/><line class="cls-4" x1="800.4" y1="667.17" x2="800.4" y2="661.49"/><polyline class="cls-4" points="73.44 679.32 0.5 679.32 0.5 604.9"/><line class="cls-4" x1="233.58" y1="679.32" x2="355.06" y2="679.32"/><line class="cls-4" x1="515.1" y1="679.32" x2="636.57" y2="679.32"/><line class="cls-4" x1="796.61" y1="679.32" x2="864.87" y2="679.32"/><line class="cls-4" x1="849.83" y1="629.5" x2="800.4" y2="629.5"/><line class="cls-4" x1="632.79" y1="629.5" x2="584.26" y2="629.5"/><line class="cls-4" x1="565.42" y1="629.5" x2="518.89" y2="629.5"/><line class="cls-4" x1="351.27" y1="629.5" x2="320.68" y2="629.5"/><line class="cls-4" x1="301.85" y1="629.5" x2="237.27" y2="629.5"/><line class="cls-4" x1="69.76" y1="629.5" x2="19.33" y2="629.5"/><line class="cls-4" x1="0.5" y1="629.5" x2="0.5" y2="629.5"/><line class="cls-4" x1="233.58" y1="679.32" x2="73.44" y2="679.32"/><line class="cls-4" x1="237.27" y1="629.5" x2="69.76" y2="629.5"/><polyline class="cls-4" points="237.27 661.49 232.09 661.49 232.09 665.27 229.8 665.27 229.8 667.17 237.27 667.17"/><polyline class="cls-4" points="153.47 667.17 157.25 667.17 157.25 665.27 154.96 665.27 154.96 661.49 153.47 661.49"/><line class="cls-4" x1="157.25" y1="667.17" x2="229.8" y2="667.17"/><polyline class="cls-4" points="232.09 659.59 226.51 659.59 160.54 659.59"/><polyline class="cls-4" points="226.51 659.59 226.51 665.27 232.09 665.27 232.09 659.59"/><polyline class="cls-4" points="154.96 665.27 160.54 665.27 160.54 659.59 154.96 659.59 154.96 665.27"/><line class="cls-4" x1="160.54" y1="665.27" x2="226.51" y2="665.27"/><line class="cls-4" x1="226.51" y1="659.59" x2="160.54" y2="659.59"/><line class="cls-4" x1="226.51" y1="662.38" x2="160.54" y2="662.38"/><polyline class="cls-4" points="153.47 661.49 152.07 661.49 152.07 665.27 149.78 665.27 149.78 667.17 153.47 667.17"/><polyline class="cls-4" points="69.76 667.17 77.23 667.17 77.23 665.27 74.84 665.27 74.84 661.49 69.76 661.49"/><line class="cls-4" x1="77.23" y1="667.17" x2="149.78" y2="667.17"/><polyline class="cls-4" points="152.07 659.59 146.49 659.59 80.52 659.59"/><polyline class="cls-4" points="146.49 659.59 146.49 665.27 152.07 665.27 152.07 659.59"/><polyline class="cls-4" points="74.84 665.27 80.52 665.27 80.52 659.59 74.84 659.59 74.84 665.27"/><line class="cls-4" x1="80.52" y1="665.27" x2="146.49" y2="665.27"/><line class="cls-4" x1="146.49" y1="659.59" x2="80.52" y2="659.59"/><line class="cls-4" x1="146.49" y1="662.38" x2="80.52" y2="662.38"/><polyline class="cls-4" points="237.27 661.49 237.27 667.17 237.27 661.49"/><polyline class="cls-4" points="237.27 667.17 233.58 667.17 237.27 667.17"/><polyline class="cls-4" points="233.58 679.32 233.58 668.06 233.58 667.17"/><line class="cls-4" x1="237.27" y1="661.49" x2="237.27" y2="629.5"/><polyline class="cls-4" points="69.76 661.49 69.76 667.17 69.76 661.49"/><polyline class="cls-4" points="69.76 667.17 73.44 667.17 69.76 667.17"/><polyline class="cls-4" points="73.44 679.32 73.44 668.06 73.44 667.17"/><line class="cls-4" x1="69.76" y1="661.49" x2="69.76" y2="629.5"/><line class="cls-4" x1="515.1" y1="679.32" x2="355.06" y2="679.32"/><line class="cls-4" x1="518.89" y1="629.5" x2="351.27" y2="629.5"/><polyline class="cls-4" points="518.88 661.49 513.7 661.49 513.7 665.27 511.31 665.27 511.31 667.17 518.88 667.17"/><polyline class="cls-4" points="435.08 667.17 438.87 667.17 438.87 665.27 436.47 665.27 436.47 661.49 435.08 661.49"/><line class="cls-4" x1="438.87" y1="667.17" x2="511.31" y2="667.17"/><polyline class="cls-4" points="513.7 659.59 508.02 659.59 442.15 659.59"/><polyline class="cls-4" points="508.02 659.59 508.02 665.27 513.7 665.27 513.7 659.59"/><polyline class="cls-4" points="436.47 665.27 442.15 665.27 442.15 659.59 436.47 659.59 436.47 665.27"/><line class="cls-4" x1="442.15" y1="665.27" x2="508.02" y2="665.27"/><line class="cls-4" x1="508.02" y1="659.59" x2="442.15" y2="659.59"/><line class="cls-4" x1="508.02" y1="662.38" x2="442.15" y2="662.38"/><polyline class="cls-4" points="435.08 661.49 433.68 661.49 433.68 665.27 431.29 665.27 431.29 667.17 435.08 667.17"/><polyline class="cls-4" points="351.27 667.17 358.75 667.17 358.75 665.27 356.45 665.27 356.45 661.49 351.27 661.49"/><line class="cls-4" x1="358.75" y1="667.17" x2="431.29" y2="667.17"/><polyline class="cls-4" points="433.68 659.59 428 659.59 362.04 659.59"/><polyline class="cls-4" points="428 659.59 428 665.27 433.68 665.27 433.68 659.59"/><polyline class="cls-4" points="356.45 665.27 362.04 665.27 362.04 659.59 356.45 659.59 356.45 665.27"/><line class="cls-4" x1="362.03" y1="665.27" x2="428" y2="665.27"/><line class="cls-4" x1="428" y1="659.59" x2="362.03" y2="659.59"/><line class="cls-4" x1="428" y1="662.38" x2="362.03" y2="662.38"/><polyline class="cls-4" points="518.88 661.49 518.88 667.17 518.88 661.49"/><polyline class="cls-4" points="518.88 667.17 515.1 667.17 518.88 667.17"/><polyline class="cls-4" points="515.1 679.32 515.1 668.06 515.1 667.17"/><line class="cls-4" x1="518.89" y1="661.49" x2="518.89" y2="629.5"/><polyline class="cls-4" points="351.27 661.49 351.27 667.17 351.27 661.49"/><polyline class="cls-4" points="351.27 667.17 355.06 667.17 351.27 667.17"/><polyline class="cls-4" points="355.06 679.32 355.06 668.06 355.06 667.17"/><line class="cls-4" x1="351.27" y1="661.49" x2="351.27" y2="629.5"/><line class="cls-4" x1="796.61" y1="679.32" x2="636.57" y2="679.32"/><line class="cls-4" x1="800.4" y1="629.5" x2="632.79" y2="629.5"/><polyline class="cls-4" points="800.4 661.49 795.22 661.49 795.22 665.27 792.83 665.27 792.83 667.17 800.4 667.17"/><polyline class="cls-4" points="716.59 667.17 720.38 667.17 720.38 665.27 717.99 665.27 717.99 661.49 716.59 661.49"/><line class="cls-4" x1="720.38" y1="667.17" x2="792.83" y2="667.17"/><polyline class="cls-4" points="795.22 659.59 789.54 659.59 723.67 659.59"/><polyline class="cls-4" points="789.54 659.59 789.54 665.27 795.22 665.27 795.22 659.59"/><polyline class="cls-4" points="717.99 665.27 723.67 665.27 723.67 659.59 717.99 659.59 717.99 665.27"/><line class="cls-4" x1="723.67" y1="665.27" x2="789.54" y2="665.27"/><line class="cls-4" x1="789.54" y1="659.59" x2="723.67" y2="659.59"/><line class="cls-4" x1="789.54" y1="662.38" x2="723.67" y2="662.38"/><polyline class="cls-4" points="716.59 661.49 715.2 661.49 715.2 665.27 712.81 665.27 712.81 667.17 716.59 667.17"/><polyline class="cls-4" points="632.79 667.17 640.36 667.17 640.36 665.27 637.97 665.27 637.97 661.49 632.79 661.49"/><line class="cls-4" x1="640.36" y1="667.17" x2="712.81" y2="667.17"/><polyline class="cls-4" points="715.2 659.59 709.52 659.59 643.65 659.59"/><polyline class="cls-4" points="709.52 659.59 709.52 665.27 715.2 665.27 715.2 659.59"/><polyline class="cls-4" points="637.97 665.27 643.65 665.27 643.65 659.59 637.97 659.59 637.97 665.27"/><line class="cls-4" x1="643.65" y1="665.27" x2="709.52" y2="665.27"/><line class="cls-4" x1="709.52" y1="659.59" x2="643.65" y2="659.59"/><line class="cls-4" x1="709.52" y1="662.38" x2="643.65" y2="662.38"/><polyline class="cls-4" points="800.4 661.49 800.4 667.17 800.4 661.49"/><polyline class="cls-4" points="800.4 667.17 796.61 667.17 800.4 667.17"/><polyline class="cls-4" points="796.61 679.32 796.61 668.06 796.61 667.17"/><line class="cls-4" x1="800.4" y1="661.49" x2="800.4" y2="629.5"/><polyline class="cls-4" points="632.79 661.49 632.79 667.17 632.79 661.49"/><polyline class="cls-4" points="632.79 667.17 636.57 667.17 632.79 667.17"/><polyline class="cls-4" points="636.57 679.32 636.57 668.06 636.57 667.17"/><line class="cls-4" x1="632.79" y1="661.49" x2="632.79" y2="629.5"/><line class="cls-4" x1="864.87" y1="668.06" x2="864.87" y2="668.06"/><line class="cls-4" x1="864.87" y1="667.17" x2="864.87" y2="667.17"/><line class="cls-4" x1="864.87" y1="661.49" x2="864.87" y2="629.5"/><line class="cls-4" x1="864.87" y1="679.32" x2="864.87" y2="668.06"/><line class="cls-4" x1="864.87" y1="667.17" x2="864.87" y2="661.49"/><line class="cls-4" x1="864.87" y1="679.32" x2="864.87" y2="679.32"/><line class="cls-4" x1="864.87" y1="629.5" x2="864.87" y2="629.5"/><polyline class="cls-4" points="864.87 667.17 864.87 667.17 864.87 665.27 864.87 665.27 864.87 661.49 864.87 661.49"/><polyline class="cls-4" points="864.87 665.27 864.87 665.27 864.87 659.59 864.87 659.59 864.87 665.27"/><polyline class="cls-4" points="864.87 661.49 864.87 667.17 864.87 661.49"/><polyline class="cls-4" points="864.87 667.17 864.87 667.17 864.87 667.17"/><polyline class="cls-4" points="864.87 679.32 864.87 668.06 864.87 667.17"/><line class="cls-4" x1="864.87" y1="661.49" x2="864.87" y2="629.5"/><line class="cls-4" x1="864.87" y1="164.82" x2="864.87" y2="148.78"/><polyline class="cls-4" points="727.46 681.72 726.96 681.72 726.96 733.53 727.46 733.53 727.46 681.72"/><polyline class="cls-4" points="725.56 735.43 725.56 734.93 638.97 734.93 638.97 735.43 725.56 735.43"/><polyline class="cls-4" points="637.07 733.53 637.47 733.53 637.47 681.72 637.07 681.72 637.07 733.53"/><polyline class="cls-4" points="727.85 679.32 725.56 679.32 725.56 681.72 727.85 681.72 727.85 679.32"/><polyline class="cls-4" points="727.85 733.53 725.56 733.53 725.56 735.83 727.85 735.83 727.85 733.53"/><polyline class="cls-4" points="638.97 735.83 638.97 733.53 636.57 733.53 636.57 735.83 638.97 735.83"/><polyline class="cls-4" points="636.57 681.72 638.97 681.72 638.97 679.32 636.57 679.32 636.57 681.72"/><line class="cls-4" x1="725.56" y1="680.52" x2="725.56" y2="733.53"/><line class="cls-4" x1="727.85" y1="735.83" x2="727.85" y2="680.52"/><line class="cls-4" x1="725.56" y1="733.53" x2="638.97" y2="733.53"/><line class="cls-4" x1="636.57" y1="735.83" x2="727.85" y2="735.83"/><line class="cls-4" x1="638.97" y1="733.53" x2="638.97" y2="680.52"/><line class="cls-4" x1="636.57" y1="680.52" x2="636.57" y2="735.83"/><polyline class="cls-4" points="727.85 680.52 727.85 679.32 725.56 679.32 725.56 680.52"/><polyline class="cls-4" points="638.97 680.52 638.97 679.32 636.57 679.32 636.57 680.52"/><polyline class="cls-4" points="636.57 735.83 727.85 735.83 727.85 680.52 725.56 680.52 725.56 733.53 638.97 733.53 638.97 680.52 636.57 680.52 636.57 735.83"/><polyline class="cls-4" points="641.26 718.88 723.17 718.88 723.17 688.79 641.26 688.79 641.26 718.88"/><polyline class="cls-4" points="641.26 715.9 723.17 715.9 723.17 688.79 641.26 688.79 641.26 715.9"/><line class="cls-4" x1="864.87" y1="554.16" x2="864.87" y2="0.5"/><line class="cls-4" x1="849.83" y1="0.5" x2="849.83" y2="554.16"/><polyline class="cls-4" points="316.89 0.5 309.32 0.5 298.06 0.5"/><line class="cls-4" x1="298.06" y1="0.5" x2="298.06" y2="0.5"/><line class="cls-4" x1="316.89" y1="0.5" x2="316.89" y2="0.5"/><polyline class="cls-4" points="316.89 0.5 316.89 0.5 309.32 0.5 309.32 0.5 316.89 0.5"/><polyline class="cls-4" points="298.06 0.5 309.32 0.5 316.89 0.5 309.32 0.5"/><line class="cls-4" x1="546.59" y1="19.33" x2="565.42" y2="19.33"/><polyline class="cls-4" points="659.59 19.33 849.83 19.33 849.83 0.5 659.59 0.5"/><line class="cls-4" x1="565.42" y1="0.5" x2="546.59" y2="0.5"/><line class="cls-4" x1="0.5" y1="0.5" x2="0.5" y2="215.65"/><line class="cls-4" x1="0.5" y1="82.41" x2="0.5" y2="243.45"/><line class="cls-4" x1="0.5" y1="337.62" x2="0.5" y2="554.16"/><line class="cls-4" x1="19.33" y1="554.16" x2="19.33" y2="337.62"/><line class="cls-4" x1="19.33" y1="243.45" x2="19.33" y2="19.33"/><line class="cls-4" x1="301.85" y1="201" x2="301.85" y2="243.45"/><line class="cls-4" x1="301.85" y1="337.62" x2="301.85" y2="554.16"/><line class="cls-4" x1="309.32" y1="554.16" x2="309.32" y2="337.62"/><line class="cls-4" x1="309.32" y1="243.45" x2="309.32" y2="201"/><polyline class="cls-4" points="840.46 64.48 840.46 60.79 840.46 57"/><polyline class="cls-4" points="802.79 64.48 802.79 60.79 802.79 57"/><line class="cls-4" x1="849.83" y1="57" x2="840.46" y2="57"/><line class="cls-4" x1="795.22" y1="64.48" x2="802.79" y2="64.48"/><polyline class="cls-4" points="840.46 64.48 849.83 64.48 849.83 57"/><line class="cls-4" x1="802.79" y1="64.48" x2="840.46" y2="64.48"/><line class="cls-4" x1="802.79" y1="57" x2="840.46" y2="57"/><path class="cls-4" d="M802.89,64.43a37.62,37.62,0,0,0,2.27,12.86"/><line class="cls-4" x1="840.46" y1="64.48" x2="804.98" y2="77.43"/><polyline class="cls-4" points="802.79 57 802.79 60.79 802.79 64.48 802.79 60.79"/><polyline class="cls-4" points="840.46 57 840.46 60.79 840.46 64.48 840.46 60.79"/><line class="cls-4" x1="675.64" y1="109.72" x2="683.21" y2="109.72"/><polyline class="cls-4" points="675.64 175.59 683.21 175.59 683.21 255.71"/><polyline class="cls-4" points="683.21 109.72 683.21 19.33 675.64 19.33 675.64 109.72"/><line class="cls-4" x1="675.64" y1="175.59" x2="675.64" y2="263.18"/><line class="cls-4" x1="675.64" y1="175.59" x2="683.21" y2="175.59"/><line class="cls-4" x1="675.64" y1="109.72" x2="683.21" y2="109.72"/><polyline class="cls-4" points="675.64 263.18 683.21 263.18 849.83 263.18 849.83 255.71 683.21 255.71"/><polyline class="cls-4" points="802.79 57 802.79 19.33 795.22 19.33"/><polyline class="cls-4" points="795.22 64.48 795.22 57 795.22 19.33"/><line class="cls-4" x1="565.42" y1="201" x2="565.42" y2="243.45"/><line class="cls-4" x1="565.42" y1="337.62" x2="565.42" y2="554.16"/><line class="cls-4" x1="573" y1="554.16" x2="573" y2="337.62"/><line class="cls-4" x1="573" y1="243.45" x2="573" y2="201"/><line class="cls-4" x1="194.52" y1="182.26" x2="186.95" y2="182.26"/><polyline class="cls-4" points="194.52 116.3 186.95 116.3 186.95 19.33"/><line class="cls-4" x1="186.95" y1="182.26" x2="186.95" y2="193.52"/><line class="cls-4" x1="194.52" y1="193.52" x2="194.52" y2="182.26"/><polyline class="cls-4" points="194.52 116.3 194.52 19.33 186.95 19.33"/><line class="cls-4" x1="194.52" y1="116.29" x2="186.95" y2="116.29"/><line class="cls-4" x1="194.52" y1="182.26" x2="186.95" y2="182.26"/><polyline class="cls-4" points="64.58 184.06 60.79 184.06 57 184.06"/><polyline class="cls-4" points="64.58 146.39 60.79 146.39 57 146.39"/><line class="cls-4" x1="64.58" y1="193.52" x2="64.58" y2="184.06"/><line class="cls-4" x1="64.58" y1="146.39" x2="64.58" y2="138.92"/><line class="cls-4" x1="57" y1="184.06" x2="57" y2="193.52"/><line class="cls-4" x1="64.58" y1="146.39" x2="64.58" y2="184.06"/><line class="cls-4" x1="57" y1="146.39" x2="57" y2="184.06"/><path class="cls-4" d="M77.49,148.66a37.62,37.62,0,0,0-12.86-2.27"/><line class="cls-4" x1="64.58" y1="184.06" x2="77.43" y2="148.68"/><polyline class="cls-4" points="57 146.39 60.79 146.39 64.58 146.39 60.79 146.39"/><polyline class="cls-4" points="57 184.06 60.79 184.06 64.58 184.06 60.79 184.06"/><polyline class="cls-4" points="64.58 138.92 57 138.92 19.33 138.92 19.33 146.39 57 146.39"/><polyline class="cls-4" points="19.33 201 194.52 201 194.52 193.52"/><line class="cls-4" x1="186.95" y1="193.52" x2="64.58" y2="193.52"/><polyline class="cls-4" points="57 193.52 19.33 193.52 19.33 201"/><polyline class="cls-4" points="203.89 0.5 203.89 7.97 203.89 19.33"/><polyline class="cls-4" points="298.06 0.5 298.06 7.97 298.06 19.33"/><line class="cls-4" x1="19.33" y1="19.33" x2="203.89" y2="19.33"/><line class="cls-4" x1="298.06" y1="19.33" x2="546.59" y2="19.33"/><line class="cls-4" x1="546.59" y1="0.5" x2="316.89" y2="0.5"/><polyline class="cls-4" points="0.5 0.5 19.33 0.5 203.89 0.5"/><path class="cls-4" d="M207.72,94.57A86.64,86.64,0,0,0,294.37,7.92"/><polyline class="cls-4" points="298.06 0.5 294.27 0.5 294.27 7.97 298.06 7.97 298.06 0.5"/><polyline class="cls-4" points="203.89 7.97 207.68 7.97 207.68 0.5 203.89 0.5 203.89 7.97"/><line class="cls-4" x1="207.67" y1="7.97" x2="207.67" y2="94.67"/><polyline class="cls-4" points="298.06 19.33 298.06 7.97 298.06 0.5 298.06 7.97"/><polyline class="cls-4" points="203.89 19.33 203.89 7.97 203.89 0.5 203.89 7.97"/><line class="cls-4" x1="591.83" y1="201" x2="591.83" y2="193.52"/><line class="cls-4" x1="667.17" y1="201" x2="667.17" y2="193.52"/><line class="cls-4" x1="288.59" y1="193.52" x2="288.59" y2="201"/><line class="cls-4" x1="203.89" y1="193.52" x2="203.89" y2="201"/><line class="cls-4" x1="546.59" y1="193.52" x2="546.59" y2="201"/><line class="cls-4" x1="471.35" y1="193.52" x2="471.35" y2="201"/><line class="cls-4" x1="194.52" y1="201" x2="203.89" y2="201"/><line class="cls-4" x1="288.59" y1="201" x2="301.85" y2="201"/><line class="cls-4" x1="309.32" y1="201" x2="471.35" y2="201"/><line class="cls-4" x1="546.59" y1="201" x2="565.42" y2="201"/><line class="cls-4" x1="573" y1="201" x2="591.83" y2="201"/><polyline class="cls-4" points="667.17 201 675.64 201 675.64 193.52 667.17 193.52"/><line class="cls-4" x1="591.83" y1="193.52" x2="546.59" y2="193.52"/><line class="cls-4" x1="471.35" y1="193.52" x2="288.59" y2="193.52"/><polyline class="cls-4" points="203.89 193.52 194.52 193.52 194.52 201"/><line class="cls-4" x1="667.17" y1="201" x2="667.17" y2="193.52"/><line class="cls-4" x1="591.83" y1="201" x2="591.83" y2="193.52"/><line class="cls-4" x1="203.89" y1="193.52" x2="203.89" y2="201"/><line class="cls-4" x1="288.59" y1="193.52" x2="288.59" y2="201"/><line class="cls-4" x1="471.35" y1="193.52" x2="471.35" y2="201"/><line class="cls-4" x1="546.59" y1="193.52" x2="546.59" y2="201"/><polyline class="cls-4" points="0.5 648.33 19.33 648.33 19.33 554.16 0.5 554.16 0.5 648.33"/><polyline class="cls-4" points="0.5 337.62 19.33 337.62 19.33 243.45 0.5 243.45 0.5 337.62"/><polyline class="cls-4" points="301.85 648.33 320.68 648.33 320.68 554.16 301.85 554.16 301.85 648.33"/><polyline class="cls-4" points="301.85 337.62 320.68 337.62 320.68 243.45 301.85 243.45 301.85 337.62"/><polyline class="cls-4" points="659.59 19.33 659.59 0.5 565.42 0.5 565.42 19.33 659.59 19.33"/><polyline class="cls-4" points="565.42 648.33 584.26 648.33 584.26 554.16 565.42 554.16 565.42 648.33"/><polyline class="cls-4" points="565.42 337.62 584.26 337.62 584.26 243.45 565.42 243.45 565.42 337.62"/><polyline class="cls-4" points="849.83 554.16 849.83 629.5 849.83 648.33 864.87 648.33 864.87 629.5 864.87 554.16"/><line class="cls-4" x1="689.79" y1="0.5" x2="849.83" y2="0.5"/><line class="cls-4" x1="864.87" y1="0.5" x2="849.83" y2="0.5"/><polyline class="cls-4" points="149.48 172 149.48 193.52 98.66 193.52 98.66 172"/><line class="cls-4" x1="116" y1="193.52" x2="132.04" y2="193.52"/><line class="cls-4" x1="119.78" y1="176.28" x2="122.47" y2="176.28"/><line class="cls-4" x1="124.07" y1="180.57" x2="124.07" y2="177.78"/><line class="cls-4" x1="125.66" y1="176.28" x2="128.35" y2="176.28"/><line class="cls-4" x1="124.07" y1="174.69" x2="124.07" y2="172"/><path class="cls-4" d="M137.61,181.33a22.69,22.69,0,0,0,8.79-10.72"/><path class="cls-4" d="M124.09,184.48a22.72,22.72,0,0,0,13.52-3.17"/><path class="cls-4" d="M101.74,170.61a22.63,22.63,0,0,0,8.79,10.72"/><path class="cls-4" d="M110.53,181.31A22.71,22.71,0,0,0,124,184.48"/><path class="cls-4" d="M141.32,159.17a42,42,0,0,0-15.43-4.2"/><path class="cls-4" d="M103.49,161.29a12.87,12.87,0,0,0-4.82,10.61"/><path class="cls-4" d="M125.9,154.92a26.43,26.43,0,0,0-3.56,0"/><path class="cls-4" d="M109.9,180.47a93,93,0,0,0,28.45,0"/><path class="cls-4" d="M100.06,168.61a31.93,31.93,0,0,0,7.2,20.76"/><path class="cls-4" d="M109.55,190.85a63.66,63.66,0,0,0,14.55,1.58"/><path class="cls-4" d="M107.19,189.38a4.22,4.22,0,0,0,2.34,1.45"/><path class="cls-4" d="M109.76,189.4a107.45,107.45,0,0,0,14.34,1"/><path class="cls-4" d="M100,168.58A28.8,28.8,0,0,0,107.13,188"/><path class="cls-4" d="M107.19,188a4.25,4.25,0,0,0,2.59,1.4"/><path class="cls-4" d="M141,188a28.68,28.68,0,0,0,7.21-19.38"/><path class="cls-4" d="M141,189.4a31.91,31.91,0,0,0,7.23-20.75"/><path class="cls-4" d="M124.09,190.43a107.4,107.4,0,0,0,14.33-1"/><path class="cls-4" d="M124.05,192.43a63.64,63.64,0,0,0,14.55-1.56"/><path class="cls-4" d="M138.45,189.4A4.23,4.23,0,0,0,141,188"/><path class="cls-4" d="M138.6,190.83a4.28,4.28,0,0,0,2.35-1.45"/><path class="cls-4" d="M149.47,171.9a12.93,12.93,0,0,0-4.82-10.61"/><path class="cls-4" d="M144.74,161.26a19.82,19.82,0,0,0-3.39-2.19"/><path class="cls-4" d="M106.88,159.07a19.74,19.74,0,0,0-3.38,2.19"/><path class="cls-4" d="M122.35,155a41.87,41.87,0,0,0-15.43,4.2"/><path class="cls-4" d="M131.12,158.48a29.85,29.85,0,0,0-14,0"/><path class="cls-4" d="M146.37,170.58a7.61,7.61,0,0,0-2.62-6.29"/><path class="cls-4" d="M143.76,164.38a27.6,27.6,0,0,0-12.67-5.81"/><path class="cls-4" d="M104.39,164.29a7.62,7.62,0,0,0-2.63,6.29"/><path class="cls-4" d="M117.14,158.57a27.52,27.52,0,0,0-12.66,5.81"/><path class="cls-4" d="M127.46,176.23a3.34,3.34,0,1,0-3.34,3.34,3.34,3.34,0,0,0,3.34-3.34"/><path class="cls-4" d="M126.46,176.23a2.34,2.34,0,1,0-2.34,2.35,2.34,2.34,0,0,0,2.34-2.35"/><line class="cls-4" x1="33.78" y1="75.04" x2="67.07" y2="75.04"/><polyline class="cls-4" points="31.79 76.53 19.33 76.53 19.33 40.66"/><line class="cls-4" x1="39.66" y1="58.6" x2="39.66" y2="45.34"/><polyline class="cls-4" points="66.97 75.04 39.66 71.85 39.66 58.6"/><line class="cls-4" x1="66.97" y1="42.15" x2="39.66" y2="45.34"/><line class="cls-4" x1="66.97" y1="74.24" x2="39.66" y2="71.05"/><line class="cls-4" x1="66.97" y1="42.95" x2="39.66" y2="46.14"/><line class="cls-4" x1="33.78" y1="42.15" x2="67.07" y2="42.15"/><line class="cls-4" x1="19.33" y1="40.66" x2="31.79" y2="40.66"/><polyline class="cls-4" points="66.97 75.04 70.65 74.64 74.14 73.15 77.23 70.95 79.72 67.96 81.42 64.48 82.31 60.59 82.31 56.6 81.42 52.72 79.72 49.23 77.23 46.24 74.14 43.95 70.65 42.55 66.97 42.15"/><polyline class="cls-4" points="66.97 74.24 70.45 73.74 73.74 72.45 76.63 70.26 79.03 67.47 80.62 64.18 81.52 60.49 81.52 56.7 80.62 53.02 79.03 49.73 76.63 46.94 73.74 44.74 70.45 43.45 66.97 42.95"/><path class="cls-4" d="M33.93,74.59a152.12,152.12,0,0,0,0-32.07"/><path class="cls-4" d="M31.84,76.43A2.11,2.11,0,0,0,34,74.61"/><path class="cls-4" d="M34,42.5a2.1,2.1,0,0,0-2.13-1.84"/><path class="cls-4" d="M29,58.55a1.75,1.75,0,1,0-1.74,1.74A1.74,1.74,0,0,0,29,58.55"/><line class="cls-4" x1="844.55" y1="244.35" x2="844.55" y2="196.31"/><line class="cls-4" x1="839.16" y1="190.73" x2="722.67" y2="190.73"/><line class="cls-4" x1="839.16" y1="250.03" x2="722.67" y2="250.03"/><line class="cls-4" x1="689.79" y1="185.05" x2="849.83" y2="185.05"/><polyline class="cls-4" points="689.79 185.05 689.79 255.71 849.83 255.71 849.83 185.05"/><line class="cls-4" x1="741.41" y1="240.16" x2="832.59" y2="240.16"/><line class="cls-4" x1="835.18" y1="237.37" x2="835.18" y2="203.29"/><line class="cls-4" x1="741.41" y1="200.5" x2="832.59" y2="200.5"/><line class="cls-4" x1="816.44" y1="222.12" x2="816.44" y2="225.61"/><line class="cls-4" x1="818.14" y1="220.33" x2="821.43" y2="220.33"/><line class="cls-4" x1="816.44" y1="218.64" x2="816.44" y2="215.15"/><line class="cls-4" x1="814.85" y1="220.33" x2="811.56" y2="220.33"/><path class="cls-4" d="M722.72,190.63c-15.49,0-28.05,13.28-28.05,29.65s12.56,29.65,28.05,29.65"/><path class="cls-4" d="M844.55,196.26a5.5,5.5,0,0,0-5.34-5.63"/><path class="cls-4" d="M839.21,249.93a5.49,5.49,0,0,0,5.34-5.63"/><path class="cls-4" d="M816.49,217.34a2.95,2.95,0,1,0,2.74,2.94,2.85,2.85,0,0,0-2.74-2.94"/><path class="cls-4" d="M741.46,200.4c-10.32,0-18.69,8.9-18.69,19.88s8.37,19.88,18.69,19.88"/><path class="cls-4" d="M832.64,240.16a2.74,2.74,0,0,0,2.64-2.84"/><path class="cls-4" d="M835.28,203.24a2.74,2.74,0,0,0-2.64-2.84"/><path class="cls-4" d="M816.49,216.34a3.95,3.95,0,1,0,3.74,3.94,3.84,3.84,0,0,0-3.74-3.94"/><polyline class="cls-4" points="828.3 131.34 849.83 131.34 849.83 182.26 828.3 182.26"/><line class="cls-4" x1="849.83" y1="164.82" x2="849.83" y2="148.78"/><line class="cls-4" x1="832.59" y1="161.04" x2="832.59" y2="158.35"/><line class="cls-4" x1="836.87" y1="156.75" x2="834.18" y2="156.75"/><line class="cls-4" x1="832.59" y1="155.26" x2="832.59" y2="152.47"/><line class="cls-4" x1="830.99" y1="156.75" x2="828.3" y2="156.75"/><path class="cls-4" d="M837.73,143.21A22.64,22.64,0,0,0,827,134.42"/><path class="cls-4" d="M841,156.73a22.66,22.66,0,0,0-3.17-13.52"/><path class="cls-4" d="M827,179.08a22.59,22.59,0,0,0,10.72-8.79"/><path class="cls-4" d="M837.81,170.29A22.63,22.63,0,0,0,841,156.78"/><path class="cls-4" d="M815.58,139.5a42,42,0,0,0-4.21,15.43"/><path class="cls-4" d="M817.79,177.34a12.89,12.89,0,0,0,10.62,4.81"/><path class="cls-4" d="M811.32,154.92a26.43,26.43,0,0,0,0,3.56"/><path class="cls-4" d="M837,170.92a93,93,0,0,0,0-28.45"/><path class="cls-4" d="M825,180.76a31.93,31.93,0,0,0,20.76-7.2"/><path class="cls-4" d="M847.26,171.27a63.65,63.65,0,0,0,1.57-14.55"/><path class="cls-4" d="M845.88,173.63a4.22,4.22,0,0,0,1.45-2.34"/><path class="cls-4" d="M845.8,171.06a109.15,109.15,0,0,0,1-14.34"/><path class="cls-4" d="M825.08,180.87a28.8,28.8,0,0,0,19.39-7.18"/><path class="cls-4" d="M844.41,173.63A4.23,4.23,0,0,0,845.8,171"/><path class="cls-4" d="M844.5,139.85a28.73,28.73,0,0,0-19.38-7.21"/><path class="cls-4" d="M845.81,139.87a32,32,0,0,0-20.75-7.23"/><path class="cls-4" d="M846.84,156.73a109.09,109.09,0,0,0-1-14.33"/><path class="cls-4" d="M848.83,156.77a64.19,64.19,0,0,0-1.55-14.55"/><path class="cls-4" d="M845.8,142.47a4.23,4.23,0,0,0-1.39-2.59"/><path class="cls-4" d="M847.33,142.22a4.26,4.26,0,0,0-1.44-2.35"/><path class="cls-4" d="M828.41,131.35a12.93,12.93,0,0,0-10.62,4.82"/><path class="cls-4" d="M817.66,136.08a19.82,19.82,0,0,0-2.19,3.39"/><path class="cls-4" d="M815.47,173.94a19.74,19.74,0,0,0,2.19,3.38"/><path class="cls-4" d="M811.37,158.48a41.88,41.88,0,0,0,4.21,15.42"/><path class="cls-4" d="M814.89,149.7a29.59,29.59,0,0,0,0,14"/><path class="cls-4" d="M827.08,134.45a7.62,7.62,0,0,0-6.29,2.62"/><path class="cls-4" d="M820.78,137.06A27.6,27.6,0,0,0,815,149.73"/><path class="cls-4" d="M820.79,176.43a7.63,7.63,0,0,0,6.29,2.63"/><path class="cls-4" d="M815,163.78a27.52,27.52,0,0,0,5.81,12.66"/><path class="cls-4" d="M836,156.7a3.34,3.34,0,1,0-3.34,3.34A3.35,3.35,0,0,0,836,156.7"/><path class="cls-4" d="M835,156.7a2.34,2.34,0,1,0-2.34,2.35A2.34,2.34,0,0,0,835,156.7"/><polyline class="cls-4" points="24.02 257.5 75.84 257.5 75.84 205.78 24.02 205.78 24.02 257.5"/><polyline class="cls-4" points="28.7 252.82 71.15 252.82 71.15 215.15 28.7 215.15 28.7 252.82"/><text class="cls-5" transform="translate(408.65 439.66)">2K</text><text class="cls-5" transform="translate(383.87 489.84)">54.37</text><text class="cls-5" transform="translate(400.39 389.76)">№8</text><polyline class="cls-6" points="369.58 500.65 369.58 351.57 493.9 351.57 493.9 500.65"/><line class="cls-6" x1="369.58" y1="401.36" x2="493.9" y2="401.36"/><line class="cls-6" x1="369.58" y1="500.65" x2="493.9" y2="500.65"/><line class="cls-6" x1="369.58" y1="451.15" x2="493.9" y2="451.15"/><text class="cls-7" transform="translate(721.43 122.54)">4.16</text><text class="cls-7" transform="translate(399.9 122.54)">9.45</text><text class="cls-7" transform="translate(117.45 591.79)">13.65</text><text class="cls-7" transform="translate(399.96 591.79)">11.94</text><text class="cls-7" transform="translate(673.5 591.79)">12.16</text><text class="cls-7" transform="translate(82.72 117.12)">3.01</text><line class="cls-8" x1="458.87" y1="201.12" x2="550.44" y2="201.12"/><line class="cls-8" x1="458.87" y1="193.4" x2="550.44" y2="193.4"/><line class="cls-8" x1="199.2" y1="201.12" x2="290.77" y2="201.12"/><line class="cls-8" x1="199.2" y1="193.4" x2="290.77" y2="193.4"/><line class="cls-8" x1="194.6" y1="188.44" x2="194.6" y2="96.87"/><line class="cls-8" x1="186.87" y1="188.44" x2="186.87" y2="96.87"/><line class="cls-8" x1="581.09" y1="201.12" x2="672.66" y2="201.12"/><line class="cls-8" x1="581.09" y1="193.4" x2="672.66" y2="193.4"/><line class="cls-8" x1="683.28" y1="185.02" x2="683.28" y2="101.77"/><line class="cls-8" x1="675.56" y1="185.02" x2="675.56" y2="101.77"/><line class="cls-8" x1="203.89" y1="0.5" x2="293.97" y2="0.5"/></svg>