<svg id="_420" data-name="420" xmlns="http://www.w3.org/2000/svg" viewBox="0 0 783.2 504.2"><defs><style>.cls-1{isolation:isolate;font-size:12px;fill:#969696;}.cls-1,.cls-4,.cls-5,.cls-7{font-family:PTSans-Regular, PT Sans;}.cls-2{letter-spacing:-0.01em;}.cls-10,.cls-11,.cls-12,.cls-3,.cls-6,.cls-8,.cls-9{fill:none;stroke-linecap:round;stroke-linejoin:round;}.cls-3{stroke:#969696;stroke-width:0.75px;}.cls-4{font-size:40px;}.cls-5{font-size:40.54px;}.cls-10,.cls-11,.cls-12,.cls-6,.cls-8,.cls-9{stroke:#000;}.cls-11,.cls-12,.cls-6{stroke-width:0.5px;}.cls-7{font-size:36px;}.cls-8,.cls-9{stroke-width:0.25px;}.cls-9{stroke-dasharray:0.99 0.99;}.cls-11{stroke-dasharray:2.95 2.95;}.cls-12{stroke-dasharray:3.05 3.05;}</style></defs><title>15floor_420flat</title><text class="cls-1" transform="translate(10.2 260.24) rotate(-90)"><tspan class="cls-2">у</tspan><tspan x="5.42" y="0">лица</tspan></text><line class="cls-3" x1="4.22" y1="271" x2="13.02" y2="271"/><polyline class="cls-3" points="7.72 267.5 4.22 271 7.72 274.5"/><text class="cls-4" transform="translate(331.37 140.62)">2E</text><text class="cls-5" transform="translate(304.46 190.79)">37.91</text><text class="cls-4" transform="translate(299.83 90.71)">№420</text><polyline class="cls-6" points="290.82 201.6 290.82 52.53 415.14 52.53 415.14 201.6"/><line class="cls-6" x1="290.82" y1="102.32" x2="415.14" y2="102.32"/><line class="cls-6" x1="290.82" y1="201.6" x2="415.14" y2="201.6"/><line class="cls-6" x1="290.82" y1="152.1" x2="415.14" y2="152.1"/><text class="cls-7" transform="translate(159.93 390.48)">10.36</text><text class="cls-7" transform="translate(159.93 140.62)">12.92</text><text class="cls-7" transform="translate(620.69 68.74)">2.61</text><text class="cls-7" transform="translate(593.66 210.96)">6.23</text><text class="cls-7" transform="translate(572.88 403)">3.59</text><text class="cls-7" transform="translate(409.68 403)">2.20</text><line class="cls-8" x1="581.87" y1="333.82" x2="582.37" y2="333.82"/><line class="cls-9" x1="583.36" y1="333.82" x2="658.44" y2="333.82"/><line class="cls-8" x1="658.94" y1="333.82" x2="659.44" y2="333.82"/><line class="cls-8" x1="581.95" y1="100.66" x2="582.45" y2="100.66"/><line class="cls-9" x1="583.44" y1="100.66" x2="658.52" y2="100.66"/><line class="cls-8" x1="659.02" y1="100.66" x2="659.52" y2="100.66"/><line class="cls-8" x1="582.87" y1="340.47" x2="583.37" y2="340.47"/><line class="cls-9" x1="584.37" y1="340.47" x2="659.45" y2="340.47"/><line class="cls-8" x1="659.94" y1="340.47" x2="660.44" y2="340.47"/><line class="cls-8" x1="540.72" y1="191.75" x2="540.72" y2="191.25"/><line class="cls-9" x1="540.72" y1="190.25" x2="540.72" y2="115.18"/><line class="cls-8" x1="540.72" y1="114.68" x2="540.72" y2="114.18"/><line class="cls-8" x1="540.72" y1="327.1" x2="540.72" y2="326.6"/><line class="cls-9" x1="540.72" y1="325.6" x2="540.72" y2="250.52"/><line class="cls-8" x1="540.72" y1="250.03" x2="540.72" y2="249.53"/><line class="cls-8" x1="548.36" y1="191.75" x2="548.36" y2="191.25"/><line class="cls-9" x1="548.36" y1="190.25" x2="548.36" y2="115.18"/><line class="cls-8" x1="548.36" y1="114.68" x2="548.36" y2="114.18"/><line class="cls-8" x1="547.86" y1="326.69" x2="547.86" y2="326.19"/><line class="cls-9" x1="547.86" y1="325.19" x2="547.86" y2="250.12"/><line class="cls-8" x1="547.86" y1="249.62" x2="547.86" y2="249.12"/><line class="cls-8" x1="782.7" y1="195.97" x2="782.7" y2="195.47"/><line class="cls-9" x1="782.7" y1="194.48" x2="782.7" y2="119.4"/><line class="cls-8" x1="782.7" y1="118.9" x2="782.7" y2="118.4"/><line class="cls-8" x1="581.28" y1="107.4" x2="581.78" y2="107.4"/><line class="cls-9" x1="582.78" y1="107.4" x2="657.85" y2="107.4"/><line class="cls-8" x1="658.35" y1="107.4" x2="658.85" y2="107.4"/><line class="cls-10" x1="103.22" y1="0.5" x2="103.22" y2="52.33"/><line class="cls-10" x1="104.01" y1="0.5" x2="104.01" y2="52.33"/><line class="cls-10" x1="103.22" y1="201.11" x2="103.22" y2="291.42"/><line class="cls-10" x1="104.01" y1="201.11" x2="104.01" y2="291.42"/><line class="cls-10" x1="103.22" y1="461.86" x2="103.22" y2="503.7"/><line class="cls-10" x1="104.01" y1="461.86" x2="104.01" y2="503.7"/><line class="cls-10" x1="137.45" y1="503.7" x2="137.45" y2="461.86"/><line class="cls-10" x1="137.45" y1="291.42" x2="137.45" y2="201.11"/><line class="cls-10" x1="137.45" y1="52.33" x2="137.45" y2="0.5"/><polyline class="cls-10" points="93.22 52.33 93.22 0.5 170.57 0.5"/><line class="cls-10" x1="93.22" y1="201.11" x2="93.22" y2="291.42"/><polyline class="cls-10" points="93.22 461.86 93.22 503.7 204.31 503.7"/><polyline class="cls-10" points="93.22 458.5 88.97 458.5 88.97 294.69 93.22 294.69"/><line class="cls-10" x1="104.01" y1="298.05" x2="104.01" y2="345.99"/><line class="cls-10" x1="104.01" y1="352.62" x2="104.01" y2="400.56"/><line class="cls-10" x1="104.01" y1="407.29" x2="104.01" y2="455.23"/><line class="cls-10" x1="105.69" y1="355.63" x2="105.69" y2="357.22"/><line class="cls-10" x1="105.69" y1="361.29" x2="105.69" y2="363.86"/><line class="cls-10" x1="105.69" y1="367.93" x2="105.69" y2="370.49"/><line class="cls-10" x1="105.69" y1="374.56" x2="105.69" y2="377.12"/><line class="cls-10" x1="105.69" y1="381.19" x2="105.69" y2="397.64"/><line class="cls-10" x1="110.73" y1="355.63" x2="110.73" y2="357.22"/><line class="cls-10" x1="110.73" y1="361.29" x2="110.73" y2="363.86"/><line class="cls-10" x1="110.73" y1="367.93" x2="110.73" y2="370.49"/><line class="cls-10" x1="110.73" y1="374.56" x2="110.73" y2="377.12"/><line class="cls-10" x1="110.73" y1="381.19" x2="110.73" y2="397.64"/><line class="cls-10" x1="105.69" y1="357.22" x2="105.69" y2="361.29"/><line class="cls-10" x1="105.69" y1="363.86" x2="105.69" y2="367.93"/><line class="cls-10" x1="105.69" y1="370.49" x2="105.69" y2="374.56"/><line class="cls-10" x1="105.69" y1="377.12" x2="105.69" y2="381.19"/><line class="cls-10" x1="110.73" y1="357.22" x2="110.73" y2="361.29"/><line class="cls-10" x1="110.73" y1="363.86" x2="110.73" y2="367.93"/><line class="cls-10" x1="110.73" y1="370.49" x2="110.73" y2="374.56"/><line class="cls-10" x1="110.73" y1="377.12" x2="110.73" y2="381.19"/><line class="cls-10" x1="105.69" y1="410.2" x2="105.69" y2="426.66"/><line class="cls-10" x1="105.69" y1="430.81" x2="105.69" y2="433.29"/><line class="cls-10" x1="105.69" y1="437.36" x2="105.69" y2="439.92"/><line class="cls-10" x1="105.69" y1="443.99" x2="105.69" y2="446.56"/><line class="cls-10" x1="105.69" y1="450.63" x2="105.69" y2="452.22"/><line class="cls-10" x1="110.73" y1="410.2" x2="110.73" y2="426.66"/><line class="cls-10" x1="110.73" y1="430.81" x2="110.73" y2="433.29"/><line class="cls-10" x1="110.73" y1="437.36" x2="110.73" y2="439.92"/><line class="cls-10" x1="110.73" y1="443.99" x2="110.73" y2="446.56"/><line class="cls-10" x1="110.73" y1="450.63" x2="110.73" y2="452.22"/><line class="cls-10" x1="105.69" y1="450.63" x2="105.69" y2="446.56"/><line class="cls-10" x1="105.69" y1="443.99" x2="105.69" y2="439.92"/><line class="cls-10" x1="105.69" y1="437.36" x2="105.69" y2="433.29"/><line class="cls-10" x1="105.69" y1="430.81" x2="105.69" y2="426.66"/><line class="cls-10" x1="110.73" y1="450.63" x2="110.73" y2="446.56"/><line class="cls-10" x1="110.73" y1="443.99" x2="110.73" y2="439.92"/><line class="cls-10" x1="110.73" y1="437.36" x2="110.73" y2="433.29"/><line class="cls-10" x1="110.73" y1="430.81" x2="110.73" y2="426.66"/><line class="cls-10" x1="105.69" y1="301.32" x2="105.69" y2="302.12"/><line class="cls-10" x1="105.69" y1="306.72" x2="105.69" y2="309.19"/><line class="cls-10" x1="105.69" y1="313.26" x2="105.69" y2="315.83"/><line class="cls-10" x1="105.69" y1="319.9" x2="105.69" y2="322.46"/><line class="cls-10" x1="105.69" y1="326.53" x2="105.69" y2="340.68"/><line class="cls-10" x1="105.69" y1="341.92" x2="105.69" y2="342.72"/><line class="cls-10" x1="110.73" y1="301.32" x2="110.73" y2="302.12"/><line class="cls-10" x1="110.73" y1="306.72" x2="110.73" y2="309.19"/><line class="cls-10" x1="110.73" y1="313.26" x2="110.73" y2="315.83"/><line class="cls-10" x1="110.73" y1="319.9" x2="110.73" y2="322.46"/><line class="cls-10" x1="110.73" y1="326.53" x2="110.73" y2="340.68"/><line class="cls-10" x1="110.73" y1="341.92" x2="110.73" y2="342.72"/><line class="cls-10" x1="105.69" y1="303.36" x2="105.69" y2="306.72"/><line class="cls-10" x1="105.69" y1="309.19" x2="105.69" y2="313.26"/><line class="cls-10" x1="105.69" y1="315.83" x2="105.69" y2="319.9"/><line class="cls-10" x1="105.69" y1="322.46" x2="105.69" y2="326.53"/><line class="cls-10" x1="110.73" y1="303.36" x2="110.73" y2="306.72"/><line class="cls-10" x1="110.73" y1="309.19" x2="110.73" y2="313.26"/><line class="cls-10" x1="110.73" y1="315.83" x2="110.73" y2="319.9"/><line class="cls-10" x1="110.73" y1="322.46" x2="110.73" y2="326.53"/><line class="cls-10" x1="105.69" y1="343.07" x2="105.69" y2="342.72"/><line class="cls-10" x1="105.69" y1="341.92" x2="105.69" y2="340.68"/><line class="cls-10" x1="105.69" y1="300.97" x2="105.69" y2="301.32"/><line class="cls-10" x1="105.69" y1="302.12" x2="105.69" y2="303.36"/><line class="cls-10" x1="110.73" y1="343.07" x2="110.73" y2="342.72"/><line class="cls-10" x1="110.73" y1="341.92" x2="110.73" y2="340.68"/><line class="cls-10" x1="110.73" y1="300.97" x2="110.73" y2="301.32"/><line class="cls-10" x1="110.73" y1="302.12" x2="110.73" y2="303.36"/><line class="cls-10" x1="137.45" y1="291.42" x2="137.45" y2="461.86"/><line class="cls-10" x1="103.22" y1="461.86" x2="103.22" y2="458.5"/><polyline class="cls-10" points="103.22 458.5 93.22 458.5 93.22 461.86"/><line class="cls-10" x1="137.45" y1="461.86" x2="104.01" y2="461.86"/><line class="cls-10" x1="93.22" y1="294.69" x2="103.22" y2="294.69"/><line class="cls-10" x1="103.22" y1="294.69" x2="103.22" y2="291.42"/><line class="cls-10" x1="93.22" y1="291.42" x2="93.22" y2="294.69"/><line class="cls-10" x1="104.01" y1="291.42" x2="137.45" y2="291.42"/><polyline class="cls-10" points="104.01 291.42 109.05 291.42 109.05 296.01"/><polyline class="cls-10" points="105.69 298.05 104.01 298.05 104.01 294.69 104.01 291.42"/><line class="cls-10" x1="109.05" y1="348.11" x2="109.05" y2="350.59"/><polyline class="cls-10" points="105.69 352.62 104.01 352.62 104.01 345.99 105.69 345.99"/><line class="cls-10" x1="109.05" y1="402.69" x2="109.05" y2="405.16"/><polyline class="cls-10" points="105.69 407.29 104.01 407.29 104.01 400.56 105.69 400.56"/><polyline class="cls-10" points="109.05 457.26 109.05 461.86 104.01 461.86"/><polyline class="cls-10" points="104.01 461.86 104.01 458.5 104.01 455.23 105.69 455.23"/><polyline class="cls-10" points="110.73 402.69 109.05 402.69 105.69 402.69"/><polyline class="cls-10" points="105.69 402.69 105.69 400.56 105.69 397.64 110.73 397.64 110.73 402.69"/><polyline class="cls-10" points="105.69 350.59 109.05 350.59 110.73 350.59"/><polyline class="cls-10" points="110.73 350.59 110.73 355.63 105.69 355.63 105.69 352.62 105.69 350.59"/><line class="cls-10" x1="107.37" y1="397.64" x2="107.37" y2="355.63"/><line class="cls-10" x1="109.05" y1="355.63" x2="109.05" y2="397.64"/><polyline class="cls-10" points="110.73 457.26 109.05 457.26 105.69 457.26"/><polyline class="cls-10" points="105.69 457.26 105.69 455.23 105.69 452.22 110.73 452.22 110.73 457.26"/><polyline class="cls-10" points="105.69 405.16 109.05 405.16 110.73 405.16"/><polyline class="cls-10" points="110.73 405.16 110.73 410.2 105.69 410.2 105.69 407.29 105.69 405.16"/><line class="cls-10" x1="107.37" y1="452.22" x2="107.37" y2="410.2"/><line class="cls-10" x1="109.05" y1="410.2" x2="109.05" y2="452.22"/><polyline class="cls-10" points="110.73 348.11 109.05 348.11 105.69 348.11"/><polyline class="cls-10" points="105.69 348.11 105.69 345.99 105.69 343.07 110.73 343.07 110.73 348.11"/><polyline class="cls-10" points="105.69 296.01 109.05 296.01 110.73 296.01"/><polyline class="cls-10" points="110.73 296.01 110.73 300.97 105.69 300.97 105.69 298.05 105.69 296.01"/><line class="cls-10" x1="107.37" y1="343.07" x2="107.37" y2="300.97"/><line class="cls-10" x1="109.05" y1="300.97" x2="109.05" y2="343.07"/><polyline class="cls-10" points="93.22 197.75 88.97 197.75 88.97 55.69 93.22 55.69"/><line class="cls-10" x1="104.01" y1="59.05" x2="104.01" y2="123.36"/><line class="cls-10" x1="104.01" y1="130.08" x2="104.01" y2="194.38"/><line class="cls-10" x1="105.69" y1="133" x2="105.69" y2="155.47"/><line class="cls-10" x1="105.69" y1="157.85" x2="105.69" y2="160.86"/><line class="cls-10" x1="105.69" y1="165.64" x2="105.69" y2="168.56"/><line class="cls-10" x1="105.69" y1="173.33" x2="105.69" y2="176.34"/><line class="cls-10" x1="105.69" y1="181.03" x2="105.69" y2="184.04"/><line class="cls-10" x1="105.69" y1="188.81" x2="105.69" y2="191.47"/><line class="cls-10" x1="110.73" y1="133" x2="110.73" y2="155.47"/><line class="cls-10" x1="110.73" y1="157.85" x2="110.73" y2="160.86"/><line class="cls-10" x1="110.73" y1="165.64" x2="110.73" y2="168.56"/><line class="cls-10" x1="110.73" y1="173.33" x2="110.73" y2="176.34"/><line class="cls-10" x1="110.73" y1="181.03" x2="110.73" y2="184.04"/><line class="cls-10" x1="110.73" y1="188.81" x2="110.73" y2="191.47"/><line class="cls-10" x1="105.69" y1="188.81" x2="105.69" y2="184.04"/><line class="cls-10" x1="105.69" y1="181.03" x2="105.69" y2="176.34"/><line class="cls-10" x1="105.69" y1="173.33" x2="105.69" y2="168.56"/><line class="cls-10" x1="105.69" y1="165.64" x2="105.69" y2="160.86"/><line class="cls-10" x1="105.69" y1="157.85" x2="105.69" y2="155.47"/><line class="cls-10" x1="110.73" y1="188.81" x2="110.73" y2="184.04"/><line class="cls-10" x1="110.73" y1="181.03" x2="110.73" y2="176.34"/><line class="cls-10" x1="110.73" y1="173.33" x2="110.73" y2="168.56"/><line class="cls-10" x1="110.73" y1="165.64" x2="110.73" y2="160.86"/><line class="cls-10" x1="110.73" y1="157.85" x2="110.73" y2="155.47"/><line class="cls-10" x1="105.69" y1="61.97" x2="105.69" y2="62.24"/><line class="cls-10" x1="105.69" y1="63.92" x2="105.69" y2="64.72"/><line class="cls-10" x1="105.69" y1="69.4" x2="105.69" y2="72.41"/><line class="cls-10" x1="105.69" y1="77.19" x2="105.69" y2="80.11"/><line class="cls-10" x1="105.69" y1="84.88" x2="105.69" y2="87.89"/><line class="cls-10" x1="105.69" y1="92.58" x2="105.69" y2="95.58"/><line class="cls-10" x1="105.69" y1="97.97" x2="105.69" y2="115.84"/><line class="cls-10" x1="105.69" y1="117.52" x2="105.69" y2="118.49"/><line class="cls-10" x1="105.69" y1="120.17" x2="105.69" y2="120.44"/><line class="cls-10" x1="110.73" y1="61.97" x2="110.73" y2="62.24"/><line class="cls-10" x1="110.73" y1="63.92" x2="110.73" y2="64.72"/><line class="cls-10" x1="110.73" y1="69.4" x2="110.73" y2="72.41"/><line class="cls-10" x1="110.73" y1="77.19" x2="110.73" y2="80.11"/><line class="cls-10" x1="110.73" y1="84.88" x2="110.73" y2="87.89"/><line class="cls-10" x1="110.73" y1="92.58" x2="110.73" y2="95.58"/><line class="cls-10" x1="110.73" y1="97.97" x2="110.73" y2="115.84"/><line class="cls-10" x1="110.73" y1="117.52" x2="110.73" y2="118.49"/><line class="cls-10" x1="110.73" y1="120.17" x2="110.73" y2="120.44"/><line class="cls-10" x1="105.69" y1="64.72" x2="105.69" y2="64.98"/><line class="cls-10" x1="105.69" y1="66.57" x2="105.69" y2="69.4"/><line class="cls-10" x1="105.69" y1="72.41" x2="105.69" y2="77.19"/><line class="cls-10" x1="105.69" y1="80.11" x2="105.69" y2="84.88"/><line class="cls-10" x1="105.69" y1="87.89" x2="105.69" y2="92.58"/><line class="cls-10" x1="105.69" y1="95.58" x2="105.69" y2="97.97"/><line class="cls-10" x1="110.73" y1="64.72" x2="110.73" y2="64.98"/><line class="cls-10" x1="110.73" y1="66.57" x2="110.73" y2="69.4"/><line class="cls-10" x1="110.73" y1="72.41" x2="110.73" y2="77.19"/><line class="cls-10" x1="110.73" y1="80.11" x2="110.73" y2="84.88"/><line class="cls-10" x1="110.73" y1="87.89" x2="110.73" y2="92.58"/><line class="cls-10" x1="110.73" y1="95.58" x2="110.73" y2="97.97"/><line class="cls-10" x1="105.69" y1="120.17" x2="105.69" y2="118.49"/><line class="cls-10" x1="105.69" y1="117.52" x2="105.69" y2="115.84"/><line class="cls-10" x1="105.69" y1="62.24" x2="105.69" y2="63.92"/><line class="cls-10" x1="105.69" y1="64.98" x2="105.69" y2="66.57"/><line class="cls-10" x1="110.73" y1="120.17" x2="110.73" y2="118.49"/><line class="cls-10" x1="110.73" y1="117.52" x2="110.73" y2="115.84"/><line class="cls-10" x1="110.73" y1="62.24" x2="110.73" y2="63.92"/><line class="cls-10" x1="110.73" y1="64.98" x2="110.73" y2="66.57"/><line class="cls-10" x1="137.45" y1="52.33" x2="137.45" y2="201.11"/><polyline class="cls-10" points="103.22 197.75 93.22 197.75 93.22 201.11"/><line class="cls-10" x1="103.22" y1="201.11" x2="103.22" y2="197.75"/><line class="cls-10" x1="137.45" y1="201.11" x2="104.01" y2="201.11"/><polyline class="cls-10" points="93.22 52.33 93.22 55.69 103.22 55.69"/><line class="cls-10" x1="103.22" y1="55.69" x2="103.22" y2="52.33"/><line class="cls-10" x1="104.01" y1="52.33" x2="137.45" y2="52.33"/><polyline class="cls-10" points="109.05 196.51 109.05 201.11 104.01 201.11"/><polyline class="cls-10" points="104.01 201.11 104.01 197.75 104.01 194.38 105.69 194.38"/><polyline class="cls-10" points="104.01 52.33 109.05 52.33 109.05 56.93"/><polyline class="cls-10" points="105.69 59.05 104.01 59.05 104.01 55.69 104.01 52.33"/><line class="cls-10" x1="109.05" y1="125.48" x2="109.05" y2="127.96"/><polyline class="cls-10" points="105.69 130.08 104.01 130.08 104.01 123.36 105.69 123.36"/><polyline class="cls-10" points="110.73 196.51 109.05 196.51 105.69 196.51"/><polyline class="cls-10" points="105.69 196.51 105.69 194.38 105.69 191.47 110.73 191.47 110.73 196.51"/><polyline class="cls-10" points="105.69 127.96 109.05 127.96 110.73 127.96"/><polyline class="cls-10" points="110.73 127.96 110.73 133 105.69 133 105.69 130.08 105.69 127.96"/><line class="cls-10" x1="107.37" y1="191.47" x2="107.37" y2="133"/><line class="cls-10" x1="109.05" y1="133" x2="109.05" y2="191.47"/><polyline class="cls-10" points="110.73 125.48 109.05 125.48 105.69 125.48"/><polyline class="cls-10" points="105.69 125.48 105.69 123.36 105.69 120.44 110.73 120.44 110.73 125.48"/><polyline class="cls-10" points="105.69 56.93 109.05 56.93 110.73 56.93"/><polyline class="cls-10" points="110.73 56.93 110.73 61.97 105.69 61.97 105.69 59.05 105.69 56.93"/><line class="cls-10" x1="107.37" y1="120.44" x2="107.37" y2="61.97"/><line class="cls-10" x1="109.05" y1="61.97" x2="109.05" y2="120.44"/><line class="cls-10" x1="137.45" y1="17.22" x2="765.98" y2="17.22"/><polyline class="cls-10" points="765.98 0.5 137.45 0.5 137.45 17.22"/><line class="cls-10" x1="735.9" y1="503.7" x2="735.9" y2="225.34"/><line class="cls-10" x1="719.19" y1="208.63" x2="719.19" y2="486.98"/><line class="cls-10" x1="541.14" y1="251.26" x2="547.86" y2="251.26"/><line class="cls-10" x1="541.14" y1="326.44" x2="547.86" y2="326.44"/><line class="cls-10" x1="541.14" y1="191.91" x2="547.86" y2="191.91"/><line class="cls-10" x1="541.14" y1="116.72" x2="547.86" y2="116.72"/><line class="cls-10" x1="547.86" y1="333.96" x2="547.86" y2="326.44"/><line class="cls-10" x1="547.86" y1="251.26" x2="547.86" y2="191.91"/><line class="cls-10" x1="547.86" y1="116.72" x2="547.86" y2="107.53"/><polyline class="cls-10" points="547.86 100.8 547.86 17.22 541.14 17.22 541.14 116.72"/><line class="cls-10" x1="541.14" y1="191.91" x2="541.14" y2="244.54"/><polyline class="cls-10" points="541.14 326.44 541.14 333.96 547.86 333.96"/><line class="cls-10" x1="648.16" y1="340.68" x2="648.16" y2="333.96"/><line class="cls-10" x1="589.61" y1="340.68" x2="589.61" y2="333.96"/><line class="cls-10" x1="499.39" y1="340.68" x2="541.14" y2="340.68"/><line class="cls-10" x1="547.86" y1="340.68" x2="589.61" y2="340.68"/><polyline class="cls-10" points="648.16 340.68 719.19 340.68 719.19 333.96 648.16 333.96"/><polyline class="cls-10" points="589.61 333.96 492.67 333.96 492.67 340.68"/><polyline class="cls-10" points="492.67 340.68 492.67 486.98 499.39 486.98 499.39 439.31"/><polyline class="cls-10" points="541.14 432.58 499.39 432.58 499.39 340.68"/><line class="cls-10" x1="499.39" y1="439.31" x2="541.14" y2="439.31"/><polyline class="cls-10" points="547.86 478.58 544.5 478.58 541.14 478.58"/><polyline class="cls-10" points="547.86 445.14 544.5 445.14 541.14 445.14"/><line class="cls-10" x1="541.14" y1="340.68" x2="541.14" y2="432.58"/><line class="cls-10" x1="541.14" y1="439.31" x2="541.14" y2="445.14"/><polyline class="cls-10" points="541.14 478.58 541.14 486.98 547.86 486.98 547.86 478.58"/><line class="cls-10" x1="547.86" y1="445.14" x2="547.86" y2="340.68"/><line class="cls-10" x1="547.86" y1="445.14" x2="547.86" y2="478.58"/><line class="cls-10" x1="541.14" y1="445.14" x2="541.14" y2="478.58"/><path class="cls-10" d="M587.68,447.11a33.23,33.23,0,0,0-11.42-2" transform="translate(-28.35 0.05)"/><line class="cls-10" x1="547.86" y1="478.58" x2="559.27" y2="447.18"/><polyline class="cls-10" points="541.14 445.14 544.5 445.14 547.86 445.14 544.5 445.14"/><polyline class="cls-10" points="541.14 478.58 544.5 478.58 547.86 478.58 544.5 478.58"/><line class="cls-10" x1="782.7" y1="208.63" x2="782.7" y2="208.63"/><polyline class="cls-10" points="719.19 208.63 735.9 208.63 765.98 208.63"/><line class="cls-10" x1="735.9" y1="225.34" x2="782.7" y2="225.34"/><polyline class="cls-10" points="719.19 486.98 137.45 486.98 137.45 503.7"/><polyline class="cls-10" points="735.9 503.7 719.19 503.7 137.45 503.7"/><line class="cls-10" x1="589.61" y1="107.53" x2="589.61" y2="100.8"/><polyline class="cls-10" points="648.16 107.53 648.16 100.8 765.98 100.8"/><line class="cls-10" x1="589.61" y1="100.8" x2="547.86" y2="100.8"/><line class="cls-10" x1="547.86" y1="107.53" x2="589.61" y2="107.53"/><polyline class="cls-10" points="648.16 107.53 765.98 107.53 765.98 100.8"/><polyline class="cls-10" points="765.98 116.72 775.97 116.72 782.7 116.72"/><polyline class="cls-10" points="765.98 200.31 775.97 200.31 782.7 200.31 782.7 225.34"/><polyline class="cls-10" points="782.7 0.5 782.7 17.22 782.7 116.72"/><line class="cls-10" x1="765.98" y1="17.22" x2="765.98" y2="116.72"/><line class="cls-10" x1="765.98" y1="200.31" x2="765.98" y2="208.63"/><path class="cls-10" d="M727.46,120a76.91,76.91,0,0,0,76.91,76.91" transform="translate(-28.35 0.05)"/><polyline class="cls-10" points="782.7 200.31 782.7 196.95 775.97 196.95 775.97 200.31 782.7 200.31"/><polyline class="cls-10" points="775.97 116.72 775.97 120.09 782.7 120.09 782.7 116.72 775.97 116.72"/><line class="cls-10" x1="775.97" y1="120.09" x2="699.11" y2="120.09"/><polyline class="cls-10" points="782.7 200.31 775.97 200.31 782.7 200.31"/><line class="cls-10" x1="765.98" y1="200.31" x2="775.97" y2="200.31"/><polyline class="cls-10" points="782.7 116.72 775.97 116.72 782.7 116.72"/><line class="cls-10" x1="765.98" y1="116.72" x2="775.97" y2="116.72"/><line class="cls-10" x1="782.7" y1="0.5" x2="782.7" y2="0.5"/><line class="cls-10" x1="765.98" y1="0.5" x2="765.98" y2="0.5"/><line class="cls-10" x1="664.88" y1="480.52" x2="707.42" y2="480.52"/><line class="cls-10" x1="712.47" y1="475.84" x2="712.47" y2="372.35"/><line class="cls-10" x1="659.84" y1="475.84" x2="659.84" y2="372.35"/><line class="cls-10" x1="717.51" y1="343.16" x2="717.51" y2="485.3"/><polyline class="cls-10" points="717.51 343.16 654.79 343.16 654.79 485.3 717.51 485.3"/><line class="cls-10" x1="668.51" y1="388.98" x2="668.51" y2="469.91"/><line class="cls-10" x1="671.07" y1="472.3" x2="701.23" y2="472.3"/><line class="cls-10" x1="703.8" y1="388.98" x2="703.8" y2="469.91"/><line class="cls-10" x1="684.6" y1="455.67" x2="681.51" y2="455.67"/><line class="cls-10" x1="686.2" y1="457.08" x2="686.2" y2="460.09"/><line class="cls-10" x1="687.7" y1="455.67" x2="690.79" y2="455.67"/><line class="cls-10" x1="686.2" y1="454.25" x2="686.2" y2="451.33"/><path class="cls-10" d="M740.91,372.25c0-13.75-11.78-24.9-26.32-24.9s-26.31,11.15-26.31,24.9" transform="translate(-28.35 0.05)"/><path class="cls-10" d="M735.82,480.47a4.87,4.87,0,0,0,5-4.73" transform="translate(-28.35 0.05)"/><path class="cls-10" d="M688.28,475.74a4.87,4.87,0,0,0,5,4.73" transform="translate(-28.35 0.05)"/><path class="cls-10" d="M717.2,455.57a2.62,2.62,0,1,0-2.61,2.44,2.53,2.53,0,0,0,2.61-2.44" transform="translate(-28.35 0.05)"/><path class="cls-10" d="M732.24,388.88c0-9.16-7.9-16.58-17.65-16.58S697,379.72,697,388.88" transform="translate(-28.35 0.05)"/><path class="cls-10" d="M697,469.81a2.44,2.44,0,0,0,2.52,2.35" transform="translate(-28.35 0.05)"/><path class="cls-10" d="M729.63,472.16a2.44,2.44,0,0,0,2.52-2.35" transform="translate(-28.35 0.05)"/><path class="cls-10" d="M718.09,455.57a3.5,3.5,0,1,0-3.5,3.32,3.41,3.41,0,0,0,3.5-3.32" transform="translate(-28.35 0.05)"/><polyline class="cls-10" points="654.79 466.19 654.79 485.3 609.68 485.3 609.68 466.19"/><line class="cls-10" x1="625.16" y1="485.3" x2="639.32" y2="485.3"/><line class="cls-10" x1="628.44" y1="470" x2="630.83" y2="470"/><line class="cls-10" x1="632.24" y1="473.8" x2="632.24" y2="471.32"/><line class="cls-10" x1="633.66" y1="470" x2="636.04" y2="470"/><line class="cls-10" x1="632.24" y1="468.58" x2="632.24" y2="466.19"/><path class="cls-10" d="M672.61,474.43a20.19,20.19,0,0,0,7.81-9.52" transform="translate(-28.35 0.05)"/><path class="cls-10" d="M660.62,477.22a20.1,20.1,0,0,0,12-2.82" transform="translate(-28.35 0.05)"/><path class="cls-10" d="M640.86,464.91a20.11,20.11,0,0,0,7.8,9.52" transform="translate(-28.35 0.05)"/><path class="cls-10" d="M648.66,474.4a20.14,20.14,0,0,0,12,2.82" transform="translate(-28.35 0.05)"/><path class="cls-10" d="M675.9,454.76A37.13,37.13,0,0,0,662.21,451" transform="translate(-28.35 0.05)"/><path class="cls-10" d="M642.41,456.63a11.47,11.47,0,0,0-4.27,9.43" transform="translate(-28.35 0.05)"/><path class="cls-10" d="M662.22,450.9a20.83,20.83,0,0,0-3.16,0" transform="translate(-28.35 0.05)"/><path class="cls-10" d="M648,473.66a82.23,82.23,0,0,0,25.25,0" transform="translate(-28.35 0.05)"/><path class="cls-10" d="M639.28,463.14a28.34,28.34,0,0,0,6.4,18.42" transform="translate(-28.35 0.05)"/><path class="cls-10" d="M647.71,482.88a56.11,56.11,0,0,0,12.91,1.39" transform="translate(-28.35 0.05)"/><path class="cls-10" d="M645.61,481.57a3.77,3.77,0,0,0,2.08,1.29" transform="translate(-28.35 0.05)"/><path class="cls-10" d="M647.89,481.59a96.82,96.82,0,0,0,12.73.92" transform="translate(-28.35 0.05)"/><path class="cls-10" d="M639.19,463.11a25.56,25.56,0,0,0,6.37,17.21" transform="translate(-28.35 0.05)"/><path class="cls-10" d="M645.61,480.35a3.83,3.83,0,0,0,2.3,1.24" transform="translate(-28.35 0.05)"/><path class="cls-10" d="M675.69,480.35a25.59,25.59,0,0,0,6.4-17.21" transform="translate(-28.35 0.05)"/><path class="cls-10" d="M675.58,481.59A28.37,28.37,0,0,0,682,463.17" transform="translate(-28.35 0.05)"/><path class="cls-10" d="M660.61,482.51a96.53,96.53,0,0,0,12.72-.9" transform="translate(-28.35 0.05)"/><path class="cls-10" d="M660.67,484.27a56.65,56.65,0,0,0,12.91-1.37" transform="translate(-28.35 0.05)"/><path class="cls-10" d="M673.36,481.59a3.78,3.78,0,0,0,2.3-1.24" transform="translate(-28.35 0.05)"/><path class="cls-10" d="M673.58,482.86a3.77,3.77,0,0,0,2.08-1.29" transform="translate(-28.35 0.05)"/><path class="cls-10" d="M683.23,466.06a11.48,11.48,0,0,0-4.28-9.43" transform="translate(-28.35 0.05)"/><path class="cls-10" d="M678.94,456.61a17.94,17.94,0,0,0-3-1.95" transform="translate(-28.35 0.05)"/><path class="cls-10" d="M645.34,454.66a18,18,0,0,0-3,1.95" transform="translate(-28.35 0.05)"/><path class="cls-10" d="M659.07,451a37.13,37.13,0,0,0-13.7,3.73" transform="translate(-28.35 0.05)"/><path class="cls-10" d="M666.85,454.15a26.38,26.38,0,0,0-12.43,0" transform="translate(-28.35 0.05)"/><path class="cls-10" d="M680.48,464.88a6.75,6.75,0,0,0-2.33-5.58" transform="translate(-28.35 0.05)"/><path class="cls-10" d="M678.07,459.38a24.39,24.39,0,0,0-11.24-5.16" transform="translate(-28.35 0.05)"/><path class="cls-10" d="M643.21,459.3a6.75,6.75,0,0,0-2.32,5.58" transform="translate(-28.35 0.05)"/><path class="cls-10" d="M654.45,454.22a24.39,24.39,0,0,0-11.24,5.16" transform="translate(-28.35 0.05)"/><path class="cls-10" d="M663.6,469.9a3,3,0,1,0-3,3,3,3,0,0,0,3-3" transform="translate(-28.35 0.05)"/><path class="cls-10" d="M662.72,469.9a2.08,2.08,0,1,0-2.08,2.08,2.08,2.08,0,0,0,2.08-2.08" transform="translate(-28.35 0.05)"/><line class="cls-10" x1="566.61" y1="472.39" x2="566.61" y2="442.93"/><polyline class="cls-10" points="565.37 474.24 565.37 485.3 597.13 485.3"/><line class="cls-10" x1="581.29" y1="467.26" x2="593.06" y2="467.26"/><polyline class="cls-10" points="566.61 442.93 569.53 467.26 581.29 467.26"/><line class="cls-10" x1="595.89" y1="442.93" x2="593.06" y2="467.26"/><line class="cls-10" x1="567.41" y1="442.93" x2="570.24" y2="467.26"/><line class="cls-10" x1="595.18" y1="442.93" x2="592.26" y2="467.26"/><line class="cls-10" x1="595.89" y1="472.47" x2="595.89" y2="442.93"/><line class="cls-10" x1="597.13" y1="485.3" x2="597.13" y2="474.24"/><polyline class="cls-10" points="566.61 442.93 567.05 439.66 568.29 436.56 570.33 433.91 572.98 431.7 576.07 430.19 579.52 429.4 583.06 429.4 586.42 430.19 589.61 431.7 592.26 433.91 594.21 436.56 595.45 439.66 595.89 442.93"/><polyline class="cls-10" points="567.41 442.93 567.76 439.84 569 436.92 570.86 434.35 573.42 432.32 576.34 430.9 579.61 430.11 582.97 430.11 586.16 430.9 589.16 432.32 591.64 434.35 593.59 436.92 594.74 439.84 595.18 442.93"/><path class="cls-10" d="M623.92,472.29a135.47,135.47,0,0,0-28.47,0" transform="translate(-28.35 0.05)"/><path class="cls-10" d="M595.43,472.26a1.87,1.87,0,0,0-1.62,1.89" transform="translate(-28.35 0.05)"/><path class="cls-10" d="M625.48,474.15a1.86,1.86,0,0,0-1.63-1.89" transform="translate(-28.35 0.05)"/><path class="cls-10" d="M609.69,476.67a1.55,1.55,0,1,0,1.55,1.55,1.55,1.55,0,0,0-1.55-1.55" transform="translate(-28.35 0.05)"/><polyline class="cls-10" points="442.51 438.51 488.51 438.51 488.51 484.42 442.51 484.42 442.51 438.51"/><polyline class="cls-10" points="446.67 480.26 446.67 442.67 480.11 442.67 480.11 480.26 446.67 480.26"/><polyline class="cls-10" points="91.1 198.63 45.1 198.63 45.1 198.19 91.1 198.19 91.1 198.63"/><polyline class="cls-10" points="43.87 199.87 43.87 276.73 43.42 276.73 43.42 199.87 43.87 199.87"/><polyline class="cls-10" points="45.1 277.97 91.1 277.97 91.1 278.41 45.1 278.41 45.1 277.97"/><polyline class="cls-10" points="93.22 199.87 91.1 199.87 91.1 197.75 93.22 197.75 93.22 199.87"/><polyline class="cls-10" points="45.1 199.87 43.07 199.87 43.07 197.75 45.1 197.75 45.1 199.87"/><polyline class="cls-10" points="45.1 276.73 45.1 278.86 43.07 278.86 43.07 276.73 45.1 276.73"/><polyline class="cls-10" points="91.1 276.73 93.22 276.73 93.22 278.86 91.1 278.86 91.1 276.73"/><line class="cls-10" x1="92.16" y1="199.87" x2="45.1" y2="199.87"/><line class="cls-10" x1="43.07" y1="197.75" x2="92.16" y2="197.75"/><line class="cls-10" x1="45.1" y1="199.87" x2="45.1" y2="276.73"/><line class="cls-10" x1="43.07" y1="278.86" x2="43.07" y2="197.75"/><line class="cls-10" x1="45.1" y1="276.73" x2="92.16" y2="276.73"/><line class="cls-10" x1="92.16" y1="278.86" x2="43.07" y2="278.86"/><polyline class="cls-10" points="92.16 197.75 93.22 197.75 93.22 199.87 92.16 199.87"/><polyline class="cls-10" points="92.16 276.73 93.22 276.73 93.22 278.86 92.16 278.86"/><polyline class="cls-10" points="43.07 278.86 43.07 197.75 92.16 197.75 92.16 199.87 45.1 199.87 45.1 276.73 92.16 276.73 92.16 278.86 43.07 278.86"/><polyline class="cls-10" points="58.1 274.7 58.1 201.99 84.82 201.99 84.82 274.7 58.1 274.7"/><polyline class="cls-10" points="60.76 274.7 60.76 201.99 84.82 201.99 84.82 274.7 60.76 274.7"/><line class="cls-10" x1="137.45" y1="251.26" x2="541.14" y2="251.26"/><polyline class="cls-10" points="541.14 244.54 137.45 244.54 137.45 251.26"/><polyline class="cls-10" points="510.27 234.54 510.27 251.26 426.68 251.26 426.68 234.54 510.27 234.54"/><polyline class="cls-10" points="204.31 234.54 204.31 251.26 120.73 251.26 120.73 234.54 204.31 234.54"/><polyline class="cls-10" points="510.27 486.98 510.27 503.7 426.68 503.7 426.68 486.98 510.27 486.98"/><polyline class="cls-10" points="765.98 0.5 765.98 18.9 782.7 18.9 782.7 0.5 667.02 0.5"/><polyline class="cls-10" points="510.27 0.5 510.27 17.22 426.68 17.22 426.68 0.5 510.27 0.5"/><polyline class="cls-10" points="204.31 0.5 204.31 17.22 120.73 17.22 120.73 0.5 204.31 0.5"/><polyline class="cls-10" points="204.31 486.98 204.31 503.7 120.73 503.7 120.73 486.98 204.31 486.98"/><polyline class="cls-10" points="719.19 420.11 735.9 420.11 735.9 503.7 719.19 503.7 719.19 420.11"/><line class="cls-6" x1="392.36" y1="487.51" x2="392.36" y2="486.01"/><line class="cls-11" x1="392.36" y1="483.06" x2="392.36" y2="336.94"/><polyline class="cls-6" points="392.36 335.46 392.36 333.96 393.86 333.96"/><line class="cls-12" x1="396.91" y1="333.96" x2="493" y2="333.96"/><line class="cls-6" x1="494.53" y1="333.96" x2="496.03" y2="333.96"/></svg>