<svg id="_4" data-name="4" xmlns="http://www.w3.org/2000/svg" viewBox="0 0 436.33 1839.79"><defs><style>.cls-1{isolation:isolate;font-size:12px;fill:#969696;}.cls-1,.cls-4,.cls-5,.cls-7{font-family:PTSans-Regular, PT Sans;}.cls-2{letter-spacing:-0.01em;}.cls-10,.cls-3,.cls-6,.cls-8,.cls-9{fill:none;stroke-linecap:round;stroke-linejoin:round;}.cls-3{stroke:#969696;stroke-width:0.75px;}.cls-4{font-size:50px;}.cls-5{font-size:40px;}.cls-10,.cls-6,.cls-8,.cls-9{stroke:#000;}.cls-6{stroke-width:0.5px;}.cls-7{font-size:36px;}.cls-8,.cls-9{stroke-width:0.25px;}.cls-9{stroke-dasharray:0.99 0.99;}</style></defs><text class="cls-1" transform="translate(210.02 10.2)"><tspan class="cls-2">у</tspan><tspan x="5.42" y="0">лица</tspan></text><line class="cls-3" x1="199.26" y1="4.22" x2="199.26" y2="13.02"/><polyline class="cls-3" points="202.76 7.72 199.26 4.22 195.76 7.72"/><text class="cls-1" transform="translate(212.59 1836.59)">двор</text><line class="cls-3" x1="201.83" y1="1839.41" x2="201.83" y2="1830.61"/><polyline class="cls-3" points="198.33 1835.91 201.83 1839.41 205.33 1835.91"/><g id="Size"><text class="cls-4" transform="translate(279.14 1264.25)">№4</text><text class="cls-5" transform="translate(270.46 1317.98)">66.96</text><polyline class="cls-6" points="248.33 1334.65 248.33 1211.01 388.34 1211.01 388.34 1334.65"/><line class="cls-6" x1="248.33" y1="1334.65" x2="388.34" y2="1334.65"/><line class="cls-6" x1="248.33" y1="1278.9" x2="388.34" y2="1278.9"/><text class="cls-7" transform="translate(275.25 1661.88)">52.10</text><text class="cls-7" transform="translate(81.56 270.34)">5.71</text><text class="cls-7" transform="translate(81.56 557.48)">9.15</text><line class="cls-8" x1="204.08" y1="637.84" x2="204.08" y2="637.34"/><line class="cls-9" x1="204.08" y1="636.35" x2="204.08" y2="529.67"/><line class="cls-8" x1="204.08" y1="529.17" x2="204.08" y2="528.67"/><line class="cls-8" x1="210.38" y1="637.84" x2="210.38" y2="637.34"/><line class="cls-9" x1="210.38" y1="636.35" x2="210.38" y2="529.67"/><line class="cls-8" x1="210.38" y1="529.17" x2="210.38" y2="528.67"/></g><line class="cls-10" x1="24.03" y1="148.17" x2="0.5" y2="148.17"/><line class="cls-10" x1="42.84" y1="149" x2="0.5" y2="149"/><line class="cls-10" x1="0.5" y1="180.32" x2="42.84" y2="180.32"/><line class="cls-10" x1="42.84" y1="149" x2="42.84" y2="180.32"/><polyline class="cls-10" points="24.03 138.81 0.5 138.81 0.5 213.68"/><line class="cls-10" x1="186.84" y1="1542.48" x2="186.84" y2="1558.14"/><polyline class="cls-10" points="202.5 1558.14 202.5 1542.48 186.84 1542.48"/><line class="cls-10" x1="186.84" y1="1746.88" x2="186.84" y2="1746.88"/><line class="cls-10" x1="380.98" y1="1746.88" x2="435.83" y2="1746.88"/><line class="cls-10" x1="186.84" y1="1746.88" x2="247.91" y2="1746.88"/><polyline class="cls-10" points="186.84 1746.14 202.5 1746.14 244.76 1746.14"/><line class="cls-10" x1="384.13" y1="1746.14" x2="435.83" y2="1746.14"/><line class="cls-10" x1="384.13" y1="1740.67" x2="384.13" y2="1714.82"/><line class="cls-10" x1="380.98" y1="1756.33" x2="380.98" y2="1746.88"/><line class="cls-10" x1="384.13" y1="1746.14" x2="384.13" y2="1740.67"/><line class="cls-10" x1="244.76" y1="1740.67" x2="244.76" y2="1714.82"/><line class="cls-10" x1="247.91" y1="1756.33" x2="247.91" y2="1746.88"/><line class="cls-10" x1="244.76" y1="1746.14" x2="244.76" y2="1740.67"/><line class="cls-10" x1="186.84" y1="1756.33" x2="247.91" y2="1756.33"/><polyline class="cls-10" points="380.98 1756.33 435.83 1756.33 435.83 1746.88"/><polyline class="cls-10" points="435.83 1746.14 435.83 1714.82 384.13 1714.82"/><line class="cls-10" x1="244.76" y1="1714.82" x2="202.5" y2="1714.82"/><polyline class="cls-10" points="380.98 1756.33 247.91 1756.33 247.91 1760.22 380.98 1760.22 380.98 1756.33"/><line class="cls-10" x1="244.76" y1="1714.82" x2="384.13" y2="1714.82"/><polyline class="cls-10" points="244.76 1740.67 252.63 1740.67 252.63 1746.14 244.76 1746.14"/><polyline class="cls-10" points="314.44 1746.14 310.55 1746.14 310.55 1740.67 314.44 1740.67"/><line class="cls-10" x1="252.63" y1="1743.4" x2="310.55" y2="1743.4"/><line class="cls-10" x1="252.63" y1="1740.67" x2="310.55" y2="1740.67"/><line class="cls-10" x1="310.55" y1="1746.14" x2="252.63" y2="1746.14"/><polyline class="cls-10" points="314.44 1740.67 318.34 1740.67 318.34 1746.14 314.44 1746.14"/><polyline class="cls-10" points="384.13 1746.14 376.34 1746.14 376.34 1740.67 384.13 1740.67"/><line class="cls-10" x1="318.34" y1="1743.4" x2="376.34" y2="1743.4"/><line class="cls-10" x1="318.34" y1="1740.67" x2="376.34" y2="1740.67"/><line class="cls-10" x1="376.34" y1="1746.14" x2="318.34" y2="1746.14"/><polyline class="cls-10" points="244.76 1740.67 244.76 1746.14 244.76 1740.67"/><polyline class="cls-10" points="244.76 1746.14 247.91 1746.14 244.76 1746.14"/><polyline class="cls-10" points="247.91 1756.33 247.91 1746.88 247.91 1746.14"/><line class="cls-10" x1="244.76" y1="1740.67" x2="244.76" y2="1714.82"/><polyline class="cls-10" points="384.13 1740.67 384.13 1746.14 384.13 1740.67"/><polyline class="cls-10" points="384.13 1746.14 380.98 1746.14 384.13 1746.14"/><polyline class="cls-10" points="380.98 1756.33 380.98 1746.88 380.98 1746.14"/><line class="cls-10" x1="384.13" y1="1740.67" x2="384.13" y2="1714.82"/><line class="cls-10" x1="186.84" y1="1342.96" x2="186.84" y2="1335.09"/><polyline class="cls-10" points="186.84 1335.09 186.84 1342.96 186.84 1335.09"/><polyline class="cls-10" points="210.38 368.98 13.09 368.98 13.09 384.64 210.38 384.64 210.38 368.98"/><line class="cls-10" x1="202.5" y1="242.96" x2="210.38" y2="242.96"/><line class="cls-10" x1="202.5" y1="355.64" x2="202.5" y2="368.98"/><path class="cls-10" d="M202.55,314.39a70.47,70.47,0,0,0-70.47,70.47" transform="translate(0 -28.35)"/><path class="cls-10" d="M163.4,275.24a39.14,39.14,0,0,0,39.15,39.15" transform="translate(0 -28.35)"/><polyline class="cls-10" points="139.87 356.47 194.72 356.47 194.72 354.48 139.87 354.48 139.87 356.47"/><polyline class="cls-10" points="139.87 354.48 194.72 354.48 194.72 352.57 139.87 352.57 139.87 354.48"/><polyline class="cls-10" points="194.72 246.85 194.72 248.84 171.18 248.84 171.18 246.85 194.72 246.85"/><polyline class="cls-10" points="194.72 248.84 194.72 250.74 171.18 250.74 171.18 248.84 194.72 248.84"/><line class="cls-10" x1="202.5" y1="362.68" x2="202.5" y2="368.98"/><line class="cls-10" x1="210.38" y1="362.68" x2="210.38" y2="368.98"/><polyline class="cls-10" points="210.38 246.85 202.5 246.85 202.5 242.96 210.38 242.96 210.38 246.85"/><polyline class="cls-10" points="210.38 362.68 202.5 362.68 202.5 356.47 210.38 356.47 210.38 362.68"/><polyline class="cls-10" points="132.08 356.47 139.87 356.47 139.87 352.57 132.08 352.57 132.08 356.47"/><polyline class="cls-10" points="202.5 352.57 194.72 352.57 194.72 356.47 202.5 356.47 202.5 352.57"/><line class="cls-10" x1="139.86" y1="354.48" x2="194.72" y2="354.48"/><polyline class="cls-10" points="163.4 246.85 171.18 246.85 171.18 250.74 163.4 250.74 163.4 246.85"/><polyline class="cls-10" points="202.5 250.74 194.72 250.74 194.72 246.85 202.5 246.85 202.5 250.74"/><line class="cls-10" x1="171.18" y1="248.84" x2="194.72" y2="248.84"/><polyline class="cls-10" points="210.38 242.96 202.5 242.96 210.38 242.96"/><line class="cls-10" x1="20.88" y1="361.19" x2="20.88" y2="180.32"/><line class="cls-10" x1="21.63" y1="360.36" x2="21.63" y2="180.32"/><line class="cls-10" x1="13.09" y1="180.32" x2="13.09" y2="368.98"/><polyline class="cls-10" points="114.84 650.86 13.09 650.86 13.09 666.52 99.18 666.52"/><polyline class="cls-10" points="384.13 1069.7 384.13 1038.38 423.32 1038.38 423.32 1029.02 374.76 1029.02 374.76 1038.38 374.76 1079.14"/><polyline class="cls-10" points="384.13 617.14 423.32 617.14 423.32 607.77 374.76 607.77"/><line class="cls-10" x1="423.32" y1="648.46" x2="384.13" y2="648.46"/><polyline class="cls-10" points="374.76 657.9 423.32 657.9 423.32 648.46"/><line class="cls-10" x1="384.13" y1="648.46" x2="384.13" y2="617.14"/><line class="cls-10" x1="374.76" y1="607.77" x2="374.76" y2="617.14"/><polyline class="cls-10" points="374.76 657.9 374.76 648.46 374.76 617.14"/><line class="cls-10" x1="20.88" y1="361.19" x2="21.63" y2="361.19"/><line class="cls-10" x1="20.88" y1="361.19" x2="21.63" y2="361.19"/><line class="cls-10" x1="202.5" y1="361.19" x2="21.63" y2="361.19"/><line class="cls-10" x1="20.88" y1="368.98" x2="202.5" y2="368.98"/><line class="cls-10" x1="202.5" y1="360.36" x2="21.63" y2="360.36"/><line class="cls-10" x1="435.83" y1="148.17" x2="429.53" y2="148.17"/><polyline class="cls-10" points="423.32 148.17 423.32 149 423.32 148.17"/><line class="cls-10" x1="435.83" y1="149" x2="423.32" y2="149"/><polyline class="cls-10" points="423.32 149 423.32 180.32 423.32 149"/><line class="cls-10" x1="423.32" y1="180.32" x2="435.83" y2="180.32"/><line class="cls-10" x1="435.83" y1="138.8" x2="435.83" y2="148.17"/><line class="cls-10" x1="435.83" y1="149" x2="435.83" y2="180.32"/><line class="cls-10" x1="435.83" y1="138.8" x2="166.09" y2="138.8"/><polyline class="cls-10" points="210.38 709.52 204.08 709.52 210.38 709.52"/><line class="cls-10" x1="210.38" y1="623.43" x2="204.08" y2="623.43"/><line class="cls-10" x1="210.38" y1="541.24" x2="204.08" y2="541.24"/><polyline class="cls-10" points="210.38 725.18 210.38 709.52 210.38 623.43"/><polyline class="cls-10" points="210.38 541.24 210.38 384.64 204.08 384.64 204.08 541.24"/><line class="cls-10" x1="204.08" y1="623.43" x2="204.08" y2="709.52"/><line class="cls-10" x1="202.5" y1="164.66" x2="202.5" y2="242.96"/><line class="cls-10" x1="201.76" y1="164.66" x2="201.76" y2="242.96"/><line class="cls-10" x1="210.38" y1="242.96" x2="210.38" y2="164.66"/><line class="cls-10" x1="423.32" y1="1069.7" x2="384.13" y2="1069.7"/><polyline class="cls-10" points="374.76 1079.14 384.13 1079.14 423.32 1079.14 423.32 1069.7"/><line class="cls-10" x1="99.18" y1="666.52" x2="99.18" y2="725.18"/><polyline class="cls-10" points="114.84 650.86 114.84 666.52 114.84 709.52"/><polyline class="cls-10" points="99.18 725.18 114.84 725.18 186.84 725.18"/><line class="cls-10" x1="202.5" y1="725.18" x2="210.38" y2="725.18"/><line class="cls-10" x1="204.08" y1="709.52" x2="114.84" y2="709.52"/><polyline class="cls-10" points="99.18 709.52 13.09 709.52 13.09 718.97 99.18 718.97 99.18 709.52"/><line class="cls-10" x1="186.84" y1="1542.48" x2="186.84" y2="1342.96"/><line class="cls-10" x1="186.84" y1="1558.22" x2="186.84" y2="1558.22"/><polyline class="cls-10" points="186.84 1542.56 186.84 1558.22 186.84 1558.22 186.84 1542.56 186.84 1542.56 186.84 1542.56 186.84 1558.22"/><polyline class="cls-10" points="186.84 1542.56 186.84 1558.22 186.84 1542.56"/><line class="cls-10" x1="42.84" y1="164.66" x2="50.63" y2="164.66"/><line class="cls-10" x1="50.63" y1="149" x2="42.84" y2="149"/><line class="cls-10" x1="322.31" y1="149" x2="410.72" y2="149"/><line class="cls-10" x1="322.31" y1="164.66" x2="410.72" y2="164.66"/><polyline class="cls-10" points="322.31 149 328.2 149 328.2 150.99 330.1 150.99 330.1 164.66 322.31 164.66"/><polyline class="cls-10" points="410.72 164.66 402.93 164.66 402.93 150.99 404.92 150.99 404.92 149 410.72 149"/><line class="cls-10" x1="404.92" y1="147.01" x2="338.47" y2="108.65"/><line class="cls-10" x1="402.93" y1="164.66" x2="330.1" y2="164.66"/><polyline class="cls-10" points="328.2 147.01 332.09 147.01 400.95 147.01"/><polyline class="cls-10" points="332.09 147.01 332.09 150.99 328.2 150.99 328.2 147.01"/><polyline class="cls-10" points="404.92 150.99 400.95 150.99 400.95 147.01 404.92 147.01 404.92 150.99"/><line class="cls-10" x1="400.95" y1="150.98" x2="332.09" y2="150.98"/><line class="cls-10" x1="332.09" y1="147.01" x2="400.95" y2="147.01"/><line class="cls-10" x1="332.09" y1="149" x2="400.95" y2="149"/><path class="cls-10" d="M338.55,137a76.83,76.83,0,0,0-10.27,38.38" transform="translate(0 -28.35)"/><polyline class="cls-10" points="322.31 164.66 322.31 149 322.31 164.66"/><polyline class="cls-10" points="410.72 164.66 410.72 149 410.72 164.66"/><polyline class="cls-10" points="222.89 149 230.68 149 230.68 164.66 222.89 164.66"/><polyline class="cls-10" points="322.31 164.66 314.44 164.66 314.44 149 322.31 149"/><line class="cls-10" x1="230.68" y1="156.78" x2="314.44" y2="156.78"/><line class="cls-10" x1="230.68" y1="149" x2="314.44" y2="149"/><line class="cls-10" x1="314.44" y1="164.66" x2="230.68" y2="164.66"/><polyline class="cls-10" points="222.89 164.66 222.89 149 222.89 164.66"/><polyline class="cls-10" points="322.31 164.66 322.31 149 322.31 164.66"/><line class="cls-10" x1="168.04" y1="149" x2="230.68" y2="149"/><line class="cls-10" x1="168.04" y1="164.66" x2="230.68" y2="164.66"/><polyline class="cls-10" points="222.89 149 222.89 164.66 230.68 164.66 230.68 149 222.89 149"/><polyline class="cls-10" points="168.04 149 168.04 164.66 175.91 164.66 175.91 149 168.04 149"/><line class="cls-10" x1="175.91" y1="152.89" x2="222.89" y2="152.89"/><polyline class="cls-10" points="168.04 164.66 168.04 149 168.04 164.66"/><polyline class="cls-10" points="230.68 164.66 230.68 149 230.68 164.66"/><line class="cls-10" x1="168.04" y1="149" x2="50.63" y2="149"/><path class="cls-10" d="M125,177.39a70.47,70.47,0,0,0-70.47-70.47" transform="translate(0 -28.35)"/><path class="cls-10" d="M164.18,138.24A39.15,39.15,0,0,0,125,177.39" transform="translate(0 -28.35)"/><polyline class="cls-10" points="54.52 86.36 54.52 141.13 56.51 141.13 56.51 86.36 54.52 86.36"/><polyline class="cls-10" points="56.51 86.36 56.51 141.13 58.5 141.13 58.5 86.36 56.51 86.36"/><polyline class="cls-10" points="164.14 141.13 162.15 141.13 162.15 117.68 164.14 117.68 164.14 141.13"/><polyline class="cls-10" points="162.15 141.13 160.25 141.13 160.25 117.68 162.15 117.68 162.15 141.13"/><polyline class="cls-10" points="164.14 154.47 164.14 149 168.04 149 168.04 154.47 164.14 154.47"/><polyline class="cls-10" points="50.63 154.47 50.63 149 54.52 149 54.52 154.47 50.63 154.47"/><polyline class="cls-10" points="54.52 78.48 54.52 86.36 58.5 86.36 58.5 78.48 54.52 78.48"/><polyline class="cls-10" points="58.5 149 58.5 141.13 54.52 141.13 54.52 149 58.5 149"/><line class="cls-10" x1="56.51" y1="86.36" x2="56.51" y2="141.12"/><polyline class="cls-10" points="164.14 109.81 164.14 117.68 160.25 117.68 160.25 109.81 164.14 109.81"/><polyline class="cls-10" points="160.25 149 160.25 141.13 164.14 141.13 164.14 149 160.25 149"/><line class="cls-10" x1="162.15" y1="117.68" x2="162.15" y2="141.12"/><polyline class="cls-10" points="168.04 164.66 168.04 154.47 168.04 149 168.04 154.47"/><polyline class="cls-10" points="50.63 164.66 50.63 154.47 50.63 149 50.63 154.47"/><polyline class="cls-10" points="326.95 230.44 326.95 231.19 326.95 230.44"/><line class="cls-10" x1="411.14" y1="231.19" x2="326.95" y2="231.19"/><line class="cls-10" x1="416.36" y1="242.96" x2="321.4" y2="242.96"/><line class="cls-10" x1="314.44" y1="258.62" x2="423.32" y2="258.62"/><line class="cls-10" x1="410.72" y1="230.44" x2="326.95" y2="230.44"/><line class="cls-10" x1="411.55" y1="231.19" x2="411.14" y2="231.19"/><line class="cls-10" x1="411.55" y1="148.17" x2="411.55" y2="230.44"/><line class="cls-10" x1="423.32" y1="242.96" x2="416.36" y2="242.96"/><line class="cls-10" x1="423.32" y1="258.62" x2="423.32" y2="242.96"/><line class="cls-10" x1="423.32" y1="231.19" x2="423.32" y2="180.32"/><line class="cls-10" x1="410.72" y1="148.17" x2="410.72" y2="230.44"/><line class="cls-10" x1="330.1" y1="230.44" x2="330.1" y2="164.66"/><line class="cls-10" x1="314.44" y1="164.66" x2="314.44" y2="255.88"/><line class="cls-10" x1="202.5" y1="1464.26" x2="202.5" y2="725.18"/><polyline class="cls-10" points="186.84 725.18 186.84 1464.26 202.5 1464.26"/><line class="cls-10" x1="186.84" y1="1127.61" x2="186.84" y2="1119.83"/><polyline class="cls-10" points="186.84 1119.83 186.84 1127.62 186.84 1119.83"/><polyline class="cls-10" points="186.84 1558.14 186.84 1746.14 186.84 1746.88 186.84 1746.14"/><polyline class="cls-10" points="186.84 1558.14 186.84 1714.82 186.84 1746.14 186.84 1714.82"/><polyline class="cls-10" points="186.84 1756.33 186.84 1746.88 186.84 1558.14"/><line class="cls-10" x1="202.5" y1="1714.82" x2="202.5" y2="1558.14"/><line class="cls-10" x1="186.84" y1="1558.14" x2="186.84" y2="1558.14"/><line class="cls-10" x1="45.91" y1="138.8" x2="24.03" y2="138.8"/><polyline class="cls-10" points="24.03 148.17 42.84 148.17 45.91 148.17 45.91 138.81"/><polyline class="cls-10" points="429.53 138.81 410.72 138.81 407.66 138.81 407.66 148.17 410.72 148.17"/><line class="cls-10" x1="413.62" y1="148.17" x2="429.53" y2="148.17"/><polyline class="cls-10" points="410.72 148.17 411.55 148.17 413.62 148.17"/><polyline class="cls-10" points="210.38 164.66 222.89 164.66 222.89 153.72 175.91 153.72 175.91 164.66 202.5 164.66"/><line class="cls-10" x1="27.43" y1="465.43" x2="55.1" y2="465.43"/><polyline class="cls-10" points="25.77 464.26 15.41 464.26 15.41 494.01"/><line class="cls-10" x1="32.32" y1="479.18" x2="32.32" y2="490.2"/><polyline class="cls-10" points="55.02 465.43 32.32 468.16 32.32 479.18"/><line class="cls-10" x1="55.02" y1="492.85" x2="32.32" y2="490.2"/><line class="cls-10" x1="55.02" y1="466.17" x2="32.32" y2="468.82"/><line class="cls-10" x1="55.02" y1="492.19" x2="32.32" y2="489.45"/><line class="cls-10" x1="27.43" y1="492.85" x2="55.1" y2="492.85"/><line class="cls-10" x1="15.41" y1="494.01" x2="25.77" y2="494.01"/><polyline class="cls-10" points="55.02 465.43 58.09 465.84 60.98 467 63.55 468.9 65.63 471.39 67.03 474.29 67.78 477.52 67.78 480.84 67.03 483.99 65.63 486.97 63.55 489.45 60.98 491.28 58.09 492.44 55.02 492.85"/><polyline class="cls-10" points="55.02 466.17 57.92 466.5 60.65 467.66 63.06 469.4 65.05 471.81 66.37 474.54 67.03 477.61 67.03 480.75 66.37 483.74 65.05 486.55 63.06 488.87 60.65 490.7 57.92 491.77 55.02 492.19"/><path class="cls-10" d="M27.55,520.9a126.47,126.47,0,0,0,0-26.67" transform="translate(0 -28.35)"/><path class="cls-10" d="M27.58,494.21a1.75,1.75,0,0,0-1.77-1.51" transform="translate(0 -28.35)"/><path class="cls-10" d="M25.81,522.36a1.74,1.74,0,0,0,1.77-1.53" transform="translate(0 -28.35)"/><path class="cls-10" d="M23.45,507.57A1.45,1.45,0,1,0,22,509a1.45,1.45,0,0,0,1.45-1.45" transform="translate(0 -28.35)"/><polyline class="cls-10" points="33.31 615.4 15.41 615.4 15.41 573.14 33.31 573.14"/><line class="cls-10" x1="15.41" y1="587.56" x2="15.41" y2="600.9"/><line class="cls-10" x1="29.75" y1="590.7" x2="29.75" y2="592.94"/><line class="cls-10" x1="26.19" y1="594.27" x2="28.42" y2="594.27"/><line class="cls-10" x1="29.75" y1="595.59" x2="29.75" y2="597.83"/><line class="cls-10" x1="31.07" y1="594.27" x2="33.31" y2="594.27"/><path class="cls-10" d="M25.55,633.87a18.81,18.81,0,0,0,8.9,7.31" transform="translate(0 -28.35)"/><path class="cls-10" d="M22.85,622.63a18.83,18.83,0,0,0,2.63,11.23" transform="translate(0 -28.35)"/><path class="cls-10" d="M34.48,604.13a18.89,18.89,0,0,0-8.92,7.3" transform="translate(0 -28.35)"/><path class="cls-10" d="M25.5,611.43a18.8,18.8,0,0,0-2.65,11.24" transform="translate(0 -28.35)"/><path class="cls-10" d="M44,637a34.56,34.56,0,0,0,3.51-12.82" transform="translate(0 -28.35)"/><path class="cls-10" d="M42.22,605.51a10.74,10.74,0,0,0-8.82-4" transform="translate(0 -28.35)"/><path class="cls-10" d="M47.51,624.16a21,21,0,0,0,0-3" transform="translate(0 -28.35)"/><path class="cls-10" d="M26.28,610.79a77.18,77.18,0,0,0,0,23.65" transform="translate(0 -28.35)"/><path class="cls-10" d="M36.15,602.66a26.54,26.54,0,0,0-17.27,6" transform="translate(0 -28.35)"/><path class="cls-10" d="M17.64,610.52a52.82,52.82,0,0,0-1.31,12.09" transform="translate(0 -28.35)"/><path class="cls-10" d="M18.86,608.58a3.54,3.54,0,0,0-1.2,1.95" transform="translate(0 -28.35)"/><path class="cls-10" d="M18.85,610.75A91.39,91.39,0,0,0,18,622.67" transform="translate(0 -28.35)"/><path class="cls-10" d="M36.09,602.57a23.91,23.91,0,0,0-16.13,6" transform="translate(0 -28.35)"/><path class="cls-10" d="M20,608.58a3.48,3.48,0,0,0-1.16,2.16" transform="translate(0 -28.35)"/><path class="cls-10" d="M20,636.75a23.85,23.85,0,0,0,16.1,6" transform="translate(0 -28.35)"/><path class="cls-10" d="M18.83,636.64a26.53,26.53,0,0,0,17.24,6" transform="translate(0 -28.35)"/><path class="cls-10" d="M18,622.65a91.64,91.64,0,0,0,.84,11.93" transform="translate(0 -28.35)"/><path class="cls-10" d="M16.33,622.65a52.94,52.94,0,0,0,1.28,12.1" transform="translate(0 -28.35)"/><path class="cls-10" d="M18.84,634.57A3.55,3.55,0,0,0,20,636.73" transform="translate(0 -28.35)"/><path class="cls-10" d="M17.57,634.7a3.54,3.54,0,0,0,1.2,1.95" transform="translate(0 -28.35)"/><path class="cls-10" d="M33.3,643.74a10.74,10.74,0,0,0,8.83-4" transform="translate(0 -28.35)"/><path class="cls-10" d="M42.24,639.82A16.75,16.75,0,0,0,44.06,637" transform="translate(0 -28.35)"/><path class="cls-10" d="M44.07,608.34a16.75,16.75,0,0,0-1.82-2.82" transform="translate(0 -28.35)"/><path class="cls-10" d="M47.47,621.21A34.82,34.82,0,0,0,44,608.38" transform="translate(0 -28.35)"/><path class="cls-10" d="M44.55,628.5a24.89,24.89,0,0,0,0-11.64" transform="translate(0 -28.35)"/><path class="cls-10" d="M34.41,641.16A6.32,6.32,0,0,0,39.64,639" transform="translate(0 -28.35)"/><path class="cls-10" d="M39.64,639a22.92,22.92,0,0,0,4.84-10.52" transform="translate(0 -28.35)"/><path class="cls-10" d="M39.73,606.26a6.36,6.36,0,0,0-5.23-2.19" transform="translate(0 -28.35)"/><path class="cls-10" d="M44.48,616.88a23,23,0,0,0-4.82-10.54" transform="translate(0 -28.35)"/><path class="cls-10" d="M29.79,625.44A2.78,2.78,0,1,0,27,622.66a2.79,2.79,0,0,0,2.78,2.78" transform="translate(0 -28.35)"/><path class="cls-10" d="M29.79,624.61a1.95,1.95,0,1,0-1.95-2,1.95,1.95,0,0,0,1.95,2" transform="translate(0 -28.35)"/><polyline class="cls-10" points="186.84 1756.25 186.84 1756.33 186.84 1756.08"/><line class="cls-10" x1="186.84" y1="1755.92" x2="186.84" y2="1755.92"/><line class="cls-10" x1="186.84" y1="1755.83" x2="186.84" y2="1755.5"/><line class="cls-10" x1="186.84" y1="1755.42" x2="186.84" y2="1755.42"/><line class="cls-10" x1="186.84" y1="1755.25" x2="186.84" y2="1755"/><line class="cls-10" x1="186.84" y1="1754.84" x2="186.84" y2="1754.84"/><line class="cls-10" x1="186.84" y1="1754.67" x2="186.84" y2="1754.42"/><line class="cls-10" x1="186.84" y1="1754.26" x2="186.84" y2="1754.26"/><line class="cls-10" x1="186.84" y1="1754.09" x2="186.84" y2="1753.84"/><line class="cls-10" x1="186.84" y1="1753.68" x2="186.84" y2="1753.68"/><line class="cls-10" x1="186.84" y1="1753.6" x2="186.84" y2="1753.26"/><line class="cls-10" x1="186.84" y1="1753.18" x2="186.84" y2="1753.1"/><line class="cls-10" x1="186.84" y1="1753.02" x2="186.84" y2="1752.68"/><line class="cls-10" x1="186.84" y1="1752.6" x2="186.84" y2="1752.6"/><line class="cls-10" x1="186.84" y1="1752.44" x2="186.84" y2="1752.19"/><line class="cls-10" x1="186.84" y1="1752.02" x2="186.84" y2="1752.02"/><line class="cls-10" x1="186.84" y1="1751.86" x2="186.84" y2="1751.61"/><line class="cls-10" x1="186.84" y1="1751.44" x2="186.84" y2="1751.44"/><line class="cls-10" x1="186.84" y1="1751.36" x2="186.84" y2="1751.03"/><line class="cls-10" x1="186.84" y1="1750.94" x2="186.84" y2="1750.86"/><line class="cls-10" x1="186.84" y1="1750.78" x2="186.84" y2="1750.45"/><line class="cls-10" x1="186.84" y1="1750.36" x2="186.84" y2="1750.36"/><line class="cls-10" x1="186.84" y1="1750.2" x2="186.84" y2="1749.95"/><line class="cls-10" x1="186.84" y1="1749.78" x2="186.84" y2="1749.78"/><line class="cls-10" x1="186.84" y1="1749.62" x2="186.84" y2="1749.37"/><line class="cls-10" x1="186.84" y1="1749.2" x2="186.84" y2="1749.2"/><line class="cls-10" x1="186.84" y1="1749.12" x2="186.84" y2="1748.79"/><line class="cls-10" x1="186.84" y1="1748.71" x2="186.84" y2="1748.62"/><line class="cls-10" x1="186.84" y1="1748.54" x2="186.84" y2="1748.21"/><line class="cls-10" x1="186.84" y1="1748.13" x2="186.84" y2="1748.13"/><line class="cls-10" x1="186.84" y1="1747.96" x2="186.84" y2="1747.71"/><line class="cls-10" x1="186.84" y1="1747.55" x2="186.84" y2="1747.55"/><line class="cls-10" x1="186.84" y1="1747.38" x2="186.84" y2="1747.13"/><line class="cls-10" x1="186.84" y1="1746.97" x2="186.84" y2="1746.97"/><line class="cls-10" x1="186.84" y1="1746.88" x2="186.84" y2="1746.55"/><line class="cls-10" x1="186.84" y1="1746.47" x2="186.84" y2="1746.39"/><line class="cls-10" x1="186.84" y1="1746.3" x2="186.84" y2="1745.97"/><line class="cls-10" x1="186.84" y1="1745.89" x2="186.84" y2="1745.89"/><line class="cls-10" x1="186.84" y1="1745.72" x2="186.84" y2="1745.48"/><line class="cls-10" x1="186.84" y1="1745.31" x2="186.84" y2="1745.31"/><line class="cls-10" x1="186.84" y1="1745.14" x2="186.84" y2="1744.9"/><line class="cls-10" x1="186.84" y1="1744.73" x2="186.84" y2="1744.73"/><line class="cls-10" x1="186.84" y1="1744.56" x2="186.84" y2="1744.32"/><line class="cls-10" x1="186.84" y1="1744.15" x2="186.84" y2="1744.15"/><line class="cls-10" x1="186.84" y1="1744.07" x2="186.84" y2="1743.74"/><line class="cls-10" x1="186.84" y1="1743.65" x2="186.84" y2="1743.65"/><line class="cls-10" x1="186.84" y1="1743.49" x2="186.84" y2="1743.24"/><line class="cls-10" x1="186.84" y1="1743.07" x2="186.84" y2="1743.07"/><line class="cls-10" x1="186.84" y1="1742.91" x2="186.84" y2="1742.66"/><line class="cls-10" x1="186.84" y1="1742.49" x2="186.84" y2="1742.49"/><line class="cls-10" x1="186.84" y1="1742.33" x2="186.84" y2="1742.08"/><line class="cls-10" x1="186.84" y1="1741.91" x2="186.84" y2="1741.91"/><line class="cls-10" x1="186.84" y1="1741.83" x2="186.84" y2="1741.5"/><line class="cls-10" x1="186.84" y1="1741.42" x2="186.84" y2="1741.42"/><line class="cls-10" x1="186.84" y1="1741.25" x2="186.84" y2="1741"/><line class="cls-10" x1="186.84" y1="1740.84" x2="186.84" y2="1740.84"/><line class="cls-10" x1="186.84" y1="1740.67" x2="186.84" y2="1740.42"/><line class="cls-10" x1="186.84" y1="1740.26" x2="186.84" y2="1740.26"/><line class="cls-10" x1="186.84" y1="1740.09" x2="186.84" y2="1739.84"/><line class="cls-10" x1="186.84" y1="1739.68" x2="186.84" y2="1739.68"/><line class="cls-10" x1="186.84" y1="1739.59" x2="186.84" y2="1739.26"/><line class="cls-10" x1="186.84" y1="1739.18" x2="186.84" y2="1739.18"/><line class="cls-10" x1="186.84" y1="1739.01" x2="186.84" y2="1738.76"/><line class="cls-10" x1="186.84" y1="1738.6" x2="186.84" y2="1738.6"/><line class="cls-10" x1="186.84" y1="1738.43" x2="186.84" y2="1738.18"/><line class="cls-10" x1="186.84" y1="1738.02" x2="186.84" y2="1738.02"/><line class="cls-10" x1="186.84" y1="1737.85" x2="186.84" y2="1737.6"/><line class="cls-10" x1="186.84" y1="1737.44" x2="186.84" y2="1737.44"/><line class="cls-10" x1="186.84" y1="1737.36" x2="186.84" y2="1737.02"/><line class="cls-10" x1="186.84" y1="1736.94" x2="186.84" y2="1736.94"/><line class="cls-10" x1="186.84" y1="1736.78" x2="186.84" y2="1736.53"/><line class="cls-10" x1="186.84" y1="1736.36" x2="186.84" y2="1736.36"/><line class="cls-10" x1="186.84" y1="1736.2" x2="186.84" y2="1735.95"/><line class="cls-10" x1="186.84" y1="1735.78" x2="186.84" y2="1735.78"/><line class="cls-10" x1="186.84" y1="1735.62" x2="186.84" y2="1735.37"/><line class="cls-10" x1="186.84" y1="1735.2" x2="186.84" y2="1735.2"/><line class="cls-10" x1="186.84" y1="1735.12" x2="186.84" y2="1734.79"/><line class="cls-10" x1="186.84" y1="1734.7" x2="186.84" y2="1734.7"/><line class="cls-10" x1="186.84" y1="1734.54" x2="186.84" y2="1734.29"/><line class="cls-10" x1="186.84" y1="1734.12" x2="186.84" y2="1734.12"/><line class="cls-10" x1="186.84" y1="1733.96" x2="186.84" y2="1733.71"/><line class="cls-10" x1="186.84" y1="1733.54" x2="186.84" y2="1733.54"/><line class="cls-10" x1="186.84" y1="1733.38" x2="186.84" y2="1733.13"/><line class="cls-10" x1="186.84" y1="1732.96" x2="186.84" y2="1732.96"/><line class="cls-10" x1="186.84" y1="1732.88" x2="186.84" y2="1732.55"/><line class="cls-10" x1="186.84" y1="1732.47" x2="186.84" y2="1732.47"/><line class="cls-10" x1="186.84" y1="1732.3" x2="186.84" y2="1732.05"/><line class="cls-10" x1="186.84" y1="1731.89" x2="186.84" y2="1731.89"/><line class="cls-10" x1="186.84" y1="1731.72" x2="186.84" y2="1731.47"/><line class="cls-10" x1="186.84" y1="1731.31" x2="186.84" y2="1731.31"/><line class="cls-10" x1="186.84" y1="1731.14" x2="186.84" y2="1730.89"/><line class="cls-10" x1="186.84" y1="1730.73" x2="186.84" y2="1730.73"/><line class="cls-10" x1="186.84" y1="1730.64" x2="186.84" y2="1730.31"/><line class="cls-10" x1="186.84" y1="1730.23" x2="186.84" y2="1730.15"/><line class="cls-10" x1="186.84" y1="1730.06" x2="186.84" y2="1729.73"/><line class="cls-10" x1="186.84" y1="1729.65" x2="186.84" y2="1729.65"/><line class="cls-10" x1="186.84" y1="1729.48" x2="186.84" y2="1729.24"/><line class="cls-10" x1="186.84" y1="1729.07" x2="186.84" y2="1729.07"/><line class="cls-10" x1="186.84" y1="1728.9" x2="186.84" y2="1728.66"/><line class="cls-10" x1="186.84" y1="1728.49" x2="186.84" y2="1728.49"/><line class="cls-10" x1="186.84" y1="1728.41" x2="186.84" y2="1728.08"/><line class="cls-10" x1="186.84" y1="1727.99" x2="186.84" y2="1727.91"/><line class="cls-10" x1="186.84" y1="1727.83" x2="186.84" y2="1727.5"/><line class="cls-10" x1="186.84" y1="1727.41" x2="186.84" y2="1727.41"/><line class="cls-10" x1="186.84" y1="1727.25" x2="186.84" y2="1727"/><line class="cls-10" x1="186.84" y1="1726.83" x2="186.84" y2="1726.83"/><line class="cls-10" x1="186.84" y1="1726.67" x2="186.84" y2="1726.42"/><line class="cls-10" x1="186.84" y1="1726.25" x2="186.84" y2="1726.25"/><line class="cls-10" x1="186.84" y1="1726.17" x2="186.84" y2="1725.84"/><line class="cls-10" x1="186.84" y1="1725.76" x2="186.84" y2="1725.67"/><line class="cls-10" x1="186.84" y1="1725.59" x2="186.84" y2="1725.26"/><line class="cls-10" x1="186.84" y1="1725.18" x2="186.84" y2="1725.18"/><line class="cls-10" x1="186.84" y1="1725.01" x2="186.84" y2="1724.76"/><line class="cls-10" x1="186.84" y1="1724.6" x2="186.84" y2="1724.6"/><line class="cls-10" x1="186.84" y1="1724.43" x2="186.84" y2="1724.18"/><line class="cls-10" x1="186.84" y1="1724.02" x2="186.84" y2="1724.02"/><line class="cls-10" x1="186.84" y1="1723.93" x2="186.84" y2="1723.6"/><line class="cls-10" x1="186.84" y1="1723.52" x2="186.84" y2="1723.44"/><line class="cls-10" x1="186.84" y1="1723.35" x2="186.84" y2="1723.02"/><line class="cls-10" x1="186.84" y1="1722.94" x2="186.84" y2="1722.94"/><line class="cls-10" x1="186.84" y1="1722.77" x2="186.84" y2="1722.52"/><line class="cls-10" x1="186.84" y1="1722.36" x2="186.84" y2="1722.36"/><line class="cls-10" x1="186.84" y1="1722.19" x2="186.84" y2="1721.94"/><line class="cls-10" x1="186.84" y1="1721.78" x2="186.84" y2="1721.78"/><line class="cls-10" x1="186.84" y1="1721.61" x2="186.84" y2="1721.36"/><line class="cls-10" x1="186.84" y1="1721.2" x2="186.84" y2="1721.2"/><line class="cls-10" x1="186.84" y1="1721.12" x2="186.84" y2="1720.78"/><line class="cls-10" x1="186.84" y1="1720.7" x2="186.84" y2="1720.7"/><line class="cls-10" x1="186.84" y1="1720.54" x2="186.84" y2="1720.29"/><line class="cls-10" x1="186.84" y1="1720.12" x2="186.84" y2="1720.12"/><line class="cls-10" x1="186.84" y1="1719.96" x2="186.84" y2="1719.71"/><line class="cls-10" x1="186.84" y1="1719.54" x2="186.84" y2="1719.54"/><line class="cls-10" x1="186.84" y1="1719.38" x2="186.84" y2="1719.13"/><line class="cls-10" x1="186.84" y1="1718.96" x2="186.84" y2="1718.96"/><line class="cls-10" x1="186.84" y1="1718.88" x2="186.84" y2="1718.55"/><line class="cls-10" x1="186.84" y1="1718.46" x2="186.84" y2="1718.46"/><line class="cls-10" x1="186.84" y1="1718.3" x2="186.84" y2="1718.05"/><line class="cls-10" x1="186.84" y1="1717.88" x2="186.84" y2="1717.88"/><line class="cls-10" x1="186.84" y1="1717.72" x2="186.84" y2="1717.47"/><line class="cls-10" x1="186.84" y1="1717.3" x2="186.84" y2="1717.3"/><line class="cls-10" x1="186.84" y1="1717.14" x2="186.84" y2="1716.89"/><line class="cls-10" x1="186.84" y1="1716.72" x2="186.84" y2="1716.72"/><line class="cls-10" x1="186.84" y1="1716.64" x2="186.84" y2="1716.31"/><line class="cls-10" x1="186.84" y1="1716.23" x2="186.84" y2="1716.23"/><line class="cls-10" x1="186.84" y1="1716.06" x2="186.84" y2="1715.81"/><line class="cls-10" x1="186.84" y1="1715.65" x2="186.84" y2="1715.65"/><line class="cls-10" x1="186.84" y1="1715.48" x2="186.84" y2="1715.23"/><line class="cls-10" x1="186.84" y1="1715.07" x2="186.84" y2="1715.07"/><line class="cls-10" x1="186.84" y1="1714.9" x2="186.84" y2="1714.65"/><line class="cls-10" x1="186.84" y1="1714.49" x2="186.84" y2="1714.49"/><line class="cls-10" x1="186.84" y1="1714.4" x2="186.84" y2="1714.07"/><line class="cls-10" x1="186.84" y1="1713.99" x2="186.84" y2="1713.99"/><line class="cls-10" x1="186.84" y1="1713.82" x2="186.84" y2="1713.58"/><line class="cls-10" x1="186.84" y1="1713.41" x2="186.84" y2="1713.41"/><line class="cls-10" x1="186.84" y1="1713.24" x2="186.84" y2="1713"/><line class="cls-10" x1="186.84" y1="1712.83" x2="186.84" y2="1712.83"/><line class="cls-10" x1="186.84" y1="1712.66" x2="186.84" y2="1712.42"/><line class="cls-10" x1="186.84" y1="1712.25" x2="186.84" y2="1712.25"/><line class="cls-10" x1="186.84" y1="1712.17" x2="186.84" y2="1711.84"/><line class="cls-10" x1="186.84" y1="1711.75" x2="186.84" y2="1711.75"/><line class="cls-10" x1="186.84" y1="1711.59" x2="186.84" y2="1711.34"/><line class="cls-10" x1="186.84" y1="1711.17" x2="186.84" y2="1711.17"/><line class="cls-10" x1="186.84" y1="1711.01" x2="186.84" y2="1710.76"/><line class="cls-10" x1="186.84" y1="1710.59" x2="186.84" y2="1710.59"/><line class="cls-10" x1="186.84" y1="1710.43" x2="186.84" y2="1710.18"/><line class="cls-10" x1="186.84" y1="1710.01" x2="186.84" y2="1710.01"/><line class="cls-10" x1="186.84" y1="1709.93" x2="186.84" y2="1709.6"/><line class="cls-10" x1="186.84" y1="1709.52" x2="186.84" y2="1709.52"/><line class="cls-10" x1="186.84" y1="1709.35" x2="186.84" y2="1709.1"/><line class="cls-10" x1="186.84" y1="1708.94" x2="186.84" y2="1708.94"/><line class="cls-10" x1="186.84" y1="1708.77" x2="186.84" y2="1708.52"/><line class="cls-10" x1="186.84" y1="1708.36" x2="186.84" y2="1708.36"/><line class="cls-10" x1="186.84" y1="1708.19" x2="186.84" y2="1707.94"/><line class="cls-10" x1="186.84" y1="1707.78" x2="186.84" y2="1707.78"/><line class="cls-10" x1="186.84" y1="1707.69" x2="186.84" y2="1707.36"/><line class="cls-10" x1="186.84" y1="1707.28" x2="186.84" y2="1707.2"/><line class="cls-10" x1="186.84" y1="1707.11" x2="186.84" y2="1706.78"/><line class="cls-10" x1="186.84" y1="1706.7" x2="186.84" y2="1706.7"/><line class="cls-10" x1="186.84" y1="1706.53" x2="186.84" y2="1706.28"/><line class="cls-10" x1="186.84" y1="1706.12" x2="186.84" y2="1706.12"/><line class="cls-10" x1="186.84" y1="1705.95" x2="186.84" y2="1705.7"/><line class="cls-10" x1="186.84" y1="1705.54" x2="186.84" y2="1705.54"/><line class="cls-10" x1="186.84" y1="1705.46" x2="186.84" y2="1705.12"/><line class="cls-10" x1="186.84" y1="1705.04" x2="186.84" y2="1704.96"/><line class="cls-10" x1="186.84" y1="1704.88" x2="186.84" y2="1704.54"/><line class="cls-10" x1="186.84" y1="1704.46" x2="186.84" y2="1704.46"/><line class="cls-10" x1="186.84" y1="1704.3" x2="186.84" y2="1704.05"/><line class="cls-10" x1="186.84" y1="1703.88" x2="186.84" y2="1703.88"/><line class="cls-10" x1="186.84" y1="1703.72" x2="186.84" y2="1703.47"/><line class="cls-10" x1="186.84" y1="1703.3" x2="186.84" y2="1703.3"/><line class="cls-10" x1="186.84" y1="1703.22" x2="186.84" y2="1702.89"/><line class="cls-10" x1="186.84" y1="1702.8" x2="186.84" y2="1702.72"/><line class="cls-10" x1="186.84" y1="1702.64" x2="186.84" y2="1702.31"/><line class="cls-10" x1="186.84" y1="1702.22" x2="186.84" y2="1702.22"/><line class="cls-10" x1="186.84" y1="1702.06" x2="186.84" y2="1701.81"/><line class="cls-10" x1="186.84" y1="1701.64" x2="186.84" y2="1701.64"/><line class="cls-10" x1="186.84" y1="1701.48" x2="186.84" y2="1701.23"/><line class="cls-10" x1="186.84" y1="1701.06" x2="186.84" y2="1701.06"/><line class="cls-10" x1="186.84" y1="1700.98" x2="186.84" y2="1700.65"/><line class="cls-10" x1="186.84" y1="1700.57" x2="186.84" y2="1700.48"/><line class="cls-10" x1="186.84" y1="1700.4" x2="186.84" y2="1700.07"/><line class="cls-10" x1="186.84" y1="1699.99" x2="186.84" y2="1699.99"/><line class="cls-10" x1="186.84" y1="1699.82" x2="186.84" y2="1699.57"/><line class="cls-10" x1="186.84" y1="1699.41" x2="186.84" y2="1699.41"/><line class="cls-10" x1="186.84" y1="1699.24" x2="186.84" y2="1698.99"/><line class="cls-10" x1="186.84" y1="1698.83" x2="186.84" y2="1698.83"/><line class="cls-10" x1="186.84" y1="1698.66" x2="186.84" y2="1698.41"/><line class="cls-10" x1="186.84" y1="1698.25" x2="186.84" y2="1698.25"/><line class="cls-10" x1="186.84" y1="1698.16" x2="186.84" y2="1697.83"/><line class="cls-10" x1="186.84" y1="1697.75" x2="186.84" y2="1697.75"/><line class="cls-10" x1="186.84" y1="1697.58" x2="186.84" y2="1697.34"/><line class="cls-10" x1="186.84" y1="1697.17" x2="186.84" y2="1697.17"/><line class="cls-10" x1="186.84" y1="1697" x2="186.84" y2="1696.76"/><line class="cls-10" x1="186.84" y1="1696.59" x2="186.84" y2="1696.59"/><line class="cls-10" x1="186.84" y1="1696.42" x2="186.84" y2="1696.18"/><line class="cls-10" x1="186.84" y1="1696.01" x2="186.84" y2="1696.01"/><line class="cls-10" x1="186.84" y1="1695.93" x2="186.84" y2="1695.6"/><line class="cls-10" x1="186.84" y1="1695.51" x2="186.84" y2="1695.51"/><line class="cls-10" x1="186.84" y1="1695.35" x2="186.84" y2="1695.1"/><line class="cls-10" x1="186.84" y1="1694.93" x2="186.84" y2="1694.93"/><line class="cls-10" x1="186.84" y1="1694.77" x2="186.84" y2="1694.52"/><line class="cls-10" x1="186.84" y1="1694.35" x2="186.84" y2="1694.35"/><line class="cls-10" x1="186.84" y1="1694.19" x2="186.84" y2="1693.94"/><line class="cls-10" x1="186.84" y1="1693.77" x2="186.84" y2="1693.77"/><line class="cls-10" x1="186.84" y1="1693.69" x2="186.84" y2="1693.36"/><line class="cls-10" x1="186.84" y1="1693.28" x2="186.84" y2="1693.28"/><line class="cls-10" x1="186.84" y1="1693.11" x2="186.84" y2="1692.86"/><line class="cls-10" x1="186.84" y1="1692.7" x2="186.84" y2="1692.7"/><line class="cls-10" x1="186.84" y1="1692.53" x2="186.84" y2="1692.28"/><line class="cls-10" x1="186.84" y1="1692.12" x2="186.84" y2="1692.12"/><line class="cls-10" x1="186.84" y1="1691.95" x2="186.84" y2="1691.7"/><line class="cls-10" x1="186.84" y1="1691.54" x2="186.84" y2="1691.54"/><line class="cls-10" x1="186.84" y1="1691.45" x2="186.84" y2="1691.12"/><line class="cls-10" x1="186.84" y1="1691.04" x2="186.84" y2="1691.04"/><line class="cls-10" x1="186.84" y1="1690.87" x2="186.84" y2="1690.62"/><line class="cls-10" x1="186.84" y1="1690.46" x2="186.84" y2="1690.46"/><line class="cls-10" x1="186.84" y1="1690.29" x2="186.84" y2="1690.04"/><line class="cls-10" x1="186.84" y1="1689.88" x2="186.84" y2="1689.88"/><line class="cls-10" x1="186.84" y1="1689.71" x2="186.84" y2="1689.46"/><line class="cls-10" x1="186.84" y1="1689.3" x2="186.84" y2="1689.3"/><line class="cls-10" x1="186.84" y1="1689.22" x2="186.84" y2="1688.88"/><line class="cls-10" x1="186.84" y1="1688.8" x2="186.84" y2="1688.8"/><line class="cls-10" x1="186.84" y1="1688.64" x2="186.84" y2="1688.39"/><line class="cls-10" x1="186.84" y1="1688.22" x2="186.84" y2="1688.22"/><line class="cls-10" x1="186.84" y1="1688.06" x2="186.84" y2="1687.81"/><line class="cls-10" x1="186.84" y1="1687.64" x2="186.84" y2="1687.64"/><line class="cls-10" x1="186.84" y1="1687.48" x2="186.84" y2="1687.23"/><line class="cls-10" x1="186.84" y1="1687.06" x2="186.84" y2="1687.06"/><line class="cls-10" x1="186.84" y1="1686.98" x2="186.84" y2="1686.65"/><line class="cls-10" x1="186.84" y1="1686.56" x2="186.84" y2="1686.56"/><line class="cls-10" x1="186.84" y1="1686.4" x2="186.84" y2="1686.15"/><line class="cls-10" x1="186.84" y1="1685.98" x2="186.84" y2="1685.98"/><line class="cls-10" x1="186.84" y1="1685.82" x2="186.84" y2="1685.57"/><line class="cls-10" x1="186.84" y1="1685.4" x2="186.84" y2="1685.4"/><line class="cls-10" x1="186.84" y1="1685.24" x2="186.84" y2="1684.99"/><line class="cls-10" x1="186.84" y1="1684.82" x2="186.84" y2="1684.82"/><line class="cls-10" x1="186.84" y1="1684.74" x2="186.84" y2="1684.41"/><line class="cls-10" x1="186.84" y1="1684.33" x2="186.84" y2="1684.24"/><line class="cls-10" x1="186.84" y1="1684.16" x2="186.84" y2="1683.83"/><line class="cls-10" x1="186.84" y1="1683.75" x2="186.84" y2="1683.75"/><line class="cls-10" x1="186.84" y1="1683.58" x2="186.84" y2="1683.33"/><line class="cls-10" x1="186.84" y1="1683.17" x2="186.84" y2="1683.17"/><line class="cls-10" x1="186.84" y1="1683" x2="186.84" y2="1682.75"/><line class="cls-10" x1="186.84" y1="1682.59" x2="186.84" y2="1682.59"/><line class="cls-10" x1="186.84" y1="1682.5" x2="186.84" y2="1682.17"/><line class="cls-10" x1="186.84" y1="1682.09" x2="186.84" y2="1682.01"/><line class="cls-10" x1="186.84" y1="1681.92" x2="186.84" y2="1681.59"/><line class="cls-10" x1="186.84" y1="1681.51" x2="186.84" y2="1681.51"/><line class="cls-10" x1="186.84" y1="1681.34" x2="186.84" y2="1681.1"/><line class="cls-10" x1="186.84" y1="1680.93" x2="186.84" y2="1680.93"/><line class="cls-10" x1="186.84" y1="1680.76" x2="186.84" y2="1680.52"/><line class="cls-10" x1="186.84" y1="1680.35" x2="186.84" y2="1680.35"/><line class="cls-10" x1="186.84" y1="1680.27" x2="186.84" y2="1679.94"/><line class="cls-10" x1="186.84" y1="1679.85" x2="186.84" y2="1679.77"/><line class="cls-10" x1="186.84" y1="1679.69" x2="186.84" y2="1679.36"/><line class="cls-10" x1="186.84" y1="1679.27" x2="186.84" y2="1679.27"/><line class="cls-10" x1="186.84" y1="1679.11" x2="186.84" y2="1678.86"/><line class="cls-10" x1="186.84" y1="1678.69" x2="186.84" y2="1678.69"/><line class="cls-10" x1="186.84" y1="1678.53" x2="186.84" y2="1678.28"/><line class="cls-10" x1="186.84" y1="1678.11" x2="186.84" y2="1678.11"/><line class="cls-10" x1="186.84" y1="1678.03" x2="186.84" y2="1677.7"/><line class="cls-10" x1="186.84" y1="1677.62" x2="186.84" y2="1677.53"/><line class="cls-10" x1="186.84" y1="1677.45" x2="186.84" y2="1677.12"/><line class="cls-10" x1="186.84" y1="1677.04" x2="186.84" y2="1677.04"/><line class="cls-10" x1="186.84" y1="1676.87" x2="186.84" y2="1676.62"/><line class="cls-10" x1="186.84" y1="1676.46" x2="186.84" y2="1676.46"/><line class="cls-10" x1="186.84" y1="1676.29" x2="186.84" y2="1676.04"/><line class="cls-10" x1="186.84" y1="1675.88" x2="186.84" y2="1675.88"/><line class="cls-10" x1="186.84" y1="1675.71" x2="186.84" y2="1675.46"/><line class="cls-10" x1="186.84" y1="1675.3" x2="186.84" y2="1675.3"/><line class="cls-10" x1="186.84" y1="1675.21" x2="186.84" y2="1674.88"/><line class="cls-10" x1="186.84" y1="1674.8" x2="186.84" y2="1674.8"/><line class="cls-10" x1="186.84" y1="1674.63" x2="186.84" y2="1674.38"/><line class="cls-10" x1="186.84" y1="1674.22" x2="186.84" y2="1674.22"/><line class="cls-10" x1="186.84" y1="1674.05" x2="186.84" y2="1673.8"/><line class="cls-10" x1="186.84" y1="1673.64" x2="186.84" y2="1673.64"/><line class="cls-10" x1="186.84" y1="1673.47" x2="186.84" y2="1673.23"/><line class="cls-10" x1="186.84" y1="1673.06" x2="186.84" y2="1673.06"/><line class="cls-10" x1="186.84" y1="1672.98" x2="186.84" y2="1672.64"/><line class="cls-10" x1="186.84" y1="1672.56" x2="186.84" y2="1672.56"/><line class="cls-10" x1="186.84" y1="1672.4" x2="186.84" y2="1672.15"/><line class="cls-10" x1="186.84" y1="1671.98" x2="186.84" y2="1671.98"/><line class="cls-10" x1="186.84" y1="1671.82" x2="186.84" y2="1671.57"/><line class="cls-10" x1="186.84" y1="1671.4" x2="186.84" y2="1671.4"/><line class="cls-10" x1="186.84" y1="1671.24" x2="186.84" y2="1670.99"/><line class="cls-10" x1="186.84" y1="1670.82" x2="186.84" y2="1670.82"/><line class="cls-10" x1="186.84" y1="1670.74" x2="186.84" y2="1670.41"/><line class="cls-10" x1="186.84" y1="1670.32" x2="186.84" y2="1670.32"/><line class="cls-10" x1="186.84" y1="1670.16" x2="186.84" y2="1669.91"/><line class="cls-10" x1="186.84" y1="1669.75" x2="186.84" y2="1669.75"/><line class="cls-10" x1="186.84" y1="1669.58" x2="186.84" y2="1669.33"/><line class="cls-10" x1="186.84" y1="1669.16" x2="186.84" y2="1669.16"/><line class="cls-10" x1="186.84" y1="1669" x2="186.84" y2="1668.75"/><line class="cls-10" x1="186.84" y1="1668.59" x2="186.84" y2="1668.59"/><line class="cls-10" x1="186.84" y1="1668.5" x2="186.84" y2="1668.17"/><line class="cls-10" x1="186.84" y1="1668.09" x2="186.84" y2="1668.09"/><line class="cls-10" x1="186.84" y1="1667.92" x2="186.84" y2="1667.67"/><line class="cls-10" x1="186.84" y1="1667.51" x2="186.84" y2="1667.51"/><line class="cls-10" x1="186.84" y1="1667.34" x2="186.84" y2="1667.09"/><line class="cls-10" x1="186.84" y1="1666.93" x2="186.84" y2="1666.93"/><line class="cls-10" x1="186.84" y1="1666.76" x2="186.84" y2="1666.51"/><line class="cls-10" x1="186.84" y1="1666.35" x2="186.84" y2="1666.35"/><line class="cls-10" x1="186.84" y1="1666.27" x2="186.84" y2="1665.93"/><line class="cls-10" x1="186.84" y1="1665.85" x2="186.84" y2="1665.85"/><line class="cls-10" x1="186.84" y1="1665.68" x2="186.84" y2="1665.44"/><line class="cls-10" x1="186.84" y1="1665.27" x2="186.84" y2="1665.27"/><line class="cls-10" x1="186.84" y1="1665.11" x2="186.84" y2="1664.86"/><line class="cls-10" x1="186.84" y1="1664.69" x2="186.84" y2="1664.69"/><line class="cls-10" x1="186.84" y1="1664.53" x2="186.84" y2="1664.28"/><line class="cls-10" x1="186.84" y1="1664.11" x2="186.84" y2="1664.11"/><line class="cls-10" x1="186.84" y1="1664.03" x2="186.84" y2="1663.7"/><line class="cls-10" x1="186.84" y1="1663.61" x2="186.84" y2="1663.61"/><line class="cls-10" x1="186.84" y1="1663.45" x2="186.84" y2="1663.2"/><line class="cls-10" x1="186.84" y1="1663.03" x2="186.84" y2="1663.03"/><line class="cls-10" x1="186.84" y1="1662.87" x2="186.84" y2="1662.62"/><line class="cls-10" x1="186.84" y1="1662.45" x2="186.84" y2="1662.45"/><line class="cls-10" x1="186.84" y1="1662.29" x2="186.84" y2="1662.04"/><line class="cls-10" x1="186.84" y1="1661.87" x2="186.84" y2="1661.87"/><line class="cls-10" x1="186.84" y1="1661.79" x2="186.84" y2="1661.46"/><line class="cls-10" x1="186.84" y1="1661.38" x2="186.84" y2="1661.29"/><line class="cls-10" x1="186.84" y1="1661.21" x2="186.84" y2="1660.88"/><line class="cls-10" x1="186.84" y1="1660.8" x2="186.84" y2="1660.8"/><line class="cls-10" x1="186.84" y1="1660.63" x2="186.84" y2="1660.38"/><line class="cls-10" x1="186.84" y1="1660.22" x2="186.84" y2="1660.22"/><line class="cls-10" x1="186.84" y1="1660.05" x2="186.84" y2="1659.8"/><line class="cls-10" x1="186.84" y1="1659.64" x2="186.84" y2="1659.64"/><line class="cls-10" x1="186.84" y1="1659.55" x2="186.84" y2="1659.22"/><line class="cls-10" x1="186.84" y1="1659.14" x2="186.84" y2="1659.06"/><line class="cls-10" x1="186.84" y1="1658.97" x2="186.84" y2="1658.64"/><line class="cls-10" x1="186.84" y1="1658.56" x2="186.84" y2="1658.56"/><line class="cls-10" x1="186.84" y1="1658.39" x2="186.84" y2="1658.15"/><line class="cls-10" x1="186.84" y1="1657.98" x2="186.84" y2="1657.98"/><line class="cls-10" x1="186.84" y1="1657.81" x2="186.84" y2="1657.57"/><line class="cls-10" x1="186.84" y1="1657.4" x2="186.84" y2="1657.4"/><line class="cls-10" x1="186.84" y1="1657.32" x2="186.84" y2="1656.99"/><line class="cls-10" x1="186.84" y1="1656.9" x2="186.84" y2="1656.82"/><line class="cls-10" x1="186.84" y1="1656.74" x2="186.84" y2="1656.41"/><line class="cls-10" x1="186.84" y1="1656.32" x2="186.84" y2="1656.32"/><line class="cls-10" x1="186.84" y1="1656.16" x2="186.84" y2="1655.91"/><line class="cls-10" x1="186.84" y1="1655.74" x2="186.84" y2="1655.74"/><line class="cls-10" x1="186.84" y1="1655.58" x2="186.84" y2="1655.33"/><line class="cls-10" x1="186.84" y1="1655.16" x2="186.84" y2="1655.16"/><line class="cls-10" x1="186.84" y1="1655.08" x2="186.84" y2="1654.75"/><line class="cls-10" x1="186.84" y1="1654.67" x2="186.84" y2="1654.58"/><line class="cls-10" x1="186.84" y1="1654.5" x2="186.84" y2="1654.17"/><line class="cls-10" x1="186.84" y1="1654.09" x2="186.84" y2="1654.09"/><line class="cls-10" x1="186.84" y1="1653.92" x2="186.84" y2="1653.67"/><line class="cls-10" x1="186.84" y1="1653.51" x2="186.84" y2="1653.51"/><line class="cls-10" x1="186.84" y1="1653.34" x2="186.84" y2="1653.09"/><line class="cls-10" x1="186.84" y1="1652.93" x2="186.84" y2="1652.93"/><line class="cls-10" x1="186.84" y1="1652.76" x2="186.84" y2="1652.51"/><line class="cls-10" x1="186.84" y1="1652.35" x2="186.84" y2="1652.35"/><line class="cls-10" x1="186.84" y1="1652.26" x2="186.84" y2="1651.93"/><line class="cls-10" x1="186.84" y1="1651.85" x2="186.84" y2="1651.85"/><line class="cls-10" x1="186.84" y1="1651.68" x2="186.84" y2="1651.43"/><line class="cls-10" x1="186.84" y1="1651.27" x2="186.84" y2="1651.27"/><line class="cls-10" x1="186.84" y1="1651.1" x2="186.84" y2="1650.85"/><line class="cls-10" x1="186.84" y1="1650.69" x2="186.84" y2="1650.69"/><line class="cls-10" x1="186.84" y1="1650.52" x2="186.84" y2="1650.27"/><line class="cls-10" x1="186.84" y1="1650.11" x2="186.84" y2="1650.11"/><line class="cls-10" x1="186.84" y1="1650.03" x2="186.84" y2="1649.69"/><line class="cls-10" x1="186.84" y1="1649.61" x2="186.84" y2="1649.61"/><line class="cls-10" x1="186.84" y1="1649.45" x2="186.84" y2="1649.2"/><line class="cls-10" x1="186.84" y1="1649.03" x2="186.84" y2="1649.03"/><line class="cls-10" x1="186.84" y1="1648.87" x2="186.84" y2="1648.62"/><line class="cls-10" x1="186.84" y1="1648.45" x2="186.84" y2="1648.45"/><line class="cls-10" x1="186.84" y1="1648.29" x2="186.84" y2="1648.04"/><line class="cls-10" x1="186.84" y1="1647.87" x2="186.84" y2="1647.87"/><line class="cls-10" x1="186.84" y1="1647.79" x2="186.84" y2="1647.46"/><line class="cls-10" x1="186.84" y1="1647.37" x2="186.84" y2="1647.37"/><line class="cls-10" x1="186.84" y1="1647.21" x2="186.84" y2="1646.96"/><line class="cls-10" x1="186.84" y1="1646.79" x2="186.84" y2="1646.79"/><line class="cls-10" x1="186.84" y1="1646.63" x2="186.84" y2="1646.38"/><line class="cls-10" x1="186.84" y1="1646.21" x2="186.84" y2="1646.21"/><line class="cls-10" x1="186.84" y1="1646.05" x2="186.84" y2="1645.8"/><line class="cls-10" x1="186.84" y1="1645.63" x2="186.84" y2="1645.63"/><line class="cls-10" x1="186.84" y1="1645.55" x2="186.84" y2="1645.22"/><line class="cls-10" x1="186.84" y1="1645.14" x2="186.84" y2="1645.14"/><line class="cls-10" x1="186.84" y1="1644.97" x2="186.84" y2="1644.72"/><line class="cls-10" x1="186.84" y1="1644.56" x2="186.84" y2="1644.56"/><line class="cls-10" x1="186.84" y1="1644.39" x2="186.84" y2="1644.14"/><line class="cls-10" x1="186.84" y1="1643.98" x2="186.84" y2="1643.98"/><line class="cls-10" x1="186.84" y1="1643.81" x2="186.84" y2="1643.56"/><line class="cls-10" x1="186.84" y1="1643.4" x2="186.84" y2="1643.4"/><line class="cls-10" x1="186.84" y1="1643.31" x2="186.84" y2="1642.98"/><line class="cls-10" x1="186.84" y1="1642.9" x2="186.84" y2="1642.9"/><line class="cls-10" x1="186.84" y1="1642.73" x2="186.84" y2="1642.49"/><line class="cls-10" x1="186.84" y1="1642.32" x2="186.84" y2="1642.32"/><line class="cls-10" x1="186.84" y1="1642.15" x2="186.84" y2="1641.91"/><line class="cls-10" x1="186.84" y1="1641.74" x2="186.84" y2="1641.74"/><line class="cls-10" x1="186.84" y1="1641.57" x2="186.84" y2="1641.33"/><line class="cls-10" x1="186.84" y1="1641.16" x2="186.84" y2="1641.16"/><line class="cls-10" x1="186.84" y1="1641.08" x2="186.84" y2="1640.75"/><line class="cls-10" x1="186.84" y1="1640.66" x2="186.84" y2="1640.66"/><line class="cls-10" x1="186.84" y1="1640.5" x2="186.84" y2="1640.25"/><line class="cls-10" x1="186.84" y1="1640.08" x2="186.84" y2="1640.08"/><line class="cls-10" x1="186.84" y1="1639.92" x2="186.84" y2="1639.67"/><line class="cls-10" x1="186.84" y1="1639.5" x2="186.84" y2="1639.5"/><line class="cls-10" x1="186.84" y1="1639.34" x2="186.84" y2="1639.09"/><line class="cls-10" x1="186.84" y1="1638.92" x2="186.84" y2="1638.92"/><line class="cls-10" x1="186.84" y1="1638.84" x2="186.84" y2="1638.51"/><line class="cls-10" x1="186.84" y1="1638.43" x2="186.84" y2="1638.34"/><line class="cls-10" x1="186.84" y1="1638.26" x2="186.84" y2="1637.93"/><line class="cls-10" x1="186.84" y1="1637.85" x2="186.84" y2="1637.85"/><line class="cls-10" x1="186.84" y1="1637.68" x2="186.84" y2="1637.43"/><line class="cls-10" x1="186.84" y1="1637.27" x2="186.84" y2="1637.27"/><line class="cls-10" x1="186.84" y1="1637.1" x2="186.84" y2="1636.85"/><line class="cls-10" x1="186.84" y1="1636.69" x2="186.84" y2="1636.69"/><line class="cls-10" x1="186.84" y1="1636.6" x2="186.84" y2="1636.27"/><line class="cls-10" x1="186.84" y1="1636.19" x2="186.84" y2="1636.11"/><line class="cls-10" x1="186.84" y1="1636.02" x2="186.84" y2="1635.69"/><line class="cls-10" x1="186.84" y1="1635.61" x2="186.84" y2="1635.61"/><line class="cls-10" x1="186.84" y1="1635.44" x2="186.84" y2="1635.19"/><line class="cls-10" x1="186.84" y1="1635.03" x2="186.84" y2="1635.03"/><line class="cls-10" x1="186.84" y1="1634.86" x2="186.84" y2="1634.61"/><line class="cls-10" x1="186.84" y1="1634.45" x2="186.84" y2="1634.45"/><line class="cls-10" x1="186.84" y1="1634.37" x2="186.84" y2="1634.03"/><line class="cls-10" x1="186.84" y1="1633.95" x2="186.84" y2="1633.87"/><line class="cls-10" x1="186.84" y1="1633.79" x2="186.84" y2="1633.45"/><line class="cls-10" x1="186.84" y1="1633.37" x2="186.84" y2="1633.37"/><line class="cls-10" x1="186.84" y1="1633.21" x2="186.84" y2="1632.96"/><line class="cls-10" x1="186.84" y1="1632.79" x2="186.84" y2="1632.79"/><line class="cls-10" x1="186.84" y1="1632.63" x2="186.84" y2="1632.38"/><line class="cls-10" x1="186.84" y1="1632.21" x2="186.84" y2="1632.21"/><line class="cls-10" x1="186.84" y1="1632.13" x2="186.84" y2="1631.8"/><line class="cls-10" x1="186.84" y1="1631.71" x2="186.84" y2="1631.63"/><line class="cls-10" x1="186.84" y1="1631.55" x2="186.84" y2="1631.22"/><line class="cls-10" x1="186.84" y1="1631.13" x2="186.84" y2="1631.13"/><line class="cls-10" x1="186.84" y1="1630.97" x2="186.84" y2="1630.72"/><line class="cls-10" x1="186.84" y1="1630.55" x2="186.84" y2="1630.55"/><line class="cls-10" x1="186.84" y1="1630.39" x2="186.84" y2="1630.14"/><line class="cls-10" x1="186.84" y1="1629.97" x2="186.84" y2="1629.97"/><line class="cls-10" x1="186.84" y1="1629.81" x2="186.84" y2="1629.56"/><line class="cls-10" x1="186.84" y1="1629.39" x2="186.84" y2="1629.39"/><line class="cls-10" x1="186.84" y1="1629.31" x2="186.84" y2="1628.98"/><line class="cls-10" x1="186.84" y1="1628.9" x2="186.84" y2="1628.9"/><line class="cls-10" x1="186.84" y1="1628.73" x2="186.84" y2="1628.48"/><line class="cls-10" x1="186.84" y1="1628.32" x2="186.84" y2="1628.32"/><line class="cls-10" x1="186.84" y1="1628.15" x2="186.84" y2="1627.9"/><line class="cls-10" x1="186.84" y1="1627.74" x2="186.84" y2="1627.74"/><line class="cls-10" x1="186.84" y1="1627.57" x2="186.84" y2="1627.32"/><line class="cls-10" x1="186.84" y1="1627.16" x2="186.84" y2="1627.16"/><line class="cls-10" x1="186.84" y1="1627.07" x2="186.84" y2="1626.74"/><line class="cls-10" x1="186.84" y1="1626.66" x2="186.84" y2="1626.66"/><line class="cls-10" x1="186.84" y1="1626.49" x2="186.84" y2="1626.25"/><line class="cls-10" x1="186.84" y1="1626.08" x2="186.84" y2="1626.08"/><line class="cls-10" x1="186.84" y1="1625.91" x2="186.84" y2="1625.67"/><line class="cls-10" x1="186.84" y1="1625.5" x2="186.84" y2="1625.5"/><line class="cls-10" x1="186.84" y1="1625.33" x2="186.84" y2="1625.09"/><line class="cls-10" x1="186.84" y1="1624.92" x2="186.84" y2="1624.92"/><line class="cls-10" x1="186.84" y1="1624.84" x2="186.84" y2="1624.51"/><line class="cls-10" x1="186.84" y1="1624.42" x2="186.84" y2="1624.42"/><line class="cls-10" x1="186.84" y1="1624.26" x2="186.84" y2="1624.01"/><line class="cls-10" x1="186.84" y1="1623.84" x2="186.84" y2="1623.84"/><line class="cls-10" x1="186.84" y1="1623.68" x2="186.84" y2="1623.43"/><line class="cls-10" x1="186.84" y1="1623.26" x2="186.84" y2="1623.26"/><line class="cls-10" x1="186.84" y1="1623.1" x2="186.84" y2="1622.85"/><line class="cls-10" x1="186.84" y1="1622.68" x2="186.84" y2="1622.68"/><line class="cls-10" x1="186.84" y1="1622.6" x2="186.84" y2="1622.27"/><line class="cls-10" x1="186.84" y1="1622.19" x2="186.84" y2="1622.19"/><line class="cls-10" x1="186.84" y1="1622.02" x2="186.84" y2="1621.77"/><line class="cls-10" x1="186.84" y1="1621.61" x2="186.84" y2="1621.61"/><line class="cls-10" x1="186.84" y1="1621.44" x2="186.84" y2="1621.19"/><line class="cls-10" x1="186.84" y1="1621.03" x2="186.84" y2="1621.03"/><line class="cls-10" x1="186.84" y1="1620.86" x2="186.84" y2="1620.61"/><line class="cls-10" x1="186.84" y1="1620.45" x2="186.84" y2="1620.45"/><line class="cls-10" x1="186.84" y1="1620.36" x2="186.84" y2="1620.03"/><line class="cls-10" x1="186.84" y1="1619.95" x2="186.84" y2="1619.95"/><line class="cls-10" x1="186.84" y1="1619.78" x2="186.84" y2="1619.53"/><line class="cls-10" x1="186.84" y1="1619.37" x2="186.84" y2="1619.37"/><line class="cls-10" x1="186.84" y1="1619.2" x2="186.84" y2="1618.95"/><line class="cls-10" x1="186.84" y1="1618.79" x2="186.84" y2="1618.79"/><line class="cls-10" x1="186.84" y1="1618.62" x2="186.84" y2="1618.37"/><line class="cls-10" x1="186.84" y1="1618.21" x2="186.84" y2="1618.21"/><line class="cls-10" x1="186.84" y1="1618.13" x2="186.84" y2="1617.79"/><line class="cls-10" x1="186.84" y1="1617.71" x2="186.84" y2="1617.71"/><line class="cls-10" x1="186.84" y1="1617.55" x2="186.84" y2="1617.3"/><line class="cls-10" x1="186.84" y1="1617.13" x2="186.84" y2="1617.13"/><line class="cls-10" x1="186.84" y1="1616.97" x2="186.84" y2="1616.72"/><line class="cls-10" x1="186.84" y1="1616.55" x2="186.84" y2="1616.55"/><line class="cls-10" x1="186.84" y1="1616.39" x2="186.84" y2="1616.14"/><line class="cls-10" x1="186.84" y1="1615.97" x2="186.84" y2="1615.97"/><line class="cls-10" x1="186.84" y1="1615.89" x2="186.84" y2="1615.56"/><line class="cls-10" x1="186.84" y1="1615.47" x2="186.84" y2="1615.39"/><line class="cls-10" x1="186.84" y1="1615.31" x2="186.84" y2="1614.98"/><line class="cls-10" x1="186.84" y1="1614.89" x2="186.84" y2="1614.89"/><line class="cls-10" x1="186.84" y1="1614.73" x2="186.84" y2="1614.48"/><line class="cls-10" x1="186.84" y1="1614.31" x2="186.84" y2="1614.31"/><line class="cls-10" x1="186.84" y1="1614.15" x2="186.84" y2="1613.9"/><line class="cls-10" x1="186.84" y1="1613.73" x2="186.84" y2="1613.73"/><line class="cls-10" x1="186.84" y1="1613.65" x2="186.84" y2="1613.32"/><line class="cls-10" x1="186.84" y1="1613.24" x2="186.84" y2="1613.15"/><line class="cls-10" x1="186.84" y1="1613.07" x2="186.84" y2="1612.74"/><line class="cls-10" x1="186.84" y1="1612.66" x2="186.84" y2="1612.66"/><line class="cls-10" x1="186.84" y1="1612.49" x2="186.84" y2="1612.24"/><line class="cls-10" x1="186.84" y1="1612.08" x2="186.84" y2="1612.08"/><line class="cls-10" x1="186.84" y1="1611.91" x2="186.84" y2="1611.66"/><line class="cls-10" x1="186.84" y1="1611.5" x2="186.84" y2="1611.5"/><line class="cls-10" x1="186.84" y1="1611.41" x2="186.84" y2="1611.08"/><line class="cls-10" x1="186.84" y1="1611" x2="186.84" y2="1610.92"/><line class="cls-10" x1="186.84" y1="1610.83" x2="186.84" y2="1610.5"/><line class="cls-10" x1="186.84" y1="1610.42" x2="186.84" y2="1610.42"/><line class="cls-10" x1="186.84" y1="1610.25" x2="186.84" y2="1610.01"/><line class="cls-10" x1="186.84" y1="1609.84" x2="186.84" y2="1609.84"/><line class="cls-10" x1="186.84" y1="1609.67" x2="186.84" y2="1609.43"/><line class="cls-10" x1="186.84" y1="1609.26" x2="186.84" y2="1609.26"/><line class="cls-10" x1="186.84" y1="1609.18" x2="186.84" y2="1608.85"/><line class="cls-10" x1="186.84" y1="1608.76" x2="186.84" y2="1608.68"/><line class="cls-10" x1="186.84" y1="1608.6" x2="186.84" y2="1608.27"/><line class="cls-10" x1="186.84" y1="1608.18" x2="186.84" y2="1608.18"/><line class="cls-10" x1="186.84" y1="1608.02" x2="186.84" y2="1607.77"/><line class="cls-10" x1="186.84" y1="1607.6" x2="186.84" y2="1607.6"/><line class="cls-10" x1="186.84" y1="1607.44" x2="186.84" y2="1607.19"/><line class="cls-10" x1="186.84" y1="1607.02" x2="186.84" y2="1607.02"/><line class="cls-10" x1="186.84" y1="1606.86" x2="186.84" y2="1606.61"/><line class="cls-10" x1="186.84" y1="1606.44" x2="186.84" y2="1606.44"/><line class="cls-10" x1="186.84" y1="1606.36" x2="186.84" y2="1606.03"/><line class="cls-10" x1="186.84" y1="1605.95" x2="186.84" y2="1605.95"/><line class="cls-10" x1="186.84" y1="1605.78" x2="186.84" y2="1605.53"/><line class="cls-10" x1="186.84" y1="1605.37" x2="186.84" y2="1605.37"/><line class="cls-10" x1="186.84" y1="1605.2" x2="186.84" y2="1604.95"/><line class="cls-10" x1="186.84" y1="1604.79" x2="186.84" y2="1604.79"/><line class="cls-10" x1="186.84" y1="1604.62" x2="186.84" y2="1604.37"/><line class="cls-10" x1="186.84" y1="1604.21" x2="186.84" y2="1604.21"/><line class="cls-10" x1="186.84" y1="1604.12" x2="186.84" y2="1603.79"/><line class="cls-10" x1="186.84" y1="1603.71" x2="186.84" y2="1603.71"/><line class="cls-10" x1="186.84" y1="1603.54" x2="186.84" y2="1603.29"/><line class="cls-10" x1="186.84" y1="1603.13" x2="186.84" y2="1603.13"/><line class="cls-10" x1="186.84" y1="1602.96" x2="186.84" y2="1602.71"/><line class="cls-10" x1="186.84" y1="1602.55" x2="186.84" y2="1602.55"/><line class="cls-10" x1="186.84" y1="1602.38" x2="186.84" y2="1602.13"/><line class="cls-10" x1="186.84" y1="1601.97" x2="186.84" y2="1601.97"/><line class="cls-10" x1="186.84" y1="1601.89" x2="186.84" y2="1601.55"/><line class="cls-10" x1="186.84" y1="1601.47" x2="186.84" y2="1601.47"/><line class="cls-10" x1="186.84" y1="1601.31" x2="186.84" y2="1601.06"/><line class="cls-10" x1="186.84" y1="1600.89" x2="186.84" y2="1600.89"/><line class="cls-10" x1="186.84" y1="1600.73" x2="186.84" y2="1600.48"/><line class="cls-10" x1="186.84" y1="1600.31" x2="186.84" y2="1600.31"/><line class="cls-10" x1="186.84" y1="1600.15" x2="186.84" y2="1599.9"/><line class="cls-10" x1="186.84" y1="1599.73" x2="186.84" y2="1599.73"/><line class="cls-10" x1="186.84" y1="1599.65" x2="186.84" y2="1599.32"/><line class="cls-10" x1="186.84" y1="1599.23" x2="186.84" y2="1599.23"/><line class="cls-10" x1="186.84" y1="1599.07" x2="186.84" y2="1598.82"/><line class="cls-10" x1="186.84" y1="1598.65" x2="186.84" y2="1598.65"/><line class="cls-10" x1="186.84" y1="1598.49" x2="186.84" y2="1598.24"/><line class="cls-10" x1="186.84" y1="1598.07" x2="186.84" y2="1598.07"/><line class="cls-10" x1="186.84" y1="1597.91" x2="186.84" y2="1597.66"/><line class="cls-10" x1="186.84" y1="1597.49" x2="186.84" y2="1597.49"/><line class="cls-10" x1="186.84" y1="1597.41" x2="186.84" y2="1597.08"/><line class="cls-10" x1="186.84" y1="1597" x2="186.84" y2="1597"/><line class="cls-10" x1="186.84" y1="1596.83" x2="186.84" y2="1596.58"/><line class="cls-10" x1="186.84" y1="1596.42" x2="186.84" y2="1596.42"/><line class="cls-10" x1="186.84" y1="1596.25" x2="186.84" y2="1596"/><line class="cls-10" x1="186.84" y1="1595.84" x2="186.84" y2="1595.84"/><line class="cls-10" x1="186.84" y1="1595.67" x2="186.84" y2="1595.42"/><line class="cls-10" x1="186.84" y1="1595.26" x2="186.84" y2="1595.26"/><line class="cls-10" x1="186.84" y1="1595.17" x2="186.84" y2="1594.84"/><line class="cls-10" x1="186.84" y1="1594.76" x2="186.84" y2="1594.76"/><line class="cls-10" x1="186.84" y1="1594.59" x2="186.84" y2="1594.35"/><line class="cls-10" x1="186.84" y1="1594.18" x2="186.84" y2="1594.18"/><line class="cls-10" x1="186.84" y1="1594.01" x2="186.84" y2="1593.77"/><line class="cls-10" x1="186.84" y1="1593.6" x2="186.84" y2="1593.6"/><line class="cls-10" x1="186.84" y1="1593.43" x2="186.84" y2="1593.19"/><line class="cls-10" x1="186.84" y1="1593.02" x2="186.84" y2="1593.02"/><line class="cls-10" x1="186.84" y1="1592.94" x2="186.84" y2="1592.61"/><line class="cls-10" x1="186.84" y1="1592.52" x2="186.84" y2="1592.44"/><line class="cls-10" x1="186.84" y1="1592.36" x2="186.84" y2="1592.03"/><line class="cls-10" x1="186.84" y1="1591.94" x2="186.84" y2="1591.94"/><line class="cls-10" x1="186.84" y1="1591.78" x2="186.84" y2="1591.53"/><line class="cls-10" x1="186.84" y1="1591.36" x2="186.84" y2="1591.36"/><line class="cls-10" x1="186.84" y1="1591.2" x2="186.84" y2="1590.95"/><line class="cls-10" x1="186.84" y1="1590.78" x2="186.84" y2="1590.78"/><line class="cls-10" x1="186.84" y1="1590.7" x2="186.84" y2="1590.37"/><line class="cls-10" x1="186.84" y1="1590.29" x2="186.84" y2="1590.2"/><line class="cls-10" x1="186.84" y1="1590.12" x2="186.84" y2="1589.79"/><line class="cls-10" x1="186.84" y1="1589.71" x2="186.84" y2="1589.71"/><line class="cls-10" x1="186.84" y1="1589.54" x2="186.84" y2="1589.29"/><line class="cls-10" x1="186.84" y1="1589.13" x2="186.84" y2="1589.13"/><line class="cls-10" x1="186.84" y1="1588.96" x2="186.84" y2="1588.71"/><line class="cls-10" x1="186.84" y1="1588.55" x2="186.84" y2="1588.55"/><line class="cls-10" x1="186.84" y1="1588.46" x2="186.84" y2="1588.13"/><line class="cls-10" x1="186.84" y1="1588.05" x2="186.84" y2="1587.97"/><line class="cls-10" x1="186.84" y1="1587.88" x2="186.84" y2="1587.55"/><line class="cls-10" x1="186.84" y1="1587.47" x2="186.84" y2="1587.47"/><line class="cls-10" x1="186.84" y1="1587.3" x2="186.84" y2="1587.05"/><line class="cls-10" x1="186.84" y1="1586.89" x2="186.84" y2="1586.89"/><line class="cls-10" x1="186.84" y1="1586.72" x2="186.84" y2="1586.47"/><line class="cls-10" x1="186.84" y1="1586.31" x2="186.84" y2="1586.31"/><line class="cls-10" x1="186.84" y1="1586.23" x2="186.84" y2="1585.89"/><line class="cls-10" x1="186.84" y1="1585.81" x2="186.84" y2="1585.73"/><line class="cls-10" x1="186.84" y1="1585.65" x2="186.84" y2="1585.31"/><line class="cls-10" x1="186.84" y1="1585.23" x2="186.84" y2="1585.23"/><line class="cls-10" x1="186.84" y1="1585.07" x2="186.84" y2="1584.82"/><line class="cls-10" x1="186.84" y1="1584.65" x2="186.84" y2="1584.65"/><line class="cls-10" x1="186.84" y1="1584.49" x2="186.84" y2="1584.24"/><line class="cls-10" x1="186.84" y1="1584.07" x2="186.84" y2="1584.07"/><line class="cls-10" x1="186.84" y1="1583.91" x2="186.84" y2="1583.66"/><line class="cls-10" x1="186.84" y1="1583.49" x2="186.84" y2="1583.49"/><line class="cls-10" x1="186.84" y1="1583.41" x2="186.84" y2="1583.08"/><line class="cls-10" x1="186.84" y1="1582.99" x2="186.84" y2="1582.99"/><line class="cls-10" x1="186.84" y1="1582.83" x2="186.84" y2="1582.58"/><line class="cls-10" x1="186.84" y1="1582.41" x2="186.84" y2="1582.41"/><line class="cls-10" x1="186.84" y1="1582.25" x2="186.84" y2="1582"/><line class="cls-10" x1="186.84" y1="1581.83" x2="186.84" y2="1581.83"/><line class="cls-10" x1="186.84" y1="1581.67" x2="186.84" y2="1581.42"/><line class="cls-10" x1="186.84" y1="1581.25" x2="186.84" y2="1581.25"/><line class="cls-10" x1="186.84" y1="1581.17" x2="186.84" y2="1580.84"/><line class="cls-10" x1="186.84" y1="1580.76" x2="186.84" y2="1580.76"/><line class="cls-10" x1="186.84" y1="1580.59" x2="186.84" y2="1580.34"/><line class="cls-10" x1="186.84" y1="1580.18" x2="186.84" y2="1580.18"/><line class="cls-10" x1="186.84" y1="1580.01" x2="186.84" y2="1579.76"/><line class="cls-10" x1="186.84" y1="1579.6" x2="186.84" y2="1579.6"/><line class="cls-10" x1="186.84" y1="1579.43" x2="186.84" y2="1579.18"/><line class="cls-10" x1="186.84" y1="1579.02" x2="186.84" y2="1579.02"/><line class="cls-10" x1="186.84" y1="1578.93" x2="186.84" y2="1578.6"/><line class="cls-10" x1="186.84" y1="1578.52" x2="186.84" y2="1578.52"/><line class="cls-10" x1="186.84" y1="1578.35" x2="186.84" y2="1578.11"/><line class="cls-10" x1="186.84" y1="1577.94" x2="186.84" y2="1577.94"/><line class="cls-10" x1="186.84" y1="1577.77" x2="186.84" y2="1577.53"/><line class="cls-10" x1="186.84" y1="1577.36" x2="186.84" y2="1577.36"/><line class="cls-10" x1="186.84" y1="1577.19" x2="186.84" y2="1576.95"/><line class="cls-10" x1="186.84" y1="1576.78" x2="186.84" y2="1576.78"/><line class="cls-10" x1="186.84" y1="1576.7" x2="186.84" y2="1576.37"/><line class="cls-10" x1="186.84" y1="1576.28" x2="186.84" y2="1576.28"/><line class="cls-10" x1="186.84" y1="1576.12" x2="186.84" y2="1575.87"/><line class="cls-10" x1="186.84" y1="1575.7" x2="186.84" y2="1575.7"/><line class="cls-10" x1="186.84" y1="1575.54" x2="186.84" y2="1575.29"/><line class="cls-10" x1="186.84" y1="1575.12" x2="186.84" y2="1575.12"/><line class="cls-10" x1="186.84" y1="1574.96" x2="186.84" y2="1574.71"/><line class="cls-10" x1="186.84" y1="1574.54" x2="186.84" y2="1574.54"/><line class="cls-10" x1="186.84" y1="1574.46" x2="186.84" y2="1574.13"/><line class="cls-10" x1="186.84" y1="1574.05" x2="186.84" y2="1574.05"/><line class="cls-10" x1="186.84" y1="1573.88" x2="186.84" y2="1573.63"/><line class="cls-10" x1="186.84" y1="1573.47" x2="186.84" y2="1573.47"/><line class="cls-10" x1="186.84" y1="1573.3" x2="186.84" y2="1573.05"/><line class="cls-10" x1="186.84" y1="1572.89" x2="186.84" y2="1572.89"/><line class="cls-10" x1="186.84" y1="1572.72" x2="186.84" y2="1572.47"/><line class="cls-10" x1="186.84" y1="1572.31" x2="186.84" y2="1572.31"/><line class="cls-10" x1="186.84" y1="1572.22" x2="186.84" y2="1571.89"/><line class="cls-10" x1="186.84" y1="1571.81" x2="186.84" y2="1571.81"/><line class="cls-10" x1="186.84" y1="1571.64" x2="186.84" y2="1571.39"/><line class="cls-10" x1="186.84" y1="1571.23" x2="186.84" y2="1571.23"/><line class="cls-10" x1="186.84" y1="1571.06" x2="186.84" y2="1570.81"/><line class="cls-10" x1="186.84" y1="1570.65" x2="186.84" y2="1570.65"/><line class="cls-10" x1="186.84" y1="1570.48" x2="186.84" y2="1570.23"/><line class="cls-10" x1="186.84" y1="1570.07" x2="186.84" y2="1570.07"/><line class="cls-10" x1="186.84" y1="1569.99" x2="186.84" y2="1569.65"/><line class="cls-10" x1="186.84" y1="1569.57" x2="186.84" y2="1569.49"/><line class="cls-10" x1="186.84" y1="1569.41" x2="186.84" y2="1569.16"/><line class="cls-10" x1="186.84" y1="1568.99" x2="186.84" y2="1568.99"/><polyline class="cls-10" points="0.5 180.32 0.5 718.97 13.09 718.97 13.09 180.32 0.5 180.32"/><polyline class="cls-10" points="423.32 180.32 423.32 1714.82 435.83 1714.82 435.83 180.32 423.32 180.32"/><polyline class="cls-10" points="314.44 242.96 315.27 242.96 314.44 242.96"/><line class="cls-10" x1="321.4" y1="242.96" x2="315.27" y2="242.96"/><line class="cls-10" x1="314.44" y1="258.62" x2="314.44" y2="242.96"/><line class="cls-10" x1="326.95" y1="230.44" x2="326.95" y2="164.66"/><polyline class="cls-10" points="435.83 1652.18 423.32 1652.18 423.32 1730.48 435.83 1730.48 435.83 1652.18"/><polyline class="cls-10" points="226.04 430.87 210.38 430.87 210.38 509.09 226.04 509.09 226.04 430.87"/><polyline class="cls-10" points="226.04 164.66 210.38 164.66 210.38 242.96 226.04 242.96 226.04 164.66"/><polyline class="cls-10" points="186.84 1464.26 202.5 1464.26 202.5 1542.56 186.84 1542.56 186.84 1464.26"/><polyline class="cls-10" points="186.84 1127.62 202.5 1127.62 202.5 1205.91 186.84 1205.91 186.84 1127.62"/><polyline class="cls-10" points="186.84 853.61 186.84 837.95 265.14 837.95 265.14 853.61 186.84 853.61"/><polyline class="cls-10" points="13.09 164.66 0.5 164.66 0.5 242.96 13.09 242.96 13.09 164.66"/><polyline class="cls-10" points="435.83 164.66 423.32 164.66 423.32 242.96 435.83 242.96 435.83 164.66"/><polyline class="cls-10" points="202.5 1652.18 186.84 1652.18 186.84 1730.48 202.5 1730.48 202.5 1652.18"/><rect class="cls-8" x="45.91" y="56.88" width="130" height="81.93"/><line class="cls-8" x1="45.91" y1="56.88" x2="175.91" y2="138.8"/><line class="cls-8" x1="175.79" y1="57.9" x2="46.02" y2="138.8"/></svg>