<svg id="_459" data-name="459" xmlns="http://www.w3.org/2000/svg" viewBox="0 0 665.28 773.63"><defs><style>.cls-1{isolation:isolate;font-size:12px;fill:#969696;}.cls-1,.cls-4,.cls-6{font-family:PTSans-Regular, PT Sans;}.cls-2{letter-spacing:-0.01em;}.cls-3,.cls-5,.cls-7,.cls-8{fill:none;stroke-linecap:round;stroke-linejoin:round;}.cls-3{stroke:#969696;stroke-width:0.75px;}.cls-4{font-size:40px;}.cls-5,.cls-7,.cls-8{stroke:#000;}.cls-5{stroke-width:0.5px;}.cls-6{font-size:36px;}.cls-7{stroke-width:0.25px;stroke-dasharray:1 1;}</style></defs><title>15floor_459flat</title><text class="cls-1" transform="translate(324.5 770.44)"><tspan class="cls-2">у</tspan><tspan x="5.42" y="0">лица</tspan></text><line class="cls-3" x1="313.74" y1="773.26" x2="313.74" y2="764.46"/><polyline class="cls-3" points="310.24 769.76 313.74 773.26 317.24 769.76"/><text class="cls-4" transform="translate(147.12 432.85)">CT</text><text class="cls-4" transform="translate(121.76 483.03)">25.77</text><text class="cls-4" transform="translate(116.48 382.95)">№459</text><polyline class="cls-5" points="107.47 493.84 107.47 344.76 231.79 344.76 231.79 493.84"/><line class="cls-5" x1="107.47" y1="394.55" x2="231.79" y2="394.55"/><line class="cls-5" x1="107.47" y1="493.84" x2="231.79" y2="493.84"/><line class="cls-5" x1="107.47" y1="444.34" x2="231.79" y2="444.34"/><text class="cls-6" transform="translate(95.23 611.45)">13.05</text><text class="cls-6" transform="translate(401.06 116.36)">4.60</text><text class="cls-6" transform="translate(120.27 128.22)">6.12</text><text class="cls-6" transform="translate(269.61 319.38)">2.00</text><line class="cls-7" x1="414.99" y1="20.18" x2="327.4" y2="20.18"/><line class="cls-7" x1="280.58" y1="213.37" x2="192.99" y2="213.37"/><line class="cls-7" x1="280.58" y1="205.9" x2="192.99" y2="205.9"/><line class="cls-7" x1="297.03" y1="45.85" x2="297.03" y2="123.16"/><line class="cls-7" x1="289.28" y1="45.85" x2="289.28" y2="123.16"/><line class="cls-7" x1="83.88" y1="1.04" x2="173.96" y2="1.04"/><polyline class="cls-8" points="428.88 65.92 436.63 65.92 604.76 65.92 609.86 58.28 521.31 58.28"/><line class="cls-8" x1="513.67" y1="58.28" x2="436.63" y2="58.28"/><polyline class="cls-8" points="318.22 396.79 318.22 501.95 420.12 346.86 451.92 298.56 373.25 246.79 373.25 313.03 318.22 396.79"/><polyline class="cls-8" points="479.94 205.52 479.94 209.39 479.94 213.27"/><polyline class="cls-8" points="441.42 205.52 441.42 209.39 441.42 213.27"/><line class="cls-8" x1="513.05" y1="205.52" x2="479.94" y2="205.52"/><line class="cls-8" x1="441.42" y1="205.52" x2="297.03" y2="205.52"/><line class="cls-8" x1="297.03" y1="213.27" x2="374.06" y2="213.27"/><line class="cls-8" x1="381.71" y1="213.27" x2="441.42" y2="213.27"/><polyline class="cls-8" points="479.94 213.27 507.96 213.27 513.05 205.52"/><line class="cls-8" x1="441.42" y1="205.52" x2="479.94" y2="205.52"/><line class="cls-8" x1="441.42" y1="213.27" x2="479.94" y2="213.27"/><path class="cls-8" d="M443.84,192.31a38.6,38.6,0,0,0-2.32,13.16"/><line class="cls-8" x1="479.94" y1="205.52" x2="443.76" y2="192.38"/><polyline class="cls-8" points="441.42 213.27 441.42 209.39 441.42 205.52 441.42 209.39"/><polyline class="cls-8" points="479.94 213.27 479.94 209.39 479.94 205.52 479.94 209.39"/><line class="cls-8" x1="192.99" y1="213.27" x2="192.99" y2="205.52"/><polyline class="cls-8" points="279.7 213.27 279.7 205.52 289.28 205.52"/><polyline class="cls-8" points="192.99 205.52 19.76 205.52 19.76 213.27 192.99 213.27"/><polyline class="cls-8" points="279.7 213.27 289.28 213.27 289.28 205.52"/><line class="cls-8" x1="125.63" y1="677.32" x2="231.71" y2="677.32"/><line class="cls-8" x1="0.5" y1="677.32" x2="19.76" y2="677.32"/><line class="cls-8" x1="231.71" y1="677.32" x2="243.22" y2="677.32"/><line class="cls-8" x1="23.53" y1="677.32" x2="23.53" y2="667.74"/><line class="cls-8" x1="121.76" y1="677.32" x2="121.76" y2="667.74"/><line class="cls-8" x1="23.53" y1="678.34" x2="23.53" y2="677.32"/><line class="cls-8" x1="121.76" y1="678.34" x2="121.76" y2="677.32"/><line class="cls-8" x1="19.76" y1="667.74" x2="19.76" y2="667.74"/><polyline class="cls-8" points="19.76 677.32 22.61 677.32 22.61 667.74 22.61 677.32"/><line class="cls-8" x1="22.61" y1="678.34" x2="23.53" y2="678.34"/><line class="cls-8" x1="125.63" y1="667.74" x2="125.63" y2="667.74"/><polyline class="cls-8" points="125.63 677.32 122.78 677.32 122.78 667.74 122.78 677.32"/><line class="cls-8" x1="122.78" y1="678.34" x2="121.76" y2="678.34"/><polyline class="cls-8" points="19.76 667.74 19.76 661.93 19.76 643.69"/><polyline class="cls-8" points="125.63 667.74 125.63 661.93 125.63 643.69"/><polyline class="cls-8" points="22.61 678.34 0.5 678.34 0.5 636.76"/><line class="cls-8" x1="122.78" y1="678.34" x2="243.73" y2="678.34"/><line class="cls-8" x1="225.09" y1="643.69" x2="125.63" y2="643.69"/><line class="cls-8" x1="0.5" y1="643.69" x2="0.5" y2="643.69"/><line class="cls-8" x1="121.76" y1="678.34" x2="23.53" y2="678.34"/><line class="cls-8" x1="125.63" y1="643.69" x2="19.76" y2="643.69"/><polyline class="cls-8" points="125.63 661.93 120.33 661.93 120.33 665.8 117.89 665.8 117.89 667.74 125.63 667.74"/><polyline class="cls-8" points="19.76 667.74 27.4 667.74 27.4 665.8 24.96 665.8 24.96 661.93 19.76 661.93"/><line class="cls-8" x1="27.4" y1="667.74" x2="117.89" y2="667.74"/><polyline class="cls-8" points="120.33 659.99 114.53 659.99 30.76 659.99"/><polyline class="cls-8" points="114.53 659.99 114.53 665.8 120.33 665.8 120.33 659.99"/><polyline class="cls-8" points="24.96 665.8 30.76 665.8 30.76 659.99 24.96 659.99 24.96 665.8"/><line class="cls-8" x1="30.76" y1="665.8" x2="114.53" y2="665.8"/><line class="cls-8" x1="114.53" y1="659.99" x2="30.76" y2="659.99"/><line class="cls-8" x1="114.53" y1="662.95" x2="30.76" y2="662.95"/><polyline class="cls-8" points="125.63 643.69 125.63 661.93 125.63 667.74 125.63 661.93"/><polyline class="cls-8" points="19.76 643.69 19.76 661.93 19.76 667.74 19.76 661.93"/><line class="cls-8" x1="121.76" y1="678.34" x2="121.76" y2="677.32"/><polyline class="cls-8" points="121.76 667.74 122.78 667.74 121.76 667.74"/><polyline class="cls-8" points="122.78 667.74 125.63 667.74 122.78 667.74"/><line class="cls-8" x1="23.53" y1="678.34" x2="23.53" y2="677.32"/><polyline class="cls-8" points="23.53 667.74 22.61 667.74 23.53 667.74"/><polyline class="cls-8" points="22.61 667.74 19.76 667.74 22.61 667.74"/><line class="cls-8" x1="121.76" y1="677.32" x2="121.76" y2="667.74"/><line class="cls-8" x1="23.53" y1="677.32" x2="23.53" y2="667.74"/><polyline class="cls-8" points="249.54 667.74 243.22 677.32 249.54 667.74"/><line class="cls-8" x1="374.27" y1="477.9" x2="645.52" y2="65.31"/><line class="cls-8" x1="249.54" y1="667.74" x2="266.46" y2="642.06"/><polyline class="cls-8" points="663.76 37.59 645.52 65.31 663.76 37.59"/><line class="cls-8" x1="366.22" y1="472.6" x2="498.79" y2="271.04"/><line class="cls-8" x1="498.79" y1="271.04" x2="645.52" y2="47.78"/><polyline class="cls-8" points="645.52 47.78 645.52 35.45 645.52 47.78"/><line class="cls-8" x1="268.5" y1="638.8" x2="260.45" y2="633.5"/><line class="cls-8" x1="372.23" y1="481.16" x2="364.18" y2="475.86"/><line class="cls-8" x1="269.31" y1="639.41" x2="268.5" y2="638.8"/><line class="cls-8" x1="373.04" y1="481.67" x2="372.23" y2="481.16"/><line class="cls-8" x1="258.41" y1="636.76" x2="258.41" y2="636.76"/><polyline class="cls-8" points="266.46 642.06 267.99 639.61 259.94 634.31 267.99 639.61"/><line class="cls-8" x1="268.8" y1="640.12" x2="269.31" y2="639.41"/><line class="cls-8" x1="366.22" y1="472.6" x2="366.22" y2="472.6"/><polyline class="cls-8" points="374.27 477.9 372.74 480.34 364.69 475.05 372.74 480.34"/><line class="cls-8" x1="373.55" y1="480.85" x2="373.04" y2="481.67"/><polyline class="cls-8" points="258.41 636.76 253.52 633.6 238.23 623.51"/><polyline class="cls-8" points="366.22 472.6 361.43 469.44 346.14 459.45"/><line class="cls-8" x1="244.35" y1="677.32" x2="268.8" y2="640.12"/><line class="cls-8" x1="373.55" y1="480.85" x2="664.78" y2="37.69"/><line class="cls-8" x1="626.26" y1="33.21" x2="482.59" y2="251.78"/><line class="cls-8" x1="469.95" y1="271.04" x2="346.14" y2="459.46"/><line class="cls-8" x1="238.23" y1="623.51" x2="225.09" y2="643.69"/><line class="cls-8" x1="373.04" y1="481.67" x2="269.31" y2="639.41"/><line class="cls-8" x1="346.14" y1="459.46" x2="238.23" y2="623.51"/><polyline class="cls-8" points="361.43 469.44 358.57 473.93 361.73 475.96 360.41 478 362.04 479.02 366.22 472.6"/><polyline class="cls-8" points="329.63 528.44 331.67 525.18 330.14 524.16 328.82 526.2 325.56 524.06 324.74 525.28"/><line class="cls-8" x1="331.67" y1="525.18" x2="362.04" y2="479.02"/><polyline class="cls-8" points="356.94 472.8 353.79 477.69 327.09 518.15"/><polyline class="cls-8" points="353.79 477.69 358.57 480.85 361.73 475.96 356.94 472.8"/><polyline class="cls-8" points="328.82 526.2 331.98 521.31 327.09 518.15 323.93 522.94 328.82 526.2"/><line class="cls-8" x1="331.98" y1="521.31" x2="358.57" y2="480.85"/><line class="cls-8" x1="353.79" y1="477.69" x2="327.09" y2="518.15"/><line class="cls-8" x1="356.13" y1="479.22" x2="329.53" y2="519.78"/><polyline class="cls-8" points="324.74 525.28 323.93 526.4 327.19 528.54 325.87 530.58 327.5 531.6 329.63 528.44"/><polyline class="cls-8" points="295.09 581.02 297.13 577.76 295.6 576.74 294.28 578.68 291.01 576.64 290.2 577.76"/><line class="cls-8" x1="297.13" y1="577.76" x2="327.5" y2="531.6"/><polyline class="cls-8" points="322.4 525.38 319.24 530.17 292.54 570.73"/><polyline class="cls-8" points="319.24 530.17 324.03 533.43 327.19 528.54 322.4 525.38"/><polyline class="cls-8" points="294.28 578.68 297.44 573.89 292.54 570.73 289.38 575.52 294.28 578.68"/><line class="cls-8" x1="297.43" y1="573.89" x2="324.03" y2="533.43"/><line class="cls-8" x1="319.24" y1="530.17" x2="292.54" y2="570.73"/><line class="cls-8" x1="321.58" y1="531.8" x2="294.99" y2="572.26"/><polyline class="cls-8" points="290.2 577.76 289.38 578.98 292.64 581.12 291.32 583.16 292.95 584.18 295.09 581.02"/><polyline class="cls-8" points="258.41 636.76 262.58 630.34 260.95 629.32 259.63 631.26 256.47 629.12 253.52 633.6"/><line class="cls-8" x1="262.59" y1="630.34" x2="292.95" y2="584.18"/><polyline class="cls-8" points="287.86 577.96 284.6 582.75 258 623.31"/><polyline class="cls-8" points="284.6 582.75 289.49 585.91 292.64 581.12 287.86 577.96"/><polyline class="cls-8" points="259.63 631.26 262.89 626.47 258 623.31 254.84 628.1 259.63 631.26"/><line class="cls-8" x1="262.89" y1="626.47" x2="289.49" y2="585.91"/><line class="cls-8" x1="284.6" y1="582.75" x2="258" y2="623.31"/><line class="cls-8" x1="287.04" y1="584.38" x2="260.45" y2="624.84"/><polyline class="cls-8" points="346.14 459.45 361.43 469.44 366.22 472.6 361.43 469.44"/><polyline class="cls-8" points="238.23 623.51 253.52 633.6 258.41 636.76 253.52 633.6"/><line class="cls-8" x1="373.04" y1="481.67" x2="372.23" y2="481.16"/><polyline class="cls-8" points="364.18 475.86 364.69 475.05 364.18 475.86"/><polyline class="cls-8" points="364.69 475.05 366.22 472.6 364.69 475.05"/><line class="cls-8" x1="269.31" y1="639.41" x2="268.5" y2="638.8"/><polyline class="cls-8" points="260.44 633.5 259.94 634.31 260.44 633.5"/><polyline class="cls-8" points="259.94 634.31 258.41 636.76 259.94 634.31"/><line class="cls-8" x1="372.23" y1="481.16" x2="364.18" y2="475.86"/><line class="cls-8" x1="268.5" y1="638.8" x2="260.45" y2="633.5"/><polyline class="cls-8" points="663.87 0.5 663.87 19.96 663.87 37.49 663.76 37.59 663.87 37.49"/><polyline class="cls-8" points="635.13 19.76 626.26 33.21 635.13 19.76"/><polyline class="cls-8" points="645.52 0.5 645.52 3.96 645.52 35.45 645.52 3.96"/><line class="cls-8" x1="664.78" y1="35.96" x2="664.78" y2="0.5"/><line class="cls-8" x1="626.26" y1="19.76" x2="626.26" y2="33.21"/><line class="cls-8" x1="0.5" y1="96.79" x2="0.5" y2="248.93"/><line class="cls-8" x1="0.5" y1="345.23" x2="0.5" y2="566.65"/><line class="cls-8" x1="19.76" y1="566.65" x2="19.76" y2="345.23"/><line class="cls-8" x1="19.76" y1="248.93" x2="19.76" y2="96.79"/><polyline class="cls-8" points="79.88 0.5 79.88 8.14 79.88 19.76"/><polyline class="cls-8" points="316.8 0.5 176.18 0.5 176.18 8.14 176.18 19.76 189.63 19.76"/><line class="cls-8" x1="79.88" y1="0.5" x2="60.62" y2="0.5"/><path class="cls-8" d="M83.8,96.69a88.6,88.6,0,0,0,88.6-88.6"/><polyline class="cls-8" points="176.18 0.5 172.3 0.5 172.3 8.14 176.18 8.14 176.18 0.5"/><polyline class="cls-8" points="79.88 8.14 83.75 8.14 83.75 0.5 79.88 0.5 79.88 8.14"/><line class="cls-8" x1="83.75" y1="8.14" x2="83.75" y2="96.79"/><polyline class="cls-8" points="176.18 19.76 176.18 8.14 176.18 0.5 176.18 8.14"/><polyline class="cls-8" points="79.88 19.76 79.88 8.14 79.88 0.5 79.88 8.14"/><line class="cls-8" x1="189.63" y1="19.76" x2="289.28" y2="19.76"/><line class="cls-8" x1="385.58" y1="19.76" x2="626.26" y2="19.76"/><line class="cls-8" x1="663.87" y1="0.5" x2="385.58" y2="0.5"/><line class="cls-8" x1="289.28" y1="0.5" x2="199.31" y2="0.5"/><polyline class="cls-8" points="60.62 0.5 60.62 19.76 60.62 50.53"/><line class="cls-8" x1="79.88" y1="69.79" x2="79.88" y2="19.76"/><line class="cls-8" x1="60.62" y1="50.53" x2="19.76" y2="50.53"/><polyline class="cls-8" points="79.88 69.79 60.62 69.79 19.76 69.79"/><line class="cls-8" x1="289.28" y1="50.53" x2="297.03" y2="50.53"/><line class="cls-8" x1="289.28" y1="117.99" x2="297.03" y2="117.99"/><line class="cls-8" x1="297.03" y1="237.31" x2="297.03" y2="213.27"/><line class="cls-8" x1="297.03" y1="205.52" x2="297.03" y2="117.99"/><line class="cls-8" x1="297.03" y1="50.53" x2="297.03" y2="19.76"/><line class="cls-8" x1="289.28" y1="19.76" x2="289.28" y2="50.53"/><line class="cls-8" x1="289.28" y1="117.99" x2="289.28" y2="245.06"/><line class="cls-8" x1="428.89" y1="19.76" x2="428.89" y2="65.92"/><polyline class="cls-8" points="436.63 58.28 436.63 19.76 428.88 19.76"/><line class="cls-8" x1="513.67" y1="19.76" x2="513.67" y2="58.28"/><polyline class="cls-8" points="521.31 58.28 521.31 19.76 513.66 19.76"/><line class="cls-8" x1="374.06" y1="213.27" x2="374.06" y2="238.13"/><line class="cls-8" x1="381.71" y1="243.22" x2="381.71" y2="213.27"/><polyline class="cls-8" points="289.28 245.06 297.03 245.06 370.5 245.06"/><line class="cls-8" x1="372.84" y1="237.31" x2="297.03" y2="237.31"/><line class="cls-8" x1="370.5" y1="245.06" x2="409.63" y2="270.74"/><polyline class="cls-8" points="410.03 271.04 451.92 298.56 456.09 292.14 424.1 271.04"/><polyline class="cls-8" points="381.71 243.22 384.56 245.06 409.63 261.57"/><line class="cls-8" x1="374.06" y1="238.13" x2="372.84" y2="237.31"/><polyline class="cls-8" points="349 0.5 352.87 0.5 356.74 0.5"/><polyline class="cls-8" points="356.74 0.5 352.87 0.5 349 0.5 352.87 0.5"/><polyline class="cls-8" points="509.79 254.23 509.79 251.78 496.34 251.78 496.34 271.04 498.79 271.04"/><polyline class="cls-8" points="26.89 680.68 26.89 733.67 26.48 733.67 26.48 680.68 26.89 680.68"/><polyline class="cls-8" points="28.42 735.09 116.97 735.09 116.97 735.6 28.42 735.6 28.42 735.09"/><polyline class="cls-8" points="118.4 733.67 118.4 680.68 118.91 680.68 118.91 733.67 118.4 733.67"/><polyline class="cls-8" points="28.42 678.34 28.42 680.68 25.98 680.68 25.98 678.34 28.42 678.34"/><polyline class="cls-8" points="28.42 733.67 28.42 736.11 25.98 736.11 25.98 733.67 28.42 733.67"/><polyline class="cls-8" points="116.97 733.67 119.31 733.67 119.31 736.11 116.97 736.11 116.97 733.67"/><polyline class="cls-8" points="116.97 680.68 116.97 678.34 119.31 678.34 119.31 680.68 116.97 680.68"/><line class="cls-8" x1="28.42" y1="679.56" x2="28.42" y2="733.67"/><line class="cls-8" x1="25.97" y1="736.11" x2="25.97" y2="679.56"/><line class="cls-8" x1="28.42" y1="733.67" x2="116.97" y2="733.67"/><line class="cls-8" x1="119.31" y1="736.11" x2="25.97" y2="736.11"/><line class="cls-8" x1="116.97" y1="733.67" x2="116.97" y2="679.56"/><line class="cls-8" x1="119.31" y1="679.56" x2="119.31" y2="736.11"/><polyline class="cls-8" points="25.98 679.56 25.98 678.34 28.42 678.34 28.42 679.56"/><polyline class="cls-8" points="116.97 679.56 116.97 678.34 119.31 678.34 119.31 679.56"/><polyline class="cls-8" points="119.31 736.11 25.98 736.11 25.98 679.56 28.42 679.56 28.42 733.67 116.97 733.67 116.97 679.56 119.31 679.56 119.31 736.11"/><polyline class="cls-8" points="114.53 718.79 30.76 718.79 30.76 687.91 114.53 687.91 114.53 718.79"/><polyline class="cls-8" points="114.53 715.63 30.76 715.63 30.76 687.91 114.53 687.91 114.53 715.63"/><polyline class="cls-8" points="392.61 183.61 392.61 205.62 444.58 205.62 444.58 183.61"/><line class="cls-8" x1="426.85" y1="205.62" x2="410.44" y2="205.62"/><line class="cls-8" x1="422.98" y1="187.89" x2="420.22" y2="187.89"/><line class="cls-8" x1="418.59" y1="192.27" x2="418.59" y2="189.52"/><line class="cls-8" x1="416.96" y1="187.89" x2="414.21" y2="187.89"/><line class="cls-8" x1="418.59" y1="186.36" x2="418.59" y2="183.51"/><path class="cls-8" d="M395.86,182.19a23.12,23.12,0,0,0,9,11"/><path class="cls-8" d="M404.85,193.13a23.19,23.19,0,0,0,13.82,3.25"/><path class="cls-8" d="M432.44,193.15a23.12,23.12,0,0,0,9-11"/><path class="cls-8" d="M418.62,196.38a23.2,23.2,0,0,0,13.82-3.25"/><path class="cls-8" d="M416.83,166.1a42.55,42.55,0,0,0-15.77,4.3"/><path class="cls-8" d="M444.67,183.52a13.19,13.19,0,0,0-4.93-10.86"/><path class="cls-8" d="M420.46,166.05a24.57,24.57,0,0,0-3.64,0"/><path class="cls-8" d="M404.09,192.27a94.65,94.65,0,0,0,29.1,0"/><path class="cls-8" d="M435.88,201.38a32.7,32.7,0,0,0,7.37-21.23"/><path class="cls-8" d="M418.66,204.4a64.8,64.8,0,0,0,14.88-1.61"/><path class="cls-8" d="M433.56,202.87a4.38,4.38,0,0,0,2.4-1.49"/><path class="cls-8" d="M418.66,202.46a110.73,110.73,0,0,0,14.67-1.05"/><path class="cls-8" d="M436,200a29.39,29.39,0,0,0,7.34-19.83"/><path class="cls-8" d="M433.3,201.4A4.32,4.32,0,0,0,436,200"/><path class="cls-8" d="M393.94,180.16A29.39,29.39,0,0,0,401.3,200"/><path class="cls-8" d="M394,180.19a32.69,32.69,0,0,0,7.39,21.22"/><path class="cls-8" d="M404,201.43a110.52,110.52,0,0,0,14.65,1"/><path class="cls-8" d="M403.84,202.91a65.25,65.25,0,0,0,14.87,1.59"/><path class="cls-8" d="M401.34,200a4.36,4.36,0,0,0,2.65,1.43"/><path class="cls-8" d="M401.44,201.39a4.28,4.28,0,0,0,2.39,1.48"/><path class="cls-8" d="M397.65,172.66a13.19,13.19,0,0,0-4.93,10.86"/><path class="cls-8" d="M401,170.39a20.28,20.28,0,0,0-3.46,2.24"/><path class="cls-8" d="M439.73,172.63a20.28,20.28,0,0,0-3.46-2.24"/><path class="cls-8" d="M436.23,170.4a42.55,42.55,0,0,0-15.77-4.3"/><path class="cls-8" d="M425.8,169.79a30.67,30.67,0,0,0-14.32,0"/><path class="cls-8" d="M398.57,175.73a7.76,7.76,0,0,0-2.68,6.43"/><path class="cls-8" d="M411.51,169.78a28.1,28.1,0,0,0-12.95,5.94"/><path class="cls-8" d="M441.5,182.16a7.76,7.76,0,0,0-2.68-6.43"/><path class="cls-8" d="M438.73,175.72a28.1,28.1,0,0,0-13-5.94"/><path class="cls-8" d="M422.06,187.84a3.42,3.42,0,1,0-3.42,3.42,3.42,3.42,0,0,0,3.42-3.42"/><path class="cls-8" d="M421,187.84a2.4,2.4,0,1,0-2.4,2.4,2.39,2.39,0,0,0,2.4-2.4"/><line class="cls-8" x1="522.73" y1="163.84" x2="494.3" y2="145.2"/><polyline class="cls-8" points="525.18 163.74 535.88 170.77 515.8 201.34"/><line class="cls-8" x1="508.47" y1="174.65" x2="501.03" y2="185.96"/><polyline class="cls-8" points="494.31 145.2 515.91 163.34 508.47 174.65"/><line class="cls-8" x1="475.86" y1="173.32" x2="501.03" y2="185.96"/><line class="cls-8" x1="493.9" y1="145.91" x2="515.5" y2="164.05"/><line class="cls-8" x1="476.27" y1="172.61" x2="501.54" y2="185.24"/><line class="cls-8" x1="504.19" y1="192.07" x2="475.76" y2="173.32"/><line class="cls-8" x1="515.81" y1="201.34" x2="505.11" y2="194.31"/><polyline class="cls-8" points="494.31 145.2 490.94 143.57 487.17 142.75 483.3 142.96 479.53 144.18 476.06 146.22 473.11 148.97 470.87 152.43 469.54 156.2 469.03 160.18 469.44 164.15 470.77 167.72 473.01 170.88 475.86 173.32"/><polyline class="cls-8" points="493.9 145.91 490.64 144.38 487.07 143.67 483.4 143.87 479.83 144.99 476.57 146.93 473.82 149.58 471.68 152.74 470.36 156.41 469.85 160.18 470.26 163.84 471.58 167.31 473.62 170.26 476.27 172.61"/><path class="cls-8" d="M522.5,164.14a155.07,155.07,0,0,0-18,27.41"/><path class="cls-8" d="M525.26,163.78a2.15,2.15,0,0,0-2.84.36"/><path class="cls-8" d="M504.44,191.51a2.16,2.16,0,0,0,.79,2.77"/><path class="cls-8" d="M517.63,180.65a1.78,1.78,0,1,0,2.47-.51,1.78,1.78,0,0,0-2.47.51"/><path class="cls-8" d="M409.53,276.34a19.21,19.21,0,0,0-21.1,32.1"/><path class="cls-8" d="M388.43,308.44a19.21,19.21,0,1,0,21.1-32.1"/><path class="cls-8" d="M415.84,292.39A16.87,16.87,0,1,0,399,309.26a16.86,16.86,0,0,0,16.86-16.87"/><line class="cls-8" x1="311.29" y1="183.41" x2="316.8" y2="183.41"/><line class="cls-8" x1="319.14" y1="185.86" x2="319.14" y2="191.36"/><line class="cls-8" x1="321.58" y1="183.41" x2="327.09" y2="183.41"/><line class="cls-8" x1="319.14" y1="175.56" x2="319.14" y2="181.07"/><line class="cls-8" x1="302.84" y1="123.7" x2="325.86" y2="123.7"/><line class="cls-8" x1="324.95" y1="200.73" x2="377.94" y2="200.73"/><line class="cls-8" x1="378.85" y1="176.68" x2="378.85" y2="199.82"/><line class="cls-8" x1="302.84" y1="123.7" x2="325.86" y2="123.7"/><line class="cls-8" x1="301.82" y1="124.72" x2="301.82" y2="177.6"/><line class="cls-8" x1="297.94" y1="118.91" x2="325.86" y2="118.91"/><line class="cls-8" x1="297.94" y1="205.52" x2="382.72" y2="205.52"/><line class="cls-8" x1="383.64" y1="176.68" x2="383.64" y2="204.6"/><line class="cls-8" x1="297.03" y1="119.93" x2="297.03" y2="204.6"/><path class="cls-8" d="M301.82,177.55a4.78,4.78,0,0,0,.25,1.54"/><path class="cls-8" d="M302.89,123.7a1,1,0,0,0-1,1"/><path class="cls-8" d="M301.82,177.55a4.78,4.78,0,0,0,.25,1.54"/><path class="cls-8" d="M383.64,176.63a57.72,57.72,0,0,0-57.72-57.72"/><path class="cls-8" d="M298,118.91a1,1,0,0,0-1,1"/><path class="cls-8" d="M378.85,176.63a52.93,52.93,0,0,0-52.93-52.93"/><path class="cls-8" d="M382.78,205.52a1,1,0,0,0,1-1"/><path class="cls-8" d="M378,200.73a1,1,0,0,0,1-1"/><path class="cls-8" d="M297,204.55a1,1,0,0,0,1,1"/><path class="cls-8" d="M302,178.47a52,52,0,0,0,22.12,22.12"/><path class="cls-8" d="M323.46,200.48a4.78,4.78,0,0,0,1.54.25"/><path class="cls-8" d="M302.15,179.14a33.87,33.87,0,0,0,21.36,21.37"/><path class="cls-8" d="M323.46,200.48a4.78,4.78,0,0,0,1.54.25"/><path class="cls-8" d="M323.52,183.36a4.33,4.33,0,1,0-4.33,4.33,4.33,4.33,0,0,0,4.33-4.33"/><path class="cls-8" d="M325.25,183.36a6.06,6.06,0,1,0-6.06,6.06,6.06,6.06,0,0,0,6.06-6.06"/><polyline class="cls-8" points="626.26 0.5 626.26 19.76 645.52 19.76"/><polyline class="cls-8" points="19.76 662.95 0.5 662.95 0.5 566.65 19.76 566.65 19.76 662.95"/><polyline class="cls-8" points="19.76 345.23 0.5 345.23 0.5 248.93 19.76 248.93 19.76 345.23"/><polyline class="cls-8" points="0.5 50.53 19.76 50.53 19.76 96.8 0.5 96.8 0.5 50.53"/><polyline class="cls-8" points="385.58 0.5 385.58 19.76 289.28 19.76 289.28 0.5 385.58 0.5"/><polyline class="cls-8" points="496.34 251.78 496.34 271.04 409.63 271.04 409.63 251.78 496.34 251.78"/><polyline class="cls-8" points="626.26 0.5 626.26 19.76 645.52 19.76"/></svg>