<svg id="_37" data-name="37" xmlns="http://www.w3.org/2000/svg" viewBox="0 0 290.93 818.14"><defs><style>.cls-1{isolation:isolate;font-size:12px;fill:#969696;}.cls-1,.cls-3,.cls-5{font-family:PTSans-Regular, PT Sans;}.cls-2,.cls-4,.cls-6,.cls-7{fill:none;stroke-linecap:round;stroke-linejoin:round;}.cls-2{stroke:#969696;stroke-width:0.75px;}.cls-3{font-size:40px;}.cls-4,.cls-6,.cls-7{stroke:#000;}.cls-4{stroke-width:0.5px;}.cls-5{font-size:36px;}.cls-6{stroke-width:0.25px;stroke-dasharray:1 1;}</style></defs><title>5floor_37flat</title><text class="cls-1" transform="translate(139.9 814.95)">двор</text><line class="cls-2" x1="129.14" y1="817.77" x2="129.14" y2="808.97"/><polyline class="cls-2" points="125.64 814.27 129.14 817.77 132.64 814.27"/><text class="cls-3" transform="translate(121.22 514.68)">CT</text><text class="cls-3" transform="translate(95.86 564.85)">26.60</text><text class="cls-3" transform="translate(101.48 464.77)">№37</text><polyline class="cls-4" points="81.57 575.67 81.57 426.59 205.89 426.59 205.89 575.67"/><line class="cls-4" x1="81.57" y1="476.38" x2="205.89" y2="476.38"/><line class="cls-4" x1="81.57" y1="575.67" x2="205.89" y2="575.67"/><line class="cls-4" x1="81.57" y1="526.16" x2="205.89" y2="526.16"/><text class="cls-5" transform="translate(96.9 655.54)">17.01</text><text class="cls-5" transform="translate(151.8 329.64)">2.16</text><text class="cls-5" transform="translate(33.73 144.44)">3.81</text><text class="cls-5" transform="translate(151.92 128.72)">3.62</text><line class="cls-6" x1="122.52" y1="0.47" x2="50.2" y2="0.47"/><line class="cls-6" x1="131.01" y1="96.22" x2="131.01" y2="166.32"/><line class="cls-6" x1="137.31" y1="96.22" x2="137.31" y2="166.32"/><line class="cls-6" x1="121.42" y1="225.42" x2="51.31" y2="225.42"/><line class="cls-6" x1="121.42" y1="219.11" x2="51.31" y2="219.11"/><polyline class="cls-7" points="288.2 716.96 290.44 716.63 288.2 716.96 236.03 724.51"/><line class="cls-7" x1="232.96" y1="724.92" x2="231.8" y2="717.21"/><line class="cls-7" x1="233.05" y1="725.75" x2="232.96" y2="724.92"/><line class="cls-7" x1="234.87" y1="716.71" x2="234.87" y2="716.71"/><polyline class="cls-7" points="236.03 724.51 233.71 724.84 232.55 717.04 233.71 724.84"/><line class="cls-7" x1="233.79" y1="725.59" x2="233.05" y2="725.75"/><polyline class="cls-7" points="234.87 716.71 234.21 712.07 232.05 697.39"/><polyline class="cls-7" points="233.79 725.59 290.44 717.46 290.44 694.66"/><line class="cls-7" x1="282.89" y1="689.92" x2="232.05" y2="697.39"/><polyline class="cls-7" points="121.25 745.99 233.63 729.57 233.04 725.75"/><line class="cls-7" x1="122.25" y1="713.31" x2="232.05" y2="697.39"/><line class="cls-7" x1="121.42" y1="742.01" x2="233.05" y2="725.75"/><line class="cls-7" x1="122.25" y1="713.31" x2="232.05" y2="697.39"/><polyline class="cls-7" points="121.75 728.49 126.06 727.83 126.48 730.89 128.47 730.64 128.63 732.22 122.41 733.13 121.67 733.22"/><polyline class="cls-7" points="188.34 723.51 185.28 723.93 185.03 722.43 187.02 722.1 186.52 719.03 187.68 718.87"/><line class="cls-7" x1="185.28" y1="723.93" x2="128.63" y2="732.22"/><polyline class="cls-7" points="125.81 726.25 130.46 725.59 181.63 718.12"/><polyline class="cls-7" points="130.46 725.59 131.12 730.23 126.48 730.89 125.81 726.25"/><polyline class="cls-7" points="187.02 722.1 182.29 722.85 181.63 718.12 186.27 717.46 187.02 722.1"/><line class="cls-7" x1="182.29" y1="722.85" x2="131.12" y2="730.23"/><line class="cls-7" x1="130.46" y1="725.59" x2="181.63" y2="718.12"/><line class="cls-7" x1="130.79" y1="727.91" x2="181.96" y2="720.44"/><line class="cls-7" x1="122.41" y1="733.13" x2="121.75" y2="728.49"/><polyline class="cls-7" points="187.68 718.87 188.84 718.7 189.34 721.77 191.25 721.52 191.5 723.1 188.34 723.51"/><polyline class="cls-7" points="234.87 716.71 228.73 717.63 228.48 716.13 230.39 715.8 229.98 712.73 234.21 712.07"/><line class="cls-7" x1="228.73" y1="717.62" x2="191.5" y2="723.1"/><polyline class="cls-7" points="188.59 717.13 193.32 716.46 225.08 711.82"/><polyline class="cls-7" points="193.32 716.46 193.98 721.11 189.34 721.77 188.59 717.13"/><polyline class="cls-7" points="230.39 715.8 225.75 716.46 225.08 711.82 229.73 711.16 230.39 715.8"/><line class="cls-7" x1="225.75" y1="716.46" x2="193.98" y2="721.11"/><line class="cls-7" x1="193.32" y1="716.46" x2="225.08" y2="711.82"/><line class="cls-7" x1="193.65" y1="718.79" x2="225.42" y2="714.14"/><polyline class="cls-7" points="232.05 697.39 234.21 712.07 234.87 716.71 234.21 712.07"/><line class="cls-7" x1="233.05" y1="725.75" x2="232.96" y2="724.92"/><polyline class="cls-7" points="231.8 717.21 232.55 717.04 231.8 717.21"/><polyline class="cls-7" points="232.55 717.04 234.87 716.71 232.55 717.04"/><line class="cls-7" x1="232.96" y1="724.92" x2="231.8" y2="717.21"/><line class="cls-7" x1="0.5" y1="716.42" x2="50.18" y2="726.5"/><line class="cls-7" x1="53.25" y1="727.16" x2="54.82" y2="719.45"/><line class="cls-7" x1="53.08" y1="727.91" x2="53.25" y2="727.16"/><line class="cls-7" x1="51.75" y1="718.87" x2="51.75" y2="718.87"/><polyline class="cls-7" points="50.18 726.5 52.5 727 54.08 719.28 52.5 727"/><line class="cls-7" x1="52.33" y1="727.74" x2="53.08" y2="727.91"/><polyline class="cls-7" points="51.75 718.87 52.75 714.22 55.73 699.63"/><polyline class="cls-7" points="52.33 727.74 0.5 717.17 0.5 700.84"/><line class="cls-7" x1="55.73" y1="699.63" x2="8.38" y2="689.92"/><polyline class="cls-7" points="121.25 745.99 52.33 731.72 53.08 727.91"/><line class="cls-7" x1="122.25" y1="713.31" x2="55.73" y2="699.63"/><line class="cls-7" x1="121.42" y1="742.01" x2="53.08" y2="727.91"/><line class="cls-7" x1="122.25" y1="713.31" x2="55.73" y2="699.63"/><polyline class="cls-7" points="121.83 728.49 117.6 727.58 116.94 730.64 115.03 730.23 114.7 731.81 120.84 733.05 121.67 733.22"/><polyline class="cls-7" points="51.75 718.87 57.89 720.11 58.22 718.54 56.31 718.21 56.98 715.14 52.75 714.22"/><line class="cls-7" x1="57.89" y1="720.11" x2="114.7" y2="731.81"/><polyline class="cls-7" points="117.85 726.08 113.29 725.09 61.87 714.56"/><polyline class="cls-7" points="113.29 725.09 112.38 729.73 116.94 730.64 117.85 726.08"/><polyline class="cls-7" points="56.31 718.21 60.88 719.12 61.87 714.56 57.23 713.56 56.31 718.21"/><line class="cls-7" x1="60.88" y1="719.12" x2="112.38" y2="729.73"/><line class="cls-7" x1="113.29" y1="725.09" x2="61.87" y2="714.56"/><line class="cls-7" x1="112.79" y1="727.41" x2="61.37" y2="716.8"/><line class="cls-7" x1="120.84" y1="733.05" x2="121.83" y2="728.49"/><polyline class="cls-7" points="55.73 699.63 52.75 714.22 51.75 718.87 52.75 714.22"/><line class="cls-7" x1="53.08" y1="727.91" x2="53.25" y2="727.16"/><polyline class="cls-7" points="54.82 719.45 54.08 719.28 54.82 719.45"/><polyline class="cls-7" points="54.08 719.28 51.75 718.87 54.08 719.28"/><line class="cls-7" x1="53.25" y1="727.16" x2="54.82" y2="719.45"/><line class="cls-7" x1="131.37" y1="152.52" x2="137.67" y2="152.52"/><line class="cls-7" x1="131.37" y1="97.7" x2="137.67" y2="97.7"/><line class="cls-7" x1="137.67" y1="219.11" x2="137.67" y2="152.52"/><polyline class="cls-7" points="137.67 97.7 137.67 56.9 131.37 56.9 131.37 97.7"/><line class="cls-7" x1="131.37" y1="152.52" x2="131.37" y2="219.11"/><line class="cls-7" x1="131.37" y1="97.7" x2="137.67" y2="97.7"/><line class="cls-7" x1="131.37" y1="152.52" x2="137.67" y2="152.52"/><line class="cls-7" x1="51.5" y1="219.11" x2="51.5" y2="225.42"/><line class="cls-7" x1="122" y1="219.11" x2="122" y2="225.42"/><line class="cls-7" x1="16.17" y1="225.42" x2="51.5" y2="225.42"/><line class="cls-7" x1="122" y1="225.42" x2="160.4" y2="225.42"/><line class="cls-7" x1="166.7" y1="225.42" x2="252.87" y2="225.42"/><polyline class="cls-7" points="259.17 225.41 274.84 225.41 274.84 219.11 137.67 219.11"/><line class="cls-7" x1="131.37" y1="219.11" x2="122" y2="219.11"/><polyline class="cls-7" points="51.5 219.11 16.17 219.11 16.17 225.41"/><line class="cls-7" x1="122" y1="219.11" x2="122" y2="225.42"/><line class="cls-7" x1="51.5" y1="219.11" x2="51.5" y2="225.42"/><line class="cls-7" x1="160.4" y1="225.42" x2="160.4" y2="274.76"/><line class="cls-7" x1="166.7" y1="268.46" x2="166.7" y2="225.42"/><polyline class="cls-7" points="160.4 274.76 166.7 274.76 274.84 274.76 274.84 268.46 259.17 268.46"/><line class="cls-7" x1="252.87" y1="268.46" x2="166.7" y2="268.46"/><polyline class="cls-7" points="260.66 56.9 260.66 53.74 260.66 50.67"/><polyline class="cls-7" points="225.41 56.9 229.31 56.9 229.31 53.74 229.31 50.67"/><polyline class="cls-7" points="260.66 56.9 274.84 56.9 274.84 50.67 260.66 50.67"/><polyline class="cls-7" points="229.31 50.67 225.41 50.67 225.41 56.9"/><line class="cls-6" x1="229.31" y1="56.89" x2="260.66" y2="56.89"/><line class="cls-6" x1="229.31" y1="50.67" x2="260.66" y2="50.67"/><path class="cls-6" d="M229.43,56.47a31.24,31.24,0,0,0,1.89,10.7" transform="translate(-0.04 0.47)"/><line class="cls-7" x1="260.66" y1="56.89" x2="231.22" y2="67.59"/><polyline class="cls-7" points="229.31 50.67 229.31 53.74 229.31 56.9 229.31 53.74"/><polyline class="cls-7" points="260.66 50.67 260.66 53.74 260.66 56.9 260.66 53.74"/><line class="cls-7" x1="252.87" y1="225.42" x2="252.87" y2="268.46"/><line class="cls-7" x1="259.17" y1="268.46" x2="259.17" y2="225.42"/><polyline class="cls-7" points="147.04 9.87 209.74 9.87 209.74 0.5 147.04 0.5 147.04 9.87"/><polyline class="cls-7" points="125.89 16.17 125.89 6.72 125.89 0.5"/><polyline class="cls-7" points="47.52 16.17 47.52 6.72 47.52 0.5"/><line class="cls-7" x1="16.17" y1="16.17" x2="47.52" y2="16.17"/><line class="cls-7" x1="125.9" y1="16.17" x2="131.37" y2="16.17"/><line class="cls-7" x1="147.04" y1="0.5" x2="125.9" y2="0.5"/><line class="cls-7" x1="47.52" y1="0.5" x2="47.77" y2="0.5"/><line class="cls-7" x1="47.85" y1="0.5" x2="47.85" y2="0.5"/><line class="cls-7" x1="47.94" y1="0.5" x2="48.19" y2="0.5"/><line class="cls-7" x1="48.27" y1="0.5" x2="48.27" y2="0.5"/><line class="cls-7" x1="48.35" y1="0.5" x2="48.35" y2="0.5"/><polyline class="cls-7" points="48.44 0.5 48.68 0.5 48.77 0.5 48.85 0.5 49.1 0.5"/><line class="cls-7" x1="49.18" y1="0.5" x2="49.18" y2="0.5"/><line class="cls-7" x1="49.26" y1="0.5" x2="49.26" y2="0.5"/><line class="cls-7" x1="49.35" y1="0.5" x2="49.51" y2="0.5"/><line class="cls-7" x1="49.6" y1="0.5" x2="49.6" y2="0.5"/><line class="cls-7" x1="49.68" y1="0.5" x2="49.68" y2="0.5"/><line class="cls-7" x1="49.76" y1="0.5" x2="50.01" y2="0.5"/><polyline class="cls-7" points="50.09 0.5 50.18 0.5 50.43 0.5"/><line class="cls-7" x1="50.51" y1="0.5" x2="50.51" y2="0.5"/><line class="cls-7" x1="50.59" y1="0.5" x2="50.59" y2="0.5"/><line class="cls-7" x1="122.49" y1="0.5" x2="122.49" y2="0.5"/><polyline class="cls-7" points="122.58 0.5 122.83 0.5 122.91 0.5 122.99 0.5 123.24 0.5"/><line class="cls-7" x1="123.32" y1="0.5" x2="123.32" y2="0.5"/><line class="cls-7" x1="123.41" y1="0.5" x2="123.41" y2="0.5"/><line class="cls-7" x1="123.49" y1="0.5" x2="123.74" y2="0.5"/><line class="cls-7" x1="123.82" y1="0.5" x2="123.82" y2="0.5"/><line class="cls-7" x1="123.9" y1="0.5" x2="124.15" y2="0.5"/><line class="cls-7" x1="124.24" y1="0.5" x2="124.24" y2="0.5"/><line class="cls-7" x1="124.32" y1="0.5" x2="124.57" y2="0.5"/><line class="cls-7" x1="124.65" y1="0.5" x2="124.65" y2="0.5"/><line class="cls-7" x1="124.73" y1="0.5" x2="124.73" y2="0.5"/><polyline class="cls-7" points="124.82 0.5 125.07 0.5 125.15 0.5 125.23 0.5 125.48 0.5"/><line class="cls-7" x1="125.56" y1="0.5" x2="125.56" y2="0.5"/><line class="cls-7" x1="125.65" y1="0.5" x2="125.65" y2="0.5"/><line class="cls-7" x1="125.73" y1="0.5" x2="125.9" y2="0.5"/><path class="cls-7" d="M50.71,6.29A72.11,72.11,0,0,0,122.82,78.4" transform="translate(-0.04 0.47)"/><polyline class="cls-7" points="47.52 0.5 50.67 0.5 50.67 6.72 47.52 6.72 47.52 0.5"/><polyline class="cls-7" points="125.89 6.72 122.74 6.72 122.74 0.5 125.89 0.5 125.89 6.72"/><line class="cls-7" x1="122.74" y1="6.72" x2="122.74" y2="78.87"/><polyline class="cls-7" points="47.52 0.5 47.52 6.72 47.52 0.5 3.73 0.5"/><line class="cls-7" x1="47.52" y1="16.17" x2="47.52" y2="6.72"/><polyline class="cls-7" points="125.89 0.5 125.89 6.72 125.89 0.5"/><line class="cls-7" x1="125.9" y1="16.17" x2="125.9" y2="6.72"/><polyline class="cls-7" points="274.84 16.17 274.84 690.09 290.44 690.09 290.44 68.67"/><line class="cls-7" x1="290.43" y1="53" x2="290.43" y2="0.5"/><polyline class="cls-7" points="0.5 16.17 0.5 690.09 16.17 690.09 16.17 16.17"/><line class="cls-7" x1="131.37" y1="16.17" x2="131.37" y2="56.89"/><polyline class="cls-7" points="147.04 0.5 147.04 16.17 147.04 41.22 209.74 41.22"/><polyline class="cls-7" points="131.37 56.9 147.04 56.9 225.41 56.9 225.41 41.22 225.41 16.17"/><line class="cls-7" x1="209.74" y1="0.5" x2="209.74" y2="41.22"/><line class="cls-7" x1="225.42" y1="16.17" x2="274.84" y2="16.17"/><line class="cls-7" x1="290.43" y1="0.5" x2="274.84" y2="0.5"/><polyline class="cls-7" points="209.74 0.5 225.41 0.5 274.84 0.5"/><line class="cls-7" x1="268.04" y1="207.34" x2="268.04" y2="167.36"/><line class="cls-7" x1="263.56" y1="162.72" x2="166.62" y2="162.72"/><line class="cls-7" x1="263.56" y1="212.06" x2="166.62" y2="212.06"/><line class="cls-7" x1="139.25" y1="157.99" x2="272.44" y2="157.99"/><polyline class="cls-7" points="139.25 157.99 139.25 216.79 272.44 216.79 272.44 157.99"/><line class="cls-7" x1="182.21" y1="203.85" x2="258.09" y2="203.85"/><line class="cls-7" x1="260.25" y1="201.53" x2="260.25" y2="173.25"/><line class="cls-7" x1="182.21" y1="170.85" x2="258.09" y2="170.85"/><line class="cls-7" x1="244.74" y1="188.84" x2="244.74" y2="191.74"/><line class="cls-7" x1="246.07" y1="187.35" x2="248.8" y2="187.35"/><line class="cls-7" x1="244.74" y1="185.94" x2="244.74" y2="183.04"/><line class="cls-7" x1="243.33" y1="187.35" x2="240.59" y2="187.35"/><path class="cls-7" d="M166.7,162.25c-12.9,0-23.35,11-23.35,24.67s10.45,24.67,23.35,24.67" transform="translate(-0.04 0.47)"/><path class="cls-7" d="M268.08,166.93a4.56,4.56,0,0,0-4.44-4.68" transform="translate(-0.04 0.47)"/><path class="cls-7" d="M263.64,211.59a4.56,4.56,0,0,0,4.44-4.68" transform="translate(-0.04 0.47)"/><path class="cls-7" d="M244.82,189.37a2.46,2.46,0,1,0-2.28-2.45,2.37,2.37,0,0,0,2.28,2.45" transform="translate(-0.04 0.47)"/><path class="cls-7" d="M182.29,170.37c-8.59,0-15.55,7.41-15.55,16.55s7,16.55,15.55,16.55" transform="translate(-0.04 0.47)"/><path class="cls-7" d="M258.17,203.47a2.29,2.29,0,0,0,2.2-2.37" transform="translate(-0.04 0.47)"/><path class="cls-7" d="M260.37,172.82a2.29,2.29,0,0,0-2.2-2.36" transform="translate(-0.04 0.47)"/><path class="cls-7" d="M244.82,190.2a3.28,3.28,0,1,0-3.11-3.28,3.2,3.2,0,0,0,3.11,3.28" transform="translate(-0.04 0.47)"/><polyline class="cls-7" points="254.53 115.69 272.44 115.69 272.44 157.99 254.53 157.99"/><line class="cls-7" x1="272.44" y1="143.48" x2="272.44" y2="130.21"/><line class="cls-7" x1="258.09" y1="140.41" x2="258.09" y2="138.17"/><line class="cls-7" x1="261.66" y1="136.84" x2="259.42" y2="136.84"/><line class="cls-7" x1="258.09" y1="135.52" x2="258.09" y2="133.28"/><line class="cls-7" x1="256.76" y1="136.84" x2="254.52" y2="136.84"/><path class="cls-7" d="M262.41,125.19a18.88,18.88,0,0,0-8.92-7.32" transform="translate(-0.04 0.47)"/><path class="cls-7" d="M265.12,136.43a18.87,18.87,0,0,0-2.65-11.24" transform="translate(-0.04 0.47)"/><path class="cls-7" d="M253.49,155a18.88,18.88,0,0,0,8.92-7.32" transform="translate(-0.04 0.47)"/><path class="cls-7" d="M262.47,147.64a18.89,18.89,0,0,0,2.65-11.25" transform="translate(-0.04 0.47)"/><path class="cls-7" d="M244,122.1a34.64,34.64,0,0,0-3.49,12.84" transform="translate(-0.04 0.47)"/><path class="cls-7" d="M245.81,153.5a10.72,10.72,0,0,0,8.84,4" transform="translate(-0.04 0.47)"/><path class="cls-7" d="M240.43,134.93a21,21,0,0,0,0,3" transform="translate(-0.04 0.47)"/><path class="cls-7" d="M261.78,148.25a77.06,77.06,0,0,0,0-23.68" transform="translate(-0.04 0.47)"/><path class="cls-7" d="M251.83,156.44a26.55,26.55,0,0,0,17.27-6" transform="translate(-0.04 0.47)"/><path class="cls-7" d="M270.34,148.53a53,53,0,0,0,1.31-12.1" transform="translate(-0.04 0.47)"/><path class="cls-7" d="M269.19,150.5a3.46,3.46,0,0,0,1.21-1.95" transform="translate(-0.04 0.47)"/><path class="cls-7" d="M269.13,148.36a89.82,89.82,0,0,0,.86-11.93" transform="translate(-0.04 0.47)"/><path class="cls-7" d="M251.89,156.52a23.92,23.92,0,0,0,16.13-6" transform="translate(-0.04 0.47)"/><path class="cls-7" d="M268,150.5a3.55,3.55,0,0,0,1.16-2.16" transform="translate(-0.04 0.47)"/><path class="cls-7" d="M268.05,122.3a24,24,0,0,0-16.13-6" transform="translate(-0.04 0.47)"/><path class="cls-7" d="M269.13,122.41a26.55,26.55,0,0,0-17.27-6" transform="translate(-0.04 0.47)"/><path class="cls-7" d="M270,136.44a91.52,91.52,0,0,0-.84-11.93" transform="translate(-0.04 0.47)"/><path class="cls-7" d="M271.65,136.47a53.1,53.1,0,0,0-1.3-12.11" transform="translate(-0.04 0.47)"/><path class="cls-7" d="M269.13,124.49a3.55,3.55,0,0,0-1.16-2.16" transform="translate(-0.04 0.47)"/><path class="cls-7" d="M270.4,124.36a3.54,3.54,0,0,0-1.2-2" transform="translate(-0.04 0.47)"/><path class="cls-7" d="M254.65,115.32a10.72,10.72,0,0,0-8.84,4" transform="translate(-0.04 0.47)"/><path class="cls-7" d="M245.71,119.25a16.81,16.81,0,0,0-1.83,2.82" transform="translate(-0.04 0.47)"/><path class="cls-7" d="M243.88,150.76a16.81,16.81,0,0,0,1.83,2.82" transform="translate(-0.04 0.47)"/><path class="cls-7" d="M240.48,137.89A34.69,34.69,0,0,0,244,150.73" transform="translate(-0.04 0.47)"/><path class="cls-7" d="M243.4,130.59a24.67,24.67,0,0,0,0,11.65" transform="translate(-0.04 0.47)"/><path class="cls-7" d="M253.55,117.89a6.35,6.35,0,0,0-5.24,2.19" transform="translate(-0.04 0.47)"/><path class="cls-7" d="M248.3,120.07a22.88,22.88,0,0,0-4.83,10.54" transform="translate(-0.04 0.47)"/><path class="cls-7" d="M248.31,152.75a6.34,6.34,0,0,0,5.24,2.18" transform="translate(-0.04 0.47)"/><path class="cls-7" d="M243.47,142.22a22.88,22.88,0,0,0,4.83,10.54" transform="translate(-0.04 0.47)"/><path class="cls-7" d="M258.17,139.19a2.78,2.78,0,1,0-2.78-2.78,2.77,2.77,0,0,0,2.78,2.78" transform="translate(-0.04 0.47)"/><path class="cls-7" d="M258.17,138.36a1.95,1.95,0,1,0-1.95-2,1.95,1.95,0,0,0,1.95,2" transform="translate(-0.04 0.47)"/><line class="cls-7" x1="260.41" y1="74.56" x2="232.71" y2="74.56"/><polyline class="cls-7" points="262.07 73.4 272.44 73.4 272.44 103.17"/><line class="cls-7" x1="255.52" y1="88.24" x2="255.52" y2="99.27"/><polyline class="cls-7" points="232.8 74.56 255.52 77.21 255.52 88.24"/><line class="cls-7" x1="232.8" y1="101.93" x2="255.52" y2="99.27"/><line class="cls-7" x1="232.8" y1="75.22" x2="255.52" y2="77.88"/><line class="cls-7" x1="232.8" y1="101.26" x2="255.52" y2="98.61"/><line class="cls-7" x1="260.41" y1="101.93" x2="232.71" y2="101.93"/><line class="cls-7" x1="272.44" y1="103.17" x2="262.07" y2="103.17"/><polyline class="cls-7" points="232.8 74.56 229.73 74.97 226.82 76.14 224.25 77.96 222.18 80.45 220.77 83.35 220.03 86.58 220.03 89.9 220.77 93.14 222.18 96.04 224.25 98.53 226.82 100.44 229.73 101.6 232.8 101.93"/><polyline class="cls-7" points="232.8 75.22 229.89 75.64 227.16 76.72 224.75 78.54 222.76 80.86 221.43 83.68 220.77 86.67 220.77 89.82 221.43 92.89 222.76 95.63 224.75 98.03 227.16 99.77 229.89 100.85 232.8 101.26"/><path class="cls-7" d="M260.41,74.46a126.75,126.75,0,0,0,0,26.7" transform="translate(-0.04 0.47)"/><path class="cls-7" d="M262.15,72.93a1.75,1.75,0,0,0-1.77,1.51" transform="translate(-0.04 0.47)"/><path class="cls-7" d="M260.38,101.17a1.75,1.75,0,0,0,1.77,1.53" transform="translate(-0.04 0.47)"/><path class="cls-7" d="M267.42,87.81A1.45,1.45,0,1,0,266,89.27a1.45,1.45,0,0,0,1.45-1.46" transform="translate(-0.04 0.47)"/><polyline class="cls-7" points="227.82 277.08 227.82 320.21 270.86 320.21 270.86 277.08 227.82 277.08"/><polyline class="cls-7" points="231.72 281.06 231.72 316.31 263.07 316.31 263.07 281.06 231.72 281.06"/><polyline class="cls-7" points="120.59 743.83 120.26 743.75 111.55 785.96 111.96 786.04 120.59 743.83"/><polyline class="cls-7" points="110.06 787.21 110.14 786.87 39.56 772.36 39.48 772.69 110.06 787.21"/><polyline class="cls-7" points="38.23 770.87 38.65 770.95 47.27 728.74 46.94 728.65 38.23 770.87"/><polyline class="cls-7" points="121.42 742.01 119.51 741.59 119.09 743.5 121 743.91 121.42 742.01"/><polyline class="cls-7" points="112.29 786.13 110.39 785.71 109.97 787.62 111.88 788.03 112.29 786.13"/><polyline class="cls-7" points="39.4 773.11 39.81 771.2 37.82 770.78 37.49 772.69 39.4 773.11"/><polyline class="cls-7" points="46.53 728.57 48.44 728.99 48.85 727.08 46.94 726.66 46.53 728.57"/><line class="cls-7" x1="119.26" y1="742.5" x2="110.39" y2="785.71"/><line class="cls-7" x1="111.88" y1="788.03" x2="121.17" y2="742.92"/><line class="cls-7" x1="110.39" y1="785.71" x2="39.81" y2="771.2"/><line class="cls-7" x1="37.49" y1="772.69" x2="111.88" y2="788.03"/><line class="cls-7" x1="39.81" y1="771.2" x2="48.68" y2="727.99"/><line class="cls-7" x1="46.78" y1="727.58" x2="37.49" y2="772.69"/><polyline class="cls-7" points="121.17 742.92 121.42 742.01 119.51 741.59 119.26 742.5"/><polyline class="cls-7" points="48.68 727.99 48.85 727.08 46.94 726.66 46.78 727.58"/><polyline class="cls-7" points="37.49 772.69 111.88 788.03 121.17 742.92 119.26 742.5 110.39 785.71 39.81 771.2 48.68 727.99 46.78 727.58 37.49 772.69"/><polyline class="cls-7" points="44.12 759.67 110.88 773.44 115.94 748.89 49.18 735.12 44.12 759.67"/><polyline class="cls-7" points="44.62 757.18 111.47 770.95 115.94 748.89 49.18 735.12 44.62 757.18"/><polyline class="cls-7" points="0.5 705.76 16.17 705.76 16.17 627.39 0.5 627.39 0.5 705.76"/><polyline class="cls-7" points="0.5 368.81 16.17 368.81 16.17 290.44 0.5 290.44 0.5 368.81"/><polyline class="cls-7" points="274.84 627.39 290.44 627.39 290.44 705.76 274.84 705.76 274.84 627.39"/><polyline class="cls-7" points="274.84 290.44 290.44 290.44 290.44 368.81 274.84 368.81 274.84 290.44"/><polyline class="cls-7" points="274.84 0.5 290.44 0.5 290.44 78.87 274.84 78.87 274.84 0.5"/><polyline class="cls-7" points="0.5 78.87 16.17 78.87 16.17 0.5 0.5 0.5 0.5 78.87"/></svg>