<svg id="_40" data-name="40" xmlns="http://www.w3.org/2000/svg" viewBox="0 0 328.59 669.59"><defs><style>.cls-1{isolation:isolate;font-size:12px;fill:#969696;}.cls-1,.cls-4,.cls-5,.cls-7{font-family:PTSans-Regular, PT Sans;}.cls-2{letter-spacing:-0.01em;}.cls-3,.cls-6,.cls-8,.cls-9{fill:none;stroke-linecap:round;stroke-linejoin:round;}.cls-3{stroke:#969696;stroke-width:0.75px;}.cls-4{font-size:40px;}.cls-5{font-size:40.54px;}.cls-6,.cls-8,.cls-9{stroke:#000;}.cls-6{stroke-width:0.5px;}.cls-7{font-size:36px;}.cls-8{stroke-width:0.25px;stroke-dasharray:1 1;}</style></defs><title>5floor_40flat</title><text class="cls-1" transform="translate(156.15 10.2)"><tspan class="cls-2">у</tspan><tspan x="5.42" y="0">лица</tspan></text><line class="cls-3" x1="145.39" y1="4.22" x2="145.39" y2="13.02"/><polyline class="cls-3" points="148.9 7.72 145.4 4.22 141.9 7.72"/><text class="cls-4" transform="translate(139.63 297.79)">CT</text><text class="cls-5" transform="translate(113.63 347.96)">23.90</text><text class="cls-4" transform="translate(119.89 247.89)">№40</text><polyline class="cls-6" points="99.98 358.78 99.98 209.7 224.31 209.7 224.31 358.78"/><line class="cls-6" x1="99.98" y1="259.49" x2="224.31" y2="259.49"/><line class="cls-6" x1="99.98" y1="358.78" x2="224.31" y2="358.78"/><line class="cls-6" x1="99.98" y1="309.28" x2="224.31" y2="309.28"/><text class="cls-7" transform="translate(207.99 574.32)">3.96</text><text class="cls-7" transform="translate(73.25 563.98)">3.48</text><text class="cls-7" transform="translate(86.15 414.34)">2.20</text><text class="cls-7" transform="translate(123.7 176.02)">14.26</text><line class="cls-8" x1="254.01" y1="491.13" x2="183.51" y2="491.13"/><line class="cls-8" x1="254.01" y1="497.35" x2="183.51" y2="497.35"/><line class="cls-8" x1="251.36" y1="669.05" x2="179.03" y2="669.05"/><line class="cls-8" x1="152.99" y1="526.19" x2="152.99" y2="583.38"/><line class="cls-8" x1="159.29" y1="526.19" x2="159.29" y2="583.38"/><line class="cls-9" x1="159.65" y1="528.02" x2="153.35" y2="528.02"/><line class="cls-9" x1="159.65" y1="582.84" x2="153.35" y2="582.84"/><line class="cls-9" x1="153.35" y1="448.07" x2="153.35" y2="491.2"/><line class="cls-9" x1="153.35" y1="497.42" x2="153.35" y2="528.02"/><polyline class="cls-9" points="153.35 582.84 153.35 653.42 159.65 653.42 159.65 582.84"/><line class="cls-9" x1="159.65" y1="528.02" x2="159.65" y2="497.42"/><line class="cls-9" x1="159.65" y1="491.2" x2="159.65" y2="441.77"/><line class="cls-9" x1="159.65" y1="582.84" x2="153.35" y2="582.84"/><line class="cls-9" x1="159.65" y1="528.02" x2="153.35" y2="528.02"/><line class="cls-9" x1="183.87" y1="497.42" x2="183.87" y2="491.2"/><line class="cls-9" x1="254.44" y1="497.42" x2="254.44" y2="491.2"/><polyline class="cls-9" points="20.16 497.42 20.16 494.35 20.16 491.2"/><polyline class="cls-9" points="51.5 497.42 51.5 494.35 51.5 491.2"/><line class="cls-9" x1="315.57" y1="491.2" x2="254.44" y2="491.2"/><line class="cls-9" x1="183.87" y1="491.2" x2="159.65" y2="491.2"/><line class="cls-9" x1="153.35" y1="491.2" x2="61.62" y2="491.2"/><line class="cls-9" x1="55.4" y1="491.2" x2="51.5" y2="491.2"/><polyline class="cls-9" points="20.16 491.2 16.17 491.2 16.17 497.42 20.16 497.42"/><line class="cls-9" x1="51.5" y1="497.42" x2="153.35" y2="497.42"/><line class="cls-9" x1="159.65" y1="497.42" x2="183.87" y2="497.42"/><polyline class="cls-9" points="254.44 497.42 315.56 497.42 315.56 491.2"/><line class="cls-9" x1="254.44" y1="497.42" x2="254.44" y2="491.2"/><line class="cls-9" x1="183.87" y1="497.42" x2="183.87" y2="491.2"/><line class="cls-8" x1="51.5" y1="497.42" x2="20.16" y2="497.42"/><line class="cls-8" x1="51.5" y1="491.2" x2="20.16" y2="491.2"/><path class="cls-8" d="M49.62,536.52a31.23,31.23,0,0,0,1.88-10.7" transform="translate(0 -28.35)"/><line class="cls-9" x1="20.16" y1="497.42" x2="49.6" y2="508.2"/><polyline class="cls-9" points="51.5 491.2 51.5 494.35 51.5 497.42 51.5 494.35"/><polyline class="cls-9" points="20.16 491.2 20.16 494.35 20.16 497.42 20.16 494.35"/><line class="cls-9" x1="61.62" y1="491.2" x2="61.62" y2="448.07"/><line class="cls-9" x1="55.4" y1="448.07" x2="55.4" y2="491.2"/><polyline class="cls-9" points="159.65 441.77 153.35 441.77 16.17 441.77 16.17 448.07 55.4 448.07"/><line class="cls-9" x1="61.62" y1="448.07" x2="153.35" y2="448.07"/><polyline class="cls-9" points="328.09 669.09 328.09 662.79 328.09 659.64"/><polyline class="cls-9" points="328.09 659.64 328.09 662.79 328.09 669.09 328.09 662.79"/><line class="cls-9" x1="328.09" y1="97.76" x2="328.09" y2="97.76"/><line class="cls-9" x1="328.09" y1="98.59" x2="328.09" y2="98.59"/><line class="cls-9" x1="328.09" y1="129.94" x2="328.09" y2="129.94"/><line class="cls-9" x1="328.09" y1="88.39" x2="328.09" y2="88.39"/><line class="cls-9" x1="328.09" y1="97.76" x2="230.89" y2="97.76"/><line class="cls-9" x1="77.3" y1="97.76" x2="0.5" y2="97.76"/><line class="cls-9" x1="328.09" y1="98.59" x2="234.04" y2="98.59"/><line class="cls-9" x1="74.23" y1="98.59" x2="0.5" y2="98.59"/><line class="cls-9" x1="0.5" y1="103.32" x2="0.5" y2="129.94"/><line class="cls-9" x1="0.5" y1="88.39" x2="0.5" y2="97.76"/><line class="cls-9" x1="0.5" y1="98.59" x2="0.5" y2="103.32"/><line class="cls-9" x1="74.23" y1="103.32" x2="74.23" y2="129.94"/><line class="cls-9" x1="77.3" y1="88.39" x2="77.3" y2="97.76"/><line class="cls-9" x1="74.23" y1="98.59" x2="74.23" y2="103.32"/><line class="cls-9" x1="234.04" y1="103.32" x2="234.04" y2="129.94"/><line class="cls-9" x1="230.89" y1="88.39" x2="230.89" y2="97.76"/><line class="cls-9" x1="234.04" y1="98.59" x2="234.04" y2="103.32"/><line class="cls-9" x1="0.5" y1="129.94" x2="74.23" y2="129.94"/><line class="cls-9" x1="234.04" y1="129.94" x2="328.09" y2="129.94"/><polyline class="cls-9" points="230.89 88.39 328.09 88.39 328.09 156.76"/><line class="cls-9" x1="77.3" y1="88.39" x2="0.5" y2="88.39"/><polyline class="cls-9" points="0.5 103.32 0.5 98.59 0.5 103.32"/><polyline class="cls-9" points="0.5 98.59 0.5 98.59 0.5 98.59"/><polyline class="cls-9" points="0.5 88.39 0.5 97.76 0.5 98.59"/><line class="cls-9" x1="0.5" y1="103.32" x2="0.5" y2="129.94"/><polyline class="cls-9" points="77.3 88.39 230.89 88.39 230.89 84.49 77.3 84.49 77.3 88.39"/><line class="cls-9" x1="234.04" y1="129.94" x2="74.23" y2="129.94"/><polyline class="cls-9" points="234.04 103.32 229.73 103.32 229.73 100.17 227.82 100.17 227.82 98.59 234.04 98.59"/><polyline class="cls-9" points="179.72 98.59 182.87 98.59 182.87 100.17 180.88 100.17 180.88 103.32 179.72 103.32"/><line class="cls-9" x1="182.87" y1="98.59" x2="227.82" y2="98.59"/><polyline class="cls-9" points="229.73 104.81 225.08 104.81 185.61 104.81"/><polyline class="cls-9" points="225.08 104.81 225.08 100.17 229.73 100.17 229.73 104.81"/><polyline class="cls-9" points="180.88 100.17 185.61 100.17 185.61 104.81 180.88 104.81 180.88 100.17"/><line class="cls-9" x1="185.61" y1="100.17" x2="225.08" y2="100.17"/><line class="cls-9" x1="225.08" y1="104.81" x2="185.61" y2="104.81"/><line class="cls-9" x1="225.08" y1="102.49" x2="185.61" y2="102.49"/><polyline class="cls-9" points="179.72 103.32 178.56 103.32 178.56 100.17 176.57 100.17 176.57 98.59 179.72 98.59"/><polyline class="cls-9" points="128.55 98.59 131.7 98.59 131.7 100.17 129.71 100.17 129.71 103.32 128.55 103.32"/><line class="cls-9" x1="131.7" y1="98.59" x2="176.57" y2="98.59"/><polyline class="cls-9" points="178.56 104.81 173.83 104.81 134.44 104.81"/><polyline class="cls-9" points="173.83 104.81 173.83 100.17 178.56 100.17 178.56 104.81"/><polyline class="cls-9" points="129.71 100.17 134.44 100.17 134.44 104.81 129.71 104.81 129.71 100.17"/><line class="cls-9" x1="134.44" y1="100.17" x2="173.83" y2="100.17"/><line class="cls-9" x1="173.83" y1="104.81" x2="134.44" y2="104.81"/><line class="cls-9" x1="173.83" y1="102.49" x2="134.44" y2="102.49"/><polyline class="cls-9" points="128.55 103.32 127.39 103.32 127.39 100.17 125.4 100.17 125.4 98.59 128.55 98.59"/><polyline class="cls-9" points="74.23 98.59 80.45 98.59 80.45 100.17 78.54 100.17 78.54 103.32 74.23 103.32"/><line class="cls-9" x1="80.45" y1="98.59" x2="125.4" y2="98.59"/><polyline class="cls-9" points="127.39 104.81 122.66 104.81 83.19 104.81"/><polyline class="cls-9" points="122.66 104.81 122.66 100.17 127.39 100.17 127.39 104.81"/><polyline class="cls-9" points="78.54 100.17 83.19 100.17 83.19 104.81 78.54 104.81 78.54 100.17"/><line class="cls-9" x1="83.18" y1="100.17" x2="122.66" y2="100.17"/><line class="cls-9" x1="122.66" y1="104.81" x2="83.18" y2="104.81"/><line class="cls-9" x1="122.66" y1="102.49" x2="83.18" y2="102.49"/><polyline class="cls-9" points="234.04 103.32 234.04 98.59 234.04 103.32"/><polyline class="cls-9" points="234.04 98.59 230.89 98.59 234.04 98.59"/><polyline class="cls-9" points="230.89 88.39 230.89 97.76 230.89 98.59"/><line class="cls-9" x1="234.04" y1="103.32" x2="234.04" y2="129.94"/><polyline class="cls-9" points="74.23 103.32 74.23 98.59 74.23 103.32"/><polyline class="cls-9" points="74.23 98.59 77.3 98.59 74.23 98.59"/><polyline class="cls-9" points="77.3 88.39 77.3 97.76 77.3 98.59"/><line class="cls-9" x1="74.23" y1="103.32" x2="74.23" y2="129.94"/><polyline class="cls-9" points="16.17 653.42 16.17 137.74 0.5 137.74 0.5 661.26"/><line class="cls-9" x1="0.5" y1="653.42" x2="0.5" y2="669.09"/><polyline class="cls-9" points="176.07 653.42 176.07 662.79 176.07 669.09"/><polyline class="cls-9" points="254.44 653.42 254.44 662.79 254.44 669.09"/><polyline class="cls-9" points="0.5 669.09 16.17 669.09 176.07 669.09"/><polyline class="cls-9" points="254.44 669.09 315.56 669.09 315.56 653.42 254.44 653.42"/><line class="cls-9" x1="176.07" y1="653.42" x2="16.17" y2="653.42"/><polyline class="cls-9" points="254.44 669.09 254.19 669.09 254.11 669.09 254.03 669.09 253.78 669.09"/><line class="cls-9" x1="253.7" y1="669.09" x2="253.7" y2="669.09"/><line class="cls-9" x1="253.61" y1="669.09" x2="253.61" y2="669.09"/><line class="cls-9" x1="253.53" y1="669.09" x2="253.28" y2="669.09"/><line class="cls-9" x1="253.2" y1="669.09" x2="253.2" y2="669.09"/><line class="cls-9" x1="253.12" y1="669.09" x2="252.87" y2="669.09"/><line class="cls-9" x1="252.78" y1="669.09" x2="252.78" y2="669.09"/><line class="cls-9" x1="252.7" y1="669.09" x2="252.45" y2="669.09"/><line class="cls-9" x1="252.37" y1="669.09" x2="252.37" y2="669.09"/><line class="cls-9" x1="252.29" y1="669.09" x2="252.29" y2="669.09"/><polyline class="cls-9" points="252.2 669.09 251.96 669.09 251.87 669.09 251.79 669.09 251.54 669.09"/><line class="cls-9" x1="251.46" y1="669.09" x2="251.46" y2="669.09"/><line class="cls-9" x1="251.37" y1="669.09" x2="251.37" y2="669.09"/><line class="cls-9" x1="251.29" y1="669.09" x2="251.13" y2="669.09"/><line class="cls-9" x1="179.55" y1="669.09" x2="179.55" y2="669.09"/><line class="cls-9" x1="179.47" y1="669.09" x2="179.47" y2="669.09"/><polyline class="cls-9" points="179.39 669.09 179.14 669.09 179.06 669.09"/><line class="cls-9" x1="178.97" y1="669.09" x2="178.72" y2="669.09"/><line class="cls-9" x1="178.64" y1="669.09" x2="178.64" y2="669.09"/><line class="cls-9" x1="178.56" y1="669.09" x2="178.56" y2="669.09"/><line class="cls-9" x1="178.48" y1="669.09" x2="178.31" y2="669.09"/><line class="cls-9" x1="178.23" y1="669.09" x2="178.23" y2="669.09"/><line class="cls-9" x1="178.14" y1="669.09" x2="178.14" y2="669.09"/><polyline class="cls-9" points="178.06 669.09 177.81 669.09 177.73 669.09 177.65 669.09 177.4 669.09"/><line class="cls-9" x1="177.31" y1="669.09" x2="177.31" y2="669.09"/><line class="cls-9" x1="177.23" y1="669.09" x2="177.23" y2="669.09"/><line class="cls-9" x1="177.15" y1="669.09" x2="176.9" y2="669.09"/><line class="cls-9" x1="176.82" y1="669.09" x2="176.82" y2="669.09"/><line class="cls-9" x1="176.73" y1="669.09" x2="176.49" y2="669.09"/><line class="cls-9" x1="176.4" y1="669.09" x2="176.4" y2="669.09"/><line class="cls-9" x1="176.32" y1="669.09" x2="176.07" y2="669.09"/><path class="cls-9" d="M251.37,691.19a72.11,72.11,0,0,0-72.11-72.12" transform="translate(0 -28.35)"/><polyline class="cls-9" points="254.44 669.09 251.29 669.09 251.29 662.79 254.44 662.79 254.44 669.09"/><polyline class="cls-9" points="176.07 662.79 179.22 662.79 179.22 669.09 176.07 669.09 176.07 662.79"/><line class="cls-9" x1="179.22" y1="662.79" x2="179.22" y2="590.72"/><polyline class="cls-9" points="254.44 669.09 254.44 662.79 254.44 669.09"/><line class="cls-9" x1="254.44" y1="653.42" x2="254.44" y2="662.79"/><polyline class="cls-9" points="176.07 669.09 176.07 662.79 176.07 669.09"/><line class="cls-9" x1="176.07" y1="653.42" x2="176.07" y2="662.79"/><line class="cls-9" x1="22.23" y1="642.39" x2="22.23" y2="602.41"/><line class="cls-9" x1="26.62" y1="597.77" x2="123.66" y2="597.77"/><line class="cls-9" x1="26.62" y1="647.12" x2="123.66" y2="647.12"/><line class="cls-9" x1="151.02" y1="593.04" x2="17.75" y2="593.04"/><polyline class="cls-9" points="151.03 593.04 151.03 651.84 17.75 651.84 17.75 593.04"/><line class="cls-9" x1="108.07" y1="638.91" x2="32.18" y2="638.91"/><line class="cls-9" x1="29.94" y1="636.58" x2="29.94" y2="608.3"/><line class="cls-9" x1="108.07" y1="605.9" x2="32.18" y2="605.9"/><line class="cls-9" x1="45.53" y1="623.89" x2="45.53" y2="626.8"/><line class="cls-9" x1="44.12" y1="622.4" x2="41.39" y2="622.4"/><line class="cls-9" x1="45.53" y1="620.99" x2="45.53" y2="618.09"/><line class="cls-9" x1="46.86" y1="622.4" x2="49.6" y2="622.4"/><path class="cls-9" d="M123.7,675.47c12.89,0,23.34-11.05,23.34-24.67s-10.45-24.68-23.34-24.68" transform="translate(0 -28.35)"/><path class="cls-9" d="M26.67,626.12a4.57,4.57,0,0,0-4.44,4.69" transform="translate(0 -28.35)"/><path class="cls-9" d="M22.23,670.78a4.57,4.57,0,0,0,4.44,4.69" transform="translate(0 -28.35)"/><path class="cls-9" d="M45.57,653.24a2.45,2.45,0,1,0-2.28-2.44,2.37,2.37,0,0,0,2.28,2.44" transform="translate(0 -28.35)"/><path class="cls-9" d="M108.11,667.34c8.58,0,15.55-7.41,15.55-16.54s-7-16.55-15.55-16.55" transform="translate(0 -28.35)"/><path class="cls-9" d="M30,665a2.29,2.29,0,0,0,2.2,2.36" transform="translate(0 -28.35)"/><path class="cls-9" d="M32.22,634.33A2.29,2.29,0,0,0,30,636.7" transform="translate(0 -28.35)"/><path class="cls-9" d="M45.57,654.07a3.28,3.28,0,1,0-3.11-3.27,3.19,3.19,0,0,0,3.11,3.27" transform="translate(0 -28.35)"/><polyline class="cls-9" points="35.66 550.75 17.75 550.75 17.75 593.04 35.66 593.04"/><line class="cls-9" x1="17.75" y1="578.53" x2="17.75" y2="565.26"/><line class="cls-9" x1="32.1" y1="575.46" x2="32.1" y2="573.22"/><line class="cls-9" x1="28.53" y1="571.89" x2="30.85" y2="571.89"/><line class="cls-9" x1="32.1" y1="570.57" x2="32.1" y2="568.33"/><line class="cls-9" x1="33.42" y1="571.89" x2="35.66" y2="571.89"/><path class="cls-9" d="M36.82,581.75a18.85,18.85,0,0,0-8.92,7.31" transform="translate(0 -28.35)"/><path class="cls-9" d="M27.92,589.06a18.82,18.82,0,0,0-2.64,11.25" transform="translate(0 -28.35)"/><path class="cls-9" d="M27.9,611.52a18.85,18.85,0,0,0,8.92,7.31" transform="translate(0 -28.35)"/><path class="cls-9" d="M25.28,600.27a18.82,18.82,0,0,0,2.64,11.25" transform="translate(0 -28.35)"/><path class="cls-9" d="M49.83,598.82A34.58,34.58,0,0,0,46.34,586" transform="translate(0 -28.35)"/><path class="cls-9" d="M35.74,621.39a10.78,10.78,0,0,0,8.84-4" transform="translate(0 -28.35)"/><path class="cls-9" d="M50,601.77a20.89,20.89,0,0,0,0-3" transform="translate(0 -28.35)"/><path class="cls-9" d="M28.62,588.45a77,77,0,0,0,0,23.67" transform="translate(0 -28.35)"/><path class="cls-9" d="M21.21,614.32a26.56,26.56,0,0,0,17.27,6" transform="translate(0 -28.35)"/><path class="cls-9" d="M18.66,600.3A53,53,0,0,0,20,612.41" transform="translate(0 -28.35)"/><path class="cls-9" d="M20,612.43a3.55,3.55,0,0,0,1.21,2" transform="translate(0 -28.35)"/><path class="cls-9" d="M20.32,600.3a91.69,91.69,0,0,0,.86,11.94" transform="translate(0 -28.35)"/><path class="cls-9" d="M22.37,614.42a23.89,23.89,0,0,0,16.14,6" transform="translate(0 -28.35)"/><path class="cls-9" d="M21.18,612.22a3.58,3.58,0,0,0,1.16,2.16" transform="translate(0 -28.35)"/><path class="cls-9" d="M38.48,580.18a23.91,23.91,0,0,0-16.13,6" transform="translate(0 -28.35)"/><path class="cls-9" d="M38.45,580.26a26.6,26.6,0,0,0-17.27,6" transform="translate(0 -28.35)"/><path class="cls-9" d="M21.16,588.39a91.36,91.36,0,0,0-.84,11.92" transform="translate(0 -28.35)"/><path class="cls-9" d="M20,588.24a53,53,0,0,0-1.3,12.11" transform="translate(0 -28.35)"/><path class="cls-9" d="M22.34,586.2a3.58,3.58,0,0,0-1.16,2.16" transform="translate(0 -28.35)"/><path class="cls-9" d="M21.2,586.28a3.58,3.58,0,0,0-1.21,2" transform="translate(0 -28.35)"/><path class="cls-9" d="M44.58,583.2a10.75,10.75,0,0,0-8.84-4" transform="translate(0 -28.35)"/><path class="cls-9" d="M46.43,585.94a16.72,16.72,0,0,0-1.83-2.81" transform="translate(0 -28.35)"/><path class="cls-9" d="M44.6,617.45a16.72,16.72,0,0,0,1.83-2.81" transform="translate(0 -28.35)"/><path class="cls-9" d="M46.34,614.6a34.58,34.58,0,0,0,3.49-12.84" transform="translate(0 -28.35)"/><path class="cls-9" d="M46.91,606.12a24.71,24.71,0,0,0,0-11.66" transform="translate(0 -28.35)"/><path class="cls-9" d="M42.08,584a6.32,6.32,0,0,0-5.23-2.18" transform="translate(0 -28.35)"/><path class="cls-9" d="M46.84,594.48A22.92,22.92,0,0,0,42,583.94" transform="translate(0 -28.35)"/><path class="cls-9" d="M36.85,618.81a6.32,6.32,0,0,0,5.23-2.18" transform="translate(0 -28.35)"/><path class="cls-9" d="M42,616.63a22.89,22.89,0,0,0,4.83-10.53" transform="translate(0 -28.35)"/><path class="cls-9" d="M32.14,603.07a2.78,2.78,0,1,0-2.78-2.78,2.79,2.79,0,0,0,2.78,2.78" transform="translate(0 -28.35)"/><path class="cls-9" d="M32.14,602.24a2,2,0,1,0-1.95-2,1.95,1.95,0,0,0,1.95,2" transform="translate(0 -28.35)"/><line class="cls-9" x1="29.86" y1="513.51" x2="57.48" y2="513.51"/><polyline class="cls-9" points="28.12 512.35 17.75 512.35 17.75 542.12"/><line class="cls-9" x1="34.67" y1="527.19" x2="34.67" y2="538.31"/><polyline class="cls-9" points="57.48 513.51 34.67 516.16 34.67 527.19"/><line class="cls-9" x1="57.48" y1="540.96" x2="34.67" y2="538.31"/><line class="cls-9" x1="57.48" y1="514.26" x2="34.67" y2="516.91"/><line class="cls-9" x1="57.48" y1="540.21" x2="34.67" y2="537.56"/><line class="cls-9" x1="29.78" y1="540.96" x2="57.48" y2="540.96"/><line class="cls-9" x1="17.75" y1="542.12" x2="28.12" y2="542.12"/><polyline class="cls-9" points="57.48 513.51 60.54 513.92 63.45 515.09 65.94 516.91 68.01 519.4 69.42 522.38 70.16 525.53 70.16 528.85 69.42 532.09 68.01 534.99 65.94 537.48 63.45 539.38 60.54 540.55 57.48 540.96"/><polyline class="cls-9" points="57.48 514.26 60.38 514.59 63.12 515.67 65.52 517.49 67.43 519.81 68.75 522.63 69.5 525.62 69.5 528.77 68.75 531.84 67.43 534.58 65.52 536.98 63.12 538.72 60.38 539.88 57.48 540.21"/><path class="cls-9" d="M29.9,568.93a126.66,126.66,0,0,0,0-26.69" transform="translate(0 -28.35)"/><path class="cls-9" d="M29.93,542.3a1.76,1.76,0,0,0-1.77-1.52" transform="translate(0 -28.35)"/><path class="cls-9" d="M28.16,570.47A1.75,1.75,0,0,0,29.93,569" transform="translate(0 -28.35)"/><path class="cls-9" d="M25.79,555.59A1.45,1.45,0,1,0,24.34,557a1.45,1.45,0,0,0,1.45-1.45" transform="translate(0 -28.35)"/><polyline class="cls-9" points="61.62 394.83 61.62 437.87 18.58 437.87 18.58 394.83 61.62 394.83"/><polyline class="cls-9" points="22.48 398.73 57.72 398.73 57.72 430.08 22.48 430.08 22.48 398.73"/><polyline class="cls-9" points="155.34 86.4 155.67 86.4 155.67 43.36 155.34 43.36 155.34 86.4"/><polyline class="cls-9" points="156.83 41.78 156.83 42.2 228.98 42.2 228.98 41.78 156.83 41.78"/><polyline class="cls-9" points="230.56 43.36 230.14 43.36 230.14 86.4 230.56 86.4 230.56 43.36"/><polyline class="cls-9" points="154.92 88.39 156.83 88.39 156.83 86.4 154.92 86.4 154.92 88.39"/><polyline class="cls-9" points="154.92 43.36 156.83 43.36 156.83 41.37 154.92 41.37 154.92 43.36"/><polyline class="cls-9" points="228.98 41.37 228.98 43.36 230.89 43.36 230.89 41.37 228.98 41.37"/><polyline class="cls-9" points="230.89 86.4 228.98 86.4 228.98 88.39 230.89 88.39 230.89 86.4"/><line class="cls-9" x1="156.83" y1="87.4" x2="156.83" y2="43.36"/><line class="cls-9" x1="154.92" y1="41.37" x2="154.92" y2="87.4"/><line class="cls-9" x1="156.83" y1="43.36" x2="228.98" y2="43.36"/><line class="cls-9" x1="230.89" y1="41.37" x2="154.92" y2="41.37"/><line class="cls-9" x1="228.98" y1="43.36" x2="228.98" y2="87.4"/><line class="cls-9" x1="230.89" y1="87.4" x2="230.89" y2="41.37"/><polyline class="cls-9" points="154.92 87.4 154.92 88.39 156.83 88.39 156.83 87.4"/><polyline class="cls-9" points="228.98 87.4 228.98 88.39 230.89 88.39 230.89 87.4"/><polyline class="cls-9" points="230.89 41.37 154.92 41.37 154.92 87.4 156.83 87.4 156.83 43.36 228.98 43.36 228.98 87.4 230.89 87.4 230.89 41.37"/><polyline class="cls-9" points="226.99 55.47 158.82 55.47 158.82 80.6 226.99 80.6 226.99 55.47"/><polyline class="cls-9" points="226.99 57.95 158.82 57.95 158.82 80.6 226.99 80.6 226.99 57.95"/><polyline class="cls-9" points="315.56 129.94 315.56 669.09 328.09 669.09 328.09 129.94 315.56 129.94"/><polyline class="cls-9" points="328.09 192.64 315.56 192.64 315.56 114.27 328.09 114.27 328.09 192.64"/><polyline class="cls-9" points="0.5 114.27 16.17 114.27 16.17 192.64 0.5 192.64 0.5 114.27"/><polyline class="cls-9" points="0.5 361.08 16.17 361.08 16.17 478.68 0.5 478.68 0.5 361.08"/></svg>