<svg id="_627" data-name="627" xmlns="http://www.w3.org/2000/svg" viewBox="0 0 323.73 720.57"><defs><style>.cls-1{isolation:isolate;font-size:12px;fill:#969696;}.cls-1,.cls-10,.cls-7,.cls-8{font-family:PTSans-Regular, PT Sans;}.cls-2{letter-spacing:-0.01em;}.cls-11,.cls-12,.cls-13,.cls-3,.cls-4,.cls-5,.cls-6,.cls-9{fill:none;stroke-linecap:round;stroke-linejoin:round;}.cls-3{stroke:#969696;stroke-width:0.75px;}.cls-11,.cls-12,.cls-13,.cls-4,.cls-5,.cls-6,.cls-9{stroke:#000;}.cls-4,.cls-5,.cls-6{stroke-width:0.25px;}.cls-5{stroke-dasharray:1 1;}.cls-6{stroke-dasharray:1 1;}.cls-7{font-size:40.03px;}.cls-8{font-size:40.57px;}.cls-12,.cls-13,.cls-9{stroke-width:0.5px;}.cls-10{font-size:36.03px;}.cls-12{stroke-dasharray:3.06 3.06;}.cls-13{stroke-dasharray:2.95 2.95;}</style></defs><title>11floor_627flat</title><text class="cls-1" transform="translate(153.73 717.63)"><tspan class="cls-2">у</tspan><tspan x="5.42" y="0">лица</tspan></text><line class="cls-3" x1="142.97" y1="719.45" x2="142.97" y2="710.65"/><polyline class="cls-3" points="139.47 715.95 142.97 719.45 146.47 715.95"/><line class="cls-4" x1="21.33" y1="0.46" x2="21.83" y2="0.46"/><line class="cls-5" x1="22.83" y1="0.46" x2="118.3" y2="0.46"/><line class="cls-4" x1="118.8" y1="0.46" x2="119.3" y2="0.46"/><line class="cls-4" x1="145.82" y1="177.05" x2="145.82" y2="176.55"/><line class="cls-5" x1="145.82" y1="175.55" x2="145.82" y2="80.07"/><line class="cls-4" x1="145.82" y1="79.57" x2="145.82" y2="79.07"/><line class="cls-4" x1="153.55" y1="177.05" x2="153.55" y2="176.55"/><line class="cls-5" x1="153.55" y1="175.55" x2="153.55" y2="80.07"/><line class="cls-4" x1="153.55" y1="79.57" x2="153.55" y2="79.07"/><line class="cls-4" x1="31.75" y1="195.84" x2="32.25" y2="195.84"/><line class="cls-6" x1="33.25" y1="195.84" x2="112.95" y2="195.84"/><line class="cls-4" x1="113.46" y1="195.84" x2="113.96" y2="195.84"/><line class="cls-4" x1="31.75" y1="202.86" x2="32.25" y2="202.86"/><line class="cls-6" x1="33.25" y1="202.86" x2="112.95" y2="202.86"/><line class="cls-4" x1="113.46" y1="202.86" x2="113.96" y2="202.86"/><text class="cls-7" transform="translate(140.21 444.41)">CT</text><text class="cls-8" transform="translate(114.19 494.62)">19.99</text><text class="cls-7" transform="translate(109.55 394.46)">№627</text><polyline class="cls-9" points="100.53 505.44 100.53 356.24 224.96 356.24 224.96 505.44"/><line class="cls-9" x1="100.53" y1="406.07" x2="224.96" y2="406.07"/><line class="cls-9" x1="100.53" y1="505.44" x2="224.96" y2="505.44"/><line class="cls-9" x1="100.53" y1="455.9" x2="224.96" y2="455.9"/><text class="cls-10" transform="translate(49.21 144.42)">3.00</text><text class="cls-10" transform="translate(164.93 327.16)">2.20</text><text class="cls-10" transform="translate(119.62 559.99)">11.22</text><text class="cls-10" transform="translate(178.32 144.42)">3.57</text><line class="cls-11" x1="146.17" y1="157.44" x2="153.19" y2="157.44"/><line class="cls-11" x1="146.17" y1="96.42" x2="153.19" y2="96.42"/><line class="cls-11" x1="153.19" y1="242.09" x2="153.19" y2="202.86"/><line class="cls-11" x1="153.19" y1="195.84" x2="153.19" y2="157.44"/><polyline class="cls-11" points="153.19 96.42 153.19 17.95 146.17 17.95 146.17 96.42"/><line class="cls-11" x1="146.17" y1="157.44" x2="146.17" y2="195.84"/><line class="cls-11" x1="146.17" y1="202.86" x2="146.17" y2="249.11"/><line class="cls-11" x1="146.17" y1="96.42" x2="153.19" y2="96.42"/><line class="cls-11" x1="146.17" y1="157.44" x2="153.19" y2="157.44"/><line class="cls-11" x1="113.96" y1="195.84" x2="113.96" y2="202.86"/><line class="cls-11" x1="35.4" y1="195.84" x2="35.4" y2="202.86"/><polyline class="cls-11" points="301.45 195.84 301.45 199.35 301.45 202.85"/><polyline class="cls-11" points="266.55 195.84 266.55 199.35 266.55 202.85"/><line class="cls-11" x1="17.95" y1="202.86" x2="35.4" y2="202.86"/><line class="cls-11" x1="113.96" y1="202.86" x2="146.17" y2="202.86"/><line class="cls-11" x1="153.19" y1="202.86" x2="255.2" y2="202.86"/><line class="cls-11" x1="262.21" y1="202.86" x2="266.55" y2="202.86"/><polyline class="cls-11" points="301.45 202.85 305.79 202.85 305.79 195.84 301.45 195.84"/><line class="cls-11" x1="266.55" y1="195.84" x2="153.19" y2="195.84"/><line class="cls-11" x1="146.17" y1="195.84" x2="113.96" y2="195.84"/><polyline class="cls-11" points="35.4 195.84 17.95 195.84 17.95 202.85"/><line class="cls-11" x1="35.4" y1="195.84" x2="35.4" y2="202.86"/><line class="cls-11" x1="113.96" y1="195.84" x2="113.96" y2="202.86"/><line class="cls-11" x1="266.55" y1="195.84" x2="301.45" y2="195.84"/><line class="cls-11" x1="266.55" y1="202.86" x2="301.45" y2="202.86"/><path class="cls-11" d="M268.74,183.42a34.84,34.84,0,0,0-2.1,11.92" transform="translate(0 0.46)"/><line class="cls-11" x1="301.45" y1="195.84" x2="268.68" y2="183.93"/><polyline class="cls-11" points="266.55 202.85 266.55 199.35 266.55 195.84 266.55 199.35"/><polyline class="cls-11" points="301.45 202.85 301.45 199.35 301.45 195.84 301.45 199.35"/><line class="cls-11" x1="255.2" y1="202.86" x2="255.2" y2="242.09"/><line class="cls-11" x1="262.21" y1="242.09" x2="262.21" y2="202.86"/><polyline class="cls-11" points="146.17 249.1 153.19 249.1 305.79 249.1 305.79 242.09 262.21 242.09"/><line class="cls-11" x1="255.2" y1="242.09" x2="153.19" y2="242.09"/><line class="cls-11" x1="0.5" y1="618.92" x2="82.48" y2="618.92"/><line class="cls-11" x1="253.44" y1="618.92" x2="323.23" y2="618.92"/><line class="cls-11" x1="0.5" y1="618" x2="79.06" y2="618"/><line class="cls-11" x1="256.95" y1="618" x2="323.23" y2="618"/><line class="cls-11" x1="256.95" y1="612.83" x2="256.95" y2="583.19"/><line class="cls-11" x1="253.44" y1="629.35" x2="253.44" y2="618.92"/><line class="cls-11" x1="256.95" y1="618" x2="256.95" y2="612.83"/><line class="cls-11" x1="79.06" y1="612.83" x2="79.06" y2="583.19"/><line class="cls-11" x1="82.48" y1="629.35" x2="82.48" y2="618.92"/><line class="cls-11" x1="79.06" y1="618" x2="79.06" y2="612.83"/><line class="cls-11" x1="323.23" y1="583.19" x2="256.95" y2="583.19"/><line class="cls-11" x1="79.06" y1="583.19" x2="0.5" y2="583.19"/><polyline class="cls-11" points="82.48 629.35 0.5 629.35 0.5 505.44"/><polyline class="cls-11" points="253.44 629.35 323.24 629.35 323.24 585.78"/><polyline class="cls-11" points="253.44 629.35 82.48 629.35 82.48 633.78 253.44 633.78 253.44 629.35"/><line class="cls-11" x1="79.06" y1="583.19" x2="256.95" y2="583.19"/><polyline class="cls-11" points="79.06 612.83 83.86 612.83 83.86 616.34 85.98 616.34 85.98 618 79.06 618"/><polyline class="cls-11" points="139.53 618 136.02 618 136.02 616.34 138.24 616.34 138.24 612.83 139.53 612.83"/><line class="cls-11" x1="136.02" y1="618" x2="85.98" y2="618"/><polyline class="cls-11" points="83.86 611.07 89.03 611.07 132.97 611.07"/><polyline class="cls-11" points="89.03 611.07 89.03 616.34 83.86 616.34 83.86 611.07"/><polyline class="cls-11" points="138.24 616.34 132.97 616.34 132.97 611.07 138.24 611.07 138.24 616.34"/><line class="cls-11" x1="132.97" y1="616.34" x2="89.03" y2="616.34"/><line class="cls-11" x1="89.03" y1="611.07" x2="132.97" y2="611.07"/><line class="cls-11" x1="89.03" y1="613.66" x2="132.97" y2="613.66"/><polyline class="cls-11" points="139.53 612.83 140.82 612.83 140.82 616.34 143.03 616.34 143.03 618 139.53 618"/><polyline class="cls-11" points="196.49 618 192.98 618 192.98 616.34 195.19 616.34 195.19 612.83 196.49 612.83"/><line class="cls-11" x1="192.98" y1="618" x2="143.03" y2="618"/><polyline class="cls-11" points="140.82 611.07 146.08 611.07 189.93 611.07"/><polyline class="cls-11" points="146.08 611.07 146.08 616.34 140.82 616.34 140.82 611.07"/><polyline class="cls-11" points="195.19 616.34 189.93 616.34 189.93 611.07 195.19 611.07 195.19 616.34"/><line class="cls-11" x1="189.93" y1="616.34" x2="146.08" y2="616.34"/><line class="cls-11" x1="146.08" y1="611.07" x2="189.93" y2="611.07"/><line class="cls-11" x1="146.08" y1="613.66" x2="189.93" y2="613.66"/><polyline class="cls-11" points="196.49 612.83 197.78 612.83 197.78 616.34 199.99 616.34 199.99 618 196.49 618"/><polyline class="cls-11" points="256.95 618 250.03 618 250.03 616.34 252.15 616.34 252.15 612.83 256.95 612.83"/><line class="cls-11" x1="250.03" y1="618" x2="199.99" y2="618"/><polyline class="cls-11" points="197.78 611.07 203.04 611.07 246.98 611.07"/><polyline class="cls-11" points="203.04 611.07 203.04 616.34 197.78 616.34 197.78 611.07"/><polyline class="cls-11" points="252.15 616.34 246.98 616.34 246.98 611.07 252.15 611.07 252.15 616.34"/><line class="cls-11" x1="246.98" y1="616.34" x2="203.04" y2="616.34"/><line class="cls-11" x1="203.04" y1="611.07" x2="246.98" y2="611.07"/><line class="cls-11" x1="203.04" y1="613.66" x2="246.98" y2="613.66"/><polyline class="cls-11" points="79.06 612.83 79.06 618 79.06 612.83"/><polyline class="cls-11" points="79.06 618 82.48 618 79.06 618"/><polyline class="cls-11" points="82.48 629.35 82.48 618.92 82.48 618"/><line class="cls-11" x1="79.06" y1="612.83" x2="79.06" y2="583.19"/><polyline class="cls-11" points="256.95 612.83 256.95 618 256.95 612.83"/><polyline class="cls-11" points="256.95 618 253.44 618 256.95 618"/><polyline class="cls-11" points="253.44 629.35 253.44 618.92 253.44 618"/><line class="cls-11" x1="256.95" y1="612.83" x2="256.95" y2="583.19"/><polyline class="cls-11" points="26.72 0.5 26.72 7.42 26.72 17.95"/><polyline class="cls-11" points="113.96 0.5 113.96 7.42 113.96 17.95"/><line class="cls-11" x1="323.23" y1="0.5" x2="113.96" y2="0.5"/><line class="cls-11" x1="26.72" y1="0.5" x2="0.5" y2="0.5"/><line class="cls-11" x1="17.95" y1="17.95" x2="26.72" y2="17.95"/><line class="cls-11" x1="113.96" y1="17.95" x2="305.79" y2="17.95"/><line class="cls-11" x1="323.23" y1="0.5" x2="323.23" y2="0.5"/><line class="cls-11" x1="26.99" y1="0.5" x2="26.99" y2="0.5"/><line class="cls-11" x1="26.9" y1="0.5" x2="26.72" y2="0.5"/><line class="cls-11" x1="26.99" y1="17.95" x2="26.99" y2="17.95"/><line class="cls-11" x1="26.9" y1="17.95" x2="26.72" y2="17.95"/><path class="cls-11" d="M30.18,87.19A80.27,80.27,0,0,0,110.45,6.92" transform="translate(0 0.46)"/><polyline class="cls-11" points="113.96 0.5 110.45 0.5 110.45 7.42 113.96 7.42 113.96 0.5"/><polyline class="cls-11" points="26.72 7.42 30.13 7.42 30.13 0.5 26.72 0.5 26.72 7.42"/><line class="cls-11" x1="30.13" y1="7.42" x2="30.13" y2="87.74"/><polyline class="cls-11" points="113.96 17.95 113.96 7.42 113.96 0.5 113.96 7.42"/><polyline class="cls-11" points="26.72 17.95 26.72 7.42 26.72 0.5 26.72 7.42"/><polyline class="cls-11" points="305.79 17.95 305.79 583.2 323.24 583.2 323.24 0.5"/><polyline class="cls-11" points="0.5 0.5 0.5 17.95 0.5 269.14"/><polyline class="cls-11" points="0.5 82.48 0.5 583.2 17.95 583.2 17.95 17.95"/><line class="cls-11" x1="299.14" y1="30.13" x2="299.14" y2="74.63"/><line class="cls-11" x1="294.16" y1="79.89" x2="186.24" y2="79.89"/><line class="cls-11" x1="294.16" y1="24.87" x2="186.24" y2="24.87"/><line class="cls-11" x1="155.77" y1="85.06" x2="304.03" y2="85.06"/><polyline class="cls-11" points="155.78 85.06 155.78 19.7 304.03 19.7 304.03 85.06"/><line class="cls-11" x1="203.59" y1="34.01" x2="288.06" y2="34.01"/><line class="cls-11" x1="290.55" y1="36.6" x2="290.55" y2="68.17"/><line class="cls-11" x1="203.59" y1="70.75" x2="288.06" y2="70.75"/><line class="cls-11" x1="273.2" y1="50.81" x2="273.2" y2="47.58"/><line class="cls-11" x1="274.68" y1="52.38" x2="277.72" y2="52.38"/><line class="cls-11" x1="273.2" y1="53.95" x2="273.2" y2="57.18"/><line class="cls-11" x1="271.63" y1="52.38" x2="268.58" y2="52.38"/><path class="cls-11" d="M186.28,24.42c-14.35,0-26,12.29-26,27.46s11.63,27.46,26,27.46" transform="translate(0 0.46)"/><path class="cls-11" d="M294.2,79.34a5.08,5.08,0,0,0,4.94-5.21" transform="translate(0 0.46)"/><path class="cls-11" d="M299.14,29.63a5.08,5.08,0,0,0-4.94-5.21" transform="translate(0 0.46)"/><path class="cls-11" d="M273.24,49.16a2.73,2.73,0,1,0,2.54,2.72,2.64,2.64,0,0,0-2.54-2.72" transform="translate(0 0.46)"/><path class="cls-11" d="M203.64,33.46c-9.56,0-17.31,8.25-17.31,18.42s7.75,18.42,17.31,18.42" transform="translate(0 0.46)"/><path class="cls-11" d="M290.55,36.09a2.54,2.54,0,0,0-2.44-2.63" transform="translate(0 0.46)"/><path class="cls-11" d="M288.11,70.3a2.54,2.54,0,0,0,2.44-2.63" transform="translate(0 0.46)"/><path class="cls-11" d="M273.24,48.23a3.65,3.65,0,1,0,3.47,3.65,3.56,3.56,0,0,0-3.47-3.65" transform="translate(0 0.46)"/><polyline class="cls-11" points="284.19 132.14 304.13 132.14 304.13 85.06 284.19 85.06"/><line class="cls-11" x1="304.13" y1="101.22" x2="304.13" y2="116.08"/><line class="cls-11" x1="288.06" y1="104.63" x2="288.06" y2="107.22"/><line class="cls-11" x1="292.03" y1="108.6" x2="289.54" y2="108.6"/><line class="cls-11" x1="288.06" y1="110.08" x2="288.06" y2="112.57"/><line class="cls-11" x1="286.68" y1="108.6" x2="284.09" y2="108.6"/><path class="cls-11" d="M283,128.83a21,21,0,0,0,9.93-8.14" transform="translate(0 0.46)"/><path class="cls-11" d="M292.9,120.69a21.05,21.05,0,0,0,2.94-12.52" transform="translate(0 0.46)"/><path class="cls-11" d="M292.92,95.6A21,21,0,0,0,283,87.46" transform="translate(0 0.46)"/><path class="cls-11" d="M295.84,108.12A21.07,21.07,0,0,0,292.9,95.6" transform="translate(0 0.46)"/><path class="cls-11" d="M268.41,109.74A38.7,38.7,0,0,0,272.3,124" transform="translate(0 0.46)"/><path class="cls-11" d="M284.19,84.62a11.94,11.94,0,0,0-9.84,4.46" transform="translate(0 0.46)"/><path class="cls-11" d="M268.36,106.45a26,26,0,0,0,0,3.3" transform="translate(0 0.46)"/><path class="cls-11" d="M292.12,121.28a85.6,85.6,0,0,0,0-26.35" transform="translate(0 0.46)"/><path class="cls-11" d="M300.37,92.48a29.59,29.59,0,0,0-19.23-6.67" transform="translate(0 0.46)"/><path class="cls-11" d="M303.11,108.18a59.29,59.29,0,0,0-1.46-13.48" transform="translate(0 0.46)"/><path class="cls-11" d="M301.72,94.68a3.92,3.92,0,0,0-1.35-2.17" transform="translate(0 0.46)"/><path class="cls-11" d="M301.35,108.08a100,100,0,0,0-1-13.28" transform="translate(0 0.46)"/><path class="cls-11" d="M299.07,92.46a26.6,26.6,0,0,0-18-6.65" transform="translate(0 0.46)"/><path class="cls-11" d="M300.39,94.82a3.89,3.89,0,0,0-1.29-2.4" transform="translate(0 0.46)"/><path class="cls-11" d="M281.15,130.48a26.64,26.64,0,0,0,18-6.67" transform="translate(0 0.46)"/><path class="cls-11" d="M281.18,130.39a29.58,29.58,0,0,0,19.22-6.7" transform="translate(0 0.46)"/><path class="cls-11" d="M300.42,121.35a101.72,101.72,0,0,0,.93-13.28" transform="translate(0 0.46)"/><path class="cls-11" d="M301.67,121.61a59.4,59.4,0,0,0,1.44-13.48" transform="translate(0 0.46)"/><path class="cls-11" d="M299.11,123.78a3.9,3.9,0,0,0,1.28-2.41" transform="translate(0 0.46)"/><path class="cls-11" d="M300.38,123.78a3.88,3.88,0,0,0,1.34-2.17" transform="translate(0 0.46)"/><path class="cls-11" d="M274.35,127.21a12,12,0,0,0,9.84,4.47" transform="translate(0 0.46)"/><path class="cls-11" d="M272.29,124.07a18.43,18.43,0,0,0,2,3.13" transform="translate(0 0.46)"/><path class="cls-11" d="M274.32,89a18.43,18.43,0,0,0-2,3.13" transform="translate(0 0.46)"/><path class="cls-11" d="M272.3,92.17a38.7,38.7,0,0,0-3.89,14.29" transform="translate(0 0.46)"/><path class="cls-11" d="M271.75,101.61a27.65,27.65,0,0,0,0,13" transform="translate(0 0.46)"/><path class="cls-11" d="M277.13,126.38a7.07,7.07,0,0,0,5.83,2.43" transform="translate(0 0.46)"/><path class="cls-11" d="M271.74,114.56a25.48,25.48,0,0,0,5.38,11.73" transform="translate(0 0.46)"/><path class="cls-11" d="M283,87.48a7.07,7.07,0,0,0-5.83,2.43" transform="translate(0 0.46)"/><path class="cls-11" d="M277.12,89.91a25.48,25.48,0,0,0-5.38,11.73" transform="translate(0 0.46)"/><path class="cls-11" d="M291.2,108.1a3.1,3.1,0,1,0-3.09,3.09,3.09,3.09,0,0,0,3.09-3.09" transform="translate(0 0.46)"/><path class="cls-11" d="M290.28,108.1a2.17,2.17,0,1,0-2.17,2.17,2.17,2.17,0,0,0,2.17-2.17" transform="translate(0 0.46)"/><line class="cls-11" x1="290.65" y1="176.27" x2="259.91" y2="176.27"/><polyline class="cls-11" points="292.49 177.56 304.03 177.56 304.03 144.42"/><line class="cls-11" x1="285.29" y1="160.94" x2="285.29" y2="148.67"/><polyline class="cls-11" points="259.91 176.27 285.29 173.22 285.29 160.94"/><line class="cls-11" x1="259.91" y1="145.71" x2="285.29" y2="148.67"/><line class="cls-11" x1="259.91" y1="175.44" x2="285.29" y2="172.48"/><line class="cls-11" x1="259.91" y1="146.45" x2="285.29" y2="149.5"/><line class="cls-11" x1="290.65" y1="145.71" x2="259.91" y2="145.71"/><line class="cls-11" x1="304.03" y1="144.42" x2="292.49" y2="144.42"/><polyline class="cls-11" points="259.91 176.27 256.49 175.81 253.26 174.51 250.49 172.39 248.18 169.62 246.52 166.39 245.78 162.79 245.78 159.1 246.52 155.59 248.18 152.27 250.49 149.5 253.26 147.47 256.49 146.17 259.91 145.71"/><polyline class="cls-11" points="259.91 175.44 256.68 175.07 253.63 173.78 250.95 171.84 248.83 169.16 247.26 166.11 246.52 162.7 246.52 159.19 247.26 155.87 248.83 152.73 250.95 150.14 253.63 148.11 256.68 146.91 259.91 146.45"/><path class="cls-11" d="M290.69,145.59a139.93,139.93,0,0,0,0,29.72" transform="translate(0 0.46)"/><path class="cls-11" d="M290.56,175.33a2,2,0,0,0,2,1.68" transform="translate(0 0.46)"/><path class="cls-11" d="M292.54,144a2,2,0,0,0-2,1.71" transform="translate(0 0.46)"/><path class="cls-11" d="M298.4,160.44a1.62,1.62,0,1,0-1.62,1.62,1.61,1.61,0,0,0,1.62-1.62" transform="translate(0 0.46)"/><polyline class="cls-11" points="255.2 301.45 255.2 253.44 303.2 253.44 303.2 301.45 255.2 301.45"/><polyline class="cls-11" points="298.86 297.02 259.63 297.02 259.63 262.12 298.86 262.12 298.86 297.02"/><polyline class="cls-11" points="167.13 631.57 166.67 631.57 166.67 679.57 167.13 679.57 167.13 631.57"/><polyline class="cls-11" points="165.38 681.23 165.38 680.86 85.15 680.86 85.15 681.23 165.38 681.23"/><polyline class="cls-11" points="83.4 679.57 83.86 679.57 83.86 631.57 83.4 631.57 83.4 679.57"/><polyline class="cls-11" points="167.59 629.35 165.38 629.35 165.38 631.57 167.59 631.57 167.59 629.35"/><polyline class="cls-11" points="167.59 679.57 165.38 679.57 165.38 681.7 167.59 681.7 167.59 679.57"/><polyline class="cls-11" points="85.15 681.7 85.15 679.57 82.94 679.57 82.94 681.7 85.15 681.7"/><polyline class="cls-11" points="82.94 631.57 85.15 631.57 85.15 629.35 82.94 629.35 82.94 631.57"/><line class="cls-11" x1="165.38" y1="630.46" x2="165.38" y2="679.57"/><line class="cls-11" x1="167.59" y1="681.7" x2="167.59" y2="630.46"/><line class="cls-11" x1="165.38" y1="679.57" x2="85.15" y2="679.57"/><line class="cls-11" x1="82.94" y1="681.7" x2="167.59" y2="681.7"/><line class="cls-11" x1="85.15" y1="679.57" x2="85.15" y2="630.46"/><line class="cls-11" x1="82.94" y1="630.46" x2="82.94" y2="681.7"/><polyline class="cls-11" points="167.59 630.46 167.59 629.35 165.38 629.35 165.38 630.46"/><polyline class="cls-11" points="85.15 630.46 85.15 629.35 82.94 629.35 82.94 630.46"/><polyline class="cls-11" points="82.94 681.7 167.59 681.7 167.59 630.46 165.38 630.46 165.38 679.57 85.15 679.57 85.15 630.46 82.94 630.46 82.94 681.7"/><polyline class="cls-11" points="87.28 666 163.16 666 163.16 638.12 87.28 638.12 87.28 666"/><polyline class="cls-11" points="87.28 663.23 163.16 663.23 163.16 638.12 87.28 638.12 87.28 663.23"/><line class="cls-9" x1="146.17" y1="212.46" x2="146.17" y2="213.96"/><line class="cls-12" x1="146.17" y1="217.01" x2="146.17" y2="343.94"/><polyline class="cls-9" points="146.17 345.46 146.17 346.96 147.67 346.96"/><line class="cls-13" x1="150.63" y1="346.97" x2="302.81" y2="346.97"/><line class="cls-9" x1="304.29" y1="346.97" x2="305.79" y2="346.97"/><polyline class="cls-11" points="305.79 600.55 323.24 600.55 323.24 513.4 305.79 513.4 305.79 600.55"/><polyline class="cls-11" points="305.79 334.59 323.24 334.59 323.24 203.69 305.79 203.69 305.79 334.59"/><polyline class="cls-11" points="0.5 600.55 17.95 600.55 17.95 513.4 0.5 513.4 0.5 600.55"/><polyline class="cls-11" points="0.5 312.71 17.95 312.71 17.95 225.47 0.5 225.47 0.5 312.71"/></svg>