<svg id="_6" data-name="6" xmlns="http://www.w3.org/2000/svg" viewBox="0 0 396.46 773.38"><defs><style>.cls-1{isolation:isolate;font-size:12px;fill:#969696;}.cls-1,.cls-7,.cls-8{font-family:PTSans-Regular, PT Sans;}.cls-2,.cls-3,.cls-4,.cls-5,.cls-6,.cls-9{fill:none;stroke-linecap:round;stroke-linejoin:round;}.cls-2{stroke:#969696;stroke-width:0.75px;}.cls-3,.cls-4,.cls-5,.cls-6,.cls-9{stroke:#000;}.cls-4,.cls-5,.cls-6{stroke-width:0.5px;}.cls-5{stroke-dasharray:2.97 2.97;}.cls-6{stroke-dasharray:2.97 2.97;}.cls-7{font-size:40px;}.cls-8{font-size:36px;}.cls-9{stroke-width:0.25px;stroke-dasharray:1 1;}</style></defs><title>2floor_6flat</title><text class="cls-1" transform="translate(192.66 10.2)">двор</text><line class="cls-2" x1="181.9" y1="4.22" x2="181.9" y2="13.02"/><polyline class="cls-2" points="185.4 7.72 181.9 4.22 178.4 7.72"/><line class="cls-3" x1="395.96" y1="99.64" x2="285.35" y2="99.64"/><line class="cls-3" x1="282.06" y1="132.52" x2="377.13" y2="132.52"/><line class="cls-3" x1="395.96" y1="132.52" x2="395.96" y2="132.52"/><polyline class="cls-3" points="285.45 98.64 395.96 98.64 395.96 151.62"/><line class="cls-3" x1="60.44" y1="88.78" x2="0.6" y2="101.03"/><line class="cls-3" x1="64.13" y1="87.98" x2="66.02" y2="97.15"/><line class="cls-3" x1="63.93" y1="87.08" x2="64.13" y2="87.98"/><line class="cls-3" x1="62.33" y1="97.94" x2="62.33" y2="97.94"/><polyline class="cls-3" points="60.44 88.78 63.23 88.18 65.12 97.35 63.23 88.18"/><line class="cls-3" x1="63.03" y1="87.28" x2="63.93" y2="87.08"/><polyline class="cls-3" points="62.33 97.94 63.43 103.53 67.02 120.96 19.38 130.83"/><polyline class="cls-3" points="63.03 87.28 0.5 100.04 0.5 127.77"/><line class="cls-3" x1="146.44" y1="70.04" x2="63.93" y2="87.08"/><line class="cls-3" x1="146.44" y1="104.72" x2="67.02" y2="120.96"/><polyline class="cls-3" points="146.44 86.39 141.36 87.48 140.66 83.8 138.37 84.19 137.97 82.4 145.34 80.91 146.44 80.61"/><polyline class="cls-3" points="62.33 97.94 69.71 96.45 70.11 98.24 67.81 98.74 68.51 102.43 63.43 103.53"/><line class="cls-3" x1="69.71" y1="96.45" x2="137.97" y2="82.4"/><polyline class="cls-3" points="141.75 89.28 136.27 90.47 74.39 103.13"/><polyline class="cls-3" points="136.27 90.47 135.08 84.89 140.66 83.8 141.75 89.28"/><polyline class="cls-3" points="67.81 98.74 73.3 97.65 74.39 103.13 68.91 104.32 67.81 98.74"/><line class="cls-3" x1="73.29" y1="97.65" x2="135.08" y2="84.89"/><line class="cls-3" x1="136.27" y1="90.47" x2="74.39" y2="103.13"/><line class="cls-3" x1="135.68" y1="87.68" x2="73.89" y2="100.34"/><line class="cls-3" x1="145.34" y1="80.9" x2="146.44" y2="86.39"/><polyline class="cls-3" points="67.02 120.96 63.43 103.53 62.33 97.94 63.43 103.53"/><line class="cls-3" x1="63.93" y1="87.08" x2="64.13" y2="87.98"/><polyline class="cls-3" points="66.02 97.15 65.12 97.35 66.02 97.15"/><polyline class="cls-3" points="65.12 97.35 62.33 97.94 65.12 97.35"/><line class="cls-3" x1="64.13" y1="87.98" x2="66.02" y2="97.15"/><line class="cls-3" x1="285.05" y1="99.54" x2="283.16" y2="108.81"/><line class="cls-3" x1="285.25" y1="98.64" x2="285.05" y2="99.54"/><line class="cls-3" x1="286.85" y1="109.5" x2="286.85" y2="109.5"/><polyline class="cls-3" points="288.74 100.34 285.95 99.74 284.06 109.01 285.95 99.74"/><line class="cls-3" x1="286.15" y1="98.84" x2="285.25" y2="98.64"/><polyline class="cls-3" points="286.85 109.5 285.75 115.08 282.16 132.62"/><line class="cls-3" x1="146.44" y1="70.04" x2="285.25" y2="98.64"/><line class="cls-3" x1="146.44" y1="104.72" x2="282.16" y2="132.62"/><polyline class="cls-3" points="146.44 86.39 151.52 87.48 152.32 83.8 154.61 84.19 155.01 82.4 147.63 80.91 146.44 80.61"/><polyline class="cls-3" points="231.54 98.14 227.85 97.35 227.45 99.24 229.75 99.74 229.05 103.43 230.34 103.72"/><line class="cls-3" x1="227.85" y1="97.35" x2="155.01" y2="82.4"/><polyline class="cls-3" points="151.12 89.28 156.7 90.47 223.07 104.12"/><polyline class="cls-3" points="156.7 90.47 157.8 84.89 152.32 83.8 151.12 89.28"/><polyline class="cls-3" points="229.75 99.74 224.26 98.54 223.07 104.12 228.65 105.22 229.75 99.74"/><line class="cls-3" x1="224.27" y1="98.54" x2="157.8" y2="84.89"/><line class="cls-3" x1="156.7" y1="90.47" x2="223.07" y2="104.12"/><line class="cls-3" x1="157.3" y1="87.68" x2="223.67" y2="101.33"/><line class="cls-3" x1="147.63" y1="80.9" x2="146.44" y2="86.39"/><polyline class="cls-3" points="230.34 103.72 231.74 103.92 232.54 100.24 234.83 100.73 235.23 98.94 231.54 98.14"/><polyline class="cls-3" points="286.85 109.5 279.47 108.01 279.07 109.9 281.37 110.3 280.67 113.99 285.75 115.08"/><line class="cls-3" x1="279.47" y1="108.01" x2="235.23" y2="98.94"/><polyline class="cls-3" points="231.44 105.82 236.92 106.91 274.79 114.69"/><polyline class="cls-3" points="236.92 106.91 238.02 101.43 232.54 100.24 231.44 105.82"/><polyline class="cls-3" points="281.37 110.3 275.88 109.2 274.79 114.69 280.27 115.88 281.37 110.3"/><line class="cls-3" x1="275.88" y1="109.21" x2="238.02" y2="101.43"/><line class="cls-3" x1="236.92" y1="106.91" x2="274.79" y2="114.69"/><line class="cls-3" x1="237.52" y1="104.22" x2="275.29" y2="112"/><polyline class="cls-3" points="282.16 132.62 285.75 115.08 286.85 109.5 285.75 115.08"/><line class="cls-3" x1="285.25" y1="98.64" x2="285.05" y2="99.54"/><polyline class="cls-3" points="283.16 108.81 284.06 109.01 283.16 108.81"/><polyline class="cls-3" points="284.06 109.01 286.85 109.5 284.06 109.01"/><line class="cls-3" x1="285.05" y1="99.54" x2="283.16" y2="108.81"/><line class="cls-3" x1="315.94" y1="719.17" x2="395.96" y2="719.17"/><polyline class="cls-3" points="297.11 700.33 315.94 700.33 377.13 700.33"/><line class="cls-3" x1="315.94" y1="761.52" x2="315.94" y2="772.88"/><polyline class="cls-3" points="375.83 97.25 375.83 45.43 376.23 45.43 376.23 97.25 375.83 97.25"/><polyline class="cls-3" points="374.34 44.03 287.74 44.03 287.74 43.63 374.34 43.63 374.34 44.03"/><polyline class="cls-3" points="286.35 45.43 286.35 97.25 285.85 97.25 285.85 45.43 286.35 45.43"/><polyline class="cls-3" points="374.34 99.64 374.34 97.25 376.73 97.25 376.73 99.64 374.34 99.64"/><polyline class="cls-3" points="374.34 45.43 374.34 43.14 376.73 43.14 376.73 45.43 374.34 45.43"/><polyline class="cls-3" points="287.74 45.43 285.35 45.43 285.35 43.14 287.74 43.14 287.74 45.43"/><polyline class="cls-3" points="287.74 97.25 287.74 99.64 285.35 99.64 285.35 97.25 287.74 97.25"/><line class="cls-3" x1="374.34" y1="98.44" x2="374.34" y2="45.43"/><line class="cls-3" x1="376.73" y1="43.14" x2="376.73" y2="98.44"/><line class="cls-3" x1="374.34" y1="45.43" x2="287.74" y2="45.43"/><line class="cls-3" x1="285.35" y1="43.14" x2="376.73" y2="43.14"/><line class="cls-3" x1="287.74" y1="45.43" x2="287.74" y2="98.44"/><line class="cls-3" x1="285.35" y1="98.44" x2="285.35" y2="43.14"/><polyline class="cls-3" points="376.73 98.44 376.73 99.64 374.34 99.64 374.34 98.44"/><polyline class="cls-3" points="287.74 98.44 287.74 99.64 285.35 99.64 285.35 98.44"/><polyline class="cls-3" points="285.35 43.14 376.73 43.14 376.73 98.44 374.34 98.44 374.34 45.43 287.74 45.43 287.74 98.44 285.35 98.44 285.35 43.14"/><polyline class="cls-3" points="290.13 60.08 372.05 60.08 372.05 90.17 290.13 90.17 290.13 60.08"/><polyline class="cls-3" points="290.13 63.07 372.05 63.07 372.05 90.17 290.13 90.17 290.13 63.07"/><line class="cls-4" x1="19.38" y1="381.15" x2="20.88" y2="381.15"/><line class="cls-5" x1="23.85" y1="381.15" x2="188.69" y2="381.15"/><polyline class="cls-4" points="190.18 381.15 191.68 381.15 191.68 382.65"/><line class="cls-6" x1="191.68" y1="385.63" x2="191.68" y2="491.17"/><line class="cls-4" x1="191.68" y1="492.66" x2="191.68" y2="494.16"/><line class="cls-3" x1="19.38" y1="754.04" x2="19.38" y2="518.57"/><line class="cls-3" x1="19.38" y1="424.5" x2="19.38" y2="207.86"/><line class="cls-3" x1="0.55" y1="207.86" x2="0.55" y2="424.5"/><line class="cls-3" x1="0.55" y1="518.57" x2="0.55" y2="754.04"/><line class="cls-3" x1="395.96" y1="719.17" x2="395.96" y2="518.57"/><line class="cls-3" x1="395.96" y1="424.5" x2="395.96" y2="207.86"/><line class="cls-3" x1="377.13" y1="207.86" x2="377.13" y2="424.5"/><line class="cls-3" x1="377.13" y1="518.57" x2="377.13" y2="700.33"/><line class="cls-3" x1="191.68" y1="608.06" x2="184.11" y2="608.06"/><line class="cls-3" x1="191.68" y1="674.03" x2="184.11" y2="674.03"/><line class="cls-3" x1="184.11" y1="501.63" x2="184.11" y2="608.06"/><polyline class="cls-3" points="184.11 674.02 184.11 754.04 191.68 754.04 191.68 674.02"/><line class="cls-3" x1="191.68" y1="608.06" x2="191.68" y2="561.02"/><line class="cls-3" x1="191.68" y1="553.45" x2="191.68" y2="494.16"/><line class="cls-3" x1="191.68" y1="674.03" x2="184.11" y2="674.03"/><line class="cls-3" x1="191.68" y1="608.06" x2="184.11" y2="608.06"/><line class="cls-3" x1="226.46" y1="561.02" x2="226.46" y2="553.45"/><polyline class="cls-3" points="311.26 561.02 311.26 553.45 377.13 553.45"/><line class="cls-3" x1="226.46" y1="553.45" x2="191.68" y2="553.45"/><line class="cls-3" x1="191.68" y1="561.02" x2="226.46" y2="561.02"/><polyline class="cls-3" points="311.26 561.02 377.13 561.02 377.13 553.45"/><line class="cls-3" x1="311.26" y1="561.02" x2="311.26" y2="553.45"/><line class="cls-3" x1="226.46" y1="561.02" x2="226.46" y2="553.45"/><polyline class="cls-3" points="191.68 494.16 184.11 494.16 19.38 494.16"/><line class="cls-3" x1="19.38" y1="501.63" x2="66.42" y2="501.63"/><line class="cls-3" x1="73.99" y1="501.63" x2="184.11" y2="501.63"/><line class="cls-3" x1="73.99" y1="546.87" x2="73.99" y2="501.63"/><line class="cls-3" x1="66.42" y1="501.63" x2="66.42" y2="539.3"/><polyline class="cls-3" points="28.75 546.87 28.75 543.08 28.75 539.3"/><polyline class="cls-3" points="66.42 546.87 66.42 543.08 66.42 539.3"/><line class="cls-3" x1="19.38" y1="546.87" x2="28.75" y2="546.87"/><line class="cls-3" x1="66.42" y1="546.87" x2="73.99" y2="546.87"/><polyline class="cls-3" points="28.75 539.3 19.38 539.3 19.38 546.87"/><line class="cls-3" x1="66.42" y1="546.87" x2="28.75" y2="546.87"/><line class="cls-3" x1="66.42" y1="539.3" x2="28.75" y2="539.3"/><path class="cls-3" d="M63.93,588a37.63,37.63,0,0,0,2.26-12.87" transform="translate(0.23 -28.34)"/><line class="cls-3" x1="28.75" y1="546.87" x2="64.13" y2="559.73"/><polyline class="cls-3" points="66.42 539.3 66.42 543.08 66.42 546.87 66.42 543.08"/><polyline class="cls-3" points="28.75 539.3 28.75 543.08 28.75 546.87 28.75 543.08"/><polyline class="cls-3" points="191.68 772.88 191.68 765.3 191.68 754.04"/><polyline class="cls-3" points="285.85 772.88 285.85 765.3 285.85 754.04"/><line class="cls-3" x1="57.15" y1="772.88" x2="191.68" y2="772.88"/><line class="cls-3" x1="285.85" y1="772.88" x2="315.94" y2="772.88"/><line class="cls-3" x1="297.11" y1="754.04" x2="285.85" y2="754.04"/><line class="cls-3" x1="191.68" y1="754.04" x2="57.15" y2="754.04"/><line class="cls-3" x1="285.85" y1="772.88" x2="285.55" y2="772.88"/><line class="cls-3" x1="285.45" y1="772.88" x2="285.45" y2="772.88"/><line class="cls-3" x1="192.08" y1="772.88" x2="192.08" y2="772.88"/><line class="cls-3" x1="191.98" y1="772.88" x2="191.98" y2="772.88"/><line class="cls-3" x1="191.88" y1="772.88" x2="191.68" y2="772.88"/><line class="cls-3" x1="285.85" y1="754.04" x2="285.55" y2="754.04"/><line class="cls-3" x1="285.45" y1="754.04" x2="285.45" y2="754.04"/><line class="cls-3" x1="192.08" y1="754.04" x2="192.08" y2="754.04"/><line class="cls-3" x1="191.98" y1="754.04" x2="191.98" y2="754.04"/><line class="cls-3" x1="191.88" y1="754.04" x2="191.68" y2="754.04"/><path class="cls-3" d="M281.94,793.6A86.65,86.65,0,0,0,195.29,707" transform="translate(0.23 -28.34)"/><polyline class="cls-3" points="285.85 772.88 282.06 772.88 282.06 765.3 285.85 765.3 285.85 772.88"/><polyline class="cls-3" points="191.68 765.3 195.47 765.3 195.47 772.88 191.68 772.88 191.68 765.3"/><line class="cls-3" x1="195.47" y1="765.31" x2="195.47" y2="678.71"/><polyline class="cls-3" points="285.85 754.04 285.85 765.3 285.85 772.88 285.85 765.3"/><polyline class="cls-3" points="191.68 754.04 191.68 765.3 191.68 772.88 191.68 765.3"/><polyline class="cls-3" points="315.94 772.88 315.94 754.04 315.94 719.17"/><line class="cls-3" x1="297.11" y1="700.33" x2="297.11" y2="754.04"/><polyline class="cls-3" points="0.55 754.04 57.15 754.04 57.15 772.88 0.55 772.88 0.55 708.8"/><polyline class="cls-3" points="377.13 207.86 395.96 207.86 395.96 113.69 377.13 113.69 377.13 207.86"/><polyline class="cls-3" points="395.96 424.5 377.13 424.5 377.13 518.57 395.96 518.57 395.96 424.5"/><polyline class="cls-3" points="0.55 207.86 19.38 207.86 19.38 113.69 0.55 113.69 0.55 207.86"/><polyline class="cls-3" points="19.38 424.5 0.55 424.5 0.55 518.57 19.38 518.57 19.38 424.5"/><line class="cls-3" x1="24.37" y1="742.68" x2="24.37" y2="694.65"/><line class="cls-3" x1="29.35" y1="689.07" x2="139.06" y2="689.07"/><line class="cls-3" x1="29.35" y1="748.36" x2="139.06" y2="748.36"/><line class="cls-3" x1="169.96" y1="683.39" x2="19.38" y2="683.39"/><polyline class="cls-3" points="169.96 683.39 169.96 754.04 19.38 754.04 19.38 683.39"/><line class="cls-3" x1="121.43" y1="738.5" x2="35.63" y2="738.5"/><line class="cls-3" x1="33.14" y1="735.71" x2="33.14" y2="701.73"/><line class="cls-3" x1="121.43" y1="698.84" x2="35.63" y2="698.84"/><line class="cls-3" x1="50.77" y1="720.46" x2="50.77" y2="723.95"/><line class="cls-3" x1="49.18" y1="718.67" x2="46.09" y2="718.67"/><line class="cls-3" x1="50.77" y1="716.97" x2="50.77" y2="713.49"/><line class="cls-3" x1="52.27" y1="718.67" x2="55.36" y2="718.67"/><path class="cls-3" d="M138.89,776.61c14.56,0,26.36-13.28,26.36-29.65s-11.8-29.64-26.36-29.64" transform="translate(0.23 -28.34)"/><path class="cls-3" d="M29.17,717.32c-2.78,0-5,2.52-5,5.63" transform="translate(0.23 -28.34)"/><path class="cls-3" d="M24.14,771c0,3.11,2.25,5.63,5,5.63" transform="translate(0.23 -28.34)"/><path class="cls-3" d="M50.6,744A3,3,0,1,0,53.24,747,2.8,2.8,0,0,0,50.6,744" transform="translate(0.23 -28.34)"/><path class="cls-3" d="M121.25,766.84c9.71,0,17.59-8.9,17.59-19.88s-7.88-19.88-17.59-19.88" transform="translate(0.23 -28.34)"/><path class="cls-3" d="M32.91,764a2.7,2.7,0,0,0,2.54,2.84" transform="translate(0.23 -28.34)"/><path class="cls-3" d="M35.45,727.18A2.7,2.7,0,0,0,32.91,730" transform="translate(0.23 -28.34)"/><path class="cls-3" d="M50.6,743A4,4,0,1,0,54.14,747,3.75,3.75,0,0,0,50.6,743" transform="translate(0.23 -28.34)"/><polyline class="cls-3" points="40.81 629.68 19.38 629.68 19.38 680.6 40.81 680.6"/><line class="cls-3" x1="19.38" y1="663.16" x2="19.38" y2="647.12"/><line class="cls-3" x1="36.62" y1="659.38" x2="36.62" y2="656.69"/><line class="cls-3" x1="32.34" y1="655.09" x2="35.03" y2="655.09"/><line class="cls-3" x1="36.62" y1="653.6" x2="36.62" y2="650.81"/><line class="cls-3" x1="38.22" y1="655.09" x2="40.91" y2="655.09"/><path class="cls-3" d="M42,661.1a22.75,22.75,0,0,0-10.72,8.79" transform="translate(0.23 -28.34)"/><path class="cls-3" d="M31.28,669.89a22.67,22.67,0,0,0-3.18,13.52" transform="translate(0.23 -28.34)"/><path class="cls-3" d="M31.25,697A22.75,22.75,0,0,0,42,705.77" transform="translate(0.23 -28.34)"/><path class="cls-3" d="M28.1,683.46A22.64,22.64,0,0,0,31.28,697" transform="translate(0.23 -28.34)"/><path class="cls-3" d="M57.71,681.61a41.68,41.68,0,0,0-4.2-15.42" transform="translate(0.23 -28.34)"/><path class="cls-3" d="M40.68,708.83A12.91,12.91,0,0,0,51.3,704" transform="translate(0.23 -28.34)"/><path class="cls-3" d="M57.76,685.26a26.43,26.43,0,0,0,0-3.56" transform="translate(0.23 -28.34)"/><path class="cls-3" d="M32.12,669.25a92.63,92.63,0,0,0,0,28.45" transform="translate(0.23 -28.34)"/><path class="cls-3" d="M23.21,700.34A32,32,0,0,0,44,707.54" transform="translate(0.23 -28.34)"/><path class="cls-3" d="M20.26,683.4A63.59,63.59,0,0,0,21.83,698" transform="translate(0.23 -28.34)"/><path class="cls-3" d="M21.75,698a4.28,4.28,0,0,0,1.45,2.35" transform="translate(0.23 -28.34)"/><path class="cls-3" d="M22.15,683.4a109.14,109.14,0,0,0,1,14.34" transform="translate(0.23 -28.34)"/><path class="cls-3" d="M24.61,700.37A28.8,28.8,0,0,0,44,707.55" transform="translate(0.23 -28.34)"/><path class="cls-3" d="M23.28,697.82a4.25,4.25,0,0,0,1.4,2.59" transform="translate(0.23 -28.34)"/><path class="cls-3" d="M44,659.32a28.8,28.8,0,0,0-19.38,7.21" transform="translate(0.23 -28.34)"/><path class="cls-3" d="M43.93,659.32a32,32,0,0,0-20.75,7.23" transform="translate(0.23 -28.34)"/><path class="cls-3" d="M23.16,669.08a109.09,109.09,0,0,0-1,14.33" transform="translate(0.23 -28.34)"/><path class="cls-3" d="M21.81,668.9a63.08,63.08,0,0,0-1.55,14.55" transform="translate(0.23 -28.34)"/><path class="cls-3" d="M24.58,666.56a4.24,4.24,0,0,0-1.4,2.6" transform="translate(0.23 -28.34)"/><path class="cls-3" d="M23.2,666.56a4.22,4.22,0,0,0-1.45,2.34" transform="translate(0.23 -28.34)"/><path class="cls-3" d="M51.3,662.85A12.91,12.91,0,0,0,40.68,658" transform="translate(0.23 -28.34)"/><path class="cls-3" d="M53.52,666.25a20.45,20.45,0,0,0-2.19-3.39" transform="translate(0.23 -28.34)"/><path class="cls-3" d="M51.33,704.11a20.87,20.87,0,0,0,2.19-3.39" transform="translate(0.23 -28.34)"/><path class="cls-3" d="M53.51,700.68a41.68,41.68,0,0,0,4.2-15.42" transform="translate(0.23 -28.34)"/><path class="cls-3" d="M54.1,690.49a29.89,29.89,0,0,0,0-14" transform="translate(0.23 -28.34)"/><path class="cls-3" d="M48.3,663.75a7.66,7.66,0,0,0-6.3-2.62" transform="translate(0.23 -28.34)"/><path class="cls-3" d="M54.12,676.41a27.6,27.6,0,0,0-5.81-12.67" transform="translate(0.23 -28.34)"/><path class="cls-3" d="M42,705.74a7.64,7.64,0,0,0,6.3-2.63" transform="translate(0.23 -28.34)"/><path class="cls-3" d="M48.31,703.12a27.52,27.52,0,0,0,5.81-12.66" transform="translate(0.23 -28.34)"/><path class="cls-3" d="M39.79,683.38a3.34,3.34,0,1,0-3.34,3.34,3.34,3.34,0,0,0,3.34-3.34" transform="translate(0.23 -28.34)"/><path class="cls-3" d="M38.79,683.38a2.34,2.34,0,1,0-2.34,2.35,2.34,2.34,0,0,0,2.34-2.35" transform="translate(0.23 -28.34)"/><line class="cls-3" x1="33.83" y1="582.15" x2="67.02" y2="582.15"/><polyline class="cls-3" points="31.84 580.75 19.38 580.75 19.38 616.53"/><line class="cls-3" x1="39.61" y1="598.69" x2="39.61" y2="611.94"/><polyline class="cls-3" points="67.02 582.15 39.61 585.34 39.61 598.69"/><line class="cls-3" x1="67.02" y1="615.13" x2="39.61" y2="611.94"/><line class="cls-3" x1="67.02" y1="583.04" x2="39.61" y2="586.23"/><line class="cls-3" x1="67.02" y1="614.23" x2="39.61" y2="611.05"/><line class="cls-3" x1="33.83" y1="615.13" x2="67.02" y2="615.13"/><line class="cls-3" x1="19.38" y1="616.53" x2="31.84" y2="616.53"/><polyline class="cls-3" points="67.02 582.15 70.7 582.65 74.19 584.04 77.28 586.33 79.67 589.32 81.47 592.81 82.36 596.7 82.36 600.68 81.47 604.47 79.67 608.06 77.28 611.05 74.19 613.24 70.7 614.63 67.02 615.13"/><polyline class="cls-3" points="67.02 583.04 70.5 583.44 73.79 584.84 76.68 586.93 78.97 589.82 80.67 593.11 81.47 596.8 81.47 600.58 80.67 604.17 78.97 607.56 76.68 610.35 73.79 612.54 70.5 613.84 67.02 614.24"/><path class="cls-3" d="M33.65,643a150.79,150.79,0,0,0,0-32.07" transform="translate(0.23 -28.34)"/><path class="cls-3" d="M33.79,610.91a2.1,2.1,0,0,0-2.13-1.82" transform="translate(0.23 -28.34)"/><path class="cls-3" d="M31.66,644.77a2.11,2.11,0,0,0,2.14-1.84" transform="translate(0.23 -28.34)"/><path class="cls-3" d="M28.82,627a1.74,1.74,0,1,0-1.74,1.75A1.74,1.74,0,0,0,28.82,627" transform="translate(0.23 -28.34)"/><line class="cls-3" x1="0.55" y1="647.12" x2="0.55" y2="663.16"/><line class="cls-3" x1="395.96" y1="595.1" x2="395.96" y2="608.16"/><polyline class="cls-3" points="75.89 437.65 75.89 489.47 24.07 489.47 24.07 437.65 75.89 437.65"/><polyline class="cls-3" points="28.75 442.34 71.1 442.34 71.1 480 28.75 480 28.75 442.34"/><text class="cls-7" transform="translate(256.56 369.24)">CT</text><text class="cls-7" transform="translate(231.2 419.42)">24.22</text><text class="cls-7" transform="translate(247.72 319.34)">№6</text><polyline class="cls-4" points="216.91 430.23 216.91 281.15 341.24 281.15 341.24 430.23"/><line class="cls-4" x1="216.91" y1="330.94" x2="341.24" y2="330.94"/><line class="cls-4" x1="216.91" y1="430.23" x2="341.24" y2="430.23"/><line class="cls-4" x1="216.91" y1="380.73" x2="341.24" y2="380.73"/><text class="cls-8" transform="translate(94.32 637.15)">4.41</text><text class="cls-8" transform="translate(252.42 637.15)">3.55</text><text class="cls-8" transform="translate(101.8 437.65)">2.20</text><text class="cls-8" transform="translate(152.37 197.19)">14.06</text><line class="cls-9" x1="226.46" y1="561.1" x2="318.03" y2="561.1"/><line class="cls-9" x1="226.46" y1="553.37" x2="318.03" y2="553.37"/><line class="cls-9" x1="191.75" y1="678.78" x2="191.75" y2="595.53"/><line class="cls-9" x1="184.03" y1="678.78" x2="184.03" y2="595.53"/><line class="cls-9" x1="195.52" y1="772.88" x2="285.6" y2="772.88"/></svg>