<svg id="_254" data-name="254" xmlns="http://www.w3.org/2000/svg" viewBox="0 0 328.16 916.35"><defs><style>.cls-1{isolation:isolate;font-size:12px;fill:#969696;}.cls-1,.cls-10,.cls-11,.cls-12{font-family:PTSans-Regular, PT Sans;}.cls-2{letter-spacing:-0.01em;}.cls-13,.cls-14,.cls-3,.cls-4,.cls-5,.cls-6,.cls-7,.cls-8,.cls-9{fill:none;}.cls-3{stroke:#969696;stroke-width:0.75px;}.cls-13,.cls-14,.cls-3,.cls-4,.cls-6,.cls-7,.cls-8,.cls-9{stroke-linecap:round;stroke-linejoin:round;}.cls-13,.cls-14,.cls-4,.cls-5,.cls-6,.cls-7,.cls-8,.cls-9{stroke:#000;}.cls-5{stroke-miterlimit:10;}.cls-13,.cls-14,.cls-5,.cls-9{stroke-width:0.25px;}.cls-6,.cls-7,.cls-8{stroke-width:0.5px;}.cls-7{stroke-dasharray:2.96 2.96;}.cls-8{stroke-dasharray:2.95 2.95;}.cls-10{font-size:40px;}.cls-11{font-size:40.54px;}.cls-12{font-size:36px;}.cls-13{stroke-dasharray:0.99 0.99;}.cls-14{stroke-dasharray:0.99 0.99;}</style></defs><title>2floor_254flat</title><text class="cls-1" transform="translate(155.94 913.15)"><tspan class="cls-2">у</tspan><tspan x="5.42" y="0">лица</tspan></text><line class="cls-3" x1="145.18" y1="915.97" x2="145.18" y2="907.17"/><polyline class="cls-3" points="141.68 912.47 145.18 915.97 148.68 912.47"/><line class="cls-4" x1="0.5" y1="818.36" x2="100.29" y2="818.36"/><line class="cls-4" x1="264.72" y1="818.36" x2="327.66" y2="818.36"/><line class="cls-4" x1="0.5" y1="817.57" x2="96.92" y2="817.57"/><line class="cls-4" x1="268.09" y1="817.57" x2="327.66" y2="817.57"/><line class="cls-4" x1="268.09" y1="812.5" x2="268.09" y2="784.01"/><line class="cls-4" x1="264.72" y1="828.49" x2="264.72" y2="818.36"/><line class="cls-4" x1="268.09" y1="817.57" x2="268.09" y2="812.5"/><line class="cls-4" x1="96.92" y1="812.5" x2="96.92" y2="784.01"/><line class="cls-4" x1="100.29" y1="828.49" x2="100.29" y2="818.36"/><line class="cls-4" x1="96.92" y1="817.57" x2="96.92" y2="812.5"/><line class="cls-4" x1="327.66" y1="784.01" x2="268.09" y2="784.01"/><line class="cls-4" x1="96.92" y1="784.01" x2="0.5" y2="784.01"/><polyline class="cls-4" points="100.29 828.49 0.5 828.49 0.5 784"/><polyline class="cls-4" points="264.72 828.49 327.66 828.49 327.66 767.53 327.66 223.61 277.32 223.61"/><polyline class="cls-4" points="264.72 828.49 100.29 828.49 100.29 832.66 264.72 832.66 264.72 828.49"/><line class="cls-4" x1="96.92" y1="784.01" x2="268.09" y2="784.01"/><polyline class="cls-4" points="96.92 812.5 101.53 812.5 101.53 815.88 103.67 815.88 103.67 817.57 96.92 817.57"/><polyline class="cls-4" points="155.07 817.57 151.7 817.57 151.7 815.88 153.83 815.88 153.83 812.5 155.07 812.5"/><line class="cls-4" x1="151.7" y1="817.57" x2="103.67" y2="817.57"/><polyline class="cls-4" points="101.53 810.82 106.59 810.82 148.77 810.82"/><polyline class="cls-4" points="106.59 810.82 106.59 815.88 101.53 815.88 101.53 810.82"/><polyline class="cls-4" points="153.83 815.88 148.77 815.88 148.77 810.82 153.83 810.82 153.83 815.88"/><line class="cls-4" x1="148.77" y1="815.88" x2="106.6" y2="815.88"/><line class="cls-4" x1="106.6" y1="810.82" x2="148.77" y2="810.82"/><line class="cls-4" x1="106.6" y1="813.39" x2="148.77" y2="813.39"/><polyline class="cls-4" points="155.07 812.5 156.31 812.5 156.31 815.88 158.44 815.88 158.44 817.57 155.07 817.57"/><polyline class="cls-4" points="209.94 817.57 206.56 817.57 206.56 815.88 208.61 815.88 208.61 812.5 209.94 812.5"/><line class="cls-4" x1="206.56" y1="817.57" x2="158.44" y2="817.57"/><polyline class="cls-4" points="156.31 810.82 161.37 810.82 203.63 810.82"/><polyline class="cls-4" points="161.37 810.82 161.37 815.88 156.31 815.88 156.31 810.82"/><polyline class="cls-4" points="208.61 815.88 203.63 815.88 203.63 810.82 208.61 810.82 208.61 815.88"/><line class="cls-4" x1="203.63" y1="815.88" x2="161.37" y2="815.88"/><line class="cls-4" x1="161.37" y1="810.82" x2="203.63" y2="810.82"/><line class="cls-4" x1="161.37" y1="813.39" x2="203.63" y2="813.39"/><polyline class="cls-4" points="209.94 812.5 211.18 812.5 211.18 815.88 213.22 815.88 213.22 817.57 209.94 817.57"/><polyline class="cls-4" points="268.09 817.57 261.34 817.57 261.34 815.88 263.47 815.88 263.47 812.5 268.09 812.5"/><line class="cls-4" x1="261.34" y1="817.57" x2="213.22" y2="817.57"/><polyline class="cls-4" points="211.18 810.82 216.15 810.82 258.41 810.82"/><polyline class="cls-4" points="216.15 810.82 216.15 815.88 211.18 815.88 211.18 810.82"/><polyline class="cls-4" points="263.47 815.88 258.41 815.88 258.41 810.82 263.47 810.82 263.47 815.88"/><line class="cls-4" x1="258.41" y1="815.88" x2="216.15" y2="815.88"/><line class="cls-4" x1="216.15" y1="810.82" x2="258.41" y2="810.82"/><line class="cls-4" x1="216.15" y1="813.39" x2="258.41" y2="813.39"/><polyline class="cls-4" points="96.92 812.5 96.92 817.57 96.92 812.5"/><polyline class="cls-4" points="96.92 817.57 100.29 817.57 96.92 817.57"/><polyline class="cls-4" points="100.29 828.49 100.29 818.36 100.29 817.57"/><line class="cls-4" x1="96.92" y1="812.5" x2="96.92" y2="784.01"/><polyline class="cls-4" points="268.09 812.5 268.09 817.57 268.09 812.5"/><polyline class="cls-4" points="268.09 817.57 264.72 817.57 268.09 817.57"/><polyline class="cls-4" points="264.72 828.49 264.72 818.36 264.72 817.57"/><line class="cls-4" x1="268.09" y1="812.5" x2="268.09" y2="784.01"/><polyline class="cls-4" points="310.88 240.39 310.88 784 327.66 784 327.66 240.39"/><polyline class="cls-4" points="0.5 0.5 0.5 784 17.28 784 17.28 17.28"/><line class="cls-4" x1="327.66" y1="223.61" x2="268.09" y2="223.61"/><line class="cls-4" x1="251.31" y1="240.39" x2="310.88" y2="240.39"/><line class="cls-4" x1="327.66" y1="240.39" x2="327.66" y2="240.39"/><line class="cls-4" x1="327.66" y1="418.22" x2="327.66" y2="418.22"/><polyline class="cls-4" points="327.66 411.56 327.66 411.56 327.66 418.22"/><polyline class="cls-4" points="251.31 57.5 261.34 57.5 268.09 57.5"/><polyline class="cls-4" points="251.31 141.4 261.34 141.4 268.09 141.4"/><line class="cls-4" x1="251.31" y1="17.28" x2="251.31" y2="57.5"/><polyline class="cls-4" points="251.31 240.39 251.31 223.61 251.31 141.4"/><line class="cls-4" x1="268.09" y1="223.61" x2="268.09" y2="141.4"/><line class="cls-4" x1="268.09" y1="57.5" x2="268.09" y2="0.5"/><path class="cls-4" d="M184.19,60.83A77.19,77.19,0,0,0,261.39,138"/><polyline class="cls-4" points="268.09 141.4 268.09 138.02 261.34 138.02 261.34 141.4 268.09 141.4"/><polyline class="cls-4" points="261.34 57.5 261.34 60.87 268.09 60.87 268.09 57.5 261.34 57.5"/><line class="cls-4" x1="261.34" y1="60.87" x2="184.19" y2="60.87"/><polyline class="cls-4" points="268.09 141.4 261.34 141.4 268.09 141.4"/><line class="cls-4" x1="251.31" y1="141.4" x2="261.34" y2="141.4"/><polyline class="cls-4" points="268.09 57.5 261.34 57.5 268.09 57.5"/><line class="cls-4" x1="251.31" y1="57.5" x2="261.34" y2="57.5"/><polyline class="cls-4" points="268.09 0.5 251.31 0.5 0.5 0.5"/><line class="cls-4" x1="17.28" y1="17.28" x2="251.31" y2="17.28"/><line class="cls-4" x1="158.18" y1="159.86" x2="151.43" y2="159.86"/><polyline class="cls-4" points="158.18 101.18 151.43 101.18 151.43 17.28"/><line class="cls-4" x1="151.43" y1="159.86" x2="151.43" y2="233.73"/><line class="cls-4" x1="158.18" y1="233.73" x2="158.18" y2="159.86"/><polyline class="cls-4" points="158.18 101.18 158.18 17.28 151.43 17.28"/><line class="cls-4" x1="158.18" y1="101.18" x2="151.43" y2="101.18"/><line class="cls-4" x1="158.18" y1="159.86" x2="151.43" y2="159.86"/><polyline class="cls-4" points="21.45 193.42 21.45 196.8 21.45 200.17"/><polyline class="cls-4" points="65.93 193.42 55.01 193.42 55.01 196.8 55.01 200.17"/><polyline class="cls-4" points="21.45 193.42 17.28 193.42 17.28 200.17 21.45 200.17"/><line class="cls-4" x1="55.01" y1="200.17" x2="59.19" y2="200.17"/><line class="cls-5" x1="55.01" y1="193.42" x2="21.45" y2="193.42"/><line class="cls-5" x1="55.01" y1="200.17" x2="21.45" y2="200.17"/><path class="cls-4" d="M55,193.38a33.41,33.41,0,0,0-2-11.46"/><line class="cls-4" x1="21.45" y1="193.42" x2="52.97" y2="181.97"/><polyline class="cls-4" points="55.01 200.17 55.01 196.8 55.01 193.42 55.01 196.8"/><polyline class="cls-4" points="21.45 200.17 21.45 196.8 21.45 193.42 21.45 196.8"/><line class="cls-4" x1="251.31" y1="240.39" x2="251.31" y2="233.73"/><line class="cls-4" x1="158.18" y1="240.39" x2="158.18" y2="233.73"/><line class="cls-4" x1="151.43" y1="233.73" x2="65.93" y2="233.73"/><polyline class="cls-4" points="59.19 233.73 17.28 233.73 17.28 240.39 158.18 240.39"/><line class="cls-4" x1="158.18" y1="240.39" x2="158.18" y2="233.73"/><line class="cls-4" x1="251.31" y1="240.39" x2="251.31" y2="233.73"/><polyline class="cls-4" points="158.18 393.89 17.28 393.89 17.28 400.64 158.18 400.64 158.18 393.89"/><polyline class="cls-4" points="65.93 193.42 65.93 200.17 65.93 233.73"/><line class="cls-4" x1="59.19" y1="200.17" x2="59.19" y2="233.73"/><line class="cls-4" x1="23.23" y1="71.88" x2="23.23" y2="29.09"/><line class="cls-4" x1="27.58" y1="24.12" x2="122.22" y2="24.12"/><line class="cls-4" x1="27.58" y1="76.94" x2="122.22" y2="76.94"/><line class="cls-4" x1="148.94" y1="19.06" x2="18.88" y2="19.06"/><polyline class="cls-4" points="148.94 19.06 148.94 82 18.88 82 18.88 19.06"/><line class="cls-4" x1="107.04" y1="68.15" x2="32.99" y2="68.15"/><line class="cls-4" x1="30.77" y1="65.67" x2="30.77" y2="35.39"/><line class="cls-4" x1="107.04" y1="32.82" x2="32.99" y2="32.82"/><line class="cls-4" x1="46.05" y1="52.08" x2="46.05" y2="55.19"/><line class="cls-4" x1="44.71" y1="50.48" x2="41.96" y2="50.48"/><line class="cls-4" x1="46.05" y1="48.98" x2="46.05" y2="45.87"/><line class="cls-4" x1="47.38" y1="50.48" x2="50.04" y2="50.48"/><path class="cls-4" d="M122.27,76.85C134.84,76.85,145,65,145,50.44S134.84,24,122.27,24"/><path class="cls-4" d="M27.62,24c-2.38,0-4.3,2.24-4.3,5"/><path class="cls-4" d="M23.32,71.84c0,2.77,1.92,5,4.3,5"/><path class="cls-4" d="M46.09,47.82a2.65,2.65,0,1,0,2.26,2.62,2.46,2.46,0,0,0-2.26-2.62"/><path class="cls-4" d="M107.08,68.15c8.41,0,15.23-7.93,15.23-17.71s-6.82-17.71-15.23-17.71"/><path class="cls-4" d="M30.86,65.62A2.38,2.38,0,0,0,33,68.15"/><path class="cls-4" d="M33,32.82a2.38,2.38,0,0,0-2.18,2.53"/><path class="cls-4" d="M46.09,46.93a3.54,3.54,0,0,0,0,7,3.54,3.54,0,0,0,0-7"/><polyline class="cls-4" points="38.05 82 18.88 82 18.88 127.28 38.05 127.28"/><line class="cls-4" x1="18.88" y1="111.74" x2="18.88" y2="97.45"/><line class="cls-4" x1="34.33" y1="108.46" x2="34.33" y2="105.97"/><line class="cls-4" x1="30.51" y1="104.64" x2="32.91" y2="104.64"/><line class="cls-4" x1="34.33" y1="103.22" x2="34.33" y2="100.82"/><line class="cls-4" x1="35.66" y1="104.64" x2="38.14" y2="104.64"/><path class="cls-4" d="M39.29,84.75a20.19,20.19,0,0,0-9.55,7.83"/><path class="cls-4" d="M29.76,92.58a20.19,20.19,0,0,0-2.83,12"/><path class="cls-4" d="M29.74,116.62a20.25,20.25,0,0,0,9.55,7.83"/><path class="cls-4" d="M26.93,104.57a20.2,20.2,0,0,0,2.83,12.05"/><path class="cls-4" d="M53.31,103a37.25,37.25,0,0,0-3.74-13.75"/><path class="cls-4" d="M38.14,127.18a11.47,11.47,0,0,0,9.46-4.29"/><path class="cls-4" d="M53.36,106.18a24,24,0,0,0,0-3.17"/><path class="cls-4" d="M30.51,91.92a82.87,82.87,0,0,0,0,25.35"/><path class="cls-4" d="M22.58,119.62A28.4,28.4,0,0,0,41.07,126"/><path class="cls-4" d="M19.86,104.61a55.94,55.94,0,0,0,1.4,13"/><path class="cls-4" d="M21.28,117.51a3.77,3.77,0,0,0,1.29,2.08"/><path class="cls-4" d="M21.63,104.61a97.58,97.58,0,0,0,.92,12.78"/><path class="cls-4" d="M23.83,119.64A25.62,25.62,0,0,0,41.1,126"/><path class="cls-4" d="M22.55,117.37a3.82,3.82,0,0,0,1.25,2.31"/><path class="cls-4" d="M41.06,83.07A25.57,25.57,0,0,0,23.8,89.49"/><path class="cls-4" d="M41,83.16A28.45,28.45,0,0,0,22.55,89.6"/><path class="cls-4" d="M22.53,91.86a97.26,97.26,0,0,0-.9,12.76"/><path class="cls-4" d="M21.24,91.61a56.47,56.47,0,0,0-1.38,13"/><path class="cls-4" d="M23.79,89.52a3.85,3.85,0,0,0-1.24,2.31"/><path class="cls-4" d="M22.57,89.52a3.71,3.71,0,0,0-1.29,2.09"/><path class="cls-4" d="M47.6,86.22a11.5,11.5,0,0,0-9.46-4.3"/><path class="cls-4" d="M49.58,89.24a18.1,18.1,0,0,0-1.95-3"/><path class="cls-4" d="M47.63,123a18.1,18.1,0,0,0,1.95-3"/><path class="cls-4" d="M49.57,119.92a37.2,37.2,0,0,0,3.74-13.74"/><path class="cls-4" d="M50.1,110.84a26.59,26.59,0,0,0,0-12.48"/><path class="cls-4" d="M44.93,87a6.82,6.82,0,0,0-5.61-2.34"/><path class="cls-4" d="M50,98.38A24.59,24.59,0,0,0,44.85,87.1"/><path class="cls-4" d="M39.32,124.42a6.81,6.81,0,0,0,5.61-2.33"/><path class="cls-4" d="M44.85,122.09A24.55,24.55,0,0,0,50,110.81"/><path class="cls-4" d="M37.34,104.6a3,3,0,1,0-3,3,3,3,0,0,0,3-3"/><path class="cls-4" d="M36.46,104.6a2.09,2.09,0,1,0-2.09,2.08,2.1,2.1,0,0,0,2.09-2.08"/><line class="cls-4" x1="31.84" y1="136.78" x2="61.4" y2="136.78"/><polyline class="cls-4" points="30.07 135.54 18.88 135.54 18.88 167.41"/><line class="cls-4" x1="36.99" y1="151.52" x2="36.99" y2="163.33"/><polyline class="cls-4" points="61.41 136.78 36.99 139.71 36.99 151.52"/><line class="cls-4" x1="61.4" y1="166.17" x2="36.99" y2="163.33"/><line class="cls-4" x1="61.4" y1="137.58" x2="36.99" y2="140.42"/><line class="cls-4" x1="61.4" y1="165.46" x2="36.99" y2="162.53"/><line class="cls-4" x1="31.84" y1="166.17" x2="61.4" y2="166.17"/><line class="cls-4" x1="18.88" y1="167.41" x2="30.06" y2="167.41"/><polyline class="cls-4" points="61.41 136.78 64.69 137.22 67.8 138.47 70.46 140.51 72.68 143.17 74.19 146.28 74.99 149.74 74.99 153.29 74.19 156.67 72.68 159.87 70.46 162.53 67.8 164.48 64.69 165.72 61.41 166.17"/><polyline class="cls-4" points="61.41 137.58 64.51 137.94 67.44 139.18 70.02 141.04 72.06 143.62 73.48 146.55 74.28 149.83 74.28 153.21 73.48 156.4 72.06 159.42 70.02 161.91 67.44 163.86 64.51 165.01 61.41 165.46"/><path class="cls-4" d="M31.88,165.76a135.17,135.17,0,0,0,0-28.58"/><path class="cls-4" d="M32,137.16a1.89,1.89,0,0,0-1.9-1.62"/><path class="cls-4" d="M30.11,167.32a1.88,1.88,0,0,0,1.9-1.64"/><path class="cls-4" d="M27.49,151.47A1.56,1.56,0,1,0,25.94,153a1.56,1.56,0,0,0,1.55-1.56"/><polyline class="cls-4" points="67.53 289.04 21.45 289.04 21.45 242.97 67.53 242.97 67.53 289.04"/><polyline class="cls-4" points="63.36 247.14 63.36 284.87 29.8 284.87 29.8 247.14 63.36 247.14"/><polyline class="cls-4" points="181.62 830.53 181.26 830.53 181.26 876.69 181.62 876.69 181.62 830.53"/><polyline class="cls-4" points="180.02 878.38 180.02 877.94 102.78 877.94 102.78 878.38 180.02 878.38"/><polyline class="cls-4" points="101.09 876.69 101.53 876.69 101.53 830.53 101.09 830.53 101.09 876.69"/><polyline class="cls-4" points="182.06 828.49 180.02 828.49 180.02 830.53 182.06 830.53 182.06 828.49"/><polyline class="cls-4" points="182.06 876.69 180.02 876.69 180.02 878.83 182.06 878.83 182.06 876.69"/><polyline class="cls-4" points="102.78 878.83 102.78 876.69 100.73 876.69 100.73 878.83 102.78 878.83"/><polyline class="cls-4" points="100.73 830.53 102.78 830.53 102.78 828.49 100.73 828.49 100.73 830.53"/><line class="cls-4" x1="180.02" y1="829.55" x2="180.02" y2="876.69"/><line class="cls-4" x1="182.06" y1="878.83" x2="182.06" y2="829.55"/><line class="cls-4" x1="180.02" y1="876.69" x2="102.78" y2="876.69"/><line class="cls-4" x1="100.74" y1="878.83" x2="182.06" y2="878.83"/><line class="cls-4" x1="102.78" y1="876.69" x2="102.78" y2="829.55"/><line class="cls-4" x1="100.74" y1="829.55" x2="100.74" y2="878.83"/><polyline class="cls-4" points="182.06 829.55 182.06 828.49 180.02 828.49 180.02 829.55"/><polyline class="cls-4" points="102.78 829.55 102.78 828.49 100.73 828.49 100.73 829.55"/><polyline class="cls-4" points="100.73 878.83 182.06 878.83 182.06 829.55 180.02 829.55 180.02 876.69 102.78 876.69 102.78 829.55 100.73 829.55 100.73 878.83"/><polyline class="cls-4" points="104.91 863.73 177.89 863.73 177.89 836.83 104.91 836.83 104.91 863.73"/><polyline class="cls-4" points="104.91 860.98 177.89 860.98 177.89 836.83 104.91 836.83 104.91 860.98"/><line class="cls-6" x1="17.28" y1="393.9" x2="18.78" y2="393.9"/><line class="cls-7" x1="21.74" y1="393.9" x2="114.89" y2="393.9"/><polyline class="cls-6" points="116.37 393.89 117.87 393.89 117.87 392.39"/><line class="cls-8" x1="117.87" y1="389.44" x2="117.87" y2="243.37"/><line class="cls-6" x1="117.87" y1="241.89" x2="117.87" y2="240.39"/><polyline class="cls-4" points="277.32 223.61 277.32 240.39 327.66 240.39"/><polyline class="cls-4" points="17.28 440.06 0.5 440.06 0.5 523.96 17.28 523.96 17.28 440.06"/><polyline class="cls-4" points="327.66 440.06 310.88 440.06 310.88 523.96 327.66 523.96 327.66 440.06"/><polyline class="cls-4" points="17.28 716.89 0.5 716.89 0.5 800.78 17.28 800.78 17.28 716.89"/><polyline class="cls-4" points="327.66 716.89 310.88 716.89 310.88 800.78 327.66 800.78 327.66 716.89"/><polyline class="cls-9" points="327.66 686.91 327.66 537.83 327.66 537.83"/><line class="cls-9" x1="327.66" y1="587.62" x2="327.66" y2="587.62"/><line class="cls-9" x1="327.66" y1="686.91" x2="327.66" y2="686.91"/><line class="cls-9" x1="327.66" y1="637.41" x2="327.66" y2="637.41"/><text class="cls-10" transform="translate(141.52 625.92)">CT</text><text class="cls-11" transform="translate(115.52 676.1)">29.26</text><text class="cls-10" transform="translate(110.88 576.02)">№254</text><polyline class="cls-6" points="101.88 686.91 101.88 537.83 226.2 537.83 226.2 686.91"/><line class="cls-6" x1="101.87" y1="587.62" x2="226.2" y2="587.62"/><line class="cls-6" x1="101.87" y1="686.91" x2="226.2" y2="686.91"/><line class="cls-6" x1="101.87" y1="637.41" x2="226.2" y2="637.41"/><text class="cls-12" transform="translate(120.95 758.83)">20.35</text><text class="cls-12" transform="translate(167.36 174.96)">2.86</text><text class="cls-12" transform="translate(71.09 127.19)">3.85</text><text class="cls-12" transform="translate(32.65 355.4)">2.20</text><line class="cls-9" x1="151.43" y1="103.28" x2="151.43" y2="103.78"/><line class="cls-13" x1="151.43" y1="104.77" x2="151.43" y2="161.74"/><line class="cls-9" x1="151.43" y1="162.24" x2="151.43" y2="162.74"/><line class="cls-9" x1="158.18" y1="103.28" x2="158.18" y2="103.78"/><line class="cls-13" x1="158.18" y1="104.77" x2="158.18" y2="161.74"/><line class="cls-9" x1="158.18" y1="162.24" x2="158.18" y2="162.74"/><line class="cls-9" x1="268.09" y1="58" x2="268.09" y2="58.5"/><line class="cls-14" x1="268.09" y1="59.5" x2="268.09" y2="140.4"/><line class="cls-9" x1="268.09" y1="140.9" x2="268.09" y2="141.4"/></svg>