<svg id="_405" data-name="405" xmlns="http://www.w3.org/2000/svg" viewBox="0 0 327.68 693.19"><defs><style>.cls-1{isolation:isolate;font-size:12px;fill:#969696;}.cls-1,.cls-4,.cls-5,.cls-7{font-family:PTSans-Regular, PT Sans;}.cls-2{letter-spacing:-0.01em;}.cls-10,.cls-11,.cls-12,.cls-13,.cls-14,.cls-3,.cls-6,.cls-8,.cls-9{fill:none;stroke-linecap:round;stroke-linejoin:round;}.cls-3{stroke:#969696;stroke-width:0.75px;}.cls-4{font-size:40px;}.cls-5{font-size:40.54px;}.cls-10,.cls-11,.cls-12,.cls-13,.cls-14,.cls-6,.cls-8,.cls-9{stroke:#000;}.cls-12,.cls-13,.cls-6{stroke-width:0.5px;}.cls-7{font-size:36px;}.cls-10,.cls-11,.cls-8,.cls-9{stroke-width:0.25px;}.cls-9{stroke-dasharray:0.99 0.99;}.cls-10{stroke-dasharray:0.99 0.99;}.cls-11{stroke-dasharray:0.99 0.99;}.cls-12{stroke-dasharray:2.99 2.99;}.cls-13{stroke-dasharray:3.02 3.02;}</style></defs><title>13floor_405flat</title><text class="cls-1" transform="translate(158.27 689.99)"><tspan class="cls-2">у</tspan><tspan x="5.42" y="0">лица</tspan></text><line class="cls-3" x1="147.51" y1="692.81" x2="147.51" y2="684.01"/><polyline class="cls-3" points="144.01 689.31 147.51 692.81 151.01 689.31"/><text class="cls-4" transform="translate(219.23 404.48)">CT</text><text class="cls-5" transform="translate(193.23 454.65)">21.11</text><text class="cls-4" transform="translate(188.59 354.57)">№405</text><polyline class="cls-6" points="179.59 465.46 179.59 316.39 303.91 316.39 303.91 465.46"/><line class="cls-6" x1="179.59" y1="366.17" x2="303.91" y2="366.17"/><line class="cls-6" x1="179.59" y1="465.46" x2="303.91" y2="465.46"/><line class="cls-6" x1="179.59" y1="415.96" x2="303.91" y2="415.96"/><text class="cls-7" transform="translate(117.29 537.39)">11.94</text><text class="cls-7" transform="translate(210.84 131.46)">3.20</text><text class="cls-7" transform="translate(83.68 131.46)">3.77</text><text class="cls-7" transform="translate(82.62 316.39)">2.20</text><line class="cls-8" x1="172.22" y1="92.4" x2="172.22" y2="92.9"/><line class="cls-9" x1="172.22" y1="93.89" x2="172.22" y2="150.87"/><line class="cls-8" x1="172.22" y1="151.36" x2="172.22" y2="151.86"/><line class="cls-8" x1="178.87" y1="92.4" x2="178.87" y2="92.9"/><line class="cls-9" x1="178.87" y1="93.89" x2="178.87" y2="150.87"/><line class="cls-8" x1="178.87" y1="151.36" x2="178.87" y2="151.86"/><line class="cls-8" x1="274.48" y1="194.83" x2="273.98" y2="194.83"/><line class="cls-10" x1="272.98" y1="194.83" x2="194.15" y2="194.83"/><line class="cls-8" x1="193.65" y1="194.83" x2="193.15" y2="194.83"/><line class="cls-8" x1="273.19" y1="188.09" x2="272.69" y2="188.09"/><line class="cls-10" x1="271.7" y1="188.09" x2="192.87" y2="188.09"/><line class="cls-8" x1="192.37" y1="188.09" x2="191.87" y2="188.09"/><line class="cls-8" x1="187.64" y1="2.17" x2="188.14" y2="2.17"/><line class="cls-11" x1="189.13" y1="2.17" x2="264.21" y2="2.17"/><line class="cls-8" x1="264.71" y1="2.17" x2="265.21" y2="2.17"/><line class="cls-6" x1="17.26" y1="346.11" x2="18.76" y2="346.11"/><line class="cls-12" x1="21.75" y1="346.11" x2="169.84" y2="346.11"/><polyline class="cls-6" points="171.34 346.11 172.84 346.11 172.84 344.61"/><line class="cls-13" x1="172.84" y1="341.59" x2="172.84" y2="246.42"/><line class="cls-6" x1="172.84" y1="244.91" x2="172.84" y2="243.41"/><line class="cls-14" x1="25.59" y1="594.38" x2="79.22" y2="594.38"/><line class="cls-14" x1="243.41" y1="594.38" x2="327.18" y2="594.38"/><line class="cls-14" x1="25.59" y1="593.58" x2="75.85" y2="593.58"/><line class="cls-14" x1="246.78" y1="593.58" x2="327.18" y2="593.58"/><line class="cls-14" x1="246.78" y1="588.53" x2="246.78" y2="560.07"/><line class="cls-14" x1="243.41" y1="604.4" x2="243.41" y2="594.38"/><line class="cls-14" x1="246.78" y1="593.58" x2="246.78" y2="588.53"/><line class="cls-14" x1="75.85" y1="588.53" x2="75.85" y2="560.07"/><line class="cls-14" x1="79.22" y1="604.4" x2="79.22" y2="594.38"/><line class="cls-14" x1="75.85" y1="593.58" x2="75.85" y2="588.53"/><line class="cls-14" x1="327.18" y1="560.07" x2="246.78" y2="560.07"/><line class="cls-14" x1="75.85" y1="560.07" x2="25.59" y2="560.07"/><line class="cls-14" x1="25.59" y1="604.4" x2="79.22" y2="604.4"/><polyline class="cls-14" points="243.41 604.4 327.18 604.4 327.18 554.64"/><polyline class="cls-14" points="243.41 604.4 79.22 604.4 79.22 608.65 243.41 608.65 243.41 604.4"/><line class="cls-14" x1="75.85" y1="560.07" x2="246.78" y2="560.07"/><polyline class="cls-14" points="75.85 588.53 80.46 588.53 80.46 591.9 82.59 591.9 82.59 593.58 75.85 593.58"/><polyline class="cls-14" points="133.92 593.58 130.55 593.58 130.55 591.9 132.68 591.9 132.68 588.53 133.92 588.53"/><line class="cls-14" x1="130.55" y1="593.58" x2="82.59" y2="593.58"/><polyline class="cls-14" points="80.46 586.85 85.52 586.85 127.63 586.85"/><polyline class="cls-14" points="85.52 586.85 85.52 591.9 80.46 591.9 80.46 586.85"/><polyline class="cls-14" points="132.68 591.9 127.63 591.9 127.63 586.85 132.68 586.85 132.68 591.9"/><line class="cls-14" x1="127.63" y1="591.9" x2="85.52" y2="591.9"/><line class="cls-14" x1="85.52" y1="586.85" x2="127.63" y2="586.85"/><line class="cls-14" x1="85.52" y1="589.33" x2="127.63" y2="589.33"/><polyline class="cls-14" points="133.92 588.53 135.16 588.53 135.16 591.9 137.29 591.9 137.29 593.58 133.92 593.58"/><polyline class="cls-14" points="188.62 593.58 185.34 593.58 185.34 591.9 187.38 591.9 187.38 588.53 188.62 588.53"/><line class="cls-14" x1="185.34" y1="593.58" x2="137.29" y2="593.58"/><polyline class="cls-14" points="135.16 586.85 140.22 586.85 182.41 586.85"/><polyline class="cls-14" points="140.22 586.85 140.22 591.9 135.16 591.9 135.16 586.85"/><polyline class="cls-14" points="187.38 591.9 182.41 591.9 182.41 586.85 187.38 586.85 187.38 591.9"/><line class="cls-14" x1="182.41" y1="591.9" x2="140.22" y2="591.9"/><line class="cls-14" x1="140.22" y1="586.85" x2="182.41" y2="586.85"/><line class="cls-14" x1="140.22" y1="589.33" x2="182.41" y2="589.33"/><polyline class="cls-14" points="188.62 588.53 189.95 588.53 189.95 591.9 191.99 591.9 191.99 593.58 188.62 593.58"/><polyline class="cls-14" points="246.78 593.58 240.04 593.58 240.04 591.9 242.17 591.9 242.17 588.53 246.78 588.53"/><line class="cls-14" x1="240.04" y1="593.58" x2="191.99" y2="593.58"/><polyline class="cls-14" points="189.95 586.85 194.91 586.85 237.11 586.85"/><polyline class="cls-14" points="194.91 586.85 194.91 591.9 189.95 591.9 189.95 586.85"/><polyline class="cls-14" points="242.17 591.9 237.11 591.9 237.11 586.85 242.17 586.85 242.17 591.9"/><line class="cls-14" x1="237.11" y1="591.9" x2="194.91" y2="591.9"/><line class="cls-14" x1="194.91" y1="586.85" x2="237.11" y2="586.85"/><line class="cls-14" x1="194.91" y1="589.33" x2="237.11" y2="589.33"/><polyline class="cls-14" points="75.85 588.53 75.85 593.58 75.85 588.53"/><polyline class="cls-14" points="75.85 593.58 79.22 593.58 75.85 593.58"/><polyline class="cls-14" points="79.22 604.4 79.22 594.38 79.22 593.58"/><line class="cls-14" x1="75.85" y1="588.53" x2="75.85" y2="560.07"/><polyline class="cls-14" points="246.78 588.53 246.78 593.58 246.78 588.53"/><polyline class="cls-14" points="246.78 593.58 243.41 593.58 246.78 593.58"/><polyline class="cls-14" points="243.41 604.4 243.41 594.38 243.41 593.58"/><line class="cls-14" x1="246.78" y1="588.53" x2="246.78" y2="560.07"/><line class="cls-14" x1="0.5" y1="594.38" x2="25.59" y2="594.38"/><line class="cls-14" x1="0.5" y1="593.58" x2="25.59" y2="593.58"/><line class="cls-14" x1="25.59" y1="560.07" x2="0.5" y2="560.07"/><polyline class="cls-14" points="25.59 604.4 0.5 604.4 0.5 549.9"/><polyline class="cls-14" points="310.43 17.25 310.43 560.07 327.18 560.07 327.18 17.25"/><polyline class="cls-14" points="268.5 0.5 268.5 7.15 268.5 17.25"/><polyline class="cls-14" points="184.72 0.5 184.72 7.15 184.72 17.25"/><polyline class="cls-14" points="327.18 0.5 310.43 0.5 268.5 0.5"/><line class="cls-14" x1="184.72" y1="0.5" x2="0.5" y2="0.5"/><line class="cls-14" x1="0.5" y1="17.26" x2="0.5" y2="17.26"/><line class="cls-14" x1="17.26" y1="17.26" x2="184.72" y2="17.26"/><line class="cls-14" x1="268.5" y1="17.26" x2="310.43" y2="17.26"/><line class="cls-14" x1="184.72" y1="0.5" x2="184.99" y2="0.5"/><line class="cls-14" x1="185.07" y1="0.5" x2="185.07" y2="0.5"/><line class="cls-14" x1="184.72" y1="17.26" x2="184.99" y2="17.26"/><line class="cls-14" x1="185.07" y1="17.26" x2="185.07" y2="17.26"/><path class="cls-14" d="M188.09,6.6a77.08,77.08,0,0,0,77.08,77.09" transform="translate(0 0.5)"/><polyline class="cls-14" points="184.72 0.5 188.09 0.5 188.09 7.15 184.72 7.15 184.72 0.5"/><polyline class="cls-14" points="268.5 7.15 265.13 7.15 265.13 0.5 268.5 0.5 268.5 7.15"/><line class="cls-14" x1="265.13" y1="7.15" x2="265.13" y2="84.28"/><polyline class="cls-14" points="184.72 17.25 184.72 7.15 184.72 0.5 184.72 7.15"/><polyline class="cls-14" points="268.5 17.25 268.5 7.15 268.5 0.5 268.5 7.15"/><polyline class="cls-14" points="0.5 0.5 0.5 560.07 17.25 560.07 17.25 17.25"/><polyline class="cls-14" points="310.43 188.09 305.38 188.09 305.38 194.82 310.43 194.82 310.43 188.09"/><line class="cls-14" x1="178.87" y1="151.3" x2="172.22" y2="151.3"/><line class="cls-14" x1="178.87" y1="92.61" x2="172.22" y2="92.61"/><line class="cls-14" x1="178.87" y1="243.41" x2="178.87" y2="151.3"/><polyline class="cls-14" points="178.87 92.61 178.87 17.25 172.22 17.25 172.22 59.1"/><line class="cls-14" x1="172.22" y1="65.84" x2="172.22" y2="92.61"/><line class="cls-14" x1="172.22" y1="151.3" x2="172.22" y2="236.67"/><line class="cls-14" x1="194.47" y1="188.09" x2="194.47" y2="194.83"/><polyline class="cls-14" points="310.43 188.09 269.91 188.09 269.91 194.82"/><polyline class="cls-14" points="194.47 188.09 178.87 188.09 178.87 194.82 194.47 194.82"/><polyline class="cls-14" points="269.91 194.82 310.43 194.82 310.43 188.09"/><polyline class="cls-14" points="65.84 59.1 65.84 17.25 59.1 17.25 59.1 59.1"/><polyline class="cls-14" points="172.22 236.67 17.25 236.67 17.25 243.41"/><polyline class="cls-14" points="178.87 243.41 172.22 243.41 17.25 243.41"/><polyline class="cls-14" points="21.42 65.84 21.42 62.47 21.42 59.1"/><polyline class="cls-14" points="54.93 65.84 54.93 62.47 54.93 59.1"/><line class="cls-14" x1="172.22" y1="59.1" x2="65.84" y2="59.1"/><line class="cls-14" x1="59.1" y1="59.1" x2="54.93" y2="59.1"/><polyline class="cls-14" points="21.42 59.1 17.25 59.1 17.25 65.84 21.42 65.84"/><line class="cls-14" x1="54.93" y1="65.84" x2="172.22" y2="65.84"/><line class="cls-14" x1="54.93" y1="65.84" x2="21.42" y2="65.84"/><line class="cls-14" x1="54.93" y1="59.1" x2="21.42" y2="59.1"/><path class="cls-14" d="M52.92,76.74a33.59,33.59,0,0,0,2-11.45" transform="translate(0 0.5)"/><line class="cls-14" x1="21.42" y1="65.84" x2="52.89" y2="77.27"/><polyline class="cls-14" points="54.93 59.1 54.93 62.47 54.93 65.84 54.93 62.47"/><polyline class="cls-14" points="21.42 59.1 21.42 62.47 21.42 65.84 21.42 62.47"/><line class="cls-14" x1="327.18" y1="0.5" x2="327.18" y2="0.5"/><line class="cls-14" x1="327.18" y1="0.5" x2="327.18" y2="17.26"/><line class="cls-14" x1="23.64" y1="224.97" x2="23.64" y2="182.24"/><line class="cls-14" x1="28.43" y1="177.27" x2="132.06" y2="177.27"/><line class="cls-14" x1="28.43" y1="230.02" x2="132.06" y2="230.02"/><line class="cls-14" x1="161.31" y1="172.22" x2="18.85" y2="172.22"/><polyline class="cls-14" points="161.31 172.22 161.31 234.99 18.85 234.99 18.85 172.22"/><line class="cls-14" x1="115.39" y1="221.24" x2="34.28" y2="221.24"/><line class="cls-14" x1="31.88" y1="218.76" x2="31.88" y2="188.44"/><line class="cls-14" x1="115.39" y1="185.96" x2="34.28" y2="185.96"/><line class="cls-14" x1="48.55" y1="205.2" x2="48.55" y2="208.3"/><line class="cls-14" x1="47.13" y1="203.6" x2="44.21" y2="203.6"/><line class="cls-14" x1="48.55" y1="202.09" x2="48.55" y2="198.99"/><line class="cls-14" x1="50.06" y1="203.6" x2="52.98" y2="203.6"/><path class="cls-14" d="M132.11,229.43c13.78,0,24.95-11.81,24.95-26.37s-11.17-26.38-24.95-26.38" transform="translate(0 0.5)"/><path class="cls-14" d="M28.47,176.68a4.88,4.88,0,0,0-4.74,5" transform="translate(0 0.5)"/><path class="cls-14" d="M23.73,224.42a4.88,4.88,0,0,0,4.74,5" transform="translate(0 0.5)"/><path class="cls-14" d="M48.6,200.44A2.62,2.62,0,1,0,51,203.06a2.53,2.53,0,0,0-2.43-2.62" transform="translate(0 0.5)"/><path class="cls-14" d="M115.44,220.74c9.18,0,16.62-7.91,16.62-17.68s-7.44-17.69-16.62-17.69" transform="translate(0 0.5)"/><path class="cls-14" d="M32,218.22a2.45,2.45,0,0,0,2.35,2.52" transform="translate(0 0.5)"/><path class="cls-14" d="M34.32,185.37A2.45,2.45,0,0,0,32,187.9" transform="translate(0 0.5)"/><path class="cls-14" d="M48.6,199.56a3.5,3.5,0,1,0,3.32,3.5,3.41,3.41,0,0,0-3.32-3.5" transform="translate(0 0.5)"/><polyline class="cls-14" points="38 127.01 18.85 127.01 18.85 172.22 38 172.22"/><line class="cls-14" x1="18.85" y1="156.71" x2="18.85" y2="142.43"/><line class="cls-14" x1="34.28" y1="153.42" x2="34.28" y2="150.94"/><line class="cls-14" x1="30.46" y1="149.61" x2="32.86" y2="149.61"/><line class="cls-14" x1="34.28" y1="148.19" x2="34.28" y2="145.8"/><line class="cls-14" x1="35.61" y1="149.61" x2="38.09" y2="149.61"/><path class="cls-14" d="M39.24,129.16A20.14,20.14,0,0,0,29.7,137" transform="translate(0 0.5)"/><path class="cls-14" d="M29.72,137a20.19,20.19,0,0,0-2.82,12" transform="translate(0 0.5)"/><path class="cls-14" d="M29.7,161.07a20.2,20.2,0,0,0,9.54,7.82" transform="translate(0 0.5)"/><path class="cls-14" d="M26.9,149.05a20.19,20.19,0,0,0,2.82,12" transform="translate(0 0.5)"/><path class="cls-14" d="M53.24,147.49a37.1,37.1,0,0,0-3.74-13.72" transform="translate(0 0.5)"/><path class="cls-14" d="M38.09,171.62a11.43,11.43,0,0,0,9.44-4.29" transform="translate(0 0.5)"/><path class="cls-14" d="M53.28,150.65a21,21,0,0,0,0-3.17" transform="translate(0 0.5)"/><path class="cls-14" d="M30.47,136.41a82.62,82.62,0,0,0,0,25.31" transform="translate(0 0.5)"/><path class="cls-14" d="M22.55,164.06A28.35,28.35,0,0,0,41,170.47" transform="translate(0 0.5)"/><path class="cls-14" d="M19.83,149.08A57,57,0,0,0,21.23,162" transform="translate(0 0.5)"/><path class="cls-14" d="M21.25,162A3.77,3.77,0,0,0,22.54,164" transform="translate(0 0.5)"/><path class="cls-14" d="M21.6,149.08a97.28,97.28,0,0,0,.92,12.76" transform="translate(0 0.5)"/><path class="cls-14" d="M23.79,164.09A25.63,25.63,0,0,0,41,170.48" transform="translate(0 0.5)"/><path class="cls-14" d="M22.52,161.82a3.85,3.85,0,0,0,1.24,2.31" transform="translate(0 0.5)"/><path class="cls-14" d="M41,127.57A25.59,25.59,0,0,0,23.77,134" transform="translate(0 0.5)"/><path class="cls-14" d="M41,127.66a28.46,28.46,0,0,0-18.46,6.44" transform="translate(0 0.5)"/><path class="cls-14" d="M22.5,136.35a97,97,0,0,0-.9,12.74" transform="translate(0 0.5)"/><path class="cls-14" d="M21.21,136.1A56.86,56.86,0,0,0,19.83,149" transform="translate(0 0.5)"/><path class="cls-14" d="M23.76,134a3.8,3.8,0,0,0-1.24,2.31" transform="translate(0 0.5)"/><path class="cls-14" d="M22.54,134a3.74,3.74,0,0,0-1.29,2.09" transform="translate(0 0.5)"/><path class="cls-14" d="M47.53,130.71a11.45,11.45,0,0,0-9.44-4.28" transform="translate(0 0.5)"/><path class="cls-14" d="M49.51,133.73a18.44,18.44,0,0,0-1.95-3" transform="translate(0 0.5)"/><path class="cls-14" d="M47.56,167.41a17.62,17.62,0,0,0,1.95-3" transform="translate(0 0.5)"/><path class="cls-14" d="M49.5,164.37a37.1,37.1,0,0,0,3.74-13.73" transform="translate(0 0.5)"/><path class="cls-14" d="M50,155.3a26.77,26.77,0,0,0,0-12.46" transform="translate(0 0.5)"/><path class="cls-14" d="M44.86,131.52a6.77,6.77,0,0,0-5.59-2.34" transform="translate(0 0.5)"/><path class="cls-14" d="M50,142.86a24.52,24.52,0,0,0-5.17-11.26" transform="translate(0 0.5)"/><path class="cls-14" d="M39.27,168.87a6.77,6.77,0,0,0,5.59-2.34" transform="translate(0 0.5)"/><path class="cls-14" d="M44.87,166.54A24.51,24.51,0,0,0,50,155.27" transform="translate(0 0.5)"/><path class="cls-14" d="M37.29,149.07a3,3,0,1,0-3,3,3,3,0,0,0,3-3" transform="translate(0 0.5)"/><path class="cls-14" d="M36.41,149.07a2.09,2.09,0,1,0-2.09,2.08,2.09,2.09,0,0,0,2.09-2.08" transform="translate(0 0.5)"/><line class="cls-14" x1="31.79" y1="84.63" x2="61.32" y2="84.63"/><polyline class="cls-14" points="30.02 83.39 18.85 83.39 18.85 115.22"/><line class="cls-14" x1="36.94" y1="99.35" x2="36.94" y2="111.14"/><polyline class="cls-14" points="61.31 84.63 36.94 87.56 36.94 99.35"/><line class="cls-14" x1="61.32" y1="113.97" x2="36.94" y2="111.14"/><line class="cls-14" x1="61.32" y1="85.43" x2="36.94" y2="88.27"/><line class="cls-14" x1="61.32" y1="113.27" x2="36.94" y2="110.34"/><line class="cls-14" x1="31.79" y1="113.97" x2="61.32" y2="113.97"/><line class="cls-14" x1="18.85" y1="115.22" x2="30.02" y2="115.22"/><polyline class="cls-14" points="61.31 84.63 64.59 85.07 67.7 86.31 70.36 88.35 72.57 91.01 74.08 94.12 74.88 97.57 74.88 101.12 74.08 104.49 72.57 107.68 70.36 110.34 67.7 112.29 64.59 113.53 61.31 113.97"/><polyline class="cls-14" points="61.31 85.43 64.42 85.78 67.34 87.02 69.92 88.89 71.95 91.46 73.46 94.38 74.17 97.66 74.17 101.03 73.46 104.22 71.95 107.24 69.92 109.72 67.34 111.67 64.42 112.82 61.31 113.27"/><path class="cls-14" d="M31.84,113.06a134.7,134.7,0,0,0,0-28.53" transform="translate(0 0.5)"/><path class="cls-14" d="M32,84.51a1.87,1.87,0,0,0-1.89-1.62" transform="translate(0 0.5)"/><path class="cls-14" d="M30.07,114.63A1.86,1.86,0,0,0,32,113" transform="translate(0 0.5)"/><path class="cls-14" d="M27.45,98.8a1.55,1.55,0,1,0-1.55,1.55,1.55,1.55,0,0,0,1.55-1.55" transform="translate(0 0.5)"/><polyline class="cls-14" points="19.74 293.67 65.84 293.67 65.84 247.57 19.74 247.57 19.74 293.67"/><polyline class="cls-14" points="23.9 289.51 61.58 289.51 61.58 256 23.9 256 23.9 289.51"/><polyline class="cls-14" points="160.43 606.53 160.07 606.53 160.07 652.63 160.43 652.63 160.43 606.53"/><polyline class="cls-14" points="158.74 654.31 158.74 653.87 81.7 653.87 81.7 654.31 158.74 654.31"/><polyline class="cls-14" points="80.02 652.63 80.46 652.63 80.46 606.53 80.02 606.53 80.02 652.63"/><polyline class="cls-14" points="160.87 604.4 158.74 604.4 158.74 606.53 160.87 606.53 160.87 604.4"/><polyline class="cls-14" points="160.87 652.63 158.74 652.63 158.74 654.66 160.87 654.66 160.87 652.63"/><polyline class="cls-14" points="81.7 654.66 81.7 652.63 79.67 652.63 79.67 654.66 81.7 654.66"/><polyline class="cls-14" points="79.67 606.53 81.7 606.53 81.7 604.4 79.67 604.4 79.67 606.53"/><line class="cls-14" x1="158.74" y1="605.46" x2="158.74" y2="652.63"/><line class="cls-14" x1="160.87" y1="654.66" x2="160.87" y2="605.46"/><line class="cls-14" x1="158.74" y1="652.63" x2="81.71" y2="652.63"/><line class="cls-14" x1="79.67" y1="654.66" x2="160.87" y2="654.66"/><line class="cls-14" x1="81.71" y1="652.63" x2="81.71" y2="605.46"/><line class="cls-14" x1="79.67" y1="605.46" x2="79.67" y2="654.66"/><polyline class="cls-14" points="160.87 605.46 160.87 604.4 158.74 604.4 158.74 605.46"/><polyline class="cls-14" points="81.7 605.46 81.7 604.4 79.67 604.4 79.67 605.46"/><polyline class="cls-14" points="79.67 654.66 160.87 654.66 160.87 605.46 158.74 605.46 158.74 652.63 81.7 652.63 81.7 605.46 79.67 605.46 79.67 654.66"/><polyline class="cls-14" points="83.83 639.59 156.71 639.59 156.71 612.82 83.83 612.82 83.83 639.59"/><polyline class="cls-14" points="83.83 636.93 156.71 636.93 156.71 612.82 83.83 612.82 83.83 636.93"/><polyline class="cls-14" points="0.5 216.63 17.25 216.63 17.25 300.41 0.5 300.41 0.5 216.63"/><polyline class="cls-14" points="310.43 216.63 327.18 216.63 327.18 300.41 310.43 300.41 310.43 216.63"/><polyline class="cls-14" points="0.5 493.05 17.25 493.05 17.25 576.83 0.5 576.83 0.5 493.05"/><polyline class="cls-14" points="310.43 493.05 327.18 493.05 327.18 576.83 310.43 576.83 310.43 493.05"/><polyline class="cls-14" points="0.5 17.25 50.77 17.25 50.77 0.5 0.5 0.5"/></svg>