<svg id="_403" data-name="403" xmlns="http://www.w3.org/2000/svg" viewBox="0 0 547.98 692.19"><defs><style>.cls-1{isolation:isolate;font-size:12px;fill:#969696;}.cls-1,.cls-4,.cls-5,.cls-7{font-family:PTSans-Regular, PT Sans;}.cls-2{letter-spacing:-0.01em;}.cls-10,.cls-11,.cls-12,.cls-13,.cls-14,.cls-15,.cls-16,.cls-3,.cls-6,.cls-8,.cls-9{fill:none;stroke-linecap:round;stroke-linejoin:round;}.cls-3{stroke:#969696;stroke-width:0.75px;}.cls-4{font-size:40px;}.cls-5{font-size:40.54px;}.cls-10,.cls-11,.cls-12,.cls-13,.cls-14,.cls-15,.cls-16,.cls-6,.cls-8,.cls-9{stroke:#000;}.cls-14,.cls-15,.cls-6{stroke-width:0.5px;}.cls-7{font-size:36px;}.cls-10,.cls-11,.cls-12,.cls-13,.cls-8,.cls-9{stroke-width:0.25px;}.cls-9{stroke-dasharray:0.99 0.99;}.cls-10{stroke-dasharray:0.99 0.99;}.cls-11{stroke-dasharray:1 1;}.cls-12{stroke-dasharray:0.99 0.99;}.cls-13{stroke-dasharray:0.99 0.99;}.cls-14{stroke-dasharray:3.02 3.02;}.cls-15{stroke-dasharray:3.06 3.06;}</style></defs><title>13floor_403flat</title><text class="cls-1" transform="translate(268.42 688.99)"><tspan class="cls-2">у</tspan><tspan x="5.42" y="0">лица</tspan></text><line class="cls-3" x1="257.66" y1="691.81" x2="257.66" y2="683.01"/><polyline class="cls-3" points="254.16 688.31 257.66 691.81 261.16 688.31"/><text class="cls-4" transform="translate(362.38 404.48)">2E</text><text class="cls-5" transform="translate(335.48 454.65)">34.53</text><text class="cls-4" transform="translate(330.84 354.57)">№403</text><polyline class="cls-6" points="321.83 465.46 321.83 316.39 446.16 316.39 446.16 465.46"/><line class="cls-6" x1="321.83" y1="366.17" x2="446.16" y2="366.17"/><line class="cls-6" x1="321.83" y1="465.46" x2="446.16" y2="465.46"/><line class="cls-6" x1="321.83" y1="415.96" x2="446.16" y2="415.96"/><text class="cls-7" transform="translate(97.42 537.39)">8.95</text><text class="cls-7" transform="translate(341.3 537.39)">12.52</text><text class="cls-7" transform="translate(393.11 131.46)">2.89</text><text class="cls-7" transform="translate(227.84 131.46)">4.40</text><text class="cls-7" transform="translate(83.97 131.46)">3.57</text><text class="cls-7" transform="translate(92.36 316.39)">2.20</text><line class="cls-8" x1="163.8" y1="91.84" x2="163.8" y2="92.34"/><line class="cls-9" x1="163.8" y1="93.33" x2="163.8" y2="150.3"/><line class="cls-8" x1="163.8" y1="150.8" x2="163.8" y2="151.3"/><line class="cls-8" x1="170.54" y1="93.05" x2="170.54" y2="93.55"/><line class="cls-9" x1="170.54" y1="94.54" x2="170.54" y2="151.52"/><line class="cls-8" x1="170.54" y1="152.01" x2="170.54" y2="152.51"/><line class="cls-8" x1="352.27" y1="92.7" x2="352.27" y2="93.2"/><line class="cls-9" x1="352.27" y1="94.19" x2="352.27" y2="151.16"/><line class="cls-8" x1="352.27" y1="151.66" x2="352.27" y2="152.16"/><line class="cls-8" x1="359.01" y1="92.26" x2="359.01" y2="92.76"/><line class="cls-9" x1="359.01" y1="93.75" x2="359.01" y2="150.72"/><line class="cls-8" x1="359.01" y1="151.22" x2="359.01" y2="151.72"/><line class="cls-8" x1="344.06" y1="188.09" x2="343.56" y2="188.09"/><line class="cls-10" x1="342.57" y1="188.09" x2="269.59" y2="188.09"/><line class="cls-8" x1="269.1" y1="188.09" x2="268.6" y2="188.09"/><line class="cls-8" x1="254.71" y1="188.09" x2="254.21" y2="188.09"/><line class="cls-11" x1="253.21" y1="188.09" x2="175.82" y2="188.09"/><line class="cls-8" x1="175.32" y1="188.09" x2="174.82" y2="188.09"/><line class="cls-8" x1="342.51" y1="194.83" x2="342.01" y2="194.83"/><line class="cls-10" x1="341.01" y1="194.83" x2="268.04" y2="194.83"/><line class="cls-8" x1="267.54" y1="194.83" x2="267.04" y2="194.83"/><line class="cls-8" x1="251.93" y1="195.4" x2="251.43" y2="195.4"/><line class="cls-12" x1="250.44" y1="195.4" x2="171.6" y2="195.4"/><line class="cls-8" x1="171.1" y1="195.4" x2="170.6" y2="195.4"/><line class="cls-8" x1="187.07" y1="0.5" x2="187.57" y2="0.5"/><line class="cls-13" x1="188.57" y1="0.5" x2="263.65" y2="0.5"/><line class="cls-8" x1="264.14" y1="0.5" x2="264.64" y2="0.5"/><line class="cls-6" x1="19.47" y1="346.11" x2="20.97" y2="346.11"/><line class="cls-14" x1="23.99" y1="346.11" x2="167.52" y2="346.11"/><polyline class="cls-6" points="169.03 346.11 170.53 346.11 170.53 344.61"/><line class="cls-15" x1="170.54" y1="341.55" x2="170.54" y2="245.18"/><line class="cls-6" x1="170.54" y1="243.65" x2="170.54" y2="242.15"/><line class="cls-16" x1="0.5" y1="594.38" x2="58.3" y2="594.38"/><line class="cls-16" x1="200.68" y1="594.38" x2="319.65" y2="594.38"/><polyline class="cls-16" points="462.02 594.38 536.58 594.38 537.38 594.38 536.58 594.38"/><line class="cls-16" x1="0.5" y1="593.58" x2="54.93" y2="593.58"/><line class="cls-16" x1="204.05" y1="593.58" x2="316.28" y2="593.58"/><polyline class="cls-16" points="465.39 593.58 503.07 593.58 536.58 593.58 503.07 593.58"/><line class="cls-16" x1="54.93" y1="588.53" x2="54.93" y2="560.07"/><line class="cls-16" x1="58.3" y1="604.4" x2="58.3" y2="594.38"/><line class="cls-16" x1="54.93" y1="593.58" x2="54.93" y2="588.53"/><line class="cls-16" x1="204.05" y1="588.53" x2="204.05" y2="560.07"/><line class="cls-16" x1="200.68" y1="604.4" x2="200.68" y2="594.38"/><line class="cls-16" x1="204.05" y1="593.58" x2="204.05" y2="588.53"/><line class="cls-16" x1="316.28" y1="588.53" x2="316.28" y2="560.07"/><line class="cls-16" x1="319.65" y1="604.4" x2="319.65" y2="594.38"/><line class="cls-16" x1="316.28" y1="593.58" x2="316.28" y2="588.53"/><line class="cls-16" x1="465.39" y1="588.53" x2="465.39" y2="560.07"/><line class="cls-16" x1="462.02" y1="604.4" x2="462.02" y2="594.38"/><line class="cls-16" x1="465.39" y1="593.58" x2="465.39" y2="588.53"/><line class="cls-16" x1="503.07" y1="560.07" x2="465.39" y2="560.07"/><line class="cls-16" x1="316.28" y1="560.07" x2="204.05" y2="560.07"/><line class="cls-16" x1="54.93" y1="560.07" x2="0.5" y2="560.07"/><polyline class="cls-16" points="58.3 604.4 0.5 604.4 0.5 523.58"/><line class="cls-16" x1="200.68" y1="604.4" x2="319.65" y2="604.4"/><polyline class="cls-16" points="547.49 604.4 537.38 604.4 462.02 604.4"/><polyline class="cls-16" points="58.3 604.4 200.68 604.4 200.68 608.65 58.3 608.65 58.3 604.4"/><line class="cls-16" x1="204.05" y1="560.07" x2="54.93" y2="560.07"/><polyline class="cls-16" points="204.05 588.53 199.44 588.53 199.44 591.9 197.31 591.9 197.31 593.58 204.05 593.58"/><polyline class="cls-16" points="129.49 593.58 132.86 593.58 132.86 591.9 130.73 591.9 130.73 588.53 129.49 588.53"/><line class="cls-16" x1="132.86" y1="593.58" x2="197.31" y2="593.58"/><polyline class="cls-16" points="199.44 586.85 194.38 586.85 135.78 586.85"/><polyline class="cls-16" points="194.38 586.85 194.38 591.9 199.44 591.9 199.44 586.85"/><polyline class="cls-16" points="130.73 591.9 135.78 591.9 135.78 586.85 130.73 586.85 130.73 591.9"/><line class="cls-16" x1="135.78" y1="591.9" x2="194.38" y2="591.9"/><line class="cls-16" x1="194.38" y1="586.85" x2="135.78" y2="586.85"/><line class="cls-16" x1="194.38" y1="589.33" x2="135.78" y2="589.33"/><polyline class="cls-16" points="129.49 588.53 128.25 588.53 128.25 591.9 126.12 591.9 126.12 593.58 129.49 593.58"/><polyline class="cls-16" points="54.93 593.58 61.58 593.58 61.58 591.9 59.54 591.9 59.54 588.53 54.93 588.53"/><line class="cls-16" x1="61.58" y1="593.58" x2="126.12" y2="593.58"/><polyline class="cls-16" points="128.25 586.85 123.19 586.85 64.6 586.85"/><polyline class="cls-16" points="123.19 586.85 123.19 591.9 128.25 591.9 128.25 586.85"/><polyline class="cls-16" points="59.54 591.9 64.6 591.9 64.6 586.85 59.54 586.85 59.54 591.9"/><line class="cls-16" x1="64.6" y1="591.9" x2="123.19" y2="591.9"/><line class="cls-16" x1="123.19" y1="586.85" x2="64.6" y2="586.85"/><line class="cls-16" x1="123.19" y1="589.33" x2="64.6" y2="589.33"/><polyline class="cls-16" points="204.05 588.53 204.05 593.58 204.05 588.53"/><polyline class="cls-16" points="204.05 593.58 200.68 593.58 204.05 593.58"/><polyline class="cls-16" points="200.68 604.4 200.68 594.38 200.68 593.58"/><line class="cls-16" x1="204.05" y1="588.53" x2="204.05" y2="560.07"/><polyline class="cls-16" points="54.93 588.53 54.93 593.58 54.93 588.53"/><polyline class="cls-16" points="54.93 593.58 58.3 593.58 54.93 593.58"/><polyline class="cls-16" points="58.3 604.4 58.3 594.38 58.3 593.58"/><line class="cls-16" x1="54.93" y1="588.53" x2="54.93" y2="560.07"/><polyline class="cls-16" points="319.65 604.4 462.02 604.4 462.02 608.65 319.65 608.65 319.65 604.4"/><line class="cls-16" x1="465.39" y1="560.07" x2="316.28" y2="560.07"/><polyline class="cls-16" points="465.39 588.53 460.78 588.53 460.78 591.9 458.65 591.9 458.65 593.58 465.39 593.58"/><polyline class="cls-16" points="390.84 593.58 394.2 593.58 394.2 591.9 392.08 591.9 392.08 588.53 390.84 588.53"/><line class="cls-16" x1="394.2" y1="593.58" x2="458.66" y2="593.58"/><polyline class="cls-16" points="460.78 586.85 455.73 586.85 397.13 586.85"/><polyline class="cls-16" points="455.73 586.85 455.73 591.9 460.78 591.9 460.78 586.85"/><polyline class="cls-16" points="392.08 591.9 397.13 591.9 397.13 586.85 392.08 586.85 392.08 591.9"/><line class="cls-16" x1="397.13" y1="591.9" x2="455.73" y2="591.9"/><line class="cls-16" x1="455.73" y1="586.85" x2="397.13" y2="586.85"/><line class="cls-16" x1="455.73" y1="589.33" x2="397.13" y2="589.33"/><polyline class="cls-16" points="390.84 588.53 389.6 588.53 389.6 591.9 387.47 591.9 387.47 593.58 390.84 593.58"/><polyline class="cls-16" points="316.28 593.58 322.93 593.58 322.93 591.9 320.89 591.9 320.89 588.53 316.28 588.53"/><line class="cls-16" x1="322.93" y1="593.58" x2="387.47" y2="593.58"/><polyline class="cls-16" points="389.6 586.85 384.54 586.85 325.94 586.85"/><polyline class="cls-16" points="384.54 586.85 384.54 591.9 389.6 591.9 389.6 586.85"/><polyline class="cls-16" points="320.89 591.9 325.94 591.9 325.94 586.85 320.89 586.85 320.89 591.9"/><line class="cls-16" x1="325.94" y1="591.9" x2="384.54" y2="591.9"/><line class="cls-16" x1="384.54" y1="586.85" x2="325.94" y2="586.85"/><line class="cls-16" x1="384.54" y1="589.33" x2="325.94" y2="589.33"/><polyline class="cls-16" points="465.39 588.53 465.39 593.58 465.39 588.53"/><polyline class="cls-16" points="465.39 593.58 462.02 593.58 465.39 593.58"/><polyline class="cls-16" points="462.02 604.4 462.02 594.38 462.02 593.58"/><line class="cls-16" x1="465.39" y1="588.53" x2="465.39" y2="560.07"/><polyline class="cls-16" points="316.28 588.53 316.28 593.58 316.28 588.53"/><polyline class="cls-16" points="316.28 593.58 319.65 593.58 316.28 593.58"/><polyline class="cls-16" points="319.65 604.4 319.65 594.38 319.65 593.58"/><line class="cls-16" x1="316.28" y1="588.53" x2="316.28" y2="560.07"/><polyline class="cls-16" points="547.49 21.42 547.49 21.42 547.49 42.34"/><line class="cls-16" x1="547.48" y1="42.34" x2="547.48" y2="42.34"/><polyline class="cls-16" points="537.38 594.38 537.38 593.58 537.38 23.82"/><polyline class="cls-16" points="536.58 593.58 536.58 560.07 536.58 23.2"/><line class="cls-16" x1="503.07" y1="0.5" x2="503.07" y2="560.07"/><line class="cls-16" x1="547.48" y1="604.4" x2="547.48" y2="30.64"/><polyline class="cls-16" points="0.5 0.5 0.5 560.07 17.25 560.07 17.25 0.5"/><line class="cls-16" x1="338.09" y1="17.26" x2="338.09" y2="31.44"/><line class="cls-16" x1="354.84" y1="14.68" x2="354.84" y2="0.5"/><polyline class="cls-16" points="338.09 31.44 354.84 31.44 456.97 31.44"/><line class="cls-16" x1="456.97" y1="14.68" x2="354.84" y2="14.68"/><line class="cls-16" x1="503.07" y1="64.95" x2="473.73" y2="64.95"/><polyline class="cls-16" points="456.97 81.71 503.07 81.71 503.07 64.95"/><polyline class="cls-16" points="473.73 64.95 473.73 0.5 456.97 0.5 456.97 14.68"/><polyline class="cls-16" points="456.97 81.71 456.97 64.95 456.97 31.44"/><polyline class="cls-16" points="183.92 0.5 183.92 7.15 183.92 17.25"/><polyline class="cls-16" points="267.7 0.5 267.7 7.15 267.7 17.25"/><polyline class="cls-16" points="354.84 0.5 338.09 0.5 267.7 0.5"/><polyline class="cls-16" points="183.92 0.5 17.25 0.5 17.25 17.25 183.92 17.25"/><line class="cls-16" x1="267.7" y1="17.26" x2="338.09" y2="17.26"/><polyline class="cls-16" points="184.28 0.5 184.19 0.5 183.92 0.5"/><polyline class="cls-16" points="184.28 17.25 184.19 17.25 183.92 17.25"/><path class="cls-16" d="M187.33,84.19A77.08,77.08,0,0,0,264.42,7.1"/><polyline class="cls-16" points="267.7 0.5 264.33 0.5 264.33 7.15 267.7 7.15 267.7 0.5"/><polyline class="cls-16" points="183.92 7.15 187.29 7.15 187.29 0.5 183.92 0.5 183.92 7.15"/><line class="cls-16" x1="187.29" y1="7.15" x2="187.29" y2="84.28"/><polyline class="cls-16" points="267.7 17.25 267.7 7.15 267.7 0.5 267.7 7.15"/><polyline class="cls-16" points="183.92 17.25 183.92 7.15 183.92 0.5 183.92 7.15"/><polyline class="cls-16" points="473.73 10.52 503.07 10.52 503.07 0.5 473.73 0.5 473.73 10.52"/><polyline class="cls-16" points="17.25 0.5 0.5 0.5 0.5 0.5"/><line class="cls-16" x1="0.5" y1="17.26" x2="0.5" y2="17.26"/><line class="cls-16" x1="251.74" y1="194.83" x2="251.74" y2="188.09"/><line class="cls-16" x1="176.39" y1="194.83" x2="176.39" y2="188.09"/><line class="cls-16" x1="268.5" y1="194.83" x2="268.5" y2="188.09"/><line class="cls-16" x1="343.94" y1="194.83" x2="343.94" y2="188.09"/><line class="cls-16" x1="169.65" y1="194.83" x2="176.39" y2="194.83"/><line class="cls-16" x1="258.48" y1="194.83" x2="268.5" y2="194.83"/><polyline class="cls-16" points="343.94 194.83 503.07 194.83 503.07 188.09 359.01 188.09"/><line class="cls-16" x1="352.27" y1="188.09" x2="343.94" y2="188.09"/><line class="cls-16" x1="268.5" y1="188.09" x2="251.74" y2="188.09"/><line class="cls-16" x1="176.39" y1="188.09" x2="169.65" y2="188.09"/><line class="cls-16" x1="163.8" y1="92.61" x2="170.54" y2="92.61"/><polyline class="cls-16" points="163.8 151.3 170.53 151.3 170.53 243.41"/><polyline class="cls-16" points="170.53 92.61 170.53 17.25 163.8 17.25 163.8 92.61"/><line class="cls-16" x1="163.8" y1="151.3" x2="163.8" y2="188.09"/><line class="cls-16" x1="163.8" y1="194.83" x2="163.8" y2="236.67"/><line class="cls-16" x1="163.8" y1="243.41" x2="170.54" y2="243.41"/><polyline class="cls-16" points="171.33 188.09 170.53 188.09 170.53 194.83 171.33 194.83"/><line class="cls-16" x1="163.8" y1="236.67" x2="65.84" y2="236.67"/><polyline class="cls-16" points="59.1 194.83 59.1 236.67 17.25 236.67 17.25 243.41 163.8 243.41"/><line class="cls-16" x1="65.84" y1="236.67" x2="65.84" y2="194.83"/><line class="cls-16" x1="359.01" y1="92.61" x2="352.27" y2="92.61"/><line class="cls-16" x1="359.01" y1="151.3" x2="352.27" y2="151.3"/><line class="cls-16" x1="352.27" y1="31.44" x2="352.27" y2="92.61"/><line class="cls-16" x1="352.27" y1="151.3" x2="352.27" y2="188.09"/><line class="cls-16" x1="359.01" y1="188.09" x2="359.01" y2="151.3"/><polyline class="cls-16" points="359.01 92.61 359.01 31.44 352.27 31.44"/><polyline class="cls-16" points="21.42 188.09 21.42 191.46 21.42 194.83"/><polyline class="cls-16" points="163.8 188.09 54.93 188.09 54.93 191.46 54.93 194.83"/><polyline class="cls-16" points="21.42 188.09 17.25 188.09 17.25 194.83 21.42 194.83"/><line class="cls-16" x1="54.93" y1="194.83" x2="59.1" y2="194.83"/><line class="cls-16" x1="65.84" y1="194.83" x2="163.8" y2="194.83"/><line class="cls-16" x1="54.93" y1="188.09" x2="21.42" y2="188.09"/><line class="cls-16" x1="54.93" y1="194.83" x2="21.42" y2="194.83"/><path class="cls-16" d="M54.93,188a33.34,33.34,0,0,0-2-11.44"/><line class="cls-16" x1="21.42" y1="188.09" x2="52.89" y2="176.65"/><polyline class="cls-16" points="54.93 194.83 54.93 191.46 54.93 188.09 54.93 191.46"/><polyline class="cls-16" points="21.42 194.83 21.42 191.46 21.42 188.09 21.42 191.46"/><polyline class="cls-16" points="21.42 293.67 67.52 293.67 67.52 247.57 21.42 247.57 21.42 293.67"/><polyline class="cls-16" points="25.59 289.51 63.27 289.51 63.27 256 25.59 256 25.59 289.51"/><line class="cls-16" x1="23.64" y1="28.96" x2="23.64" y2="71.69"/><line class="cls-16" x1="28.43" y1="76.74" x2="132.06" y2="76.74"/><line class="cls-16" x1="28.43" y1="23.9" x2="132.06" y2="23.9"/><line class="cls-16" x1="161.32" y1="81.71" x2="18.94" y2="81.71"/><polyline class="cls-16" points="161.31 81.71 161.31 18.94 18.94 18.94 18.94 81.71"/><line class="cls-16" x1="115.39" y1="32.68" x2="34.28" y2="32.68"/><line class="cls-16" x1="31.88" y1="35.16" x2="31.88" y2="65.48"/><line class="cls-16" x1="115.39" y1="67.96" x2="34.28" y2="67.96"/><line class="cls-16" x1="48.55" y1="48.82" x2="48.55" y2="45.71"/><line class="cls-16" x1="47.13" y1="50.32" x2="44.21" y2="50.32"/><line class="cls-16" x1="48.55" y1="51.83" x2="48.55" y2="54.93"/><line class="cls-16" x1="50.06" y1="50.32" x2="52.98" y2="50.32"/><path class="cls-16" d="M132.1,76.65c13.79,0,25-11.81,25-26.37s-11.17-26.38-25-26.38"/><path class="cls-16" d="M23.73,71.64a4.88,4.88,0,0,0,4.74,5"/><path class="cls-16" d="M28.47,23.9a4.88,4.88,0,0,0-4.74,5"/><path class="cls-16" d="M48.59,47.66A2.62,2.62,0,1,0,51,50.28a2.53,2.53,0,0,0-2.44-2.62"/><path class="cls-16" d="M115.44,68c9.18,0,16.62-7.91,16.62-17.68s-7.44-17.69-16.62-17.69"/><path class="cls-16" d="M34.32,32.59A2.44,2.44,0,0,0,32,35.12"/><path class="cls-16" d="M32,65.44A2.44,2.44,0,0,0,34.32,68"/><path class="cls-16" d="M48.59,46.78a3.5,3.5,0,1,0,3.33,3.5,3.41,3.41,0,0,0-3.33-3.5"/><polyline class="cls-16" points="38 127.01 18.94 127.01 18.94 81.71 38 81.71"/><line class="cls-16" x1="18.94" y1="97.22" x2="18.94" y2="111.49"/><line class="cls-16" x1="34.28" y1="100.59" x2="34.28" y2="102.98"/><line class="cls-16" x1="30.46" y1="104.4" x2="32.86" y2="104.4"/><line class="cls-16" x1="34.28" y1="105.73" x2="34.28" y2="108.21"/><line class="cls-16" x1="35.61" y1="104.4" x2="38.09" y2="104.4"/><path class="cls-16" d="M29.7,116.36a20.15,20.15,0,0,0,9.54,7.82"/><path class="cls-16" d="M26.89,104.33a20.23,20.23,0,0,0,2.83,12"/><path class="cls-16" d="M39.24,84.45a20.1,20.1,0,0,0-9.54,7.82"/><path class="cls-16" d="M29.72,92.27a20.2,20.2,0,0,0-2.83,12"/><path class="cls-16" d="M49.5,119.66a37.2,37.2,0,0,0,3.74-13.73"/><path class="cls-16" d="M47.53,86a11.47,11.47,0,0,0-9.45-4.28"/><path class="cls-16" d="M53.28,105.85a21,21,0,0,0,0-3.17"/><path class="cls-16" d="M30.47,91.62a82,82,0,0,0,0,25.31"/><path class="cls-16" d="M41,82.86a28.43,28.43,0,0,0-18.46,6.41"/><path class="cls-16" d="M21.32,91.4a55.83,55.83,0,0,0-1.4,12.94"/><path class="cls-16" d="M22.54,89.29a3.78,3.78,0,0,0-1.29,2.09"/><path class="cls-16" d="M22.52,91.58a95.58,95.58,0,0,0-.92,12.76"/><path class="cls-16" d="M41,82.86a25.58,25.58,0,0,0-17.25,6.39"/><path class="cls-16" d="M23.76,89.21a3.8,3.8,0,0,0-1.24,2.31"/><path class="cls-16" d="M23.77,119.35A25.54,25.54,0,0,0,41,125.76"/><path class="cls-16" d="M22.52,119.33A28.38,28.38,0,0,0,41,125.76"/><path class="cls-16" d="M21.6,104.33a97.1,97.1,0,0,0,.9,12.75"/><path class="cls-16" d="M19.92,104.29a56.39,56.39,0,0,0,1.38,12.95"/><path class="cls-16" d="M22.52,117a3.7,3.7,0,0,0,1.24,2.31"/><path class="cls-16" d="M21.25,117.24a3.78,3.78,0,0,0,1.29,2.09"/><path class="cls-16" d="M38.08,126.91a11.5,11.5,0,0,0,9.45-4.29"/><path class="cls-16" d="M47.56,122.61a17.62,17.62,0,0,0,1.95-3"/><path class="cls-16" d="M49.51,88.93a18.44,18.44,0,0,0-1.95-3"/><path class="cls-16" d="M53.24,102.69A37.1,37.1,0,0,0,49.5,89"/><path class="cls-16" d="M50,110.5A26.51,26.51,0,0,0,50,98"/><path class="cls-16" d="M39.26,124.15a6.75,6.75,0,0,0,5.6-2.33"/><path class="cls-16" d="M44.87,121.83A24.51,24.51,0,0,0,50,110.56"/><path class="cls-16" d="M44.86,86.8a6.78,6.78,0,0,0-5.6-2.33"/><path class="cls-16" d="M50,98.06A24.52,24.52,0,0,0,44.87,86.8"/><path class="cls-16" d="M37.29,104.36a3,3,0,1,0-3,3,3,3,0,0,0,3-3"/><path class="cls-16" d="M36.4,104.36a2.08,2.08,0,1,0-2.08,2.08,2.09,2.09,0,0,0,2.08-2.08"/><line class="cls-16" x1="31.79" y1="169.29" x2="61.32" y2="169.29"/><polyline class="cls-16" points="30.02 170.53 18.94 170.53 18.94 138.71"/><line class="cls-16" x1="36.94" y1="154.58" x2="36.94" y2="142.79"/><polyline class="cls-16" points="61.32 169.29 36.94 166.46 36.94 154.58"/><line class="cls-16" x1="61.32" y1="139.95" x2="36.94" y2="142.79"/><line class="cls-16" x1="61.32" y1="168.5" x2="36.94" y2="165.66"/><line class="cls-16" x1="61.32" y1="140.75" x2="36.94" y2="143.58"/><line class="cls-16" x1="31.79" y1="139.95" x2="61.32" y2="139.95"/><line class="cls-16" x1="18.94" y1="138.71" x2="30.02" y2="138.71"/><polyline class="cls-16" points="61.32 169.29 64.6 168.85 67.7 167.61 70.36 165.57 72.57 162.91 74.17 159.81 74.97 156.35 74.97 152.81 74.17 149.44 72.57 146.24 70.36 143.59 67.7 141.63 64.6 140.39 61.32 139.95"/><polyline class="cls-16" points="61.32 168.5 64.42 168.14 67.34 166.9 69.92 165.04 71.95 162.47 73.46 159.54 74.17 156.26 74.17 152.89 73.46 149.7 71.95 146.69 69.92 144.21 67.34 142.25 64.42 141.1 61.32 140.75"/><path class="cls-16" d="M31.83,168.81a135.46,135.46,0,0,0,0-28.54"/><path class="cls-16" d="M30.07,170.45A1.88,1.88,0,0,0,32,168.83"/><path class="cls-16" d="M32,140.34a1.88,1.88,0,0,0-1.89-1.63"/><path class="cls-16" d="M27.54,154.53A1.55,1.55,0,1,0,26,156.08a1.56,1.56,0,0,0,1.55-1.55"/><polyline class="cls-16" points="139.51 606.53 139.06 606.53 139.06 652.63 139.51 652.63 139.51 606.53"/><polyline class="cls-16" points="137.82 654.31 137.82 653.87 60.78 653.87 60.78 654.31 137.82 654.31"/><polyline class="cls-16" points="59.1 652.63 59.54 652.63 59.54 606.53 59.1 606.53 59.1 652.63"/><polyline class="cls-16" points="139.95 604.4 137.82 604.4 137.82 606.53 139.95 606.53 139.95 604.4"/><polyline class="cls-16" points="139.95 652.63 137.82 652.63 137.82 654.66 139.95 654.66 139.95 652.63"/><polyline class="cls-16" points="60.78 654.66 60.78 652.63 58.66 652.63 58.66 654.66 60.78 654.66"/><polyline class="cls-16" points="58.66 606.53 60.78 606.53 60.78 604.4 58.66 604.4 58.66 606.53"/><line class="cls-16" x1="137.82" y1="605.46" x2="137.82" y2="652.63"/><line class="cls-16" x1="139.95" y1="654.67" x2="139.95" y2="605.46"/><line class="cls-16" x1="137.82" y1="652.63" x2="60.78" y2="652.63"/><line class="cls-16" x1="58.66" y1="654.67" x2="139.95" y2="654.67"/><line class="cls-16" x1="60.78" y1="652.63" x2="60.78" y2="605.46"/><line class="cls-16" x1="58.66" y1="605.46" x2="58.66" y2="654.67"/><polyline class="cls-16" points="139.95 605.46 139.95 604.4 137.82 604.4 137.82 605.46"/><polyline class="cls-16" points="60.78 605.46 60.78 604.4 58.66 604.4 58.66 605.46"/><polyline class="cls-16" points="58.66 654.66 139.95 654.66 139.95 605.46 137.82 605.46 137.82 652.63 60.78 652.63 60.78 605.46 58.66 605.46 58.66 654.66"/><polyline class="cls-16" points="62.91 639.59 135.78 639.59 135.78 612.82 62.91 612.82 62.91 639.59"/><polyline class="cls-16" points="62.91 636.93 135.78 636.93 135.78 612.82 62.91 612.82 62.91 636.93"/><polyline class="cls-16" points="547.49 30.64 547.49 29.75 547.49 30.64"/><line class="cls-16" x1="536.58" y1="21.42" x2="536.58" y2="23.2"/><line class="cls-16" x1="537.38" y1="21.42" x2="537.38" y2="23.82"/><polyline class="cls-16" points="547.49 29.75 547.49 21.42 547.49 29.75"/><line class="cls-16" x1="547.48" y1="29.76" x2="547.48" y2="29.76"/><line class="cls-16" x1="536.58" y1="0.5" x2="536.58" y2="21.42"/><line class="cls-16" x1="537.38" y1="0.5" x2="537.38" y2="21.42"/><polyline class="cls-16" points="547.49 21.42 547.49 0.5 547.49 21.42"/><line class="cls-16" x1="503.07" y1="0.5" x2="536.58" y2="0.5"/><line class="cls-16" x1="537.38" y1="0.5" x2="547.48" y2="0.5"/><line class="cls-16" x1="547.48" y1="0.5" x2="547.48" y2="0.5"/><line class="cls-16" x1="547.48" y1="30.64" x2="547.48" y2="30.64"/><line class="cls-16" x1="258.48" y1="577.63" x2="258.48" y2="194.83"/><polyline class="cls-16" points="251.74 194.83 251.74 577.63 258.48 577.63"/><polyline class="cls-16" points="0.5 17.25 50.77 17.25 50.77 0.5 0.5 0.5"/><polyline class="cls-16" points="268.5 216.63 251.74 216.63 251.74 300.41 268.5 300.41 268.5 216.63"/><polyline class="cls-16" points="17.25 216.63 0.5 216.63 0.5 300.41 17.25 300.41 17.25 216.63"/><polyline class="cls-16" points="519.83 216.63 503.07 216.63 503.07 300.41 519.83 300.41 519.83 216.63"/><polyline class="cls-16" points="268.5 493.05 251.74 493.05 251.74 576.83 268.5 576.83 268.5 493.05"/><polyline class="cls-16" points="17.25 493.05 0.5 493.05 0.5 576.83 17.25 576.83 17.25 493.05"/><polyline class="cls-16" points="519.83 493.05 503.07 493.05 503.07 576.83 519.83 576.83 519.83 493.05"/></svg>