<svg id="_529" data-name="529" xmlns="http://www.w3.org/2000/svg" viewBox="0 0 524.33 720.57"><defs><style>.cls-1{isolation:isolate;font-size:12px;fill:#969696;}.cls-1,.cls-11,.cls-12,.cls-14{font-family:PTSans-Regular, PT Sans;}.cls-2{letter-spacing:-0.01em;}.cls-10,.cls-13,.cls-3,.cls-4,.cls-5,.cls-6,.cls-7,.cls-8,.cls-9{fill:none;stroke-linecap:round;stroke-linejoin:round;}.cls-3{stroke:#969696;stroke-width:0.75px;}.cls-10,.cls-13,.cls-4,.cls-5,.cls-6,.cls-7,.cls-8,.cls-9{stroke:#000;}.cls-4,.cls-5,.cls-6,.cls-7,.cls-8{stroke-width:0.25px;}.cls-5{stroke-dasharray:1 1;}.cls-6{stroke-dasharray:1 1;}.cls-7{stroke-dasharray:1.01 1.01;}.cls-8{stroke-dasharray:1 1;}.cls-10,.cls-13{stroke-width:0.5px;}.cls-10{stroke-dasharray:3 3;}.cls-11{font-size:40.03px;}.cls-12{font-size:40.57px;}.cls-14{font-size:36.03px;}</style></defs><title>2floor_529flat</title><text class="cls-1" transform="translate(254.03 717.63)"><tspan class="cls-2">у</tspan><tspan x="5.42" y="0">лица</tspan></text><line class="cls-3" x1="243.27" y1="719.45" x2="243.27" y2="710.65"/><polyline class="cls-3" points="239.77 715.95 243.27 719.45 246.77 715.95"/><line class="cls-4" x1="361.46" y1="0.45" x2="361.96" y2="0.45"/><line class="cls-5" x1="362.96" y1="0.45" x2="458.43" y2="0.45"/><line class="cls-4" x1="458.93" y1="0.45" x2="459.43" y2="0.45"/><line class="cls-4" x1="170.19" y1="148.76" x2="170.19" y2="148.26"/><line class="cls-6" x1="170.19" y1="147.25" x2="170.19" y2="87.55"/><line class="cls-4" x1="170.19" y1="87.05" x2="170.19" y2="86.55"/><line class="cls-4" x1="177.92" y1="148.76" x2="177.92" y2="148.26"/><line class="cls-6" x1="177.92" y1="147.25" x2="177.92" y2="87.55"/><line class="cls-4" x1="177.92" y1="87.05" x2="177.92" y2="86.55"/><line class="cls-4" x1="183.65" y1="202.85" x2="184.15" y2="202.85"/><line class="cls-7" x1="185.16" y1="202.85" x2="261.21" y2="202.85"/><line class="cls-4" x1="261.71" y1="202.85" x2="262.21" y2="202.85"/><line class="cls-4" x1="183.65" y1="195.84" x2="184.15" y2="195.84"/><line class="cls-7" x1="185.16" y1="195.84" x2="261.21" y2="195.84"/><line class="cls-4" x1="261.71" y1="195.84" x2="262.21" y2="195.84"/><line class="cls-4" x1="297.01" y1="195.84" x2="297.51" y2="195.84"/><line class="cls-8" x1="298.52" y1="195.84" x2="378.22" y2="195.84"/><line class="cls-4" x1="378.72" y1="195.84" x2="379.22" y2="195.84"/><line class="cls-4" x1="297.01" y1="202.85" x2="297.51" y2="202.85"/><line class="cls-8" x1="298.52" y1="202.85" x2="378.22" y2="202.85"/><line class="cls-4" x1="378.72" y1="202.85" x2="379.22" y2="202.85"/><line class="cls-9" x1="0.5" y1="618.92" x2="66.78" y2="618.92"/><line class="cls-9" x1="215.04" y1="618.92" x2="316.22" y2="618.92"/><line class="cls-9" x1="464.57" y1="618.92" x2="523.83" y2="618.92"/><line class="cls-9" x1="0.5" y1="617.99" x2="63.27" y2="617.99"/><line class="cls-9" x1="218.55" y1="617.99" x2="312.8" y2="617.99"/><line class="cls-9" x1="467.98" y1="617.99" x2="523.83" y2="617.99"/><line class="cls-9" x1="63.27" y1="612.82" x2="63.27" y2="583.19"/><line class="cls-9" x1="66.78" y1="629.35" x2="66.78" y2="618.92"/><line class="cls-9" x1="63.27" y1="617.99" x2="63.27" y2="612.82"/><line class="cls-9" x1="218.55" y1="612.82" x2="218.55" y2="583.19"/><line class="cls-9" x1="215.04" y1="629.35" x2="215.04" y2="618.92"/><line class="cls-9" x1="218.55" y1="617.99" x2="218.55" y2="612.82"/><line class="cls-9" x1="312.8" y1="612.82" x2="312.8" y2="583.19"/><line class="cls-9" x1="316.22" y1="629.35" x2="316.22" y2="618.92"/><line class="cls-9" x1="312.8" y1="617.99" x2="312.8" y2="612.82"/><line class="cls-9" x1="467.98" y1="612.82" x2="467.98" y2="583.19"/><line class="cls-9" x1="464.57" y1="629.35" x2="464.57" y2="618.92"/><line class="cls-9" x1="467.98" y1="617.99" x2="467.98" y2="612.82"/><line class="cls-9" x1="523.83" y1="583.19" x2="467.98" y2="583.19"/><line class="cls-9" x1="312.8" y1="583.19" x2="218.55" y2="583.19"/><line class="cls-9" x1="63.27" y1="583.19" x2="0.5" y2="583.19"/><line class="cls-9" x1="0.5" y1="629.35" x2="0.5" y2="618.92"/><line class="cls-9" x1="0.5" y1="617.99" x2="0.5" y2="583.19"/><line class="cls-9" x1="0.5" y1="629.35" x2="66.78" y2="629.35"/><line class="cls-9" x1="215.04" y1="629.35" x2="316.22" y2="629.35"/><polyline class="cls-9" points="464.57 629.35 523.83 629.35 523.83 549.49"/><polyline class="cls-9" points="66.78 629.35 215.04 629.35 215.04 633.78 66.78 633.78 66.78 629.35"/><line class="cls-9" x1="218.55" y1="583.19" x2="63.27" y2="583.19"/><polyline class="cls-9" points="218.55 612.82 213.75 612.82 213.75 616.33 211.53 616.33 211.53 617.99 218.55 617.99"/><polyline class="cls-9" points="140.91 617.99 144.42 617.99 144.42 616.33 142.2 616.33 142.2 612.82 140.91 612.82"/><line class="cls-9" x1="144.42" y1="617.99" x2="211.53" y2="617.99"/><polyline class="cls-9" points="213.75 611.07 208.49 611.07 147.47 611.07"/><polyline class="cls-9" points="208.49 611.07 208.49 616.33 213.75 616.33 213.75 611.07"/><polyline class="cls-9" points="142.2 616.33 147.47 616.33 147.47 611.07 142.2 611.07 142.2 616.33"/><line class="cls-9" x1="147.47" y1="616.33" x2="208.49" y2="616.33"/><line class="cls-9" x1="208.49" y1="611.07" x2="147.47" y2="611.07"/><line class="cls-9" x1="208.49" y1="613.65" x2="147.47" y2="613.65"/><polyline class="cls-9" points="140.91 612.82 139.62 612.82 139.62 616.33 137.4 616.33 137.4 617.99 140.91 617.99"/><polyline class="cls-9" points="63.27 617.99 70.29 617.99 70.29 616.33 68.07 616.33 68.07 612.82 63.27 612.82"/><line class="cls-9" x1="70.29" y1="617.99" x2="137.4" y2="617.99"/><polyline class="cls-9" points="139.62 611.07 134.36 611.07 73.34 611.07"/><polyline class="cls-9" points="134.36 611.07 134.36 616.33 139.62 616.33 139.62 611.07"/><polyline class="cls-9" points="68.07 616.33 73.34 616.33 73.34 611.07 68.07 611.07 68.07 616.33"/><line class="cls-9" x1="73.34" y1="616.33" x2="134.36" y2="616.33"/><line class="cls-9" x1="134.36" y1="611.07" x2="73.34" y2="611.07"/><line class="cls-9" x1="134.36" y1="613.65" x2="73.34" y2="613.65"/><polyline class="cls-9" points="218.55 612.82 218.55 617.99 218.55 612.82"/><polyline class="cls-9" points="218.55 617.99 215.04 617.99 218.55 617.99"/><polyline class="cls-9" points="215.04 629.35 215.04 618.92 215.04 617.99"/><line class="cls-9" x1="218.55" y1="612.82" x2="218.55" y2="583.19"/><polyline class="cls-9" points="63.27 612.82 63.27 617.99 63.27 612.82"/><polyline class="cls-9" points="63.27 617.99 66.78 617.99 63.27 617.99"/><polyline class="cls-9" points="66.78 629.35 66.78 618.92 66.78 617.99"/><line class="cls-9" x1="63.27" y1="612.82" x2="63.27" y2="583.19"/><polyline class="cls-9" points="316.22 629.35 464.57 629.35 464.57 633.78 316.22 633.78 316.22 629.35"/><line class="cls-9" x1="467.98" y1="583.19" x2="312.8" y2="583.19"/><polyline class="cls-9" points="467.98 612.82 463.18 612.82 463.18 616.33 461.06 616.33 461.06 617.99 467.98 617.99"/><polyline class="cls-9" points="390.44 617.99 393.85 617.99 393.85 616.33 391.73 616.33 391.73 612.82 390.44 612.82"/><line class="cls-9" x1="393.85" y1="617.99" x2="461.06" y2="617.99"/><polyline class="cls-9" points="463.18 611.07 458.01 611.07 396.9 611.07"/><polyline class="cls-9" points="458.01 611.07 458.01 616.33 463.18 616.33 463.18 611.07"/><polyline class="cls-9" points="391.73 616.33 396.9 616.33 396.9 611.07 391.73 611.07 391.73 616.33"/><line class="cls-9" x1="396.9" y1="616.33" x2="458.01" y2="616.33"/><line class="cls-9" x1="458.01" y1="611.07" x2="396.9" y2="611.07"/><line class="cls-9" x1="458.01" y1="613.65" x2="396.9" y2="613.65"/><polyline class="cls-9" points="390.44 612.82 389.05 612.82 389.05 616.33 386.93 616.33 386.93 617.99 390.44 617.99"/><polyline class="cls-9" points="312.8 617.99 319.72 617.99 319.72 616.33 317.6 616.33 317.6 612.82 312.8 612.82"/><line class="cls-9" x1="319.72" y1="617.99" x2="386.93" y2="617.99"/><polyline class="cls-9" points="389.05 611.07 383.88 611.07 322.77 611.07"/><polyline class="cls-9" points="383.88 611.07 383.88 616.33 389.05 616.33 389.05 611.07"/><polyline class="cls-9" points="317.6 616.33 322.77 616.33 322.77 611.07 317.6 611.07 317.6 616.33"/><line class="cls-9" x1="322.77" y1="616.33" x2="383.88" y2="616.33"/><line class="cls-9" x1="383.88" y1="611.07" x2="322.77" y2="611.07"/><line class="cls-9" x1="383.88" y1="613.65" x2="322.77" y2="613.65"/><polyline class="cls-9" points="467.98 612.82 467.98 617.99 467.98 612.82"/><polyline class="cls-9" points="467.98 617.99 464.57 617.99 467.98 617.99"/><polyline class="cls-9" points="464.57 629.35 464.57 618.92 464.57 617.99"/><line class="cls-9" x1="467.98" y1="612.82" x2="467.98" y2="583.19"/><polyline class="cls-9" points="312.8 612.82 312.8 617.99 312.8 612.82"/><polyline class="cls-9" points="312.8 617.99 316.22 617.99 312.8 617.99"/><polyline class="cls-9" points="316.22 629.35 316.22 618.92 316.22 617.99"/><line class="cls-9" x1="312.8" y1="612.82" x2="312.8" y2="583.19"/><polyline class="cls-9" points="506.38 65.03 506.38 65.03 506.38 65.03"/><polyline class="cls-9" points="506.38 82.47 506.38 583.19 523.83 583.19 523.83 65.03"/><line class="cls-9" x1="269.14" y1="583.19" x2="269.14" y2="202.85"/><polyline class="cls-9" points="262.21 202.85 262.21 583.19 269.14 583.19"/><line class="cls-9" x1="170.54" y1="87.74" x2="177.56" y2="87.74"/><polyline class="cls-9" points="170.54 148.76 177.56 148.76 177.56 249.1"/><polyline class="cls-9" points="177.56 87.74 177.56 17.95 170.54 17.95 170.54 87.74"/><line class="cls-9" x1="170.54" y1="148.76" x2="170.54" y2="242.09"/><line class="cls-9" x1="170.54" y1="249.1" x2="177.56" y2="249.1"/><line class="cls-9" x1="170.54" y1="148.76" x2="177.56" y2="148.76"/><line class="cls-9" x1="170.54" y1="87.74" x2="177.56" y2="87.74"/><line class="cls-9" x1="170.54" y1="242.09" x2="68.54" y2="242.09"/><polyline class="cls-9" points="61.52 207.19 61.52 242.09 17.95 242.09 17.95 249.1 170.54 249.1"/><line class="cls-9" x1="68.54" y1="242.09" x2="68.54" y2="200.18"/><polyline class="cls-9" points="454.04 0.5 454.04 7.42 454.04 17.95"/><polyline class="cls-9" points="366.81 0.5 366.81 7.42 366.81 17.95"/><line class="cls-9" x1="471.49" y1="0.5" x2="454.04" y2="0.5"/><line class="cls-9" x1="366.8" y1="0.5" x2="349.36" y2="0.5"/><polyline class="cls-9" points="349.36 0.5 17.95 0.5 17.95 17.95 366.81 17.95"/><line class="cls-9" x1="366.8" y1="0.5" x2="367.08" y2="0.5"/><line class="cls-9" x1="453.86" y1="0.5" x2="454.04" y2="0.5"/><line class="cls-9" x1="366.8" y1="17.95" x2="367.08" y2="17.95"/><line class="cls-9" x1="453.86" y1="17.95" x2="454.04" y2="17.95"/><path class="cls-9" d="M370.31,7.38a80.27,80.27,0,0,0,80.27,80.27"/><polyline class="cls-9" points="366.81 0.5 370.31 0.5 370.31 7.42 366.81 7.42 366.81 0.5"/><polyline class="cls-9" points="454.04 7.42 450.53 7.42 450.53 0.5 454.04 0.5 454.04 7.42"/><line class="cls-9" x1="450.53" y1="7.42" x2="450.53" y2="87.74"/><polyline class="cls-9" points="366.81 17.95 366.81 7.42 366.81 0.5 366.81 7.42"/><polyline class="cls-9" points="454.04 17.95 454.04 7.42 454.04 0.5 454.04 7.42"/><polyline class="cls-9" points="22.29 200.18 22.29 203.69 22.29 207.19"/><polyline class="cls-9" points="57.18 200.18 57.18 203.69 57.18 207.19"/><line class="cls-9" x1="17.95" y1="207.19" x2="22.29" y2="207.19"/><line class="cls-9" x1="57.18" y1="207.19" x2="61.52" y2="207.19"/><polyline class="cls-9" points="68.54 200.18 61.52 200.18 57.18 200.18"/><polyline class="cls-9" points="22.29 200.18 17.95 200.18 17.95 207.19"/><line class="cls-9" x1="57.18" y1="200.18" x2="22.29" y2="200.18"/><line class="cls-9" x1="57.18" y1="207.19" x2="22.29" y2="207.19"/><path class="cls-9" d="M57.18,200.13a34.88,34.88,0,0,0-2.1-11.92"/><line class="cls-9" x1="22.29" y1="200.18" x2="55.06" y2="188.27"/><polyline class="cls-9" points="57.18 207.19 57.18 203.69 57.18 200.18 57.18 203.69"/><polyline class="cls-9" points="22.29 207.19 22.29 203.69 22.29 200.18 22.29 203.69"/><line class="cls-9" x1="262.21" y1="202.85" x2="262.21" y2="195.84"/><line class="cls-9" x1="183.65" y1="202.85" x2="183.65" y2="195.84"/><line class="cls-9" x1="297.01" y1="202.85" x2="297.01" y2="195.84"/><line class="cls-9" x1="375.57" y1="202.85" x2="375.57" y2="195.84"/><line class="cls-9" x1="177.56" y1="202.85" x2="183.65" y2="202.85"/><line class="cls-9" x1="269.14" y1="202.85" x2="297.01" y2="202.85"/><polyline class="cls-9" points="375.57 202.85 506.38 202.85 506.38 195.84 375.57 195.84"/><line class="cls-9" x1="297.01" y1="195.84" x2="262.21" y2="195.84"/><polyline class="cls-9" points="183.65 195.84 177.56 195.84 177.56 202.85"/><line class="cls-9" x1="183.65" y1="202.85" x2="183.65" y2="195.84"/><line class="cls-9" x1="262.21" y1="202.85" x2="262.21" y2="195.84"/><line class="cls-9" x1="375.57" y1="202.85" x2="375.57" y2="195.84"/><line class="cls-9" x1="297.01" y1="202.85" x2="297.01" y2="195.84"/><line class="cls-9" x1="454.04" y1="17.95" x2="454.04" y2="82.48"/><polyline class="cls-9" points="471.49 0.5 471.49 17.95 471.49 65.03"/><polyline class="cls-9" points="454.04 82.47 471.49 82.47 506.38 82.47"/><line class="cls-9" x1="523.83" y1="65.03" x2="471.49" y2="65.03"/><line class="cls-9" x1="24.59" y1="74.63" x2="24.59" y2="30.13"/><line class="cls-9" x1="29.58" y1="24.87" x2="137.5" y2="24.87"/><line class="cls-9" x1="29.58" y1="79.89" x2="137.5" y2="79.89"/><line class="cls-9" x1="167.96" y1="19.7" x2="19.7" y2="19.7"/><polyline class="cls-9" points="167.96 19.7 167.96 85.06 19.7 85.06 19.7 19.7"/><line class="cls-9" x1="120.14" y1="70.75" x2="35.67" y2="70.75"/><line class="cls-9" x1="33.18" y1="68.17" x2="33.18" y2="36.6"/><line class="cls-9" x1="120.14" y1="34.01" x2="35.67" y2="34.01"/><line class="cls-9" x1="50.53" y1="53.95" x2="50.53" y2="57.18"/><line class="cls-9" x1="49.06" y1="52.38" x2="46.01" y2="52.38"/><line class="cls-9" x1="50.53" y1="50.81" x2="50.53" y2="47.58"/><line class="cls-9" x1="52.1" y1="52.38" x2="55.15" y2="52.38"/><path class="cls-9" d="M137.54,79.8c14.35,0,26-12.3,26-27.47s-11.64-27.46-26-27.46"/><path class="cls-9" d="M29.63,24.87a5.09,5.09,0,0,0-4.94,5.22"/><path class="cls-9" d="M24.69,74.58a5.09,5.09,0,0,0,4.94,5.22"/><path class="cls-9" d="M50.58,49.61a2.73,2.73,0,1,0,2.54,2.72,2.64,2.64,0,0,0-2.54-2.72"/><path class="cls-9" d="M120.19,70.75c9.56,0,17.31-8.24,17.31-18.42s-7.75-18.41-17.31-18.41"/><path class="cls-9" d="M33.27,68.12a2.55,2.55,0,0,0,2.45,2.63"/><path class="cls-9" d="M35.72,33.92a2.55,2.55,0,0,0-2.45,2.63"/><path class="cls-9" d="M50.58,48.69A3.65,3.65,0,1,0,54,52.33a3.55,3.55,0,0,0-3.46-3.64"/><polyline class="cls-9" points="39.64 85.06 19.7 85.06 19.7 132.14 39.64 132.14"/><line class="cls-9" x1="19.7" y1="116.08" x2="19.7" y2="101.22"/><line class="cls-9" x1="35.67" y1="112.57" x2="35.67" y2="110.08"/><line class="cls-9" x1="31.7" y1="108.6" x2="34.19" y2="108.6"/><line class="cls-9" x1="35.67" y1="107.12" x2="35.67" y2="104.63"/><line class="cls-9" x1="37.15" y1="108.6" x2="39.64" y2="108.6"/><path class="cls-9" d="M40.84,87.91a20.93,20.93,0,0,0-9.93,8.15"/><path class="cls-9" d="M30.93,96.06A20.91,20.91,0,0,0,28,108.58"/><path class="cls-9" d="M30.91,121.14a20.93,20.93,0,0,0,9.93,8.15"/><path class="cls-9" d="M28,108.62a20.91,20.91,0,0,0,2.94,12.52"/><path class="cls-9" d="M55.42,106.91a38.72,38.72,0,0,0-3.9-14.29"/><path class="cls-9" d="M39.64,132.13a11.94,11.94,0,0,0,9.83-4.46"/><path class="cls-9" d="M55.46,110.2a22.72,22.72,0,0,0,0-3.3"/><path class="cls-9" d="M31.7,95.37a86.29,86.29,0,0,0,0,26.36"/><path class="cls-9" d="M23.46,124.17a29.57,29.57,0,0,0,19.23,6.67"/><path class="cls-9" d="M20.72,108.57a58.3,58.3,0,0,0,1.46,13.48"/><path class="cls-9" d="M22.11,122.07a3.88,3.88,0,0,0,1.34,2.17"/><path class="cls-9" d="M22.47,108.57a101.75,101.75,0,0,0,1,13.28"/><path class="cls-9" d="M24.75,124.29a26.67,26.67,0,0,0,18,6.65"/><path class="cls-9" d="M23.52,121.83a3.92,3.92,0,0,0,1.3,2.41"/><path class="cls-9" d="M42.68,86.26a26.59,26.59,0,0,0-17.95,6.68"/><path class="cls-9" d="M42.74,86.26A29.61,29.61,0,0,0,23.52,93"/><path class="cls-9" d="M23.41,95.31a99.87,99.87,0,0,0-.94,13.27"/><path class="cls-9" d="M22.16,95.14a58.77,58.77,0,0,0-1.44,13.48"/><path class="cls-9" d="M24.72,92.88a3.94,3.94,0,0,0-1.29,2.4"/><path class="cls-9" d="M23.45,93a3.85,3.85,0,0,0-1.34,2.17"/><path class="cls-9" d="M49.47,89.53a12,12,0,0,0-9.83-4.46"/><path class="cls-9" d="M51.53,92.59a18.92,18.92,0,0,0-2-3.14"/><path class="cls-9" d="M49.5,127.66a18.92,18.92,0,0,0,2-3.14"/><path class="cls-9" d="M51.52,124.49a38.72,38.72,0,0,0,3.9-14.29"/><path class="cls-9" d="M52.16,115a27.61,27.61,0,0,0,0-13"/><path class="cls-9" d="M46.69,90.37a7.07,7.07,0,0,0-5.83-2.43"/><path class="cls-9" d="M52.09,102.09A25.59,25.59,0,0,0,46.7,90.36"/><path class="cls-9" d="M40.86,129.26a7.07,7.07,0,0,0,5.83-2.43"/><path class="cls-9" d="M46.7,126.75A25.59,25.59,0,0,0,52.09,115"/><path class="cls-9" d="M38.81,108.55a3.09,3.09,0,1,0-3.09,3.1,3.09,3.09,0,0,0,3.09-3.1"/><path class="cls-9" d="M37.89,108.55a2.17,2.17,0,1,0-2.17,2.17,2.17,2.17,0,0,0,2.17-2.17"/><line class="cls-9" x1="33.09" y1="176.27" x2="63.92" y2="176.27"/><polyline class="cls-9" points="31.24 177.56 19.7 177.56 19.7 144.42"/><line class="cls-9" x1="38.53" y1="160.94" x2="38.53" y2="148.67"/><polyline class="cls-9" points="63.83 176.27 38.53 173.22 38.53 160.94"/><line class="cls-9" x1="63.83" y1="145.71" x2="38.53" y2="148.67"/><line class="cls-9" x1="63.83" y1="175.44" x2="38.53" y2="172.48"/><line class="cls-9" x1="63.83" y1="146.45" x2="38.53" y2="149.5"/><line class="cls-9" x1="33.09" y1="145.71" x2="63.92" y2="145.71"/><line class="cls-9" x1="19.7" y1="144.42" x2="31.24" y2="144.42"/><polyline class="cls-9" points="63.83 176.27 67.24 175.81 70.47 174.51 73.34 172.39 75.55 169.62 77.21 166.39 78.04 162.79 78.04 159.1 77.21 155.59 75.55 152.26 73.34 149.5 70.47 147.47 67.24 146.17 63.83 145.71"/><polyline class="cls-9" points="63.83 175.44 67.06 175.07 70.11 173.78 72.78 171.84 74.91 169.16 76.47 166.11 77.21 162.7 77.21 159.19 76.47 155.87 74.91 152.73 72.78 150.14 70.11 148.11 67.06 146.91 63.83 146.45"/><path class="cls-9" d="M33.13,175.76a140.5,140.5,0,0,0,0-29.71"/><path class="cls-9" d="M31.29,177.47a2,2,0,0,0,2-1.69"/><path class="cls-9" d="M33.26,146.12a1.94,1.94,0,0,0-2-1.7"/><path class="cls-9" d="M28.66,160.9A1.62,1.62,0,1,0,27,162.51a1.62,1.62,0,0,0,1.62-1.61"/><polyline class="cls-9" points="22.29 301.45 70.29 301.45 70.29 253.44 22.29 253.44 22.29 301.45"/><polyline class="cls-9" points="26.63 297.01 65.86 297.01 65.86 262.12 26.63 262.12 26.63 297.01"/><line class="cls-9" x1="523.83" y1="617.99" x2="523.83" y2="617.99"/><line class="cls-9" x1="364.04" y1="617.99" x2="359.6" y2="617.99"/><line class="cls-9" x1="503.34" y1="617.99" x2="499" y2="617.99"/><polyline class="cls-9" points="68.07 631.56 68.07 679.57 67.61 679.57 67.61 631.56 68.07 631.56"/><polyline class="cls-9" points="69.37 680.86 149.68 680.86 149.68 681.23 69.37 681.23 69.37 680.86"/><polyline class="cls-9" points="150.97 679.57 150.97 631.56 151.34 631.56 151.34 679.57 150.97 679.57"/><polyline class="cls-9" points="69.37 629.35 69.37 631.56 67.24 631.56 67.24 629.35 69.37 629.35"/><polyline class="cls-9" points="69.37 679.57 69.37 681.69 67.24 681.69 67.24 679.57 69.37 679.57"/><polyline class="cls-9" points="149.68 679.57 151.8 679.57 151.8 681.69 149.68 681.69 149.68 679.57"/><polyline class="cls-9" points="149.68 631.56 149.68 629.35 151.8 629.35 151.8 631.56 149.68 631.56"/><line class="cls-9" x1="69.37" y1="630.46" x2="69.37" y2="679.57"/><line class="cls-9" x1="67.24" y1="681.69" x2="67.24" y2="630.46"/><line class="cls-9" x1="69.37" y1="679.57" x2="149.68" y2="679.57"/><line class="cls-9" x1="151.8" y1="681.69" x2="67.24" y2="681.69"/><line class="cls-9" x1="149.68" y1="679.57" x2="149.68" y2="630.46"/><line class="cls-9" x1="151.8" y1="630.46" x2="151.8" y2="681.69"/><polyline class="cls-9" points="67.24 630.46 67.24 629.35 69.37 629.35 69.37 630.46"/><polyline class="cls-9" points="149.68 630.46 149.68 629.35 151.8 629.35 151.8 630.46"/><polyline class="cls-9" points="151.8 681.69 67.24 681.69 67.24 630.46 69.37 630.46 69.37 679.57 149.68 679.57 149.68 630.46 151.8 630.46 151.8 681.69"/><polyline class="cls-9" points="147.47 666 71.58 666 71.58 638.12 147.47 638.12 147.47 666"/><polyline class="cls-9" points="147.47 663.23 71.58 663.23 71.58 638.12 147.47 638.12 147.47 663.23"/><polyline class="cls-10" points="17.95 353.7 177.56 353.7 177.56 244.03"/><polyline class="cls-9" points="17.95 583.19 0.5 583.19 0.5 0.5 221.17 0.5"/><line class="cls-9" x1="17.95" y1="583.19" x2="17.95" y2="0.5"/><polyline class="cls-9" points="279.57 312.71 262.21 312.71 262.21 225.47 279.57 225.47 279.57 312.71"/><polyline class="cls-9" points="279.57 600.55 262.21 600.55 262.21 513.4 279.57 513.4 279.57 600.55"/><polyline class="cls-9" points="506.38 600.55 523.83 600.55 523.83 513.4 506.38 513.4 506.38 600.55"/><polyline class="cls-9" points="506.38 312.71 523.83 312.71 523.83 225.47 506.38 225.47 506.38 312.71"/><polyline class="cls-9" points="17.95 600.55 0.5 600.55 0.5 513.4 17.95 513.4 17.95 600.55"/><text class="cls-11" transform="translate(367.42 444.4)">2E</text><text class="cls-12" transform="translate(340.5 494.61)">34.35</text><text class="cls-11" transform="translate(335.86 394.45)">№529</text><polyline class="cls-13" points="326.84 505.43 326.84 356.24 451.27 356.24 451.27 505.43"/><line class="cls-13" x1="326.84" y1="406.06" x2="451.27" y2="406.06"/><line class="cls-13" x1="326.84" y1="505.43" x2="451.27" y2="505.43"/><line class="cls-13" x1="326.84" y1="455.89" x2="451.27" y2="455.89"/><text class="cls-14" transform="translate(316.05 121.85)">7.25</text><text class="cls-14" transform="translate(86.23 327.16)">2.20</text><text class="cls-14" transform="translate(101.05 559.98)">9.04</text><text class="cls-14" transform="translate(345.93 559.98)">11.64</text><text class="cls-14" transform="translate(86.23 144.42)">4.22</text></svg>