<svg id="_439" data-name="439" xmlns="http://www.w3.org/2000/svg" viewBox="0 0 320.14 717.46"><defs><style>.cls-1{isolation:isolate;font-size:12px;fill:#969696;}.cls-1,.cls-6,.cls-7{font-family:PTSans-Regular, PT Sans;}.cls-2{letter-spacing:-0.01em;}.cls-3,.cls-4,.cls-5,.cls-8{fill:none;stroke-linecap:round;stroke-linejoin:round;}.cls-3{stroke:#969696;stroke-width:0.75px;}.cls-4{stroke:#7d7d7d;stroke-width:0.6px;stroke-dasharray:4.8 4.8;}.cls-5,.cls-8{stroke:#000;}.cls-6{font-size:24px;}.cls-7{font-size:28px;}.cls-8{stroke-width:0.5px;}</style></defs><title>2floor_439flat</title><text class="cls-1" transform="translate(151.93 713.81)"><tspan class="cls-2">у</tspan><tspan x="5.42" y="0">лица</tspan></text><line class="cls-3" x1="141.17" y1="717.09" x2="141.17" y2="708.29"/><polyline class="cls-3" points="137.67 713.59 141.17 717.09 144.67 713.59"/><polyline class="cls-4" points="161.82 393.82 302.38 393.82 302.38 290.31 252.38 290.31 252.38 240.31 161.82 240.31 161.82 393.82"/><line class="cls-4" x1="145.4" y1="240.31" x2="67.02" y2="240.31"/><line class="cls-4" x1="145.4" y1="233.39" x2="67.02" y2="233.39"/><line class="cls-4" x1="154.06" y1="164.13" x2="154.06" y2="104.01"/><line class="cls-4" x1="160.93" y1="164.13" x2="160.93" y2="104.01"/><line class="cls-5" x1="0.5" y1="624.13" x2="0.5" y2="613.75"/><line class="cls-5" x1="0.5" y1="624.13" x2="0.5" y2="613.75"/><line class="cls-5" x1="0.5" y1="624.13" x2="10.73" y2="613.75"/><line class="cls-5" x1="14.09" y1="624.13" x2="24.42" y2="613.75"/><line class="cls-5" x1="27.83" y1="624.13" x2="38.17" y2="613.75"/><line class="cls-5" x1="41.53" y1="624.13" x2="51.86" y2="613.75"/><line class="cls-5" x1="55.27" y1="624.13" x2="60.89" y2="618.47"/><line class="cls-5" x1="0.5" y1="624.13" x2="0.5" y2="584.66"/><line class="cls-5" x1="0.5" y1="624.13" x2="6.17" y2="613.75"/><line class="cls-5" x1="9.52" y1="624.13" x2="19.86" y2="613.75"/><line class="cls-5" x1="23.22" y1="624.13" x2="33.6" y2="613.75"/><line class="cls-5" x1="36.96" y1="624.13" x2="47.3" y2="613.75"/><line class="cls-5" x1="50.71" y1="624.13" x2="60.89" y2="613.9"/><line class="cls-5" x1="263.6" y1="621.62" x2="271.42" y2="613.75"/><line class="cls-5" x1="274.83" y1="624.13" x2="285.17" y2="613.75"/><line class="cls-5" x1="288.52" y1="624.13" x2="298.91" y2="613.75"/><line class="cls-5" x1="302.27" y1="624.13" x2="312.61" y2="613.75"/><line class="cls-5" x1="315.96" y1="624.13" x2="319.64" y2="619.45"/><line class="cls-5" x1="263.6" y1="617.05" x2="266.86" y2="613.75"/><line class="cls-5" x1="270.27" y1="624.13" x2="280.6" y2="613.75"/><line class="cls-5" x1="283.96" y1="624.13" x2="294.3" y2="613.75"/><line class="cls-5" x1="297.71" y1="624.13" x2="308.04" y2="613.75"/><line class="cls-5" x1="311.4" y1="624.13" x2="319.64" y2="613.75"/><line class="cls-5" x1="319.64" y1="624.13" x2="319.64" y2="579.65"/><line class="cls-5" x1="11.62" y1="610.44" x2="20.75" y2="601.26"/><line class="cls-5" x1="23.79" y1="598.22" x2="32.97" y2="589.09"/><line class="cls-5" x1="36.02" y1="586.05" x2="43.63" y2="578.39"/><line class="cls-5" x1="44.52" y1="612.91" x2="50.66" y2="606.77"/><line class="cls-5" x1="53.7" y1="603.73" x2="57.42" y2="599.95"/><line class="cls-5" x1="17.76" y1="586.57" x2="18.02" y2="586.31"/><line class="cls-5" x1="21.07" y1="583.27" x2="25.94" y2="578.39"/><line class="cls-5" x1="26.84" y1="612.91" x2="35.7" y2="604.04"/><line class="cls-5" x1="38.75" y1="600.95" x2="47.93" y2="591.82"/><line class="cls-5" x1="50.97" y1="588.77" x2="57.42" y2="582.27"/><line class="cls-5" x1="269.59" y1="600.05" x2="278.77" y2="590.92"/><line class="cls-5" x1="281.81" y1="587.83" x2="290.94" y2="578.7"/><line class="cls-5" x1="292.14" y1="612.91" x2="296.45" y2="608.6"/><line class="cls-5" x1="299.49" y1="605.56" x2="308.62" y2="596.38"/><line class="cls-5" x1="315.96" y1="605.56" x2="319.64" y2="601.87"/><line class="cls-5" x1="267.01" y1="584.94" x2="273.57" y2="578.39"/><line class="cls-5" x1="274.46" y1="612.91" x2="281.49" y2="605.82"/><line class="cls-5" x1="284.54" y1="602.78" x2="293.67" y2="593.65"/><line class="cls-5" x1="296.76" y1="590.61" x2="302.38" y2="584.94"/><line class="cls-5" x1="309.82" y1="612.91" x2="311.4" y2="611.33"/><line class="cls-5" x1="263.6" y1="613.75" x2="319.64" y2="613.75"/><line class="cls-5" x1="0.5" y1="613.75" x2="60.89" y2="613.75"/><line class="cls-5" x1="267.01" y1="612.91" x2="319.64" y2="612.91"/><line class="cls-5" x1="0.5" y1="612.91" x2="57.42" y2="612.91"/><line class="cls-5" x1="267.01" y1="607.71" x2="267.01" y2="578.39"/><line class="cls-5" x1="263.6" y1="613.75" x2="263.6" y2="612.91"/><line class="cls-5" x1="263.6" y1="624.13" x2="263.6" y2="613.75"/><line class="cls-5" x1="263.6" y1="612.91" x2="267.01" y2="612.91"/><line class="cls-5" x1="267.01" y1="612.91" x2="267.01" y2="607.71"/><line class="cls-5" x1="57.42" y1="607.71" x2="57.42" y2="578.39"/><line class="cls-5" x1="60.89" y1="613.75" x2="60.89" y2="612.91"/><line class="cls-5" x1="60.89" y1="624.13" x2="60.89" y2="613.75"/><line class="cls-5" x1="60.89" y1="612.91" x2="57.42" y2="612.91"/><line class="cls-5" x1="57.42" y1="612.91" x2="57.42" y2="607.71"/><line class="cls-5" x1="302.38" y1="578.39" x2="267.01" y2="578.39"/><line class="cls-5" x1="57.42" y1="578.39" x2="17.76" y2="578.39"/><line class="cls-5" x1="0.5" y1="624.13" x2="60.89" y2="624.13"/><line class="cls-5" x1="263.6" y1="624.13" x2="319.64" y2="624.13"/><line class="cls-5" x1="60.89" y1="624.13" x2="263.6" y2="624.13"/><line class="cls-5" x1="57.42" y1="578.39" x2="267.01" y2="578.39"/><polyline class="cls-5" points="57.42 607.71 62.2 607.71 62.2 611.18 64.35 611.18 64.35 612.91 57.42 612.91"/><polyline class="cls-5" points="128.46 612.91 125 612.91 125 611.18 127.15 611.18 127.15 607.71 128.46 607.71"/><line class="cls-5" x1="125" y1="612.91" x2="64.35" y2="612.91"/><polyline class="cls-5" points="62.2 605.98 67.34 605.98 122.01 605.98"/><polyline class="cls-5" points="67.34 605.98 67.34 611.18 62.2 611.18 62.2 605.98"/><polyline class="cls-5" points="127.15 611.18 122.01 611.18 122.01 605.98 127.15 605.98 127.15 611.18"/><line class="cls-5" x1="122.01" y1="611.18" x2="67.34" y2="611.18"/><line class="cls-5" x1="67.34" y1="605.98" x2="122.01" y2="605.98"/><line class="cls-5" x1="67.34" y1="608.6" x2="122.01" y2="608.6"/><polyline class="cls-5" points="128.46 607.71 129.77 607.71 129.77 611.18 131.92 611.18 131.92 612.91 128.46 612.91"/><polyline class="cls-5" points="196.03 612.91 192.57 612.91 192.57 611.18 194.72 611.18 194.72 607.71 196.03 607.71"/><line class="cls-5" x1="192.57" y1="612.91" x2="131.92" y2="612.91"/><polyline class="cls-5" points="129.77 605.98 134.91 605.98 189.53 605.98"/><polyline class="cls-5" points="134.91 605.98 134.91 611.18 129.77 611.18 129.77 605.98"/><polyline class="cls-5" points="194.72 611.18 189.53 611.18 189.53 605.98 194.72 605.98 194.72 611.18"/><line class="cls-5" x1="189.53" y1="611.18" x2="134.91" y2="611.18"/><line class="cls-5" x1="134.91" y1="605.98" x2="189.53" y2="605.98"/><line class="cls-5" x1="134.91" y1="608.6" x2="189.53" y2="608.6"/><polyline class="cls-5" points="196.03 607.71 197.29 607.71 197.29 611.18 199.49 611.18 199.49 612.91 196.03 612.91"/><polyline class="cls-5" points="267.01 612.91 260.14 612.91 260.14 611.18 262.29 611.18 262.29 607.71 267.01 607.71"/><line class="cls-5" x1="260.14" y1="612.91" x2="199.49" y2="612.91"/><polyline class="cls-5" points="197.29 605.98 202.49 605.98 257.1 605.98"/><polyline class="cls-5" points="202.49 605.98 202.49 611.18 197.29 611.18 197.29 605.98"/><polyline class="cls-5" points="262.29 611.18 257.1 611.18 257.1 605.98 262.29 605.98 262.29 611.18"/><line class="cls-5" x1="257.1" y1="611.18" x2="202.48" y2="611.18"/><line class="cls-5" x1="202.48" y1="605.98" x2="257.1" y2="605.98"/><line class="cls-5" x1="202.48" y1="608.6" x2="257.1" y2="608.6"/><polyline class="cls-5" points="57.42 607.71 57.42 612.91 57.42 607.71"/><polyline class="cls-5" points="57.42 612.91 60.89 612.91 57.42 612.91"/><polyline class="cls-5" points="60.89 624.13 60.89 613.75 60.89 612.91"/><line class="cls-5" x1="57.42" y1="607.71" x2="57.42" y2="578.39"/><polyline class="cls-5" points="267.01 607.71 267.01 612.91 267.01 607.71"/><polyline class="cls-5" points="267.01 612.91 263.61 612.91 267.01 612.91"/><polyline class="cls-5" points="263.61 624.13 263.61 613.75 263.61 612.91"/><line class="cls-5" x1="267.01" y1="607.71" x2="267.01" y2="578.39"/><line class="cls-5" x1="252.38" y1="286.74" x2="255.68" y2="283.44"/><line class="cls-5" x1="252.38" y1="244.04" x2="256.1" y2="240.31"/><line class="cls-5" x1="252.38" y1="250.12" x2="259.25" y2="243.25"/><line class="cls-5" x1="252.38" y1="256.21" x2="259.25" y2="249.33"/><line class="cls-5" x1="252.38" y1="262.35" x2="259.25" y2="255.42"/><line class="cls-5" x1="252.38" y1="268.43" x2="259.25" y2="261.51"/><line class="cls-5" x1="252.38" y1="274.52" x2="259.25" y2="267.64"/><line class="cls-5" x1="252.38" y1="280.6" x2="259.25" y2="273.73"/><line class="cls-5" x1="255.68" y1="283.44" x2="259.25" y2="279.82"/><line class="cls-5" x1="252.38" y1="240.31" x2="252.38" y2="290.31"/><line class="cls-5" x1="259.25" y1="283.44" x2="259.25" y2="240.31"/><line class="cls-5" x1="254.9" y1="290.31" x2="259.25" y2="285.9"/><line class="cls-5" x1="252.38" y1="290.31" x2="259.25" y2="290.31"/><line class="cls-5" x1="17.76" y1="234.7" x2="19.07" y2="233.39"/><line class="cls-5" x1="18.23" y1="240.31" x2="25.16" y2="233.39"/><line class="cls-5" x1="24.37" y1="240.31" x2="31.24" y2="233.39"/><line class="cls-5" x1="30.46" y1="240.31" x2="37.33" y2="233.39"/><line class="cls-5" x1="36.54" y1="240.31" x2="43.47" y2="233.39"/><line class="cls-5" x1="42.63" y1="240.31" x2="49.55" y2="233.39"/><line class="cls-5" x1="48.77" y1="240.31" x2="55.64" y2="233.39"/><line class="cls-5" x1="54.85" y1="240.31" x2="61.72" y2="233.39"/><line class="cls-5" x1="60.94" y1="240.31" x2="67.81" y2="233.44"/><line class="cls-5" x1="67.02" y1="240.31" x2="67.81" y2="239.52"/><line class="cls-5" x1="145.4" y1="235.12" x2="147.14" y2="233.39"/><line class="cls-5" x1="146.35" y1="240.31" x2="153.22" y2="233.39"/><line class="cls-5" x1="152.43" y1="240.31" x2="159.31" y2="233.39"/><line class="cls-5" x1="158.52" y1="240.31" x2="165.45" y2="233.39"/><line class="cls-5" x1="164.61" y1="240.31" x2="171.53" y2="233.39"/><line class="cls-5" x1="170.74" y1="240.31" x2="177.62" y2="233.39"/><line class="cls-5" x1="176.83" y1="240.31" x2="183.7" y2="233.39"/><line class="cls-5" x1="182.92" y1="240.31" x2="189.84" y2="233.39"/><line class="cls-5" x1="189" y1="240.31" x2="195.93" y2="233.39"/><line class="cls-5" x1="195.14" y1="240.31" x2="202.01" y2="233.39"/><line class="cls-5" x1="201.23" y1="240.31" x2="208.1" y2="233.39"/><line class="cls-5" x1="207.31" y1="240.31" x2="214.24" y2="233.39"/><line class="cls-5" x1="213.4" y1="240.31" x2="220.32" y2="233.39"/><line class="cls-5" x1="219.54" y1="240.31" x2="226.41" y2="233.39"/><line class="cls-5" x1="225.62" y1="240.31" x2="232.49" y2="233.39"/><line class="cls-5" x1="231.71" y1="240.31" x2="238.63" y2="233.39"/><line class="cls-5" x1="237.79" y1="240.31" x2="244.72" y2="233.39"/><line class="cls-5" x1="243.93" y1="240.31" x2="250.8" y2="233.39"/><line class="cls-5" x1="250.02" y1="240.31" x2="256.89" y2="233.39"/><line class="cls-5" x1="256.1" y1="240.31" x2="259.25" y2="237.11"/><line class="cls-5" x1="293.77" y1="239.21" x2="299.59" y2="233.39"/><line class="cls-5" x1="298.81" y1="240.31" x2="302.38" y2="236.69"/><line class="cls-5" x1="67.81" y1="240.31" x2="67.81" y2="233.39"/><line class="cls-5" x1="145.4" y1="240.31" x2="145.4" y2="233.39"/><polyline class="cls-5" points="293.77 233.39 293.77 236.85 293.77 240.31"/><polyline class="cls-5" points="259.25 233.39 259.25 236.85 259.25 240.31"/><line class="cls-5" x1="17.76" y1="240.31" x2="67.81" y2="240.31"/><line class="cls-5" x1="145.4" y1="240.31" x2="252.38" y2="240.31"/><line class="cls-5" x1="293.77" y1="240.31" x2="302.38" y2="240.31"/><line class="cls-5" x1="302.38" y1="233.39" x2="293.77" y2="233.39"/><line class="cls-5" x1="259.25" y1="233.39" x2="160.93" y2="233.39"/><line class="cls-5" x1="154.06" y1="233.39" x2="145.4" y2="233.39"/><line class="cls-5" x1="67.81" y1="233.39" x2="17.76" y2="233.39"/><line class="cls-5" x1="259.25" y1="233.39" x2="293.77" y2="233.39"/><line class="cls-5" x1="259.25" y1="240.31" x2="293.77" y2="240.31"/><path class="cls-5" d="M261.38,221.06a34.67,34.67,0,0,0-2.08,11.8" transform="translate(-0.05 0.5)"/><line class="cls-5" x1="293.77" y1="233.39" x2="261.35" y2="221.58"/><polyline class="cls-5" points="259.25 240.31 259.25 236.85 259.25 233.39 259.25 236.85"/><polyline class="cls-5" points="293.77 240.31 293.77 236.85 293.77 233.39 293.77 236.85"/><line class="cls-5" x1="259.25" y1="285.9" x2="261.77" y2="283.44"/><line class="cls-5" x1="260.98" y1="290.31" x2="267.85" y2="283.44"/><line class="cls-5" x1="267.07" y1="290.31" x2="273.99" y2="283.44"/><line class="cls-5" x1="273.15" y1="290.31" x2="280.08" y2="283.44"/><line class="cls-5" x1="279.29" y1="290.31" x2="286.16" y2="283.44"/><line class="cls-5" x1="285.38" y1="290.31" x2="292.25" y2="283.44"/><line class="cls-5" x1="291.46" y1="290.31" x2="298.39" y2="283.44"/><line class="cls-5" x1="297.55" y1="290.31" x2="302.38" y2="285.48"/><line class="cls-5" x1="259.25" y1="290.31" x2="302.38" y2="290.31"/><line class="cls-5" x1="302.38" y1="283.44" x2="259.25" y2="283.44"/><line class="cls-5" x1="154.06" y1="31.3" x2="154.64" y2="30.72"/><line class="cls-5" x1="154.06" y1="37.43" x2="160.78" y2="30.72"/><line class="cls-5" x1="154.06" y1="43.52" x2="160.93" y2="36.59"/><line class="cls-5" x1="154.06" y1="49.61" x2="160.93" y2="42.73"/><line class="cls-5" x1="154.06" y1="55.69" x2="160.93" y2="48.82"/><line class="cls-5" x1="154.06" y1="61.83" x2="160.93" y2="54.9"/><line class="cls-5" x1="154.06" y1="67.92" x2="160.93" y2="60.99"/><line class="cls-5" x1="154.06" y1="74" x2="160.93" y2="67.13"/><line class="cls-5" x1="154.06" y1="80.09" x2="160.93" y2="73.21"/><line class="cls-5" x1="154.06" y1="86.23" x2="160.93" y2="79.3"/><line class="cls-5" x1="154.06" y1="92.31" x2="160.93" y2="85.39"/><line class="cls-5" x1="154.06" y1="98.4" x2="160.93" y2="91.52"/><line class="cls-5" x1="154.53" y1="104.01" x2="160.93" y2="97.61"/><line class="cls-5" x1="160.62" y1="104.01" x2="160.93" y2="103.7"/><line class="cls-5" x1="154.06" y1="165.5" x2="155.16" y2="164.4"/><line class="cls-5" x1="154.06" y1="171.58" x2="160.93" y2="164.71"/><line class="cls-5" x1="154.06" y1="177.67" x2="160.93" y2="170.8"/><line class="cls-5" x1="154.06" y1="183.81" x2="160.93" y2="176.88"/><line class="cls-5" x1="154.06" y1="189.89" x2="160.93" y2="182.97"/><line class="cls-5" x1="154.06" y1="195.98" x2="160.93" y2="189.11"/><line class="cls-5" x1="154.06" y1="202.06" x2="160.93" y2="195.19"/><line class="cls-5" x1="154.06" y1="208.2" x2="160.93" y2="201.28"/><line class="cls-5" x1="154.06" y1="214.29" x2="160.93" y2="207.36"/><line class="cls-5" x1="154.06" y1="220.37" x2="160.93" y2="213.5"/><line class="cls-5" x1="154.06" y1="226.46" x2="160.93" y2="219.59"/><line class="cls-5" x1="154.06" y1="232.6" x2="160.93" y2="225.67"/><line class="cls-5" x1="159.31" y1="233.39" x2="160.93" y2="231.76"/><line class="cls-5" x1="160.93" y1="104.01" x2="154.06" y2="104.01"/><polyline class="cls-5" points="160.93 233.39 160.93 164.4 154.06 164.4"/><polyline class="cls-5" points="160.93 104.01 160.93 30.72 154.06 30.72 154.06 104.01"/><line class="cls-5" x1="154.06" y1="164.4" x2="154.06" y2="233.39"/><line class="cls-5" x1="319.64" y1="503.73" x2="313.97" y2="498.06"/><line class="cls-5" x1="311.66" y1="495.76" x2="304.84" y2="488.88"/><line class="cls-5" x1="302.53" y1="486.63" x2="302.38" y2="486.47"/><line class="cls-5" x1="319.64" y1="479.33" x2="317.01" y2="476.71"/><line class="cls-5" x1="314.76" y1="474.4" x2="307.88" y2="467.53"/><line class="cls-5" x1="305.58" y1="465.27" x2="302.38" y2="462.07"/><line class="cls-5" x1="317.8" y1="453.05" x2="310.93" y2="446.23"/><line class="cls-5" x1="308.62" y1="443.92" x2="302.38" y2="437.68"/><line class="cls-5" x1="319.64" y1="430.54" x2="313.97" y2="424.88"/><line class="cls-5" x1="311.66" y1="422.57" x2="304.84" y2="415.7"/><line class="cls-5" x1="302.53" y1="413.44" x2="302.38" y2="413.28"/><line class="cls-5" x1="319.64" y1="406.15" x2="317.01" y2="403.52"/><line class="cls-5" x1="314.76" y1="401.22" x2="307.88" y2="394.34"/><line class="cls-5" x1="305.58" y1="392.09" x2="302.38" y2="388.89"/><line class="cls-5" x1="317.8" y1="379.86" x2="310.93" y2="373.04"/><line class="cls-5" x1="308.62" y1="370.74" x2="302.38" y2="364.49"/><line class="cls-5" x1="319.64" y1="357.36" x2="313.97" y2="351.69"/><line class="cls-5" x1="311.66" y1="349.38" x2="304.84" y2="342.51"/><line class="cls-5" x1="302.53" y1="340.25" x2="302.38" y2="340.1"/><line class="cls-5" x1="313.13" y1="509.4" x2="312.45" y2="508.71"/><line class="cls-5" x1="310.14" y1="506.46" x2="303.32" y2="499.59"/><line class="cls-5" x1="319.64" y1="491.51" x2="315.49" y2="487.36"/><line class="cls-5" x1="313.18" y1="485.11" x2="306.36" y2="478.23"/><line class="cls-5" x1="304.05" y1="475.92" x2="302.38" y2="474.3"/><line class="cls-5" x1="319.64" y1="467.11" x2="318.53" y2="466.01"/><line class="cls-5" x1="316.28" y1="463.75" x2="309.41" y2="456.88"/><line class="cls-5" x1="307.1" y1="454.57" x2="302.38" y2="449.9"/><line class="cls-5" x1="319.32" y1="442.4" x2="312.45" y2="435.53"/><line class="cls-5" x1="310.14" y1="433.27" x2="303.32" y2="426.4"/><line class="cls-5" x1="319.64" y1="418.32" x2="315.49" y2="414.18"/><line class="cls-5" x1="313.18" y1="411.92" x2="306.36" y2="405.05"/><line class="cls-5" x1="304.05" y1="402.74" x2="302.38" y2="401.11"/><line class="cls-5" x1="319.64" y1="393.92" x2="318.53" y2="392.82"/><line class="cls-5" x1="316.28" y1="390.57" x2="309.41" y2="383.69"/><line class="cls-5" x1="307.1" y1="381.39" x2="302.38" y2="376.72"/><line class="cls-5" x1="319.32" y1="369.21" x2="312.45" y2="362.34"/><line class="cls-5" x1="310.14" y1="360.09" x2="303.32" y2="353.21"/><line class="cls-5" x1="319.64" y1="345.13" x2="315.49" y2="340.99"/><line class="cls-5" x1="313.18" y1="338.73" x2="311.4" y2="336.9"/><line class="cls-5" x1="317.64" y1="233.39" x2="310.93" y2="226.67"/><line class="cls-5" x1="308.62" y1="224.36" x2="302.38" y2="218.12"/><line class="cls-5" x1="319.64" y1="210.98" x2="313.97" y2="205.32"/><line class="cls-5" x1="311.66" y1="203.01" x2="304.84" y2="196.14"/><line class="cls-5" x1="302.53" y1="193.88" x2="302.38" y2="193.72"/><line class="cls-5" x1="319.64" y1="186.59" x2="317.01" y2="183.96"/><line class="cls-5" x1="314.76" y1="181.66" x2="307.88" y2="174.78"/><line class="cls-5" x1="305.58" y1="172.53" x2="302.38" y2="169.33"/><line class="cls-5" x1="317.8" y1="160.3" x2="310.93" y2="153.48"/><line class="cls-5" x1="308.62" y1="151.18" x2="302.38" y2="144.93"/><line class="cls-5" x1="319.64" y1="137.8" x2="313.97" y2="132.13"/><line class="cls-5" x1="311.66" y1="129.82" x2="304.84" y2="122.95"/><line class="cls-5" x1="302.53" y1="120.69" x2="302.38" y2="120.54"/><line class="cls-5" x1="319.64" y1="113.4" x2="317.01" y2="110.78"/><line class="cls-5" x1="314.76" y1="108.47" x2="307.88" y2="101.6"/><line class="cls-5" x1="305.58" y1="99.34" x2="302.38" y2="96.14"/><line class="cls-5" x1="317.8" y1="87.12" x2="317.43" y2="86.75"/><line class="cls-5" x1="305.47" y1="233.39" x2="302.38" y2="230.34"/><line class="cls-5" x1="319.32" y1="222.84" x2="312.45" y2="215.97"/><line class="cls-5" x1="310.14" y1="213.71" x2="303.32" y2="206.84"/><line class="cls-5" x1="319.64" y1="198.76" x2="315.49" y2="194.62"/><line class="cls-5" x1="313.18" y1="192.36" x2="306.36" y2="185.49"/><line class="cls-5" x1="304.05" y1="183.18" x2="302.38" y2="181.55"/><line class="cls-5" x1="319.64" y1="174.36" x2="318.53" y2="173.26"/><line class="cls-5" x1="316.28" y1="171.01" x2="309.41" y2="164.13"/><line class="cls-5" x1="307.1" y1="161.83" x2="302.38" y2="157.16"/><line class="cls-5" x1="319.32" y1="149.65" x2="312.45" y2="142.78"/><line class="cls-5" x1="310.14" y1="140.53" x2="303.32" y2="133.65"/><line class="cls-5" x1="319.64" y1="125.57" x2="315.49" y2="121.43"/><line class="cls-5" x1="313.18" y1="119.17" x2="306.36" y2="112.3"/><line class="cls-5" x1="304.05" y1="109.99" x2="302.38" y2="108.37"/><line class="cls-5" x1="319.64" y1="101.18" x2="318.53" y2="100.08"/><line class="cls-5" x1="316.28" y1="97.82" x2="309.41" y2="90.95"/><line class="cls-5" x1="307.1" y1="88.64" x2="305.21" y2="86.75"/><line class="cls-5" x1="302.38" y1="86.75" x2="302.38" y2="233.39"/><line class="cls-5" x1="302.38" y1="336.9" x2="302.38" y2="509.4"/><line class="cls-5" x1="319.64" y1="509.4" x2="319.64" y2="336.9"/><line class="cls-5" x1="319.64" y1="233.39" x2="319.64" y2="86.75"/><line class="cls-5" x1="164.66" y1="7.16" x2="164.55" y2="7.11"/><line class="cls-5" x1="162.25" y1="4.8" x2="158" y2="0.5"/><line class="cls-5" x1="158.52" y1="13.25" x2="154.06" y2="8.79"/><line class="cls-5" x1="170.74" y1="1.08" x2="170.17" y2="0.5"/><line class="cls-5" x1="53.23" y1="17.76" x2="48.66" y2="13.2"/><line class="cls-5" x1="63.46" y1="3.6" x2="60.89" y2="0.97"/><line class="cls-5" x1="63.46" y1="15.82" x2="59.36" y2="11.67"/><line class="cls-5" x1="57.06" y1="9.37" x2="50.18" y2="2.49"/><polyline class="cls-5" points="154.06 0.5 154.06 7.42 154.06 17.76"/><polyline class="cls-5" points="63.46 0.5 63.46 7.42 63.46 17.76"/><line class="cls-5" x1="171.27" y1="0.5" x2="154.06" y2="0.5"/><line class="cls-5" x1="63.46" y1="0.5" x2="47.98" y2="0.5"/><line class="cls-5" x1="47.98" y1="17.76" x2="63.46" y2="17.76"/><path class="cls-5" d="M67,6.9a79.35,79.35,0,0,0,79.35,79.35" transform="translate(-0.05 0.5)"/><line class="cls-5" x1="149.71" y1="7.43" x2="154.06" y2="7.43"/><polyline class="cls-5" points="149.71 0.5 154.06 0.5 154.06 7.42"/><polyline class="cls-5" points="63.46 0.5 66.92 0.5 66.92 7.42 63.46 7.42 63.46 0.5"/><polyline class="cls-5" points="149.71 7.42 146.3 7.42 146.3 0.5 149.71 0.5 149.71 7.42"/><line class="cls-5" x1="146.3" y1="7.43" x2="146.3" y2="86.75"/><polyline class="cls-5" points="63.46 17.76 63.46 7.42 63.46 0.5 63.46 7.42"/><polyline class="cls-5" points="154.06 17.76 154.06 7.42 154.06 0.5 154.06 7.42"/><line class="cls-5" x1="170.9" y1="13.46" x2="164.66" y2="7.16"/><line class="cls-5" x1="158.73" y1="13.46" x2="158.52" y2="13.25"/><line class="cls-5" x1="171.27" y1="1.65" x2="170.74" y2="1.08"/><line class="cls-5" x1="188.16" y1="30.72" x2="182.86" y2="25.37"/><line class="cls-5" x1="180.55" y1="23.11" x2="173.68" y2="16.24"/><line class="cls-5" x1="171.43" y1="13.93" x2="171.27" y2="13.83"/><line class="cls-5" x1="211.04" y1="29.2" x2="204.22" y2="22.32"/><line class="cls-5" x1="201.91" y1="20.07" x2="195.3" y2="13.46"/><line class="cls-5" x1="236.95" y1="30.72" x2="234.7" y2="28.41"/><line class="cls-5" x1="232.39" y1="26.15" x2="225.52" y2="19.28"/><line class="cls-5" x1="223.26" y1="16.97" x2="219.69" y2="13.46"/><line class="cls-5" x1="261.35" y1="30.72" x2="256.05" y2="25.37"/><line class="cls-5" x1="253.74" y1="23.11" x2="246.87" y2="16.24"/><line class="cls-5" x1="244.61" y1="13.93" x2="244.09" y2="13.46"/><line class="cls-5" x1="284.22" y1="29.2" x2="277.4" y2="22.32"/><line class="cls-5" x1="275.09" y1="20.07" x2="268.48" y2="13.46"/><line class="cls-5" x1="302.38" y1="22.95" x2="298.7" y2="19.28"/><line class="cls-5" x1="296.45" y1="16.97" x2="292.88" y2="13.46"/><line class="cls-5" x1="175.94" y1="30.72" x2="172.16" y2="26.89"/><line class="cls-5" x1="200.33" y1="30.72" x2="193.51" y2="23.85"/><line class="cls-5" x1="191.2" y1="21.59" x2="184.38" y2="14.72"/><line class="cls-5" x1="224.73" y1="30.72" x2="223.99" y2="29.93"/><line class="cls-5" x1="221.74" y1="27.68" x2="214.87" y2="20.8"/><line class="cls-5" x1="212.56" y1="18.55" x2="207.52" y2="13.46"/><line class="cls-5" x1="249.12" y1="30.72" x2="245.35" y2="26.89"/><line class="cls-5" x1="243.09" y1="24.63" x2="236.22" y2="17.76"/><line class="cls-5" x1="233.91" y1="15.45" x2="231.92" y2="13.46"/><line class="cls-5" x1="273.52" y1="30.72" x2="266.7" y2="23.85"/><line class="cls-5" x1="264.39" y1="21.59" x2="257.57" y2="14.72"/><line class="cls-5" x1="297.92" y1="30.72" x2="297.18" y2="29.93"/><line class="cls-5" x1="294.93" y1="27.68" x2="288.05" y2="20.8"/><line class="cls-5" x1="285.74" y1="18.55" x2="280.71" y2="13.46"/><line class="cls-5" x1="163.77" y1="30.72" x2="161.51" y2="28.41"/><line class="cls-5" x1="159.2" y1="26.15" x2="158.89" y2="25.84"/><line class="cls-5" x1="171.27" y1="13.83" x2="171.11" y2="13.62"/><line class="cls-5" x1="169.9" y1="24.63" x2="165.03" y2="19.75"/><line class="cls-5" x1="302.38" y1="13.46" x2="171.27" y2="13.46"/><line class="cls-5" x1="154.06" y1="30.72" x2="302.38" y2="30.72"/><line class="cls-5" x1="158.89" y1="25.84" x2="154.06" y2="20.96"/><line class="cls-5" x1="171.11" y1="13.62" x2="170.9" y2="13.46"/><line class="cls-5" x1="165.03" y1="19.75" x2="163.03" y2="17.76"/><line class="cls-5" x1="160.72" y1="15.45" x2="158.73" y2="13.46"/><line class="cls-5" x1="171.27" y1="13.46" x2="171.27" y2="0.5"/><line class="cls-5" x1="154.06" y1="17.76" x2="154.06" y2="30.72"/><line class="cls-5" x1="248.08" y1="244.61" x2="248.08" y2="292.04"/><line class="cls-5" x1="200.6" y1="244.61" x2="248.08" y2="244.61"/><line class="cls-5" x1="200.6" y1="292.04" x2="200.6" y2="244.61"/><line class="cls-5" x1="248.08" y1="292.04" x2="200.6" y2="292.04"/><line class="cls-5" x1="243.72" y1="287.74" x2="204.95" y2="287.74"/><line class="cls-5" x1="204.95" y1="287.74" x2="204.95" y2="253.22"/><line class="cls-5" x1="204.95" y1="253.22" x2="243.72" y2="253.22"/><line class="cls-5" x1="243.72" y1="253.22" x2="243.72" y2="287.74"/><line class="cls-5" x1="211.51" y1="30.72" x2="164.92" y2="30.72"/><line class="cls-5" x1="164.92" y1="30.72" x2="164.92" y2="50.39"/><line class="cls-5" x1="211.51" y1="30.72" x2="211.51" y2="50.39"/><line class="cls-5" x1="180.87" y1="30.72" x2="195.56" y2="30.72"/><line class="cls-5" x1="184.33" y1="46.51" x2="186.8" y2="46.51"/><line class="cls-5" x1="188.21" y1="42.58" x2="188.21" y2="45.09"/><line class="cls-5" x1="189.68" y1="46.51" x2="192.15" y2="46.51"/><line class="cls-5" x1="188.21" y1="47.93" x2="188.21" y2="50.45"/><path class="cls-5" d="M208.64,51.11a20.69,20.69,0,0,0-8-9.81" transform="translate(-0.05 0.5)"/><path class="cls-5" d="M200.62,41.27a20.7,20.7,0,0,0-12.37-2.9" transform="translate(-0.05 0.5)"/><path class="cls-5" d="M175.88,41.3a20.73,20.73,0,0,0-8,9.81" transform="translate(-0.05 0.5)"/><path class="cls-5" d="M188.23,38.37a20.7,20.7,0,0,0-12.37,2.9" transform="translate(-0.05 0.5)"/><path class="cls-5" d="M189.9,65.48A38.48,38.48,0,0,0,204,61.63" transform="translate(-0.05 0.5)"/><path class="cls-5" d="M165,49.88a11.84,11.84,0,0,0,4.42,9.74" transform="translate(-0.05 0.5)"/><path class="cls-5" d="M186.61,65.47a22.17,22.17,0,0,0,3.26,0" transform="translate(-0.05 0.5)"/><path class="cls-5" d="M201.28,42a85,85,0,0,0-26.07,0" transform="translate(-0.05 0.5)"/><path class="cls-5" d="M172.79,33.89a29.35,29.35,0,0,0-6.61,19" transform="translate(-0.05 0.5)"/><path class="cls-5" d="M188.26,31.11a58.6,58.6,0,0,0-13.33,1.44" transform="translate(-0.05 0.5)"/><path class="cls-5" d="M175,32.57a3.86,3.86,0,0,0-2.13,1.32" transform="translate(-0.05 0.5)"/><path class="cls-5" d="M188.25,33a99.47,99.47,0,0,0-13.13,1" transform="translate(-0.05 0.5)"/><path class="cls-5" d="M172.75,35.2a26.35,26.35,0,0,0-6.57,17.74" transform="translate(-0.05 0.5)"/><path class="cls-5" d="M175.12,33.93a3.86,3.86,0,0,0-2.36,1.27" transform="translate(-0.05 0.5)"/><path class="cls-5" d="M210.35,52.91a26.3,26.3,0,0,0-6.59-17.74" transform="translate(-0.05 0.5)"/><path class="cls-5" d="M210.35,52.9a29.3,29.3,0,0,0-6.64-19" transform="translate(-0.05 0.5)"/><path class="cls-5" d="M201.37,33.93A99.3,99.3,0,0,0,188.25,33" transform="translate(-0.05 0.5)"/><path class="cls-5" d="M201.58,32.54a58.12,58.12,0,0,0-13.34-1.43" transform="translate(-0.05 0.5)"/><path class="cls-5" d="M203.72,35.19a3.82,3.82,0,0,0-2.36-1.26" transform="translate(-0.05 0.5)"/><path class="cls-5" d="M203.71,33.89a3.86,3.86,0,0,0-2.14-1.32" transform="translate(-0.05 0.5)"/><path class="cls-5" d="M207.13,59.62a11.84,11.84,0,0,0,4.42-9.74" transform="translate(-0.05 0.5)"/><path class="cls-5" d="M204,61.62a19,19,0,0,0,3.09-2" transform="translate(-0.05 0.5)"/><path class="cls-5" d="M169.38,59.62a19,19,0,0,0,3.09,2" transform="translate(-0.05 0.5)"/><path class="cls-5" d="M172.49,61.63a38.53,38.53,0,0,0,14.14,3.85" transform="translate(-0.05 0.5)"/><path class="cls-5" d="M181.83,62.19a27.24,27.24,0,0,0,12.82,0" transform="translate(-0.05 0.5)"/><path class="cls-5" d="M206.3,56.85a7,7,0,0,0,2.41-5.78" transform="translate(-0.05 0.5)"/><path class="cls-5" d="M194.67,62.15a25.25,25.25,0,0,0,11.61-5.32" transform="translate(-0.05 0.5)"/><path class="cls-5" d="M167.82,51.07a7,7,0,0,0,2.41,5.78" transform="translate(-0.05 0.5)"/><path class="cls-5" d="M170.25,56.83a25.25,25.25,0,0,0,11.61,5.32" transform="translate(-0.05 0.5)"/><path class="cls-5" d="M185.22,46a3,3,0,1,0,3-3,3,3,0,0,0-3,3" transform="translate(-0.05 0.5)"/><path class="cls-5" d="M186.06,46a2.18,2.18,0,1,0,2.18-2.17A2.18,2.18,0,0,0,186.06,46" transform="translate(-0.05 0.5)"/><line class="cls-5" x1="289.15" y1="182.92" x2="258.67" y2="182.92"/><line class="cls-5" x1="302.38" y1="181.66" x2="302.38" y2="214.39"/><line class="cls-5" x1="302.38" y1="181.66" x2="290.99" y2="181.66"/><line class="cls-5" x1="283.8" y1="198.03" x2="283.8" y2="210.2"/><line class="cls-5" x1="258.73" y1="182.92" x2="283.8" y2="185.85"/><line class="cls-5" x1="283.8" y1="198.03" x2="283.8" y2="185.85"/><line class="cls-5" x1="258.73" y1="213.13" x2="283.8" y2="210.2"/><line class="cls-5" x1="258.73" y1="183.7" x2="283.8" y2="186.64"/><line class="cls-5" x1="258.73" y1="212.35" x2="283.8" y2="209.41"/><line class="cls-5" x1="289.15" y1="213.13" x2="258.67" y2="213.13"/><line class="cls-5" x1="302.38" y1="214.39" x2="290.99" y2="214.39"/><line class="cls-5" x1="258.73" y1="182.92" x2="255.37" y2="183.39"/><line class="cls-5" x1="255.37" y1="183.39" x2="252.17" y2="184.65"/><line class="cls-5" x1="252.17" y1="184.65" x2="249.39" y2="186.69"/><line class="cls-5" x1="249.39" y1="186.69" x2="247.13" y2="189.42"/><line class="cls-5" x1="247.13" y1="189.42" x2="245.5" y2="192.67"/><line class="cls-5" x1="245.5" y1="192.67" x2="244.72" y2="196.19"/><line class="cls-5" x1="244.72" y1="196.19" x2="244.72" y2="199.86"/><line class="cls-5" x1="244.72" y1="199.86" x2="245.5" y2="203.38"/><line class="cls-5" x1="245.5" y1="203.38" x2="247.13" y2="206.63"/><line class="cls-5" x1="247.13" y1="206.63" x2="249.39" y2="209.36"/><line class="cls-5" x1="249.39" y1="209.36" x2="252.17" y2="211.4"/><line class="cls-5" x1="252.17" y1="211.4" x2="255.37" y2="212.66"/><line class="cls-5" x1="255.37" y1="212.66" x2="258.73" y2="213.13"/><line class="cls-5" x1="258.73" y1="183.7" x2="255.53" y2="184.12"/><line class="cls-5" x1="255.53" y1="184.12" x2="252.53" y2="185.33"/><line class="cls-5" x1="252.53" y1="185.33" x2="249.86" y2="187.32"/><line class="cls-5" x1="249.86" y1="187.32" x2="247.76" y2="189.89"/><line class="cls-5" x1="247.76" y1="189.89" x2="246.24" y2="192.94"/><line class="cls-5" x1="246.24" y1="192.94" x2="245.5" y2="196.29"/><line class="cls-5" x1="245.5" y1="196.29" x2="245.5" y2="199.76"/><line class="cls-5" x1="245.5" y1="199.76" x2="246.24" y2="203.11"/><line class="cls-5" x1="246.24" y1="203.11" x2="247.76" y2="206.16"/><line class="cls-5" x1="247.76" y1="206.16" x2="249.86" y2="208.73"/><line class="cls-5" x1="249.86" y1="208.73" x2="252.53" y2="210.72"/><line class="cls-5" x1="252.53" y1="210.72" x2="255.53" y2="211.93"/><line class="cls-5" x1="255.53" y1="211.93" x2="258.73" y2="212.35"/><path class="cls-5" d="M289.09,182.81a138.63,138.63,0,0,0,0,29.37" transform="translate(-0.05 0.5)"/><path class="cls-5" d="M291,181.1a1.93,1.93,0,0,0-1.91,1.71" transform="translate(-0.05 0.5)"/><path class="cls-5" d="M289.11,212.17a1.91,1.91,0,0,0,1.91,1.72" transform="translate(-0.05 0.5)"/><path class="cls-5" d="M293.61,197.5a1.6,1.6,0,1,0,1.6-1.6,1.6,1.6,0,0,0-1.6,1.6" transform="translate(-0.05 0.5)"/><line class="cls-5" x1="289.63" y1="50.55" x2="284.7" y2="50.55"/><line class="cls-5" x1="282.54" y1="48.4" x2="282.54" y2="43.47"/><line class="cls-5" x1="280.39" y1="50.55" x2="275.51" y2="50.55"/><line class="cls-5" x1="282.54" y1="57.58" x2="282.54" y2="52.7"/><line class="cls-5" x1="297.23" y1="104.01" x2="276.51" y2="104.01"/><line class="cls-5" x1="277.35" y1="35.02" x2="229.92" y2="35.02"/><line class="cls-5" x1="229.08" y1="56.58" x2="229.08" y2="35.86"/><line class="cls-5" x1="297.23" y1="104.01" x2="276.51" y2="104.01"/><line class="cls-5" x1="298.07" y1="103.17" x2="298.07" y2="55.74"/><line class="cls-5" x1="301.54" y1="108.31" x2="276.51" y2="108.31"/><line class="cls-5" x1="301.54" y1="30.72" x2="225.62" y2="30.72"/><line class="cls-5" x1="224.78" y1="56.58" x2="224.78" y2="31.56"/><line class="cls-5" x1="302.38" y1="107.47" x2="302.38" y2="31.56"/><path class="cls-5" d="M298.12,55.22a4.33,4.33,0,0,0-.22-1.38" transform="translate(-0.05 0.5)"/><path class="cls-5" d="M297.26,103.51a.86.86,0,0,0,.86-.87" transform="translate(-0.05 0.5)"/><path class="cls-5" d="M298.12,55.22a4.33,4.33,0,0,0-.22-1.38" transform="translate(-0.05 0.5)"/><path class="cls-5" d="M224.78,56.06a51.75,51.75,0,0,0,51.76,51.75" transform="translate(-0.05 0.5)"/><path class="cls-5" d="M301.56,107.81a.86.86,0,0,0,.87-.86" transform="translate(-0.05 0.5)"/><path class="cls-5" d="M229.08,56.06a47.45,47.45,0,0,0,47.46,47.45" transform="translate(-0.05 0.5)"/><path class="cls-5" d="M225.65,30.17a.86.86,0,0,0-.87.86" transform="translate(-0.05 0.5)"/><path class="cls-5" d="M230,34.47a.87.87,0,0,0-.87.86" transform="translate(-0.05 0.5)"/><path class="cls-5" d="M302.43,31a.86.86,0,0,0-.87-.86" transform="translate(-0.05 0.5)"/><path class="cls-5" d="M298,54.39a46.5,46.5,0,0,0-19.81-19.82" transform="translate(-0.05 0.5)"/><path class="cls-5" d="M278.75,34.69a4.27,4.27,0,0,0-1.37-.22" transform="translate(-0.05 0.5)"/><path class="cls-5" d="M297.86,53.87a30.34,30.34,0,0,0-19.13-19.14" transform="translate(-0.05 0.5)"/><path class="cls-5" d="M278.75,34.69a4.27,4.27,0,0,0-1.37-.22" transform="translate(-0.05 0.5)"/><path class="cls-5" d="M282.57,53.88A3.86,3.86,0,1,0,278.71,50a3.85,3.85,0,0,0,3.86,3.86" transform="translate(-0.05 0.5)"/><path class="cls-5" d="M282.57,55.45A5.43,5.43,0,1,0,277.14,50a5.43,5.43,0,0,0,5.43,5.43" transform="translate(-0.05 0.5)"/><line class="cls-5" x1="319.64" y1="181.66" x2="319.64" y2="214.39"/><line class="cls-5" x1="319.64" y1="152.33" x2="319.64" y2="76.41"/><polyline class="cls-5" points="263.61 626.28 263.13 626.28 263.13 673.71 263.61 673.71 263.61 626.28"/><polyline class="cls-5" points="261.87 675.44 261.87 674.97 182.5 674.97 182.5 675.44 261.87 675.44"/><polyline class="cls-5" points="180.76 673.71 181.24 673.71 181.24 626.28 180.76 626.28 180.76 673.71"/><polyline class="cls-5" points="264.02 624.13 261.87 624.13 261.87 626.28 264.02 626.28 264.02 624.13"/><polyline class="cls-5" points="264.02 673.71 261.87 673.71 261.87 675.86 264.02 675.86 264.02 673.71"/><polyline class="cls-5" points="182.5 675.86 182.5 673.71 180.34 673.71 180.34 675.86 182.5 675.86"/><polyline class="cls-5" points="180.34 626.28 182.5 626.28 182.5 624.13 180.34 624.13 180.34 626.28"/><line class="cls-5" x1="261.87" y1="625.18" x2="261.87" y2="673.71"/><line class="cls-5" x1="264.02" y1="675.86" x2="264.02" y2="625.18"/><line class="cls-5" x1="261.87" y1="673.71" x2="182.5" y2="673.71"/><line class="cls-5" x1="180.34" y1="675.86" x2="264.02" y2="675.86"/><line class="cls-5" x1="182.5" y1="673.71" x2="182.5" y2="625.18"/><line class="cls-5" x1="180.34" y1="625.18" x2="180.34" y2="675.86"/><polyline class="cls-5" points="264.02 625.18 264.02 624.13 261.87 624.13 261.87 625.18"/><polyline class="cls-5" points="182.5 625.18 182.5 624.13 180.34 624.13 180.34 625.18"/><polyline class="cls-5" points="180.34 675.86 264.02 675.86 264.02 625.18 261.87 625.18 261.87 673.71 182.5 673.71 182.5 625.18 180.34 625.18 180.34 675.86"/><polyline class="cls-5" points="184.65 660.33 259.72 660.33 259.72 632.74 184.65 632.74 184.65 660.33"/><polyline class="cls-5" points="184.65 657.55 259.72 657.55 259.72 632.74 184.65 632.74 184.65 657.55"/><line class="cls-5" x1="0.5" y1="233.39" x2="0.5" y2="233.39"/><line class="cls-5" x1="15.87" y1="224.36" x2="9.05" y2="217.49"/><line class="cls-5" x1="6.74" y1="215.23" x2="0.5" y2="208.99"/><line class="cls-5" x1="17.76" y1="201.86" x2="12.09" y2="196.14"/><line class="cls-5" x1="9.79" y1="193.88" x2="2.91" y2="187.01"/><line class="cls-5" x1="0.66" y1="184.7" x2="0.5" y2="184.59"/><line class="cls-5" x1="17.76" y1="177.46" x2="15.14" y2="174.78"/><line class="cls-5" x1="12.83" y1="172.53" x2="5.96" y2="165.66"/><line class="cls-5" x1="3.7" y1="163.35" x2="0.5" y2="160.2"/><line class="cls-5" x1="15.87" y1="151.18" x2="9.05" y2="144.3"/><line class="cls-5" x1="6.74" y1="142.05" x2="0.5" y2="135.8"/><line class="cls-5" x1="17.76" y1="128.67" x2="12.09" y2="122.95"/><line class="cls-5" x1="9.79" y1="120.69" x2="2.91" y2="113.82"/><line class="cls-5" x1="0.66" y1="111.51" x2="0.5" y2="111.41"/><line class="cls-5" x1="17.76" y1="104.27" x2="15.14" y2="101.6"/><line class="cls-5" x1="12.83" y1="99.34" x2="5.96" y2="92.47"/><line class="cls-5" x1="3.7" y1="90.16" x2="0.5" y2="87.01"/><line class="cls-5" x1="12.72" y1="233.39" x2="7.48" y2="228.19"/><line class="cls-5" x1="5.22" y1="225.88" x2="0.5" y2="221.16"/><line class="cls-5" x1="17.39" y1="213.71" x2="10.57" y2="206.84"/><line class="cls-5" x1="8.26" y1="204.53" x2="1.39" y2="197.66"/><line class="cls-5" x1="17.76" y1="189.63" x2="13.62" y2="185.49"/><line class="cls-5" x1="11.31" y1="183.18" x2="4.43" y2="176.31"/><line class="cls-5" x1="2.18" y1="174.05" x2="0.5" y2="172.37"/><line class="cls-5" x1="17.76" y1="165.24" x2="16.66" y2="164.13"/><line class="cls-5" x1="14.35" y1="161.83" x2="7.48" y2="155.01"/><line class="cls-5" x1="5.22" y1="152.7" x2="0.5" y2="147.98"/><line class="cls-5" x1="17.39" y1="140.53" x2="10.57" y2="133.65"/><line class="cls-5" x1="8.26" y1="131.34" x2="1.39" y2="124.47"/><line class="cls-5" x1="17.76" y1="116.44" x2="13.62" y2="112.3"/><line class="cls-5" x1="11.31" y1="109.99" x2="4.43" y2="103.12"/><line class="cls-5" x1="2.18" y1="100.86" x2="0.5" y2="99.18"/><line class="cls-5" x1="17.76" y1="92.05" x2="16.66" y2="90.95"/><line class="cls-5" x1="14.35" y1="88.64" x2="12.46" y2="86.75"/><line class="cls-5" x1="6.74" y1="507.98" x2="0.5" y2="501.74"/><line class="cls-5" x1="17.76" y1="494.6" x2="12.09" y2="488.88"/><line class="cls-5" x1="9.79" y1="486.63" x2="2.91" y2="479.75"/><line class="cls-5" x1="0.66" y1="477.45" x2="0.5" y2="477.34"/><line class="cls-5" x1="17.76" y1="470.21" x2="15.14" y2="467.53"/><line class="cls-5" x1="12.83" y1="465.27" x2="5.96" y2="458.4"/><line class="cls-5" x1="3.7" y1="456.09" x2="0.5" y2="452.95"/><line class="cls-5" x1="15.87" y1="443.92" x2="9.05" y2="437.05"/><line class="cls-5" x1="6.74" y1="434.79" x2="0.5" y2="428.55"/><line class="cls-5" x1="17.76" y1="421.41" x2="12.09" y2="415.7"/><line class="cls-5" x1="9.79" y1="413.44" x2="2.91" y2="406.57"/><line class="cls-5" x1="0.66" y1="404.26" x2="0.5" y2="404.15"/><line class="cls-5" x1="17.76" y1="397.02" x2="15.14" y2="394.34"/><line class="cls-5" x1="12.83" y1="392.09" x2="5.96" y2="385.22"/><line class="cls-5" x1="3.7" y1="382.91" x2="0.5" y2="379.76"/><line class="cls-5" x1="15.87" y1="370.74" x2="9.05" y2="363.86"/><line class="cls-5" x1="6.74" y1="361.61" x2="0.5" y2="355.36"/><line class="cls-5" x1="17.76" y1="348.23" x2="12.09" y2="342.51"/><line class="cls-5" x1="9.79" y1="340.25" x2="2.91" y2="333.38"/><line class="cls-5" x1="0.66" y1="331.07" x2="0.5" y2="330.97"/><line class="cls-5" x1="17.76" y1="323.83" x2="15.14" y2="321.16"/><line class="cls-5" x1="17.39" y1="506.46" x2="10.57" y2="499.59"/><line class="cls-5" x1="8.26" y1="497.28" x2="1.39" y2="490.4"/><line class="cls-5" x1="17.76" y1="482.38" x2="13.62" y2="478.23"/><line class="cls-5" x1="11.31" y1="475.92" x2="4.43" y2="469.05"/><line class="cls-5" x1="2.18" y1="466.8" x2="0.5" y2="465.12"/><line class="cls-5" x1="17.76" y1="457.98" x2="16.66" y2="456.88"/><line class="cls-5" x1="14.35" y1="454.57" x2="7.48" y2="447.75"/><line class="cls-5" x1="5.22" y1="445.44" x2="0.5" y2="440.72"/><line class="cls-5" x1="17.39" y1="433.27" x2="10.57" y2="426.4"/><line class="cls-5" x1="8.26" y1="424.09" x2="1.39" y2="417.22"/><line class="cls-5" x1="17.76" y1="409.19" x2="13.62" y2="405.05"/><line class="cls-5" x1="11.31" y1="402.74" x2="4.43" y2="395.87"/><line class="cls-5" x1="2.18" y1="393.61" x2="0.5" y2="391.93"/><line class="cls-5" x1="17.76" y1="384.8" x2="16.66" y2="383.69"/><line class="cls-5" x1="14.35" y1="381.39" x2="7.48" y2="374.57"/><line class="cls-5" x1="5.22" y1="372.26" x2="0.5" y2="367.53"/><line class="cls-5" x1="17.39" y1="360.09" x2="10.57" y2="353.21"/><line class="cls-5" x1="8.26" y1="350.9" x2="1.39" y2="344.03"/><line class="cls-5" x1="17.76" y1="336" x2="13.62" y2="331.86"/><line class="cls-5" x1="11.31" y1="329.55" x2="4.43" y2="322.68"/><line class="cls-5" x1="2.18" y1="320.42" x2="1.39" y2="319.64"/><line class="cls-5" x1="0.5" y1="86.75" x2="0.5" y2="233.39"/><line class="cls-5" x1="0.5" y1="319.64" x2="0.5" y2="509.4"/><line class="cls-5" x1="17.76" y1="509.4" x2="17.76" y2="319.64"/><line class="cls-5" x1="17.76" y1="233.39" x2="17.76" y2="86.75"/><line class="cls-5" x1="28.83" y1="17.76" x2="27.31" y2="16.24"/><line class="cls-5" x1="25.05" y1="13.93" x2="18.18" y2="7.11"/><line class="cls-5" x1="49.66" y1="14.19" x2="48.66" y2="13.2"/><line class="cls-5" x1="46.41" y1="10.89" x2="39.53" y2="4.02"/><line class="cls-5" x1="37.22" y1="1.76" x2="36.02" y2="0.5"/><line class="cls-5" x1="41.05" y1="17.76" x2="38.01" y2="14.72"/><line class="cls-5" x1="35.7" y1="12.41" x2="28.83" y2="5.54"/><line class="cls-5" x1="26.57" y1="3.28" x2="23.79" y2="0.5"/><line class="cls-5" x1="17.76" y1="17.76" x2="49.66" y2="17.76"/><line class="cls-5" x1="49.66" y1="0.5" x2="17.76" y2="0.5"/><line class="cls-5" x1="0.5" y1="236.06" x2="3.18" y2="233.39"/><line class="cls-5" x1="0.5" y1="243.41" x2="10.52" y2="233.39"/><line class="cls-5" x1="0.5" y1="250.7" x2="17.76" y2="233.44"/><line class="cls-5" x1="0.5" y1="258.04" x2="17.76" y2="240.78"/><line class="cls-5" x1="0.5" y1="265.34" x2="17.76" y2="248.08"/><line class="cls-5" x1="0.5" y1="272.68" x2="17.76" y2="255.42"/><line class="cls-5" x1="0.5" y1="279.97" x2="17.76" y2="262.71"/><line class="cls-5" x1="0.5" y1="287.32" x2="17.76" y2="270.06"/><line class="cls-5" x1="0.5" y1="294.61" x2="17.76" y2="277.35"/><line class="cls-5" x1="0.5" y1="301.96" x2="17.76" y2="284.7"/><line class="cls-5" x1="0.5" y1="309.25" x2="17.76" y2="291.99"/><line class="cls-5" x1="0.5" y1="316.59" x2="17.76" y2="299.33"/><line class="cls-5" x1="4.75" y1="319.64" x2="17.76" y2="306.62"/><line class="cls-5" x1="12.09" y1="319.64" x2="17.76" y2="313.97"/><line class="cls-5" x1="0.5" y1="239.73" x2="1.86" y2="238.37"/><line class="cls-5" x1="2.76" y1="237.48" x2="2.76" y2="237.48"/><line class="cls-5" x1="3.7" y1="236.53" x2="6.43" y2="233.81"/><line class="cls-5" x1="0.5" y1="247.03" x2="0.92" y2="246.61"/><line class="cls-5" x1="1.86" y1="245.71" x2="1.86" y2="245.71"/><line class="cls-5" x1="2.76" y1="244.77" x2="5.54" y2="242.04"/><line class="cls-5" x1="6.43" y1="241.15" x2="6.43" y2="241.15"/><line class="cls-5" x1="7.37" y1="240.21" x2="10.1" y2="237.48"/><line class="cls-5" x1="10.99" y1="236.53" x2="10.99" y2="236.53"/><line class="cls-5" x1="11.94" y1="235.64" x2="14.19" y2="233.39"/><line class="cls-5" x1="0.92" y1="253.95" x2="0.92" y2="253.95"/><line class="cls-5" x1="1.86" y1="253.01" x2="4.59" y2="250.28"/><line class="cls-5" x1="5.54" y1="249.39" x2="5.54" y2="249.39"/><line class="cls-5" x1="6.43" y1="248.44" x2="9.16" y2="245.71"/><line class="cls-5" x1="10.1" y1="244.77" x2="10.1" y2="244.77"/><line class="cls-5" x1="10.99" y1="243.88" x2="13.77" y2="241.15"/><line class="cls-5" x1="14.67" y1="240.21" x2="14.67" y2="240.21"/><line class="cls-5" x1="15.56" y1="239.31" x2="17.76" y2="237.11"/><line class="cls-5" x1="0.92" y1="261.24" x2="3.7" y2="258.52"/><line class="cls-5" x1="4.59" y1="257.62" x2="4.59" y2="257.62"/><line class="cls-5" x1="5.54" y1="256.68" x2="8.26" y2="253.95"/><line class="cls-5" x1="9.16" y1="253.01" x2="9.16" y2="253.01"/><line class="cls-5" x1="10.1" y1="252.12" x2="12.83" y2="249.39"/><line class="cls-5" x1="13.77" y1="248.44" x2="13.77" y2="248.44"/><line class="cls-5" x1="14.67" y1="247.55" x2="17.39" y2="244.77"/><line class="cls-5" x1="0.5" y1="269.01" x2="2.76" y2="266.75"/><line class="cls-5" x1="3.7" y1="265.81" x2="3.7" y2="265.81"/><line class="cls-5" x1="4.59" y1="264.92" x2="7.37" y2="262.19"/><line class="cls-5" x1="8.26" y1="261.24" x2="8.26" y2="261.24"/><line class="cls-5" x1="9.16" y1="260.35" x2="11.94" y2="257.62"/><line class="cls-5" x1="12.83" y1="256.68" x2="12.83" y2="256.68"/><line class="cls-5" x1="13.77" y1="255.79" x2="16.5" y2="253.01"/><line class="cls-5" x1="17.39" y1="252.12" x2="17.39" y2="252.12"/><line class="cls-5" x1="0.5" y1="276.3" x2="1.86" y2="274.99"/><line class="cls-5" x1="2.76" y1="274.04" x2="2.76" y2="274.04"/><line class="cls-5" x1="3.7" y1="273.15" x2="6.43" y2="270.42"/><line class="cls-5" x1="7.37" y1="269.48" x2="7.37" y2="269.48"/><line class="cls-5" x1="8.26" y1="268.59" x2="10.99" y2="265.81"/><line class="cls-5" x1="11.94" y1="264.92" x2="11.94" y2="264.92"/><line class="cls-5" x1="12.83" y1="264.02" x2="15.56" y2="261.24"/><line class="cls-5" x1="16.5" y1="260.35" x2="16.5" y2="260.35"/><line class="cls-5" x1="17.39" y1="259.41" x2="17.76" y2="259.09"/><line class="cls-5" x1="0.5" y1="283.65" x2="0.92" y2="283.23"/><line class="cls-5" x1="1.86" y1="282.28" x2="1.86" y2="282.28"/><line class="cls-5" x1="2.76" y1="281.39" x2="5.54" y2="278.66"/><line class="cls-5" x1="6.43" y1="277.72" x2="6.43" y2="277.72"/><line class="cls-5" x1="7.37" y1="276.83" x2="10.1" y2="274.04"/><line class="cls-5" x1="10.99" y1="273.15" x2="10.99" y2="273.15"/><line class="cls-5" x1="11.94" y1="272.26" x2="14.67" y2="269.48"/><line class="cls-5" x1="15.56" y1="268.59" x2="15.56" y2="268.59"/><line class="cls-5" x1="16.5" y1="267.64" x2="17.76" y2="266.39"/><line class="cls-5" x1="0.92" y1="290.52" x2="0.92" y2="290.52"/><line class="cls-5" x1="1.86" y1="289.63" x2="4.59" y2="286.9"/><line class="cls-5" x1="5.54" y1="285.95" x2="5.54" y2="285.95"/><line class="cls-5" x1="6.43" y1="285.06" x2="9.16" y2="282.28"/><line class="cls-5" x1="10.1" y1="281.39" x2="10.1" y2="281.39"/><line class="cls-5" x1="10.99" y1="280.45" x2="13.77" y2="277.72"/><line class="cls-5" x1="14.67" y1="276.83" x2="14.67" y2="276.83"/><line class="cls-5" x1="15.56" y1="275.88" x2="17.76" y2="273.73"/><line class="cls-5" x1="0.92" y1="297.86" x2="3.7" y2="295.08"/><line class="cls-5" x1="4.59" y1="294.19" x2="4.59" y2="294.19"/><line class="cls-5" x1="5.54" y1="293.3" x2="8.26" y2="290.52"/><line class="cls-5" x1="9.16" y1="289.63" x2="9.16" y2="289.63"/><line class="cls-5" x1="10.1" y1="288.68" x2="12.83" y2="285.95"/><line class="cls-5" x1="13.77" y1="285.06" x2="13.77" y2="285.06"/><line class="cls-5" x1="14.67" y1="284.12" x2="17.39" y2="281.39"/><line class="cls-5" x1="0.5" y1="305.58" x2="2.76" y2="303.32"/><line class="cls-5" x1="3.7" y1="302.43" x2="3.7" y2="302.43"/><line class="cls-5" x1="4.59" y1="301.54" x2="7.37" y2="298.76"/><line class="cls-5" x1="8.26" y1="297.86" x2="8.26" y2="297.86"/><line class="cls-5" x1="9.16" y1="296.92" x2="11.94" y2="294.19"/><line class="cls-5" x1="12.83" y1="293.3" x2="12.83" y2="293.3"/><line class="cls-5" x1="13.77" y1="292.35" x2="16.5" y2="289.63"/><line class="cls-5" x1="17.39" y1="288.68" x2="17.39" y2="288.68"/><line class="cls-5" x1="0.5" y1="312.92" x2="1.86" y2="311.56"/><line class="cls-5" x1="2.76" y1="310.66" x2="2.76" y2="310.66"/><line class="cls-5" x1="3.7" y1="309.72" x2="6.43" y2="306.99"/><line class="cls-5" x1="7.37" y1="306.1" x2="7.37" y2="306.1"/><line class="cls-5" x1="8.26" y1="305.16" x2="10.99" y2="302.43"/><line class="cls-5" x1="11.94" y1="301.54" x2="11.94" y2="301.54"/><line class="cls-5" x1="12.83" y1="300.59" x2="15.56" y2="297.86"/><line class="cls-5" x1="16.5" y1="296.92" x2="16.5" y2="296.92"/><line class="cls-5" x1="17.39" y1="296.03" x2="17.76" y2="295.66"/><line class="cls-5" x1="1.86" y1="318.9" x2="1.86" y2="318.9"/><line class="cls-5" x1="2.76" y1="317.96" x2="5.54" y2="315.23"/><line class="cls-5" x1="6.43" y1="314.34" x2="6.43" y2="314.34"/><line class="cls-5" x1="7.37" y1="313.39" x2="10.1" y2="310.66"/><line class="cls-5" x1="10.99" y1="309.72" x2="10.99" y2="309.72"/><line class="cls-5" x1="11.94" y1="308.83" x2="14.67" y2="306.1"/><line class="cls-5" x1="15.56" y1="305.16" x2="15.56" y2="305.16"/><line class="cls-5" x1="16.5" y1="304.26" x2="17.76" y2="303"/><line class="cls-5" x1="8.42" y1="319.64" x2="9.16" y2="318.9"/><line class="cls-5" x1="10.1" y1="317.96" x2="10.1" y2="317.96"/><line class="cls-5" x1="10.99" y1="317.07" x2="13.77" y2="314.34"/><line class="cls-5" x1="14.67" y1="313.39" x2="14.67" y2="313.39"/><line class="cls-5" x1="15.56" y1="312.5" x2="17.76" y2="310.3"/><line class="cls-5" x1="15.77" y1="319.64" x2="17.39" y2="317.96"/><polyline class="cls-5" points="17.76 319.64 0.5 319.64 0.5 233.39 17.76 233.39 17.76 319.64"/><line class="cls-5" x1="0.5" y1="514.17" x2="5.33" y2="509.4"/><line class="cls-5" x1="0.5" y1="521.52" x2="12.62" y2="509.4"/><line class="cls-5" x1="0.5" y1="528.81" x2="17.76" y2="511.55"/><line class="cls-5" x1="0.5" y1="536.15" x2="17.76" y2="518.89"/><line class="cls-5" x1="0.5" y1="543.45" x2="17.76" y2="526.18"/><line class="cls-5" x1="0.5" y1="550.79" x2="17.76" y2="533.53"/><line class="cls-5" x1="0.5" y1="558.08" x2="17.76" y2="540.82"/><line class="cls-5" x1="0.5" y1="565.43" x2="17.76" y2="548.17"/><line class="cls-5" x1="0.5" y1="572.72" x2="17.76" y2="555.46"/><line class="cls-5" x1="0.5" y1="580.06" x2="17.76" y2="562.8"/><line class="cls-5" x1="0.5" y1="587.36" x2="17.76" y2="570.1"/><line class="cls-5" x1="0.5" y1="594.7" x2="17.76" y2="577.44"/><line class="cls-5" x1="6.9" y1="595.65" x2="17.76" y2="584.73"/><line class="cls-5" x1="14.19" y1="595.65" x2="17.76" y2="592.08"/><line class="cls-5" x1="0.92" y1="510.08" x2="0.92" y2="510.08"/><line class="cls-5" x1="0.92" y1="517.42" x2="3.7" y2="514.64"/><line class="cls-5" x1="4.59" y1="513.75" x2="4.59" y2="513.75"/><line class="cls-5" x1="5.54" y1="512.86" x2="8.26" y2="510.08"/><line class="cls-5" x1="0.5" y1="525.14" x2="2.76" y2="522.88"/><line class="cls-5" x1="3.7" y1="521.99" x2="3.7" y2="521.99"/><line class="cls-5" x1="4.59" y1="521.1" x2="7.37" y2="518.32"/><line class="cls-5" x1="8.26" y1="517.42" x2="8.26" y2="517.42"/><line class="cls-5" x1="9.16" y1="516.48" x2="11.94" y2="513.75"/><line class="cls-5" x1="12.83" y1="512.86" x2="12.83" y2="512.86"/><line class="cls-5" x1="13.77" y1="511.91" x2="16.29" y2="509.4"/><line class="cls-5" x1="0.5" y1="532.48" x2="1.86" y2="531.12"/><line class="cls-5" x1="2.76" y1="530.22" x2="2.76" y2="530.22"/><line class="cls-5" x1="3.7" y1="529.28" x2="6.43" y2="526.55"/><line class="cls-5" x1="7.37" y1="525.66" x2="7.37" y2="525.66"/><line class="cls-5" x1="8.26" y1="524.72" x2="10.99" y2="521.99"/><line class="cls-5" x1="11.94" y1="521.1" x2="11.94" y2="521.1"/><line class="cls-5" x1="12.83" y1="520.15" x2="15.56" y2="517.42"/><line class="cls-5" x1="16.5" y1="516.48" x2="16.5" y2="516.48"/><line class="cls-5" x1="17.39" y1="515.59" x2="17.76" y2="515.22"/><line class="cls-5" x1="0.5" y1="539.77" x2="0.92" y2="539.35"/><line class="cls-5" x1="1.86" y1="538.46" x2="1.86" y2="538.46"/><line class="cls-5" x1="2.76" y1="537.52" x2="5.54" y2="534.79"/><line class="cls-5" x1="6.43" y1="533.9" x2="6.43" y2="533.9"/><line class="cls-5" x1="7.37" y1="532.95" x2="10.1" y2="530.22"/><line class="cls-5" x1="10.99" y1="529.28" x2="10.99" y2="529.28"/><line class="cls-5" x1="11.94" y1="528.39" x2="14.67" y2="525.66"/><line class="cls-5" x1="15.56" y1="524.72" x2="15.56" y2="524.72"/><line class="cls-5" x1="16.5" y1="523.82" x2="17.76" y2="522.56"/><line class="cls-5" x1="0.92" y1="546.7" x2="0.92" y2="546.7"/><line class="cls-5" x1="1.86" y1="545.75" x2="4.59" y2="543.03"/><line class="cls-5" x1="5.54" y1="542.13" x2="5.54" y2="542.13"/><line class="cls-5" x1="6.43" y1="541.19" x2="9.16" y2="538.46"/><line class="cls-5" x1="10.1" y1="537.52" x2="10.1" y2="537.52"/><line class="cls-5" x1="10.99" y1="536.62" x2="13.77" y2="533.9"/><line class="cls-5" x1="14.67" y1="532.95" x2="14.67" y2="532.95"/><line class="cls-5" x1="15.56" y1="532.06" x2="17.76" y2="529.86"/><line class="cls-5" x1="0.92" y1="553.99" x2="3.7" y2="551.26"/><line class="cls-5" x1="4.59" y1="550.37" x2="4.59" y2="550.37"/><line class="cls-5" x1="5.54" y1="549.43" x2="8.26" y2="546.7"/><line class="cls-5" x1="9.16" y1="545.75" x2="9.16" y2="545.75"/><line class="cls-5" x1="10.1" y1="544.86" x2="12.83" y2="542.13"/><line class="cls-5" x1="13.77" y1="541.19" x2="13.77" y2="541.19"/><line class="cls-5" x1="14.67" y1="540.3" x2="17.39" y2="537.52"/><line class="cls-5" x1="0.5" y1="561.76" x2="2.76" y2="559.5"/><line class="cls-5" x1="3.7" y1="558.55" x2="3.7" y2="558.55"/><line class="cls-5" x1="4.59" y1="557.66" x2="7.37" y2="554.93"/><line class="cls-5" x1="8.26" y1="553.99" x2="8.26" y2="553.99"/><line class="cls-5" x1="9.16" y1="553.1" x2="11.94" y2="550.37"/><line class="cls-5" x1="12.83" y1="549.43" x2="12.83" y2="549.43"/><line class="cls-5" x1="13.77" y1="548.53" x2="16.5" y2="545.75"/><line class="cls-5" x1="17.39" y1="544.86" x2="17.39" y2="544.86"/><line class="cls-5" x1="0.5" y1="569.05" x2="1.86" y2="567.74"/><line class="cls-5" x1="2.76" y1="566.79" x2="2.76" y2="566.79"/><line class="cls-5" x1="3.7" y1="565.9" x2="6.43" y2="563.17"/><line class="cls-5" x1="7.37" y1="562.23" x2="7.37" y2="562.23"/><line class="cls-5" x1="8.26" y1="561.34" x2="10.99" y2="558.55"/><line class="cls-5" x1="11.94" y1="557.66" x2="11.94" y2="557.66"/><line class="cls-5" x1="12.83" y1="556.77" x2="15.56" y2="553.99"/><line class="cls-5" x1="16.5" y1="553.1" x2="16.5" y2="553.1"/><line class="cls-5" x1="17.39" y1="552.15" x2="17.76" y2="551.84"/><line class="cls-5" x1="0.5" y1="576.39" x2="0.92" y2="575.97"/><line class="cls-5" x1="1.86" y1="575.03" x2="1.86" y2="575.03"/><line class="cls-5" x1="2.76" y1="574.14" x2="5.54" y2="571.41"/><line class="cls-5" x1="6.43" y1="570.46" x2="6.43" y2="570.46"/><line class="cls-5" x1="7.37" y1="569.57" x2="10.1" y2="566.79"/><line class="cls-5" x1="10.99" y1="565.9" x2="10.99" y2="565.9"/><line class="cls-5" x1="11.94" y1="565.01" x2="14.67" y2="562.23"/><line class="cls-5" x1="15.56" y1="561.34" x2="15.56" y2="561.34"/><line class="cls-5" x1="16.5" y1="560.39" x2="17.76" y2="559.13"/><line class="cls-5" x1="0.92" y1="583.27" x2="0.92" y2="583.27"/><line class="cls-5" x1="1.86" y1="582.37" x2="4.59" y2="579.65"/><line class="cls-5" x1="5.54" y1="578.7" x2="5.54" y2="578.7"/><line class="cls-5" x1="6.43" y1="577.81" x2="9.16" y2="575.03"/><line class="cls-5" x1="10.1" y1="574.14" x2="10.1" y2="574.14"/><line class="cls-5" x1="10.99" y1="573.19" x2="13.77" y2="570.46"/><line class="cls-5" x1="14.67" y1="569.57" x2="14.67" y2="569.57"/><line class="cls-5" x1="15.56" y1="568.63" x2="17.76" y2="566.48"/><line class="cls-5" x1="0.92" y1="590.61" x2="3.7" y2="587.83"/><line class="cls-5" x1="4.59" y1="586.94" x2="4.59" y2="586.94"/><line class="cls-5" x1="5.54" y1="586.05" x2="8.26" y2="583.27"/><line class="cls-5" x1="9.16" y1="582.37" x2="9.16" y2="582.37"/><line class="cls-5" x1="10.1" y1="581.43" x2="12.83" y2="578.7"/><line class="cls-5" x1="13.77" y1="577.81" x2="13.77" y2="577.81"/><line class="cls-5" x1="14.67" y1="576.86" x2="17.39" y2="574.14"/><line class="cls-5" x1="3.7" y1="595.17" x2="3.7" y2="595.17"/><line class="cls-5" x1="4.59" y1="594.28" x2="7.37" y2="591.5"/><line class="cls-5" x1="8.26" y1="590.61" x2="8.26" y2="590.61"/><line class="cls-5" x1="9.16" y1="589.67" x2="11.94" y2="586.94"/><line class="cls-5" x1="12.83" y1="586.05" x2="12.83" y2="586.05"/><line class="cls-5" x1="13.77" y1="585.1" x2="16.5" y2="582.37"/><line class="cls-5" x1="17.39" y1="581.43" x2="17.39" y2="581.43"/><line class="cls-5" x1="10.52" y1="595.65" x2="10.99" y2="595.17"/><line class="cls-5" x1="11.94" y1="594.28" x2="11.94" y2="594.28"/><line class="cls-5" x1="12.83" y1="593.34" x2="15.56" y2="590.61"/><line class="cls-5" x1="16.5" y1="589.67" x2="16.5" y2="589.67"/><line class="cls-5" x1="17.39" y1="588.77" x2="17.76" y2="588.41"/><polyline class="cls-5" points="17.76 595.65 0.5 595.65 0.5 509.4 17.76 509.4 17.76 595.65"/><line class="cls-5" x1="0.5" y1="1.86" x2="1.86" y2="0.5"/><line class="cls-5" x1="0.5" y1="9.21" x2="9.21" y2="0.5"/><line class="cls-5" x1="0.5" y1="16.5" x2="16.5" y2="0.5"/><line class="cls-5" x1="0.5" y1="23.85" x2="17.76" y2="6.59"/><line class="cls-5" x1="0.5" y1="31.14" x2="17.76" y2="13.88"/><line class="cls-5" x1="0.5" y1="38.48" x2="17.76" y2="21.22"/><line class="cls-5" x1="0.5" y1="45.78" x2="17.76" y2="28.52"/><line class="cls-5" x1="0.5" y1="53.12" x2="17.76" y2="35.86"/><line class="cls-5" x1="0.5" y1="60.41" x2="17.76" y2="43.15"/><line class="cls-5" x1="0.5" y1="67.76" x2="17.76" y2="50.5"/><line class="cls-5" x1="0.5" y1="75.05" x2="17.76" y2="57.79"/><line class="cls-5" x1="0.5" y1="82.4" x2="17.76" y2="65.14"/><line class="cls-5" x1="3.44" y1="86.75" x2="17.76" y2="72.43"/><line class="cls-5" x1="10.78" y1="86.75" x2="17.76" y2="79.77"/><line class="cls-5" x1="0.92" y1="5.12" x2="3.7" y2="2.34"/><line class="cls-5" x1="4.59" y1="1.44" x2="4.59" y2="1.44"/><line class="cls-5" x1="5.54" y1="0.55" x2="5.54" y2="0.5"/><line class="cls-5" x1="0.5" y1="12.83" x2="2.76" y2="10.57"/><line class="cls-5" x1="3.7" y1="9.68" x2="3.7" y2="9.68"/><line class="cls-5" x1="4.59" y1="8.79" x2="7.37" y2="6.01"/><line class="cls-5" x1="8.26" y1="5.12" x2="8.26" y2="5.12"/><line class="cls-5" x1="9.16" y1="4.17" x2="11.94" y2="1.44"/><line class="cls-5" x1="12.83" y1="0.55" x2="12.83" y2="0.55"/><line class="cls-5" x1="0.5" y1="20.17" x2="1.86" y2="18.81"/><line class="cls-5" x1="2.76" y1="17.92" x2="2.76" y2="17.92"/><line class="cls-5" x1="3.7" y1="16.97" x2="6.43" y2="14.25"/><line class="cls-5" x1="7.37" y1="13.35" x2="7.37" y2="13.35"/><line class="cls-5" x1="8.26" y1="12.41" x2="10.99" y2="9.68"/><line class="cls-5" x1="11.94" y1="8.79" x2="11.94" y2="8.79"/><line class="cls-5" x1="12.83" y1="7.84" x2="15.56" y2="5.12"/><line class="cls-5" x1="16.5" y1="4.17" x2="16.5" y2="4.17"/><line class="cls-5" x1="17.39" y1="3.28" x2="17.76" y2="2.91"/><line class="cls-5" x1="0.5" y1="27.47" x2="0.92" y2="27.05"/><line class="cls-5" x1="1.86" y1="26.15" x2="1.86" y2="26.15"/><line class="cls-5" x1="2.76" y1="25.21" x2="5.54" y2="22.48"/><line class="cls-5" x1="6.43" y1="21.59" x2="6.43" y2="21.59"/><line class="cls-5" x1="7.37" y1="20.65" x2="10.1" y2="17.92"/><line class="cls-5" x1="10.99" y1="16.97" x2="10.99" y2="16.97"/><line class="cls-5" x1="11.94" y1="16.08" x2="14.67" y2="13.35"/><line class="cls-5" x1="15.56" y1="12.41" x2="15.56" y2="12.41"/><line class="cls-5" x1="16.5" y1="11.52" x2="17.76" y2="10.26"/><line class="cls-5" x1="0.92" y1="34.39" x2="0.92" y2="34.39"/><line class="cls-5" x1="1.86" y1="33.45" x2="4.59" y2="30.72"/><line class="cls-5" x1="5.54" y1="29.83" x2="5.54" y2="29.83"/><line class="cls-5" x1="6.43" y1="28.88" x2="9.16" y2="26.15"/><line class="cls-5" x1="10.1" y1="25.21" x2="10.1" y2="25.21"/><line class="cls-5" x1="10.99" y1="24.32" x2="13.77" y2="21.59"/><line class="cls-5" x1="14.67" y1="20.65" x2="14.67" y2="20.65"/><line class="cls-5" x1="15.56" y1="19.75" x2="17.76" y2="17.55"/><line class="cls-5" x1="0.92" y1="41.68" x2="3.7" y2="38.96"/><line class="cls-5" x1="4.59" y1="38.06" x2="4.59" y2="38.06"/><line class="cls-5" x1="5.54" y1="37.12" x2="8.26" y2="34.39"/><line class="cls-5" x1="9.16" y1="33.45" x2="9.16" y2="33.45"/><line class="cls-5" x1="10.1" y1="32.56" x2="12.83" y2="29.83"/><line class="cls-5" x1="13.77" y1="28.88" x2="13.77" y2="28.88"/><line class="cls-5" x1="14.67" y1="27.99" x2="17.39" y2="25.21"/><line class="cls-5" x1="0.5" y1="49.45" x2="2.76" y2="47.19"/><line class="cls-5" x1="3.7" y1="46.25" x2="3.7" y2="46.25"/><line class="cls-5" x1="4.59" y1="45.36" x2="7.37" y2="42.63"/><line class="cls-5" x1="8.26" y1="41.68" x2="8.26" y2="41.68"/><line class="cls-5" x1="9.16" y1="40.79" x2="11.94" y2="38.06"/><line class="cls-5" x1="12.83" y1="37.12" x2="12.83" y2="37.12"/><line class="cls-5" x1="13.77" y1="36.23" x2="16.5" y2="33.45"/><line class="cls-5" x1="17.39" y1="32.56" x2="17.39" y2="32.56"/><line class="cls-5" x1="0.5" y1="56.74" x2="1.86" y2="55.43"/><line class="cls-5" x1="2.76" y1="54.48" x2="2.76" y2="54.48"/><line class="cls-5" x1="3.7" y1="53.59" x2="6.43" y2="50.86"/><line class="cls-5" x1="7.37" y1="49.92" x2="7.37" y2="49.92"/><line class="cls-5" x1="8.26" y1="49.03" x2="10.99" y2="46.25"/><line class="cls-5" x1="11.94" y1="45.36" x2="11.94" y2="45.36"/><line class="cls-5" x1="12.83" y1="44.46" x2="15.56" y2="41.68"/><line class="cls-5" x1="16.5" y1="40.79" x2="16.5" y2="40.79"/><line class="cls-5" x1="17.39" y1="39.85" x2="17.76" y2="39.53"/><line class="cls-5" x1="0.5" y1="64.09" x2="0.92" y2="63.67"/><line class="cls-5" x1="1.86" y1="62.72" x2="1.86" y2="62.72"/><line class="cls-5" x1="2.76" y1="61.83" x2="5.54" y2="59.1"/><line class="cls-5" x1="6.43" y1="58.16" x2="6.43" y2="58.16"/><line class="cls-5" x1="7.37" y1="57.27" x2="10.1" y2="54.48"/><line class="cls-5" x1="10.99" y1="53.59" x2="10.99" y2="53.59"/><line class="cls-5" x1="11.94" y1="52.7" x2="14.67" y2="49.92"/><line class="cls-5" x1="15.56" y1="49.03" x2="15.56" y2="49.03"/><line class="cls-5" x1="16.5" y1="48.08" x2="17.76" y2="46.83"/><line class="cls-5" x1="0.92" y1="70.96" x2="0.92" y2="70.96"/><line class="cls-5" x1="1.86" y1="70.07" x2="4.59" y2="67.34"/><line class="cls-5" x1="5.54" y1="66.39" x2="5.54" y2="66.39"/><line class="cls-5" x1="6.43" y1="65.5" x2="9.16" y2="62.72"/><line class="cls-5" x1="10.1" y1="61.83" x2="10.1" y2="61.83"/><line class="cls-5" x1="10.99" y1="60.89" x2="13.77" y2="58.16"/><line class="cls-5" x1="14.67" y1="57.27" x2="14.67" y2="57.27"/><line class="cls-5" x1="15.56" y1="56.32" x2="17.76" y2="54.17"/><line class="cls-5" x1="0.92" y1="78.3" x2="3.7" y2="75.52"/><line class="cls-5" x1="4.59" y1="74.63" x2="4.59" y2="74.63"/><line class="cls-5" x1="5.54" y1="73.74" x2="8.26" y2="70.96"/><line class="cls-5" x1="9.16" y1="70.07" x2="9.16" y2="70.07"/><line class="cls-5" x1="10.1" y1="69.12" x2="12.83" y2="66.39"/><line class="cls-5" x1="13.77" y1="65.5" x2="13.77" y2="65.5"/><line class="cls-5" x1="14.67" y1="64.56" x2="17.39" y2="61.83"/><line class="cls-5" x1="0.5" y1="86.02" x2="2.76" y2="83.76"/><line class="cls-5" x1="3.7" y1="82.87" x2="3.7" y2="82.87"/><line class="cls-5" x1="4.59" y1="81.98" x2="7.37" y2="79.2"/><line class="cls-5" x1="8.26" y1="78.3" x2="8.26" y2="78.3"/><line class="cls-5" x1="9.16" y1="77.36" x2="11.94" y2="74.63"/><line class="cls-5" x1="12.83" y1="73.74" x2="12.83" y2="73.74"/><line class="cls-5" x1="13.77" y1="72.79" x2="16.5" y2="70.07"/><line class="cls-5" x1="17.39" y1="69.12" x2="17.39" y2="69.12"/><line class="cls-5" x1="7.37" y1="86.54" x2="7.37" y2="86.54"/><line class="cls-5" x1="8.26" y1="85.6" x2="10.99" y2="82.87"/><line class="cls-5" x1="11.94" y1="81.98" x2="11.94" y2="81.98"/><line class="cls-5" x1="12.83" y1="81.03" x2="15.56" y2="78.3"/><line class="cls-5" x1="16.5" y1="77.36" x2="16.5" y2="77.36"/><line class="cls-5" x1="17.39" y1="76.47" x2="17.76" y2="76.1"/><line class="cls-5" x1="14.46" y1="86.75" x2="14.67" y2="86.54"/><line class="cls-5" x1="15.56" y1="85.6" x2="15.56" y2="85.6"/><line class="cls-5" x1="16.5" y1="84.7" x2="17.76" y2="83.44"/><polyline class="cls-5" points="17.76 86.75 0.5 86.75 0.5 0.5 17.76 0.5 17.76 86.75"/><line class="cls-5" x1="302.38" y1="234.28" x2="303.27" y2="233.39"/><line class="cls-5" x1="302.38" y1="241.57" x2="310.56" y2="233.39"/><line class="cls-5" x1="302.38" y1="248.91" x2="317.9" y2="233.39"/><line class="cls-5" x1="302.38" y1="256.21" x2="319.64" y2="238.95"/><line class="cls-5" x1="302.38" y1="263.55" x2="319.64" y2="246.29"/><line class="cls-5" x1="302.38" y1="270.84" x2="319.64" y2="253.58"/><line class="cls-5" x1="302.38" y1="278.19" x2="319.64" y2="260.93"/><line class="cls-5" x1="302.38" y1="285.48" x2="319.64" y2="268.22"/><line class="cls-5" x1="302.38" y1="292.83" x2="319.64" y2="275.57"/><line class="cls-5" x1="302.38" y1="300.12" x2="319.64" y2="282.86"/><line class="cls-5" x1="302.38" y1="307.46" x2="319.64" y2="290.2"/><line class="cls-5" x1="302.38" y1="314.76" x2="319.64" y2="297.5"/><line class="cls-5" x1="302.38" y1="322.1" x2="319.64" y2="304.84"/><line class="cls-5" x1="302.38" y1="329.39" x2="319.64" y2="312.13"/><line class="cls-5" x1="302.38" y1="336.74" x2="319.64" y2="319.48"/><line class="cls-5" x1="309.56" y1="336.9" x2="319.64" y2="326.77"/><line class="cls-5" x1="316.86" y1="336.9" x2="319.64" y2="334.12"/><line class="cls-5" x1="302.38" y1="237.9" x2="302.85" y2="237.48"/><line class="cls-5" x1="303.74" y1="236.53" x2="303.74" y2="236.53"/><line class="cls-5" x1="304.68" y1="235.64" x2="306.94" y2="233.39"/><line class="cls-5" x1="302.85" y1="244.77" x2="302.85" y2="244.77"/><line class="cls-5" x1="303.74" y1="243.88" x2="306.52" y2="241.15"/><line class="cls-5" x1="307.41" y1="240.21" x2="307.41" y2="240.21"/><line class="cls-5" x1="308.3" y1="239.31" x2="311.08" y2="236.53"/><line class="cls-5" x1="311.98" y1="235.64" x2="311.98" y2="235.64"/><line class="cls-5" x1="312.92" y1="234.75" x2="314.23" y2="233.39"/><line class="cls-5" x1="302.85" y1="252.12" x2="305.58" y2="249.39"/><line class="cls-5" x1="306.52" y1="248.44" x2="306.52" y2="248.44"/><line class="cls-5" x1="307.41" y1="247.55" x2="310.14" y2="244.77"/><line class="cls-5" x1="311.08" y1="243.88" x2="311.08" y2="243.88"/><line class="cls-5" x1="311.98" y1="242.99" x2="314.76" y2="240.21"/><line class="cls-5" x1="315.65" y1="239.31" x2="315.65" y2="239.31"/><line class="cls-5" x1="316.54" y1="238.37" x2="319.32" y2="235.64"/><line class="cls-5" x1="302.38" y1="259.88" x2="304.68" y2="257.62"/><line class="cls-5" x1="305.58" y1="256.68" x2="305.58" y2="256.68"/><line class="cls-5" x1="306.52" y1="255.79" x2="309.25" y2="253.01"/><line class="cls-5" x1="310.14" y1="252.12" x2="310.14" y2="252.12"/><line class="cls-5" x1="311.08" y1="251.17" x2="313.81" y2="248.44"/><line class="cls-5" x1="314.76" y1="247.55" x2="314.76" y2="247.55"/><line class="cls-5" x1="315.65" y1="246.61" x2="318.38" y2="243.88"/><line class="cls-5" x1="319.32" y1="242.99" x2="319.32" y2="242.99"/><line class="cls-5" x1="302.38" y1="267.17" x2="303.74" y2="265.81"/><line class="cls-5" x1="304.68" y1="264.92" x2="304.68" y2="264.92"/><line class="cls-5" x1="305.58" y1="264.02" x2="308.3" y2="261.24"/><line class="cls-5" x1="309.25" y1="260.35" x2="309.25" y2="260.35"/><line class="cls-5" x1="310.14" y1="259.41" x2="312.92" y2="256.68"/><line class="cls-5" x1="313.81" y1="255.79" x2="313.81" y2="255.79"/><line class="cls-5" x1="314.76" y1="254.84" x2="317.48" y2="252.12"/><line class="cls-5" x1="318.38" y1="251.17" x2="318.38" y2="251.17"/><line class="cls-5" x1="319.32" y1="250.28" x2="319.64" y2="249.96"/><line class="cls-5" x1="302.38" y1="274.52" x2="302.85" y2="274.04"/><line class="cls-5" x1="303.74" y1="273.15" x2="303.74" y2="273.15"/><line class="cls-5" x1="304.68" y1="272.26" x2="307.41" y2="269.48"/><line class="cls-5" x1="308.3" y1="268.59" x2="308.3" y2="268.59"/><line class="cls-5" x1="309.25" y1="267.64" x2="311.98" y2="264.92"/><line class="cls-5" x1="312.92" y1="264.02" x2="312.92" y2="264.02"/><line class="cls-5" x1="313.81" y1="263.08" x2="316.54" y2="260.35"/><line class="cls-5" x1="317.48" y1="259.41" x2="317.48" y2="259.41"/><line class="cls-5" x1="318.38" y1="258.52" x2="319.64" y2="257.26"/><line class="cls-5" x1="302.85" y1="281.39" x2="302.85" y2="281.39"/><line class="cls-5" x1="303.74" y1="280.45" x2="306.52" y2="277.72"/><line class="cls-5" x1="307.41" y1="276.83" x2="307.41" y2="276.83"/><line class="cls-5" x1="308.3" y1="275.88" x2="311.08" y2="273.15"/><line class="cls-5" x1="311.98" y1="272.26" x2="311.98" y2="272.26"/><line class="cls-5" x1="312.92" y1="271.32" x2="315.65" y2="268.59"/><line class="cls-5" x1="316.54" y1="267.64" x2="316.54" y2="267.64"/><line class="cls-5" x1="317.48" y1="266.75" x2="319.64" y2="264.6"/><line class="cls-5" x1="302.85" y1="288.68" x2="305.58" y2="285.95"/><line class="cls-5" x1="306.52" y1="285.06" x2="306.52" y2="285.06"/><line class="cls-5" x1="307.41" y1="284.12" x2="310.14" y2="281.39"/><line class="cls-5" x1="311.08" y1="280.45" x2="311.08" y2="280.45"/><line class="cls-5" x1="311.98" y1="279.55" x2="314.76" y2="276.83"/><line class="cls-5" x1="315.65" y1="275.88" x2="315.65" y2="275.88"/><line class="cls-5" x1="316.54" y1="274.99" x2="319.32" y2="272.26"/><line class="cls-5" x1="302.38" y1="296.45" x2="304.68" y2="294.19"/><line class="cls-5" x1="305.58" y1="293.3" x2="305.58" y2="293.3"/><line class="cls-5" x1="306.52" y1="292.35" x2="309.25" y2="289.63"/><line class="cls-5" x1="310.14" y1="288.68" x2="310.14" y2="288.68"/><line class="cls-5" x1="311.08" y1="287.79" x2="313.81" y2="285.06"/><line class="cls-5" x1="314.76" y1="284.12" x2="314.76" y2="284.12"/><line class="cls-5" x1="315.65" y1="283.23" x2="318.38" y2="280.45"/><line class="cls-5" x1="319.32" y1="279.55" x2="319.32" y2="279.55"/><line class="cls-5" x1="302.38" y1="303.79" x2="303.74" y2="302.43"/><line class="cls-5" x1="304.68" y1="301.54" x2="304.68" y2="301.54"/><line class="cls-5" x1="305.58" y1="300.59" x2="308.3" y2="297.86"/><line class="cls-5" x1="309.25" y1="296.92" x2="309.25" y2="296.92"/><line class="cls-5" x1="310.14" y1="296.03" x2="312.92" y2="293.3"/><line class="cls-5" x1="313.81" y1="292.35" x2="313.81" y2="292.35"/><line class="cls-5" x1="314.76" y1="291.46" x2="317.48" y2="288.68"/><line class="cls-5" x1="318.38" y1="287.79" x2="318.38" y2="287.79"/><line class="cls-5" x1="319.32" y1="286.9" x2="319.64" y2="286.53"/><line class="cls-5" x1="302.38" y1="311.08" x2="302.85" y2="310.66"/><line class="cls-5" x1="303.74" y1="309.72" x2="303.74" y2="309.72"/><line class="cls-5" x1="304.68" y1="308.83" x2="307.41" y2="306.1"/><line class="cls-5" x1="308.3" y1="305.16" x2="308.3" y2="305.16"/><line class="cls-5" x1="309.25" y1="304.26" x2="311.98" y2="301.54"/><line class="cls-5" x1="312.92" y1="300.59" x2="312.92" y2="300.59"/><line class="cls-5" x1="313.81" y1="299.7" x2="316.54" y2="296.92"/><line class="cls-5" x1="317.48" y1="296.03" x2="317.48" y2="296.03"/><line class="cls-5" x1="318.38" y1="295.08" x2="319.64" y2="293.88"/><line class="cls-5" x1="302.85" y1="317.96" x2="302.85" y2="317.96"/><line class="cls-5" x1="303.74" y1="317.07" x2="306.52" y2="314.34"/><line class="cls-5" x1="307.41" y1="313.39" x2="307.41" y2="313.39"/><line class="cls-5" x1="308.3" y1="312.5" x2="311.08" y2="309.72"/><line class="cls-5" x1="311.98" y1="308.83" x2="311.98" y2="308.83"/><line class="cls-5" x1="312.92" y1="307.94" x2="315.65" y2="305.16"/><line class="cls-5" x1="316.54" y1="304.26" x2="316.54" y2="304.26"/><line class="cls-5" x1="317.48" y1="303.32" x2="319.64" y2="301.17"/><line class="cls-5" x1="302.85" y1="325.3" x2="305.58" y2="322.57"/><line class="cls-5" x1="306.52" y1="321.63" x2="306.52" y2="321.63"/><line class="cls-5" x1="307.41" y1="320.74" x2="310.14" y2="317.96"/><line class="cls-5" x1="311.08" y1="317.07" x2="311.08" y2="317.07"/><line class="cls-5" x1="311.98" y1="316.17" x2="314.76" y2="313.39"/><line class="cls-5" x1="315.65" y1="312.5" x2="315.65" y2="312.5"/><line class="cls-5" x1="316.54" y1="311.56" x2="319.32" y2="308.83"/><line class="cls-5" x1="302.38" y1="333.07" x2="304.68" y2="330.81"/><line class="cls-5" x1="305.58" y1="329.87" x2="305.58" y2="329.87"/><line class="cls-5" x1="306.52" y1="328.97" x2="309.25" y2="326.19"/><line class="cls-5" x1="310.14" y1="325.3" x2="310.14" y2="325.3"/><line class="cls-5" x1="311.08" y1="324.36" x2="313.81" y2="321.63"/><line class="cls-5" x1="314.76" y1="320.74" x2="314.76" y2="320.74"/><line class="cls-5" x1="315.65" y1="319.79" x2="318.38" y2="317.07"/><line class="cls-5" x1="319.32" y1="316.17" x2="319.32" y2="316.17"/><line class="cls-5" x1="305.89" y1="336.9" x2="308.3" y2="334.43"/><line class="cls-5" x1="309.25" y1="333.54" x2="309.25" y2="333.54"/><line class="cls-5" x1="310.14" y1="332.59" x2="312.92" y2="329.87"/><line class="cls-5" x1="313.81" y1="328.97" x2="313.81" y2="328.97"/><line class="cls-5" x1="314.76" y1="328.03" x2="317.48" y2="325.3"/><line class="cls-5" x1="318.38" y1="324.36" x2="318.38" y2="324.36"/><line class="cls-5" x1="319.32" y1="323.47" x2="319.64" y2="323.15"/><line class="cls-5" x1="313.81" y1="336.27" x2="316.54" y2="333.54"/><line class="cls-5" x1="317.48" y1="332.59" x2="317.48" y2="332.59"/><line class="cls-5" x1="318.38" y1="331.7" x2="319.64" y2="330.44"/><polyline class="cls-5" points="302.38 336.9 319.64 336.9 319.64 233.39 302.38 233.39 302.38 336.9"/><line class="cls-5" x1="302.38" y1="512.39" x2="305.37" y2="509.4"/><line class="cls-5" x1="302.38" y1="519.68" x2="312.71" y2="509.4"/><line class="cls-5" x1="302.38" y1="527.02" x2="319.64" y2="509.76"/><line class="cls-5" x1="302.38" y1="534.32" x2="319.64" y2="517.06"/><line class="cls-5" x1="302.38" y1="541.66" x2="319.64" y2="524.4"/><line class="cls-5" x1="302.38" y1="548.95" x2="319.64" y2="531.69"/><line class="cls-5" x1="302.38" y1="556.3" x2="319.64" y2="539.04"/><line class="cls-5" x1="302.38" y1="563.59" x2="319.64" y2="546.33"/><line class="cls-5" x1="302.38" y1="570.94" x2="319.64" y2="553.68"/><line class="cls-5" x1="302.38" y1="578.23" x2="319.64" y2="560.97"/><line class="cls-5" x1="302.38" y1="585.57" x2="319.64" y2="568.31"/><line class="cls-5" x1="302.38" y1="592.87" x2="319.64" y2="575.61"/><line class="cls-5" x1="306.94" y1="595.65" x2="319.64" y2="582.95"/><line class="cls-5" x1="314.28" y1="595.65" x2="319.64" y2="590.24"/><line class="cls-5" x1="302.38" y1="516.01" x2="304.68" y2="513.75"/><line class="cls-5" x1="305.58" y1="512.86" x2="305.58" y2="512.86"/><line class="cls-5" x1="306.52" y1="511.91" x2="309.04" y2="509.4"/><line class="cls-5" x1="302.38" y1="523.35" x2="303.74" y2="521.99"/><line class="cls-5" x1="304.68" y1="521.1" x2="304.68" y2="521.1"/><line class="cls-5" x1="305.58" y1="520.15" x2="308.3" y2="517.42"/><line class="cls-5" x1="309.25" y1="516.48" x2="309.25" y2="516.48"/><line class="cls-5" x1="310.14" y1="515.59" x2="312.92" y2="512.86"/><line class="cls-5" x1="313.81" y1="511.91" x2="313.81" y2="511.91"/><line class="cls-5" x1="314.76" y1="511.02" x2="316.33" y2="509.4"/><line class="cls-5" x1="302.38" y1="530.64" x2="302.85" y2="530.22"/><line class="cls-5" x1="303.74" y1="529.28" x2="303.74" y2="529.28"/><line class="cls-5" x1="304.68" y1="528.39" x2="307.41" y2="525.66"/><line class="cls-5" x1="308.3" y1="524.72" x2="308.3" y2="524.72"/><line class="cls-5" x1="309.25" y1="523.82" x2="311.98" y2="521.1"/><line class="cls-5" x1="312.92" y1="520.15" x2="312.92" y2="520.15"/><line class="cls-5" x1="313.81" y1="519.26" x2="316.54" y2="516.48"/><line class="cls-5" x1="317.48" y1="515.59" x2="317.48" y2="515.59"/><line class="cls-5" x1="318.38" y1="514.64" x2="319.64" y2="513.44"/><line class="cls-5" x1="302.85" y1="537.52" x2="302.85" y2="537.52"/><line class="cls-5" x1="303.74" y1="536.62" x2="306.52" y2="533.9"/><line class="cls-5" x1="307.41" y1="532.95" x2="307.41" y2="532.95"/><line class="cls-5" x1="308.3" y1="532.06" x2="311.08" y2="529.28"/><line class="cls-5" x1="311.98" y1="528.39" x2="311.98" y2="528.39"/><line class="cls-5" x1="312.92" y1="527.5" x2="315.65" y2="524.72"/><line class="cls-5" x1="316.54" y1="523.82" x2="316.54" y2="523.82"/><line class="cls-5" x1="317.48" y1="522.88" x2="319.64" y2="520.73"/><line class="cls-5" x1="302.85" y1="544.86" x2="305.58" y2="542.13"/><line class="cls-5" x1="306.52" y1="541.19" x2="306.52" y2="541.19"/><line class="cls-5" x1="307.41" y1="540.3" x2="310.14" y2="537.52"/><line class="cls-5" x1="311.08" y1="536.62" x2="311.08" y2="536.62"/><line class="cls-5" x1="311.98" y1="535.73" x2="314.76" y2="532.95"/><line class="cls-5" x1="315.65" y1="532.06" x2="315.65" y2="532.06"/><line class="cls-5" x1="316.54" y1="531.12" x2="319.32" y2="528.39"/><line class="cls-5" x1="302.38" y1="552.63" x2="304.68" y2="550.37"/><line class="cls-5" x1="305.58" y1="549.43" x2="305.58" y2="549.43"/><line class="cls-5" x1="306.52" y1="548.53" x2="309.25" y2="545.75"/><line class="cls-5" x1="310.14" y1="544.86" x2="310.14" y2="544.86"/><line class="cls-5" x1="311.08" y1="543.92" x2="313.81" y2="541.19"/><line class="cls-5" x1="314.76" y1="540.3" x2="314.76" y2="540.3"/><line class="cls-5" x1="315.65" y1="539.35" x2="318.38" y2="536.62"/><line class="cls-5" x1="319.32" y1="535.73" x2="319.32" y2="535.73"/><line class="cls-5" x1="302.38" y1="559.92" x2="303.74" y2="558.55"/><line class="cls-5" x1="304.68" y1="557.66" x2="304.68" y2="557.66"/><line class="cls-5" x1="305.58" y1="556.77" x2="308.3" y2="553.99"/><line class="cls-5" x1="309.25" y1="553.1" x2="309.25" y2="553.1"/><line class="cls-5" x1="310.14" y1="552.15" x2="312.92" y2="549.43"/><line class="cls-5" x1="313.81" y1="548.53" x2="313.81" y2="548.53"/><line class="cls-5" x1="314.76" y1="547.59" x2="317.48" y2="544.86"/><line class="cls-5" x1="318.38" y1="543.92" x2="318.38" y2="543.92"/><line class="cls-5" x1="319.32" y1="543.03" x2="319.64" y2="542.71"/><line class="cls-5" x1="302.38" y1="567.26" x2="302.85" y2="566.79"/><line class="cls-5" x1="303.74" y1="565.9" x2="303.74" y2="565.9"/><line class="cls-5" x1="304.68" y1="565.01" x2="307.41" y2="562.23"/><line class="cls-5" x1="308.3" y1="561.34" x2="308.3" y2="561.34"/><line class="cls-5" x1="309.25" y1="560.39" x2="311.98" y2="557.66"/><line class="cls-5" x1="312.92" y1="556.77" x2="312.92" y2="556.77"/><line class="cls-5" x1="313.81" y1="555.83" x2="316.54" y2="553.1"/><line class="cls-5" x1="317.48" y1="552.15" x2="317.48" y2="552.15"/><line class="cls-5" x1="318.38" y1="551.26" x2="319.64" y2="550"/><line class="cls-5" x1="302.85" y1="574.14" x2="302.85" y2="574.14"/><line class="cls-5" x1="303.74" y1="573.19" x2="306.52" y2="570.46"/><line class="cls-5" x1="307.41" y1="569.57" x2="307.41" y2="569.57"/><line class="cls-5" x1="308.3" y1="568.63" x2="311.08" y2="565.9"/><line class="cls-5" x1="311.98" y1="565.01" x2="311.98" y2="565.01"/><line class="cls-5" x1="312.92" y1="564.06" x2="315.65" y2="561.34"/><line class="cls-5" x1="316.54" y1="560.39" x2="316.54" y2="560.39"/><line class="cls-5" x1="317.48" y1="559.5" x2="319.64" y2="557.35"/><line class="cls-5" x1="302.85" y1="581.43" x2="305.58" y2="578.7"/><line class="cls-5" x1="306.52" y1="577.81" x2="306.52" y2="577.81"/><line class="cls-5" x1="307.41" y1="576.86" x2="310.14" y2="574.14"/><line class="cls-5" x1="311.08" y1="573.19" x2="311.08" y2="573.19"/><line class="cls-5" x1="311.98" y1="572.3" x2="314.76" y2="569.57"/><line class="cls-5" x1="315.65" y1="568.63" x2="315.65" y2="568.63"/><line class="cls-5" x1="316.54" y1="567.74" x2="319.32" y2="565.01"/><line class="cls-5" x1="302.38" y1="589.19" x2="304.68" y2="586.94"/><line class="cls-5" x1="305.58" y1="586.05" x2="305.58" y2="586.05"/><line class="cls-5" x1="306.52" y1="585.1" x2="309.25" y2="582.37"/><line class="cls-5" x1="310.14" y1="581.43" x2="310.14" y2="581.43"/><line class="cls-5" x1="311.08" y1="580.54" x2="313.81" y2="577.81"/><line class="cls-5" x1="314.76" y1="576.86" x2="314.76" y2="576.86"/><line class="cls-5" x1="315.65" y1="575.97" x2="318.38" y2="573.19"/><line class="cls-5" x1="319.32" y1="572.3" x2="319.32" y2="572.3"/><line class="cls-5" x1="303.27" y1="595.65" x2="303.74" y2="595.17"/><line class="cls-5" x1="304.68" y1="594.28" x2="304.68" y2="594.28"/><line class="cls-5" x1="305.58" y1="593.34" x2="308.3" y2="590.61"/><line class="cls-5" x1="309.25" y1="589.67" x2="309.25" y2="589.67"/><line class="cls-5" x1="310.14" y1="588.77" x2="312.92" y2="586.05"/><line class="cls-5" x1="313.81" y1="585.1" x2="313.81" y2="585.1"/><line class="cls-5" x1="314.76" y1="584.21" x2="317.48" y2="581.43"/><line class="cls-5" x1="318.38" y1="580.54" x2="318.38" y2="580.54"/><line class="cls-5" x1="319.32" y1="579.65" x2="319.64" y2="579.28"/><line class="cls-5" x1="310.61" y1="595.65" x2="311.98" y2="594.28"/><line class="cls-5" x1="312.92" y1="593.34" x2="312.92" y2="593.34"/><line class="cls-5" x1="313.81" y1="592.45" x2="316.54" y2="589.67"/><line class="cls-5" x1="317.48" y1="588.77" x2="317.48" y2="588.77"/><line class="cls-5" x1="318.38" y1="587.83" x2="319.64" y2="586.62"/><line class="cls-5" x1="317.9" y1="595.65" x2="319.64" y2="593.92"/><polyline class="cls-5" points="302.38 595.65 319.64 595.65 319.64 509.4 302.38 509.4 302.38 595.65"/><line class="cls-5" x1="302.38" y1="7.37" x2="309.25" y2="0.5"/><line class="cls-5" x1="302.38" y1="14.72" x2="316.59" y2="0.5"/><line class="cls-5" x1="302.38" y1="22.01" x2="319.64" y2="4.75"/><line class="cls-5" x1="302.38" y1="29.35" x2="319.64" y2="12.09"/><line class="cls-5" x1="302.38" y1="36.65" x2="319.64" y2="19.39"/><line class="cls-5" x1="302.38" y1="43.99" x2="319.64" y2="26.73"/><line class="cls-5" x1="302.38" y1="51.28" x2="319.64" y2="34.02"/><line class="cls-5" x1="302.38" y1="58.63" x2="319.64" y2="41.37"/><line class="cls-5" x1="302.38" y1="65.92" x2="319.64" y2="48.66"/><line class="cls-5" x1="302.38" y1="73.27" x2="319.64" y2="56.01"/><line class="cls-5" x1="302.38" y1="80.56" x2="319.64" y2="63.3"/><line class="cls-5" x1="303.53" y1="86.75" x2="319.64" y2="70.64"/><line class="cls-5" x1="310.82" y1="86.75" x2="319.64" y2="77.94"/><line class="cls-5" x1="318.17" y1="86.75" x2="319.64" y2="85.28"/><line class="cls-5" x1="302.38" y1="3.7" x2="304.68" y2="1.44"/><line class="cls-5" x1="305.58" y1="0.55" x2="305.58" y2="0.55"/><line class="cls-5" x1="302.38" y1="11.05" x2="303.74" y2="9.68"/><line class="cls-5" x1="304.68" y1="8.79" x2="304.68" y2="8.79"/><line class="cls-5" x1="305.58" y1="7.84" x2="308.3" y2="5.12"/><line class="cls-5" x1="309.25" y1="4.17" x2="309.25" y2="4.17"/><line class="cls-5" x1="310.14" y1="3.28" x2="312.92" y2="0.55"/><line class="cls-5" x1="302.38" y1="18.34" x2="302.85" y2="17.92"/><line class="cls-5" x1="303.74" y1="16.97" x2="303.74" y2="16.97"/><line class="cls-5" x1="304.68" y1="16.08" x2="307.41" y2="13.35"/><line class="cls-5" x1="308.3" y1="12.41" x2="308.3" y2="12.41"/><line class="cls-5" x1="309.25" y1="11.52" x2="311.98" y2="8.79"/><line class="cls-5" x1="312.92" y1="7.84" x2="312.92" y2="7.84"/><line class="cls-5" x1="313.81" y1="6.95" x2="316.54" y2="4.17"/><line class="cls-5" x1="317.48" y1="3.28" x2="317.48" y2="3.28"/><line class="cls-5" x1="318.38" y1="2.34" x2="319.64" y2="1.13"/><line class="cls-5" x1="302.85" y1="25.21" x2="302.85" y2="25.21"/><line class="cls-5" x1="303.74" y1="24.32" x2="306.52" y2="21.59"/><line class="cls-5" x1="307.41" y1="20.65" x2="307.41" y2="20.65"/><line class="cls-5" x1="308.3" y1="19.75" x2="311.08" y2="16.97"/><line class="cls-5" x1="311.98" y1="16.08" x2="311.98" y2="16.08"/><line class="cls-5" x1="312.92" y1="15.19" x2="315.65" y2="12.41"/><line class="cls-5" x1="316.54" y1="11.52" x2="316.54" y2="11.52"/><line class="cls-5" x1="317.48" y1="10.57" x2="319.64" y2="8.42"/><line class="cls-5" x1="302.85" y1="32.56" x2="305.58" y2="29.83"/><line class="cls-5" x1="306.52" y1="28.88" x2="306.52" y2="28.88"/><line class="cls-5" x1="307.41" y1="27.99" x2="310.14" y2="25.21"/><line class="cls-5" x1="311.08" y1="24.32" x2="311.08" y2="24.32"/><line class="cls-5" x1="311.98" y1="23.43" x2="314.76" y2="20.65"/><line class="cls-5" x1="315.65" y1="19.75" x2="315.65" y2="19.75"/><line class="cls-5" x1="316.54" y1="18.81" x2="319.32" y2="16.08"/><line class="cls-5" x1="302.38" y1="40.32" x2="304.68" y2="38.06"/><line class="cls-5" x1="305.58" y1="37.12" x2="305.58" y2="37.12"/><line class="cls-5" x1="306.52" y1="36.23" x2="309.25" y2="33.45"/><line class="cls-5" x1="310.14" y1="32.56" x2="310.14" y2="32.56"/><line class="cls-5" x1="311.08" y1="31.61" x2="313.81" y2="28.88"/><line class="cls-5" x1="314.76" y1="27.99" x2="314.76" y2="27.99"/><line class="cls-5" x1="315.65" y1="27.05" x2="318.38" y2="24.32"/><line class="cls-5" x1="319.32" y1="23.43" x2="319.32" y2="23.43"/><line class="cls-5" x1="302.38" y1="47.61" x2="303.74" y2="46.25"/><line class="cls-5" x1="304.68" y1="45.36" x2="304.68" y2="45.36"/><line class="cls-5" x1="305.58" y1="44.46" x2="308.3" y2="41.68"/><line class="cls-5" x1="309.25" y1="40.79" x2="309.25" y2="40.79"/><line class="cls-5" x1="310.14" y1="39.85" x2="312.92" y2="37.12"/><line class="cls-5" x1="313.81" y1="36.23" x2="313.81" y2="36.23"/><line class="cls-5" x1="314.76" y1="35.28" x2="317.48" y2="32.56"/><line class="cls-5" x1="318.38" y1="31.61" x2="318.38" y2="31.61"/><line class="cls-5" x1="319.32" y1="30.72" x2="319.64" y2="30.4"/><line class="cls-5" x1="302.38" y1="54.96" x2="302.85" y2="54.48"/><line class="cls-5" x1="303.74" y1="53.59" x2="303.74" y2="53.59"/><line class="cls-5" x1="304.68" y1="52.7" x2="307.41" y2="49.92"/><line class="cls-5" x1="308.3" y1="49.03" x2="308.3" y2="49.03"/><line class="cls-5" x1="309.25" y1="48.08" x2="311.98" y2="45.36"/><line class="cls-5" x1="312.92" y1="44.46" x2="312.92" y2="44.46"/><line class="cls-5" x1="313.81" y1="43.52" x2="316.54" y2="40.79"/><line class="cls-5" x1="317.48" y1="39.85" x2="317.48" y2="39.85"/><line class="cls-5" x1="318.38" y1="38.96" x2="319.64" y2="37.7"/><line class="cls-5" x1="302.85" y1="61.83" x2="302.85" y2="61.83"/><line class="cls-5" x1="303.74" y1="60.89" x2="306.52" y2="58.16"/><line class="cls-5" x1="307.41" y1="57.27" x2="307.41" y2="57.27"/><line class="cls-5" x1="308.3" y1="56.32" x2="311.08" y2="53.59"/><line class="cls-5" x1="311.98" y1="52.7" x2="311.98" y2="52.7"/><line class="cls-5" x1="312.92" y1="51.76" x2="315.65" y2="49.03"/><line class="cls-5" x1="316.54" y1="48.08" x2="316.54" y2="48.08"/><line class="cls-5" x1="317.48" y1="47.19" x2="319.64" y2="45.04"/><line class="cls-5" x1="302.85" y1="69.12" x2="305.58" y2="66.39"/><line class="cls-5" x1="306.52" y1="65.5" x2="306.52" y2="65.5"/><line class="cls-5" x1="307.41" y1="64.56" x2="310.14" y2="61.83"/><line class="cls-5" x1="311.08" y1="60.89" x2="311.08" y2="60.89"/><line class="cls-5" x1="311.98" y1="59.99" x2="314.76" y2="57.27"/><line class="cls-5" x1="315.65" y1="56.32" x2="315.65" y2="56.32"/><line class="cls-5" x1="316.54" y1="55.43" x2="319.32" y2="52.7"/><line class="cls-5" x1="302.38" y1="76.89" x2="304.68" y2="74.63"/><line class="cls-5" x1="305.58" y1="73.74" x2="305.58" y2="73.74"/><line class="cls-5" x1="306.52" y1="72.79" x2="309.25" y2="70.07"/><line class="cls-5" x1="310.14" y1="69.12" x2="310.14" y2="69.12"/><line class="cls-5" x1="311.08" y1="68.23" x2="313.81" y2="65.5"/><line class="cls-5" x1="314.76" y1="64.56" x2="314.76" y2="64.56"/><line class="cls-5" x1="315.65" y1="63.67" x2="318.38" y2="60.89"/><line class="cls-5" x1="319.32" y1="59.99" x2="319.32" y2="59.99"/><line class="cls-5" x1="302.38" y1="84.23" x2="303.74" y2="82.87"/><line class="cls-5" x1="304.68" y1="81.98" x2="304.68" y2="81.98"/><line class="cls-5" x1="305.58" y1="81.03" x2="308.3" y2="78.3"/><line class="cls-5" x1="309.25" y1="77.36" x2="309.25" y2="77.36"/><line class="cls-5" x1="310.14" y1="76.47" x2="312.92" y2="73.74"/><line class="cls-5" x1="313.81" y1="72.79" x2="313.81" y2="72.79"/><line class="cls-5" x1="314.76" y1="71.9" x2="317.48" y2="69.12"/><line class="cls-5" x1="318.38" y1="68.23" x2="318.38" y2="68.23"/><line class="cls-5" x1="319.32" y1="67.34" x2="319.64" y2="66.97"/><line class="cls-5" x1="307.2" y1="86.75" x2="307.41" y2="86.54"/><line class="cls-5" x1="308.3" y1="85.6" x2="308.3" y2="85.6"/><line class="cls-5" x1="309.25" y1="84.7" x2="311.98" y2="81.98"/><line class="cls-5" x1="312.92" y1="81.03" x2="312.92" y2="81.03"/><line class="cls-5" x1="313.81" y1="80.14" x2="316.54" y2="77.36"/><line class="cls-5" x1="317.48" y1="76.47" x2="317.48" y2="76.47"/><line class="cls-5" x1="318.38" y1="75.52" x2="319.64" y2="74.32"/><line class="cls-5" x1="314.49" y1="86.75" x2="315.65" y2="85.6"/><line class="cls-5" x1="316.54" y1="84.7" x2="316.54" y2="84.7"/><line class="cls-5" x1="317.48" y1="83.76" x2="319.64" y2="81.61"/><polyline class="cls-5" points="319.64 0.5 302.38 0.5 302.38 86.75 319.64 86.75 319.64 0.5"/><text class="cls-6" transform="translate(63.62 153.82)">3.95</text><text class="cls-6" transform="translate(201.81 153.82)">3.85</text><text class="cls-6" transform="translate(206.76 353.66)">2.57</text><text class="cls-6" transform="translate(133.1 544.86)">10.03</text><text class="cls-7" transform="translate(74.19 443.32)">CT</text><text class="cls-7" transform="translate(56.44 480.3)">20.40</text><text class="cls-7" transform="translate(52.74 406.91)">№439</text><polyline class="cls-8" points="44.6 489.65 44.6 380.88 135.31 380.88 135.31 489.65"/><line class="cls-8" x1="44.6" y1="417.21" x2="135.3" y2="417.21"/><line class="cls-8" x1="44.6" y1="489.65" x2="135.3" y2="489.65"/><line class="cls-8" x1="44.6" y1="453.53" x2="135.3" y2="453.53"/></svg>