<svg id="_64" data-name="64" xmlns="http://www.w3.org/2000/svg" viewBox="0 0 936.54 808.42"><defs><style>.cls-1{isolation:isolate;font-size:12px;fill:#969696;}.cls-1,.cls-4,.cls-6{font-family:PTSans-Regular, PT Sans;}.cls-2,.cls-5,.cls-7,.cls-8{fill:none;stroke-linecap:round;}.cls-2{stroke:#969696;stroke-width:0.75px;}.cls-2,.cls-5,.cls-7{stroke-linejoin:round;}.cls-3{letter-spacing:-0.01em;}.cls-4{font-size:40px;}.cls-5,.cls-7,.cls-8{stroke:#000;}.cls-5{stroke-width:0.5px;}.cls-6{font-size:36px;}.cls-7{stroke-width:0.25px;stroke-dasharray:1 1;}.cls-8{stroke-miterlimit:10;}</style></defs><title>8floor_64flat</title><text class="cls-1" transform="translate(476.87 805.22)">двор</text><line class="cls-2" x1="466.11" y1="808.04" x2="466.11" y2="799.24"/><polyline class="cls-2" points="462.61 804.54 466.11 808.04 469.61 804.54"/><text class="cls-1" transform="translate(926.34 410.24) rotate(90)"><tspan class="cls-3">у</tspan><tspan x="5.42" y="0">лица</tspan></text><line class="cls-2" x1="932.32" y1="399.48" x2="923.52" y2="399.48"/><polyline class="cls-2" points="928.83 402.98 932.33 399.48 928.83 395.98"/><text class="cls-4" transform="translate(103.08 512.84)">2K</text><text class="cls-4" transform="translate(78.3 563.02)">61.18</text><text class="cls-4" transform="translate(83.92 462.94)">№64</text><polyline class="cls-5" points="64.01 573.83 64.01 424.76 188.34 424.76 188.34 573.83"/><line class="cls-5" x1="64.01" y1="474.54" x2="188.34" y2="474.54"/><line class="cls-5" x1="64.01" y1="573.83" x2="188.34" y2="573.83"/><line class="cls-5" x1="64.01" y1="524.33" x2="188.34" y2="524.33"/><text class="cls-6" transform="translate(306.7 653.71)">11.34</text><text class="cls-6" transform="translate(79.52 653.71)">11.92</text><text class="cls-6" transform="translate(28.84 191.57)">10.96</text><text class="cls-6" transform="translate(531.16 217.27)">18.46</text><text class="cls-6" transform="translate(144.53 100.57)">1.65</text><text class="cls-6" transform="translate(146.94 232.23)">1.79</text><text class="cls-6" transform="translate(264.06 187.4)">4.01</text><text class="cls-6" transform="translate(790.81 96.68)">0.56</text><text class="cls-6" transform="translate(510.68 444.69)">0.49</text><line class="cls-7" x1="134.11" y1="65.16" x2="134.11" y2="122.06"/><line class="cls-7" x1="400.55" y1="281.79" x2="400.55" y2="352.48"/><line class="cls-7" x1="406.79" y1="281.79" x2="406.79" y2="352.48"/><line class="cls-7" x1="140.41" y1="65.16" x2="140.41" y2="122.06"/><line class="cls-7" x1="337.6" y1="269.98" x2="282.69" y2="269.98"/><line class="cls-7" x1="337.68" y1="368.53" x2="266.3" y2="368.53"/><line class="cls-7" x1="231.67" y1="368.21" x2="161.87" y2="368.21"/><line class="cls-7" x1="230.92" y1="374.43" x2="161.12" y2="374.43"/><line class="cls-7" x1="338.33" y1="374.75" x2="266.91" y2="374.75"/><line class="cls-7" x1="337.6" y1="263.67" x2="282.69" y2="263.67"/><line class="cls-7" x1="215.83" y1="263.67" x2="160.92" y2="263.67"/><line class="cls-7" x1="215.83" y1="269.98" x2="160.92" y2="269.98"/><line class="cls-7" x1="107.94" y1="0.46" x2="35.61" y2="0.46"/><polyline class="cls-8" points="235.01 720.26 238.84 719.51 235.01 720.26 197.76 727.91"/><line class="cls-8" x1="194.68" y1="728.57" x2="193.1" y2="720.84"/><line class="cls-8" x1="194.85" y1="729.32" x2="194.68" y2="728.57"/><line class="cls-8" x1="196.18" y1="720.26" x2="196.18" y2="720.26"/><polyline class="cls-8" points="197.76 727.91 195.43 728.41 193.85 720.67 195.43 728.41"/><line class="cls-8" x1="195.59" y1="729.15" x2="194.85" y2="729.32"/><polyline class="cls-8" points="196.18 720.26 195.26 715.6 192.19 700.96"/><line class="cls-8" x1="195.59" y1="729.15" x2="238.92" y2="720.26"/><line class="cls-8" x1="236.01" y1="691.98" x2="192.19" y2="700.96"/><polyline class="cls-8" points="122.91 748.12 195.59 733.15 194.85 729.32"/><line class="cls-8" x1="122.91" y1="715.27" x2="192.19" y2="700.96"/><line class="cls-8" x1="122.91" y1="744.12" x2="194.85" y2="729.32"/><line class="cls-8" x1="122.91" y1="715.27" x2="192.19" y2="700.96"/><polyline class="cls-8" points="122.91 730.49 127.07 729.65 127.74 732.73 129.65 732.31 129.98 733.81 123.83 735.14 122.91 735.31"/><polyline class="cls-8" points="196.18 720.26 190.02 721.5 189.69 719.92 191.6 719.59 191.02 716.51 195.26 715.6"/><line class="cls-8" x1="190.02" y1="721.5" x2="129.98" y2="733.81"/><polyline class="cls-8" points="126.82 728.07 131.4 727.16 186.03 715.85"/><polyline class="cls-8" points="131.4 727.16 132.39 731.73 127.74 732.73 126.82 728.07"/><polyline class="cls-8" points="191.6 719.59 187.03 720.5 186.03 715.85 190.69 714.93 191.6 719.59"/><line class="cls-8" x1="187.03" y1="720.51" x2="132.39" y2="731.73"/><line class="cls-8" x1="131.4" y1="727.16" x2="186.03" y2="715.85"/><line class="cls-8" x1="131.89" y1="729.4" x2="186.53" y2="718.18"/><line class="cls-8" x1="123.83" y1="735.14" x2="122.91" y2="730.48"/><polyline class="cls-8" points="192.19 700.96 195.26 715.6 196.18 720.26 195.26 715.6"/><line class="cls-8" x1="194.85" y1="729.32" x2="194.68" y2="728.57"/><polyline class="cls-8" points="193.1 720.84 193.85 720.67 193.1 720.84"/><polyline class="cls-8" points="193.85 720.67 196.18 720.26 193.85 720.67"/><line class="cls-8" x1="194.68" y1="728.57" x2="193.1" y2="720.84"/><polyline class="cls-8" points="0.5 718.18 2.41 718.59 0.5 718.18"/><line class="cls-8" x1="2.41" y1="718.59" x2="47.98" y2="727.91"/><line class="cls-8" x1="51.06" y1="728.57" x2="52.64" y2="720.84"/><line class="cls-8" x1="50.9" y1="729.32" x2="51.06" y2="728.57"/><line class="cls-8" x1="49.56" y1="720.26" x2="49.56" y2="720.26"/><polyline class="cls-8" points="47.98 727.91 50.31 728.41 51.89 720.67 50.31 728.41"/><line class="cls-8" x1="50.15" y1="729.15" x2="50.9" y2="729.32"/><polyline class="cls-8" points="49.56 720.26 50.56 715.6 53.56 700.96"/><line class="cls-8" x1="0.5" y1="718.93" x2="50.15" y2="729.15"/><line class="cls-8" x1="53.56" y1="700.96" x2="16.22" y2="693.29"/><polyline class="cls-8" points="122.91 748.12 50.15 733.15 50.9 729.32"/><line class="cls-8" x1="122.91" y1="715.27" x2="53.56" y2="700.96"/><line class="cls-8" x1="122.91" y1="744.12" x2="50.9" y2="729.32"/><line class="cls-8" x1="122.91" y1="715.27" x2="53.56" y2="700.96"/><polyline class="cls-8" points="122.91 730.49 118.67 729.65 118.01 732.73 116.09 732.31 115.76 733.81 121.92 735.14 122.91 735.31"/><polyline class="cls-8" points="49.56 720.26 55.72 721.5 56.05 719.92 54.14 719.59 54.72 716.51 50.56 715.6"/><line class="cls-8" x1="55.72" y1="721.5" x2="115.76" y2="733.81"/><polyline class="cls-8" points="118.92 728.07 114.35 727.16 59.71 715.85"/><polyline class="cls-8" points="114.35 727.16 113.43 731.73 118.01 732.73 118.92 728.07"/><polyline class="cls-8" points="54.14 719.59 58.71 720.5 59.71 715.85 55.05 714.93 54.14 719.59"/><line class="cls-8" x1="58.71" y1="720.51" x2="113.43" y2="731.73"/><line class="cls-8" x1="114.35" y1="727.16" x2="59.71" y2="715.85"/><line class="cls-8" x1="113.85" y1="729.4" x2="59.21" y2="718.18"/><line class="cls-8" x1="121.91" y1="735.14" x2="122.91" y2="730.48"/><polyline class="cls-8" points="53.56 700.96 50.56 715.6 49.56 720.26 50.56 715.6"/><line class="cls-8" x1="50.9" y1="729.32" x2="51.06" y2="728.57"/><polyline class="cls-8" points="52.64 720.84 51.89 720.67 52.64 720.84"/><polyline class="cls-8" points="51.89 720.67 49.56 720.26 51.89 720.67"/><line class="cls-8" x1="51.06" y1="728.57" x2="52.64" y2="720.84"/><line class="cls-8" x1="406.74" y1="352.52" x2="400.5" y2="352.52"/><line class="cls-8" x1="406.74" y1="281.83" x2="400.5" y2="281.83"/><line class="cls-8" x1="406.74" y1="368.24" x2="406.74" y2="352.52"/><polyline class="cls-8" points="406.74 281.83 406.74 57.05 400.5 57.05 400.5 108.11"/><line class="cls-8" x1="400.5" y1="114.43" x2="400.5" y2="263.7"/><line class="cls-8" x1="400.5" y1="270.02" x2="400.5" y2="281.83"/><polyline class="cls-8" points="400.5 352.52 400.5 368.24 406.74 368.24"/><line class="cls-8" x1="406.74" y1="281.83" x2="400.5" y2="281.83"/><line class="cls-8" x1="406.74" y1="352.52" x2="400.5" y2="352.52"/><polyline class="cls-8" points="241.75 374.47 241.75 691.98 247.99 691.98 247.99 374.47"/><line class="cls-8" x1="228.36" y1="57.05" x2="228.36" y2="111.27"/><polyline class="cls-8" points="234.68 111.27 234.68 57.05 228.36 57.05"/><line class="cls-8" x1="337.63" y1="263.7" x2="337.63" y2="270.02"/><line class="cls-8" x1="282.58" y1="263.7" x2="282.58" y2="270.02"/><line class="cls-8" x1="160" y1="270.02" x2="160" y2="263.7"/><line class="cls-8" x1="215.05" y1="270.02" x2="215.05" y2="263.7"/><line class="cls-8" x1="134.06" y1="270.02" x2="160" y2="270.02"/><line class="cls-8" x1="215.05" y1="270.02" x2="282.58" y2="270.02"/><line class="cls-8" x1="337.63" y1="270.02" x2="400.5" y2="270.02"/><line class="cls-8" x1="400.5" y1="263.7" x2="337.63" y2="263.7"/><line class="cls-8" x1="282.58" y1="263.7" x2="234.68" y2="263.7"/><line class="cls-8" x1="228.36" y1="263.7" x2="215.05" y2="263.7"/><line class="cls-8" x1="160" y1="263.7" x2="140.38" y2="263.7"/><line class="cls-8" x1="282.58" y1="263.7" x2="282.58" y2="270.02"/><line class="cls-8" x1="337.63" y1="263.7" x2="337.63" y2="270.02"/><line class="cls-8" x1="215.05" y1="270.02" x2="215.05" y2="263.7"/><line class="cls-8" x1="160" y1="270.02" x2="160" y2="263.7"/><line class="cls-8" x1="140.38" y1="137.96" x2="228.36" y2="137.96"/><line class="cls-8" x1="228.36" y1="131.73" x2="140.38" y2="131.73"/><line class="cls-8" x1="140.38" y1="122.25" x2="134.06" y2="122.25"/><polyline class="cls-8" points="140.38 67.28 134.06 67.28 134.06 16.22"/><polyline class="cls-8" points="134.06 270.02 134.06 263.7 134.06 122.25"/><line class="cls-8" x1="140.38" y1="263.7" x2="140.38" y2="137.96"/><line class="cls-8" x1="140.38" y1="131.73" x2="140.38" y2="122.25"/><polyline class="cls-8" points="140.38 67.28 140.38 16.22 134.06 16.22"/><line class="cls-8" x1="140.38" y1="67.28" x2="134.06" y2="67.28"/><line class="cls-8" x1="140.38" y1="122.25" x2="134.06" y2="122.25"/><line class="cls-8" x1="228.36" y1="108.11" x2="228.36" y2="131.73"/><line class="cls-8" x1="228.36" y1="137.96" x2="228.36" y2="263.7"/><line class="cls-8" x1="234.68" y1="263.7" x2="234.68" y2="114.43"/><polyline class="cls-8" points="322.25 108.11 322.25 57.05 316.01 57.05 316.01 108.11"/><polyline class="cls-8" points="268.44 108.11 268.44 57.05 262.21 57.05 262.21 108.11"/><polyline class="cls-8" points="312.1 114.43 312.1 111.27 312.1 108.11"/><polyline class="cls-8" points="234.68 114.43 280.67 114.43 280.67 111.27 280.67 108.11"/><line class="cls-8" x1="312.1" y1="114.43" x2="400.5" y2="114.43"/><line class="cls-8" x1="400.5" y1="108.11" x2="322.25" y2="108.11"/><line class="cls-8" x1="316.01" y1="108.11" x2="312.1" y2="108.11"/><line class="cls-8" x1="280.67" y1="108.11" x2="268.44" y2="108.11"/><line class="cls-8" x1="262.21" y1="108.11" x2="234.68" y2="108.11"/><line class="cls-8" x1="280.67" y1="114.43" x2="312.1" y2="114.43"/><line class="cls-8" x1="280.67" y1="108.11" x2="312.1" y2="108.11"/><path class="cls-8" d="M280.75,114.47a31.47,31.47,0,0,0,1.89,10.74"/><line class="cls-8" x1="312.1" y1="114.43" x2="282.5" y2="125.16"/><polyline class="cls-8" points="280.67 108.11 280.67 111.27 280.67 114.43 280.67 111.27"/><polyline class="cls-8" points="312.1 108.11 312.1 111.27 312.1 114.43 312.1 111.27"/><line class="cls-8" x1="266.86" y1="374.47" x2="266.86" y2="368.24"/><line class="cls-8" x1="337.63" y1="374.47" x2="337.63" y2="368.24"/><line class="cls-8" x1="230.77" y1="374.47" x2="230.77" y2="368.24"/><line class="cls-8" x1="160" y1="374.47" x2="160" y2="368.24"/><line class="cls-8" x1="469.61" y1="368.24" x2="337.63" y2="368.24"/><line class="cls-8" x1="266.86" y1="368.24" x2="230.77" y2="368.24"/><polyline class="cls-8" points="160 368.24 16.22 368.24 16.22 374.47 160 374.47"/><line class="cls-8" x1="230.77" y1="374.47" x2="241.75" y2="374.47"/><line class="cls-8" x1="247.99" y1="374.47" x2="266.86" y2="374.47"/><polyline class="cls-8" points="337.63 374.47 469.61 374.47 469.61 368.24"/><line class="cls-8" x1="337.63" y1="374.47" x2="337.63" y2="368.24"/><line class="cls-8" x1="266.86" y1="374.47" x2="266.86" y2="368.24"/><line class="cls-8" x1="160" y1="374.47" x2="160" y2="368.24"/><line class="cls-8" x1="230.77" y1="374.47" x2="230.77" y2="368.24"/><line class="cls-8" x1="888.99" y1="76.09" x2="908.2" y2="42.16"/><line class="cls-8" x1="810.4" y1="214.89" x2="820.13" y2="197.76"/><line class="cls-8" x1="820.13" y1="197.76" x2="815.97" y2="195.43"/><line class="cls-8" x1="888.99" y1="76.09" x2="884.91" y2="73.76"/><polyline class="cls-8" points="815.97 195.43 812.56 193.52 811.9 193.1"/><polyline class="cls-8" points="884.91 73.77 881.5 71.85 880.84 71.44 897.39 42.16"/><line class="cls-8" x1="811.9" y1="193.1" x2="802.17" y2="210.23"/><line class="cls-8" x1="810.4" y1="214.89" x2="802.17" y2="210.23"/><polyline class="cls-8" points="824.37 196.59 890.15 80.33 893.65 82.33 827.78 198.51 824.37 196.59"/><line class="cls-8" x1="880.84" y1="71.44" x2="811.9" y2="193.1"/><polyline class="cls-8" points="881.5 71.85 879.34 75.59 882.09 77.09 881.09 78.84 881.84 79.25 884.91 73.77"/><polyline class="cls-8" points="861.38 115.26 862.96 112.52 862.29 112.1 861.3 113.85 858.55 112.27 857.97 113.27"/><line class="cls-8" x1="862.96" y1="112.52" x2="881.84" y2="79.25"/><polyline class="cls-8" points="878.01 74.76 875.68 78.92 859.55 107.36"/><polyline class="cls-8" points="875.68 78.92 879.76 81.25 882.09 77.09 878.01 74.76"/><polyline class="cls-8" points="861.3 113.85 863.63 109.69 859.55 107.36 857.22 111.52 861.3 113.85"/><line class="cls-8" x1="863.62" y1="109.69" x2="879.76" y2="81.25"/><line class="cls-8" x1="875.68" y1="78.92" x2="859.55" y2="107.36"/><line class="cls-8" x1="877.68" y1="80.08" x2="861.55" y2="108.53"/><polyline class="cls-8" points="857.97 113.27 857.39 114.35 860.13 115.84 859.22 117.59 859.88 118.01 861.38 115.26"/><polyline class="cls-8" points="839.51 154.01 841 151.27 840.34 150.85 839.34 152.6 836.6 151.02 836.1 152.02"/><line class="cls-8" x1="841.01" y1="151.27" x2="859.88" y2="118.01"/><polyline class="cls-8" points="856.06 113.52 853.73 117.67 837.6 146.11"/><polyline class="cls-8" points="853.73 117.67 857.8 120 860.13 115.84 856.06 113.52"/><polyline class="cls-8" points="839.34 152.6 841.67 148.44 837.6 146.11 835.27 150.27 839.34 152.6"/><line class="cls-8" x1="841.67" y1="148.44" x2="857.8" y2="120"/><line class="cls-8" x1="853.73" y1="117.67" x2="837.6" y2="146.11"/><line class="cls-8" x1="855.81" y1="118.84" x2="839.67" y2="147.28"/><polyline class="cls-8" points="836.1 152.02 835.52 153.1 838.18 154.6 837.26 156.34 837.93 156.68 839.51 154.01"/><polyline class="cls-8" points="815.97 195.43 819.05 190.02 818.38 189.61 817.47 191.35 814.73 189.77 812.56 193.52"/><line class="cls-8" x1="819.05" y1="190.02" x2="837.93" y2="156.68"/><polyline class="cls-8" points="834.1 152.27 831.77 156.43 815.64 184.87"/><polyline class="cls-8" points="831.77 156.43 835.85 158.75 838.18 154.6 834.1 152.27"/><polyline class="cls-8" points="817.47 191.35 819.8 187.2 815.64 184.87 813.31 189.03 817.47 191.35"/><line class="cls-8" x1="819.8" y1="187.2" x2="835.85" y2="158.75"/><line class="cls-8" x1="831.77" y1="156.43" x2="815.64" y2="184.87"/><line class="cls-8" x1="833.85" y1="157.59" x2="817.72" y2="186.03"/><polyline class="cls-8" points="880.84 71.44 881.5 71.85 884.91 73.77 881.5 71.85"/><polyline class="cls-8" points="811.9 193.1 812.56 193.52 815.97 195.43 812.56 193.52"/><line class="cls-8" x1="890.15" y1="80.33" x2="889.49" y2="80"/><polyline class="cls-8" points="883.33 76.51 883.75 75.76 883.33 76.51"/><polyline class="cls-8" points="883.75 75.76 884.91 73.77 883.75 75.76"/><line class="cls-8" x1="824.37" y1="196.59" x2="823.71" y2="196.18"/><polyline class="cls-8" points="817.55 192.77 817.14 193.43 817.55 192.77"/><polyline class="cls-8" points="817.14 193.43 815.97 195.43 817.14 193.43"/><polyline class="cls-8" points="889.49 80 887.49 78.84 883.33 76.51"/><polyline class="cls-8" points="823.71 196.18 821.63 195.01 817.55 192.77"/><line class="cls-8" x1="614.89" y1="416.72" x2="626.28" y2="396.51"/><line class="cls-8" x1="536.3" y1="555.51" x2="545.95" y2="538.47"/><line class="cls-8" x1="545.95" y1="538.47" x2="541.88" y2="536.14"/><line class="cls-8" x1="614.89" y1="416.72" x2="610.73" y2="414.39"/><polyline class="cls-8" points="541.88 536.14 538.47 534.23 537.72 533.81"/><polyline class="cls-8" points="610.73 414.39 607.32 412.48 606.66 412.06 615.47 396.51"/><line class="cls-8" x1="537.72" y1="533.81" x2="528.07" y2="550.94"/><line class="cls-8" x1="536.3" y1="555.51" x2="528.07" y2="550.94"/><polyline class="cls-8" points="550.27 537.3 616.05 421.04 619.47 422.96 553.68 539.22 550.27 537.3"/><line class="cls-8" x1="606.66" y1="412.06" x2="537.72" y2="533.81"/><polyline class="cls-8" points="607.32 412.48 605.25 416.22 607.99 417.8 606.99 419.46 607.66 419.88 610.73 414.39"/><polyline class="cls-8" points="587.28 455.89 588.86 453.14 588.11 452.81 587.2 454.47 584.45 452.89 583.87 453.98"/><line class="cls-8" x1="588.86" y1="453.14" x2="607.66" y2="419.88"/><polyline class="cls-8" points="603.83 415.47 601.5 419.55 585.37 448.07"/><polyline class="cls-8" points="601.5 419.55 605.66 421.88 607.99 417.8 603.83 415.47"/><polyline class="cls-8" points="587.2 454.47 589.53 450.4 585.37 448.07 583.04 452.15 587.2 454.47"/><line class="cls-8" x1="589.53" y1="450.4" x2="605.66" y2="421.88"/><line class="cls-8" x1="601.5" y1="419.55" x2="585.37" y2="448.07"/><line class="cls-8" x1="603.58" y1="420.71" x2="587.45" y2="449.24"/><polyline class="cls-8" points="583.87 453.98 583.29 454.97 586.03 456.55 585.04 458.22 585.7 458.63 587.28 455.89"/><polyline class="cls-8" points="565.33 494.64 566.91 491.9 566.24 491.56 565.24 493.23 562.5 491.65 561.92 492.73"/><line class="cls-8" x1="566.91" y1="491.9" x2="585.7" y2="458.63"/><polyline class="cls-8" points="581.88 454.23 579.63 458.3 563.5 486.82"/><polyline class="cls-8" points="579.63 458.3 583.71 460.63 586.03 456.55 581.88 454.23"/><polyline class="cls-8" points="565.24 493.23 567.57 489.15 563.5 486.82 561.17 490.9 565.24 493.23"/><line class="cls-8" x1="567.57" y1="489.15" x2="583.71" y2="460.63"/><line class="cls-8" x1="579.63" y1="458.3" x2="563.5" y2="486.82"/><line class="cls-8" x1="581.63" y1="459.46" x2="565.49" y2="487.99"/><polyline class="cls-8" points="561.92 492.73 561.34 493.73 564.08 495.31 563.08 496.97 563.83 497.38 565.33 494.64"/><polyline class="cls-8" points="541.88 536.14 544.95 530.65 544.29 530.23 543.29 531.98 540.55 530.4 538.47 534.23"/><line class="cls-8" x1="544.95" y1="530.65" x2="563.83" y2="497.39"/><polyline class="cls-8" points="560 492.98 557.68 497.05 541.54 525.58"/><polyline class="cls-8" points="557.68 497.05 561.75 499.38 564.08 495.31 560 492.98"/><polyline class="cls-8" points="543.29 531.98 545.62 527.9 541.54 525.58 539.22 529.65 543.29 531.98"/><line class="cls-8" x1="545.62" y1="527.91" x2="561.75" y2="499.38"/><line class="cls-8" x1="557.68" y1="497.05" x2="541.54" y2="525.58"/><line class="cls-8" x1="559.67" y1="498.22" x2="543.54" y2="526.74"/><polyline class="cls-8" points="606.66 412.06 607.32 412.48 610.73 414.39 607.32 412.48"/><polyline class="cls-8" points="537.72 533.81 538.47 534.23 541.88 536.14 538.47 534.23"/><line class="cls-8" x1="616.06" y1="421.04" x2="615.39" y2="420.63"/><polyline class="cls-8" points="609.24 417.13 609.57 416.47 609.24 417.13"/><polyline class="cls-8" points="609.57 416.47 610.73 414.39 609.57 416.47"/><line class="cls-8" x1="550.28" y1="537.3" x2="549.53" y2="536.89"/><polyline class="cls-8" points="543.37 533.39 543.04 534.06 543.37 533.39"/><polyline class="cls-8" points="543.04 534.06 541.88 536.14 543.04 534.06"/><polyline class="cls-8" points="615.39 420.63 613.31 419.46 609.24 417.13"/><polyline class="cls-8" points="549.53 536.89 547.53 535.72 543.37 533.39"/><line class="cls-8" x1="402" y1="719.51" x2="432.6" y2="719.51"/><line class="cls-8" x1="238.84" y1="719.51" x2="281.83" y2="719.51"/><polyline class="cls-8" points="446.16 719.51 432.6 719.51 446.16 719.51"/><polyline class="cls-8" points="437.09 711.61 439.34 707.7 437.09 711.61"/><line class="cls-8" x1="290.48" y1="719.51" x2="290.48" y2="711.61"/><line class="cls-8" x1="393.35" y1="719.51" x2="393.35" y2="711.61"/><line class="cls-8" x1="290.48" y1="720.26" x2="290.48" y2="719.51"/><line class="cls-8" x1="393.35" y1="720.26" x2="393.35" y2="719.51"/><line class="cls-8" x1="287.32" y1="711.61" x2="287.32" y2="711.61"/><polyline class="cls-8" points="281.83 719.51 289.65 719.51 289.65 711.61 289.65 719.51"/><line class="cls-8" x1="289.65" y1="720.26" x2="290.48" y2="720.26"/><line class="cls-8" x1="396.51" y1="711.61" x2="396.51" y2="711.61"/><polyline class="cls-8" points="402 719.51 394.18 719.51 394.18 711.61 394.18 719.51"/><line class="cls-8" x1="394.18" y1="720.26" x2="393.35" y2="720.26"/><polyline class="cls-8" points="287.32 711.61 287.32 706.87 287.32 691.98"/><polyline class="cls-8" points="396.51 711.61 396.51 706.87 396.51 691.98 430.19 691.98"/><line class="cls-8" x1="287.32" y1="691.98" x2="236.01" y2="691.98"/><line class="cls-8" x1="238.92" y1="720.26" x2="289.65" y2="720.26"/><line class="cls-8" x1="394.18" y1="720.26" x2="446.66" y2="720.26"/><polyline class="cls-8" points="290.48 720.26 393.35 720.26 393.35 724.16 290.48 724.16 290.48 720.26"/><line class="cls-8" x1="396.51" y1="691.98" x2="287.32" y2="691.98"/><polyline class="cls-8" points="396.51 706.87 392.19 706.87 392.19 710.03 390.27 710.03 390.27 711.61 396.51 711.61"/><polyline class="cls-8" points="326.57 711.61 329.73 711.61 329.73 710.03 327.82 710.03 327.82 706.87 326.57 706.87"/><line class="cls-8" x1="329.73" y1="711.61" x2="390.27" y2="711.61"/><polyline class="cls-8" points="392.19 705.29 387.53 705.29 332.48 705.29"/><polyline class="cls-8" points="387.53 705.29 387.53 710.03 392.19 710.03 392.19 705.29"/><polyline class="cls-8" points="327.82 710.03 332.48 710.03 332.48 705.29 327.82 705.29 327.82 710.03"/><line class="cls-8" x1="332.48" y1="710.03" x2="387.53" y2="710.03"/><line class="cls-8" x1="387.53" y1="705.29" x2="332.48" y2="705.29"/><line class="cls-8" x1="387.53" y1="707.7" x2="332.48" y2="707.7"/><polyline class="cls-8" points="326.57 706.87 325.41 706.87 325.41 710.03 323.5 710.03 323.5 711.61 326.57 711.61"/><polyline class="cls-8" points="287.32 711.61 293.56 711.61 293.56 710.03 291.65 710.03 291.65 706.87 287.32 706.87"/><line class="cls-8" x1="293.56" y1="711.61" x2="323.5" y2="711.61"/><polyline class="cls-8" points="325.41 705.29 320.67 705.29 296.39 705.29"/><polyline class="cls-8" points="320.67 705.29 320.67 710.03 325.41 710.03 325.41 705.29"/><polyline class="cls-8" points="291.65 710.03 296.39 710.03 296.39 705.29 291.65 705.29 291.65 710.03"/><line class="cls-8" x1="296.39" y1="710.03" x2="320.67" y2="710.03"/><line class="cls-8" x1="320.67" y1="705.29" x2="296.39" y2="705.29"/><line class="cls-8" x1="320.67" y1="707.7" x2="296.39" y2="707.7"/><polyline class="cls-8" points="396.51 691.98 396.51 706.87 396.51 711.61 396.51 706.87"/><polyline class="cls-8" points="287.32 691.98 287.32 706.87 287.32 711.61 287.32 706.87"/><line class="cls-8" x1="393.35" y1="720.26" x2="393.35" y2="719.51"/><polyline class="cls-8" points="393.35 711.61 394.18 711.61 393.35 711.61"/><polyline class="cls-8" points="394.18 711.61 396.51 711.61 394.18 711.61"/><line class="cls-8" x1="290.48" y1="720.26" x2="290.48" y2="719.51"/><polyline class="cls-8" points="290.48 711.61 289.65 711.61 290.48 711.61"/><polyline class="cls-8" points="289.65 711.61 287.32 711.61 289.65 711.61"/><line class="cls-8" x1="393.35" y1="719.51" x2="393.35" y2="711.61"/><line class="cls-8" x1="290.48" y1="719.51" x2="290.48" y2="711.61"/><polyline class="cls-8" points="898.05 41.33 908.2 41.33 898.05 41.33"/><line class="cls-8" x1="908.2" y1="41.33" x2="908.2" y2="42.16"/><polyline class="cls-8" points="908.2 41.33 908.2 41.33 908.2 41.33"/><polyline class="cls-8" points="908.2 29.52 908.2 13.81 908.2 29.52 908.2 29.52 908.2 29.52"/><line class="cls-8" x1="908.2" y1="13.81" x2="898.05" y2="13.81"/><path class="cls-8" d="M898.05,13.81"/><line class="cls-8" x1="908.2" y1="42.16" x2="908.2" y2="42.16"/><polyline class="cls-8" points="616.14 395.76 626.78 395.76 616.14 395.76"/><line class="cls-8" x1="626.78" y1="395.76" x2="626.28" y2="396.51"/><polyline class="cls-8" points="626.03 395.76 701.71 395.76 710.69 395.76"/><polyline class="cls-8" points="616.14 383.95 685.83 383.95 694.73 368.24 685.83 383.95 694.73 383.95 685.83 383.95"/><line class="cls-8" x1="694.73" y1="368.24" x2="616.14" y2="368.24"/><line class="cls-8" x1="616.14" y1="383.95" x2="616.14" y2="368.24"/><line class="cls-8" x1="626.53" y1="396.51" x2="711.19" y2="396.51"/><polyline class="cls-8" points="446.16 719.51 450.65 711.61 488.32 645.08"/><polyline class="cls-8" points="478.01 639.34 448.24 691.98 430.19 691.98 448.24 691.98 439.34 707.7 448.24 691.98"/><line class="cls-8" x1="464.37" y1="631.52" x2="430.19" y2="691.98"/><line class="cls-8" x1="447.07" y1="719.51" x2="488.99" y2="645.49"/><line class="cls-8" x1="478.01" y1="639.34" x2="464.37" y2="631.52"/><polyline class="cls-8" points="769.49 291.98 717.43 383.95 710.69 395.76 717.43 383.95"/><line class="cls-8" x1="745.54" y1="278.42" x2="694.73" y2="368.24"/><line class="cls-8" x1="711.61" y1="395.76" x2="770.15" y2="292.31"/><line class="cls-8" x1="762.67" y1="288.07" x2="745.54" y2="278.42"/><polyline class="cls-8" points="908.2 29.52 908.2 29.52 908.2 29.52"/><line class="cls-8" x1="0.5" y1="0.5" x2="0.5" y2="16.22"/><polyline class="cls-8" points="0.5 31.93 0.5 691.98 16.22 691.98 16.22 16.22"/><polyline class="cls-8" points="406.74 29.52 751.69 29.52 751.69 13.81 448.4 13.81"/><line class="cls-8" x1="432.69" y1="13.81" x2="391.02" y2="13.81"/><polyline class="cls-8" points="391.02 13.81 391.02 29.52 391.02 41.33"/><line class="cls-8" x1="406.74" y1="57.05" x2="406.74" y2="29.52"/><line class="cls-8" x1="391.02" y1="41.33" x2="244.08" y2="41.33"/><polyline class="cls-8" points="406.74 57.05 391.02 57.05 228.36 57.05"/><line class="cls-8" x1="244.08" y1="41.33" x2="244.08" y2="0.5"/><polyline class="cls-8" points="228.36 57.05 228.36 41.33 228.36 16.22"/><polyline class="cls-8" points="32.68 16.22 32.68 6.74 32.68 0.5"/><polyline class="cls-8" points="111.27 16.22 111.27 6.74 111.27 0.5"/><line class="cls-8" x1="16.22" y1="16.22" x2="32.68" y2="16.22"/><line class="cls-8" x1="111.27" y1="16.22" x2="228.36" y2="16.22"/><polyline class="cls-8" points="244.08 0.5 228.36 0.5 111.27 0.5"/><polyline class="cls-8" points="0.5 0.5 16.22 0.5 32.68 0.5"/><line class="cls-8" x1="111.27" y1="0.5" x2="111.1" y2="0.5"/><line class="cls-8" x1="111.02" y1="0.5" x2="111.02" y2="0.5"/><line class="cls-8" x1="110.94" y1="0.5" x2="110.94" y2="0.5"/><polyline class="cls-8" points="110.85 0.5 110.61 0.5 110.52 0.5 110.44 0.5 110.19 0.5"/><line class="cls-8" x1="110.11" y1="0.5" x2="110.11" y2="0.5"/><line class="cls-8" x1="110.02" y1="0.5" x2="110.02" y2="0.5"/><line class="cls-8" x1="109.94" y1="0.5" x2="109.77" y2="0.5"/><line class="cls-8" x1="109.69" y1="0.5" x2="109.69" y2="0.5"/><line class="cls-8" x1="109.61" y1="0.5" x2="109.61" y2="0.5"/><polyline class="cls-8" points="109.52 0.5 109.27 0.5 109.19 0.5 109.11 0.5 108.86 0.5"/><line class="cls-8" x1="108.78" y1="0.5" x2="108.78" y2="0.5"/><line class="cls-8" x1="108.69" y1="0.5" x2="108.69" y2="0.5"/><polyline class="cls-8" points="108.61 0.5 108.36 0.5 108.28 0.5"/><line class="cls-8" x1="108.19" y1="0.5" x2="107.94" y2="0.5"/><line class="cls-8" x1="35.76" y1="0.5" x2="35.76" y2="0.5"/><line class="cls-8" x1="35.68" y1="0.5" x2="35.68" y2="0.5"/><line class="cls-8" x1="35.59" y1="0.5" x2="35.43" y2="0.5"/><line class="cls-8" x1="35.34" y1="0.5" x2="35.34" y2="0.5"/><line class="cls-8" x1="35.26" y1="0.5" x2="35.26" y2="0.5"/><line class="cls-8" x1="35.18" y1="0.5" x2="34.93" y2="0.5"/><polyline class="cls-8" points="34.84 0.5 34.76 0.5 34.51 0.5"/><line class="cls-8" x1="34.43" y1="0.5" x2="34.43" y2="0.5"/><line class="cls-8" x1="34.35" y1="0.5" x2="34.35" y2="0.5"/><polyline class="cls-8" points="34.26 0.5 34.01 0.5 33.93 0.5 33.85 0.5 33.6 0.5"/><line class="cls-8" x1="33.51" y1="0.5" x2="33.51" y2="0.5"/><line class="cls-8" x1="33.43" y1="0.5" x2="33.43" y2="0.5"/><line class="cls-8" x1="33.35" y1="0.5" x2="33.18" y2="0.5"/><line class="cls-8" x1="33.1" y1="0.5" x2="33.1" y2="0.5"/><line class="cls-8" x1="33.02" y1="0.5" x2="33.02" y2="0.5"/><line class="cls-8" x1="32.93" y1="0.5" x2="32.68" y2="0.5"/><path class="cls-8" d="M35.88,79.09A72.31,72.31,0,0,0,108.19,6.78"/><polyline class="cls-8" points="111.27 0.5 108.19 0.5 108.19 6.74 111.27 6.74 111.27 0.5"/><polyline class="cls-8" points="32.68 6.74 35.84 6.74 35.84 0.5 32.68 0.5 32.68 6.74"/><line class="cls-8" x1="35.84" y1="6.74" x2="35.84" y2="79.09"/><polyline class="cls-8" points="111.27 0.5 111.27 6.74 111.27 0.5"/><line class="cls-8" x1="111.27" y1="16.22" x2="111.27" y2="6.74"/><polyline class="cls-8" points="32.68 0.5 32.68 6.74 32.68 0.5"/><line class="cls-8" x1="32.68" y1="16.22" x2="32.68" y2="6.74"/><polyline class="cls-8" points="488.32 645.08 534.06 564.25 537.97 557.43"/><polyline class="cls-8" points="500.46 567.74 464.37 631.52 481.42 641.25"/><line class="cls-8" x1="488.99" y1="645.49" x2="539.05" y2="557.09"/><line class="cls-8" x1="779.22" y1="41.33" x2="898.05" y2="41.33"/><line class="cls-8" x1="779.97" y1="42.16" x2="898.05" y2="42.16"/><line class="cls-8" x1="898.05" y1="13.81" x2="751.69" y2="13.81"/><polyline class="cls-8" points="769.49 291.98 808.24 223.54 812.07 216.72"/><polyline class="cls-8" points="759.26 286.16 788.28 234.85 774.56 227.11 788.28 234.85 796.01 221.21 788.28 234.85"/><line class="cls-8" x1="774.56" y1="227.11" x2="745.54" y2="278.42"/><line class="cls-8" x1="759.26" y1="286.16" x2="745.54" y2="278.42"/><line class="cls-8" x1="770.15" y1="292.31" x2="813.15" y2="216.47"/><line class="cls-8" x1="504.95" y1="395.76" x2="616.14" y2="395.76"/><line class="cls-8" x1="505.78" y1="396.51" x2="616.14" y2="396.51"/><polyline class="cls-8" points="616.14 383.95 616.14 368.24 477.51 368.24"/><line class="cls-8" x1="779.22" y1="198.09" x2="779.22" y2="173.39"/><line class="cls-8" x1="779.22" y1="42.16" x2="771.32" y2="42.16"/><line class="cls-8" x1="779.22" y1="170.23" x2="771.32" y2="170.23"/><line class="cls-8" x1="779.97" y1="42.16" x2="779.22" y2="42.16"/><line class="cls-8" x1="779.97" y1="170.23" x2="779.22" y2="170.23"/><polyline class="cls-8" points="779.22 39 779.22 41.33 771.32 41.33 779.22 41.33"/><line class="cls-8" x1="779.97" y1="41.33" x2="779.97" y2="42.16"/><line class="cls-8" x1="771.32" y1="173.39" x2="771.32" y2="173.39"/><polyline class="cls-8" points="779.22 173.39 779.22 170.98 771.32 170.98 779.22 170.98"/><line class="cls-8" x1="779.97" y1="170.98" x2="779.97" y2="170.23"/><polyline class="cls-8" points="771.32 33.52 766.66 33.52 751.69 33.52"/><polyline class="cls-8" points="771.32 173.39 766.66 173.39 751.69 173.39"/><line class="cls-8" x1="751.69" y1="13.81" x2="751.69" y2="33.51"/><line class="cls-8" x1="751.69" y1="173.39" x2="751.69" y2="214.14"/><line class="cls-8" x1="779.97" y1="197.67" x2="779.97" y2="170.98"/><line class="cls-8" x1="779.97" y1="170.23" x2="779.97" y2="42.16"/><line class="cls-8" x1="751.69" y1="173.39" x2="751.69" y2="33.51"/><polyline class="cls-8" points="766.66 173.39 766.66 169.07 769.82 169.07 769.82 167.07 771.32 167.07 771.32 173.39"/><polyline class="cls-8" points="771.32 103.45 771.32 106.2 769.82 106.2 769.82 104.2 766.66 104.2 766.66 103.45"/><line class="cls-8" x1="765.08" y1="169.07" x2="732.65" y2="112.93"/><line class="cls-8" x1="771.32" y1="106.2" x2="771.32" y2="167.07"/><polyline class="cls-8" points="765.08 169.07 765.08 164.33 765.08 108.94"/><polyline class="cls-8" points="765.08 164.33 769.82 164.33 769.82 169.07 765.08 169.07"/><polyline class="cls-8" points="769.82 104.2 769.82 108.94 765.08 108.94 765.08 104.2 769.82 104.2"/><line class="cls-8" x1="769.82" y1="108.94" x2="769.82" y2="164.33"/><line class="cls-8" x1="765.08" y1="164.33" x2="765.08" y2="108.94"/><line class="cls-8" x1="767.41" y1="164.33" x2="767.41" y2="108.94"/><polyline class="cls-8" points="766.66 103.45 766.66 102.62 769.82 102.62 769.82 100.71 771.32 100.71 771.32 103.45"/><polyline class="cls-8" points="771.32 33.52 771.32 39.75 769.82 39.75 769.82 37.84 766.66 37.84 766.66 33.52"/><line class="cls-8" x1="765.08" y1="37.84" x2="732.65" y2="93.97"/><line class="cls-8" x1="771.32" y1="39.75" x2="771.32" y2="100.71"/><polyline class="cls-8" points="765.08 102.62 765.08 97.88 765.08 42.5"/><polyline class="cls-8" points="765.08 97.88 769.82 97.88 769.82 102.62 765.08 102.62"/><polyline class="cls-8" points="769.82 37.84 769.82 42.5 765.08 42.5 765.08 37.84 769.82 37.84"/><line class="cls-8" x1="769.82" y1="42.5" x2="769.82" y2="97.88"/><line class="cls-8" x1="765.08" y1="97.88" x2="765.08" y2="42.5"/><line class="cls-8" x1="767.41" y1="97.88" x2="767.41" y2="42.5"/><path class="cls-8" d="M765.12,104.28A64.8,64.8,0,0,0,732.71,113"/><path class="cls-8" d="M732.71,94a64.79,64.79,0,0,0,32.41,8.68"/><polyline class="cls-8" points="751.69 173.39 766.66 173.39 771.32 173.39 766.66 173.39"/><polyline class="cls-8" points="751.69 33.52 766.66 33.52 771.32 33.52 766.66 33.52"/><polyline class="cls-8" points="771.32 33.52 771.32 39 771.32 33.52"/><line class="cls-8" x1="779.97" y1="170.23" x2="779.22" y2="170.23"/><polyline class="cls-8" points="771.32 170.23 771.32 170.98 771.32 170.23"/><polyline class="cls-8" points="771.32 170.98 771.32 173.39 771.32 170.98"/><line class="cls-8" x1="779.97" y1="42.16" x2="779.22" y2="42.16"/><polyline class="cls-8" points="771.32 42.16 771.32 41.33 771.32 42.16"/><polyline class="cls-8" points="771.32 41.33 771.32 39 771.32 41.33"/><line class="cls-8" x1="779.22" y1="170.23" x2="771.32" y2="170.23"/><line class="cls-8" x1="779.22" y1="42.16" x2="771.32" y2="42.16"/><polyline class="cls-8" points="779.97 198.59 779.22 198.09 779.97 198.59"/><polyline class="cls-8" points="779.97 198.59 801.84 210.9 812.07 216.72 801.84 210.9"/><polyline class="cls-8" points="797.93 217.72 796.01 221.21 797.93 217.72"/><polyline class="cls-8" points="751.69 214.14 771.32 225.28 774.56 227.11"/><line class="cls-8" x1="812.48" y1="216.05" x2="779.97" y2="197.67"/><polyline class="cls-8" points="751.69 209.98 751.69 267.78 784.29 209.98 751.69 209.98"/><polyline class="cls-8" points="504.95 538.72 531.15 553.52 537.97 557.43 531.15 553.52"/><line class="cls-8" x1="477.51" y1="554.77" x2="500.46" y2="567.74"/><line class="cls-8" x1="538.3" y1="556.68" x2="505.78" y2="538.3"/><polyline class="cls-8" points="504.95 538.72 504.95 537.8 504.95 538.72"/><line class="cls-8" x1="504.95" y1="537.8" x2="504.95" y2="527.74"/><line class="cls-8" x1="504.95" y1="396.51" x2="497.14" y2="396.51"/><line class="cls-8" x1="504.95" y1="524.66" x2="497.14" y2="524.66"/><line class="cls-8" x1="505.78" y1="396.51" x2="504.95" y2="396.51"/><line class="cls-8" x1="505.78" y1="524.66" x2="504.95" y2="524.66"/><polyline class="cls-8" points="504.95 393.43 504.95 395.76 497.14 395.76 504.95 395.76"/><line class="cls-8" x1="505.78" y1="395.76" x2="505.78" y2="396.51"/><line class="cls-8" x1="497.14" y1="527.74" x2="497.14" y2="527.74"/><polyline class="cls-8" points="504.95 527.74 504.95 525.41 497.14 525.41 504.95 525.41"/><line class="cls-8" x1="505.78" y1="525.41" x2="505.78" y2="524.66"/><polyline class="cls-8" points="497.14 387.86 492.39 387.86 477.51 387.86"/><polyline class="cls-8" points="497.14 527.74 492.39 527.74 477.51 527.74"/><line class="cls-8" x1="477.51" y1="368.24" x2="477.51" y2="387.86"/><polyline class="cls-8" points="477.51 554.77 477.51 532.15 477.51 527.74"/><line class="cls-8" x1="505.78" y1="538.3" x2="505.78" y2="525.41"/><line class="cls-8" x1="505.78" y1="524.66" x2="505.78" y2="396.51"/><line class="cls-8" x1="477.51" y1="527.74" x2="477.51" y2="387.86"/><polyline class="cls-8" points="492.39 527.74 492.39 523.41 495.56 523.41 495.56 521.5 497.14 521.5 497.14 527.74"/><polyline class="cls-8" points="497.14 457.8 497.14 460.55 495.56 460.55 495.56 458.63 492.39 458.63 492.39 457.8"/><line class="cls-8" x1="490.82" y1="523.41" x2="458.38" y2="467.28"/><line class="cls-8" x1="497.14" y1="460.54" x2="497.14" y2="521.5"/><polyline class="cls-8" points="490.81 523.41 490.81 518.76 490.81 463.37"/><polyline class="cls-8" points="490.81 518.76 495.56 518.76 495.56 523.41 490.81 523.41"/><polyline class="cls-8" points="495.56 458.63 495.56 463.37 490.81 463.37 490.81 458.63 495.56 458.63"/><line class="cls-8" x1="495.56" y1="463.37" x2="495.56" y2="518.76"/><line class="cls-8" x1="490.82" y1="518.76" x2="490.82" y2="463.37"/><line class="cls-8" x1="493.23" y1="518.76" x2="493.23" y2="463.37"/><polyline class="cls-8" points="492.39 457.8 492.39 457.05 495.56 457.05 495.56 455.06 497.14 455.06 497.14 457.8"/><polyline class="cls-8" points="497.14 387.86 497.14 394.18 495.56 394.18 495.56 392.19 492.39 392.19 492.39 387.86"/><line class="cls-8" x1="490.82" y1="392.19" x2="458.38" y2="448.32"/><line class="cls-8" x1="497.14" y1="394.18" x2="497.14" y2="455.06"/><polyline class="cls-8" points="490.81 457.05 490.81 452.31 490.81 396.93"/><polyline class="cls-8" points="490.81 452.31 495.56 452.31 495.56 457.05 490.81 457.05"/><polyline class="cls-8" points="495.56 392.19 495.56 396.93 490.81 396.93 490.81 392.19 495.56 392.19"/><line class="cls-8" x1="495.56" y1="396.93" x2="495.56" y2="452.31"/><line class="cls-8" x1="490.82" y1="452.31" x2="490.82" y2="396.93"/><line class="cls-8" x1="493.23" y1="452.31" x2="493.23" y2="396.93"/><path class="cls-8" d="M490.86,458.63a64.8,64.8,0,0,0-32.41,8.69"/><path class="cls-8" d="M458.45,448.37a64.79,64.79,0,0,0,32.41,8.68"/><polyline class="cls-8" points="477.51 527.74 492.39 527.74 497.14 527.74 492.39 527.74"/><polyline class="cls-8" points="477.51 387.86 492.39 387.86 497.14 387.86 492.39 387.86"/><polyline class="cls-8" points="497.14 387.86 497.14 393.43 497.14 387.86"/><line class="cls-8" x1="505.78" y1="524.66" x2="504.95" y2="524.66"/><polyline class="cls-8" points="497.14 524.66 497.14 525.41 497.14 524.66"/><polyline class="cls-8" points="497.14 525.41 497.14 527.74 497.14 525.41"/><line class="cls-8" x1="505.78" y1="396.51" x2="504.95" y2="396.51"/><polyline class="cls-8" points="497.14 396.51 497.14 395.76 497.14 396.51"/><polyline class="cls-8" points="497.14 395.76 497.14 393.43 497.14 395.76"/><line class="cls-8" x1="504.95" y1="524.66" x2="497.14" y2="524.66"/><line class="cls-8" x1="504.95" y1="396.51" x2="497.14" y2="396.51"/><polyline class="cls-8" points="477.51 550.69 477.51 608.49 510.27 550.69 477.51 550.69"/><polyline class="cls-8" points="477.51 368.24 469.61 368.24 469.61 383.95 477.51 383.95 477.51 368.24"/><polyline class="cls-8" points="16.22 707.7 0.5 707.7 0.5 718.92"/><polyline class="cls-8" points="247.99 711.61 247.99 707.7 232.27 707.7 232.27 712.77"/><line class="cls-8" x1="388.69" y1="121.25" x2="348.61" y2="121.25"/><line class="cls-8" x1="343.87" y1="125.66" x2="343.87" y2="222.95"/><line class="cls-8" x1="393.35" y1="125.66" x2="393.35" y2="222.95"/><line class="cls-8" x1="339.21" y1="250.4" x2="339.21" y2="116.76"/><polyline class="cls-8" points="339.21 250.4 398.09 250.4 398.09 116.76 339.21 116.76"/><line class="cls-8" x1="385.2" y1="207.32" x2="385.2" y2="131.23"/><line class="cls-8" x1="382.87" y1="128.98" x2="354.43" y2="128.98"/><line class="cls-8" x1="352.1" y1="207.32" x2="352.1" y2="131.23"/><line class="cls-8" x1="370.07" y1="144.62" x2="372.98" y2="144.62"/><line class="cls-8" x1="368.65" y1="143.29" x2="368.65" y2="140.46"/><line class="cls-8" x1="367.16" y1="144.62" x2="364.24" y2="144.62"/><line class="cls-8" x1="368.65" y1="145.95" x2="368.65" y2="148.69"/><path class="cls-8" d="M344,223c0,12.93,11.08,23.41,24.74,23.41s24.74-10.48,24.74-23.41"/><path class="cls-8" d="M348.65,121.25a4.58,4.58,0,0,0-4.7,4.45"/><path class="cls-8" d="M393.43,125.7a4.57,4.57,0,0,0-4.69-4.45"/><path class="cls-8" d="M371.15,144.66a2.46,2.46,0,1,0-2.46,2.29,2.38,2.38,0,0,0,2.46-2.29"/><path class="cls-8" d="M352.1,207.36c0,8.61,7.43,15.59,16.59,15.59s16.59-7,16.59-15.59"/><path class="cls-8" d="M385.28,131.27a2.29,2.29,0,0,0-2.37-2.2"/><path class="cls-8" d="M354.47,129.07a2.29,2.29,0,0,0-2.37,2.2"/><path class="cls-8" d="M372,144.66a3.29,3.29,0,1,0-3.29,3.12,3.21,3.21,0,0,0,3.29-3.12"/><polyline class="cls-8" points="238.59 134.72 238.59 116.76 281 116.76 281 134.72"/><line class="cls-8" x1="266.53" y1="116.76" x2="253.14" y2="116.76"/><line class="cls-8" x1="263.37" y1="131.15" x2="261.13" y2="131.15"/><line class="cls-8" x1="259.8" y1="127.57" x2="259.8" y2="129.9"/><line class="cls-8" x1="258.46" y1="131.15" x2="256.22" y2="131.15"/><line class="cls-8" x1="259.8" y1="132.48" x2="259.8" y2="134.72"/><path class="cls-8" d="M248.58,126.93a19,19,0,0,0-7.34,8.95"/><path class="cls-8" d="M259.86,124.3A18.91,18.91,0,0,0,248.58,127"/><path class="cls-8" d="M278.43,135.88a19,19,0,0,0-7.33-8.95"/><path class="cls-8" d="M271.09,127a18.9,18.9,0,0,0-11.27-2.66"/><path class="cls-8" d="M245.48,145.43a35,35,0,0,0,12.88,3.5"/><path class="cls-8" d="M277.05,143.66a10.73,10.73,0,0,0,4-8.86"/><path class="cls-8" d="M258.35,149.06a21,21,0,0,0,3,0"/><path class="cls-8" d="M271.7,127.65a77.45,77.45,0,0,0-23.74,0"/><path class="cls-8" d="M279.92,137.55a26.72,26.72,0,0,0-6-17.33"/><path class="cls-8" d="M272,119a52.76,52.76,0,0,0-12.14-1.32"/><path class="cls-8" d="M274,120.22a3.52,3.52,0,0,0-2-1.21"/><path class="cls-8" d="M271.82,120.2a90.54,90.54,0,0,0-12-.86"/><path class="cls-8" d="M280,137.57a24,24,0,0,0-6-16.18"/><path class="cls-8" d="M274,121.37a3.52,3.52,0,0,0-2.16-1.17"/><path class="cls-8" d="M245.69,121.37a24,24,0,0,0-6,16.17"/><path class="cls-8" d="M245.79,120.2a26.66,26.66,0,0,0-6,17.31"/><path class="cls-8" d="M259.86,119.34a90.25,90.25,0,0,0-12,.84"/><path class="cls-8" d="M259.89,117.68A52.79,52.79,0,0,0,247.75,119"/><path class="cls-8" d="M247.88,120.2a3.58,3.58,0,0,0-2.17,1.16"/><path class="cls-8" d="M247.75,119a3.56,3.56,0,0,0-2,1.2"/><path class="cls-8" d="M238.68,134.8a10.78,10.78,0,0,0,4,8.86"/><path class="cls-8" d="M242.63,143.69a16.75,16.75,0,0,0,2.82,1.82"/><path class="cls-8" d="M274.22,145.51a16.84,16.84,0,0,0,2.83-1.82"/><path class="cls-8" d="M261.32,148.93a35,35,0,0,0,12.87-3.5"/><path class="cls-8" d="M254,146a24.84,24.84,0,0,0,11.69,0"/><path class="cls-8" d="M241.27,135.91a6.37,6.37,0,0,0,2.18,5.25"/><path class="cls-8" d="M243.45,141.08A22.91,22.91,0,0,0,254,145.93"/><path class="cls-8" d="M276.3,141.16a6.35,6.35,0,0,0,2.19-5.25"/><path class="cls-8" d="M265.66,145.93a22.91,22.91,0,0,0,10.57-4.85"/><path class="cls-8" d="M259.84,134a2.79,2.79,0,1,0-2.79-2.78,2.77,2.77,0,0,0,2.79,2.78"/><path class="cls-8" d="M259.84,133.14a2,2,0,1,0-2-1.95,1.95,1.95,0,0,0,2,1.95"/><polyline class="cls-8" points="453.89 141.96 410.65 141.96 410.65 98.71 453.89 98.71 453.89 141.96"/><polyline class="cls-8" points="449.98 102.62 449.98 137.97 418.55 137.97 418.55 102.62 449.98 102.62"/><line class="cls-8" x1="210.73" y1="152.43" x2="210.73" y2="180.21"/><polyline class="cls-8" points="211.89 150.77 211.89 140.38 182.04 140.38"/><line class="cls-8" x1="196.93" y1="157.34" x2="185.87" y2="157.34"/><polyline class="cls-8" points="210.73 180.13 207.99 157.34 196.93 157.34"/><line class="cls-8" x1="183.2" y1="180.13" x2="185.87" y2="157.34"/><line class="cls-8" x1="209.98" y1="180.13" x2="207.32" y2="157.34"/><line class="cls-8" x1="183.87" y1="180.13" x2="186.61" y2="157.34"/><line class="cls-8" x1="183.2" y1="152.43" x2="183.2" y2="180.21"/><line class="cls-8" x1="182.04" y1="140.38" x2="182.04" y2="150.77"/><polyline class="cls-8" points="210.73 180.13 210.31 183.2 209.15 186.12 207.24 188.69 204.74 190.69 201.83 192.19 198.59 192.93 195.26 192.93 192.1 192.19 189.11 190.69 186.61 188.69 184.78 186.12 183.62 183.2 183.2 180.13"/><polyline class="cls-8" points="209.98 180.13 209.65 183.04 208.49 185.78 206.74 188.19 204.33 190.11 201.58 191.52 198.51 192.19 195.35 192.19 192.35 191.52 189.52 190.11 187.2 188.19 185.37 185.78 184.28 183.04 183.87 180.13"/><path class="cls-8" d="M183.59,152.56a127.42,127.42,0,0,0,26.77,0"/><path class="cls-8" d="M210.38,152.59a1.76,1.76,0,0,0,1.51-1.78"/><path class="cls-8" d="M182.12,150.81a1.76,1.76,0,0,0,1.54,1.78"/><path class="cls-8" d="M197,148.44a1.46,1.46,0,1,0-1.46-1.45,1.45,1.45,0,0,0,1.46,1.45"/><polyline class="cls-8" points="144.28 153.6 144.28 139.54 177.3 139.54 177.3 153.6"/><line class="cls-8" x1="165.99" y1="139.54" x2="155.59" y2="139.54"/><line class="cls-8" x1="163.58" y1="150.77" x2="161.83" y2="150.77"/><line class="cls-8" x1="160.83" y1="148.03" x2="160.83" y2="149.77"/><line class="cls-8" x1="159.75" y1="150.77" x2="158.01" y2="150.77"/><line class="cls-8" x1="160.83" y1="151.85" x2="160.83" y2="153.6"/><path class="cls-8" d="M152.08,147.48a14.77,14.77,0,0,0-5.69,7"/><path class="cls-8" d="M160.81,145.41a14.69,14.69,0,0,0-8.75,2.07"/><path class="cls-8" d="M175.28,154.46a14.74,14.74,0,0,0-5.7-7"/><path class="cls-8" d="M169.61,147.48a14.69,14.69,0,0,0-8.75-2.07"/><path class="cls-8" d="M149.69,161.93a27.21,27.21,0,0,0,10,2.74"/><path class="cls-8" d="M174.17,160.56a8.46,8.46,0,0,0,3.12-6.95"/><path class="cls-8" d="M159.72,164.78a14.85,14.85,0,0,0,2.31,0"/><path class="cls-8" d="M170.1,148a60.14,60.14,0,0,0-18.46,0"/><path class="cls-8" d="M176.46,155.83a20.81,20.81,0,0,0-4.68-13.54"/><path class="cls-8" d="M170.25,141.32a41,41,0,0,0-9.44-1"/><path class="cls-8" d="M171.85,142.23a2.78,2.78,0,0,0-1.54-.95"/><path class="cls-8" d="M170.16,142.3a70.58,70.58,0,0,0-9.3-.68"/><path class="cls-8" d="M176.55,155.8a18.82,18.82,0,0,0-4.66-12.65"/><path class="cls-8" d="M171.86,143.15a2.76,2.76,0,0,0-1.7-.92"/><path class="cls-8" d="M149.88,143.13a18.82,18.82,0,0,0-4.68,12.64"/><path class="cls-8" d="M149.9,142.27a20.86,20.86,0,0,0-4.7,13.53"/><path class="cls-8" d="M160.82,141.62a72.16,72.16,0,0,0-9.29.66"/><path class="cls-8" d="M160.83,140.29a41.56,41.56,0,0,0-9.44,1"/><path class="cls-8" d="M151.51,142.23a2.76,2.76,0,0,0-1.7.92"/><path class="cls-8" d="M151.37,141.28a2.78,2.78,0,0,0-1.55.95"/><path class="cls-8" d="M144.38,153.61a8.46,8.46,0,0,0,3.12,6.95"/><path class="cls-8" d="M147.5,160.56a13.33,13.33,0,0,0,2.2,1.42"/><path class="cls-8" d="M172.05,162a13.33,13.33,0,0,0,2.2-1.42"/><path class="cls-8" d="M162,164.67a27.21,27.21,0,0,0,10-2.74"/><path class="cls-8" d="M156.34,162.37a19.31,19.31,0,0,0,9.07,0"/><path class="cls-8" d="M146.38,154.47a4.93,4.93,0,0,0,1.7,4.08"/><path class="cls-8" d="M148,158.59a17.87,17.87,0,0,0,8.24,3.8"/><path class="cls-8" d="M173.59,158.55a4.93,4.93,0,0,0,1.7-4.08"/><path class="cls-8" d="M165.4,162.39a17.91,17.91,0,0,0,8.24-3.8"/><path class="cls-8" d="M160.88,152.93a2.12,2.12,0,1,0-2.13-2.12,2.12,2.12,0,0,0,2.13,2.12"/><path class="cls-8" d="M160.88,152.35a1.54,1.54,0,1,0-1.54-1.54,1.53,1.53,0,0,0,1.54,1.54"/><polyline class="cls-8" points="122.08 745.95 121.75 745.87 113.02 788.2 113.35 788.28 122.08 745.95"/><polyline class="cls-8" points="111.52 789.53 111.6 789.11 40.83 774.56 40.75 774.98 111.52 789.53"/><polyline class="cls-8" points="39.5 773.06 39.92 773.15 48.57 730.82 48.23 730.73 39.5 773.06"/><polyline class="cls-8" points="122.91 744.12 120.92 743.71 120.58 745.62 122.5 746.04 122.91 744.12"/><polyline class="cls-8" points="113.77 788.36 111.85 787.95 111.44 789.94 113.35 790.28 113.77 788.36"/><polyline class="cls-8" points="40.67 775.31 41 773.39 39.09 773.06 38.75 774.98 40.67 775.31"/><polyline class="cls-8" points="47.82 730.65 49.73 731.07 50.15 729.15 48.23 728.74 47.82 730.65"/><line class="cls-8" x1="120.75" y1="744.71" x2="111.85" y2="787.95"/><line class="cls-8" x1="113.35" y1="790.28" x2="122.66" y2="745.12"/><line class="cls-8" x1="111.85" y1="787.95" x2="41" y2="773.4"/><line class="cls-8" x1="38.75" y1="774.98" x2="113.35" y2="790.28"/><line class="cls-8" x1="41" y1="773.4" x2="49.98" y2="730.15"/><line class="cls-8" x1="47.98" y1="729.74" x2="38.75" y2="774.98"/><polyline class="cls-8" points="122.66 745.12 122.91 744.12 120.92 743.71 120.75 744.71"/><polyline class="cls-8" points="49.98 730.15 50.15 729.15 48.23 728.74 47.98 729.74"/><polyline class="cls-8" points="38.75 774.98 113.35 790.28 122.66 745.12 120.75 744.71 111.85 787.95 41 773.39 49.98 730.15 47.98 729.74 38.75 774.98"/><polyline class="cls-8" points="45.41 761.92 112.35 775.64 117.42 751.02 50.48 737.22 45.41 761.92"/><polyline class="cls-8" points="45.91 759.42 112.85 773.23 117.42 751.02 50.48 737.22 45.91 759.42"/><polyline class="cls-8" points="276.34 108.11 292.06 108.11 292.06 114.43 276.34 114.43 276.34 108.11"/><polyline class="cls-8" points="400.5 126.24 400.5 114.43 406.74 114.43 406.74 126.24 400.5 126.24"/><polyline class="cls-8" points="259.21 114.43 247.4 114.43 247.4 108.11 259.21 108.11 259.21 114.43"/><polyline class="cls-8" points="228.36 153.68 228.36 141.96 234.68 141.96 234.68 153.68 228.36 153.68"/><polyline class="cls-8" points="352.35 114.43 340.54 114.43 340.54 108.11 352.35 108.11 352.35 114.43"/><polyline class="cls-8" points="234.68 137.97 234.68 153.68 228.36 153.68 228.36 137.97 234.68 137.97"/><polyline class="cls-8" points="406.74 57.05 406.74 72.77 400.5 72.77 400.5 57.05 406.74 57.05"/><polyline class="cls-8" points="232.27 629.11 247.99 629.11 247.99 707.7 232.27 707.7 232.27 629.11"/><polyline class="cls-8" points="660.55 29.52 660.55 13.81 739.13 13.81 739.13 29.52 660.55 29.52"/><polyline class="cls-8" points="464.37 631.52 478.01 639.34 439.34 707.7 425.62 699.97 464.37 631.52"/><polyline class="cls-8" points="898.05 13.81 908.2 13.81 908.2 42.5"/><polyline class="cls-8" points="784.29 209.98 797.93 217.72 759.26 286.16 745.54 278.42 784.29 209.98"/><polyline class="cls-8" points="391.02 29.52 391.02 13.81 469.61 13.81 469.61 29.52 391.02 29.52"/><polyline class="cls-8" points="616.14 383.95 616.14 368.24 694.73 368.24 694.73 383.95 616.14 383.95"/><polyline class="cls-8" points="0.5 0.5 16.22 0.5 16.22 79.09 0.5 79.09 0.5 0.5"/><polyline class="cls-8" points="391.02 383.95 391.02 368.24 469.61 368.24 469.61 383.95 391.02 383.95"/><polyline class="cls-8" points="0.5 629.11 16.22 629.11 16.22 707.7 0.5 707.7 0.5 629.11"/><polyline class="cls-8" points="0.5 291.23 16.22 291.23 16.22 369.82 0.5 369.82 0.5 291.23"/><polyline class="cls-8" points="238.59 213.39 238.59 260.54 273.93 260.54 273.93 213.39 238.59 213.39"/></svg>