<svg id="_240" data-name="240" xmlns="http://www.w3.org/2000/svg" viewBox="0 0 327.49 723.46"><defs><style>.cls-1{isolation:isolate;font-size:12px;fill:#969696;}.cls-1,.cls-6,.cls-8{font-family:PTSans-Regular, PT Sans;}.cls-2,.cls-3,.cls-4,.cls-5,.cls-7{fill:none;stroke-linecap:round;stroke-linejoin:round;}.cls-2{stroke:#969696;stroke-width:0.75px;}.cls-3{stroke:#7d7d7d;stroke-dasharray:4 4;}.cls-3,.cls-4,.cls-5{stroke-width:1.02px;}.cls-4{stroke:#356e5f;}.cls-5,.cls-7{stroke:#000;}.cls-6{font-size:28px;}.cls-7{stroke-width:0.5px;}.cls-8{font-size:24px;}</style></defs><title>9floor_240flat</title><text class="cls-1" transform="translate(158.18 10.2)">двор</text><line class="cls-2" x1="147.42" y1="1.4" x2="147.42" y2="10.2"/><polyline class="cls-2" points="150.92 4.9 147.42 1.4 143.92 4.9"/><polyline class="cls-3" points="174.94 361.21 17.67 361.21 17.67 464.29 174.94 464.29 174.94 361.21"/><line class="cls-4" x1="23.01" y1="108.15" x2="23.01" y2="108.15"/><line class="cls-5" x1="1.89" y1="113.74" x2="4.85" y2="108.59"/><line class="cls-5" x1="4.85" y1="117.14" x2="9.81" y2="108.59"/><line class="cls-5" x1="9.81" y1="117.14" x2="14.78" y2="108.59"/><line class="cls-5" x1="14.78" y1="117.14" x2="19.74" y2="108.59"/><line class="cls-5" x1="19.74" y1="117.14" x2="23.45" y2="110.79"/><line class="cls-5" x1="7.99" y1="117.14" x2="3.02" y2="108.59"/><line class="cls-5" x1="12.95" y1="117.14" x2="7.99" y2="108.59"/><line class="cls-5" x1="17.92" y1="117.14" x2="12.95" y2="108.59"/><line class="cls-5" x1="22.89" y1="117.14" x2="17.92" y2="108.59"/><line class="cls-5" x1="23.26" y1="109.22" x2="22.89" y2="108.59"/><line class="cls-5" x1="17.67" y1="135.17" x2="25.15" y2="127.69"/><line class="cls-5" x1="17.67" y1="123.04" x2="23.51" y2="117.14"/><line class="cls-5" x1="23.2" y1="108.59" x2="0.51" y2="108.59"/><line class="cls-5" x1="24.08" y1="117.14" x2="17.67" y2="117.14"/><line class="cls-5" x1="23.14" y1="107.71" x2="0.51" y2="107.71"/><line class="cls-5" x1="17.67" y1="138.63" x2="26.28" y2="138.63"/><line class="cls-4" x1="303.79" y1="108.02" x2="303.79" y2="108.02"/><line class="cls-5" x1="276.57" y1="110.54" x2="277.71" y2="108.59"/><line class="cls-5" x1="277.71" y1="117.14" x2="282.67" y2="108.59"/><line class="cls-5" x1="282.67" y1="117.14" x2="287.64" y2="108.59"/><line class="cls-5" x1="287.64" y1="117.14" x2="292.6" y2="108.59"/><line class="cls-5" x1="292.6" y1="117.14" x2="297.57" y2="108.59"/><line class="cls-5" x1="297.57" y1="117.14" x2="302.53" y2="108.59"/><line class="cls-5" x1="302.53" y1="117.14" x2="307.5" y2="108.59"/><line class="cls-5" x1="307.5" y1="117.14" x2="309.83" y2="113.11"/><line class="cls-5" x1="309.95" y1="112.86" x2="312.47" y2="108.59"/><line class="cls-5" x1="314.92" y1="112.86" x2="317.43" y2="108.59"/><line class="cls-5" x1="319.88" y1="112.86" x2="322.4" y2="108.59"/><line class="cls-5" x1="280.85" y1="117.14" x2="276.64" y2="109.84"/><line class="cls-5" x1="285.81" y1="117.14" x2="280.85" y2="108.59"/><line class="cls-5" x1="290.78" y1="117.14" x2="285.81" y2="108.59"/><line class="cls-5" x1="295.75" y1="117.14" x2="290.78" y2="108.59"/><line class="cls-5" x1="300.71" y1="117.14" x2="295.75" y2="108.59"/><line class="cls-5" x1="305.68" y1="117.14" x2="300.71" y2="108.59"/><line class="cls-5" x1="309.83" y1="115.75" x2="305.68" y2="108.59"/><line class="cls-5" x1="313.09" y1="112.86" x2="310.64" y2="108.59"/><line class="cls-5" x1="318.06" y1="112.86" x2="315.55" y2="108.59"/><line class="cls-5" x1="323.03" y1="112.86" x2="320.51" y2="108.59"/><line class="cls-5" x1="275.57" y1="120.28" x2="278.71" y2="117.14"/><line class="cls-5" x1="284.05" y1="136.12" x2="293.17" y2="127"/><line class="cls-5" x1="296.25" y1="123.92" x2="303.04" y2="117.14"/><line class="cls-5" x1="308.38" y1="136.12" x2="309.83" y2="134.67"/><line class="cls-5" x1="274.19" y1="133.85" x2="281.04" y2="127"/><line class="cls-5" x1="284.05" y1="123.92" x2="290.91" y2="117.14"/><line class="cls-5" x1="296.25" y1="136.12" x2="305.36" y2="127"/><line class="cls-5" x1="308.38" y1="123.92" x2="309.83" y2="122.54"/><line class="cls-5" x1="323.97" y1="108.59" x2="276.76" y2="108.59"/><line class="cls-5" x1="309.83" y1="117.14" x2="275.88" y2="117.14"/><line class="cls-5" x1="326.99" y1="107.77" x2="276.89" y2="107.71"/><line class="cls-5" x1="273.68" y1="138.63" x2="309.83" y2="138.63"/><line class="cls-5" x1="326.99" y1="138.63" x2="326.99" y2="138.63"/><line class="cls-4" x1="59.34" y1="100.6" x2="59.34" y2="100.6"/><line class="cls-4" x1="63.11" y1="99.66" x2="63.11" y2="99.66"/><line class="cls-5" x1="23.45" y1="110.79" x2="24.9" y2="108.21"/><line class="cls-5" x1="24.83" y1="117.01" x2="30.55" y2="107.02"/><line class="cls-5" x1="30.43" y1="115.82" x2="36.21" y2="105.88"/><line class="cls-5" x1="36.09" y1="114.68" x2="41.81" y2="104.75"/><line class="cls-5" x1="41.68" y1="113.55" x2="47.46" y2="103.56"/><line class="cls-5" x1="47.34" y1="112.36" x2="53.06" y2="102.43"/><line class="cls-5" x1="52.93" y1="111.23" x2="58.71" y2="101.23"/><line class="cls-5" x1="58.59" y1="110.03" x2="64.31" y2="100.1"/><line class="cls-5" x1="64.18" y1="108.9" x2="66.57" y2="104.75"/><line class="cls-5" x1="27.47" y1="116.44" x2="23.26" y2="109.22"/><line class="cls-5" x1="31.87" y1="115.56" x2="27.35" y2="107.71"/><line class="cls-5" x1="36.34" y1="114.62" x2="31.81" y2="106.76"/><line class="cls-5" x1="40.74" y1="113.74" x2="36.21" y2="105.88"/><line class="cls-5" x1="45.2" y1="112.8" x2="40.67" y2="104.94"/><line class="cls-5" x1="49.6" y1="111.92" x2="45.07" y2="104.06"/><line class="cls-5" x1="54.06" y1="110.98" x2="49.54" y2="103.12"/><line class="cls-5" x1="58.46" y1="110.1" x2="53.94" y2="102.24"/><line class="cls-5" x1="62.93" y1="109.15" x2="58.4" y2="101.3"/><line class="cls-5" x1="67.26" y1="108.15" x2="62.8" y2="100.42"/><line class="cls-5" x1="25.15" y1="127.69" x2="25.84" y2="127"/><line class="cls-5" x1="28.92" y1="123.92" x2="38.03" y2="114.81"/><line class="cls-5" x1="41.68" y1="135.49" x2="50.17" y2="127"/><line class="cls-5" x1="53.18" y1="123.92" x2="62.3" y2="114.81"/><line class="cls-5" x1="65.38" y1="111.79" x2="69.27" y2="107.83"/><line class="cls-5" x1="72.29" y1="129.14" x2="74.49" y2="127"/><line class="cls-5" x1="28.92" y1="136.12" x2="38.03" y2="127"/><line class="cls-5" x1="41.05" y1="123.92" x2="50.17" y2="114.81"/><line class="cls-5" x1="53.18" y1="111.79" x2="54" y2="110.98"/><line class="cls-5" x1="56.95" y1="132.28" x2="62.3" y2="127"/><line class="cls-5" x1="65.38" y1="123.92" x2="74.49" y2="114.81"/><line class="cls-5" x1="66.57" y1="104.75" x2="69.96" y2="98.91"/><line class="cls-5" x1="69.84" y1="107.71" x2="74.36" y2="99.91"/><line class="cls-5" x1="75.5" y1="106.58" x2="75.68" y2="106.26"/><line class="cls-5" x1="67.32" y1="108.27" x2="67.26" y2="108.15"/><line class="cls-5" x1="71.79" y1="107.33" x2="67.26" y2="99.47"/><line class="cls-5" x1="75.43" y1="105.07" x2="71.66" y2="98.59"/><line class="cls-5" x1="65.57" y1="99.85" x2="23.2" y2="108.59"/><line class="cls-5" x1="67.32" y1="108.27" x2="24.08" y2="117.14"/><line class="cls-5" x1="74.87" y1="97.96" x2="76.57" y2="106.32"/><line class="cls-5" x1="73.23" y1="107.02" x2="75.75" y2="106.51"/><line class="cls-5" x1="75.75" y1="106.51" x2="76.57" y2="106.32"/><line class="cls-5" x1="74.68" y1="97.08" x2="74.87" y2="97.96"/><line class="cls-5" x1="73.23" y1="107.02" x2="73.23" y2="107.02"/><line class="cls-5" x1="67.32" y1="108.27" x2="73.23" y2="107.02"/><line class="cls-5" x1="67.32" y1="108.27" x2="67.32" y2="108.27"/><polyline class="cls-5" points="65.56 99.85 73.99 98.09 75.75 106.51 73.99 98.09"/><line class="cls-5" x1="73.8" y1="97.27" x2="74.68" y2="97.08"/><polyline class="cls-5" points="73.23 107.02 74.24 112.11 77.51 128.07 26.28 138.63"/><line class="cls-5" x1="73.8" y1="97.27" x2="23.14" y2="107.71"/><line class="cls-5" x1="149.98" y1="81.62" x2="74.68" y2="97.08"/><line class="cls-5" x1="149.98" y1="113.18" x2="77.51" y2="128.07"/><polyline class="cls-5" points="149.98 96.52 145.39 97.46 144.64 94.07 142.56 94.51 142.19 92.87 148.98 91.43 149.98 91.24"/><polyline class="cls-5" points="73.23 107.02 79.96 105.63 80.27 107.33 78.2 107.77 78.89 111.16 74.24 112.11"/><line class="cls-5" x1="79.96" y1="105.63" x2="142.19" y2="92.87"/><polyline class="cls-5" points="145.71 99.16 140.68 100.16 84.3 111.79"/><polyline class="cls-5" points="140.68 100.16 139.61 95.14 144.64 94.07 145.71 99.16"/><polyline class="cls-5" points="78.2 107.77 83.23 106.76 84.3 111.79 79.2 112.8 78.2 107.77"/><line class="cls-5" x1="83.23" y1="106.76" x2="139.61" y2="95.14"/><line class="cls-5" x1="140.68" y1="100.16" x2="84.3" y2="111.79"/><line class="cls-5" x1="140.11" y1="97.65" x2="83.73" y2="109.28"/><line class="cls-5" x1="148.98" y1="91.43" x2="149.98" y2="96.52"/><polyline class="cls-5" points="77.51 128.07 74.24 112.11 73.23 107.02 74.24 112.11"/><line class="cls-5" x1="74.68" y1="97.08" x2="74.87" y2="97.96"/><polyline class="cls-5" points="76.56 106.32 75.75 106.51 76.56 106.32"/><polyline class="cls-5" points="75.75 106.51 73.23 107.02 75.75 106.51"/><line class="cls-5" x1="74.87" y1="97.96" x2="76.57" y2="106.32"/><line class="cls-4" x1="273.05" y1="107.02" x2="273.05" y2="107.02"/><line class="cls-5" x1="271.92" y1="123.92" x2="275.57" y2="120.28"/><line class="cls-5" x1="271.92" y1="136.12" x2="274.19" y2="133.85"/><line class="cls-4" x1="270.1" y1="114.24" x2="270.1" y2="114.24"/><line class="cls-5" x1="271.67" y1="110.41" x2="273.18" y2="107.83"/><line class="cls-5" x1="273.12" y1="116.57" x2="277.64" y2="108.71"/><line class="cls-5" x1="277.52" y1="117.51" x2="279.84" y2="113.49"/><line class="cls-5" x1="275.88" y1="117.14" x2="271.8" y2="110.03"/><line class="cls-5" x1="279.53" y1="114.87" x2="275.76" y2="108.34"/><line class="cls-5" x1="271.42" y1="107.46" x2="269.72" y2="115.88"/><line class="cls-5" x1="273.05" y1="116.57" x2="270.54" y2="116.07"/><line class="cls-5" x1="270.54" y1="116.07" x2="269.72" y2="115.88"/><line class="cls-5" x1="271.61" y1="106.64" x2="271.42" y2="107.46"/><line class="cls-5" x1="273.05" y1="116.57" x2="273.05" y2="116.57"/><line class="cls-5" x1="278.96" y1="117.76" x2="273.05" y2="116.57"/><line class="cls-5" x1="278.96" y1="117.76" x2="278.96" y2="117.76"/><polyline class="cls-5" points="280.66 109.34 272.3 107.64 270.54 116.07 272.3 107.64"/><line class="cls-5" x1="272.43" y1="106.76" x2="271.61" y2="106.64"/><polyline class="cls-5" points="273.06 116.57 272.05 121.6 268.72 137.63 273.68 138.63"/><line class="cls-5" x1="276.89" y1="107.71" x2="272.43" y2="106.76"/><line class="cls-5" x1="149.98" y1="81.62" x2="271.61" y2="106.64"/><line class="cls-5" x1="149.98" y1="113.18" x2="268.72" y2="137.63"/><polyline class="cls-5" points="149.98 96.52 154.63 97.46 155.32 94.07 157.4 94.51 157.78 92.87 151.05 91.43 149.98 91.24"/><polyline class="cls-5" points="222.58 106.2 219.19 105.51 218.87 107.14 220.95 107.58 220.25 110.97 221.51 111.23"/><line class="cls-5" x1="219.19" y1="105.51" x2="157.78" y2="92.87"/><polyline class="cls-5" points="154.26 99.16 159.35 100.16 214.85 111.6"/><polyline class="cls-5" points="159.35 100.16 160.35 95.14 155.32 94.07 154.26 99.16"/><polyline class="cls-5" points="220.95 107.58 215.92 106.58 214.85 111.6 219.94 112.67 220.95 107.58"/><line class="cls-5" x1="215.92" y1="106.58" x2="160.35" y2="95.14"/><line class="cls-5" x1="159.35" y1="100.16" x2="214.85" y2="111.6"/><line class="cls-5" x1="159.85" y1="97.65" x2="215.42" y2="109.09"/><line class="cls-5" x1="151.05" y1="91.43" x2="149.98" y2="96.52"/><polyline class="cls-5" points="221.51 111.23 222.77 111.48 223.46 108.15 225.6 108.52 225.91 106.89 222.58 106.2"/><polyline class="cls-5" points="273.06 116.57 266.33 115.19 266.01 116.88 268.09 117.32 267.4 120.66 272.05 121.6"/><line class="cls-5" x1="266.33" y1="115.19" x2="225.91" y2="106.89"/><polyline class="cls-5" points="222.46 113.17 227.48 114.18 261.99 121.28"/><polyline class="cls-5" points="227.48 114.18 228.55 109.15 223.46 108.15 222.46 113.17"/><polyline class="cls-5" points="268.09 117.32 263.06 116.25 261.99 121.28 267.02 122.35 268.09 117.32"/><line class="cls-5" x1="263.06" y1="116.26" x2="228.55" y2="109.15"/><line class="cls-5" x1="227.48" y1="114.18" x2="261.99" y2="121.28"/><line class="cls-5" x1="227.99" y1="111.67" x2="262.5" y2="118.77"/><polyline class="cls-5" points="268.72 137.63 272.05 121.6 273.06 116.57 272.05 121.6"/><line class="cls-5" x1="271.61" y1="106.64" x2="271.42" y2="107.46"/><polyline class="cls-5" points="269.72 115.88 270.54 116.07 269.72 115.88"/><polyline class="cls-5" points="270.54 116.07 273.06 116.57 270.54 116.07"/><line class="cls-5" x1="271.42" y1="107.46" x2="269.72" y2="115.88"/><line class="cls-5" x1="324.85" y1="112.86" x2="326.8" y2="109.5"/><line class="cls-5" x1="326.99" y1="689.38" x2="326.99" y2="689.38"/><line class="cls-5" x1="326.99" y1="665.06" x2="326.99" y2="665.06"/><line class="cls-5" x1="323.21" y1="637.02" x2="319.76" y2="633.57"/><line class="cls-5" x1="317.49" y1="631.3" x2="310.64" y2="624.45"/><line class="cls-5" x1="326.99" y1="616.47" x2="322.84" y2="612.32"/><line class="cls-5" x1="320.51" y1="609.99" x2="313.72" y2="603.21"/><line class="cls-5" x1="311.4" y1="600.88" x2="309.83" y2="599.31"/><line class="cls-5" x1="326.99" y1="592.14" x2="325.85" y2="591.01"/><line class="cls-5" x1="323.59" y1="588.75" x2="316.74" y2="581.9"/><line class="cls-5" x1="314.48" y1="579.63" x2="309.83" y2="574.98"/><line class="cls-5" x1="326.61" y1="567.5" x2="319.76" y2="560.65"/><line class="cls-5" x1="317.49" y1="558.39" x2="310.64" y2="551.54"/><line class="cls-5" x1="326.99" y1="543.55" x2="322.84" y2="539.41"/><line class="cls-5" x1="320.51" y1="537.08" x2="313.72" y2="530.29"/><line class="cls-5" x1="311.4" y1="527.97" x2="309.83" y2="526.39"/><line class="cls-5" x1="326.99" y1="519.23" x2="325.85" y2="518.1"/><line class="cls-5" x1="326.99" y1="701.51" x2="326.99" y2="701.51"/><line class="cls-5" x1="326.99" y1="677.25" x2="326.99" y2="677.25"/><line class="cls-5" x1="311.08" y1="637.02" x2="309.83" y2="635.77"/><line class="cls-5" x1="326.99" y1="628.6" x2="321.27" y2="622.94"/><line class="cls-5" x1="319" y1="620.62" x2="312.21" y2="613.83"/><line class="cls-5" x1="309.89" y1="611.5" x2="309.83" y2="611.44"/><line class="cls-5" x1="326.99" y1="604.34" x2="324.35" y2="601.63"/><line class="cls-5" x1="322.08" y1="599.37" x2="315.23" y2="592.52"/><line class="cls-5" x1="312.97" y1="590.26" x2="309.83" y2="587.11"/><line class="cls-5" x1="325.1" y1="578.13" x2="318.25" y2="571.27"/><line class="cls-5" x1="315.99" y1="569.01" x2="309.83" y2="562.85"/><line class="cls-5" x1="326.99" y1="555.69" x2="321.27" y2="550.03"/><line class="cls-5" x1="319" y1="547.7" x2="312.21" y2="540.91"/><line class="cls-5" x1="309.89" y1="538.59" x2="309.83" y2="538.53"/><line class="cls-5" x1="326.99" y1="531.42" x2="324.35" y2="528.72"/><line class="cls-5" x1="322.08" y1="526.46" x2="315.23" y2="519.61"/><line class="cls-5" x1="312.97" y1="517.34" x2="312.28" y2="516.71"/><line class="cls-5" x1="317.56" y1="509.8" x2="316.74" y2="508.98"/><line class="cls-5" x1="314.48" y1="506.72" x2="309.83" y2="502.07"/><line class="cls-5" x1="326.61" y1="494.59" x2="322.96" y2="490.94"/><line class="cls-5" x1="325.1" y1="505.21" x2="318.25" y2="498.36"/><line class="cls-5" x1="315.99" y1="496.1" x2="310.83" y2="490.94"/><line class="cls-5" x1="326.99" y1="397.73" x2="322.84" y2="393.58"/><line class="cls-5" x1="320.51" y1="391.25" x2="313.72" y2="384.46"/><line class="cls-5" x1="311.4" y1="382.14" x2="309.83" y2="380.57"/><line class="cls-5" x1="326.99" y1="373.46" x2="325.85" y2="372.27"/><line class="cls-5" x1="323.59" y1="370.01" x2="316.74" y2="363.16"/><line class="cls-5" x1="314.48" y1="360.89" x2="309.83" y2="356.24"/><line class="cls-5" x1="326.61" y1="348.76" x2="319.76" y2="341.91"/><line class="cls-5" x1="317.49" y1="339.65" x2="310.64" y2="332.8"/><line class="cls-5" x1="326.99" y1="324.81" x2="322.84" y2="320.66"/><line class="cls-5" x1="320.51" y1="318.4" x2="313.72" y2="311.55"/><line class="cls-5" x1="311.4" y1="309.29" x2="309.83" y2="307.65"/><line class="cls-5" x1="326.99" y1="300.55" x2="325.85" y2="299.36"/><line class="cls-5" x1="323.59" y1="297.09" x2="316.74" y2="290.24"/><line class="cls-5" x1="314.48" y1="287.98" x2="309.83" y2="283.33"/><line class="cls-5" x1="326.61" y1="275.85" x2="319.76" y2="269"/><line class="cls-5" x1="317.49" y1="266.73" x2="310.64" y2="259.88"/><line class="cls-5" x1="326.99" y1="251.9" x2="322.84" y2="247.75"/><line class="cls-5" x1="320.51" y1="245.49" x2="313.72" y2="238.64"/><line class="cls-5" x1="311.4" y1="236.37" x2="309.83" y2="234.74"/><line class="cls-5" x1="326.99" y1="227.64" x2="325.85" y2="226.44"/><line class="cls-5" x1="323.59" y1="224.18" x2="316.74" y2="217.39"/><line class="cls-5" x1="314.48" y1="215.07" x2="309.83" y2="210.41"/><line class="cls-5" x1="322.08" y1="405.02" x2="321.27" y2="404.2"/><line class="cls-5" x1="319" y1="401.94" x2="312.21" y2="395.09"/><line class="cls-5" x1="309.89" y1="392.82" x2="309.83" y2="392.7"/><line class="cls-5" x1="326.99" y1="385.6" x2="324.35" y2="382.96"/><line class="cls-5" x1="322.08" y1="380.63" x2="315.23" y2="373.84"/><line class="cls-5" x1="312.97" y1="371.52" x2="309.83" y2="368.37"/><line class="cls-5" x1="325.1" y1="359.38" x2="318.25" y2="352.53"/><line class="cls-5" x1="315.99" y1="350.27" x2="309.83" y2="344.11"/><line class="cls-5" x1="326.99" y1="337.01" x2="321.27" y2="331.29"/><line class="cls-5" x1="319" y1="329.02" x2="312.21" y2="322.17"/><line class="cls-5" x1="309.89" y1="319.91" x2="309.83" y2="319.78"/><line class="cls-5" x1="326.99" y1="312.68" x2="324.35" y2="310.04"/><line class="cls-5" x1="322.08" y1="307.72" x2="315.23" y2="300.93"/><line class="cls-5" x1="312.97" y1="298.6" x2="309.83" y2="295.52"/><line class="cls-5" x1="325.1" y1="286.47" x2="318.25" y2="279.62"/><line class="cls-5" x1="315.99" y1="277.36" x2="309.83" y2="271.2"/><line class="cls-5" x1="326.99" y1="264.09" x2="321.27" y2="258.37"/><line class="cls-5" x1="319" y1="256.11" x2="312.21" y2="249.26"/><line class="cls-5" x1="309.89" y1="247" x2="309.83" y2="246.87"/><line class="cls-5" x1="326.99" y1="239.77" x2="324.35" y2="237.13"/><line class="cls-5" x1="322.08" y1="234.8" x2="315.23" y2="228.01"/><line class="cls-5" x1="312.97" y1="225.69" x2="309.83" y2="222.61"/><line class="cls-5" x1="325.1" y1="213.56" x2="318.88" y2="207.4"/><line class="cls-5" x1="326.99" y1="705.73" x2="326.99" y2="516.71"/><line class="cls-5" x1="326.99" y1="509.8" x2="326.99" y2="490.94"/><line class="cls-5" x1="326.99" y1="405.02" x2="326.99" y2="207.4"/><line class="cls-5" x1="309.83" y1="207.4" x2="309.83" y2="405.02"/><line class="cls-5" x1="309.83" y1="490.94" x2="309.83" y2="509.8"/><line class="cls-5" x1="309.83" y1="516.71" x2="309.83" y2="637.02"/><line class="cls-5" x1="311.96" y1="722.95" x2="311.96" y2="722.95"/><line class="cls-5" x1="324.09" y1="722.95" x2="324.09" y2="722.95"/><line class="cls-5" x1="323.59" y1="515.83" x2="317.56" y2="509.8"/><line class="cls-5" x1="312.28" y1="516.71" x2="309.83" y2="514.2"/><line class="cls-5" x1="326.99" y1="516.71" x2="326.99" y2="509.8"/><line class="cls-5" x1="309.83" y1="509.8" x2="309.83" y2="516.71"/><line class="cls-5" x1="3.09" y1="705.73" x2="0.51" y2="703.09"/><line class="cls-5" x1="16.73" y1="695.1" x2="9.94" y2="688.25"/><line class="cls-5" x1="7.61" y1="685.99" x2="0.82" y2="679.14"/><line class="cls-5" x1="17.67" y1="671.66" x2="12.95" y2="666.94"/><line class="cls-5" x1="10.69" y1="664.68" x2="3.84" y2="657.83"/><line class="cls-5" x1="1.58" y1="655.57" x2="0.51" y2="654.5"/><line class="cls-5" x1="17.67" y1="647.39" x2="15.97" y2="645.7"/><line class="cls-5" x1="13.71" y1="643.43" x2="6.86" y2="636.58"/><line class="cls-5" x1="4.59" y1="634.32" x2="0.51" y2="630.17"/><line class="cls-5" x1="16.73" y1="622.19" x2="9.94" y2="615.34"/><line class="cls-5" x1="7.61" y1="613.07" x2="0.82" y2="606.22"/><line class="cls-5" x1="17.67" y1="598.81" x2="12.95" y2="594.09"/><line class="cls-5" x1="10.69" y1="591.77" x2="3.84" y2="584.98"/><line class="cls-5" x1="1.58" y1="582.65" x2="0.51" y2="581.58"/><line class="cls-5" x1="17.67" y1="574.48" x2="15.97" y2="572.78"/><line class="cls-5" x1="13.71" y1="570.52" x2="6.86" y2="563.67"/><line class="cls-5" x1="4.59" y1="561.41" x2="0.51" y2="557.32"/><line class="cls-5" x1="16.73" y1="549.27" x2="9.94" y2="542.42"/><line class="cls-5" x1="7.61" y1="540.16" x2="0.82" y2="533.31"/><line class="cls-5" x1="17.67" y1="525.89" x2="12.95" y2="521.18"/><line class="cls-5" x1="10.69" y1="518.85" x2="3.84" y2="512.06"/><line class="cls-5" x1="1.58" y1="509.74" x2="0.51" y2="508.67"/><line class="cls-5" x1="17.67" y1="501.57" x2="15.97" y2="499.87"/><line class="cls-5" x1="13.71" y1="497.61" x2="7.05" y2="490.94"/><line class="cls-5" x1="15.22" y1="705.73" x2="8.37" y2="698.87"/><line class="cls-5" x1="6.1" y1="696.61" x2="0.51" y2="690.95"/><line class="cls-5" x1="17.67" y1="683.85" x2="11.45" y2="677.63"/><line class="cls-5" x1="9.12" y1="675.3" x2="2.33" y2="668.51"/><line class="cls-5" x1="17.67" y1="659.53" x2="14.46" y2="656.32"/><line class="cls-5" x1="12.2" y1="654.06" x2="5.35" y2="647.21"/><line class="cls-5" x1="3.09" y1="644.94" x2="0.51" y2="642.37"/><line class="cls-5" x1="17.67" y1="635.26" x2="17.48" y2="635.07"/><line class="cls-5" x1="15.22" y1="632.81" x2="8.37" y2="625.96"/><line class="cls-5" x1="6.1" y1="623.7" x2="0.51" y2="618.04"/><line class="cls-5" x1="17.67" y1="610.94" x2="11.45" y2="604.71"/><line class="cls-5" x1="9.12" y1="602.39" x2="2.33" y2="595.6"/><line class="cls-5" x1="17.67" y1="586.61" x2="14.46" y2="583.41"/><line class="cls-5" x1="12.2" y1="581.14" x2="5.35" y2="574.29"/><line class="cls-5" x1="3.09" y1="572.03" x2="0.51" y2="569.45"/><line class="cls-5" x1="17.67" y1="562.35" x2="17.48" y2="562.16"/><line class="cls-5" x1="15.22" y1="559.9" x2="8.37" y2="553.05"/><line class="cls-5" x1="6.1" y1="550.78" x2="0.51" y2="545.13"/><line class="cls-5" x1="17.67" y1="538.02" x2="11.45" y2="531.8"/><line class="cls-5" x1="9.12" y1="529.54" x2="2.33" y2="522.69"/><line class="cls-5" x1="17.67" y1="513.7" x2="14.46" y2="510.49"/><line class="cls-5" x1="12.2" y1="508.23" x2="5.35" y2="501.38"/><line class="cls-5" x1="3.09" y1="499.12" x2="0.51" y2="496.54"/><line class="cls-5" x1="1.14" y1="387.8" x2="0.82" y2="387.48"/><line class="cls-5" x1="17.67" y1="380.06" x2="12.95" y2="375.35"/><line class="cls-5" x1="10.69" y1="373.02" x2="3.84" y2="366.24"/><line class="cls-5" x1="1.58" y1="363.91" x2="0.51" y2="362.84"/><line class="cls-5" x1="17.67" y1="355.74" x2="15.97" y2="354.04"/><line class="cls-5" x1="13.71" y1="351.78" x2="6.86" y2="344.93"/><line class="cls-5" x1="4.59" y1="342.66" x2="0.51" y2="338.58"/><line class="cls-5" x1="16.73" y1="330.53" x2="9.94" y2="323.68"/><line class="cls-5" x1="7.61" y1="321.42" x2="0.82" y2="314.57"/><line class="cls-5" x1="17.67" y1="307.15" x2="12.95" y2="302.44"/><line class="cls-5" x1="10.69" y1="300.17" x2="3.84" y2="293.32"/><line class="cls-5" x1="1.58" y1="291.06" x2="0.51" y2="289.93"/><line class="cls-5" x1="17.67" y1="282.83" x2="15.97" y2="281.13"/><line class="cls-5" x1="13.71" y1="278.87" x2="6.86" y2="272.01"/><line class="cls-5" x1="4.59" y1="269.75" x2="0.51" y2="265.67"/><line class="cls-5" x1="16.73" y1="257.62" x2="9.94" y2="250.77"/><line class="cls-5" x1="7.61" y1="248.51" x2="0.82" y2="241.65"/><line class="cls-5" x1="17.67" y1="234.24" x2="12.95" y2="229.52"/><line class="cls-5" x1="10.69" y1="227.26" x2="3.84" y2="220.41"/><line class="cls-5" x1="1.58" y1="218.15" x2="0.51" y2="217.01"/><line class="cls-5" x1="17.67" y1="209.91" x2="15.97" y2="208.28"/><line class="cls-5" x1="13.27" y1="387.8" x2="11.45" y2="385.97"/><line class="cls-5" x1="9.12" y1="383.71" x2="2.33" y2="376.86"/><line class="cls-5" x1="17.67" y1="367.87" x2="14.46" y2="364.73"/><line class="cls-5" x1="12.2" y1="362.4" x2="5.35" y2="355.61"/><line class="cls-5" x1="3.09" y1="353.29" x2="0.51" y2="350.71"/><line class="cls-5" x1="17.67" y1="343.61" x2="17.48" y2="343.42"/><line class="cls-5" x1="15.22" y1="341.16" x2="8.37" y2="334.3"/><line class="cls-5" x1="6.1" y1="332.04" x2="0.51" y2="326.38"/><line class="cls-5" x1="17.67" y1="319.28" x2="11.45" y2="313.06"/><line class="cls-5" x1="9.12" y1="310.8" x2="2.33" y2="303.95"/><line class="cls-5" x1="17.67" y1="294.96" x2="14.46" y2="291.81"/><line class="cls-5" x1="12.2" y1="289.49" x2="5.35" y2="282.7"/><line class="cls-5" x1="3.09" y1="280.37" x2="0.51" y2="277.8"/><line class="cls-5" x1="17.67" y1="270.69" x2="17.48" y2="270.51"/><line class="cls-5" x1="15.22" y1="268.24" x2="8.37" y2="261.39"/><line class="cls-5" x1="6.1" y1="259.13" x2="0.51" y2="253.47"/><line class="cls-5" x1="17.67" y1="246.37" x2="11.45" y2="240.15"/><line class="cls-5" x1="9.12" y1="237.88" x2="2.33" y2="231.03"/><line class="cls-5" x1="17.67" y1="222.11" x2="14.46" y2="218.9"/><line class="cls-5" x1="12.2" y1="216.57" x2="5.35" y2="209.79"/><line class="cls-5" x1="3.09" y1="207.46" x2="2.96" y2="207.4"/><line class="cls-5" x1="17.67" y1="705.73" x2="17.67" y2="490.94"/><line class="cls-5" x1="17.67" y1="387.8" x2="17.67" y2="207.4"/><line class="cls-5" x1="0.51" y1="207.4" x2="0.51" y2="387.8"/><line class="cls-5" x1="0.51" y1="490.94" x2="0.51" y2="705.73"/><line class="cls-5" x1="168.02" y1="464.8" x2="168.52" y2="464.29"/><line class="cls-5" x1="168.02" y1="470.89" x2="174.62" y2="464.29"/><line class="cls-5" x1="17.67" y1="469.32" x2="22.7" y2="464.29"/><line class="cls-5" x1="21.94" y1="471.14" x2="28.79" y2="464.29"/><line class="cls-5" x1="27.98" y1="471.14" x2="34.89" y2="464.29"/><line class="cls-5" x1="34.07" y1="471.14" x2="40.93" y2="464.29"/><line class="cls-5" x1="40.17" y1="471.14" x2="47.02" y2="464.29"/><line class="cls-5" x1="46.21" y1="471.14" x2="53.12" y2="464.29"/><line class="cls-5" x1="52.3" y1="471.14" x2="59.15" y2="464.29"/><line class="cls-5" x1="58.4" y1="471.14" x2="65.25" y2="464.29"/><line class="cls-5" x1="64.43" y1="471.14" x2="71.35" y2="464.29"/><line class="cls-5" x1="70.53" y1="471.14" x2="77.38" y2="464.29"/><line class="cls-5" x1="76.63" y1="471.14" x2="83.48" y2="464.29"/><line class="cls-5" x1="82.66" y1="471.14" x2="89.58" y2="464.29"/><line class="cls-5" x1="88.76" y1="471.14" x2="95.61" y2="464.29"/><line class="cls-5" x1="94.86" y1="471.14" x2="101.71" y2="464.29"/><line class="cls-5" x1="100.89" y1="471.14" x2="107.8" y2="464.29"/><line class="cls-5" x1="106.99" y1="471.14" x2="113.84" y2="464.29"/><line class="cls-5" x1="113.08" y1="471.14" x2="119.94" y2="464.29"/><line class="cls-5" x1="119.12" y1="471.14" x2="126.03" y2="464.29"/><line class="cls-5" x1="125.22" y1="471.14" x2="132.07" y2="464.29"/><line class="cls-5" x1="131.31" y1="471.14" x2="138.16" y2="464.29"/><line class="cls-5" x1="137.35" y1="471.14" x2="144.26" y2="464.29"/><line class="cls-5" x1="143.44" y1="471.14" x2="150.3" y2="464.29"/><line class="cls-5" x1="149.54" y1="471.14" x2="156.39" y2="464.29"/><line class="cls-5" x1="155.58" y1="471.14" x2="162.49" y2="464.29"/><line class="cls-5" x1="161.67" y1="471.14" x2="168.02" y2="464.8"/><line class="cls-5" x1="167.77" y1="471.14" x2="168.02" y2="470.89"/><line class="cls-5" x1="17.67" y1="471.14" x2="60.6" y2="471.14"/><line class="cls-5" x1="67.51" y1="471.14" x2="168.02" y2="471.14"/><line class="cls-5" x1="174.94" y1="464.29" x2="17.67" y2="464.29"/><line class="cls-5" x1="173.8" y1="471.14" x2="174.94" y2="470.08"/><line class="cls-5" x1="174.94" y1="464.29" x2="174.94" y2="471.14"/><line class="cls-5" x1="168.02" y1="476.93" x2="173.8" y2="471.14"/><line class="cls-5" x1="168.02" y1="483.02" x2="174.94" y2="476.17"/><line class="cls-5" x1="168.02" y1="489.12" x2="174.94" y2="482.21"/><line class="cls-5" x1="168.02" y1="495.16" x2="174.94" y2="488.3"/><line class="cls-5" x1="168.02" y1="501.25" x2="174.94" y2="494.4"/><line class="cls-5" x1="168.02" y1="507.35" x2="174.94" y2="500.44"/><line class="cls-5" x1="171.6" y1="509.8" x2="174.94" y2="506.53"/><line class="cls-5" x1="168.02" y1="519.48" x2="170.79" y2="516.71"/><line class="cls-5" x1="168.02" y1="525.58" x2="174.94" y2="518.66"/><line class="cls-5" x1="168.02" y1="531.61" x2="174.94" y2="524.76"/><line class="cls-5" x1="168.02" y1="537.71" x2="174.94" y2="530.86"/><line class="cls-5" x1="168.02" y1="543.81" x2="174.94" y2="536.89"/><line class="cls-5" x1="168.02" y1="549.84" x2="174.94" y2="542.99"/><line class="cls-5" x1="168.02" y1="555.94" x2="174.94" y2="549.09"/><line class="cls-5" x1="168.02" y1="562.03" x2="174.94" y2="555.12"/><line class="cls-5" x1="168.02" y1="568.07" x2="174.94" y2="561.22"/><line class="cls-5" x1="173.93" y1="568.26" x2="174.94" y2="567.31"/><line class="cls-5" x1="168.02" y1="628.85" x2="168.46" y2="628.41"/><line class="cls-5" x1="168.02" y1="634.95" x2="174.56" y2="628.41"/><line class="cls-5" x1="168.02" y1="640.98" x2="174.94" y2="634.13"/><line class="cls-5" x1="168.02" y1="647.08" x2="174.94" y2="640.23"/><line class="cls-5" x1="168.02" y1="653.18" x2="174.94" y2="646.26"/><line class="cls-5" x1="168.02" y1="659.21" x2="174.94" y2="652.36"/><line class="cls-5" x1="168.02" y1="665.31" x2="174.94" y2="658.46"/><line class="cls-5" x1="168.02" y1="671.41" x2="174.94" y2="664.49"/><line class="cls-5" x1="168.02" y1="677.44" x2="174.94" y2="670.59"/><line class="cls-5" x1="168.02" y1="683.54" x2="174.94" y2="676.69"/><line class="cls-5" x1="168.02" y1="689.63" x2="174.94" y2="682.72"/><line class="cls-5" x1="168.02" y1="695.67" x2="174.94" y2="688.82"/><line class="cls-5" x1="168.02" y1="701.77" x2="174.94" y2="694.91"/><line class="cls-5" x1="170.16" y1="705.73" x2="174.94" y2="700.95"/><line class="cls-5" x1="168.02" y1="628.41" x2="174.94" y2="628.41"/><line class="cls-5" x1="168.02" y1="568.26" x2="174.94" y2="568.26"/><line class="cls-5" x1="168.02" y1="471.14" x2="168.02" y2="509.8"/><line class="cls-5" x1="168.02" y1="516.71" x2="168.02" y2="568.26"/><polyline class="cls-5" points="168.02 628.41 168.02 705.73 174.94 705.73 174.94 628.41"/><line class="cls-5" x1="174.94" y1="568.26" x2="174.94" y2="516.71"/><line class="cls-5" x1="174.94" y1="509.8" x2="174.94" y2="471.14"/><line class="cls-3" x1="174.94" y1="569.67" x2="174.94" y2="628.41"/><line class="cls-3" x1="168.02" y1="569.67" x2="168.02" y2="628.41"/><line class="cls-5" x1="17.67" y1="511.87" x2="19.74" y2="509.8"/><line class="cls-5" x1="18.93" y1="516.71" x2="25.78" y2="509.8"/><line class="cls-5" x1="25.02" y1="516.71" x2="26.28" y2="515.46"/><line class="cls-5" x1="60.6" y1="511.44" x2="62.23" y2="509.8"/><line class="cls-5" x1="61.42" y1="516.71" x2="68.33" y2="509.8"/><line class="cls-5" x1="67.51" y1="516.71" x2="74.43" y2="509.8"/><line class="cls-5" x1="73.61" y1="516.71" x2="80.46" y2="509.8"/><line class="cls-5" x1="79.64" y1="516.71" x2="86.56" y2="509.8"/><line class="cls-5" x1="85.74" y1="516.71" x2="92.59" y2="509.8"/><line class="cls-5" x1="91.84" y1="516.71" x2="98.69" y2="509.8"/><line class="cls-5" x1="97.87" y1="516.71" x2="104.79" y2="509.8"/><line class="cls-5" x1="103.97" y1="516.71" x2="110.82" y2="509.8"/><line class="cls-5" x1="110.07" y1="516.71" x2="116.92" y2="509.8"/><line class="cls-5" x1="116.1" y1="516.71" x2="123.02" y2="509.8"/><line class="cls-5" x1="122.2" y1="516.71" x2="129.05" y2="509.8"/><line class="cls-5" x1="128.3" y1="516.71" x2="135.15" y2="509.8"/><line class="cls-5" x1="134.33" y1="516.71" x2="141.24" y2="509.8"/><line class="cls-5" x1="140.43" y1="516.71" x2="147.28" y2="509.8"/><line class="cls-5" x1="146.52" y1="516.71" x2="153.38" y2="509.8"/><line class="cls-5" x1="152.56" y1="516.71" x2="159.47" y2="509.8"/><line class="cls-5" x1="158.66" y1="516.71" x2="165.51" y2="509.8"/><line class="cls-5" x1="164.75" y1="516.71" x2="171.6" y2="509.8"/><line class="cls-5" x1="170.79" y1="516.71" x2="177.7" y2="509.8"/><line class="cls-5" x1="176.88" y1="516.71" x2="183.74" y2="509.8"/><line class="cls-5" x1="182.98" y1="516.71" x2="189.83" y2="509.8"/><line class="cls-5" x1="189.02" y1="516.71" x2="192.1" y2="513.64"/><line class="cls-5" x1="269.41" y1="515.33" x2="274.88" y2="509.8"/><line class="cls-5" x1="274.12" y1="516.71" x2="280.97" y2="509.8"/><line class="cls-5" x1="280.16" y1="516.71" x2="287.07" y2="509.8"/><line class="cls-5" x1="286.25" y1="516.71" x2="293.11" y2="509.8"/><line class="cls-5" x1="292.35" y1="516.71" x2="299.2" y2="509.8"/><line class="cls-5" x1="298.39" y1="516.71" x2="305.3" y2="509.8"/><line class="cls-5" x1="304.48" y1="516.71" x2="309.83" y2="511.37"/><line class="cls-5" x1="192.1" y1="509.8" x2="192.1" y2="516.71"/><line class="cls-5" x1="269.41" y1="509.8" x2="269.41" y2="516.71"/><polyline class="cls-5" points="26.28 516.72 26.28 513.26 26.28 509.8"/><polyline class="cls-5" points="60.6 516.72 60.6 513.26 60.6 509.8"/><line class="cls-5" x1="309.83" y1="509.8" x2="269.41" y2="509.8"/><line class="cls-5" x1="192.1" y1="509.8" x2="174.94" y2="509.8"/><line class="cls-5" x1="168.02" y1="509.8" x2="67.51" y2="509.8"/><polyline class="cls-5" points="26.28 509.8 17.67 509.8 17.67 516.72 26.28 516.72"/><line class="cls-5" x1="60.6" y1="516.71" x2="168.02" y2="516.71"/><line class="cls-5" x1="174.94" y1="516.71" x2="192.1" y2="516.71"/><polyline class="cls-5" points="269.41 516.72 309.83 516.72 309.83 509.8"/><line class="cls-3" x1="269.41" y1="516.71" x2="191.72" y2="516.71"/><line class="cls-3" x1="269.41" y1="509.8" x2="191.72" y2="509.8"/><line class="cls-5" x1="60.6" y1="516.71" x2="26.28" y2="516.71"/><line class="cls-5" x1="60.6" y1="509.8" x2="26.28" y2="509.8"/><path class="cls-5" d="M58.87,556.78A34.39,34.39,0,0,0,61,545" transform="translate(-0.35 -28.35)"/><line class="cls-5" x1="26.28" y1="516.71" x2="58.53" y2="528.47"/><polyline class="cls-5" points="60.6 509.8 60.6 513.26 60.6 516.72 60.6 513.26"/><polyline class="cls-5" points="26.28 509.8 26.28 513.26 26.28 516.72 26.28 513.26"/><line class="cls-5" x1="326.99" y1="516.71" x2="326.99" y2="509.8"/><line class="cls-5" x1="309.83" y1="509.8" x2="309.83" y2="516.71"/><line class="cls-5" x1="290.15" y1="676.87" x2="288.33" y2="674.99"/><line class="cls-5" x1="309.83" y1="672.22" x2="304.61" y2="666.94"/><line class="cls-5" x1="302.28" y1="664.68" x2="298.7" y2="661.03"/><line class="cls-5" x1="303.73" y1="678.26" x2="303.1" y2="677.63"/><line class="cls-5" x1="300.77" y1="675.3" x2="293.99" y2="668.51"/><line class="cls-5" x1="291.66" y1="666.19" x2="288.33" y2="662.86"/><line class="cls-5" x1="288.33" y1="674.99" x2="283.3" y2="670.02"/><line class="cls-5" x1="281.04" y1="667.76" x2="274.37" y2="661.03"/><line class="cls-5" x1="288.33" y1="662.86" x2="286.51" y2="661.03"/><line class="cls-5" x1="309.83" y1="661.03" x2="271.17" y2="661.03"/><line class="cls-5" x1="288.33" y1="678.26" x2="309.83" y2="678.26"/><line class="cls-5" x1="279.4" y1="678.26" x2="272.68" y2="671.53"/><line class="cls-5" x1="271.17" y1="661.03" x2="271.17" y2="678.26"/><line class="cls-5" x1="287.13" y1="698.12" x2="280.28" y2="691.27"/><line class="cls-5" x1="278.02" y1="689.01" x2="271.17" y2="682.15"/><line class="cls-5" x1="282.61" y1="705.73" x2="278.77" y2="701.89"/><line class="cls-5" x1="276.51" y1="699.63" x2="271.17" y2="694.29"/><line class="cls-5" x1="288.33" y1="687.18" x2="281.79" y2="680.65"/><line class="cls-5" x1="279.53" y1="678.38" x2="279.4" y2="678.26"/><line class="cls-5" x1="288.33" y1="711.44" x2="287.89" y2="711.01"/><line class="cls-5" x1="285.63" y1="708.74" x2="282.61" y2="705.73"/><line class="cls-5" x1="271.17" y1="678.26" x2="271.17" y2="705.73"/><line class="cls-5" x1="288.33" y1="722.95" x2="288.33" y2="678.26"/><line class="cls-5" x1="287.64" y1="722.95" x2="286.38" y2="721.63"/><line class="cls-5" x1="284.05" y1="719.36" x2="277.27" y2="712.51"/><line class="cls-5" x1="274.94" y1="710.25" x2="271.17" y2="706.42"/><line class="cls-5" x1="273.43" y1="720.87" x2="271.17" y2="718.61"/><line class="cls-5" x1="288.33" y1="722.95" x2="271.17" y2="722.95"/><polyline class="cls-5" points="326.99 722.95 326.99 716.03 326.99 705.73"/><line class="cls-5" x1="309.83" y1="722.95" x2="326.99" y2="722.95"/><polyline class="cls-5" points="326.99 705.73 326.99 716.03 326.99 722.95 326.99 716.03"/><line class="cls-5" x1="288.33" y1="715.15" x2="290.84" y2="712.64"/><line class="cls-5" x1="294.24" y1="722.95" x2="304.55" y2="712.64"/><line class="cls-5" x1="307.88" y1="722.95" x2="309.83" y2="721"/><line class="cls-5" x1="289.65" y1="722.95" x2="299.96" y2="712.64"/><line class="cls-5" x1="303.35" y1="722.95" x2="309.83" y2="716.41"/><line class="cls-5" x1="288.33" y1="722.95" x2="309.83" y2="722.95"/><polyline class="cls-5" points="309.83 712.64 288.33 712.64 288.33 722.95"/><line class="cls-5" x1="0.51" y1="722.95" x2="0.51" y2="722.95"/><line class="cls-5" x1="20.31" y1="722.95" x2="20.31" y2="722.95"/><line class="cls-5" x1="44.07" y1="722.44" x2="37.28" y2="715.59"/><line class="cls-5" x1="34.95" y1="713.33" x2="28.17" y2="706.48"/><line class="cls-5" x1="68.9" y1="722.95" x2="67.64" y2="721.63"/><line class="cls-5" x1="65.38" y1="719.36" x2="58.53" y2="712.51"/><line class="cls-5" x1="56.26" y1="710.25" x2="51.74" y2="705.73"/><line class="cls-5" x1="93.22" y1="722.95" x2="88.88" y2="718.61"/><line class="cls-5" x1="86.62" y1="716.35" x2="79.77" y2="709.5"/><line class="cls-5" x1="77.51" y1="707.23" x2="76" y2="705.73"/><line class="cls-5" x1="116.98" y1="722.44" x2="110.13" y2="715.59"/><line class="cls-5" x1="107.87" y1="713.33" x2="101.02" y2="706.48"/><line class="cls-5" x1="141.81" y1="722.95" x2="140.55" y2="721.63"/><line class="cls-5" x1="138.29" y1="719.36" x2="131.44" y2="712.51"/><line class="cls-5" x1="129.18" y1="710.25" x2="124.65" y2="705.73"/><line class="cls-5" x1="166.14" y1="722.95" x2="161.8" y2="718.61"/><line class="cls-5" x1="159.54" y1="716.35" x2="152.68" y2="709.5"/><line class="cls-5" x1="150.42" y1="707.23" x2="148.91" y2="705.73"/><line class="cls-5" x1="180.78" y1="713.33" x2="173.93" y2="706.48"/><line class="cls-5" x1="8.11" y1="722.95" x2="8.11" y2="722.95"/><line class="cls-5" x1="32.44" y1="722.95" x2="26.59" y2="717.1"/><line class="cls-5" x1="54.69" y1="720.87" x2="47.9" y2="714.08"/><line class="cls-5" x1="45.58" y1="711.76" x2="39.54" y2="705.73"/><line class="cls-5" x1="81.03" y1="722.95" x2="78.26" y2="720.12"/><line class="cls-5" x1="76" y1="717.86" x2="69.15" y2="711.01"/><line class="cls-5" x1="66.89" y1="708.74" x2="63.87" y2="705.73"/><line class="cls-5" x1="105.35" y1="722.95" x2="99.51" y2="717.1"/><line class="cls-5" x1="97.24" y1="714.84" x2="90.39" y2="707.99"/><line class="cls-5" x1="127.6" y1="720.87" x2="120.82" y2="714.08"/><line class="cls-5" x1="118.49" y1="711.76" x2="112.46" y2="705.73"/><line class="cls-5" x1="153.94" y1="722.95" x2="151.18" y2="720.12"/><line class="cls-5" x1="148.91" y1="717.86" x2="142.06" y2="711.01"/><line class="cls-5" x1="139.8" y1="708.74" x2="136.78" y2="705.73"/><line class="cls-5" x1="178.27" y1="722.95" x2="172.42" y2="717.1"/><line class="cls-5" x1="170.16" y1="714.84" x2="163.31" y2="707.99"/><polyline class="cls-5" points="271.17 722.95 271.17 716.03 271.17 705.73"/><polyline class="cls-5" points="180.91 722.95 180.91 716.03 180.91 705.73"/><line class="cls-5" x1="180.91" y1="722.95" x2="0.51" y2="722.95"/><line class="cls-5" x1="180.91" y1="705.73" x2="26.28" y2="705.73"/><path class="cls-5" d="M263.75,665.31a79,79,0,0,0-79,79" transform="translate(-0.35 -28.35)"/><line class="cls-5" x1="266.83" y1="716.03" x2="271.17" y2="716.03"/><polyline class="cls-5" points="266.83 722.95 271.17 722.95 271.17 716.03"/><polyline class="cls-5" points="180.91 722.95 184.36 722.95 184.36 716.03 180.91 716.03 180.91 722.95"/><polyline class="cls-5" points="266.83 716.03 263.44 716.03 263.44 722.95 266.83 722.95 266.83 716.03"/><line class="cls-5" x1="263.44" y1="716.03" x2="263.44" y2="637.02"/><polyline class="cls-5" points="180.91 705.73 180.91 716.03 180.91 722.95 180.91 716.03"/><polyline class="cls-5" points="271.17 705.73 271.17 716.03 271.17 722.95 271.17 716.03"/><line class="cls-5" x1="60.6" y1="474.98" x2="64.43" y2="471.14"/><line class="cls-5" x1="60.6" y1="481.08" x2="67.51" y2="474.22"/><line class="cls-5" x1="60.6" y1="487.17" x2="67.51" y2="480.26"/><line class="cls-5" x1="60.6" y1="493.21" x2="67.51" y2="486.36"/><line class="cls-5" x1="60.6" y1="499.3" x2="67.51" y2="492.45"/><line class="cls-5" x1="60.6" y1="505.4" x2="67.51" y2="498.49"/><line class="cls-5" x1="62.23" y1="509.8" x2="67.51" y2="504.58"/><line class="cls-5" x1="67.51" y1="509.8" x2="67.51" y2="471.14"/><line class="cls-5" x1="60.6" y1="471.14" x2="60.6" y2="509.8"/><line class="cls-5" x1="2.39" y1="121.47" x2="4.85" y2="117.14"/><line class="cls-5" x1="7.36" y1="121.47" x2="9.81" y2="117.14"/><line class="cls-5" x1="12.33" y1="121.47" x2="14.78" y2="117.14"/><line class="cls-5" x1="17.29" y1="121.47" x2="17.67" y2="120.78"/><line class="cls-5" x1="0.57" y1="121.47" x2="0.51" y2="121.28"/><line class="cls-5" x1="5.54" y1="121.47" x2="3.02" y2="117.14"/><line class="cls-5" x1="10.5" y1="121.47" x2="7.99" y2="117.14"/><line class="cls-5" x1="15.47" y1="121.47" x2="12.95" y2="117.14"/><polyline class="cls-5" points="0.51 108.59 0.51 121.47 17.67 121.47 17.67 117.14"/><line class="cls-5" x1="309.95" y1="121.47" x2="312.47" y2="117.14"/><line class="cls-5" x1="314.92" y1="121.47" x2="317.43" y2="117.14"/><line class="cls-5" x1="319.88" y1="121.47" x2="322.4" y2="117.14"/><line class="cls-5" x1="324.85" y1="121.47" x2="326.99" y2="117.76"/><line class="cls-5" x1="313.09" y1="121.47" x2="310.64" y2="117.14"/><line class="cls-5" x1="318.06" y1="121.47" x2="315.55" y2="117.14"/><line class="cls-5" x1="323.03" y1="121.47" x2="320.51" y2="117.14"/><line class="cls-5" x1="326.99" y1="119.71" x2="325.41" y2="117.01"/><line class="cls-5" x1="309.83" y1="113.11" x2="309.95" y2="112.86"/><line class="cls-5" x1="312.47" y1="117.14" x2="314.92" y2="112.86"/><line class="cls-5" x1="317.43" y1="117.14" x2="319.88" y2="112.86"/><line class="cls-5" x1="322.4" y1="117.14" x2="324.47" y2="113.55"/><line class="cls-5" x1="310.64" y1="117.14" x2="309.83" y2="115.75"/><line class="cls-5" x1="315.55" y1="117.14" x2="313.09" y2="112.86"/><line class="cls-5" x1="320.51" y1="117.14" x2="318.06" y2="112.86"/><line class="cls-5" x1="324.66" y1="115.75" x2="323.03" y2="112.86"/><line class="cls-5" x1="324.47" y1="113.55" x2="324.85" y2="112.86"/><line class="cls-5" x1="325.41" y1="117.01" x2="324.66" y2="115.75"/><polyline class="cls-5" points="309.83 117.14 309.83 121.47 326.99 121.47 326.99 107.77"/><polyline class="cls-5" points="271.17 104.31 280.72 58.05 281.16 58.11 271.61 104.44 271.17 104.31"/><polyline class="cls-5" points="279.72 56.54 202.28 40.58 202.4 40.2 279.78 56.1 279.72 56.54"/><polyline class="cls-5" points="200.77 41.58 191.22 87.91 190.84 87.78 200.33 41.52 200.77 41.58"/><polyline class="cls-5" points="269.47 106.2 269.91 104.06 272.05 104.5 271.61 106.64 269.47 106.2"/><polyline class="cls-5" points="279.47 57.8 279.91 55.66 281.98 56.1 281.54 58.24 279.47 57.8"/><polyline class="cls-5" points="202.03 41.83 199.95 41.46 200.33 39.32 202.47 39.76 202.03 41.83"/><polyline class="cls-5" points="192.47 88.16 192.1 90.23 189.96 89.79 190.4 87.72 192.47 88.16"/><line class="cls-5" x1="269.72" y1="105.13" x2="279.47" y2="57.8"/><line class="cls-5" x1="281.98" y1="56.1" x2="271.8" y2="105.57"/><line class="cls-5" x1="279.47" y1="57.8" x2="202.03" y2="41.83"/><line class="cls-5" x1="200.33" y1="39.32" x2="281.98" y2="56.1"/><line class="cls-5" x1="202.03" y1="41.83" x2="192.28" y2="89.23"/><line class="cls-5" x1="190.21" y1="88.79" x2="200.33" y2="39.32"/><polyline class="cls-5" points="271.8 105.57 271.61 106.64 269.47 106.2 269.72 105.13"/><polyline class="cls-5" points="192.28 89.23 192.1 90.23 189.96 89.79 190.21 88.79"/><polyline class="cls-5" points="200.33 39.32 281.98 56.1 271.8 105.57 269.72 105.13 279.47 57.8 202.03 41.83 192.28 89.23 190.21 88.79 200.33 39.32"/><polyline class="cls-5" points="201.46 55.35 274.69 70.43 269.16 97.33 195.93 82.25 201.46 55.35"/><polyline class="cls-5" points="200.9 58.05 274.12 73.07 269.16 97.33 195.93 82.25 200.9 58.05"/><line class="cls-5" x1="22.51" y1="695.42" x2="22.51" y2="651.61"/><line class="cls-5" x1="27.41" y1="646.45" x2="133.76" y2="646.45"/><line class="cls-5" x1="27.41" y1="700.57" x2="133.76" y2="700.57"/><line class="cls-5" x1="163.75" y1="641.3" x2="17.67" y2="641.3"/><line class="cls-5" x1="163.75" y1="705.73" x2="17.67" y2="705.73"/><line class="cls-5" x1="163.75" y1="705.73" x2="163.75" y2="641.3"/><line class="cls-5" x1="17.67" y1="705.73" x2="17.67" y2="641.3"/><line class="cls-5" x1="116.67" y1="691.65" x2="33.45" y2="691.65"/><line class="cls-5" x1="30.99" y1="689.07" x2="30.99" y2="658.02"/><line class="cls-5" x1="116.67" y1="655.44" x2="33.45" y2="655.44"/><line class="cls-5" x1="48.09" y1="675.11" x2="48.09" y2="678.26"/><line class="cls-5" x1="46.58" y1="673.54" x2="43.57" y2="673.54"/><line class="cls-5" x1="48.09" y1="671.91" x2="48.09" y2="668.77"/><line class="cls-5" x1="49.6" y1="673.54" x2="52.62" y2="673.54"/><path class="cls-5" d="M134.08,728.92c14.11,0,25.55-12.12,25.55-27.06s-11.44-27.06-25.55-27.06" transform="translate(-0.35 -28.35)"/><path class="cls-5" d="M27.73,674.74a5,5,0,0,0-4.88,5.18" transform="translate(-0.35 -28.35)"/><path class="cls-5" d="M22.85,723.73a5,5,0,0,0,4.88,5.19" transform="translate(-0.35 -28.35)"/><path class="cls-5" d="M48.41,699.19A2.67,2.67,0,1,0,51,701.86a2.61,2.61,0,0,0-2.54-2.67" transform="translate(-0.35 -28.35)"/><path class="cls-5" d="M117,719.93c9.43,0,17.07-8.09,17.07-18.07s-7.64-18.07-17.07-18.07" transform="translate(-0.35 -28.35)"/><path class="cls-5" d="M31.34,717.38A2.52,2.52,0,0,0,33.76,720" transform="translate(-0.35 -28.35)"/><path class="cls-5" d="M33.76,683.72a2.52,2.52,0,0,0-2.42,2.61" transform="translate(-0.35 -28.35)"/><path class="cls-5" d="M48.41,698.24a3.62,3.62,0,1,0,3.42,3.62,3.52,3.52,0,0,0-3.42-3.62" transform="translate(-0.35 -28.35)"/><line class="cls-5" x1="17.67" y1="592.33" x2="17.67" y2="638.72"/><line class="cls-5" x1="17.67" y1="638.72" x2="37.28" y2="638.72"/><line class="cls-5" x1="17.67" y1="592.33" x2="37.28" y2="592.33"/><line class="cls-5" x1="17.67" y1="622.82" x2="17.67" y2="608.23"/><line class="cls-5" x1="33.38" y1="619.42" x2="33.38" y2="616.91"/><line class="cls-5" x1="29.49" y1="615.53" x2="32" y2="615.53"/><line class="cls-5" x1="33.38" y1="614.08" x2="33.38" y2="611.63"/><line class="cls-5" x1="34.83" y1="615.53" x2="37.34" y2="615.53"/><path class="cls-5" d="M38.79,623.45a20.63,20.63,0,0,0-9.8,8" transform="translate(-0.35 -28.35)"/><path class="cls-5" d="M29.08,631.49a20.62,20.62,0,0,0-2.89,12.31" transform="translate(-0.35 -28.35)"/><path class="cls-5" d="M29,656.14a20.68,20.68,0,0,0,9.8,8" transform="translate(-0.35 -28.35)"/><path class="cls-5" d="M26.19,643.82a20.62,20.62,0,0,0,2.89,12.31" transform="translate(-0.35 -28.35)"/><path class="cls-5" d="M53.17,642.23a38.25,38.25,0,0,0-3.83-14.09" transform="translate(-0.35 -28.35)"/><path class="cls-5" d="M37.59,667a11.78,11.78,0,0,0,9.7-4.4" transform="translate(-0.35 -28.35)"/><path class="cls-5" d="M53.16,645.47a25.17,25.17,0,0,0,0-3.25" transform="translate(-0.35 -28.35)"/><path class="cls-5" d="M29.77,630.85a84.7,84.7,0,0,0,0,26" transform="translate(-0.35 -28.35)"/><path class="cls-5" d="M21.69,659.28a29.22,29.22,0,0,0,19,6.59" transform="translate(-0.35 -28.35)"/><path class="cls-5" d="M18.9,643.84a57.69,57.69,0,0,0,1.43,13.29" transform="translate(-0.35 -28.35)"/><path class="cls-5" d="M20.37,657.14a3.88,3.88,0,0,0,1.33,2.14" transform="translate(-0.35 -28.35)"/><path class="cls-5" d="M20.72,643.84a98.71,98.71,0,0,0,.94,13.08" transform="translate(-0.35 -28.35)"/><path class="cls-5" d="M22.94,659.32a26.25,26.25,0,0,0,17.7,6.55" transform="translate(-0.35 -28.35)"/><path class="cls-5" d="M21.7,656.94A3.84,3.84,0,0,0,23,659.31" transform="translate(-0.35 -28.35)"/><path class="cls-5" d="M40.61,621.81a26.22,26.22,0,0,0-17.69,6.58" transform="translate(-0.35 -28.35)"/><path class="cls-5" d="M40.63,621.81a29.26,29.26,0,0,0-19,6.61" transform="translate(-0.35 -28.35)"/><path class="cls-5" d="M21.64,630.78a100.25,100.25,0,0,0-.92,13.07" transform="translate(-0.35 -28.35)"/><path class="cls-5" d="M20.31,630.57a58.23,58.23,0,0,0-1.41,13.29" transform="translate(-0.35 -28.35)"/><path class="cls-5" d="M23,628.37a3.84,3.84,0,0,0-1.27,2.37" transform="translate(-0.35 -28.35)"/><path class="cls-5" d="M21.63,628.41a3.83,3.83,0,0,0-1.32,2.14" transform="translate(-0.35 -28.35)"/><path class="cls-5" d="M47.29,625a11.78,11.78,0,0,0-9.7-4.4" transform="translate(-0.35 -28.35)"/><path class="cls-5" d="M49.32,628.15a18.25,18.25,0,0,0-2-3.08" transform="translate(-0.35 -28.35)"/><path class="cls-5" d="M47.32,662.61a18.25,18.25,0,0,0,2-3.08" transform="translate(-0.35 -28.35)"/><path class="cls-5" d="M49.34,659.54a38.25,38.25,0,0,0,3.83-14.09" transform="translate(-0.35 -28.35)"/><path class="cls-5" d="M49.82,650.22a27.25,27.25,0,0,0,0-12.76" transform="translate(-0.35 -28.35)"/><path class="cls-5" d="M44.55,625.91a7,7,0,0,0-5.74-2.39" transform="translate(-0.35 -28.35)"/><path class="cls-5" d="M49.88,637.46a25.2,25.2,0,0,0-5.31-11.57" transform="translate(-0.35 -28.35)"/><path class="cls-5" d="M38.81,664.16a7,7,0,0,0,5.74-2.39" transform="translate(-0.35 -28.35)"/><path class="cls-5" d="M44.57,661.79a25.2,25.2,0,0,0,5.31-11.57" transform="translate(-0.35 -28.35)"/><path class="cls-5" d="M33.7,646.83a3,3,0,1,0-3-3,3,3,0,0,0,3,3" transform="translate(-0.35 -28.35)"/><path class="cls-5" d="M33.7,646a2.17,2.17,0,1,0-2.17-2.17A2.17,2.17,0,0,0,33.7,646" transform="translate(-0.35 -28.35)"/><line class="cls-5" x1="30.87" y1="548.96" x2="61.23" y2="548.96"/><line class="cls-5" x1="17.67" y1="547.64" x2="17.67" y2="580.26"/><line class="cls-5" x1="17.67" y1="547.64" x2="29.05" y2="547.64"/><line class="cls-5" x1="36.21" y1="563.98" x2="36.21" y2="576.05"/><line class="cls-5" x1="61.17" y1="548.96" x2="36.21" y2="551.85"/><line class="cls-5" x1="36.21" y1="563.98" x2="36.21" y2="551.85"/><line class="cls-5" x1="61.17" y1="579.01" x2="36.21" y2="576.05"/><line class="cls-5" x1="61.17" y1="549.71" x2="36.21" y2="552.61"/><line class="cls-5" x1="61.17" y1="578.25" x2="36.21" y2="575.3"/><line class="cls-5" x1="30.87" y1="579.01" x2="61.23" y2="579.01"/><line class="cls-5" x1="17.67" y1="580.26" x2="29.05" y2="580.26"/><line class="cls-5" x1="61.17" y1="548.96" x2="64.56" y2="549.34"/><line class="cls-5" x1="64.56" y1="549.34" x2="67.7" y2="550.66"/><line class="cls-5" x1="67.7" y1="550.66" x2="70.47" y2="552.67"/><line class="cls-5" x1="70.47" y1="552.67" x2="72.73" y2="555.43"/><line class="cls-5" x1="72.73" y1="555.43" x2="74.3" y2="558.64"/><line class="cls-5" x1="74.3" y1="558.64" x2="75.12" y2="562.16"/><line class="cls-5" x1="75.12" y1="562.16" x2="75.12" y2="565.81"/><line class="cls-5" x1="75.12" y1="565.81" x2="74.3" y2="569.33"/><line class="cls-5" x1="74.3" y1="569.33" x2="72.73" y2="572.53"/><line class="cls-5" x1="72.73" y1="572.53" x2="70.47" y2="575.23"/><line class="cls-5" x1="70.47" y1="575.23" x2="67.7" y2="577.31"/><line class="cls-5" x1="67.7" y1="577.31" x2="64.56" y2="578.57"/><line class="cls-5" x1="64.56" y1="578.57" x2="61.17" y2="579.01"/><line class="cls-5" x1="61.17" y1="549.71" x2="64.37" y2="550.09"/><line class="cls-5" x1="64.37" y1="550.09" x2="67.32" y2="551.35"/><line class="cls-5" x1="67.32" y1="551.35" x2="69.96" y2="553.3"/><line class="cls-5" x1="69.96" y1="553.3" x2="72.1" y2="555.87"/><line class="cls-5" x1="72.1" y1="555.87" x2="73.61" y2="558.89"/><line class="cls-5" x1="73.61" y1="558.89" x2="74.36" y2="562.22"/><line class="cls-5" x1="74.36" y1="562.22" x2="74.36" y2="565.68"/><line class="cls-5" x1="74.36" y1="565.68" x2="73.61" y2="569.01"/><line class="cls-5" x1="73.61" y1="569.01" x2="72.1" y2="572.09"/><line class="cls-5" x1="72.1" y1="572.09" x2="69.96" y2="574.67"/><line class="cls-5" x1="69.96" y1="574.67" x2="67.32" y2="576.62"/><line class="cls-5" x1="67.32" y1="576.62" x2="64.37" y2="577.81"/><line class="cls-5" x1="64.37" y1="577.81" x2="61.17" y2="578.25"/><path class="cls-5" d="M31.26,606.92a138.25,138.25,0,0,0,0-29.26" transform="translate(-0.35 -28.35)"/><path class="cls-5" d="M31.27,577.63a1.93,1.93,0,0,0-1.91-1.71" transform="translate(-0.35 -28.35)"/><path class="cls-5" d="M29.36,608.61a1.93,1.93,0,0,0,1.91-1.73" transform="translate(-0.35 -28.35)"/><path class="cls-5" d="M23.55,592.3a1.6,1.6,0,1,0,1.6-1.6,1.6,1.6,0,0,0-1.6,1.6" transform="translate(-0.35 -28.35)"/><line class="cls-5" x1="21.94" y1="464.29" x2="69.21" y2="464.29"/><line class="cls-5" x1="69.21" y1="464.29" x2="69.21" y2="417.02"/><line class="cls-5" x1="69.21" y1="417.02" x2="21.94" y2="417.02"/><line class="cls-5" x1="21.94" y1="417.02" x2="21.94" y2="464.29"/><line class="cls-5" x1="26.28" y1="460.02" x2="64.94" y2="460.02"/><line class="cls-5" x1="64.94" y1="460.02" x2="64.94" y2="425.64"/><line class="cls-5" x1="64.94" y1="425.64" x2="26.28" y2="425.64"/><line class="cls-5" x1="26.28" y1="425.64" x2="26.28" y2="460.02"/><line class="cls-5" x1="0.51" y1="722.95" x2="0.51" y2="641.3"/><line class="cls-5" x1="0.51" y1="592.33" x2="0.51" y2="638.72"/><line class="cls-5" x1="0.51" y1="622.82" x2="0.51" y2="608.23"/><line class="cls-5" x1="0.51" y1="547.64" x2="0.51" y2="580.26"/><line class="cls-5" x1="0.51" y1="128.07" x2="7.11" y2="121.47"/><line class="cls-5" x1="0.51" y1="135.36" x2="14.4" y2="121.47"/><line class="cls-5" x1="0.51" y1="142.65" x2="17.67" y2="125.43"/><line class="cls-5" x1="0.51" y1="149.95" x2="17.67" y2="132.72"/><line class="cls-5" x1="0.51" y1="157.24" x2="17.67" y2="140.01"/><line class="cls-5" x1="0.51" y1="164.53" x2="17.67" y2="147.31"/><line class="cls-5" x1="0.51" y1="171.82" x2="17.67" y2="154.6"/><line class="cls-5" x1="0.51" y1="179.11" x2="17.67" y2="161.89"/><line class="cls-5" x1="0.51" y1="186.4" x2="17.67" y2="169.18"/><line class="cls-5" x1="0.51" y1="193.69" x2="17.67" y2="176.47"/><line class="cls-5" x1="0.51" y1="200.99" x2="17.67" y2="183.76"/><line class="cls-5" x1="1.39" y1="207.4" x2="17.67" y2="191.05"/><line class="cls-5" x1="8.68" y1="207.4" x2="17.67" y2="198.35"/><line class="cls-5" x1="15.97" y1="207.4" x2="17.67" y2="205.64"/><line class="cls-5" x1="1.26" y1="123.61" x2="3.46" y2="121.47"/><line class="cls-5" x1="0.51" y1="131.72" x2="3.09" y2="129.08"/><line class="cls-5" x1="3.97" y1="128.2" x2="3.97" y2="128.2"/><line class="cls-5" x1="4.91" y1="127.25" x2="7.61" y2="124.55"/><line class="cls-5" x1="8.55" y1="123.61" x2="8.55" y2="123.61"/><line class="cls-5" x1="9.43" y1="122.73" x2="10.75" y2="121.47"/><line class="cls-5" x1="0.51" y1="139.01" x2="2.14" y2="137.31"/><line class="cls-5" x1="3.09" y1="136.37" x2="3.09" y2="136.37"/><line class="cls-5" x1="3.97" y1="135.49" x2="6.73" y2="132.72"/><line class="cls-5" x1="7.61" y1="131.84" x2="7.61" y2="131.84"/><line class="cls-5" x1="8.55" y1="130.9" x2="11.26" y2="128.2"/><line class="cls-5" x1="12.2" y1="127.25" x2="12.2" y2="127.25"/><line class="cls-5" x1="13.08" y1="126.37" x2="15.85" y2="123.61"/><line class="cls-5" x1="16.73" y1="122.73" x2="16.73" y2="122.73"/><line class="cls-5" x1="17.67" y1="121.79" x2="17.67" y2="121.79"/><line class="cls-5" x1="0.51" y1="146.3" x2="1.26" y2="145.48"/><line class="cls-5" x1="2.14" y1="144.6" x2="2.14" y2="144.6"/><line class="cls-5" x1="3.09" y1="143.66" x2="5.79" y2="140.96"/><line class="cls-5" x1="6.73" y1="140.01" x2="6.73" y2="140.01"/><line class="cls-5" x1="7.61" y1="139.13" x2="10.38" y2="136.37"/><line class="cls-5" x1="11.26" y1="135.49" x2="11.26" y2="135.49"/><line class="cls-5" x1="12.2" y1="134.55" x2="14.9" y2="131.84"/><line class="cls-5" x1="15.85" y1="130.9" x2="15.85" y2="130.9"/><line class="cls-5" x1="16.73" y1="130.02" x2="17.67" y2="129.08"/><line class="cls-5" x1="1.26" y1="152.77" x2="1.26" y2="152.77"/><line class="cls-5" x1="2.14" y1="151.89" x2="4.91" y2="149.13"/><line class="cls-5" x1="5.79" y1="148.25" x2="5.79" y2="148.25"/><line class="cls-5" x1="6.73" y1="147.31" x2="9.43" y2="144.6"/><line class="cls-5" x1="10.38" y1="143.66" x2="10.38" y2="143.66"/><line class="cls-5" x1="11.26" y1="142.78" x2="14.02" y2="140.01"/><line class="cls-5" x1="14.9" y1="139.13" x2="14.9" y2="139.13"/><line class="cls-5" x1="15.85" y1="138.19" x2="17.67" y2="136.37"/><line class="cls-5" x1="1.26" y1="160.07" x2="3.97" y2="157.36"/><line class="cls-5" x1="4.91" y1="156.42" x2="4.91" y2="156.42"/><line class="cls-5" x1="5.79" y1="155.54" x2="8.55" y2="152.77"/><line class="cls-5" x1="9.43" y1="151.89" x2="9.43" y2="151.89"/><line class="cls-5" x1="10.38" y1="150.95" x2="13.08" y2="148.25"/><line class="cls-5" x1="14.02" y1="147.31" x2="14.02" y2="147.31"/><line class="cls-5" x1="14.9" y1="146.43" x2="17.67" y2="143.66"/><line class="cls-5" x1="0.51" y1="168.17" x2="3.09" y2="165.53"/><line class="cls-5" x1="3.97" y1="164.65" x2="3.97" y2="164.65"/><line class="cls-5" x1="4.91" y1="163.71" x2="7.61" y2="161.01"/><line class="cls-5" x1="8.55" y1="160.07" x2="8.55" y2="160.07"/><line class="cls-5" x1="9.43" y1="159.19" x2="12.2" y2="156.42"/><line class="cls-5" x1="13.08" y1="155.54" x2="13.08" y2="155.54"/><line class="cls-5" x1="14.02" y1="154.6" x2="16.73" y2="151.89"/><line class="cls-5" x1="17.67" y1="150.95" x2="17.67" y2="150.95"/><line class="cls-5" x1="0.51" y1="175.47" x2="2.14" y2="173.77"/><line class="cls-5" x1="3.09" y1="172.83" x2="3.09" y2="172.83"/><line class="cls-5" x1="3.97" y1="171.95" x2="6.73" y2="169.18"/><line class="cls-5" x1="7.61" y1="168.3" x2="7.61" y2="168.3"/><line class="cls-5" x1="8.55" y1="167.36" x2="11.26" y2="164.65"/><line class="cls-5" x1="12.2" y1="163.71" x2="12.2" y2="163.71"/><line class="cls-5" x1="13.08" y1="162.83" x2="15.85" y2="160.07"/><line class="cls-5" x1="16.73" y1="159.19" x2="16.73" y2="159.19"/><line class="cls-5" x1="17.67" y1="158.24" x2="17.67" y2="158.24"/><line class="cls-5" x1="0.51" y1="182.76" x2="1.26" y2="181.94"/><line class="cls-5" x1="2.14" y1="181.06" x2="2.14" y2="181.06"/><line class="cls-5" x1="3.09" y1="180.12" x2="5.79" y2="177.41"/><line class="cls-5" x1="6.73" y1="176.47" x2="6.73" y2="176.47"/><line class="cls-5" x1="7.61" y1="175.59" x2="10.38" y2="172.83"/><line class="cls-5" x1="11.26" y1="171.95" x2="11.26" y2="171.95"/><line class="cls-5" x1="12.2" y1="171" x2="14.9" y2="168.3"/><line class="cls-5" x1="15.85" y1="167.36" x2="15.85" y2="167.36"/><line class="cls-5" x1="16.73" y1="166.48" x2="17.67" y2="165.53"/><line class="cls-5" x1="1.26" y1="189.23" x2="1.26" y2="189.23"/><line class="cls-5" x1="2.14" y1="188.35" x2="4.91" y2="185.59"/><line class="cls-5" x1="5.79" y1="184.71" x2="5.79" y2="184.71"/><line class="cls-5" x1="6.73" y1="183.76" x2="9.43" y2="181.06"/><line class="cls-5" x1="10.38" y1="180.12" x2="10.38" y2="180.12"/><line class="cls-5" x1="11.26" y1="179.24" x2="14.02" y2="176.47"/><line class="cls-5" x1="14.9" y1="175.59" x2="14.9" y2="175.59"/><line class="cls-5" x1="15.85" y1="174.65" x2="17.67" y2="172.83"/><line class="cls-5" x1="1.26" y1="196.52" x2="3.97" y2="193.82"/><line class="cls-5" x1="4.91" y1="192.88" x2="4.91" y2="192.88"/><line class="cls-5" x1="5.79" y1="192" x2="8.55" y2="189.23"/><line class="cls-5" x1="9.43" y1="188.35" x2="9.43" y2="188.35"/><line class="cls-5" x1="10.38" y1="187.41" x2="13.08" y2="184.71"/><line class="cls-5" x1="14.02" y1="183.76" x2="14.02" y2="183.76"/><line class="cls-5" x1="14.9" y1="182.88" x2="17.67" y2="180.12"/><line class="cls-5" x1="0.51" y1="204.63" x2="3.09" y2="201.99"/><line class="cls-5" x1="3.97" y1="201.11" x2="3.97" y2="201.11"/><line class="cls-5" x1="4.91" y1="200.17" x2="7.61" y2="197.47"/><line class="cls-5" x1="8.55" y1="196.52" x2="8.55" y2="196.52"/><line class="cls-5" x1="9.43" y1="195.64" x2="12.2" y2="192.88"/><line class="cls-5" x1="13.08" y1="192" x2="13.08" y2="192"/><line class="cls-5" x1="14.02" y1="191.05" x2="16.73" y2="188.35"/><line class="cls-5" x1="17.67" y1="187.41" x2="17.67" y2="187.41"/><line class="cls-5" x1="5.03" y1="207.4" x2="6.73" y2="205.64"/><line class="cls-5" x1="7.61" y1="204.76" x2="7.61" y2="204.76"/><line class="cls-5" x1="8.55" y1="203.81" x2="11.26" y2="201.11"/><line class="cls-5" x1="12.2" y1="200.17" x2="12.2" y2="200.17"/><line class="cls-5" x1="13.08" y1="199.29" x2="15.85" y2="196.52"/><line class="cls-5" x1="16.73" y1="195.64" x2="16.73" y2="195.64"/><line class="cls-5" x1="17.67" y1="194.7" x2="17.67" y2="194.7"/><line class="cls-5" x1="12.33" y1="207.4" x2="14.9" y2="204.76"/><line class="cls-5" x1="15.85" y1="203.81" x2="15.85" y2="203.81"/><line class="cls-5" x1="16.73" y1="202.93" x2="17.67" y2="201.99"/><polyline class="cls-5" points="0.51 207.4 17.67 207.4 17.67 121.47 0.51 121.47 0.51 207.4"/><line class="cls-5" x1="0.51" y1="390.56" x2="3.21" y2="387.8"/><line class="cls-5" x1="0.51" y1="397.85" x2="10.5" y2="387.8"/><line class="cls-5" x1="0.51" y1="405.14" x2="17.67" y2="387.92"/><line class="cls-5" x1="0.51" y1="412.44" x2="17.67" y2="395.21"/><line class="cls-5" x1="0.51" y1="419.73" x2="17.67" y2="402.5"/><line class="cls-5" x1="0.51" y1="427.02" x2="17.67" y2="409.8"/><line class="cls-5" x1="0.51" y1="434.31" x2="17.67" y2="417.09"/><line class="cls-5" x1="0.51" y1="441.6" x2="17.67" y2="424.38"/><line class="cls-5" x1="0.51" y1="448.89" x2="17.67" y2="431.67"/><line class="cls-5" x1="0.51" y1="456.18" x2="17.67" y2="438.96"/><line class="cls-5" x1="0.51" y1="463.48" x2="17.67" y2="446.25"/><line class="cls-5" x1="0.51" y1="470.77" x2="17.67" y2="453.54"/><line class="cls-5" x1="0.51" y1="478.06" x2="17.67" y2="460.84"/><line class="cls-5" x1="0.51" y1="485.35" x2="17.67" y2="468.13"/><line class="cls-5" x1="2.14" y1="490.94" x2="17.67" y2="475.42"/><line class="cls-5" x1="9.43" y1="490.94" x2="17.67" y2="482.71"/><line class="cls-5" x1="16.73" y1="490.94" x2="17.67" y2="490"/><line class="cls-5" x1="0.51" y1="394.21" x2="2.14" y2="392.51"/><line class="cls-5" x1="3.09" y1="391.57" x2="3.09" y2="391.57"/><line class="cls-5" x1="3.97" y1="390.69" x2="6.73" y2="387.92"/><line class="cls-5" x1="0.51" y1="401.5" x2="1.26" y2="400.68"/><line class="cls-5" x1="2.14" y1="399.8" x2="2.14" y2="399.8"/><line class="cls-5" x1="3.09" y1="398.86" x2="5.79" y2="396.16"/><line class="cls-5" x1="6.73" y1="395.21" x2="6.73" y2="395.21"/><line class="cls-5" x1="7.61" y1="394.33" x2="10.38" y2="391.57"/><line class="cls-5" x1="11.26" y1="390.69" x2="11.26" y2="390.69"/><line class="cls-5" x1="12.2" y1="389.74" x2="14.15" y2="387.8"/><line class="cls-5" x1="1.26" y1="407.97" x2="1.26" y2="407.97"/><line class="cls-5" x1="2.14" y1="407.09" x2="4.91" y2="404.33"/><line class="cls-5" x1="5.79" y1="403.45" x2="5.79" y2="403.45"/><line class="cls-5" x1="6.73" y1="402.5" x2="9.43" y2="399.8"/><line class="cls-5" x1="10.38" y1="398.86" x2="10.38" y2="398.86"/><line class="cls-5" x1="11.26" y1="397.98" x2="14.02" y2="395.21"/><line class="cls-5" x1="14.9" y1="394.33" x2="14.9" y2="394.33"/><line class="cls-5" x1="15.85" y1="393.39" x2="17.67" y2="391.57"/><line class="cls-5" x1="1.26" y1="415.26" x2="3.97" y2="412.56"/><line class="cls-5" x1="4.91" y1="411.62" x2="4.91" y2="411.62"/><line class="cls-5" x1="5.79" y1="410.74" x2="8.55" y2="407.97"/><line class="cls-5" x1="9.43" y1="407.09" x2="9.43" y2="407.09"/><line class="cls-5" x1="10.38" y1="406.15" x2="13.08" y2="403.45"/><line class="cls-5" x1="14.02" y1="402.5" x2="14.02" y2="402.5"/><line class="cls-5" x1="14.9" y1="401.62" x2="17.67" y2="398.86"/><line class="cls-5" x1="0.51" y1="423.37" x2="3.09" y2="420.73"/><line class="cls-5" x1="3.97" y1="419.85" x2="3.97" y2="419.85"/><line class="cls-5" x1="4.91" y1="418.91" x2="7.61" y2="416.21"/><line class="cls-5" x1="8.55" y1="415.26" x2="8.55" y2="415.26"/><line class="cls-5" x1="9.43" y1="414.38" x2="12.2" y2="411.62"/><line class="cls-5" x1="13.08" y1="410.74" x2="13.08" y2="410.74"/><line class="cls-5" x1="14.02" y1="409.8" x2="16.73" y2="407.09"/><line class="cls-5" x1="17.67" y1="406.15" x2="17.67" y2="406.15"/><line class="cls-5" x1="0.51" y1="430.66" x2="2.14" y2="428.97"/><line class="cls-5" x1="3.09" y1="428.02" x2="3.09" y2="428.02"/><line class="cls-5" x1="3.97" y1="427.14" x2="6.73" y2="424.38"/><line class="cls-5" x1="7.61" y1="423.5" x2="7.61" y2="423.5"/><line class="cls-5" x1="8.55" y1="422.56" x2="11.26" y2="419.85"/><line class="cls-5" x1="12.2" y1="418.91" x2="12.2" y2="418.91"/><line class="cls-5" x1="13.08" y1="418.03" x2="15.85" y2="415.26"/><line class="cls-5" x1="16.73" y1="414.38" x2="16.73" y2="414.38"/><line class="cls-5" x1="17.67" y1="413.44" x2="17.67" y2="413.44"/><line class="cls-5" x1="0.51" y1="437.96" x2="1.26" y2="437.14"/><line class="cls-5" x1="2.14" y1="436.26" x2="2.14" y2="436.26"/><line class="cls-5" x1="3.09" y1="435.32" x2="5.79" y2="432.61"/><line class="cls-5" x1="6.73" y1="431.67" x2="6.73" y2="431.67"/><line class="cls-5" x1="7.61" y1="430.79" x2="10.38" y2="428.02"/><line class="cls-5" x1="11.26" y1="427.14" x2="11.26" y2="427.14"/><line class="cls-5" x1="12.2" y1="426.2" x2="14.9" y2="423.5"/><line class="cls-5" x1="15.85" y1="422.56" x2="15.85" y2="422.56"/><line class="cls-5" x1="16.73" y1="421.68" x2="17.67" y2="420.73"/><line class="cls-5" x1="1.26" y1="444.43" x2="1.26" y2="444.43"/><line class="cls-5" x1="2.14" y1="443.55" x2="4.91" y2="440.78"/><line class="cls-5" x1="5.79" y1="439.9" x2="5.79" y2="439.9"/><line class="cls-5" x1="6.73" y1="438.96" x2="9.43" y2="436.26"/><line class="cls-5" x1="10.38" y1="435.32" x2="10.38" y2="435.32"/><line class="cls-5" x1="11.26" y1="434.44" x2="14.02" y2="431.67"/><line class="cls-5" x1="14.9" y1="430.79" x2="14.9" y2="430.79"/><line class="cls-5" x1="15.85" y1="429.85" x2="17.67" y2="428.02"/><line class="cls-5" x1="1.26" y1="451.72" x2="3.97" y2="449.02"/><line class="cls-5" x1="4.91" y1="448.08" x2="4.91" y2="448.08"/><line class="cls-5" x1="5.79" y1="447.2" x2="8.55" y2="444.43"/><line class="cls-5" x1="9.43" y1="443.55" x2="9.43" y2="443.55"/><line class="cls-5" x1="10.38" y1="442.61" x2="13.08" y2="439.9"/><line class="cls-5" x1="14.02" y1="438.96" x2="14.02" y2="438.96"/><line class="cls-5" x1="14.9" y1="438.08" x2="17.67" y2="435.32"/><line class="cls-5" x1="0.51" y1="459.83" x2="3.09" y2="457.19"/><line class="cls-5" x1="3.97" y1="456.31" x2="3.97" y2="456.31"/><line class="cls-5" x1="4.91" y1="455.37" x2="7.61" y2="452.66"/><line class="cls-5" x1="8.55" y1="451.72" x2="8.55" y2="451.72"/><line class="cls-5" x1="9.43" y1="450.84" x2="12.2" y2="448.08"/><line class="cls-5" x1="13.08" y1="447.2" x2="13.08" y2="447.2"/><line class="cls-5" x1="14.02" y1="446.25" x2="16.73" y2="443.55"/><line class="cls-5" x1="17.67" y1="442.61" x2="17.67" y2="442.61"/><line class="cls-5" x1="0.51" y1="467.12" x2="2.14" y2="465.42"/><line class="cls-5" x1="3.09" y1="464.48" x2="3.09" y2="464.48"/><line class="cls-5" x1="3.97" y1="463.6" x2="6.73" y2="460.84"/><line class="cls-5" x1="7.61" y1="459.96" x2="7.61" y2="459.96"/><line class="cls-5" x1="8.55" y1="459.01" x2="11.26" y2="456.31"/><line class="cls-5" x1="12.2" y1="455.37" x2="12.2" y2="455.37"/><line class="cls-5" x1="13.08" y1="454.49" x2="15.85" y2="451.72"/><line class="cls-5" x1="16.73" y1="450.84" x2="16.73" y2="450.84"/><line class="cls-5" x1="17.67" y1="449.9" x2="17.67" y2="449.9"/><line class="cls-5" x1="0.51" y1="474.41" x2="1.26" y2="473.6"/><line class="cls-5" x1="2.14" y1="472.72" x2="2.14" y2="472.72"/><line class="cls-5" x1="3.09" y1="471.77" x2="5.79" y2="469.07"/><line class="cls-5" x1="6.73" y1="468.13" x2="6.73" y2="468.13"/><line class="cls-5" x1="7.61" y1="467.25" x2="10.38" y2="464.48"/><line class="cls-5" x1="11.26" y1="463.6" x2="11.26" y2="463.6"/><line class="cls-5" x1="12.2" y1="462.66" x2="14.9" y2="459.96"/><line class="cls-5" x1="15.85" y1="459.01" x2="15.85" y2="459.01"/><line class="cls-5" x1="16.73" y1="458.13" x2="17.67" y2="457.19"/><line class="cls-5" x1="1.26" y1="480.89" x2="1.26" y2="480.89"/><line class="cls-5" x1="2.14" y1="480.01" x2="4.91" y2="477.24"/><line class="cls-5" x1="5.79" y1="476.36" x2="5.79" y2="476.36"/><line class="cls-5" x1="6.73" y1="475.42" x2="9.43" y2="472.72"/><line class="cls-5" x1="10.38" y1="471.77" x2="10.38" y2="471.77"/><line class="cls-5" x1="11.26" y1="470.89" x2="14.02" y2="468.13"/><line class="cls-5" x1="14.9" y1="467.25" x2="14.9" y2="467.25"/><line class="cls-5" x1="15.85" y1="466.3" x2="17.67" y2="464.48"/><line class="cls-5" x1="1.26" y1="488.18" x2="3.97" y2="485.48"/><line class="cls-5" x1="4.91" y1="484.53" x2="4.91" y2="484.53"/><line class="cls-5" x1="5.79" y1="483.65" x2="8.55" y2="480.89"/><line class="cls-5" x1="9.43" y1="480.01" x2="9.43" y2="480.01"/><line class="cls-5" x1="10.38" y1="479.06" x2="13.08" y2="476.36"/><line class="cls-5" x1="14.02" y1="475.42" x2="14.02" y2="475.42"/><line class="cls-5" x1="14.9" y1="474.54" x2="17.67" y2="471.77"/><line class="cls-5" x1="5.79" y1="490.94" x2="7.61" y2="489.12"/><line class="cls-5" x1="8.55" y1="488.18" x2="8.55" y2="488.18"/><line class="cls-5" x1="9.43" y1="487.3" x2="12.2" y2="484.53"/><line class="cls-5" x1="13.08" y1="483.65" x2="13.08" y2="483.65"/><line class="cls-5" x1="14.02" y1="482.71" x2="16.73" y2="480.01"/><line class="cls-5" x1="17.67" y1="479.06" x2="17.67" y2="479.06"/><line class="cls-5" x1="13.08" y1="490.94" x2="15.85" y2="488.18"/><line class="cls-5" x1="16.73" y1="487.3" x2="16.73" y2="487.3"/><line class="cls-5" x1="17.67" y1="486.36" x2="17.67" y2="486.36"/><polyline class="cls-5" points="17.67 387.8 0.51 387.8 0.51 490.94 17.67 490.94 17.67 387.8"/><line class="cls-5" x1="309.83" y1="124.93" x2="313.35" y2="121.47"/><line class="cls-5" x1="309.83" y1="132.22" x2="320.57" y2="121.47"/><line class="cls-5" x1="309.83" y1="139.51" x2="326.99" y2="122.35"/><line class="cls-5" x1="309.83" y1="146.8" x2="326.99" y2="129.64"/><line class="cls-5" x1="309.83" y1="154.09" x2="326.99" y2="136.93"/><line class="cls-5" x1="309.83" y1="161.39" x2="326.99" y2="144.23"/><line class="cls-5" x1="309.83" y1="168.68" x2="326.99" y2="151.52"/><line class="cls-5" x1="309.83" y1="175.97" x2="326.99" y2="158.81"/><line class="cls-5" x1="309.83" y1="183.26" x2="326.99" y2="166.1"/><line class="cls-5" x1="309.83" y1="190.55" x2="326.99" y2="173.39"/><line class="cls-5" x1="309.83" y1="197.84" x2="326.99" y2="180.68"/><line class="cls-5" x1="309.83" y1="205.13" x2="326.99" y2="187.97"/><line class="cls-5" x1="314.85" y1="207.4" x2="326.99" y2="195.27"/><line class="cls-5" x1="322.15" y1="207.4" x2="326.99" y2="202.56"/><line class="cls-5" x1="309.83" y1="128.57" x2="311.15" y2="127.25"/><line class="cls-5" x1="312.03" y1="126.37" x2="312.03" y2="126.37"/><line class="cls-5" x1="312.97" y1="125.43" x2="315.67" y2="122.73"/><line class="cls-5" x1="316.61" y1="121.79" x2="316.61" y2="121.79"/><line class="cls-5" x1="309.83" y1="135.87" x2="310.2" y2="135.49"/><line class="cls-5" x1="311.15" y1="134.55" x2="311.15" y2="134.55"/><line class="cls-5" x1="312.03" y1="133.67" x2="314.79" y2="130.9"/><line class="cls-5" x1="315.67" y1="130.02" x2="315.67" y2="130.02"/><line class="cls-5" x1="316.61" y1="129.08" x2="319.32" y2="126.37"/><line class="cls-5" x1="320.26" y1="125.43" x2="320.26" y2="125.43"/><line class="cls-5" x1="321.14" y1="124.55" x2="323.91" y2="121.79"/><line class="cls-5" x1="310.2" y1="142.78" x2="310.2" y2="142.78"/><line class="cls-5" x1="311.15" y1="141.84" x2="313.85" y2="139.13"/><line class="cls-5" x1="314.79" y1="138.19" x2="314.79" y2="138.19"/><line class="cls-5" x1="315.67" y1="137.31" x2="318.44" y2="134.55"/><line class="cls-5" x1="319.32" y1="133.67" x2="319.32" y2="133.67"/><line class="cls-5" x1="320.26" y1="132.72" x2="322.96" y2="130.02"/><line class="cls-5" x1="323.91" y1="129.08" x2="323.91" y2="129.08"/><line class="cls-5" x1="324.79" y1="128.2" x2="326.99" y2="126"/><line class="cls-5" x1="310.2" y1="150.07" x2="312.97" y2="147.31"/><line class="cls-5" x1="313.85" y1="146.43" x2="313.85" y2="146.43"/><line class="cls-5" x1="314.79" y1="145.48" x2="317.49" y2="142.78"/><line class="cls-5" x1="318.44" y1="141.84" x2="318.44" y2="141.84"/><line class="cls-5" x1="319.32" y1="140.96" x2="322.08" y2="138.19"/><line class="cls-5" x1="322.96" y1="137.31" x2="322.96" y2="137.31"/><line class="cls-5" x1="323.91" y1="136.37" x2="326.61" y2="133.67"/><line class="cls-5" x1="309.83" y1="157.74" x2="312.03" y2="155.54"/><line class="cls-5" x1="312.97" y1="154.6" x2="312.97" y2="154.6"/><line class="cls-5" x1="313.85" y1="153.72" x2="316.61" y2="150.95"/><line class="cls-5" x1="317.49" y1="150.07" x2="317.49" y2="150.07"/><line class="cls-5" x1="318.44" y1="149.13" x2="321.14" y2="146.43"/><line class="cls-5" x1="322.08" y1="145.48" x2="322.08" y2="145.48"/><line class="cls-5" x1="322.96" y1="144.6" x2="325.73" y2="141.84"/><line class="cls-5" x1="326.61" y1="140.96" x2="326.61" y2="140.96"/><line class="cls-5" x1="309.83" y1="165.03" x2="311.15" y2="163.71"/><line class="cls-5" x1="312.03" y1="162.83" x2="312.03" y2="162.83"/><line class="cls-5" x1="312.97" y1="161.89" x2="315.67" y2="159.19"/><line class="cls-5" x1="316.61" y1="158.24" x2="316.61" y2="158.24"/><line class="cls-5" x1="317.49" y1="157.36" x2="320.26" y2="154.6"/><line class="cls-5" x1="321.14" y1="153.72" x2="321.14" y2="153.72"/><line class="cls-5" x1="322.08" y1="152.77" x2="324.79" y2="150.07"/><line class="cls-5" x1="325.73" y1="149.13" x2="325.73" y2="149.13"/><line class="cls-5" x1="326.61" y1="148.25" x2="326.99" y2="147.87"/><line class="cls-5" x1="309.83" y1="172.32" x2="310.2" y2="171.95"/><line class="cls-5" x1="311.15" y1="171" x2="311.15" y2="171"/><line class="cls-5" x1="312.03" y1="170.12" x2="314.79" y2="167.36"/><line class="cls-5" x1="315.67" y1="166.48" x2="315.67" y2="166.48"/><line class="cls-5" x1="316.61" y1="165.53" x2="319.32" y2="162.83"/><line class="cls-5" x1="320.26" y1="161.89" x2="320.26" y2="161.89"/><line class="cls-5" x1="321.14" y1="161.01" x2="323.91" y2="158.24"/><line class="cls-5" x1="324.79" y1="157.36" x2="324.79" y2="157.36"/><line class="cls-5" x1="325.73" y1="156.42" x2="326.99" y2="155.16"/><line class="cls-5" x1="310.2" y1="179.24" x2="310.2" y2="179.24"/><line class="cls-5" x1="311.15" y1="178.29" x2="313.85" y2="175.59"/><line class="cls-5" x1="314.79" y1="174.65" x2="314.79" y2="174.65"/><line class="cls-5" x1="315.67" y1="173.77" x2="318.44" y2="171"/><line class="cls-5" x1="319.32" y1="170.12" x2="319.32" y2="170.12"/><line class="cls-5" x1="320.26" y1="169.18" x2="322.96" y2="166.48"/><line class="cls-5" x1="323.91" y1="165.53" x2="323.91" y2="165.53"/><line class="cls-5" x1="324.79" y1="164.65" x2="326.99" y2="162.45"/><line class="cls-5" x1="310.2" y1="186.53" x2="312.97" y2="183.76"/><line class="cls-5" x1="313.85" y1="182.88" x2="313.85" y2="182.88"/><line class="cls-5" x1="314.79" y1="181.94" x2="317.49" y2="179.24"/><line class="cls-5" x1="318.44" y1="178.29" x2="318.44" y2="178.29"/><line class="cls-5" x1="319.32" y1="177.41" x2="322.08" y2="174.65"/><line class="cls-5" x1="322.96" y1="173.77" x2="322.96" y2="173.77"/><line class="cls-5" x1="323.91" y1="172.83" x2="326.61" y2="170.12"/><line class="cls-5" x1="309.83" y1="194.2" x2="312.03" y2="192"/><line class="cls-5" x1="312.97" y1="191.05" x2="312.97" y2="191.05"/><line class="cls-5" x1="313.85" y1="190.17" x2="316.61" y2="187.41"/><line class="cls-5" x1="317.49" y1="186.53" x2="317.49" y2="186.53"/><line class="cls-5" x1="318.44" y1="185.59" x2="321.14" y2="182.88"/><line class="cls-5" x1="322.08" y1="181.94" x2="322.08" y2="181.94"/><line class="cls-5" x1="322.96" y1="181.06" x2="325.73" y2="178.29"/><line class="cls-5" x1="326.61" y1="177.41" x2="326.61" y2="177.41"/><line class="cls-5" x1="309.83" y1="201.49" x2="311.15" y2="200.17"/><line class="cls-5" x1="312.03" y1="199.29" x2="312.03" y2="199.29"/><line class="cls-5" x1="312.97" y1="198.35" x2="315.67" y2="195.64"/><line class="cls-5" x1="316.61" y1="194.7" x2="316.61" y2="194.7"/><line class="cls-5" x1="317.49" y1="193.82" x2="320.26" y2="191.05"/><line class="cls-5" x1="321.14" y1="190.17" x2="321.14" y2="190.17"/><line class="cls-5" x1="322.08" y1="189.23" x2="324.79" y2="186.53"/><line class="cls-5" x1="325.73" y1="185.59" x2="325.73" y2="185.59"/><line class="cls-5" x1="326.61" y1="184.71" x2="326.99" y2="184.33"/><line class="cls-5" x1="312.03" y1="206.58" x2="314.79" y2="203.81"/><line class="cls-5" x1="315.67" y1="202.93" x2="315.67" y2="202.93"/><line class="cls-5" x1="316.61" y1="201.99" x2="319.32" y2="199.29"/><line class="cls-5" x1="320.26" y1="198.35" x2="320.26" y2="198.35"/><line class="cls-5" x1="321.14" y1="197.47" x2="323.91" y2="194.7"/><line class="cls-5" x1="324.79" y1="193.82" x2="324.79" y2="193.82"/><line class="cls-5" x1="325.73" y1="192.88" x2="326.99" y2="191.62"/><line class="cls-5" x1="319.32" y1="206.58" x2="319.32" y2="206.58"/><line class="cls-5" x1="320.26" y1="205.64" x2="322.96" y2="202.93"/><line class="cls-5" x1="323.91" y1="201.99" x2="323.91" y2="201.99"/><line class="cls-5" x1="324.79" y1="201.11" x2="326.99" y2="198.91"/><line class="cls-5" x1="325.79" y1="207.4" x2="326.61" y2="206.58"/><polyline class="cls-5" points="309.83 207.4 326.99 207.4 326.99 121.47 309.83 121.47 309.83 207.4"/><line class="cls-5" x1="309.83" y1="409.29" x2="314.1" y2="405.02"/><line class="cls-5" x1="309.83" y1="416.58" x2="321.39" y2="405.02"/><line class="cls-5" x1="309.83" y1="423.88" x2="326.99" y2="406.72"/><line class="cls-5" x1="309.83" y1="431.17" x2="326.99" y2="414.01"/><line class="cls-5" x1="309.83" y1="438.46" x2="326.99" y2="421.3"/><line class="cls-5" x1="309.83" y1="445.75" x2="326.99" y2="428.59"/><line class="cls-5" x1="309.83" y1="453.04" x2="326.99" y2="435.88"/><line class="cls-5" x1="309.83" y1="460.33" x2="326.99" y2="443.17"/><line class="cls-5" x1="309.83" y1="467.62" x2="326.99" y2="450.46"/><line class="cls-5" x1="309.83" y1="474.92" x2="326.99" y2="457.76"/><line class="cls-5" x1="309.83" y1="482.21" x2="326.99" y2="465.05"/><line class="cls-5" x1="309.83" y1="489.5" x2="326.99" y2="472.34"/><line class="cls-5" x1="315.67" y1="490.94" x2="326.99" y2="479.63"/><line class="cls-5" x1="322.96" y1="490.94" x2="326.99" y2="486.92"/><line class="cls-5" x1="310.2" y1="405.27" x2="310.45" y2="405.02"/><line class="cls-5" x1="309.83" y1="412.94" x2="312.03" y2="410.74"/><line class="cls-5" x1="312.97" y1="409.8" x2="312.97" y2="409.8"/><line class="cls-5" x1="313.85" y1="408.92" x2="316.61" y2="406.15"/><line class="cls-5" x1="317.49" y1="405.27" x2="317.49" y2="405.27"/><line class="cls-5" x1="309.83" y1="420.23" x2="311.15" y2="418.91"/><line class="cls-5" x1="312.03" y1="418.03" x2="312.03" y2="418.03"/><line class="cls-5" x1="312.97" y1="417.09" x2="315.67" y2="414.38"/><line class="cls-5" x1="316.61" y1="413.44" x2="316.61" y2="413.44"/><line class="cls-5" x1="317.49" y1="412.56" x2="320.26" y2="409.8"/><line class="cls-5" x1="321.14" y1="408.92" x2="321.14" y2="408.92"/><line class="cls-5" x1="322.08" y1="407.97" x2="324.79" y2="405.27"/><line class="cls-5" x1="309.83" y1="427.52" x2="310.2" y2="427.14"/><line class="cls-5" x1="311.15" y1="426.2" x2="311.15" y2="426.2"/><line class="cls-5" x1="312.03" y1="425.32" x2="314.79" y2="422.56"/><line class="cls-5" x1="315.67" y1="421.68" x2="315.67" y2="421.68"/><line class="cls-5" x1="316.61" y1="420.73" x2="319.32" y2="418.03"/><line class="cls-5" x1="320.26" y1="417.09" x2="320.26" y2="417.09"/><line class="cls-5" x1="321.14" y1="416.21" x2="323.91" y2="413.44"/><line class="cls-5" x1="324.79" y1="412.56" x2="324.79" y2="412.56"/><line class="cls-5" x1="325.73" y1="411.62" x2="326.99" y2="410.36"/><line class="cls-5" x1="310.2" y1="434.44" x2="310.2" y2="434.44"/><line class="cls-5" x1="311.15" y1="433.49" x2="313.85" y2="430.79"/><line class="cls-5" x1="314.79" y1="429.85" x2="314.79" y2="429.85"/><line class="cls-5" x1="315.67" y1="428.97" x2="318.44" y2="426.2"/><line class="cls-5" x1="319.32" y1="425.32" x2="319.32" y2="425.32"/><line class="cls-5" x1="320.26" y1="424.38" x2="322.96" y2="421.68"/><line class="cls-5" x1="323.91" y1="420.73" x2="323.91" y2="420.73"/><line class="cls-5" x1="324.79" y1="419.85" x2="326.99" y2="417.65"/><line class="cls-5" x1="310.2" y1="441.73" x2="312.97" y2="438.96"/><line class="cls-5" x1="313.85" y1="438.08" x2="313.85" y2="438.08"/><line class="cls-5" x1="314.79" y1="437.14" x2="317.49" y2="434.44"/><line class="cls-5" x1="318.44" y1="433.49" x2="318.44" y2="433.49"/><line class="cls-5" x1="319.32" y1="432.61" x2="322.08" y2="429.85"/><line class="cls-5" x1="322.96" y1="428.97" x2="322.96" y2="428.97"/><line class="cls-5" x1="323.91" y1="428.02" x2="326.61" y2="425.32"/><line class="cls-5" x1="309.83" y1="449.4" x2="312.03" y2="447.2"/><line class="cls-5" x1="312.97" y1="446.25" x2="312.97" y2="446.25"/><line class="cls-5" x1="313.85" y1="445.37" x2="316.61" y2="442.61"/><line class="cls-5" x1="317.49" y1="441.73" x2="317.49" y2="441.73"/><line class="cls-5" x1="318.44" y1="440.78" x2="321.14" y2="438.08"/><line class="cls-5" x1="322.08" y1="437.14" x2="322.08" y2="437.14"/><line class="cls-5" x1="322.96" y1="436.26" x2="325.73" y2="433.49"/><line class="cls-5" x1="326.61" y1="432.61" x2="326.61" y2="432.61"/><line class="cls-5" x1="309.83" y1="456.69" x2="311.15" y2="455.37"/><line class="cls-5" x1="312.03" y1="454.49" x2="312.03" y2="454.49"/><line class="cls-5" x1="312.97" y1="453.54" x2="315.67" y2="450.84"/><line class="cls-5" x1="316.61" y1="449.9" x2="316.61" y2="449.9"/><line class="cls-5" x1="317.49" y1="449.02" x2="320.26" y2="446.25"/><line class="cls-5" x1="321.14" y1="445.37" x2="321.14" y2="445.37"/><line class="cls-5" x1="322.08" y1="444.43" x2="324.79" y2="441.73"/><line class="cls-5" x1="325.73" y1="440.78" x2="325.73" y2="440.78"/><line class="cls-5" x1="326.61" y1="439.9" x2="326.99" y2="439.53"/><line class="cls-5" x1="309.83" y1="463.98" x2="310.2" y2="463.6"/><line class="cls-5" x1="311.15" y1="462.66" x2="311.15" y2="462.66"/><line class="cls-5" x1="312.03" y1="461.78" x2="314.79" y2="459.01"/><line class="cls-5" x1="315.67" y1="458.13" x2="315.67" y2="458.13"/><line class="cls-5" x1="316.61" y1="457.19" x2="319.32" y2="454.49"/><line class="cls-5" x1="320.26" y1="453.54" x2="320.26" y2="453.54"/><line class="cls-5" x1="321.14" y1="452.66" x2="323.91" y2="449.9"/><line class="cls-5" x1="324.79" y1="449.02" x2="324.79" y2="449.02"/><line class="cls-5" x1="325.73" y1="448.08" x2="326.99" y2="446.82"/><line class="cls-5" x1="310.2" y1="470.89" x2="310.2" y2="470.89"/><line class="cls-5" x1="311.15" y1="469.95" x2="313.85" y2="467.25"/><line class="cls-5" x1="314.79" y1="466.3" x2="314.79" y2="466.3"/><line class="cls-5" x1="315.67" y1="465.42" x2="318.44" y2="462.66"/><line class="cls-5" x1="319.32" y1="461.78" x2="319.32" y2="461.78"/><line class="cls-5" x1="320.26" y1="460.84" x2="322.96" y2="458.13"/><line class="cls-5" x1="323.91" y1="457.19" x2="323.91" y2="457.19"/><line class="cls-5" x1="324.79" y1="456.31" x2="326.99" y2="454.11"/><line class="cls-5" x1="310.2" y1="478.18" x2="312.97" y2="475.42"/><line class="cls-5" x1="313.85" y1="474.54" x2="313.85" y2="474.54"/><line class="cls-5" x1="314.79" y1="473.6" x2="317.49" y2="470.89"/><line class="cls-5" x1="318.44" y1="469.95" x2="318.44" y2="469.95"/><line class="cls-5" x1="319.32" y1="469.07" x2="322.08" y2="466.3"/><line class="cls-5" x1="322.96" y1="465.42" x2="322.96" y2="465.42"/><line class="cls-5" x1="323.91" y1="464.48" x2="326.61" y2="461.78"/><line class="cls-5" x1="309.83" y1="485.85" x2="312.03" y2="483.65"/><line class="cls-5" x1="312.97" y1="482.71" x2="312.97" y2="482.71"/><line class="cls-5" x1="313.85" y1="481.83" x2="316.61" y2="479.06"/><line class="cls-5" x1="317.49" y1="478.18" x2="317.49" y2="478.18"/><line class="cls-5" x1="318.44" y1="477.24" x2="321.14" y2="474.54"/><line class="cls-5" x1="322.08" y1="473.6" x2="322.08" y2="473.6"/><line class="cls-5" x1="322.96" y1="472.72" x2="325.73" y2="469.95"/><line class="cls-5" x1="326.61" y1="469.07" x2="326.61" y2="469.07"/><line class="cls-5" x1="312.97" y1="490" x2="315.67" y2="487.3"/><line class="cls-5" x1="316.61" y1="486.36" x2="316.61" y2="486.36"/><line class="cls-5" x1="317.49" y1="485.48" x2="320.26" y2="482.71"/><line class="cls-5" x1="321.14" y1="481.83" x2="321.14" y2="481.83"/><line class="cls-5" x1="322.08" y1="480.89" x2="324.79" y2="478.18"/><line class="cls-5" x1="325.73" y1="477.24" x2="325.73" y2="477.24"/><line class="cls-5" x1="326.61" y1="476.36" x2="326.99" y2="475.98"/><line class="cls-5" x1="320.26" y1="490" x2="320.26" y2="490"/><line class="cls-5" x1="321.14" y1="489.12" x2="323.91" y2="486.36"/><line class="cls-5" x1="324.79" y1="485.48" x2="324.79" y2="485.48"/><line class="cls-5" x1="325.73" y1="484.53" x2="326.99" y2="483.28"/><line class="cls-5" x1="326.61" y1="490.94" x2="326.99" y2="490.57"/><polyline class="cls-5" points="326.99 405.02 309.83 405.02 309.83 490.94 326.99 490.94 326.99 405.02"/><line class="cls-5" x1="3.46" y1="722.95" x2="20.69" y2="705.73"/><line class="cls-5" x1="10.75" y1="722.95" x2="26.28" y2="707.42"/><line class="cls-5" x1="18.05" y1="722.95" x2="26.28" y2="714.71"/><line class="cls-5" x1="25.34" y1="722.95" x2="26.28" y2="722"/><line class="cls-5" x1="0.51" y1="707.86" x2="0.51" y2="707.86"/><line class="cls-5" x1="0.51" y1="706.92" x2="0.51" y2="705.73"/><line class="cls-5" x1="0.51" y1="706.92" x2="0.51" y2="706.92"/><line class="cls-5" x1="0.51" y1="706.04" x2="0.51" y2="705.73"/><line class="cls-5" x1="0.51" y1="706.04" x2="0.51" y2="706.04"/><line class="cls-5" x1="0.51" y1="722.44" x2="0.51" y2="722.44"/><line class="cls-5" x1="0.51" y1="707.86" x2="0.51" y2="705.73"/><line class="cls-5" x1="0.51" y1="722.95" x2="0.51" y2="722.44"/><line class="cls-5" x1="0.51" y1="721.5" x2="0.51" y2="721.5"/><line class="cls-5" x1="0.51" y1="707.86" x2="0.51" y2="707.86"/><line class="cls-5" x1="1.26" y1="706.92" x2="2.46" y2="705.73"/><line class="cls-5" x1="0.51" y1="722.95" x2="0.51" y2="721.5"/><line class="cls-5" x1="0.51" y1="715.15" x2="3.09" y2="712.39"/><line class="cls-5" x1="3.97" y1="711.51" x2="3.97" y2="711.51"/><line class="cls-5" x1="4.91" y1="710.56" x2="7.61" y2="707.86"/><line class="cls-5" x1="8.55" y1="706.92" x2="8.55" y2="706.92"/><line class="cls-5" x1="9.43" y1="706.04" x2="9.75" y2="705.73"/><line class="cls-5" x1="0.51" y1="722.95" x2="2.14" y2="720.62"/><line class="cls-5" x1="3.09" y1="719.68" x2="3.09" y2="719.68"/><line class="cls-5" x1="3.97" y1="718.8" x2="6.73" y2="716.03"/><line class="cls-5" x1="7.61" y1="715.15" x2="7.61" y2="715.15"/><line class="cls-5" x1="8.55" y1="714.21" x2="11.26" y2="711.51"/><line class="cls-5" x1="12.2" y1="710.56" x2="12.2" y2="710.56"/><line class="cls-5" x1="13.08" y1="709.69" x2="15.85" y2="706.92"/><line class="cls-5" x1="16.73" y1="706.04" x2="16.73" y2="706.04"/><line class="cls-5" x1="7.61" y1="722.44" x2="10.38" y2="719.68"/><line class="cls-5" x1="11.26" y1="718.8" x2="11.26" y2="718.8"/><line class="cls-5" x1="12.2" y1="717.86" x2="14.9" y2="715.15"/><line class="cls-5" x1="15.85" y1="714.21" x2="15.85" y2="714.21"/><line class="cls-5" x1="16.73" y1="713.33" x2="19.49" y2="710.56"/><line class="cls-5" x1="20.37" y1="709.69" x2="20.37" y2="709.69"/><line class="cls-5" x1="21.31" y1="708.74" x2="24.02" y2="706.04"/><line class="cls-5" x1="14.9" y1="722.44" x2="14.9" y2="722.44"/><line class="cls-5" x1="15.85" y1="721.5" x2="18.55" y2="718.8"/><line class="cls-5" x1="19.49" y1="717.86" x2="19.49" y2="717.86"/><line class="cls-5" x1="20.37" y1="716.98" x2="23.14" y2="714.21"/><line class="cls-5" x1="24.02" y1="713.33" x2="24.02" y2="713.33"/><line class="cls-5" x1="24.96" y1="712.39" x2="26.28" y2="711.07"/><line class="cls-5" x1="21.69" y1="722.95" x2="22.19" y2="722.44"/><line class="cls-5" x1="23.14" y1="721.5" x2="23.14" y2="721.5"/><line class="cls-5" x1="24.02" y1="720.62" x2="26.28" y2="718.36"/><polyline class="cls-5" points="0.51 705.73 26.28 705.73 26.28 722.95 0.51 722.95"/><line class="cls-5" x1="309.83" y1="642.62" x2="315.42" y2="637.02"/><line class="cls-5" x1="309.83" y1="649.91" x2="322.71" y2="637.02"/><line class="cls-5" x1="309.83" y1="657.2" x2="326.99" y2="640.04"/><line class="cls-5" x1="309.83" y1="664.49" x2="326.99" y2="647.33"/><line class="cls-5" x1="309.83" y1="671.78" x2="326.99" y2="654.62"/><line class="cls-5" x1="309.83" y1="679.07" x2="326.99" y2="661.91"/><line class="cls-5" x1="309.83" y1="686.37" x2="326.99" y2="669.21"/><line class="cls-5" x1="309.83" y1="693.66" x2="326.99" y2="676.5"/><line class="cls-5" x1="309.83" y1="700.95" x2="326.99" y2="683.73"/><line class="cls-5" x1="309.83" y1="708.24" x2="326.99" y2="691.02"/><line class="cls-5" x1="309.83" y1="715.53" x2="326.99" y2="698.31"/><line class="cls-5" x1="309.83" y1="722.82" x2="326.99" y2="705.6"/><line class="cls-5" x1="316.99" y1="722.95" x2="326.99" y2="712.89"/><line class="cls-5" x1="324.28" y1="722.95" x2="326.99" y2="720.18"/><line class="cls-5" x1="309.83" y1="638.97" x2="311.15" y2="637.65"/><line class="cls-5" x1="309.83" y1="646.26" x2="310.2" y2="645.89"/><line class="cls-5" x1="311.15" y1="644.94" x2="311.15" y2="644.94"/><line class="cls-5" x1="312.03" y1="644.06" x2="314.79" y2="641.3"/><line class="cls-5" x1="315.67" y1="640.42" x2="315.67" y2="640.42"/><line class="cls-5" x1="316.61" y1="639.47" x2="319.07" y2="637.02"/><line class="cls-5" x1="310.2" y1="653.18" x2="310.2" y2="653.18"/><line class="cls-5" x1="311.15" y1="652.23" x2="313.85" y2="649.53"/><line class="cls-5" x1="314.79" y1="648.59" x2="314.79" y2="648.59"/><line class="cls-5" x1="315.67" y1="647.71" x2="318.44" y2="644.94"/><line class="cls-5" x1="319.32" y1="644.06" x2="319.32" y2="644.06"/><line class="cls-5" x1="320.26" y1="643.12" x2="322.96" y2="640.42"/><line class="cls-5" x1="323.91" y1="639.47" x2="323.91" y2="639.47"/><line class="cls-5" x1="324.79" y1="638.59" x2="326.36" y2="637.02"/><line class="cls-5" x1="310.2" y1="660.47" x2="312.97" y2="657.7"/><line class="cls-5" x1="313.85" y1="656.82" x2="313.85" y2="656.82"/><line class="cls-5" x1="314.79" y1="655.88" x2="317.49" y2="653.18"/><line class="cls-5" x1="318.44" y1="652.23" x2="318.44" y2="652.23"/><line class="cls-5" x1="319.32" y1="651.35" x2="322.08" y2="648.59"/><line class="cls-5" x1="322.96" y1="647.71" x2="322.96" y2="647.71"/><line class="cls-5" x1="323.91" y1="646.77" x2="326.61" y2="644.06"/><line class="cls-5" x1="309.83" y1="668.14" x2="312.03" y2="665.94"/><line class="cls-5" x1="312.97" y1="664.99" x2="312.97" y2="664.99"/><line class="cls-5" x1="313.85" y1="664.11" x2="316.61" y2="661.35"/><line class="cls-5" x1="317.49" y1="660.47" x2="317.49" y2="660.47"/><line class="cls-5" x1="318.44" y1="659.53" x2="321.14" y2="656.82"/><line class="cls-5" x1="322.08" y1="655.88" x2="322.08" y2="655.88"/><line class="cls-5" x1="322.96" y1="655" x2="325.73" y2="652.23"/><line class="cls-5" x1="326.61" y1="651.35" x2="326.61" y2="651.35"/><line class="cls-5" x1="309.83" y1="675.43" x2="311.15" y2="674.11"/><line class="cls-5" x1="312.03" y1="673.23" x2="312.03" y2="673.23"/><line class="cls-5" x1="312.97" y1="672.29" x2="315.67" y2="669.58"/><line class="cls-5" x1="316.61" y1="668.64" x2="316.61" y2="668.64"/><line class="cls-5" x1="317.49" y1="667.76" x2="320.26" y2="664.99"/><line class="cls-5" x1="321.14" y1="664.11" x2="321.14" y2="664.11"/><line class="cls-5" x1="322.08" y1="663.17" x2="324.79" y2="660.47"/><line class="cls-5" x1="325.73" y1="659.53" x2="325.73" y2="659.53"/><line class="cls-5" x1="326.61" y1="658.65" x2="326.99" y2="658.27"/><line class="cls-5" x1="309.83" y1="682.72" x2="310.2" y2="682.34"/><line class="cls-5" x1="311.15" y1="681.4" x2="311.15" y2="681.4"/><line class="cls-5" x1="312.03" y1="680.52" x2="314.79" y2="677.75"/><line class="cls-5" x1="315.67" y1="676.87" x2="315.67" y2="676.87"/><line class="cls-5" x1="316.61" y1="675.93" x2="319.32" y2="673.23"/><line class="cls-5" x1="320.26" y1="672.29" x2="320.26" y2="672.29"/><line class="cls-5" x1="321.14" y1="671.41" x2="323.91" y2="668.64"/><line class="cls-5" x1="324.79" y1="667.76" x2="324.79" y2="667.76"/><line class="cls-5" x1="325.73" y1="666.82" x2="326.99" y2="665.56"/><line class="cls-5" x1="310.2" y1="689.63" x2="310.2" y2="689.63"/><line class="cls-5" x1="311.15" y1="688.69" x2="313.85" y2="685.99"/><line class="cls-5" x1="314.79" y1="685.05" x2="314.79" y2="685.05"/><line class="cls-5" x1="315.67" y1="684.17" x2="318.44" y2="681.4"/><line class="cls-5" x1="319.32" y1="680.52" x2="319.32" y2="680.52"/><line class="cls-5" x1="320.26" y1="679.58" x2="322.96" y2="676.87"/><line class="cls-5" x1="323.91" y1="675.93" x2="323.91" y2="675.93"/><line class="cls-5" x1="324.79" y1="675.05" x2="326.99" y2="672.85"/><line class="cls-5" x1="310.2" y1="696.93" x2="312.97" y2="694.16"/><line class="cls-5" x1="313.85" y1="693.28" x2="313.85" y2="693.28"/><line class="cls-5" x1="314.79" y1="692.34" x2="317.49" y2="689.63"/><line class="cls-5" x1="318.44" y1="688.69" x2="318.44" y2="688.69"/><line class="cls-5" x1="319.32" y1="687.81" x2="322.08" y2="685.05"/><line class="cls-5" x1="322.96" y1="684.17" x2="322.96" y2="684.17"/><line class="cls-5" x1="323.91" y1="683.22" x2="326.61" y2="680.52"/><line class="cls-5" x1="309.83" y1="704.59" x2="312.03" y2="702.39"/><line class="cls-5" x1="312.97" y1="701.45" x2="312.97" y2="701.45"/><line class="cls-5" x1="313.85" y1="700.57" x2="316.61" y2="697.81"/><line class="cls-5" x1="317.49" y1="696.93" x2="317.49" y2="696.93"/><line class="cls-5" x1="318.44" y1="695.98" x2="321.14" y2="693.28"/><line class="cls-5" x1="322.08" y1="692.34" x2="322.08" y2="692.34"/><line class="cls-5" x1="322.96" y1="691.46" x2="325.73" y2="688.69"/><line class="cls-5" x1="326.61" y1="687.81" x2="326.61" y2="687.81"/><line class="cls-5" x1="309.83" y1="711.88" x2="311.15" y2="710.56"/><line class="cls-5" x1="312.03" y1="709.69" x2="312.03" y2="709.69"/><line class="cls-5" x1="312.97" y1="708.74" x2="315.67" y2="706.04"/><line class="cls-5" x1="316.61" y1="705.1" x2="316.61" y2="705.1"/><line class="cls-5" x1="317.49" y1="704.22" x2="320.26" y2="701.45"/><line class="cls-5" x1="321.14" y1="700.57" x2="321.14" y2="700.57"/><line class="cls-5" x1="322.08" y1="699.63" x2="324.79" y2="696.93"/><line class="cls-5" x1="325.73" y1="695.98" x2="325.73" y2="695.98"/><line class="cls-5" x1="326.61" y1="695.1" x2="326.99" y2="694.66"/><line class="cls-5" x1="309.83" y1="719.18" x2="310.2" y2="718.8"/><line class="cls-5" x1="311.15" y1="717.86" x2="311.15" y2="717.86"/><line class="cls-5" x1="312.03" y1="716.98" x2="314.79" y2="714.21"/><line class="cls-5" x1="315.67" y1="713.33" x2="315.67" y2="713.33"/><line class="cls-5" x1="316.61" y1="712.39" x2="319.32" y2="709.69"/><line class="cls-5" x1="320.26" y1="708.74" x2="320.26" y2="708.74"/><line class="cls-5" x1="321.14" y1="707.86" x2="323.91" y2="705.1"/><line class="cls-5" x1="324.79" y1="704.22" x2="324.79" y2="704.22"/><line class="cls-5" x1="325.73" y1="703.27" x2="326.99" y2="701.95"/><line class="cls-5" x1="313.35" y1="722.95" x2="313.85" y2="722.44"/><line class="cls-5" x1="314.79" y1="721.5" x2="314.79" y2="721.5"/><line class="cls-5" x1="315.67" y1="720.62" x2="318.44" y2="717.86"/><line class="cls-5" x1="319.32" y1="716.98" x2="319.32" y2="716.98"/><line class="cls-5" x1="320.26" y1="716.03" x2="322.96" y2="713.33"/><line class="cls-5" x1="323.91" y1="712.39" x2="323.91" y2="712.39"/><line class="cls-5" x1="324.79" y1="711.51" x2="326.99" y2="709.24"/><line class="cls-5" x1="320.64" y1="722.95" x2="322.08" y2="721.5"/><line class="cls-5" x1="322.96" y1="720.62" x2="322.96" y2="720.62"/><line class="cls-5" x1="323.91" y1="719.68" x2="326.61" y2="716.98"/><polyline class="cls-5" points="326.99 722.95 309.83 722.95 309.83 637.02 326.99 637.02 326.99 722.95"/><text class="cls-6" transform="translate(135.27 291.6)">CT</text><text class="cls-6" transform="translate(117.52 328.57)">21.22</text><text class="cls-6" transform="translate(113.83 255.18)">№240</text><polyline class="cls-7" points="105.68 337.92 105.68 229.16 196.39 229.16 196.39 337.92"/><line class="cls-7" x1="105.68" y1="265.48" x2="196.39" y2="265.48"/><line class="cls-7" x1="105.68" y1="337.92" x2="196.39" y2="337.92"/><line class="cls-7" x1="105.68" y1="301.81" x2="196.39" y2="301.81"/><text class="cls-8" transform="translate(216.97 593.07)">3.22</text><text class="cls-8" transform="translate(92.3 593.07)">3.85</text><text class="cls-8" transform="translate(91.62 407.71)">2.20</text><text class="cls-8" transform="translate(129.99 180.87)">11.95</text><text x="-0.35" y="-28.35"/></svg>