<?xml version="1.0" encoding="utf-8"?>
<!-- Generator: Adobe Illustrator 21.0.0, SVG Export Plug-In . SVG Version: 6.00 Build 0)  -->
<svg version="1.1" id="Слой_1" xmlns="http://www.w3.org/2000/svg" xmlns:xlink="http://www.w3.org/1999/xlink" x="0px" y="0px"
	 viewBox="0 0 68.2 73.7" style="enable-background:new 0 0 68.2 73.7;" xml:space="preserve">
<style type="text/css">
	.st0{fill:#2B2B2B;}
	.st1{fill:none;stroke:#2E2E2E;stroke-miterlimit:10;}
	.st2{fill:#2E2E2E;}
</style>
<g>
	<g>
		<g>
			<path class="st0" d="M37.7,1.2l-0.4,0.6C37,1.5,36.6,1.2,36.1,1c-0.4-0.2-0.9-0.3-1.3-0.3c-0.6,0-1.2,0.2-1.7,0.5
				c-0.5,0.3-0.9,0.7-1.2,1.3c-0.3,0.5-0.4,1.2-0.4,1.9c0,0.7,0.2,1.3,0.4,1.8c0.3,0.5,0.7,1,1.2,1.3C33.7,7.8,34.2,8,34.9,8
				c1,0,1.8-0.4,2.6-1.3l0.4,0.6C37,8.3,36,8.7,34.9,8.7c-0.8,0-1.5-0.2-2.1-0.6c-0.6-0.4-1.1-0.9-1.5-1.6c-0.4-0.7-0.6-1.4-0.6-2.2
				c0-0.8,0.2-1.6,0.5-2.3C31.5,1.5,32,1,32.7,0.6C33.3,0.2,34,0,34.8,0c0.6,0,1.1,0.1,1.6,0.3C36.9,0.5,37.3,0.8,37.7,1.2z"/>
		</g>
	</g>
	<g>
		<g>
			<path class="st0" d="M39.8,67.1c0.4,0.7,0.6,1.4,0.6,2.2c0,0.8-0.2,1.6-0.5,2.2c-0.4,0.7-0.9,1.2-1.5,1.6
				c-0.6,0.4-1.3,0.6-2.1,0.6c-0.7,0-1.4-0.2-2-0.5s-1.1-0.8-1.5-1.4c-0.4-0.6-0.6-1.3-0.7-2.1l-1.8,0l0,3.8l-0.9,0l-0.1-8.4l0.9,0
				l0,3.8l1.8,0c0.1-0.8,0.3-1.5,0.7-2.1c0.4-0.6,0.9-1.1,1.5-1.4c0.6-0.3,1.3-0.5,2-0.5c0.8,0,1.5,0.2,2.1,0.6
				C38.9,65.9,39.5,66.4,39.8,67.1z M33.3,67.5c-0.3,0.6-0.4,1.2-0.4,1.9c0,0.7,0.2,1.3,0.5,1.8c0.3,0.5,0.7,1,1.2,1.3
				c0.5,0.3,1.1,0.5,1.7,0.5c0.6,0,1.2-0.2,1.7-0.5c0.5-0.3,0.9-0.7,1.2-1.3c0.3-0.5,0.4-1.2,0.4-1.9c0-0.7-0.2-1.3-0.5-1.9
				c-0.3-0.5-0.7-1-1.2-1.3c-0.5-0.3-1.1-0.5-1.7-0.5c-0.6,0-1.2,0.2-1.7,0.5C34,66.6,33.6,67,33.3,67.5z"/>
		</g>
	</g>
	<g>
		<g>
			<path class="st0" d="M5.4,34.7c0.2,0.3,0.4,0.7,0.4,1.1c0,0.4-0.1,0.8-0.4,1.1c-0.3,0.3-0.6,0.6-1.1,0.7c0.6,0.1,1,0.4,1.4,0.7
				c0.3,0.3,0.5,0.8,0.5,1.3c0,0.5-0.1,0.9-0.4,1.3c-0.3,0.4-0.7,0.7-1.2,0.9c-0.5,0.2-1.1,0.3-1.7,0.3c-0.6,0-1.1-0.1-1.7-0.3
				c-0.5-0.2-0.9-0.5-1.3-0.9l0.6-0.6c0.3,0.3,0.6,0.5,1,0.7C2,41.5,2.5,41.6,3,41.6c0.4,0,0.9-0.1,1.2-0.2C4.5,41.2,4.8,41,5,40.7
				c0.2-0.3,0.3-0.6,0.3-0.9c0-0.5-0.2-0.9-0.6-1.2c-0.4-0.3-1-0.4-1.6-0.4l-1.2,0l0-0.8l0.9,0c0.7,0,1.3-0.2,1.7-0.4
				c0.4-0.3,0.5-0.7,0.5-1.1c0-0.5-0.2-0.8-0.6-1.1c-0.4-0.3-0.9-0.4-1.4-0.4c-0.8,0-1.5,0.2-2.1,0.7l-0.5-0.6
				C0.6,34.3,1,34,1.5,33.9c0.5-0.2,0.9-0.3,1.4-0.3c0.5,0,1,0.1,1.5,0.3C4.8,34.1,5.2,34.4,5.4,34.7z"/>
		</g>
	</g>
	<g>
		<g>
			<path class="st0" d="M67.5,34.5c0.2,0.3,0.3,0.7,0.3,1.2c0,0.4-0.1,0.8-0.3,1.1c-0.2,0.3-0.5,0.5-0.9,0.7
				c0.5,0.1,0.9,0.4,1.2,0.7c0.3,0.3,0.4,0.8,0.4,1.3c0,0.5-0.1,0.9-0.3,1.2c-0.2,0.4-0.5,0.6-0.9,0.8c-0.4,0.2-0.9,0.3-1.4,0.3
				l-3.4,0l-0.1-8.4l3.2,0c0.5,0,0.9,0.1,1.3,0.3C67,33.9,67.3,34.1,67.5,34.5z M63,41l2.6,0c0.5,0,1-0.1,1.3-0.4
				c0.3-0.3,0.5-0.7,0.5-1.1c0-0.5-0.2-0.9-0.5-1.1c-0.3-0.3-0.8-0.4-1.3-0.4l-2.6,0L63,41z M63,37.2l2.3,0c0.5,0,0.9-0.1,1.2-0.4
				c0.3-0.3,0.5-0.6,0.5-1.1c0-0.5-0.2-0.8-0.5-1.1c-0.3-0.3-0.7-0.4-1.3-0.4l-2.3,0L63,37.2z"/>
		</g>
	</g>
	<ellipse transform="matrix(1 -6.103919e-03 6.103919e-03 1 -0.227 0.2108)" class="st1" cx="34.4" cy="37.3" rx="20" ry="20"/>
	<line class="st1" x1="34.3" y1="17.3" x2="34.5" y2="57.3"/>
	<polygon class="st2" points="38.2,37.3 34.4,37.3 34.3,17.3 	"/>
	<polygon class="st2" points="30.6,37.3 34.4,37.3 34.3,17.3 	"/>
</g>
</svg>
