<svg xmlns="http://www.w3.org/2000/svg" xmlns:xlink="http://www.w3.org/1999/xlink" width="60" height="60" viewBox="0 0 60 60">
    <defs>
        <circle id="b" cx="28" cy="28" r="28"/>
        <filter id="a" width="112.5%" height="112.5%" x="-6.3%" y="-4.5%" filterUnits="objectBoundingBox">
            <feMorphology in="SourceAlpha" operator="dilate" radius=".5" result="shadowSpreadOuter1"/>
            <feOffset dy="1" in="shadowSpreadOuter1" result="shadowOffsetOuter1"/>
            <feGaussianBlur in="shadowOffsetOuter1" result="shadowBlurOuter1" stdDeviation=".5"/>
            <feColorMatrix in="shadowBlurOuter1" values="0 0 0 0 0 0 0 0 0 0 0 0 0 0 0 0 0 0 0.2 0"/>
        </filter>
    </defs>
    <g fill="none" fill-rule="evenodd">
        <g transform="translate(2 1)">
            <use fill="#000" filter="url(#a)" xlink:href="#b"/>
            <use fill="#AAAB22" xlink:href="#b"/>
        </g>
        <g fill="#FFF" fill-rule="nonzero">
            <path d="M34.7 14c-5.679 0-10.3 4.549-10.3 10.14 0 1.243.225 2.45.668 3.597l-9.848 9.696a.733.733 0 0 0-.22.523v5.305c0 .408.336.739.75.739h4.442c.198 0 .39-.078.53-.216l1.497-1.471a.733.733 0 0 0 .22-.523v-1.81h1.835c.415 0 .75-.33.75-.738v-.724h.737c.414 0 .75-.331.75-.74v-1.59h1.615c.2 0 .39-.077.53-.216l2.389-2.35c1.165.436 2.392.657 3.655.657 5.68 0 10.3-4.549 10.3-10.14C45 18.55 40.38 14 34.7 14zm0 18.801a8.85 8.85 0 0 1-3.531-.726.76.76 0 0 0-.826.148l-.007.006-2.52 2.482H25.76c-.415 0-.751.33-.751.739v1.59h-.736c-.414 0-.75.33-.75.739v.724h-1.836c-.414 0-.75.33-.75.739v2.242l-1.057 1.038h-3.38v-1.044l9.175-9.032a.658.658 0 0 0 0-.94.683.683 0 0 0-.956 0l-8.219 8.09v-1.334l9.981-9.827.006-.006a.73.73 0 0 0 .151-.813 8.488 8.488 0 0 1-.737-3.476c0-4.776 3.947-8.662 8.799-8.662 4.851 0 8.798 3.885 8.798 8.662 0 4.776-3.947 8.661-8.799 8.661z"/>
            <path d="M37 19c-1.654 0-3 1.346-3 3s1.346 3 3 3 3-1.346 3-3-1.346-3-3-3zm0 4.398A1.4 1.4 0 0 1 35.602 22 1.4 1.4 0 0 1 37 20.602 1.4 1.4 0 0 1 38.398 22 1.4 1.4 0 0 1 37 23.398z"/>
        </g>
    </g>
</svg>
