<svg id="_203" data-name="203" xmlns="http://www.w3.org/2000/svg" viewBox="0 0 507.7 631.11"><defs><style>.cls-1,.cls-4{fill:none;}.cls-1{stroke:#969595;}.cls-1,.cls-4,.cls-8{stroke-linecap:round;stroke-linejoin:round;stroke-width:0.5px;}.cls-2{isolation:isolate;font-size:12px;fill:#969595;}.cls-2,.cls-6,.cls-7{font-family:PTSans-Regular, PT Sans;}.cls-3{letter-spacing:-0.01em;}.cls-4,.cls-8{stroke:#000;}.cls-5{fill-rule:evenodd;}.cls-6{font-size:20px;}.cls-7{font-size:24px;}</style></defs><title>2floor_203flat</title><line class="cls-1" x1="2" y1="352.85" x2="10.8" y2="352.85"/><polyline class="cls-1" points="5.29 349.44 1.79 352.94 5.29 356.44"/><text class="cls-2" transform="translate(10.2 343.55) rotate(-90)"><tspan class="cls-3">у</tspan><tspan x="5.42" y="0">лица</tspan></text><line class="cls-1" x1="255.18" y1="2" x2="255.18" y2="10.8"/><polyline class="cls-1" points="258.57 5.29 255.07 1.79 251.57 5.29"/><text class="cls-2" transform="translate(264.47 10.2)"><tspan class="cls-3">у</tspan><tspan x="5.42" y="0">лица</tspan></text><line class="cls-4" x1="389.41" y1="630.86" x2="382.93" y2="630.86"/><polyline class="cls-5" points="299.01 84.07 307.12 84.07 307.12 132.8 299.01 132.8 299.01 84.07"/><polyline class="cls-5" points="307.12 84.07 317.96 84.07 317.96 132.8 307.12 132.8 307.12 84.07"/><line class="cls-4" x1="317.96" y1="132.79" x2="317.96" y2="84.06"/><line class="cls-4" x1="299.01" y1="84.07" x2="299.01" y2="132.8"/><polyline class="cls-5" points="437.07 546.95 447.88 546.95 447.88 557.79 426.23 557.79 437.07 546.95"/><line class="cls-4" x1="447.88" y1="552.36" x2="447.88" y2="557.77"/><line class="cls-4" x1="447.88" y1="546.95" x2="447.88" y2="552.35"/><line class="cls-4" x1="447.88" y1="546.95" x2="437.07" y2="546.95"/><line class="cls-4" x1="426.23" y1="557.78" x2="437.07" y2="557.78"/><line class="cls-4" x1="447.88" y1="557.78" x2="447.88" y2="557.78"/><line class="cls-4" x1="447.88" y1="552.36" x2="447.88" y2="546.96"/><line class="cls-4" x1="447.88" y1="546.95" x2="447.88" y2="552.35"/><line class="cls-4" x1="447.88" y1="546.95" x2="447.88" y2="552.35"/><line class="cls-4" x1="447.88" y1="552.36" x2="447.88" y2="557.77"/><line x1="320.66" y1="630.85" x2="320.66" y2="557.78"/><polyline class="cls-5" points="320.66 557.77 331.5 557.77 331.5 630.85"/><line class="cls-4" x1="320.66" y1="557.78" x2="320.66" y2="630.85"/><line class="cls-4" x1="331.5" y1="630.85" x2="331.5" y2="630.85"/><line class="cls-4" x1="331.5" y1="620.04" x2="331.5" y2="557.76"/><line class="cls-4" x1="320.66" y1="557.78" x2="331.5" y2="557.78"/><polyline class="cls-5" points="331.5 630.85 331.5 620.02 437.07 620.02 437.07 630.86 331.5 630.85"/><line class="cls-4" x1="331.5" y1="630.85" x2="447.88" y2="630.86"/><line class="cls-4" x1="437.07" y1="620.04" x2="331.5" y2="620.04"/><polyline class="cls-5" points="271.93 546.95 271.93 557.79 106.82 557.79 106.82 546.95 271.93 546.95"/><line class="cls-4" x1="271.93" y1="546.95" x2="106.82" y2="546.95"/><line class="cls-4" x1="106.82" y1="546.95" x2="106.82" y2="557.79"/><line class="cls-4" x1="106.82" y1="557.78" x2="271.93" y2="557.78"/><line class="cls-4" x1="271.93" y1="546.95" x2="271.93" y2="557.79"/><polyline class="cls-5" points="437.07 630.86 437.07 614.63 447.88 614.63 447.88 630.86"/><line class="cls-4" x1="442.47" y1="614.62" x2="437.07" y2="614.62"/><line class="cls-4" x1="447.88" y1="614.62" x2="442.47" y2="614.62"/><line class="cls-4" x1="442.47" y1="557.78" x2="437.07" y2="557.78"/><line class="cls-4" x1="447.88" y1="557.78" x2="442.47" y2="557.78"/><line class="cls-4" x1="447.88" y1="630.86" x2="447.88" y2="555.06"/><line class="cls-4" x1="437.07" y1="630.86" x2="437.07" y2="555.06"/><line class="cls-4" x1="437.07" y1="614.62" x2="437.07" y2="620.03"/><line class="cls-4" x1="437.07" y1="630.86" x2="437.07" y2="630.86"/><path class="cls-4" d="M418.31,647.69a52.51,52.51,0,0,1,52.5-52.51" transform="translate(-28.34 -35.23)"/><polyline class="cls-5" points="447.88 557.77 447.88 559.94 442.47 559.94 442.47 557.77 447.88 557.77"/><polyline class="cls-5" points="442.47 614.62 442.47 612.46 447.88 612.46 447.88 614.62 442.47 614.62"/><line class="cls-4" x1="447.88" y1="557.78" x2="447.88" y2="559.94"/><line class="cls-4" x1="447.88" y1="559.94" x2="442.47" y2="559.94"/><line class="cls-4" x1="442.47" y1="559.94" x2="442.47" y2="557.78"/><line class="cls-4" x1="442.47" y1="557.78" x2="447.88" y2="557.78"/><line class="cls-4" x1="442.47" y1="614.62" x2="442.47" y2="612.45"/><line class="cls-4" x1="442.47" y1="612.46" x2="447.88" y2="612.46"/><line class="cls-4" x1="447.88" y1="612.46" x2="447.88" y2="614.63"/><line class="cls-4" x1="447.88" y1="614.62" x2="442.47" y2="614.62"/><line class="cls-4" x1="442.47" y1="612.46" x2="389.97" y2="612.46"/><line class="cls-4" x1="447.88" y1="557.78" x2="442.47" y2="557.78"/><line class="cls-4" x1="447.88" y1="557.78" x2="442.47" y2="557.78"/><line class="cls-4" x1="442.47" y1="557.78" x2="437.07" y2="557.78"/><line class="cls-4" x1="447.88" y1="614.62" x2="442.47" y2="614.62"/><line class="cls-4" x1="447.88" y1="614.62" x2="442.47" y2="614.62"/><line class="cls-4" x1="442.47" y1="614.62" x2="437.07" y2="614.62"/><polyline class="cls-5" points="507.45 338.52 496.61 338.52 496.61 138.22 507.45 138.22 507.45 338.52"/><line class="cls-4" x1="507.45" y1="338.52" x2="507.45" y2="138.22"/><line class="cls-4" x1="507.45" y1="138.21" x2="496.61" y2="138.21"/><line class="cls-4" x1="496.61" y1="138.21" x2="496.61" y2="338.51"/><line class="cls-4" x1="507.45" y1="338.52" x2="496.61" y2="338.52"/><polyline class="cls-5" points="496.61 452.21 496.61 463.04 437.07 463.04 426.23 452.21 496.61 452.21"/><line class="cls-4" x1="496.61" y1="452.21" x2="426.23" y2="452.21"/><line class="cls-4" x1="437.07" y1="463.04" x2="496.61" y2="463.04"/><line class="cls-4" x1="496.61" y1="463.04" x2="496.61" y2="452.2"/><polyline class="cls-5" points="106.82 365.58 106.82 361.25 313.82 361.25 313.82 365.58 106.82 365.58"/><line class="cls-4" x1="106.82" y1="365.59" x2="313.82" y2="365.59"/><line class="cls-4" x1="313.82" y1="361.26" x2="106.82" y2="361.26"/><line class="cls-4" x1="106.82" y1="365.59" x2="106.82" y2="361.25"/><polyline class="cls-5" points="318.15 289.25 323.59 289.25 323.59 293.59 318.15 293.59 318.15 289.25"/><polyline class="cls-5" points="366.89 289.25 388.34 289.25 388.34 293.59 366.89 293.59 366.89 289.25"/><line class="cls-4" x1="323.59" y1="293.58" x2="323.59" y2="289.25"/><line class="cls-4" x1="366.89" y1="293.58" x2="366.89" y2="289.25"/><line class="cls-4" x1="388.34" y1="289.25" x2="366.89" y2="289.25"/><line class="cls-4" x1="323.59" y1="289.25" x2="318.15" y2="289.25"/><line class="cls-4" x1="318.15" y1="293.58" x2="323.59" y2="293.58"/><line class="cls-4" x1="366.89" y1="293.58" x2="388.34" y2="293.58"/><line class="cls-4" x1="388.34" y1="289.25" x2="388.34" y2="293.59"/><path class="cls-4" d="M353.42,284.2a40.29,40.29,0,0,1,40.29,40.29" transform="translate(-28.34 -35.23)"/><polyline class="cls-5" points="364.72 293.58 364.72 291.41 365.37 291.41 365.37 289.25 366.89 289.25 366.89 293.58 364.72 293.58"/><polyline class="cls-5" points="323.59 293.58 323.59 289.25 325.08 289.25 325.08 291.41 325.73 291.41 325.73 293.58 323.59 293.58"/><polyline class="cls-5" points="325.08 248.97 327.25 248.97 327.25 254.38 325.08 254.38 325.08 248.97"/><polyline class="cls-5" points="327.25 289.25 325.08 289.25 325.08 283.85 327.25 283.85 327.25 289.25"/><line class="cls-4" x1="326.18" y1="254.39" x2="325.08" y2="254.39"/><line class="cls-4" x1="326.18" y1="283.84" x2="326.18" y2="254.39"/><line class="cls-4" x1="325.08" y1="283.84" x2="326.18" y2="283.84"/><line class="cls-4" x1="325.08" y1="254.39" x2="325.08" y2="283.83"/><line class="cls-4" x1="327.25" y1="254.39" x2="326.18" y2="254.39"/><line class="cls-4" x1="327.25" y1="283.84" x2="327.25" y2="254.39"/><line class="cls-4" x1="326.18" y1="283.84" x2="327.25" y2="283.84"/><line class="cls-4" x1="326.18" y1="254.39" x2="326.18" y2="283.83"/><line class="cls-4" x1="364.72" y1="293.58" x2="364.72" y2="291.41"/><line class="cls-4" x1="364.72" y1="291.42" x2="365.37" y2="291.42"/><line class="cls-4" x1="365.37" y1="291.42" x2="365.37" y2="289.25"/><line class="cls-4" x1="365.37" y1="289.25" x2="366.89" y2="289.25"/><line class="cls-4" x1="366.89" y1="289.25" x2="366.89" y2="293.59"/><line class="cls-4" x1="366.89" y1="293.58" x2="364.72" y2="293.58"/><line class="cls-4" x1="323.59" y1="293.58" x2="323.59" y2="289.25"/><line class="cls-4" x1="323.59" y1="289.25" x2="325.08" y2="289.25"/><line class="cls-4" x1="325.08" y1="289.25" x2="325.08" y2="291.42"/><line class="cls-4" x1="325.08" y1="291.42" x2="325.73" y2="291.42"/><line class="cls-4" x1="325.73" y1="291.42" x2="325.73" y2="293.58"/><line class="cls-4" x1="325.73" y1="293.58" x2="323.59" y2="293.58"/><line class="cls-4" x1="325.08" y1="248.97" x2="325.08" y2="254.38"/><line class="cls-4" x1="325.08" y1="254.39" x2="327.25" y2="254.39"/><line class="cls-4" x1="327.25" y1="254.39" x2="327.25" y2="248.98"/><line class="cls-4" x1="327.25" y1="248.97" x2="325.08" y2="248.97"/><line class="cls-4" x1="327.25" y1="289.25" x2="327.25" y2="283.85"/><line class="cls-4" x1="327.25" y1="283.84" x2="325.08" y2="283.84"/><line class="cls-4" x1="325.08" y1="283.84" x2="325.08" y2="289.24"/><line class="cls-4" x1="325.08" y1="289.25" x2="327.25" y2="289.25"/><line class="cls-4" x1="326.18" y1="254.39" x2="326.18" y2="283.83"/><line class="cls-4" x1="366.89" y1="293.58" x2="366.89" y2="289.25"/><line class="cls-4" x1="366.89" y1="293.58" x2="366.89" y2="289.25"/><line class="cls-4" x1="323.59" y1="293.58" x2="323.59" y2="289.25"/><line class="cls-4" x1="323.59" y1="293.58" x2="323.59" y2="289.25"/><polyline class="cls-5" points="313.82 299 313.82 138.19 318.15 138.19 318.15 299 313.82 299"/><polyline class="cls-5" points="313.82 546.95 313.82 449.49 318.15 449.49 318.15 546.95 313.82 546.95"/><polyline class="cls-5" points="318.15 347.72 318.15 400.79 313.82 400.79 313.82 347.72 318.15 347.72"/><line class="cls-4" x1="313.82" y1="347.72" x2="318.15" y2="347.72"/><line class="cls-4" x1="313.82" y1="298.99" x2="318.15" y2="298.99"/><line class="cls-4" x1="313.82" y1="400.78" x2="318.15" y2="400.78"/><line class="cls-4" x1="313.82" y1="449.5" x2="318.15" y2="449.5"/><line class="cls-4" x1="318.15" y1="546.95" x2="318.15" y2="449.49"/><line class="cls-4" x1="318.15" y1="400.78" x2="318.15" y2="347.71"/><line class="cls-4" x1="318.15" y1="298.99" x2="318.15" y2="293.59"/><line class="cls-4" x1="318.15" y1="289.25" x2="318.15" y2="138.22"/><line class="cls-4" x1="318.15" y1="138.21" x2="313.82" y2="138.21"/><line class="cls-4" x1="313.82" y1="138.21" x2="313.82" y2="299.01"/><line class="cls-4" x1="313.82" y1="347.72" x2="313.82" y2="361.26"/><line class="cls-4" x1="313.82" y1="365.59" x2="313.82" y2="400.78"/><line class="cls-4" x1="313.82" y1="449.5" x2="313.82" y2="546.96"/><line class="cls-4" x1="318.15" y1="546.95" x2="313.82" y2="546.95"/><path class="cls-4" d="M297.76,380.78a44.39,44.39,0,0,1,44.4-44.39" transform="translate(-28.34 -35.23)"/><polyline class="cls-5" points="318.15 299 318.15 301.16 313.82 301.16 313.82 299 318.15 299"/><polyline class="cls-5" points="313.82 347.72 313.82 345.55 318.15 345.55 318.15 347.72 313.82 347.72"/><line class="cls-4" x1="318.15" y1="298.99" x2="318.15" y2="301.16"/><line class="cls-4" x1="318.15" y1="301.16" x2="313.82" y2="301.16"/><line class="cls-4" x1="313.82" y1="301.16" x2="313.82" y2="298.99"/><line class="cls-4" x1="313.82" y1="298.99" x2="318.15" y2="298.99"/><line class="cls-4" x1="313.82" y1="347.72" x2="313.82" y2="345.55"/><line class="cls-4" x1="313.82" y1="345.56" x2="318.15" y2="345.56"/><line class="cls-4" x1="318.15" y1="345.56" x2="318.15" y2="347.72"/><line class="cls-4" x1="318.15" y1="347.72" x2="313.82" y2="347.72"/><line class="cls-4" x1="313.82" y1="345.56" x2="269.42" y2="345.56"/><line class="cls-4" x1="313.82" y1="298.99" x2="318.15" y2="298.99"/><line class="cls-4" x1="313.82" y1="298.99" x2="318.15" y2="298.99"/><line class="cls-4" x1="313.82" y1="347.72" x2="318.15" y2="347.72"/><line class="cls-4" x1="313.82" y1="347.72" x2="318.15" y2="347.72"/><path class="cls-4" d="M342.16,482.57a44.4,44.4,0,0,1-44.4-44.4" transform="translate(-28.34 -35.23)"/><polyline class="cls-5" points="318.15 449.5 313.82 449.5 313.82 447.33 318.15 447.33 318.15 449.5"/><polyline class="cls-5" points="313.82 400.77 318.15 400.77 318.15 402.94 313.82 402.94 313.82 400.77"/><line class="cls-4" x1="318.15" y1="449.5" x2="318.15" y2="447.33"/><line class="cls-4" x1="318.15" y1="447.34" x2="313.82" y2="447.34"/><line class="cls-4" x1="313.82" y1="447.34" x2="313.82" y2="449.5"/><line class="cls-4" x1="313.82" y1="449.5" x2="318.15" y2="449.5"/><line class="cls-4" x1="313.82" y1="400.78" x2="313.82" y2="402.94"/><line class="cls-4" x1="313.82" y1="402.94" x2="318.15" y2="402.94"/><line class="cls-4" x1="318.15" y1="402.94" x2="318.15" y2="400.77"/><line class="cls-4" x1="318.15" y1="400.78" x2="313.82" y2="400.78"/><line class="cls-4" x1="313.82" y1="402.94" x2="269.42" y2="402.94"/><line class="cls-4" x1="313.82" y1="449.5" x2="318.15" y2="449.5"/><line class="cls-4" x1="313.82" y1="449.5" x2="318.15" y2="449.5"/><line class="cls-4" x1="313.82" y1="400.78" x2="318.15" y2="400.78"/><line class="cls-4" x1="313.82" y1="400.78" x2="318.15" y2="400.78"/><polyline class="cls-5" points="426.76 289.25 426.76 293.58 392.67 293.58 388.34 289.25 426.76 289.25"/><line class="cls-4" x1="426.76" y1="289.25" x2="388.34" y2="289.25"/><line class="cls-4" x1="392.67" y1="293.58" x2="426.76" y2="293.58"/><polyline class="cls-5" points="388.34 289.25 392.67 293.58 392.67 312.53 388.34 312.53 388.34 289.25"/><polyline class="cls-5" points="388.34 463.04 388.34 420.81 392.67 420.81 392.67 458.7 388.34 463.04"/><polyline class="cls-5" points="392.67 350.43 392.67 382.91 388.34 382.91 388.34 350.43 392.67 350.43"/><line class="cls-4" x1="392.67" y1="350.43" x2="388.34" y2="350.43"/><line class="cls-4" x1="392.67" y1="312.53" x2="388.34" y2="312.53"/><line class="cls-4" x1="388.34" y1="382.91" x2="392.67" y2="382.91"/><line class="cls-4" x1="388.34" y1="420.81" x2="392.67" y2="420.81"/><line class="cls-4" x1="388.34" y1="289.25" x2="388.34" y2="312.53"/><line class="cls-4" x1="388.34" y1="350.43" x2="388.34" y2="382.91"/><line class="cls-4" x1="388.34" y1="420.81" x2="388.34" y2="463.04"/><line class="cls-4" x1="392.67" y1="458.7" x2="392.67" y2="420.81"/><line class="cls-4" x1="392.67" y1="382.91" x2="392.67" y2="357.46"/><line class="cls-4" x1="392.67" y1="353.13" x2="392.67" y2="350.43"/><line class="cls-4" x1="392.67" y1="312.53" x2="392.67" y2="293.58"/><line class="cls-4" x1="388.34" y1="348.26" x2="388.34" y2="314.7"/><line class="cls-4" x1="392.67" y1="314.7" x2="392.67" y2="348.25"/><path class="cls-4" d="M421,349.92a33.57,33.57,0,0,1,33.56,33.56" transform="translate(-28.34 -35.23)"/><polyline class="cls-5" points="388.34 312.53 392.67 312.53 392.67 314.7 388.34 314.7 388.34 312.53"/><polyline class="cls-5" points="392.67 350.43 388.34 350.43 388.34 348.26 392.67 348.26 392.67 350.43"/><line class="cls-4" x1="388.34" y1="312.53" x2="388.34" y2="314.7"/><line class="cls-4" x1="388.34" y1="314.7" x2="392.67" y2="314.7"/><line class="cls-4" x1="392.67" y1="314.7" x2="392.67" y2="312.53"/><line class="cls-4" x1="392.67" y1="312.53" x2="388.34" y2="312.53"/><line class="cls-4" x1="392.67" y1="350.43" x2="392.67" y2="348.26"/><line class="cls-4" x1="392.67" y1="348.26" x2="388.34" y2="348.26"/><line class="cls-4" x1="388.34" y1="348.26" x2="388.34" y2="350.43"/><line class="cls-4" x1="388.34" y1="350.43" x2="392.67" y2="350.43"/><line class="cls-4" x1="392.67" y1="348.26" x2="426.23" y2="348.26"/><line class="cls-4" x1="392.67" y1="312.53" x2="388.34" y2="312.53"/><line class="cls-4" x1="392.67" y1="312.53" x2="388.34" y2="312.53"/><line class="cls-4" x1="392.67" y1="350.43" x2="388.34" y2="350.43"/><line class="cls-4" x1="392.67" y1="350.43" x2="388.34" y2="350.43"/><line class="cls-4" x1="392.67" y1="385.07" x2="392.67" y2="418.63"/><line class="cls-4" x1="388.34" y1="418.64" x2="388.34" y2="385.08"/><path class="cls-4" d="M416.68,453.87a33.55,33.55,0,0,1-33.56-33.56" transform="translate(-28.34 -35.23)"/><polyline class="cls-5" points="392.67 420.81 388.34 420.81 388.34 418.64 392.67 418.64 392.67 420.81"/><polyline class="cls-5" points="388.34 382.91 392.67 382.91 392.67 385.08 388.34 385.08 388.34 382.91"/><line class="cls-4" x1="392.67" y1="420.81" x2="392.67" y2="418.64"/><line class="cls-4" x1="392.67" y1="418.64" x2="388.34" y2="418.64"/><line class="cls-4" x1="388.34" y1="418.64" x2="388.34" y2="420.81"/><line class="cls-4" x1="388.34" y1="420.81" x2="392.67" y2="420.81"/><line class="cls-4" x1="388.34" y1="382.91" x2="388.34" y2="385.08"/><line class="cls-4" x1="388.34" y1="385.07" x2="392.67" y2="385.07"/><line class="cls-4" x1="392.67" y1="385.07" x2="392.67" y2="382.91"/><line class="cls-4" x1="392.67" y1="382.91" x2="388.34" y2="382.91"/><line class="cls-4" x1="388.34" y1="385.07" x2="354.78" y2="385.07"/><line class="cls-4" x1="388.34" y1="420.81" x2="392.67" y2="420.81"/><line class="cls-4" x1="388.34" y1="420.81" x2="392.67" y2="420.81"/><line class="cls-4" x1="388.34" y1="382.91" x2="392.67" y2="382.91"/><line class="cls-4" x1="388.34" y1="382.91" x2="392.67" y2="382.91"/><polyline class="cls-5" points="426.76 293.58 426.76 289.25 496.61 289.25 496.61 293.58 426.76 293.58"/><line class="cls-4" x1="426.76" y1="293.58" x2="496.61" y2="293.58"/><line class="cls-4" x1="496.61" y1="293.58" x2="496.61" y2="289.25"/><line class="cls-4" x1="496.61" y1="289.25" x2="426.76" y2="289.25"/><polyline class="cls-5" points="392.67 357.47 392.67 353.13 496.61 353.13 496.61 357.47 392.67 357.47"/><line class="cls-4" x1="392.67" y1="357.47" x2="496.61" y2="357.47"/><line class="cls-4" x1="496.61" y1="357.47" x2="496.61" y2="353.13"/><line class="cls-4" x1="496.61" y1="353.13" x2="392.67" y2="353.13"/><polyline class="cls-5" points="388.34 463.04 392.67 458.7 426.23 458.7 426.23 463.04 388.34 463.04"/><line class="cls-4" x1="388.34" y1="463.04" x2="426.23" y2="463.04"/><line class="cls-4" x1="426.23" y1="463.04" x2="426.23" y2="458.7"/><line class="cls-4" x1="426.23" y1="458.7" x2="392.67" y2="458.7"/><polyline class="cls-5" points="481.58 293.58 482.25 293.58 482.25 353.12 481.58 353.12 481.58 293.58"/><polyline class="cls-5" points="482.25 293.58 482.96 293.58 482.96 353.12 482.25 353.12 482.25 293.58"/><line class="cls-4" x1="481.58" y1="293.58" x2="481.58" y2="353.12"/><line class="cls-4" x1="481.58" y1="353.13" x2="482.25" y2="353.13"/><line class="cls-4" x1="482.25" y1="353.13" x2="482.96" y2="353.13"/><line class="cls-4" x1="482.96" y1="353.13" x2="482.96" y2="293.59"/><line class="cls-4" x1="481.58" y1="293.58" x2="482.25" y2="293.58"/><line class="cls-4" x1="482.25" y1="293.58" x2="482.96" y2="293.58"/><polyline class="cls-5" points="58.09 138.21 47.28 127.37 106.82 127.37 106.82 138.21 58.09 138.21"/><line class="cls-4" x1="58.09" y1="138.21" x2="106.82" y2="138.21"/><line class="cls-4" x1="106.82" y1="138.21" x2="106.82" y2="127.37"/><line class="cls-4" x1="106.82" y1="127.38" x2="47.28" y2="127.38"/><polyline class="cls-5" points="47.28 127.38 58.09 138.22 58.09 186.92 47.28 186.92 47.28 127.38"/><line class="cls-4" x1="47.28" y1="127.38" x2="47.28" y2="186.92"/><line class="cls-4" x1="47.28" y1="186.93" x2="58.09" y2="186.93"/><line class="cls-4" x1="58.09" y1="186.93" x2="58.09" y2="138.2"/><polyline class="cls-5" points="47.28 365.58 47.28 354.75 106.82 354.75 106.82 365.58 47.28 365.58"/><line class="cls-4" x1="47.28" y1="365.59" x2="106.82" y2="365.59"/><line class="cls-4" x1="106.82" y1="365.59" x2="106.82" y2="354.75"/><line class="cls-4" x1="106.82" y1="354.76" x2="47.28" y2="354.76"/><line class="cls-4" x1="47.28" y1="365.59" x2="47.28" y2="354.75"/><polyline class="cls-5" points="47.28 557.77 47.28 546.94 106.82 546.94 106.82 557.77 47.28 557.77"/><line class="cls-4" x1="47.28" y1="557.78" x2="106.82" y2="557.78"/><line class="cls-4" x1="106.82" y1="557.78" x2="106.82" y2="546.94"/><line class="cls-4" x1="106.82" y1="546.95" x2="47.28" y2="546.95"/><line class="cls-4" x1="47.28" y1="557.78" x2="47.28" y2="546.94"/><polyline class="cls-5" points="507.45 463.04 496.61 463.04 496.61 338.52 507.45 338.52 507.45 463.04"/><line class="cls-4" x1="507.45" y1="463.04" x2="507.45" y2="338.52"/><line class="cls-4" x1="507.45" y1="338.52" x2="496.61" y2="338.52"/><line class="cls-4" x1="496.61" y1="338.52" x2="496.61" y2="463.03"/><line class="cls-4" x1="507.45" y1="463.04" x2="496.61" y2="463.04"/><polyline class="cls-5" points="317.96 138.21 307.12 138.21 307.12 78.66 317.96 78.66 317.96 138.21"/><line class="cls-4" x1="317.96" y1="138.21" x2="317.96" y2="78.66"/><line class="cls-4" x1="317.96" y1="78.65" x2="307.12" y2="78.65"/><line class="cls-4" x1="307.12" y1="78.65" x2="307.12" y2="138.19"/><line class="cls-4" x1="317.96" y1="138.21" x2="307.12" y2="138.21"/><polyline class="cls-5" points="507.45 138.21 496.61 138.21 496.61 78.66 507.45 78.66 507.45 138.21"/><line class="cls-4" x1="507.45" y1="138.21" x2="507.45" y2="70.53"/><line class="cls-4" x1="507.45" y1="78.65" x2="496.61" y2="78.65"/><line class="cls-4" x1="496.61" y1="78.65" x2="496.61" y2="138.19"/><line class="cls-4" x1="507.45" y1="138.21" x2="496.61" y2="138.21"/><polyline class="cls-5" points="271.93 557.77 271.93 546.94 331.5 546.94 331.5 557.77 271.93 557.77"/><line class="cls-4" x1="271.93" y1="557.78" x2="331.5" y2="557.78"/><line class="cls-4" x1="331.5" y1="557.78" x2="331.5" y2="546.94"/><line class="cls-4" x1="331.5" y1="546.95" x2="271.93" y2="546.95"/><line class="cls-4" x1="271.93" y1="557.78" x2="271.93" y2="546.94"/><polyline class="cls-5" points="426.23 452.21 437.07 463.04 437.07 546.94 426.23 557.77 426.23 452.21"/><line class="cls-4" x1="426.23" y1="452.21" x2="426.23" y2="557.78"/><line class="cls-4" x1="437.07" y1="546.95" x2="437.07" y2="463.03"/><line class="cls-4" x1="507.45" y1="293.58" x2="507.45" y2="289.25"/><line class="cls-4" x1="507.45" y1="357.47" x2="507.45" y2="353.13"/><line class="cls-4" x1="507.45" y1="463.04" x2="507.45" y2="458.7"/><line class="cls-4" x1="39.14" y1="557.78" x2="58.09" y2="557.78"/><polyline class="cls-5" points="47.28 557.77 39.14 557.77 39.14 546.94 47.28 546.94 47.28 557.77"/><line class="cls-4" x1="47.28" y1="557.78" x2="47.28" y2="546.94"/><line class="cls-4" x1="39.14" y1="546.95" x2="39.14" y2="557.79"/><polyline class="cls-5" points="39.14 365.58 47.28 365.58 47.28 411.61 39.14 411.61 39.14 365.58"/><polyline class="cls-5" points="39.14 546.95 39.14 514.46 47.28 514.46 47.28 546.95 39.14 546.95"/><polyline class="cls-5" points="58.09 365.58 58.09 419.72 47.28 419.72 47.28 365.58 58.09 365.58"/><polyline class="cls-5" points="47.28 506.34 58.09 506.34 58.09 546.94 47.28 546.94 47.28 506.34"/><polyline class="cls-5" points="39.14 411.6 47.28 411.6 47.28 419.71 39.14 419.71 39.14 411.6"/><polyline class="cls-5" points="39.14 514.47 39.14 506.33 47.28 506.33 47.28 514.47 39.14 514.47"/><line class="cls-4" x1="47.28" y1="506.34" x2="39.14" y2="506.34"/><line class="cls-4" x1="47.28" y1="419.72" x2="39.14" y2="419.72"/><line class="cls-4" x1="39.14" y1="514.47" x2="39.14" y2="506.33"/><line class="cls-4" x1="39.14" y1="411.6" x2="39.14" y2="419.71"/><line class="cls-4" x1="49.98" y1="506.34" x2="58.09" y2="506.34"/><line class="cls-4" x1="47.28" y1="506.34" x2="49.98" y2="506.34"/><line class="cls-4" x1="49.98" y1="419.72" x2="58.09" y2="419.72"/><line class="cls-4" x1="47.28" y1="419.72" x2="49.98" y2="419.72"/><line class="cls-4" x1="58.09" y1="546.95" x2="58.09" y2="506.35"/><line class="cls-4" x1="58.09" y1="419.72" x2="58.09" y2="365.59"/><line class="cls-4" x1="47.28" y1="365.59" x2="58.09" y2="365.59"/><line class="cls-4" x1="39.14" y1="365.59" x2="39.14" y2="411.61"/><line class="cls-4" x1="39.14" y1="514.47" x2="39.14" y2="546.95"/><line class="cls-4" x1="47.28" y1="546.95" x2="58.09" y2="546.95"/><line class="cls-4" x1="39.14" y1="419.72" x2="39.14" y2="506.35"/><line class="cls-4" x1="58.09" y1="419.72" x2="58.09" y2="506.35"/><polyline class="cls-5" points="49.98 419.72 49.98 425.13 47.28 425.13 47.28 419.72 49.98 419.72"/><polyline class="cls-5" points="47.28 455.45 47.28 451.65 49.98 451.65 49.98 455.45 47.28 455.45"/><polyline class="cls-5" points="49.98 455.45 49.98 459.25 47.28 459.25 47.28 455.45 49.98 455.45"/><polyline class="cls-5" points="47.28 506.34 47.28 500.94 49.98 500.94 49.98 506.34 47.28 506.34"/><line class="cls-4" x1="49.98" y1="419.72" x2="49.98" y2="425.13"/><line class="cls-4" x1="49.98" y1="425.14" x2="47.28" y2="425.14"/><line class="cls-4" x1="47.28" y1="425.14" x2="47.28" y2="419.73"/><line class="cls-4" x1="47.28" y1="455.45" x2="47.28" y2="451.65"/><line class="cls-4" x1="47.28" y1="451.67" x2="49.98" y2="451.67"/><line class="cls-4" x1="49.98" y1="451.67" x2="49.98" y2="455.47"/><line class="cls-4" x1="49.98" y1="425.14" x2="49.98" y2="451.66"/><line class="cls-4" x1="47.28" y1="451.67" x2="47.28" y2="425.15"/><line class="cls-4" x1="49.98" y1="455.45" x2="49.98" y2="459.26"/><line class="cls-4" x1="49.98" y1="459.24" x2="47.28" y2="459.24"/><line class="cls-4" x1="47.28" y1="459.24" x2="47.28" y2="455.44"/><line class="cls-4" x1="47.28" y1="506.34" x2="47.28" y2="500.94"/><line class="cls-4" x1="47.28" y1="500.93" x2="49.98" y2="500.93"/><line class="cls-4" x1="49.98" y1="500.93" x2="49.98" y2="506.34"/><line class="cls-4" x1="49.98" y1="459.24" x2="49.98" y2="500.94"/><line class="cls-4" x1="47.28" y1="500.93" x2="47.28" y2="459.24"/><line class="cls-4" x1="47.28" y1="419.72" x2="49.98" y2="419.72"/><line class="cls-4" x1="47.28" y1="419.72" x2="49.98" y2="419.72"/><line class="cls-4" x1="49.98" y1="419.72" x2="58.09" y2="419.72"/><line class="cls-4" x1="47.28" y1="506.34" x2="49.98" y2="506.34"/><line class="cls-4" x1="47.28" y1="506.34" x2="49.98" y2="506.34"/><line class="cls-4" x1="49.98" y1="506.34" x2="58.09" y2="506.34"/><line class="cls-4" x1="47.28" y1="419.72" x2="39.14" y2="419.72"/><line class="cls-4" x1="47.28" y1="419.72" x2="39.14" y2="419.72"/><line class="cls-4" x1="47.28" y1="506.34" x2="39.14" y2="506.34"/><line class="cls-4" x1="47.28" y1="506.34" x2="39.14" y2="506.34"/><polyline class="cls-5" points="47.28 365.58 39.14 365.58 39.14 354.75 47.28 354.75 47.28 365.58"/><line class="cls-4" x1="47.28" y1="365.59" x2="47.28" y2="354.75"/><line class="cls-4" x1="39.14" y1="354.76" x2="39.14" y2="365.6"/><polyline class="cls-5" points="39.14 186.93 47.28 186.93 47.28 214.01 39.14 214.01 39.14 186.93"/><polyline class="cls-5" points="39.14 354.76 39.14 333.11 47.28 333.11 47.28 354.76 39.14 354.76"/><polyline class="cls-5" points="58.09 186.93 58.09 222.12 47.28 222.12 47.28 186.93 58.09 186.93"/><polyline class="cls-5" points="47.28 324.98 58.09 324.98 58.09 354.77 47.28 354.77 47.28 324.98"/><polyline class="cls-5" points="39.14 333.1 39.14 325 47.28 325 47.28 333.1 39.14 333.1"/><polyline class="cls-5" points="39.14 214 47.28 214 47.28 222.11 39.14 222.11 39.14 214"/><line class="cls-4" x1="47.28" y1="222.12" x2="39.14" y2="222.12"/><line class="cls-4" x1="47.28" y1="324.98" x2="39.14" y2="324.98"/><line class="cls-4" x1="39.14" y1="214" x2="39.14" y2="222.11"/><line class="cls-4" x1="39.14" y1="333.1" x2="39.14" y2="325"/><line class="cls-4" x1="49.98" y1="222.12" x2="58.09" y2="222.12"/><line class="cls-4" x1="47.28" y1="222.12" x2="49.98" y2="222.12"/><line class="cls-4" x1="49.98" y1="324.98" x2="58.09" y2="324.98"/><line class="cls-4" x1="47.28" y1="324.98" x2="49.98" y2="324.98"/><line class="cls-4" x1="58.09" y1="354.76" x2="58.09" y2="324.97"/><line class="cls-4" x1="58.09" y1="222.12" x2="58.09" y2="186.93"/><line class="cls-4" x1="47.28" y1="186.93" x2="58.09" y2="186.93"/><line class="cls-4" x1="39.14" y1="186.93" x2="39.14" y2="214.01"/><line class="cls-4" x1="39.14" y1="333.1" x2="39.14" y2="354.75"/><line class="cls-4" x1="47.28" y1="354.76" x2="58.09" y2="354.76"/><line class="cls-4" x1="39.14" y1="324.98" x2="39.14" y2="222.11"/><line class="cls-4" x1="58.09" y1="324.98" x2="58.09" y2="222.11"/><polyline class="cls-5" points="49.98 324.98 47.28 324.98 47.28 319.58 49.98 319.58 49.98 324.98"/><polyline class="cls-5" points="47.28 273.55 49.98 273.55 49.98 277.35 47.28 277.35 47.28 273.55"/><polyline class="cls-5" points="49.98 273.55 47.28 273.55 47.28 269.75 49.98 269.75 49.98 273.55"/><polyline class="cls-5" points="47.28 222.12 49.98 222.12 49.98 227.53 47.28 227.53 47.28 222.12"/><line class="cls-4" x1="49.98" y1="324.98" x2="49.98" y2="319.58"/><line class="cls-4" x1="49.98" y1="319.57" x2="47.28" y2="319.57"/><line class="cls-4" x1="47.28" y1="319.57" x2="47.28" y2="324.97"/><line class="cls-4" x1="47.28" y1="273.55" x2="47.28" y2="277.35"/><line class="cls-4" x1="47.28" y1="277.34" x2="49.98" y2="277.34"/><line class="cls-4" x1="49.98" y1="277.34" x2="49.98" y2="273.54"/><line class="cls-4" x1="49.98" y1="319.57" x2="49.98" y2="277.34"/><line class="cls-4" x1="47.28" y1="277.34" x2="47.28" y2="319.57"/><line class="cls-4" x1="49.98" y1="273.55" x2="49.98" y2="269.75"/><line class="cls-4" x1="49.98" y1="269.76" x2="47.28" y2="269.76"/><line class="cls-4" x1="47.28" y1="269.76" x2="47.28" y2="273.56"/><line class="cls-4" x1="47.28" y1="222.12" x2="47.28" y2="227.53"/><line class="cls-4" x1="47.28" y1="227.53" x2="49.98" y2="227.53"/><line class="cls-4" x1="49.98" y1="227.53" x2="49.98" y2="222.13"/><line class="cls-4" x1="49.98" y1="269.76" x2="49.98" y2="227.53"/><line class="cls-4" x1="47.28" y1="227.53" x2="47.28" y2="269.76"/><line class="cls-4" x1="47.28" y1="324.98" x2="49.98" y2="324.98"/><line class="cls-4" x1="47.28" y1="324.98" x2="49.98" y2="324.98"/><line class="cls-4" x1="49.98" y1="324.98" x2="58.09" y2="324.98"/><line class="cls-4" x1="47.28" y1="222.12" x2="49.98" y2="222.12"/><line class="cls-4" x1="47.28" y1="222.12" x2="49.98" y2="222.12"/><line class="cls-4" x1="49.98" y1="222.12" x2="58.09" y2="222.12"/><line class="cls-4" x1="47.28" y1="324.98" x2="39.14" y2="324.98"/><line class="cls-4" x1="47.28" y1="324.98" x2="39.14" y2="324.98"/><line class="cls-4" x1="47.28" y1="222.12" x2="39.14" y2="222.12"/><line class="cls-4" x1="47.28" y1="222.12" x2="39.14" y2="222.12"/><polyline class="cls-5" points="47.28 186.93 39.14 186.93 39.14 119.25 47.28 127.39 47.28 186.93"/><line class="cls-4" x1="47.28" y1="186.93" x2="47.28" y2="127.39"/><line class="cls-4" x1="39.14" y1="119.26" x2="39.14" y2="186.93"/><polyline class="cls-5" points="47.28 127.38 39.14 119.24 100.31 119.24 100.31 127.38 47.28 127.38"/><line class="cls-4" x1="47.28" y1="127.38" x2="100.31" y2="127.38"/><line class="cls-4" x1="100.32" y1="119.26" x2="39.14" y2="119.26"/><polyline class="cls-5" points="299.01 117.63 297.38 117.63 297.38 70.53 299.01 71.89 299.01 117.63"/><polyline class="cls-5" points="299.01 117.63 299.01 119.27 298.14 119.27 297.38 117.63 299.01 117.63"/><polyline class="cls-5" points="298.14 119.26 299.01 119.26 299.01 121.06 298.14 119.26"/><polyline class="cls-5" points="307.12 78.65 299.01 78.65 299.01 71.9 307.12 78.65"/><polyline class="cls-5" points="307.12 119.26 299.01 119.26 299.01 78.66 307.12 78.66 307.12 119.26"/><polyline class="cls-5" points="307.12 127.38 302 127.38 299.01 121.07 299.01 119.24 307.12 119.24 307.12 127.38"/><polyline class="cls-5" points="307.12 127.38 307.12 138.22 302 127.38 307.12 127.38"/><line class="cls-4" x1="307.12" y1="138.21" x2="307.12" y2="127.37"/><line class="cls-4" x1="307.12" y1="127.38" x2="307.12" y2="78.65"/><line class="cls-4" x1="297.38" y1="70.53" x2="297.38" y2="117.63"/><polyline class="cls-5" points="307.12 78.65 307.12 70.55 317.96 70.55 317.96 78.65 307.12 78.65"/><polyline class="cls-5" points="299.01 70.53 307.12 70.53 307.12 78.64 299.01 71.89 299.01 70.53"/><polyline class="cls-5" points="299.01 70.53 299.01 71.89 297.38 70.53 299.01 70.53"/><line class="cls-4" x1="307.12" y1="78.65" x2="317.96" y2="78.65"/><line class="cls-4" x1="297.38" y1="70.53" x2="299.01" y2="70.53"/><line class="cls-4" x1="299.01" y1="70.53" x2="307.12" y2="70.53"/><line class="cls-4" x1="317.96" y1="70.53" x2="307.12" y2="70.53"/><polyline class="cls-5" points="317.96 70.53 363.99 70.53 363.99 78.64 317.96 78.64 317.96 70.53"/><polyline class="cls-5" points="466.82 70.53 496.61 70.53 496.61 78.64 466.82 78.64 466.82 70.53"/><polyline class="cls-5" points="317.96 78.65 372.09 78.65 372.09 89.49 317.96 89.49 317.96 78.65"/><polyline class="cls-5" points="458.72 78.65 496.61 78.65 496.61 89.49 458.72 89.49 458.72 78.65"/><polyline class="cls-5" points="363.99 70.53 372.09 70.53 372.09 78.64 363.99 78.64 363.99 70.53"/><polyline class="cls-5" points="466.82 70.53 466.82 78.64 458.72 78.64 458.72 70.53 466.82 70.53"/><line class="cls-4" x1="458.72" y1="78.65" x2="458.72" y2="70.54"/><line class="cls-4" x1="372.09" y1="78.65" x2="372.09" y2="70.54"/><line class="cls-4" x1="466.82" y1="70.53" x2="458.72" y2="70.53"/><line class="cls-4" x1="363.99" y1="70.53" x2="372.09" y2="70.53"/><line class="cls-4" x1="458.72" y1="81.36" x2="458.72" y2="89.47"/><line class="cls-4" x1="458.72" y1="78.65" x2="458.72" y2="81.36"/><line class="cls-4" x1="372.09" y1="81.36" x2="372.09" y2="89.47"/><line class="cls-4" x1="372.09" y1="78.65" x2="372.09" y2="81.36"/><line class="cls-4" x1="317.96" y1="89.48" x2="372.09" y2="89.48"/><line class="cls-4" x1="458.72" y1="89.48" x2="496.61" y2="89.48"/><line class="cls-4" x1="496.61" y1="78.65" x2="496.61" y2="89.49"/><line class="cls-4" x1="496.61" y1="70.53" x2="466.82" y2="70.53"/><line class="cls-4" x1="363.99" y1="70.53" x2="317.96" y2="70.53"/><line class="cls-4" x1="317.96" y1="78.65" x2="317.96" y2="89.49"/><line class="cls-4" x1="372.09" y1="70.53" x2="458.72" y2="70.53"/><line class="cls-4" x1="372.09" y1="89.48" x2="458.72" y2="89.48"/><polyline class="cls-5" points="372.09 81.36 372.09 78.66 377.5 78.66 377.5 81.36 372.09 81.36"/><polyline class="cls-5" points="407.82 78.65 407.82 81.36 404.05 81.36 404.05 78.65 407.82 78.65"/><polyline class="cls-5" points="407.82 81.36 407.82 78.66 411.62 78.66 411.62 81.36 407.82 81.36"/><polyline class="cls-5" points="458.72 78.65 458.72 81.36 453.31 81.36 453.31 78.65 458.72 78.65"/><line class="cls-4" x1="372.09" y1="81.36" x2="377.5" y2="81.36"/><line class="cls-4" x1="377.5" y1="81.36" x2="377.5" y2="78.66"/><line class="cls-4" x1="377.5" y1="78.65" x2="372.09" y2="78.65"/><line class="cls-4" x1="407.82" y1="78.65" x2="404.05" y2="78.65"/><line class="cls-4" x1="404.05" y1="78.65" x2="404.05" y2="81.36"/><line class="cls-4" x1="404.05" y1="81.36" x2="407.82" y2="81.36"/><line class="cls-4" x1="377.5" y1="81.36" x2="404.05" y2="81.36"/><line class="cls-4" x1="404.05" y1="78.65" x2="377.5" y2="78.65"/><line class="cls-4" x1="407.82" y1="81.36" x2="411.62" y2="81.36"/><line class="cls-4" x1="411.62" y1="81.36" x2="411.62" y2="78.66"/><line class="cls-4" x1="411.62" y1="78.65" x2="407.82" y2="78.65"/><line class="cls-4" x1="458.72" y1="78.65" x2="453.31" y2="78.65"/><line class="cls-4" x1="453.31" y1="78.65" x2="453.31" y2="81.36"/><line class="cls-4" x1="453.31" y1="81.36" x2="458.72" y2="81.36"/><line class="cls-4" x1="411.62" y1="81.36" x2="453.31" y2="81.36"/><line class="cls-4" x1="453.31" y1="78.65" x2="411.62" y2="78.65"/><line class="cls-4" x1="372.09" y1="78.65" x2="372.09" y2="81.36"/><line class="cls-4" x1="372.09" y1="78.65" x2="372.09" y2="81.36"/><line class="cls-4" x1="372.09" y1="81.36" x2="372.09" y2="89.47"/><line class="cls-4" x1="458.72" y1="78.65" x2="458.72" y2="81.36"/><line class="cls-4" x1="458.72" y1="78.65" x2="458.72" y2="81.36"/><line class="cls-4" x1="458.72" y1="81.36" x2="458.72" y2="89.47"/><line class="cls-4" x1="372.09" y1="78.65" x2="372.09" y2="70.54"/><line class="cls-4" x1="372.09" y1="78.65" x2="372.09" y2="70.54"/><line class="cls-4" x1="458.72" y1="78.65" x2="458.72" y2="70.54"/><line class="cls-4" x1="458.72" y1="78.65" x2="458.72" y2="70.54"/><polyline class="cls-5" points="496.61 78.65 496.61 70.55 507.45 70.55 507.45 78.65 496.61 78.65"/><line class="cls-4" x1="496.61" y1="78.65" x2="507.45" y2="78.65"/><line class="cls-4" x1="507.45" y1="70.53" x2="496.61" y2="70.53"/><line class="cls-4" x1="507.45" y1="78.65" x2="507.45" y2="89.49"/><polyline class="cls-5" points="298.14 119.26 297.38 119.26 297.38 117.62 298.14 119.26"/><polyline class="cls-5" points="106.82 117.63 121.43 117.63 121.43 119.27 106.82 119.27 106.82 117.63"/><polyline class="cls-5" points="297.38 117.63 297.38 119.27 280.06 119.27 280.06 117.63 297.38 117.63"/><polyline class="cls-5" points="299.01 127.38 299.01 121.07 302 127.38 299.01 127.38"/><polyline class="cls-5" points="106.82 119.26 121.43 119.26 121.43 127.39 106.82 127.39 106.82 119.26"/><polyline class="cls-5" points="280.06 119.26 298.14 119.26 299.01 121.06 299.01 127.39 280.06 127.39 280.06 119.26"/><polyline class="cls-5" points="106.82 127.38 123.06 127.38 123.06 138.22 106.82 138.22 106.82 127.38"/><polyline class="cls-5" points="278.43 138.21 278.43 127.37 302 127.37 307.12 138.21 278.43 138.21"/><polyline class="cls-5" points="121.43 117.63 123.06 117.63 123.06 127.37 121.43 127.37 121.43 117.63"/><polyline class="cls-5" points="280.06 117.63 280.06 127.37 278.43 127.37 278.43 117.63 280.06 117.63"/><polyline class="cls-5" points="280.06 117.63 280.06 127.37 278.43 127.37 278.43 117.63 280.06 117.63"/><line class="cls-4" x1="123.06" y1="119.26" x2="123.06" y2="127.39"/><line class="cls-4" x1="123.06" y1="117.63" x2="123.06" y2="119.27"/><line class="cls-4" x1="121.43" y1="117.63" x2="123.06" y2="117.63"/><line class="cls-4" x1="123.06" y1="130.08" x2="123.06" y2="138.19"/><line class="cls-4" x1="123.06" y1="127.38" x2="123.06" y2="130.08"/><line class="cls-4" x1="106.82" y1="138.21" x2="123.06" y2="138.21"/><line class="cls-4" x1="278.43" y1="138.21" x2="307.12" y2="138.21"/><line class="cls-4" x1="297.38" y1="117.63" x2="280.07" y2="117.63"/><line class="cls-4" x1="121.43" y1="117.63" x2="106.82" y2="117.63"/><line class="cls-4" x1="106.82" y1="127.38" x2="106.82" y2="138.22"/><line class="cls-4" x1="232.4" y1="117.63" x2="123.06" y2="117.63"/><line class="cls-4" x1="232.4" y1="138.21" x2="123.06" y2="138.21"/><polyline class="cls-5" points="232.4 130.08 227 130.08 227 127.38 232.4 127.38 232.4 130.08"/><polyline class="cls-5" points="177.2 127.38 181 127.38 181 130.08 177.2 130.08 177.2 127.38"/><polyline class="cls-5" points="177.2 130.08 173.4 130.08 173.4 127.38 177.2 127.38 177.2 130.08"/><polyline class="cls-5" points="123.06 127.38 128.47 127.38 128.47 130.08 123.06 130.08 123.06 127.38"/><line class="cls-4" x1="232.4" y1="130.08" x2="227" y2="130.08"/><line class="cls-4" x1="227" y1="130.08" x2="227" y2="127.38"/><line class="cls-4" x1="227" y1="127.38" x2="232.4" y2="127.38"/><line class="cls-4" x1="177.2" y1="127.38" x2="181" y2="127.38"/><line class="cls-4" x1="181" y1="127.38" x2="181" y2="130.08"/><line class="cls-4" x1="181" y1="130.08" x2="177.2" y2="130.08"/><line class="cls-4" x1="227" y1="130.08" x2="181" y2="130.08"/><line class="cls-4" x1="181" y1="127.38" x2="227" y2="127.38"/><line class="cls-4" x1="177.2" y1="130.08" x2="173.4" y2="130.08"/><line class="cls-4" x1="173.4" y1="130.08" x2="173.4" y2="127.38"/><line class="cls-4" x1="173.4" y1="127.38" x2="177.2" y2="127.38"/><line class="cls-4" x1="123.06" y1="127.38" x2="128.47" y2="127.38"/><line class="cls-4" x1="128.47" y1="127.38" x2="128.47" y2="130.08"/><line class="cls-4" x1="128.47" y1="130.08" x2="123.06" y2="130.08"/><line class="cls-4" x1="173.4" y1="130.08" x2="128.47" y2="130.08"/><line class="cls-4" x1="128.47" y1="127.38" x2="173.4" y2="127.38"/><line class="cls-4" x1="123.06" y1="127.38" x2="123.06" y2="130.08"/><line class="cls-4" x1="123.06" y1="127.38" x2="123.06" y2="130.08"/><line class="cls-4" x1="123.06" y1="130.08" x2="123.06" y2="138.19"/><line class="cls-4" x1="123.06" y1="117.63" x2="123.06" y2="119.27"/><line class="cls-4" x1="123.06" y1="119.26" x2="123.06" y2="127.39"/><line class="cls-4" x1="232.4" y1="116.01" x2="278.43" y2="116.01"/><line class="cls-4" x1="278.43" y1="116.01" x2="278.43" y2="117.64"/><line class="cls-4" x1="278.43" y1="138.21" x2="278.43" y2="139.84"/><line class="cls-4" x1="278.43" y1="139.83" x2="232.4" y2="139.83"/><path class="cls-4" d="M304.6,207a41.69,41.69,0,0,1-41.69-41.69" transform="translate(-28.34 -35.23)"/><polyline class="cls-5" points="232.4 127.38 234.57 127.38 234.57 130.08 232.4 130.08 232.4 127.38"/><polyline class="cls-5" points="278.43 130.08 276.26 130.08 276.26 127.38 278.43 127.38 278.43 130.08"/><line class="cls-4" x1="232.4" y1="127.38" x2="234.57" y2="127.38"/><line class="cls-4" x1="234.57" y1="127.38" x2="234.57" y2="130.08"/><line class="cls-4" x1="234.57" y1="130.08" x2="232.4" y2="130.08"/><line class="cls-4" x1="278.43" y1="130.08" x2="276.26" y2="130.08"/><line class="cls-4" x1="276.26" y1="130.08" x2="276.26" y2="127.38"/><line class="cls-4" x1="276.26" y1="127.38" x2="278.43" y2="127.38"/><line class="cls-4" x1="278.43" y1="127.38" x2="278.43" y2="130.08"/><line class="cls-4" x1="276.26" y1="130.08" x2="276.26" y2="171.78"/><line class="cls-4" x1="278.43" y1="127.38" x2="278.43" y2="130.08"/><line class="cls-4" x1="278.43" y1="127.38" x2="278.43" y2="130.08"/><line class="cls-4" x1="278.43" y1="130.08" x2="278.43" y2="138.19"/><line class="cls-4" x1="278.43" y1="130.08" x2="278.43" y2="138.19"/><line class="cls-4" x1="278.43" y1="117.63" x2="278.43" y2="119.27"/><line class="cls-4" x1="278.43" y1="117.63" x2="278.43" y2="119.27"/><line class="cls-4" x1="278.43" y1="119.26" x2="278.43" y2="127.39"/><line class="cls-4" x1="278.43" y1="119.26" x2="278.43" y2="127.39"/><line class="cls-4" x1="232.4" y1="116.01" x2="278.43" y2="116.01"/><line class="cls-4" x1="278.43" y1="116.01" x2="278.43" y2="117.64"/><line class="cls-4" x1="278.43" y1="138.21" x2="278.43" y2="139.84"/><line class="cls-4" x1="278.43" y1="139.83" x2="232.4" y2="139.83"/><path class="cls-4" d="M304.6,207a41.69,41.69,0,0,1-41.69-41.69" transform="translate(-28.34 -35.23)"/><polyline class="cls-5" points="232.4 127.38 234.57 127.38 234.57 130.08 232.4 130.08 232.4 127.38"/><polyline class="cls-5" points="278.43 130.08 276.26 130.08 276.26 127.38 278.43 127.38 278.43 130.08"/><line class="cls-4" x1="232.4" y1="127.38" x2="234.57" y2="127.38"/><line class="cls-4" x1="234.57" y1="127.38" x2="234.57" y2="130.08"/><line class="cls-4" x1="234.57" y1="130.08" x2="232.4" y2="130.08"/><line class="cls-4" x1="278.43" y1="130.08" x2="276.26" y2="130.08"/><line class="cls-4" x1="276.26" y1="130.08" x2="276.26" y2="127.38"/><line class="cls-4" x1="276.26" y1="127.38" x2="278.43" y2="127.38"/><line class="cls-4" x1="278.43" y1="127.38" x2="278.43" y2="130.08"/><line class="cls-4" x1="276.26" y1="130.08" x2="276.26" y2="171.78"/><line class="cls-4" x1="278.43" y1="127.38" x2="278.43" y2="130.08"/><line class="cls-4" x1="278.43" y1="127.38" x2="278.43" y2="130.08"/><line class="cls-4" x1="278.43" y1="130.08" x2="278.43" y2="138.19"/><line class="cls-4" x1="278.43" y1="130.08" x2="278.43" y2="138.19"/><line class="cls-4" x1="278.43" y1="117.63" x2="278.43" y2="119.27"/><line class="cls-4" x1="278.43" y1="117.63" x2="278.43" y2="119.27"/><line class="cls-4" x1="278.43" y1="119.26" x2="278.43" y2="127.39"/><line class="cls-4" x1="278.43" y1="119.26" x2="278.43" y2="127.39"/><polyline class="cls-5" points="101.95 119.26 101.95 117.62 106.82 117.62 106.82 119.26 101.95 119.26"/><polyline class="cls-5" points="101.95 117.63 101.95 119.27 100.31 119.27 100.31 117.63 101.95 117.63"/><polyline class="cls-5" points="106.82 119.26 106.82 127.39 100.32 127.39 100.32 119.26 106.82 119.26"/><line class="cls-4" x1="106.82" y1="117.63" x2="101.95" y2="117.63"/><line class="cls-4" x1="100.32" y1="117.63" x2="100.32" y2="119.27"/><line class="cls-4" x1="100.32" y1="127.38" x2="106.82" y2="127.38"/><line class="cls-4" x1="463.05" y1="180.43" x2="463.05" y2="147.95"/><line class="cls-4" x1="463.05" y1="147.95" x2="495.54" y2="147.95"/><line class="cls-4" x1="495.54" y1="147.95" x2="495.54" y2="180.44"/><line class="cls-4" x1="495.54" y1="180.43" x2="463.05" y2="180.43"/><line class="cls-4" x1="466.04" y1="179.89" x2="466.04" y2="148.5"/><line class="cls-4" x1="466.04" y1="148.49" x2="492.56" y2="148.49"/><line class="cls-4" x1="492.56" y1="148.49" x2="492.56" y2="179.88"/><line class="cls-4" x1="492.56" y1="179.89" x2="466.04" y2="179.89"/><path class="cls-4" d="M518.84,208.06a3.93,3.93,0,1,0-3.91,3.91,3.91,3.91,0,0,0,3.91-3.91" transform="translate(-28.34 -35.23)"/><path class="cls-4" d="M508,206.27a5.69,5.69,0,1,0-5.69,5.68,5.69,5.69,0,0,0,5.69-5.68" transform="translate(-28.34 -35.23)"/><path class="cls-4" d="M518.76,191.57a4.87,4.87,0,1,0-4.87,4.87,4.86,4.86,0,0,0,4.87-4.87" transform="translate(-28.34 -35.23)"/><path class="cls-4" d="M505.44,190.47a3.92,3.92,0,1,0-3.91,3.91,3.9,3.9,0,0,0,3.91-3.91" transform="translate(-28.34 -35.23)"/><path class="cls-4" d="M495.45,260.05a1.06,1.06,0,0,1,1.07-1.06" transform="translate(-28.34 -35.23)"/><line class="cls-4" x1="493.09" y1="223.74" x2="468.18" y2="223.74"/><path class="cls-4" d="M521.43,259a1.1,1.1,0,0,1,1.1,1.07" transform="translate(-28.34 -35.23)"/><line class="cls-4" x1="494.19" y1="265.97" x2="494.19" y2="224.81"/><path class="cls-4" d="M522.53,301.2a1.1,1.1,0,0,1-1.1,1.07" transform="translate(-28.34 -35.23)"/><line class="cls-4" x1="468.18" y1="267.05" x2="493.09" y2="267.05"/><path class="cls-4" d="M496.52,302.28a1.06,1.06,0,0,1-1.07-1.07" transform="translate(-28.34 -35.23)"/><line class="cls-4" x1="467.11" y1="224.83" x2="467.11" y2="265.98"/><line class="cls-4" x1="463.05" y1="212.92" x2="463.05" y2="277.89"/><line class="cls-4" x1="495.54" y1="212.92" x2="495.54" y2="277.89"/><line class="cls-4" x1="463.05" y1="212.92" x2="495.54" y2="212.92"/><line class="cls-4" x1="463.05" y1="277.88" x2="495.54" y2="277.88"/><line class="cls-4" x1="469.81" y1="227.53" x2="469.81" y2="243.49"/><line class="cls-4" x1="470.91" y1="244.59" x2="487.69" y2="244.59"/><line class="cls-4" x1="488.75" y1="243.5" x2="488.75" y2="227.54"/><line class="cls-4" x1="487.69" y1="226.45" x2="470.91" y2="226.45"/><line class="cls-4" x1="469.81" y1="227.53" x2="469.81" y2="227.53"/><line class="cls-4" x1="469.81" y1="247.29" x2="469.81" y2="263.26"/><line class="cls-4" x1="470.91" y1="264.35" x2="487.69" y2="264.35"/><line class="cls-4" x1="488.75" y1="263.26" x2="488.75" y2="247.3"/><line class="cls-4" x1="487.69" y1="246.21" x2="470.91" y2="246.21"/><line class="cls-4" x1="469.81" y1="247.29" x2="469.81" y2="247.29"/><path class="cls-4" d="M499.25,279.82a1.08,1.08,0,0,1-1.1-1.07" transform="translate(-28.34 -35.23)"/><path class="cls-4" d="M517.09,278.73A1.06,1.06,0,0,1,516,279.8" transform="translate(-28.34 -35.23)"/><path class="cls-4" d="M516,261.68a1.06,1.06,0,0,1,1.06,1.07" transform="translate(-28.34 -35.23)"/><path class="cls-4" d="M498.15,262.76a1.08,1.08,0,0,1,1.1-1.07" transform="translate(-28.34 -35.23)"/><path class="cls-4" d="M499.25,299.57a1.07,1.07,0,0,1-1.1-1.07" transform="translate(-28.34 -35.23)"/><path class="cls-4" d="M517.09,298.49a1.06,1.06,0,0,1-1.06,1.07" transform="translate(-28.34 -35.23)"/><path class="cls-4" d="M516,281.44a1.06,1.06,0,0,1,1.06,1.07" transform="translate(-28.34 -35.23)"/><path class="cls-4" d="M498.15,282.52a1.08,1.08,0,0,1,1.1-1.07" transform="translate(-28.34 -35.23)"/><line class="cls-4" x1="492.56" y1="244.91" x2="481.83" y2="244.91"/><path class="cls-4" d="M520.9,280.14a.49.49,0,0,1,0,1" transform="translate(-28.34 -35.23)"/><line class="cls-4" x1="481.83" y1="245.89" x2="492.56" y2="245.89"/><path class="cls-4" d="M510.17,281.12h0a.5.5,0,0,1-.48-.48.51.51,0,0,1,.48-.51" transform="translate(-28.34 -35.23)"/><line class="cls-4" x1="493.32" y1="244.32" x2="489.8" y2="244.32"/><line class="cls-4" x1="493.32" y1="246.48" x2="493.32" y2="244.31"/><line class="cls-4" x1="489.8" y1="246.48" x2="493.32" y2="246.48"/><line class="cls-4" x1="489.8" y1="245.89" x2="489.8" y2="246.48"/><line class="cls-4" x1="492.56" y1="245.89" x2="489.8" y2="245.89"/><path class="cls-4" d="M520.9,280.14a.49.49,0,0,1,0,1" transform="translate(-28.34 -35.23)"/><line class="cls-4" x1="489.8" y1="244.91" x2="492.56" y2="244.91"/><line class="cls-4" x1="489.8" y1="244.32" x2="489.8" y2="244.91"/><line class="cls-4" x1="489.74" y1="244.33" x2="487.85" y2="244.33"/><line class="cls-4" x1="489.74" y1="244.91" x2="489.74" y2="244.32"/><line class="cls-4" x1="487.85" y1="244.91" x2="489.74" y2="244.91"/><line class="cls-4" x1="487.85" y1="244.33" x2="487.85" y2="244.92"/><line class="cls-4" x1="487.85" y1="245.89" x2="487.85" y2="246.48"/><line class="cls-4" x1="489.74" y1="245.89" x2="487.85" y2="245.89"/><line class="cls-4" x1="489.74" y1="246.46" x2="489.74" y2="245.87"/><line class="cls-4" x1="487.85" y1="246.46" x2="489.74" y2="246.46"/><line class="cls-4" x1="463.05" y1="115.47" x2="463.05" y2="147.95"/><line class="cls-4" x1="495.54" y1="115.47" x2="495.54" y2="147.95"/><line class="cls-4" x1="463.05" y1="115.47" x2="495.54" y2="115.47"/><line class="cls-4" x1="463.05" y1="147.95" x2="495.54" y2="147.95"/><line class="cls-4" x1="463.05" y1="180.43" x2="463.05" y2="212.92"/><line class="cls-4" x1="495.54" y1="180.43" x2="495.54" y2="212.92"/><line class="cls-4" x1="463.05" y1="180.43" x2="495.54" y2="180.43"/><line class="cls-4" x1="463.05" y1="212.92" x2="495.54" y2="212.92"/><line class="cls-4" x1="456.92" y1="337.94" x2="454.21" y2="337.27"/><line class="cls-4" x1="454.21" y1="337.27" x2="451.68" y2="336.26"/><line class="cls-4" x1="451.68" y1="336.24" x2="449.65" y2="334.86"/><line class="cls-4" x1="449.65" y1="334.85" x2="448.1" y2="333.08"/><line class="cls-4" x1="448.1" y1="333.07" x2="447.15" y2="330.98"/><line class="cls-4" x1="447.15" y1="330.99" x2="446.81" y2="328.77"/><line class="cls-4" x1="446.81" y1="328.77" x2="447.15" y2="326.55"/><line class="cls-4" x1="447.15" y1="326.55" x2="448.1" y2="324.46"/><line class="cls-4" x1="448.1" y1="324.48" x2="449.65" y2="322.67"/><line class="cls-4" x1="449.65" y1="322.68" x2="451.68" y2="321.31"/><line class="cls-4" x1="451.68" y1="321.3" x2="454.21" y2="320.26"/><line class="cls-4" x1="454.21" y1="320.27" x2="456.92" y2="319.59"/><line class="cls-4" x1="456.92" y1="319.6" x2="459.67" y2="319.29"/><line class="cls-4" x1="459.67" y1="319.3" x2="462.49" y2="319.38"/><line class="cls-4" x1="462.49" y1="319.38" x2="481.46" y2="321.13"/><line class="cls-4" x1="481.46" y1="321.14" x2="481.46" y2="336.4"/><line class="cls-4" x1="481.46" y1="336.4" x2="462.49" y2="338.15"/><line class="cls-4" x1="462.49" y1="338.16" x2="459.67" y2="338.24"/><line class="cls-4" x1="459.67" y1="338.24" x2="456.92" y2="337.93"/><line class="cls-4" x1="476.85" y1="319.57" x2="476.9" y2="318.95"/><line class="cls-4" x1="476.9" y1="318.95" x2="477.1" y2="318.41"/><line class="cls-4" x1="477.1" y1="318.42" x2="477.35" y2="318.08"/><line class="cls-4" x1="477.35" y1="318.07" x2="477.66" y2="317.95"/><line class="cls-4" x1="477.66" y1="317.94" x2="480.62" y2="317.94"/><line class="cls-4" x1="480.62" y1="317.94" x2="480.96" y2="318.06"/><line class="cls-4" x1="480.96" y1="318.07" x2="481.21" y2="318.41"/><line class="cls-4" x1="481.21" y1="318.42" x2="481.38" y2="318.95"/><line class="cls-4" x1="481.38" y1="318.95" x2="481.46" y2="319.57"/><line class="cls-4" x1="481.46" y1="319.57" x2="481.46" y2="337.98"/><line class="cls-4" x1="481.46" y1="337.97" x2="481.38" y2="338.59"/><line class="cls-4" x1="481.38" y1="338.6" x2="481.21" y2="339.13"/><line class="cls-4" x1="481.21" y1="339.12" x2="480.96" y2="339.46"/><line class="cls-4" x1="480.96" y1="339.47" x2="480.62" y2="339.59"/><line class="cls-4" x1="480.62" y1="339.6" x2="477.66" y2="339.6"/><line class="cls-4" x1="477.66" y1="339.6" x2="477.35" y2="339.49"/><line class="cls-4" x1="477.35" y1="339.47" x2="477.1" y2="339.14"/><line class="cls-4" x1="477.1" y1="339.12" x2="476.9" y2="338.59"/><line class="cls-4" x1="476.9" y1="338.6" x2="476.85" y2="337.98"/><line class="cls-4" x1="476.85" y1="337.97" x2="476.85" y2="319.56"/><line class="cls-4" x1="395.43" y1="293.58" x2="420.88" y2="293.58"/><path class="cls-4" d="M449.22,328.81a.82.82,0,0,1,.82.82" transform="translate(-28.34 -35.23)"/><line class="cls-4" x1="421.7" y1="294.39" x2="421.7" y2="309"/><path class="cls-4" d="M450,344.24a.82.82,0,0,1-.82.82" transform="translate(-28.34 -35.23)"/><line class="cls-4" x1="420.88" y1="309.82" x2="395.43" y2="309.82"/><path class="cls-4" d="M423.77,345.05a.81.81,0,0,1-.81-.82" transform="translate(-28.34 -35.23)"/><line class="cls-4" x1="394.62" y1="309.01" x2="394.62" y2="294.4"/><path class="cls-4" d="M423,329.62a.82.82,0,0,1,.81-.82" transform="translate(-28.34 -35.23)"/><line class="cls-4" x1="407.82" y1="372.08" x2="407.82" y2="359.64"/><path class="cls-4" d="M436.16,394.86a.51.51,0,0,1,.53-.53" transform="translate(-28.34 -35.23)"/><line class="cls-4" x1="408.35" y1="359.09" x2="408.35" y2="359.09"/><line class="cls-4" x1="408.35" y1="359.09" x2="425.67" y2="359.09"/><line class="cls-4" x1="425.67" y1="359.09" x2="443.01" y2="359.09"/><path class="cls-4" d="M471.35,394.32a.55.55,0,0,1,.53.53" transform="translate(-28.34 -35.23)"/><line class="cls-4" x1="443.54" y1="359.63" x2="443.54" y2="359.63"/><line class="cls-4" x1="443.54" y1="359.63" x2="443.54" y2="372.07"/><path class="cls-4" d="M471.88,407.31a10.68,10.68,0,0,1-5.23,9.18" transform="translate(-28.34 -35.23)"/><line class="cls-4" x1="438.31" y1="381.27" x2="438.31" y2="381.27"/><path class="cls-4" d="M466.65,416.5A22.9,22.9,0,0,1,454,420.3" transform="translate(-28.34 -35.23)"/><line class="cls-4" x1="425.67" y1="385.07" x2="425.67" y2="385.07"/><path class="cls-4" d="M454,420.3a22.92,22.92,0,0,1-12.64-3.8" transform="translate(-28.34 -35.23)"/><line class="cls-4" x1="413.03" y1="381.27" x2="413.03" y2="381.27"/><path class="cls-4" d="M441.37,416.5a10.65,10.65,0,0,1-5.21-9.18" transform="translate(-28.34 -35.23)"/><line class="cls-4" x1="407.82" y1="372.08" x2="407.82" y2="372.08"/><line class="cls-4" x1="494.98" y1="358.55" x2="494.98" y2="450.58"/><line class="cls-4" x1="494.98" y1="450.58" x2="454.38" y2="450.58"/><line class="cls-4" x1="454.38" y1="450.58" x2="454.38" y2="358.56"/><line class="cls-4" x1="454.38" y1="358.55" x2="494.98" y2="358.55"/><line class="cls-4" x1="394.28" y1="457.08" x2="394.28" y2="424.59"/><line class="cls-4" x1="394.28" y1="424.6" x2="426.76" y2="424.6"/><line class="cls-4" x1="426.76" y1="424.6" x2="426.76" y2="457.08"/><line class="cls-4" x1="426.76" y1="457.08" x2="394.28" y2="457.08"/><line class="cls-4" x1="167.49" y1="65.66" x2="167.49" y2="39.14"/><line class="cls-4" x1="168.02" y1="65.66" x2="168.02" y2="39.14"/><line class="cls-4" x1="167.49" y1="39.13" x2="168.02" y2="39.13"/><line class="cls-4" x1="168.02" y1="65.66" x2="168.02" y2="67.83"/><line class="cls-4" x1="167.49" y1="67.83" x2="168.02" y2="67.83"/><line class="cls-4" x1="167.49" y1="65.66" x2="167.49" y2="67.83"/><line class="cls-4" x1="129.59" y1="45.22" x2="160.45" y2="45.22"/><line class="cls-4" x1="118.75" y1="46.04" x2="118.87" y2="45.64"/><line class="cls-4" x1="118.75" y1="60.92" x2="118.75" y2="46.03"/><line class="cls-4" x1="118.87" y1="61.33" x2="118.75" y2="60.93"/><line class="cls-4" x1="119.18" y1="61.63" x2="118.87" y2="61.32"/><line class="cls-4" x1="119.57" y1="61.74" x2="119.18" y2="61.62"/><line class="cls-4" x1="161.26" y1="61.74" x2="119.57" y2="61.74"/><line class="cls-4" x1="161.66" y1="61.63" x2="161.26" y2="61.74"/><line class="cls-4" x1="161.97" y1="61.33" x2="161.66" y2="61.64"/><line class="cls-4" x1="162.08" y1="60.92" x2="161.97" y2="61.32"/><line class="cls-4" x1="162.08" y1="46.04" x2="162.08" y2="60.93"/><line class="cls-4" x1="161.97" y1="45.63" x2="162.08" y2="46.02"/><line class="cls-4" x1="161.66" y1="45.33" x2="161.97" y2="45.64"/><line class="cls-4" x1="161.26" y1="45.22" x2="161.66" y2="45.34"/><line class="cls-4" x1="119.57" y1="45.22" x2="161.26" y2="45.22"/><line class="cls-4" x1="119.18" y1="45.33" x2="119.57" y2="45.22"/><line class="cls-4" x1="118.87" y1="45.63" x2="119.18" y2="45.32"/><line class="cls-4" x1="168.02" y1="38.59" x2="168.02" y2="39.13"/><line class="cls-4" x1="168.02" y1="38.59" x2="113.86" y2="38.59"/><line class="cls-4" x1="113.86" y1="39.13" x2="113.86" y2="38.6"/><line class="cls-4" x1="168.02" y1="39.13" x2="113.86" y2="39.13"/><line class="cls-4" x1="167.49" y1="65.66" x2="113.86" y2="65.66"/><line class="cls-4" x1="167.49" y1="39.13" x2="167.49" y2="65.65"/><line class="cls-4" x1="113.86" y1="65.66" x2="113.86" y2="39.14"/><line class="cls-4" x1="113.86" y1="39.13" x2="167.49" y2="39.13"/><line class="cls-4" x1="113.32" y1="38.59" x2="113.86" y2="38.59"/><line class="cls-4" x1="113.32" y1="38.59" x2="113.32" y2="65.67"/><line class="cls-4" x1="113.86" y1="39.13" x2="113.86" y2="65.65"/><line class="cls-4" x1="113.86" y1="65.66" x2="113.86" y2="67.83"/><line class="cls-4" x1="113.32" y1="65.66" x2="113.32" y2="67.83"/><line class="cls-4" x1="113.32" y1="67.83" x2="113.86" y2="67.83"/><polyline class="cls-5" points="95.44 67.83 110.62 67.83 110.62 74.33 101.95 74.33 95.44 67.83"/><polyline class="cls-5" points="281.13 67.83 299.01 67.83 299.01 74.33 281.13 74.33 281.13 67.83"/><line class="cls-4" x1="101.95" y1="74.32" x2="110.62" y2="74.32"/><line class="cls-4" x1="281.13" y1="74.32" x2="299.01" y2="74.32"/><line class="cls-4" x1="299.01" y1="67.83" x2="299.01" y2="74.33"/><line class="cls-4" x1="299.01" y1="67.83" x2="281.13" y2="67.83"/><line class="cls-4" x1="110.62" y1="67.83" x2="95.45" y2="67.83"/><line class="cls-4" x1="110.62" y1="67.83" x2="281.13" y2="67.83"/><line class="cls-4" x1="110.62" y1="74.32" x2="281.13" y2="74.32"/><polyline class="cls-5" points="110.62 70.53 110.62 67.83 113.86 67.83 113.86 70.53 110.62 70.53"/><polyline class="cls-5" points="166.56 67.83 166.56 70.53 164.92 70.53 164.92 67.83 166.56 67.83"/><polyline class="cls-5" points="166.56 70.53 166.56 67.83 170.33 67.83 170.33 70.53 166.56 70.53"/><polyline class="cls-5" points="225.2 67.83 225.2 70.53 221.4 70.53 221.4 67.83 225.2 67.83"/><polyline class="cls-5" points="225.2 70.53 225.2 67.83 226.83 67.83 226.83 70.53 225.2 70.53"/><polyline class="cls-5" points="281.13 67.83 281.13 70.53 277.9 70.53 277.9 67.83 281.13 67.83"/><line class="cls-4" x1="110.62" y1="70.53" x2="113.86" y2="70.53"/><line class="cls-4" x1="113.86" y1="70.53" x2="113.86" y2="67.83"/><line class="cls-4" x1="113.86" y1="67.83" x2="110.62" y2="67.83"/><line class="cls-4" x1="166.56" y1="67.83" x2="164.92" y2="67.83"/><line class="cls-4" x1="164.92" y1="67.83" x2="164.92" y2="70.53"/><line class="cls-4" x1="164.92" y1="70.53" x2="166.56" y2="70.53"/><line class="cls-4" x1="113.86" y1="70.53" x2="164.92" y2="70.53"/><line class="cls-4" x1="164.92" y1="67.83" x2="113.86" y2="67.83"/><line class="cls-4" x1="166.56" y1="70.53" x2="170.33" y2="70.53"/><line class="cls-4" x1="170.33" y1="70.53" x2="170.33" y2="67.83"/><line class="cls-4" x1="170.33" y1="67.83" x2="166.56" y2="67.83"/><line class="cls-4" x1="225.2" y1="67.83" x2="221.4" y2="67.83"/><line class="cls-4" x1="221.4" y1="67.83" x2="221.4" y2="70.53"/><line class="cls-4" x1="221.4" y1="70.53" x2="225.2" y2="70.53"/><line class="cls-4" x1="170.33" y1="70.53" x2="221.4" y2="70.53"/><line class="cls-4" x1="221.4" y1="67.83" x2="170.33" y2="67.83"/><line class="cls-4" x1="225.2" y1="70.53" x2="226.83" y2="70.53"/><line class="cls-4" x1="226.83" y1="70.53" x2="226.83" y2="67.83"/><line class="cls-4" x1="226.83" y1="67.83" x2="225.2" y2="67.83"/><line class="cls-4" x1="281.13" y1="67.83" x2="277.9" y2="67.83"/><line class="cls-4" x1="277.9" y1="67.83" x2="277.9" y2="70.53"/><line class="cls-4" x1="277.9" y1="70.53" x2="281.13" y2="70.53"/><line class="cls-4" x1="226.83" y1="70.53" x2="277.9" y2="70.53"/><line class="cls-4" x1="277.9" y1="67.83" x2="226.83" y2="67.83"/><line class="cls-4" x1="110.62" y1="67.83" x2="110.62" y2="70.53"/><line class="cls-4" x1="110.62" y1="67.83" x2="110.62" y2="70.53"/><line class="cls-4" x1="110.62" y1="70.53" x2="110.62" y2="74.33"/><line class="cls-4" x1="110.62" y1="67.83" x2="281.13" y2="67.83"/><line class="cls-4" x1="110.62" y1="74.32" x2="281.13" y2="74.32"/><polyline class="cls-5" points="110.62 70.53 110.62 67.83 113.86 67.83 113.86 70.53 110.62 70.53"/><polyline class="cls-5" points="167.99 67.83 167.99 70.53 166.36 70.53 166.36 67.83 167.99 67.83"/><polyline class="cls-5" points="167.99 70.53 167.99 67.83 169.63 67.83 169.63 70.53 167.99 70.53"/><polyline class="cls-5" points="223.76 67.83 223.76 70.53 222.13 70.53 222.13 67.83 223.76 67.83"/><polyline class="cls-5" points="223.76 70.53 223.76 67.83 225.37 67.83 225.37 70.53 223.76 70.53"/><polyline class="cls-5" points="281.13 67.83 281.13 70.53 277.9 70.53 277.9 67.83 281.13 67.83"/><line class="cls-4" x1="110.62" y1="70.53" x2="113.86" y2="70.53"/><line class="cls-4" x1="113.86" y1="70.53" x2="113.86" y2="67.83"/><line class="cls-4" x1="113.86" y1="67.83" x2="110.62" y2="67.83"/><line class="cls-4" x1="167.99" y1="67.83" x2="166.36" y2="67.83"/><line class="cls-4" x1="166.36" y1="67.83" x2="166.36" y2="70.53"/><line class="cls-4" x1="166.36" y1="70.53" x2="167.99" y2="70.53"/><line class="cls-4" x1="113.86" y1="70.53" x2="166.36" y2="70.53"/><line class="cls-4" x1="166.36" y1="67.83" x2="113.86" y2="67.83"/><line class="cls-4" x1="167.99" y1="70.53" x2="169.63" y2="70.53"/><line class="cls-4" x1="169.63" y1="70.53" x2="169.63" y2="67.83"/><line class="cls-4" x1="169.63" y1="67.83" x2="167.99" y2="67.83"/><line class="cls-4" x1="223.76" y1="67.83" x2="222.13" y2="67.83"/><line class="cls-4" x1="222.13" y1="67.83" x2="222.13" y2="70.53"/><line class="cls-4" x1="222.13" y1="70.53" x2="223.76" y2="70.53"/><line class="cls-4" x1="169.63" y1="70.53" x2="222.13" y2="70.53"/><line class="cls-4" x1="222.13" y1="67.83" x2="169.63" y2="67.83"/><line class="cls-4" x1="223.76" y1="70.53" x2="225.37" y2="70.53"/><line class="cls-4" x1="225.37" y1="70.53" x2="225.37" y2="67.83"/><line class="cls-4" x1="225.37" y1="67.83" x2="223.76" y2="67.83"/><line class="cls-4" x1="281.13" y1="67.83" x2="277.9" y2="67.83"/><line class="cls-4" x1="277.9" y1="67.83" x2="277.9" y2="70.53"/><line class="cls-4" x1="277.9" y1="70.53" x2="281.13" y2="70.53"/><line class="cls-4" x1="225.37" y1="70.53" x2="277.9" y2="70.53"/><line class="cls-4" x1="277.9" y1="67.83" x2="225.37" y2="67.83"/><line class="cls-4" x1="110.62" y1="67.83" x2="110.62" y2="70.53"/><line class="cls-4" x1="110.62" y1="67.83" x2="110.62" y2="70.53"/><line class="cls-4" x1="110.62" y1="70.53" x2="110.62" y2="74.33"/><line class="cls-4" x1="110.62" y1="67.83" x2="281.13" y2="67.83"/><line class="cls-4" x1="110.62" y1="74.32" x2="281.13" y2="74.32"/><polyline class="cls-5" points="110.62 70.53 110.62 67.83 113.86 67.83 113.86 70.53 110.62 70.53"/><polyline class="cls-5" points="167.99 67.83 167.99 70.53 166.36 70.53 166.36 67.83 167.99 67.83"/><polyline class="cls-5" points="167.99 70.53 167.99 67.83 169.63 67.83 169.63 70.53 167.99 70.53"/><polyline class="cls-5" points="223.76 67.83 223.76 70.53 222.13 70.53 222.13 67.83 223.76 67.83"/><polyline class="cls-5" points="223.76 70.53 223.76 67.83 225.37 67.83 225.37 70.53 223.76 70.53"/><polyline class="cls-5" points="281.13 67.83 281.13 70.53 277.9 70.53 277.9 67.83 281.13 67.83"/><line class="cls-4" x1="110.62" y1="70.53" x2="113.86" y2="70.53"/><line class="cls-4" x1="113.86" y1="70.53" x2="113.86" y2="67.83"/><line class="cls-4" x1="113.86" y1="67.83" x2="110.62" y2="67.83"/><line class="cls-4" x1="167.99" y1="67.83" x2="166.36" y2="67.83"/><line class="cls-4" x1="166.36" y1="67.83" x2="166.36" y2="70.53"/><line class="cls-4" x1="166.36" y1="70.53" x2="167.99" y2="70.53"/><line class="cls-4" x1="113.86" y1="70.53" x2="166.36" y2="70.53"/><line class="cls-4" x1="166.36" y1="67.83" x2="113.86" y2="67.83"/><line class="cls-4" x1="167.99" y1="70.53" x2="169.63" y2="70.53"/><line class="cls-4" x1="169.63" y1="70.53" x2="169.63" y2="67.83"/><line class="cls-4" x1="169.63" y1="67.83" x2="167.99" y2="67.83"/><line class="cls-4" x1="223.76" y1="67.83" x2="222.13" y2="67.83"/><line class="cls-4" x1="222.13" y1="67.83" x2="222.13" y2="70.53"/><line class="cls-4" x1="222.13" y1="70.53" x2="223.76" y2="70.53"/><line class="cls-4" x1="169.63" y1="70.53" x2="222.13" y2="70.53"/><line class="cls-4" x1="222.13" y1="67.83" x2="169.63" y2="67.83"/><line class="cls-4" x1="223.76" y1="70.53" x2="225.37" y2="70.53"/><line class="cls-4" x1="225.37" y1="70.53" x2="225.37" y2="67.83"/><line class="cls-4" x1="225.37" y1="67.83" x2="223.76" y2="67.83"/><line class="cls-4" x1="281.13" y1="67.83" x2="277.9" y2="67.83"/><line class="cls-4" x1="277.9" y1="67.83" x2="277.9" y2="70.53"/><line class="cls-4" x1="277.9" y1="70.53" x2="281.13" y2="70.53"/><line class="cls-4" x1="225.37" y1="70.53" x2="277.9" y2="70.53"/><line class="cls-4" x1="277.9" y1="67.83" x2="225.37" y2="67.83"/><line class="cls-4" x1="110.62" y1="67.83" x2="110.62" y2="70.53"/><line class="cls-4" x1="110.62" y1="67.83" x2="110.62" y2="70.53"/><line class="cls-4" x1="110.62" y1="70.53" x2="110.62" y2="74.33"/><polyline class="cls-5" points="101.95 74.32 95.44 74.32 95.44 67.82 101.95 74.32"/><polyline class="cls-5" points="95.44 74.32 101.95 74.32 101.95 117.62 95.44 117.62 95.44 74.32"/><line class="cls-4" x1="101.95" y1="117.63" x2="101.95" y2="74.33"/><line class="cls-4" x1="95.45" y1="67.83" x2="95.45" y2="74.33"/><line class="cls-4" x1="95.45" y1="74.32" x2="95.45" y2="117.62"/><text class="cls-6" transform="translate(177.37 103.01)">1.42</text><text class="cls-6" transform="translate(65.74 256.18)">19.35</text><text class="cls-6" transform="translate(65.74 469.51)">15.82</text><text class="cls-6" transform="translate(370.34 122.5)">12.17</text><text class="cls-6" transform="translate(426.69 312.53)">1.81</text><text class="cls-6" transform="translate(353.07 514.46)">9.74</text><text class="cls-6" transform="translate(403.21 411.6)">3.43</text><text class="cls-7" transform="translate(167.63 256.18)">2К</text><text class="cls-7" transform="translate(152.77 289.19)">63.74</text><text class="cls-7" transform="translate(149.6 223.66)">№203</text><polyline class="cls-4" points="141 297.54 141 200.42 221.99 200.42 221.99 297.54"/><line class="cls-4" x1="140.99" y1="232.86" x2="221.99" y2="232.86"/><line class="cls-4" x1="140.99" y1="297.54" x2="221.99" y2="297.54"/><line class="cls-4" x1="140.99" y1="265.29" x2="221.99" y2="265.29"/><rect class="cls-8" x="320.66" y="546.96" width="10.84" height="83.9"/></svg>