<svg id="_204" data-name="204" xmlns="http://www.w3.org/2000/svg" viewBox="0 0 575.92 558.58"><defs><style>.cls-1,.cls-5{fill:none;stroke-linecap:round;stroke-linejoin:round;stroke-width:0.5px;}.cls-1{stroke:#969595;}.cls-2{isolation:isolate;font-size:12px;fill:#969595;}.cls-2,.cls-6,.cls-7{font-family:PTSans-Regular, PT Sans;}.cls-3{letter-spacing:-0.01em;}.cls-4{fill-rule:evenodd;}.cls-5{stroke:#000;}.cls-6{font-size:20px;}.cls-7{font-size:24px;}</style></defs><title>2floor_204flat</title><line class="cls-1" x1="573.38" y1="314.49" x2="564.58" y2="314.49"/><polyline class="cls-1" points="570.08 317.89 573.58 314.39 570.08 310.89"/><text class="cls-2" transform="translate(572.98 304.99) rotate(-90)">двор</text><line class="cls-1" x1="250.12" y1="2" x2="250.12" y2="10.8"/><polyline class="cls-1" points="253.52 5.29 250.02 1.79 246.52 5.29"/><text class="cls-2" transform="translate(259.42 10.2)"><tspan class="cls-3">у</tspan><tspan x="5.42" y="0">лица</tspan></text><polyline class="cls-4" points="11.09 547.5 46.28 547.5 46.28 558.34 0.25 558.34 11.09 547.5"/><polyline class="cls-4" points="211.39 547.5 211.39 558.34 103.12 558.34 103.12 547.5 211.39 547.5"/><line class="cls-5" x1="46.28" y1="552.91" x2="46.28" y2="558.31"/><line class="cls-5" x1="46.28" y1="547.5" x2="46.28" y2="552.9"/><line class="cls-5" x1="103.12" y1="552.91" x2="103.12" y2="558.31"/><line class="cls-5" x1="103.12" y1="547.5" x2="103.12" y2="552.9"/><line class="cls-5" x1="211.39" y1="547.5" x2="103.12" y2="547.5"/><line class="cls-5" x1="46.28" y1="547.5" x2="11.09" y2="547.5"/><line class="cls-5" x1="0.25" y1="558.32" x2="11.09" y2="558.32"/><line class="cls-5" x1="21.9" y1="558.32" x2="143.76" y2="558.32"/><line class="cls-5" x1="21.9" y1="547.51" x2="130.72" y2="547.51"/><line class="cls-5" x1="104.47" y1="558.32" x2="127.47" y2="558.32"/><line class="cls-5" x1="138.31" y1="558.32" x2="211.39" y2="558.32"/><line class="cls-5" x1="211.39" y1="558.32" x2="211.39" y2="547.48"/><path class="cls-5" d="M76.79,522.47a52.5,52.5,0,0,1,52.5,52.5" transform="translate(-28.34 -27.49)"/><polyline class="cls-4" points="103.12 552.91 100.95 552.91 100.95 547.5 103.12 547.5 103.12 552.91"/><polyline class="cls-4" points="46.28 547.5 48.45 547.5 48.45 552.9 46.28 552.9 46.28 547.5"/><line class="cls-5" x1="103.12" y1="552.91" x2="100.95" y2="552.91"/><line class="cls-5" x1="100.95" y1="552.91" x2="100.95" y2="547.5"/><line class="cls-5" x1="100.95" y1="547.5" x2="103.12" y2="547.5"/><line class="cls-5" x1="103.12" y1="547.5" x2="103.12" y2="552.9"/><line class="cls-5" x1="46.28" y1="547.5" x2="48.45" y2="547.5"/><line class="cls-5" x1="48.45" y1="547.5" x2="48.45" y2="552.9"/><line class="cls-5" x1="48.45" y1="552.91" x2="46.28" y2="552.91"/><line class="cls-5" x1="46.28" y1="552.91" x2="46.28" y2="547.5"/><line class="cls-5" x1="48.45" y1="547.5" x2="48.45" y2="494.99"/><line class="cls-5" x1="103.12" y1="547.5" x2="103.12" y2="552.9"/><line class="cls-5" x1="103.12" y1="547.5" x2="103.12" y2="552.9"/><line class="cls-5" x1="103.12" y1="552.91" x2="103.12" y2="558.31"/><line class="cls-5" x1="46.28" y1="547.5" x2="46.28" y2="552.9"/><line class="cls-5" x1="46.28" y1="547.5" x2="46.28" y2="552.9"/><line class="cls-5" x1="46.28" y1="552.91" x2="46.28" y2="558.31"/><polyline class="cls-4" points="468.55 547.5 468.55 558.32 270.93 558.34 270.93 547.5 468.55 547.5"/><line class="cls-5" x1="468.55" y1="547.5" x2="270.93" y2="547.5"/><line class="cls-5" x1="270.93" y1="547.5" x2="270.93" y2="558.33"/><line class="cls-5" x1="270.93" y1="558.32" x2="468.55" y2="558.32"/><line class="cls-5" x1="468.55" y1="547.5" x2="468.55" y2="558.32"/><line class="cls-5" x1="16.49" y1="558.32" x2="11.09" y2="558.32"/><line class="cls-5" x1="21.9" y1="558.32" x2="16.49" y2="558.32"/><line class="cls-5" x1="16.49" y1="558.32" x2="21.9" y2="558.32"/><line class="cls-5" x1="21.9" y1="558.32" x2="16.49" y2="558.32"/><line class="cls-5" x1="21.9" y1="558.32" x2="16.49" y2="558.32"/><line class="cls-5" x1="16.49" y1="558.32" x2="11.09" y2="558.32"/><polyline class="cls-4" points="81.47 339.07 70.63 339.07 70.63 138.77 81.47 138.77 81.47 339.07"/><line class="cls-5" x1="81.47" y1="339.07" x2="81.47" y2="138.77"/><line class="cls-5" x1="81.47" y1="138.76" x2="70.63" y2="138.76"/><line class="cls-5" x1="70.63" y1="138.76" x2="70.63" y2="339.06"/><line class="cls-5" x1="81.47" y1="339.07" x2="70.63" y2="339.07"/><polyline class="cls-4" points="70.63 452.75 70.63 463.59 11.09 463.59 0.25 452.75 70.63 452.75"/><line class="cls-5" x1="70.63" y1="452.75" x2="0.25" y2="452.75"/><line class="cls-5" x1="11.09" y1="463.58" x2="70.63" y2="463.58"/><line class="cls-5" x1="70.63" y1="463.58" x2="70.63" y2="452.75"/><polyline class="cls-4" points="189.74 289.8 211.19 289.8 211.19 294.14 189.74 294.14 189.74 289.8"/><polyline class="cls-4" points="254.49 289.8 259.92 289.8 259.92 294.14 254.49 294.14 254.49 289.8"/><line class="cls-5" x1="254.49" y1="294.13" x2="254.49" y2="289.8"/><line class="cls-5" x1="211.19" y1="294.13" x2="211.19" y2="289.8"/><line class="cls-5" x1="259.92" y1="289.8" x2="254.49" y2="289.8"/><line class="cls-5" x1="211.19" y1="289.8" x2="189.74" y2="289.8"/><line class="cls-5" x1="189.74" y1="294.13" x2="189.74" y2="289.8"/><line class="cls-5" x1="189.74" y1="294.13" x2="211.19" y2="294.13"/><line class="cls-5" x1="254.49" y1="294.13" x2="259.92" y2="294.13"/><path class="cls-5" d="M241.05,317.29A40.27,40.27,0,0,1,281.31,277" transform="translate(-28.34 -27.49)"/><polyline class="cls-4" points="213.36 294.13 211.19 294.13 211.19 289.8 212.71 289.8 212.71 291.96 213.36 291.96 213.36 294.13"/><polyline class="cls-4" points="254.49 294.13 252.32 294.13 252.32 291.96 252.97 291.96 252.97 289.8 254.49 289.8 254.49 294.13"/><polyline class="cls-4" points="252.97 249.52 252.97 254.93 250.8 254.93 250.8 249.52 252.97 249.52"/><polyline class="cls-4" points="250.8 289.8 250.8 284.4 252.97 284.4 252.97 289.8 250.8 289.8"/><line class="cls-5" x1="252.97" y1="254.94" x2="252.97" y2="284.38"/><line class="cls-5" x1="252.97" y1="284.39" x2="251.9" y2="284.39"/><line class="cls-5" x1="251.9" y1="284.39" x2="251.9" y2="254.94"/><line class="cls-5" x1="251.9" y1="254.94" x2="252.97" y2="254.94"/><line class="cls-5" x1="251.9" y1="254.94" x2="251.9" y2="284.38"/><line class="cls-5" x1="251.9" y1="284.39" x2="250.8" y2="284.39"/><line class="cls-5" x1="250.8" y1="284.39" x2="250.8" y2="254.94"/><line class="cls-5" x1="250.8" y1="254.94" x2="251.9" y2="254.94"/><line class="cls-5" x1="213.36" y1="294.13" x2="213.36" y2="291.96"/><line class="cls-5" x1="213.36" y1="291.97" x2="212.71" y2="291.97"/><line class="cls-5" x1="212.71" y1="291.97" x2="212.71" y2="289.8"/><line class="cls-5" x1="212.71" y1="289.8" x2="211.19" y2="289.8"/><line class="cls-5" x1="211.19" y1="289.8" x2="211.19" y2="294.14"/><line class="cls-5" x1="211.19" y1="294.13" x2="213.36" y2="294.13"/><line class="cls-5" x1="254.49" y1="294.13" x2="254.49" y2="289.8"/><line class="cls-5" x1="254.49" y1="289.8" x2="252.97" y2="289.8"/><line class="cls-5" x1="252.97" y1="289.8" x2="252.97" y2="291.97"/><line class="cls-5" x1="252.97" y1="291.97" x2="252.32" y2="291.97"/><line class="cls-5" x1="252.32" y1="291.97" x2="252.32" y2="294.13"/><line class="cls-5" x1="252.32" y1="294.13" x2="254.49" y2="294.13"/><line class="cls-5" x1="252.97" y1="249.52" x2="252.97" y2="254.93"/><line class="cls-5" x1="252.97" y1="254.94" x2="250.8" y2="254.94"/><line class="cls-5" x1="250.8" y1="254.94" x2="250.8" y2="249.53"/><line class="cls-5" x1="250.8" y1="249.52" x2="252.97" y2="249.52"/><line class="cls-5" x1="250.8" y1="289.8" x2="250.8" y2="284.4"/><line class="cls-5" x1="250.8" y1="284.39" x2="252.97" y2="284.39"/><line class="cls-5" x1="252.97" y1="284.39" x2="252.97" y2="289.79"/><line class="cls-5" x1="252.97" y1="289.8" x2="250.8" y2="289.8"/><line class="cls-5" x1="251.9" y1="254.94" x2="251.9" y2="284.38"/><line class="cls-5" x1="211.19" y1="294.13" x2="211.19" y2="289.8"/><line class="cls-5" x1="211.19" y1="294.13" x2="211.19" y2="289.8"/><line class="cls-5" x1="254.49" y1="294.13" x2="254.49" y2="289.8"/><line class="cls-5" x1="254.49" y1="294.13" x2="254.49" y2="289.8"/><polyline class="cls-4" points="264.23 138.76 264.23 299.56 259.92 299.56 259.92 138.76 264.23 138.76"/><polyline class="cls-4" points="259.92 547.5 259.92 450.04 264.23 450.04 264.23 547.5 259.92 547.5"/><polyline class="cls-4" points="264.23 348.27 264.23 401.33 259.92 401.33 259.92 348.27 264.23 348.27"/><line class="cls-5" x1="264.23" y1="348.27" x2="259.92" y2="348.27"/><line class="cls-5" x1="264.23" y1="299.54" x2="259.92" y2="299.54"/><line class="cls-5" x1="264.23" y1="401.32" x2="259.92" y2="401.32"/><line class="cls-5" x1="264.23" y1="450.05" x2="259.92" y2="450.05"/><line class="cls-5" x1="264.23" y1="547.5" x2="264.23" y2="450.04"/><line class="cls-5" x1="264.23" y1="401.32" x2="264.23" y2="366.13"/><line class="cls-5" x1="264.23" y1="361.8" x2="264.23" y2="348.26"/><line class="cls-5" x1="264.23" y1="299.54" x2="264.23" y2="138.74"/><line class="cls-5" x1="259.92" y1="138.76" x2="264.23" y2="138.76"/><line class="cls-5" x1="259.92" y1="138.76" x2="259.92" y2="289.79"/><line class="cls-5" x1="259.92" y1="294.13" x2="259.92" y2="299.54"/><line class="cls-5" x1="259.92" y1="348.27" x2="259.92" y2="401.34"/><line class="cls-5" x1="259.92" y1="450.05" x2="259.92" y2="547.51"/><line class="cls-5" x1="259.92" y1="547.5" x2="264.23" y2="547.5"/><path class="cls-5" d="M292.57,329.2A44.4,44.4,0,0,1,337,373.6" transform="translate(-28.34 -27.49)"/><polyline class="cls-4" points="259.92 299.55 264.23 299.55 264.23 301.71 259.92 301.71 259.92 299.55"/><polyline class="cls-4" points="264.23 348.27 259.92 348.27 259.92 346.1 264.23 346.1 264.23 348.27"/><line class="cls-5" x1="259.92" y1="299.54" x2="259.92" y2="301.71"/><line class="cls-5" x1="259.92" y1="301.71" x2="264.23" y2="301.71"/><line class="cls-5" x1="264.23" y1="301.71" x2="264.23" y2="299.54"/><line class="cls-5" x1="264.23" y1="299.54" x2="259.92" y2="299.54"/><line class="cls-5" x1="264.23" y1="348.27" x2="264.23" y2="346.1"/><line class="cls-5" x1="264.23" y1="346.1" x2="259.92" y2="346.1"/><line class="cls-5" x1="259.92" y1="346.1" x2="259.92" y2="348.27"/><line class="cls-5" x1="259.92" y1="348.27" x2="264.23" y2="348.27"/><line class="cls-5" x1="264.23" y1="346.1" x2="308.62" y2="346.1"/><line class="cls-5" x1="264.23" y1="299.54" x2="259.92" y2="299.54"/><line class="cls-5" x1="264.23" y1="299.54" x2="259.92" y2="299.54"/><line class="cls-5" x1="264.23" y1="348.27" x2="259.92" y2="348.27"/><line class="cls-5" x1="264.23" y1="348.27" x2="259.92" y2="348.27"/><path class="cls-5" d="M337,431a44.39,44.39,0,0,1-44.4,44.39" transform="translate(-28.34 -27.49)"/><polyline class="cls-4" points="259.92 450.05 259.92 447.88 264.23 447.88 264.23 450.05 259.92 450.05"/><polyline class="cls-4" points="264.23 401.32 264.23 403.49 259.92 403.49 259.92 401.32 264.23 401.32"/><line class="cls-5" x1="259.92" y1="450.05" x2="259.92" y2="447.88"/><line class="cls-5" x1="259.92" y1="447.88" x2="264.23" y2="447.88"/><line class="cls-5" x1="264.23" y1="447.88" x2="264.23" y2="450.05"/><line class="cls-5" x1="264.23" y1="450.05" x2="259.92" y2="450.05"/><line class="cls-5" x1="264.23" y1="401.32" x2="264.23" y2="403.49"/><line class="cls-5" x1="264.23" y1="403.49" x2="259.92" y2="403.49"/><line class="cls-5" x1="259.92" y1="403.49" x2="259.92" y2="401.32"/><line class="cls-5" x1="259.92" y1="401.32" x2="264.23" y2="401.32"/><line class="cls-5" x1="264.23" y1="403.49" x2="308.62" y2="403.49"/><line class="cls-5" x1="264.23" y1="450.05" x2="259.92" y2="450.05"/><line class="cls-5" x1="264.23" y1="450.05" x2="259.92" y2="450.05"/><line class="cls-5" x1="264.23" y1="401.32" x2="259.92" y2="401.32"/><line class="cls-5" x1="264.23" y1="401.32" x2="259.92" y2="401.32"/><polyline class="cls-4" points="468.55 361.81 468.55 366.14 264.23 366.14 264.23 361.81 468.55 361.81"/><line class="cls-5" x1="468.55" y1="361.8" x2="264.23" y2="361.8"/><line class="cls-5" x1="264.23" y1="366.13" x2="468.55" y2="366.13"/><line class="cls-5" x1="468.55" y1="366.13" x2="468.55" y2="361.8"/><line class="cls-5" x1="70.63" y1="294.13" x2="70.63" y2="289.8"/><line class="cls-5" x1="70.63" y1="358.02" x2="70.63" y2="353.68"/><line class="cls-5" x1="0.25" y1="463.58" x2="0.25" y2="459.25"/><polyline class="cls-4" points="528.09 547.5 528.09 558.32 468.55 558.32 468.55 547.5 528.09 547.5"/><line class="cls-5" x1="528.09" y1="547.5" x2="468.55" y2="547.5"/><line class="cls-5" x1="468.55" y1="547.5" x2="468.55" y2="558.32"/><line class="cls-5" x1="468.55" y1="558.32" x2="528.09" y2="558.32"/><line class="cls-5" x1="528.09" y1="547.5" x2="528.09" y2="558.32"/><polyline class="cls-4" points="528.09 355.31 528.09 366.15 468.55 366.15 468.55 355.31 528.09 355.31"/><line class="cls-5" x1="528.09" y1="355.31" x2="468.55" y2="355.31"/><line class="cls-5" x1="468.55" y1="355.31" x2="468.55" y2="366.15"/><line class="cls-5" x1="468.55" y1="366.13" x2="528.09" y2="366.13"/><line class="cls-5" x1="528.09" y1="355.31" x2="528.09" y2="366.15"/><polyline class="cls-4" points="528.09 127.93 517.25 138.77 468.55 138.77 468.55 127.93 528.09 127.93"/><line class="cls-5" x1="528.09" y1="127.93" x2="468.55" y2="127.93"/><line class="cls-5" x1="468.55" y1="127.93" x2="468.55" y2="138.77"/><line class="cls-5" x1="468.55" y1="138.76" x2="517.26" y2="138.76"/><polyline class="cls-4" points="517.26 138.76 528.09 127.92 528.09 187.49 517.26 187.49 517.26 138.76"/><line class="cls-5" x1="517.26" y1="138.76" x2="517.26" y2="187.49"/><line class="cls-5" x1="528.09" y1="187.48" x2="517.26" y2="187.48"/><line class="cls-5" x1="528.09" y1="187.48" x2="528.09" y2="127.94"/><polyline class="cls-4" points="81.47 463.58 70.63 463.58 70.63 339.07 81.47 339.07 81.47 463.58"/><line class="cls-5" x1="81.47" y1="463.58" x2="81.47" y2="339.07"/><line class="cls-5" x1="81.47" y1="339.07" x2="70.63" y2="339.07"/><line class="cls-5" x1="70.63" y1="339.07" x2="70.63" y2="463.58"/><line class="cls-5" x1="81.47" y1="463.58" x2="70.63" y2="463.58"/><polyline class="cls-4" points="81.47 138.76 70.63 138.76 70.63 79.22 81.47 79.22 81.47 138.76"/><line class="cls-5" x1="81.47" y1="138.76" x2="81.47" y2="79.22"/><line class="cls-5" x1="81.47" y1="79.2" x2="70.63" y2="79.2"/><line class="cls-5" x1="70.63" y1="79.2" x2="70.63" y2="138.74"/><line class="cls-5" x1="81.47" y1="138.76" x2="70.63" y2="138.76"/><polyline class="cls-4" points="270.93 138.76 260.12 138.76 260.12 79.22 270.93 79.22 270.93 138.76"/><line class="cls-5" x1="270.93" y1="138.76" x2="270.93" y2="79.22"/><line class="cls-5" x1="270.93" y1="79.2" x2="260.12" y2="79.2"/><line class="cls-5" x1="260.12" y1="79.2" x2="260.12" y2="138.74"/><line class="cls-5" x1="270.93" y1="138.76" x2="260.12" y2="138.76"/><polyline class="cls-4" points="211.39 558.32 211.39 547.49 270.93 547.49 270.93 558.32 211.39 558.32"/><line class="cls-5" x1="211.39" y1="558.32" x2="270.93" y2="558.32"/><line class="cls-5" x1="270.93" y1="558.32" x2="270.93" y2="547.48"/><line class="cls-5" x1="270.93" y1="547.5" x2="211.39" y2="547.5"/><line class="cls-5" x1="211.39" y1="558.32" x2="211.39" y2="547.48"/><polyline class="cls-4" points="0.25 452.75 11.09 463.59 11.09 547.49 0.25 558.32 0.25 452.75"/><line class="cls-5" x1="0.25" y1="452.75" x2="0.25" y2="558.32"/><line class="cls-5" x1="11.09" y1="547.5" x2="11.09" y2="463.58"/><polyline class="cls-4" points="151.28 294.13 151.28 289.8 189.74 289.8 185.4 294.13 151.28 294.13"/><line class="cls-5" x1="151.28" y1="294.13" x2="185.4" y2="294.13"/><line class="cls-5" x1="189.74" y1="289.8" x2="151.28" y2="289.8"/><polyline class="cls-4" points="185.4 294.13 189.74 289.8 189.74 313.08 185.4 313.08 185.4 294.13"/><polyline class="cls-4" points="185.4 459.25 185.4 421.36 189.74 421.36 189.74 463.59 185.4 459.25"/><polyline class="cls-4" points="189.74 350.98 189.74 383.46 185.4 383.46 185.4 350.98 189.74 350.98"/><line class="cls-5" x1="185.4" y1="350.97" x2="189.74" y2="350.97"/><line class="cls-5" x1="185.4" y1="313.08" x2="189.74" y2="313.08"/><line class="cls-5" x1="189.74" y1="383.46" x2="185.4" y2="383.46"/><line class="cls-5" x1="189.74" y1="421.36" x2="185.4" y2="421.36"/><line class="cls-5" x1="185.4" y1="294.13" x2="185.4" y2="313.08"/><line class="cls-5" x1="185.4" y1="350.97" x2="185.4" y2="353.68"/><line class="cls-5" x1="185.4" y1="358.02" x2="185.4" y2="383.46"/><line class="cls-5" x1="185.4" y1="421.36" x2="185.4" y2="459.25"/><line class="cls-5" x1="189.74" y1="463.58" x2="189.74" y2="421.36"/><line class="cls-5" x1="189.74" y1="383.46" x2="189.74" y2="350.97"/><line class="cls-5" x1="189.74" y1="313.08" x2="189.74" y2="289.8"/><line class="cls-5" x1="189.74" y1="348.81" x2="189.74" y2="315.25"/><line class="cls-5" x1="185.4" y1="315.24" x2="185.4" y2="348.8"/><path class="cls-5" d="M180.19,376.3a33.55,33.55,0,0,1,33.56-33.56" transform="translate(-28.34 -27.49)"/><polyline class="cls-4" points="189.74 313.08 189.74 315.25 185.4 315.25 185.4 313.08 189.74 313.08"/><polyline class="cls-4" points="185.4 350.98 185.4 348.81 189.74 348.81 189.74 350.98 185.4 350.98"/><line class="cls-5" x1="189.74" y1="313.08" x2="189.74" y2="315.25"/><line class="cls-5" x1="189.74" y1="315.24" x2="185.4" y2="315.24"/><line class="cls-5" x1="185.4" y1="315.24" x2="185.4" y2="313.08"/><line class="cls-5" x1="185.4" y1="313.08" x2="189.74" y2="313.08"/><line class="cls-5" x1="185.4" y1="350.97" x2="185.4" y2="348.81"/><line class="cls-5" x1="185.4" y1="348.81" x2="189.74" y2="348.81"/><line class="cls-5" x1="189.74" y1="348.81" x2="189.74" y2="350.98"/><line class="cls-5" x1="189.74" y1="350.97" x2="185.4" y2="350.97"/><line class="cls-5" x1="185.4" y1="348.81" x2="151.85" y2="348.81"/><line class="cls-5" x1="185.4" y1="313.08" x2="189.74" y2="313.08"/><line class="cls-5" x1="185.4" y1="313.08" x2="189.74" y2="313.08"/><line class="cls-5" x1="185.4" y1="350.97" x2="189.74" y2="350.97"/><line class="cls-5" x1="185.4" y1="350.97" x2="189.74" y2="350.97"/><line class="cls-5" x1="185.4" y1="385.62" x2="185.4" y2="419.18"/><line class="cls-5" x1="189.74" y1="419.19" x2="189.74" y2="385.63"/><path class="cls-5" d="M251.64,413.11a33.57,33.57,0,0,1-33.56,33.56" transform="translate(-28.34 -27.49)"/><polyline class="cls-4" points="185.4 421.36 185.4 419.19 189.74 419.19 189.74 421.36 185.4 421.36"/><polyline class="cls-4" points="189.74 383.46 189.74 385.63 185.4 385.63 185.4 383.46 189.74 383.46"/><line class="cls-5" x1="185.4" y1="421.36" x2="185.4" y2="419.19"/><line class="cls-5" x1="185.4" y1="419.19" x2="189.74" y2="419.19"/><line class="cls-5" x1="189.74" y1="419.19" x2="189.74" y2="421.36"/><line class="cls-5" x1="189.74" y1="421.36" x2="185.4" y2="421.36"/><line class="cls-5" x1="189.74" y1="383.46" x2="189.74" y2="385.63"/><line class="cls-5" x1="189.74" y1="385.62" x2="185.4" y2="385.62"/><line class="cls-5" x1="185.4" y1="385.62" x2="185.4" y2="383.46"/><line class="cls-5" x1="185.4" y1="383.46" x2="189.74" y2="383.46"/><line class="cls-5" x1="189.74" y1="385.62" x2="223.3" y2="385.62"/><line class="cls-5" x1="189.74" y1="421.36" x2="185.4" y2="421.36"/><line class="cls-5" x1="189.74" y1="421.36" x2="185.4" y2="421.36"/><line class="cls-5" x1="189.74" y1="383.46" x2="185.4" y2="383.46"/><line class="cls-5" x1="189.74" y1="383.46" x2="185.4" y2="383.46"/><polyline class="cls-4" points="151.28 289.8 151.28 294.13 81.47 294.13 81.47 289.8 151.28 289.8"/><line class="cls-5" x1="151.28" y1="289.8" x2="81.47" y2="289.8"/><line class="cls-5" x1="81.47" y1="294.13" x2="81.47" y2="289.8"/><line class="cls-5" x1="81.47" y1="294.13" x2="151.28" y2="294.13"/><polyline class="cls-4" points="185.4 353.68 185.4 358.02 81.47 358.02 81.47 353.68 185.4 353.68"/><line class="cls-5" x1="185.4" y1="353.68" x2="81.47" y2="353.68"/><line class="cls-5" x1="81.47" y1="358.02" x2="81.47" y2="353.68"/><line class="cls-5" x1="81.47" y1="358.02" x2="185.4" y2="358.02"/><polyline class="cls-4" points="185.4 459.25 189.74 463.59 81.47 463.59 81.47 459.25 185.4 459.25"/><line class="cls-5" x1="185.4" y1="459.25" x2="81.47" y2="459.25"/><line class="cls-5" x1="81.47" y1="463.58" x2="81.47" y2="459.25"/><line class="cls-5" x1="81.47" y1="463.58" x2="189.74" y2="463.58"/><polyline class="cls-4" points="96.47 353.68 95.8 353.68 95.8 294.14 96.47 294.14 96.47 353.68"/><polyline class="cls-4" points="95.8 353.68 95.12 353.68 95.12 294.14 95.8 294.14 95.8 353.68"/><line class="cls-5" x1="95.12" y1="294.13" x2="95.12" y2="353.67"/><line class="cls-5" x1="96.47" y1="353.68" x2="95.8" y2="353.68"/><line class="cls-5" x1="95.8" y1="353.68" x2="95.12" y2="353.68"/><line class="cls-5" x1="96.47" y1="353.68" x2="96.47" y2="294.14"/><line class="cls-5" x1="96.47" y1="294.13" x2="95.8" y2="294.13"/><line class="cls-5" x1="95.8" y1="294.13" x2="95.12" y2="294.13"/><line class="cls-5" x1="70.63" y1="71.1" x2="70.63" y2="90.04"/><polyline class="cls-4" points="70.63 79.2 70.63 71.1 81.47 71.1 81.47 79.2 70.63 79.2"/><line class="cls-5" x1="70.63" y1="79.2" x2="81.47" y2="79.2"/><line class="cls-5" x1="81.47" y1="71.09" x2="70.63" y2="71.09"/><polyline class="cls-4" points="81.47 71.08 111.22 71.08 111.22 79.19 81.47 79.19 81.47 71.08"/><polyline class="cls-4" points="230.33 71.08 260.12 71.08 260.12 79.19 230.33 79.19 230.33 71.08"/><polyline class="cls-4" points="81.47 79.2 119.36 79.2 119.36 90.04 81.47 90.04 81.47 79.2"/><polyline class="cls-4" points="222.23 79.2 260.12 79.2 260.12 90.04 222.23 90.04 222.23 79.2"/><polyline class="cls-4" points="111.22 71.08 119.36 71.08 119.36 79.19 111.22 79.19 111.22 71.08"/><polyline class="cls-4" points="230.33 71.08 230.33 79.19 222.23 79.19 222.23 71.08 230.33 71.08"/><line class="cls-5" x1="222.23" y1="79.2" x2="222.23" y2="71.1"/><line class="cls-5" x1="119.36" y1="79.2" x2="119.36" y2="71.1"/><line class="cls-5" x1="230.33" y1="71.09" x2="222.23" y2="71.09"/><line class="cls-5" x1="111.22" y1="71.09" x2="119.36" y2="71.09"/><line class="cls-5" x1="222.23" y1="81.91" x2="222.23" y2="90.02"/><line class="cls-5" x1="222.23" y1="79.2" x2="222.23" y2="81.91"/><line class="cls-5" x1="119.36" y1="81.91" x2="119.36" y2="90.02"/><line class="cls-5" x1="119.36" y1="79.2" x2="119.36" y2="81.91"/><line class="cls-5" x1="81.47" y1="90.03" x2="119.36" y2="90.03"/><line class="cls-5" x1="222.23" y1="90.03" x2="260.12" y2="90.03"/><line class="cls-5" x1="260.12" y1="79.2" x2="260.12" y2="90.04"/><line class="cls-5" x1="260.12" y1="71.09" x2="230.33" y2="71.09"/><line class="cls-5" x1="111.22" y1="71.09" x2="81.47" y2="71.09"/><line class="cls-5" x1="81.47" y1="79.2" x2="81.47" y2="90.04"/><line class="cls-5" x1="119.36" y1="71.09" x2="222.23" y2="71.09"/><line class="cls-5" x1="119.36" y1="90.03" x2="222.23" y2="90.03"/><polyline class="cls-4" points="119.36 81.91 119.36 79.21 124.77 79.21 124.77 81.91 119.36 81.91"/><polyline class="cls-4" points="170.79 79.2 170.79 81.91 166.99 81.91 166.99 79.2 170.79 79.2"/><polyline class="cls-4" points="170.79 81.91 170.79 79.21 174.56 79.21 174.56 81.91 170.79 81.91"/><polyline class="cls-4" points="222.23 79.2 222.23 81.91 216.79 81.91 216.79 79.2 222.23 79.2"/><line class="cls-5" x1="119.36" y1="81.91" x2="124.76" y2="81.91"/><line class="cls-5" x1="124.77" y1="81.91" x2="124.77" y2="79.21"/><line class="cls-5" x1="124.77" y1="79.2" x2="119.36" y2="79.2"/><line class="cls-5" x1="170.79" y1="79.2" x2="166.99" y2="79.2"/><line class="cls-5" x1="166.99" y1="79.2" x2="166.99" y2="81.91"/><line class="cls-5" x1="166.99" y1="81.91" x2="170.79" y2="81.91"/><line class="cls-5" x1="124.77" y1="81.91" x2="166.99" y2="81.91"/><line class="cls-5" x1="166.99" y1="79.2" x2="124.77" y2="79.2"/><line class="cls-5" x1="170.79" y1="81.91" x2="174.56" y2="81.91"/><line class="cls-5" x1="174.57" y1="81.91" x2="174.57" y2="79.21"/><line class="cls-5" x1="174.57" y1="79.2" x2="170.79" y2="79.2"/><line class="cls-5" x1="222.23" y1="79.2" x2="216.79" y2="79.2"/><line class="cls-5" x1="216.79" y1="79.2" x2="216.79" y2="81.91"/><line class="cls-5" x1="216.79" y1="81.91" x2="222.23" y2="81.91"/><line class="cls-5" x1="174.57" y1="81.91" x2="216.79" y2="81.91"/><line class="cls-5" x1="216.79" y1="79.2" x2="174.57" y2="79.2"/><line class="cls-5" x1="119.36" y1="79.2" x2="119.36" y2="81.91"/><line class="cls-5" x1="119.36" y1="79.2" x2="119.36" y2="81.91"/><line class="cls-5" x1="119.36" y1="81.91" x2="119.36" y2="90.02"/><line class="cls-5" x1="222.23" y1="79.2" x2="222.23" y2="81.91"/><line class="cls-5" x1="222.23" y1="79.2" x2="222.23" y2="81.91"/><line class="cls-5" x1="222.23" y1="81.91" x2="222.23" y2="90.02"/><line class="cls-5" x1="119.36" y1="79.2" x2="119.36" y2="71.1"/><line class="cls-5" x1="119.36" y1="79.2" x2="119.36" y2="71.1"/><line class="cls-5" x1="222.23" y1="79.2" x2="222.23" y2="71.1"/><line class="cls-5" x1="222.23" y1="79.2" x2="222.23" y2="71.1"/><polyline class="cls-4" points="279.06 71.08 280.7 71.08 279.06 72.44 279.06 71.08"/><polyline class="cls-4" points="270.93 79.2 270.93 71.1 279.06 71.1 279.06 72.45 270.93 79.2"/><polyline class="cls-4" points="270.93 71.08 270.93 79.19 260.12 79.19 260.12 71.08 270.93 71.08"/><line class="cls-5" x1="260.12" y1="79.2" x2="270.93" y2="79.2"/><line class="cls-5" x1="280.7" y1="71.09" x2="279.06" y2="71.09"/><line class="cls-5" x1="279.06" y1="71.09" x2="260.12" y2="71.09"/><polyline class="cls-4" points="279.06 119.81 279.91 119.81 279.06 121.61 279.06 119.81"/><polyline class="cls-4" points="279.06 119.81 279.06 118.17 280.7 118.17 279.91 119.81 279.06 119.81"/><polyline class="cls-4" points="280.7 118.18 279.06 118.18 279.06 72.44 280.7 71.08 280.7 118.18"/><polyline class="cls-4" points="276.08 127.93 270.93 138.77 270.93 127.93 276.08 127.93"/><polyline class="cls-4" points="270.93 119.81 279.06 119.81 279.06 121.61 276.08 127.94 270.93 127.94 270.93 119.81"/><polyline class="cls-4" points="270.93 79.2 279.06 79.2 279.06 119.8 270.93 119.8 270.93 79.2"/><polyline class="cls-4" points="279.06 72.44 279.06 79.19 270.93 79.19 279.06 72.44"/><line class="cls-5" x1="270.93" y1="138.76" x2="270.93" y2="127.92"/><line class="cls-5" x1="270.93" y1="79.2" x2="270.93" y2="127.93"/><line class="cls-5" x1="280.7" y1="118.18" x2="280.7" y2="71.09"/><polyline class="cls-4" points="528.09 127.93 536.23 119.79 536.23 187.47 528.09 187.47 528.09 127.93"/><line class="cls-5" x1="528.09" y1="127.93" x2="528.09" y2="187.47"/><line class="cls-5" x1="536.23" y1="187.48" x2="536.23" y2="119.8"/><polyline class="cls-4" points="528.09 355.31 528.09 347.2 536.23 347.2 536.23 355.31 528.09 355.31"/><polyline class="cls-4" points="528.09 187.48 536.23 187.48 536.23 276.81 528.09 276.81 528.09 187.48"/><polyline class="cls-4" points="528.09 339.07 528.09 355.31 517.25 355.31 517.25 339.07 528.09 339.07"/><polyline class="cls-4" points="528.09 187.48 528.09 284.94 517.25 284.94 517.25 187.48 528.09 187.48"/><polyline class="cls-4" points="536.23 276.81 536.23 284.92 528.09 284.92 528.09 276.81 536.23 276.81"/><polyline class="cls-4" points="536.23 347.19 528.09 347.19 528.09 339.08 536.23 339.08 536.23 347.19"/><line class="cls-5" x1="528.09" y1="339.07" x2="536.23" y2="339.07"/><line class="cls-5" x1="528.09" y1="284.93" x2="536.23" y2="284.93"/><line class="cls-5" x1="536.23" y1="347.19" x2="536.23" y2="339.08"/><line class="cls-5" x1="536.23" y1="276.81" x2="536.23" y2="284.91"/><line class="cls-5" x1="525.39" y1="339.07" x2="517.26" y2="339.07"/><line class="cls-5" x1="528.09" y1="339.07" x2="525.39" y2="339.07"/><line class="cls-5" x1="525.39" y1="284.93" x2="517.26" y2="284.93"/><line class="cls-5" x1="528.09" y1="284.93" x2="525.39" y2="284.93"/><line class="cls-5" x1="517.26" y1="187.48" x2="517.26" y2="284.94"/><line class="cls-5" x1="517.26" y1="339.07" x2="517.26" y2="355.31"/><line class="cls-5" x1="528.09" y1="355.31" x2="517.26" y2="355.31"/><line class="cls-5" x1="536.23" y1="355.31" x2="536.23" y2="347.2"/><line class="cls-5" x1="536.23" y1="276.81" x2="536.23" y2="187.48"/><line class="cls-5" x1="528.09" y1="187.48" x2="517.26" y2="187.48"/><line class="cls-5" x1="536.23" y1="284.93" x2="536.23" y2="339.06"/><line class="cls-5" x1="517.26" y1="284.93" x2="517.26" y2="339.06"/><polyline class="cls-4" points="525.39 284.93 528.09 284.93 528.09 288.17 525.39 288.17 525.39 284.93"/><polyline class="cls-4" points="528.09 339.07 525.39 339.07 525.39 335.83 528.09 335.83 528.09 339.07"/><line class="cls-5" x1="525.39" y1="284.93" x2="525.39" y2="288.17"/><line class="cls-5" x1="525.39" y1="288.18" x2="528.09" y2="288.18"/><line class="cls-5" x1="528.09" y1="288.18" x2="528.09" y2="284.94"/><line class="cls-5" x1="528.09" y1="339.07" x2="528.09" y2="335.83"/><line class="cls-5" x1="528.09" y1="335.82" x2="525.39" y2="335.82"/><line class="cls-5" x1="525.39" y1="335.82" x2="525.39" y2="339.06"/><line class="cls-5" x1="525.39" y1="288.18" x2="525.39" y2="335.81"/><line class="cls-5" x1="528.09" y1="335.82" x2="528.09" y2="288.19"/><line class="cls-5" x1="528.09" y1="284.93" x2="525.39" y2="284.93"/><line class="cls-5" x1="528.09" y1="284.93" x2="525.39" y2="284.93"/><line class="cls-5" x1="525.39" y1="284.93" x2="517.26" y2="284.93"/><line class="cls-5" x1="528.09" y1="339.07" x2="525.39" y2="339.07"/><line class="cls-5" x1="528.09" y1="339.07" x2="525.39" y2="339.07"/><line class="cls-5" x1="525.39" y1="339.07" x2="517.26" y2="339.07"/><line class="cls-5" x1="528.09" y1="284.93" x2="536.23" y2="284.93"/><line class="cls-5" x1="528.09" y1="284.93" x2="536.23" y2="284.93"/><line class="cls-5" x1="528.09" y1="339.07" x2="536.23" y2="339.07"/><line class="cls-5" x1="528.09" y1="339.07" x2="536.23" y2="339.07"/><polyline class="cls-4" points="528.09 366.13 536.23 366.13 536.23 390.49 528.09 390.49 528.09 366.13"/><polyline class="cls-4" points="528.09 509.6 536.23 509.6 536.23 547.49 528.09 547.49 528.09 509.6"/><polyline class="cls-4" points="528.09 366.13 528.09 398.62 517.25 398.62 517.25 366.13 528.09 366.13"/><polyline class="cls-4" points="517.26 547.5 517.26 501.47 528.09 501.47 528.09 547.5 517.26 547.5"/><polyline class="cls-4" points="536.23 509.6 528.09 509.6 528.09 501.49 536.23 501.49 536.23 509.6"/><polyline class="cls-4" points="536.23 390.5 536.23 398.61 528.09 398.61 528.09 390.5 536.23 390.5"/><line class="cls-5" x1="528.09" y1="398.62" x2="536.23" y2="398.62"/><line class="cls-5" x1="528.09" y1="501.48" x2="536.23" y2="501.48"/><line class="cls-5" x1="536.23" y1="390.5" x2="536.23" y2="398.6"/><line class="cls-5" x1="536.23" y1="509.6" x2="536.23" y2="501.49"/><line class="cls-5" x1="525.39" y1="398.62" x2="517.26" y2="398.62"/><line class="cls-5" x1="528.09" y1="398.62" x2="525.39" y2="398.62"/><line class="cls-5" x1="525.39" y1="501.48" x2="517.26" y2="501.48"/><line class="cls-5" x1="528.09" y1="501.48" x2="525.39" y2="501.48"/><line class="cls-5" x1="517.26" y1="366.13" x2="517.26" y2="398.62"/><line class="cls-5" x1="517.26" y1="501.48" x2="517.26" y2="547.51"/><line class="cls-5" x1="528.09" y1="547.5" x2="517.26" y2="547.5"/><line class="cls-5" x1="536.23" y1="547.5" x2="536.23" y2="509.6"/><line class="cls-5" x1="536.23" y1="390.5" x2="536.23" y2="366.15"/><line class="cls-5" x1="528.09" y1="366.13" x2="517.26" y2="366.13"/><line class="cls-5" x1="536.23" y1="501.48" x2="536.23" y2="398.61"/><line class="cls-5" x1="517.26" y1="501.48" x2="517.26" y2="398.61"/><polyline class="cls-4" points="525.39 501.48 525.39 496.07 528.09 496.07 528.09 501.48 525.39 501.48"/><polyline class="cls-4" points="528.09 450.05 528.09 453.85 525.39 453.85 525.39 450.05 528.09 450.05"/><polyline class="cls-4" points="525.39 450.05 525.39 446.25 528.09 446.25 528.09 450.05 525.39 450.05"/><polyline class="cls-4" points="528.09 398.62 528.09 404.02 525.39 404.02 525.39 398.62 528.09 398.62"/><line class="cls-5" x1="525.39" y1="501.48" x2="525.39" y2="496.07"/><line class="cls-5" x1="525.39" y1="496.07" x2="528.09" y2="496.07"/><line class="cls-5" x1="528.09" y1="496.07" x2="528.09" y2="501.47"/><line class="cls-5" x1="528.09" y1="450.05" x2="528.09" y2="453.85"/><line class="cls-5" x1="528.09" y1="453.84" x2="525.39" y2="453.84"/><line class="cls-5" x1="525.39" y1="453.84" x2="525.39" y2="450.04"/><line class="cls-5" x1="525.39" y1="496.07" x2="525.39" y2="453.84"/><line class="cls-5" x1="528.09" y1="453.84" x2="528.09" y2="496.07"/><line class="cls-5" x1="525.39" y1="450.05" x2="525.39" y2="446.25"/><line class="cls-5" x1="525.39" y1="446.26" x2="528.09" y2="446.26"/><line class="cls-5" x1="528.09" y1="446.26" x2="528.09" y2="450.06"/><line class="cls-5" x1="528.09" y1="398.62" x2="528.09" y2="404.02"/><line class="cls-5" x1="528.09" y1="404.03" x2="525.39" y2="404.03"/><line class="cls-5" x1="525.39" y1="404.03" x2="525.39" y2="398.63"/><line class="cls-5" x1="525.39" y1="446.26" x2="525.39" y2="404.03"/><line class="cls-5" x1="528.09" y1="404.03" x2="528.09" y2="446.26"/><line class="cls-5" x1="528.09" y1="501.48" x2="525.39" y2="501.48"/><line class="cls-5" x1="528.09" y1="501.48" x2="525.39" y2="501.48"/><line class="cls-5" x1="525.39" y1="501.48" x2="517.26" y2="501.48"/><line class="cls-5" x1="528.09" y1="398.62" x2="525.39" y2="398.62"/><line class="cls-5" x1="528.09" y1="398.62" x2="525.39" y2="398.62"/><line class="cls-5" x1="525.39" y1="398.62" x2="517.26" y2="398.62"/><line class="cls-5" x1="528.09" y1="501.48" x2="536.23" y2="501.48"/><line class="cls-5" x1="528.09" y1="501.48" x2="536.23" y2="501.48"/><line class="cls-5" x1="528.09" y1="398.62" x2="536.23" y2="398.62"/><line class="cls-5" x1="528.09" y1="398.62" x2="536.23" y2="398.62"/><polyline class="cls-4" points="489.13 558.32 487.5 558.32 487.5 558.32 489.13 558.32"/><polyline class="cls-4" points="485.7 558.32 479.36 558.32 479.36 558.32 485.7 558.32"/><polyline class="cls-4" points="528.09 355.31 536.23 355.31 536.23 366.15 528.09 366.15 528.09 355.31"/><line class="cls-5" x1="528.09" y1="355.31" x2="528.09" y2="366.15"/><line class="cls-5" x1="536.23" y1="366.13" x2="536.23" y2="355.3"/><polyline class="cls-4" points="536.23 558.32 536.23 558.32 534.85 558.32 536.23 558.32"/><polyline class="cls-4" points="528.09 558.32 536.23 558.32 536.23 558.32 534.85 558.32 528.09 558.32"/><polyline class="cls-4" points="536.23 558.32 528.09 558.32 528.09 547.49 536.23 547.49 536.23 558.32"/><line class="cls-5" x1="528.09" y1="547.5" x2="528.09" y2="558.32"/><line class="cls-5" x1="536.23" y1="558.32" x2="536.23" y2="558.32"/><line class="cls-5" x1="536.23" y1="558.32" x2="536.23" y2="547.5"/><polyline class="cls-4" points="477.76 127.93 477.76 119.79 536.23 119.79 528.09 127.93 477.76 127.93"/><line class="cls-5" x1="477.76" y1="127.93" x2="528.09" y2="127.93"/><line class="cls-5" x1="536.23" y1="119.81" x2="477.76" y2="119.81"/><polyline class="cls-4" points="487.5 558.32 487.5 558.32 485.7 558.32 487.5 558.32"/><polyline class="cls-4" points="487.5 558.32 489.13 558.32 489.13 558.32 487.5 558.32 487.5 558.32"/><polyline class="cls-4" points="489.13 558.32 489.13 558.32 534.85 558.32 536.23 558.32 489.13 558.32"/><polyline class="cls-4" points="468.55 558.32 479.36 558.32 479.36 558.32 468.55 558.32"/><polyline class="cls-4" points="487.5 558.32 487.5 558.32 485.7 558.32 479.36 558.32 479.36 558.32 487.5 558.32"/><polyline class="cls-4" points="528.09 558.32 528.09 558.32 487.5 558.32 487.5 558.32 528.09 558.32"/><polyline class="cls-4" points="534.85 558.32 528.09 558.32 528.09 558.32 534.85 558.32"/><line class="cls-5" x1="489.13" y1="558.32" x2="536.23" y2="558.32"/><line class="cls-5" x1="468.55" y1="558.32" x2="479.36" y2="558.32"/><line class="cls-5" x1="528.09" y1="558.32" x2="487.5" y2="558.32"/><polyline class="cls-4" points="280.7 118.18 287.17 118.18 287.17 119.82 280.7 119.82 280.7 118.18"/><polyline class="cls-4" points="468.55 118.18 468.55 119.82 445.81 119.82 445.81 118.18 468.55 118.18"/><polyline class="cls-4" points="280.7 118.18 280.7 119.82 279.91 119.82 280.7 118.18"/><polyline class="cls-4" points="279.06 121.61 279.91 119.81 287.17 119.81 287.17 127.92 279.06 127.92 279.06 121.61"/><polyline class="cls-4" points="445.81 127.93 445.81 119.79 468.55 119.79 468.55 127.93 445.81 127.93"/><polyline class="cls-4" points="279.06 121.61 279.06 127.92 276.08 127.92 279.06 121.61"/><polyline class="cls-4" points="270.93 138.76 276.08 127.92 288.81 127.92 288.81 138.76 270.93 138.76"/><polyline class="cls-4" points="444.17 127.93 468.55 127.93 468.55 138.77 444.17 138.77 444.17 127.93"/><polyline class="cls-4" points="445.81 118.18 445.81 127.92 444.17 127.92 444.17 118.18 445.81 118.18"/><polyline class="cls-4" points="287.17 118.18 288.81 118.18 288.81 127.92 287.17 127.92 287.17 118.18"/><polyline class="cls-4" points="287.17 118.18 288.81 118.18 288.81 127.92 287.17 127.92 287.17 118.18"/><line class="cls-5" x1="444.17" y1="119.81" x2="444.17" y2="127.94"/><line class="cls-5" x1="444.17" y1="118.18" x2="444.17" y2="119.82"/><line class="cls-5" x1="445.81" y1="118.18" x2="444.17" y2="118.18"/><line class="cls-5" x1="444.17" y1="130.63" x2="444.17" y2="138.74"/><line class="cls-5" x1="444.17" y1="127.93" x2="444.17" y2="130.63"/><line class="cls-5" x1="468.55" y1="118.18" x2="445.81" y2="118.18"/><line class="cls-5" x1="287.17" y1="118.18" x2="280.7" y2="118.18"/><line class="cls-5" x1="270.93" y1="138.76" x2="288.8" y2="138.76"/><line class="cls-5" x1="444.17" y1="138.76" x2="468.55" y2="138.76"/><line class="cls-5" x1="468.55" y1="127.93" x2="468.55" y2="138.77"/><line class="cls-5" x1="334.83" y1="118.18" x2="444.17" y2="118.18"/><line class="cls-5" x1="334.83" y1="138.76" x2="444.17" y2="138.76"/><polyline class="cls-4" points="334.83 130.63 334.83 127.93 340.24 127.93 340.24 130.63 334.83 130.63"/><polyline class="cls-4" points="390.04 127.93 390.04 130.63 386.27 130.63 386.27 127.93 390.04 127.93"/><polyline class="cls-4" points="390.04 130.63 390.04 127.93 393.84 127.93 393.84 130.63 390.04 130.63"/><polyline class="cls-4" points="444.17 127.93 444.17 130.63 438.77 130.63 438.77 127.93 444.17 127.93"/><line class="cls-5" x1="334.83" y1="130.63" x2="340.24" y2="130.63"/><line class="cls-5" x1="340.24" y1="130.63" x2="340.24" y2="127.93"/><line class="cls-5" x1="340.24" y1="127.93" x2="334.83" y2="127.93"/><line class="cls-5" x1="390.04" y1="127.93" x2="386.27" y2="127.93"/><line class="cls-5" x1="386.27" y1="127.93" x2="386.27" y2="130.63"/><line class="cls-5" x1="386.27" y1="130.63" x2="390.04" y2="130.63"/><line class="cls-5" x1="340.24" y1="130.63" x2="386.27" y2="130.63"/><line class="cls-5" x1="386.27" y1="127.93" x2="340.24" y2="127.93"/><line class="cls-5" x1="390.04" y1="130.63" x2="393.84" y2="130.63"/><line class="cls-5" x1="393.84" y1="130.63" x2="393.84" y2="127.93"/><line class="cls-5" x1="393.84" y1="127.93" x2="390.04" y2="127.93"/><line class="cls-5" x1="444.17" y1="127.93" x2="438.77" y2="127.93"/><line class="cls-5" x1="438.77" y1="127.93" x2="438.77" y2="130.63"/><line class="cls-5" x1="438.77" y1="130.63" x2="444.17" y2="130.63"/><line class="cls-5" x1="393.84" y1="130.63" x2="438.77" y2="130.63"/><line class="cls-5" x1="438.77" y1="127.93" x2="393.84" y2="127.93"/><line class="cls-5" x1="444.17" y1="127.93" x2="444.17" y2="130.63"/><line class="cls-5" x1="444.17" y1="127.93" x2="444.17" y2="130.63"/><line class="cls-5" x1="444.17" y1="130.63" x2="444.17" y2="138.74"/><line class="cls-5" x1="444.17" y1="118.18" x2="444.17" y2="119.82"/><line class="cls-5" x1="444.17" y1="119.81" x2="444.17" y2="127.94"/><line class="cls-5" x1="334.83" y1="116.56" x2="288.8" y2="116.56"/><line class="cls-5" x1="288.8" y1="116.56" x2="288.8" y2="118.19"/><line class="cls-5" x1="288.8" y1="138.76" x2="288.8" y2="140.39"/><line class="cls-5" x1="288.8" y1="140.38" x2="334.83" y2="140.38"/><path class="cls-5" d="M361,158.12a41.7,41.7,0,0,1-41.69,41.7" transform="translate(-28.34 -27.49)"/><polyline class="cls-4" points="334.83 127.93 334.83 130.63 332.67 130.63 332.67 127.93 334.83 127.93"/><polyline class="cls-4" points="288.81 130.63 288.81 127.93 290.97 127.93 290.97 130.63 288.81 130.63"/><line class="cls-5" x1="334.83" y1="127.93" x2="332.66" y2="127.93"/><line class="cls-5" x1="332.67" y1="127.93" x2="332.67" y2="130.63"/><line class="cls-5" x1="332.67" y1="130.63" x2="334.83" y2="130.63"/><line class="cls-5" x1="288.8" y1="130.63" x2="290.97" y2="130.63"/><line class="cls-5" x1="290.97" y1="130.63" x2="290.97" y2="127.93"/><line class="cls-5" x1="290.97" y1="127.93" x2="288.8" y2="127.93"/><line class="cls-5" x1="288.8" y1="127.93" x2="288.8" y2="130.63"/><line class="cls-5" x1="290.97" y1="130.63" x2="290.97" y2="172.33"/><line class="cls-5" x1="288.8" y1="127.93" x2="288.8" y2="130.63"/><line class="cls-5" x1="288.8" y1="127.93" x2="288.8" y2="130.63"/><line class="cls-5" x1="288.8" y1="130.63" x2="288.8" y2="138.74"/><line class="cls-5" x1="288.8" y1="130.63" x2="288.8" y2="138.74"/><line class="cls-5" x1="288.8" y1="118.18" x2="288.8" y2="119.82"/><line class="cls-5" x1="288.8" y1="118.18" x2="288.8" y2="119.82"/><line class="cls-5" x1="288.8" y1="119.81" x2="288.8" y2="127.94"/><line class="cls-5" x1="288.8" y1="119.81" x2="288.8" y2="127.94"/><line class="cls-5" x1="334.83" y1="116.56" x2="288.8" y2="116.56"/><line class="cls-5" x1="288.8" y1="116.56" x2="288.8" y2="118.19"/><line class="cls-5" x1="288.8" y1="138.76" x2="288.8" y2="140.39"/><line class="cls-5" x1="288.8" y1="140.38" x2="334.83" y2="140.38"/><path class="cls-5" d="M361,158.12a41.7,41.7,0,0,1-41.69,41.7" transform="translate(-28.34 -27.49)"/><polyline class="cls-4" points="334.83 127.93 334.83 130.63 332.67 130.63 332.67 127.93 334.83 127.93"/><polyline class="cls-4" points="288.81 130.63 288.81 127.93 290.97 127.93 290.97 130.63 288.81 130.63"/><line class="cls-5" x1="334.83" y1="127.93" x2="332.66" y2="127.93"/><line class="cls-5" x1="332.67" y1="127.93" x2="332.67" y2="130.63"/><line class="cls-5" x1="332.67" y1="130.63" x2="334.83" y2="130.63"/><line class="cls-5" x1="288.8" y1="130.63" x2="290.97" y2="130.63"/><line class="cls-5" x1="290.97" y1="130.63" x2="290.97" y2="127.93"/><line class="cls-5" x1="290.97" y1="127.93" x2="288.8" y2="127.93"/><line class="cls-5" x1="288.8" y1="127.93" x2="288.8" y2="130.63"/><line class="cls-5" x1="290.97" y1="130.63" x2="290.97" y2="172.33"/><line class="cls-5" x1="288.8" y1="127.93" x2="288.8" y2="130.63"/><line class="cls-5" x1="288.8" y1="127.93" x2="288.8" y2="130.63"/><line class="cls-5" x1="288.8" y1="130.63" x2="288.8" y2="138.74"/><line class="cls-5" x1="288.8" y1="130.63" x2="288.8" y2="138.74"/><line class="cls-5" x1="288.8" y1="118.18" x2="288.8" y2="119.82"/><line class="cls-5" x1="288.8" y1="118.18" x2="288.8" y2="119.82"/><line class="cls-5" x1="288.8" y1="119.81" x2="288.8" y2="127.94"/><line class="cls-5" x1="288.8" y1="119.81" x2="288.8" y2="127.94"/><polyline class="cls-4" points="472.89 119.81 472.89 118.17 477.76 118.17 477.76 119.81 472.89 119.81"/><polyline class="cls-4" points="472.89 118.18 472.89 119.82 468.55 119.82 468.55 118.18 472.89 118.18"/><polyline class="cls-4" points="477.76 119.81 477.76 127.94 468.55 127.94 468.55 119.81 477.76 119.81"/><line class="cls-5" x1="472.89" y1="118.18" x2="468.55" y2="118.18"/><line class="cls-5" x1="468.55" y1="127.93" x2="477.76" y2="127.93"/><line class="cls-5" x1="477.76" y1="118.18" x2="477.76" y2="119.82"/><polyline class="cls-4" points="279.06 74.88 279.06 68.37 295.31 68.37 295.31 74.88 279.06 74.88"/><polyline class="cls-4" points="479.36 68.38 472.89 74.88 465.85 74.88 465.85 68.38 479.36 68.38"/><line class="cls-5" x1="295.31" y1="71.09" x2="295.31" y2="74.89"/><line class="cls-5" x1="295.31" y1="68.38" x2="295.31" y2="71.08"/><line class="cls-5" x1="479.36" y1="68.38" x2="465.85" y2="68.38"/><line class="cls-5" x1="295.31" y1="68.38" x2="279.06" y2="68.38"/><line class="cls-5" x1="279.06" y1="68.38" x2="279.06" y2="74.88"/><line class="cls-5" x1="279.06" y1="74.87" x2="295.31" y2="74.87"/><line class="cls-5" x1="465.85" y1="74.87" x2="472.89" y2="74.87"/><line class="cls-5" x1="465.85" y1="68.38" x2="295.31" y2="68.38"/><line class="cls-5" x1="465.85" y1="74.87" x2="295.31" y2="74.87"/><polyline class="cls-4" points="465.85 71.08 462.58 71.08 462.58 68.38 465.85 68.38 465.85 71.08"/><polyline class="cls-4" points="409.88 68.38 411.52 68.38 411.52 71.08 409.88 71.08 409.88 68.38"/><polyline class="cls-4" points="409.88 71.08 406.11 71.08 406.11 68.38 409.88 68.38 409.88 71.08"/><polyline class="cls-4" points="351.25 68.38 355.05 68.38 355.05 71.08 351.25 71.08 351.25 68.38"/><polyline class="cls-4" points="351.25 71.08 349.61 71.08 349.61 68.38 351.25 68.38 351.25 71.08"/><polyline class="cls-4" points="295.31 68.38 298.55 68.38 298.55 71.08 295.31 71.08 295.31 68.38"/><line class="cls-5" x1="465.85" y1="71.09" x2="462.58" y2="71.09"/><line class="cls-5" x1="462.59" y1="71.09" x2="462.59" y2="68.38"/><line class="cls-5" x1="462.59" y1="68.38" x2="465.85" y2="68.38"/><line class="cls-5" x1="409.88" y1="68.38" x2="411.52" y2="68.38"/><line class="cls-5" x1="411.52" y1="68.38" x2="411.52" y2="71.08"/><line class="cls-5" x1="411.52" y1="71.09" x2="409.88" y2="71.09"/><line class="cls-5" x1="462.59" y1="71.09" x2="411.52" y2="71.09"/><line class="cls-5" x1="411.52" y1="68.38" x2="462.58" y2="68.38"/><line class="cls-5" x1="409.88" y1="71.09" x2="406.11" y2="71.09"/><line class="cls-5" x1="406.11" y1="71.09" x2="406.11" y2="68.38"/><line class="cls-5" x1="406.11" y1="68.38" x2="409.88" y2="68.38"/><line class="cls-5" x1="351.25" y1="68.38" x2="355.05" y2="68.38"/><line class="cls-5" x1="355.05" y1="68.38" x2="355.05" y2="71.08"/><line class="cls-5" x1="355.05" y1="71.09" x2="351.25" y2="71.09"/><line class="cls-5" x1="406.11" y1="71.09" x2="355.05" y2="71.09"/><line class="cls-5" x1="355.05" y1="68.38" x2="406.11" y2="68.38"/><line class="cls-5" x1="351.25" y1="71.09" x2="349.61" y2="71.09"/><line class="cls-5" x1="349.61" y1="71.09" x2="349.61" y2="68.38"/><line class="cls-5" x1="349.61" y1="68.38" x2="351.25" y2="68.38"/><line class="cls-5" x1="295.31" y1="68.38" x2="298.55" y2="68.38"/><line class="cls-5" x1="298.55" y1="68.38" x2="298.55" y2="71.08"/><line class="cls-5" x1="298.55" y1="71.09" x2="295.31" y2="71.09"/><line class="cls-5" x1="349.61" y1="71.09" x2="298.55" y2="71.09"/><line class="cls-5" x1="298.55" y1="68.38" x2="349.61" y2="68.38"/><line class="cls-5" x1="465.85" y1="68.38" x2="465.85" y2="71.08"/><line class="cls-5" x1="465.85" y1="68.38" x2="465.85" y2="71.08"/><line class="cls-5" x1="465.85" y1="71.09" x2="465.85" y2="74.89"/><line class="cls-5" x1="465.85" y1="68.38" x2="295.31" y2="68.38"/><line class="cls-5" x1="465.85" y1="74.87" x2="295.31" y2="74.87"/><polyline class="cls-4" points="465.85 71.08 462.58 71.08 462.58 68.38 465.85 68.38 465.85 71.08"/><polyline class="cls-4" points="408.45 68.38 410.08 68.38 410.08 71.08 408.45 71.08 408.45 68.38"/><polyline class="cls-4" points="408.45 71.08 406.82 71.08 406.82 68.38 408.45 68.38 408.45 71.08"/><polyline class="cls-4" points="352.68 68.38 354.31 68.38 354.31 71.08 352.68 71.08 352.68 68.38"/><polyline class="cls-4" points="352.68 71.08 351.08 71.08 351.08 68.38 352.68 68.38 352.68 71.08"/><polyline class="cls-4" points="295.31 68.38 298.55 68.38 298.55 71.08 295.31 71.08 295.31 68.38"/><line class="cls-5" x1="465.85" y1="71.09" x2="462.58" y2="71.09"/><line class="cls-5" x1="462.59" y1="71.09" x2="462.59" y2="68.38"/><line class="cls-5" x1="462.59" y1="68.38" x2="465.85" y2="68.38"/><line class="cls-5" x1="408.45" y1="68.38" x2="410.08" y2="68.38"/><line class="cls-5" x1="410.08" y1="68.38" x2="410.08" y2="71.08"/><line class="cls-5" x1="410.08" y1="71.09" x2="408.45" y2="71.09"/><line class="cls-5" x1="462.59" y1="71.09" x2="410.08" y2="71.09"/><line class="cls-5" x1="410.08" y1="68.38" x2="462.58" y2="68.38"/><line class="cls-5" x1="408.45" y1="71.09" x2="406.82" y2="71.09"/><line class="cls-5" x1="406.82" y1="71.09" x2="406.82" y2="68.38"/><line class="cls-5" x1="406.82" y1="68.38" x2="408.45" y2="68.38"/><line class="cls-5" x1="352.68" y1="68.38" x2="354.31" y2="68.38"/><line class="cls-5" x1="354.31" y1="68.38" x2="354.31" y2="71.08"/><line class="cls-5" x1="354.31" y1="71.09" x2="352.68" y2="71.09"/><line class="cls-5" x1="406.82" y1="71.09" x2="354.31" y2="71.09"/><line class="cls-5" x1="354.31" y1="68.38" x2="406.82" y2="68.38"/><line class="cls-5" x1="352.68" y1="71.09" x2="351.08" y2="71.09"/><line class="cls-5" x1="351.08" y1="71.09" x2="351.08" y2="68.38"/><line class="cls-5" x1="351.08" y1="68.38" x2="352.68" y2="68.38"/><line class="cls-5" x1="295.31" y1="68.38" x2="298.55" y2="68.38"/><line class="cls-5" x1="298.55" y1="68.38" x2="298.55" y2="71.08"/><line class="cls-5" x1="298.55" y1="71.09" x2="295.31" y2="71.09"/><line class="cls-5" x1="351.08" y1="71.09" x2="298.55" y2="71.09"/><line class="cls-5" x1="298.55" y1="68.38" x2="351.08" y2="68.38"/><line class="cls-5" x1="465.85" y1="68.38" x2="465.85" y2="71.08"/><line class="cls-5" x1="465.85" y1="68.38" x2="465.85" y2="71.08"/><line class="cls-5" x1="465.85" y1="71.09" x2="465.85" y2="74.89"/><line class="cls-5" x1="465.85" y1="68.38" x2="295.31" y2="68.38"/><line class="cls-5" x1="465.85" y1="74.87" x2="295.31" y2="74.87"/><polyline class="cls-4" points="465.85 71.08 462.58 71.08 462.58 68.38 465.85 68.38 465.85 71.08"/><polyline class="cls-4" points="408.45 68.38 410.08 68.38 410.08 71.08 408.45 71.08 408.45 68.38"/><polyline class="cls-4" points="408.45 71.08 406.82 71.08 406.82 68.38 408.45 68.38 408.45 71.08"/><polyline class="cls-4" points="352.68 68.38 354.31 68.38 354.31 71.08 352.68 71.08 352.68 68.38"/><polyline class="cls-4" points="352.68 71.08 351.08 71.08 351.08 68.38 352.68 68.38 352.68 71.08"/><polyline class="cls-4" points="295.31 68.38 298.55 68.38 298.55 71.08 295.31 71.08 295.31 68.38"/><line class="cls-5" x1="465.85" y1="71.09" x2="462.58" y2="71.09"/><line class="cls-5" x1="462.59" y1="71.09" x2="462.59" y2="68.38"/><line class="cls-5" x1="462.59" y1="68.38" x2="465.85" y2="68.38"/><line class="cls-5" x1="408.45" y1="68.38" x2="410.08" y2="68.38"/><line class="cls-5" x1="410.08" y1="68.38" x2="410.08" y2="71.08"/><line class="cls-5" x1="410.08" y1="71.09" x2="408.45" y2="71.09"/><line class="cls-5" x1="462.59" y1="71.09" x2="410.08" y2="71.09"/><line class="cls-5" x1="410.08" y1="68.38" x2="462.58" y2="68.38"/><line class="cls-5" x1="408.45" y1="71.09" x2="406.82" y2="71.09"/><line class="cls-5" x1="406.82" y1="71.09" x2="406.82" y2="68.38"/><line class="cls-5" x1="406.82" y1="68.38" x2="408.45" y2="68.38"/><line class="cls-5" x1="352.68" y1="68.38" x2="354.31" y2="68.38"/><line class="cls-5" x1="354.31" y1="68.38" x2="354.31" y2="71.08"/><line class="cls-5" x1="354.31" y1="71.09" x2="352.68" y2="71.09"/><line class="cls-5" x1="406.82" y1="71.09" x2="354.31" y2="71.09"/><line class="cls-5" x1="354.31" y1="68.38" x2="406.82" y2="68.38"/><line class="cls-5" x1="352.68" y1="71.09" x2="351.08" y2="71.09"/><line class="cls-5" x1="351.08" y1="71.09" x2="351.08" y2="68.38"/><line class="cls-5" x1="351.08" y1="68.38" x2="352.68" y2="68.38"/><line class="cls-5" x1="295.31" y1="68.38" x2="298.55" y2="68.38"/><line class="cls-5" x1="298.55" y1="68.38" x2="298.55" y2="71.08"/><line class="cls-5" x1="298.55" y1="71.09" x2="295.31" y2="71.09"/><line class="cls-5" x1="351.08" y1="71.09" x2="298.55" y2="71.09"/><line class="cls-5" x1="298.55" y1="68.38" x2="351.08" y2="68.38"/><line class="cls-5" x1="465.85" y1="68.38" x2="465.85" y2="71.08"/><line class="cls-5" x1="465.85" y1="68.38" x2="465.85" y2="71.08"/><line class="cls-5" x1="465.85" y1="71.09" x2="465.85" y2="74.89"/><line class="cls-5" x1="295.31" y1="68.38" x2="295.31" y2="71.08"/><line class="cls-5" x1="295.31" y1="68.38" x2="295.31" y2="71.08"/><line class="cls-5" x1="295.31" y1="71.09" x2="295.31" y2="74.89"/><polyline class="cls-4" points="472.89 74.88 479.36 74.88 479.36 118.17 472.89 118.17 472.89 74.88"/><polyline class="cls-4" points="472.89 74.88 479.36 68.37 479.36 74.88 472.89 74.88"/><line class="cls-5" x1="479.36" y1="68.38" x2="479.36" y2="74.88"/><line class="cls-5" x1="479.36" y1="118.18" x2="479.36" y2="74.89"/><line class="cls-5" x1="472.89" y1="74.87" x2="472.89" y2="118.17"/><line class="cls-5" x1="82.54" y1="180.98" x2="115.02" y2="180.98"/><line class="cls-5" x1="82.54" y1="148.5" x2="82.54" y2="180.99"/><line class="cls-5" x1="115.02" y1="148.5" x2="82.54" y2="148.5"/><line class="cls-5" x1="115.02" y1="180.98" x2="115.02" y2="148.5"/><line class="cls-5" x1="85.52" y1="180.44" x2="112.04" y2="180.44"/><line class="cls-5" x1="85.52" y1="149.04" x2="85.52" y2="180.43"/><line class="cls-5" x1="112.04" y1="149.04" x2="85.52" y2="149.04"/><line class="cls-5" x1="112.04" y1="180.44" x2="112.04" y2="149.05"/><path class="cls-5" d="M123.75,200.87a3.92,3.92,0,1,0-3.92,3.91,3.91,3.91,0,0,0,3.92-3.91" transform="translate(-28.34 -27.49)"/><path class="cls-5" d="M138.1,199.08a5.67,5.67,0,1,0-5.66,5.68,5.68,5.68,0,0,0,5.66-5.68" transform="translate(-28.34 -27.49)"/><path class="cls-5" d="M125.75,184.38a4.88,4.88,0,1,0-4.88,4.87,4.88,4.88,0,0,0,4.88-4.87" transform="translate(-28.34 -27.49)"/><path class="cls-5" d="M137.15,183.28a3.93,3.93,0,1,0-3.92,3.91,3.91,3.91,0,0,0,3.92-3.91" transform="translate(-28.34 -27.49)"/><line class="cls-5" x1="110.97" y1="225.38" x2="110.97" y2="266.53"/><path class="cls-5" d="M139.31,294a1.08,1.08,0,0,1-1.09,1.07" transform="translate(-28.34 -27.49)"/><line class="cls-5" x1="109.87" y1="267.6" x2="84.99" y2="267.6"/><path class="cls-5" d="M113.33,295.09a1.07,1.07,0,0,1-1.1-1.07" transform="translate(-28.34 -27.49)"/><line class="cls-5" x1="83.89" y1="266.52" x2="83.89" y2="225.36"/><path class="cls-5" d="M112.23,252.87a1.08,1.08,0,0,1,1.1-1.07" transform="translate(-28.34 -27.49)"/><line class="cls-5" x1="84.99" y1="224.29" x2="109.87" y2="224.29"/><path class="cls-5" d="M138.22,251.78a1.08,1.08,0,0,1,1.09,1.07" transform="translate(-28.34 -27.49)"/><line class="cls-5" x1="115.02" y1="213.47" x2="115.02" y2="278.44"/><line class="cls-5" x1="82.54" y1="213.47" x2="82.54" y2="278.44"/><line class="cls-5" x1="115.02" y1="213.47" x2="82.54" y2="213.47"/><line class="cls-5" x1="115.02" y1="278.43" x2="82.54" y2="278.43"/><line class="cls-5" x1="108.27" y1="228.08" x2="108.27" y2="244.04"/><line class="cls-5" x1="107.17" y1="245.14" x2="90.39" y2="245.14"/><line class="cls-5" x1="89.32" y1="244.05" x2="89.32" y2="228.09"/><line class="cls-5" x1="90.39" y1="227" x2="107.17" y2="227"/><line class="cls-5" x1="108.27" y1="228.08" x2="108.27" y2="228.08"/><line class="cls-5" x1="108.27" y1="247.84" x2="108.27" y2="263.81"/><line class="cls-5" x1="107.17" y1="264.9" x2="90.39" y2="264.9"/><line class="cls-5" x1="89.32" y1="263.81" x2="89.32" y2="247.85"/><line class="cls-5" x1="90.39" y1="246.76" x2="107.17" y2="246.76"/><line class="cls-5" x1="108.27" y1="247.84" x2="108.27" y2="247.84"/><path class="cls-5" d="M136.61,271.54a1.1,1.1,0,0,1-1.1,1.07" transform="translate(-28.34 -27.49)"/><path class="cls-5" d="M118.73,272.63a1.07,1.07,0,0,1-1.07-1.07" transform="translate(-28.34 -27.49)"/><path class="cls-5" d="M117.67,255.57a1.06,1.06,0,0,1,1.06-1.07" transform="translate(-28.34 -27.49)"/><path class="cls-5" d="M135.51,254.49a1.1,1.1,0,0,1,1.1,1.07" transform="translate(-28.34 -27.49)"/><path class="cls-5" d="M136.61,291.3a1.09,1.09,0,0,1-1.1,1.07" transform="translate(-28.34 -27.49)"/><path class="cls-5" d="M118.73,292.39a1.07,1.07,0,0,1-1.07-1.07" transform="translate(-28.34 -27.49)"/><path class="cls-5" d="M117.67,275.33a1.06,1.06,0,0,1,1.06-1.07" transform="translate(-28.34 -27.49)"/><path class="cls-5" d="M135.51,274.25a1.1,1.1,0,0,1,1.1,1.07" transform="translate(-28.34 -27.49)"/><path class="cls-5" d="M124.56,273a.49.49,0,1,1,0,1h0" transform="translate(-28.34 -27.49)"/><line class="cls-5" x1="96.22" y1="246.44" x2="85.52" y2="246.44"/><path class="cls-5" d="M113.86,273.93a.47.47,0,0,1-.47-.48.48.48,0,0,1,.47-.51" transform="translate(-28.34 -27.49)"/><line class="cls-5" x1="85.52" y1="245.46" x2="96.22" y2="245.46"/><line class="cls-5" x1="88.28" y1="244.87" x2="88.28" y2="245.46"/><line class="cls-5" x1="88.28" y1="245.46" x2="85.52" y2="245.46"/><path class="cls-5" d="M113.86,273.93a.47.47,0,0,1-.47-.48.48.48,0,0,1,.47-.51" transform="translate(-28.34 -27.49)"/><line class="cls-5" x1="85.52" y1="246.44" x2="88.28" y2="246.44"/><line class="cls-5" x1="88.28" y1="246.44" x2="88.28" y2="247.03"/><line class="cls-5" x1="88.28" y1="247.03" x2="84.76" y2="247.03"/><line class="cls-5" x1="84.76" y1="247.03" x2="84.76" y2="244.86"/><line class="cls-5" x1="84.76" y1="244.87" x2="88.28" y2="244.87"/><line class="cls-5" x1="90.22" y1="244.88" x2="90.22" y2="245.47"/><line class="cls-5" x1="90.22" y1="245.46" x2="88.34" y2="245.46"/><line class="cls-5" x1="88.34" y1="245.46" x2="88.34" y2="244.87"/><line class="cls-5" x1="88.34" y1="244.88" x2="90.22" y2="244.88"/><line class="cls-5" x1="90.22" y1="247.01" x2="88.34" y2="247.01"/><line class="cls-5" x1="88.34" y1="247.01" x2="88.34" y2="246.42"/><line class="cls-5" x1="88.34" y1="246.44" x2="90.22" y2="246.44"/><line class="cls-5" x1="90.22" y1="246.44" x2="90.22" y2="247.03"/><line class="cls-5" x1="115.02" y1="116.02" x2="115.02" y2="148.51"/><line class="cls-5" x1="82.54" y1="116.02" x2="82.54" y2="148.51"/><line class="cls-5" x1="115.02" y1="116.02" x2="82.54" y2="116.02"/><line class="cls-5" x1="115.02" y1="148.5" x2="82.54" y2="148.5"/><line class="cls-5" x1="115.02" y1="180.98" x2="115.02" y2="213.47"/><line class="cls-5" x1="82.54" y1="180.98" x2="82.54" y2="213.47"/><line class="cls-5" x1="115.02" y1="180.98" x2="82.54" y2="180.98"/><line class="cls-5" x1="115.02" y1="213.47" x2="82.54" y2="213.47"/><line class="cls-5" x1="118.37" y1="338.79" x2="121.16" y2="338.48"/><line class="cls-5" x1="115.59" y1="338.71" x2="118.37" y2="338.79"/><line class="cls-5" x1="96.61" y1="336.95" x2="115.59" y2="338.7"/><line class="cls-5" x1="96.61" y1="321.69" x2="96.61" y2="336.95"/><line class="cls-5" x1="115.59" y1="319.93" x2="96.61" y2="321.68"/><line class="cls-5" x1="118.37" y1="319.85" x2="115.59" y2="319.93"/><line class="cls-5" x1="121.16" y1="320.15" x2="118.37" y2="319.84"/><line class="cls-5" x1="123.86" y1="320.82" x2="121.16" y2="320.14"/><line class="cls-5" x1="126.4" y1="321.85" x2="123.86" y2="320.81"/><line class="cls-5" x1="128.42" y1="323.23" x2="126.4" y2="321.85"/><line class="cls-5" x1="129.94" y1="325.03" x2="128.42" y2="323.22"/><line class="cls-5" x1="130.93" y1="327.1" x2="129.94" y2="325.01"/><line class="cls-5" x1="131.27" y1="329.32" x2="130.93" y2="327.1"/><line class="cls-5" x1="130.93" y1="331.54" x2="131.27" y2="329.32"/><line class="cls-5" x1="129.94" y1="333.62" x2="130.93" y2="331.53"/><line class="cls-5" x1="128.42" y1="335.4" x2="129.94" y2="333.63"/><line class="cls-5" x1="126.4" y1="336.79" x2="128.42" y2="335.41"/><line class="cls-5" x1="123.86" y1="337.82" x2="126.4" y2="336.81"/><line class="cls-5" x1="121.16" y1="338.49" x2="123.86" y2="337.82"/><line class="cls-5" x1="101.23" y1="338.52" x2="101.23" y2="320.11"/><line class="cls-5" x1="101.15" y1="339.15" x2="101.23" y2="338.53"/><line class="cls-5" x1="100.98" y1="339.67" x2="101.15" y2="339.14"/><line class="cls-5" x1="100.72" y1="340.02" x2="100.98" y2="339.69"/><line class="cls-5" x1="100.39" y1="340.15" x2="100.72" y2="340.03"/><line class="cls-5" x1="97.43" y1="340.15" x2="100.39" y2="340.15"/><line class="cls-5" x1="97.12" y1="340.02" x2="97.43" y2="340.14"/><line class="cls-5" x1="96.87" y1="339.67" x2="97.12" y2="340.01"/><line class="cls-5" x1="96.67" y1="339.15" x2="96.87" y2="339.68"/><line class="cls-5" x1="96.61" y1="338.52" x2="96.67" y2="339.14"/><line class="cls-5" x1="96.61" y1="320.12" x2="96.61" y2="338.53"/><line class="cls-5" x1="96.67" y1="319.5" x2="96.61" y2="320.12"/><line class="cls-5" x1="96.87" y1="318.97" x2="96.67" y2="319.5"/><line class="cls-5" x1="97.12" y1="318.62" x2="96.87" y2="318.96"/><line class="cls-5" x1="97.43" y1="318.49" x2="97.12" y2="318.61"/><line class="cls-5" x1="100.39" y1="318.49" x2="97.43" y2="318.49"/><line class="cls-5" x1="100.72" y1="318.62" x2="100.39" y2="318.5"/><line class="cls-5" x1="100.98" y1="318.97" x2="100.72" y2="318.63"/><line class="cls-5" x1="101.15" y1="319.5" x2="100.98" y2="318.96"/><line class="cls-5" x1="101.23" y1="320.12" x2="101.15" y2="319.5"/><path class="cls-5" d="M211,321.62a.8.8,0,0,1,.79.82" transform="translate(-28.34 -27.49)"/><line class="cls-5" x1="183.43" y1="309.56" x2="183.43" y2="294.95"/><path class="cls-5" d="M211.78,337.05a.8.8,0,0,1-.79.82" transform="translate(-28.34 -27.49)"/><line class="cls-5" x1="157.2" y1="310.37" x2="182.64" y2="310.37"/><path class="cls-5" d="M185.54,337.86a.82.82,0,0,1-.82-.81" transform="translate(-28.34 -27.49)"/><line class="cls-5" x1="156.38" y1="294.94" x2="156.38" y2="309.55"/><path class="cls-5" d="M184.72,322.43a.82.82,0,0,1,.82-.81" transform="translate(-28.34 -27.49)"/><line class="cls-5" x1="182.64" y1="294.13" x2="157.2" y2="294.13"/><line class="cls-5" x1="170.26" y1="372.63" x2="170.26" y2="360.19"/><path class="cls-5" d="M198.07,387.13a.53.53,0,0,1,.53.54" transform="translate(-28.34 -27.49)"/><line class="cls-5" x1="169.72" y1="359.64" x2="169.72" y2="359.64"/><line class="cls-5" x1="169.72" y1="359.64" x2="152.41" y2="359.64"/><line class="cls-5" x1="152.41" y1="359.64" x2="135.07" y2="359.64"/><path class="cls-5" d="M162.88,387.67a.53.53,0,0,1,.53-.53" transform="translate(-28.34 -27.49)"/><line class="cls-5" x1="134.53" y1="360.18" x2="134.53" y2="360.18"/><line class="cls-5" x1="134.53" y1="360.18" x2="134.53" y2="372.62"/><path class="cls-5" d="M168.11,409.31a10.69,10.69,0,0,1-5.23-9.18" transform="translate(-28.34 -27.49)"/><line class="cls-5" x1="139.77" y1="381.82" x2="139.77" y2="381.82"/><path class="cls-5" d="M180.75,413.11a22.9,22.9,0,0,1-12.64-3.8" transform="translate(-28.34 -27.49)"/><line class="cls-5" x1="152.41" y1="385.62" x2="152.41" y2="385.62"/><path class="cls-5" d="M193.37,409.31a22.88,22.88,0,0,1-12.62,3.8" transform="translate(-28.34 -27.49)"/><line class="cls-5" x1="165.02" y1="381.82" x2="165.02" y2="381.82"/><path class="cls-5" d="M198.6,400.12a10.62,10.62,0,0,1-5.23,9.18" transform="translate(-28.34 -27.49)"/><line class="cls-5" x1="170.26" y1="372.63" x2="170.26" y2="372.63"/><line class="cls-5" x1="123.7" y1="359.1" x2="83.07" y2="359.1"/><line class="cls-5" x1="123.7" y1="451.13" x2="123.7" y2="359.11"/><line class="cls-5" x1="83.07" y1="451.13" x2="123.7" y2="451.13"/><line class="cls-5" x1="83.07" y1="359.1" x2="83.07" y2="451.12"/><line class="cls-5" x1="151.28" y1="457.63" x2="183.77" y2="457.63"/><line class="cls-5" x1="151.28" y1="425.15" x2="151.28" y2="457.63"/><line class="cls-5" x1="183.77" y1="425.15" x2="151.28" y2="425.15"/><line class="cls-5" x1="183.77" y1="457.63" x2="183.77" y2="425.14"/><line class="cls-5" x1="352.17" y1="66.21" x2="352.17" y2="39.69"/><line class="cls-5" x1="352.74" y1="66.21" x2="352.74" y2="39.69"/><line class="cls-5" x1="352.17" y1="39.68" x2="352.74" y2="39.68"/><line class="cls-5" x1="352.74" y1="66.21" x2="352.74" y2="68.38"/><line class="cls-5" x1="352.17" y1="68.38" x2="352.74" y2="68.38"/><line class="cls-5" x1="352.17" y1="66.21" x2="352.17" y2="68.38"/><line class="cls-5" x1="314.28" y1="45.77" x2="345.14" y2="45.77"/><line class="cls-5" x1="303.47" y1="46.59" x2="303.56" y2="46.19"/><line class="cls-5" x1="303.47" y1="61.47" x2="303.47" y2="46.58"/><line class="cls-5" x1="303.56" y1="61.88" x2="303.47" y2="61.49"/><line class="cls-5" x1="303.87" y1="62.18" x2="303.56" y2="61.87"/><line class="cls-5" x1="304.26" y1="62.29" x2="303.87" y2="62.17"/><line class="cls-5" x1="345.95" y1="62.29" x2="304.26" y2="62.29"/><line class="cls-5" x1="346.37" y1="62.18" x2="345.95" y2="62.29"/><line class="cls-5" x1="346.66" y1="61.88" x2="346.37" y2="62.19"/><line class="cls-5" x1="346.77" y1="61.47" x2="346.66" y2="61.87"/><line class="cls-5" x1="346.77" y1="46.59" x2="346.77" y2="61.48"/><line class="cls-5" x1="346.66" y1="46.18" x2="346.77" y2="46.57"/><line class="cls-5" x1="346.37" y1="45.88" x2="346.66" y2="46.19"/><line class="cls-5" x1="345.95" y1="45.77" x2="346.37" y2="45.89"/><line class="cls-5" x1="304.26" y1="45.77" x2="345.95" y2="45.77"/><line class="cls-5" x1="303.87" y1="45.88" x2="304.26" y2="45.77"/><line class="cls-5" x1="303.56" y1="46.18" x2="303.87" y2="45.87"/><line class="cls-5" x1="352.74" y1="39.14" x2="352.74" y2="39.68"/><line class="cls-5" x1="352.74" y1="39.14" x2="298.55" y2="39.14"/><line class="cls-5" x1="298.55" y1="39.68" x2="298.55" y2="39.15"/><line class="cls-5" x1="352.74" y1="39.68" x2="298.55" y2="39.68"/><line class="cls-5" x1="352.17" y1="66.21" x2="298.55" y2="66.21"/><line class="cls-5" x1="352.17" y1="39.68" x2="352.17" y2="66.2"/><line class="cls-5" x1="298.55" y1="66.21" x2="298.55" y2="39.69"/><line class="cls-5" x1="298.55" y1="39.68" x2="352.17" y2="39.68"/><line class="cls-5" x1="298.01" y1="39.14" x2="298.55" y2="39.14"/><line class="cls-5" x1="298.01" y1="39.14" x2="298.01" y2="66.22"/><line class="cls-5" x1="298.55" y1="39.68" x2="298.55" y2="66.2"/><line class="cls-5" x1="298.55" y1="66.21" x2="298.55" y2="68.38"/><line class="cls-5" x1="298.01" y1="66.21" x2="298.01" y2="68.38"/><line class="cls-5" x1="298.01" y1="68.38" x2="298.55" y2="68.38"/><text class="cls-6" transform="translate(362.07 103.56)">1.42</text><text class="cls-6" transform="translate(455.42 256.73)">19.15</text><text class="cls-6" transform="translate(455.42 470.06)">15.66</text><text class="cls-6" transform="translate(150.63 123.05)">12.17</text><text class="cls-6" transform="translate(109.93 313.08)">1.81</text><text class="cls-6" transform="translate(128.47 515.01)">11.18</text><text class="cls-6" transform="translate(133.92 412.15)">3.59</text><text class="cls-7" transform="translate(372.41 256.73)">2К</text><text class="cls-7" transform="translate(357.54 289.74)">64.98</text><text class="cls-7" transform="translate(354.37 224.21)">№204</text><polyline class="cls-5" points="345.77 298.09 345.77 200.97 426.76 200.97 426.76 298.09"/><line class="cls-5" x1="345.77" y1="233.41" x2="426.76" y2="233.41"/><line class="cls-5" x1="345.77" y1="298.09" x2="426.76" y2="298.09"/><line class="cls-5" x1="345.77" y1="265.84" x2="426.76" y2="265.84"/></svg>