<svg id="Layer_1" data-name="Layer 1" xmlns="http://www.w3.org/2000/svg" viewBox="0 0 522.97 992.54"><defs><style>.cls-1,.cls-2,.cls-4,.cls-5,.cls-6,.cls-7,.cls-9{isolation:isolate;}.cls-1,.cls-2{font-size:12px;fill:#969696;}.cls-1,.cls-2,.cls-4,.cls-6,.cls-7,.cls-9{font-family:PTSans-Regular, PT Sans;}.cls-1{letter-spacing:-0.09em;}.cls-10,.cls-11,.cls-12,.cls-3,.cls-8{fill:none;stroke-linecap:round;stroke-linejoin:round;}.cls-3{stroke:#969696;}.cls-10,.cls-3{stroke-width:0.75px;}.cls-4{font-size:36px;}.cls-6,.cls-7{font-size:28px;}.cls-7{letter-spacing:-0.16em;}.cls-10,.cls-11,.cls-8{stroke:#000;}.cls-8{stroke-width:0.25px;}.cls-9{font-size:24px;}.cls-11,.cls-12{stroke-width:0.5px;}.cls-12{stroke:gray;}</style></defs><g id="_5" data-name=" 5"><g id="_5-2" data-name=" 5-2"><g id="_3" data-name=" 3"><g id="_2" data-name=" 2"><g id="_1" data-name=" 1"><g id="_3-2" data-name=" 3-2"><g id="_1-2" data-name=" 1-2"><g id="plan"><text class="cls-1" transform="translate(253.35 989.33)">у</text><text class="cls-2" transform="translate(258.76 989.33)">лица</text><line class="cls-3" x1="242.58" y1="992.16" x2="242.58" y2="983.36"/><polyline class="cls-3" points="239.09 988.66 242.59 992.16 246.09 988.66"/></g></g></g></g></g><g id="_2-2" data-name=" 2-2"><g id="_1-3" data-name=" 1-3"><g id="_3-3" data-name=" 3-3"><g id="_1-4" data-name=" 1-4"><g id="plan-2"><text class="cls-2" transform="translate(253.63 10.2)">двор</text><line class="cls-3" x1="242.44" y1="4.23" x2="242.44" y2="13.03"/><polyline class="cls-3" points="245.94 7.73 242.44 4.23 238.94 7.73"/></g></g></g></g></g></g></g><text class="cls-4" transform="translate(56.36 726.52)">№5</text><g class="cls-5"><text class="cls-6" transform="translate(44.97 763.48)">10</text><text class="cls-7" transform="translate(75.5 763.48)">7</text><text class="cls-6" transform="translate(87.68 763.48)">.45</text></g><polyline class="cls-8" points="35.69 772.84 35.69 689.38 133.49 689.38 133.49 772.84"/><line class="cls-8" x1="35.7" y1="772.84" x2="133.47" y2="772.84"/><line class="cls-8" x1="35.7" y1="736.72" x2="133.47" y2="736.72"/><text class="cls-9" transform="translate(234.16 233.42)">99.02</text><text class="cls-9" transform="translate(412.83 392.65)">4.98</text><text class="cls-9" transform="translate(234.16 859.74)">3.45</text><line class="cls-10" x1="2.5" y1="904.57" x2="6.67" y2="904.57"/><line class="cls-10" x1="2.5" y1="904.03" x2="6.67" y2="904.03"/><line class="cls-10" x1="2.5" y1="883.19" x2="2.5" y2="883.19"/><line class="cls-10" x1="2.5" y1="910.82" x2="6.67" y2="910.82"/><line class="cls-10" x1="127.58" y1="904.57" x2="188.55" y2="904.57"/><line class="cls-10" x1="6.67" y1="904.57" x2="38.99" y2="904.57"/><line class="cls-10" x1="129.66" y1="904.03" x2="190.11" y2="904.03"/><line class="cls-10" x1="6.67" y1="904.03" x2="36.9" y2="904.03"/><line class="cls-10" x1="36.9" y1="900.38" x2="36.9" y2="883.19"/><line class="cls-10" x1="38.99" y1="904.57" x2="38.99" y2="904.03"/><line class="cls-10" x1="38.99" y1="910.82" x2="38.99" y2="904.57"/><line class="cls-10" x1="38.99" y1="904.03" x2="36.9" y2="904.03"/><line class="cls-10" x1="36.9" y1="904.03" x2="36.9" y2="900.38"/><line class="cls-10" x1="129.66" y1="900.38" x2="129.66" y2="883.19"/><line class="cls-10" x1="127.58" y1="904.57" x2="127.58" y2="904.03"/><line class="cls-10" x1="127.58" y1="910.82" x2="127.58" y2="904.57"/><line class="cls-10" x1="127.58" y1="904.03" x2="129.66" y2="904.03"/><line class="cls-10" x1="129.66" y1="904.03" x2="129.66" y2="900.38"/><line class="cls-10" x1="190.11" y1="883.19" x2="168.22" y2="883.19"/><line class="cls-10" x1="157.82" y1="883.19" x2="129.66" y2="883.19"/><line class="cls-10" x1="36.9" y1="883.19" x2="10.84" y2="883.19"/><line class="cls-10" x1="6.67" y1="910.82" x2="38.99" y2="910.82"/><line class="cls-10" x1="127.58" y1="910.82" x2="188.55" y2="910.82"/><line class="cls-10" x1="190.11" y1="904.57" x2="190.11" y2="904.03"/><line class="cls-10" x1="190.11" y1="904.03" x2="190.11" y2="883.19"/><line class="cls-11" x1="127.58" y1="910.82" x2="38.99" y2="910.82"/><line class="cls-10" x1="129.66" y1="883.19" x2="36.9" y2="883.19"/><polyline class="cls-11" points="129.66 904.03 124.44 904.03 124.44 900.38 129.66 900.38"/><polyline class="cls-11" points="83.28 900.38 85.89 900.38 85.89 904.03 83.28 904.03"/><line class="cls-11" x1="124.44" y1="902.22" x2="85.88" y2="902.22"/><line class="cls-11" x1="124.44" y1="904.03" x2="85.88" y2="904.03"/><line class="cls-11" x1="85.88" y1="900.38" x2="124.44" y2="900.38"/><polyline class="cls-11" points="83.28 904.03 80.69 904.03 80.69 900.38 83.28 900.38"/><polyline class="cls-11" points="36.91 900.38 42.12 900.38 42.12 904.03 36.91 904.03"/><line class="cls-11" x1="80.69" y1="902.22" x2="42.11" y2="902.22"/><line class="cls-11" x1="80.69" y1="904.03" x2="42.11" y2="904.03"/><line class="cls-11" x1="42.11" y1="900.38" x2="80.69" y2="900.38"/><polyline class="cls-10" points="129.66 900.38 129.66 904.03 129.66 900.38"/><polyline class="cls-10" points="129.66 904.03 127.58 904.03 129.66 904.03"/><polyline class="cls-10" points="127.58 910.82 127.58 904.57 127.58 904.03"/><line class="cls-10" x1="129.66" y1="900.38" x2="129.66" y2="883.19"/><polyline class="cls-10" points="36.91 900.38 36.91 904.03 36.91 900.38"/><polyline class="cls-10" points="36.91 904.03 38.98 904.03 36.91 904.03"/><polyline class="cls-10" points="38.98 910.82 38.98 904.57 38.98 904.03"/><line class="cls-10" x1="36.9" y1="900.38" x2="36.9" y2="883.19"/><path class="cls-10" d="M219.83,773.75" transform="translate(0 0)"/><line class="cls-10" x1="298" y1="893.62" x2="298" y2="773.76"/><line class="cls-10" x1="219.83" y1="773.76" x2="219.83" y2="893.62"/><polyline class="cls-10" points="163.01 101.48 10.84 101.48 10.84 507.97 43.15 507.97 43.15 541.33 10.84 541.33 10.84 883.18 157.81 883.18 157.81 841.5 168.22 841.5 168.22 883.18 190.12 883.18 190.12 893.62 214.62 893.62 214.62 768.54"/><polyline class="cls-10" points="157.81 669.53 168.22 669.53 168.22 721.64 157.81 721.64 157.81 669.53"/><polyline class="cls-10" points="209.93 545.5 157.81 545.5 157.81 535.07 209.93 535.07 209.93 545.5"/><polyline class="cls-10" points="163.01 263.04 173.44 263.04 173.44 315.16 163.01 315.16 163.01 263.04"/><polyline class="cls-10" points="334.99 315.16 324.57 315.16 324.57 263.04 334.99 263.04 334.99 315.16"/><line class="cls-10" x1="314.14" y1="721.64" x2="314.14" y2="768.54"/><path class="cls-10" d="M522.6,101.48" transform="translate(0 0)"/><polyline class="cls-10" points="522.6 80.12 522.6 80.63 522.6 88.45"/><line class="cls-10" x1="522.59" y1="88.45" x2="522.59" y2="88.45"/><line class="cls-10" x1="522.59" y1="88.45" x2="522.59" y2="88.45"/><line class="cls-10" x1="522.59" y1="73.87" x2="522.59" y2="80.12"/><line class="cls-10" x1="522.59" y1="80.63" x2="522.59" y2="88.45"/><polyline class="cls-10" points="522.6 80.12 522.6 80.12 522.6 88.45 522.6 80.12"/><line class="cls-10" x1="522.59" y1="73.87" x2="522.59" y2="73.87"/><polyline class="cls-10" points="522.6 88.45 522.6 92.1 522.6 101.48"/><line class="cls-10" x1="522.59" y1="73.87" x2="522.59" y2="73.87"/><line class="cls-10" x1="522.59" y1="101.48" x2="522.59" y2="101.48"/><polyline class="cls-10" points="522.6 92.1 522.6 92.1 522.6 92.1 522.6 88.45 522.6 88.45 522.6 88.45"/><line class="cls-11" x1="522.59" y1="90.28" x2="522.59" y2="90.28"/><line class="cls-11" x1="522.59" y1="92.1" x2="522.59" y2="92.1"/><line class="cls-11" x1="522.59" y1="88.45" x2="522.59" y2="88.45"/><line class="cls-10" x1="522.59" y1="88.45" x2="522.59" y2="92.1"/><polyline class="cls-10" points="522.6 101.48 522.6 92.1 522.6 88.45 522.6 92.1"/><line class="cls-10" x1="522.59" y1="73.87" x2="522.59" y2="80.12"/><polyline class="cls-10" points="522.6 88.45 522.6 88.45 522.6 88.45"/><polyline class="cls-10" points="522.6 88.45 522.6 88.45 522.6 88.45"/><polyline class="cls-10" points="522.6 80.12 522.6 80.63 522.6 88.45"/><line class="cls-10" x1="334.98" y1="457.15" x2="460.07" y2="457.15"/><line class="cls-10" x1="460.07" y1="446.74" x2="324.57" y2="446.74"/><line class="cls-10" x1="324.57" y1="446.74" x2="324.57" y2="457.15"/><line class="cls-10" x1="2.5" y1="143.18" x2="2.5" y2="910.82"/><line class="cls-10" x1="10.84" y1="841.5" x2="10.84" y2="143.18"/><line class="cls-10" x1="522.59" y1="450.65" x2="522.59" y2="315.16"/><line class="cls-10" x1="522.59" y1="252.61" x2="522.59" y2="143.18"/><line class="cls-10" x1="512.19" y1="143.18" x2="512.19" y2="252.61"/><line class="cls-10" x1="512.19" y1="315.16" x2="512.19" y2="444.14"/><polyline class="cls-10" points="219.82 773.76 219.82 768.54 214.62 768.54"/><path class="cls-10" d="M303.73,773.75" transform="translate(0 0)"/><path class="cls-10" d="M219.83,773.75" transform="translate(0 0)"/><path class="cls-10" d="M248.48,773.74a46.91,46.91,0,0,0,46.91,46.91" transform="translate(0 0)"/><path class="cls-10" d="M222.42,799.8a26.06,26.06,0,0,0,26.06-26.06" transform="translate(0 0)"/><polyline class="cls-10" points="295.39 815.44 295.39 778.97 294.1 778.97 294.1 815.44 295.39 815.44"/><polyline class="cls-10" points="294.1 815.44 294.1 778.97 292.77 778.97 292.77 815.44 294.1 815.44"/><polyline class="cls-10" points="222.43 778.97 223.72 778.97 223.72 794.61 222.43 794.61 222.43 778.97"/><polyline class="cls-10" points="223.72 778.97 225.03 778.97 225.03 794.61 223.72 794.61 223.72 778.97"/><line class="cls-10" x1="299.55" y1="773.76" x2="303.73" y2="773.76"/><line class="cls-10" x1="299.55" y1="768.54" x2="303.73" y2="768.54"/><polyline class="cls-10" points="222.43 768.54 222.43 773.76 219.82 773.76 219.82 768.54 222.43 768.54"/><polyline class="cls-10" points="299.56 768.54 299.56 773.76 295.39 773.76 295.39 768.54 299.56 768.54"/><polyline class="cls-10" points="295.39 820.65 295.39 815.44 292.77 815.44 292.77 820.65 295.39 820.65"/><polyline class="cls-10" points="292.77 773.76 292.77 778.97 295.39 778.97 295.39 773.76 292.77 773.76"/><line class="cls-10" x1="294.1" y1="815.44" x2="294.1" y2="778.97"/><polyline class="cls-10" points="222.43 799.8 222.43 794.61 225.03 794.61 225.03 799.8 222.43 799.8"/><polyline class="cls-10" points="225.03 773.76 225.03 778.97 222.43 778.97 222.43 773.76 225.03 773.76"/><line class="cls-10" x1="223.72" y1="794.61" x2="223.72" y2="778.97"/><polyline class="cls-10" points="219.82 768.54 219.82 773.76 219.82 768.54"/><line class="cls-10" x1="214.61" y1="768.54" x2="214.61" y2="773.76"/><path class="cls-10" d="M314.14,773.75" transform="translate(0 0)"/><line class="cls-10" x1="390.76" y1="396.45" x2="394.92" y2="396.45"/><line class="cls-10" x1="390.76" y1="341.72" x2="394.92" y2="341.72"/><line class="cls-10" x1="394.92" y1="446.74" x2="394.92" y2="396.45"/><line class="cls-10" x1="394.92" y1="341.72" x2="394.92" y2="330.26"/><line class="cls-10" x1="390.76" y1="326.09" x2="390.76" y2="341.72"/><polyline class="cls-10" points="390.75 396.45 390.75 446.74 394.93 446.74"/><line class="cls-10" x1="390.76" y1="326.09" x2="394.92" y2="326.09"/><polyline class="cls-10" points="394.93 330.26 479.87 330.26 479.87 326.09 394.93 326.09"/><line class="cls-10" x1="199.5" y1="80.12" x2="132.27" y2="80.12"/><line class="cls-10" x1="522.59" y1="80.12" x2="498.11" y2="80.12"/><line class="cls-10" x1="368.88" y1="80.12" x2="301.64" y2="80.12"/><line class="cls-10" x1="30.12" y1="80.12" x2="10.84" y2="80.12"/><line class="cls-10" x1="199.5" y1="80.63" x2="132.27" y2="80.63"/><line class="cls-10" x1="522.59" y1="80.63" x2="498.11" y2="80.63"/><line class="cls-10" x1="368.88" y1="80.63" x2="301.64" y2="80.63"/><line class="cls-10" x1="30.12" y1="80.63" x2="10.84" y2="80.63"/><polyline class="cls-10" points="36.91 80.12 36.91 80.63 36.91 88.45"/><polyline class="cls-10" points="125.5 80.12 125.5 80.63 125.5 88.45"/><line class="cls-10" x1="30.12" y1="88.45" x2="30.65" y2="88.45"/><line class="cls-10" x1="30.65" y1="88.45" x2="36.9" y2="88.45"/><line class="cls-10" x1="36.9" y1="73.87" x2="36.9" y2="80.12"/><line class="cls-10" x1="132.27" y1="88.45" x2="131.75" y2="88.45"/><line class="cls-10" x1="131.75" y1="88.45" x2="125.5" y2="88.45"/><line class="cls-10" x1="125.5" y1="73.87" x2="125.5" y2="80.12"/><line class="cls-10" x1="30.12" y1="80.63" x2="30.12" y2="88.45"/><polyline class="cls-10" points="30.11 80.12 30.66 80.12 30.66 88.45 30.66 80.12"/><line class="cls-10" x1="30.65" y1="73.87" x2="36.9" y2="73.87"/><line class="cls-10" x1="132.27" y1="80.63" x2="132.27" y2="88.45"/><polyline class="cls-10" points="132.26 80.12 131.75 80.12 131.75 88.45 131.75 80.12"/><line class="cls-10" x1="131.75" y1="73.87" x2="125.5" y2="73.87"/><polyline class="cls-10" points="30.11 88.45 30.11 92.1 30.11 101.48"/><polyline class="cls-10" points="132.26 88.45 132.26 92.1 132.26 101.48"/><polyline class="cls-10" points="206.28 80.12 206.28 80.63 206.28 88.45"/><polyline class="cls-10" points="294.88 80.12 294.88 80.63 294.88 88.45"/><line class="cls-10" x1="199.5" y1="88.45" x2="200" y2="88.45"/><line class="cls-10" x1="200" y1="88.45" x2="206.27" y2="88.45"/><line class="cls-10" x1="206.27" y1="73.87" x2="206.27" y2="80.12"/><line class="cls-10" x1="301.64" y1="88.45" x2="301.13" y2="88.45"/><line class="cls-10" x1="301.13" y1="88.45" x2="294.88" y2="88.45"/><line class="cls-10" x1="294.88" y1="73.87" x2="294.88" y2="80.12"/><line class="cls-10" x1="199.5" y1="80.63" x2="199.5" y2="88.45"/><polyline class="cls-10" points="199.5 80.12 200 80.12 200 88.45 200 80.12"/><line class="cls-10" x1="200" y1="73.87" x2="206.27" y2="73.87"/><line class="cls-10" x1="301.64" y1="80.63" x2="301.64" y2="88.45"/><polyline class="cls-10" points="301.64 80.12 301.13 80.12 301.13 88.45 301.13 80.12"/><line class="cls-10" x1="301.13" y1="73.87" x2="294.88" y2="73.87"/><polyline class="cls-10" points="199.5 88.45 199.5 92.1 199.5 101.48"/><polyline class="cls-10" points="301.64 88.45 301.64 92.1 301.64 101.48"/><polyline class="cls-10" points="375.63 80.12 375.63 80.63 375.63 88.45"/><polyline class="cls-10" points="491.33 80.12 491.33 80.63 491.33 88.45"/><line class="cls-10" x1="368.88" y1="88.45" x2="369.39" y2="88.45"/><line class="cls-10" x1="369.39" y1="88.45" x2="375.64" y2="88.45"/><line class="cls-10" x1="375.64" y1="73.87" x2="375.64" y2="80.12"/><line class="cls-10" x1="498.11" y1="88.45" x2="497.6" y2="88.45"/><line class="cls-10" x1="497.6" y1="88.45" x2="491.33" y2="88.45"/><line class="cls-10" x1="491.33" y1="73.87" x2="491.33" y2="80.12"/><line class="cls-10" x1="368.88" y1="80.63" x2="368.88" y2="88.45"/><polyline class="cls-10" points="368.88 80.12 369.38 80.12 369.38 88.45 369.38 80.12"/><line class="cls-10" x1="369.39" y1="73.87" x2="375.64" y2="73.87"/><line class="cls-10" x1="498.11" y1="80.63" x2="498.11" y2="88.45"/><polyline class="cls-10" points="498.12 80.12 497.61 80.12 497.61 88.45 497.61 80.12"/><line class="cls-10" x1="497.6" y1="73.87" x2="491.33" y2="73.87"/><polyline class="cls-10" points="368.88 88.45 368.88 92.1 368.88 101.48"/><polyline class="cls-10" points="498.12 88.45 498.12 92.1 498.12 101.48"/><line class="cls-10" x1="522.59" y1="73.87" x2="497.6" y2="73.87"/><line class="cls-10" x1="369.39" y1="73.87" x2="301.13" y2="73.87"/><line class="cls-10" x1="200" y1="73.87" x2="131.75" y2="73.87"/><line class="cls-10" x1="30.65" y1="73.87" x2="0.38" y2="73.87"/><line class="cls-10" x1="10.84" y1="101.48" x2="30.12" y2="101.48"/><line class="cls-10" x1="132.27" y1="101.48" x2="163.02" y2="101.48"/><line class="cls-10" x1="173.44" y1="101.48" x2="199.5" y2="101.48"/><line class="cls-10" x1="301.64" y1="101.48" x2="324.57" y2="101.48"/><line class="cls-10" x1="334.98" y1="101.48" x2="368.88" y2="101.48"/><line class="cls-10" x1="498.11" y1="101.48" x2="512.19" y2="101.48"/><line class="cls-11" x1="125.5" y1="73.87" x2="36.9" y2="73.87"/><line class="cls-10" x1="132.27" y1="101.48" x2="30.12" y2="101.48"/><polyline class="cls-11" points="132.26 92.1 127.58 92.1 122.36 92.1 122.36 88.45 127.58 88.45 132.26 88.45"/><polyline class="cls-11" points="81.19 88.45 83.8 88.45 83.8 92.1 81.19 92.1"/><line class="cls-11" x1="122.37" y1="90.28" x2="83.8" y2="90.28"/><line class="cls-11" x1="122.37" y1="92.1" x2="83.8" y2="92.1"/><line class="cls-11" x1="83.8" y1="88.45" x2="122.37" y2="88.45"/><line class="cls-10" x1="127.58" y1="88.45" x2="127.58" y2="92.1"/><polyline class="cls-11" points="81.19 92.1 78.58 92.1 78.58 88.45 81.19 88.45"/><polyline class="cls-11" points="30.11 88.45 34.81 88.45 40.02 88.45 40.02 92.1 34.81 92.1 30.11 92.1"/><line class="cls-11" x1="78.58" y1="90.28" x2="40.02" y2="90.28"/><line class="cls-11" x1="78.58" y1="92.1" x2="40.02" y2="92.1"/><line class="cls-11" x1="40.02" y1="88.45" x2="78.58" y2="88.45"/><line class="cls-10" x1="34.81" y1="88.45" x2="34.81" y2="92.1"/><polyline class="cls-10" points="132.26 101.48 132.26 92.1 132.26 88.45 132.26 92.1"/><polyline class="cls-10" points="30.11 101.48 30.11 92.1 30.11 88.45 30.11 92.1"/><line class="cls-10" x1="125.5" y1="73.87" x2="125.5" y2="80.12"/><polyline class="cls-10" points="125.5 88.45 131.75 88.45 125.5 88.45"/><polyline class="cls-10" points="131.75 88.45 132.26 88.45 131.75 88.45"/><line class="cls-10" x1="36.9" y1="73.87" x2="36.9" y2="80.12"/><polyline class="cls-10" points="36.91 88.45 30.66 88.45 36.91 88.45"/><polyline class="cls-10" points="30.66 88.45 30.11 88.45 30.66 88.45"/><polyline class="cls-10" points="125.5 80.12 125.5 80.63 125.5 88.45"/><polyline class="cls-10" points="36.91 80.12 36.91 80.63 36.91 88.45"/><line class="cls-11" x1="294.88" y1="73.87" x2="206.27" y2="73.87"/><line class="cls-10" x1="301.64" y1="101.48" x2="199.5" y2="101.48"/><polyline class="cls-11" points="301.64 92.1 296.95 92.1 291.75 92.1 291.75 88.45 296.95 88.45 301.64 88.45"/><polyline class="cls-11" points="250.57 88.45 253.18 88.45 253.18 92.1 250.57 92.1"/><line class="cls-11" x1="291.75" y1="90.28" x2="253.17" y2="90.28"/><line class="cls-11" x1="291.75" y1="92.1" x2="253.17" y2="92.1"/><line class="cls-11" x1="253.17" y1="88.45" x2="291.75" y2="88.45"/><line class="cls-10" x1="296.95" y1="88.45" x2="296.95" y2="92.1"/><polyline class="cls-11" points="250.57 92.1 247.96 92.1 247.96 88.45 250.57 88.45"/><polyline class="cls-11" points="199.5 88.45 204.19 88.45 209.4 88.45 209.4 92.1 204.19 92.1 199.5 92.1"/><line class="cls-11" x1="247.96" y1="90.28" x2="209.39" y2="90.28"/><line class="cls-11" x1="247.96" y1="92.1" x2="209.39" y2="92.1"/><line class="cls-11" x1="209.39" y1="88.45" x2="247.96" y2="88.45"/><line class="cls-10" x1="204.19" y1="88.45" x2="204.19" y2="92.1"/><polyline class="cls-10" points="301.64 101.48 301.64 92.1 301.64 88.45 301.64 92.1"/><polyline class="cls-10" points="199.5 101.48 199.5 92.1 199.5 88.45 199.5 92.1"/><line class="cls-10" x1="294.88" y1="73.87" x2="294.88" y2="80.12"/><polyline class="cls-10" points="294.88 88.45 301.13 88.45 294.88 88.45"/><polyline class="cls-10" points="301.13 88.45 301.64 88.45 301.13 88.45"/><line class="cls-10" x1="206.27" y1="73.87" x2="206.27" y2="80.12"/><polyline class="cls-10" points="206.28 88.45 200 88.45 206.28 88.45"/><polyline class="cls-10" points="200 88.45 199.5 88.45 200 88.45"/><polyline class="cls-10" points="294.88 80.12 294.88 80.63 294.88 88.45"/><polyline class="cls-10" points="206.28 80.12 206.28 80.63 206.28 88.45"/><line class="cls-11" x1="491.33" y1="73.87" x2="375.64" y2="73.87"/><line class="cls-10" x1="498.11" y1="101.48" x2="368.88" y2="101.48"/><polyline class="cls-11" points="498.12 92.1 493.42 92.1 488.21 92.1 488.21 88.45 493.42 88.45 498.12 88.45"/><polyline class="cls-11" points="452.6 88.45 455.21 88.45 455.21 92.1 452.6 92.1"/><line class="cls-11" x1="488.22" y1="90.28" x2="455.22" y2="90.28"/><line class="cls-11" x1="488.22" y1="92.1" x2="455.22" y2="92.1"/><line class="cls-11" x1="455.22" y1="88.45" x2="488.22" y2="88.45"/><line class="cls-10" x1="493.42" y1="88.45" x2="493.42" y2="92.1"/><polyline class="cls-11" points="452.6 92.1 450 92.1 450 88.45 452.6 88.45"/><polyline class="cls-11" points="414.38 88.45 417 88.45 417 92.1 414.38 92.1"/><line class="cls-11" x1="450" y1="90.28" x2="417" y2="90.28"/><line class="cls-11" x1="450" y1="92.1" x2="417" y2="92.1"/><line class="cls-11" x1="417" y1="88.45" x2="450" y2="88.45"/><polyline class="cls-11" points="414.38 92.1 411.77 92.1 411.77 88.45 414.38 88.45"/><polyline class="cls-11" points="368.88 88.45 373.56 88.45 378.77 88.45 378.77 92.1 373.56 92.1 368.88 92.1"/><line class="cls-11" x1="411.77" y1="90.28" x2="378.77" y2="90.28"/><line class="cls-11" x1="411.77" y1="92.1" x2="378.77" y2="92.1"/><line class="cls-11" x1="378.77" y1="88.45" x2="411.77" y2="88.45"/><line class="cls-10" x1="373.55" y1="88.45" x2="373.55" y2="92.1"/><polyline class="cls-10" points="498.12 101.48 498.12 92.1 498.12 88.45 498.12 92.1"/><polyline class="cls-10" points="368.88 101.48 368.88 92.1 368.88 88.45 368.88 92.1"/><line class="cls-10" x1="491.33" y1="73.87" x2="491.33" y2="80.12"/><polyline class="cls-10" points="491.33 88.45 497.61 88.45 491.33 88.45"/><polyline class="cls-10" points="497.61 88.45 498.12 88.45 497.61 88.45"/><line class="cls-10" x1="375.64" y1="73.87" x2="375.64" y2="80.12"/><polyline class="cls-10" points="375.63 88.45 369.38 88.45 375.63 88.45"/><polyline class="cls-10" points="369.38 88.45 368.88 88.45 369.38 88.45"/><polyline class="cls-10" points="491.33 80.12 491.33 80.63 491.33 88.45"/><polyline class="cls-10" points="375.63 80.12 375.63 80.63 375.63 88.45"/><line class="cls-10" x1="10.84" y1="541.33" x2="43.15" y2="541.33"/><polyline class="cls-10" points="36.91 535.07 10.84 535.07 10.84 541.33"/><line class="cls-10" x1="43.15" y1="541.33" x2="43.15" y2="535.06"/><line class="cls-10" x1="43.15" y1="535.06" x2="43.15" y2="507.97"/><line class="cls-10" x1="36.9" y1="514.23" x2="36.9" y2="535.06"/><line class="cls-10" x1="43.15" y1="507.97" x2="36.9" y2="507.97"/><polyline class="cls-10" points="36.91 507.97 10.84 507.97 10.84 514.23 36.91 514.23"/><line class="cls-10" x1="512.19" y1="296.91" x2="479.86" y2="296.91"/><line class="cls-10" x1="486.14" y1="303.16" x2="512.19" y2="303.16"/><line class="cls-10" x1="479.86" y1="296.91" x2="479.86" y2="303.16"/><line class="cls-10" x1="479.86" y1="303.16" x2="479.86" y2="330.26"/><line class="cls-10" x1="486.14" y1="324.01" x2="486.14" y2="303.16"/><line class="cls-10" x1="479.86" y1="330.26" x2="486.14" y2="330.26"/><polyline class="cls-10" points="486.13 330.26 512.18 330.26 512.18 324.01 486.13 324.01"/><line class="cls-10" x1="324.57" y1="440.49" x2="298.51" y2="440.49"/><line class="cls-10" x1="292.26" y1="440.49" x2="281.85" y2="440.49"/><line class="cls-10" x1="281.85" y1="446.74" x2="330.82" y2="446.74"/><line class="cls-10" x1="330.82" y1="446.74" x2="330.82" y2="440.49"/><line class="cls-10" x1="298.51" y1="440.49" x2="298.51" y2="416.77"/><line class="cls-10" x1="292.26" y1="410.52" x2="292.26" y2="440.49"/><line class="cls-10" x1="292.26" y1="410.52" x2="298.51" y2="410.52"/><line class="cls-10" x1="298.51" y1="416.77" x2="324.57" y2="416.77"/><line class="cls-10" x1="330.82" y1="410.52" x2="298.51" y2="410.52"/><line class="cls-10" x1="330.82" y1="410.52" x2="330.82" y2="416.77"/><line class="cls-10" x1="330.82" y1="440.49" x2="330.82" y2="416.77"/><line class="cls-10" x1="324.57" y1="416.77" x2="324.57" y2="440.49"/><line class="cls-10" x1="324.57" y1="457.15" x2="324.57" y2="510.58"/><line class="cls-10" x1="334.98" y1="521" x2="334.98" y2="457.15"/><line class="cls-10" x1="334.98" y1="521" x2="324.57" y2="521"/><line class="cls-10" x1="324.57" y1="510.58" x2="303.73" y2="510.58"/><line class="cls-10" x1="314.14" y1="521" x2="324.57" y2="521"/><line class="cls-10" x1="303.73" y1="510.58" x2="303.73" y2="521"/><line class="cls-10" x1="190.11" y1="904.03" x2="190.11" y2="893.62"/><line class="cls-10" x1="314.14" y1="904.03" x2="295.39" y2="904.03"/><line class="cls-10" x1="314.14" y1="893.62" x2="295.39" y2="893.62"/><polyline class="cls-10" points="295.39 904.03 298 904.03 298 893.62 295.39 893.62"/><polyline class="cls-10" points="314.13 893.62 314.13 893.62 314.13 904.03 314.13 904.03"/><line class="cls-10" x1="314.14" y1="901.44" x2="298" y2="901.44"/><path class="cls-10" d="M314.14,904" transform="translate(0 0)"/><polyline class="cls-10" points="314.13 904.03 314.13 904.03 314.13 893.62 314.13 893.62"/><path class="cls-10" d="M295.4,904" transform="translate(0 0)"/><path class="cls-10" d="M190.12,904" transform="translate(0 0)"/><path class="cls-10" d="M245.86,904a46.91,46.91,0,0,0,46.91,46.91" transform="translate(0 0)"/><path class="cls-10" d="M219.82,930.08A26.06,26.06,0,0,0,245.88,904" transform="translate(0 0)"/><polyline class="cls-10" points="200.54 904.03 200.54 893.62 214.62 893.62 214.62 904.03 200.54 904.03"/><polyline class="cls-10" points="292.77 945.73 292.77 909.25 291.48 909.25 291.48 945.73 292.77 945.73"/><polyline class="cls-10" points="291.48 945.73 291.48 909.25 290.18 909.25 290.18 945.73 291.48 945.73"/><polyline class="cls-10" points="219.82 909.25 221.13 909.25 221.13 924.88 219.82 924.88 219.82 909.25"/><polyline class="cls-10" points="221.13 909.25 222.43 909.25 222.43 924.88 221.13 924.88 221.13 909.25"/><line class="cls-10" x1="195.33" y1="904.03" x2="190.11" y2="904.03"/><polyline class="cls-10" points="195.32 893.62 195.32 904.03 200.54 904.03 200.54 893.62 195.32 893.62 190.12 893.62 190.12 904.03"/><polyline class="cls-10" points="219.82 893.62 219.82 904.03 214.62 904.03 214.62 893.62 219.82 893.62"/><polyline class="cls-10" points="295.39 904.03 292.77 904.03 292.77 893.62 295.39 893.62"/><line class="cls-10" x1="200.55" y1="901.44" x2="214.61" y2="901.44"/><line class="cls-10" x1="214.61" y1="893.62" x2="200.55" y2="893.62"/><polyline class="cls-10" points="292.77 950.95 292.77 945.73 290.18 945.73 290.18 950.95 292.77 950.95"/><polyline class="cls-10" points="290.18 904.03 290.18 909.25 292.77 909.25 292.77 904.03 290.18 904.03"/><line class="cls-10" x1="291.48" y1="945.73" x2="291.48" y2="909.25"/><polyline class="cls-10" points="219.82 930.1 219.82 924.88 222.43 924.88 222.43 930.1 219.82 930.1"/><polyline class="cls-10" points="222.43 904.03 222.43 909.25 219.82 909.25 219.82 904.03 222.43 904.03"/><line class="cls-10" x1="221.13" y1="924.88" x2="221.13" y2="909.25"/><polyline class="cls-10" points="190.12 893.62 190.12 904.03 190.12 893.62"/><line class="cls-10" x1="303.73" y1="521" x2="303.73" y2="669.53"/><line class="cls-10" x1="303.73" y1="721.64" x2="303.73" y2="841.5"/><line class="cls-10" x1="314.14" y1="841.5" x2="314.14" y2="721.64"/><line class="cls-10" x1="314.14" y1="669.53" x2="314.14" y2="521"/><polyline class="cls-10" points="254.75 462.12 324.57 462.12 324.57 455.85 261 455.85"/><line class="cls-10" x1="254.75" y1="462.12" x2="254.75" y2="455.85"/><line class="cls-10" x1="261" y1="455.85" x2="261" y2="448.03"/><line class="cls-10" x1="254.75" y1="448.03" x2="254.75" y2="455.85"/><line class="cls-11" x1="0.41" y1="73.87" x2="0.41" y2="73.87"/><line class="cls-10" x1="512.19" y1="73.87" x2="515.46" y2="73.87"/><line class="cls-10" x1="522.59" y1="73.87" x2="522.59" y2="73.87"/><line class="cls-10" x1="298.51" y1="773.76" x2="298.51" y2="893.62"/><line class="cls-10" x1="298" y1="773.76" x2="298" y2="893.62"/><line class="cls-10" x1="303.73" y1="893.62" x2="303.73" y2="773.76"/><line class="cls-10" x1="298" y1="773.76" x2="298.51" y2="773.76"/><line class="cls-10" x1="298.51" y1="773.76" x2="303.73" y2="773.76"/><line class="cls-10" x1="314.14" y1="773.76" x2="314.14" y2="893.62"/><line class="cls-10" x1="334.98" y1="118.17" x2="351.67" y2="118.17"/><line class="cls-10" x1="345.42" y1="111.9" x2="334.98" y2="111.9"/><line class="cls-10" x1="351.67" y1="118.17" x2="351.67" y2="111.9"/><polyline class="cls-10" points="351.68 111.9 351.68 101.48 345.43 101.48 345.43 111.9"/><polyline class="cls-10" points="188.54 910.82 190.12 910.82 194.81 910.82 194.81 904.57 190.12 904.57 188.54 904.57"/><polyline class="cls-10" points="298.5 893.62 298 893.62 298 900.92 298.5 900.92"/><line class="cls-10" x1="314.14" y1="893.62" x2="303.73" y2="893.62"/><line class="cls-10" x1="303.73" y1="900.92" x2="314.14" y2="900.92"/><polyline class="cls-10" points="314.13 900.92 314.13 900.92 314.13 893.62 314.13 893.62"/><line class="cls-10" x1="2.5" y1="456.39" x2="2.5" y2="428.24"/><line class="cls-10" x1="2.5" y1="437.87" x2="2.5" y2="446.74"/><line class="cls-10" x1="455.39" y1="445.55" x2="427.23" y2="445.55"/><line class="cls-10" x1="427.23" y1="445.55" x2="427.23" y2="433.64"/><line class="cls-10" x1="455.39" y1="445.55" x2="455.39" y2="433.64"/><line class="cls-10" x1="436.86" y1="445.55" x2="445.73" y2="445.55"/><line class="cls-10" x1="438.95" y1="436" x2="440.45" y2="436"/><line class="cls-10" x1="441.32" y1="438.36" x2="441.32" y2="436.87"/><line class="cls-10" x1="442.19" y1="436" x2="443.69" y2="436"/><line class="cls-10" x1="441.32" y1="435.14" x2="441.32" y2="433.63"/><path class="cls-10" d="M448.78,438.82a12.47,12.47,0,0,0,4.87-5.93" transform="translate(0 0)"/><path class="cls-10" d="M441.3,440.59a12.5,12.5,0,0,0,7.48-1.75" transform="translate(0 0)"/><path class="cls-10" d="M429,432.88a12.53,12.53,0,0,0,4.86,5.94" transform="translate(0 0)"/><path class="cls-10" d="M433.83,438.83a12.57,12.57,0,0,0,7.47,1.82" transform="translate(0 0)"/><path class="cls-10" d="M450.84,426.54a23.12,23.12,0,0,0-8.54-2.33" transform="translate(0 0)"/><path class="cls-10" d="M429.92,427.74a7.13,7.13,0,0,0-2.67,5.89" transform="translate(0 0)"/><path class="cls-10" d="M442.31,424.2a13.35,13.35,0,0,0-2,0" transform="translate(0 0)"/><path class="cls-10" d="M433.44,438.36a51.35,51.35,0,0,0,15.75,0" transform="translate(0 0)"/><path class="cls-10" d="M428,431.79a17.72,17.72,0,0,0,4,11.51" transform="translate(0 0)"/><path class="cls-10" d="M433.25,444.1a35.14,35.14,0,0,0,8.05.87" transform="translate(0 0)"/><path class="cls-10" d="M432,443.29a2.29,2.29,0,0,0,1.3.8" transform="translate(0 0)"/><path class="cls-10" d="M433.36,443.29a58.54,58.54,0,0,0,7.94.57" transform="translate(0 0)"/><path class="cls-10" d="M428,431.79a15.88,15.88,0,0,0,4,10.73" transform="translate(0 0)"/><path class="cls-10" d="M431.93,442.5a2.36,2.36,0,0,0,1.44.77" transform="translate(0 0)"/><path class="cls-10" d="M450.67,442.53a15.84,15.84,0,0,0,4-10.72" transform="translate(0 0)"/><path class="cls-10" d="M450.65,443.31a17.64,17.64,0,0,0,4-11.5" transform="translate(0 0)"/><path class="cls-10" d="M441.28,443.86a60.18,60.18,0,0,0,7.94-.55" transform="translate(0 0)"/><path class="cls-10" d="M441.29,445a35.21,35.21,0,0,0,8.06-.85" transform="translate(0 0)"/><path class="cls-10" d="M449.22,443.29a2.36,2.36,0,0,0,1.44-.77" transform="translate(0 0)"/><path class="cls-10" d="M449.34,444.11a2.29,2.29,0,0,0,1.3-.8" transform="translate(0 0)"/><path class="cls-10" d="M455.38,433.65a7.12,7.12,0,0,0-2.67-5.88" transform="translate(0 0)"/><path class="cls-10" d="M452.71,427.74a11.49,11.49,0,0,0-1.87-1.21" transform="translate(0 0)"/><path class="cls-10" d="M431.78,426.53a10.86,10.86,0,0,0-1.87,1.21" transform="translate(0 0)"/><path class="cls-10" d="M440.33,424.2a23.12,23.12,0,0,0-8.54,2.33" transform="translate(0 0)"/><path class="cls-10" d="M445.17,426.19a16.6,16.6,0,0,0-7.74,0" transform="translate(0 0)"/><path class="cls-10" d="M453.64,432.91a4.24,4.24,0,0,0-1.45-3.48" transform="translate(0 0)"/><path class="cls-10" d="M452.19,429.43a15.34,15.34,0,0,0-7-3.22" transform="translate(0 0)"/><path class="cls-10" d="M430.42,429.41a4.24,4.24,0,0,0-1.45,3.48" transform="translate(0 0)"/><path class="cls-10" d="M437.45,426.21a15.32,15.32,0,0,0-7,3.21" transform="translate(0 0)"/><path class="cls-10" d="M439.49,436a1.83,1.83,0,1,0,1.84-1.82h0a1.83,1.83,0,0,0-1.83,1.82" transform="translate(0 0)"/><path class="cls-10" d="M440,436a1.31,1.31,0,1,0,1.31-1.31h0A1.31,1.31,0,0,0,440,436" transform="translate(0 0)"/><line class="cls-10" x1="504.17" y1="378.99" x2="485.77" y2="378.99"/><line class="cls-10" x1="512.19" y1="378.2" x2="512.19" y2="398"/><line class="cls-10" x1="512.19" y1="378.2" x2="505.29" y2="378.2"/><line class="cls-10" x1="500.95" y1="388.1" x2="500.95" y2="395.46"/><line class="cls-10" x1="485.79" y1="378.99" x2="500.95" y2="380.77"/><line class="cls-10" x1="500.95" y1="388.1" x2="500.95" y2="380.77"/><line class="cls-10" x1="485.79" y1="397.22" x2="500.95" y2="395.46"/><line class="cls-10" x1="485.79" y1="379.47" x2="500.95" y2="381.22"/><line class="cls-10" x1="485.79" y1="396.76" x2="500.95" y2="394.98"/><line class="cls-10" x1="504.17" y1="397.22" x2="485.77" y2="397.22"/><line class="cls-10" x1="512.19" y1="398" x2="505.29" y2="398"/><line class="cls-10" x1="485.79" y1="378.99" x2="483.76" y2="379.26"/><line class="cls-10" x1="483.76" y1="379.26" x2="481.83" y2="380.02"/><line class="cls-10" x1="481.83" y1="380.02" x2="480.14" y2="381.28"/><line class="cls-10" x1="480.14" y1="381.28" x2="478.77" y2="382.92"/><line class="cls-10" x1="478.77" y1="382.92" x2="477.82" y2="384.87"/><line class="cls-10" x1="477.82" y1="384.87" x2="477.32" y2="387.01"/><line class="cls-10" x1="477.32" y1="387.01" x2="477.32" y2="389.21"/><line class="cls-10" x1="477.32" y1="389.21" x2="477.82" y2="391.35"/><line class="cls-10" x1="477.82" y1="391.35" x2="478.77" y2="393.3"/><line class="cls-10" x1="478.77" y1="393.3" x2="480.14" y2="394.95"/><line class="cls-10" x1="480.14" y1="394.95" x2="481.83" y2="396.19"/><line class="cls-10" x1="481.83" y1="396.19" x2="483.76" y2="396.97"/><line class="cls-10" x1="483.76" y1="396.97" x2="485.79" y2="397.22"/><line class="cls-10" x1="485.79" y1="379.47" x2="483.86" y2="379.71"/><line class="cls-10" x1="483.86" y1="379.71" x2="482.04" y2="380.44"/><line class="cls-10" x1="482.04" y1="380.44" x2="480.45" y2="381.63"/><line class="cls-10" x1="480.45" y1="381.63" x2="479.16" y2="383.19"/><line class="cls-10" x1="479.16" y1="383.19" x2="478.26" y2="385.05"/><line class="cls-10" x1="478.26" y1="385.05" x2="477.8" y2="387.07"/><line class="cls-10" x1="477.8" y1="387.07" x2="477.8" y2="389.15"/><line class="cls-10" x1="477.8" y1="389.15" x2="478.26" y2="391.18"/><line class="cls-10" x1="478.26" y1="391.18" x2="479.16" y2="393.02"/><line class="cls-10" x1="479.16" y1="393.02" x2="480.45" y2="394.58"/><line class="cls-10" x1="480.45" y1="394.58" x2="482.04" y2="395.77"/><line class="cls-10" x1="482.04" y1="395.77" x2="483.86" y2="396.51"/><line class="cls-10" x1="483.86" y1="396.51" x2="485.79" y2="396.76"/><path class="cls-10" d="M504.12,379.21a83.59,83.59,0,0,0,0,17.75" transform="translate(0 0)"/><path class="cls-10" d="M505.28,378.18a1.16,1.16,0,0,0-1.15,1" transform="translate(0 0)"/><path class="cls-10" d="M504.13,397a1.16,1.16,0,0,0,1.15,1" transform="translate(0 0)"/><path class="cls-10" d="M506.86,388.09a1,1,0,1,0,1-1,1,1,0,0,0-1,1" transform="translate(0 0)"/><line class="cls-12" x1="311.29" y1="43.9" x2="311.29" y2="72.57"/><polyline class="cls-12" points="311.3 42.6 311.3 43.9 309.98 43.9 309.98 72.57 311.3 72.57"/><polyline class="cls-12" points="309.98 43.9 309.98 42.6 311.3 42.6"/><polyline class="cls-12" points="311.3 72.57 311.3 73.87 309.98 73.87 309.98 72.57"/><line class="cls-12" x1="311.29" y1="42.6" x2="311.29" y2="47.93"/><line class="cls-12" x1="311.29" y1="51.32" x2="311.29" y2="56.53"/><line class="cls-12" x1="311.29" y1="59.92" x2="311.29" y2="65.13"/><line class="cls-12" x1="311.29" y1="68.52" x2="311.29" y2="73.87"/><line class="cls-12" x1="309.98" y1="42.6" x2="309.98" y2="47.93"/><line class="cls-12" x1="309.98" y1="51.32" x2="309.98" y2="56.53"/><line class="cls-12" x1="309.98" y1="59.92" x2="309.98" y2="65.13"/><line class="cls-12" x1="309.98" y1="68.52" x2="309.98" y2="73.87"/><line class="cls-12" x1="309.98" y1="42.6" x2="311.29" y2="42.6"/><line class="cls-12" x1="311.29" y1="73.87" x2="309.98" y2="73.87"/><polyline class="cls-12" points="309.98 72.57 311.3 72.57 311.3 73.87 311.3 72.57 309.98 72.57 309.98 73.87 311.3 73.87 309.98 73.87 309.98 72.57"/><polyline class="cls-12" points="310.75 68.52 310.75 72.57 310.75 43.9 310.5 43.9 310.5 72.57 310.75 72.57"/><line class="cls-12" x1="310.76" y1="65.13" x2="310.76" y2="59.92"/><line class="cls-12" x1="310.76" y1="56.53" x2="310.76" y2="51.32"/><line class="cls-12" x1="310.76" y1="47.93" x2="310.76" y2="43.9"/><line class="cls-12" x1="310.51" y1="72.57" x2="310.51" y2="68.52"/><line class="cls-12" x1="310.51" y1="65.13" x2="310.51" y2="59.92"/><line class="cls-12" x1="310.51" y1="56.53" x2="310.51" y2="51.32"/><polyline class="cls-12" points="310.5 47.93 310.5 43.9 310.75 43.9"/><line class="cls-12" x1="310.51" y1="72.57" x2="310.76" y2="72.57"/><polyline class="cls-12" points="360 72.57 359.75 72.57 359.75 43.9 360 43.9 360 72.57"/><line class="cls-12" x1="359.76" y1="72.57" x2="359.76" y2="68.52"/><line class="cls-12" x1="359.76" y1="65.13" x2="359.76" y2="59.92"/><line class="cls-12" x1="359.76" y1="56.53" x2="359.76" y2="51.32"/><line class="cls-12" x1="359.76" y1="47.93" x2="359.76" y2="43.9"/><line class="cls-12" x1="360.01" y1="72.57" x2="360.01" y2="68.52"/><line class="cls-12" x1="360.01" y1="65.13" x2="360.01" y2="59.92"/><line class="cls-12" x1="360.01" y1="56.53" x2="360.01" y2="51.32"/><line class="cls-12" x1="360.01" y1="47.93" x2="360.01" y2="43.9"/><line class="cls-12" x1="360.01" y1="72.57" x2="359.76" y2="72.57"/><line class="cls-12" x1="360.01" y1="43.9" x2="359.76" y2="43.9"/><polyline class="cls-12" points="360.55 43.9 360.55 42.6 359.23 42.6 359.23 43.9"/><line class="cls-12" x1="360.54" y1="73.87" x2="360.54" y2="72.57"/><line class="cls-12" x1="359.23" y1="43.9" x2="359.23" y2="72.57"/><line class="cls-12" x1="360.54" y1="43.9" x2="360.54" y2="72.57"/><line class="cls-12" x1="359.23" y1="73.87" x2="360.54" y2="73.87"/><line class="cls-12" x1="359.23" y1="43.9" x2="360.54" y2="43.9"/><polyline class="cls-12" points="360.55 72.57 359.23 72.57 359.23 73.87"/><line class="cls-12" x1="359.23" y1="42.6" x2="359.23" y2="47.93"/><line class="cls-12" x1="359.23" y1="51.32" x2="359.23" y2="56.53"/><line class="cls-12" x1="359.23" y1="59.92" x2="359.23" y2="65.13"/><line class="cls-12" x1="359.23" y1="68.52" x2="359.23" y2="73.87"/><line class="cls-12" x1="360.54" y1="42.6" x2="360.54" y2="47.93"/><line class="cls-12" x1="360.54" y1="51.32" x2="360.54" y2="56.53"/><line class="cls-12" x1="360.54" y1="59.92" x2="360.54" y2="65.13"/><line class="cls-12" x1="360.54" y1="68.52" x2="360.54" y2="73.87"/><line class="cls-12" x1="360.54" y1="42.6" x2="359.23" y2="42.6"/><polyline class="cls-12" points="360.55 73.87 360.55 72.57 359.23 72.57 359.23 73.87 360.55 73.87 359.23 73.87 359.23 72.57 360.55 72.57 360.55 73.87 359.23 73.87"/><line class="cls-12" x1="359.23" y1="43.9" x2="311.29" y2="43.9"/><polyline class="cls-12" points="360.55 43.9 359.23 43.9 359.23 42.6 311.3 42.6 311.3 43.9"/><polyline class="cls-12" points="359.23 42.6 360.55 42.6 360.55 43.9"/><polyline class="cls-12" points="311.3 43.9 309.98 43.9 309.98 42.6 311.3 42.6"/><polyline class="cls-12" points="360.55 43.9 359.23 43.9 359.23 42.6 360.55 42.6 360.55 43.9"/><polyline class="cls-12" points="354.13 43.9 360.55 43.9 359.23 43.9 359.23 42.6 360.55 42.6 360.55 43.9"/><line class="cls-12" x1="350.76" y1="43.9" x2="345.55" y2="43.9"/><line class="cls-12" x1="342.16" y1="43.9" x2="336.95" y2="43.9"/><line class="cls-12" x1="333.55" y1="43.9" x2="328.35" y2="43.9"/><line class="cls-12" x1="324.95" y1="43.9" x2="319.76" y2="43.9"/><line class="cls-12" x1="316.35" y1="43.9" x2="309.98" y2="43.9"/><line class="cls-12" x1="360.54" y1="42.6" x2="354.14" y2="42.6"/><line class="cls-12" x1="350.76" y1="42.6" x2="345.55" y2="42.6"/><line class="cls-12" x1="342.16" y1="42.6" x2="336.95" y2="42.6"/><line class="cls-12" x1="333.55" y1="42.6" x2="328.35" y2="42.6"/><line class="cls-12" x1="324.95" y1="42.6" x2="319.76" y2="42.6"/><line class="cls-12" x1="316.35" y1="42.6" x2="309.98" y2="42.6"/><line class="cls-12" x1="360.54" y1="42.6" x2="360.54" y2="43.9"/><polyline class="cls-12" points="311.3 43.9 309.98 43.9 309.98 42.6 309.98 43.9"/><polyline class="cls-12" points="311.3 43.9 311.3 42.6 309.98 42.6 309.98 43.9 311.3 43.9 311.3 42.6 309.98 42.6"/><polyline class="cls-12" points="359.23 43.9 359.23 42.6 357.93 42.6 357.93 43.9 359.23 43.9 357.93 43.9 357.93 42.6 359.23 42.6 359.23 43.9 359.23 42.6"/><line class="cls-12" x1="311.29" y1="43.9" x2="316.35" y2="43.9"/><line class="cls-12" x1="319.76" y1="43.9" x2="324.95" y2="43.9"/><line class="cls-12" x1="328.35" y1="43.9" x2="333.55" y2="43.9"/><line class="cls-12" x1="336.95" y1="43.9" x2="342.16" y2="43.9"/><line class="cls-12" x1="345.55" y1="43.9" x2="350.76" y2="43.9"/><line class="cls-12" x1="354.14" y1="43.9" x2="359.23" y2="43.9"/><line class="cls-12" x1="311.29" y1="42.6" x2="316.35" y2="42.6"/><line class="cls-12" x1="319.76" y1="42.6" x2="324.95" y2="42.6"/><line class="cls-12" x1="328.35" y1="42.6" x2="333.55" y2="42.6"/><line class="cls-12" x1="336.95" y1="42.6" x2="342.16" y2="42.6"/><line class="cls-12" x1="345.55" y1="42.6" x2="350.76" y2="42.6"/><line class="cls-12" x1="354.14" y1="42.6" x2="359.23" y2="42.6"/><polyline class="cls-12" points="312.6 42.6 311.3 42.6 311.3 43.9 311.3 42.6"/><polyline class="cls-12" points="311.3 43.9 311.3 42.6 312.6 42.6 312.6 43.9 311.3 43.9 312.6 43.9 312.6 42.6"/><polyline class="cls-12" points="312.6 43.9 357.93 43.9 359.23 43.9 359.23 42.6 357.93 42.6 312.6 42.6"/><line class="cls-12" x1="357.92" y1="42.6" x2="357.92" y2="43.9"/><polyline class="cls-12" points="312.6 42.6 312.6 43.9 311.3 43.9 311.3 42.6 312.6 42.6"/><polyline class="cls-12" points="357.93 43.37 357.93 43.12 312.6 43.12 312.6 43.37 357.93 43.37"/><line class="cls-12" x1="312.6" y1="43.37" x2="316.35" y2="43.37"/><line class="cls-12" x1="319.76" y1="43.37" x2="324.95" y2="43.37"/><line class="cls-12" x1="328.35" y1="43.37" x2="333.55" y2="43.37"/><line class="cls-12" x1="336.95" y1="43.37" x2="342.16" y2="43.37"/><line class="cls-12" x1="345.55" y1="43.37" x2="350.76" y2="43.37"/><line class="cls-12" x1="354.14" y1="43.37" x2="357.92" y2="43.37"/><line class="cls-12" x1="312.6" y1="43.12" x2="316.35" y2="43.12"/><line class="cls-12" x1="319.76" y1="43.12" x2="324.95" y2="43.12"/><line class="cls-12" x1="328.35" y1="43.12" x2="333.55" y2="43.12"/><line class="cls-12" x1="336.95" y1="43.12" x2="342.16" y2="43.12"/><line class="cls-12" x1="345.55" y1="43.12" x2="350.76" y2="43.12"/><polyline class="cls-12" points="354.13 43.12 357.93 43.12 357.93 43.37"/><line class="cls-12" x1="312.6" y1="43.12" x2="312.6" y2="43.37"/><line class="cls-12" x1="326.86" y1="43.9" x2="324.79" y2="43.9"/><line class="cls-12" x1="323.48" y1="42.58" x2="321.42" y2="42.58"/><line class="cls-12" x1="326.86" y1="42.58" x2="324.79" y2="42.58"/><line class="cls-12" x1="328.51" y1="43.9" x2="328.17" y2="43.9"/><line class="cls-12" x1="328.51" y1="42.58" x2="328.17" y2="42.58"/><line class="cls-12" x1="313.35" y1="43.9" x2="311.29" y2="43.9"/><line class="cls-12" x1="313.35" y1="42.58" x2="311.29" y2="42.58"/><line class="cls-12" x1="316.73" y1="42.58" x2="314.66" y2="42.58"/><line class="cls-12" x1="316.73" y1="43.9" x2="314.66" y2="43.9"/><line class="cls-12" x1="320.13" y1="43.9" x2="318.04" y2="43.9"/><line class="cls-12" x1="323.48" y1="43.9" x2="321.42" y2="43.9"/><line class="cls-12" x1="320.13" y1="42.58" x2="318.04" y2="42.58"/><line class="cls-12" x1="359.23" y1="43.9" x2="357.16" y2="43.9"/><polyline class="cls-12" points="359.23 42.58 357.15 42.58 355.19 42.58"/><line class="cls-12" x1="353.89" y1="43.9" x2="351.8" y2="43.9"/><line class="cls-12" x1="357.16" y1="43.9" x2="355.19" y2="43.9"/><line class="cls-12" x1="350.51" y1="42.58" x2="348.42" y2="42.58"/><line class="cls-12" x1="353.89" y1="42.58" x2="351.8" y2="42.58"/><line class="cls-12" x1="347.13" y1="43.9" x2="345.05" y2="43.9"/><line class="cls-12" x1="350.51" y1="43.9" x2="348.42" y2="43.9"/><line class="cls-12" x1="343.76" y1="42.58" x2="341.67" y2="42.58"/><line class="cls-12" x1="347.13" y1="42.58" x2="345.05" y2="42.58"/><line class="cls-12" x1="340.38" y1="43.9" x2="338.29" y2="43.9"/><line class="cls-12" x1="343.76" y1="43.9" x2="341.67" y2="43.9"/><line class="cls-12" x1="337" y1="42.58" x2="334.92" y2="42.58"/><line class="cls-12" x1="340.38" y1="42.58" x2="338.29" y2="42.58"/><line class="cls-12" x1="333.64" y1="43.9" x2="331.54" y2="43.9"/><line class="cls-12" x1="337" y1="43.9" x2="334.92" y2="43.9"/><line class="cls-12" x1="333.64" y1="42.58" x2="331.54" y2="42.58"/><line class="cls-12" x1="326.86" y1="43.9" x2="324.79" y2="43.9"/><line class="cls-12" x1="330.25" y1="43.9" x2="328.17" y2="43.9"/><line class="cls-12" x1="326.86" y1="42.58" x2="324.79" y2="42.58"/><line class="cls-12" x1="330.25" y1="42.58" x2="328.17" y2="42.58"/><line class="cls-12" x1="320.13" y1="43.9" x2="318.04" y2="43.9"/><line class="cls-12" x1="323.48" y1="43.9" x2="321.42" y2="43.9"/><line class="cls-12" x1="320.13" y1="42.58" x2="318.04" y2="42.58"/><line class="cls-12" x1="323.48" y1="42.58" x2="321.42" y2="42.58"/><line class="cls-12" x1="313.35" y1="43.9" x2="311.29" y2="43.9"/><line class="cls-12" x1="316.73" y1="43.9" x2="314.66" y2="43.9"/><line class="cls-12" x1="313.35" y1="42.58" x2="311.29" y2="42.58"/><line class="cls-12" x1="316.73" y1="42.58" x2="314.66" y2="42.58"/><polyline class="cls-12" points="357.93 51.97 312.6 51.97 312.6 68.65 357.93 68.65 357.93 51.97"/><polyline class="cls-12" points="357.93 53.65 312.6 53.65 312.6 68.65 357.93 68.65 357.93 53.65"/><line class="cls-10" x1="214.61" y1="904.03" x2="219.83" y2="904.03"/><line class="cls-10" x1="214.61" y1="773.76" x2="219.83" y2="773.76"/><line class="cls-10" x1="214.61" y1="773.76" x2="214.61" y2="904.03"/><line class="cls-10" x1="219.83" y1="773.76" x2="219.83" y2="904.03"/><line class="cls-10" x1="214.61" y1="773.76" x2="214.61" y2="776.36"/><line class="cls-10" x1="214.61" y1="776.36" x2="219.83" y2="776.36"/><line class="cls-10" x1="219.83" y1="776.36" x2="219.83" y2="773.76"/><line class="cls-10" x1="219.83" y1="834.99" x2="219.83" y2="833.17"/><line class="cls-10" x1="219.83" y1="833.17" x2="214.61" y2="833.17"/><line class="cls-10" x1="214.61" y1="833.17" x2="214.61" y2="834.99"/><line class="cls-10" x1="217.21" y1="776.36" x2="217.21" y2="833.17"/><line class="cls-10" x1="214.61" y1="776.36" x2="214.61" y2="833.17"/><line class="cls-10" x1="219.83" y1="833.17" x2="219.83" y2="776.36"/><line class="cls-10" x1="214.61" y1="834.99" x2="214.61" y2="836.8"/><line class="cls-10" x1="214.61" y1="836.8" x2="219.83" y2="836.8"/><line class="cls-10" x1="219.83" y1="836.8" x2="219.83" y2="834.99"/><line class="cls-10" x1="219.83" y1="904.03" x2="219.83" y2="893.62"/><line class="cls-10" x1="219.83" y1="893.62" x2="214.61" y2="893.62"/><line class="cls-10" x1="214.61" y1="893.62" x2="214.61" y2="904.03"/><line class="cls-10" x1="217.21" y1="836.8" x2="217.21" y2="893.62"/><line class="cls-10" x1="214.61" y1="836.8" x2="214.61" y2="893.62"/><line class="cls-10" x1="219.83" y1="893.62" x2="219.83" y2="836.8"/><line class="cls-10" x1="214.61" y1="773.76" x2="219.83" y2="773.76"/><line class="cls-10" x1="214.61" y1="773.76" x2="219.83" y2="773.76"/><line class="cls-10" x1="214.61" y1="904.03" x2="219.83" y2="904.03"/><line class="cls-10" x1="214.61" y1="904.03" x2="219.83" y2="904.03"/><polyline class="cls-11" points="0.41 73.87 0.41 96.26 10.84 96.26 10.84 73.87"/><polyline class="cls-10" points="168.22 893.62 157.81 893.62 157.81 841.5 168.22 841.5 168.22 893.62"/><polyline class="cls-10" points="168.22 721.64 157.81 721.64 157.81 669.53 168.22 669.53 168.22 721.64"/><polyline class="cls-10" points="163.01 143.18 173.44 143.18 173.44 91.07 163.01 91.07 163.01 143.18"/><polyline class="cls-10" points="173.44 263.04 163.01 263.04 163.01 315.16 173.44 315.16 173.44 263.04"/><polyline class="cls-10" points="324.57 143.18 334.99 143.18 334.99 91.07 324.57 91.07 324.57 143.18"/><polyline class="cls-10" points="334.99 263.04 324.57 263.04 324.57 315.16 334.99 315.16 334.99 263.04"/><polyline class="cls-10" points="512.18 143.18 522.6 143.18 522.6 91.07 512.18 91.07 512.18 143.18"/><polyline class="cls-10" points="522.6 252.61 512.18 252.61 512.18 315.16 522.6 315.16 522.6 252.61"/><line class="cls-10" x1="303.73" y1="893.62" x2="314.14" y2="893.62"/><line class="cls-10" x1="314.14" y1="841.5" x2="303.73" y2="841.5"/><polyline class="cls-10" points="315.45 721.64 302.43 721.64 302.43 669.53 315.45 669.53 315.45 721.64"/><polyline class="cls-10" points="157.81 545.5 157.81 535.07 209.93 535.07 209.93 545.5 157.81 545.5"/><polyline class="cls-10" points="460.06 457.15 460.06 444.14 522.6 444.14 522.6 457.15 460.06 457.15"/><polyline class="cls-10" points="219.29 448.04 219.29 437.62 281.85 437.62 281.85 448.04 219.29 448.04"/><polyline class="cls-10" points="2.5 841.5 2.5 883.18 2.5 893.62 10.84 893.62 10.84 883.18 10.84 841.5"/><polyline class="cls-10" points="10.84 143.18 10.84 101.48 10.84 91.07 2.5 91.07 2.5 101.48 2.5 143.18"/></g></svg>