<svg id="_94" data-name="94" xmlns="http://www.w3.org/2000/svg" viewBox="0 0 895.26 834.24"><defs><style>.cls-1{isolation:isolate;font-size:12px;fill:#969696;}.cls-1,.cls-3,.cls-5{font-family:PTSans-Regular, PT Sans;}.cls-2,.cls-4,.cls-6,.cls-7{fill:none;stroke-linecap:round;stroke-linejoin:round;}.cls-2{stroke:#969696;stroke-width:0.75px;}.cls-3{font-size:40px;}.cls-4,.cls-6,.cls-7{stroke:#000;}.cls-4{stroke-width:0.5px;}.cls-5{font-size:36px;}.cls-6{stroke-width:0.25px;stroke-dasharray:1 1;}</style></defs><title>12floor_94flat</title><text class="cls-1" transform="translate(439.49 10.2)">двор</text><line class="cls-2" x1="428.73" y1="4.22" x2="428.73" y2="13.02"/><polyline class="cls-2" points="432.23 7.72 428.73 4.22 425.23 7.72"/><text class="cls-3" transform="translate(425.87 429.95)">2K</text><text class="cls-3" transform="translate(401.09 480.12)">51.92</text><text class="cls-3" transform="translate(406.71 380.04)">№94</text><polyline class="cls-4" points="386.8 490.94 386.8 341.86 511.13 341.86 511.13 490.94"/><line class="cls-4" x1="386.8" y1="391.65" x2="511.13" y2="391.65"/><line class="cls-4" x1="386.8" y1="490.94" x2="511.13" y2="490.94"/><line class="cls-4" x1="386.8" y1="441.43" x2="511.13" y2="441.43"/><text class="cls-5" transform="translate(120.92 718.79)">3.49</text><text class="cls-5" transform="translate(697.4 718.79)">2.37</text><text class="cls-5" transform="translate(418.97 718.79)">9.27</text><text class="cls-5" transform="translate(136.97 257.9)">11.07</text><text class="cls-5" transform="translate(409.16 257.9)">11.97</text><text class="cls-5" transform="translate(700.77 257.9)">12.83</text><text class="cls-5" transform="translate(104.69 123.27)">0.92</text><line class="cls-6" x1="335.9" y1="607.65" x2="419.15" y2="607.65"/><line class="cls-6" x1="335.9" y1="599.93" x2="419.15" y2="599.93"/><line class="cls-6" x1="598.64" y1="607.65" x2="681.89" y2="607.65"/><line class="cls-6" x1="598.64" y1="599.93" x2="681.89" y2="599.93"/><line class="cls-6" x1="227.14" y1="607.65" x2="310.39" y2="607.65"/><line class="cls-6" x1="227.14" y1="599.93" x2="310.39" y2="599.93"/><line class="cls-6" x1="225.82" y1="735.53" x2="225.82" y2="652.28"/><line class="cls-6" x1="218.1" y1="735.53" x2="218.1" y2="652.28"/><line class="cls-6" x1="689.1" y1="739.49" x2="689.1" y2="656.24"/><line class="cls-6" x1="681.38" y1="739.49" x2="681.38" y2="656.24"/><line class="cls-6" x1="515.93" y1="833.59" x2="606.02" y2="833.59"/><line class="cls-7" x1="256.52" y1="193.6" x2="894.76" y2="193.6"/><polyline class="cls-7" points="894.76 159.73 256.52 159.73 256.52 160.73 256.52 170.09 256.52 193.6"/><line class="cls-7" x1="0.5" y1="193.6" x2="96.53" y2="193.6"/><polyline class="cls-7" points="0.5 159.73 96.53 159.73 96.53 160.73 96.53 170.09 96.53 193.6"/><line class="cls-7" x1="320.57" y1="160.73" x2="257.51" y2="160.73"/><line class="cls-7" x1="95.63" y1="160.73" x2="0.5" y2="160.73"/><line class="cls-7" x1="256.52" y1="160.73" x2="256.52" y2="170.09"/><line class="cls-7" x1="96.53" y1="160.73" x2="96.53" y2="170.09"/><line class="cls-7" x1="256.52" y1="159.73" x2="256.52" y2="160.73"/><line class="cls-7" x1="96.53" y1="159.73" x2="96.53" y2="160.73"/><line class="cls-7" x1="92.75" y1="170.09" x2="95.63" y2="170.09"/><line class="cls-7" x1="257.51" y1="160.73" x2="257.51" y2="170.09"/><line class="cls-7" x1="257.51" y1="159.73" x2="256.52" y2="159.73"/><line class="cls-7" x1="95.63" y1="160.73" x2="95.63" y2="170.09"/><line class="cls-7" x1="95.63" y1="159.73" x2="96.53" y2="159.73"/><polyline class="cls-7" points="260.3 170.09 260.3 175.77 260.3 193.6"/><polyline class="cls-7" points="92.75 170.09 92.75 175.77 92.75 193.6"/><line class="cls-7" x1="0.5" y1="193.6" x2="38.16" y2="193.6"/><line class="cls-7" x1="56.98" y1="193.6" x2="92.75" y2="193.6"/><line class="cls-7" x1="260.3" y1="193.6" x2="311.21" y2="193.6"/><line class="cls-7" x1="320.57" y1="159.73" x2="257.51" y2="159.73"/><line class="cls-7" x1="95.63" y1="159.73" x2="0.5" y2="159.73"/><line class="cls-7" x1="96.53" y1="159.73" x2="256.52" y2="159.73"/><line class="cls-7" x1="92.75" y1="193.6" x2="260.3" y2="193.6"/><polyline class="cls-7" points="92.75 175.77 100.32 175.77 100.32 170.09 92.75 170.09"/><polyline class="cls-7" points="173.24 170.09 169.95 170.09 169.95 175.77 173.24 175.77"/><line class="cls-7" x1="100.32" y1="172.98" x2="169.95" y2="172.98"/><line class="cls-7" x1="100.32" y1="175.77" x2="169.95" y2="175.77"/><line class="cls-7" x1="169.95" y1="170.09" x2="100.32" y2="170.09"/><polyline class="cls-7" points="173.24 175.77 174.23 175.77 174.23 171.99 176.52 171.99 176.52 170.09 173.24 170.09"/><polyline class="cls-7" points="260.3 170.09 252.83 170.09 252.83 171.99 255.12 171.99 255.12 175.77 260.3 175.77"/><line class="cls-7" x1="255.12" y1="177.66" x2="185.09" y2="218.11"/><line class="cls-7" x1="252.83" y1="170.09" x2="176.52" y2="170.09"/><polyline class="cls-7" points="174.23 177.66 179.81 177.66 249.54 177.66"/><polyline class="cls-7" points="179.81 177.66 179.81 171.99 174.23 171.99 174.23 177.66"/><polyline class="cls-7" points="255.12 171.99 249.54 171.99 249.54 177.66 255.12 177.66 255.12 171.99"/><line class="cls-7" x1="249.54" y1="171.99" x2="179.81" y2="171.99"/><line class="cls-7" x1="179.81" y1="177.66" x2="249.54" y2="177.66"/><line class="cls-7" x1="179.81" y1="174.77" x2="249.54" y2="174.77"/><path class="cls-7" d="M174.23,206a81,81,0,0,0,10.84,40.47" transform="translate(0 -28.34)"/><polyline class="cls-7" points="92.75 193.6 92.75 175.77 92.75 170.09 92.75 175.77"/><polyline class="cls-7" points="260.3 193.6 260.3 175.77 260.3 170.09 260.3 175.77"/><polyline class="cls-7" points="95.63 170.09 92.75 170.09 95.63 170.09"/><polyline class="cls-7" points="260.3 170.09 257.51 170.09 260.3 170.09"/><line class="cls-7" x1="96.53" y1="159.73" x2="96.53" y2="160.73"/><polyline class="cls-7" points="96.53 170.09 95.63 170.09 96.53 170.09"/><line class="cls-7" x1="256.52" y1="159.73" x2="256.52" y2="160.73"/><polyline class="cls-7" points="256.52 170.09 257.51 170.09 256.52 170.09"/><line class="cls-7" x1="96.53" y1="160.73" x2="96.53" y2="170.09"/><line class="cls-7" x1="256.52" y1="160.73" x2="256.52" y2="170.09"/><line class="cls-7" x1="362.01" y1="160.73" x2="320.57" y2="160.73"/><line class="cls-7" x1="894.76" y1="160.73" x2="835.49" y2="160.73"/><line class="cls-7" x1="667.93" y1="160.73" x2="529.57" y2="160.73"/><line class="cls-7" x1="525.78" y1="160.73" x2="525.78" y2="170.09"/><line class="cls-7" x1="365.8" y1="160.73" x2="365.8" y2="170.09"/><line class="cls-7" x1="525.78" y1="159.73" x2="525.78" y2="160.73"/><line class="cls-7" x1="365.8" y1="159.73" x2="365.8" y2="160.73"/><line class="cls-7" x1="529.57" y1="170.09" x2="529.57" y2="170.09"/><polyline class="cls-7" points="529.57 160.73 526.68 160.73 526.68 170.09 526.68 160.73"/><line class="cls-7" x1="526.68" y1="159.73" x2="525.78" y2="159.73"/><line class="cls-7" x1="362.01" y1="170.09" x2="362.01" y2="170.09"/><polyline class="cls-7" points="362.01 160.73 364.8 160.73 364.8 170.09 364.8 160.73"/><line class="cls-7" x1="364.8" y1="159.73" x2="365.8" y2="159.73"/><polyline class="cls-7" points="529.57 170.09 529.57 175.77 529.57 193.6"/><polyline class="cls-7" points="362.01 170.09 362.01 175.77 362.01 193.6"/><line class="cls-7" x1="831.71" y1="160.73" x2="831.71" y2="170.09"/><line class="cls-7" x1="671.72" y1="160.73" x2="671.72" y2="170.09"/><line class="cls-7" x1="831.71" y1="159.73" x2="831.71" y2="160.73"/><line class="cls-7" x1="671.72" y1="159.73" x2="671.72" y2="160.73"/><line class="cls-7" x1="835.49" y1="170.09" x2="835.49" y2="170.09"/><polyline class="cls-7" points="835.49 160.73 832.6 160.73 832.6 170.09 832.6 160.73"/><line class="cls-7" x1="832.6" y1="159.73" x2="831.71" y2="159.73"/><line class="cls-7" x1="667.93" y1="170.09" x2="667.93" y2="170.09"/><polyline class="cls-7" points="667.93 160.73 670.72 160.73 670.72 170.09 670.72 160.73"/><line class="cls-7" x1="670.72" y1="159.73" x2="671.72" y2="159.73"/><polyline class="cls-7" points="835.49 170.09 835.49 175.77 835.49 193.6"/><polyline class="cls-7" points="667.93 170.09 667.93 175.77 667.93 193.6"/><line class="cls-7" x1="329.93" y1="193.6" x2="362.01" y2="193.6"/><line class="cls-7" x1="529.57" y1="193.6" x2="584.16" y2="193.6"/><line class="cls-7" x1="602.98" y1="193.6" x2="667.93" y2="193.6"/><line class="cls-7" x1="835.49" y1="193.6" x2="875.94" y2="193.6"/><polyline class="cls-7" points="832.6 159.73 894.76 159.73 894.76 207.36"/><line class="cls-7" x1="670.72" y1="159.73" x2="526.68" y2="159.73"/><line class="cls-7" x1="364.8" y1="159.73" x2="320.57" y2="159.73"/><line class="cls-7" x1="365.8" y1="159.73" x2="525.78" y2="159.73"/><line class="cls-7" x1="362.01" y1="193.6" x2="529.57" y2="193.6"/><polyline class="cls-7" points="362.01 175.77 367.19 175.77 367.19 171.99 369.48 171.99 369.48 170.09 362.01 170.09"/><polyline class="cls-7" points="445.79 170.09 442 170.09 442 171.99 444.39 171.99 444.39 175.77 445.79 175.77"/><line class="cls-7" x1="442" y1="170.09" x2="369.48" y2="170.09"/><polyline class="cls-7" points="367.19 177.66 372.77 177.66 438.72 177.66"/><polyline class="cls-7" points="372.77 177.66 372.77 171.99 367.19 171.99 367.19 177.66"/><polyline class="cls-7" points="444.39 171.99 438.72 171.99 438.72 177.66 444.39 177.66 444.39 171.99"/><line class="cls-7" x1="438.72" y1="171.99" x2="372.77" y2="171.99"/><line class="cls-7" x1="372.77" y1="177.66" x2="438.72" y2="177.66"/><line class="cls-7" x1="372.77" y1="174.77" x2="438.72" y2="174.77"/><polyline class="cls-7" points="445.79 175.77 447.18 175.77 447.18 171.99 449.57 171.99 449.57 170.09 445.79 170.09"/><polyline class="cls-7" points="529.57 170.09 522 170.09 522 171.99 524.39 171.99 524.39 175.77 529.57 175.77"/><line class="cls-7" x1="522" y1="170.09" x2="449.57" y2="170.09"/><polyline class="cls-7" points="447.18 177.66 452.86 177.66 518.71 177.66"/><polyline class="cls-7" points="452.86 177.66 452.86 171.99 447.18 171.99 447.18 177.66"/><polyline class="cls-7" points="524.39 171.99 518.71 171.99 518.71 177.66 524.39 177.66 524.39 171.99"/><line class="cls-7" x1="518.71" y1="171.99" x2="452.86" y2="171.99"/><line class="cls-7" x1="452.86" y1="177.66" x2="518.71" y2="177.66"/><line class="cls-7" x1="452.86" y1="174.77" x2="518.71" y2="174.77"/><polyline class="cls-7" points="362.01 193.6 362.01 175.77 362.01 170.09 362.01 175.77"/><polyline class="cls-7" points="529.57 193.6 529.57 175.77 529.57 170.09 529.57 175.77"/><line class="cls-7" x1="365.8" y1="159.73" x2="365.8" y2="160.73"/><polyline class="cls-7" points="365.8 170.09 364.8 170.09 365.8 170.09"/><polyline class="cls-7" points="364.8 170.09 362.01 170.09 364.8 170.09"/><line class="cls-7" x1="525.78" y1="159.73" x2="525.78" y2="160.73"/><polyline class="cls-7" points="525.78 170.09 526.68 170.09 525.78 170.09"/><polyline class="cls-7" points="526.68 170.09 529.57 170.09 526.68 170.09"/><line class="cls-7" x1="365.8" y1="160.73" x2="365.8" y2="170.09"/><line class="cls-7" x1="525.78" y1="160.73" x2="525.78" y2="170.09"/><line class="cls-7" x1="671.72" y1="159.73" x2="831.71" y2="159.73"/><line class="cls-7" x1="667.93" y1="193.6" x2="835.49" y2="193.6"/><polyline class="cls-7" points="667.93 175.77 673.12 175.77 673.12 171.99 675.41 171.99 675.41 170.09 667.93 170.09"/><polyline class="cls-7" points="751.71 170.09 747.93 170.09 747.93 171.99 750.32 171.99 750.32 175.77 751.71 175.77"/><line class="cls-7" x1="747.93" y1="170.09" x2="675.41" y2="170.09"/><polyline class="cls-7" points="673.12 177.66 678.69 177.66 744.64 177.66"/><polyline class="cls-7" points="678.69 177.66 678.69 171.99 673.12 171.99 673.12 177.66"/><polyline class="cls-7" points="750.32 171.99 744.64 171.99 744.64 177.66 750.32 177.66 750.32 171.99"/><line class="cls-7" x1="744.64" y1="171.99" x2="678.69" y2="171.99"/><line class="cls-7" x1="678.69" y1="177.66" x2="744.64" y2="177.66"/><line class="cls-7" x1="678.69" y1="174.77" x2="744.64" y2="174.77"/><polyline class="cls-7" points="751.71 175.77 753.11 175.77 753.11 171.99 755.4 171.99 755.4 170.09 751.71 170.09"/><polyline class="cls-7" points="835.49 170.09 827.92 170.09 827.92 171.99 830.31 171.99 830.31 175.77 835.49 175.77"/><line class="cls-7" x1="827.92" y1="170.09" x2="755.4" y2="170.09"/><polyline class="cls-7" points="753.11 177.66 758.78 177.66 824.63 177.66"/><polyline class="cls-7" points="758.78 177.66 758.78 171.99 753.11 171.99 753.11 177.66"/><polyline class="cls-7" points="830.31 171.99 824.63 171.99 824.63 177.66 830.31 177.66 830.31 171.99"/><line class="cls-7" x1="824.63" y1="171.99" x2="758.79" y2="171.99"/><line class="cls-7" x1="758.79" y1="177.66" x2="824.63" y2="177.66"/><line class="cls-7" x1="758.79" y1="174.77" x2="824.63" y2="174.77"/><polyline class="cls-7" points="667.93 193.6 667.93 175.77 667.93 170.09 667.93 175.77"/><polyline class="cls-7" points="835.49 193.6 835.49 175.77 835.49 170.09 835.49 175.77"/><line class="cls-7" x1="671.72" y1="159.73" x2="671.72" y2="160.73"/><polyline class="cls-7" points="671.72 170.09 670.72 170.09 671.72 170.09"/><polyline class="cls-7" points="670.72 170.09 667.93 170.09 670.72 170.09"/><line class="cls-7" x1="831.71" y1="159.73" x2="831.71" y2="160.73"/><polyline class="cls-7" points="831.71 170.09 832.6 170.09 831.71 170.09"/><polyline class="cls-7" points="832.6 170.09 835.49 170.09 832.6 170.09"/><line class="cls-7" x1="671.72" y1="160.73" x2="671.72" y2="170.09"/><line class="cls-7" x1="831.71" y1="160.73" x2="831.71" y2="170.09"/><line class="cls-7" x1="0.5" y1="46.77" x2="282.91" y2="46.77"/><polyline class="cls-7" points="0.5 46.77 9.96 46.77 14.65 46.77 14.65 50.55 12.26 50.55 12.26 56.23 9.96 56.23 273.55 56.23"/><polyline class="cls-7" points="98.13 46.77 94.34 46.77 94.34 50.55 96.73 50.55 96.73 56.23 98.13 56.23"/><line class="cls-7" x1="94.34" y1="46.77" x2="14.65" y2="46.77"/><polyline class="cls-7" points="12.26 56.23 17.93 56.23 91.05 56.23"/><polyline class="cls-7" points="17.93 56.23 17.93 50.55 12.26 50.55 12.26 56.23"/><polyline class="cls-7" points="96.73 50.55 91.05 50.55 91.05 56.23 96.73 56.23 96.73 50.55"/><line class="cls-7" x1="91.05" y1="50.55" x2="17.93" y2="50.55"/><line class="cls-7" x1="17.93" y1="56.23" x2="91.05" y2="56.23"/><line class="cls-7" x1="17.93" y1="53.44" x2="91.05" y2="53.44"/><line class="cls-7" x1="9.96" y1="46.77" x2="9.96" y2="56.23"/><polyline class="cls-7" points="98.13 56.23 99.52 56.23 99.52 50.55 101.91 50.55 101.91 46.77 98.13 46.77"/><polyline class="cls-7" points="185.29 46.77 181.6 46.77 181.6 50.55 183.9 50.55 183.9 56.23 185.29 56.23"/><line class="cls-7" x1="181.6" y1="46.77" x2="101.91" y2="46.77"/><polyline class="cls-7" points="99.52 56.23 105.2 56.23 178.32 56.23"/><polyline class="cls-7" points="105.2 56.23 105.2 50.55 99.52 50.55 99.52 56.23"/><polyline class="cls-7" points="183.9 50.55 178.32 50.55 178.32 56.23 183.9 56.23 183.9 50.55"/><line class="cls-7" x1="178.32" y1="50.55" x2="105.2" y2="50.55"/><line class="cls-7" x1="105.2" y1="56.23" x2="178.32" y2="56.23"/><line class="cls-7" x1="105.2" y1="53.44" x2="178.32" y2="53.44"/><polyline class="cls-7" points="185.29 56.23 186.78 56.23 186.78 50.55 189.07 50.55 189.07 46.77 185.29 46.77"/><polyline class="cls-7" points="282.91 46.77 273.55 46.77 268.77 46.77 268.77 50.55 271.16 50.55 271.16 56.23 273.55 56.23"/><line class="cls-7" x1="268.77" y1="46.77" x2="189.08" y2="46.77"/><polyline class="cls-7" points="186.78 56.23 192.36 56.23 265.48 56.23"/><polyline class="cls-7" points="192.36 56.23 192.36 50.55 186.78 50.55 186.78 56.23"/><polyline class="cls-7" points="271.16 50.55 265.48 50.55 265.48 56.23 271.16 56.23 271.16 50.55"/><line class="cls-7" x1="265.48" y1="50.55" x2="192.36" y2="50.55"/><line class="cls-7" x1="192.36" y1="56.23" x2="265.48" y2="56.23"/><line class="cls-7" x1="192.36" y1="53.44" x2="265.48" y2="53.44"/><line class="cls-7" x1="273.55" y1="46.77" x2="273.55" y2="56.23"/><line class="cls-7" x1="0.5" y1="159.73" x2="9.96" y2="159.73"/><line class="cls-7" x1="0.5" y1="46.77" x2="0.5" y2="159.73"/><polyline class="cls-7" points="0.5 46.77 0.5 56.23 0.5 60.91 4.29 60.91 4.29 58.62 9.96 58.62 9.96 56.23 9.96 159.73"/><polyline class="cls-7" points="0.5 159.73 0.5 152.26 4.29 152.26 4.29 154.55 9.96 154.55 9.96 159.73"/><line class="cls-7" x1="0.5" y1="193.6" x2="0.5" y2="60.91"/><polyline class="cls-7" points="9.96 58.62 9.96 64.2 9.96 148.97"/><polyline class="cls-7" points="9.96 64.2 4.29 64.2 4.29 58.62 9.96 58.62"/><polyline class="cls-7" points="4.29 154.55 4.29 148.97 9.96 148.97 9.96 154.55 4.29 154.55"/><line class="cls-7" x1="4.29" y1="148.97" x2="4.29" y2="64.2"/><line class="cls-7" x1="9.96" y1="64.2" x2="9.96" y2="148.97"/><line class="cls-7" x1="7.07" y1="64.2" x2="7.07" y2="148.97"/><line class="cls-7" x1="0.5" y1="56.23" x2="9.96" y2="56.23"/><polyline class="cls-7" points="9.96 159.73 0.5 159.73 9.96 159.73"/><line class="cls-7" x1="282.91" y1="159.73" x2="273.55" y2="159.73"/><line class="cls-7" x1="282.91" y1="46.77" x2="282.91" y2="159.73"/><polyline class="cls-7" points="282.91 46.77 282.91 56.23 282.91 60.91 279.13 60.91 279.13 58.62 273.55 58.62 273.55 56.23 273.55 159.73"/><polyline class="cls-7" points="282.91 159.73 282.91 152.26 279.13 152.26 279.13 154.55 273.55 154.55 273.55 159.73"/><line class="cls-7" x1="282.91" y1="152.26" x2="282.91" y2="60.91"/><polyline class="cls-7" points="273.55 58.62 273.55 64.2 273.55 148.97"/><polyline class="cls-7" points="273.55 64.2 279.13 64.2 279.13 58.62 273.55 58.62"/><polyline class="cls-7" points="279.13 154.55 279.13 148.97 273.55 148.97 273.55 154.55 279.13 154.55"/><line class="cls-7" x1="279.13" y1="148.97" x2="279.13" y2="64.2"/><line class="cls-7" x1="273.55" y1="64.2" x2="273.55" y2="148.97"/><line class="cls-7" x1="276.34" y1="64.2" x2="276.34" y2="148.97"/><line class="cls-7" x1="282.91" y1="56.23" x2="273.55" y2="56.23"/><polyline class="cls-7" points="273.55 159.73 282.91 159.73 273.55 159.73"/><line class="cls-7" x1="329.93" y1="800.77" x2="329.93" y2="760.32"/><polyline class="cls-7" points="311.21 814.91 311.21 800.77 311.21 779.15"/><polyline class="cls-7" points="329.93 760.32 311.21 760.32 218.86 760.32"/><line class="cls-7" x1="237.69" y1="779.15" x2="311.21" y2="779.15"/><polyline class="cls-7" points="218.86 760.32 218.86 779.15 218.86 814.91"/><line class="cls-7" x1="237.69" y1="814.91" x2="237.69" y2="779.15"/><line class="cls-7" x1="490.02" y1="814.91" x2="490.02" y2="800.77"/><line class="cls-7" x1="471.19" y1="819.6" x2="471.19" y2="833.74"/><polyline class="cls-7" points="762.07 157.44 762.07 105.64 762.47 105.64 762.47 157.44 762.07 157.44"/><polyline class="cls-7" points="760.58 104.25 674.01 104.25 674.01 103.75 760.58 103.75 760.58 104.25"/><polyline class="cls-7" points="672.62 105.64 672.62 157.44 672.12 157.44 672.12 105.64 672.62 105.64"/><polyline class="cls-7" points="760.58 159.73 760.58 157.44 762.97 157.44 762.97 159.73 760.58 159.73"/><polyline class="cls-7" points="760.58 105.64 760.58 103.25 762.97 103.25 762.97 105.64 760.58 105.64"/><polyline class="cls-7" points="674.01 105.64 671.72 105.64 671.72 103.25 674.01 103.25 674.01 105.64"/><polyline class="cls-7" points="674.01 157.44 674.01 159.73 671.72 159.73 671.72 157.44 674.01 157.44"/><line class="cls-7" x1="760.58" y1="158.54" x2="760.58" y2="105.64"/><line class="cls-7" x1="762.97" y1="103.25" x2="762.97" y2="158.54"/><line class="cls-7" x1="760.58" y1="105.64" x2="674.01" y2="105.64"/><line class="cls-7" x1="671.72" y1="103.25" x2="762.97" y2="103.25"/><line class="cls-7" x1="674.01" y1="105.64" x2="674.01" y2="158.54"/><line class="cls-7" x1="671.72" y1="158.54" x2="671.72" y2="103.25"/><polyline class="cls-7" points="762.97 158.54 762.97 159.73 760.58 159.73 760.58 158.54"/><polyline class="cls-7" points="674.01 158.54 674.01 159.73 671.72 159.73 671.72 158.54"/><polyline class="cls-7" points="671.72 103.25 762.97 103.25 762.97 158.54 760.58 158.54 760.58 105.64 674.01 105.64 674.01 158.54 671.72 158.54 671.72 103.25"/><polyline class="cls-7" points="676.4 120.18 758.29 120.18 758.29 150.37 676.4 150.37 676.4 120.18"/><polyline class="cls-7" points="676.4 123.27 758.29 123.27 758.29 150.37 676.4 150.37 676.4 123.27"/><line class="cls-7" x1="38.16" y1="833.74" x2="226.43" y2="833.74"/><line class="cls-7" x1="218.86" y1="814.91" x2="56.98" y2="814.91"/><line class="cls-7" x1="38.16" y1="833.74" x2="38.16" y2="833.74"/><line class="cls-7" x1="894.76" y1="739.6" x2="894.76" y2="579.52"/><line class="cls-7" x1="894.76" y1="485.48" x2="894.76" y2="268.91"/><line class="cls-7" x1="875.94" y1="268.91" x2="875.94" y2="485.48"/><line class="cls-7" x1="875.94" y1="579.52" x2="875.94" y2="739.6"/><line class="cls-7" x1="56.98" y1="814.91" x2="56.98" y2="579.52"/><line class="cls-7" x1="56.98" y1="485.48" x2="56.98" y2="268.91"/><line class="cls-7" x1="38.16" y1="268.91" x2="38.16" y2="485.48"/><line class="cls-7" x1="38.16" y1="579.52" x2="38.16" y2="833.74"/><line class="cls-7" x1="591.63" y1="600.24" x2="591.63" y2="579.52"/><line class="cls-7" x1="591.63" y1="485.48" x2="591.63" y2="268.91"/><line class="cls-7" x1="584.16" y1="268.91" x2="584.16" y2="485.48"/><line class="cls-7" x1="584.16" y1="579.52" x2="584.16" y2="600.24"/><polyline class="cls-7" points="66.45 767.79 66.45 771.58 66.45 775.37"/><polyline class="cls-7" points="104.1 767.79 104.1 771.58 104.1 775.37"/><line class="cls-7" x1="56.98" y1="775.37" x2="66.45" y2="775.37"/><polyline class="cls-7" points="111.57 775.37 218.86 775.37 218.86 767.79 104.1 767.79"/><polyline class="cls-7" points="66.45 767.79 56.98 767.79 56.98 775.37"/><line class="cls-7" x1="104.1" y1="767.8" x2="66.45" y2="767.8"/><line class="cls-7" x1="104.1" y1="775.37" x2="66.45" y2="775.37"/><path class="cls-7" d="M104.1,796.09a37.68,37.68,0,0,0-2.27-12.87" transform="translate(0 -28.34)"/><line class="cls-7" x1="66.45" y1="767.8" x2="101.81" y2="754.94"/><polyline class="cls-7" points="104.1 775.37 104.1 771.58 104.1 767.79 104.1 771.58"/><polyline class="cls-7" points="66.45 775.37 66.45 771.58 66.45 767.79 66.45 771.58"/><line class="cls-7" x1="226.43" y1="722.67" x2="218.86" y2="722.67"/><polyline class="cls-7" points="226.43 656.72 218.86 656.72 218.86 576.73"/><polyline class="cls-7" points="218.86 722.67 218.86 760.32 226.43 760.32 226.43 722.67"/><line class="cls-7" x1="226.43" y1="656.72" x2="226.43" y2="569.26"/><line class="cls-7" x1="226.43" y1="656.72" x2="218.86" y2="656.72"/><line class="cls-7" x1="226.43" y1="722.67" x2="218.86" y2="722.67"/><polyline class="cls-7" points="226.43 569.26 218.86 569.26 56.98 569.26"/><line class="cls-7" x1="56.98" y1="576.73" x2="218.86" y2="576.73"/><polyline class="cls-7" points="104.1 775.37 104.1 814.91 111.57 814.91 111.57 775.37"/><line class="cls-7" x1="318.68" y1="600.24" x2="318.68" y2="579.52"/><line class="cls-7" x1="318.68" y1="485.48" x2="318.68" y2="268.91"/><line class="cls-7" x1="311.21" y1="268.91" x2="311.21" y2="485.48"/><line class="cls-7" x1="311.21" y1="579.52" x2="311.21" y2="600.24"/><line class="cls-7" x1="681.98" y1="733.03" x2="689.55" y2="733.03"/><line class="cls-7" x1="681.98" y1="667.08" x2="689.55" y2="667.08"/><line class="cls-7" x1="689.55" y1="751.86" x2="689.55" y2="733.03"/><line class="cls-7" x1="689.55" y1="667.08" x2="689.55" y2="607.81"/><line class="cls-7" x1="681.98" y1="607.81" x2="681.98" y2="667.08"/><polyline class="cls-7" points="681.98 733.03 681.98 751.86 689.55 751.86"/><line class="cls-7" x1="681.98" y1="667.08" x2="689.55" y2="667.08"/><line class="cls-7" x1="681.98" y1="733.03" x2="689.55" y2="733.03"/><line class="cls-7" x1="875.94" y1="600.24" x2="689.55" y2="600.24"/><line class="cls-7" x1="689.55" y1="607.81" x2="821.34" y2="607.81"/><polyline class="cls-7" points="828.92 607.81 875.93 607.81 875.93 600.24"/><polyline class="cls-7" points="821.35 607.81 825.13 607.81 828.92 607.81"/><polyline class="cls-7" points="828.92 668.98 828.92 781.94 821.35 781.94 821.35 645.47 825.13 645.47 828.92 645.47 828.92 661.5"/><line class="cls-7" x1="821.34" y1="645.47" x2="821.34" y2="607.81"/><line class="cls-7" x1="828.92" y1="645.47" x2="828.92" y2="607.81"/><path class="cls-7" d="M808.53,671.44a37.62,37.62,0,0,0,12.86,2.27" transform="translate(0 -28.34)"/><line class="cls-7" x1="821.34" y1="607.81" x2="808.49" y2="643.17"/><polyline class="cls-7" points="828.92 645.47 825.13 645.47 821.35 645.47 825.13 645.47"/><polyline class="cls-7" points="828.92 607.81 825.13 607.81 821.35 607.81 825.13 607.81"/><line class="cls-7" x1="875.94" y1="661.5" x2="828.92" y2="661.5"/><polyline class="cls-7" points="828.92 668.98 875.93 668.98 875.93 661.5"/><line class="cls-7" x1="736.67" y1="800.77" x2="875.94" y2="800.77"/><polyline class="cls-7" points="875.93 781.94 755.4 781.94 755.4 751.86"/><polyline class="cls-7" points="736.67 800.77 736.67 781.94 736.67 770.68"/><line class="cls-7" x1="633.07" y1="770.68" x2="736.67" y2="770.68"/><polyline class="cls-7" points="755.4 751.86 736.67 751.86 614.24 751.86"/><line class="cls-7" x1="633.07" y1="833.74" x2="633.07" y2="770.68"/><polyline class="cls-7" points="614.24 751.86 614.24 770.68 614.24 814.91"/><line class="cls-7" x1="320.57" y1="819.6" x2="471.19" y2="819.6"/><line class="cls-7" x1="490.02" y1="800.77" x2="329.93" y2="800.77"/><polyline class="cls-7" points="600.1 833.74 600.1 826.17 600.1 814.91"/><polyline class="cls-7" points="471.19 833.74 505.96 833.74 505.96 826.17 505.96 814.91"/><polyline class="cls-7" points="633.07 833.74 614.24 833.74 600.1 833.74"/><line class="cls-7" x1="614.24" y1="814.91" x2="600.1" y2="814.91"/><line class="cls-7" x1="505.96" y1="814.91" x2="490.02" y2="814.91"/><line class="cls-7" x1="505.96" y1="833.74" x2="506.26" y2="833.74"/><line class="cls-7" x1="506.36" y1="833.74" x2="506.36" y2="833.74"/><line class="cls-7" x1="506.46" y1="833.74" x2="506.46" y2="833.74"/><line class="cls-7" x1="505.96" y1="814.91" x2="506.26" y2="814.91"/><line class="cls-7" x1="506.36" y1="814.91" x2="506.36" y2="814.91"/><line class="cls-7" x1="506.46" y1="814.91" x2="506.46" y2="814.91"/><path class="cls-7" d="M596.46,767.84a86.62,86.62,0,0,0-86.62,86.62" transform="translate(0 -28.34)"/><polyline class="cls-7" points="505.96 833.74 509.74 833.74 509.74 826.17 505.96 826.17 505.96 833.74"/><polyline class="cls-7" points="600.1 826.17 596.41 826.17 596.41 833.74 600.1 833.74 600.1 826.17"/><line class="cls-7" x1="596.41" y1="826.17" x2="596.41" y2="739.6"/><polyline class="cls-7" points="505.96 814.91 505.96 826.17 505.96 833.74 505.96 826.17"/><polyline class="cls-7" points="600.1 814.91 600.1 826.17 600.1 833.74 600.1 826.17"/><line class="cls-7" x1="311.21" y1="600.24" x2="311.21" y2="607.81"/><line class="cls-7" x1="226.43" y1="600.24" x2="226.43" y2="607.81"/><line class="cls-7" x1="606.77" y1="607.81" x2="606.77" y2="600.24"/><line class="cls-7" x1="681.98" y1="607.81" x2="681.98" y2="600.24"/><line class="cls-7" x1="339.4" y1="607.81" x2="339.4" y2="600.24"/><line class="cls-7" x1="414.71" y1="607.81" x2="414.71" y2="600.24"/><line class="cls-7" x1="689.55" y1="600.24" x2="681.98" y2="600.24"/><line class="cls-7" x1="606.77" y1="600.24" x2="591.63" y2="600.24"/><line class="cls-7" x1="584.16" y1="600.24" x2="414.71" y2="600.24"/><line class="cls-7" x1="339.4" y1="600.24" x2="318.68" y2="600.24"/><line class="cls-7" x1="311.21" y1="607.81" x2="339.4" y2="607.81"/><line class="cls-7" x1="414.71" y1="607.81" x2="606.77" y2="607.81"/><line class="cls-7" x1="226.43" y1="600.24" x2="226.43" y2="607.81"/><line class="cls-7" x1="311.21" y1="600.24" x2="311.21" y2="607.81"/><line class="cls-7" x1="681.98" y1="607.81" x2="681.98" y2="600.24"/><line class="cls-7" x1="606.77" y1="607.81" x2="606.77" y2="600.24"/><line class="cls-7" x1="414.71" y1="607.81" x2="414.71" y2="600.24"/><line class="cls-7" x1="339.4" y1="607.81" x2="339.4" y2="600.24"/><polyline class="cls-7" points="38.16 268.91 56.98 268.91 56.98 174.78 38.16 174.78 38.16 268.91"/><polyline class="cls-7" points="56.98 485.48 38.16 485.48 38.16 579.52 56.98 579.52 56.98 485.48"/><polyline class="cls-7" points="875.93 268.91 894.76 268.91 894.76 174.78 875.93 174.78 875.93 268.91"/><polyline class="cls-7" points="894.76 485.48 875.93 485.48 875.93 579.52 894.76 579.52 894.76 485.48"/><polyline class="cls-7" points="311.21 268.91 329.93 268.91 329.93 174.78 311.21 174.78 311.21 268.91"/><polyline class="cls-7" points="329.93 485.48 311.21 485.48 311.21 579.52 329.93 579.52 329.93 485.48"/><polyline class="cls-7" points="584.16 268.91 602.98 268.91 602.98 174.78 584.16 174.78 584.16 268.91"/><polyline class="cls-7" points="602.98 485.48 584.16 485.48 584.16 579.52 602.98 579.52 602.98 485.48"/><polyline class="cls-7" points="320.57 833.74 320.57 814.91 226.43 814.91 226.43 833.74 320.57 833.74"/><polyline class="cls-7" points="894.76 739.6 875.93 739.6 875.93 800.77 894.76 800.77 894.76 739.6"/><polyline class="cls-7" points="812.38 760.42 812.38 781.94 761.58 781.94 761.58 760.42"/><line class="cls-7" x1="778.91" y1="781.94" x2="794.95" y2="781.94"/><line class="cls-7" x1="782.69" y1="764.71" x2="785.38" y2="764.71"/><line class="cls-7" x1="786.98" y1="768.99" x2="786.98" y2="766.3"/><line class="cls-7" x1="788.57" y1="764.71" x2="791.26" y2="764.71"/><line class="cls-7" x1="786.98" y1="763.11" x2="786.98" y2="760.42"/><path class="cls-7" d="M800.51,798.09a22.62,22.62,0,0,0,8.79-10.71" transform="translate(0 -28.34)"/><path class="cls-7" d="M787,801.34a22.69,22.69,0,0,0,13.51-3.17" transform="translate(0 -28.34)"/><path class="cls-7" d="M764.75,787.38a22.62,22.62,0,0,0,8.79,10.71" transform="translate(0 -28.34)"/><path class="cls-7" d="M773.54,798.17a22.71,22.71,0,0,0,13.51,3.17" transform="translate(0 -28.34)"/><path class="cls-7" d="M804.22,775.94a41.87,41.87,0,0,0-15.42-4.2" transform="translate(0 -28.34)"/><path class="cls-7" d="M766.4,778.15a12.91,12.91,0,0,0-4.81,10.62" transform="translate(0 -28.34)"/><path class="cls-7" d="M788.81,771.69a26.43,26.43,0,0,0-3.56,0" transform="translate(0 -28.34)"/><path class="cls-7" d="M772.81,797.23a92.88,92.88,0,0,0,28.44,0" transform="translate(0 -28.34)"/><path class="cls-7" d="M763,785.38a31.93,31.93,0,0,0,7.21,20.75" transform="translate(0 -28.34)"/><path class="cls-7" d="M772.47,807.61A63.5,63.5,0,0,0,787,809.18" transform="translate(0 -28.34)"/><path class="cls-7" d="M770.1,806.14a4.25,4.25,0,0,0,2.34,1.45" transform="translate(0 -28.34)"/><path class="cls-7" d="M772.67,806.16a109.14,109.14,0,0,0,14.34,1" transform="translate(0 -28.34)"/><path class="cls-7" d="M762.87,785.35a28.77,28.77,0,0,0,7.18,19.38" transform="translate(0 -28.34)"/><path class="cls-7" d="M770.1,804.76a4.24,4.24,0,0,0,2.6,1.4" transform="translate(0 -28.34)"/><path class="cls-7" d="M804,804.76a28.72,28.72,0,0,0,7.2-19.37" transform="translate(0 -28.34)"/><path class="cls-7" d="M803.85,806.16a31.9,31.9,0,0,0,7.23-20.74" transform="translate(0 -28.34)"/><path class="cls-7" d="M787,807.19a108.82,108.82,0,0,0,14.32-1" transform="translate(0 -28.34)"/><path class="cls-7" d="M787,809.18a62.93,62.93,0,0,0,14.54-1.55" transform="translate(0 -28.34)"/><path class="cls-7" d="M801.35,806.16a4.26,4.26,0,0,0,2.6-1.39" transform="translate(0 -28.34)"/><path class="cls-7" d="M801.51,807.69a4.25,4.25,0,0,0,2.34-1.45" transform="translate(0 -28.34)"/><path class="cls-7" d="M812.37,788.77a12.92,12.92,0,0,0-4.82-10.62" transform="translate(0 -28.34)"/><path class="cls-7" d="M807.64,778a19.16,19.16,0,0,0-3.38-2.19" transform="translate(0 -28.34)"/><path class="cls-7" d="M769.8,775.84a19.24,19.24,0,0,0-3.39,2.19" transform="translate(0 -28.34)"/><path class="cls-7" d="M785.26,771.74a41.92,41.92,0,0,0-15.43,4.2" transform="translate(0 -28.34)"/><path class="cls-7" d="M794,775.25a29.85,29.85,0,0,0-14,0" transform="translate(0 -28.34)"/><path class="cls-7" d="M809.27,787.44a7.59,7.59,0,0,0-2.62-6.29" transform="translate(0 -28.34)"/><path class="cls-7" d="M806.66,781.14a27.5,27.5,0,0,0-12.66-5.8" transform="translate(0 -28.34)"/><path class="cls-7" d="M767.3,781.15a7.65,7.65,0,0,0-2.62,6.29" transform="translate(0 -28.34)"/><path class="cls-7" d="M780.05,775.34a27.59,27.59,0,0,0-12.66,5.8" transform="translate(0 -28.34)"/><path class="cls-7" d="M790.36,793a3.34,3.34,0,1,0-3.33,3.34,3.34,3.34,0,0,0,3.33-3.34" transform="translate(0 -28.34)"/><path class="cls-7" d="M789.37,793a2.34,2.34,0,1,0-2.34,2.34,2.34,2.34,0,0,0,2.34-2.34" transform="translate(0 -28.34)"/><line class="cls-7" x1="806.9" y1="654.43" x2="773.63" y2="654.43"/><polyline class="cls-7" points="808.89 652.94 821.35 652.94 821.35 688.8"/><line class="cls-7" x1="801.02" y1="670.87" x2="801.02" y2="684.12"/><polyline class="cls-7" points="773.73 654.43 801.02 657.62 801.02 670.87"/><line class="cls-7" x1="773.73" y1="687.3" x2="801.02" y2="684.12"/><line class="cls-7" x1="773.73" y1="655.23" x2="801.02" y2="658.42"/><line class="cls-7" x1="773.73" y1="686.51" x2="801.02" y2="683.32"/><line class="cls-7" x1="806.9" y1="687.3" x2="773.63" y2="687.3"/><line class="cls-7" x1="821.34" y1="688.8" x2="808.89" y2="688.8"/><polyline class="cls-7" points="773.73 654.43 770.04 654.83 766.56 656.22 763.47 658.51 760.98 661.5 759.28 664.99 758.39 668.88 758.39 672.86 759.28 676.75 760.98 680.23 763.47 683.22 766.56 685.51 770.04 686.91 773.73 687.3"/><polyline class="cls-7" points="773.73 655.23 770.24 655.73 766.95 657.02 764.07 659.21 761.67 662 760.08 665.29 759.18 668.98 759.18 672.76 760.08 676.45 761.67 679.73 764.07 682.52 766.95 684.71 770.24 686.01 773.73 686.51"/><path class="cls-7" d="M806.86,683.12a151.36,151.36,0,0,0,0,32.06" transform="translate(0 -28.34)"/><path class="cls-7" d="M808.94,681.28a2.11,2.11,0,0,0-2.13,1.82" transform="translate(0 -28.34)"/><path class="cls-7" d="M806.81,715.2a2.1,2.1,0,0,0,2.13,1.84" transform="translate(0 -28.34)"/><path class="cls-7" d="M815.27,699.16a1.75,1.75,0,1,0-1.74,1.74,1.74,1.74,0,0,0,1.74-1.74" transform="translate(0 -28.34)"/><line class="cls-7" x1="38.16" y1="695.57" x2="38.16" y2="711.61"/><polyline class="cls-7" points="871.25 543.76 819.45 543.76 819.45 595.56 871.25 595.56 871.25 543.76"/><polyline class="cls-7" points="866.47 548.54 824.13 548.54 824.13 586.19 866.47 586.19 866.47 548.54"/><line class="cls-7" x1="62.36" y1="588.09" x2="62.36" y2="636"/><line class="cls-7" x1="67.64" y1="641.68" x2="184.19" y2="641.68"/><line class="cls-7" x1="67.64" y1="582.41" x2="184.19" y2="582.41"/><line class="cls-7" x1="217.07" y1="647.36" x2="56.98" y2="647.36"/><polyline class="cls-7" points="217.07 647.36 217.07 576.73 56.98 576.73 56.98 647.36"/><line class="cls-7" x1="165.47" y1="592.17" x2="74.32" y2="592.17"/><line class="cls-7" x1="71.63" y1="595.06" x2="71.63" y2="629.03"/><line class="cls-7" x1="165.47" y1="631.82" x2="74.32" y2="631.82"/><line class="cls-7" x1="90.35" y1="610.3" x2="90.35" y2="606.81"/><line class="cls-7" x1="88.66" y1="611.99" x2="85.37" y2="611.99"/><line class="cls-7" x1="90.35" y1="613.79" x2="90.35" y2="617.27"/><line class="cls-7" x1="91.95" y1="611.99" x2="95.24" y2="611.99"/><path class="cls-7" d="M184.24,669.92c15.49,0,28-13.27,28-29.63s-12.56-29.64-28-29.64" transform="translate(0 -28.34)"/><path class="cls-7" d="M62.36,664.29a5.49,5.49,0,0,0,5.33,5.63" transform="translate(0 -28.34)"/><path class="cls-7" d="M67.69,610.75a5.49,5.49,0,0,0-5.33,5.63" transform="translate(0 -28.34)"/><path class="cls-7" d="M90.4,637.35a2.94,2.94,0,1,0,2.74,2.94,2.84,2.84,0,0,0-2.74-2.94" transform="translate(0 -28.34)"/><path class="cls-7" d="M165.52,660.16c10.31,0,18.67-8.9,18.67-19.87s-8.36-19.88-18.67-19.88" transform="translate(0 -28.34)"/><path class="cls-7" d="M74.37,620.51a2.74,2.74,0,0,0-2.64,2.84" transform="translate(0 -28.34)"/><path class="cls-7" d="M71.73,657.32a2.74,2.74,0,0,0,2.64,2.84" transform="translate(0 -28.34)"/><path class="cls-7" d="M90.4,636.35a3.94,3.94,0,1,0,3.74,3.94,3.84,3.84,0,0,0-3.74-3.94" transform="translate(0 -28.34)"/><polyline class="cls-7" points="78.5 729.04 56.98 729.04 56.98 678.24 78.5 678.24"/><line class="cls-7" x1="56.98" y1="695.57" x2="56.98" y2="711.61"/><line class="cls-7" x1="74.22" y1="699.36" x2="74.22" y2="702.05"/><line class="cls-7" x1="69.93" y1="703.64" x2="72.72" y2="703.64"/><line class="cls-7" x1="74.22" y1="705.24" x2="74.22" y2="707.93"/><line class="cls-7" x1="75.81" y1="703.64" x2="78.5" y2="703.64"/><path class="cls-7" d="M69.17,745.42a22.69,22.69,0,0,0,10.72,8.79" transform="translate(0 -28.34)"/><path class="cls-7" d="M66,731.91a22.64,22.64,0,0,0,3.18,13.51" transform="translate(0 -28.34)"/><path class="cls-7" d="M79.89,709.56a22.69,22.69,0,0,0-10.72,8.79" transform="translate(0 -28.34)"/><path class="cls-7" d="M69.2,718.35A22.62,22.62,0,0,0,66,731.86" transform="translate(0 -28.34)"/><path class="cls-7" d="M91.32,749.13a41.73,41.73,0,0,0,4.2-15.43" transform="translate(0 -28.34)"/><path class="cls-7" d="M89.21,711.31a12.9,12.9,0,0,0-10.61-4.82" transform="translate(0 -28.34)"/><path class="cls-7" d="M95.67,733.71a26.43,26.43,0,0,0,0-3.56" transform="translate(0 -28.34)"/><path class="cls-7" d="M70,717.72a92.88,92.88,0,0,0,0,28.44" transform="translate(0 -28.34)"/><path class="cls-7" d="M81.89,707.88a32,32,0,0,0-20.76,7.2" transform="translate(0 -28.34)"/><path class="cls-7" d="M59.65,717.37a63.59,63.59,0,0,0-1.57,14.55" transform="translate(0 -28.34)"/><path class="cls-7" d="M61.13,715a4.22,4.22,0,0,0-1.45,2.34" transform="translate(0 -28.34)"/><path class="cls-7" d="M61.1,717.58a109.14,109.14,0,0,0-1,14.34" transform="translate(0 -28.34)"/><path class="cls-7" d="M81.92,707.78A28.7,28.7,0,0,0,62.53,715" transform="translate(0 -28.34)"/><path class="cls-7" d="M62.5,715a4.23,4.23,0,0,0-1.39,2.59" transform="translate(0 -28.34)"/><path class="cls-7" d="M62.51,748.78A28.71,28.71,0,0,0,81.88,756" transform="translate(0 -28.34)"/><path class="cls-7" d="M61.1,748.76A32,32,0,0,0,81.84,756" transform="translate(0 -28.34)"/><path class="cls-7" d="M60.07,731.9a109,109,0,0,0,1,14.33" transform="translate(0 -28.34)"/><path class="cls-7" d="M58.08,731.86a64.07,64.07,0,0,0,1.55,14.55" transform="translate(0 -28.34)"/><path class="cls-7" d="M61.11,746.26a4.18,4.18,0,0,0,1.39,2.59" transform="translate(0 -28.34)"/><path class="cls-7" d="M59.68,746.41a4.21,4.21,0,0,0,1.44,2.35" transform="translate(0 -28.34)"/><path class="cls-7" d="M78.6,757.27a12.89,12.89,0,0,0,10.61-4.81" transform="translate(0 -28.34)"/><path class="cls-7" d="M89.24,752.55a20.45,20.45,0,0,0,2.19-3.39" transform="translate(0 -28.34)"/><path class="cls-7" d="M91.43,714.7a20.36,20.36,0,0,0-2.19-3.38" transform="translate(0 -28.34)"/><path class="cls-7" d="M95.52,730.16a41.68,41.68,0,0,0-4.2-15.42" transform="translate(0 -28.34)"/><path class="cls-7" d="M92,738.93a29.85,29.85,0,0,0,0-14" transform="translate(0 -28.34)"/><path class="cls-7" d="M79.92,754.18a7.65,7.65,0,0,0,6.29-2.62" transform="translate(0 -28.34)"/><path class="cls-7" d="M86.12,751.57a27.61,27.61,0,0,0,5.81-12.66" transform="translate(0 -28.34)"/><path class="cls-7" d="M86.21,712.21a7.59,7.59,0,0,0-6.29-2.62" transform="translate(0 -28.34)"/><path class="cls-7" d="M91.93,725a27.52,27.52,0,0,0-5.81-12.66" transform="translate(0 -28.34)"/><path class="cls-7" d="M77.6,731.93a3.34,3.34,0,1,0-3.33,3.34,3.33,3.33,0,0,0,3.33-3.34" transform="translate(0 -28.34)"/><path class="cls-7" d="M76.61,731.93a2.34,2.34,0,1,0-2.34,2.34,2.34,2.34,0,0,0,2.34-2.34" transform="translate(0 -28.34)"/></svg>