<svg id="_286" data-name="286" xmlns="http://www.w3.org/2000/svg" viewBox="0 0 930.55 360.04"><defs><style>.cls-1{isolation:isolate;font-size:12px;fill:#969696;}.cls-1,.cls-3,.cls-4,.cls-6{font-family:PTSans-Regular, PT Sans;}.cls-10,.cls-11,.cls-2,.cls-5,.cls-7,.cls-8,.cls-9{fill:none;stroke-linecap:round;stroke-linejoin:round;}.cls-2{stroke:#969696;stroke-width:0.75px;}.cls-3{font-size:40px;}.cls-4{font-size:40.54px;}.cls-10,.cls-11,.cls-5,.cls-7,.cls-8,.cls-9{stroke:#000;}.cls-10,.cls-11,.cls-5{stroke-width:0.5px;}.cls-6{font-size:36px;}.cls-7,.cls-8{stroke-width:0.25px;}.cls-8{stroke-dasharray:0.99 0.99;}.cls-10{stroke-dasharray:2.96 2.96;}.cls-11{stroke-dasharray:2.96 2.96;}</style></defs><title>4floor_286flat</title><text class="cls-1" transform="translate(927.35 188.16) rotate(-90)">двор</text><line class="cls-2" x1="930.17" y1="198.92" x2="921.37" y2="198.92"/><polyline class="cls-2" points="926.67 202.42 930.17 198.92 926.67 195.42"/><text class="cls-3" transform="translate(564.65 205.69)">CT</text><text class="cls-4" transform="translate(538.64 255.86)">27.46</text><text class="cls-3" transform="translate(534.01 155.78)">№286</text><polyline class="cls-5" points="525 266.67 525 117.6 649.32 117.6 649.32 266.67"/><line class="cls-5" x1="525" y1="167.39" x2="649.32" y2="167.39"/><line class="cls-5" x1="525" y1="266.67" x2="649.32" y2="266.67"/><line class="cls-5" x1="525" y1="217.17" x2="649.32" y2="217.17"/><text class="cls-6" transform="translate(125.2 291.36)">2.52</text><text class="cls-6" transform="translate(91.64 198.33)">3.72</text><text class="cls-6" transform="translate(292.69 157.55)">2.20</text><text class="cls-6" transform="translate(685.85 203.46)">19.02</text><line class="cls-7" x1="82.17" y1="218.66" x2="82.67" y2="218.66"/><line class="cls-8" x1="83.66" y1="218.66" x2="158.74" y2="218.66"/><line class="cls-7" x1="159.24" y1="218.66" x2="159.74" y2="218.66"/><line class="cls-7" x1="71.67" y1="225.3" x2="72.17" y2="225.3"/><line class="cls-8" x1="73.16" y1="225.3" x2="148.24" y2="225.3"/><line class="cls-7" x1="148.74" y1="225.3" x2="149.24" y2="225.3"/><line class="cls-7" x1="56.15" y1="342.76" x2="56.65" y2="342.76"/><line class="cls-8" x1="57.65" y1="342.76" x2="132.73" y2="342.76"/><line class="cls-7" x1="133.22" y1="342.76" x2="133.72" y2="342.76"/><line class="cls-7" x1="193.42" y1="314.42" x2="193.42" y2="313.92"/><line class="cls-8" x1="193.42" y1="312.93" x2="193.42" y2="237.85"/><line class="cls-7" x1="193.42" y1="237.35" x2="193.42" y2="236.85"/><line class="cls-7" x1="210.2" y1="314.42" x2="210.2" y2="313.92"/><line class="cls-8" x1="210.2" y1="312.93" x2="210.2" y2="237.85"/><line class="cls-7" x1="210.2" y1="237.35" x2="210.2" y2="236.85"/><polyline class="cls-9" points="258.86 74.28 255.48 74.28 252.2 74.28"/><polyline class="cls-9" points="258.86 107.84 255.48 107.84 252.2 107.84"/><line class="cls-9" x1="252.2" y1="70.11" x2="252.2" y2="74.28"/><line class="cls-9" x1="252.2" y1="107.84" x2="252.2" y2="112.01"/><line class="cls-9" x1="252.2" y1="118.76" x2="252.2" y2="204.34"/><line class="cls-9" x1="258.86" y1="211" x2="258.86" y2="107.84"/><polyline class="cls-9" points="258.86 74.28 258.86 70.11 252.2 70.11"/><line class="cls-9" x1="258.86" y1="107.84" x2="258.86" y2="74.28"/><line class="cls-9" x1="252.2" y1="107.84" x2="252.2" y2="74.28"/><path class="cls-9" d="M258.9,107.75a33.65,33.65,0,0,0,11.46-2"/><line class="cls-9" x1="258.86" y1="74.28" x2="270.31" y2="105.8"/><polyline class="cls-9" points="252.2 107.84 255.48 107.84 258.86 107.84 255.48 107.84"/><polyline class="cls-9" points="252.2 74.28 255.48 74.28 258.86 74.28 255.48 74.28"/><line class="cls-9" x1="147.26" y1="225.3" x2="147.26" y2="218.55"/><polyline class="cls-9" points="17.28 225.3 88.57 225.3 88.57 218.55"/><polyline class="cls-9" points="147.26 225.3 193.42 225.3 193.42 218.55 147.26 218.55"/><polyline class="cls-9" points="88.57 218.55 17.28 218.55 17.28 225.3"/><line class="cls-9" x1="88.57" y1="225.3" x2="88.57" y2="218.55"/><line class="cls-9" x1="147.26" y1="225.3" x2="147.26" y2="218.55"/><polyline class="cls-9" points="252.2 112.01 210.2 112.01 210.2 118.76 252.2 118.76"/><polyline class="cls-9" points="252.2 204.34 210.2 204.34 210.2 211"/><polyline class="cls-9" points="258.86 211 252.2 211 210.2 211"/><line class="cls-9" x1="716.08" y1="359.54" x2="716.08" y2="358.65"/><line class="cls-9" x1="716.08" y1="359.54" x2="716.08" y2="346.13"/><line class="cls-9" x1="716.08" y1="359.54" x2="716.08" y2="359.54"/><polyline class="cls-9" points="716.09 359.54 711.02 359.54 699.3 359.54 699.3 342.76"/><polyline class="cls-9" points="699.3 359.54 711.02 359.54 716.09 359.54 711.02 359.54"/><polyline class="cls-9" points="716.09 358.65 716.09 358.65 716.09 358.65"/><polyline class="cls-9" points="716.09 346.13 728.6 346.13 716.09 346.13"/><polyline class="cls-9" points="716.09 358.65 829.28 358.65 841.89 358.65"/><polyline class="cls-9" points="728.6 346.13 812.5 346.13 829.28 346.13"/><line class="cls-9" x1="716.08" y1="359.54" x2="842.69" y2="359.54"/><polyline class="cls-9" points="699.3 329.35 716.09 329.35 812.5 329.35"/><polyline class="cls-9" points="842.69 10.53 841.89 10.53 842.69 10.53"/><polyline class="cls-9" points="841.89 346.13 841.89 358.65 841.89 346.13"/><line class="cls-9" x1="841.89" y1="128.79" x2="841.89" y2="10.53"/><line class="cls-9" x1="841.89" y1="346.13" x2="841.89" y2="278.12"/><polyline class="cls-9" points="841.89 10.53 838.34 10.53 841.89 10.53"/><polyline class="cls-9" points="829.28 278.12 829.28 329.35 829.28 346.13 829.28 329.35"/><polyline class="cls-9" points="829.28 128.79 829.28 70.11 829.28 31.4 829.28 70.11"/><line class="cls-9" x1="841.89" y1="274.84" x2="829.28" y2="274.84"/><line class="cls-9" x1="841.89" y1="132.16" x2="829.28" y2="132.16"/><polyline class="cls-9" points="829.28 278.12 829.28 275.64 829.28 274.84"/><line class="cls-9" x1="842.69" y1="274.84" x2="841.89" y2="274.84"/><polyline class="cls-9" points="829.28 128.79 829.28 131.37 829.28 132.16"/><line class="cls-9" x1="842.69" y1="132.16" x2="841.89" y2="132.16"/><line class="cls-9" x1="829.28" y1="278.12" x2="829.28" y2="278.12"/><polyline class="cls-9" points="841.89 278.12 841.89 275.64 829.28 275.64 841.89 275.64"/><line class="cls-9" x1="842.69" y1="275.64" x2="842.69" y2="274.84"/><line class="cls-9" x1="829.28" y1="128.79" x2="829.28" y2="128.79"/><polyline class="cls-9" points="841.89 128.79 841.89 131.37 829.28 131.37 841.89 131.37"/><line class="cls-9" x1="842.69" y1="131.36" x2="842.69" y2="132.16"/><polyline class="cls-9" points="829.28 278.12 824.31 278.12 812.5 278.12"/><polyline class="cls-9" points="829.28 128.79 824.31 128.79 812.5 128.79"/><polyline class="cls-9" points="842.69 359.54 842.69 358.65 842.69 275.64"/><polyline class="cls-9" points="842.69 0.5 842.69 10.53 842.69 131.37"/><line class="cls-9" x1="812.5" y1="70.11" x2="812.5" y2="128.79"/><line class="cls-9" x1="812.5" y1="278.12" x2="812.5" y2="329.35"/><polyline class="cls-9" points="842.69 274.84 842.69 132.16 846.95 132.16 846.95 274.84 842.69 274.84"/><line class="cls-9" x1="812.5" y1="128.79" x2="812.5" y2="278.12"/><polyline class="cls-9" points="824.31 128.79 824.31 133.41 827.6 133.41 827.6 135.54 829.28 135.54 829.28 128.79"/><polyline class="cls-9" points="829.28 203.46 829.28 200.17 827.6 200.17 827.6 202.21 824.31 202.21 824.31 203.46"/><line class="cls-9" x1="829.28" y1="200.17" x2="829.28" y2="135.54"/><polyline class="cls-9" points="822.62 133.41 822.62 138.47 822.62 197.24"/><polyline class="cls-9" points="822.62 138.47 827.6 138.47 827.6 133.41 822.62 133.41"/><polyline class="cls-9" points="827.6 202.21 827.6 197.24 822.62 197.24 822.62 202.21 827.6 202.21"/><line class="cls-9" x1="827.6" y1="197.24" x2="827.6" y2="138.47"/><line class="cls-9" x1="822.62" y1="138.47" x2="822.62" y2="197.24"/><line class="cls-9" x1="825.11" y1="138.47" x2="825.11" y2="197.24"/><polyline class="cls-9" points="824.31 203.46 824.31 204.79 827.6 204.79 827.6 206.83 829.28 206.83 829.28 203.46"/><polyline class="cls-9" points="829.28 278.12 829.28 271.46 827.6 271.46 827.6 273.5 824.31 273.5 824.31 278.12"/><line class="cls-9" x1="829.28" y1="271.46" x2="829.28" y2="206.83"/><polyline class="cls-9" points="822.62 204.79 822.62 209.76 822.62 268.53"/><polyline class="cls-9" points="822.62 209.76 827.6 209.76 827.6 204.79 822.62 204.79"/><polyline class="cls-9" points="827.6 273.5 827.6 268.53 822.62 268.53 822.62 273.5 827.6 273.5"/><line class="cls-9" x1="827.6" y1="268.53" x2="827.6" y2="209.76"/><line class="cls-9" x1="822.62" y1="209.76" x2="822.62" y2="268.53"/><line class="cls-9" x1="825.11" y1="209.76" x2="825.11" y2="268.53"/><polyline class="cls-9" points="812.5 128.79 824.31 128.79 829.28 128.79 824.31 128.79"/><polyline class="cls-9" points="812.5 278.12 824.31 278.12 829.28 278.12 824.31 278.12"/><line class="cls-9" x1="842.69" y1="132.16" x2="841.89" y2="132.16"/><polyline class="cls-9" points="829.28 132.16 829.28 131.37 829.28 132.16"/><polyline class="cls-9" points="829.28 131.37 829.28 128.79 829.28 131.37"/><line class="cls-9" x1="842.69" y1="274.84" x2="841.89" y2="274.84"/><polyline class="cls-9" points="829.28 274.84 829.28 275.64 829.28 274.84"/><polyline class="cls-9" points="829.28 275.64 829.28 278.12 829.28 275.64"/><line class="cls-9" x1="841.89" y1="132.16" x2="829.28" y2="132.16"/><line class="cls-9" x1="841.89" y1="274.84" x2="829.28" y2="274.84"/><polyline class="cls-9" points="55.01 342.76 55.01 336.01 55.01 325.98"/><polyline class="cls-9" points="138.91 342.76 138.91 336.01 138.91 325.98 193.42 325.98"/><polyline class="cls-9" points="55.01 325.98 17.28 325.98 17.28 342.76 55.01 342.76"/><polyline class="cls-9" points="138.91 342.76 193.42 342.76 193.42 325.98"/><path class="cls-9" d="M135.63,336a77.2,77.2,0,0,0-77.2-77.19"/><polyline class="cls-9" points="138.91 342.76 135.54 342.76 135.54 336.01 138.91 336.01 138.91 342.76"/><polyline class="cls-9" points="55.01 336.01 58.39 336.01 58.39 342.76 55.01 342.76 55.01 336.01"/><line class="cls-9" x1="58.39" y1="336.01" x2="58.39" y2="258.86"/><polyline class="cls-9" points="138.91 325.98 138.91 336.01 138.91 342.76 138.91 336.01"/><polyline class="cls-9" points="55.01 325.98 55.01 336.01 55.01 342.76 55.01 336.01"/><polyline class="cls-9" points="812.5 10.53 829.28 10.53 829.28 11.42 829.28 10.53 838.34 10.53 829.28 10.53"/><polyline class="cls-9" points="812.5 11.42 829.28 11.42 829.28 28.2 829.28 11.42"/><polyline class="cls-9" points="812.5 28.2 812.5 28.2 829.28 28.2 829.28 31.4 829.28 28.2"/><line class="cls-9" x1="842.69" y1="0.5" x2="812.5" y2="0.5"/><line class="cls-9" x1="812.5" y1="10.53" x2="0.5" y2="10.53"/><line class="cls-9" x1="812.5" y1="11.42" x2="0.5" y2="11.42"/><line class="cls-9" x1="812.5" y1="28.2" x2="0.5" y2="28.2"/><line class="cls-9" x1="0.5" y1="70.11" x2="0.5" y2="70.11"/><line class="cls-9" x1="17.28" y1="70.11" x2="193.42" y2="70.11"/><line class="cls-9" x1="210.2" y1="70.11" x2="812.5" y2="70.11"/><line class="cls-9" x1="812.5" y1="0.5" x2="0.5" y2="0.5"/><polyline class="cls-9" points="307.51 120.44 353.68 120.44 353.68 74.28 307.51 74.28 307.51 120.44"/><polyline class="cls-9" points="311.68 116.27 349.5 116.27 349.5 82.71 311.68 82.71 311.68 116.27"/><line class="cls-9" x1="72.59" y1="77.39" x2="29.89" y2="77.39"/><line class="cls-9" x1="24.83" y1="82.09" x2="24.83" y2="185.97"/><line class="cls-9" x1="77.65" y1="82.09" x2="77.65" y2="185.97"/><line class="cls-9" x1="19.77" y1="215.26" x2="19.77" y2="72.59"/><polyline class="cls-9" points="19.77 215.26 82.71 215.26 82.71 72.59 19.77 72.59"/><line class="cls-9" x1="68.95" y1="169.27" x2="68.95" y2="88.04"/><line class="cls-9" x1="66.38" y1="85.64" x2="36.1" y2="85.64"/><line class="cls-9" x1="33.62" y1="169.27" x2="33.62" y2="88.04"/><line class="cls-9" x1="52.79" y1="102.33" x2="55.9" y2="102.33"/><line class="cls-9" x1="51.28" y1="100.91" x2="51.28" y2="97.98"/><line class="cls-9" x1="49.69" y1="102.33" x2="46.58" y2="102.33"/><line class="cls-9" x1="51.28" y1="103.75" x2="51.28" y2="106.77"/><path class="cls-9" d="M24.92,185.92c0,13.8,11.82,25,26.41,25s26.41-11.19,26.41-25"/><path class="cls-9" d="M29.93,77.3a4.88,4.88,0,0,0-5,4.75"/><path class="cls-9" d="M77.65,82.05a4.88,4.88,0,0,0-5-4.75"/><path class="cls-9" d="M54,102.29a2.63,2.63,0,1,0-2.62,2.44A2.54,2.54,0,0,0,54,102.29"/><path class="cls-9" d="M33.62,169.23c0,9.19,7.93,16.65,17.71,16.65S69,178.42,69,169.23"/><path class="cls-9" d="M69,88a2.45,2.45,0,0,0-2.53-2.35"/><path class="cls-9" d="M36.15,85.64A2.45,2.45,0,0,0,33.62,88"/><path class="cls-9" d="M54.83,102.29a3.51,3.51,0,1,0-3.5,3.33,3.42,3.42,0,0,0,3.5-3.33"/><polyline class="cls-9" points="171.76 132.87 190.94 132.87 190.94 178.15 171.76 178.15"/><line class="cls-9" x1="190.94" y1="162.71" x2="190.94" y2="148.41"/><line class="cls-9" x1="175.58" y1="159.33" x2="175.58" y2="156.93"/><line class="cls-9" x1="179.4" y1="155.51" x2="176.91" y2="155.51"/><line class="cls-9" x1="175.58" y1="154.09" x2="175.58" y2="151.7"/><line class="cls-9" x1="174.16" y1="155.51" x2="171.76" y2="155.51"/><path class="cls-9" d="M180.16,143.45a20.15,20.15,0,0,0-9.55-7.83"/><path class="cls-9" d="M183,155.49a20.19,20.19,0,0,0-2.83-12"/><path class="cls-9" d="M170.61,175.41a20.15,20.15,0,0,0,9.55-7.83"/><path class="cls-9" d="M180.14,167.58a20.19,20.19,0,0,0,2.83-12"/><path class="cls-9" d="M160.42,140.15a37.15,37.15,0,0,0-3.74,13.74"/><path class="cls-9" d="M162.31,173.85a11.47,11.47,0,0,0,9.46,4.29"/><path class="cls-9" d="M156.55,153.88a21.1,21.1,0,0,0,0,3.18"/><path class="cls-9" d="M179.4,168.14a82.56,82.56,0,0,0,0-25.35"/><path class="cls-9" d="M168.83,176.91a28.51,28.51,0,0,0,18.5-6.42"/><path class="cls-9" d="M188.65,168.44a57,57,0,0,0,1.4-13"/><path class="cls-9" d="M187.33,170.55a3.79,3.79,0,0,0,1.3-2.08"/><path class="cls-9" d="M187.35,168.26a95.76,95.76,0,0,0,.92-12.78"/><path class="cls-9" d="M168.81,177a25.64,25.64,0,0,0,17.27-6.4"/><path class="cls-9" d="M186.11,170.55a3.75,3.75,0,0,0,1.24-2.31"/><path class="cls-9" d="M186.11,140.45A25.64,25.64,0,0,0,168.84,134"/><path class="cls-9" d="M187.36,140.48A28.5,28.5,0,0,0,168.87,134"/><path class="cls-9" d="M188.27,155.5a95.59,95.59,0,0,0-.9-12.77"/><path class="cls-9" d="M190.05,155.53a56.48,56.48,0,0,0-1.39-13"/><path class="cls-9" d="M187.35,142.7a3.75,3.75,0,0,0-1.24-2.31"/><path class="cls-9" d="M188.63,142.57a3.8,3.8,0,0,0-1.29-2.09"/><path class="cls-9" d="M171.77,132.88a11.5,11.5,0,0,0-9.46,4.3"/><path class="cls-9" d="M162.28,137.1a17.62,17.62,0,0,0-1.95,3"/><path class="cls-9" d="M160.33,170.83a18.44,18.44,0,0,0,1.95,3"/><path class="cls-9" d="M156.68,157.05a37.2,37.2,0,0,0,3.74,13.74"/><path class="cls-9" d="M159.81,149.23a26.59,26.59,0,0,0,0,12.48"/><path class="cls-9" d="M170.58,135.64A6.79,6.79,0,0,0,165,138"/><path class="cls-9" d="M165.06,138a24.51,24.51,0,0,0-5.18,11.28"/><path class="cls-9" d="M165,173.05a6.79,6.79,0,0,0,5.6,2.34"/><path class="cls-9" d="M159.88,161.68A24.5,24.5,0,0,0,165.06,173"/><path class="cls-9" d="M178.6,155.47a3,3,0,1,0-3,3,3,3,0,0,0,3-3"/><path class="cls-9" d="M177.71,155.47a2.09,2.09,0,1,0-2.09,2.09,2.09,2.09,0,0,0,2.09-2.09"/><line class="cls-9" x1="177.98" y1="89.02" x2="148.41" y2="89.02"/><polyline class="cls-9" points="179.84 87.68 190.94 87.68 190.94 119.65"/><line class="cls-9" x1="172.83" y1="103.66" x2="172.83" y2="115.47"/><polyline class="cls-9" points="148.41 89.02 172.83 91.86 172.83 103.67"/><line class="cls-9" x1="148.41" y1="118.31" x2="172.83" y2="115.47"/><line class="cls-9" x1="148.41" y1="89.73" x2="172.83" y2="92.57"/><line class="cls-9" x1="148.41" y1="117.6" x2="172.83" y2="114.76"/><line class="cls-9" x1="178.06" y1="118.31" x2="148.41" y2="118.31"/><line class="cls-9" x1="190.94" y1="119.65" x2="179.84" y2="119.65"/><polyline class="cls-9" points="148.41 89.02 145.13 89.37 142.11 90.61 139.35 92.66 137.14 95.32 135.63 98.43 134.83 101.89 134.83 105.44 135.63 108.9 137.14 112.01 139.35 114.67 142.11 116.72 145.13 117.96 148.41 118.31"/><polyline class="cls-9" points="148.41 89.73 145.3 90.17 142.37 91.32 139.8 93.28 137.76 95.76 136.34 98.69 135.54 101.98 135.54 105.35 136.34 108.64 137.76 111.57 139.8 114.05 142.37 116.01 145.3 117.16 148.41 117.6"/><path class="cls-9" d="M178,89.33a135.07,135.07,0,0,0,0,28.57"/><path class="cls-9" d="M179.88,87.68A1.87,1.87,0,0,0,178,89.31"/><path class="cls-9" d="M178,117.92a1.86,1.86,0,0,0,1.89,1.64"/><path class="cls-9" d="M185.52,103.62a1.56,1.56,0,1,0-1.55,1.55,1.54,1.54,0,0,0,1.55-1.55"/><polyline class="cls-9" points="844.82 212.69 890.99 212.69 890.99 213.13 844.82 213.13 844.82 212.69"/><polyline class="cls-9" points="892.23 211.45 892.23 134.29 892.67 134.29 892.67 211.45 892.23 211.45"/><polyline class="cls-9" points="890.99 133.05 844.82 133.05 844.82 132.61 890.99 132.61 890.99 133.05"/><polyline class="cls-9" points="842.69 211.45 844.82 211.45 844.82 213.58 842.69 213.58 842.69 211.45"/><polyline class="cls-9" points="890.99 211.45 893.03 211.45 893.03 213.58 890.99 213.58 890.99 211.45"/><polyline class="cls-9" points="890.99 134.29 890.99 132.16 893.03 132.16 893.03 134.29 890.99 134.29"/><polyline class="cls-9" points="844.82 134.29 842.69 134.29 842.69 132.16 844.82 132.16 844.82 134.29"/><line class="cls-9" x1="843.75" y1="211.45" x2="890.99" y2="211.45"/><line class="cls-9" x1="893.03" y1="213.58" x2="843.75" y2="213.58"/><line class="cls-9" x1="890.99" y1="211.45" x2="890.99" y2="134.29"/><line class="cls-9" x1="893.03" y1="132.16" x2="893.03" y2="213.58"/><line class="cls-9" x1="890.99" y1="134.29" x2="843.75" y2="134.29"/><line class="cls-9" x1="843.75" y1="132.16" x2="893.03" y2="132.16"/><polyline class="cls-9" points="843.75 213.58 842.69 213.58 842.69 211.45 843.75 211.45"/><polyline class="cls-9" points="843.75 134.29 842.69 134.29 842.69 132.16 843.75 132.16"/><polyline class="cls-9" points="893.03 132.16 893.03 213.58 843.75 213.58 843.75 211.45 890.99 211.45 890.99 134.29 843.75 134.29 843.75 132.16 893.03 132.16"/><polyline class="cls-9" points="877.93 136.43 877.93 209.41 851.12 209.41 851.12 136.43 877.93 136.43"/><polyline class="cls-9" points="875.27 136.43 875.27 209.41 851.12 209.41 851.12 136.43 875.27 136.43"/><line class="cls-9" x1="699.3" y1="329.35" x2="210.2" y2="329.35"/><polyline class="cls-9" points="193.42 329.35 193.42 342.76 287.85 342.76"/><line class="cls-9" x1="210.2" y1="342.76" x2="699.3" y2="342.76"/><line class="cls-9" x1="17.28" y1="342.76" x2="17.28" y2="70.11"/><polyline class="cls-9" points="0.5 0.5 0.5 342.76 51.24 342.76"/><line class="cls-9" x1="210.2" y1="312.57" x2="193.42" y2="312.57"/><line class="cls-9" x1="210.2" y1="237.02" x2="193.42" y2="237.02"/><line class="cls-9" x1="210.2" y1="329.35" x2="210.2" y2="312.57"/><line class="cls-9" x1="210.2" y1="237.02" x2="210.2" y2="70.11"/><line class="cls-9" x1="193.42" y1="70.11" x2="193.42" y2="237.02"/><line class="cls-9" x1="193.42" y1="312.57" x2="193.42" y2="329.35"/><line class="cls-9" x1="210.2" y1="237.02" x2="193.42" y2="237.02"/><line class="cls-9" x1="210.2" y1="312.57" x2="193.42" y2="312.57"/><line class="cls-5" x1="258.23" y1="170.78" x2="259.73" y2="170.78"/><line class="cls-10" x1="262.7" y1="170.78" x2="409.38" y2="170.78"/><polyline class="cls-5" points="410.86 170.78 412.36 170.78 412.36 169.28"/><line class="cls-11" x1="412.36" y1="166.32" x2="412.36" y2="73.09"/><line class="cls-5" x1="412.36" y1="71.61" x2="412.36" y2="70.11"/></svg>