<svg id="_137" data-name="137" xmlns="http://www.w3.org/2000/svg" viewBox="0 0 305.56 830.98"><defs><style>.cls-1{isolation:isolate;font-size:12px;fill:#969696;}.cls-1,.cls-3,.cls-5{font-family:PTSans-Regular, PT Sans;}.cls-2,.cls-4,.cls-6,.cls-7{fill:none;stroke-linecap:round;stroke-linejoin:round;}.cls-2{stroke:#969696;stroke-width:0.75px;}.cls-3{font-size:40px;}.cls-4,.cls-6,.cls-7{stroke:#000;}.cls-4{stroke-width:0.5px;}.cls-5{font-size:36px;}.cls-6{stroke-width:0.25px;stroke-dasharray:1 1;}</style></defs><title>15floor_137flat</title><text class="cls-1" transform="translate(147.21 827.78)">двор</text><line class="cls-2" x1="136.45" y1="830.6" x2="136.45" y2="821.8"/><polyline class="cls-2" points="132.95 827.1 136.45 830.6 139.95 827.1"/><text class="cls-3" transform="translate(119.1 524.77)">CT</text><text class="cls-3" transform="translate(93.74 574.94)">26.60</text><text class="cls-3" transform="translate(88.46 474.86)">№137</text><polyline class="cls-4" points="79.45 585.76 79.45 436.68 203.78 436.68 203.78 585.76"/><line class="cls-4" x1="79.45" y1="486.47" x2="203.78" y2="486.47"/><line class="cls-4" x1="79.45" y1="585.76" x2="203.78" y2="585.76"/><line class="cls-4" x1="79.45" y1="536.26" x2="203.78" y2="536.26"/><text class="cls-5" transform="translate(94.79 665.63)">17.01</text><text class="cls-5" transform="translate(149.68 339.73)">2.16</text><text class="cls-5" transform="translate(49.39 154.53)">3.81</text><text class="cls-5" transform="translate(175.4 138.81)">3.62</text><line class="cls-6" x1="136.87" y1="0.75" x2="64.54" y2="0.75"/><line class="cls-6" x1="144.81" y1="93.33" x2="144.81" y2="163.44"/><line class="cls-6" x1="151.11" y1="93.33" x2="151.11" y2="163.44"/><line class="cls-6" x1="135.01" y1="227.09" x2="64.9" y2="227.09"/><line class="cls-6" x1="135.01" y1="220.18" x2="64.9" y2="220.18"/><polyline class="cls-7" points="294.17 722.62 305.06 721.03 294.17 722.62 250.11 729.04"/><line class="cls-7" x1="304.98" y1="713.35" x2="273.72" y2="717.61"/><line class="cls-7" x1="304.98" y1="713.35" x2="273.72" y2="717.61"/><line class="cls-7" x1="248.94" y1="721.2" x2="273.72" y2="717.61"/><line class="cls-7" x1="247.02" y1="729.46" x2="245.85" y2="721.7"/><line class="cls-7" x1="248.94" y1="721.2" x2="246.6" y2="721.53"/><line class="cls-7" x1="246.6" y1="721.53" x2="245.85" y2="721.7"/><line class="cls-7" x1="247.1" y1="730.29" x2="247.02" y2="729.46"/><line class="cls-7" x1="248.94" y1="721.2" x2="248.94" y2="721.2"/><polyline class="cls-7" points="250.11 729.04 247.77 729.38 246.6 721.53 247.77 729.38"/><line class="cls-7" x1="247.85" y1="730.13" x2="247.1" y2="730.29"/><polyline class="cls-7" points="248.94 721.2 248.27 716.52 246.1 701.75"/><line class="cls-7" x1="247.85" y1="730.13" x2="304.73" y2="722.2"/><line class="cls-7" x1="297.26" y1="694.24" x2="246.1" y2="701.75"/><polyline class="cls-7" points="134.61 750.65 247.69 734.13 247.1 730.29"/><line class="cls-7" x1="135.61" y1="717.78" x2="246.1" y2="701.75"/><line class="cls-7" x1="134.78" y1="746.65" x2="247.1" y2="730.29"/><line class="cls-7" x1="135.61" y1="717.78" x2="246.1" y2="701.75"/><polyline class="cls-7" points="135.11 733.05 139.45 732.38 139.87 735.47 141.87 735.22 142.04 736.8 135.78 737.72 135.03 737.8"/><polyline class="cls-7" points="202.12 728.04 199.03 728.46 198.78 726.96 200.79 726.62 200.29 723.53 201.45 723.37"/><line class="cls-7" x1="199.03" y1="728.46" x2="142.04" y2="736.8"/><polyline class="cls-7" points="139.2 730.79 143.87 730.13 195.36 722.62"/><polyline class="cls-7" points="143.87 730.13 144.54 734.8 139.87 735.47 139.2 730.79"/><polyline class="cls-7" points="200.79 726.62 196.03 727.37 195.36 722.62 200.03 721.95 200.79 726.62"/><line class="cls-7" x1="196.03" y1="727.37" x2="144.54" y2="734.8"/><line class="cls-7" x1="143.87" y1="730.13" x2="195.36" y2="722.62"/><line class="cls-7" x1="144.21" y1="732.46" x2="195.7" y2="724.95"/><line class="cls-7" x1="135.78" y1="737.72" x2="135.11" y2="733.05"/><polyline class="cls-7" points="201.45 723.37 202.62 723.2 203.12 726.29 205.04 726.04 205.29 727.62 202.12 728.04"/><polyline class="cls-7" points="248.94 721.2 242.76 722.12 242.51 720.61 244.43 720.28 244.01 717.19 248.27 716.52"/><line class="cls-7" x1="242.76" y1="722.11" x2="205.29" y2="727.62"/><polyline class="cls-7" points="202.37 721.61 207.13 720.95 239.09 716.27"/><polyline class="cls-7" points="207.13 720.95 207.8 725.62 203.12 726.29 202.37 721.61"/><polyline class="cls-7" points="244.43 720.28 239.76 720.95 239.09 716.27 243.76 715.61 244.43 720.28"/><line class="cls-7" x1="239.76" y1="720.95" x2="207.8" y2="725.62"/><line class="cls-7" x1="207.13" y1="720.95" x2="239.09" y2="716.27"/><line class="cls-7" x1="207.46" y1="723.28" x2="239.42" y2="718.61"/><polyline class="cls-7" points="246.1 701.75 248.27 716.52 248.94 721.2 248.27 716.52"/><line class="cls-7" x1="247.1" y1="730.29" x2="247.02" y2="729.46"/><polyline class="cls-7" points="245.85 721.7 246.6 721.53 245.85 721.7"/><polyline class="cls-7" points="246.6 721.53 248.94 721.2 246.6 721.53"/><line class="cls-7" x1="247.02" y1="729.46" x2="245.85" y2="721.7"/><polyline class="cls-7" points="63.09 731.04 13.1 720.78 1.33 718.36 13.1 720.78"/><polyline class="cls-7" points="13.1 712.77 13.1 708.68 13.1 712.77"/><line class="cls-7" x1="13.1" y1="712.77" x2="64.68" y2="723.37"/><line class="cls-7" x1="66.18" y1="731.71" x2="67.76" y2="723.95"/><line class="cls-7" x1="64.68" y1="723.37" x2="67.01" y2="723.78"/><line class="cls-7" x1="67.01" y1="723.78" x2="67.76" y2="723.95"/><line class="cls-7" x1="66.01" y1="732.46" x2="66.18" y2="731.71"/><line class="cls-7" x1="64.68" y1="723.37" x2="64.68" y2="723.37"/><polyline class="cls-7" points="63.09 731.04 65.43 731.54 67.01 723.78 65.43 731.54"/><line class="cls-7" x1="65.26" y1="732.3" x2="66.01" y2="732.46"/><polyline class="cls-7" points="64.67 723.37 65.68 718.69 68.68 704"/><line class="cls-7" x1="0.5" y1="719.03" x2="1.33" y2="719.19"/><line class="cls-7" x1="1.33" y1="719.19" x2="65.26" y2="732.3"/><line class="cls-7" x1="68.68" y1="704.01" x2="28.87" y2="695.83"/><polyline class="cls-7" points="134.61 750.65 65.26 736.3 66.01 732.46"/><line class="cls-7" x1="135.61" y1="717.78" x2="68.68" y2="704.01"/><line class="cls-7" x1="134.78" y1="746.65" x2="66.01" y2="732.46"/><line class="cls-7" x1="135.61" y1="717.78" x2="68.68" y2="704.01"/><polyline class="cls-7" points="135.19 733.05 130.94 732.13 130.27 735.22 128.35 734.8 128.02 736.38 134.19 737.64 135.03 737.8"/><polyline class="cls-7" points="64.67 723.37 70.85 724.62 71.18 723.03 69.27 722.7 69.93 719.61 65.68 718.69"/><line class="cls-7" x1="70.85" y1="724.62" x2="128.02" y2="736.38"/><polyline class="cls-7" points="131.19 730.63 126.6 729.63 74.86 719.03"/><polyline class="cls-7" points="126.6 729.63 125.68 734.3 130.27 735.22 131.19 730.63"/><polyline class="cls-7" points="69.27 722.7 73.86 723.62 74.86 719.03 70.18 718.02 69.27 722.7"/><line class="cls-7" x1="73.85" y1="723.62" x2="125.68" y2="734.3"/><line class="cls-7" x1="126.6" y1="729.63" x2="74.86" y2="719.03"/><line class="cls-7" x1="126.1" y1="731.96" x2="74.36" y2="721.28"/><line class="cls-7" x1="134.19" y1="737.64" x2="135.19" y2="733.05"/><polyline class="cls-7" points="68.68 704 65.68 718.69 64.67 723.37 65.68 718.69"/><line class="cls-7" x1="66.01" y1="732.46" x2="66.18" y2="731.71"/><polyline class="cls-7" points="67.76 723.95 67.01 723.78 67.76 723.95"/><polyline class="cls-7" points="67.01 723.78 64.67 723.37 67.01 723.78"/><line class="cls-7" x1="66.18" y1="731.71" x2="67.76" y2="723.95"/><polyline class="cls-7" points="1.33 631.32 1.33 710.26 1.33 718.36"/><polyline class="cls-7" points="13.1 631.32 13.1 692.57 28.87 695.83 13.1 692.57 13.1 708.68 13.1 692.57"/><line class="cls-7" x1="28.87" y1="695.83" x2="28.87" y2="631.32"/><line class="cls-7" x1="9.18" y1="631.32" x2="13.1" y2="631.32"/><line class="cls-7" x1="13.1" y1="631.32" x2="28.87" y2="631.32"/><line class="cls-7" x1="0.5" y1="631.32" x2="0.5" y2="719.03"/><line class="cls-7" x1="28.87" y1="584" x2="0.5" y2="584"/><polyline class="cls-7" points="1.33 584 1.33 584 1.33 584"/><line class="cls-7" x1="9.18" y1="611.62" x2="9.18" y2="603.7"/><line class="cls-7" x1="9.18" y1="611.62" x2="9.18" y2="584"/><line class="cls-7" x1="1.33" y1="584" x2="1.33" y2="631.32"/><line class="cls-7" x1="9.18" y1="611.62" x2="9.18" y2="631.32"/><polyline class="cls-7" points="28.87 584 28.87 603.7 28.87 631.32"/><line class="cls-7" x1="0.5" y1="584" x2="0.5" y2="631.32"/><line class="cls-7" x1="9.18" y1="631.32" x2="28.87" y2="631.32"/><polyline class="cls-7" points="139.28 16.27 139.28 6.76 139.28 0.5"/><polyline class="cls-7" points="60.42 16.27 60.42 6.76 60.42 0.5"/><line class="cls-7" x1="28.87" y1="16.27" x2="60.42" y2="16.27"/><line class="cls-7" x1="28.87" y1="0.75" x2="60.42" y2="0.75"/><line class="cls-7" x1="139.28" y1="16.27" x2="144.79" y2="16.27"/><line class="cls-7" x1="160.56" y1="0.5" x2="139.28" y2="0.5"/><line class="cls-7" x1="60.42" y1="0.5" x2="60.67" y2="0.5"/><line class="cls-7" x1="60.75" y1="0.5" x2="60.75" y2="0.5"/><line class="cls-7" x1="60.84" y1="0.5" x2="61.09" y2="0.5"/><line class="cls-7" x1="61.17" y1="0.5" x2="61.17" y2="0.5"/><line class="cls-7" x1="61.25" y1="0.5" x2="61.25" y2="0.5"/><line class="cls-7" x1="138.03" y1="0.5" x2="138.03" y2="0.5"/><line class="cls-7" x1="138.11" y1="0.5" x2="138.11" y2="0.5"/><polyline class="cls-7" points="138.2 0.5 138.45 0.5 138.53 0.5 138.61 0.5 138.86 0.5"/><line class="cls-7" x1="138.95" y1="0.5" x2="138.95" y2="0.5"/><line class="cls-7" x1="139.03" y1="0.5" x2="139.03" y2="0.5"/><line class="cls-7" x1="139.11" y1="0.5" x2="139.28" y2="0.5"/><path class="cls-7" d="M63.37,6.58a72.56,72.56,0,0,0,72.56,72.56" transform="translate(0.23 0.23)"/><polyline class="cls-7" points="60.42 0.5 63.59 0.5 63.59 6.76 60.42 6.76 60.42 0.5"/><polyline class="cls-7" points="139.28 6.76 136.11 6.76 136.11 0.5 139.28 0.5 139.28 6.76"/><line class="cls-7" x1="136.11" y1="6.76" x2="136.11" y2="79.36"/><polyline class="cls-7" points="60.42 0.5 60.42 6.76 60.42 0.5"/><line class="cls-7" x1="60.42" y1="16.27" x2="60.42" y2="6.76"/><polyline class="cls-7" points="139.28 0.5 139.28 6.76 139.28 0.5"/><line class="cls-7" x1="139.28" y1="16.27" x2="139.28" y2="6.76"/><polyline class="cls-7" points="289.16 16.27 289.16 694.41 304.85 694.41 304.85 69.1"/><line class="cls-7" x1="304.85" y1="53.33" x2="304.85" y2="0.5"/><polyline class="cls-7" points="13.1 16.27 13.1 584 28.87 584 28.87 16.27"/><line class="cls-7" x1="144.79" y1="153.47" x2="151.13" y2="153.47"/><line class="cls-7" x1="144.79" y1="98.31" x2="151.13" y2="98.31"/><line class="cls-7" x1="151.13" y1="220.48" x2="151.13" y2="153.47"/><polyline class="cls-7" points="151.13 98.31 151.13 57.25 144.79 57.25 144.79 98.31"/><line class="cls-7" x1="144.79" y1="153.47" x2="144.79" y2="220.48"/><line class="cls-7" x1="64.42" y1="220.48" x2="64.42" y2="226.82"/><line class="cls-7" x1="135.36" y1="220.48" x2="135.36" y2="226.82"/><line class="cls-7" x1="28.87" y1="226.82" x2="64.42" y2="226.82"/><line class="cls-7" x1="135.36" y1="226.82" x2="174" y2="226.82"/><line class="cls-7" x1="180.34" y1="226.82" x2="267.05" y2="226.82"/><polyline class="cls-7" points="273.39 226.82 289.16 226.82 289.16 220.48 151.13 220.48"/><line class="cls-7" x1="144.79" y1="220.48" x2="135.36" y2="220.48"/><polyline class="cls-7" points="64.42 220.48 28.87 220.48 28.87 226.82"/><line class="cls-7" x1="174" y1="226.82" x2="174" y2="276.48"/><line class="cls-7" x1="180.34" y1="270.14" x2="180.34" y2="226.82"/><polyline class="cls-7" points="174 276.48 180.34 276.48 289.16 276.48 289.16 270.13 273.39 270.13"/><line class="cls-7" x1="267.05" y1="270.14" x2="180.34" y2="270.14"/><line class="cls-7" x1="144.79" y1="16.27" x2="144.79" y2="57.25"/><polyline class="cls-7" points="160.56 0.5 160.56 16.27 160.56 41.48 223.65 41.48"/><polyline class="cls-7" points="144.79 57.25 160.56 57.25 239.43 57.25"/><polyline class="cls-7" points="274.89 57.25 274.89 54.08 274.89 50.99"/><polyline class="cls-7" points="239.43 57.25 243.35 57.25 243.35 54.08 243.35 50.99"/><polyline class="cls-7" points="274.89 57.25 289.16 57.25 289.16 50.99 274.89 50.99"/><polyline class="cls-7" points="243.35 50.99 239.43 50.99 239.43 57.25"/><line class="cls-7" x1="243.35" y1="57.25" x2="274.89" y2="57.25"/><line class="cls-7" x1="243.35" y1="50.99" x2="274.89" y2="50.99"/><path class="cls-7" d="M243.21,57.06a31.42,31.42,0,0,0,1.9,10.78" transform="translate(0.23 0.23)"/><line class="cls-7" x1="274.89" y1="57.25" x2="245.27" y2="68.01"/><polyline class="cls-7" points="243.35 50.99 243.35 54.08 243.35 57.25 243.35 54.08"/><polyline class="cls-7" points="274.89 50.99 274.89 54.08 274.89 57.25 274.89 54.08"/><polyline class="cls-7" points="239.43 57.25 239.43 41.48 239.43 16.27"/><line class="cls-7" x1="223.65" y1="0.5" x2="223.65" y2="41.48"/><line class="cls-7" x1="239.42" y1="16.27" x2="289.16" y2="16.27"/><line class="cls-7" x1="304.85" y1="0.5" x2="289.16" y2="0.5"/><polyline class="cls-7" points="223.65 0.5 239.43 0.5 289.16 0.5"/><line class="cls-7" x1="267.05" y1="226.82" x2="267.05" y2="270.14"/><line class="cls-7" x1="273.39" y1="270.14" x2="273.39" y2="226.82"/><polyline class="cls-7" points="160.56 9.93 223.65 9.93 223.65 0.5 160.56 0.5 160.56 9.93"/><polyline class="cls-7" points="28.87 715.94 28.87 710.18 13.1 710.18"/><polyline class="cls-7" points="304.85 722.2 304.85 710.18 289.16 710.18 289.16 715.36"/><line class="cls-7" x1="282.32" y1="208.63" x2="282.32" y2="168.41"/><line class="cls-7" x1="277.81" y1="163.73" x2="180.26" y2="163.73"/><line class="cls-7" x1="277.81" y1="213.39" x2="180.26" y2="213.39"/><line class="cls-7" x1="152.72" y1="158.98" x2="286.74" y2="158.98"/><polyline class="cls-7" points="152.72 158.98 152.72 218.14 286.74 218.14 286.74 158.98"/><line class="cls-7" x1="195.95" y1="205.13" x2="272.31" y2="205.13"/><line class="cls-7" x1="274.47" y1="202.79" x2="274.47" y2="174.33"/><line class="cls-7" x1="195.95" y1="171.91" x2="272.31" y2="171.91"/><line class="cls-7" x1="258.87" y1="190.02" x2="258.87" y2="192.94"/><line class="cls-7" x1="260.2" y1="188.52" x2="262.96" y2="188.52"/><line class="cls-7" x1="258.87" y1="187.1" x2="258.87" y2="184.18"/><line class="cls-7" x1="257.45" y1="188.52" x2="254.7" y2="188.52"/><path class="cls-7" d="M180.07,163.51c-13,0-23.49,11.11-23.49,24.83s10.52,24.82,23.49,24.82" transform="translate(0.23 0.23)"/><path class="cls-7" d="M282.09,168.22a4.59,4.59,0,0,0-4.46-4.71" transform="translate(0.23 0.23)"/><path class="cls-7" d="M277.63,213.16a4.59,4.59,0,0,0,4.46-4.71" transform="translate(0.23 0.23)"/><path class="cls-7" d="M258.69,190.8a2.47,2.47,0,1,0-2.3-2.46,2.38,2.38,0,0,0,2.3,2.46" transform="translate(0.23 0.23)"/><path class="cls-7" d="M195.76,171.69c-8.64,0-15.64,7.45-15.64,16.65s7,16.64,15.64,16.64" transform="translate(0.23 0.23)"/><path class="cls-7" d="M272.12,205a2.29,2.29,0,0,0,2.21-2.37" transform="translate(0.23 0.23)"/><path class="cls-7" d="M274.33,174.15a2.3,2.3,0,0,0-2.21-2.38" transform="translate(0.23 0.23)"/><path class="cls-7" d="M258.69,191.63a3.3,3.3,0,1,0-3.13-3.29,3.22,3.22,0,0,0,3.13,3.29" transform="translate(0.23 0.23)"/><polyline class="cls-7" points="268.72 116.42 286.74 116.42 286.74 158.98 268.72 158.98"/><line class="cls-7" x1="286.74" y1="144.37" x2="286.74" y2="131.02"/><line class="cls-7" x1="272.31" y1="141.28" x2="272.31" y2="139.03"/><line class="cls-7" x1="275.89" y1="137.7" x2="273.64" y2="137.7"/><line class="cls-7" x1="272.31" y1="136.36" x2="272.31" y2="134.11"/><line class="cls-7" x1="270.97" y1="137.7" x2="268.72" y2="137.7"/><path class="cls-7" d="M276.39,126.21a19,19,0,0,0-9-7.36" transform="translate(0.23 0.23)"/><path class="cls-7" d="M279.11,137.53a19,19,0,0,0-2.66-11.31" transform="translate(0.23 0.23)"/><path class="cls-7" d="M267.41,156.17a19,19,0,0,0,9-7.36" transform="translate(0.23 0.23)"/><path class="cls-7" d="M276.45,148.81a19,19,0,0,0,2.66-11.32" transform="translate(0.23 0.23)"/><path class="cls-7" d="M257.83,123.11A35.06,35.06,0,0,0,254.32,136" transform="translate(0.23 0.23)"/><path class="cls-7" d="M259.69,154.71a10.79,10.79,0,0,0,8.89,4" transform="translate(0.23 0.23)"/><path class="cls-7" d="M254.27,136a21.17,21.17,0,0,0,0,3" transform="translate(0.23 0.23)"/><path class="cls-7" d="M275.75,149.42a77.34,77.34,0,0,0,0-23.82" transform="translate(0.23 0.23)"/><path class="cls-7" d="M265.74,157.66a26.76,26.76,0,0,0,17.38-6" transform="translate(0.23 0.23)"/><path class="cls-7" d="M284.36,149.71a53.16,53.16,0,0,0,1.32-12.18" transform="translate(0.23 0.23)"/><path class="cls-7" d="M283.21,151.69a3.59,3.59,0,0,0,1.22-2" transform="translate(0.23 0.23)"/><path class="cls-7" d="M283.15,149.54a91.15,91.15,0,0,0,.86-12" transform="translate(0.23 0.23)"/><path class="cls-7" d="M265.8,157.75a24.05,24.05,0,0,0,16.23-6" transform="translate(0.23 0.23)"/><path class="cls-7" d="M282,151.69a3.59,3.59,0,0,0,1.17-2.17" transform="translate(0.23 0.23)"/><path class="cls-7" d="M282.06,123.31a24.11,24.11,0,0,0-16.23-6" transform="translate(0.23 0.23)"/><path class="cls-7" d="M283.15,123.42a26.75,26.75,0,0,0-17.38-6.06" transform="translate(0.23 0.23)"/><path class="cls-7" d="M284,137.54a90.73,90.73,0,0,0-.84-12" transform="translate(0.23 0.23)"/><path class="cls-7" d="M285.68,137.57a53,53,0,0,0-1.3-12.18" transform="translate(0.23 0.23)"/><path class="cls-7" d="M283.15,125.51a3.54,3.54,0,0,0-1.17-2.17" transform="translate(0.23 0.23)"/><path class="cls-7" d="M284.43,125.38a3.58,3.58,0,0,0-1.21-2" transform="translate(0.23 0.23)"/><path class="cls-7" d="M268.58,116.28a10.8,10.8,0,0,0-8.89,4" transform="translate(0.23 0.23)"/><path class="cls-7" d="M259.58,120.24a16.63,16.63,0,0,0-1.84,2.84" transform="translate(0.23 0.23)"/><path class="cls-7" d="M257.74,152a17,17,0,0,0,1.84,2.83" transform="translate(0.23 0.23)"/><path class="cls-7" d="M254.32,139a35.06,35.06,0,0,0,3.51,12.92" transform="translate(0.23 0.23)"/><path class="cls-7" d="M257.26,131.65a25,25,0,0,0,0,11.73" transform="translate(0.23 0.23)"/><path class="cls-7" d="M267.47,118.88a6.36,6.36,0,0,0-5.27,2.19" transform="translate(0.23 0.23)"/><path class="cls-7" d="M262.19,121.07a23,23,0,0,0-4.86,10.6" transform="translate(0.23 0.23)"/><path class="cls-7" d="M262.2,154a6.37,6.37,0,0,0,5.27,2.2" transform="translate(0.23 0.23)"/><path class="cls-7" d="M257.33,143.35A23,23,0,0,0,262.19,154" transform="translate(0.23 0.23)"/><path class="cls-7" d="M272.12,140.31a2.8,2.8,0,1,0-2.79-2.8,2.8,2.8,0,0,0,2.79,2.8" transform="translate(0.23 0.23)"/><path class="cls-7" d="M272.12,139.47a2,2,0,1,0-2-2,2,2,0,0,0,2,2" transform="translate(0.23 0.23)"/><line class="cls-7" x1="274.64" y1="75.02" x2="246.77" y2="75.02"/><polyline class="cls-7" points="276.31 73.86 286.74 73.86 286.74 103.81"/><line class="cls-7" x1="269.72" y1="88.79" x2="269.72" y2="99.89"/><polyline class="cls-7" points="246.85 75.02 269.72 77.69 269.72 88.79"/><line class="cls-7" x1="246.85" y1="102.56" x2="269.72" y2="99.89"/><line class="cls-7" x1="246.85" y1="75.69" x2="269.72" y2="78.36"/><line class="cls-7" x1="246.85" y1="101.89" x2="269.72" y2="99.22"/><line class="cls-7" x1="274.64" y1="102.56" x2="246.77" y2="102.56"/><line class="cls-7" x1="286.74" y1="103.81" x2="276.31" y2="103.81"/><polyline class="cls-7" points="246.85 75.02 243.76 75.44 240.84 76.61 238.26 78.44 236.17 80.95 234.75 83.87 234 87.12 234 90.46 234.75 93.72 236.17 96.64 238.26 99.14 240.84 101.06 243.76 102.23 246.85 102.56"/><polyline class="cls-7" points="246.85 75.69 243.93 76.11 241.18 77.19 238.76 79.03 236.75 81.37 235.42 84.2 234.75 87.21 234.75 90.38 235.42 93.47 236.75 96.22 238.76 98.64 241.18 100.39 243.93 101.48 246.85 101.89"/><path class="cls-7" d="M274.38,75.17a126.93,126.93,0,0,0,0,26.86" transform="translate(0.23 0.23)"/><path class="cls-7" d="M276.13,73.63a1.77,1.77,0,0,0-1.79,1.52" transform="translate(0.23 0.23)"/><path class="cls-7" d="M274.34,102.05a1.77,1.77,0,0,0,1.79,1.54" transform="translate(0.23 0.23)"/><path class="cls-7" d="M281.43,88.61A1.46,1.46,0,1,0,280,90.07a1.46,1.46,0,0,0,1.46-1.46" transform="translate(0.23 0.23)"/><polyline class="cls-7" points="241.84 278.81 241.84 322.21 285.16 322.21 285.16 278.81 241.84 278.81"/><polyline class="cls-7" points="245.77 282.82 245.77 318.29 277.31 318.29 277.31 282.82 245.77 282.82"/><polyline class="cls-7" points="133.94 748.49 133.61 748.4 124.84 790.88 125.26 790.96 133.94 748.49"/><polyline class="cls-7" points="123.34 792.13 123.43 791.8 52.41 777.19 52.32 777.53 123.34 792.13"/><polyline class="cls-7" points="51.07 775.69 51.49 775.77 60.17 733.3 59.84 733.21 51.07 775.69"/><polyline class="cls-7" points="134.78 746.65 132.86 746.23 132.44 748.15 134.36 748.57 134.78 746.65"/><polyline class="cls-7" points="125.59 791.05 123.68 790.63 123.26 792.55 125.18 792.97 125.59 791.05"/><polyline class="cls-7" points="52.24 777.94 52.66 776.02 50.66 775.61 50.32 777.53 52.24 777.94"/><polyline class="cls-7" points="59.42 733.13 61.34 733.55 61.75 731.63 59.84 731.21 59.42 733.13"/><line class="cls-7" x1="132.61" y1="747.15" x2="123.68" y2="790.63"/><line class="cls-7" x1="125.18" y1="792.97" x2="134.52" y2="747.57"/><line class="cls-7" x1="123.68" y1="790.63" x2="52.66" y2="776.02"/><line class="cls-7" x1="50.32" y1="777.53" x2="125.18" y2="792.97"/><line class="cls-7" x1="52.66" y1="776.02" x2="61.59" y2="732.55"/><line class="cls-7" x1="59.67" y1="732.13" x2="50.32" y2="777.53"/><polyline class="cls-7" points="134.53 747.57 134.78 746.65 132.86 746.23 132.6 747.15"/><polyline class="cls-7" points="61.59 732.55 61.75 731.63 59.84 731.21 59.67 732.13"/><polyline class="cls-7" points="50.32 777.53 125.18 792.97 134.53 747.57 132.6 747.15 123.68 790.63 52.66 776.02 61.59 732.55 59.67 732.13 50.32 777.53"/><polyline class="cls-7" points="57 764.42 124.18 778.28 129.27 753.58 62.09 739.72 57 764.42"/><polyline class="cls-7" points="57.5 761.92 124.76 775.77 129.27 753.58 62.09 739.72 57.5 761.92"/><polyline class="cls-7" points="13.1 710.18 28.87 710.18 28.87 631.32 13.1 631.32 13.1 710.18"/><polyline class="cls-7" points="13.1 371.11 28.87 371.11 28.87 292.25 13.1 292.25 13.1 371.11"/><polyline class="cls-7" points="289.16 631.32 304.85 631.32 304.85 710.18 289.16 710.18 289.16 631.32"/><polyline class="cls-7" points="289.16 292.25 304.85 292.25 304.85 371.11 289.16 371.11 289.16 292.25"/><polyline class="cls-7" points="289.16 0.5 304.85 0.5 304.85 79.36 289.16 79.36 289.16 0.5"/><polyline class="cls-7" points="13.1 79.36 28.87 79.36 28.87 0.5 13.1 0.5 13.1 79.36"/></svg>