<svg id="_136" data-name="136" xmlns="http://www.w3.org/2000/svg" viewBox="0 0 292.87 830.48"><defs><style>.cls-1{isolation:isolate;font-size:12px;fill:#969696;}.cls-1,.cls-3,.cls-5{font-family:PTSans-Regular, PT Sans;}.cls-2,.cls-4,.cls-6,.cls-7{fill:none;stroke-linecap:round;stroke-linejoin:round;}.cls-2{stroke:#969696;stroke-width:0.75px;}.cls-3{font-size:40px;}.cls-4,.cls-6,.cls-7{stroke:#000;}.cls-4{stroke-width:0.5px;}.cls-5{font-size:36px;}.cls-6{stroke-width:0.25px;stroke-dasharray:1 1;}</style></defs><title>15floor_136flat</title><text class="cls-1" transform="translate(133.93 827.28)">двор</text><line class="cls-2" x1="123.17" y1="830.1" x2="123.17" y2="821.3"/><polyline class="cls-2" points="119.67 826.6 123.17 830.1 126.67 826.6"/><text class="cls-3" transform="translate(122.4 524.76)">CT</text><text class="cls-3" transform="translate(97.04 574.94)">26.11</text><text class="cls-3" transform="translate(91.76 474.86)">№136</text><polyline class="cls-4" points="82.75 585.75 82.75 436.68 207.07 436.68 207.07 585.75"/><line class="cls-4" x1="82.75" y1="486.46" x2="207.07" y2="486.46"/><line class="cls-4" x1="82.75" y1="585.75" x2="207.07" y2="585.75"/><line class="cls-4" x1="82.75" y1="536.25" x2="207.07" y2="536.25"/><text class="cls-5" transform="translate(101.24 665.63)">16.74</text><text class="cls-5" transform="translate(71.54 339.72)">2.20</text><text class="cls-5" transform="translate(184.52 164.67)">3.81</text><text class="cls-5" transform="translate(77.83 189.8)">3.36</text><line class="cls-6" x1="242.1" y1="0.75" x2="169.78" y2="0.75"/><line class="cls-6" x1="244.28" y1="220.78" x2="174.17" y2="220.78"/><line class="cls-6" x1="154.25" y1="127.72" x2="154.25" y2="197.83"/><line class="cls-6" x1="160.55" y1="127.72" x2="160.55" y2="197.83"/><line class="cls-6" x1="244.28" y1="227.08" x2="174.17" y2="227.08"/><polyline class="cls-7" points="289.79 721.86 292.12 721.52 289.79 721.86 237.54 729.2"/><line class="cls-7" x1="292.37" y1="713.51" x2="260.41" y2="717.93"/><line class="cls-7" x1="292.37" y1="713.51" x2="260.41" y2="717.93"/><line class="cls-7" x1="236.46" y1="721.36" x2="260.41" y2="717.93"/><line class="cls-7" x1="234.46" y1="729.62" x2="233.29" y2="721.86"/><line class="cls-7" x1="236.46" y1="721.36" x2="234.12" y2="721.69"/><line class="cls-7" x1="234.12" y1="721.69" x2="233.29" y2="721.86"/><line class="cls-7" x1="234.54" y1="730.45" x2="234.46" y2="729.62"/><line class="cls-7" x1="236.46" y1="721.36" x2="236.46" y2="721.36"/><polyline class="cls-7" points="237.54 729.2 235.21 729.53 234.12 721.69 235.21 729.53"/><line class="cls-7" x1="235.29" y1="730.29" x2="234.54" y2="730.45"/><polyline class="cls-7" points="236.46 721.36 235.79 716.68 233.62 701.91"/><line class="cls-7" x1="235.29" y1="730.29" x2="292.12" y2="722.36"/><line class="cls-7" x1="284.03" y1="694.65" x2="233.62" y2="701.91"/><polyline class="cls-7" points="122.05 750.56 235.13 734.29 234.54 730.45"/><line class="cls-7" x1="123.05" y1="717.77" x2="233.62" y2="701.91"/><line class="cls-7" x1="122.21" y1="746.64" x2="234.54" y2="730.45"/><line class="cls-7" x1="123.05" y1="717.77" x2="233.62" y2="701.91"/><polyline class="cls-7" points="122.63 733.04 126.89 732.37 127.31 735.54 129.31 735.21 129.47 736.79 123.3 737.71 122.47 737.8"/><polyline class="cls-7" points="189.64 728.12 186.47 728.62 186.22 727.03 188.22 726.7 187.72 723.61 188.89 723.44"/><line class="cls-7" x1="186.47" y1="728.62" x2="129.47" y2="736.79"/><polyline class="cls-7" points="126.64 730.79 131.31 730.12 182.88 722.69"/><polyline class="cls-7" points="131.31 730.12 131.98 734.79 127.31 735.54 126.64 730.79"/><polyline class="cls-7" points="188.22 726.7 183.55 727.45 182.88 722.69 187.56 722.02 188.22 726.7"/><line class="cls-7" x1="183.55" y1="727.45" x2="131.98" y2="734.79"/><line class="cls-7" x1="131.31" y1="730.12" x2="182.88" y2="722.69"/><line class="cls-7" x1="131.64" y1="732.45" x2="183.22" y2="725.11"/><line class="cls-7" x1="123.3" y1="737.71" x2="122.63" y2="733.04"/><polyline class="cls-7" points="188.89 723.44 190.14 723.27 190.56 726.36 192.48 726.11 192.73 727.7 189.64 728.12"/><polyline class="cls-7" points="236.46 721.36 230.2 722.27 229.95 720.69 231.95 720.44 231.45 717.35 235.79 716.68"/><line class="cls-7" x1="230.2" y1="722.27" x2="192.73" y2="727.7"/><polyline class="cls-7" points="189.89 721.69 194.57 721.02 226.53 716.43"/><polyline class="cls-7" points="194.57 721.02 195.24 725.7 190.56 726.36 189.89 721.69"/><polyline class="cls-7" points="231.95 720.44 227.2 721.11 226.53 716.43 231.2 715.76 231.95 720.44"/><line class="cls-7" x1="227.2" y1="721.11" x2="195.23" y2="725.7"/><line class="cls-7" x1="194.57" y1="721.02" x2="226.53" y2="716.43"/><line class="cls-7" x1="194.9" y1="723.36" x2="226.86" y2="718.77"/><polyline class="cls-7" points="233.62 701.91 235.79 716.68 236.46 721.36 235.79 716.68"/><line class="cls-7" x1="234.54" y1="730.45" x2="234.46" y2="729.62"/><polyline class="cls-7" points="233.29 721.86 234.12 721.69 233.29 721.86"/><polyline class="cls-7" points="234.12 721.69 236.46 721.36 234.12 721.69"/><line class="cls-7" x1="234.46" y1="729.62" x2="233.29" y2="721.86"/><line class="cls-7" x1="0.5" y1="721.06" x2="50.53" y2="731.04"/><line class="cls-7" x1="0.75" y1="713.05" x2="52.11" y2="723.36"/><line class="cls-7" x1="53.62" y1="731.7" x2="55.2" y2="723.94"/><line class="cls-7" x1="52.11" y1="723.36" x2="54.45" y2="723.78"/><line class="cls-7" x1="54.45" y1="723.78" x2="55.2" y2="723.94"/><line class="cls-7" x1="53.45" y1="732.45" x2="53.62" y2="731.7"/><line class="cls-7" x1="52.11" y1="723.36" x2="52.11" y2="723.36"/><polyline class="cls-7" points="50.53 731.04 52.87 731.54 54.45 723.78 52.87 731.54"/><line class="cls-7" x1="52.7" y1="732.29" x2="53.45" y2="732.45"/><polyline class="cls-7" points="52.12 723.36 53.12 718.68 56.12 704"/><line class="cls-7" x1="0.5" y1="721.9" x2="52.7" y2="732.29"/><line class="cls-7" x1="56.12" y1="704" x2="8.72" y2="694.23"/><polyline class="cls-7" points="122.05 750.56 52.7 736.29 53.45 732.46"/><line class="cls-7" x1="123.05" y1="717.77" x2="56.12" y2="704"/><line class="cls-7" x1="122.21" y1="746.64" x2="53.45" y2="732.45"/><line class="cls-7" x1="123.05" y1="717.77" x2="56.12" y2="704"/><polyline class="cls-7" points="122.63 733.04 118.38 732.12 117.71 735.21 115.79 734.79 115.45 736.38 121.63 737.63 122.47 737.8"/><polyline class="cls-7" points="52.12 723.36 58.29 724.61 58.62 723.02 56.7 722.69 57.29 719.6 53.12 718.68"/><line class="cls-7" x1="58.29" y1="724.61" x2="115.45" y2="736.38"/><polyline class="cls-7" points="118.63 730.62 114.04 729.62 62.3 719.02"/><polyline class="cls-7" points="114.04 729.62 113.03 734.29 117.71 735.21 118.63 730.62"/><polyline class="cls-7" points="56.7 722.69 61.3 723.61 62.3 719.02 57.62 718.02 56.7 722.69"/><line class="cls-7" x1="61.29" y1="723.61" x2="113.03" y2="734.29"/><line class="cls-7" x1="114.04" y1="729.62" x2="62.3" y2="719.02"/><line class="cls-7" x1="113.54" y1="731.95" x2="61.8" y2="721.27"/><line class="cls-7" x1="121.63" y1="737.63" x2="122.63" y2="733.04"/><polyline class="cls-7" points="56.12 704 53.12 718.68 52.12 723.36 53.12 718.68"/><line class="cls-7" x1="53.45" y1="732.45" x2="53.62" y2="731.7"/><polyline class="cls-7" points="55.2 723.94 54.45 723.78 55.2 723.94"/><polyline class="cls-7" points="54.45 723.78 52.12 723.36 54.45 723.78"/><line class="cls-7" x1="53.62" y1="731.7" x2="55.2" y2="723.94"/><line class="cls-7" x1="276.6" y1="16.27" x2="276.6" y2="265.29"/><line class="cls-7" x1="292.37" y1="265.29" x2="292.37" y2="43.89"/><line class="cls-7" x1="292.37" y1="28.12" x2="292.37" y2="0.5"/><polyline class="cls-7" points="0.63 16.27 0.63 694.4 16.31 694.4 16.31 69.1"/><line class="cls-7" x1="16.31" y1="53.32" x2="16.31" y2="0.5"/><line class="cls-7" x1="160.69" y1="189.77" x2="154.34" y2="189.77"/><line class="cls-7" x1="160.69" y1="134.52" x2="154.34" y2="134.52"/><line class="cls-7" x1="160.69" y1="276.47" x2="160.69" y2="226.82"/><line class="cls-7" x1="160.69" y1="220.48" x2="160.69" y2="189.77"/><polyline class="cls-7" points="160.69 134.52 160.69 69.1 154.34 69.1 154.34 134.52"/><line class="cls-7" x1="154.34" y1="189.77" x2="154.34" y2="220.48"/><line class="cls-7" x1="154.34" y1="226.82" x2="154.34" y2="270.13"/><line class="cls-7" x1="174.04" y1="220.48" x2="174.04" y2="226.82"/><line class="cls-7" x1="245.06" y1="220.48" x2="245.06" y2="226.82"/><polyline class="cls-7" points="20.32 220.48 20.32 223.65 20.32 226.82"/><polyline class="cls-7" points="51.87 220.48 51.87 223.65 51.87 226.82"/><line class="cls-7" x1="276.6" y1="220.48" x2="245.06" y2="220.48"/><line class="cls-7" x1="174.04" y1="220.48" x2="160.69" y2="220.48"/><line class="cls-7" x1="154.34" y1="220.48" x2="51.86" y2="220.48"/><polyline class="cls-7" points="20.32 220.48 16.31 220.48 16.31 226.82 20.32 226.82"/><line class="cls-7" x1="51.86" y1="226.82" x2="55.79" y2="226.82"/><line class="cls-7" x1="62.13" y1="226.82" x2="154.34" y2="226.82"/><line class="cls-7" x1="160.69" y1="226.82" x2="174.04" y2="226.82"/><polyline class="cls-7" points="245.06 226.82 276.6 226.82 276.6 220.48"/><line class="cls-7" x1="51.86" y1="220.48" x2="20.32" y2="220.48"/><line class="cls-7" x1="51.86" y1="226.82" x2="20.32" y2="226.82"/><path class="cls-7" d="M51.86,220.52A31.41,31.41,0,0,0,50,209.75"/><line class="cls-7" x1="20.32" y1="220.48" x2="49.95" y2="209.71"/><polyline class="cls-7" points="51.87 226.82 51.87 223.65 51.87 220.48 51.87 223.65"/><polyline class="cls-7" points="20.32 226.82 20.32 223.65 20.32 220.48 20.32 223.65"/><line class="cls-7" x1="55.79" y1="226.82" x2="55.79" y2="270.13"/><polyline class="cls-7" points="154.34 270.13 62.13 270.13 62.13 226.82"/><polyline class="cls-7" points="55.79 270.13 16.31 270.13 16.31 276.48"/><polyline class="cls-7" points="160.69 276.48 154.34 276.48 16.31 276.48"/><line class="cls-7" x1="16.31" y1="69.1" x2="160.69" y2="69.1"/><line class="cls-7" x1="144.91" y1="53.32" x2="16.31" y2="53.32"/><polyline class="cls-7" points="160.69 69.1 160.69 53.33 160.69 16.27"/><line class="cls-7" x1="144.91" y1="0.5" x2="144.91" y2="53.32"/><polyline class="cls-7" points="166.19 16.27 166.19 6.76 166.19 0.5"/><polyline class="cls-7" points="245.06 16.27 245.06 6.76 245.06 0.5"/><line class="cls-7" x1="160.69" y1="16.27" x2="166.19" y2="16.27"/><line class="cls-7" x1="245.06" y1="16.27" x2="276.6" y2="16.27"/><polyline class="cls-7" points="292.37 0.5 276.6 0.5 245.06 0.5"/><polyline class="cls-7" points="144.91 0.5 160.69 0.5 166.19 0.5"/><line class="cls-7" x1="245.06" y1="0.5" x2="244.8" y2="0.5"/><line class="cls-7" x1="244.72" y1="0.5" x2="244.72" y2="0.5"/><line class="cls-7" x1="166.53" y1="0.5" x2="166.53" y2="0.5"/><line class="cls-7" x1="166.44" y1="0.5" x2="166.44" y2="0.5"/><line class="cls-7" x1="166.36" y1="0.5" x2="166.19" y2="0.5"/><path class="cls-7" d="M169.41,79.36A72.56,72.56,0,0,0,242,6.8"/><polyline class="cls-7" points="245.06 0.5 241.88 0.5 241.88 6.76 245.06 6.76 245.06 0.5"/><polyline class="cls-7" points="166.19 6.76 169.37 6.76 169.37 0.5 166.19 0.5 166.19 6.76"/><line class="cls-7" x1="169.36" y1="6.76" x2="169.36" y2="79.36"/><polyline class="cls-7" points="245.06 0.5 245.06 6.76 245.06 0.5"/><line class="cls-7" x1="245.06" y1="16.27" x2="245.06" y2="6.76"/><polyline class="cls-7" points="166.19 0.5 166.19 6.76 166.19 0.5"/><line class="cls-7" x1="166.19" y1="16.27" x2="166.19" y2="6.76"/><line class="cls-7" x1="16.31" y1="0.5" x2="0.63" y2="0.5"/><polyline class="cls-7" points="276.6 265.29 276.6 694.4 292.37 694.4 292.37 265.29"/><line class="cls-7" x1="8.47" y1="9.93" x2="99.18" y2="9.93"/><polyline class="cls-7" points="108.61 9.93 144.91 9.93 144.91 0.5 8.47 0.5 8.47 9.93"/><polyline class="cls-7" points="99.18 9.93 99.18 53.33 108.61 53.33 108.61 9.93"/><polyline class="cls-7" points="16.31 715.93 16.31 710.17 0.63 710.17 0.63 721.9"/><polyline class="cls-7" points="292.37 722.36 292.37 710.17 276.6 710.17 276.6 715.6"/><polyline class="cls-7" points="18.73 323.79 62.13 323.79 62.13 280.4 18.73 280.4 18.73 323.79"/><polyline class="cls-7" points="22.66 319.87 58.12 319.87 58.12 288.32 22.66 288.32 22.66 319.87"/><line class="cls-7" x1="23.16" y1="79.36" x2="23.16" y2="119.59"/><line class="cls-7" x1="27.66" y1="124.26" x2="125.22" y2="124.26"/><line class="cls-7" x1="27.66" y1="74.61" x2="125.22" y2="74.61"/><line class="cls-7" x1="152.76" y1="129.02" x2="18.73" y2="129.02"/><polyline class="cls-7" points="152.76 129.02 152.76 69.85 18.73 69.85 18.73 129.02"/><line class="cls-7" x1="109.53" y1="82.87" x2="33.17" y2="82.87"/><line class="cls-7" x1="31" y1="85.2" x2="31" y2="113.66"/><line class="cls-7" x1="109.53" y1="116.08" x2="33.17" y2="116.08"/><line class="cls-7" x1="46.61" y1="97.97" x2="46.61" y2="95.05"/><line class="cls-7" x1="45.27" y1="99.47" x2="42.52" y2="99.47"/><line class="cls-7" x1="46.61" y1="100.89" x2="46.61" y2="103.81"/><line class="cls-7" x1="48.03" y1="99.47" x2="50.78" y2="99.47"/><path class="cls-7" d="M125.26,124.34c13,0,23.49-11.11,23.49-24.82s-10.52-24.83-23.49-24.83"/><path class="cls-7" d="M23.24,119.63a4.59,4.59,0,0,0,4.47,4.71"/><path class="cls-7" d="M27.71,74.69a4.59,4.59,0,0,0-4.47,4.71"/><path class="cls-7" d="M46.65,102a2.47,2.47,0,1,0-2.3-2.46,2.38,2.38,0,0,0,2.3,2.46"/><path class="cls-7" d="M109.57,116.16c8.64,0,15.65-7.45,15.65-16.64s-7-16.65-15.65-16.65"/><path class="cls-7" d="M33.21,82.87A2.3,2.3,0,0,0,31,85.25"/><path class="cls-7" d="M31,113.7a2.3,2.3,0,0,0,2.21,2.38"/><path class="cls-7" d="M46.65,102.81a3.3,3.3,0,1,0-3.13-3.29,3.21,3.21,0,0,0,3.13,3.29"/><polyline class="cls-7" points="36.76 171.58 18.73 171.58 18.73 129.02 36.76 129.02"/><line class="cls-7" x1="18.73" y1="143.62" x2="18.73" y2="157.06"/><line class="cls-7" x1="33.17" y1="146.71" x2="33.17" y2="148.96"/><line class="cls-7" x1="29.58" y1="150.3" x2="31.84" y2="150.3"/><line class="cls-7" x1="33.17" y1="151.63" x2="33.17" y2="153.88"/><line class="cls-7" x1="34.51" y1="150.3" x2="36.76" y2="150.3"/><path class="cls-7" d="M29,161.64a19,19,0,0,0,9,7.36"/><path class="cls-7" d="M26.22,150.32a19,19,0,0,0,2.66,11.31"/><path class="cls-7" d="M37.92,131.68A19,19,0,0,0,29,139"/><path class="cls-7" d="M28.88,139a19,19,0,0,0-2.66,11.32"/><path class="cls-7" d="M47.5,164.74A35.08,35.08,0,0,0,51,151.82"/><path class="cls-7" d="M45.65,133.14a10.82,10.82,0,0,0-8.89-4"/><path class="cls-7" d="M51.06,151.83a21.17,21.17,0,0,0,0-3"/><path class="cls-7" d="M29.58,138.43a78,78,0,0,0,0,23.82"/><path class="cls-7" d="M39.6,130.19a26.77,26.77,0,0,0-17.39,6"/><path class="cls-7" d="M21,138.14a53.16,53.16,0,0,0-1.32,12.18"/><path class="cls-7" d="M22.12,136.24a3.52,3.52,0,0,0-1.21,2"/><path class="cls-7" d="M22.19,138.31a91.16,91.16,0,0,0-.87,12"/><path class="cls-7" d="M39.54,130.1a24.08,24.08,0,0,0-16.24,6"/><path class="cls-7" d="M23.36,136.16a3.54,3.54,0,0,0-1.17,2.17"/><path class="cls-7" d="M23.28,164.54a24.07,24.07,0,0,0,16.23,6"/><path class="cls-7" d="M22.18,164.43a26.77,26.77,0,0,0,17.38,6.06"/><path class="cls-7" d="M21.32,150.31a90.74,90.74,0,0,0,.85,12"/><path class="cls-7" d="M19.65,150.36A53.73,53.73,0,0,0,21,162.55"/><path class="cls-7" d="M22.19,162.34a3.53,3.53,0,0,0,1.16,2.17"/><path class="cls-7" d="M20.91,162.55a3.52,3.52,0,0,0,1.21,2"/><path class="cls-7" d="M36.76,171.65a10.82,10.82,0,0,0,8.89-4"/><path class="cls-7" d="M45.76,167.61a16.58,16.58,0,0,0,1.83-2.84"/><path class="cls-7" d="M47.59,135.9a16.89,16.89,0,0,0-1.83-2.83"/><path class="cls-7" d="M51,148.85a35.08,35.08,0,0,0-3.52-12.92"/><path class="cls-7" d="M48.08,156.2a25,25,0,0,0,0-11.73"/><path class="cls-7" d="M37.87,169.06a6.4,6.4,0,0,0,5.27-2.2"/><path class="cls-7" d="M43.14,166.78A23.05,23.05,0,0,0,48,156.18"/><path class="cls-7" d="M43.14,133.9a6.4,6.4,0,0,0-5.27-2.2"/><path class="cls-7" d="M48,144.5a23,23,0,0,0-4.87-10.61"/><path class="cls-7" d="M33.21,153.13a2.8,2.8,0,1,0-2.79-2.79,2.79,2.79,0,0,0,2.79,2.79"/><path class="cls-7" d="M33.21,152.3a2,2,0,1,0-2-2,2,2,0,0,0,2,2"/><line class="cls-7" x1="30.83" y1="202.7" x2="58.71" y2="202.7"/><polyline class="cls-7" points="29.17 203.96 18.73 203.96 18.73 174"/><line class="cls-7" x1="35.76" y1="188.93" x2="35.76" y2="177.83"/><polyline class="cls-7" points="58.62 202.7 35.76 200.03 35.76 188.93"/><line class="cls-7" x1="58.62" y1="175.16" x2="35.76" y2="177.83"/><line class="cls-7" x1="58.62" y1="202.04" x2="35.76" y2="199.37"/><line class="cls-7" x1="58.62" y1="175.83" x2="35.76" y2="178.5"/><line class="cls-7" x1="30.83" y1="175.16" x2="58.71" y2="175.16"/><line class="cls-7" x1="18.73" y1="174" x2="29.17" y2="174"/><polyline class="cls-7" points="58.62 202.7 61.71 202.37 64.63 201.2 67.22 199.28 69.31 196.78 70.72 193.86 71.48 190.6 71.48 187.26 70.72 184.01 69.31 181.09 67.22 178.59 64.63 176.75 61.71 175.58 58.62 175.16"/><polyline class="cls-7" points="58.62 202.04 61.55 201.62 64.3 200.53 66.72 198.78 68.72 196.36 70.06 193.61 70.72 190.52 70.72 187.35 70.06 184.34 68.72 181.51 66.72 179.17 64.3 177.33 61.55 176.25 58.62 175.83"/><path class="cls-7" d="M31,202.41a126.93,126.93,0,0,0,0-26.86"/><path class="cls-7" d="M29.21,204A1.77,1.77,0,0,0,31,202.43"/><path class="cls-7" d="M31,175.54A1.75,1.75,0,0,0,29.21,174"/><path class="cls-7" d="M26.83,189a1.46,1.46,0,1,0-1.46,1.46A1.46,1.46,0,0,0,26.83,189"/><polyline class="cls-7" points="121.38 748.48 121.05 748.39 112.28 790.87 112.7 790.96 121.38 748.48"/><polyline class="cls-7" points="110.78 792.12 110.86 791.79 39.85 777.18 39.76 777.52 110.78 792.12"/><polyline class="cls-7" points="38.51 775.68 38.93 775.77 47.61 733.29 47.27 733.21 38.51 775.68"/><polyline class="cls-7" points="122.21 746.64 120.3 746.22 119.88 748.14 121.8 748.56 122.21 746.64"/><polyline class="cls-7" points="113.03 791.04 111.11 790.62 110.7 792.54 112.62 792.96 113.03 791.04"/><polyline class="cls-7" points="39.68 777.94 40.1 776.02 38.09 775.6 37.76 777.52 39.68 777.94"/><polyline class="cls-7" points="46.86 733.12 48.78 733.54 49.19 731.62 47.27 731.2 46.86 733.12"/><line class="cls-7" x1="120.04" y1="747.14" x2="111.12" y2="790.62"/><line class="cls-7" x1="112.62" y1="792.96" x2="121.96" y2="747.56"/><line class="cls-7" x1="111.12" y1="790.62" x2="40.1" y2="776.02"/><line class="cls-7" x1="37.76" y1="777.52" x2="112.62" y2="792.96"/><line class="cls-7" x1="40.1" y1="776.02" x2="49.03" y2="732.54"/><line class="cls-7" x1="47.11" y1="732.12" x2="37.76" y2="777.52"/><polyline class="cls-7" points="121.96 747.56 122.21 746.64 120.3 746.22 120.05 747.14"/><polyline class="cls-7" points="49.03 732.54 49.19 731.62 47.27 731.2 47.11 732.12"/><polyline class="cls-7" points="37.76 777.52 112.62 792.96 121.96 747.56 120.05 747.14 111.11 790.62 40.1 776.02 49.03 732.54 47.11 732.12 37.76 777.52"/><polyline class="cls-7" points="44.44 764.42 111.62 778.27 116.71 753.57 49.53 739.72 44.44 764.42"/><polyline class="cls-7" points="44.94 761.91 112.12 775.77 116.71 753.57 49.53 739.72 44.94 761.91"/><polyline class="cls-7" points="276.6 292.25 292.37 292.25 292.37 371.11 276.6 371.11 276.6 292.25"/><polyline class="cls-7" points="276.6 631.31 292.37 631.31 292.37 710.17 276.6 710.17 276.6 631.31"/><polyline class="cls-7" points="0.63 631.31 16.31 631.31 16.31 710.17 0.63 710.17 0.63 631.31"/><polyline class="cls-7" points="0.63 292.25 16.31 292.25 16.31 371.11 0.63 371.11 0.63 292.25"/><polyline class="cls-7" points="276.6 0.5 292.37 0.5 292.37 79.36 276.6 79.36 276.6 0.5"/><polyline class="cls-7" points="0.63 0.5 16.31 0.5 16.31 79.36 0.63 79.36 0.63 0.5"/></svg>