<svg id="_369" data-name="369" xmlns="http://www.w3.org/2000/svg" viewBox="0 0 784.15 785.29"><defs><style>.cls-1{isolation:isolate;font-size:12px;fill:#969696;}.cls-1,.cls-4,.cls-5,.cls-7{font-family:PTSans-Regular, PT Sans;}.cls-2{letter-spacing:-0.01em;}.cls-10,.cls-11,.cls-12,.cls-3,.cls-6,.cls-8,.cls-9{fill:none;stroke-linecap:round;stroke-linejoin:round;}.cls-3{stroke:#969696;stroke-width:0.75px;}.cls-4{font-size:40px;}.cls-5{font-size:40.54px;}.cls-10,.cls-11,.cls-12,.cls-6,.cls-8,.cls-9{stroke:#000;}.cls-10,.cls-11,.cls-6{stroke-width:0.5px;}.cls-7{font-size:36px;}.cls-8,.cls-9{stroke-width:0.25px;}.cls-9{stroke-dasharray:0.99 0.99;}.cls-10{stroke-dasharray:2.95 2.95;}.cls-11{stroke-dasharray:2.96 2.96;}</style></defs><title>10floor_369flat</title><text class="cls-1" transform="translate(10.2 400.79) rotate(-90)"><tspan class="cls-2">у</tspan><tspan x="5.42" y="0">лица</tspan></text><line class="cls-3" x1="4.22" y1="411.55" x2="13.02" y2="411.55"/><polyline class="cls-3" points="7.72 408.05 4.22 411.55 7.72 415.05"/><text class="cls-4" transform="translate(302.59 415)">2K</text><text class="cls-5" transform="translate(277.16 465.17)">62.54</text><text class="cls-4" transform="translate(272.52 365.09)">№369</text><polyline class="cls-6" points="263.51 475.98 263.51 326.9 387.84 326.9 387.84 475.98"/><line class="cls-6" x1="263.51" y1="376.69" x2="387.84" y2="376.69"/><line class="cls-6" x1="263.51" y1="475.98" x2="387.84" y2="475.98"/><line class="cls-6" x1="263.51" y1="426.48" x2="387.84" y2="426.48"/><text class="cls-7" transform="translate(158.71 162.35)">16.10</text><text class="cls-7" transform="translate(158.71 416.09)">12.13</text><text class="cls-7" transform="translate(158.71 674.05)">15.12</text><text class="cls-7" transform="translate(462.16 689.63)">2.02</text><text class="cls-7" transform="translate(649.78 689.63)">3.20</text><text class="cls-7" transform="translate(639.42 388.44)">10.04</text><text class="cls-7" transform="translate(624.1 164.07)">3.93</text><line class="cls-8" x1="648.15" y1="627.13" x2="648.65" y2="627.13"/><line class="cls-9" x1="649.64" y1="627.13" x2="724.72" y2="627.13"/><line class="cls-8" x1="725.22" y1="627.13" x2="725.72" y2="627.13"/><line class="cls-8" x1="620.45" y1="199.28" x2="620.95" y2="199.28"/><line class="cls-9" x1="621.94" y1="199.28" x2="697.02" y2="199.28"/><line class="cls-8" x1="697.52" y1="199.28" x2="698.02" y2="199.28"/><line class="cls-8" x1="620.45" y1="205.94" x2="620.95" y2="205.94"/><line class="cls-9" x1="621.94" y1="205.94" x2="697.02" y2="205.94"/><line class="cls-8" x1="697.52" y1="205.94" x2="698.02" y2="205.94"/><line class="cls-8" x1="648.15" y1="633.79" x2="648.65" y2="633.79"/><line class="cls-9" x1="649.64" y1="633.79" x2="724.72" y2="633.79"/><line class="cls-8" x1="725.22" y1="633.79" x2="725.72" y2="633.79"/><line class="cls-8" x1="591.95" y1="615.57" x2="591.95" y2="615.07"/><line class="cls-9" x1="591.95" y1="614.08" x2="591.95" y2="539"/><line class="cls-8" x1="591.95" y1="538.5" x2="591.95" y2="538"/><line class="cls-8" x1="598.61" y1="615.57" x2="598.61" y2="615.07"/><line class="cls-9" x1="598.61" y1="614.08" x2="598.61" y2="539"/><line class="cls-8" x1="598.61" y1="538.5" x2="598.61" y2="538"/><line class="cls-8" x1="598.61" y1="503.95" x2="598.61" y2="503.45"/><line class="cls-9" x1="598.61" y1="502.46" x2="598.61" y2="427.38"/><line class="cls-8" x1="598.61" y1="426.88" x2="598.61" y2="426.38"/><line class="cls-8" x1="591.95" y1="503.95" x2="591.95" y2="503.45"/><line class="cls-9" x1="591.95" y1="502.46" x2="591.95" y2="427.38"/><line class="cls-8" x1="591.95" y1="426.88" x2="591.95" y2="426.38"/><line class="cls-8" x1="783.19" y1="498.51" x2="783.19" y2="498.01"/><line class="cls-9" x1="783.19" y1="497.02" x2="783.19" y2="421.94"/><line class="cls-8" x1="783.19" y1="421.44" x2="783.19" y2="420.94"/><line class="cls-6" x1="443.17" y1="768.65" x2="443.17" y2="767.15"/><line class="cls-10" x1="443.17" y1="764.2" x2="443.17" y2="630.1"/><polyline class="cls-6" points="443.17 628.63 443.17 627.13 444.67 627.13"/><line class="cls-11" x1="447.63" y1="627.13" x2="540.86" y2="627.13"/><line class="cls-6" x1="542.34" y1="627.13" x2="543.84" y2="627.13"/><polyline class="cls-12" points="547.93 784.79 547.93 784.79 541.19 784.79 541.19 784.79"/><polyline class="cls-12" points="599.07 763.84 595.7 763.84 592.41 763.84"/><polyline class="cls-12" points="599.07 730.28 595.7 730.28 592.41 730.28"/><line class="cls-12" x1="599.07" y1="768.01" x2="599.07" y2="763.84"/><line class="cls-12" x1="599.07" y1="730.28" x2="599.07" y2="633.87"/><line class="cls-12" x1="592.41" y1="633.87" x2="592.41" y2="713.5"/><line class="cls-12" x1="592.41" y1="720.25" x2="592.41" y2="730.28"/><polyline class="cls-12" points="592.41 763.84 592.41 768.01 599.07 768.01"/><line class="cls-12" x1="599.07" y1="730.28" x2="599.07" y2="763.84"/><line class="cls-12" x1="592.41" y1="730.28" x2="592.41" y2="763.84"/><path class="cls-12" d="M638.92,732.88a33.75,33.75,0,0,0-11.47-2" transform="translate(-28.34 -0.58)"/><line class="cls-12" x1="599.07" y1="763.84" x2="610.53" y2="732.32"/><polyline class="cls-12" points="592.41 730.28 595.7 730.28 599.07 730.28 595.7 730.28"/><polyline class="cls-12" points="592.41 763.84 595.7 763.84 599.07 763.84 595.7 763.84"/><line class="cls-12" x1="660.78" y1="627.12" x2="660.78" y2="633.87"/><line class="cls-12" x1="719.46" y1="627.12" x2="719.46" y2="633.87"/><line class="cls-12" x1="550.42" y1="633.87" x2="592.41" y2="633.87"/><line class="cls-12" x1="599.07" y1="633.87" x2="660.78" y2="633.87"/><polyline class="cls-12" points="719.46 633.87 766.87 633.87 766.87 627.12 719.46 627.12"/><line class="cls-12" x1="660.78" y1="627.12" x2="543.76" y2="627.12"/><line class="cls-12" x1="719.46" y1="627.12" x2="719.46" y2="633.87"/><line class="cls-12" x1="660.78" y1="627.12" x2="660.78" y2="633.87"/><polyline class="cls-12" points="592.41 524.75 135.99 524.75 135.99 531.5 592.41 531.5"/><polyline class="cls-12" points="543.76 627.12 543.76 633.87 543.76 768.01 550.42 768.01 550.42 720.25"/><line class="cls-12" x1="550.42" y1="713.5" x2="550.42" y2="633.87"/><line class="cls-12" x1="135.99" y1="288.24" x2="592.41" y2="288.24"/><polyline class="cls-12" points="592.41 281.49 135.99 281.49 135.99 288.24"/><line class="cls-12" x1="624.29" y1="206.03" x2="624.29" y2="199.28"/><line class="cls-12" x1="682.97" y1="206.03" x2="682.97" y2="199.28"/><line class="cls-12" x1="573.06" y1="206.03" x2="624.29" y2="206.03"/><polyline class="cls-12" points="682.97 206.03 766.87 206.03 766.87 199.28 682.97 199.28"/><line class="cls-12" x1="624.29" y1="199.28" x2="579.81" y2="199.28"/><line class="cls-12" x1="682.97" y1="206.03" x2="682.97" y2="199.28"/><line class="cls-12" x1="624.29" y1="206.03" x2="624.29" y2="199.28"/><polyline class="cls-12" points="726.56 134.65 729.94 134.65 733.31 134.65"/><polyline class="cls-12" points="726.56 25.63 726.56 101.09 729.94 101.09 733.31 101.09"/><line class="cls-12" x1="726.56" y1="134.65" x2="726.56" y2="145.57"/><line class="cls-12" x1="733.31" y1="138.91" x2="733.31" y2="134.65"/><line class="cls-12" x1="733.31" y1="101.09" x2="733.31" y2="96.92"/><polyline class="cls-12" points="733.31 90.26 733.31 25.63 726.56 25.63"/><line class="cls-12" x1="726.56" y1="101.09" x2="726.56" y2="134.65"/><line class="cls-12" x1="733.31" y1="101.09" x2="733.31" y2="134.65"/><path class="cls-12" d="M754.94,101.67a33.41,33.41,0,0,0-11.46,2" transform="translate(-28.34 -0.58)"/><line class="cls-12" x1="726.56" y1="134.65" x2="715.11" y2="103.13"/><polyline class="cls-12" points="733.31 101.09 729.94 101.09 726.56 101.09 729.94 101.09"/><polyline class="cls-12" points="733.31 134.65 729.94 134.65 726.56 134.65 729.94 134.65"/><polyline class="cls-12" points="579.81 199.28 579.81 25.63 573.06 25.63"/><polyline class="cls-12" points="573.06 206.03 573.06 199.28 573.06 25.63"/><line class="cls-12" x1="592.41" y1="541.53" x2="599.07" y2="541.53"/><line class="cls-12" x1="592.41" y1="617.09" x2="599.07" y2="617.09"/><line class="cls-12" x1="592.41" y1="503" x2="599.07" y2="503"/><line class="cls-12" x1="592.41" y1="427.45" x2="599.07" y2="427.45"/><line class="cls-12" x1="592.41" y1="281.49" x2="599.07" y2="281.49"/><line class="cls-12" x1="592.41" y1="206.03" x2="599.07" y2="206.03"/><line class="cls-12" x1="599.07" y1="627.12" x2="599.07" y2="617.09"/><line class="cls-12" x1="599.07" y1="541.53" x2="599.07" y2="503"/><line class="cls-12" x1="599.07" y1="427.45" x2="599.07" y2="281.49"/><line class="cls-12" x1="592.41" y1="288.24" x2="592.41" y2="427.45"/><line class="cls-12" x1="592.41" y1="503" x2="592.41" y2="524.75"/><line class="cls-12" x1="592.41" y1="531.5" x2="592.41" y2="541.53"/><polyline class="cls-12" points="592.41 617.09 592.41 627.12 599.07 627.12"/><line class="cls-12" x1="592.41" y1="617.09" x2="599.07" y2="617.09"/><line class="cls-12" x1="592.41" y1="541.53" x2="599.07" y2="541.53"/><line class="cls-12" x1="592.41" y1="427.45" x2="599.07" y2="427.45"/><line class="cls-12" x1="592.41" y1="503" x2="599.07" y2="503"/><line class="cls-12" x1="592.41" y1="206.03" x2="599.07" y2="206.03"/><line class="cls-12" x1="592.41" y1="281.49" x2="599.07" y2="281.49"/><line class="cls-12" x1="783.65" y1="180.81" x2="783.65" y2="180.81"/><polyline class="cls-12" points="783.65 174.16 783.65 174.16 783.65 180.81"/><polyline class="cls-12" points="733.31 96.92 766.87 96.92 766.87 90.26 733.31 90.26"/><polyline class="cls-12" points="726.56 145.57 733.31 145.57 766.87 145.57 766.87 138.91 733.31 138.91"/><line class="cls-12" x1="550.42" y1="720.25" x2="592.41" y2="720.25"/><line class="cls-12" x1="592.41" y1="713.5" x2="550.42" y2="713.5"/><line class="cls-12" x1="101.63" y1="263.91" x2="101.63" y2="298.27"/><line class="cls-12" x1="119.21" y1="263.91" x2="119.21" y2="298.27"/><line class="cls-12" x1="135.99" y1="298.27" x2="135.99" y2="263.91"/><line class="cls-12" x1="91.6" y1="263.91" x2="91.6" y2="298.27"/><line class="cls-12" x1="119.21" y1="298.27" x2="135.99" y2="298.27"/><line class="cls-12" x1="101.63" y1="740.4" x2="101.63" y2="784.79"/><line class="cls-12" x1="102.43" y1="740.4" x2="102.43" y2="784.79"/><line class="cls-12" x1="135.99" y1="784.79" x2="135.99" y2="740.4"/><polyline class="cls-12" points="91.6 740.4 91.6 784.79 183.6 784.79"/><line class="cls-12" x1="101.63" y1="722.74" x2="101.63" y2="740.4"/><line class="cls-12" x1="101.63" y1="495.37" x2="101.63" y2="580.15"/><line class="cls-12" x1="101.63" y1="298.27" x2="101.63" y2="352.78"/><line class="cls-12" x1="102.43" y1="298.27" x2="102.43" y2="349.41"/><line class="cls-12" x1="102.43" y1="498.74" x2="102.43" y2="576.78"/><line class="cls-12" x1="102.43" y1="726.11" x2="102.43" y2="740.4"/><line class="cls-12" x1="107.49" y1="349.41" x2="135.99" y2="349.41"/><line class="cls-12" x1="91.6" y1="352.78" x2="101.63" y2="352.78"/><line class="cls-12" x1="102.43" y1="349.41" x2="107.49" y2="349.41"/><line class="cls-12" x1="107.49" y1="498.74" x2="135.99" y2="498.74"/><line class="cls-12" x1="91.6" y1="495.37" x2="101.63" y2="495.37"/><line class="cls-12" x1="102.43" y1="498.74" x2="107.49" y2="498.74"/><line class="cls-12" x1="107.49" y1="576.78" x2="135.99" y2="576.78"/><line class="cls-12" x1="91.6" y1="580.15" x2="101.63" y2="580.15"/><line class="cls-12" x1="102.43" y1="576.78" x2="107.49" y2="576.78"/><line class="cls-12" x1="107.49" y1="726.11" x2="135.99" y2="726.11"/><line class="cls-12" x1="91.6" y1="722.74" x2="101.63" y2="722.74"/><line class="cls-12" x1="102.43" y1="726.11" x2="107.49" y2="726.11"/><line class="cls-12" x1="135.99" y1="740.4" x2="135.99" y2="726.11"/><line class="cls-12" x1="135.99" y1="576.78" x2="135.99" y2="498.74"/><polyline class="cls-12" points="135.99 349.41 135.99 298.27 102.43 298.27"/><line class="cls-12" x1="91.6" y1="298.27" x2="91.6" y2="352.78"/><line class="cls-12" x1="91.6" y1="495.37" x2="91.6" y2="580.15"/><line class="cls-12" x1="91.6" y1="722.74" x2="91.6" y2="740.4"/><polyline class="cls-12" points="91.6 352.78 91.6 495.37 87.34 495.37 87.34 352.78 91.6 352.78"/><line class="cls-12" x1="135.99" y1="498.74" x2="135.99" y2="349.41"/><polyline class="cls-12" points="107.49 498.74 107.49 494.12 104.12 494.12 104.12 492.08 102.43 492.08 102.43 498.74"/><polyline class="cls-12" points="102.43 424.07 102.43 427.45 104.12 427.45 104.12 425.32 107.49 425.32 107.49 424.07"/><line class="cls-12" x1="102.43" y1="427.45" x2="102.43" y2="492.08"/><polyline class="cls-12" points="109.18 494.12 109.18 489.15 109.18 430.38"/><polyline class="cls-12" points="109.18 489.15 104.12 489.15 104.12 494.12 109.18 494.12"/><polyline class="cls-12" points="104.12 425.32 104.12 430.38 109.18 430.38 109.18 425.32 104.12 425.32"/><line class="cls-12" x1="104.12" y1="430.38" x2="104.12" y2="489.15"/><line class="cls-12" x1="109.18" y1="489.15" x2="109.18" y2="430.38"/><line class="cls-12" x1="106.69" y1="489.15" x2="106.69" y2="430.38"/><polyline class="cls-12" points="107.49 424.07 107.49 422.83 104.12 422.83 104.12 420.79 102.43 420.79 102.43 424.07"/><polyline class="cls-12" points="102.43 349.41 102.43 356.16 104.12 356.16 104.12 354.03 107.49 354.03 107.49 349.41"/><line class="cls-12" x1="102.43" y1="356.16" x2="102.43" y2="420.79"/><polyline class="cls-12" points="109.18 422.83 109.18 417.77 109.18 359.09"/><polyline class="cls-12" points="109.18 417.77 104.12 417.77 104.12 422.83 109.18 422.83"/><polyline class="cls-12" points="104.12 354.03 104.12 359.09 109.18 359.09 109.18 354.03 104.12 354.03"/><line class="cls-12" x1="104.12" y1="359.09" x2="104.12" y2="417.77"/><line class="cls-12" x1="109.18" y1="417.77" x2="109.18" y2="359.09"/><line class="cls-12" x1="106.69" y1="417.77" x2="106.69" y2="359.09"/><polyline class="cls-12" points="107.49 498.74 102.43 498.74 107.49 498.74"/><polyline class="cls-12" points="102.43 498.74 102.43 495.37 102.43 498.74"/><polyline class="cls-12" points="91.6 495.37 101.63 495.37 102.43 495.37"/><line class="cls-12" x1="107.49" y1="498.74" x2="135.99" y2="498.74"/><polyline class="cls-12" points="107.49 349.41 102.43 349.41 107.49 349.41"/><polyline class="cls-12" points="102.43 349.41 102.43 352.78 102.43 349.41"/><polyline class="cls-12" points="91.6 352.78 101.63 352.78 102.43 352.78"/><line class="cls-12" x1="107.49" y1="349.41" x2="135.99" y2="349.41"/><polyline class="cls-12" points="91.6 580.15 91.6 722.74 87.34 722.74 87.34 580.15 91.6 580.15"/><line class="cls-12" x1="135.99" y1="726.11" x2="135.99" y2="576.78"/><polyline class="cls-12" points="107.49 726.11 107.49 721.49 104.12 721.49 104.12 719.36 102.43 719.36 102.43 726.11"/><polyline class="cls-12" points="102.43 651.44 102.43 654.82 104.12 654.82 104.12 652.69 107.49 652.69 107.49 651.44"/><line class="cls-12" x1="102.43" y1="654.82" x2="102.43" y2="719.36"/><polyline class="cls-12" points="109.18 721.49 109.18 716.43 109.18 657.75"/><polyline class="cls-12" points="109.18 716.43 104.12 716.43 104.12 721.49 109.18 721.49"/><polyline class="cls-12" points="104.12 652.69 104.12 657.75 109.18 657.75 109.18 652.69 104.12 652.69"/><line class="cls-12" x1="104.12" y1="657.75" x2="104.12" y2="716.43"/><line class="cls-12" x1="109.18" y1="716.43" x2="109.18" y2="657.75"/><line class="cls-12" x1="106.69" y1="716.43" x2="106.69" y2="657.75"/><polyline class="cls-12" points="107.49 651.44 107.49 650.2 104.12 650.2 104.12 648.07 102.43 648.07 102.43 651.44"/><polyline class="cls-12" points="102.43 576.78 102.43 583.53 104.12 583.53 104.12 581.4 107.49 581.4 107.49 576.78"/><line class="cls-12" x1="102.43" y1="583.53" x2="102.43" y2="648.07"/><polyline class="cls-12" points="109.18 650.2 109.18 645.14 109.18 586.46"/><polyline class="cls-12" points="109.18 645.14 104.12 645.14 104.12 650.2 109.18 650.2"/><polyline class="cls-12" points="104.12 581.4 104.12 586.46 109.18 586.46 109.18 581.4 104.12 581.4"/><line class="cls-12" x1="104.12" y1="586.46" x2="104.12" y2="645.14"/><line class="cls-12" x1="109.18" y1="645.14" x2="109.18" y2="586.46"/><line class="cls-12" x1="106.69" y1="645.14" x2="106.69" y2="586.46"/><polyline class="cls-12" points="107.49 726.11 102.43 726.11 107.49 726.11"/><polyline class="cls-12" points="102.43 726.11 102.43 722.74 102.43 726.11"/><polyline class="cls-12" points="91.6 722.74 101.63 722.74 102.43 722.74"/><line class="cls-12" x1="107.49" y1="726.11" x2="135.99" y2="726.11"/><polyline class="cls-12" points="107.49 576.78 102.43 576.78 107.49 576.78"/><polyline class="cls-12" points="102.43 576.78 102.43 580.15 102.43 576.78"/><polyline class="cls-12" points="91.6 580.15 101.63 580.15 102.43 580.15"/><line class="cls-12" x1="107.49" y1="576.78" x2="135.99" y2="576.78"/><line class="cls-12" x1="135.99" y1="25.63" x2="766.87" y2="25.63"/><line class="cls-12" x1="783.65" y1="0.5" x2="713.16" y2="0.5"/><polyline class="cls-12" points="783.65 0.5 135.99 0.5 135.99 25.63"/><line class="cls-12" x1="106.69" y1="4.67" x2="106.69" y2="76.76"/><line class="cls-12" x1="106.69" y1="226.09" x2="106.69" y2="253.79"/><line class="cls-12" x1="119.21" y1="226.09" x2="119.21" y2="253.79"/><line class="cls-12" x1="119.21" y1="4.67" x2="119.21" y2="76.76"/><line class="cls-12" x1="106.69" y1="80.14" x2="119.21" y2="80.14"/><line class="cls-12" x1="106.69" y1="222.81" x2="119.21" y2="222.81"/><polyline class="cls-12" points="119.21 76.76 119.21 79.34 119.21 80.14"/><line class="cls-12" x1="105.8" y1="80.14" x2="106.69" y2="80.14"/><polyline class="cls-12" points="119.21 226.09 119.21 223.61 119.21 222.81"/><line class="cls-12" x1="105.8" y1="222.81" x2="106.69" y2="222.81"/><line class="cls-12" x1="119.21" y1="76.76" x2="119.21" y2="76.76"/><polyline class="cls-12" points="106.69 76.76 106.69 79.34 119.21 79.34 106.69 79.34"/><line class="cls-12" x1="105.8" y1="79.34" x2="105.8" y2="80.14"/><line class="cls-12" x1="119.21" y1="226.09" x2="119.21" y2="226.09"/><polyline class="cls-12" points="106.69 226.09 106.69 223.61 119.21 223.61 106.69 223.61"/><line class="cls-12" x1="105.8" y1="223.61" x2="105.8" y2="222.81"/><polyline class="cls-12" points="119.21 76.76 124.27 76.76 135.99 76.76"/><polyline class="cls-12" points="119.21 226.09 124.27 226.09 135.99 226.09 135.99 263.91"/><line class="cls-12" x1="135.99" y1="76.76" x2="135.99" y2="4.67"/><line class="cls-12" x1="105.8" y1="4.67" x2="105.8" y2="79.34"/><line class="cls-12" x1="105.8" y1="223.61" x2="105.8" y2="253.79"/><polyline class="cls-12" points="105.8 80.14 105.8 222.81 87.34 222.81 87.34 80.14 105.8 80.14"/><line class="cls-12" x1="135.99" y1="226.09" x2="135.99" y2="76.76"/><polyline class="cls-12" points="124.27 226.09 124.27 221.48 120.9 221.48 120.9 219.44 119.21 219.44 119.21 226.09"/><polyline class="cls-12" points="119.21 151.43 119.21 154.8 120.9 154.8 120.9 152.76 124.27 152.76 124.27 151.43"/><line class="cls-12" x1="119.21" y1="154.8" x2="119.21" y2="219.43"/><polyline class="cls-12" points="125.96 221.48 125.96 216.5 125.96 157.73"/><polyline class="cls-12" points="125.96 216.5 120.9 216.5 120.9 221.48 125.96 221.48"/><polyline class="cls-12" points="120.9 152.76 120.9 157.73 125.96 157.73 125.96 152.76 120.9 152.76"/><line class="cls-12" x1="120.9" y1="157.73" x2="120.9" y2="216.5"/><line class="cls-12" x1="125.96" y1="216.5" x2="125.96" y2="157.73"/><line class="cls-12" x1="123.47" y1="216.5" x2="123.47" y2="157.73"/><polyline class="cls-12" points="124.27 151.43 124.27 150.19 120.9 150.19 120.9 148.14 119.21 148.14 119.21 151.43"/><polyline class="cls-12" points="119.21 76.76 119.21 83.51 120.9 83.51 120.9 81.38 124.27 81.38 124.27 76.76"/><line class="cls-12" x1="119.21" y1="83.51" x2="119.21" y2="148.14"/><polyline class="cls-12" points="125.96 150.19 125.96 145.21 125.96 86.44"/><polyline class="cls-12" points="125.96 145.21 120.9 145.21 120.9 150.19 125.96 150.19"/><polyline class="cls-12" points="120.9 81.38 120.9 86.44 125.96 86.44 125.96 81.38 120.9 81.38"/><line class="cls-12" x1="120.9" y1="86.44" x2="120.9" y2="145.21"/><line class="cls-12" x1="125.96" y1="145.21" x2="125.96" y2="86.44"/><line class="cls-12" x1="123.47" y1="145.21" x2="123.47" y2="86.44"/><polyline class="cls-12" points="135.99 226.09 124.27 226.09 119.21 226.09 124.27 226.09"/><polyline class="cls-12" points="135.99 76.76 124.27 76.76 119.21 76.76 124.27 76.76"/><line class="cls-12" x1="105.8" y1="222.81" x2="106.69" y2="222.81"/><polyline class="cls-12" points="119.21 222.81 119.21 223.61 119.21 222.81"/><polyline class="cls-12" points="119.21 223.61 119.21 226.09 119.21 223.61"/><line class="cls-12" x1="105.8" y1="80.14" x2="106.69" y2="80.14"/><polyline class="cls-12" points="119.21 80.14 119.21 79.34 119.21 80.14"/><polyline class="cls-12" points="119.21 79.34 119.21 76.76 119.21 79.34"/><line class="cls-12" x1="106.69" y1="222.81" x2="119.21" y2="222.81"/><line class="cls-12" x1="106.69" y1="80.14" x2="119.21" y2="80.14"/><line class="cls-12" x1="106.69" y1="0.5" x2="106.69" y2="4.67"/><line class="cls-12" x1="119.21" y1="0.5" x2="119.21" y2="4.67"/><line class="cls-12" x1="106.69" y1="0.5" x2="119.21" y2="0.5"/><polyline class="cls-12" points="119.21 0.5 119.21 0.5 119.21 0.5"/><line class="cls-12" x1="105.8" y1="0.5" x2="106.69" y2="0.5"/><line class="cls-12" x1="119.21" y1="0.5" x2="119.21" y2="0.5"/><polyline class="cls-12" points="106.69 0.5 106.69 0.5 119.21 0.5 106.69 0.5"/><line class="cls-12" x1="105.8" y1="0.5" x2="105.8" y2="0.5"/><polyline class="cls-12" points="119.21 0.5 124.27 0.5 135.99 0.5 135.99 4.67"/><line class="cls-12" x1="105.8" y1="0.5" x2="105.8" y2="4.67"/><polyline class="cls-12" points="135.99 0.5 124.27 0.5 119.21 0.5 124.27 0.5"/><line class="cls-12" x1="105.8" y1="0.5" x2="106.69" y2="0.5"/><polyline class="cls-12" points="119.21 0.5 119.21 0.5 119.21 0.5"/><polyline class="cls-12" points="119.21 0.5 119.21 0.5 119.21 0.5"/><line class="cls-12" x1="106.69" y1="0.5" x2="119.21" y2="0.5"/><line class="cls-12" x1="135.99" y1="784.79" x2="766.87" y2="784.79"/><polyline class="cls-12" points="766.87 768.01 135.99 768.01 135.99 784.79"/><polyline class="cls-12" points="766.87 503 776.9 503 783.65 503"/><polyline class="cls-12" points="766.87 419.1 776.9 419.1 783.65 419.1"/><line class="cls-12" x1="783.65" y1="784.79" x2="783.65" y2="503"/><polyline class="cls-12" points="783.65 419.1 783.65 385.54 766.87 385.54 766.87 419.1"/><line class="cls-12" x1="766.87" y1="503" x2="766.87" y2="768.01"/><line class="cls-12" x1="766.87" y1="784.79" x2="766.87" y2="784.79"/><line class="cls-12" x1="766.87" y1="419.1" x2="766.87" y2="419.28"/><line class="cls-12" x1="766.87" y1="419.37" x2="766.87" y2="419.37"/><line class="cls-12" x1="783.65" y1="419.1" x2="783.65" y2="419.28"/><line class="cls-12" x1="783.65" y1="419.37" x2="783.65" y2="419.37"/><path class="cls-12" d="M805.28,423a77.19,77.19,0,0,0-77.19,77.19" transform="translate(-28.34 -0.58)"/><polyline class="cls-12" points="783.65 419.1 783.65 422.39 776.9 422.39 776.9 419.1 783.65 419.1"/><polyline class="cls-12" points="776.9 503 776.9 499.63 783.65 499.63 783.65 503 776.9 503"/><line class="cls-12" x1="776.9" y1="499.63" x2="699.75" y2="499.63"/><polyline class="cls-12" points="783.65 419.1 776.9 419.1 783.65 419.1"/><line class="cls-12" x1="766.87" y1="419.1" x2="776.9" y2="419.1"/><polyline class="cls-12" points="783.65 503 776.9 503 783.65 503"/><line class="cls-12" x1="766.87" y1="503" x2="776.9" y2="503"/><polyline class="cls-12" points="101.63 263.91 119.21 263.91 119.21 253.79 91.6 253.79 91.6 263.91"/><polyline class="cls-12" points="741.65 748.93 741.65 768.01 696.38 768.01 696.38 748.93"/><line class="cls-12" x1="711.91" y1="768.01" x2="726.21" y2="768.01"/><line class="cls-12" x1="715.2" y1="752.65" x2="717.68" y2="752.65"/><line class="cls-12" x1="719.02" y1="756.47" x2="719.02" y2="754.08"/><line class="cls-12" x1="720.44" y1="752.65" x2="722.83" y2="752.65"/><line class="cls-12" x1="719.02" y1="751.23" x2="719.02" y2="748.84"/><path class="cls-12" d="M759.42,757.82a20.25,20.25,0,0,0,7.83-9.55" transform="translate(-28.34 -0.58)"/><path class="cls-12" d="M747.46,760.63a20.19,20.19,0,0,0,12-2.83" transform="translate(-28.34 -0.58)"/><path class="cls-12" d="M727.54,748.27a20.21,20.21,0,0,0,7.84,9.55" transform="translate(-28.34 -0.58)"/><path class="cls-12" d="M735.38,757.8a20.19,20.19,0,0,0,12,2.83" transform="translate(-28.34 -0.58)"/><path class="cls-12" d="M762.72,738A37.25,37.25,0,0,0,749,734.25" transform="translate(-28.34 -0.58)"/><path class="cls-12" d="M729.1,740a11.5,11.5,0,0,0-4.29,9.46" transform="translate(-28.34 -0.58)"/><path class="cls-12" d="M749,734.2a24,24,0,0,0-3.17,0" transform="translate(-28.34 -0.58)"/><path class="cls-12" d="M734.73,757.05a82.81,82.81,0,0,0,25.34,0" transform="translate(-28.34 -0.58)"/><path class="cls-12" d="M726,746.49A28.41,28.41,0,0,0,732.38,765" transform="translate(-28.34 -0.58)"/><path class="cls-12" d="M734.42,766.21a56.5,56.5,0,0,0,13,1.41" transform="translate(-28.34 -0.58)"/><path class="cls-12" d="M732.4,765a3.8,3.8,0,0,0,2.09,1.29" transform="translate(-28.34 -0.58)"/><path class="cls-12" d="M734.6,765a97.7,97.7,0,0,0,12.78.92" transform="translate(-28.34 -0.58)"/><path class="cls-12" d="M726,746.46a25.61,25.61,0,0,0,6.39,17.28" transform="translate(-28.34 -0.58)"/><path class="cls-12" d="M732.31,763.68a3.85,3.85,0,0,0,2.31,1.24" transform="translate(-28.34 -0.58)"/><path class="cls-12" d="M762.5,763.76a25.57,25.57,0,0,0,6.42-17.26" transform="translate(-28.34 -0.58)"/><path class="cls-12" d="M762.39,765a28.39,28.39,0,0,0,6.44-18.48" transform="translate(-28.34 -0.58)"/><path class="cls-12" d="M747.37,765.93a97.41,97.41,0,0,0,12.77-.9" transform="translate(-28.34 -0.58)"/><path class="cls-12" d="M747.42,767.61a56.62,56.62,0,0,0,13-1.38" transform="translate(-28.34 -0.58)"/><path class="cls-12" d="M760.16,765a3.8,3.8,0,0,0,2.31-1.24" transform="translate(-28.34 -0.58)"/><path class="cls-12" d="M760.39,766.28a3.78,3.78,0,0,0,2.09-1.29" transform="translate(-28.34 -0.58)"/><path class="cls-12" d="M770.07,749.42a11.5,11.5,0,0,0-4.29-9.46" transform="translate(-28.34 -0.58)"/><path class="cls-12" d="M765.77,739.94a18.16,18.16,0,0,0-3-2" transform="translate(-28.34 -0.58)"/><path class="cls-12" d="M732,738a18.16,18.16,0,0,0-3,2" transform="translate(-28.34 -0.58)"/><path class="cls-12" d="M745.82,734.25A37.25,37.25,0,0,0,732.07,738" transform="translate(-28.34 -0.58)"/><path class="cls-12" d="M753.63,737.46a26.55,26.55,0,0,0-12.47,0" transform="translate(-28.34 -0.58)"/><path class="cls-12" d="M767.31,748.24a6.79,6.79,0,0,0-2.34-5.61" transform="translate(-28.34 -0.58)"/><path class="cls-12" d="M764.89,742.62a24.55,24.55,0,0,0-11.28-5.17" transform="translate(-28.34 -0.58)"/><path class="cls-12" d="M729.91,742.63a6.79,6.79,0,0,0-2.34,5.61" transform="translate(-28.34 -0.58)"/><path class="cls-12" d="M741.18,737.45a24.55,24.55,0,0,0-11.28,5.17" transform="translate(-28.34 -0.58)"/><path class="cls-12" d="M750.37,753.19a3,3,0,1,0-3,3,3,3,0,0,0,3-3" transform="translate(-28.34 -0.58)"/><path class="cls-12" d="M749.48,753.19a2.09,2.09,0,1,0-2.08,2.09,2.09,2.09,0,0,0,2.08-2.09" transform="translate(-28.34 -0.58)"/><line class="cls-12" x1="630.41" y1="753.45" x2="630.41" y2="723.89"/><polyline class="cls-12" points="629.17 755.23 629.17 766.33 661.04 766.33"/><line class="cls-12" x1="645.06" y1="748.3" x2="656.96" y2="748.3"/><polyline class="cls-12" points="630.41 723.89 633.25 748.3 645.06 748.3"/><line class="cls-12" x1="659.8" y1="723.89" x2="656.96" y2="748.3"/><line class="cls-12" x1="631.21" y1="723.89" x2="634.05" y2="748.3"/><line class="cls-12" x1="659" y1="723.89" x2="656.16" y2="748.3"/><line class="cls-12" x1="659.8" y1="753.45" x2="659.8" y2="723.89"/><line class="cls-12" x1="661.04" y1="766.33" x2="661.04" y2="755.23"/><polyline class="cls-12" points="630.41 723.89 630.86 720.61 632.1 717.5 634.14 714.83 636.72 712.62 639.91 711.02 643.29 710.31 646.84 710.31 650.3 711.02 653.41 712.62 656.07 714.83 658.11 717.5 659.36 720.61 659.8 723.89"/><polyline class="cls-12" points="631.21 723.89 631.57 720.78 632.81 717.85 634.67 715.28 637.16 713.24 640.18 711.73 643.46 711.02 646.75 711.02 650.03 711.73 653.05 713.24 655.54 715.28 657.4 717.85 658.64 720.78 659 723.89"/><path class="cls-12" d="M687.72,754a135.07,135.07,0,0,0-28.57,0" transform="translate(-28.34 -0.58)"/><path class="cls-12" d="M659.21,753.87a1.87,1.87,0,0,0-1.62,1.89" transform="translate(-28.34 -0.58)"/><path class="cls-12" d="M689.38,755.76a1.86,1.86,0,0,0-1.64-1.89" transform="translate(-28.34 -0.58)"/><path class="cls-12" d="M673.44,758.38a1.56,1.56,0,1,0,1.55,1.56,1.55,1.55,0,0,0-1.55-1.56" transform="translate(-28.34 -0.58)"/><polyline class="cls-12" points="493.42 719.36 539.5 719.36 539.5 765.53 493.42 765.53 493.42 719.36"/><polyline class="cls-12" points="497.6 761.36 497.6 723.62 531.15 723.62 531.15 761.36 497.6 761.36"/><line class="cls-12" x1="719.28" y1="81.02" x2="719.28" y2="38.23"/><line class="cls-12" x1="714.58" y1="33.17" x2="610.79" y2="33.17"/><line class="cls-12" x1="714.58" y1="86" x2="610.79" y2="86"/><line class="cls-12" x1="581.49" y1="28.11" x2="724.08" y2="28.11"/><polyline class="cls-12" points="581.49 28.11 581.49 91.06 724.08 91.06 724.08 28.11"/><line class="cls-12" x1="627.48" y1="77.3" x2="708.72" y2="77.3"/><line class="cls-12" x1="711.03" y1="74.72" x2="711.03" y2="44.45"/><line class="cls-12" x1="627.48" y1="41.96" x2="708.72" y2="41.96"/><line class="cls-12" x1="694.33" y1="61.14" x2="694.33" y2="64.25"/><line class="cls-12" x1="695.84" y1="59.63" x2="698.77" y2="59.63"/><line class="cls-12" x1="694.33" y1="58.03" x2="694.33" y2="54.92"/><line class="cls-12" x1="692.91" y1="59.63" x2="689.98" y2="59.63"/><path class="cls-12" d="M639.17,33.75c-13.8,0-25,11.83-25,26.41s11.19,26.42,25,26.42" transform="translate(-28.34 -0.58)"/><path class="cls-12" d="M747.71,38.77a4.89,4.89,0,0,0-4.75-5" transform="translate(-28.34 -0.58)"/><path class="cls-12" d="M743,86.58a4.89,4.89,0,0,0,4.75-5" transform="translate(-28.34 -0.58)"/><path class="cls-12" d="M722.71,57.54a2.63,2.63,0,1,0,2.45,2.62,2.54,2.54,0,0,0-2.45-2.62" transform="translate(-28.34 -0.58)"/><path class="cls-12" d="M655.86,42.45c-9.19,0-16.64,7.93-16.64,17.71s7.45,17.72,16.64,17.72" transform="translate(-28.34 -0.58)"/><path class="cls-12" d="M737.1,77.79a2.45,2.45,0,0,0,2.35-2.53" transform="translate(-28.34 -0.58)"/><path class="cls-12" d="M739.45,45a2.44,2.44,0,0,0-2.35-2.53" transform="translate(-28.34 -0.58)"/><path class="cls-12" d="M722.71,56.66a3.51,3.51,0,1,0,3.33,3.5,3.42,3.42,0,0,0-3.33-3.5" transform="translate(-28.34 -0.58)"/><polyline class="cls-12" points="745.21 195.29 764.38 195.29 764.38 149.92 745.21 149.92"/><line class="cls-12" x1="764.38" y1="165.46" x2="764.38" y2="179.75"/><line class="cls-12" x1="748.94" y1="168.83" x2="748.94" y2="171.23"/><line class="cls-12" x1="752.75" y1="172.65" x2="750.36" y2="172.65"/><line class="cls-12" x1="748.94" y1="173.98" x2="748.94" y2="176.46"/><line class="cls-12" x1="747.6" y1="172.65" x2="745.12" y2="172.65"/><path class="cls-12" d="M772.39,193a20.09,20.09,0,0,0,9.55-7.83" transform="translate(-28.34 -0.58)"/><path class="cls-12" d="M781.92,185.2a20.19,20.19,0,0,0,2.83-12" transform="translate(-28.34 -0.58)"/><path class="cls-12" d="M781.94,161.07a20.15,20.15,0,0,0-9.55-7.83" transform="translate(-28.34 -0.58)"/><path class="cls-12" d="M784.75,173.12a20.17,20.17,0,0,0-2.83-12" transform="translate(-28.34 -0.58)"/><path class="cls-12" d="M758.37,174.76a37.15,37.15,0,0,0,3.74,13.74" transform="translate(-28.34 -0.58)"/><path class="cls-12" d="M773.55,150.51a11.5,11.5,0,0,0-9.46,4.29" transform="translate(-28.34 -0.58)"/><path class="cls-12" d="M758.33,171.6a21,21,0,0,0,0,3.17" transform="translate(-28.34 -0.58)"/><path class="cls-12" d="M781.18,185.86a82.87,82.87,0,0,0,0-25.35" transform="translate(-28.34 -0.58)"/><path class="cls-12" d="M789.11,158.08a28.44,28.44,0,0,0-18.5-6.42" transform="translate(-28.34 -0.58)"/><path class="cls-12" d="M791.83,173.17a57,57,0,0,0-1.4-13" transform="translate(-28.34 -0.58)"/><path class="cls-12" d="M790.41,160.18a3.73,3.73,0,0,0-1.3-2.08" transform="translate(-28.34 -0.58)"/><path class="cls-12" d="M790.05,173.17a95.76,95.76,0,0,0-.92-12.78" transform="translate(-28.34 -0.58)"/><path class="cls-12" d="M787.86,158.05a25.64,25.64,0,0,0-17.27-6.4" transform="translate(-28.34 -0.58)"/><path class="cls-12" d="M789.13,160.41a3.75,3.75,0,0,0-1.24-2.31" transform="translate(-28.34 -0.58)"/><path class="cls-12" d="M770.62,194.62a25.59,25.59,0,0,0,17.27-6.42" transform="translate(-28.34 -0.58)"/><path class="cls-12" d="M770.65,194.62a28.49,28.49,0,0,0,18.49-6.44" transform="translate(-28.34 -0.58)"/><path class="cls-12" d="M789.15,185.92a95.56,95.56,0,0,0,.9-12.76" transform="translate(-28.34 -0.58)"/><path class="cls-12" d="M790.45,186.08a57,57,0,0,0,1.38-13" transform="translate(-28.34 -0.58)"/><path class="cls-12" d="M787.89,188.17a3.75,3.75,0,0,0,1.24-2.31" transform="translate(-28.34 -0.58)"/><path class="cls-12" d="M789.12,188.17a3.77,3.77,0,0,0,1.29-2.08" transform="translate(-28.34 -0.58)"/><path class="cls-12" d="M764.09,191.48a11.52,11.52,0,0,0,9.46,4.29" transform="translate(-28.34 -0.58)"/><path class="cls-12" d="M762.11,188.54a17.62,17.62,0,0,0,1.95,3" transform="translate(-28.34 -0.58)"/><path class="cls-12" d="M764.06,154.81a18.1,18.1,0,0,0-1.95,3" transform="translate(-28.34 -0.58)"/><path class="cls-12" d="M762.11,157.77a37.25,37.25,0,0,0-3.74,13.74" transform="translate(-28.34 -0.58)"/><path class="cls-12" d="M761.59,166.94a26.59,26.59,0,0,0,0,12.48" transform="translate(-28.34 -0.58)"/><path class="cls-12" d="M766.76,190.67a6.78,6.78,0,0,0,5.61,2.34" transform="translate(-28.34 -0.58)"/><path class="cls-12" d="M761.57,179.4a24.61,24.61,0,0,0,5.18,11.28" transform="translate(-28.34 -0.58)"/><path class="cls-12" d="M772.37,153.27a6.8,6.8,0,0,0-5.61,2.33" transform="translate(-28.34 -0.58)"/><path class="cls-12" d="M766.75,155.6a24.56,24.56,0,0,0-5.18,11.28" transform="translate(-28.34 -0.58)"/><path class="cls-12" d="M780.29,173.18a3,3,0,1,0-3,3,3,3,0,0,0,3-3" transform="translate(-28.34 -0.58)"/><path class="cls-12" d="M779.4,173.18a2.09,2.09,0,1,0-2.08,2.09,2.08,2.08,0,0,0,2.08-2.09" transform="translate(-28.34 -0.58)"/><line class="cls-12" x1="783.65" y1="37.7" x2="783.65" y2="141.48"/><line class="cls-12" x1="783.65" y1="170.78" x2="783.65" y2="28.11"/><line class="cls-12" x1="783.65" y1="170.78" x2="783.65" y2="170.78"/><line class="cls-12" x1="783.65" y1="124.79" x2="783.65" y2="43.56"/><polyline class="cls-12" points="89.47 414.84 43.3 414.84 43.3 414.49 89.47 414.49 89.47 414.84"/><polyline class="cls-12" points="42.06 416.17 42.06 493.32 41.62 493.32 41.62 416.17 42.06 416.17"/><polyline class="cls-12" points="43.3 494.57 89.47 494.57 89.47 495.01 43.3 495.01 43.3 494.57"/><polyline class="cls-12" points="91.6 416.17 89.47 416.17 89.47 414.04 91.6 414.04 91.6 416.17"/><polyline class="cls-12" points="43.3 416.17 41.26 416.17 41.26 414.04 43.3 414.04 43.3 416.17"/><polyline class="cls-12" points="43.3 493.32 43.3 495.37 41.26 495.37 41.26 493.32 43.3 493.32"/><polyline class="cls-12" points="89.47 493.32 91.6 493.32 91.6 495.37 89.47 495.37 89.47 493.32"/><line class="cls-12" x1="90.53" y1="416.17" x2="43.3" y2="416.17"/><line class="cls-12" x1="41.26" y1="414.04" x2="90.53" y2="414.04"/><line class="cls-12" x1="43.3" y1="416.17" x2="43.3" y2="493.32"/><line class="cls-12" x1="41.26" y1="495.37" x2="41.26" y2="414.04"/><line class="cls-12" x1="43.3" y1="493.32" x2="90.53" y2="493.32"/><line class="cls-12" x1="90.53" y1="495.37" x2="41.26" y2="495.37"/><polyline class="cls-12" points="90.53 414.04 91.6 414.04 91.6 416.17 90.53 416.17"/><polyline class="cls-12" points="90.53 493.32 91.6 493.32 91.6 495.37 90.53 495.37"/><polyline class="cls-12" points="41.26 495.37 41.26 414.04 90.53 414.04 90.53 416.17 43.3 416.17 43.3 493.32 90.53 493.32 90.53 495.37 41.26 495.37"/><polyline class="cls-12" points="56.35 491.19 56.35 418.22 83.17 418.22 83.17 491.19 56.35 491.19"/><polyline class="cls-12" points="59.02 491.19 59.02 418.22 83.17 418.22 83.17 491.19 59.02 491.19"/><line class="cls-12" x1="783.65" y1="385.54" x2="783.65" y2="0.5"/><polyline class="cls-12" points="766.87 25.63 766.87 385.54 783.65 385.54"/><polyline class="cls-12" points="766.87 702.58 783.65 702.58 783.65 784.79 766.87 784.79 766.87 702.58"/><polyline class="cls-12" points="510.2 541.53 510.2 524.75 426.3 524.75 426.3 541.53 510.2 541.53"/><polyline class="cls-12" points="203.11 541.53 203.11 524.75 119.21 524.75 119.21 541.53 203.11 541.53"/><polyline class="cls-12" points="510.2 768.01 510.2 784.79 426.3 784.79 426.3 768.01 510.2 768.01"/><polyline class="cls-12" points="203.11 768.01 203.11 784.79 119.21 784.79 119.21 768.01 203.11 768.01"/><polyline class="cls-12" points="510.2 298.27 510.2 281.49 426.3 281.49 426.3 298.27 510.2 298.27"/><polyline class="cls-12" points="203.11 298.27 203.11 281.49 119.21 281.49 119.21 298.27 203.11 298.27"/></svg>