<svg id="_364" data-name="364" xmlns="http://www.w3.org/2000/svg" viewBox="0 0 328.17 695.11"><defs><style>.cls-1{isolation:isolate;font-size:12px;fill:#969696;}.cls-1,.cls-4,.cls-5,.cls-7{font-family:PTSans-Regular, PT Sans;}.cls-2{letter-spacing:-0.01em;}.cls-10,.cls-11,.cls-12,.cls-13,.cls-14,.cls-3,.cls-6,.cls-8,.cls-9{fill:none;stroke-linecap:round;stroke-linejoin:round;}.cls-3{stroke:#969696;stroke-width:0.75px;}.cls-4{font-size:40px;}.cls-5{font-size:40.54px;}.cls-10,.cls-11,.cls-12,.cls-13,.cls-14,.cls-6,.cls-8,.cls-9{stroke:#000;}.cls-13,.cls-14,.cls-6{stroke-width:0.5px;}.cls-7{font-size:36px;}.cls-10,.cls-11,.cls-8,.cls-9{stroke-width:0.25px;}.cls-9{stroke-dasharray:0.99 0.99;}.cls-10{stroke-dasharray:0.99 0.99;}.cls-11{stroke-dasharray:0.99 0.99;}.cls-13{stroke-dasharray:2.96 2.96;}.cls-14{stroke-dasharray:2.95 2.95;}</style></defs><title>10floor_364flat</title><text class="cls-1" transform="translate(155.94 691.91)"><tspan class="cls-2">у</tspan><tspan x="5.42" y="0">лица</tspan></text><line class="cls-3" x1="145.18" y1="694.74" x2="145.18" y2="685.94"/><polyline class="cls-3" points="141.68 691.24 145.18 694.74 148.68 691.24"/><text class="cls-4" transform="translate(217.33 402.82)">CT</text><text class="cls-5" transform="translate(191.33 452.99)">21.11</text><text class="cls-4" transform="translate(186.69 352.91)">№364</text><polyline class="cls-6" points="177.68 463.8 177.68 314.72 302.01 314.72 302.01 463.8"/><line class="cls-6" x1="177.68" y1="364.51" x2="302.01" y2="364.51"/><line class="cls-6" x1="177.68" y1="463.8" x2="302.01" y2="463.8"/><line class="cls-6" x1="177.68" y1="414.3" x2="302.01" y2="414.3"/><text class="cls-7" transform="translate(115.39 535.73)">11.94</text><text class="cls-7" transform="translate(208.94 129.79)">3.20</text><text class="cls-7" transform="translate(81.78 129.79)">3.77</text><text class="cls-7" transform="translate(80.71 314.72)">2.20</text><line class="cls-8" x1="171.93" y1="92.37" x2="171.93" y2="92.87"/><line class="cls-9" x1="171.93" y1="93.86" x2="171.93" y2="150.83"/><line class="cls-8" x1="171.93" y1="151.33" x2="171.93" y2="151.83"/><line class="cls-8" x1="178.58" y1="92.37" x2="178.58" y2="92.87"/><line class="cls-9" x1="178.58" y1="93.86" x2="178.58" y2="150.83"/><line class="cls-8" x1="178.58" y1="151.33" x2="178.58" y2="151.83"/><line class="cls-8" x1="274.2" y1="195.11" x2="273.7" y2="195.11"/><line class="cls-10" x1="272.71" y1="195.11" x2="193.87" y2="195.11"/><line class="cls-8" x1="193.38" y1="195.11" x2="192.88" y2="195.11"/><line class="cls-8" x1="271.29" y1="188.45" x2="270.79" y2="188.45"/><line class="cls-10" x1="269.8" y1="188.45" x2="190.96" y2="188.45"/><line class="cls-8" x1="190.47" y1="188.45" x2="189.97" y2="188.45"/><line class="cls-8" x1="185.73" y1="0.5" x2="186.23" y2="0.5"/><line class="cls-11" x1="187.23" y1="0.5" x2="262.3" y2="0.5"/><line class="cls-8" x1="262.8" y1="0.5" x2="263.3" y2="0.5"/><line class="cls-12" x1="179.13" y1="151.52" x2="172.47" y2="151.52"/><line class="cls-12" x1="179.13" y1="92.83" x2="172.47" y2="92.83"/><line class="cls-12" x1="179.13" y1="243.85" x2="179.13" y2="151.52"/><polyline class="cls-12" points="179.13 92.83 179.13 17.28 172.47 17.28 172.47 59.27"/><line class="cls-12" x1="172.47" y1="65.93" x2="172.47" y2="92.83"/><line class="cls-12" x1="172.47" y1="151.52" x2="172.47" y2="237.11"/><line class="cls-12" x1="179.13" y1="92.83" x2="172.47" y2="92.83"/><line class="cls-12" x1="179.13" y1="151.52" x2="172.47" y2="151.52"/><line class="cls-12" x1="193.43" y1="188.45" x2="193.43" y2="195.2"/><polyline class="cls-12" points="310.88 188.45 268.98 188.45 268.98 195.2"/><polyline class="cls-12" points="193.43 188.45 179.13 188.45 179.13 195.2 193.43 195.2"/><polyline class="cls-12" points="268.98 195.2 310.88 195.2 310.88 188.45"/><line class="cls-12" x1="268.98" y1="188.45" x2="268.98" y2="195.2"/><line class="cls-12" x1="193.43" y1="188.45" x2="193.43" y2="195.2"/><polyline class="cls-12" points="65.93 59.27 65.93 17.28 59.19 17.28 59.19 59.27"/><polyline class="cls-12" points="172.47 237.11 17.28 237.11 17.28 243.85"/><polyline class="cls-12" points="179.13 243.85 172.47 243.85 17.28 243.85"/><polyline class="cls-12" points="21.45 65.93 21.45 62.65 21.45 59.27"/><polyline class="cls-12" points="55.01 65.93 55.01 62.65 55.01 59.27"/><line class="cls-12" x1="172.47" y1="59.27" x2="65.93" y2="59.27"/><line class="cls-12" x1="59.19" y1="59.27" x2="55.01" y2="59.27"/><polyline class="cls-12" points="21.45 59.27 17.28 59.27 17.28 65.93 21.45 65.93"/><line class="cls-12" x1="55.01" y1="65.93" x2="172.47" y2="65.93"/><line class="cls-12" x1="55.01" y1="65.93" x2="21.45" y2="65.93"/><line class="cls-12" x1="55.01" y1="59.27" x2="21.45" y2="59.27"/><path class="cls-12" d="M53,76.85a33.41,33.41,0,0,0,2-11.46" transform="translate(0 0.5)"/><line class="cls-12" x1="21.45" y1="65.93" x2="52.97" y2="77.47"/><polyline class="cls-12" points="55.01 59.27 55.01 62.65 55.01 65.93 55.01 62.65"/><polyline class="cls-12" points="21.45 59.27 21.45 62.65 21.45 65.93 21.45 62.65"/><line class="cls-12" x1="0.5" y1="595.35" x2="79.34" y2="595.35"/><line class="cls-12" x1="243.77" y1="595.35" x2="327.67" y2="595.35"/><line class="cls-12" x1="0.5" y1="594.46" x2="75.97" y2="594.46"/><line class="cls-12" x1="247.14" y1="594.46" x2="327.67" y2="594.46"/><line class="cls-12" x1="247.14" y1="589.49" x2="247.14" y2="560.9"/><line class="cls-12" x1="243.77" y1="605.38" x2="243.77" y2="595.35"/><line class="cls-12" x1="247.14" y1="594.46" x2="247.14" y2="589.49"/><line class="cls-12" x1="75.97" y1="589.49" x2="75.97" y2="560.9"/><line class="cls-12" x1="79.34" y1="605.38" x2="79.34" y2="595.35"/><line class="cls-12" x1="75.97" y1="594.46" x2="75.97" y2="589.49"/><line class="cls-12" x1="327.67" y1="560.9" x2="247.14" y2="560.9"/><line class="cls-12" x1="75.97" y1="560.9" x2="0.5" y2="560.9"/><polyline class="cls-12" points="79.34 605.38 0.5 605.38 0.5 555.94"/><polyline class="cls-12" points="243.76 605.38 327.67 605.38 327.67 560.9"/><polyline class="cls-12" points="243.76 605.38 79.34 605.38 79.34 609.55 243.76 609.55 243.76 605.38"/><line class="cls-12" x1="75.97" y1="560.9" x2="247.14" y2="560.9"/><polyline class="cls-12" points="75.97 589.49 80.58 589.49 80.58 592.77 82.71 592.77 82.71 594.46 75.97 594.46"/><polyline class="cls-12" points="134.12 594.46 130.74 594.46 130.74 592.77 132.88 592.77 132.88 589.49 134.12 589.49"/><line class="cls-12" x1="130.74" y1="594.46" x2="82.71" y2="594.46"/><polyline class="cls-12" points="80.58 587.8 85.64 587.8 127.81 587.8"/><polyline class="cls-12" points="85.64 587.8 85.64 592.77 80.58 592.77 80.58 587.8"/><polyline class="cls-12" points="132.88 592.77 127.81 592.77 127.81 587.8 132.88 587.8 132.88 592.77"/><line class="cls-12" x1="127.81" y1="592.77" x2="85.64" y2="592.77"/><line class="cls-12" x1="85.64" y1="587.8" x2="127.81" y2="587.8"/><line class="cls-12" x1="85.64" y1="590.29" x2="127.81" y2="590.29"/><polyline class="cls-12" points="134.12 589.49 135.36 589.49 135.36 592.77 137.49 592.77 137.49 594.46 134.12 594.46"/><polyline class="cls-12" points="188.9 594.46 185.61 594.46 185.61 592.77 187.65 592.77 187.65 589.49 188.9 589.49"/><line class="cls-12" x1="185.61" y1="594.46" x2="137.49" y2="594.46"/><polyline class="cls-12" points="135.36 587.8 140.42 587.8 182.68 587.8"/><polyline class="cls-12" points="140.42 587.8 140.42 592.77 135.36 592.77 135.36 587.8"/><polyline class="cls-12" points="187.65 592.77 182.68 592.77 182.68 587.8 187.65 587.8 187.65 592.77"/><line class="cls-12" x1="182.68" y1="592.77" x2="140.42" y2="592.77"/><line class="cls-12" x1="140.42" y1="587.8" x2="182.68" y2="587.8"/><line class="cls-12" x1="140.42" y1="590.29" x2="182.68" y2="590.29"/><polyline class="cls-12" points="188.9 589.49 190.23 589.49 190.23 592.77 192.27 592.77 192.27 594.46 188.9 594.46"/><polyline class="cls-12" points="247.14 594.46 240.39 594.46 240.39 592.77 242.52 592.77 242.52 589.49 247.14 589.49"/><line class="cls-12" x1="240.39" y1="594.46" x2="192.27" y2="594.46"/><polyline class="cls-12" points="190.23 587.8 195.2 587.8 237.46 587.8"/><polyline class="cls-12" points="195.2 587.8 195.2 592.77 190.23 592.77 190.23 587.8"/><polyline class="cls-12" points="242.52 592.77 237.46 592.77 237.46 587.8 242.52 587.8 242.52 592.77"/><line class="cls-12" x1="237.46" y1="592.77" x2="195.2" y2="592.77"/><line class="cls-12" x1="195.2" y1="587.8" x2="237.46" y2="587.8"/><line class="cls-12" x1="195.2" y1="590.29" x2="237.46" y2="590.29"/><polyline class="cls-12" points="75.97 589.49 75.97 594.46 75.97 589.49"/><polyline class="cls-12" points="75.97 594.46 79.34 594.46 75.97 594.46"/><polyline class="cls-12" points="79.34 605.38 79.34 595.35 79.34 594.46"/><line class="cls-12" x1="75.97" y1="589.49" x2="75.97" y2="560.9"/><polyline class="cls-12" points="247.14 589.49 247.14 594.46 247.14 589.49"/><polyline class="cls-12" points="247.14 594.46 243.76 594.46 247.14 594.46"/><polyline class="cls-12" points="243.76 605.38 243.76 595.35 243.76 594.46"/><line class="cls-12" x1="247.14" y1="589.49" x2="247.14" y2="560.9"/><polyline class="cls-12" points="310.88 17.28 310.88 560.9 327.67 560.9 327.67 0.5"/><polyline class="cls-12" points="268.89 0.5 268.89 7.25 268.89 17.28"/><polyline class="cls-12" points="184.99 0.5 184.99 7.25 184.99 17.28"/><polyline class="cls-12" points="327.67 0.5 310.88 0.5 268.89 0.5"/><line class="cls-12" x1="184.99" y1="0.5" x2="0.5" y2="0.5"/><line class="cls-12" x1="0.5" y1="17.28" x2="0.5" y2="17.28"/><line class="cls-12" x1="17.28" y1="17.28" x2="184.99" y2="17.28"/><line class="cls-12" x1="268.89" y1="17.28" x2="310.89" y2="17.28"/><path class="cls-12" d="M188.36,6.7a77.2,77.2,0,0,0,77.2,77.2" transform="translate(0 0.5)"/><polyline class="cls-12" points="184.99 0.5 188.37 0.5 188.37 7.25 184.99 7.25 184.99 0.5"/><polyline class="cls-12" points="268.89 7.25 265.52 7.25 265.52 0.5 268.89 0.5 268.89 7.25"/><line class="cls-12" x1="265.52" y1="7.25" x2="265.52" y2="84.4"/><polyline class="cls-12" points="184.99 17.28 184.99 7.25 184.99 0.5 184.99 7.25"/><polyline class="cls-12" points="268.89 17.28 268.89 7.25 268.89 0.5 268.89 7.25"/><polyline class="cls-12" points="0.5 0.5 0.5 560.9 17.28 560.9 17.28 17.28"/><line class="cls-12" x1="23.67" y1="225.39" x2="23.67" y2="182.59"/><line class="cls-12" x1="28.47" y1="177.53" x2="132.25" y2="177.53"/><line class="cls-12" x1="28.47" y1="230.36" x2="132.25" y2="230.36"/><line class="cls-12" x1="161.55" y1="172.47" x2="18.88" y2="172.47"/><polyline class="cls-12" points="161.55 172.47 161.55 235.42 18.88 235.42 18.88 172.47"/><line class="cls-12" x1="115.56" y1="221.66" x2="34.33" y2="221.66"/><line class="cls-12" x1="31.93" y1="219.08" x2="31.93" y2="188.81"/><line class="cls-12" x1="115.56" y1="186.32" x2="34.33" y2="186.32"/><line class="cls-12" x1="48.62" y1="205.5" x2="48.62" y2="208.61"/><line class="cls-12" x1="47.2" y1="203.99" x2="44.27" y2="203.99"/><line class="cls-12" x1="48.62" y1="202.39" x2="48.62" y2="199.29"/><line class="cls-12" x1="50.13" y1="203.99" x2="53.06" y2="203.99"/><path class="cls-12" d="M132.3,229.86c13.8,0,25-11.83,25-26.41S146.1,177,132.3,177" transform="translate(0 0.5)"/><path class="cls-12" d="M28.51,177a4.89,4.89,0,0,0-4.75,5" transform="translate(0 0.5)"/><path class="cls-12" d="M23.76,224.84a4.89,4.89,0,0,0,4.75,5" transform="translate(0 0.5)"/><path class="cls-12" d="M48.66,200.83a2.63,2.63,0,1,0,2.44,2.62,2.53,2.53,0,0,0-2.44-2.62" transform="translate(0 0.5)"/><path class="cls-12" d="M115.61,221.16c9.19,0,16.64-7.93,16.64-17.71s-7.45-17.72-16.64-17.72" transform="translate(0 0.5)"/><path class="cls-12" d="M32,218.54a2.44,2.44,0,0,0,2.35,2.53" transform="translate(0 0.5)"/><path class="cls-12" d="M34.37,185.73A2.45,2.45,0,0,0,32,188.26" transform="translate(0 0.5)"/><path class="cls-12" d="M48.66,199.94A3.51,3.51,0,1,0,52,203.45a3.42,3.42,0,0,0-3.33-3.51" transform="translate(0 0.5)"/><polyline class="cls-12" points="38.05 127.19 18.88 127.19 18.88 172.47 38.05 172.47"/><line class="cls-12" x1="18.88" y1="157.02" x2="18.88" y2="142.73"/><line class="cls-12" x1="34.33" y1="153.65" x2="34.33" y2="151.25"/><line class="cls-12" x1="30.51" y1="149.83" x2="32.91" y2="149.83"/><line class="cls-12" x1="34.33" y1="148.41" x2="34.33" y2="146.02"/><line class="cls-12" x1="35.66" y1="149.83" x2="38.14" y2="149.83"/><path class="cls-12" d="M39.29,129.44a20.19,20.19,0,0,0-9.55,7.83" transform="translate(0 0.5)"/><path class="cls-12" d="M29.76,137.27a20.19,20.19,0,0,0-2.83,12" transform="translate(0 0.5)"/><path class="cls-12" d="M29.74,161.4a20.25,20.25,0,0,0,9.55,7.83" transform="translate(0 0.5)"/><path class="cls-12" d="M26.93,149.35a20.2,20.2,0,0,0,2.83,12.05" transform="translate(0 0.5)"/><path class="cls-12" d="M53.31,147.71A37.15,37.15,0,0,0,49.57,134" transform="translate(0 0.5)"/><path class="cls-12" d="M38.14,172a11.48,11.48,0,0,0,9.46-4.29" transform="translate(0 0.5)"/><path class="cls-12" d="M53.36,150.87a24,24,0,0,0,0-3.17" transform="translate(0 0.5)"/><path class="cls-12" d="M30.51,136.61a82.25,82.25,0,0,0,0,25.35" transform="translate(0 0.5)"/><path class="cls-12" d="M22.58,164.31a28.47,28.47,0,0,0,18.49,6.42" transform="translate(0 0.5)"/><path class="cls-12" d="M19.85,149.3a56.5,56.5,0,0,0,1.41,13" transform="translate(0 0.5)"/><path class="cls-12" d="M21.28,162.29a3.72,3.72,0,0,0,1.29,2.08" transform="translate(0 0.5)"/><path class="cls-12" d="M21.63,149.3a95.76,95.76,0,0,0,.92,12.78" transform="translate(0 0.5)"/><path class="cls-12" d="M23.82,164.42a25.66,25.66,0,0,0,17.28,6.4" transform="translate(0 0.5)"/><path class="cls-12" d="M22.55,162.06a3.85,3.85,0,0,0,1.24,2.31" transform="translate(0 0.5)"/><path class="cls-12" d="M41.06,127.85a25.57,25.57,0,0,0-17.26,6.42" transform="translate(0 0.5)"/><path class="cls-12" d="M41,127.85a28.44,28.44,0,0,0-18.48,6.44" transform="translate(0 0.5)"/><path class="cls-12" d="M22.53,136.55a97.26,97.26,0,0,0-.9,12.76" transform="translate(0 0.5)"/><path class="cls-12" d="M21.24,136.39a57,57,0,0,0-1.39,13" transform="translate(0 0.5)"/><path class="cls-12" d="M23.79,134.21a3.75,3.75,0,0,0-1.24,2.31" transform="translate(0 0.5)"/><path class="cls-12" d="M22.57,134.3a3.72,3.72,0,0,0-1.29,2.08" transform="translate(0 0.5)"/><path class="cls-12" d="M47.6,131a11.52,11.52,0,0,0-9.46-4.3" transform="translate(0 0.5)"/><path class="cls-12" d="M49.58,133.93a17.67,17.67,0,0,0-2-3" transform="translate(0 0.5)"/><path class="cls-12" d="M47.62,167.66a18.49,18.49,0,0,0,2-3" transform="translate(0 0.5)"/><path class="cls-12" d="M49.57,164.61a37.2,37.2,0,0,0,3.74-13.74" transform="translate(0 0.5)"/><path class="cls-12" d="M50.1,155.53a26.59,26.59,0,0,0,0-12.48" transform="translate(0 0.5)"/><path class="cls-12" d="M44.93,131.8a6.79,6.79,0,0,0-5.61-2.34" transform="translate(0 0.5)"/><path class="cls-12" d="M50.11,143.07a24.51,24.51,0,0,0-5.18-11.28" transform="translate(0 0.5)"/><path class="cls-12" d="M39.32,169.2a6.81,6.81,0,0,0,5.61-2.33" transform="translate(0 0.5)"/><path class="cls-12" d="M44.93,166.79a24.5,24.5,0,0,0,5.18-11.29" transform="translate(0 0.5)"/><path class="cls-12" d="M37.34,149.29a3,3,0,1,0-3,3,3,3,0,0,0,3-3" transform="translate(0 0.5)"/><path class="cls-12" d="M36.46,149.29a2.09,2.09,0,1,0-2.09,2.08,2.1,2.1,0,0,0,2.09-2.08" transform="translate(0 0.5)"/><line class="cls-12" x1="31.84" y1="84.84" x2="61.4" y2="84.84"/><polyline class="cls-12" points="30.07 83.6 18.88 83.6 18.88 115.47"/><line class="cls-12" x1="36.99" y1="99.49" x2="36.99" y2="111.39"/><polyline class="cls-12" points="61.41 84.84 36.99 87.69 36.99 99.49"/><line class="cls-12" x1="61.4" y1="114.23" x2="36.99" y2="111.39"/><line class="cls-12" x1="61.4" y1="85.64" x2="36.99" y2="88.48"/><line class="cls-12" x1="61.4" y1="113.43" x2="36.99" y2="110.59"/><line class="cls-12" x1="31.84" y1="114.23" x2="61.4" y2="114.23"/><line class="cls-12" x1="18.88" y1="115.47" x2="30.06" y2="115.47"/><polyline class="cls-12" points="61.41 84.84 64.69 85.29 67.8 86.53 70.46 88.57 72.68 91.15 74.19 94.34 74.99 97.72 74.99 101.27 74.19 104.73 72.68 107.84 70.46 110.5 67.8 112.54 64.69 113.79 61.41 114.23"/><polyline class="cls-12" points="61.41 85.64 64.51 86 67.44 87.24 70.02 89.11 72.06 91.59 73.57 94.61 74.28 97.89 74.28 101.18 73.57 104.47 72.06 107.48 70.02 109.97 67.44 111.83 64.51 113.08 61.41 113.43"/><path class="cls-12" d="M31.88,113.23a135.17,135.17,0,0,0,0-28.58" transform="translate(0 0.5)"/><path class="cls-12" d="M32,84.72a1.87,1.87,0,0,0-1.89-1.62" transform="translate(0 0.5)"/><path class="cls-12" d="M30.11,114.89a1.88,1.88,0,0,0,1.9-1.64" transform="translate(0 0.5)"/><path class="cls-12" d="M27.49,99a1.56,1.56,0,1,0-1.56,1.55A1.56,1.56,0,0,0,27.49,99" transform="translate(0 0.5)"/><polyline class="cls-12" points="19.77 294.19 65.93 294.19 65.93 248.03 19.77 248.03 19.77 294.19"/><polyline class="cls-12" points="23.94 289.93 61.67 289.93 61.67 256.37 23.94 256.37 23.94 289.93"/><polyline class="cls-12" points="160.66 607.51 160.31 607.51 160.31 653.59 160.66 653.59 160.66 607.51"/><polyline class="cls-12" points="158.98 655.27 158.98 654.92 81.83 654.92 81.83 655.27 158.98 655.27"/><polyline class="cls-12" points="80.14 653.59 80.58 653.59 80.58 607.51 80.14 607.51 80.14 653.59"/><polyline class="cls-12" points="161.11 605.38 158.98 605.38 158.98 607.51 161.11 607.51 161.11 605.38"/><polyline class="cls-12" points="161.11 653.59 158.98 653.59 158.98 655.72 161.11 655.72 161.11 653.59"/><polyline class="cls-12" points="81.83 655.72 81.83 653.59 79.78 653.59 79.78 655.72 81.83 655.72"/><polyline class="cls-12" points="79.78 607.51 81.83 607.51 81.83 605.38 79.78 605.38 79.78 607.51"/><line class="cls-12" x1="158.98" y1="606.44" x2="158.98" y2="653.59"/><line class="cls-12" x1="161.11" y1="655.72" x2="161.11" y2="606.44"/><line class="cls-12" x1="158.98" y1="653.59" x2="81.83" y2="653.59"/><line class="cls-12" x1="79.78" y1="655.72" x2="161.11" y2="655.72"/><line class="cls-12" x1="81.83" y1="653.59" x2="81.83" y2="606.44"/><line class="cls-12" x1="79.78" y1="606.44" x2="79.78" y2="655.72"/><polyline class="cls-12" points="161.11 606.44 161.11 605.38 158.98 605.38 158.98 606.44"/><polyline class="cls-12" points="81.83 606.44 81.83 605.38 79.78 605.38 79.78 606.44"/><polyline class="cls-12" points="79.78 655.72 161.11 655.72 161.11 606.44 158.98 606.44 158.98 653.59 81.83 653.59 81.83 606.44 79.78 606.44 79.78 655.72"/><polyline class="cls-12" points="83.96 640.63 156.94 640.63 156.94 613.81 83.96 613.81 83.96 640.63"/><polyline class="cls-12" points="83.96 637.96 156.94 637.96 156.94 613.81 83.96 613.81 83.96 637.96"/><line class="cls-6" x1="170.79" y1="243.85" x2="170.79" y2="245.35"/><line class="cls-13" x1="170.79" y1="248.31" x2="170.79" y2="341.47"/><polyline class="cls-6" points="170.79 342.94 170.79 344.44 169.29 344.44"/><line class="cls-14" x1="166.33" y1="344.45" x2="20.26" y2="344.45"/><line class="cls-6" x1="18.78" y1="344.45" x2="17.28" y2="344.45"/><polyline class="cls-12" points="0.5 216.95 17.28 216.95 17.28 300.85 0.5 300.85 0.5 216.95"/><polyline class="cls-12" points="310.88 216.95 327.67 216.95 327.67 300.85 310.88 300.85 310.88 216.95"/><polyline class="cls-12" points="0.5 493.78 17.28 493.78 17.28 577.68 0.5 577.68 0.5 493.78"/><polyline class="cls-12" points="310.88 493.78 327.67 493.78 327.67 577.68 310.88 577.68 310.88 493.78"/><polyline class="cls-12" points="0.5 17.28 50.84 17.28 50.84 0.5 0.5 0.5"/></svg>