<svg id="_18" data-name="18" xmlns="http://www.w3.org/2000/svg" viewBox="0 0 366.32 773.85"><defs><style>.cls-1{isolation:isolate;font-size:12px;fill:#969696;}.cls-1,.cls-4,.cls-6{font-family:PTSans-Regular, PT Sans;}.cls-2{letter-spacing:-0.01em;}.cls-10,.cls-3,.cls-5,.cls-7,.cls-8,.cls-9{fill:none;stroke-linecap:round;stroke-linejoin:round;}.cls-3{stroke:#969696;stroke-width:0.75px;}.cls-4{font-size:40px;}.cls-10,.cls-5,.cls-7,.cls-8,.cls-9{stroke:#000;}.cls-10,.cls-5,.cls-9{stroke-width:0.5px;}.cls-6{font-size:36px;}.cls-7{stroke-width:0.25px;stroke-dasharray:1 1;}.cls-9{stroke-dasharray:2.97 2.97;}.cls-10{stroke-dasharray:2.96 2.96;}</style></defs><title>3floor_18flat</title><text class="cls-1" transform="translate(175.02 770.65)"><tspan class="cls-2">у</tspan><tspan x="5.42" y="0">лица</tspan></text><line class="cls-3" x1="164.26" y1="773.47" x2="164.26" y2="764.67"/><polyline class="cls-3" points="160.76 769.97 164.26 773.47 167.76 769.97"/><text class="cls-4" transform="translate(241.65 439.68)">CT</text><text class="cls-4" transform="translate(216.29 489.85)">20.85</text><text class="cls-4" transform="translate(221.91 389.77)">№18</text><polyline class="cls-5" points="202 500.67 202 351.59 326.33 351.59 326.33 500.67"/><line class="cls-5" x1="202" y1="401.38" x2="326.33" y2="401.38"/><line class="cls-5" x1="202" y1="500.67" x2="326.33" y2="500.67"/><line class="cls-5" x1="202" y1="451.17" x2="326.33" y2="451.17"/><text class="cls-6" transform="translate(132.49 591.81)">11.96</text><text class="cls-6" transform="translate(225.51 158.08)">3.10</text><text class="cls-6" transform="translate(102.54 353.58)">2.20</text><text class="cls-6" transform="translate(91.98 158.15)">3.59</text><line class="cls-7" x1="192.58" y1="219.98" x2="284.15" y2="219.98"/><line class="cls-7" x1="192.58" y1="212.25" x2="284.15" y2="212.25"/><line class="cls-7" x1="187.97" y1="180.77" x2="187.97" y2="89.2"/><line class="cls-7" x1="180.25" y1="180.77" x2="180.25" y2="89.2"/><line class="cls-7" x1="203.17" y1="0.52" x2="293.25" y2="0.52"/><line class="cls-8" x1="17.44" y1="668.06" x2="77.23" y2="668.06"/><line class="cls-8" x1="298.46" y1="668.06" x2="365.82" y2="668.06"/><line class="cls-8" x1="17.44" y1="667.17" x2="73.44" y2="667.17"/><line class="cls-8" x1="302.24" y1="667.17" x2="365.82" y2="667.17"/><line class="cls-8" x1="302.24" y1="661.49" x2="302.24" y2="629.5"/><line class="cls-8" x1="298.46" y1="679.32" x2="298.46" y2="668.06"/><line class="cls-8" x1="302.24" y1="667.17" x2="302.24" y2="661.49"/><line class="cls-8" x1="73.44" y1="661.49" x2="73.44" y2="629.5"/><line class="cls-8" x1="77.23" y1="679.32" x2="77.23" y2="668.06"/><line class="cls-8" x1="73.44" y1="667.17" x2="73.44" y2="661.49"/><line class="cls-8" x1="17.44" y1="679.32" x2="77.23" y2="679.32"/><polyline class="cls-8" points="298.46 679.32 365.82 679.32 365.82 625.45"/><line class="cls-8" x1="365.82" y1="629.5" x2="365.82" y2="629.5"/><line class="cls-8" x1="346.99" y1="629.5" x2="302.24" y2="629.5"/><line class="cls-8" x1="73.44" y1="629.5" x2="17.44" y2="629.5"/><line class="cls-8" x1="77.23" y1="679.32" x2="298.46" y2="679.32"/><line class="cls-8" x1="73.44" y1="629.5" x2="302.24" y2="629.5"/><polyline class="cls-8" points="73.44 661.49 78.63 661.49 78.63 665.27 81.02 665.27 81.02 667.17 73.44 667.17"/><polyline class="cls-8" points="150.97 667.17 147.19 667.17 147.19 665.27 149.58 665.27 149.58 661.49 150.97 661.49"/><line class="cls-8" x1="147.19" y1="667.17" x2="81.02" y2="667.17"/><polyline class="cls-8" points="78.63 659.59 84.31 659.59 143.9 659.59"/><polyline class="cls-8" points="84.31 659.59 84.31 665.27 78.63 665.27 78.63 659.59"/><polyline class="cls-8" points="149.58 665.27 143.9 665.27 143.9 659.59 149.58 659.59 149.58 665.27"/><line class="cls-8" x1="143.9" y1="665.27" x2="84.31" y2="665.27"/><line class="cls-8" x1="84.31" y1="659.59" x2="143.9" y2="659.59"/><line class="cls-8" x1="84.31" y1="662.38" x2="143.9" y2="662.38"/><polyline class="cls-8" points="150.97 661.49 152.37 661.49 152.37 665.27 154.76 665.27 154.76 667.17 150.97 667.17"/><polyline class="cls-8" points="224.72 667.17 220.93 667.17 220.93 665.27 223.32 665.27 223.32 661.49 224.72 661.49"/><line class="cls-8" x1="220.93" y1="667.17" x2="154.76" y2="667.17"/><polyline class="cls-8" points="152.37 659.59 158.05 659.59 217.64 659.59"/><polyline class="cls-8" points="158.05 659.59 158.05 665.27 152.37 665.27 152.37 659.59"/><polyline class="cls-8" points="223.32 665.27 217.64 665.27 217.64 659.59 223.32 659.59 223.32 665.27"/><line class="cls-8" x1="217.64" y1="665.27" x2="158.05" y2="665.27"/><line class="cls-8" x1="158.05" y1="659.59" x2="217.64" y2="659.59"/><line class="cls-8" x1="158.05" y1="662.38" x2="217.64" y2="662.38"/><polyline class="cls-8" points="224.72 661.49 226.11 661.49 226.11 665.27 228.5 665.27 228.5 667.17 224.72 667.17"/><polyline class="cls-8" points="302.24 667.17 294.77 667.17 294.77 665.27 297.06 665.27 297.06 661.49 302.24 661.49"/><line class="cls-8" x1="294.77" y1="667.17" x2="228.5" y2="667.17"/><polyline class="cls-8" points="226.11 659.59 231.79 659.59 291.48 659.59"/><polyline class="cls-8" points="231.79 659.59 231.79 665.27 226.11 665.27 226.11 659.59"/><polyline class="cls-8" points="297.06 665.27 291.48 665.27 291.48 659.59 297.06 659.59 297.06 665.27"/><line class="cls-8" x1="291.48" y1="665.27" x2="231.79" y2="665.27"/><line class="cls-8" x1="231.79" y1="659.59" x2="291.48" y2="659.59"/><line class="cls-8" x1="231.79" y1="662.38" x2="291.48" y2="662.38"/><polyline class="cls-8" points="73.44 661.49 73.44 667.17 73.44 661.49"/><polyline class="cls-8" points="73.44 667.17 77.23 667.17 73.44 667.17"/><polyline class="cls-8" points="77.23 679.32 77.23 668.06 77.23 667.17"/><line class="cls-8" x1="73.44" y1="661.49" x2="73.44" y2="629.5"/><polyline class="cls-8" points="302.24 661.49 302.24 667.17 302.24 661.49"/><polyline class="cls-8" points="302.24 667.17 298.46 667.17 302.24 667.17"/><polyline class="cls-8" points="298.46 679.32 298.46 668.06 298.46 667.17"/><line class="cls-8" x1="302.24" y1="661.49" x2="302.24" y2="629.5"/><line class="cls-8" x1="0.5" y1="668.06" x2="17.44" y2="668.06"/><line class="cls-8" x1="0.5" y1="667.17" x2="17.44" y2="667.17"/><polyline class="cls-8" points="17.44 679.32 0.5 679.32 0.5 646.79"/><line class="cls-8" x1="17.44" y1="629.5" x2="15.55" y2="629.5"/><line class="cls-8" x1="0.5" y1="629.5" x2="0.5" y2="629.5"/><line class="cls-8" x1="0.5" y1="0.5" x2="0.5" y2="0.5"/><line class="cls-8" x1="15.55" y1="0.5" x2="0.5" y2="0.5"/><polyline class="cls-8" points="15.55 0.5 15.55 15.55 15.55 554.16"/><line class="cls-8" x1="0.5" y1="0.5" x2="0.5" y2="554.16"/><polyline class="cls-8" points="168.11 681.72 167.62 681.72 167.62 733.53 168.11 733.53 168.11 681.72"/><polyline class="cls-8" points="166.22 735.43 166.22 734.93 79.62 734.93 79.62 735.43 166.22 735.43"/><polyline class="cls-8" points="77.73 733.53 78.13 733.53 78.13 681.72 77.73 681.72 77.73 733.53"/><polyline class="cls-8" points="168.51 679.32 166.22 679.32 166.22 681.72 168.51 681.72 168.51 679.32"/><polyline class="cls-8" points="168.51 733.53 166.22 733.53 166.22 735.83 168.51 735.83 168.51 733.53"/><polyline class="cls-8" points="79.62 735.83 79.62 733.53 77.23 733.53 77.23 735.83 79.62 735.83"/><polyline class="cls-8" points="77.23 681.72 79.62 681.72 79.62 679.32 77.23 679.32 77.23 681.72"/><line class="cls-8" x1="166.22" y1="680.52" x2="166.22" y2="733.53"/><line class="cls-8" x1="168.51" y1="735.83" x2="168.51" y2="680.52"/><line class="cls-8" x1="166.22" y1="733.53" x2="79.62" y2="733.53"/><line class="cls-8" x1="77.23" y1="735.83" x2="168.51" y2="735.83"/><line class="cls-8" x1="79.62" y1="733.53" x2="79.62" y2="680.52"/><line class="cls-8" x1="77.23" y1="680.52" x2="77.23" y2="735.83"/><polyline class="cls-8" points="168.51 680.52 168.51 679.32 166.22 679.32 166.22 680.52"/><polyline class="cls-8" points="79.62 680.52 79.62 679.32 77.23 679.32 77.23 680.52"/><polyline class="cls-8" points="77.23 735.83 168.51 735.83 168.51 680.52 166.22 680.52 166.22 733.53 79.62 733.53 79.62 680.52 77.23 680.52 77.23 735.83"/><polyline class="cls-8" points="81.92 718.88 163.83 718.88 163.83 688.79 81.92 688.79 81.92 718.88"/><polyline class="cls-8" points="81.92 715.89 163.83 715.89 163.83 688.79 81.92 688.79 81.92 715.89"/><line class="cls-5" x1="15.55" y1="392.23" x2="17.05" y2="392.23"/><line class="cls-9" x1="20.02" y1="392.23" x2="184.86" y2="392.23"/><polyline class="cls-5" points="186.34 392.23 187.84 392.23 187.84 390.73"/><line class="cls-10" x1="187.84" y1="387.76" x2="187.84" y2="276.63"/><line class="cls-5" x1="187.84" y1="275.14" x2="187.84" y2="273.64"/><polyline class="cls-8" points="295.17 0.5 295.17 7.97 295.17 19.33"/><polyline class="cls-8" points="201 0.5 201 7.97 201 19.33 15.55 19.33"/><line class="cls-8" x1="314" y1="0.5" x2="295.17" y2="0.5"/><polyline class="cls-8" points="201 0.5 15.55 0.5 15.55 19.33"/><path class="cls-8" d="M204.88,7.92a86.65,86.65,0,0,0,86.65,86.65"/><polyline class="cls-8" points="201 0.5 204.78 0.5 204.78 7.97 201 7.97 201 0.5"/><polyline class="cls-8" points="295.17 7.97 291.48 7.97 291.48 0.5 295.17 0.5 295.17 7.97"/><line class="cls-8" x1="291.48" y1="7.97" x2="291.48" y2="94.67"/><polyline class="cls-8" points="201 19.33 201 7.97 201 0.5 201 7.97"/><polyline class="cls-8" points="295.17 19.33 295.17 7.97 295.17 0.5 295.17 7.97"/><line class="cls-8" x1="346.99" y1="82.41" x2="346.99" y2="243.45"/><line class="cls-8" x1="346.99" y1="337.62" x2="346.99" y2="554.16"/><line class="cls-8" x1="365.82" y1="554.16" x2="365.82" y2="337.62"/><line class="cls-8" x1="365.82" y1="243.45" x2="365.82" y2="63.58"/><polyline class="cls-8" points="365.82 132.34 365.82 132.34 365.82 139.81 365.82 139.81"/><line class="cls-8" x1="365.82" y1="201" x2="365.82" y2="201"/><polyline class="cls-8" points="365.82 193.52 365.82 193.52 365.82 201"/><line class="cls-8" x1="187.84" y1="165.22" x2="180.37" y2="165.22"/><line class="cls-8" x1="187.84" y1="99.35" x2="180.37" y2="99.35"/><line class="cls-8" x1="187.84" y1="279.22" x2="187.84" y2="219.83"/><line class="cls-8" x1="187.84" y1="212.36" x2="187.84" y2="165.22"/><polyline class="cls-8" points="187.84 99.35 187.84 19.33 180.37 19.33 180.37 99.35"/><line class="cls-8" x1="180.37" y1="165.22" x2="180.37" y2="212.36"/><line class="cls-8" x1="180.37" y1="219.83" x2="180.37" y2="271.65"/><line class="cls-8" x1="187.84" y1="99.35" x2="180.37" y2="99.35"/><line class="cls-8" x1="187.84" y1="165.22" x2="180.37" y2="165.22"/><line class="cls-8" x1="197.31" y1="212.36" x2="197.31" y2="219.83"/><polyline class="cls-8" points="346.99 212.36 282.01 212.36 282.01 219.83"/><line class="cls-8" x1="197.31" y1="212.36" x2="187.84" y2="212.36"/><line class="cls-8" x1="187.84" y1="219.83" x2="197.31" y2="219.83"/><polyline class="cls-8" points="282.01 219.83 346.99 219.83 346.99 212.36"/><line class="cls-8" x1="282.01" y1="212.36" x2="282.01" y2="219.83"/><line class="cls-8" x1="197.31" y1="212.36" x2="197.31" y2="219.83"/><line class="cls-8" x1="180.37" y1="271.65" x2="70.16" y2="271.65"/><polyline class="cls-8" points="62.58 271.65 15.55 271.65 15.55 279.22 62.58 279.22"/><polyline class="cls-8" points="187.84 279.22 180.37 279.22 70.16 279.22"/><line class="cls-8" x1="62.58" y1="219.83" x2="62.58" y2="271.65"/><line class="cls-8" x1="62.58" y1="279.22" x2="70.16" y2="279.22"/><line class="cls-8" x1="70.16" y1="271.65" x2="70.16" y2="219.83"/><polyline class="cls-8" points="24.91 212.36 24.91 216.15 24.91 219.83"/><polyline class="cls-8" points="62.58 212.36 62.58 216.15 62.58 219.83"/><line class="cls-8" x1="15.55" y1="219.83" x2="24.91" y2="219.83"/><line class="cls-8" x1="70.16" y1="219.83" x2="180.37" y2="219.83"/><line class="cls-8" x1="180.37" y1="212.36" x2="62.58" y2="212.36"/><polyline class="cls-8" points="24.91 212.36 15.55 212.36 15.55 219.83"/><line class="cls-8" x1="62.58" y1="212.36" x2="24.91" y2="212.36"/><line class="cls-8" x1="62.58" y1="219.83" x2="24.91" y2="219.83"/><path class="cls-8" d="M62.58,212.31a37.68,37.68,0,0,0-2.27-12.87"/><line class="cls-8" x1="24.91" y1="212.36" x2="60.39" y2="199.5"/><polyline class="cls-8" points="62.58 219.83 62.58 216.15 62.58 212.36 62.58 216.15"/><polyline class="cls-8" points="24.91 219.83 24.91 216.15 24.91 212.36 24.91 216.15"/><line class="cls-8" x1="295.17" y1="19.33" x2="295.17" y2="82.41"/><polyline class="cls-8" points="314 0.5 314 19.33 314 63.58"/><polyline class="cls-8" points="295.17 82.41 314 82.41 346.99 82.41"/><line class="cls-8" x1="365.82" y1="63.58" x2="314" y2="63.58"/><line class="cls-8" x1="365.82" y1="63.58" x2="365.82" y2="63.58"/><polyline class="cls-8" points="346.99 648.33 365.82 648.33 365.82 554.16 346.99 554.16 346.99 648.33"/><polyline class="cls-8" points="346.99 337.62 365.82 337.62 365.82 243.45 346.99 243.45 346.99 337.62"/><polyline class="cls-8" points="0.5 554.16 0.5 629.5 0.5 648.33 15.55 648.33 15.55 629.5 15.55 554.16"/><polyline class="cls-8" points="365.82 205.78 365.82 205.78 365.82 257.5"/><line class="cls-8" x1="365.82" y1="257.5" x2="365.82" y2="257.5"/><polyline class="cls-8" points="365.82 215.15 365.82 215.15 365.82 252.82"/><line class="cls-8" x1="365.82" y1="252.82" x2="365.82" y2="252.82"/><line class="cls-8" x1="20.93" y1="30.59" x2="20.93" y2="78.63"/><line class="cls-8" x1="26.21" y1="84.31" x2="142.8" y2="84.31"/><line class="cls-8" x1="26.21" y1="25.01" x2="142.8" y2="25.01"/><line class="cls-8" x1="175.59" y1="89.99" x2="15.55" y2="89.99"/><polyline class="cls-8" points="175.59 89.99 175.59 19.33 15.55 19.33 15.55 89.99"/><line class="cls-8" x1="124.07" y1="34.78" x2="32.79" y2="34.78"/><line class="cls-8" x1="30.2" y1="37.67" x2="30.2" y2="71.65"/><line class="cls-8" x1="124.07" y1="74.44" x2="32.79" y2="74.44"/><line class="cls-8" x1="48.93" y1="52.92" x2="48.93" y2="49.43"/><line class="cls-8" x1="47.24" y1="54.61" x2="43.95" y2="54.61"/><line class="cls-8" x1="48.93" y1="56.4" x2="48.93" y2="59.89"/><line class="cls-8" x1="50.52" y1="54.61" x2="53.81" y2="54.61"/><path class="cls-8" d="M142.85,84.21c15.49,0,28.05-13.28,28.05-29.65s-12.56-29.65-28.05-29.65"/><path class="cls-8" d="M20.93,78.58a5.49,5.49,0,0,0,5.33,5.63"/><path class="cls-8" d="M26.26,24.91a5.49,5.49,0,0,0-5.33,5.63"/><path class="cls-8" d="M49,51.62a2.95,2.95,0,1,0,2.74,2.94A2.85,2.85,0,0,0,49,51.62"/><path class="cls-8" d="M124.12,74.44c10.32,0,18.68-8.9,18.68-19.88s-8.36-19.88-18.68-19.88"/><path class="cls-8" d="M32.84,34.78a2.74,2.74,0,0,0-2.64,2.84"/><path class="cls-8" d="M30.2,71.6a2.74,2.74,0,0,0,2.64,2.84"/><path class="cls-8" d="M49,50.62a3.95,3.95,0,1,0,3.74,3.94A3.85,3.85,0,0,0,49,50.62"/><polyline class="cls-8" points="37.07 143.6 15.55 143.6 15.55 92.78 37.07 92.78"/><line class="cls-8" x1="15.55" y1="110.22" x2="15.55" y2="126.16"/><line class="cls-8" x1="32.79" y1="113.9" x2="32.79" y2="116.59"/><line class="cls-8" x1="28.5" y1="118.19" x2="31.19" y2="118.19"/><line class="cls-8" x1="32.79" y1="119.78" x2="32.79" y2="122.47"/><line class="cls-8" x1="34.38" y1="118.19" x2="37.07" y2="118.19"/><path class="cls-8" d="M27.74,131.63a22.69,22.69,0,0,0,10.72,8.79"/><path class="cls-8" d="M24.49,118.11a22.66,22.66,0,0,0,3.18,13.52"/><path class="cls-8" d="M38.46,95.86a22.69,22.69,0,0,0-10.72,8.79"/><path class="cls-8" d="M27.67,104.65a22.64,22.64,0,0,0-3.18,13.51"/><path class="cls-8" d="M49.9,135.34a42,42,0,0,0,4.2-15.43"/><path class="cls-8" d="M47.69,97.61a12.9,12.9,0,0,0-10.62-4.82"/><path class="cls-8" d="M54.15,119.92a26.43,26.43,0,0,0,0-3.56"/><path class="cls-8" d="M28.6,103.92a93,93,0,0,0,0,28.45"/><path class="cls-8" d="M40.46,94.08a32,32,0,0,0-20.76,7.2"/><path class="cls-8" d="M18.22,103.57a63.65,63.65,0,0,0-1.57,14.55"/><path class="cls-8" d="M19.69,101.21a4.22,4.22,0,0,0-1.45,2.34"/><path class="cls-8" d="M19.67,103.78a109.14,109.14,0,0,0-1,14.34"/><path class="cls-8" d="M40.39,94A28.7,28.7,0,0,0,21,101.16"/><path class="cls-8" d="M21.07,101.21a4.25,4.25,0,0,0-1.4,2.59"/><path class="cls-8" d="M21.07,135.09a28.68,28.68,0,0,0,19.38,7.21"/><path class="cls-8" d="M19.67,135a31.91,31.91,0,0,0,20.75,7.23"/><path class="cls-8" d="M18.64,118.11a109.09,109.09,0,0,0,1,14.33"/><path class="cls-8" d="M16.65,118.07a63.08,63.08,0,0,0,1.55,14.55"/><path class="cls-8" d="M19.67,132.47a4.23,4.23,0,0,0,1.39,2.59"/><path class="cls-8" d="M18.14,132.62A4.28,4.28,0,0,0,19.59,135"/><path class="cls-8" d="M37.07,143.49a13,13,0,0,0,10.62-4.82"/><path class="cls-8" d="M47.81,138.76a20.19,20.19,0,0,0,2.2-3.38"/><path class="cls-8" d="M50,100.9a19.8,19.8,0,0,0-2.2-3.38"/><path class="cls-8" d="M54.1,116.37a41.87,41.87,0,0,0-4.2-15.43"/><path class="cls-8" d="M50.59,125.14a29.85,29.85,0,0,0,0-14"/><path class="cls-8" d="M38.39,140.39a7.63,7.63,0,0,0,6.3-2.62"/><path class="cls-8" d="M44.7,137.78a27.48,27.48,0,0,0,5.8-12.67"/><path class="cls-8" d="M44.69,98.51a7.64,7.64,0,0,0-6.3-2.63"/><path class="cls-8" d="M50.5,111.16A27.4,27.4,0,0,0,44.7,98.5"/><path class="cls-8" d="M36.18,118.14a3.34,3.34,0,1,0-3.34,3.34,3.34,3.34,0,0,0,3.34-3.34"/><path class="cls-8" d="M35.18,118.14a2.34,2.34,0,1,0-2.34,2.34,2.34,2.34,0,0,0,2.34-2.34"/><line class="cls-8" x1="30" y1="191.13" x2="63.28" y2="191.13"/><polyline class="cls-8" points="28 192.53 15.55 192.53 15.55 156.75"/><line class="cls-8" x1="35.88" y1="174.69" x2="35.88" y2="161.44"/><polyline class="cls-8" points="63.18 191.13 35.88 187.94 35.88 174.69"/><line class="cls-8" x1="63.18" y1="158.25" x2="35.88" y2="161.44"/><line class="cls-8" x1="63.18" y1="190.34" x2="35.88" y2="187.15"/><line class="cls-8" x1="63.18" y1="159.04" x2="35.88" y2="162.23"/><line class="cls-8" x1="30" y1="158.25" x2="63.28" y2="158.25"/><line class="cls-8" x1="15.55" y1="156.75" x2="28" y2="156.75"/><polyline class="cls-8" points="63.18 191.13 66.87 190.73 70.36 189.24 73.44 187.05 75.94 184.06 77.63 180.57 78.53 176.68 78.53 172.7 77.63 168.81 75.94 165.32 73.44 162.33 70.36 160.04 66.87 158.65 63.18 158.25"/><polyline class="cls-8" points="63.18 190.34 66.67 189.84 69.96 188.54 72.85 186.35 75.24 183.56 76.83 180.27 77.73 176.58 77.73 172.8 76.83 169.11 75.24 165.82 72.85 162.93 69.96 160.84 66.67 159.54 63.18 159.04"/><path class="cls-8" d="M30.14,190.68a150.79,150.79,0,0,0,0-32.07"/><path class="cls-8" d="M28.05,192.53a2.11,2.11,0,0,0,2.13-1.82"/><path class="cls-8" d="M30.19,158.59a2.13,2.13,0,0,0-2.14-1.84"/><path class="cls-8" d="M25.21,174.64a1.74,1.74,0,1,0-1.74,1.74,1.74,1.74,0,0,0,1.74-1.74"/><polyline class="cls-8" points="20.23 335.73 72.05 335.73 72.05 283.91 20.23 283.91 20.23 335.73"/><polyline class="cls-8" points="24.91 330.94 67.37 330.94 67.37 293.27 24.91 293.27 24.91 330.94"/></svg>