<svg id="_137" data-name="137" xmlns="http://www.w3.org/2000/svg" viewBox="0 0 408.11 792"><defs><style>.cls-1{isolation:isolate;font-size:12px;fill:#969696;}.cls-1,.cls-7,.cls-8{font-family:PTSans-Regular, PT Sans;}.cls-2,.cls-3,.cls-4,.cls-5,.cls-6{fill:none;stroke-linecap:round;stroke-linejoin:round;}.cls-2{stroke:#969696;stroke-width:0.75px;}.cls-3,.cls-6{stroke:#7d7d7d;}.cls-3{stroke-dasharray:4 4;}.cls-4{stroke:#356e5f;}.cls-5{stroke:#000;}.cls-6{stroke-width:0.5px;}.cls-7{font-size:28px;}.cls-8{font-size:24px;}</style></defs><title>14floor_137flat</title><text class="cls-1" transform="translate(198.48 10.2)">двор</text><line class="cls-2" x1="187.72" y1="1.4" x2="187.72" y2="10.2"/><polyline class="cls-2" points="191.22 4.9 187.72 1.4 184.22 4.9"/><polyline class="cls-3" points="215.21 488.89 388.27 488.89 388.27 375.4 215.21 375.4 215.21 488.89"/><line class="cls-3" x1="196.34" y1="543.76" x2="111.42" y2="543.76"/><line class="cls-3" x1="196.34" y1="551.28" x2="111.42" y2="551.28"/><line class="cls-3" x1="215.21" y1="597.71" x2="215.21" y2="664.78"/><line class="cls-3" x1="222.8" y1="597.71" x2="222.8" y2="664.78"/><line class="cls-4" x1="305.07" y1="114.82" x2="305.07" y2="114.82"/><line class="cls-4" x1="352.66" y1="114.74" x2="352.66" y2="114.74"/><line class="cls-4" x1="392.27" y1="114.74" x2="392.27" y2="114.74"/><line class="cls-5" x1="286.05" y1="124.76" x2="291.53" y2="115.29"/><line class="cls-5" x1="291.53" y1="124.76" x2="296.93" y2="115.29"/><line class="cls-5" x1="296.93" y1="124.76" x2="302.41" y2="115.29"/><line class="cls-5" x1="302.41" y1="124.76" x2="307.89" y2="115.29"/><line class="cls-5" x1="307.89" y1="124.76" x2="313.36" y2="115.29"/><line class="cls-5" x1="313.36" y1="124.76" x2="318.77" y2="115.29"/><line class="cls-5" x1="318.77" y1="124.76" x2="324.24" y2="115.29"/><line class="cls-5" x1="324.24" y1="124.76" x2="329.72" y2="115.29"/><line class="cls-5" x1="329.72" y1="124.76" x2="335.2" y2="115.29"/><line class="cls-5" x1="335.2" y1="124.76" x2="340.6" y2="115.29"/><line class="cls-5" x1="340.6" y1="124.76" x2="346.08" y2="115.29"/><line class="cls-5" x1="346.08" y1="124.76" x2="351.56" y2="115.29"/><line class="cls-5" x1="351.56" y1="124.76" x2="357.04" y2="115.29"/><line class="cls-5" x1="357.04" y1="124.76" x2="362.44" y2="115.29"/><line class="cls-5" x1="362.44" y1="124.76" x2="367.92" y2="115.29"/><line class="cls-5" x1="367.92" y1="124.76" x2="373.4" y2="115.29"/><line class="cls-5" x1="373.4" y1="124.76" x2="378.88" y2="115.29"/><line class="cls-5" x1="378.88" y1="124.76" x2="384.36" y2="115.29"/><line class="cls-5" x1="384.36" y1="124.76" x2="389.76" y2="115.29"/><line class="cls-5" x1="392.5" y1="120.06" x2="395.24" y2="115.29"/><line class="cls-5" x1="289.49" y1="124.76" x2="286.28" y2="119.2"/><line class="cls-5" x1="294.97" y1="124.76" x2="289.49" y2="115.29"/><line class="cls-5" x1="300.37" y1="124.76" x2="294.97" y2="115.29"/><line class="cls-5" x1="305.85" y1="124.76" x2="300.37" y2="115.29"/><line class="cls-5" x1="311.33" y1="124.76" x2="305.85" y2="115.29"/><line class="cls-5" x1="316.81" y1="124.76" x2="311.33" y2="115.29"/><line class="cls-5" x1="322.21" y1="124.76" x2="316.81" y2="115.29"/><line class="cls-5" x1="327.69" y1="124.76" x2="322.21" y2="115.29"/><line class="cls-5" x1="333.17" y1="124.76" x2="327.69" y2="115.29"/><line class="cls-5" x1="338.65" y1="124.76" x2="333.17" y2="115.29"/><line class="cls-5" x1="344.05" y1="124.76" x2="338.65" y2="115.29"/><line class="cls-5" x1="349.53" y1="124.76" x2="344.05" y2="115.29"/><line class="cls-5" x1="355.01" y1="124.76" x2="349.53" y2="115.29"/><line class="cls-5" x1="360.49" y1="124.76" x2="355.01" y2="115.29"/><line class="cls-5" x1="365.89" y1="124.76" x2="360.49" y2="115.29"/><line class="cls-5" x1="371.37" y1="124.76" x2="365.89" y2="115.29"/><line class="cls-5" x1="376.85" y1="124.76" x2="371.37" y2="115.29"/><line class="cls-5" x1="382.32" y1="124.76" x2="376.85" y2="115.29"/><line class="cls-5" x1="387.73" y1="124.76" x2="382.32" y2="115.29"/><line class="cls-5" x1="390.47" y1="120.06" x2="387.73" y2="115.29"/><line class="cls-5" x1="395.79" y1="119.75" x2="393.21" y2="115.29"/><line class="cls-5" x1="285.42" y1="127.66" x2="288.32" y2="124.76"/><line class="cls-5" x1="294.19" y1="145.66" x2="304.21" y2="135.56"/><line class="cls-5" x1="307.57" y1="132.27" x2="315.09" y2="124.76"/><line class="cls-5" x1="320.96" y1="145.66" x2="330.98" y2="135.56"/><line class="cls-5" x1="334.34" y1="132.27" x2="341.78" y2="124.76"/><line class="cls-5" x1="347.73" y1="145.66" x2="357.75" y2="135.56"/><line class="cls-5" x1="361.11" y1="132.27" x2="368.55" y2="124.76"/><line class="cls-5" x1="374.42" y1="145.66" x2="384.52" y2="135.56"/><line class="cls-5" x1="387.8" y1="132.27" x2="388.27" y2="131.8"/><line class="cls-5" x1="283.93" y1="142.53" x2="290.82" y2="135.56"/><line class="cls-5" x1="294.19" y1="132.27" x2="301.7" y2="124.76"/><line class="cls-5" x1="307.57" y1="145.66" x2="317.59" y2="135.56"/><line class="cls-5" x1="320.96" y1="132.27" x2="328.39" y2="124.76"/><line class="cls-5" x1="334.34" y1="145.66" x2="344.36" y2="135.56"/><line class="cls-5" x1="347.73" y1="132.27" x2="355.16" y2="124.76"/><line class="cls-5" x1="361.11" y1="145.66" x2="371.13" y2="135.56"/><line class="cls-5" x1="374.42" y1="132.27" x2="381.93" y2="124.76"/><line class="cls-5" x1="387.8" y1="145.66" x2="388.27" y2="145.19"/><line class="cls-5" x1="395.32" y1="115.29" x2="286.67" y2="115.29"/><line class="cls-5" x1="388.27" y1="124.76" x2="285.73" y2="124.76"/><line class="cls-5" x1="283.31" y1="148.4" x2="388.27" y2="148.4"/><line class="cls-5" x1="395.24" y1="114.35" x2="286.75" y2="114.35"/><line class="cls-4" x1="3.94" y1="114.9" x2="3.94" y2="114.9"/><line class="cls-5" x1="4.81" y1="120.06" x2="7.54" y2="115.29"/><line class="cls-5" x1="2.77" y1="120.06" x2="0.5" y2="115.99"/><line class="cls-5" x1="8.01" y1="119.59" x2="5.51" y2="115.29"/><line class="cls-5" x1="7.62" y1="115.29" x2="0.5" y2="115.29"/><line class="cls-5" x1="7.47" y1="114.35" x2="0.5" y2="114.35"/><line class="cls-4" x1="26.17" y1="110.67" x2="26.17" y2="110.67"/><line class="cls-4" x1="63.35" y1="103.78" x2="63.35" y2="103.78"/><line class="cls-5" x1="10.28" y1="120.06" x2="13.73" y2="114.04"/><line class="cls-5" x1="15.76" y1="120.06" x2="19.91" y2="112.78"/><line class="cls-5" x1="19.83" y1="122.49" x2="26.17" y2="111.53"/><line class="cls-5" x1="26.02" y1="121.16" x2="32.36" y2="110.2"/><line class="cls-5" x1="32.2" y1="119.91" x2="38.54" y2="108.95"/><line class="cls-5" x1="38.39" y1="118.65" x2="44.73" y2="107.7"/><line class="cls-5" x1="44.57" y1="117.32" x2="50.91" y2="106.36"/><line class="cls-5" x1="50.83" y1="116.07" x2="54.9" y2="108.95"/><line class="cls-5" x1="8.25" y1="120.06" x2="8.01" y2="119.59"/><line class="cls-5" x1="13.73" y1="120.06" x2="10.6" y2="114.66"/><line class="cls-5" x1="20.46" y1="122.33" x2="19.44" y2="120.53"/><line class="cls-5" x1="19.21" y1="120.06" x2="15.53" y2="113.64"/><line class="cls-5" x1="25.39" y1="121.32" x2="20.38" y2="112.71"/><line class="cls-5" x1="30.24" y1="120.3" x2="25.31" y2="111.69"/><line class="cls-5" x1="35.18" y1="119.28" x2="30.17" y2="110.67"/><line class="cls-5" x1="40.03" y1="118.26" x2="35.02" y2="109.65"/><line class="cls-5" x1="44.88" y1="117.32" x2="39.95" y2="108.63"/><line class="cls-5" x1="49.81" y1="116.31" x2="44.8" y2="107.7"/><line class="cls-5" x1="54.67" y1="115.29" x2="49.66" y2="106.68"/><line class="cls-5" x1="19.44" y1="126.09" x2="23.36" y2="122.25"/><line class="cls-5" x1="27.27" y1="145.03" x2="36.74" y2="135.56"/><line class="cls-5" x1="40.11" y1="132.27" x2="50.13" y2="122.25"/><line class="cls-5" x1="53.41" y1="118.89" x2="57.64" y2="114.66"/><line class="cls-5" x1="60.93" y1="138.14" x2="63.51" y2="135.56"/><line class="cls-5" x1="19.44" y1="139.48" x2="23.36" y2="135.56"/><line class="cls-5" x1="26.72" y1="132.27" x2="36.74" y2="122.25"/><line class="cls-5" x1="40.11" y1="118.89" x2="40.81" y2="118.11"/><line class="cls-5" x1="44.1" y1="141.59" x2="50.13" y2="135.56"/><line class="cls-5" x1="53.41" y1="132.27" x2="63.51" y2="122.25"/><line class="cls-4" x1="64.53" y1="107.23" x2="64.53" y2="107.23"/><line class="cls-5" x1="54.9" y1="108.95" x2="57.09" y2="105.11"/><line class="cls-5" x1="57.01" y1="114.82" x2="63.35" y2="103.86"/><line class="cls-5" x1="63.2" y1="113.57" x2="64.92" y2="110.59"/><line class="cls-5" x1="59.52" y1="114.27" x2="54.59" y2="105.66"/><line class="cls-5" x1="64.45" y1="113.25" x2="59.44" y2="104.64"/><line class="cls-5" x1="54.2" y1="105.74" x2="7.62" y2="115.29"/><line class="cls-5" x1="56.15" y1="114.98" x2="19.44" y2="122.49"/><line class="cls-5" x1="64.45" y1="103.63" x2="66.33" y2="112.86"/><line class="cls-5" x1="62.65" y1="113.64" x2="65.39" y2="113.1"/><line class="cls-5" x1="65.39" y1="113.1" x2="66.33" y2="112.86"/><line class="cls-5" x1="64.22" y1="102.69" x2="64.45" y2="103.63"/><line class="cls-5" x1="62.65" y1="113.64" x2="62.65" y2="113.64"/><line class="cls-5" x1="56.15" y1="114.98" x2="62.65" y2="113.64"/><line class="cls-5" x1="56.15" y1="114.98" x2="56.15" y2="114.98"/><polyline class="cls-5" points="54.2 105.74 63.51 103.78 65.39 113.1 63.51 103.78"/><line class="cls-5" x1="63.28" y1="102.92" x2="64.22" y2="102.69"/><polyline class="cls-5" points="62.65 113.64 63.75 119.2 67.35 136.81 19.44 146.68"/><line class="cls-5" x1="63.28" y1="102.92" x2="7.47" y2="114.35"/><line class="cls-5" x1="147.11" y1="85.62" x2="64.22" y2="102.69"/><line class="cls-5" x1="147.11" y1="120.38" x2="67.35" y2="136.81"/><polyline class="cls-5" points="147.11 102.06 142.02 103.08 141.24 99.4 138.97 99.87 138.58 97.99 146.01 96.5 147.11 96.27"/><polyline class="cls-5" points="62.65 113.64 70.01 112.16 70.4 113.96 68.05 114.43 68.83 118.18 63.75 119.2"/><line class="cls-5" x1="70.01" y1="112.16" x2="138.58" y2="97.99"/><polyline class="cls-5" points="142.41 104.96 136.85 106.13 74.78 118.89"/><polyline class="cls-5" points="136.85 106.13 135.68 100.57 141.24 99.4 142.41 104.96"/><polyline class="cls-5" points="68.05 114.43 73.61 113.33 74.78 118.89 69.22 119.98 68.05 114.43"/><line class="cls-5" x1="73.61" y1="113.33" x2="135.68" y2="100.57"/><line class="cls-5" x1="136.85" y1="106.13" x2="74.78" y2="118.89"/><line class="cls-5" x1="136.31" y1="103.31" x2="74.23" y2="116.07"/><line class="cls-5" x1="146.01" y1="96.5" x2="147.11" y2="102.06"/><polyline class="cls-5" points="67.35 136.81 63.75 119.2 62.65 113.64 63.75 119.2"/><line class="cls-5" x1="64.22" y1="102.69" x2="64.45" y2="103.63"/><polyline class="cls-5" points="66.33 112.86 65.39 113.1 66.33 112.86"/><polyline class="cls-5" points="65.39 113.1 62.65 113.64 65.39 113.1"/><line class="cls-5" x1="64.45" y1="103.63" x2="66.33" y2="112.86"/><line class="cls-5" x1="280.96" y1="132.12" x2="285.42" y2="127.66"/><line class="cls-5" x1="280.8" y1="145.66" x2="283.93" y2="142.53"/><line class="cls-5" x1="281.12" y1="123.82" x2="286.13" y2="115.21"/><line class="cls-5" x1="285.97" y1="124.84" x2="290.98" y2="116.23"/><line class="cls-5" x1="283.78" y1="124.37" x2="280.72" y2="119.12"/><line class="cls-5" x1="289.26" y1="124.45" x2="283.62" y2="114.66"/><line class="cls-5" x1="290.74" y1="117.48" x2="289.88" y2="115.99"/><line class="cls-5" x1="280.8" y1="114.11" x2="278.92" y2="123.35"/><line class="cls-5" x1="282.6" y1="124.13" x2="279.78" y2="123.59"/><line class="cls-5" x1="279.78" y1="123.59" x2="278.92" y2="123.35"/><line class="cls-5" x1="280.96" y1="113.17" x2="280.8" y2="114.11"/><line class="cls-5" x1="282.6" y1="124.13" x2="282.6" y2="124.13"/><line class="cls-5" x1="289.1" y1="125.46" x2="282.6" y2="124.13"/><line class="cls-5" x1="289.1" y1="125.46" x2="289.1" y2="125.46"/><polyline class="cls-5" points="290.98 116.23 281.74 114.27 279.79 123.58 281.74 114.27"/><line class="cls-5" x1="281.9" y1="113.33" x2="280.96" y2="113.17"/><polyline class="cls-5" points="282.6 124.13 281.43 129.69 277.83 147.3 283.31 148.4"/><line class="cls-5" x1="286.75" y1="114.35" x2="281.9" y2="113.33"/><line class="cls-5" x1="147.11" y1="85.62" x2="280.96" y2="113.17"/><line class="cls-5" x1="147.11" y1="120.38" x2="277.83" y2="147.3"/><polyline class="cls-5" points="147.11 102.06 152.2 103.08 152.98 99.4 155.33 99.87 155.72 97.99 148.28 96.5 147.11 96.27"/><polyline class="cls-5" points="227.03 112.7 223.27 111.92 222.96 113.8 225.23 114.27 224.44 117.95 225.85 118.26"/><line class="cls-5" x1="223.27" y1="111.92" x2="155.72" y2="97.99"/><polyline class="cls-5" points="151.81 104.96 157.36 106.13 218.57 118.65"/><polyline class="cls-5" points="157.36 106.13 158.54 100.57 152.98 99.4 151.81 104.96"/><polyline class="cls-5" points="225.23 114.27 219.67 113.1 218.57 118.65 224.13 119.83 225.23 114.27"/><line class="cls-5" x1="219.67" y1="113.1" x2="158.54" y2="100.57"/><line class="cls-5" x1="157.36" y1="106.13" x2="218.57" y2="118.65"/><line class="cls-5" x1="157.99" y1="103.31" x2="219.12" y2="115.91"/><line class="cls-5" x1="148.28" y1="96.5" x2="147.11" y2="102.06"/><polyline class="cls-5" points="225.85 118.26 227.26 118.58 228.04 114.82 230.31 115.29 230.71 113.49 227.03 112.7"/><polyline class="cls-5" points="282.6 124.13 275.17 122.57 274.77 124.45 277.12 124.92 276.34 128.67 281.43 129.69"/><line class="cls-5" x1="275.17" y1="122.57" x2="230.71" y2="113.49"/><polyline class="cls-5" points="226.87 120.38 232.43 121.55 270.39 129.38"/><polyline class="cls-5" points="232.43 121.55 233.6 115.99 228.04 114.82 226.87 120.38"/><polyline class="cls-5" points="277.12 124.92 271.57 123.82 270.39 129.38 275.95 130.47 277.12 124.92"/><line class="cls-5" x1="271.57" y1="123.82" x2="233.6" y2="115.99"/><line class="cls-5" x1="232.43" y1="121.55" x2="270.39" y2="129.38"/><line class="cls-5" x1="232.98" y1="118.73" x2="271.02" y2="126.56"/><polyline class="cls-5" points="277.83 147.3 281.43 129.69 282.6 124.13 281.43 129.69"/><line class="cls-5" x1="280.96" y1="113.17" x2="280.8" y2="114.11"/><polyline class="cls-5" points="278.92 123.35 279.79 123.58 278.92 123.35"/><polyline class="cls-5" points="279.79 123.58 282.6 124.13 279.79 123.58"/><line class="cls-5" x1="280.8" y1="114.11" x2="278.92" y2="123.35"/><line class="cls-5" x1="397.98" y1="120.06" x2="401.42" y2="114.04"/><line class="cls-5" x1="403.46" y1="120.06" x2="407.61" y2="112.78"/><line class="cls-5" x1="395.94" y1="120.06" x2="395.79" y2="119.75"/><line class="cls-5" x1="401.42" y1="120.06" x2="398.29" y2="114.66"/><line class="cls-5" x1="406.9" y1="120.06" x2="403.22" y2="113.72"/><line class="cls-5" x1="407.22" y1="112.78" x2="395.32" y2="115.29"/><line class="cls-5" x1="407.22" y1="112.2" x2="395.24" y2="114.35"/><line class="cls-5" x1="9.97" y1="770.92" x2="2.46" y2="763.4"/><line class="cls-5" x1="19.44" y1="753.62" x2="15.84" y2="750.02"/><line class="cls-5" x1="13.34" y1="747.51" x2="5.82" y2="740"/><line class="cls-5" x1="3.32" y1="737.5" x2="0.5" y2="734.68"/><line class="cls-5" x1="19.44" y1="726.85" x2="19.21" y2="726.61"/><line class="cls-5" x1="16.7" y1="724.11" x2="9.11" y2="716.6"/><line class="cls-5" x1="6.61" y1="714.09" x2="0.5" y2="707.99"/><line class="cls-5" x1="19.44" y1="700.16" x2="12.48" y2="693.19"/><line class="cls-5" x1="9.97" y1="690.69" x2="2.46" y2="683.17"/><line class="cls-5" x1="19.44" y1="673.39" x2="15.84" y2="669.79"/><line class="cls-5" x1="13.34" y1="667.28" x2="5.82" y2="659.69"/><line class="cls-5" x1="3.32" y1="657.19" x2="0.5" y2="654.45"/><line class="cls-5" x1="19.44" y1="646.62" x2="19.21" y2="646.38"/><line class="cls-5" x1="16.7" y1="643.88" x2="9.11" y2="636.29"/><line class="cls-5" x1="6.61" y1="633.78" x2="0.5" y2="627.68"/><line class="cls-5" x1="19.44" y1="619.85" x2="12.48" y2="612.88"/><line class="cls-5" x1="9.97" y1="610.38" x2="2.46" y2="602.86"/><line class="cls-5" x1="19.44" y1="593.16" x2="15.84" y2="589.48"/><line class="cls-5" x1="13.34" y1="586.97" x2="5.82" y2="579.46"/><line class="cls-5" x1="3.32" y1="576.95" x2="0.5" y2="574.21"/><line class="cls-5" x1="19.44" y1="566.39" x2="19.21" y2="566.07"/><line class="cls-5" x1="16.7" y1="563.57" x2="9.11" y2="556.05"/><line class="cls-5" x1="6.61" y1="553.55" x2="0.5" y2="547.44"/><line class="cls-5" x1="19.44" y1="539.62" x2="16" y2="536.17"/><line class="cls-5" x1="19.44" y1="767" x2="14.12" y2="761.68"/><line class="cls-5" x1="11.62" y1="759.18" x2="4.1" y2="751.66"/><line class="cls-5" x1="1.6" y1="749.16" x2="0.5" y2="748.06"/><line class="cls-5" x1="19.44" y1="740.23" x2="17.49" y2="738.28"/><line class="cls-5" x1="14.98" y1="735.77" x2="7.47" y2="728.26"/><line class="cls-5" x1="4.96" y1="725.75" x2="0.5" y2="721.37"/><line class="cls-5" x1="18.35" y1="712.37" x2="10.83" y2="704.85"/><line class="cls-5" x1="8.33" y1="702.35" x2="0.81" y2="694.84"/><line class="cls-5" x1="19.44" y1="686.77" x2="14.12" y2="681.45"/><line class="cls-5" x1="11.62" y1="678.95" x2="4.1" y2="671.43"/><line class="cls-5" x1="1.6" y1="668.93" x2="0.5" y2="667.83"/><line class="cls-5" x1="19.44" y1="660" x2="17.49" y2="658.05"/><line class="cls-5" x1="14.98" y1="655.54" x2="7.47" y2="648.03"/><line class="cls-5" x1="4.96" y1="645.52" x2="0.5" y2="641.06"/><line class="cls-5" x1="18.35" y1="632.14" x2="10.83" y2="624.62"/><line class="cls-5" x1="8.33" y1="622.12" x2="0.81" y2="614.6"/><line class="cls-5" x1="19.44" y1="606.54" x2="14.12" y2="601.22"/><line class="cls-5" x1="11.62" y1="598.71" x2="4.1" y2="591.2"/><line class="cls-5" x1="1.6" y1="588.69" x2="0.5" y2="587.6"/><line class="cls-5" x1="19.44" y1="579.77" x2="17.49" y2="577.81"/><line class="cls-5" x1="14.98" y1="575.31" x2="7.47" y2="567.8"/><line class="cls-5" x1="4.96" y1="565.29" x2="0.5" y2="560.83"/><line class="cls-5" x1="18.35" y1="551.91" x2="10.83" y2="544.39"/><line class="cls-5" x1="8.33" y1="541.89" x2="2.61" y2="536.17"/><line class="cls-5" x1="19.44" y1="432.61" x2="15.84" y2="429.01"/><line class="cls-5" x1="13.34" y1="426.51" x2="5.82" y2="418.99"/><line class="cls-5" x1="3.32" y1="416.49" x2="0.5" y2="413.75"/><line class="cls-5" x1="19.44" y1="405.84" x2="19.21" y2="405.61"/><line class="cls-5" x1="16.7" y1="403.1" x2="9.11" y2="395.59"/><line class="cls-5" x1="6.61" y1="393.09" x2="0.5" y2="386.98"/><line class="cls-5" x1="19.44" y1="379.15" x2="12.48" y2="372.19"/><line class="cls-5" x1="9.97" y1="369.68" x2="2.46" y2="362.17"/><line class="cls-5" x1="19.44" y1="352.38" x2="15.84" y2="348.78"/><line class="cls-5" x1="13.34" y1="346.28" x2="5.82" y2="338.76"/><line class="cls-5" x1="3.32" y1="336.26" x2="0.5" y2="333.44"/><line class="cls-5" x1="19.44" y1="325.61" x2="19.21" y2="325.38"/><line class="cls-5" x1="16.7" y1="322.87" x2="9.11" y2="315.36"/><line class="cls-5" x1="6.61" y1="312.78" x2="0.5" y2="306.75"/><line class="cls-5" x1="19.44" y1="298.84" x2="12.48" y2="291.88"/><line class="cls-5" x1="9.97" y1="289.37" x2="2.46" y2="281.86"/><line class="cls-5" x1="19.44" y1="272.15" x2="15.84" y2="268.47"/><line class="cls-5" x1="13.34" y1="265.97" x2="5.82" y2="258.45"/><line class="cls-5" x1="3.32" y1="255.95" x2="0.5" y2="253.21"/><line class="cls-5" x1="19.44" y1="245.38" x2="19.21" y2="245.07"/><line class="cls-5" x1="16.7" y1="242.56" x2="9.11" y2="235.05"/><line class="cls-5" x1="6.61" y1="232.54" x2="0.5" y2="226.44"/><line class="cls-5" x1="15.06" y1="441.62" x2="14.12" y2="440.68"/><line class="cls-5" x1="11.62" y1="438.17" x2="4.1" y2="430.66"/><line class="cls-5" x1="1.6" y1="428.15" x2="0.5" y2="427.06"/><line class="cls-5" x1="19.44" y1="419.23" x2="17.49" y2="417.27"/><line class="cls-5" x1="14.98" y1="414.77" x2="7.47" y2="407.25"/><line class="cls-5" x1="4.96" y1="404.75" x2="0.5" y2="400.37"/><line class="cls-5" x1="18.35" y1="391.36" x2="10.83" y2="383.85"/><line class="cls-5" x1="8.33" y1="381.34" x2="0.81" y2="373.83"/><line class="cls-5" x1="19.44" y1="365.77" x2="14.12" y2="360.45"/><line class="cls-5" x1="11.62" y1="357.94" x2="4.1" y2="350.43"/><line class="cls-5" x1="1.6" y1="347.92" x2="0.5" y2="346.83"/><line class="cls-5" x1="19.44" y1="339" x2="17.49" y2="337.04"/><line class="cls-5" x1="14.98" y1="334.54" x2="7.47" y2="327.02"/><line class="cls-5" x1="4.96" y1="324.52" x2="0.5" y2="320.06"/><line class="cls-5" x1="18.35" y1="311.13" x2="10.83" y2="303.62"/><line class="cls-5" x1="8.33" y1="301.11" x2="0.81" y2="293.6"/><line class="cls-5" x1="19.44" y1="285.54" x2="14.12" y2="280.21"/><line class="cls-5" x1="11.62" y1="277.71" x2="4.1" y2="270.19"/><line class="cls-5" x1="1.6" y1="267.69" x2="0.5" y2="266.59"/><line class="cls-5" x1="19.44" y1="258.77" x2="17.49" y2="256.81"/><line class="cls-5" x1="14.98" y1="254.3" x2="7.47" y2="246.79"/><line class="cls-5" x1="4.96" y1="244.29" x2="0.5" y2="239.82"/><line class="cls-5" x1="18.35" y1="230.9" x2="11.54" y2="224.09"/><line class="cls-5" x1="19.44" y1="772.64" x2="19.44" y2="536.17"/><line class="cls-5" x1="19.44" y1="441.62" x2="19.44" y2="224.09"/><line class="cls-5" x1="0.5" y1="224.09" x2="0.5" y2="441.62"/><line class="cls-5" x1="0.5" y1="536.17" x2="0.5" y2="715.89"/><line class="cls-5" x1="0.5" y1="707.24" x2="0.5" y2="772.64"/><line class="cls-5" x1="394.54" y1="727.48" x2="388.27" y2="721.21"/><line class="cls-5" x1="407.22" y1="713.39" x2="400.33" y2="706.58"/><line class="cls-5" x1="397.82" y1="704.07" x2="390.31" y2="696.48"/><line class="cls-5" x1="407.22" y1="686.62" x2="403.69" y2="683.17"/><line class="cls-5" x1="401.19" y1="680.59" x2="393.67" y2="673.08"/><line class="cls-5" x1="391.17" y1="670.57" x2="388.27" y2="667.75"/><line class="cls-5" x1="407.22" y1="659.92" x2="407.06" y2="659.69"/><line class="cls-5" x1="404.55" y1="657.19" x2="397.04" y2="649.67"/><line class="cls-5" x1="394.54" y1="647.17" x2="388.27" y2="640.98"/><line class="cls-5" x1="407.22" y1="633.15" x2="400.33" y2="626.27"/><line class="cls-5" x1="397.82" y1="623.76" x2="390.31" y2="616.25"/><line class="cls-5" x1="407.22" y1="606.38" x2="403.69" y2="602.86"/><line class="cls-5" x1="401.19" y1="600.36" x2="393.67" y2="592.84"/><line class="cls-5" x1="391.17" y1="590.34" x2="388.27" y2="587.44"/><line class="cls-5" x1="407.22" y1="579.61" x2="407.06" y2="579.46"/><line class="cls-5" x1="404.55" y1="576.95" x2="397.04" y2="569.44"/><line class="cls-5" x1="394.54" y1="566.93" x2="388.27" y2="560.75"/><line class="cls-5" x1="407.22" y1="552.92" x2="400.33" y2="546.03"/><line class="cls-5" x1="397.82" y1="543.53" x2="390.47" y2="536.17"/><line class="cls-5" x1="406.2" y1="725.75" x2="398.68" y2="718.24"/><line class="cls-5" x1="396.18" y1="715.73" x2="388.67" y2="708.22"/><line class="cls-5" x1="407.22" y1="700" x2="402.05" y2="694.84"/><line class="cls-5" x1="399.55" y1="692.33" x2="392.03" y2="684.82"/><line class="cls-5" x1="389.53" y1="682.31" x2="388.27" y2="681.14"/><line class="cls-5" x1="407.22" y1="673.23" x2="405.42" y2="671.43"/><line class="cls-5" x1="402.83" y1="668.93" x2="395.32" y2="661.41"/><line class="cls-5" x1="392.81" y1="658.91" x2="388.27" y2="654.37"/><line class="cls-5" x1="406.2" y1="645.52" x2="398.68" y2="638.01"/><line class="cls-5" x1="396.18" y1="635.5" x2="388.67" y2="627.99"/><line class="cls-5" x1="407.22" y1="619.77" x2="402.05" y2="614.6"/><line class="cls-5" x1="399.55" y1="612.1" x2="392.03" y2="604.58"/><line class="cls-5" x1="389.53" y1="602.08" x2="388.27" y2="600.83"/><line class="cls-5" x1="407.22" y1="593" x2="405.42" y2="591.2"/><line class="cls-5" x1="402.83" y1="588.69" x2="395.32" y2="581.18"/><line class="cls-5" x1="392.81" y1="578.68" x2="388.27" y2="574.14"/><line class="cls-5" x1="406.2" y1="565.29" x2="398.68" y2="557.78"/><line class="cls-5" x1="396.18" y1="555.27" x2="388.67" y2="547.68"/><line class="cls-5" x1="407.22" y1="539.54" x2="403.85" y2="536.17"/><line class="cls-5" x1="407.22" y1="419.15" x2="407.06" y2="418.99"/><line class="cls-5" x1="404.55" y1="416.49" x2="397.04" y2="408.98"/><line class="cls-5" x1="394.54" y1="406.47" x2="388.27" y2="400.21"/><line class="cls-5" x1="407.22" y1="392.38" x2="400.33" y2="385.57"/><line class="cls-5" x1="397.82" y1="383.07" x2="390.31" y2="375.47"/><line class="cls-5" x1="407.22" y1="365.61" x2="403.69" y2="362.17"/><line class="cls-5" x1="401.19" y1="359.66" x2="393.67" y2="352.07"/><line class="cls-5" x1="391.17" y1="349.56" x2="388.27" y2="346.75"/><line class="cls-5" x1="407.22" y1="338.92" x2="407.06" y2="338.76"/><line class="cls-5" x1="404.55" y1="336.26" x2="397.04" y2="328.67"/><line class="cls-5" x1="394.54" y1="326.16" x2="388.27" y2="319.98"/><line class="cls-5" x1="407.22" y1="312.15" x2="400.33" y2="305.26"/><line class="cls-5" x1="397.82" y1="302.76" x2="390.31" y2="295.24"/><line class="cls-5" x1="407.22" y1="285.38" x2="403.69" y2="281.86"/><line class="cls-5" x1="401.19" y1="279.35" x2="393.67" y2="271.84"/><line class="cls-5" x1="391.17" y1="269.33" x2="388.27" y2="266.44"/><line class="cls-5" x1="407.22" y1="258.61" x2="407.06" y2="258.45"/><line class="cls-5" x1="404.55" y1="255.95" x2="397.04" y2="248.43"/><line class="cls-5" x1="394.54" y1="245.93" x2="388.27" y2="239.75"/><line class="cls-5" x1="407.22" y1="231.92" x2="400.33" y2="225.03"/><line class="cls-5" x1="397.35" y1="422.67" x2="395.32" y2="420.64"/><line class="cls-5" x1="392.81" y1="418.13" x2="388.27" y2="413.59"/><line class="cls-5" x1="406.2" y1="404.75" x2="398.68" y2="397.23"/><line class="cls-5" x1="396.18" y1="394.73" x2="388.67" y2="387.22"/><line class="cls-5" x1="407.22" y1="379" x2="402.05" y2="373.83"/><line class="cls-5" x1="399.55" y1="371.33" x2="392.03" y2="363.81"/><line class="cls-5" x1="389.53" y1="361.31" x2="388.27" y2="360.13"/><line class="cls-5" x1="407.22" y1="352.23" x2="405.42" y2="350.43"/><line class="cls-5" x1="402.83" y1="347.92" x2="395.32" y2="340.41"/><line class="cls-5" x1="392.81" y1="337.9" x2="388.27" y2="333.36"/><line class="cls-5" x1="406.2" y1="324.52" x2="398.68" y2="317"/><line class="cls-5" x1="396.18" y1="314.5" x2="388.67" y2="306.98"/><line class="cls-5" x1="407.22" y1="298.76" x2="402.05" y2="293.6"/><line class="cls-5" x1="399.55" y1="291.09" x2="392.03" y2="283.58"/><line class="cls-5" x1="389.53" y1="281.07" x2="388.27" y2="279.82"/><line class="cls-5" x1="407.22" y1="271.99" x2="405.42" y2="270.19"/><line class="cls-5" x1="402.83" y1="267.69" x2="395.32" y2="260.18"/><line class="cls-5" x1="392.81" y1="257.67" x2="388.27" y2="253.13"/><line class="cls-5" x1="406.2" y1="244.29" x2="398.68" y2="236.77"/><line class="cls-5" x1="396.18" y1="234.27" x2="388.67" y2="226.67"/><line class="cls-5" x1="407.22" y1="728.18" x2="407.22" y2="536.17"/><line class="cls-5" x1="407.22" y1="422.67" x2="407.22" y2="224.09"/><line class="cls-5" x1="388.27" y1="224.09" x2="388.27" y2="422.67"/><line class="cls-5" x1="388.27" y1="536.17" x2="388.27" y2="709.24"/><line class="cls-5" x1="333.48" y1="500.95" x2="337.94" y2="496.49"/><line class="cls-5" x1="333.48" y1="507.6" x2="341" y2="500.09"/><line class="cls-5" x1="333.48" y1="514.33" x2="341" y2="506.74"/><line class="cls-5" x1="333.48" y1="520.99" x2="341" y2="513.47"/><line class="cls-5" x1="333.48" y1="527.72" x2="341" y2="520.13"/><line class="cls-5" x1="333.48" y1="534.37" x2="341" y2="526.78"/><line class="cls-5" x1="333.48" y1="541.1" x2="341" y2="533.51"/><line class="cls-5" x1="337.47" y1="543.76" x2="341" y2="540.16"/><line class="cls-5" x1="341" y1="543.76" x2="341" y2="496.49"/><line class="cls-5" x1="333.48" y1="496.49" x2="333.48" y2="543.76"/><line class="cls-5" x1="19.44" y1="547.44" x2="23.12" y2="543.76"/><line class="cls-5" x1="22.26" y1="551.28" x2="29.85" y2="543.76"/><line class="cls-5" x1="28.99" y1="551.28" x2="36.51" y2="543.76"/><line class="cls-5" x1="35.65" y1="551.28" x2="43.24" y2="543.76"/><line class="cls-5" x1="42.3" y1="551.28" x2="49.89" y2="543.76"/><line class="cls-5" x1="49.03" y1="551.28" x2="56.54" y2="543.76"/><line class="cls-5" x1="55.68" y1="551.28" x2="63.28" y2="543.76"/><line class="cls-5" x1="62.42" y1="551.28" x2="69.93" y2="543.76"/><line class="cls-5" x1="69.07" y1="551.28" x2="76.66" y2="543.76"/><line class="cls-5" x1="75.8" y1="551.28" x2="83.31" y2="543.76"/><line class="cls-5" x1="82.45" y1="551.28" x2="90.05" y2="543.76"/><line class="cls-5" x1="89.11" y1="551.28" x2="96.7" y2="543.76"/><line class="cls-5" x1="95.84" y1="551.28" x2="103.43" y2="543.76"/><line class="cls-5" x1="102.49" y1="551.28" x2="110.08" y2="543.76"/><line class="cls-5" x1="109.22" y1="551.28" x2="111.18" y2="549.32"/><line class="cls-5" x1="196.34" y1="544.47" x2="197.05" y2="543.76"/><line class="cls-5" x1="196.34" y1="551.12" x2="203.7" y2="543.76"/><line class="cls-5" x1="202.84" y1="551.28" x2="210.43" y2="543.76"/><line class="cls-5" x1="209.49" y1="551.28" x2="215.21" y2="545.57"/><line class="cls-5" x1="111.18" y1="543.76" x2="111.18" y2="551.28"/><line class="cls-5" x1="196.34" y1="543.76" x2="196.34" y2="551.28"/><line class="cls-5" x1="19.44" y1="551.28" x2="111.18" y2="551.28"/><line class="cls-5" x1="196.34" y1="551.28" x2="215.21" y2="551.28"/><line class="cls-5" x1="215.21" y1="543.76" x2="196.34" y2="543.76"/><polyline class="cls-5" points="111.18 543.76 19.44 543.76 19.44 551.28"/><line class="cls-5" x1="215.21" y1="498.76" x2="217.56" y2="496.49"/><line class="cls-5" x1="215.21" y1="505.49" x2="222.8" y2="497.9"/><line class="cls-5" x1="215.21" y1="512.14" x2="222.8" y2="504.63"/><line class="cls-5" x1="215.21" y1="518.87" x2="222.8" y2="511.28"/><line class="cls-5" x1="215.21" y1="525.53" x2="222.8" y2="517.93"/><line class="cls-5" x1="215.21" y1="532.26" x2="222.8" y2="524.67"/><line class="cls-5" x1="215.21" y1="538.91" x2="222.8" y2="531.32"/><line class="cls-5" x1="215.21" y1="545.57" x2="222.8" y2="538.05"/><line class="cls-5" x1="215.21" y1="552.3" x2="222.8" y2="544.7"/><line class="cls-5" x1="215.21" y1="558.95" x2="222.8" y2="551.44"/><line class="cls-5" x1="215.21" y1="565.68" x2="222.8" y2="558.09"/><line class="cls-5" x1="215.21" y1="572.34" x2="222.8" y2="564.82"/><line class="cls-5" x1="215.21" y1="579.07" x2="222.8" y2="571.47"/><line class="cls-5" x1="215.21" y1="585.72" x2="222.8" y2="578.13"/><line class="cls-5" x1="215.21" y1="592.45" x2="222.8" y2="584.86"/><line class="cls-5" x1="215.76" y1="598.56" x2="222.8" y2="591.51"/><line class="cls-5" x1="222.41" y1="598.56" x2="222.8" y2="598.24"/><line class="cls-5" x1="215.21" y1="665.95" x2="216.38" y2="664.78"/><line class="cls-5" x1="215.21" y1="672.68" x2="222.8" y2="665.09"/><line class="cls-5" x1="215.21" y1="679.34" x2="222.8" y2="671.82"/><line class="cls-5" x1="215.21" y1="686.07" x2="222.8" y2="678.48"/><line class="cls-5" x1="215.21" y1="692.72" x2="222.8" y2="685.13"/><line class="cls-5" x1="215.21" y1="699.38" x2="222.8" y2="691.86"/><line class="cls-5" x1="215.21" y1="706.11" x2="222.8" y2="698.51"/><line class="cls-5" x1="218.73" y1="709.24" x2="222.8" y2="705.25"/><line class="cls-5" x1="215.21" y1="492.1" x2="216.85" y2="490.46"/><line class="cls-5" x1="217.56" y1="496.49" x2="220.14" y2="493.83"/><line class="cls-5" x1="222.8" y1="664.78" x2="215.21" y2="664.78"/><line class="cls-5" x1="222.8" y1="598.56" x2="215.21" y2="598.56"/><line class="cls-5" x1="215.21" y1="488.89" x2="215.21" y2="543.76"/><line class="cls-5" x1="215.21" y1="551.28" x2="215.21" y2="598.56"/><polyline class="cls-5" points="215.21 664.78 215.21 709.24 222.8 709.24 222.8 664.78"/><line class="cls-5" x1="222.8" y1="598.56" x2="222.8" y2="551.28"/><line class="cls-5" x1="222.8" y1="543.76" x2="222.8" y2="496.49"/><line class="cls-5" x1="216.85" y1="490.46" x2="218.42" y2="488.89"/><line class="cls-5" x1="220.14" y1="493.83" x2="222.8" y2="491.24"/><line class="cls-5" x1="215.21" y1="488.89" x2="222.8" y2="488.89"/><line class="cls-5" x1="222.8" y1="544.7" x2="223.74" y2="543.76"/><line class="cls-5" x1="222.88" y1="551.28" x2="230.47" y2="543.76"/><line class="cls-5" x1="229.61" y1="551.28" x2="237.12" y2="543.76"/><line class="cls-5" x1="236.26" y1="551.28" x2="243.86" y2="543.76"/><line class="cls-5" x1="242.92" y1="551.28" x2="250.51" y2="543.76"/><line class="cls-5" x1="249.65" y1="551.28" x2="257.24" y2="543.76"/><line class="cls-5" x1="256.3" y1="551.28" x2="263.9" y2="543.76"/><line class="cls-5" x1="263.03" y1="551.28" x2="270.55" y2="543.76"/><line class="cls-5" x1="269.69" y1="551.28" x2="277.28" y2="543.76"/><line class="cls-5" x1="276.42" y1="551.28" x2="283.93" y2="543.76"/><line class="cls-5" x1="283.07" y1="551.28" x2="290.67" y2="543.76"/><line class="cls-5" x1="289.8" y1="551.28" x2="297.32" y2="543.76"/><line class="cls-5" x1="296.46" y1="551.28" x2="304.05" y2="543.76"/><line class="cls-5" x1="303.11" y1="551.28" x2="310.7" y2="543.76"/><line class="cls-5" x1="309.84" y1="551.28" x2="317.36" y2="543.76"/><line class="cls-5" x1="316.5" y1="551.28" x2="324.09" y2="543.76"/><line class="cls-5" x1="323.23" y1="551.28" x2="330.74" y2="543.76"/><line class="cls-5" x1="329.88" y1="551.28" x2="337.47" y2="543.76"/><line class="cls-5" x1="336.61" y1="551.28" x2="341" y2="546.9"/><line class="cls-5" x1="378.8" y1="549.17" x2="384.28" y2="543.76"/><line class="cls-5" x1="383.42" y1="551.28" x2="388.27" y2="546.43"/><polyline class="cls-5" points="378.8 551.28 378.8 547.52 378.8 543.76"/><polyline class="cls-5" points="341 551.28 341 547.52 341 543.76"/><line class="cls-5" x1="388.27" y1="543.76" x2="378.8" y2="543.76"/><line class="cls-5" x1="333.48" y1="543.76" x2="222.8" y2="543.76"/><line class="cls-5" x1="222.8" y1="551.28" x2="341" y2="551.28"/><polyline class="cls-5" points="378.8 551.28 388.27 551.28 388.27 543.76"/><line class="cls-5" x1="341" y1="551.28" x2="378.8" y2="551.28"/><line class="cls-5" x1="341" y1="543.76" x2="378.8" y2="543.76"/><path class="cls-5" d="M341.11,579.6a37.81,37.81,0,0,0,2.29,12.94" transform="translate(-0.2 -28.36)"/><line class="cls-5" x1="378.8" y1="551.28" x2="343.27" y2="564.27"/><polyline class="cls-5" points="341 543.76 341 547.52 341 551.28 341 547.52"/><polyline class="cls-5" points="378.8 543.76 378.8 547.52 378.8 551.28 378.8 547.52"/><line class="cls-5" x1="233.99" y1="727.48" x2="226.48" y2="719.88"/><line class="cls-5" x1="223.97" y1="717.38" x2="216.46" y2="709.86"/><line class="cls-5" x1="234.15" y1="714.17" x2="229.22" y2="709.24"/><line class="cls-5" x1="261.47" y1="728.18" x2="259.9" y2="726.61"/><line class="cls-5" x1="257.4" y1="724.11" x2="249.88" y2="716.6"/><line class="cls-5" x1="247.38" y1="714.09" x2="242.6" y2="709.24"/><line class="cls-5" x1="288.24" y1="728.18" x2="283.31" y2="723.25"/><line class="cls-5" x1="280.8" y1="720.74" x2="273.29" y2="713.23"/><line class="cls-5" x1="270.78" y1="710.73" x2="269.3" y2="709.24"/><line class="cls-5" x1="314.23" y1="727.48" x2="306.71" y2="719.88"/><line class="cls-5" x1="304.21" y1="717.38" x2="296.69" y2="709.86"/><line class="cls-5" x1="341.7" y1="728.18" x2="340.21" y2="726.61"/><line class="cls-5" x1="337.63" y1="724.11" x2="330.12" y2="716.6"/><line class="cls-5" x1="327.61" y1="714.09" x2="322.84" y2="709.24"/><line class="cls-5" x1="368.47" y1="728.18" x2="363.62" y2="723.25"/><line class="cls-5" x1="361.11" y1="720.74" x2="353.52" y2="713.23"/><line class="cls-5" x1="351.01" y1="710.73" x2="349.61" y2="709.24"/><line class="cls-5" x1="388.27" y1="721.21" x2="387.02" y2="719.88"/><line class="cls-5" x1="384.52" y1="717.38" x2="376.92" y2="709.86"/><line class="cls-5" x1="245.74" y1="725.75" x2="238.22" y2="718.24"/><line class="cls-5" x1="235.72" y1="715.73" x2="234.15" y2="714.17"/><line class="cls-5" x1="274.85" y1="728.18" x2="271.64" y2="724.89"/><line class="cls-5" x1="269.14" y1="722.39" x2="261.63" y2="714.87"/><line class="cls-5" x1="259.12" y1="712.37" x2="255.91" y2="709.24"/><line class="cls-5" x1="301.62" y1="728.18" x2="295.05" y2="721.61"/><line class="cls-5" x1="292.54" y1="719.1" x2="285.03" y2="711.59"/><line class="cls-5" x1="325.97" y1="725.75" x2="318.45" y2="718.24"/><line class="cls-5" x1="315.95" y1="715.73" x2="309.45" y2="709.24"/><line class="cls-5" x1="355.09" y1="728.18" x2="351.88" y2="724.89"/><line class="cls-5" x1="349.37" y1="722.39" x2="341.86" y2="714.87"/><line class="cls-5" x1="339.35" y1="712.37" x2="336.22" y2="709.24"/><line class="cls-5" x1="381.86" y1="728.18" x2="375.28" y2="721.61"/><line class="cls-5" x1="372.78" y1="719.1" x2="365.26" y2="711.59"/><line class="cls-5" x1="234.15" y1="728.18" x2="407.22" y2="728.18"/><line class="cls-5" x1="388.27" y1="709.24" x2="215.21" y2="709.24"/><line class="cls-5" x1="221.39" y1="728.18" x2="215.21" y2="722"/><line class="cls-5" x1="215.21" y1="709.24" x2="215.21" y2="728.18"/><line class="cls-5" x1="234.15" y1="781.09" x2="229.85" y2="776.79"/><polyline class="cls-5" points="227.34 774.28 225.7 772.64 219.83 766.69"/><line class="cls-5" x1="217.32" y1="764.19" x2="215.21" y2="762.15"/><line class="cls-5" x1="234.15" y1="754.32" x2="233.21" y2="753.38"/><line class="cls-5" x1="230.71" y1="750.88" x2="223.11" y2="743.29"/><line class="cls-5" x1="220.61" y1="740.78" x2="215.21" y2="735.38"/><line class="cls-5" x1="234.15" y1="767.71" x2="231.49" y2="765.05"/><line class="cls-5" x1="228.98" y1="762.54" x2="221.47" y2="755.03"/><line class="cls-5" x1="218.97" y1="752.52" x2="215.21" y2="748.77"/><line class="cls-5" x1="232.35" y1="739.14" x2="224.84" y2="731.62"/><line class="cls-5" x1="222.33" y1="729.12" x2="221.39" y2="728.18"/><line class="cls-5" x1="234.15" y1="791.5" x2="234.15" y2="728.18"/><line class="cls-5" x1="215.21" y1="728.18" x2="215.21" y2="772.64"/><line class="cls-5" x1="217.87" y1="791.5" x2="216.46" y2="790.1"/><line class="cls-5" x1="231.25" y1="791.5" x2="228.12" y2="788.45"/><line class="cls-5" x1="225.62" y1="785.95" x2="218.1" y2="778.43"/><line class="cls-5" x1="215.6" y1="775.93" x2="215.21" y2="775.54"/><line class="cls-5" x1="234.15" y1="791.5" x2="215.21" y2="791.5"/><line class="cls-5" x1="213.96" y1="787.59" x2="206.44" y2="780.08"/><line class="cls-5" x1="203.94" y1="777.57" x2="198.93" y2="772.64"/><line class="cls-5" x1="202.21" y1="789.31" x2="194.7" y2="781.8"/><line class="cls-5" x1="215.21" y1="775.54" x2="212.31" y2="772.64"/><polyline class="cls-5" points="194.39 791.5 194.39 783.99 194.39 772.64"/><polyline class="cls-5" points="95.13 791.5 95.13 783.99 95.13 772.64"/><line class="cls-5" x1="194.39" y1="791.5" x2="215.21" y2="791.5"/><line class="cls-5" x1="215.21" y1="772.64" x2="194.39" y2="772.64"/><path class="cls-5" d="M190.79,725.31a87,87,0,0,0-87,87" transform="translate(-0.2 -28.36)"/><line class="cls-5" x1="99.83" y1="783.99" x2="95.13" y2="783.99"/><polyline class="cls-5" points="99.83 791.5 99.83 783.99 103.59 783.99 103.59 791.5 99.83 791.5 95.13 791.5 95.13 783.99"/><polyline class="cls-5" points="194.39 783.99 190.63 783.99 190.63 791.5 194.39 791.5 194.39 783.99"/><line class="cls-5" x1="190.63" y1="783.99" x2="190.63" y2="696.95"/><polyline class="cls-5" points="95.13 772.64 95.13 783.99 95.13 791.5 95.13 783.99"/><polyline class="cls-5" points="194.39 772.64 194.39 783.99 194.39 791.5 194.39 783.99"/><line class="cls-5" x1="222.8" y1="491.24" x2="225.15" y2="488.89"/><line class="cls-5" x1="224.21" y1="496.49" x2="231.8" y2="488.89"/><line class="cls-5" x1="230.94" y1="496.49" x2="238.53" y2="488.89"/><line class="cls-5" x1="237.59" y1="496.49" x2="245.19" y2="488.89"/><line class="cls-5" x1="244.33" y1="496.49" x2="251.84" y2="488.89"/><line class="cls-5" x1="250.98" y1="496.49" x2="258.57" y2="488.89"/><line class="cls-5" x1="257.71" y1="496.49" x2="265.23" y2="488.89"/><line class="cls-5" x1="264.36" y1="496.49" x2="271.96" y2="488.89"/><line class="cls-5" x1="271.1" y1="496.49" x2="278.61" y2="488.89"/><line class="cls-5" x1="277.75" y1="496.49" x2="285.34" y2="488.89"/><line class="cls-5" x1="284.4" y1="496.49" x2="292" y2="488.89"/><line class="cls-5" x1="291.13" y1="496.49" x2="298.65" y2="488.89"/><line class="cls-5" x1="297.79" y1="496.49" x2="305.38" y2="488.89"/><line class="cls-5" x1="304.52" y1="496.49" x2="312.03" y2="488.89"/><line class="cls-5" x1="311.17" y1="496.49" x2="318.77" y2="488.89"/><line class="cls-5" x1="317.9" y1="496.49" x2="325.42" y2="488.89"/><line class="cls-5" x1="324.56" y1="496.49" x2="332.15" y2="488.89"/><line class="cls-5" x1="331.21" y1="496.49" x2="338.8" y2="488.89"/><line class="cls-5" x1="337.94" y1="496.49" x2="345.54" y2="488.89"/><line class="cls-5" x1="344.6" y1="496.49" x2="352.19" y2="488.89"/><line class="cls-5" x1="351.33" y1="496.49" x2="358.84" y2="488.89"/><line class="cls-5" x1="357.98" y1="496.49" x2="365.57" y2="488.89"/><line class="cls-5" x1="364.71" y1="496.49" x2="372.23" y2="488.89"/><line class="cls-5" x1="371.37" y1="496.49" x2="378.96" y2="488.89"/><line class="cls-5" x1="378.1" y1="496.49" x2="385.61" y2="488.89"/><line class="cls-5" x1="384.75" y1="496.49" x2="388.27" y2="492.89"/><line class="cls-5" x1="222.8" y1="496.49" x2="333.48" y2="496.49"/><line class="cls-5" x1="341" y1="496.49" x2="388.27" y2="496.49"/><line class="cls-5" x1="388.27" y1="488.89" x2="222.8" y2="488.89"/><line class="cls-5" x1="0.5" y1="127.5" x2="2.07" y2="124.76"/><line class="cls-5" x1="4.81" y1="129.53" x2="7.54" y2="124.76"/><line class="cls-5" x1="10.28" y1="129.53" x2="13.65" y2="123.74"/><line class="cls-5" x1="15.76" y1="129.53" x2="19.44" y2="123.12"/><line class="cls-5" x1="2.77" y1="129.53" x2="0.5" y2="125.54"/><line class="cls-5" x1="8.25" y1="129.53" x2="5.51" y2="124.76"/><line class="cls-5" x1="13.73" y1="129.53" x2="10.75" y2="124.29"/><line class="cls-5" x1="19.21" y1="129.53" x2="15.61" y2="123.35"/><line class="cls-5" x1="2.07" y1="124.76" x2="4.81" y2="120.06"/><line class="cls-5" x1="7.54" y1="124.76" x2="8.41" y2="123.35"/><line class="cls-5" x1="5.51" y1="124.76" x2="2.77" y2="120.06"/><line class="cls-5" x1="8.41" y1="123.35" x2="10.28" y2="120.06"/><line class="cls-5" x1="13.65" y1="123.74" x2="15.76" y2="120.06"/><line class="cls-5" x1="10.75" y1="124.29" x2="8.25" y2="120.06"/><line class="cls-5" x1="15.61" y1="123.35" x2="13.73" y2="120.06"/><line class="cls-5" x1="19.44" y1="120.53" x2="19.21" y2="120.06"/><polyline class="cls-5" points="0.5 114.43 0.5 129.53 19.44 129.53 19.44 122.49"/><line class="cls-5" x1="388.27" y1="127.34" x2="389.76" y2="124.76"/><line class="cls-5" x1="392.5" y1="129.53" x2="395.24" y2="124.76"/><line class="cls-5" x1="397.98" y1="129.53" x2="401.27" y2="123.74"/><line class="cls-5" x1="403.46" y1="129.53" x2="407.22" y2="122.96"/><line class="cls-5" x1="390.47" y1="129.53" x2="388.27" y2="125.7"/><line class="cls-5" x1="395.94" y1="129.53" x2="393.21" y2="124.76"/><line class="cls-5" x1="401.42" y1="129.53" x2="398.45" y2="124.37"/><line class="cls-5" x1="406.9" y1="129.53" x2="403.3" y2="123.35"/><line class="cls-5" x1="389.76" y1="124.76" x2="392.5" y2="120.06"/><line class="cls-5" x1="395.24" y1="124.76" x2="396.18" y2="123.19"/><line class="cls-5" x1="393.21" y1="124.76" x2="390.47" y2="120.06"/><line class="cls-5" x1="396.18" y1="123.19" x2="397.98" y2="120.06"/><line class="cls-5" x1="401.27" y1="123.74" x2="403.46" y2="120.06"/><line class="cls-5" x1="398.45" y1="124.37" x2="395.94" y2="120.06"/><line class="cls-5" x1="403.3" y1="123.35" x2="401.42" y2="120.06"/><line class="cls-5" x1="407.22" y1="120.61" x2="406.9" y2="120.06"/><polyline class="cls-5" points="388.27 124.76 388.27 129.53 407.22 129.53 407.22 112.78"/><polyline class="cls-5" points="280.18 110.59 290.67 59.63 291.13 59.71 280.65 110.67 280.18 110.59"/><polyline class="cls-5" points="289.57 57.99 204.33 40.46 204.41 39.99 289.65 57.52 289.57 57.99"/><polyline class="cls-5" points="202.68 41.55 192.19 92.51 191.72 92.43 202.21 41.48 202.68 41.55"/><polyline class="cls-5" points="278.3 112.63 278.77 110.28 281.12 110.83 280.65 113.1 278.3 112.63"/><polyline class="cls-5" points="289.26 59.4 289.73 57.05 292.07 57.52 291.6 59.87 289.26 59.4"/><polyline class="cls-5" points="204.01 41.87 201.75 41.32 202.21 39.05 204.48 39.52 204.01 41.87"/><polyline class="cls-5" points="193.53 92.75 193.06 95.09 190.79 94.62 191.26 92.28 193.53 92.75"/><line class="cls-5" x1="278.53" y1="111.45" x2="289.26" y2="59.4"/><line class="cls-5" x1="292.07" y1="57.52" x2="280.88" y2="111.92"/><line class="cls-5" x1="289.26" y1="59.4" x2="204.01" y2="41.87"/><line class="cls-5" x1="202.21" y1="39.05" x2="292.07" y2="57.52"/><line class="cls-5" x1="204.01" y1="41.87" x2="193.29" y2="93.92"/><line class="cls-5" x1="191.02" y1="93.45" x2="202.21" y2="39.05"/><polyline class="cls-5" points="280.88 111.92 280.65 113.1 278.3 112.63 278.53 111.45"/><polyline class="cls-5" points="193.29 93.92 193.06 95.09 190.79 94.62 191.02 93.45"/><polyline class="cls-5" points="202.21 39.05 292.07 57.52 280.88 111.92 278.53 111.45 289.26 59.4 204.01 41.87 193.29 93.92 191.02 93.45 202.21 39.05"/><polyline class="cls-5" points="203.39 56.66 284.01 73.25 277.91 102.92 197.28 86.33 203.39 56.66"/><polyline class="cls-5" points="202.76 59.63 283.38 76.23 277.91 102.92 197.28 86.33 202.76 59.63"/><line class="cls-5" x1="383.58" y1="432.14" x2="331.52" y2="432.14"/><line class="cls-5" x1="331.52" y1="432.14" x2="331.52" y2="484.2"/><line class="cls-5" x1="331.52" y1="484.2" x2="383.58" y2="484.2"/><line class="cls-5" x1="383.58" y1="484.2" x2="383.58" y2="432.14"/><line class="cls-5" x1="378.8" y1="436.84" x2="336.3" y2="436.84"/><line class="cls-5" x1="336.3" y1="436.84" x2="336.3" y2="474.73"/><line class="cls-5" x1="336.3" y1="474.73" x2="378.8" y2="474.73"/><line class="cls-5" x1="378.8" y1="474.73" x2="378.8" y2="436.84"/><line class="cls-5" x1="282.45" y1="709.24" x2="231.33" y2="709.24"/><line class="cls-5" x1="231.33" y1="709.24" x2="231.33" y2="687.63"/><line class="cls-5" x1="282.45" y1="709.24" x2="282.45" y2="687.63"/><line class="cls-5" x1="248.87" y1="709.24" x2="264.91" y2="709.24"/><line class="cls-5" x1="252.62" y1="691.94" x2="255.36" y2="691.94"/><line class="cls-5" x1="256.93" y1="696.24" x2="256.93" y2="693.5"/><line class="cls-5" x1="258.49" y1="691.94" x2="261.23" y2="691.94"/><line class="cls-5" x1="256.93" y1="690.37" x2="256.93" y2="687.63"/><path class="cls-5" d="M270.59,725.35a22.73,22.73,0,0,0,8.82-10.75" transform="translate(-0.2 -28.36)"/><path class="cls-5" d="M257.06,728.6a22.73,22.73,0,0,0,13.56-3.19" transform="translate(-0.2 -28.36)"/><path class="cls-5" d="M234.68,714.6a22.73,22.73,0,0,0,8.82,10.75" transform="translate(-0.2 -28.36)"/><path class="cls-5" d="M243.48,725.41A22.68,22.68,0,0,0,257,728.6" transform="translate(-0.2 -28.36)"/><path class="cls-5" d="M274.33,703.11a41.81,41.81,0,0,0-15.49-4.22" transform="translate(-0.2 -28.36)"/><path class="cls-5" d="M236.38,705.3A12.94,12.94,0,0,0,231.54,716" transform="translate(-0.2 -28.36)"/><path class="cls-5" d="M258.87,698.84a23.64,23.64,0,0,0-3.57,0" transform="translate(-0.2 -28.36)"/><path class="cls-5" d="M242.81,724.52a93,93,0,0,0,28.56,0" transform="translate(-0.2 -28.36)"/><path class="cls-5" d="M232.86,712.59a32.11,32.11,0,0,0,7.25,20.88" transform="translate(-0.2 -28.36)"/><path class="cls-5" d="M242.49,734.92a63.5,63.5,0,0,0,14.61,1.58" transform="translate(-0.2 -28.36)"/><path class="cls-5" d="M240.08,733.53a4.35,4.35,0,0,0,2.36,1.46" transform="translate(-0.2 -28.36)"/><path class="cls-5" d="M242.69,733.51a108.35,108.35,0,0,0,14.4,1" transform="translate(-0.2 -28.36)"/><path class="cls-5" d="M232.86,712.6a28.86,28.86,0,0,0,7.21,19.45" transform="translate(-0.2 -28.36)"/><path class="cls-5" d="M240,732.08a4.26,4.26,0,0,0,2.61,1.41" transform="translate(-0.2 -28.36)"/><path class="cls-5" d="M274.08,732.08a28.85,28.85,0,0,0,7.23-19.44" transform="translate(-0.2 -28.36)"/><path class="cls-5" d="M274,733.5a32.09,32.09,0,0,0,7.28-20.87" transform="translate(-0.2 -28.36)"/><path class="cls-5" d="M257,734.54a110,110,0,0,0,14.39-1" transform="translate(-0.2 -28.36)"/><path class="cls-5" d="M257.06,736.5a64.18,64.18,0,0,0,14.62-1.56" transform="translate(-0.2 -28.36)"/><path class="cls-5" d="M271.44,733.49a4.32,4.32,0,0,0,2.62-1.4" transform="translate(-0.2 -28.36)"/><path class="cls-5" d="M271.64,735a4.23,4.23,0,0,0,2.36-1.46" transform="translate(-0.2 -28.36)"/><path class="cls-5" d="M282.55,716a13,13,0,0,0-4.83-10.66" transform="translate(-0.2 -28.36)"/><path class="cls-5" d="M277.75,705.23a21,21,0,0,0-3.4-2.2" transform="translate(-0.2 -28.36)"/><path class="cls-5" d="M239.74,703a20.5,20.5,0,0,0-3.39,2.2" transform="translate(-0.2 -28.36)"/><path class="cls-5" d="M255.26,698.89a41.91,41.91,0,0,0-15.5,4.22" transform="translate(-0.2 -28.36)"/><path class="cls-5" d="M264.11,702.51a29.8,29.8,0,0,0-14.05,0" transform="translate(-0.2 -28.36)"/><path class="cls-5" d="M279.41,714.6a7.6,7.6,0,0,0-2.62-6.3" transform="translate(-0.2 -28.36)"/><path class="cls-5" d="M276.8,708.31a27.66,27.66,0,0,0-12.72-5.83" transform="translate(-0.2 -28.36)"/><path class="cls-5" d="M237.3,708.3a7.63,7.63,0,0,0-2.62,6.3" transform="translate(-0.2 -28.36)"/><path class="cls-5" d="M250,702.48a27.66,27.66,0,0,0-12.72,5.83" transform="translate(-0.2 -28.36)"/><path class="cls-5" d="M253.76,720.26a3.33,3.33,0,1,0,3.33-3.33,3.33,3.33,0,0,0-3.33,3.33" transform="translate(-0.2 -28.36)"/><path class="cls-5" d="M254.7,720.26a2.39,2.39,0,1,0,2.39-2.39,2.39,2.39,0,0,0-2.39,2.39" transform="translate(-0.2 -28.36)"/><line class="cls-5" x1="373.71" y1="597.3" x2="340.37" y2="597.3"/><line class="cls-5" x1="388.27" y1="598.71" x2="388.27" y2="562.79"/><line class="cls-5" x1="388.27" y1="598.71" x2="375.75" y2="598.71"/><line class="cls-5" x1="367.92" y1="580.71" x2="367.92" y2="567.4"/><line class="cls-5" x1="340.45" y1="597.3" x2="367.92" y2="594.1"/><line class="cls-5" x1="367.92" y1="580.71" x2="367.92" y2="594.1"/><line class="cls-5" x1="340.45" y1="564.19" x2="367.92" y2="567.4"/><line class="cls-5" x1="340.45" y1="596.44" x2="367.92" y2="593.23"/><line class="cls-5" x1="340.45" y1="565.06" x2="367.92" y2="568.26"/><line class="cls-5" x1="373.79" y1="564.19" x2="340.37" y2="564.19"/><line class="cls-5" x1="388.27" y1="562.79" x2="375.75" y2="562.79"/><line class="cls-5" x1="340.45" y1="597.3" x2="336.69" y2="596.84"/><line class="cls-5" x1="336.69" y1="596.84" x2="333.25" y2="595.43"/><line class="cls-5" x1="333.25" y1="595.43" x2="330.12" y2="593.16"/><line class="cls-5" x1="330.12" y1="593.16" x2="327.69" y2="590.18"/><line class="cls-5" x1="327.69" y1="590.18" x2="325.97" y2="586.58"/><line class="cls-5" x1="325.97" y1="586.58" x2="325.03" y2="582.75"/><line class="cls-5" x1="325.03" y1="582.75" x2="325.03" y2="578.75"/><line class="cls-5" x1="325.03" y1="578.75" x2="325.97" y2="574.84"/><line class="cls-5" x1="325.97" y1="574.84" x2="327.69" y2="571.32"/><line class="cls-5" x1="327.69" y1="571.32" x2="330.12" y2="568.34"/><line class="cls-5" x1="330.12" y1="568.34" x2="333.25" y2="566.07"/><line class="cls-5" x1="333.25" y1="566.07" x2="336.69" y2="564.66"/><line class="cls-5" x1="336.69" y1="564.66" x2="340.45" y2="564.19"/><line class="cls-5" x1="340.45" y1="596.44" x2="336.93" y2="595.97"/><line class="cls-5" x1="336.93" y1="595.97" x2="333.64" y2="594.64"/><line class="cls-5" x1="333.64" y1="594.64" x2="330.74" y2="592.45"/><line class="cls-5" x1="330.74" y1="592.45" x2="328.39" y2="589.63"/><line class="cls-5" x1="328.39" y1="589.63" x2="326.75" y2="586.27"/><line class="cls-5" x1="326.75" y1="586.27" x2="325.89" y2="582.59"/><line class="cls-5" x1="325.89" y1="582.59" x2="325.89" y2="578.83"/><line class="cls-5" x1="325.89" y1="578.83" x2="326.75" y2="575.15"/><line class="cls-5" x1="326.75" y1="575.15" x2="328.39" y2="571.79"/><line class="cls-5" x1="328.39" y1="571.79" x2="330.74" y2="568.97"/><line class="cls-5" x1="330.74" y1="568.97" x2="333.64" y2="566.86"/><line class="cls-5" x1="333.64" y1="566.86" x2="336.93" y2="565.53"/><line class="cls-5" x1="336.93" y1="565.53" x2="340.45" y2="565.06"/><path class="cls-5" d="M373.83,592.93a152.11,152.11,0,0,0,0,32.21" transform="translate(-0.2 -28.36)"/><path class="cls-5" d="M373.84,625.15a2.09,2.09,0,0,0,2.07,1.85" transform="translate(-0.2 -28.36)"/><path class="cls-5" d="M375.91,591.07a2.07,2.07,0,0,0-2.07,1.86" transform="translate(-0.2 -28.36)"/><path class="cls-5" d="M382.29,609a1.77,1.77,0,1,0-1.77,1.76,1.76,1.76,0,0,0,1.77-1.76" transform="translate(-0.2 -28.36)"/><line class="cls-5" x1="407.22" y1="612.8" x2="407.22" y2="576.88"/><line class="cls-5" x1="374.26" y1="687.48" x2="368.86" y2="687.48"/><line class="cls-5" x1="366.51" y1="689.83" x2="366.51" y2="695.23"/><line class="cls-5" x1="364.17" y1="687.48" x2="358.76" y2="687.48"/><line class="cls-5" x1="366.51" y1="679.73" x2="366.51" y2="685.13"/><line class="cls-5" x1="382.64" y1="628.85" x2="359.94" y2="628.85"/><line class="cls-5" x1="360.8" y1="704.54" x2="308.82" y2="704.54"/><line class="cls-5" x1="307.89" y1="680.9" x2="307.89" y2="703.6"/><line class="cls-5" x1="382.64" y1="628.85" x2="359.94" y2="628.85"/><line class="cls-5" x1="383.58" y1="629.79" x2="383.58" y2="681.76"/><line class="cls-5" x1="387.33" y1="624.15" x2="359.94" y2="624.15"/><line class="cls-5" x1="387.33" y1="709.24" x2="304.13" y2="709.24"/><line class="cls-5" x1="303.19" y1="680.9" x2="303.19" y2="708.3"/><line class="cls-5" x1="388.27" y1="625.09" x2="388.27" y2="708.3"/><path class="cls-5" d="M383.45,711.59a4.82,4.82,0,0,0,.24-1.51" transform="translate(-0.2 -28.36)"/><path class="cls-5" d="M383.77,658.11a1,1,0,0,0-1-1" transform="translate(-0.2 -28.36)"/><path class="cls-5" d="M383.45,711.59a4.82,4.82,0,0,0,.24-1.51" transform="translate(-0.2 -28.36)"/><path class="cls-5" d="M360.1,652.51a56.71,56.71,0,0,0-56.71,56.71" transform="translate(-0.2 -28.36)"/><path class="cls-5" d="M388.47,653.41a1,1,0,0,0-1-1" transform="translate(-0.2 -28.36)"/><path class="cls-5" d="M360.1,657.21a52,52,0,0,0-52,52" transform="translate(-0.2 -28.36)"/><path class="cls-5" d="M303.31,736.62a1,1,0,0,0,1,1" transform="translate(-0.2 -28.36)"/><path class="cls-5" d="M308,731.92a1,1,0,0,0,1,1" transform="translate(-0.2 -28.36)"/><path class="cls-5" d="M387.49,737.6a1,1,0,0,0,1-1" transform="translate(-0.2 -28.36)"/><path class="cls-5" d="M361.93,732.71A51,51,0,0,0,383.66,711" transform="translate(-0.2 -28.36)"/><path class="cls-5" d="M361,732.82a4.76,4.76,0,0,0,1.5-.24" transform="translate(-0.2 -28.36)"/><path class="cls-5" d="M362.54,732.58a33.3,33.3,0,0,0,21-21" transform="translate(-0.2 -28.36)"/><path class="cls-5" d="M361,732.82a4.76,4.76,0,0,0,1.5-.24" transform="translate(-0.2 -28.36)"/><path class="cls-5" d="M366.67,711.53a4.27,4.27,0,1,0,4.27,4.27,4.27,4.27,0,0,0-4.27-4.27" transform="translate(-0.2 -28.36)"/><path class="cls-5" d="M366.67,709.81a6,6,0,1,0,6,6,6,6,0,0,0-6-6" transform="translate(-0.2 -28.36)"/><line class="cls-5" x1="407.22" y1="655.31" x2="407.22" y2="728.18"/><line class="cls-5" x1="0.5" y1="134.31" x2="5.35" y2="129.53"/><line class="cls-5" x1="0.5" y1="142.37" x2="13.42" y2="129.53"/><line class="cls-5" x1="0.5" y1="150.36" x2="19.44" y2="131.49"/><line class="cls-5" x1="0.5" y1="158.42" x2="19.44" y2="139.48"/><line class="cls-5" x1="0.5" y1="166.4" x2="19.44" y2="147.54"/><line class="cls-5" x1="0.5" y1="174.46" x2="19.44" y2="155.52"/><line class="cls-5" x1="0.5" y1="182.53" x2="19.44" y2="163.58"/><line class="cls-5" x1="0.5" y1="190.51" x2="19.44" y2="171.57"/><line class="cls-5" x1="0.5" y1="198.57" x2="19.44" y2="179.63"/><line class="cls-5" x1="0.5" y1="206.56" x2="19.44" y2="187.61"/><line class="cls-5" x1="0.5" y1="214.62" x2="19.44" y2="195.68"/><line class="cls-5" x1="0.5" y1="222.6" x2="19.44" y2="203.66"/><line class="cls-5" x1="7.08" y1="224.09" x2="19.44" y2="211.72"/><line class="cls-5" x1="15.14" y1="224.09" x2="19.44" y2="219.79"/><line class="cls-5" x1="0.97" y1="129.93" x2="1.36" y2="129.53"/><line class="cls-5" x1="0.5" y1="138.38" x2="2.93" y2="135.95"/><line class="cls-5" x1="3.94" y1="134.94" x2="3.94" y2="134.94"/><line class="cls-5" x1="4.96" y1="133.92" x2="7.94" y2="130.94"/><line class="cls-5" x1="8.95" y1="129.93" x2="8.95" y2="129.93"/><line class="cls-5" x1="0.5" y1="146.36" x2="1.99" y2="144.95"/><line class="cls-5" x1="2.93" y1="143.94" x2="2.93" y2="143.94"/><line class="cls-5" x1="3.94" y1="142.92" x2="7" y2="139.94"/><line class="cls-5" x1="7.94" y1="138.93" x2="7.94" y2="138.93"/><line class="cls-5" x1="8.95" y1="137.91" x2="12.01" y2="134.94"/><line class="cls-5" x1="13.02" y1="133.92" x2="13.02" y2="133.92"/><line class="cls-5" x1="13.96" y1="132.9" x2="17.02" y2="129.93"/><line class="cls-5" x1="0.5" y1="154.43" x2="0.97" y2="153.96"/><line class="cls-5" x1="1.99" y1="153.02" x2="1.99" y2="153.02"/><line class="cls-5" x1="2.93" y1="152" x2="5.98" y2="148.95"/><line class="cls-5" x1="7" y1="147.93" x2="7" y2="147.93"/><line class="cls-5" x1="7.94" y1="146.99" x2="10.99" y2="143.94"/><line class="cls-5" x1="12.01" y1="142.92" x2="12.01" y2="142.92"/><line class="cls-5" x1="13.02" y1="141.98" x2="16" y2="138.93"/><line class="cls-5" x1="17.02" y1="137.91" x2="17.02" y2="137.91"/><line class="cls-5" x1="18.03" y1="136.97" x2="19.44" y2="135.48"/><line class="cls-5" x1="0.97" y1="162.02" x2="0.97" y2="162.02"/><line class="cls-5" x1="1.99" y1="161" x2="4.96" y2="158.03"/><line class="cls-5" x1="5.98" y1="157.01" x2="5.98" y2="157.01"/><line class="cls-5" x1="7" y1="155.99" x2="9.97" y2="153.02"/><line class="cls-5" x1="10.99" y1="152" x2="10.99" y2="152"/><line class="cls-5" x1="12.01" y1="150.98" x2="14.98" y2="147.93"/><line class="cls-5" x1="16" y1="146.99" x2="16" y2="146.99"/><line class="cls-5" x1="17.02" y1="145.97" x2="19.44" y2="143.55"/><line class="cls-5" x1="0.97" y1="170" x2="3.94" y2="167.03"/><line class="cls-5" x1="4.96" y1="166.01" x2="4.96" y2="166.01"/><line class="cls-5" x1="5.98" y1="164.99" x2="8.95" y2="162.02"/><line class="cls-5" x1="9.97" y1="161" x2="9.97" y2="161"/><line class="cls-5" x1="10.99" y1="159.98" x2="13.96" y2="157.01"/><line class="cls-5" x1="14.98" y1="155.99" x2="14.98" y2="155.99"/><line class="cls-5" x1="16" y1="154.97" x2="18.97" y2="152"/><line class="cls-5" x1="0.5" y1="178.46" x2="2.93" y2="176.03"/><line class="cls-5" x1="3.94" y1="175.01" x2="3.94" y2="175.01"/><line class="cls-5" x1="4.96" y1="174.07" x2="7.94" y2="171.02"/><line class="cls-5" x1="8.95" y1="170" x2="8.95" y2="170"/><line class="cls-5" x1="9.97" y1="169.06" x2="13.02" y2="166.01"/><line class="cls-5" x1="13.96" y1="164.99" x2="13.96" y2="164.99"/><line class="cls-5" x1="14.98" y1="164.05" x2="18.03" y2="161"/><line class="cls-5" x1="18.97" y1="159.98" x2="18.97" y2="159.98"/><line class="cls-5" x1="0.5" y1="186.52" x2="1.99" y2="185.11"/><line class="cls-5" x1="2.93" y1="184.09" x2="2.93" y2="184.09"/><line class="cls-5" x1="3.94" y1="183.07" x2="7" y2="180.1"/><line class="cls-5" x1="7.94" y1="179.08" x2="7.94" y2="179.08"/><line class="cls-5" x1="8.95" y1="178.06" x2="12.01" y2="175.01"/><line class="cls-5" x1="13.02" y1="174.07" x2="13.02" y2="174.07"/><line class="cls-5" x1="13.96" y1="173.06" x2="17.02" y2="170"/><line class="cls-5" x1="18.03" y1="169.06" x2="18.03" y2="169.06"/><line class="cls-5" x1="18.97" y1="168.05" x2="19.44" y2="167.58"/><line class="cls-5" x1="0.5" y1="194.5" x2="0.97" y2="194.11"/><line class="cls-5" x1="1.99" y1="193.09" x2="1.99" y2="193.09"/><line class="cls-5" x1="2.93" y1="192.08" x2="5.98" y2="189.1"/><line class="cls-5" x1="7" y1="188.08" x2="7" y2="188.08"/><line class="cls-5" x1="7.94" y1="187.07" x2="10.99" y2="184.09"/><line class="cls-5" x1="12.01" y1="183.07" x2="12.01" y2="183.07"/><line class="cls-5" x1="13.02" y1="182.06" x2="16" y2="179.08"/><line class="cls-5" x1="17.02" y1="178.06" x2="17.02" y2="178.06"/><line class="cls-5" x1="18.03" y1="177.05" x2="19.44" y2="175.64"/><line class="cls-5" x1="0.97" y1="202.17" x2="0.97" y2="202.17"/><line class="cls-5" x1="1.99" y1="201.16" x2="4.96" y2="198.1"/><line class="cls-5" x1="5.98" y1="197.09" x2="5.98" y2="197.09"/><line class="cls-5" x1="7" y1="196.15" x2="9.97" y2="193.09"/><line class="cls-5" x1="10.99" y1="192.08" x2="10.99" y2="192.08"/><line class="cls-5" x1="12.01" y1="191.14" x2="14.98" y2="188.08"/><line class="cls-5" x1="16" y1="187.07" x2="16" y2="187.07"/><line class="cls-5" x1="17.02" y1="186.05" x2="19.44" y2="183.62"/><line class="cls-5" x1="0.97" y1="210.16" x2="3.94" y2="207.18"/><line class="cls-5" x1="4.96" y1="206.17" x2="4.96" y2="206.17"/><line class="cls-5" x1="5.98" y1="205.15" x2="8.95" y2="202.17"/><line class="cls-5" x1="9.97" y1="201.16" x2="9.97" y2="201.16"/><line class="cls-5" x1="10.99" y1="200.14" x2="13.96" y2="197.09"/><line class="cls-5" x1="14.98" y1="196.15" x2="14.98" y2="196.15"/><line class="cls-5" x1="16" y1="195.13" x2="18.97" y2="192.08"/><line class="cls-5" x1="0.5" y1="218.61" x2="2.93" y2="216.18"/><line class="cls-5" x1="3.94" y1="215.17" x2="3.94" y2="215.17"/><line class="cls-5" x1="4.96" y1="214.15" x2="7.94" y2="211.17"/><line class="cls-5" x1="8.95" y1="210.16" x2="8.95" y2="210.16"/><line class="cls-5" x1="9.97" y1="209.14" x2="13.02" y2="206.17"/><line class="cls-5" x1="13.96" y1="205.15" x2="13.96" y2="205.15"/><line class="cls-5" x1="14.98" y1="204.13" x2="18.03" y2="201.16"/><line class="cls-5" x1="18.97" y1="200.14" x2="18.97" y2="200.14"/><line class="cls-5" x1="3.94" y1="223.23" x2="7" y2="220.18"/><line class="cls-5" x1="7.94" y1="219.16" x2="7.94" y2="219.16"/><line class="cls-5" x1="8.95" y1="218.22" x2="12.01" y2="215.17"/><line class="cls-5" x1="13.02" y1="214.15" x2="13.02" y2="214.15"/><line class="cls-5" x1="13.96" y1="213.13" x2="17.02" y2="210.16"/><line class="cls-5" x1="18.03" y1="209.14" x2="18.03" y2="209.14"/><line class="cls-5" x1="18.97" y1="208.12" x2="19.44" y2="207.73"/><line class="cls-5" x1="12.01" y1="223.23" x2="12.01" y2="223.23"/><line class="cls-5" x1="13.02" y1="222.21" x2="16" y2="219.16"/><line class="cls-5" x1="17.02" y1="218.22" x2="17.02" y2="218.22"/><line class="cls-5" x1="18.03" y1="217.2" x2="19.44" y2="215.71"/><line class="cls-5" x1="19.13" y1="224.09" x2="19.44" y2="223.78"/><polyline class="cls-5" points="0.5 224.09 19.44 224.09 19.44 129.53 0.5 129.53 0.5 224.09"/><line class="cls-5" x1="0.5" y1="447.33" x2="6.21" y2="441.62"/><line class="cls-5" x1="0.5" y1="455.31" x2="14.28" y2="441.62"/><line class="cls-5" x1="0.5" y1="463.38" x2="19.44" y2="444.43"/><line class="cls-5" x1="0.5" y1="471.36" x2="19.44" y2="452.5"/><line class="cls-5" x1="0.5" y1="479.42" x2="19.44" y2="460.48"/><line class="cls-5" x1="0.5" y1="487.41" x2="19.44" y2="468.54"/><line class="cls-5" x1="0.5" y1="495.47" x2="19.44" y2="476.53"/><line class="cls-5" x1="0.5" y1="503.45" x2="19.44" y2="484.59"/><line class="cls-5" x1="0.5" y1="511.52" x2="19.44" y2="492.57"/><line class="cls-5" x1="0.5" y1="519.5" x2="19.44" y2="500.64"/><line class="cls-5" x1="0.5" y1="527.56" x2="19.44" y2="508.62"/><line class="cls-5" x1="0.5" y1="535.62" x2="19.44" y2="516.68"/><line class="cls-5" x1="7.94" y1="536.17" x2="19.44" y2="524.67"/><line class="cls-5" x1="16" y1="536.17" x2="19.44" y2="532.73"/><line class="cls-5" x1="0.97" y1="442.87" x2="0.97" y2="442.87"/><line class="cls-5" x1="1.99" y1="441.85" x2="2.22" y2="441.62"/><line class="cls-5" x1="0.97" y1="450.93" x2="3.94" y2="447.88"/><line class="cls-5" x1="4.96" y1="446.86" x2="4.96" y2="446.86"/><line class="cls-5" x1="5.98" y1="445.92" x2="8.95" y2="442.87"/><line class="cls-5" x1="9.97" y1="441.85" x2="9.97" y2="441.85"/><line class="cls-5" x1="0.5" y1="459.38" x2="2.93" y2="456.96"/><line class="cls-5" x1="3.94" y1="455.94" x2="3.94" y2="455.94"/><line class="cls-5" x1="4.96" y1="454.92" x2="7.94" y2="451.95"/><line class="cls-5" x1="8.95" y1="450.93" x2="8.95" y2="450.93"/><line class="cls-5" x1="9.97" y1="449.91" x2="13.02" y2="446.86"/><line class="cls-5" x1="13.96" y1="445.92" x2="13.96" y2="445.92"/><line class="cls-5" x1="14.98" y1="444.9" x2="18.03" y2="441.85"/><line class="cls-5" x1="0.5" y1="467.37" x2="1.99" y2="465.96"/><line class="cls-5" x1="2.93" y1="464.94" x2="2.93" y2="464.94"/><line class="cls-5" x1="3.94" y1="463.92" x2="7" y2="460.95"/><line class="cls-5" x1="7.94" y1="459.93" x2="7.94" y2="459.93"/><line class="cls-5" x1="8.95" y1="458.91" x2="12.01" y2="455.94"/><line class="cls-5" x1="13.02" y1="454.92" x2="13.02" y2="454.92"/><line class="cls-5" x1="13.96" y1="453.91" x2="17.02" y2="450.93"/><line class="cls-5" x1="18.03" y1="449.91" x2="18.03" y2="449.91"/><line class="cls-5" x1="18.97" y1="448.9" x2="19.44" y2="448.43"/><line class="cls-5" x1="0.5" y1="475.43" x2="0.97" y2="474.96"/><line class="cls-5" x1="1.99" y1="473.94" x2="1.99" y2="473.94"/><line class="cls-5" x1="2.93" y1="473" x2="5.98" y2="469.95"/><line class="cls-5" x1="7" y1="468.93" x2="7" y2="468.93"/><line class="cls-5" x1="7.94" y1="467.99" x2="10.99" y2="464.94"/><line class="cls-5" x1="12.01" y1="463.92" x2="12.01" y2="463.92"/><line class="cls-5" x1="13.02" y1="462.99" x2="16" y2="459.93"/><line class="cls-5" x1="17.02" y1="458.91" x2="17.02" y2="458.91"/><line class="cls-5" x1="18.03" y1="457.9" x2="19.44" y2="456.49"/><line class="cls-5" x1="0.97" y1="483.02" x2="0.97" y2="483.02"/><line class="cls-5" x1="1.99" y1="482.01" x2="4.96" y2="479.03"/><line class="cls-5" x1="5.98" y1="478.01" x2="5.98" y2="478.01"/><line class="cls-5" x1="7" y1="477" x2="9.97" y2="473.94"/><line class="cls-5" x1="10.99" y1="473" x2="10.99" y2="473"/><line class="cls-5" x1="12.01" y1="471.99" x2="14.98" y2="468.93"/><line class="cls-5" x1="16" y1="467.99" x2="16" y2="467.99"/><line class="cls-5" x1="17.02" y1="466.98" x2="19.44" y2="464.47"/><line class="cls-5" x1="0.97" y1="491.01" x2="3.94" y2="488.03"/><line class="cls-5" x1="4.96" y1="487.02" x2="4.96" y2="487.02"/><line class="cls-5" x1="5.98" y1="486" x2="8.95" y2="483.02"/><line class="cls-5" x1="9.97" y1="482.01" x2="9.97" y2="482.01"/><line class="cls-5" x1="10.99" y1="480.99" x2="13.96" y2="478.01"/><line class="cls-5" x1="14.98" y1="477" x2="14.98" y2="477"/><line class="cls-5" x1="16" y1="475.98" x2="18.97" y2="473"/><line class="cls-5" x1="0.5" y1="499.46" x2="2.93" y2="497.03"/><line class="cls-5" x1="3.94" y1="496.02" x2="3.94" y2="496.02"/><line class="cls-5" x1="4.96" y1="495.08" x2="7.94" y2="492.03"/><line class="cls-5" x1="8.95" y1="491.01" x2="8.95" y2="491.01"/><line class="cls-5" x1="9.97" y1="490.07" x2="13.02" y2="487.02"/><line class="cls-5" x1="13.96" y1="486" x2="13.96" y2="486"/><line class="cls-5" x1="14.98" y1="484.98" x2="18.03" y2="482.01"/><line class="cls-5" x1="18.97" y1="480.99" x2="18.97" y2="480.99"/><line class="cls-5" x1="0.5" y1="507.52" x2="1.99" y2="506.11"/><line class="cls-5" x1="2.93" y1="505.1" x2="2.93" y2="505.1"/><line class="cls-5" x1="3.94" y1="504.08" x2="7" y2="501.11"/><line class="cls-5" x1="7.94" y1="500.09" x2="7.94" y2="500.09"/><line class="cls-5" x1="8.95" y1="499.07" x2="12.01" y2="496.02"/><line class="cls-5" x1="13.02" y1="495.08" x2="13.02" y2="495.08"/><line class="cls-5" x1="13.96" y1="494.06" x2="17.02" y2="491.01"/><line class="cls-5" x1="18.03" y1="490.07" x2="18.03" y2="490.07"/><line class="cls-5" x1="18.97" y1="489.05" x2="19.44" y2="488.58"/><line class="cls-5" x1="0.5" y1="515.51" x2="0.97" y2="515.12"/><line class="cls-5" x1="1.99" y1="514.1" x2="1.99" y2="514.1"/><line class="cls-5" x1="2.93" y1="513.08" x2="5.98" y2="510.11"/><line class="cls-5" x1="7" y1="509.09" x2="7" y2="509.09"/><line class="cls-5" x1="7.94" y1="508.07" x2="10.99" y2="505.1"/><line class="cls-5" x1="12.01" y1="504.08" x2="12.01" y2="504.08"/><line class="cls-5" x1="13.02" y1="503.06" x2="16" y2="500.09"/><line class="cls-5" x1="17.02" y1="499.07" x2="17.02" y2="499.07"/><line class="cls-5" x1="18.03" y1="498.05" x2="19.44" y2="496.64"/><line class="cls-5" x1="0.97" y1="523.1" x2="0.97" y2="523.1"/><line class="cls-5" x1="1.99" y1="522.16" x2="4.96" y2="519.11"/><line class="cls-5" x1="5.98" y1="518.09" x2="5.98" y2="518.09"/><line class="cls-5" x1="7" y1="517.15" x2="9.97" y2="514.1"/><line class="cls-5" x1="10.99" y1="513.08" x2="10.99" y2="513.08"/><line class="cls-5" x1="12.01" y1="512.06" x2="14.98" y2="509.09"/><line class="cls-5" x1="16" y1="508.07" x2="16" y2="508.07"/><line class="cls-5" x1="17.02" y1="507.05" x2="19.44" y2="504.63"/><line class="cls-5" x1="0.97" y1="531.16" x2="3.94" y2="528.19"/><line class="cls-5" x1="4.96" y1="527.17" x2="4.96" y2="527.17"/><line class="cls-5" x1="5.98" y1="526.15" x2="8.95" y2="523.1"/><line class="cls-5" x1="9.97" y1="522.16" x2="9.97" y2="522.16"/><line class="cls-5" x1="10.99" y1="521.14" x2="13.96" y2="518.09"/><line class="cls-5" x1="14.98" y1="517.15" x2="14.98" y2="517.15"/><line class="cls-5" x1="16" y1="516.13" x2="18.97" y2="513.08"/><line class="cls-5" x1="4.96" y1="535.15" x2="7.94" y2="532.18"/><line class="cls-5" x1="8.95" y1="531.16" x2="8.95" y2="531.16"/><line class="cls-5" x1="9.97" y1="530.15" x2="13.02" y2="527.17"/><line class="cls-5" x1="13.96" y1="526.15" x2="13.96" y2="526.15"/><line class="cls-5" x1="14.98" y1="525.14" x2="18.03" y2="522.16"/><line class="cls-5" x1="18.97" y1="521.14" x2="18.97" y2="521.14"/><line class="cls-5" x1="13.02" y1="535.15" x2="13.02" y2="535.15"/><line class="cls-5" x1="13.96" y1="534.14" x2="17.02" y2="531.16"/><line class="cls-5" x1="18.03" y1="530.15" x2="18.03" y2="530.15"/><line class="cls-5" x1="18.97" y1="529.13" x2="19.44" y2="528.74"/><polyline class="cls-5" points="19.44 441.62 0.5 441.62 0.5 536.17 19.44 536.17 19.44 441.62"/><line class="cls-5" x1="388.27" y1="131.8" x2="390.54" y2="129.53"/><line class="cls-5" x1="388.27" y1="139.79" x2="398.61" y2="129.53"/><line class="cls-5" x1="388.27" y1="147.85" x2="406.59" y2="129.53"/><line class="cls-5" x1="388.27" y1="155.83" x2="407.22" y2="136.97"/><line class="cls-5" x1="388.27" y1="163.9" x2="407.22" y2="144.95"/><line class="cls-5" x1="388.27" y1="171.88" x2="407.22" y2="153.02"/><line class="cls-5" x1="388.27" y1="179.94" x2="407.22" y2="161"/><line class="cls-5" x1="388.27" y1="187.93" x2="407.22" y2="169.06"/><line class="cls-5" x1="388.27" y1="195.99" x2="407.22" y2="177.05"/><line class="cls-5" x1="388.27" y1="203.97" x2="407.22" y2="185.11"/><line class="cls-5" x1="388.27" y1="212.04" x2="407.22" y2="193.09"/><line class="cls-5" x1="388.27" y1="220.02" x2="407.22" y2="201.16"/><line class="cls-5" x1="392.27" y1="224.09" x2="407.22" y2="209.14"/><line class="cls-5" x1="400.33" y1="224.09" x2="407.22" y2="217.2"/><line class="cls-5" x1="388.27" y1="135.8" x2="391.17" y2="132.9"/><line class="cls-5" x1="392.19" y1="131.88" x2="392.19" y2="131.88"/><line class="cls-5" x1="393.21" y1="130.94" x2="394.61" y2="129.53"/><line class="cls-5" x1="388.27" y1="143.78" x2="390.15" y2="141.98"/><line class="cls-5" x1="391.17" y1="140.96" x2="391.17" y2="140.96"/><line class="cls-5" x1="392.19" y1="139.94" x2="395.16" y2="136.97"/><line class="cls-5" x1="396.18" y1="135.95" x2="396.18" y2="135.95"/><line class="cls-5" x1="397.2" y1="134.94" x2="400.17" y2="131.88"/><line class="cls-5" x1="401.19" y1="130.94" x2="401.19" y2="130.94"/><line class="cls-5" x1="402.21" y1="129.93" x2="402.6" y2="129.53"/><line class="cls-5" x1="388.27" y1="151.84" x2="389.13" y2="150.98"/><line class="cls-5" x1="390.15" y1="149.96" x2="390.15" y2="149.96"/><line class="cls-5" x1="391.17" y1="148.95" x2="394.14" y2="145.97"/><line class="cls-5" x1="395.16" y1="144.95" x2="395.16" y2="144.95"/><line class="cls-5" x1="396.18" y1="143.94" x2="399.23" y2="140.96"/><line class="cls-5" x1="400.17" y1="139.94" x2="400.17" y2="139.94"/><line class="cls-5" x1="401.19" y1="138.93" x2="404.24" y2="135.95"/><line class="cls-5" x1="405.18" y1="134.94" x2="405.18" y2="134.94"/><line class="cls-5" x1="406.2" y1="133.92" x2="407.22" y2="132.9"/><line class="cls-5" x1="389.13" y1="158.97" x2="389.13" y2="158.97"/><line class="cls-5" x1="390.15" y1="158.03" x2="393.21" y2="154.97"/><line class="cls-5" x1="394.14" y1="153.96" x2="394.14" y2="153.96"/><line class="cls-5" x1="395.16" y1="153.02" x2="398.21" y2="149.96"/><line class="cls-5" x1="399.23" y1="148.95" x2="399.23" y2="148.95"/><line class="cls-5" x1="400.17" y1="147.93" x2="403.22" y2="144.95"/><line class="cls-5" x1="404.24" y1="143.94" x2="404.24" y2="143.94"/><line class="cls-5" x1="405.18" y1="142.92" x2="407.22" y2="140.96"/><line class="cls-5" x1="389.13" y1="167.03" x2="392.19" y2="164.05"/><line class="cls-5" x1="393.21" y1="163.04" x2="393.21" y2="163.04"/><line class="cls-5" x1="394.14" y1="162.02" x2="397.2" y2="158.97"/><line class="cls-5" x1="398.21" y1="158.03" x2="398.21" y2="158.03"/><line class="cls-5" x1="399.23" y1="157.01" x2="402.21" y2="153.96"/><line class="cls-5" x1="403.22" y1="153.02" x2="403.22" y2="153.02"/><line class="cls-5" x1="404.24" y1="152" x2="407.22" y2="148.95"/><line class="cls-5" x1="388.27" y1="175.95" x2="391.17" y2="173.06"/><line class="cls-5" x1="392.19" y1="172.04" x2="392.19" y2="172.04"/><line class="cls-5" x1="393.21" y1="171.02" x2="396.18" y2="168.05"/><line class="cls-5" x1="397.2" y1="167.03" x2="397.2" y2="167.03"/><line class="cls-5" x1="398.21" y1="166.01" x2="401.19" y2="163.04"/><line class="cls-5" x1="402.21" y1="162.02" x2="402.21" y2="162.02"/><line class="cls-5" x1="403.22" y1="161" x2="406.2" y2="158.03"/><line class="cls-5" x1="388.27" y1="183.94" x2="390.15" y2="182.06"/><line class="cls-5" x1="391.17" y1="181.04" x2="391.17" y2="181.04"/><line class="cls-5" x1="392.19" y1="180.1" x2="395.16" y2="177.05"/><line class="cls-5" x1="396.18" y1="176.03" x2="396.18" y2="176.03"/><line class="cls-5" x1="397.2" y1="175.01" x2="400.17" y2="172.04"/><line class="cls-5" x1="401.19" y1="171.02" x2="401.19" y2="171.02"/><line class="cls-5" x1="402.21" y1="170" x2="405.18" y2="167.03"/><line class="cls-5" x1="406.2" y1="166.01" x2="406.2" y2="166.01"/><line class="cls-5" x1="388.27" y1="192" x2="389.13" y2="191.14"/><line class="cls-5" x1="390.15" y1="190.12" x2="390.15" y2="190.12"/><line class="cls-5" x1="391.17" y1="189.1" x2="394.14" y2="186.05"/><line class="cls-5" x1="395.16" y1="185.11" x2="395.16" y2="185.11"/><line class="cls-5" x1="396.18" y1="184.09" x2="399.23" y2="181.04"/><line class="cls-5" x1="400.17" y1="180.1" x2="400.17" y2="180.1"/><line class="cls-5" x1="401.19" y1="179.08" x2="404.24" y2="176.03"/><line class="cls-5" x1="405.18" y1="175.01" x2="405.18" y2="175.01"/><line class="cls-5" x1="406.2" y1="174.07" x2="407.22" y2="173.06"/><line class="cls-5" x1="389.13" y1="199.12" x2="389.13" y2="199.12"/><line class="cls-5" x1="390.15" y1="198.1" x2="393.21" y2="195.13"/><line class="cls-5" x1="394.14" y1="194.11" x2="394.14" y2="194.11"/><line class="cls-5" x1="395.16" y1="193.09" x2="398.21" y2="190.12"/><line class="cls-5" x1="399.23" y1="189.1" x2="399.23" y2="189.1"/><line class="cls-5" x1="400.17" y1="188.08" x2="403.22" y2="185.11"/><line class="cls-5" x1="404.24" y1="184.09" x2="404.24" y2="184.09"/><line class="cls-5" x1="405.18" y1="183.07" x2="407.22" y2="181.04"/><line class="cls-5" x1="389.13" y1="207.18" x2="392.19" y2="204.13"/><line class="cls-5" x1="393.21" y1="203.11" x2="393.21" y2="203.11"/><line class="cls-5" x1="394.14" y1="202.17" x2="397.2" y2="199.12"/><line class="cls-5" x1="398.21" y1="198.1" x2="398.21" y2="198.1"/><line class="cls-5" x1="399.23" y1="197.09" x2="402.21" y2="194.11"/><line class="cls-5" x1="403.22" y1="193.09" x2="403.22" y2="193.09"/><line class="cls-5" x1="404.24" y1="192.08" x2="407.22" y2="189.1"/><line class="cls-5" x1="388.27" y1="216.03" x2="391.17" y2="213.13"/><line class="cls-5" x1="392.19" y1="212.19" x2="392.19" y2="212.19"/><line class="cls-5" x1="393.21" y1="211.17" x2="396.18" y2="208.12"/><line class="cls-5" x1="397.2" y1="207.18" x2="397.2" y2="207.18"/><line class="cls-5" x1="398.21" y1="206.17" x2="401.19" y2="203.11"/><line class="cls-5" x1="402.21" y1="202.17" x2="402.21" y2="202.17"/><line class="cls-5" x1="403.22" y1="201.16" x2="406.2" y2="198.1"/><line class="cls-5" x1="388.27" y1="224.09" x2="390.15" y2="222.21"/><line class="cls-5" x1="391.17" y1="221.19" x2="391.17" y2="221.19"/><line class="cls-5" x1="392.19" y1="220.18" x2="395.16" y2="217.2"/><line class="cls-5" x1="396.18" y1="216.18" x2="396.18" y2="216.18"/><line class="cls-5" x1="397.2" y1="215.17" x2="400.17" y2="212.19"/><line class="cls-5" x1="401.19" y1="211.17" x2="401.19" y2="211.17"/><line class="cls-5" x1="402.21" y1="210.16" x2="405.18" y2="207.18"/><line class="cls-5" x1="406.2" y1="206.17" x2="406.2" y2="206.17"/><line class="cls-5" x1="396.34" y1="224.09" x2="399.23" y2="221.19"/><line class="cls-5" x1="400.17" y1="220.18" x2="400.17" y2="220.18"/><line class="cls-5" x1="401.19" y1="219.16" x2="404.24" y2="216.18"/><line class="cls-5" x1="405.18" y1="215.17" x2="405.18" y2="215.17"/><line class="cls-5" x1="406.2" y1="214.15" x2="407.22" y2="213.21"/><line class="cls-5" x1="405.18" y1="223.23" x2="407.22" y2="221.19"/><polyline class="cls-5" points="388.27 224.09 407.22 224.09 407.22 129.53 388.27 129.53 388.27 224.09"/><line class="cls-5" x1="388.27" y1="428.7" x2="394.3" y2="422.67"/><line class="cls-5" x1="388.27" y1="436.76" x2="402.36" y2="422.67"/><line class="cls-5" x1="388.27" y1="444.75" x2="407.22" y2="425.8"/><line class="cls-5" x1="388.27" y1="452.81" x2="407.22" y2="433.87"/><line class="cls-5" x1="388.27" y1="460.79" x2="407.22" y2="441.85"/><line class="cls-5" x1="388.27" y1="468.86" x2="407.22" y2="449.91"/><line class="cls-5" x1="388.27" y1="476.84" x2="407.22" y2="457.98"/><line class="cls-5" x1="388.27" y1="484.9" x2="407.22" y2="465.96"/><line class="cls-5" x1="388.27" y1="492.89" x2="407.22" y2="474.02"/><line class="cls-5" x1="388.27" y1="500.95" x2="407.22" y2="482.01"/><line class="cls-5" x1="388.27" y1="508.93" x2="407.22" y2="490.07"/><line class="cls-5" x1="388.27" y1="516.99" x2="407.22" y2="498.05"/><line class="cls-5" x1="388.27" y1="524.98" x2="407.22" y2="506.11"/><line class="cls-5" x1="388.27" y1="533.04" x2="407.22" y2="514.1"/><line class="cls-5" x1="393.21" y1="536.17" x2="407.22" y2="522.16"/><line class="cls-5" x1="401.19" y1="536.17" x2="407.22" y2="530.15"/><line class="cls-5" x1="388.27" y1="424.71" x2="390.15" y2="422.83"/><line class="cls-5" x1="388.27" y1="432.69" x2="389.13" y2="431.83"/><line class="cls-5" x1="390.15" y1="430.81" x2="390.15" y2="430.81"/><line class="cls-5" x1="391.17" y1="429.87" x2="394.14" y2="426.82"/><line class="cls-5" x1="395.16" y1="425.8" x2="395.16" y2="425.8"/><line class="cls-5" x1="396.18" y1="424.87" x2="398.29" y2="422.67"/><line class="cls-5" x1="389.13" y1="439.89" x2="389.13" y2="439.89"/><line class="cls-5" x1="390.15" y1="438.88" x2="393.21" y2="435.9"/><line class="cls-5" x1="394.14" y1="434.88" x2="394.14" y2="434.88"/><line class="cls-5" x1="395.16" y1="433.87" x2="398.21" y2="430.81"/><line class="cls-5" x1="399.23" y1="429.87" x2="399.23" y2="429.87"/><line class="cls-5" x1="400.17" y1="428.86" x2="403.22" y2="425.8"/><line class="cls-5" x1="404.24" y1="424.87" x2="404.24" y2="424.87"/><line class="cls-5" x1="405.18" y1="423.85" x2="406.36" y2="422.67"/><line class="cls-5" x1="389.13" y1="447.88" x2="392.19" y2="444.9"/><line class="cls-5" x1="393.21" y1="443.89" x2="393.21" y2="443.89"/><line class="cls-5" x1="394.14" y1="442.87" x2="397.2" y2="439.89"/><line class="cls-5" x1="398.21" y1="438.88" x2="398.21" y2="438.88"/><line class="cls-5" x1="399.23" y1="437.86" x2="402.21" y2="434.88"/><line class="cls-5" x1="403.22" y1="433.87" x2="403.22" y2="433.87"/><line class="cls-5" x1="404.24" y1="432.85" x2="407.22" y2="429.87"/><line class="cls-5" x1="388.27" y1="456.8" x2="391.17" y2="453.91"/><line class="cls-5" x1="392.19" y1="452.89" x2="392.19" y2="452.89"/><line class="cls-5" x1="393.21" y1="451.95" x2="396.18" y2="448.9"/><line class="cls-5" x1="397.2" y1="447.88" x2="397.2" y2="447.88"/><line class="cls-5" x1="398.21" y1="446.86" x2="401.19" y2="443.89"/><line class="cls-5" x1="402.21" y1="442.87" x2="402.21" y2="442.87"/><line class="cls-5" x1="403.22" y1="441.85" x2="406.2" y2="438.88"/><line class="cls-5" x1="388.27" y1="464.79" x2="390.15" y2="462.99"/><line class="cls-5" x1="391.17" y1="461.97" x2="391.17" y2="461.97"/><line class="cls-5" x1="392.19" y1="460.95" x2="395.16" y2="457.9"/><line class="cls-5" x1="396.18" y1="456.96" x2="396.18" y2="456.96"/><line class="cls-5" x1="397.2" y1="455.94" x2="400.17" y2="452.89"/><line class="cls-5" x1="401.19" y1="451.95" x2="401.19" y2="451.95"/><line class="cls-5" x1="402.21" y1="450.93" x2="405.18" y2="447.88"/><line class="cls-5" x1="406.2" y1="446.86" x2="406.2" y2="446.86"/><line class="cls-5" x1="388.27" y1="472.85" x2="389.13" y2="471.99"/><line class="cls-5" x1="390.15" y1="470.97" x2="390.15" y2="470.97"/><line class="cls-5" x1="391.17" y1="469.95" x2="394.14" y2="466.98"/><line class="cls-5" x1="395.16" y1="465.96" x2="395.16" y2="465.96"/><line class="cls-5" x1="396.18" y1="464.94" x2="399.23" y2="461.97"/><line class="cls-5" x1="400.17" y1="460.95" x2="400.17" y2="460.95"/><line class="cls-5" x1="401.19" y1="459.93" x2="404.24" y2="456.96"/><line class="cls-5" x1="405.18" y1="455.94" x2="405.18" y2="455.94"/><line class="cls-5" x1="406.2" y1="454.92" x2="407.22" y2="453.91"/><line class="cls-5" x1="389.13" y1="479.97" x2="389.13" y2="479.97"/><line class="cls-5" x1="390.15" y1="479.03" x2="393.21" y2="475.98"/><line class="cls-5" x1="394.14" y1="474.96" x2="394.14" y2="474.96"/><line class="cls-5" x1="395.16" y1="473.94" x2="398.21" y2="470.97"/><line class="cls-5" x1="399.23" y1="469.95" x2="399.23" y2="469.95"/><line class="cls-5" x1="400.17" y1="468.93" x2="403.22" y2="465.96"/><line class="cls-5" x1="404.24" y1="464.94" x2="404.24" y2="464.94"/><line class="cls-5" x1="405.18" y1="463.92" x2="407.22" y2="461.97"/><line class="cls-5" x1="389.13" y1="488.03" x2="392.19" y2="484.98"/><line class="cls-5" x1="393.21" y1="484.04" x2="393.21" y2="484.04"/><line class="cls-5" x1="394.14" y1="483.02" x2="397.2" y2="479.97"/><line class="cls-5" x1="398.21" y1="479.03" x2="398.21" y2="479.03"/><line class="cls-5" x1="399.23" y1="478.01" x2="402.21" y2="474.96"/><line class="cls-5" x1="403.22" y1="473.94" x2="403.22" y2="473.94"/><line class="cls-5" x1="404.24" y1="473" x2="407.22" y2="469.95"/><line class="cls-5" x1="388.27" y1="496.88" x2="391.17" y2="494.06"/><line class="cls-5" x1="392.19" y1="493.04" x2="392.19" y2="493.04"/><line class="cls-5" x1="393.21" y1="492.03" x2="396.18" y2="489.05"/><line class="cls-5" x1="397.2" y1="488.03" x2="397.2" y2="488.03"/><line class="cls-5" x1="398.21" y1="487.02" x2="401.19" y2="484.04"/><line class="cls-5" x1="402.21" y1="483.02" x2="402.21" y2="483.02"/><line class="cls-5" x1="403.22" y1="482.01" x2="406.2" y2="479.03"/><line class="cls-5" x1="388.27" y1="504.94" x2="390.15" y2="503.06"/><line class="cls-5" x1="391.17" y1="502.04" x2="391.17" y2="502.04"/><line class="cls-5" x1="392.19" y1="501.11" x2="395.16" y2="498.05"/><line class="cls-5" x1="396.18" y1="497.03" x2="396.18" y2="497.03"/><line class="cls-5" x1="397.2" y1="496.02" x2="400.17" y2="493.04"/><line class="cls-5" x1="401.19" y1="492.03" x2="401.19" y2="492.03"/><line class="cls-5" x1="402.21" y1="491.01" x2="405.18" y2="488.03"/><line class="cls-5" x1="406.2" y1="487.02" x2="406.2" y2="487.02"/><line class="cls-5" x1="388.27" y1="513" x2="389.13" y2="512.06"/><line class="cls-5" x1="390.15" y1="511.12" x2="390.15" y2="511.12"/><line class="cls-5" x1="391.17" y1="510.11" x2="394.14" y2="507.05"/><line class="cls-5" x1="395.16" y1="506.11" x2="395.16" y2="506.11"/><line class="cls-5" x1="396.18" y1="505.1" x2="399.23" y2="502.04"/><line class="cls-5" x1="400.17" y1="501.11" x2="400.17" y2="501.11"/><line class="cls-5" x1="401.19" y1="500.09" x2="404.24" y2="497.03"/><line class="cls-5" x1="405.18" y1="496.02" x2="405.18" y2="496.02"/><line class="cls-5" x1="406.2" y1="495.08" x2="407.22" y2="494.06"/><line class="cls-5" x1="389.13" y1="520.13" x2="389.13" y2="520.13"/><line class="cls-5" x1="390.15" y1="519.11" x2="393.21" y2="516.13"/><line class="cls-5" x1="394.14" y1="515.12" x2="394.14" y2="515.12"/><line class="cls-5" x1="395.16" y1="514.1" x2="398.21" y2="511.12"/><line class="cls-5" x1="399.23" y1="510.11" x2="399.23" y2="510.11"/><line class="cls-5" x1="400.17" y1="509.09" x2="403.22" y2="506.11"/><line class="cls-5" x1="404.24" y1="505.1" x2="404.24" y2="505.1"/><line class="cls-5" x1="405.18" y1="504.08" x2="407.22" y2="502.04"/><line class="cls-5" x1="389.13" y1="528.19" x2="392.19" y2="525.14"/><line class="cls-5" x1="393.21" y1="524.12" x2="393.21" y2="524.12"/><line class="cls-5" x1="394.14" y1="523.1" x2="397.2" y2="520.13"/><line class="cls-5" x1="398.21" y1="519.11" x2="398.21" y2="519.11"/><line class="cls-5" x1="399.23" y1="518.09" x2="402.21" y2="515.12"/><line class="cls-5" x1="403.22" y1="514.1" x2="403.22" y2="514.1"/><line class="cls-5" x1="404.24" y1="513.08" x2="407.22" y2="510.11"/><line class="cls-5" x1="389.13" y1="536.17" x2="391.17" y2="534.14"/><line class="cls-5" x1="392.19" y1="533.2" x2="392.19" y2="533.2"/><line class="cls-5" x1="393.21" y1="532.18" x2="396.18" y2="529.13"/><line class="cls-5" x1="397.2" y1="528.19" x2="397.2" y2="528.19"/><line class="cls-5" x1="398.21" y1="527.17" x2="401.19" y2="524.12"/><line class="cls-5" x1="402.21" y1="523.1" x2="402.21" y2="523.1"/><line class="cls-5" x1="403.22" y1="522.16" x2="406.2" y2="519.11"/><line class="cls-5" x1="397.2" y1="536.17" x2="400.17" y2="533.2"/><line class="cls-5" x1="401.19" y1="532.18" x2="401.19" y2="532.18"/><line class="cls-5" x1="402.21" y1="531.16" x2="405.18" y2="528.19"/><line class="cls-5" x1="406.2" y1="527.17" x2="406.2" y2="527.17"/><line class="cls-5" x1="406.2" y1="535.15" x2="407.22" y2="534.14"/><polyline class="cls-5" points="407.22 422.67 388.27 422.67 388.27 536.17 407.22 536.17 407.22 422.67"/><line class="cls-5" x1="0.5" y1="776.32" x2="4.26" y2="772.64"/><line class="cls-5" x1="0.5" y1="784.38" x2="12.32" y2="772.64"/><line class="cls-5" x1="1.36" y1="791.5" x2="20.3" y2="772.64"/><line class="cls-5" x1="9.42" y1="791.5" x2="28.37" y2="772.64"/><line class="cls-5" x1="17.41" y1="791.5" x2="36.35" y2="772.64"/><line class="cls-5" x1="25.47" y1="791.5" x2="44.41" y2="772.64"/><line class="cls-5" x1="33.53" y1="791.5" x2="52.4" y2="772.64"/><line class="cls-5" x1="41.52" y1="791.5" x2="60.46" y2="772.64"/><line class="cls-5" x1="49.58" y1="791.5" x2="68.44" y2="772.64"/><line class="cls-5" x1="57.56" y1="791.5" x2="76.5" y2="772.64"/><line class="cls-5" x1="65.62" y1="791.5" x2="84.49" y2="772.64"/><line class="cls-5" x1="73.61" y1="791.5" x2="92.55" y2="772.64"/><line class="cls-5" x1="81.67" y1="791.5" x2="95.13" y2="778.04"/><line class="cls-5" x1="89.66" y1="791.5" x2="95.13" y2="786.1"/><line class="cls-5" x1="0.5" y1="780.39" x2="2.93" y2="777.96"/><line class="cls-5" x1="3.94" y1="776.95" x2="3.94" y2="776.95"/><line class="cls-5" x1="4.96" y1="775.93" x2="7.94" y2="772.88"/><line class="cls-5" x1="0.5" y1="788.37" x2="1.99" y2="786.96"/><line class="cls-5" x1="2.93" y1="785.95" x2="2.93" y2="785.95"/><line class="cls-5" x1="3.94" y1="784.93" x2="7" y2="781.96"/><line class="cls-5" x1="7.94" y1="780.94" x2="7.94" y2="780.94"/><line class="cls-5" x1="8.95" y1="779.92" x2="12.01" y2="776.95"/><line class="cls-5" x1="13.02" y1="775.93" x2="13.02" y2="775.93"/><line class="cls-5" x1="13.96" y1="774.91" x2="16.31" y2="772.64"/><line class="cls-5" x1="5.43" y1="791.5" x2="5.98" y2="790.96"/><line class="cls-5" x1="7" y1="789.94" x2="7" y2="789.94"/><line class="cls-5" x1="7.94" y1="789" x2="10.99" y2="785.95"/><line class="cls-5" x1="12.01" y1="784.93" x2="12.01" y2="784.93"/><line class="cls-5" x1="13.02" y1="783.91" x2="16" y2="780.94"/><line class="cls-5" x1="17.02" y1="779.92" x2="17.02" y2="779.92"/><line class="cls-5" x1="18.03" y1="778.9" x2="21.01" y2="775.93"/><line class="cls-5" x1="22.03" y1="774.91" x2="22.03" y2="774.91"/><line class="cls-5" x1="23.04" y1="773.89" x2="24.3" y2="772.64"/><line class="cls-5" x1="13.42" y1="791.5" x2="14.98" y2="789.94"/><line class="cls-5" x1="16" y1="789" x2="16" y2="789"/><line class="cls-5" x1="17.02" y1="787.98" x2="19.99" y2="784.93"/><line class="cls-5" x1="21.01" y1="783.91" x2="21.01" y2="783.91"/><line class="cls-5" x1="22.03" y1="782.97" x2="25" y2="779.92"/><line class="cls-5" x1="26.02" y1="778.9" x2="26.02" y2="778.9"/><line class="cls-5" x1="27.04" y1="777.96" x2="30.01" y2="774.91"/><line class="cls-5" x1="31.03" y1="773.89" x2="31.03" y2="773.89"/><line class="cls-5" x1="32.04" y1="772.88" x2="32.36" y2="772.64"/><line class="cls-5" x1="21.48" y1="791.5" x2="24.06" y2="789"/><line class="cls-5" x1="25" y1="787.98" x2="25" y2="787.98"/><line class="cls-5" x1="26.02" y1="786.96" x2="29.07" y2="783.91"/><line class="cls-5" x1="30.01" y1="782.97" x2="30.01" y2="782.97"/><line class="cls-5" x1="31.03" y1="781.96" x2="34.08" y2="778.9"/><line class="cls-5" x1="35.02" y1="777.96" x2="35.02" y2="777.96"/><line class="cls-5" x1="36.04" y1="776.95" x2="39.09" y2="773.89"/><line class="cls-5" x1="40.11" y1="772.88" x2="40.11" y2="772.88"/><line class="cls-5" x1="30.01" y1="790.96" x2="33.06" y2="787.98"/><line class="cls-5" x1="34.08" y1="786.96" x2="34.08" y2="786.96"/><line class="cls-5" x1="35.02" y1="785.95" x2="38.07" y2="782.97"/><line class="cls-5" x1="39.09" y1="781.96" x2="39.09" y2="781.96"/><line class="cls-5" x1="40.11" y1="780.94" x2="43.08" y2="777.96"/><line class="cls-5" x1="44.1" y1="776.95" x2="44.1" y2="776.95"/><line class="cls-5" x1="45.12" y1="775.93" x2="48.09" y2="772.88"/><line class="cls-5" x1="38.07" y1="790.96" x2="38.07" y2="790.96"/><line class="cls-5" x1="39.09" y1="789.94" x2="42.06" y2="786.96"/><line class="cls-5" x1="43.08" y1="785.95" x2="43.08" y2="785.95"/><line class="cls-5" x1="44.1" y1="784.93" x2="47.07" y2="781.96"/><line class="cls-5" x1="48.09" y1="780.94" x2="48.09" y2="780.94"/><line class="cls-5" x1="49.11" y1="779.92" x2="52.08" y2="776.95"/><line class="cls-5" x1="53.1" y1="775.93" x2="53.1" y2="775.93"/><line class="cls-5" x1="54.12" y1="774.91" x2="56.39" y2="772.64"/><line class="cls-5" x1="45.51" y1="791.5" x2="46.06" y2="790.96"/><line class="cls-5" x1="47.07" y1="789.94" x2="47.07" y2="789.94"/><line class="cls-5" x1="48.09" y1="789" x2="51.14" y2="785.95"/><line class="cls-5" x1="52.08" y1="784.93" x2="52.08" y2="784.93"/><line class="cls-5" x1="53.1" y1="783.91" x2="56.15" y2="780.94"/><line class="cls-5" x1="57.09" y1="779.92" x2="57.09" y2="779.92"/><line class="cls-5" x1="58.11" y1="778.9" x2="61.16" y2="775.93"/><line class="cls-5" x1="62.1" y1="774.91" x2="62.1" y2="774.91"/><line class="cls-5" x1="63.12" y1="773.89" x2="64.45" y2="772.64"/><line class="cls-5" x1="53.57" y1="791.5" x2="55.14" y2="789.94"/><line class="cls-5" x1="56.15" y1="789" x2="56.15" y2="789"/><line class="cls-5" x1="57.09" y1="787.98" x2="60.15" y2="784.93"/><line class="cls-5" x1="61.16" y1="783.91" x2="61.16" y2="783.91"/><line class="cls-5" x1="62.1" y1="782.97" x2="65.16" y2="779.92"/><line class="cls-5" x1="66.17" y1="778.9" x2="66.17" y2="778.9"/><line class="cls-5" x1="67.19" y1="777.96" x2="70.16" y2="774.91"/><line class="cls-5" x1="71.18" y1="773.89" x2="71.18" y2="773.89"/><line class="cls-5" x1="72.2" y1="772.88" x2="72.43" y2="772.64"/><line class="cls-5" x1="61.55" y1="791.5" x2="64.14" y2="789"/><line class="cls-5" x1="65.16" y1="787.98" x2="65.16" y2="787.98"/><line class="cls-5" x1="66.17" y1="786.96" x2="69.15" y2="783.91"/><line class="cls-5" x1="70.16" y1="782.97" x2="70.16" y2="782.97"/><line class="cls-5" x1="71.18" y1="781.96" x2="74.16" y2="778.9"/><line class="cls-5" x1="75.17" y1="777.96" x2="75.17" y2="777.96"/><line class="cls-5" x1="76.19" y1="776.95" x2="79.17" y2="773.89"/><line class="cls-5" x1="80.18" y1="772.88" x2="80.18" y2="772.88"/><line class="cls-5" x1="70.16" y1="790.96" x2="73.14" y2="787.98"/><line class="cls-5" x1="74.16" y1="786.96" x2="74.16" y2="786.96"/><line class="cls-5" x1="75.17" y1="785.95" x2="78.23" y2="782.97"/><line class="cls-5" x1="79.17" y1="781.96" x2="79.17" y2="781.96"/><line class="cls-5" x1="80.18" y1="780.94" x2="83.24" y2="777.96"/><line class="cls-5" x1="84.18" y1="776.95" x2="84.18" y2="776.95"/><line class="cls-5" x1="85.19" y1="775.93" x2="88.25" y2="772.88"/><line class="cls-5" x1="78.23" y1="790.96" x2="78.23" y2="790.96"/><line class="cls-5" x1="79.17" y1="789.94" x2="82.22" y2="786.96"/><line class="cls-5" x1="83.24" y1="785.95" x2="83.24" y2="785.95"/><line class="cls-5" x1="84.18" y1="784.93" x2="87.23" y2="781.96"/><line class="cls-5" x1="88.25" y1="780.94" x2="88.25" y2="780.94"/><line class="cls-5" x1="89.26" y1="779.92" x2="92.24" y2="776.95"/><line class="cls-5" x1="93.26" y1="775.93" x2="93.26" y2="775.93"/><line class="cls-5" x1="94.27" y1="774.91" x2="95.13" y2="774.05"/><line class="cls-5" x1="85.66" y1="791.5" x2="86.21" y2="790.96"/><line class="cls-5" x1="87.23" y1="789.94" x2="87.23" y2="789.94"/><line class="cls-5" x1="88.25" y1="789" x2="91.22" y2="785.95"/><line class="cls-5" x1="92.24" y1="784.93" x2="92.24" y2="784.93"/><line class="cls-5" x1="93.26" y1="783.91" x2="95.13" y2="782.11"/><line class="cls-5" x1="93.65" y1="791.5" x2="95.13" y2="790.1"/><polyline class="cls-5" points="95.13 791.5 95.13 772.64 0.5 772.64 0.5 791.5 95.13 791.5"/><polyline class="cls-6" points="156.59 362.62 156.59 253.85 247.29 253.85 247.29 362.62"/><line class="cls-6" x1="156.59" y1="290.18" x2="247.29" y2="290.18"/><line class="cls-6" x1="156.59" y1="362.62" x2="247.29" y2="362.62"/><line class="cls-6" x1="156.59" y1="326.5" x2="247.29" y2="326.5"/><text class="cls-7" transform="translate(186.18 316.29)">CT</text><text class="cls-7" transform="translate(168.43 353.27)">23.43</text><text class="cls-7" transform="translate(164.73 279.88)">№137</text><text class="cls-8" transform="translate(97.65 662.28)">4.84</text><text class="cls-8" transform="translate(255.29 627.13)">2.92</text><text class="cls-8" transform="translate(250.44 435.04)">2.20</text><text class="cls-8" transform="translate(174.11 197.63)">13.47</text></svg>