<svg id="_171" data-name="171" xmlns="http://www.w3.org/2000/svg" viewBox="0 0 407.94 762.3"><defs><style>.cls-1{isolation:isolate;font-size:12px;fill:#969696;}.cls-1,.cls-4,.cls-6{font-family:PTSans-Regular, PT Sans;}.cls-2{letter-spacing:-0.01em;}.cls-10,.cls-11,.cls-12,.cls-3,.cls-5,.cls-7,.cls-8,.cls-9{fill:none;stroke-linecap:round;stroke-linejoin:round;}.cls-3{stroke:#969696;}.cls-3,.cls-5{stroke-width:0.75px;}.cls-4{font-size:28px;}.cls-5{stroke:#000;}.cls-6{font-size:24px;}.cls-10,.cls-11,.cls-12,.cls-7,.cls-8,.cls-9{stroke:#505050;stroke-width:0.25px;}.cls-8{stroke-dasharray:3.05 3.05;}.cls-9{stroke-dasharray:3 3;}.cls-10{stroke-dasharray:1.96 1.96;}.cls-11{stroke-dasharray:2 2;}.cls-12{stroke-dasharray:3.06 3.06;}</style></defs><title>3floor_171flat</title><text class="cls-1" transform="translate(195.83 759.11)"><tspan class="cls-2">у</tspan><tspan x="5.42" y="0">лица</tspan></text><line class="cls-3" x1="185.07" y1="761.93" x2="185.07" y2="753.13"/><polyline class="cls-3" points="181.57 758.43 185.07 761.93 188.57 758.43"/><text class="cls-4" transform="translate(189.63 454.9)">CT</text><text class="cls-4" transform="translate(171.88 491.87)">25.76</text><text class="cls-4" transform="translate(168.18 418.48)">№171</text><polyline class="cls-5" points="160.04 501.22 160.04 392.45 250.75 392.45 250.75 501.22"/><line class="cls-5" x1="160.04" y1="428.78" x2="250.75" y2="428.78"/><line class="cls-5" x1="160.04" y1="501.22" x2="250.75" y2="501.22"/><line class="cls-5" x1="160.04" y1="465.1" x2="250.75" y2="465.1"/><text class="cls-6" transform="translate(93.71 129.66)">4.43</text><text class="cls-6" transform="translate(173.54 595.42)">15.72</text><text class="cls-6" transform="translate(254.93 342.39)">2.20</text><text class="cls-6" transform="translate(258.04 130.69)">3.41</text><line class="cls-7" x1="388.6" y1="367.4" x2="387.1" y2="367.4"/><line class="cls-8" x1="384.05" y1="367.4" x2="227.09" y2="367.4"/><polyline class="cls-7" points="225.56 367.4 224.06 367.4 224.06 365.9"/><line class="cls-9" x1="224.06" y1="362.9" x2="224.06" y2="262.23"/><line class="cls-7" x1="224.06" y1="260.73" x2="224.06" y2="259.23"/><line class="cls-7" x1="230.77" y1="91.04" x2="230.77" y2="92.04"/><line class="cls-10" x1="230.77" y1="94" x2="230.77" y2="151.76"/><line class="cls-7" x1="230.77" y1="152.74" x2="230.77" y2="153.74"/><line class="cls-7" x1="223.62" y1="91.04" x2="223.62" y2="92.04"/><line class="cls-10" x1="223.62" y1="94" x2="223.62" y2="151.76"/><line class="cls-7" x1="223.62" y1="152.74" x2="223.62" y2="153.74"/><line class="cls-7" x1="81.7" y1="194.75" x2="82.7" y2="194.75"/><line class="cls-11" x1="84.7" y1="194.75" x2="163.76" y2="194.75"/><line class="cls-7" x1="164.76" y1="194.75" x2="165.76" y2="194.75"/><line class="cls-7" x1="81.7" y1="201.98" x2="82.7" y2="201.98"/><line class="cls-11" x1="84.7" y1="201.98" x2="163.76" y2="201.98"/><line class="cls-7" x1="164.76" y1="201.98" x2="165.76" y2="201.98"/><line class="cls-5" x1="5.54" y1="670.16" x2="16.37" y2="659.33"/><line class="cls-5" x1="19.91" y1="670.16" x2="30.77" y2="659.33"/><line class="cls-5" x1="34.29" y1="670.16" x2="45.15" y2="659.33"/><line class="cls-5" x1="48.68" y1="670.16" x2="59.52" y2="659.33"/><line class="cls-5" x1="63.06" y1="670.16" x2="73.92" y2="659.33"/><line class="cls-5" x1="77.43" y1="670.16" x2="82.62" y2="665"/><line class="cls-5" x1="0.73" y1="670.16" x2="11.59" y2="659.33"/><line class="cls-5" x1="15.13" y1="670.16" x2="25.96" y2="659.33"/><line class="cls-5" x1="29.5" y1="670.16" x2="40.34" y2="659.33"/><line class="cls-5" x1="43.88" y1="670.16" x2="54.74" y2="659.33"/><line class="cls-5" x1="58.28" y1="670.16" x2="69.11" y2="659.33"/><line class="cls-5" x1="72.65" y1="670.16" x2="82.62" y2="660.19"/><line class="cls-5" x1="330.29" y1="661.79" x2="332.76" y2="659.33"/><line class="cls-5" x1="336.3" y1="670.16" x2="347.15" y2="659.33"/><line class="cls-5" x1="350.67" y1="670.16" x2="361.53" y2="659.33"/><line class="cls-5" x1="365.07" y1="670.16" x2="375.9" y2="659.33"/><line class="cls-5" x1="379.44" y1="670.16" x2="390.3" y2="659.33"/><line class="cls-5" x1="331.51" y1="670.16" x2="342.35" y2="659.33"/><line class="cls-5" x1="345.89" y1="670.16" x2="356.75" y2="659.33"/><line class="cls-5" x1="360.26" y1="670.16" x2="371.12" y2="659.33"/><line class="cls-5" x1="374.66" y1="670.16" x2="385.49" y2="659.33"/><line class="cls-5" x1="18.46" y1="623.38" x2="19.56" y2="622.26"/><line class="cls-5" x1="20.49" y1="658.42" x2="20.66" y2="658.23"/><line class="cls-5" x1="23.86" y1="655.05" x2="33.45" y2="645.46"/><line class="cls-5" x1="36.66" y1="642.25" x2="46.22" y2="632.66"/><line class="cls-5" x1="49.43" y1="629.48" x2="56.63" y2="622.26"/><line class="cls-5" x1="57.56" y1="658.42" x2="64.76" y2="651.2"/><line class="cls-5" x1="67.96" y1="648.02" x2="77.55" y2="638.43"/><line class="cls-5" x1="1.95" y1="658.42" x2="5.01" y2="655.36"/><line class="cls-5" x1="8.2" y1="652.15" x2="17.79" y2="642.59"/><line class="cls-5" x1="20.99" y1="639.38" x2="30.58" y2="629.79"/><line class="cls-5" x1="33.76" y1="626.59" x2="38.09" y2="622.26"/><line class="cls-5" x1="39.53" y1="657.92" x2="49.12" y2="648.33"/><line class="cls-5" x1="52.3" y1="645.15" x2="61.89" y2="635.56"/><line class="cls-5" x1="65.09" y1="632.35" x2="74.68" y2="622.76"/><line class="cls-5" x1="76.09" y1="658.42" x2="79.01" y2="655.5"/><line class="cls-5" x1="333.91" y1="641.56" x2="335.13" y2="640.34"/><line class="cls-5" x1="338.33" y1="637.13" x2="347.92" y2="627.57"/><line class="cls-5" x1="351.1" y1="624.36" x2="353.21" y2="622.26"/><line class="cls-5" x1="356.86" y1="655.67" x2="366.45" y2="646.1"/><line class="cls-5" x1="369.64" y1="642.9" x2="379.23" y2="633.31"/><line class="cls-5" x1="382.43" y1="630.1" x2="389.06" y2="623.5"/><line class="cls-5" x1="391.18" y1="658.42" x2="397.76" y2="651.84"/><line class="cls-5" x1="335.58" y1="658.42" x2="338.02" y2="656"/><line class="cls-5" x1="341.2" y1="652.8" x2="350.79" y2="643.21"/><line class="cls-5" x1="353.99" y1="640.03" x2="363.58" y2="630.44"/><line class="cls-5" x1="366.77" y1="627.23" x2="371.74" y2="622.26"/><line class="cls-5" x1="372.65" y1="658.42" x2="382.12" y2="648.97"/><line class="cls-5" x1="385.3" y1="645.77" x2="390.73" y2="640.34"/><line class="cls-5" x1="330.29" y1="659.33" x2="407.14" y2="659.33"/><line class="cls-5" x1="0.38" y1="659.33" x2="82.62" y2="659.33"/><line class="cls-5" x1="333.91" y1="658.42" x2="407.14" y2="658.42"/><line class="cls-5" x1="0.73" y1="658.42" x2="79.01" y2="658.42"/><line class="cls-5" x1="0.38" y1="659.33" x2="0.38" y2="658.42"/><line class="cls-5" x1="0.38" y1="670.16" x2="0.38" y2="659.33"/><line class="cls-5" x1="333.91" y1="652.99" x2="333.91" y2="622.26"/><line class="cls-5" x1="330.29" y1="659.33" x2="330.29" y2="658.42"/><line class="cls-5" x1="330.29" y1="670.16" x2="330.29" y2="659.33"/><line class="cls-5" x1="330.29" y1="658.42" x2="333.91" y2="658.42"/><line class="cls-5" x1="333.91" y1="658.42" x2="333.91" y2="652.99"/><line class="cls-5" x1="79.01" y1="652.99" x2="79.01" y2="622.26"/><line class="cls-5" x1="82.62" y1="659.33" x2="82.62" y2="658.42"/><line class="cls-5" x1="82.62" y1="670.16" x2="82.62" y2="659.33"/><line class="cls-5" x1="82.62" y1="658.42" x2="79.01" y2="658.42"/><line class="cls-5" x1="79.01" y1="658.42" x2="79.01" y2="652.99"/><line class="cls-5" x1="0.38" y1="670.16" x2="82.62" y2="670.16"/><polyline class="cls-5" points="330.29 670.16 407.14 670.16 407.14 623.31"/><line class="cls-5" x1="389.06" y1="622.26" x2="333.91" y2="622.26"/><line class="cls-5" x1="79.01" y1="622.26" x2="18.46" y2="622.26"/><polyline class="cls-5" points="0.38 670.16 0.38 659.33 0.38 633.33"/><line class="cls-5" x1="82.62" y1="670.16" x2="330.29" y2="670.16"/><line class="cls-5" x1="79.01" y1="622.26" x2="333.91" y2="622.26"/><polyline class="cls-5" points="79.01 652.99 83.98 652.99 83.98 655.26 86.23 655.26 86.23 658.42 79.01 658.42"/><polyline class="cls-5" points="165.18 658.42 161.57 658.42 161.57 655.26 163.82 655.26 163.82 652.99 165.18 652.99"/><line class="cls-5" x1="161.57" y1="658.42" x2="86.23" y2="658.42"/><polyline class="cls-5" points="83.98 649.83 89.41 649.83 158.41 649.83"/><polyline class="cls-5" points="89.41 649.83 89.41 655.26 83.98 655.26 83.98 649.83"/><polyline class="cls-5" points="163.82 655.26 158.41 655.26 158.41 649.83 163.82 649.83 163.82 655.26"/><line class="cls-5" x1="158.41" y1="655.26" x2="89.41" y2="655.26"/><line class="cls-5" x1="89.41" y1="649.83" x2="158.41" y2="649.83"/><line class="cls-5" x1="89.41" y1="652.54" x2="158.41" y2="652.54"/><polyline class="cls-5" points="165.18 652.99 166.54 652.99 166.54 655.26 168.79 655.26 168.79 658.42 165.18 658.42"/><polyline class="cls-5" points="247.74 658.42 244.13 658.42 244.13 655.26 246.37 655.26 246.37 652.99 247.74 652.99"/><line class="cls-5" x1="244.13" y1="658.42" x2="168.79" y2="658.42"/><polyline class="cls-5" points="166.54 649.83 171.97 649.83 240.97 649.83"/><polyline class="cls-5" points="171.97 649.83 171.97 655.26 166.54 655.26 166.54 649.83"/><polyline class="cls-5" points="246.37 655.26 240.97 655.26 240.97 649.83 246.37 649.83 246.37 655.26"/><line class="cls-5" x1="240.97" y1="655.26" x2="171.97" y2="655.26"/><line class="cls-5" x1="171.97" y1="649.83" x2="240.97" y2="649.83"/><line class="cls-5" x1="171.97" y1="652.54" x2="240.97" y2="652.54"/><polyline class="cls-5" points="247.74 652.99 249.1 652.99 249.1 655.26 251.35 655.26 251.35 658.42 247.74 658.42"/><polyline class="cls-5" points="333.9 658.42 326.68 658.42 326.68 655.26 328.93 655.26 328.93 652.99 333.9 652.99"/><line class="cls-5" x1="326.68" y1="658.42" x2="251.35" y2="658.42"/><polyline class="cls-5" points="249.1 649.83 254.53 649.83 323.53 649.83"/><polyline class="cls-5" points="254.53 649.83 254.53 655.26 249.1 655.26 249.1 649.83"/><polyline class="cls-5" points="328.93 655.26 323.53 655.26 323.53 649.83 328.93 649.83 328.93 655.26"/><line class="cls-5" x1="323.53" y1="655.26" x2="254.53" y2="655.26"/><line class="cls-5" x1="254.53" y1="649.83" x2="323.53" y2="649.83"/><line class="cls-5" x1="254.53" y1="652.54" x2="323.53" y2="652.54"/><polyline class="cls-5" points="79.01 652.99 79.01 658.42 79.01 652.99"/><polyline class="cls-5" points="79.01 658.42 82.62 658.42 79.01 658.42"/><polyline class="cls-5" points="82.62 670.16 82.62 659.33 82.62 658.42"/><line class="cls-5" x1="79.01" y1="652.99" x2="79.01" y2="622.26"/><polyline class="cls-5" points="333.9 652.99 333.9 658.42 333.9 652.99"/><polyline class="cls-5" points="333.9 658.42 330.29 658.42 333.9 658.42"/><polyline class="cls-5" points="330.29 670.16 330.29 659.33 330.29 658.42"/><line class="cls-5" x1="333.91" y1="652.99" x2="333.91" y2="622.26"/><line class="cls-5" x1="407.14" y1="245.75" x2="406.56" y2="245.18"/><line class="cls-5" x1="404.17" y1="242.79" x2="396.97" y2="235.59"/><line class="cls-5" x1="394.58" y1="233.2" x2="389.06" y2="227.67"/><line class="cls-5" x1="407.14" y1="220.19" x2="400.18" y2="213.23"/><line class="cls-5" x1="397.76" y1="210.83" x2="390.59" y2="203.64"/><line class="cls-5" x1="407.14" y1="194.62" x2="403.36" y2="190.84"/><line class="cls-5" x1="400.97" y1="188.45" x2="393.77" y2="181.25"/><line class="cls-5" x1="391.38" y1="178.86" x2="389.06" y2="176.54"/><line class="cls-5" x1="407.14" y1="169.05" x2="406.56" y2="168.48"/><line class="cls-5" x1="404.17" y1="166.09" x2="396.97" y2="158.89"/><line class="cls-5" x1="394.58" y1="156.5" x2="389.06" y2="150.97"/><line class="cls-5" x1="407.14" y1="143.49" x2="400.18" y2="136.53"/><line class="cls-5" x1="397.76" y1="134.11" x2="390.59" y2="126.94"/><line class="cls-5" x1="407.14" y1="117.92" x2="403.36" y2="114.14"/><line class="cls-5" x1="400.97" y1="111.75" x2="393.77" y2="104.55"/><line class="cls-5" x1="391.38" y1="102.16" x2="389.06" y2="99.84"/><line class="cls-5" x1="407.14" y1="92.36" x2="406.56" y2="91.78"/><line class="cls-5" x1="400.25" y1="251.66" x2="395.37" y2="246.78"/><line class="cls-5" x1="392.98" y1="244.39" x2="389.06" y2="240.44"/><line class="cls-5" x1="405.75" y1="231.59" x2="398.57" y2="224.39"/><line class="cls-5" x1="396.18" y1="222" x2="389.06" y2="214.88"/><line class="cls-5" x1="407.14" y1="207.39" x2="401.75" y2="202.03"/><line class="cls-5" x1="399.36" y1="199.64" x2="392.19" y2="192.44"/><line class="cls-5" x1="389.77" y1="190.05" x2="389.06" y2="189.31"/><line class="cls-5" x1="407.14" y1="181.82" x2="404.96" y2="179.67"/><line class="cls-5" x1="402.57" y1="177.26" x2="395.37" y2="170.08"/><line class="cls-5" x1="392.98" y1="167.69" x2="389.06" y2="163.74"/><line class="cls-5" x1="405.75" y1="154.9" x2="398.57" y2="147.7"/><line class="cls-5" x1="396.18" y1="145.3" x2="389.06" y2="138.18"/><line class="cls-5" x1="407.14" y1="130.69" x2="401.75" y2="125.34"/><line class="cls-5" x1="399.36" y1="122.94" x2="392.19" y2="115.75"/><line class="cls-5" x1="389.77" y1="113.35" x2="389.06" y2="112.61"/><line class="cls-5" x1="407.14" y1="105.13" x2="404.96" y2="102.97"/><line class="cls-5" x1="402.57" y1="100.56" x2="395.37" y2="93.38"/><line class="cls-5" x1="392.98" y1="90.97" x2="392.76" y2="90.75"/><line class="cls-5" x1="404.17" y1="549.58" x2="396.97" y2="542.38"/><line class="cls-5" x1="394.58" y1="539.99" x2="389.06" y2="534.46"/><line class="cls-5" x1="407.14" y1="526.98" x2="400.18" y2="520.02"/><line class="cls-5" x1="397.76" y1="517.63" x2="390.59" y2="510.43"/><line class="cls-5" x1="407.14" y1="501.41" x2="403.36" y2="497.66"/><line class="cls-5" x1="400.97" y1="495.24" x2="393.77" y2="488.07"/><line class="cls-5" x1="391.38" y1="485.65" x2="389.06" y2="483.33"/><line class="cls-5" x1="407.14" y1="475.85" x2="406.56" y2="475.27"/><line class="cls-5" x1="404.17" y1="472.88" x2="396.97" y2="465.68"/><line class="cls-5" x1="394.58" y1="463.29" x2="389.06" y2="457.77"/><line class="cls-5" x1="407.14" y1="450.28" x2="400.18" y2="443.32"/><line class="cls-5" x1="397.76" y1="440.93" x2="390.59" y2="433.73"/><line class="cls-5" x1="407.14" y1="424.71" x2="403.36" y2="420.96"/><line class="cls-5" x1="400.97" y1="418.54" x2="393.77" y2="411.37"/><line class="cls-5" x1="391.38" y1="408.95" x2="389.06" y2="406.63"/><line class="cls-5" x1="407.14" y1="399.15" x2="406.56" y2="398.57"/><line class="cls-5" x1="404.17" y1="396.18" x2="396.97" y2="388.98"/><line class="cls-5" x1="394.58" y1="386.59" x2="389.06" y2="381.07"/><line class="cls-5" x1="407.14" y1="373.58" x2="400.18" y2="366.62"/><line class="cls-5" x1="397.76" y1="364.23" x2="393.67" y2="360.14"/><line class="cls-5" x1="391.76" y1="549.96" x2="389.06" y2="547.26"/><line class="cls-5" x1="405.75" y1="538.39" x2="398.57" y2="531.21"/><line class="cls-5" x1="396.18" y1="528.8" x2="389.06" y2="521.69"/><line class="cls-5" x1="407.14" y1="514.21" x2="401.75" y2="508.83"/><line class="cls-5" x1="399.36" y1="506.43" x2="392.19" y2="499.24"/><line class="cls-5" x1="389.77" y1="496.84" x2="389.06" y2="496.13"/><line class="cls-5" x1="407.14" y1="488.64" x2="404.96" y2="486.46"/><line class="cls-5" x1="402.57" y1="484.07" x2="395.37" y2="476.87"/><line class="cls-5" x1="392.98" y1="474.48" x2="389.06" y2="470.56"/><line class="cls-5" x1="405.75" y1="461.69" x2="398.57" y2="454.51"/><line class="cls-5" x1="396.18" y1="452.1" x2="389.06" y2="444.99"/><line class="cls-5" x1="407.14" y1="437.51" x2="401.75" y2="432.13"/><line class="cls-5" x1="399.36" y1="429.74" x2="392.19" y2="422.54"/><line class="cls-5" x1="389.77" y1="420.15" x2="389.06" y2="419.43"/><line class="cls-5" x1="407.14" y1="411.92" x2="404.96" y2="409.77"/><line class="cls-5" x1="402.57" y1="407.37" x2="395.37" y2="400.18"/><line class="cls-5" x1="392.98" y1="397.78" x2="389.06" y2="393.86"/><line class="cls-5" x1="405.75" y1="384.99" x2="398.57" y2="377.81"/><line class="cls-5" x1="396.18" y1="375.4" x2="389.06" y2="368.3"/><line class="cls-5" x1="407.14" y1="360.79" x2="406.47" y2="360.14"/><line class="cls-5" x1="389.06" y1="90.75" x2="389.06" y2="251.66"/><line class="cls-5" x1="389.06" y1="360.14" x2="389.06" y2="549.96"/><line class="cls-5" x1="407.14" y1="549.96" x2="407.14" y2="360.14"/><line class="cls-5" x1="407.14" y1="251.66" x2="407.14" y2="90.75"/><line class="cls-5" x1="18.46" y1="547.35" x2="13.48" y2="542.38"/><line class="cls-5" x1="11.07" y1="539.99" x2="3.89" y2="532.79"/><line class="cls-5" x1="1.5" y1="530.4" x2="0.38" y2="529.27"/><line class="cls-5" x1="18.46" y1="521.79" x2="16.66" y2="520.02"/><line class="cls-5" x1="14.27" y1="517.63" x2="7.07" y2="510.43"/><line class="cls-5" x1="4.68" y1="508.04" x2="0.38" y2="503.71"/><line class="cls-5" x1="17.47" y1="495.24" x2="10.28" y2="488.07"/><line class="cls-5" x1="7.88" y1="485.65" x2="0.69" y2="478.48"/><line class="cls-5" x1="18.46" y1="470.66" x2="13.48" y2="465.68"/><line class="cls-5" x1="11.07" y1="463.29" x2="3.89" y2="456.09"/><line class="cls-5" x1="1.5" y1="453.7" x2="0.38" y2="452.58"/><line class="cls-5" x1="18.46" y1="445.09" x2="16.66" y2="443.32"/><line class="cls-5" x1="14.27" y1="440.93" x2="7.07" y2="433.73"/><line class="cls-5" x1="4.68" y1="431.34" x2="0.38" y2="427.01"/><line class="cls-5" x1="17.47" y1="418.54" x2="10.28" y2="411.37"/><line class="cls-5" x1="7.88" y1="408.95" x2="0.69" y2="401.78"/><line class="cls-5" x1="18.46" y1="393.96" x2="13.48" y2="388.98"/><line class="cls-5" x1="11.07" y1="386.59" x2="3.89" y2="379.39"/><line class="cls-5" x1="1.5" y1="377" x2="0.38" y2="375.88"/><line class="cls-5" x1="18.46" y1="368.39" x2="16.66" y2="366.62"/><line class="cls-5" x1="14.27" y1="364.23" x2="7.07" y2="357.03"/><line class="cls-5" x1="4.68" y1="354.64" x2="0.38" y2="350.31"/><line class="cls-5" x1="8.24" y1="549.96" x2="2.29" y2="543.98"/><line class="cls-5" x1="18.46" y1="534.58" x2="15.08" y2="531.21"/><line class="cls-5" x1="12.67" y1="528.8" x2="5.49" y2="521.62"/><line class="cls-5" x1="3.08" y1="519.23" x2="0.38" y2="516.5"/><line class="cls-5" x1="18.46" y1="509.02" x2="18.26" y2="508.83"/><line class="cls-5" x1="15.87" y1="506.43" x2="8.67" y2="499.24"/><line class="cls-5" x1="6.28" y1="496.84" x2="0.38" y2="490.94"/><line class="cls-5" x1="18.46" y1="483.45" x2="11.88" y2="476.87"/><line class="cls-5" x1="9.49" y1="474.48" x2="2.29" y2="467.28"/><line class="cls-5" x1="18.46" y1="457.89" x2="15.08" y2="454.51"/><line class="cls-5" x1="12.67" y1="452.1" x2="5.49" y2="444.92"/><line class="cls-5" x1="3.08" y1="442.53" x2="0.38" y2="439.8"/><line class="cls-5" x1="18.46" y1="432.32" x2="18.26" y2="432.13"/><line class="cls-5" x1="15.87" y1="429.74" x2="8.67" y2="422.54"/><line class="cls-5" x1="6.28" y1="420.15" x2="0.38" y2="414.24"/><line class="cls-5" x1="18.46" y1="406.75" x2="11.88" y2="400.18"/><line class="cls-5" x1="9.49" y1="397.78" x2="2.29" y2="390.59"/><line class="cls-5" x1="18.46" y1="381.19" x2="15.08" y2="377.81"/><line class="cls-5" x1="12.67" y1="375.4" x2="5.49" y2="368.22"/><line class="cls-5" x1="3.08" y1="365.81" x2="0.38" y2="363.11"/><line class="cls-5" x1="18.46" y1="355.62" x2="18.26" y2="355.43"/><line class="cls-5" x1="15.87" y1="353.04" x2="8.67" y2="345.84"/><line class="cls-5" x1="6.28" y1="343.45" x2="4.9" y2="342.06"/><line class="cls-5" x1="3.99" y1="251.66" x2="0.69" y2="248.38"/><line class="cls-5" x1="18.46" y1="240.56" x2="13.48" y2="235.59"/><line class="cls-5" x1="11.07" y1="233.2" x2="3.89" y2="226"/><line class="cls-5" x1="1.5" y1="223.61" x2="0.38" y2="222.48"/><line class="cls-5" x1="18.46" y1="215" x2="16.66" y2="213.23"/><line class="cls-5" x1="14.27" y1="210.83" x2="7.07" y2="203.64"/><line class="cls-5" x1="4.68" y1="201.24" x2="0.38" y2="196.92"/><line class="cls-5" x1="17.47" y1="188.45" x2="10.28" y2="181.25"/><line class="cls-5" x1="7.88" y1="178.86" x2="0.69" y2="171.68"/><line class="cls-5" x1="18.46" y1="163.86" x2="13.48" y2="158.89"/><line class="cls-5" x1="11.07" y1="156.5" x2="3.89" y2="149.3"/><line class="cls-5" x1="1.5" y1="146.91" x2="0.38" y2="145.78"/><line class="cls-5" x1="18.46" y1="138.3" x2="16.66" y2="136.53"/><line class="cls-5" x1="14.27" y1="134.11" x2="7.07" y2="126.94"/><line class="cls-5" x1="4.68" y1="124.55" x2="0.38" y2="120.22"/><line class="cls-5" x1="17.47" y1="111.75" x2="10.28" y2="104.55"/><line class="cls-5" x1="7.88" y1="102.16" x2="0.69" y2="94.99"/><line class="cls-5" x1="16.76" y1="251.66" x2="11.88" y2="246.78"/><line class="cls-5" x1="9.49" y1="244.39" x2="2.29" y2="237.19"/><line class="cls-5" x1="18.46" y1="227.79" x2="15.08" y2="224.39"/><line class="cls-5" x1="12.67" y1="222" x2="5.49" y2="214.83"/><line class="cls-5" x1="3.08" y1="212.41" x2="0.38" y2="209.71"/><line class="cls-5" x1="18.46" y1="202.22" x2="18.26" y2="202.03"/><line class="cls-5" x1="15.87" y1="199.64" x2="8.67" y2="192.44"/><line class="cls-5" x1="6.28" y1="190.05" x2="0.38" y2="184.14"/><line class="cls-5" x1="18.46" y1="176.66" x2="11.88" y2="170.08"/><line class="cls-5" x1="9.49" y1="167.69" x2="2.29" y2="160.49"/><line class="cls-5" x1="18.46" y1="151.07" x2="15.08" y2="147.7"/><line class="cls-5" x1="12.67" y1="145.3" x2="5.49" y2="138.11"/><line class="cls-5" x1="3.08" y1="135.71" x2="0.38" y2="133.01"/><line class="cls-5" x1="18.46" y1="125.5" x2="18.26" y2="125.34"/><line class="cls-5" x1="15.87" y1="122.94" x2="8.67" y2="115.75"/><line class="cls-5" x1="6.28" y1="113.35" x2="0.38" y2="107.45"/><line class="cls-5" x1="18.46" y1="99.94" x2="11.88" y2="93.38"/><line class="cls-5" x1="9.49" y1="90.97" x2="9.27" y2="90.75"/><line class="cls-5" x1="18.46" y1="549.96" x2="18.46" y2="342.06"/><line class="cls-5" x1="18.46" y1="251.66" x2="18.46" y2="90.75"/><line class="cls-5" x1="0.38" y1="90.75" x2="0.38" y2="251.66"/><line class="cls-5" x1="0.38" y1="342.06" x2="0.38" y2="549.96"/><line class="cls-5" x1="336.63" y1="208.06" x2="342.73" y2="201.94"/><line class="cls-5" x1="336.63" y1="214.45" x2="343.85" y2="207.22"/><line class="cls-5" x1="336.63" y1="220.83" x2="343.85" y2="213.61"/><line class="cls-5" x1="336.63" y1="227.22" x2="343.85" y2="219.99"/><line class="cls-5" x1="336.63" y1="233.63" x2="343.85" y2="226.38"/><line class="cls-5" x1="336.63" y1="240.01" x2="343.85" y2="232.79"/><line class="cls-5" x1="336.63" y1="246.4" x2="343.85" y2="239.17"/><line class="cls-5" x1="337.76" y1="251.66" x2="343.85" y2="245.56"/><line class="cls-5" x1="336.63" y1="201.94" x2="336.63" y2="251.66"/><line class="cls-5" x1="343.85" y1="251.66" x2="343.85" y2="201.94"/><line class="cls-5" x1="223.63" y1="257.14" x2="229.11" y2="251.66"/><line class="cls-5" x1="223.63" y1="20.63" x2="225.83" y2="18.46"/><line class="cls-5" x1="223.63" y1="27.02" x2="230.88" y2="19.79"/><line class="cls-5" x1="223.63" y1="33.43" x2="230.88" y2="26.18"/><line class="cls-5" x1="223.63" y1="39.81" x2="230.88" y2="32.59"/><line class="cls-5" x1="223.63" y1="46.2" x2="230.88" y2="38.98"/><line class="cls-5" x1="223.63" y1="52.58" x2="230.88" y2="45.36"/><line class="cls-5" x1="223.63" y1="58.99" x2="230.88" y2="51.75"/><line class="cls-5" x1="223.63" y1="65.38" x2="230.88" y2="58.16"/><line class="cls-5" x1="223.63" y1="71.76" x2="230.88" y2="64.54"/><line class="cls-5" x1="223.63" y1="78.15" x2="230.88" y2="70.93"/><line class="cls-5" x1="223.63" y1="84.56" x2="230.88" y2="77.31"/><line class="cls-5" x1="223.82" y1="90.75" x2="230.88" y2="83.72"/><line class="cls-5" x1="230.21" y1="90.75" x2="230.88" y2="90.11"/><line class="cls-5" x1="223.63" y1="154.87" x2="224.47" y2="154.03"/><line class="cls-5" x1="223.63" y1="161.26" x2="230.85" y2="154.03"/><line class="cls-5" x1="223.63" y1="167.64" x2="230.88" y2="160.42"/><line class="cls-5" x1="223.63" y1="174.03" x2="230.88" y2="166.81"/><line class="cls-5" x1="223.63" y1="180.44" x2="230.88" y2="173.19"/><line class="cls-5" x1="223.63" y1="186.82" x2="230.88" y2="179.58"/><line class="cls-5" x1="223.63" y1="193.21" x2="230.88" y2="185.99"/><line class="cls-5" x1="223.63" y1="199.59" x2="230.88" y2="192.37"/><line class="cls-5" x1="223.63" y1="206" x2="230.88" y2="198.76"/><line class="cls-5" x1="223.63" y1="212.39" x2="230.88" y2="205.14"/><line class="cls-5" x1="223.63" y1="218.77" x2="230.88" y2="211.55"/><line class="cls-5" x1="223.63" y1="225.16" x2="230.88" y2="217.94"/><line class="cls-5" x1="223.63" y1="231.57" x2="230.88" y2="224.32"/><line class="cls-5" x1="223.63" y1="237.96" x2="230.88" y2="230.71"/><line class="cls-5" x1="223.63" y1="244.34" x2="230.88" y2="237.12"/><line class="cls-5" x1="223.63" y1="250.73" x2="230.88" y2="243.5"/><line class="cls-5" x1="229.11" y1="251.66" x2="230.88" y2="249.89"/><line class="cls-5" x1="230.88" y1="90.75" x2="223.63" y2="90.75"/><line class="cls-5" x1="230.88" y1="154.03" x2="223.63" y2="154.03"/><line class="cls-5" x1="230.88" y1="251.66" x2="230.88" y2="201.94"/><line class="cls-5" x1="230.88" y1="194.72" x2="230.88" y2="154.03"/><polyline class="cls-5" points="230.88 90.75 230.88 18.45 223.63 18.45 223.63 90.75"/><line class="cls-5" x1="223.63" y1="154.03" x2="223.63" y2="258.88"/><line class="cls-5" x1="18.46" y1="200.26" x2="23.98" y2="194.72"/><line class="cls-5" x1="29.55" y1="201.94" x2="36.77" y2="194.72"/><line class="cls-5" x1="42.32" y1="201.94" x2="49.55" y2="194.72"/><line class="cls-5" x1="55.12" y1="201.94" x2="62.34" y2="194.72"/><line class="cls-5" x1="67.89" y1="201.94" x2="75.11" y2="194.72"/><line class="cls-5" x1="80.68" y1="201.94" x2="81.71" y2="200.91"/><line class="cls-5" x1="163.07" y1="196.25" x2="164.61" y2="194.72"/><line class="cls-5" x1="170.15" y1="201.94" x2="177.4" y2="194.72"/><line class="cls-5" x1="182.95" y1="201.94" x2="190.17" y2="194.72"/><line class="cls-5" x1="195.72" y1="201.94" x2="202.97" y2="194.72"/><line class="cls-5" x1="208.51" y1="201.94" x2="215.74" y2="194.72"/><line class="cls-5" x1="221.29" y1="201.94" x2="223.63" y2="199.59"/><line class="cls-5" x1="81.71" y1="201.94" x2="81.71" y2="194.72"/><line class="cls-5" x1="163.07" y1="201.94" x2="163.07" y2="194.72"/><line class="cls-5" x1="18.46" y1="201.94" x2="81.71" y2="201.94"/><polyline class="cls-5" points="163.07 201.94 223.63 201.94 223.63 194.72 163.07 194.72"/><polyline class="cls-5" points="81.71 194.72 18.45 194.72 18.45 201.94"/><line class="cls-5" x1="230.88" y1="198.76" x2="234.92" y2="194.72"/><line class="cls-5" x1="234.08" y1="201.94" x2="241.3" y2="194.72"/><line class="cls-5" x1="240.47" y1="201.94" x2="247.69" y2="194.72"/><line class="cls-5" x1="246.85" y1="201.94" x2="254.1" y2="194.72"/><line class="cls-5" x1="253.24" y1="201.94" x2="260.48" y2="194.72"/><line class="cls-5" x1="259.65" y1="201.94" x2="266.87" y2="194.72"/><line class="cls-5" x1="266.03" y1="201.94" x2="273.25" y2="194.72"/><line class="cls-5" x1="272.42" y1="201.94" x2="279.66" y2="194.72"/><line class="cls-5" x1="278.83" y1="201.94" x2="286.05" y2="194.72"/><line class="cls-5" x1="285.21" y1="201.94" x2="292.44" y2="194.72"/><line class="cls-5" x1="291.6" y1="201.94" x2="298.82" y2="194.72"/><line class="cls-5" x1="297.98" y1="201.94" x2="305.23" y2="194.72"/><line class="cls-5" x1="304.39" y1="201.94" x2="311.62" y2="194.72"/><line class="cls-5" x1="310.78" y1="201.94" x2="318" y2="194.72"/><line class="cls-5" x1="317.16" y1="201.94" x2="324.39" y2="194.72"/><line class="cls-5" x1="323.55" y1="201.94" x2="330.8" y2="194.72"/><line class="cls-5" x1="329.96" y1="201.94" x2="337.18" y2="194.72"/><line class="cls-5" x1="336.34" y1="201.94" x2="343.57" y2="194.72"/><line class="cls-5" x1="342.73" y1="201.94" x2="348.37" y2="196.29"/><line class="cls-5" x1="384.54" y1="198.49" x2="388.31" y2="194.72"/><line class="cls-5" x1="387.48" y1="201.94" x2="389.06" y2="200.36"/><polyline class="cls-5" points="384.54 194.72 384.54 198.33 384.54 201.94"/><polyline class="cls-5" points="348.38 194.72 348.38 198.33 348.38 201.94"/><line class="cls-5" x1="389.06" y1="194.72" x2="384.54" y2="194.72"/><line class="cls-5" x1="348.37" y1="194.72" x2="230.88" y2="194.72"/><line class="cls-5" x1="230.88" y1="201.94" x2="336.63" y2="201.94"/><line class="cls-5" x1="343.85" y1="201.94" x2="348.37" y2="201.94"/><polyline class="cls-5" points="384.54 201.94 389.06 201.94 389.06 194.72"/><line class="cls-5" x1="348.37" y1="194.72" x2="384.54" y2="194.72"/><line class="cls-5" x1="348.37" y1="201.94" x2="384.54" y2="201.94"/><path class="cls-5" d="M349.74,182a36.26,36.26,0,0,0-2.18,12.37" transform="translate(0.84 0.38)"/><line class="cls-5" x1="384.54" y1="194.72" x2="350.55" y2="182.35"/><polyline class="cls-5" points="348.38 201.94 348.38 198.33 348.38 194.72 348.38 198.33"/><polyline class="cls-5" points="384.54 201.94 384.54 198.33 384.54 194.72 384.54 198.33"/><line class="cls-5" x1="228.27" y1="258.88" x2="230.88" y2="256.27"/><line class="cls-5" x1="230.88" y1="256.27" x2="235.49" y2="251.66"/><line class="cls-5" x1="234.65" y1="258.88" x2="241.88" y2="251.66"/><line class="cls-5" x1="241.04" y1="258.88" x2="248.29" y2="251.66"/><line class="cls-5" x1="247.43" y1="258.88" x2="254.67" y2="251.66"/><line class="cls-5" x1="253.84" y1="258.88" x2="261.06" y2="251.66"/><line class="cls-5" x1="260.22" y1="258.88" x2="267.44" y2="251.66"/><line class="cls-5" x1="266.61" y1="258.88" x2="273.85" y2="251.66"/><line class="cls-5" x1="272.99" y1="258.88" x2="280.24" y2="251.66"/><line class="cls-5" x1="279.4" y1="258.88" x2="286.62" y2="251.66"/><line class="cls-5" x1="285.79" y1="258.88" x2="293.01" y2="251.66"/><line class="cls-5" x1="292.17" y1="258.88" x2="299.42" y2="251.66"/><line class="cls-5" x1="298.56" y1="258.88" x2="305.8" y2="251.66"/><line class="cls-5" x1="304.97" y1="258.88" x2="312.19" y2="251.66"/><line class="cls-5" x1="311.35" y1="258.88" x2="318.58" y2="251.66"/><line class="cls-5" x1="317.74" y1="258.88" x2="324.98" y2="251.66"/><line class="cls-5" x1="324.12" y1="258.88" x2="331.37" y2="251.66"/><line class="cls-5" x1="330.53" y1="258.88" x2="337.76" y2="251.66"/><line class="cls-5" x1="336.92" y1="258.88" x2="344.14" y2="251.66"/><line class="cls-5" x1="343.3" y1="258.88" x2="350.55" y2="251.66"/><line class="cls-5" x1="349.69" y1="258.88" x2="356.94" y2="251.66"/><line class="cls-5" x1="356.1" y1="258.88" x2="363.32" y2="251.66"/><line class="cls-5" x1="362.48" y1="258.88" x2="369.71" y2="251.66"/><line class="cls-5" x1="368.87" y1="258.88" x2="376.12" y2="251.66"/><line class="cls-5" x1="375.26" y1="258.88" x2="382.5" y2="251.66"/><line class="cls-5" x1="381.67" y1="258.88" x2="388.89" y2="251.66"/><line class="cls-5" x1="388.05" y1="258.88" x2="389.06" y2="257.9"/><polyline class="cls-5" points="223.63 258.88 230.88 258.88 389.06 258.88"/><line class="cls-5" x1="389.06" y1="251.66" x2="343.85" y2="251.66"/><line class="cls-5" x1="336.63" y1="251.66" x2="230.88" y2="251.66"/><line class="cls-5" x1="407.14" y1="195.07" x2="407.49" y2="194.72"/><line class="cls-5" x1="26.44" y1="18.46" x2="23.07" y2="15.08"/><line class="cls-5" x1="20.66" y1="12.69" x2="18.46" y2="10.47"/><line class="cls-5" x1="52.01" y1="18.46" x2="45.43" y2="11.88"/><line class="cls-5" x1="43.04" y1="9.49" x2="35.84" y2="2.29"/><line class="cls-5" x1="77.58" y1="18.46" x2="77.38" y2="18.26"/><line class="cls-5" x1="74.99" y1="15.87" x2="67.79" y2="8.7"/><line class="cls-5" x1="65.4" y1="6.28" x2="59.5" y2="0.38"/><line class="cls-5" x1="90.75" y1="6.07" x2="90.18" y2="5.49"/><line class="cls-5" x1="87.79" y1="3.1" x2="85.06" y2="0.38"/><line class="cls-5" x1="39.21" y1="18.46" x2="34.24" y2="13.48"/><line class="cls-5" x1="31.85" y1="11.09" x2="24.65" y2="3.89"/><line class="cls-5" x1="22.26" y1="1.5" x2="21.13" y2="0.38"/><line class="cls-5" x1="63.8" y1="17.47" x2="56.63" y2="10.28"/><line class="cls-5" x1="54.21" y1="7.88" x2="47.03" y2="0.71"/><line class="cls-5" x1="90.35" y1="18.46" x2="88.58" y2="16.69"/><line class="cls-5" x1="86.19" y1="14.27" x2="78.99" y2="7.1"/><line class="cls-5" x1="76.59" y1="4.7" x2="72.27" y2="0.38"/><line class="cls-5" x1="205.41" y1="18.46" x2="198.83" y2="11.88"/><line class="cls-5" x1="196.44" y1="9.49" x2="189.24" y2="2.29"/><line class="cls-5" x1="230.97" y1="18.46" x2="230.78" y2="18.26"/><line class="cls-5" x1="228.39" y1="15.87" x2="221.19" y2="8.7"/><line class="cls-5" x1="218.8" y1="6.28" x2="212.89" y2="0.38"/><line class="cls-5" x1="256.54" y1="18.46" x2="253.17" y2="15.08"/><line class="cls-5" x1="250.77" y1="12.69" x2="243.58" y2="5.49"/><line class="cls-5" x1="241.18" y1="3.1" x2="238.46" y2="0.38"/><line class="cls-5" x1="282.1" y1="18.46" x2="275.53" y2="11.88"/><line class="cls-5" x1="273.14" y1="9.49" x2="265.94" y2="2.29"/><line class="cls-5" x1="307.67" y1="18.46" x2="307.48" y2="18.26"/><line class="cls-5" x1="305.09" y1="15.87" x2="297.91" y2="8.7"/><line class="cls-5" x1="295.5" y1="6.28" x2="289.59" y2="0.38"/><line class="cls-5" x1="333.24" y1="18.46" x2="329.86" y2="15.08"/><line class="cls-5" x1="327.47" y1="12.69" x2="320.27" y2="5.49"/><line class="cls-5" x1="317.88" y1="3.1" x2="315.16" y2="0.38"/><line class="cls-5" x1="358.8" y1="18.46" x2="352.22" y2="11.88"/><line class="cls-5" x1="349.83" y1="9.49" x2="342.63" y2="2.29"/><line class="cls-5" x1="384.37" y1="18.46" x2="384.18" y2="18.26"/><line class="cls-5" x1="381.78" y1="15.87" x2="374.61" y2="8.7"/><line class="cls-5" x1="372.19" y1="6.28" x2="366.29" y2="0.38"/><line class="cls-5" x1="192.61" y1="18.46" x2="187.64" y2="13.48"/><line class="cls-5" x1="185.24" y1="11.09" x2="181.15" y2="6.98"/><line class="cls-5" x1="217.2" y1="17.47" x2="210.02" y2="10.28"/><line class="cls-5" x1="207.63" y1="7.88" x2="200.43" y2="0.71"/><line class="cls-5" x1="243.74" y1="18.46" x2="241.97" y2="16.69"/><line class="cls-5" x1="239.58" y1="14.27" x2="232.38" y2="7.1"/><line class="cls-5" x1="229.99" y1="4.7" x2="225.66" y2="0.38"/><line class="cls-5" x1="269.31" y1="18.46" x2="264.33" y2="13.48"/><line class="cls-5" x1="261.94" y1="11.09" x2="254.77" y2="3.89"/><line class="cls-5" x1="252.35" y1="1.5" x2="251.23" y2="0.38"/><line class="cls-5" x1="293.89" y1="17.47" x2="286.72" y2="10.28"/><line class="cls-5" x1="284.33" y1="7.88" x2="277.13" y2="0.71"/><line class="cls-5" x1="320.44" y1="18.46" x2="318.67" y2="16.69"/><line class="cls-5" x1="316.28" y1="14.27" x2="309.08" y2="7.1"/><line class="cls-5" x1="306.69" y1="4.7" x2="302.36" y2="0.38"/><line class="cls-5" x1="346.01" y1="18.46" x2="341.03" y2="13.48"/><line class="cls-5" x1="338.64" y1="11.09" x2="331.47" y2="3.89"/><line class="cls-5" x1="329.05" y1="1.5" x2="327.93" y2="0.38"/><line class="cls-5" x1="370.62" y1="17.47" x2="363.42" y2="10.28"/><line class="cls-5" x1="361.03" y1="7.88" x2="353.83" y2="0.71"/><line class="cls-5" x1="389.06" y1="10.35" x2="385.78" y2="7.1"/><line class="cls-5" x1="383.39" y1="4.7" x2="379.06" y2="0.38"/><polyline class="cls-5" points="90.75 0.38 90.75 7.6 90.75 18.45"/><polyline class="cls-5" points="181.16 0.38 181.16 7.6 181.16 18.45"/><line class="cls-5" x1="389.06" y1="0.38" x2="181.15" y2="0.38"/><line class="cls-5" x1="90.75" y1="0.38" x2="18.46" y2="0.38"/><line class="cls-5" x1="18.46" y1="18.46" x2="90.75" y2="18.46"/><line class="cls-5" x1="181.15" y1="18.46" x2="389.06" y2="18.46"/><line class="cls-5" x1="181.15" y1="0.38" x2="180.89" y2="0.38"/><line class="cls-5" x1="180.84" y1="0.38" x2="180.82" y2="0.38"/><line class="cls-5" x1="180.75" y1="0.38" x2="180.72" y2="0.38"/><line class="cls-5" x1="180.65" y1="0.38" x2="180.39" y2="0.38"/><line class="cls-5" x1="180.32" y1="0.38" x2="180.29" y2="0.38"/><line class="cls-5" x1="180.22" y1="0.38" x2="180.2" y2="0.38"/><line class="cls-5" x1="180.15" y1="0.38" x2="179.86" y2="0.38"/><line class="cls-5" x1="179.82" y1="0.38" x2="179.79" y2="0.38"/><line class="cls-5" x1="179.72" y1="0.38" x2="179.7" y2="0.38"/><line class="cls-5" x1="179.62" y1="0.38" x2="179.36" y2="0.38"/><line class="cls-5" x1="179.29" y1="0.38" x2="179.27" y2="0.38"/><line class="cls-5" x1="179.19" y1="0.38" x2="179.17" y2="0.38"/><line class="cls-5" x1="179.12" y1="0.38" x2="178.84" y2="0.38"/><line class="cls-5" x1="178.79" y1="0.38" x2="178.74" y2="0.38"/><line class="cls-5" x1="178.69" y1="0.38" x2="178.67" y2="0.38"/><line class="cls-5" x1="178.6" y1="0.38" x2="178.33" y2="0.38"/><line class="cls-5" x1="178.26" y1="0.38" x2="178.24" y2="0.38"/><line class="cls-5" x1="178.17" y1="0.38" x2="178.14" y2="0.38"/><line class="cls-5" x1="178.09" y1="0.38" x2="177.81" y2="0.38"/><line class="cls-5" x1="177.76" y1="0.38" x2="177.71" y2="0.38"/><line class="cls-5" x1="177.66" y1="0.38" x2="177.64" y2="0.38"/><line class="cls-5" x1="177.57" y1="0.38" x2="177.3" y2="0.38"/><line class="cls-5" x1="177.23" y1="0.38" x2="177.21" y2="0.38"/><line class="cls-5" x1="94.27" y1="0.38" x2="94.24" y2="0.38"/><line class="cls-5" x1="94.2" y1="0.38" x2="94.17" y2="0.38"/><line class="cls-5" x1="94.1" y1="0.38" x2="93.84" y2="0.38"/><line class="cls-5" x1="93.77" y1="0.38" x2="93.74" y2="0.38"/><line class="cls-5" x1="93.67" y1="0.38" x2="93.65" y2="0.38"/><line class="cls-5" x1="93.58" y1="0.38" x2="93.31" y2="0.38"/><line class="cls-5" x1="93.24" y1="0.38" x2="93.22" y2="0.38"/><line class="cls-5" x1="93.17" y1="0.38" x2="93.12" y2="0.38"/><line class="cls-5" x1="93.07" y1="0.38" x2="92.81" y2="0.38"/><line class="cls-5" x1="92.74" y1="0.38" x2="92.71" y2="0.38"/><line class="cls-5" x1="92.64" y1="0.38" x2="92.62" y2="0.38"/><line class="cls-5" x1="92.55" y1="0.38" x2="92.28" y2="0.38"/><line class="cls-5" x1="92.21" y1="0.38" x2="92.19" y2="0.38"/><line class="cls-5" x1="92.14" y1="0.38" x2="92.09" y2="0.38"/><line class="cls-5" x1="92.04" y1="0.38" x2="91.76" y2="0.38"/><line class="cls-5" x1="91.71" y1="0.38" x2="91.69" y2="0.38"/><line class="cls-5" x1="91.61" y1="0.38" x2="91.59" y2="0.38"/><line class="cls-5" x1="91.52" y1="0.38" x2="91.26" y2="0.38"/><line class="cls-5" x1="91.18" y1="0.38" x2="91.16" y2="0.38"/><line class="cls-5" x1="91.09" y1="0.38" x2="91.06" y2="0.38"/><line class="cls-5" x1="91.02" y1="0.38" x2="90.75" y2="0.38"/><line class="cls-5" x1="91.18" y1="18.46" x2="91.16" y2="18.46"/><line class="cls-5" x1="91.09" y1="18.46" x2="91.06" y2="18.46"/><line class="cls-5" x1="91.02" y1="18.46" x2="90.75" y2="18.46"/><path class="cls-5" d="M93.54,90.38A83.17,83.17,0,0,0,176.71,7.21" transform="translate(0.84 0.38)"/><polyline class="cls-5" points="181.16 0.38 177.54 0.38 177.54 7.6 181.16 7.6 181.16 0.38"/><polyline class="cls-5" points="90.75 7.6 94.36 7.6 94.36 0.38 90.75 0.38 90.75 7.6"/><line class="cls-5" x1="94.36" y1="7.6" x2="94.36" y2="90.75"/><polyline class="cls-5" points="181.16 18.45 181.16 7.6 181.16 0.38 181.16 7.6"/><polyline class="cls-5" points="90.75 18.45 90.75 7.6 90.75 0.38 90.75 7.6"/><line class="cls-5" x1="375.14" y1="169.84" x2="343.23" y2="169.84"/><line class="cls-5" x1="389.06" y1="171.21" x2="389.06" y2="136.86"/><line class="cls-5" x1="389.06" y1="171.21" x2="377.07" y2="171.21"/><line class="cls-5" x1="369.54" y1="154.03" x2="369.54" y2="141.31"/><line class="cls-5" x1="343.28" y1="169.84" x2="369.54" y2="166.78"/><line class="cls-5" x1="369.54" y1="154.03" x2="369.54" y2="166.78"/><line class="cls-5" x1="343.28" y1="138.23" x2="369.54" y2="141.31"/><line class="cls-5" x1="343.28" y1="169.05" x2="369.54" y2="165.97"/><line class="cls-5" x1="343.28" y1="139.04" x2="369.54" y2="142.1"/><line class="cls-5" x1="375.16" y1="138.23" x2="343.23" y2="138.23"/><line class="cls-5" x1="389.06" y1="136.86" x2="377.07" y2="136.86"/><line class="cls-5" x1="343.28" y1="169.84" x2="339.74" y2="169.41"/><line class="cls-5" x1="339.74" y1="169.41" x2="336.42" y2="168.05"/><line class="cls-5" x1="336.42" y1="168.05" x2="333.47" y2="165.9"/><line class="cls-5" x1="333.47" y1="165.9" x2="331.11" y2="163.03"/><line class="cls-5" x1="331.11" y1="163.03" x2="329.46" y2="159.65"/><line class="cls-5" x1="329.46" y1="159.65" x2="328.6" y2="155.95"/><line class="cls-5" x1="328.6" y1="155.95" x2="328.6" y2="152.12"/><line class="cls-5" x1="328.6" y1="152.12" x2="329.46" y2="148.41"/><line class="cls-5" x1="329.46" y1="148.41" x2="331.11" y2="145.04"/><line class="cls-5" x1="331.11" y1="145.04" x2="333.47" y2="142.2"/><line class="cls-5" x1="333.47" y1="142.2" x2="336.42" y2="140.02"/><line class="cls-5" x1="336.42" y1="140.02" x2="339.74" y2="138.68"/><line class="cls-5" x1="339.74" y1="138.68" x2="343.28" y2="138.23"/><line class="cls-5" x1="343.28" y1="169.05" x2="339.93" y2="168.6"/><line class="cls-5" x1="339.93" y1="168.6" x2="336.8" y2="167.33"/><line class="cls-5" x1="336.8" y1="167.33" x2="334.03" y2="165.27"/><line class="cls-5" x1="334.03" y1="165.27" x2="331.78" y2="162.57"/><line class="cls-5" x1="331.78" y1="162.57" x2="330.22" y2="159.37"/><line class="cls-5" x1="330.22" y1="159.37" x2="329.41" y2="155.85"/><line class="cls-5" x1="329.41" y1="155.85" x2="329.41" y2="152.24"/><line class="cls-5" x1="329.41" y1="152.24" x2="330.22" y2="148.72"/><line class="cls-5" x1="330.22" y1="148.72" x2="331.78" y2="145.52"/><line class="cls-5" x1="331.78" y1="145.52" x2="334.03" y2="142.79"/><line class="cls-5" x1="334.03" y1="142.79" x2="336.8" y2="140.76"/><line class="cls-5" x1="336.8" y1="140.76" x2="339.93" y2="139.47"/><line class="cls-5" x1="339.93" y1="139.47" x2="343.28" y2="139.04"/><path class="cls-5" d="M374.26,138.26a145.37,145.37,0,0,0,0,30.79" transform="translate(0.84 0.38)"/><path class="cls-5" d="M374.24,169.05a2,2,0,0,0,2,1.78" transform="translate(0.84 0.38)"/><path class="cls-5" d="M376.25,136.46a2,2,0,0,0-2,1.8" transform="translate(0.84 0.38)"/><path class="cls-5" d="M382.36,153.65a1.69,1.69,0,1,0-1.69,1.66,1.68,1.68,0,0,0,1.69-1.66" transform="translate(0.84 0.38)"/><line class="cls-5" x1="246.4" y1="194.72" x2="295.19" y2="194.72"/><line class="cls-5" x1="295.19" y1="194.72" x2="295.19" y2="174.05"/><line class="cls-5" x1="246.4" y1="194.72" x2="246.4" y2="174.05"/><line class="cls-5" x1="278.47" y1="194.72" x2="263.09" y2="194.72"/><line class="cls-5" x1="274.88" y1="178.14" x2="272.3" y2="178.14"/><line class="cls-5" x1="270.79" y1="182.26" x2="270.79" y2="179.65"/><line class="cls-5" x1="269.28" y1="178.14" x2="266.68" y2="178.14"/><line class="cls-5" x1="270.79" y1="176.63" x2="270.79" y2="174.03"/><path class="cls-5" d="M248.56,172.4A21.74,21.74,0,0,0,257,182.68" transform="translate(0.84 0.38)"/><path class="cls-5" d="M257,182.68a21.7,21.7,0,0,0,13,3" transform="translate(0.84 0.38)"/><path class="cls-5" d="M282.94,182.68a21.78,21.78,0,0,0,8.43-10.28" transform="translate(0.84 0.38)"/><path class="cls-5" d="M270,185.73a21.67,21.67,0,0,0,13-3" transform="translate(0.84 0.38)"/><path class="cls-5" d="M268.27,157.33a40.23,40.23,0,0,0-14.82,4" transform="translate(0.84 0.38)"/><path class="cls-5" d="M294.39,173.67a12.43,12.43,0,0,0-4.64-10.22" transform="translate(0.84 0.38)"/><path class="cls-5" d="M271.67,157.33a24.26,24.26,0,0,0-3.41,0" transform="translate(0.84 0.38)"/><path class="cls-5" d="M256.31,181.9a88.69,88.69,0,0,0,27.31,0" transform="translate(0.84 0.38)"/><path class="cls-5" d="M286.18,190.44a30.73,30.73,0,0,0,6.92-20" transform="translate(0.84 0.38)"/><path class="cls-5" d="M270,193.33a60.83,60.83,0,0,0,14-1.51" transform="translate(0.84 0.38)"/><path class="cls-5" d="M283.93,191.82a4.07,4.07,0,0,0,2.25-1.39" transform="translate(0.84 0.38)"/><path class="cls-5" d="M270,191.4a105.61,105.61,0,0,0,13.76-1" transform="translate(0.84 0.38)"/><path class="cls-5" d="M286.24,189.09a27.64,27.64,0,0,0,6.89-18.61" transform="translate(0.84 0.38)"/><path class="cls-5" d="M283.73,190.43a4.08,4.08,0,0,0,2.5-1.35" transform="translate(0.84 0.38)"/><path class="cls-5" d="M246.81,170.52a27.57,27.57,0,0,0,6.91,18.59" transform="translate(0.84 0.38)"/><path class="cls-5" d="M246.83,170.5a30.72,30.72,0,0,0,6.95,19.94" transform="translate(0.84 0.38)"/><path class="cls-5" d="M256.24,190.43a105.47,105.47,0,0,0,13.76,1" transform="translate(0.84 0.38)"/><path class="cls-5" d="M256,191.84a60.75,60.75,0,0,0,14,1.49" transform="translate(0.84 0.38)"/><path class="cls-5" d="M253.73,189.11a4.1,4.1,0,0,0,2.5,1.34" transform="translate(0.84 0.38)"/><path class="cls-5" d="M253.76,190.46a4.07,4.07,0,0,0,2.25,1.39" transform="translate(0.84 0.38)"/><path class="cls-5" d="M250.19,163.45a12.4,12.4,0,0,0-4.64,10.22" transform="translate(0.84 0.38)"/><path class="cls-5" d="M253.44,161.35a19.82,19.82,0,0,0-3.25,2.1" transform="translate(0.84 0.38)"/><path class="cls-5" d="M289.74,163.45a19.74,19.74,0,0,0-3.24-2.1" transform="translate(0.84 0.38)"/><path class="cls-5" d="M286.48,161.36a40.23,40.23,0,0,0-14.81-4" transform="translate(0.84 0.38)"/><path class="cls-5" d="M276.68,160.77a28.76,28.76,0,0,0-13.43,0" transform="translate(0.84 0.38)"/><path class="cls-5" d="M251.08,166.36a7.32,7.32,0,0,0-2.51,6" transform="translate(0.84 0.38)"/><path class="cls-5" d="M263.24,160.78a26.43,26.43,0,0,0-12.17,5.59" transform="translate(0.84 0.38)"/><path class="cls-5" d="M291.37,172.4a7.35,7.35,0,0,0-2.52-6" transform="translate(0.84 0.38)"/><path class="cls-5" d="M288.84,166.37a26.43,26.43,0,0,0-12.17-5.59" transform="translate(0.84 0.38)"/><path class="cls-5" d="M273.14,177.75a3.17,3.17,0,1,0-3.17,3.17,3.16,3.16,0,0,0,3.17-3.17" transform="translate(0.84 0.38)"/><path class="cls-5" d="M272.23,177.75A2.26,2.26,0,1,0,270,180a2.26,2.26,0,0,0,2.26-2.26" transform="translate(0.84 0.38)"/><line class="cls-5" x1="383.94" y1="29.29" x2="383.94" y2="75.4"/><line class="cls-5" x1="378.8" y1="80.83" x2="266.94" y2="80.83"/><line class="cls-5" x1="378.8" y1="23.88" x2="266.94" y2="23.88"/><line class="cls-5" x1="235.4" y1="86.23" x2="389.06" y2="86.23"/><line class="cls-5" x1="235.4" y1="18.46" x2="389.06" y2="18.46"/><line class="cls-5" x1="235.4" y1="18.46" x2="235.4" y2="86.23"/><line class="cls-5" x1="389.06" y1="18.46" x2="389.06" y2="86.23"/><line class="cls-5" x1="284.93" y1="33.31" x2="372.46" y2="33.31"/><line class="cls-5" x1="375.02" y1="36.01" x2="375.02" y2="68.68"/><line class="cls-5" x1="284.93" y1="71.38" x2="372.46" y2="71.38"/><line class="cls-5" x1="357.03" y1="50.69" x2="357.03" y2="47.35"/><line class="cls-5" x1="358.61" y1="52.34" x2="361.77" y2="52.34"/><line class="cls-5" x1="357.03" y1="54.02" x2="357.03" y2="57.37"/><line class="cls-5" x1="355.45" y1="52.34" x2="352.3" y2="52.34"/><path class="cls-5" d="M266.12,23.49c-14.86,0-26.9,12.74-26.9,28.47s12,28.47,26.9,28.47" transform="translate(0.84 0.38)"/><path class="cls-5" d="M378,80.43A5.29,5.29,0,0,0,383.1,75" transform="translate(0.84 0.38)"/><path class="cls-5" d="M383.1,28.9A5.28,5.28,0,0,0,378,23.49" transform="translate(0.84 0.38)"/><path class="cls-5" d="M356.21,49.12A2.84,2.84,0,1,0,358.87,52a2.75,2.75,0,0,0-2.66-2.84" transform="translate(0.84 0.38)"/><path class="cls-5" d="M284.1,32.91c-9.92,0-18,8.53-18,19.05S274.18,71,284.1,71" transform="translate(0.84 0.38)"/><path class="cls-5" d="M374.2,35.62a2.64,2.64,0,0,0-2.57-2.71" transform="translate(0.84 0.38)"/><path class="cls-5" d="M371.63,71a2.65,2.65,0,0,0,2.57-2.72" transform="translate(0.84 0.38)"/><path class="cls-5" d="M356.21,48.17A3.8,3.8,0,1,0,359.78,52a3.68,3.68,0,0,0-3.57-3.79" transform="translate(0.84 0.38)"/><line class="cls-5" x1="384.54" y1="263.4" x2="384.54" y2="313.12"/><line class="cls-5" x1="334.81" y1="263.4" x2="384.54" y2="263.4"/><line class="cls-5" x1="334.81" y1="313.12" x2="334.81" y2="263.4"/><line class="cls-5" x1="384.54" y1="313.12" x2="334.81" y2="313.12"/><line class="cls-5" x1="380.02" y1="308.6" x2="339.33" y2="308.6"/><line class="cls-5" x1="339.33" y1="308.6" x2="339.33" y2="272.44"/><line class="cls-5" x1="339.33" y1="272.44" x2="380.02" y2="272.44"/><line class="cls-5" x1="380.02" y1="272.44" x2="380.02" y2="308.6"/><line class="cls-5" x1="407.14" y1="171.21" x2="407.14" y2="136.86"/><line class="cls-5" x1="407.14" y1="18.46" x2="407.14" y2="86.23"/><line class="cls-5" x1="0.38" y1="670.16" x2="0.38" y2="670.16"/><polyline class="cls-5" points="169.84 672.43 169.39 672.43 169.39 722.15 169.84 722.15 169.84 672.43"/><polyline class="cls-5" points="168.05 723.95 168.05 723.5 84.89 723.5 84.89 723.95 168.05 723.95"/><polyline class="cls-5" points="83.08 722.15 83.53 722.15 83.53 672.43 83.08 672.43 83.08 722.15"/><polyline class="cls-5" points="170.3 670.16 168.05 670.16 168.05 672.43 170.3 672.43 170.3 670.16"/><polyline class="cls-5" points="170.3 722.15 168.05 722.15 168.05 724.4 170.3 724.4 170.3 722.15"/><polyline class="cls-5" points="84.89 724.4 84.89 722.15 82.62 722.15 82.62 724.4 84.89 724.4"/><polyline class="cls-5" points="82.62 672.43 84.89 672.43 84.89 670.16 82.62 670.16 82.62 672.43"/><line class="cls-5" x1="168.05" y1="671.31" x2="168.05" y2="722.16"/><line class="cls-5" x1="170.3" y1="724.4" x2="170.3" y2="671.31"/><line class="cls-5" x1="168.05" y1="722.16" x2="84.89" y2="722.16"/><line class="cls-5" x1="82.62" y1="724.4" x2="170.3" y2="724.4"/><line class="cls-5" x1="84.89" y1="722.16" x2="84.89" y2="671.31"/><line class="cls-5" x1="82.62" y1="671.31" x2="82.62" y2="724.4"/><polyline class="cls-5" points="170.3 671.31 170.3 670.16 168.05 670.16 168.05 671.31"/><polyline class="cls-5" points="84.89 671.31 84.89 670.16 82.62 670.16 82.62 671.31"/><polyline class="cls-5" points="82.62 724.4 170.3 724.4 170.3 671.31 168.05 671.31 168.05 722.15 84.89 722.15 84.89 671.31 82.62 671.31 82.62 724.4"/><polyline class="cls-5" points="87.14 708.14 165.78 708.14 165.78 679.2 87.14 679.2 87.14 708.14"/><polyline class="cls-5" points="87.14 705.25 165.78 705.25 165.78 679.2 87.14 679.2 87.14 705.25"/><line class="cls-5" x1="407.57" y1="367.36" x2="407.49" y2="367.36"/><line class="cls-5" x1="407.45" y1="367.36" x2="407.37" y2="367.36"/><line class="cls-5" x1="407.3" y1="367.36" x2="407.23" y2="367.36"/><line class="cls-5" x1="407.18" y1="367.36" x2="407.14" y2="367.36"/><line class="cls-5" x1="223.63" y1="258.88" x2="223.63" y2="258.95"/><line class="cls-5" x1="388.48" y1="367.36" x2="388.55" y2="367.36"/><line class="cls-5" x1="388.62" y1="367.36" x2="388.7" y2="367.36"/><line class="cls-5" x1="388.74" y1="367.36" x2="388.82" y2="367.36"/><line class="cls-5" x1="388.86" y1="367.36" x2="388.94" y2="367.36"/><line class="cls-5" x1="389.01" y1="367.36" x2="389.06" y2="367.36"/><line class="cls-5" x1="389.06" y1="553.19" x2="392.28" y2="549.96"/><line class="cls-5" x1="389.06" y1="560.87" x2="399.96" y2="549.96"/><line class="cls-5" x1="389.06" y1="568.52" x2="407.14" y2="550.44"/><line class="cls-5" x1="389.06" y1="576.2" x2="407.14" y2="558.12"/><line class="cls-5" x1="389.06" y1="583.87" x2="407.14" y2="565.79"/><line class="cls-5" x1="389.06" y1="591.53" x2="407.14" y2="573.45"/><line class="cls-5" x1="389.06" y1="599.2" x2="407.14" y2="581.12"/><line class="cls-5" x1="389.06" y1="606.88" x2="407.14" y2="588.8"/><line class="cls-5" x1="389.06" y1="614.53" x2="407.14" y2="596.48"/><line class="cls-5" x1="389.06" y1="622.21" x2="407.14" y2="604.13"/><line class="cls-5" x1="389.06" y1="629.89" x2="407.14" y2="611.81"/><line class="cls-5" x1="389.06" y1="637.56" x2="407.14" y2="619.48"/><line class="cls-5" x1="393.93" y1="640.34" x2="407.14" y2="627.14"/><line class="cls-5" x1="401.61" y1="640.34" x2="407.14" y2="634.81"/><line class="cls-5" x1="389.06" y1="557.02" x2="390.42" y2="555.65"/><line class="cls-5" x1="391.38" y1="554.7" x2="391.38" y2="554.7"/><line class="cls-5" x1="392.33" y1="553.74" x2="395.2" y2="550.85"/><line class="cls-5" x1="389.06" y1="564.69" x2="389.46" y2="564.29"/><line class="cls-5" x1="390.42" y1="563.33" x2="390.42" y2="563.33"/><line class="cls-5" x1="391.38" y1="562.37" x2="394.25" y2="559.48"/><line class="cls-5" x1="395.2" y1="558.52" x2="395.2" y2="558.52"/><line class="cls-5" x1="396.18" y1="557.57" x2="399.05" y2="554.7"/><line class="cls-5" x1="400.01" y1="553.74" x2="400.01" y2="553.74"/><line class="cls-5" x1="400.97" y1="552.78" x2="403.79" y2="549.96"/><line class="cls-5" x1="389.46" y1="571.94" x2="389.46" y2="571.94"/><line class="cls-5" x1="390.42" y1="570.98" x2="393.29" y2="568.11"/><line class="cls-5" x1="394.25" y1="567.16" x2="394.25" y2="567.16"/><line class="cls-5" x1="395.2" y1="566.2" x2="398.1" y2="563.33"/><line class="cls-5" x1="399.05" y1="562.37" x2="399.05" y2="562.37"/><line class="cls-5" x1="400.01" y1="561.39" x2="402.88" y2="558.52"/><line class="cls-5" x1="403.84" y1="557.57" x2="403.84" y2="557.57"/><line class="cls-5" x1="404.79" y1="556.61" x2="407.14" y2="554.29"/><line class="cls-5" x1="389.46" y1="579.62" x2="392.33" y2="576.75"/><line class="cls-5" x1="393.29" y1="575.79" x2="393.29" y2="575.79"/><line class="cls-5" x1="394.25" y1="574.83" x2="397.14" y2="571.94"/><line class="cls-5" x1="398.1" y1="570.98" x2="398.1" y2="570.98"/><line class="cls-5" x1="399.05" y1="570.03" x2="401.92" y2="567.16"/><line class="cls-5" x1="402.88" y1="566.2" x2="402.88" y2="566.2"/><line class="cls-5" x1="403.84" y1="565.24" x2="406.73" y2="562.37"/><line class="cls-5" x1="389.06" y1="587.7" x2="391.38" y2="585.38"/><line class="cls-5" x1="392.33" y1="584.42" x2="392.33" y2="584.42"/><line class="cls-5" x1="393.29" y1="583.44" x2="396.18" y2="580.57"/><line class="cls-5" x1="397.14" y1="579.62" x2="397.14" y2="579.62"/><line class="cls-5" x1="398.1" y1="578.66" x2="400.97" y2="575.79"/><line class="cls-5" x1="401.92" y1="574.83" x2="401.92" y2="574.83"/><line class="cls-5" x1="402.88" y1="573.88" x2="405.75" y2="570.98"/><line class="cls-5" x1="406.73" y1="570.03" x2="406.73" y2="570.03"/><line class="cls-5" x1="389.06" y1="595.38" x2="390.42" y2="593.99"/><line class="cls-5" x1="391.38" y1="593.03" x2="391.38" y2="593.03"/><line class="cls-5" x1="392.33" y1="592.08" x2="395.2" y2="589.21"/><line class="cls-5" x1="396.18" y1="588.25" x2="396.18" y2="588.25"/><line class="cls-5" x1="397.14" y1="587.29" x2="400.01" y2="584.42"/><line class="cls-5" x1="400.97" y1="583.44" x2="400.97" y2="583.44"/><line class="cls-5" x1="401.92" y1="582.49" x2="404.79" y2="579.62"/><line class="cls-5" x1="405.75" y1="578.66" x2="405.75" y2="578.66"/><line class="cls-5" x1="406.73" y1="577.7" x2="407.14" y2="577.3"/><line class="cls-5" x1="389.06" y1="603.03" x2="389.46" y2="602.62"/><line class="cls-5" x1="390.42" y1="601.67" x2="390.42" y2="601.67"/><line class="cls-5" x1="391.38" y1="600.71" x2="394.25" y2="597.84"/><line class="cls-5" x1="395.2" y1="596.88" x2="395.2" y2="596.88"/><line class="cls-5" x1="396.18" y1="595.93" x2="399.05" y2="593.03"/><line class="cls-5" x1="400.01" y1="592.08" x2="400.01" y2="592.08"/><line class="cls-5" x1="400.97" y1="591.12" x2="403.84" y2="588.25"/><line class="cls-5" x1="404.79" y1="587.29" x2="404.79" y2="587.29"/><line class="cls-5" x1="405.75" y1="586.34" x2="407.14" y2="584.97"/><line class="cls-5" x1="389.46" y1="610.3" x2="389.46" y2="610.3"/><line class="cls-5" x1="390.42" y1="609.34" x2="393.29" y2="606.47"/><line class="cls-5" x1="394.25" y1="605.52" x2="394.25" y2="605.52"/><line class="cls-5" x1="395.2" y1="604.54" x2="398.1" y2="601.67"/><line class="cls-5" x1="399.05" y1="600.71" x2="399.05" y2="600.71"/><line class="cls-5" x1="400.01" y1="599.75" x2="402.88" y2="596.88"/><line class="cls-5" x1="403.84" y1="595.93" x2="403.84" y2="595.93"/><line class="cls-5" x1="404.79" y1="594.97" x2="407.14" y2="592.63"/><line class="cls-5" x1="389.46" y1="617.98" x2="392.33" y2="615.08"/><line class="cls-5" x1="393.29" y1="614.13" x2="393.29" y2="614.13"/><line class="cls-5" x1="394.25" y1="613.17" x2="397.14" y2="610.3"/><line class="cls-5" x1="398.1" y1="609.34" x2="398.1" y2="609.34"/><line class="cls-5" x1="399.05" y1="608.39" x2="401.92" y2="605.52"/><line class="cls-5" x1="402.88" y1="604.54" x2="402.88" y2="604.54"/><line class="cls-5" x1="403.84" y1="603.58" x2="406.73" y2="600.71"/><line class="cls-5" x1="389.06" y1="626.06" x2="391.38" y2="623.72"/><line class="cls-5" x1="392.33" y1="622.76" x2="392.33" y2="622.76"/><line class="cls-5" x1="393.29" y1="621.8" x2="396.18" y2="618.93"/><line class="cls-5" x1="397.14" y1="617.98" x2="397.14" y2="617.98"/><line class="cls-5" x1="398.1" y1="617.02" x2="400.97" y2="614.13"/><line class="cls-5" x1="401.92" y1="613.17" x2="401.92" y2="613.17"/><line class="cls-5" x1="402.88" y1="612.21" x2="405.75" y2="609.34"/><line class="cls-5" x1="406.73" y1="608.39" x2="406.73" y2="608.39"/><line class="cls-5" x1="389.06" y1="633.71" x2="390.42" y2="632.35"/><line class="cls-5" x1="391.38" y1="631.39" x2="391.38" y2="631.39"/><line class="cls-5" x1="392.33" y1="630.44" x2="395.2" y2="627.57"/><line class="cls-5" x1="396.18" y1="626.59" x2="396.18" y2="626.59"/><line class="cls-5" x1="397.14" y1="625.63" x2="400.01" y2="622.76"/><line class="cls-5" x1="400.97" y1="621.8" x2="400.97" y2="621.8"/><line class="cls-5" x1="401.92" y1="620.85" x2="404.79" y2="617.98"/><line class="cls-5" x1="405.75" y1="617.02" x2="405.75" y2="617.02"/><line class="cls-5" x1="406.73" y1="616.04" x2="407.14" y2="615.63"/><line class="cls-5" x1="390.42" y1="640.03" x2="390.42" y2="640.03"/><line class="cls-5" x1="391.38" y1="639.07" x2="394.25" y2="636.18"/><line class="cls-5" x1="395.2" y1="635.22" x2="395.2" y2="635.22"/><line class="cls-5" x1="396.18" y1="634.26" x2="399.05" y2="631.39"/><line class="cls-5" x1="400.01" y1="630.44" x2="400.01" y2="630.44"/><line class="cls-5" x1="400.97" y1="629.48" x2="403.84" y2="626.59"/><line class="cls-5" x1="404.79" y1="625.63" x2="404.79" y2="625.63"/><line class="cls-5" x1="405.75" y1="624.67" x2="407.14" y2="623.31"/><line class="cls-5" x1="397.76" y1="640.34" x2="398.1" y2="640.03"/><line class="cls-5" x1="399.05" y1="639.07" x2="399.05" y2="639.07"/><line class="cls-5" x1="400.01" y1="638.12" x2="402.88" y2="635.22"/><line class="cls-5" x1="403.84" y1="634.26" x2="403.84" y2="634.26"/><line class="cls-5" x1="404.79" y1="633.31" x2="407.14" y2="630.99"/><line class="cls-5" x1="405.44" y1="640.34" x2="406.73" y2="639.07"/><polyline class="cls-5" points="407.14 640.34 389.06 640.34 389.06 549.96 407.14 549.96 407.14 640.34"/><line class="cls-5" x1="389.06" y1="254.05" x2="391.45" y2="251.66"/><line class="cls-5" x1="389.06" y1="261.73" x2="399.12" y2="251.66"/><line class="cls-5" x1="389.06" y1="269.4" x2="406.78" y2="251.66"/><line class="cls-5" x1="389.06" y1="277.06" x2="407.14" y2="258.98"/><line class="cls-5" x1="389.06" y1="284.73" x2="407.14" y2="266.65"/><line class="cls-5" x1="389.06" y1="292.41" x2="407.14" y2="274.33"/><line class="cls-5" x1="389.06" y1="300.09" x2="407.14" y2="282.01"/><line class="cls-5" x1="389.06" y1="307.74" x2="407.14" y2="289.66"/><line class="cls-5" x1="389.06" y1="315.42" x2="407.14" y2="297.34"/><line class="cls-5" x1="389.06" y1="323.1" x2="407.14" y2="305.02"/><line class="cls-5" x1="389.06" y1="330.75" x2="407.14" y2="312.67"/><line class="cls-5" x1="389.06" y1="338.43" x2="407.14" y2="320.35"/><line class="cls-5" x1="389.06" y1="346.1" x2="407.14" y2="328.02"/><line class="cls-5" x1="389.06" y1="353.76" x2="407.14" y2="335.7"/><line class="cls-5" x1="390.35" y1="360.14" x2="407.14" y2="343.35"/><line class="cls-5" x1="398.02" y1="360.14" x2="407.14" y2="351.03"/><line class="cls-5" x1="405.7" y1="360.14" x2="407.14" y2="358.71"/><line class="cls-5" x1="389.06" y1="257.9" x2="389.46" y2="257.47"/><line class="cls-5" x1="390.42" y1="256.51" x2="390.42" y2="256.51"/><line class="cls-5" x1="391.38" y1="255.56" x2="394.25" y2="252.69"/><line class="cls-5" x1="395.2" y1="251.73" x2="395.2" y2="251.73"/><line class="cls-5" x1="389.46" y1="265.15" x2="389.46" y2="265.15"/><line class="cls-5" x1="390.42" y1="264.19" x2="393.29" y2="261.32"/><line class="cls-5" x1="394.25" y1="260.36" x2="394.25" y2="260.36"/><line class="cls-5" x1="395.2" y1="259.41" x2="398.1" y2="256.51"/><line class="cls-5" x1="399.05" y1="255.56" x2="399.05" y2="255.56"/><line class="cls-5" x1="400.01" y1="254.6" x2="402.88" y2="251.73"/><line class="cls-5" x1="389.46" y1="272.82" x2="392.33" y2="269.95"/><line class="cls-5" x1="393.29" y1="269" x2="393.29" y2="269"/><line class="cls-5" x1="394.25" y1="268.02" x2="397.14" y2="265.15"/><line class="cls-5" x1="398.1" y1="264.19" x2="398.1" y2="264.19"/><line class="cls-5" x1="399.05" y1="263.23" x2="401.92" y2="260.36"/><line class="cls-5" x1="402.88" y1="259.41" x2="402.88" y2="259.41"/><line class="cls-5" x1="403.84" y1="258.45" x2="406.73" y2="255.56"/><line class="cls-5" x1="389.06" y1="280.91" x2="391.38" y2="278.56"/><line class="cls-5" x1="392.33" y1="277.61" x2="392.33" y2="277.61"/><line class="cls-5" x1="393.29" y1="276.65" x2="396.18" y2="273.78"/><line class="cls-5" x1="397.14" y1="272.82" x2="397.14" y2="272.82"/><line class="cls-5" x1="398.1" y1="271.87" x2="400.97" y2="269"/><line class="cls-5" x1="401.92" y1="268.02" x2="401.92" y2="268.02"/><line class="cls-5" x1="402.88" y1="267.06" x2="405.75" y2="264.19"/><line class="cls-5" x1="406.73" y1="263.23" x2="406.73" y2="263.23"/><line class="cls-5" x1="389.06" y1="288.56" x2="390.42" y2="287.2"/><line class="cls-5" x1="391.38" y1="286.24" x2="391.38" y2="286.24"/><line class="cls-5" x1="392.33" y1="285.28" x2="395.2" y2="282.41"/><line class="cls-5" x1="396.18" y1="281.46" x2="396.18" y2="281.46"/><line class="cls-5" x1="397.14" y1="280.5" x2="400.01" y2="277.61"/><line class="cls-5" x1="400.97" y1="276.65" x2="400.97" y2="276.65"/><line class="cls-5" x1="401.92" y1="275.69" x2="404.79" y2="272.82"/><line class="cls-5" x1="405.75" y1="271.87" x2="405.75" y2="271.87"/><line class="cls-5" x1="406.73" y1="270.91" x2="407.14" y2="270.5"/><line class="cls-5" x1="389.06" y1="296.24" x2="389.46" y2="295.83"/><line class="cls-5" x1="390.42" y1="294.87" x2="390.42" y2="294.87"/><line class="cls-5" x1="391.38" y1="293.92" x2="394.25" y2="291.05"/><line class="cls-5" x1="395.2" y1="290.07" x2="395.2" y2="290.07"/><line class="cls-5" x1="396.18" y1="289.11" x2="399.05" y2="286.24"/><line class="cls-5" x1="400.01" y1="285.28" x2="400.01" y2="285.28"/><line class="cls-5" x1="400.97" y1="284.33" x2="403.84" y2="281.46"/><line class="cls-5" x1="404.79" y1="280.5" x2="404.79" y2="280.5"/><line class="cls-5" x1="405.75" y1="279.54" x2="407.14" y2="278.16"/><line class="cls-5" x1="389.46" y1="303.51" x2="389.46" y2="303.51"/><line class="cls-5" x1="390.42" y1="302.55" x2="393.29" y2="299.66"/><line class="cls-5" x1="394.25" y1="298.7" x2="394.25" y2="298.7"/><line class="cls-5" x1="395.2" y1="297.74" x2="398.1" y2="294.87"/><line class="cls-5" x1="399.05" y1="293.92" x2="399.05" y2="293.92"/><line class="cls-5" x1="400.01" y1="292.96" x2="402.88" y2="290.07"/><line class="cls-5" x1="403.84" y1="289.11" x2="403.84" y2="289.11"/><line class="cls-5" x1="404.79" y1="288.15" x2="407.14" y2="285.83"/><line class="cls-5" x1="389.46" y1="311.16" x2="392.33" y2="308.29"/><line class="cls-5" x1="393.29" y1="307.33" x2="393.29" y2="307.33"/><line class="cls-5" x1="394.25" y1="306.38" x2="397.14" y2="303.51"/><line class="cls-5" x1="398.1" y1="302.55" x2="398.1" y2="302.55"/><line class="cls-5" x1="399.05" y1="301.6" x2="401.92" y2="298.7"/><line class="cls-5" x1="402.88" y1="297.74" x2="402.88" y2="297.74"/><line class="cls-5" x1="403.84" y1="296.79" x2="406.73" y2="293.92"/><line class="cls-5" x1="389.06" y1="319.25" x2="391.38" y2="316.93"/><line class="cls-5" x1="392.33" y1="315.97" x2="392.33" y2="315.97"/><line class="cls-5" x1="393.29" y1="315.01" x2="396.18" y2="312.14"/><line class="cls-5" x1="397.14" y1="311.16" x2="397.14" y2="311.16"/><line class="cls-5" x1="398.1" y1="310.2" x2="400.97" y2="307.33"/><line class="cls-5" x1="401.92" y1="306.38" x2="401.92" y2="306.38"/><line class="cls-5" x1="402.88" y1="305.42" x2="405.75" y2="302.55"/><line class="cls-5" x1="406.73" y1="301.6" x2="406.73" y2="301.6"/><line class="cls-5" x1="389.06" y1="326.92" x2="390.42" y2="325.56"/><line class="cls-5" x1="391.38" y1="324.6" x2="391.38" y2="324.6"/><line class="cls-5" x1="392.33" y1="323.65" x2="395.2" y2="320.75"/><line class="cls-5" x1="396.18" y1="319.8" x2="396.18" y2="319.8"/><line class="cls-5" x1="397.14" y1="318.84" x2="400.01" y2="315.97"/><line class="cls-5" x1="400.97" y1="315.01" x2="400.97" y2="315.01"/><line class="cls-5" x1="401.92" y1="314.06" x2="404.79" y2="311.16"/><line class="cls-5" x1="405.75" y1="310.2" x2="405.75" y2="310.2"/><line class="cls-5" x1="406.73" y1="309.25" x2="407.14" y2="308.84"/><line class="cls-5" x1="389.06" y1="334.6" x2="389.46" y2="334.19"/><line class="cls-5" x1="390.42" y1="333.21" x2="390.42" y2="333.21"/><line class="cls-5" x1="391.38" y1="332.26" x2="394.25" y2="329.39"/><line class="cls-5" x1="395.2" y1="328.43" x2="395.2" y2="328.43"/><line class="cls-5" x1="396.18" y1="327.47" x2="399.05" y2="324.6"/><line class="cls-5" x1="400.01" y1="323.65" x2="400.01" y2="323.65"/><line class="cls-5" x1="400.97" y1="322.66" x2="403.84" y2="319.8"/><line class="cls-5" x1="404.79" y1="318.84" x2="404.79" y2="318.84"/><line class="cls-5" x1="405.75" y1="317.88" x2="407.14" y2="316.52"/><line class="cls-5" x1="389.46" y1="341.85" x2="389.46" y2="341.85"/><line class="cls-5" x1="390.42" y1="340.89" x2="393.29" y2="338.02"/><line class="cls-5" x1="394.25" y1="337.06" x2="394.25" y2="337.06"/><line class="cls-5" x1="395.2" y1="336.11" x2="398.1" y2="333.21"/><line class="cls-5" x1="399.05" y1="332.26" x2="399.05" y2="332.26"/><line class="cls-5" x1="400.01" y1="331.3" x2="402.88" y2="328.43"/><line class="cls-5" x1="403.84" y1="327.47" x2="403.84" y2="327.47"/><line class="cls-5" x1="404.79" y1="326.52" x2="407.14" y2="324.17"/><line class="cls-5" x1="389.46" y1="349.52" x2="392.33" y2="346.65"/><line class="cls-5" x1="393.29" y1="345.7" x2="393.29" y2="345.7"/><line class="cls-5" x1="394.25" y1="344.74" x2="397.14" y2="341.85"/><line class="cls-5" x1="398.1" y1="340.89" x2="398.1" y2="340.89"/><line class="cls-5" x1="399.05" y1="339.93" x2="401.92" y2="337.06"/><line class="cls-5" x1="402.88" y1="336.11" x2="402.88" y2="336.11"/><line class="cls-5" x1="403.84" y1="335.15" x2="406.73" y2="332.26"/><line class="cls-5" x1="389.06" y1="357.61" x2="391.38" y2="355.26"/><line class="cls-5" x1="392.33" y1="354.31" x2="392.33" y2="354.31"/><line class="cls-5" x1="393.29" y1="353.35" x2="396.18" y2="350.48"/><line class="cls-5" x1="397.14" y1="349.52" x2="397.14" y2="349.52"/><line class="cls-5" x1="398.1" y1="348.57" x2="400.97" y2="345.7"/><line class="cls-5" x1="401.92" y1="344.74" x2="401.92" y2="344.74"/><line class="cls-5" x1="402.88" y1="343.76" x2="405.75" y2="340.89"/><line class="cls-5" x1="406.73" y1="339.93" x2="406.73" y2="339.93"/><line class="cls-5" x1="394.2" y1="360.14" x2="395.2" y2="359.11"/><line class="cls-5" x1="396.18" y1="358.16" x2="396.18" y2="358.16"/><line class="cls-5" x1="397.14" y1="357.2" x2="400.01" y2="354.31"/><line class="cls-5" x1="400.97" y1="353.35" x2="400.97" y2="353.35"/><line class="cls-5" x1="401.92" y1="352.39" x2="404.79" y2="349.52"/><line class="cls-5" x1="405.75" y1="348.57" x2="405.75" y2="348.57"/><line class="cls-5" x1="406.73" y1="347.61" x2="407.14" y2="347.2"/><line class="cls-5" x1="401.85" y1="360.14" x2="403.84" y2="358.16"/><line class="cls-5" x1="404.79" y1="357.2" x2="404.79" y2="357.2"/><line class="cls-5" x1="405.75" y1="356.24" x2="407.14" y2="354.86"/><polyline class="cls-5" points="407.14 360.14 389.06 360.14 389.06 251.66 407.14 251.66 407.14 360.14"/><line class="cls-5" x1="0.38" y1="550.7" x2="1.12" y2="549.96"/><line class="cls-5" x1="0.38" y1="558.38" x2="8.79" y2="549.96"/><line class="cls-5" x1="0.38" y1="566.03" x2="16.45" y2="549.96"/><line class="cls-5" x1="0.38" y1="573.71" x2="18.46" y2="555.63"/><line class="cls-5" x1="0.38" y1="581.39" x2="18.46" y2="563.31"/><line class="cls-5" x1="0.38" y1="589.04" x2="18.46" y2="570.98"/><line class="cls-5" x1="0.38" y1="596.72" x2="18.46" y2="578.64"/><line class="cls-5" x1="0.38" y1="604.39" x2="18.46" y2="586.31"/><line class="cls-5" x1="0.38" y1="612.07" x2="18.46" y2="593.99"/><line class="cls-5" x1="0.38" y1="619.72" x2="18.46" y2="601.64"/><line class="cls-5" x1="0.38" y1="627.4" x2="18.46" y2="609.32"/><line class="cls-5" x1="0.38" y1="635.08" x2="18.46" y2="617"/><line class="cls-5" x1="2.77" y1="640.34" x2="18.46" y2="624.65"/><line class="cls-5" x1="10.44" y1="640.34" x2="18.46" y2="632.33"/><line class="cls-5" x1="18.1" y1="640.34" x2="18.46" y2="640"/><line class="cls-5" x1="0.38" y1="554.53" x2="3.08" y2="551.83"/><line class="cls-5" x1="4.06" y1="550.85" x2="4.06" y2="550.85"/><line class="cls-5" x1="0.38" y1="562.21" x2="2.12" y2="560.44"/><line class="cls-5" x1="3.08" y1="559.48" x2="3.08" y2="559.48"/><line class="cls-5" x1="4.06" y1="558.52" x2="6.93" y2="555.65"/><line class="cls-5" x1="7.88" y1="554.7" x2="7.88" y2="554.7"/><line class="cls-5" x1="8.84" y1="553.74" x2="11.71" y2="550.85"/><line class="cls-5" x1="0.38" y1="569.88" x2="1.16" y2="569.07"/><line class="cls-5" x1="2.12" y1="568.11" x2="2.12" y2="568.11"/><line class="cls-5" x1="3.08" y1="567.16" x2="5.97" y2="564.29"/><line class="cls-5" x1="6.93" y1="563.33" x2="6.93" y2="563.33"/><line class="cls-5" x1="7.88" y1="562.37" x2="10.75" y2="559.48"/><line class="cls-5" x1="11.71" y1="558.52" x2="11.71" y2="558.52"/><line class="cls-5" x1="12.67" y1="557.57" x2="15.56" y2="554.7"/><line class="cls-5" x1="16.52" y1="553.74" x2="16.52" y2="553.74"/><line class="cls-5" x1="17.47" y1="552.78" x2="18.46" y2="551.8"/><line class="cls-5" x1="1.16" y1="576.75" x2="1.16" y2="576.75"/><line class="cls-5" x1="2.12" y1="575.79" x2="5.01" y2="572.92"/><line class="cls-5" x1="5.97" y1="571.94" x2="5.97" y2="571.94"/><line class="cls-5" x1="6.93" y1="570.98" x2="9.8" y2="568.11"/><line class="cls-5" x1="10.75" y1="567.16" x2="10.75" y2="567.16"/><line class="cls-5" x1="11.71" y1="566.2" x2="14.58" y2="563.33"/><line class="cls-5" x1="15.56" y1="562.37" x2="15.56" y2="562.37"/><line class="cls-5" x1="16.52" y1="561.39" x2="18.46" y2="559.46"/><line class="cls-5" x1="1.16" y1="584.42" x2="4.06" y2="581.53"/><line class="cls-5" x1="5.01" y1="580.57" x2="5.01" y2="580.57"/><line class="cls-5" x1="5.97" y1="579.62" x2="8.84" y2="576.75"/><line class="cls-5" x1="9.8" y1="575.79" x2="9.8" y2="575.79"/><line class="cls-5" x1="10.75" y1="574.83" x2="13.62" y2="571.94"/><line class="cls-5" x1="14.58" y1="570.98" x2="14.58" y2="570.98"/><line class="cls-5" x1="15.56" y1="570.03" x2="18.43" y2="567.16"/><line class="cls-5" x1="0.38" y1="592.89" x2="3.08" y2="590.16"/><line class="cls-5" x1="4.06" y1="589.21" x2="4.06" y2="589.21"/><line class="cls-5" x1="5.01" y1="588.25" x2="7.88" y2="585.38"/><line class="cls-5" x1="8.84" y1="584.42" x2="8.84" y2="584.42"/><line class="cls-5" x1="9.8" y1="583.44" x2="12.67" y2="580.57"/><line class="cls-5" x1="13.62" y1="579.62" x2="13.62" y2="579.62"/><line class="cls-5" x1="14.58" y1="578.66" x2="17.47" y2="575.79"/><line class="cls-5" x1="18.43" y1="574.83" x2="18.43" y2="574.83"/><line class="cls-5" x1="0.38" y1="600.57" x2="2.12" y2="598.8"/><line class="cls-5" x1="3.08" y1="597.84" x2="3.08" y2="597.84"/><line class="cls-5" x1="4.06" y1="596.88" x2="6.93" y2="593.99"/><line class="cls-5" x1="7.88" y1="593.03" x2="7.88" y2="593.03"/><line class="cls-5" x1="8.84" y1="592.08" x2="11.71" y2="589.21"/><line class="cls-5" x1="12.67" y1="588.25" x2="12.67" y2="588.25"/><line class="cls-5" x1="13.62" y1="587.29" x2="16.52" y2="584.42"/><line class="cls-5" x1="17.47" y1="583.44" x2="17.47" y2="583.44"/><line class="cls-5" x1="18.43" y1="582.49" x2="18.46" y2="582.49"/><line class="cls-5" x1="0.38" y1="608.22" x2="1.16" y2="607.43"/><line class="cls-5" x1="2.12" y1="606.47" x2="2.12" y2="606.47"/><line class="cls-5" x1="3.08" y1="605.52" x2="5.97" y2="602.62"/><line class="cls-5" x1="6.93" y1="601.67" x2="6.93" y2="601.67"/><line class="cls-5" x1="7.88" y1="600.71" x2="10.75" y2="597.84"/><line class="cls-5" x1="11.71" y1="596.88" x2="11.71" y2="596.88"/><line class="cls-5" x1="12.67" y1="595.93" x2="15.56" y2="593.03"/><line class="cls-5" x1="16.52" y1="592.08" x2="16.52" y2="592.08"/><line class="cls-5" x1="17.47" y1="591.12" x2="18.46" y2="590.14"/><line class="cls-5" x1="1.16" y1="615.08" x2="1.16" y2="615.08"/><line class="cls-5" x1="2.12" y1="614.13" x2="5.01" y2="611.26"/><line class="cls-5" x1="5.97" y1="610.3" x2="5.97" y2="610.3"/><line class="cls-5" x1="6.93" y1="609.34" x2="9.8" y2="606.47"/><line class="cls-5" x1="10.75" y1="605.52" x2="10.75" y2="605.52"/><line class="cls-5" x1="11.71" y1="604.54" x2="14.58" y2="601.67"/><line class="cls-5" x1="15.56" y1="600.71" x2="15.56" y2="600.71"/><line class="cls-5" x1="16.52" y1="599.75" x2="18.46" y2="597.82"/><line class="cls-5" x1="1.16" y1="622.76" x2="4.06" y2="619.89"/><line class="cls-5" x1="5.01" y1="618.93" x2="5.01" y2="618.93"/><line class="cls-5" x1="5.97" y1="617.98" x2="8.84" y2="615.08"/><line class="cls-5" x1="9.8" y1="614.13" x2="9.8" y2="614.13"/><line class="cls-5" x1="10.75" y1="613.17" x2="13.62" y2="610.3"/><line class="cls-5" x1="14.58" y1="609.34" x2="14.58" y2="609.34"/><line class="cls-5" x1="15.56" y1="608.39" x2="18.43" y2="605.52"/><line class="cls-5" x1="0.38" y1="631.23" x2="3.08" y2="628.52"/><line class="cls-5" x1="4.06" y1="627.57" x2="4.06" y2="627.57"/><line class="cls-5" x1="5.01" y1="626.59" x2="7.88" y2="623.72"/><line class="cls-5" x1="8.84" y1="622.76" x2="8.84" y2="622.76"/><line class="cls-5" x1="9.8" y1="621.8" x2="12.67" y2="618.93"/><line class="cls-5" x1="13.62" y1="617.98" x2="13.62" y2="617.98"/><line class="cls-5" x1="14.58" y1="617.02" x2="17.47" y2="614.13"/><line class="cls-5" x1="18.43" y1="613.17" x2="18.43" y2="613.17"/><line class="cls-5" x1="0.38" y1="638.9" x2="2.12" y2="637.13"/><line class="cls-5" x1="3.08" y1="636.18" x2="3.08" y2="636.18"/><line class="cls-5" x1="4.06" y1="635.22" x2="6.93" y2="632.35"/><line class="cls-5" x1="7.88" y1="631.39" x2="7.88" y2="631.39"/><line class="cls-5" x1="8.84" y1="630.44" x2="11.71" y2="627.57"/><line class="cls-5" x1="12.67" y1="626.59" x2="12.67" y2="626.59"/><line class="cls-5" x1="13.62" y1="625.63" x2="16.52" y2="622.76"/><line class="cls-5" x1="17.47" y1="621.8" x2="17.47" y2="621.8"/><line class="cls-5" x1="18.43" y1="620.85" x2="18.46" y2="620.82"/><line class="cls-5" x1="6.93" y1="640.03" x2="6.93" y2="640.03"/><line class="cls-5" x1="7.88" y1="639.07" x2="10.75" y2="636.18"/><line class="cls-5" x1="11.71" y1="635.22" x2="11.71" y2="635.22"/><line class="cls-5" x1="12.67" y1="634.26" x2="15.56" y2="631.39"/><line class="cls-5" x1="16.52" y1="630.44" x2="16.52" y2="630.44"/><line class="cls-5" x1="17.47" y1="629.48" x2="18.46" y2="628.5"/><line class="cls-5" x1="14.27" y1="640.34" x2="14.58" y2="640.03"/><line class="cls-5" x1="15.56" y1="639.07" x2="15.56" y2="639.07"/><line class="cls-5" x1="16.52" y1="638.12" x2="18.46" y2="636.18"/><polyline class="cls-5" points="18.45 640.34 0.38 640.34 0.38 549.96 18.45 549.96 18.45 640.34"/><line class="cls-5" x1="0.38" y1="259.24" x2="7.96" y2="251.66"/><line class="cls-5" x1="0.38" y1="266.92" x2="15.61" y2="251.66"/><line class="cls-5" x1="0.38" y1="274.57" x2="18.46" y2="256.51"/><line class="cls-5" x1="0.38" y1="282.25" x2="18.46" y2="264.17"/><line class="cls-5" x1="0.38" y1="289.92" x2="18.46" y2="271.84"/><line class="cls-5" x1="0.38" y1="297.6" x2="18.46" y2="279.52"/><line class="cls-5" x1="0.38" y1="305.25" x2="18.46" y2="287.17"/><line class="cls-5" x1="0.38" y1="312.93" x2="18.46" y2="294.85"/><line class="cls-5" x1="0.38" y1="320.61" x2="18.46" y2="302.53"/><line class="cls-5" x1="0.38" y1="328.26" x2="18.46" y2="310.2"/><line class="cls-5" x1="0.38" y1="335.94" x2="18.46" y2="317.86"/><line class="cls-5" x1="1.93" y1="342.06" x2="18.46" y2="325.53"/><line class="cls-5" x1="9.61" y1="342.06" x2="18.46" y2="333.21"/><line class="cls-5" x1="17.26" y1="342.06" x2="18.46" y2="340.86"/><line class="cls-5" x1="0.38" y1="255.41" x2="2.12" y2="253.64"/><line class="cls-5" x1="3.08" y1="252.69" x2="3.08" y2="252.69"/><line class="cls-5" x1="4.06" y1="251.73" x2="4.11" y2="251.66"/><line class="cls-5" x1="0.38" y1="263.07" x2="1.16" y2="262.28"/><line class="cls-5" x1="2.12" y1="261.32" x2="2.12" y2="261.32"/><line class="cls-5" x1="3.08" y1="260.36" x2="5.97" y2="257.47"/><line class="cls-5" x1="6.93" y1="256.51" x2="6.93" y2="256.51"/><line class="cls-5" x1="7.88" y1="255.56" x2="10.75" y2="252.69"/><line class="cls-5" x1="11.71" y1="251.73" x2="11.71" y2="251.73"/><line class="cls-5" x1="1.16" y1="269.95" x2="1.16" y2="269.95"/><line class="cls-5" x1="2.12" y1="269" x2="5.01" y2="266.1"/><line class="cls-5" x1="5.97" y1="265.15" x2="5.97" y2="265.15"/><line class="cls-5" x1="6.93" y1="264.19" x2="9.8" y2="261.32"/><line class="cls-5" x1="10.75" y1="260.36" x2="10.75" y2="260.36"/><line class="cls-5" x1="11.71" y1="259.41" x2="14.58" y2="256.51"/><line class="cls-5" x1="15.56" y1="255.56" x2="15.56" y2="255.56"/><line class="cls-5" x1="16.52" y1="254.6" x2="18.46" y2="252.66"/><line class="cls-5" x1="1.16" y1="277.61" x2="4.06" y2="274.74"/><line class="cls-5" x1="5.01" y1="273.78" x2="5.01" y2="273.78"/><line class="cls-5" x1="5.97" y1="272.82" x2="8.84" y2="269.95"/><line class="cls-5" x1="9.8" y1="269" x2="9.8" y2="269"/><line class="cls-5" x1="10.75" y1="268.02" x2="13.62" y2="265.15"/><line class="cls-5" x1="14.58" y1="264.19" x2="14.58" y2="264.19"/><line class="cls-5" x1="15.56" y1="263.23" x2="18.43" y2="260.36"/><line class="cls-5" x1="0.38" y1="286.1" x2="3.08" y2="283.37"/><line class="cls-5" x1="4.06" y1="282.41" x2="4.06" y2="282.41"/><line class="cls-5" x1="5.01" y1="281.46" x2="7.88" y2="278.56"/><line class="cls-5" x1="8.84" y1="277.61" x2="8.84" y2="277.61"/><line class="cls-5" x1="9.8" y1="276.65" x2="12.67" y2="273.78"/><line class="cls-5" x1="13.62" y1="272.82" x2="13.62" y2="272.82"/><line class="cls-5" x1="14.58" y1="271.87" x2="17.47" y2="269"/><line class="cls-5" x1="18.43" y1="268.02" x2="18.43" y2="268.02"/><line class="cls-5" x1="0.38" y1="293.75" x2="2.12" y2="292"/><line class="cls-5" x1="3.08" y1="291.05" x2="3.08" y2="291.05"/><line class="cls-5" x1="4.06" y1="290.07" x2="6.93" y2="287.2"/><line class="cls-5" x1="7.88" y1="286.24" x2="7.88" y2="286.24"/><line class="cls-5" x1="8.84" y1="285.28" x2="11.71" y2="282.41"/><line class="cls-5" x1="12.67" y1="281.46" x2="12.67" y2="281.46"/><line class="cls-5" x1="13.62" y1="280.5" x2="16.52" y2="277.61"/><line class="cls-5" x1="17.47" y1="276.65" x2="17.47" y2="276.65"/><line class="cls-5" x1="18.43" y1="275.69" x2="18.46" y2="275.67"/><line class="cls-5" x1="0.38" y1="301.43" x2="1.16" y2="300.61"/><line class="cls-5" x1="2.12" y1="299.66" x2="2.12" y2="299.66"/><line class="cls-5" x1="3.08" y1="298.7" x2="5.97" y2="295.83"/><line class="cls-5" x1="6.93" y1="294.87" x2="6.93" y2="294.87"/><line class="cls-5" x1="7.88" y1="293.92" x2="10.75" y2="291.05"/><line class="cls-5" x1="11.71" y1="290.07" x2="11.71" y2="290.07"/><line class="cls-5" x1="12.67" y1="289.11" x2="15.56" y2="286.24"/><line class="cls-5" x1="16.52" y1="285.28" x2="16.52" y2="285.28"/><line class="cls-5" x1="17.47" y1="284.33" x2="18.46" y2="283.35"/><line class="cls-5" x1="1.16" y1="308.29" x2="1.16" y2="308.29"/><line class="cls-5" x1="2.12" y1="307.33" x2="5.01" y2="304.46"/><line class="cls-5" x1="5.97" y1="303.51" x2="5.97" y2="303.51"/><line class="cls-5" x1="6.93" y1="302.55" x2="9.8" y2="299.66"/><line class="cls-5" x1="10.75" y1="298.7" x2="10.75" y2="298.7"/><line class="cls-5" x1="11.71" y1="297.74" x2="14.58" y2="294.87"/><line class="cls-5" x1="15.56" y1="293.92" x2="15.56" y2="293.92"/><line class="cls-5" x1="16.52" y1="292.96" x2="18.46" y2="291.02"/><line class="cls-5" x1="1.16" y1="315.97" x2="4.06" y2="313.1"/><line class="cls-5" x1="5.01" y1="312.14" x2="5.01" y2="312.14"/><line class="cls-5" x1="5.97" y1="311.16" x2="8.84" y2="308.29"/><line class="cls-5" x1="9.8" y1="307.33" x2="9.8" y2="307.33"/><line class="cls-5" x1="10.75" y1="306.38" x2="13.62" y2="303.51"/><line class="cls-5" x1="14.58" y1="302.55" x2="14.58" y2="302.55"/><line class="cls-5" x1="15.56" y1="301.6" x2="18.43" y2="298.7"/><line class="cls-5" x1="0.38" y1="324.43" x2="3.08" y2="321.71"/><line class="cls-5" x1="4.06" y1="320.75" x2="4.06" y2="320.75"/><line class="cls-5" x1="5.01" y1="319.8" x2="7.88" y2="316.93"/><line class="cls-5" x1="8.84" y1="315.97" x2="8.84" y2="315.97"/><line class="cls-5" x1="9.8" y1="315.01" x2="12.67" y2="312.14"/><line class="cls-5" x1="13.62" y1="311.16" x2="13.62" y2="311.16"/><line class="cls-5" x1="14.58" y1="310.2" x2="17.47" y2="307.33"/><line class="cls-5" x1="18.43" y1="306.38" x2="18.43" y2="306.38"/><line class="cls-5" x1="0.38" y1="332.11" x2="2.12" y2="330.34"/><line class="cls-5" x1="3.08" y1="329.39" x2="3.08" y2="329.39"/><line class="cls-5" x1="4.06" y1="328.43" x2="6.93" y2="325.56"/><line class="cls-5" x1="7.88" y1="324.6" x2="7.88" y2="324.6"/><line class="cls-5" x1="8.84" y1="323.65" x2="11.71" y2="320.75"/><line class="cls-5" x1="12.67" y1="319.8" x2="12.67" y2="319.8"/><line class="cls-5" x1="13.62" y1="318.84" x2="16.52" y2="315.97"/><line class="cls-5" x1="17.47" y1="315.01" x2="17.47" y2="315.01"/><line class="cls-5" x1="18.43" y1="314.06" x2="18.46" y2="314.03"/><line class="cls-5" x1="0.38" y1="339.76" x2="1.16" y2="338.98"/><line class="cls-5" x1="2.12" y1="338.02" x2="2.12" y2="338.02"/><line class="cls-5" x1="3.08" y1="337.06" x2="5.97" y2="334.19"/><line class="cls-5" x1="6.93" y1="333.21" x2="6.93" y2="333.21"/><line class="cls-5" x1="7.88" y1="332.26" x2="10.75" y2="329.39"/><line class="cls-5" x1="11.71" y1="328.43" x2="11.71" y2="328.43"/><line class="cls-5" x1="12.67" y1="327.47" x2="15.56" y2="324.6"/><line class="cls-5" x1="16.52" y1="323.65" x2="16.52" y2="323.65"/><line class="cls-5" x1="17.47" y1="322.66" x2="18.46" y2="321.71"/><line class="cls-5" x1="5.97" y1="341.85" x2="5.97" y2="341.85"/><line class="cls-5" x1="6.93" y1="340.89" x2="9.8" y2="338.02"/><line class="cls-5" x1="10.75" y1="337.06" x2="10.75" y2="337.06"/><line class="cls-5" x1="11.71" y1="336.11" x2="14.58" y2="333.21"/><line class="cls-5" x1="15.56" y1="332.26" x2="15.56" y2="332.26"/><line class="cls-5" x1="16.52" y1="331.3" x2="18.46" y2="329.36"/><line class="cls-5" x1="13.43" y1="342.06" x2="13.62" y2="341.85"/><line class="cls-5" x1="14.58" y1="340.89" x2="14.58" y2="340.89"/><line class="cls-5" x1="15.56" y1="339.93" x2="18.43" y2="337.06"/><polyline class="cls-5" points="18.45 342.06 0.38 342.06 0.38 251.66 18.45 251.66 18.45 342.06"/><line class="cls-5" x1="389.06" y1="0.95" x2="389.63" y2="0.38"/><line class="cls-5" x1="389.06" y1="8.63" x2="397.31" y2="0.38"/><line class="cls-5" x1="389.06" y1="16.28" x2="404.96" y2="0.38"/><line class="cls-5" x1="389.06" y1="23.96" x2="407.14" y2="5.88"/><line class="cls-5" x1="389.06" y1="31.63" x2="407.14" y2="13.55"/><line class="cls-5" x1="389.06" y1="39.31" x2="407.14" y2="21.23"/><line class="cls-5" x1="389.06" y1="46.96" x2="407.14" y2="28.88"/><line class="cls-5" x1="389.06" y1="54.64" x2="407.14" y2="36.56"/><line class="cls-5" x1="389.06" y1="62.32" x2="407.14" y2="44.24"/><line class="cls-5" x1="389.06" y1="69.97" x2="407.14" y2="51.89"/><line class="cls-5" x1="389.06" y1="77.65" x2="407.14" y2="59.57"/><line class="cls-5" x1="389.06" y1="85.32" x2="407.14" y2="67.24"/><line class="cls-5" x1="391.28" y1="90.75" x2="407.14" y2="74.92"/><line class="cls-5" x1="398.96" y1="90.75" x2="407.14" y2="82.57"/><line class="cls-5" x1="406.61" y1="90.75" x2="407.14" y2="90.25"/><line class="cls-5" x1="389.46" y1="4.37" x2="392.33" y2="1.5"/><line class="cls-5" x1="393.29" y1="0.54" x2="393.29" y2="0.54"/><line class="cls-5" x1="389.06" y1="12.45" x2="391.38" y2="10.13"/><line class="cls-5" x1="392.33" y1="9.18" x2="392.33" y2="9.18"/><line class="cls-5" x1="393.29" y1="8.22" x2="396.18" y2="5.33"/><line class="cls-5" x1="397.14" y1="4.37" x2="397.14" y2="4.37"/><line class="cls-5" x1="398.1" y1="3.41" x2="400.97" y2="0.54"/><line class="cls-5" x1="389.06" y1="20.13" x2="390.42" y2="18.77"/><line class="cls-5" x1="391.38" y1="17.79" x2="391.38" y2="17.79"/><line class="cls-5" x1="392.33" y1="16.83" x2="395.2" y2="13.96"/><line class="cls-5" x1="396.18" y1="13" x2="396.18" y2="13"/><line class="cls-5" x1="397.14" y1="12.05" x2="400.01" y2="9.18"/><line class="cls-5" x1="400.97" y1="8.22" x2="400.97" y2="8.22"/><line class="cls-5" x1="401.92" y1="7.24" x2="404.79" y2="4.37"/><line class="cls-5" x1="405.75" y1="3.41" x2="405.75" y2="3.41"/><line class="cls-5" x1="406.73" y1="2.46" x2="407.14" y2="2.05"/><line class="cls-5" x1="389.06" y1="27.78" x2="389.46" y2="27.38"/><line class="cls-5" x1="390.42" y1="26.42" x2="390.42" y2="26.42"/><line class="cls-5" x1="391.38" y1="25.46" x2="394.25" y2="22.59"/><line class="cls-5" x1="395.2" y1="21.64" x2="395.2" y2="21.64"/><line class="cls-5" x1="396.18" y1="20.68" x2="399.05" y2="17.79"/><line class="cls-5" x1="400.01" y1="16.83" x2="400.01" y2="16.83"/><line class="cls-5" x1="400.97" y1="15.87" x2="403.84" y2="13"/><line class="cls-5" x1="404.79" y1="12.05" x2="404.79" y2="12.05"/><line class="cls-5" x1="405.75" y1="11.09" x2="407.14" y2="9.73"/><line class="cls-5" x1="389.46" y1="35.05" x2="389.46" y2="35.05"/><line class="cls-5" x1="390.42" y1="34.1" x2="393.29" y2="31.23"/><line class="cls-5" x1="394.25" y1="30.27" x2="394.25" y2="30.27"/><line class="cls-5" x1="395.2" y1="29.29" x2="398.1" y2="26.42"/><line class="cls-5" x1="399.05" y1="25.46" x2="399.05" y2="25.46"/><line class="cls-5" x1="400.01" y1="24.51" x2="402.88" y2="21.64"/><line class="cls-5" x1="403.84" y1="20.68" x2="403.84" y2="20.68"/><line class="cls-5" x1="404.79" y1="19.72" x2="407.14" y2="17.38"/><line class="cls-5" x1="389.46" y1="42.73" x2="392.33" y2="39.84"/><line class="cls-5" x1="393.29" y1="38.88" x2="393.29" y2="38.88"/><line class="cls-5" x1="394.25" y1="37.92" x2="397.14" y2="35.05"/><line class="cls-5" x1="398.1" y1="34.1" x2="398.1" y2="34.1"/><line class="cls-5" x1="399.05" y1="33.14" x2="401.92" y2="30.27"/><line class="cls-5" x1="402.88" y1="29.29" x2="402.88" y2="29.29"/><line class="cls-5" x1="403.84" y1="28.33" x2="406.73" y2="25.46"/><line class="cls-5" x1="389.06" y1="50.81" x2="391.38" y2="48.47"/><line class="cls-5" x1="392.33" y1="47.51" x2="392.33" y2="47.51"/><line class="cls-5" x1="393.29" y1="46.56" x2="396.18" y2="43.69"/><line class="cls-5" x1="397.14" y1="42.73" x2="397.14" y2="42.73"/><line class="cls-5" x1="398.1" y1="41.77" x2="400.97" y2="38.88"/><line class="cls-5" x1="401.92" y1="37.92" x2="401.92" y2="37.92"/><line class="cls-5" x1="402.88" y1="36.97" x2="405.75" y2="34.1"/><line class="cls-5" x1="406.73" y1="33.14" x2="406.73" y2="33.14"/><line class="cls-5" x1="389.06" y1="58.47" x2="390.42" y2="57.1"/><line class="cls-5" x1="391.38" y1="56.15" x2="391.38" y2="56.15"/><line class="cls-5" x1="392.33" y1="55.19" x2="395.2" y2="52.32"/><line class="cls-5" x1="396.18" y1="51.36" x2="396.18" y2="51.36"/><line class="cls-5" x1="397.14" y1="50.38" x2="400.01" y2="47.51"/><line class="cls-5" x1="400.97" y1="46.56" x2="400.97" y2="46.56"/><line class="cls-5" x1="401.92" y1="45.6" x2="404.79" y2="42.73"/><line class="cls-5" x1="405.75" y1="41.77" x2="405.75" y2="41.77"/><line class="cls-5" x1="406.73" y1="40.82" x2="407.14" y2="40.39"/><line class="cls-5" x1="389.06" y1="66.14" x2="389.46" y2="65.74"/><line class="cls-5" x1="390.42" y1="64.78" x2="390.42" y2="64.78"/><line class="cls-5" x1="391.38" y1="63.82" x2="394.25" y2="60.93"/><line class="cls-5" x1="395.2" y1="59.97" x2="395.2" y2="59.97"/><line class="cls-5" x1="396.18" y1="59.02" x2="399.05" y2="56.15"/><line class="cls-5" x1="400.01" y1="55.19" x2="400.01" y2="55.19"/><line class="cls-5" x1="400.97" y1="54.23" x2="403.84" y2="51.36"/><line class="cls-5" x1="404.79" y1="50.38" x2="404.79" y2="50.38"/><line class="cls-5" x1="405.75" y1="49.43" x2="407.14" y2="48.06"/><line class="cls-5" x1="389.46" y1="73.41" x2="389.46" y2="73.41"/><line class="cls-5" x1="390.42" y1="72.43" x2="393.29" y2="69.56"/><line class="cls-5" x1="394.25" y1="68.61" x2="394.25" y2="68.61"/><line class="cls-5" x1="395.2" y1="67.65" x2="398.1" y2="64.78"/><line class="cls-5" x1="399.05" y1="63.82" x2="399.05" y2="63.82"/><line class="cls-5" x1="400.01" y1="62.87" x2="402.88" y2="59.97"/><line class="cls-5" x1="403.84" y1="59.02" x2="403.84" y2="59.02"/><line class="cls-5" x1="404.79" y1="58.06" x2="407.14" y2="55.74"/><line class="cls-5" x1="389.46" y1="81.07" x2="392.33" y2="78.2"/><line class="cls-5" x1="393.29" y1="77.24" x2="393.29" y2="77.24"/><line class="cls-5" x1="394.25" y1="76.28" x2="397.14" y2="73.41"/><line class="cls-5" x1="398.1" y1="72.43" x2="398.1" y2="72.43"/><line class="cls-5" x1="399.05" y1="71.48" x2="401.92" y2="68.61"/><line class="cls-5" x1="402.88" y1="67.65" x2="402.88" y2="67.65"/><line class="cls-5" x1="403.84" y1="66.69" x2="406.73" y2="63.82"/><line class="cls-5" x1="389.06" y1="89.15" x2="391.38" y2="86.83"/><line class="cls-5" x1="392.33" y1="85.87" x2="392.33" y2="85.87"/><line class="cls-5" x1="393.29" y1="84.92" x2="396.18" y2="82.02"/><line class="cls-5" x1="397.14" y1="81.07" x2="397.14" y2="81.07"/><line class="cls-5" x1="398.1" y1="80.11" x2="400.97" y2="77.24"/><line class="cls-5" x1="401.92" y1="76.28" x2="401.92" y2="76.28"/><line class="cls-5" x1="402.88" y1="75.33" x2="405.75" y2="72.43"/><line class="cls-5" x1="406.73" y1="71.48" x2="406.73" y2="71.48"/><line class="cls-5" x1="395.11" y1="90.75" x2="395.2" y2="90.66"/><line class="cls-5" x1="396.18" y1="89.7" x2="396.18" y2="89.7"/><line class="cls-5" x1="397.14" y1="88.74" x2="400.01" y2="85.87"/><line class="cls-5" x1="400.97" y1="84.92" x2="400.97" y2="84.92"/><line class="cls-5" x1="401.92" y1="83.96" x2="404.79" y2="81.07"/><line class="cls-5" x1="405.75" y1="80.11" x2="405.75" y2="80.11"/><line class="cls-5" x1="406.73" y1="79.15" x2="407.14" y2="78.75"/><line class="cls-5" x1="402.78" y1="90.75" x2="403.84" y2="89.7"/><line class="cls-5" x1="404.79" y1="88.74" x2="404.79" y2="88.74"/><line class="cls-5" x1="405.75" y1="87.79" x2="407.14" y2="86.42"/><polyline class="cls-5" points="407.14 90.75 389.06 90.75 389.06 0.38 407.14 0.38 407.14 90.75"/><line class="cls-5" x1="0.38" y1="6.14" x2="6.14" y2="0.38"/><line class="cls-5" x1="0.38" y1="13.79" x2="13.79" y2="0.38"/><line class="cls-5" x1="0.38" y1="21.47" x2="18.46" y2="3.39"/><line class="cls-5" x1="0.38" y1="29.15" x2="18.46" y2="11.07"/><line class="cls-5" x1="0.38" y1="36.82" x2="18.46" y2="18.74"/><line class="cls-5" x1="0.38" y1="44.48" x2="18.46" y2="26.4"/><line class="cls-5" x1="0.38" y1="52.15" x2="18.46" y2="34.07"/><line class="cls-5" x1="0.38" y1="59.83" x2="18.46" y2="41.75"/><line class="cls-5" x1="0.38" y1="67.48" x2="18.46" y2="49.43"/><line class="cls-5" x1="0.38" y1="75.16" x2="18.46" y2="57.08"/><line class="cls-5" x1="0.38" y1="82.84" x2="18.46" y2="64.76"/><line class="cls-5" x1="0.38" y1="90.51" x2="18.46" y2="72.43"/><line class="cls-5" x1="7.79" y1="90.75" x2="18.46" y2="80.09"/><line class="cls-5" x1="15.44" y1="90.75" x2="18.46" y2="87.76"/><line class="cls-5" x1="1.16" y1="1.5" x2="1.16" y2="1.5"/><line class="cls-5" x1="2.12" y1="0.54" x2="2.29" y2="0.38"/><line class="cls-5" x1="1.16" y1="9.18" x2="4.06" y2="6.28"/><line class="cls-5" x1="5.01" y1="5.33" x2="5.01" y2="5.33"/><line class="cls-5" x1="5.97" y1="4.37" x2="8.84" y2="1.5"/><line class="cls-5" x1="9.8" y1="0.54" x2="9.8" y2="0.54"/><line class="cls-5" x1="0.38" y1="17.64" x2="3.08" y2="14.92"/><line class="cls-5" x1="4.06" y1="13.96" x2="4.06" y2="13.96"/><line class="cls-5" x1="5.01" y1="13" x2="7.88" y2="10.13"/><line class="cls-5" x1="8.84" y1="9.18" x2="8.84" y2="9.18"/><line class="cls-5" x1="9.8" y1="8.22" x2="12.67" y2="5.33"/><line class="cls-5" x1="13.62" y1="4.37" x2="13.62" y2="4.37"/><line class="cls-5" x1="14.58" y1="3.41" x2="17.47" y2="0.54"/><line class="cls-5" x1="0.38" y1="25.32" x2="2.12" y2="23.55"/><line class="cls-5" x1="3.08" y1="22.59" x2="3.08" y2="22.59"/><line class="cls-5" x1="4.06" y1="21.64" x2="6.93" y2="18.77"/><line class="cls-5" x1="7.88" y1="17.79" x2="7.88" y2="17.79"/><line class="cls-5" x1="8.84" y1="16.83" x2="11.71" y2="13.96"/><line class="cls-5" x1="12.67" y1="13" x2="12.67" y2="13"/><line class="cls-5" x1="13.62" y1="12.05" x2="16.52" y2="9.18"/><line class="cls-5" x1="17.47" y1="8.22" x2="17.47" y2="8.22"/><line class="cls-5" x1="18.43" y1="7.24" x2="18.46" y2="7.24"/><line class="cls-5" x1="0.38" y1="32.97" x2="1.16" y2="32.18"/><line class="cls-5" x1="2.12" y1="31.23" x2="2.12" y2="31.23"/><line class="cls-5" x1="3.08" y1="30.27" x2="5.97" y2="27.38"/><line class="cls-5" x1="6.93" y1="26.42" x2="6.93" y2="26.42"/><line class="cls-5" x1="7.88" y1="25.46" x2="10.75" y2="22.59"/><line class="cls-5" x1="11.71" y1="21.64" x2="11.71" y2="21.64"/><line class="cls-5" x1="12.67" y1="20.68" x2="15.56" y2="17.79"/><line class="cls-5" x1="16.52" y1="16.83" x2="16.52" y2="16.83"/><line class="cls-5" x1="17.47" y1="15.87" x2="18.46" y2="14.89"/><line class="cls-5" x1="1.16" y1="39.84" x2="1.16" y2="39.84"/><line class="cls-5" x1="2.12" y1="38.88" x2="5.01" y2="36.01"/><line class="cls-5" x1="5.97" y1="35.05" x2="5.97" y2="35.05"/><line class="cls-5" x1="6.93" y1="34.1" x2="9.8" y2="31.23"/><line class="cls-5" x1="10.75" y1="30.27" x2="10.75" y2="30.27"/><line class="cls-5" x1="11.71" y1="29.29" x2="14.58" y2="26.42"/><line class="cls-5" x1="15.56" y1="25.46" x2="15.56" y2="25.46"/><line class="cls-5" x1="16.52" y1="24.51" x2="18.46" y2="22.57"/><line class="cls-5" x1="1.16" y1="47.51" x2="4.06" y2="44.64"/><line class="cls-5" x1="5.01" y1="43.69" x2="5.01" y2="43.69"/><line class="cls-5" x1="5.97" y1="42.73" x2="8.84" y2="39.84"/><line class="cls-5" x1="9.8" y1="38.88" x2="9.8" y2="38.88"/><line class="cls-5" x1="10.75" y1="37.92" x2="13.62" y2="35.05"/><line class="cls-5" x1="14.58" y1="34.1" x2="14.58" y2="34.1"/><line class="cls-5" x1="15.56" y1="33.14" x2="18.43" y2="30.27"/><line class="cls-5" x1="0.38" y1="55.98" x2="3.08" y2="53.28"/><line class="cls-5" x1="4.06" y1="52.32" x2="4.06" y2="52.32"/><line class="cls-5" x1="5.01" y1="51.36" x2="7.88" y2="48.47"/><line class="cls-5" x1="8.84" y1="47.51" x2="8.84" y2="47.51"/><line class="cls-5" x1="9.8" y1="46.56" x2="12.67" y2="43.69"/><line class="cls-5" x1="13.62" y1="42.73" x2="13.62" y2="42.73"/><line class="cls-5" x1="14.58" y1="41.77" x2="17.47" y2="38.88"/><line class="cls-5" x1="18.43" y1="37.92" x2="18.43" y2="37.92"/><line class="cls-5" x1="0.38" y1="63.66" x2="2.12" y2="61.89"/><line class="cls-5" x1="3.08" y1="60.93" x2="3.08" y2="60.93"/><line class="cls-5" x1="4.06" y1="59.97" x2="6.93" y2="57.1"/><line class="cls-5" x1="7.88" y1="56.15" x2="7.88" y2="56.15"/><line class="cls-5" x1="8.84" y1="55.19" x2="11.71" y2="52.32"/><line class="cls-5" x1="12.67" y1="51.36" x2="12.67" y2="51.36"/><line class="cls-5" x1="13.62" y1="50.38" x2="16.52" y2="47.51"/><line class="cls-5" x1="17.47" y1="46.56" x2="17.47" y2="46.56"/><line class="cls-5" x1="18.43" y1="45.6" x2="18.46" y2="45.58"/><line class="cls-5" x1="0.38" y1="71.33" x2="1.16" y2="70.52"/><line class="cls-5" x1="2.12" y1="69.56" x2="2.12" y2="69.56"/><line class="cls-5" x1="3.08" y1="68.61" x2="5.97" y2="65.74"/><line class="cls-5" x1="6.93" y1="64.78" x2="6.93" y2="64.78"/><line class="cls-5" x1="7.88" y1="63.82" x2="10.75" y2="60.93"/><line class="cls-5" x1="11.71" y1="59.97" x2="11.71" y2="59.97"/><line class="cls-5" x1="12.67" y1="59.02" x2="15.56" y2="56.15"/><line class="cls-5" x1="16.52" y1="55.19" x2="16.52" y2="55.19"/><line class="cls-5" x1="17.47" y1="54.23" x2="18.46" y2="53.25"/><line class="cls-5" x1="1.16" y1="78.2" x2="1.16" y2="78.2"/><line class="cls-5" x1="2.12" y1="77.24" x2="5.01" y2="74.37"/><line class="cls-5" x1="5.97" y1="73.41" x2="5.97" y2="73.41"/><line class="cls-5" x1="6.93" y1="72.43" x2="9.8" y2="69.56"/><line class="cls-5" x1="10.75" y1="68.61" x2="10.75" y2="68.61"/><line class="cls-5" x1="11.71" y1="67.65" x2="14.58" y2="64.78"/><line class="cls-5" x1="15.56" y1="63.82" x2="15.56" y2="63.82"/><line class="cls-5" x1="16.52" y1="62.87" x2="18.46" y2="60.93"/><line class="cls-5" x1="1.16" y1="85.87" x2="4.06" y2="82.98"/><line class="cls-5" x1="5.01" y1="82.02" x2="5.01" y2="82.02"/><line class="cls-5" x1="5.97" y1="81.07" x2="8.84" y2="78.2"/><line class="cls-5" x1="9.8" y1="77.24" x2="9.8" y2="77.24"/><line class="cls-5" x1="10.75" y1="76.28" x2="13.62" y2="73.41"/><line class="cls-5" x1="14.58" y1="72.43" x2="14.58" y2="72.43"/><line class="cls-5" x1="15.56" y1="71.48" x2="18.43" y2="68.61"/><line class="cls-5" x1="4.06" y1="90.66" x2="4.06" y2="90.66"/><line class="cls-5" x1="5.01" y1="89.7" x2="7.88" y2="86.83"/><line class="cls-5" x1="8.84" y1="85.87" x2="8.84" y2="85.87"/><line class="cls-5" x1="9.8" y1="84.92" x2="12.67" y2="82.02"/><line class="cls-5" x1="13.62" y1="81.07" x2="13.62" y2="81.07"/><line class="cls-5" x1="14.58" y1="80.11" x2="17.47" y2="77.24"/><line class="cls-5" x1="18.43" y1="76.28" x2="18.43" y2="76.28"/><line class="cls-5" x1="11.62" y1="90.75" x2="11.71" y2="90.66"/><line class="cls-5" x1="12.67" y1="89.7" x2="12.67" y2="89.7"/><line class="cls-5" x1="13.62" y1="88.74" x2="16.52" y2="85.87"/><line class="cls-5" x1="17.47" y1="84.92" x2="17.47" y2="84.92"/><line class="cls-5" x1="18.43" y1="83.96" x2="18.46" y2="83.94"/><polyline class="cls-5" points="18.45 90.75 0.38 90.75 0.38 0.38 18.45 0.38 18.45 90.75"/><line class="cls-7" x1="388.62" y1="367.4" x2="387.12" y2="367.4"/><line class="cls-8" x1="384.08" y1="367.4" x2="227.11" y2="367.4"/><polyline class="cls-7" points="225.58 367.4 224.08 367.4 224.08 365.9"/><line class="cls-12" x1="224.08" y1="362.84" x2="224.08" y2="260.17"/><line class="cls-7" x1="224.08" y1="258.64" x2="224.08" y2="257.14"/></svg>