<svg id="_88" data-name="88" xmlns="http://www.w3.org/2000/svg" viewBox="0 0 474.02 822.57"><defs><style>.cls-1{isolation:isolate;font-size:12px;fill:#969696;}.cls-1,.cls-3,.cls-5{font-family:PTSans-Regular, PT Sans;}.cls-2,.cls-4,.cls-6,.cls-7{fill:none;stroke-linecap:round;stroke-linejoin:round;}.cls-2{stroke:#969696;stroke-width:0.75px;}.cls-3{font-size:40px;}.cls-4,.cls-6,.cls-7{stroke:#000;}.cls-4{stroke-width:0.5px;}.cls-5{font-size:36px;}.cls-7{stroke-width:0.25px;stroke-dasharray:1 1;}</style></defs><title>10floor_88flat</title><text class="cls-1" transform="translate(231.44 819.37)">двор</text><line class="cls-2" x1="220.68" y1="822.2" x2="220.68" y2="813.4"/><polyline class="cls-2" points="217.18 818.7 220.68 822.2 224.18 818.7"/><text class="cls-3" transform="translate(104.05 513.03)">2E</text><text class="cls-3" transform="translate(77.8 563.2)">46.02</text><text class="cls-3" transform="translate(83.42 463.13)">№88</text><polyline class="cls-4" points="63.51 574.02 63.51 424.95 187.84 424.95 187.84 574.02"/><line class="cls-4" x1="63.51" y1="474.73" x2="187.83" y2="474.73"/><line class="cls-4" x1="63.51" y1="574.02" x2="187.83" y2="574.02"/><line class="cls-4" x1="63.51" y1="524.52" x2="187.83" y2="524.52"/><text class="cls-5" transform="translate(83.37 653.9)">14.73</text><text class="cls-5" transform="translate(309.11 653.9)">16.04</text><text class="cls-5" transform="translate(47.81 327.99)">2.20</text><text class="cls-5" transform="translate(342.72 171.96)">7.47</text><text class="cls-5" transform="translate(248.41 88.76)">1.89</text><text class="cls-5" transform="translate(65.6 142.79)">3.69</text><line class="cls-6" x1="185.95" y1="730.58" x2="184.7" y2="722.76"/><polyline class="cls-6" points="186.78 731.24 186.03 731.32 185.95 730.58"/><polyline class="cls-6" points="187.86 722.34 187.12 717.68 184.87 702.88"/><line class="cls-6" x1="186.78" y1="731.24" x2="245.16" y2="722.18"/><line class="cls-6" x1="245.91" y1="693.49" x2="184.87" y2="702.88"/><polyline class="cls-6" points="103.62 748.04 186.62 735.23 186.03 731.32"/><line class="cls-6" x1="104.29" y1="715.36" x2="184.87" y2="702.88"/><line class="cls-6" x1="103.7" y1="744.05" x2="186.03" y2="731.32"/><line class="cls-6" x1="104.29" y1="715.36" x2="184.87" y2="702.88"/><polyline class="cls-6" points="103.95 730.49 108.28 729.83 108.78 732.9 110.69 732.65 110.94 734.15 104.7 735.15 103.87 735.23"/><polyline class="cls-6" points="187.86 722.34 181.63 723.26 181.38 721.68 183.29 721.43 182.87 718.27 187.12 717.68"/><line class="cls-6" x1="181.63" y1="723.26" x2="110.94" y2="734.15"/><polyline class="cls-6" points="108.03 728.25 112.69 727.58 177.97 717.44"/><polyline class="cls-6" points="112.69 727.58 113.43 732.24 108.78 732.9 108.03 728.25"/><polyline class="cls-6" points="183.29 721.43 178.63 722.09 177.97 717.44 182.62 716.77 183.29 721.43"/><line class="cls-6" x1="178.63" y1="722.09" x2="113.43" y2="732.24"/><line class="cls-6" x1="112.68" y1="727.58" x2="177.97" y2="717.44"/><line class="cls-6" x1="113.02" y1="729.91" x2="178.3" y2="719.76"/><line class="cls-6" x1="104.7" y1="735.15" x2="103.95" y2="730.49"/><polyline class="cls-6" points="184.87 702.88 187.12 717.68 187.86 722.34 187.12 717.68"/><line class="cls-6" x1="186.03" y1="731.32" x2="185.95" y2="730.58"/><polyline class="cls-6" points="184.7 722.76 185.53 722.67 184.7 722.76"/><polyline class="cls-6" points="185.53 722.67 187.86 722.34 185.53 722.67"/><line class="cls-6" x1="185.95" y1="730.58" x2="184.7" y2="722.76"/><line class="cls-6" x1="32.35" y1="728.5" x2="33.93" y2="720.85"/><polyline class="cls-6" points="31.35 729.16 32.19 729.33 32.35 728.5"/><polyline class="cls-6" points="30.85 720.18 31.77 715.61 34.76 700.97"/><line class="cls-6" x1="0.5" y1="722.8" x2="31.35" y2="729.16"/><line class="cls-6" x1="34.76" y1="700.97" x2="16.22" y2="697.24"/><polyline class="cls-6" points="103.62 748.04 31.35 733.15 32.19 729.33"/><line class="cls-6" x1="104.62" y1="715.36" x2="34.76" y2="700.97"/><line class="cls-6" x1="103.7" y1="744.05" x2="32.18" y2="729.33"/><line class="cls-6" x1="104.62" y1="715.36" x2="34.76" y2="700.97"/><polyline class="cls-6" points="104.12 730.49 99.88 729.58 99.3 732.65 97.3 732.32 97.05 733.82 103.2 735.07 103.95 735.23"/><polyline class="cls-6" points="30.85 720.18 37.01 721.51 37.26 719.93 35.34 719.51 36.01 716.44 31.77 715.61"/><line class="cls-6" x1="37.01" y1="721.51" x2="97.05" y2="733.82"/><polyline class="cls-6" points="100.21 728.08 95.55 727.08 40.92 715.86"/><polyline class="cls-6" points="95.55 727.08 94.64 731.74 99.3 732.65 100.21 728.08"/><polyline class="cls-6" points="35.34 719.51 40 720.51 40.92 715.86 36.34 714.94 35.34 719.51"/><line class="cls-6" x1="40" y1="720.51" x2="94.64" y2="731.74"/><line class="cls-6" x1="95.55" y1="727.08" x2="40.92" y2="715.86"/><line class="cls-6" x1="95.14" y1="729.41" x2="40.5" y2="718.18"/><line class="cls-6" x1="103.2" y1="735.07" x2="104.12" y2="730.49"/><polyline class="cls-6" points="34.76 700.97 31.77 715.61 30.85 720.18 31.77 715.61"/><line class="cls-6" x1="32.18" y1="729.33" x2="32.35" y2="728.5"/><polyline class="cls-6" points="33.93 720.85 33.1 720.68 33.93 720.85"/><polyline class="cls-6" points="33.1 720.68 30.85 720.18 33.1 720.68"/><line class="cls-6" x1="32.35" y1="728.5" x2="33.93" y2="720.85"/><line class="cls-6" x1="423.54" y1="728.58" x2="421.96" y2="720.85"/><polyline class="cls-6" points="424.46 729.16 423.71 729.33 423.54 728.58"/><polyline class="cls-6" points="425.04 720.26 424.13 715.61 421.13 700.97"/><polyline class="cls-6" points="424.46 729.16 473.52 719.07 473.52 697.33"/><line class="cls-6" x1="465.71" y1="691.82" x2="421.13" y2="700.97"/><polyline class="cls-6" points="351.77 748.12 424.54 733.15 423.71 729.33"/><line class="cls-6" x1="351.77" y1="715.27" x2="421.13" y2="700.97"/><line class="cls-6" x1="351.77" y1="744.13" x2="423.71" y2="729.33"/><line class="cls-6" x1="351.77" y1="715.27" x2="421.13" y2="700.97"/><polyline class="cls-6" points="351.77 730.49 356.02 729.66 356.6 732.74 358.51 732.32 358.84 733.82 352.69 735.15 351.77 735.32"/><polyline class="cls-6" points="425.04 720.26 418.89 721.51 418.55 719.93 420.55 719.6 419.88 716.52 424.13 715.61"/><line class="cls-6" x1="418.89" y1="721.51" x2="358.84" y2="733.82"/><polyline class="cls-6" points="355.68 728.08 360.26 727.17 414.98 715.86"/><polyline class="cls-6" points="360.26 727.17 361.25 731.74 356.6 732.74 355.68 728.08"/><polyline class="cls-6" points="420.55 719.6 415.89 720.51 414.98 715.86 419.55 714.94 420.55 719.6"/><line class="cls-6" x1="415.89" y1="720.51" x2="361.25" y2="731.74"/><line class="cls-6" x1="360.26" y1="727.17" x2="414.98" y2="715.86"/><line class="cls-6" x1="360.76" y1="729.41" x2="415.39" y2="718.18"/><line class="cls-6" x1="352.69" y1="735.15" x2="351.77" y2="730.49"/><polyline class="cls-6" points="421.13 700.97 424.13 715.61 425.04 720.26 424.13 715.61"/><line class="cls-6" x1="423.71" y1="729.33" x2="423.54" y2="728.58"/><polyline class="cls-6" points="421.96 720.85 422.71 720.68 421.96 720.85"/><polyline class="cls-6" points="422.71 720.68 425.04 720.26 422.71 720.68"/><line class="cls-6" x1="423.54" y1="728.58" x2="421.96" y2="720.85"/><line class="cls-6" x1="279.92" y1="728.58" x2="281.5" y2="720.85"/><polyline class="cls-6" points="279.01 729.16 279.84 729.33 279.92 728.58"/><polyline class="cls-6" points="278.43 720.26 279.42 715.61 282.42 700.97"/><line class="cls-6" x1="245.16" y1="722.18" x2="279.01" y2="729.16"/><line class="cls-6" x1="282.42" y1="700.97" x2="245.91" y2="693.49"/><polyline class="cls-6" points="351.77 748.12 279.01 733.15 279.84 729.33"/><line class="cls-6" x1="351.77" y1="715.27" x2="282.42" y2="700.97"/><line class="cls-6" x1="351.77" y1="744.13" x2="279.84" y2="729.33"/><line class="cls-6" x1="351.77" y1="715.27" x2="282.42" y2="700.97"/><polyline class="cls-6" points="351.77 730.49 347.53 729.66 346.87 732.74 344.95 732.32 344.62 733.82 350.78 735.15 351.77 735.32"/><polyline class="cls-6" points="278.43 720.26 284.58 721.51 284.91 719.93 283 719.6 283.67 716.52 279.42 715.61"/><line class="cls-6" x1="284.58" y1="721.51" x2="344.62" y2="733.82"/><polyline class="cls-6" points="347.87 728.08 343.21 727.17 288.57 715.86"/><polyline class="cls-6" points="343.21 727.17 342.29 731.74 346.87 732.74 347.87 728.08"/><polyline class="cls-6" points="283 719.6 287.66 720.51 288.57 715.86 284 714.94 283 719.6"/><line class="cls-6" x1="287.66" y1="720.51" x2="342.29" y2="731.74"/><line class="cls-6" x1="343.21" y1="727.17" x2="288.57" y2="715.86"/><line class="cls-6" x1="342.79" y1="729.41" x2="288.07" y2="718.18"/><line class="cls-6" x1="350.78" y1="735.15" x2="351.77" y2="730.49"/><polyline class="cls-6" points="282.42 700.97 279.42 715.61 278.43 720.26 279.42 715.61"/><line class="cls-6" x1="279.84" y1="729.33" x2="279.92" y2="728.58"/><polyline class="cls-6" points="281.5 720.85 280.75 720.68 281.5 720.85"/><polyline class="cls-6" points="280.75 720.68 278.43 720.26 280.75 720.68"/><line class="cls-6" x1="279.92" y1="728.58" x2="281.5" y2="720.85"/><line class="cls-6" x1="16.22" y1="233.85" x2="160" y2="233.85"/><line class="cls-6" x1="153.77" y1="227.61" x2="61.79" y2="227.61"/><polyline class="cls-6" points="55.55 227.61 16.22 227.61 16.22 233.85"/><line class="cls-6" x1="153.77" y1="123.08" x2="160" y2="123.08"/><line class="cls-6" x1="153.77" y1="178.05" x2="160" y2="178.05"/><polyline class="cls-6" points="160 233.85 160 227.61 160 178.05"/><line class="cls-6" x1="160" y1="123.08" x2="160" y2="115.18"/><line class="cls-6" x1="160" y1="108.94" x2="160" y2="61.79"/><polyline class="cls-6" points="160 55.47 160 16.22 153.77 16.22 153.77 123.08"/><line class="cls-6" x1="153.77" y1="178.05" x2="153.77" y2="182.04"/><line class="cls-6" x1="153.77" y1="188.28" x2="153.77" y2="227.61"/><line class="cls-6" x1="153.77" y1="178.05" x2="160" y2="178.05"/><line class="cls-6" x1="153.77" y1="123.08" x2="160" y2="123.08"/><polyline class="cls-6" points="20.13 182.04 20.13 185.12 20.13 188.28"/><polyline class="cls-6" points="153.77 182.04 51.56 182.04 51.56 185.12 51.56 188.28"/><polyline class="cls-6" points="20.13 182.04 16.22 182.04 16.22 188.28 20.13 188.28"/><line class="cls-6" x1="51.56" y1="188.28" x2="55.55" y2="188.28"/><line class="cls-6" x1="61.79" y1="188.28" x2="153.77" y2="188.28"/><line class="cls-6" x1="51.56" y1="182.04" x2="20.13" y2="182.04"/><line class="cls-6" x1="51.56" y1="188.28" x2="20.13" y2="188.28"/><path class="cls-6" d="M51.56,182.08a31.41,31.41,0,0,0-1.89-10.73"/><line class="cls-6" x1="20.13" y1="182.04" x2="49.73" y2="171.23"/><polyline class="cls-6" points="51.56 188.28 51.56 185.12 51.56 182.04 51.56 185.12"/><polyline class="cls-6" points="20.13 188.28 20.13 185.12 20.13 182.04 20.13 185.12"/><line class="cls-6" x1="61.79" y1="227.61" x2="61.79" y2="188.28"/><line class="cls-6" x1="55.55" y1="188.28" x2="55.55" y2="227.61"/><line class="cls-6" x1="244.08" y1="693.73" x2="244.08" y2="233.85"/><polyline class="cls-6" points="237.84 233.85 237.84 694.73 244.08 693.74"/><line class="cls-6" x1="252.73" y1="115.18" x2="252.73" y2="108.94"/><line class="cls-6" x1="307.78" y1="115.18" x2="307.78" y2="108.94"/><line class="cls-6" x1="160" y1="115.18" x2="252.73" y2="115.18"/><line class="cls-6" x1="307.78" y1="115.18" x2="329.74" y2="115.18"/><line class="cls-6" x1="323.5" y1="108.94" x2="307.78" y2="108.94"/><line class="cls-6" x1="252.73" y1="108.94" x2="197.76" y2="108.94"/><line class="cls-6" x1="191.44" y1="108.94" x2="160" y2="108.94"/><line class="cls-6" x1="307.78" y1="115.18" x2="307.78" y2="108.94"/><line class="cls-6" x1="252.73" y1="115.18" x2="252.73" y2="108.94"/><polyline class="cls-6" points="329.74 115.18 329.74 108.94 329.74 16.22 323.5 16.22 323.5 108.94"/><polyline class="cls-6" points="197.76 20.13 194.6 20.13 191.44 20.13"/><polyline class="cls-6" points="197.76 108.94 197.76 51.56 194.6 51.56 191.44 51.56"/><polyline class="cls-6" points="197.76 20.13 197.76 16.22 191.44 16.22 191.44 20.13"/><line class="cls-6" x1="191.44" y1="51.56" x2="191.44" y2="55.47"/><line class="cls-6" x1="191.44" y1="61.79" x2="191.44" y2="108.94"/><line class="cls-6" x1="197.76" y1="51.56" x2="197.76" y2="20.13"/><line class="cls-6" x1="191.44" y1="51.56" x2="191.44" y2="20.13"/><path class="cls-6" d="M197.8,51.56a31.47,31.47,0,0,0,10.74-1.89"/><line class="cls-6" x1="197.76" y1="20.13" x2="208.49" y2="49.65"/><polyline class="cls-6" points="191.44 51.56 194.6 51.56 197.76 51.56 194.6 51.56"/><polyline class="cls-6" points="191.44 20.13 194.6 20.13 197.76 20.13 194.6 20.13"/><line class="cls-6" x1="191.44" y1="55.47" x2="160" y2="55.47"/><line class="cls-6" x1="160" y1="61.79" x2="191.44" y2="61.79"/><line class="cls-6" x1="237.84" y1="233.85" x2="237.84" y2="227.61"/><line class="cls-6" x1="167.07" y1="233.85" x2="167.07" y2="227.61"/><line class="cls-6" x1="253.56" y1="233.85" x2="253.56" y2="227.61"/><line class="cls-6" x1="324.25" y1="233.85" x2="324.25" y2="227.61"/><line class="cls-6" x1="160" y1="233.85" x2="167.07" y2="233.85"/><line class="cls-6" x1="244.08" y1="233.85" x2="253.56" y2="233.85"/><polyline class="cls-6" points="324.25 233.85 457.81 233.85 457.81 227.61 324.25 227.61"/><line class="cls-6" x1="253.56" y1="227.61" x2="237.84" y2="227.61"/><polyline class="cls-6" points="167.07 227.61 160 227.61 160 233.85"/><line class="cls-6" x1="167.07" y1="233.85" x2="167.07" y2="227.61"/><line class="cls-6" x1="237.84" y1="233.85" x2="237.84" y2="227.61"/><line class="cls-6" x1="324.25" y1="233.85" x2="324.25" y2="227.61"/><line class="cls-6" x1="253.56" y1="233.85" x2="253.56" y2="227.61"/><polyline class="cls-6" points="449.99 16.22 449.99 6.74 449.99 0.5"/><polyline class="cls-6" points="314.02 16.22 371.4 16.22 371.4 6.74 371.4 0.5"/><line class="cls-6" x1="449.99" y1="16.22" x2="457.81" y2="16.22"/><line class="cls-6" x1="473.52" y1="16.22" x2="473.52" y2="16.22"/><line class="cls-6" x1="473.52" y1="0.5" x2="449.99" y2="0.5"/><line class="cls-6" x1="371.4" y1="0.5" x2="329.74" y2="0.5"/><polyline class="cls-6" points="371.4 0.5 371.65 0.5 371.73 0.5 371.82 0.5 372.07 0.5"/><line class="cls-6" x1="372.15" y1="0.5" x2="372.15" y2="0.5"/><line class="cls-6" x1="372.23" y1="0.5" x2="372.23" y2="0.5"/><line class="cls-6" x1="372.32" y1="0.5" x2="372.48" y2="0.5"/><line class="cls-6" x1="372.56" y1="0.5" x2="372.56" y2="0.5"/><line class="cls-6" x1="372.65" y1="0.5" x2="372.65" y2="0.5"/><polyline class="cls-6" points="372.73 0.5 372.98 0.5 373.06 0.5 373.15 0.5 373.4 0.5"/><line class="cls-6" x1="373.48" y1="0.5" x2="373.48" y2="0.5"/><line class="cls-6" x1="373.56" y1="0.5" x2="373.56" y2="0.5"/><polyline class="cls-6" points="373.65 0.5 373.89 0.5 373.98 0.5"/><line class="cls-6" x1="374.06" y1="0.5" x2="374.31" y2="0.5"/><line class="cls-6" x1="374.39" y1="0.5" x2="374.39" y2="0.5"/><line class="cls-6" x1="374.48" y1="0.5" x2="374.48" y2="0.5"/><line class="cls-6" x1="374.56" y1="0.5" x2="374.73" y2="0.5"/><line class="cls-6" x1="374.81" y1="0.5" x2="374.81" y2="0.5"/><line class="cls-6" x1="374.89" y1="0.5" x2="374.89" y2="0.5"/><line class="cls-6" x1="446.5" y1="0.5" x2="446.5" y2="0.5"/><line class="cls-6" x1="446.58" y1="0.5" x2="446.58" y2="0.5"/><line class="cls-6" x1="446.66" y1="0.5" x2="446.83" y2="0.5"/><line class="cls-6" x1="446.91" y1="0.5" x2="446.91" y2="0.5"/><line class="cls-6" x1="446.99" y1="0.5" x2="446.99" y2="0.5"/><line class="cls-6" x1="447.08" y1="0.5" x2="447.33" y2="0.5"/><polyline class="cls-6" points="447.41 0.5 447.49 0.5 447.74 0.5"/><line class="cls-6" x1="447.83" y1="0.5" x2="447.83" y2="0.5"/><line class="cls-6" x1="447.91" y1="0.5" x2="447.91" y2="0.5"/><polyline class="cls-6" points="447.99 0.5 448.24 0.5 448.32 0.5 448.41 0.5 448.66 0.5"/><line class="cls-6" x1="448.74" y1="0.5" x2="448.74" y2="0.5"/><line class="cls-6" x1="448.82" y1="0.5" x2="448.82" y2="0.5"/><line class="cls-6" x1="448.91" y1="0.5" x2="449.07" y2="0.5"/><line class="cls-6" x1="449.16" y1="0.5" x2="449.16" y2="0.5"/><line class="cls-6" x1="449.24" y1="0.5" x2="449.24" y2="0.5"/><polyline class="cls-6" points="449.32 0.5 449.57 0.5 449.66 0.5 449.74 0.5 449.99 0.5"/><path class="cls-6" d="M374.56,6.78a72.31,72.31,0,0,0,72.31,72.31"/><polyline class="cls-6" points="371.4 0.5 374.56 0.5 374.56 6.74 371.4 6.74 371.4 0.5"/><polyline class="cls-6" points="449.99 6.74 446.83 6.74 446.83 0.5 449.99 0.5 449.99 6.74"/><line class="cls-6" x1="446.83" y1="6.74" x2="446.83" y2="79.09"/><polyline class="cls-6" points="371.4 0.5 371.4 6.74 371.4 0.5"/><line class="cls-6" x1="371.4" y1="16.22" x2="371.4" y2="6.74"/><polyline class="cls-6" points="449.99 0.5 449.99 6.74 449.99 0.5"/><line class="cls-6" x1="449.99" y1="16.22" x2="449.99" y2="6.74"/><polyline class="cls-6" points="457.81 16.22 457.81 691.99 473.52 691.99 473.52 16.22"/><polyline class="cls-6" points="314.02 0.5 16.22 0.5 16.22 16.22 314.02 16.22"/><line class="cls-6" x1="23.04" y1="68.03" x2="23.04" y2="28.03"/><line class="cls-6" x1="27.53" y1="23.29" x2="124.74" y2="23.29"/><line class="cls-6" x1="27.53" y1="72.77" x2="124.74" y2="72.77"/><line class="cls-6" x1="152.19" y1="18.55" x2="18.55" y2="18.55"/><polyline class="cls-6" points="152.19 18.55 152.19 77.51 18.55 77.51 18.55 18.55"/><line class="cls-6" x1="109.11" y1="64.62" x2="33.02" y2="64.62"/><line class="cls-6" x1="30.77" y1="62.21" x2="30.77" y2="33.85"/><line class="cls-6" x1="109.11" y1="31.44" x2="33.02" y2="31.44"/><line class="cls-6" x1="46.41" y1="49.48" x2="46.41" y2="52.39"/><line class="cls-6" x1="45.07" y1="47.99" x2="42.33" y2="47.99"/><line class="cls-6" x1="46.41" y1="46.57" x2="46.41" y2="43.66"/><line class="cls-6" x1="47.82" y1="47.99" x2="50.56" y2="47.99"/><path class="cls-6" d="M124.78,72.77c12.93,0,23.41-11.08,23.41-24.74s-10.48-24.74-23.41-24.74"/><path class="cls-6" d="M27.57,23.37a4.58,4.58,0,0,0-4.45,4.7"/><path class="cls-6" d="M23.12,68.07a4.58,4.58,0,0,0,4.45,4.7"/><path class="cls-6" d="M46.45,50.48A2.46,2.46,0,1,0,44.16,48a2.37,2.37,0,0,0,2.29,2.45"/><path class="cls-6" d="M109.15,64.62c8.61,0,15.59-7.43,15.59-16.59s-7-16.59-15.59-16.59"/><path class="cls-6" d="M30.85,62.25a2.29,2.29,0,0,0,2.21,2.37"/><path class="cls-6" d="M33.06,31.52a2.29,2.29,0,0,0-2.21,2.37"/><path class="cls-6" d="M46.45,51.31A3.29,3.29,0,1,0,43.33,48a3.21,3.21,0,0,0,3.12,3.28"/><polyline class="cls-6" points="36.51 113.68 18.55 113.68 18.55 156.09 36.51 156.09"/><line class="cls-6" x1="18.55" y1="141.54" x2="18.55" y2="128.15"/><line class="cls-6" x1="33.02" y1="138.47" x2="33.02" y2="136.14"/><line class="cls-6" x1="29.44" y1="134.89" x2="31.69" y2="134.89"/><line class="cls-6" x1="33.02" y1="133.56" x2="33.02" y2="131.31"/><line class="cls-6" x1="34.26" y1="134.89" x2="36.59" y2="134.89"/><path class="cls-6" d="M37.67,116.34a18.87,18.87,0,0,0-9,7.33"/><path class="cls-6" d="M28.74,123.59a18.91,18.91,0,0,0-2.65,11.28"/><path class="cls-6" d="M28.72,146.19a19,19,0,0,0,9,7.34"/><path class="cls-6" d="M26.09,134.91a18.92,18.92,0,0,0,2.65,11.28"/><path class="cls-6" d="M50.8,133.45a35,35,0,0,0-3.5-12.87"/><path class="cls-6" d="M36.59,156.09a10.81,10.81,0,0,0,8.86-4"/><path class="cls-6" d="M50.84,136.42a21.17,21.17,0,0,0,0-3"/><path class="cls-6" d="M29.44,123.06a77.45,77.45,0,0,0,0,23.74"/><path class="cls-6" d="M22,149a26.64,26.64,0,0,0,17.33,6"/><path class="cls-6" d="M19.46,134.94a53.25,53.25,0,0,0,1.31,12.14"/><path class="cls-6" d="M20.8,147A3.52,3.52,0,0,0,22,149"/><path class="cls-6" d="M21.13,134.94a90.3,90.3,0,0,0,.86,12"/><path class="cls-6" d="M23.18,149a24,24,0,0,0,16.18,6"/><path class="cls-6" d="M22,146.89a3.58,3.58,0,0,0,1.16,2.17"/><path class="cls-6" d="M39.33,114.77a24,24,0,0,0-16.17,6"/><path class="cls-6" d="M39.3,114.85a26.66,26.66,0,0,0-17.32,6"/><path class="cls-6" d="M22,123a90.14,90.14,0,0,0-.85,12"/><path class="cls-6" d="M20.76,122.76a53.39,53.39,0,0,0-1.3,12.15"/><path class="cls-6" d="M23.15,120.81A3.53,3.53,0,0,0,22,123"/><path class="cls-6" d="M22,120.8a3.58,3.58,0,0,0-1.21,2"/><path class="cls-6" d="M45.45,117.71a10.81,10.81,0,0,0-8.86-4"/><path class="cls-6" d="M47.3,120.55a16.28,16.28,0,0,0-1.83-2.83"/><path class="cls-6" d="M45.47,152.14a16.2,16.2,0,0,0,1.83-2.82"/><path class="cls-6" d="M47.3,149.28a34.94,34.94,0,0,0,3.5-12.87"/><path class="cls-6" d="M47.79,140.77a24.8,24.8,0,0,0,0-11.68"/><path class="cls-6" d="M43,118.47a6.36,6.36,0,0,0-5.26-2.19"/><path class="cls-6" d="M47.8,129.11A22.91,22.91,0,0,0,43,118.54"/><path class="cls-6" d="M37.69,153.5A6.36,6.36,0,0,0,43,151.31"/><path class="cls-6" d="M43,151.32a22.91,22.91,0,0,0,4.85-10.57"/><path class="cls-6" d="M33.06,137.72a2.79,2.79,0,1,0-2.79-2.79,2.78,2.78,0,0,0,2.79,2.79"/><path class="cls-6" d="M33.06,136.89a2,2,0,1,0-2-2,2,2,0,0,0,2,2"/><line class="cls-6" x1="212.23" y1="65.28" x2="239.92" y2="65.28"/><polyline class="cls-6" points="210.48 66.53 200.09 66.53 200.09 36.59"/><line class="cls-6" x1="217.05" y1="51.56" x2="217.05" y2="40.5"/><polyline class="cls-6" points="239.92 65.28 217.05 62.62 217.05 51.56"/><line class="cls-6" x1="239.92" y1="37.84" x2="217.05" y2="40.5"/><line class="cls-6" x1="239.92" y1="64.62" x2="217.05" y2="61.96"/><line class="cls-6" x1="239.92" y1="38.5" x2="217.05" y2="41.17"/><line class="cls-6" x1="212.15" y1="37.84" x2="239.92" y2="37.84"/><line class="cls-6" x1="200.09" y1="36.59" x2="210.48" y2="36.59"/><polyline class="cls-6" points="239.92 65.28 243 64.95 245.83 63.79 248.41 61.87 250.48 59.38 251.9 56.47 252.65 53.22 252.65 49.9 251.9 46.66 250.48 43.74 248.41 41.25 245.83 39.34 243 38.17 239.92 37.84"/><polyline class="cls-6" points="239.92 64.62 242.83 64.2 245.58 63.12 247.99 61.29 249.9 58.96 251.23 56.22 251.98 53.14 251.98 49.98 251.23 46.9 249.9 44.16 247.99 41.83 245.58 40 242.83 38.92 239.92 38.51"/><path class="cls-6" d="M212.27,65a127.32,127.32,0,0,0,0-26.76"/><path class="cls-6" d="M210.52,66.53A1.75,1.75,0,0,0,212.3,65"/><path class="cls-6" d="M212.3,38.21a1.75,1.75,0,0,0-1.78-1.53"/><path class="cls-6" d="M208.15,51.6a1.46,1.46,0,1,0-1.45,1.46,1.45,1.45,0,0,0,1.45-1.46"/><polyline class="cls-6" points="20.13 281 63.37 281 63.37 237.76 20.13 237.76 20.13 281"/><polyline class="cls-6" points="24.12 277.1 59.46 277.1 59.46 245.66 24.12 245.66 24.12 277.1"/><polyline class="cls-6" points="321.09 32.6 321.09 18.55 288.07 18.55 288.07 32.6"/><line class="cls-6" x1="299.38" y1="18.55" x2="309.78" y2="18.55"/><line class="cls-6" x1="301.88" y1="29.77" x2="303.62" y2="29.77"/><line class="cls-6" x1="304.62" y1="27.03" x2="304.62" y2="28.77"/><line class="cls-6" x1="305.62" y1="29.77" x2="307.37" y2="29.77"/><line class="cls-6" x1="304.62" y1="30.85" x2="304.62" y2="32.6"/><path class="cls-6" d="M319.06,33.46a14.66,14.66,0,0,0-5.69-7"/><path class="cls-6" d="M313.4,26.48a14.61,14.61,0,0,0-8.75-2.06"/><path class="cls-6" d="M295.87,26.48a14.77,14.77,0,0,0-5.69,7"/><path class="cls-6" d="M304.68,24.42a14.61,14.61,0,0,0-8.75,2.06"/><path class="cls-6" d="M305.82,43.67a27.11,27.11,0,0,0,10-2.74"/><path class="cls-6" d="M288.16,32.61a8.5,8.5,0,0,0,3.12,7"/><path class="cls-6" d="M303.51,43.7a14.85,14.85,0,0,0,2.31,0"/><path class="cls-6" d="M313.9,27a59.83,59.83,0,0,0-18.46,0"/><path class="cls-6" d="M293.67,21.21A20.87,20.87,0,0,0,289,34.75"/><path class="cls-6" d="M304.64,19.3a41.12,41.12,0,0,0-9.44,1"/><path class="cls-6" d="M295.23,20.28a2.81,2.81,0,0,0-1.54.95"/><path class="cls-6" d="M304.68,20.63a68.9,68.9,0,0,0-9.3.67"/><path class="cls-6" d="M293.65,22.15A18.82,18.82,0,0,0,289,34.8"/><path class="cls-6" d="M295.38,21.23a2.81,2.81,0,0,0-1.7.92"/><path class="cls-6" d="M320.34,34.78a18.85,18.85,0,0,0-4.68-12.64"/><path class="cls-6" d="M320.34,34.72a21,21,0,0,0-4.7-13.54"/><path class="cls-6" d="M313.93,21.28a70.55,70.55,0,0,0-9.3-.65"/><path class="cls-6" d="M314.07,20.31a41.11,41.11,0,0,0-9.44-1"/><path class="cls-6" d="M315.65,22.15a2.79,2.79,0,0,0-1.71-.92"/><path class="cls-6" d="M315.63,21.23a2.72,2.72,0,0,0-1.54-.95"/><path class="cls-6" d="M318,39.56a8.47,8.47,0,0,0,3.12-7"/><path class="cls-6" d="M315.84,40.9a13.33,13.33,0,0,0,2.2-1.42"/><path class="cls-6" d="M291.29,39.48a13.68,13.68,0,0,0,2.19,1.42"/><path class="cls-6" d="M293.48,40.93a27.21,27.21,0,0,0,10,2.74"/><path class="cls-6" d="M300.13,41.37a19.06,19.06,0,0,0,9.07,0"/><path class="cls-6" d="M317.46,37.55a4.93,4.93,0,0,0,1.7-4.08"/><path class="cls-6" d="M309.19,41.39a17.9,17.9,0,0,0,8.24-3.79"/><path class="cls-6" d="M290.16,33.47a5,5,0,0,0,1.71,4.08"/><path class="cls-6" d="M291.9,37.6a17.85,17.85,0,0,0,8.24,3.79"/><path class="cls-6" d="M304.66,31.94a2.13,2.13,0,1,0-2.12-2.13,2.12,2.12,0,0,0,2.12,2.13"/><path class="cls-6" d="M304.66,31.35a1.54,1.54,0,1,0-1.54-1.54,1.54,1.54,0,0,0,1.54,1.54"/><polyline class="cls-6" points="102.95 745.88 102.54 745.79 93.81 788.12 94.22 788.21 102.95 745.88"/><polyline class="cls-6" points="92.39 789.45 92.48 789.04 21.62 774.49 21.54 774.9 92.39 789.45"/><polyline class="cls-6" points="20.38 772.99 20.71 773.07 29.44 730.74 29.02 730.66 20.38 772.99"/><polyline class="cls-6" points="103.7 744.05 101.79 743.63 101.38 745.54 103.29 745.96 103.7 744.05"/><polyline class="cls-6" points="94.64 788.29 92.73 787.87 92.31 789.79 94.22 790.2 94.64 788.29"/><polyline class="cls-6" points="21.46 775.23 21.87 773.32 19.96 772.9 19.54 774.82 21.46 775.23"/><polyline class="cls-6" points="28.69 730.58 30.6 730.99 31.02 729.08 29.02 728.66 28.69 730.58"/><line class="cls-6" x1="101.62" y1="744.63" x2="92.73" y2="787.87"/><line class="cls-6" x1="94.22" y1="790.2" x2="103.54" y2="744.96"/><line class="cls-6" x1="92.73" y1="787.87" x2="21.87" y2="773.32"/><line class="cls-6" x1="19.54" y1="774.82" x2="94.22" y2="790.2"/><line class="cls-6" x1="21.87" y1="773.32" x2="30.77" y2="729.99"/><line class="cls-6" x1="28.86" y1="729.66" x2="19.54" y2="774.82"/><polyline class="cls-6" points="103.54 744.96 103.7 744.05 101.79 743.63 101.62 744.63"/><polyline class="cls-6" points="30.77 729.99 31.02 729.08 29.02 728.66 28.86 729.66"/><polyline class="cls-6" points="19.54 774.82 94.22 790.2 103.54 744.96 101.62 744.63 92.73 787.87 21.87 773.32 30.77 729.99 28.86 729.66 19.54 774.82"/><polyline class="cls-6" points="26.28 761.76 93.22 775.57 98.3 750.95 31.35 737.14 26.28 761.76"/><polyline class="cls-6" points="26.78 759.35 93.72 773.07 98.3 750.95 31.35 737.14 26.78 759.35"/><polyline class="cls-6" points="16.22 0.5 16.22 691.99 0.5 691.99 0.5 0.5 64.84 0.5"/><polyline class="cls-6" points="0.5 629.12 16.22 629.12 16.22 697.24 0.5 693.92 0.5 629.12"/><polyline class="cls-6" points="457.81 707.71 473.52 707.71 473.52 629.12 457.81 629.12 457.81 707.71"/><polyline class="cls-6" points="457.81 369.82 473.52 369.82 473.52 291.23 457.81 291.23 457.81 369.82"/><polyline class="cls-6" points="237.84 519.1 253.56 519.1 253.56 597.68 237.84 597.68 237.84 519.1"/><polyline class="cls-6" points="237.84 291.23 253.56 291.23 253.56 369.82 237.84 369.82 237.84 291.23"/><polyline class="cls-6" points="167.07 16.22 167.07 0.5 245.66 0.5 245.66 16.22 167.07 16.22"/><polyline class="cls-6" points="457.81 79.09 473.52 79.09 473.52 0.5 457.81 0.5 457.81 79.09"/><line class="cls-6" x1="0.5" y1="693.03" x2="0.5" y2="722.8"/><line class="cls-7" x1="446.3" y1="0.5" x2="373.97" y2="0.5"/><line class="cls-7" x1="153.77" y1="122.75" x2="153.77" y2="178.37"/><line class="cls-7" x1="160" y1="122.75" x2="160" y2="177.58"/><line class="cls-7" x1="324.72" y1="233.84" x2="254.61" y2="233.84"/><line class="cls-7" x1="237.13" y1="233.84" x2="167.02" y2="233.84"/><line class="cls-7" x1="324.72" y1="227.62" x2="254.61" y2="227.62"/><line class="cls-7" x1="307.44" y1="115.42" x2="252.73" y2="115.42"/><line class="cls-7" x1="307.44" y1="108.7" x2="252.73" y2="108.7"/><line class="cls-7" x1="237.13" y1="227.62" x2="167.02" y2="227.62"/></svg>