<svg id="_17" data-name="17" xmlns="http://www.w3.org/2000/svg" viewBox="0 0 619.09 1874.36"><defs><style>.cls-1{isolation:isolate;font-size:12px;fill:#969696;}.cls-1,.cls-10,.cls-7,.cls-8{font-family:PTSans-Regular, PT Sans;}.cls-2{letter-spacing:-0.01em;}.cls-3,.cls-4,.cls-5,.cls-6,.cls-9{fill:none;stroke-linecap:round;stroke-linejoin:round;}.cls-3{stroke:#969696;stroke-width:0.75px;}.cls-4,.cls-5,.cls-6,.cls-9{stroke:#000;}.cls-4,.cls-5{stroke-width:0.25px;}.cls-5{stroke-dasharray:0.99 0.99;}.cls-6{stroke-width:1.5px;}.cls-7{font-size:50px;}.cls-8{font-size:40px;}.cls-9{stroke-width:0.5px;}.cls-10{font-size:36px;}</style></defs><text class="cls-1" transform="translate(301.41 1871.17)"><tspan class="cls-2">у</tspan><tspan x="5.42" y="0">лица</tspan></text><line class="cls-3" x1="290.65" y1="1873.99" x2="290.65" y2="1865.19"/><polyline class="cls-3" points="287.14 1870.49 290.64 1873.99 294.14 1870.49"/><text class="cls-1" transform="translate(303.97 10.2)">двор</text><line class="cls-3" x1="293.21" y1="4.22" x2="293.21" y2="13.02"/><polyline class="cls-3" points="296.71 7.72 293.21 4.22 289.71 7.72"/><line class="cls-4" x1="234.49" y1="1103.81" x2="234.49" y2="1103.31"/><line class="cls-5" x1="234.49" y1="1102.32" x2="234.49" y2="995.63"/><line class="cls-4" x1="234.49" y1="995.13" x2="234.49" y2="994.63"/><line class="cls-4" x1="227.48" y1="1103.81" x2="227.48" y2="1103.31"/><line class="cls-5" x1="227.48" y1="1102.32" x2="227.48" y2="995.63"/><line class="cls-4" x1="227.48" y1="995.13" x2="227.48" y2="994.63"/><rect class="cls-4" x="404.53" y="1680.4" width="161.47" height="126.41"/><line class="cls-4" x1="404.53" y1="1680.4" x2="566" y2="1806.81"/><line class="cls-4" x1="565.85" y1="1681.97" x2="404.67" y2="1806.81"/><line class="cls-6" x1="275.48" y1="1680.4" x2="339.18" y2="1680.4"/><line class="cls-6" x1="254.53" y1="1679.47" x2="360.13" y2="1679.47"/><line class="cls-6" x1="275.48" y1="1690.83" x2="339.18" y2="1690.83"/><polyline class="cls-6" points="360.13 1679.47 360.13 1644.67 254.53 1644.67"/><line class="cls-6" x1="254.53" y1="1679.47" x2="254.53" y2="1644.67"/><polyline class="cls-6" points="14.69 1680.4 14.69 1679.47 14.69 1680.4"/><polyline class="cls-6" points="14.69 1679.47 14.69 1644.67 14.69 1679.47"/><polyline class="cls-6" points="217.04 318.75 217.04 301.3 217.04 301.3 217.04 318.75 217.04 318.75"/><line class="cls-6" x1="265.88" y1="82.42" x2="217.05" y2="82.42"/><line class="cls-6" x1="449.96" y1="82.42" x2="357.46" y2="82.42"/><line class="cls-6" x1="618.34" y1="82.42" x2="541.53" y2="82.42"/><line class="cls-6" x1="217.05" y1="82.42" x2="217.05" y2="82.42"/><line class="cls-6" x1="262.37" y1="83.25" x2="234.49" y2="83.25"/><line class="cls-6" x1="446.45" y1="83.25" x2="360.96" y2="83.25"/><line class="cls-6" x1="618.34" y1="83.25" x2="545.04" y2="83.25"/><line class="cls-6" x1="234.49" y1="83.25" x2="217.05" y2="83.25"/><line class="cls-6" x1="360.96" y1="89.34" x2="360.96" y2="118.14"/><line class="cls-6" x1="357.46" y1="71.89" x2="357.46" y2="82.42"/><line class="cls-6" x1="360.96" y1="83.25" x2="360.96" y2="89.34"/><line class="cls-6" x1="262.37" y1="89.34" x2="262.37" y2="118.14"/><line class="cls-6" x1="265.88" y1="71.89" x2="265.88" y2="82.42"/><line class="cls-6" x1="262.37" y1="83.25" x2="262.37" y2="89.34"/><line class="cls-6" x1="618.34" y1="89.34" x2="618.34" y2="118.14"/><line class="cls-6" x1="618.34" y1="71.89" x2="618.34" y2="82.42"/><line class="cls-6" x1="618.34" y1="83.25" x2="618.34" y2="89.34"/><line class="cls-6" x1="545.04" y1="89.34" x2="545.04" y2="118.14"/><line class="cls-6" x1="541.53" y1="71.89" x2="541.53" y2="82.42"/><line class="cls-6" x1="545.04" y1="83.25" x2="545.04" y2="89.34"/><line class="cls-6" x1="446.45" y1="89.34" x2="446.45" y2="118.14"/><line class="cls-6" x1="449.96" y1="71.89" x2="449.96" y2="82.42"/><line class="cls-6" x1="446.45" y1="83.25" x2="446.45" y2="89.34"/><line class="cls-6" x1="618.34" y1="71.89" x2="541.53" y2="71.89"/><line class="cls-6" x1="449.96" y1="71.89" x2="357.46" y2="71.89"/><line class="cls-6" x1="265.88" y1="71.89" x2="217.05" y2="71.89"/><line class="cls-6" x1="234.49" y1="118.14" x2="262.37" y2="118.14"/><line class="cls-6" x1="360.96" y1="118.14" x2="446.45" y2="118.14"/><line class="cls-6" x1="545.04" y1="118.14" x2="618.34" y2="118.14"/><polyline class="cls-6" points="357.46 71.89 265.88 71.89 265.88 67.56 357.46 67.56 357.46 71.89"/><line class="cls-6" x1="262.37" y1="118.14" x2="360.96" y2="118.14"/><polyline class="cls-6" points="262.37 89.34 271.14 89.34 271.14 83.25 262.37 83.25"/><polyline class="cls-6" points="360.96 83.25 352.29 83.25 352.29 89.34 360.96 89.34"/><line class="cls-6" x1="271.14" y1="86.29" x2="352.29" y2="86.29"/><line class="cls-6" x1="271.14" y1="89.34" x2="352.29" y2="89.34"/><line class="cls-6" x1="352.29" y1="83.25" x2="271.14" y2="83.25"/><polyline class="cls-6" points="262.37 89.34 262.37 83.25 262.37 89.34"/><polyline class="cls-6" points="262.37 83.25 265.88 83.25 262.37 83.25"/><polyline class="cls-6" points="265.88 71.89 265.88 82.42 265.88 83.25"/><line class="cls-6" x1="262.37" y1="89.34" x2="262.37" y2="118.14"/><polyline class="cls-6" points="360.96 89.34 360.96 83.25 360.96 89.34"/><polyline class="cls-6" points="360.96 83.25 357.46 83.25 360.96 83.25"/><polyline class="cls-6" points="357.46 71.89 357.46 82.42 357.46 83.25"/><line class="cls-6" x1="360.96" y1="89.34" x2="360.96" y2="118.14"/><polyline class="cls-6" points="618.34 89.34 618.34 83.25 618.34 89.34"/><polyline class="cls-6" points="618.34 83.25 618.34 83.25 618.34 83.25"/><polyline class="cls-6" points="618.34 71.89 618.34 82.42 618.34 83.25"/><line class="cls-6" x1="618.34" y1="89.34" x2="618.34" y2="118.14"/><polyline class="cls-6" points="541.53 71.89 449.96 71.89 449.96 67.56 541.53 67.56 541.53 71.89"/><line class="cls-6" x1="446.45" y1="118.14" x2="545.04" y2="118.14"/><polyline class="cls-6" points="446.45 89.34 455.22 89.34 455.22 83.25 446.45 83.25"/><polyline class="cls-6" points="545.04 83.25 536.27 83.25 536.27 89.34 545.04 89.34"/><line class="cls-6" x1="455.22" y1="86.29" x2="536.27" y2="86.29"/><line class="cls-6" x1="455.22" y1="89.34" x2="536.27" y2="89.34"/><line class="cls-6" x1="536.27" y1="83.25" x2="455.22" y2="83.25"/><polyline class="cls-6" points="446.45 89.34 446.45 83.25 446.45 89.34"/><polyline class="cls-6" points="446.45 83.25 449.96 83.25 446.45 83.25"/><polyline class="cls-6" points="449.96 71.89 449.96 82.42 449.96 83.25"/><line class="cls-6" x1="446.45" y1="89.34" x2="446.45" y2="118.14"/><polyline class="cls-6" points="545.04 89.34 545.04 83.25 545.04 89.34"/><polyline class="cls-6" points="545.04 83.25 541.53 83.25 545.04 83.25"/><polyline class="cls-6" points="541.53 71.89 541.53 82.42 541.53 83.25"/><line class="cls-6" x1="545.04" y1="89.34" x2="545.04" y2="118.14"/><line class="cls-6" x1="575.6" y1="1679.47" x2="547.63" y2="1679.47"/><line class="cls-6" x1="575.6" y1="1662.03" x2="547.63" y2="1662.03"/><polyline class="cls-6" points="556.4 1679.47 556.4 1662.03 547.63 1662.03 547.63 1679.47 556.4 1679.47"/><polyline class="cls-6" points="575.6 1679.47 575.6 1662.03 575.6 1662.03 575.6 1679.47 575.6 1679.47"/><line class="cls-6" x1="575.6" y1="1675.13" x2="556.4" y2="1675.13"/><polyline class="cls-6" points="575.6 1662.03 575.6 1679.47 575.6 1662.03"/><polyline class="cls-6" points="547.63 1662.03 547.63 1679.47 547.63 1662.03"/><polyline class="cls-6" points="360.13 1679.47 368.81 1679.47 368.81 1662.03 360.13 1662.03"/><polyline class="cls-6" points="416.81 1662.03 408.05 1662.03 408.05 1679.47 416.81 1679.47"/><line class="cls-6" x1="368.81" y1="1670.8" x2="408.05" y2="1670.8"/><line class="cls-6" x1="368.81" y1="1679.47" x2="408.05" y2="1679.47"/><line class="cls-6" x1="408.05" y1="1662.03" x2="368.81" y2="1662.03"/><polyline class="cls-6" points="360.13 1662.03 360.13 1679.47 360.13 1662.03"/><polyline class="cls-6" points="416.81 1662.03 416.81 1679.47 416.81 1662.03"/><path class="cls-6" d="M464.57,1707.77a78.51,78.51,0,0,0,78.51,78.51" transform="translate(0.25 -28.34)"/><path class="cls-6" d="M421,1751.39a43.62,43.62,0,0,0,43.62-43.62" transform="translate(0.25 -28.34)"/><polyline class="cls-6" points="543.29 1749.26 543.29 1688.24 541.07 1688.24 541.07 1749.26 543.29 1749.26"/><polyline class="cls-6" points="541.07 1749.26 541.07 1688.24 538.95 1688.24 538.95 1749.26 541.07 1749.26"/><polyline class="cls-6" points="421.15 1688.24 423.37 1688.24 423.37 1714.37 421.15 1714.37 421.15 1688.24"/><polyline class="cls-6" points="423.37 1688.24 425.49 1688.24 425.49 1714.37 423.37 1714.37 423.37 1688.24"/><polyline class="cls-6" points="421.15 1673.38 421.15 1679.47 416.81 1679.47 416.81 1673.38 421.15 1673.38"/><polyline class="cls-6" points="547.63 1679.47 543.29 1679.47 543.29 1673.38 547.63 1673.38"/><polyline class="cls-6" points="543.29 1758.03 543.29 1749.26 538.95 1749.26 538.95 1758.03 543.29 1758.03"/><polyline class="cls-6" points="538.95 1679.47 538.95 1688.24 543.29 1688.24 543.29 1679.47 538.95 1679.47"/><line class="cls-6" x1="541.07" y1="1749.26" x2="541.07" y2="1688.24"/><polyline class="cls-6" points="421.15 1723.14 421.15 1714.37 425.49 1714.37 425.49 1723.14 421.15 1723.14"/><polyline class="cls-6" points="425.49 1679.47 425.49 1688.24 421.15 1688.24 421.15 1679.47 425.49 1679.47"/><line class="cls-6" x1="423.37" y1="1714.37" x2="423.37" y2="1688.24"/><polyline class="cls-6" points="416.81 1662.03 416.81 1673.38 416.81 1679.47 416.81 1673.38"/><polyline class="cls-6" points="14.69 1644.67 14.69 1061.98 0.75 1061.98 0.75 1644.67 14.69 1644.67"/><line class="cls-6" x1="217.05" y1="336.19" x2="217.05" y2="911.96"/><polyline class="cls-6" points="234.49 929.32 234.49 336.19 217.04 336.19"/><line class="cls-6" x1="217.05" y1="911.96" x2="0.75" y2="911.96"/><polyline class="cls-6" points="234.49 929.32 217.04 929.32 18.2 929.32 18.2 1061.98"/><polyline class="cls-6" points="0.75 911.96 0.75 929.32 0.75 1061.98 18.2 1061.98"/><line class="cls-6" x1="574.67" y1="1662.03" x2="574.67" y2="929.32"/><polyline class="cls-6" points="548.55 929.32 557.23 929.32 557.23 1662.03"/><polyline class="cls-6" points="574.67 929.32 574.67 929.32 574.67 911.96 566 911.96"/><line class="cls-6" x1="548.55" y1="911.96" x2="548.55" y2="929.32"/><polyline class="cls-6" points="618.34 843.93 618.34 118.14 600.89 118.14 600.89 826.48"/><line class="cls-6" x1="234.49" y1="686.9" x2="278.07" y2="686.9"/><polyline class="cls-6" points="288.59 676.38 234.49 676.38 234.49 686.9"/><line class="cls-6" x1="278.07" y1="686.9" x2="278.07" y2="721.79"/><polyline class="cls-6" points="288.59 676.38 288.59 686.9 288.59 732.23"/><polyline class="cls-6" points="278.06 721.79 234.49 721.79 234.49 732.23"/><polyline class="cls-6" points="288.59 732.23 278.06 732.23 234.49 732.23"/><line class="cls-6" x1="14.69" y1="1268.67" x2="58.26" y2="1268.67"/><polyline class="cls-6" points="68.79 1258.24 14.69 1258.24 14.69 1268.67"/><line class="cls-6" x1="58.26" y1="1268.67" x2="58.26" y2="1303.57"/><polyline class="cls-6" points="68.79 1258.24 68.79 1268.67 68.79 1314"/><polyline class="cls-6" points="58.26 1303.57 14.69 1303.57 14.69 1314"/><polyline class="cls-6" points="68.79 1314 58.26 1314 14.69 1314"/><line class="cls-6" x1="227.48" y1="1007.88" x2="234.49" y2="1007.88"/><line class="cls-6" x1="227.48" y1="1099.46" x2="234.49" y2="1099.46"/><line class="cls-6" x1="227.48" y1="929.32" x2="227.48" y2="1007.88"/><line class="cls-6" x1="227.48" y1="1099.46" x2="227.48" y2="1125.58"/><line class="cls-6" x1="234.49" y1="1132.6" x2="234.49" y2="1099.46"/><polyline class="cls-6" points="234.49 1007.88 234.49 929.32 227.48 929.32"/><polyline class="cls-6" points="227.48 1125.58 14.69 1125.58 14.69 1132.6"/><polyline class="cls-6" points="234.49 1132.6 227.48 1132.6 14.69 1132.6"/><line class="cls-6" x1="574.67" y1="1461.42" x2="574.67" y2="1662.03"/><line class="cls-6" x1="548.55" y1="1461.42" x2="548.55" y2="1662.03"/><line class="cls-6" x1="547.63" y1="1461.42" x2="547.63" y2="1662.03"/><line class="cls-6" x1="557.23" y1="1662.03" x2="557.23" y2="1461.42"/><line class="cls-6" x1="234.49" y1="318.74" x2="234.49" y2="301.3"/><polyline class="cls-6" points="217.04 301.3 217.04 318.75 234.49 318.75"/><polyline class="cls-6" points="600.89 826.48 548.55 826.48 548.55 843.93"/><polyline class="cls-6" points="618.34 843.93 600.89 843.93 566 843.93 566 911.96"/><line class="cls-6" x1="548.55" y1="843.93" x2="548.55" y2="911.96"/><polyline class="cls-6" points="416.81 1461.42 416.81 1452.75 408.05 1452.75"/><path class="cls-6" d="M464.57,1489.72a78.51,78.51,0,0,0,78.51,78.51" transform="translate(0.25 -28.34)"/><path class="cls-6" d="M421,1533.34a43.62,43.62,0,0,0,43.62-43.62" transform="translate(0.25 -28.34)"/><polyline class="cls-6" points="543.29 1531.21 543.29 1470.19 541.07 1470.19 541.07 1531.21 543.29 1531.21"/><polyline class="cls-6" points="541.07 1531.21 541.07 1470.19 538.95 1470.19 538.95 1531.21 541.07 1531.21"/><polyline class="cls-6" points="421.15 1470.19 423.37 1470.19 423.37 1496.32 421.15 1496.32 421.15 1470.19"/><polyline class="cls-6" points="423.37 1470.19 425.49 1470.19 425.49 1496.32 423.37 1496.32 423.37 1470.19"/><line class="cls-6" x1="550.3" y1="1461.42" x2="557.23" y2="1461.42"/><line class="cls-6" x1="550.3" y1="1452.75" x2="557.23" y2="1452.75"/><polyline class="cls-6" points="421.15 1452.75 421.15 1461.42 416.81 1461.42 416.81 1452.75 421.15 1452.75"/><polyline class="cls-6" points="550.3 1452.75 550.3 1461.42 543.29 1461.42 543.29 1452.75 550.3 1452.75"/><polyline class="cls-6" points="543.29 1539.98 543.29 1531.21 538.95 1531.21 538.95 1539.98 543.29 1539.98"/><polyline class="cls-6" points="538.95 1461.42 538.95 1470.19 543.29 1470.19 543.29 1461.42 538.95 1461.42"/><line class="cls-6" x1="541.07" y1="1531.22" x2="541.07" y2="1470.19"/><polyline class="cls-6" points="421.15 1505.09 421.15 1496.32 425.49 1496.32 425.49 1505.09 421.15 1505.09"/><polyline class="cls-6" points="425.49 1461.42 425.49 1470.19 421.15 1470.19 421.15 1461.42 425.49 1461.42"/><line class="cls-6" x1="423.37" y1="1496.32" x2="423.37" y2="1470.19"/><polyline class="cls-6" points="416.81 1452.75 416.81 1461.42 416.81 1452.75"/><line class="cls-6" x1="416.82" y1="1679.47" x2="408.05" y2="1679.47"/><polyline class="cls-6" points="416.81 1461.42 408.05 1461.42 408.05 1452.75"/><line class="cls-6" x1="416.82" y1="1461.42" x2="416.82" y2="1679.47"/><line class="cls-6" x1="408.05" y1="1461.42" x2="408.05" y2="1679.47"/><line class="cls-6" x1="416.82" y1="1461.42" x2="416.82" y2="1465.86"/><line class="cls-6" x1="416.82" y1="1465.86" x2="408.05" y2="1465.86"/><line class="cls-6" x1="408.05" y1="1465.86" x2="408.05" y2="1461.42"/><line class="cls-6" x1="408.05" y1="1563.89" x2="408.05" y2="1559.56"/><line class="cls-6" x1="408.05" y1="1559.56" x2="416.82" y2="1559.56"/><line class="cls-6" x1="416.82" y1="1559.56" x2="416.82" y2="1563.89"/><line class="cls-6" x1="412.48" y1="1465.86" x2="412.48" y2="1559.56"/><line class="cls-6" x1="416.82" y1="1465.86" x2="416.82" y2="1559.56"/><line class="cls-6" x1="408.05" y1="1559.56" x2="408.05" y2="1465.86"/><line class="cls-6" x1="416.82" y1="1563.89" x2="416.82" y2="1568.33"/><line class="cls-6" x1="416.82" y1="1568.33" x2="408.05" y2="1568.33"/><line class="cls-6" x1="408.05" y1="1568.33" x2="408.05" y2="1563.89"/><line class="cls-6" x1="412.48" y1="1568.33" x2="412.48" y2="1662.03"/><line class="cls-6" x1="416.82" y1="1568.33" x2="416.82" y2="1662.03"/><line class="cls-6" x1="408.05" y1="1662.03" x2="408.05" y2="1568.33"/><line class="cls-6" x1="128.98" y1="1679.47" x2="28.63" y2="1679.47"/><line class="cls-6" x1="128.98" y1="1662.03" x2="28.63" y2="1662.03"/><polyline class="cls-6" points="128.98 1679.47 122.42 1679.47 122.42 1677.35 120.21 1677.35 120.21 1662.03 128.98 1662.03"/><polyline class="cls-6" points="28.63 1662.03 32.14 1662.03 40.81 1662.03 40.81 1677.35 38.69 1677.35 38.69 1679.47 32.14 1679.47 28.63 1679.47"/><line class="cls-6" x1="38.69" y1="1681.69" x2="111.16" y2="1723.6"/><line class="cls-6" x1="40.81" y1="1662.03" x2="120.21" y2="1662.03"/><polyline class="cls-6" points="122.42 1681.69 118.08 1681.69 43.03 1681.69"/><polyline class="cls-6" points="118.08 1681.69 118.08 1677.35 122.42 1677.35 122.42 1681.69"/><polyline class="cls-6" points="38.69 1677.35 43.03 1677.35 43.03 1681.69 38.69 1681.69 38.69 1677.35"/><line class="cls-6" x1="43.03" y1="1677.35" x2="118.08" y2="1677.35"/><line class="cls-6" x1="118.08" y1="1681.69" x2="43.03" y2="1681.69"/><line class="cls-6" x1="118.08" y1="1679.47" x2="43.03" y2="1679.47"/><line class="cls-6" x1="32.14" y1="1662.03" x2="32.14" y2="1679.47"/><path class="cls-6" d="M111,1751.87A83.78,83.78,0,0,0,122.26,1710" transform="translate(0.25 -28.34)"/><polyline class="cls-6" points="128.98 1662.03 128.98 1679.47 128.98 1662.03"/><polyline class="cls-6" points="28.63 1662.03 28.63 1679.47 28.63 1662.03"/><polyline class="cls-6" points="151.59 1679.47 160.36 1679.47 160.36 1662.03 151.59 1662.03"/><polyline class="cls-6" points="254.53 1662.03 245.85 1662.03 245.85 1679.47 254.53 1679.47"/><line class="cls-6" x1="160.36" y1="1670.8" x2="245.85" y2="1670.8"/><line class="cls-6" x1="160.36" y1="1679.47" x2="245.85" y2="1679.47"/><line class="cls-6" x1="245.85" y1="1662.03" x2="160.36" y2="1662.03"/><polyline class="cls-6" points="151.59 1662.03 151.59 1679.47 151.59 1662.03"/><polyline class="cls-6" points="254.53 1662.03 254.53 1679.47 254.53 1662.03"/><line class="cls-6" x1="120.21" y1="1679.47" x2="160.36" y2="1679.47"/><line class="cls-6" x1="120.21" y1="1662.03" x2="160.36" y2="1662.03"/><polyline class="cls-6" points="151.59 1679.47 151.59 1662.03 160.36 1662.03 160.36 1679.47 151.59 1679.47"/><polyline class="cls-6" points="120.21 1679.47 120.21 1662.03 128.98 1662.03 128.98 1679.47 120.21 1679.47"/><line class="cls-6" x1="128.98" y1="1675.13" x2="151.59" y2="1675.13"/><polyline class="cls-6" points="120.21 1662.03 120.21 1679.47 120.21 1662.03"/><polyline class="cls-6" points="160.36 1662.03 160.36 1679.47 160.36 1662.03"/><polyline class="cls-6" points="28.26 1587.9 27.8 1587.9 28.26 1587.9"/><line class="cls-6" x1="27.8" y1="1680.4" x2="27.8" y2="1587.9"/><polyline class="cls-6" points="22.44 1574.88 14.69 1574.88 22.44 1574.88"/><line class="cls-6" x1="28.63" y1="1680.4" x2="28.63" y2="1588.82"/><line class="cls-6" x1="14.69" y1="1557.43" x2="14.69" y2="1574.88"/><line class="cls-6" x1="14.69" y1="1574.88" x2="14.69" y2="1644.67"/><polyline class="cls-6" points="28.26 1587.9 28.63 1587.9 28.26 1587.9"/><polyline class="cls-6" points="22.44 1574.88 27.8 1574.88 22.44 1574.88"/><line class="cls-6" x1="28.63" y1="1587.9" x2="121.13" y2="1587.9"/><line class="cls-6" x1="27.8" y1="1574.88" x2="134.15" y2="1574.88"/><line class="cls-6" x1="28.63" y1="1588.82" x2="120.21" y2="1588.82"/><line class="cls-6" x1="151.59" y1="1557.43" x2="14.69" y2="1557.43"/><polyline class="cls-6" points="217.04 301.3 217.04 83.25 217.04 82.42 217.04 83.25"/><polyline class="cls-6" points="217.04 301.3 217.04 118.14 217.04 83.25 217.04 118.14"/><line class="cls-6" x1="234.49" y1="301.3" x2="234.49" y2="118.14"/><polyline class="cls-6" points="217.04 71.89 217.04 82.42 217.04 301.3 217.04 301.3"/><line class="cls-6" x1="217.05" y1="318.74" x2="217.05" y2="318.74"/><line class="cls-6" x1="217.05" y1="301.3" x2="217.05" y2="301.3"/><polyline class="cls-6" points="28.63 1680.4 35.18 1680.4 35.18 1690.83 28.63 1690.83 0.75 1690.83 0.75 1613.3"/><line class="cls-6" x1="25.49" y1="1680.4" x2="14.69" y2="1680.4"/><polyline class="cls-6" points="28.63 1680.4 27.8 1680.4 25.49 1680.4"/><polyline class="cls-6" points="339.18 1690.83 360.13 1690.83 363.55 1690.83 363.55 1680.4 360.13 1680.4 339.18 1680.4"/><polyline class="cls-6" points="275.48 1680.4 254.53 1680.4 251.11 1680.4 251.11 1690.83 254.53 1690.83 275.48 1690.83"/><polyline class="cls-6" points="128.98 1662.03 128.98 1674.3 151.59 1674.3 151.59 1662.03 134.15 1662.03"/><polyline class="cls-6" points="556.4 1662.03 556.4 1674.3 575.6 1674.3 575.6 1662.03"/><line class="cls-6" x1="574.67" y1="1662.03" x2="557.23" y2="1662.03"/><line class="cls-6" x1="90.11" y1="945.38" x2="90.11" y2="976.21"/><polyline class="cls-6" points="88.82 943.53 88.82 932 121.96 932"/><line class="cls-6" x1="105.44" y1="950.83" x2="117.71" y2="950.83"/><polyline class="cls-6" points="90.11 976.12 93.06 950.83 105.44 950.83"/><line class="cls-6" x1="120.67" y1="976.12" x2="117.71" y2="950.83"/><line class="cls-6" x1="90.94" y1="976.12" x2="93.9" y2="950.83"/><line class="cls-6" x1="119.84" y1="976.12" x2="116.88" y2="950.83"/><line class="cls-6" x1="120.67" y1="945.38" x2="120.67" y2="976.21"/><line class="cls-6" x1="121.96" y1="932" x2="121.96" y2="943.54"/><polyline class="cls-6" points="90.11 976.12 90.57 979.54 91.86 982.77 93.99 985.63 96.76 987.85 99.99 989.51 103.59 990.34 107.28 990.34 110.79 989.51 114.11 987.85 116.88 985.63 118.91 982.77 120.21 979.54 120.67 976.12"/><polyline class="cls-6" points="90.94 976.12 91.31 979.35 92.6 982.4 94.54 985.08 97.13 987.29 100.27 988.77 103.68 989.51 107.19 989.51 110.51 988.77 113.65 987.29 116.24 985.08 118.17 982.4 119.47 979.35 119.84 976.12"/><path class="cls-6" d="M90.37,973.77a140.5,140.5,0,0,0,29.71,0" transform="translate(0.25 -28.34)"/><path class="cls-6" d="M88.66,971.83a2,2,0,0,0,1.69,2" transform="translate(0.25 -28.34)"/><path class="cls-6" d="M120,973.81a2,2,0,0,0,1.7-2" transform="translate(0.25 -28.34)"/><path class="cls-6" d="M105.23,966a1.62,1.62,0,1,0,1.62,1.61,1.61,1.61,0,0,0-1.62-1.61" transform="translate(0.25 -28.34)"/><polyline class="cls-6" points="40.72 1013.97 20.78 1013.97 20.78 1061.05 40.72 1061.05"/><line class="cls-6" x1="20.78" y1="1044.99" x2="20.78" y2="1030.13"/><line class="cls-6" x1="36.75" y1="1041.48" x2="36.75" y2="1038.99"/><line class="cls-6" x1="32.78" y1="1037.51" x2="35.37" y2="1037.51"/><line class="cls-6" x1="36.75" y1="1036.04" x2="36.75" y2="1033.54"/><line class="cls-6" x1="38.23" y1="1037.51" x2="40.72" y2="1037.51"/><path class="cls-6" d="M41.75,1045.17a21,21,0,0,0-9.92,8.14" transform="translate(0.25 -28.34)"/><path class="cls-6" d="M31.76,1053.32a20.91,20.91,0,0,0-2.94,12.52" transform="translate(0.25 -28.34)"/><path class="cls-6" d="M31.83,1078.31a21,21,0,0,0,9.93,8.14" transform="translate(0.25 -28.34)"/><path class="cls-6" d="M28.91,1065.79a21.05,21.05,0,0,0,2.94,12.52" transform="translate(0.25 -28.34)"/><path class="cls-6" d="M56.25,1064.16a38.71,38.71,0,0,0-3.9-14.3" transform="translate(0.25 -28.34)"/><path class="cls-6" d="M40.57,1089.38a11.92,11.92,0,0,0,9.83-4.46" transform="translate(0.25 -28.34)"/><path class="cls-6" d="M56.29,1067.45a22.72,22.72,0,0,0,0-3.3" transform="translate(0.25 -28.34)"/><path class="cls-6" d="M32.62,1052.66a85.91,85.91,0,0,0,0,26.35" transform="translate(0.25 -28.34)"/><path class="cls-6" d="M24.39,1081.43a29.57,29.57,0,0,0,19.23,6.67" transform="translate(0.25 -28.34)"/><path class="cls-6" d="M21.55,1065.85A59.27,59.27,0,0,0,23,1079.32" transform="translate(0.25 -28.34)"/><path class="cls-6" d="M23,1079.32a3.9,3.9,0,0,0,1.34,2.17" transform="translate(0.25 -28.34)"/><path class="cls-6" d="M23.4,1065.85a98.53,98.53,0,0,0,1,13.29" transform="translate(0.25 -28.34)"/><path class="cls-6" d="M25.68,1081.55a26.67,26.67,0,0,0,18,6.64" transform="translate(0.25 -28.34)"/><path class="cls-6" d="M24.35,1079.09a3.9,3.9,0,0,0,1.3,2.4" transform="translate(0.25 -28.34)"/><path class="cls-6" d="M43.59,1043.42a26.66,26.66,0,0,0-18,6.69" transform="translate(0.25 -28.34)"/><path class="cls-6" d="M43.56,1043.52a29.56,29.56,0,0,0-19.22,6.7" transform="translate(0.25 -28.34)"/><path class="cls-6" d="M24.33,1052.59a100,100,0,0,0-.94,13.28" transform="translate(0.25 -28.34)"/><path class="cls-6" d="M23,1052.32a59.27,59.27,0,0,0-1.43,13.48" transform="translate(0.25 -28.34)"/><path class="cls-6" d="M25.64,1050.13a3.93,3.93,0,0,0-1.29,2.41" transform="translate(0.25 -28.34)"/><path class="cls-6" d="M24.28,1050.22a3.88,3.88,0,0,0-1.34,2.17" transform="translate(0.25 -28.34)"/><path class="cls-6" d="M50.3,1046.78a12,12,0,0,0-9.84-4.46" transform="translate(0.25 -28.34)"/><path class="cls-6" d="M52.45,1049.83a18.43,18.43,0,0,0-2-3.13" transform="translate(0.25 -28.34)"/><path class="cls-6" d="M50.43,1084.91a18.92,18.92,0,0,0,2-3.14" transform="translate(0.25 -28.34)"/><path class="cls-6" d="M52.36,1081.73a38.89,38.89,0,0,0,3.89-14.3" transform="translate(0.25 -28.34)"/><path class="cls-6" d="M53,1072.28a27.74,27.74,0,0,0,0-13" transform="translate(0.25 -28.34)"/><path class="cls-6" d="M47.52,1047.62a7.07,7.07,0,0,0-5.83-2.43" transform="translate(0.25 -28.34)"/><path class="cls-6" d="M52.92,1059.34a25.6,25.6,0,0,0-5.39-11.73" transform="translate(0.25 -28.34)"/><path class="cls-6" d="M41.79,1086.42a7,7,0,0,0,5.83-2.43" transform="translate(0.25 -28.34)"/><path class="cls-6" d="M47.54,1084a25.48,25.48,0,0,0,5.38-11.73" transform="translate(0.25 -28.34)"/><path class="cls-6" d="M39.64,1065.81a3.09,3.09,0,1,0-3.09,3.09,3.09,3.09,0,0,0,3.09-3.09" transform="translate(0.25 -28.34)"/><path class="cls-6" d="M38.72,1065.81a2.17,2.17,0,1,0-2.17,2.17,2.17,2.17,0,0,0,2.17-2.17" transform="translate(0.25 -28.34)"/><polyline class="cls-6" points="121.13 1587.9 121.13 1588.82 121.13 1587.9"/><polyline class="cls-6" points="134.15 1574.88 134.15 1587.9 134.15 1574.88"/><line class="cls-6" x1="121.13" y1="1588.82" x2="121.13" y2="1662.03"/><line class="cls-6" x1="134.15" y1="1587.9" x2="134.15" y2="1662.03"/><polyline class="cls-6" points="151.59 1557.43 151.59 1574.88 151.59 1662.03"/><line class="cls-6" x1="120.21" y1="1588.82" x2="120.21" y2="1662.03"/><polyline class="cls-6" points="217.04 693.82 234.49 693.82 234.49 606.58 217.04 606.58 217.04 693.82"/><polyline class="cls-6" points="557.23 1374.19 574.67 1374.19 574.67 1286.95 557.23 1286.95 557.23 1374.19"/><polyline class="cls-6" points="557.23 1662.03 574.67 1662.03 574.67 1574.88 557.23 1574.88 557.23 1662.03"/><polyline class="cls-6" points="105.44 929.32 105.44 911.96 18.2 911.96 18.2 929.32 105.44 929.32"/><polyline class="cls-6" points="217.04 405.98 234.49 405.98 234.49 318.75 217.04 318.75 217.04 405.98"/><polyline class="cls-6" points="0.75 1662.03 14.69 1662.03 14.69 1574.88 0.75 1574.88 0.75 1662.03"/><polyline class="cls-6" points="618.34 100.7 600.89 100.7 600.89 187.93 618.34 187.93 618.34 100.7"/><polyline class="cls-6" points="234.49 100.7 217.04 100.7 217.04 187.93 234.49 187.93 234.49 100.7"/><polyline class="cls-6" points="295.51 1374.19 312.96 1374.19 312.96 1286.95 295.51 1286.95 295.51 1374.19"/><polyline class="cls-6" points="295.51 1662.03 312.96 1662.03 312.96 1574.88 295.51 1574.88 295.51 1662.03"/><polyline class="cls-6" points="600.89 405.98 618.34 405.98 618.34 318.75 600.89 318.75 600.89 405.98"/><polyline class="cls-6" points="600.89 693.82 618.34 693.82 618.34 606.58 600.89 606.58 600.89 693.82"/><text class="cls-7" transform="translate(346.09 1151.41)">№17</text><text class="cls-8" transform="translate(351.03 1205.14)">85.88</text><polyline class="cls-9" points="328.9 1221.8 328.9 1103.81 468.91 1103.81 468.91 1221.8"/><line class="cls-9" x1="328.9" y1="1221.8" x2="468.91" y2="1221.8"/><line class="cls-9" x1="328.9" y1="1166.05" x2="468.91" y2="1166.05"/><text class="cls-10" transform="translate(369.39 530.22)">77.00</text><text class="cls-10" transform="translate(116.6 1055)">5.43</text><text class="cls-10" transform="translate(441.97 1605.34)">3.45</text></svg>