<svg xmlns="http://www.w3.org/2000/svg" xmlns:xlink="http://www.w3.org/1999/xlink" width="34" height="46" viewBox="0 0 34 46">
    <defs>
        <circle id="b" cx="15" cy="15" r="15"/>
        <filter id="a" width="123.3%" height="123.3%" x="-11.7%" y="-8.3%" filterUnits="objectBoundingBox">
            <feOffset dy="1" in="SourceAlpha" result="shadowOffsetOuter1"/>
            <feGaussianBlur in="shadowOffsetOuter1" result="shadowBlurOuter1" stdDeviation="1"/>
            <feColorMatrix in="shadowBlurOuter1" values="0 0 0 0 0 0 0 0 0 0 0 0 0 0 0 0 0 0 0.3 0"/>
        </filter>
    </defs>
    <g fill="none" fill-rule="evenodd">
        <path fill="#FFCA04" d="M17 25h12L17 46z"/>
        <g transform="translate(2 1)">
            <use fill="#000" filter="url(#a)" xlink:href="#b"/>
            <use fill="#FFCA04" xlink:href="#b"/>
        </g>
        <path fill="#FFF" fill-rule="nonzero" d="M18.27 12.207V8h-1.181v1.126H11.18V8H10v16h1.181v-1.837h5.908V24h1.181V13.393h4.549V24H24V12.207h-5.73zM11 15v-2h6v2h-6zm6 1v2h-6v-2h6zm0-6v2h-6v-2h6zm-6 11v-2h6v2h-6z"/>
    </g>
</svg>
