<svg id="Layer_1" data-name="Layer 1" xmlns="http://www.w3.org/2000/svg" viewBox="0 0 460.17 936.37"><defs><style>.cls-1,.cls-11,.cls-2,.cls-4,.cls-8,.cls-9{isolation:isolate;font-family:PTSans-Regular, PT Sans;}.cls-1{font-size:36px;}.cls-2{font-size:28px;}.cls-10,.cls-3,.cls-5,.cls-6,.cls-7{fill:none;stroke-linecap:round;stroke-linejoin:round;}.cls-3,.cls-5,.cls-6,.cls-7{stroke:#000;}.cls-3{stroke-width:0.25px;}.cls-4{font-size:24px;}.cls-5{stroke-width:0.5px;}.cls-10,.cls-6{stroke-width:0.75px;}.cls-7{stroke-width:0.57px;}.cls-11,.cls-8,.cls-9{font-size:12px;fill:#969696;}.cls-8{letter-spacing:-0.09em;}.cls-10{stroke:#969696;}.cls-11{letter-spacing:-0.01em;}</style></defs><g id="_11" data-name=" 11"><text class="cls-1" transform="translate(342.46 700.88)">№11</text><text class="cls-2" transform="translate(337.6 737.84)">105.46</text><polyline class="cls-3" points="329.85 747.2 329.85 664.99 427.64 664.99 427.64 747.2"/><line class="cls-3" x1="329.85" y1="747.2" x2="427.63" y2="747.2"/><line class="cls-3" x1="329.85" y1="711.08" x2="427.63" y2="711.08"/><text class="cls-4" transform="translate(199.76 207.78)">95.96</text><text class="cls-4" transform="translate(352.11 489.86)">6.05</text><text class="cls-4" transform="translate(181.49 822.01)">3.45</text><path class="cls-5" d="M164.13,734.08" transform="translate(0 0)"/><line class="cls-5" x1="238.18" y1="847.61" x2="238.18" y2="734.09"/><line class="cls-5" x1="164.13" y1="734.09" x2="164.13" y2="847.61"/><polyline class="cls-5" points="308.75 432.99 301.85 432.99 301.85 423.13 351.21 423.13 351.21 429.05 421.3 429.05 421.3 397.46 451.9 397.46 451.9 97.36 311.72 97.36 311.72 136.85 301.85 136.85 301.85 97.36 173.5 97.36 173.5 136.85 163.64 136.85 163.64 97.36 10.62 97.36"/><polyline class="cls-5" points="243.1 729.15 243.1 847.61 272.73 847.61 272.73 837.73 291.97 837.73 291.97 798.25 301.85 798.25 301.85 837.73 451.9 837.73 451.9 549 421.3 549 308.75 549"/><polyline class="cls-5" points="10.62 97.36 10.62 392.52 36.29 392.52 36.29 423.13 158.7 423.13 172.04 423.13 172.04 481.37 158.7 481.37 158.7 729.15"/><polyline class="cls-5" points="173.5 299.74 163.64 299.74 163.64 250.38 173.5 250.38 173.5 299.74"/><polyline class="cls-5" points="291.97 689.67 291.97 640.31 301.85 640.31 301.85 689.67 291.97 689.67"/><polyline class="cls-5" points="311.72 299.74 301.85 299.74 301.85 250.38 311.72 250.38 311.72 299.74"/><polyline class="cls-5" points="312.71 545.05 421.3 545.05 421.3 517.39 451.9 517.39"/><polyline class="cls-5" points="451.9 517.39 451.9 432.99 421.3 432.99 312.71 432.99"/><line class="cls-6" x1="59.98" y1="432.99" x2="148.83" y2="432.99"/><line class="cls-6" x1="158.7" y1="423.13" x2="10.62" y2="423.13"/><polygon points="0.76 422.62 0.61 422.64 0.48 422.69 0.38 422.8 0.3 422.91 0.25 423.05 0.25 423.2 0.3 423.34 0.38 423.45 0.48 423.56 0.61 423.62 0.76 423.63 0.9 423.62 1.03 423.56 1.14 423.45 1.21 423.34 1.26 423.2 1.26 423.05 1.21 422.91 1.14 422.8 1.03 422.69 0.9 422.64 0.76 422.62"/><polygon class="cls-5" points="0.76 422.62 0.61 422.64 0.48 422.69 0.38 422.8 0.3 422.91 0.25 423.05 0.25 423.2 0.3 423.34 0.38 423.45 0.48 423.56 0.61 423.62 0.76 423.63 0.9 423.62 1.03 423.56 1.14 423.45 1.21 423.34 1.26 423.2 1.26 423.05 1.21 422.91 1.14 422.8 1.03 422.69 0.9 422.64 0.76 422.62"/><line class="cls-6" x1="158.7" y1="423.13" x2="158.7" y2="432.99"/><line class="cls-6" x1="148.83" y1="847.61" x2="148.83" y2="734.09"/><line class="cls-5" x1="148.83" y1="847.61" x2="148.83" y2="847.61"/><line class="cls-5" x1="148.83" y1="847.61" x2="148.83" y2="847.61"/><line class="cls-6" x1="10.62" y1="423.13" x2="10.62" y2="299.74"/><line class="cls-6" x1="10.62" y1="250.38" x2="10.62" y2="136.85"/><line class="cls-6" x1="0.76" y1="136.85" x2="0.76" y2="250.38"/><line class="cls-6" x1="0.76" y1="299.74" x2="0.76" y2="415.51"/><line class="cls-6" x1="0.76" y1="403.38" x2="0.76" y2="423.13"/><path class="cls-5" d="M148.84,734.08" transform="translate(0 0)"/><polyline class="cls-5" points="238.18 734.09 238.18 729.15 243.1 729.15"/><path class="cls-5" d="M158.7,734.08" transform="translate(0 0)"/><path class="cls-5" d="M238.18,734.08" transform="translate(0 0)"/><path class="cls-5" d="M166.6,778.5A44.44,44.44,0,0,0,211,734.08" transform="translate(0 0)"/><path class="cls-5" d="M211,734.08a24.68,24.68,0,0,0,24.68,24.68" transform="translate(0 0)"/><polyline class="cls-5" points="166.61 739.03 167.84 739.03 167.84 773.57 166.61 773.57 166.61 739.03"/><polyline class="cls-5" points="167.84 739.03 169.07 739.03 169.07 773.57 167.84 773.57 167.84 739.03"/><polyline class="cls-5" points="235.7 753.84 235.7 739.03 234.47 739.03 234.47 753.84 235.7 753.84"/><polyline class="cls-5" points="234.47 753.84 234.47 739.03 233.24 739.03 233.24 753.84 234.47 753.84"/><line class="cls-5" x1="162.65" y1="734.09" x2="158.7" y2="734.09"/><line class="cls-5" x1="162.65" y1="729.15" x2="158.7" y2="729.15"/><polyline class="cls-5" points="235.7 729.15 235.7 734.09 238.18 734.09 238.18 729.15 235.7 729.15"/><polyline class="cls-5" points="162.65 729.15 162.65 734.09 166.61 734.09 166.61 729.15 162.65 729.15"/><polyline class="cls-5" points="166.61 778.51 166.61 773.57 169.07 773.57 169.07 778.51 166.61 778.51"/><polyline class="cls-5" points="169.07 734.09 169.07 739.03 166.61 739.03 166.61 734.09 169.07 734.09"/><line class="cls-5" x1="167.84" y1="773.56" x2="167.84" y2="739.03"/><polyline class="cls-5" points="235.7 758.76 235.7 753.84 233.24 753.84 233.24 758.76 235.7 758.76"/><polyline class="cls-5" points="233.24 734.09 233.24 739.03 235.7 739.03 235.7 734.09 233.24 734.09"/><line class="cls-5" x1="234.47" y1="753.84" x2="234.47" y2="739.03"/><polyline class="cls-5" points="238.18 729.15 238.18 734.09 238.18 729.15"/><line class="cls-5" x1="243.1" y1="729.15" x2="243.1" y2="734.09"/><line class="cls-6" x1="427.22" y1="427.07" x2="427.22" y2="403.38"/><line class="cls-6" x1="421.3" y1="397.46" x2="421.3" y2="432.99"/><line class="cls-6" x1="421.3" y1="432.99" x2="427.22" y2="432.99"/><line class="cls-6" x1="421.3" y1="397.46" x2="427.22" y2="397.46"/><line class="cls-6" x1="36.29" y1="423.13" x2="36.29" y2="392.52"/><polyline class="cls-6" points="30.37 398.44 30.37 423.13 36.29 423.13"/><line class="cls-6" x1="36.29" y1="392.52" x2="30.37" y2="392.52"/><polyline class="cls-6" points="30.37 392.52 10.62 392.52 10.62 398.44 30.37 398.44"/><line class="cls-6" x1="451.9" y1="543.06" x2="427.22" y2="543.06"/><polyline class="cls-6" points="421.3 549 451.9 549 451.9 543.06"/><line class="cls-6" x1="421.3" y1="549" x2="421.3" y2="543.06"/><line class="cls-6" x1="427.22" y1="543.06" x2="427.22" y2="523.33"/><line class="cls-6" x1="421.3" y1="517.39" x2="421.3" y2="543.06"/><line class="cls-6" x1="421.3" y1="517.39" x2="427.22" y2="517.39"/><polyline class="cls-6" points="427.22 523.33 451.9 523.33 451.9 517.39 427.22 517.39"/><line class="cls-5" x1="5.7" y1="77.12" x2="0.76" y2="77.12"/><line class="cls-6" x1="5.7" y1="77.61" x2="0.76" y2="77.61"/><polyline class="cls-5" points="0.76 77.12 0.76 77.61 0.76 85.02"/><line class="cls-5" x1="0.76" y1="85.01" x2="0.76" y2="85.01"/><line class="cls-7" x1="0.76" y1="85.01" x2="0.76" y2="85.01"/><line class="cls-5" x1="0.76" y1="71.2" x2="0.76" y2="77.12"/><line class="cls-6" x1="0.76" y1="77.61" x2="0.76" y2="85.01"/><polyline class="cls-5" points="0.76 77.12 0.76 77.12 0.76 85.02 0.76 77.12"/><line class="cls-5" x1="0.76" y1="71.2" x2="0.76" y2="71.2"/><polyline class="cls-6" points="0.76 85.02 0.76 88.47 0.76 97.36"/><line class="cls-5" x1="5.7" y1="71.2" x2="0.76" y2="71.2"/><line class="cls-6" x1="0.76" y1="97.36" x2="0.76" y2="97.36"/><line class="cls-5" x1="0.76" y1="71.2" x2="0.76" y2="71.2"/><line class="cls-5" x1="0.76" y1="97.36" x2="0.76" y2="97.36"/><polyline class="cls-5" points="0.76 85.02 0.76 85.02 0.76 85.02 0.76 88.47 0.76 88.47 0.76 88.47"/><line class="cls-5" x1="0.76" y1="86.75" x2="0.76" y2="86.75"/><line class="cls-5" x1="0.76" y1="88.47" x2="0.76" y2="88.47"/><line class="cls-5" x1="0.76" y1="85.01" x2="0.76" y2="85.01"/><line class="cls-5" x1="0.76" y1="85.01" x2="0.76" y2="88.47"/><polyline class="cls-5" points="0.76 97.36 0.76 88.47 0.76 85.02 0.76 88.47"/><line class="cls-5" x1="0.76" y1="71.2" x2="0.76" y2="77.12"/><polyline class="cls-5" points="0.76 85.02 0.76 85.02 0.76 85.02"/><polyline class="cls-5" points="0.76 85.02 0.76 85.02 0.76 85.02"/><polyline class="cls-5" points="0.76 77.12 0.76 77.61 0.76 85.02"/><line class="cls-5" x1="202.14" y1="77.12" x2="151.3" y2="77.12"/><line class="cls-5" x1="459.8" y1="77.12" x2="427.22" y2="77.12"/><line class="cls-5" x1="330.47" y1="77.12" x2="279.63" y2="77.12"/><line class="cls-5" x1="41.72" y1="77.12" x2="5.7" y2="77.12"/><line class="cls-6" x1="202.14" y1="77.61" x2="151.3" y2="77.61"/><line class="cls-6" x1="459.8" y1="77.61" x2="427.22" y2="77.61"/><line class="cls-6" x1="330.47" y1="77.61" x2="279.63" y2="77.61"/><line class="cls-6" x1="41.72" y1="77.61" x2="5.7" y2="77.61"/><polyline class="cls-5" points="144.89 77.12 144.89 77.61 144.89 85.02"/><polyline class="cls-5" points="48.14 77.12 48.14 77.61 48.14 85.02"/><line class="cls-5" x1="151.3" y1="85.01" x2="150.81" y2="85.01"/><line class="cls-7" x1="150.81" y1="85.01" x2="144.89" y2="85.01"/><line class="cls-5" x1="144.89" y1="71.2" x2="144.89" y2="77.12"/><line class="cls-5" x1="41.72" y1="85.01" x2="42.22" y2="85.01"/><line class="cls-7" x1="42.22" y1="85.01" x2="48.14" y2="85.01"/><line class="cls-5" x1="48.14" y1="71.2" x2="48.14" y2="77.12"/><line class="cls-6" x1="151.3" y1="77.61" x2="151.3" y2="85.01"/><polyline class="cls-5" points="151.3 77.12 150.81 77.12 150.81 85.02 150.81 77.12"/><line class="cls-5" x1="150.81" y1="71.2" x2="144.89" y2="71.2"/><line class="cls-6" x1="41.72" y1="77.61" x2="41.72" y2="85.01"/><polyline class="cls-5" points="41.72 77.12 42.22 77.12 42.22 85.02 42.22 77.12"/><line class="cls-5" x1="42.22" y1="71.2" x2="48.14" y2="71.2"/><polyline class="cls-6" points="151.3 85.02 151.3 88.47 151.3 97.36"/><polyline class="cls-6" points="41.72 85.02 41.72 88.47 41.72 97.36"/><polyline class="cls-5" points="273.22 77.12 273.22 77.61 273.22 85.02"/><polyline class="cls-5" points="208.56 77.12 208.56 77.61 208.56 85.02"/><line class="cls-5" x1="279.63" y1="85.01" x2="279.14" y2="85.01"/><line class="cls-7" x1="279.14" y1="85.01" x2="273.22" y2="85.01"/><line class="cls-5" x1="273.22" y1="71.2" x2="273.22" y2="77.12"/><line class="cls-5" x1="202.14" y1="85.01" x2="202.63" y2="85.01"/><line class="cls-7" x1="202.63" y1="85.01" x2="208.57" y2="85.01"/><line class="cls-5" x1="208.57" y1="71.2" x2="208.57" y2="77.12"/><line class="cls-6" x1="279.63" y1="77.61" x2="279.63" y2="85.01"/><polyline class="cls-5" points="279.63 77.12 279.14 77.12 279.14 85.02 279.14 77.12"/><line class="cls-5" x1="279.14" y1="71.2" x2="273.22" y2="71.2"/><line class="cls-6" x1="202.14" y1="77.61" x2="202.14" y2="85.01"/><polyline class="cls-5" points="202.14 77.12 202.63 77.12 202.63 85.02 202.63 77.12"/><line class="cls-5" x1="202.63" y1="71.2" x2="208.57" y2="71.2"/><polyline class="cls-6" points="279.63 85.02 279.63 88.47 279.63 97.36"/><polyline class="cls-6" points="202.14 85.02 202.14 88.47 202.14 97.36"/><polyline class="cls-5" points="420.81 77.12 420.81 77.61 420.81 85.02"/><polyline class="cls-5" points="336.9 77.12 336.9 77.61 336.9 85.02"/><line class="cls-5" x1="427.22" y1="85.01" x2="426.73" y2="85.01"/><line class="cls-7" x1="426.73" y1="85.01" x2="420.81" y2="85.01"/><line class="cls-5" x1="420.81" y1="71.2" x2="420.81" y2="77.12"/><line class="cls-5" x1="330.47" y1="85.01" x2="330.98" y2="85.01"/><line class="cls-7" x1="330.98" y1="85.01" x2="336.9" y2="85.01"/><line class="cls-5" x1="336.9" y1="71.2" x2="336.9" y2="77.12"/><line class="cls-6" x1="427.22" y1="77.61" x2="427.22" y2="85.01"/><polyline class="cls-5" points="427.22 77.12 426.73 77.12 426.73 85.02 426.73 77.12"/><line class="cls-5" x1="426.73" y1="71.2" x2="420.81" y2="71.2"/><line class="cls-6" x1="330.47" y1="77.61" x2="330.47" y2="85.01"/><polyline class="cls-5" points="330.47 77.12 330.98 77.12 330.98 85.02 330.98 77.12"/><line class="cls-5" x1="330.98" y1="71.2" x2="336.9" y2="71.2"/><polyline class="cls-6" points="427.22 85.02 427.22 88.47 427.22 97.36"/><polyline class="cls-6" points="330.47 85.02 330.47 88.47 330.47 97.36"/><line class="cls-5" x1="459.8" y1="71.2" x2="426.73" y2="71.2"/><line class="cls-5" x1="330.98" y1="71.2" x2="279.14" y2="71.2"/><line class="cls-5" x1="202.63" y1="71.2" x2="150.81" y2="71.2"/><line class="cls-5" x1="42.22" y1="71.2" x2="5.7" y2="71.2"/><line class="cls-6" x1="10.62" y1="97.36" x2="41.72" y2="97.36"/><line class="cls-6" x1="151.3" y1="97.36" x2="163.64" y2="97.36"/><line class="cls-6" x1="173.51" y1="97.36" x2="202.14" y2="97.36"/><line class="cls-6" x1="279.63" y1="97.36" x2="301.85" y2="97.36"/><line class="cls-6" x1="311.72" y1="97.36" x2="330.47" y2="97.36"/><line class="cls-6" x1="427.22" y1="97.36" x2="451.9" y2="97.36"/><line class="cls-7" x1="459.8" y1="71.2" x2="459.8" y2="77.12"/><line class="cls-5" x1="459.8" y1="77.12" x2="459.8" y2="77.61"/><line class="cls-6" x1="459.8" y1="77.61" x2="459.8" y2="87.49"/><line class="cls-5" x1="48.14" y1="71.2" x2="144.89" y2="71.2"/><line class="cls-5" x1="41.72" y1="97.36" x2="151.3" y2="97.36"/><polyline class="cls-5" points="41.72 88.47 46.17 88.47 51.09 88.47 51.09 85.02 46.17 85.02 41.72 85.02"/><polyline class="cls-5" points="80.56 85.02 78.08 85.02 78.08 88.47 80.56 88.47"/><line class="cls-5" x1="51.09" y1="86.75" x2="78.08" y2="86.75"/><line class="cls-5" x1="51.09" y1="88.47" x2="78.08" y2="88.47"/><line class="cls-5" x1="78.08" y1="85.01" x2="51.09" y2="85.01"/><line class="cls-5" x1="46.17" y1="85.01" x2="46.17" y2="88.47"/><polyline class="cls-5" points="80.56 88.47 83.02 88.47 83.02 85.02 80.56 85.02"/><polyline class="cls-5" points="112.47 85.02 110.01 85.02 110.01 88.47 112.47 88.47"/><line class="cls-5" x1="83.02" y1="86.75" x2="110.01" y2="86.75"/><line class="cls-5" x1="83.02" y1="88.47" x2="110.01" y2="88.47"/><line class="cls-5" x1="110.01" y1="85.01" x2="83.02" y2="85.01"/><polyline class="cls-5" points="112.47 88.47 114.93 88.47 114.93 85.02 112.47 85.02"/><polyline class="cls-5" points="151.3 85.02 146.86 85.02 141.92 85.02 141.92 88.47 146.86 88.47 151.3 88.47"/><line class="cls-5" x1="114.93" y1="86.75" x2="141.92" y2="86.75"/><line class="cls-5" x1="114.93" y1="88.47" x2="141.92" y2="88.47"/><line class="cls-5" x1="141.92" y1="85.01" x2="114.93" y2="85.01"/><line class="cls-5" x1="146.86" y1="85.01" x2="146.86" y2="88.47"/><polyline class="cls-5" points="41.72 97.36 41.72 88.47 41.72 85.02 41.72 88.47"/><polyline class="cls-5" points="151.3 97.36 151.3 88.47 151.3 85.02 151.3 88.47"/><line class="cls-5" x1="48.14" y1="71.2" x2="48.14" y2="77.12"/><polyline class="cls-5" points="48.14 85.02 42.22 85.02 48.14 85.02"/><polyline class="cls-5" points="42.22 85.02 41.72 85.02 42.22 85.02"/><line class="cls-5" x1="144.89" y1="71.2" x2="144.89" y2="77.12"/><polyline class="cls-5" points="144.89 85.02 150.81 85.02 144.89 85.02"/><polyline class="cls-5" points="150.81 85.02 151.3 85.02 150.81 85.02"/><polyline class="cls-5" points="48.14 77.12 48.14 77.61 48.14 85.02"/><polyline class="cls-5" points="144.89 77.12 144.89 77.61 144.89 85.02"/><line class="cls-5" x1="208.57" y1="71.2" x2="273.22" y2="71.2"/><line class="cls-5" x1="202.14" y1="97.36" x2="279.63" y2="97.36"/><polyline class="cls-5" points="202.14 88.47 206.59 88.47 211.52 88.47 211.52 85.02 206.59 85.02 202.14 85.02"/><polyline class="cls-5" points="279.63 85.02 275.19 85.02 270.25 85.02 270.25 88.47 275.19 88.47 279.63 88.47"/><line class="cls-5" x1="211.52" y1="86.75" x2="270.25" y2="86.75"/><line class="cls-5" x1="211.52" y1="88.47" x2="270.25" y2="88.47"/><line class="cls-5" x1="270.25" y1="85.01" x2="211.52" y2="85.01"/><line class="cls-5" x1="206.59" y1="85.01" x2="206.59" y2="88.47"/><line class="cls-5" x1="275.19" y1="85.01" x2="275.19" y2="88.47"/><polyline class="cls-5" points="202.14 97.36 202.14 88.47 202.14 85.02 202.14 88.47"/><polyline class="cls-5" points="279.63 97.36 279.63 88.47 279.63 85.02 279.63 88.47"/><line class="cls-5" x1="208.57" y1="71.2" x2="208.57" y2="77.12"/><polyline class="cls-5" points="208.56 85.02 202.63 85.02 208.56 85.02"/><polyline class="cls-5" points="202.63 85.02 202.14 85.02 202.63 85.02"/><line class="cls-5" x1="273.22" y1="71.2" x2="273.22" y2="77.12"/><polyline class="cls-5" points="273.22 85.02 279.14 85.02 273.22 85.02"/><polyline class="cls-5" points="279.14 85.02 279.63 85.02 279.14 85.02"/><polyline class="cls-5" points="208.56 77.12 208.56 77.61 208.56 85.02"/><polyline class="cls-5" points="273.22 77.12 273.22 77.61 273.22 85.02"/><line class="cls-5" x1="336.9" y1="71.2" x2="420.81" y2="71.2"/><line class="cls-5" x1="330.47" y1="97.36" x2="427.22" y2="97.36"/><polyline class="cls-5" points="330.47 88.47 334.92 88.47 339.85 88.47 339.85 85.02 334.92 85.02 330.47 85.02"/><polyline class="cls-5" points="378.85 85.02 376.37 85.02 376.37 88.47 378.85 88.47"/><line class="cls-5" x1="339.85" y1="86.75" x2="376.37" y2="86.75"/><line class="cls-5" x1="339.85" y1="88.47" x2="376.37" y2="88.47"/><line class="cls-5" x1="376.37" y1="85.01" x2="339.85" y2="85.01"/><line class="cls-5" x1="334.92" y1="85.01" x2="334.92" y2="88.47"/><polyline class="cls-5" points="378.85 88.47 381.31 88.47 381.31 85.02 378.85 85.02"/><polyline class="cls-5" points="427.22 85.02 422.78 85.02 417.84 85.02 417.84 88.47 422.78 88.47 427.22 88.47"/><line class="cls-5" x1="381.31" y1="86.75" x2="417.84" y2="86.75"/><line class="cls-5" x1="381.31" y1="88.47" x2="417.84" y2="88.47"/><line class="cls-5" x1="417.84" y1="85.01" x2="381.31" y2="85.01"/><line class="cls-5" x1="422.78" y1="85.01" x2="422.78" y2="88.47"/><polyline class="cls-5" points="330.47 97.36 330.47 88.47 330.47 85.02 330.47 88.47"/><polyline class="cls-5" points="427.22 97.36 427.22 88.47 427.22 85.02 427.22 88.47"/><line class="cls-5" x1="336.9" y1="71.2" x2="336.9" y2="77.12"/><polyline class="cls-5" points="336.9 85.02 330.98 85.02 336.9 85.02"/><polyline class="cls-5" points="330.98 85.02 330.47 85.02 330.98 85.02"/><line class="cls-5" x1="420.81" y1="71.2" x2="420.81" y2="77.12"/><polyline class="cls-5" points="420.81 85.02 426.73 85.02 420.81 85.02"/><polyline class="cls-5" points="426.73 85.02 427.22 85.02 426.73 85.02"/><polyline class="cls-5" points="336.9 77.12 336.9 77.61 336.9 85.02"/><polyline class="cls-5" points="420.81 77.12 420.81 77.61 420.81 85.02"/><line class="cls-6" x1="459.8" y1="798.25" x2="459.8" y2="136.85"/><line class="cls-6" x1="451.9" y1="136.85" x2="451.9" y2="798.25"/><line class="cls-6" x1="308.75" y1="442.87" x2="312.71" y2="442.87"/><line class="cls-6" x1="308.75" y1="494.69" x2="312.71" y2="494.69"/><line class="cls-6" x1="308.75" y1="432.99" x2="308.75" y2="442.87"/><line class="cls-6" x1="308.75" y1="494.69" x2="308.75" y2="549"/><line class="cls-6" x1="312.71" y1="545.05" x2="312.71" y2="494.69"/><line class="cls-6" x1="312.71" y1="442.87" x2="312.71" y2="432.99"/><path class="cls-5" d="M308.75,494.65" transform="translate(0 0)"/><path class="cls-5" d="M308.75,442.87" transform="translate(0 0)"/><path class="cls-5" d="M312.72,494.65" transform="translate(0 0)"/><path class="cls-5" d="M312.72,442.87" transform="translate(0 0)"/><line class="cls-6" x1="308.75" y1="549" x2="312.71" y2="549"/><polyline class="cls-6" points="312.71 549 421.3 549 421.3 545.05 312.71 545.05"/><polyline class="cls-6" points="351.21 432.99 421.3 432.99 421.3 429.05 351.21 429.05"/><line class="cls-6" x1="451.9" y1="397.46" x2="427.22" y2="397.46"/><polyline class="cls-6" points="427.22 403.38 451.9 403.38 451.9 397.46"/><line class="cls-5" x1="434.62" y1="857.98" x2="459.8" y2="857.98"/><line class="cls-5" x1="273.71" y1="857.98" x2="331.47" y2="857.98"/><line class="cls-6" x1="436.59" y1="857.48" x2="459.8" y2="857.48"/><line class="cls-6" x1="272.73" y1="857.48" x2="329.49" y2="857.48"/><line class="cls-6" x1="436.59" y1="854.02" x2="436.59" y2="837.73"/><line class="cls-5" x1="434.62" y1="857.98" x2="434.62" y2="857.48"/><line class="cls-7" x1="434.62" y1="863.9" x2="434.62" y2="857.98"/><line class="cls-5" x1="434.62" y1="857.48" x2="436.59" y2="857.48"/><line class="cls-6" x1="436.59" y1="857.48" x2="436.59" y2="854.02"/><line class="cls-6" x1="329.49" y1="854.02" x2="329.49" y2="837.73"/><line class="cls-5" x1="331.47" y1="857.98" x2="331.47" y2="857.48"/><line class="cls-7" x1="331.47" y1="863.9" x2="331.47" y2="857.98"/><line class="cls-5" x1="331.47" y1="857.48" x2="329.49" y2="857.48"/><line class="cls-6" x1="329.49" y1="857.48" x2="329.49" y2="854.02"/><line class="cls-6" x1="451.9" y1="837.73" x2="436.59" y2="837.73"/><line class="cls-6" x1="329.49" y1="837.73" x2="301.85" y2="837.73"/><line class="cls-6" x1="291.97" y1="837.73" x2="272.73" y2="837.73"/><line class="cls-5" x1="272.73" y1="857.98" x2="272.73" y2="857.48"/><line class="cls-6" x1="272.73" y1="857.48" x2="272.73" y2="837.73"/><line class="cls-5" x1="273.71" y1="863.9" x2="331.47" y2="863.9"/><line class="cls-5" x1="434.62" y1="863.9" x2="459.8" y2="863.9"/><line class="cls-7" x1="459.8" y1="863.9" x2="459.8" y2="857.98"/><line class="cls-5" x1="459.8" y1="857.98" x2="459.8" y2="857.48"/><line class="cls-6" x1="459.8" y1="857.48" x2="459.8" y2="847.61"/><line class="cls-5" x1="331.47" y1="863.9" x2="434.62" y2="863.9"/><line class="cls-5" x1="329.49" y1="837.73" x2="436.59" y2="837.73"/><polyline class="cls-5" points="329.49 857.48 334.42 857.48 334.42 854.02 329.49 854.02"/><polyline class="cls-5" points="383.05 854.02 380.57 854.02 380.57 857.48 383.05 857.48"/><line class="cls-5" x1="334.42" y1="855.76" x2="380.57" y2="855.76"/><line class="cls-5" x1="334.42" y1="857.48" x2="380.57" y2="857.48"/><line class="cls-5" x1="380.57" y1="854.02" x2="334.42" y2="854.02"/><polyline class="cls-5" points="383.05 857.48 385.51 857.48 385.51 854.02 383.05 854.02"/><polyline class="cls-5" points="436.59 854.02 431.67 854.02 431.67 857.48 436.59 857.48"/><line class="cls-5" x1="385.51" y1="855.76" x2="431.67" y2="855.76"/><line class="cls-5" x1="385.51" y1="857.48" x2="431.67" y2="857.48"/><line class="cls-5" x1="431.67" y1="854.02" x2="385.51" y2="854.02"/><polyline class="cls-5" points="329.49 854.02 329.49 857.48 329.49 854.02"/><polyline class="cls-5" points="329.49 857.48 331.47 857.48 329.49 857.48"/><polyline class="cls-5" points="331.47 863.9 331.47 857.98 331.47 857.48"/><line class="cls-5" x1="329.49" y1="854.02" x2="329.49" y2="837.73"/><polyline class="cls-5" points="436.59 854.02 436.59 857.48 436.59 854.02"/><polyline class="cls-5" points="436.59 857.48 434.62 857.48 436.59 857.48"/><polyline class="cls-5" points="434.62 863.9 434.62 857.98 434.62 857.48"/><line class="cls-5" x1="436.59" y1="854.02" x2="436.59" y2="837.73"/><line class="cls-6" x1="451.9" y1="427.07" x2="427.22" y2="427.07"/><polyline class="cls-6" points="427.22 432.99 451.9 432.99 451.9 427.07"/><line class="cls-6" x1="158.7" y1="481.37" x2="172.04" y2="481.37"/><polyline class="cls-6" points="166.1 475.45 158.7 475.45 158.7 481.37"/><line class="cls-6" x1="172.04" y1="481.37" x2="172.04" y2="475.45"/><line class="cls-6" x1="172.04" y1="475.45" x2="172.04" y2="423.13"/><line class="cls-6" x1="166.1" y1="429.05" x2="166.1" y2="475.45"/><line class="cls-6" x1="172.04" y1="423.13" x2="166.1" y2="423.13"/><polyline class="cls-6" points="166.1 423.13 158.7 423.13 158.7 429.05 166.1 429.05"/><line class="cls-6" x1="158.7" y1="798.25" x2="158.7" y2="689.67"/><line class="cls-6" x1="158.7" y1="640.31" x2="158.7" y2="557.38"/><line class="cls-6" x1="158.7" y1="508.02" x2="158.7" y2="432.99"/><line class="cls-6" x1="148.83" y1="432.99" x2="148.83" y2="508.02"/><line class="cls-6" x1="148.83" y1="557.38" x2="148.83" y2="640.31"/><line class="cls-6" x1="148.83" y1="689.67" x2="148.83" y2="798.25"/><line class="cls-5" x1="163.89" y1="857.48" x2="163.89" y2="847.61"/><line class="cls-5" x1="270.25" y1="854.02" x2="270.25" y2="847.61"/><line class="cls-5" x1="270.25" y1="857.48" x2="270.25" y2="854.02"/><line class="cls-5" x1="163.89" y1="857.48" x2="164.13" y2="857.48"/><line class="cls-5" x1="270.25" y1="857.48" x2="272.73" y2="857.48"/><line class="cls-5" x1="272.73" y1="857.48" x2="272.73" y2="847.61"/><line class="cls-5" x1="272.73" y1="847.61" x2="270.25" y2="847.61"/><line class="cls-5" x1="164.13" y1="847.61" x2="163.89" y2="847.61"/><line class="cls-5" x1="163.89" y1="857.48" x2="148.83" y2="857.48"/><line class="cls-5" x1="163.89" y1="847.61" x2="148.83" y2="847.61"/><polyline class="cls-5" points="148.84 857.48 148.84 847.61 148.84 847.61 148.84 857.48 148.84 857.48"/><polyline class="cls-5" points="163.89 857.48 163.89 847.61 161.41 847.61 161.41 857.48 163.89 857.48"/><line class="cls-5" x1="161.41" y1="855.02" x2="148.83" y2="855.02"/><polyline class="cls-5" points="163.89 847.61 163.89 857.48 163.89 847.61"/><polyline class="cls-5" points="148.84 847.61 148.84 857.48 148.84 847.61"/><path class="cls-5" d="M164.13,857.47" transform="translate(0 0)"/><path class="cls-5" d="M270.25,857.47" transform="translate(0 0)"/><path class="cls-5" d="M166.6,901.89A44.43,44.43,0,0,0,211,857.46" transform="translate(0 0)"/><path class="cls-5" d="M211,857.46a24.68,24.68,0,0,0,24.66,24.68h0" transform="translate(0 0)"/><polyline class="cls-5" points="238.18 857.48 260.39 857.48 260.39 854.02 238.18 854.02 238.18 857.48"/><polyline class="cls-5" points="166.61 862.42 167.84 862.42 167.84 896.97 166.61 896.97 166.61 862.42"/><polyline class="cls-5" points="167.84 862.42 169.07 862.42 169.07 896.97 167.84 896.97 167.84 862.42"/><polyline class="cls-5" points="235.7 877.23 235.7 862.42 234.47 862.42 234.47 877.23 235.7 877.23"/><polyline class="cls-5" points="234.47 877.23 234.47 862.42 233.24 862.42 233.24 877.23 234.47 877.23"/><line class="cls-5" x1="265.33" y1="857.48" x2="270.25" y2="857.48"/><polyline class="cls-5" points="265.33 854.02 265.33 857.48 260.39 857.48 260.39 854.02 265.33 854.02 270.25 854.02 270.25 857.48"/><polyline class="cls-5" points="235.7 854.02 235.7 857.48 238.18 857.48 238.18 854.02 235.7 854.02"/><polyline class="cls-5" points="164.13 857.48 166.61 857.48 166.61 854.02 164.13 854.02"/><line class="cls-5" x1="260.39" y1="855.02" x2="238.18" y2="855.02"/><line class="cls-5" x1="238.18" y1="854.02" x2="260.39" y2="854.02"/><polyline class="cls-5" points="166.61 901.91 166.61 896.97 169.07 896.97 169.07 901.91 166.61 901.91"/><polyline class="cls-5" points="169.07 857.48 169.07 862.42 166.61 862.42 166.61 857.48 169.07 857.48"/><line class="cls-5" x1="167.84" y1="896.97" x2="167.84" y2="862.42"/><polyline class="cls-5" points="235.7 882.17 235.7 877.23 233.24 877.23 233.24 882.17 235.7 882.17"/><polyline class="cls-5" points="233.24 857.48 233.24 862.42 235.7 862.42 235.7 857.48 233.24 857.48"/><line class="cls-5" x1="234.47" y1="877.22" x2="234.47" y2="862.42"/><polyline class="cls-5" points="270.25 847.61 270.25 854.02 270.25 857.48 270.25 854.02"/><path class="cls-5" d="M148.84,857.47" transform="translate(0 0)"/><line class="cls-5" x1="163.64" y1="847.61" x2="163.64" y2="734.09"/><line class="cls-5" x1="164.13" y1="847.61" x2="164.13" y2="734.09"/><line class="cls-5" x1="164.13" y1="734.09" x2="163.64" y2="734.09"/><line class="cls-5" x1="163.64" y1="734.09" x2="158.7" y2="734.09"/><line class="cls-6" x1="158.7" y1="734.09" x2="158.7" y2="847.61"/><line class="cls-5" x1="164.13" y1="847.61" x2="163.64" y2="847.61"/><line class="cls-5" x1="163.64" y1="847.61" x2="161.41" y2="847.61"/><polyline class="cls-5" points="273.71 857.98 272.73 857.98 267.79 857.98 267.79 863.9 272.73 863.9 273.71 863.9"/><polyline class="cls-5" points="148.84 847.61 148.84 854.53 161.41 854.53 161.41 847.61"/><line class="cls-5" x1="158.7" y1="847.61" x2="148.83" y2="847.61"/><line class="cls-5" x1="148.83" y1="514.44" x2="148.83" y2="487.78"/><line class="cls-5" x1="148.83" y1="496.92" x2="148.83" y2="505.32"/><path class="cls-5" d="M147.48,508.72a33.14,33.14,0,0,0,.81-7.63" transform="translate(0 0)"/><line class="cls-5" x1="450.42" y1="485.81" x2="450.42" y2="459.16"/><line class="cls-5" x1="450.42" y1="459.16" x2="439.14" y2="459.16"/><line class="cls-5" x1="450.42" y1="485.81" x2="439.14" y2="485.81"/><line class="cls-5" x1="450.42" y1="468.29" x2="450.42" y2="476.69"/><line class="cls-5" x1="441.37" y1="470.24" x2="441.37" y2="471.67"/><line class="cls-5" x1="443.61" y1="472.49" x2="442.18" y2="472.49"/><line class="cls-5" x1="441.37" y1="473.32" x2="441.37" y2="474.73"/><line class="cls-5" x1="440.54" y1="472.49" x2="439.13" y2="472.49"/><path class="cls-5" d="M438.44,484.16a11.92,11.92,0,0,0,5.62-4.61" transform="translate(0 0)"/><path class="cls-5" d="M444.07,479.56a11.91,11.91,0,0,0,1.66-7.09" transform="translate(0 0)"/><path class="cls-5" d="M444.05,465.39a11.9,11.9,0,0,0-5.62-4.6" transform="translate(0 0)"/><path class="cls-5" d="M445.73,472.48a11.88,11.88,0,0,0-1.66-7.08" transform="translate(0 0)"/><path class="cls-5" d="M430.21,473.42a22,22,0,0,0,2.21,8.09" transform="translate(0 0)"/><path class="cls-5" d="M439.14,459.15a6.79,6.79,0,0,0-5.58,2.53" transform="translate(0 0)"/><path class="cls-5" d="M430.2,471.55a14.43,14.43,0,0,0,0,1.86" transform="translate(0 0)"/><path class="cls-5" d="M443.62,479.93a48.41,48.41,0,0,0,0-14.91" transform="translate(0 0)"/><path class="cls-5" d="M448.28,463.65a16.75,16.75,0,0,0-10.9-3.78" transform="translate(0 0)"/><path class="cls-5" d="M449.88,472.48a33.16,33.16,0,0,0-.83-7.63" transform="translate(0 0)"/><path class="cls-5" d="M449.05,464.85a2.28,2.28,0,0,0-.76-1.23" transform="translate(0 0)"/><path class="cls-5" d="M448.81,472.47a57.23,57.23,0,0,0-.54-7.51" transform="translate(0 0)"/><path class="cls-5" d="M447.54,463.59a15,15,0,0,0-10.16-3.76" transform="translate(0 0)"/><path class="cls-5" d="M448.27,465a2.29,2.29,0,0,0-.73-1.35" transform="translate(0 0)"/><path class="cls-5" d="M437.41,485.13a15,15,0,0,0,10.15-3.78" transform="translate(0 0)"/><path class="cls-5" d="M437.41,485.13a16.77,16.77,0,0,0,10.9-3.8" transform="translate(0 0)"/><path class="cls-5" d="M448.28,480a55.54,55.54,0,0,0,.53-7.51" transform="translate(0 0)"/><path class="cls-5" d="M449.07,480.08a33.7,33.7,0,0,0,.81-7.63" transform="translate(0 0)"/><path class="cls-5" d="M447.56,481.34a2.25,2.25,0,0,0,.72-1.36" transform="translate(0 0)"/><path class="cls-5" d="M448.29,481.32a2.24,2.24,0,0,0,.76-1.23" transform="translate(0 0)"/><path class="cls-5" d="M433.56,483.27a6.79,6.79,0,0,0,5.58,2.53" transform="translate(0 0)"/><path class="cls-5" d="M432.41,481.51a11,11,0,0,0,1.15,1.77" transform="translate(0 0)"/><path class="cls-5" d="M433.54,461.65a11,11,0,0,0-1.15,1.78" transform="translate(0 0)"/><path class="cls-5" d="M432.41,463.45a22,22,0,0,0-2.2,8.09" transform="translate(0 0)"/><path class="cls-5" d="M432.09,468.81a15.7,15.7,0,0,0,0,7.34" transform="translate(0 0)"/><path class="cls-5" d="M435.14,482.79a4,4,0,0,0,3.3,1.38" transform="translate(0 0)"/><path class="cls-5" d="M432.09,476.15a14.44,14.44,0,0,0,3.05,6.64" transform="translate(0 0)"/><path class="cls-5" d="M438.43,460.8a4,4,0,0,0-3.29,1.37" transform="translate(0 0)"/><path class="cls-5" d="M435.13,462.17a14.51,14.51,0,0,0-3,6.64" transform="translate(0 0)"/><path class="cls-5" d="M441.36,470.74a1.73,1.73,0,1,0,1.73,1.73,1.72,1.72,0,0,0-1.73-1.73h0" transform="translate(0 0)"/><path class="cls-5" d="M441.36,471.23a1.24,1.24,0,1,0,1.24,1.24,1.25,1.25,0,0,0-1.24-1.24" transform="translate(0 0)"/><line class="cls-5" x1="373.17" y1="537.45" x2="373.17" y2="520.04"/><line class="cls-5" x1="372.43" y1="545.05" x2="391.18" y2="545.05"/><line class="cls-5" x1="372.43" y1="545.05" x2="372.43" y2="538.5"/><line class="cls-5" x1="381.8" y1="534.39" x2="388.77" y2="534.39"/><line class="cls-5" x1="373.17" y1="520.05" x2="374.85" y2="534.39"/><line class="cls-5" x1="381.8" y1="534.39" x2="374.85" y2="534.39"/><line class="cls-5" x1="390.44" y1="520.05" x2="388.77" y2="534.39"/><line class="cls-5" x1="373.62" y1="520.05" x2="375.29" y2="534.39"/><line class="cls-5" x1="390" y1="520.05" x2="388.32" y2="534.39"/><line class="cls-5" x1="390.44" y1="537.47" x2="390.44" y2="520.04"/><line class="cls-5" x1="391.18" y1="545.05" x2="391.18" y2="538.5"/><line class="cls-5" x1="373.17" y1="520.05" x2="373.42" y2="518.12"/><line class="cls-5" x1="373.42" y1="518.12" x2="374.15" y2="516.31"/><line class="cls-5" x1="374.15" y1="516.31" x2="375.34" y2="514.7"/><line class="cls-5" x1="375.34" y1="514.7" x2="376.9" y2="513.41"/><line class="cls-5" x1="376.9" y1="513.41" x2="378.74" y2="512.51"/><line class="cls-5" x1="378.74" y1="512.51" x2="380.77" y2="512.03"/><line class="cls-5" x1="380.77" y1="512.03" x2="382.85" y2="512.03"/><line class="cls-5" x1="382.85" y1="512.03" x2="384.88" y2="512.51"/><line class="cls-5" x1="384.88" y1="512.51" x2="386.73" y2="513.41"/><line class="cls-5" x1="386.73" y1="513.41" x2="388.28" y2="514.7"/><line class="cls-5" x1="388.28" y1="514.7" x2="389.46" y2="516.31"/><line class="cls-5" x1="389.46" y1="516.31" x2="390.2" y2="518.12"/><line class="cls-5" x1="390.2" y1="518.12" x2="390.44" y2="520.05"/><line class="cls-5" x1="373.62" y1="520.05" x2="373.86" y2="518.23"/><line class="cls-5" x1="373.86" y1="518.23" x2="374.54" y2="516.51"/><line class="cls-5" x1="374.54" y1="516.51" x2="375.67" y2="514.99"/><line class="cls-5" x1="375.67" y1="514.99" x2="377.15" y2="513.77"/><line class="cls-5" x1="377.15" y1="513.77" x2="378.91" y2="512.9"/><line class="cls-5" x1="378.91" y1="512.9" x2="380.83" y2="512.47"/><line class="cls-5" x1="380.83" y1="512.47" x2="382.8" y2="512.47"/><line class="cls-5" x1="382.8" y1="512.47" x2="384.72" y2="512.9"/><line class="cls-5" x1="384.72" y1="512.9" x2="386.47" y2="513.77"/><line class="cls-5" x1="386.47" y1="513.77" x2="387.94" y2="514.99"/><line class="cls-5" x1="387.94" y1="514.99" x2="389.06" y2="516.51"/><line class="cls-5" x1="389.06" y1="516.51" x2="389.77" y2="518.23"/><line class="cls-5" x1="389.77" y1="518.23" x2="390" y2="520.05"/><path class="cls-5" d="M390.2,537.4a80,80,0,0,0-16.81,0" transform="translate(0 0)"/><path class="cls-5" d="M373.39,537.4a1.1,1.1,0,0,0-1,1.08" transform="translate(0 0)"/><path class="cls-5" d="M391.18,538.48a1.07,1.07,0,0,0-1-1.08" transform="translate(0 0)"/><path class="cls-5" d="M381.8,541.82a.91.91,0,1,0-.92-.91.91.91,0,0,0,.92.91h0" transform="translate(0 0)"/><line class="cls-5" x1="282.34" y1="42.82" x2="282.34" y2="69.97"/><polyline class="cls-5" points="282.34 41.59 282.34 42.82 281.11 42.82 281.11 69.97 282.34 69.97"/><polyline class="cls-5" points="281.11 42.82 281.11 41.59 282.34 41.59"/><polyline class="cls-5" points="282.34 69.97 282.34 71.2 281.11 71.2 281.11 69.97"/><line class="cls-5" x1="282.34" y1="41.59" x2="282.34" y2="46.64"/><line class="cls-5" x1="282.34" y1="49.85" x2="282.34" y2="54.79"/><line class="cls-5" x1="282.34" y1="57.99" x2="282.34" y2="62.93"/><line class="cls-5" x1="282.34" y1="66.14" x2="282.34" y2="71.2"/><line class="cls-5" x1="281.11" y1="41.59" x2="281.11" y2="46.64"/><line class="cls-5" x1="281.11" y1="49.85" x2="281.11" y2="54.79"/><line class="cls-5" x1="281.11" y1="57.99" x2="281.11" y2="62.93"/><line class="cls-5" x1="281.11" y1="66.14" x2="281.11" y2="71.2"/><line class="cls-5" x1="281.11" y1="41.59" x2="282.34" y2="41.59"/><line class="cls-5" x1="282.34" y1="71.2" x2="281.11" y2="71.2"/><polyline class="cls-5" points="281.11 69.97 282.34 69.97 282.34 71.2 282.34 69.97 281.11 69.97 281.11 71.2 282.34 71.2 281.11 71.2 281.11 69.97"/><polyline class="cls-5" points="281.85 66.14 281.85 69.97 281.85 42.82 281.62 42.82 281.62 69.97 281.85 69.97"/><line class="cls-5" x1="281.85" y1="62.93" x2="281.85" y2="57.99"/><line class="cls-5" x1="281.85" y1="54.79" x2="281.85" y2="49.85"/><line class="cls-5" x1="281.85" y1="46.64" x2="281.85" y2="42.82"/><line class="cls-5" x1="281.62" y1="69.97" x2="281.62" y2="66.14"/><line class="cls-5" x1="281.62" y1="62.93" x2="281.62" y2="57.99"/><line class="cls-5" x1="281.62" y1="54.79" x2="281.62" y2="49.85"/><polyline class="cls-5" points="281.62 46.64 281.62 42.82 281.85 42.82"/><line class="cls-5" x1="281.62" y1="69.97" x2="281.85" y2="69.97"/><polyline class="cls-5" points="328.5 69.97 328.26 69.97 328.26 42.82 328.5 42.82 328.5 69.97"/><line class="cls-5" x1="328.26" y1="69.97" x2="328.26" y2="66.14"/><line class="cls-5" x1="328.26" y1="62.93" x2="328.26" y2="57.99"/><line class="cls-5" x1="328.26" y1="54.79" x2="328.26" y2="49.85"/><line class="cls-5" x1="328.26" y1="46.64" x2="328.26" y2="42.82"/><line class="cls-5" x1="328.5" y1="69.97" x2="328.5" y2="66.14"/><line class="cls-5" x1="328.5" y1="62.93" x2="328.5" y2="57.99"/><line class="cls-5" x1="328.5" y1="54.79" x2="328.5" y2="49.85"/><line class="cls-5" x1="328.5" y1="46.64" x2="328.5" y2="42.82"/><line class="cls-5" x1="328.5" y1="69.97" x2="328.26" y2="69.97"/><line class="cls-5" x1="328.5" y1="42.82" x2="328.26" y2="42.82"/><polyline class="cls-5" points="328.99 42.82 328.99 41.59 327.75 41.59 327.75 42.82"/><line class="cls-5" x1="328.99" y1="71.2" x2="328.99" y2="69.97"/><line class="cls-5" x1="327.76" y1="42.82" x2="327.76" y2="69.97"/><line class="cls-5" x1="328.99" y1="42.82" x2="328.99" y2="69.97"/><line class="cls-5" x1="327.76" y1="71.2" x2="328.99" y2="71.2"/><line class="cls-5" x1="327.76" y1="42.82" x2="328.99" y2="42.82"/><polyline class="cls-5" points="328.99 69.97 327.75 69.97 327.75 71.2"/><line class="cls-5" x1="327.76" y1="41.59" x2="327.76" y2="46.64"/><line class="cls-5" x1="327.76" y1="49.85" x2="327.76" y2="54.79"/><line class="cls-5" x1="327.76" y1="57.99" x2="327.76" y2="62.93"/><line class="cls-5" x1="327.76" y1="66.14" x2="327.76" y2="71.2"/><line class="cls-5" x1="328.99" y1="41.59" x2="328.99" y2="46.64"/><line class="cls-5" x1="328.99" y1="49.85" x2="328.99" y2="54.79"/><line class="cls-5" x1="328.99" y1="57.99" x2="328.99" y2="62.93"/><line class="cls-5" x1="328.99" y1="66.14" x2="328.99" y2="71.2"/><line class="cls-5" x1="328.99" y1="41.59" x2="327.76" y2="41.59"/><polyline class="cls-5" points="328.99 71.2 328.99 69.97 327.75 69.97 327.75 71.2 328.99 71.2 327.75 71.2 327.75 69.97 328.99 69.97 328.99 71.2 327.75 71.2"/><line class="cls-5" x1="327.76" y1="42.82" x2="282.34" y2="42.82"/><polyline class="cls-5" points="328.99 42.82 327.75 42.82 327.75 41.59 282.34 41.59 282.34 42.82"/><polyline class="cls-5" points="327.75 41.59 328.99 41.59 328.99 42.82"/><polyline class="cls-5" points="282.34 42.82 281.11 42.82 281.11 41.59 282.34 41.59"/><polyline class="cls-5" points="328.99 42.82 327.75 42.82 327.75 41.59 328.99 41.59 328.99 42.82"/><polyline class="cls-5" points="322.94 42.82 328.99 42.82 327.75 42.82 327.75 41.59 328.99 41.59 328.99 42.82"/><line class="cls-5" x1="319.74" y1="42.82" x2="314.8" y2="42.82"/><line class="cls-5" x1="311.59" y1="42.82" x2="306.65" y2="42.82"/><line class="cls-5" x1="303.45" y1="42.82" x2="298.52" y2="42.82"/><line class="cls-5" x1="295.3" y1="42.82" x2="290.38" y2="42.82"/><line class="cls-5" x1="287.16" y1="42.82" x2="281.11" y2="42.82"/><line class="cls-5" x1="328.99" y1="41.59" x2="322.94" y2="41.59"/><line class="cls-5" x1="319.74" y1="41.59" x2="314.8" y2="41.59"/><line class="cls-5" x1="311.59" y1="41.59" x2="306.65" y2="41.59"/><line class="cls-5" x1="303.45" y1="41.59" x2="298.52" y2="41.59"/><line class="cls-5" x1="295.3" y1="41.59" x2="290.38" y2="41.59"/><line class="cls-5" x1="287.16" y1="41.59" x2="281.11" y2="41.59"/><line class="cls-5" x1="328.99" y1="41.59" x2="328.99" y2="42.82"/><polyline class="cls-5" points="282.34 42.82 281.11 42.82 281.11 41.59 281.11 42.82"/><polyline class="cls-5" points="282.34 42.82 282.34 41.59 281.11 41.59 281.11 42.82 282.34 42.82 282.34 41.59 281.11 41.59"/><polyline class="cls-5" points="327.75 42.82 327.75 41.59 326.52 41.59 326.52 42.82 327.75 42.82 326.52 42.82 326.52 41.59 327.75 41.59 327.75 42.82 327.75 41.59"/><line class="cls-5" x1="282.34" y1="42.82" x2="287.16" y2="42.82"/><line class="cls-5" x1="290.38" y1="42.82" x2="295.3" y2="42.82"/><line class="cls-5" x1="298.52" y1="42.82" x2="303.45" y2="42.82"/><line class="cls-5" x1="306.65" y1="42.82" x2="311.59" y2="42.82"/><line class="cls-5" x1="314.8" y1="42.82" x2="319.74" y2="42.82"/><line class="cls-5" x1="322.94" y1="42.82" x2="327.76" y2="42.82"/><line class="cls-5" x1="282.34" y1="41.59" x2="287.16" y2="41.59"/><line class="cls-5" x1="290.38" y1="41.59" x2="295.3" y2="41.59"/><line class="cls-5" x1="298.52" y1="41.59" x2="303.45" y2="41.59"/><line class="cls-5" x1="306.65" y1="41.59" x2="311.59" y2="41.59"/><line class="cls-5" x1="314.8" y1="41.59" x2="319.74" y2="41.59"/><line class="cls-5" x1="322.94" y1="41.59" x2="327.76" y2="41.59"/><polyline class="cls-5" points="283.59 41.59 282.34 41.59 282.34 42.82 282.34 41.59"/><polyline class="cls-5" points="282.34 42.82 282.34 41.59 283.59 41.59 283.59 42.82 282.34 42.82 283.59 42.82 283.59 41.59"/><polyline class="cls-5" points="283.59 42.82 326.52 42.82 327.75 42.82 327.75 41.59 326.52 41.59 283.59 41.59"/><line class="cls-5" x1="326.52" y1="41.59" x2="326.52" y2="42.82"/><polyline class="cls-5" points="283.59 41.59 283.59 42.82 282.34 42.82 282.34 41.59 283.59 41.59"/><polyline class="cls-5" points="326.52 42.32 326.52 42.08 283.59 42.08 283.59 42.32 326.52 42.32"/><line class="cls-5" x1="283.59" y1="42.32" x2="287.16" y2="42.32"/><line class="cls-5" x1="290.38" y1="42.32" x2="295.3" y2="42.32"/><line class="cls-5" x1="298.52" y1="42.32" x2="303.45" y2="42.32"/><line class="cls-5" x1="306.65" y1="42.32" x2="311.59" y2="42.32"/><line class="cls-5" x1="314.8" y1="42.32" x2="319.74" y2="42.32"/><line class="cls-5" x1="322.94" y1="42.32" x2="326.52" y2="42.32"/><line class="cls-5" x1="283.59" y1="42.08" x2="287.16" y2="42.08"/><line class="cls-5" x1="290.38" y1="42.08" x2="295.3" y2="42.08"/><line class="cls-5" x1="298.52" y1="42.08" x2="303.45" y2="42.08"/><line class="cls-5" x1="306.65" y1="42.08" x2="311.59" y2="42.08"/><line class="cls-5" x1="314.8" y1="42.08" x2="319.74" y2="42.08"/><polyline class="cls-5" points="322.94 42.08 326.52 42.08 326.52 42.32"/><line class="cls-5" x1="283.59" y1="42.08" x2="283.59" y2="42.32"/><line class="cls-5" x1="297.11" y1="42.82" x2="295.14" y2="42.82"/><line class="cls-5" x1="293.91" y1="41.57" x2="291.95" y2="41.57"/><line class="cls-5" x1="297.11" y1="41.57" x2="295.14" y2="41.57"/><line class="cls-5" x1="298.67" y1="42.82" x2="298.34" y2="42.82"/><line class="cls-5" x1="298.67" y1="41.57" x2="298.34" y2="41.57"/><line class="cls-5" x1="284.31" y1="42.82" x2="282.34" y2="42.82"/><line class="cls-5" x1="284.31" y1="41.57" x2="282.34" y2="41.57"/><line class="cls-5" x1="287.52" y1="41.57" x2="285.55" y2="41.57"/><line class="cls-5" x1="287.52" y1="42.82" x2="285.55" y2="42.82"/><line class="cls-5" x1="290.72" y1="42.82" x2="288.75" y2="42.82"/><line class="cls-5" x1="293.91" y1="42.82" x2="291.95" y2="42.82"/><line class="cls-5" x1="290.72" y1="41.57" x2="288.75" y2="41.57"/><line class="cls-5" x1="327.76" y1="42.82" x2="325.8" y2="42.82"/><polyline class="cls-5" points="327.75 41.57 325.8 41.57 323.94 41.57"/><line class="cls-5" x1="322.71" y1="42.82" x2="320.73" y2="42.82"/><line class="cls-5" x1="325.8" y1="42.82" x2="323.94" y2="42.82"/><line class="cls-5" x1="319.5" y1="41.57" x2="317.53" y2="41.57"/><line class="cls-5" x1="322.71" y1="41.57" x2="320.73" y2="41.57"/><line class="cls-5" x1="316.3" y1="42.82" x2="314.34" y2="42.82"/><line class="cls-5" x1="319.5" y1="42.82" x2="317.53" y2="42.82"/><line class="cls-5" x1="313.11" y1="41.57" x2="311.14" y2="41.57"/><line class="cls-5" x1="316.3" y1="41.57" x2="314.34" y2="41.57"/><line class="cls-5" x1="309.91" y1="42.82" x2="307.94" y2="42.82"/><line class="cls-5" x1="313.11" y1="42.82" x2="311.14" y2="42.82"/><line class="cls-5" x1="306.7" y1="41.57" x2="304.73" y2="41.57"/><line class="cls-5" x1="309.91" y1="41.57" x2="307.94" y2="41.57"/><line class="cls-5" x1="303.5" y1="42.82" x2="301.55" y2="42.82"/><line class="cls-5" x1="306.7" y1="42.82" x2="304.73" y2="42.82"/><line class="cls-5" x1="303.5" y1="41.57" x2="301.55" y2="41.57"/><line class="cls-5" x1="297.11" y1="42.82" x2="295.14" y2="42.82"/><line class="cls-5" x1="300.32" y1="42.82" x2="298.34" y2="42.82"/><line class="cls-5" x1="297.11" y1="41.57" x2="295.14" y2="41.57"/><line class="cls-5" x1="300.32" y1="41.57" x2="298.34" y2="41.57"/><line class="cls-5" x1="290.72" y1="42.82" x2="288.75" y2="42.82"/><line class="cls-5" x1="293.91" y1="42.82" x2="291.95" y2="42.82"/><line class="cls-5" x1="290.72" y1="41.57" x2="288.75" y2="41.57"/><line class="cls-5" x1="293.91" y1="41.57" x2="291.95" y2="41.57"/><line class="cls-5" x1="284.31" y1="42.82" x2="282.34" y2="42.82"/><line class="cls-5" x1="287.52" y1="42.82" x2="285.55" y2="42.82"/><line class="cls-5" x1="284.31" y1="41.57" x2="282.34" y2="41.57"/><line class="cls-5" x1="287.52" y1="41.57" x2="285.55" y2="41.57"/><polyline class="cls-5" points="326.52 50.46 283.59 50.46 283.59 66.26 326.52 66.26 326.52 50.46"/><polyline class="cls-5" points="326.52 52.05 283.59 52.05 283.59 66.26 326.52 66.26 326.52 52.05"/><line class="cls-5" x1="243.1" y1="857.48" x2="238.18" y2="857.48"/><line class="cls-5" x1="243.1" y1="734.09" x2="238.18" y2="734.09"/><line class="cls-5" x1="243.1" y1="734.09" x2="243.1" y2="857.48"/><line class="cls-5" x1="238.18" y1="734.09" x2="238.18" y2="857.48"/><line class="cls-5" x1="243.1" y1="734.09" x2="243.1" y2="736.55"/><line class="cls-5" x1="243.1" y1="736.55" x2="238.18" y2="736.55"/><line class="cls-5" x1="238.18" y1="736.55" x2="238.18" y2="734.09"/><line class="cls-5" x1="238.18" y1="792.08" x2="238.18" y2="790.36"/><line class="cls-5" x1="238.18" y1="790.36" x2="243.1" y2="790.36"/><line class="cls-5" x1="243.1" y1="790.36" x2="243.1" y2="792.08"/><line class="cls-5" x1="240.64" y1="736.55" x2="240.64" y2="790.36"/><line class="cls-5" x1="243.1" y1="736.55" x2="243.1" y2="790.36"/><line class="cls-5" x1="238.18" y1="790.36" x2="238.18" y2="736.55"/><line class="cls-5" x1="243.1" y1="792.08" x2="243.1" y2="793.8"/><line class="cls-5" x1="243.1" y1="793.8" x2="238.18" y2="793.8"/><line class="cls-5" x1="238.18" y1="793.8" x2="238.18" y2="792.08"/><line class="cls-5" x1="238.18" y1="857.48" x2="238.18" y2="847.61"/><line class="cls-5" x1="238.18" y1="847.61" x2="243.1" y2="847.61"/><line class="cls-5" x1="243.1" y1="847.61" x2="243.1" y2="857.48"/><line class="cls-5" x1="240.64" y1="793.8" x2="240.64" y2="847.61"/><line class="cls-5" x1="243.1" y1="793.8" x2="243.1" y2="847.61"/><line class="cls-5" x1="238.18" y1="847.61" x2="238.18" y2="793.8"/><line class="cls-5" x1="243.1" y1="734.09" x2="238.18" y2="734.09"/><line class="cls-5" x1="243.1" y1="734.09" x2="238.18" y2="734.09"/><line class="cls-5" x1="243.1" y1="857.48" x2="238.18" y2="857.48"/><line class="cls-5" x1="243.1" y1="857.48" x2="238.18" y2="857.48"/><line class="cls-6" x1="158.7" y1="798.25" x2="148.83" y2="798.25"/><line class="cls-6" x1="148.83" y1="847.61" x2="158.7" y2="847.61"/><polyline class="cls-6" points="158.7 689.67 148.84 689.67 148.84 640.31 158.7 640.31 158.7 689.67"/><polyline class="cls-6" points="301.85 847.61 291.97 847.61 291.97 798.25 301.85 798.25 301.85 847.61"/><polyline class="cls-6" points="301.85 689.67 291.97 689.67 291.97 640.31 301.85 640.31 301.85 689.67"/><polyline class="cls-6" points="0.76 136.85 10.62 136.85 10.62 87.49 0.76 87.49 0.76 136.85"/><polyline class="cls-6" points="10.62 250.38 0.76 250.38 0.76 299.74 10.62 299.74 10.62 250.38"/><polyline class="cls-6" points="163.64 136.85 173.5 136.85 173.5 87.49 163.64 87.49 163.64 136.85"/><polyline class="cls-6" points="173.5 250.38 163.64 250.38 163.64 299.74 173.5 299.74 173.5 250.38"/><polyline class="cls-6" points="301.85 136.85 311.72 136.85 311.72 87.49 301.85 87.49 301.85 136.85"/><polyline class="cls-6" points="311.72 250.38 301.85 250.38 301.85 299.74 311.72 299.74 311.72 250.38"/><polyline class="cls-6" points="0.76 432.99 0.76 423.13 59.98 423.13 59.98 432.99 0.76 432.99"/><polyline class="cls-6" points="148.84 508.02 158.7 508.02 158.7 557.38 148.84 557.38 148.84 508.02"/><polyline class="cls-6" points="301.85 432.99 301.85 423.13 351.21 423.13 351.21 432.99 301.85 432.99"/><polyline class="cls-6" points="451.9 798.25 451.9 837.73 451.9 847.61 459.8 847.61 459.8 837.73 459.8 798.25"/><polyline class="cls-6" points="459.8 136.85 459.8 97.36 459.8 87.49 451.9 87.49 451.9 97.36 451.9 136.85"/><g id="_9" data-name=" 9"><g id="_8" data-name=" 8"><g id="_8-2" data-name=" 8-2"><g id="_6" data-name=" 6"><g id="_6-2" data-name=" 6-2"><g id="_5" data-name=" 5"><g id="_3" data-name=" 3"><g id="_2" data-name=" 2"><g id="_1" data-name=" 1"><g id="_3-2" data-name=" 3-2"><g id="_1-2" data-name=" 1-2"><g id="plan"><text class="cls-8" transform="translate(221.89 933.15)">у</text><text class="cls-9" transform="translate(227.31 933.15)">лица</text><line class="cls-10" x1="211.13" y1="935.98" x2="211.13" y2="927.18"/><polyline class="cls-10" points="207.63 932.49 211.13 935.99 214.63 932.49"/></g></g></g></g></g></g></g></g></g></g></g></g><g id="_9-2" data-name=" 9-2"><g id="_8-3" data-name=" 8-3"><g id="_8-4" data-name=" 8-4"><g id="_6-3" data-name=" 6-3"><g id="_6-4" data-name=" 6-4"><g id="_5-2" data-name=" 5-2"><g id="_3-3" data-name=" 3-3"><g id="_2-2" data-name=" 2-2"><g id="_1-3" data-name=" 1-3"><g id="_3-4" data-name=" 3-4"><g id="_1-4" data-name=" 1-4"><g id="plan-2"><text class="cls-11" transform="translate(224.69 10.2)">двор</text><line class="cls-10" x1="213.93" y1="3.23" x2="213.93" y2="12.03"/><polyline class="cls-10" points="217.43 6.73 213.93 3.23 210.43 6.73"/></g></g></g></g></g></g></g></g></g></g></g></g></g></svg>