<svg xmlns="http://www.w3.org/2000/svg" xmlns:xlink="http://www.w3.org/1999/xlink" width="21" height="21" viewBox="0 0 21 21">
    <defs>
        <path id="a" d="M0 0h20.156v21H0z"/>
    </defs>
    <g fill="none" fill-rule="evenodd">
        <g>
            <mask id="b" fill="#fff">
                <use xlink:href="#a"/>
            </mask>
            <path fill="#FFF" d="M10.078 0C7.34 0 6.998.012 5.923.063 4.85.113 4.118.292 3.477.55a4.937 4.937 0 0 0-1.785 1.21 5.193 5.193 0 0 0-1.163 1.86c-.25.669-.42 1.432-.468 2.55C.01 7.29 0 7.649 0 10.5c0 2.852.012 3.209.06 4.329.05 1.118.22 1.88.469 2.549.258.69.603 1.276 1.163 1.86.56.584 1.122.943 1.785 1.21.64.26 1.373.438 2.446.489 1.075.05 1.418.063 4.155.063s3.08-.012 4.155-.063c1.073-.051 1.805-.23 2.446-.488a4.912 4.912 0 0 0 1.785-1.211c.56-.584.905-1.17 1.162-1.86.25-.668.42-1.431.469-2.55.049-1.12.06-1.476.06-4.328 0-2.851-.011-3.21-.06-4.33-.05-1.117-.22-1.88-.47-2.548a5.176 5.176 0 0 0-1.161-1.86A4.937 4.937 0 0 0 16.679.55c-.641-.26-1.373-.437-2.446-.488C13.158.012 12.815 0 10.078 0m0 1.892c2.69 0 3.009.01 4.072.06.983.048 1.516.219 1.87.363.472.19.808.418 1.16.785.353.367.57.717.754 1.208.138.37.302.926.347 1.949.048 1.107.059 1.439.059 4.243 0 2.804-.011 3.136-.06 4.243-.044 1.024-.208 1.58-.346 1.95-.183.49-.401.84-.754 1.207a3.117 3.117 0 0 1-1.16.786c-.354.143-.887.314-1.87.36-1.062.05-1.381.062-4.072.062s-3.01-.011-4.072-.061c-.983-.047-1.516-.218-1.872-.361a3.121 3.121 0 0 1-1.158-.786 3.264 3.264 0 0 1-.754-1.207c-.138-.37-.302-.926-.347-1.95-.05-1.107-.06-1.44-.06-4.243 0-2.804.01-3.136.06-4.243.045-1.023.209-1.58.347-1.95A3.26 3.26 0 0 1 2.976 3.1a3.107 3.107 0 0 1 1.158-.785c.356-.144.889-.315 1.872-.362 1.062-.05 1.38-.061 4.072-.061" mask="url(#b)"/>
        </g>
        <path fill="#FFF" d="M10.078 14c-1.855 0-3.36-1.567-3.36-3.5S8.224 7 10.079 7s3.359 1.567 3.359 3.5-1.504 3.5-3.36 3.5m0-8.892c-2.857 0-5.174 2.414-5.174 5.392s2.317 5.392 5.175 5.392c2.858 0 5.175-2.414 5.175-5.392s-2.317-5.392-5.175-5.392M16.666 4.895c0 .696-.54 1.26-1.209 1.26-.668 0-1.21-.564-1.21-1.26 0-.696.542-1.26 1.21-1.26.668 0 1.21.564 1.21 1.26"/>
    </g>
</svg>
