<svg id="_191" data-name="191" xmlns="http://www.w3.org/2000/svg" viewBox="0 0 268.5 806.54"><defs><style>.cls-1{isolation:isolate;font-size:12px;fill:#969696;}.cls-1,.cls-3,.cls-4,.cls-6{font-family:PTSans-Regular, PT Sans;}.cls-10,.cls-2,.cls-5,.cls-7,.cls-8,.cls-9{fill:none;stroke-linecap:round;stroke-linejoin:round;}.cls-2{stroke:#969696;stroke-width:0.75px;}.cls-3{font-size:40px;}.cls-4{font-size:40.54px;}.cls-10,.cls-5,.cls-7,.cls-8,.cls-9{stroke:#000;}.cls-5{stroke-width:0.5px;}.cls-6{font-size:36px;}.cls-10,.cls-7,.cls-8{stroke-width:0.25px;}.cls-8{stroke-dasharray:0.93 0.93;}.cls-10{stroke-dasharray:0.92 0.92;}</style></defs><title>7floor_191flat</title><text class="cls-1" transform="translate(128.68 803.34)">двор</text><line class="cls-2" x1="117.92" y1="806.17" x2="117.92" y2="797.37"/><polyline class="cls-2" points="114.42 802.67 117.92 806.17 121.42 802.67"/><text class="cls-3" transform="translate(109.46 462.47)">CT</text><text class="cls-4" transform="translate(83.46 512.64)">23.68</text><text class="cls-3" transform="translate(78.82 412.56)">№191</text><polyline class="cls-5" points="69.81 523.46 69.81 374.38 194.13 374.38 194.13 523.46"/><line class="cls-5" x1="69.81" y1="424.17" x2="194.13" y2="424.17"/><line class="cls-5" x1="69.81" y1="523.45" x2="194.13" y2="523.45"/><line class="cls-5" x1="69.81" y1="473.95" x2="194.13" y2="473.95"/><text class="cls-6" transform="translate(124.74 318.21)">2.08</text><text class="cls-6" transform="translate(85.73 648.46)">15.68</text><text class="cls-6" transform="translate(124.64 129.06)">3.19</text><text class="cls-6" transform="translate(31.8 129.06)">2.73</text><line class="cls-7" x1="122.49" y1="104.2" x2="122.49" y2="104.66"/><line class="cls-8" x1="122.49" y1="105.58" x2="122.49" y2="175.44"/><line class="cls-7" x1="122.49" y1="175.9" x2="122.49" y2="176.36"/><line class="cls-7" x1="116.27" y1="110.56" x2="116.27" y2="111.02"/><line class="cls-8" x1="116.27" y1="111.94" x2="116.27" y2="181.8"/><line class="cls-7" x1="116.27" y1="182.26" x2="116.27" y2="182.72"/><line class="cls-7" x1="92.8" y1="0.48" x2="92.34" y2="0.48"/><line class="cls-8" x1="91.41" y1="0.48" x2="21.56" y2="0.48"/><line class="cls-7" x1="21.1" y1="0.48" x2="20.64" y2="0.48"/><line class="cls-7" x1="113.64" y1="198.76" x2="113.18" y2="198.76"/><line class="cls-8" x1="112.26" y1="198.76" x2="42.4" y2="198.76"/><line class="cls-7" x1="41.94" y1="198.76" x2="41.48" y2="198.76"/><line class="cls-7" x1="113.64" y1="205.06" x2="113.18" y2="205.06"/><line class="cls-8" x1="112.26" y1="205.06" x2="42.4" y2="205.06"/><line class="cls-7" x1="41.94" y1="205.06" x2="41.48" y2="205.06"/><line class="cls-9" x1="0.5" y1="720.55" x2="63.46" y2="720.55"/><line class="cls-9" x1="0.5" y1="708.72" x2="63.46" y2="708.72"/><line class="cls-9" x1="0.5" y1="708.72" x2="0.5" y2="708.72"/><line class="cls-9" x1="0.5" y1="708.72" x2="0.5" y2="708.72"/><line class="cls-9" x1="0.5" y1="720.55" x2="0.5" y2="720.55"/><polyline class="cls-9" points="0.5 708.72 0.5 703.98 0.5 692.98"/><polyline class="cls-9" points="63.46 721.3 0.5 721.3 0.5 694.5"/><polyline class="cls-9" points="63.46 712.64 63.46 692.98 0.5 692.98"/><line class="cls-9" x1="0.5" y1="708.72" x2="0.5" y2="708.72"/><line class="cls-9" x1="0.5" y1="703.98" x2="0.5" y2="703.98"/><polyline class="cls-9" points="0.5 692.98 0.5 703.98 0.5 708.72 0.5 703.98"/><polyline class="cls-9" points="0.5 708.72 0.5 708.72 0.5 708.72"/><line class="cls-9" x1="223.94" y1="720.55" x2="268" y2="720.55"/><polyline class="cls-9" points="220.78 720.55 220.78 712.64 220.78 708.72"/><polyline class="cls-9" points="66.54 720.55 66.54 712.64 66.54 708.72"/><line class="cls-9" x1="220.78" y1="721.3" x2="220.78" y2="720.55"/><line class="cls-9" x1="66.54" y1="721.3" x2="66.54" y2="720.55"/><polyline class="cls-9" points="223.94 720.55 221.61 720.55 221.61 708.72 221.61 720.55"/><line class="cls-9" x1="221.61" y1="721.3" x2="220.78" y2="721.3"/><polyline class="cls-9" points="63.46 720.55 65.79 720.55 65.79 708.72 65.79 720.55"/><line class="cls-9" x1="65.79" y1="721.3" x2="66.54" y2="721.3"/><polyline class="cls-9" points="223.94 708.72 223.94 703.98 223.94 692.98"/><polyline class="cls-9" points="63.46 708.72 63.46 703.98 63.46 692.98"/><line class="cls-9" x1="63.46" y1="721.3" x2="65.79" y2="721.3"/><line class="cls-9" x1="221.61" y1="721.3" x2="268" y2="721.3"/><line class="cls-9" x1="268" y1="692.98" x2="223.94" y2="692.98"/><polyline class="cls-9" points="220.78 721.3 66.54 721.3 66.54 725.29 220.78 725.29 220.78 721.3"/><line class="cls-9" x1="63.46" y1="692.98" x2="223.94" y2="692.98"/><polyline class="cls-9" points="63.46 703.98 67.79 703.98 67.79 707.14 69.71 707.14 69.71 708.72 63.46 708.72"/><polyline class="cls-9" points="118.01 708.72 114.84 708.72 114.84 707.14 116.84 707.14 116.84 703.98 118.01 703.98"/><line class="cls-9" x1="114.84" y1="708.72" x2="69.71" y2="708.72"/><polyline class="cls-9" points="67.79 702.48 72.45 702.48 112.1 702.48"/><polyline class="cls-9" points="72.45 702.48 72.45 707.14 67.79 707.14 67.79 702.48"/><polyline class="cls-9" points="116.84 707.14 112.1 707.14 112.1 702.48 116.84 702.48 116.84 707.14"/><line class="cls-9" x1="112.1" y1="707.14" x2="72.45" y2="707.14"/><line class="cls-9" x1="72.45" y1="702.48" x2="112.1" y2="702.48"/><line class="cls-9" x1="72.45" y1="704.81" x2="112.1" y2="704.81"/><polyline class="cls-9" points="118.01 703.98 119.17 703.98 119.17 707.14 121.17 707.14 121.17 708.72 118.01 708.72"/><polyline class="cls-9" points="169.39 708.72 166.23 708.72 166.23 707.14 168.23 707.14 168.23 703.98 169.39 703.98"/><line class="cls-9" x1="166.23" y1="708.72" x2="121.17" y2="708.72"/><polyline class="cls-9" points="119.17 702.48 123.92 702.48 163.48 702.48"/><polyline class="cls-9" points="123.92 702.48 123.92 707.14 119.17 707.14 119.17 702.48"/><polyline class="cls-9" points="168.23 707.14 163.48 707.14 163.48 702.48 168.23 702.48 168.23 707.14"/><line class="cls-9" x1="163.48" y1="707.14" x2="123.92" y2="707.14"/><line class="cls-9" x1="123.92" y1="702.48" x2="163.48" y2="702.48"/><line class="cls-9" x1="123.92" y1="704.81" x2="163.48" y2="704.81"/><polyline class="cls-9" points="169.39 703.98 170.56 703.98 170.56 707.14 172.56 707.14 172.56 708.72 169.39 708.72"/><polyline class="cls-9" points="223.94 708.72 217.7 708.72 217.7 707.14 219.61 707.14 219.61 703.98 223.94 703.98"/><line class="cls-9" x1="217.7" y1="708.72" x2="172.56" y2="708.72"/><polyline class="cls-9" points="170.56 702.48 175.31 702.48 214.87 702.48"/><polyline class="cls-9" points="175.31 702.48 175.31 707.14 170.56 707.14 170.56 702.48"/><polyline class="cls-9" points="219.61 707.14 214.87 707.14 214.87 702.48 219.61 702.48 219.61 707.14"/><line class="cls-9" x1="214.87" y1="707.14" x2="175.31" y2="707.14"/><line class="cls-9" x1="175.31" y1="702.48" x2="214.87" y2="702.48"/><line class="cls-9" x1="175.31" y1="704.81" x2="214.87" y2="704.81"/><polyline class="cls-9" points="63.46 692.98 63.46 703.98 63.46 708.72 63.46 703.98"/><polyline class="cls-9" points="223.94 692.98 223.94 703.98 223.94 708.72 223.94 703.98"/><line class="cls-9" x1="66.54" y1="721.3" x2="66.54" y2="720.55"/><polyline class="cls-9" points="66.54 708.72 65.79 708.72 66.54 708.72"/><polyline class="cls-9" points="65.79 708.72 63.46 708.72 65.79 708.72"/><line class="cls-9" x1="220.78" y1="721.3" x2="220.78" y2="720.55"/><polyline class="cls-9" points="220.78 708.72 221.61 708.72 220.78 708.72"/><polyline class="cls-9" points="221.61 708.72 223.94 708.72 221.61 708.72"/><polyline class="cls-9" points="66.54 720.55 66.54 712.64 66.54 708.72"/><polyline class="cls-9" points="220.78 720.55 220.78 712.64 220.78 708.72"/><polyline class="cls-9" points="252.26 39.81 268 39.81 252.26 39.81"/><line class="cls-9" x1="252.26" y1="39.81" x2="252.26" y2="275.99"/><line class="cls-9" x1="268" y1="275.99" x2="268" y2="55.55"/><polyline class="cls-9" points="252.26 275.99 252.26 692.98 268 692.98 268 275.99"/><line class="cls-9" x1="112.18" y1="198.79" x2="112.18" y2="205.12"/><polyline class="cls-9" points="41.39 198.79 41.39 205.12 16.24 205.12"/><line class="cls-9" x1="112.18" y1="205.12" x2="116.18" y2="205.12"/><line class="cls-9" x1="116.18" y1="198.79" x2="112.18" y2="198.79"/><polyline class="cls-9" points="41.39 198.79 16.24 198.79 16.24 205.12"/><line class="cls-9" x1="41.39" y1="198.79" x2="41.39" y2="205.12"/><line class="cls-9" x1="112.18" y1="198.79" x2="112.18" y2="205.12"/><polyline class="cls-9" points="116.18 244.43 252.26 244.43 252.26 238.18 122.42 238.18"/><line class="cls-9" x1="116.18" y1="170.48" x2="122.42" y2="170.48"/><line class="cls-9" x1="116.18" y1="115.43" x2="122.42" y2="115.43"/><line class="cls-9" x1="122.42" y1="238.18" x2="122.42" y2="170.48"/><polyline class="cls-9" points="122.42 115.43 122.42 81.95 116.18 81.95 116.18 115.43"/><line class="cls-9" x1="116.18" y1="170.48" x2="116.18" y2="198.79"/><polyline class="cls-9" points="116.18 244.43 116.18 238.18 116.18 205.12"/><line class="cls-9" x1="116.18" y1="115.43" x2="122.42" y2="115.43"/><line class="cls-9" x1="116.18" y1="170.48" x2="122.42" y2="170.48"/><polyline class="cls-9" points="248.34 85.53 248.34 82.36 248.34 79.2"/><polyline class="cls-9" points="216.86 85.53 216.86 82.36 216.86 79.2"/><line class="cls-9" x1="96.44" y1="85.53" x2="116.18" y2="85.53"/><line class="cls-9" x1="122.42" y1="85.53" x2="216.86" y2="85.53"/><polyline class="cls-9" points="248.34 85.53 252.26 85.53 252.26 79.2 248.34 79.2"/><line class="cls-9" x1="216.86" y1="79.2" x2="212.95" y2="79.2"/><line class="cls-9" x1="206.62" y1="79.2" x2="102.77" y2="79.2"/><line class="cls-10" x1="216.86" y1="85.53" x2="248.34" y2="85.53"/><line class="cls-10" x1="216.86" y1="79.2" x2="248.34" y2="79.2"/><line class="cls-9" x1="248.34" y1="85.53" x2="218.78" y2="96.27"/><polyline class="cls-9" points="216.86 79.2 216.86 82.36 216.86 85.53 216.86 82.36"/><polyline class="cls-9" points="248.34 79.2 248.34 82.36 248.34 85.53 248.34 82.36"/><polyline class="cls-9" points="268 226.36 268 220.03 268 226.36"/><polyline class="cls-9" points="0.5 16.24 0.5 692.98 16.24 692.98 16.24 16.24 0.5 16.24"/><polyline class="cls-9" points="102.77 79.2 102.77 39.81 96.44 39.81"/><polyline class="cls-9" points="96.44 85.53 96.44 79.2 96.44 39.81"/><line class="cls-9" x1="206.62" y1="39.81" x2="206.62" y2="79.2"/><polyline class="cls-9" points="212.95 79.2 212.95 39.81 206.62 39.81"/><path class="cls-9" d="M216.86,85.53a31.58,31.58,0,0,0,1.9,10.75"/><line class="cls-9" x1="268" y1="39.81" x2="268" y2="39.81"/><line class="cls-9" x1="268" y1="24.07" x2="268" y2="24.07"/><polyline class="cls-9" points="268 720.92 268 708.72 252.26 708.72"/><line class="cls-9" x1="245.76" y1="226.36" x2="245.76" y2="186.22"/><line class="cls-9" x1="241.52" y1="181.47" x2="149.91" y2="181.47"/><line class="cls-9" x1="241.52" y1="231.11" x2="149.91" y2="231.11"/><line class="cls-9" x1="124.01" y1="176.81" x2="249.93" y2="176.81"/><polyline class="cls-9" points="124.01 176.81 124.01 235.77 249.93 235.77 249.93 176.81"/><line class="cls-9" x1="164.65" y1="222.86" x2="236.35" y2="222.86"/><line class="cls-9" x1="238.43" y1="220.53" x2="238.43" y2="192.05"/><line class="cls-9" x1="164.65" y1="189.71" x2="236.35" y2="189.71"/><line class="cls-9" x1="223.69" y1="207.7" x2="223.69" y2="210.62"/><line class="cls-9" x1="224.94" y1="206.29" x2="227.61" y2="206.29"/><line class="cls-9" x1="223.69" y1="204.87" x2="223.69" y2="201.96"/><line class="cls-9" x1="222.44" y1="206.29" x2="219.78" y2="206.29"/><path class="cls-9" d="M150,181.55c-12.17,0-22,11.1-22,24.78s9.86,24.78,22,24.78"/><path class="cls-9" d="M245.76,186.26a4.48,4.48,0,0,0-4.2-4.71"/><path class="cls-9" d="M241.56,231.11a4.48,4.48,0,0,0,4.2-4.71"/><path class="cls-9" d="M223.73,208.79a2.48,2.48,0,1,0-2.2-2.46,2.34,2.34,0,0,0,2.2,2.46"/><path class="cls-9" d="M164.69,189.71c-8.12,0-14.7,7.44-14.7,16.62s6.58,16.61,14.7,16.61"/><path class="cls-9" d="M236.39,222.94a2.26,2.26,0,0,0,2.13-2.37"/><path class="cls-9" d="M238.52,192.09a2.27,2.27,0,0,0-2.13-2.38"/><path class="cls-9" d="M223.73,209.62a3.31,3.31,0,1,0-2.95-3.29,3.13,3.13,0,0,0,2.95,3.29"/><polyline class="cls-9" points="235.85 143.74 249.93 143.74 249.93 176.81 235.85 176.81"/><line class="cls-9" x1="249.93" y1="165.48" x2="249.93" y2="155.07"/><line class="cls-9" x1="238.68" y1="162.98" x2="238.68" y2="161.23"/><line class="cls-9" x1="241.43" y1="160.23" x2="239.68" y2="160.23"/><line class="cls-9" x1="238.68" y1="159.23" x2="238.68" y2="157.48"/><line class="cls-9" x1="237.68" y1="160.23" x2="235.85" y2="160.23"/><path class="cls-9" d="M242.07,151.55a14.81,14.81,0,0,0-7-5.7"/><path class="cls-9" d="M244.13,160.29a14.56,14.56,0,0,0-2.07-8.76"/><path class="cls-9" d="M235.08,174.78a14.81,14.81,0,0,0,7-5.7"/><path class="cls-9" d="M242.06,169a14.56,14.56,0,0,0,2.07-8.76"/><path class="cls-9" d="M227.59,149.08a27.21,27.21,0,0,0-2.74,10"/><path class="cls-9" d="M229,173.67a8.48,8.48,0,0,0,6.95,3.13"/><path class="cls-9" d="M224.82,159.12a14.85,14.85,0,0,0,0,2.31"/><path class="cls-9" d="M241.55,169.52a60.34,60.34,0,0,0,0-18.49"/><path class="cls-9" d="M233.79,176a21,21,0,0,0,13.56-4.69"/><path class="cls-9" d="M248.23,169.75a41.24,41.24,0,0,0,1-9.46"/><path class="cls-9" d="M247.32,171.26a2.79,2.79,0,0,0,1-1.54"/><path class="cls-9" d="M247.25,169.57a70.86,70.86,0,0,0,.68-9.31"/><path class="cls-9" d="M233.73,176a18.83,18.83,0,0,0,12.67-4.67"/><path class="cls-9" d="M246.4,171.28a2.79,2.79,0,0,0,.92-1.71"/><path class="cls-9" d="M246.42,149.26a18.82,18.82,0,0,0-12.66-4.68"/><path class="cls-9" d="M247.37,149.28a20.94,20.94,0,0,0-13.56-4.7"/><path class="cls-9" d="M247.93,160.3a72.31,72.31,0,0,0-.66-9.3"/><path class="cls-9" d="M249.26,160.31a41.28,41.28,0,0,0-1-9.46"/><path class="cls-9" d="M247.32,151a2.82,2.82,0,0,0-.92-1.71"/><path class="cls-9" d="M248.28,150.83a2.82,2.82,0,0,0-1-1.54"/><path class="cls-9" d="M235.92,143.83A8.48,8.48,0,0,0,229,147"/><path class="cls-9" d="M229.05,146.88a12.71,12.71,0,0,0-1.42,2.2"/><path class="cls-9" d="M227.63,171.47a13.1,13.1,0,0,0,1.42,2.2"/><path class="cls-9" d="M224.85,161.44a27.21,27.21,0,0,0,2.74,10"/><path class="cls-9" d="M227.15,155.73a19.4,19.4,0,0,0,0,9.09"/><path class="cls-9" d="M235.07,145.75a5,5,0,0,0-4.09,1.71"/><path class="cls-9" d="M230.93,147.49a18,18,0,0,0-3.8,8.25"/><path class="cls-9" d="M231,173.09a5,5,0,0,0,4.09,1.71"/><path class="cls-9" d="M227.13,164.81a18,18,0,0,0,3.8,8.24"/><path class="cls-9" d="M240.85,160.27a2.13,2.13,0,1,0-2.12,2.13,2.12,2.12,0,0,0,2.12-2.13"/><path class="cls-9" d="M240.27,160.27a1.55,1.55,0,1,0-1.54,1.55,1.54,1.54,0,0,0,1.54-1.55"/><line class="cls-9" x1="237.85" y1="103.19" x2="210.04" y2="103.19"/><polyline class="cls-9" points="239.52 102.02 249.93 102.02 249.93 131.92"/><line class="cls-9" x1="232.94" y1="116.93" x2="232.94" y2="128.09"/><polyline class="cls-9" points="210.12 103.19 232.94 105.85 232.94 116.93"/><line class="cls-9" x1="210.12" y1="130.75" x2="232.94" y2="128.09"/><line class="cls-9" x1="210.12" y1="103.94" x2="232.94" y2="106.6"/><line class="cls-9" x1="210.12" y1="130" x2="232.94" y2="127.34"/><line class="cls-9" x1="237.85" y1="130.75" x2="210.04" y2="130.75"/><line class="cls-9" x1="249.93" y1="131.92" x2="239.52" y2="131.92"/><polyline class="cls-9" points="210.12 103.19 207.04 103.6 204.12 104.77 201.54 106.68 199.46 109.1 198.04 112.1 197.29 115.26 197.29 118.59 198.04 121.84 199.46 124.84 201.54 127.25 204.12 129.17 207.04 130.34 210.12 130.75"/><polyline class="cls-9" points="210.12 103.94 207.2 104.27 204.46 105.43 202.04 107.18 200.04 109.52 198.71 112.35 197.96 115.43 197.96 118.51 198.71 121.59 200.04 124.42 202.04 126.75 204.46 128.5 207.2 129.67 210.12 130"/><path class="cls-9" d="M237.81,103.56a126.46,126.46,0,0,0,0,26.81"/><path class="cls-9" d="M239.56,102.1a1.76,1.76,0,0,0-1.78,1.52"/><path class="cls-9" d="M237.78,130.38a1.76,1.76,0,0,0,1.78,1.54"/><path class="cls-9" d="M244.85,117a1.46,1.46,0,1,0-1.46,1.46,1.46,1.46,0,0,0,1.46-1.46"/><polyline class="cls-9" points="205.04 289.32 248.34 289.32 248.34 246.01 205.04 246.01 205.04 289.32"/><polyline class="cls-9" points="209.04 285.4 244.43 285.4 244.43 253.92 209.04 253.92 209.04 285.4"/><polyline class="cls-9" points="220.44 723.3 220.03 723.3 220.03 766.6 220.44 766.6 220.44 723.3"/><polyline class="cls-9" points="218.86 768.18 218.86 767.77 146.41 767.77 146.41 768.18 218.86 768.18"/><polyline class="cls-9" points="144.91 766.6 145.24 766.6 145.24 723.3 144.91 723.3 144.91 766.6"/><polyline class="cls-9" points="220.78 721.3 218.86 721.3 218.86 723.3 220.78 723.3 220.78 721.3"/><polyline class="cls-9" points="220.78 766.6 218.86 766.6 218.86 768.52 220.78 768.52 220.78 766.6"/><polyline class="cls-9" points="146.41 768.52 146.41 766.6 144.49 766.6 144.49 768.52 146.41 768.52"/><polyline class="cls-9" points="144.49 723.3 146.41 723.3 146.41 721.3 144.49 721.3 144.49 723.3"/><line class="cls-9" x1="218.86" y1="722.3" x2="218.86" y2="766.6"/><line class="cls-9" x1="220.78" y1="768.52" x2="220.78" y2="722.3"/><line class="cls-9" x1="218.86" y1="766.6" x2="146.41" y2="766.6"/><line class="cls-9" x1="144.49" y1="768.52" x2="220.78" y2="768.52"/><line class="cls-9" x1="146.41" y1="766.6" x2="146.41" y2="722.3"/><line class="cls-9" x1="144.49" y1="722.3" x2="144.49" y2="768.52"/><polyline class="cls-9" points="220.78 722.3 220.78 721.3 218.86 721.3 218.86 722.3"/><polyline class="cls-9" points="146.41 722.3 146.41 721.3 144.49 721.3 144.49 722.3"/><polyline class="cls-9" points="144.49 768.52 220.78 768.52 220.78 722.3 218.86 722.3 218.86 766.6 146.41 766.6 146.41 722.3 144.49 722.3 144.49 768.52"/><polyline class="cls-9" points="148.41 754.36 216.86 754.36 216.86 729.21 148.41 729.21 148.41 754.36"/><polyline class="cls-9" points="148.41 751.86 216.86 751.86 216.86 729.21 148.41 729.21 148.41 751.86"/><polyline class="cls-9" points="17.82 16.24 17.82 6.83 17.82 0.5"/><polyline class="cls-9" points="96.44 16.24 96.44 6.83 96.44 0.5"/><polyline class="cls-9" points="0.5 16.24 0.5 6.83 0.5 0.5"/><line class="cls-9" x1="112.18" y1="0.5" x2="96.44" y2="0.5"/><line class="cls-9" x1="17.82" y1="0.5" x2="0.5" y2="0.5"/><line class="cls-9" x1="0.5" y1="16.24" x2="17.82" y2="16.24"/><path class="cls-9" d="M21,77.7A70.83,70.83,0,0,0,91.78,6.87"/><line class="cls-9" x1="94.94" y1="6.83" x2="96.44" y2="6.83"/><polyline class="cls-9" points="94.94 0.5 94.94 6.83 91.78 6.83 91.78 0.5 94.94 0.5 96.44 0.5 96.44 6.83"/><polyline class="cls-9" points="17.82 6.83 20.9 6.83 20.9 0.5 17.82 0.5 17.82 6.83"/><line class="cls-9" x1="20.9" y1="6.83" x2="20.9" y2="77.62"/><polyline class="cls-9" points="96.44 0.5 96.44 6.83 96.44 0.5"/><line class="cls-9" x1="96.44" y1="16.24" x2="96.44" y2="6.83"/><polyline class="cls-9" points="17.82 0.5 17.82 6.83 17.82 0.5"/><line class="cls-9" x1="17.82" y1="16.24" x2="17.82" y2="6.83"/><polyline class="cls-9" points="0.5 6.83 0.5 6.83 0.5 0.5 0.5 0.5 0.5 6.83"/><polyline class="cls-9" points="0.5 0.5 0.5 6.83 0.5 0.5"/><line class="cls-9" x1="0.5" y1="16.24" x2="0.5" y2="6.83"/><polyline class="cls-9" points="112.18 0.5 112.18 16.24 112.18 24.07"/><line class="cls-9" x1="96.44" y1="16.24" x2="96.44" y2="39.81"/><line class="cls-9" x1="268" y1="39.81" x2="268" y2="39.81"/><line class="cls-9" x1="268" y1="24.07" x2="268" y2="55.55"/><line class="cls-9" x1="268" y1="24.07" x2="112.18" y2="24.07"/><polyline class="cls-9" points="96.44 39.81 112.18 39.81 252.26 39.81"/><polyline class="cls-9" points="252.26 205.12 268 205.12 268 283.82 252.26 283.82 252.26 205.12"/><polyline class="cls-9" points="252.26 630.02 268 630.02 268 708.72 252.26 708.72 252.26 630.02"/><polyline class="cls-9" points="0.5 205.12 16.24 205.12 16.24 283.82 0.5 283.82 0.5 205.12"/><polyline class="cls-9" points="0.5 630.02 16.24 630.02 16.24 708.72 0.5 708.72 0.5 630.02"/></svg>