<svg id="_395" data-name="395" xmlns="http://www.w3.org/2000/svg" viewBox="0 0 1084.88 1026.96"><defs><style>.cls-1{isolation:isolate;font-size:12px;fill:#969696;}.cls-1,.cls-4,.cls-5,.cls-7{font-family:PTSans-Regular, PT Sans;}.cls-2{letter-spacing:-0.01em;}.cls-10,.cls-11,.cls-3,.cls-6,.cls-8,.cls-9{fill:none;stroke-linecap:round;stroke-linejoin:round;}.cls-3{stroke:#969696;stroke-width:0.75px;}.cls-4{font-size:40px;}.cls-5{font-size:40.54px;}.cls-10,.cls-11,.cls-6,.cls-8,.cls-9{stroke:#000;}.cls-6{stroke-width:0.5px;}.cls-7{font-size:36px;}.cls-10,.cls-8,.cls-9{stroke-width:0.25px;}.cls-9{stroke-dasharray:0.99 0.99;}.cls-10{stroke-dasharray:1 1;}</style></defs><title>12floor_395flat</title><text class="cls-1" transform="translate(519.87 1023.77)"><tspan class="cls-2">у</tspan><tspan x="5.42" y="0">лица</tspan></text><line class="cls-3" x1="509.11" y1="1026.59" x2="509.11" y2="1017.79"/><polyline class="cls-3" points="505.61 1023.09 509.11 1026.59 512.61 1023.09"/><text class="cls-1" transform="translate(10.2 508.97) rotate(-90)"><tspan class="cls-2">у</tspan><tspan x="5.42" y="0">лица</tspan></text><line class="cls-3" x1="4.22" y1="519.73" x2="13.02" y2="519.73"/><polyline class="cls-3" points="7.72 516.23 4.22 519.73 7.72 523.23"/><text class="cls-4" transform="translate(606.83 682.12)">3K</text><text class="cls-5" transform="translate(581.41 732.29)">80.68</text><text class="cls-4" transform="translate(576.77 632.21)">№395</text><polyline class="cls-6" points="567.76 743.1 567.76 594.03 692.09 594.03 692.09 743.1"/><line class="cls-6" x1="567.76" y1="643.81" x2="692.09" y2="643.81"/><line class="cls-6" x1="567.76" y1="743.1" x2="692.09" y2="743.1"/><line class="cls-6" x1="567.76" y1="693.6" x2="692.09" y2="693.6"/><text class="cls-7" transform="translate(588.03 815.03)">15.69</text><text class="cls-7" transform="translate(887.23 815.03)">15.34</text><text class="cls-7" transform="translate(268.6 815.03)">14.22</text><text class="cls-7" transform="translate(333.84 944.12)">0.92</text><text class="cls-7" transform="translate(159.08 446.76)">14.42</text><text class="cls-7" transform="translate(925.71 331.39)">4.72</text><text class="cls-7" transform="translate(767.37 216.06)">12.27</text><text class="cls-7" transform="translate(925.71 155.62)">3.10</text><line class="cls-8" x1="810.28" y1="0.5" x2="810.78" y2="0.5"/><line class="cls-9" x1="811.77" y1="0.5" x2="886.85" y2="0.5"/><line class="cls-8" x1="887.35" y1="0.5" x2="887.85" y2="0.5"/><line class="cls-8" x1="807.89" y1="443.43" x2="808.39" y2="443.43"/><line class="cls-9" x1="809.38" y1="443.43" x2="884.46" y2="443.43"/><line class="cls-8" x1="884.96" y1="443.43" x2="885.46" y2="443.43"/><line class="cls-8" x1="661.04" y1="443.43" x2="661.54" y2="443.43"/><line class="cls-9" x1="662.54" y1="443.43" x2="737.62" y2="443.43"/><line class="cls-8" x1="738.11" y1="443.43" x2="738.61" y2="443.43"/><line class="cls-8" x1="807.89" y1="450.09" x2="808.39" y2="450.09"/><line class="cls-9" x1="809.38" y1="450.09" x2="884.46" y2="450.09"/><line class="cls-8" x1="884.96" y1="450.09" x2="885.46" y2="450.09"/><line class="cls-8" x1="659.03" y1="450.09" x2="659.53" y2="450.09"/><line class="cls-9" x1="660.52" y1="450.09" x2="735.6" y2="450.09"/><line class="cls-8" x1="736.1" y1="450.09" x2="736.6" y2="450.09"/><line class="cls-8" x1="311.69" y1="554.94" x2="312.19" y2="554.94"/><line class="cls-10" x1="313.19" y1="554.94" x2="478.84" y2="554.94"/><line class="cls-8" x1="479.34" y1="554.94" x2="479.84" y2="554.94"/><line class="cls-8" x1="311.69" y1="548.28" x2="312.19" y2="548.28"/><line class="cls-10" x1="313.19" y1="548.28" x2="478.84" y2="548.28"/><line class="cls-8" x1="479.34" y1="548.28" x2="479.84" y2="548.28"/><line class="cls-8" x1="900.13" y1="175.8" x2="900.13" y2="175.3"/><line class="cls-9" x1="900.13" y1="174.3" x2="900.13" y2="99.22"/><line class="cls-8" x1="900.13" y1="98.73" x2="900.13" y2="98.23"/><line class="cls-8" x1="906.88" y1="175.8" x2="906.88" y2="175.3"/><line class="cls-9" x1="906.88" y1="174.3" x2="906.88" y2="99.22"/><line class="cls-8" x1="906.88" y1="98.73" x2="906.88" y2="98.23"/><line class="cls-8" x1="906.88" y1="365.5" x2="906.88" y2="365"/><line class="cls-9" x1="906.88" y1="364" x2="906.88" y2="288.92"/><line class="cls-8" x1="906.88" y1="288.43" x2="906.88" y2="287.93"/><line class="cls-8" x1="900.13" y1="365.5" x2="900.13" y2="365"/><line class="cls-9" x1="900.13" y1="364" x2="900.13" y2="288.92"/><line class="cls-8" x1="900.13" y1="288.43" x2="900.13" y2="287.93"/><line class="cls-8" x1="616.65" y1="427.71" x2="616.65" y2="427.21"/><line class="cls-9" x1="616.65" y1="426.21" x2="616.65" y2="351.13"/><line class="cls-8" x1="616.65" y1="350.64" x2="616.65" y2="350.14"/><line class="cls-8" x1="623.31" y1="427.71" x2="623.31" y2="427.21"/><line class="cls-9" x1="623.31" y1="426.21" x2="623.31" y2="351.13"/><line class="cls-8" x1="623.31" y1="350.64" x2="623.31" y2="350.14"/><line class="cls-11" x1="102.01" y1="279.81" x2="102.01" y2="288.15"/><line class="cls-11" x1="102.81" y1="279.81" x2="102.81" y2="288.15"/><line class="cls-11" x1="107.87" y1="279.81" x2="136.37" y2="279.81"/><line class="cls-11" x1="91.98" y1="279.81" x2="102.01" y2="279.81"/><line class="cls-11" x1="102.81" y1="279.81" x2="107.87" y2="279.81"/><line class="cls-11" x1="136.37" y1="288.15" x2="136.37" y2="279.81"/><line class="cls-11" x1="91.98" y1="279.81" x2="91.98" y2="288.15"/><polyline class="cls-11" points="102.81 279.81 102.81 279.81 104.5 279.81 104.5 279.81 107.87 279.81 107.87 279.81"/><polyline class="cls-11" points="104.5 279.81 104.5 279.81 109.56 279.81 109.56 279.81 104.5 279.81"/><polyline class="cls-11" points="107.87 279.81 102.81 279.81 107.87 279.81"/><polyline class="cls-11" points="102.81 279.81 102.81 279.81 102.81 279.81"/><polyline class="cls-11" points="91.98 279.81 102.01 279.81 102.81 279.81"/><line class="cls-11" x1="107.87" y1="279.81" x2="136.37" y2="279.81"/><line class="cls-11" x1="102.01" y1="874.56" x2="102.81" y2="874.56"/><line class="cls-11" x1="1015.58" y1="874.56" x2="1084.38" y2="874.56"/><line class="cls-11" x1="721.09" y1="874.56" x2="851.15" y2="874.56"/><line class="cls-11" x1="451.81" y1="874.56" x2="556.67" y2="874.56"/><line class="cls-11" x1="102.81" y1="874.56" x2="302.48" y2="874.56"/><line class="cls-11" x1="102.81" y1="873.67" x2="136.37" y2="873.67"/><line class="cls-11" x1="1018.95" y1="873.67" x2="1084.38" y2="873.67"/><line class="cls-11" x1="724.46" y1="873.67" x2="847.78" y2="873.67"/><line class="cls-11" x1="451.81" y1="873.67" x2="553.29" y2="873.67"/><line class="cls-11" x1="136.37" y1="873.67" x2="302.48" y2="873.67"/><line class="cls-11" x1="724.46" y1="868.7" x2="724.46" y2="840.2"/><line class="cls-11" x1="721.09" y1="884.59" x2="721.09" y2="874.56"/><line class="cls-11" x1="724.46" y1="873.67" x2="724.46" y2="868.7"/><line class="cls-11" x1="553.29" y1="868.7" x2="553.29" y2="840.2"/><line class="cls-11" x1="556.67" y1="884.59" x2="556.67" y2="874.56"/><line class="cls-11" x1="553.29" y1="873.67" x2="553.29" y2="868.7"/><line class="cls-11" x1="1018.95" y1="868.7" x2="1018.95" y2="840.2"/><line class="cls-11" x1="1015.58" y1="884.59" x2="1015.58" y2="874.56"/><line class="cls-11" x1="1018.95" y1="873.67" x2="1018.95" y2="868.7"/><line class="cls-11" x1="847.78" y1="868.7" x2="847.78" y2="840.2"/><line class="cls-11" x1="851.15" y1="884.59" x2="851.15" y2="874.56"/><line class="cls-11" x1="847.78" y1="873.67" x2="847.78" y2="868.7"/><line class="cls-11" x1="302.48" y1="870.38" x2="302.48" y2="840.2"/><polyline class="cls-11" points="305.86 884.59 305.86 875.36 302.48 875.36"/><line class="cls-11" x1="302.48" y1="873.67" x2="302.48" y2="870.38"/><line class="cls-11" x1="302.48" y1="875.36" x2="302.48" y2="874.56"/><line class="cls-11" x1="451.81" y1="870.38" x2="451.81" y2="840.2"/><polyline class="cls-11" points="448.44 884.59 448.44 875.36 451.81 875.36"/><line class="cls-11" x1="451.81" y1="873.67" x2="451.81" y2="870.38"/><line class="cls-11" x1="451.81" y1="875.36" x2="451.81" y2="874.56"/><line class="cls-11" x1="1084.38" y1="840.2" x2="1018.95" y2="840.2"/><line class="cls-11" x1="847.78" y1="840.2" x2="724.46" y2="840.2"/><line class="cls-11" x1="553.29" y1="840.2" x2="451.81" y2="840.2"/><line class="cls-11" x1="302.48" y1="840.2" x2="136.37" y2="840.2"/><line class="cls-11" x1="91.98" y1="884.59" x2="305.86" y2="884.59"/><line class="cls-11" x1="448.44" y1="884.59" x2="556.67" y2="884.59"/><line class="cls-11" x1="721.09" y1="884.59" x2="851.15" y2="884.59"/><polyline class="cls-11" points="1015.58 884.59 1084.38 884.59 1084.38 789.74"/><polyline class="cls-11" points="721.09 884.59 556.66 884.59 556.66 888.85 721.09 888.85 721.09 884.59"/><line class="cls-11" x1="553.29" y1="840.2" x2="724.46" y2="840.2"/><polyline class="cls-11" points="553.29 868.7 557.91 868.7 557.91 872.07 560.04 872.07 560.04 873.67 553.29 873.67"/><polyline class="cls-11" points="611.53 873.67 608.16 873.67 608.16 872.07 610.2 872.07 610.2 868.7 611.53 868.7"/><line class="cls-11" x1="608.16" y1="873.67" x2="560.04" y2="873.67"/><polyline class="cls-11" points="557.91 867.01 562.97 867.01 605.23 867.01"/><polyline class="cls-11" points="562.97 867.01 562.97 872.07 557.91 872.07 557.91 867.01"/><polyline class="cls-11" points="610.2 872.07 605.23 872.07 605.23 867.01 610.2 867.01 610.2 872.07"/><line class="cls-11" x1="605.23" y1="872.07" x2="562.97" y2="872.07"/><line class="cls-11" x1="562.97" y1="867.01" x2="605.23" y2="867.01"/><line class="cls-11" x1="562.97" y1="869.5" x2="605.23" y2="869.5"/><polyline class="cls-11" points="611.53 868.7 612.77 868.7 612.77 872.07 614.82 872.07 614.82 873.67 611.53 873.67"/><polyline class="cls-11" points="666.31 873.67 662.94 873.67 662.94 872.07 665.07 872.07 665.07 868.7 666.31 868.7"/><line class="cls-11" x1="662.94" y1="873.67" x2="614.82" y2="873.67"/><polyline class="cls-11" points="612.77 867.01 617.75 867.01 660.01 867.01"/><polyline class="cls-11" points="617.75 867.01 617.75 872.07 612.77 872.07 612.77 867.01"/><polyline class="cls-11" points="665.07 872.07 660.01 872.07 660.01 867.01 665.07 867.01 665.07 872.07"/><line class="cls-11" x1="660.01" y1="872.07" x2="617.75" y2="872.07"/><line class="cls-11" x1="617.75" y1="867.01" x2="660.01" y2="867.01"/><line class="cls-11" x1="617.75" y1="869.5" x2="660.01" y2="869.5"/><polyline class="cls-11" points="666.31 868.7 667.55 868.7 667.55 872.07 669.68 872.07 669.68 873.67 666.31 873.67"/><polyline class="cls-11" points="724.46 873.67 717.72 873.67 717.72 872.07 719.85 872.07 719.85 868.7 724.46 868.7"/><line class="cls-11" x1="717.72" y1="873.67" x2="669.68" y2="873.67"/><polyline class="cls-11" points="667.55 867.01 672.61 867.01 714.79 867.01"/><polyline class="cls-11" points="672.61 867.01 672.61 872.07 667.55 872.07 667.55 867.01"/><polyline class="cls-11" points="719.85 872.07 714.79 872.07 714.79 867.01 719.85 867.01 719.85 872.07"/><line class="cls-11" x1="714.79" y1="872.07" x2="672.61" y2="872.07"/><line class="cls-11" x1="672.61" y1="867.01" x2="714.79" y2="867.01"/><line class="cls-11" x1="672.61" y1="869.5" x2="714.79" y2="869.5"/><polyline class="cls-11" points="553.29 868.7 553.29 873.67 553.29 868.7"/><polyline class="cls-11" points="553.29 873.67 556.66 873.67 553.29 873.67"/><polyline class="cls-11" points="556.66 884.59 556.66 874.56 556.66 873.67"/><line class="cls-11" x1="553.29" y1="868.7" x2="553.29" y2="840.2"/><polyline class="cls-11" points="724.46 868.7 724.46 873.67 724.46 868.7"/><polyline class="cls-11" points="724.46 873.67 721.09 873.67 724.46 873.67"/><polyline class="cls-11" points="721.09 884.59 721.09 874.56 721.09 873.67"/><line class="cls-11" x1="724.46" y1="868.7" x2="724.46" y2="840.2"/><polyline class="cls-11" points="1015.58 884.59 851.15 884.59 851.15 888.85 1015.58 888.85 1015.58 884.59"/><line class="cls-11" x1="847.78" y1="840.2" x2="1018.95" y2="840.2"/><polyline class="cls-11" points="847.78 868.7 852.4 868.7 852.4 872.07 854.53 872.07 854.53 873.67 847.78 873.67"/><polyline class="cls-11" points="905.93 873.67 902.56 873.67 902.56 872.07 904.69 872.07 904.69 868.7 905.93 868.7"/><line class="cls-11" x1="902.56" y1="873.67" x2="854.53" y2="873.67"/><polyline class="cls-11" points="852.4 867.01 857.46 867.01 899.63 867.01"/><polyline class="cls-11" points="857.46 867.01 857.46 872.07 852.4 872.07 852.4 867.01"/><polyline class="cls-11" points="904.69 872.07 899.63 872.07 899.63 867.01 904.69 867.01 904.69 872.07"/><line class="cls-11" x1="899.63" y1="872.07" x2="857.46" y2="872.07"/><line class="cls-11" x1="857.46" y1="867.01" x2="899.63" y2="867.01"/><line class="cls-11" x1="857.46" y1="869.5" x2="899.63" y2="869.5"/><polyline class="cls-11" points="905.93 868.7 907.18 868.7 907.18 872.07 909.31 872.07 909.31 873.67 905.93 873.67"/><polyline class="cls-11" points="960.71 873.67 957.43 873.67 957.43 872.07 959.47 872.07 959.47 868.7 960.71 868.7"/><line class="cls-11" x1="957.43" y1="873.67" x2="909.31" y2="873.67"/><polyline class="cls-11" points="907.18 867.01 912.24 867.01 954.5 867.01"/><polyline class="cls-11" points="912.24 867.01 912.24 872.07 907.18 872.07 907.18 867.01"/><polyline class="cls-11" points="959.47 872.07 954.5 872.07 954.5 867.01 959.47 867.01 959.47 872.07"/><line class="cls-11" x1="954.5" y1="872.07" x2="912.24" y2="872.07"/><line class="cls-11" x1="912.24" y1="867.01" x2="954.5" y2="867.01"/><line class="cls-11" x1="912.24" y1="869.5" x2="954.5" y2="869.5"/><polyline class="cls-11" points="960.71 868.7 962.04 868.7 962.04 872.07 964.09 872.07 964.09 873.67 960.71 873.67"/><polyline class="cls-11" points="1018.95 873.67 1012.2 873.67 1012.2 872.07 1014.34 872.07 1014.34 868.7 1018.95 868.7"/><line class="cls-11" x1="1012.2" y1="873.67" x2="964.08" y2="873.67"/><polyline class="cls-11" points="962.04 867.01 967.01 867.01 1009.27 867.01"/><polyline class="cls-11" points="967.01 867.01 967.01 872.07 962.04 872.07 962.04 867.01"/><polyline class="cls-11" points="1014.34 872.07 1009.27 872.07 1009.27 867.01 1014.34 867.01 1014.34 872.07"/><line class="cls-11" x1="1009.27" y1="872.07" x2="967.01" y2="872.07"/><line class="cls-11" x1="967.01" y1="867.01" x2="1009.27" y2="867.01"/><line class="cls-11" x1="967.01" y1="869.5" x2="1009.27" y2="869.5"/><polyline class="cls-11" points="847.78 868.7 847.78 873.67 847.78 868.7"/><polyline class="cls-11" points="847.78 873.67 851.15 873.67 847.78 873.67"/><polyline class="cls-11" points="851.15 884.59 851.15 874.56 851.15 873.67"/><line class="cls-11" x1="847.78" y1="868.7" x2="847.78" y2="840.2"/><polyline class="cls-11" points="1018.95 868.7 1018.95 873.67 1018.95 868.7"/><polyline class="cls-11" points="1018.95 873.67 1015.58 873.67 1018.95 873.67"/><polyline class="cls-11" points="1015.58 884.59 1015.58 874.56 1015.58 873.67"/><line class="cls-11" x1="1018.95" y1="868.7" x2="1018.95" y2="840.2"/><line class="cls-11" x1="448.44" y1="884.59" x2="305.86" y2="884.59"/><line class="cls-11" x1="451.81" y1="840.2" x2="302.48" y2="840.2"/><polyline class="cls-11" points="451.81 870.38 445.15 870.38 445.15 875.36 451.81 875.36"/><polyline class="cls-11" points="380.08 875.36 383.01 875.36 383.01 870.38 380.08 870.38"/><line class="cls-11" x1="445.16" y1="872.87" x2="383.01" y2="872.87"/><line class="cls-11" x1="445.16" y1="870.38" x2="383.01" y2="870.38"/><line class="cls-11" x1="383.01" y1="875.36" x2="445.16" y2="875.36"/><polyline class="cls-11" points="380.08 870.38 379.28 870.38 379.28 873.67 377.15 873.67 377.15 875.36 380.08 875.36"/><polyline class="cls-11" points="302.48 875.36 309.23 875.36 309.23 873.67 307.1 873.67 307.1 870.38 302.48 870.38"/><line class="cls-11" x1="307.1" y1="868.7" x2="369.6" y2="832.65"/><line class="cls-11" x1="309.23" y1="875.36" x2="377.15" y2="875.36"/><polyline class="cls-11" points="379.28 868.7 374.22 868.7 312.16 868.7"/><polyline class="cls-11" points="374.22 868.7 374.22 873.67 379.28 873.67 379.28 868.7"/><polyline class="cls-11" points="307.1 873.67 312.16 873.67 312.16 868.7 307.1 868.7 307.1 873.67"/><line class="cls-11" x1="312.16" y1="873.67" x2="374.22" y2="873.67"/><line class="cls-11" x1="374.22" y1="868.7" x2="312.16" y2="868.7"/><line class="cls-11" x1="374.22" y1="871.18" x2="312.16" y2="871.18"/><path class="cls-11" d="M407.64,868.15A72.12,72.12,0,0,0,398,832.09" transform="translate(-28.36 0.5)"/><polyline class="cls-11" points="448.44 875.36 451.81 875.36 451.81 874.56 451.81 873.67 451.81 870.38"/><polyline class="cls-11" points="305.86 875.36 302.48 875.36 302.48 874.56 302.48 873.67 302.48 870.38"/><line class="cls-11" x1="102.01" y1="288.15" x2="102.01" y2="359.53"/><line class="cls-11" x1="102.01" y1="502.12" x2="102.01" y2="610.34"/><polyline class="cls-11" points="102.01 774.76 102.01 873.67 102.01 874.56 102.01 873.67"/><line class="cls-11" x1="102.81" y1="288.15" x2="102.81" y2="356.16"/><line class="cls-11" x1="102.81" y1="505.49" x2="102.81" y2="606.97"/><polyline class="cls-11" points="102.81 778.05 102.81 840.2 102.81 873.67 102.81 840.2"/><line class="cls-11" x1="107.87" y1="356.16" x2="136.37" y2="356.16"/><line class="cls-11" x1="91.98" y1="359.53" x2="102.01" y2="359.53"/><line class="cls-11" x1="102.81" y1="356.16" x2="107.87" y2="356.16"/><line class="cls-11" x1="107.87" y1="505.49" x2="136.37" y2="505.49"/><line class="cls-11" x1="91.98" y1="502.12" x2="102.01" y2="502.12"/><line class="cls-11" x1="102.81" y1="505.49" x2="107.87" y2="505.49"/><line class="cls-11" x1="107.87" y1="778.05" x2="136.37" y2="778.05"/><line class="cls-11" x1="91.98" y1="774.77" x2="102.01" y2="774.77"/><line class="cls-11" x1="102.81" y1="778.05" x2="107.87" y2="778.05"/><line class="cls-11" x1="107.87" y1="606.97" x2="136.37" y2="606.97"/><line class="cls-11" x1="91.98" y1="610.34" x2="102.01" y2="610.34"/><line class="cls-11" x1="102.81" y1="606.97" x2="107.87" y2="606.97"/><line class="cls-11" x1="136.37" y1="840.2" x2="136.37" y2="778.05"/><line class="cls-11" x1="136.37" y1="606.97" x2="136.37" y2="505.49"/><line class="cls-11" x1="136.37" y1="356.16" x2="136.37" y2="288.15"/><line class="cls-11" x1="91.98" y1="288.15" x2="91.98" y2="359.53"/><line class="cls-11" x1="91.98" y1="502.12" x2="91.98" y2="610.34"/><polyline class="cls-11" points="91.98 884.59 91.98 874.56 91.98 774.76"/><polyline class="cls-11" points="91.98 359.53 91.98 502.12 87.72 502.12 87.72 359.53 91.98 359.53"/><line class="cls-11" x1="136.37" y1="505.49" x2="136.37" y2="356.16"/><polyline class="cls-11" points="107.87 505.49 107.87 500.87 104.5 500.87 104.5 498.74 102.81 498.74 102.81 505.49"/><polyline class="cls-11" points="102.81 430.82 102.81 434.11 104.5 434.11 104.5 432.07 107.87 432.07 107.87 430.82"/><line class="cls-11" x1="102.81" y1="434.11" x2="102.81" y2="498.74"/><polyline class="cls-11" points="109.56 500.87 109.56 495.81 109.56 437.13"/><polyline class="cls-11" points="109.56 495.81 104.5 495.81 104.5 500.87 109.56 500.87"/><polyline class="cls-11" points="104.5 432.07 104.5 437.13 109.56 437.13 109.56 432.07 104.5 432.07"/><line class="cls-11" x1="104.5" y1="437.13" x2="104.5" y2="495.81"/><line class="cls-11" x1="109.56" y1="495.81" x2="109.56" y2="437.13"/><line class="cls-11" x1="107.07" y1="495.81" x2="107.07" y2="437.13"/><polyline class="cls-11" points="107.87 430.82 107.87 429.58 104.5 429.58 104.5 427.45 102.81 427.45 102.81 430.82"/><polyline class="cls-11" points="102.81 356.16 102.81 362.82 104.5 362.82 104.5 360.78 107.87 360.78 107.87 356.16"/><line class="cls-11" x1="102.81" y1="362.82" x2="102.81" y2="427.45"/><polyline class="cls-11" points="109.56 429.58 109.56 424.52 109.56 365.75"/><polyline class="cls-11" points="109.56 424.52 104.5 424.52 104.5 429.58 109.56 429.58"/><polyline class="cls-11" points="104.5 360.78 104.5 365.75 109.56 365.75 109.56 360.78 104.5 360.78"/><line class="cls-11" x1="104.5" y1="365.75" x2="104.5" y2="424.52"/><line class="cls-11" x1="109.56" y1="424.52" x2="109.56" y2="365.75"/><line class="cls-11" x1="107.07" y1="424.52" x2="107.07" y2="365.75"/><polyline class="cls-11" points="107.87 505.49 102.81 505.49 107.87 505.49"/><polyline class="cls-11" points="102.81 505.49 102.81 502.12 102.81 505.49"/><polyline class="cls-11" points="91.98 502.12 102.01 502.12 102.81 502.12"/><line class="cls-11" x1="107.87" y1="505.49" x2="136.37" y2="505.49"/><polyline class="cls-11" points="107.87 356.16 102.81 356.16 107.87 356.16"/><polyline class="cls-11" points="102.81 356.16 102.81 359.53 102.81 356.16"/><polyline class="cls-11" points="91.98 359.53 102.01 359.53 102.81 359.53"/><line class="cls-11" x1="107.87" y1="356.16" x2="136.37" y2="356.16"/><polyline class="cls-11" points="91.98 774.76 91.98 610.34 87.72 610.34 87.72 774.76 91.98 774.76"/><line class="cls-11" x1="136.37" y1="606.97" x2="136.37" y2="778.05"/><polyline class="cls-11" points="107.87 606.97 107.87 611.59 104.5 611.59 104.5 613.63 102.81 613.63 102.81 606.97"/><polyline class="cls-11" points="102.81 665.12 102.81 661.75 104.5 661.75 104.5 663.88 107.87 663.88 107.87 665.12"/><line class="cls-11" x1="102.81" y1="661.75" x2="102.81" y2="613.63"/><polyline class="cls-11" points="109.56 611.59 109.56 616.64 109.56 658.82"/><polyline class="cls-11" points="109.56 616.64 104.5 616.64 104.5 611.59 109.56 611.59"/><polyline class="cls-11" points="104.5 663.88 104.5 658.82 109.56 658.82 109.56 663.88 104.5 663.88"/><line class="cls-11" x1="104.5" y1="658.82" x2="104.5" y2="616.65"/><line class="cls-11" x1="109.56" y1="616.65" x2="109.56" y2="658.82"/><line class="cls-11" x1="107.07" y1="616.65" x2="107.07" y2="658.82"/><polyline class="cls-11" points="107.87 665.12 107.87 666.36 104.5 666.36 104.5 668.49 102.81 668.49 102.81 665.12"/><polyline class="cls-11" points="102.81 719.9 102.81 716.52 104.5 716.52 104.5 718.65 107.87 718.65 107.87 719.9"/><line class="cls-11" x1="102.81" y1="716.52" x2="102.81" y2="668.49"/><polyline class="cls-11" points="109.56 666.36 109.56 671.42 109.56 713.6"/><polyline class="cls-11" points="109.56 671.42 104.5 671.42 104.5 666.36 109.56 666.36"/><polyline class="cls-11" points="104.5 718.65 104.5 713.6 109.56 713.6 109.56 718.65 104.5 718.65"/><line class="cls-11" x1="104.5" y1="713.59" x2="104.5" y2="671.42"/><line class="cls-11" x1="109.56" y1="671.42" x2="109.56" y2="713.59"/><line class="cls-11" x1="107.07" y1="671.42" x2="107.07" y2="713.59"/><polyline class="cls-11" points="107.87 719.9 107.87 721.14 104.5 721.14 104.5 723.27 102.81 723.27 102.81 719.9"/><polyline class="cls-11" points="102.81 778.05 102.81 771.39 104.5 771.39 104.5 773.43 107.87 773.43 107.87 778.05"/><line class="cls-11" x1="102.81" y1="771.39" x2="102.81" y2="723.27"/><polyline class="cls-11" points="109.56 721.14 109.56 726.2 109.56 768.46"/><polyline class="cls-11" points="109.56 726.2 104.5 726.2 104.5 721.14 109.56 721.14"/><polyline class="cls-11" points="104.5 773.43 104.5 768.46 109.56 768.46 109.56 773.43 104.5 773.43"/><line class="cls-11" x1="104.5" y1="768.46" x2="104.5" y2="726.2"/><line class="cls-11" x1="109.56" y1="726.2" x2="109.56" y2="768.46"/><line class="cls-11" x1="107.07" y1="726.2" x2="107.07" y2="768.46"/><polyline class="cls-11" points="107.87 606.97 102.81 606.97 107.87 606.97"/><polyline class="cls-11" points="102.81 606.97 102.81 610.34 102.81 606.97"/><polyline class="cls-11" points="91.98 610.34 102.01 610.34 102.81 610.34"/><line class="cls-11" x1="107.87" y1="606.97" x2="136.37" y2="606.97"/><polyline class="cls-11" points="107.87 778.05 102.81 778.05 107.87 778.05"/><polyline class="cls-11" points="102.81 778.05 102.81 774.76 102.81 778.05"/><polyline class="cls-11" points="91.98 774.76 102.01 774.76 102.81 774.76"/><line class="cls-11" x1="107.87" y1="778.05" x2="136.37" y2="778.05"/><line class="cls-11" x1="1067.6" y1="443.34" x2="907.35" y2="443.34"/><polyline class="cls-11" points="900.61 450.09 1067.6 450.09 1067.6 443.34"/><line class="cls-11" x1="790.69" y1="840.2" x2="790.69" y2="450.09"/><polyline class="cls-11" points="784.03 450.09 784.03 840.2 790.69 840.2"/><polyline class="cls-11" points="617.13 336.81 623.78 336.81 617.13 336.81"/><line class="cls-11" x1="623.78" y1="349.41" x2="617.13" y2="349.41"/><line class="cls-11" x1="623.78" y1="424.97" x2="617.13" y2="424.97"/><line class="cls-11" x1="617.13" y1="336.81" x2="617.13" y2="349.41"/><line class="cls-11" x1="617.13" y1="424.97" x2="617.13" y2="443.34"/><line class="cls-11" x1="623.78" y1="443.34" x2="623.78" y2="424.97"/><polyline class="cls-11" points="623.78 330.15 623.78 336.81 623.78 349.41"/><line class="cls-11" x1="623.78" y1="424.97" x2="617.13" y2="424.97"/><line class="cls-11" x1="623.78" y1="349.41" x2="617.13" y2="349.41"/><line class="cls-11" x1="312.6" y1="548.19" x2="312.6" y2="554.94"/><line class="cls-11" x1="480.31" y1="548.19" x2="480.31" y2="554.94"/><line class="cls-11" x1="136.37" y1="554.94" x2="312.6" y2="554.94"/><line class="cls-11" x1="480.31" y1="554.94" x2="490.43" y2="554.94"/><line class="cls-11" x1="490.43" y1="548.19" x2="480.31" y2="548.19"/><polyline class="cls-11" points="312.6 548.19 136.37 548.19 136.37 554.94"/><line class="cls-11" x1="480.31" y1="548.19" x2="480.31" y2="554.94"/><line class="cls-11" x1="312.6" y1="548.19" x2="312.6" y2="554.94"/><line class="cls-11" x1="907.35" y1="355.27" x2="900.61" y2="355.27"/><line class="cls-11" x1="907.35" y1="296.59" x2="900.61" y2="296.59"/><line class="cls-11" x1="907.35" y1="162.35" x2="900.61" y2="162.35"/><polyline class="cls-11" points="907.35 103.66 900.61 103.66 900.61 60.87"/><line class="cls-11" x1="900.61" y1="162.35" x2="900.61" y2="296.59"/><polyline class="cls-11" points="900.61 450.09 900.61 443.34 900.61 355.27"/><line class="cls-11" x1="907.35" y1="443.34" x2="907.35" y2="355.27"/><line class="cls-11" x1="907.35" y1="296.59" x2="907.35" y2="236.22"/><line class="cls-11" x1="907.35" y1="229.47" x2="907.35" y2="162.35"/><polyline class="cls-11" points="907.35 103.66 907.35 60.87 900.61 60.87"/><line class="cls-11" x1="907.35" y1="296.59" x2="900.61" y2="296.59"/><line class="cls-11" x1="907.35" y1="355.27" x2="900.61" y2="355.27"/><line class="cls-11" x1="907.35" y1="103.66" x2="900.61" y2="103.66"/><line class="cls-11" x1="907.35" y1="162.35" x2="900.61" y2="162.35"/><polyline class="cls-11" points="537.4 336.81 537.4 333.52 537.4 330.15"/><polyline class="cls-11" points="503.84 336.81 503.84 333.52 503.84 330.15"/><line class="cls-11" x1="617.13" y1="330.15" x2="548.32" y2="330.15"/><line class="cls-11" x1="541.57" y1="330.15" x2="537.4" y2="330.15"/><line class="cls-11" x1="503.84" y1="330.15" x2="499.67" y2="330.15"/><line class="cls-11" x1="492.92" y1="336.81" x2="503.84" y2="336.81"/><line class="cls-11" x1="537.4" y1="336.81" x2="617.13" y2="336.81"/><line class="cls-11" x1="503.84" y1="336.81" x2="537.4" y2="336.81"/><line class="cls-11" x1="503.84" y1="330.15" x2="537.4" y2="330.15"/><path class="cls-11" d="M532.29,336.26a33.41,33.41,0,0,0,2,11.46" transform="translate(-28.36 0.5)"/><line class="cls-11" x1="537.4" y1="336.81" x2="505.88" y2="348.35"/><polyline class="cls-11" points="503.84 330.15 503.84 333.52 503.84 336.81 503.84 333.52"/><polyline class="cls-11" points="537.4 330.15 537.4 333.52 537.4 336.81 537.4 333.52"/><polyline class="cls-11" points="907.35 236.22 1067.6 236.22 1067.6 229.47 1019.75 229.47"/><line class="cls-11" x1="1013" y1="229.47" x2="945.88" y2="229.47"/><line class="cls-11" x1="939.23" y1="229.47" x2="907.35" y2="229.47"/><line class="cls-11" x1="1019.75" y1="229.47" x2="1019.75" y2="195.91"/><line class="cls-11" x1="1013" y1="195.91" x2="1013" y2="229.47"/><line class="cls-11" x1="541.57" y1="296.59" x2="541.57" y2="330.15"/><polyline class="cls-11" points="548.32 330.15 548.32 296.59 541.57 296.59"/><line class="cls-11" x1="617.13" y1="296.59" x2="617.13" y2="330.15"/><polyline class="cls-11" points="623.78 330.15 623.78 296.59 617.13 296.59"/><line class="cls-11" x1="490.43" y1="443.34" x2="490.43" y2="548.19"/><polyline class="cls-11" points="490.43 554.94 490.43 840.2 497.09 840.2 497.09 450.09"/><polyline class="cls-11" points="1063.34 189.25 1063.34 192.53 1063.34 195.91"/><polyline class="cls-11" points="1029.78 189.25 1029.78 192.53 1029.78 195.91"/><line class="cls-11" x1="1067.6" y1="189.25" x2="1063.34" y2="189.25"/><line class="cls-11" x1="1029.78" y1="189.25" x2="939.23" y2="189.25"/><line class="cls-11" x1="945.88" y1="195.91" x2="1013" y2="195.91"/><line class="cls-11" x1="1019.75" y1="195.91" x2="1029.78" y2="195.91"/><polyline class="cls-11" points="1063.34 195.91 1067.6 195.91 1067.6 189.25"/><line class="cls-11" x1="1029.78" y1="189.25" x2="1063.34" y2="189.25"/><line class="cls-11" x1="1029.78" y1="195.91" x2="1063.34" y2="195.91"/><path class="cls-11" d="M1060.25,177.24a33.51,33.51,0,0,0-2,11.47" transform="translate(-28.36 0.5)"/><line class="cls-11" x1="1063.34" y1="189.25" x2="1031.83" y2="177.71"/><polyline class="cls-11" points="1029.78 195.91 1029.78 192.53 1029.78 189.25 1029.78 192.53"/><polyline class="cls-11" points="1063.34 195.91 1063.34 192.53 1063.34 189.25 1063.34 192.53"/><polyline class="cls-11" points="499.67 330.15 499.67 296.59 492.92 296.59"/><polyline class="cls-11" points="492.92 336.81 492.92 330.15 492.92 296.59"/><polyline class="cls-11" points="939.23 189.25 939.23 195.91 939.23 229.47"/><line class="cls-11" x1="945.88" y1="229.47" x2="945.88" y2="195.91"/><line class="cls-11" x1="737.07" y1="450.09" x2="737.07" y2="443.34"/><line class="cls-11" x1="661.52" y1="450.09" x2="661.52" y2="443.34"/><line class="cls-11" x1="808.36" y1="450.09" x2="808.36" y2="443.34"/><polyline class="cls-11" points="883.83 450.09 883.83 443.34 900.61 443.34"/><line class="cls-11" x1="808.36" y1="443.34" x2="737.07" y2="443.34"/><line class="cls-11" x1="661.52" y1="443.34" x2="623.78" y2="443.34"/><polyline class="cls-11" points="490.43 443.34 497.09 443.34 617.13 443.34"/><line class="cls-11" x1="497.09" y1="450.09" x2="661.52" y2="450.09"/><line class="cls-11" x1="737.07" y1="450.09" x2="784.04" y2="450.09"/><line class="cls-11" x1="790.69" y1="450.09" x2="808.36" y2="450.09"/><polyline class="cls-11" points="883.83 450.09 900.61 450.09 900.61 443.34"/><line class="cls-11" x1="661.52" y1="450.09" x2="661.52" y2="443.34"/><line class="cls-11" x1="737.07" y1="450.09" x2="737.07" y2="443.34"/><line class="cls-11" x1="883.83" y1="450.09" x2="883.83" y2="443.34"/><line class="cls-11" x1="808.36" y1="450.09" x2="808.36" y2="443.34"/><line class="cls-11" x1="737.07" y1="296.59" x2="737.07" y2="17.28"/><line class="cls-11" x1="720.29" y1="0.5" x2="720.29" y2="279.81"/><polyline class="cls-11" points="1067.6 60.87 1067.6 840.2 1084.38 840.2 1084.38 73.48"/><line class="cls-11" x1="1084.38" y1="440.41" x2="1084.38" y2="44.09"/><polyline class="cls-11" points="891.46 17.28 891.46 7.16 891.46 0.5"/><polyline class="cls-11" points="807.56 17.28 807.56 7.16 807.56 0.5"/><line class="cls-11" x1="917.39" y1="0.5" x2="891.46" y2="0.5"/><line class="cls-11" x1="807.56" y1="0.5" x2="784.04" y2="0.5"/><polyline class="cls-11" points="720.29 0.5 737.07 0.5 804.92 0.5"/><line class="cls-11" x1="737.07" y1="17.28" x2="807.56" y2="17.28"/><line class="cls-11" x1="891.46" y1="17.28" x2="900.61" y2="17.28"/><line class="cls-11" x1="807.56" y1="17.28" x2="807.74" y2="17.28"/><line class="cls-11" x1="807.83" y1="17.28" x2="807.83" y2="17.28"/><line class="cls-11" x1="807.92" y1="17.28" x2="807.92" y2="17.28"/><line class="cls-11" x1="891.19" y1="17.28" x2="891.46" y2="17.28"/><line class="cls-11" x1="807.56" y1="0.5" x2="807.74" y2="0.5"/><line class="cls-11" x1="807.83" y1="0.5" x2="807.83" y2="0.5"/><line class="cls-11" x1="807.92" y1="0.5" x2="807.92" y2="0.5"/><line class="cls-11" x1="891.19" y1="0.5" x2="891.46" y2="0.5"/><path class="cls-11" d="M839.29,6.61a77.2,77.2,0,0,0,77.2,77.2" transform="translate(-28.36 0.5)"/><polyline class="cls-11" points="807.56 0.5 810.94 0.5 810.94 7.16 807.56 7.16 807.56 0.5"/><polyline class="cls-11" points="891.46 7.16 888.09 7.16 888.09 0.5 891.46 0.5 891.46 7.16"/><line class="cls-11" x1="888.09" y1="7.16" x2="888.09" y2="84.31"/><polyline class="cls-11" points="807.56 0.5 807.56 7.16 807.56 0.5"/><line class="cls-11" x1="807.56" y1="17.28" x2="807.56" y2="7.16"/><polyline class="cls-11" points="891.46 0.5 891.46 7.16 891.46 0.5"/><line class="cls-11" x1="891.46" y1="17.28" x2="891.46" y2="7.16"/><line class="cls-11" x1="720.29" y1="279.81" x2="136.37" y2="279.81"/><polyline class="cls-11" points="737.07 296.59 720.29 296.59 136.37 296.59"/><line class="cls-11" x1="900.61" y1="17.28" x2="900.61" y2="60.87"/><polyline class="cls-11" points="917.39 0.5 917.39 17.28 917.39 44.09"/><polyline class="cls-11" points="1084.38 44.09 1067.6 44.09 917.39 44.09"/><polyline class="cls-11" points="900.61 60.87 917.39 60.87 1067.6 60.87"/><line class="cls-11" x1="497.09" y1="989.44" x2="237.05" y2="989.44"/><line class="cls-11" x1="484.57" y1="976.92" x2="249.66" y2="976.92"/><line class="cls-11" x1="492.92" y1="985.27" x2="241.31" y2="985.27"/><polyline class="cls-11" points="492.92 985.27 484.57 985.27 480.31 985.27 480.31 981.89 482.44 981.89 482.44 976.92 484.57 976.92 249.66 976.92"/><polyline class="cls-11" points="406 985.27 409.29 985.27 409.29 981.89 407.25 981.89 407.25 976.92 406 976.92"/><line class="cls-11" x1="409.29" y1="985.27" x2="480.31" y2="985.27"/><polyline class="cls-11" points="482.44 976.92 477.38 976.92 412.22 976.92"/><polyline class="cls-11" points="477.38 976.92 477.38 981.89 482.44 981.89 482.44 976.92"/><polyline class="cls-11" points="407.25 981.89 412.22 981.89 412.22 976.92 407.25 976.92 407.25 981.89"/><line class="cls-11" x1="412.22" y1="981.89" x2="477.38" y2="981.89"/><line class="cls-11" x1="477.38" y1="976.92" x2="412.22" y2="976.92"/><line class="cls-11" x1="477.38" y1="979.41" x2="412.22" y2="979.41"/><line class="cls-11" x1="484.57" y1="985.27" x2="484.57" y2="976.92"/><polyline class="cls-11" points="406 976.92 404.67 976.92 404.67 981.89 402.63 981.89 402.63 985.27 406 985.27"/><polyline class="cls-11" points="328.23 985.27 331.6 985.27 331.6 981.89 329.47 981.89 329.47 976.92 328.23 976.92"/><line class="cls-11" x1="331.6" y1="985.27" x2="402.63" y2="985.27"/><polyline class="cls-11" points="404.67 976.92 399.7 976.92 334.53 976.92"/><polyline class="cls-11" points="399.7 976.92 399.7 981.89 404.67 981.89 404.67 976.92"/><polyline class="cls-11" points="329.47 981.89 334.53 981.89 334.53 976.92 329.47 976.92 329.47 981.89"/><line class="cls-11" x1="334.53" y1="981.89" x2="399.7" y2="981.89"/><line class="cls-11" x1="399.7" y1="976.92" x2="334.53" y2="976.92"/><line class="cls-11" x1="399.7" y1="979.41" x2="334.53" y2="979.41"/><polyline class="cls-11" points="328.23 976.92 326.99 976.92 326.99 981.89 324.86 981.89 324.86 985.27 328.23 985.27"/><polyline class="cls-11" points="241.31 985.27 249.66 985.27 253.83 985.27 253.83 981.89 251.79 981.89 251.79 976.92 249.66 976.92"/><line class="cls-11" x1="253.83" y1="985.27" x2="324.86" y2="985.27"/><polyline class="cls-11" points="326.99 976.92 321.93 976.92 256.76 976.92"/><polyline class="cls-11" points="321.93 976.92 321.93 981.89 326.99 981.89 326.99 976.92"/><polyline class="cls-11" points="251.79 981.89 256.76 981.89 256.76 976.92 251.79 976.92 251.79 981.89"/><line class="cls-11" x1="256.76" y1="981.89" x2="321.93" y2="981.89"/><line class="cls-11" x1="321.93" y1="976.92" x2="256.76" y2="976.92"/><line class="cls-11" x1="321.93" y1="979.41" x2="256.76" y2="979.41"/><line class="cls-11" x1="249.66" y1="985.27" x2="249.66" y2="976.92"/><line class="cls-11" x1="492.92" y1="884.59" x2="484.57" y2="884.59"/><polyline class="cls-11" points="497.09 989.44 497.09 884.59 492.92 884.59"/><line class="cls-11" x1="484.57" y1="976.92" x2="484.57" y2="884.59"/><line class="cls-11" x1="492.92" y1="985.27" x2="492.92" y2="884.59"/><polyline class="cls-11" points="492.92 985.27 492.92 976.92 492.92 972.66 489.55 972.66 489.55 974.79 484.57 974.79 484.57 976.92 484.57 884.59"/><polyline class="cls-11" points="492.92 884.59 492.92 891.34 489.55 891.34 489.55 889.21 484.57 889.21 484.57 884.59"/><line class="cls-11" x1="492.92" y1="891.34" x2="492.92" y2="972.66"/><polyline class="cls-11" points="484.57 974.79 484.57 969.73 484.57 894.27"/><polyline class="cls-11" points="484.57 969.73 489.55 969.73 489.55 974.79 484.57 974.79"/><polyline class="cls-11" points="489.55 889.21 489.55 894.27 484.57 894.27 484.57 889.21 489.55 889.21"/><line class="cls-11" x1="489.55" y1="894.27" x2="489.55" y2="969.73"/><line class="cls-11" x1="484.57" y1="969.73" x2="484.57" y2="894.27"/><line class="cls-11" x1="487.06" y1="969.73" x2="487.06" y2="894.27"/><line class="cls-11" x1="492.92" y1="976.92" x2="484.57" y2="976.92"/><polyline class="cls-11" points="484.57 884.59 492.92 884.59 484.57 884.59"/><line class="cls-11" x1="241.31" y1="884.59" x2="249.66" y2="884.59"/><polyline class="cls-11" points="237.05 989.44 237.05 884.59 241.31 884.59"/><line class="cls-11" x1="249.66" y1="976.92" x2="249.66" y2="884.59"/><line class="cls-11" x1="241.31" y1="985.27" x2="241.31" y2="884.59"/><polyline class="cls-11" points="241.31 985.27 241.31 976.92 241.31 972.66 244.6 972.66 244.6 974.79 249.66 974.79 249.66 976.92 249.66 884.59"/><polyline class="cls-11" points="241.31 884.59 241.31 891.34 244.6 891.34 244.6 889.21 249.66 889.21 249.66 884.59"/><line class="cls-11" x1="241.31" y1="891.34" x2="241.31" y2="972.66"/><polyline class="cls-11" points="249.66 974.79 249.66 969.73 249.66 894.27"/><polyline class="cls-11" points="249.66 969.73 244.6 969.73 244.6 974.79 249.66 974.79"/><polyline class="cls-11" points="244.6 889.21 244.6 894.27 249.66 894.27 249.66 889.21 244.6 889.21"/><line class="cls-11" x1="244.6" y1="894.27" x2="244.6" y2="969.73"/><line class="cls-11" x1="249.66" y1="969.73" x2="249.66" y2="894.27"/><line class="cls-11" x1="247.17" y1="969.73" x2="247.17" y2="894.27"/><line class="cls-11" x1="241.31" y1="976.92" x2="249.66" y2="976.92"/><polyline class="cls-11" points="249.66 884.59 241.31 884.59 249.66 884.59"/><line class="cls-11" x1="1061.12" y1="431.62" x2="1061.12" y2="388.83"/><line class="cls-11" x1="1056.42" y1="383.86" x2="952.54" y2="383.86"/><line class="cls-11" x1="1056.42" y1="436.68" x2="952.54" y2="436.68"/><line class="cls-11" x1="923.25" y1="378.8" x2="1065.92" y2="378.8"/><polyline class="cls-11" points="923.25 378.8 923.25 441.75 1065.92 441.75 1065.92 378.8"/><line class="cls-11" x1="969.23" y1="427.9" x2="1050.47" y2="427.9"/><line class="cls-11" x1="1052.87" y1="425.41" x2="1052.87" y2="395.13"/><line class="cls-11" x1="969.23" y1="392.56" x2="1050.47" y2="392.56"/><line class="cls-11" x1="1036.18" y1="411.83" x2="1036.18" y2="414.93"/><line class="cls-11" x1="1037.6" y1="410.23" x2="1040.53" y2="410.23"/><line class="cls-11" x1="1036.18" y1="408.72" x2="1036.18" y2="405.61"/><line class="cls-11" x1="1034.75" y1="410.23" x2="1031.83" y2="410.23"/><path class="cls-11" d="M980.94,383.27c-13.8,0-25,11.83-25,26.41s11.19,26.42,25,26.42" transform="translate(-28.36 0.5)"/><path class="cls-11" d="M1089.57,388.29a4.89,4.89,0,0,0-4.75-5" transform="translate(-28.36 0.5)"/><path class="cls-11" d="M1084.82,436.1a4.89,4.89,0,0,0,4.75-5" transform="translate(-28.36 0.5)"/><path class="cls-11" d="M1064.58,407.06a2.63,2.63,0,1,0,2.44,2.62,2.55,2.55,0,0,0-2.44-2.62" transform="translate(-28.36 0.5)"/><path class="cls-11" d="M997.63,392c-9.19,0-16.64,7.93-16.64,17.71s7.45,17.72,16.64,17.72" transform="translate(-28.36 0.5)"/><path class="cls-11" d="M1078.87,427.4a2.45,2.45,0,0,0,2.35-2.54" transform="translate(-28.36 0.5)"/><path class="cls-11" d="M1081.22,394.59a2.44,2.44,0,0,0-2.35-2.53" transform="translate(-28.36 0.5)"/><path class="cls-11" d="M1064.58,406.18a3.51,3.51,0,1,0,3.33,3.5,3.42,3.42,0,0,0-3.33-3.5" transform="translate(-28.36 0.5)"/><polyline class="cls-11" points="1046.74 312.48 1065.92 312.48 1065.92 357.85 1046.74 357.85"/><line class="cls-11" x1="1065.92" y1="342.31" x2="1065.92" y2="328.02"/><line class="cls-11" x1="1050.47" y1="338.94" x2="1050.47" y2="336.54"/><line class="cls-11" x1="1054.29" y1="335.12" x2="1051.89" y2="335.12"/><line class="cls-11" x1="1050.47" y1="333.79" x2="1050.47" y2="331.3"/><line class="cls-11" x1="1049.14" y1="335.12" x2="1046.65" y2="335.12"/><path class="cls-11" d="M1083.5,322.55a20.25,20.25,0,0,0-9.55-7.83" transform="translate(-28.36 0.5)"/><path class="cls-11" d="M1086.31,334.6a20.17,20.17,0,0,0-2.83-12" transform="translate(-28.36 0.5)"/><path class="cls-11" d="M1074,354.51a20.19,20.19,0,0,0,9.55-7.83" transform="translate(-28.36 0.5)"/><path class="cls-11" d="M1083.48,346.68a20.19,20.19,0,0,0,2.83-12" transform="translate(-28.36 0.5)"/><path class="cls-11" d="M1063.67,319.25a37.25,37.25,0,0,0-3.74,13.75" transform="translate(-28.36 0.5)"/><path class="cls-11" d="M1065.64,353a11.52,11.52,0,0,0,9.46,4.29" transform="translate(-28.36 0.5)"/><path class="cls-11" d="M1059.88,333.08a24,24,0,0,0,0,3.17" transform="translate(-28.36 0.5)"/><path class="cls-11" d="M1082.73,347.33a82.81,82.81,0,0,0,0-25.34" transform="translate(-28.36 0.5)"/><path class="cls-11" d="M1072.17,356.1a28.47,28.47,0,0,0,18.49-6.42" transform="translate(-28.36 0.5)"/><path class="cls-11" d="M1092,347.55a55.94,55.94,0,0,0,1.4-13" transform="translate(-28.36 0.5)"/><path class="cls-11" d="M1090.67,349.66a3.8,3.8,0,0,0,1.29-2.09" transform="translate(-28.36 0.5)"/><path class="cls-11" d="M1090.69,347.37a97.7,97.7,0,0,0,.92-12.78" transform="translate(-28.36 0.5)"/><path class="cls-11" d="M1072.14,356.1a25.66,25.66,0,0,0,17.28-6.4" transform="translate(-28.36 0.5)"/><path class="cls-11" d="M1089.44,349.75a3.81,3.81,0,0,0,1.25-2.32" transform="translate(-28.36 0.5)"/><path class="cls-11" d="M1089.44,319.56a25.62,25.62,0,0,0-17.26-6.43" transform="translate(-28.36 0.5)"/><path class="cls-11" d="M1090.69,319.58a28.39,28.39,0,0,0-18.48-6.44" transform="translate(-28.36 0.5)"/><path class="cls-11" d="M1091.61,334.6a97.41,97.41,0,0,0-.9-12.77" transform="translate(-28.36 0.5)"/><path class="cls-11" d="M1093.38,334.64a56.62,56.62,0,0,0-1.38-13" transform="translate(-28.36 0.5)"/><path class="cls-11" d="M1090.69,321.9a3.85,3.85,0,0,0-1.24-2.32" transform="translate(-28.36 0.5)"/><path class="cls-11" d="M1092,321.67a3.74,3.74,0,0,0-1.29-2.09" transform="translate(-28.36 0.5)"/><path class="cls-11" d="M1075.1,312a11.5,11.5,0,0,0-9.46,4.29" transform="translate(-28.36 0.5)"/><path class="cls-11" d="M1065.62,316.29a17.54,17.54,0,0,0-2,3" transform="translate(-28.36 0.5)"/><path class="cls-11" d="M1063.66,350a17.54,17.54,0,0,0,2,3" transform="translate(-28.36 0.5)"/><path class="cls-11" d="M1059.93,336.24a37.25,37.25,0,0,0,3.74,13.75" transform="translate(-28.36 0.5)"/><path class="cls-11" d="M1063.14,328.42a26.59,26.59,0,0,0,0,12.48" transform="translate(-28.36 0.5)"/><path class="cls-11" d="M1073.92,314.75a6.81,6.81,0,0,0-5.61,2.33" transform="translate(-28.36 0.5)"/><path class="cls-11" d="M1068.39,317.08a24.55,24.55,0,0,0-5.17,11.28" transform="translate(-28.36 0.5)"/><path class="cls-11" d="M1068.31,352.15a6.79,6.79,0,0,0,5.61,2.34" transform="translate(-28.36 0.5)"/><path class="cls-11" d="M1063.22,340.88a24.59,24.59,0,0,0,5.17,11.28" transform="translate(-28.36 0.5)"/><path class="cls-11" d="M1081.84,334.57a3,3,0,1,0-3,3,3,3,0,0,0,3-3" transform="translate(-28.36 0.5)"/><path class="cls-11" d="M1081,334.57a2.09,2.09,0,1,0-2.09,2.09,2.09,2.09,0,0,0,2.09-2.09" transform="translate(-28.36 0.5)"/><line class="cls-11" x1="1052.96" y1="256.72" x2="1023.39" y2="256.72"/><polyline class="cls-11" points="1054.82 255.48 1065.92 255.48 1065.92 287.35"/><line class="cls-11" x1="1047.81" y1="271.37" x2="1047.81" y2="283.27"/><polyline class="cls-11" points="1023.39 256.72 1047.81 259.56 1047.81 271.37"/><line class="cls-11" x1="1023.39" y1="286.11" x2="1047.81" y2="283.27"/><line class="cls-11" x1="1023.39" y1="257.52" x2="1047.81" y2="260.36"/><line class="cls-11" x1="1023.39" y1="285.31" x2="1047.81" y2="282.47"/><line class="cls-11" x1="1053.04" y1="286.11" x2="1023.39" y2="286.11"/><line class="cls-11" x1="1065.92" y1="287.35" x2="1054.82" y2="287.35"/><polyline class="cls-11" points="1023.39 256.72 1020.11 257.17 1017 258.41 1014.34 260.45 1012.12 263.03 1010.61 266.22 1009.81 269.69 1009.81 273.15 1010.61 276.61 1012.12 279.81 1014.34 282.38 1017 284.42 1020.11 285.67 1023.39 286.11"/><polyline class="cls-11" points="1023.39 257.52 1020.28 257.88 1017.35 259.12 1014.78 260.99 1012.74 263.47 1011.32 266.49 1010.52 269.77 1010.52 273.06 1011.32 276.35 1012.74 279.36 1014.78 281.85 1017.35 283.71 1020.28 284.96 1023.39 285.31"/><path class="cls-11" d="M1081.36,256.53a135.17,135.17,0,0,0,0,28.58" transform="translate(-28.36 0.5)"/><path class="cls-11" d="M1083.22,255a1.89,1.89,0,0,0-1.9,1.62" transform="translate(-28.36 0.5)"/><path class="cls-11" d="M1081.32,285.13a1.87,1.87,0,0,0,1.9,1.63" transform="translate(-28.36 0.5)"/><path class="cls-11" d="M1088.86,270.83a1.56,1.56,0,1,0-1.56,1.55,1.56,1.56,0,0,0,1.56-1.55" transform="translate(-28.36 0.5)"/><polyline class="cls-11" points="388.69 346.93 388.69 300.76 473.92 300.76 473.92 346.93 388.69 346.93"/><polyline class="cls-11" points="469.66 342.75 432.55 342.75 432.55 309.19 469.66 309.19 469.66 342.75"/><polyline class="cls-11" points="430.06 342.75 392.86 342.75 392.86 309.19 430.06 309.19 430.06 342.75"/><polyline class="cls-11" points="1046.74 65.04 1065.92 65.04 1065.92 110.32 1046.74 110.32"/><line class="cls-11" x1="1065.92" y1="94.87" x2="1065.92" y2="80.58"/><line class="cls-11" x1="1050.47" y1="91.5" x2="1050.47" y2="89.1"/><line class="cls-11" x1="1054.29" y1="87.68" x2="1051.89" y2="87.68"/><line class="cls-11" x1="1050.47" y1="86.26" x2="1050.47" y2="83.87"/><line class="cls-11" x1="1049.14" y1="87.68" x2="1046.65" y2="87.68"/><path class="cls-11" d="M1083.5,75.12a20.25,20.25,0,0,0-9.55-7.83" transform="translate(-28.36 0.5)"/><path class="cls-11" d="M1086.31,87.16a20.19,20.19,0,0,0-2.83-12" transform="translate(-28.36 0.5)"/><path class="cls-11" d="M1074,107a20.25,20.25,0,0,0,9.55-7.83" transform="translate(-28.36 0.5)"/><path class="cls-11" d="M1083.48,99.25a20.19,20.19,0,0,0,2.83-12" transform="translate(-28.36 0.5)"/><path class="cls-11" d="M1063.67,71.82a37.15,37.15,0,0,0-3.74,13.74" transform="translate(-28.36 0.5)"/><path class="cls-11" d="M1065.64,105.52a11.47,11.47,0,0,0,9.46,4.29" transform="translate(-28.36 0.5)"/><path class="cls-11" d="M1059.88,85.55a24.1,24.1,0,0,0,0,3.18" transform="translate(-28.36 0.5)"/><path class="cls-11" d="M1082.73,99.81a82.87,82.87,0,0,0,0-25.35" transform="translate(-28.36 0.5)"/><path class="cls-11" d="M1072.17,108.58a28.47,28.47,0,0,0,18.49-6.42" transform="translate(-28.36 0.5)"/><path class="cls-11" d="M1092,100.11a55.94,55.94,0,0,0,1.4-13" transform="translate(-28.36 0.5)"/><path class="cls-11" d="M1090.67,102.22a3.77,3.77,0,0,0,1.29-2.08" transform="translate(-28.36 0.5)"/><path class="cls-11" d="M1090.69,99.93a97.46,97.46,0,0,0,.92-12.78" transform="translate(-28.36 0.5)"/><path class="cls-11" d="M1072.14,108.67a25.66,25.66,0,0,0,17.28-6.4" transform="translate(-28.36 0.5)"/><path class="cls-11" d="M1089.44,102.22a3.82,3.82,0,0,0,1.25-2.31" transform="translate(-28.36 0.5)"/><path class="cls-11" d="M1089.44,72.12a25.61,25.61,0,0,0-17.26-6.42" transform="translate(-28.36 0.5)"/><path class="cls-11" d="M1090.69,72.15a28.45,28.45,0,0,0-18.48-6.45" transform="translate(-28.36 0.5)"/><path class="cls-11" d="M1091.61,87.17a97.29,97.29,0,0,0-.9-12.77" transform="translate(-28.36 0.5)"/><path class="cls-11" d="M1093.38,87.2a56.47,56.47,0,0,0-1.38-13" transform="translate(-28.36 0.5)"/><path class="cls-11" d="M1090.69,74.37a3.85,3.85,0,0,0-1.24-2.31" transform="translate(-28.36 0.5)"/><path class="cls-11" d="M1092,74.24a3.74,3.74,0,0,0-1.29-2.09" transform="translate(-28.36 0.5)"/><path class="cls-11" d="M1075.1,64.55a11.5,11.5,0,0,0-9.46,4.3" transform="translate(-28.36 0.5)"/><path class="cls-11" d="M1065.62,68.77a17.09,17.09,0,0,0-2,3" transform="translate(-28.36 0.5)"/><path class="cls-11" d="M1063.66,102.5a17.86,17.86,0,0,0,2,3" transform="translate(-28.36 0.5)"/><path class="cls-11" d="M1059.93,88.72a37.2,37.2,0,0,0,3.74,13.74" transform="translate(-28.36 0.5)"/><path class="cls-11" d="M1063.14,80.9a26.59,26.59,0,0,0,0,12.48" transform="translate(-28.36 0.5)"/><path class="cls-11" d="M1073.92,67.31a6.82,6.82,0,0,0-5.61,2.34" transform="translate(-28.36 0.5)"/><path class="cls-11" d="M1068.39,69.64a24.59,24.59,0,0,0-5.17,11.28" transform="translate(-28.36 0.5)"/><path class="cls-11" d="M1068.31,104.72a6.78,6.78,0,0,0,5.61,2.33" transform="translate(-28.36 0.5)"/><path class="cls-11" d="M1063.22,93.35a24.58,24.58,0,0,0,5.17,11.29" transform="translate(-28.36 0.5)"/><path class="cls-11" d="M1081.84,87.14a3,3,0,1,0-3,3,3,3,0,0,0,3-3" transform="translate(-28.36 0.5)"/><path class="cls-11" d="M1081,87.14a2.09,2.09,0,1,0-2.09,2.09,2.1,2.1,0,0,0,2.09-2.09" transform="translate(-28.36 0.5)"/><line class="cls-11" x1="1052.96" y1="170.34" x2="1023.39" y2="170.34"/><polyline class="cls-11" points="1054.82 171.58 1065.92 171.58 1065.92 139.71"/><line class="cls-11" x1="1047.81" y1="155.69" x2="1047.81" y2="143.79"/><polyline class="cls-11" points="1023.39 170.34 1047.81 167.5 1047.81 155.69"/><line class="cls-11" x1="1023.39" y1="140.95" x2="1047.81" y2="143.79"/><line class="cls-11" x1="1023.39" y1="169.54" x2="1047.81" y2="166.7"/><line class="cls-11" x1="1023.39" y1="141.75" x2="1047.81" y2="144.59"/><line class="cls-11" x1="1053.04" y1="140.95" x2="1023.39" y2="140.95"/><line class="cls-11" x1="1065.92" y1="139.71" x2="1054.82" y2="139.71"/><polyline class="cls-11" points="1023.39 170.34 1020.11 169.9 1017 168.65 1014.34 166.61 1012.12 164.04 1010.61 160.84 1009.81 157.47 1009.81 153.91 1010.61 150.45 1012.12 147.34 1014.34 144.68 1017 142.64 1020.11 141.4 1023.39 140.95"/><polyline class="cls-11" points="1023.39 169.54 1020.28 169.19 1017.35 167.94 1014.78 166.08 1012.74 163.59 1011.32 160.57 1010.52 157.29 1010.52 154 1011.32 150.72 1012.74 147.7 1014.78 145.21 1017.35 143.35 1020.28 142.11 1023.39 141.75"/><path class="cls-11" d="M1081.36,140.86a135.17,135.17,0,0,0,0,28.58" transform="translate(-28.36 0.5)"/><path class="cls-11" d="M1081.32,169.37a1.89,1.89,0,0,0,1.9,1.62" transform="translate(-28.36 0.5)"/><path class="cls-11" d="M1083.22,139.21a1.88,1.88,0,0,0-1.9,1.64" transform="translate(-28.36 0.5)"/><path class="cls-11" d="M1088.86,155.15a1.56,1.56,0,1,0-1.56,1.55,1.56,1.56,0,0,0,1.56-1.55" transform="translate(-28.36 0.5)"/><polyline class="cls-11" points="932.48 886.72 932.12 886.72 932.12 932.89 932.48 932.89 932.48 886.72"/><polyline class="cls-11" points="930.79 934.57 930.79 934.13 853.64 934.13 853.64 934.57 930.79 934.57"/><polyline class="cls-11" points="851.95 932.89 852.4 932.89 852.4 886.72 851.95 886.72 851.95 932.89"/><polyline class="cls-11" points="932.92 884.59 930.79 884.59 930.79 886.72 932.92 886.72 932.92 884.59"/><polyline class="cls-11" points="932.92 932.89 930.79 932.89 930.79 934.93 932.92 934.93 932.92 932.89"/><polyline class="cls-11" points="853.64 934.93 853.64 932.89 851.51 932.89 851.51 934.93 853.64 934.93"/><polyline class="cls-11" points="851.51 886.72 853.64 886.72 853.64 884.59 851.51 884.59 851.51 886.72"/><line class="cls-11" x1="930.79" y1="885.65" x2="930.79" y2="932.89"/><line class="cls-11" x1="932.92" y1="934.93" x2="932.92" y2="885.65"/><line class="cls-11" x1="930.79" y1="932.89" x2="853.64" y2="932.89"/><line class="cls-11" x1="851.51" y1="934.93" x2="932.92" y2="934.93"/><line class="cls-11" x1="853.64" y1="932.89" x2="853.64" y2="885.65"/><line class="cls-11" x1="851.51" y1="885.65" x2="851.51" y2="934.93"/><polyline class="cls-11" points="932.92 885.65 932.92 884.59 930.79 884.59 930.79 885.65"/><polyline class="cls-11" points="853.64 885.65 853.64 884.59 851.51 884.59 851.51 885.65"/><polyline class="cls-11" points="851.51 934.93 932.92 934.93 932.92 885.65 930.79 885.65 930.79 932.89 853.64 932.89 853.64 885.65 851.51 885.65 851.51 934.93"/><polyline class="cls-11" points="855.77 919.84 928.75 919.84 928.75 893.02 855.77 893.02 855.77 919.84"/><polyline class="cls-11" points="855.77 917.17 928.75 917.17 928.75 893.02 855.77 893.02 855.77 917.17"/><polyline class="cls-11" points="89.85 501.67 89.85 501.23 43.68 501.23 43.68 501.67 89.85 501.67"/><polyline class="cls-11" points="42 499.99 42.44 499.99 42.44 422.83 42 422.83 42 499.99"/><polyline class="cls-11" points="43.68 421.15 43.68 421.59 89.85 421.59 89.85 421.15 43.68 421.15"/><polyline class="cls-11" points="91.98 502.12 91.98 499.99 89.85 499.99 89.85 502.12 91.98 502.12"/><polyline class="cls-11" points="43.68 502.12 43.68 499.99 41.64 499.99 41.64 502.12 43.68 502.12"/><polyline class="cls-11" points="41.64 422.83 43.68 422.83 43.68 420.7 41.64 420.7 41.64 422.83"/><polyline class="cls-11" points="89.85 420.7 89.85 422.83 91.98 422.83 91.98 420.7 89.85 420.7"/><line class="cls-11" x1="90.92" y1="499.99" x2="43.68" y2="499.99"/><line class="cls-11" x1="41.64" y1="502.12" x2="90.92" y2="502.12"/><line class="cls-11" x1="43.68" y1="499.99" x2="43.68" y2="422.83"/><line class="cls-11" x1="41.64" y1="420.7" x2="41.64" y2="502.12"/><line class="cls-11" x1="43.68" y1="422.83" x2="90.92" y2="422.83"/><line class="cls-11" x1="90.92" y1="420.7" x2="41.64" y2="420.7"/><polyline class="cls-11" points="90.92 502.12 91.98 502.12 91.98 499.99 90.92 499.99"/><polyline class="cls-11" points="90.92 422.83 91.98 422.83 91.98 420.7 90.92 420.7"/><polyline class="cls-11" points="41.64 420.7 41.64 502.12 90.92 502.12 90.92 499.99 43.68 499.99 43.68 422.83 90.92 422.83 90.92 420.7 41.64 420.7"/><polyline class="cls-11" points="56.73 424.96 56.73 497.94 83.55 497.94 83.55 424.96 56.73 424.96"/><polyline class="cls-11" points="59.4 424.96 59.4 497.94 83.55 497.94 83.55 424.96 59.4 424.96"/><polyline class="cls-11" points="510.59 279.81 510.59 296.59 426.69 296.59 426.69 279.81 510.59 279.81"/><polyline class="cls-11" points="1067.6 317.54 1084.38 317.54 1084.38 191.74 1067.6 191.74 1067.6 317.54"/><polyline class="cls-11" points="480.31 773.08 497.09 773.08 497.09 856.98 480.31 856.98 480.31 773.08"/><polyline class="cls-11" points="790.69 496.26 773.91 496.26 773.91 580.16 790.69 580.16 790.69 496.26"/><polyline class="cls-11" points="1084.38 496.26 1067.6 496.26 1067.6 580.16 1084.38 580.16 1084.38 496.26"/><polyline class="cls-11" points="790.69 773.08 773.91 773.08 773.91 856.98 790.69 856.98 790.69 773.08"/><polyline class="cls-11" points="1084.38 773.08 1067.6 773.08 1067.6 856.98 1084.38 856.98 1084.38 773.08"/><polyline class="cls-11" points="203.49 279.81 203.49 296.59 119.59 296.59 119.59 279.81 203.49 279.81"/><polyline class="cls-11" points="203.49 840.2 203.49 856.98 119.59 856.98 119.59 840.2 203.49 840.2"/><polyline class="cls-11" points="480.31 496.26 497.09 496.26 497.09 580.16 480.31 580.16 480.31 496.26"/><polyline class="cls-11" points="203.49 538.16 203.49 554.94 119.59 554.94 119.59 538.16 203.49 538.16"/><polyline class="cls-11" points="720.29 212.69 737.07 212.69 737.07 296.59 720.29 296.59 720.29 212.69"/></svg>