<svg id="_29" data-name="29" xmlns="http://www.w3.org/2000/svg" viewBox="0 0 293.94 727.56"><defs><style>.cls-1{isolation:isolate;font-size:12px;fill:#969696;}.cls-1,.cls-10,.cls-11{font-family:PTSans-Regular, PT Sans;}.cls-2{letter-spacing:-0.01em;}.cls-3,.cls-4,.cls-5,.cls-6,.cls-7,.cls-8,.cls-9{fill:none;stroke-linecap:round;stroke-linejoin:round;}.cls-3{stroke:#969696;}.cls-3,.cls-4{stroke-width:0.75px;}.cls-4{stroke:#000;}.cls-5,.cls-6,.cls-7,.cls-8,.cls-9{stroke:#505050;stroke-width:0.25px;}.cls-6{stroke-dasharray:3.04 3.04;}.cls-7{stroke-dasharray:3.04 3.04;}.cls-8{stroke-dasharray:1.97 1.97;}.cls-9{stroke-dasharray:2.02 2.02;}.cls-10{font-size:28px;}.cls-11{font-size:24px;}</style></defs><title>4floor_29flat</title><text class="cls-1" transform="translate(148.95 724.37)"><tspan class="cls-2">у</tspan><tspan x="5.42" y="0">лица</tspan></text><line class="cls-3" x1="138.19" y1="727.19" x2="138.19" y2="718.39"/><polyline class="cls-3" points="134.69 723.69 138.19 727.19 141.69 723.69"/><line class="cls-4" x1="8.28" y1="638.32" x2="18.6" y2="628"/><line class="cls-4" x1="21.97" y1="638.32" x2="32.31" y2="628"/><line class="cls-4" x1="35.66" y1="638.32" x2="46" y2="628"/><line class="cls-4" x1="49.37" y1="638.32" x2="59.69" y2="628"/><line class="cls-4" x1="63.06" y1="638.32" x2="66.96" y2="634.43"/><line class="cls-4" x1="3.7" y1="638.32" x2="14.04" y2="628"/><line class="cls-4" x1="17.41" y1="638.32" x2="27.73" y2="628"/><line class="cls-4" x1="31.1" y1="638.32" x2="41.45" y2="628"/><line class="cls-4" x1="44.79" y1="638.32" x2="55.14" y2="628"/><line class="cls-4" x1="58.51" y1="638.32" x2="66.96" y2="629.87"/><line class="cls-4" x1="235.7" y1="630.05" x2="237.75" y2="628"/><line class="cls-4" x1="241.13" y1="638.32" x2="251.47" y2="628"/><line class="cls-4" x1="254.84" y1="638.32" x2="265.16" y2="628"/><line class="cls-4" x1="268.53" y1="638.32" x2="278.85" y2="628"/><line class="cls-4" x1="236.57" y1="638.32" x2="246.89" y2="628"/><line class="cls-4" x1="250.26" y1="638.32" x2="260.6" y2="628"/><line class="cls-4" x1="263.95" y1="638.32" x2="274.29" y2="628"/><line class="cls-4" x1="277.66" y1="638.32" x2="287.98" y2="628"/><line class="cls-4" x1="12.63" y1="624.52" x2="21.76" y2="615.38"/><line class="cls-4" x1="24.82" y1="612.35" x2="33.95" y2="603.22"/><line class="cls-4" x1="37" y1="600.17" x2="44.48" y2="592.7"/><line class="cls-4" x1="45.34" y1="627.14" x2="51.6" y2="620.87"/><line class="cls-4" x1="54.66" y1="617.82" x2="63.52" y2="608.96"/><line class="cls-4" x1="17.89" y1="601.63" x2="19.03" y2="600.49"/><line class="cls-4" x1="22.08" y1="597.43" x2="26.82" y2="592.7"/><line class="cls-4" x1="27.69" y1="627.14" x2="36.68" y2="618.14"/><line class="cls-4" x1="39.74" y1="615.09" x2="48.87" y2="605.95"/><line class="cls-4" x1="51.9" y1="602.92" x2="61.04" y2="593.79"/><line class="cls-4" x1="62.99" y1="627.14" x2="63.52" y2="626.61"/><line class="cls-4" x1="240.33" y1="608.69" x2="249.46" y2="599.58"/><line class="cls-4" x1="252.49" y1="596.52" x2="256.32" y2="592.7"/><line class="cls-4" x1="257.98" y1="626.34" x2="267.12" y2="617.23"/><line class="cls-4" x1="270.15" y1="614.18" x2="276.18" y2="608.16"/><line class="cls-4" x1="239.53" y1="627.14" x2="240.01" y2="626.66"/><line class="cls-4" x1="243.06" y1="623.61" x2="252.2" y2="614.47"/><line class="cls-4" x1="255.25" y1="611.44" x2="264.36" y2="602.31"/><line class="cls-4" x1="267.41" y1="599.26" x2="273.97" y2="592.7"/><line class="cls-4" x1="274.84" y1="627.14" x2="282.01" y2="619.96"/><line class="cls-4" x1="285.07" y1="616.91" x2="292.06" y2="609.92"/><line class="cls-4" x1="0.67" y1="628" x2="66.96" y2="628"/><line class="cls-4" x1="235.7" y1="628" x2="293.38" y2="628"/><line class="cls-4" x1="0.67" y1="627.14" x2="63.52" y2="627.14"/><line class="cls-4" x1="239.14" y1="627.14" x2="293.38" y2="627.14"/><line class="cls-4" x1="63.52" y1="621.97" x2="63.52" y2="592.7"/><line class="cls-4" x1="66.96" y1="628" x2="66.96" y2="627.14"/><line class="cls-4" x1="66.96" y1="638.32" x2="66.96" y2="628"/><line class="cls-4" x1="66.96" y1="627.14" x2="63.52" y2="627.14"/><line class="cls-4" x1="63.52" y1="627.14" x2="63.52" y2="621.97"/><line class="cls-4" x1="239.14" y1="621.97" x2="239.14" y2="592.7"/><line class="cls-4" x1="235.7" y1="628" x2="235.7" y2="627.14"/><line class="cls-4" x1="235.7" y1="638.32" x2="235.7" y2="628"/><line class="cls-4" x1="235.7" y1="627.14" x2="239.14" y2="627.14"/><line class="cls-4" x1="239.14" y1="627.14" x2="239.14" y2="621.97"/><polyline class="cls-4" points="66.96 638.32 0.67 638.32 0.67 599.58"/><polyline class="cls-4" points="235.71 638.32 293.38 638.32 293.38 601.4"/><line class="cls-4" x1="276.18" y1="592.7" x2="239.14" y2="592.7"/><line class="cls-4" x1="63.52" y1="592.7" x2="17.89" y2="592.7"/><line class="cls-4" x1="235.7" y1="638.32" x2="66.96" y2="638.32"/><line class="cls-4" x1="239.14" y1="592.7" x2="63.52" y2="592.7"/><polyline class="cls-4" points="239.14 621.97 234.41 621.97 234.41 625.41 232.26 625.41 232.26 627.14 239.14 627.14"/><polyline class="cls-4" points="179.46 627.14 182.9 627.14 182.9 625.41 180.76 625.41 180.76 621.97 179.46 621.97"/><line class="cls-4" x1="182.9" y1="627.14" x2="232.26" y2="627.14"/><polyline class="cls-4" points="234.41 620.26 229.26 620.26 185.91 620.26"/><polyline class="cls-4" points="229.26 620.26 229.26 625.41 234.41 625.41 234.41 620.26"/><polyline class="cls-4" points="180.76 625.41 185.91 625.41 185.91 620.26 180.76 620.26 180.76 625.41"/><line class="cls-4" x1="185.91" y1="625.41" x2="229.26" y2="625.41"/><line class="cls-4" x1="229.26" y1="620.26" x2="185.91" y2="620.26"/><line class="cls-4" x1="229.26" y1="622.83" x2="185.91" y2="622.83"/><polyline class="cls-4" points="179.46 621.97 178.16 621.97 178.16 625.41 176.02 625.41 176.02 627.14 179.46 627.14"/><polyline class="cls-4" points="123.22 627.14 126.66 627.14 126.66 625.41 124.5 625.41 124.5 621.97 123.22 621.97"/><line class="cls-4" x1="126.66" y1="627.14" x2="176.02" y2="627.14"/><polyline class="cls-4" points="178.16 620.26 172.99 620.26 129.67 620.26"/><polyline class="cls-4" points="172.99 620.26 172.99 625.41 178.16 625.41 178.16 620.26"/><polyline class="cls-4" points="124.5 625.41 129.67 625.41 129.67 620.26 124.5 620.26 124.5 625.41"/><line class="cls-4" x1="129.67" y1="625.41" x2="172.99" y2="625.41"/><line class="cls-4" x1="172.99" y1="620.26" x2="129.67" y2="620.26"/><line class="cls-4" x1="172.99" y1="622.83" x2="129.67" y2="622.83"/><polyline class="cls-4" points="123.22 621.97 121.92 621.97 121.92 625.41 119.76 625.41 119.76 627.14 123.22 627.14"/><polyline class="cls-4" points="63.52 627.14 70.4 627.14 70.4 625.41 68.26 625.41 68.26 621.97 63.52 621.97"/><line class="cls-4" x1="70.4" y1="627.14" x2="119.76" y2="627.14"/><polyline class="cls-4" points="121.92 620.26 116.75 620.26 73.43 620.26"/><polyline class="cls-4" points="116.75 620.26 116.75 625.41 121.92 625.41 121.92 620.26"/><polyline class="cls-4" points="68.26 625.41 73.43 625.41 73.43 620.26 68.26 620.26 68.26 625.41"/><line class="cls-4" x1="73.43" y1="625.41" x2="116.75" y2="625.41"/><line class="cls-4" x1="116.75" y1="620.26" x2="73.43" y2="620.26"/><line class="cls-4" x1="116.75" y1="622.83" x2="73.43" y2="622.83"/><polyline class="cls-4" points="239.14 621.97 239.14 627.14 239.14 621.97"/><polyline class="cls-4" points="239.14 627.14 235.71 627.14 239.14 627.14"/><polyline class="cls-4" points="235.71 638.32 235.71 628 235.71 627.14"/><line class="cls-4" x1="239.14" y1="621.97" x2="239.14" y2="592.7"/><polyline class="cls-4" points="63.52 621.97 63.52 627.14 63.52 621.97"/><polyline class="cls-4" points="63.52 627.14 66.96 627.14 63.52 627.14"/><polyline class="cls-4" points="66.96 638.32 66.96 628 66.96 627.14"/><line class="cls-4" x1="63.52" y1="621.97" x2="63.52" y2="592.7"/><line class="cls-4" x1="277.21" y1="523.81" x2="276.18" y2="522.79"/><line class="cls-4" x1="292.06" y1="514.34" x2="285.23" y2="507.48"/><line class="cls-4" x1="282.95" y1="505.2" x2="276.18" y2="498.44"/><line class="cls-4" x1="293.38" y1="491.31" x2="288.26" y2="486.18"/><line class="cls-4" x1="285.98" y1="483.9" x2="279.14" y2="477.05"/><line class="cls-4" x1="276.84" y1="474.77" x2="276.18" y2="474.09"/><line class="cls-4" x1="293.38" y1="466.96" x2="291.31" y2="464.88"/><line class="cls-4" x1="289.03" y1="462.58" x2="282.17" y2="455.75"/><line class="cls-4" x1="279.9" y1="453.45" x2="276.18" y2="449.74"/><line class="cls-4" x1="292.06" y1="441.28" x2="285.23" y2="434.43"/><line class="cls-4" x1="282.95" y1="432.15" x2="276.18" y2="425.38"/><line class="cls-4" x1="293.38" y1="418.26" x2="288.26" y2="413.13"/><line class="cls-4" x1="285.98" y1="410.85" x2="279.14" y2="404"/><line class="cls-4" x1="276.84" y1="401.72" x2="276.18" y2="401.03"/><line class="cls-4" x1="293.38" y1="393.9" x2="291.31" y2="391.81"/><line class="cls-4" x1="289.03" y1="389.53" x2="282.17" y2="382.7"/><line class="cls-4" x1="279.9" y1="380.4" x2="276.18" y2="376.68"/><line class="cls-4" x1="292.06" y1="368.23" x2="285.23" y2="361.38"/><line class="cls-4" x1="282.95" y1="359.1" x2="276.18" y2="352.33"/><line class="cls-4" x1="293.38" y1="345.2" x2="288.26" y2="340.08"/><line class="cls-4" x1="285.98" y1="337.8" x2="279.14" y2="330.94"/><line class="cls-4" x1="276.84" y1="328.67" x2="276.18" y2="327.98"/><line class="cls-4" x1="289.37" y1="523.81" x2="283.7" y2="518.14"/><line class="cls-4" x1="281.42" y1="515.86" x2="276.18" y2="510.62"/><line class="cls-4" x1="293.38" y1="503.47" x2="286.75" y2="496.84"/><line class="cls-4" x1="284.45" y1="494.54" x2="277.62" y2="487.71"/><line class="cls-4" x1="293.38" y1="479.12" x2="289.78" y2="475.52"/><line class="cls-4" x1="287.5" y1="473.24" x2="280.65" y2="466.39"/><line class="cls-4" x1="278.37" y1="464.11" x2="276.18" y2="461.92"/><line class="cls-4" x1="293.38" y1="454.77" x2="292.83" y2="454.22"/><line class="cls-4" x1="290.56" y1="451.95" x2="283.7" y2="445.09"/><line class="cls-4" x1="281.42" y1="442.81" x2="276.18" y2="437.57"/><line class="cls-4" x1="293.38" y1="430.42" x2="286.75" y2="423.79"/><line class="cls-4" x1="284.45" y1="421.49" x2="277.62" y2="414.66"/><line class="cls-4" x1="293.38" y1="406.07" x2="289.78" y2="402.47"/><line class="cls-4" x1="287.5" y1="400.19" x2="280.65" y2="393.33"/><line class="cls-4" x1="278.37" y1="391.06" x2="276.18" y2="388.85"/><line class="cls-4" x1="293.38" y1="381.72" x2="292.83" y2="381.17"/><line class="cls-4" x1="290.56" y1="378.89" x2="283.7" y2="372.04"/><line class="cls-4" x1="281.42" y1="369.76" x2="276.18" y2="364.5"/><line class="cls-4" x1="293.38" y1="357.37" x2="286.75" y2="350.74"/><line class="cls-4" x1="284.45" y1="348.44" x2="277.62" y2="341.6"/><line class="cls-4" x1="293.38" y1="333.02" x2="289.78" y2="329.42"/><line class="cls-4" x1="287.5" y1="327.14" x2="286.18" y2="325.8"/><line class="cls-4" x1="285.32" y1="239.71" x2="282.17" y2="236.57"/><line class="cls-4" x1="279.9" y1="234.29" x2="276.18" y2="230.58"/><line class="cls-4" x1="292.06" y1="222.13" x2="285.23" y2="215.27"/><line class="cls-4" x1="282.95" y1="212.99" x2="276.18" y2="206.23"/><line class="cls-4" x1="293.38" y1="199.1" x2="288.26" y2="193.97"/><line class="cls-4" x1="285.98" y1="191.67" x2="279.14" y2="184.84"/><line class="cls-4" x1="276.84" y1="182.56" x2="276.18" y2="181.88"/><line class="cls-4" x1="293.38" y1="174.75" x2="291.31" y2="172.65"/><line class="cls-4" x1="289.03" y1="170.37" x2="282.17" y2="163.52"/><line class="cls-4" x1="279.9" y1="161.24" x2="276.18" y2="157.53"/><line class="cls-4" x1="292.06" y1="149.08" x2="285.23" y2="142.22"/><line class="cls-4" x1="282.95" y1="139.94" x2="276.18" y2="133.18"/><line class="cls-4" x1="293.38" y1="126.05" x2="288.26" y2="120.92"/><line class="cls-4" x1="285.98" y1="118.62" x2="279.14" y2="111.79"/><line class="cls-4" x1="276.84" y1="109.51" x2="276.18" y2="108.83"/><line class="cls-4" x1="293.38" y1="101.7" x2="291.31" y2="99.6"/><line class="cls-4" x1="289.03" y1="97.32" x2="282.17" y2="90.47"/><line class="cls-4" x1="279.9" y1="88.19" x2="278.16" y2="86.46"/><line class="cls-4" x1="293.38" y1="235.61" x2="292.83" y2="235.07"/><line class="cls-4" x1="290.56" y1="232.77" x2="283.7" y2="225.93"/><line class="cls-4" x1="281.42" y1="223.65" x2="276.18" y2="218.39"/><line class="cls-4" x1="293.38" y1="211.26" x2="286.75" y2="204.61"/><line class="cls-4" x1="284.45" y1="202.33" x2="277.62" y2="195.5"/><line class="cls-4" x1="293.38" y1="186.91" x2="289.78" y2="183.31"/><line class="cls-4" x1="287.5" y1="181.03" x2="280.65" y2="174.18"/><line class="cls-4" x1="278.37" y1="171.9" x2="276.18" y2="169.69"/><line class="cls-4" x1="293.38" y1="162.56" x2="292.83" y2="162.01"/><line class="cls-4" x1="290.56" y1="159.71" x2="283.7" y2="152.88"/><line class="cls-4" x1="281.42" y1="150.6" x2="276.18" y2="145.34"/><line class="cls-4" x1="293.38" y1="138.21" x2="286.75" y2="131.56"/><line class="cls-4" x1="284.45" y1="129.28" x2="277.62" y2="122.42"/><line class="cls-4" x1="293.38" y1="113.86" x2="289.78" y2="110.26"/><line class="cls-4" x1="287.5" y1="107.98" x2="280.65" y2="101.13"/><line class="cls-4" x1="278.37" y1="98.85" x2="276.18" y2="96.64"/><line class="cls-4" x1="293.38" y1="89.51" x2="292.83" y2="88.96"/><line class="cls-4" x1="290.56" y1="86.66" x2="290.35" y2="86.46"/><line class="cls-4" x1="293.38" y1="523.81" x2="293.38" y2="325.8"/><line class="cls-4" x1="293.38" y1="239.71" x2="293.38" y2="86.46"/><line class="cls-4" x1="276.18" y1="86.46" x2="276.18" y2="239.71"/><line class="cls-4" x1="276.18" y1="325.8" x2="276.18" y2="523.81"/><line class="cls-4" x1="8.99" y1="523.47" x2="2.13" y2="516.61"/><line class="cls-4" x1="17.89" y1="508.03" x2="14.32" y2="504.45"/><line class="cls-4" x1="12.04" y1="502.15" x2="5.18" y2="495.32"/><line class="cls-4" x1="2.9" y1="493.04" x2="0.67" y2="490.81"/><line class="cls-4" x1="17.89" y1="483.68" x2="17.37" y2="483.13"/><line class="cls-4" x1="15.07" y1="480.85" x2="8.23" y2="474"/><line class="cls-4" x1="5.96" y1="471.72" x2="0.67" y2="466.46"/><line class="cls-4" x1="17.89" y1="459.33" x2="11.26" y2="452.7"/><line class="cls-4" x1="8.99" y1="450.42" x2="2.13" y2="443.56"/><line class="cls-4" x1="17.89" y1="434.97" x2="14.32" y2="431.4"/><line class="cls-4" x1="12.04" y1="429.1" x2="5.18" y2="422.26"/><line class="cls-4" x1="2.9" y1="419.99" x2="0.67" y2="417.75"/><line class="cls-4" x1="17.89" y1="410.62" x2="17.37" y2="410.08"/><line class="cls-4" x1="15.07" y1="407.8" x2="8.23" y2="400.94"/><line class="cls-4" x1="5.96" y1="398.67" x2="0.67" y2="393.4"/><line class="cls-4" x1="17.89" y1="386.27" x2="11.26" y2="379.64"/><line class="cls-4" x1="8.99" y1="377.37" x2="2.13" y2="370.51"/><line class="cls-4" x1="17.89" y1="361.9" x2="14.32" y2="358.35"/><line class="cls-4" x1="12.04" y1="356.05" x2="5.18" y2="349.21"/><line class="cls-4" x1="2.9" y1="346.91" x2="0.67" y2="344.7"/><line class="cls-4" x1="17.89" y1="337.55" x2="17.37" y2="337.03"/><line class="cls-4" x1="15.07" y1="334.75" x2="8.23" y2="327.89"/><line class="cls-4" x1="17.89" y1="520.19" x2="12.79" y2="515.09"/><line class="cls-4" x1="10.51" y1="512.81" x2="3.66" y2="505.95"/><line class="cls-4" x1="1.38" y1="503.68" x2="0.67" y2="502.97"/><line class="cls-4" x1="17.89" y1="495.84" x2="15.84" y2="493.79"/><line class="cls-4" x1="13.56" y1="491.51" x2="6.71" y2="484.66"/><line class="cls-4" x1="4.43" y1="482.38" x2="0.67" y2="478.62"/><line class="cls-4" x1="16.59" y1="470.19" x2="9.76" y2="463.36"/><line class="cls-4" x1="7.46" y1="461.06" x2="0.67" y2="454.27"/><line class="cls-4" x1="17.89" y1="447.14" x2="12.79" y2="442.04"/><line class="cls-4" x1="10.51" y1="439.76" x2="3.66" y2="432.9"/><line class="cls-4" x1="1.38" y1="430.62" x2="0.67" y2="429.92"/><line class="cls-4" x1="17.89" y1="422.79" x2="15.84" y2="420.74"/><line class="cls-4" x1="13.56" y1="418.46" x2="6.71" y2="411.6"/><line class="cls-4" x1="4.43" y1="409.33" x2="0.67" y2="405.57"/><line class="cls-4" x1="16.59" y1="397.14" x2="9.76" y2="390.31"/><line class="cls-4" x1="7.46" y1="388" x2="0.67" y2="381.22"/><line class="cls-4" x1="17.89" y1="374.09" x2="12.79" y2="368.98"/><line class="cls-4" x1="10.51" y1="366.71" x2="3.66" y2="359.85"/><line class="cls-4" x1="1.38" y1="357.57" x2="0.67" y2="356.87"/><line class="cls-4" x1="17.89" y1="349.74" x2="15.84" y2="347.69"/><line class="cls-4" x1="13.56" y1="345.41" x2="6.71" y2="338.55"/><line class="cls-4" x1="4.43" y1="336.27" x2="0.67" y2="332.52"/><line class="cls-4" x1="17.44" y1="239.71" x2="11.26" y2="233.54"/><line class="cls-4" x1="8.99" y1="231.26" x2="2.13" y2="224.41"/><line class="cls-4" x1="17.89" y1="215.8" x2="14.32" y2="212.22"/><line class="cls-4" x1="12.04" y1="209.94" x2="5.18" y2="203.11"/><line class="cls-4" x1="2.9" y1="200.81" x2="0.67" y2="198.57"/><line class="cls-4" x1="17.89" y1="191.44" x2="17.37" y2="190.92"/><line class="cls-4" x1="15.07" y1="188.64" x2="8.23" y2="181.79"/><line class="cls-4" x1="5.96" y1="179.51" x2="0.67" y2="174.22"/><line class="cls-4" x1="17.89" y1="167.09" x2="11.26" y2="160.49"/><line class="cls-4" x1="8.99" y1="158.21" x2="2.13" y2="151.35"/><line class="cls-4" x1="17.89" y1="142.74" x2="14.32" y2="139.17"/><line class="cls-4" x1="12.04" y1="136.89" x2="5.18" y2="130.06"/><line class="cls-4" x1="2.9" y1="127.75" x2="0.67" y2="125.52"/><line class="cls-4" x1="17.89" y1="118.39" x2="17.37" y2="117.87"/><line class="cls-4" x1="15.07" y1="115.59" x2="8.23" y2="108.73"/><line class="cls-4" x1="5.96" y1="106.46" x2="0.67" y2="101.17"/><line class="cls-4" x1="17.89" y1="94.04" x2="11.26" y2="87.44"/><line class="cls-4" x1="5.27" y1="239.71" x2="0.67" y2="235.11"/><line class="cls-4" x1="17.89" y1="227.98" x2="12.79" y2="222.88"/><line class="cls-4" x1="10.51" y1="220.6" x2="3.66" y2="213.75"/><line class="cls-4" x1="1.38" y1="211.47" x2="0.67" y2="210.76"/><line class="cls-4" x1="17.89" y1="203.63" x2="15.84" y2="201.58"/><line class="cls-4" x1="13.56" y1="199.3" x2="6.71" y2="192.45"/><line class="cls-4" x1="4.43" y1="190.17" x2="0.67" y2="186.41"/><line class="cls-4" x1="16.59" y1="177.98" x2="9.76" y2="171.15"/><line class="cls-4" x1="7.46" y1="168.85" x2="0.67" y2="162.06"/><line class="cls-4" x1="17.89" y1="154.93" x2="12.79" y2="149.83"/><line class="cls-4" x1="10.51" y1="147.55" x2="3.66" y2="140.69"/><line class="cls-4" x1="1.38" y1="138.42" x2="0.67" y2="137.71"/><line class="cls-4" x1="17.89" y1="130.58" x2="15.84" y2="128.53"/><line class="cls-4" x1="13.56" y1="126.25" x2="6.71" y2="119.4"/><line class="cls-4" x1="4.43" y1="117.12" x2="0.67" y2="113.36"/><line class="cls-4" x1="16.59" y1="104.93" x2="9.76" y2="98.07"/><line class="cls-4" x1="7.46" y1="95.8" x2="0.67" y2="89.01"/><line class="cls-4" x1="17.89" y1="523.81" x2="17.89" y2="325.8"/><line class="cls-4" x1="17.89" y1="239.71" x2="17.89" y2="86.46"/><line class="cls-4" x1="0.67" y1="86.46" x2="0.67" y2="239.71"/><line class="cls-4" x1="0.67" y1="325.8" x2="0.67" y2="523.81"/><line class="cls-4" x1="0.67" y1="15.96" x2="0.63" y2="15.91"/><line class="cls-4" x1="38.83" y1="17.6" x2="32.58" y2="11.33"/><line class="cls-4" x1="30.31" y1="9.05" x2="23.45" y2="2.2"/><line class="cls-4" x1="63.18" y1="17.6" x2="63.02" y2="17.41"/><line class="cls-4" x1="60.74" y1="15.14" x2="53.88" y2="8.28"/><line class="cls-4" x1="51.6" y1="6" x2="45.96" y2="0.38"/><line class="cls-4" x1="87.53" y1="17.6" x2="84.32" y2="14.38"/><line class="cls-4" x1="82.04" y1="12.08" x2="75.2" y2="5.25"/><line class="cls-4" x1="72.9" y1="2.97" x2="70.31" y2="0.38"/><line class="cls-4" x1="111.88" y1="17.6" x2="105.64" y2="11.33"/><line class="cls-4" x1="103.36" y1="9.05" x2="96.5" y2="2.2"/><line class="cls-4" x1="136.23" y1="17.6" x2="136.07" y2="17.41"/><line class="cls-4" x1="133.79" y1="15.14" x2="126.94" y2="8.28"/><line class="cls-4" x1="124.66" y1="6" x2="119.01" y2="0.38"/><line class="cls-4" x1="160.58" y1="17.6" x2="157.37" y2="14.38"/><line class="cls-4" x1="155.09" y1="12.08" x2="148.26" y2="5.25"/><line class="cls-4" x1="145.96" y1="2.97" x2="143.38" y2="0.38"/><line class="cls-4" x1="184.93" y1="17.6" x2="178.69" y2="11.33"/><line class="cls-4" x1="176.41" y1="9.05" x2="169.55" y2="2.2"/><line class="cls-4" x1="26.66" y1="17.6" x2="21.92" y2="12.86"/><line class="cls-4" x1="19.65" y1="10.58" x2="17.89" y2="8.83"/><line class="cls-4" x1="50.08" y1="16.66" x2="43.22" y2="9.81"/><line class="cls-4" x1="40.94" y1="7.53" x2="34.11" y2="0.67"/><line class="cls-4" x1="75.36" y1="17.6" x2="73.68" y2="15.91"/><line class="cls-4" x1="71.38" y1="13.61" x2="64.54" y2="6.78"/><line class="cls-4" x1="62.27" y1="4.48" x2="58.14" y2="0.38"/><line class="cls-4" x1="99.71" y1="17.6" x2="94.98" y2="12.86"/><line class="cls-4" x1="92.7" y1="10.58" x2="85.84" y2="3.72"/><line class="cls-4" x1="83.56" y1="1.45" x2="82.49" y2="0.38"/><line class="cls-4" x1="123.13" y1="16.66" x2="116.27" y2="9.81"/><line class="cls-4" x1="114" y1="7.53" x2="107.16" y2="0.67"/><line class="cls-4" x1="148.42" y1="17.6" x2="146.73" y2="15.91"/><line class="cls-4" x1="144.45" y1="13.61" x2="137.6" y2="6.78"/><line class="cls-4" x1="135.32" y1="4.48" x2="131.19" y2="0.38"/><line class="cls-4" x1="172.77" y1="17.6" x2="168.03" y2="12.86"/><line class="cls-4" x1="165.75" y1="10.58" x2="158.89" y2="3.72"/><line class="cls-4" x1="156.62" y1="1.45" x2="155.55" y2="0.38"/><line class="cls-4" x1="185.77" y1="6.25" x2="180.21" y2="0.67"/><polyline class="cls-4" points="276.18 0.38 276.18 7.25 276.18 17.6"/><polyline class="cls-4" points="185.77 0.38 185.77 7.25 185.77 17.6"/><polyline class="cls-4" points="293.38 0.38 293.38 7.25 293.38 17.6"/><line class="cls-4" x1="185.77" y1="0.38" x2="17.89" y2="0.38"/><line class="cls-4" x1="17.89" y1="17.6" x2="185.77" y2="17.6"/><line class="cls-4" x1="185.77" y1="0.38" x2="185.96" y2="0.38"/><line class="cls-4" x1="186.02" y1="0.38" x2="186.05" y2="0.38"/><line class="cls-4" x1="186.09" y1="0.38" x2="186.11" y2="0.38"/><line class="cls-4" x1="186.18" y1="0.38" x2="186.43" y2="0.38"/><line class="cls-4" x1="186.5" y1="0.38" x2="186.52" y2="0.38"/><line class="cls-4" x1="186.59" y1="0.38" x2="186.62" y2="0.38"/><line class="cls-4" x1="186.68" y1="0.38" x2="186.93" y2="0.38"/><line class="cls-4" x1="187" y1="0.38" x2="187.03" y2="0.38"/><line class="cls-4" x1="187.07" y1="0.38" x2="187.12" y2="0.38"/><line class="cls-4" x1="187.16" y1="0.38" x2="187.44" y2="0.38"/><line class="cls-4" x1="187.48" y1="0.38" x2="187.5" y2="0.38"/><line class="cls-4" x1="187.57" y1="0.38" x2="187.6" y2="0.38"/><line class="cls-4" x1="187.66" y1="0.38" x2="187.91" y2="0.38"/><line class="cls-4" x1="187.98" y1="0.38" x2="188.01" y2="0.38"/><line class="cls-4" x1="188.07" y1="0.38" x2="188.1" y2="0.38"/><line class="cls-4" x1="188.14" y1="0.38" x2="188.42" y2="0.38"/><line class="cls-4" x1="188.46" y1="0.38" x2="188.48" y2="0.38"/><line class="cls-4" x1="188.55" y1="0.38" x2="188.57" y2="0.38"/><line class="cls-4" x1="188.64" y1="0.38" x2="188.89" y2="0.38"/><line class="cls-4" x1="188.96" y1="0.38" x2="188.98" y2="0.38"/><line class="cls-4" x1="189.05" y1="0.38" x2="189.08" y2="0.38"/><line class="cls-4" x1="268.46" y1="0.38" x2="268.48" y2="0.38"/><line class="cls-4" x1="268.55" y1="0.38" x2="268.57" y2="0.38"/><line class="cls-4" x1="268.62" y1="0.38" x2="268.89" y2="0.38"/><line class="cls-4" x1="268.94" y1="0.38" x2="268.98" y2="0.38"/><line class="cls-4" x1="269.03" y1="0.38" x2="269.05" y2="0.38"/><line class="cls-4" x1="269.12" y1="0.38" x2="269.37" y2="0.38"/><line class="cls-4" x1="269.44" y1="0.38" x2="269.46" y2="0.38"/><line class="cls-4" x1="269.53" y1="0.38" x2="269.55" y2="0.38"/><line class="cls-4" x1="269.62" y1="0.38" x2="269.87" y2="0.38"/><line class="cls-4" x1="269.94" y1="0.38" x2="269.96" y2="0.38"/><line class="cls-4" x1="270.01" y1="0.38" x2="270.03" y2="0.38"/><line class="cls-4" x1="270.1" y1="0.38" x2="270.35" y2="0.38"/><line class="cls-4" x1="270.42" y1="0.38" x2="270.44" y2="0.38"/><line class="cls-4" x1="270.51" y1="0.38" x2="270.53" y2="0.38"/><line class="cls-4" x1="270.6" y1="0.38" x2="270.85" y2="0.38"/><line class="cls-4" x1="270.92" y1="0.38" x2="270.94" y2="0.38"/><line class="cls-4" x1="270.99" y1="0.38" x2="271.03" y2="0.38"/><line class="cls-4" x1="271.08" y1="0.38" x2="271.33" y2="0.38"/><line class="cls-4" x1="271.4" y1="0.38" x2="271.42" y2="0.38"/><line class="cls-4" x1="271.49" y1="0.38" x2="271.51" y2="0.38"/><line class="cls-4" x1="271.58" y1="0.38" x2="271.83" y2="0.38"/><line class="cls-4" x1="271.9" y1="0.38" x2="271.92" y2="0.38"/><line class="cls-4" x1="271.97" y1="0.38" x2="272.01" y2="0.38"/><line class="cls-4" x1="272.06" y1="0.38" x2="272.33" y2="0.38"/><line class="cls-4" x1="272.38" y1="0.38" x2="272.4" y2="0.38"/><line class="cls-4" x1="272.47" y1="0.38" x2="272.49" y2="0.38"/><line class="cls-4" x1="272.56" y1="0.38" x2="272.81" y2="0.38"/><line class="cls-4" x1="272.88" y1="0.38" x2="272.9" y2="0.38"/><line class="cls-4" x1="272.97" y1="0.38" x2="272.99" y2="0.38"/><line class="cls-4" x1="273.04" y1="0.38" x2="273.31" y2="0.38"/><line class="cls-4" x1="273.36" y1="0.38" x2="273.38" y2="0.38"/><line class="cls-4" x1="273.45" y1="0.38" x2="273.47" y2="0.38"/><line class="cls-4" x1="273.54" y1="0.38" x2="273.79" y2="0.38"/><line class="cls-4" x1="273.86" y1="0.38" x2="273.88" y2="0.38"/><line class="cls-4" x1="273.95" y1="0.38" x2="273.97" y2="0.38"/><line class="cls-4" x1="274.02" y1="0.38" x2="274.29" y2="0.38"/><line class="cls-4" x1="274.34" y1="0.38" x2="274.38" y2="0.38"/><line class="cls-4" x1="274.43" y1="0.38" x2="274.45" y2="0.38"/><line class="cls-4" x1="274.52" y1="0.38" x2="274.77" y2="0.38"/><line class="cls-4" x1="274.84" y1="0.38" x2="274.86" y2="0.38"/><line class="cls-4" x1="274.93" y1="0.38" x2="274.95" y2="0.38"/><line class="cls-4" x1="275" y1="0.38" x2="275.27" y2="0.38"/><line class="cls-4" x1="275.32" y1="0.38" x2="275.36" y2="0.38"/><line class="cls-4" x1="275.41" y1="0.38" x2="275.43" y2="0.38"/><line class="cls-4" x1="275.5" y1="0.38" x2="275.75" y2="0.38"/><line class="cls-4" x1="275.82" y1="0.38" x2="275.84" y2="0.38"/><line class="cls-4" x1="275.91" y1="0.38" x2="275.93" y2="0.38"/><line class="cls-4" x1="276" y1="0.38" x2="276.18" y2="0.38"/><line class="cls-4" x1="185.77" y1="17.6" x2="185.96" y2="17.6"/><line class="cls-4" x1="186.02" y1="17.6" x2="186.05" y2="17.6"/><line class="cls-4" x1="186.09" y1="17.6" x2="186.11" y2="17.6"/><path class="cls-4" d="M189.36,6.87a79.21,79.21,0,0,0,79.21,79.21" transform="translate(-0.15 0.38)"/><line class="cls-4" x1="271.88" y1="7.25" x2="276.18" y2="7.25"/><polyline class="cls-4" points="271.88 0.38 276.18 0.38 276.18 7.25"/><polyline class="cls-4" points="185.77 0.38 189.21 0.38 189.21 7.25 185.77 7.25 185.77 0.38"/><polyline class="cls-4" points="271.88 7.25 268.42 7.25 268.42 0.38 271.88 0.38 271.88 7.25"/><line class="cls-4" x1="268.42" y1="7.25" x2="268.42" y2="86.46"/><polyline class="cls-4" points="185.77 17.6 185.77 7.25 185.77 0.38 185.77 7.25"/><polyline class="cls-4" points="276.18 17.6 276.18 7.25 276.18 0.38 276.18 7.25"/><line class="cls-4" x1="293.56" y1="0.38" x2="293.38" y2="0.38"/><line class="cls-4" x1="293.56" y1="17.6" x2="293.38" y2="17.6"/><polyline class="cls-4" points="293.38 17.6 293.38 7.25 293.38 0.38 293.38 7.25"/><line class="cls-4" x1="60.94" y1="197.57" x2="66.14" y2="192.36"/><line class="cls-4" x1="60.94" y1="203.65" x2="67.82" y2="196.78"/><line class="cls-4" x1="60.94" y1="209.74" x2="67.82" y2="202.86"/><line class="cls-4" x1="60.94" y1="215.84" x2="67.82" y2="208.94"/><line class="cls-4" x1="60.94" y1="221.92" x2="67.82" y2="215.04"/><line class="cls-4" x1="60.94" y1="228.01" x2="67.82" y2="221.13"/><line class="cls-4" x1="60.94" y1="234.09" x2="67.82" y2="227.21"/><line class="cls-4" x1="61.4" y1="239.71" x2="67.82" y2="233.29"/><line class="cls-4" x1="67.5" y1="239.71" x2="67.82" y2="239.39"/><line class="cls-4" x1="60.94" y1="192.36" x2="60.94" y2="239.71"/><line class="cls-4" x1="67.82" y1="239.71" x2="67.82" y2="192.36"/><line class="cls-4" x1="17.89" y1="240.62" x2="18.8" y2="239.71"/><line class="cls-4" x1="18.01" y1="246.59" x2="24.89" y2="239.71"/><line class="cls-4" x1="24.09" y1="246.59" x2="30.97" y2="239.71"/><line class="cls-4" x1="30.17" y1="246.59" x2="37.05" y2="239.71"/><line class="cls-4" x1="36.25" y1="246.59" x2="43.15" y2="239.71"/><line class="cls-4" x1="42.36" y1="246.59" x2="49.24" y2="239.71"/><line class="cls-4" x1="48.44" y1="246.59" x2="55.32" y2="239.71"/><line class="cls-4" x1="54.52" y1="246.59" x2="61.4" y2="239.71"/><line class="cls-4" x1="60.6" y1="246.59" x2="67.5" y2="239.71"/><line class="cls-4" x1="66.71" y1="246.59" x2="73.59" y2="239.71"/><line class="cls-4" x1="72.79" y1="246.59" x2="79.67" y2="239.71"/><line class="cls-4" x1="78.87" y1="246.59" x2="85.75" y2="239.71"/><line class="cls-4" x1="84.95" y1="246.59" x2="91.86" y2="239.71"/><line class="cls-4" x1="91.06" y1="246.59" x2="97.94" y2="239.71"/><line class="cls-4" x1="97.14" y1="246.59" x2="104.02" y2="239.71"/><line class="cls-4" x1="103.22" y1="246.59" x2="110.1" y2="239.71"/><line class="cls-4" x1="109.3" y1="246.59" x2="116.21" y2="239.71"/><line class="cls-4" x1="115.41" y1="246.59" x2="122.29" y2="239.71"/><line class="cls-4" x1="121.49" y1="246.59" x2="128.37" y2="239.71"/><line class="cls-4" x1="127.57" y1="246.59" x2="134.45" y2="239.71"/><line class="cls-4" x1="133.65" y1="246.59" x2="140.56" y2="239.71"/><line class="cls-4" x1="139.76" y1="246.59" x2="146.64" y2="239.71"/><line class="cls-4" x1="145.84" y1="246.59" x2="152.72" y2="239.71"/><line class="cls-4" x1="151.92" y1="246.59" x2="158.8" y2="239.71"/><line class="cls-4" x1="158.01" y1="246.59" x2="164.91" y2="239.71"/><line class="cls-4" x1="164.11" y1="246.59" x2="170.99" y2="239.71"/><line class="cls-4" x1="170.19" y1="246.59" x2="177.07" y2="239.71"/><line class="cls-4" x1="176.27" y1="246.59" x2="183.15" y2="239.71"/><line class="cls-4" x1="182.36" y1="246.59" x2="189.26" y2="239.71"/><line class="cls-4" x1="188.46" y1="246.59" x2="190.08" y2="244.98"/><line class="cls-4" x1="267.57" y1="240.53" x2="268.39" y2="239.71"/><line class="cls-4" x1="267.6" y1="246.59" x2="274.47" y2="239.71"/><line class="cls-4" x1="273.68" y1="246.59" x2="276.18" y2="244.11"/><line class="cls-4" x1="267.57" y1="246.59" x2="267.57" y2="239.71"/><line class="cls-4" x1="190.08" y1="246.59" x2="190.08" y2="239.71"/><line class="cls-4" x1="276.18" y1="239.71" x2="267.57" y2="239.71"/><line class="cls-4" x1="190.08" y1="239.71" x2="175.43" y2="239.71"/><line class="cls-4" x1="168.55" y1="239.71" x2="67.82" y2="239.71"/><line class="cls-4" x1="60.94" y1="239.71" x2="17.89" y2="239.71"/><line class="cls-4" x1="17.89" y1="246.59" x2="60.94" y2="246.59"/><line class="cls-4" x1="67.82" y1="246.59" x2="190.08" y2="246.59"/><line class="cls-4" x1="267.57" y1="246.59" x2="276.18" y2="246.59"/><line class="cls-4" x1="190.08" y1="246.59" x2="190.42" y2="246.59"/><line class="cls-4" x1="190.49" y1="246.59" x2="190.51" y2="246.59"/><line class="cls-4" x1="267.21" y1="246.59" x2="267.57" y2="246.59"/><line class="cls-4" x1="190.08" y1="239.71" x2="190.42" y2="239.71"/><line class="cls-4" x1="190.49" y1="239.71" x2="190.51" y2="239.71"/><line class="cls-4" x1="267.21" y1="239.71" x2="267.57" y2="239.71"/><line class="cls-4" x1="171.99" y1="80.44" x2="175.43" y2="76.98"/><line class="cls-4" x1="168.55" y1="83.86" x2="171.99" y2="80.44"/><line class="cls-4" x1="168.55" y1="89.94" x2="175.43" y2="83.06"/><line class="cls-4" x1="168.55" y1="96.05" x2="175.43" y2="89.14"/><line class="cls-4" x1="173.02" y1="97.66" x2="175.43" y2="95.25"/><line class="cls-4" x1="168.55" y1="162.99" x2="173.63" y2="157.91"/><line class="cls-4" x1="168.55" y1="169.1" x2="175.43" y2="162.2"/><line class="cls-4" x1="168.55" y1="175.18" x2="175.43" y2="168.3"/><line class="cls-4" x1="168.55" y1="181.26" x2="175.43" y2="174.38"/><line class="cls-4" x1="168.55" y1="187.37" x2="175.43" y2="180.47"/><line class="cls-4" x1="168.55" y1="193.45" x2="175.43" y2="186.55"/><line class="cls-4" x1="168.55" y1="199.53" x2="175.43" y2="192.65"/><line class="cls-4" x1="168.55" y1="205.61" x2="175.43" y2="198.73"/><line class="cls-4" x1="168.55" y1="211.72" x2="175.43" y2="204.82"/><line class="cls-4" x1="168.55" y1="217.8" x2="175.43" y2="210.9"/><line class="cls-4" x1="168.55" y1="223.88" x2="175.43" y2="217"/><line class="cls-4" x1="168.55" y1="229.96" x2="175.43" y2="223.08"/><line class="cls-4" x1="168.55" y1="236.07" x2="175.43" y2="229.17"/><line class="cls-4" x1="170.99" y1="239.71" x2="175.43" y2="235.25"/><line class="cls-4" x1="168.55" y1="97.66" x2="175.43" y2="97.66"/><polyline class="cls-4" points="168.55 157.91 175.43 157.91 175.43 239.71"/><line class="cls-4" x1="175.43" y1="97.66" x2="175.43" y2="73.54"/><line class="cls-4" x1="168.55" y1="80.44" x2="168.55" y2="97.66"/><line class="cls-4" x1="168.55" y1="157.91" x2="168.55" y2="185.48"/><line class="cls-4" x1="168.55" y1="192.36" x2="168.55" y2="239.71"/><line class="cls-4" x1="175.43" y1="157.91" x2="175.43" y2="157.6"/><line class="cls-4" x1="175.43" y1="157.53" x2="175.43" y2="157.5"/><line class="cls-4" x1="175.43" y1="98.17" x2="175.43" y2="98.12"/><line class="cls-4" x1="175.43" y1="98.07" x2="175.43" y2="98.05"/><line class="cls-4" x1="175.43" y1="97.98" x2="175.43" y2="97.66"/><line class="cls-4" x1="168.55" y1="157.91" x2="168.55" y2="157.6"/><line class="cls-4" x1="168.55" y1="157.53" x2="168.55" y2="157.5"/><line class="cls-4" x1="168.55" y1="98.17" x2="168.55" y2="98.12"/><line class="cls-4" x1="168.55" y1="98.07" x2="168.55" y2="98.05"/><line class="cls-4" x1="168.55" y1="97.98" x2="168.55" y2="97.66"/><line class="cls-4" x1="17.89" y1="185.82" x2="18.23" y2="185.48"/><line class="cls-4" x1="17.89" y1="191.92" x2="22.2" y2="187.62"/><line class="cls-4" x1="56.64" y1="189.69" x2="60.85" y2="185.48"/><line class="cls-4" x1="60.06" y1="192.36" x2="66.94" y2="185.48"/><line class="cls-4" x1="66.14" y1="192.36" x2="73.04" y2="185.48"/><line class="cls-4" x1="72.24" y1="192.36" x2="79.12" y2="185.48"/><line class="cls-4" x1="78.32" y1="192.36" x2="85.2" y2="185.48"/><line class="cls-4" x1="84.41" y1="192.36" x2="91.31" y2="185.48"/><line class="cls-4" x1="90.49" y1="192.36" x2="97.39" y2="185.48"/><line class="cls-4" x1="96.59" y1="192.36" x2="103.47" y2="185.48"/><line class="cls-4" x1="102.68" y1="192.36" x2="109.55" y2="185.48"/><line class="cls-4" x1="108.76" y1="192.36" x2="115.66" y2="185.48"/><line class="cls-4" x1="114.84" y1="192.36" x2="121.74" y2="185.48"/><line class="cls-4" x1="120.94" y1="192.36" x2="127.82" y2="185.48"/><line class="cls-4" x1="127.03" y1="192.36" x2="133.91" y2="185.48"/><line class="cls-4" x1="133.11" y1="192.36" x2="140.01" y2="185.48"/><line class="cls-4" x1="139.19" y1="192.36" x2="146.09" y2="185.48"/><line class="cls-4" x1="145.29" y1="192.36" x2="152.17" y2="185.48"/><line class="cls-4" x1="151.38" y1="192.36" x2="158.26" y2="185.48"/><line class="cls-4" x1="157.46" y1="192.36" x2="164.36" y2="185.48"/><line class="cls-4" x1="163.54" y1="192.36" x2="168.55" y2="187.37"/><polyline class="cls-4" points="22.2 185.48 22.2 188.92 22.2 192.36"/><polyline class="cls-4" points="56.64 185.48 56.64 188.92 56.64 192.36"/><line class="cls-4" x1="17.89" y1="192.36" x2="22.2" y2="192.36"/><line class="cls-4" x1="56.64" y1="192.36" x2="60.94" y2="192.36"/><line class="cls-4" x1="67.82" y1="192.36" x2="168.55" y2="192.36"/><line class="cls-4" x1="168.55" y1="185.48" x2="56.64" y2="185.48"/><polyline class="cls-4" points="22.2 185.48 17.89 185.48 17.89 192.36"/><line class="cls-4" x1="56.64" y1="185.48" x2="22.2" y2="185.48"/><line class="cls-4" x1="56.64" y1="192.36" x2="22.2" y2="192.36"/><path class="cls-4" d="M56.79,185.09a34.55,34.55,0,0,0-2.08-11.78" transform="translate(-0.15 0.38)"/><line class="cls-4" x1="22.2" y1="185.48" x2="54.57" y2="173.7"/><polyline class="cls-4" points="56.64 192.36 56.64 188.92 56.64 185.48 56.64 188.92"/><polyline class="cls-4" points="22.2 192.36 22.2 188.92 22.2 185.48 22.2 188.92"/><line class="cls-4" x1="117.19" y1="80.44" x2="119.49" y2="78.14"/><line class="cls-4" x1="119.49" y1="78.14" x2="124.09" y2="73.54"/><line class="cls-4" x1="123.27" y1="80.44" x2="130.17" y2="73.54"/><line class="cls-4" x1="129.37" y1="80.44" x2="136.25" y2="73.54"/><line class="cls-4" x1="135.45" y1="80.44" x2="142.33" y2="73.54"/><line class="cls-4" x1="141.54" y1="80.44" x2="148.44" y2="73.54"/><line class="cls-4" x1="147.64" y1="80.44" x2="154.52" y2="73.54"/><line class="cls-4" x1="153.72" y1="80.44" x2="160.6" y2="73.54"/><line class="cls-4" x1="159.8" y1="80.44" x2="166.68" y2="73.54"/><line class="cls-4" x1="165.89" y1="80.44" x2="168.55" y2="77.78"/><line class="cls-4" x1="168.55" y1="77.78" x2="172.79" y2="73.54"/><polyline class="cls-4" points="175.43 73.54 168.55 73.54 119.49 73.54"/><line class="cls-4" x1="112.58" y1="80.44" x2="168.55" y2="80.44"/><line class="cls-4" x1="112.58" y1="18.07" x2="113.09" y2="17.6"/><line class="cls-4" x1="112.58" y1="24.16" x2="119.17" y2="17.6"/><line class="cls-4" x1="112.58" y1="30.24" x2="119.49" y2="23.36"/><line class="cls-4" x1="112.58" y1="36.34" x2="119.49" y2="29.44"/><line class="cls-4" x1="112.58" y1="42.42" x2="119.49" y2="35.52"/><line class="cls-4" x1="112.58" y1="48.51" x2="119.49" y2="41.63"/><line class="cls-4" x1="112.58" y1="54.59" x2="119.49" y2="47.71"/><line class="cls-4" x1="112.58" y1="60.69" x2="119.49" y2="53.79"/><line class="cls-4" x1="112.58" y1="66.78" x2="119.49" y2="59.87"/><line class="cls-4" x1="112.58" y1="72.86" x2="119.49" y2="65.98"/><line class="cls-4" x1="117.98" y1="73.54" x2="119.49" y2="72.06"/><line class="cls-4" x1="112.58" y1="78.94" x2="117.98" y2="73.54"/><polyline class="cls-4" points="119.49 73.54 119.49 17.6 112.58 17.6"/><polyline class="cls-4" points="112.58 80.44 112.58 73.54 112.58 17.6"/><line class="cls-4" x1="40.28" y1="32.93" x2="40.28" y2="37.82"/><line class="cls-4" x1="38.14" y1="39.96" x2="33.22" y2="39.96"/><line class="cls-4" x1="40.28" y1="42.11" x2="40.28" y2="47.03"/><line class="cls-4" x1="47.32" y1="39.96" x2="42.43" y2="39.96"/><line class="cls-4" x1="93.65" y1="25.34" x2="93.65" y2="46"/><line class="cls-4" x1="24.77" y1="45.16" x2="24.77" y2="92.49"/><line class="cls-4" x1="46.3" y1="93.36" x2="25.64" y2="93.36"/><line class="cls-4" x1="93.65" y1="25.34" x2="93.65" y2="46"/><line class="cls-4" x1="92.79" y1="24.48" x2="45.48" y2="24.48"/><line class="cls-4" x1="97.96" y1="21.04" x2="97.96" y2="46"/><line class="cls-4" x1="20.47" y1="21.04" x2="20.47" y2="96.8"/><line class="cls-4" x1="46.3" y1="97.66" x2="21.33" y2="97.66"/><line class="cls-4" x1="97.09" y1="20.17" x2="21.33" y2="20.17"/><path class="cls-4" d="M45.64,24.1a4.52,4.52,0,0,0-1.37.22" transform="translate(-0.15 0.38)"/><path class="cls-4" d="M93.8,25A.85.85,0,0,0,93,24.1" transform="translate(-0.15 0.38)"/><path class="cls-4" d="M45.64,24.1a4.52,4.52,0,0,0-1.37.22" transform="translate(-0.15 0.38)"/><path class="cls-4" d="M46.46,97.27A51.66,51.66,0,0,0,98.11,45.61" transform="translate(-0.15 0.38)"/><path class="cls-4" d="M98.11,20.65a.87.87,0,0,0-.86-.86" transform="translate(-0.15 0.38)"/><path class="cls-4" d="M46.46,93A47.35,47.35,0,0,0,93.8,45.61" transform="translate(-0.15 0.38)"/><path class="cls-4" d="M20.64,96.41a.86.86,0,0,0,.85.86" transform="translate(-0.15 0.38)"/><path class="cls-4" d="M24.94,92.11a.85.85,0,0,0,.86.85" transform="translate(-0.15 0.38)"/><path class="cls-4" d="M21.49,19.79a.86.86,0,0,0-.85.86" transform="translate(-0.15 0.38)"/><path class="cls-4" d="M44.79,24.16A46.55,46.55,0,0,0,25,44" transform="translate(-0.15 0.38)"/><path class="cls-4" d="M25.16,43.41a4.5,4.5,0,0,0-.22,1.36" transform="translate(-0.15 0.38)"/><path class="cls-4" d="M44.25,24.3A30.33,30.33,0,0,0,25.14,43.41" transform="translate(-0.15 0.38)"/><path class="cls-4" d="M25.16,43.41a4.5,4.5,0,0,0-.22,1.36" transform="translate(-0.15 0.38)"/><path class="cls-4" d="M44.33,39.58a3.89,3.89,0,1,0-3.89,3.88,3.89,3.89,0,0,0,3.89-3.88" transform="translate(-0.15 0.38)"/><path class="cls-4" d="M45.87,39.58A5.43,5.43,0,1,0,40.44,45a5.43,5.43,0,0,0,5.43-5.43" transform="translate(-0.15 0.38)"/><line class="cls-4" x1="22.2" y1="298.26" x2="69.55" y2="298.26"/><line class="cls-4" x1="69.55" y1="298.26" x2="69.55" y2="250.9"/><line class="cls-4" x1="69.55" y1="250.9" x2="22.2" y2="250.9"/><line class="cls-4" x1="22.2" y1="250.9" x2="22.2" y2="298.26"/><line class="cls-4" x1="26.5" y1="293.95" x2="65.25" y2="293.95"/><line class="cls-4" x1="65.25" y1="293.95" x2="65.25" y2="259.51"/><line class="cls-4" x1="65.25" y1="259.51" x2="26.5" y2="259.51"/><line class="cls-4" x1="26.5" y1="259.51" x2="26.5" y2="293.95"/><line class="cls-4" x1="33.72" y1="161.79" x2="64.11" y2="161.79"/><line class="cls-4" x1="20.47" y1="163.09" x2="20.47" y2="130.37"/><line class="cls-4" x1="20.47" y1="163.09" x2="31.88" y2="163.09"/><line class="cls-4" x1="39.05" y1="146.73" x2="39.05" y2="134.59"/><line class="cls-4" x1="64.07" y1="161.79" x2="39.05" y2="158.87"/><line class="cls-4" x1="39.05" y1="146.73" x2="39.05" y2="158.87"/><line class="cls-4" x1="64.07" y1="131.67" x2="39.05" y2="134.59"/><line class="cls-4" x1="64.07" y1="161.01" x2="39.05" y2="158.1"/><line class="cls-4" x1="64.07" y1="132.45" x2="39.05" y2="135.36"/><line class="cls-4" x1="33.7" y1="131.67" x2="64.11" y2="131.67"/><line class="cls-4" x1="20.47" y1="130.37" x2="31.88" y2="130.37"/><line class="cls-4" x1="64.07" y1="161.79" x2="67.44" y2="161.35"/><line class="cls-4" x1="67.44" y1="161.35" x2="70.6" y2="160.08"/><line class="cls-4" x1="70.6" y1="160.08" x2="73.4" y2="158.03"/><line class="cls-4" x1="73.4" y1="158.03" x2="75.66" y2="155.29"/><line class="cls-4" x1="75.66" y1="155.29" x2="77.23" y2="152.08"/><line class="cls-4" x1="77.23" y1="152.08" x2="78.05" y2="148.55"/><line class="cls-4" x1="78.05" y1="148.55" x2="78.05" y2="144.91"/><line class="cls-4" x1="78.05" y1="144.91" x2="77.23" y2="141.38"/><line class="cls-4" x1="77.23" y1="141.38" x2="75.66" y2="138.16"/><line class="cls-4" x1="75.66" y1="138.16" x2="73.4" y2="135.43"/><line class="cls-4" x1="73.4" y1="135.43" x2="70.6" y2="133.38"/><line class="cls-4" x1="70.6" y1="133.38" x2="67.44" y2="132.11"/><line class="cls-4" x1="67.44" y1="132.11" x2="64.07" y2="131.67"/><line class="cls-4" x1="64.07" y1="161.01" x2="67.25" y2="160.6"/><line class="cls-4" x1="67.25" y1="160.6" x2="70.26" y2="159.39"/><line class="cls-4" x1="70.26" y1="159.39" x2="72.9" y2="157.44"/><line class="cls-4" x1="72.9" y1="157.44" x2="75.02" y2="154.84"/><line class="cls-4" x1="75.02" y1="154.84" x2="76.53" y2="151.79"/><line class="cls-4" x1="76.53" y1="151.79" x2="77.28" y2="148.46"/><line class="cls-4" x1="77.28" y1="148.46" x2="77.28" y2="145"/><line class="cls-4" x1="77.28" y1="145" x2="76.53" y2="141.65"/><line class="cls-4" x1="76.53" y1="141.65" x2="75.02" y2="138.62"/><line class="cls-4" x1="75.02" y1="138.62" x2="72.9" y2="136.02"/><line class="cls-4" x1="72.9" y1="136.02" x2="70.26" y2="134.06"/><line class="cls-4" x1="70.26" y1="134.06" x2="67.25" y2="132.86"/><line class="cls-4" x1="67.25" y1="132.86" x2="64.07" y2="132.45"/><path class="cls-4" d="M33.93,161a138.82,138.82,0,0,0,0-29.32" transform="translate(-0.15 0.38)"/><path class="cls-4" d="M32,162.71A1.92,1.92,0,0,0,34,161" transform="translate(-0.15 0.38)"/><path class="cls-4" d="M34,131.69A1.92,1.92,0,0,0,32,130" transform="translate(-0.15 0.38)"/><path class="cls-4" d="M29.43,146.34a1.61,1.61,0,1,0-1.61,1.59,1.6,1.6,0,0,0,1.61-1.59" transform="translate(-0.15 0.38)"/><line class="cls-4" x1="164.25" y1="182.88" x2="125.5" y2="182.88"/><line class="cls-4" x1="125.5" y1="182.88" x2="125.5" y2="166.5"/><line class="cls-4" x1="164.25" y1="182.88" x2="164.25" y2="166.5"/><line class="cls-4" x1="138.78" y1="182.88" x2="150.99" y2="182.88"/><line class="cls-4" x1="141.63" y1="169.74" x2="143.7" y2="169.74"/><line class="cls-4" x1="144.88" y1="172.99" x2="144.88" y2="170.94"/><line class="cls-4" x1="146.09" y1="169.74" x2="148.14" y2="169.74"/><line class="cls-4" x1="144.88" y1="168.53" x2="144.88" y2="166.48"/><path class="cls-4" d="M155.32,173.27a17.15,17.15,0,0,0,6.7-8.17" transform="translate(-0.15 0.38)"/><path class="cls-4" d="M145.05,175.68a17.23,17.23,0,0,0,10.28-2.41" transform="translate(-0.15 0.38)"/><path class="cls-4" d="M128,165.1a17.21,17.21,0,0,0,6.7,8.17" transform="translate(-0.15 0.38)"/><path class="cls-4" d="M134.75,173.27A17.26,17.26,0,0,0,145,175.68" transform="translate(-0.15 0.38)"/><path class="cls-4" d="M158.17,156.32a31.8,31.8,0,0,0-11.77-3.2" transform="translate(-0.15 0.38)"/><path class="cls-4" d="M129.36,158a9.82,9.82,0,0,0-3.68,8.1" transform="translate(-0.15 0.38)"/><path class="cls-4" d="M146.4,153.12a20.42,20.42,0,0,0-2.71,0" transform="translate(-0.15 0.38)"/><path class="cls-4" d="M134.21,172.63a70.61,70.61,0,0,0,21.67,0" transform="translate(-0.15 0.38)"/><path class="cls-4" d="M126.68,163.58a24.32,24.32,0,0,0,5.49,15.83" transform="translate(-0.15 0.38)"/><path class="cls-4" d="M134,180.51a49.25,49.25,0,0,0,11.09,1.2" transform="translate(-0.15 0.38)"/><path class="cls-4" d="M132.16,179.41a3.24,3.24,0,0,0,1.78,1.1" transform="translate(-0.15 0.38)"/><path class="cls-4" d="M134.1,179.42a83.44,83.44,0,0,0,10.93.78" transform="translate(-0.15 0.38)"/><path class="cls-4" d="M126.67,163.57a21.89,21.89,0,0,0,5.47,14.76" transform="translate(-0.15 0.38)"/><path class="cls-4" d="M132.15,178.34a3.23,3.23,0,0,0,2,1.06" transform="translate(-0.15 0.38)"/><path class="cls-4" d="M157.91,178.35a21.92,21.92,0,0,0,5.48-14.75" transform="translate(-0.15 0.38)"/><path class="cls-4" d="M157.89,179.42a24.35,24.35,0,0,0,5.52-15.83" transform="translate(-0.15 0.38)"/><path class="cls-4" d="M145,180.2a81.35,81.35,0,0,0,10.92-.77" transform="translate(-0.15 0.38)"/><path class="cls-4" d="M145,181.71a48.68,48.68,0,0,0,11.09-1.19" transform="translate(-0.15 0.38)"/><path class="cls-4" d="M155.94,179.4a3.23,3.23,0,0,0,2-1.06" transform="translate(-0.15 0.38)"/><path class="cls-4" d="M156.12,180.54a3.23,3.23,0,0,0,1.78-1.11" transform="translate(-0.15 0.38)"/><path class="cls-4" d="M164.41,166.1a9.84,9.84,0,0,0-3.68-8.1" transform="translate(-0.15 0.38)"/><path class="cls-4" d="M160.74,158a15.18,15.18,0,0,0-2.58-1.67" transform="translate(-0.15 0.38)"/><path class="cls-4" d="M131.92,156.33a15.5,15.5,0,0,0-2.57,1.67" transform="translate(-0.15 0.38)"/><path class="cls-4" d="M143.68,153.12a31.75,31.75,0,0,0-11.76,3.2" transform="translate(-0.15 0.38)"/><path class="cls-4" d="M150.37,155.87a22.86,22.86,0,0,0-10.66,0" transform="translate(-0.15 0.38)"/><path class="cls-4" d="M162,165.1a5.77,5.77,0,0,0-2-4.78" transform="translate(-0.15 0.38)"/><path class="cls-4" d="M160,160.31a20.92,20.92,0,0,0-9.66-4.43" transform="translate(-0.15 0.38)"/><path class="cls-4" d="M130.05,160.32a5.81,5.81,0,0,0-2,4.78" transform="translate(-0.15 0.38)"/><path class="cls-4" d="M139.71,155.88a21,21,0,0,0-9.66,4.43" transform="translate(-0.15 0.38)"/><path class="cls-4" d="M147.56,169.35a2.52,2.52,0,1,0-2.52,2.52,2.52,2.52,0,0,0,2.52-2.52" transform="translate(-0.15 0.38)"/><path class="cls-4" d="M146.83,169.35a1.79,1.79,0,1,0-1.79,1.79,1.79,1.79,0,0,0,1.79-1.79" transform="translate(-0.15 0.38)"/><polyline class="cls-4" points="150.03 640.49 149.62 640.49 149.62 687.82 150.03 687.82 150.03 640.49"/><polyline class="cls-4" points="148.32 689.55 148.32 689.12 69.12 689.12 69.12 689.55 148.32 689.55"/><polyline class="cls-4" points="67.39 687.82 67.82 687.82 67.82 640.49 67.39 640.49 67.39 687.82"/><polyline class="cls-4" points="150.47 638.32 148.32 638.32 148.32 640.49 150.47 640.49 150.47 638.32"/><polyline class="cls-4" points="150.47 687.82 148.32 687.82 148.32 689.99 150.47 689.99 150.47 687.82"/><polyline class="cls-4" points="69.12 689.99 69.12 687.82 66.96 687.82 66.96 689.99 69.12 689.99"/><polyline class="cls-4" points="66.96 640.49 69.12 640.49 69.12 638.32 66.96 638.32 66.96 640.49"/><line class="cls-4" x1="148.32" y1="639.39" x2="148.32" y2="687.82"/><line class="cls-4" x1="150.47" y1="689.99" x2="150.47" y2="639.39"/><line class="cls-4" x1="148.32" y1="687.82" x2="69.12" y2="687.82"/><line class="cls-4" x1="66.96" y1="689.99" x2="150.47" y2="689.99"/><line class="cls-4" x1="69.12" y1="687.82" x2="69.12" y2="639.39"/><line class="cls-4" x1="66.96" y1="639.39" x2="66.96" y2="689.99"/><polyline class="cls-4" points="150.47 639.39 150.47 638.32 148.32 638.32 148.32 639.39"/><polyline class="cls-4" points="69.12 639.39 69.12 638.32 66.96 638.32 66.96 639.39"/><polyline class="cls-4" points="66.96 689.99 150.47 689.99 150.47 639.39 148.32 639.39 148.32 687.82 69.12 687.82 69.12 639.39 66.96 639.39 66.96 689.99"/><polyline class="cls-4" points="71.26 674.5 146.16 674.5 146.16 646.93 71.26 646.93 71.26 674.5"/><polyline class="cls-4" points="71.26 671.74 146.16 671.74 146.16 646.93 71.26 646.93 71.26 671.74"/><line class="cls-4" x1="0.38" y1="349.92" x2="0.44" y2="349.92"/><line class="cls-4" x1="0.49" y1="349.92" x2="0.56" y2="349.92"/><line class="cls-4" x1="0.63" y1="349.92" x2="0.67" y2="349.92"/><line class="cls-4" x1="169.42" y1="246.59" x2="169.42" y2="246.66"/><line class="cls-4" x1="169.42" y1="246.71" x2="169.42" y2="246.78"/><line class="cls-4" x1="169.42" y1="246.82" x2="169.42" y2="246.89"/><line class="cls-4" x1="169.42" y1="246.93" x2="169.42" y2="247"/><line class="cls-4" x1="17.94" y1="349.92" x2="17.89" y2="349.92"/><line class="cls-4" x1="0.67" y1="528.14" x2="4.98" y2="523.81"/><line class="cls-4" x1="0.67" y1="535.43" x2="12.29" y2="523.81"/><line class="cls-4" x1="0.67" y1="542.74" x2="17.89" y2="525.52"/><line class="cls-4" x1="0.67" y1="550.05" x2="17.89" y2="532.83"/><line class="cls-4" x1="0.67" y1="557.34" x2="17.89" y2="540.15"/><line class="cls-4" x1="0.67" y1="564.66" x2="17.89" y2="547.43"/><line class="cls-4" x1="0.67" y1="571.97" x2="17.89" y2="554.75"/><line class="cls-4" x1="0.67" y1="579.28" x2="17.89" y2="562.06"/><line class="cls-4" x1="0.67" y1="586.57" x2="17.89" y2="569.35"/><line class="cls-4" x1="0.67" y1="593.88" x2="17.89" y2="576.66"/><line class="cls-4" x1="0.67" y1="601.19" x2="17.89" y2="583.97"/><line class="cls-4" x1="0.67" y1="608.48" x2="17.89" y2="591.28"/><line class="cls-4" x1="6.55" y1="609.92" x2="17.89" y2="598.57"/><line class="cls-4" x1="13.86" y1="609.92" x2="17.89" y2="605.89"/><line class="cls-4" x1="1.38" y1="531.08" x2="4.11" y2="528.35"/><line class="cls-4" x1="5.02" y1="527.43" x2="5.02" y2="527.43"/><line class="cls-4" x1="5.96" y1="526.5" x2="8.64" y2="523.81"/><line class="cls-4" x1="0.67" y1="539.1" x2="3.2" y2="536.55"/><line class="cls-4" x1="4.11" y1="535.64" x2="4.11" y2="535.64"/><line class="cls-4" x1="5.02" y1="534.72" x2="7.78" y2="531.99"/><line class="cls-4" x1="8.69" y1="531.08" x2="8.69" y2="531.08"/><line class="cls-4" x1="9.6" y1="530.17" x2="12.33" y2="527.43"/><line class="cls-4" x1="13.25" y1="526.5" x2="13.25" y2="526.5"/><line class="cls-4" x1="14.16" y1="525.59" x2="15.93" y2="523.81"/><line class="cls-4" x1="0.67" y1="546.39" x2="2.29" y2="544.77"/><line class="cls-4" x1="3.2" y1="543.86" x2="3.2" y2="543.86"/><line class="cls-4" x1="4.11" y1="542.95" x2="6.87" y2="540.21"/><line class="cls-4" x1="7.78" y1="539.3" x2="7.78" y2="539.3"/><line class="cls-4" x1="8.69" y1="538.39" x2="11.42" y2="535.64"/><line class="cls-4" x1="12.33" y1="534.72" x2="12.33" y2="534.72"/><line class="cls-4" x1="13.25" y1="533.81" x2="15.98" y2="531.08"/><line class="cls-4" x1="16.91" y1="530.17" x2="16.91" y2="530.17"/><line class="cls-4" x1="17.82" y1="529.26" x2="17.89" y2="529.19"/><line class="cls-4" x1="0.67" y1="553.7" x2="1.38" y2="552.99"/><line class="cls-4" x1="2.29" y1="552.08" x2="2.29" y2="552.08"/><line class="cls-4" x1="3.2" y1="551.17" x2="5.96" y2="548.44"/><line class="cls-4" x1="6.87" y1="547.53" x2="6.87" y2="547.53"/><line class="cls-4" x1="7.78" y1="546.59" x2="10.51" y2="543.86"/><line class="cls-4" x1="11.42" y1="542.95" x2="11.42" y2="542.95"/><line class="cls-4" x1="12.33" y1="542.04" x2="15.07" y2="539.3"/><line class="cls-4" x1="15.98" y1="538.39" x2="15.98" y2="538.39"/><line class="cls-4" x1="16.91" y1="537.48" x2="17.89" y2="536.48"/><line class="cls-4" x1="1.38" y1="560.3" x2="1.38" y2="560.3"/><line class="cls-4" x1="2.29" y1="559.39" x2="5.02" y2="556.64"/><line class="cls-4" x1="5.96" y1="555.73" x2="5.96" y2="555.73"/><line class="cls-4" x1="6.87" y1="554.81" x2="9.6" y2="552.08"/><line class="cls-4" x1="10.51" y1="551.17" x2="10.51" y2="551.17"/><line class="cls-4" x1="11.42" y1="550.26" x2="14.16" y2="547.53"/><line class="cls-4" x1="15.07" y1="546.59" x2="15.07" y2="546.59"/><line class="cls-4" x1="15.98" y1="545.68" x2="17.89" y2="543.79"/><line class="cls-4" x1="1.38" y1="567.59" x2="4.11" y2="564.86"/><line class="cls-4" x1="5.02" y1="563.95" x2="5.02" y2="563.95"/><line class="cls-4" x1="5.96" y1="563.04" x2="8.69" y2="560.3"/><line class="cls-4" x1="9.6" y1="559.39" x2="9.6" y2="559.39"/><line class="cls-4" x1="10.51" y1="558.48" x2="13.25" y2="555.73"/><line class="cls-4" x1="14.16" y1="554.81" x2="14.16" y2="554.81"/><line class="cls-4" x1="15.07" y1="553.9" x2="17.82" y2="551.17"/><line class="cls-4" x1="0.67" y1="575.61" x2="3.2" y2="573.08"/><line class="cls-4" x1="4.11" y1="572.17" x2="4.11" y2="572.17"/><line class="cls-4" x1="5.02" y1="571.26" x2="7.78" y2="568.53"/><line class="cls-4" x1="8.69" y1="567.59" x2="8.69" y2="567.59"/><line class="cls-4" x1="9.6" y1="566.68" x2="12.33" y2="563.95"/><line class="cls-4" x1="13.25" y1="563.04" x2="13.25" y2="563.04"/><line class="cls-4" x1="14.16" y1="562.13" x2="16.91" y2="559.39"/><line class="cls-4" x1="17.82" y1="558.48" x2="17.82" y2="558.48"/><line class="cls-4" x1="0.67" y1="582.92" x2="2.29" y2="581.31"/><line class="cls-4" x1="3.2" y1="580.4" x2="3.2" y2="580.4"/><line class="cls-4" x1="4.11" y1="579.48" x2="6.87" y2="576.73"/><line class="cls-4" x1="7.78" y1="575.82" x2="7.78" y2="575.82"/><line class="cls-4" x1="8.69" y1="574.91" x2="11.42" y2="572.17"/><line class="cls-4" x1="12.33" y1="571.26" x2="12.33" y2="571.26"/><line class="cls-4" x1="13.25" y1="570.35" x2="15.98" y2="567.59"/><line class="cls-4" x1="16.91" y1="566.68" x2="16.91" y2="566.68"/><line class="cls-4" x1="17.82" y1="565.77" x2="17.89" y2="565.7"/><line class="cls-4" x1="0.67" y1="590.24" x2="1.38" y2="589.53"/><line class="cls-4" x1="2.29" y1="588.6" x2="2.29" y2="588.6"/><line class="cls-4" x1="3.2" y1="587.68" x2="5.96" y2="584.95"/><line class="cls-4" x1="6.87" y1="584.04" x2="6.87" y2="584.04"/><line class="cls-4" x1="7.78" y1="583.13" x2="10.51" y2="580.4"/><line class="cls-4" x1="11.42" y1="579.48" x2="11.42" y2="579.48"/><line class="cls-4" x1="12.33" y1="578.57" x2="15.07" y2="575.82"/><line class="cls-4" x1="15.98" y1="574.91" x2="15.98" y2="574.91"/><line class="cls-4" x1="16.91" y1="573.99" x2="17.89" y2="573.02"/><line class="cls-4" x1="1.38" y1="596.82" x2="1.38" y2="596.82"/><line class="cls-4" x1="2.29" y1="595.91" x2="5.02" y2="593.17"/><line class="cls-4" x1="5.96" y1="592.26" x2="5.96" y2="592.26"/><line class="cls-4" x1="6.87" y1="591.35" x2="9.6" y2="588.6"/><line class="cls-4" x1="10.51" y1="587.68" x2="10.51" y2="587.68"/><line class="cls-4" x1="11.42" y1="586.77" x2="14.16" y2="584.04"/><line class="cls-4" x1="15.07" y1="583.13" x2="15.07" y2="583.13"/><line class="cls-4" x1="15.98" y1="582.22" x2="17.89" y2="580.3"/><line class="cls-4" x1="1.38" y1="604.13" x2="4.11" y2="601.4"/><line class="cls-4" x1="5.02" y1="600.49" x2="5.02" y2="600.49"/><line class="cls-4" x1="5.96" y1="599.58" x2="8.69" y2="596.82"/><line class="cls-4" x1="9.6" y1="595.91" x2="9.6" y2="595.91"/><line class="cls-4" x1="10.51" y1="595" x2="13.25" y2="592.26"/><line class="cls-4" x1="14.16" y1="591.35" x2="14.16" y2="591.35"/><line class="cls-4" x1="15.07" y1="590.44" x2="17.82" y2="587.68"/><line class="cls-4" x1="2.9" y1="609.92" x2="3.2" y2="609.62"/><line class="cls-4" x1="4.11" y1="608.69" x2="4.11" y2="608.69"/><line class="cls-4" x1="5.02" y1="607.78" x2="7.78" y2="605.04"/><line class="cls-4" x1="8.69" y1="604.13" x2="8.69" y2="604.13"/><line class="cls-4" x1="9.6" y1="603.22" x2="12.33" y2="600.49"/><line class="cls-4" x1="13.25" y1="599.58" x2="13.25" y2="599.58"/><line class="cls-4" x1="14.16" y1="598.64" x2="16.91" y2="595.91"/><line class="cls-4" x1="17.82" y1="595" x2="17.82" y2="595"/><line class="cls-4" x1="10.19" y1="609.92" x2="11.42" y2="608.69"/><line class="cls-4" x1="12.33" y1="607.78" x2="12.33" y2="607.78"/><line class="cls-4" x1="13.25" y1="606.86" x2="15.98" y2="604.13"/><line class="cls-4" x1="16.91" y1="603.22" x2="16.91" y2="603.22"/><line class="cls-4" x1="17.82" y1="602.31" x2="17.89" y2="602.24"/><line class="cls-4" x1="17.5" y1="609.92" x2="17.89" y2="609.53"/><polyline class="cls-4" points="17.89 609.92 0.67 609.92 0.67 523.81 17.89 523.81 17.89 609.92"/><line class="cls-4" x1="0.67" y1="243.22" x2="4.18" y2="239.71"/><line class="cls-4" x1="0.67" y1="250.53" x2="11.49" y2="239.71"/><line class="cls-4" x1="0.67" y1="257.85" x2="17.89" y2="240.62"/><line class="cls-4" x1="0.67" y1="265.13" x2="17.89" y2="247.91"/><line class="cls-4" x1="0.67" y1="272.45" x2="17.89" y2="255.23"/><line class="cls-4" x1="0.67" y1="279.76" x2="17.89" y2="262.54"/><line class="cls-4" x1="0.67" y1="287.05" x2="17.89" y2="269.83"/><line class="cls-4" x1="0.67" y1="294.36" x2="17.89" y2="277.14"/><line class="cls-4" x1="0.67" y1="301.67" x2="17.89" y2="284.45"/><line class="cls-4" x1="0.67" y1="308.96" x2="17.89" y2="291.76"/><line class="cls-4" x1="0.67" y1="316.27" x2="17.89" y2="299.05"/><line class="cls-4" x1="0.67" y1="323.59" x2="17.89" y2="306.36"/><line class="cls-4" x1="5.75" y1="325.8" x2="17.89" y2="313.68"/><line class="cls-4" x1="13.06" y1="325.8" x2="17.89" y2="320.97"/><line class="cls-4" x1="0.67" y1="246.87" x2="3.2" y2="244.34"/><line class="cls-4" x1="4.11" y1="243.43" x2="4.11" y2="243.43"/><line class="cls-4" x1="5.02" y1="242.52" x2="7.78" y2="239.78"/><line class="cls-4" x1="0.67" y1="254.18" x2="2.29" y2="252.56"/><line class="cls-4" x1="3.2" y1="251.65" x2="3.2" y2="251.65"/><line class="cls-4" x1="4.11" y1="250.74" x2="6.87" y2="248.01"/><line class="cls-4" x1="7.78" y1="247.09" x2="7.78" y2="247.09"/><line class="cls-4" x1="8.69" y1="246.16" x2="11.42" y2="243.43"/><line class="cls-4" x1="12.33" y1="242.52" x2="12.33" y2="242.52"/><line class="cls-4" x1="13.25" y1="241.6" x2="15.14" y2="239.71"/><line class="cls-4" x1="0.67" y1="261.49" x2="1.38" y2="260.78"/><line class="cls-4" x1="2.29" y1="259.87" x2="2.29" y2="259.87"/><line class="cls-4" x1="3.2" y1="258.96" x2="5.96" y2="256.21"/><line class="cls-4" x1="6.87" y1="255.29" x2="6.87" y2="255.29"/><line class="cls-4" x1="7.78" y1="254.38" x2="10.51" y2="251.65"/><line class="cls-4" x1="11.42" y1="250.74" x2="11.42" y2="250.74"/><line class="cls-4" x1="12.33" y1="249.83" x2="15.07" y2="247.09"/><line class="cls-4" x1="15.98" y1="246.16" x2="15.98" y2="246.16"/><line class="cls-4" x1="16.91" y1="245.25" x2="17.89" y2="244.27"/><line class="cls-4" x1="1.38" y1="268.1" x2="1.38" y2="268.1"/><line class="cls-4" x1="2.29" y1="267.16" x2="5.02" y2="264.43"/><line class="cls-4" x1="5.96" y1="263.52" x2="5.96" y2="263.52"/><line class="cls-4" x1="6.87" y1="262.61" x2="9.6" y2="259.87"/><line class="cls-4" x1="10.51" y1="258.96" x2="10.51" y2="258.96"/><line class="cls-4" x1="11.42" y1="258.05" x2="14.16" y2="255.29"/><line class="cls-4" x1="15.07" y1="254.38" x2="15.07" y2="254.38"/><line class="cls-4" x1="15.98" y1="253.47" x2="17.89" y2="251.58"/><line class="cls-4" x1="1.38" y1="275.39" x2="4.11" y2="272.65"/><line class="cls-4" x1="5.02" y1="271.74" x2="5.02" y2="271.74"/><line class="cls-4" x1="5.96" y1="270.83" x2="8.69" y2="268.1"/><line class="cls-4" x1="9.6" y1="267.16" x2="9.6" y2="267.16"/><line class="cls-4" x1="10.51" y1="266.25" x2="13.25" y2="263.52"/><line class="cls-4" x1="14.16" y1="262.61" x2="14.16" y2="262.61"/><line class="cls-4" x1="15.07" y1="261.7" x2="17.82" y2="258.96"/><line class="cls-4" x1="0.67" y1="283.4" x2="3.2" y2="280.88"/><line class="cls-4" x1="4.11" y1="279.96" x2="4.11" y2="279.96"/><line class="cls-4" x1="5.02" y1="279.05" x2="7.78" y2="276.3"/><line class="cls-4" x1="8.69" y1="275.39" x2="8.69" y2="275.39"/><line class="cls-4" x1="9.6" y1="274.47" x2="12.33" y2="271.74"/><line class="cls-4" x1="13.25" y1="270.83" x2="13.25" y2="270.83"/><line class="cls-4" x1="14.16" y1="269.92" x2="16.91" y2="267.16"/><line class="cls-4" x1="17.82" y1="266.25" x2="17.82" y2="266.25"/><line class="cls-4" x1="0.67" y1="290.72" x2="2.29" y2="289.1"/><line class="cls-4" x1="3.2" y1="288.16" x2="3.2" y2="288.16"/><line class="cls-4" x1="4.11" y1="287.25" x2="6.87" y2="284.52"/><line class="cls-4" x1="7.78" y1="283.61" x2="7.78" y2="283.61"/><line class="cls-4" x1="8.69" y1="282.7" x2="11.42" y2="279.96"/><line class="cls-4" x1="12.33" y1="279.05" x2="12.33" y2="279.05"/><line class="cls-4" x1="13.25" y1="278.12" x2="15.98" y2="275.39"/><line class="cls-4" x1="16.91" y1="274.47" x2="16.91" y2="274.47"/><line class="cls-4" x1="17.82" y1="273.56" x2="17.89" y2="273.49"/><line class="cls-4" x1="0.67" y1="298" x2="1.38" y2="297.3"/><line class="cls-4" x1="2.29" y1="296.39" x2="2.29" y2="296.39"/><line class="cls-4" x1="3.2" y1="295.48" x2="5.96" y2="292.74"/><line class="cls-4" x1="6.87" y1="291.83" x2="6.87" y2="291.83"/><line class="cls-4" x1="7.78" y1="290.92" x2="10.51" y2="288.16"/><line class="cls-4" x1="11.42" y1="287.25" x2="11.42" y2="287.25"/><line class="cls-4" x1="12.33" y1="286.34" x2="15.07" y2="283.61"/><line class="cls-4" x1="15.98" y1="282.7" x2="15.98" y2="282.7"/><line class="cls-4" x1="16.91" y1="281.79" x2="17.89" y2="280.81"/><line class="cls-4" x1="1.38" y1="304.61" x2="1.38" y2="304.61"/><line class="cls-4" x1="2.29" y1="303.7" x2="5.02" y2="300.97"/><line class="cls-4" x1="5.96" y1="300.05" x2="5.96" y2="300.05"/><line class="cls-4" x1="6.87" y1="299.14" x2="9.6" y2="296.39"/><line class="cls-4" x1="10.51" y1="295.48" x2="10.51" y2="295.48"/><line class="cls-4" x1="11.42" y1="294.57" x2="14.16" y2="291.83"/><line class="cls-4" x1="15.07" y1="290.92" x2="15.07" y2="290.92"/><line class="cls-4" x1="15.98" y1="290.01" x2="17.89" y2="288.1"/><line class="cls-4" x1="1.38" y1="311.92" x2="4.11" y2="309.17"/><line class="cls-4" x1="5.02" y1="308.26" x2="5.02" y2="308.26"/><line class="cls-4" x1="5.96" y1="307.34" x2="8.69" y2="304.61"/><line class="cls-4" x1="9.6" y1="303.7" x2="9.6" y2="303.7"/><line class="cls-4" x1="10.51" y1="302.79" x2="13.25" y2="300.05"/><line class="cls-4" x1="14.16" y1="299.14" x2="14.16" y2="299.14"/><line class="cls-4" x1="15.07" y1="298.21" x2="17.82" y2="295.48"/><line class="cls-4" x1="0.67" y1="319.94" x2="3.2" y2="317.39"/><line class="cls-4" x1="4.11" y1="316.48" x2="4.11" y2="316.48"/><line class="cls-4" x1="5.02" y1="315.57" x2="7.78" y2="312.83"/><line class="cls-4" x1="8.69" y1="311.92" x2="8.69" y2="311.92"/><line class="cls-4" x1="9.6" y1="311.01" x2="12.33" y2="308.26"/><line class="cls-4" x1="13.25" y1="307.34" x2="13.25" y2="307.34"/><line class="cls-4" x1="14.16" y1="306.43" x2="16.91" y2="303.7"/><line class="cls-4" x1="17.82" y1="302.79" x2="17.82" y2="302.79"/><line class="cls-4" x1="2.11" y1="325.8" x2="2.29" y2="325.61"/><line class="cls-4" x1="3.2" y1="324.7" x2="3.2" y2="324.7"/><line class="cls-4" x1="4.11" y1="323.79" x2="6.87" y2="321.06"/><line class="cls-4" x1="7.78" y1="320.15" x2="7.78" y2="320.15"/><line class="cls-4" x1="8.69" y1="319.21" x2="11.42" y2="316.48"/><line class="cls-4" x1="12.33" y1="315.57" x2="12.33" y2="315.57"/><line class="cls-4" x1="13.25" y1="314.66" x2="15.98" y2="311.92"/><line class="cls-4" x1="16.91" y1="311.01" x2="16.91" y2="311.01"/><line class="cls-4" x1="17.82" y1="310.1" x2="17.89" y2="310.01"/><line class="cls-4" x1="9.4" y1="325.8" x2="10.51" y2="324.7"/><line class="cls-4" x1="11.42" y1="323.79" x2="11.42" y2="323.79"/><line class="cls-4" x1="12.33" y1="322.88" x2="15.07" y2="320.15"/><line class="cls-4" x1="15.98" y1="319.21" x2="15.98" y2="319.21"/><line class="cls-4" x1="16.91" y1="318.3" x2="17.89" y2="317.32"/><line class="cls-4" x1="16.71" y1="325.8" x2="17.89" y2="324.63"/><polyline class="cls-4" points="17.89 325.8 0.67 325.8 0.67 239.71 17.89 239.71 17.89 325.8"/><line class="cls-4" x1="276.18" y1="530.24" x2="282.58" y2="523.81"/><line class="cls-4" x1="276.18" y1="537.55" x2="289.9" y2="523.81"/><line class="cls-4" x1="276.18" y1="544.84" x2="293.38" y2="527.62"/><line class="cls-4" x1="276.18" y1="552.15" x2="293.38" y2="534.93"/><line class="cls-4" x1="276.18" y1="559.46" x2="293.38" y2="542.24"/><line class="cls-4" x1="276.18" y1="566.75" x2="293.38" y2="549.55"/><line class="cls-4" x1="276.18" y1="574.06" x2="293.38" y2="556.84"/><line class="cls-4" x1="276.18" y1="581.38" x2="293.38" y2="564.15"/><line class="cls-4" x1="276.18" y1="588.69" x2="293.38" y2="571.47"/><line class="cls-4" x1="276.18" y1="595.98" x2="293.38" y2="578.76"/><line class="cls-4" x1="276.18" y1="603.29" x2="293.38" y2="586.07"/><line class="cls-4" x1="276.84" y1="609.92" x2="293.38" y2="593.38"/><line class="cls-4" x1="284.16" y1="609.92" x2="293.38" y2="600.67"/><line class="cls-4" x1="291.47" y1="609.92" x2="293.38" y2="607.98"/><line class="cls-4" x1="276.18" y1="526.59" x2="276.25" y2="526.5"/><line class="cls-4" x1="277.16" y1="525.59" x2="277.16" y2="525.59"/><line class="cls-4" x1="278.07" y1="524.68" x2="278.94" y2="523.81"/><line class="cls-4" x1="276.25" y1="533.81" x2="276.25" y2="533.81"/><line class="cls-4" x1="277.16" y1="532.9" x2="279.9" y2="530.17"/><line class="cls-4" x1="280.81" y1="529.26" x2="280.81" y2="529.26"/><line class="cls-4" x1="281.72" y1="528.35" x2="284.45" y2="525.59"/><line class="cls-4" x1="285.36" y1="524.68" x2="285.36" y2="524.68"/><line class="cls-4" x1="276.25" y1="541.12" x2="278.98" y2="538.39"/><line class="cls-4" x1="279.9" y1="537.48" x2="279.9" y2="537.48"/><line class="cls-4" x1="280.81" y1="536.55" x2="283.54" y2="533.81"/><line class="cls-4" x1="284.45" y1="532.9" x2="284.45" y2="532.9"/><line class="cls-4" x1="285.36" y1="531.99" x2="288.12" y2="529.26"/><line class="cls-4" x1="289.03" y1="528.35" x2="289.03" y2="528.35"/><line class="cls-4" x1="289.94" y1="527.43" x2="292.67" y2="524.68"/><line class="cls-4" x1="276.18" y1="548.51" x2="278.07" y2="546.59"/><line class="cls-4" x1="278.98" y1="545.68" x2="278.98" y2="545.68"/><line class="cls-4" x1="279.9" y1="544.77" x2="282.63" y2="542.04"/><line class="cls-4" x1="283.54" y1="541.12" x2="283.54" y2="541.12"/><line class="cls-4" x1="284.45" y1="540.21" x2="287.21" y2="537.48"/><line class="cls-4" x1="288.12" y1="536.55" x2="288.12" y2="536.55"/><line class="cls-4" x1="289.03" y1="535.64" x2="291.76" y2="532.9"/><line class="cls-4" x1="292.67" y1="531.99" x2="292.67" y2="531.99"/><line class="cls-4" x1="276.18" y1="555.79" x2="277.16" y2="554.81"/><line class="cls-4" x1="278.07" y1="553.9" x2="278.07" y2="553.9"/><line class="cls-4" x1="278.98" y1="552.99" x2="281.72" y2="550.26"/><line class="cls-4" x1="282.63" y1="549.35" x2="282.63" y2="549.35"/><line class="cls-4" x1="283.54" y1="548.44" x2="286.3" y2="545.68"/><line class="cls-4" x1="287.21" y1="544.77" x2="287.21" y2="544.77"/><line class="cls-4" x1="288.12" y1="543.86" x2="290.85" y2="541.12"/><line class="cls-4" x1="291.76" y1="540.21" x2="291.76" y2="540.21"/><line class="cls-4" x1="292.67" y1="539.3" x2="293.38" y2="538.57"/><line class="cls-4" x1="276.18" y1="563.11" x2="276.25" y2="563.04"/><line class="cls-4" x1="277.16" y1="562.13" x2="277.16" y2="562.13"/><line class="cls-4" x1="278.07" y1="561.22" x2="280.81" y2="558.48"/><line class="cls-4" x1="281.72" y1="557.55" x2="281.72" y2="557.55"/><line class="cls-4" x1="282.63" y1="556.64" x2="285.36" y2="553.9"/><line class="cls-4" x1="286.3" y1="552.99" x2="286.3" y2="552.99"/><line class="cls-4" x1="287.21" y1="552.08" x2="289.94" y2="549.35"/><line class="cls-4" x1="290.85" y1="548.44" x2="290.85" y2="548.44"/><line class="cls-4" x1="291.76" y1="547.53" x2="293.38" y2="545.89"/><line class="cls-4" x1="276.25" y1="570.35" x2="276.25" y2="570.35"/><line class="cls-4" x1="277.16" y1="569.44" x2="279.9" y2="566.68"/><line class="cls-4" x1="280.81" y1="565.77" x2="280.81" y2="565.77"/><line class="cls-4" x1="281.72" y1="564.86" x2="284.45" y2="562.13"/><line class="cls-4" x1="285.36" y1="561.22" x2="285.36" y2="561.22"/><line class="cls-4" x1="286.3" y1="560.3" x2="289.03" y2="557.55"/><line class="cls-4" x1="289.94" y1="556.64" x2="289.94" y2="556.64"/><line class="cls-4" x1="290.85" y1="555.73" x2="293.38" y2="553.2"/><line class="cls-4" x1="276.25" y1="577.64" x2="278.98" y2="574.91"/><line class="cls-4" x1="279.9" y1="573.99" x2="279.9" y2="573.99"/><line class="cls-4" x1="280.81" y1="573.08" x2="283.54" y2="570.35"/><line class="cls-4" x1="284.45" y1="569.44" x2="284.45" y2="569.44"/><line class="cls-4" x1="285.36" y1="568.53" x2="288.12" y2="565.77"/><line class="cls-4" x1="289.03" y1="564.86" x2="289.03" y2="564.86"/><line class="cls-4" x1="289.94" y1="563.95" x2="292.67" y2="561.22"/><line class="cls-4" x1="276.18" y1="585.02" x2="278.07" y2="583.13"/><line class="cls-4" x1="278.98" y1="582.22" x2="278.98" y2="582.22"/><line class="cls-4" x1="279.9" y1="581.31" x2="282.63" y2="578.57"/><line class="cls-4" x1="283.54" y1="577.64" x2="283.54" y2="577.64"/><line class="cls-4" x1="284.45" y1="576.73" x2="287.21" y2="573.99"/><line class="cls-4" x1="288.12" y1="573.08" x2="288.12" y2="573.08"/><line class="cls-4" x1="289.03" y1="572.17" x2="291.76" y2="569.44"/><line class="cls-4" x1="292.67" y1="568.53" x2="292.67" y2="568.53"/><line class="cls-4" x1="276.18" y1="592.33" x2="277.16" y2="591.35"/><line class="cls-4" x1="278.07" y1="590.44" x2="278.07" y2="590.44"/><line class="cls-4" x1="278.98" y1="589.53" x2="281.72" y2="586.77"/><line class="cls-4" x1="282.63" y1="585.86" x2="282.63" y2="585.86"/><line class="cls-4" x1="283.54" y1="584.95" x2="286.3" y2="582.22"/><line class="cls-4" x1="287.21" y1="581.31" x2="287.21" y2="581.31"/><line class="cls-4" x1="288.12" y1="580.4" x2="290.85" y2="577.64"/><line class="cls-4" x1="291.76" y1="576.73" x2="291.76" y2="576.73"/><line class="cls-4" x1="292.67" y1="575.82" x2="293.38" y2="575.11"/><line class="cls-4" x1="276.18" y1="599.64" x2="276.25" y2="599.58"/><line class="cls-4" x1="277.16" y1="598.64" x2="277.16" y2="598.64"/><line class="cls-4" x1="278.07" y1="597.73" x2="280.81" y2="595"/><line class="cls-4" x1="281.72" y1="594.09" x2="281.72" y2="594.09"/><line class="cls-4" x1="282.63" y1="593.17" x2="285.36" y2="590.44"/><line class="cls-4" x1="286.3" y1="589.53" x2="286.3" y2="589.53"/><line class="cls-4" x1="287.21" y1="588.6" x2="289.94" y2="585.86"/><line class="cls-4" x1="290.85" y1="584.95" x2="290.85" y2="584.95"/><line class="cls-4" x1="291.76" y1="584.04" x2="293.38" y2="582.42"/><line class="cls-4" x1="276.25" y1="606.86" x2="276.25" y2="606.86"/><line class="cls-4" x1="277.16" y1="605.95" x2="279.9" y2="603.22"/><line class="cls-4" x1="280.81" y1="602.31" x2="280.81" y2="602.31"/><line class="cls-4" x1="281.72" y1="601.4" x2="284.45" y2="598.64"/><line class="cls-4" x1="285.36" y1="597.73" x2="285.36" y2="597.73"/><line class="cls-4" x1="286.3" y1="596.82" x2="289.03" y2="594.09"/><line class="cls-4" x1="289.94" y1="593.17" x2="289.94" y2="593.17"/><line class="cls-4" x1="290.85" y1="592.26" x2="293.38" y2="589.71"/><line class="cls-4" x1="280.81" y1="609.62" x2="283.54" y2="606.86"/><line class="cls-4" x1="284.45" y1="605.95" x2="284.45" y2="605.95"/><line class="cls-4" x1="285.36" y1="605.04" x2="288.12" y2="602.31"/><line class="cls-4" x1="289.03" y1="601.4" x2="289.03" y2="601.4"/><line class="cls-4" x1="289.94" y1="600.49" x2="292.67" y2="597.73"/><line class="cls-4" x1="288.12" y1="609.62" x2="288.12" y2="609.62"/><line class="cls-4" x1="289.03" y1="608.69" x2="291.76" y2="605.95"/><line class="cls-4" x1="292.67" y1="605.04" x2="292.67" y2="605.04"/><polyline class="cls-4" points="293.38 609.92 276.18 609.92 276.18 523.81 293.38 523.81 293.38 609.92"/><line class="cls-4" x1="276.18" y1="245.32" x2="281.79" y2="239.71"/><line class="cls-4" x1="276.18" y1="252.63" x2="289.1" y2="239.71"/><line class="cls-4" x1="276.18" y1="259.94" x2="293.38" y2="242.72"/><line class="cls-4" x1="276.18" y1="267.25" x2="293.38" y2="250.03"/><line class="cls-4" x1="276.18" y1="274.54" x2="293.38" y2="257.32"/><line class="cls-4" x1="276.18" y1="281.85" x2="293.38" y2="264.63"/><line class="cls-4" x1="276.18" y1="289.17" x2="293.38" y2="271.95"/><line class="cls-4" x1="276.18" y1="296.46" x2="293.38" y2="279.24"/><line class="cls-4" x1="276.18" y1="303.77" x2="293.38" y2="286.55"/><line class="cls-4" x1="276.18" y1="311.08" x2="293.38" y2="293.86"/><line class="cls-4" x1="276.18" y1="318.37" x2="293.38" y2="301.17"/><line class="cls-4" x1="276.18" y1="325.68" x2="293.38" y2="308.46"/><line class="cls-4" x1="283.36" y1="325.8" x2="293.38" y2="315.77"/><line class="cls-4" x1="290.67" y1="325.8" x2="293.38" y2="323.08"/><line class="cls-4" x1="276.25" y1="241.6" x2="276.25" y2="241.6"/><line class="cls-4" x1="277.16" y1="240.69" x2="278.14" y2="239.71"/><line class="cls-4" x1="276.25" y1="248.92" x2="278.98" y2="246.16"/><line class="cls-4" x1="279.9" y1="245.25" x2="279.9" y2="245.25"/><line class="cls-4" x1="280.81" y1="244.34" x2="283.54" y2="241.6"/><line class="cls-4" x1="284.45" y1="240.69" x2="284.45" y2="240.69"/><line class="cls-4" x1="285.36" y1="239.78" x2="285.43" y2="239.71"/><line class="cls-4" x1="276.18" y1="256.27" x2="278.07" y2="254.38"/><line class="cls-4" x1="278.98" y1="253.47" x2="278.98" y2="253.47"/><line class="cls-4" x1="279.9" y1="252.56" x2="282.63" y2="249.83"/><line class="cls-4" x1="283.54" y1="248.92" x2="283.54" y2="248.92"/><line class="cls-4" x1="284.45" y1="248.01" x2="287.21" y2="245.25"/><line class="cls-4" x1="288.12" y1="244.34" x2="288.12" y2="244.34"/><line class="cls-4" x1="289.03" y1="243.43" x2="291.76" y2="240.69"/><line class="cls-4" x1="292.67" y1="239.78" x2="292.67" y2="239.78"/><line class="cls-4" x1="276.18" y1="263.59" x2="277.16" y2="262.61"/><line class="cls-4" x1="278.07" y1="261.7" x2="278.07" y2="261.7"/><line class="cls-4" x1="278.98" y1="260.78" x2="281.72" y2="258.05"/><line class="cls-4" x1="282.63" y1="257.12" x2="282.63" y2="257.12"/><line class="cls-4" x1="283.54" y1="256.21" x2="286.3" y2="253.47"/><line class="cls-4" x1="287.21" y1="252.56" x2="287.21" y2="252.56"/><line class="cls-4" x1="288.12" y1="251.65" x2="290.85" y2="248.92"/><line class="cls-4" x1="291.76" y1="248.01" x2="291.76" y2="248.01"/><line class="cls-4" x1="292.67" y1="247.09" x2="293.38" y2="246.36"/><line class="cls-4" x1="276.18" y1="270.9" x2="276.25" y2="270.83"/><line class="cls-4" x1="277.16" y1="269.92" x2="277.16" y2="269.92"/><line class="cls-4" x1="278.07" y1="269.01" x2="280.81" y2="266.25"/><line class="cls-4" x1="281.72" y1="265.34" x2="281.72" y2="265.34"/><line class="cls-4" x1="282.63" y1="264.43" x2="285.36" y2="261.7"/><line class="cls-4" x1="286.3" y1="260.78" x2="286.3" y2="260.78"/><line class="cls-4" x1="287.21" y1="259.87" x2="289.94" y2="257.12"/><line class="cls-4" x1="290.85" y1="256.21" x2="290.85" y2="256.21"/><line class="cls-4" x1="291.76" y1="255.29" x2="293.38" y2="253.68"/><line class="cls-4" x1="276.25" y1="278.12" x2="276.25" y2="278.12"/><line class="cls-4" x1="277.16" y1="277.21" x2="279.9" y2="274.47"/><line class="cls-4" x1="280.81" y1="273.56" x2="280.81" y2="273.56"/><line class="cls-4" x1="281.72" y1="272.65" x2="284.45" y2="269.92"/><line class="cls-4" x1="285.36" y1="269.01" x2="285.36" y2="269.01"/><line class="cls-4" x1="286.3" y1="268.1" x2="289.03" y2="265.34"/><line class="cls-4" x1="289.94" y1="264.43" x2="289.94" y2="264.43"/><line class="cls-4" x1="290.85" y1="263.52" x2="293.38" y2="260.99"/><line class="cls-4" x1="276.25" y1="285.43" x2="278.98" y2="282.7"/><line class="cls-4" x1="279.9" y1="281.79" x2="279.9" y2="281.79"/><line class="cls-4" x1="280.81" y1="280.88" x2="283.54" y2="278.12"/><line class="cls-4" x1="284.45" y1="277.21" x2="284.45" y2="277.21"/><line class="cls-4" x1="285.36" y1="276.3" x2="288.12" y2="273.56"/><line class="cls-4" x1="289.03" y1="272.65" x2="289.03" y2="272.65"/><line class="cls-4" x1="289.94" y1="271.74" x2="292.67" y2="269.01"/><line class="cls-4" x1="276.18" y1="292.81" x2="278.07" y2="290.92"/><line class="cls-4" x1="278.98" y1="290.01" x2="278.98" y2="290.01"/><line class="cls-4" x1="279.9" y1="289.1" x2="282.63" y2="286.34"/><line class="cls-4" x1="283.54" y1="285.43" x2="283.54" y2="285.43"/><line class="cls-4" x1="284.45" y1="284.52" x2="287.21" y2="281.79"/><line class="cls-4" x1="288.12" y1="280.88" x2="288.12" y2="280.88"/><line class="cls-4" x1="289.03" y1="279.96" x2="291.76" y2="277.21"/><line class="cls-4" x1="292.67" y1="276.3" x2="292.67" y2="276.3"/><line class="cls-4" x1="276.18" y1="300.12" x2="277.16" y2="299.14"/><line class="cls-4" x1="278.07" y1="298.21" x2="278.07" y2="298.21"/><line class="cls-4" x1="278.98" y1="297.3" x2="281.72" y2="294.57"/><line class="cls-4" x1="282.63" y1="293.65" x2="282.63" y2="293.65"/><line class="cls-4" x1="283.54" y1="292.74" x2="286.3" y2="290.01"/><line class="cls-4" x1="287.21" y1="289.1" x2="287.21" y2="289.1"/><line class="cls-4" x1="288.12" y1="288.16" x2="290.85" y2="285.43"/><line class="cls-4" x1="291.76" y1="284.52" x2="291.76" y2="284.52"/><line class="cls-4" x1="292.67" y1="283.61" x2="293.38" y2="282.9"/><line class="cls-4" x1="276.18" y1="307.41" x2="276.25" y2="307.34"/><line class="cls-4" x1="277.16" y1="306.43" x2="277.16" y2="306.43"/><line class="cls-4" x1="278.07" y1="305.52" x2="280.81" y2="302.79"/><line class="cls-4" x1="281.72" y1="301.88" x2="281.72" y2="301.88"/><line class="cls-4" x1="282.63" y1="300.97" x2="285.36" y2="298.21"/><line class="cls-4" x1="286.3" y1="297.3" x2="286.3" y2="297.3"/><line class="cls-4" x1="287.21" y1="296.39" x2="289.94" y2="293.65"/><line class="cls-4" x1="290.85" y1="292.74" x2="290.85" y2="292.74"/><line class="cls-4" x1="291.76" y1="291.83" x2="293.38" y2="290.19"/><line class="cls-4" x1="276.25" y1="314.66" x2="276.25" y2="314.66"/><line class="cls-4" x1="277.16" y1="313.75" x2="279.9" y2="311.01"/><line class="cls-4" x1="280.81" y1="310.1" x2="280.81" y2="310.1"/><line class="cls-4" x1="281.72" y1="309.17" x2="284.45" y2="306.43"/><line class="cls-4" x1="285.36" y1="305.52" x2="285.36" y2="305.52"/><line class="cls-4" x1="286.3" y1="304.61" x2="289.03" y2="301.88"/><line class="cls-4" x1="289.94" y1="300.97" x2="289.94" y2="300.97"/><line class="cls-4" x1="290.85" y1="300.05" x2="293.38" y2="297.5"/><line class="cls-4" x1="276.25" y1="321.97" x2="278.98" y2="319.21"/><line class="cls-4" x1="279.9" y1="318.3" x2="279.9" y2="318.3"/><line class="cls-4" x1="280.81" y1="317.39" x2="283.54" y2="314.66"/><line class="cls-4" x1="284.45" y1="313.75" x2="284.45" y2="313.75"/><line class="cls-4" x1="285.36" y1="312.83" x2="288.12" y2="310.1"/><line class="cls-4" x1="289.03" y1="309.17" x2="289.03" y2="309.17"/><line class="cls-4" x1="289.94" y1="308.26" x2="292.67" y2="305.52"/><line class="cls-4" x1="279.9" y1="325.61" x2="282.63" y2="322.88"/><line class="cls-4" x1="283.54" y1="321.97" x2="283.54" y2="321.97"/><line class="cls-4" x1="284.45" y1="321.06" x2="287.21" y2="318.3"/><line class="cls-4" x1="288.12" y1="317.39" x2="288.12" y2="317.39"/><line class="cls-4" x1="289.03" y1="316.48" x2="291.76" y2="313.75"/><line class="cls-4" x1="292.67" y1="312.83" x2="292.67" y2="312.83"/><line class="cls-4" x1="287.21" y1="325.61" x2="287.21" y2="325.61"/><line class="cls-4" x1="288.12" y1="324.7" x2="290.85" y2="321.97"/><line class="cls-4" x1="291.76" y1="321.06" x2="291.76" y2="321.06"/><line class="cls-4" x1="292.67" y1="320.15" x2="293.38" y2="319.42"/><polyline class="cls-4" points="293.38 325.8 276.18 325.8 276.18 239.71 293.38 239.71 293.38 325.8"/><line class="cls-4" x1="0.67" y1="2.15" x2="2.45" y2="0.38"/><line class="cls-4" x1="0.67" y1="9.46" x2="9.76" y2="0.38"/><line class="cls-4" x1="0.67" y1="16.75" x2="17.07" y2="0.38"/><line class="cls-4" x1="0.67" y1="24.07" x2="17.89" y2="6.84"/><line class="cls-4" x1="0.67" y1="31.38" x2="17.89" y2="14.16"/><line class="cls-4" x1="0.67" y1="38.67" x2="17.89" y2="21.45"/><line class="cls-4" x1="0.67" y1="45.98" x2="17.89" y2="28.76"/><line class="cls-4" x1="0.67" y1="53.29" x2="17.89" y2="36.07"/><line class="cls-4" x1="0.67" y1="60.6" x2="17.89" y2="43.38"/><line class="cls-4" x1="0.67" y1="67.89" x2="17.89" y2="50.67"/><line class="cls-4" x1="0.67" y1="75.2" x2="17.89" y2="57.98"/><line class="cls-4" x1="0.67" y1="82.52" x2="17.89" y2="65.3"/><line class="cls-4" x1="4.02" y1="86.46" x2="17.89" y2="72.58"/><line class="cls-4" x1="11.33" y1="86.46" x2="17.89" y2="79.9"/><line class="cls-4" x1="0.67" y1="5.8" x2="1.38" y2="5.09"/><line class="cls-4" x1="2.29" y1="4.18" x2="2.29" y2="4.18"/><line class="cls-4" x1="3.2" y1="3.27" x2="5.96" y2="0.53"/><line class="cls-4" x1="1.38" y1="12.4" x2="1.38" y2="12.4"/><line class="cls-4" x1="2.29" y1="11.49" x2="5.02" y2="8.73"/><line class="cls-4" x1="5.96" y1="7.82" x2="5.96" y2="7.82"/><line class="cls-4" x1="6.87" y1="6.91" x2="9.6" y2="4.18"/><line class="cls-4" x1="10.51" y1="3.27" x2="10.51" y2="3.27"/><line class="cls-4" x1="11.42" y1="2.36" x2="13.4" y2="0.38"/><line class="cls-4" x1="1.38" y1="19.71" x2="4.11" y2="16.96"/><line class="cls-4" x1="5.02" y1="16.05" x2="5.02" y2="16.05"/><line class="cls-4" x1="5.96" y1="15.14" x2="8.69" y2="12.4"/><line class="cls-4" x1="9.6" y1="11.49" x2="9.6" y2="11.49"/><line class="cls-4" x1="10.51" y1="10.58" x2="13.25" y2="7.82"/><line class="cls-4" x1="14.16" y1="6.91" x2="14.16" y2="6.91"/><line class="cls-4" x1="15.07" y1="6" x2="17.82" y2="3.27"/><line class="cls-4" x1="0.67" y1="27.71" x2="3.2" y2="25.18"/><line class="cls-4" x1="4.11" y1="24.27" x2="4.11" y2="24.27"/><line class="cls-4" x1="5.02" y1="23.36" x2="7.78" y2="20.63"/><line class="cls-4" x1="8.69" y1="19.71" x2="8.69" y2="19.71"/><line class="cls-4" x1="9.6" y1="18.78" x2="12.33" y2="16.05"/><line class="cls-4" x1="13.25" y1="15.14" x2="13.25" y2="15.14"/><line class="cls-4" x1="14.16" y1="14.22" x2="16.91" y2="11.49"/><line class="cls-4" x1="17.82" y1="10.58" x2="17.82" y2="10.58"/><line class="cls-4" x1="0.67" y1="35.02" x2="2.29" y2="33.4"/><line class="cls-4" x1="3.2" y1="32.49" x2="3.2" y2="32.49"/><line class="cls-4" x1="4.11" y1="31.58" x2="6.87" y2="28.83"/><line class="cls-4" x1="7.78" y1="27.91" x2="7.78" y2="27.91"/><line class="cls-4" x1="8.69" y1="27" x2="11.42" y2="24.27"/><line class="cls-4" x1="12.33" y1="23.36" x2="12.33" y2="23.36"/><line class="cls-4" x1="13.25" y1="22.45" x2="15.98" y2="19.71"/><line class="cls-4" x1="16.91" y1="18.78" x2="16.91" y2="18.78"/><line class="cls-4" x1="17.82" y1="17.87" x2="17.89" y2="17.8"/><line class="cls-4" x1="0.67" y1="42.33" x2="1.38" y2="41.63"/><line class="cls-4" x1="2.29" y1="40.72" x2="2.29" y2="40.72"/><line class="cls-4" x1="3.2" y1="39.78" x2="5.96" y2="37.05"/><line class="cls-4" x1="6.87" y1="36.14" x2="6.87" y2="36.14"/><line class="cls-4" x1="7.78" y1="35.23" x2="10.51" y2="32.49"/><line class="cls-4" x1="11.42" y1="31.58" x2="11.42" y2="31.58"/><line class="cls-4" x1="12.33" y1="30.67" x2="15.07" y2="27.91"/><line class="cls-4" x1="15.98" y1="27" x2="15.98" y2="27"/><line class="cls-4" x1="16.91" y1="26.09" x2="17.89" y2="25.11"/><line class="cls-4" x1="1.38" y1="48.92" x2="1.38" y2="48.92"/><line class="cls-4" x1="2.29" y1="48.01" x2="5.02" y2="45.27"/><line class="cls-4" x1="5.96" y1="44.36" x2="5.96" y2="44.36"/><line class="cls-4" x1="6.87" y1="43.45" x2="9.6" y2="40.72"/><line class="cls-4" x1="10.51" y1="39.78" x2="10.51" y2="39.78"/><line class="cls-4" x1="11.42" y1="38.87" x2="14.16" y2="36.14"/><line class="cls-4" x1="15.07" y1="35.23" x2="15.07" y2="35.23"/><line class="cls-4" x1="15.98" y1="34.32" x2="17.89" y2="32.42"/><line class="cls-4" x1="1.38" y1="56.23" x2="4.11" y2="53.5"/><line class="cls-4" x1="5.02" y1="52.58" x2="5.02" y2="52.58"/><line class="cls-4" x1="5.96" y1="51.67" x2="8.69" y2="48.92"/><line class="cls-4" x1="9.6" y1="48.01" x2="9.6" y2="48.01"/><line class="cls-4" x1="10.51" y1="47.09" x2="13.25" y2="44.36"/><line class="cls-4" x1="14.16" y1="43.45" x2="14.16" y2="43.45"/><line class="cls-4" x1="15.07" y1="42.54" x2="17.82" y2="39.78"/><line class="cls-4" x1="0.67" y1="64.25" x2="3.2" y2="61.72"/><line class="cls-4" x1="4.11" y1="60.81" x2="4.11" y2="60.81"/><line class="cls-4" x1="5.02" y1="59.87" x2="7.78" y2="57.14"/><line class="cls-4" x1="8.69" y1="56.23" x2="8.69" y2="56.23"/><line class="cls-4" x1="9.6" y1="55.32" x2="12.33" y2="52.58"/><line class="cls-4" x1="13.25" y1="51.67" x2="13.25" y2="51.67"/><line class="cls-4" x1="14.16" y1="50.76" x2="16.91" y2="48.01"/><line class="cls-4" x1="17.82" y1="47.09" x2="17.82" y2="47.09"/><line class="cls-4" x1="0.67" y1="71.56" x2="2.29" y2="69.92"/><line class="cls-4" x1="3.2" y1="69.01" x2="3.2" y2="69.01"/><line class="cls-4" x1="4.11" y1="68.1" x2="6.87" y2="65.36"/><line class="cls-4" x1="7.78" y1="64.45" x2="7.78" y2="64.45"/><line class="cls-4" x1="8.69" y1="63.54" x2="11.42" y2="60.81"/><line class="cls-4" x1="12.33" y1="59.87" x2="12.33" y2="59.87"/><line class="cls-4" x1="13.25" y1="58.96" x2="15.98" y2="56.23"/><line class="cls-4" x1="16.91" y1="55.32" x2="16.91" y2="55.32"/><line class="cls-4" x1="17.82" y1="54.41" x2="17.89" y2="54.34"/><line class="cls-4" x1="0.67" y1="78.85" x2="1.38" y2="78.14"/><line class="cls-4" x1="2.29" y1="77.23" x2="2.29" y2="77.23"/><line class="cls-4" x1="3.2" y1="76.32" x2="5.96" y2="73.59"/><line class="cls-4" x1="6.87" y1="72.68" x2="6.87" y2="72.68"/><line class="cls-4" x1="7.78" y1="71.76" x2="10.51" y2="69.01"/><line class="cls-4" x1="11.42" y1="68.1" x2="11.42" y2="68.1"/><line class="cls-4" x1="12.33" y1="67.19" x2="15.07" y2="64.45"/><line class="cls-4" x1="15.98" y1="63.54" x2="15.98" y2="63.54"/><line class="cls-4" x1="16.91" y1="62.63" x2="17.89" y2="61.63"/><line class="cls-4" x1="1.38" y1="85.45" x2="1.38" y2="85.45"/><line class="cls-4" x1="2.29" y1="84.54" x2="5.02" y2="81.81"/><line class="cls-4" x1="5.96" y1="80.88" x2="5.96" y2="80.88"/><line class="cls-4" x1="6.87" y1="79.96" x2="9.6" y2="77.23"/><line class="cls-4" x1="10.51" y1="76.32" x2="10.51" y2="76.32"/><line class="cls-4" x1="11.42" y1="75.41" x2="14.16" y2="72.68"/><line class="cls-4" x1="15.07" y1="71.76" x2="15.07" y2="71.76"/><line class="cls-4" x1="15.98" y1="70.83" x2="17.89" y2="68.94"/><line class="cls-4" x1="7.66" y1="86.46" x2="8.69" y2="85.45"/><line class="cls-4" x1="9.6" y1="84.54" x2="9.6" y2="84.54"/><line class="cls-4" x1="10.51" y1="83.63" x2="13.25" y2="80.88"/><line class="cls-4" x1="14.16" y1="79.96" x2="14.16" y2="79.96"/><line class="cls-4" x1="15.07" y1="79.05" x2="17.82" y2="76.32"/><line class="cls-4" x1="14.98" y1="86.46" x2="16.91" y2="84.54"/><line class="cls-4" x1="17.82" y1="83.63" x2="17.82" y2="83.63"/><polyline class="cls-4" points="17.89 86.46 0.67 86.46 0.67 0.38 17.89 0.38 17.89 86.46"/><line class="cls-4" x1="276.18" y1="4.25" x2="280.06" y2="0.38"/><line class="cls-4" x1="276.18" y1="11.56" x2="287.37" y2="0.38"/><line class="cls-4" x1="276.18" y1="18.87" x2="293.38" y2="1.65"/><line class="cls-4" x1="276.18" y1="26.16" x2="293.38" y2="8.94"/><line class="cls-4" x1="276.18" y1="33.47" x2="293.38" y2="16.25"/><line class="cls-4" x1="276.18" y1="40.78" x2="293.38" y2="23.56"/><line class="cls-4" x1="276.18" y1="48.07" x2="293.38" y2="30.85"/><line class="cls-4" x1="276.18" y1="55.39" x2="293.38" y2="38.17"/><line class="cls-4" x1="276.18" y1="62.7" x2="293.38" y2="45.48"/><line class="cls-4" x1="276.18" y1="69.99" x2="293.38" y2="52.79"/><line class="cls-4" x1="276.18" y1="77.3" x2="293.38" y2="60.08"/><line class="cls-4" x1="276.18" y1="84.61" x2="293.38" y2="67.39"/><line class="cls-4" x1="281.63" y1="86.46" x2="293.38" y2="74.7"/><line class="cls-4" x1="288.92" y1="86.46" x2="293.38" y2="81.99"/><line class="cls-4" x1="276.18" y1="0.6" x2="276.41" y2="0.38"/><line class="cls-4" x1="276.18" y1="7.89" x2="277.16" y2="6.91"/><line class="cls-4" x1="278.07" y1="6" x2="278.07" y2="6"/><line class="cls-4" x1="278.98" y1="5.09" x2="281.72" y2="2.36"/><line class="cls-4" x1="282.63" y1="1.45" x2="282.63" y2="1.45"/><line class="cls-4" x1="283.54" y1="0.53" x2="283.7" y2="0.38"/><line class="cls-4" x1="276.18" y1="15.2" x2="276.25" y2="15.14"/><line class="cls-4" x1="277.16" y1="14.22" x2="277.16" y2="14.22"/><line class="cls-4" x1="278.07" y1="13.31" x2="280.81" y2="10.58"/><line class="cls-4" x1="281.72" y1="9.67" x2="281.72" y2="9.67"/><line class="cls-4" x1="282.63" y1="8.73" x2="285.36" y2="6"/><line class="cls-4" x1="286.3" y1="5.09" x2="286.3" y2="5.09"/><line class="cls-4" x1="287.21" y1="4.18" x2="289.94" y2="1.45"/><line class="cls-4" x1="290.85" y1="0.53" x2="290.85" y2="0.53"/><line class="cls-4" x1="276.25" y1="22.45" x2="276.25" y2="22.45"/><line class="cls-4" x1="277.16" y1="21.54" x2="279.9" y2="18.78"/><line class="cls-4" x1="280.81" y1="17.87" x2="280.81" y2="17.87"/><line class="cls-4" x1="281.72" y1="16.96" x2="284.45" y2="14.22"/><line class="cls-4" x1="285.36" y1="13.31" x2="285.36" y2="13.31"/><line class="cls-4" x1="286.3" y1="12.4" x2="289.03" y2="9.67"/><line class="cls-4" x1="289.94" y1="8.73" x2="289.94" y2="8.73"/><line class="cls-4" x1="290.85" y1="7.82" x2="293.38" y2="5.3"/><line class="cls-4" x1="276.25" y1="29.76" x2="278.98" y2="27"/><line class="cls-4" x1="279.9" y1="26.09" x2="279.9" y2="26.09"/><line class="cls-4" x1="280.81" y1="25.18" x2="283.54" y2="22.45"/><line class="cls-4" x1="284.45" y1="21.54" x2="284.45" y2="21.54"/><line class="cls-4" x1="285.36" y1="20.63" x2="288.12" y2="17.87"/><line class="cls-4" x1="289.03" y1="16.96" x2="289.03" y2="16.96"/><line class="cls-4" x1="289.94" y1="16.05" x2="292.67" y2="13.31"/><line class="cls-4" x1="276.18" y1="37.12" x2="278.07" y2="35.23"/><line class="cls-4" x1="278.98" y1="34.32" x2="278.98" y2="34.32"/><line class="cls-4" x1="279.9" y1="33.4" x2="282.63" y2="30.67"/><line class="cls-4" x1="283.54" y1="29.76" x2="283.54" y2="29.76"/><line class="cls-4" x1="284.45" y1="28.83" x2="287.21" y2="26.09"/><line class="cls-4" x1="288.12" y1="25.18" x2="288.12" y2="25.18"/><line class="cls-4" x1="289.03" y1="24.27" x2="291.76" y2="21.54"/><line class="cls-4" x1="292.67" y1="20.63" x2="292.67" y2="20.63"/><line class="cls-4" x1="276.18" y1="44.43" x2="277.16" y2="43.45"/><line class="cls-4" x1="278.07" y1="42.54" x2="278.07" y2="42.54"/><line class="cls-4" x1="278.98" y1="41.63" x2="281.72" y2="38.87"/><line class="cls-4" x1="282.63" y1="37.96" x2="282.63" y2="37.96"/><line class="cls-4" x1="283.54" y1="37.05" x2="286.3" y2="34.32"/><line class="cls-4" x1="287.21" y1="33.4" x2="287.21" y2="33.4"/><line class="cls-4" x1="288.12" y1="32.49" x2="290.85" y2="29.76"/><line class="cls-4" x1="291.76" y1="28.83" x2="291.76" y2="28.83"/><line class="cls-4" x1="292.67" y1="27.91" x2="293.38" y2="27.21"/><line class="cls-4" x1="276.18" y1="51.74" x2="276.25" y2="51.67"/><line class="cls-4" x1="277.16" y1="50.76" x2="277.16" y2="50.76"/><line class="cls-4" x1="278.07" y1="49.83" x2="280.81" y2="47.09"/><line class="cls-4" x1="281.72" y1="46.18" x2="281.72" y2="46.18"/><line class="cls-4" x1="282.63" y1="45.27" x2="285.36" y2="42.54"/><line class="cls-4" x1="286.3" y1="41.63" x2="286.3" y2="41.63"/><line class="cls-4" x1="287.21" y1="40.72" x2="289.94" y2="37.96"/><line class="cls-4" x1="290.85" y1="37.05" x2="290.85" y2="37.05"/><line class="cls-4" x1="291.76" y1="36.14" x2="293.38" y2="34.52"/><line class="cls-4" x1="276.25" y1="58.96" x2="276.25" y2="58.96"/><line class="cls-4" x1="277.16" y1="58.05" x2="279.9" y2="55.32"/><line class="cls-4" x1="280.81" y1="54.41" x2="280.81" y2="54.41"/><line class="cls-4" x1="281.72" y1="53.5" x2="284.45" y2="50.76"/><line class="cls-4" x1="285.36" y1="49.83" x2="285.36" y2="49.83"/><line class="cls-4" x1="286.3" y1="48.92" x2="289.03" y2="46.18"/><line class="cls-4" x1="289.94" y1="45.27" x2="289.94" y2="45.27"/><line class="cls-4" x1="290.85" y1="44.36" x2="293.38" y2="41.81"/><line class="cls-4" x1="276.25" y1="66.27" x2="278.98" y2="63.54"/><line class="cls-4" x1="279.9" y1="62.63" x2="279.9" y2="62.63"/><line class="cls-4" x1="280.81" y1="61.72" x2="283.54" y2="58.96"/><line class="cls-4" x1="284.45" y1="58.05" x2="284.45" y2="58.05"/><line class="cls-4" x1="285.36" y1="57.14" x2="288.12" y2="54.41"/><line class="cls-4" x1="289.03" y1="53.5" x2="289.03" y2="53.5"/><line class="cls-4" x1="289.94" y1="52.58" x2="292.67" y2="49.83"/><line class="cls-4" x1="276.18" y1="73.65" x2="278.07" y2="71.76"/><line class="cls-4" x1="278.98" y1="70.83" x2="278.98" y2="70.83"/><line class="cls-4" x1="279.9" y1="69.92" x2="282.63" y2="67.19"/><line class="cls-4" x1="283.54" y1="66.27" x2="283.54" y2="66.27"/><line class="cls-4" x1="284.45" y1="65.36" x2="287.21" y2="62.63"/><line class="cls-4" x1="288.12" y1="61.72" x2="288.12" y2="61.72"/><line class="cls-4" x1="289.03" y1="60.81" x2="291.76" y2="58.05"/><line class="cls-4" x1="292.67" y1="57.14" x2="292.67" y2="57.14"/><line class="cls-4" x1="276.18" y1="80.97" x2="277.16" y2="79.96"/><line class="cls-4" x1="278.07" y1="79.05" x2="278.07" y2="79.05"/><line class="cls-4" x1="278.98" y1="78.14" x2="281.72" y2="75.41"/><line class="cls-4" x1="282.63" y1="74.5" x2="282.63" y2="74.5"/><line class="cls-4" x1="283.54" y1="73.59" x2="286.3" y2="70.83"/><line class="cls-4" x1="287.21" y1="69.92" x2="287.21" y2="69.92"/><line class="cls-4" x1="288.12" y1="69.01" x2="290.85" y2="66.27"/><line class="cls-4" x1="291.76" y1="65.36" x2="291.76" y2="65.36"/><line class="cls-4" x1="292.67" y1="64.45" x2="293.38" y2="63.75"/><line class="cls-4" x1="278.07" y1="86.37" x2="280.81" y2="83.63"/><line class="cls-4" x1="281.72" y1="82.72" x2="281.72" y2="82.72"/><line class="cls-4" x1="282.63" y1="81.81" x2="285.36" y2="79.05"/><line class="cls-4" x1="286.3" y1="78.14" x2="286.3" y2="78.14"/><line class="cls-4" x1="287.21" y1="77.23" x2="289.94" y2="74.5"/><line class="cls-4" x1="290.85" y1="73.59" x2="290.85" y2="73.59"/><line class="cls-4" x1="291.76" y1="72.68" x2="293.38" y2="71.04"/><line class="cls-4" x1="285.36" y1="86.37" x2="285.36" y2="86.37"/><line class="cls-4" x1="286.3" y1="85.45" x2="289.03" y2="82.72"/><line class="cls-4" x1="289.94" y1="81.81" x2="289.94" y2="81.81"/><line class="cls-4" x1="290.85" y1="80.88" x2="293.38" y2="78.35"/><line class="cls-4" x1="292.58" y1="86.46" x2="292.67" y2="86.37"/><polyline class="cls-4" points="293.38 86.46 276.18 86.46 276.18 0.38 293.38 0.38 293.38 86.46"/><line class="cls-5" x1="17.56" y1="349.67" x2="19.06" y2="349.67"/><line class="cls-6" x1="22.1" y1="349.67" x2="166.4" y2="349.67"/><polyline class="cls-5" points="167.92 349.67 169.42 349.67 169.42 348.17"/><line class="cls-7" x1="169.42" y1="345.13" x2="169.42" y2="249.38"/><line class="cls-5" x1="169.42" y1="247.87" x2="169.42" y2="246.37"/><line class="cls-5" x1="190.05" y1="246.65" x2="191.05" y2="246.65"/><line class="cls-8" x1="193.02" y1="246.65" x2="266.73" y2="246.65"/><line class="cls-5" x1="267.71" y1="246.65" x2="268.71" y2="246.65"/><line class="cls-5" x1="190.05" y1="239.75" x2="191.05" y2="239.75"/><line class="cls-8" x1="193.02" y1="239.75" x2="266.73" y2="239.75"/><line class="cls-5" x1="267.71" y1="239.75" x2="268.71" y2="239.75"/><line class="cls-5" x1="175" y1="157.54" x2="175" y2="156.54"/><line class="cls-9" x1="175" y1="154.52" x2="175" y2="98.94"/><line class="cls-5" x1="175" y1="97.93" x2="175" y2="96.93"/><line class="cls-5" x1="168.1" y1="157.54" x2="168.1" y2="156.54"/><line class="cls-9" x1="168.1" y1="154.52" x2="168.1" y2="98.94"/><line class="cls-5" x1="168.1" y1="97.93" x2="168.1" y2="96.93"/><text class="cls-10" transform="translate(128.26 440.4)">CT</text><text class="cls-10" transform="translate(110.5 477.38)">18.44</text><text class="cls-10" transform="translate(114.44 403.99)">№29</text><polyline class="cls-4" points="98.67 486.73 98.67 377.96 189.37 377.96 189.37 486.73"/><line class="cls-4" x1="98.67" y1="414.29" x2="189.37" y2="414.29"/><line class="cls-4" x1="98.67" y1="486.73" x2="189.37" y2="486.73"/><line class="cls-4" x1="98.67" y1="450.61" x2="189.37" y2="450.61"/><text class="cls-11" transform="translate(121.22 568.99)">9.95</text><text class="cls-11" transform="translate(203.18 136.3)">3.44</text><text class="cls-11" transform="translate(94.57 136.3)">2.94</text></svg>