<svg id="_153" data-name="153" xmlns="http://www.w3.org/2000/svg" viewBox="0 0 606.21 956.34"><defs><style>.cls-1{isolation:isolate;font-size:12px;fill:#969696;}.cls-1,.cls-8,.cls-9{font-family:PTSans-Regular, PT Sans;}.cls-2{letter-spacing:-0.01em;}.cls-10,.cls-11,.cls-3,.cls-4,.cls-5,.cls-6,.cls-7{fill:none;stroke-linecap:round;stroke-linejoin:round;}.cls-3{stroke:#969696;stroke-width:0.75px;}.cls-10,.cls-11,.cls-4,.cls-5,.cls-6,.cls-7{stroke:#000;}.cls-5,.cls-6,.cls-7{stroke-width:0.5px;}.cls-6{stroke-dasharray:2.89 2.89;}.cls-7{stroke-dasharray:3.05 3.05;}.cls-8{font-size:40px;}.cls-9{font-size:36px;}.cls-10{stroke-width:0.25px;stroke-dasharray:1 1;}.cls-11{stroke-width:0.2px;}</style></defs><title>2floor_153flat</title><text class="cls-1" transform="translate(294.96 953.14)"><tspan class="cls-2">у</tspan><tspan x="5.42" y="0">лица</tspan></text><line class="cls-3" x1="284.2" y1="955.96" x2="284.2" y2="947.16"/><polyline class="cls-3" points="280.7 952.46 284.2 955.96 287.7 952.46"/><line class="cls-4" x1="239.97" y1="849.46" x2="364.3" y2="849.46"/><line class="cls-4" x1="0.5" y1="849.46" x2="76.18" y2="849.46"/><line class="cls-4" x1="528.09" y1="849.46" x2="597.96" y2="849.46"/><line class="cls-4" x1="243.85" y1="848.55" x2="360.42" y2="848.55"/><line class="cls-4" x1="0.5" y1="848.55" x2="72.3" y2="848.55"/><line class="cls-4" x1="531.97" y1="848.55" x2="597.96" y2="848.55"/><line class="cls-4" x1="360.42" y1="842.73" x2="360.42" y2="809.99"/><line class="cls-4" x1="364.3" y1="860.99" x2="364.3" y2="849.46"/><line class="cls-4" x1="360.42" y1="848.55" x2="360.42" y2="842.73"/><line class="cls-4" x1="531.97" y1="842.73" x2="531.97" y2="809.99"/><line class="cls-4" x1="528.09" y1="860.99" x2="528.09" y2="849.46"/><line class="cls-4" x1="531.97" y1="848.55" x2="531.97" y2="842.73"/><line class="cls-4" x1="72.3" y1="842.73" x2="72.3" y2="809.99"/><line class="cls-4" x1="76.18" y1="860.99" x2="76.18" y2="849.46"/><line class="cls-4" x1="72.3" y1="848.55" x2="72.3" y2="842.73"/><line class="cls-4" x1="243.85" y1="842.73" x2="243.85" y2="809.99"/><line class="cls-4" x1="239.97" y1="860.99" x2="239.97" y2="849.46"/><line class="cls-4" x1="243.85" y1="848.55" x2="243.85" y2="842.73"/><polyline class="cls-4" points="76.18 860.99 0.5 860.99 0.5 826.36"/><line class="cls-4" x1="239.97" y1="860.99" x2="364.3" y2="860.99"/><line class="cls-4" x1="528.09" y1="860.99" x2="597.96" y2="860.99"/><line class="cls-4" x1="590.31" y1="809.99" x2="531.97" y2="809.99"/><line class="cls-4" x1="360.42" y1="809.99" x2="308.82" y2="809.99"/><line class="cls-4" x1="289.64" y1="809.99" x2="243.85" y2="809.99"/><line class="cls-4" x1="72.3" y1="809.99" x2="19.78" y2="809.99"/><line class="cls-4" x1="0.5" y1="809.99" x2="0.5" y2="809.99"/><line class="cls-4" x1="528.09" y1="860.99" x2="364.3" y2="860.99"/><line class="cls-4" x1="531.97" y1="809.99" x2="360.42" y2="809.99"/><polyline class="cls-4" points="531.97 842.73 526.67 842.73 526.67 846.61 524.22 846.61 524.22 848.55 531.97 848.55"/><polyline class="cls-4" points="446.2 848.55 450.07 848.55 450.07 846.61 447.62 846.61 447.62 842.73 446.2 842.73"/><line class="cls-4" x1="450.07" y1="848.55" x2="524.22" y2="848.55"/><polyline class="cls-4" points="526.67 840.79 520.85 840.79 453.44 840.79"/><polyline class="cls-4" points="520.85 840.79 520.85 846.61 526.67 846.61 526.67 840.79"/><polyline class="cls-4" points="447.62 846.61 453.44 846.61 453.44 840.79 447.62 840.79 447.62 846.61"/><line class="cls-4" x1="453.44" y1="846.61" x2="520.85" y2="846.61"/><line class="cls-4" x1="520.85" y1="840.79" x2="453.44" y2="840.79"/><line class="cls-4" x1="520.85" y1="843.65" x2="453.44" y2="843.65"/><polyline class="cls-4" points="446.2 842.73 444.77 842.73 444.77 846.61 442.32 846.61 442.32 848.55 446.2 848.55"/><polyline class="cls-4" points="360.42 848.55 368.17 848.55 368.17 846.61 365.73 846.61 365.73 842.73 360.42 842.73"/><line class="cls-4" x1="368.17" y1="848.55" x2="442.32" y2="848.55"/><polyline class="cls-4" points="444.77 840.79 438.95 840.79 371.54 840.79"/><polyline class="cls-4" points="438.95 840.79 438.95 846.61 444.77 846.61 444.77 840.79"/><polyline class="cls-4" points="365.73 846.61 371.54 846.61 371.54 840.79 365.73 840.79 365.73 846.61"/><line class="cls-4" x1="371.54" y1="846.61" x2="438.95" y2="846.61"/><line class="cls-4" x1="438.95" y1="840.79" x2="371.54" y2="840.79"/><line class="cls-4" x1="438.95" y1="843.65" x2="371.54" y2="843.65"/><polyline class="cls-4" points="531.97 842.73 531.97 848.55 531.97 842.73"/><polyline class="cls-4" points="531.97 848.55 528.09 848.55 531.97 848.55"/><polyline class="cls-4" points="528.09 860.99 528.09 849.46 528.09 848.55"/><line class="cls-4" x1="531.97" y1="842.73" x2="531.97" y2="809.99"/><polyline class="cls-4" points="360.42 842.73 360.42 848.55 360.42 842.73"/><polyline class="cls-4" points="360.42 848.55 364.3 848.55 360.42 848.55"/><polyline class="cls-4" points="364.3 860.99 364.3 849.46 364.3 848.55"/><line class="cls-4" x1="360.42" y1="842.73" x2="360.42" y2="809.99"/><line class="cls-4" x1="239.97" y1="860.99" x2="76.18" y2="860.99"/><line class="cls-4" x1="243.85" y1="809.99" x2="72.3" y2="809.99"/><polyline class="cls-4" points="243.85 842.73 238.54 842.73 238.54 846.61 236.1 846.61 236.1 848.55 243.85 848.55"/><polyline class="cls-4" points="158.07 848.55 161.95 848.55 161.95 846.61 159.5 846.61 159.5 842.73 158.07 842.73"/><line class="cls-4" x1="161.95" y1="848.55" x2="236.1" y2="848.55"/><polyline class="cls-4" points="238.54 840.79 232.73 840.79 165.32 840.79"/><polyline class="cls-4" points="232.73 840.79 232.73 846.61 238.54 846.61 238.54 840.79"/><polyline class="cls-4" points="159.5 846.61 165.32 846.61 165.32 840.79 159.5 840.79 159.5 846.61"/><line class="cls-4" x1="165.32" y1="846.61" x2="232.73" y2="846.61"/><line class="cls-4" x1="232.73" y1="840.79" x2="165.32" y2="840.79"/><line class="cls-4" x1="232.73" y1="843.65" x2="165.32" y2="843.65"/><polyline class="cls-4" points="158.07 842.73 156.65 842.73 156.65 846.61 154.2 846.61 154.2 848.55 158.07 848.55"/><polyline class="cls-4" points="72.3 848.55 79.95 848.55 79.95 846.61 77.6 846.61 77.6 842.73 72.3 842.73"/><line class="cls-4" x1="79.95" y1="848.55" x2="154.2" y2="848.55"/><polyline class="cls-4" points="156.65 840.79 150.83 840.79 83.32 840.79"/><polyline class="cls-4" points="150.83 840.79 150.83 846.61 156.65 846.61 156.65 840.79"/><polyline class="cls-4" points="77.6 846.61 83.32 846.61 83.32 840.79 77.6 840.79 77.6 846.61"/><line class="cls-4" x1="83.32" y1="846.61" x2="150.83" y2="846.61"/><line class="cls-4" x1="150.83" y1="840.79" x2="83.32" y2="840.79"/><line class="cls-4" x1="150.83" y1="843.65" x2="83.32" y2="843.65"/><polyline class="cls-4" points="243.85 842.73 243.85 848.55 243.85 842.73"/><polyline class="cls-4" points="243.85 848.55 239.97 848.55 243.85 848.55"/><polyline class="cls-4" points="239.97 860.99 239.97 849.46 239.97 848.55"/><line class="cls-4" x1="243.85" y1="842.73" x2="243.85" y2="809.99"/><polyline class="cls-4" points="72.3 842.73 72.3 848.55 72.3 842.73"/><polyline class="cls-4" points="72.3 848.55 76.18 848.55 72.3 848.55"/><polyline class="cls-4" points="76.18 860.99 76.18 849.46 76.18 848.55"/><line class="cls-4" x1="72.3" y1="842.73" x2="72.3" y2="809.99"/><line class="cls-4" x1="597.96" y1="849.46" x2="605.71" y2="849.46"/><line class="cls-4" x1="597.96" y1="848.55" x2="605.71" y2="848.55"/><line class="cls-4" x1="605.71" y1="842.73" x2="605.71" y2="809.99"/><line class="cls-4" x1="605.71" y1="860.99" x2="605.71" y2="849.46"/><line class="cls-4" x1="605.71" y1="848.55" x2="605.71" y2="842.73"/><line class="cls-4" x1="597.96" y1="860.99" x2="605.71" y2="860.99"/><line class="cls-4" x1="605.71" y1="809.99" x2="605.71" y2="809.99"/><line class="cls-4" x1="605.71" y1="860.99" x2="605.71" y2="860.99"/><line class="cls-4" x1="605.71" y1="809.99" x2="605.71" y2="809.99"/><polyline class="cls-4" points="605.71 848.55 605.71 848.55 605.71 846.61 605.71 846.61 605.71 842.73 605.71 842.73"/><line class="cls-4" x1="605.71" y1="848.55" x2="605.71" y2="848.55"/><line class="cls-4" x1="605.71" y1="840.79" x2="605.71" y2="840.79"/><polyline class="cls-4" points="605.71 846.61 605.71 846.61 605.71 840.79 605.71 840.79 605.71 846.61"/><line class="cls-4" x1="605.71" y1="846.61" x2="605.71" y2="846.61"/><line class="cls-4" x1="605.71" y1="840.79" x2="605.71" y2="840.79"/><line class="cls-4" x1="605.71" y1="843.65" x2="605.71" y2="843.65"/><polyline class="cls-4" points="605.71 842.73 605.71 848.55 605.71 842.73"/><polyline class="cls-4" points="605.71 848.55 605.71 848.55 605.71 848.55"/><polyline class="cls-4" points="605.71 860.99 605.71 849.46 605.71 848.55"/><line class="cls-4" x1="605.71" y1="842.73" x2="605.71" y2="809.99"/><line class="cls-4" x1="261.59" y1="19.78" x2="261.59" y2="166.23"/><line class="cls-4" x1="280.87" y1="185.51" x2="280.87" y2="19.78"/><line class="cls-4" x1="0.5" y1="185.51" x2="0.5" y2="414.88"/><line class="cls-4" x1="0.5" y1="511.27" x2="0.5" y2="732.89"/><line class="cls-4" x1="19.78" y1="732.89" x2="19.78" y2="511.27"/><line class="cls-4" x1="19.78" y1="414.88" x2="19.78" y2="185.51"/><polyline class="cls-4" points="19.78 383.98 141.14 383.98 141.14 376.33"/><polyline class="cls-4" points="133.5 376.33 19.78 376.33 19.78 383.98"/><line class="cls-4" x1="308.82" y1="732.89" x2="308.82" y2="511.27"/><line class="cls-4" x1="308.82" y1="414.88" x2="308.82" y2="383.98"/><line class="cls-4" x1="301.17" y1="383.98" x2="301.17" y2="414.88"/><line class="cls-4" x1="301.17" y1="511.27" x2="301.17" y2="732.89"/><polyline class="cls-4" points="580.62 272.2 580.62 276.08 580.62 279.95"/><polyline class="cls-4" points="542.07 272.2 542.07 276.08 542.07 279.95"/><line class="cls-4" x1="590.31" y1="272.2" x2="580.62" y2="272.2"/><line class="cls-4" x1="542.07" y1="272.2" x2="534.42" y2="272.2"/><polyline class="cls-4" points="580.62 279.95 590.31 279.95 590.31 272.2"/><line class="cls-4" x1="542.07" y1="272.2" x2="580.62" y2="272.2"/><line class="cls-4" x1="542.07" y1="279.95" x2="580.62" y2="279.95"/><path class="cls-4" d="M544.27,258.76a38.39,38.39,0,0,0-2.33,13.17" transform="translate(0.23 0.23)"/><line class="cls-4" x1="580.62" y1="272.2" x2="544.41" y2="259.04"/><polyline class="cls-4" points="542.07 279.95 542.07 276.08 542.07 272.2 542.07 276.08"/><polyline class="cls-4" points="580.62 279.95 580.62 276.08 580.62 272.2 580.62 276.08"/><line class="cls-4" x1="419.68" y1="185.51" x2="412.03" y2="185.51"/><line class="cls-4" x1="419.68" y1="262.61" x2="412.03" y2="262.61"/><line class="cls-4" x1="419.68" y1="383.98" x2="419.68" y2="326.15"/><line class="cls-4" x1="419.68" y1="318.5" x2="419.68" y2="262.61"/><polyline class="cls-4" points="419.68 185.51 419.68 19.78 412.03 19.78 412.03 185.51"/><line class="cls-4" x1="412.03" y1="262.61" x2="412.03" y2="376.33"/><line class="cls-4" x1="419.68" y1="262.61" x2="412.03" y2="262.61"/><line class="cls-4" x1="419.68" y1="185.51" x2="412.03" y2="185.51"/><line class="cls-4" x1="590.31" y1="318.5" x2="542.07" y2="318.5"/><line class="cls-4" x1="534.42" y1="318.5" x2="419.68" y2="318.5"/><polyline class="cls-4" points="419.68 326.15 590.31 326.15 590.31 318.5"/><line class="cls-4" x1="542.07" y1="318.5" x2="542.07" y2="279.95"/><polyline class="cls-4" points="534.42 272.2 534.42 279.95 534.42 318.5"/><line class="cls-4" x1="133.49" y1="357.06" x2="141.14" y2="357.06"/><line class="cls-4" x1="133.49" y1="289.54" x2="141.14" y2="289.54"/><line class="cls-4" x1="141.14" y1="376.33" x2="141.14" y2="357.06"/><polyline class="cls-4" points="141.14 289.54 141.14 185.51 133.5 185.51 133.5 289.54"/><line class="cls-4" x1="133.49" y1="357.06" x2="133.49" y2="376.33"/><line class="cls-4" x1="133.49" y1="289.54" x2="141.14" y2="289.54"/><line class="cls-4" x1="133.49" y1="357.06" x2="141.14" y2="357.06"/><polyline class="cls-4" points="29.36 231.71 29.36 227.94 29.36 224.06"/><polyline class="cls-4" points="67.92 231.71 67.92 227.94 67.92 224.06"/><polyline class="cls-4" points="29.36 224.06 19.78 224.06 19.78 231.71 29.36 231.71"/><line class="cls-4" x1="67.92" y1="231.71" x2="75.67" y2="231.71"/><line class="cls-4" x1="67.92" y1="231.71" x2="29.36" y2="231.71"/><line class="cls-4" x1="67.92" y1="224.06" x2="29.36" y2="224.06"/><path class="cls-4" d="M65.37,244.6a38.6,38.6,0,0,0,2.32-13.16" transform="translate(0.23 0.23)"/><line class="cls-4" x1="29.36" y1="231.71" x2="65.57" y2="244.97"/><polyline class="cls-4" points="67.92 224.06 67.92 227.94 67.92 231.71 67.92 227.94"/><polyline class="cls-4" points="29.36 224.06 29.36 227.94 29.36 231.71 29.36 227.94"/><polyline class="cls-4" points="75.67 231.71 75.67 224.06 75.67 185.51 67.92 185.51 67.92 224.06"/><polyline class="cls-4" points="261.59 19.78 261.59 12.03 261.59 0.5"/><line class="cls-4" x1="261.59" y1="19.78" x2="261.59" y2="19.78"/><line class="cls-4" x1="280.87" y1="19.78" x2="292.5" y2="19.78"/><polyline class="cls-4" points="388.88 19.78 590.31 19.78 590.31 0.5 388.88 0.5"/><line class="cls-4" x1="605.71" y1="0.5" x2="261.59" y2="0.5"/><line class="cls-4" x1="261.59" y1="19.78" x2="261.59" y2="19.78"/><line class="cls-4" x1="261.59" y1="19.78" x2="261.59" y2="19.78"/><line class="cls-4" x1="261.59" y1="19.78" x2="261.59" y2="19.78"/><line class="cls-4" x1="261.59" y1="0.5" x2="261.59" y2="0.5"/><line class="cls-4" x1="261.59" y1="0.5" x2="261.59" y2="0.5"/><line class="cls-4" x1="261.59" y1="0.5" x2="261.59" y2="0.5"/><polyline class="cls-4" points="261.59 19.78 261.59 19.78 261.59 12.03 261.59 12.03 261.59 19.78"/><polyline class="cls-4" points="261.59 0.5 261.59 12.03 261.59 19.78 261.59 12.03"/><polyline class="cls-4" points="0.5 166.23 0.5 173.88 0.5 185.51"/><polyline class="cls-4" points="146.04 166.23 146.04 173.88 146.04 185.51"/><polyline class="cls-4" points="242.42 166.23 242.42 173.88 242.42 185.51"/><line class="cls-4" x1="0.5" y1="185.51" x2="0.5" y2="185.51"/><line class="cls-4" x1="19.78" y1="185.51" x2="146.04" y2="185.51"/><polyline class="cls-4" points="280.87 185.51 261.59 185.51 242.42 185.51"/><line class="cls-4" x1="261.59" y1="166.23" x2="242.42" y2="166.23"/><line class="cls-4" x1="146.04" y1="166.23" x2="0.5" y2="166.23"/><line class="cls-4" x1="0.5" y1="166.23" x2="0.5" y2="166.23"/><line class="cls-4" x1="0.5" y1="185.51" x2="0.5" y2="185.51"/><polyline class="cls-4" points="0.5 173.88 0.5 173.88 0.5 166.23 0.5 166.23 0.5 173.88"/><line class="cls-4" x1="0.5" y1="173.88" x2="0.5" y2="262.61"/><polyline class="cls-4" points="0.5 185.51 0.5 173.88 0.5 166.23 0.5 173.88"/><line class="cls-4" x1="242.42" y1="166.23" x2="242.11" y2="166.23"/><line class="cls-4" x1="146.45" y1="166.23" x2="146.45" y2="166.23"/><line class="cls-4" x1="146.35" y1="166.23" x2="146.35" y2="166.23"/><line class="cls-4" x1="146.24" y1="166.23" x2="146.04" y2="166.23"/><line class="cls-4" x1="242.42" y1="185.51" x2="242.11" y2="185.51"/><line class="cls-4" x1="146.45" y1="185.51" x2="146.45" y2="185.51"/><line class="cls-4" x1="146.35" y1="185.51" x2="146.35" y2="185.51"/><line class="cls-4" x1="146.24" y1="185.51" x2="146.04" y2="185.51"/><path class="cls-4" d="M149.64,262.29a88.68,88.68,0,0,0,88.68-88.68" transform="translate(0.23 0.23)"/><polyline class="cls-4" points="242.42 166.23 238.54 166.23 238.54 173.88 242.42 173.88 242.42 166.23"/><polyline class="cls-4" points="146.04 173.88 149.81 173.88 149.81 166.23 146.04 166.23 146.04 173.88"/><line class="cls-4" x1="149.81" y1="173.88" x2="149.81" y2="262.61"/><polyline class="cls-4" points="242.42 185.51 242.42 173.88 242.42 166.23 242.42 173.88"/><polyline class="cls-4" points="146.04 185.51 146.04 173.88 146.04 166.23 146.04 173.88"/><line class="cls-4" x1="290.56" y1="185.51" x2="290.56" y2="177.76"/><polyline class="cls-4" points="357.98 185.51 357.98 177.76 412.03 177.76"/><polyline class="cls-4" points="290.56 177.76 280.87 177.76 280.87 185.51 290.56 185.51"/><polyline class="cls-4" points="357.98 185.51 412.03 185.51 412.03 177.76"/><line class="cls-4" x1="357.97" y1="185.51" x2="357.97" y2="177.76"/><line class="cls-4" x1="290.56" y1="185.51" x2="290.56" y2="177.76"/><line class="cls-4" x1="308.82" y1="383.98" x2="308.82" y2="376.33"/><line class="cls-4" x1="412.03" y1="383.98" x2="412.03" y2="376.33"/><line class="cls-4" x1="279.95" y1="383.98" x2="279.95" y2="376.33"/><polyline class="cls-4" points="141.14 383.98 202.85 383.98 202.85 376.33"/><line class="cls-4" x1="279.95" y1="383.98" x2="301.17" y2="383.98"/><line class="cls-4" x1="412.03" y1="383.98" x2="419.68" y2="383.98"/><line class="cls-4" x1="308.82" y1="376.33" x2="279.95" y2="376.33"/><polyline class="cls-4" points="202.85 376.33 141.14 376.33 141.14 383.98"/><line class="cls-4" x1="412.03" y1="383.98" x2="412.03" y2="376.33"/><line class="cls-4" x1="308.82" y1="383.98" x2="308.82" y2="376.33"/><line class="cls-4" x1="202.85" y1="383.98" x2="202.85" y2="376.33"/><line class="cls-4" x1="279.95" y1="383.98" x2="279.95" y2="376.33"/><line class="cls-4" x1="584.8" y1="80.46" x2="584.8" y2="31.3"/><line class="cls-4" x1="579.39" y1="25.49" x2="460.07" y2="25.49"/><line class="cls-4" x1="579.39" y1="86.27" x2="460.07" y2="86.27"/><line class="cls-4" x1="426.41" y1="19.78" x2="590.31" y2="19.78"/><polyline class="cls-4" points="426.41 19.78 426.41 91.98 590.31 91.98 590.31 19.78"/><line class="cls-4" x1="479.24" y1="76.18" x2="572.56" y2="76.18"/><line class="cls-4" x1="575.31" y1="73.32" x2="575.31" y2="38.44"/><line class="cls-4" x1="479.24" y1="35.58" x2="572.56" y2="35.58"/><line class="cls-4" x1="556.14" y1="57.61" x2="556.14" y2="61.18"/><line class="cls-4" x1="557.77" y1="55.88" x2="561.14" y2="55.88"/><line class="cls-4" x1="556.14" y1="54.15" x2="556.14" y2="50.58"/><line class="cls-4" x1="554.51" y1="55.88" x2="551.14" y2="55.88"/><path class="cls-4" d="M459.89,25.26c-15.85,0-28.71,13.59-28.71,30.34S444,86,459.89,86" transform="translate(0.23 0.23)"/><path class="cls-4" d="M584.68,31a5.62,5.62,0,0,0-5.46-5.76" transform="translate(0.23 0.23)"/><path class="cls-4" d="M579.22,86a5.62,5.62,0,0,0,5.46-5.77" transform="translate(0.23 0.23)"/><path class="cls-4" d="M556,52.6a3,3,0,1,0,2.8,3,2.91,2.91,0,0,0-2.8-3" transform="translate(0.23 0.23)"/><path class="cls-4" d="M479.07,35.26c-10.56,0-19.13,9.11-19.13,20.34S468.51,76,479.07,76" transform="translate(0.23 0.23)"/><path class="cls-4" d="M572.39,76a2.81,2.81,0,0,0,2.7-2.91" transform="translate(0.23 0.23)"/><path class="cls-4" d="M575.09,38.16a2.81,2.81,0,0,0-2.7-2.9" transform="translate(0.23 0.23)"/><path class="cls-4" d="M556,51.58a4,4,0,1,0,3.82,4,3.93,3.93,0,0,0-3.82-4" transform="translate(0.23 0.23)"/><polyline class="cls-4" points="568.28 153.69 590.31 153.69 590.31 101.67 568.28 101.67"/><line class="cls-4" x1="590.31" y1="119.52" x2="590.31" y2="135.84"/><line class="cls-4" x1="572.56" y1="123.3" x2="572.56" y2="126.05"/><line class="cls-4" x1="576.95" y1="127.68" x2="574.19" y2="127.68"/><line class="cls-4" x1="572.56" y1="129.31" x2="572.56" y2="132.07"/><line class="cls-4" x1="571.03" y1="127.68" x2="568.18" y2="127.68"/><path class="cls-4" d="M566.73,150.21a23.16,23.16,0,0,0,11-9" transform="translate(0.23 0.23)"/><path class="cls-4" d="M577.68,141.21a23.22,23.22,0,0,0,3.25-13.83" transform="translate(0.23 0.23)"/><path class="cls-4" d="M577.7,113.6a23.16,23.16,0,0,0-11-9" transform="translate(0.23 0.23)"/><path class="cls-4" d="M580.93,127.43a23.22,23.22,0,0,0-3.25-13.83" transform="translate(0.23 0.23)"/><path class="cls-4" d="M550.63,129.22a42.65,42.65,0,0,0,4.3,15.79" transform="translate(0.23 0.23)"/><path class="cls-4" d="M568.06,101.36a13.21,13.21,0,0,0-10.87,4.93" transform="translate(0.23 0.23)"/><path class="cls-4" d="M550.57,125.58a27.79,27.79,0,0,0,0,3.65" transform="translate(0.23 0.23)"/><path class="cls-4" d="M576.82,142a94.78,94.78,0,0,0,0-29.12" transform="translate(0.23 0.23)"/><path class="cls-4" d="M585.93,110.15a32.69,32.69,0,0,0-21.24-7.37" transform="translate(0.23 0.23)"/><path class="cls-4" d="M589.06,127.39a64.82,64.82,0,0,0-1.61-14.89" transform="translate(0.23 0.23)"/><path class="cls-4" d="M587.43,112.47a4.35,4.35,0,0,0-1.49-2.39" transform="translate(0.23 0.23)"/><path class="cls-4" d="M587,127.39a112.6,112.6,0,0,0-1-14.68" transform="translate(0.23 0.23)"/><path class="cls-4" d="M584.5,110a29.42,29.42,0,0,0-19.84-7.34" transform="translate(0.23 0.23)"/><path class="cls-4" d="M586,112.73a4.33,4.33,0,0,0-1.43-2.65" transform="translate(0.23 0.23)"/><path class="cls-4" d="M564.7,152.14a29.48,29.48,0,0,0,19.83-7.38" transform="translate(0.23 0.23)"/><path class="cls-4" d="M564.73,152a32.72,32.72,0,0,0,21.24-7.4" transform="translate(0.23 0.23)"/><path class="cls-4" d="M586,142a112.39,112.39,0,0,0,1-14.66" transform="translate(0.23 0.23)"/><path class="cls-4" d="M587.47,142.23a65.51,65.51,0,0,0,1.59-14.9" transform="translate(0.23 0.23)"/><path class="cls-4" d="M584.54,144.73a4.32,4.32,0,0,0,1.42-2.66" transform="translate(0.23 0.23)"/><path class="cls-4" d="M586,144.63a4.42,4.42,0,0,0,1.48-2.4" transform="translate(0.23 0.23)"/><path class="cls-4" d="M557.19,148.42a13.21,13.21,0,0,0,10.87,4.93" transform="translate(0.23 0.23)"/><path class="cls-4" d="M554.92,145.05a21.09,21.09,0,0,0,2.24,3.46" transform="translate(0.23 0.23)"/><path class="cls-4" d="M557.16,106.3a21.09,21.09,0,0,0-2.24,3.46" transform="translate(0.23 0.23)"/><path class="cls-4" d="M554.93,109.8a42.65,42.65,0,0,0-4.3,15.79" transform="translate(0.23 0.23)"/><path class="cls-4" d="M554.32,120.24a30.45,30.45,0,0,0,0,14.33" transform="translate(0.23 0.23)"/><path class="cls-4" d="M560.26,147.5a7.78,7.78,0,0,0,6.44,2.68" transform="translate(0.23 0.23)"/><path class="cls-4" d="M554.41,134.54a28.22,28.22,0,0,0,5.94,13" transform="translate(0.23 0.23)"/><path class="cls-4" d="M566.7,104.63a7.81,7.81,0,0,0-6.44,2.68" transform="translate(0.23 0.23)"/><path class="cls-4" d="M560.35,107.31a28.14,28.14,0,0,0-5.94,13" transform="translate(0.23 0.23)"/><path class="cls-4" d="M575.8,127.41a3.42,3.42,0,1,0-3.41,3.41,3.42,3.42,0,0,0,3.41-3.41" transform="translate(0.23 0.23)"/><path class="cls-4" d="M574.78,127.41a2.4,2.4,0,1,0-2.39,2.39,2.39,2.39,0,0,0,2.39-2.39" transform="translate(0.23 0.23)"/><line class="cls-4" x1="34.56" y1="258.23" x2="68.63" y2="258.23"/><polyline class="cls-4" points="32.52 256.8 19.78 256.8 19.78 293.42"/><line class="cls-4" x1="40.58" y1="275.16" x2="40.58" y2="288.72"/><polyline class="cls-4" points="68.53 258.23 40.58 261.49 40.58 275.16"/><line class="cls-4" x1="68.53" y1="291.99" x2="40.58" y2="288.72"/><line class="cls-4" x1="68.53" y1="259.15" x2="40.58" y2="262.41"/><line class="cls-4" x1="68.53" y1="291.07" x2="40.58" y2="287.81"/><line class="cls-4" x1="34.56" y1="291.99" x2="68.63" y2="291.99"/><line class="cls-4" x1="19.78" y1="293.42" x2="32.52" y2="293.42"/><polyline class="cls-4" points="68.53 258.23 72.3 258.74 75.87 260.17 79.03 262.51 81.48 265.57 83.32 269.14 84.23 273.12 84.23 277.2 83.32 281.07 81.48 284.75 79.03 287.81 75.87 290.05 72.3 291.48 68.53 291.99"/><polyline class="cls-4" points="68.53 259.15 72.1 259.55 75.46 260.98 78.42 263.12 80.77 265.98 82.5 269.45 83.32 273.22 83.32 277.1 82.5 280.77 80.77 284.24 78.42 287.09 75.46 289.23 72.1 290.66 68.53 291.07"/><path class="cls-4" d="M34.49,291.29a155.29,155.29,0,0,0,0-32.83" transform="translate(0.23 0.23)"/><path class="cls-4" d="M34.53,258.44a2.15,2.15,0,0,0-2.18-1.86" transform="translate(0.23 0.23)"/><path class="cls-4" d="M32.35,293.09a2.16,2.16,0,0,0,2.18-1.88" transform="translate(0.23 0.23)"/><path class="cls-4" d="M29.44,274.88a1.79,1.79,0,1,0-1.78,1.79,1.78,1.78,0,0,0,1.78-1.79" transform="translate(0.23 0.23)"/><polyline class="cls-4" points="36.4 319.42 19.78 319.42 19.78 361.85 36.4 361.85"/><line class="cls-4" x1="19.78" y1="347.37" x2="19.78" y2="334.01"/><line class="cls-4" x1="33.14" y1="344.21" x2="33.14" y2="341.96"/><line class="cls-4" x1="29.77" y1="340.64" x2="31.91" y2="340.64"/><line class="cls-4" x1="33.14" y1="339.31" x2="33.14" y2="337.07"/><line class="cls-4" x1="34.36" y1="340.64" x2="36.4" y2="340.64"/><path class="cls-4" d="M37.25,321.74A17.9,17.9,0,0,0,29,329.08" transform="translate(0.23 0.23)"/><path class="cls-4" d="M29,329.07a20.25,20.25,0,0,0-2.45,11.28" transform="translate(0.23 0.23)"/><path class="cls-4" d="M29,351.64A17.84,17.84,0,0,0,37.25,359" transform="translate(0.23 0.23)"/><path class="cls-4" d="M26.54,340.37A20.25,20.25,0,0,0,29,351.65" transform="translate(0.23 0.23)"/><path class="cls-4" d="M49.45,338.92A37.05,37.05,0,0,0,46.19,326" transform="translate(0.23 0.23)"/><path class="cls-4" d="M36.2,361.51a9.77,9.77,0,0,0,8.27-4" transform="translate(0.23 0.23)"/><path class="cls-4" d="M49.39,341.84a24.36,24.36,0,0,0,0-3" transform="translate(0.23 0.23)"/><path class="cls-4" d="M29.58,328.49a83.48,83.48,0,0,0,0,23.73" transform="translate(0.23 0.23)"/><path class="cls-4" d="M22.72,354.48a23.57,23.57,0,0,0,16.07,6" transform="translate(0.23 0.23)"/><path class="cls-4" d="M20.37,340.37a57.38,57.38,0,0,0,1.21,12.13" transform="translate(0.23 0.23)"/><path class="cls-4" d="M21.57,352.46a3.54,3.54,0,0,0,1.14,2" transform="translate(0.23 0.23)"/><path class="cls-4" d="M21.9,340.36a97.52,97.52,0,0,0,.8,12" transform="translate(0.23 0.23)"/><path class="cls-4" d="M23.8,354.43a21.27,21.27,0,0,0,15,6" transform="translate(0.23 0.23)"/><path class="cls-4" d="M22.64,352.37a3.6,3.6,0,0,0,1.09,2.15" transform="translate(0.23 0.23)"/><path class="cls-4" d="M38.73,320.32a21.26,21.26,0,0,0-14.95,6" transform="translate(0.23 0.23)"/><path class="cls-4" d="M38.76,320.22a23.64,23.64,0,0,0-16.07,6" transform="translate(0.23 0.23)"/><path class="cls-4" d="M22.68,328.43a97.34,97.34,0,0,0-.78,11.95" transform="translate(0.23 0.23)"/><path class="cls-4" d="M21.57,328.29a57.4,57.4,0,0,0-1.2,12.14" transform="translate(0.23 0.23)"/><path class="cls-4" d="M23.73,326.3a3.62,3.62,0,0,0-1.09,2.16" transform="translate(0.23 0.23)"/><path class="cls-4" d="M22.7,326.32a3.55,3.55,0,0,0-1.13,1.95" transform="translate(0.23 0.23)"/><path class="cls-4" d="M44.47,323.22a9.77,9.77,0,0,0-8.27-4" transform="translate(0.23 0.23)"/><path class="cls-4" d="M46.19,326a16.94,16.94,0,0,0-1.7-2.81" transform="translate(0.23 0.23)"/><path class="cls-4" d="M44.49,357.51a16.94,16.94,0,0,0,1.7-2.81" transform="translate(0.23 0.23)"/><path class="cls-4" d="M46.19,354.79a37,37,0,0,0,3.26-12.89" transform="translate(0.23 0.23)"/><path class="cls-4" d="M46.65,346.19a26.67,26.67,0,0,0,0-11.66" transform="translate(0.23 0.23)"/><path class="cls-4" d="M42.09,324a5.64,5.64,0,0,0-4.84-2.2" transform="translate(0.23 0.23)"/><path class="cls-4" d="M46.66,334.53A23.86,23.86,0,0,0,42.16,324" transform="translate(0.23 0.23)"/><path class="cls-4" d="M37.25,359a5.64,5.64,0,0,0,4.84-2.2" transform="translate(0.23 0.23)"/><path class="cls-4" d="M42.16,356.76a23.86,23.86,0,0,0,4.5-10.57" transform="translate(0.23 0.23)"/><path class="cls-4" d="M33,337.66a2.7,2.7,0,1,0,2.6,2.7,2.66,2.66,0,0,0-2.6-2.7" transform="translate(0.23 0.23)"/><path class="cls-4" d="M33,338.37a2,2,0,1,0,1.79,2,1.9,1.9,0,0,0-1.79-2" transform="translate(0.23 0.23)"/><polyline class="cls-4" points="532.48 383.98 532.48 331.05 585.41 331.05 585.41 383.98 532.48 383.98"/><polyline class="cls-4" points="580.62 379.19 537.27 379.19 537.27 340.64 580.62 340.64 580.62 379.19"/><line class="cls-4" x1="426.41" y1="0.5" x2="590.31" y2="0.5"/><line class="cls-4" x1="605.71" y1="323.4" x2="605.71" y2="306.98"/><line class="cls-4" x1="605.71" y1="64.55" x2="605.71" y2="48.13"/><polyline class="cls-4" points="457.31 863.44 456.8 863.44 456.8 916.47 457.31 916.47 457.31 863.44"/><polyline class="cls-4" points="455.38 918.41 455.38 917.9 366.64 917.9 366.64 918.41 455.38 918.41"/><polyline class="cls-4" points="364.81 916.47 365.22 916.47 365.22 863.44 364.81 863.44 364.81 916.47"/><polyline class="cls-4" points="457.72 860.99 455.38 860.99 455.38 863.44 457.72 863.44 457.72 860.99"/><polyline class="cls-4" points="457.72 916.47 455.38 916.47 455.38 918.82 457.72 918.82 457.72 916.47"/><polyline class="cls-4" points="366.64 918.82 366.64 916.47 364.3 916.47 364.3 918.82 366.64 918.82"/><polyline class="cls-4" points="364.3 863.44 366.64 863.44 366.64 860.99 364.3 860.99 364.3 863.44"/><line class="cls-4" x1="455.38" y1="862.21" x2="455.38" y2="916.47"/><line class="cls-4" x1="457.72" y1="918.82" x2="457.72" y2="862.21"/><line class="cls-4" x1="455.38" y1="916.47" x2="366.64" y2="916.47"/><line class="cls-4" x1="364.3" y1="918.82" x2="457.72" y2="918.82"/><line class="cls-4" x1="366.64" y1="916.47" x2="366.64" y2="862.21"/><line class="cls-4" x1="364.3" y1="862.21" x2="364.3" y2="918.82"/><polyline class="cls-4" points="457.72 862.21 457.72 860.99 455.38 860.99 455.38 862.21"/><polyline class="cls-4" points="366.64 862.21 366.64 860.99 364.3 860.99 364.3 862.21"/><polyline class="cls-4" points="364.3 918.82 457.72 918.82 457.72 862.21 455.38 862.21 455.38 916.47 366.64 916.47 366.64 862.21 364.3 862.21 364.3 918.82"/><polyline class="cls-4" points="369.09 901.48 452.93 901.48 452.93 870.68 369.09 870.68 369.09 901.48"/><polyline class="cls-4" points="369.09 898.42 452.93 898.42 452.93 870.68 369.09 870.68 369.09 898.42"/><line class="cls-5" x1="419.68" y1="383.98" x2="419.68" y2="385.48"/><line class="cls-6" x1="419.68" y1="388.37" x2="419.68" y2="438.87"/><polyline class="cls-5" points="419.68 440.31 419.68 441.81 421.18 441.81"/><line class="cls-7" x1="424.23" y1="441.81" x2="587.28" y2="441.81"/><line class="cls-5" x1="588.81" y1="441.81" x2="590.31" y2="441.81"/><polyline class="cls-4" points="388.88 0.5 388.88 19.78 292.5 19.78 292.5 0.5 388.88 0.5"/><polyline class="cls-4" points="19.78 829.27 0.5 829.27 0.5 732.89 19.78 732.89 19.78 829.27"/><polyline class="cls-4" points="19.78 511.26 0.5 511.26 0.5 414.88 19.78 414.88 19.78 511.26"/><polyline class="cls-4" points="308.82 829.27 289.64 829.27 289.64 732.89 308.82 732.89 308.82 829.27"/><polyline class="cls-4" points="308.82 511.26 289.64 511.26 289.64 414.88 308.82 414.88 308.82 511.26"/><polyline class="cls-4" points="590.31 732.89 590.31 809.99 590.31 829.27 605.71 829.27 605.71 809.99 605.71 732.89"/><line class="cls-4" x1="605.71" y1="732.89" x2="605.71" y2="0.5"/><line class="cls-4" x1="590.31" y1="0.5" x2="590.31" y2="732.89"/><text class="cls-8" transform="translate(136.46 654.73)">2E</text><text class="cls-8" transform="translate(110.2 704.91)">41.71</text><text class="cls-8" transform="translate(104.92 604.83)">№153</text><polyline class="cls-5" points="95.91 715.72 95.91 566.65 220.24 566.65 220.24 715.72"/><line class="cls-5" x1="95.91" y1="616.43" x2="220.24" y2="616.43"/><line class="cls-5" x1="95.91" y1="715.72" x2="220.24" y2="715.72"/><line class="cls-5" x1="95.91" y1="666.22" x2="220.24" y2="666.22"/><text class="cls-9" transform="translate(410.34 781.08)">11.84</text><text class="cls-9" transform="translate(114.99 781.08)">12.69</text><text class="cls-9" transform="translate(56.7 331.76)">2.06</text><text class="cls-9" transform="translate(466.41 218.17)">5.21</text><text class="cls-9" transform="translate(443.76 404.17)">2.12</text><text class="cls-9" transform="translate(246.67 293.42)">5.56</text><text class="cls-9" transform="translate(315.41 114.01)">2.23</text><line class="cls-10" x1="374.27" y1="185.37" x2="286.68" y2="185.37"/><line class="cls-10" x1="374.27" y1="177.9" x2="286.68" y2="177.9"/><line class="cls-10" x1="289.64" y1="383.89" x2="202.06" y2="383.89"/><line class="cls-10" x1="289.64" y1="376.42" x2="202.06" y2="376.42"/><line class="cls-10" x1="419.59" y1="180.27" x2="419.59" y2="267.86"/><line class="cls-10" x1="412.12" y1="180.27" x2="412.12" y2="267.86"/><line class="cls-10" x1="141.06" y1="279.75" x2="141.06" y2="367.34"/><line class="cls-10" x1="133.58" y1="279.75" x2="133.58" y2="367.34"/><line class="cls-10" x1="149.16" y1="166.23" x2="239.25" y2="166.23"/><line class="cls-11" x1="89.2" y1="848.55" x2="89.2" y2="848.55"/></svg>