<svg id="_171" data-name="171" xmlns="http://www.w3.org/2000/svg" viewBox="0 0 331.13 730.6"><defs><style>.cls-1{isolation:isolate;font-size:12px;fill:#969696;}.cls-1,.cls-11,.cls-9{font-family:PTSans-Regular, PT Sans;}.cls-10,.cls-2,.cls-3,.cls-4,.cls-5,.cls-6,.cls-7,.cls-8{fill:none;stroke-linecap:round;stroke-linejoin:round;}.cls-2{stroke:#969696;stroke-width:0.75px;}.cls-3,.cls-4,.cls-5,.cls-7,.cls-8{stroke:#7d7d7d;}.cls-10,.cls-3,.cls-4,.cls-5,.cls-7,.cls-8{stroke-width:0.5px;}.cls-4{stroke-dasharray:4.01 4.01;}.cls-5{stroke-dasharray:3.97 3.97;}.cls-10,.cls-6{stroke:#000;}.cls-7{stroke-dasharray:3.91 3.91;}.cls-8{stroke-dasharray:3.93 3.93;}.cls-9{font-size:28px;}.cls-11{font-size:24px;}</style></defs><title>2floor_171flat</title><text class="cls-1" transform="translate(160 10.2)">двор</text><line class="cls-2" x1="149.24" y1="1.57" x2="149.24" y2="10.37"/><polyline class="cls-2" points="152.74 5.07 149.24 1.57 145.74 5.07"/><line class="cls-3" x1="154.21" y1="364.5" x2="154.21" y2="366.5"/><line class="cls-4" x1="154.21" y1="370.51" x2="154.21" y2="464.7"/><polyline class="cls-3" points="154.21 466.7 154.21 468.7 156.21 468.7"/><line class="cls-5" x1="160.19" y1="468.7" x2="309.11" y2="468.7"/><polyline class="cls-3" points="311.09 468.7 313.09 468.7 313.09 466.7"/><line class="cls-4" x1="313.09" y1="462.69" x2="313.09" y2="368.51"/><polyline class="cls-3" points="313.09 366.5 313.09 364.5 311.09 364.5"/><line class="cls-5" x1="307.12" y1="364.5" x2="158.2" y2="364.5"/><line class="cls-3" x1="156.21" y1="364.5" x2="154.21" y2="364.5"/><line class="cls-6" x1="270.42" y1="115.24" x2="273.9" y2="109.27"/><line class="cls-6" x1="273.9" y1="117.91" x2="278.94" y2="109.27"/><line class="cls-6" x1="278.94" y1="117.91" x2="283.92" y2="109.27"/><line class="cls-6" x1="283.92" y1="117.91" x2="288.96" y2="109.27"/><line class="cls-6" x1="288.96" y1="117.91" x2="293.93" y2="109.27"/><line class="cls-6" x1="293.93" y1="117.91" x2="298.97" y2="109.27"/><line class="cls-6" x1="298.97" y1="117.91" x2="304.01" y2="109.27"/><line class="cls-6" x1="304.01" y1="117.91" x2="308.99" y2="109.27"/><line class="cls-6" x1="308.99" y1="117.91" x2="314.02" y2="109.27"/><line class="cls-6" x1="314.02" y1="117.91" x2="319" y2="109.27"/><line class="cls-6" x1="319" y1="117.91" x2="324.04" y2="109.27"/><line class="cls-6" x1="324.04" y1="117.91" x2="329.02" y2="109.27"/><line class="cls-6" x1="272.03" y1="117.91" x2="270.42" y2="115.12"/><line class="cls-6" x1="277.07" y1="117.91" x2="272.03" y2="109.27"/><line class="cls-6" x1="282.05" y1="117.91" x2="277.07" y2="109.27"/><line class="cls-6" x1="287.09" y1="117.91" x2="282.05" y2="109.27"/><line class="cls-6" x1="292.13" y1="117.91" x2="287.09" y2="109.27"/><line class="cls-6" x1="297.1" y1="117.91" x2="292.13" y2="109.27"/><line class="cls-6" x1="302.14" y1="117.91" x2="297.1" y2="109.27"/><line class="cls-6" x1="307.12" y1="117.91" x2="302.14" y2="109.27"/><line class="cls-6" x1="312.16" y1="117.91" x2="307.12" y2="109.27"/><line class="cls-6" x1="317.14" y1="117.91" x2="312.16" y2="109.27"/><line class="cls-6" x1="322.17" y1="117.91" x2="317.14" y2="109.27"/><line class="cls-6" x1="327.21" y1="117.91" x2="322.17" y2="109.27"/><line class="cls-6" x1="269.24" y1="137.07" x2="278.44" y2="127.87"/><line class="cls-6" x1="281.49" y1="124.76" x2="288.4" y2="117.91"/><line class="cls-6" x1="293.81" y1="137.07" x2="303.01" y2="127.87"/><line class="cls-6" x1="306.06" y1="124.76" x2="312.97" y2="117.91"/><line class="cls-6" x1="269.48" y1="124.51" x2="276.08" y2="117.91"/><line class="cls-6" x1="281.49" y1="137.07" x2="290.7" y2="127.87"/><line class="cls-6" x1="293.81" y1="124.76" x2="300.65" y2="117.91"/><line class="cls-6" x1="306.06" y1="137.07" x2="313.09" y2="130.05"/><line class="cls-6" x1="330.45" y1="109.27" x2="271.04" y2="109.27"/><line class="cls-6" x1="313.09" y1="117.91" x2="270.17" y2="117.91"/><line class="cls-6" x1="267.93" y1="139.63" x2="313.09" y2="139.63"/><line class="cls-6" x1="330.45" y1="108.4" x2="271.1" y2="108.4"/><line class="cls-6" x1="264.88" y1="129.17" x2="266.19" y2="127.87"/><line class="cls-6" x1="269.24" y1="124.76" x2="269.48" y2="124.51"/><line class="cls-6" x1="0.69" y1="113.56" x2="3.17" y2="109.27"/><line class="cls-6" x1="5.66" y1="113.56" x2="8.21" y2="109.27"/><line class="cls-6" x1="10.7" y1="113.56" x2="13.19" y2="109.27"/><line class="cls-6" x1="3.86" y1="113.56" x2="1.31" y2="109.27"/><line class="cls-6" x1="8.84" y1="113.56" x2="6.35" y2="109.27"/><line class="cls-6" x1="13.87" y1="113.56" x2="11.32" y2="109.27"/><line class="cls-6" x1="14.81" y1="109.27" x2="0.5" y2="109.27"/><line class="cls-6" x1="17.86" y1="139.63" x2="17.92" y2="139.63"/><line class="cls-6" x1="14.68" y1="108.4" x2="0.5" y2="108.4"/><line class="cls-6" x1="15.74" y1="113.56" x2="18.66" y2="108.46"/><line class="cls-6" x1="18.54" y1="117.35" x2="24.39" y2="107.28"/><line class="cls-6" x1="24.26" y1="116.17" x2="30.05" y2="106.1"/><line class="cls-6" x1="29.92" y1="114.99" x2="35.77" y2="104.91"/><line class="cls-6" x1="35.65" y1="113.81" x2="41.43" y2="103.73"/><line class="cls-6" x1="41.31" y1="112.63" x2="47.16" y2="102.61"/><line class="cls-6" x1="47.03" y1="111.45" x2="52.82" y2="101.43"/><line class="cls-6" x1="52.69" y1="110.33" x2="57.86" y2="101.43"/><line class="cls-6" x1="58.41" y1="109.14" x2="59.16" y2="107.84"/><line class="cls-6" x1="20.78" y1="116.86" x2="16.18" y2="108.96"/><line class="cls-6" x1="25.26" y1="115.92" x2="20.66" y2="108.02"/><line class="cls-6" x1="29.74" y1="115.05" x2="25.13" y2="107.09"/><line class="cls-6" x1="34.22" y1="114.12" x2="29.61" y2="106.16"/><line class="cls-6" x1="38.7" y1="113.19" x2="34.15" y2="105.29"/><line class="cls-6" x1="43.17" y1="112.25" x2="38.63" y2="104.35"/><line class="cls-6" x1="47.65" y1="111.32" x2="43.11" y2="103.42"/><line class="cls-6" x1="52.13" y1="110.45" x2="47.59" y2="102.49"/><line class="cls-6" x1="56.61" y1="109.52" x2="52.07" y2="101.55"/><line class="cls-6" x1="58.29" y1="103.73" x2="56.55" y2="100.62"/><line class="cls-6" x1="17.86" y1="118.29" x2="18.85" y2="117.29"/><line class="cls-6" x1="23.64" y1="137.07" x2="32.85" y2="127.87"/><line class="cls-6" x1="35.9" y1="124.76" x2="45.1" y2="115.55"/><line class="cls-6" x1="48.21" y1="112.5" x2="49.83" y2="110.89"/><line class="cls-6" x1="52.82" y1="132.47" x2="57.42" y2="127.87"/><line class="cls-6" x1="60.47" y1="124.76" x2="67.43" y2="117.85"/><line class="cls-6" x1="17.86" y1="130.54" x2="20.59" y2="127.87"/><line class="cls-6" x1="23.64" y1="124.76" x2="32.85" y2="115.55"/><line class="cls-6" x1="37.33" y1="135.64" x2="45.1" y2="127.87"/><line class="cls-6" x1="48.21" y1="124.76" x2="57.42" y2="115.55"/><line class="cls-6" x1="60.47" y1="112.5" x2="65.26" y2="107.71"/><line class="cls-6" x1="68.31" y1="129.24" x2="69.49" y2="128.05"/><line class="cls-6" x1="57.86" y1="101.43" x2="58.48" y2="100.25"/><line class="cls-6" x1="59.16" y1="107.84" x2="64.2" y2="99.07"/><line class="cls-6" x1="64.08" y1="107.96" x2="67" y2="102.92"/><line class="cls-6" x1="61.09" y1="108.58" x2="58.29" y2="103.73"/><line class="cls-6" x1="65.57" y1="107.65" x2="61.03" y2="99.75"/><line class="cls-6" x1="66.5" y1="100.62" x2="65.51" y2="98.82"/><line class="cls-6" x1="57.61" y1="100.43" x2="14.81" y2="109.27"/><line class="cls-6" x1="59.35" y1="108.96" x2="17.86" y2="117.48"/><line class="cls-6" x1="67" y1="98.51" x2="68.74" y2="107.03"/><line class="cls-6" x1="65.32" y1="107.71" x2="67.87" y2="107.15"/><line class="cls-6" x1="67.87" y1="107.15" x2="68.74" y2="107.03"/><line class="cls-6" x1="66.81" y1="97.64" x2="67" y2="98.51"/><line class="cls-6" x1="65.32" y1="107.71" x2="65.32" y2="107.71"/><line class="cls-6" x1="59.35" y1="108.96" x2="65.32" y2="107.71"/><line class="cls-6" x1="59.35" y1="108.96" x2="59.35" y2="108.96"/><polyline class="cls-6" points="57.61 100.43 66.13 98.69 67.87 107.15 66.13 98.69"/><line class="cls-6" x1="65.94" y1="97.82" x2="66.81" y2="97.64"/><polyline class="cls-6" points="65.32 107.71 66.38 112.81 69.67 128.99 17.92 139.63"/><line class="cls-6" x1="65.94" y1="97.82" x2="14.68" y2="108.4"/><line class="cls-6" x1="142.89" y1="82.02" x2="66.81" y2="97.64"/><line class="cls-6" x1="142.89" y1="113.93" x2="69.67" y2="128.99"/><polyline class="cls-6" points="142.89 97.08 138.23 98.01 137.54 94.65 135.43 95.08 135.05 93.34 141.9 91.97 142.89 91.72"/><polyline class="cls-6" points="65.32 107.71 72.1 106.28 72.47 108.02 70.36 108.46 71.04 111.82 66.38 112.81"/><line class="cls-6" x1="72.1" y1="106.28" x2="135.05" y2="93.34"/><polyline class="cls-6" points="138.6 99.75 133.5 100.75 76.52 112.5"/><polyline class="cls-6" points="133.5 100.75 132.44 95.64 137.54 94.65 138.6 99.75"/><polyline class="cls-6" points="70.36 108.46 75.46 107.4 76.52 112.5 71.42 113.56 70.36 108.46"/><line class="cls-6" x1="75.46" y1="107.4" x2="132.44" y2="95.64"/><line class="cls-6" x1="133.5" y1="100.75" x2="76.52" y2="112.5"/><line class="cls-6" x1="132.94" y1="98.19" x2="75.96" y2="109.95"/><line class="cls-6" x1="141.9" y1="91.97" x2="142.89" y2="97.08"/><polyline class="cls-6" points="69.67 128.99 66.38 112.81 65.32 107.71 66.38 112.81"/><line class="cls-6" x1="66.81" y1="97.64" x2="67" y2="98.51"/><polyline class="cls-6" points="68.74 107.03 67.87 107.15 68.74 107.03"/><polyline class="cls-6" points="67.87 107.15 65.32 107.71 67.87 107.15"/><line class="cls-6" x1="67" y1="98.51" x2="68.74" y2="107.03"/><line class="cls-6" x1="264.88" y1="116.17" x2="269.11" y2="108.83"/><line class="cls-6" x1="269.05" y1="117.67" x2="273.59" y2="109.77"/><line class="cls-6" x1="266.62" y1="117.17" x2="265.19" y2="114.68"/><line class="cls-6" x1="272.28" y1="118.35" x2="266.5" y2="108.33"/><line class="cls-6" x1="274.34" y1="113.25" x2="272.16" y2="109.45"/><line class="cls-6" x1="265.63" y1="108.15" x2="263.89" y2="116.61"/><line class="cls-6" x1="267.31" y1="117.35" x2="264.76" y2="116.79"/><line class="cls-6" x1="264.76" y1="116.79" x2="263.89" y2="116.61"/><line class="cls-6" x1="265.81" y1="107.28" x2="265.63" y2="108.15"/><line class="cls-6" x1="267.31" y1="117.35" x2="267.31" y2="117.35"/><line class="cls-6" x1="273.28" y1="118.54" x2="267.31" y2="117.35"/><line class="cls-6" x1="273.28" y1="118.54" x2="273.28" y2="118.54"/><polyline class="cls-6" points="275.02 110.08 266.5 108.27 264.76 116.8 266.5 108.27"/><line class="cls-6" x1="266.69" y1="107.46" x2="265.81" y2="107.28"/><polyline class="cls-6" points="267.31 117.36 266.25 122.46 262.89 138.57 267.93 139.63"/><line class="cls-6" x1="271.1" y1="108.4" x2="266.69" y2="107.46"/><line class="cls-6" x1="142.89" y1="82.02" x2="265.81" y2="107.28"/><line class="cls-6" x1="142.89" y1="113.93" x2="262.89" y2="138.57"/><polyline class="cls-6" points="142.89 97.08 147.62 98.01 148.3 94.65 150.42 95.08 150.79 93.34 143.95 91.97 142.89 91.72"/><polyline class="cls-6" points="216.24 106.84 212.88 106.16 212.5 107.84 214.62 108.27 213.93 111.69 215.24 111.94"/><line class="cls-6" x1="212.88" y1="106.16" x2="150.79" y2="93.34"/><polyline class="cls-6" points="147.25 99.75 152.35 100.75 208.46 112.32"/><polyline class="cls-6" points="152.35 100.75 153.41 95.64 148.3 94.65 147.25 99.75"/><polyline class="cls-6" points="214.62 108.27 209.52 107.22 208.46 112.32 213.56 113.37 214.62 108.27"/><line class="cls-6" x1="209.52" y1="107.22" x2="153.41" y2="95.64"/><line class="cls-6" x1="152.35" y1="100.75" x2="208.46" y2="112.32"/><line class="cls-6" x1="152.85" y1="98.19" x2="209.02" y2="109.77"/><line class="cls-6" x1="143.95" y1="91.97" x2="142.89" y2="97.08"/><polyline class="cls-6" points="215.24 111.94 216.48 112.19 217.17 108.77 219.34 109.21 219.66 107.53 216.24 106.84"/><polyline class="cls-6" points="267.31 117.36 260.46 115.92 260.15 117.6 262.27 118.1 261.58 121.46 266.25 122.46"/><line class="cls-6" x1="260.46" y1="115.92" x2="219.66" y2="107.53"/><polyline class="cls-6" points="216.11 113.87 221.21 114.93 256.11 122.14"/><polyline class="cls-6" points="221.21 114.93 222.27 109.83 217.17 108.77 216.11 113.87"/><polyline class="cls-6" points="262.27 118.1 257.17 117.04 256.11 122.14 261.21 123.2 262.27 118.1"/><line class="cls-6" x1="257.17" y1="117.04" x2="222.27" y2="109.83"/><line class="cls-6" x1="221.21" y1="114.93" x2="256.11" y2="122.14"/><line class="cls-6" x1="221.77" y1="112.38" x2="256.67" y2="119.59"/><polyline class="cls-6" points="262.89 138.57 266.25 122.46 267.31 117.36 266.25 122.46"/><line class="cls-6" x1="265.81" y1="107.28" x2="265.63" y2="108.15"/><polyline class="cls-6" points="263.89 116.61 264.76 116.8 263.89 116.61"/><polyline class="cls-6" points="264.76 116.8 267.31 117.36 264.76 116.8"/><line class="cls-6" x1="265.63" y1="108.15" x2="263.89" y2="116.61"/><line class="cls-6" x1="17.86" y1="696.19" x2="17.86" y2="696.19"/><line class="cls-6" x1="17.86" y1="671.62" x2="17.86" y2="671.62"/><line class="cls-6" x1="14.06" y1="643.26" x2="10.58" y2="639.77"/><line class="cls-6" x1="8.28" y1="637.47" x2="1.37" y2="630.56"/><line class="cls-6" x1="17.86" y1="622.48" x2="13.63" y2="618.31"/><line class="cls-6" x1="11.32" y1="616.01" x2="4.42" y2="609.1"/><line class="cls-6" x1="2.12" y1="606.8" x2="0.5" y2="605.12"/><line class="cls-6" x1="17.86" y1="597.97" x2="16.74" y2="596.79"/><line class="cls-6" x1="14.43" y1="594.48" x2="7.53" y2="587.58"/><line class="cls-6" x1="5.23" y1="585.28" x2="0.5" y2="580.61"/><line class="cls-6" x1="17.48" y1="573.02" x2="10.58" y2="566.12"/><line class="cls-6" x1="8.28" y1="563.82" x2="1.37" y2="556.91"/><line class="cls-6" x1="17.86" y1="548.82" x2="13.63" y2="544.59"/><line class="cls-6" x1="11.32" y1="542.29" x2="4.42" y2="535.39"/><line class="cls-6" x1="2.12" y1="533.09" x2="0.5" y2="531.47"/><line class="cls-6" x1="17.86" y1="524.25" x2="16.74" y2="523.13"/><line class="cls-6" x1="17.86" y1="708.45" x2="17.86" y2="708.45"/><line class="cls-6" x1="17.86" y1="683.94" x2="17.86" y2="683.88"/><line class="cls-6" x1="1.81" y1="643.26" x2="0.5" y2="642.01"/><line class="cls-6" x1="17.86" y1="634.8" x2="12.13" y2="629.01"/><line class="cls-6" x1="9.83" y1="626.71" x2="2.93" y2="619.8"/><line class="cls-6" x1="0.62" y1="617.5" x2="0.5" y2="617.44"/><line class="cls-6" x1="17.86" y1="610.22" x2="15.18" y2="607.55"/><line class="cls-6" x1="12.88" y1="605.25" x2="5.97" y2="598.34"/><line class="cls-6" x1="3.67" y1="596.04" x2="0.5" y2="592.87"/><line class="cls-6" x1="15.93" y1="583.72" x2="9.02" y2="576.82"/><line class="cls-6" x1="6.72" y1="574.52" x2="0.5" y2="568.3"/><line class="cls-6" x1="17.86" y1="561.08" x2="12.13" y2="555.36"/><line class="cls-6" x1="9.83" y1="553.05" x2="2.93" y2="546.15"/><line class="cls-6" x1="0.62" y1="543.85" x2="0.5" y2="543.72"/><line class="cls-6" x1="17.86" y1="536.57" x2="15.18" y2="533.83"/><line class="cls-6" x1="12.88" y1="531.53" x2="5.97" y2="524.63"/><line class="cls-6" x1="3.67" y1="522.32" x2="2.99" y2="521.7"/><line class="cls-6" x1="8.34" y1="514.73" x2="7.53" y2="513.93"/><line class="cls-6" x1="5.23" y1="511.62" x2="0.5" y2="506.9"/><line class="cls-6" x1="17.48" y1="499.31" x2="13.81" y2="495.64"/><line class="cls-6" x1="15.93" y1="510.07" x2="9.02" y2="503.16"/><line class="cls-6" x1="6.72" y1="500.86" x2="1.56" y2="495.64"/><line class="cls-6" x1="17.86" y1="401.46" x2="13.63" y2="397.23"/><line class="cls-6" x1="11.32" y1="394.92" x2="4.42" y2="388.02"/><line class="cls-6" x1="2.12" y1="385.72" x2="0.5" y2="384.1"/><line class="cls-6" x1="17.86" y1="376.88" x2="16.74" y2="375.76"/><line class="cls-6" x1="14.43" y1="373.46" x2="7.53" y2="366.56"/><line class="cls-6" x1="5.23" y1="364.26" x2="0.5" y2="359.53"/><line class="cls-6" x1="17.48" y1="351.94" x2="10.58" y2="345.03"/><line class="cls-6" x1="8.28" y1="342.73" x2="1.37" y2="335.83"/><line class="cls-6" x1="17.86" y1="327.8" x2="13.63" y2="323.57"/><line class="cls-6" x1="11.32" y1="321.27" x2="4.42" y2="314.37"/><line class="cls-6" x1="2.12" y1="312.06" x2="0.5" y2="310.45"/><line class="cls-6" x1="17.86" y1="303.23" x2="16.74" y2="302.05"/><line class="cls-6" x1="14.43" y1="299.75" x2="7.53" y2="292.84"/><line class="cls-6" x1="5.23" y1="290.54" x2="0.5" y2="285.87"/><line class="cls-6" x1="17.48" y1="278.29" x2="10.58" y2="271.38"/><line class="cls-6" x1="8.28" y1="269.08" x2="1.37" y2="262.17"/><line class="cls-6" x1="17.86" y1="254.09" x2="13.63" y2="249.92"/><line class="cls-6" x1="11.32" y1="247.62" x2="4.42" y2="240.65"/><line class="cls-6" x1="2.12" y1="238.35" x2="0.5" y2="236.73"/><line class="cls-6" x1="17.86" y1="229.58" x2="16.74" y2="228.39"/><line class="cls-6" x1="14.43" y1="226.09" x2="7.53" y2="219.19"/><line class="cls-6" x1="5.23" y1="216.89" x2="0.5" y2="212.16"/><line class="cls-6" x1="12.94" y1="408.8" x2="12.13" y2="407.99"/><line class="cls-6" x1="9.83" y1="405.69" x2="2.93" y2="398.78"/><line class="cls-6" x1="0.62" y1="396.48" x2="0.5" y2="396.35"/><line class="cls-6" x1="17.86" y1="389.2" x2="15.18" y2="386.53"/><line class="cls-6" x1="12.88" y1="384.22" x2="5.97" y2="377.32"/><line class="cls-6" x1="3.67" y1="375.02" x2="0.5" y2="371.84"/><line class="cls-6" x1="15.93" y1="362.7" x2="9.02" y2="355.8"/><line class="cls-6" x1="6.72" y1="353.49" x2="0.5" y2="347.27"/><line class="cls-6" x1="17.86" y1="340.06" x2="12.13" y2="334.33"/><line class="cls-6" x1="9.83" y1="332.03" x2="2.93" y2="325.13"/><line class="cls-6" x1="0.62" y1="322.83" x2="0.5" y2="322.7"/><line class="cls-6" x1="17.86" y1="315.49" x2="15.18" y2="312.81"/><line class="cls-6" x1="12.88" y1="310.51" x2="5.97" y2="303.6"/><line class="cls-6" x1="3.67" y1="301.3" x2="0.5" y2="298.13"/><line class="cls-6" x1="15.93" y1="289.05" x2="9.02" y2="282.14"/><line class="cls-6" x1="6.72" y1="279.84" x2="0.5" y2="273.56"/><line class="cls-6" x1="17.86" y1="266.4" x2="12.13" y2="260.62"/><line class="cls-6" x1="9.83" y1="258.32" x2="2.93" y2="251.41"/><line class="cls-6" x1="0.62" y1="249.11" x2="0.5" y2="249.05"/><line class="cls-6" x1="17.86" y1="241.83" x2="15.18" y2="239.16"/><line class="cls-6" x1="12.88" y1="236.85" x2="5.97" y2="229.95"/><line class="cls-6" x1="3.67" y1="227.65" x2="0.5" y2="224.48"/><line class="cls-6" x1="15.93" y1="215.33" x2="9.71" y2="209.11"/><line class="cls-6" x1="17.86" y1="712.74" x2="17.86" y2="521.7"/><line class="cls-6" x1="17.86" y1="514.73" x2="17.86" y2="495.64"/><line class="cls-6" x1="17.86" y1="408.8" x2="17.86" y2="209.11"/><line class="cls-6" x1="0.5" y1="209.11" x2="0.5" y2="408.8"/><line class="cls-6" x1="0.5" y1="495.64" x2="0.5" y2="514.73"/><line class="cls-6" x1="0.5" y1="521.7" x2="0.5" y2="643.26"/><line class="cls-6" x1="2.68" y1="730.1" x2="2.68" y2="730.1"/><line class="cls-6" x1="14.93" y1="730.1" x2="14.93" y2="730.1"/><line class="cls-6" x1="14.43" y1="520.83" x2="8.34" y2="514.73"/><line class="cls-6" x1="2.99" y1="521.7" x2="0.5" y2="519.21"/><line class="cls-6" x1="17.86" y1="521.7" x2="17.86" y2="514.73"/><line class="cls-6" x1="0.5" y1="514.73" x2="0.5" y2="521.7"/><line class="cls-6" x1="330.45" y1="689.48" x2="330.45" y2="689.48"/><line class="cls-6" x1="330.45" y1="664.97" x2="330.45" y2="664.97"/><line class="cls-6" x1="330.45" y1="640.39" x2="326.78" y2="636.72"/><line class="cls-6" x1="324.48" y1="634.42" x2="317.57" y2="627.52"/><line class="cls-6" x1="315.27" y1="625.22" x2="313.09" y2="623.04"/><line class="cls-6" x1="330.45" y1="615.82" x2="329.89" y2="615.2"/><line class="cls-6" x1="327.59" y1="612.9" x2="320.68" y2="605.99"/><line class="cls-6" x1="318.38" y1="603.69" x2="313.09" y2="598.47"/><line class="cls-6" x1="330.45" y1="591.25" x2="323.73" y2="584.53"/><line class="cls-6" x1="321.43" y1="582.23" x2="314.52" y2="575.32"/><line class="cls-6" x1="330.45" y1="566.68" x2="326.78" y2="563.01"/><line class="cls-6" x1="324.48" y1="560.71" x2="317.57" y2="553.8"/><line class="cls-6" x1="315.27" y1="551.5" x2="313.09" y2="549.32"/><line class="cls-6" x1="330.45" y1="542.17" x2="329.89" y2="541.55"/><line class="cls-6" x1="327.59" y1="539.24" x2="320.68" y2="532.34"/><line class="cls-6" x1="318.38" y1="530.04" x2="313.09" y2="524.75"/><line class="cls-6" x1="330.45" y1="517.6" x2="323.73" y2="510.82"/><line class="cls-6" x1="321.43" y1="508.51" x2="314.52" y2="501.61"/><line class="cls-6" x1="330.45" y1="652.65" x2="330.45" y2="652.65"/><line class="cls-6" x1="321.05" y1="643.26" x2="316.08" y2="638.22"/><line class="cls-6" x1="313.78" y1="635.91" x2="313.09" y2="635.29"/><line class="cls-6" x1="330.45" y1="628.08" x2="328.33" y2="625.96"/><line class="cls-6" x1="326.03" y1="623.66" x2="319.13" y2="616.75"/><line class="cls-6" x1="316.82" y1="614.45" x2="313.09" y2="610.72"/><line class="cls-6" x1="329.08" y1="602.2" x2="322.17" y2="595.23"/><line class="cls-6" x1="319.87" y1="592.93" x2="313.09" y2="586.21"/><line class="cls-6" x1="330.45" y1="579" x2="325.28" y2="573.77"/><line class="cls-6" x1="322.98" y1="571.47" x2="316.08" y2="564.56"/><line class="cls-6" x1="313.78" y1="562.26" x2="313.09" y2="561.64"/><line class="cls-6" x1="330.45" y1="554.42" x2="328.33" y2="552.31"/><line class="cls-6" x1="326.03" y1="550.01" x2="319.13" y2="543.1"/><line class="cls-6" x1="316.82" y1="540.8" x2="313.09" y2="537.07"/><line class="cls-6" x1="329.08" y1="528.48" x2="322.17" y2="521.58"/><line class="cls-6" x1="319.87" y1="519.28" x2="313.09" y2="512.5"/><line class="cls-6" x1="330.45" y1="505.28" x2="325.28" y2="500.12"/><line class="cls-6" x1="322.98" y1="497.81" x2="320.81" y2="495.64"/><line class="cls-6" x1="319.93" y1="408.8" x2="317.57" y2="406.43"/><line class="cls-6" x1="315.27" y1="404.13" x2="313.09" y2="401.95"/><line class="cls-6" x1="330.45" y1="394.8" x2="329.89" y2="394.18"/><line class="cls-6" x1="327.59" y1="391.88" x2="320.68" y2="384.97"/><line class="cls-6" x1="318.38" y1="382.67" x2="313.09" y2="377.44"/><line class="cls-6" x1="330.45" y1="370.23" x2="323.73" y2="363.51"/><line class="cls-6" x1="321.43" y1="361.15" x2="314.52" y2="354.24"/><line class="cls-6" x1="330.45" y1="345.66" x2="326.78" y2="341.99"/><line class="cls-6" x1="324.48" y1="339.68" x2="317.57" y2="332.78"/><line class="cls-6" x1="315.27" y1="330.48" x2="313.09" y2="328.3"/><line class="cls-6" x1="330.45" y1="321.08" x2="329.89" y2="320.52"/><line class="cls-6" x1="327.59" y1="318.22" x2="320.68" y2="311.32"/><line class="cls-6" x1="318.38" y1="309.02" x2="313.09" y2="303.73"/><line class="cls-6" x1="330.45" y1="296.57" x2="323.73" y2="289.79"/><line class="cls-6" x1="321.43" y1="287.49" x2="314.52" y2="280.59"/><line class="cls-6" x1="330.45" y1="272" x2="326.78" y2="268.33"/><line class="cls-6" x1="324.48" y1="266.03" x2="317.57" y2="259.13"/><line class="cls-6" x1="315.27" y1="256.82" x2="313.09" y2="254.65"/><line class="cls-6" x1="330.45" y1="247.43" x2="329.89" y2="246.81"/><line class="cls-6" x1="327.59" y1="244.51" x2="320.68" y2="237.6"/><line class="cls-6" x1="318.38" y1="235.3" x2="313.09" y2="230.07"/><line class="cls-6" x1="330.45" y1="222.86" x2="323.73" y2="216.14"/><line class="cls-6" x1="321.43" y1="213.84" x2="316.7" y2="209.11"/><line class="cls-6" x1="330.45" y1="407.05" x2="328.33" y2="404.94"/><line class="cls-6" x1="326.03" y1="402.64" x2="319.13" y2="395.73"/><line class="cls-6" x1="316.82" y1="393.43" x2="313.09" y2="389.7"/><line class="cls-6" x1="329.08" y1="381.11" x2="322.17" y2="374.21"/><line class="cls-6" x1="319.87" y1="371.91" x2="313.09" y2="365.13"/><line class="cls-6" x1="330.45" y1="357.97" x2="325.28" y2="352.75"/><line class="cls-6" x1="322.98" y1="350.45" x2="316.08" y2="343.54"/><line class="cls-6" x1="313.78" y1="341.24" x2="313.09" y2="340.55"/><line class="cls-6" x1="330.45" y1="333.4" x2="328.33" y2="331.22"/><line class="cls-6" x1="326.03" y1="328.92" x2="319.13" y2="322.02"/><line class="cls-6" x1="316.82" y1="319.72" x2="313.09" y2="316.04"/><line class="cls-6" x1="329.08" y1="307.46" x2="322.17" y2="300.56"/><line class="cls-6" x1="319.87" y1="298.25" x2="313.09" y2="291.47"/><line class="cls-6" x1="330.45" y1="284.26" x2="325.28" y2="279.03"/><line class="cls-6" x1="322.98" y1="276.73" x2="316.08" y2="269.82"/><line class="cls-6" x1="313.78" y1="267.52" x2="313.09" y2="266.9"/><line class="cls-6" x1="330.45" y1="259.69" x2="328.33" y2="257.57"/><line class="cls-6" x1="326.03" y1="255.27" x2="319.13" y2="248.36"/><line class="cls-6" x1="316.82" y1="246.06" x2="313.09" y2="242.33"/><line class="cls-6" x1="329.08" y1="233.74" x2="322.17" y2="226.84"/><line class="cls-6" x1="319.87" y1="224.54" x2="313.09" y2="217.76"/><line class="cls-6" x1="330.45" y1="210.6" x2="328.95" y2="209.11"/><line class="cls-6" x1="330.45" y1="654.51" x2="330.45" y2="495.64"/><line class="cls-6" x1="330.45" y1="408.8" x2="330.45" y2="209.11"/><line class="cls-6" x1="313.09" y1="209.11" x2="313.09" y2="408.8"/><line class="cls-6" x1="313.09" y1="495.64" x2="313.09" y2="643.26"/><line class="cls-6" x1="262.77" y1="518.09" x2="266.13" y2="514.73"/><line class="cls-6" x1="264.01" y1="480.02" x2="268.3" y2="475.67"/><polyline class="cls-6" points="262.77 480.02 266.25 480.02 269.67 480.02"/><polyline class="cls-6" points="262.77 514.74 266.25 514.74 269.67 514.74"/><line class="cls-6" x1="269.67" y1="480.02" x2="269.67" y2="475.67"/><line class="cls-6" x1="262.77" y1="475.67" x2="262.77" y2="480.02"/><line class="cls-6" x1="262.77" y1="514.73" x2="262.77" y2="521.7"/><line class="cls-6" x1="262.77" y1="514.73" x2="262.77" y2="480.02"/><line class="cls-6" x1="269.67" y1="514.73" x2="269.67" y2="480.02"/><path class="cls-6" d="M250.76,541a34.66,34.66,0,0,0,11.88,2.1" transform="translate(0.09 -28.34)"/><line class="cls-6" x1="262.77" y1="480.02" x2="250.88" y2="512.62"/><polyline class="cls-6" points="269.67 514.74 266.25 514.74 262.77 514.74 266.25 514.74"/><polyline class="cls-6" points="269.67 480.02 266.25 480.02 262.77 480.02 266.25 480.02"/><line class="cls-6" x1="265.32" y1="521.7" x2="269.67" y2="517.29"/><line class="cls-6" x1="262.77" y1="521.7" x2="269.67" y2="521.7"/><line class="cls-6" x1="19.66" y1="521.7" x2="26.63" y2="514.73"/><line class="cls-6" x1="31.98" y1="521.7" x2="35.27" y2="518.41"/><line class="cls-6" x1="117.95" y1="521.7" x2="124.85" y2="514.73"/><line class="cls-6" x1="130.2" y1="521.7" x2="137.17" y2="514.73"/><line class="cls-6" x1="142.52" y1="521.7" x2="149.42" y2="514.73"/><line class="cls-6" x1="17.86" y1="521.7" x2="17.86" y2="514.73"/><line class="cls-6" x1="0.5" y1="514.73" x2="0.5" y2="521.7"/><line class="cls-6" x1="113.41" y1="514.73" x2="113.41" y2="521.7"/><polyline class="cls-6" points="35.27 514.74 35.27 521.7 17.86 521.7"/><polyline class="cls-6" points="113.41 521.7 154.21 521.7 154.21 514.74 113.41 514.74"/><line class="cls-6" x1="35.27" y1="514.73" x2="17.86" y2="514.73"/><line class="cls-3" x1="35.03" y1="514.73" x2="37.03" y2="514.73"/><line class="cls-7" x1="40.94" y1="514.73" x2="109.45" y2="514.73"/><line class="cls-3" x1="111.41" y1="514.73" x2="113.41" y2="514.73"/><line class="cls-3" x1="35.03" y1="521.7" x2="37.03" y2="521.7"/><line class="cls-7" x1="40.94" y1="521.7" x2="109.45" y2="521.7"/><line class="cls-3" x1="111.41" y1="521.7" x2="113.41" y2="521.7"/><line class="cls-6" x1="154.21" y1="479.28" x2="157.82" y2="475.67"/><line class="cls-6" x1="154.21" y1="485.44" x2="161.18" y2="478.47"/><line class="cls-6" x1="154.21" y1="491.53" x2="161.18" y2="484.63"/><line class="cls-6" x1="154.21" y1="497.69" x2="161.18" y2="490.72"/><line class="cls-6" x1="154.21" y1="503.85" x2="161.18" y2="496.88"/><line class="cls-6" x1="154.21" y1="509.95" x2="161.18" y2="503.04"/><line class="cls-6" x1="154.21" y1="516.1" x2="161.18" y2="509.14"/><line class="cls-6" x1="154.21" y1="522.26" x2="161.18" y2="515.29"/><line class="cls-6" x1="154.21" y1="528.42" x2="161.18" y2="521.45"/><line class="cls-6" x1="154.21" y1="534.52" x2="161.18" y2="527.61"/><line class="cls-6" x1="154.21" y1="540.68" x2="161.18" y2="533.71"/><line class="cls-6" x1="154.21" y1="546.83" x2="161.18" y2="539.87"/><line class="cls-6" x1="154.21" y1="552.93" x2="161.18" y2="546.03"/><line class="cls-6" x1="154.21" y1="559.09" x2="161.18" y2="552.12"/><line class="cls-6" x1="154.21" y1="565.25" x2="161.18" y2="558.28"/><line class="cls-6" x1="154.21" y1="571.34" x2="161.18" y2="564.44"/><line class="cls-6" x1="154.21" y1="577.5" x2="161.18" y2="570.53"/><line class="cls-6" x1="154.21" y1="583.66" x2="161.18" y2="576.69"/><line class="cls-6" x1="158.94" y1="585.09" x2="161.18" y2="582.85"/><line class="cls-6" x1="154.21" y1="651.22" x2="159.56" y2="645.87"/><line class="cls-6" x1="154.21" y1="657.31" x2="161.18" y2="650.41"/><line class="cls-6" x1="154.21" y1="663.47" x2="161.18" y2="656.51"/><line class="cls-6" x1="154.21" y1="669.63" x2="161.18" y2="662.66"/><line class="cls-6" x1="154.21" y1="675.73" x2="161.18" y2="668.82"/><line class="cls-6" x1="154.21" y1="681.89" x2="161.18" y2="674.92"/><line class="cls-6" x1="154.21" y1="688.04" x2="161.18" y2="681.08"/><line class="cls-6" x1="154.21" y1="694.14" x2="161.18" y2="687.24"/><line class="cls-6" x1="154.21" y1="700.3" x2="161.18" y2="693.39"/><line class="cls-6" x1="154.21" y1="706.46" x2="161.18" y2="699.49"/><line class="cls-6" x1="154.21" y1="712.62" x2="161.18" y2="705.65"/><line class="cls-6" x1="160.19" y1="712.74" x2="161.18" y2="711.81"/><line class="cls-6" x1="154.21" y1="473.12" x2="156.39" y2="470.94"/><line class="cls-6" x1="157.82" y1="475.67" x2="159.5" y2="473.99"/><line class="cls-6" x1="161.18" y1="645.87" x2="154.21" y2="645.87"/><polyline class="cls-6" points="161.18 585.09 154.21 585.09 154.21 468.7"/><polyline class="cls-6" points="154.21 645.87 154.21 712.74 161.18 712.74 161.18 645.87"/><line class="cls-6" x1="161.18" y1="585.09" x2="161.18" y2="475.67"/><line class="cls-3" x1="154.21" y1="582.85" x2="154.21" y2="584.85"/><line class="cls-8" x1="154.21" y1="588.79" x2="154.21" y2="641.9"/><line class="cls-3" x1="154.21" y1="643.87" x2="154.21" y2="645.87"/><line class="cls-3" x1="161.18" y1="582.85" x2="161.18" y2="584.85"/><line class="cls-8" x1="161.18" y1="588.79" x2="161.18" y2="641.9"/><line class="cls-3" x1="161.18" y1="643.87" x2="161.18" y2="645.87"/><line class="cls-6" x1="156.39" y1="470.94" x2="158.63" y2="468.7"/><line class="cls-6" x1="159.5" y1="473.99" x2="161.18" y2="472.31"/><line class="cls-6" x1="154.21" y1="468.7" x2="161.18" y2="468.7"/><line class="cls-6" x1="269.67" y1="517.29" x2="272.22" y2="514.73"/><line class="cls-6" x1="271.41" y1="521.7" x2="278.38" y2="514.73"/><line class="cls-6" x1="277.57" y1="521.7" x2="284.54" y2="514.73"/><line class="cls-6" x1="283.73" y1="521.7" x2="290.63" y2="514.73"/><line class="cls-6" x1="289.83" y1="521.7" x2="296.79" y2="514.73"/><line class="cls-6" x1="295.98" y1="521.7" x2="302.95" y2="514.73"/><line class="cls-6" x1="302.14" y1="521.7" x2="309.05" y2="514.73"/><line class="cls-6" x1="308.24" y1="521.7" x2="313.09" y2="516.85"/><line class="cls-6" x1="313.09" y1="514.73" x2="269.67" y2="514.73"/><polyline class="cls-6" points="269.67 521.7 313.09 521.7 313.09 514.74"/><line class="cls-6" x1="161.18" y1="472.31" x2="164.73" y2="468.7"/><line class="cls-6" x1="163.92" y1="475.67" x2="170.89" y2="468.7"/><line class="cls-6" x1="170.08" y1="475.67" x2="177.04" y2="468.7"/><line class="cls-6" x1="176.24" y1="475.67" x2="183.2" y2="468.7"/><line class="cls-6" x1="182.39" y1="475.67" x2="189.3" y2="468.7"/><line class="cls-6" x1="188.49" y1="475.67" x2="195.46" y2="468.7"/><line class="cls-6" x1="194.65" y1="475.67" x2="201.62" y2="468.7"/><line class="cls-6" x1="200.81" y1="475.67" x2="207.71" y2="468.7"/><line class="cls-6" x1="206.9" y1="475.67" x2="213.87" y2="468.7"/><line class="cls-6" x1="213.06" y1="475.67" x2="220.03" y2="468.7"/><line class="cls-6" x1="219.22" y1="475.67" x2="226.13" y2="468.7"/><line class="cls-6" x1="225.38" y1="475.67" x2="232.28" y2="468.7"/><line class="cls-6" x1="231.48" y1="475.67" x2="238.44" y2="468.7"/><line class="cls-6" x1="237.63" y1="475.67" x2="244.6" y2="468.7"/><line class="cls-6" x1="243.79" y1="475.67" x2="250.7" y2="468.7"/><line class="cls-6" x1="249.89" y1="475.67" x2="256.86" y2="468.7"/><line class="cls-6" x1="256.05" y1="475.67" x2="263.01" y2="468.7"/><line class="cls-6" x1="262.21" y1="475.67" x2="269.11" y2="468.7"/><line class="cls-6" x1="268.3" y1="475.67" x2="275.27" y2="468.7"/><line class="cls-6" x1="274.46" y1="475.67" x2="281.43" y2="468.7"/><line class="cls-6" x1="280.62" y1="475.67" x2="287.59" y2="468.7"/><line class="cls-6" x1="286.78" y1="475.67" x2="293.68" y2="468.7"/><line class="cls-6" x1="292.87" y1="475.67" x2="299.84" y2="468.7"/><line class="cls-6" x1="299.03" y1="475.67" x2="306" y2="468.7"/><line class="cls-6" x1="305.19" y1="475.67" x2="312.1" y2="468.7"/><line class="cls-6" x1="311.29" y1="475.67" x2="313.09" y2="473.86"/><line class="cls-6" x1="161.18" y1="475.67" x2="262.77" y2="475.67"/><line class="cls-6" x1="269.67" y1="475.67" x2="313.09" y2="475.67"/><line class="cls-6" x1="313.09" y1="468.7" x2="161.18" y2="468.7"/><line class="cls-6" x1="330.63" y1="665.09" x2="330.45" y2="664.97"/><line class="cls-6" x1="267" y1="699.68" x2="265.38" y2="698.12"/><line class="cls-6" x1="263.08" y1="695.82" x2="256.17" y2="688.92"/><line class="cls-6" x1="253.87" y1="686.61" x2="249.64" y2="682.32"/><line class="cls-6" x1="291.57" y1="699.68" x2="286.9" y2="695.01"/><line class="cls-6" x1="284.6" y1="692.71" x2="277.7" y2="685.81"/><line class="cls-6" x1="275.39" y1="683.5" x2="274.21" y2="682.32"/><line class="cls-6" x1="313.09" y1="696.69" x2="308.36" y2="691.96"/><line class="cls-6" x1="306.06" y1="689.66" x2="299.16" y2="682.76"/><line class="cls-6" x1="254.68" y1="699.68" x2="254.68" y2="699.62"/><line class="cls-6" x1="252.38" y1="697.31" x2="247.96" y2="692.96"/><line class="cls-6" x1="279.25" y1="699.68" x2="276.14" y2="696.57"/><line class="cls-6" x1="273.84" y1="694.27" x2="266.93" y2="687.36"/><line class="cls-6" x1="264.63" y1="685.06" x2="261.9" y2="682.32"/><line class="cls-6" x1="303.82" y1="699.68" x2="297.6" y2="693.52"/><line class="cls-6" x1="295.3" y1="691.22" x2="288.4" y2="684.31"/><line class="cls-6" x1="313.09" y1="684.44" x2="311.04" y2="682.32"/><line class="cls-6" x1="247.96" y1="692.96" x2="245.47" y2="690.41"/><line class="cls-6" x1="243.11" y1="688.11" x2="237.32" y2="682.32"/><line class="cls-6" x1="313.09" y1="682.32" x2="230.6" y2="682.32"/><line class="cls-6" x1="247.96" y1="699.68" x2="313.09" y2="699.68"/><line class="cls-6" x1="241.62" y1="698.87" x2="234.71" y2="691.96"/><line class="cls-6" x1="232.41" y1="689.66" x2="230.6" y2="687.86"/><line class="cls-6" x1="230.6" y1="682.32" x2="230.6" y2="699.68"/><line class="cls-6" x1="247.96" y1="705.28" x2="243.92" y2="701.17"/><line class="cls-6" x1="243.17" y1="712.74" x2="242.36" y2="711.93"/><line class="cls-6" x1="240.06" y1="709.63" x2="233.16" y2="702.73"/><line class="cls-6" x1="230.85" y1="700.42" x2="230.6" y2="700.17"/><line class="cls-6" x1="247.77" y1="729.6" x2="240.81" y2="722.69"/><line class="cls-6" x1="238.51" y1="720.39" x2="231.6" y2="713.43"/><line class="cls-6" x1="247.96" y1="717.53" x2="243.17" y2="712.74"/><line class="cls-6" x1="230.6" y1="699.68" x2="230.6" y2="712.74"/><line class="cls-6" x1="247.96" y1="730.1" x2="247.96" y2="699.68"/><line class="cls-6" x1="235.95" y1="730.1" x2="230.6" y2="724.75"/><line class="cls-6" x1="247.96" y1="730.1" x2="230.6" y2="730.1"/><line class="cls-6" x1="247.96" y1="723.19" x2="248.02" y2="723.13"/><line class="cls-6" x1="125.47" y1="730.1" x2="124.17" y2="728.79"/><line class="cls-6" x1="121.87" y1="726.49" x2="114.96" y2="719.58"/><line class="cls-6" x1="112.66" y1="717.28" x2="109.05" y2="713.67"/><line class="cls-6" x1="150.05" y1="730.1" x2="145.69" y2="725.74"/><line class="cls-6" x1="143.39" y1="723.44" x2="136.49" y2="716.54"/><line class="cls-6" x1="134.18" y1="714.23" x2="132.63" y2="712.74"/><line class="cls-6" x1="174.06" y1="729.6" x2="167.15" y2="722.69"/><line class="cls-6" x1="164.85" y1="720.39" x2="157.95" y2="713.43"/><line class="cls-6" x1="199.13" y1="730.1" x2="197.88" y2="728.79"/><line class="cls-6" x1="195.58" y1="726.49" x2="188.68" y2="719.58"/><line class="cls-6" x1="186.31" y1="717.28" x2="181.77" y2="712.74"/><line class="cls-6" x1="223.7" y1="730.1" x2="219.35" y2="725.74"/><line class="cls-6" x1="217.04" y1="723.44" x2="210.14" y2="716.54"/><line class="cls-6" x1="207.84" y1="714.23" x2="206.34" y2="712.74"/><line class="cls-6" x1="111.1" y1="728.04" x2="109.05" y2="725.99"/><line class="cls-6" x1="137.73" y1="730.1" x2="134.93" y2="727.3"/><line class="cls-6" x1="132.63" y1="725" x2="125.72" y2="718.09"/><line class="cls-6" x1="123.42" y1="715.79" x2="120.37" y2="712.74"/><line class="cls-6" x1="162.3" y1="730.1" x2="156.39" y2="724.19"/><line class="cls-6" x1="154.09" y1="721.89" x2="147.18" y2="714.98"/><line class="cls-6" x1="184.82" y1="728.04" x2="177.92" y2="721.14"/><line class="cls-6" x1="175.61" y1="718.84" x2="169.52" y2="712.74"/><line class="cls-6" x1="211.44" y1="730.1" x2="208.58" y2="727.3"/><line class="cls-6" x1="206.28" y1="725" x2="199.38" y2="718.09"/><line class="cls-6" x1="197.08" y1="715.79" x2="194.03" y2="712.74"/><line class="cls-6" x1="230.6" y1="724.75" x2="230.11" y2="724.19"/><line class="cls-6" x1="227.81" y1="721.89" x2="220.9" y2="714.98"/><polyline class="cls-6" points="17.86 730.1 17.86 723.13 17.86 712.74"/><polyline class="cls-6" points="109.05 730.1 109.05 723.13 109.05 712.74"/><line class="cls-6" x1="0.5" y1="730.1" x2="17.86" y2="730.1"/><line class="cls-6" x1="109.05" y1="730.1" x2="230.6" y2="730.1"/><line class="cls-6" x1="230.6" y1="712.74" x2="109.05" y2="712.74"/><path class="cls-6" d="M105.48,751.44a79.91,79.91,0,0,0-79.91-79.91" transform="translate(0.09 -28.34)"/><line class="cls-6" x1="22.21" y1="723.13" x2="17.86" y2="723.13"/><polyline class="cls-6" points="22.21 730.1 17.86 730.1 17.86 723.13"/><polyline class="cls-6" points="109.05 730.1 105.57 730.1 105.57 723.13 109.05 723.13 109.05 730.1"/><polyline class="cls-6" points="22.21 723.13 25.69 723.13 25.69 730.1 22.21 730.1 22.21 723.13"/><line class="cls-6" x1="25.69" y1="723.13" x2="25.69" y2="643.26"/><polyline class="cls-6" points="109.05 712.74 109.05 723.13 109.05 730.1 109.05 723.13"/><polyline class="cls-6" points="17.86 712.74 17.86 723.13 17.86 730.1 17.86 723.13"/><line class="cls-6" x1="0.69" y1="122.27" x2="3.17" y2="117.91"/><line class="cls-6" x1="5.66" y1="122.27" x2="8.21" y2="117.91"/><line class="cls-6" x1="10.7" y1="122.27" x2="13.19" y2="117.91"/><line class="cls-6" x1="15.74" y1="122.27" x2="17.86" y2="118.54"/><line class="cls-6" x1="3.86" y1="122.27" x2="1.31" y2="117.91"/><line class="cls-6" x1="8.84" y1="122.27" x2="6.35" y2="117.91"/><line class="cls-6" x1="13.87" y1="122.27" x2="11.32" y2="117.91"/><line class="cls-6" x1="17.86" y1="120.53" x2="16.3" y2="117.79"/><line class="cls-6" x1="0.5" y1="113.87" x2="0.69" y2="113.56"/><line class="cls-6" x1="3.17" y1="117.91" x2="5.66" y2="113.56"/><line class="cls-6" x1="8.21" y1="117.91" x2="10.7" y2="113.56"/><line class="cls-6" x1="13.19" y1="117.91" x2="15.31" y2="114.31"/><line class="cls-6" x1="1.31" y1="117.91" x2="0.5" y2="116.48"/><line class="cls-6" x1="6.35" y1="117.91" x2="3.86" y2="113.56"/><line class="cls-6" x1="11.32" y1="117.91" x2="8.84" y2="113.56"/><line class="cls-6" x1="15.55" y1="116.48" x2="13.87" y2="113.56"/><line class="cls-6" x1="15.31" y1="114.31" x2="15.74" y2="113.56"/><line class="cls-6" x1="16.3" y1="117.79" x2="15.55" y2="116.48"/><polyline class="cls-6" points="0.5 108.4 0.5 122.27 17.86 122.27 17.86 117.48"/><line class="cls-6" x1="313.09" y1="119.47" x2="314.02" y2="117.91"/><line class="cls-6" x1="316.51" y1="122.27" x2="319" y2="117.91"/><line class="cls-6" x1="321.55" y1="122.27" x2="324.04" y2="117.91"/><line class="cls-6" x1="326.53" y1="122.27" x2="329.02" y2="117.91"/><line class="cls-6" x1="314.65" y1="122.27" x2="313.09" y2="119.59"/><line class="cls-6" x1="319.69" y1="122.27" x2="317.14" y2="117.91"/><line class="cls-6" x1="324.66" y1="122.27" x2="322.17" y2="117.91"/><line class="cls-6" x1="329.7" y1="122.27" x2="327.21" y2="117.91"/><polyline class="cls-6" points="313.09 117.92 313.09 122.27 330.45 122.27 330.45 108.7"/><line class="cls-6" x1="308.8" y1="414.02" x2="261.02" y2="414.02"/><line class="cls-6" x1="261.02" y1="414.02" x2="261.02" y2="461.8"/><line class="cls-6" x1="261.02" y1="461.8" x2="308.8" y2="461.8"/><line class="cls-6" x1="308.8" y1="461.8" x2="308.8" y2="414.02"/><line class="cls-6" x1="304.44" y1="418.38" x2="265.38" y2="418.38"/><line class="cls-6" x1="265.38" y1="418.38" x2="265.38" y2="453.09"/><line class="cls-6" x1="265.38" y1="453.09" x2="304.44" y2="453.09"/><line class="cls-6" x1="304.44" y1="453.09" x2="304.44" y2="418.38"/><line class="cls-6" x1="174.18" y1="475.67" x2="221.09" y2="475.67"/><line class="cls-6" x1="221.09" y1="475.67" x2="221.09" y2="495.51"/><line class="cls-6" x1="174.18" y1="475.67" x2="174.18" y2="495.51"/><line class="cls-6" x1="205.04" y1="475.67" x2="190.23" y2="475.67"/><line class="cls-6" x1="201.55" y1="491.59" x2="199.07" y2="491.59"/><line class="cls-6" x1="197.63" y1="487.61" x2="197.63" y2="490.16"/><line class="cls-6" x1="196.14" y1="491.59" x2="193.65" y2="491.59"/><line class="cls-6" x1="197.63" y1="493.02" x2="197.63" y2="495.51"/><path class="cls-6" d="M185.07,515.13A20.9,20.9,0,0,0,177,525" transform="translate(0.09 -28.34)"/><path class="cls-6" d="M197.51,512.23a20.91,20.91,0,0,0-12.45,2.92" transform="translate(0.09 -28.34)"/><path class="cls-6" d="M218,525a20.9,20.9,0,0,0-8.09-9.9" transform="translate(0.09 -28.34)"/><path class="cls-6" d="M210,515.15a20.88,20.88,0,0,0-12.44-2.92" transform="translate(0.09 -28.34)"/><path class="cls-6" d="M181.62,535.67a38.44,38.44,0,0,0,14.24,3.88" transform="translate(0.09 -28.34)"/><path class="cls-6" d="M216.48,533.61a11.93,11.93,0,0,0,4.44-9.8" transform="translate(0.09 -28.34)"/><path class="cls-6" d="M195.87,539.47a22.44,22.44,0,0,0,3.28,0" transform="translate(0.09 -28.34)"/><path class="cls-6" d="M210.62,515.91a85.45,85.45,0,0,0-26.23,0" transform="translate(0.09 -28.34)"/><path class="cls-6" d="M219.75,526.88a29.53,29.53,0,0,0-6.66-19.19" transform="translate(0.09 -28.34)"/><path class="cls-6" d="M210.92,506.4a58.77,58.77,0,0,0-13.42-1.46" transform="translate(0.09 -28.34)"/><path class="cls-6" d="M213.09,507.74a3.9,3.9,0,0,0-2.15-1.33" transform="translate(0.09 -28.34)"/><path class="cls-6" d="M210.74,507.76a100.83,100.83,0,0,0-13.22-.95" transform="translate(0.09 -28.34)"/><path class="cls-6" d="M219.69,526.91a26.48,26.48,0,0,0-6.61-17.85" transform="translate(0.09 -28.34)"/><path class="cls-6" d="M213.12,509.06a3.9,3.9,0,0,0-2.38-1.28" transform="translate(0.09 -28.34)"/><path class="cls-6" d="M181.91,509a26.5,26.5,0,0,0-6.64,17.84" transform="translate(0.09 -28.34)"/><path class="cls-6" d="M181.9,507.66a29.51,29.51,0,0,0-6.69,19.18" transform="translate(0.09 -28.34)"/><path class="cls-6" d="M197.51,506.81a100.66,100.66,0,0,0-13.21.93" transform="translate(0.09 -28.34)"/><path class="cls-6" d="M197.54,505a58.75,58.75,0,0,0-13.42,1.43" transform="translate(0.09 -28.34)"/><path class="cls-6" d="M184.29,507.72a3.86,3.86,0,0,0-2.38,1.27" transform="translate(0.09 -28.34)"/><path class="cls-6" d="M184.09,506.41a3.85,3.85,0,0,0-2.15,1.33" transform="translate(0.09 -28.34)"/><path class="cls-6" d="M174,523.81a11.91,11.91,0,0,0,4.45,9.8" transform="translate(0.09 -28.34)"/><path class="cls-6" d="M178.52,533.62a18.16,18.16,0,0,0,3.11,2" transform="translate(0.09 -28.34)"/><path class="cls-6" d="M213.33,535.63a18.16,18.16,0,0,0,3.11-2" transform="translate(0.09 -28.34)"/><path class="cls-6" d="M199.16,539.55a38.49,38.49,0,0,0,14.25-3.88" transform="translate(0.09 -28.34)"/><path class="cls-6" d="M191.07,536.21a27.23,27.23,0,0,0,12.88,0" transform="translate(0.09 -28.34)"/><path class="cls-6" d="M177,525a7,7,0,0,0,2.41,5.78" transform="translate(0.09 -28.34)"/><path class="cls-6" d="M179.37,530.8a25.42,25.42,0,0,0,11.68,5.36" transform="translate(0.09 -28.34)"/><path class="cls-6" d="M215.65,530.8a7,7,0,0,0,2.4-5.78" transform="translate(0.09 -28.34)"/><path class="cls-6" d="M203.91,536.16a25.42,25.42,0,0,0,11.68-5.36" transform="translate(0.09 -28.34)"/><path class="cls-6" d="M200.53,519.9a3,3,0,1,0-3,3,3,3,0,0,0,3-3" transform="translate(0.09 -28.34)"/><path class="cls-6" d="M199.66,519.9a2.15,2.15,0,1,0-2.15,2.15,2.14,2.14,0,0,0,2.15-2.15" transform="translate(0.09 -28.34)"/><line class="cls-6" x1="299.78" y1="574.21" x2="269.11" y2="574.21"/><line class="cls-6" x1="313.09" y1="575.51" x2="313.09" y2="542.54"/><line class="cls-6" x1="313.09" y1="575.51" x2="301.58" y2="575.51"/><line class="cls-6" x1="294.37" y1="559.03" x2="294.37" y2="546.77"/><line class="cls-6" x1="269.17" y1="574.21" x2="294.37" y2="571.28"/><line class="cls-6" x1="294.37" y1="559.03" x2="294.37" y2="571.28"/><line class="cls-6" x1="269.17" y1="543.85" x2="294.37" y2="546.77"/><line class="cls-6" x1="269.17" y1="573.46" x2="294.37" y2="570.47"/><line class="cls-6" x1="269.17" y1="544.59" x2="294.37" y2="547.58"/><line class="cls-6" x1="299.78" y1="543.85" x2="269.11" y2="543.85"/><line class="cls-6" x1="313.09" y1="542.54" x2="301.58" y2="542.54"/><line class="cls-6" x1="269.17" y1="574.21" x2="265.75" y2="573.77"/><line class="cls-6" x1="265.75" y1="573.77" x2="262.52" y2="572.46"/><line class="cls-6" x1="262.52" y1="572.46" x2="259.72" y2="570.41"/><line class="cls-6" x1="259.72" y1="570.41" x2="257.48" y2="567.67"/><line class="cls-6" x1="257.48" y1="567.67" x2="255.86" y2="564.44"/><line class="cls-6" x1="255.86" y1="564.44" x2="255.05" y2="560.89"/><line class="cls-6" x1="255.05" y1="560.89" x2="255.05" y2="557.22"/><line class="cls-6" x1="255.05" y1="557.22" x2="255.86" y2="553.61"/><line class="cls-6" x1="255.86" y1="553.61" x2="257.48" y2="550.38"/><line class="cls-6" x1="257.48" y1="550.38" x2="259.72" y2="547.64"/><line class="cls-6" x1="259.72" y1="547.64" x2="262.52" y2="545.59"/><line class="cls-6" x1="262.52" y1="545.59" x2="265.75" y2="544.28"/><line class="cls-6" x1="265.75" y1="544.28" x2="269.17" y2="543.85"/><line class="cls-6" x1="269.17" y1="573.46" x2="265.94" y2="573.02"/><line class="cls-6" x1="265.94" y1="573.02" x2="262.89" y2="571.78"/><line class="cls-6" x1="262.89" y1="571.78" x2="260.22" y2="569.79"/><line class="cls-6" x1="260.22" y1="569.79" x2="258.1" y2="567.24"/><line class="cls-6" x1="258.1" y1="567.24" x2="256.61" y2="564.13"/><line class="cls-6" x1="256.61" y1="564.13" x2="255.8" y2="560.77"/><line class="cls-6" x1="255.8" y1="560.77" x2="255.8" y2="557.28"/><line class="cls-6" x1="255.8" y1="557.28" x2="256.61" y2="553.93"/><line class="cls-6" x1="256.61" y1="553.93" x2="258.1" y2="550.82"/><line class="cls-6" x1="258.1" y1="550.82" x2="260.22" y2="548.26"/><line class="cls-6" x1="260.22" y1="548.26" x2="262.89" y2="546.27"/><line class="cls-6" x1="262.89" y1="546.27" x2="265.94" y2="545.03"/><line class="cls-6" x1="265.94" y1="545.03" x2="269.17" y2="544.59"/><path class="cls-6" d="M299.6,572.56a139.19,139.19,0,0,0,0,29.57" transform="translate(0.09 -28.34)"/><path class="cls-6" d="M299.51,602.1a1.94,1.94,0,0,0,1.95,1.69" transform="translate(0.09 -28.34)"/><path class="cls-6" d="M301.46,570.88a1.94,1.94,0,0,0-1.95,1.71" transform="translate(0.09 -28.34)"/><path class="cls-6" d="M307.4,587.34a1.65,1.65,0,1,0-1.65,1.58,1.62,1.62,0,0,0,1.65-1.58" transform="translate(0.09 -28.34)"/><line class="cls-6" x1="300.28" y1="662.35" x2="295.3" y2="662.35"/><line class="cls-6" x1="293.12" y1="664.53" x2="293.12" y2="669.44"/><line class="cls-6" x1="291.01" y1="662.35" x2="286.03" y2="662.35"/><line class="cls-6" x1="293.12" y1="655.26" x2="293.12" y2="660.18"/><line class="cls-6" x1="307.93" y1="608.54" x2="287.09" y2="608.54"/><line class="cls-6" x1="287.9" y1="677.97" x2="240.18" y2="677.97"/><line class="cls-6" x1="239.31" y1="656.26" x2="239.31" y2="677.1"/><line class="cls-6" x1="307.93" y1="608.54" x2="287.09" y2="608.54"/><line class="cls-6" x1="308.8" y1="609.41" x2="308.8" y2="657.13"/><line class="cls-6" x1="312.22" y1="604.19" x2="287.09" y2="604.19"/><line class="cls-6" x1="312.22" y1="682.32" x2="235.83" y2="682.32"/><line class="cls-6" x1="234.96" y1="656.26" x2="234.96" y2="681.45"/><line class="cls-6" x1="313.09" y1="605.06" x2="313.09" y2="681.45"/><path class="cls-6" d="M308.42,686.81a4.27,4.27,0,0,0,.22-1.37" transform="translate(0.09 -28.34)"/><path class="cls-6" d="M308.64,637.72a.84.84,0,0,0-.83-.84" transform="translate(0.09 -28.34)"/><path class="cls-6" d="M308.42,686.81a4.27,4.27,0,0,0,.22-1.37" transform="translate(0.09 -28.34)"/><path class="cls-6" d="M287,632.47a52.09,52.09,0,0,0-52.1,52.1" transform="translate(0.09 -28.34)"/><path class="cls-6" d="M312.94,633.37a.85.85,0,0,0-.84-.84" transform="translate(0.09 -28.34)"/><path class="cls-6" d="M287,636.82a47.75,47.75,0,0,0-47.75,47.75" transform="translate(0.09 -28.34)"/><path class="cls-6" d="M234.87,709.76a.84.84,0,0,0,.84.84" transform="translate(0.09 -28.34)"/><path class="cls-6" d="M239.22,705.41a.85.85,0,0,0,.84.84" transform="translate(0.09 -28.34)"/><path class="cls-6" d="M312.1,710.6a.85.85,0,0,0,.84-.84" transform="translate(0.09 -28.34)"/><path class="cls-6" d="M288.59,706.2a46.83,46.83,0,0,0,19.94-20" transform="translate(0.09 -28.34)"/><path class="cls-6" d="M287.77,706.31a4.3,4.3,0,0,0,1.38-.23" transform="translate(0.09 -28.34)"/><path class="cls-6" d="M289.15,706.09a30.55,30.55,0,0,0,19.28-19.28" transform="translate(0.09 -28.34)"/><path class="cls-6" d="M287.77,706.31a4.3,4.3,0,0,0,1.38-.23" transform="translate(0.09 -28.34)"/><path class="cls-6" d="M293,686.77a3.89,3.89,0,1,0,3.89,3.89,3.89,3.89,0,0,0-3.89-3.89" transform="translate(0.09 -28.34)"/><path class="cls-6" d="M293,685.22a5.45,5.45,0,1,0,5.44,5.44,5.44,5.44,0,0,0-5.44-5.44" transform="translate(0.09 -28.34)"/><polyline class="cls-6" points="265.07 104.91 274.71 58.13 275.14 58.2 265.5 104.98 265.07 104.91"/><polyline class="cls-6" points="273.71 56.58 195.46 40.47 195.52 40.09 273.78 56.14 273.71 56.58"/><polyline class="cls-6" points="193.9 41.52 184.26 88.3 183.82 88.18 193.47 41.4 193.9 41.52"/><polyline class="cls-6" points="263.39 106.78 263.82 104.66 265.94 105.1 265.5 107.22 263.39 106.78"/><polyline class="cls-6" points="273.4 57.88 273.84 55.77 276.02 56.2 275.58 58.32 273.4 57.88"/><polyline class="cls-6" points="195.15 41.77 193.03 41.34 193.47 39.22 195.64 39.66 195.15 41.77"/><polyline class="cls-6" points="185.57 88.55 185.13 90.67 183.02 90.23 183.45 88.12 185.57 88.55"/><line class="cls-6" x1="263.57" y1="105.72" x2="273.4" y2="57.88"/><line class="cls-6" x1="276.02" y1="56.2" x2="265.69" y2="106.16"/><line class="cls-6" x1="273.4" y1="57.88" x2="195.15" y2="41.77"/><line class="cls-6" x1="193.47" y1="39.22" x2="276.02" y2="56.2"/><line class="cls-6" x1="195.15" y1="41.77" x2="185.32" y2="89.61"/><line class="cls-6" x1="183.2" y1="89.17" x2="193.47" y2="39.22"/><polyline class="cls-6" points="265.69 106.16 265.5 107.22 263.39 106.78 263.57 105.72"/><polyline class="cls-6" points="185.32 89.61 185.13 90.67 183.02 90.23 183.2 89.17"/><polyline class="cls-6" points="193.47 39.22 276.02 56.2 265.69 106.16 263.57 105.72 273.4 57.88 195.15 41.77 185.32 89.61 183.2 89.17 193.47 39.22"/><polyline class="cls-6" points="194.59 55.4 268.61 70.64 263.01 97.82 188.99 82.58 194.59 55.4"/><polyline class="cls-6" points="194.03 58.13 268.05 73.31 263.01 97.82 188.99 82.58 194.03 58.13"/><line class="cls-6" x1="0.5" y1="125.81" x2="4.05" y2="122.27"/><line class="cls-6" x1="0.5" y1="133.16" x2="11.45" y2="122.27"/><line class="cls-6" x1="0.5" y1="140.56" x2="17.86" y2="123.2"/><line class="cls-6" x1="0.5" y1="147.9" x2="17.86" y2="130.54"/><line class="cls-6" x1="0.5" y1="155.3" x2="17.86" y2="137.88"/><line class="cls-6" x1="0.5" y1="162.64" x2="17.86" y2="145.29"/><line class="cls-6" x1="0.5" y1="169.98" x2="17.86" y2="152.63"/><line class="cls-6" x1="0.5" y1="177.38" x2="17.86" y2="160.03"/><line class="cls-6" x1="0.5" y1="184.73" x2="17.86" y2="167.37"/><line class="cls-6" x1="0.5" y1="192.13" x2="17.86" y2="174.77"/><line class="cls-6" x1="0.5" y1="199.47" x2="17.86" y2="182.11"/><line class="cls-6" x1="0.5" y1="206.87" x2="17.86" y2="189.52"/><line class="cls-6" x1="5.66" y1="209.11" x2="17.86" y2="196.86"/><line class="cls-6" x1="13" y1="209.11" x2="17.86" y2="204.2"/><line class="cls-6" x1="0.5" y1="129.49" x2="1.81" y2="128.18"/><line class="cls-6" x1="2.74" y1="127.25" x2="2.74" y2="127.25"/><line class="cls-6" x1="3.67" y1="126.31" x2="6.47" y2="123.58"/><line class="cls-6" x1="7.34" y1="122.64" x2="7.34" y2="122.64"/><line class="cls-6" x1="0.5" y1="136.89" x2="0.94" y2="136.45"/><line class="cls-6" x1="1.81" y1="135.52" x2="1.81" y2="135.52"/><line class="cls-6" x1="2.74" y1="134.59" x2="5.54" y2="131.85"/><line class="cls-6" x1="6.47" y1="130.92" x2="6.47" y2="130.92"/><line class="cls-6" x1="7.34" y1="129.98" x2="10.14" y2="127.25"/><line class="cls-6" x1="11.08" y1="126.31" x2="11.08" y2="126.31"/><line class="cls-6" x1="11.95" y1="125.38" x2="14.75" y2="122.64"/><line class="cls-6" x1="0.94" y1="143.79" x2="0.94" y2="143.79"/><line class="cls-6" x1="1.81" y1="142.92" x2="4.61" y2="140.12"/><line class="cls-6" x1="5.54" y1="139.19" x2="5.54" y2="139.19"/><line class="cls-6" x1="6.47" y1="138.32" x2="9.21" y2="135.52"/><line class="cls-6" x1="10.14" y1="134.59" x2="10.14" y2="134.59"/><line class="cls-6" x1="11.08" y1="133.72" x2="13.81" y2="130.92"/><line class="cls-6" x1="14.75" y1="129.98" x2="14.75" y2="129.98"/><line class="cls-6" x1="15.68" y1="129.11" x2="17.86" y2="126.87"/><line class="cls-6" x1="0.94" y1="151.2" x2="3.67" y2="148.4"/><line class="cls-6" x1="4.61" y1="147.53" x2="4.61" y2="147.53"/><line class="cls-6" x1="5.54" y1="146.59" x2="8.28" y2="143.79"/><line class="cls-6" x1="9.21" y1="142.92" x2="9.21" y2="142.92"/><line class="cls-6" x1="10.14" y1="141.99" x2="12.88" y2="139.19"/><line class="cls-6" x1="13.81" y1="138.32" x2="13.81" y2="138.32"/><line class="cls-6" x1="14.75" y1="137.39" x2="17.48" y2="134.59"/><line class="cls-6" x1="0.5" y1="158.97" x2="2.74" y2="156.73"/><line class="cls-6" x1="3.67" y1="155.8" x2="3.67" y2="155.8"/><line class="cls-6" x1="4.61" y1="154.87" x2="7.34" y2="152.13"/><line class="cls-6" x1="8.28" y1="151.2" x2="8.28" y2="151.2"/><line class="cls-6" x1="9.21" y1="150.26" x2="11.95" y2="147.53"/><line class="cls-6" x1="12.88" y1="146.59" x2="12.88" y2="146.59"/><line class="cls-6" x1="13.81" y1="145.66" x2="16.55" y2="142.92"/><line class="cls-6" x1="17.48" y1="141.99" x2="17.48" y2="141.99"/><line class="cls-6" x1="0.5" y1="166.31" x2="1.81" y2="165.01"/><line class="cls-6" x1="2.74" y1="164.07" x2="2.74" y2="164.07"/><line class="cls-6" x1="3.67" y1="163.14" x2="6.47" y2="160.4"/><line class="cls-6" x1="7.34" y1="159.47" x2="7.34" y2="159.47"/><line class="cls-6" x1="8.28" y1="158.54" x2="11.08" y2="155.8"/><line class="cls-6" x1="11.95" y1="154.87" x2="11.95" y2="154.87"/><line class="cls-6" x1="12.88" y1="153.93" x2="15.68" y2="151.2"/><line class="cls-6" x1="16.55" y1="150.26" x2="16.55" y2="150.26"/><line class="cls-6" x1="17.48" y1="149.33" x2="17.86" y2="148.96"/><line class="cls-6" x1="0.5" y1="173.71" x2="0.94" y2="173.28"/><line class="cls-6" x1="1.81" y1="172.35" x2="1.81" y2="172.35"/><line class="cls-6" x1="2.74" y1="171.48" x2="5.54" y2="168.68"/><line class="cls-6" x1="6.47" y1="167.74" x2="6.47" y2="167.74"/><line class="cls-6" x1="7.34" y1="166.87" x2="10.14" y2="164.07"/><line class="cls-6" x1="11.08" y1="163.14" x2="11.08" y2="163.14"/><line class="cls-6" x1="11.95" y1="162.27" x2="14.75" y2="159.47"/><line class="cls-6" x1="15.68" y1="158.54" x2="15.68" y2="158.54"/><line class="cls-6" x1="16.55" y1="157.67" x2="17.86" y2="156.36"/><line class="cls-6" x1="0.94" y1="180.68" x2="0.94" y2="180.68"/><line class="cls-6" x1="1.81" y1="179.75" x2="4.61" y2="176.95"/><line class="cls-6" x1="5.54" y1="176.08" x2="5.54" y2="176.08"/><line class="cls-6" x1="6.47" y1="175.15" x2="9.21" y2="172.35"/><line class="cls-6" x1="10.14" y1="171.48" x2="10.14" y2="171.48"/><line class="cls-6" x1="11.08" y1="170.54" x2="13.81" y2="167.74"/><line class="cls-6" x1="14.75" y1="166.87" x2="14.75" y2="166.87"/><line class="cls-6" x1="15.68" y1="165.94" x2="17.86" y2="163.7"/><line class="cls-6" x1="0.94" y1="188.02" x2="3.67" y2="185.29"/><line class="cls-6" x1="4.61" y1="184.35" x2="4.61" y2="184.35"/><line class="cls-6" x1="5.54" y1="183.42" x2="8.28" y2="180.68"/><line class="cls-6" x1="9.21" y1="179.75" x2="9.21" y2="179.75"/><line class="cls-6" x1="10.14" y1="178.82" x2="12.88" y2="176.08"/><line class="cls-6" x1="13.81" y1="175.15" x2="13.81" y2="175.15"/><line class="cls-6" x1="14.75" y1="174.21" x2="17.48" y2="171.48"/><line class="cls-6" x1="0.5" y1="195.8" x2="2.74" y2="193.56"/><line class="cls-6" x1="3.67" y1="192.63" x2="3.67" y2="192.63"/><line class="cls-6" x1="4.61" y1="191.69" x2="7.34" y2="188.96"/><line class="cls-6" x1="8.28" y1="188.02" x2="8.28" y2="188.02"/><line class="cls-6" x1="9.21" y1="187.09" x2="11.95" y2="184.35"/><line class="cls-6" x1="12.88" y1="183.42" x2="12.88" y2="183.42"/><line class="cls-6" x1="13.81" y1="182.49" x2="16.55" y2="179.75"/><line class="cls-6" x1="17.48" y1="178.82" x2="17.48" y2="178.82"/><line class="cls-6" x1="0.5" y1="203.14" x2="1.81" y2="201.83"/><line class="cls-6" x1="2.74" y1="200.9" x2="2.74" y2="200.9"/><line class="cls-6" x1="3.67" y1="200.03" x2="6.47" y2="197.23"/><line class="cls-6" x1="7.34" y1="196.3" x2="7.34" y2="196.3"/><line class="cls-6" x1="8.28" y1="195.42" x2="11.08" y2="192.63"/><line class="cls-6" x1="11.95" y1="191.69" x2="11.95" y2="191.69"/><line class="cls-6" x1="12.88" y1="190.82" x2="15.68" y2="188.02"/><line class="cls-6" x1="16.55" y1="187.09" x2="16.55" y2="187.09"/><line class="cls-6" x1="17.48" y1="186.22" x2="17.86" y2="185.78"/><line class="cls-6" x1="2.74" y1="208.3" x2="5.54" y2="205.5"/><line class="cls-6" x1="6.47" y1="204.63" x2="6.47" y2="204.63"/><line class="cls-6" x1="7.34" y1="203.7" x2="10.14" y2="200.9"/><line class="cls-6" x1="11.08" y1="200.03" x2="11.08" y2="200.03"/><line class="cls-6" x1="11.95" y1="199.1" x2="14.75" y2="196.3"/><line class="cls-6" x1="15.68" y1="195.42" x2="15.68" y2="195.42"/><line class="cls-6" x1="16.55" y1="194.49" x2="17.86" y2="193.19"/><line class="cls-6" x1="10.14" y1="208.3" x2="10.14" y2="208.3"/><line class="cls-6" x1="11.08" y1="207.37" x2="13.81" y2="204.63"/><line class="cls-6" x1="14.75" y1="203.7" x2="14.75" y2="203.7"/><line class="cls-6" x1="15.68" y1="202.77" x2="17.86" y2="200.53"/><line class="cls-6" x1="16.67" y1="209.11" x2="17.48" y2="208.3"/><polyline class="cls-6" points="0.5 209.11 17.86 209.11 17.86 122.27 0.5 122.27 0.5 209.11"/><line class="cls-6" x1="0.5" y1="413.15" x2="4.85" y2="408.8"/><line class="cls-6" x1="0.5" y1="420.55" x2="12.26" y2="408.8"/><line class="cls-6" x1="0.5" y1="427.89" x2="17.86" y2="410.54"/><line class="cls-6" x1="0.5" y1="435.23" x2="17.86" y2="417.88"/><line class="cls-6" x1="0.5" y1="442.64" x2="17.86" y2="425.28"/><line class="cls-6" x1="0.5" y1="449.98" x2="17.86" y2="432.62"/><line class="cls-6" x1="0.5" y1="457.38" x2="17.86" y2="440.02"/><line class="cls-6" x1="0.5" y1="464.72" x2="17.86" y2="447.36"/><line class="cls-6" x1="0.5" y1="472.12" x2="17.86" y2="454.7"/><line class="cls-6" x1="0.5" y1="479.46" x2="17.86" y2="462.11"/><line class="cls-6" x1="0.5" y1="486.8" x2="17.86" y2="469.45"/><line class="cls-6" x1="0.5" y1="494.21" x2="17.86" y2="476.85"/><line class="cls-6" x1="6.47" y1="495.64" x2="17.86" y2="484.19"/><line class="cls-6" x1="13.81" y1="495.64" x2="17.86" y2="491.59"/><line class="cls-6" x1="0.94" y1="409.04" x2="1.18" y2="408.8"/><line class="cls-6" x1="0.5" y1="416.82" x2="2.74" y2="414.58"/><line class="cls-6" x1="3.67" y1="413.65" x2="3.67" y2="413.65"/><line class="cls-6" x1="4.61" y1="412.78" x2="7.34" y2="409.98"/><line class="cls-6" x1="8.28" y1="409.04" x2="8.28" y2="409.04"/><line class="cls-6" x1="0.5" y1="424.22" x2="1.81" y2="422.85"/><line class="cls-6" x1="2.74" y1="421.98" x2="2.74" y2="421.98"/><line class="cls-6" x1="3.67" y1="421.05" x2="6.47" y2="418.25"/><line class="cls-6" x1="7.34" y1="417.38" x2="7.34" y2="417.38"/><line class="cls-6" x1="8.28" y1="416.45" x2="11.08" y2="413.65"/><line class="cls-6" x1="11.95" y1="412.78" x2="11.95" y2="412.78"/><line class="cls-6" x1="12.88" y1="411.84" x2="15.68" y2="409.04"/><line class="cls-6" x1="0.5" y1="431.56" x2="0.94" y2="431.19"/><line class="cls-6" x1="1.81" y1="430.26" x2="1.81" y2="430.26"/><line class="cls-6" x1="2.74" y1="429.32" x2="5.54" y2="426.59"/><line class="cls-6" x1="6.47" y1="425.65" x2="6.47" y2="425.65"/><line class="cls-6" x1="7.34" y1="424.72" x2="10.14" y2="421.98"/><line class="cls-6" x1="11.08" y1="421.05" x2="11.08" y2="421.05"/><line class="cls-6" x1="11.95" y1="420.12" x2="14.75" y2="417.38"/><line class="cls-6" x1="15.68" y1="416.45" x2="15.68" y2="416.45"/><line class="cls-6" x1="16.55" y1="415.51" x2="17.86" y2="414.21"/><line class="cls-6" x1="0.94" y1="438.53" x2="0.94" y2="438.53"/><line class="cls-6" x1="1.81" y1="437.6" x2="4.61" y2="434.86"/><line class="cls-6" x1="5.54" y1="433.93" x2="5.54" y2="433.93"/><line class="cls-6" x1="6.47" y1="432.99" x2="9.21" y2="430.26"/><line class="cls-6" x1="10.14" y1="429.32" x2="10.14" y2="429.32"/><line class="cls-6" x1="11.08" y1="428.39" x2="13.81" y2="425.65"/><line class="cls-6" x1="14.75" y1="424.72" x2="14.75" y2="424.72"/><line class="cls-6" x1="15.68" y1="423.79" x2="17.86" y2="421.55"/><line class="cls-6" x1="0.94" y1="445.93" x2="3.67" y2="443.13"/><line class="cls-6" x1="4.61" y1="442.2" x2="4.61" y2="442.2"/><line class="cls-6" x1="5.54" y1="441.33" x2="8.28" y2="438.53"/><line class="cls-6" x1="9.21" y1="437.6" x2="9.21" y2="437.6"/><line class="cls-6" x1="10.14" y1="436.73" x2="12.88" y2="433.93"/><line class="cls-6" x1="13.81" y1="432.99" x2="13.81" y2="432.99"/><line class="cls-6" x1="14.75" y1="432.06" x2="17.48" y2="429.32"/><line class="cls-6" x1="0.5" y1="453.71" x2="2.74" y2="451.41"/><line class="cls-6" x1="3.67" y1="450.54" x2="3.67" y2="450.54"/><line class="cls-6" x1="4.61" y1="449.6" x2="7.34" y2="446.8"/><line class="cls-6" x1="8.28" y1="445.93" x2="8.28" y2="445.93"/><line class="cls-6" x1="9.21" y1="445" x2="11.95" y2="442.2"/><line class="cls-6" x1="12.88" y1="441.33" x2="12.88" y2="441.33"/><line class="cls-6" x1="13.81" y1="440.4" x2="16.55" y2="437.6"/><line class="cls-6" x1="17.48" y1="436.73" x2="17.48" y2="436.73"/><line class="cls-6" x1="0.5" y1="461.05" x2="1.81" y2="459.74"/><line class="cls-6" x1="2.74" y1="458.81" x2="2.74" y2="458.81"/><line class="cls-6" x1="3.67" y1="457.88" x2="6.47" y2="455.14"/><line class="cls-6" x1="7.34" y1="454.21" x2="7.34" y2="454.21"/><line class="cls-6" x1="8.28" y1="453.27" x2="11.08" y2="450.54"/><line class="cls-6" x1="11.95" y1="449.6" x2="11.95" y2="449.6"/><line class="cls-6" x1="12.88" y1="448.67" x2="15.68" y2="445.93"/><line class="cls-6" x1="16.55" y1="445" x2="16.55" y2="445"/><line class="cls-6" x1="17.48" y1="444.07" x2="17.86" y2="443.69"/><line class="cls-6" x1="0.5" y1="468.39" x2="0.94" y2="468.02"/><line class="cls-6" x1="1.81" y1="467.08" x2="1.81" y2="467.08"/><line class="cls-6" x1="2.74" y1="466.15" x2="5.54" y2="463.41"/><line class="cls-6" x1="6.47" y1="462.48" x2="6.47" y2="462.48"/><line class="cls-6" x1="7.34" y1="461.55" x2="10.14" y2="458.81"/><line class="cls-6" x1="11.08" y1="457.88" x2="11.08" y2="457.88"/><line class="cls-6" x1="11.95" y1="456.94" x2="14.75" y2="454.21"/><line class="cls-6" x1="15.68" y1="453.27" x2="15.68" y2="453.27"/><line class="cls-6" x1="16.55" y1="452.34" x2="17.86" y2="451.03"/><line class="cls-6" x1="0.94" y1="475.36" x2="0.94" y2="475.36"/><line class="cls-6" x1="1.81" y1="474.49" x2="4.61" y2="471.69"/><line class="cls-6" x1="5.54" y1="470.75" x2="5.54" y2="470.75"/><line class="cls-6" x1="6.47" y1="469.88" x2="9.21" y2="467.08"/><line class="cls-6" x1="10.14" y1="466.15" x2="10.14" y2="466.15"/><line class="cls-6" x1="11.08" y1="465.22" x2="13.81" y2="462.48"/><line class="cls-6" x1="14.75" y1="461.55" x2="14.75" y2="461.55"/><line class="cls-6" x1="15.68" y1="460.61" x2="17.86" y2="458.44"/><line class="cls-6" x1="0.94" y1="482.76" x2="3.67" y2="479.96"/><line class="cls-6" x1="4.61" y1="479.09" x2="4.61" y2="479.09"/><line class="cls-6" x1="5.54" y1="478.16" x2="8.28" y2="475.36"/><line class="cls-6" x1="9.21" y1="474.49" x2="9.21" y2="474.49"/><line class="cls-6" x1="10.14" y1="473.55" x2="12.88" y2="470.75"/><line class="cls-6" x1="13.81" y1="469.88" x2="13.81" y2="469.88"/><line class="cls-6" x1="14.75" y1="468.95" x2="17.48" y2="466.15"/><line class="cls-6" x1="0.5" y1="490.54" x2="2.74" y2="488.3"/><line class="cls-6" x1="3.67" y1="487.36" x2="3.67" y2="487.36"/><line class="cls-6" x1="4.61" y1="486.43" x2="7.34" y2="483.69"/><line class="cls-6" x1="8.28" y1="482.76" x2="8.28" y2="482.76"/><line class="cls-6" x1="9.21" y1="481.83" x2="11.95" y2="479.09"/><line class="cls-6" x1="12.88" y1="478.16" x2="12.88" y2="478.16"/><line class="cls-6" x1="13.81" y1="477.22" x2="16.55" y2="474.49"/><line class="cls-6" x1="17.48" y1="473.55" x2="17.48" y2="473.55"/><line class="cls-6" x1="3.67" y1="494.7" x2="6.47" y2="491.97"/><line class="cls-6" x1="7.34" y1="491.03" x2="7.34" y2="491.03"/><line class="cls-6" x1="8.28" y1="490.1" x2="11.08" y2="487.36"/><line class="cls-6" x1="11.95" y1="486.43" x2="11.95" y2="486.43"/><line class="cls-6" x1="12.88" y1="485.5" x2="15.68" y2="482.76"/><line class="cls-6" x1="16.55" y1="481.83" x2="16.55" y2="481.83"/><line class="cls-6" x1="17.48" y1="480.89" x2="17.86" y2="480.52"/><line class="cls-6" x1="11.08" y1="494.7" x2="11.08" y2="494.7"/><line class="cls-6" x1="11.95" y1="493.77" x2="14.75" y2="491.03"/><line class="cls-6" x1="15.68" y1="490.1" x2="15.68" y2="490.1"/><line class="cls-6" x1="16.55" y1="489.17" x2="17.86" y2="487.86"/><line class="cls-6" x1="17.48" y1="495.64" x2="17.86" y2="495.26"/><polyline class="cls-6" points="17.86 408.8 0.5 408.8 0.5 495.64 17.86 495.64 17.86 408.8"/><line class="cls-6" x1="313.09" y1="122.64" x2="313.53" y2="122.27"/><line class="cls-6" x1="313.09" y1="130.05" x2="320.87" y2="122.27"/><line class="cls-6" x1="313.09" y1="137.39" x2="328.27" y2="122.27"/><line class="cls-6" x1="313.09" y1="144.79" x2="330.45" y2="127.37"/><line class="cls-6" x1="313.09" y1="152.13" x2="330.45" y2="134.77"/><line class="cls-6" x1="313.09" y1="159.53" x2="330.45" y2="142.11"/><line class="cls-6" x1="313.09" y1="166.87" x2="330.45" y2="149.52"/><line class="cls-6" x1="313.09" y1="174.21" x2="330.45" y2="156.86"/><line class="cls-6" x1="313.09" y1="181.61" x2="330.45" y2="164.26"/><line class="cls-6" x1="313.09" y1="188.96" x2="330.45" y2="171.6"/><line class="cls-6" x1="313.09" y1="196.36" x2="330.45" y2="179"/><line class="cls-6" x1="313.09" y1="203.7" x2="330.45" y2="186.34"/><line class="cls-6" x1="315.08" y1="209.11" x2="330.45" y2="193.68"/><line class="cls-6" x1="322.48" y1="209.11" x2="330.45" y2="201.09"/><line class="cls-6" x1="329.83" y1="209.11" x2="330.45" y2="208.43"/><line class="cls-6" x1="313.09" y1="126.37" x2="313.15" y2="126.31"/><line class="cls-6" x1="314.09" y1="125.38" x2="314.09" y2="125.38"/><line class="cls-6" x1="314.96" y1="124.51" x2="317.2" y2="122.27"/><line class="cls-6" x1="313.15" y1="133.72" x2="313.15" y2="133.72"/><line class="cls-6" x1="314.09" y1="132.78" x2="316.82" y2="129.98"/><line class="cls-6" x1="317.76" y1="129.11" x2="317.76" y2="129.11"/><line class="cls-6" x1="318.69" y1="128.18" x2="321.43" y2="125.38"/><line class="cls-6" x1="322.36" y1="124.51" x2="322.36" y2="124.51"/><line class="cls-6" x1="323.29" y1="123.58" x2="324.54" y2="122.27"/><line class="cls-6" x1="313.15" y1="141.06" x2="315.89" y2="138.32"/><line class="cls-6" x1="316.82" y1="137.39" x2="316.82" y2="137.39"/><line class="cls-6" x1="317.76" y1="136.45" x2="320.49" y2="133.72"/><line class="cls-6" x1="321.43" y1="132.78" x2="321.43" y2="132.78"/><line class="cls-6" x1="322.36" y1="131.85" x2="325.1" y2="129.11"/><line class="cls-6" x1="326.03" y1="128.18" x2="326.03" y2="128.18"/><line class="cls-6" x1="326.96" y1="127.25" x2="329.7" y2="124.51"/><line class="cls-6" x1="313.09" y1="148.46" x2="314.96" y2="146.59"/><line class="cls-6" x1="315.89" y1="145.66" x2="315.89" y2="145.66"/><line class="cls-6" x1="316.82" y1="144.73" x2="319.56" y2="141.99"/><line class="cls-6" x1="320.49" y1="141.06" x2="320.49" y2="141.06"/><line class="cls-6" x1="321.43" y1="140.12" x2="324.16" y2="137.39"/><line class="cls-6" x1="325.1" y1="136.45" x2="325.1" y2="136.45"/><line class="cls-6" x1="326.03" y1="135.52" x2="328.77" y2="132.78"/><line class="cls-6" x1="329.7" y1="131.85" x2="329.7" y2="131.85"/><line class="cls-6" x1="313.09" y1="155.8" x2="314.09" y2="154.87"/><line class="cls-6" x1="314.96" y1="153.93" x2="314.96" y2="153.93"/><line class="cls-6" x1="315.89" y1="153.06" x2="318.69" y2="150.26"/><line class="cls-6" x1="319.56" y1="149.33" x2="319.56" y2="149.33"/><line class="cls-6" x1="320.49" y1="148.4" x2="323.29" y2="145.66"/><line class="cls-6" x1="324.16" y1="144.73" x2="324.16" y2="144.73"/><line class="cls-6" x1="325.1" y1="143.79" x2="327.9" y2="141.06"/><line class="cls-6" x1="328.77" y1="140.12" x2="328.77" y2="140.12"/><line class="cls-6" x1="329.7" y1="139.19" x2="330.45" y2="138.44"/><line class="cls-6" x1="313.09" y1="163.2" x2="313.15" y2="163.14"/><line class="cls-6" x1="314.09" y1="162.27" x2="314.09" y2="162.27"/><line class="cls-6" x1="314.96" y1="161.34" x2="317.76" y2="158.54"/><line class="cls-6" x1="318.69" y1="157.67" x2="318.69" y2="157.67"/><line class="cls-6" x1="319.56" y1="156.73" x2="322.36" y2="153.93"/><line class="cls-6" x1="323.29" y1="153.06" x2="323.29" y2="153.06"/><line class="cls-6" x1="324.16" y1="152.13" x2="326.96" y2="149.33"/><line class="cls-6" x1="327.9" y1="148.4" x2="327.9" y2="148.4"/><line class="cls-6" x1="328.77" y1="147.53" x2="330.45" y2="145.85"/><line class="cls-6" x1="313.15" y1="170.54" x2="313.15" y2="170.54"/><line class="cls-6" x1="314.09" y1="169.61" x2="316.82" y2="166.87"/><line class="cls-6" x1="317.76" y1="165.94" x2="317.76" y2="165.94"/><line class="cls-6" x1="318.69" y1="165.01" x2="321.43" y2="162.27"/><line class="cls-6" x1="322.36" y1="161.34" x2="322.36" y2="161.34"/><line class="cls-6" x1="323.29" y1="160.4" x2="326.03" y2="157.67"/><line class="cls-6" x1="326.96" y1="156.73" x2="326.96" y2="156.73"/><line class="cls-6" x1="327.9" y1="155.8" x2="330.45" y2="153.19"/><line class="cls-6" x1="313.15" y1="177.88" x2="315.89" y2="175.15"/><line class="cls-6" x1="316.82" y1="174.21" x2="316.82" y2="174.21"/><line class="cls-6" x1="317.76" y1="173.28" x2="320.49" y2="170.54"/><line class="cls-6" x1="321.43" y1="169.61" x2="321.43" y2="169.61"/><line class="cls-6" x1="322.36" y1="168.68" x2="325.1" y2="165.94"/><line class="cls-6" x1="326.03" y1="165.01" x2="326.03" y2="165.01"/><line class="cls-6" x1="326.96" y1="164.07" x2="329.7" y2="161.34"/><line class="cls-6" x1="313.09" y1="185.29" x2="314.96" y2="183.42"/><line class="cls-6" x1="315.89" y1="182.49" x2="315.89" y2="182.49"/><line class="cls-6" x1="316.82" y1="181.55" x2="319.56" y2="178.82"/><line class="cls-6" x1="320.49" y1="177.88" x2="320.49" y2="177.88"/><line class="cls-6" x1="321.43" y1="176.95" x2="324.16" y2="174.21"/><line class="cls-6" x1="325.1" y1="173.28" x2="325.1" y2="173.28"/><line class="cls-6" x1="326.03" y1="172.35" x2="328.77" y2="169.61"/><line class="cls-6" x1="329.7" y1="168.68" x2="329.7" y2="168.68"/><line class="cls-6" x1="313.09" y1="192.69" x2="314.09" y2="191.69"/><line class="cls-6" x1="314.96" y1="190.82" x2="314.96" y2="190.82"/><line class="cls-6" x1="315.89" y1="189.89" x2="318.69" y2="187.09"/><line class="cls-6" x1="319.56" y1="186.22" x2="319.56" y2="186.22"/><line class="cls-6" x1="320.49" y1="185.29" x2="323.29" y2="182.49"/><line class="cls-6" x1="324.16" y1="181.55" x2="324.16" y2="181.55"/><line class="cls-6" x1="325.1" y1="180.68" x2="327.9" y2="177.88"/><line class="cls-6" x1="328.77" y1="176.95" x2="328.77" y2="176.95"/><line class="cls-6" x1="329.7" y1="176.08" x2="330.45" y2="175.27"/><line class="cls-6" x1="313.09" y1="200.03" x2="313.15" y2="200.03"/><line class="cls-6" x1="314.09" y1="199.1" x2="314.09" y2="199.1"/><line class="cls-6" x1="314.96" y1="198.16" x2="317.76" y2="195.42"/><line class="cls-6" x1="318.69" y1="194.49" x2="318.69" y2="194.49"/><line class="cls-6" x1="319.56" y1="193.56" x2="322.36" y2="190.82"/><line class="cls-6" x1="323.29" y1="189.89" x2="323.29" y2="189.89"/><line class="cls-6" x1="324.16" y1="188.96" x2="326.96" y2="186.22"/><line class="cls-6" x1="327.9" y1="185.29" x2="327.9" y2="185.29"/><line class="cls-6" x1="328.77" y1="184.35" x2="330.45" y2="182.67"/><line class="cls-6" x1="313.15" y1="207.37" x2="313.15" y2="207.37"/><line class="cls-6" x1="314.09" y1="206.44" x2="316.82" y2="203.7"/><line class="cls-6" x1="317.76" y1="202.77" x2="317.76" y2="202.77"/><line class="cls-6" x1="318.69" y1="201.83" x2="321.43" y2="199.1"/><line class="cls-6" x1="322.36" y1="198.16" x2="322.36" y2="198.16"/><line class="cls-6" x1="323.29" y1="197.23" x2="326.03" y2="194.49"/><line class="cls-6" x1="326.96" y1="193.56" x2="326.96" y2="193.56"/><line class="cls-6" x1="327.9" y1="192.63" x2="330.45" y2="190.01"/><line class="cls-6" x1="318.75" y1="209.11" x2="320.49" y2="207.37"/><line class="cls-6" x1="321.43" y1="206.44" x2="321.43" y2="206.44"/><line class="cls-6" x1="322.36" y1="205.5" x2="325.1" y2="202.77"/><line class="cls-6" x1="326.03" y1="201.83" x2="326.03" y2="201.83"/><line class="cls-6" x1="326.96" y1="200.9" x2="329.7" y2="198.16"/><line class="cls-6" x1="326.16" y1="209.11" x2="328.77" y2="206.44"/><line class="cls-6" x1="329.7" y1="205.5" x2="329.7" y2="205.5"/><polyline class="cls-6" points="313.09 209.11 330.45 209.11 330.45 122.27 313.09 122.27 313.09 209.11"/><line class="cls-6" x1="313.09" y1="410.04" x2="314.34" y2="408.8"/><line class="cls-6" x1="313.09" y1="417.38" x2="321.68" y2="408.8"/><line class="cls-6" x1="313.09" y1="424.72" x2="329.08" y2="408.8"/><line class="cls-6" x1="313.09" y1="432.12" x2="330.45" y2="414.77"/><line class="cls-6" x1="313.09" y1="439.46" x2="330.45" y2="422.11"/><line class="cls-6" x1="313.09" y1="446.87" x2="330.45" y2="429.51"/><line class="cls-6" x1="313.09" y1="454.21" x2="330.45" y2="436.85"/><line class="cls-6" x1="313.09" y1="461.61" x2="330.45" y2="444.19"/><line class="cls-6" x1="313.09" y1="468.95" x2="330.45" y2="451.59"/><line class="cls-6" x1="313.09" y1="476.35" x2="330.45" y2="458.94"/><line class="cls-6" x1="313.09" y1="483.69" x2="330.45" y2="466.34"/><line class="cls-6" x1="313.09" y1="491.03" x2="330.45" y2="473.68"/><line class="cls-6" x1="315.89" y1="495.64" x2="330.45" y2="481.08"/><line class="cls-6" x1="323.29" y1="495.64" x2="330.45" y2="488.42"/><line class="cls-6" x1="313.09" y1="413.71" x2="314.09" y2="412.78"/><line class="cls-6" x1="314.96" y1="411.84" x2="314.96" y2="411.84"/><line class="cls-6" x1="315.89" y1="410.91" x2="318.01" y2="408.8"/><line class="cls-6" x1="313.09" y1="421.05" x2="313.15" y2="421.05"/><line class="cls-6" x1="314.09" y1="420.12" x2="314.09" y2="420.12"/><line class="cls-6" x1="314.96" y1="419.18" x2="317.76" y2="416.45"/><line class="cls-6" x1="318.69" y1="415.51" x2="318.69" y2="415.51"/><line class="cls-6" x1="319.56" y1="414.58" x2="322.36" y2="411.84"/><line class="cls-6" x1="323.29" y1="410.91" x2="323.29" y2="410.91"/><line class="cls-6" x1="324.16" y1="409.98" x2="325.35" y2="408.8"/><line class="cls-6" x1="313.15" y1="428.39" x2="313.15" y2="428.39"/><line class="cls-6" x1="314.09" y1="427.46" x2="316.82" y2="424.72"/><line class="cls-6" x1="317.76" y1="423.79" x2="317.76" y2="423.79"/><line class="cls-6" x1="318.69" y1="422.85" x2="321.43" y2="420.12"/><line class="cls-6" x1="322.36" y1="419.18" x2="322.36" y2="419.18"/><line class="cls-6" x1="323.29" y1="418.25" x2="326.03" y2="415.51"/><line class="cls-6" x1="326.96" y1="414.58" x2="326.96" y2="414.58"/><line class="cls-6" x1="327.9" y1="413.65" x2="330.45" y2="411.1"/><line class="cls-6" x1="313.15" y1="435.79" x2="315.89" y2="432.99"/><line class="cls-6" x1="316.82" y1="432.06" x2="316.82" y2="432.06"/><line class="cls-6" x1="317.76" y1="431.19" x2="320.49" y2="428.39"/><line class="cls-6" x1="321.43" y1="427.46" x2="321.43" y2="427.46"/><line class="cls-6" x1="322.36" y1="426.59" x2="325.1" y2="423.79"/><line class="cls-6" x1="326.03" y1="422.85" x2="326.03" y2="422.85"/><line class="cls-6" x1="326.96" y1="421.98" x2="329.7" y2="419.18"/><line class="cls-6" x1="313.09" y1="443.2" x2="314.96" y2="441.33"/><line class="cls-6" x1="315.89" y1="440.4" x2="315.89" y2="440.4"/><line class="cls-6" x1="316.82" y1="439.46" x2="319.56" y2="436.73"/><line class="cls-6" x1="320.49" y1="435.79" x2="320.49" y2="435.79"/><line class="cls-6" x1="321.43" y1="434.86" x2="324.16" y2="432.06"/><line class="cls-6" x1="325.1" y1="431.19" x2="325.1" y2="431.19"/><line class="cls-6" x1="326.03" y1="430.26" x2="328.77" y2="427.46"/><line class="cls-6" x1="329.7" y1="426.59" x2="329.7" y2="426.59"/><line class="cls-6" x1="313.09" y1="450.54" x2="314.09" y2="449.6"/><line class="cls-6" x1="314.96" y1="448.67" x2="314.96" y2="448.67"/><line class="cls-6" x1="315.89" y1="447.74" x2="318.69" y2="445"/><line class="cls-6" x1="319.56" y1="444.07" x2="319.56" y2="444.07"/><line class="cls-6" x1="320.49" y1="443.13" x2="323.29" y2="440.4"/><line class="cls-6" x1="324.16" y1="439.46" x2="324.16" y2="439.46"/><line class="cls-6" x1="325.1" y1="438.53" x2="327.9" y2="435.79"/><line class="cls-6" x1="328.77" y1="434.86" x2="328.77" y2="434.86"/><line class="cls-6" x1="329.7" y1="433.93" x2="330.45" y2="433.18"/><line class="cls-6" x1="313.09" y1="457.88" x2="313.15" y2="457.88"/><line class="cls-6" x1="314.09" y1="456.94" x2="314.09" y2="456.94"/><line class="cls-6" x1="314.96" y1="456.01" x2="317.76" y2="453.27"/><line class="cls-6" x1="318.69" y1="452.34" x2="318.69" y2="452.34"/><line class="cls-6" x1="319.56" y1="451.41" x2="322.36" y2="448.67"/><line class="cls-6" x1="323.29" y1="447.74" x2="323.29" y2="447.74"/><line class="cls-6" x1="324.16" y1="446.8" x2="326.96" y2="444.07"/><line class="cls-6" x1="327.9" y1="443.13" x2="327.9" y2="443.13"/><line class="cls-6" x1="328.77" y1="442.2" x2="330.45" y2="440.52"/><line class="cls-6" x1="313.15" y1="465.22" x2="313.15" y2="465.22"/><line class="cls-6" x1="314.09" y1="464.35" x2="316.82" y2="461.55"/><line class="cls-6" x1="317.76" y1="460.61" x2="317.76" y2="460.61"/><line class="cls-6" x1="318.69" y1="459.74" x2="321.43" y2="456.94"/><line class="cls-6" x1="322.36" y1="456.01" x2="322.36" y2="456.01"/><line class="cls-6" x1="323.29" y1="455.14" x2="326.03" y2="452.34"/><line class="cls-6" x1="326.96" y1="451.41" x2="326.96" y2="451.41"/><line class="cls-6" x1="327.9" y1="450.54" x2="330.45" y2="447.92"/><line class="cls-6" x1="313.15" y1="472.62" x2="315.89" y2="469.88"/><line class="cls-6" x1="316.82" y1="468.95" x2="316.82" y2="468.95"/><line class="cls-6" x1="317.76" y1="468.02" x2="320.49" y2="465.22"/><line class="cls-6" x1="321.43" y1="464.35" x2="321.43" y2="464.35"/><line class="cls-6" x1="322.36" y1="463.41" x2="325.1" y2="460.61"/><line class="cls-6" x1="326.03" y1="459.74" x2="326.03" y2="459.74"/><line class="cls-6" x1="326.96" y1="458.81" x2="329.7" y2="456.01"/><line class="cls-6" x1="313.09" y1="480.02" x2="314.96" y2="478.16"/><line class="cls-6" x1="315.89" y1="477.22" x2="315.89" y2="477.22"/><line class="cls-6" x1="316.82" y1="476.29" x2="319.56" y2="473.55"/><line class="cls-6" x1="320.49" y1="472.62" x2="320.49" y2="472.62"/><line class="cls-6" x1="321.43" y1="471.69" x2="324.16" y2="468.95"/><line class="cls-6" x1="325.1" y1="468.02" x2="325.1" y2="468.02"/><line class="cls-6" x1="326.03" y1="467.08" x2="328.77" y2="464.35"/><line class="cls-6" x1="329.7" y1="463.41" x2="329.7" y2="463.41"/><line class="cls-6" x1="313.09" y1="487.36" x2="314.09" y2="486.43"/><line class="cls-6" x1="314.96" y1="485.5" x2="314.96" y2="485.5"/><line class="cls-6" x1="315.89" y1="484.56" x2="318.69" y2="481.83"/><line class="cls-6" x1="319.56" y1="480.89" x2="319.56" y2="480.89"/><line class="cls-6" x1="320.49" y1="479.96" x2="323.29" y2="477.22"/><line class="cls-6" x1="324.16" y1="476.29" x2="324.16" y2="476.29"/><line class="cls-6" x1="325.1" y1="475.36" x2="327.9" y2="472.62"/><line class="cls-6" x1="328.77" y1="471.69" x2="328.77" y2="471.69"/><line class="cls-6" x1="329.7" y1="470.75" x2="330.45" y2="470.01"/><line class="cls-6" x1="313.09" y1="494.77" x2="313.15" y2="494.7"/><line class="cls-6" x1="314.09" y1="493.77" x2="314.09" y2="493.77"/><line class="cls-6" x1="314.96" y1="492.9" x2="317.76" y2="490.1"/><line class="cls-6" x1="318.69" y1="489.17" x2="318.69" y2="489.17"/><line class="cls-6" x1="319.56" y1="488.3" x2="322.36" y2="485.5"/><line class="cls-6" x1="323.29" y1="484.56" x2="323.29" y2="484.56"/><line class="cls-6" x1="324.16" y1="483.69" x2="326.96" y2="480.89"/><line class="cls-6" x1="327.9" y1="479.96" x2="327.9" y2="479.96"/><line class="cls-6" x1="328.77" y1="479.09" x2="330.45" y2="477.35"/><line class="cls-6" x1="319.56" y1="495.64" x2="321.43" y2="493.77"/><line class="cls-6" x1="322.36" y1="492.9" x2="322.36" y2="492.9"/><line class="cls-6" x1="323.29" y1="491.97" x2="326.03" y2="489.17"/><line class="cls-6" x1="326.96" y1="488.3" x2="326.96" y2="488.3"/><line class="cls-6" x1="327.9" y1="487.36" x2="330.45" y2="484.75"/><line class="cls-6" x1="326.96" y1="495.64" x2="329.7" y2="492.9"/><polyline class="cls-6" points="330.45 408.8 313.09 408.8 313.09 495.64 330.45 495.64 330.45 408.8"/><line class="cls-6" x1="0.5" y1="648.92" x2="6.16" y2="643.26"/><line class="cls-6" x1="0.5" y1="656.32" x2="13.56" y2="643.26"/><line class="cls-6" x1="0.5" y1="663.66" x2="17.86" y2="646.3"/><line class="cls-6" x1="0.5" y1="671.06" x2="17.86" y2="653.64"/><line class="cls-6" x1="0.5" y1="678.4" x2="17.86" y2="661.05"/><line class="cls-6" x1="0.5" y1="685.74" x2="17.86" y2="668.39"/><line class="cls-6" x1="0.5" y1="693.15" x2="17.86" y2="675.79"/><line class="cls-6" x1="0.5" y1="700.49" x2="17.86" y2="683.13"/><line class="cls-6" x1="0.5" y1="707.89" x2="17.86" y2="690.53"/><line class="cls-6" x1="0.5" y1="715.23" x2="17.86" y2="697.87"/><line class="cls-6" x1="0.5" y1="722.63" x2="17.86" y2="705.21"/><line class="cls-6" x1="0.5" y1="729.97" x2="17.86" y2="712.62"/><line class="cls-6" x1="7.78" y1="730.1" x2="17.86" y2="719.96"/><line class="cls-6" x1="15.12" y1="730.1" x2="17.86" y2="727.36"/><line class="cls-6" x1="0.5" y1="645.25" x2="1.81" y2="643.94"/><line class="cls-6" x1="0.5" y1="652.59" x2="0.94" y2="652.21"/><line class="cls-6" x1="1.81" y1="651.28" x2="1.81" y2="651.28"/><line class="cls-6" x1="2.74" y1="650.35" x2="5.54" y2="647.61"/><line class="cls-6" x1="6.47" y1="646.68" x2="6.47" y2="646.68"/><line class="cls-6" x1="7.34" y1="645.74" x2="9.89" y2="643.26"/><line class="cls-6" x1="0.94" y1="659.55" x2="0.94" y2="659.55"/><line class="cls-6" x1="1.81" y1="658.68" x2="4.61" y2="655.88"/><line class="cls-6" x1="5.54" y1="654.95" x2="5.54" y2="654.95"/><line class="cls-6" x1="6.47" y1="654.08" x2="9.21" y2="651.28"/><line class="cls-6" x1="10.14" y1="650.35" x2="10.14" y2="650.35"/><line class="cls-6" x1="11.08" y1="649.48" x2="13.81" y2="646.68"/><line class="cls-6" x1="14.75" y1="645.74" x2="14.75" y2="645.74"/><line class="cls-6" x1="15.68" y1="644.87" x2="17.23" y2="643.26"/><line class="cls-6" x1="0.94" y1="666.96" x2="3.67" y2="664.16"/><line class="cls-6" x1="4.61" y1="663.29" x2="4.61" y2="663.29"/><line class="cls-6" x1="5.54" y1="662.35" x2="8.28" y2="659.55"/><line class="cls-6" x1="9.21" y1="658.68" x2="9.21" y2="658.68"/><line class="cls-6" x1="10.14" y1="657.75" x2="12.88" y2="654.95"/><line class="cls-6" x1="13.81" y1="654.08" x2="13.81" y2="654.08"/><line class="cls-6" x1="14.75" y1="653.15" x2="17.48" y2="650.35"/><line class="cls-6" x1="0.5" y1="674.73" x2="2.74" y2="672.49"/><line class="cls-6" x1="3.67" y1="671.56" x2="3.67" y2="671.56"/><line class="cls-6" x1="4.61" y1="670.63" x2="7.34" y2="667.89"/><line class="cls-6" x1="8.28" y1="666.96" x2="8.28" y2="666.96"/><line class="cls-6" x1="9.21" y1="666.02" x2="11.95" y2="663.29"/><line class="cls-6" x1="12.88" y1="662.35" x2="12.88" y2="662.35"/><line class="cls-6" x1="13.81" y1="661.42" x2="16.55" y2="658.68"/><line class="cls-6" x1="17.48" y1="657.75" x2="17.48" y2="657.75"/><line class="cls-6" x1="0.5" y1="682.07" x2="1.81" y2="680.77"/><line class="cls-6" x1="2.74" y1="679.83" x2="2.74" y2="679.83"/><line class="cls-6" x1="3.67" y1="678.9" x2="6.47" y2="676.16"/><line class="cls-6" x1="7.34" y1="675.23" x2="7.34" y2="675.23"/><line class="cls-6" x1="8.28" y1="674.3" x2="11.08" y2="671.56"/><line class="cls-6" x1="11.95" y1="670.63" x2="11.95" y2="670.63"/><line class="cls-6" x1="12.88" y1="669.69" x2="15.68" y2="666.96"/><line class="cls-6" x1="16.55" y1="666.02" x2="16.55" y2="666.02"/><line class="cls-6" x1="17.48" y1="665.09" x2="17.86" y2="664.72"/><line class="cls-6" x1="0.5" y1="689.48" x2="0.94" y2="689.04"/><line class="cls-6" x1="1.81" y1="688.11" x2="1.81" y2="688.11"/><line class="cls-6" x1="2.74" y1="687.24" x2="5.54" y2="684.44"/><line class="cls-6" x1="6.47" y1="683.5" x2="6.47" y2="683.5"/><line class="cls-6" x1="7.34" y1="682.63" x2="10.14" y2="679.83"/><line class="cls-6" x1="11.08" y1="678.9" x2="11.08" y2="678.9"/><line class="cls-6" x1="11.95" y1="677.97" x2="14.75" y2="675.23"/><line class="cls-6" x1="15.68" y1="674.3" x2="15.68" y2="674.3"/><line class="cls-6" x1="16.55" y1="673.36" x2="17.86" y2="672.06"/><line class="cls-6" x1="0.94" y1="696.44" x2="0.94" y2="696.44"/><line class="cls-6" x1="1.81" y1="695.51" x2="4.61" y2="692.71"/><line class="cls-6" x1="5.54" y1="691.84" x2="5.54" y2="691.84"/><line class="cls-6" x1="6.47" y1="690.91" x2="9.21" y2="688.11"/><line class="cls-6" x1="10.14" y1="687.24" x2="10.14" y2="687.24"/><line class="cls-6" x1="11.08" y1="686.3" x2="13.81" y2="683.5"/><line class="cls-6" x1="14.75" y1="682.63" x2="14.75" y2="682.63"/><line class="cls-6" x1="15.68" y1="681.7" x2="17.86" y2="679.46"/><line class="cls-6" x1="0.94" y1="703.78" x2="3.67" y2="701.05"/><line class="cls-6" x1="4.61" y1="700.11" x2="4.61" y2="700.11"/><line class="cls-6" x1="5.54" y1="699.18" x2="8.28" y2="696.44"/><line class="cls-6" x1="9.21" y1="695.51" x2="9.21" y2="695.51"/><line class="cls-6" x1="10.14" y1="694.58" x2="12.88" y2="691.84"/><line class="cls-6" x1="13.81" y1="690.91" x2="13.81" y2="690.91"/><line class="cls-6" x1="14.75" y1="689.97" x2="17.48" y2="687.24"/><line class="cls-6" x1="0.5" y1="711.56" x2="2.74" y2="709.32"/><line class="cls-6" x1="3.67" y1="708.39" x2="3.67" y2="708.39"/><line class="cls-6" x1="4.61" y1="707.45" x2="7.34" y2="704.72"/><line class="cls-6" x1="8.28" y1="703.78" x2="8.28" y2="703.78"/><line class="cls-6" x1="9.21" y1="702.85" x2="11.95" y2="700.11"/><line class="cls-6" x1="12.88" y1="699.18" x2="12.88" y2="699.18"/><line class="cls-6" x1="13.81" y1="698.25" x2="16.55" y2="695.51"/><line class="cls-6" x1="17.48" y1="694.58" x2="17.48" y2="694.58"/><line class="cls-6" x1="0.5" y1="718.9" x2="1.81" y2="717.59"/><line class="cls-6" x1="2.74" y1="716.66" x2="2.74" y2="716.66"/><line class="cls-6" x1="3.67" y1="715.79" x2="6.47" y2="712.99"/><line class="cls-6" x1="7.34" y1="712.06" x2="7.34" y2="712.06"/><line class="cls-6" x1="8.28" y1="711.12" x2="11.08" y2="708.39"/><line class="cls-6" x1="11.95" y1="707.45" x2="11.95" y2="707.45"/><line class="cls-6" x1="12.88" y1="706.52" x2="15.68" y2="703.78"/><line class="cls-6" x1="16.55" y1="702.85" x2="16.55" y2="702.85"/><line class="cls-6" x1="17.48" y1="701.92" x2="17.86" y2="701.54"/><line class="cls-6" x1="0.5" y1="726.3" x2="0.94" y2="725.87"/><line class="cls-6" x1="1.81" y1="725" x2="1.81" y2="725"/><line class="cls-6" x1="2.74" y1="724.06" x2="5.54" y2="721.26"/><line class="cls-6" x1="6.47" y1="720.39" x2="6.47" y2="720.39"/><line class="cls-6" x1="7.34" y1="719.46" x2="10.14" y2="716.66"/><line class="cls-6" x1="11.08" y1="715.79" x2="11.08" y2="715.79"/><line class="cls-6" x1="11.95" y1="714.86" x2="14.75" y2="712.06"/><line class="cls-6" x1="15.68" y1="711.12" x2="15.68" y2="711.12"/><line class="cls-6" x1="16.55" y1="710.25" x2="17.86" y2="708.95"/><line class="cls-6" x1="4.11" y1="730.1" x2="4.61" y2="729.6"/><line class="cls-6" x1="5.54" y1="728.67" x2="5.54" y2="728.67"/><line class="cls-6" x1="6.47" y1="727.73" x2="9.21" y2="725"/><line class="cls-6" x1="10.14" y1="724.06" x2="10.14" y2="724.06"/><line class="cls-6" x1="11.08" y1="723.13" x2="13.81" y2="720.39"/><line class="cls-6" x1="14.75" y1="719.46" x2="14.75" y2="719.46"/><line class="cls-6" x1="15.68" y1="718.53" x2="17.86" y2="716.29"/><line class="cls-6" x1="11.45" y1="730.1" x2="12.88" y2="728.67"/><line class="cls-6" x1="13.81" y1="727.73" x2="13.81" y2="727.73"/><line class="cls-6" x1="14.75" y1="726.8" x2="17.48" y2="724.06"/><polyline class="cls-6" points="17.86 730.1 0.5 730.1 0.5 643.25 17.86 643.25 17.86 730.1"/><line class="cls-6" x1="313.09" y1="645.81" x2="315.64" y2="643.26"/><line class="cls-6" x1="313.09" y1="653.15" x2="322.98" y2="643.26"/><line class="cls-6" x1="313.09" y1="660.55" x2="330.39" y2="643.26"/><line class="cls-6" x1="313.09" y1="667.89" x2="330.45" y2="650.53"/><line class="cls-6" x1="313.09" y1="675.23" x2="330.45" y2="657.87"/><line class="cls-6" x1="313.09" y1="682.63" x2="330.45" y2="665.28"/><line class="cls-6" x1="313.09" y1="689.97" x2="330.45" y2="672.62"/><line class="cls-6" x1="313.09" y1="697.38" x2="330.45" y2="680.02"/><line class="cls-6" x1="313.15" y1="649.48" x2="313.15" y2="649.48"/><line class="cls-6" x1="314.09" y1="648.54" x2="316.82" y2="645.74"/><line class="cls-6" x1="317.76" y1="644.87" x2="317.76" y2="644.87"/><line class="cls-6" x1="318.69" y1="643.94" x2="319.31" y2="643.26"/><line class="cls-6" x1="313.15" y1="656.82" x2="315.89" y2="654.08"/><line class="cls-6" x1="316.82" y1="653.15" x2="316.82" y2="653.15"/><line class="cls-6" x1="317.76" y1="652.21" x2="320.49" y2="649.48"/><line class="cls-6" x1="321.43" y1="648.54" x2="321.43" y2="648.54"/><line class="cls-6" x1="322.36" y1="647.61" x2="325.1" y2="644.87"/><line class="cls-6" x1="326.03" y1="643.94" x2="326.03" y2="643.94"/><line class="cls-6" x1="313.09" y1="664.22" x2="314.96" y2="662.35"/><line class="cls-6" x1="315.89" y1="661.42" x2="315.89" y2="661.42"/><line class="cls-6" x1="316.82" y1="660.49" x2="319.56" y2="657.75"/><line class="cls-6" x1="320.49" y1="656.82" x2="320.49" y2="656.82"/><line class="cls-6" x1="321.43" y1="655.88" x2="324.16" y2="653.15"/><line class="cls-6" x1="325.1" y1="652.21" x2="325.1" y2="652.21"/><line class="cls-6" x1="326.03" y1="651.28" x2="328.77" y2="648.54"/><line class="cls-6" x1="329.7" y1="647.61" x2="329.7" y2="647.61"/><line class="cls-6" x1="313.09" y1="671.56" x2="314.09" y2="670.63"/><line class="cls-6" x1="314.96" y1="669.69" x2="314.96" y2="669.69"/><line class="cls-6" x1="315.89" y1="668.76" x2="318.69" y2="666.02"/><line class="cls-6" x1="319.56" y1="665.09" x2="319.56" y2="665.09"/><line class="cls-6" x1="320.49" y1="664.16" x2="323.29" y2="661.42"/><line class="cls-6" x1="324.16" y1="660.49" x2="324.16" y2="660.49"/><line class="cls-6" x1="325.1" y1="659.55" x2="327.9" y2="656.82"/><line class="cls-6" x1="328.77" y1="655.88" x2="328.77" y2="655.88"/><line class="cls-6" x1="329.7" y1="654.95" x2="330.45" y2="654.2"/><line class="cls-6" x1="313.09" y1="678.96" x2="313.15" y2="678.9"/><line class="cls-6" x1="314.09" y1="677.97" x2="314.09" y2="677.97"/><line class="cls-6" x1="314.96" y1="677.1" x2="317.76" y2="674.3"/><line class="cls-6" x1="318.69" y1="673.36" x2="318.69" y2="673.36"/><line class="cls-6" x1="319.56" y1="672.49" x2="322.36" y2="669.69"/><line class="cls-6" x1="323.29" y1="668.76" x2="323.29" y2="668.76"/><line class="cls-6" x1="324.16" y1="667.89" x2="326.96" y2="665.09"/><line class="cls-6" x1="327.9" y1="664.16" x2="327.9" y2="664.16"/><line class="cls-6" x1="328.77" y1="663.29" x2="330.45" y2="661.61"/><line class="cls-6" x1="313.15" y1="686.3" x2="313.15" y2="686.3"/><line class="cls-6" x1="314.09" y1="685.37" x2="316.82" y2="682.63"/><line class="cls-6" x1="317.76" y1="681.7" x2="317.76" y2="681.7"/><line class="cls-6" x1="318.69" y1="680.77" x2="321.43" y2="677.97"/><line class="cls-6" x1="322.36" y1="677.1" x2="322.36" y2="677.1"/><line class="cls-6" x1="323.29" y1="676.16" x2="326.03" y2="673.36"/><line class="cls-6" x1="326.96" y1="672.49" x2="326.96" y2="672.49"/><line class="cls-6" x1="327.9" y1="671.56" x2="330.45" y2="668.95"/><line class="cls-6" x1="313.15" y1="693.64" x2="315.89" y2="690.91"/><line class="cls-6" x1="316.82" y1="689.97" x2="316.82" y2="689.97"/><line class="cls-6" x1="317.76" y1="689.04" x2="320.49" y2="686.3"/><line class="cls-6" x1="321.43" y1="685.37" x2="321.43" y2="685.37"/><line class="cls-6" x1="322.36" y1="684.44" x2="325.1" y2="681.7"/><line class="cls-6" x1="326.03" y1="680.77" x2="326.03" y2="680.77"/><line class="cls-6" x1="326.96" y1="679.83" x2="329.7" y2="677.1"/><line class="cls-6" x1="315.89" y1="698.25" x2="315.89" y2="698.25"/><line class="cls-6" x1="316.82" y1="697.31" x2="319.56" y2="694.58"/><line class="cls-6" x1="320.49" y1="693.64" x2="320.49" y2="693.64"/><line class="cls-6" x1="321.43" y1="692.71" x2="324.16" y2="689.97"/><line class="cls-6" x1="325.1" y1="689.04" x2="325.1" y2="689.04"/><line class="cls-6" x1="326.03" y1="688.11" x2="328.77" y2="685.37"/><line class="cls-6" x1="329.7" y1="684.44" x2="329.7" y2="684.44"/><line class="cls-6" x1="324.16" y1="697.31" x2="324.16" y2="697.31"/><line class="cls-6" x1="325.1" y1="696.44" x2="327.9" y2="693.64"/><line class="cls-6" x1="328.77" y1="692.71" x2="328.77" y2="692.71"/><line class="cls-6" x1="329.7" y1="691.84" x2="330.45" y2="691.03"/><polyline class="cls-6" points="330.45 699.68 313.09 699.68 313.09 643.25 330.45 643.25 330.45 699.68"/><text class="cls-9" transform="translate(147.72 302.02)">CT</text><text class="cls-9" transform="translate(129.97 338.99)">21.74</text><text class="cls-9" transform="translate(126.27 265.6)">№171</text><polyline class="cls-10" points="118.13 348.35 118.13 239.58 208.84 239.58 208.84 348.35"/><line class="cls-10" x1="118.13" y1="275.9" x2="208.84" y2="275.9"/><line class="cls-10" x1="118.13" y1="348.34" x2="208.84" y2="348.34"/><line class="cls-10" x1="118.13" y1="312.23" x2="208.84" y2="312.23"/><text class="cls-11" transform="translate(66.07 611.97)">3.45</text><text class="cls-11" transform="translate(187.33 578.06)">4.14</text><text class="cls-11" transform="translate(184.09 418.13)">2.20</text><text class="cls-11" transform="translate(134.23 179.56)">11.95</text></svg>