<svg id="_1" data-name="1" xmlns="http://www.w3.org/2000/svg" viewBox="0 0 476.89 536.61"><defs><style>.cls-1,.cls-4,.cls-8{fill:none;stroke-linecap:round;stroke-linejoin:round;}.cls-1{stroke:#969595;stroke-width:0.5px;}.cls-2{isolation:isolate;font-size:12px;fill:#969595;}.cls-2,.cls-6,.cls-7{font-family:PTSans-Regular, PT Sans;}.cls-3{letter-spacing:-0.01em;}.cls-4{stroke:#000;}.cls-4,.cls-8{stroke-width:0.75px;}.cls-5{fill-rule:evenodd;}.cls-6{font-size:20px;}.cls-6,.cls-7{fill:#181716;}.cls-7{font-size:24px;}.cls-8{stroke:#181716;}</style></defs><title>2floor_1flat</title><line class="cls-1" x1="207.58" y1="2" x2="207.58" y2="10.8"/><polyline class="cls-1" points="210.98 5.3 207.48 1.8 203.98 5.3"/><text class="cls-2" transform="translate(216.88 10.2)">двор</text><line class="cls-1" x1="474.34" y1="314.12" x2="465.54" y2="314.12"/><polyline class="cls-1" points="471.04 317.52 474.54 314.02 471.04 310.52"/><text class="cls-2" transform="translate(473.95 304.63) rotate(-90)"><tspan class="cls-3">у</tspan><tspan x="5.42" y="0">лица</tspan></text><line class="cls-4" x1="9.02" y1="281.94" x2="9.02" y2="178.65"/><path class="cls-4" d="M94.55,231.74a1.09,1.09,0,0,1,0,1.52" transform="translate(-28.22 -31.9)"/><line class="cls-4" x1="46.84" y1="220.85" x2="66.33" y2="201.36"/><path class="cls-4" d="M75.06,252.74a1.07,1.07,0,0,1-1.51,0" transform="translate(-28.22 -31.9)"/><line class="cls-4" x1="25.84" y1="201.36" x2="45.33" y2="220.85"/><path class="cls-4" d="M54.06,233.26a1.09,1.09,0,0,1,0-1.52" transform="translate(-28.22 -31.9)"/><line class="cls-4" x1="45.33" y1="180.36" x2="25.84" y2="199.85"/><path class="cls-4" d="M73.55,212.26a1.07,1.07,0,0,1,1.51,0" transform="translate(-28.22 -31.9)"/><line class="cls-4" x1="66.33" y1="199.85" x2="46.84" y2="180.36"/><line class="cls-4" x1="62.51" y1="199.85" x2="46.84" y2="184.18"/><line class="cls-4" x1="45.33" y1="184.18" x2="31.57" y2="197.94"/><line class="cls-4" x1="31.57" y1="199.45" x2="47.24" y2="215.12"/><line class="cls-4" x1="48.75" y1="215.12" x2="62.51" y2="201.36"/><line class="cls-4" x1="62.51" y1="199.85" x2="62.51" y2="199.85"/><path class="cls-4" d="M73.55,216.08a1.07,1.07,0,0,1,1.51,0" transform="translate(-28.22 -31.9)"/><path class="cls-4" d="M59.79,231.35a1.09,1.09,0,0,1,0-1.52" transform="translate(-28.22 -31.9)"/><path class="cls-4" d="M77,247a1.07,1.07,0,0,1-1.51,0" transform="translate(-28.22 -31.9)"/><path class="cls-4" d="M90.73,231.74a1.09,1.09,0,0,1,0,1.52" transform="translate(-28.22 -31.9)"/><line class="cls-4" x1="37.07" y1="210.29" x2="44.62" y2="202.74"/><path class="cls-4" d="M65.29,242.19a.4.4,0,0,1-.33.14.46.46,0,0,1-.48-.48.4.4,0,0,1,.14-.34" transform="translate(-28.22 -31.9)"/><line class="cls-4" x1="43.95" y1="202.06" x2="36.4" y2="209.62"/><path class="cls-4" d="M72.17,234a.5.5,0,0,1,.34-.14.48.48,0,0,1,.48.48.46.46,0,0,1-.14.33" transform="translate(-28.22 -31.9)"/><line class="cls-4" x1="36.96" y1="211.24" x2="39.43" y2="208.77"/><line class="cls-4" x1="35.44" y1="209.73" x2="36.96" y2="211.24"/><line class="cls-4" x1="37.91" y1="207.26" x2="35.44" y2="209.73"/><line class="cls-4" x1="38.34" y1="207.65" x2="37.91" y2="207.26"/><line class="cls-4" x1="36.4" y1="209.62" x2="38.34" y2="207.65"/><path class="cls-4" d="M65.29,242.19a.4.4,0,0,1-.33.14.46.46,0,0,1-.48-.48.4.4,0,0,1,.14-.34" transform="translate(-28.22 -31.9)"/><line class="cls-4" x1="39.01" y1="208.35" x2="37.07" y2="210.29"/><line class="cls-4" x1="39.43" y1="208.77" x2="39.01" y2="208.35"/><line class="cls-4" x1="39.46" y1="208.72" x2="40.81" y2="207.4"/><line class="cls-4" x1="39.07" y1="208.33" x2="39.46" y2="208.72"/><line class="cls-4" x1="40.38" y1="206.98" x2="39.07" y2="208.33"/><line class="cls-4" x1="40.81" y1="207.4" x2="40.38" y2="206.98"/><line class="cls-4" x1="39.71" y1="206.3" x2="39.29" y2="205.88"/><line class="cls-4" x1="38.36" y1="207.62" x2="39.71" y2="206.3"/><line class="cls-4" x1="37.97" y1="207.23" x2="38.36" y2="207.62"/><line class="cls-4" x1="39.29" y1="205.88" x2="37.97" y2="207.23"/><line class="cls-4" x1="69.5" y1="225.79" x2="20.9" y2="225.79"/><line class="cls-4" x1="20.9" y1="225.79" x2="20.9" y2="177.19"/><line class="cls-4" x1="69.5" y1="193.39" x2="53.3" y2="177.19"/><line class="cls-4" x1="53.3" y1="177.19" x2="53.3" y2="150.18"/><line class="cls-4" x1="20.9" y1="177.19" x2="20.9" y2="150.18"/><line class="cls-4" x1="53.3" y1="177.19" x2="20.9" y2="177.19"/><line class="cls-4" x1="53.3" y1="150.18" x2="20.9" y2="150.18"/><line class="cls-4" x1="101.9" y1="193.39" x2="69.5" y2="193.39"/><line class="cls-4" x1="101.9" y1="225.79" x2="69.5" y2="225.79"/><line class="cls-4" x1="101.9" y1="193.39" x2="101.9" y2="225.79"/><line class="cls-4" x1="69.5" y1="193.39" x2="69.5" y2="225.79"/><line class="cls-4" x1="53.3" y1="117.81" x2="53.3" y2="150.18"/><line class="cls-4" x1="53.3" y1="150.18" x2="20.9" y2="150.18"/><line class="cls-4" x1="20.9" y1="150.18" x2="20.9" y2="117.81"/><line class="cls-4" x1="20.9" y1="117.81" x2="53.3" y2="117.81"/><line class="cls-4" x1="50.32" y1="118.34" x2="50.32" y2="149.64"/><line class="cls-4" x1="50.32" y1="149.64" x2="23.88" y2="149.64"/><line class="cls-4" x1="23.88" y1="149.64" x2="23.88" y2="118.34"/><line class="cls-4" x1="23.88" y1="118.34" x2="50.32" y2="118.34"/><path class="cls-4" d="M62,157.28a3.9,3.9,0,1,0-3.9,3.91,3.92,3.92,0,0,0,3.9-3.91" transform="translate(-28.22 -31.9)"/><path class="cls-4" d="M76.3,159.05a5.67,5.67,0,1,0-5.67,5.67,5.7,5.7,0,0,0,5.67-5.67" transform="translate(-28.22 -31.9)"/><path class="cls-4" d="M63.94,173.71a4.86,4.86,0,1,0-4.85,4.86,4.88,4.88,0,0,0,4.85-4.86" transform="translate(-28.22 -31.9)"/><path class="cls-4" d="M75.32,174.8a3.92,3.92,0,0,0-7.84,0,3.92,3.92,0,1,0,7.84,0" transform="translate(-28.22 -31.9)"/><line class="cls-4" x1="53.3" y1="117.81" x2="53.3" y2="85.41"/><line class="cls-4" x1="20.9" y1="117.81" x2="20.9" y2="85.41"/><line class="cls-4" x1="53.3" y1="117.81" x2="20.9" y2="117.81"/><line class="cls-4" x1="53.3" y1="85.41" x2="20.9" y2="85.41"/><polyline class="cls-5" points="433.96 398.57 425.85 387.76 425.85 385.07 433.96 398.57 433.96 398.57"/><polyline class="cls-5" points="425.85 387.76 415.07 387.76 415.07 385.07 425.85 385.07 425.85 387.76"/><line class="cls-4" x1="415.07" y1="385.07" x2="415.07" y2="387.76"/><line class="cls-4" x1="425.85" y1="387.76" x2="415.07" y2="387.76"/><line class="cls-4" x1="0.38" y1="170.45" x2="0.38" y2="69.46"/><line class="cls-4" x1="10.12" y1="443.38" x2="10.12" y2="346.72"/><line class="cls-4" x1="10.12" y1="298.14" x2="10.12" y2="281.94"/><line class="cls-4" x1="10.12" y1="314.34" x2="10.12" y2="298.14"/><line class="cls-4" x1="10.12" y1="330.51" x2="10.12" y2="314.34"/><line class="cls-4" x1="10.12" y1="348.88" x2="10.12" y2="346.72"/><line class="cls-4" x1="10.12" y1="346.72" x2="10.12" y2="330.51"/><polyline class="cls-5" points="20.9 85.41 20.9 225.79 10.12 225.79 10.12 85.41 20.9 85.41"/><polyline class="cls-5" points="20.9 230.11 20.9 352.13 10.12 352.13 10.12 230.11 20.9 230.11"/><polyline class="cls-5" points="20.9 356.46 20.9 466.04 10.12 466.04 10.12 356.46 20.9 356.46"/><polyline class="cls-5" points="10.12 525.45 10.12 522.76 20.9 522.76 20.9 525.45 10.12 525.45"/><line class="cls-4" x1="15.51" y1="522.76" x2="10.12" y2="522.76"/><line class="cls-4" x1="20.9" y1="522.76" x2="15.51" y2="522.76"/><line class="cls-4" x1="15.51" y1="466.04" x2="10.12" y2="466.04"/><line class="cls-4" x1="20.9" y1="466.04" x2="15.51" y2="466.04"/><line class="cls-4" x1="20.9" y1="525.45" x2="20.9" y2="522.76"/><line class="cls-4" x1="20.9" y1="466.04" x2="20.9" y2="356.46"/><line class="cls-4" x1="20.9" y1="352.13" x2="20.9" y2="230.11"/><line class="cls-4" x1="20.9" y1="225.79" x2="20.9" y2="85.41"/><line class="cls-4" x1="10.12" y1="85.41" x2="10.12" y2="225.79"/><line class="cls-4" x1="10.12" y1="230.11" x2="10.12" y2="352.13"/><line class="cls-4" x1="10.12" y1="356.46" x2="10.12" y2="466.04"/><line class="cls-4" x1="10.12" y1="522.76" x2="10.12" y2="525.45"/><path class="cls-4" d="M49.12,500.1a52.39,52.39,0,0,1,52.39,52.39" transform="translate(-28.22 -31.9)"/><polyline class="cls-5" points="15.51 466.04 20.9 466.04 20.9 468.2 15.51 468.2 15.51 466.04"/><polyline class="cls-5" points="20.9 522.76 15.51 522.76 15.51 520.6 20.9 520.6 20.9 522.76"/><line class="cls-4" x1="15.51" y1="466.04" x2="15.51" y2="468.2"/><line class="cls-4" x1="15.51" y1="468.2" x2="20.9" y2="468.2"/><line class="cls-4" x1="20.9" y1="468.2" x2="20.9" y2="466.04"/><line class="cls-4" x1="20.9" y1="466.04" x2="15.51" y2="466.04"/><line class="cls-4" x1="20.9" y1="522.76" x2="20.9" y2="520.59"/><line class="cls-4" x1="20.9" y1="520.59" x2="15.51" y2="520.59"/><line class="cls-4" x1="15.51" y1="520.59" x2="15.51" y2="522.76"/><line class="cls-4" x1="15.51" y1="522.76" x2="20.9" y2="522.76"/><line class="cls-4" x1="20.9" y1="520.59" x2="73.29" y2="520.59"/><line class="cls-4" x1="20.9" y1="466.04" x2="15.51" y2="466.04"/><line class="cls-4" x1="20.9" y1="466.04" x2="15.51" y2="466.04"/><line class="cls-4" x1="15.51" y1="466.04" x2="10.12" y2="466.04"/><line class="cls-4" x1="20.9" y1="522.76" x2="15.51" y2="522.76"/><line class="cls-4" x1="20.9" y1="522.76" x2="15.51" y2="522.76"/><line class="cls-4" x1="15.51" y1="522.76" x2="10.12" y2="522.76"/><polyline class="cls-5" points="174.79 398.57 174.79 387.76 366.47 387.76 366.47 398.57 174.79 398.57"/><line class="cls-4" x1="174.79" y1="398.57" x2="366.47" y2="398.57"/><line class="cls-4" x1="366.47" y1="387.76" x2="366.47" y2="398.57"/><line class="cls-4" x1="366.47" y1="387.76" x2="174.79" y2="387.76"/><line class="cls-4" x1="174.79" y1="387.76" x2="174.79" y2="398.57"/><polyline class="cls-5" points="115.41 331.08 119.7 331.08 119.7 339.16 115.41 339.16 115.41 331.08"/><line class="cls-4" x1="115.41" y1="387.76" x2="119.7" y2="387.76"/><line class="cls-4" x1="115.41" y1="339.16" x2="119.7" y2="339.16"/><line class="cls-4" x1="115.41" y1="331.08" x2="115.41" y2="339.16"/><line class="cls-4" x1="119.7" y1="339.16" x2="119.7" y2="331.08"/><path class="cls-4" d="M147.92,373.22A44.27,44.27,0,0,1,192.2,417.5" transform="translate(-28.22 -31.9)"/><polyline class="cls-5" points="115.41 339.16 119.7 339.16 119.7 341.32 115.41 341.32 115.41 339.16"/><polyline class="cls-5" points="119.7 387.76 115.41 387.76 115.41 385.6 119.7 385.6 119.7 387.76"/><line class="cls-4" x1="115.41" y1="339.16" x2="115.41" y2="341.32"/><line class="cls-4" x1="115.41" y1="341.32" x2="119.7" y2="341.32"/><line class="cls-4" x1="119.7" y1="341.32" x2="119.7" y2="339.16"/><line class="cls-4" x1="119.7" y1="339.16" x2="115.41" y2="339.16"/><line class="cls-4" x1="119.7" y1="387.76" x2="119.7" y2="385.6"/><line class="cls-4" x1="119.7" y1="385.6" x2="115.41" y2="385.6"/><line class="cls-4" x1="115.41" y1="385.6" x2="115.41" y2="387.76"/><line class="cls-4" x1="115.41" y1="387.76" x2="119.7" y2="387.76"/><line class="cls-4" x1="119.7" y1="385.6" x2="163.98" y2="385.6"/><line class="cls-4" x1="115.41" y1="339.16" x2="119.7" y2="339.16"/><line class="cls-4" x1="115.41" y1="339.16" x2="119.7" y2="339.16"/><line class="cls-4" x1="115.41" y1="387.76" x2="119.7" y2="387.76"/><line class="cls-4" x1="115.41" y1="387.76" x2="119.7" y2="387.76"/><line class="cls-4" x1="126.19" y1="536.23" x2="121.86" y2="536.23"/><polyline class="cls-5" points="115.41 525.45 126.19 536.23 10.12 536.23 10.12 525.45 115.41 525.45"/><line class="cls-4" x1="115.41" y1="525.45" x2="20.9" y2="525.45"/><line class="cls-4" x1="10.12" y1="536.23" x2="126.19" y2="536.23"/><polyline class="cls-5" points="115.41 447.15 126.19 447.15 126.19 536.23 115.41 525.45 115.41 447.15"/><line class="cls-4" x1="115.41" y1="447.15" x2="115.41" y2="525.45"/><line class="cls-4" x1="126.19" y1="536.23" x2="126.19" y2="447.15"/><line class="cls-4" x1="126.19" y1="447.15" x2="115.41" y2="447.15"/><polyline class="cls-5" points="10.12 525.45 10.12 536.23 10.12 525.45"/><line class="cls-4" x1="10.12" y1="525.45" x2="10.12" y2="525.45"/><line class="cls-4" x1="10.12" y1="536.23" x2="10.12" y2="525.45"/><line class="cls-4" x1="10.12" y1="536.23" x2="10.12" y2="536.23"/><polyline class="cls-5" points="126.19 447.15 115.41 447.15 115.41 387.76 126.19 398.57 126.19 447.15"/><line class="cls-4" x1="126.19" y1="447.15" x2="126.19" y2="398.57"/><line class="cls-4" x1="115.41" y1="387.76" x2="115.41" y2="447.15"/><line class="cls-4" x1="115.41" y1="447.15" x2="126.19" y2="447.15"/><polyline class="cls-5" points="174.79 387.76 174.79 398.57 126.19 398.57 115.41 387.76 174.79 387.76"/><line class="cls-4" x1="174.79" y1="387.76" x2="115.41" y2="387.76"/><line class="cls-4" x1="126.19" y1="398.57" x2="174.79" y2="398.57"/><line class="cls-4" x1="174.79" y1="387.76" x2="174.79" y2="398.57"/><polyline class="cls-5" points="366.47 398.57 366.47 387.76 425.85 387.76 425.85 398.57 366.47 398.57"/><line class="cls-4" x1="366.47" y1="398.57" x2="425.85" y2="398.57"/><line class="cls-4" x1="425.85" y1="387.76" x2="425.85" y2="398.57"/><line class="cls-4" x1="425.85" y1="387.76" x2="366.47" y2="387.76"/><line class="cls-4" x1="366.47" y1="387.76" x2="366.47" y2="398.57"/><polyline class="cls-5" points="193.68 85.41 193.68 74.6 253.07 74.6 242.28 85.41 193.68 85.41"/><line class="cls-4" x1="193.68" y1="85.41" x2="242.28" y2="85.41"/><line class="cls-4" x1="253.07" y1="74.6" x2="193.68" y2="74.6"/><line class="cls-4" x1="193.68" y1="74.6" x2="193.68" y2="85.41"/><polyline class="cls-5" points="253.07 133.98 242.28 133.98 242.28 85.41 253.07 74.6 253.07 133.98"/><line class="cls-4" x1="253.07" y1="133.98" x2="253.07" y2="74.6"/><line class="cls-4" x1="242.28" y1="85.41" x2="242.28" y2="133.98"/><line class="cls-4" x1="242.28" y1="133.98" x2="253.07" y2="133.98"/><polyline class="cls-5" points="366.47 133.98 366.47 123.2 425.85 123.2 415.07 133.98 366.47 133.98"/><line class="cls-4" x1="366.47" y1="133.98" x2="415.07" y2="133.98"/><line class="cls-4" x1="425.85" y1="123.2" x2="366.47" y2="123.2"/><line class="cls-4" x1="366.47" y1="123.2" x2="366.47" y2="133.98"/><polyline class="cls-5" points="425.85 182.58 415.07 182.58 415.07 133.98 425.85 123.2 425.85 182.58"/><line class="cls-4" x1="425.85" y1="182.58" x2="425.85" y2="123.2"/><line class="cls-4" x1="415.07" y1="133.98" x2="415.07" y2="182.58"/><line class="cls-4" x1="415.07" y1="182.58" x2="425.85" y2="182.58"/><line class="cls-4" x1="10.12" y1="443.38" x2="10.12" y2="449.84"/><polyline class="cls-5" points="20.9 230.11 20.9 225.79 150.5 225.79 146.18 230.11 20.9 230.11"/><polyline class="cls-5" points="10.12 230.11 10.12 225.79 20.9 225.79 20.9 230.11 10.12 230.11"/><line class="cls-4" x1="20.9" y1="230.11" x2="146.18" y2="230.11"/><line class="cls-4" x1="150.5" y1="225.79" x2="20.9" y2="225.79"/><line class="cls-4" x1="10.12" y1="225.79" x2="10.12" y2="230.11"/><polyline class="cls-5" points="146.18 230.11 150.5 225.79 150.5 331.08 146.18 326.75 146.18 230.11"/><line class="cls-4" x1="146.18" y1="230.11" x2="146.18" y2="326.75"/><line class="cls-4" x1="150.5" y1="331.08" x2="150.5" y2="225.79"/><polyline class="cls-5" points="20.9 352.13 20.9 356.46 10.12 356.46 10.12 352.13 20.9 352.13"/><polyline class="cls-5" points="20.9 356.46 20.9 352.13 53.38 352.13 57.71 356.46 20.9 356.46"/><line class="cls-4" x1="20.9" y1="356.46" x2="57.71" y2="356.46"/><line class="cls-4" x1="53.38" y1="352.13" x2="20.9" y2="352.13"/><line class="cls-4" x1="10.12" y1="356.46" x2="10.12" y2="352.13"/><polyline class="cls-5" points="57.71 356.46 53.38 352.13 53.38 326.75 57.71 331.08 57.71 356.46"/><line class="cls-4" x1="57.71" y1="356.46" x2="57.71" y2="331.08"/><line class="cls-4" x1="53.38" y1="326.75" x2="53.38" y2="352.13"/><polyline class="cls-5" points="53.38 326.75 67.87 326.75 67.87 331.08 57.71 331.08 53.38 326.75"/><polyline class="cls-5" points="105.69 326.75 146.18 326.75 150.5 331.08 105.69 331.08 105.69 326.75"/><line class="cls-4" x1="105.69" y1="326.75" x2="105.69" y2="331.08"/><line class="cls-4" x1="67.87" y1="326.75" x2="67.87" y2="331.08"/><line class="cls-4" x1="57.71" y1="331.08" x2="67.87" y2="331.08"/><line class="cls-4" x1="105.69" y1="331.08" x2="115.41" y2="331.08"/><line class="cls-4" x1="119.7" y1="331.08" x2="150.5" y2="331.08"/><line class="cls-4" x1="146.18" y1="326.75" x2="105.69" y2="326.75"/><line class="cls-4" x1="67.87" y1="326.75" x2="53.38" y2="326.75"/><line class="cls-4" x1="103.53" y1="331.08" x2="70.03" y2="331.08"/><line class="cls-4" x1="70.03" y1="326.75" x2="103.53" y2="326.75"/><path class="cls-4" d="M98.26,358.65a33.47,33.47,0,0,1,33.49-33.47" transform="translate(-28.22 -31.9)"/><polyline class="cls-5" points="67.87 331.08 67.87 326.75 70.03 326.75 70.03 331.08 67.87 331.08"/><polyline class="cls-5" points="105.69 326.75 105.69 331.08 103.53 331.08 103.53 326.75 105.69 326.75"/><line class="cls-4" x1="67.87" y1="331.08" x2="70.03" y2="331.08"/><line class="cls-4" x1="70.03" y1="331.08" x2="70.03" y2="326.75"/><line class="cls-4" x1="70.03" y1="326.75" x2="67.87" y2="326.75"/><line class="cls-4" x1="67.87" y1="326.75" x2="67.87" y2="331.08"/><line class="cls-4" x1="105.69" y1="326.75" x2="103.53" y2="326.75"/><line class="cls-4" x1="103.53" y1="326.75" x2="103.53" y2="331.08"/><line class="cls-4" x1="103.53" y1="331.08" x2="105.69" y2="331.08"/><line class="cls-4" x1="105.69" y1="331.08" x2="105.69" y2="326.75"/><line class="cls-4" x1="103.53" y1="326.75" x2="103.53" y2="293.29"/><line class="cls-4" x1="67.87" y1="326.75" x2="67.87" y2="331.08"/><line class="cls-4" x1="67.87" y1="326.75" x2="67.87" y2="331.08"/><line class="cls-4" x1="105.69" y1="326.75" x2="105.69" y2="331.08"/><line class="cls-4" x1="105.69" y1="326.75" x2="105.69" y2="331.08"/><polyline class="cls-5" points="57.37 248.73 57.37 249.4 28.62 249.4 28.62 248.73 57.37 248.73"/><polyline class="cls-5" points="57.37 249.4 57.37 248.73 58.05 249.4 57.37 249.4"/><polyline class="cls-5" points="56.7 248.05 56.7 248.73 28.62 248.73 28.62 248.05 56.7 248.05"/><polyline class="cls-5" points="56.7 248.73 56.7 248.05 57.37 248.73 56.7 248.73"/><line class="cls-4" x1="28.62" y1="249.4" x2="58.05" y2="249.4"/><line class="cls-4" x1="56.7" y1="248.05" x2="28.62" y2="248.05"/><polyline class="cls-5" points="57.37 248.73 58.05 248.73 58.05 249.4 57.37 248.73"/><polyline class="cls-5" points="58.05 248.73 57.37 248.73 57.37 230.11 58.05 230.11 58.05 248.73"/><polyline class="cls-5" points="56.7 248.05 57.37 248.05 57.37 248.73 56.7 248.05"/><polyline class="cls-5" points="57.37 248.05 56.7 248.05 56.7 230.11 57.37 230.11 57.37 248.05"/><line class="cls-4" x1="58.05" y1="249.4" x2="58.05" y2="248.73"/><line class="cls-4" x1="58.05" y1="248.73" x2="58.05" y2="230.11"/><line class="cls-4" x1="58.05" y1="230.11" x2="57.37" y2="230.11"/><line class="cls-4" x1="57.37" y1="230.11" x2="56.7" y2="230.11"/><line class="cls-4" x1="56.7" y1="230.11" x2="56.7" y2="248.05"/><polyline class="cls-5" points="28.62 249.54 27.95 249.54 27.95 230.11 28.62 230.11 28.62 249.54"/><polyline class="cls-5" points="27.95 249.54 27.27 249.54 27.27 230.11 27.95 230.11 27.95 249.54"/><line class="cls-4" x1="28.62" y1="249.54" x2="28.62" y2="249.4"/><line class="cls-4" x1="28.62" y1="248.05" x2="28.62" y2="230.11"/><line class="cls-4" x1="28.62" y1="230.11" x2="27.95" y2="230.11"/><line class="cls-4" x1="27.95" y1="230.11" x2="27.27" y2="230.11"/><line class="cls-4" x1="27.27" y1="230.11" x2="27.27" y2="249.54"/><line class="cls-4" x1="28.62" y1="249.54" x2="27.95" y2="249.54"/><line class="cls-4" x1="27.95" y1="249.54" x2="27.27" y2="249.54"/><polyline class="cls-5" points="261.18 66.51 262.81 66.51 261.18 67.86 261.18 66.51"/><polyline class="cls-5" points="253.07 74.6 253.07 66.51 261.18 66.51 261.18 67.86 253.07 74.6"/><polyline class="cls-5" points="253.07 66.51 253.07 74.6 193.68 74.6 193.68 66.51 253.07 66.51"/><line class="cls-4" x1="193.68" y1="74.6" x2="253.07" y2="74.6"/><line class="cls-4" x1="262.81" y1="66.51" x2="261.18" y2="66.51"/><line class="cls-4" x1="261.18" y1="66.51" x2="193.68" y2="66.51"/><polyline class="cls-5" points="261.18 115.08 262.02 115.08 261.18 116.91 261.18 115.08"/><polyline class="cls-5" points="261.18 115.08 261.18 113.48 262.81 113.48 262.02 115.08 261.18 115.08"/><polyline class="cls-5" points="262.81 113.48 261.18 113.48 261.18 67.86 262.81 66.51 262.81 113.48"/><polyline class="cls-5" points="258.2 123.2 253.07 134.01 253.07 123.2 258.2 123.2"/><polyline class="cls-5" points="253.07 115.08 261.18 115.08 261.18 116.91 258.2 123.2 253.07 123.2 253.07 115.08"/><polyline class="cls-5" points="253.07 74.6 261.18 74.6 261.18 115.08 253.07 115.08 253.07 74.6"/><polyline class="cls-5" points="261.18 67.86 261.18 74.6 253.07 74.6 261.18 67.86"/><line class="cls-4" x1="253.07" y1="134.01" x2="253.07" y2="123.2"/><line class="cls-4" x1="253.07" y1="74.6" x2="253.07" y2="123.2"/><line class="cls-4" x1="262.81" y1="113.48" x2="262.81" y2="66.51"/><polyline class="cls-5" points="433.96 113.48 432.62 115.08 366.47 115.08 366.47 113.48 433.96 113.48"/><polyline class="cls-5" points="425.85 123.2 425.85 115.08 432.62 115.08 425.85 123.2"/><polyline class="cls-5" points="425.85 115.08 425.85 123.2 366.47 123.2 366.47 115.08 425.85 115.08"/><line class="cls-4" x1="366.47" y1="123.2" x2="425.85" y2="123.2"/><line class="cls-4" x1="433.97" y1="113.48" x2="366.47" y2="113.48"/><polyline class="cls-5" points="425.85 123.2 433.96 123.2 433.96 182.58 425.85 182.58 425.85 123.2"/><polyline class="cls-5" points="425.85 123.2 432.62 115.08 433.96 115.08 433.96 123.2 425.85 123.2"/><polyline class="cls-5" points="432.62 115.08 433.96 113.48 433.96 115.08 432.62 115.08"/><line class="cls-4" x1="425.85" y1="123.2" x2="425.85" y2="182.58"/><line class="cls-4" x1="433.97" y1="113.48" x2="433.97" y2="115.08"/><line class="cls-4" x1="433.97" y1="115.08" x2="433.97" y2="123.2"/><line class="cls-4" x1="433.97" y1="182.58" x2="433.97" y2="123.2"/><polyline class="cls-5" points="425.85 385.07 425.85 331.08 433.96 331.08 433.96 398.57 425.85 385.07"/><polyline class="cls-5" points="425.85 228.48 425.85 182.58 433.96 182.58 433.96 228.48 425.85 228.48"/><polyline class="cls-5" points="415.07 322.96 425.85 322.96 425.85 385.07 415.07 385.07 415.07 322.96"/><polyline class="cls-5" points="415.07 236.57 415.07 182.58 425.85 182.58 425.85 236.57 415.07 236.57"/><polyline class="cls-5" points="433.96 228.48 433.96 236.57 425.85 236.57 425.85 228.48 433.96 228.48"/><polyline class="cls-5" points="433.96 331.08 425.85 331.08 425.85 322.96 433.96 322.96 433.96 331.08"/><line class="cls-4" x1="425.85" y1="322.96" x2="433.97" y2="322.96"/><line class="cls-4" x1="425.85" y1="236.57" x2="433.97" y2="236.57"/><line class="cls-4" x1="433.97" y1="331.08" x2="433.97" y2="322.96"/><line class="cls-4" x1="433.97" y1="228.48" x2="433.97" y2="236.57"/><line class="cls-4" x1="423.16" y1="322.96" x2="415.07" y2="322.96"/><line class="cls-4" x1="425.85" y1="322.96" x2="423.16" y2="322.96"/><line class="cls-4" x1="423.16" y1="236.57" x2="415.07" y2="236.57"/><line class="cls-4" x1="425.85" y1="236.57" x2="423.16" y2="236.57"/><line class="cls-4" x1="415.07" y1="182.58" x2="415.07" y2="236.57"/><line class="cls-4" x1="415.07" y1="322.96" x2="415.07" y2="385.07"/><line class="cls-4" x1="433.97" y1="398.57" x2="433.97" y2="331.08"/><line class="cls-4" x1="433.97" y1="228.48" x2="433.97" y2="182.58"/><line class="cls-4" x1="425.85" y1="182.58" x2="415.07" y2="182.58"/><line class="cls-4" x1="433.97" y1="236.57" x2="433.97" y2="322.96"/><line class="cls-4" x1="415.07" y1="236.57" x2="415.07" y2="322.96"/><polyline class="cls-5" points="423.15 236.57 425.85 236.57 425.85 241.99 423.15 241.99 423.15 236.57"/><polyline class="cls-5" points="425.85 272.23 423.15 272.23 423.15 268.44 425.85 268.44 425.85 272.23"/><polyline class="cls-5" points="423.15 272.23 425.85 272.23 425.85 275.99 423.15 275.99 423.15 272.23"/><polyline class="cls-5" points="425.85 322.96 423.15 322.96 423.15 317.57 425.85 317.57 425.85 322.96"/><line class="cls-4" x1="423.16" y1="236.57" x2="423.16" y2="241.99"/><line class="cls-4" x1="423.16" y1="241.99" x2="425.85" y2="241.99"/><line class="cls-4" x1="425.85" y1="241.99" x2="425.85" y2="236.57"/><line class="cls-4" x1="425.85" y1="272.23" x2="425.85" y2="268.44"/><line class="cls-4" x1="425.85" y1="268.44" x2="423.16" y2="268.44"/><line class="cls-4" x1="423.16" y1="268.44" x2="423.16" y2="272.23"/><line class="cls-4" x1="423.16" y1="241.99" x2="423.16" y2="268.44"/><line class="cls-4" x1="425.85" y1="268.44" x2="425.85" y2="241.99"/><line class="cls-4" x1="423.16" y1="272.23" x2="423.16" y2="275.99"/><line class="cls-4" x1="423.16" y1="275.99" x2="425.85" y2="275.99"/><line class="cls-4" x1="425.85" y1="275.99" x2="425.85" y2="272.23"/><line class="cls-4" x1="425.85" y1="322.96" x2="425.85" y2="317.57"/><line class="cls-4" x1="425.85" y1="317.57" x2="423.16" y2="317.57"/><line class="cls-4" x1="423.16" y1="317.57" x2="423.16" y2="322.96"/><line class="cls-4" x1="423.16" y1="275.99" x2="423.16" y2="317.57"/><line class="cls-4" x1="425.85" y1="317.57" x2="425.85" y2="275.99"/><line class="cls-4" x1="425.85" y1="236.57" x2="423.16" y2="236.57"/><line class="cls-4" x1="425.85" y1="236.57" x2="423.16" y2="236.57"/><line class="cls-4" x1="423.16" y1="236.57" x2="415.07" y2="236.57"/><line class="cls-4" x1="425.85" y1="322.96" x2="423.16" y2="322.96"/><line class="cls-4" x1="425.85" y1="322.96" x2="423.16" y2="322.96"/><line class="cls-4" x1="423.16" y1="322.96" x2="415.07" y2="322.96"/><line class="cls-4" x1="425.85" y1="236.57" x2="433.97" y2="236.57"/><line class="cls-4" x1="425.85" y1="236.57" x2="433.97" y2="236.57"/><line class="cls-4" x1="425.85" y1="322.96" x2="433.97" y2="322.96"/><line class="cls-4" x1="425.85" y1="322.96" x2="433.97" y2="322.96"/><polyline class="cls-5" points="366.47 113.48 366.47 115.08 364.31 115.08 364.31 113.48 366.47 113.48"/><polyline class="cls-5" points="366.47 115.08 366.47 123.2 364.31 123.2 364.31 115.08 366.47 115.08"/><polyline class="cls-5" points="258.2 123.2 258.49 122.61 258.49 123.2 258.2 123.2"/><polyline class="cls-5" points="258.2 123.2 260.08 123.2 260.08 134.01 253.07 134.01 258.2 123.2"/><polyline class="cls-5" points="362.68 123.2 366.47 123.2 366.47 133.98 362.68 133.98 362.68 123.2"/><polyline class="cls-5" points="258.49 113.48 260.08 113.48 260.08 123.2 258.49 123.2 258.49 113.48"/><polyline class="cls-5" points="364.31 113.48 364.31 123.2 362.68 123.2 362.68 113.48 364.31 113.48"/><polyline class="cls-5" points="364.31 113.48 364.31 123.2 362.68 123.2 362.68 113.48 364.31 113.48"/><line class="cls-4" x1="260.09" y1="115.08" x2="260.09" y2="123.2"/><line class="cls-4" x1="260.09" y1="113.48" x2="260.09" y2="115.08"/><line class="cls-4" x1="258.49" y1="113.48" x2="260.09" y2="113.48"/><line class="cls-4" x1="260.09" y1="125.89" x2="260.09" y2="134.01"/><line class="cls-4" x1="260.09" y1="123.2" x2="260.09" y2="125.89"/><line class="cls-4" x1="253.07" y1="134.01" x2="260.09" y2="134.01"/><line class="cls-4" x1="362.68" y1="133.98" x2="366.47" y2="133.98"/><line class="cls-4" x1="366.47" y1="123.2" x2="366.47" y2="133.98"/><line class="cls-4" x1="366.47" y1="113.48" x2="364.31" y2="113.48"/><line class="cls-4" x1="260.09" y1="113.48" x2="316.8" y2="113.48"/><line class="cls-4" x1="260.09" y1="134.01" x2="316.8" y2="133.98"/><polyline class="cls-5" points="260.08 125.89 260.08 123.2 265.5 123.2 265.5 125.89 260.08 125.89"/><polyline class="cls-5" points="316.8 123.2 316.8 125.89 311.38 125.89 311.38 123.2 316.8 123.2"/><line class="cls-4" x1="260.09" y1="125.89" x2="265.5" y2="125.89"/><line class="cls-4" x1="265.5" y1="125.89" x2="265.5" y2="123.2"/><line class="cls-4" x1="265.5" y1="123.2" x2="260.09" y2="123.2"/><line class="cls-4" x1="316.8" y1="123.2" x2="311.38" y2="123.2"/><line class="cls-4" x1="311.38" y1="123.2" x2="311.38" y2="125.89"/><line class="cls-4" x1="311.38" y1="125.89" x2="316.8" y2="125.89"/><line class="cls-4" x1="265.5" y1="125.89" x2="311.38" y2="125.89"/><line class="cls-4" x1="311.38" y1="123.2" x2="265.5" y2="123.2"/><line class="cls-4" x1="260.09" y1="123.2" x2="260.09" y2="125.89"/><line class="cls-4" x1="260.09" y1="123.2" x2="260.09" y2="125.89"/><line class="cls-4" x1="260.09" y1="125.89" x2="260.09" y2="134.01"/><line class="cls-4" x1="260.09" y1="113.48" x2="260.09" y2="115.08"/><line class="cls-4" x1="260.09" y1="115.08" x2="260.09" y2="123.2"/><path class="cls-4" d="M388.74,199.37h0a41.57,41.57,0,0,1-41.56-41.58" transform="translate(-28.22 -31.9)"/><polyline class="cls-5" points="316.8 123.2 318.96 123.2 318.96 125.89 316.8 125.89 316.8 123.2"/><polyline class="cls-5" points="362.68 125.89 360.51 125.89 360.51 123.2 362.68 123.2 362.68 125.89"/><line class="cls-4" x1="316.8" y1="123.2" x2="318.96" y2="123.2"/><line class="cls-4" x1="318.96" y1="123.2" x2="318.96" y2="125.89"/><line class="cls-4" x1="318.96" y1="125.89" x2="316.8" y2="125.89"/><line class="cls-4" x1="362.68" y1="125.89" x2="360.52" y2="125.89"/><line class="cls-4" x1="360.52" y1="125.89" x2="360.52" y2="123.2"/><line class="cls-4" x1="360.52" y1="123.2" x2="362.68" y2="123.2"/><line class="cls-4" x1="362.68" y1="123.2" x2="362.68" y2="125.89"/><line class="cls-4" x1="360.52" y1="125.89" x2="360.52" y2="167.47"/><line class="cls-4" x1="362.68" y1="123.2" x2="362.68" y2="125.89"/><line class="cls-4" x1="362.68" y1="123.2" x2="362.68" y2="125.89"/><line class="cls-4" x1="362.68" y1="125.89" x2="362.68" y2="133.98"/><line class="cls-4" x1="362.68" y1="125.89" x2="362.68" y2="133.98"/><line class="cls-4" x1="362.68" y1="113.48" x2="362.68" y2="115.08"/><line class="cls-4" x1="362.68" y1="113.48" x2="362.68" y2="115.08"/><line class="cls-4" x1="362.68" y1="115.08" x2="362.68" y2="123.2"/><line class="cls-4" x1="362.68" y1="115.08" x2="362.68" y2="123.2"/><line class="cls-4" x1="316.8" y1="113.48" x2="365" y2="113.48"/><line class="cls-4" x1="362.68" y1="134.01" x2="316.8" y2="134.01"/><path class="cls-4" d="M388.74,199.37h0a41.57,41.57,0,0,1-41.56-41.58" transform="translate(-28.22 -31.9)"/><polyline class="cls-5" points="316.8 123.2 318.96 123.2 318.96 125.89 316.8 125.89 316.8 123.2"/><polyline class="cls-5" points="362.68 125.89 360.51 125.89 360.51 123.2 362.68 123.2 362.68 125.89"/><line class="cls-4" x1="316.8" y1="123.2" x2="318.96" y2="123.2"/><line class="cls-4" x1="318.96" y1="123.2" x2="318.96" y2="125.89"/><line class="cls-4" x1="318.96" y1="125.89" x2="316.8" y2="125.89"/><line class="cls-4" x1="362.68" y1="125.89" x2="360.52" y2="125.89"/><line class="cls-4" x1="360.52" y1="125.89" x2="360.52" y2="123.2"/><line class="cls-4" x1="360.52" y1="123.2" x2="362.68" y2="123.2"/><line class="cls-4" x1="362.68" y1="123.2" x2="362.68" y2="125.89"/><line class="cls-4" x1="360.52" y1="125.89" x2="360.52" y2="167.47"/><line class="cls-4" x1="362.68" y1="123.2" x2="362.68" y2="125.89"/><line class="cls-4" x1="362.68" y1="123.2" x2="362.68" y2="125.89"/><line class="cls-4" x1="362.68" y1="125.89" x2="362.68" y2="133.98"/><line class="cls-4" x1="362.68" y1="125.89" x2="362.68" y2="133.98"/><line class="cls-4" x1="362.68" y1="113.48" x2="362.68" y2="115.08"/><line class="cls-4" x1="362.68" y1="113.48" x2="362.68" y2="115.08"/><line class="cls-4" x1="362.68" y1="115.08" x2="362.68" y2="123.2"/><line class="cls-4" x1="362.68" y1="115.08" x2="362.68" y2="123.2"/><line class="cls-4" x1="433.97" y1="398.57" x2="415.07" y2="398.57"/><line class="cls-4" x1="0.38" y1="71.09" x2="0.38" y2="71.37"/><line class="cls-4" x1="0.38" y1="71.37" x2="0.38" y2="72.71"/><line class="cls-4" x1="0.38" y1="71.09" x2="0.38" y2="71.37"/><line class="cls-4" x1="0.38" y1="71.09" x2="0.38" y2="71.37"/><polyline class="cls-5" points="2 173.15 10.12 178.54 2 178.54 2 173.15"/><polyline class="cls-5" points="0.4 178.54 0.4 172.05 2 173.15 2 178.54 0.4 178.54"/><line class="cls-4" x1="0.38" y1="178.25" x2="0.38" y2="178.54"/><line class="cls-4" x1="0.38" y1="172.05" x2="0.38" y2="178.25"/><line class="cls-4" x1="10.12" y1="178.54" x2="2" y2="178.54"/><line class="cls-4" x1="0.38" y1="178.54" x2="2" y2="178.54"/><line class="cls-4" x1="0.38" y1="178.25" x2="0.38" y2="172.05"/><line class="cls-4" x1="0.38" y1="172.05" x2="0.38" y2="178.25"/><line class="cls-4" x1="0.38" y1="172.05" x2="0.38" y2="178.25"/><line class="cls-4" x1="0.38" y1="178.25" x2="0.38" y2="178.54"/><polyline class="cls-5" points="433.96 398.57 425.85 398.57 425.85 387.76 433.96 398.57 433.96 398.57"/><line class="cls-4" x1="425.85" y1="387.76" x2="425.85" y2="398.57"/><polyline class="cls-5" points="2 172.05 0.4 172.05 0.4 66.51 2 69.65 2 172.05"/><polyline class="cls-5" points="0.4 172.05 2 172.05 2 173.15 0.4 172.05"/><polyline class="cls-5" points="4.56 74.6 2 74.6 2 69.65 4.56 74.6"/><polyline class="cls-5" points="2 74.6 4.56 74.6 10.12 85.41 10.12 178.54 2 173.15 2 74.6"/><line class="cls-4" x1="10.12" y1="178.54" x2="10.12" y2="85.41"/><line class="cls-4" x1="0.38" y1="66.51" x2="0.38" y2="172.05"/><line class="cls-4" x1="433.97" y1="380.74" x2="433.97" y2="398.57"/><polyline class="cls-5" points="261.18 63.79 277.38 63.79 277.38 70.27 261.18 70.27 261.18 63.79"/><polyline class="cls-5" points="437.19 63.79 430.71 70.27 423.15 70.27 423.15 63.79 437.19 63.79"/><line class="cls-4" x1="437.19" y1="63.79" x2="423.16" y2="63.79"/><line class="cls-4" x1="277.38" y1="63.79" x2="261.18" y2="63.79"/><line class="cls-4" x1="261.18" y1="63.79" x2="261.18" y2="70.27"/><line class="cls-4" x1="261.18" y1="70.27" x2="277.38" y2="70.27"/><line class="cls-4" x1="423.16" y1="70.27" x2="430.71" y2="70.27"/><line class="cls-4" x1="423.16" y1="63.79" x2="277.38" y2="63.79"/><line class="cls-4" x1="423.16" y1="70.27" x2="277.38" y2="70.27"/><polyline class="cls-5" points="423.15 66.51 419.93 66.51 419.93 63.79 423.15 63.79 423.15 66.51"/><polyline class="cls-5" points="374.02 63.79 375.65 63.79 375.65 66.51 374.02 66.51 374.02 63.79"/><polyline class="cls-5" points="374.02 66.51 372.39 66.51 372.39 63.79 374.02 63.79 374.02 66.51"/><polyline class="cls-5" points="326.51 63.79 328.14 63.79 328.14 66.51 326.51 66.51 326.51 63.79"/><polyline class="cls-5" points="326.51 66.51 324.89 66.51 324.89 63.79 326.51 63.79 326.51 66.51"/><polyline class="cls-5" points="277.38 63.79 280.61 63.79 280.61 66.51 277.38 66.51 277.38 63.79"/><line class="cls-4" x1="423.16" y1="66.51" x2="419.93" y2="66.51"/><line class="cls-4" x1="419.93" y1="66.51" x2="419.93" y2="63.79"/><line class="cls-4" x1="419.93" y1="63.79" x2="423.16" y2="63.79"/><line class="cls-4" x1="374.02" y1="63.79" x2="375.65" y2="63.79"/><line class="cls-4" x1="375.65" y1="63.79" x2="375.65" y2="66.51"/><line class="cls-4" x1="375.65" y1="66.51" x2="374.02" y2="66.51"/><line class="cls-4" x1="419.93" y1="66.51" x2="375.65" y2="66.51"/><line class="cls-4" x1="375.65" y1="63.79" x2="419.93" y2="63.79"/><line class="cls-4" x1="374.02" y1="66.51" x2="372.39" y2="66.51"/><line class="cls-4" x1="372.39" y1="66.51" x2="372.39" y2="63.79"/><line class="cls-4" x1="372.39" y1="63.79" x2="374.02" y2="63.79"/><line class="cls-4" x1="326.51" y1="63.79" x2="328.14" y2="63.79"/><line class="cls-4" x1="328.14" y1="63.79" x2="328.14" y2="66.51"/><line class="cls-4" x1="328.14" y1="66.51" x2="326.51" y2="66.51"/><line class="cls-4" x1="372.39" y1="66.51" x2="328.14" y2="66.51"/><line class="cls-4" x1="328.14" y1="63.79" x2="372.39" y2="63.79"/><line class="cls-4" x1="326.51" y1="66.51" x2="324.89" y2="66.51"/><line class="cls-4" x1="324.89" y1="66.51" x2="324.89" y2="63.79"/><line class="cls-4" x1="324.89" y1="63.79" x2="326.51" y2="63.79"/><line class="cls-4" x1="277.38" y1="63.79" x2="280.61" y2="63.79"/><line class="cls-4" x1="280.61" y1="63.79" x2="280.61" y2="66.51"/><line class="cls-4" x1="280.61" y1="66.51" x2="277.38" y2="66.51"/><line class="cls-4" x1="324.89" y1="66.51" x2="280.61" y2="66.51"/><line class="cls-4" x1="280.61" y1="63.79" x2="324.89" y2="63.79"/><line class="cls-4" x1="423.16" y1="63.79" x2="423.16" y2="66.51"/><line class="cls-4" x1="423.16" y1="63.79" x2="423.16" y2="66.51"/><line class="cls-4" x1="423.16" y1="66.51" x2="423.16" y2="70.27"/><line class="cls-4" x1="277.38" y1="63.79" x2="277.38" y2="66.51"/><line class="cls-4" x1="277.38" y1="63.79" x2="277.38" y2="66.51"/><line class="cls-4" x1="277.38" y1="66.51" x2="277.38" y2="70.27"/><line class="cls-4" x1="423.16" y1="63.79" x2="277.38" y2="63.79"/><line class="cls-4" x1="423.16" y1="70.27" x2="277.38" y2="70.27"/><polyline class="cls-5" points="423.15 66.51 417.76 66.51 417.76 63.79 423.15 63.79 423.15 66.51"/><polyline class="cls-5" points="374.55 63.79 378.35 63.79 378.35 66.51 374.55 66.51 374.55 63.79"/><polyline class="cls-5" points="374.55 66.51 372.95 66.51 372.95 63.79 374.55 63.79 374.55 66.51"/><polyline class="cls-5" points="325.98 63.79 327.58 63.79 327.58 66.51 325.98 66.51 325.98 63.79"/><polyline class="cls-5" points="325.98 66.51 322.19 66.51 322.19 63.79 325.98 63.79 325.98 66.51"/><polyline class="cls-5" points="277.38 63.79 282.77 63.79 282.77 66.51 277.38 66.51 277.38 63.79"/><line class="cls-4" x1="423.16" y1="66.51" x2="417.76" y2="66.51"/><line class="cls-4" x1="417.76" y1="66.51" x2="417.76" y2="63.79"/><line class="cls-4" x1="417.76" y1="63.79" x2="423.16" y2="63.79"/><line class="cls-4" x1="374.55" y1="63.79" x2="378.34" y2="63.79"/><line class="cls-4" x1="378.34" y1="63.79" x2="378.34" y2="66.51"/><line class="cls-4" x1="378.34" y1="66.51" x2="374.55" y2="66.51"/><line class="cls-4" x1="417.76" y1="66.51" x2="378.34" y2="66.51"/><line class="cls-4" x1="378.34" y1="63.79" x2="417.76" y2="63.79"/><line class="cls-4" x1="374.55" y1="66.51" x2="372.95" y2="66.51"/><line class="cls-4" x1="372.95" y1="66.51" x2="372.95" y2="63.79"/><line class="cls-4" x1="372.95" y1="63.79" x2="374.55" y2="63.79"/><line class="cls-4" x1="325.98" y1="63.79" x2="327.58" y2="63.79"/><line class="cls-4" x1="327.58" y1="63.79" x2="327.58" y2="66.51"/><line class="cls-4" x1="327.58" y1="66.51" x2="325.98" y2="66.51"/><line class="cls-4" x1="372.95" y1="66.51" x2="327.58" y2="66.51"/><line class="cls-4" x1="327.58" y1="63.79" x2="372.95" y2="63.79"/><line class="cls-4" x1="325.98" y1="66.51" x2="322.19" y2="66.51"/><line class="cls-4" x1="322.19" y1="66.51" x2="322.19" y2="63.79"/><line class="cls-4" x1="322.19" y1="63.79" x2="325.98" y2="63.79"/><line class="cls-4" x1="277.38" y1="63.79" x2="282.77" y2="63.79"/><line class="cls-4" x1="282.77" y1="63.79" x2="282.77" y2="66.51"/><line class="cls-4" x1="282.77" y1="66.51" x2="277.38" y2="66.51"/><line class="cls-4" x1="322.19" y1="66.51" x2="282.77" y2="66.51"/><line class="cls-4" x1="282.77" y1="63.79" x2="322.19" y2="63.79"/><line class="cls-4" x1="423.16" y1="63.79" x2="423.16" y2="66.51"/><line class="cls-4" x1="423.16" y1="63.79" x2="423.16" y2="66.51"/><line class="cls-4" x1="423.16" y1="66.51" x2="423.16" y2="70.27"/><line class="cls-4" x1="277.38" y1="63.79" x2="277.38" y2="66.51"/><line class="cls-4" x1="277.38" y1="63.79" x2="277.38" y2="66.51"/><line class="cls-4" x1="277.38" y1="66.51" x2="277.38" y2="70.27"/><polyline class="cls-5" points="437.19 115.08 430.71 115.08 430.71 70.27 437.19 63.79 437.19 115.08"/><line class="cls-4" x1="437.19" y1="115.08" x2="437.19" y2="63.79"/><line class="cls-4" x1="430.71" y1="70.27" x2="430.71" y2="115.08"/><line class="cls-4" x1="430.71" y1="115.08" x2="437.19" y2="115.08"/><polyline class="cls-5" points="10.12 66.51 83.01 66.51 83.01 74.6 10.12 74.6 10.12 66.51"/><polyline class="cls-5" points="193.68 66.51 193.68 74.6 185.6 74.6 185.6 66.51 193.68 66.51"/><polyline class="cls-5" points="2 69.65 2 66.51 10.12 66.51 10.12 74.6 4.56 74.6 2 69.65"/><polyline class="cls-5" points="2 66.51 2 69.65 0.4 66.51 2 66.51"/><polyline class="cls-5" points="91.09 74.6 91.09 85.41 10.12 85.41 10.12 74.6 91.09 74.6"/><polyline class="cls-5" points="177.48 74.6 193.68 74.6 193.68 85.41 177.48 85.41 177.48 74.6"/><polyline class="cls-5" points="4.56 74.6 10.12 74.6 10.12 85.41 4.56 74.6"/><polyline class="cls-5" points="185.6 66.51 185.6 74.6 177.48 74.6 177.48 66.51 185.6 66.51"/><polyline class="cls-5" points="83.01 66.51 91.09 66.51 91.09 74.6 83.01 74.6 83.01 66.51"/><line class="cls-4" x1="91.09" y1="74.6" x2="91.09" y2="66.51"/><line class="cls-4" x1="177.48" y1="74.6" x2="177.48" y2="66.51"/><line class="cls-4" x1="83.01" y1="66.51" x2="91.09" y2="66.51"/><line class="cls-4" x1="185.6" y1="66.51" x2="177.48" y2="66.51"/><line class="cls-4" x1="91.09" y1="77.29" x2="91.09" y2="85.41"/><line class="cls-4" x1="91.09" y1="74.6" x2="91.09" y2="77.29"/><line class="cls-4" x1="177.48" y1="77.29" x2="177.48" y2="85.41"/><line class="cls-4" x1="177.48" y1="74.6" x2="177.48" y2="77.29"/><line class="cls-4" x1="20.9" y1="85.41" x2="91.09" y2="85.41"/><line class="cls-4" x1="177.48" y1="85.41" x2="193.68" y2="85.41"/><line class="cls-4" x1="193.68" y1="74.6" x2="193.68" y2="85.41"/><line class="cls-4" x1="193.68" y1="66.51" x2="185.6" y2="66.51"/><line class="cls-4" x1="0.38" y1="66.51" x2="2" y2="66.51"/><line class="cls-4" x1="2" y1="66.51" x2="10.12" y2="66.51"/><line class="cls-4" x1="83.01" y1="66.51" x2="10.12" y2="66.51"/><line class="cls-4" x1="177.48" y1="66.51" x2="91.09" y2="66.51"/><line class="cls-4" x1="177.48" y1="85.41" x2="91.09" y2="85.41"/><polyline class="cls-5" points="177.48 77.29 172.09 77.29 172.09 74.6 177.48 74.6 177.48 77.29"/><polyline class="cls-5" points="141.85 74.6 145.64 74.6 145.64 77.29 141.85 77.29 141.85 74.6"/><polyline class="cls-5" points="141.85 77.29 138.06 77.29 138.06 74.6 141.85 74.6 141.85 77.29"/><polyline class="cls-5" points="91.09 74.6 96.51 74.6 96.51 77.29 91.09 77.29 91.09 74.6"/><line class="cls-4" x1="177.48" y1="77.29" x2="172.09" y2="77.29"/><line class="cls-4" x1="172.09" y1="77.29" x2="172.09" y2="74.6"/><line class="cls-4" x1="172.09" y1="74.6" x2="177.48" y2="74.6"/><line class="cls-4" x1="141.85" y1="74.6" x2="145.64" y2="74.6"/><line class="cls-4" x1="145.64" y1="74.6" x2="145.64" y2="77.29"/><line class="cls-4" x1="145.64" y1="77.29" x2="141.85" y2="77.29"/><line class="cls-4" x1="172.09" y1="77.29" x2="145.64" y2="77.29"/><line class="cls-4" x1="145.64" y1="74.6" x2="172.09" y2="74.6"/><line class="cls-4" x1="141.85" y1="77.29" x2="138.06" y2="77.29"/><line class="cls-4" x1="138.06" y1="77.29" x2="138.06" y2="74.6"/><line class="cls-4" x1="138.06" y1="74.6" x2="141.85" y2="74.6"/><line class="cls-4" x1="91.09" y1="74.6" x2="96.51" y2="74.6"/><line class="cls-4" x1="96.51" y1="74.6" x2="96.51" y2="77.29"/><line class="cls-4" x1="96.51" y1="77.29" x2="91.09" y2="77.29"/><line class="cls-4" x1="138.06" y1="77.29" x2="96.51" y2="77.29"/><line class="cls-4" x1="96.51" y1="74.6" x2="138.06" y2="74.6"/><line class="cls-4" x1="177.48" y1="74.6" x2="177.48" y2="77.29"/><line class="cls-4" x1="177.48" y1="74.6" x2="177.48" y2="77.29"/><line class="cls-4" x1="177.48" y1="77.29" x2="177.48" y2="85.41"/><line class="cls-4" x1="91.09" y1="74.6" x2="91.09" y2="77.29"/><line class="cls-4" x1="91.09" y1="74.6" x2="91.09" y2="77.29"/><line class="cls-4" x1="91.09" y1="77.29" x2="91.09" y2="85.41"/><line class="cls-4" x1="177.48" y1="74.6" x2="177.48" y2="66.51"/><line class="cls-4" x1="177.48" y1="74.6" x2="177.48" y2="66.51"/><line class="cls-4" x1="91.09" y1="74.6" x2="91.09" y2="66.51"/><line class="cls-4" x1="91.09" y1="74.6" x2="91.09" y2="66.51"/><line class="cls-4" x1="150.5" y1="225.79" x2="150.5" y2="193.39"/><line class="cls-4" x1="101.9" y1="225.79" x2="150.5" y2="225.79"/><line class="cls-4" x1="101.9" y1="193.39" x2="101.9" y2="225.79"/><line class="cls-4" x1="150.5" y1="193.39" x2="101.9" y2="193.39"/><line class="cls-4" x1="150.5" y1="197.71" x2="101.9" y2="197.71"/><line class="cls-4" x1="128.88" y1="193.39" x2="128.88" y2="197.71"/><line class="cls-4" x1="147.81" y1="194.26" x2="131.61" y2="194.26"/><line class="cls-4" x1="131.61" y1="194.26" x2="131.61" y2="196.84"/><line class="cls-4" x1="131.61" y1="196.84" x2="147.81" y2="196.84"/><line class="cls-4" x1="147.81" y1="196.84" x2="147.81" y2="194.26"/><line class="cls-4" x1="54.34" y1="274.02" x2="53.69" y2="276.69"/><line class="cls-4" x1="53.69" y1="276.69" x2="52.65" y2="279.25"/><line class="cls-4" x1="52.65" y1="279.25" x2="51.28" y2="281.24"/><line class="cls-4" x1="51.28" y1="281.24" x2="49.48" y2="282.78"/><line class="cls-4" x1="49.48" y1="282.78" x2="47.43" y2="283.77"/><line class="cls-4" x1="47.43" y1="283.77" x2="45.21" y2="284.1"/><line class="cls-4" x1="45.21" y1="284.1" x2="43" y2="283.77"/><line class="cls-4" x1="43" y1="283.77" x2="40.92" y2="282.78"/><line class="cls-4" x1="40.92" y1="282.78" x2="39.12" y2="281.24"/><line class="cls-4" x1="39.12" y1="281.24" x2="37.75" y2="279.25"/><line class="cls-4" x1="37.75" y1="279.25" x2="36.74" y2="276.69"/><line class="cls-4" x1="36.74" y1="276.69" x2="36.06" y2="274.02"/><line class="cls-4" x1="36.06" y1="274.02" x2="35.75" y2="271.25"/><line class="cls-4" x1="35.75" y1="271.25" x2="35.84" y2="268.47"/><line class="cls-4" x1="35.84" y1="268.47" x2="37.61" y2="249.54"/><line class="cls-4" x1="37.61" y1="249.54" x2="52.82" y2="249.54"/><line class="cls-4" x1="52.82" y1="249.54" x2="54.56" y2="268.47"/><line class="cls-4" x1="54.56" y1="268.47" x2="54.65" y2="271.25"/><line class="cls-4" x1="54.65" y1="271.25" x2="54.34" y2="274.02"/><line class="cls-4" x1="36.03" y1="254.12" x2="35.42" y2="254.06"/><line class="cls-4" x1="35.42" y1="254.06" x2="34.88" y2="253.89"/><line class="cls-4" x1="34.88" y1="253.89" x2="34.52" y2="253.61"/><line class="cls-4" x1="34.52" y1="253.61" x2="34.4" y2="253.3"/><line class="cls-4" x1="34.4" y1="253.3" x2="34.4" y2="250.36"/><line class="cls-4" x1="34.4" y1="250.36" x2="34.52" y2="250.05"/><line class="cls-4" x1="34.52" y1="250.05" x2="34.88" y2="249.77"/><line class="cls-4" x1="34.88" y1="249.77" x2="35.42" y2="249.6"/><line class="cls-4" x1="35.42" y1="249.6" x2="36.03" y2="249.54"/><line class="cls-4" x1="36.03" y1="249.54" x2="54.4" y2="249.54"/><line class="cls-4" x1="54.4" y1="249.54" x2="55.01" y2="249.6"/><line class="cls-4" x1="55.01" y1="249.6" x2="55.52" y2="249.77"/><line class="cls-4" x1="55.52" y1="249.77" x2="55.88" y2="250.05"/><line class="cls-4" x1="55.88" y1="250.05" x2="56" y2="250.36"/><line class="cls-4" x1="56" y1="250.36" x2="56" y2="253.3"/><line class="cls-4" x1="56" y1="253.3" x2="55.88" y2="253.61"/><line class="cls-4" x1="55.88" y1="253.61" x2="55.52" y2="253.89"/><line class="cls-4" x1="55.52" y1="253.89" x2="55.01" y2="254.06"/><line class="cls-4" x1="55.01" y1="254.06" x2="54.4" y2="254.12"/><line class="cls-4" x1="54.4" y1="254.12" x2="36.03" y2="254.12"/><line class="cls-4" x1="66.27" y1="243.06" x2="66.27" y2="230.65"/><path class="cls-4" d="M94.49,262.54A.52.52,0,0,1,95,262" transform="translate(-28.22 -31.9)"/><line class="cls-4" x1="66.8" y1="230.11" x2="66.8" y2="230.11"/><line class="cls-4" x1="66.8" y1="230.11" x2="84.07" y2="230.11"/><line class="cls-4" x1="84.07" y1="230.11" x2="101.37" y2="230.11"/><path class="cls-4" d="M129.59,262a.53.53,0,0,1,.53.53" transform="translate(-28.22 -31.9)"/><line class="cls-4" x1="101.9" y1="230.65" x2="101.9" y2="230.65"/><line class="cls-4" x1="101.9" y1="230.65" x2="101.9" y2="243.06"/><path class="cls-4" d="M130.12,275a10.64,10.64,0,0,1-5.22,9.16" transform="translate(-28.22 -31.9)"/><line class="cls-4" x1="96.68" y1="252.21" x2="96.68" y2="252.21"/><path class="cls-4" d="M124.9,284.11a22.71,22.71,0,0,1-12.61,3.81" transform="translate(-28.22 -31.9)"/><line class="cls-4" x1="84.07" y1="256.03" x2="84.07" y2="256.03"/><path class="cls-4" d="M112.29,287.92a22.71,22.71,0,0,1-12.58-3.81" transform="translate(-28.22 -31.9)"/><line class="cls-4" x1="71.49" y1="252.21" x2="71.49" y2="252.21"/><path class="cls-4" d="M99.71,284.11A10.6,10.6,0,0,1,94.49,275" transform="translate(-28.22 -31.9)"/><line class="cls-4" x1="66.27" y1="243.06" x2="66.27" y2="243.06"/><line class="cls-4" x1="146.18" y1="230.11" x2="146.18" y2="321.9"/><line class="cls-4" x1="146.18" y1="321.9" x2="105.69" y2="321.9"/><line class="cls-4" x1="105.69" y1="321.9" x2="105.69" y2="230.11"/><line class="cls-4" x1="105.69" y1="230.11" x2="146.18" y2="230.11"/><line class="cls-4" x1="21.01" y1="352.13" x2="21.01" y2="319.73"/><line class="cls-4" x1="21.01" y1="319.73" x2="53.38" y2="319.73"/><line class="cls-4" x1="53.38" y1="319.73" x2="53.38" y2="352.13"/><line class="cls-4" x1="53.38" y1="352.13" x2="21.01" y2="352.13"/><line class="cls-4" x1="32.41" y1="243.62" x2="32.41" y2="232.81"/><line class="cls-4" x1="32.41" y1="232.81" x2="54.03" y2="232.81"/><line class="cls-4" x1="54.03" y1="232.81" x2="54.03" y2="243.62"/><line class="cls-4" x1="54.03" y1="243.62" x2="32.41" y2="243.62"/><line class="cls-4" x1="418.58" y1="61.65" x2="418.58" y2="35.18"/><line class="cls-4" x1="419.11" y1="61.65" x2="419.11" y2="35.18"/><line class="cls-4" x1="418.58" y1="35.18" x2="419.11" y2="35.18"/><line class="cls-4" x1="419.11" y1="61.65" x2="419.11" y2="63.79"/><line class="cls-4" x1="418.58" y1="63.79" x2="419.11" y2="63.79"/><line class="cls-4" x1="418.58" y1="61.65" x2="418.58" y2="63.79"/><line class="cls-4" x1="380.79" y1="41.27" x2="411.56" y2="41.27"/><line class="cls-4" x1="369.98" y1="42.05" x2="370.09" y2="41.66"/><line class="cls-4" x1="369.98" y1="56.91" x2="369.98" y2="42.05"/><line class="cls-4" x1="370.09" y1="57.33" x2="369.98" y2="56.91"/><line class="cls-4" x1="370.37" y1="57.61" x2="370.09" y2="57.33"/><line class="cls-4" x1="370.79" y1="57.72" x2="370.37" y2="57.61"/><line class="cls-4" x1="412.37" y1="57.72" x2="370.79" y2="57.72"/><line class="cls-4" x1="412.77" y1="57.61" x2="412.37" y2="57.72"/><line class="cls-4" x1="413.08" y1="57.33" x2="412.77" y2="57.61"/><line class="cls-4" x1="413.16" y1="56.91" x2="413.08" y2="57.33"/><line class="cls-4" x1="413.16" y1="42.05" x2="413.16" y2="56.91"/><line class="cls-4" x1="413.08" y1="41.66" x2="413.16" y2="42.05"/><line class="cls-4" x1="412.77" y1="41.35" x2="413.08" y2="41.66"/><line class="cls-4" x1="412.37" y1="41.27" x2="412.77" y2="41.35"/><line class="cls-4" x1="370.79" y1="41.27" x2="412.37" y2="41.27"/><line class="cls-4" x1="370.37" y1="41.35" x2="370.79" y2="41.27"/><line class="cls-4" x1="370.09" y1="41.66" x2="370.37" y2="41.35"/><line class="cls-4" x1="419.11" y1="34.64" x2="419.11" y2="35.18"/><line class="cls-4" x1="419.11" y1="34.64" x2="365.09" y2="34.64"/><line class="cls-4" x1="365.09" y1="35.18" x2="365.09" y2="34.64"/><line class="cls-4" x1="419.11" y1="35.18" x2="365.09" y2="35.18"/><line class="cls-4" x1="418.58" y1="61.65" x2="365.09" y2="61.65"/><line class="cls-4" x1="418.58" y1="35.18" x2="418.58" y2="61.65"/><line class="cls-4" x1="365.09" y1="61.65" x2="365.09" y2="35.18"/><line class="cls-4" x1="365.09" y1="35.18" x2="418.58" y2="35.18"/><line class="cls-4" x1="364.53" y1="34.64" x2="365.09" y2="34.64"/><line class="cls-4" x1="364.53" y1="34.64" x2="364.53" y2="61.65"/><line class="cls-4" x1="365.09" y1="35.18" x2="365.09" y2="61.65"/><line class="cls-4" x1="365.09" y1="61.65" x2="365.09" y2="63.79"/><line class="cls-4" x1="364.53" y1="61.65" x2="364.53" y2="63.79"/><line class="cls-4" x1="364.53" y1="63.79" x2="365.09" y2="63.79"/><text class="cls-6" transform="translate(328.61 97.9)">1.24</text><text class="cls-6" transform="translate(56.95 286.24)">4.23</text><text class="cls-6" transform="translate(349.27 259.64)">31.40</text><text class="cls-6" transform="translate(46.97 436.88)">5.98</text><text class="cls-7" transform="translate(265.04 259.64)">1C</text><text class="cls-7" transform="translate(249.71 292.66)">42.85</text><text class="cls-7" transform="translate(259.62 227.13)">№1</text><polyline class="cls-8" points="237.94 301.01 237.94 203.88 318.93 203.88 318.93 301.01"/><line class="cls-8" x1="237.94" y1="236.32" x2="318.93" y2="236.32"/><line class="cls-8" x1="237.94" y1="301.01" x2="318.93" y2="301.01"/><line class="cls-8" x1="237.94" y1="268.76" x2="318.93" y2="268.76"/></svg>