<svg id="_199" data-name="199" xmlns="http://www.w3.org/2000/svg" viewBox="0 0 324.64 716.72"><defs><style>.cls-1{isolation:isolate;font-size:12px;fill:#969696;}.cls-1,.cls-6,.cls-8{font-family:PTSans-Regular, PT Sans;}.cls-2,.cls-3,.cls-4,.cls-5,.cls-7{fill:none;stroke-linecap:round;stroke-linejoin:round;}.cls-2{stroke:#969696;stroke-width:0.75px;}.cls-3{stroke:#7d7d7d;stroke-dasharray:4 4;}.cls-3,.cls-7{stroke-width:0.5px;}.cls-4{stroke:#356e5f;}.cls-5,.cls-7{stroke:#000;}.cls-6{font-size:28px;}.cls-8{font-size:24px;}</style></defs><title>5floor_199flat</title><text class="cls-1" transform="translate(156.75 10.2)">двор</text><line class="cls-2" x1="145.99" y1="1.57" x2="145.99" y2="10.37"/><polyline class="cls-2" points="149.49 5.07 145.99 1.57 142.49 5.07"/><polyline class="cls-3" points="151.26 357.58 151.26 459.83 307.14 459.83 307.14 357.58 151.26 357.58"/><line class="cls-4" x1="56.3" y1="101.49" x2="56.3" y2="101.49"/><line class="cls-5" x1="36.05" y1="107.15" x2="36.59" y2="106.31"/><line class="cls-5" x1="40.99" y1="107.15" x2="42.14" y2="105.16"/><line class="cls-5" x1="45.93" y1="107.15" x2="47.74" y2="104.02"/><line class="cls-5" x1="50.81" y1="107.15" x2="53.34" y2="102.87"/><line class="cls-5" x1="55.76" y1="107.15" x2="58.89" y2="101.73"/><line class="cls-5" x1="60.7" y1="107.15" x2="64.49" y2="100.58"/><line class="cls-5" x1="65.58" y1="107.15" x2="70.04" y2="99.44"/><line class="cls-5" x1="70.52" y1="107.15" x2="74.68" y2="99.92"/><line class="cls-5" x1="75.52" y1="106.97" x2="75.94" y2="106.25"/><line class="cls-5" x1="34.24" y1="107.15" x2="34.06" y2="106.85"/><line class="cls-5" x1="39.18" y1="107.15" x2="38.46" y2="105.95"/><line class="cls-5" x1="44.07" y1="107.15" x2="42.86" y2="105.04"/><line class="cls-5" x1="49.01" y1="107.15" x2="47.26" y2="104.14"/><line class="cls-5" x1="53.95" y1="107.15" x2="51.66" y2="103.24"/><line class="cls-5" x1="58.83" y1="107.15" x2="56.06" y2="102.33"/><line class="cls-5" x1="63.77" y1="107.15" x2="60.46" y2="101.43"/><line class="cls-5" x1="68.71" y1="107.15" x2="64.85" y2="100.52"/><line class="cls-5" x1="73.59" y1="107.15" x2="69.25" y2="99.62"/><line class="cls-5" x1="74.86" y1="100.83" x2="73.59" y2="98.66"/><line class="cls-5" x1="52.92" y1="115.71" x2="55.21" y2="113.42"/><line class="cls-5" x1="77.03" y1="115.71" x2="79.32" y2="113.42"/><line class="cls-5" x1="82.33" y1="110.41" x2="82.81" y2="109.92"/><line class="cls-5" x1="40.87" y1="115.71" x2="42.86" y2="113.72"/><line class="cls-5" x1="64.97" y1="115.71" x2="67.26" y2="113.42"/><line class="cls-5" x1="70.28" y1="110.41" x2="73.17" y2="107.45"/><line class="cls-4" x1="83.47" y1="97.63" x2="83.47" y2="97.63"/><line class="cls-5" x1="74.68" y1="99.92" x2="75.64" y2="98.29"/><line class="cls-5" x1="75.94" y1="106.25" x2="81.24" y2="97.15"/><line class="cls-5" x1="81.12" y1="105.83" x2="83.65" y2="101.43"/><line class="cls-5" x1="78.11" y1="106.43" x2="74.86" y2="100.83"/><line class="cls-5" x1="82.51" y1="105.53" x2="77.99" y2="97.75"/><line class="cls-5" x1="82.93" y1="97.75" x2="82.39" y2="96.85"/><polyline class="cls-5" points="32.38 107.15 36.53 106.31 74.37 98.53"/><polyline class="cls-5" points="33.22 115.71 74.61 107.15 76.12 106.85"/><line class="cls-5" x1="83.53" y1="96.67" x2="85.28" y2="104.98"/><line class="cls-5" x1="81.91" y1="105.65" x2="84.44" y2="105.16"/><line class="cls-5" x1="84.44" y1="105.16" x2="85.28" y2="104.98"/><line class="cls-5" x1="83.41" y1="95.82" x2="83.53" y2="96.67"/><line class="cls-5" x1="81.91" y1="105.65" x2="81.91" y2="105.65"/><line class="cls-5" x1="76.12" y1="106.85" x2="81.91" y2="105.65"/><line class="cls-5" x1="76.12" y1="106.85" x2="76.12" y2="106.85"/><polyline class="cls-5" points="74.37 98.53 82.75 96.79 84.44 105.16 82.75 96.79"/><line class="cls-5" x1="82.57" y1="96" x2="83.41" y2="95.82"/><polyline class="cls-5" points="81.91 105.65 82.99 110.65 86.25 126.56 35.39 136.98"/><line class="cls-5" x1="82.57" y1="96" x2="32.26" y2="106.31"/><line class="cls-5" x1="158.07" y1="80.46" x2="83.41" y2="95.82"/><line class="cls-5" x1="158.07" y1="111.73" x2="86.24" y2="126.55"/><polyline class="cls-5" points="158.07 95.22 153.49 96.19 152.77 92.81 150.72 93.23 150.36 91.61 157.05 90.22 158.07 89.98"/><polyline class="cls-5" points="81.91 105.65 88.59 104.32 88.96 105.95 86.85 106.37 87.57 109.74 82.99 110.65"/><line class="cls-5" x1="88.59" y1="104.32" x2="150.36" y2="91.61"/><polyline class="cls-5" points="153.79 97.81 148.79 98.9 92.93 110.35"/><polyline class="cls-5" points="148.79 98.9 147.77 93.84 152.77 92.81 153.79 97.81"/><polyline class="cls-5" points="86.85 106.37 91.85 105.34 92.93 110.35 87.87 111.43 86.85 106.37"/><line class="cls-5" x1="91.85" y1="105.34" x2="147.77" y2="93.84"/><line class="cls-5" x1="148.79" y1="98.9" x2="92.93" y2="110.35"/><line class="cls-5" x1="148.31" y1="96.37" x2="92.39" y2="107.88"/><line class="cls-5" x1="157.05" y1="90.22" x2="158.07" y2="95.22"/><polyline class="cls-5" points="86.25 126.56 82.99 110.65 81.91 105.65 82.99 110.65"/><line class="cls-5" x1="83.41" y1="95.82" x2="83.53" y2="96.67"/><polyline class="cls-5" points="85.28 104.98 84.44 105.16 85.28 104.98"/><polyline class="cls-5" points="84.44 105.16 81.91 105.65 84.44 105.16"/><line class="cls-5" x1="83.53" y1="96.67" x2="85.28" y2="104.98"/><line class="cls-5" x1="276.35" y1="133.18" x2="281.6" y2="127.88"/><line class="cls-5" x1="279.49" y1="118" x2="281.96" y2="115.53"/><line class="cls-4" x1="279.25" y1="106.01" x2="279.25" y2="106.01"/><line class="cls-5" x1="277.68" y1="114.62" x2="282.14" y2="106.85"/><line class="cls-5" x1="282.08" y1="115.53" x2="286.54" y2="107.75"/><line class="cls-5" x1="279.79" y1="115.05" x2="278.1" y2="112.09"/><line class="cls-5" x1="285.39" y1="116.19" x2="279.67" y2="106.31"/><line class="cls-5" x1="287.08" y1="110.65" x2="285.27" y2="107.45"/><line class="cls-5" x1="278.46" y1="106.07" x2="276.72" y2="114.44"/><line class="cls-5" x1="280.03" y1="115.11" x2="277.56" y2="114.62"/><line class="cls-5" x1="277.56" y1="114.62" x2="276.72" y2="114.44"/><line class="cls-5" x1="278.58" y1="105.22" x2="278.46" y2="106.07"/><line class="cls-5" x1="280.03" y1="115.11" x2="280.03" y2="115.11"/><line class="cls-5" x1="285.87" y1="116.31" x2="280.03" y2="115.11"/><line class="cls-5" x1="285.87" y1="116.31" x2="285.87" y2="116.31"/><polyline class="cls-5" points="287.62 108 279.25 106.25 277.56 114.62 279.25 106.25"/><line class="cls-5" x1="279.43" y1="105.4" x2="278.58" y2="105.22"/><polyline class="cls-5" points="280.03 115.11 279 120.11 275.75 135.96 280.69 136.98"/><line class="cls-5" x1="283.83" y1="106.31" x2="279.43" y2="105.4"/><line class="cls-5" x1="158.07" y1="80.46" x2="278.58" y2="105.22"/><line class="cls-5" x1="158.07" y1="111.73" x2="275.75" y2="135.95"/><polyline class="cls-5" points="158.07 95.22 162.65 96.19 163.31 92.81 165.42 93.23 165.78 91.61 159.09 90.22 158.07 89.98"/><polyline class="cls-5" points="230.02 104.8 226.64 104.14 226.34 105.77 228.39 106.25 227.73 109.56 228.99 109.8"/><line class="cls-5" x1="226.64" y1="104.14" x2="165.78" y2="91.61"/><polyline class="cls-5" points="162.29 97.81 167.29 98.9 222.36 110.22"/><polyline class="cls-5" points="167.29 98.9 168.31 93.84 163.31 92.81 162.29 97.81"/><polyline class="cls-5" points="228.39 106.25 223.39 105.16 222.36 110.22 227.37 111.25 228.39 106.25"/><line class="cls-5" x1="223.39" y1="105.16" x2="168.31" y2="93.84"/><line class="cls-5" x1="167.29" y1="98.9" x2="222.36" y2="110.23"/><line class="cls-5" x1="167.83" y1="96.37" x2="222.91" y2="107.69"/><line class="cls-5" x1="159.09" y1="90.22" x2="158.07" y2="95.22"/><polyline class="cls-5" points="228.99 109.8 230.2 110.11 230.92 106.73 232.97 107.15 233.33 105.53 230.02 104.8"/><polyline class="cls-5" points="280.03 115.11 273.4 113.72 273.04 115.41 275.15 115.83 274.43 119.2 279 120.11"/><line class="cls-5" x1="273.4" y1="113.72" x2="233.33" y2="105.53"/><polyline class="cls-5" points="229.9 111.73 234.9 112.76 269.06 119.81"/><polyline class="cls-5" points="234.9 112.76 235.92 107.75 230.92 106.73 229.9 111.73"/><polyline class="cls-5" points="275.15 115.83 270.15 114.81 269.06 119.81 274.12 120.83 275.15 115.83"/><line class="cls-5" x1="270.15" y1="114.8" x2="235.92" y2="107.75"/><line class="cls-5" x1="234.9" y1="112.76" x2="269.06" y2="119.81"/><line class="cls-5" x1="235.38" y1="110.29" x2="269.61" y2="117.34"/><polyline class="cls-5" points="275.75 135.96 279 120.11 280.03 115.11 279 120.11"/><line class="cls-5" x1="278.58" y1="105.22" x2="278.46" y2="106.07"/><polyline class="cls-5" points="276.71 114.44 277.56 114.62 276.71 114.44"/><polyline class="cls-5" points="277.56 114.62 280.03 115.11 277.56 114.62"/><line class="cls-5" x1="278.46" y1="106.07" x2="276.72" y2="114.44"/><line class="cls-4" x1="15.44" y1="106.85" x2="15.44" y2="106.85"/><line class="cls-5" x1="1.65" y1="115.71" x2="6.59" y2="107.15"/><line class="cls-5" x1="6.59" y1="115.71" x2="11.47" y2="107.15"/><line class="cls-5" x1="11.47" y1="115.71" x2="16.41" y2="107.15"/><line class="cls-5" x1="16.41" y1="115.71" x2="21.35" y2="107.15"/><line class="cls-5" x1="21.35" y1="115.71" x2="26.23" y2="107.15"/><line class="cls-5" x1="26.23" y1="115.71" x2="31.17" y2="107.15"/><line class="cls-5" x1="31.17" y1="115.71" x2="32.92" y2="112.64"/><line class="cls-5" x1="4.78" y1="115.71" x2="0.5" y2="108.3"/><line class="cls-5" x1="9.66" y1="115.71" x2="4.78" y2="107.15"/><line class="cls-5" x1="14.6" y1="115.71" x2="9.66" y2="107.15"/><line class="cls-5" x1="19.48" y1="115.71" x2="14.6" y2="107.15"/><line class="cls-5" x1="24.42" y1="115.71" x2="19.48" y2="107.15"/><line class="cls-5" x1="29.36" y1="115.71" x2="24.42" y2="107.15"/><line class="cls-5" x1="33.04" y1="113.54" x2="29.36" y2="107.15"/><line class="cls-5" x1="17.49" y1="127.04" x2="19.06" y2="125.41"/><line class="cls-5" x1="22.07" y1="122.4" x2="28.82" y2="115.71"/><line class="cls-5" x1="34.12" y1="134.45" x2="35.09" y2="133.54"/><line class="cls-5" x1="22.07" y1="134.45" x2="31.11" y2="125.41"/><line class="cls-5" x1="32.38" y1="107.15" x2="0.5" y2="107.15"/><line class="cls-5" x1="33.22" y1="115.71" x2="17.49" y2="115.71"/><line class="cls-5" x1="17.49" y1="136.98" x2="35.39" y2="136.98"/><line class="cls-5" x1="32.26" y1="106.31" x2="0.5" y2="106.31"/><line class="cls-5" x1="32.92" y1="112.64" x2="36.05" y2="107.15"/><line class="cls-5" x1="36.47" y1="115.05" x2="40.99" y2="107.15"/><line class="cls-5" x1="42.02" y1="113.9" x2="45.93" y2="107.15"/><line class="cls-5" x1="47.62" y1="112.76" x2="50.81" y2="107.15"/><line class="cls-5" x1="53.22" y1="111.61" x2="55.76" y2="107.15"/><line class="cls-5" x1="58.77" y1="110.41" x2="60.7" y2="107.15"/><line class="cls-5" x1="64.37" y1="109.26" x2="65.58" y2="107.15"/><line class="cls-5" x1="69.92" y1="108.12" x2="70.52" y2="107.15"/><line class="cls-5" x1="34.12" y1="115.53" x2="33.04" y2="113.54"/><line class="cls-5" x1="38.52" y1="114.62" x2="34.24" y2="107.15"/><line class="cls-5" x1="42.92" y1="113.72" x2="39.18" y2="107.15"/><line class="cls-5" x1="47.32" y1="112.82" x2="44.07" y2="107.15"/><line class="cls-5" x1="51.72" y1="111.91" x2="49.01" y2="107.15"/><line class="cls-5" x1="56.12" y1="111.01" x2="53.95" y2="107.15"/><line class="cls-5" x1="60.52" y1="110.1" x2="58.83" y2="107.15"/><line class="cls-5" x1="64.91" y1="109.2" x2="63.77" y2="107.15"/><line class="cls-5" x1="69.31" y1="108.3" x2="68.71" y2="107.15"/><line class="cls-5" x1="73.71" y1="107.39" x2="73.59" y2="107.15"/><line class="cls-5" x1="35.09" y1="133.54" x2="43.16" y2="125.41"/><line class="cls-5" x1="46.17" y1="122.4" x2="52.92" y2="115.71"/><line class="cls-5" x1="61" y1="131.74" x2="67.26" y2="125.41"/><line class="cls-5" x1="70.28" y1="122.4" x2="77.03" y2="115.71"/><line class="cls-5" x1="34.12" y1="122.4" x2="40.87" y2="115.71"/><line class="cls-5" x1="46.17" y1="134.45" x2="55.21" y2="125.41"/><line class="cls-5" x1="58.23" y1="122.4" x2="64.97" y2="115.71"/><line class="cls-5" x1="76.12" y1="128.6" x2="79.32" y2="125.41"/><line class="cls-5" x1="82.33" y1="122.4" x2="84.86" y2="119.87"/><line class="cls-5" x1="32.38" y1="107.15" x2="36.53" y2="106.31"/><line class="cls-5" x1="33.22" y1="115.71" x2="74.62" y2="107.15"/><line class="cls-4" x1="293.77" y1="106.73" x2="293.77" y2="106.73"/><line class="cls-4" x1="324.14" y1="106.79" x2="324.14" y2="106.79"/><line class="cls-5" x1="283.04" y1="113.78" x2="286.9" y2="107.15"/><line class="cls-5" x1="286.9" y1="115.71" x2="291.78" y2="107.15"/><line class="cls-5" x1="291.78" y1="115.71" x2="296.72" y2="107.15"/><line class="cls-5" x1="296.72" y1="115.71" x2="301.66" y2="107.15"/><line class="cls-5" x1="301.66" y1="115.71" x2="306.54" y2="107.15"/><line class="cls-5" x1="306.54" y1="115.71" x2="311.48" y2="107.15"/><line class="cls-5" x1="311.48" y1="115.71" x2="316.36" y2="107.15"/><line class="cls-5" x1="316.36" y1="115.71" x2="321.31" y2="107.15"/><line class="cls-5" x1="285.09" y1="115.71" x2="283.22" y2="112.45"/><line class="cls-5" x1="289.97" y1="115.71" x2="285.09" y2="107.15"/><line class="cls-5" x1="294.91" y1="115.71" x2="289.97" y2="107.15"/><line class="cls-5" x1="299.79" y1="115.71" x2="294.91" y2="107.15"/><line class="cls-5" x1="304.73" y1="115.71" x2="299.79" y2="107.15"/><line class="cls-5" x1="309.68" y1="115.71" x2="304.73" y2="107.15"/><line class="cls-5" x1="314.56" y1="115.71" x2="309.68" y2="107.15"/><line class="cls-5" x1="319.5" y1="115.71" x2="314.56" y2="107.15"/><line class="cls-5" x1="324.14" y1="115.19" x2="319.5" y2="107.15"/><line class="cls-5" x1="281.6" y1="127.88" x2="284.07" y2="125.41"/><line class="cls-5" x1="287.08" y1="122.4" x2="293.83" y2="115.71"/><line class="cls-5" x1="299.13" y1="134.45" x2="307.14" y2="126.49"/><line class="cls-5" x1="287.08" y1="134.45" x2="296.12" y2="125.41"/><line class="cls-5" x1="299.13" y1="122.4" x2="305.88" y2="115.71"/><line class="cls-5" x1="324.14" y1="107.15" x2="283.77" y2="107.15"/><line class="cls-5" x1="307.14" y1="115.71" x2="282.86" y2="115.71"/><line class="cls-5" x1="280.69" y1="136.98" x2="307.14" y2="136.98"/><line class="cls-5" x1="324.14" y1="106.31" x2="283.83" y2="106.31"/><line class="cls-5" x1="309.74" y1="699.17" x2="307.14" y2="696.58"/><line class="cls-5" x1="323.23" y1="688.63" x2="316.48" y2="681.82"/><line class="cls-5" x1="314.19" y1="679.59" x2="307.45" y2="672.78"/><line class="cls-5" x1="324.14" y1="665.43" x2="319.5" y2="660.73"/><line class="cls-5" x1="317.21" y1="658.5" x2="310.46" y2="651.69"/><line class="cls-5" x1="308.17" y1="649.46" x2="307.14" y2="648.38"/><line class="cls-5" x1="324.14" y1="641.33" x2="322.51" y2="639.64"/><line class="cls-5" x1="320.22" y1="637.41" x2="313.47" y2="630.66"/><line class="cls-5" x1="311.18" y1="628.37" x2="307.14" y2="624.27"/><line class="cls-5" x1="323.23" y1="616.32" x2="316.48" y2="609.57"/><line class="cls-5" x1="314.19" y1="607.28" x2="307.45" y2="600.53"/><line class="cls-5" x1="324.14" y1="593.12" x2="319.5" y2="588.48"/><line class="cls-5" x1="317.21" y1="586.19" x2="310.46" y2="579.44"/><line class="cls-5" x1="308.17" y1="577.15" x2="307.14" y2="576.13"/><line class="cls-5" x1="324.14" y1="569.08" x2="322.51" y2="567.39"/><line class="cls-5" x1="320.22" y1="565.16" x2="313.47" y2="558.35"/><line class="cls-5" x1="311.18" y1="556.12" x2="307.14" y2="552.03"/><line class="cls-5" x1="323.23" y1="544.07" x2="316.48" y2="537.26"/><line class="cls-5" x1="314.19" y1="535.03" x2="307.45" y2="528.22"/><line class="cls-5" x1="324.14" y1="520.87" x2="319.5" y2="516.17"/><line class="cls-5" x1="317.21" y1="513.94" x2="310.46" y2="507.13"/><line class="cls-5" x1="308.17" y1="504.9" x2="307.14" y2="503.82"/><line class="cls-5" x1="324.14" y1="496.77" x2="322.51" y2="495.08"/><line class="cls-5" x1="320.22" y1="492.85" x2="313.59" y2="486.23"/><line class="cls-5" x1="307.14" y1="479.72" x2="307.14" y2="479.72"/><line class="cls-5" x1="307.14" y1="431.57" x2="307.14" y2="431.57"/><line class="cls-5" x1="307.14" y1="407.47" x2="307.14" y2="407.47"/><line class="cls-5" x1="307.75" y1="384.03" x2="307.45" y2="383.67"/><line class="cls-5" x1="324.14" y1="376.32" x2="319.5" y2="371.62"/><line class="cls-5" x1="317.21" y1="369.39" x2="310.46" y2="362.58"/><line class="cls-5" x1="308.17" y1="360.35" x2="307.14" y2="359.26"/><line class="cls-5" x1="324.14" y1="352.21" x2="322.51" y2="350.53"/><line class="cls-5" x1="320.22" y1="348.3" x2="313.47" y2="341.55"/><line class="cls-5" x1="311.18" y1="339.26" x2="307.14" y2="335.16"/><line class="cls-5" x1="323.23" y1="327.21" x2="316.48" y2="320.46"/><line class="cls-5" x1="314.19" y1="318.17" x2="307.45" y2="311.42"/><line class="cls-5" x1="324.14" y1="304.01" x2="319.5" y2="299.37"/><line class="cls-5" x1="317.21" y1="297.08" x2="310.46" y2="290.33"/><line class="cls-5" x1="308.17" y1="288.04" x2="307.14" y2="287.02"/><line class="cls-5" x1="324.14" y1="279.97" x2="322.51" y2="278.28"/><line class="cls-5" x1="320.22" y1="275.99" x2="313.47" y2="269.24"/><line class="cls-5" x1="311.18" y1="267.01" x2="307.14" y2="262.91"/><line class="cls-5" x1="323.23" y1="254.96" x2="316.48" y2="248.15"/><line class="cls-5" x1="314.19" y1="245.92" x2="307.45" y2="239.11"/><line class="cls-5" x1="324.14" y1="231.76" x2="319.5" y2="227.06"/><line class="cls-5" x1="317.21" y1="224.83" x2="310.46" y2="218.02"/><line class="cls-5" x1="308.17" y1="215.79" x2="307.14" y2="214.71"/><line class="cls-5" x1="324.14" y1="207.66" x2="322.51" y2="205.97"/><line class="cls-5" x1="321.73" y1="699.17" x2="314.98" y2="692.36"/><line class="cls-5" x1="312.69" y1="690.13" x2="307.14" y2="684.53"/><line class="cls-5" x1="324.14" y1="677.48" x2="317.99" y2="671.27"/><line class="cls-5" x1="315.7" y1="669.04" x2="308.95" y2="662.23"/><line class="cls-5" x1="324.14" y1="653.38" x2="321" y2="650.18"/><line class="cls-5" x1="318.71" y1="647.95" x2="311.97" y2="641.14"/><line class="cls-5" x1="309.68" y1="638.91" x2="307.14" y2="636.32"/><line class="cls-5" x1="324.14" y1="629.27" x2="324.02" y2="629.15"/><line class="cls-5" x1="321.73" y1="626.86" x2="314.98" y2="620.11"/><line class="cls-5" x1="312.69" y1="617.83" x2="307.14" y2="612.22"/><line class="cls-5" x1="324.14" y1="605.17" x2="317.99" y2="599.03"/><line class="cls-5" x1="315.7" y1="596.74" x2="308.95" y2="589.99"/><line class="cls-5" x1="324.14" y1="581.07" x2="321" y2="577.94"/><line class="cls-5" x1="318.71" y1="575.65" x2="311.97" y2="568.9"/><line class="cls-5" x1="309.68" y1="566.61" x2="307.14" y2="564.08"/><line class="cls-5" x1="324.14" y1="557.03" x2="324.02" y2="556.85"/><line class="cls-5" x1="321.73" y1="554.62" x2="314.98" y2="547.81"/><line class="cls-5" x1="312.69" y1="545.58" x2="307.14" y2="539.97"/><line class="cls-5" x1="324.14" y1="532.92" x2="317.99" y2="526.72"/><line class="cls-5" x1="315.7" y1="524.49" x2="308.95" y2="517.68"/><line class="cls-5" x1="324.14" y1="508.82" x2="321" y2="505.63"/><line class="cls-5" x1="318.71" y1="503.4" x2="311.97" y2="496.59"/><line class="cls-5" x1="309.68" y1="494.36" x2="307.14" y2="491.77"/><line class="cls-5" x1="307.14" y1="467.67" x2="307.14" y2="467.67"/><line class="cls-5" x1="307.14" y1="419.52" x2="307.14" y2="419.52"/><line class="cls-5" x1="307.14" y1="395.42" x2="307.14" y2="395.42"/><line class="cls-5" x1="319.8" y1="384.03" x2="317.99" y2="382.16"/><line class="cls-5" x1="315.7" y1="379.93" x2="308.95" y2="373.12"/><line class="cls-5" x1="324.14" y1="364.27" x2="321" y2="361.07"/><line class="cls-5" x1="318.71" y1="358.84" x2="311.97" y2="352.03"/><line class="cls-5" x1="309.68" y1="349.8" x2="307.14" y2="347.21"/><line class="cls-5" x1="324.14" y1="340.16" x2="324.02" y2="340.04"/><line class="cls-5" x1="321.73" y1="337.75" x2="314.98" y2="331"/><line class="cls-5" x1="312.69" y1="328.71" x2="307.14" y2="323.11"/><line class="cls-5" x1="324.14" y1="316.06" x2="317.99" y2="309.91"/><line class="cls-5" x1="315.7" y1="307.63" x2="308.95" y2="300.88"/><line class="cls-5" x1="324.14" y1="291.96" x2="321" y2="288.83"/><line class="cls-5" x1="318.71" y1="286.54" x2="311.97" y2="279.79"/><line class="cls-5" x1="309.68" y1="277.5" x2="307.14" y2="274.97"/><line class="cls-5" x1="324.14" y1="267.92" x2="324.02" y2="267.74"/><line class="cls-5" x1="321.73" y1="265.51" x2="314.98" y2="258.7"/><line class="cls-5" x1="312.69" y1="256.47" x2="307.14" y2="250.86"/><line class="cls-5" x1="324.14" y1="243.81" x2="317.99" y2="237.61"/><line class="cls-5" x1="315.7" y1="235.38" x2="308.95" y2="228.57"/><line class="cls-5" x1="324.14" y1="219.71" x2="321" y2="216.52"/><line class="cls-5" x1="318.71" y1="214.29" x2="311.97" y2="207.48"/><line class="cls-5" x1="309.68" y1="205.25" x2="309.56" y2="205.13"/><line class="cls-5" x1="324.14" y1="699.17" x2="324.14" y2="486.23"/><line class="cls-5" x1="324.14" y1="384.03" x2="324.14" y2="205.13"/><line class="cls-5" x1="307.14" y1="205.13" x2="307.14" y2="699.17"/><line class="cls-5" x1="17.49" y1="696.1" x2="15.32" y2="693.87"/><line class="cls-5" x1="13.03" y1="691.64" x2="6.28" y2="684.83"/><line class="cls-5" x1="3.99" y1="682.6" x2="0.5" y2="679.05"/><line class="cls-5" x1="16.05" y1="670.55" x2="9.3" y2="663.74"/><line class="cls-5" x1="7.01" y1="661.51" x2="0.5" y2="654.94"/><line class="cls-5" x1="17.49" y1="647.89" x2="12.31" y2="642.65"/><line class="cls-5" x1="10.02" y1="640.42" x2="3.27" y2="633.67"/><line class="cls-5" x1="0.98" y1="631.38" x2="0.5" y2="630.84"/><line class="cls-5" x1="17.49" y1="623.79" x2="15.32" y2="621.62"/><line class="cls-5" x1="13.03" y1="619.33" x2="6.28" y2="612.58"/><line class="cls-5" x1="3.99" y1="610.29" x2="0.5" y2="606.74"/><line class="cls-5" x1="16.05" y1="598.24" x2="9.3" y2="591.49"/><line class="cls-5" x1="7.01" y1="589.2" x2="0.5" y2="582.64"/><line class="cls-5" x1="17.49" y1="575.59" x2="12.31" y2="570.4"/><line class="cls-5" x1="10.02" y1="568.11" x2="3.27" y2="561.36"/><line class="cls-5" x1="0.98" y1="559.14" x2="0.5" y2="558.59"/><line class="cls-5" x1="17.49" y1="551.54" x2="15.32" y2="549.31"/><line class="cls-5" x1="13.03" y1="547.08" x2="6.28" y2="540.28"/><line class="cls-5" x1="3.99" y1="538.05" x2="0.5" y2="534.49"/><line class="cls-5" x1="16.05" y1="525.99" x2="9.3" y2="519.19"/><line class="cls-5" x1="7.01" y1="516.96" x2="0.5" y2="510.39"/><line class="cls-5" x1="17.49" y1="503.34" x2="12.31" y2="498.1"/><line class="cls-5" x1="10.02" y1="495.87" x2="3.27" y2="489.12"/><line class="cls-5" x1="0.98" y1="486.83" x2="0.5" y2="486.29"/><line class="cls-5" x1="8.57" y1="699.17" x2="4.78" y2="695.38"/><line class="cls-5" x1="17.49" y1="684.05" x2="16.83" y2="683.32"/><line class="cls-5" x1="14.54" y1="681.09" x2="7.79" y2="674.29"/><line class="cls-5" x1="5.5" y1="672.06" x2="0.5" y2="666.99"/><line class="cls-5" x1="17.49" y1="659.94" x2="10.8" y2="653.2"/><line class="cls-5" x1="8.51" y1="650.97" x2="1.77" y2="644.16"/><line class="cls-5" x1="17.49" y1="635.84" x2="13.82" y2="632.17"/><line class="cls-5" x1="11.53" y1="629.88" x2="4.78" y2="623.13"/><line class="cls-5" x1="2.49" y1="620.84" x2="0.5" y2="618.79"/><line class="cls-5" x1="17.49" y1="611.74" x2="16.83" y2="611.08"/><line class="cls-5" x1="14.54" y1="608.79" x2="7.79" y2="602.04"/><line class="cls-5" x1="5.5" y1="599.75" x2="0.5" y2="594.69"/><line class="cls-5" x1="17.49" y1="587.64" x2="10.8" y2="580.95"/><line class="cls-5" x1="8.51" y1="578.66" x2="1.77" y2="571.91"/><line class="cls-5" x1="17.49" y1="563.53" x2="13.82" y2="559.86"/><line class="cls-5" x1="11.53" y1="557.63" x2="4.78" y2="550.82"/><line class="cls-5" x1="2.49" y1="548.59" x2="0.5" y2="546.54"/><line class="cls-5" x1="17.49" y1="539.49" x2="16.83" y2="538.77"/><line class="cls-5" x1="14.54" y1="536.54" x2="7.79" y2="529.73"/><line class="cls-5" x1="5.5" y1="527.5" x2="0.5" y2="522.44"/><line class="cls-5" x1="17.49" y1="515.39" x2="10.8" y2="508.64"/><line class="cls-5" x1="8.51" y1="506.41" x2="1.77" y2="499.6"/><line class="cls-5" x1="17.49" y1="491.29" x2="13.82" y2="487.61"/><line class="cls-5" x1="11.59" y1="401.02" x2="6.28" y2="395.72"/><line class="cls-5" x1="3.99" y1="393.49" x2="0.5" y2="389.94"/><line class="cls-5" x1="16.05" y1="381.44" x2="9.3" y2="374.63"/><line class="cls-5" x1="7.01" y1="372.4" x2="0.5" y2="365.83"/><line class="cls-5" x1="17.49" y1="358.78" x2="12.31" y2="353.54"/><line class="cls-5" x1="10.02" y1="351.31" x2="3.27" y2="344.5"/><line class="cls-5" x1="0.98" y1="342.27" x2="0.5" y2="341.73"/><line class="cls-5" x1="17.49" y1="334.68" x2="15.32" y2="332.51"/><line class="cls-5" x1="13.03" y1="330.22" x2="6.28" y2="323.47"/><line class="cls-5" x1="3.99" y1="321.18" x2="0.5" y2="317.63"/><line class="cls-5" x1="16.05" y1="309.13" x2="9.3" y2="302.38"/><line class="cls-5" x1="7.01" y1="300.09" x2="0.5" y2="293.53"/><line class="cls-5" x1="17.49" y1="286.48" x2="12.31" y2="281.29"/><line class="cls-5" x1="10.02" y1="279" x2="3.27" y2="272.25"/><line class="cls-5" x1="0.98" y1="269.96" x2="0.5" y2="269.48"/><line class="cls-5" x1="17.49" y1="262.37" x2="15.32" y2="260.2"/><line class="cls-5" x1="13.03" y1="257.97" x2="6.28" y2="251.16"/><line class="cls-5" x1="3.99" y1="248.94" x2="0.5" y2="245.38"/><line class="cls-5" x1="16.05" y1="236.88" x2="9.3" y2="230.08"/><line class="cls-5" x1="7.01" y1="227.85" x2="0.5" y2="221.28"/><line class="cls-5" x1="17.49" y1="214.23" x2="12.31" y2="208.99"/><line class="cls-5" x1="10.02" y1="206.76" x2="8.39" y2="205.13"/><line class="cls-5" x1="17.49" y1="394.94" x2="16.83" y2="394.21"/><line class="cls-5" x1="14.54" y1="391.98" x2="7.79" y2="385.18"/><line class="cls-5" x1="5.5" y1="382.95" x2="0.5" y2="377.88"/><line class="cls-5" x1="17.49" y1="370.83" x2="10.8" y2="364.09"/><line class="cls-5" x1="8.51" y1="361.86" x2="1.77" y2="355.05"/><line class="cls-5" x1="17.49" y1="346.73" x2="13.82" y2="343.06"/><line class="cls-5" x1="11.53" y1="340.77" x2="4.78" y2="334.02"/><line class="cls-5" x1="2.49" y1="331.73" x2="0.5" y2="329.68"/><line class="cls-5" x1="17.49" y1="322.63" x2="16.83" y2="321.97"/><line class="cls-5" x1="14.54" y1="319.68" x2="7.79" y2="312.93"/><line class="cls-5" x1="5.5" y1="310.64" x2="0.5" y2="305.58"/><line class="cls-5" x1="17.49" y1="298.53" x2="10.8" y2="291.84"/><line class="cls-5" x1="8.51" y1="289.55" x2="1.77" y2="282.8"/><line class="cls-5" x1="17.49" y1="274.42" x2="13.82" y2="270.75"/><line class="cls-5" x1="11.53" y1="268.52" x2="4.78" y2="261.71"/><line class="cls-5" x1="2.49" y1="259.48" x2="0.5" y2="257.43"/><line class="cls-5" x1="17.49" y1="250.38" x2="16.83" y2="249.66"/><line class="cls-5" x1="14.54" y1="247.43" x2="7.79" y2="240.62"/><line class="cls-5" x1="5.5" y1="238.39" x2="0.5" y2="233.33"/><line class="cls-5" x1="17.49" y1="226.28" x2="10.8" y2="219.53"/><line class="cls-5" x1="8.51" y1="217.3" x2="1.77" y2="210.49"/><line class="cls-5" x1="7.01" y1="709.66" x2="3.27" y2="705.92"/><line class="cls-5" x1="0.98" y1="703.69" x2="0.5" y2="703.15"/><line class="cls-5" x1="11.53" y1="702.18" x2="8.57" y2="699.17"/><line class="cls-5" x1="0.5" y1="205.13" x2="0.5" y2="401.02"/><line class="cls-5" x1="0.5" y1="486.23" x2="0.5" y2="708.09"/><line class="cls-5" x1="0.5" y1="703.45" x2="0.5" y2="716.22"/><line class="cls-5" x1="17.49" y1="699.17" x2="17.49" y2="486.23"/><line class="cls-5" x1="17.49" y1="401.02" x2="17.49" y2="205.13"/><line class="cls-5" x1="13.58" y1="716.22" x2="12.31" y2="714.96"/><line class="cls-5" x1="10.02" y1="712.73" x2="7.01" y2="709.66"/><line class="cls-5" x1="17.49" y1="708.09" x2="13.82" y2="704.41"/><line class="cls-5" x1="0.5" y1="716.22" x2="17.49" y2="716.22"/><line class="cls-5" x1="158.07" y1="462.3" x2="160.54" y2="459.83"/><line class="cls-5" x1="159.76" y1="466.64" x2="166.57" y2="459.83"/><line class="cls-5" x1="165.78" y1="466.64" x2="172.59" y2="459.83"/><line class="cls-5" x1="171.81" y1="466.64" x2="178.62" y2="459.83"/><line class="cls-5" x1="177.77" y1="466.64" x2="184.64" y2="459.83"/><line class="cls-5" x1="183.8" y1="466.64" x2="190.67" y2="459.83"/><line class="cls-5" x1="189.83" y1="466.64" x2="196.63" y2="459.83"/><line class="cls-5" x1="195.85" y1="466.64" x2="202.66" y2="459.83"/><line class="cls-5" x1="201.88" y1="466.64" x2="208.69" y2="459.83"/><line class="cls-5" x1="207.9" y1="466.64" x2="214.71" y2="459.83"/><line class="cls-5" x1="213.93" y1="466.64" x2="220.74" y2="459.83"/><line class="cls-5" x1="219.95" y1="466.64" x2="226.76" y2="459.83"/><line class="cls-5" x1="225.98" y1="466.64" x2="232.79" y2="459.83"/><line class="cls-5" x1="232.01" y1="466.64" x2="238.81" y2="459.83"/><line class="cls-5" x1="238.03" y1="466.64" x2="244.84" y2="459.83"/><line class="cls-5" x1="244.06" y1="466.64" x2="250.87" y2="459.83"/><line class="cls-5" x1="250.08" y1="466.64" x2="256.89" y2="459.83"/><line class="cls-5" x1="256.11" y1="466.64" x2="262.92" y2="459.83"/><line class="cls-5" x1="262.13" y1="466.64" x2="268.94" y2="459.83"/><line class="cls-5" x1="268.16" y1="466.64" x2="274.97" y2="459.83"/><line class="cls-5" x1="274.18" y1="466.64" x2="280.99" y2="459.83"/><line class="cls-5" x1="280.21" y1="466.64" x2="287.02" y2="459.83"/><line class="cls-5" x1="286.24" y1="466.64" x2="293.04" y2="459.83"/><line class="cls-5" x1="292.26" y1="466.64" x2="299.07" y2="459.83"/><line class="cls-5" x1="298.29" y1="466.64" x2="305.1" y2="459.83"/><line class="cls-5" x1="304.31" y1="466.64" x2="307.14" y2="463.81"/><line class="cls-5" x1="152.89" y1="461.46" x2="154.52" y2="459.83"/><line class="cls-5" x1="155.9" y1="464.47" x2="158.07" y2="462.3"/><line class="cls-5" x1="307.14" y1="459.83" x2="151.26" y2="459.83"/><line class="cls-5" x1="158.07" y1="466.64" x2="257.73" y2="466.64"/><polyline class="cls-5" points="264.54 466.64 307.14 466.64 307.14 459.83"/><line class="cls-5" x1="151.26" y1="463.09" x2="152.89" y2="461.46"/><line class="cls-5" x1="153.73" y1="466.64" x2="155.9" y2="464.47"/><line class="cls-5" x1="151.26" y1="459.83" x2="151.26" y2="466.64"/><line class="cls-5" x1="151.26" y1="631.74" x2="156.2" y2="626.8"/><line class="cls-5" x1="151.26" y1="637.77" x2="158.07" y2="630.96"/><line class="cls-5" x1="151.26" y1="643.8" x2="158.07" y2="636.99"/><line class="cls-5" x1="151.26" y1="649.82" x2="158.07" y2="643.01"/><line class="cls-5" x1="151.26" y1="655.85" x2="158.07" y2="649.04"/><line class="cls-5" x1="151.26" y1="661.87" x2="158.07" y2="655.06"/><line class="cls-5" x1="151.26" y1="667.9" x2="158.07" y2="661.03"/><line class="cls-5" x1="151.26" y1="673.92" x2="158.07" y2="667.05"/><line class="cls-5" x1="151.26" y1="679.89" x2="158.07" y2="673.08"/><line class="cls-5" x1="151.26" y1="685.91" x2="158.07" y2="679.11"/><line class="cls-5" x1="151.26" y1="691.94" x2="158.07" y2="685.13"/><line class="cls-5" x1="151.26" y1="697.97" x2="158.07" y2="691.16"/><line class="cls-5" x1="156.08" y1="699.17" x2="158.07" y2="697.18"/><line class="cls-5" x1="151.26" y1="517.32" x2="156.74" y2="511.77"/><line class="cls-5" x1="151.26" y1="523.34" x2="158.07" y2="516.47"/><line class="cls-5" x1="151.26" y1="529.31" x2="158.07" y2="522.5"/><line class="cls-5" x1="151.26" y1="535.33" x2="158.07" y2="528.53"/><line class="cls-5" x1="151.26" y1="541.36" x2="158.07" y2="534.55"/><line class="cls-5" x1="151.26" y1="547.39" x2="158.07" y2="540.58"/><line class="cls-5" x1="151.26" y1="553.41" x2="158.07" y2="546.6"/><line class="cls-5" x1="151.26" y1="559.44" x2="158.07" y2="552.63"/><line class="cls-5" x1="151.26" y1="565.46" x2="158.07" y2="558.65"/><line class="cls-5" x1="155.6" y1="567.15" x2="158.07" y2="564.68"/><line class="cls-5" x1="151.26" y1="469.11" x2="153.73" y2="466.64"/><line class="cls-5" x1="151.26" y1="475.14" x2="158.07" y2="468.33"/><line class="cls-5" x1="151.26" y1="481.16" x2="158.07" y2="474.35"/><line class="cls-5" x1="151.26" y1="487.19" x2="158.07" y2="480.38"/><line class="cls-5" x1="151.26" y1="493.21" x2="158.07" y2="486.41"/><line class="cls-5" x1="151.26" y1="499.24" x2="158.07" y2="492.43"/><line class="cls-5" x1="151.5" y1="504.96" x2="158.07" y2="498.46"/><line class="cls-5" x1="157.53" y1="504.96" x2="158.07" y2="504.48"/><line class="cls-5" x1="158.07" y1="626.8" x2="151.26" y2="626.8"/><line class="cls-5" x1="158.07" y1="567.15" x2="151.26" y2="567.15"/><line class="cls-5" x1="151.26" y1="466.64" x2="151.26" y2="504.96"/><line class="cls-5" x1="151.26" y1="511.77" x2="151.26" y2="567.15"/><polyline class="cls-5" points="151.26 626.8 151.26 699.17 158.07 699.17 158.07 626.8"/><line class="cls-5" x1="158.07" y1="567.15" x2="158.07" y2="511.77"/><line class="cls-5" x1="158.07" y1="504.96" x2="158.07" y2="466.64"/><line class="cls-3" x1="151.26" y1="566.67" x2="151.26" y2="626.8"/><line class="cls-3" x1="158.07" y1="566.67" x2="158.07" y2="626.8"/><line class="cls-5" x1="17.49" y1="506.47" x2="19" y2="504.96"/><line class="cls-5" x1="18.22" y1="511.77" x2="25.02" y2="504.96"/><line class="cls-5" x1="24.24" y1="511.77" x2="31.05" y2="504.96"/><line class="cls-5" x1="30.27" y1="511.77" x2="37.08" y2="504.96"/><line class="cls-5" x1="36.29" y1="511.77" x2="43.1" y2="504.96"/><line class="cls-5" x1="42.32" y1="511.77" x2="49.13" y2="504.96"/><line class="cls-5" x1="48.34" y1="511.77" x2="55.15" y2="504.96"/><line class="cls-5" x1="54.37" y1="511.77" x2="57.56" y2="508.58"/><line class="cls-5" x1="134.21" y1="510.21" x2="139.45" y2="504.96"/><line class="cls-5" x1="138.67" y1="511.77" x2="145.48" y2="504.96"/><line class="cls-5" x1="144.69" y1="511.77" x2="151.5" y2="504.96"/><line class="cls-5" x1="150.72" y1="511.77" x2="157.53" y2="504.96"/><line class="cls-5" x1="156.74" y1="511.77" x2="163.55" y2="504.96"/><line class="cls-5" x1="162.77" y1="511.77" x2="169.58" y2="504.96"/><line class="cls-5" x1="168.8" y1="511.77" x2="175.61" y2="504.96"/><line class="cls-5" x1="174.82" y1="511.77" x2="181.63" y2="504.96"/><line class="cls-5" x1="180.85" y1="511.77" x2="187.66" y2="504.96"/><line class="cls-5" x1="186.87" y1="511.77" x2="193.68" y2="504.96"/><line class="cls-5" x1="192.9" y1="511.77" x2="199.71" y2="504.96"/><line class="cls-5" x1="198.92" y1="511.77" x2="205.73" y2="504.96"/><line class="cls-5" x1="204.95" y1="511.77" x2="211.76" y2="504.96"/><line class="cls-5" x1="210.98" y1="511.77" x2="217.78" y2="504.96"/><line class="cls-5" x1="217" y1="511.77" x2="223.81" y2="504.96"/><line class="cls-5" x1="223.03" y1="511.77" x2="229.84" y2="504.96"/><line class="cls-5" x1="229.05" y1="511.77" x2="235.86" y2="504.96"/><line class="cls-5" x1="235.08" y1="511.77" x2="241.89" y2="504.96"/><line class="cls-5" x1="241.04" y1="511.77" x2="247.91" y2="504.96"/><line class="cls-5" x1="247.07" y1="511.77" x2="253.94" y2="504.96"/><line class="cls-5" x1="253.09" y1="511.77" x2="259.96" y2="504.96"/><line class="cls-5" x1="259.12" y1="511.77" x2="264.54" y2="506.41"/><line class="cls-5" x1="298.59" y1="508.46" x2="302.08" y2="504.96"/><line class="cls-5" x1="301.3" y1="511.77" x2="307.14" y2="505.99"/><line class="cls-5" x1="134.21" y1="504.96" x2="134.21" y2="511.77"/><line class="cls-5" x1="57.56" y1="504.96" x2="57.56" y2="511.77"/><polyline class="cls-5" points="298.59 511.77 298.59 508.4 298.59 504.96"/><polyline class="cls-5" points="264.54 511.77 264.54 508.4 264.54 504.96"/><line class="cls-5" x1="17.49" y1="511.77" x2="57.56" y2="511.77"/><line class="cls-5" x1="134.21" y1="511.77" x2="151.26" y2="511.77"/><line class="cls-5" x1="158.07" y1="511.77" x2="264.54" y2="511.77"/><polyline class="cls-5" points="298.59 511.77 307.14 511.77 307.14 504.96 298.59 504.96"/><line class="cls-5" x1="257.73" y1="504.96" x2="158.07" y2="504.96"/><line class="cls-5" x1="151.26" y1="504.96" x2="134.21" y2="504.96"/><polyline class="cls-5" points="57.56 504.96 17.49 504.96 17.49 511.77"/><line class="cls-3" x1="57.56" y1="511.77" x2="134.21" y2="511.77"/><line class="cls-3" x1="57.56" y1="504.96" x2="134.21" y2="504.96"/><line class="cls-5" x1="264.54" y1="511.77" x2="298.59" y2="511.77"/><line class="cls-5" x1="264.54" y1="504.96" x2="298.59" y2="504.96"/><path class="cls-5" d="M264.48,540.08a34,34,0,0,0,2.06,11.65" transform="translate(0 -28.33)"/><line class="cls-5" x1="298.59" y1="511.77" x2="266.59" y2="523.46"/><polyline class="cls-5" points="264.54 504.96 264.54 508.4 264.54 511.77 264.54 508.4"/><polyline class="cls-5" points="298.59 504.96 298.59 508.4 298.59 511.77 298.59 508.4"/><line class="cls-5" x1="109.93" y1="716.22" x2="106.97" y2="713.21"/><line class="cls-5" x1="133.55" y1="715.68" x2="126.74" y2="708.93"/><line class="cls-5" x1="124.51" y1="706.7" x2="117.7" y2="699.89"/><line class="cls-5" x1="158.13" y1="716.22" x2="156.87" y2="714.96"/><line class="cls-5" x1="154.58" y1="712.73" x2="147.83" y2="705.92"/><line class="cls-5" x1="145.54" y1="703.69" x2="141.08" y2="699.17"/><line class="cls-5" x1="182.23" y1="716.22" x2="177.96" y2="711.95"/><line class="cls-5" x1="175.67" y1="709.72" x2="168.92" y2="702.91"/><line class="cls-5" x1="166.63" y1="700.68" x2="165.18" y2="699.17"/><line class="cls-5" x1="205.79" y1="715.68" x2="199.04" y2="708.93"/><line class="cls-5" x1="196.76" y1="706.7" x2="190.01" y2="699.89"/><line class="cls-5" x1="221.94" y1="707.79" x2="220.07" y2="705.92"/><line class="cls-5" x1="217.85" y1="703.69" x2="213.33" y2="699.17"/><line class="cls-5" x1="237.43" y1="699.17" x2="237.43" y2="699.17"/><line class="cls-5" x1="285.63" y1="699.17" x2="285.63" y2="699.17"/><line class="cls-5" x1="309.74" y1="699.17" x2="309.74" y2="699.17"/><line class="cls-5" x1="121.98" y1="716.22" x2="116.19" y2="710.44"/><line class="cls-5" x1="113.96" y1="708.21" x2="107.15" y2="701.4"/><line class="cls-5" x1="144.03" y1="714.18" x2="137.28" y2="707.43"/><line class="cls-5" x1="135.05" y1="705.2" x2="129.03" y2="699.17"/><line class="cls-5" x1="170.18" y1="716.22" x2="167.41" y2="713.45"/><line class="cls-5" x1="165.12" y1="711.22" x2="158.37" y2="704.41"/><line class="cls-5" x1="156.08" y1="702.18" x2="153.13" y2="699.17"/><line class="cls-5" x1="194.22" y1="716.22" x2="188.5" y2="710.44"/><line class="cls-5" x1="186.21" y1="708.21" x2="179.46" y2="701.4"/><line class="cls-5" x1="216.34" y1="714.18" x2="209.53" y2="707.43"/><line class="cls-5" x1="207.3" y1="705.2" x2="201.33" y2="699.17"/><line class="cls-5" x1="225.38" y1="699.17" x2="225.38" y2="699.17"/><line class="cls-5" x1="273.58" y1="699.17" x2="273.58" y2="699.17"/><line class="cls-5" x1="297.68" y1="699.17" x2="297.68" y2="699.17"/><polyline class="cls-5" points="17.49 716.22 17.49 709.41 17.49 699.17"/><polyline class="cls-5" points="221.94 716.22 106.97 716.22 106.97 709.41 106.97 699.17"/><line class="cls-5" x1="307.14" y1="699.17" x2="106.97" y2="699.17"/><path class="cls-5" d="M103.48,737.72a78.36,78.36,0,0,0-78.37-78.36" transform="translate(0 -28.33)"/><line class="cls-5" x1="21.77" y1="709.41" x2="17.49" y2="709.41"/><polyline class="cls-5" points="21.77 716.22 17.49 716.22 17.49 709.41"/><polyline class="cls-5" points="106.97 716.22 103.54 716.22 103.54 709.41 106.97 709.41 106.97 716.22"/><polyline class="cls-5" points="21.77 709.41 25.14 709.41 25.14 716.22 21.77 716.22 21.77 709.41"/><line class="cls-5" x1="25.14" y1="709.41" x2="25.14" y2="631.02"/><polyline class="cls-5" points="106.97 699.17 106.97 709.41 106.97 716.22 106.97 709.41"/><polyline class="cls-5" points="17.49 699.17 17.49 709.41 17.49 716.22 17.49 709.41"/><line class="cls-5" x1="257.73" y1="471.04" x2="262.13" y2="466.64"/><line class="cls-5" x1="257.73" y1="477.07" x2="264.54" y2="470.26"/><line class="cls-5" x1="257.73" y1="483.09" x2="264.54" y2="476.28"/><line class="cls-5" x1="257.73" y1="489.12" x2="264.54" y2="482.31"/><line class="cls-5" x1="257.73" y1="495.14" x2="264.54" y2="488.33"/><line class="cls-5" x1="257.73" y1="501.17" x2="264.54" y2="494.36"/><line class="cls-5" x1="259.96" y1="504.96" x2="264.54" y2="500.39"/><line class="cls-5" x1="264.54" y1="504.96" x2="264.54" y2="466.64"/><line class="cls-5" x1="257.73" y1="466.64" x2="257.73" y2="504.96"/><line class="cls-5" x1="0.5" y1="117.76" x2="1.65" y2="115.71"/><line class="cls-5" x1="4.12" y1="119.93" x2="6.59" y2="115.71"/><line class="cls-5" x1="9.06" y1="119.93" x2="11.47" y2="115.71"/><line class="cls-5" x1="13.94" y1="119.93" x2="16.41" y2="115.71"/><line class="cls-5" x1="2.31" y1="119.93" x2="0.5" y2="116.79"/><line class="cls-5" x1="7.19" y1="119.93" x2="4.78" y2="115.71"/><line class="cls-5" x1="12.13" y1="119.93" x2="9.66" y2="115.71"/><line class="cls-5" x1="17.07" y1="119.93" x2="14.6" y2="115.71"/><polyline class="cls-5" points="0.5 106.31 0.5 119.93 17.49 119.93 17.49 115.71"/><line class="cls-5" x1="309.01" y1="119.93" x2="311.48" y2="115.71"/><line class="cls-5" x1="313.95" y1="119.93" x2="316.36" y2="115.71"/><line class="cls-5" x1="318.83" y1="119.93" x2="321.31" y2="115.71"/><line class="cls-5" x1="323.78" y1="119.93" x2="324.14" y2="119.26"/><line class="cls-5" x1="307.21" y1="119.93" x2="307.14" y2="119.81"/><line class="cls-5" x1="312.09" y1="119.93" x2="309.68" y2="115.71"/><line class="cls-5" x1="317.03" y1="119.93" x2="314.56" y2="115.71"/><line class="cls-5" x1="321.97" y1="119.93" x2="319.5" y2="115.71"/><polyline class="cls-5" points="307.14 115.71 307.14 119.93 324.14 119.93 324.14 106.01"/><line class="cls-5" x1="324.14" y1="699.17" x2="324.14" y2="635.3"/><line class="cls-5" x1="324.14" y1="586.73" x2="324.14" y2="632.71"/><line class="cls-5" x1="324.14" y1="616.98" x2="324.14" y2="602.52"/><line class="cls-5" x1="324.14" y1="542.44" x2="324.14" y2="574.8"/><line class="cls-5" x1="302.26" y1="688.93" x2="302.26" y2="645.54"/><line class="cls-5" x1="297.44" y1="640.42" x2="192.06" y2="640.42"/><line class="cls-5" x1="297.44" y1="694.05" x2="192.06" y2="694.05"/><line class="cls-5" x1="162.29" y1="635.3" x2="307.14" y2="635.3"/><line class="cls-5" x1="162.29" y1="699.17" x2="307.14" y2="699.17"/><line class="cls-5" x1="162.29" y1="699.17" x2="162.29" y2="635.3"/><line class="cls-5" x1="307.14" y1="699.17" x2="307.14" y2="635.3"/><line class="cls-5" x1="208.99" y1="685.19" x2="291.48" y2="685.19"/><line class="cls-5" x1="293.89" y1="682.6" x2="293.89" y2="651.87"/><line class="cls-5" x1="208.99" y1="649.28" x2="291.48" y2="649.28"/><line class="cls-5" x1="276.96" y1="668.8" x2="276.96" y2="671.94"/><line class="cls-5" x1="278.4" y1="667.24" x2="281.42" y2="667.24"/><line class="cls-5" x1="276.96" y1="665.67" x2="276.96" y2="662.54"/><line class="cls-5" x1="275.45" y1="667.24" x2="272.5" y2="667.24"/><path class="cls-5" d="M192,668.7c-14,0-25.33,12-25.33,26.84S178,722.38,192,722.38" transform="translate(0 -28.33)"/><path class="cls-5" d="M302.26,673.85a5,5,0,0,0-4.85-5.09" transform="translate(0 -28.33)"/><path class="cls-5" d="M297.41,722.32a5,5,0,0,0,4.85-5.09" transform="translate(0 -28.33)"/><path class="cls-5" d="M276.93,698.22a2.69,2.69,0,1,0-2.5-2.68,2.6,2.6,0,0,0,2.5,2.68" transform="translate(0 -28.33)"/><path class="cls-5" d="M209,677.61c-9.37,0-17,8-17,17.93s7.6,17.93,17,17.93" transform="translate(0 -28.33)"/><path class="cls-5" d="M291.45,713.47a2.5,2.5,0,0,0,2.44-2.56" transform="translate(0 -28.33)"/><path class="cls-5" d="M293.89,680.17a2.5,2.5,0,0,0-2.44-2.56" transform="translate(0 -28.33)"/><path class="cls-5" d="M276.93,699.12a3.59,3.59,0,1,0-3.35-3.58,3.47,3.47,0,0,0,3.35,3.58" transform="translate(0 -28.33)"/><line class="cls-5" x1="307.14" y1="586.73" x2="307.14" y2="632.71"/><line class="cls-5" x1="307.14" y1="632.71" x2="287.68" y2="632.71"/><line class="cls-5" x1="307.14" y1="586.73" x2="287.68" y2="586.73"/><line class="cls-5" x1="307.14" y1="616.98" x2="307.14" y2="602.52"/><line class="cls-5" x1="291.48" y1="613.61" x2="291.48" y2="611.14"/><line class="cls-5" x1="295.39" y1="609.75" x2="292.92" y2="609.75"/><line class="cls-5" x1="291.48" y1="608.3" x2="291.48" y2="605.83"/><line class="cls-5" x1="290.09" y1="609.75" x2="287.62" y2="609.75"/><path class="cls-5" d="M296.15,625.84a20.44,20.44,0,0,0-9.7-8" transform="translate(0 -28.33)"/><path class="cls-5" d="M299,638a20.52,20.52,0,0,0-2.87-12.23" transform="translate(0 -28.33)"/><path class="cls-5" d="M286.45,658.22a20.44,20.44,0,0,0,9.7-8" transform="translate(0 -28.33)"/><path class="cls-5" d="M296.13,650.27A20.52,20.52,0,0,0,299,638" transform="translate(0 -28.33)"/><path class="cls-5" d="M276,622.47a37.75,37.75,0,0,0-3.8,14" transform="translate(0 -28.33)"/><path class="cls-5" d="M278,656.66a11.7,11.7,0,0,0,9.64,4.37" transform="translate(0 -28.33)"/><path class="cls-5" d="M272.25,636.45a24.56,24.56,0,0,0,0,3.21" transform="translate(0 -28.33)"/><path class="cls-5" d="M295.37,650.92a84.15,84.15,0,0,0,0-25.74" transform="translate(0 -28.33)"/><path class="cls-5" d="M284.62,659.89a28.9,28.9,0,0,0,18.82-6.53" transform="translate(0 -28.33)"/><path class="cls-5" d="M304.76,651.2A57.61,57.61,0,0,0,306.18,638" transform="translate(0 -28.33)"/><path class="cls-5" d="M303.39,653.31a3.82,3.82,0,0,0,1.31-2.12" transform="translate(0 -28.33)"/><path class="cls-5" d="M303.44,651a97.05,97.05,0,0,0,.93-13" transform="translate(0 -28.33)"/><path class="cls-5" d="M284.6,659.84a26,26,0,0,0,17.53-6.5" transform="translate(0 -28.33)"/><path class="cls-5" d="M302.11,653.34a3.8,3.8,0,0,0,1.26-2.35" transform="translate(0 -28.33)"/><path class="cls-5" d="M302.16,622.73a26,26,0,0,0-17.53-6.52" transform="translate(0 -28.33)"/><path class="cls-5" d="M303.47,622.77a28.93,28.93,0,0,0-18.81-6.55" transform="translate(0 -28.33)"/><path class="cls-5" d="M304.37,638.05a98.57,98.57,0,0,0-.91-13" transform="translate(0 -28.33)"/><path class="cls-5" d="M306.18,638.09a57.19,57.19,0,0,0-1.41-13.17" transform="translate(0 -28.33)"/><path class="cls-5" d="M303.43,625.12a3.79,3.79,0,0,0-1.25-2.34" transform="translate(0 -28.33)"/><path class="cls-5" d="M304.76,624.92a3.85,3.85,0,0,0-1.31-2.12" transform="translate(0 -28.33)"/><path class="cls-5" d="M287.61,615a11.7,11.7,0,0,0-9.64,4.37" transform="translate(0 -28.33)"/><path class="cls-5" d="M278,619.45a18.52,18.52,0,0,0-2,3" transform="translate(0 -28.33)"/><path class="cls-5" d="M276.06,653.61a18.52,18.52,0,0,0,2,3" transform="translate(0 -28.33)"/><path class="cls-5" d="M272.24,639.62a37.75,37.75,0,0,0,3.8,14" transform="translate(0 -28.33)"/><path class="cls-5" d="M275.48,631.73a27,27,0,0,0,0,12.65" transform="translate(0 -28.33)"/><path class="cls-5" d="M286.44,617.86a6.91,6.91,0,0,0-5.7,2.37" transform="translate(0 -28.33)"/><path class="cls-5" d="M280.73,620.25a25,25,0,0,0-5.26,11.48" transform="translate(0 -28.33)"/><path class="cls-5" d="M280.74,655.82a6.91,6.91,0,0,0,5.7,2.37" transform="translate(0 -28.33)"/><path class="cls-5" d="M275.47,644.38a25,25,0,0,0,5.26,11.48" transform="translate(0 -28.33)"/><path class="cls-5" d="M291.45,641a3,3,0,1,0-3-3,3,3,0,0,0,3,3" transform="translate(0 -28.33)"/><path class="cls-5" d="M291.45,640.19a2.14,2.14,0,1,0-2.14-2.13,2.13,2.13,0,0,0,2.14,2.13" transform="translate(0 -28.33)"/><line class="cls-5" x1="294.01" y1="543.71" x2="263.94" y2="543.71"/><line class="cls-5" x1="307.14" y1="542.44" x2="307.14" y2="574.8"/><line class="cls-5" x1="307.14" y1="542.44" x2="295.82" y2="542.44"/><line class="cls-5" x1="288.77" y1="558.65" x2="288.77" y2="570.64"/><line class="cls-5" x1="264" y1="543.71" x2="288.77" y2="546.6"/><line class="cls-5" x1="288.77" y1="558.65" x2="288.77" y2="546.6"/><line class="cls-5" x1="264" y1="573.54" x2="288.77" y2="570.64"/><line class="cls-5" x1="264" y1="544.49" x2="288.77" y2="547.39"/><line class="cls-5" x1="264" y1="572.75" x2="288.77" y2="569.86"/><line class="cls-5" x1="294.01" y1="573.54" x2="263.94" y2="573.54"/><line class="cls-5" x1="307.14" y1="574.8" x2="295.82" y2="574.8"/><line class="cls-5" x1="264" y1="543.71" x2="260.69" y2="544.13"/><line class="cls-5" x1="260.69" y1="544.13" x2="257.49" y2="545.4"/><line class="cls-5" x1="257.49" y1="545.4" x2="254.72" y2="547.45"/><line class="cls-5" x1="254.72" y1="547.45" x2="252.49" y2="550.16"/><line class="cls-5" x1="252.49" y1="550.16" x2="250.93" y2="553.35"/><line class="cls-5" x1="250.93" y1="553.35" x2="250.14" y2="556.85"/><line class="cls-5" x1="250.14" y1="556.85" x2="250.14" y2="560.4"/><line class="cls-5" x1="250.14" y1="560.4" x2="250.93" y2="563.9"/><line class="cls-5" x1="250.93" y1="563.9" x2="252.49" y2="567.09"/><line class="cls-5" x1="252.49" y1="567.09" x2="254.72" y2="569.8"/><line class="cls-5" x1="254.72" y1="569.8" x2="257.49" y2="571.85"/><line class="cls-5" x1="257.49" y1="571.85" x2="260.69" y2="573.11"/><line class="cls-5" x1="260.69" y1="573.11" x2="264" y2="573.54"/><line class="cls-5" x1="264" y1="544.49" x2="260.87" y2="544.91"/><line class="cls-5" x1="260.87" y1="544.91" x2="257.86" y2="546.12"/><line class="cls-5" x1="257.86" y1="546.12" x2="255.26" y2="548.05"/><line class="cls-5" x1="255.26" y1="548.05" x2="253.15" y2="550.58"/><line class="cls-5" x1="253.15" y1="550.58" x2="251.65" y2="553.59"/><line class="cls-5" x1="251.65" y1="553.59" x2="250.93" y2="556.91"/><line class="cls-5" x1="250.93" y1="556.91" x2="250.93" y2="560.34"/><line class="cls-5" x1="250.93" y1="560.34" x2="251.65" y2="563.65"/><line class="cls-5" x1="251.65" y1="563.65" x2="253.15" y2="566.67"/><line class="cls-5" x1="253.15" y1="566.67" x2="255.26" y2="569.2"/><line class="cls-5" x1="255.26" y1="569.2" x2="257.86" y2="571.13"/><line class="cls-5" x1="257.86" y1="571.13" x2="260.87" y2="572.33"/><line class="cls-5" x1="260.87" y1="572.33" x2="264" y2="572.75"/><path class="cls-5" d="M293.88,572.44a137.32,137.32,0,0,0,0,29" transform="translate(0 -28.33)"/><path class="cls-5" d="M295.79,570.72a1.9,1.9,0,0,0-1.89,1.69" transform="translate(0 -28.33)"/><path class="cls-5" d="M293.9,601.43a1.9,1.9,0,0,0,1.89,1.71" transform="translate(0 -28.33)"/><path class="cls-5" d="M298.35,587a1.6,1.6,0,1,0,1.59-1.6,1.59,1.59,0,0,0-1.59,1.6" transform="translate(0 -28.33)"/><line class="cls-5" x1="302.87" y1="412.95" x2="302.87" y2="459.83"/><line class="cls-5" x1="255.99" y1="412.95" x2="302.87" y2="412.95"/><line class="cls-5" x1="255.99" y1="459.83" x2="255.99" y2="412.95"/><line class="cls-5" x1="302.87" y1="459.83" x2="255.99" y2="459.83"/><line class="cls-5" x1="298.59" y1="455.55" x2="260.27" y2="455.55"/><line class="cls-5" x1="260.27" y1="455.55" x2="260.27" y2="421.51"/><line class="cls-5" x1="260.27" y1="421.51" x2="298.59" y2="421.51"/><line class="cls-5" x1="298.59" y1="421.51" x2="298.59" y2="455.55"/><polyline class="cls-5" points="277.86 102.93 287.32 57.02 287.74 57.14 278.28 102.99 277.86 102.93"/><polyline class="cls-5" points="286.36 55.51 209.59 39.73 209.65 39.3 286.42 55.09 286.36 55.51"/><polyline class="cls-5" points="208.08 40.75 198.62 86.61 198.2 86.54 207.66 40.63 208.08 40.75"/><polyline class="cls-5" points="276.17 104.74 276.65 102.69 278.7 103.11 278.28 105.16 276.17 104.74"/><polyline class="cls-5" points="286.06 56.78 286.48 54.67 288.59 55.15 288.16 57.2 286.06 56.78"/><polyline class="cls-5" points="209.29 40.99 207.24 40.57 207.66 38.46 209.77 38.88 209.29 40.99"/><polyline class="cls-5" points="199.89 86.85 199.47 88.95 197.36 88.53 197.78 86.42 199.89 86.85"/><line class="cls-5" x1="276.41" y1="103.72" x2="286.06" y2="56.78"/><line class="cls-5" x1="288.59" y1="55.15" x2="278.52" y2="104.14"/><line class="cls-5" x1="286.06" y1="56.78" x2="209.29" y2="40.99"/><line class="cls-5" x1="207.66" y1="38.46" x2="288.59" y2="55.15"/><line class="cls-5" x1="209.29" y1="40.99" x2="199.65" y2="87.93"/><line class="cls-5" x1="197.6" y1="87.51" x2="207.66" y2="38.46"/><polyline class="cls-5" points="278.52 104.14 278.28 105.16 276.17 104.74 276.41 103.72"/><polyline class="cls-5" points="199.65 87.93 199.47 88.95 197.36 88.53 197.6 87.51"/><polyline class="cls-5" points="207.66 38.46 288.59 55.15 278.52 104.14 276.41 103.72 286.06 56.78 209.29 40.99 199.65 87.93 197.6 87.51 207.66 38.46"/><polyline class="cls-5" points="208.75 54.37 281.36 69.31 275.81 96 203.26 81.06 208.75 54.37"/><polyline class="cls-5" points="208.2 57.02 280.75 71.96 275.81 96 203.26 81.06 208.2 57.02"/><line class="cls-5" x1="0.5" y1="122.34" x2="2.91" y2="119.93"/><line class="cls-5" x1="0.5" y1="129.57" x2="10.14" y2="119.93"/><line class="cls-5" x1="0.5" y1="136.8" x2="17.31" y2="119.93"/><line class="cls-5" x1="0.5" y1="144.03" x2="17.49" y2="127.04"/><line class="cls-5" x1="0.5" y1="151.26" x2="17.49" y2="134.21"/><line class="cls-5" x1="0.5" y1="158.49" x2="17.49" y2="141.44"/><line class="cls-5" x1="0.5" y1="165.72" x2="17.49" y2="148.67"/><line class="cls-5" x1="0.5" y1="172.95" x2="17.49" y2="155.9"/><line class="cls-5" x1="0.5" y1="180.18" x2="17.49" y2="163.13"/><line class="cls-5" x1="0.5" y1="187.41" x2="17.49" y2="170.36"/><line class="cls-5" x1="0.5" y1="194.64" x2="17.49" y2="177.59"/><line class="cls-5" x1="0.5" y1="201.88" x2="17.49" y2="184.82"/><line class="cls-5" x1="4.42" y1="205.13" x2="17.49" y2="192.05"/><line class="cls-5" x1="11.65" y1="205.13" x2="17.49" y2="199.28"/><line class="cls-5" x1="0.5" y1="125.95" x2="0.68" y2="125.71"/><line class="cls-5" x1="1.58" y1="124.81" x2="1.58" y2="124.81"/><line class="cls-5" x1="2.49" y1="123.9" x2="5.2" y2="121.19"/><line class="cls-5" x1="6.1" y1="120.35" x2="6.1" y2="120.35"/><line class="cls-5" x1="0.68" y1="132.94" x2="0.68" y2="132.94"/><line class="cls-5" x1="1.58" y1="132.04" x2="4.3" y2="129.33"/><line class="cls-5" x1="5.2" y1="128.42" x2="5.2" y2="128.42"/><line class="cls-5" x1="6.1" y1="127.52" x2="8.82" y2="124.81"/><line class="cls-5" x1="9.72" y1="123.9" x2="9.72" y2="123.9"/><line class="cls-5" x1="10.62" y1="123" x2="13.33" y2="120.35"/><line class="cls-5" x1="0.68" y1="140.17" x2="3.39" y2="137.46"/><line class="cls-5" x1="4.3" y1="136.56" x2="4.3" y2="136.56"/><line class="cls-5" x1="5.2" y1="135.65" x2="7.91" y2="132.94"/><line class="cls-5" x1="8.82" y1="132.04" x2="8.82" y2="132.04"/><line class="cls-5" x1="9.72" y1="131.13" x2="12.43" y2="128.42"/><line class="cls-5" x1="13.33" y1="127.52" x2="13.33" y2="127.52"/><line class="cls-5" x1="14.24" y1="126.62" x2="16.95" y2="123.9"/><line class="cls-5" x1="0.5" y1="147.64" x2="2.49" y2="145.6"/><line class="cls-5" x1="3.39" y1="144.69" x2="3.39" y2="144.69"/><line class="cls-5" x1="4.3" y1="143.79" x2="7.01" y2="141.08"/><line class="cls-5" x1="7.91" y1="140.17" x2="7.91" y2="140.17"/><line class="cls-5" x1="8.82" y1="139.27" x2="11.53" y2="136.56"/><line class="cls-5" x1="12.43" y1="135.65" x2="12.43" y2="135.65"/><line class="cls-5" x1="13.33" y1="134.75" x2="16.05" y2="132.04"/><line class="cls-5" x1="16.95" y1="131.13" x2="16.95" y2="131.13"/><line class="cls-5" x1="0.5" y1="154.88" x2="1.58" y2="153.73"/><line class="cls-5" x1="2.49" y1="152.83" x2="2.49" y2="152.83"/><line class="cls-5" x1="3.39" y1="151.92" x2="6.1" y2="149.21"/><line class="cls-5" x1="7.01" y1="148.31" x2="7.01" y2="148.31"/><line class="cls-5" x1="7.91" y1="147.4" x2="10.62" y2="144.69"/><line class="cls-5" x1="11.53" y1="143.79" x2="11.53" y2="143.79"/><line class="cls-5" x1="12.43" y1="142.88" x2="15.14" y2="140.17"/><line class="cls-5" x1="16.05" y1="139.27" x2="16.05" y2="139.27"/><line class="cls-5" x1="16.95" y1="138.36" x2="17.49" y2="137.82"/><line class="cls-5" x1="0.5" y1="162.11" x2="0.68" y2="161.86"/><line class="cls-5" x1="1.58" y1="160.96" x2="1.58" y2="160.96"/><line class="cls-5" x1="2.49" y1="160.06" x2="5.2" y2="157.35"/><line class="cls-5" x1="6.1" y1="156.44" x2="6.1" y2="156.44"/><line class="cls-5" x1="7.01" y1="155.54" x2="9.72" y2="152.83"/><line class="cls-5" x1="10.62" y1="151.92" x2="10.62" y2="151.92"/><line class="cls-5" x1="11.53" y1="151.02" x2="14.24" y2="148.31"/><line class="cls-5" x1="15.14" y1="147.4" x2="15.14" y2="147.4"/><line class="cls-5" x1="16.05" y1="146.5" x2="17.49" y2="145.05"/><line class="cls-5" x1="0.68" y1="169.1" x2="0.68" y2="169.1"/><line class="cls-5" x1="1.58" y1="168.19" x2="4.3" y2="165.48"/><line class="cls-5" x1="5.2" y1="164.58" x2="5.2" y2="164.58"/><line class="cls-5" x1="6.1" y1="163.67" x2="8.82" y2="160.96"/><line class="cls-5" x1="9.72" y1="160.06" x2="9.72" y2="160.06"/><line class="cls-5" x1="10.62" y1="159.15" x2="13.33" y2="156.44"/><line class="cls-5" x1="14.24" y1="155.54" x2="14.24" y2="155.54"/><line class="cls-5" x1="15.14" y1="154.63" x2="17.49" y2="152.28"/><line class="cls-5" x1="0.68" y1="176.33" x2="3.39" y2="173.61"/><line class="cls-5" x1="4.3" y1="172.71" x2="4.3" y2="172.71"/><line class="cls-5" x1="5.2" y1="171.81" x2="7.91" y2="169.1"/><line class="cls-5" x1="8.82" y1="168.19" x2="8.82" y2="168.19"/><line class="cls-5" x1="9.72" y1="167.29" x2="12.43" y2="164.58"/><line class="cls-5" x1="13.33" y1="163.67" x2="13.33" y2="163.67"/><line class="cls-5" x1="14.24" y1="162.77" x2="16.95" y2="160.06"/><line class="cls-5" x1="0.5" y1="183.8" x2="2.49" y2="181.75"/><line class="cls-5" x1="3.39" y1="180.85" x2="3.39" y2="180.85"/><line class="cls-5" x1="4.3" y1="179.94" x2="7.01" y2="177.23"/><line class="cls-5" x1="7.91" y1="176.33" x2="7.91" y2="176.33"/><line class="cls-5" x1="8.82" y1="175.42" x2="11.53" y2="172.71"/><line class="cls-5" x1="12.43" y1="171.81" x2="12.43" y2="171.81"/><line class="cls-5" x1="13.33" y1="170.9" x2="16.05" y2="168.19"/><line class="cls-5" x1="16.95" y1="167.29" x2="16.95" y2="167.29"/><line class="cls-5" x1="0.5" y1="191.03" x2="1.58" y2="189.88"/><line class="cls-5" x1="2.49" y1="188.98" x2="2.49" y2="188.98"/><line class="cls-5" x1="3.39" y1="188.08" x2="6.1" y2="185.37"/><line class="cls-5" x1="7.01" y1="184.46" x2="7.01" y2="184.46"/><line class="cls-5" x1="7.91" y1="183.56" x2="10.62" y2="180.85"/><line class="cls-5" x1="11.53" y1="179.94" x2="11.53" y2="179.94"/><line class="cls-5" x1="12.43" y1="179.04" x2="15.14" y2="176.33"/><line class="cls-5" x1="16.05" y1="175.42" x2="16.05" y2="175.42"/><line class="cls-5" x1="16.95" y1="174.52" x2="17.49" y2="173.98"/><line class="cls-5" x1="0.5" y1="198.26" x2="0.68" y2="198.02"/><line class="cls-5" x1="1.58" y1="197.11" x2="1.58" y2="197.11"/><line class="cls-5" x1="2.49" y1="196.21" x2="5.2" y2="193.5"/><line class="cls-5" x1="6.1" y1="192.6" x2="6.1" y2="192.6"/><line class="cls-5" x1="7.01" y1="191.69" x2="9.72" y2="188.98"/><line class="cls-5" x1="10.62" y1="188.08" x2="10.62" y2="188.08"/><line class="cls-5" x1="11.53" y1="187.17" x2="14.24" y2="184.46"/><line class="cls-5" x1="15.14" y1="183.56" x2="15.14" y2="183.56"/><line class="cls-5" x1="16.05" y1="182.65" x2="17.49" y2="181.21"/><line class="cls-5" x1="1.58" y1="204.35" x2="4.3" y2="201.63"/><line class="cls-5" x1="5.2" y1="200.73" x2="5.2" y2="200.73"/><line class="cls-5" x1="6.1" y1="199.83" x2="8.82" y2="197.11"/><line class="cls-5" x1="9.72" y1="196.21" x2="9.72" y2="196.21"/><line class="cls-5" x1="10.62" y1="195.31" x2="13.33" y2="192.6"/><line class="cls-5" x1="14.24" y1="191.69" x2="14.24" y2="191.69"/><line class="cls-5" x1="15.14" y1="190.79" x2="17.49" y2="188.44"/><line class="cls-5" x1="8.82" y1="204.35" x2="8.82" y2="204.35"/><line class="cls-5" x1="9.72" y1="203.44" x2="12.43" y2="200.73"/><line class="cls-5" x1="13.33" y1="199.83" x2="13.33" y2="199.83"/><line class="cls-5" x1="14.24" y1="198.92" x2="16.95" y2="196.21"/><line class="cls-5" x1="15.26" y1="205.13" x2="16.05" y2="204.35"/><line class="cls-5" x1="16.95" y1="203.44" x2="16.95" y2="203.44"/><polyline class="cls-5" points="0.5 205.13 17.49 205.13 17.49 119.93 0.5 119.93 0.5 205.13"/><line class="cls-5" x1="0.5" y1="404.22" x2="3.69" y2="401.02"/><line class="cls-5" x1="0.5" y1="411.45" x2="10.92" y2="401.02"/><line class="cls-5" x1="0.5" y1="418.68" x2="17.49" y2="401.69"/><line class="cls-5" x1="0.5" y1="425.91" x2="17.49" y2="408.92"/><line class="cls-5" x1="0.5" y1="433.14" x2="17.49" y2="416.15"/><line class="cls-5" x1="0.5" y1="440.37" x2="17.49" y2="423.38"/><line class="cls-5" x1="0.5" y1="447.6" x2="17.49" y2="430.55"/><line class="cls-5" x1="0.5" y1="454.83" x2="17.49" y2="437.78"/><line class="cls-5" x1="0.5" y1="462.06" x2="17.49" y2="445.01"/><line class="cls-5" x1="0.5" y1="469.29" x2="17.49" y2="452.24"/><line class="cls-5" x1="0.5" y1="476.52" x2="17.49" y2="459.47"/><line class="cls-5" x1="0.5" y1="483.75" x2="17.49" y2="466.7"/><line class="cls-5" x1="5.2" y1="486.23" x2="17.49" y2="473.93"/><line class="cls-5" x1="12.43" y1="486.23" x2="17.49" y2="481.16"/><line class="cls-5" x1="0.5" y1="407.83" x2="1.58" y2="406.75"/><line class="cls-5" x1="2.49" y1="405.84" x2="2.49" y2="405.84"/><line class="cls-5" x1="3.39" y1="404.94" x2="6.1" y2="402.23"/><line class="cls-5" x1="7.01" y1="401.32" x2="7.01" y2="401.32"/><line class="cls-5" x1="0.5" y1="415.06" x2="0.68" y2="414.88"/><line class="cls-5" x1="1.58" y1="413.98" x2="1.58" y2="413.98"/><line class="cls-5" x1="2.49" y1="413.07" x2="5.2" y2="410.36"/><line class="cls-5" x1="6.1" y1="409.46" x2="6.1" y2="409.46"/><line class="cls-5" x1="7.01" y1="408.55" x2="9.72" y2="405.84"/><line class="cls-5" x1="10.62" y1="404.94" x2="10.62" y2="404.94"/><line class="cls-5" x1="11.53" y1="404.04" x2="14.24" y2="401.32"/><line class="cls-5" x1="0.68" y1="422.05" x2="0.68" y2="422.05"/><line class="cls-5" x1="1.58" y1="421.15" x2="4.3" y2="418.44"/><line class="cls-5" x1="5.2" y1="417.53" x2="5.2" y2="417.53"/><line class="cls-5" x1="6.1" y1="416.69" x2="8.82" y2="413.98"/><line class="cls-5" x1="9.72" y1="413.07" x2="9.72" y2="413.07"/><line class="cls-5" x1="10.62" y1="412.17" x2="13.33" y2="409.46"/><line class="cls-5" x1="14.24" y1="408.55" x2="14.24" y2="408.55"/><line class="cls-5" x1="15.14" y1="407.65" x2="17.49" y2="405.3"/><line class="cls-5" x1="0.68" y1="429.28" x2="3.39" y2="426.57"/><line class="cls-5" x1="4.3" y1="425.67" x2="4.3" y2="425.67"/><line class="cls-5" x1="5.2" y1="424.76" x2="7.91" y2="422.05"/><line class="cls-5" x1="8.82" y1="421.15" x2="8.82" y2="421.15"/><line class="cls-5" x1="9.72" y1="420.24" x2="12.43" y2="417.53"/><line class="cls-5" x1="13.33" y1="416.69" x2="13.33" y2="416.69"/><line class="cls-5" x1="14.24" y1="415.79" x2="16.95" y2="413.07"/><line class="cls-5" x1="0.5" y1="436.75" x2="2.49" y2="434.71"/><line class="cls-5" x1="3.39" y1="433.8" x2="3.39" y2="433.8"/><line class="cls-5" x1="4.3" y1="432.9" x2="7.01" y2="430.19"/><line class="cls-5" x1="7.91" y1="429.28" x2="7.91" y2="429.28"/><line class="cls-5" x1="8.82" y1="428.38" x2="11.53" y2="425.67"/><line class="cls-5" x1="12.43" y1="424.76" x2="12.43" y2="424.76"/><line class="cls-5" x1="13.33" y1="423.86" x2="16.05" y2="421.15"/><line class="cls-5" x1="16.95" y1="420.24" x2="16.95" y2="420.24"/><line class="cls-5" x1="0.5" y1="443.99" x2="1.58" y2="442.84"/><line class="cls-5" x1="2.49" y1="441.94" x2="2.49" y2="441.94"/><line class="cls-5" x1="3.39" y1="441.03" x2="6.1" y2="438.32"/><line class="cls-5" x1="7.01" y1="437.42" x2="7.01" y2="437.42"/><line class="cls-5" x1="7.91" y1="436.51" x2="10.62" y2="433.8"/><line class="cls-5" x1="11.53" y1="432.9" x2="11.53" y2="432.9"/><line class="cls-5" x1="12.43" y1="431.99" x2="15.14" y2="429.28"/><line class="cls-5" x1="16.05" y1="428.38" x2="16.05" y2="428.38"/><line class="cls-5" x1="16.95" y1="427.48" x2="17.49" y2="426.99"/><line class="cls-5" x1="0.5" y1="451.22" x2="0.68" y2="450.98"/><line class="cls-5" x1="1.58" y1="450.07" x2="1.58" y2="450.07"/><line class="cls-5" x1="2.49" y1="449.17" x2="5.2" y2="446.46"/><line class="cls-5" x1="6.1" y1="445.55" x2="6.1" y2="445.55"/><line class="cls-5" x1="7.01" y1="444.65" x2="9.72" y2="441.94"/><line class="cls-5" x1="10.62" y1="441.03" x2="10.62" y2="441.03"/><line class="cls-5" x1="11.53" y1="440.13" x2="14.24" y2="437.42"/><line class="cls-5" x1="15.14" y1="436.51" x2="15.14" y2="436.51"/><line class="cls-5" x1="16.05" y1="435.61" x2="17.49" y2="434.16"/><line class="cls-5" x1="0.68" y1="458.21" x2="0.68" y2="458.21"/><line class="cls-5" x1="1.58" y1="457.3" x2="4.3" y2="454.59"/><line class="cls-5" x1="5.2" y1="453.69" x2="5.2" y2="453.69"/><line class="cls-5" x1="6.1" y1="452.78" x2="8.82" y2="450.07"/><line class="cls-5" x1="9.72" y1="449.17" x2="9.72" y2="449.17"/><line class="cls-5" x1="10.62" y1="448.26" x2="13.33" y2="445.55"/><line class="cls-5" x1="14.24" y1="444.65" x2="14.24" y2="444.65"/><line class="cls-5" x1="15.14" y1="443.74" x2="17.49" y2="441.39"/><line class="cls-5" x1="0.68" y1="465.44" x2="3.39" y2="462.73"/><line class="cls-5" x1="4.3" y1="461.82" x2="4.3" y2="461.82"/><line class="cls-5" x1="5.2" y1="460.92" x2="7.91" y2="458.21"/><line class="cls-5" x1="8.82" y1="457.3" x2="8.82" y2="457.3"/><line class="cls-5" x1="9.72" y1="456.4" x2="12.43" y2="453.69"/><line class="cls-5" x1="13.33" y1="452.78" x2="13.33" y2="452.78"/><line class="cls-5" x1="14.24" y1="451.88" x2="16.95" y2="449.17"/><line class="cls-5" x1="0.5" y1="472.91" x2="2.49" y2="470.86"/><line class="cls-5" x1="3.39" y1="469.96" x2="3.39" y2="469.96"/><line class="cls-5" x1="4.3" y1="469.05" x2="7.01" y2="466.34"/><line class="cls-5" x1="7.91" y1="465.44" x2="7.91" y2="465.44"/><line class="cls-5" x1="8.82" y1="464.53" x2="11.53" y2="461.82"/><line class="cls-5" x1="12.43" y1="460.92" x2="12.43" y2="460.92"/><line class="cls-5" x1="13.33" y1="460.01" x2="16.05" y2="457.3"/><line class="cls-5" x1="16.95" y1="456.4" x2="16.95" y2="456.4"/><line class="cls-5" x1="0.5" y1="480.14" x2="1.58" y2="478.99"/><line class="cls-5" x1="2.49" y1="478.09" x2="2.49" y2="478.09"/><line class="cls-5" x1="3.39" y1="477.19" x2="6.1" y2="474.48"/><line class="cls-5" x1="7.01" y1="473.57" x2="7.01" y2="473.57"/><line class="cls-5" x1="7.91" y1="472.67" x2="10.62" y2="469.96"/><line class="cls-5" x1="11.53" y1="469.05" x2="11.53" y2="469.05"/><line class="cls-5" x1="12.43" y1="468.15" x2="15.14" y2="465.44"/><line class="cls-5" x1="16.05" y1="464.53" x2="16.05" y2="464.53"/><line class="cls-5" x1="16.95" y1="463.63" x2="17.49" y2="463.09"/><line class="cls-5" x1="2.49" y1="485.32" x2="5.2" y2="482.61"/><line class="cls-5" x1="6.1" y1="481.71" x2="6.1" y2="481.71"/><line class="cls-5" x1="7.01" y1="480.8" x2="9.72" y2="478.09"/><line class="cls-5" x1="10.62" y1="477.19" x2="10.62" y2="477.19"/><line class="cls-5" x1="11.53" y1="476.28" x2="14.24" y2="473.57"/><line class="cls-5" x1="15.14" y1="472.67" x2="15.14" y2="472.67"/><line class="cls-5" x1="16.05" y1="471.76" x2="17.49" y2="470.32"/><line class="cls-5" x1="9.72" y1="485.32" x2="9.72" y2="485.32"/><line class="cls-5" x1="10.62" y1="484.42" x2="13.33" y2="481.71"/><line class="cls-5" x1="14.24" y1="480.8" x2="14.24" y2="480.8"/><line class="cls-5" x1="15.14" y1="479.9" x2="17.49" y2="477.55"/><line class="cls-5" x1="16.05" y1="486.23" x2="16.95" y2="485.32"/><polyline class="cls-5" points="17.49 401.02 0.5 401.02 0.5 486.23 17.49 486.23 17.49 401.02"/><line class="cls-5" x1="307.14" y1="126.49" x2="313.65" y2="119.93"/><line class="cls-5" x1="307.14" y1="133.73" x2="320.88" y2="119.93"/><line class="cls-5" x1="307.14" y1="140.96" x2="324.14" y2="123.9"/><line class="cls-5" x1="307.14" y1="148.19" x2="324.14" y2="131.13"/><line class="cls-5" x1="307.14" y1="155.42" x2="324.14" y2="138.36"/><line class="cls-5" x1="307.14" y1="162.65" x2="324.14" y2="145.6"/><line class="cls-5" x1="307.14" y1="169.88" x2="324.14" y2="152.83"/><line class="cls-5" x1="307.14" y1="177.11" x2="324.14" y2="160.06"/><line class="cls-5" x1="307.14" y1="184.34" x2="324.14" y2="167.29"/><line class="cls-5" x1="307.14" y1="191.57" x2="324.14" y2="174.52"/><line class="cls-5" x1="307.14" y1="198.8" x2="324.14" y2="181.75"/><line class="cls-5" x1="307.99" y1="205.13" x2="324.14" y2="188.98"/><line class="cls-5" x1="315.22" y1="205.13" x2="324.14" y2="196.21"/><line class="cls-5" x1="322.45" y1="205.13" x2="324.14" y2="203.44"/><line class="cls-5" x1="307.87" y1="122.1" x2="310.04" y2="119.93"/><line class="cls-5" x1="307.14" y1="130.11" x2="309.68" y2="127.52"/><line class="cls-5" x1="310.58" y1="126.62" x2="310.58" y2="126.62"/><line class="cls-5" x1="311.48" y1="125.71" x2="314.19" y2="123"/><line class="cls-5" x1="315.1" y1="122.1" x2="315.1" y2="122.1"/><line class="cls-5" x1="316" y1="121.19" x2="317.27" y2="119.93"/><line class="cls-5" x1="307.14" y1="137.34" x2="308.77" y2="135.65"/><line class="cls-5" x1="309.68" y1="134.75" x2="309.68" y2="134.75"/><line class="cls-5" x1="310.58" y1="133.85" x2="313.29" y2="131.13"/><line class="cls-5" x1="314.19" y1="130.23" x2="314.19" y2="130.23"/><line class="cls-5" x1="315.1" y1="129.33" x2="317.81" y2="126.62"/><line class="cls-5" x1="318.71" y1="125.71" x2="318.71" y2="125.71"/><line class="cls-5" x1="319.62" y1="124.81" x2="322.33" y2="122.1"/><line class="cls-5" x1="323.23" y1="121.19" x2="323.23" y2="121.19"/><line class="cls-5" x1="324.14" y1="120.35" x2="324.14" y2="120.29"/><line class="cls-5" x1="307.14" y1="144.57" x2="307.87" y2="143.79"/><line class="cls-5" x1="308.77" y1="142.88" x2="308.77" y2="142.88"/><line class="cls-5" x1="309.68" y1="141.98" x2="312.39" y2="139.27"/><line class="cls-5" x1="313.29" y1="138.36" x2="313.29" y2="138.36"/><line class="cls-5" x1="314.19" y1="137.46" x2="316.91" y2="134.75"/><line class="cls-5" x1="317.81" y1="133.85" x2="317.81" y2="133.85"/><line class="cls-5" x1="318.71" y1="132.94" x2="321.43" y2="130.23"/><line class="cls-5" x1="322.33" y1="129.33" x2="322.33" y2="129.33"/><line class="cls-5" x1="323.23" y1="128.42" x2="324.14" y2="127.52"/><line class="cls-5" x1="307.87" y1="151.02" x2="307.87" y2="151.02"/><line class="cls-5" x1="308.77" y1="150.11" x2="311.48" y2="147.4"/><line class="cls-5" x1="312.39" y1="146.5" x2="312.39" y2="146.5"/><line class="cls-5" x1="313.29" y1="145.6" x2="316" y2="142.88"/><line class="cls-5" x1="316.91" y1="141.98" x2="316.91" y2="141.98"/><line class="cls-5" x1="317.81" y1="141.08" x2="320.52" y2="138.36"/><line class="cls-5" x1="321.43" y1="137.46" x2="321.43" y2="137.46"/><line class="cls-5" x1="322.33" y1="136.56" x2="324.14" y2="134.75"/><line class="cls-5" x1="307.87" y1="158.25" x2="310.58" y2="155.54"/><line class="cls-5" x1="311.48" y1="154.63" x2="311.48" y2="154.63"/><line class="cls-5" x1="312.39" y1="153.73" x2="315.1" y2="151.02"/><line class="cls-5" x1="316" y1="150.11" x2="316" y2="150.11"/><line class="cls-5" x1="316.91" y1="149.21" x2="319.62" y2="146.5"/><line class="cls-5" x1="320.52" y1="145.6" x2="320.52" y2="145.6"/><line class="cls-5" x1="321.43" y1="144.69" x2="324.14" y2="141.98"/><line class="cls-5" x1="307.14" y1="166.26" x2="309.68" y2="163.67"/><line class="cls-5" x1="310.58" y1="162.77" x2="310.58" y2="162.77"/><line class="cls-5" x1="311.48" y1="161.86" x2="314.19" y2="159.15"/><line class="cls-5" x1="315.1" y1="158.25" x2="315.1" y2="158.25"/><line class="cls-5" x1="316" y1="157.35" x2="318.71" y2="154.63"/><line class="cls-5" x1="319.62" y1="153.73" x2="319.62" y2="153.73"/><line class="cls-5" x1="320.52" y1="152.83" x2="323.23" y2="150.11"/><line class="cls-5" x1="324.14" y1="149.21" x2="324.14" y2="149.21"/><line class="cls-5" x1="307.14" y1="173.49" x2="308.77" y2="171.81"/><line class="cls-5" x1="309.68" y1="170.9" x2="309.68" y2="170.9"/><line class="cls-5" x1="310.58" y1="170" x2="313.29" y2="167.29"/><line class="cls-5" x1="314.19" y1="166.38" x2="314.19" y2="166.38"/><line class="cls-5" x1="315.1" y1="165.48" x2="317.81" y2="162.77"/><line class="cls-5" x1="318.71" y1="161.86" x2="318.71" y2="161.86"/><line class="cls-5" x1="319.62" y1="160.96" x2="322.33" y2="158.25"/><line class="cls-5" x1="323.23" y1="157.35" x2="323.23" y2="157.35"/><line class="cls-5" x1="324.14" y1="156.44" x2="324.14" y2="156.44"/><line class="cls-5" x1="307.14" y1="180.73" x2="307.87" y2="179.94"/><line class="cls-5" x1="308.77" y1="179.04" x2="308.77" y2="179.04"/><line class="cls-5" x1="309.68" y1="178.13" x2="312.39" y2="175.42"/><line class="cls-5" x1="313.29" y1="174.52" x2="313.29" y2="174.52"/><line class="cls-5" x1="314.19" y1="173.61" x2="316.91" y2="170.9"/><line class="cls-5" x1="317.81" y1="170" x2="317.81" y2="170"/><line class="cls-5" x1="318.71" y1="169.1" x2="321.43" y2="166.38"/><line class="cls-5" x1="322.33" y1="165.48" x2="322.33" y2="165.48"/><line class="cls-5" x1="323.23" y1="164.58" x2="324.14" y2="163.67"/><line class="cls-5" x1="307.87" y1="187.17" x2="307.87" y2="187.17"/><line class="cls-5" x1="308.77" y1="186.27" x2="311.48" y2="183.56"/><line class="cls-5" x1="312.39" y1="182.65" x2="312.39" y2="182.65"/><line class="cls-5" x1="313.29" y1="181.75" x2="316" y2="179.04"/><line class="cls-5" x1="316.91" y1="178.13" x2="316.91" y2="178.13"/><line class="cls-5" x1="317.81" y1="177.23" x2="320.52" y2="174.52"/><line class="cls-5" x1="321.43" y1="173.61" x2="321.43" y2="173.61"/><line class="cls-5" x1="322.33" y1="172.71" x2="324.14" y2="170.9"/><line class="cls-5" x1="307.87" y1="194.4" x2="310.58" y2="191.69"/><line class="cls-5" x1="311.48" y1="190.79" x2="311.48" y2="190.79"/><line class="cls-5" x1="312.39" y1="189.88" x2="315.1" y2="187.17"/><line class="cls-5" x1="316" y1="186.27" x2="316" y2="186.27"/><line class="cls-5" x1="316.91" y1="185.37" x2="319.62" y2="182.65"/><line class="cls-5" x1="320.52" y1="181.75" x2="320.52" y2="181.75"/><line class="cls-5" x1="321.43" y1="180.85" x2="324.14" y2="178.13"/><line class="cls-5" x1="307.14" y1="202.42" x2="309.68" y2="199.83"/><line class="cls-5" x1="310.58" y1="198.92" x2="310.58" y2="198.92"/><line class="cls-5" x1="311.48" y1="198.02" x2="314.19" y2="195.31"/><line class="cls-5" x1="315.1" y1="194.4" x2="315.1" y2="194.4"/><line class="cls-5" x1="316" y1="193.5" x2="318.71" y2="190.79"/><line class="cls-5" x1="319.62" y1="189.88" x2="319.62" y2="189.88"/><line class="cls-5" x1="320.52" y1="188.98" x2="323.23" y2="186.27"/><line class="cls-5" x1="324.14" y1="185.37" x2="324.14" y2="185.37"/><line class="cls-5" x1="311.6" y1="205.13" x2="313.29" y2="203.44"/><line class="cls-5" x1="314.19" y1="202.54" x2="314.19" y2="202.54"/><line class="cls-5" x1="315.1" y1="201.63" x2="317.81" y2="198.92"/><line class="cls-5" x1="318.71" y1="198.02" x2="318.71" y2="198.02"/><line class="cls-5" x1="319.62" y1="197.11" x2="322.33" y2="194.4"/><line class="cls-5" x1="323.23" y1="193.5" x2="323.23" y2="193.5"/><line class="cls-5" x1="324.14" y1="192.6" x2="324.14" y2="192.6"/><line class="cls-5" x1="318.83" y1="205.13" x2="321.43" y2="202.54"/><line class="cls-5" x1="322.33" y1="201.63" x2="322.33" y2="201.63"/><line class="cls-5" x1="323.23" y1="200.73" x2="324.14" y2="199.83"/><polyline class="cls-5" points="307.14 205.13 324.14 205.13 324.14 119.93 307.14 119.93 307.14 205.13"/><line class="cls-5" x1="307.14" y1="386.68" x2="309.8" y2="384.03"/><line class="cls-5" x1="307.14" y1="393.91" x2="317.03" y2="384.03"/><line class="cls-5" x1="307.14" y1="401.14" x2="324.14" y2="384.15"/><line class="cls-5" x1="307.14" y1="408.37" x2="324.14" y2="391.38"/><line class="cls-5" x1="307.14" y1="415.6" x2="324.14" y2="398.61"/><line class="cls-5" x1="307.14" y1="422.84" x2="324.14" y2="405.78"/><line class="cls-5" x1="307.14" y1="430.07" x2="324.14" y2="413.01"/><line class="cls-5" x1="307.14" y1="437.3" x2="324.14" y2="420.24"/><line class="cls-5" x1="307.14" y1="444.53" x2="324.14" y2="427.48"/><line class="cls-5" x1="307.14" y1="451.76" x2="324.14" y2="434.71"/><line class="cls-5" x1="307.14" y1="458.99" x2="324.14" y2="441.94"/><line class="cls-5" x1="307.14" y1="466.22" x2="324.14" y2="449.17"/><line class="cls-5" x1="307.14" y1="473.45" x2="324.14" y2="456.4"/><line class="cls-5" x1="307.14" y1="480.68" x2="324.14" y2="463.63"/><line class="cls-5" x1="308.77" y1="486.23" x2="324.14" y2="470.86"/><line class="cls-5" x1="316" y1="486.23" x2="324.14" y2="478.09"/><line class="cls-5" x1="323.23" y1="486.23" x2="324.14" y2="485.32"/><line class="cls-5" x1="307.14" y1="390.3" x2="308.77" y2="388.67"/><line class="cls-5" x1="309.68" y1="387.77" x2="309.68" y2="387.77"/><line class="cls-5" x1="310.58" y1="386.86" x2="313.29" y2="384.15"/><line class="cls-5" x1="307.14" y1="397.53" x2="307.87" y2="396.8"/><line class="cls-5" x1="308.77" y1="395.9" x2="308.77" y2="395.9"/><line class="cls-5" x1="309.68" y1="395" x2="312.39" y2="392.29"/><line class="cls-5" x1="313.29" y1="391.38" x2="313.29" y2="391.38"/><line class="cls-5" x1="314.19" y1="390.48" x2="316.91" y2="387.77"/><line class="cls-5" x1="317.81" y1="386.86" x2="317.81" y2="386.86"/><line class="cls-5" x1="318.71" y1="385.96" x2="320.64" y2="384.03"/><line class="cls-5" x1="307.87" y1="404.04" x2="307.87" y2="404.04"/><line class="cls-5" x1="308.77" y1="403.13" x2="311.48" y2="400.42"/><line class="cls-5" x1="312.39" y1="399.52" x2="312.39" y2="399.52"/><line class="cls-5" x1="313.29" y1="398.61" x2="316" y2="395.9"/><line class="cls-5" x1="316.91" y1="395" x2="316.91" y2="395"/><line class="cls-5" x1="317.81" y1="394.09" x2="320.52" y2="391.38"/><line class="cls-5" x1="321.43" y1="390.48" x2="321.43" y2="390.48"/><line class="cls-5" x1="322.33" y1="389.57" x2="324.14" y2="387.77"/><line class="cls-5" x1="307.87" y1="411.27" x2="310.58" y2="408.55"/><line class="cls-5" x1="311.48" y1="407.65" x2="311.48" y2="407.65"/><line class="cls-5" x1="312.39" y1="406.75" x2="315.1" y2="404.04"/><line class="cls-5" x1="316" y1="403.13" x2="316" y2="403.13"/><line class="cls-5" x1="316.91" y1="402.23" x2="319.62" y2="399.52"/><line class="cls-5" x1="320.52" y1="398.61" x2="320.52" y2="398.61"/><line class="cls-5" x1="321.43" y1="397.71" x2="324.14" y2="395"/><line class="cls-5" x1="307.14" y1="419.22" x2="309.68" y2="416.69"/><line class="cls-5" x1="310.58" y1="415.79" x2="310.58" y2="415.79"/><line class="cls-5" x1="311.48" y1="414.88" x2="314.19" y2="412.17"/><line class="cls-5" x1="315.1" y1="411.27" x2="315.1" y2="411.27"/><line class="cls-5" x1="316" y1="410.36" x2="318.71" y2="407.65"/><line class="cls-5" x1="319.62" y1="406.75" x2="319.62" y2="406.75"/><line class="cls-5" x1="320.52" y1="405.84" x2="323.23" y2="403.13"/><line class="cls-5" x1="324.14" y1="402.23" x2="324.14" y2="402.23"/><line class="cls-5" x1="307.14" y1="426.45" x2="308.77" y2="424.76"/><line class="cls-5" x1="309.68" y1="423.86" x2="309.68" y2="423.86"/><line class="cls-5" x1="310.58" y1="422.96" x2="313.29" y2="420.24"/><line class="cls-5" x1="314.19" y1="419.34" x2="314.19" y2="419.34"/><line class="cls-5" x1="315.1" y1="418.44" x2="317.81" y2="415.79"/><line class="cls-5" x1="318.71" y1="414.88" x2="318.71" y2="414.88"/><line class="cls-5" x1="319.62" y1="413.98" x2="322.33" y2="411.27"/><line class="cls-5" x1="323.23" y1="410.36" x2="323.23" y2="410.36"/><line class="cls-5" x1="324.14" y1="409.46" x2="324.14" y2="409.4"/><line class="cls-5" x1="307.14" y1="433.68" x2="307.87" y2="432.9"/><line class="cls-5" x1="308.77" y1="431.99" x2="308.77" y2="431.99"/><line class="cls-5" x1="309.68" y1="431.09" x2="312.39" y2="428.38"/><line class="cls-5" x1="313.29" y1="427.48" x2="313.29" y2="427.48"/><line class="cls-5" x1="314.19" y1="426.57" x2="316.91" y2="423.86"/><line class="cls-5" x1="317.81" y1="422.96" x2="317.81" y2="422.96"/><line class="cls-5" x1="318.71" y1="422.05" x2="321.43" y2="419.34"/><line class="cls-5" x1="322.33" y1="418.44" x2="322.33" y2="418.44"/><line class="cls-5" x1="323.23" y1="417.53" x2="324.14" y2="416.63"/><line class="cls-5" x1="307.87" y1="440.13" x2="307.87" y2="440.13"/><line class="cls-5" x1="308.77" y1="439.23" x2="311.48" y2="436.51"/><line class="cls-5" x1="312.39" y1="435.61" x2="312.39" y2="435.61"/><line class="cls-5" x1="313.29" y1="434.71" x2="316" y2="431.99"/><line class="cls-5" x1="316.91" y1="431.09" x2="316.91" y2="431.09"/><line class="cls-5" x1="317.81" y1="430.19" x2="320.52" y2="427.48"/><line class="cls-5" x1="321.43" y1="426.57" x2="321.43" y2="426.57"/><line class="cls-5" x1="322.33" y1="425.67" x2="324.14" y2="423.86"/><line class="cls-5" x1="307.87" y1="447.36" x2="310.58" y2="444.65"/><line class="cls-5" x1="311.48" y1="443.74" x2="311.48" y2="443.74"/><line class="cls-5" x1="312.39" y1="442.84" x2="315.1" y2="440.13"/><line class="cls-5" x1="316" y1="439.23" x2="316" y2="439.23"/><line class="cls-5" x1="316.91" y1="438.32" x2="319.62" y2="435.61"/><line class="cls-5" x1="320.52" y1="434.71" x2="320.52" y2="434.71"/><line class="cls-5" x1="321.43" y1="433.8" x2="324.14" y2="431.09"/><line class="cls-5" x1="307.14" y1="455.37" x2="309.68" y2="452.78"/><line class="cls-5" x1="310.58" y1="451.88" x2="310.58" y2="451.88"/><line class="cls-5" x1="311.48" y1="450.98" x2="314.19" y2="448.26"/><line class="cls-5" x1="315.1" y1="447.36" x2="315.1" y2="447.36"/><line class="cls-5" x1="316" y1="446.46" x2="318.71" y2="443.74"/><line class="cls-5" x1="319.62" y1="442.84" x2="319.62" y2="442.84"/><line class="cls-5" x1="320.52" y1="441.94" x2="323.23" y2="439.23"/><line class="cls-5" x1="324.14" y1="438.32" x2="324.14" y2="438.32"/><line class="cls-5" x1="307.14" y1="462.6" x2="308.77" y2="460.92"/><line class="cls-5" x1="309.68" y1="460.01" x2="309.68" y2="460.01"/><line class="cls-5" x1="310.58" y1="459.11" x2="313.29" y2="456.4"/><line class="cls-5" x1="314.19" y1="455.49" x2="314.19" y2="455.49"/><line class="cls-5" x1="315.1" y1="454.59" x2="317.81" y2="451.88"/><line class="cls-5" x1="318.71" y1="450.98" x2="318.71" y2="450.98"/><line class="cls-5" x1="319.62" y1="450.07" x2="322.33" y2="447.36"/><line class="cls-5" x1="323.23" y1="446.46" x2="323.23" y2="446.46"/><line class="cls-5" x1="324.14" y1="445.55" x2="324.14" y2="445.55"/><line class="cls-5" x1="307.14" y1="469.84" x2="307.87" y2="469.05"/><line class="cls-5" x1="308.77" y1="468.15" x2="308.77" y2="468.15"/><line class="cls-5" x1="309.68" y1="467.24" x2="312.39" y2="464.53"/><line class="cls-5" x1="313.29" y1="463.63" x2="313.29" y2="463.63"/><line class="cls-5" x1="314.19" y1="462.73" x2="316.91" y2="460.01"/><line class="cls-5" x1="317.81" y1="459.11" x2="317.81" y2="459.11"/><line class="cls-5" x1="318.71" y1="458.21" x2="321.43" y2="455.49"/><line class="cls-5" x1="322.33" y1="454.59" x2="322.33" y2="454.59"/><line class="cls-5" x1="323.23" y1="453.69" x2="324.14" y2="452.78"/><line class="cls-5" x1="307.87" y1="476.28" x2="307.87" y2="476.28"/><line class="cls-5" x1="308.77" y1="475.38" x2="311.48" y2="472.67"/><line class="cls-5" x1="312.39" y1="471.76" x2="312.39" y2="471.76"/><line class="cls-5" x1="313.29" y1="470.86" x2="316" y2="468.15"/><line class="cls-5" x1="316.91" y1="467.24" x2="316.91" y2="467.24"/><line class="cls-5" x1="317.81" y1="466.34" x2="320.52" y2="463.63"/><line class="cls-5" x1="321.43" y1="462.73" x2="321.43" y2="462.73"/><line class="cls-5" x1="322.33" y1="461.82" x2="324.14" y2="460.01"/><line class="cls-5" x1="307.87" y1="483.51" x2="310.58" y2="480.8"/><line class="cls-5" x1="311.48" y1="479.9" x2="311.48" y2="479.9"/><line class="cls-5" x1="312.39" y1="478.99" x2="315.1" y2="476.28"/><line class="cls-5" x1="316" y1="475.38" x2="316" y2="475.38"/><line class="cls-5" x1="316.91" y1="474.48" x2="319.62" y2="471.76"/><line class="cls-5" x1="320.52" y1="470.86" x2="320.52" y2="470.86"/><line class="cls-5" x1="321.43" y1="469.96" x2="324.14" y2="467.24"/><line class="cls-5" x1="312.39" y1="486.23" x2="314.19" y2="484.42"/><line class="cls-5" x1="315.1" y1="483.51" x2="315.1" y2="483.51"/><line class="cls-5" x1="316" y1="482.61" x2="318.71" y2="479.9"/><line class="cls-5" x1="319.62" y1="478.99" x2="319.62" y2="478.99"/><line class="cls-5" x1="320.52" y1="478.09" x2="323.23" y2="475.38"/><line class="cls-5" x1="324.14" y1="474.48" x2="324.14" y2="474.48"/><line class="cls-5" x1="319.62" y1="486.23" x2="322.33" y2="483.51"/><line class="cls-5" x1="323.23" y1="482.61" x2="323.23" y2="482.61"/><line class="cls-5" x1="324.14" y1="481.71" x2="324.14" y2="481.71"/><polyline class="cls-5" points="324.14 384.03 307.14 384.03 307.14 486.23 324.14 486.23 324.14 384.03"/><line class="cls-5" x1="221.94" y1="703.21" x2="225.92" y2="699.17"/><line class="cls-5" x1="221.94" y1="710.38" x2="233.15" y2="699.17"/><line class="cls-5" x1="223.33" y1="716.22" x2="240.38" y2="699.17"/><line class="cls-5" x1="230.56" y1="716.22" x2="247.61" y2="699.17"/><line class="cls-5" x1="237.79" y1="716.22" x2="254.84" y2="699.17"/><line class="cls-5" x1="245.02" y1="716.22" x2="262.07" y2="699.17"/><line class="cls-5" x1="252.25" y1="716.22" x2="269.3" y2="699.17"/><line class="cls-5" x1="259.48" y1="716.22" x2="276.53" y2="699.17"/><line class="cls-5" x1="266.71" y1="716.22" x2="283.77" y2="699.17"/><line class="cls-5" x1="273.94" y1="716.22" x2="291" y2="699.17"/><line class="cls-5" x1="281.17" y1="716.22" x2="298.23" y2="699.17"/><line class="cls-5" x1="288.41" y1="716.22" x2="305.46" y2="699.17"/><line class="cls-5" x1="295.64" y1="716.22" x2="312.69" y2="699.17"/><line class="cls-5" x1="302.87" y1="716.22" x2="319.92" y2="699.17"/><line class="cls-5" x1="310.1" y1="716.22" x2="324.14" y2="702.12"/><line class="cls-5" x1="317.33" y1="716.22" x2="324.14" y2="709.35"/><line class="cls-5" x1="221.94" y1="699.59" x2="222.06" y2="699.47"/><line class="cls-5" x1="222.06" y1="706.7" x2="222.06" y2="706.7"/><line class="cls-5" x1="222.97" y1="705.8" x2="225.68" y2="703.09"/><line class="cls-5" x1="226.58" y1="702.18" x2="226.58" y2="702.18"/><line class="cls-5" x1="227.49" y1="701.28" x2="229.53" y2="699.17"/><line class="cls-5" x1="222.06" y1="713.87" x2="224.77" y2="711.22"/><line class="cls-5" x1="225.68" y1="710.32" x2="225.68" y2="710.32"/><line class="cls-5" x1="226.58" y1="709.41" x2="229.29" y2="706.7"/><line class="cls-5" x1="230.2" y1="705.8" x2="230.2" y2="705.8"/><line class="cls-5" x1="231.1" y1="704.9" x2="233.81" y2="702.18"/><line class="cls-5" x1="234.72" y1="701.28" x2="234.72" y2="701.28"/><line class="cls-5" x1="235.62" y1="700.38" x2="236.77" y2="699.17"/><line class="cls-5" x1="226.94" y1="716.22" x2="228.39" y2="714.78"/><line class="cls-5" x1="229.29" y1="713.87" x2="229.29" y2="713.87"/><line class="cls-5" x1="230.2" y1="713.03" x2="232.91" y2="710.32"/><line class="cls-5" x1="233.81" y1="709.41" x2="233.81" y2="709.41"/><line class="cls-5" x1="234.72" y1="708.51" x2="237.43" y2="705.8"/><line class="cls-5" x1="238.33" y1="704.9" x2="238.33" y2="704.9"/><line class="cls-5" x1="239.24" y1="703.99" x2="241.95" y2="701.28"/><line class="cls-5" x1="242.85" y1="700.38" x2="242.85" y2="700.38"/><line class="cls-5" x1="243.76" y1="699.47" x2="244" y2="699.17"/><line class="cls-5" x1="234.17" y1="716.22" x2="236.52" y2="713.87"/><line class="cls-5" x1="237.43" y1="713.03" x2="237.43" y2="713.03"/><line class="cls-5" x1="238.33" y1="712.13" x2="241.04" y2="709.41"/><line class="cls-5" x1="241.95" y1="708.51" x2="241.95" y2="708.51"/><line class="cls-5" x1="242.85" y1="707.61" x2="245.56" y2="704.9"/><line class="cls-5" x1="246.47" y1="703.99" x2="246.47" y2="703.99"/><line class="cls-5" x1="247.37" y1="703.09" x2="250.08" y2="700.38"/><line class="cls-5" x1="250.99" y1="699.47" x2="250.99" y2="699.47"/><line class="cls-5" x1="241.95" y1="715.68" x2="244.66" y2="713.03"/><line class="cls-5" x1="245.56" y1="712.13" x2="245.56" y2="712.13"/><line class="cls-5" x1="246.47" y1="711.22" x2="249.18" y2="708.51"/><line class="cls-5" x1="250.08" y1="707.61" x2="250.08" y2="707.61"/><line class="cls-5" x1="250.99" y1="706.7" x2="253.7" y2="703.99"/><line class="cls-5" x1="254.6" y1="703.09" x2="254.6" y2="703.09"/><line class="cls-5" x1="255.51" y1="702.18" x2="258.22" y2="699.47"/><line class="cls-5" x1="249.18" y1="715.68" x2="249.18" y2="715.68"/><line class="cls-5" x1="250.08" y1="714.78" x2="252.79" y2="712.13"/><line class="cls-5" x1="253.7" y1="711.22" x2="253.7" y2="711.22"/><line class="cls-5" x1="254.6" y1="710.32" x2="257.31" y2="707.61"/><line class="cls-5" x1="258.22" y1="706.7" x2="258.22" y2="706.7"/><line class="cls-5" x1="259.12" y1="705.8" x2="261.83" y2="703.09"/><line class="cls-5" x1="262.74" y1="702.18" x2="262.74" y2="702.18"/><line class="cls-5" x1="263.64" y1="701.28" x2="265.69" y2="699.17"/><line class="cls-5" x1="255.87" y1="716.22" x2="256.41" y2="715.68"/><line class="cls-5" x1="257.31" y1="714.78" x2="257.31" y2="714.78"/><line class="cls-5" x1="258.22" y1="713.87" x2="260.93" y2="711.22"/><line class="cls-5" x1="261.83" y1="710.32" x2="261.83" y2="710.32"/><line class="cls-5" x1="262.74" y1="709.41" x2="265.45" y2="706.7"/><line class="cls-5" x1="266.35" y1="705.8" x2="266.35" y2="705.8"/><line class="cls-5" x1="267.25" y1="704.9" x2="269.97" y2="702.18"/><line class="cls-5" x1="270.87" y1="701.28" x2="270.87" y2="701.28"/><line class="cls-5" x1="271.77" y1="700.38" x2="272.92" y2="699.17"/><line class="cls-5" x1="263.1" y1="716.22" x2="264.54" y2="714.78"/><line class="cls-5" x1="265.45" y1="713.87" x2="265.45" y2="713.87"/><line class="cls-5" x1="266.35" y1="713.03" x2="269.06" y2="710.32"/><line class="cls-5" x1="269.97" y1="709.41" x2="269.97" y2="709.41"/><line class="cls-5" x1="270.87" y1="708.51" x2="273.58" y2="705.8"/><line class="cls-5" x1="274.49" y1="704.9" x2="274.49" y2="704.9"/><line class="cls-5" x1="275.39" y1="703.99" x2="278.04" y2="701.28"/><line class="cls-5" x1="278.94" y1="700.38" x2="278.94" y2="700.38"/><line class="cls-5" x1="279.85" y1="699.47" x2="280.15" y2="699.17"/><line class="cls-5" x1="270.33" y1="716.22" x2="272.68" y2="713.87"/><line class="cls-5" x1="273.58" y1="713.03" x2="273.58" y2="713.03"/><line class="cls-5" x1="274.49" y1="712.13" x2="277.2" y2="709.41"/><line class="cls-5" x1="278.04" y1="708.51" x2="278.04" y2="708.51"/><line class="cls-5" x1="278.94" y1="707.61" x2="281.66" y2="704.9"/><line class="cls-5" x1="282.56" y1="703.99" x2="282.56" y2="703.99"/><line class="cls-5" x1="283.46" y1="703.09" x2="286.18" y2="700.38"/><line class="cls-5" x1="287.08" y1="699.47" x2="287.08" y2="699.47"/><line class="cls-5" x1="278.04" y1="715.68" x2="280.75" y2="713.03"/><line class="cls-5" x1="281.66" y1="712.13" x2="281.66" y2="712.13"/><line class="cls-5" x1="282.56" y1="711.22" x2="285.27" y2="708.51"/><line class="cls-5" x1="286.18" y1="707.61" x2="286.18" y2="707.61"/><line class="cls-5" x1="287.08" y1="706.7" x2="289.79" y2="703.99"/><line class="cls-5" x1="290.69" y1="703.09" x2="290.69" y2="703.09"/><line class="cls-5" x1="291.6" y1="702.18" x2="294.31" y2="699.47"/><line class="cls-5" x1="285.27" y1="715.68" x2="285.27" y2="715.68"/><line class="cls-5" x1="286.18" y1="714.78" x2="288.89" y2="712.13"/><line class="cls-5" x1="289.79" y1="711.22" x2="289.79" y2="711.22"/><line class="cls-5" x1="290.69" y1="710.32" x2="293.41" y2="707.61"/><line class="cls-5" x1="294.31" y1="706.7" x2="294.31" y2="706.7"/><line class="cls-5" x1="295.21" y1="705.8" x2="297.93" y2="703.09"/><line class="cls-5" x1="298.83" y1="702.18" x2="298.83" y2="702.18"/><line class="cls-5" x1="299.73" y1="701.28" x2="301.84" y2="699.17"/><line class="cls-5" x1="292.02" y1="716.22" x2="292.5" y2="715.68"/><line class="cls-5" x1="293.41" y1="714.78" x2="293.41" y2="714.78"/><line class="cls-5" x1="294.31" y1="713.87" x2="297.02" y2="711.22"/><line class="cls-5" x1="297.93" y1="710.32" x2="297.93" y2="710.32"/><line class="cls-5" x1="298.83" y1="709.41" x2="301.54" y2="706.7"/><line class="cls-5" x1="302.44" y1="705.8" x2="302.44" y2="705.8"/><line class="cls-5" x1="303.35" y1="704.9" x2="306.06" y2="702.18"/><line class="cls-5" x1="306.96" y1="701.28" x2="306.96" y2="701.28"/><line class="cls-5" x1="307.87" y1="700.38" x2="309.07" y2="699.17"/><line class="cls-5" x1="299.25" y1="716.22" x2="300.64" y2="714.78"/><line class="cls-5" x1="301.54" y1="713.87" x2="301.54" y2="713.87"/><line class="cls-5" x1="302.44" y1="713.03" x2="305.16" y2="710.32"/><line class="cls-5" x1="306.06" y1="709.41" x2="306.06" y2="709.41"/><line class="cls-5" x1="306.96" y1="708.51" x2="309.68" y2="705.8"/><line class="cls-5" x1="310.58" y1="704.9" x2="310.58" y2="704.9"/><line class="cls-5" x1="311.48" y1="703.99" x2="314.19" y2="701.28"/><line class="cls-5" x1="315.1" y1="700.38" x2="315.1" y2="700.38"/><line class="cls-5" x1="316" y1="699.47" x2="316.3" y2="699.17"/><line class="cls-5" x1="306.48" y1="716.22" x2="308.77" y2="713.87"/><line class="cls-5" x1="309.68" y1="713.03" x2="309.68" y2="713.03"/><line class="cls-5" x1="310.58" y1="712.13" x2="313.29" y2="709.41"/><line class="cls-5" x1="314.19" y1="708.51" x2="314.19" y2="708.51"/><line class="cls-5" x1="315.1" y1="707.61" x2="317.81" y2="704.9"/><line class="cls-5" x1="318.71" y1="703.99" x2="318.71" y2="703.99"/><line class="cls-5" x1="319.62" y1="703.09" x2="322.33" y2="700.38"/><line class="cls-5" x1="323.23" y1="699.47" x2="323.23" y2="699.47"/><line class="cls-5" x1="314.19" y1="715.68" x2="316.91" y2="713.03"/><line class="cls-5" x1="317.81" y1="712.13" x2="317.81" y2="712.13"/><line class="cls-5" x1="318.71" y1="711.22" x2="321.43" y2="708.51"/><line class="cls-5" x1="322.33" y1="707.61" x2="322.33" y2="707.61"/><line class="cls-5" x1="323.23" y1="706.7" x2="324.14" y2="705.74"/><line class="cls-5" x1="321.43" y1="715.68" x2="321.43" y2="715.68"/><line class="cls-5" x1="322.33" y1="714.78" x2="324.14" y2="712.97"/><polyline class="cls-5" points="221.94 716.22 221.94 699.17 324.14 699.17 324.14 716.22 221.94 716.22"/><text class="cls-6" transform="translate(147.01 293.87)">CT</text><text class="cls-6" transform="translate(129.25 330.84)">21.45</text><text class="cls-6" transform="translate(125.56 257.45)">№199</text><polyline class="cls-7" points="117.42 340.2 117.42 231.43 208.13 231.43 208.13 340.2"/><line class="cls-7" x1="117.42" y1="267.75" x2="208.12" y2="267.75"/><line class="cls-7" x1="117.42" y1="340.2" x2="208.12" y2="340.2"/><line class="cls-7" x1="117.42" y1="304.08" x2="208.12" y2="304.08"/><text class="cls-8" transform="translate(57.22 591.92)">3.45</text><text class="cls-8" transform="translate(187.4 591.92)">3.85</text><text class="cls-8" transform="translate(187.4 402.23)">2.20</text><text class="cls-8" transform="translate(133.56 183.05)">11.95</text></svg>