<svg id="_14_2" data-name="14_2" xmlns="http://www.w3.org/2000/svg" viewBox="0 0 791.08 1618.15"><defs><style>.cls-1{isolation:isolate;font-size:12px;fill:#969696;}.cls-1,.cls-6,.cls-8,.cls-9{font-family:PTSans-Regular, PT Sans;}.cls-2{letter-spacing:-0.01em;}.cls-10,.cls-3,.cls-4,.cls-5,.cls-7{fill:none;stroke-linecap:round;stroke-linejoin:round;}.cls-3{stroke:#969696;stroke-width:0.75px;}.cls-10,.cls-4,.cls-5,.cls-7{stroke:#000;}.cls-4,.cls-5{stroke-width:0.25px;}.cls-5{stroke-dasharray:0.99 0.99;}.cls-6{font-size:36px;}.cls-7{stroke-width:1.5px;}.cls-8{font-size:50px;}.cls-9{font-size:40px;}</style></defs><text class="cls-1" transform="translate(387.4 1614.95)"><tspan class="cls-2">у</tspan><tspan x="5.42" y="0">лица</tspan></text><line class="cls-3" x1="376.64" y1="1617.77" x2="376.64" y2="1608.97"/><polyline class="cls-3" points="373.14 1614.27 376.64 1617.77 380.14 1614.27"/><text class="cls-1" transform="translate(389.97 10.2)">двор</text><line class="cls-3" x1="379.21" y1="4.22" x2="379.21" y2="13.02"/><polyline class="cls-3" points="382.71 7.72 379.21 4.22 375.71 7.72"/><line class="cls-4" x1="428.54" y1="453.79" x2="428.54" y2="454.29"/><line class="cls-5" x1="428.54" y1="455.29" x2="428.54" y2="561.97"/><line class="cls-4" x1="428.54" y1="562.47" x2="428.54" y2="562.97"/><line class="cls-4" x1="436.23" y1="453.79" x2="436.23" y2="454.29"/><line class="cls-5" x1="436.23" y1="455.29" x2="436.23" y2="561.97"/><line class="cls-4" x1="436.23" y1="562.47" x2="436.23" y2="562.97"/><text class="cls-6" transform="translate(321.33 1362.36)">89.94</text><text class="cls-6" transform="translate(161.99 305.01)">18.47</text><text class="cls-6" transform="translate(526.44 515.08)">6.56</text><line class="cls-7" x1="0.75" y1="1567" x2="19.89" y2="1567"/><line class="cls-7" x1="0.75" y1="1566.04" x2="19.89" y2="1566.04"/><line class="cls-7" x1="0.75" y1="1560.27" x2="0.75" y2="1527.75"/><line class="cls-7" x1="0.75" y1="1578.45" x2="0.75" y2="1567"/><line class="cls-7" x1="0.75" y1="1566.04" x2="0.75" y2="1560.27"/><line class="cls-7" x1="0.75" y1="1527.75" x2="0.75" y2="1527.75"/><polyline class="cls-7" points="0.75 1578.45 19.89 1578.45 19.89 1567"/><line class="cls-7" x1="19.89" y1="1566.04" x2="19.89" y2="1546.9"/><line class="cls-7" x1="0.75" y1="1578.45" x2="0.75" y2="1578.45"/><line class="cls-7" x1="0.75" y1="1527.75" x2="0.75" y2="1527.75"/><polyline class="cls-7" points="0.75 1560.27 0.75 1560.27 0.75 1564.12 0.75 1564.12 0.75 1566.04 0.75 1566.04"/><polyline class="cls-7" points="0.75 1566.04 0.75 1566.04 0.75 1564.12 0.75 1564.12 0.75 1560.27 0.75 1560.27"/><line class="cls-7" x1="0.75" y1="1566.04" x2="0.75" y2="1566.04"/><polyline class="cls-7" points="0.75 1558.39 0.75 1558.39 0.75 1558.39"/><polyline class="cls-7" points="0.75 1558.39 0.75 1564.12 0.75 1564.12 0.75 1558.39"/><polyline class="cls-7" points="0.75 1564.12 0.75 1564.12 0.75 1558.39 0.75 1558.39 0.75 1564.12"/><line class="cls-7" x1="0.75" y1="1564.12" x2="0.75" y2="1564.12"/><line class="cls-7" x1="0.75" y1="1558.39" x2="0.75" y2="1558.39"/><line class="cls-7" x1="0.75" y1="1561.23" x2="0.75" y2="1561.23"/><polyline class="cls-7" points="0.75 1560.27 0.75 1560.27 0.75 1564.12 0.75 1564.12 0.75 1566.04 0.75 1566.04"/><line class="cls-7" x1="0.75" y1="1566.04" x2="0.75" y2="1566.04"/><polyline class="cls-7" points="0.75 1558.39 0.75 1558.39 0.75 1558.39"/><polyline class="cls-7" points="0.75 1558.39 0.75 1564.12 0.75 1564.12 0.75 1558.39"/><line class="cls-7" x1="0.75" y1="1564.12" x2="0.75" y2="1564.12"/><line class="cls-7" x1="0.75" y1="1558.39" x2="0.75" y2="1558.39"/><line class="cls-7" x1="0.75" y1="1561.23" x2="0.75" y2="1561.23"/><polyline class="cls-7" points="0.75 1560.27 0.75 1566.04 0.75 1560.27"/><polyline class="cls-7" points="0.75 1566.04 0.75 1566.04 0.75 1566.04"/><polyline class="cls-7" points="0.75 1578.45 0.75 1567 0.75 1566.04"/><line class="cls-7" x1="0.75" y1="1560.27" x2="0.75" y2="1527.75"/><line class="cls-7" x1="24.66" y1="1567" x2="95.97" y2="1567"/><line class="cls-7" x1="719.02" y1="1567" x2="790.33" y2="1567"/><line class="cls-7" x1="345.76" y1="1567" x2="469.23" y2="1567"/><line class="cls-7" x1="24.66" y1="1566.04" x2="92.12" y2="1566.04"/><line class="cls-7" x1="722.87" y1="1566.04" x2="790.33" y2="1566.04"/><line class="cls-7" x1="349.61" y1="1566.04" x2="465.38" y2="1566.04"/><line class="cls-7" x1="92.12" y1="1560.27" x2="92.12" y2="1527.75"/><line class="cls-7" x1="95.97" y1="1578.45" x2="95.97" y2="1567"/><line class="cls-7" x1="92.12" y1="1566.04" x2="92.12" y2="1560.27"/><line class="cls-7" x1="349.61" y1="1560.27" x2="349.61" y2="1527.75"/><line class="cls-7" x1="345.76" y1="1578.45" x2="345.76" y2="1567"/><line class="cls-7" x1="349.61" y1="1566.04" x2="349.61" y2="1560.27"/><line class="cls-7" x1="465.38" y1="1560.27" x2="465.38" y2="1527.75"/><line class="cls-7" x1="469.23" y1="1578.45" x2="469.23" y2="1567"/><line class="cls-7" x1="465.38" y1="1566.04" x2="465.38" y2="1560.27"/><line class="cls-7" x1="722.87" y1="1560.27" x2="722.87" y2="1527.75"/><line class="cls-7" x1="719.02" y1="1578.45" x2="719.02" y2="1567"/><line class="cls-7" x1="722.87" y1="1566.04" x2="722.87" y2="1560.27"/><line class="cls-7" x1="24.66" y1="1578.45" x2="95.97" y2="1578.45"/><line class="cls-7" x1="345.76" y1="1578.45" x2="469.23" y2="1578.45"/><polyline class="cls-7" points="719.02 1578.45 790.34 1578.45 790.34 1499.04"/><line class="cls-7" x1="790.33" y1="1527.75" x2="790.33" y2="1527.75"/><line class="cls-7" x1="756.86" y1="1527.75" x2="722.87" y2="1527.75"/><line class="cls-7" x1="465.38" y1="1527.75" x2="349.61" y2="1527.75"/><line class="cls-7" x1="92.12" y1="1527.75" x2="72.52" y2="1527.75"/><line class="cls-7" x1="24.66" y1="1578.45" x2="24.66" y2="1567"/><line class="cls-7" x1="24.66" y1="1566.04" x2="24.66" y2="1546.9"/><line class="cls-7" x1="345.76" y1="1578.45" x2="95.97" y2="1578.45"/><line class="cls-7" x1="349.61" y1="1527.75" x2="92.12" y2="1527.75"/><polyline class="cls-7" points="349.61 1560.27 341.96 1560.27 341.96 1566.04 349.61 1566.04"/><polyline class="cls-7" points="264.72 1566.04 268.57 1566.04 268.57 1560.27 264.72 1560.27"/><line class="cls-7" x1="341.96" y1="1563.15" x2="268.57" y2="1563.15"/><line class="cls-7" x1="341.96" y1="1560.27" x2="268.57" y2="1560.27"/><line class="cls-7" x1="268.57" y1="1566.04" x2="341.96" y2="1566.04"/><polyline class="cls-7" points="264.72 1560.27 263.3 1560.27 263.3 1564.12 260.92 1564.12 260.92 1566.04 264.72 1566.04"/><polyline class="cls-7" points="177 1566.04 180.85 1566.04 180.85 1564.12 178.42 1564.12 178.42 1560.27 177 1560.27"/><line class="cls-7" x1="180.85" y1="1566.04" x2="260.92" y2="1566.04"/><polyline class="cls-7" points="263.3 1558.39 257.53 1558.39 184.19 1558.39"/><polyline class="cls-7" points="257.53 1558.39 257.53 1564.12 263.3 1564.12 263.3 1558.39"/><polyline class="cls-7" points="178.42 1564.12 184.19 1564.12 184.19 1558.39 178.42 1558.39 178.42 1564.12"/><line class="cls-7" x1="184.19" y1="1564.12" x2="257.53" y2="1564.12"/><line class="cls-7" x1="257.53" y1="1558.39" x2="184.19" y2="1558.39"/><line class="cls-7" x1="257.53" y1="1561.23" x2="184.19" y2="1561.23"/><polyline class="cls-7" points="177 1560.27 173.15 1560.27 173.15 1566.04 177 1566.04"/><polyline class="cls-7" points="92.12 1566.04 99.77 1566.04 99.77 1560.27 92.12 1560.27"/><line class="cls-7" x1="173.15" y1="1563.15" x2="99.76" y2="1563.15"/><line class="cls-7" x1="173.15" y1="1560.27" x2="99.76" y2="1560.27"/><line class="cls-7" x1="99.76" y1="1566.04" x2="173.15" y2="1566.04"/><polyline class="cls-7" points="349.61 1560.27 349.61 1566.04 349.61 1560.27"/><polyline class="cls-7" points="349.61 1566.04 345.76 1566.04 349.61 1566.04"/><polyline class="cls-7" points="345.76 1578.45 345.76 1567 345.76 1566.04"/><line class="cls-7" x1="349.61" y1="1560.27" x2="349.61" y2="1527.75"/><polyline class="cls-7" points="92.12 1560.27 92.12 1566.04 92.12 1560.27"/><polyline class="cls-7" points="92.12 1566.04 95.97 1566.04 92.12 1566.04"/><polyline class="cls-7" points="95.97 1578.45 95.97 1567 95.97 1566.04"/><line class="cls-7" x1="92.12" y1="1560.27" x2="92.12" y2="1527.75"/><line class="cls-7" x1="719.02" y1="1578.45" x2="469.23" y2="1578.45"/><line class="cls-7" x1="722.87" y1="1527.75" x2="465.38" y2="1527.75"/><polyline class="cls-7" points="722.87 1560.27 715.23 1560.27 715.23 1566.04 722.87 1566.04"/><polyline class="cls-7" points="637.99 1566.04 641.84 1566.04 641.84 1560.27 637.99 1560.27"/><line class="cls-7" x1="715.23" y1="1563.15" x2="641.84" y2="1563.15"/><line class="cls-7" x1="715.23" y1="1560.27" x2="641.84" y2="1560.27"/><line class="cls-7" x1="641.84" y1="1566.04" x2="715.23" y2="1566.04"/><polyline class="cls-7" points="637.99 1560.27 636.57 1560.27 636.57 1564.12 634.19 1564.12 634.19 1566.04 637.99 1566.04"/><polyline class="cls-7" points="550.27 1566.04 554.12 1566.04 554.12 1564.12 551.69 1564.12 551.69 1560.27 550.27 1560.27"/><line class="cls-7" x1="554.12" y1="1566.04" x2="634.19" y2="1566.04"/><polyline class="cls-7" points="636.57 1558.39 630.85 1558.39 557.46 1558.39"/><polyline class="cls-7" points="630.85 1558.39 630.85 1564.12 636.57 1564.12 636.57 1558.39"/><polyline class="cls-7" points="551.69 1564.12 557.46 1564.12 557.46 1558.39 551.69 1558.39 551.69 1564.12"/><line class="cls-7" x1="557.46" y1="1564.12" x2="630.85" y2="1564.12"/><line class="cls-7" x1="630.85" y1="1558.39" x2="557.46" y2="1558.39"/><line class="cls-7" x1="630.85" y1="1561.23" x2="557.46" y2="1561.23"/><polyline class="cls-7" points="550.27 1560.27 546.42 1560.27 546.42 1566.04 550.27 1566.04"/><polyline class="cls-7" points="465.38 1566.04 473.08 1566.04 473.08 1560.27 465.38 1560.27"/><line class="cls-7" x1="546.42" y1="1563.15" x2="473.08" y2="1563.15"/><line class="cls-7" x1="546.42" y1="1560.27" x2="473.08" y2="1560.27"/><line class="cls-7" x1="473.08" y1="1566.04" x2="546.42" y2="1566.04"/><polyline class="cls-7" points="722.87 1560.27 722.87 1566.04 722.87 1560.27"/><polyline class="cls-7" points="722.87 1566.04 719.02 1566.04 722.87 1566.04"/><polyline class="cls-7" points="719.02 1578.45 719.02 1567 719.02 1566.04"/><line class="cls-7" x1="722.87" y1="1560.27" x2="722.87" y2="1527.75"/><polyline class="cls-7" points="465.38 1560.27 465.38 1566.04 465.38 1560.27"/><polyline class="cls-7" points="465.38 1566.04 469.23 1566.04 465.38 1566.04"/><polyline class="cls-7" points="469.23 1578.45 469.23 1567 469.23 1566.04"/><line class="cls-7" x1="465.38" y1="1560.27" x2="465.38" y2="1527.75"/><line class="cls-7" x1="0.75" y1="73.88" x2="0.75" y2="92.07"/><line class="cls-7" x1="0.75" y1="68.16" x2="0.75" y2="73.88"/><polyline class="cls-7" points="0.75 92.06 0.75 92.06 0.75 68.16"/><polyline class="cls-7" points="0.75 68.16 0.75 68.16 0.75 70.03 0.75 70.03 0.75 73.88 0.75 73.88"/><polyline class="cls-7" points="0.75 70.03 0.75 70.03 0.75 75.81 0.75 75.81 0.75 70.03"/><polyline class="cls-7" points="0.75 73.88 0.75 68.16 0.75 73.88"/><polyline class="cls-7" points="0.75 68.16 0.75 68.16 0.75 68.16"/><polyline class="cls-7" points="0.75 57.63 0.75 58.59 0.75 68.16"/><line class="cls-7" x1="0.75" y1="73.88" x2="0.75" y2="92.07"/><polyline class="cls-7" points="43.8 52.81 43.8 53.78 43.8 52.81"/><polyline class="cls-7" points="24.66 52.81 43.8 52.81 55.65 52.81 43.8 52.81"/><polyline class="cls-7" points="43.8 53.78 43.8 92.06 43.8 53.78"/><line class="cls-7" x1="43.8" y1="53.78" x2="24.66" y2="53.78"/><polyline class="cls-7" points="59.09 41.37 24.66 41.37 24.66 52.81"/><line class="cls-7" x1="24.66" y1="53.78" x2="24.66" y2="72.92"/><line class="cls-7" x1="19.89" y1="52.81" x2="0.75" y2="52.81"/><line class="cls-7" x1="19.89" y1="53.78" x2="0.75" y2="53.78"/><line class="cls-7" x1="19.89" y1="41.37" x2="0.75" y2="41.37"/><polyline class="cls-7" points="0.75 68.16 0.75 92.06 0.75 92.06"/><line class="cls-7" x1="19.89" y1="41.37" x2="19.89" y2="52.81"/><line class="cls-7" x1="19.89" y1="53.78" x2="19.89" y2="72.92"/><polyline class="cls-7" points="263.91 92.06 263.91 221.26 292.63 221.26 292.63 92.06 263.91 92.06"/><polyline class="cls-7" points="292.63 92.06 292.63 221.26 321.35 221.26 321.35 92.06 292.63 92.06"/><polyline class="cls-7" points="321.35 92.06 321.35 221.26 350.06 221.26 350.06 92.06 321.35 92.06"/><polyline class="cls-7" points="350.06 92.06 350.06 221.26 378.78 221.26 378.78 92.06 350.06 92.06"/><polyline class="cls-7" points="378.78 92.06 378.78 221.26 407.5 221.26 407.5 92.06 378.78 92.06"/><polyline class="cls-7" points="407.5 92.06 407.5 221.26 436.21 221.26 436.21 92.06 407.5 92.06"/><polyline class="cls-7" points="436.21 92.06 436.21 221.26 464.93 221.26 464.93 92.06 436.21 92.06"/><polyline class="cls-7" points="464.93 92.06 464.93 221.26 493.64 221.26 493.64 92.06 464.93 92.06"/><polyline class="cls-7" points="493.64 92.06 493.64 221.26 522.36 221.26 522.36 92.06 493.64 92.06"/><polyline class="cls-7" points="522.36 92.06 522.36 221.26 551.08 221.26 551.08 92.06 522.36 92.06"/><polyline class="cls-7" points="551.08 92.06 551.08 221.26 579.8 221.26 579.8 92.06 551.08 92.06"/><polyline class="cls-7" points="579.8 92.06 579.8 221.26 608.51 221.26 608.51 92.06 579.8 92.06"/><polyline class="cls-7" points="579.8 369.61 551.08 369.61 551.08 240.41 579.8 240.41 579.8 369.61 579.8 240.41 608.51 240.41 608.51 369.61 771.19 369.61 771.19 92.06 608.51 92.06 608.51 221.26 641.99 221.26 641.99 240.41 608.51 240.41 608.51 369.61 579.8 369.61"/><polyline class="cls-7" points="551.08 369.61 551.08 240.41 522.36 240.41 522.36 369.61 551.08 369.61"/><polyline class="cls-7" points="522.36 369.61 522.36 240.41 493.64 240.41 493.64 369.61 522.36 369.61"/><polyline class="cls-7" points="493.64 369.61 493.64 240.41 464.93 240.41 464.93 369.61 493.64 369.61"/><polyline class="cls-7" points="464.93 369.61 464.93 240.41 436.21 240.41 436.21 369.61 464.93 369.61"/><polyline class="cls-7" points="436.21 369.61 436.21 240.41 407.5 240.41 407.5 369.61 436.21 369.61"/><polyline class="cls-7" points="407.5 369.61 407.5 240.41 378.78 240.41 378.78 369.61 407.5 369.61"/><polyline class="cls-7" points="378.78 369.61 378.78 240.41 350.06 240.41 350.06 369.61 378.78 369.61"/><polyline class="cls-7" points="350.06 369.61 350.06 240.41 321.35 240.41 321.35 369.61 350.06 369.61"/><polyline class="cls-7" points="321.35 369.61 321.35 240.41 292.63 240.41 292.63 369.61 321.35 369.61"/><polyline class="cls-7" points="292.63 369.61 292.63 240.41 263.91 240.41 263.91 369.61 292.63 369.61"/><polyline class="cls-4" points="263.91 156.69 292.63 156.69 608.51 156.69 687.47 156.69 687.47 305.04 608.51 305.04 292.63 305.04 263.91 305.04 283.06 328.94"/><line class="cls-7" x1="283.06" y1="281.08" x2="263.91" y2="305.04"/><polyline class="cls-7" points="790.34 369.61 790.34 369.61 790.34 92.06 790.34 92.06"/><polyline class="cls-7" points="637.23 239.45 641.03 239.45 641.03 222.23 608.51 222.23 263.91 222.23 263.91 226.08 608.51 226.08 637.23 226.08 637.23 235.65 263.91 235.65 263.91 239.45 637.23 239.45 641.03 239.45 641.03 222.23 608.51 222.23 263.91 222.23 263.91 226.08 608.51 226.08 637.23 226.08 637.23 235.65 263.91 235.65 263.91 239.45 637.23 239.45"/><line class="cls-7" x1="0.75" y1="168.64" x2="0.75" y2="388.75"/><line class="cls-7" x1="0.75" y1="484.48" x2="0.75" y2="851.46"/><line class="cls-7" x1="0.75" y1="742.93" x2="0.75" y2="1135.34"/><line class="cls-7" x1="0.75" y1="1231.06" x2="0.75" y2="1451.17"/><line class="cls-7" x1="19.89" y1="1451.17" x2="19.89" y2="1231.06"/><line class="cls-7" x1="19.89" y1="1135.34" x2="19.89" y2="742.93"/><line class="cls-7" x1="19.89" y1="851.46" x2="19.89" y2="484.48"/><line class="cls-7" x1="19.89" y1="388.75" x2="19.89" y2="168.64"/><line class="cls-7" x1="771.19" y1="168.64" x2="771.19" y2="369.61"/><line class="cls-7" x1="790.33" y1="369.61" x2="790.33" y2="168.64"/><line class="cls-7" x1="771.19" y1="589.77" x2="436.21" y2="589.77"/><polyline class="cls-7" points="428.56 597.42 771.19 597.42 771.19 589.77"/><line class="cls-7" x1="436.21" y1="455.81" x2="428.56" y2="455.81"/><line class="cls-7" x1="436.21" y1="553.46" x2="428.56" y2="553.46"/><line class="cls-7" x1="428.56" y1="388.75" x2="428.56" y2="455.81"/><polyline class="cls-7" points="428.56 597.42 428.56 589.77 428.56 553.46"/><line class="cls-7" x1="436.21" y1="589.77" x2="436.21" y2="553.46"/><polyline class="cls-7" points="436.21 455.81 436.21 388.75 428.56 388.75"/><line class="cls-7" x1="436.21" y1="553.46" x2="428.56" y2="553.46"/><line class="cls-7" x1="436.21" y1="455.81" x2="428.56" y2="455.81"/><polyline class="cls-7" points="725.25 398.33 729.1 398.33 732.9 398.33"/><polyline class="cls-7" points="725.25 436.62 729.1 436.62 732.9 436.62"/><line class="cls-7" x1="725.25" y1="388.75" x2="725.25" y2="398.33"/><line class="cls-7" x1="725.25" y1="436.62" x2="725.25" y2="546.72"/><line class="cls-7" x1="732.9" y1="539.02" x2="732.9" y2="444.31"/><polyline class="cls-7" points="732.9 398.33 732.9 388.75 725.25 388.75"/><line class="cls-7" x1="725.25" y1="436.62" x2="725.25" y2="398.33"/><line class="cls-7" x1="732.9" y1="436.62" x2="732.9" y2="398.33"/><path class="cls-7" d="M712.19,462.61a38.24,38.24,0,0,0,13.09,2.31" transform="translate(0 -28.35)"/><line class="cls-7" x1="725.25" y1="398.33" x2="712.19" y2="434.34"/><polyline class="cls-7" points="732.9 436.62 729.1 436.62 725.25 436.62 729.1 436.62"/><polyline class="cls-7" points="732.9 398.33 729.1 398.33 725.25 398.33 729.1 398.33"/><polyline class="cls-7" points="732.9 444.31 771.19 444.31 771.19 436.62 732.9 436.62"/><line class="cls-7" x1="790.33" y1="597.42" x2="790.33" y2="597.42"/><polyline class="cls-7" points="790.34 589.77 790.34 589.77 790.34 597.42"/><polyline class="cls-7" points="790.34 436.62 790.34 436.62 790.34 444.31 790.34 444.31"/><polyline class="cls-7" points="725.25 546.72 732.9 546.72 771.19 546.72 771.19 539.02 732.9 539.02"/><polyline class="cls-7" points="790.34 513.19 790.34 513.19 790.34 520.84"/><line class="cls-7" x1="790.33" y1="520.84" x2="790.33" y2="520.84"/><polyline class="cls-7" points="771.19 369.61 428.56 369.61 428.56 388.75"/><polyline class="cls-7" points="790.34 388.75 771.19 388.75 428.56 388.75"/><line class="cls-7" x1="790.33" y1="872.13" x2="790.33" y2="369.61"/><line class="cls-7" x1="790.33" y1="388.75" x2="790.33" y2="388.75"/><polyline class="cls-7" points="263 52.81 263.91 52.81 263 52.81"/><polyline class="cls-7" points="263.91 52.81 270.8 52.81 263.91 52.81"/><line class="cls-7" x1="263.91" y1="52.81" x2="263.91" y2="187.48"/><polyline class="cls-7" points="278.3 201.87 278.3 92.06 297.44 92.06 278.3 92.06 278.3 63.91 278.3 92.06"/><line class="cls-7" x1="297.44" y1="221.01" x2="297.44" y2="92.07"/><line class="cls-7" x1="263" y1="41.37" x2="263" y2="52.81"/><line class="cls-7" x1="263" y1="52.81" x2="263" y2="186.52"/><line class="cls-7" x1="61.02" y1="49.98" x2="61.02" y2="52.81"/><polyline class="cls-7" points="61.02 41.37 61.02 45.17 61.02 49.98"/><line class="cls-7" x1="261.07" y1="49.98" x2="261.07" y2="52.81"/><polyline class="cls-7" points="263 41.37 261.07 41.37 261.07 45.17 261.07 49.98"/><polyline class="cls-7" points="61.02 41.37 59.09 41.37 59.09 52.81 61.02 52.81"/><polyline class="cls-7" points="261.07 52.81 263 52.81 263 41.37"/><line class="cls-7" x1="261.07" y1="41.37" x2="61.02" y2="41.37"/><line class="cls-7" x1="261.07" y1="52.81" x2="61.02" y2="52.81"/><polyline class="cls-7" points="261.07 45.17 256.26 45.17 256.26 49.98 261.07 49.98"/><polyline class="cls-7" points="61.02 49.98 65.83 49.98 65.83 45.17 61.02 45.17"/><line class="cls-7" x1="256.26" y1="47.55" x2="65.83" y2="47.55"/><line class="cls-7" x1="256.26" y1="45.17" x2="65.83" y2="45.17"/><line class="cls-7" x1="65.83" y1="49.98" x2="256.26" y2="49.98"/><polyline class="cls-7" points="261.07 49.98 261.07 45.17 261.07 49.98"/><line class="cls-7" x1="261.07" y1="41.37" x2="261.07" y2="45.17"/><line class="cls-7" x1="261.07" y1="49.98" x2="261.07" y2="52.81"/><polyline class="cls-7" points="61.02 49.98 61.02 45.17 61.02 49.98"/><line class="cls-7" x1="61.02" y1="41.37" x2="61.02" y2="45.17"/><line class="cls-7" x1="61.02" y1="49.98" x2="61.02" y2="52.81"/><line class="cls-7" x1="790.33" y1="695.07" x2="790.33" y2="695.07"/><polyline class="cls-7" points="790.34 687.42 790.34 687.42 790.34 695.07"/><polyline class="cls-7" points="790.34 723.78 790.34 723.78 790.34 731.43"/><line class="cls-7" x1="790.33" y1="731.43" x2="790.33" y2="731.43"/><line class="cls-7" x1="771.19" y1="388.75" x2="771.19" y2="872.13"/><line class="cls-7" x1="771.19" y1="919.99" x2="771.19" y2="1499.04"/><line class="cls-7" x1="790.33" y1="1499.04" x2="790.33" y2="919.99"/><polyline class="cls-7" points="790.34 872.13 790.34 388.75 771.19 388.75"/><line class="cls-7" x1="43.8" y1="369.61" x2="43.8" y2="168.64"/><line class="cls-7" x1="24.66" y1="168.64" x2="24.66" y2="388.75"/><polyline class="cls-7" points="43.8 369.61 43.8 388.75 43.8 369.61"/><line class="cls-7" x1="85.89" y1="383.99" x2="85.89" y2="373.46"/><polyline class="cls-7" points="210.33 373.46 210.33 369.61 213.87 369.61"/><polyline class="cls-7" points="210.33 388.75 210.33 383.99 210.33 388.75 213.87 388.75"/><line class="cls-7" x1="210.33" y1="383.99" x2="210.33" y2="373.46"/><line class="cls-7" x1="428.56" y1="369.61" x2="210.33" y2="369.61"/><line class="cls-7" x1="85.89" y1="369.61" x2="43.8" y2="369.61"/><polyline class="cls-7" points="24.66 388.75 43.8 388.75 85.89 388.75"/><polyline class="cls-7" points="210.33 388.75 428.56 388.75 428.56 369.61"/><line class="cls-7" x1="210.33" y1="388.75" x2="210.17" y2="388.75"/><line class="cls-7" x1="210.33" y1="369.61" x2="210.17" y2="369.61"/><path class="cls-7" d="M174.77,401.79a85,85,0,0,0-85-85" transform="translate(0 -28.35)"/><path class="cls-7" d="M206.55,370a31.78,31.78,0,0,0-31.78,31.78" transform="translate(0 -28.35)"/><polyline class="cls-7" points="210.33 383.99 206.53 383.99 206.53 373.46 210.33 373.46 210.33 383.99"/><polyline class="cls-7" points="85.89 373.46 89.74 373.46 89.74 383.99 85.89 383.99 85.89 373.46"/><line class="cls-7" x1="89.74" y1="373.46" x2="89.74" y2="288.47"/><line class="cls-7" x1="206.53" y1="373.46" x2="206.53" y2="341.7"/><polyline class="cls-7" points="210.33 373.46 210.33 383.99 210.33 373.46"/><polyline class="cls-7" points="210.33 383.99 210.33 388.75 210.33 383.99"/><line class="cls-7" x1="210.33" y1="373.46" x2="210.33" y2="369.61"/><polyline class="cls-7" points="210.33 388.75 213.87 388.75 210.33 388.75 210.33 383.99"/><polyline class="cls-7" points="210.33 373.46 210.33 369.61 213.87 369.61 210.33 369.61"/><polyline class="cls-7" points="85.89 369.61 85.89 388.75 85.89 373.46"/><line class="cls-7" x1="790.33" y1="52.81" x2="767.39" y2="52.81"/><line class="cls-7" x1="542.47" y1="52.81" x2="278.29" y2="52.81"/><polyline class="cls-7" points="270.8 52.81 278.3 52.81 278.3 53.78 278.3 52.81 270.8 52.81"/><line class="cls-7" x1="790.33" y1="53.78" x2="771.19" y2="53.78"/><line class="cls-7" x1="538.62" y1="53.78" x2="278.29" y2="53.78"/><polyline class="cls-7" points="278.3 53.78 278.3 63.91 278.3 53.78"/><line class="cls-7" x1="767.39" y1="42.79" x2="790.33" y2="42.79"/><line class="cls-7" x1="790.33" y1="60.46" x2="790.33" y2="92.07"/><line class="cls-7" x1="790.33" y1="42.79" x2="790.33" y2="52.81"/><line class="cls-7" x1="790.33" y1="53.78" x2="790.33" y2="60.46"/><line class="cls-7" x1="771.19" y1="60.46" x2="771.19" y2="92.07"/><line class="cls-7" x1="767.39" y1="42.79" x2="767.39" y2="52.81"/><line class="cls-7" x1="771.19" y1="53.78" x2="771.19" y2="60.46"/><line class="cls-7" x1="538.62" y1="60.46" x2="538.62" y2="92.07"/><line class="cls-7" x1="542.47" y1="41.37" x2="542.47" y2="52.81"/><line class="cls-7" x1="538.62" y1="53.78" x2="538.62" y2="60.46"/><line class="cls-7" x1="297.44" y1="92.07" x2="538.62" y2="92.07"/><line class="cls-7" x1="542.47" y1="41.37" x2="263" y2="41.37"/><polyline class="cls-7" points="790.34 41.37 790.34 41.37 767.39 41.37 767.39 42.79 790.34 42.79 790.34 41.37 767.39 41.37"/><line class="cls-7" x1="790.33" y1="92.07" x2="790.33" y2="92.07"/><polyline class="cls-7" points="790.34 60.46 790.34 60.46 790.34 53.78 790.34 53.78"/><line class="cls-7" x1="790.33" y1="57.12" x2="790.33" y2="57.12"/><line class="cls-7" x1="790.33" y1="53.78" x2="790.33" y2="53.78"/><line class="cls-7" x1="790.33" y1="60.46" x2="790.33" y2="60.46"/><polyline class="cls-7" points="790.34 60.46 790.34 53.78 790.34 60.46"/><polyline class="cls-7" points="790.34 53.78 790.34 53.78 790.34 53.78"/><polyline class="cls-7" points="790.34 41.37 790.34 52.81 790.34 53.78"/><line class="cls-7" x1="790.33" y1="60.46" x2="790.33" y2="92.07"/><line class="cls-7" x1="542.47" y1="41.37" x2="767.39" y2="41.37"/><line class="cls-7" x1="538.62" y1="92.07" x2="771.19" y2="92.07"/><polyline class="cls-7" points="538.62 53.78 547.23 53.78 547.23 60.46 538.62 60.46"/><polyline class="cls-7" points="654.9 60.46 650.6 60.46 650.6 53.78 654.9 53.78"/><line class="cls-7" x1="547.23" y1="57.12" x2="650.6" y2="57.12"/><line class="cls-7" x1="547.23" y1="53.78" x2="650.6" y2="53.78"/><line class="cls-7" x1="650.6" y1="60.46" x2="547.23" y2="60.46"/><polyline class="cls-7" points="654.9 53.78 659.21 53.78 659.21 60.46 654.9 60.46"/><polyline class="cls-7" points="771.19 60.46 762.58 60.46 762.58 53.78 771.19 53.78"/><line class="cls-7" x1="659.21" y1="57.12" x2="762.58" y2="57.12"/><line class="cls-7" x1="659.21" y1="53.78" x2="762.58" y2="53.78"/><line class="cls-7" x1="762.58" y1="60.46" x2="659.21" y2="60.46"/><polyline class="cls-7" points="538.62 60.46 538.62 53.78 538.62 60.46"/><polyline class="cls-7" points="538.62 53.78 542.47 53.78 538.62 53.78"/><polyline class="cls-7" points="542.47 41.37 542.47 52.81 542.47 53.78"/><line class="cls-7" x1="538.62" y1="60.46" x2="538.62" y2="92.07"/><polyline class="cls-7" points="771.19 60.46 771.19 53.78 771.19 60.46"/><polyline class="cls-7" points="771.19 53.78 767.39 53.78 771.19 53.78"/><polyline class="cls-7" points="767.39 41.37 767.39 52.81 767.39 53.78"/><line class="cls-7" x1="771.19" y1="60.46" x2="771.19" y2="92.07"/><polyline class="cls-7" points="263.91 187.48 263 187.48 263.91 187.48"/><polyline class="cls-7" points="59.09 187.48 58.69 187.48 59.09 187.48"/><polyline class="cls-7" points="278.3 201.87 263.91 201.87 278.3 201.87"/><line class="cls-7" x1="263" y1="187.48" x2="203.64" y2="187.48"/><line class="cls-7" x1="108.88" y1="187.48" x2="59.1" y2="187.48"/><polyline class="cls-7" points="58.13 201.87 52.31 201.87 58.13 201.87"/><line class="cls-7" x1="263.91" y1="201.87" x2="206.53" y2="201.87"/><line class="cls-7" x1="105.99" y1="201.87" x2="58.13" y2="201.87"/><polyline class="cls-7" points="109.84 201.87 109.84 186.52 108.88 186.52"/><line class="cls-7" x1="108.88" y1="201.87" x2="109.84" y2="201.87"/><line class="cls-7" x1="108.88" y1="187.48" x2="108.88" y2="201.87"/><polyline class="cls-7" points="202.68 201.87 202.68 186.52 203.64 186.52"/><line class="cls-7" x1="203.64" y1="201.87" x2="202.68" y2="201.87"/><line class="cls-7" x1="203.64" y1="187.48" x2="203.64" y2="201.87"/><line class="cls-7" x1="105.99" y1="209.52" x2="105.99" y2="221.01"/><line class="cls-7" x1="108.88" y1="201.87" x2="105.99" y2="201.87"/><line class="cls-7" x1="105.99" y1="201.87" x2="105.99" y2="209.52"/><line class="cls-7" x1="206.53" y1="209.52" x2="206.53" y2="221.01"/><line class="cls-7" x1="203.64" y1="201.87" x2="206.53" y2="201.87"/><line class="cls-7" x1="206.53" y1="201.87" x2="206.53" y2="209.52"/><line class="cls-7" x1="43.8" y1="221.01" x2="105.99" y2="221.01"/><polyline class="cls-7" points="297.44 221.01 278.3 221.01 206.53 221.01"/><line class="cls-7" x1="263" y1="186.52" x2="203.64" y2="186.52"/><line class="cls-7" x1="108.88" y1="186.52" x2="59.1" y2="186.52"/><path class="cls-7" d="M188.18,281.38a87.07,87.07,0,0,0,11.66-43.54" transform="translate(0 -28.35)"/><line class="cls-7" x1="203.64" y1="209.52" x2="206.53" y2="209.52"/><line class="cls-7" x1="203.64" y1="201.87" x2="206.53" y2="201.87"/><line class="cls-7" x1="108.88" y1="209.52" x2="105.99" y2="209.52"/><line class="cls-7" x1="108.88" y1="201.87" x2="105.99" y2="201.87"/><line class="cls-7" x1="203.64" y1="201.87" x2="199.79" y2="201.87"/><line class="cls-7" x1="199.79" y1="201.87" x2="199.79" y2="209.52"/><line class="cls-7" x1="199.79" y1="209.52" x2="203.64" y2="209.52"/><line class="cls-7" x1="203.64" y1="209.52" x2="203.64" y2="201.87"/><line class="cls-7" x1="108.88" y1="209.52" x2="112.73" y2="209.52"/><line class="cls-7" x1="112.73" y1="209.52" x2="112.73" y2="201.87"/><line class="cls-7" x1="112.73" y1="201.87" x2="108.88" y2="201.87"/><line class="cls-7" x1="108.88" y1="201.87" x2="108.88" y2="209.52"/><line class="cls-7" x1="112.73" y1="209.52" x2="188.14" y2="253.07"/><line class="cls-7" x1="203.64" y1="201.87" x2="206.53" y2="201.87"/><line class="cls-7" x1="203.64" y1="201.87" x2="206.53" y2="201.87"/><line class="cls-7" x1="108.88" y1="201.87" x2="105.99" y2="201.87"/><line class="cls-7" x1="108.88" y1="201.87" x2="105.99" y2="201.87"/><line class="cls-7" x1="202.68" y1="201.87" x2="202.68" y2="186.52"/><line class="cls-7" x1="109.84" y1="201.87" x2="109.84" y2="186.52"/><polyline class="cls-7" points="0.75 41.37 0.75 41.37 0.75 68.16 0.75 68.16 0.75 52.81"/><line class="cls-7" x1="710.57" y1="453.38" x2="676.78" y2="453.38"/><polyline class="cls-7" points="712.59 451.96 725.25 451.96 725.25 488.33"/><line class="cls-7" x1="704.64" y1="470.14" x2="704.64" y2="483.62"/><polyline class="cls-7" points="676.78 453.38 704.64 456.62 704.64 470.14"/><line class="cls-7" x1="676.78" y1="486.86" x2="704.64" y2="483.62"/><line class="cls-7" x1="676.78" y1="454.24" x2="704.64" y2="457.48"/><line class="cls-7" x1="676.78" y1="486" x2="704.64" y2="482.75"/><line class="cls-7" x1="710.57" y1="486.86" x2="676.78" y2="486.86"/><line class="cls-7" x1="725.25" y1="488.33" x2="712.59" y2="488.33"/><polyline class="cls-7" points="676.78 453.38 673.04 453.89 669.54 455.3 666.4 457.58 663.92 460.62 662.15 464.17 661.24 468.12 661.24 472.17 662.15 476.07 663.92 479.67 666.4 482.7 669.54 484.98 673.04 486.4 676.78 486.86"/><polyline class="cls-7" points="676.78 454.24 673.24 454.7 669.95 456.06 667.01 458.24 664.63 461.13 662.96 464.52 662.1 468.22 662.1 472.07 662.96 475.77 664.63 479.16 667.01 482.05 669.95 484.22 673.24 485.54 676.78 486"/><path class="cls-7" d="M710.52,482.16a154.45,154.45,0,0,0,0,32.6" transform="translate(0 -28.35)"/><path class="cls-7" d="M712.62,480.26a2.14,2.14,0,0,0-2.14,1.88" transform="translate(0 -28.35)"/><path class="cls-7" d="M710.48,514.74a2.13,2.13,0,0,0,2.14,1.89" transform="translate(0 -28.35)"/><path class="cls-7" d="M719.07,498.47a1.8,1.8,0,1,0-1.79,1.75,1.77,1.77,0,0,0,1.79-1.75" transform="translate(0 -28.35)"/><polyline class="cls-7" points="521.75 410.63 521.75 388.75 470.1 388.75 470.1 410.63"/><line class="cls-7" x1="487.77" y1="388.75" x2="504.08" y2="388.75"/><line class="cls-7" x1="491.57" y1="406.33" x2="494.35" y2="406.33"/><line class="cls-7" x1="495.92" y1="401.97" x2="495.92" y2="404.71"/><line class="cls-7" x1="497.55" y1="406.33" x2="500.28" y2="406.33"/><line class="cls-7" x1="495.92" y1="407.9" x2="495.92" y2="410.68"/><path class="cls-7" d="M518.58,440.33a23,23,0,0,0-8.93-10.88" transform="translate(0 -28.35)"/><path class="cls-7" d="M509.7,429.42A23,23,0,0,0,496,426.2" transform="translate(0 -28.35)"/><path class="cls-7" d="M482.25,429.45a23,23,0,0,0-8.93,10.88" transform="translate(0 -28.35)"/><path class="cls-7" d="M496,426.2a23,23,0,0,0-13.72,3.22" transform="translate(0 -28.35)"/><path class="cls-7" d="M497.75,456.29A42.44,42.44,0,0,0,513.44,452" transform="translate(0 -28.35)"/><path class="cls-7" d="M470.11,439a13.14,13.14,0,0,0,4.9,10.81" transform="translate(0 -28.35)"/><path class="cls-7" d="M494.14,456.3a27.33,27.33,0,0,0,3.62,0" transform="translate(0 -28.35)"/><path class="cls-7" d="M510.42,430.28a94.18,94.18,0,0,0-28.93,0" transform="translate(0 -28.35)"/><path class="cls-7" d="M478.8,421.24a32.41,32.41,0,0,0-7.33,21.12" transform="translate(0 -28.35)"/><path class="cls-7" d="M495.93,418.17a65.13,65.13,0,0,0-14.79,1.6" transform="translate(0 -28.35)"/><path class="cls-7" d="M481.17,419.75a4.27,4.27,0,0,0-2.4,1.48" transform="translate(0 -28.35)"/><path class="cls-7" d="M495.93,420.2a111,111,0,0,0-14.57,1.05" transform="translate(0 -28.35)"/><path class="cls-7" d="M478.76,422.64a29.22,29.22,0,0,0-7.3,19.69" transform="translate(0 -28.35)"/><path class="cls-7" d="M481.38,421.2a4.33,4.33,0,0,0-2.66,1.43" transform="translate(0 -28.35)"/><path class="cls-7" d="M520.49,442.34a29.26,29.26,0,0,0-7.32-19.68" transform="translate(0 -28.35)"/><path class="cls-7" d="M520.43,442.31a32.47,32.47,0,0,0-7.35-21.11" transform="translate(0 -28.35)"/><path class="cls-7" d="M510.48,421.23a109.06,109.06,0,0,0-14.56-1" transform="translate(0 -28.35)"/><path class="cls-7" d="M510.73,419.7a65.2,65.2,0,0,0-14.8-1.58" transform="translate(0 -28.35)"/><path class="cls-7" d="M513.17,422.62a4.34,4.34,0,0,0-2.65-1.42" transform="translate(0 -28.35)"/><path class="cls-7" d="M513.13,421.17a4.45,4.45,0,0,0-2.4-1.48" transform="translate(0 -28.35)"/><path class="cls-7" d="M516.89,449.77a13.14,13.14,0,0,0,4.9-10.81" transform="translate(0 -28.35)"/><path class="cls-7" d="M513.46,452a20.4,20.4,0,0,0,3.44-2.22" transform="translate(0 -28.35)"/><path class="cls-7" d="M475,449.81a20.4,20.4,0,0,0,3.44,2.22" transform="translate(0 -28.35)"/><path class="cls-7" d="M478.46,452a42.44,42.44,0,0,0,15.69,4.27" transform="translate(0 -28.35)"/><path class="cls-7" d="M488.84,452.63a30.51,30.51,0,0,0,14.22,0" transform="translate(0 -28.35)"/><path class="cls-7" d="M515.94,446.68a7.74,7.74,0,0,0,2.66-6.37" transform="translate(0 -28.35)"/><path class="cls-7" d="M503.05,452.64a28,28,0,0,0,12.88-5.91" transform="translate(0 -28.35)"/><path class="cls-7" d="M473.3,440.31a7.74,7.74,0,0,0,2.66,6.37" transform="translate(0 -28.35)"/><path class="cls-7" d="M476,446.73a28,28,0,0,0,12.88,5.91" transform="translate(0 -28.35)"/><path class="cls-7" d="M499.32,434.66A3.37,3.37,0,1,0,496,438a3.37,3.37,0,0,0,3.37-3.36" transform="translate(0 -28.35)"/><path class="cls-7" d="M498.36,434.66a2.41,2.41,0,1,0-2.41,2.4,2.41,2.41,0,0,0,2.41-2.4" transform="translate(0 -28.35)"/><polyline class="cls-7" points="72.52 1546.9 24.66 1546.9 24.66 1499.04 72.52 1499.04 72.52 1546.9"/><polyline class="cls-7" points="756.86 919.99 790.34 919.99 790.34 872.13 756.86 872.13 756.86 919.99"/><polyline class="cls-7" points="756.86 1546.9 790.34 1546.9 790.34 1499.04 756.86 1499.04 756.86 1546.9"/><polyline class="cls-7" points="24.66 919.99 72.52 919.99 72.52 872.13 24.66 872.13 24.66 919.99"/><polyline class="cls-7" points="58.69 187.48 58.13 187.48 58.69 187.48"/><polyline class="cls-7" points="59.09 52.81 58.13 52.81 59.09 52.81"/><polyline class="cls-7" points="52.31 201.87 43.8 201.87 52.31 201.87"/><line class="cls-7" x1="58.13" y1="187.48" x2="58.13" y2="52.81"/><polyline class="cls-7" points="58.13 52.81 55.65 52.81 58.13 52.81"/><line class="cls-7" x1="43.8" y1="221.01" x2="43.8" y2="201.87"/><line class="cls-7" x1="43.8" y1="92.07" x2="43.8" y2="201.87"/><line class="cls-7" x1="59.1" y1="41.37" x2="59.1" y2="52.81"/><line class="cls-7" x1="59.1" y1="186.52" x2="59.1" y2="52.81"/><polyline class="cls-7" points="19.89 72.92 0.75 72.92 0.75 168.64 19.89 168.64 19.89 72.92"/><polyline class="cls-7" points="19.89 388.75 0.75 388.75 0.75 484.48 19.89 484.48 19.89 388.75"/><polyline class="cls-7" points="19.89 1451.17 0.75 1451.17 0.75 1546.9 19.89 1546.9 19.89 1451.17"/><line class="cls-7" x1="17.97" y1="1499.04" x2="27.54" y2="1499.04"/><polyline class="cls-7" points="19.89 388.75 0.75 388.75 0.75 484.48 19.89 484.48 19.89 388.75"/><polyline class="cls-7" points="19.89 1135.34 0.75 1135.34 0.75 1231.06 19.89 1231.06 19.89 1135.34"/><polyline class="cls-7" points="19.89 1451.17 0.75 1451.17 0.75 1546.9 19.89 1546.9 19.89 1451.17"/><polyline class="cls-7" points="43.8 72.92 24.66 72.92 24.66 92.06 24.66 168.64"/><polyline class="cls-7" points="790.34 168.64 790.34 92.06 790.34 72.92 771.19 72.92 771.19 92.06 771.19 168.64"/><text class="cls-8" transform="translate(311.6 926.54)">№14</text><text class="cls-9" transform="translate(305.65 980.27)">228.45</text><polyline class="cls-10" points="294.42 996.93 294.42 872.13 434.42 872.13 434.42 996.93"/><line class="cls-10" x1="294.42" y1="996.93" x2="434.42" y2="996.93"/><line class="cls-10" x1="294.42" y1="941.18" x2="434.42" y2="941.18"/></svg>