<svg id="_662" data-name="662" xmlns="http://www.w3.org/2000/svg" viewBox="0 0 354.12 736.06"><defs><style>.cls-1{isolation:isolate;font-size:12px;fill:#969696;}.cls-1,.cls-7,.cls-8,.cls-9{font-family:PTSans-Regular, PT Sans;}.cls-10,.cls-11,.cls-2,.cls-3,.cls-4,.cls-5,.cls-6{fill:none;stroke-linecap:round;stroke-linejoin:round;}.cls-2{stroke:#969696;stroke-width:0.75px;}.cls-10,.cls-11,.cls-3,.cls-4,.cls-5,.cls-6{stroke:#000;}.cls-4,.cls-5,.cls-6{stroke-width:0.5px;}.cls-5{stroke-dasharray:2.99 2.99;}.cls-6{stroke-dasharray:3.03 3.03;}.cls-7{font-size:40.03px;}.cls-8{font-size:40.57px;}.cls-9{font-size:36.03px;}.cls-10,.cls-11{stroke-width:0.25px;}.cls-11{stroke-dasharray:1.01 1.01;}</style></defs><title>2floor_662flat</title><text class="cls-1" transform="translate(171.49 10.2)">двор</text><line class="cls-2" x1="160.73" y1="3.22" x2="160.73" y2="12.02"/><polyline class="cls-2" points="164.23 6.72 160.73 3.22 157.23 6.72"/><line class="cls-3" x1="266.88" y1="106.19" x2="259.7" y2="104.7"/><line class="cls-3" x1="256.25" y1="103.96" x2="254.48" y2="112.62"/><line class="cls-3" x1="256.44" y1="103.12" x2="256.25" y2="103.96"/><line class="cls-3" x1="257.93" y1="113.27" x2="257.93" y2="113.27"/><polyline class="cls-3" points="259.7 104.7 257.09 104.14 255.32 112.81 257.09 104.14"/><line class="cls-3" x1="257.28" y1="103.3" x2="256.44" y2="103.12"/><polyline class="cls-3" points="257.93 113.27 256.81 118.49 253.46 134.89 263.71 136.94"/><line class="cls-3" x1="266.97" y1="105.26" x2="257.28" y2="103.3"/><polyline class="cls-3" points="137 74.05 257.28 98.83 256.44 103.12"/><line class="cls-3" x1="137" y1="110.85" x2="253.46" y2="134.89"/><line class="cls-3" x1="137" y1="78.52" x2="256.44" y2="103.12"/><line class="cls-3" x1="137" y1="110.85" x2="253.46" y2="134.89"/><polyline class="cls-3" points="137 93.8 141.75 94.83 142.4 91.38 144.63 91.75 144.91 90.07 138.02 88.68 137 88.4"/><polyline class="cls-3" points="211.35 103.68 207.9 103.02 207.53 104.7 209.67 105.17 209.02 108.61 210.32 108.89"/><line class="cls-3" x1="207.9" y1="103.02" x2="144.91" y2="90.07"/><polyline class="cls-3" points="141.37 96.5 146.59 97.53 203.43 109.27"/><polyline class="cls-3" points="146.59 97.53 147.62 92.4 142.4 91.38 141.37 96.5"/><polyline class="cls-3" points="209.67 105.17 204.54 104.14 203.43 109.27 208.64 110.38 209.67 105.17"/><line class="cls-3" x1="204.54" y1="104.14" x2="147.62" y2="92.4"/><line class="cls-3" x1="146.59" y1="97.53" x2="203.43" y2="109.27"/><line class="cls-3" x1="147.06" y1="95.01" x2="203.99" y2="106.66"/><line class="cls-3" x1="138.02" y1="88.68" x2="137" y2="93.8"/><polyline class="cls-3" points="210.32 108.89 211.63 109.17 212.28 105.73 214.42 106.19 214.79 104.42 211.35 103.68"/><polyline class="cls-3" points="257.93 113.27 251.04 111.88 250.66 113.64 252.81 114.02 252.06 117.47 256.81 118.49"/><line class="cls-3" x1="251.04" y1="111.88" x2="214.79" y2="104.42"/><polyline class="cls-3" points="211.25 110.85 216.38 111.97 246.56 118.12"/><polyline class="cls-3" points="216.38 111.97 217.5 106.75 212.28 105.73 211.25 110.85"/><polyline class="cls-3" points="252.81 114.02 247.68 112.99 246.56 118.12 251.78 119.24 252.81 114.02"/><line class="cls-3" x1="247.68" y1="112.99" x2="217.49" y2="106.75"/><line class="cls-3" x1="216.38" y1="111.97" x2="246.56" y2="118.12"/><line class="cls-3" x1="216.94" y1="109.36" x2="247.12" y2="115.6"/><polyline class="cls-3" points="253.46 134.89 256.81 118.49 257.93 113.27 256.81 118.49"/><line class="cls-3" x1="256.44" y1="103.12" x2="256.25" y2="103.96"/><polyline class="cls-3" points="254.48 112.62 255.32 112.81 254.48 112.62"/><polyline class="cls-3" points="255.32 112.81 257.93 113.27 255.32 112.81"/><line class="cls-3" x1="256.25" y1="103.96" x2="254.48" y2="112.62"/><line class="cls-3" x1="56.5" y1="95.94" x2="0.5" y2="107.68"/><line class="cls-3" x1="60.04" y1="95.29" x2="61.81" y2="103.86"/><line class="cls-3" x1="59.85" y1="94.45" x2="60.04" y2="95.29"/><line class="cls-3" x1="58.36" y1="104.61" x2="58.36" y2="104.61"/><polyline class="cls-3" points="56.5 95.94 59.1 95.48 60.88 104.05 59.1 95.48"/><line class="cls-3" x1="58.92" y1="94.55" x2="59.85" y2="94.45"/><polyline class="cls-3" points="58.36 104.61 59.38 109.73 62.74 126.13 18.11 135.35"/><line class="cls-3" x1="58.92" y1="94.55" x2="0.5" y2="106.75"/><polyline class="cls-3" points="137 74.05 58.92 90.07 59.85 94.45"/><line class="cls-3" x1="137" y1="110.85" x2="62.74" y2="126.13"/><line class="cls-3" x1="137" y1="78.52" x2="59.85" y2="94.45"/><line class="cls-3" x1="137" y1="110.85" x2="62.74" y2="126.13"/><polyline class="cls-3" points="137 93.8 132.24 94.83 131.5 91.38 129.35 91.75 128.98 90.07 135.97 88.68 137 88.4"/><polyline class="cls-3" points="58.36 104.61 65.25 103.21 65.53 104.89 63.39 105.35 64.14 108.8 59.38 109.73"/><line class="cls-3" x1="65.25" y1="103.21" x2="128.98" y2="90.07"/><polyline class="cls-3" points="132.62 96.5 127.4 97.53 69.63 109.45"/><polyline class="cls-3" points="127.4 97.53 126.37 92.4 131.5 91.38 132.62 96.5"/><polyline class="cls-3" points="63.39 105.35 68.61 104.33 69.63 109.45 64.51 110.57 63.39 105.35"/><line class="cls-3" x1="68.61" y1="104.33" x2="126.37" y2="92.4"/><line class="cls-3" x1="127.4" y1="97.53" x2="69.63" y2="109.45"/><line class="cls-3" x1="126.93" y1="95.01" x2="69.07" y2="106.84"/><line class="cls-3" x1="135.97" y1="88.68" x2="137" y2="93.8"/><polyline class="cls-3" points="62.74 126.13 59.38 109.73 58.36 104.61 59.38 109.73"/><line class="cls-3" x1="59.85" y1="94.45" x2="60.04" y2="95.29"/><polyline class="cls-3" points="61.81 103.86 60.88 104.05 61.81 103.86"/><polyline class="cls-3" points="60.88 104.05 58.36 104.61 60.88 104.05"/><line class="cls-3" x1="60.04" y1="95.29" x2="61.81" y2="103.86"/><line class="cls-3" x1="353.62" y1="106.19" x2="266.88" y2="106.19"/><polyline class="cls-3" points="263.71 136.94 353.62 136.94 353.62 61.92"/><line class="cls-3" x1="353.62" y1="105.26" x2="266.97" y2="105.26"/><line class="cls-3" x1="172.21" y1="643.14" x2="179.2" y2="643.14"/><polyline class="cls-3" points="172.21 495.27 172.21 581.55 179.2 581.55"/><polyline class="cls-3" points="172.21 643.13 172.21 718.04 179.2 718.04 179.2 643.13"/><line class="cls-3" x1="179.2" y1="581.55" x2="179.2" y2="488.19"/><line class="cls-3" x1="172.21" y1="581.55" x2="179.2" y2="581.55"/><line class="cls-3" x1="172.21" y1="643.14" x2="179.2" y2="643.14"/><line class="cls-3" x1="193.36" y1="530.49" x2="193.36" y2="537.57"/><polyline class="cls-3" points="326.23 530.49 272.56 530.49 272.56 537.57"/><polyline class="cls-3" points="193.36 530.49 179.2 530.49 179.2 537.57 193.36 537.57"/><polyline class="cls-3" points="272.56 537.57 326.23 537.57 326.23 530.49"/><line class="cls-3" x1="272.56" y1="530.49" x2="272.56" y2="537.57"/><line class="cls-3" x1="193.36" y1="530.49" x2="193.36" y2="537.57"/><polyline class="cls-3" points="179.2 488.19 172.21 488.19 18.11 488.19 18.11 495.27 62.18 495.27"/><polyline class="cls-3" points="69.17 537.57 69.17 495.27 172.21 495.27"/><line class="cls-3" x1="62.18" y1="495.27" x2="62.18" y2="530.49"/><polyline class="cls-3" points="22.58 537.57 22.58 534.03 22.58 530.49"/><polyline class="cls-3" points="57.8 537.57 57.8 534.03 57.8 530.49 62.18 530.49"/><polyline class="cls-3" points="22.58 530.49 18.11 530.49 18.11 537.57 22.58 537.57"/><polyline class="cls-3" points="69.17 537.57 62.18 537.57 57.8 537.57"/><line class="cls-3" x1="57.8" y1="537.57" x2="22.58" y2="537.57"/><line class="cls-3" x1="57.8" y1="530.49" x2="22.58" y2="530.49"/><path class="cls-3" d="M55.58,577.9a35,35,0,0,0,2.12-12" transform="translate(0.1 -28.35)"/><line class="cls-3" x1="22.58" y1="537.57" x2="55.66" y2="549.59"/><polyline class="cls-3" points="57.8 530.49 57.8 534.03 57.8 537.57 57.8 534.03"/><polyline class="cls-3" points="22.58 530.49 22.58 534.03 22.58 537.57 22.58 534.03"/><polyline class="cls-3" points="0.5 106.75 35.53 99.39 137 78.52"/><polyline class="cls-3" points="137 65.94 0.5 94.17 0.5 126.62"/><line class="cls-3" x1="137" y1="78.52" x2="266.97" y2="105.26"/><polyline class="cls-3" points="137 65.94 141.37 66.87 268.27 92.96"/><polyline class="cls-3" points="266.97 105.26 319.42 105.26 353.62 105.26"/><line class="cls-3" x1="353.62" y1="92.96" x2="268.27" y2="92.96"/><line class="cls-3" x1="24.91" y1="660.74" x2="24.91" y2="705.65"/><line class="cls-3" x1="29.85" y1="710.96" x2="138.86" y2="710.96"/><line class="cls-3" x1="29.85" y1="655.53" x2="138.86" y2="655.53"/><line class="cls-3" x1="169.61" y1="716.27" x2="19.88" y2="716.27"/><polyline class="cls-3" points="169.6 716.27 169.6 650.22 19.88 650.22 19.88 716.27"/><line class="cls-3" x1="121.34" y1="664.66" x2="36.09" y2="664.66"/><line class="cls-3" x1="33.58" y1="667.36" x2="33.58" y2="699.13"/><line class="cls-3" x1="121.34" y1="701.74" x2="36.09" y2="701.74"/><line class="cls-3" x1="51.09" y1="681.61" x2="51.09" y2="678.35"/><line class="cls-3" x1="49.51" y1="683.2" x2="46.43" y2="683.2"/><line class="cls-3" x1="51.09" y1="684.88" x2="51.09" y2="688.14"/><line class="cls-3" x1="52.58" y1="683.2" x2="55.66" y2="683.2"/><path class="cls-3" d="M138.81,739.22c14.48,0,26.23-12.41,26.23-27.72s-11.75-27.72-26.23-27.72" transform="translate(0.1 -28.35)"/><path class="cls-3" d="M24.81,734a5.14,5.14,0,0,0,5,5.27" transform="translate(0.1 -28.35)"/><path class="cls-3" d="M29.8,683.78a5.14,5.14,0,0,0-5,5.27" transform="translate(0.1 -28.35)"/><path class="cls-3" d="M51,708.75a2.76,2.76,0,1,0,2.56,2.75A2.66,2.66,0,0,0,51,708.75" transform="translate(0.1 -28.35)"/><path class="cls-3" d="M121.29,730.09c9.65,0,17.47-8.32,17.47-18.59s-7.82-18.59-17.47-18.59" transform="translate(0.1 -28.35)"/><path class="cls-3" d="M36,693a2.56,2.56,0,0,0-2.47,2.65" transform="translate(0.1 -28.35)"/><path class="cls-3" d="M33.57,727.43A2.57,2.57,0,0,0,36,730.09" transform="translate(0.1 -28.35)"/><path class="cls-3" d="M51,707.82a3.68,3.68,0,1,0,3.5,3.68,3.59,3.59,0,0,0-3.5-3.68" transform="translate(0.1 -28.35)"/><polyline class="cls-3" points="40 650.22 19.88 650.22 19.88 602.7 40 602.7"/><line class="cls-3" x1="19.88" y1="618.91" x2="19.88" y2="633.91"/><line class="cls-3" x1="36" y1="622.45" x2="36" y2="624.97"/><line class="cls-3" x1="31.99" y1="626.46" x2="34.6" y2="626.46"/><line class="cls-3" x1="36" y1="627.95" x2="36" y2="630.46"/><line class="cls-3" x1="37.49" y1="626.46" x2="40" y2="626.46"/><path class="cls-3" d="M31.18,667.37a21.16,21.16,0,0,0,10,8.22" transform="translate(0.1 -28.35)"/><path class="cls-3" d="M28.24,654.73a21.16,21.16,0,0,0,3,12.64" transform="translate(0.1 -28.35)"/><path class="cls-3" d="M41.21,633.93a21.16,21.16,0,0,0-10,8.22" transform="translate(0.1 -28.35)"/><path class="cls-3" d="M31.21,642.15a21.11,21.11,0,0,0-3,12.63" transform="translate(0.1 -28.35)"/><path class="cls-3" d="M51.9,670.84a39,39,0,0,0,3.93-14.42" transform="translate(0.1 -28.35)"/><path class="cls-3" d="M49.92,635.47A12.06,12.06,0,0,0,40,631" transform="translate(0.1 -28.35)"/><path class="cls-3" d="M55.88,656.42a26.43,26.43,0,0,0,0-3.33" transform="translate(0.1 -28.35)"/><path class="cls-3" d="M32,641.46a86.59,86.59,0,0,0,0,26.6" transform="translate(0.1 -28.35)"/><path class="cls-3" d="M43.08,632.26A29.86,29.86,0,0,0,23.67,639" transform="translate(0.1 -28.35)"/><path class="cls-3" d="M22.28,641.14a59.84,59.84,0,0,0-1.47,13.6" transform="translate(0.1 -28.35)"/><path class="cls-3" d="M23.66,638.93a4,4,0,0,0-1.36,2.19" transform="translate(0.1 -28.35)"/><path class="cls-3" d="M23.64,641.34a101.86,101.86,0,0,0-1,13.4" transform="translate(0.1 -28.35)"/><path class="cls-3" d="M43.1,632.17A26.85,26.85,0,0,0,25,638.88" transform="translate(0.1 -28.35)"/><path class="cls-3" d="M24.94,638.93a4,4,0,0,0-1.3,2.43" transform="translate(0.1 -28.35)"/><path class="cls-3" d="M25,670.61a26.84,26.84,0,0,0,18.12,6.74" transform="translate(0.1 -28.35)"/><path class="cls-3" d="M23.64,670.49A29.84,29.84,0,0,0,43,677.26" transform="translate(0.1 -28.35)"/><path class="cls-3" d="M22.67,654.73a101.83,101.83,0,0,0,.95,13.4" transform="translate(0.1 -28.35)"/><path class="cls-3" d="M20.81,654.69a59.91,59.91,0,0,0,1.45,13.61" transform="translate(0.1 -28.35)"/><path class="cls-3" d="M23.64,668.16a4,4,0,0,0,1.3,2.42" transform="translate(0.1 -28.35)"/><path class="cls-3" d="M22.3,668.3a4,4,0,0,0,1.36,2.19" transform="translate(0.1 -28.35)"/><path class="cls-3" d="M40,678.46a12.08,12.08,0,0,0,9.92-4.5" transform="translate(0.1 -28.35)"/><path class="cls-3" d="M50,674a18.19,18.19,0,0,0,2-3.16" transform="translate(0.1 -28.35)"/><path class="cls-3" d="M52,638.64a18.19,18.19,0,0,0-2-3.16" transform="translate(0.1 -28.35)"/><path class="cls-3" d="M55.83,653.1a39,39,0,0,0-3.93-14.42" transform="translate(0.1 -28.35)"/><path class="cls-3" d="M52.55,661.31a28.15,28.15,0,0,0,0-13.1" transform="translate(0.1 -28.35)"/><path class="cls-3" d="M41.24,675.57a7.15,7.15,0,0,0,5.88-2.46" transform="translate(0.1 -28.35)"/><path class="cls-3" d="M47,673.12a25.8,25.8,0,0,0,5.43-11.84" transform="translate(0.1 -28.35)"/><path class="cls-3" d="M47.12,636.31a7.14,7.14,0,0,0-5.88-2.45" transform="translate(0.1 -28.35)"/><path class="cls-3" d="M52.47,648.24A25.8,25.8,0,0,0,47,636.4" transform="translate(0.1 -28.35)"/><path class="cls-3" d="M39.07,654.76A3.12,3.12,0,1,0,36,657.88a3.12,3.12,0,0,0,3.12-3.12" transform="translate(0.1 -28.35)"/><path class="cls-3" d="M38.14,654.76A2.19,2.19,0,1,0,36,657a2.19,2.19,0,0,0,2.19-2.19" transform="translate(0.1 -28.35)"/><line class="cls-3" x1="33.48" y1="557.33" x2="64.51" y2="557.33"/><polyline class="cls-3" points="31.53 556.02 19.88 556.02 19.88 589.47"/><line class="cls-3" x1="38.89" y1="572.7" x2="38.89" y2="585.18"/><polyline class="cls-3" points="64.51 557.33 38.89 560.31 38.89 572.7"/><line class="cls-3" x1="64.51" y1="588.16" x2="38.89" y2="585.18"/><line class="cls-3" x1="64.51" y1="558.16" x2="38.89" y2="561.14"/><line class="cls-3" x1="64.51" y1="587.33" x2="38.89" y2="584.34"/><line class="cls-3" x1="33.39" y1="588.16" x2="64.51" y2="588.16"/><line class="cls-3" x1="19.88" y1="589.47" x2="31.53" y2="589.47"/><polyline class="cls-3" points="64.51 557.33 67.96 557.79 71.12 559.1 74.01 561.24 76.34 563.94 77.92 567.29 78.76 570.84 78.76 574.56 77.92 578.2 76.34 581.55 74.01 584.25 71.12 586.39 67.96 587.7 64.51 588.16"/><polyline class="cls-3" points="64.51 558.16 67.77 558.54 70.84 559.84 73.55 561.8 75.69 564.41 77.18 567.57 78.02 571.02 78.02 574.47 77.18 577.92 75.69 581.08 73.55 583.69 70.84 585.65 67.77 586.95 64.51 587.33"/><path class="cls-3" d="M33.43,616a141.81,141.81,0,0,0,0-30" transform="translate(0.1 -28.35)"/><path class="cls-3" d="M33.47,586.07a2,2,0,0,0-2-1.7" transform="translate(0.1 -28.35)"/><path class="cls-3" d="M31.48,617.72a2,2,0,0,0,2-1.71" transform="translate(0.1 -28.35)"/><path class="cls-3" d="M28.82,601a1.63,1.63,0,1,0-1.63,1.63A1.63,1.63,0,0,0,28.82,601" transform="translate(0.1 -28.35)"/><polyline class="cls-3" points="70.94 435.36 70.94 483.81 22.58 483.81 22.58 435.36 70.94 435.36"/><polyline class="cls-3" points="26.96 439.84 66.56 439.84 66.56 475.06 26.96 475.06 26.96 439.84"/><line class="cls-3" x1="0.5" y1="716.27" x2="0.5" y2="716.27"/><polyline class="cls-3" points="352.78 90.72 352.78 42.28 353.15 42.28 353.15 90.72 352.78 90.72"/><polyline class="cls-3" points="351.38 40.97 270.42 40.97 270.42 40.51 351.38 40.51 351.38 40.97"/><polyline class="cls-3" points="269.11 42.28 269.11 90.72 268.65 90.72 268.65 42.28 269.11 42.28"/><polyline class="cls-3" points="351.38 92.96 351.38 90.72 353.62 90.72 353.62 92.96 351.38 92.96"/><polyline class="cls-3" points="351.38 42.28 351.38 40.13 353.62 40.13 353.62 42.28 351.38 42.28"/><polyline class="cls-3" points="270.42 42.28 268.27 42.28 268.27 40.13 270.42 40.13 270.42 42.28"/><polyline class="cls-3" points="270.42 90.72 270.42 92.96 268.27 92.96 268.27 90.72 270.42 90.72"/><line class="cls-3" x1="351.38" y1="91.84" x2="351.38" y2="42.28"/><line class="cls-3" x1="353.62" y1="40.13" x2="353.62" y2="91.84"/><line class="cls-3" x1="351.38" y1="42.28" x2="270.42" y2="42.28"/><line class="cls-3" x1="268.27" y1="40.13" x2="353.62" y2="40.13"/><line class="cls-3" x1="270.42" y1="42.28" x2="270.42" y2="91.84"/><line class="cls-3" x1="268.27" y1="91.84" x2="268.27" y2="40.13"/><polyline class="cls-3" points="353.62 91.84 353.62 92.96 351.38 92.96 351.38 91.84"/><polyline class="cls-3" points="270.42 91.84 270.42 92.96 268.27 92.96 268.27 91.84"/><polyline class="cls-3" points="268.27 40.13 353.62 40.13 353.62 91.84 351.38 91.84 351.38 42.28 270.42 42.28 270.42 91.84 268.27 91.84 268.27 40.13"/><polyline class="cls-3" points="272.65 55.97 349.24 55.97 349.24 84.11 272.65 84.11 272.65 55.97"/><polyline class="cls-3" points="272.65 58.77 349.24 58.77 349.24 84.11 272.65 84.11 272.65 58.77"/><polyline class="cls-3" points="272.56 735.56 272.56 728.57 272.56 718.04"/><polyline class="cls-3" points="184.51 735.56 184.51 728.57 184.51 718.04"/><line class="cls-3" x1="0.5" y1="735.56" x2="184.51" y2="735.56"/><line class="cls-3" x1="272.56" y1="735.56" x2="343.83" y2="735.56"/><line class="cls-3" x1="326.23" y1="718.04" x2="272.56" y2="718.04"/><line class="cls-3" x1="184.51" y1="718.04" x2="18.11" y2="718.04"/><line class="cls-3" x1="0.5" y1="718.04" x2="0.5" y2="718.04"/><line class="cls-3" x1="184.51" y1="735.56" x2="184.79" y2="735.56"/><line class="cls-3" x1="184.89" y1="735.56" x2="184.89" y2="735.56"/><line class="cls-3" x1="184.51" y1="718.04" x2="184.79" y2="718.04"/><line class="cls-3" x1="184.89" y1="718.04" x2="184.89" y2="718.04"/><path class="cls-3" d="M269.06,675.86a81,81,0,0,0-81,81" transform="translate(0.1 -28.35)"/><polyline class="cls-3" points="184.51 735.56 188.05 735.56 188.05 728.57 184.51 728.57 184.51 735.56"/><polyline class="cls-3" points="272.56 728.57 269.11 728.57 269.11 735.56 272.56 735.56 272.56 728.57"/><line class="cls-3" x1="269.11" y1="728.57" x2="269.11" y2="647.61"/><polyline class="cls-3" points="184.51 718.04 184.51 728.57 184.51 735.56 184.51 728.57"/><polyline class="cls-3" points="272.56 718.04 272.56 728.57 272.56 735.56 272.56 728.57"/><polyline class="cls-3" points="343.83 718.04 343.83 136.94 326.23 136.94 326.23 718.04"/><line class="cls-3" x1="18.11" y1="718.04" x2="18.11" y2="135.35"/><line class="cls-3" x1="0.5" y1="135.35" x2="0.5" y2="735.56"/><polyline class="cls-3" points="0.5 735.56 53.33 735.56 53.33 718.04 0.5 718.04"/><polyline class="cls-3" points="0.5 497.88 18.11 497.88 18.11 409.84 0.5 409.84 0.5 497.88"/><polyline class="cls-3" points="326.23 497.88 343.83 497.88 343.83 409.84 326.23 409.84 326.23 497.88"/><polyline class="cls-3" points="326.23 735.56 343.83 735.56 343.83 647.61 326.23 647.61 326.23 735.56"/><polyline class="cls-3" points="0.5 207.38 18.11 207.38 18.11 119.33 0.5 119.33 0.5 207.38"/><polyline class="cls-3" points="326.23 207.38 343.83 207.38 343.83 119.33 326.23 119.33 326.23 207.38"/><line class="cls-4" x1="17.55" y1="382.63" x2="19.05" y2="382.63"/><line class="cls-5" x1="22.04" y1="382.63" x2="176.21" y2="382.63"/><polyline class="cls-4" points="177.7 382.63 179.2 382.63 179.2 384.13"/><line class="cls-6" x1="179.2" y1="387.16" x2="179.2" y2="488.72"/><line class="cls-4" x1="179.2" y1="490.23" x2="179.2" y2="491.73"/><text class="cls-7" transform="translate(149.87 302.76)">CT</text><text class="cls-8" transform="translate(123.84 352.97)">23.81</text><text class="cls-7" transform="translate(119.2 252.81)">№662</text><polyline class="cls-4" points="110.19 363.8 110.19 214.59 234.62 214.59 234.62 363.8"/><line class="cls-4" x1="110.19" y1="264.42" x2="234.61" y2="264.42"/><line class="cls-4" x1="110.19" y1="363.8" x2="234.61" y2="363.8"/><line class="cls-4" x1="110.19" y1="314.25" x2="234.61" y2="314.25"/><text class="cls-9" transform="translate(136.12 179.77)">13.00</text><text class="cls-9" transform="translate(93.06 440.67)">2.20</text><text class="cls-9" transform="translate(87.38 596.05)">4.15</text><text class="cls-9" transform="translate(223.97 623.29)">4.46</text><line class="cls-10" x1="188.15" y1="735.56" x2="188.65" y2="735.56"/><line class="cls-11" x1="189.66" y1="735.56" x2="271.97" y2="735.56"/><line class="cls-10" x1="272.47" y1="735.56" x2="272.97" y2="735.56"/><line class="cls-10" x1="193.36" y1="537.57" x2="193.86" y2="537.57"/><line class="cls-11" x1="194.87" y1="537.57" x2="277.19" y2="537.57"/><line class="cls-10" x1="277.69" y1="537.57" x2="278.19" y2="537.57"/><line class="cls-10" x1="193.36" y1="530.49" x2="193.86" y2="530.49"/><line class="cls-11" x1="194.87" y1="530.49" x2="277.19" y2="530.49"/><line class="cls-10" x1="277.69" y1="530.49" x2="278.19" y2="530.49"/><line class="cls-10" x1="179.25" y1="652.1" x2="179.25" y2="651.6"/><line class="cls-11" x1="179.25" y1="650.59" x2="179.25" y2="568.28"/><line class="cls-10" x1="179.25" y1="567.77" x2="179.25" y2="567.27"/><line class="cls-10" x1="172.17" y1="652.1" x2="172.17" y2="651.6"/><line class="cls-11" x1="172.17" y1="650.59" x2="172.17" y2="568.28"/><line class="cls-10" x1="172.17" y1="567.77" x2="172.17" y2="567.27"/></svg>