<svg id="_16_2" data-name="16_2" xmlns="http://www.w3.org/2000/svg" viewBox="0 0 771.03 1615.97"><defs><style>.cls-1{isolation:isolate;font-size:12px;fill:#969696;}.cls-1,.cls-6,.cls-8{font-family:PTSans-Regular, PT Sans;}.cls-2{letter-spacing:-0.01em;}.cls-3,.cls-4,.cls-5,.cls-7,.cls-9{fill:none;stroke-linecap:round;stroke-linejoin:round;}.cls-3{stroke:#969696;stroke-width:0.75px;}.cls-4,.cls-5,.cls-7,.cls-9{stroke:#000;}.cls-4,.cls-5{stroke-width:0.25px;}.cls-5{stroke-dasharray:0.99 0.99;}.cls-6{font-size:40px;}.cls-8{font-size:36px;}.cls-9{stroke-width:1.5px;}</style></defs><title>2floor_16_2office</title><text class="cls-1" transform="translate(377.37 1612.77)"><tspan class="cls-2">у</tspan><tspan x="5.42" y="0">лица</tspan></text><line class="cls-3" x1="366.61" y1="1615.59" x2="366.61" y2="1606.79"/><polyline class="cls-3" points="363.11 1612.09 366.61 1615.59 370.11 1612.09"/><text class="cls-1" transform="translate(379.94 10.2)">двор</text><line class="cls-3" x1="369.18" y1="4.22" x2="369.18" y2="13.02"/><polyline class="cls-3" points="372.68 7.72 369.18 4.22 365.68 7.72"/><line class="cls-4" x1="450.57" y1="453.79" x2="450.57" y2="454.29"/><line class="cls-5" x1="450.57" y1="455.29" x2="450.57" y2="561.97"/><line class="cls-4" x1="450.57" y1="562.46" x2="450.57" y2="562.96"/><line class="cls-4" x1="458.26" y1="453.79" x2="458.26" y2="454.29"/><line class="cls-5" x1="458.26" y1="455.29" x2="458.26" y2="561.97"/><line class="cls-4" x1="458.26" y1="562.46" x2="458.26" y2="562.96"/><text class="cls-6" transform="translate(322.19 933.9)">№16</text><text class="cls-6" transform="translate(305.67 987.63)">112.41</text><text class="cls-6" transform="translate(317.23 876.89)">Офис</text><polyline class="cls-7" points="294.44 1004.29 294.44 836.41 434.45 836.41 434.45 1004.29"/><line class="cls-7" x1="294.44" y1="892.48" x2="434.45" y2="892.48"/><line class="cls-7" x1="294.44" y1="1004.29" x2="434.45" y2="1004.29"/><line class="cls-7" x1="294.44" y1="948.54" x2="434.45" y2="948.54"/><text class="cls-8" transform="translate(321.35 1362.35)">88.29</text><text class="cls-8" transform="translate(138.91 305.03)">18.47</text><text class="cls-8" transform="translate(543.12 515.07)">5.65</text><line class="cls-9" x1="0.75" y1="1567" x2="72.06" y2="1567"/><line class="cls-9" x1="695.12" y1="1567" x2="770.28" y2="1567"/><line class="cls-9" x1="321.85" y1="1567" x2="445.33" y2="1567"/><line class="cls-9" x1="0.75" y1="1566.04" x2="68.21" y2="1566.04"/><line class="cls-9" x1="698.97" y1="1566.04" x2="770.28" y2="1566.04"/><line class="cls-9" x1="325.65" y1="1566.04" x2="441.48" y2="1566.04"/><line class="cls-9" x1="68.21" y1="1560.26" x2="68.21" y2="1527.75"/><line class="cls-9" x1="72.06" y1="1578.45" x2="72.06" y2="1567"/><line class="cls-9" x1="68.21" y1="1566.04" x2="68.21" y2="1560.26"/><line class="cls-9" x1="325.65" y1="1560.26" x2="325.65" y2="1527.75"/><line class="cls-9" x1="321.85" y1="1578.45" x2="321.85" y2="1567"/><line class="cls-9" x1="325.65" y1="1566.04" x2="325.65" y2="1560.26"/><line class="cls-9" x1="441.48" y1="1560.26" x2="441.48" y2="1527.75"/><line class="cls-9" x1="445.33" y1="1578.45" x2="445.33" y2="1567"/><line class="cls-9" x1="441.48" y1="1566.04" x2="441.48" y2="1560.26"/><line class="cls-9" x1="698.97" y1="1560.26" x2="698.97" y2="1527.75"/><line class="cls-9" x1="695.12" y1="1578.45" x2="695.12" y2="1567"/><line class="cls-9" x1="698.97" y1="1566.04" x2="698.97" y2="1560.26"/><polyline class="cls-9" points="72.06 1578.45 0.75 1578.45 0.75 1482.34"/><line class="cls-9" x1="321.85" y1="1578.45" x2="445.33" y2="1578.45"/><line class="cls-9" x1="695.12" y1="1578.45" x2="770.28" y2="1578.45"/><line class="cls-9" x1="770.28" y1="1527.75" x2="770.28" y2="1527.75"/><line class="cls-9" x1="732.95" y1="1527.75" x2="698.97" y2="1527.75"/><line class="cls-9" x1="441.48" y1="1527.75" x2="325.65" y2="1527.75"/><line class="cls-9" x1="68.21" y1="1527.75" x2="34.23" y2="1527.75"/><line class="cls-9" x1="0.75" y1="1527.75" x2="0.75" y2="1527.75"/><line class="cls-9" x1="321.85" y1="1578.45" x2="72.06" y2="1578.45"/><line class="cls-9" x1="325.65" y1="1527.75" x2="68.21" y2="1527.75"/><polyline class="cls-9" points="325.65 1560.26 318 1560.26 318 1566.04 325.65 1566.04"/><polyline class="cls-9" points="240.82 1566.04 244.61 1566.04 244.61 1560.26 240.82 1560.26"/><line class="cls-9" x1="318" y1="1563.15" x2="244.61" y2="1563.15"/><line class="cls-9" x1="318" y1="1560.26" x2="244.61" y2="1560.26"/><line class="cls-9" x1="244.61" y1="1566.04" x2="318" y2="1566.04"/><polyline class="cls-9" points="240.82 1560.26 239.4 1560.26 239.4 1564.11 236.97 1564.11 236.97 1566.04 240.82 1566.04"/><polyline class="cls-9" points="153.09 1566.04 156.89 1566.04 156.89 1564.11 154.51 1564.11 154.51 1560.26 153.09 1560.26"/><line class="cls-9" x1="156.89" y1="1566.04" x2="236.97" y2="1566.04"/><polyline class="cls-9" points="239.4 1558.39 233.62 1558.39 160.24 1558.39"/><polyline class="cls-9" points="233.62 1558.39 233.62 1564.11 239.4 1564.11 239.4 1558.39"/><polyline class="cls-9" points="154.51 1564.11 160.24 1564.11 160.24 1558.39 154.51 1558.39 154.51 1564.11"/><line class="cls-9" x1="160.24" y1="1564.11" x2="233.62" y2="1564.11"/><line class="cls-9" x1="233.62" y1="1558.39" x2="160.24" y2="1558.39"/><line class="cls-9" x1="233.62" y1="1561.23" x2="160.24" y2="1561.23"/><polyline class="cls-9" points="153.09 1560.26 149.25 1560.26 149.25 1566.04 153.09 1566.04"/><polyline class="cls-9" points="68.21 1566.04 75.86 1566.04 75.86 1560.26 68.21 1560.26"/><line class="cls-9" x1="149.25" y1="1563.15" x2="75.86" y2="1563.15"/><line class="cls-9" x1="149.25" y1="1560.26" x2="75.86" y2="1560.26"/><line class="cls-9" x1="75.86" y1="1566.04" x2="149.25" y2="1566.04"/><polyline class="cls-9" points="325.65 1560.26 325.65 1566.04 325.65 1560.26"/><polyline class="cls-9" points="325.65 1566.04 321.85 1566.04 325.65 1566.04"/><polyline class="cls-9" points="321.85 1578.45 321.85 1567 321.85 1566.04"/><line class="cls-9" x1="325.65" y1="1560.26" x2="325.65" y2="1527.75"/><polyline class="cls-9" points="68.21 1560.26 68.21 1566.04 68.21 1560.26"/><polyline class="cls-9" points="68.21 1566.04 72.06 1566.04 68.21 1566.04"/><polyline class="cls-9" points="72.06 1578.45 72.06 1567 72.06 1566.04"/><line class="cls-9" x1="68.21" y1="1560.26" x2="68.21" y2="1527.75"/><line class="cls-9" x1="695.12" y1="1578.45" x2="445.33" y2="1578.45"/><line class="cls-9" x1="698.97" y1="1527.75" x2="441.48" y2="1527.75"/><polyline class="cls-9" points="698.97 1560.26 691.27 1560.26 691.27 1566.04 698.97 1566.04"/><polyline class="cls-9" points="614.08 1566.04 617.93 1566.04 617.93 1560.26 614.08 1560.26"/><line class="cls-9" x1="691.27" y1="1563.15" x2="617.93" y2="1563.15"/><line class="cls-9" x1="691.27" y1="1560.26" x2="617.93" y2="1560.26"/><line class="cls-9" x1="617.93" y1="1566.04" x2="691.27" y2="1566.04"/><polyline class="cls-9" points="614.08 1560.26 612.66 1560.26 612.66 1564.11 610.23 1564.11 610.23 1566.04 614.08 1566.04"/><polyline class="cls-9" points="526.36 1566.04 530.16 1566.04 530.16 1564.11 527.78 1564.11 527.78 1560.26 526.36 1560.26"/><line class="cls-9" x1="530.16" y1="1566.04" x2="610.23" y2="1566.04"/><polyline class="cls-9" points="612.66 1558.39 606.89 1558.39 533.5 1558.39"/><polyline class="cls-9" points="606.89 1558.39 606.89 1564.11 612.66 1564.11 612.66 1558.39"/><polyline class="cls-9" points="527.78 1564.11 533.5 1564.11 533.5 1558.39 527.78 1558.39 527.78 1564.11"/><line class="cls-9" x1="533.5" y1="1564.11" x2="606.89" y2="1564.11"/><line class="cls-9" x1="606.89" y1="1558.39" x2="533.5" y2="1558.39"/><line class="cls-9" x1="606.89" y1="1561.23" x2="533.5" y2="1561.23"/><polyline class="cls-9" points="526.36 1560.26 522.51 1560.26 522.51 1566.04 526.36 1566.04"/><polyline class="cls-9" points="441.48 1566.04 449.13 1566.04 449.13 1560.26 441.48 1560.26"/><line class="cls-9" x1="522.51" y1="1563.15" x2="449.13" y2="1563.15"/><line class="cls-9" x1="522.51" y1="1560.26" x2="449.13" y2="1560.26"/><line class="cls-9" x1="449.13" y1="1566.04" x2="522.51" y2="1566.04"/><polyline class="cls-9" points="698.97 1560.26 698.97 1566.04 698.97 1560.26"/><polyline class="cls-9" points="698.97 1566.04 695.12 1566.04 698.97 1566.04"/><polyline class="cls-9" points="695.12 1578.45 695.12 1567 695.12 1566.04"/><line class="cls-9" x1="698.97" y1="1560.26" x2="698.97" y2="1527.75"/><polyline class="cls-9" points="441.48 1560.26 441.48 1566.04 441.48 1560.26"/><polyline class="cls-9" points="441.48 1566.04 445.33 1566.04 441.48 1566.04"/><polyline class="cls-9" points="445.33 1578.45 445.33 1567 445.33 1566.04"/><line class="cls-9" x1="441.48" y1="1560.26" x2="441.48" y2="1527.75"/><polyline class="cls-9" points="240 92.06 240 221.26 268.72 221.26 268.72 92.06 240 92.06"/><polyline class="cls-9" points="268.72 92.06 268.72 221.26 297.44 221.26 297.44 92.06 268.72 92.06"/><polyline class="cls-9" points="297.44 92.06 297.44 221.26 326.15 221.26 326.15 92.06 297.44 92.06"/><polyline class="cls-9" points="326.15 92.06 326.15 221.26 354.87 221.26 354.87 92.06 326.15 92.06"/><polyline class="cls-9" points="354.87 92.06 354.87 221.26 383.59 221.26 383.59 92.06 354.87 92.06"/><polyline class="cls-9" points="383.59 92.06 383.59 221.26 412.31 221.26 412.31 92.06 383.59 92.06"/><polyline class="cls-9" points="412.31 92.06 412.31 221.26 441.02 221.26 441.02 92.06 412.31 92.06"/><polyline class="cls-9" points="441.02 92.06 441.02 221.26 469.74 221.26 469.74 92.06 441.02 92.06"/><polyline class="cls-9" points="469.74 92.06 469.74 221.26 498.4 221.26 498.4 92.06 469.74 92.06"/><polyline class="cls-9" points="498.4 92.06 498.4 221.26 527.12 221.26 527.12 92.06 498.4 92.06"/><polyline class="cls-9" points="527.12 92.06 527.12 221.26 555.84 221.26 555.84 92.06 527.12 92.06"/><polyline class="cls-9" points="555.84 92.06 555.84 221.26 584.55 221.26 584.55 92.06 555.84 92.06"/><polyline class="cls-9" points="555.84 369.61 527.12 369.61 527.12 240.41 555.84 240.41 555.84 369.61 555.84 240.41 584.55 240.41 584.55 369.61 747.28 369.61 747.28 92.06 584.55 92.06 584.55 221.26 618.08 221.26 618.08 240.41 584.55 240.41 584.55 369.61 555.84 369.61"/><polyline class="cls-9" points="527.12 369.61 527.12 240.41 498.4 240.41 498.4 369.61 527.12 369.61"/><polyline class="cls-9" points="498.4 369.61 498.4 240.41 469.74 240.41 469.74 369.61 498.4 369.61"/><polyline class="cls-9" points="469.74 369.61 469.74 240.41 441.02 240.41 441.02 369.61 469.74 369.61"/><polyline class="cls-9" points="441.02 369.61 441.02 240.41 412.31 240.41 412.31 369.61 441.02 369.61"/><polyline class="cls-9" points="412.31 369.61 412.31 240.41 383.59 240.41 383.59 369.61 412.31 369.61"/><polyline class="cls-9" points="383.59 369.61 383.59 240.41 354.87 240.41 354.87 369.61 383.59 369.61"/><polyline class="cls-9" points="354.87 369.61 354.87 240.41 326.15 240.41 326.15 369.61 354.87 369.61"/><polyline class="cls-9" points="326.15 369.61 326.15 240.41 297.44 240.41 297.44 369.61 326.15 369.61"/><polyline class="cls-9" points="297.44 369.61 297.44 240.41 268.72 240.41 268.72 369.61 297.44 369.61"/><polyline class="cls-9" points="268.72 369.61 268.72 240.41 240 240.41 240 369.61 268.72 369.61"/><polyline class="cls-9" points="240 156.69 268.72 156.69 584.55 156.69 663.51 156.69 663.51 305.04 584.55 305.04 268.72 305.04 240 305.04 259.15 328.94"/><line class="cls-9" x1="259.15" y1="281.08" x2="240.01" y2="305.03"/><polyline class="cls-9" points="770.28 369.61 770.28 369.61 770.28 92.06 770.28 92.06"/><polyline class="cls-9" points="613.27 239.45 617.12 239.45 617.12 222.23 584.55 222.23 240 222.23 240 226.08 584.55 226.08 613.27 226.08 613.27 235.65 240 235.65 240 239.45 613.27 239.45 617.12 239.45 617.12 222.23 584.55 222.23 240 222.23 240 226.08 584.55 226.08 613.27 226.08 613.27 235.65 240 235.65 240 239.45 613.27 239.45"/><line class="cls-9" x1="747.28" y1="168.64" x2="747.28" y2="369.61"/><line class="cls-9" x1="770.28" y1="369.61" x2="770.28" y2="168.64"/><polyline class="cls-9" points="0.75 168.64 0.75 388.75 19.89 388.75 19.89 168.64"/><line class="cls-9" x1="19.89" y1="72.92" x2="0.75" y2="72.92"/><line class="cls-9" x1="747.28" y1="589.77" x2="458.24" y2="589.77"/><polyline class="cls-9" points="450.6 597.42 747.28 597.42 747.28 589.77"/><line class="cls-9" x1="458.24" y1="455.81" x2="450.59" y2="455.81"/><polyline class="cls-9" points="458.24 589.77 458.24 553.46 450.6 553.46"/><polyline class="cls-9" points="458.24 455.81 458.24 388.75 450.6 388.75 450.6 455.81"/><polyline class="cls-9" points="450.6 597.42 450.6 589.77 450.6 553.46"/><line class="cls-9" x1="458.24" y1="553.46" x2="450.59" y2="553.46"/><line class="cls-9" x1="458.24" y1="455.81" x2="450.59" y2="455.81"/><polyline class="cls-9" points="701.35 398.33 705.14 398.33 708.99 398.33"/><polyline class="cls-9" points="701.35 436.62 705.14 436.62 708.99 436.62"/><line class="cls-9" x1="701.35" y1="388.75" x2="701.35" y2="398.33"/><line class="cls-9" x1="701.35" y1="436.62" x2="701.35" y2="527.58"/><line class="cls-9" x1="708.99" y1="519.88" x2="708.99" y2="444.31"/><polyline class="cls-9" points="708.99 398.33 708.99 388.75 701.35 388.75"/><line class="cls-9" x1="701.35" y1="436.62" x2="701.35" y2="398.33"/><line class="cls-9" x1="708.99" y1="436.62" x2="708.99" y2="398.33"/><path class="cls-9" d="M688.28,462.61a38.47,38.47,0,0,0,13.09,2.3" transform="translate(0 -28.35)"/><line class="cls-9" x1="701.35" y1="398.33" x2="688.23" y2="434.34"/><polyline class="cls-9" points="708.99 436.62 705.14 436.62 701.35 436.62 705.14 436.62"/><polyline class="cls-9" points="708.99 398.33 705.14 398.33 701.35 398.33 705.14 398.33"/><polyline class="cls-9" points="770.28 519.88 770.28 519.88 770.28 527.58"/><line class="cls-9" x1="770.28" y1="527.58" x2="770.28" y2="527.58"/><polyline class="cls-9" points="770.28 436.62 770.28 436.62 770.28 444.31 770.28 444.31"/><polyline class="cls-9" points="708.99 444.31 747.28 444.31 747.28 436.62 708.99 436.62"/><polyline class="cls-9" points="701.35 527.58 708.99 527.58 747.28 527.58 747.28 519.88 708.99 519.88"/><polyline class="cls-9" points="747.28 369.61 404.66 369.61 404.66 388.75"/><polyline class="cls-9" points="770.28 388.75 747.28 388.75 404.66 388.75"/><line class="cls-9" x1="770.28" y1="497.01" x2="770.28" y2="369.61"/><line class="cls-9" x1="770.28" y1="388.75" x2="770.28" y2="388.75"/><line class="cls-9" x1="770.28" y1="597.42" x2="770.28" y2="597.42"/><polyline class="cls-9" points="770.28 589.77 770.28 589.77 770.28 597.42"/><line class="cls-9" x1="0.75" y1="66.24" x2="0.75" y2="186.52"/><line class="cls-9" x1="0.75" y1="50.94" x2="0.75" y2="186.52"/><line class="cls-9" x1="0.75" y1="186.52" x2="0.75" y2="66.24"/><line class="cls-9" x1="34.23" y1="186.52" x2="34.23" y2="66.24"/><line class="cls-9" x1="19.89" y1="66.24" x2="19.89" y2="186.52"/><line class="cls-9" x1="35.19" y1="186.52" x2="35.19" y2="50.94"/><line class="cls-9" x1="234.74" y1="49.98" x2="234.74" y2="52.81"/><polyline class="cls-9" points="239.04 41.37 234.74 41.37 234.74 45.17 234.74 49.98"/><polyline class="cls-9" points="234.74 52.81 239.04 52.81 239.04 41.37"/><line class="cls-9" x1="234.74" y1="41.37" x2="0.75" y2="41.37"/><line class="cls-9" x1="234.74" y1="52.81" x2="0.75" y2="52.81"/><polyline class="cls-9" points="234.74 45.17 229.98 45.17 229.98 49.98 234.74 49.98"/><polyline class="cls-9" points="10.32 49.98 15.08 49.98 15.08 45.17 10.32 45.17"/><line class="cls-9" x1="229.98" y1="47.55" x2="15.08" y2="47.55"/><line class="cls-9" x1="229.98" y1="45.17" x2="15.08" y2="45.17"/><line class="cls-9" x1="15.08" y1="49.98" x2="229.98" y2="49.98"/><polyline class="cls-9" points="10.32 45.17 5.51 45.17 5.51 49.98 10.32 49.98"/><line class="cls-9" x1="5.51" y1="47.55" x2="0.75" y2="47.55"/><line class="cls-9" x1="5.51" y1="45.17" x2="0.75" y2="45.17"/><line class="cls-9" x1="0.75" y1="49.98" x2="5.51" y2="49.98"/><polyline class="cls-9" points="234.74 49.98 234.74 45.17 234.74 49.98"/><line class="cls-9" x1="234.74" y1="41.37" x2="234.74" y2="45.17"/><line class="cls-9" x1="234.74" y1="49.98" x2="234.74" y2="52.81"/><line class="cls-9" x1="0.75" y1="66.24" x2="19.89" y2="66.24"/><line class="cls-9" x1="770.28" y1="695.07" x2="770.28" y2="695.07"/><polyline class="cls-9" points="770.28 687.42 770.28 687.42 770.28 695.07"/><polyline class="cls-9" points="770.28 723.78 770.28 723.78 770.28 731.43"/><line class="cls-9" x1="770.28" y1="731.43" x2="770.28" y2="731.43"/><line class="cls-9" x1="0.75" y1="388.75" x2="0.75" y2="872.13"/><line class="cls-9" x1="0.75" y1="919.99" x2="0.75" y2="1499.03"/><line class="cls-9" x1="19.89" y1="1499.03" x2="19.89" y2="919.99"/><polyline class="cls-9" points="19.89 872.13 19.89 388.75 0.75 388.75"/><line class="cls-9" x1="747.28" y1="388.75" x2="747.28" y2="872.13"/><line class="cls-9" x1="747.28" y1="919.99" x2="747.28" y2="1499.03"/><line class="cls-9" x1="770.28" y1="1499.03" x2="770.28" y2="919.99"/><polyline class="cls-9" points="770.28 872.13 770.28 388.75 747.28 388.75"/><polyline class="cls-9" points="0.75 384.95 0.75 388.75 0.75 388.75"/><polyline class="cls-9" points="0.75 369.61 0.75 374.42 0.75 369.61 0.75 369.61"/><line class="cls-9" x1="0.75" y1="374.42" x2="0.75" y2="384.96"/><polyline class="cls-9" points="0.75 388.75 0.75 388.75 0.75 369.61 0.75 369.61"/><line class="cls-9" x1="0.75" y1="369.61" x2="0.75" y2="369.61"/><line class="cls-9" x1="0.75" y1="369.61" x2="0.75" y2="369.61"/><line class="cls-9" x1="0.75" y1="369.61" x2="0.75" y2="369.61"/><line class="cls-9" x1="0.75" y1="388.75" x2="0.75" y2="388.75"/><line class="cls-9" x1="0.75" y1="388.75" x2="0.75" y2="388.75"/><line class="cls-9" x1="0.75" y1="388.75" x2="0.75" y2="388.75"/><polyline class="cls-9" points="0.75 384.95 0.75 384.95 0.75 374.42"/><line class="cls-9" x1="0.75" y1="374.42" x2="0.75" y2="374.42"/><polyline class="cls-9" points="0.75 384.95 0.75 374.42 0.75 384.95"/><polyline class="cls-9" points="0.75 374.42 0.75 369.61 0.75 374.42"/><line class="cls-9" x1="0.75" y1="384.96" x2="0.75" y2="388.75"/><polyline class="cls-9" points="0.75 369.61 0.75 369.61 0.75 369.61 0.75 374.42"/><polyline class="cls-9" points="0.75 384.95 0.75 388.75 0.75 388.75 0.75 388.75"/><polyline class="cls-9" points="42.79 373.46 42.79 369.61 39.29 369.61"/><polyline class="cls-9" points="42.79 388.75 42.79 383.99 42.79 388.75 39.29 388.75"/><line class="cls-9" x1="42.79" y1="383.99" x2="42.79" y2="373.46"/><polyline class="cls-9" points="167.23 373.46 167.23 369.61 170.77 369.61"/><polyline class="cls-9" points="167.23 388.75 167.23 383.99 167.23 388.75 170.77 388.75"/><line class="cls-9" x1="167.23" y1="383.99" x2="167.23" y2="373.46"/><line class="cls-9" x1="404.66" y1="369.61" x2="167.23" y2="369.61"/><polyline class="cls-9" points="42.79 369.61 19.89 369.61 19.89 388.75 42.79 388.75"/><polyline class="cls-9" points="167.23 388.75 404.66 388.75 404.66 369.61"/><line class="cls-9" x1="167.23" y1="388.75" x2="167.07" y2="388.75"/><line class="cls-9" x1="167.02" y1="388.75" x2="166.97" y2="388.75"/><line class="cls-9" x1="167.23" y1="369.61" x2="167.07" y2="369.61"/><line class="cls-9" x1="167.02" y1="369.61" x2="166.97" y2="369.61"/><path class="cls-9" d="M131.67,401.78a85,85,0,0,0-85-85" transform="translate(0 -28.35)"/><path class="cls-9" d="M163.45,370a31.78,31.78,0,0,0-31.78,31.78" transform="translate(0 -28.35)"/><polyline class="cls-9" points="167.23 383.99 163.43 383.99 163.43 373.46 167.23 373.46 167.23 383.99"/><polyline class="cls-9" points="42.79 373.46 46.64 373.46 46.64 383.99 42.79 383.99 42.79 373.46"/><line class="cls-9" x1="46.64" y1="373.46" x2="46.64" y2="288.47"/><line class="cls-9" x1="163.43" y1="373.46" x2="163.43" y2="341.7"/><polyline class="cls-9" points="167.23 373.46 167.23 383.99 167.23 373.46"/><polyline class="cls-9" points="167.23 383.99 167.23 388.75 167.23 383.99"/><line class="cls-9" x1="167.23" y1="373.46" x2="167.23" y2="369.61"/><polyline class="cls-9" points="167.23 388.75 170.77 388.75 167.23 388.75 167.23 383.99"/><polyline class="cls-9" points="167.23 373.46 167.23 369.61 170.77 369.61 167.23 369.61"/><polyline class="cls-9" points="42.79 373.46 42.79 383.99 42.79 373.46"/><polyline class="cls-9" points="42.79 383.99 42.79 388.75 42.79 383.99"/><line class="cls-9" x1="42.79" y1="373.46" x2="42.79" y2="369.61"/><polyline class="cls-9" points="42.79 388.75 39.29 388.75 42.79 388.75 42.79 383.99"/><polyline class="cls-9" points="42.79 373.46 42.79 369.61 39.29 369.61 42.79 369.61"/><line class="cls-9" x1="518.51" y1="52.81" x2="254.39" y2="52.81"/><line class="cls-9" x1="770.28" y1="52.81" x2="743.43" y2="52.81"/><polyline class="cls-9" points="254.39 52.81 254.39 53.78 254.39 52.81"/><polyline class="cls-9" points="240 53.78 240 52.81 240 53.78"/><polyline class="cls-9" points="239.04 52.81 240 52.81 254.39 52.81 240 52.81"/><line class="cls-9" x1="514.71" y1="53.78" x2="254.39" y2="53.78"/><line class="cls-9" x1="770.28" y1="53.78" x2="747.28" y2="53.78"/><polyline class="cls-9" points="254.39 53.78 254.39 92.06 254.39 53.78"/><polyline class="cls-9" points="240 92.06 240 53.78 240 92.06"/><line class="cls-9" x1="240.01" y1="53.78" x2="239.04" y2="53.78"/><line class="cls-9" x1="770.28" y1="42.79" x2="743.43" y2="42.79"/><line class="cls-9" x1="747.28" y1="60.46" x2="747.28" y2="92.07"/><line class="cls-9" x1="743.43" y1="42.79" x2="743.43" y2="52.81"/><line class="cls-9" x1="747.28" y1="53.78" x2="747.28" y2="60.46"/><line class="cls-9" x1="514.71" y1="60.46" x2="514.71" y2="92.07"/><line class="cls-9" x1="518.51" y1="41.37" x2="518.51" y2="52.81"/><line class="cls-9" x1="514.71" y1="53.78" x2="514.71" y2="60.46"/><line class="cls-9" x1="770.28" y1="60.46" x2="770.28" y2="92.07"/><line class="cls-9" x1="770.28" y1="42.79" x2="770.28" y2="52.81"/><line class="cls-9" x1="770.28" y1="53.78" x2="770.28" y2="60.46"/><polyline class="cls-9" points="518.51 41.37 239.04 41.37 239.04 52.81"/><polyline class="cls-9" points="239.04 53.78 239.04 92.06 240 92.06"/><line class="cls-9" x1="254.39" y1="92.07" x2="514.71" y2="92.07"/><polyline class="cls-9" points="770.28 42.79 743.43 42.79 743.43 41.37 770.28 41.37 770.28 42.79"/><polyline class="cls-9" points="770.28 41.37 743.43 41.37 518.51 41.37"/><line class="cls-9" x1="514.71" y1="92.07" x2="747.28" y2="92.07"/><polyline class="cls-9" points="514.71 53.78 523.32 53.78 523.32 60.46 514.71 60.46"/><polyline class="cls-9" points="631 60.46 626.69 60.46 626.69 53.78 631 53.78"/><line class="cls-9" x1="523.32" y1="57.12" x2="626.69" y2="57.12"/><line class="cls-9" x1="523.32" y1="53.78" x2="626.69" y2="53.78"/><line class="cls-9" x1="626.69" y1="60.46" x2="523.32" y2="60.46"/><polyline class="cls-9" points="631 53.78 635.3 53.78 635.3 60.46 631 60.46"/><polyline class="cls-9" points="747.28 60.46 738.67 60.46 738.67 53.78 747.28 53.78"/><line class="cls-9" x1="635.3" y1="57.12" x2="738.67" y2="57.12"/><line class="cls-9" x1="635.3" y1="53.78" x2="738.67" y2="53.78"/><line class="cls-9" x1="738.67" y1="60.46" x2="635.3" y2="60.46"/><polyline class="cls-9" points="514.71 60.46 514.71 53.78 514.71 60.46"/><polyline class="cls-9" points="514.71 53.78 518.51 53.78 514.71 53.78"/><polyline class="cls-9" points="518.51 41.37 518.51 52.81 518.51 53.78"/><line class="cls-9" x1="514.71" y1="60.46" x2="514.71" y2="92.07"/><polyline class="cls-9" points="747.28 60.46 747.28 53.78 747.28 60.46"/><polyline class="cls-9" points="747.28 53.78 743.43 53.78 747.28 53.78"/><polyline class="cls-9" points="743.43 41.37 743.43 52.81 743.43 53.78"/><line class="cls-9" x1="747.28" y1="60.46" x2="747.28" y2="92.07"/><line class="cls-9" x1="770.28" y1="41.37" x2="770.28" y2="41.37"/><line class="cls-9" x1="770.28" y1="92.07" x2="770.28" y2="92.07"/><polyline class="cls-9" points="770.28 60.46 770.28 60.46 770.28 53.78 770.28 53.78"/><line class="cls-9" x1="770.28" y1="57.12" x2="770.28" y2="57.12"/><line class="cls-9" x1="770.28" y1="53.78" x2="770.28" y2="53.78"/><line class="cls-9" x1="770.28" y1="60.46" x2="770.28" y2="60.46"/><polyline class="cls-9" points="770.28 60.46 770.28 53.78 770.28 60.46"/><polyline class="cls-9" points="770.28 53.78 770.28 53.78 770.28 53.78"/><polyline class="cls-9" points="770.28 41.37 770.28 52.81 770.28 53.78"/><line class="cls-9" x1="770.28" y1="60.46" x2="770.28" y2="92.07"/><line class="cls-9" x1="686.61" y1="486.86" x2="652.83" y2="486.86"/><polyline class="cls-9" points="688.68 488.32 701.35 488.32 701.35 451.96"/><line class="cls-9" x1="680.68" y1="470.14" x2="680.68" y2="456.62"/><polyline class="cls-9" points="652.88 486.86 680.68 483.62 680.68 470.14"/><line class="cls-9" x1="652.88" y1="453.38" x2="680.68" y2="456.62"/><line class="cls-9" x1="652.88" y1="486" x2="680.68" y2="482.75"/><line class="cls-9" x1="652.88" y1="454.24" x2="680.68" y2="457.48"/><line class="cls-9" x1="686.66" y1="453.38" x2="652.83" y2="453.38"/><line class="cls-9" x1="701.35" y1="451.96" x2="688.69" y2="451.96"/><polyline class="cls-9" points="652.88 486.86 649.13 486.4 645.59 484.98 642.5 482.7 640.01 479.67 638.24 476.07 637.33 472.17 637.33 468.12 638.24 464.17 640.01 460.62 642.5 457.58 645.59 455.3 649.13 453.89 652.88 453.38"/><polyline class="cls-9" points="652.88 486 649.33 485.54 645.99 484.22 643.05 482.05 640.67 479.16 639.05 475.76 638.19 472.07 638.19 468.22 639.05 464.52 640.67 461.13 643.05 458.24 645.99 456.06 649.33 454.7 652.88 454.24"/><path class="cls-9" d="M686.56,482.18a154.36,154.36,0,0,0,0,32.59" transform="translate(0 -28.35)"/><path class="cls-9" d="M686.57,514.75a2.13,2.13,0,0,0,2.14,1.87" transform="translate(0 -28.35)"/><path class="cls-9" d="M688.71,480.26a2.13,2.13,0,0,0-2.14,1.89" transform="translate(0 -28.35)"/><path class="cls-9" d="M695.17,498.47a1.8,1.8,0,1,0-1.8,1.75,1.78,1.78,0,0,0,1.8-1.75" transform="translate(0 -28.35)"/><polyline class="cls-9" points="543.78 410.63 543.78 388.75 492.13 388.75 492.13 410.63"/><line class="cls-9" x1="509.8" y1="388.75" x2="526.11" y2="388.75"/><line class="cls-9" x1="513.6" y1="406.33" x2="516.38" y2="406.33"/><line class="cls-9" x1="517.95" y1="401.97" x2="517.95" y2="404.71"/><line class="cls-9" x1="519.58" y1="406.33" x2="522.31" y2="406.33"/><line class="cls-9" x1="517.95" y1="407.9" x2="517.95" y2="410.68"/><path class="cls-9" d="M540.61,440.33a23.08,23.08,0,0,0-8.93-10.89" transform="translate(0 -28.35)"/><path class="cls-9" d="M531.68,429.42A23.1,23.1,0,0,0,518,426.19" transform="translate(0 -28.35)"/><path class="cls-9" d="M504.23,429.44a23.08,23.08,0,0,0-8.93,10.89" transform="translate(0 -28.35)"/><path class="cls-9" d="M518,426.19a23.08,23.08,0,0,0-13.72,3.23" transform="translate(0 -28.35)"/><path class="cls-9" d="M519.78,456.29A42.44,42.44,0,0,0,535.47,452" transform="translate(0 -28.35)"/><path class="cls-9" d="M492.14,439a13.16,13.16,0,0,0,4.9,10.82" transform="translate(0 -28.35)"/><path class="cls-9" d="M516.17,456.29a24.3,24.3,0,0,0,3.62,0" transform="translate(0 -28.35)"/><path class="cls-9" d="M532.45,430.27a94.81,94.81,0,0,0-28.93,0" transform="translate(0 -28.35)"/><path class="cls-9" d="M500.83,421.23a32.48,32.48,0,0,0-7.33,21.12" transform="translate(0 -28.35)"/><path class="cls-9" d="M518,418.17a64.57,64.57,0,0,0-14.79,1.6" transform="translate(0 -28.35)"/><path class="cls-9" d="M503.2,419.74a4.34,4.34,0,0,0-2.4,1.49" transform="translate(0 -28.35)"/><path class="cls-9" d="M518,420.2a109.34,109.34,0,0,0-14.57,1" transform="translate(0 -28.35)"/><path class="cls-9" d="M500.79,422.64a29.22,29.22,0,0,0-7.3,19.69" transform="translate(0 -28.35)"/><path class="cls-9" d="M503.41,421.2a4.37,4.37,0,0,0-2.66,1.42" transform="translate(0 -28.35)"/><path class="cls-9" d="M542.47,442.34a29.26,29.26,0,0,0-7.32-19.68" transform="translate(0 -28.35)"/><path class="cls-9" d="M542.46,442.31a32.43,32.43,0,0,0-7.35-21.11" transform="translate(0 -28.35)"/><path class="cls-9" d="M532.51,421.22a112.5,112.5,0,0,0-14.56-1" transform="translate(0 -28.35)"/><path class="cls-9" d="M532.76,419.7a64.64,64.64,0,0,0-14.8-1.58" transform="translate(0 -28.35)"/><path class="cls-9" d="M535.2,422.62a4.29,4.29,0,0,0-2.65-1.42" transform="translate(0 -28.35)"/><path class="cls-9" d="M535.16,421.17a4.34,4.34,0,0,0-2.4-1.48" transform="translate(0 -28.35)"/><path class="cls-9" d="M538.92,449.77a13.16,13.16,0,0,0,4.9-10.82" transform="translate(0 -28.35)"/><path class="cls-9" d="M535.49,452a20.4,20.4,0,0,0,3.44-2.22" transform="translate(0 -28.35)"/><path class="cls-9" d="M497,449.81a20.4,20.4,0,0,0,3.44,2.22" transform="translate(0 -28.35)"/><path class="cls-9" d="M500.49,452a42.44,42.44,0,0,0,15.69,4.27" transform="translate(0 -28.35)"/><path class="cls-9" d="M510.87,452.62a30.25,30.25,0,0,0,14.22,0" transform="translate(0 -28.35)"/><path class="cls-9" d="M538,446.68a7.75,7.75,0,0,0,2.66-6.38" transform="translate(0 -28.35)"/><path class="cls-9" d="M525.08,452.64A28.11,28.11,0,0,0,538,446.73" transform="translate(0 -28.35)"/><path class="cls-9" d="M495.33,440.3a7.75,7.75,0,0,0,2.66,6.38" transform="translate(0 -28.35)"/><path class="cls-9" d="M498,446.73a28.11,28.11,0,0,0,12.88,5.91" transform="translate(0 -28.35)"/><path class="cls-9" d="M521.35,434.65A3.37,3.37,0,1,0,518,438a3.37,3.37,0,0,0,3.37-3.37" transform="translate(0 -28.35)"/><path class="cls-9" d="M520.39,434.65a2.41,2.41,0,1,0-2.41,2.41,2.4,2.4,0,0,0,2.41-2.41" transform="translate(0 -28.35)"/><polyline class="cls-9" points="0.75 919.99 34.23 919.99 34.23 872.13 0.75 872.13 0.75 919.99"/><polyline class="cls-9" points="0.75 1546.89 34.23 1546.89 34.23 1499.03 0.75 1499.03 0.75 1546.89"/><polyline class="cls-9" points="732.95 919.99 770.28 919.99 770.28 872.13 732.95 872.13 732.95 919.99"/><polyline class="cls-9" points="732.95 1546.89 770.28 1546.89 770.28 1499.03 732.95 1499.03 732.95 1546.89"/><polyline class="cls-9" points="0.75 186.52 0.75 187.48 0.75 186.52"/><line class="cls-9" x1="0.75" y1="187.48" x2="0.75" y2="187.48"/><line class="cls-9" x1="0.75" y1="201.87" x2="0.75" y2="201.87"/><line class="cls-9" x1="0.75" y1="186.52" x2="0.75" y2="186.52"/><line class="cls-9" x1="0.75" y1="221.01" x2="0.75" y2="221.01"/><line class="cls-9" x1="0.75" y1="201.87" x2="0.75" y2="221.01"/><polyline class="cls-9" points="19.89 187.48 19.89 186.52 19.89 187.48"/><line class="cls-9" x1="240.01" y1="187.48" x2="190.73" y2="187.48"/><line class="cls-9" x1="97.89" y1="187.48" x2="34.23" y2="187.48"/><line class="cls-9" x1="254.39" y1="201.87" x2="194.52" y2="201.87"/><line class="cls-9" x1="94.04" y1="201.87" x2="19.89" y2="201.87"/><polyline class="cls-9" points="98.85 201.87 98.85 186.52 97.89 186.52"/><line class="cls-9" x1="97.89" y1="201.87" x2="98.85" y2="201.87"/><line class="cls-9" x1="97.89" y1="187.48" x2="97.89" y2="201.87"/><polyline class="cls-9" points="189.76 201.87 189.76 186.52 190.73 186.52"/><line class="cls-9" x1="190.73" y1="201.87" x2="189.76" y2="201.87"/><line class="cls-9" x1="190.73" y1="187.48" x2="190.73" y2="201.87"/><line class="cls-9" x1="94.04" y1="209.51" x2="94.04" y2="221.01"/><line class="cls-9" x1="97.89" y1="201.87" x2="94.04" y2="201.87"/><line class="cls-9" x1="94.04" y1="201.87" x2="94.04" y2="209.51"/><line class="cls-9" x1="194.52" y1="209.51" x2="194.52" y2="221.01"/><line class="cls-9" x1="190.73" y1="201.87" x2="194.52" y2="201.87"/><line class="cls-9" x1="194.52" y1="201.87" x2="194.52" y2="209.51"/><line class="cls-9" x1="19.89" y1="221.01" x2="94.04" y2="221.01"/><line class="cls-9" x1="194.52" y1="221.01" x2="273.53" y2="221.01"/><line class="cls-9" x1="239.04" y1="186.52" x2="190.73" y2="186.52"/><line class="cls-9" x1="97.89" y1="186.52" x2="35.19" y2="186.52"/><line class="cls-9" x1="19.89" y1="201.87" x2="19.89" y2="221.01"/><path class="cls-9" d="M176.17,281.38a87,87,0,0,0,11.67-43.54" transform="translate(0 -28.35)"/><line class="cls-9" x1="191.69" y1="209.51" x2="194.52" y2="209.51"/><line class="cls-9" x1="191.69" y1="201.87" x2="194.52" y2="201.87"/><line class="cls-9" x1="96.93" y1="209.51" x2="94.04" y2="209.51"/><line class="cls-9" x1="96.93" y1="201.87" x2="94.04" y2="201.87"/><line class="cls-9" x1="191.69" y1="201.87" x2="187.84" y2="201.87"/><line class="cls-9" x1="187.84" y1="201.87" x2="187.84" y2="209.51"/><line class="cls-9" x1="187.84" y1="209.51" x2="191.69" y2="209.51"/><line class="cls-9" x1="191.69" y1="209.51" x2="191.69" y2="201.87"/><line class="cls-9" x1="96.93" y1="209.51" x2="100.73" y2="209.51"/><line class="cls-9" x1="100.73" y1="209.51" x2="100.73" y2="201.87"/><line class="cls-9" x1="100.73" y1="201.87" x2="96.93" y2="201.87"/><line class="cls-9" x1="96.93" y1="201.87" x2="96.93" y2="209.51"/><line class="cls-9" x1="100.73" y1="209.51" x2="176.19" y2="253.07"/><line class="cls-9" x1="190.73" y1="201.87" x2="194.52" y2="201.87"/><line class="cls-9" x1="190.73" y1="201.87" x2="194.52" y2="201.87"/><line class="cls-9" x1="97.89" y1="201.87" x2="94.04" y2="201.87"/><line class="cls-9" x1="97.89" y1="201.87" x2="94.04" y2="201.87"/><line class="cls-9" x1="189.76" y1="201.87" x2="189.76" y2="186.52"/><line class="cls-9" x1="98.85" y1="201.87" x2="98.85" y2="186.52"/><polyline class="cls-9" points="240 186.52 240 187.48 240 186.52 240 92.06"/><polyline class="cls-9" points="254.39 187.48 254.39 201.87 254.39 187.48 254.39 92.06"/><polyline class="cls-9" points="273.53 221.01 273.53 201.87 273.53 92.06"/><line class="cls-9" x1="239.04" y1="92.07" x2="239.04" y2="186.52"/><polyline class="cls-9" points="770.28 168.64 770.28 92.06 770.28 72.92 747.28 72.92 747.28 92.06 747.28 168.64"/></svg>