<svg id="_17_2" data-name="17_2" xmlns="http://www.w3.org/2000/svg" viewBox="0 0 817.93 1615.98"><defs><style>.cls-1{isolation:isolate;font-size:12px;fill:#969696;}.cls-1,.cls-6,.cls-8{font-family:PTSans-Regular, PT Sans;}.cls-2{letter-spacing:-0.01em;}.cls-10,.cls-3,.cls-4,.cls-5,.cls-7,.cls-9{fill:none;stroke-linecap:round;stroke-linejoin:round;}.cls-3{stroke:#969696;stroke-width:0.75px;}.cls-4,.cls-5,.cls-7,.cls-9{stroke:#000;}.cls-10,.cls-4,.cls-5{stroke-width:0.25px;}.cls-5{stroke-dasharray:0.99 0.99;}.cls-6{font-size:40px;}.cls-8{font-size:36px;}.cls-9{stroke-width:1.5px;}.cls-10{stroke:#bababa;}</style></defs><title>2floor_17_2office</title><text class="cls-1" transform="translate(400.83 1612.79)"><tspan class="cls-2">у</tspan><tspan x="5.42" y="0">лица</tspan></text><line class="cls-3" x1="390.07" y1="1615.61" x2="390.07" y2="1606.81"/><polyline class="cls-3" points="386.57 1612.11 390.07 1615.61 393.57 1612.11"/><text class="cls-1" transform="translate(403.4 10.2)">двор</text><line class="cls-3" x1="392.64" y1="4.22" x2="392.64" y2="13.02"/><polyline class="cls-3" points="396.14 7.72 392.64 4.22 389.14 7.72"/><line class="cls-4" x1="308.92" y1="453.8" x2="308.92" y2="454.3"/><line class="cls-5" x1="308.92" y1="455.29" x2="308.92" y2="561.97"/><line class="cls-4" x1="308.92" y1="562.47" x2="308.92" y2="562.97"/><line class="cls-4" x1="316.61" y1="453.8" x2="316.61" y2="454.3"/><line class="cls-5" x1="316.61" y1="455.29" x2="316.61" y2="561.97"/><line class="cls-4" x1="316.61" y1="562.47" x2="316.61" y2="562.97"/><text class="cls-6" transform="translate(370.06 933.91)">№17</text><text class="cls-6" transform="translate(353.54 987.64)">111.18</text><text class="cls-6" transform="translate(365.1 876.89)">Офис</text><polyline class="cls-7" points="342.31 1004.3 342.31 836.42 482.31 836.42 482.31 1004.3"/><line class="cls-7" x1="342.31" y1="892.49" x2="482.31" y2="892.49"/><line class="cls-7" x1="342.31" y1="1004.3" x2="482.31" y2="1004.3"/><line class="cls-7" x1="342.31" y1="948.55" x2="482.31" y2="948.55"/><text class="cls-8" transform="translate(369.22 1362.37)">86.75</text><text class="cls-8" transform="translate(557.49 305.04)">18.78</text><text class="cls-8" transform="translate(151.52 515.08)">5.65</text><line class="cls-9" x1="0.75" y1="1567.02" x2="72.06" y2="1567.02"/><line class="cls-9" x1="695.12" y1="1567.02" x2="804.73" y2="1567.02"/><line class="cls-9" x1="321.85" y1="1567.02" x2="445.33" y2="1567.02"/><line class="cls-9" x1="804.73" y1="1567.02" x2="805.69" y2="1567.02"/><line class="cls-9" x1="0.75" y1="1566.05" x2="68.21" y2="1566.05"/><line class="cls-9" x1="698.97" y1="1566.05" x2="766.44" y2="1566.05"/><line class="cls-9" x1="325.7" y1="1566.05" x2="441.48" y2="1566.05"/><line class="cls-9" x1="766.44" y1="1566.05" x2="804.73" y2="1566.05"/><line class="cls-9" x1="68.21" y1="1560.28" x2="68.21" y2="1527.76"/><line class="cls-9" x1="72.06" y1="1578.46" x2="72.06" y2="1567.02"/><line class="cls-9" x1="68.21" y1="1566.05" x2="68.21" y2="1560.28"/><line class="cls-9" x1="325.7" y1="1560.28" x2="325.7" y2="1527.76"/><line class="cls-9" x1="321.85" y1="1578.46" x2="321.85" y2="1567.02"/><line class="cls-9" x1="325.7" y1="1566.05" x2="325.7" y2="1560.28"/><line class="cls-9" x1="441.48" y1="1560.28" x2="441.48" y2="1527.76"/><line class="cls-9" x1="445.33" y1="1578.46" x2="445.33" y2="1567.02"/><line class="cls-9" x1="441.48" y1="1566.05" x2="441.48" y2="1560.28"/><line class="cls-9" x1="698.97" y1="1560.28" x2="698.97" y2="1527.76"/><line class="cls-9" x1="695.12" y1="1578.46" x2="695.12" y2="1567.02"/><line class="cls-9" x1="698.97" y1="1566.05" x2="698.97" y2="1560.28"/><polyline class="cls-9" points="72.06 1578.46 0.75 1578.46 0.75 1527.76"/><line class="cls-9" x1="321.85" y1="1578.46" x2="445.33" y2="1578.46"/><line class="cls-9" x1="695.12" y1="1578.46" x2="817.18" y2="1578.46"/><line class="cls-9" x1="737.72" y1="1527.76" x2="698.97" y2="1527.76"/><line class="cls-9" x1="441.48" y1="1527.76" x2="325.7" y2="1527.76"/><line class="cls-9" x1="68.21" y1="1527.76" x2="34.23" y2="1527.76"/><line class="cls-9" x1="0.75" y1="1527.76" x2="0.75" y2="1527.76"/><line class="cls-9" x1="321.85" y1="1578.46" x2="72.06" y2="1578.46"/><line class="cls-9" x1="325.7" y1="1527.76" x2="68.21" y2="1527.76"/><polyline class="cls-9" points="325.7 1560.28 318.06 1560.28 318.06 1566.05 325.7 1566.05"/><polyline class="cls-9" points="240.82 1566.05 244.67 1566.05 244.67 1560.28 240.82 1560.28"/><line class="cls-9" x1="318.06" y1="1563.17" x2="244.67" y2="1563.17"/><line class="cls-9" x1="318.06" y1="1560.28" x2="244.67" y2="1560.28"/><line class="cls-9" x1="244.67" y1="1566.05" x2="318.06" y2="1566.05"/><polyline class="cls-9" points="240.82 1560.28 239.4 1560.28 239.4 1564.13 237.02 1564.13 237.02 1566.05 240.82 1566.05"/><polyline class="cls-9" points="153.1 1566.05 156.9 1566.05 156.9 1564.13 154.51 1564.13 154.51 1560.28 153.1 1560.28"/><line class="cls-9" x1="156.9" y1="1566.05" x2="237.02" y2="1566.05"/><polyline class="cls-9" points="239.4 1558.41 233.63 1558.41 160.29 1558.41"/><polyline class="cls-9" points="233.63 1558.41 233.63 1564.13 239.4 1564.13 239.4 1558.41"/><polyline class="cls-9" points="154.51 1564.13 160.29 1564.13 160.29 1558.41 154.51 1558.41 154.51 1564.13"/><line class="cls-9" x1="160.29" y1="1564.13" x2="233.63" y2="1564.13"/><line class="cls-9" x1="233.63" y1="1558.41" x2="160.29" y2="1558.41"/><line class="cls-9" x1="233.63" y1="1561.24" x2="160.29" y2="1561.24"/><polyline class="cls-9" points="153.1 1560.28 149.25 1560.28 149.25 1566.05 153.1 1566.05"/><polyline class="cls-9" points="68.21 1566.05 75.86 1566.05 75.86 1560.28 68.21 1560.28"/><line class="cls-9" x1="149.25" y1="1563.17" x2="75.86" y2="1563.17"/><line class="cls-9" x1="149.25" y1="1560.28" x2="75.86" y2="1560.28"/><line class="cls-9" x1="75.86" y1="1566.05" x2="149.25" y2="1566.05"/><polyline class="cls-9" points="325.7 1560.28 325.7 1566.05 325.7 1560.28"/><polyline class="cls-9" points="325.7 1566.05 321.85 1566.05 325.7 1566.05"/><polyline class="cls-9" points="321.85 1578.46 321.85 1567.02 321.85 1566.05"/><line class="cls-9" x1="325.7" y1="1560.28" x2="325.7" y2="1527.76"/><polyline class="cls-9" points="68.21 1560.28 68.21 1566.05 68.21 1560.28"/><polyline class="cls-9" points="68.21 1566.05 72.06 1566.05 68.21 1566.05"/><polyline class="cls-9" points="72.06 1578.46 72.06 1567.02 72.06 1566.05"/><line class="cls-9" x1="68.21" y1="1560.28" x2="68.21" y2="1527.76"/><line class="cls-9" x1="695.12" y1="1578.46" x2="445.33" y2="1578.46"/><line class="cls-9" x1="698.97" y1="1527.76" x2="441.48" y2="1527.76"/><polyline class="cls-9" points="698.97 1560.28 691.33 1560.28 691.33 1566.05 698.97 1566.05"/><polyline class="cls-9" points="614.09 1566.05 617.94 1566.05 617.94 1560.28 614.09 1560.28"/><line class="cls-9" x1="691.33" y1="1563.17" x2="617.94" y2="1563.17"/><line class="cls-9" x1="691.33" y1="1560.28" x2="617.94" y2="1560.28"/><line class="cls-9" x1="617.94" y1="1566.05" x2="691.33" y2="1566.05"/><polyline class="cls-9" points="614.09 1560.28 612.67 1560.28 612.67 1564.13 610.29 1564.13 610.29 1566.05 614.09 1566.05"/><polyline class="cls-9" points="526.37 1566.05 530.22 1566.05 530.22 1564.13 527.79 1564.13 527.79 1560.28 526.37 1560.28"/><line class="cls-9" x1="530.22" y1="1566.05" x2="610.29" y2="1566.05"/><polyline class="cls-9" points="612.67 1558.41 606.95 1558.41 533.56 1558.41"/><polyline class="cls-9" points="606.95 1558.41 606.95 1564.13 612.67 1564.13 612.67 1558.41"/><polyline class="cls-9" points="527.79 1564.13 533.56 1564.13 533.56 1558.41 527.79 1558.41 527.79 1564.13"/><line class="cls-9" x1="533.56" y1="1564.13" x2="606.95" y2="1564.13"/><line class="cls-9" x1="606.95" y1="1558.41" x2="533.56" y2="1558.41"/><line class="cls-9" x1="606.95" y1="1561.24" x2="533.56" y2="1561.24"/><polyline class="cls-9" points="526.37 1560.28 522.52 1560.28 522.52 1566.05 526.37 1566.05"/><polyline class="cls-9" points="441.48 1566.05 449.18 1566.05 449.18 1560.28 441.48 1560.28"/><line class="cls-9" x1="522.52" y1="1563.17" x2="449.18" y2="1563.17"/><line class="cls-9" x1="522.52" y1="1560.28" x2="449.18" y2="1560.28"/><line class="cls-9" x1="449.18" y1="1566.05" x2="522.52" y2="1566.05"/><polyline class="cls-9" points="698.97 1560.28 698.97 1566.05 698.97 1560.28"/><polyline class="cls-9" points="698.97 1566.05 695.13 1566.05 698.97 1566.05"/><polyline class="cls-9" points="695.13 1578.46 695.13 1567.02 695.13 1566.05"/><line class="cls-9" x1="698.97" y1="1560.28" x2="698.97" y2="1527.76"/><polyline class="cls-9" points="441.48 1560.28 441.48 1566.05 441.48 1560.28"/><polyline class="cls-9" points="441.48 1566.05 445.33 1566.05 441.48 1566.05"/><polyline class="cls-9" points="445.33 1578.46 445.33 1567.02 445.33 1566.05"/><line class="cls-9" x1="441.48" y1="1560.28" x2="441.48" y2="1527.76"/><polyline class="cls-9" points="805.69 388.76 805.69 1566.05 805.69 1567.02 805.69 1566.05"/><polyline class="cls-9" points="804.73 388.76 804.73 1527.76 804.73 1566.05 804.73 1527.76"/><polyline class="cls-9" points="817.18 1578.46 817.18 1567.02 817.18 388.76"/><line class="cls-9" x1="766.44" y1="388.76" x2="766.44" y2="872.14"/><line class="cls-9" x1="766.44" y1="920" x2="766.44" y2="1499.05"/><line class="cls-9" x1="805.69" y1="388.76" x2="805.69" y2="168.64"/><line class="cls-9" x1="804.73" y1="388.76" x2="804.73" y2="168.64"/><line class="cls-9" x1="817.18" y1="388.76" x2="817.18" y2="168.64"/><polyline class="cls-9" points="805.69 168.64 805.69 53.78 805.69 52.81 805.69 53.78"/><polyline class="cls-9" points="804.73 168.64 804.73 92.07 804.73 53.78 804.73 92.07"/><polyline class="cls-9" points="817.18 41.37 817.18 52.81 817.18 168.64"/><polyline class="cls-9" points="0.75 369.61 0.75 369.61 0.75 92.07 0.75 92.07"/><polyline class="cls-9" points="527.18 92.07 527.18 221.27 498.46 221.27 498.46 92.07 527.18 92.07"/><polyline class="cls-9" points="498.46 92.07 498.46 221.27 469.74 221.27 469.74 92.07 498.46 92.07"/><polyline class="cls-9" points="469.74 92.07 469.74 221.27 441.03 221.27 441.03 92.07 469.74 92.07"/><polyline class="cls-9" points="441.03 92.07 441.03 221.27 412.31 221.27 412.31 92.07 441.03 92.07"/><polyline class="cls-9" points="412.31 92.07 412.31 221.27 383.59 221.27 383.59 92.07 412.31 92.07"/><polyline class="cls-9" points="383.59 92.07 383.59 221.27 354.88 221.27 354.88 92.07 383.59 92.07"/><polyline class="cls-9" points="354.88 92.07 354.88 221.27 326.16 221.27 326.16 92.07 354.88 92.07"/><polyline class="cls-9" points="326.16 92.07 326.16 221.27 297.44 221.27 297.44 92.07 326.16 92.07"/><polyline class="cls-9" points="297.44 92.07 297.44 221.27 268.73 221.27 268.73 92.07 297.44 92.07"/><polyline class="cls-9" points="268.73 92.07 268.73 221.27 240.01 221.27 240.01 92.07 268.73 92.07"/><polyline class="cls-9" points="240.01 92.07 240.01 221.27 211.34 221.27 211.34 92.07 240.01 92.07"/><polyline class="cls-9" points="211.34 92.07 211.34 221.27 182.62 221.27 182.62 92.07 211.34 92.07"/><polyline class="cls-9" points="211.34 369.61 240.06 369.61 240.06 240.41 211.34 240.41 211.34 369.61 211.34 240.41 182.62 240.41 182.62 369.61 19.89 369.61 19.89 92.07 182.62 92.07 182.62 221.27 149.1 221.27 149.1 240.41 182.62 240.41 182.62 369.61 211.34 369.61"/><polyline class="cls-9" points="240.06 369.61 240.06 240.41 268.73 240.41 268.73 369.61 240.06 369.61"/><polyline class="cls-9" points="268.73 369.61 268.73 240.41 297.44 240.41 297.44 369.61 268.73 369.61"/><polyline class="cls-9" points="297.44 369.61 297.44 240.41 326.16 240.41 326.16 369.61 297.44 369.61"/><polyline class="cls-9" points="326.16 369.61 326.16 240.41 354.88 240.41 354.88 369.61 326.16 369.61"/><polyline class="cls-9" points="354.88 369.61 354.88 240.41 383.59 240.41 383.59 369.61 354.88 369.61"/><polyline class="cls-9" points="383.59 369.61 383.59 240.41 412.31 240.41 412.31 369.61 383.59 369.61"/><polyline class="cls-9" points="412.31 369.61 412.31 240.41 441.03 240.41 441.03 369.61 412.31 369.61"/><polyline class="cls-9" points="441.03 369.61 441.03 240.41 469.74 240.41 469.74 369.61 441.03 369.61"/><polyline class="cls-9" points="469.74 369.61 469.74 240.41 498.46 240.41 498.46 369.61 469.74 369.61"/><polyline class="cls-9" points="498.46 369.61 498.46 240.41 527.18 240.41 527.18 369.61 498.46 369.61"/><polyline class="cls-9" points="527.18 156.69 498.46 156.69 182.62 156.69 103.67 156.69 103.67 305.04 182.62 305.04 498.46 305.04 527.18 305.04 508.03 328.94"/><line class="cls-9" x1="508.03" y1="281.08" x2="527.18" y2="305.04"/><polyline class="cls-9" points="153.91 235.65 153.91 235.65 153.91 226.08 182.62 226.08 527.18 226.08 527.18 222.23 182.62 222.23 150.06 222.23 150.06 239.45 153.91 239.45 527.18 239.45 527.18 235.65 153.91 235.65 153.91 226.08 182.62 226.08 527.18 226.08 527.18 222.23 182.62 222.23 150.06 222.23 150.06 239.45 153.91 239.45 527.18 239.45 527.18 235.65 153.91 235.65"/><line class="cls-9" x1="0.75" y1="168.64" x2="0.75" y2="369.61"/><line class="cls-9" x1="19.89" y1="369.61" x2="19.89" y2="168.64"/><line class="cls-9" x1="0.75" y1="589.78" x2="0.75" y2="589.78"/><polyline class="cls-9" points="0.75 597.42 0.75 597.42 0.75 589.78"/><line class="cls-9" x1="308.94" y1="455.81" x2="316.59" y2="455.81"/><line class="cls-9" x1="308.94" y1="553.46" x2="316.59" y2="553.46"/><line class="cls-9" x1="308.94" y1="388.76" x2="308.94" y2="455.81"/><line class="cls-9" x1="308.94" y1="553.46" x2="308.94" y2="589.78"/><line class="cls-9" x1="316.59" y1="597.42" x2="316.59" y2="553.46"/><polyline class="cls-9" points="316.59 455.81 316.59 388.76 308.94 388.76"/><line class="cls-9" x1="308.94" y1="553.46" x2="316.59" y2="553.46"/><line class="cls-9" x1="308.94" y1="455.81" x2="316.59" y2="455.81"/><polyline class="cls-9" points="65.83 398.33 61.98 398.33 58.18 398.33"/><polyline class="cls-9" points="65.83 436.62 61.98 436.62 58.18 436.62"/><line class="cls-9" x1="58.18" y1="388.76" x2="58.18" y2="398.33"/><line class="cls-9" x1="58.18" y1="444.32" x2="58.18" y2="519.88"/><line class="cls-9" x1="65.83" y1="527.58" x2="65.83" y2="436.62"/><polyline class="cls-9" points="65.83 398.33 65.83 388.76 58.18 388.76"/><line class="cls-9" x1="65.83" y1="436.62" x2="65.83" y2="398.33"/><line class="cls-9" x1="58.18" y1="436.62" x2="58.18" y2="398.33"/><path class="cls-9" d="M65.86,464.91a38.14,38.14,0,0,0,13.08-2.31" transform="translate(0 -28.34)"/><line class="cls-9" x1="65.83" y1="398.33" x2="78.95" y2="434.34"/><polyline class="cls-9" points="58.18 436.62 61.98 436.62 65.83 436.62 61.98 436.62"/><polyline class="cls-9" points="58.18 398.33 61.98 398.33 65.83 398.33 61.98 398.33"/><polyline class="cls-9" points="58.18 519.88 19.89 519.88 19.89 527.58"/><polyline class="cls-9" points="65.83 527.58 58.18 527.58 19.89 527.58"/><polyline class="cls-9" points="58.18 436.62 19.89 436.62 19.89 444.32 58.18 444.32"/><polyline class="cls-9" points="0.75 444.32 0.75 444.32 0.75 436.62 0.75 436.62"/><polyline class="cls-9" points="0.75 527.58 0.75 527.58 0.75 519.88 0.75 519.88"/><line class="cls-9" x1="0.75" y1="691.25" x2="0.75" y2="369.61"/><polyline class="cls-9" points="19.89 388.76 0.75 388.76 0.75 388.76"/><polyline class="cls-9" points="19.89 388.76 362.52 388.76 362.52 369.61 19.89 369.61"/><polyline class="cls-9" points="316.59 597.42 308.94 597.42 19.89 597.42"/><polyline class="cls-9" points="308.94 589.78 19.89 589.78 19.89 597.42"/><polyline class="cls-9" points="751.14 52.81 752.1 52.81 751.14 52.81"/><polyline class="cls-9" points="751.55 187.49 752.1 187.49 751.55 187.49"/><polyline class="cls-9" points="752.1 52.81 754.58 52.81 752.1 52.81"/><polyline class="cls-9" points="757.93 201.87 766.44 201.87 757.93 201.87"/><line class="cls-9" x1="751.14" y1="41.37" x2="751.14" y2="52.81"/><line class="cls-9" x1="766.44" y1="221.01" x2="766.44" y2="201.87"/><line class="cls-9" x1="766.44" y1="201.87" x2="766.44" y2="92.07"/><line class="cls-9" x1="543.44" y1="49.98" x2="543.44" y2="52.81"/><polyline class="cls-9" points="543.44 41.37 543.44 45.17 543.44 49.98"/><line class="cls-9" x1="743.49" y1="49.98" x2="743.49" y2="52.81"/><polyline class="cls-9" points="751.14 41.37 743.49 41.37 743.49 45.17 743.49 49.98"/><polyline class="cls-9" points="543.44 41.37 528.14 41.37 528.14 52.81 543.44 52.81"/><polyline class="cls-9" points="743.49 52.81 751.14 52.81 751.14 41.37"/><line class="cls-9" x1="743.49" y1="41.37" x2="543.44" y2="41.37"/><line class="cls-9" x1="743.49" y1="52.81" x2="543.44" y2="52.81"/><polyline class="cls-9" points="743.49 45.17 738.68 45.17 738.68 49.98 743.49 49.98"/><polyline class="cls-9" points="543.44 49.98 548.25 49.98 548.25 45.17 543.44 45.17"/><line class="cls-9" x1="738.68" y1="47.55" x2="548.25" y2="47.55"/><line class="cls-9" x1="738.68" y1="45.17" x2="548.25" y2="45.17"/><line class="cls-9" x1="548.25" y1="49.98" x2="738.68" y2="49.98"/><polyline class="cls-9" points="743.49 49.98 743.49 45.17 743.49 49.98"/><line class="cls-9" x1="743.49" y1="41.37" x2="743.49" y2="45.17"/><line class="cls-9" x1="743.49" y1="49.98" x2="743.49" y2="52.81"/><polyline class="cls-9" points="543.44 49.98 543.44 45.17 543.44 49.98"/><line class="cls-9" x1="543.44" y1="41.37" x2="543.44" y2="45.17"/><line class="cls-9" x1="543.44" y1="49.98" x2="543.44" y2="52.81"/><polyline class="cls-9" points="805.69 52.81 804.73 52.81 766.44 52.81"/><polyline class="cls-9" points="766.44 52.81 766.44 53.78 766.44 52.81"/><polyline class="cls-9" points="754.58 52.81 766.44 52.81 754.58 52.81"/><line class="cls-9" x1="804.73" y1="53.78" x2="766.44" y2="53.78"/><polyline class="cls-9" points="766.44 53.78 766.44 92.07 766.44 53.78"/><line class="cls-9" x1="817.18" y1="41.37" x2="751.14" y2="41.37"/><line class="cls-9" x1="19.89" y1="695.07" x2="48.61" y2="695.07"/><polyline class="cls-9" points="56.26 687.42 19.89 687.42 19.89 695.07"/><line class="cls-9" x1="48.61" y1="695.07" x2="48.61" y2="723.79"/><polyline class="cls-9" points="56.26 687.42 56.26 695.07 56.26 731.44"/><polyline class="cls-9" points="48.61 723.79 19.89 723.79 19.89 731.44"/><polyline class="cls-9" points="56.26 731.44 48.61 731.44 19.89 731.44"/><line class="cls-9" x1="0.75" y1="388.76" x2="0.75" y2="872.14"/><line class="cls-9" x1="0.75" y1="920" x2="0.75" y2="1499.05"/><line class="cls-9" x1="19.89" y1="1499.05" x2="19.89" y2="920"/><polyline class="cls-9" points="19.89 872.13 19.89 388.76 0.75 388.76"/><polyline class="cls-9" points="743.49 373.46 743.49 369.61 747.04 369.61"/><polyline class="cls-9" points="743.49 388.76 743.49 384 743.49 388.76 747.04 388.76"/><line class="cls-9" x1="743.49" y1="384" x2="743.49" y2="373.46"/><polyline class="cls-9" points="619.05 373.46 619.05 369.61 615.51 369.61"/><polyline class="cls-9" points="619.05 388.76 619.05 384 619.05 388.76 615.51 388.76"/><line class="cls-9" x1="619.05" y1="384" x2="619.05" y2="373.46"/><line class="cls-9" x1="362.52" y1="388.76" x2="619.05" y2="388.76"/><line class="cls-9" x1="743.49" y1="388.76" x2="766.44" y2="388.76"/><line class="cls-9" x1="766.44" y1="369.61" x2="743.49" y2="369.61"/><polyline class="cls-9" points="619.05 369.61 362.52 369.61 362.52 388.76"/><line class="cls-9" x1="619.05" y1="388.76" x2="619.25" y2="388.76"/><line class="cls-9" x1="619.31" y1="388.76" x2="619.31" y2="388.76"/><line class="cls-9" x1="619.41" y1="388.76" x2="619.41" y2="388.76"/><line class="cls-9" x1="743.24" y1="388.76" x2="743.29" y2="388.76"/><line class="cls-9" x1="743.34" y1="388.76" x2="743.49" y2="388.76"/><line class="cls-9" x1="619.05" y1="369.61" x2="619.25" y2="369.61"/><line class="cls-9" x1="619.31" y1="369.61" x2="619.31" y2="369.61"/><line class="cls-9" x1="619.41" y1="369.61" x2="619.41" y2="369.61"/><line class="cls-9" x1="743.24" y1="369.61" x2="743.29" y2="369.61"/><line class="cls-9" x1="743.34" y1="369.61" x2="743.49" y2="369.61"/><path class="cls-9" d="M739.72,316.77a85,85,0,0,0-85,85" transform="translate(0 -28.34)"/><path class="cls-9" d="M654.71,401.78A31.78,31.78,0,0,0,622.93,370" transform="translate(0 -28.34)"/><polyline class="cls-9" points="619.05 384 622.9 384 622.9 373.46 619.05 373.46 619.05 384"/><polyline class="cls-9" points="743.49 373.46 739.69 373.46 739.69 384 743.49 384 743.49 373.46"/><line class="cls-9" x1="739.69" y1="373.46" x2="739.69" y2="288.48"/><line class="cls-9" x1="622.9" y1="373.46" x2="622.9" y2="341.71"/><polyline class="cls-9" points="619.05 373.46 619.05 384 619.05 373.46"/><polyline class="cls-9" points="619.05 384 619.05 388.76 619.05 384"/><line class="cls-9" x1="619.05" y1="373.46" x2="619.05" y2="369.61"/><polyline class="cls-9" points="619.05 388.76 615.51 388.76 619.05 388.76 619.05 384"/><polyline class="cls-9" points="619.05 373.46 619.05 369.61 615.51 369.61 619.05 369.61"/><polyline class="cls-9" points="743.49 373.46 743.49 384 743.49 373.46"/><polyline class="cls-9" points="743.49 384 743.49 388.76 743.49 384"/><line class="cls-9" x1="743.49" y1="373.46" x2="743.49" y2="369.61"/><polyline class="cls-9" points="743.49 388.76 747.04 388.76 743.49 388.76 743.49 384"/><polyline class="cls-9" points="743.49 373.46 743.49 369.61 747.04 369.61 743.49 369.61"/><line class="cls-9" x1="528.14" y1="52.81" x2="527.18" y2="52.81"/><polyline class="cls-9" points="527.18 52.81 527.18 53.78 527.18 52.81"/><polyline class="cls-9" points="512.79 53.78 512.79 52.81 512.79 53.78"/><polyline class="cls-9" points="512.79 52.81 527.18 52.81 512.79 52.81"/><line class="cls-9" x1="512.79" y1="52.81" x2="248.67" y2="52.81"/><line class="cls-9" x1="23.74" y1="52.81" x2="0.75" y2="52.81"/><line class="cls-9" x1="528.14" y1="53.78" x2="527.18" y2="53.78"/><polyline class="cls-9" points="527.18 53.78 527.18 92.07 527.18 53.78"/><polyline class="cls-9" points="512.79 92.07 512.79 53.78 512.79 92.07"/><line class="cls-9" x1="512.79" y1="53.78" x2="252.47" y2="53.78"/><line class="cls-9" x1="19.89" y1="53.78" x2="0.75" y2="53.78"/><line class="cls-9" x1="23.74" y1="42.79" x2="0.75" y2="42.79"/><line class="cls-9" x1="0.75" y1="60.46" x2="0.75" y2="92.07"/><line class="cls-9" x1="0.75" y1="42.79" x2="0.75" y2="52.81"/><line class="cls-9" x1="0.75" y1="53.78" x2="0.75" y2="60.46"/><line class="cls-9" x1="19.89" y1="60.46" x2="19.89" y2="92.07"/><line class="cls-9" x1="23.74" y1="42.79" x2="23.74" y2="52.81"/><line class="cls-9" x1="19.89" y1="53.78" x2="19.89" y2="60.46"/><line class="cls-9" x1="252.47" y1="60.46" x2="252.47" y2="92.07"/><line class="cls-9" x1="248.67" y1="41.37" x2="248.67" y2="52.81"/><line class="cls-9" x1="252.47" y1="53.78" x2="252.47" y2="60.46"/><line class="cls-9" x1="528.14" y1="41.37" x2="248.67" y2="41.37"/><line class="cls-9" x1="252.47" y1="92.07" x2="512.79" y2="92.07"/><line class="cls-9" x1="527.18" y1="92.07" x2="528.14" y2="92.07"/><line class="cls-9" x1="528.14" y1="41.37" x2="528.14" y2="52.81"/><line class="cls-9" x1="528.14" y1="53.78" x2="528.14" y2="92.07"/><polyline class="cls-9" points="23.74 42.79 0.75 42.79 0.75 41.37 23.74 41.37 23.74 42.79"/><polyline class="cls-9" points="23.74 41.37 0.75 41.37 0.75 41.37"/><line class="cls-9" x1="0.75" y1="92.07" x2="0.75" y2="92.07"/><polyline class="cls-9" points="0.75 60.46 0.75 60.46 0.75 53.78 0.75 53.78"/><line class="cls-9" x1="0.75" y1="57.12" x2="0.75" y2="57.12"/><line class="cls-9" x1="0.75" y1="53.78" x2="0.75" y2="53.78"/><line class="cls-9" x1="0.75" y1="60.46" x2="0.75" y2="60.46"/><polyline class="cls-9" points="0.75 60.46 0.75 53.78 0.75 60.46"/><polyline class="cls-9" points="0.75 53.78 0.75 53.78 0.75 53.78"/><polyline class="cls-9" points="0.75 41.37 0.75 52.81 0.75 53.78"/><line class="cls-9" x1="0.75" y1="60.46" x2="0.75" y2="92.07"/><line class="cls-9" x1="248.67" y1="41.37" x2="23.74" y2="41.37"/><line class="cls-9" x1="252.47" y1="92.07" x2="19.89" y2="92.07"/><polyline class="cls-9" points="252.47 53.78 243.86 53.78 243.86 60.46 252.47 60.46"/><polyline class="cls-9" points="136.18 60.46 140.49 60.46 140.49 53.78 136.18 53.78"/><line class="cls-9" x1="243.86" y1="57.12" x2="140.49" y2="57.12"/><line class="cls-9" x1="243.86" y1="53.78" x2="140.49" y2="53.78"/><line class="cls-9" x1="140.49" y1="60.46" x2="243.86" y2="60.46"/><polyline class="cls-9" points="136.18 53.78 131.88 53.78 131.88 60.46 136.18 60.46"/><polyline class="cls-9" points="19.89 60.46 28.5 60.46 28.5 53.78 19.89 53.78"/><line class="cls-9" x1="131.88" y1="57.12" x2="28.5" y2="57.12"/><line class="cls-9" x1="131.88" y1="53.78" x2="28.5" y2="53.78"/><line class="cls-9" x1="28.5" y1="60.46" x2="131.88" y2="60.46"/><polyline class="cls-9" points="252.47 60.46 252.47 53.78 252.47 60.46"/><polyline class="cls-9" points="252.47 53.78 248.67 53.78 252.47 53.78"/><polyline class="cls-9" points="248.67 41.37 248.67 52.81 248.67 53.78"/><line class="cls-9" x1="252.47" y1="60.46" x2="252.47" y2="92.07"/><polyline class="cls-9" points="19.89 60.46 19.89 53.78 19.89 60.46"/><polyline class="cls-9" points="19.89 53.78 23.74 53.78 19.89 53.78"/><polyline class="cls-9" points="23.74 41.37 23.74 52.81 23.74 53.78"/><line class="cls-9" x1="19.89" y1="60.46" x2="19.89" y2="92.07"/><line class="cls-9" x1="80.57" y1="453.38" x2="114.35" y2="453.38"/><polyline class="cls-9" points="78.49 451.96 65.83 451.96 65.83 488.33"/><line class="cls-9" x1="86.5" y1="470.15" x2="86.5" y2="483.62"/><polyline class="cls-9" points="114.3 453.38 86.5 456.63 86.5 470.15"/><line class="cls-9" x1="114.3" y1="486.86" x2="86.5" y2="483.62"/><line class="cls-9" x1="114.3" y1="454.24" x2="86.5" y2="457.49"/><line class="cls-9" x1="114.3" y1="486" x2="86.5" y2="482.76"/><line class="cls-9" x1="80.52" y1="486.86" x2="114.35" y2="486.86"/><line class="cls-9" x1="65.83" y1="488.33" x2="78.49" y2="488.33"/><polyline class="cls-9" points="114.3 453.38 118.05 453.89 121.59 455.31 124.68 457.59 127.17 460.63 128.94 464.17 129.85 468.12 129.85 472.17 128.94 476.07 127.17 479.67 124.68 482.71 121.59 484.99 118.05 486.4 114.3 486.86"/><polyline class="cls-9" points="114.3 454.24 117.85 454.7 121.19 456.07 124.13 458.25 126.46 461.13 128.13 464.53 128.99 468.22 128.99 472.07 128.13 475.77 126.46 479.16 124.13 482.05 121.19 484.23 117.85 485.54 114.3 486"/><path class="cls-9" d="M80.67,514.76a154.45,154.45,0,0,0,0-32.6" transform="translate(0 -28.34)"/><path class="cls-9" d="M80.66,482.13a2.13,2.13,0,0,0-2.14-1.87" transform="translate(0 -28.34)"/><path class="cls-9" d="M78.52,516.62a2.14,2.14,0,0,0,2.14-1.89" transform="translate(0 -28.34)"/><path class="cls-9" d="M75.66,498.46a1.8,1.8,0,1,0-1.8,1.75,1.77,1.77,0,0,0,1.8-1.75" transform="translate(0 -28.34)"/><polyline class="cls-9" points="223.4 410.64 223.4 388.76 275.06 388.76 275.06 410.64"/><line class="cls-9" x1="257.38" y1="388.76" x2="241.07" y2="388.76"/><line class="cls-9" x1="253.58" y1="406.33" x2="250.8" y2="406.33"/><line class="cls-9" x1="249.23" y1="401.98" x2="249.23" y2="404.71"/><line class="cls-9" x1="247.61" y1="406.33" x2="244.87" y2="406.33"/><line class="cls-9" x1="249.23" y1="407.9" x2="249.23" y2="410.69"/><path class="cls-9" d="M235.55,429.44a23,23,0,0,0-8.92,10.88" transform="translate(0 -28.34)"/><path class="cls-9" d="M249.28,426.19a23,23,0,0,0-13.73,3.22" transform="translate(0 -28.34)"/><path class="cls-9" d="M271.88,440.32A23.05,23.05,0,0,0,263,429.44" transform="translate(0 -28.34)"/><path class="cls-9" d="M263,429.41a23,23,0,0,0-13.72-3.22" transform="translate(0 -28.34)"/><path class="cls-9" d="M231.76,452a42.45,42.45,0,0,0,15.69,4.28" transform="translate(0 -28.34)"/><path class="cls-9" d="M270.19,449.76a13.14,13.14,0,0,0,4.9-10.81" transform="translate(0 -28.34)"/><path class="cls-9" d="M247.44,456.29a27.33,27.33,0,0,0,3.62,0" transform="translate(0 -28.34)"/><path class="cls-9" d="M263.71,430.22a94.18,94.18,0,0,0-28.93,0" transform="translate(0 -28.34)"/><path class="cls-9" d="M273.73,442.35a32.45,32.45,0,0,0-7.32-21.12" transform="translate(0 -28.34)"/><path class="cls-9" d="M264.06,419.71a65.13,65.13,0,0,0-14.79-1.6" transform="translate(0 -28.34)"/><path class="cls-9" d="M266.43,421.22a4.27,4.27,0,0,0-2.4-1.48" transform="translate(0 -28.34)"/><path class="cls-9" d="M263.84,421.24a111,111,0,0,0-14.57-1.05" transform="translate(0 -28.34)"/><path class="cls-9" d="M273.74,442.33a29.24,29.24,0,0,0-7.3-19.7" transform="translate(0 -28.34)"/><path class="cls-9" d="M266.48,422.62a4.33,4.33,0,0,0-2.65-1.43" transform="translate(0 -28.34)"/><path class="cls-9" d="M232.08,422.6a29.29,29.29,0,0,0-7.32,19.69" transform="translate(0 -28.34)"/><path class="cls-9" d="M232.12,421.2a32.48,32.48,0,0,0-7.35,21.1" transform="translate(0 -28.34)"/><path class="cls-9" d="M249.28,420.19a109.06,109.06,0,0,0-14.56,1" transform="translate(0 -28.34)"/><path class="cls-9" d="M249.27,418.11a65.05,65.05,0,0,0-14.79,1.58" transform="translate(0 -28.34)"/><path class="cls-9" d="M234.68,421.19a4.34,4.34,0,0,0-2.65,1.42" transform="translate(0 -28.34)"/><path class="cls-9" d="M234.47,419.69a4.34,4.34,0,0,0-2.4,1.48" transform="translate(0 -28.34)"/><path class="cls-9" d="M223.41,439a13.14,13.14,0,0,0,4.9,10.81" transform="translate(0 -28.34)"/><path class="cls-9" d="M228.31,449.8a20,20,0,0,0,3.43,2.23" transform="translate(0 -28.34)"/><path class="cls-9" d="M266.76,452a20.45,20.45,0,0,0,3.44-2.23" transform="translate(0 -28.34)"/><path class="cls-9" d="M251.05,456.29A42.26,42.26,0,0,0,266.74,452" transform="translate(0 -28.34)"/><path class="cls-9" d="M242.14,452.62a30.25,30.25,0,0,0,14.22,0" transform="translate(0 -28.34)"/><path class="cls-9" d="M226.6,440.3a7.73,7.73,0,0,0,2.66,6.37" transform="translate(0 -28.34)"/><path class="cls-9" d="M229.27,446.72a28,28,0,0,0,12.89,5.91" transform="translate(0 -28.34)"/><path class="cls-9" d="M269.24,446.67a7.73,7.73,0,0,0,2.66-6.37" transform="translate(0 -28.34)"/><path class="cls-9" d="M256.35,452.63a28,28,0,0,0,12.88-5.91" transform="translate(0 -28.34)"/><path class="cls-9" d="M252.62,434.65a3.37,3.37,0,1,0-3.37,3.37,3.37,3.37,0,0,0,3.37-3.37" transform="translate(0 -28.34)"/><path class="cls-9" d="M251.66,434.65a2.41,2.41,0,1,0-2.41,2.4,2.41,2.41,0,0,0,2.41-2.4" transform="translate(0 -28.34)"/><line class="cls-10" x1="82.6" y1="1566.05" x2="77.78" y2="1566.05"/><line class="cls-10" x1="226.13" y1="1566.05" x2="221.37" y2="1566.05"/><line class="cls-10" x1="77.78" y1="1568.43" x2="226.13" y2="1568.43"/><line class="cls-10" x1="564.51" y1="41.37" x2="559.69" y2="41.37"/><line class="cls-10" x1="727.18" y1="41.37" x2="722.42" y2="41.37"/><line class="cls-10" x1="547.74" y1="41.37" x2="739.19" y2="41.37"/><polyline class="cls-9" points="0.75 920 34.23 920 34.23 872.13 0.75 872.13 0.75 920"/><polyline class="cls-9" points="0.75 1546.91 34.23 1546.91 34.23 1499.05 0.75 1499.05 0.75 1546.91"/><polyline class="cls-9" points="737.72 920 785.58 920 785.58 872.13 737.72 872.13 737.72 920"/><polyline class="cls-9" points="737.72 1546.91 785.58 1546.91 785.58 1499.05 737.72 1499.05 737.72 1546.91"/><polyline class="cls-9" points="751.55 187.49 751.14 187.49 751.55 187.49"/><polyline class="cls-9" points="757.93 201.87 752.1 201.87 757.93 201.87"/><line class="cls-9" x1="751.14" y1="187.49" x2="678.87" y2="187.49"/><line class="cls-9" x1="586.03" y1="187.49" x2="527.18" y2="187.49"/><line class="cls-9" x1="752.1" y1="201.87" x2="682.72" y2="201.87"/><line class="cls-9" x1="582.18" y1="201.87" x2="512.79" y2="201.87"/><polyline class="cls-9" points="677.9 201.87 677.9 186.52 678.87 186.52"/><line class="cls-9" x1="678.87" y1="201.87" x2="677.9" y2="201.87"/><line class="cls-9" x1="678.87" y1="187.49" x2="678.87" y2="201.87"/><polyline class="cls-9" points="586.99 201.87 586.99 186.52 586.03 186.52"/><line class="cls-9" x1="586.03" y1="201.87" x2="586.99" y2="201.87"/><line class="cls-9" x1="586.03" y1="187.49" x2="586.03" y2="201.87"/><line class="cls-9" x1="682.72" y1="209.52" x2="682.72" y2="221.01"/><line class="cls-9" x1="678.87" y1="201.87" x2="682.72" y2="201.87"/><line class="cls-9" x1="682.72" y1="201.87" x2="682.72" y2="209.52"/><line class="cls-9" x1="582.18" y1="209.52" x2="582.18" y2="221.01"/><line class="cls-9" x1="586.03" y1="201.87" x2="582.18" y2="201.87"/><line class="cls-9" x1="582.18" y1="201.87" x2="582.18" y2="209.52"/><line class="cls-9" x1="751.14" y1="186.52" x2="678.87" y2="186.52"/><line class="cls-9" x1="586.03" y1="186.52" x2="528.14" y2="186.52"/><line class="cls-9" x1="493.65" y1="221.01" x2="582.18" y2="221.01"/><line class="cls-9" x1="682.72" y1="221.01" x2="766.44" y2="221.01"/><path class="cls-9" d="M588.92,237.83a87.07,87.07,0,0,0,11.66,43.54" transform="translate(0 -28.34)"/><line class="cls-9" x1="585.07" y1="209.52" x2="582.18" y2="209.52"/><line class="cls-9" x1="585.07" y1="201.87" x2="582.18" y2="201.87"/><line class="cls-9" x1="679.83" y1="209.52" x2="682.72" y2="209.52"/><line class="cls-9" x1="679.83" y1="201.87" x2="682.72" y2="201.87"/><line class="cls-9" x1="585.07" y1="201.87" x2="588.92" y2="201.87"/><line class="cls-9" x1="588.92" y1="201.87" x2="588.92" y2="209.52"/><line class="cls-9" x1="588.92" y1="209.52" x2="585.07" y2="209.52"/><line class="cls-9" x1="585.07" y1="209.52" x2="585.07" y2="201.87"/><line class="cls-9" x1="679.83" y1="209.52" x2="675.98" y2="209.52"/><line class="cls-9" x1="675.98" y1="209.52" x2="675.98" y2="201.87"/><line class="cls-9" x1="675.98" y1="201.87" x2="679.83" y2="201.87"/><line class="cls-9" x1="679.83" y1="201.87" x2="679.83" y2="209.52"/><line class="cls-9" x1="675.98" y1="209.52" x2="600.57" y2="253.07"/><line class="cls-9" x1="586.03" y1="201.87" x2="582.18" y2="201.87"/><line class="cls-9" x1="586.03" y1="201.87" x2="582.18" y2="201.87"/><line class="cls-9" x1="678.87" y1="201.87" x2="682.72" y2="201.87"/><line class="cls-9" x1="678.87" y1="201.87" x2="682.72" y2="201.87"/><line class="cls-9" x1="586.99" y1="201.87" x2="586.99" y2="186.52"/><line class="cls-9" x1="677.9" y1="201.87" x2="677.9" y2="186.52"/><polyline class="cls-9" points="527.18 187.49 527.18 186.52 527.18 187.49"/><polyline class="cls-9" points="512.79 201.87 512.79 187.49 512.79 201.87"/><line class="cls-9" x1="527.18" y1="186.52" x2="527.18" y2="92.07"/><line class="cls-9" x1="512.79" y1="187.49" x2="512.79" y2="92.07"/><line class="cls-9" x1="528.14" y1="186.52" x2="528.14" y2="92.07"/><polyline class="cls-9" points="493.65 221.01 493.65 201.87 493.65 92.07"/><polyline class="cls-9" points="19.89 168.64 19.89 92.07 19.89 72.92 0.75 72.92 0.75 92.07 0.75 168.64"/><polyline class="cls-9" points="766.44 201.87 766.44 388.76 785.58 388.76 785.58 72.92 766.44 72.92"/></svg>