<svg id="_101" data-name="101" xmlns="http://www.w3.org/2000/svg" viewBox="0 0 785.08 916.89"><defs><style>.cls-1{isolation:isolate;font-size:12px;fill:#969696;}.cls-1,.cls-4,.cls-6{font-family:PTSans-Regular, PT Sans;}.cls-2{letter-spacing:-0.01em;}.cls-3,.cls-5,.cls-7,.cls-8{fill:none;stroke-linecap:round;stroke-linejoin:round;}.cls-3{stroke:#969696;stroke-width:0.75px;}.cls-4{font-size:40px;}.cls-5,.cls-7,.cls-8{stroke:#000;}.cls-5{stroke-width:0.5px;}.cls-6{font-size:36px;}.cls-7{stroke-width:0.25px;stroke-dasharray:1 1;}</style></defs><title>13floor_101flat</title><text class="cls-1" transform="translate(384.4 913.7)"><tspan class="cls-2">у</tspan><tspan x="5.42" y="0">лица</tspan></text><line class="cls-3" x1="373.64" y1="916.52" x2="373.64" y2="907.72"/><polyline class="cls-3" points="370.14 913.02 373.64 916.52 377.14 913.02"/><text class="cls-4" transform="translate(248.98 521.44)">2K</text><text class="cls-4" transform="translate(224.2 571.61)">48.16</text><text class="cls-4" transform="translate(218.92 471.53)">№101</text><polyline class="cls-5" points="209.91 582.42 209.91 433.35 334.24 433.35 334.24 582.42"/><line class="cls-5" x1="209.91" y1="483.14" x2="334.24" y2="483.14"/><line class="cls-5" x1="209.91" y1="582.42" x2="334.24" y2="582.42"/><line class="cls-5" x1="209.91" y1="532.92" x2="334.24" y2="532.92"/><text class="cls-6" transform="translate(462.91 114.16)">3.41</text><text class="cls-6" transform="translate(618.76 263.24)">6.24</text><text class="cls-6" transform="translate(565.55 673.57)">13.27</text><text class="cls-6" transform="translate(229.88 673.57)">14.35</text><text class="cls-6" transform="translate(195.94 817.46)">0.92</text><text class="cls-6" transform="translate(200.13 215.01)">9.97</text><line class="cls-7" x1="446.74" y1="298.41" x2="446.74" y2="210.36"/><line class="cls-7" x1="454.21" y1="298.41" x2="454.21" y2="210.36"/><line class="cls-7" x1="354.49" y1="332.7" x2="183.97" y2="332.7"/><line class="cls-7" x1="354.49" y1="325.23" x2="183.97" y2="325.23"/><line class="cls-7" x1="468.55" y1="332.83" x2="551.8" y2="332.83"/><line class="cls-7" x1="468.55" y1="325.1" x2="551.8" y2="325.1"/><line class="cls-7" x1="449.66" y1="191.57" x2="532.91" y2="191.57"/><line class="cls-7" x1="449.66" y1="183.85" x2="532.91" y2="183.85"/><line class="cls-7" x1="672.95" y1="82.28" x2="763.03" y2="82.28"/><line class="cls-8" x1="68.34" y1="749.72" x2="69.24" y2="749.72"/><line class="cls-8" x1="338" y1="749.72" x2="497.09" y2="749.72"/><line class="cls-8" x1="69.24" y1="749.72" x2="155.4" y2="749.72"/><line class="cls-8" x1="705.98" y1="749.72" x2="784.58" y2="749.72"/><line class="cls-8" x1="69.24" y1="748.82" x2="106.89" y2="748.82"/><line class="cls-8" x1="338" y1="748.82" x2="493.3" y2="748.82"/><line class="cls-8" x1="106.89" y1="748.82" x2="155.4" y2="748.82"/><line class="cls-8" x1="709.77" y1="748.82" x2="784.58" y2="748.82"/><line class="cls-8" x1="493.3" y1="741.25" x2="493.3" y2="711.16"/><line class="cls-8" x1="497.09" y1="760.97" x2="497.09" y2="749.72"/><line class="cls-8" x1="493.3" y1="748.82" x2="493.3" y2="741.25"/><line class="cls-8" x1="709.77" y1="741.25" x2="709.77" y2="711.16"/><line class="cls-8" x1="705.98" y1="760.97" x2="705.98" y2="749.72"/><line class="cls-8" x1="709.77" y1="748.82" x2="709.77" y2="741.25"/><line class="cls-8" x1="166.66" y1="749.72" x2="166.66" y2="748.82"/><line class="cls-8" x1="326.64" y1="749.72" x2="326.64" y2="748.82"/><line class="cls-8" x1="162.87" y1="748.82" x2="166.66" y2="748.82"/><line class="cls-8" x1="166.66" y1="760.97" x2="166.66" y2="749.72"/><line class="cls-8" x1="330.43" y1="748.82" x2="326.64" y2="748.82"/><line class="cls-8" x1="326.64" y1="760.97" x2="326.64" y2="749.72"/><line class="cls-8" x1="162.87" y1="748.82" x2="162.87" y2="748.82"/><line class="cls-8" x1="155.4" y1="748.82" x2="162.87" y2="748.82"/><line class="cls-8" x1="155.4" y1="749.72" x2="155.4" y2="748.82"/><line class="cls-8" x1="155.4" y1="760.97" x2="166.66" y2="760.97"/><line class="cls-8" x1="330.43" y1="748.82" x2="330.43" y2="748.82"/><line class="cls-8" x1="338" y1="748.82" x2="330.43" y2="748.82"/><line class="cls-8" x1="338" y1="749.72" x2="338" y2="748.82"/><line class="cls-8" x1="338" y1="760.97" x2="326.64" y2="760.97"/><polyline class="cls-8" points="162.88 748.82 162.88 743.14 162.88 711.16"/><polyline class="cls-8" points="330.43 748.82 330.43 743.14 330.43 711.16"/><line class="cls-8" x1="56.98" y1="760.97" x2="155.4" y2="760.97"/><line class="cls-8" x1="338" y1="760.97" x2="497.09" y2="760.97"/><polyline class="cls-8" points="705.98 760.97 784.58 760.97 784.58 678.98"/><line class="cls-8" x1="784.58" y1="711.16" x2="784.58" y2="711.16"/><line class="cls-8" x1="765.75" y1="711.16" x2="709.77" y2="711.16"/><line class="cls-8" x1="493.3" y1="711.16" x2="455.15" y2="711.16"/><line class="cls-8" x1="436.32" y1="711.16" x2="330.43" y2="711.16"/><line class="cls-8" x1="162.87" y1="711.16" x2="106.89" y2="711.16"/><line class="cls-8" x1="705.98" y1="760.97" x2="497.09" y2="760.97"/><line class="cls-8" x1="709.77" y1="711.16" x2="493.3" y2="711.16"/><polyline class="cls-8" points="709.77 741.25 704.59 741.25 704.59 745.03 702.3 745.03 702.3 748.82 709.77 748.82"/><polyline class="cls-8" points="636.35 748.82 640.14 748.82 640.14 745.03 637.75 745.03 637.75 741.25 636.35 741.25"/><line class="cls-8" x1="640.14" y1="748.82" x2="702.3" y2="748.82"/><polyline class="cls-8" points="704.59 739.36 699.01 739.36 643.42 739.36"/><polyline class="cls-8" points="699.01 739.36 699.01 745.03 704.59 745.03 704.59 739.36"/><polyline class="cls-8" points="637.75 745.03 643.42 745.03 643.42 739.36 637.75 739.36 637.75 745.03"/><line class="cls-8" x1="643.43" y1="745.03" x2="699.01" y2="745.03"/><line class="cls-8" x1="699.01" y1="739.36" x2="643.43" y2="739.36"/><line class="cls-8" x1="699.01" y1="742.24" x2="643.43" y2="742.24"/><polyline class="cls-8" points="636.35 741.25 634.96 741.25 634.96 745.03 632.57 745.03 632.57 748.82 636.35 748.82"/><polyline class="cls-8" points="566.72 748.82 570.51 748.82 570.51 745.03 568.12 745.03 568.12 741.25 566.72 741.25"/><line class="cls-8" x1="570.51" y1="748.82" x2="632.57" y2="748.82"/><polyline class="cls-8" points="634.96 739.36 629.28 739.36 573.79 739.36"/><polyline class="cls-8" points="629.28 739.36 629.28 745.03 634.96 745.03 634.96 739.36"/><polyline class="cls-8" points="568.12 745.03 573.79 745.03 573.79 739.36 568.12 739.36 568.12 745.03"/><line class="cls-8" x1="573.79" y1="745.03" x2="629.28" y2="745.03"/><line class="cls-8" x1="629.28" y1="739.36" x2="573.79" y2="739.36"/><line class="cls-8" x1="629.28" y1="742.24" x2="573.79" y2="742.24"/><polyline class="cls-8" points="566.72 741.25 565.33 741.25 565.33 745.03 562.93 745.03 562.93 748.82 566.72 748.82"/><polyline class="cls-8" points="493.3 748.82 500.77 748.82 500.77 745.03 498.48 745.03 498.48 741.25 493.3 741.25"/><line class="cls-8" x1="500.77" y1="748.82" x2="562.93" y2="748.82"/><polyline class="cls-8" points="565.33 739.36 559.65 739.36 504.16 739.36"/><polyline class="cls-8" points="559.65 739.36 559.65 745.03 565.33 745.03 565.33 739.36"/><polyline class="cls-8" points="498.48 745.03 504.16 745.03 504.16 739.36 498.48 739.36 498.48 745.03"/><line class="cls-8" x1="504.16" y1="745.03" x2="559.65" y2="745.03"/><line class="cls-8" x1="559.65" y1="739.36" x2="504.16" y2="739.36"/><line class="cls-8" x1="559.65" y1="742.24" x2="504.16" y2="742.24"/><polyline class="cls-8" points="709.77 741.25 709.77 748.82 709.77 741.25"/><polyline class="cls-8" points="709.77 748.82 705.98 748.82 709.77 748.82"/><polyline class="cls-8" points="705.98 760.97 705.98 749.72 705.98 748.82"/><line class="cls-8" x1="709.77" y1="741.25" x2="709.77" y2="711.16"/><polyline class="cls-8" points="493.3 741.25 493.3 748.82 493.3 741.25"/><polyline class="cls-8" points="493.3 748.82 497.09 748.82 493.3 748.82"/><polyline class="cls-8" points="497.09 760.97 497.09 749.72 497.09 748.82"/><line class="cls-8" x1="493.3" y1="741.25" x2="493.3" y2="711.16"/><line class="cls-8" x1="326.64" y1="760.97" x2="166.66" y2="760.97"/><line class="cls-8" x1="330.43" y1="711.16" x2="162.87" y2="711.16"/><polyline class="cls-8" points="330.43 743.14 322.96 743.14 322.96 748.82 330.43 748.82"/><polyline class="cls-8" points="249.94 748.82 253.23 748.82 253.23 743.14 249.94 743.14"/><line class="cls-8" x1="322.96" y1="745.93" x2="253.23" y2="745.93"/><line class="cls-8" x1="322.96" y1="743.14" x2="253.23" y2="743.14"/><line class="cls-8" x1="253.23" y1="748.82" x2="322.96" y2="748.82"/><polyline class="cls-8" points="249.94 743.14 249.04 743.14 249.04 746.93 246.65 746.93 246.65 748.82 249.94 748.82"/><polyline class="cls-8" points="162.88 748.82 170.45 748.82 170.45 746.93 168.06 746.93 168.06 743.14 162.88 743.14"/><line class="cls-8" x1="168.06" y1="741.25" x2="238.19" y2="700.8"/><line class="cls-8" x1="170.45" y1="748.82" x2="246.65" y2="748.82"/><polyline class="cls-8" points="249.04 741.25 243.37 741.25 173.73 741.25"/><polyline class="cls-8" points="243.37 741.25 243.37 746.93 249.04 746.93 249.04 741.25"/><polyline class="cls-8" points="168.06 746.93 173.73 746.93 173.73 741.25 168.06 741.25 168.06 746.93"/><line class="cls-8" x1="173.73" y1="746.93" x2="243.37" y2="746.93"/><line class="cls-8" x1="243.37" y1="741.25" x2="173.73" y2="741.25"/><line class="cls-8" x1="243.37" y1="744.04" x2="173.73" y2="744.04"/><path class="cls-8" d="M249,741.2a81,81,0,0,0-10.84-40.47"/><polyline class="cls-8" points="330.43 711.16 330.43 743.14 330.43 748.82 330.43 743.14"/><polyline class="cls-8" points="162.88 711.16 162.88 743.14 162.88 748.82 162.88 743.14"/><line class="cls-8" x1="326.64" y1="760.97" x2="326.64" y2="749.72"/><polyline class="cls-8" points="326.64 748.82 330.43 748.82 326.64 748.82"/><line class="cls-8" x1="166.66" y1="760.97" x2="166.66" y2="749.72"/><polyline class="cls-8" points="166.66 748.82 162.88 748.82 166.66 748.82"/><line class="cls-8" x1="326.64" y1="749.72" x2="326.64" y2="748.82"/><line class="cls-8" x1="166.66" y1="749.72" x2="166.66" y2="748.82"/><line class="cls-8" x1="68.34" y1="283.81" x2="68.34" y2="748.82"/><line class="cls-8" x1="68.34" y1="0.5" x2="68.34" y2="184.99"/><polyline class="cls-8" points="68.34 749.72 68.34 748.82 68.34 749.72"/><line class="cls-8" x1="69.24" y1="287.59" x2="69.24" y2="711.16"/><line class="cls-8" x1="69.24" y1="0.5" x2="69.24" y2="181.2"/><polyline class="cls-8" points="69.23 748.82 69.23 711.16 69.23 748.82"/><line class="cls-8" x1="74.91" y1="287.59" x2="106.89" y2="287.59"/><line class="cls-8" x1="56.98" y1="283.81" x2="68.34" y2="283.81"/><line class="cls-8" x1="69.24" y1="287.59" x2="74.91" y2="287.59"/><line class="cls-8" x1="74.91" y1="181.2" x2="106.89" y2="181.2"/><line class="cls-8" x1="56.98" y1="184.99" x2="68.34" y2="184.99"/><line class="cls-8" x1="69.24" y1="181.2" x2="74.91" y2="181.2"/><line class="cls-8" x1="56.98" y1="0.5" x2="56.98" y2="184.99"/><polyline class="cls-8" points="56.98 760.97 56.98 749.72 56.98 283.81"/><line class="cls-8" x1="106.89" y1="635.85" x2="106.89" y2="419.39"/><line class="cls-8" x1="106.89" y1="325.25" x2="106.89" y2="287.59"/><line class="cls-8" x1="106.89" y1="181.2" x2="106.89" y2="94.64"/><line class="cls-8" x1="106.89" y1="0.5" x2="106.89" y2="0.5"/><line class="cls-8" x1="56.98" y1="184.99" x2="56.98" y2="283.81"/><line class="cls-8" x1="106.89" y1="181.2" x2="106.89" y2="287.59"/><polyline class="cls-8" points="74.91 181.2 74.91 186.38 71.13 186.38 71.13 188.78 69.23 188.78 69.23 181.2"/><polyline class="cls-8" points="69.23 287.6 69.23 280.02 71.13 280.02 71.13 282.42 74.91 282.42 74.91 287.6"/><line class="cls-8" x1="69.24" y1="280.02" x2="69.24" y2="188.78"/><polyline class="cls-8" points="76.81 186.38 76.81 192.06 76.81 276.74"/><polyline class="cls-8" points="76.81 192.06 71.13 192.06 71.13 186.38 76.81 186.38"/><polyline class="cls-8" points="71.13 282.42 71.13 276.74 76.81 276.74 76.81 282.42 71.13 282.42"/><line class="cls-8" x1="71.13" y1="276.74" x2="71.13" y2="192.06"/><line class="cls-8" x1="76.81" y1="192.06" x2="76.81" y2="276.74"/><line class="cls-8" x1="73.92" y1="192.06" x2="73.92" y2="276.74"/><polyline class="cls-8" points="74.91 181.2 69.23 181.2 74.91 181.2"/><polyline class="cls-8" points="69.23 181.2 69.23 184.99 69.23 181.2"/><polyline class="cls-8" points="56.98 184.99 68.34 184.99 69.23 184.99"/><line class="cls-8" x1="74.91" y1="181.2" x2="106.89" y2="181.2"/><polyline class="cls-8" points="74.91 287.6 69.23 287.6 74.91 287.6"/><polyline class="cls-8" points="69.23 287.6 69.23 283.81 69.23 287.6"/><polyline class="cls-8" points="56.98 283.81 68.34 283.81 69.23 283.81"/><line class="cls-8" x1="74.91" y1="287.59" x2="106.89" y2="287.59"/><line class="cls-8" x1="370.48" y1="873.94" x2="88.06" y2="873.94"/><polyline class="cls-8" points="370.48 873.94 361.01 873.94 356.33 873.94 356.33 870.25 358.72 870.25 358.72 864.57 361.01 864.57 97.53 864.57"/><polyline class="cls-8" points="272.85 873.94 276.64 873.94 276.64 870.25 274.25 870.25 274.25 864.57 272.85 864.57"/><line class="cls-8" x1="276.64" y1="873.94" x2="356.33" y2="873.94"/><polyline class="cls-8" points="358.72 864.57 353.04 864.57 279.92 864.57"/><polyline class="cls-8" points="353.04 864.57 353.04 870.25 358.72 870.25 358.72 864.57"/><polyline class="cls-8" points="274.25 870.25 279.92 870.25 279.92 864.57 274.25 864.57 274.25 870.25"/><line class="cls-8" x1="279.92" y1="870.25" x2="353.04" y2="870.25"/><line class="cls-8" x1="353.04" y1="864.57" x2="279.92" y2="864.57"/><line class="cls-8" x1="353.04" y1="867.36" x2="279.92" y2="867.36"/><line class="cls-8" x1="361.01" y1="873.94" x2="361.01" y2="864.57"/><polyline class="cls-8" points="272.85 864.57 271.46 864.57 271.46 870.25 269.07 870.25 269.07 873.94 272.85 873.94"/><polyline class="cls-8" points="185.69 873.94 189.37 873.94 189.37 870.25 187.08 870.25 187.08 864.57 185.69 864.57"/><line class="cls-8" x1="189.37" y1="873.94" x2="269.07" y2="873.94"/><polyline class="cls-8" points="271.46 864.57 265.78 864.57 192.66 864.57"/><polyline class="cls-8" points="265.78 864.57 265.78 870.25 271.46 870.25 271.46 864.57"/><polyline class="cls-8" points="187.08 870.25 192.66 870.25 192.66 864.57 187.08 864.57 187.08 870.25"/><line class="cls-8" x1="192.66" y1="870.25" x2="265.78" y2="870.25"/><line class="cls-8" x1="265.78" y1="864.57" x2="192.66" y2="864.57"/><line class="cls-8" x1="265.78" y1="867.36" x2="192.66" y2="867.36"/><polyline class="cls-8" points="185.69 864.57 184.19 864.57 184.19 870.25 181.9 870.25 181.9 873.94 185.69 873.94"/><polyline class="cls-8" points="88.06 873.94 97.53 873.94 102.21 873.94 102.21 870.25 99.82 870.25 99.82 864.57 97.53 864.57"/><line class="cls-8" x1="102.21" y1="873.94" x2="181.9" y2="873.94"/><polyline class="cls-8" points="184.19 864.57 178.61 864.57 105.5 864.57"/><polyline class="cls-8" points="178.61 864.57 178.61 870.25 184.19 870.25 184.19 864.57"/><polyline class="cls-8" points="99.82 870.25 105.5 870.25 105.5 864.57 99.82 864.57 99.82 870.25"/><line class="cls-8" x1="105.5" y1="870.25" x2="178.61" y2="870.25"/><line class="cls-8" x1="178.61" y1="864.57" x2="105.5" y2="864.57"/><line class="cls-8" x1="178.61" y1="867.36" x2="105.5" y2="867.36"/><line class="cls-8" x1="97.53" y1="873.94" x2="97.53" y2="864.57"/><line class="cls-8" x1="370.48" y1="760.97" x2="361.01" y2="760.97"/><line class="cls-8" x1="370.48" y1="873.94" x2="370.48" y2="760.97"/><polyline class="cls-8" points="370.48 873.94 370.48 864.57 370.48 859.89 366.69 859.89 366.69 862.18 361.01 862.18 361.01 864.57 361.01 760.97"/><polyline class="cls-8" points="370.48 760.97 370.48 768.54 366.69 768.54 366.69 766.15 361.01 766.15 361.01 760.97"/><line class="cls-8" x1="370.48" y1="768.54" x2="370.48" y2="859.89"/><polyline class="cls-8" points="361.01 862.18 361.01 856.61 361.01 771.83"/><polyline class="cls-8" points="361.01 856.61 366.69 856.61 366.69 862.18 361.01 862.18"/><polyline class="cls-8" points="366.69 766.15 366.69 771.83 361.01 771.83 361.01 766.15 366.69 766.15"/><line class="cls-8" x1="366.69" y1="771.83" x2="366.69" y2="856.6"/><line class="cls-8" x1="361.01" y1="856.6" x2="361.01" y2="771.83"/><line class="cls-8" x1="363.9" y1="856.6" x2="363.9" y2="771.83"/><line class="cls-8" x1="370.48" y1="864.57" x2="361.01" y2="864.57"/><polyline class="cls-8" points="361.01 760.97 370.48 760.97 361.01 760.97"/><line class="cls-8" x1="88.06" y1="760.97" x2="97.53" y2="760.97"/><line class="cls-8" x1="88.06" y1="873.94" x2="88.06" y2="760.97"/><polyline class="cls-8" points="88.06 873.94 88.06 864.57 88.06 859.89 91.85 859.89 91.85 862.18 97.53 862.18 97.53 864.57 97.53 760.97"/><polyline class="cls-8" points="88.06 760.97 88.06 768.54 91.85 768.54 91.85 766.15 97.53 766.15 97.53 760.97"/><line class="cls-8" x1="88.06" y1="768.54" x2="88.06" y2="859.89"/><polyline class="cls-8" points="97.53 862.18 97.53 856.61 97.53 771.83"/><polyline class="cls-8" points="97.53 856.61 91.85 856.61 91.85 862.18 97.53 862.18"/><polyline class="cls-8" points="91.85 766.15 91.85 771.83 97.53 771.83 97.53 766.15 91.85 766.15"/><line class="cls-8" x1="91.85" y1="771.83" x2="91.85" y2="856.6"/><line class="cls-8" x1="97.53" y1="856.6" x2="97.53" y2="771.83"/><line class="cls-8" x1="94.64" y1="856.6" x2="94.64" y2="771.83"/><line class="cls-8" x1="88.06" y1="864.57" x2="97.53" y2="864.57"/><polyline class="cls-8" points="97.53 760.97 88.06 760.97 97.53 760.97"/><polyline class="cls-8" points="54.69 279.53 54.69 279.13 2.89 279.13 2.89 279.53 54.69 279.53"/><polyline class="cls-8" points="1 277.73 1.5 277.73 1.5 191.07 1 191.07 1 277.73"/><polyline class="cls-8" points="2.89 189.17 2.89 189.67 54.69 189.67 54.69 189.17 2.89 189.17"/><polyline class="cls-8" points="56.98 280.02 56.98 277.73 54.69 277.73 54.69 280.02 56.98 280.02"/><polyline class="cls-8" points="2.89 280.02 2.89 277.73 0.5 277.73 0.5 280.02 2.89 280.02"/><polyline class="cls-8" points="0.5 191.07 2.89 191.07 2.89 188.78 0.5 188.78 0.5 191.07"/><polyline class="cls-8" points="54.69 188.78 54.69 191.07 56.98 191.07 56.98 188.78 54.69 188.78"/><line class="cls-8" x1="55.79" y1="277.73" x2="2.89" y2="277.73"/><line class="cls-8" x1="0.5" y1="280.02" x2="55.79" y2="280.02"/><line class="cls-8" x1="2.89" y1="277.73" x2="2.89" y2="191.07"/><line class="cls-8" x1="0.5" y1="188.78" x2="0.5" y2="280.02"/><line class="cls-8" x1="2.89" y1="191.07" x2="55.79" y2="191.07"/><line class="cls-8" x1="55.79" y1="188.78" x2="0.5" y2="188.78"/><polyline class="cls-8" points="55.79 280.02 56.98 280.02 56.98 277.73 55.79 277.73"/><polyline class="cls-8" points="55.79 191.07 56.98 191.07 56.98 188.78 55.79 188.78"/><polyline class="cls-8" points="0.5 188.78 0.5 280.02 55.79 280.02 55.79 277.73 2.89 277.73 2.89 191.07 55.79 191.07 55.79 188.78 0.5 188.78"/><polyline class="cls-8" points="17.43 193.46 17.43 275.34 47.62 275.34 47.62 193.46 17.43 193.46"/><polyline class="cls-8" points="20.52 193.46 20.52 275.34 47.62 275.34 47.62 193.46 20.52 193.46"/><line class="cls-8" x1="765.75" y1="101.21" x2="765.75" y2="325.25"/><line class="cls-8" x1="765.75" y1="419.39" x2="765.75" y2="635.85"/><line class="cls-8" x1="784.58" y1="635.85" x2="784.58" y2="419.39"/><line class="cls-8" x1="784.58" y1="325.25" x2="784.58" y2="120.04"/><line class="cls-8" x1="784.58" y1="380.02" x2="784.58" y2="82.38"/><line class="cls-8" x1="624.6" y1="0.5" x2="624.6" y2="0.5"/><line class="cls-8" x1="605.77" y1="19.33" x2="605.77" y2="82.38"/><line class="cls-8" x1="624.6" y1="82.38" x2="624.6" y2="0.5"/><line class="cls-8" x1="106.89" y1="19.33" x2="361.01" y2="19.33"/><line class="cls-8" x1="455.15" y1="19.33" x2="605.77" y2="19.33"/><line class="cls-8" x1="624.6" y1="0.5" x2="455.15" y2="0.5"/><line class="cls-8" x1="361.01" y1="0.5" x2="56.38" y2="0.5"/><line class="cls-8" x1="355.43" y1="19.33" x2="355.43" y2="191.56"/><line class="cls-8" x1="362.9" y1="183.99" x2="362.9" y2="73.92"/><polyline class="cls-8" points="362.9 66.35 362.9 19.33 355.43 19.33"/><line class="cls-8" x1="525.78" y1="191.56" x2="525.78" y2="183.99"/><line class="cls-8" x1="459.83" y1="191.56" x2="459.83" y2="183.99"/><polyline class="cls-8" points="355.43 191.56 362.9 191.56 459.83 191.56"/><line class="cls-8" x1="525.78" y1="191.56" x2="613.34" y2="191.56"/><line class="cls-8" x1="605.77" y1="183.99" x2="525.78" y2="183.99"/><line class="cls-8" x1="459.83" y1="183.99" x2="422.18" y2="183.99"/><line class="cls-8" x1="414.71" y1="183.99" x2="362.9" y2="183.99"/><line class="cls-8" x1="459.83" y1="191.56" x2="459.83" y2="183.99"/><line class="cls-8" x1="525.78" y1="191.56" x2="525.78" y2="183.99"/><line class="cls-8" x1="455.15" y1="210.39" x2="447.68" y2="210.39"/><line class="cls-8" x1="455.15" y1="295.07" x2="447.68" y2="295.07"/><line class="cls-8" x1="455.15" y1="635.85" x2="455.15" y2="419.39"/><line class="cls-8" x1="455.15" y1="325.25" x2="455.15" y2="295.07"/><polyline class="cls-8" points="455.15 210.39 455.15 191.56 447.68 191.56 447.68 210.39"/><line class="cls-8" x1="447.68" y1="295.07" x2="447.68" y2="325.25"/><line class="cls-8" x1="447.68" y1="419.39" x2="447.68" y2="635.85"/><line class="cls-8" x1="455.15" y1="295.07" x2="447.68" y2="295.07"/><line class="cls-8" x1="455.15" y1="210.39" x2="447.68" y2="210.39"/><line class="cls-8" x1="362.9" y1="73.92" x2="414.71" y2="73.92"/><line class="cls-8" x1="414.71" y1="66.35" x2="362.9" y2="66.35"/><line class="cls-8" x1="473.98" y1="332.72" x2="473.98" y2="325.25"/><line class="cls-8" x1="549.29" y1="332.72" x2="549.29" y2="325.25"/><line class="cls-8" x1="355.43" y1="332.72" x2="355.43" y2="325.25"/><polyline class="cls-8" points="106.89 332.72 185.99 332.72 185.99 325.25"/><line class="cls-8" x1="355.43" y1="332.72" x2="436.32" y2="332.72"/><line class="cls-8" x1="455.15" y1="332.72" x2="473.98" y2="332.72"/><line class="cls-8" x1="549.29" y1="332.72" x2="765.75" y2="332.72"/><line class="cls-8" x1="765.75" y1="325.25" x2="549.29" y2="325.25"/><line class="cls-8" x1="473.98" y1="325.25" x2="455.15" y2="325.25"/><line class="cls-8" x1="436.32" y1="325.25" x2="355.43" y2="325.25"/><line class="cls-8" x1="185.99" y1="325.25" x2="106.89" y2="325.25"/><line class="cls-8" x1="549.29" y1="332.72" x2="549.29" y2="325.25"/><line class="cls-8" x1="473.98" y1="332.72" x2="473.98" y2="325.25"/><line class="cls-8" x1="185.99" y1="332.72" x2="185.99" y2="325.25"/><line class="cls-8" x1="355.43" y1="332.72" x2="355.43" y2="325.25"/><polyline class="cls-8" points="422.18 19.33 418.49 19.33 414.71 19.33"/><polyline class="cls-8" points="422.18 183.99 422.18 56.98 418.49 56.98 414.71 56.98 414.71 66.35"/><line class="cls-8" x1="414.71" y1="73.92" x2="414.71" y2="183.99"/><line class="cls-8" x1="422.18" y1="56.98" x2="422.18" y2="19.33"/><line class="cls-8" x1="414.71" y1="56.98" x2="414.71" y2="19.33"/><path class="cls-8" d="M422.23,56.88a37.39,37.39,0,0,0,12.86-2.27"/><line class="cls-8" x1="422.18" y1="19.33" x2="435.13" y2="54.69"/><polyline class="cls-8" points="414.71 56.98 418.49 56.98 422.18 56.98 418.49 56.98"/><polyline class="cls-8" points="414.71 19.33 418.49 19.33 422.18 19.33 418.49 19.33"/><polyline class="cls-8" points="613.34 101.21 605.77 101.21 613.34 101.21"/><polyline class="cls-8" points="605.77 82.39 605.77 101.21 605.77 183.99"/><polyline class="cls-8" points="613.34 191.56 613.34 183.99 613.34 101.21"/><polyline class="cls-8" points="765.75 82.39 765.75 89.86 765.75 101.21"/><polyline class="cls-8" points="671.72 82.39 671.72 89.86 671.72 101.21"/><line class="cls-8" x1="784.58" y1="82.38" x2="765.75" y2="82.38"/><line class="cls-8" x1="671.72" y1="82.38" x2="624.6" y2="82.38"/><line class="cls-8" x1="613.34" y1="101.21" x2="671.72" y2="101.21"/><line class="cls-8" x1="671.72" y1="82.38" x2="671.92" y2="82.38"/><line class="cls-8" x1="672.02" y1="82.38" x2="672.02" y2="82.38"/><line class="cls-8" x1="672.11" y1="82.38" x2="672.11" y2="82.38"/><line class="cls-8" x1="671.72" y1="101.21" x2="671.92" y2="101.21"/><line class="cls-8" x1="672.02" y1="101.21" x2="672.02" y2="101.21"/><line class="cls-8" x1="672.11" y1="101.21" x2="672.11" y2="101.21"/><path class="cls-8" d="M675.5,89.81a86.62,86.62,0,0,0,86.62,86.61"/><polyline class="cls-8" points="671.72 82.39 675.4 82.39 675.4 89.86 671.72 89.86 671.72 82.39"/><polyline class="cls-8" points="765.75 89.86 762.07 89.86 762.07 82.39 765.75 82.39 765.75 89.86"/><line class="cls-8" x1="762.07" y1="89.86" x2="762.07" y2="176.52"/><polyline class="cls-8" points="671.72 101.21 671.72 89.86 671.72 82.39 671.72 89.86"/><polyline class="cls-8" points="765.75 101.21 765.75 89.86 765.75 82.39 765.75 89.86"/><polyline class="cls-8" points="455.15 19.33 455.15 0.5 361.01 0.5 361.01 19.33 455.15 19.33"/><polyline class="cls-8" points="765.75 729.99 784.58 729.99 784.58 635.85 765.75 635.85 765.75 729.99"/><polyline class="cls-8" points="765.75 419.39 784.58 419.39 784.58 325.25 765.75 325.25 765.75 419.39"/><polyline class="cls-8" points="88.06 94.64 106.89 94.64 106.89 0.5 88.06 0.5 88.06 94.64"/><polyline class="cls-8" points="88.06 729.99 106.89 729.99 106.89 635.85 88.06 635.85 88.06 729.99"/><polyline class="cls-8" points="88.06 419.39 106.89 419.39 106.89 325.25 88.06 325.25 88.06 419.39"/><polyline class="cls-8" points="436.32 729.99 455.15 729.99 455.15 635.85 436.32 635.85 436.32 729.99"/><polyline class="cls-8" points="436.32 419.39 455.15 419.39 455.15 325.25 436.32 325.25 436.32 419.39"/><line class="cls-8" x1="594.51" y1="24.61" x2="546.5" y2="24.61"/><line class="cls-8" x1="540.82" y1="29.99" x2="540.82" y2="146.44"/><line class="cls-8" x1="600.09" y1="29.99" x2="600.09" y2="146.44"/><line class="cls-8" x1="535.14" y1="179.31" x2="535.14" y2="19.33"/><polyline class="cls-8" points="535.14 179.31 605.77 179.31 605.77 19.33 535.14 19.33"/><line class="cls-8" x1="590.33" y1="127.71" x2="590.33" y2="36.56"/><line class="cls-8" x1="587.44" y1="33.87" x2="553.47" y2="33.87"/><line class="cls-8" x1="550.68" y1="127.71" x2="550.68" y2="36.56"/><line class="cls-8" x1="572.2" y1="52.6" x2="575.69" y2="52.6"/><line class="cls-8" x1="570.51" y1="51.01" x2="570.51" y2="47.72"/><line class="cls-8" x1="568.71" y1="52.6" x2="565.23" y2="52.6"/><line class="cls-8" x1="570.51" y1="54.29" x2="570.51" y2="57.58"/><path class="cls-8" d="M540.92,146.39c0,15.49,13.27,28,29.64,28s29.63-12.55,29.63-28"/><path class="cls-8" d="M546.55,24.61a5.48,5.48,0,0,0-5.63,5.33"/><path class="cls-8" d="M600.19,29.94a5.48,5.48,0,0,0-5.63-5.33"/><path class="cls-8" d="M573.49,52.55a2.94,2.94,0,1,0-2.93,2.74,2.84,2.84,0,0,0,2.93-2.74"/><path class="cls-8" d="M550.68,127.66c0,10.32,8.9,18.68,19.88,18.68s19.87-8.36,19.87-18.68"/><path class="cls-8" d="M590.33,36.51a2.74,2.74,0,0,0-2.84-2.64"/><path class="cls-8" d="M553.52,33.87a2.74,2.74,0,0,0-2.84,2.64"/><path class="cls-8" d="M574.49,52.55a3.94,3.94,0,1,0-3.93,3.74,3.84,3.84,0,0,0,3.93-3.74"/><polyline class="cls-8" points="443.69 153.01 422.18 153.01 422.18 102.11 443.69 102.11"/><line class="cls-8" x1="422.18" y1="119.54" x2="422.18" y2="135.58"/><line class="cls-8" x1="439.51" y1="123.33" x2="439.51" y2="126.02"/><line class="cls-8" x1="435.23" y1="127.61" x2="437.92" y2="127.61"/><line class="cls-8" x1="439.51" y1="129.1" x2="439.51" y2="131.89"/><line class="cls-8" x1="441" y1="127.61" x2="443.79" y2="127.61"/><path class="cls-8" d="M434.37,141.05a22.6,22.6,0,0,0,10.71,8.78"/><path class="cls-8" d="M431.22,127.54a22.63,22.63,0,0,0,3.17,13.51"/><path class="cls-8" d="M445.08,105.19A22.66,22.66,0,0,0,434.37,114"/><path class="cls-8" d="M434.39,114a22.62,22.62,0,0,0-3.17,13.51"/><path class="cls-8" d="M456.62,144.65a41.8,41.8,0,0,0,4.19-15.42"/><path class="cls-8" d="M454.4,106.94a12.87,12.87,0,0,0-10.61-4.82"/><path class="cls-8" d="M460.87,129.24a26.43,26.43,0,0,0,0-3.56"/><path class="cls-8" d="M435.23,113.25a92.57,92.57,0,0,0,0,28.44"/><path class="cls-8" d="M447.08,103.41a31.92,31.92,0,0,0-20.75,7.2"/><path class="cls-8" d="M425,113a63.51,63.51,0,0,0-1.58,14.54"/><path class="cls-8" d="M426.32,110.64a4.22,4.22,0,0,0-1.45,2.34"/><path class="cls-8" d="M426.3,113.21a107.42,107.42,0,0,0-1,14.33"/><path class="cls-8" d="M447.11,103.41a28.69,28.69,0,0,0-19.38,7.17"/><path class="cls-8" d="M427.7,110.54a4.25,4.25,0,0,0-1.4,2.59"/><path class="cls-8" d="M427.7,144.41a28.76,28.76,0,0,0,19.37,7.21"/><path class="cls-8" d="M426.3,144.38A31.9,31.9,0,0,0,447,151.61"/><path class="cls-8" d="M425.27,127.53a107.4,107.4,0,0,0,1,14.33"/><path class="cls-8" d="M423.37,127.49A63.64,63.64,0,0,0,424.93,142"/><path class="cls-8" d="M426.3,141.78a4.23,4.23,0,0,0,1.39,2.6"/><path class="cls-8" d="M424.87,142a4.22,4.22,0,0,0,1.45,2.34"/><path class="cls-8" d="M443.79,152.9a12.89,12.89,0,0,0,10.61-4.81"/><path class="cls-8" d="M454.43,148.08a20.22,20.22,0,0,0,2.19-3.39"/><path class="cls-8" d="M456.62,110.23a19.74,19.74,0,0,0-2.19-3.38"/><path class="cls-8" d="M460.81,125.69a41.86,41.86,0,0,0-4.19-15.42"/><path class="cls-8" d="M457.21,134.46a29.85,29.85,0,0,0,0-14"/><path class="cls-8" d="M445.11,149.81a7.64,7.64,0,0,0,6.3-2.63"/><path class="cls-8" d="M451.41,147.19a27.52,27.52,0,0,0,5.81-12.66"/><path class="cls-8" d="M451.41,107.84a7.64,7.64,0,0,0-6.3-2.63"/><path class="cls-8" d="M457.22,120.49a27.52,27.52,0,0,0-5.81-12.66"/><path class="cls-8" d="M442.9,127.56a3.34,3.34,0,1,0-3.34,3.34,3.35,3.35,0,0,0,3.34-3.34"/><path class="cls-8" d="M441.9,127.56a2.34,2.34,0,1,0-2.34,2.34,2.34,2.34,0,0,0,2.34-2.34"/><line class="cls-8" x1="436.72" y1="73.42" x2="469.89" y2="73.42"/><polyline class="cls-8" points="434.73 74.81 422.18 74.81 422.18 39.05"/><line class="cls-8" x1="442.5" y1="56.98" x2="442.5" y2="43.73"/><polyline class="cls-8" points="469.89 73.42 442.5 70.23 442.5 56.98"/><line class="cls-8" x1="469.89" y1="40.45" x2="442.5" y2="43.73"/><line class="cls-8" x1="469.89" y1="72.62" x2="442.5" y2="69.34"/><line class="cls-8" x1="469.89" y1="41.34" x2="442.5" y2="44.53"/><line class="cls-8" x1="436.72" y1="40.45" x2="469.89" y2="40.45"/><line class="cls-8" x1="422.18" y1="39.05" x2="434.73" y2="39.05"/><polyline class="cls-8" points="469.89 73.42 473.58 72.92 477.07 71.53 480.05 69.33 482.54 66.35 484.34 62.76 485.13 58.98 485.13 54.99 484.34 51.1 482.54 47.62 480.05 44.63 477.07 42.34 473.58 40.94 469.89 40.45"/><polyline class="cls-8" points="469.89 72.62 473.38 72.12 476.67 70.83 479.56 68.64 481.85 65.85 483.54 62.46 484.34 58.88 484.34 55.09 483.54 51.4 481.85 48.12 479.56 45.23 476.67 43.14 473.38 41.74 469.89 41.34"/><path class="cls-8" d="M436.77,73a152,152,0,0,0,0-32.06"/><path class="cls-8" d="M434.78,74.71a2.11,2.11,0,0,0,2.13-1.81"/><path class="cls-8" d="M436.91,40.89a2.11,2.11,0,0,0-2.13-1.84"/><path class="cls-8" d="M431.84,56.93a1.75,1.75,0,1,0-1.74,1.75,1.74,1.74,0,0,0,1.74-1.75"/><polyline class="cls-8" points="247.15 75.81 298.95 75.81 298.95 24.01 247.15 24.01 247.15 75.81"/><polyline class="cls-8" points="251.83 71.03 294.17 71.03 294.17 33.47 251.83 33.47 251.83 71.03"/></svg>