<svg id="_496" data-name="496" xmlns="http://www.w3.org/2000/svg" viewBox="0 0 621.91 1546.75"><defs><style>.cls-1{isolation:isolate;font-size:12px;fill:#969696;}.cls-1,.cls-10,.cls-7,.cls-8{font-family:PTSans-Regular, PT Sans;}.cls-2{letter-spacing:-0.01em;}.cls-11,.cls-12,.cls-3,.cls-4,.cls-5,.cls-6,.cls-9{fill:none;stroke-linecap:round;stroke-linejoin:round;}.cls-3{stroke:#969696;stroke-width:0.75px;}.cls-11,.cls-12,.cls-4,.cls-5,.cls-6,.cls-9{stroke:#000;}.cls-4,.cls-5,.cls-6{stroke-width:0.25px;}.cls-5{stroke-dasharray:1 1;}.cls-6{stroke-dasharray:0.99 0.99;}.cls-7{font-size:40px;}.cls-8{font-size:40.54px;}.cls-12,.cls-9{stroke-width:0.5px;}.cls-10{font-size:36px;}.cls-12{stroke-dasharray:3 3;}</style></defs><title>8floor496flat</title><text class="cls-1" transform="translate(302.82 1543.81)"><tspan class="cls-2">у</tspan><tspan x="5.42" y="0">лица</tspan></text><line class="cls-3" x1="292.06" y1="1545.63" x2="292.06" y2="1536.83"/><polyline class="cls-3" points="288.56 1542.13 292.06 1545.63 295.56 1542.13"/><text class="cls-1" transform="translate(305.38 10.2)">двор</text><line class="cls-3" x1="294.62" y1="3.22" x2="294.62" y2="12.02"/><polyline class="cls-3" points="298.13 6.72 294.63 3.22 291.13 6.72"/><line class="cls-4" x1="125.45" y1="717.45" x2="125.45" y2="716.95"/><line class="cls-5" x1="125.45" y1="715.95" x2="125.45" y2="640.65"/><line class="cls-4" x1="125.45" y1="640.15" x2="125.45" y2="639.65"/><line class="cls-4" x1="132.11" y1="717.3" x2="132.11" y2="716.8"/><line class="cls-5" x1="132.11" y1="715.8" x2="132.11" y2="640.5"/><line class="cls-4" x1="132.11" y1="640" x2="132.11" y2="639.5"/><line class="cls-4" x1="162.78" y1="886.82" x2="162.78" y2="886.32"/><line class="cls-5" x1="162.78" y1="885.32" x2="162.78" y2="810.02"/><line class="cls-4" x1="162.78" y1="809.52" x2="162.78" y2="809.02"/><line class="cls-4" x1="169.35" y1="886.82" x2="169.35" y2="886.32"/><line class="cls-5" x1="169.35" y1="885.32" x2="169.35" y2="810.02"/><line class="cls-4" x1="169.35" y1="809.52" x2="169.35" y2="809.02"/><line class="cls-4" x1="125.45" y1="583.81" x2="125.45" y2="583.31"/><line class="cls-5" x1="125.45" y1="582.31" x2="125.45" y2="507.01"/><line class="cls-4" x1="125.45" y1="506.51" x2="125.45" y2="506.01"/><line class="cls-4" x1="132.11" y1="583.81" x2="132.11" y2="583.31"/><line class="cls-5" x1="132.11" y1="582.31" x2="132.11" y2="507.01"/><line class="cls-4" x1="132.11" y1="506.51" x2="132.11" y2="506.01"/><line class="cls-4" x1="218.19" y1="629.4" x2="217.69" y2="629.4"/><line class="cls-5" x1="216.69" y1="629.4" x2="141.39" y2="629.4"/><line class="cls-4" x1="140.9" y1="629.4" x2="140.4" y2="629.4"/><line class="cls-4" x1="218.19" y1="622.83" x2="217.69" y2="622.83"/><line class="cls-5" x1="216.69" y1="622.83" x2="141.39" y2="622.83"/><line class="cls-4" x1="140.9" y1="622.83" x2="140.4" y2="622.83"/><line class="cls-4" x1="249.25" y1="945.5" x2="248.75" y2="945.5"/><line class="cls-5" x1="247.76" y1="945.5" x2="172.46" y2="945.5"/><line class="cls-4" x1="171.96" y1="945.5" x2="171.46" y2="945.5"/><line class="cls-4" x1="249.25" y1="938.93" x2="248.75" y2="938.93"/><line class="cls-5" x1="247.76" y1="938.93" x2="172.46" y2="938.93"/><line class="cls-4" x1="171.96" y1="938.93" x2="171.46" y2="938.93"/><line class="cls-4" x1="348.98" y1="628.78" x2="348.48" y2="628.78"/><line class="cls-6" x1="347.49" y1="628.78" x2="250.64" y2="628.78"/><line class="cls-4" x1="250.14" y1="628.78" x2="249.64" y2="628.78"/><line class="cls-4" x1="348.98" y1="622.21" x2="348.48" y2="622.21"/><line class="cls-6" x1="347.49" y1="622.21" x2="250.64" y2="622.21"/><line class="cls-4" x1="250.14" y1="622.21" x2="249.64" y2="622.21"/><line class="cls-4" x1="416.98" y1="782.51" x2="416.98" y2="782.01"/><line class="cls-5" x1="416.98" y1="781.01" x2="416.98" y2="705.71"/><line class="cls-4" x1="416.98" y1="705.21" x2="416.98" y2="704.71"/><text class="cls-7" transform="translate(294.7 331.63)">3K</text><text class="cls-8" transform="translate(269.28 381.8)">71.75</text><text class="cls-7" transform="translate(264.64 281.72)">№496</text><polyline class="cls-9" points="255.63 392.61 255.63 243.54 379.96 243.54 379.96 392.61"/><line class="cls-9" x1="255.63" y1="293.32" x2="379.96" y2="293.32"/><line class="cls-9" x1="255.63" y1="392.61" x2="379.96" y2="392.61"/><line class="cls-9" x1="255.63" y1="343.11" x2="379.96" y2="343.11"/><text class="cls-10" transform="translate(177.07 883.48)">1.69</text><text class="cls-10" transform="translate(53.34 665.79)">1.94</text><text class="cls-10" transform="translate(224.68 729.48)">6.76</text><text class="cls-10" transform="translate(38.74 563.56)">1.48</text><text class="cls-10" transform="translate(71.92 831.27)">3.67</text><text class="cls-10" transform="translate(275.05 174.67)">14.03</text><text class="cls-10" transform="translate(473.29 174.67)">13.74</text><text class="cls-10" transform="translate(76.03 174.67)">12.61</text><text class="cls-10" transform="translate(89.82 1336.2)">14.76</text><text class="cls-10" transform="translate(99.63 1456.74)">1.07</text><line class="cls-11" x1="47.64" y1="90.27" x2="0.5" y2="90.27"/><line class="cls-11" x1="255.49" y1="90.27" x2="174.35" y2="90.27"/><line class="cls-11" x1="446.78" y1="90.27" x2="382.2" y2="90.27"/><polyline class="cls-11" points="573.39 90.27 621.41 90.27 621.41 117.7"/><line class="cls-11" x1="564.28" y1="90.27" x2="564.28" y2="98.51"/><line class="cls-11" x1="455.89" y1="90.27" x2="455.89" y2="98.51"/><line class="cls-11" x1="564.28" y1="89.39" x2="564.28" y2="90.27"/><line class="cls-11" x1="455.89" y1="89.39" x2="455.89" y2="90.27"/><line class="cls-11" x1="567.61" y1="98.51" x2="567.61" y2="98.51"/><polyline class="cls-11" points="573.39 90.27 565.16 90.27 565.16 98.51 565.16 90.27"/><line class="cls-11" x1="565.16" y1="89.39" x2="564.28" y2="89.39"/><line class="cls-11" x1="452.56" y1="98.51" x2="452.56" y2="98.51"/><polyline class="cls-11" points="446.77 90.27 455.01 90.27 455.01 98.51 455.01 90.27"/><line class="cls-11" x1="455.01" y1="89.39" x2="455.89" y2="89.39"/><polyline class="cls-11" points="567.61 98.51 567.61 103.5 567.61 119.19"/><polyline class="cls-11" points="452.56 98.51 452.56 103.5 452.56 119.19"/><line class="cls-11" x1="373.08" y1="90.27" x2="373.08" y2="98.51"/><line class="cls-11" x1="264.6" y1="90.27" x2="264.6" y2="98.51"/><line class="cls-11" x1="373.08" y1="89.39" x2="373.08" y2="90.27"/><line class="cls-11" x1="264.6" y1="89.39" x2="264.6" y2="90.27"/><line class="cls-11" x1="376.41" y1="98.51" x2="376.41" y2="98.51"/><polyline class="cls-11" points="382.19 90.27 373.87 90.27 373.87 98.51 373.87 90.27"/><line class="cls-11" x1="373.87" y1="89.39" x2="373.08" y2="89.39"/><line class="cls-11" x1="261.27" y1="98.51" x2="261.27" y2="98.51"/><polyline class="cls-11" points="255.49 90.27 263.73 90.27 263.73 98.51 263.73 90.27"/><line class="cls-11" x1="263.73" y1="89.39" x2="264.6" y2="89.39"/><polyline class="cls-11" points="376.41 98.51 376.41 103.5 376.41 119.19"/><polyline class="cls-11" points="261.27 98.51 261.27 103.5 261.27 119.19"/><line class="cls-11" x1="165.24" y1="90.27" x2="165.24" y2="98.51"/><line class="cls-11" x1="56.76" y1="90.27" x2="56.76" y2="98.51"/><line class="cls-11" x1="165.24" y1="89.39" x2="165.24" y2="90.27"/><line class="cls-11" x1="56.76" y1="89.39" x2="56.76" y2="90.27"/><line class="cls-11" x1="168.57" y1="98.51" x2="168.57" y2="98.51"/><polyline class="cls-11" points="174.35 90.27 166.02 90.27 166.02 98.51 166.02 90.27"/><line class="cls-11" x1="166.02" y1="89.39" x2="165.24" y2="89.39"/><line class="cls-11" x1="53.43" y1="98.51" x2="53.43" y2="98.51"/><polyline class="cls-11" points="47.64 90.27 55.97 90.27 55.97 98.51 55.97 90.27"/><line class="cls-11" x1="55.97" y1="89.39" x2="56.76" y2="89.39"/><polyline class="cls-11" points="168.56 98.51 168.56 103.5 168.56 119.19"/><polyline class="cls-11" points="53.43 98.51 53.43 103.5 53.43 119.19"/><line class="cls-11" x1="621.41" y1="89.39" x2="565.16" y2="89.39"/><line class="cls-11" x1="455.01" y1="89.39" x2="373.87" y2="89.39"/><line class="cls-11" x1="263.73" y1="89.39" x2="166.02" y2="89.39"/><line class="cls-11" x1="55.97" y1="89.39" x2="0.5" y2="89.39"/><line class="cls-11" x1="168.57" y1="119.19" x2="261.27" y2="119.19"/><line class="cls-11" x1="13.73" y1="119.19" x2="53.43" y2="119.19"/><line class="cls-11" x1="376.41" y1="119.19" x2="452.56" y2="119.19"/><line class="cls-11" x1="567.61" y1="119.19" x2="604.85" y2="119.19"/><polyline class="cls-11" points="564.28 89.39 455.89 89.39 455.89 85.28 564.28 85.28 564.28 89.39"/><line class="cls-11" x1="452.56" y1="119.19" x2="567.61" y2="119.19"/><polyline class="cls-11" points="452.56 103.5 457.12 103.5 457.12 100.17 459.13 100.17 459.13 98.51 452.56 98.51"/><polyline class="cls-11" points="526.25 98.51 522.92 98.51 522.92 100.17 525.02 100.17 525.02 103.5 526.25 103.5"/><line class="cls-11" x1="522.92" y1="98.51" x2="459.13" y2="98.51"/><polyline class="cls-11" points="457.12 105.17 462.02 105.17 520.03 105.17"/><polyline class="cls-11" points="462.02 105.17 462.02 100.17 457.12 100.17 457.12 105.17"/><polyline class="cls-11" points="525.02 100.17 520.03 100.17 520.03 105.17 525.02 105.17 525.02 100.17"/><line class="cls-11" x1="520.03" y1="100.17" x2="462.02" y2="100.17"/><line class="cls-11" x1="462.02" y1="105.17" x2="520.03" y2="105.17"/><line class="cls-11" x1="462.02" y1="102.63" x2="520.03" y2="102.63"/><polyline class="cls-11" points="526.25 103.5 527.48 103.5 527.48 100.17 529.58 100.17 529.58 98.51 526.25 98.51"/><polyline class="cls-11" points="567.61 98.51 561.04 98.51 561.04 100.17 563.05 100.17 563.05 103.5 567.61 103.5"/><line class="cls-11" x1="561.04" y1="98.51" x2="529.58" y2="98.51"/><polyline class="cls-11" points="527.48 105.17 532.47 105.17 558.15 105.17"/><polyline class="cls-11" points="532.47 105.17 532.47 100.17 527.48 100.17 527.48 105.17"/><polyline class="cls-11" points="563.05 100.17 558.15 100.17 558.15 105.17 563.05 105.17 563.05 100.17"/><line class="cls-11" x1="558.15" y1="100.17" x2="532.47" y2="100.17"/><line class="cls-11" x1="532.47" y1="105.17" x2="558.15" y2="105.17"/><line class="cls-11" x1="532.47" y1="102.63" x2="558.15" y2="102.63"/><polyline class="cls-11" points="452.56 119.19 452.56 103.5 452.56 98.51 452.56 103.5"/><polyline class="cls-11" points="567.61 119.19 567.61 103.5 567.61 98.51 567.61 103.5"/><line class="cls-11" x1="455.89" y1="89.39" x2="455.89" y2="90.27"/><polyline class="cls-11" points="455.89 98.51 455.01 98.51 455.89 98.51"/><polyline class="cls-11" points="455.01 98.51 452.56 98.51 455.01 98.51"/><line class="cls-11" x1="564.28" y1="89.39" x2="564.28" y2="90.27"/><polyline class="cls-11" points="564.28 98.51 565.16 98.51 564.28 98.51"/><polyline class="cls-11" points="565.16 98.51 567.61 98.51 565.16 98.51"/><line class="cls-11" x1="455.89" y1="90.27" x2="455.89" y2="98.51"/><line class="cls-11" x1="564.28" y1="90.27" x2="564.28" y2="98.51"/><polyline class="cls-11" points="373.08 89.39 264.6 89.39 264.6 85.28 373.08 85.28 373.08 89.39"/><line class="cls-11" x1="261.27" y1="119.19" x2="376.41" y2="119.19"/><polyline class="cls-11" points="261.27 103.5 265.83 103.5 265.83 100.17 267.93 100.17 267.93 98.51 261.27 98.51"/><polyline class="cls-11" points="334.96 98.51 331.64 98.51 331.64 100.17 333.74 100.17 333.74 103.5 334.96 103.5"/><line class="cls-11" x1="331.64" y1="98.51" x2="267.93" y2="98.51"/><polyline class="cls-11" points="265.83 105.17 270.82 105.17 328.74 105.17"/><polyline class="cls-11" points="270.82 105.17 270.82 100.17 265.83 100.17 265.83 105.17"/><polyline class="cls-11" points="333.74 100.17 328.74 100.17 328.74 105.17 333.74 105.17 333.74 100.17"/><line class="cls-11" x1="328.74" y1="100.17" x2="270.82" y2="100.17"/><line class="cls-11" x1="270.82" y1="105.17" x2="328.74" y2="105.17"/><line class="cls-11" x1="270.82" y1="102.63" x2="328.74" y2="102.63"/><polyline class="cls-11" points="334.96 103.5 336.19 103.5 336.19 100.17 338.3 100.17 338.3 98.51 334.96 98.51"/><polyline class="cls-11" points="376.41 98.51 369.75 98.51 369.75 100.17 371.86 100.17 371.86 103.5 376.41 103.5"/><line class="cls-11" x1="369.75" y1="98.51" x2="338.3" y2="98.51"/><polyline class="cls-11" points="336.19 105.17 341.19 105.17 366.86 105.17"/><polyline class="cls-11" points="341.19 105.17 341.19 100.17 336.19 100.17 336.19 105.17"/><polyline class="cls-11" points="371.86 100.17 366.86 100.17 366.86 105.17 371.86 105.17 371.86 100.17"/><line class="cls-11" x1="366.86" y1="100.17" x2="341.19" y2="100.17"/><line class="cls-11" x1="341.19" y1="105.17" x2="366.86" y2="105.17"/><line class="cls-11" x1="341.19" y1="102.63" x2="366.86" y2="102.63"/><polyline class="cls-11" points="261.27 119.19 261.27 103.5 261.27 98.51 261.27 103.5"/><polyline class="cls-11" points="376.41 119.19 376.41 103.5 376.41 98.51 376.41 103.5"/><line class="cls-11" x1="264.6" y1="89.39" x2="264.6" y2="90.27"/><polyline class="cls-11" points="264.6 98.51 263.73 98.51 264.6 98.51"/><polyline class="cls-11" points="263.73 98.51 261.27 98.51 263.73 98.51"/><line class="cls-11" x1="373.08" y1="89.39" x2="373.08" y2="90.27"/><polyline class="cls-11" points="373.08 98.51 373.87 98.51 373.08 98.51"/><polyline class="cls-11" points="373.87 98.51 376.41 98.51 373.87 98.51"/><line class="cls-11" x1="264.6" y1="90.27" x2="264.6" y2="98.51"/><line class="cls-11" x1="373.08" y1="90.27" x2="373.08" y2="98.51"/><polyline class="cls-11" points="165.24 89.39 56.76 89.39 56.76 85.28 165.24 85.28 165.24 89.39"/><line class="cls-11" x1="53.43" y1="119.19" x2="168.57" y2="119.19"/><polyline class="cls-11" points="53.43 103.5 57.98 103.5 57.98 100.17 60.09 100.17 60.09 98.51 53.43 98.51"/><polyline class="cls-11" points="127.12 98.51 123.88 98.51 123.88 100.17 125.89 100.17 125.89 103.5 127.12 103.5"/><line class="cls-11" x1="123.88" y1="98.51" x2="60.09" y2="98.51"/><polyline class="cls-11" points="57.98 105.17 62.98 105.17 120.9 105.17"/><polyline class="cls-11" points="62.98 105.17 62.98 100.17 57.98 100.17 57.98 105.17"/><polyline class="cls-11" points="125.89 100.17 120.9 100.17 120.9 105.17 125.89 105.17 125.89 100.17"/><line class="cls-11" x1="120.9" y1="100.17" x2="62.98" y2="100.17"/><line class="cls-11" x1="62.98" y1="105.17" x2="120.9" y2="105.17"/><line class="cls-11" x1="62.98" y1="102.63" x2="120.9" y2="102.63"/><polyline class="cls-11" points="127.12 103.5 128.43 103.5 128.43 100.17 130.45 100.17 130.45 98.51 127.12 98.51"/><polyline class="cls-11" points="168.56 98.51 161.91 98.51 161.91 100.17 164.01 100.17 164.01 103.5 168.56 103.5"/><line class="cls-11" x1="161.91" y1="98.51" x2="130.45" y2="98.51"/><polyline class="cls-11" points="128.43 105.17 133.34 105.17 159.01 105.17"/><polyline class="cls-11" points="133.34 105.17 133.34 100.17 128.43 100.17 128.43 105.17"/><polyline class="cls-11" points="164.01 100.17 159.01 100.17 159.01 105.17 164.01 105.17 164.01 100.17"/><line class="cls-11" x1="159.01" y1="100.17" x2="133.34" y2="100.17"/><line class="cls-11" x1="133.34" y1="105.17" x2="159.01" y2="105.17"/><line class="cls-11" x1="133.34" y1="102.63" x2="159.01" y2="102.63"/><polyline class="cls-11" points="53.43 119.19 53.43 103.5 53.43 98.51 53.43 103.5"/><polyline class="cls-11" points="168.56 119.19 168.56 103.5 168.56 98.51 168.56 103.5"/><line class="cls-11" x1="56.76" y1="89.39" x2="56.76" y2="90.27"/><polyline class="cls-11" points="56.76 98.51 55.97 98.51 56.76 98.51"/><polyline class="cls-11" points="55.97 98.51 53.43 98.51 55.97 98.51"/><line class="cls-11" x1="165.24" y1="89.39" x2="165.24" y2="90.27"/><polyline class="cls-11" points="165.24 98.51 166.02 98.51 165.24 98.51"/><polyline class="cls-11" points="166.02 98.51 168.56 98.51 166.02 98.51"/><line class="cls-11" x1="56.76" y1="90.27" x2="56.76" y2="98.51"/><line class="cls-11" x1="165.24" y1="90.27" x2="165.24" y2="98.51"/><line class="cls-11" x1="217.37" y1="1395.1" x2="273.72" y2="1395.1"/><line class="cls-11" x1="0.5" y1="1395.1" x2="76.65" y2="1395.1"/><line class="cls-11" x1="220.7" y1="1394.22" x2="273.72" y2="1394.22"/><line class="cls-11" x1="0.5" y1="1394.22" x2="73.32" y2="1394.22"/><line class="cls-11" x1="273.72" y1="1389.31" x2="273.72" y2="1361.19"/><line class="cls-11" x1="273.72" y1="1405" x2="273.72" y2="1395.1"/><line class="cls-11" x1="273.72" y1="1394.22" x2="273.72" y2="1389.31"/><line class="cls-11" x1="73.32" y1="1389.31" x2="73.32" y2="1361.19"/><line class="cls-11" x1="76.65" y1="1405" x2="76.65" y2="1395.1"/><line class="cls-11" x1="73.32" y1="1394.22" x2="73.32" y2="1389.31"/><line class="cls-11" x1="220.7" y1="1389.31" x2="220.7" y2="1361.19"/><line class="cls-11" x1="217.37" y1="1405" x2="217.37" y2="1395.1"/><line class="cls-11" x1="220.7" y1="1394.22" x2="220.7" y2="1389.31"/><line class="cls-11" x1="273.72" y1="1361.19" x2="220.7" y2="1361.19"/><line class="cls-11" x1="73.32" y1="1361.19" x2="0.5" y2="1361.19"/><line class="cls-11" x1="0.5" y1="1405" x2="0.5" y2="1395.1"/><line class="cls-11" x1="0.5" y1="1394.22" x2="0.5" y2="1361.19"/><line class="cls-11" x1="0.5" y1="1405" x2="76.65" y2="1405"/><line class="cls-11" x1="217.37" y1="1405" x2="273.72" y2="1405"/><polyline class="cls-11" points="273.71 1389.31 273.71 1394.22 273.71 1389.31"/><polyline class="cls-11" points="273.71 1394.22 273.71 1394.22 273.71 1394.22"/><polyline class="cls-11" points="273.71 1405 273.71 1395.1 273.71 1394.22"/><line class="cls-11" x1="273.72" y1="1389.31" x2="273.72" y2="1361.19"/><line class="cls-11" x1="217.37" y1="1405" x2="76.65" y2="1405"/><line class="cls-11" x1="220.7" y1="1361.19" x2="73.32" y2="1361.19"/><polyline class="cls-11" points="220.7 1389.31 214.04 1389.31 214.04 1394.22 220.7 1394.22"/><polyline class="cls-11" points="149.9 1394.22 152.79 1394.22 152.79 1389.31 149.9 1389.31"/><line class="cls-11" x1="214.04" y1="1391.77" x2="152.79" y2="1391.77"/><line class="cls-11" x1="214.04" y1="1389.31" x2="152.79" y2="1389.31"/><line class="cls-11" x1="152.79" y1="1394.22" x2="214.04" y2="1394.22"/><polyline class="cls-11" points="149.9 1389.31 149.11 1389.31 149.11 1392.64 147.01 1392.64 147.01 1394.22 149.9 1394.22"/><polyline class="cls-11" points="73.32 1394.22 79.98 1394.22 79.98 1392.64 77.87 1392.64 77.87 1389.31 73.32 1389.31"/><line class="cls-11" x1="77.87" y1="1387.65" x2="139.56" y2="1352.07"/><line class="cls-11" x1="79.98" y1="1394.22" x2="147.01" y2="1394.22"/><polyline class="cls-11" points="149.11 1387.65 144.12 1387.65 82.87 1387.65"/><polyline class="cls-11" points="144.12 1387.65 144.12 1392.64 149.11 1392.64 149.11 1387.65"/><polyline class="cls-11" points="77.87 1392.64 82.87 1392.64 82.87 1387.65 77.87 1387.65 77.87 1392.64"/><line class="cls-11" x1="82.87" y1="1392.64" x2="144.12" y2="1392.64"/><line class="cls-11" x1="144.12" y1="1387.65" x2="82.87" y2="1387.65"/><line class="cls-11" x1="144.12" y1="1390.1" x2="82.87" y2="1390.1"/><path class="cls-11" d="M149.11,1416a71.26,71.26,0,0,0-9.53-35.59" transform="translate(0 -28.35)"/><polyline class="cls-11" points="220.7 1389.31 220.7 1394.22 220.7 1389.31"/><polyline class="cls-11" points="220.7 1394.22 217.37 1394.22 220.7 1394.22"/><polyline class="cls-11" points="217.37 1405 217.37 1395.1 217.37 1394.22"/><line class="cls-11" x1="220.7" y1="1389.31" x2="220.7" y2="1361.19"/><polyline class="cls-11" points="73.32 1389.31 73.32 1394.22 73.32 1389.31"/><polyline class="cls-11" points="73.32 1394.22 76.65 1394.22 73.32 1394.22"/><polyline class="cls-11" points="76.65 1405 76.65 1395.1 76.65 1394.22"/><line class="cls-11" x1="73.32" y1="1389.31" x2="73.32" y2="1361.19"/><polyline class="cls-11" points="0.5 90.27 0.5 89.39 0.5 90.27"/><line class="cls-11" x1="563.49" y1="665.71" x2="563.49" y2="629.25"/><polyline class="cls-11" points="556.83 629.25 556.83 665.71 563.49 665.71"/><polyline class="cls-11" points="600.73 622.59 600.73 625.92 600.73 629.25"/><polyline class="cls-11" points="567.61 622.59 567.61 625.92 567.61 629.25"/><line class="cls-11" x1="497.25" y1="629.25" x2="556.83" y2="629.25"/><line class="cls-11" x1="563.49" y1="629.25" x2="567.61" y2="629.25"/><polyline class="cls-11" points="600.73 629.25 604.85 629.25 604.85 622.59 600.73 622.59"/><polyline class="cls-11" points="567.61 622.59 497.25 622.59 497.25 629.25"/><line class="cls-11" x1="567.61" y1="622.59" x2="600.73" y2="622.59"/><line class="cls-11" x1="567.61" y1="629.25" x2="600.73" y2="629.25"/><path class="cls-11" d="M569.69,639.58a33.12,33.12,0,0,0-2,11.32" transform="translate(0 -28.35)"/><line class="cls-11" x1="600.73" y1="622.59" x2="569.63" y2="611.29"/><polyline class="cls-11" points="567.61 629.25 567.61 625.92 567.61 622.59 567.61 625.92"/><polyline class="cls-11" points="600.73 629.25 600.73 625.92 600.73 622.59 600.73 625.92"/><line class="cls-11" x1="13.73" y1="505.88" x2="125.45" y2="505.88"/><polyline class="cls-11" points="132.11 499.22 13.73 499.22 13.73 505.88"/><line class="cls-11" x1="217.37" y1="119.19" x2="217.37" y2="622.59"/><polyline class="cls-11" points="224.03 622.59 224.03 119.19 217.37 119.19"/><line class="cls-11" x1="168.57" y1="872.68" x2="161.91" y2="872.68"/><line class="cls-11" x1="168.57" y1="814.67" x2="161.91" y2="814.67"/><line class="cls-11" x1="168.57" y1="938.92" x2="168.57" y2="872.68"/><line class="cls-11" x1="168.57" y1="814.67" x2="168.57" y2="762.53"/><line class="cls-11" x1="161.91" y1="769.19" x2="161.91" y2="814.67"/><line class="cls-11" x1="161.91" y1="872.68" x2="161.91" y2="938.92"/><line class="cls-11" x1="168.57" y1="814.67" x2="161.91" y2="814.67"/><line class="cls-11" x1="168.57" y1="872.68" x2="161.91" y2="872.68"/><line class="cls-11" x1="13.73" y1="603.58" x2="125.45" y2="603.58"/><polyline class="cls-11" points="125.45 596.92 13.73 596.92 13.73 603.58"/><line class="cls-11" x1="61.75" y1="762.53" x2="61.75" y2="729.41"/><line class="cls-11" x1="55.09" y1="729.41" x2="55.09" y2="762.53"/><polyline class="cls-11" points="17.85 769.19 17.85 765.86 17.85 762.53"/><polyline class="cls-11" points="50.97 769.19 50.97 765.86 50.97 762.53"/><line class="cls-11" x1="13.73" y1="769.19" x2="17.85" y2="769.19"/><line class="cls-11" x1="50.97" y1="769.19" x2="131.32" y2="769.19"/><line class="cls-11" x1="125.45" y1="762.53" x2="61.75" y2="762.53"/><line class="cls-11" x1="55.09" y1="762.53" x2="50.97" y2="762.53"/><polyline class="cls-11" points="17.85 762.53 13.73 762.53 13.73 769.19"/><line class="cls-11" x1="50.97" y1="769.19" x2="17.85" y2="769.19"/><line class="cls-11" x1="50.97" y1="762.53" x2="17.85" y2="762.53"/><path class="cls-11" d="M49,808.81a33.12,33.12,0,0,0,2-11.32" transform="translate(0 -28.35)"/><line class="cls-11" x1="17.85" y1="769.19" x2="48.96" y2="780.49"/><polyline class="cls-11" points="50.97 762.53 50.97 765.86 50.97 769.19 50.97 765.86"/><polyline class="cls-11" points="17.85 762.53 17.85 765.86 17.85 769.19 17.85 765.86"/><line class="cls-11" x1="247.16" y1="945.49" x2="247.16" y2="938.92"/><line class="cls-11" x1="172.68" y1="945.49" x2="172.68" y2="938.92"/><line class="cls-11" x1="257.15" y1="938.92" x2="247.16" y2="938.92"/><line class="cls-11" x1="172.68" y1="938.92" x2="168.57" y2="938.92"/><polyline class="cls-11" points="161.91 938.92 13.73 938.92 13.73 945.49 172.68 945.49"/><polyline class="cls-11" points="247.16 945.49 257.15 945.49 257.15 938.92"/><line class="cls-11" x1="172.68" y1="945.49" x2="172.68" y2="938.92"/><line class="cls-11" x1="247.16" y1="945.49" x2="247.16" y2="938.92"/><line class="cls-11" x1="125.45" y1="649.14" x2="132.11" y2="649.14"/><polyline class="cls-11" points="125.45 707.06 132.11 707.06 132.11 762.53"/><line class="cls-11" x1="132.11" y1="649.14" x2="132.11" y2="603.58"/><line class="cls-11" x1="125.45" y1="603.58" x2="125.45" y2="649.14"/><line class="cls-11" x1="125.45" y1="707.06" x2="125.45" y2="722.75"/><line class="cls-11" x1="125.45" y1="729.41" x2="125.45" y2="762.53"/><line class="cls-11" x1="125.45" y1="707.06" x2="132.11" y2="707.06"/><line class="cls-11" x1="125.45" y1="649.14" x2="132.11" y2="649.14"/><line class="cls-11" x1="13.73" y1="729.41" x2="55.09" y2="729.41"/><line class="cls-11" x1="61.75" y1="729.41" x2="125.45" y2="729.41"/><polyline class="cls-11" points="125.45 722.75 13.73 722.75 13.73 729.41"/><line class="cls-11" x1="131.32" y1="769.19" x2="161.91" y2="769.19"/><polyline class="cls-11" points="168.56 762.53 161.91 762.53 131.32 762.53"/><polyline class="cls-11" points="417.77 622.59 417.77 501.76 411.11 501.76 411.11 622.59 417.77 622.59"/><polyline class="cls-11" points="417.77 200.15 417.77 119.19 411.11 119.19 411.11 200.15 417.77 200.15"/><line class="cls-11" x1="248.83" y1="622.59" x2="248.83" y2="629.25"/><line class="cls-11" x1="348.2" y1="622.59" x2="348.2" y2="629.25"/><line class="cls-11" x1="217.37" y1="622.59" x2="217.37" y2="629.25"/><polyline class="cls-11" points="142.89 622.59 142.89 629.25 132.11 629.25"/><line class="cls-11" x1="217.37" y1="629.25" x2="248.83" y2="629.25"/><polyline class="cls-11" points="348.2 629.25 400.42 629.25 400.42 622.59 348.2 622.59"/><line class="cls-11" x1="248.83" y1="622.59" x2="224.03" y2="622.59"/><polyline class="cls-11" points="142.89 622.59 132.11 622.59 132.11 629.25"/><line class="cls-11" x1="348.2" y1="622.59" x2="348.2" y2="629.25"/><line class="cls-11" x1="248.83" y1="622.59" x2="248.83" y2="629.25"/><line class="cls-11" x1="142.89" y1="622.59" x2="142.89" y2="629.25"/><line class="cls-11" x1="217.37" y1="622.59" x2="217.37" y2="629.25"/><polyline class="cls-11" points="125.45 596.92 132.11 596.92 125.45 596.92"/><line class="cls-11" x1="125.45" y1="563.8" x2="132.11" y2="563.8"/><line class="cls-11" x1="125.45" y1="505.88" x2="132.11" y2="505.88"/><polyline class="cls-11" points="132.11 603.58 132.11 596.92 132.11 563.8"/><line class="cls-11" x1="132.11" y1="505.88" x2="132.11" y2="499.22"/><line class="cls-11" x1="125.45" y1="563.8" x2="125.45" y2="596.92"/><line class="cls-11" x1="125.45" y1="505.88" x2="132.11" y2="505.88"/><line class="cls-11" x1="125.45" y1="563.8" x2="132.11" y2="563.8"/><line class="cls-11" x1="604.85" y1="119.19" x2="604.85" y2="665.71"/><polyline class="cls-11" points="604.85 682.18 621.41 682.18 621.41 639.15"/><line class="cls-11" x1="621.41" y1="654.54" x2="621.41" y2="117.7"/><line class="cls-11" x1="273.72" y1="1361.19" x2="273.72" y2="824.66"/><polyline class="cls-11" points="257.15 808.1 257.15 1361.19 273.71 1361.19"/><line class="cls-11" x1="604.85" y1="665.71" x2="497.25" y2="665.71"/><line class="cls-11" x1="480.69" y1="682.18" x2="604.85" y2="682.18"/><polyline class="cls-11" points="480.69 682.18 480.69 665.71 480.69 639.15"/><line class="cls-11" x1="497.25" y1="665.71" x2="497.25" y2="622.59"/><polyline class="cls-11" points="416.98 808.1 416.98 814.67 416.98 824.66"/><line class="cls-11" x1="416.98" y1="808.1" x2="416.98" y2="808.1"/><polyline class="cls-11" points="257.15 808.1 273.71 808.1 400.42 808.1"/><line class="cls-11" x1="273.72" y1="824.66" x2="416.98" y2="824.66"/><polyline class="cls-11" points="416.98 808.1 416.98 808.1 416.98 808.1"/><polyline class="cls-11" points="416.98 824.66 416.98 824.66 416.98 824.66"/><polyline class="cls-11" points="416.98 814.67 416.98 814.67 416.98 808.1 416.98 808.1 416.98 814.67"/><polyline class="cls-11" points="416.98 824.66 416.98 814.67 416.98 808.1 416.98 814.67"/><line class="cls-11" x1="416.98" y1="639.15" x2="480.69" y2="639.15"/><polyline class="cls-11" points="497.25 622.59 480.69 622.59 400.42 622.59"/><polyline class="cls-11" points="416.98 785.75 410.32 785.75 400.42 785.75"/><polyline class="cls-11" points="416.98 702.95 410.32 702.95 400.42 702.95"/><polyline class="cls-11" points="400.42 622.59 400.42 639.15 400.42 702.95"/><line class="cls-11" x1="400.42" y1="785.75" x2="400.42" y2="808.1"/><line class="cls-11" x1="416.98" y1="808.1" x2="416.98" y2="785.75"/><line class="cls-11" x1="416.98" y1="702.95" x2="416.98" y2="639.15"/><line class="cls-11" x1="416.98" y1="785.31" x2="416.98" y2="785.31"/><line class="cls-11" x1="416.98" y1="785.4" x2="416.98" y2="785.4"/><line class="cls-11" x1="416.98" y1="785.49" x2="416.98" y2="785.75"/><line class="cls-11" x1="400.42" y1="785.31" x2="400.42" y2="785.31"/><line class="cls-11" x1="400.42" y1="785.4" x2="400.42" y2="785.4"/><line class="cls-11" x1="400.42" y1="785.49" x2="400.42" y2="785.75"/><path class="cls-11" d="M410.37,734.54a76.19,76.19,0,0,0-76.19,76.19" transform="translate(0 -28.35)"/><polyline class="cls-11" points="416.98 702.95 416.98 706.19 410.32 706.19 410.32 702.95 416.98 702.95"/><polyline class="cls-11" points="410.32 785.75 410.32 782.42 416.98 782.42 416.98 785.75 410.32 785.75"/><line class="cls-11" x1="410.32" y1="782.42" x2="334.18" y2="782.42"/><polyline class="cls-11" points="400.42 702.95 410.32 702.95 416.98 702.95 410.32 702.95"/><polyline class="cls-11" points="400.42 785.75 410.32 785.75 416.98 785.75 410.32 785.75"/><polyline class="cls-11" points="480.69 672.28 416.98 672.28 416.98 682.18 480.69 682.18 480.69 672.28"/><line class="cls-11" x1="269.6" y1="1508.48" x2="12.86" y2="1508.48"/><line class="cls-11" x1="257.15" y1="1496.13" x2="25.3" y2="1496.13"/><line class="cls-11" x1="265.39" y1="1504.37" x2="17.06" y2="1504.37"/><polyline class="cls-11" points="265.39 1504.37 257.15 1504.37 253.04 1504.37 253.04 1501.04 255.05 1501.04 255.05 1496.13 257.15 1496.13 25.3 1496.13"/><polyline class="cls-11" points="179.61 1504.37 182.94 1504.37 182.94 1501.04 180.83 1501.04 180.83 1496.13 179.61 1496.13"/><line class="cls-11" x1="182.94" y1="1504.37" x2="253.04" y2="1504.37"/><polyline class="cls-11" points="255.05 1496.13 250.14 1496.13 185.83 1496.13"/><polyline class="cls-11" points="250.14 1496.13 250.14 1501.04 255.05 1501.04 255.05 1496.13"/><polyline class="cls-11" points="180.83 1501.04 185.83 1501.04 185.83 1496.13 180.83 1496.13 180.83 1501.04"/><line class="cls-11" x1="185.83" y1="1501.04" x2="250.14" y2="1501.04"/><line class="cls-11" x1="250.14" y1="1496.13" x2="185.83" y2="1496.13"/><line class="cls-11" x1="250.14" y1="1498.58" x2="185.83" y2="1498.58"/><line class="cls-11" x1="257.15" y1="1504.37" x2="257.15" y2="1496.13"/><polyline class="cls-11" points="179.61 1496.13 178.38 1496.13 178.38 1501.04 176.28 1501.04 176.28 1504.37 179.61 1504.37"/><polyline class="cls-11" points="102.85 1504.37 106.18 1504.37 106.18 1501.04 104.07 1501.04 104.07 1496.13 102.85 1496.13"/><line class="cls-11" x1="106.18" y1="1504.37" x2="176.28" y2="1504.37"/><polyline class="cls-11" points="178.38 1496.13 173.38 1496.13 109.07 1496.13"/><polyline class="cls-11" points="173.38 1496.13 173.38 1501.04 178.38 1501.04 178.38 1496.13"/><polyline class="cls-11" points="104.07 1501.04 109.07 1501.04 109.07 1496.13 104.07 1496.13 104.07 1501.04"/><line class="cls-11" x1="109.07" y1="1501.04" x2="173.38" y2="1501.04"/><line class="cls-11" x1="173.38" y1="1496.13" x2="109.07" y2="1496.13"/><line class="cls-11" x1="173.38" y1="1498.58" x2="109.07" y2="1498.58"/><polyline class="cls-11" points="102.85 1496.13 101.62 1496.13 101.62 1501.04 99.52 1501.04 99.52 1504.37 102.85 1504.37"/><polyline class="cls-11" points="17.06 1504.37 25.3 1504.37 29.42 1504.37 29.42 1501.04 27.4 1501.04 27.4 1496.13 25.3 1496.13"/><line class="cls-11" x1="29.42" y1="1504.37" x2="99.52" y2="1504.37"/><polyline class="cls-11" points="101.62 1496.13 96.63 1496.13 32.31 1496.13"/><polyline class="cls-11" points="96.63 1496.13 96.63 1501.04 101.62 1501.04 101.62 1496.13"/><polyline class="cls-11" points="27.4 1501.04 32.31 1501.04 32.31 1496.13 27.4 1496.13 27.4 1501.04"/><line class="cls-11" x1="32.31" y1="1501.04" x2="96.62" y2="1501.04"/><line class="cls-11" x1="96.62" y1="1496.13" x2="32.31" y2="1496.13"/><line class="cls-11" x1="96.62" y1="1498.58" x2="32.31" y2="1498.58"/><line class="cls-11" x1="25.3" y1="1504.37" x2="25.3" y2="1496.13"/><line class="cls-11" x1="265.39" y1="1405" x2="257.15" y2="1405"/><polyline class="cls-11" points="269.6 1508.48 269.6 1405 265.39 1405"/><line class="cls-11" x1="257.15" y1="1496.13" x2="257.15" y2="1405"/><line class="cls-11" x1="265.39" y1="1504.37" x2="265.39" y2="1405"/><polyline class="cls-11" points="265.39 1504.37 265.39 1496.13 265.39 1491.92 262.15 1491.92 262.15 1494.03 257.15 1494.03 257.15 1496.13 257.15 1405"/><polyline class="cls-11" points="265.39 1405 265.39 1411.66 262.15 1411.66 262.15 1409.56 257.15 1409.56 257.15 1405"/><line class="cls-11" x1="265.39" y1="1411.66" x2="265.39" y2="1491.92"/><polyline class="cls-11" points="257.15 1494.03 257.15 1489.03 257.15 1414.55"/><polyline class="cls-11" points="257.15 1489.03 262.15 1489.03 262.15 1494.03 257.15 1494.03"/><polyline class="cls-11" points="262.15 1409.56 262.15 1414.55 257.15 1414.55 257.15 1409.56 262.15 1409.56"/><line class="cls-11" x1="262.15" y1="1414.55" x2="262.15" y2="1489.03"/><line class="cls-11" x1="257.15" y1="1489.03" x2="257.15" y2="1414.55"/><line class="cls-11" x1="259.61" y1="1489.03" x2="259.61" y2="1414.55"/><line class="cls-11" x1="265.39" y1="1496.13" x2="257.15" y2="1496.13"/><polyline class="cls-11" points="257.15 1405 265.39 1405 257.15 1405"/><line class="cls-11" x1="17.06" y1="1405" x2="25.3" y2="1405"/><polyline class="cls-11" points="12.86 1508.48 12.86 1405 17.06 1405"/><line class="cls-11" x1="25.3" y1="1496.13" x2="25.3" y2="1405"/><line class="cls-11" x1="17.06" y1="1504.37" x2="17.06" y2="1405"/><polyline class="cls-11" points="17.06 1504.37 17.06 1496.13 17.06 1491.92 20.3 1491.92 20.3 1494.03 25.3 1494.03 25.3 1496.13 25.3 1405"/><polyline class="cls-11" points="17.06 1405 17.06 1411.66 20.3 1411.66 20.3 1409.56 25.3 1409.56 25.3 1405"/><line class="cls-11" x1="17.06" y1="1411.66" x2="17.06" y2="1491.92"/><polyline class="cls-11" points="25.3 1494.03 25.3 1489.03 25.3 1414.55"/><polyline class="cls-11" points="25.3 1489.03 20.3 1489.03 20.3 1494.03 25.3 1494.03"/><polyline class="cls-11" points="20.3 1409.56 20.3 1414.55 25.3 1414.55 25.3 1409.56 20.3 1409.56"/><line class="cls-11" x1="20.3" y1="1414.55" x2="20.3" y2="1489.03"/><line class="cls-11" x1="25.3" y1="1489.03" x2="25.3" y2="1414.55"/><line class="cls-11" x1="22.84" y1="1489.03" x2="22.84" y2="1414.55"/><line class="cls-11" x1="17.06" y1="1496.13" x2="25.3" y2="1496.13"/><polyline class="cls-11" points="25.3 1405 17.06 1405 25.3 1405"/><polyline class="cls-11" points="0.5 89.39 0.5 102.63 13.73 102.63"/><polyline class="cls-11" points="34.32 656.59 15.4 656.59 15.4 611.82 34.32 611.82"/><line class="cls-11" x1="15.4" y1="627.15" x2="15.4" y2="641.26"/><line class="cls-11" x1="30.56" y1="630.48" x2="30.56" y2="632.85"/><line class="cls-11" x1="26.79" y1="634.25" x2="29.15" y2="634.25"/><line class="cls-11" x1="30.56" y1="635.56" x2="30.56" y2="638.02"/><line class="cls-11" x1="31.96" y1="634.25" x2="34.32" y2="634.25"/><path class="cls-11" d="M26,674.42a19.89,19.89,0,0,0,9.43,7.72" transform="translate(0 -28.35)"/><path class="cls-11" d="M23.26,662.53a19.88,19.88,0,0,0,2.79,11.88" transform="translate(0 -28.35)"/><path class="cls-11" d="M35.46,642.87A19.91,19.91,0,0,0,26,650.6" transform="translate(0 -28.35)"/><path class="cls-11" d="M26.05,650.6a19.91,19.91,0,0,0-2.79,11.89" transform="translate(0 -28.35)"/><path class="cls-11" d="M45.6,677.68a36.93,36.93,0,0,0,3.7-13.57" transform="translate(0 -28.35)"/><path class="cls-11" d="M43.66,644.41a11.36,11.36,0,0,0-9.34-4.24" transform="translate(0 -28.35)"/><path class="cls-11" d="M49.34,664a23.35,23.35,0,0,0,0-3.13" transform="translate(0 -28.35)"/><path class="cls-11" d="M26.79,650.05a81.3,81.3,0,0,0,0,25" transform="translate(0 -28.35)"/><path class="cls-11" d="M37.21,641.31A28.06,28.06,0,0,0,19,647.64" transform="translate(0 -28.35)"/><path class="cls-11" d="M17.74,649.75a56.06,56.06,0,0,0-1.38,12.79" transform="translate(0 -28.35)"/><path class="cls-11" d="M19,647.66a3.73,3.73,0,0,0-1.27,2.06" transform="translate(0 -28.35)"/><path class="cls-11" d="M18.93,649.93a95,95,0,0,0-.9,12.61" transform="translate(0 -28.35)"/><path class="cls-11" d="M37.24,641.31a25.22,25.22,0,0,0-17,6.31" transform="translate(0 -28.35)"/><path class="cls-11" d="M20.25,647.58A3.76,3.76,0,0,0,19,649.86" transform="translate(0 -28.35)"/><path class="cls-11" d="M20.17,677.37a25.2,25.2,0,0,0,17,6.34" transform="translate(0 -28.35)"/><path class="cls-11" d="M19,677.35a28.06,28.06,0,0,0,18.24,6.36" transform="translate(0 -28.35)"/><path class="cls-11" d="M18,662.53a93.3,93.3,0,0,0,.89,12.6" transform="translate(0 -28.35)"/><path class="cls-11" d="M16.36,662.49a55.7,55.7,0,0,0,1.37,12.8" transform="translate(0 -28.35)"/><path class="cls-11" d="M18.94,675.06a3.7,3.7,0,0,0,1.22,2.29" transform="translate(0 -28.35)"/><path class="cls-11" d="M17.68,675.29A3.73,3.73,0,0,0,19,677.35" transform="translate(0 -28.35)"/><path class="cls-11" d="M34.32,684.84a11.35,11.35,0,0,0,9.34-4.23" transform="translate(0 -28.35)"/><path class="cls-11" d="M43.68,680.6a17.66,17.66,0,0,0,1.93-3" transform="translate(0 -28.35)"/><path class="cls-11" d="M45.61,647.31a17.66,17.66,0,0,0-1.93-3" transform="translate(0 -28.35)"/><path class="cls-11" d="M49.3,660.91a36.87,36.87,0,0,0-3.7-13.57" transform="translate(0 -28.35)"/><path class="cls-11" d="M46.12,668.62a26.14,26.14,0,0,0,0-12.31" transform="translate(0 -28.35)"/><path class="cls-11" d="M35.48,682.12A6.69,6.69,0,0,0,41,679.81" transform="translate(0 -28.35)"/><path class="cls-11" d="M41,679.82a24.32,24.32,0,0,0,5.11-11.13" transform="translate(0 -28.35)"/><path class="cls-11" d="M41,645.2a6.71,6.71,0,0,0-5.54-2.3" transform="translate(0 -28.35)"/><path class="cls-11" d="M46.14,656.33A24.27,24.27,0,0,0,41,645.2" transform="translate(0 -28.35)"/><path class="cls-11" d="M33.53,662.55a2.94,2.94,0,1,0-2.93,2.94,2.93,2.93,0,0,0,2.93-2.94" transform="translate(0 -28.35)"/><path class="cls-11" d="M32.66,662.55a2.06,2.06,0,1,0-2.06,2.06,2.06,2.06,0,0,0,2.06-2.06" transform="translate(0 -28.35)"/><line class="cls-11" x1="28.1" y1="704.17" x2="57.37" y2="704.17"/><polyline class="cls-11" points="26.35 705.4 15.4 705.4 15.4 673.94"/><line class="cls-11" x1="33.27" y1="689.71" x2="33.27" y2="677.97"/><polyline class="cls-11" points="57.28 704.17 33.27 701.37 33.27 689.71"/><line class="cls-11" x1="57.28" y1="675.17" x2="33.27" y2="677.97"/><line class="cls-11" x1="57.28" y1="703.38" x2="33.27" y2="700.58"/><line class="cls-11" x1="57.28" y1="675.96" x2="33.27" y2="678.76"/><line class="cls-11" x1="28.1" y1="675.17" x2="57.37" y2="675.17"/><line class="cls-11" x1="15.4" y1="673.94" x2="26.35" y2="673.94"/><polyline class="cls-11" points="57.28 704.17 60.52 703.73 63.59 702.51 66.31 700.49 68.41 697.95 69.99 694.8 70.78 691.38 70.78 687.96 69.99 684.54 68.41 681.39 66.31 678.85 63.59 676.83 60.52 675.61 57.28 675.17"/><polyline class="cls-11" points="57.28 703.38 60.35 703.03 63.24 701.81 65.78 699.97 67.8 697.51 69.29 694.53 69.99 691.29 69.99 688.05 69.29 684.81 67.8 681.83 65.78 679.38 63.24 677.53 60.35 676.31 57.28 675.96"/><polyline class="cls-11" points="28.19 703.73 28.63 698.13 28.89 692.52 28.89 686.82 28.63 681.22 28.19 675.61"/><path class="cls-11" d="M26.39,733.66a1.87,1.87,0,0,0,1.88-1.6" transform="translate(0 -28.35)"/><path class="cls-11" d="M28.27,703.91a1.86,1.86,0,0,0-1.88-1.62" transform="translate(0 -28.35)"/><path class="cls-11" d="M23.9,718a1.54,1.54,0,1,0-1.54,1.53A1.53,1.53,0,0,0,23.9,718" transform="translate(0 -28.35)"/><line class="cls-11" x1="20.04" y1="927.27" x2="20.04" y2="885.03"/><line class="cls-11" x1="24.77" y1="880.12" x2="127.21" y2="880.12"/><line class="cls-11" x1="24.77" y1="932.26" x2="127.21" y2="932.26"/><line class="cls-11" x1="156.12" y1="875.13" x2="15.4" y2="875.13"/><polyline class="cls-11" points="156.12 875.13 156.12 937.26 15.4 937.26 15.4 875.13"/><line class="cls-11" x1="110.73" y1="923.59" x2="30.56" y2="923.59"/><line class="cls-11" x1="28.19" y1="921.13" x2="28.19" y2="891.25"/><line class="cls-11" x1="110.73" y1="888.71" x2="30.56" y2="888.71"/><line class="cls-11" x1="44.66" y1="907.73" x2="44.66" y2="910.79"/><line class="cls-11" x1="43.26" y1="906.15" x2="40.37" y2="906.15"/><line class="cls-11" x1="44.66" y1="904.66" x2="44.66" y2="901.59"/><line class="cls-11" x1="46.15" y1="906.15" x2="49.04" y2="906.15"/><path class="cls-11" d="M127.25,960.52c13.62,0,24.67-11.67,24.67-26.07s-11-26.07-24.67-26.07" transform="translate(0 -28.35)"/><path class="cls-11" d="M24.82,908.38a4.83,4.83,0,0,0-4.69,5" transform="translate(0 -28.35)"/><path class="cls-11" d="M20.13,955.57a4.82,4.82,0,0,0,4.69,4.95" transform="translate(0 -28.35)"/><path class="cls-11" d="M44.71,931.87a2.59,2.59,0,1,0,2.41,2.58,2.5,2.5,0,0,0-2.41-2.58" transform="translate(0 -28.35)"/><path class="cls-11" d="M110.78,951.93c9.07,0,16.43-7.82,16.43-17.48S119.85,917,110.78,917" transform="translate(0 -28.35)"/><path class="cls-11" d="M28.28,949.44a2.41,2.41,0,0,0,2.32,2.49" transform="translate(0 -28.35)"/><path class="cls-11" d="M30.6,917.06a2.42,2.42,0,0,0-2.32,2.5" transform="translate(0 -28.35)"/><path class="cls-11" d="M44.71,931A3.46,3.46,0,1,0,48,934.45,3.38,3.38,0,0,0,44.71,931" transform="translate(0 -28.35)"/><polyline class="cls-11" points="34.32 813.88 15.4 813.88 15.4 858.57 34.32 858.57"/><line class="cls-11" x1="15.4" y1="843.32" x2="15.4" y2="829.21"/><line class="cls-11" x1="30.56" y1="839.99" x2="30.56" y2="837.63"/><line class="cls-11" x1="26.79" y1="836.22" x2="29.15" y2="836.22"/><line class="cls-11" x1="30.56" y1="834.82" x2="30.56" y2="832.46"/><line class="cls-11" x1="31.96" y1="836.22" x2="34.32" y2="836.22"/><path class="cls-11" d="M35.46,844.94A19.85,19.85,0,0,0,26,852.67" transform="translate(0 -28.35)"/><path class="cls-11" d="M26.05,852.67a19.88,19.88,0,0,0-2.79,11.88" transform="translate(0 -28.35)"/><path class="cls-11" d="M26,876.48a19.91,19.91,0,0,0,9.43,7.73" transform="translate(0 -28.35)"/><path class="cls-11" d="M23.26,864.59a19.91,19.91,0,0,0,2.79,11.89" transform="translate(0 -28.35)"/><path class="cls-11" d="M49.3,863a36.82,36.82,0,0,0-3.7-13.56" transform="translate(0 -28.35)"/><path class="cls-11" d="M34.32,886.91a11.36,11.36,0,0,0,9.34-4.24" transform="translate(0 -28.35)"/><path class="cls-11" d="M49.34,866.09a23.35,23.35,0,0,0,0-3.13" transform="translate(0 -28.35)"/><path class="cls-11" d="M26.79,852a81.3,81.3,0,0,0,0,25" transform="translate(0 -28.35)"/><path class="cls-11" d="M19,879.35a28.06,28.06,0,0,0,18.25,6.34" transform="translate(0 -28.35)"/><path class="cls-11" d="M16.36,864.54a56.06,56.06,0,0,0,1.38,12.79" transform="translate(0 -28.35)"/><path class="cls-11" d="M17.68,877.36A3.73,3.73,0,0,0,19,879.42" transform="translate(0 -28.35)"/><path class="cls-11" d="M18,864.54a95,95,0,0,0,.9,12.61" transform="translate(0 -28.35)"/><path class="cls-11" d="M20.19,879.46a25.27,25.27,0,0,0,17.05,6.32" transform="translate(0 -28.35)"/><path class="cls-11" d="M19,877.13a3.74,3.74,0,0,0,1.23,2.28" transform="translate(0 -28.35)"/><path class="cls-11" d="M37.21,843.37a25.2,25.2,0,0,0-17,6.34" transform="translate(0 -28.35)"/><path class="cls-11" d="M37.26,843.37A28.11,28.11,0,0,0,19,849.73" transform="translate(0 -28.35)"/><path class="cls-11" d="M18.92,852a93.3,93.3,0,0,0-.89,12.6" transform="translate(0 -28.35)"/><path class="cls-11" d="M17.73,851.79a55.7,55.7,0,0,0-1.37,12.8" transform="translate(0 -28.35)"/><path class="cls-11" d="M20.16,849.65a3.7,3.7,0,0,0-1.22,2.28" transform="translate(0 -28.35)"/><path class="cls-11" d="M19,849.73a3.73,3.73,0,0,0-1.27,2.06" transform="translate(0 -28.35)"/><path class="cls-11" d="M43.66,846.47a11.35,11.35,0,0,0-9.34-4.23" transform="translate(0 -28.35)"/><path class="cls-11" d="M45.61,849.37a17.58,17.58,0,0,0-1.93-3" transform="translate(0 -28.35)"/><path class="cls-11" d="M43.68,882.66a17.58,17.58,0,0,0,1.93-3" transform="translate(0 -28.35)"/><path class="cls-11" d="M45.6,879.65a36.88,36.88,0,0,0,3.7-13.56" transform="translate(0 -28.35)"/><path class="cls-11" d="M46.21,870.68a26.14,26.14,0,0,0,0-12.31" transform="translate(0 -28.35)"/><path class="cls-11" d="M41,847.27A6.72,6.72,0,0,0,35.48,845" transform="translate(0 -28.35)"/><path class="cls-11" d="M46.14,858.39A24.32,24.32,0,0,0,41,847.26" transform="translate(0 -28.35)"/><path class="cls-11" d="M35.48,884.18a6.71,6.71,0,0,0,5.54-2.3" transform="translate(0 -28.35)"/><path class="cls-11" d="M41,881.8a24.35,24.35,0,0,0,5.11-11.14" transform="translate(0 -28.35)"/><path class="cls-11" d="M33.53,864.53a2.94,2.94,0,1,0-2.93,2.93,2.94,2.94,0,0,0,2.93-2.93" transform="translate(0 -28.35)"/><path class="cls-11" d="M32.66,864.53a2.06,2.06,0,1,0-2.06,2.06,2.06,2.06,0,0,0,2.06-2.06" transform="translate(0 -28.35)"/><polyline class="cls-11" points="555.17 530.67 555.17 576.24 600.73 576.24 600.73 530.67 555.17 530.67"/><polyline class="cls-11" points="559.37 534.88 559.37 572.12 592.5 572.12 592.5 534.88 559.37 534.88"/><polyline class="cls-11" points="136.23 87.38 136.23 41.81 136.67 41.81 136.67 87.38 136.23 87.38"/><polyline class="cls-11" points="135 40.59 58.86 40.59 58.86 40.15 135 40.15 135 40.59"/><polyline class="cls-11" points="57.63 41.81 57.63 87.38 57.19 87.38 57.19 41.81 57.63 41.81"/><polyline class="cls-11" points="135 89.39 135 87.38 137.11 87.38 137.11 89.39 135 89.39"/><polyline class="cls-11" points="135 41.81 135 39.71 137.11 39.71 137.11 41.81 135 41.81"/><polyline class="cls-11" points="58.86 41.81 56.76 41.81 56.76 39.71 58.86 39.71 58.86 41.81"/><polyline class="cls-11" points="58.86 87.38 58.86 89.39 56.76 89.39 56.76 87.38 58.86 87.38"/><line class="cls-11" x1="135" y1="88.34" x2="135" y2="41.81"/><line class="cls-11" x1="137.11" y1="39.71" x2="137.11" y2="88.34"/><line class="cls-11" x1="135" y1="41.81" x2="58.86" y2="41.81"/><line class="cls-11" x1="56.76" y1="39.71" x2="137.11" y2="39.71"/><line class="cls-11" x1="58.86" y1="41.81" x2="58.86" y2="88.34"/><line class="cls-11" x1="56.76" y1="88.34" x2="56.76" y2="39.71"/><polyline class="cls-11" points="137.11 88.34 137.11 89.39 135 89.39 135 88.34"/><polyline class="cls-11" points="58.86 88.34 58.86 89.39 56.76 89.39 56.76 88.34"/><polyline class="cls-11" points="56.76 39.71 137.11 39.71 137.11 88.34 135 88.34 135 41.81 58.86 41.81 58.86 88.34 56.76 88.34 56.76 39.71"/><polyline class="cls-11" points="60.87 54.61 132.9 54.61 132.9 81.16 60.87 81.16 60.87 54.61"/><polyline class="cls-11" points="60.87 57.32 132.9 57.32 132.9 81.16 60.87 81.16 60.87 57.32"/><polyline class="cls-11" points="563.49 87.38 563.49 41.81 563.93 41.81 563.93 87.38 563.49 87.38"/><polyline class="cls-11" points="562.26 40.59 486.12 40.59 486.12 40.15 562.26 40.15 562.26 40.59"/><polyline class="cls-11" points="484.8 41.81 484.8 87.38 484.45 87.38 484.45 41.81 484.8 41.81"/><polyline class="cls-11" points="562.26 89.39 562.26 87.38 564.28 87.38 564.28 89.39 562.26 89.39"/><polyline class="cls-11" points="562.26 41.81 562.26 39.71 564.28 39.71 564.28 41.81 562.26 41.81"/><polyline class="cls-11" points="486.12 41.81 484.02 41.81 484.02 39.71 486.12 39.71 486.12 41.81"/><polyline class="cls-11" points="486.12 87.38 486.12 89.39 484.02 89.39 484.02 87.38 486.12 87.38"/><line class="cls-11" x1="562.27" y1="88.34" x2="562.27" y2="41.81"/><line class="cls-11" x1="564.28" y1="39.71" x2="564.28" y2="88.34"/><line class="cls-11" x1="562.27" y1="41.81" x2="486.12" y2="41.81"/><line class="cls-11" x1="484.02" y1="39.71" x2="564.28" y2="39.71"/><line class="cls-11" x1="486.12" y1="41.81" x2="486.12" y2="88.34"/><line class="cls-11" x1="484.02" y1="88.34" x2="484.02" y2="39.71"/><polyline class="cls-11" points="564.28 88.34 564.28 89.39 562.26 89.39 562.26 88.34"/><polyline class="cls-11" points="486.12 88.34 486.12 89.39 484.02 89.39 484.02 88.34"/><polyline class="cls-11" points="484.02 39.71 564.28 39.71 564.28 88.34 562.26 88.34 562.26 41.81 486.12 41.81 486.12 88.34 484.02 88.34 484.02 39.71"/><polyline class="cls-11" points="488.13 54.61 560.16 54.61 560.16 81.16 488.13 81.16 488.13 54.61"/><polyline class="cls-11" points="488.13 57.32 560.16 57.32 560.16 81.16 488.13 81.16 488.13 57.32"/><line class="cls-12" x1="417.77" y1="139.43" x2="417.77" y2="625.92"/><polyline class="cls-11" points="13.73 1361.19 13.73 119.19 0.5 119.19 0.5 1361.19 13.73 1361.19"/><polyline class="cls-11" points="621.41 185.43 604.85 185.43 604.85 102.63 621.41 102.63 621.41 185.43"/><polyline class="cls-11" points="621.41 458.65 604.85 458.65 604.85 375.84 621.41 375.84 621.41 458.65"/><polyline class="cls-11" points="257.15 1104.44 273.71 1104.44 273.71 1021.64 257.15 1021.64 257.15 1104.44"/><polyline class="cls-11" points="257.15 824.66 257.15 808.1 339.96 808.1 339.96 824.66 257.15 824.66"/><polyline class="cls-11" points="257.15 1377.66 273.71 1377.66 273.71 1294.94 257.15 1294.94 257.15 1377.66"/><polyline class="cls-11" points="621.41 682.18 621.41 665.71 497.25 665.71 497.25 682.18 621.41 682.18"/><polyline class="cls-11" points="224.03 185.43 207.47 185.43 207.47 102.63 224.03 102.63 224.03 185.43"/><polyline class="cls-11" points="224.03 458.65 207.47 458.65 207.47 375.84 224.03 375.84 224.03 458.65"/><polyline class="cls-11" points="13.73 185.43 0.5 185.43 0.5 102.63 13.73 102.63 13.73 185.43"/><polyline class="cls-11" points="0.5 1377.66 13.73 1377.66 13.73 1294.94 0.5 1294.94 0.5 1377.66"/></svg>