<svg xmlns="http://www.w3.org/2000/svg" width="268" height="270" viewBox="0 0 268 270">
    <g fill="none" fill-rule="evenodd" stroke="#CDA571">
        <path stroke-width="3" d="M18.39 248.164l.298.298c-4.587-4.217-9.318-11.658-8.9-20.893.42-9.28 6.603-17.971 16.996-19.655a8.538 8.538 0 0 0-.926-17.023C12.48 190.89 1.5 180.05 1.5 166.676c0-13.376 10.844-24.22 24.22-24.22l40.493-.491a8.537 8.537 0 0 0 8.537-8.537 8.537 8.537 0 0 0-8.537-8.537l-1.22.019v.029c-13.376 0-24.22-10.844-24.22-24.22s10.844-24.22 24.22-24.22l-1.654-.077 76.969.15c4.714 0 8.605-3.646 8.605-8.361a8.536 8.536 0 0 0-8.537-8.536l-5.518.245c-10.186 0-18.443-8.257-18.443-18.442 0-10.186 8.257-18.443 18.443-18.443l108.997-.037"/>
        <path stroke-width="8" d="M243.855 21.863l-.038 110.13c0 10.187-8.257 18.444-18.443 18.444-10.185 0-18.443-8.257-18.443-18.443l.246-5.52a8.537 8.537 0 0 0-8.536-8.536c-4.715 0-8.362 3.892-8.362 8.606l.073 75.315c0 13.376-10.843 24.22-24.22 24.22-13.375 0-24.22-10.844-24.22-24.22h.03l.018-1.22a8.537 8.537 0 0 0-17.073 0l-.491 40.493c0 13.376-10.844 24.219-24.22 24.219s-24.214-10.98-24.214-24.357a8.537 8.537 0 0 0-17.024-.926c-1.684 10.393-10.376 16.575-19.655 16.995-9.235.419-15.161-6.22-19.38-10.807"/>
        <path stroke-width="3" d="M18.39 247.761L266.5 1.063"/>
    </g>
</svg>
