<svg id="_14_1" data-name="14_1" xmlns="http://www.w3.org/2000/svg" viewBox="0 0 791.08 1876.22"><defs><style>.cls-1{isolation:isolate;font-size:12px;fill:#969696;}.cls-1,.cls-7,.cls-9{font-family:PTSans-Regular, PT Sans;}.cls-2{letter-spacing:-0.01em;}.cls-3,.cls-4,.cls-5,.cls-6,.cls-8{fill:none;stroke-linecap:round;stroke-linejoin:round;}.cls-3{stroke:#969696;stroke-width:0.75px;}.cls-4,.cls-5,.cls-6,.cls-8{stroke:#000;}.cls-4,.cls-5{stroke-width:0.25px;}.cls-5{stroke-dasharray:0.99 0.99;}.cls-6{stroke-width:1.5px;}.cls-7{font-size:40px;}.cls-9{font-size:36px;}</style></defs><title>1floor_14_1office</title><text class="cls-1" transform="translate(387.4 1873.03)"><tspan class="cls-2">у</tspan><tspan x="5.42" y="0">лица</tspan></text><line class="cls-3" x1="376.64" y1="1875.85" x2="376.64" y2="1867.05"/><polyline class="cls-3" points="373.14 1872.35 376.64 1875.85 380.14 1872.35"/><text class="cls-1" transform="translate(389.97 10.2)">двор</text><line class="cls-3" x1="379.21" y1="4.22" x2="379.21" y2="13.02"/><polyline class="cls-3" points="382.71 7.72 379.21 4.22 375.71 7.72"/><line class="cls-4" x1="428.54" y1="610.39" x2="428.54" y2="610.89"/><line class="cls-5" x1="428.54" y1="611.88" x2="428.54" y2="718.56"/><line class="cls-4" x1="428.54" y1="719.06" x2="428.54" y2="719.56"/><line class="cls-4" x1="436.23" y1="610.39" x2="436.23" y2="610.89"/><line class="cls-5" x1="436.23" y1="611.88" x2="436.23" y2="718.56"/><line class="cls-4" x1="436.23" y1="719.06" x2="436.23" y2="719.56"/><line class="cls-6" x1="1.66" y1="1724.01" x2="19.89" y2="1724.01"/><line class="cls-6" x1="0.75" y1="1723.05" x2="19.89" y2="1723.05"/><polyline class="cls-6" points="1.66 1735.45 19.89 1735.45 19.89 1724.01"/><line class="cls-6" x1="19.89" y1="1723.05" x2="19.89" y2="1703.9"/><line class="cls-6" x1="0.75" y1="1725.38" x2="0.75" y2="1724.01"/><line class="cls-6" x1="0.75" y1="1723.05" x2="0.75" y2="1723.05"/><line class="cls-6" x1="0.75" y1="1703.9" x2="0.75" y2="1703.9"/><polyline class="cls-6" points="0.75 1716.31 0.75 1723.05 0.75 1723.05 0.75 1716.31 0.75 1716.31"/><polyline class="cls-6" points="0.75 1723.05 0.75 1732.62 0.75 1732.62 0.75 1723.05 0.75 1723.05"/><polyline class="cls-6" points="0.75 1703.9 0.75 1716.31 0.75 1723.05 0.75 1716.31"/><line class="cls-6" x1="345.76" y1="1724.01" x2="457.74" y2="1724.01"/><line class="cls-6" x1="24.66" y1="1724.01" x2="95.97" y2="1724.01"/><line class="cls-6" x1="349.61" y1="1723.05" x2="465.38" y2="1723.05"/><line class="cls-6" x1="24.66" y1="1723.05" x2="92.12" y2="1723.05"/><line class="cls-6" x1="92.12" y1="1716.31" x2="92.12" y2="1684.76"/><line class="cls-6" x1="95.97" y1="1735.46" x2="95.97" y2="1724.01"/><line class="cls-6" x1="92.12" y1="1723.05" x2="92.12" y2="1716.31"/><line class="cls-6" x1="349.61" y1="1716.31" x2="349.61" y2="1684.76"/><line class="cls-6" x1="345.76" y1="1735.46" x2="345.76" y2="1724.01"/><line class="cls-6" x1="349.61" y1="1723.05" x2="349.61" y2="1716.31"/><line class="cls-6" x1="24.66" y1="1735.46" x2="95.97" y2="1735.46"/><line class="cls-6" x1="345.76" y1="1735.46" x2="574.55" y2="1735.46"/><polyline class="cls-6" points="465.38 1723.05 465.38 1684.76 349.61 1684.76"/><line class="cls-6" x1="92.12" y1="1684.76" x2="72.52" y2="1684.76"/><line class="cls-6" x1="24.66" y1="1735.46" x2="24.66" y2="1724.01"/><line class="cls-6" x1="24.66" y1="1723.05" x2="24.66" y2="1684.76"/><line class="cls-6" x1="345.76" y1="1735.46" x2="1.21" y2="1735.46"/><line class="cls-6" x1="349.61" y1="1684.76" x2="92.12" y2="1684.76"/><polyline class="cls-6" points="349.61 1723.05 340.03 1723.05 340.03 1716.31 349.61 1716.31"/><polyline class="cls-6" points="220.86 1716.31 225.67 1716.31 225.67 1723.05 220.86 1723.05"/><line class="cls-6" x1="340.03" y1="1719.7" x2="225.67" y2="1719.7"/><line class="cls-6" x1="340.03" y1="1723.05" x2="225.67" y2="1723.05"/><line class="cls-6" x1="225.67" y1="1716.31" x2="340.03" y2="1716.31"/><polyline class="cls-6" points="220.86 1723.05 216.1 1723.05 216.1 1716.31 220.86 1716.31"/><polyline class="cls-6" points="92.12 1716.31 101.69 1716.31 101.69 1723.05 92.12 1723.05"/><line class="cls-6" x1="216.1" y1="1719.7" x2="101.69" y2="1719.7"/><line class="cls-6" x1="216.1" y1="1723.05" x2="101.69" y2="1723.05"/><line class="cls-6" x1="101.69" y1="1716.31" x2="216.1" y2="1716.31"/><polyline class="cls-6" points="349.61 1716.31 349.61 1723.05 349.61 1716.31"/><polyline class="cls-6" points="349.61 1723.05 345.76 1723.05 349.61 1723.05"/><polyline class="cls-6" points="345.76 1735.45 345.76 1724.01 345.76 1723.05"/><line class="cls-6" x1="349.61" y1="1716.31" x2="349.61" y2="1684.76"/><polyline class="cls-6" points="92.12 1716.31 92.12 1723.05 92.12 1716.31"/><polyline class="cls-6" points="92.12 1723.05 95.97 1723.05 92.12 1723.05"/><polyline class="cls-6" points="95.97 1735.45 95.97 1724.01 95.97 1723.05"/><line class="cls-6" x1="92.12" y1="1716.31" x2="92.12" y2="1684.76"/><line class="cls-6" x1="713.3" y1="1723.05" x2="722.87" y2="1723.05"/><line class="cls-6" x1="722.87" y1="1703.9" x2="713.3" y2="1703.9"/><polyline class="cls-6" points="569.72 1723.05 560.14 1723.05 560.14 1703.9 569.72 1703.9"/><polyline class="cls-6" points="465.38 1703.9 474.96 1703.9 474.96 1723.05 465.38 1723.05"/><line class="cls-6" x1="560.14" y1="1713.47" x2="474.96" y2="1713.47"/><line class="cls-6" x1="560.14" y1="1723.05" x2="474.96" y2="1723.05"/><line class="cls-6" x1="474.96" y1="1703.9" x2="560.14" y2="1703.9"/><polyline class="cls-6" points="465.38 1703.9 465.38 1723.05 465.38 1703.9"/><path class="cls-6" d="M622.44,1751.37a86.13,86.13,0,0,0,86.13,86.12" transform="translate(0 -28.35)"/><path class="cls-6" d="M574.55,1799.2a47.83,47.83,0,0,0,47.84-47.83" transform="translate(0 -28.35)"/><polyline class="cls-6" points="708.54 1799.63 708.54 1732.62 706.11 1732.62 706.11 1799.63 708.54 1799.63"/><polyline class="cls-6" points="706.11 1799.63 706.11 1732.62 703.73 1732.62 703.73 1799.63 706.11 1799.63"/><polyline class="cls-6" points="574.53 1732.62 576.91 1732.62 576.91 1761.34 574.53 1761.34 574.53 1732.62"/><polyline class="cls-6" points="576.91 1732.62 579.29 1732.62 579.29 1761.34 576.91 1761.34 576.91 1732.62"/><polyline class="cls-6" points="574.53 1716.31 574.53 1723.05 569.72 1723.05 569.72 1716.31 574.53 1716.31"/><polyline class="cls-6" points="713.3 1716.31 713.3 1723.05 708.54 1723.05 708.54 1716.31 713.3 1716.31"/><polyline class="cls-6" points="708.54 1809.2 708.54 1799.63 703.73 1799.63 703.73 1809.2 708.54 1809.2"/><polyline class="cls-6" points="703.73 1723.05 703.73 1732.62 708.54 1732.62 708.54 1723.05 703.73 1723.05"/><line class="cls-6" x1="706.11" y1="1799.63" x2="706.11" y2="1732.62"/><polyline class="cls-6" points="574.53 1770.91 574.53 1761.34 579.29 1761.34 579.29 1770.91 574.53 1770.91"/><polyline class="cls-6" points="579.29 1723.05 579.29 1732.62 574.53 1732.62 574.53 1723.05 579.29 1723.05"/><line class="cls-6" x1="576.91" y1="1761.34" x2="576.91" y2="1732.62"/><polyline class="cls-6" points="569.72 1703.9 569.72 1716.31 569.72 1723.05 569.72 1716.31"/><polyline class="cls-6" points="713.3 1703.9 713.3 1716.31 713.3 1723.05 713.3 1716.31"/><line class="cls-6" x1="730.52" y1="1724.01" x2="790.33" y2="1724.01"/><line class="cls-6" x1="722.87" y1="1723.05" x2="790.33" y2="1723.05"/><line class="cls-6" x1="730.52" y1="1735.46" x2="790.33" y2="1735.46"/><line class="cls-6" x1="790.33" y1="1684.76" x2="790.33" y2="1684.76"/><line class="cls-6" x1="756.86" y1="1684.76" x2="722.87" y2="1684.76"/><line class="cls-6" x1="722.87" y1="1723.05" x2="722.87" y2="1684.76"/><polyline class="cls-6" points="263.91 249.07 263.91 378.27 292.63 378.27 292.63 249.07 263.91 249.07"/><polyline class="cls-6" points="292.63 249.07 292.63 378.27 321.35 378.27 321.35 249.07 292.63 249.07"/><polyline class="cls-6" points="321.35 249.07 321.35 378.27 350.06 378.27 350.06 249.07 321.35 249.07"/><polyline class="cls-6" points="350.06 249.07 350.06 378.27 378.78 378.27 378.78 249.07 350.06 249.07"/><polyline class="cls-6" points="436.21 378.27 378.78 249.07 378.78 378.27 407.5 378.27 407.5 313.65 407.5 378.27 436.21 378.27"/><polyline class="cls-6" points="263.91 313.65 292.63 313.65 407.5 313.65 388.35 289.74"/><line class="cls-6" x1="388.35" y1="337.6" x2="407.5" y2="313.65"/><polyline class="cls-6" points="409.88 198.32 381.16 198.32 381.16 69.12 409.88 69.12 409.88 198.32 409.88 69.12 438.59 69.12 438.59 198.32 438.59 69.12 467.31 69.12 467.31 198.32 496.03 198.32 496.03 69.12 467.31 69.12 467.31 198.32 438.59 198.32 409.88 198.32"/><polyline class="cls-6" points="496.03 133.7 467.31 133.7 409.88 133.7 381.16 133.7 400.3 157.65"/><line class="cls-6" x1="400.3" y1="109.79" x2="381.16" y2="133.7"/><line class="cls-6" x1="428.56" y1="545.76" x2="790.33" y2="545.76"/><polyline class="cls-6" points="771.19 526.62 428.56 526.62 428.56 545.76"/><line class="cls-6" x1="19.89" y1="209.82" x2="0.75" y2="209.82"/><line class="cls-6" x1="19.89" y1="210.78" x2="0.75" y2="210.78"/><polyline class="cls-6" points="0.75 209.82 0.75 210.78 0.75 223.19"/><line class="cls-6" x1="0.75" y1="223.19" x2="0.75" y2="223.19"/><line class="cls-6" x1="0.75" y1="198.32" x2="0.75" y2="209.82"/><line class="cls-6" x1="0.75" y1="210.78" x2="0.75" y2="223.19"/><polyline class="cls-6" points="0.75 209.82 0.75 209.82 0.75 223.19 0.75 209.82"/><line class="cls-6" x1="0.75" y1="198.32" x2="0.75" y2="198.32"/><polyline class="cls-6" points="0.75 223.19 0.75 229.93 0.75 249.07 0.75 249.07"/><line class="cls-6" x1="19.89" y1="198.32" x2="19.89" y2="209.82"/><line class="cls-6" x1="19.89" y1="210.78" x2="19.89" y2="229.93"/><line class="cls-6" x1="74.3" y1="198.32" x2="0.75" y2="198.32"/><polyline class="cls-6" points="0.75 229.93 0.75 229.93 0.75 229.93 0.75 223.19 0.75 223.19 0.75 223.19"/><line class="cls-6" x1="0.75" y1="223.19" x2="0.75" y2="229.93"/><polyline class="cls-6" points="0.75 249.07 0.75 229.93 0.75 223.19 0.75 229.93"/><line class="cls-6" x1="0.75" y1="198.32" x2="0.75" y2="209.82"/><polyline class="cls-6" points="0.75 223.19 0.75 223.19 0.75 223.19"/><polyline class="cls-6" points="0.75 223.19 0.75 223.19 0.75 223.19"/><polyline class="cls-6" points="0.75 209.82 0.75 210.78 0.75 223.19"/><line class="cls-6" x1="436.21" y1="612.82" x2="428.56" y2="612.82"/><polyline class="cls-6" points="436.21 746.78 436.21 710.41 428.56 710.41"/><polyline class="cls-6" points="436.21 612.82 436.21 545.76 428.56 545.76 428.56 612.82"/><line class="cls-6" x1="428.56" y1="710.41" x2="428.56" y2="754.43"/><polyline class="cls-6" points="85.89 530.47 85.89 526.62 82.39 526.62"/><polyline class="cls-6" points="85.89 545.76 85.89 541 85.89 545.76 82.39 545.76"/><line class="cls-6" x1="85.89" y1="541" x2="85.89" y2="530.46"/><polyline class="cls-6" points="210.33 530.47 210.33 526.62 213.87 526.62"/><polyline class="cls-6" points="210.33 545.76 210.33 541 210.33 545.76 213.87 545.76"/><line class="cls-6" x1="210.33" y1="541" x2="210.33" y2="530.46"/><line class="cls-6" x1="43.8" y1="545.76" x2="85.89" y2="545.76"/><polyline class="cls-6" points="210.33 545.76 428.56 545.76 428.56 526.62 210.33 526.62"/><polyline class="cls-6" points="85.89 526.62 43.8 526.62 43.8 545.76"/><line class="cls-6" x1="210.33" y1="545.76" x2="210.17" y2="545.76"/><line class="cls-6" x1="86.09" y1="545.76" x2="85.89" y2="545.76"/><line class="cls-6" x1="210.33" y1="526.62" x2="210.17" y2="526.62"/><line class="cls-6" x1="86.09" y1="526.62" x2="85.89" y2="526.62"/><path class="cls-6" d="M174.77,558.79a85,85,0,0,0-85-85" transform="translate(0 -28.35)"/><path class="cls-6" d="M206.55,527a31.78,31.78,0,0,0-31.78,31.79" transform="translate(0 -28.35)"/><polyline class="cls-6" points="210.33 541 206.53 541 206.53 530.47 210.33 530.47 210.33 541"/><polyline class="cls-6" points="85.89 530.47 89.74 530.47 89.74 541 85.89 541 85.89 530.47"/><line class="cls-6" x1="89.74" y1="530.46" x2="89.74" y2="445.43"/><line class="cls-6" x1="206.53" y1="530.46" x2="206.53" y2="498.66"/><polyline class="cls-6" points="210.33 530.47 210.33 541 210.33 530.47"/><polyline class="cls-6" points="210.33 541 210.33 545.76 210.33 541"/><line class="cls-6" x1="210.33" y1="530.46" x2="210.33" y2="526.62"/><polyline class="cls-6" points="210.33 545.76 213.87 545.76 210.33 545.76 210.33 541"/><polyline class="cls-6" points="210.33 530.47 210.33 526.62 213.87 526.62 210.33 526.62"/><polyline class="cls-6" points="85.89 530.47 85.89 541 85.89 530.47"/><polyline class="cls-6" points="85.89 541 85.89 545.76 85.89 541"/><line class="cls-6" x1="85.89" y1="530.46" x2="85.89" y2="526.62"/><polyline class="cls-6" points="85.89 545.76 82.39 545.76 85.89 545.76 85.89 541"/><polyline class="cls-6" points="85.89 530.47 85.89 526.62 82.39 526.62 85.89 526.62"/><polyline class="cls-6" points="732.9 601.27 771.19 601.27 771.19 593.62 732.9 593.62"/><polyline class="cls-6" points="725.25 555.33 729.1 555.33 732.9 555.33"/><polyline class="cls-6" points="725.25 593.62 729.1 593.62 732.9 593.62"/><line class="cls-6" x1="725.25" y1="545.76" x2="725.25" y2="555.33"/><line class="cls-6" x1="725.25" y1="593.62" x2="725.25" y2="746.78"/><line class="cls-6" x1="732.9" y1="746.78" x2="732.9" y2="601.27"/><polyline class="cls-6" points="732.9 555.33 732.9 545.76 725.25 545.76"/><line class="cls-6" x1="725.25" y1="593.62" x2="725.25" y2="555.33"/><line class="cls-6" x1="732.9" y1="593.62" x2="732.9" y2="555.33"/><path class="cls-6" d="M712.19,619.61a38.24,38.24,0,0,0,13.09,2.31" transform="translate(0 -28.35)"/><line class="cls-6" x1="725.25" y1="555.33" x2="712.19" y2="591.29"/><polyline class="cls-6" points="732.9 593.62 729.1 593.62 725.25 593.62 729.1 593.62"/><polyline class="cls-6" points="732.9 555.33 729.1 555.33 725.25 555.33 729.1 555.33"/><line class="cls-6" x1="771.19" y1="746.78" x2="732.9" y2="746.78"/><line class="cls-6" x1="725.25" y1="746.78" x2="436.21" y2="746.78"/><polyline class="cls-6" points="428.56 754.42 436.21 754.42 771.19 754.42 771.19 746.78"/><line class="cls-6" x1="0.75" y1="1703.9" x2="0.75" y2="1483.74"/><line class="cls-6" x1="761.62" y1="1483.74" x2="761.62" y2="1656.04"/><line class="cls-6" x1="760.66" y1="1483.74" x2="760.66" y2="1656.04"/><line class="cls-6" x1="771.19" y1="1656.04" x2="771.19" y2="1483.74"/><line class="cls-6" x1="790.33" y1="1656.04" x2="790.33" y2="1483.74"/><line class="cls-6" x1="790.33" y1="1483.74" x2="790.33" y2="1656.04"/><line class="cls-6" x1="790.33" y1="1656.04" x2="790.33" y2="1483.74"/><polyline class="cls-6" points="24.66 325.6 24.66 545.76 43.8 545.76 43.8 325.6"/><line class="cls-6" x1="756.86" y1="464.83" x2="771.19" y2="464.83"/><line class="cls-6" x1="771.19" y1="455.25" x2="756.86" y2="455.25"/><line class="cls-6" x1="756.86" y1="465.79" x2="756.86" y2="464.83"/><line class="cls-6" x1="756.86" y1="464.83" x2="756.86" y2="455.25"/><line class="cls-6" x1="756.86" y1="465.79" x2="771.19" y2="465.79"/><line class="cls-6" x1="771.19" y1="465.79" x2="771.19" y2="464.83"/><line class="cls-6" x1="771.19" y1="464.83" x2="771.19" y2="455.25"/><line class="cls-6" x1="747.29" y1="1656.04" x2="747.29" y2="1684.76"/><line class="cls-6" x1="746.32" y1="1656.04" x2="746.32" y2="1684.76"/><line class="cls-6" x1="756.86" y1="1684.76" x2="756.86" y2="1656.04"/><line class="cls-6" x1="746.32" y1="1656.04" x2="747.29" y2="1656.04"/><line class="cls-6" x1="747.29" y1="1656.04" x2="756.86" y2="1656.04"/><line class="cls-6" x1="790.33" y1="465.79" x2="790.33" y2="464.83"/><line class="cls-6" x1="790.33" y1="464.83" x2="790.33" y2="455.25"/><line class="cls-6" x1="790.33" y1="1684.76" x2="790.33" y2="1656.04"/><line class="cls-6" x1="790.33" y1="1656.04" x2="790.33" y2="1684.76"/><line class="cls-6" x1="790.33" y1="1684.76" x2="790.33" y2="1656.04"/><line class="cls-6" x1="790.33" y1="1656.04" x2="790.33" y2="1656.04"/><line class="cls-6" x1="790.33" y1="1656.04" x2="790.33" y2="1656.04"/><line class="cls-6" x1="771.19" y1="545.76" x2="771.19" y2="1029.13"/><line class="cls-6" x1="771.19" y1="1076.94" x2="771.19" y2="1656.04"/><line class="cls-6" x1="790.33" y1="1735.46" x2="790.33" y2="1076.94"/><polyline class="cls-6" points="790.34 1029.13 790.34 545.76 771.19 545.76"/><line class="cls-6" x1="19.89" y1="1608.18" x2="19.89" y2="1388.02"/><line class="cls-6" x1="19.89" y1="1292.35" x2="19.89" y2="899.88"/><line class="cls-6" x1="19.89" y1="969.06" x2="19.89" y2="641.48"/><line class="cls-6" x1="19.89" y1="545.76" x2="19.89" y2="325.6"/><line class="cls-6" x1="0.75" y1="325.6" x2="0.75" y2="545.76"/><line class="cls-6" x1="0.75" y1="641.48" x2="0.75" y2="969.06"/><line class="cls-6" x1="0.75" y1="899.88" x2="0.75" y2="1292.35"/><line class="cls-6" x1="0.75" y1="1388.02" x2="0.75" y2="1608.18"/><line class="cls-6" x1="569.72" y1="1483.74" x2="569.72" y2="1474.17"/><line class="cls-6" x1="771.19" y1="1483.74" x2="771.19" y2="1474.17"/><line class="cls-6" x1="569.72" y1="1474.17" x2="560.14" y2="1474.17"/><path class="cls-6" d="M574.55,1554.17a42.11,42.11,0,0,0,42.12-42.11,86.13,86.13,0,0,0,86.12,86.13" transform="translate(0 -28.35)"/><polyline class="cls-6" points="712.34 1483.74 753.97 1483.74 753.97 1474.17 712.34 1474.17 712.34 1483.74"/><polyline class="cls-6" points="574.53 1493.31 576.91 1493.31 576.91 1516.31 574.53 1516.31 574.53 1493.31"/><polyline class="cls-6" points="576.91 1493.31 579.29 1493.31 579.29 1516.31 576.91 1516.31 576.91 1493.31"/><polyline class="cls-6" points="702.77 1560.32 702.77 1493.31 700.39 1493.31 700.39 1560.32 702.77 1560.32"/><polyline class="cls-6" points="700.39 1560.32 700.39 1493.31 698.01 1493.31 698.01 1560.32 700.39 1560.32"/><line class="cls-6" x1="761.62" y1="1483.74" x2="771.19" y2="1483.74"/><polyline class="cls-6" points="761.62 1474.17 761.62 1483.74 753.97 1483.74 753.97 1474.17 761.62 1474.17 771.19 1474.17 771.19 1483.74"/><polyline class="cls-6" points="702.77 1474.17 702.77 1483.74 712.34 1483.74 712.34 1474.17 702.77 1474.17"/><polyline class="cls-6" points="569.72 1474.17 569.72 1483.74 574.53 1483.74 574.53 1474.17 569.72 1474.17"/><line class="cls-6" x1="753.97" y1="1478.98" x2="712.34" y2="1478.98"/><line class="cls-6" x1="712.34" y1="1474.17" x2="753.97" y2="1474.17"/><polyline class="cls-6" points="574.53 1525.88 574.53 1516.31 579.29 1516.31 579.29 1525.88 574.53 1525.88"/><polyline class="cls-6" points="579.29 1483.74 579.29 1493.31 574.53 1493.31 574.53 1483.74 579.29 1483.74"/><line class="cls-6" x1="576.91" y1="1516.31" x2="576.91" y2="1493.31"/><polyline class="cls-6" points="702.77 1569.89 702.77 1560.32 698.01 1560.32 698.01 1569.89 702.77 1569.89"/><polyline class="cls-6" points="698.01 1483.74 698.01 1493.31 702.77 1493.31 702.77 1483.74 698.01 1483.74"/><line class="cls-6" x1="700.39" y1="1560.32" x2="700.39" y2="1493.31"/><polyline class="cls-6" points="771.19 1474.17 771.19 1483.74 771.19 1474.17"/><polyline class="cls-6" points="569.72 1474.17 569.72 1483.74 569.72 1474.17"/><line class="cls-6" x1="569.72" y1="1723.05" x2="560.14" y2="1723.05"/><polyline class="cls-6" points="569.72 1483.74 560.14 1483.74 560.14 1474.17"/><line class="cls-6" x1="569.72" y1="1483.74" x2="569.72" y2="1723.05"/><line class="cls-6" x1="560.14" y1="1483.74" x2="560.14" y2="1723.05"/><line class="cls-6" x1="569.72" y1="1483.74" x2="569.72" y2="1488.55"/><line class="cls-6" x1="569.72" y1="1488.55" x2="560.14" y2="1488.55"/><line class="cls-6" x1="560.14" y1="1488.55" x2="560.14" y2="1483.74"/><line class="cls-6" x1="560.14" y1="1596.23" x2="560.14" y2="1591.42"/><line class="cls-6" x1="560.14" y1="1591.42" x2="569.72" y2="1591.42"/><line class="cls-6" x1="569.72" y1="1591.42" x2="569.72" y2="1596.23"/><line class="cls-6" x1="564.96" y1="1488.55" x2="564.96" y2="1591.42"/><line class="cls-6" x1="569.72" y1="1488.55" x2="569.72" y2="1591.42"/><line class="cls-6" x1="560.14" y1="1591.42" x2="560.14" y2="1488.55"/><line class="cls-6" x1="569.72" y1="1596.23" x2="569.72" y2="1600.99"/><line class="cls-6" x1="569.72" y1="1600.99" x2="560.14" y2="1600.99"/><line class="cls-6" x1="560.14" y1="1600.99" x2="560.14" y2="1596.23"/><line class="cls-6" x1="564.96" y1="1600.99" x2="564.96" y2="1703.9"/><line class="cls-6" x1="569.72" y1="1600.99" x2="569.72" y2="1703.9"/><line class="cls-6" x1="560.14" y1="1703.9" x2="560.14" y2="1600.99"/><line class="cls-6" x1="790.33" y1="1483.74" x2="790.33" y2="1474.17"/><line class="cls-6" x1="790.33" y1="1483.74" x2="790.33" y2="1483.74"/><polyline class="cls-6" points="790.34 1483.74 790.34 1474.17 790.34 1474.17"/><line class="cls-6" x1="790.33" y1="1483.74" x2="790.33" y2="1483.74"/><polyline class="cls-6" points="790.34 1474.17 790.34 1483.74 790.34 1483.74 790.34 1474.17 790.34 1474.17 790.34 1474.17 790.34 1483.74"/><line class="cls-6" x1="790.33" y1="1478.98" x2="790.33" y2="1478.98"/><line class="cls-6" x1="790.33" y1="1474.17" x2="790.33" y2="1474.17"/><polyline class="cls-6" points="790.34 1474.17 790.34 1483.74 790.34 1474.17"/><polyline class="cls-6" points="0.75 1560.32 0.75 1493.31 0.75 1493.31 0.75 1560.32 0.75 1560.32"/><polyline class="cls-6" points="0.75 1560.32 0.75 1493.31 0.75 1493.31 0.75 1560.32 0.75 1560.32"/><line class="cls-6" x1="0.75" y1="1483.74" x2="0.75" y2="1483.74"/><line class="cls-6" x1="0.75" y1="1474.17" x2="0.75" y2="1474.17"/><polyline class="cls-6" points="0.75 1474.17 0.75 1483.74 0.75 1483.74 0.75 1474.17 0.75 1474.17"/><polyline class="cls-6" points="0.75 1569.89 0.75 1560.32 0.75 1560.32 0.75 1569.89 0.75 1569.89"/><polyline class="cls-6" points="0.75 1483.74 0.75 1493.31 0.75 1493.31 0.75 1483.74 0.75 1483.74"/><line class="cls-6" x1="0.75" y1="1560.32" x2="0.75" y2="1493.31"/><line class="cls-6" x1="790.33" y1="209.82" x2="767.39" y2="209.82"/><line class="cls-6" x1="542.47" y1="209.82" x2="231.4" y2="209.82"/><line class="cls-6" x1="110.81" y1="209.82" x2="24.66" y2="209.82"/><line class="cls-6" x1="790.33" y1="210.78" x2="771.19" y2="210.78"/><line class="cls-6" x1="538.62" y1="210.78" x2="235.25" y2="210.78"/><line class="cls-6" x1="106.96" y1="210.78" x2="24.66" y2="210.78"/><line class="cls-6" x1="771.19" y1="217.47" x2="771.19" y2="249.07"/><line class="cls-6" x1="767.39" y1="199.74" x2="767.39" y2="209.82"/><line class="cls-6" x1="771.19" y1="210.78" x2="771.19" y2="217.47"/><line class="cls-6" x1="538.62" y1="217.47" x2="538.62" y2="249.07"/><line class="cls-6" x1="542.47" y1="198.32" x2="542.47" y2="209.82"/><line class="cls-6" x1="538.62" y1="210.78" x2="538.62" y2="217.47"/><line class="cls-6" x1="767.39" y1="199.74" x2="790.33" y2="199.74"/><line class="cls-6" x1="790.33" y1="217.47" x2="790.33" y2="249.07"/><line class="cls-6" x1="790.33" y1="199.74" x2="790.33" y2="209.82"/><line class="cls-6" x1="790.33" y1="210.78" x2="790.33" y2="217.47"/><line class="cls-6" x1="106.96" y1="220.35" x2="106.96" y2="249.07"/><line class="cls-6" x1="110.81" y1="198.32" x2="110.81" y2="209.82"/><line class="cls-6" x1="106.96" y1="210.78" x2="106.96" y2="220.35"/><line class="cls-6" x1="235.25" y1="220.35" x2="235.25" y2="249.07"/><line class="cls-6" x1="231.4" y1="198.32" x2="231.4" y2="209.82"/><line class="cls-6" x1="235.25" y1="210.78" x2="235.25" y2="220.35"/><line class="cls-6" x1="43.8" y1="249.07" x2="106.96" y2="249.07"/><line class="cls-6" x1="235.25" y1="249.07" x2="538.62" y2="249.07"/><line class="cls-6" x1="542.47" y1="198.32" x2="231.4" y2="198.32"/><polyline class="cls-6" points="110.81 198.32 24.66 198.32 24.66 209.82"/><line class="cls-6" x1="24.66" y1="210.78" x2="24.66" y2="229.93"/><line class="cls-6" x1="542.47" y1="198.32" x2="767.39" y2="198.32"/><line class="cls-6" x1="538.62" y1="249.07" x2="771.19" y2="249.07"/><polyline class="cls-6" points="538.62 210.78 547.23 210.78 547.23 217.47 538.62 217.47"/><polyline class="cls-6" points="654.9 217.47 650.6 217.47 650.6 210.78 654.9 210.78"/><line class="cls-6" x1="547.23" y1="214.12" x2="650.6" y2="214.12"/><line class="cls-6" x1="547.23" y1="210.78" x2="650.6" y2="210.78"/><line class="cls-6" x1="650.6" y1="217.47" x2="547.23" y2="217.47"/><polyline class="cls-6" points="654.9 210.78 659.21 210.78 659.21 217.47 654.9 217.47"/><polyline class="cls-6" points="771.19 217.47 762.58 217.47 762.58 210.78 771.19 210.78"/><line class="cls-6" x1="659.21" y1="214.12" x2="762.58" y2="214.12"/><line class="cls-6" x1="659.21" y1="210.78" x2="762.58" y2="210.78"/><line class="cls-6" x1="762.58" y1="217.47" x2="659.21" y2="217.47"/><polyline class="cls-6" points="538.62 217.47 538.62 210.78 538.62 217.47"/><polyline class="cls-6" points="538.62 210.78 542.47 210.78 538.62 210.78"/><polyline class="cls-6" points="542.47 198.32 542.47 209.82 542.47 210.78"/><line class="cls-6" x1="538.62" y1="217.47" x2="538.62" y2="249.07"/><polyline class="cls-6" points="771.19 217.47 771.19 210.78 771.19 217.47"/><polyline class="cls-6" points="771.19 210.78 767.39 210.78 771.19 210.78"/><polyline class="cls-6" points="767.39 198.32 767.39 209.82 767.39 210.78"/><line class="cls-6" x1="771.19" y1="217.47" x2="771.19" y2="249.07"/><polyline class="cls-6" points="790.34 217.47 790.34 217.47 790.34 210.78 790.34 210.78"/><polyline class="cls-6" points="790.34 217.47 790.34 210.78 790.34 217.47"/><polyline class="cls-6" points="790.34 210.78 790.34 210.78 790.34 210.78"/><polyline class="cls-6" points="790.34 198.32 790.34 209.82 790.34 210.78"/><line class="cls-6" x1="790.33" y1="217.47" x2="790.33" y2="249.07"/><path class="cls-6" d="M201.56,239.1a85,85,0,0,0-85-85" transform="translate(0 -28.35)"/><path class="cls-6" d="M225.7,215a24.13,24.13,0,0,0-24.14,24.13" transform="translate(0 -28.35)"/><line class="cls-6" x1="235.25" y1="220.35" x2="225.67" y2="220.35"/><line class="cls-6" x1="225.67" y1="220.35" x2="225.67" y2="210.78"/><line class="cls-6" x1="225.67" y1="210.78" x2="235.25" y2="210.78"/><line class="cls-6" x1="106.96" y1="210.78" x2="116.53" y2="210.78"/><line class="cls-6" x1="116.53" y1="210.78" x2="116.53" y2="220.35"/><line class="cls-6" x1="116.53" y1="220.35" x2="106.96" y2="220.35"/><line class="cls-6" x1="116.53" y1="210.78" x2="116.53" y2="125.8"/><line class="cls-6" x1="225.67" y1="210.78" x2="225.67" y2="186.62"/><polyline class="cls-6" points="756.86 1076.94 790.34 1076.94 790.34 1029.13 756.86 1029.13 756.86 1076.94"/><polyline class="cls-6" points="24.66 1076.94 72.52 1076.94 72.52 1029.13 24.66 1029.13 24.66 1076.94"/><polyline class="cls-6" points="756.86 1684.76 756.86 1703.9 790.34 1703.9 790.34 1684.76"/><line class="cls-6" x1="790.33" y1="1656.04" x2="790.33" y2="1656.04"/><line class="cls-6" x1="790.33" y1="1656.04" x2="771.19" y2="1656.04"/><line class="cls-6" x1="761.62" y1="1656.04" x2="756.86" y2="1656.04"/><polyline class="cls-6" points="24.66 1703.9 72.52 1703.9 72.52 1656.04 24.66 1656.04 24.66 1703.9"/><polyline class="cls-6" points="730.52 1724.01 722.87 1724.01 719.02 1724.01 719.02 1735.45 722.87 1735.45 730.52 1735.45"/><polyline class="cls-6" points="457.74 1735.45 465.38 1735.45 469.23 1735.45 469.23 1724.01 465.38 1724.01 457.74 1724.01"/><polyline class="cls-6" points="1.66 1724.01 0.75 1724.01 0.75 1724.01 0.75 1735.45 0.75 1735.45 1.66 1735.45"/><polyline class="cls-6" points="0.75 1703.9 0.75 1703.9 0.75 1723.05 0.75 1723.05 0.75 1703.9"/><line class="cls-6" x1="710.57" y1="643.86" x2="676.78" y2="643.86"/><polyline class="cls-6" points="712.59 645.28 725.25 645.28 725.25 608.92"/><line class="cls-6" x1="704.64" y1="627.1" x2="704.64" y2="613.63"/><polyline class="cls-6" points="676.78 643.86 704.64 640.62 704.64 627.1"/><line class="cls-6" x1="676.78" y1="610.39" x2="704.64" y2="613.63"/><line class="cls-6" x1="676.78" y1="643" x2="704.64" y2="639.76"/><line class="cls-6" x1="676.78" y1="611.25" x2="704.64" y2="614.49"/><line class="cls-6" x1="710.57" y1="610.39" x2="676.78" y2="610.39"/><line class="cls-6" x1="725.25" y1="608.92" x2="712.59" y2="608.92"/><polyline class="cls-6" points="676.78 643.86 673.04 643.41 669.54 641.94 666.4 639.66 663.92 636.62 662.15 633.08 661.24 629.13 661.24 625.07 662.15 621.17 663.92 617.58 666.4 614.59 669.54 612.26 673.04 610.84 676.78 610.39"/><polyline class="cls-6" points="676.78 643 673.24 642.55 669.95 641.18 667.01 639 664.63 636.16 662.96 632.77 662.1 629.02 662.1 625.23 662.96 621.48 664.63 618.08 667.01 615.25 669.95 613.07 673.24 611.7 676.78 611.25"/><path class="cls-6" d="M710.52,639.13a154.45,154.45,0,0,0,0,32.6" transform="translate(0 -28.35)"/><path class="cls-6" d="M710.48,671.76a2.14,2.14,0,0,0,2.14,1.87" transform="translate(0 -28.35)"/><path class="cls-6" d="M712.62,637.26a2.13,2.13,0,0,0-2.14,1.89" transform="translate(0 -28.35)"/><path class="cls-6" d="M719.07,655.42a1.8,1.8,0,1,0-1.79,1.75,1.77,1.77,0,0,0,1.79-1.75" transform="translate(0 -28.35)"/><polyline class="cls-6" points="630.49 567.64 630.49 545.76 578.83 545.76 578.83 567.64"/><line class="cls-6" x1="596.51" y1="545.76" x2="612.82" y2="545.76"/><line class="cls-6" x1="600.31" y1="563.28" x2="603.09" y2="563.28"/><line class="cls-6" x1="604.66" y1="558.98" x2="604.66" y2="561.71"/><line class="cls-6" x1="606.28" y1="563.28" x2="609.02" y2="563.28"/><line class="cls-6" x1="604.66" y1="564.9" x2="604.66" y2="567.64"/><path class="cls-6" d="M627.31,597.33a22.93,22.93,0,0,0-8.92-10.88" transform="translate(0 -28.35)"/><path class="cls-6" d="M618.44,586.42a23,23,0,0,0-13.72-3.22" transform="translate(0 -28.35)"/><path class="cls-6" d="M591,586.45a23,23,0,0,0-8.93,10.88" transform="translate(0 -28.35)"/><path class="cls-6" d="M604.71,583.2A23,23,0,0,0,591,586.42" transform="translate(0 -28.35)"/><path class="cls-6" d="M606.49,613.24A42.44,42.44,0,0,0,622.18,609" transform="translate(0 -28.35)"/><path class="cls-6" d="M578.85,596a13.16,13.16,0,0,0,4.9,10.82" transform="translate(0 -28.35)"/><path class="cls-6" d="M602.88,613.29a24.3,24.3,0,0,0,3.62,0" transform="translate(0 -28.35)"/><path class="cls-6" d="M619.16,587.23a94.18,94.18,0,0,0-28.93,0" transform="translate(0 -28.35)"/><path class="cls-6" d="M587.53,578.24a32.44,32.44,0,0,0-7.32,21.11" transform="translate(0 -28.35)"/><path class="cls-6" d="M604.67,575.12a64.57,64.57,0,0,0-14.79,1.6" transform="translate(0 -28.35)"/><path class="cls-6" d="M589.9,576.7a4.28,4.28,0,0,0-2.39,1.48" transform="translate(0 -28.35)"/><path class="cls-6" d="M604.67,577.2a111,111,0,0,0-14.57,1" transform="translate(0 -28.35)"/><path class="cls-6" d="M587.5,579.64a29.22,29.22,0,0,0-7.3,19.69" transform="translate(0 -28.35)"/><path class="cls-6" d="M590.11,578.2a4.37,4.37,0,0,0-2.65,1.42" transform="translate(0 -28.35)"/><path class="cls-6" d="M629.23,599.29a29.26,29.26,0,0,0-7.32-19.68" transform="translate(0 -28.35)"/><path class="cls-6" d="M629.17,599.31a32.53,32.53,0,0,0-7.35-21.11" transform="translate(0 -28.35)"/><path class="cls-6" d="M619.22,578.22a110.74,110.74,0,0,0-14.56-1" transform="translate(0 -28.35)"/><path class="cls-6" d="M619.46,576.7a65.05,65.05,0,0,0-14.79-1.58" transform="translate(0 -28.35)"/><path class="cls-6" d="M621.91,579.62a4.29,4.29,0,0,0-2.65-1.42" transform="translate(0 -28.35)"/><path class="cls-6" d="M621.86,578.17a4.39,4.39,0,0,0-2.39-1.48" transform="translate(0 -28.35)"/><path class="cls-6" d="M625.63,606.77a13.16,13.16,0,0,0,4.9-10.82" transform="translate(0 -28.35)"/><path class="cls-6" d="M622.2,609a19.92,19.92,0,0,0,3.43-2.22" transform="translate(0 -28.35)"/><path class="cls-6" d="M583.74,606.81a20.4,20.4,0,0,0,3.44,2.22" transform="translate(0 -28.35)"/><path class="cls-6" d="M587.2,609a42.44,42.44,0,0,0,15.69,4.27" transform="translate(0 -28.35)"/><path class="cls-6" d="M597.58,609.62a30.25,30.25,0,0,0,14.22,0" transform="translate(0 -28.35)"/><path class="cls-6" d="M624.68,603.68a7.75,7.75,0,0,0,2.66-6.38" transform="translate(0 -28.35)"/><path class="cls-6" d="M611.78,609.59a28,28,0,0,0,12.89-5.91" transform="translate(0 -28.35)"/><path class="cls-6" d="M582,597.3a7.75,7.75,0,0,0,2.66,6.38" transform="translate(0 -28.35)"/><path class="cls-6" d="M584.71,603.68a28,28,0,0,0,12.88,5.91" transform="translate(0 -28.35)"/><path class="cls-6" d="M608.06,591.6a3.37,3.37,0,1,0-3.37,3.37,3.36,3.36,0,0,0,3.37-3.37" transform="translate(0 -28.35)"/><path class="cls-6" d="M607.09,591.6a2.41,2.41,0,1,0-2.4,2.41,2.4,2.4,0,0,0,2.4-2.41" transform="translate(0 -28.35)"/><polyline class="cls-6" points="100.73 198.32 100.73 69.12 496.03 69.12 496.03 41.37 72.97 41.37 72.97 198.32"/><line class="cls-6" x1="790.33" y1="921.03" x2="790.33" y2="325.6"/><line class="cls-6" x1="771.19" y1="325.6" x2="771.19" y2="526.62"/><polyline class="cls-6" points="0.75 1703.9 19.89 1703.9 19.89 1608.18 0.75 1608.18"/><polyline class="cls-6" points="19.89 1388.02 0.75 1388.02 0.75 1292.35 19.89 1292.35 19.89 1388.02"/><polyline class="cls-6" points="19.89 641.48 0.75 641.48 0.75 545.76 19.89 545.76 19.89 641.48"/><polyline class="cls-6" points="19.89 325.6 0.75 325.6 0.75 229.93 19.89 229.93 19.89 325.6"/><line class="cls-6" x1="17.97" y1="277.79" x2="27.54" y2="277.79"/><polyline class="cls-6" points="43.8 325.6 43.8 249.07 43.8 229.93 24.66 229.93 24.66 249.07 24.66 325.6"/><polyline class="cls-6" points="790.34 325.6 790.34 249.07 790.34 229.93 771.19 229.93 771.19 249.07 771.19 325.6"/><rect class="cls-4" x="559.72" y="1735.46" width="197.13" height="140.51"/><line class="cls-4" x1="559.72" y1="1735.46" x2="756.86" y2="1875.97"/><line class="cls-4" x1="756.68" y1="1737.2" x2="559.9" y2="1875.97"/><text class="cls-7" transform="translate(322.17 1090.5)">№14</text><text class="cls-7" transform="translate(305.65 1144.22)">113.48</text><text class="cls-7" transform="translate(317.21 1033.48)">Офис</text><polyline class="cls-8" points="294.42 1160.88 294.42 993 434.42 993 434.42 1160.88"/><line class="cls-8" x1="294.42" y1="1049.07" x2="434.42" y2="1049.07"/><line class="cls-8" x1="294.42" y1="1160.88" x2="434.42" y2="1160.88"/><line class="cls-8" x1="294.42" y1="1105.14" x2="434.42" y2="1105.14"/><text class="cls-9" transform="translate(321.33 1518.95)">80.65</text><text class="cls-9" transform="translate(632.22 1635.73)">4.45</text><text class="cls-9" transform="translate(526.44 671.67)">6.34</text><text class="cls-9" transform="translate(296.94 465.79)">22.04</text></svg>