<?xml version="1.0" encoding="UTF-8"?>
<svg width="86px" height="72px" viewBox="0 0 86 72" version="1.1" xmlns="http://www.w3.org/2000/svg" xmlns:xlink="http://www.w3.org/1999/xlink">
    <!-- Generator: Sketch 52.6 (67491) - http://www.bohemiancoding.com/sketch -->
    <title>6</title>
    <desc>Created with Sketch.</desc>
    <g id="лендинг" stroke="none" stroke-width="1" fill="none" fill-rule="evenodd">
        <g id="Барвиха" transform="translate(-753.000000, -7899.000000)">
            <g id="6" transform="translate(753.000000, 7899.000000)">
                <polygon id="Rectangle-30-Copy-30" fill="#000000" opacity="0.149999991" points="38.888727 33 86 33 50.0713895 55.9709671 0 72"></polygon>
                <polygon id="Rectangle-30" fill="#1C1C1C" opacity="0.898954504" points="0 0 47 0 47 39.1764706 0 72"></polygon>
                <path d="M15.6928,21.8805 L15.6718,26.3615 C15.6718,30.6855 19.1768,34.1895 23.4998,34.1895 C27.8228,34.1895 31.3278,30.6855 31.3278,26.3615 L31.3068,21.8805" id="Stroke-1" stroke="#CDA571"></path>
                <path d="M31.3072,21.8805 C32.0312,21.8805 32.5942,21.2385 32.4872,20.5225 C31.8312,16.1475 28.0572,12.7925 23.5002,12.7925 C18.9422,12.7925 15.1692,16.1475 14.5132,20.5225 C14.4062,21.2385 14.9692,21.8805 15.6932,21.8805 L31.3072,21.8805 Z" id="Stroke-3" stroke="#CDA571"></path>
                <path d="M23.5,12.7928 L23.5,10.4998" id="Stroke-5" stroke="#CDA571" stroke-linecap="round"></path>
                <path d="M23.5,35.3743 L23.5,34.1893" id="Stroke-7" stroke="#CDA571" stroke-linecap="round"></path>
                <path d="M15.938,21.9548 L24.823,13.0698" id="Stroke-9" stroke="#CDA571"></path>
                <path d="M23.5,21.9548 L29.962,15.4928" id="Stroke-11" stroke="#CDA571"></path>
                <path d="M31.062,21.9548 L22.177,13.0698" id="Stroke-13" stroke="#CDA571"></path>
                <path d="M23.5,21.9548 L17.038,15.4928" id="Stroke-15" stroke="#CDA571"></path>
            </g>
        </g>
    </g>
</svg>