<svg width="100" height="100" viewBox="0 0 100 100" fill="none" xmlns="http://www.w3.org/2000/svg">
<path d="M93.43 61.26C96.5449 61.26 99.07 58.7349 99.07 55.62C99.07 52.5051 96.5449 49.98 93.43 49.98C90.3152 49.98 87.79 52.5051 87.79 55.62C87.79 58.7349 90.3152 61.26 93.43 61.26Z" fill="#AAAB22" stroke="#000307" stroke-width="1.2" stroke-linejoin="round"/>
<path d="M93.4302 54.82V65.92" stroke="#000307" stroke-width="1.2" stroke-linejoin="round"/>
<path d="M93.4702 57.85L95.9502 55.62" stroke="#000307" stroke-width="1.2" stroke-linejoin="round"/>
<path d="M22.8602 35.59C22.8341 34.5925 23.0917 33.608 23.6031 32.7511C24.1145 31.8942 24.8588 31.2001 25.7492 30.7496C26.6396 30.2991 27.6396 30.1106 28.633 30.2062C29.6263 30.3017 30.5721 30.6773 31.3603 31.2893C32.1485 31.9013 32.7468 32.7245 33.0855 33.6631C33.4242 34.6018 33.4895 35.6173 33.2737 36.5916C33.0579 37.5659 32.5699 38.4589 31.8665 39.1667C31.1631 39.8746 30.2731 40.3681 29.3002 40.59" fill="#FF5619"/>
<path d="M22.8602 35.59C22.8341 34.5925 23.0917 33.608 23.6031 32.7511C24.1145 31.8942 24.8588 31.2001 25.7492 30.7496C26.6396 30.2991 27.6396 30.1106 28.633 30.2062C29.6263 30.3017 30.5721 30.6773 31.3603 31.2893C32.1485 31.9013 32.7468 32.7245 33.0855 33.6631C33.4242 34.6018 33.4895 35.6173 33.2737 36.5916C33.0579 37.5659 32.5699 38.4589 31.8665 39.1667C31.1631 39.8746 30.2731 40.3681 29.3002 40.59" stroke="#000105" stroke-width="1.2" stroke-linejoin="round"/>
<path d="M10.4702 52.92C9.88049 53.7278 9.0731 54.351 8.14235 54.717C7.21161 55.083 6.19594 55.1766 5.21399 54.9868C4.23204 54.7971 3.32436 54.3318 2.59697 53.6454C1.86959 52.9591 1.35253 52.0799 1.1062 51.1106C0.85987 50.1412 0.894442 49.1219 1.20588 48.1715C1.51731 47.2211 2.09275 46.3789 2.86497 45.7434C3.63719 45.1079 4.57431 44.7052 5.56685 44.5824C6.5594 44.4596 7.5664 44.6218 8.4702 45.05" fill="#FF5619"/>
<path d="M10.4702 52.92C9.88049 53.7278 9.0731 54.351 8.14235 54.717C7.21161 55.083 6.19594 55.1766 5.21399 54.9868C4.23204 54.7971 3.32436 54.3318 2.59697 53.6454C1.86959 52.9591 1.35253 52.0799 1.1062 51.1106C0.85987 50.1412 0.894442 49.1219 1.20588 48.1715C1.51731 47.2211 2.09275 46.3789 2.86497 45.7434C3.63719 45.1079 4.57431 44.7052 5.56685 44.5824C6.5594 44.4596 7.5664 44.6218 8.4702 45.05" stroke="#000105" stroke-width="1.2" stroke-linejoin="round"/>
<path d="M29.1802 41.35C29.6627 40.694 30.3221 40.1889 31.0811 39.8938C31.8401 39.5986 32.6674 39.5256 33.4663 39.6833C34.2653 39.8409 35.0029 40.2227 35.5929 40.784C36.1829 41.3454 36.6009 42.063 36.7982 42.8532C36.9954 43.6433 36.9636 44.4732 36.7066 45.246C36.4496 46.0187 35.978 46.7024 35.3468 47.217C34.7157 47.7316 33.9511 48.0559 33.1424 48.1521C32.3337 48.2483 31.5144 48.1123 30.7802 47.76" fill="#FF5619"/>
<path d="M29.1802 41.35C29.6627 40.694 30.3221 40.1889 31.0811 39.8938C31.8401 39.5986 32.6674 39.5256 33.4663 39.6833C34.2653 39.8409 35.0029 40.2227 35.5929 40.784C36.1829 41.3454 36.6009 42.063 36.7982 42.8532C36.9954 43.6433 36.9636 44.4732 36.7066 45.246C36.4496 46.0187 35.978 46.7024 35.3468 47.217C34.7157 47.7316 33.9511 48.0559 33.1424 48.1521C32.3337 48.2483 31.5144 48.1123 30.7802 47.76" stroke="#000105" stroke-width="1.2" stroke-linejoin="round"/>
<path d="M31.1701 48.27C31.6634 48.1018 32.1898 48.0544 32.7051 48.1315C33.2205 48.2087 33.7099 48.4084 34.1322 48.7137C34.5545 49.019 34.8975 49.4211 35.1324 49.8863C35.3673 50.3515 35.4872 50.8663 35.4821 51.3874C35.477 51.9085 35.3471 52.4208 35.1032 52.8813C34.8593 53.3419 34.5085 53.7372 34.0803 54.0342C33.6521 54.3313 33.1589 54.5213 32.6422 54.5884C32.1254 54.6555 31.6 54.5978 31.1101 54.42C30.3864 54.1659 29.7767 53.6626 29.3901 53" fill="#FF5619"/>
<path d="M31.1701 48.27C31.6634 48.1018 32.1898 48.0544 32.7051 48.1315C33.2205 48.2087 33.7099 48.4084 34.1322 48.7137C34.5545 49.019 34.8975 49.4211 35.1324 49.8863C35.3673 50.3515 35.4872 50.8663 35.4821 51.3874C35.477 51.9085 35.3471 52.4208 35.1032 52.8813C34.8593 53.3419 34.5085 53.7372 34.0803 54.0342C33.6521 54.3313 33.1589 54.5213 32.6422 54.5884C32.1254 54.6555 31.6 54.5978 31.1101 54.42C30.3864 54.1659 29.7767 53.6626 29.3901 53" stroke="#000105" stroke-width="1.2" stroke-linejoin="round"/>
<path d="M21.4398 58.25C21.8664 58.8276 22.0849 59.5325 22.0598 60.25C22.0538 60.7779 21.9193 61.2963 21.6679 61.7605C21.4166 62.2247 21.0559 62.6207 20.6171 62.9142C20.1784 63.2077 19.6747 63.39 19.1497 63.4451C18.6247 63.5003 18.0942 63.4268 17.604 63.2309C17.1138 63.035 16.6787 62.7226 16.3363 62.3208C15.9939 61.919 15.7546 61.4398 15.639 60.9247C15.5233 60.4096 15.5349 59.8742 15.6727 59.3646C15.8105 58.855 16.0704 58.3866 16.4298 58" fill="#FF5619"/>
<path d="M21.4398 58.25C21.8664 58.8276 22.0849 59.5325 22.0598 60.25C22.0538 60.7779 21.9193 61.2963 21.6679 61.7605C21.4166 62.2247 21.0559 62.6207 20.6171 62.9142C20.1784 63.2077 19.6747 63.39 19.1497 63.4451C18.6247 63.5003 18.0942 63.4268 17.604 63.2309C17.1138 63.035 16.6787 62.7226 16.3363 62.3208C15.9939 61.919 15.7546 61.4398 15.639 60.9247C15.5233 60.4096 15.5349 59.8742 15.6727 59.3646C15.8105 58.855 16.0704 58.3866 16.4298 58" stroke="#000105" stroke-width="1.2" stroke-linejoin="round"/>
<path d="M15.8801 57.57C15.9408 58.5566 15.6697 59.5352 15.1101 60.35C14.4471 61.2995 13.434 61.9467 12.2938 62.1492C11.1536 62.3517 9.97958 62.093 9.0301 61.43C8.08063 60.767 7.43343 59.7539 7.23089 58.6137C7.02835 57.4734 7.28706 56.2995 7.9501 55.35C8.54072 54.4928 9.42164 53.8782 10.4301 53.62" fill="#FF5619"/>
<path d="M15.8801 57.57C15.9408 58.5566 15.6697 59.5352 15.1101 60.35C14.4471 61.2995 13.434 61.9467 12.2938 62.1492C11.1536 62.3517 9.97958 62.093 9.0301 61.43C8.08063 60.767 7.43343 59.7539 7.23089 58.6137C7.02835 57.4734 7.28706 56.2995 7.9501 55.35C8.54072 54.4928 9.42164 53.8782 10.4301 53.62" stroke="#000105" stroke-width="1.2" stroke-linejoin="round"/>
<path d="M13.9998 37.34C13.1523 36.6656 12.5145 35.7637 12.1611 34.7399C11.8077 33.7162 11.7533 32.6129 12.0042 31.5593C12.2551 30.5057 12.801 29.5455 13.578 28.7909C14.3549 28.0364 15.3308 27.5188 16.3913 27.2988C17.4517 27.0788 18.5529 27.1654 19.5659 27.5487C20.5789 27.9319 21.4618 28.5957 22.1111 29.4626C22.7604 30.3294 23.1494 31.3632 23.2324 32.4431C23.3154 33.523 23.089 34.6041 22.5798 35.56" fill="#FF5619"/>
<path d="M13.9998 37.34C13.1523 36.6656 12.5145 35.7637 12.1611 34.7399C11.8077 33.7162 11.7533 32.6129 12.0042 31.5593C12.2551 30.5057 12.801 29.5455 13.578 28.7909C14.3549 28.0364 15.3308 27.5188 16.3913 27.2988C17.4517 27.0788 18.5529 27.1654 19.5659 27.5487C20.5789 27.9319 21.4618 28.5957 22.1111 29.4626C22.7604 30.3294 23.1494 31.3632 23.2324 32.4431C23.3154 33.523 23.089 34.6041 22.5798 35.56" stroke="#000105" stroke-width="1.2" stroke-linejoin="round"/>
<path d="M8.3902 44.62C7.31633 44.7316 6.23287 44.5355 5.26633 44.0544C4.2998 43.5733 3.49008 42.8271 2.93175 41.903C2.37342 40.979 2.08951 39.9151 2.11319 38.8357C2.13686 37.7563 2.46714 36.706 3.06546 35.8073C3.66377 34.9086 4.50542 34.1986 5.49212 33.7604C6.47883 33.3221 7.56985 33.1736 8.63778 33.3323C9.70572 33.4909 10.7065 33.9501 11.5232 34.6562C12.3399 35.3623 12.9389 36.2862 13.2502 37.32" fill="#FF5619"/>
<path d="M8.3902 44.62C7.31633 44.7316 6.23287 44.5355 5.26633 44.0544C4.2998 43.5733 3.49008 42.8271 2.93175 41.903C2.37342 40.979 2.08951 39.9151 2.11319 38.8357C2.13686 37.7563 2.46714 36.706 3.06546 35.8073C3.66377 34.9086 4.50542 34.1986 5.49212 33.7604C6.47883 33.3221 7.56985 33.1736 8.63778 33.3323C9.70572 33.4909 10.7065 33.9501 11.5232 34.6562C12.3399 35.3623 12.9389 36.2862 13.2502 37.32" stroke="#000105" stroke-width="1.2" stroke-linejoin="round"/>
<path d="M29.5422 51.138C31.8927 45.4473 29.185 38.9285 23.4942 36.578C17.8035 34.2275 11.2847 36.9353 8.93422 42.626C6.5837 48.3167 9.29148 54.8355 14.9822 57.186C20.673 59.5365 27.1917 56.8287 29.5422 51.138Z" fill="#AAAB22" stroke="#000307" stroke-width="1.19447" stroke-linejoin="round"/>
<path d="M12.9998 56.06C12.162 54.9333 11.5543 53.6525 11.2114 52.2909C10.8685 50.9293 10.7972 49.5135 11.0015 48.1244C11.414 45.3188 12.9242 42.7921 15.1998 41.1C17.4753 39.4079 20.3299 38.6891 23.1354 39.1017C25.941 39.5143 28.4677 41.0244 30.1598 43.3" stroke="#000105" stroke-width="1.2" stroke-miterlimit="10"/>
<path d="M22.0802 48C22.7633 47.998 23.4317 48.1989 24.0006 48.5773C24.5695 48.9556 25.0132 49.4943 25.2756 50.1251C25.538 50.7559 25.6071 51.4504 25.4743 52.1206C25.3415 52.7908 25.0127 53.4064 24.5297 53.8895C24.0466 54.3726 23.4309 54.7014 22.7608 54.8342C22.0906 54.967 21.3961 54.8978 20.7653 54.6355C20.1345 54.3731 19.5957 53.9294 19.2174 53.3605C18.8391 52.7916 18.6382 52.1232 18.6402 51.44C18.6402 50.5277 19.0026 49.6527 19.6477 49.0076C20.2928 48.3624 21.1678 48 22.0802 48Z" fill="#FFDA00" stroke="#000307" stroke-width="1.2" stroke-linejoin="round"/>
<path d="M29.1201 38.84V35.9H38.7801V38.84" fill="#FFDA00"/>
<path d="M29.1201 38.84V35.9H38.7801V38.84" stroke="#000307" stroke-width="1.2" stroke-linejoin="round"/>
<path d="M9.37988 71.24H41.8899L41.9099 74.6H75.3299L75.3599 71.24H91.1899V32.48H75.2999V22.69H41.9099V38.84H25.7699V54.98H9.37988V71.24Z" fill="#FFDA00" stroke="#000307" stroke-width="1.2" stroke-linejoin="round"/>
<path d="M25.75 71.24V55.04" stroke="#201600" stroke-width="1.2" stroke-miterlimit="10"/>
<path d="M75.3302 22.69H41.9102V74.59H75.3302V22.69Z" fill="#FF5619" stroke="#000105" stroke-width="1.2" stroke-linejoin="round"/>
<path d="M35.98 43.73H31.71V48H35.98V43.73Z" fill="#AAAB22" stroke="#000307" stroke-width="1.2" stroke-linejoin="round"/>
<path d="M35.98 52.2H31.71V56.47H35.98V52.2Z" fill="#AAAB22" stroke="#000307" stroke-width="1.2" stroke-linejoin="round"/>
<path d="M35.98 61.1H31.71V65.37H35.98V61.1Z" fill="#AAAB22" stroke="#000307" stroke-width="1.2" stroke-linejoin="round"/>
<path d="M85.3198 43.75H81.0498V48.02H85.3198V43.75Z" fill="#AAAB22" stroke="#000307" stroke-width="1.2" stroke-linejoin="round"/>
<path d="M85.3198 52.22H81.0498V56.49H85.3198V52.22Z" fill="#AAAB22" stroke="#000307" stroke-width="1.2" stroke-linejoin="round"/>
<path d="M85.3198 61.12H81.0498V65.39H85.3198V61.12Z" fill="#AAAB22" stroke="#000307" stroke-width="1.2" stroke-linejoin="round"/>
<path d="M52.4199 34.69H48.1499V38.96H52.4199V34.69Z" fill="#AAAB22" stroke="#000307" stroke-width="1.2" stroke-linejoin="round"/>
<path d="M52.4199 43.44H48.1499V47.71H52.4199V43.44Z" fill="#AAAB22" stroke="#000307" stroke-width="1.2" stroke-linejoin="round"/>
<path d="M52.4101 52.2H48.1401V56.47H52.4101V52.2Z" fill="#AAAB22" stroke="#000307" stroke-width="1.2" stroke-linejoin="round"/>
<path d="M69.3601 27.66H48.1401V30.46H69.3601V27.66Z" fill="#AAAB22" stroke="#000307" stroke-width="1.2" stroke-linejoin="round"/>
<path d="M52.4199 61H48.1499V65.27H52.4199V61Z" fill="#AAAB22" stroke="#000307" stroke-width="1.2" stroke-linejoin="round"/>
<path d="M69.3598 34.8H65.0898V39.07H69.3598V34.8Z" fill="#AAAB22" stroke="#000307" stroke-width="1.2" stroke-linejoin="round"/>
<path d="M69.3598 43.55H65.0898V47.82H69.3598V43.55Z" fill="#AAAB22" stroke="#000307" stroke-width="1.2" stroke-linejoin="round"/>
<path d="M69.3501 52.32H65.0801V56.59H69.3501V52.32Z" fill="#AAAB22" stroke="#000307" stroke-width="1.2" stroke-linejoin="round"/>
<path d="M69.3598 61.11H65.0898V65.38H69.3598V61.11Z" fill="#AAAB22" stroke="#000307" stroke-width="1.2" stroke-linejoin="round"/>
<path d="M19.8999 61.11H15.6299V65.38H19.8999V61.11Z" fill="#AAAB22" stroke="#000307" stroke-width="1.2" stroke-linejoin="round"/>
<path d="M74.4998 31.36C74.1146 31.0184 73.8347 30.5742 73.6928 30.0793C73.551 29.5845 73.553 29.0594 73.6987 28.5657C73.8443 28.0719 74.1276 27.6298 74.5154 27.2912C74.9032 26.9526 75.3794 26.7315 75.8883 26.6536C76.3971 26.5758 76.9177 26.6446 77.3889 26.8518C77.8602 27.0591 78.2626 27.3963 78.5492 27.8239C78.8358 28.2516 78.9946 28.7521 79.0071 29.2667C79.0196 29.7814 78.8852 30.2889 78.6198 30.73" fill="#AAAB22"/>
<path d="M74.4998 31.36C74.1146 31.0184 73.8347 30.5742 73.6928 30.0793C73.551 29.5845 73.553 29.0594 73.6987 28.5657C73.8443 28.0719 74.1276 27.6298 74.5154 27.2912C74.9032 26.9526 75.3794 26.7315 75.8883 26.6536C76.3971 26.5758 76.9177 26.6446 77.3889 26.8518C77.8602 27.0591 78.2626 27.3963 78.5492 27.8239C78.8358 28.2516 78.9946 28.7521 79.0071 29.2667C79.0196 29.7814 78.8852 30.2889 78.6198 30.73" stroke="#000307" stroke-width="1.2" stroke-linejoin="round"/>
<path d="M79.4501 35.16C79.9038 35.5727 80.2065 36.1254 80.3101 36.73C80.3773 37.1571 80.3409 37.5942 80.204 38.0043C80.0671 38.4145 79.8336 38.7857 79.5234 39.0869C79.2131 39.3881 78.835 39.6103 78.4209 39.7349C78.0069 39.8595 77.569 39.8828 77.144 39.8029C76.7191 39.7231 76.3195 39.5423 75.979 39.2758C75.6384 39.0093 75.3669 38.665 75.1872 38.2717C75.0074 37.8784 74.9248 37.4477 74.9462 37.0159C74.9676 36.584 75.0924 36.1636 75.3101 35.79" fill="#AAAB22"/>
<path d="M79.4501 35.16C79.9038 35.5727 80.2065 36.1254 80.3101 36.73C80.3773 37.1571 80.3409 37.5942 80.204 38.0043C80.0671 38.4145 79.8336 38.7857 79.5234 39.0869C79.2131 39.3881 78.835 39.6103 78.4209 39.7349C78.0069 39.8595 77.569 39.8828 77.144 39.8029C76.7191 39.7231 76.3195 39.5423 75.979 39.2758C75.6384 39.0093 75.3669 38.665 75.1872 38.2717C75.0074 37.8784 74.9248 37.4477 74.9462 37.0159C74.9676 36.584 75.0924 36.1636 75.3101 35.79" stroke="#000307" stroke-width="1.2" stroke-linejoin="round"/>
<path d="M75.0598 35.66C74.7182 36.0451 74.274 36.325 73.7791 36.4669C73.2842 36.6088 72.7592 36.6068 72.2654 36.4611C71.7717 36.3154 71.3296 36.0321 70.991 35.6443C70.6524 35.2566 70.4312 34.7804 70.3534 34.2715C70.2756 33.7626 70.3443 33.2421 70.5516 32.7708C70.7589 32.2996 71.096 31.8971 71.5237 31.6106C71.9514 31.324 72.4518 31.1652 72.9665 31.1527C73.4811 31.1402 73.9887 31.2745 74.4298 31.54" fill="#AAAB22"/>
<path d="M75.0598 35.66C74.7182 36.0451 74.274 36.325 73.7791 36.4669C73.2842 36.6088 72.7592 36.6068 72.2654 36.4611C71.7717 36.3154 71.3296 36.0321 70.991 35.6443C70.6524 35.2566 70.4312 34.7804 70.3534 34.2715C70.2756 33.7626 70.3443 33.2421 70.5516 32.7708C70.7589 32.2996 71.096 31.8971 71.5237 31.6106C71.9514 31.324 72.4518 31.1652 72.9665 31.1527C73.4811 31.1402 73.9887 31.2745 74.4298 31.54" stroke="#000307" stroke-width="1.2" stroke-linejoin="round"/>
<path d="M78.8799 30.85C79.2236 30.4734 79.6669 30.2018 80.1586 30.0667C80.6502 29.9315 81.1701 29.9383 81.658 30.0864C82.146 30.2344 82.582 30.5175 82.9157 30.9031C83.2494 31.2886 83.4671 31.7607 83.5436 32.2649C83.6202 32.769 83.5524 33.2844 83.3481 33.7516C83.1439 34.2188 82.8115 34.6186 82.3895 34.9048C81.9675 35.191 81.4731 35.3518 80.9635 35.3686C80.4539 35.3855 79.9499 35.2577 79.5099 35" fill="#AAAB22"/>
<path d="M78.8799 30.85C79.2236 30.4734 79.6669 30.2018 80.1586 30.0667C80.6502 29.9315 81.1701 29.9383 81.658 30.0864C82.146 30.2344 82.582 30.5175 82.9157 30.9031C83.2494 31.2886 83.4671 31.7607 83.5436 32.2649C83.6202 32.769 83.5524 33.2844 83.3481 33.7516C83.1439 34.2188 82.8115 34.6186 82.3895 34.9048C81.9675 35.191 81.4731 35.3518 80.9635 35.3686C80.4539 35.3855 79.9499 35.2577 79.5099 35" stroke="#000307" stroke-width="1.2" stroke-linejoin="round"/>
<path d="M79.8298 32.37C80 32.9368 79.9988 33.5414 79.8262 34.1075C79.6537 34.6736 79.3175 35.176 78.8601 35.5516C78.4027 35.9271 77.8444 36.1589 77.2555 36.2179C76.6666 36.2769 76.0734 36.1604 75.5506 35.883C75.0278 35.6057 74.5987 35.1799 74.3173 34.6592C74.0359 34.1385 73.9148 33.5463 73.9693 32.957C74.0237 32.3676 74.2512 31.8076 74.6232 31.3472C74.9952 30.8869 75.495 30.5469 76.0598 30.37C76.4386 30.2514 76.8372 30.2091 77.2324 30.2456C77.6277 30.2821 78.0118 30.3967 78.3625 30.5827C78.7131 30.7687 79.0234 31.0225 79.2753 31.3293C79.5271 31.6361 79.7156 31.9898 79.8298 32.37Z" fill="#FF5619" stroke="#000105" stroke-width="1.2" stroke-linejoin="round"/>
<path d="M41.8402 74.81C44.9551 74.81 47.4802 72.2849 47.4802 69.17C47.4802 66.0551 44.9551 63.53 41.8402 63.53C38.7253 63.53 36.2002 66.0551 36.2002 69.17C36.2002 72.2849 38.7253 74.81 41.8402 74.81Z" fill="#AAAB22" stroke="#000307" stroke-width="1.2" stroke-linejoin="round"/>
<path d="M41.8398 68.37V79.47" stroke="#000307" stroke-width="1.2" stroke-linejoin="round"/>
<path d="M41.8799 71.4L44.3599 69.17" stroke="#000307" stroke-width="1.2" stroke-linejoin="round"/>
<path d="M81.3899 27.17C81.2741 27.172 81.1614 27.1329 81.0717 27.0597C80.982 26.9865 80.9211 26.8838 80.8999 26.77C80.6257 25.2101 80.9278 23.6038 81.7499 22.25C82.7731 21.0533 84.1931 20.2652 85.7499 20.03H85.8199C85.936 20.0323 86.0479 20.0742 86.137 20.1488C86.2262 20.2233 86.2871 20.3261 86.3099 20.44C86.5835 21.9947 86.2776 23.5958 85.4499 24.94C84.4295 26.1419 83.0087 26.9339 81.4499 27.17H81.3899Z" fill="#AAAB22"/>
<path d="M85.8399 20.53C86.0838 21.9525 85.8069 23.4152 85.0599 24.65C84.1158 25.735 82.8134 26.4448 81.3899 26.65C81.1429 25.2288 81.4163 23.7661 82.1599 22.53C83.1065 21.443 84.4128 20.733 85.8399 20.53ZM85.8399 19.53H85.7099C84.0015 19.7871 82.4486 20.6669 81.3499 22C80.448 23.4635 80.1103 25.2055 80.3999 26.9C80.4446 27.1311 80.5694 27.3391 80.7523 27.4873C80.9352 27.6354 81.1645 27.7143 81.3999 27.71H81.5299C83.2274 27.4636 84.7754 26.6024 85.8799 25.29C86.7879 23.8289 87.1261 22.0846 86.8299 20.39C86.7852 20.1589 86.6604 19.951 86.4775 19.8028C86.2946 19.6546 86.0652 19.5757 85.8299 19.58L85.8399 19.53Z" fill="#000307"/>
</svg>
