<svg id="Layer_1" data-name="Layer 1" xmlns="http://www.w3.org/2000/svg" viewBox="0 0 377.43 921.54"><defs><style>.cls-1,.cls-10,.cls-11,.cls-12,.cls-2,.cls-7,.cls-8{isolation:isolate;}.cls-1,.cls-2{font-size:12px;fill:#969696;}.cls-1,.cls-11,.cls-12,.cls-2,.cls-7,.cls-8{font-family:PTSans-Regular, PT Sans;}.cls-1{letter-spacing:-0.09em;}.cls-3,.cls-4,.cls-5,.cls-6,.cls-9{fill:none;stroke-linecap:round;stroke-linejoin:round;}.cls-3{stroke:#969696;}.cls-3,.cls-4{stroke-width:0.75px;}.cls-4,.cls-5,.cls-6,.cls-9{stroke:#000;}.cls-5{stroke-width:0.5px;}.cls-6{stroke-width:0.33px;}.cls-7{font-size:38px;}.cls-8{font-size:28px;}.cls-9{stroke-width:0.25px;}.cls-11,.cls-12{font-size:24px;}.cls-12{letter-spacing:-0.16em;}</style></defs><g id="_3" data-name=" 3"><g id="_2" data-name=" 2"><g id="_1" data-name=" 1"><g id="_3-2" data-name=" 3-2"><g id="_1-2" data-name=" 1-2"><g id="plan"><text class="cls-1" transform="translate(180.58 918.33)">у</text><text class="cls-2" transform="translate(186 918.33)">лица</text><line class="cls-3" x1="169.82" y1="921.16" x2="169.82" y2="912.36"/><polyline class="cls-3" points="166.31 917.66 169.81 921.16 173.31 917.66"/></g></g></g></g></g><line class="cls-4" x1="43.56" y1="845.01" x2="47.31" y2="845.01"/><line class="cls-4" x1="43.56" y1="844.52" x2="47.31" y2="844.52"/><line class="cls-4" x1="43.56" y1="841.24" x2="43.56" y2="825.75"/><line class="cls-5" x1="43.56" y1="845.01" x2="43.56" y2="844.52"/><line class="cls-6" x1="43.56" y1="850.63" x2="43.56" y2="845.01"/><line class="cls-5" x1="43.56" y1="844.52" x2="43.56" y2="844.52"/><line class="cls-4" x1="43.56" y1="844.52" x2="43.56" y2="841.24"/><line class="cls-4" x1="43.56" y1="825.75" x2="43.56" y2="825.75"/><line class="cls-4" x1="43.56" y1="850.63" x2="47.31" y2="850.63"/><line class="cls-5" x1="43.56" y1="850.63" x2="43.56" y2="850.63"/><line class="cls-4" x1="43.56" y1="825.75" x2="43.56" y2="825.75"/><polyline class="cls-5" points="43.55 841.24 43.55 841.24 43.55 844.52 43.55 844.52"/><line class="cls-5" x1="43.56" y1="842.89" x2="43.56" y2="842.89"/><line class="cls-5" x1="43.56" y1="844.52" x2="43.56" y2="844.52"/><line class="cls-5" x1="43.56" y1="841.24" x2="43.56" y2="841.24"/><polyline class="cls-5" points="43.55 844.52 43.55 844.52 43.55 841.24 43.55 841.24"/><polyline class="cls-5" points="43.55 841.24 43.55 841.24 43.55 844.52 43.55 844.52"/><line class="cls-5" x1="43.56" y1="842.89" x2="43.56" y2="842.89"/><line class="cls-5" x1="43.56" y1="844.52" x2="43.56" y2="844.52"/><line class="cls-5" x1="43.56" y1="841.24" x2="43.56" y2="841.24"/><polyline class="cls-4" points="43.55 841.24 43.55 844.52 43.55 841.24"/><polyline class="cls-4" points="43.55 844.52 43.55 844.52 43.55 844.52"/><polyline class="cls-4" points="43.55 850.63 43.55 845.01 43.55 844.52"/><line class="cls-4" x1="43.56" y1="841.24" x2="43.56" y2="825.75"/><line class="cls-4" x1="190.94" y1="845.01" x2="245.86" y2="845.01"/><line class="cls-4" x1="47.31" y1="845.01" x2="80.65" y2="845.01"/><line class="cls-4" x1="192.82" y1="844.52" x2="246.8" y2="844.52"/><line class="cls-4" x1="47.31" y1="844.52" x2="78.76" y2="844.52"/><line class="cls-4" x1="192.82" y1="841.24" x2="192.82" y2="825.75"/><line class="cls-5" x1="190.94" y1="845.01" x2="190.94" y2="844.52"/><line class="cls-6" x1="190.94" y1="850.63" x2="190.94" y2="845.01"/><line class="cls-5" x1="190.94" y1="844.52" x2="192.82" y2="844.52"/><line class="cls-4" x1="192.82" y1="844.52" x2="192.82" y2="841.24"/><line class="cls-4" x1="78.76" y1="841.24" x2="78.76" y2="825.75"/><line class="cls-5" x1="80.65" y1="845.01" x2="80.65" y2="844.52"/><line class="cls-6" x1="80.65" y1="850.63" x2="80.65" y2="845.01"/><line class="cls-5" x1="80.65" y1="844.52" x2="78.76" y2="844.52"/><line class="cls-4" x1="78.76" y1="844.52" x2="78.76" y2="841.24"/><line class="cls-4" x1="246.8" y1="825.75" x2="225.67" y2="825.75"/><line class="cls-4" x1="216.3" y1="825.75" x2="192.82" y2="825.75"/><line class="cls-4" x1="78.76" y1="825.75" x2="51.08" y2="825.75"/><line class="cls-4" x1="47.31" y1="850.63" x2="80.65" y2="850.63"/><line class="cls-4" x1="190.94" y1="850.63" x2="245.86" y2="850.63"/><line class="cls-5" x1="246.8" y1="845.01" x2="246.8" y2="844.52"/><line class="cls-4" x1="246.8" y1="844.52" x2="246.8" y2="825.75"/><line class="cls-5" x1="80.65" y1="850.63" x2="190.94" y2="850.63"/><line class="cls-4" x1="78.76" y1="825.75" x2="192.82" y2="825.75"/><polyline class="cls-5" points="78.75 844.52 83.45 844.52 83.45 841.24 78.75 841.24"/><polyline class="cls-5" points="135.79 841.24 133.44 841.24 133.44 844.52 135.79 844.52"/><line class="cls-5" x1="83.45" y1="842.89" x2="133.44" y2="842.89"/><line class="cls-5" x1="83.45" y1="844.52" x2="133.44" y2="844.52"/><line class="cls-5" x1="133.44" y1="841.24" x2="83.45" y2="841.24"/><polyline class="cls-5" points="135.79 844.52 138.13 844.52 138.13 841.24 135.79 841.24"/><polyline class="cls-5" points="192.81 841.24 188.12 841.24 188.12 844.52 192.81 844.52"/><line class="cls-5" x1="138.13" y1="842.89" x2="188.11" y2="842.89"/><line class="cls-5" x1="138.13" y1="844.52" x2="188.11" y2="844.52"/><line class="cls-5" x1="188.11" y1="841.24" x2="138.13" y2="841.24"/><polyline class="cls-4" points="78.75 841.24 78.75 844.52 78.75 841.24"/><polyline class="cls-4" points="78.75 844.52 80.64 844.52 78.75 844.52"/><polyline class="cls-4" points="80.64 850.63 80.64 845.01 80.64 844.52"/><line class="cls-4" x1="78.76" y1="841.24" x2="78.76" y2="825.75"/><polyline class="cls-4" points="192.81 841.24 192.81 844.52 192.81 841.24"/><polyline class="cls-4" points="192.81 844.52 190.94 844.52 192.81 844.52"/><polyline class="cls-4" points="190.94 850.63 190.94 845.01 190.94 844.52"/><line class="cls-4" x1="192.82" y1="841.24" x2="192.82" y2="825.75"/><path class="cls-4" d="M.38,288.8" transform="translate(0 0)"/><polyline class="cls-4" points="0.38 288.8 0.38 189.3 0.38 189.3"/><path class="cls-4" d="M290.91,727.19" transform="translate(0 0)"/><line class="cls-4" x1="361.32" y1="835.14" x2="361.32" y2="727.19"/><line class="cls-4" x1="290.91" y1="727.19" x2="290.91" y2="835.14"/><polyline class="cls-4" points="366.49 722.49 366.49 680.25 365.31 680.25 365.31 642.7 347.7 642.7 347.7 121.7 183.44 121.7 183.44 159.26 174.03 159.26 174.03 121.7 9.77 121.7"/><polyline class="cls-4" points="161.84 550.23 51.08 550.23 51.08 825.75 216.29 825.75 216.29 788.21 225.68 788.21 225.68 825.75 246.79 825.75 246.79 835.14 286.23 835.14 286.23 722.49"/><polyline class="cls-4" points="9.77 121.7 9.77 179.9 9.77 189.3 9.77 304.75 52.95 304.75 52.95 437.12 82.53 437.12 82.53 431.49 133.22 431.49 138.84 431.49 161.84 431.49 161.84 455.43"/><polyline class="cls-4" points="144.96 288.82 174.03 288.82 174.03 257.82 183.44 257.82 183.44 288.82 212.53 288.82 212.53 332.93 144.96 332.93 144.96 288.82"/><polyline class="cls-4" points="187.19 620.16 254.78 620.16 254.78 650.22 226.84 650.22 226.84 703.71 215.1 703.71 215.1 650.22 187.19 650.22 187.19 620.16"/><polyline class="cls-4" points="357.65 121.7 357.11 121.7 357.11 633.32 365.31 633.32 375.87 633.32 377.06 633.32 377.06 680.25 375.87 680.25 375.87 722.49"/><polyline class="cls-4" points="158.09 455.43 133.22 455.43 133.22 440.87 52.95 440.87 52.95 512.21 51.08 512.21 51.08 546.48 158.09 546.48"/><path class="cls-4" d="M158.09,546.48" transform="translate(0 0)"/><polyline class="cls-4" points="51.08 788.21 51.08 512.21 43.55 512.21 43.55 788.21"/><polyline class="cls-4" points="0.38 102.46 0.38 102.93 0.38 179.9"/><polyline class="cls-4" points="0.38 102.93 0.38 121.7 0.38 179.9"/><line class="cls-4" x1="9.77" y1="179.9" x2="9.77" y2="159.26"/><line class="cls-4" x1="0.38" y1="96.83" x2="0.38" y2="179.9"/><line class="cls-6" x1="0.38" y1="179.9" x2="0.38" y2="179.9"/><line class="cls-5" x1="0.38" y1="179.9" x2="0.38" y2="179.9"/><line class="cls-4" x1="0.38" y1="102.46" x2="0.38" y2="102.46"/><line class="cls-4" x1="9.77" y1="102.93" x2="0.38" y2="102.93"/><line class="cls-6" x1="0.38" y1="96.83" x2="0.38" y2="96.83"/><line class="cls-4" x1="52.95" y1="512.21" x2="52.95" y2="304.75"/><polyline class="cls-4" points="43.55 314.15 43.55 512.21 52.95 512.21"/><line class="cls-4" x1="52.95" y1="304.75" x2="43.56" y2="304.75"/><line class="cls-4" x1="357.1" y1="633.32" x2="357.1" y2="440.87"/><line class="cls-4" x1="357.1" y1="384.55" x2="357.1" y2="314.15"/><line class="cls-4" x1="357.1" y1="267.22" x2="357.1" y2="159.26"/><line class="cls-4" x1="347.7" y1="159.26" x2="347.7" y2="267.22"/><line class="cls-4" x1="347.7" y1="314.15" x2="347.7" y2="384.55"/><line class="cls-4" x1="347.7" y1="440.87" x2="347.7" y2="642.7"/><line class="cls-4" x1="347.7" y1="642.7" x2="357.1" y2="642.7"/><line class="cls-4" x1="357.1" y1="642.7" x2="365.32" y2="642.7"/><line class="cls-4" x1="365.32" y1="633.32" x2="357.1" y2="633.32"/><line class="cls-4" x1="366.48" y1="680.25" x2="366.48" y2="788.21"/><line class="cls-4" x1="375.86" y1="788.21" x2="375.86" y2="680.25"/><polyline class="cls-4" points="9.77 267.21 9.77 189.3 0.38 189.3 0.38 267.21"/><line class="cls-4" x1="9.77" y1="314.15" x2="43.56" y2="314.15"/><line class="cls-4" x1="43.56" y1="304.75" x2="9.77" y2="304.75"/><polyline class="cls-4" points="290.92 727.19 290.92 722.49 286.23 722.49"/><path class="cls-4" d="M366.49,727.19" transform="translate(0 0)"/><path class="cls-4" d="M290.91,727.19" transform="translate(0 0)"/><path class="cls-4" d="M316.73,727.18A42.26,42.26,0,0,0,359,769.43" transform="translate(0 0)"/><path class="cls-4" d="M293.26,750.65a23.47,23.47,0,0,0,23.47-23.47" transform="translate(0 0)"/><polyline class="cls-4" points="358.99 764.73 358.99 731.89 357.8 731.89 357.8 764.73 358.99 764.73"/><polyline class="cls-4" points="357.8 764.73 357.8 731.89 356.63 731.89 356.63 764.73 357.8 764.73"/><polyline class="cls-4" points="293.26 731.89 294.44 731.89 294.44 745.97 293.26 745.97 293.26 731.89"/><polyline class="cls-4" points="294.44 731.89 295.61 731.89 295.61 745.97 294.44 745.97 294.44 731.89"/><line class="cls-4" x1="362.73" y1="727.19" x2="366.48" y2="727.19"/><line class="cls-4" x1="362.73" y1="722.49" x2="366.48" y2="722.49"/><polyline class="cls-4" points="293.26 722.49 293.26 727.19 290.92 727.19 290.92 722.49 293.26 722.49"/><polyline class="cls-4" points="362.74 722.49 362.74 727.19 358.99 727.19 358.99 722.49 362.74 722.49"/><polyline class="cls-4" points="358.99 769.43 358.99 764.73 356.63 764.73 356.63 769.43 358.99 769.43"/><polyline class="cls-4" points="356.63 727.19 356.63 731.89 358.99 731.89 358.99 727.19 356.63 727.19"/><line class="cls-4" x1="357.79" y1="764.73" x2="357.79" y2="731.89"/><polyline class="cls-4" points="293.26 750.65 293.26 745.97 295.61 745.97 295.61 750.65 293.26 750.65"/><polyline class="cls-4" points="295.61 727.19 295.61 731.89 293.26 731.89 293.26 727.19 295.61 727.19"/><line class="cls-4" x1="294.44" y1="745.97" x2="294.44" y2="731.89"/><polyline class="cls-4" points="290.92 722.49 290.92 727.19 290.92 722.49"/><line class="cls-4" x1="286.23" y1="722.49" x2="286.23" y2="727.19"/><path class="cls-4" d="M375.87,727.19" transform="translate(0 0)"/><line class="cls-4" x1="52.95" y1="440.87" x2="82.52" y2="440.87"/><polyline class="cls-4" points="82.53 437.12 52.95 437.12 52.95 440.87"/><line class="cls-4" x1="161.83" y1="486.88" x2="158.08" y2="486.88"/><line class="cls-4" x1="161.83" y1="536.15" x2="158.08" y2="536.15"/><line class="cls-4" x1="158.08" y1="455.43" x2="158.08" y2="486.88"/><line class="cls-4" x1="158.08" y1="536.15" x2="158.08" y2="546.48"/><line class="cls-4" x1="161.83" y1="550.23" x2="161.83" y2="536.15"/><polyline class="cls-4" points="161.84 486.88 161.84 455.43 158.09 455.43"/><path class="cls-5" d="M161.84,536.15" transform="translate(0 0)"/><path class="cls-5" d="M161.84,486.87" transform="translate(0 0)"/><path class="cls-5" d="M158.09,536.15" transform="translate(0 0)"/><path class="cls-5" d="M158.09,486.87" transform="translate(0 0)"/><line class="cls-4" x1="161.83" y1="550.23" x2="158.08" y2="550.23"/><polyline class="cls-4" points="158.09 546.48 51.08 546.48 51.08 550.23 158.09 550.23"/><line class="cls-4" x1="23.85" y1="102.46" x2="0.38" y2="102.46"/><line class="cls-4" x1="357.66" y1="102.46" x2="311.1" y2="102.46"/><line class="cls-4" x1="194.69" y1="102.46" x2="140.25" y2="102.46"/><line class="cls-4" x1="0.38" y1="102.46" x2="0.38" y2="102.46"/><line class="cls-4" x1="23.85" y1="102.93" x2="9.77" y2="102.93"/><line class="cls-4" x1="357.66" y1="102.93" x2="311.1" y2="102.93"/><line class="cls-4" x1="194.69" y1="102.93" x2="140.25" y2="102.93"/><line class="cls-4" x1="9.77" y1="102.93" x2="0.38" y2="102.93"/><polyline class="cls-4" points="29.95 102.46 29.95 102.93 29.95 109.97"/><polyline class="cls-4" points="134.15 102.46 134.15 102.93 134.15 109.97"/><line class="cls-5" x1="23.85" y1="109.97" x2="24.31" y2="109.97"/><line class="cls-6" x1="24.31" y1="109.97" x2="29.95" y2="109.97"/><line class="cls-4" x1="29.95" y1="96.83" x2="29.95" y2="102.46"/><line class="cls-5" x1="140.25" y1="109.97" x2="139.78" y2="109.97"/><line class="cls-6" x1="139.78" y1="109.97" x2="134.14" y2="109.97"/><line class="cls-4" x1="134.14" y1="96.83" x2="134.14" y2="102.46"/><line class="cls-4" x1="23.85" y1="102.93" x2="23.85" y2="109.97"/><polyline class="cls-4" points="23.84 102.46 24.32 102.46 24.32 109.97 24.32 102.46"/><line class="cls-4" x1="24.31" y1="96.83" x2="29.95" y2="96.83"/><line class="cls-4" x1="140.25" y1="102.93" x2="140.25" y2="109.97"/><polyline class="cls-4" points="140.25 102.46 139.78 102.46 139.78 109.97 139.78 102.46"/><line class="cls-4" x1="139.78" y1="96.83" x2="134.14" y2="96.83"/><polyline class="cls-4" points="23.84 109.97 23.84 113.25 23.84 121.7"/><polyline class="cls-4" points="140.25 109.97 140.25 113.25 140.25 121.7"/><polyline class="cls-4" points="200.81 102.46 200.81 102.93 200.81 109.97"/><polyline class="cls-4" points="305 102.46 305 102.93 305 109.97"/><line class="cls-5" x1="194.69" y1="109.97" x2="195.16" y2="109.97"/><line class="cls-6" x1="195.16" y1="109.97" x2="200.8" y2="109.97"/><line class="cls-4" x1="200.8" y1="96.83" x2="200.8" y2="102.46"/><line class="cls-5" x1="311.1" y1="109.97" x2="310.64" y2="109.97"/><line class="cls-6" x1="310.64" y1="109.97" x2="305.01" y2="109.97"/><line class="cls-4" x1="305.01" y1="96.83" x2="305.01" y2="102.46"/><line class="cls-4" x1="194.69" y1="102.93" x2="194.69" y2="109.97"/><polyline class="cls-4" points="194.69 102.46 195.16 102.46 195.16 109.97 195.16 102.46"/><line class="cls-4" x1="195.16" y1="96.83" x2="200.8" y2="96.83"/><line class="cls-4" x1="311.1" y1="102.93" x2="311.1" y2="109.97"/><polyline class="cls-4" points="311.1 102.46 310.63 102.46 310.63 109.97 310.63 102.46"/><line class="cls-4" x1="310.64" y1="96.83" x2="305.01" y2="96.83"/><polyline class="cls-4" points="194.69 109.97 194.69 113.25 194.69 121.7"/><polyline class="cls-4" points="311.1 109.97 311.1 113.25 311.1 121.7"/><polyline class="cls-4" points="357.65 102.46 357.65 102.93 357.65 109.97"/><line class="cls-5" x1="357.66" y1="109.97" x2="357.66" y2="109.97"/><line class="cls-6" x1="357.66" y1="109.97" x2="357.66" y2="109.97"/><line class="cls-4" x1="357.66" y1="96.83" x2="357.66" y2="102.46"/><line class="cls-4" x1="357.66" y1="102.93" x2="357.66" y2="109.97"/><polyline class="cls-4" points="357.65 102.46 357.65 102.46 357.65 109.97 357.65 102.46"/><line class="cls-4" x1="357.66" y1="96.83" x2="357.66" y2="96.83"/><polyline class="cls-4" points="357.65 109.97 357.65 113.25 357.65 121.7"/><line class="cls-4" x1="357.66" y1="96.83" x2="310.64" y2="96.83"/><line class="cls-4" x1="195.16" y1="96.83" x2="139.78" y2="96.83"/><line class="cls-4" x1="24.31" y1="96.83" x2="0.38" y2="96.83"/><line class="cls-4" x1="9.77" y1="121.7" x2="23.85" y2="121.7"/><line class="cls-4" x1="140.25" y1="121.7" x2="174.03" y2="121.7"/><line class="cls-4" x1="183.44" y1="121.7" x2="194.69" y2="121.7"/><line class="cls-4" x1="311.1" y1="121.7" x2="347.7" y2="121.7"/><line class="cls-4" x1="357.1" y1="121.7" x2="357.66" y2="121.7"/><line class="cls-5" x1="134.14" y1="96.83" x2="29.95" y2="96.83"/><line class="cls-4" x1="140.25" y1="121.7" x2="23.85" y2="121.7"/><polyline class="cls-5" points="140.25 113.25 136.01 113.25 131.34 113.25 131.34 109.97 136.01 109.97 140.25 109.97"/><polyline class="cls-5" points="99.25 109.97 101.61 109.97 101.61 113.25 99.25 113.25"/><line class="cls-5" x1="131.33" y1="111.62" x2="101.62" y2="111.62"/><line class="cls-5" x1="131.33" y1="113.25" x2="101.62" y2="113.25"/><line class="cls-5" x1="101.62" y1="109.97" x2="131.33" y2="109.97"/><line class="cls-4" x1="136.02" y1="109.97" x2="136.02" y2="113.25"/><polyline class="cls-5" points="99.25 113.25 96.92 113.25 96.92 109.97 99.25 109.97"/><polyline class="cls-5" points="64.83 109.97 67.19 109.97 67.19 113.25 64.83 113.25"/><line class="cls-5" x1="96.91" y1="111.62" x2="67.19" y2="111.62"/><line class="cls-5" x1="96.91" y1="113.25" x2="67.19" y2="113.25"/><line class="cls-5" x1="67.19" y1="109.97" x2="96.91" y2="109.97"/><polyline class="cls-5" points="64.83 113.25 62.48 113.25 62.48 109.97 64.83 109.97"/><polyline class="cls-5" points="23.84 109.97 28.07 109.97 32.77 109.97 32.77 113.25 28.07 113.25 23.84 113.25"/><line class="cls-5" x1="62.49" y1="111.62" x2="32.77" y2="111.62"/><line class="cls-5" x1="62.49" y1="113.25" x2="32.77" y2="113.25"/><line class="cls-5" x1="32.77" y1="109.97" x2="62.49" y2="109.97"/><line class="cls-4" x1="28.06" y1="109.97" x2="28.06" y2="113.25"/><polyline class="cls-4" points="140.25 121.7 140.25 113.25 140.25 109.97 140.25 113.25"/><polyline class="cls-4" points="23.84 121.7 23.84 113.25 23.84 109.97 23.84 113.25"/><line class="cls-4" x1="134.14" y1="96.83" x2="134.14" y2="102.46"/><polyline class="cls-4" points="134.15 109.97 139.78 109.97 134.15 109.97"/><polyline class="cls-4" points="139.78 109.97 140.25 109.97 139.78 109.97"/><line class="cls-4" x1="29.95" y1="96.83" x2="29.95" y2="102.46"/><polyline class="cls-4" points="29.95 109.97 24.32 109.97 29.95 109.97"/><polyline class="cls-4" points="24.32 109.97 23.84 109.97 24.32 109.97"/><polyline class="cls-4" points="134.15 102.46 134.15 102.93 134.15 109.97"/><polyline class="cls-4" points="29.95 102.46 29.95 102.93 29.95 109.97"/><line class="cls-5" x1="305.01" y1="96.83" x2="200.8" y2="96.83"/><line class="cls-4" x1="311.1" y1="121.7" x2="194.69" y2="121.7"/><polyline class="cls-5" points="311.1 113.25 306.88 113.25 302.19 113.25 302.19 109.97 306.88 109.97 311.1 109.97"/><polyline class="cls-5" points="270.12 109.97 272.45 109.97 272.45 113.25 270.12 113.25"/><line class="cls-5" x1="302.19" y1="111.62" x2="272.45" y2="111.62"/><line class="cls-5" x1="302.19" y1="113.25" x2="272.45" y2="113.25"/><line class="cls-5" x1="272.45" y1="109.97" x2="302.19" y2="109.97"/><line class="cls-4" x1="306.89" y1="109.97" x2="306.89" y2="113.25"/><polyline class="cls-5" points="270.12 113.25 267.75 113.25 267.75 109.97 270.12 109.97"/><polyline class="cls-5" points="235.69 109.97 238.03 109.97 238.03 113.25 235.69 113.25"/><line class="cls-5" x1="267.76" y1="111.62" x2="238.03" y2="111.62"/><line class="cls-5" x1="267.76" y1="113.25" x2="238.03" y2="113.25"/><line class="cls-5" x1="238.03" y1="109.97" x2="267.76" y2="109.97"/><polyline class="cls-5" points="235.69 113.25 233.34 113.25 233.34 109.97 235.69 109.97"/><polyline class="cls-5" points="194.69 109.97 198.93 109.97 203.62 109.97 203.62 113.25 198.93 113.25 194.69 113.25"/><line class="cls-5" x1="233.33" y1="111.62" x2="203.61" y2="111.62"/><line class="cls-5" x1="233.33" y1="113.25" x2="203.61" y2="113.25"/><line class="cls-5" x1="203.61" y1="109.97" x2="233.33" y2="109.97"/><line class="cls-4" x1="198.92" y1="109.97" x2="198.92" y2="113.25"/><polyline class="cls-4" points="311.1 121.7 311.1 113.25 311.1 109.97 311.1 113.25"/><polyline class="cls-4" points="194.69 121.7 194.69 113.25 194.69 109.97 194.69 113.25"/><line class="cls-4" x1="305.01" y1="96.83" x2="305.01" y2="102.46"/><polyline class="cls-4" points="305 109.97 310.63 109.97 305 109.97"/><polyline class="cls-4" points="310.63 109.97 311.1 109.97 310.63 109.97"/><line class="cls-4" x1="200.8" y1="96.83" x2="200.8" y2="102.46"/><polyline class="cls-4" points="200.81 109.97 195.16 109.97 200.81 109.97"/><polyline class="cls-4" points="195.16 109.97 194.69 109.97 195.16 109.97"/><polyline class="cls-4" points="305 102.46 305 102.93 305 109.97"/><polyline class="cls-4" points="200.81 102.46 200.81 102.93 200.81 109.97"/><line class="cls-5" x1="357.66" y1="96.83" x2="357.66" y2="96.83"/><line class="cls-4" x1="357.66" y1="121.7" x2="357.66" y2="121.7"/><line class="cls-5" x1="357.66" y1="113.25" x2="357.66" y2="113.25"/><line class="cls-5" x1="357.66" y1="109.97" x2="357.66" y2="109.97"/><polyline class="cls-5" points="357.65 113.25 357.65 113.25 357.65 109.97 357.65 109.97"/><polyline class="cls-5" points="357.65 109.97 357.65 109.97 357.65 109.97 357.65 113.25 357.65 113.25 357.65 113.25"/><line class="cls-5" x1="357.66" y1="111.62" x2="357.66" y2="111.62"/><line class="cls-5" x1="357.66" y1="113.25" x2="357.66" y2="113.25"/><line class="cls-5" x1="357.66" y1="109.97" x2="357.66" y2="109.97"/><line class="cls-4" x1="357.66" y1="109.97" x2="357.66" y2="113.25"/><polyline class="cls-4" points="357.65 121.7 357.65 113.25 357.65 109.97 357.65 113.25"/><line class="cls-4" x1="357.66" y1="96.83" x2="357.66" y2="102.46"/><polyline class="cls-4" points="357.65 109.97 357.65 109.97 357.65 109.97"/><polyline class="cls-4" points="357.65 109.97 357.65 109.97 357.65 109.97"/><polyline class="cls-4" points="357.65 102.46 357.65 102.93 357.65 109.97"/><line class="cls-4" x1="144.96" y1="288.82" x2="144.96" y2="332.93"/><line class="cls-4" x1="150.58" y1="327.3" x2="150.58" y2="294.44"/><line class="cls-4" x1="144.96" y1="288.82" x2="150.58" y2="288.82"/><line class="cls-4" x1="144.96" y1="332.93" x2="150.58" y2="332.93"/><line class="cls-4" x1="150.58" y1="332.93" x2="212.52" y2="332.93"/><line class="cls-4" x1="206.89" y1="327.3" x2="150.58" y2="327.3"/><line class="cls-4" x1="212.52" y1="332.93" x2="212.52" y2="327.3"/><line class="cls-4" x1="212.52" y1="327.3" x2="212.52" y2="288.82"/><line class="cls-4" x1="206.89" y1="294.44" x2="206.89" y2="327.3"/><line class="cls-4" x1="212.52" y1="288.82" x2="206.89" y2="288.82"/><line class="cls-4" x1="206.89" y1="288.82" x2="183.44" y2="288.82"/><line class="cls-4" x1="174.03" y1="288.82" x2="150.58" y2="288.82"/><line class="cls-4" x1="150.58" y1="294.44" x2="174.03" y2="294.44"/><line class="cls-4" x1="183.44" y1="294.44" x2="206.89" y2="294.44"/><line class="cls-4" x1="192.82" y1="625.81" x2="249.13" y2="625.81"/><line class="cls-4" x1="254.78" y1="620.17" x2="187.19" y2="620.17"/><line class="cls-4" x1="187.19" y1="620.17" x2="187.19" y2="625.81"/><line class="cls-4" x1="254.78" y1="620.17" x2="254.78" y2="625.81"/><line class="cls-4" x1="249.13" y1="625.81" x2="249.13" y2="644.57"/><line class="cls-4" x1="254.78" y1="650.22" x2="254.78" y2="625.81"/><line class="cls-4" x1="254.78" y1="650.22" x2="249.13" y2="650.22"/><line class="cls-4" x1="249.13" y1="644.57" x2="226.85" y2="644.57"/><line class="cls-4" x1="215.11" y1="644.57" x2="192.82" y2="644.57"/><line class="cls-4" x1="187.19" y1="650.22" x2="215.11" y2="650.22"/><line class="cls-4" x1="226.85" y1="650.22" x2="249.13" y2="650.22"/><line class="cls-4" x1="187.19" y1="650.22" x2="187.19" y2="644.57"/><line class="cls-4" x1="192.82" y1="644.57" x2="192.82" y2="625.81"/><line class="cls-4" x1="187.19" y1="625.81" x2="187.19" y2="644.57"/><line class="cls-4" x1="0.38" y1="288.8" x2="0.38" y2="293.5"/><path class="cls-4" d="M.38,288.8" transform="translate(0 0)"/><polyline class="cls-4" points="0.38 288.8 0.38 288.8 0.38 293.5 0.38 293.5"/><line class="cls-4" x1="0.38" y1="288.8" x2="0.38" y2="288.8"/><polyline class="cls-4" points="0.38 293.5 0.38 293.5 0.38 288.8"/><polyline class="cls-4" points="0.38 288.8 0.38 288.8 0.38 293.5 0.38 293.5 0.38 288.8"/><line class="cls-4" x1="0.38" y1="291.14" x2="0.38" y2="291.14"/><line class="cls-4" x1="0.38" y1="293.5" x2="0.38" y2="293.5"/><polyline class="cls-4" points="0.38 293.5 0.38 288.8 0.38 293.5"/><line class="cls-5" x1="0.38" y1="189.3" x2="0.38" y2="288.8"/><line class="cls-5" x1="0.38" y1="189.3" x2="0.38" y2="288.8"/><line class="cls-5" x1="0.38" y1="288.8" x2="0.38" y2="288.8"/><line class="cls-5" x1="0.38" y1="288.8" x2="0.38" y2="288.8"/><line class="cls-4" x1="0.38" y1="288.8" x2="0.38" y2="189.3"/><line class="cls-5" x1="0.38" y1="189.3" x2="0.38" y2="189.3"/><line class="cls-5" x1="0.38" y1="189.3" x2="0.38" y2="189.3"/><line class="cls-5" x1="183.44" y1="96.83" x2="183.44" y2="91.08"/><line class="cls-5" x1="183.44" y1="87.56" x2="183.44" y2="83.29"/><line class="cls-5" x1="183.44" y1="79.76" x2="183.44" y2="75.49"/><line class="cls-5" x1="183.44" y1="71.98" x2="183.44" y2="67.71"/><line class="cls-5" x1="183.44" y1="64.18" x2="183.44" y2="59.91"/><line class="cls-5" x1="183.44" y1="56.38" x2="183.44" y2="52.12"/><line class="cls-5" x1="183.44" y1="48.6" x2="183.44" y2="42.86"/><line class="cls-5" x1="183.44" y1="96.83" x2="180.5" y2="96.83"/><line class="cls-5" x1="176.99" y1="96.83" x2="174.03" y2="96.83"/><line class="cls-5" x1="183.44" y1="42.86" x2="180.5" y2="42.86"/><line class="cls-5" x1="176.99" y1="42.86" x2="174.03" y2="42.86"/><line class="cls-5" x1="174.03" y1="42.86" x2="170.22" y2="42.86"/><line class="cls-5" x1="166.69" y1="42.86" x2="162.42" y2="42.86"/><line class="cls-5" x1="158.91" y1="42.86" x2="154.64" y2="42.86"/><line class="cls-5" x1="151.11" y1="42.86" x2="146.85" y2="42.86"/><line class="cls-5" x1="143.32" y1="42.86" x2="139.05" y2="42.86"/><line class="cls-5" x1="135.53" y1="42.86" x2="131.27" y2="42.86"/><line class="cls-5" x1="127.73" y1="42.86" x2="123.48" y2="42.86"/><line class="cls-5" x1="119.94" y1="42.86" x2="115.68" y2="42.86"/><line class="cls-5" x1="112.16" y1="42.86" x2="108.33" y2="42.86"/><line class="cls-5" x1="108.33" y1="42.86" x2="108.33" y2="45.78"/><line class="cls-5" x1="108.33" y1="49.31" x2="108.33" y2="52.24"/><line class="cls-5" x1="108.33" y1="52.24" x2="108.33" y2="57.19"/><line class="cls-5" x1="108.33" y1="60.71" x2="108.33" y2="64.97"/><line class="cls-5" x1="108.33" y1="68.5" x2="108.33" y2="72.77"/><line class="cls-5" x1="108.33" y1="76.3" x2="108.33" y2="80.57"/><line class="cls-5" x1="108.33" y1="84.08" x2="108.33" y2="88.36"/><line class="cls-5" x1="108.33" y1="91.88" x2="108.33" y2="96.83"/><line class="cls-5" x1="108.33" y1="96.83" x2="111.26" y2="96.83"/><line class="cls-5" x1="114.77" y1="96.83" x2="117.73" y2="96.83"/><line class="cls-4" x1="133.22" y1="455.43" x2="161.83" y2="455.43"/><line class="cls-4" x1="156.21" y1="449.78" x2="138.85" y2="449.78"/><line class="cls-4" x1="133.22" y1="455.43" x2="133.22" y2="449.78"/><line class="cls-4" x1="161.83" y1="455.43" x2="161.83" y2="449.78"/><line class="cls-4" x1="161.83" y1="449.78" x2="161.83" y2="431.49"/><line class="cls-4" x1="156.21" y1="437.12" x2="156.21" y2="449.78"/><line class="cls-4" x1="161.83" y1="431.49" x2="156.21" y2="431.49"/><line class="cls-4" x1="156.21" y1="431.49" x2="138.85" y2="431.49"/><line class="cls-4" x1="138.85" y1="437.12" x2="156.21" y2="437.12"/><line class="cls-4" x1="133.22" y1="440.87" x2="133.22" y2="449.78"/><line class="cls-4" x1="138.85" y1="449.78" x2="138.85" y2="440.87"/><line class="cls-5" x1="0.38" y1="179.9" x2="0.38" y2="189.3"/><path class="cls-4" d="M.38,179.9" transform="translate(0 0)"/><polyline class="cls-4" points="0.38 179.9 0.38 179.9 0.38 189.3 0.38 189.3"/><line class="cls-4" x1="0.38" y1="179.9" x2="0.38" y2="179.9"/><polyline class="cls-4" points="0.38 189.3 0.38 189.3 0.38 179.9"/><polyline class="cls-4" points="0.38 179.9 0.38 179.9 0.38 189.3 0.38 189.3 0.38 179.9"/><line class="cls-4" x1="0.38" y1="182.26" x2="0.38" y2="182.26"/><line class="cls-4" x1="0.38" y1="189.3" x2="0.38" y2="189.3"/><polyline class="cls-4" points="0.38 189.3 0.38 179.9 0.38 189.3"/><polyline class="cls-4" points="0.38 179.9 0.38 189.3 9.77 189.3 9.77 179.9"/><line class="cls-5" x1="361.79" y1="727.19" x2="361.79" y2="835.14"/><line class="cls-5" x1="361.32" y1="727.19" x2="361.32" y2="835.14"/><line class="cls-4" x1="366.48" y1="835.14" x2="366.48" y2="727.19"/><line class="cls-5" x1="361.32" y1="727.19" x2="361.79" y2="727.19"/><line class="cls-5" x1="361.79" y1="727.19" x2="366.48" y2="727.19"/><line class="cls-4" x1="375.86" y1="727.19" x2="375.86" y2="835.14"/><polyline class="cls-4" points="245.87 850.63 246.79 850.63 251.5 850.63 251.5 845.01 246.79 845.01 245.87 845.01"/><polyline class="cls-4" points="361.79 835.14 361.32 835.14 361.32 841.72 361.79 841.72"/><line class="cls-4" x1="375.86" y1="835.14" x2="366.48" y2="835.14"/><line class="cls-4" x1="366.48" y1="841.72" x2="375.86" y2="841.72"/><polyline class="cls-4" points="375.87 841.72 375.87 841.72 375.87 835.14 375.87 835.14"/><line class="cls-5" x1="52.93" y1="482.18" x2="52.95" y2="507.53"/><line class="cls-5" x1="52.95" y1="507.53" x2="63.68" y2="507.51"/><line class="cls-5" x1="52.93" y1="482.18" x2="63.65" y2="482.18"/><line class="cls-5" x1="52.95" y1="498.84" x2="52.95" y2="490.85"/><line class="cls-5" x1="61.56" y1="496.98" x2="61.56" y2="495.62"/><line class="cls-5" x1="59.43" y1="494.84" x2="60.77" y2="494.84"/><line class="cls-5" x1="61.56" y1="494.05" x2="61.56" y2="492.71"/><line class="cls-5" x1="62.34" y1="494.84" x2="63.7" y2="494.84"/><path class="cls-5" d="M64.32,483.72A11.27,11.27,0,0,0,59,488.11" transform="translate(0 0)"/><path class="cls-5" d="M59,488.09a11.3,11.3,0,0,0-1.58,6.74" transform="translate(0 0)"/><path class="cls-5" d="M59,501.57A11.32,11.32,0,0,0,64.35,506" transform="translate(0 0)"/><path class="cls-5" d="M57.4,494.84a11.3,11.3,0,0,0,1.6,6.74" transform="translate(0 0)"/><path class="cls-5" d="M72.16,494a20.88,20.88,0,0,0-2.1-7.7" transform="translate(0 0)"/><path class="cls-5" d="M63.67,507.5A6.46,6.46,0,0,0,69,505.1" transform="translate(0 0)"/><path class="cls-5" d="M72.17,495.71a13.07,13.07,0,0,0,0-1.77" transform="translate(0 0)"/><path class="cls-5" d="M59.41,487.74a46.18,46.18,0,0,0,0,14.18" transform="translate(0 0)"/><path class="cls-5" d="M55,503.26a15.91,15.91,0,0,0,10.37,3.59" transform="translate(0 0)"/><path class="cls-5" d="M53.46,494.85a31,31,0,0,0,.79,7.25" transform="translate(0 0)"/><path class="cls-5" d="M54.25,502.1a2.06,2.06,0,0,0,.72,1.16" transform="translate(0 0)"/><path class="cls-5" d="M54.46,494.85A53.48,53.48,0,0,0,55,502" transform="translate(0 0)"/><path class="cls-5" d="M55.66,503.28a14.33,14.33,0,0,0,9.67,3.57" transform="translate(0 0)"/><path class="cls-5" d="M55,502a2,2,0,0,0,.69,1.29" transform="translate(0 0)"/><path class="cls-5" d="M65.3,482.81a14.3,14.3,0,0,0-9.66,3.6" transform="translate(0 0)"/><path class="cls-5" d="M65.31,482.81A15.87,15.87,0,0,0,55,486.43" transform="translate(0 0)"/><path class="cls-5" d="M55,487.7a53.32,53.32,0,0,0-.5,7.14" transform="translate(0 0)"/><path class="cls-5" d="M54.23,487.65a31.57,31.57,0,0,0-.77,7.25" transform="translate(0 0)"/><path class="cls-5" d="M55.65,486.4a2.14,2.14,0,0,0-.69,1.3" transform="translate(0 0)"/><path class="cls-5" d="M55,486.44a2.12,2.12,0,0,0-.72,1.17" transform="translate(0 0)"/><path class="cls-5" d="M69,484.57a6.43,6.43,0,0,0-5.3-2.41" transform="translate(0 0)"/><path class="cls-5" d="M70.07,486.24a9.92,9.92,0,0,0-1.1-1.68" transform="translate(0 0)"/><path class="cls-5" d="M69,505.1a10.28,10.28,0,0,0,1.09-1.68" transform="translate(0 0)"/><path class="cls-5" d="M70.07,503.41a20.63,20.63,0,0,0,2.09-7.69" transform="translate(0 0)"/><path class="cls-5" d="M70.36,498.31a15.05,15.05,0,0,0,0-7" transform="translate(0 0)"/><path class="cls-5" d="M67.46,485a3.8,3.8,0,0,0-3.14-1.31" transform="translate(0 0)"/><path class="cls-5" d="M70.36,491.34a13.77,13.77,0,0,0-2.9-6.32" transform="translate(0 0)"/><path class="cls-5" d="M64.33,506a3.8,3.8,0,0,0,3.13-1.3" transform="translate(0 0)"/><path class="cls-5" d="M67.46,504.65a13.77,13.77,0,0,0,2.9-6.32" transform="translate(0 0)"/><path class="cls-5" d="M61.56,496.48a1.65,1.65,0,1,0-1.65-1.65,1.65,1.65,0,0,0,1.65,1.65h0" transform="translate(0 0)"/><path class="cls-5" d="M61.56,496a1.18,1.18,0,1,0-1.18-1.18h0A1.17,1.17,0,0,0,61.54,496h0" transform="translate(0 0)"/><line class="cls-5" x1="110.91" y1="448.1" x2="110.91" y2="464.65"/><line class="cls-5" x1="111.62" y1="440.87" x2="93.79" y2="440.87"/><line class="cls-5" x1="111.62" y1="440.87" x2="111.62" y2="447.1"/><line class="cls-5" x1="102.69" y1="451.01" x2="96.08" y2="451.01"/><line class="cls-5" x1="110.91" y1="464.64" x2="109.3" y2="451.01"/><line class="cls-5" x1="102.69" y1="451.01" x2="109.3" y2="451.01"/><line class="cls-5" x1="94.48" y1="464.64" x2="96.08" y2="451.01"/><line class="cls-5" x1="110.5" y1="464.64" x2="108.9" y2="451.01"/><line class="cls-5" x1="94.91" y1="464.64" x2="96.5" y2="451.01"/><line class="cls-5" x1="94.48" y1="448.08" x2="94.48" y2="464.65"/><line class="cls-5" x1="93.79" y1="440.87" x2="93.79" y2="447.1"/><line class="cls-5" x1="110.91" y1="464.64" x2="110.69" y2="466.48"/><line class="cls-5" x1="110.69" y1="466.48" x2="109.98" y2="468.2"/><line class="cls-5" x1="109.98" y1="468.2" x2="108.86" y2="469.73"/><line class="cls-5" x1="108.86" y1="469.73" x2="107.37" y2="470.95"/><line class="cls-5" x1="107.37" y1="470.95" x2="105.62" y2="471.81"/><line class="cls-5" x1="105.62" y1="471.81" x2="103.69" y2="472.26"/><line class="cls-5" x1="103.69" y1="472.26" x2="101.72" y2="472.26"/><line class="cls-5" x1="101.72" y1="472.26" x2="99.79" y2="471.81"/><line class="cls-5" x1="99.79" y1="471.81" x2="98.04" y2="470.95"/><line class="cls-5" x1="98.04" y1="470.95" x2="96.55" y2="469.73"/><line class="cls-5" x1="96.55" y1="469.73" x2="95.41" y2="468.2"/><line class="cls-5" x1="95.41" y1="468.2" x2="94.73" y2="466.48"/><line class="cls-5" x1="94.73" y1="466.48" x2="94.48" y2="464.64"/><line class="cls-5" x1="110.5" y1="464.64" x2="110.26" y2="466.38"/><line class="cls-5" x1="110.26" y1="466.38" x2="109.59" y2="468.01"/><line class="cls-5" x1="109.59" y1="468.01" x2="108.54" y2="469.46"/><line class="cls-5" x1="108.54" y1="469.46" x2="107.12" y2="470.61"/><line class="cls-5" x1="107.12" y1="470.61" x2="105.47" y2="471.42"/><line class="cls-5" x1="105.47" y1="471.42" x2="103.65" y2="471.85"/><line class="cls-5" x1="103.65" y1="471.85" x2="101.76" y2="471.85"/><line class="cls-5" x1="101.76" y1="471.85" x2="99.94" y2="471.42"/><line class="cls-5" x1="99.94" y1="471.42" x2="98.27" y2="470.61"/><line class="cls-5" x1="98.27" y1="470.61" x2="96.87" y2="469.46"/><line class="cls-5" x1="96.87" y1="469.46" x2="95.8" y2="468.01"/><line class="cls-5" x1="95.8" y1="468.01" x2="95.13" y2="466.38"/><line class="cls-5" x1="95.13" y1="466.38" x2="94.91" y2="464.64"/><path class="cls-5" d="M94.7,448.12a76.4,76.4,0,0,0,16,0" transform="translate(0 0)"/><path class="cls-5" d="M110.69,448.12a1,1,0,0,0,.93-1" transform="translate(0 0)"/><path class="cls-5" d="M93.77,447.09a1,1,0,0,0,.94,1" transform="translate(0 0)"/><path class="cls-5" d="M102.69,443.91a.87.87,0,1,0,.87.87h0a.87.87,0,0,0-.87-.87" transform="translate(0 0)"/><polyline class="cls-5" points="183.44 42.86 108.33 42.86 108.33 96.35 183.44 96.35 183.44 42.86"/><polyline class="cls-5" points="182.03 44.27 109.73 44.27 109.73 94.94 182.03 94.94 182.03 44.27"/><polyline class="cls-5" points="146.59 44.27 145.18 44.27 145.18 94.94 146.59 94.94 146.59 44.27"/><line class="cls-5" x1="313.69" y1="69.84" x2="313.69" y2="95.66"/><polyline class="cls-5" points="313.69 68.67 313.69 69.84 312.5 69.84 312.5 95.66 313.69 95.66"/><polyline class="cls-5" points="312.5 69.84 312.5 68.67 313.69 68.67"/><polyline class="cls-5" points="313.69 95.66 313.69 96.83 312.5 96.83 312.5 95.66"/><line class="cls-5" x1="313.69" y1="68.67" x2="313.69" y2="73.48"/><line class="cls-5" x1="313.69" y1="76.52" x2="313.69" y2="81.22"/><line class="cls-5" x1="313.69" y1="84.27" x2="313.69" y2="88.97"/><line class="cls-5" x1="313.69" y1="92.01" x2="313.69" y2="96.83"/><line class="cls-5" x1="312.51" y1="68.67" x2="312.51" y2="73.48"/><line class="cls-5" x1="312.51" y1="76.52" x2="312.51" y2="81.22"/><line class="cls-5" x1="312.51" y1="84.27" x2="312.51" y2="88.97"/><line class="cls-5" x1="312.51" y1="92.01" x2="312.51" y2="96.83"/><line class="cls-5" x1="312.51" y1="68.67" x2="313.69" y2="68.67"/><line class="cls-5" x1="313.69" y1="96.83" x2="312.51" y2="96.83"/><polyline class="cls-5" points="312.5 95.66 313.69 95.66 313.69 96.83 313.69 95.66 312.5 95.66 312.5 96.83 313.69 96.83 312.5 96.83 312.5 95.66"/><polyline class="cls-5" points="313.21 92.01 313.21 95.66 313.21 69.84 312.98 69.84 312.98 95.66 313.21 95.66"/><line class="cls-5" x1="313.22" y1="88.97" x2="313.22" y2="84.27"/><line class="cls-5" x1="313.22" y1="81.22" x2="313.22" y2="76.52"/><line class="cls-5" x1="313.22" y1="73.48" x2="313.22" y2="69.84"/><line class="cls-5" x1="312.98" y1="95.66" x2="312.98" y2="92.01"/><line class="cls-5" x1="312.98" y1="88.97" x2="312.98" y2="84.27"/><line class="cls-5" x1="312.98" y1="81.22" x2="312.98" y2="76.52"/><polyline class="cls-5" points="312.98 73.48 312.98 69.84 313.21 69.84"/><line class="cls-5" x1="312.98" y1="95.66" x2="313.22" y2="95.66"/><polyline class="cls-5" points="357.57 95.66 357.33 95.66 357.33 69.84 357.57 69.84 357.57 95.66"/><line class="cls-5" x1="357.33" y1="95.66" x2="357.33" y2="92.01"/><line class="cls-5" x1="357.33" y1="88.97" x2="357.33" y2="84.27"/><line class="cls-5" x1="357.33" y1="81.22" x2="357.33" y2="76.52"/><line class="cls-5" x1="357.33" y1="73.48" x2="357.33" y2="69.84"/><line class="cls-5" x1="357.57" y1="95.66" x2="357.57" y2="92.01"/><line class="cls-5" x1="357.57" y1="88.97" x2="357.57" y2="84.27"/><line class="cls-5" x1="357.57" y1="81.22" x2="357.57" y2="76.52"/><line class="cls-5" x1="357.57" y1="73.48" x2="357.57" y2="69.84"/><line class="cls-5" x1="357.57" y1="95.66" x2="357.33" y2="95.66"/><line class="cls-5" x1="357.57" y1="69.84" x2="357.33" y2="69.84"/><polyline class="cls-5" points="358.04 69.84 358.04 68.67 356.87 68.67 356.87 69.84"/><line class="cls-5" x1="358.04" y1="96.83" x2="358.04" y2="95.66"/><line class="cls-5" x1="356.86" y1="69.84" x2="356.86" y2="95.66"/><line class="cls-5" x1="358.04" y1="69.84" x2="358.04" y2="95.66"/><line class="cls-5" x1="356.86" y1="96.83" x2="358.04" y2="96.83"/><line class="cls-5" x1="356.86" y1="69.84" x2="358.04" y2="69.84"/><polyline class="cls-5" points="358.04 95.66 356.87 95.66 356.87 96.83"/><line class="cls-5" x1="356.86" y1="68.67" x2="356.86" y2="73.48"/><line class="cls-5" x1="356.86" y1="76.52" x2="356.86" y2="81.22"/><line class="cls-5" x1="356.86" y1="84.27" x2="356.86" y2="88.97"/><line class="cls-5" x1="356.86" y1="92.01" x2="356.86" y2="96.83"/><line class="cls-5" x1="358.04" y1="68.67" x2="358.04" y2="73.48"/><line class="cls-5" x1="358.04" y1="76.52" x2="358.04" y2="81.22"/><line class="cls-5" x1="358.04" y1="84.27" x2="358.04" y2="88.97"/><line class="cls-5" x1="358.04" y1="92.01" x2="358.04" y2="96.83"/><line class="cls-5" x1="358.04" y1="68.67" x2="356.86" y2="68.67"/><polyline class="cls-5" points="358.04 96.83 358.04 95.66 356.87 95.66 356.87 96.83 358.04 96.83 356.87 96.83 356.87 95.66 358.04 95.66 358.04 96.83 356.87 96.83"/><line class="cls-5" x1="356.86" y1="69.84" x2="313.69" y2="69.84"/><polyline class="cls-5" points="358.04 69.84 356.87 69.84 356.87 68.67 313.69 68.67 313.69 69.84"/><polyline class="cls-5" points="356.87 68.67 358.04 68.67 358.04 69.84"/><polyline class="cls-5" points="313.69 69.84 312.5 69.84 312.5 68.67 313.69 68.67"/><polyline class="cls-5" points="358.04 69.84 356.87 69.84 356.87 68.67 358.04 68.67 358.04 69.84"/><polyline class="cls-5" points="352.29 69.84 358.04 69.84 356.87 69.84 356.87 68.67 358.04 68.67 358.04 69.84"/><line class="cls-5" x1="349.25" y1="69.84" x2="344.54" y2="69.84"/><line class="cls-5" x1="341.5" y1="69.84" x2="336.79" y2="69.84"/><line class="cls-5" x1="333.76" y1="69.84" x2="329.05" y2="69.84"/><line class="cls-5" x1="326.01" y1="69.84" x2="321.3" y2="69.84"/><line class="cls-5" x1="318.26" y1="69.84" x2="312.51" y2="69.84"/><line class="cls-5" x1="358.04" y1="68.67" x2="352.29" y2="68.67"/><line class="cls-5" x1="349.25" y1="68.67" x2="344.54" y2="68.67"/><line class="cls-5" x1="341.5" y1="68.67" x2="336.79" y2="68.67"/><line class="cls-5" x1="333.76" y1="68.67" x2="329.05" y2="68.67"/><line class="cls-5" x1="326.01" y1="68.67" x2="321.3" y2="68.67"/><line class="cls-5" x1="318.26" y1="68.67" x2="312.51" y2="68.67"/><line class="cls-5" x1="358.04" y1="68.67" x2="358.04" y2="69.84"/><polyline class="cls-5" points="313.69 69.84 312.5 69.84 312.5 68.67 312.5 69.84"/><polyline class="cls-5" points="313.69 69.84 313.69 68.67 312.5 68.67 312.5 69.84 313.69 69.84 313.69 68.67 312.5 68.67"/><polyline class="cls-5" points="356.87 69.84 356.87 68.67 355.69 68.67 355.69 69.84 356.87 69.84 355.69 69.84 355.69 68.67 356.87 68.67 356.87 69.84 356.87 68.67"/><line class="cls-5" x1="313.69" y1="69.84" x2="318.26" y2="69.84"/><line class="cls-5" x1="321.3" y1="69.84" x2="326.01" y2="69.84"/><line class="cls-5" x1="329.05" y1="69.84" x2="333.76" y2="69.84"/><line class="cls-5" x1="336.79" y1="69.84" x2="341.5" y2="69.84"/><line class="cls-5" x1="344.54" y1="69.84" x2="349.25" y2="69.84"/><line class="cls-5" x1="352.29" y1="69.84" x2="356.86" y2="69.84"/><line class="cls-5" x1="313.69" y1="68.67" x2="318.26" y2="68.67"/><line class="cls-5" x1="321.3" y1="68.67" x2="326.01" y2="68.67"/><line class="cls-5" x1="329.05" y1="68.67" x2="333.76" y2="68.67"/><line class="cls-5" x1="336.79" y1="68.67" x2="341.5" y2="68.67"/><line class="cls-5" x1="344.54" y1="68.67" x2="349.25" y2="68.67"/><line class="cls-5" x1="352.29" y1="68.67" x2="356.86" y2="68.67"/><polyline class="cls-5" points="314.86 68.67 313.69 68.67 313.69 69.84 313.69 68.67"/><polyline class="cls-5" points="313.69 69.84 313.69 68.67 314.86 68.67 314.86 69.84 313.69 69.84 314.86 69.84 314.86 68.67"/><polyline class="cls-5" points="314.86 69.84 355.69 69.84 356.87 69.84 356.87 68.67 355.69 68.67 314.86 68.67"/><line class="cls-5" x1="355.7" y1="68.67" x2="355.7" y2="69.84"/><polyline class="cls-5" points="314.86 68.67 314.86 69.84 313.69 69.84 313.69 68.67 314.86 68.67"/><polyline class="cls-5" points="355.69 69.36 355.69 69.14 314.86 69.14 314.86 69.36 355.69 69.36"/><line class="cls-5" x1="314.85" y1="69.36" x2="318.26" y2="69.36"/><line class="cls-5" x1="321.3" y1="69.36" x2="326.01" y2="69.36"/><line class="cls-5" x1="329.05" y1="69.36" x2="333.76" y2="69.36"/><line class="cls-5" x1="336.79" y1="69.36" x2="341.5" y2="69.36"/><line class="cls-5" x1="344.54" y1="69.36" x2="349.25" y2="69.36"/><line class="cls-5" x1="352.29" y1="69.36" x2="355.7" y2="69.36"/><line class="cls-5" x1="314.85" y1="69.14" x2="318.26" y2="69.14"/><line class="cls-5" x1="321.3" y1="69.14" x2="326.01" y2="69.14"/><line class="cls-5" x1="329.05" y1="69.14" x2="333.76" y2="69.14"/><line class="cls-5" x1="336.79" y1="69.14" x2="341.5" y2="69.14"/><line class="cls-5" x1="344.54" y1="69.14" x2="349.25" y2="69.14"/><polyline class="cls-5" points="352.29 69.14 355.69 69.14 355.69 69.36"/><line class="cls-5" x1="314.85" y1="69.14" x2="314.85" y2="69.36"/><line class="cls-5" x1="327.73" y1="69.84" x2="325.85" y2="69.84"/><line class="cls-5" x1="324.67" y1="68.66" x2="322.8" y2="68.66"/><line class="cls-5" x1="327.73" y1="68.66" x2="325.85" y2="68.66"/><line class="cls-5" x1="329.2" y1="69.84" x2="328.89" y2="69.84"/><line class="cls-5" x1="329.2" y1="68.66" x2="328.89" y2="68.66"/><line class="cls-5" x1="315.55" y1="69.84" x2="313.69" y2="69.84"/><line class="cls-5" x1="315.55" y1="68.66" x2="313.69" y2="68.66"/><line class="cls-5" x1="318.6" y1="68.66" x2="316.73" y2="68.66"/><line class="cls-5" x1="318.6" y1="69.84" x2="316.73" y2="69.84"/><line class="cls-5" x1="321.64" y1="69.84" x2="319.77" y2="69.84"/><line class="cls-5" x1="324.67" y1="69.84" x2="322.8" y2="69.84"/><line class="cls-5" x1="321.64" y1="68.66" x2="319.77" y2="68.66"/><line class="cls-5" x1="356.86" y1="69.84" x2="354.98" y2="69.84"/><polyline class="cls-5" points="356.87 68.66 355 68.66 353.21 68.66"/><line class="cls-5" x1="352.04" y1="69.84" x2="350.19" y2="69.84"/><line class="cls-5" x1="354.98" y1="69.84" x2="353.22" y2="69.84"/><line class="cls-5" x1="349.01" y1="68.66" x2="347.14" y2="68.66"/><line class="cls-5" x1="352.04" y1="68.66" x2="350.19" y2="68.66"/><line class="cls-5" x1="345.98" y1="69.84" x2="344.1" y2="69.84"/><line class="cls-5" x1="349.01" y1="69.84" x2="347.14" y2="69.84"/><line class="cls-5" x1="342.92" y1="68.66" x2="341.04" y2="68.66"/><line class="cls-5" x1="345.98" y1="68.66" x2="344.1" y2="68.66"/><line class="cls-5" x1="339.89" y1="69.84" x2="338.01" y2="69.84"/><line class="cls-5" x1="342.92" y1="69.84" x2="341.04" y2="69.84"/><line class="cls-5" x1="336.85" y1="68.66" x2="334.98" y2="68.66"/><line class="cls-5" x1="339.89" y1="68.66" x2="338.01" y2="68.66"/><line class="cls-5" x1="333.8" y1="69.84" x2="331.92" y2="69.84"/><line class="cls-5" x1="336.85" y1="69.84" x2="334.98" y2="69.84"/><line class="cls-5" x1="333.8" y1="68.66" x2="331.92" y2="68.66"/><line class="cls-5" x1="327.73" y1="69.84" x2="325.85" y2="69.84"/><line class="cls-5" x1="330.76" y1="69.84" x2="328.89" y2="69.84"/><line class="cls-5" x1="327.73" y1="68.66" x2="325.85" y2="68.66"/><line class="cls-5" x1="330.76" y1="68.66" x2="328.89" y2="68.66"/><line class="cls-5" x1="321.64" y1="69.84" x2="319.77" y2="69.84"/><line class="cls-5" x1="324.67" y1="69.84" x2="322.8" y2="69.84"/><line class="cls-5" x1="321.64" y1="68.66" x2="319.77" y2="68.66"/><line class="cls-5" x1="324.67" y1="68.66" x2="322.8" y2="68.66"/><line class="cls-5" x1="315.55" y1="69.84" x2="313.69" y2="69.84"/><line class="cls-5" x1="318.6" y1="69.84" x2="316.73" y2="69.84"/><line class="cls-5" x1="315.55" y1="68.66" x2="313.69" y2="68.66"/><line class="cls-5" x1="318.6" y1="68.66" x2="316.73" y2="68.66"/><polyline class="cls-5" points="355.69 77.11 314.86 77.11 314.86 92.13 355.69 92.13 355.69 77.11"/><polyline class="cls-5" points="355.69 78.62 314.86 78.62 314.86 92.13 355.69 92.13 355.69 78.62"/><polyline class="cls-4" points="43.55 788.21 43.55 825.75 43.55 835.14 51.08 835.14 51.08 825.75 51.08 788.21"/><line class="cls-4" x1="286.23" y1="844.52" x2="290.91" y2="844.52"/><line class="cls-4" x1="286.23" y1="727.19" x2="290.91" y2="727.19"/><line class="cls-5" x1="286.23" y1="727.19" x2="286.23" y2="844.52"/><line class="cls-5" x1="290.91" y1="727.19" x2="290.91" y2="844.52"/><line class="cls-5" x1="286.23" y1="727.19" x2="286.23" y2="729.53"/><line class="cls-5" x1="286.23" y1="729.53" x2="290.91" y2="729.53"/><line class="cls-5" x1="290.91" y1="729.53" x2="290.91" y2="727.19"/><line class="cls-5" x1="290.91" y1="782.34" x2="290.91" y2="780.7"/><line class="cls-5" x1="290.91" y1="780.7" x2="286.23" y2="780.7"/><line class="cls-5" x1="286.23" y1="780.7" x2="286.23" y2="782.34"/><line class="cls-5" x1="288.57" y1="729.53" x2="288.57" y2="780.7"/><line class="cls-5" x1="286.23" y1="729.53" x2="286.23" y2="780.7"/><line class="cls-5" x1="290.91" y1="780.7" x2="290.91" y2="729.53"/><line class="cls-5" x1="286.23" y1="782.34" x2="286.23" y2="783.97"/><line class="cls-5" x1="286.23" y1="783.97" x2="290.91" y2="783.97"/><line class="cls-5" x1="290.91" y1="783.97" x2="290.91" y2="782.34"/><line class="cls-5" x1="290.91" y1="844.52" x2="290.91" y2="835.14"/><line class="cls-5" x1="290.91" y1="835.14" x2="286.23" y2="835.14"/><line class="cls-5" x1="286.23" y1="835.14" x2="286.23" y2="844.52"/><line class="cls-5" x1="288.57" y1="783.97" x2="288.57" y2="835.14"/><line class="cls-5" x1="286.23" y1="783.97" x2="286.23" y2="835.14"/><line class="cls-5" x1="290.91" y1="835.14" x2="290.91" y2="783.97"/><line class="cls-5" x1="286.23" y1="727.19" x2="290.91" y2="727.19"/><line class="cls-5" x1="286.23" y1="727.19" x2="290.91" y2="727.19"/><line class="cls-5" x1="286.23" y1="844.52" x2="290.91" y2="844.52"/><line class="cls-5" x1="286.23" y1="844.52" x2="290.91" y2="844.52"/><line class="cls-5" x1="246.8" y1="844.52" x2="246.8" y2="835.14"/><line class="cls-4" x1="358.98" y1="844.52" x2="375.86" y2="844.52"/><line class="cls-4" x1="358.98" y1="835.14" x2="375.86" y2="835.14"/><polyline class="cls-4" points="375.87 844.52 375.87 844.52 375.87 835.14 375.87 835.14"/><polyline class="cls-4" points="358.99 835.14 361.32 835.14 361.32 844.52 358.99 844.52"/><line class="cls-4" x1="361.32" y1="842.18" x2="375.86" y2="842.18"/><path class="cls-4" d="M359,844.52" transform="translate(0 0)"/><path class="cls-4" d="M246.8,844.52" transform="translate(0 0)"/><path class="cls-4" d="M314.37,844.51a42.26,42.26,0,0,0,42.25,42.25h0" transform="translate(0 0)"/><path class="cls-4" d="M290.91,868a23.46,23.46,0,0,0,23.46-23.46h0" transform="translate(0 0)"/><polyline class="cls-4" points="256.19 844.52 256.19 835.14 286.23 835.14 286.23 844.52 256.19 844.52"/><polyline class="cls-4" points="356.63 882.08 356.63 849.22 355.45 849.22 355.45 882.08 356.63 882.08"/><polyline class="cls-4" points="355.45 882.08 355.45 849.22 354.29 849.22 354.29 882.08 355.45 882.08"/><polyline class="cls-4" points="290.92 849.22 292.1 849.22 292.1 863.3 290.92 863.3 290.92 849.22"/><polyline class="cls-4" points="292.1 849.22 293.26 849.22 293.26 863.3 292.1 863.3 292.1 849.22"/><line class="cls-4" x1="251.5" y1="844.52" x2="246.8" y2="844.52"/><polyline class="cls-4" points="251.5 835.14 251.5 844.52 256.19 844.52 256.19 835.14 251.5 835.14 246.79 835.14 246.79 844.52"/><polyline class="cls-4" points="290.92 835.14 290.92 844.52 286.23 844.52 286.23 835.14 290.92 835.14"/><polyline class="cls-4" points="358.99 844.52 356.63 844.52 356.63 835.14 358.99 835.14"/><line class="cls-4" x1="256.2" y1="842.18" x2="286.23" y2="842.18"/><line class="cls-4" x1="286.23" y1="835.14" x2="256.2" y2="835.14"/><polyline class="cls-4" points="356.63 886.78 356.63 882.08 354.29 882.08 354.29 886.78 356.63 886.78"/><polyline class="cls-4" points="354.29 844.52 354.29 849.22 356.63 849.22 356.63 844.52 354.29 844.52"/><line class="cls-4" x1="355.45" y1="882.08" x2="355.45" y2="849.22"/><polyline class="cls-4" points="290.92 868 290.92 863.3 293.26 863.3 293.26 868 290.92 868"/><polyline class="cls-4" points="293.26 844.52 293.26 849.22 290.92 849.22 290.92 844.52 293.26 844.52"/><line class="cls-4" x1="292.1" y1="863.3" x2="292.1" y2="849.22"/><polyline class="cls-4" points="246.79 835.14 246.79 844.52 246.79 835.14"/><path class="cls-4" d="M375.87,844.52" transform="translate(0 0)"/><polyline class="cls-4" points="375.87 844.52 375.87 844.52 375.87 835.14 375.87 835.14"/><polyline class="cls-4" points="225.68 835.14 216.29 835.14 216.29 788.21 225.68 788.21 225.68 835.14"/><polyline class="cls-4" points="226.84 703.71 215.1 703.71 215.1 633.32 226.84 633.32 226.84 703.71"/><polyline class="cls-4" points="0.38 159.26 9.77 159.26 9.77 112.32 0.38 112.32 0.38 159.26"/><polyline class="cls-4" points="0.38 288.8 0.38 314.15 9.77 314.15 9.77 267.21 0.38 267.21"/><polyline class="cls-4" points="174.03 159.26 183.44 159.26 183.44 112.32 174.03 112.32 174.03 159.26"/><polyline class="cls-4" points="183.44 257.82 174.03 257.82 174.03 314.15 183.44 314.15 183.44 257.82"/><polyline class="cls-4" points="347.7 159.26 357.11 159.26 357.11 112.32 347.7 112.32 347.7 159.26"/><polyline class="cls-4" points="357.11 267.21 347.7 267.21 347.7 314.15 357.11 314.15 357.11 267.21"/><line class="cls-4" x1="375.86" y1="788.21" x2="366.48" y2="788.21"/><line class="cls-4" x1="366.48" y1="835.14" x2="375.86" y2="835.14"/><polyline class="cls-4" points="377.06 680.25 365.31 680.25 365.31 633.32 377.06 633.32 377.06 680.25"/><polyline class="cls-4" points="357.11 440.87 347.7 440.87 347.7 384.55 357.11 384.55 357.11 440.87"/><polyline class="cls-4" points="138.84 431.49 138.84 440.87 82.53 440.87 82.53 431.49 138.84 431.49"/><text class="cls-7" transform="translate(88.01 711.77)">№3</text><text class="cls-8" transform="translate(84.3 748.73)">95.51</text><polyline class="cls-9" points="68.92 758.09 68.92 676.75 166.71 676.75 166.71 758.09"/><line class="cls-9" x1="68.91" y1="758.09" x2="166.69" y2="758.09"/><line class="cls-9" x1="68.91" y1="721.97" x2="166.69" y2="721.97"/><g class="cls-10"><text class="cls-11" transform="translate(146.58 218.68)">8</text><text class="cls-12" transform="translate(159.66 218.68)">7</text><text class="cls-11" transform="translate(170.11 218.68)">.16</text></g><text class="cls-11" transform="translate(94.23 515.97)">4.90</text><text class="cls-11" transform="translate(302.64 813.55)">3.45</text><g id="_2-2" data-name=" 2-2"><g id="_1-3" data-name=" 1-3"><g id="_3-3" data-name=" 3-3"><g id="_1-4" data-name=" 1-4"><g id="plan-2"><text class="cls-2" transform="translate(180.86 10.2)">двор</text><line class="cls-3" x1="169.67" y1="4.23" x2="169.67" y2="13.03"/><polyline class="cls-3" points="173.18 7.73 169.68 4.23 166.18 7.73"/></g></g></g></g></g></g></svg>