<svg id="_118" data-name="118" xmlns="http://www.w3.org/2000/svg" viewBox="0 0 293.76 728.35"><defs><style>.cls-1{isolation:isolate;font-size:12px;fill:#969696;}.cls-1,.cls-10,.cls-11{font-family:PTSans-Regular, PT Sans;}.cls-2{letter-spacing:-0.01em;}.cls-3,.cls-4,.cls-5,.cls-6,.cls-7,.cls-8,.cls-9{fill:none;stroke-linecap:round;stroke-linejoin:round;}.cls-3{stroke:#969696;}.cls-3,.cls-4{stroke-width:0.75px;}.cls-4{stroke:#000;}.cls-5,.cls-6,.cls-7,.cls-8,.cls-9{stroke:#505050;stroke-width:0.25px;}.cls-6{stroke-dasharray:3.02 3.02;}.cls-7{stroke-dasharray:3.04 3.04;}.cls-8{stroke-dasharray:1.97 1.97;}.cls-9{stroke-dasharray:2.02 2.02;}.cls-10{font-size:28px;}.cls-11{font-size:24px;}</style></defs><title>13floor_118flat</title><text class="cls-1" transform="translate(138.74 725.16)"><tspan class="cls-2">у</tspan><tspan x="5.42" y="0">лица</tspan></text><line class="cls-3" x1="127.98" y1="727.98" x2="127.98" y2="719.18"/><polyline class="cls-3" points="124.48 724.48 127.98 727.98 131.48 724.48"/><line class="cls-4" x1="1.76" y1="523.7" x2="0.74" y2="522.68"/><line class="cls-4" x1="16.61" y1="514.23" x2="9.78" y2="507.37"/><line class="cls-4" x1="7.5" y1="505.09" x2="0.74" y2="498.33"/><line class="cls-4" x1="17.93" y1="491.2" x2="12.81" y2="486.08"/><line class="cls-4" x1="10.53" y1="483.8" x2="3.7" y2="476.95"/><line class="cls-4" x1="1.4" y1="474.67" x2="0.74" y2="473.99"/><line class="cls-4" x1="17.93" y1="466.86" x2="15.86" y2="464.78"/><line class="cls-4" x1="13.58" y1="462.48" x2="6.73" y2="455.65"/><line class="cls-4" x1="4.45" y1="453.35" x2="0.74" y2="449.64"/><line class="cls-4" x1="16.61" y1="441.19" x2="9.78" y2="434.34"/><line class="cls-4" x1="7.5" y1="432.06" x2="0.74" y2="425.29"/><line class="cls-4" x1="17.93" y1="418.17" x2="12.81" y2="413.04"/><line class="cls-4" x1="10.53" y1="410.76" x2="3.7" y2="403.91"/><line class="cls-4" x1="1.4" y1="401.63" x2="0.74" y2="400.95"/><line class="cls-4" x1="17.93" y1="393.82" x2="15.86" y2="391.73"/><line class="cls-4" x1="13.58" y1="389.45" x2="6.73" y2="382.62"/><line class="cls-4" x1="4.45" y1="380.32" x2="0.74" y2="376.6"/><line class="cls-4" x1="16.61" y1="368.15" x2="9.78" y2="361.3"/><line class="cls-4" x1="7.5" y1="359.02" x2="0.74" y2="352.26"/><line class="cls-4" x1="17.93" y1="345.13" x2="12.81" y2="340.01"/><line class="cls-4" x1="10.53" y1="337.73" x2="3.7" y2="330.87"/><line class="cls-4" x1="1.4" y1="328.6" x2="0.74" y2="327.91"/><line class="cls-4" x1="13.93" y1="523.7" x2="8.25" y2="518.03"/><line class="cls-4" x1="5.98" y1="515.75" x2="0.74" y2="510.52"/><line class="cls-4" x1="17.93" y1="503.36" x2="11.31" y2="496.74"/><line class="cls-4" x1="9.01" y1="494.44" x2="2.17" y2="487.6"/><line class="cls-4" x1="17.93" y1="479.02" x2="14.34" y2="475.42"/><line class="cls-4" x1="12.06" y1="473.14" x2="5.2" y2="466.29"/><line class="cls-4" x1="2.93" y1="464.01" x2="0.74" y2="461.82"/><line class="cls-4" x1="17.93" y1="454.67" x2="17.39" y2="454.13"/><line class="cls-4" x1="15.11" y1="451.85" x2="8.25" y2="444.99"/><line class="cls-4" x1="5.98" y1="442.72" x2="0.74" y2="437.48"/><line class="cls-4" x1="17.93" y1="430.33" x2="11.31" y2="423.7"/><line class="cls-4" x1="9.01" y1="421.4" x2="2.17" y2="414.57"/><line class="cls-4" x1="17.93" y1="405.98" x2="14.34" y2="402.38"/><line class="cls-4" x1="12.06" y1="400.11" x2="5.2" y2="393.25"/><line class="cls-4" x1="2.93" y1="390.97" x2="0.74" y2="388.76"/><line class="cls-4" x1="17.93" y1="381.64" x2="17.39" y2="381.09"/><line class="cls-4" x1="15.11" y1="378.81" x2="8.25" y2="371.96"/><line class="cls-4" x1="5.98" y1="369.68" x2="0.74" y2="364.42"/><line class="cls-4" x1="17.93" y1="357.29" x2="11.31" y2="350.66"/><line class="cls-4" x1="9.01" y1="348.36" x2="2.17" y2="341.53"/><line class="cls-4" x1="17.93" y1="332.95" x2="14.34" y2="329.35"/><line class="cls-4" x1="12.06" y1="327.07" x2="10.74" y2="325.73"/><line class="cls-4" x1="9.87" y1="239.66" x2="6.73" y2="236.52"/><line class="cls-4" x1="4.45" y1="234.24" x2="0.74" y2="230.53"/><line class="cls-4" x1="16.61" y1="222.08" x2="9.78" y2="215.23"/><line class="cls-4" x1="7.5" y1="212.95" x2="0.74" y2="206.18"/><line class="cls-4" x1="17.93" y1="199.06" x2="12.81" y2="193.93"/><line class="cls-4" x1="10.53" y1="191.63" x2="3.7" y2="184.8"/><line class="cls-4" x1="1.4" y1="182.52" x2="0.74" y2="181.84"/><line class="cls-4" x1="17.93" y1="174.71" x2="15.86" y2="172.62"/><line class="cls-4" x1="13.58" y1="170.34" x2="6.73" y2="163.48"/><line class="cls-4" x1="4.45" y1="161.21" x2="0.74" y2="157.49"/><line class="cls-4" x1="16.61" y1="149.04" x2="9.78" y2="142.19"/><line class="cls-4" x1="7.5" y1="139.91" x2="0.74" y2="133.15"/><line class="cls-4" x1="17.93" y1="126.02" x2="12.81" y2="120.9"/><line class="cls-4" x1="10.53" y1="118.6" x2="3.7" y2="111.76"/><line class="cls-4" x1="1.4" y1="109.49" x2="0.74" y2="108.8"/><line class="cls-4" x1="17.93" y1="101.67" x2="15.86" y2="99.58"/><line class="cls-4" x1="13.58" y1="97.3" x2="6.73" y2="90.45"/><line class="cls-4" x1="4.45" y1="88.17" x2="2.72" y2="86.44"/><line class="cls-4" x1="17.93" y1="235.56" x2="17.39" y2="235.02"/><line class="cls-4" x1="15.11" y1="232.72" x2="8.25" y2="225.88"/><line class="cls-4" x1="5.98" y1="223.61" x2="0.74" y2="218.35"/><line class="cls-4" x1="17.93" y1="211.22" x2="11.31" y2="204.57"/><line class="cls-4" x1="9.01" y1="202.29" x2="2.17" y2="195.46"/><line class="cls-4" x1="17.93" y1="186.87" x2="14.34" y2="183.27"/><line class="cls-4" x1="12.06" y1="181" x2="5.2" y2="174.14"/><line class="cls-4" x1="2.93" y1="171.86" x2="0.74" y2="169.65"/><line class="cls-4" x1="17.93" y1="162.53" x2="17.39" y2="161.98"/><line class="cls-4" x1="15.11" y1="159.68" x2="8.25" y2="152.85"/><line class="cls-4" x1="5.98" y1="150.57" x2="0.74" y2="145.31"/><line class="cls-4" x1="17.93" y1="138.18" x2="11.31" y2="131.53"/><line class="cls-4" x1="9.01" y1="129.25" x2="2.17" y2="122.4"/><line class="cls-4" x1="17.93" y1="113.84" x2="14.34" y2="110.24"/><line class="cls-4" x1="12.06" y1="107.96" x2="5.2" y2="101.1"/><line class="cls-4" x1="2.93" y1="98.83" x2="0.74" y2="96.62"/><line class="cls-4" x1="17.93" y1="89.49" x2="17.39" y2="88.94"/><line class="cls-4" x1="15.11" y1="86.64" x2="14.9" y2="86.44"/><line class="cls-4" x1="17.93" y1="523.7" x2="17.93" y2="325.73"/><line class="cls-4" x1="17.93" y1="239.66" x2="17.93" y2="86.44"/><line class="cls-4" x1="0.74" y1="86.44" x2="0.74" y2="239.66"/><line class="cls-4" x1="0.74" y1="325.73" x2="0.74" y2="523.7"/><line class="cls-4" x1="277.67" y1="239.66" x2="277.58" y2="239.57"/><line class="cls-4" x1="293.39" y1="231.03" x2="289.74" y2="227.41"/><line class="cls-4" x1="287.47" y1="225.11" x2="280.63" y2="218.28"/><line class="cls-4" x1="278.33" y1="216" x2="276.17" y2="213.81"/><line class="cls-4" x1="293.39" y1="206.69" x2="292.79" y2="206.09"/><line class="cls-4" x1="290.52" y1="203.82" x2="283.66" y2="196.96"/><line class="cls-4" x1="281.38" y1="194.68" x2="276.17" y2="189.47"/><line class="cls-4" x1="293.39" y1="182.34" x2="286.71" y2="175.67"/><line class="cls-4" x1="284.44" y1="173.39" x2="277.58" y2="166.53"/><line class="cls-4" x1="293.39" y1="157.99" x2="289.74" y2="154.37"/><line class="cls-4" x1="287.47" y1="152.07" x2="280.63" y2="145.24"/><line class="cls-4" x1="278.33" y1="142.94" x2="276.17" y2="140.78"/><line class="cls-4" x1="293.39" y1="133.65" x2="292.79" y2="133.06"/><line class="cls-4" x1="290.52" y1="130.78" x2="283.66" y2="123.92"/><line class="cls-4" x1="281.38" y1="121.65" x2="276.17" y2="116.43"/><line class="cls-4" x1="293.39" y1="109.3" x2="286.71" y2="102.63"/><line class="cls-4" x1="284.44" y1="100.35" x2="277.58" y2="93.5"/><line class="cls-4" x1="289.83" y1="239.66" x2="288.24" y2="238.05"/><line class="cls-4" x1="285.94" y1="235.77" x2="279.11" y2="228.91"/><line class="cls-4" x1="276.83" y1="226.64" x2="276.17" y2="226"/><line class="cls-4" x1="293.39" y1="218.87" x2="291.27" y2="216.75"/><line class="cls-4" x1="288.99" y1="214.47" x2="282.14" y2="207.62"/><line class="cls-4" x1="279.86" y1="205.34" x2="276.17" y2="201.65"/><line class="cls-4" x1="292.04" y1="193.16" x2="285.19" y2="186.33"/><line class="cls-4" x1="282.91" y1="184.03" x2="276.17" y2="177.31"/><line class="cls-4" x1="293.39" y1="170.18" x2="288.24" y2="165.01"/><line class="cls-4" x1="285.94" y1="162.73" x2="279.11" y2="155.88"/><line class="cls-4" x1="276.83" y1="153.6" x2="276.17" y2="152.96"/><line class="cls-4" x1="293.39" y1="145.83" x2="291.27" y2="143.72"/><line class="cls-4" x1="288.99" y1="141.44" x2="282.14" y2="134.58"/><line class="cls-4" x1="279.86" y1="132.31" x2="276.17" y2="128.62"/><line class="cls-4" x1="292.04" y1="120.12" x2="285.19" y2="113.29"/><line class="cls-4" x1="282.91" y1="110.99" x2="276.17" y2="104.27"/><line class="cls-4" x1="293.39" y1="97.14" x2="288.24" y2="91.97"/><line class="cls-4" x1="285.94" y1="89.69" x2="282.71" y2="86.44"/><line class="cls-4" x1="293.39" y1="523.18" x2="289.74" y2="519.56"/><line class="cls-4" x1="287.47" y1="517.28" x2="280.63" y2="510.42"/><line class="cls-4" x1="278.33" y1="508.15" x2="276.17" y2="505.96"/><line class="cls-4" x1="293.39" y1="498.83" x2="292.79" y2="498.24"/><line class="cls-4" x1="290.52" y1="495.96" x2="283.66" y2="489.13"/><line class="cls-4" x1="281.38" y1="486.83" x2="276.17" y2="481.61"/><line class="cls-4" x1="293.39" y1="474.49" x2="286.71" y2="467.81"/><line class="cls-4" x1="284.44" y1="465.54" x2="277.58" y2="458.68"/><line class="cls-4" x1="293.39" y1="450.14" x2="289.74" y2="446.52"/><line class="cls-4" x1="287.47" y1="444.24" x2="280.63" y2="437.39"/><line class="cls-4" x1="278.33" y1="435.11" x2="276.17" y2="432.92"/><line class="cls-4" x1="293.39" y1="425.8" x2="292.79" y2="425.2"/><line class="cls-4" x1="290.52" y1="422.93" x2="283.66" y2="416.07"/><line class="cls-4" x1="281.38" y1="413.79" x2="276.17" y2="408.58"/><line class="cls-4" x1="293.39" y1="401.45" x2="286.71" y2="394.78"/><line class="cls-4" x1="284.44" y1="392.5" x2="277.58" y2="385.64"/><line class="cls-4" x1="293.39" y1="377.1" x2="289.74" y2="373.48"/><line class="cls-4" x1="287.47" y1="371.18" x2="280.63" y2="364.35"/><line class="cls-4" x1="278.33" y1="362.07" x2="276.17" y2="359.89"/><line class="cls-4" x1="293.39" y1="352.76" x2="292.79" y2="352.17"/><line class="cls-4" x1="290.52" y1="349.89" x2="283.66" y2="343.03"/><line class="cls-4" x1="281.38" y1="340.76" x2="276.17" y2="335.54"/><line class="cls-4" x1="293.39" y1="328.41" x2="290.7" y2="325.73"/><line class="cls-4" x1="281.75" y1="523.7" x2="279.11" y2="521.08"/><line class="cls-4" x1="276.83" y1="518.78" x2="276.17" y2="518.14"/><line class="cls-4" x1="293.39" y1="511.02" x2="291.27" y2="508.9"/><line class="cls-4" x1="288.99" y1="506.62" x2="282.14" y2="499.77"/><line class="cls-4" x1="279.86" y1="497.49" x2="276.17" y2="493.8"/><line class="cls-4" x1="292.04" y1="485.33" x2="285.19" y2="478.47"/><line class="cls-4" x1="282.91" y1="476.19" x2="276.17" y2="469.45"/><line class="cls-4" x1="293.39" y1="462.32" x2="288.24" y2="457.16"/><line class="cls-4" x1="285.94" y1="454.88" x2="279.11" y2="448.05"/><line class="cls-4" x1="276.83" y1="445.75" x2="276.17" y2="445.11"/><line class="cls-4" x1="293.39" y1="437.98" x2="291.27" y2="435.86"/><line class="cls-4" x1="288.99" y1="433.58" x2="282.14" y2="426.73"/><line class="cls-4" x1="279.86" y1="424.45" x2="276.17" y2="420.76"/><line class="cls-4" x1="292.04" y1="412.27" x2="285.19" y2="405.44"/><line class="cls-4" x1="282.91" y1="403.16" x2="276.17" y2="396.42"/><line class="cls-4" x1="293.39" y1="389.29" x2="288.24" y2="384.12"/><line class="cls-4" x1="285.94" y1="381.84" x2="279.11" y2="375.01"/><line class="cls-4" x1="276.83" y1="372.71" x2="276.17" y2="372.07"/><line class="cls-4" x1="293.39" y1="364.94" x2="291.27" y2="362.82"/><line class="cls-4" x1="288.99" y1="360.55" x2="282.14" y2="353.69"/><line class="cls-4" x1="279.86" y1="351.42" x2="276.17" y2="347.73"/><line class="cls-4" x1="292.04" y1="339.23" x2="285.19" y2="332.4"/><line class="cls-4" x1="282.91" y1="330.12" x2="278.54" y2="325.73"/><line class="cls-4" x1="276.17" y1="86.44" x2="276.17" y2="239.66"/><line class="cls-4" x1="276.17" y1="325.73" x2="276.17" y2="523.7"/><line class="cls-4" x1="293.39" y1="523.7" x2="293.39" y2="325.73"/><line class="cls-4" x1="293.39" y1="239.66" x2="293.39" y2="86.44"/><line class="cls-4" x1="128.64" y1="17.59" x2="122.38" y2="11.33"/><line class="cls-4" x1="120.1" y1="9.05" x2="113.24" y2="2.2"/><line class="cls-4" x1="152.98" y1="17.59" x2="152.8" y2="17.41"/><line class="cls-4" x1="150.52" y1="15.13" x2="143.67" y2="8.28"/><line class="cls-4" x1="141.39" y1="6" x2="135.77" y2="0.38"/><line class="cls-4" x1="177.33" y1="17.59" x2="174.12" y2="14.38"/><line class="cls-4" x1="171.82" y1="12.08" x2="164.99" y2="5.25"/><line class="cls-4" x1="162.71" y1="2.97" x2="160.11" y2="0.38"/><line class="cls-4" x1="201.68" y1="17.59" x2="195.41" y2="11.33"/><line class="cls-4" x1="193.14" y1="9.05" x2="186.28" y2="2.2"/><line class="cls-4" x1="226.02" y1="17.59" x2="225.84" y2="17.41"/><line class="cls-4" x1="223.56" y1="15.13" x2="216.71" y2="8.28"/><line class="cls-4" x1="214.43" y1="6" x2="208.8" y2="0.38"/><line class="cls-4" x1="250.37" y1="17.59" x2="247.16" y2="14.38"/><line class="cls-4" x1="244.86" y1="12.08" x2="238.02" y2="5.25"/><line class="cls-4" x1="235.75" y1="2.97" x2="233.15" y2="0.38"/><line class="cls-4" x1="274.71" y1="17.59" x2="268.45" y2="11.33"/><line class="cls-4" x1="266.17" y1="9.05" x2="259.32" y2="2.2"/><line class="cls-4" x1="116.45" y1="17.59" x2="111.72" y2="12.86"/><line class="cls-4" x1="109.44" y1="10.58" x2="108.32" y2="9.46"/><line class="cls-4" x1="139.87" y1="16.66" x2="133.03" y2="9.8"/><line class="cls-4" x1="130.73" y1="7.53" x2="123.9" y2="0.67"/><line class="cls-4" x1="165.15" y1="17.59" x2="163.46" y2="15.91"/><line class="cls-4" x1="161.18" y1="13.61" x2="154.33" y2="6.77"/><line class="cls-4" x1="152.05" y1="4.47" x2="147.93" y2="0.38"/><line class="cls-4" x1="189.49" y1="17.59" x2="184.75" y2="12.86"/><line class="cls-4" x1="182.48" y1="10.58" x2="175.62" y2="3.72"/><line class="cls-4" x1="173.34" y1="1.45" x2="172.27" y2="0.38"/><line class="cls-4" x1="212.9" y1="16.66" x2="206.07" y2="9.8"/><line class="cls-4" x1="203.79" y1="7.53" x2="196.94" y2="0.67"/><line class="cls-4" x1="238.18" y1="17.59" x2="236.5" y2="15.91"/><line class="cls-4" x1="234.22" y1="13.61" x2="227.36" y2="6.77"/><line class="cls-4" x1="225.09" y1="4.47" x2="220.97" y2="0.38"/><line class="cls-4" x1="262.53" y1="17.59" x2="257.79" y2="12.86"/><line class="cls-4" x1="255.51" y1="10.58" x2="248.68" y2="3.72"/><line class="cls-4" x1="246.38" y1="1.45" x2="245.31" y2="0.38"/><line class="cls-4" x1="276.17" y1="6.89" x2="269.97" y2="0.67"/><polyline class="cls-4" points="0.74 0.38 0.74 7.25 0.74 17.59"/><polyline class="cls-4" points="17.93 0.38 17.93 7.25 17.93 17.59"/><polyline class="cls-4" points="108.32 0.38 108.32 7.25 108.32 17.59"/><line class="cls-4" x1="276.17" y1="0.38" x2="170.29" y2="0.38"/><line class="cls-4" x1="211.62" y1="0.38" x2="108.32" y2="0.38"/><line class="cls-4" x1="108.32" y1="17.59" x2="276.17" y2="17.59"/><line class="cls-4" x1="0.38" y1="0.38" x2="0.4" y2="0.38"/><line class="cls-4" x1="0.47" y1="0.38" x2="0.49" y2="0.38"/><line class="cls-4" x1="0.56" y1="0.38" x2="0.74" y2="0.38"/><line class="cls-4" x1="0.47" y1="17.59" x2="0.49" y2="17.59"/><line class="cls-4" x1="0.56" y1="17.59" x2="0.74" y2="17.59"/><polyline class="cls-4" points="0.74 17.59 0.74 7.25 0.74 0.38 0.74 7.25"/><line class="cls-4" x1="108.32" y1="0.38" x2="108.14" y2="0.38"/><line class="cls-4" x1="108.07" y1="0.38" x2="108.05" y2="0.38"/><line class="cls-4" x1="108.01" y1="0.38" x2="107.96" y2="0.38"/><line class="cls-4" x1="107.91" y1="0.38" x2="107.64" y2="0.38"/><line class="cls-4" x1="107.6" y1="0.38" x2="107.57" y2="0.38"/><line class="cls-4" x1="107.5" y1="0.38" x2="107.48" y2="0.38"/><line class="cls-4" x1="107.41" y1="0.38" x2="107.16" y2="0.38"/><line class="cls-4" x1="107.09" y1="0.38" x2="107.07" y2="0.38"/><line class="cls-4" x1="107" y1="0.38" x2="106.98" y2="0.38"/><line class="cls-4" x1="106.94" y1="0.38" x2="106.66" y2="0.38"/><line class="cls-4" x1="106.62" y1="0.38" x2="106.59" y2="0.38"/><line class="cls-4" x1="106.53" y1="0.38" x2="106.5" y2="0.38"/><line class="cls-4" x1="106.43" y1="0.38" x2="106.18" y2="0.38"/><line class="cls-4" x1="106.12" y1="0.38" x2="106.09" y2="0.38"/><line class="cls-4" x1="106.02" y1="0.38" x2="106" y2="0.38"/><line class="cls-4" x1="105.96" y1="0.38" x2="105.68" y2="0.38"/><line class="cls-4" x1="105.64" y1="0.38" x2="105.61" y2="0.38"/><line class="cls-4" x1="105.55" y1="0.38" x2="105.52" y2="0.38"/><line class="cls-4" x1="105.45" y1="0.38" x2="105.2" y2="0.38"/><line class="cls-4" x1="105.14" y1="0.38" x2="105.11" y2="0.38"/><line class="cls-4" x1="105.04" y1="0.38" x2="105.02" y2="0.38"/><line class="cls-4" x1="104.98" y1="0.38" x2="104.7" y2="0.38"/><line class="cls-4" x1="104.66" y1="0.38" x2="104.61" y2="0.38"/><line class="cls-4" x1="104.57" y1="0.38" x2="104.54" y2="0.38"/><line class="cls-4" x1="25.65" y1="0.38" x2="25.63" y2="0.38"/><line class="cls-4" x1="25.56" y1="0.38" x2="25.54" y2="0.38"/><line class="cls-4" x1="25.49" y1="0.38" x2="25.22" y2="0.38"/><line class="cls-4" x1="25.18" y1="0.38" x2="25.13" y2="0.38"/><line class="cls-4" x1="25.08" y1="0.38" x2="25.06" y2="0.38"/><line class="cls-4" x1="24.99" y1="0.38" x2="24.74" y2="0.38"/><line class="cls-4" x1="24.67" y1="0.38" x2="24.65" y2="0.38"/><line class="cls-4" x1="24.58" y1="0.38" x2="24.56" y2="0.38"/><line class="cls-4" x1="24.49" y1="0.38" x2="24.24" y2="0.38"/><line class="cls-4" x1="24.17" y1="0.38" x2="24.15" y2="0.38"/><line class="cls-4" x1="24.11" y1="0.38" x2="24.08" y2="0.38"/><line class="cls-4" x1="24.01" y1="0.38" x2="23.76" y2="0.38"/><line class="cls-4" x1="23.7" y1="0.38" x2="23.67" y2="0.38"/><line class="cls-4" x1="23.6" y1="0.38" x2="23.58" y2="0.38"/><line class="cls-4" x1="23.51" y1="0.38" x2="23.26" y2="0.38"/><line class="cls-4" x1="23.19" y1="0.38" x2="23.17" y2="0.38"/><line class="cls-4" x1="23.13" y1="0.38" x2="23.08" y2="0.38"/><line class="cls-4" x1="23.04" y1="0.38" x2="22.76" y2="0.38"/><line class="cls-4" x1="22.72" y1="0.38" x2="22.69" y2="0.38"/><line class="cls-4" x1="22.63" y1="0.38" x2="22.6" y2="0.38"/><line class="cls-4" x1="22.53" y1="0.38" x2="22.28" y2="0.38"/><line class="cls-4" x1="22.22" y1="0.38" x2="22.19" y2="0.38"/><line class="cls-4" x1="22.12" y1="0.38" x2="22.1" y2="0.38"/><line class="cls-4" x1="22.06" y1="0.38" x2="21.78" y2="0.38"/><line class="cls-4" x1="21.74" y1="0.38" x2="21.71" y2="0.38"/><line class="cls-4" x1="21.65" y1="0.38" x2="21.62" y2="0.38"/><line class="cls-4" x1="21.56" y1="0.38" x2="21.3" y2="0.38"/><line class="cls-4" x1="21.24" y1="0.38" x2="21.21" y2="0.38"/><line class="cls-4" x1="21.15" y1="0.38" x2="21.12" y2="0.38"/><line class="cls-4" x1="21.08" y1="0.38" x2="20.8" y2="0.38"/><line class="cls-4" x1="20.76" y1="0.38" x2="20.74" y2="0.38"/><line class="cls-4" x1="20.67" y1="0.38" x2="20.64" y2="0.38"/><line class="cls-4" x1="20.58" y1="0.38" x2="20.33" y2="0.38"/><line class="cls-4" x1="20.26" y1="0.38" x2="20.23" y2="0.38"/><line class="cls-4" x1="20.17" y1="0.38" x2="20.14" y2="0.38"/><line class="cls-4" x1="20.1" y1="0.38" x2="19.82" y2="0.38"/><line class="cls-4" x1="19.78" y1="0.38" x2="19.73" y2="0.38"/><line class="cls-4" x1="19.69" y1="0.38" x2="19.66" y2="0.38"/><line class="cls-4" x1="19.6" y1="0.38" x2="19.35" y2="0.38"/><line class="cls-4" x1="19.28" y1="0.38" x2="19.25" y2="0.38"/><line class="cls-4" x1="19.19" y1="0.38" x2="19.16" y2="0.38"/><line class="cls-4" x1="19.1" y1="0.38" x2="18.84" y2="0.38"/><line class="cls-4" x1="18.78" y1="0.38" x2="18.75" y2="0.38"/><line class="cls-4" x1="18.71" y1="0.38" x2="18.69" y2="0.38"/><line class="cls-4" x1="18.62" y1="0.38" x2="18.37" y2="0.38"/><line class="cls-4" x1="18.3" y1="0.38" x2="18.28" y2="0.38"/><line class="cls-4" x1="18.21" y1="0.38" x2="18.18" y2="0.38"/><line class="cls-4" x1="18.12" y1="0.38" x2="17.93" y2="0.38"/><line class="cls-4" x1="108.32" y1="17.59" x2="108.14" y2="17.59"/><line class="cls-4" x1="108.07" y1="17.59" x2="108.05" y2="17.59"/><line class="cls-4" x1="18.12" y1="17.59" x2="17.93" y2="17.59"/><path class="cls-4" d="M25.71,86.44a79.2,79.2,0,0,0,79.2-79.2" transform="translate(0)"/><line class="cls-4" x1="22.24" y1="7.25" x2="17.93" y2="7.25"/><polyline class="cls-4" points="22.24 0.38 17.93 0.38 17.93 7.25"/><polyline class="cls-4" points="108.32 0.38 104.89 0.38 104.89 7.25 108.32 7.25 108.32 0.38"/><polyline class="cls-4" points="22.24 7.25 25.7 7.25 25.7 0.38 22.24 0.38 22.24 7.25"/><line class="cls-4" x1="25.7" y1="7.25" x2="25.7" y2="86.44"/><polyline class="cls-4" points="108.32 17.59 108.32 7.25 108.32 0.38 108.32 7.25"/><polyline class="cls-4" points="17.93 17.59 17.93 7.25 17.93 0.38 17.93 7.25"/><line class="cls-4" x1="217.64" y1="197.58" x2="222.88" y2="192.32"/><line class="cls-4" x1="217.64" y1="203.66" x2="224.52" y2="196.76"/><line class="cls-4" x1="217.64" y1="209.74" x2="224.52" y2="202.86"/><line class="cls-4" x1="217.64" y1="215.82" x2="224.52" y2="208.94"/><line class="cls-4" x1="217.64" y1="221.92" x2="224.52" y2="215.02"/><line class="cls-4" x1="217.64" y1="228" x2="224.52" y2="221.12"/><line class="cls-4" x1="217.64" y1="234.08" x2="224.52" y2="227.21"/><line class="cls-4" x1="218.14" y1="239.66" x2="224.52" y2="233.29"/><line class="cls-4" x1="224.24" y1="239.66" x2="224.52" y2="239.37"/><line class="cls-4" x1="217.64" y1="192.32" x2="217.64" y2="239.66"/><line class="cls-4" x1="224.52" y1="239.66" x2="224.52" y2="192.32"/><line class="cls-4" x1="17.93" y1="245.11" x2="23.38" y2="239.66"/><line class="cls-4" x1="22.58" y1="246.54" x2="26.54" y2="242.58"/><line class="cls-4" x1="104.02" y1="244.24" x2="108.6" y2="239.66"/><line class="cls-4" x1="107.8" y1="246.54" x2="114.68" y2="239.66"/><line class="cls-4" x1="113.88" y1="246.54" x2="120.76" y2="239.66"/><line class="cls-4" x1="119.96" y1="246.54" x2="126.86" y2="239.66"/><line class="cls-4" x1="126.07" y1="246.54" x2="132.94" y2="239.66"/><line class="cls-4" x1="132.15" y1="246.54" x2="139.02" y2="239.66"/><line class="cls-4" x1="138.23" y1="246.54" x2="145.1" y2="239.66"/><line class="cls-4" x1="144.31" y1="246.54" x2="151.21" y2="239.66"/><line class="cls-4" x1="150.41" y1="246.54" x2="157.29" y2="239.66"/><line class="cls-4" x1="156.49" y1="246.54" x2="163.37" y2="239.66"/><line class="cls-4" x1="162.57" y1="246.54" x2="169.45" y2="239.66"/><line class="cls-4" x1="168.65" y1="246.54" x2="175.55" y2="239.66"/><line class="cls-4" x1="174.76" y1="246.54" x2="181.63" y2="239.66"/><line class="cls-4" x1="180.84" y1="246.54" x2="187.71" y2="239.66"/><line class="cls-4" x1="186.92" y1="246.54" x2="193.8" y2="239.66"/><line class="cls-4" x1="193" y1="246.54" x2="199.9" y2="239.66"/><line class="cls-4" x1="199.1" y1="246.54" x2="205.98" y2="239.66"/><line class="cls-4" x1="205.18" y1="246.54" x2="212.06" y2="239.66"/><line class="cls-4" x1="211.26" y1="246.54" x2="218.14" y2="239.66"/><line class="cls-4" x1="217.34" y1="246.54" x2="224.24" y2="239.66"/><line class="cls-4" x1="223.45" y1="246.54" x2="230.33" y2="239.66"/><line class="cls-4" x1="229.53" y1="246.54" x2="236.41" y2="239.66"/><line class="cls-4" x1="235.61" y1="246.54" x2="242.49" y2="239.66"/><line class="cls-4" x1="241.69" y1="246.54" x2="248.59" y2="239.66"/><line class="cls-4" x1="247.79" y1="246.54" x2="254.67" y2="239.66"/><line class="cls-4" x1="253.87" y1="246.54" x2="260.75" y2="239.66"/><line class="cls-4" x1="259.95" y1="246.54" x2="266.83" y2="239.66"/><line class="cls-4" x1="266.03" y1="246.54" x2="272.94" y2="239.66"/><line class="cls-4" x1="272.14" y1="246.54" x2="276.17" y2="242.51"/><line class="cls-4" x1="26.54" y1="246.54" x2="26.54" y2="239.66"/><line class="cls-4" x1="104.02" y1="246.54" x2="104.02" y2="239.66"/><line class="cls-4" x1="17.93" y1="246.54" x2="26.54" y2="246.54"/><line class="cls-4" x1="104.02" y1="246.54" x2="264.99" y2="246.54"/><line class="cls-4" x1="271.87" y1="246.54" x2="276.17" y2="246.54"/><line class="cls-4" x1="276.17" y1="239.66" x2="224.52" y2="239.66"/><line class="cls-4" x1="217.64" y1="239.66" x2="116.93" y2="239.66"/><line class="cls-4" x1="110.06" y1="239.66" x2="104.02" y2="239.66"/><line class="cls-4" x1="26.54" y1="239.66" x2="17.93" y2="239.66"/><line class="cls-4" x1="104.02" y1="246.54" x2="103.68" y2="246.54"/><line class="cls-4" x1="103.61" y1="246.54" x2="103.59" y2="246.54"/><line class="cls-4" x1="26.91" y1="246.54" x2="26.54" y2="246.54"/><line class="cls-4" x1="104.02" y1="239.66" x2="103.68" y2="239.66"/><line class="cls-4" x1="103.61" y1="239.66" x2="103.59" y2="239.66"/><line class="cls-4" x1="26.91" y1="239.66" x2="26.54" y2="239.66"/><line class="cls-4" x1="110.06" y1="86.05" x2="115.68" y2="80.43"/><line class="cls-4" x1="110.06" y1="92.13" x2="116.93" y2="85.25"/><line class="cls-4" x1="110.62" y1="97.64" x2="116.93" y2="91.33"/><line class="cls-4" x1="116.73" y1="97.64" x2="116.93" y2="97.42"/><line class="cls-4" x1="110.06" y1="159.09" x2="111.24" y2="157.88"/><line class="cls-4" x1="110.06" y1="165.17" x2="116.93" y2="158.29"/><line class="cls-4" x1="110.06" y1="171.25" x2="116.93" y2="164.37"/><line class="cls-4" x1="110.06" y1="177.35" x2="116.93" y2="170.45"/><line class="cls-4" x1="110.06" y1="183.43" x2="116.93" y2="176.56"/><line class="cls-4" x1="110.06" y1="189.51" x2="116.93" y2="182.64"/><line class="cls-4" x1="110.06" y1="195.59" x2="116.93" y2="188.72"/><line class="cls-4" x1="110.06" y1="201.7" x2="116.93" y2="194.8"/><line class="cls-4" x1="110.06" y1="207.78" x2="116.93" y2="200.9"/><line class="cls-4" x1="110.06" y1="213.86" x2="116.93" y2="206.98"/><line class="cls-4" x1="110.06" y1="219.94" x2="116.93" y2="213.06"/><line class="cls-4" x1="110.06" y1="226.04" x2="116.93" y2="219.14"/><line class="cls-4" x1="110.06" y1="232.12" x2="116.93" y2="225.25"/><line class="cls-4" x1="110.06" y1="238.2" x2="116.93" y2="231.33"/><line class="cls-4" x1="114.68" y1="239.66" x2="116.93" y2="237.41"/><line class="cls-4" x1="110.06" y1="73.87" x2="110.21" y2="73.71"/><line class="cls-4" x1="110.06" y1="79.97" x2="113.27" y2="76.74"/><line class="cls-4" x1="115.68" y1="80.43" x2="116.3" y2="79.79"/><line class="cls-4" x1="116.93" y1="97.64" x2="110.06" y2="97.64"/><line class="cls-4" x1="116.93" y1="157.88" x2="110.06" y2="157.88"/><line class="cls-4" x1="116.93" y1="239.66" x2="116.93" y2="192.32"/><line class="cls-4" x1="116.93" y1="185.44" x2="116.93" y2="157.88"/><line class="cls-4" x1="116.93" y1="97.64" x2="116.93" y2="80.43"/><line class="cls-4" x1="110.06" y1="73.53" x2="110.06" y2="97.64"/><line class="cls-4" x1="110.06" y1="157.88" x2="110.06" y2="239.66"/><line class="cls-4" x1="110.06" y1="98.14" x2="110.06" y2="98.1"/><line class="cls-4" x1="110.06" y1="98.05" x2="110.06" y2="98.03"/><line class="cls-4" x1="110.06" y1="97.96" x2="110.06" y2="97.64"/><line class="cls-4" x1="116.93" y1="98.14" x2="116.93" y2="98.1"/><line class="cls-4" x1="116.93" y1="98.05" x2="116.93" y2="98.03"/><line class="cls-4" x1="116.93" y1="97.96" x2="116.93" y2="97.64"/><line class="cls-4" x1="116.93" y1="188.72" x2="120.21" y2="185.44"/><line class="cls-4" x1="119.42" y1="192.32" x2="126.29" y2="185.44"/><line class="cls-4" x1="125.5" y1="192.32" x2="132.4" y2="185.44"/><line class="cls-4" x1="131.6" y1="192.32" x2="138.48" y2="185.44"/><line class="cls-4" x1="137.68" y1="192.32" x2="144.56" y2="185.44"/><line class="cls-4" x1="143.76" y1="192.32" x2="150.64" y2="185.44"/><line class="cls-4" x1="149.84" y1="192.32" x2="156.74" y2="185.44"/><line class="cls-4" x1="155.94" y1="192.32" x2="162.82" y2="185.44"/><line class="cls-4" x1="162.03" y1="192.32" x2="168.9" y2="185.44"/><line class="cls-4" x1="168.11" y1="192.32" x2="174.98" y2="185.44"/><line class="cls-4" x1="174.19" y1="192.32" x2="181.09" y2="185.44"/><line class="cls-4" x1="180.29" y1="192.32" x2="187.17" y2="185.44"/><line class="cls-4" x1="186.37" y1="192.32" x2="193.25" y2="185.44"/><line class="cls-4" x1="192.45" y1="192.32" x2="199.35" y2="185.44"/><line class="cls-4" x1="198.53" y1="192.32" x2="205.43" y2="185.44"/><line class="cls-4" x1="204.64" y1="192.32" x2="211.51" y2="185.44"/><line class="cls-4" x1="210.72" y1="192.32" x2="217.59" y2="185.44"/><line class="cls-4" x1="216.8" y1="192.32" x2="223.7" y2="185.44"/><line class="cls-4" x1="222.88" y1="192.32" x2="224.52" y2="190.68"/><line class="cls-4" x1="258.95" y1="186.69" x2="260.2" y2="185.44"/><line class="cls-4" x1="259.41" y1="192.32" x2="266.29" y2="185.44"/><line class="cls-4" x1="265.49" y1="192.32" x2="272.39" y2="185.44"/><line class="cls-4" x1="271.57" y1="192.32" x2="276.17" y2="187.74"/><polyline class="cls-4" points="258.95 185.44 258.95 188.88 258.95 192.31"/><polyline class="cls-4" points="224.52 185.44 224.52 188.88 224.52 192.31"/><line class="cls-4" x1="276.17" y1="185.44" x2="271.87" y2="185.44"/><line class="cls-4" x1="264.99" y1="185.44" x2="258.95" y2="185.44"/><line class="cls-4" x1="224.52" y1="185.44" x2="116.93" y2="185.44"/><line class="cls-4" x1="116.93" y1="192.32" x2="217.64" y2="192.32"/><polyline class="cls-4" points="258.95 192.31 276.17 192.31 276.17 185.44"/><line class="cls-4" x1="224.52" y1="185.44" x2="258.95" y2="185.44"/><line class="cls-4" x1="224.52" y1="192.32" x2="258.95" y2="192.32"/><path class="cls-4" d="M226.62,173.65a34.32,34.32,0,0,0-2.08,11.78" transform="translate(0)"/><line class="cls-4" x1="258.95" y1="185.44" x2="226.61" y2="173.66"/><polyline class="cls-4" points="224.52 192.31 224.52 188.88 224.52 185.44 224.52 188.88"/><polyline class="cls-4" points="258.95 192.31 258.95 188.88 258.95 185.44 258.95 188.88"/><line class="cls-4" x1="110.21" y1="73.71" x2="110.4" y2="73.53"/><line class="cls-4" x1="113.27" y1="76.74" x2="116.48" y2="73.53"/><line class="cls-4" x1="116.3" y1="79.79" x2="116.93" y2="79.17"/><line class="cls-4" x1="116.93" y1="79.17" x2="122.56" y2="73.53"/><line class="cls-4" x1="121.76" y1="80.43" x2="128.64" y2="73.53"/><line class="cls-4" x1="127.84" y1="80.43" x2="134.74" y2="73.53"/><line class="cls-4" x1="133.92" y1="80.43" x2="140.82" y2="73.53"/><line class="cls-4" x1="140.03" y1="80.43" x2="146.9" y2="73.53"/><line class="cls-4" x1="146.11" y1="80.43" x2="152.98" y2="73.53"/><line class="cls-4" x1="152.19" y1="80.43" x2="159.09" y2="73.53"/><line class="cls-4" x1="158.27" y1="80.43" x2="165.17" y2="73.53"/><line class="cls-4" x1="164.37" y1="80.43" x2="165.99" y2="78.79"/><line class="cls-4" x1="165.99" y1="78.79" x2="168.63" y2="76.17"/><line class="cls-4" x1="170.45" y1="80.43" x2="171.66" y2="79.2"/><line class="cls-4" x1="116.93" y1="80.43" x2="172.89" y2="80.43"/><polyline class="cls-4" points="110.06 73.53 116.93 73.53 165.99 73.53"/><line class="cls-4" x1="168.63" y1="76.17" x2="171.25" y2="73.53"/><line class="cls-4" x1="171.66" y1="79.2" x2="172.89" y2="77.99"/><line class="cls-4" x1="165.99" y1="17.93" x2="166.33" y2="17.59"/><line class="cls-4" x1="165.99" y1="24.01" x2="172.41" y2="17.59"/><line class="cls-4" x1="165.99" y1="30.1" x2="172.89" y2="23.22"/><line class="cls-4" x1="165.99" y1="36.18" x2="172.89" y2="29.3"/><line class="cls-4" x1="165.99" y1="42.28" x2="172.89" y2="35.38"/><line class="cls-4" x1="165.99" y1="48.36" x2="172.89" y2="41.48"/><line class="cls-4" x1="165.99" y1="54.44" x2="172.89" y2="47.56"/><line class="cls-4" x1="165.99" y1="60.52" x2="172.89" y2="53.64"/><line class="cls-4" x1="165.99" y1="66.62" x2="172.89" y2="59.72"/><line class="cls-4" x1="165.99" y1="72.71" x2="172.89" y2="65.83"/><line class="cls-4" x1="171.25" y1="73.53" x2="172.89" y2="71.91"/><polyline class="cls-4" points="172.89 80.43 172.89 73.53 172.89 17.59 165.99 17.59 165.99 73.53"/><line class="cls-4" x1="264.99" y1="22.42" x2="269.82" y2="17.59"/><line class="cls-4" x1="264.99" y1="28.5" x2="271.87" y2="21.6"/><line class="cls-4" x1="264.99" y1="34.58" x2="271.87" y2="27.7"/><line class="cls-4" x1="264.99" y1="40.66" x2="271.87" y2="33.78"/><line class="cls-4" x1="264.99" y1="46.77" x2="271.87" y2="39.87"/><line class="cls-4" x1="264.99" y1="52.85" x2="271.87" y2="45.95"/><line class="cls-4" x1="264.99" y1="58.93" x2="271.87" y2="52.05"/><line class="cls-4" x1="264.99" y1="65.01" x2="271.87" y2="58.13"/><line class="cls-4" x1="264.99" y1="71.11" x2="271.87" y2="64.21"/><line class="cls-4" x1="264.99" y1="77.19" x2="271.87" y2="70.29"/><line class="cls-4" x1="264.99" y1="83.27" x2="271.87" y2="76.39"/><line class="cls-4" x1="264.99" y1="89.35" x2="271.87" y2="82.48"/><line class="cls-4" x1="264.99" y1="95.46" x2="271.87" y2="88.56"/><line class="cls-4" x1="264.99" y1="101.54" x2="271.87" y2="94.64"/><line class="cls-4" x1="264.99" y1="107.62" x2="271.87" y2="100.74"/><line class="cls-4" x1="264.99" y1="113.7" x2="271.87" y2="106.82"/><line class="cls-4" x1="264.99" y1="119.8" x2="271.87" y2="112.9"/><line class="cls-4" x1="264.99" y1="125.88" x2="271.87" y2="118.98"/><line class="cls-4" x1="264.99" y1="131.96" x2="271.87" y2="125.09"/><line class="cls-4" x1="264.99" y1="138.04" x2="271.87" y2="131.17"/><line class="cls-4" x1="264.99" y1="144.15" x2="271.87" y2="137.25"/><line class="cls-4" x1="264.99" y1="150.23" x2="271.87" y2="143.33"/><line class="cls-4" x1="264.99" y1="156.31" x2="271.87" y2="149.43"/><line class="cls-4" x1="264.99" y1="162.39" x2="271.87" y2="155.51"/><line class="cls-4" x1="264.99" y1="168.49" x2="271.87" y2="161.59"/><line class="cls-4" x1="264.99" y1="174.57" x2="271.87" y2="167.7"/><line class="cls-4" x1="264.99" y1="180.65" x2="271.87" y2="173.78"/><line class="cls-4" x1="266.29" y1="185.44" x2="271.87" y2="179.86"/><line class="cls-4" x1="264.99" y1="17.59" x2="264.99" y2="185.44"/><polyline class="cls-4" points="271.87 185.44 271.87 17.59 264.99 17.59"/><line class="cls-4" x1="264.99" y1="246.54" x2="271.87" y2="246.54"/><line class="cls-4" x1="242.6" y1="32.92" x2="242.6" y2="37.82"/><line class="cls-4" x1="244.74" y1="39.96" x2="249.64" y2="39.96"/><line class="cls-4" x1="242.6" y1="42.1" x2="242.6" y2="47.02"/><line class="cls-4" x1="235.56" y1="39.96" x2="240.46" y2="39.96"/><line class="cls-4" x1="189.24" y1="25.34" x2="189.24" y2="45.99"/><line class="cls-4" x1="258.09" y1="45.15" x2="258.09" y2="92.47"/><line class="cls-4" x1="236.57" y1="93.34" x2="257.24" y2="93.34"/><line class="cls-4" x1="189.24" y1="25.34" x2="189.24" y2="45.99"/><line class="cls-4" x1="190.11" y1="24.47" x2="237.41" y2="24.47"/><line class="cls-4" x1="184.94" y1="21.03" x2="184.94" y2="45.99"/><line class="cls-4" x1="262.39" y1="21.03" x2="262.39" y2="96.78"/><line class="cls-4" x1="236.57" y1="97.64" x2="261.55" y2="97.64"/><line class="cls-4" x1="185.8" y1="20.17" x2="261.55" y2="20.17"/><path class="cls-4" d="M238.78,24.69a4.5,4.5,0,0,0-1.36-.22" transform="translate(0)"/><path class="cls-4" d="M190.12,24.47a.86.86,0,0,0-.86.85" transform="translate(0)"/><path class="cls-4" d="M238.78,24.69a4.5,4.5,0,0,0-1.36-.22" transform="translate(0)"/><path class="cls-4" d="M184.94,46a51.64,51.64,0,0,0,51.64,51.64" transform="translate(0)"/><path class="cls-4" d="M185.81,20.17A.85.85,0,0,0,185,21" transform="translate(0)"/><path class="cls-4" d="M189.24,46a47.34,47.34,0,0,0,47.34,47.34" transform="translate(0)"/><path class="cls-4" d="M261.56,97.62a.85.85,0,0,0,.85-.85" transform="translate(0)"/><path class="cls-4" d="M257.26,93.32a.86.86,0,0,0,.85-.86" transform="translate(0)"/><path class="cls-4" d="M262.41,21a.85.85,0,0,0-.85-.85" transform="translate(0)"/><path class="cls-4" d="M258,44.31a46.45,46.45,0,0,0-19.78-19.78" transform="translate(0)"/><path class="cls-4" d="M258.09,45.14a4.24,4.24,0,0,0-.23-1.37" transform="translate(0)"/><path class="cls-4" d="M257.88,43.78a30.31,30.31,0,0,0-19.1-19.11" transform="translate(0)"/><path class="cls-4" d="M258.09,45.14a4.24,4.24,0,0,0-.23-1.37" transform="translate(0)"/><path class="cls-4" d="M246.49,40a3.88,3.88,0,1,0-3.88,3.88A3.88,3.88,0,0,0,246.49,40" transform="translate(0)"/><path class="cls-4" d="M248,40a5.43,5.43,0,1,0-5.43,5.43A5.44,5.44,0,0,0,248,40" transform="translate(0)"/><line class="cls-4" x1="271.87" y1="250.84" x2="271.87" y2="298.19"/><line class="cls-4" x1="224.52" y1="250.84" x2="271.87" y2="250.84"/><line class="cls-4" x1="224.52" y1="298.19" x2="224.52" y2="250.84"/><line class="cls-4" x1="271.87" y1="298.19" x2="224.52" y2="298.19"/><line class="cls-4" x1="267.56" y1="293.89" x2="228.82" y2="293.89"/><line class="cls-4" x1="228.82" y1="293.89" x2="228.82" y2="259.45"/><line class="cls-4" x1="228.82" y1="259.45" x2="267.56" y2="259.45"/><line class="cls-4" x1="267.56" y1="259.45" x2="267.56" y2="293.89"/><line class="cls-4" x1="249.16" y1="161.75" x2="218.78" y2="161.75"/><line class="cls-4" x1="262.39" y1="163.05" x2="262.39" y2="130.35"/><line class="cls-4" x1="262.39" y1="163.05" x2="251" y2="163.05"/><line class="cls-4" x1="243.83" y1="146.7" x2="243.83" y2="134.56"/><line class="cls-4" x1="218.82" y1="161.75" x2="243.83" y2="158.84"/><line class="cls-4" x1="243.83" y1="146.7" x2="243.83" y2="158.84"/><line class="cls-4" x1="218.82" y1="131.64" x2="243.83" y2="134.56"/><line class="cls-4" x1="218.82" y1="160.98" x2="243.83" y2="158.06"/><line class="cls-4" x1="218.82" y1="132.42" x2="243.83" y2="135.33"/><line class="cls-4" x1="249.18" y1="131.64" x2="218.78" y2="131.64"/><line class="cls-4" x1="262.39" y1="130.35" x2="251" y2="130.35"/><line class="cls-4" x1="218.82" y1="161.75" x2="215.45" y2="161.32"/><line class="cls-4" x1="215.45" y1="161.32" x2="212.27" y2="160.04"/><line class="cls-4" x1="212.27" y1="160.04" x2="209.49" y2="157.99"/><line class="cls-4" x1="209.49" y1="157.99" x2="207.23" y2="155.26"/><line class="cls-4" x1="207.23" y1="155.26" x2="205.64" y2="152.05"/><line class="cls-4" x1="205.64" y1="152.05" x2="204.84" y2="148.52"/><line class="cls-4" x1="204.84" y1="148.52" x2="204.84" y2="144.88"/><line class="cls-4" x1="204.84" y1="144.88" x2="205.64" y2="141.35"/><line class="cls-4" x1="205.64" y1="141.35" x2="207.23" y2="138.14"/><line class="cls-4" x1="207.23" y1="138.14" x2="209.49" y2="135.4"/><line class="cls-4" x1="209.49" y1="135.4" x2="212.27" y2="133.35"/><line class="cls-4" x1="212.27" y1="133.35" x2="215.45" y2="132.08"/><line class="cls-4" x1="215.45" y1="132.08" x2="218.82" y2="131.64"/><line class="cls-4" x1="218.82" y1="160.98" x2="215.64" y2="160.57"/><line class="cls-4" x1="215.64" y1="160.57" x2="212.63" y2="159.36"/><line class="cls-4" x1="212.63" y1="159.36" x2="209.99" y2="157.4"/><line class="cls-4" x1="209.99" y1="157.4" x2="207.87" y2="154.81"/><line class="cls-4" x1="207.87" y1="154.81" x2="206.37" y2="151.75"/><line class="cls-4" x1="206.37" y1="151.75" x2="205.59" y2="148.43"/><line class="cls-4" x1="205.59" y1="148.43" x2="205.59" y2="144.97"/><line class="cls-4" x1="205.59" y1="144.97" x2="206.37" y2="141.62"/><line class="cls-4" x1="206.37" y1="141.62" x2="207.87" y2="138.59"/><line class="cls-4" x1="207.87" y1="138.59" x2="209.99" y2="135.99"/><line class="cls-4" x1="209.99" y1="135.99" x2="212.63" y2="134.04"/><line class="cls-4" x1="212.63" y1="134.04" x2="215.64" y2="132.83"/><line class="cls-4" x1="215.64" y1="132.83" x2="218.82" y2="132.42"/><path class="cls-4" d="M249.09,132a138.73,138.73,0,0,0,0,29.31" transform="translate(0)"/><path class="cls-4" d="M249.1,161.36a1.92,1.92,0,0,0,1.92,1.69" transform="translate(0)"/><path class="cls-4" d="M251,130.32A1.92,1.92,0,0,0,249.1,132" transform="translate(0)"/><path class="cls-4" d="M256.81,146.69a1.61,1.61,0,1,0-1.6,1.58,1.6,1.6,0,0,0,1.6-1.58" transform="translate(0)"/><line class="cls-4" x1="159.98" y1="182.84" x2="121.24" y2="182.84"/><line class="cls-4" x1="121.24" y1="182.84" x2="121.24" y2="166.47"/><line class="cls-4" x1="159.98" y1="182.84" x2="159.98" y2="166.47"/><line class="cls-4" x1="134.49" y1="182.84" x2="146.7" y2="182.84"/><line class="cls-4" x1="137.34" y1="169.7" x2="139.41" y2="169.7"/><line class="cls-4" x1="140.62" y1="172.96" x2="140.62" y2="170.91"/><line class="cls-4" x1="141.8" y1="169.7" x2="143.87" y2="169.7"/><line class="cls-4" x1="140.62" y1="168.49" x2="140.62" y2="166.44"/><path class="cls-4" d="M150.91,173.61a17.26,17.26,0,0,0,6.7-8.17" transform="translate(0)"/><path class="cls-4" d="M140.61,176a17.22,17.22,0,0,0,10.29-2.42" transform="translate(0)"/><path class="cls-4" d="M123.63,165.44a17.21,17.21,0,0,0,6.7,8.17" transform="translate(0)"/><path class="cls-4" d="M130.32,173.6A17.18,17.18,0,0,0,140.6,176" transform="translate(0)"/><path class="cls-4" d="M153.73,156.66a31.94,31.94,0,0,0-11.76-3.2" transform="translate(0)"/><path class="cls-4" d="M124.92,158.34a9.84,9.84,0,0,0-3.67,8.1" transform="translate(0)"/><path class="cls-4" d="M142,153.46a20.42,20.42,0,0,0-2.71,0" transform="translate(0)"/><path class="cls-4" d="M129.77,173a70.36,70.36,0,0,0,21.68,0" transform="translate(0)"/><path class="cls-4" d="M122.24,163.92a24.33,24.33,0,0,0,5.5,15.83" transform="translate(0)"/><path class="cls-4" d="M129.53,180.84a48,48,0,0,0,11.08,1.2" transform="translate(0)"/><path class="cls-4" d="M127.75,179.74a3.2,3.2,0,0,0,1.78,1.11" transform="translate(0)"/><path class="cls-4" d="M129.69,179.75a81.52,81.52,0,0,0,10.93.79" transform="translate(0)"/><path class="cls-4" d="M122.26,163.91a21.89,21.89,0,0,0,5.47,14.76" transform="translate(0)"/><path class="cls-4" d="M127.71,178.68a3.28,3.28,0,0,0,2,1.06" transform="translate(0)"/><path class="cls-4" d="M153.49,178.69A21.87,21.87,0,0,0,159,163.94" transform="translate(0)"/><path class="cls-4" d="M153.46,179.75A24.35,24.35,0,0,0,159,163.93" transform="translate(0)"/><path class="cls-4" d="M140.6,180.54a83.15,83.15,0,0,0,10.92-.77" transform="translate(0)"/><path class="cls-4" d="M140.58,182a48.11,48.11,0,0,0,11.09-1.18" transform="translate(0)"/><path class="cls-4" d="M151.52,179.74a3.23,3.23,0,0,0,2-1.06" transform="translate(0)"/><path class="cls-4" d="M151.68,180.87a3.18,3.18,0,0,0,1.78-1.1" transform="translate(0)"/><path class="cls-4" d="M160,166.44a9.84,9.84,0,0,0-3.68-8.1" transform="translate(0)"/><path class="cls-4" d="M156.3,158.34a15.5,15.5,0,0,0-2.57-1.67" transform="translate(0)"/><path class="cls-4" d="M127.49,156.67a15.59,15.59,0,0,0-2.58,1.67" transform="translate(0)"/><path class="cls-4" d="M139.25,153.46a31.88,31.88,0,0,0-11.76,3.2" transform="translate(0)"/><path class="cls-4" d="M145.94,156.21a22.86,22.86,0,0,0-10.66,0" transform="translate(0)"/><path class="cls-4" d="M157.59,165.44a5.77,5.77,0,0,0-2-4.78" transform="translate(0)"/><path class="cls-4" d="M155.59,160.65a20.93,20.93,0,0,0-9.65-4.43" transform="translate(0)"/><path class="cls-4" d="M125.64,160.66a5.81,5.81,0,0,0-2,4.78" transform="translate(0)"/><path class="cls-4" d="M135.3,156.22a21,21,0,0,0-9.66,4.43" transform="translate(0)"/><path class="cls-4" d="M143.15,169.69a2.52,2.52,0,1,0-2.52,2.52,2.52,2.52,0,0,0,2.52-2.52" transform="translate(0)"/><path class="cls-4" d="M142.42,169.69a1.79,1.79,0,1,0-1.79,1.79,1.79,1.79,0,0,0,1.79-1.79" transform="translate(0)"/><polyline class="cls-4" points="154.37 640.35 153.94 640.35 153.94 687.67 154.37 687.67 154.37 640.35"/><polyline class="cls-4" points="152.64 689.41 152.64 688.97 73.46 688.97 73.46 689.41 152.64 689.41"/><polyline class="cls-4" points="71.75 687.67 72.18 687.67 72.18 640.35 71.75 640.35 71.75 687.67"/><polyline class="cls-4" points="154.81 638.19 152.64 638.19 152.64 640.35 154.81 640.35 154.81 638.19"/><polyline class="cls-4" points="154.81 687.67 152.64 687.67 152.64 689.84 154.81 689.84 154.81 687.67"/><polyline class="cls-4" points="73.46 689.84 73.46 687.67 71.32 687.67 71.32 689.84 73.46 689.84"/><polyline class="cls-4" points="71.32 640.35 73.46 640.35 73.46 638.19 71.32 638.19 71.32 640.35"/><line class="cls-4" x1="152.64" y1="639.26" x2="152.64" y2="687.67"/><line class="cls-4" x1="154.81" y1="689.84" x2="154.81" y2="639.26"/><line class="cls-4" x1="152.64" y1="687.67" x2="73.46" y2="687.67"/><line class="cls-4" x1="71.32" y1="689.84" x2="154.81" y2="689.84"/><line class="cls-4" x1="73.46" y1="687.67" x2="73.46" y2="639.26"/><line class="cls-4" x1="71.32" y1="639.26" x2="71.32" y2="689.84"/><polyline class="cls-4" points="154.81 639.26 154.81 638.19 152.64 638.19 152.64 639.26"/><polyline class="cls-4" points="73.46 639.26 73.46 638.19 71.32 638.19 71.32 639.26"/><polyline class="cls-4" points="71.32 689.84 154.81 689.84 154.81 639.26 152.64 639.26 152.64 687.67 73.46 687.67 73.46 639.26 71.32 639.26 71.32 689.84"/><polyline class="cls-4" points="75.62 674.35 150.5 674.35 150.5 646.79 75.62 646.79 75.62 674.35"/><polyline class="cls-4" points="75.62 671.6 150.5 671.6 150.5 646.79 75.62 646.79 75.62 671.6"/><line class="cls-4" x1="262.82" y1="638.19" x2="293.39" y2="638.19"/><line class="cls-4" x1="124.68" y1="246.54" x2="124.68" y2="246.61"/><line class="cls-4" x1="124.68" y1="246.65" x2="124.68" y2="246.72"/><line class="cls-4" x1="124.68" y1="246.77" x2="124.68" y2="246.84"/><line class="cls-4" x1="124.68" y1="246.88" x2="124.68" y2="246.95"/><line class="cls-4" x1="124.68" y1="247.02" x2="124.68" y2="247.09"/><line class="cls-4" x1="275.76" y1="349.84" x2="275.83" y2="349.84"/><line class="cls-4" x1="275.87" y1="349.84" x2="275.94" y2="349.84"/><line class="cls-4" x1="275.99" y1="349.84" x2="276.08" y2="349.84"/><line class="cls-4" x1="276.12" y1="349.84" x2="276.17" y2="349.84"/><line class="cls-4" x1="6.77" y1="638.19" x2="17.11" y2="627.87"/><line class="cls-4" x1="20.48" y1="638.19" x2="30.8" y2="627.87"/><line class="cls-4" x1="34.17" y1="638.19" x2="44.49" y2="627.87"/><line class="cls-4" x1="47.86" y1="638.19" x2="58.2" y2="627.87"/><line class="cls-4" x1="61.57" y1="638.19" x2="71.32" y2="628.44"/><line class="cls-4" x1="2.22" y1="638.19" x2="12.54" y2="627.87"/><line class="cls-4" x1="15.91" y1="638.19" x2="26.25" y2="627.87"/><line class="cls-4" x1="29.59" y1="638.19" x2="39.93" y2="627.87"/><line class="cls-4" x1="43.3" y1="638.19" x2="53.62" y2="627.87"/><line class="cls-4" x1="56.99" y1="638.19" x2="67.33" y2="627.87"/><line class="cls-4" x1="70.68" y1="638.19" x2="71.32" y2="637.57"/><line class="cls-4" x1="240.03" y1="637.75" x2="249.91" y2="627.87"/><line class="cls-4" x1="253.28" y1="638.19" x2="263.62" y2="627.87"/><line class="cls-4" x1="266.97" y1="638.19" x2="277.31" y2="627.87"/><line class="cls-4" x1="240.03" y1="633.2" x2="245.36" y2="627.87"/><line class="cls-4" x1="248.73" y1="638.19" x2="259.04" y2="627.87"/><line class="cls-4" x1="262.41" y1="638.19" x2="272.73" y2="627.87"/><line class="cls-4" x1="276.1" y1="638.19" x2="286.44" y2="627.87"/><line class="cls-4" x1="17.05" y1="627" x2="21.49" y2="622.56"/><line class="cls-4" x1="24.54" y1="619.51" x2="33.67" y2="610.4"/><line class="cls-4" x1="36.7" y1="607.35" x2="45.83" y2="598.22"/><line class="cls-4" x1="48.88" y1="595.17" x2="51.48" y2="592.57"/><line class="cls-4" x1="54.35" y1="625" x2="63.48" y2="615.87"/><line class="cls-4" x1="66.53" y1="612.82" x2="67.88" y2="611.5"/><line class="cls-4" x1="0.74" y1="625.66" x2="6.57" y2="619.83"/><line class="cls-4" x1="9.62" y1="616.78" x2="16.61" y2="609.79"/><line class="cls-4" x1="17.93" y1="608.47" x2="18.75" y2="607.65"/><line class="cls-4" x1="21.81" y1="604.62" x2="30.92" y2="595.49"/><line class="cls-4" x1="34.72" y1="627" x2="36.4" y2="625.3"/><line class="cls-4" x1="39.46" y1="622.27" x2="48.59" y2="613.14"/><line class="cls-4" x1="51.62" y1="610.08" x2="60.75" y2="600.95"/><line class="cls-4" x1="63.8" y1="597.92" x2="67.88" y2="593.85"/><line class="cls-4" x1="243.47" y1="612.41" x2="249.14" y2="606.74"/><line class="cls-4" x1="252.17" y1="603.71" x2="261.3" y2="594.57"/><line class="cls-4" x1="264.17" y1="627" x2="266.79" y2="624.39"/><line class="cls-4" x1="269.82" y1="621.36" x2="278.95" y2="612.22"/><line class="cls-4" x1="243.47" y1="594.76" x2="245.65" y2="592.57"/><line class="cls-4" x1="246.52" y1="627" x2="251.87" y2="621.65"/><line class="cls-4" x1="254.9" y1="618.6" x2="264.03" y2="609.49"/><line class="cls-4" x1="267.08" y1="606.44" x2="276.17" y2="597.35"/><line class="cls-4" x1="284.73" y1="624.09" x2="293.39" y2="614.96"/><line class="cls-4" x1="0.74" y1="627.87" x2="71.32" y2="627.87"/><line class="cls-4" x1="240.03" y1="627.87" x2="293.39" y2="627.87"/><line class="cls-4" x1="0.74" y1="627" x2="67.88" y2="627"/><line class="cls-4" x1="243.47" y1="627" x2="293.39" y2="627"/><line class="cls-4" x1="67.88" y1="621.83" x2="67.88" y2="592.57"/><line class="cls-4" x1="71.32" y1="627.87" x2="71.32" y2="627"/><line class="cls-4" x1="71.32" y1="638.19" x2="71.32" y2="627.87"/><line class="cls-4" x1="71.32" y1="627" x2="67.88" y2="627"/><line class="cls-4" x1="67.88" y1="627" x2="67.88" y2="621.83"/><line class="cls-4" x1="243.47" y1="621.83" x2="243.47" y2="592.57"/><line class="cls-4" x1="240.03" y1="627.87" x2="240.03" y2="627"/><line class="cls-4" x1="240.03" y1="638.19" x2="240.03" y2="627.87"/><line class="cls-4" x1="240.03" y1="627" x2="243.47" y2="627"/><line class="cls-4" x1="243.47" y1="627" x2="243.47" y2="621.83"/><polyline class="cls-4" points="71.32 638.19 0.74 638.19 0.74 601.27"/><polyline class="cls-4" points="240.03 638.19 293.39 638.19 293.39 590.32"/><line class="cls-4" x1="276.17" y1="592.57" x2="243.47" y2="592.57"/><line class="cls-4" x1="67.88" y1="592.57" x2="17.93" y2="592.57"/><line class="cls-4" x1="240.03" y1="638.19" x2="71.32" y2="638.19"/><line class="cls-4" x1="243.47" y1="592.57" x2="67.88" y2="592.57"/><polyline class="cls-4" points="243.47 621.84 238.73 621.84 238.73 625.27 236.56 625.27 236.56 627 243.47 627"/><polyline class="cls-4" points="183.78 627 187.24 627 187.24 625.27 185.07 625.27 185.07 621.84 183.78 621.84"/><line class="cls-4" x1="187.24" y1="627" x2="236.57" y2="627"/><polyline class="cls-4" points="238.73 620.13 233.56 620.13 190.24 620.13"/><polyline class="cls-4" points="233.56 620.13 233.56 625.27 238.73 625.27 238.73 620.13"/><polyline class="cls-4" points="185.07 625.27 190.24 625.27 190.24 620.13 185.07 620.13 185.07 625.27"/><line class="cls-4" x1="190.24" y1="625.27" x2="233.56" y2="625.27"/><line class="cls-4" x1="233.56" y1="620.13" x2="190.24" y2="620.13"/><line class="cls-4" x1="233.56" y1="622.7" x2="190.24" y2="622.7"/><polyline class="cls-4" points="183.78 621.84 182.5 621.84 182.5 625.27 180.34 625.27 180.34 627 183.78 627"/><polyline class="cls-4" points="127.55 627 130.99 627 130.99 625.27 128.84 625.27 128.84 621.84 127.55 621.84"/><line class="cls-4" x1="130.98" y1="627" x2="180.34" y2="627"/><polyline class="cls-4" points="182.5 620.13 177.33 620.13 134.01 620.13"/><polyline class="cls-4" points="177.33 620.13 177.33 625.27 182.5 625.27 182.5 620.13"/><polyline class="cls-4" points="128.84 625.27 134.01 625.27 134.01 620.13 128.84 620.13 128.84 625.27"/><line class="cls-4" x1="134.01" y1="625.27" x2="177.33" y2="625.27"/><line class="cls-4" x1="177.33" y1="620.13" x2="134.01" y2="620.13"/><line class="cls-4" x1="177.33" y1="622.7" x2="134.01" y2="622.7"/><polyline class="cls-4" points="127.55 621.84 126.25 621.84 126.25 625.27 124.11 625.27 124.11 627 127.55 627"/><polyline class="cls-4" points="67.88 627 74.75 627 74.75 625.27 72.59 625.27 72.59 621.84 67.88 621.84"/><line class="cls-4" x1="74.76" y1="627" x2="124.11" y2="627"/><polyline class="cls-4" points="126.25 620.13 121.1 620.13 77.76 620.13"/><polyline class="cls-4" points="121.1 620.13 121.1 625.27 126.25 625.27 126.25 620.13"/><polyline class="cls-4" points="72.59 625.27 77.76 625.27 77.76 620.13 72.59 620.13 72.59 625.27"/><line class="cls-4" x1="77.76" y1="625.27" x2="121.1" y2="625.27"/><line class="cls-4" x1="121.1" y1="620.13" x2="77.76" y2="620.13"/><line class="cls-4" x1="121.1" y1="622.7" x2="77.76" y2="622.7"/><polyline class="cls-4" points="243.47 621.84 243.47 627 243.47 621.84"/><polyline class="cls-4" points="243.47 627 240.03 627 243.47 627"/><polyline class="cls-4" points="240.03 638.19 240.03 627.87 240.03 627"/><line class="cls-4" x1="243.47" y1="621.83" x2="243.47" y2="592.57"/><polyline class="cls-4" points="67.88 621.84 67.88 627 67.88 621.84"/><polyline class="cls-4" points="67.88 627 71.32 627 67.88 627"/><polyline class="cls-4" points="71.32 638.19 71.32 627.87 71.32 627"/><line class="cls-4" x1="67.88" y1="621.83" x2="67.88" y2="592.57"/><line class="cls-4" x1="0.74" y1="530.12" x2="7.14" y2="523.7"/><line class="cls-4" x1="0.74" y1="537.43" x2="14.45" y2="523.7"/><line class="cls-4" x1="0.74" y1="544.72" x2="17.93" y2="527.5"/><line class="cls-4" x1="0.74" y1="552.03" x2="17.93" y2="534.81"/><line class="cls-4" x1="0.74" y1="559.34" x2="17.93" y2="542.13"/><line class="cls-4" x1="0.74" y1="566.63" x2="17.93" y2="549.44"/><line class="cls-4" x1="0.74" y1="573.94" x2="17.93" y2="556.72"/><line class="cls-4" x1="0.74" y1="581.25" x2="17.93" y2="564.03"/><line class="cls-4" x1="0.74" y1="588.56" x2="17.93" y2="571.34"/><line class="cls-4" x1="0.74" y1="595.85" x2="17.93" y2="578.63"/><line class="cls-4" x1="0.74" y1="603.16" x2="17.93" y2="585.94"/><line class="cls-4" x1="1.4" y1="609.79" x2="17.93" y2="593.25"/><line class="cls-4" x1="8.71" y1="609.79" x2="17.93" y2="600.54"/><line class="cls-4" x1="16.02" y1="609.79" x2="17.93" y2="607.85"/><line class="cls-4" x1="0.74" y1="526.48" x2="0.81" y2="526.39"/><line class="cls-4" x1="1.72" y1="525.48" x2="1.72" y2="525.48"/><line class="cls-4" x1="2.63" y1="524.57" x2="3.5" y2="523.7"/><line class="cls-4" x1="0.81" y1="533.7" x2="0.81" y2="533.7"/><line class="cls-4" x1="1.72" y1="532.79" x2="4.45" y2="530.06"/><line class="cls-4" x1="5.36" y1="529.14" x2="5.36" y2="529.14"/><line class="cls-4" x1="6.27" y1="528.23" x2="9.01" y2="525.48"/><line class="cls-4" x1="9.92" y1="524.57" x2="9.92" y2="524.57"/><line class="cls-4" x1="0.81" y1="541.01" x2="3.54" y2="538.28"/><line class="cls-4" x1="4.45" y1="537.37" x2="4.45" y2="537.37"/><line class="cls-4" x1="5.36" y1="536.43" x2="8.1" y2="533.7"/><line class="cls-4" x1="9.01" y1="532.79" x2="9.01" y2="532.79"/><line class="cls-4" x1="9.92" y1="531.88" x2="12.67" y2="529.14"/><line class="cls-4" x1="13.58" y1="528.23" x2="13.58" y2="528.23"/><line class="cls-4" x1="14.5" y1="527.32" x2="17.23" y2="524.57"/><line class="cls-4" x1="0.74" y1="548.39" x2="2.63" y2="546.48"/><line class="cls-4" x1="3.54" y1="545.56" x2="3.54" y2="545.56"/><line class="cls-4" x1="4.45" y1="544.65" x2="7.18" y2="541.92"/><line class="cls-4" x1="8.1" y1="541.01" x2="8.1" y2="541.01"/><line class="cls-4" x1="9.01" y1="540.1" x2="11.76" y2="537.37"/><line class="cls-4" x1="12.67" y1="536.43" x2="12.67" y2="536.43"/><line class="cls-4" x1="13.58" y1="535.52" x2="16.32" y2="532.79"/><line class="cls-4" x1="17.23" y1="531.88" x2="17.23" y2="531.88"/><line class="cls-4" x1="0.74" y1="555.68" x2="1.72" y2="554.7"/><line class="cls-4" x1="2.63" y1="553.79" x2="2.63" y2="553.79"/><line class="cls-4" x1="3.54" y1="552.87" x2="6.27" y2="550.14"/><line class="cls-4" x1="7.18" y1="549.23" x2="7.18" y2="549.23"/><line class="cls-4" x1="8.1" y1="548.32" x2="10.85" y2="545.56"/><line class="cls-4" x1="11.76" y1="544.65" x2="11.76" y2="544.65"/><line class="cls-4" x1="12.67" y1="543.74" x2="15.41" y2="541.01"/><line class="cls-4" x1="16.32" y1="540.1" x2="16.32" y2="540.1"/><line class="cls-4" x1="17.23" y1="539.19" x2="17.93" y2="538.46"/><line class="cls-4" x1="0.74" y1="562.99" x2="0.81" y2="562.92"/><line class="cls-4" x1="1.72" y1="562.01" x2="1.72" y2="562.01"/><line class="cls-4" x1="2.63" y1="561.1" x2="5.36" y2="558.36"/><line class="cls-4" x1="6.27" y1="557.43" x2="6.27" y2="557.43"/><line class="cls-4" x1="7.18" y1="556.52" x2="9.92" y2="553.79"/><line class="cls-4" x1="10.85" y1="552.87" x2="10.85" y2="552.87"/><line class="cls-4" x1="11.76" y1="551.96" x2="14.5" y2="549.23"/><line class="cls-4" x1="15.41" y1="548.32" x2="15.41" y2="548.32"/><line class="cls-4" x1="16.32" y1="547.41" x2="17.93" y2="545.77"/><line class="cls-4" x1="0.81" y1="570.23" x2="0.81" y2="570.23"/><line class="cls-4" x1="1.72" y1="569.32" x2="4.45" y2="566.56"/><line class="cls-4" x1="5.36" y1="565.65" x2="5.36" y2="565.65"/><line class="cls-4" x1="6.27" y1="564.74" x2="9.01" y2="562.01"/><line class="cls-4" x1="9.92" y1="561.1" x2="9.92" y2="561.1"/><line class="cls-4" x1="10.85" y1="560.19" x2="13.58" y2="557.43"/><line class="cls-4" x1="14.5" y1="556.52" x2="14.5" y2="556.52"/><line class="cls-4" x1="15.41" y1="555.61" x2="17.93" y2="553.08"/><line class="cls-4" x1="0.81" y1="577.52" x2="3.54" y2="574.78"/><line class="cls-4" x1="4.45" y1="573.87" x2="4.45" y2="573.87"/><line class="cls-4" x1="5.36" y1="572.96" x2="8.1" y2="570.23"/><line class="cls-4" x1="9.01" y1="569.32" x2="9.01" y2="569.32"/><line class="cls-4" x1="9.92" y1="568.41" x2="12.67" y2="565.65"/><line class="cls-4" x1="13.58" y1="564.74" x2="13.58" y2="564.74"/><line class="cls-4" x1="14.5" y1="563.83" x2="17.23" y2="561.1"/><line class="cls-4" x1="0.74" y1="584.9" x2="2.63" y2="583"/><line class="cls-4" x1="3.54" y1="582.09" x2="3.54" y2="582.09"/><line class="cls-4" x1="4.45" y1="581.18" x2="7.18" y2="578.45"/><line class="cls-4" x1="8.1" y1="577.52" x2="8.1" y2="577.52"/><line class="cls-4" x1="9.01" y1="576.61" x2="11.76" y2="573.87"/><line class="cls-4" x1="12.67" y1="572.96" x2="12.67" y2="572.96"/><line class="cls-4" x1="13.58" y1="572.05" x2="16.32" y2="569.32"/><line class="cls-4" x1="17.23" y1="568.41" x2="17.23" y2="568.41"/><line class="cls-4" x1="0.74" y1="592.21" x2="1.72" y2="591.23"/><line class="cls-4" x1="2.63" y1="590.32" x2="2.63" y2="590.32"/><line class="cls-4" x1="3.54" y1="589.4" x2="6.27" y2="586.65"/><line class="cls-4" x1="7.18" y1="585.74" x2="7.18" y2="585.74"/><line class="cls-4" x1="8.1" y1="584.83" x2="10.85" y2="582.09"/><line class="cls-4" x1="11.76" y1="581.18" x2="11.76" y2="581.18"/><line class="cls-4" x1="12.67" y1="580.27" x2="15.41" y2="577.52"/><line class="cls-4" x1="16.32" y1="576.61" x2="16.32" y2="576.61"/><line class="cls-4" x1="17.23" y1="575.69" x2="17.93" y2="574.99"/><line class="cls-4" x1="0.74" y1="599.52" x2="0.81" y2="599.45"/><line class="cls-4" x1="1.72" y1="598.51" x2="1.72" y2="598.51"/><line class="cls-4" x1="2.63" y1="597.6" x2="5.36" y2="594.87"/><line class="cls-4" x1="6.27" y1="593.96" x2="6.27" y2="593.96"/><line class="cls-4" x1="7.18" y1="593.05" x2="9.92" y2="590.32"/><line class="cls-4" x1="10.85" y1="589.4" x2="10.85" y2="589.4"/><line class="cls-4" x1="11.76" y1="588.47" x2="14.5" y2="585.74"/><line class="cls-4" x1="15.41" y1="584.83" x2="15.41" y2="584.83"/><line class="cls-4" x1="16.32" y1="583.92" x2="17.93" y2="582.3"/><line class="cls-4" x1="0.81" y1="606.74" x2="0.81" y2="606.74"/><line class="cls-4" x1="1.72" y1="605.82" x2="4.45" y2="603.09"/><line class="cls-4" x1="5.36" y1="602.18" x2="5.36" y2="602.18"/><line class="cls-4" x1="6.27" y1="601.27" x2="9.01" y2="598.51"/><line class="cls-4" x1="9.92" y1="597.6" x2="9.92" y2="597.6"/><line class="cls-4" x1="10.85" y1="596.69" x2="13.58" y2="593.96"/><line class="cls-4" x1="14.5" y1="593.05" x2="14.5" y2="593.05"/><line class="cls-4" x1="15.41" y1="592.14" x2="17.93" y2="589.59"/><line class="cls-4" x1="5.36" y1="609.49" x2="8.1" y2="606.74"/><line class="cls-4" x1="9.01" y1="605.82" x2="9.01" y2="605.82"/><line class="cls-4" x1="9.92" y1="604.91" x2="12.67" y2="602.18"/><line class="cls-4" x1="13.58" y1="601.27" x2="13.58" y2="601.27"/><line class="cls-4" x1="14.5" y1="600.36" x2="17.23" y2="597.6"/><line class="cls-4" x1="12.67" y1="609.49" x2="12.67" y2="609.49"/><line class="cls-4" x1="13.58" y1="608.56" x2="16.32" y2="605.82"/><line class="cls-4" x1="17.23" y1="604.91" x2="17.23" y2="604.91"/><polyline class="cls-4" points="17.93 609.79 0.74 609.79 0.74 523.7 17.93 523.7 17.93 609.79"/><line class="cls-4" x1="0.74" y1="245.26" x2="6.34" y2="239.66"/><line class="cls-4" x1="0.74" y1="252.58" x2="13.65" y2="239.66"/><line class="cls-4" x1="0.74" y1="259.89" x2="17.93" y2="242.67"/><line class="cls-4" x1="0.74" y1="267.2" x2="17.93" y2="249.98"/><line class="cls-4" x1="0.74" y1="274.48" x2="17.93" y2="257.27"/><line class="cls-4" x1="0.74" y1="281.79" x2="17.93" y2="264.58"/><line class="cls-4" x1="0.74" y1="289.11" x2="17.93" y2="271.89"/><line class="cls-4" x1="0.74" y1="296.39" x2="17.93" y2="279.18"/><line class="cls-4" x1="0.74" y1="303.7" x2="17.93" y2="286.49"/><line class="cls-4" x1="0.74" y1="311.01" x2="17.93" y2="293.8"/><line class="cls-4" x1="0.74" y1="318.3" x2="17.93" y2="301.11"/><line class="cls-4" x1="0.74" y1="325.61" x2="17.93" y2="308.39"/><line class="cls-4" x1="7.91" y1="325.73" x2="17.93" y2="315.71"/><line class="cls-4" x1="15.22" y1="325.73" x2="17.93" y2="323.02"/><line class="cls-4" x1="0.81" y1="241.55" x2="0.81" y2="241.55"/><line class="cls-4" x1="1.72" y1="240.64" x2="2.7" y2="239.66"/><line class="cls-4" x1="0.81" y1="248.86" x2="3.54" y2="246.11"/><line class="cls-4" x1="4.45" y1="245.2" x2="4.45" y2="245.2"/><line class="cls-4" x1="5.36" y1="244.29" x2="8.1" y2="241.55"/><line class="cls-4" x1="9.01" y1="240.64" x2="9.01" y2="240.64"/><line class="cls-4" x1="9.92" y1="239.73" x2="9.99" y2="239.66"/><line class="cls-4" x1="0.74" y1="256.22" x2="2.63" y2="254.33"/><line class="cls-4" x1="3.54" y1="253.42" x2="3.54" y2="253.42"/><line class="cls-4" x1="4.45" y1="252.51" x2="7.18" y2="249.77"/><line class="cls-4" x1="8.1" y1="248.86" x2="8.1" y2="248.86"/><line class="cls-4" x1="9.01" y1="247.95" x2="11.76" y2="245.2"/><line class="cls-4" x1="12.67" y1="244.29" x2="12.67" y2="244.29"/><line class="cls-4" x1="13.58" y1="243.37" x2="16.32" y2="240.64"/><line class="cls-4" x1="17.23" y1="239.73" x2="17.23" y2="239.73"/><line class="cls-4" x1="0.74" y1="263.53" x2="1.72" y2="262.55"/><line class="cls-4" x1="2.63" y1="261.64" x2="2.63" y2="261.64"/><line class="cls-4" x1="3.54" y1="260.73" x2="6.27" y2="258"/><line class="cls-4" x1="7.18" y1="257.06" x2="7.18" y2="257.06"/><line class="cls-4" x1="8.1" y1="256.15" x2="10.85" y2="253.42"/><line class="cls-4" x1="11.76" y1="252.51" x2="11.76" y2="252.51"/><line class="cls-4" x1="12.67" y1="251.6" x2="15.41" y2="248.86"/><line class="cls-4" x1="16.32" y1="247.95" x2="16.32" y2="247.95"/><line class="cls-4" x1="17.23" y1="247.04" x2="17.93" y2="246.31"/><line class="cls-4" x1="0.74" y1="270.84" x2="0.81" y2="270.77"/><line class="cls-4" x1="1.72" y1="269.86" x2="1.72" y2="269.86"/><line class="cls-4" x1="2.63" y1="268.95" x2="5.36" y2="266.19"/><line class="cls-4" x1="6.27" y1="265.28" x2="6.27" y2="265.28"/><line class="cls-4" x1="7.18" y1="264.37" x2="9.92" y2="261.64"/><line class="cls-4" x1="10.85" y1="260.73" x2="10.85" y2="260.73"/><line class="cls-4" x1="11.76" y1="259.82" x2="14.5" y2="257.06"/><line class="cls-4" x1="15.41" y1="256.15" x2="15.41" y2="256.15"/><line class="cls-4" x1="16.32" y1="255.24" x2="17.93" y2="253.62"/><line class="cls-4" x1="0.81" y1="278.06" x2="0.81" y2="278.06"/><line class="cls-4" x1="1.72" y1="277.15" x2="4.45" y2="274.42"/><line class="cls-4" x1="5.36" y1="273.5" x2="5.36" y2="273.5"/><line class="cls-4" x1="6.27" y1="272.59" x2="9.01" y2="269.86"/><line class="cls-4" x1="9.92" y1="268.95" x2="9.92" y2="268.95"/><line class="cls-4" x1="10.85" y1="268.04" x2="13.58" y2="265.28"/><line class="cls-4" x1="14.5" y1="264.37" x2="14.5" y2="264.37"/><line class="cls-4" x1="15.41" y1="263.46" x2="17.93" y2="260.93"/><line class="cls-4" x1="0.81" y1="285.37" x2="3.54" y2="282.64"/><line class="cls-4" x1="4.45" y1="281.73" x2="4.45" y2="281.73"/><line class="cls-4" x1="5.36" y1="280.82" x2="8.1" y2="278.06"/><line class="cls-4" x1="9.01" y1="277.15" x2="9.01" y2="277.15"/><line class="cls-4" x1="9.92" y1="276.24" x2="12.67" y2="273.5"/><line class="cls-4" x1="13.58" y1="272.59" x2="13.58" y2="272.59"/><line class="cls-4" x1="14.5" y1="271.68" x2="17.23" y2="268.95"/><line class="cls-4" x1="0.74" y1="292.75" x2="2.63" y2="290.86"/><line class="cls-4" x1="3.54" y1="289.95" x2="3.54" y2="289.95"/><line class="cls-4" x1="4.45" y1="289.04" x2="7.18" y2="286.28"/><line class="cls-4" x1="8.1" y1="285.37" x2="8.1" y2="285.37"/><line class="cls-4" x1="9.01" y1="284.46" x2="11.76" y2="281.73"/><line class="cls-4" x1="12.67" y1="280.82" x2="12.67" y2="280.82"/><line class="cls-4" x1="13.58" y1="279.9" x2="16.32" y2="277.15"/><line class="cls-4" x1="17.23" y1="276.24" x2="17.23" y2="276.24"/><line class="cls-4" x1="0.74" y1="300.06" x2="1.72" y2="299.08"/><line class="cls-4" x1="2.63" y1="298.15" x2="2.63" y2="298.15"/><line class="cls-4" x1="3.54" y1="297.24" x2="6.27" y2="294.5"/><line class="cls-4" x1="7.18" y1="293.59" x2="7.18" y2="293.59"/><line class="cls-4" x1="8.1" y1="292.68" x2="10.85" y2="289.95"/><line class="cls-4" x1="11.76" y1="289.04" x2="11.76" y2="289.04"/><line class="cls-4" x1="12.67" y1="288.1" x2="15.41" y2="285.37"/><line class="cls-4" x1="16.32" y1="284.46" x2="16.32" y2="284.46"/><line class="cls-4" x1="17.23" y1="283.55" x2="17.93" y2="282.84"/><line class="cls-4" x1="0.74" y1="307.35" x2="0.81" y2="307.28"/><line class="cls-4" x1="1.72" y1="306.37" x2="1.72" y2="306.37"/><line class="cls-4" x1="2.63" y1="305.46" x2="5.36" y2="302.72"/><line class="cls-4" x1="6.27" y1="301.81" x2="6.27" y2="301.81"/><line class="cls-4" x1="7.18" y1="300.9" x2="9.92" y2="298.15"/><line class="cls-4" x1="10.85" y1="297.24" x2="10.85" y2="297.24"/><line class="cls-4" x1="11.76" y1="296.32" x2="14.5" y2="293.59"/><line class="cls-4" x1="15.41" y1="292.68" x2="15.41" y2="292.68"/><line class="cls-4" x1="16.32" y1="291.77" x2="17.93" y2="290.13"/><line class="cls-4" x1="0.81" y1="314.59" x2="0.81" y2="314.59"/><line class="cls-4" x1="1.72" y1="313.68" x2="4.45" y2="310.95"/><line class="cls-4" x1="5.36" y1="310.03" x2="5.36" y2="310.03"/><line class="cls-4" x1="6.27" y1="309.1" x2="9.01" y2="306.37"/><line class="cls-4" x1="9.92" y1="305.46" x2="9.92" y2="305.46"/><line class="cls-4" x1="10.85" y1="304.55" x2="13.58" y2="301.81"/><line class="cls-4" x1="14.5" y1="300.9" x2="14.5" y2="300.9"/><line class="cls-4" x1="15.41" y1="299.99" x2="17.93" y2="297.44"/><line class="cls-4" x1="0.81" y1="321.9" x2="3.54" y2="319.14"/><line class="cls-4" x1="4.45" y1="318.23" x2="4.45" y2="318.23"/><line class="cls-4" x1="5.36" y1="317.32" x2="8.1" y2="314.59"/><line class="cls-4" x1="9.01" y1="313.68" x2="9.01" y2="313.68"/><line class="cls-4" x1="9.92" y1="312.77" x2="12.67" y2="310.03"/><line class="cls-4" x1="13.58" y1="309.1" x2="13.58" y2="309.1"/><line class="cls-4" x1="14.5" y1="308.19" x2="17.23" y2="305.46"/><line class="cls-4" x1="4.45" y1="325.54" x2="7.18" y2="322.81"/><line class="cls-4" x1="8.1" y1="321.9" x2="8.1" y2="321.9"/><line class="cls-4" x1="9.01" y1="320.99" x2="11.76" y2="318.23"/><line class="cls-4" x1="12.67" y1="317.32" x2="12.67" y2="317.32"/><line class="cls-4" x1="13.58" y1="316.41" x2="16.32" y2="313.68"/><line class="cls-4" x1="17.23" y1="312.77" x2="17.23" y2="312.77"/><line class="cls-4" x1="11.76" y1="325.54" x2="11.76" y2="325.54"/><line class="cls-4" x1="12.67" y1="324.63" x2="15.41" y2="321.9"/><line class="cls-4" x1="16.32" y1="320.99" x2="16.32" y2="320.99"/><line class="cls-4" x1="17.23" y1="320.08" x2="17.93" y2="319.35"/><polyline class="cls-4" points="17.93 325.73 0.74 325.73 0.74 239.66 17.93 239.66 17.93 325.73"/><line class="cls-4" x1="0.74" y1="4.25" x2="4.61" y2="0.38"/><line class="cls-4" x1="0.74" y1="11.56" x2="11.92" y2="0.38"/><line class="cls-4" x1="0.74" y1="18.87" x2="17.93" y2="1.65"/><line class="cls-4" x1="0.74" y1="26.16" x2="17.93" y2="8.94"/><line class="cls-4" x1="0.74" y1="33.47" x2="17.93" y2="16.25"/><line class="cls-4" x1="0.74" y1="40.78" x2="17.93" y2="23.56"/><line class="cls-4" x1="0.74" y1="48.06" x2="17.93" y2="30.85"/><line class="cls-4" x1="0.74" y1="55.37" x2="17.93" y2="38.16"/><line class="cls-4" x1="0.74" y1="62.68" x2="17.93" y2="45.47"/><line class="cls-4" x1="0.74" y1="69.97" x2="17.93" y2="52.78"/><line class="cls-4" x1="0.74" y1="77.28" x2="17.93" y2="60.07"/><line class="cls-4" x1="0.74" y1="84.59" x2="17.93" y2="67.38"/><line class="cls-4" x1="6.18" y1="86.44" x2="17.93" y2="74.69"/><line class="cls-4" x1="13.47" y1="86.44" x2="17.93" y2="81.97"/><line class="cls-4" x1="0.74" y1="0.6" x2="0.97" y2="0.38"/><line class="cls-4" x1="0.74" y1="7.89" x2="1.72" y2="6.91"/><line class="cls-4" x1="2.63" y1="6" x2="2.63" y2="6"/><line class="cls-4" x1="3.54" y1="5.09" x2="6.27" y2="2.36"/><line class="cls-4" x1="7.18" y1="1.45" x2="7.18" y2="1.45"/><line class="cls-4" x1="8.1" y1="0.53" x2="8.25" y2="0.38"/><line class="cls-4" x1="0.74" y1="15.2" x2="0.81" y2="15.13"/><line class="cls-4" x1="1.72" y1="14.22" x2="1.72" y2="14.22"/><line class="cls-4" x1="2.63" y1="13.31" x2="5.36" y2="10.58"/><line class="cls-4" x1="6.27" y1="9.67" x2="6.27" y2="9.67"/><line class="cls-4" x1="7.18" y1="8.73" x2="9.92" y2="6"/><line class="cls-4" x1="10.85" y1="5.09" x2="10.85" y2="5.09"/><line class="cls-4" x1="11.76" y1="4.18" x2="14.5" y2="1.45"/><line class="cls-4" x1="15.41" y1="0.53" x2="15.41" y2="0.53"/><line class="cls-4" x1="0.81" y1="22.44" x2="0.81" y2="22.44"/><line class="cls-4" x1="1.72" y1="21.53" x2="4.45" y2="18.78"/><line class="cls-4" x1="5.36" y1="17.87" x2="5.36" y2="17.87"/><line class="cls-4" x1="6.27" y1="16.95" x2="9.01" y2="14.22"/><line class="cls-4" x1="9.92" y1="13.31" x2="9.92" y2="13.31"/><line class="cls-4" x1="10.85" y1="12.4" x2="13.58" y2="9.67"/><line class="cls-4" x1="14.5" y1="8.73" x2="14.5" y2="8.73"/><line class="cls-4" x1="15.41" y1="7.82" x2="17.93" y2="5.29"/><line class="cls-4" x1="0.81" y1="29.75" x2="3.54" y2="27"/><line class="cls-4" x1="4.45" y1="26.09" x2="4.45" y2="26.09"/><line class="cls-4" x1="5.36" y1="25.18" x2="8.1" y2="22.44"/><line class="cls-4" x1="9.01" y1="21.53" x2="9.01" y2="21.53"/><line class="cls-4" x1="9.92" y1="20.62" x2="12.67" y2="17.87"/><line class="cls-4" x1="13.58" y1="16.95" x2="13.58" y2="16.95"/><line class="cls-4" x1="14.5" y1="16.04" x2="17.23" y2="13.31"/><line class="cls-4" x1="0.74" y1="37.11" x2="2.63" y2="35.22"/><line class="cls-4" x1="3.54" y1="34.31" x2="3.54" y2="34.31"/><line class="cls-4" x1="4.45" y1="33.4" x2="7.18" y2="30.66"/><line class="cls-4" x1="8.1" y1="29.75" x2="8.1" y2="29.75"/><line class="cls-4" x1="9.01" y1="28.82" x2="11.76" y2="26.09"/><line class="cls-4" x1="12.67" y1="25.18" x2="12.67" y2="25.18"/><line class="cls-4" x1="13.58" y1="24.27" x2="16.32" y2="21.53"/><line class="cls-4" x1="17.23" y1="20.62" x2="17.23" y2="20.62"/><line class="cls-4" x1="0.74" y1="44.42" x2="1.72" y2="43.44"/><line class="cls-4" x1="2.63" y1="42.53" x2="2.63" y2="42.53"/><line class="cls-4" x1="3.54" y1="41.62" x2="6.27" y2="38.86"/><line class="cls-4" x1="7.18" y1="37.95" x2="7.18" y2="37.95"/><line class="cls-4" x1="8.1" y1="37.04" x2="10.85" y2="34.31"/><line class="cls-4" x1="11.76" y1="33.4" x2="11.76" y2="33.4"/><line class="cls-4" x1="12.67" y1="32.49" x2="15.41" y2="29.75"/><line class="cls-4" x1="16.32" y1="28.82" x2="16.32" y2="28.82"/><line class="cls-4" x1="17.23" y1="27.91" x2="17.93" y2="27.2"/><line class="cls-4" x1="0.74" y1="51.73" x2="0.81" y2="51.66"/><line class="cls-4" x1="1.72" y1="50.75" x2="1.72" y2="50.75"/><line class="cls-4" x1="2.63" y1="49.82" x2="5.36" y2="47.08"/><line class="cls-4" x1="6.27" y1="46.17" x2="6.27" y2="46.17"/><line class="cls-4" x1="7.18" y1="45.26" x2="9.92" y2="42.53"/><line class="cls-4" x1="10.85" y1="41.62" x2="10.85" y2="41.62"/><line class="cls-4" x1="11.76" y1="40.71" x2="14.5" y2="37.95"/><line class="cls-4" x1="15.41" y1="37.04" x2="15.41" y2="37.04"/><line class="cls-4" x1="16.32" y1="36.13" x2="17.93" y2="34.51"/><line class="cls-4" x1="0.81" y1="58.95" x2="0.81" y2="58.95"/><line class="cls-4" x1="1.72" y1="58.04" x2="4.45" y2="55.31"/><line class="cls-4" x1="5.36" y1="54.4" x2="5.36" y2="54.4"/><line class="cls-4" x1="6.27" y1="53.48" x2="9.01" y2="50.75"/><line class="cls-4" x1="9.92" y1="49.82" x2="9.92" y2="49.82"/><line class="cls-4" x1="10.85" y1="48.91" x2="13.58" y2="46.17"/><line class="cls-4" x1="14.5" y1="45.26" x2="14.5" y2="45.26"/><line class="cls-4" x1="15.41" y1="44.35" x2="17.93" y2="41.8"/><line class="cls-4" x1="0.81" y1="66.26" x2="3.54" y2="63.53"/><line class="cls-4" x1="4.45" y1="62.62" x2="4.45" y2="62.62"/><line class="cls-4" x1="5.36" y1="61.71" x2="8.1" y2="58.95"/><line class="cls-4" x1="9.01" y1="58.04" x2="9.01" y2="58.04"/><line class="cls-4" x1="9.92" y1="57.13" x2="12.67" y2="54.4"/><line class="cls-4" x1="13.58" y1="53.48" x2="13.58" y2="53.48"/><line class="cls-4" x1="14.5" y1="52.57" x2="17.23" y2="49.82"/><line class="cls-4" x1="0.74" y1="73.64" x2="2.63" y2="71.75"/><line class="cls-4" x1="3.54" y1="70.82" x2="3.54" y2="70.82"/><line class="cls-4" x1="4.45" y1="69.9" x2="7.18" y2="67.17"/><line class="cls-4" x1="8.1" y1="66.26" x2="8.1" y2="66.26"/><line class="cls-4" x1="9.01" y1="65.35" x2="11.76" y2="62.62"/><line class="cls-4" x1="12.67" y1="61.71" x2="12.67" y2="61.71"/><line class="cls-4" x1="13.58" y1="60.79" x2="16.32" y2="58.04"/><line class="cls-4" x1="17.23" y1="57.13" x2="17.23" y2="57.13"/><line class="cls-4" x1="0.74" y1="80.95" x2="1.72" y2="79.95"/><line class="cls-4" x1="2.63" y1="79.04" x2="2.63" y2="79.04"/><line class="cls-4" x1="3.54" y1="78.13" x2="6.27" y2="75.39"/><line class="cls-4" x1="7.18" y1="74.48" x2="7.18" y2="74.48"/><line class="cls-4" x1="8.1" y1="73.57" x2="10.85" y2="70.82"/><line class="cls-4" x1="11.76" y1="69.9" x2="11.76" y2="69.9"/><line class="cls-4" x1="12.67" y1="68.99" x2="15.41" y2="66.26"/><line class="cls-4" x1="16.32" y1="65.35" x2="16.32" y2="65.35"/><line class="cls-4" x1="17.23" y1="64.44" x2="17.93" y2="63.73"/><line class="cls-4" x1="2.63" y1="86.35" x2="5.36" y2="83.61"/><line class="cls-4" x1="6.27" y1="82.7" x2="6.27" y2="82.7"/><line class="cls-4" x1="7.18" y1="81.79" x2="9.92" y2="79.04"/><line class="cls-4" x1="10.85" y1="78.13" x2="10.85" y2="78.13"/><line class="cls-4" x1="11.76" y1="77.21" x2="14.5" y2="74.48"/><line class="cls-4" x1="15.41" y1="73.57" x2="15.41" y2="73.57"/><line class="cls-4" x1="16.32" y1="72.66" x2="17.93" y2="71.02"/><line class="cls-4" x1="9.92" y1="86.35" x2="9.92" y2="86.35"/><line class="cls-4" x1="10.85" y1="85.44" x2="13.58" y2="82.7"/><line class="cls-4" x1="14.5" y1="81.79" x2="14.5" y2="81.79"/><line class="cls-4" x1="15.41" y1="80.86" x2="17.93" y2="78.33"/><line class="cls-4" x1="17.14" y1="86.44" x2="17.23" y2="86.35"/><polyline class="cls-4" points="17.93 86.44 0.74 86.44 0.74 0.38 17.93 0.38 17.93 86.44"/><line class="cls-4" x1="276.17" y1="524.91" x2="277.38" y2="523.7"/><line class="cls-4" x1="276.17" y1="532.22" x2="284.69" y2="523.7"/><line class="cls-4" x1="276.17" y1="539.53" x2="291.97" y2="523.7"/><line class="cls-4" x1="276.17" y1="546.84" x2="293.39" y2="529.62"/><line class="cls-4" x1="276.17" y1="554.13" x2="293.39" y2="536.91"/><line class="cls-4" x1="276.17" y1="561.44" x2="293.39" y2="544.22"/><line class="cls-4" x1="276.17" y1="568.75" x2="293.39" y2="551.53"/><line class="cls-4" x1="276.17" y1="576.04" x2="293.39" y2="558.82"/><line class="cls-4" x1="276.17" y1="583.35" x2="293.39" y2="566.13"/><line class="cls-4" x1="276.17" y1="590.66" x2="293.39" y2="573.44"/><line class="cls-4" x1="276.17" y1="597.94" x2="293.39" y2="580.75"/><line class="cls-4" x1="276.17" y1="605.26" x2="293.39" y2="588.04"/><line class="cls-4" x1="278.95" y1="609.79" x2="293.39" y2="595.35"/><line class="cls-4" x1="286.26" y1="609.79" x2="293.39" y2="602.66"/><line class="cls-4" x1="276.17" y1="528.57" x2="276.51" y2="528.23"/><line class="cls-4" x1="277.42" y1="527.32" x2="277.42" y2="527.32"/><line class="cls-4" x1="278.33" y1="526.39" x2="281.02" y2="523.7"/><line class="cls-4" x1="276.51" y1="535.52" x2="276.51" y2="535.52"/><line class="cls-4" x1="277.42" y1="534.61" x2="280.18" y2="531.88"/><line class="cls-4" x1="281.09" y1="530.97" x2="281.09" y2="530.97"/><line class="cls-4" x1="282" y1="530.06" x2="284.73" y2="527.32"/><line class="cls-4" x1="285.64" y1="526.39" x2="285.64" y2="526.39"/><line class="cls-4" x1="286.55" y1="525.48" x2="288.33" y2="523.7"/><line class="cls-4" x1="276.51" y1="542.83" x2="279.24" y2="540.1"/><line class="cls-4" x1="280.18" y1="539.19" x2="280.18" y2="539.19"/><line class="cls-4" x1="281.09" y1="538.28" x2="283.82" y2="535.52"/><line class="cls-4" x1="284.73" y1="534.61" x2="284.73" y2="534.61"/><line class="cls-4" x1="285.64" y1="533.7" x2="288.38" y2="530.97"/><line class="cls-4" x1="289.29" y1="530.06" x2="289.29" y2="530.06"/><line class="cls-4" x1="290.22" y1="529.14" x2="292.95" y2="526.39"/><line class="cls-4" x1="276.17" y1="550.48" x2="278.33" y2="548.32"/><line class="cls-4" x1="279.24" y1="547.41" x2="279.24" y2="547.41"/><line class="cls-4" x1="280.18" y1="546.48" x2="282.91" y2="543.74"/><line class="cls-4" x1="283.82" y1="542.83" x2="283.82" y2="542.83"/><line class="cls-4" x1="284.73" y1="541.92" x2="287.47" y2="539.19"/><line class="cls-4" x1="288.38" y1="538.28" x2="288.38" y2="538.28"/><line class="cls-4" x1="289.29" y1="537.37" x2="292.04" y2="534.61"/><line class="cls-4" x1="292.95" y1="533.7" x2="292.95" y2="533.7"/><line class="cls-4" x1="276.17" y1="557.79" x2="277.42" y2="556.52"/><line class="cls-4" x1="278.33" y1="555.61" x2="278.33" y2="555.61"/><line class="cls-4" x1="279.24" y1="554.7" x2="282" y2="551.96"/><line class="cls-4" x1="282.91" y1="551.05" x2="282.91" y2="551.05"/><line class="cls-4" x1="283.82" y1="550.14" x2="286.55" y2="547.41"/><line class="cls-4" x1="287.47" y1="546.48" x2="287.47" y2="546.48"/><line class="cls-4" x1="288.38" y1="545.56" x2="291.13" y2="542.83"/><line class="cls-4" x1="292.04" y1="541.92" x2="292.04" y2="541.92"/><line class="cls-4" x1="292.95" y1="541.01" x2="293.39" y2="540.58"/><line class="cls-4" x1="276.17" y1="565.08" x2="276.51" y2="564.74"/><line class="cls-4" x1="277.42" y1="563.83" x2="277.42" y2="563.83"/><line class="cls-4" x1="278.33" y1="562.92" x2="281.09" y2="560.19"/><line class="cls-4" x1="282" y1="559.27" x2="282" y2="559.27"/><line class="cls-4" x1="282.91" y1="558.36" x2="285.64" y2="555.61"/><line class="cls-4" x1="286.55" y1="554.7" x2="286.55" y2="554.7"/><line class="cls-4" x1="287.47" y1="553.79" x2="290.22" y2="551.05"/><line class="cls-4" x1="291.13" y1="550.14" x2="291.13" y2="550.14"/><line class="cls-4" x1="292.04" y1="549.23" x2="293.39" y2="547.86"/><line class="cls-4" x1="276.51" y1="572.05" x2="276.51" y2="572.05"/><line class="cls-4" x1="277.42" y1="571.14" x2="280.18" y2="568.41"/><line class="cls-4" x1="281.09" y1="567.47" x2="281.09" y2="567.47"/><line class="cls-4" x1="282" y1="566.56" x2="284.73" y2="563.83"/><line class="cls-4" x1="285.64" y1="562.92" x2="285.64" y2="562.92"/><line class="cls-4" x1="286.55" y1="562.01" x2="289.29" y2="559.27"/><line class="cls-4" x1="290.22" y1="558.36" x2="290.22" y2="558.36"/><line class="cls-4" x1="291.13" y1="557.43" x2="293.39" y2="555.18"/><line class="cls-4" x1="276.51" y1="579.36" x2="279.24" y2="576.61"/><line class="cls-4" x1="280.18" y1="575.69" x2="280.18" y2="575.69"/><line class="cls-4" x1="281.09" y1="574.78" x2="283.82" y2="572.05"/><line class="cls-4" x1="284.73" y1="571.14" x2="284.73" y2="571.14"/><line class="cls-4" x1="285.64" y1="570.23" x2="288.38" y2="567.47"/><line class="cls-4" x1="289.29" y1="566.56" x2="289.29" y2="566.56"/><line class="cls-4" x1="290.22" y1="565.65" x2="292.95" y2="562.92"/><line class="cls-4" x1="276.17" y1="586.99" x2="278.33" y2="584.83"/><line class="cls-4" x1="279.24" y1="583.92" x2="279.24" y2="583.92"/><line class="cls-4" x1="280.18" y1="583" x2="282.91" y2="580.27"/><line class="cls-4" x1="283.82" y1="579.36" x2="283.82" y2="579.36"/><line class="cls-4" x1="284.73" y1="578.45" x2="287.47" y2="575.69"/><line class="cls-4" x1="288.38" y1="574.78" x2="288.38" y2="574.78"/><line class="cls-4" x1="289.29" y1="573.87" x2="292.04" y2="571.14"/><line class="cls-4" x1="292.95" y1="570.23" x2="292.95" y2="570.23"/><line class="cls-4" x1="276.17" y1="594.3" x2="277.42" y2="593.05"/><line class="cls-4" x1="278.33" y1="592.14" x2="278.33" y2="592.14"/><line class="cls-4" x1="279.24" y1="591.23" x2="282" y2="588.47"/><line class="cls-4" x1="282.91" y1="587.56" x2="282.91" y2="587.56"/><line class="cls-4" x1="283.82" y1="586.65" x2="286.55" y2="583.92"/><line class="cls-4" x1="287.47" y1="583" x2="287.47" y2="583"/><line class="cls-4" x1="288.38" y1="582.09" x2="291.13" y2="579.36"/><line class="cls-4" x1="292.04" y1="578.45" x2="292.04" y2="578.45"/><line class="cls-4" x1="292.95" y1="577.52" x2="293.39" y2="577.08"/><line class="cls-4" x1="276.17" y1="601.61" x2="276.51" y2="601.27"/><line class="cls-4" x1="277.42" y1="600.36" x2="277.42" y2="600.36"/><line class="cls-4" x1="278.33" y1="599.45" x2="281.09" y2="596.69"/><line class="cls-4" x1="282" y1="595.78" x2="282" y2="595.78"/><line class="cls-4" x1="282.91" y1="594.87" x2="285.64" y2="592.14"/><line class="cls-4" x1="286.55" y1="591.23" x2="286.55" y2="591.23"/><line class="cls-4" x1="287.47" y1="590.32" x2="290.22" y2="587.56"/><line class="cls-4" x1="291.13" y1="586.65" x2="291.13" y2="586.65"/><line class="cls-4" x1="292.04" y1="585.74" x2="293.39" y2="584.39"/><line class="cls-4" x1="276.51" y1="608.56" x2="276.51" y2="608.56"/><line class="cls-4" x1="277.42" y1="607.65" x2="280.18" y2="604.91"/><line class="cls-4" x1="281.09" y1="604" x2="281.09" y2="604"/><line class="cls-4" x1="282" y1="603.09" x2="284.73" y2="600.36"/><line class="cls-4" x1="285.64" y1="599.45" x2="285.64" y2="599.45"/><line class="cls-4" x1="286.55" y1="598.51" x2="289.29" y2="595.78"/><line class="cls-4" x1="290.22" y1="594.87" x2="290.22" y2="594.87"/><line class="cls-4" x1="291.13" y1="593.96" x2="293.39" y2="591.7"/><line class="cls-4" x1="282.59" y1="609.79" x2="283.82" y2="608.56"/><line class="cls-4" x1="284.73" y1="607.65" x2="284.73" y2="607.65"/><line class="cls-4" x1="285.64" y1="606.74" x2="288.38" y2="604"/><line class="cls-4" x1="289.29" y1="603.09" x2="289.29" y2="603.09"/><line class="cls-4" x1="290.22" y1="602.18" x2="292.95" y2="599.45"/><line class="cls-4" x1="289.9" y1="609.79" x2="292.04" y2="607.65"/><line class="cls-4" x1="292.95" y1="606.74" x2="292.95" y2="606.74"/><polyline class="cls-4" points="293.39 609.79 276.17 609.79 276.17 523.7 293.39 523.7 293.39 609.79"/><line class="cls-4" x1="276.17" y1="240.07" x2="276.58" y2="239.66"/><line class="cls-4" x1="276.17" y1="247.38" x2="283.89" y2="239.66"/><line class="cls-4" x1="276.17" y1="254.67" x2="291.18" y2="239.66"/><line class="cls-4" x1="276.17" y1="261.98" x2="293.39" y2="244.76"/><line class="cls-4" x1="276.17" y1="269.29" x2="293.39" y2="252.07"/><line class="cls-4" x1="276.17" y1="276.58" x2="293.39" y2="259.38"/><line class="cls-4" x1="276.17" y1="283.89" x2="293.39" y2="266.67"/><line class="cls-4" x1="276.17" y1="291.2" x2="293.39" y2="273.98"/><line class="cls-4" x1="276.17" y1="298.51" x2="293.39" y2="281.29"/><line class="cls-4" x1="276.17" y1="305.8" x2="293.39" y2="288.58"/><line class="cls-4" x1="276.17" y1="313.11" x2="293.39" y2="295.89"/><line class="cls-4" x1="276.17" y1="320.42" x2="293.39" y2="303.2"/><line class="cls-4" x1="278.15" y1="325.73" x2="293.39" y2="310.49"/><line class="cls-4" x1="285.46" y1="325.73" x2="293.39" y2="317.8"/><line class="cls-4" x1="292.75" y1="325.73" x2="293.39" y2="325.11"/><line class="cls-4" x1="276.51" y1="243.37" x2="276.51" y2="243.37"/><line class="cls-4" x1="277.42" y1="242.46" x2="280.18" y2="239.73"/><line class="cls-4" x1="276.51" y1="250.69" x2="279.24" y2="247.95"/><line class="cls-4" x1="280.18" y1="247.04" x2="280.18" y2="247.04"/><line class="cls-4" x1="281.09" y1="246.11" x2="283.82" y2="243.37"/><line class="cls-4" x1="284.73" y1="242.46" x2="284.73" y2="242.46"/><line class="cls-4" x1="285.64" y1="241.55" x2="287.53" y2="239.66"/><line class="cls-4" x1="276.17" y1="258.34" x2="278.33" y2="256.15"/><line class="cls-4" x1="279.24" y1="255.24" x2="279.24" y2="255.24"/><line class="cls-4" x1="280.18" y1="254.33" x2="282.91" y2="251.6"/><line class="cls-4" x1="283.82" y1="250.69" x2="283.82" y2="250.69"/><line class="cls-4" x1="284.73" y1="249.77" x2="287.47" y2="247.04"/><line class="cls-4" x1="288.38" y1="246.11" x2="288.38" y2="246.11"/><line class="cls-4" x1="289.29" y1="245.2" x2="292.04" y2="242.46"/><line class="cls-4" x1="292.95" y1="241.55" x2="292.95" y2="241.55"/><line class="cls-4" x1="276.17" y1="265.62" x2="277.42" y2="264.37"/><line class="cls-4" x1="278.33" y1="263.46" x2="278.33" y2="263.46"/><line class="cls-4" x1="279.24" y1="262.55" x2="282" y2="259.82"/><line class="cls-4" x1="282.91" y1="258.91" x2="282.91" y2="258.91"/><line class="cls-4" x1="283.82" y1="258" x2="286.55" y2="255.24"/><line class="cls-4" x1="287.47" y1="254.33" x2="287.47" y2="254.33"/><line class="cls-4" x1="288.38" y1="253.42" x2="291.13" y2="250.69"/><line class="cls-4" x1="292.04" y1="249.77" x2="292.04" y2="249.77"/><line class="cls-4" x1="292.95" y1="248.86" x2="293.39" y2="248.41"/><line class="cls-4" x1="276.17" y1="272.94" x2="276.51" y2="272.59"/><line class="cls-4" x1="277.42" y1="271.68" x2="277.42" y2="271.68"/><line class="cls-4" x1="278.33" y1="270.77" x2="281.09" y2="268.04"/><line class="cls-4" x1="282" y1="267.11" x2="282" y2="267.11"/><line class="cls-4" x1="282.91" y1="266.19" x2="285.64" y2="263.46"/><line class="cls-4" x1="286.55" y1="262.55" x2="286.55" y2="262.55"/><line class="cls-4" x1="287.47" y1="261.64" x2="290.22" y2="258.91"/><line class="cls-4" x1="291.13" y1="258" x2="291.13" y2="258"/><line class="cls-4" x1="292.04" y1="257.06" x2="293.39" y2="255.72"/><line class="cls-4" x1="276.51" y1="279.9" x2="276.51" y2="279.9"/><line class="cls-4" x1="277.42" y1="278.99" x2="280.18" y2="276.24"/><line class="cls-4" x1="281.09" y1="275.33" x2="281.09" y2="275.33"/><line class="cls-4" x1="282" y1="274.42" x2="284.73" y2="271.68"/><line class="cls-4" x1="285.64" y1="270.77" x2="285.64" y2="270.77"/><line class="cls-4" x1="286.55" y1="269.86" x2="289.29" y2="267.11"/><line class="cls-4" x1="290.22" y1="266.19" x2="290.22" y2="266.19"/><line class="cls-4" x1="291.13" y1="265.28" x2="293.39" y2="263.03"/><line class="cls-4" x1="276.51" y1="287.19" x2="279.24" y2="284.46"/><line class="cls-4" x1="280.18" y1="283.55" x2="280.18" y2="283.55"/><line class="cls-4" x1="281.09" y1="282.64" x2="283.82" y2="279.9"/><line class="cls-4" x1="284.73" y1="278.99" x2="284.73" y2="278.99"/><line class="cls-4" x1="285.64" y1="278.06" x2="288.38" y2="275.33"/><line class="cls-4" x1="289.29" y1="274.42" x2="289.29" y2="274.42"/><line class="cls-4" x1="290.22" y1="273.5" x2="292.95" y2="270.77"/><line class="cls-4" x1="276.17" y1="294.84" x2="278.33" y2="292.68"/><line class="cls-4" x1="279.24" y1="291.77" x2="279.24" y2="291.77"/><line class="cls-4" x1="280.18" y1="290.86" x2="282.91" y2="288.1"/><line class="cls-4" x1="283.82" y1="287.19" x2="283.82" y2="287.19"/><line class="cls-4" x1="284.73" y1="286.28" x2="287.47" y2="283.55"/><line class="cls-4" x1="288.38" y1="282.64" x2="288.38" y2="282.64"/><line class="cls-4" x1="289.29" y1="281.73" x2="292.04" y2="278.99"/><line class="cls-4" x1="292.95" y1="278.06" x2="292.95" y2="278.06"/><line class="cls-4" x1="276.17" y1="302.15" x2="277.42" y2="300.9"/><line class="cls-4" x1="278.33" y1="299.99" x2="278.33" y2="299.99"/><line class="cls-4" x1="279.24" y1="299.08" x2="282" y2="296.32"/><line class="cls-4" x1="282.91" y1="295.41" x2="282.91" y2="295.41"/><line class="cls-4" x1="283.82" y1="294.5" x2="286.55" y2="291.77"/><line class="cls-4" x1="287.47" y1="290.86" x2="287.47" y2="290.86"/><line class="cls-4" x1="288.38" y1="289.95" x2="291.13" y2="287.19"/><line class="cls-4" x1="292.04" y1="286.28" x2="292.04" y2="286.28"/><line class="cls-4" x1="292.95" y1="285.37" x2="293.39" y2="284.94"/><line class="cls-4" x1="276.17" y1="309.47" x2="276.51" y2="309.1"/><line class="cls-4" x1="277.42" y1="308.19" x2="277.42" y2="308.19"/><line class="cls-4" x1="278.33" y1="307.28" x2="281.09" y2="304.55"/><line class="cls-4" x1="282" y1="303.64" x2="282" y2="303.64"/><line class="cls-4" x1="282.91" y1="302.72" x2="285.64" y2="299.99"/><line class="cls-4" x1="286.55" y1="299.08" x2="286.55" y2="299.08"/><line class="cls-4" x1="287.47" y1="298.15" x2="290.22" y2="295.41"/><line class="cls-4" x1="291.13" y1="294.5" x2="291.13" y2="294.5"/><line class="cls-4" x1="292.04" y1="293.59" x2="293.39" y2="292.25"/><line class="cls-4" x1="276.51" y1="316.41" x2="276.51" y2="316.41"/><line class="cls-4" x1="277.42" y1="315.5" x2="280.18" y2="312.77"/><line class="cls-4" x1="281.09" y1="311.86" x2="281.09" y2="311.86"/><line class="cls-4" x1="282" y1="310.95" x2="284.73" y2="308.19"/><line class="cls-4" x1="285.64" y1="307.28" x2="285.64" y2="307.28"/><line class="cls-4" x1="286.55" y1="306.37" x2="289.29" y2="303.64"/><line class="cls-4" x1="290.22" y1="302.72" x2="290.22" y2="302.72"/><line class="cls-4" x1="291.13" y1="301.81" x2="293.39" y2="299.54"/><line class="cls-4" x1="276.51" y1="323.72" x2="279.24" y2="320.99"/><line class="cls-4" x1="280.18" y1="320.08" x2="280.18" y2="320.08"/><line class="cls-4" x1="281.09" y1="319.14" x2="283.82" y2="316.41"/><line class="cls-4" x1="284.73" y1="315.5" x2="284.73" y2="315.5"/><line class="cls-4" x1="285.64" y1="314.59" x2="288.38" y2="311.86"/><line class="cls-4" x1="289.29" y1="310.95" x2="289.29" y2="310.95"/><line class="cls-4" x1="290.22" y1="310.03" x2="292.95" y2="307.28"/><line class="cls-4" x1="281.79" y1="325.73" x2="282.91" y2="324.63"/><line class="cls-4" x1="283.82" y1="323.72" x2="283.82" y2="323.72"/><line class="cls-4" x1="284.73" y1="322.81" x2="287.47" y2="320.08"/><line class="cls-4" x1="288.38" y1="319.14" x2="288.38" y2="319.14"/><line class="cls-4" x1="289.29" y1="318.23" x2="292.04" y2="315.5"/><line class="cls-4" x1="292.95" y1="314.59" x2="292.95" y2="314.59"/><line class="cls-4" x1="289.11" y1="325.73" x2="291.13" y2="323.72"/><line class="cls-4" x1="292.04" y1="322.81" x2="292.04" y2="322.81"/><line class="cls-4" x1="292.95" y1="321.9" x2="293.39" y2="321.47"/><polyline class="cls-4" points="293.39 325.73 276.17 325.73 276.17 239.66 293.39 239.66 293.39 325.73"/><line class="cls-4" x1="276.17" y1="6.34" x2="282.16" y2="0.38"/><line class="cls-4" x1="276.17" y1="13.65" x2="289.45" y2="0.38"/><line class="cls-4" x1="276.17" y1="20.96" x2="293.39" y2="3.75"/><line class="cls-4" x1="276.17" y1="28.25" x2="293.39" y2="11.06"/><line class="cls-4" x1="276.17" y1="35.56" x2="293.39" y2="18.34"/><line class="cls-4" x1="276.17" y1="42.87" x2="293.39" y2="25.65"/><line class="cls-4" x1="276.17" y1="50.18" x2="293.39" y2="32.96"/><line class="cls-4" x1="276.17" y1="57.47" x2="293.39" y2="40.25"/><line class="cls-4" x1="276.17" y1="64.78" x2="293.39" y2="47.56"/><line class="cls-4" x1="276.17" y1="72.09" x2="293.39" y2="54.87"/><line class="cls-4" x1="276.17" y1="79.38" x2="293.39" y2="62.18"/><line class="cls-4" x1="276.42" y1="86.44" x2="293.39" y2="69.47"/><line class="cls-4" x1="283.73" y1="86.44" x2="293.39" y2="76.78"/><line class="cls-4" x1="291.02" y1="86.44" x2="293.39" y2="84.09"/><line class="cls-4" x1="276.17" y1="2.7" x2="278.33" y2="0.53"/><line class="cls-4" x1="276.17" y1="10.01" x2="277.42" y2="8.73"/><line class="cls-4" x1="278.33" y1="7.82" x2="278.33" y2="7.82"/><line class="cls-4" x1="279.24" y1="6.91" x2="282" y2="4.18"/><line class="cls-4" x1="282.91" y1="3.27" x2="282.91" y2="3.27"/><line class="cls-4" x1="283.82" y1="2.36" x2="285.8" y2="0.38"/><line class="cls-4" x1="276.17" y1="17.3" x2="276.51" y2="16.95"/><line class="cls-4" x1="277.42" y1="16.04" x2="277.42" y2="16.04"/><line class="cls-4" x1="278.33" y1="15.13" x2="281.09" y2="12.4"/><line class="cls-4" x1="282" y1="11.49" x2="282" y2="11.49"/><line class="cls-4" x1="282.91" y1="10.58" x2="285.64" y2="7.82"/><line class="cls-4" x1="286.55" y1="6.91" x2="286.55" y2="6.91"/><line class="cls-4" x1="287.47" y1="6" x2="290.22" y2="3.27"/><line class="cls-4" x1="291.13" y1="2.36" x2="291.13" y2="2.36"/><line class="cls-4" x1="292.04" y1="1.45" x2="293.11" y2="0.38"/><line class="cls-4" x1="276.51" y1="24.27" x2="276.51" y2="24.27"/><line class="cls-4" x1="277.42" y1="23.35" x2="280.18" y2="20.62"/><line class="cls-4" x1="281.09" y1="19.71" x2="281.09" y2="19.71"/><line class="cls-4" x1="282" y1="18.78" x2="284.73" y2="16.04"/><line class="cls-4" x1="285.64" y1="15.13" x2="285.64" y2="15.13"/><line class="cls-4" x1="286.55" y1="14.22" x2="289.29" y2="11.49"/><line class="cls-4" x1="290.22" y1="10.58" x2="290.22" y2="10.58"/><line class="cls-4" x1="291.13" y1="9.67" x2="293.39" y2="7.39"/><line class="cls-4" x1="276.51" y1="31.58" x2="279.24" y2="28.82"/><line class="cls-4" x1="280.18" y1="27.91" x2="280.18" y2="27.91"/><line class="cls-4" x1="281.09" y1="27" x2="283.82" y2="24.27"/><line class="cls-4" x1="284.73" y1="23.35" x2="284.73" y2="23.35"/><line class="cls-4" x1="285.64" y1="22.44" x2="288.38" y2="19.71"/><line class="cls-4" x1="289.29" y1="18.78" x2="289.29" y2="18.78"/><line class="cls-4" x1="290.22" y1="17.87" x2="292.95" y2="15.13"/><line class="cls-4" x1="276.17" y1="39.23" x2="278.33" y2="37.04"/><line class="cls-4" x1="279.24" y1="36.13" x2="279.24" y2="36.13"/><line class="cls-4" x1="280.18" y1="35.22" x2="282.91" y2="32.49"/><line class="cls-4" x1="283.82" y1="31.58" x2="283.82" y2="31.58"/><line class="cls-4" x1="284.73" y1="30.66" x2="287.47" y2="27.91"/><line class="cls-4" x1="288.38" y1="27" x2="288.38" y2="27"/><line class="cls-4" x1="289.29" y1="26.09" x2="292.04" y2="23.35"/><line class="cls-4" x1="292.95" y1="22.44" x2="292.95" y2="22.44"/><line class="cls-4" x1="276.17" y1="46.52" x2="277.42" y2="45.26"/><line class="cls-4" x1="278.33" y1="44.35" x2="278.33" y2="44.35"/><line class="cls-4" x1="279.24" y1="43.44" x2="282" y2="40.71"/><line class="cls-4" x1="282.91" y1="39.77" x2="282.91" y2="39.77"/><line class="cls-4" x1="283.82" y1="38.86" x2="286.55" y2="36.13"/><line class="cls-4" x1="287.47" y1="35.22" x2="287.47" y2="35.22"/><line class="cls-4" x1="288.38" y1="34.31" x2="291.13" y2="31.58"/><line class="cls-4" x1="292.04" y1="30.66" x2="292.04" y2="30.66"/><line class="cls-4" x1="292.95" y1="29.75" x2="293.39" y2="29.3"/><line class="cls-4" x1="276.17" y1="53.83" x2="276.51" y2="53.48"/><line class="cls-4" x1="277.42" y1="52.57" x2="277.42" y2="52.57"/><line class="cls-4" x1="278.33" y1="51.66" x2="281.09" y2="48.91"/><line class="cls-4" x1="282" y1="48" x2="282" y2="48"/><line class="cls-4" x1="282.91" y1="47.08" x2="285.64" y2="44.35"/><line class="cls-4" x1="286.55" y1="43.44" x2="286.55" y2="43.44"/><line class="cls-4" x1="287.47" y1="42.53" x2="290.22" y2="39.77"/><line class="cls-4" x1="291.13" y1="38.86" x2="291.13" y2="38.86"/><line class="cls-4" x1="292.04" y1="37.95" x2="293.39" y2="36.61"/><line class="cls-4" x1="276.51" y1="60.79" x2="276.51" y2="60.79"/><line class="cls-4" x1="277.42" y1="59.86" x2="280.18" y2="57.13"/><line class="cls-4" x1="281.09" y1="56.22" x2="281.09" y2="56.22"/><line class="cls-4" x1="282" y1="55.31" x2="284.73" y2="52.57"/><line class="cls-4" x1="285.64" y1="51.66" x2="285.64" y2="51.66"/><line class="cls-4" x1="286.55" y1="50.75" x2="289.29" y2="48"/><line class="cls-4" x1="290.22" y1="47.08" x2="290.22" y2="47.08"/><line class="cls-4" x1="291.13" y1="46.17" x2="293.39" y2="43.92"/><line class="cls-4" x1="276.51" y1="68.08" x2="279.24" y2="65.35"/><line class="cls-4" x1="280.18" y1="64.44" x2="280.18" y2="64.44"/><line class="cls-4" x1="281.09" y1="63.53" x2="283.82" y2="60.79"/><line class="cls-4" x1="284.73" y1="59.86" x2="284.73" y2="59.86"/><line class="cls-4" x1="285.64" y1="58.95" x2="288.38" y2="56.22"/><line class="cls-4" x1="289.29" y1="55.31" x2="289.29" y2="55.31"/><line class="cls-4" x1="290.22" y1="54.4" x2="292.95" y2="51.66"/><line class="cls-4" x1="276.17" y1="75.73" x2="278.33" y2="73.57"/><line class="cls-4" x1="279.24" y1="72.66" x2="279.24" y2="72.66"/><line class="cls-4" x1="280.18" y1="71.75" x2="282.91" y2="68.99"/><line class="cls-4" x1="283.82" y1="68.08" x2="283.82" y2="68.08"/><line class="cls-4" x1="284.73" y1="67.17" x2="287.47" y2="64.44"/><line class="cls-4" x1="288.38" y1="63.53" x2="288.38" y2="63.53"/><line class="cls-4" x1="289.29" y1="62.62" x2="292.04" y2="59.86"/><line class="cls-4" x1="292.95" y1="58.95" x2="292.95" y2="58.95"/><line class="cls-4" x1="276.17" y1="83.05" x2="277.42" y2="81.79"/><line class="cls-4" x1="278.33" y1="80.86" x2="278.33" y2="80.86"/><line class="cls-4" x1="279.24" y1="79.95" x2="282" y2="77.21"/><line class="cls-4" x1="282.91" y1="76.3" x2="282.91" y2="76.3"/><line class="cls-4" x1="283.82" y1="75.39" x2="286.55" y2="72.66"/><line class="cls-4" x1="287.47" y1="71.75" x2="287.47" y2="71.75"/><line class="cls-4" x1="288.38" y1="70.82" x2="291.13" y2="68.08"/><line class="cls-4" x1="292.04" y1="67.17" x2="292.04" y2="67.17"/><line class="cls-4" x1="292.95" y1="66.26" x2="293.39" y2="65.83"/><line class="cls-4" x1="280.06" y1="86.44" x2="281.09" y2="85.44"/><line class="cls-4" x1="282" y1="84.53" x2="282" y2="84.53"/><line class="cls-4" x1="282.91" y1="83.61" x2="285.64" y2="80.86"/><line class="cls-4" x1="286.55" y1="79.95" x2="286.55" y2="79.95"/><line class="cls-4" x1="287.47" y1="79.04" x2="290.22" y2="76.3"/><line class="cls-4" x1="291.13" y1="75.39" x2="291.13" y2="75.39"/><line class="cls-4" x1="292.04" y1="74.48" x2="293.39" y2="73.14"/><line class="cls-4" x1="287.37" y1="86.44" x2="289.29" y2="84.53"/><line class="cls-4" x1="290.22" y1="83.61" x2="290.22" y2="83.61"/><line class="cls-4" x1="291.13" y1="82.7" x2="293.39" y2="80.43"/><polyline class="cls-4" points="293.39 86.44 276.17 86.44 276.17 0.38 293.39 0.38 293.39 86.44"/><line class="cls-5" x1="275.79" y1="349.73" x2="274.29" y2="349.73"/><line class="cls-6" x1="271.27" y1="349.73" x2="127.65" y2="349.73"/><polyline class="cls-5" points="126.14 349.73 124.64 349.73 124.64 348.23"/><line class="cls-7" x1="124.64" y1="345.19" x2="124.64" y2="249.44"/><line class="cls-5" x1="124.64" y1="247.92" x2="124.64" y2="246.42"/><line class="cls-5" x1="25.95" y1="246.71" x2="26.95" y2="246.71"/><line class="cls-8" x1="28.91" y1="246.71" x2="102.62" y2="246.71"/><line class="cls-5" x1="103.6" y1="246.71" x2="104.6" y2="246.71"/><line class="cls-5" x1="25.95" y1="239.81" x2="26.95" y2="239.81"/><line class="cls-8" x1="28.91" y1="239.81" x2="102.62" y2="239.81"/><line class="cls-5" x1="103.6" y1="239.81" x2="104.6" y2="239.81"/><line class="cls-5" x1="117.31" y1="158.47" x2="117.31" y2="157.47"/><line class="cls-9" x1="117.31" y1="155.44" x2="117.31" y2="99.86"/><line class="cls-5" x1="117.31" y1="98.85" x2="117.31" y2="97.85"/><line class="cls-5" x1="110.43" y1="158.24" x2="110.43" y2="157.24"/><line class="cls-9" x1="110.43" y1="155.22" x2="110.43" y2="99.64"/><line class="cls-5" x1="110.43" y1="98.63" x2="110.43" y2="97.63"/><text class="cls-10" transform="translate(128.69 440.46)">CT</text><text class="cls-10" transform="translate(110.93 477.44)">18.12</text><text class="cls-10" transform="translate(107.24 404.05)">№118</text><polyline class="cls-4" points="99.1 486.79 99.1 378.02 189.8 378.02 189.8 486.79"/><line class="cls-4" x1="99.1" y1="414.35" x2="189.8" y2="414.35"/><line class="cls-4" x1="99.1" y1="486.79" x2="189.8" y2="486.79"/><line class="cls-4" x1="99.1" y1="450.67" x2="189.8" y2="450.67"/><text class="cls-11" transform="translate(123.64 569.05)">9.95</text><text class="cls-11" transform="translate(152.46 321.04)">2.11</text><text class="cls-11" transform="translate(38.45 136.36)">3.18</text><text class="cls-11" transform="translate(142.16 136.36)">2.88</text></svg>