<svg id="_6" data-name="6" xmlns="http://www.w3.org/2000/svg" viewBox="0 0 670.72 1031.8"><defs><style>.cls-1{isolation:isolate;font-size:12px;fill:#969696;}.cls-1,.cls-10,.cls-8{font-family:PTSans-Regular, PT Sans;}.cls-2{letter-spacing:-0.01em;}.cls-3,.cls-4,.cls-5,.cls-6,.cls-7,.cls-9{fill:none;stroke-linecap:round;stroke-linejoin:round;}.cls-3{stroke:#969696;}.cls-3,.cls-9{stroke-width:0.75px;}.cls-4,.cls-5,.cls-6,.cls-7,.cls-9{stroke:#000;}.cls-4,.cls-5{stroke-width:0.25px;}.cls-5{stroke-dasharray:0.99 0.99;}.cls-6{stroke-width:1.5px;}.cls-7{stroke-width:0.55px;}.cls-8{font-size:40px;}.cls-10{font-size:36px;}</style></defs><title>1floor_6office</title><text class="cls-1" transform="translate(326.98 1028.6)"><tspan class="cls-2">у</tspan><tspan x="5.42" y="0">лица</tspan></text><line class="cls-3" x1="316.22" y1="1031.43" x2="316.22" y2="1022.63"/><polyline class="cls-3" points="312.72 1027.93 316.22 1031.43 319.72 1027.93"/><line class="cls-4" x1="428.96" y1="186.23" x2="428.96" y2="185.73"/><line class="cls-5" x1="428.96" y1="184.74" x2="428.96" y2="78.06"/><line class="cls-4" x1="428.96" y1="77.56" x2="428.96" y2="77.06"/><line class="cls-4" x1="436.57" y1="186.23" x2="436.57" y2="185.73"/><line class="cls-5" x1="436.57" y1="184.74" x2="436.57" y2="78.06"/><line class="cls-4" x1="436.57" y1="77.56" x2="436.57" y2="77.06"/><line class="cls-6" x1="1.23" y1="22.17" x2="1.23" y2="412.75"/><line class="cls-6" x1="1.23" y1="508.02" x2="1.23" y2="727.1"/><line class="cls-6" x1="20.29" y1="727.1" x2="20.29" y2="508.02"/><line class="cls-6" x1="20.29" y1="412.75" x2="20.29" y2="41.23"/><line class="cls-6" x1="669.97" y1="3.12" x2="467.97" y2="3.12"/><line class="cls-6" x1="467.97" y1="22.17" x2="650.91" y2="22.17"/><polyline class="cls-6" points="669.97 3.12 669.97 22.17 669.97 166.95"/><polyline class="cls-6" points="650.91 22.17 650.91 166.95 669.97 166.95"/><line class="cls-6" x1="372.75" y1="3.12" x2="83.15" y2="3.12"/><line class="cls-6" x1="102.2" y1="22.17" x2="372.75" y2="22.17"/><line class="cls-6" x1="317.5" y1="303.21" x2="256.51" y2="303.21"/><line class="cls-6" x1="267.95" y1="314.6" x2="306.06" y2="314.6"/><polyline class="cls-6" points="256.51 303.21 256.51 314.6 256.51 373.68"/><line class="cls-6" x1="267.95" y1="362.24" x2="267.95" y2="314.6"/><polyline class="cls-6" points="256.51 373.68 267.95 373.68 317.5 373.68"/><line class="cls-6" x1="306.06" y1="362.24" x2="267.95" y2="362.24"/><line class="cls-6" x1="317.5" y1="373.68" x2="317.5" y2="362.24"/><polyline class="cls-6" points="317.5 303.21 317.5 314.6 317.5 362.24"/><line class="cls-6" x1="306.06" y1="314.6" x2="306.06" y2="362.24"/><line class="cls-6" x1="325.11" y1="403.22" x2="372.75" y2="403.22"/><line class="cls-6" x1="384.19" y1="391.78" x2="313.67" y2="391.78"/><line class="cls-6" x1="372.75" y1="403.22" x2="372.75" y2="441.33"/><polyline class="cls-6" points="384.19 391.78 384.19 403.22 384.19 452.77"/><line class="cls-6" x1="372.75" y1="441.33" x2="327.48" y2="441.33"/><polyline class="cls-6" points="384.19 452.77 372.75 452.77 327.48 452.77"/><line class="cls-6" x1="325.11" y1="412.75" x2="325.11" y2="403.22"/><polyline class="cls-6" points="313.67 391.78 313.67 403.22 313.67 412.75"/><line class="cls-6" x1="428.96" y1="81.71" x2="436.57" y2="81.71"/><polyline class="cls-6" points="428.96 181.72 436.57 181.72 436.57 238.43"/><line class="cls-6" x1="436.57" y1="81.71" x2="436.57" y2="24.54"/><line class="cls-6" x1="428.96" y1="24.54" x2="428.96" y2="81.71"/><line class="cls-6" x1="428.96" y1="181.72" x2="428.96" y2="246.04"/><polyline class="cls-6" points="428.96 246.04 436.57 246.04 650.91 246.04 650.91 238.43 436.57 238.43"/><line class="cls-6" x1="291.74" y1="741.42" x2="291.74" y2="842.39"/><polyline class="cls-6" points="306.06 727.1 306.06 803.32 306.06 831.35 306.06 803.32"/><line class="cls-6" x1="325.11" y1="727.1" x2="325.11" y2="708.05"/><line class="cls-6" x1="290.84" y1="742.32" x2="290.84" y2="842.39"/><polyline class="cls-6" points="290.84 741.42 291.74 741.42 290.84 741.42 192.18 741.42"/><polyline class="cls-6" points="291.74 727.1 306.06 727.1 291.74 727.1 184.22 727.1"/><polyline class="cls-6" points="325.11 708.05 306.06 708.05 173.63 708.05"/><line class="cls-6" x1="192.69" y1="742.32" x2="290.84" y2="742.32"/><polyline class="cls-6" points="192.69 742.33 173.63 742.33 192.69 742.33"/><line class="cls-6" x1="173.63" y1="741.42" x2="192.18" y2="741.42"/><line class="cls-6" x1="173.63" y1="727.1" x2="184.22" y2="727.1"/><line class="cls-6" x1="173.63" y1="708.05" x2="173.63" y2="727.1"/><line class="cls-6" x1="173.63" y1="727.1" x2="173.63" y2="741.42"/><line class="cls-6" x1="173.63" y1="742.32" x2="173.63" y2="822.38"/><line class="cls-6" x1="192.69" y1="822.38" x2="192.69" y2="742.32"/><line class="cls-6" x1="29.82" y1="822.38" x2="29.82" y2="603.24"/><line class="cls-6" x1="20.29" y1="603.24" x2="20.29" y2="822.38"/><line class="cls-6" x1="30.72" y1="822.38" x2="30.72" y2="603.24"/><line class="cls-6" x1="1.23" y1="822.38" x2="1.23" y2="603.24"/><polyline class="cls-6" points="306.06 842.39 306.06 841.43 306.06 842.39 302.23 842.39 306.06 842.39"/><line class="cls-6" x1="598.03" y1="842.39" x2="658.52" y2="842.39"/><line class="cls-6" x1="306.06" y1="842.39" x2="374.16" y2="842.39"/><polyline class="cls-6" points="306.06 841.43 306.06 831.35 306.06 841.43"/><line class="cls-6" x1="601.86" y1="841.43" x2="658.52" y2="841.43"/><line class="cls-6" x1="306.06" y1="841.43" x2="370.38" y2="841.43"/><line class="cls-6" x1="601.86" y1="834.78" x2="601.86" y2="803.32"/><line class="cls-6" x1="598.03" y1="853.78" x2="598.03" y2="842.39"/><line class="cls-6" x1="601.86" y1="841.43" x2="601.86" y2="834.78"/><line class="cls-6" x1="370.38" y1="834.78" x2="370.38" y2="803.32"/><line class="cls-6" x1="374.16" y1="853.78" x2="374.16" y2="842.39"/><line class="cls-6" x1="370.38" y1="841.43" x2="370.38" y2="834.78"/><line class="cls-6" x1="173.63" y1="853.78" x2="374.16" y2="853.78"/><line class="cls-6" x1="598.03" y1="853.78" x2="658.52" y2="853.78"/><line class="cls-6" x1="650.91" y1="803.32" x2="601.86" y2="803.32"/><line class="cls-6" x1="370.38" y1="803.32" x2="325.11" y2="803.32"/><line class="cls-6" x1="374.16" y1="853.78" x2="598.03" y2="853.78"/><line class="cls-6" x1="370.38" y1="803.32" x2="601.86" y2="803.32"/><polyline class="cls-6" points="370.38 841.43 379.86 841.43 379.86 834.78 370.38 834.78"/><polyline class="cls-6" points="486.12 834.78 481.33 834.78 481.33 841.43 486.12 841.43"/><line class="cls-6" x1="379.86" y1="838.1" x2="481.33" y2="838.1"/><line class="cls-6" x1="379.86" y1="841.43" x2="481.33" y2="841.43"/><line class="cls-6" x1="481.33" y1="834.78" x2="379.86" y2="834.78"/><polyline class="cls-6" points="486.12 841.43 490.86 841.43 490.86 834.78 486.12 834.78"/><polyline class="cls-6" points="601.86 834.78 592.34 834.78 592.34 841.43 601.86 841.43"/><line class="cls-6" x1="490.86" y1="838.1" x2="592.34" y2="838.1"/><line class="cls-6" x1="490.86" y1="841.43" x2="592.34" y2="841.43"/><line class="cls-6" x1="592.34" y1="834.78" x2="490.86" y2="834.78"/><polyline class="cls-6" points="370.38 834.78 370.38 841.43 370.38 834.78"/><polyline class="cls-6" points="370.38 841.43 374.16 841.43 370.38 841.43"/><polyline class="cls-6" points="374.16 853.78 374.16 842.39 374.16 841.43"/><line class="cls-6" x1="370.38" y1="834.78" x2="370.38" y2="803.32"/><polyline class="cls-6" points="601.86 834.78 601.86 841.43 601.86 834.78"/><polyline class="cls-6" points="601.86 841.43 598.03 841.43 601.86 841.43"/><polyline class="cls-6" points="598.03 853.78 598.03 842.39 598.03 841.43"/><line class="cls-6" x1="601.86" y1="834.78" x2="601.86" y2="803.32"/><line class="cls-6" x1="658.52" y1="842.39" x2="666.13" y2="842.39"/><line class="cls-6" x1="658.52" y1="841.43" x2="666.13" y2="841.43"/><line class="cls-6" x1="666.13" y1="834.78" x2="666.13" y2="803.32"/><line class="cls-6" x1="666.13" y1="853.78" x2="666.13" y2="842.39"/><line class="cls-6" x1="666.13" y1="841.43" x2="666.13" y2="834.78"/><line class="cls-6" x1="658.52" y1="853.78" x2="666.13" y2="853.78"/><line class="cls-6" x1="666.13" y1="803.32" x2="666.13" y2="803.32"/><polyline class="cls-6" points="666.13 834.78 666.13 841.43 666.13 834.78"/><polyline class="cls-6" points="666.13 841.43 666.13 841.43 666.13 841.43"/><polyline class="cls-6" points="666.13 853.78 666.13 842.39 666.13 841.43"/><line class="cls-6" x1="666.13" y1="834.78" x2="666.13" y2="803.32"/><line class="cls-6" x1="173.63" y1="841.43" x2="192.69" y2="841.43"/><line class="cls-6" x1="192.69" y1="822.38" x2="173.63" y2="822.38"/><line class="cls-6" x1="30.72" y1="853.78" x2="1.23" y2="853.78"/><line class="cls-6" x1="30.72" y1="822.38" x2="1.23" y2="822.38"/><polyline class="cls-6" points="1.23 841.43 1.23 822.38 1.23 822.38 1.23 841.43 1.23 841.43"/><polyline class="cls-6" points="30.72 841.43 30.72 822.38 21.2 822.38 21.2 841.43 30.72 841.43"/><line class="cls-6" x1="21.19" y1="836.64" x2="1.23" y2="836.64"/><polyline class="cls-6" points="30.72 822.38 30.72 841.43 30.72 822.38"/><polyline class="cls-6" points="1.23 822.38 1.23 853.78 1.23 822.38"/><line class="cls-6" x1="192.69" y1="841.43" x2="290.84" y2="841.43"/><line class="cls-6" x1="192.69" y1="822.38" x2="290.84" y2="822.38"/><polyline class="cls-6" points="192.69 841.43 195.06 841.43 195.06 839.06 197.48 839.06 197.48 822.38 192.69 822.38"/><polyline class="cls-6" points="290.84 822.38 286.05 822.38 286.05 839.06 288.42 839.06 288.42 841.43 290.84 841.43"/><line class="cls-6" x1="288.42" y1="843.8" x2="207.56" y2="890.48"/><line class="cls-6" x1="286.05" y1="822.38" x2="197.48" y2="822.38"/><polyline class="cls-6" points="195.06 843.8 199.85 843.8 283.68 843.8"/><polyline class="cls-6" points="199.85 843.8 199.85 839.06 195.06 839.06 195.06 843.8"/><polyline class="cls-6" points="288.42 839.06 283.68 839.06 283.68 843.8 288.42 843.8 288.42 839.06"/><line class="cls-6" x1="283.68" y1="839.06" x2="199.85" y2="839.06"/><line class="cls-6" x1="199.85" y1="843.8" x2="283.68" y2="843.8"/><line class="cls-6" x1="199.85" y1="841.43" x2="283.68" y2="841.43"/><path class="cls-6" d="M195.11,843.77a93.35,93.35,0,0,0,12.5,46.67"/><polyline class="cls-6" points="192.69 822.38 192.69 841.43 192.69 822.38"/><polyline class="cls-6" points="290.84 822.38 290.84 841.43 290.84 822.38"/><path class="cls-6" d="M35.54,927.13a85.72,85.72,0,0,0,85.72-85.73"/><path class="cls-6" d="M121.31,841.4A47.61,47.61,0,0,0,168.92,889"/><polyline class="cls-6" points="35.51 850.96 37.88 850.96 37.88 917.65 35.51 917.65 35.51 850.96"/><polyline class="cls-6" points="37.88 850.96 40.25 850.96 40.25 917.65 37.88 917.65 37.88 850.96"/><polyline class="cls-6" points="168.9 879.54 168.9 850.96 166.47 850.96 166.47 879.54 168.9 879.54"/><polyline class="cls-6" points="166.47 879.54 166.47 850.96 164.11 850.96 164.11 879.54 166.47 879.54"/><polyline class="cls-6" points="168.9 834.78 168.9 841.43 173.63 841.43 173.63 834.78 168.9 834.78"/><polyline class="cls-6" points="30.72 841.43 35.51 841.43 35.51 834.78 30.72 834.78"/><polyline class="cls-6" points="35.51 927.18 35.51 917.65 40.25 917.65 40.25 927.18 35.51 927.18"/><polyline class="cls-6" points="40.25 841.43 40.25 850.96 35.51 850.96 35.51 841.43 40.25 841.43"/><line class="cls-6" x1="37.88" y1="917.65" x2="37.88" y2="850.96"/><polyline class="cls-6" points="168.9 889.07 168.9 879.54 164.11 879.54 164.11 889.07 168.9 889.07"/><polyline class="cls-6" points="164.11 841.43 164.11 850.96 168.9 850.96 168.9 841.43 164.11 841.43"/><line class="cls-6" x1="166.48" y1="879.54" x2="166.48" y2="850.96"/><polyline class="cls-6" points="173.63 822.38 173.63 834.78 173.63 841.43 173.63 834.78"/><line class="cls-6" x1="20.29" y1="41.23" x2="102.2" y2="41.23"/><polyline class="cls-6" points="1.23 22.17 20.29 22.17 83.15 22.17"/><line class="cls-6" x1="102.2" y1="41.23" x2="102.2" y2="22.17"/><line class="cls-6" x1="83.15" y1="3.12" x2="83.15" y2="22.17"/><polyline class="cls-6" points="173.63 603.25 173.63 593.72 183.16 593.72"/><path class="cls-6" d="M35.54,688.94a85.72,85.72,0,0,0,85.72-85.72"/><path class="cls-6" d="M121.31,603.22a47.61,47.61,0,0,0,47.61,47.61"/><polyline class="cls-6" points="35.51 612.77 37.88 612.77 37.88 679.46 35.51 679.46 35.51 612.77"/><polyline class="cls-6" points="37.88 612.77 40.25 612.77 40.25 679.46 37.88 679.46 37.88 612.77"/><polyline class="cls-6" points="168.9 641.35 168.9 612.77 166.47 612.77 166.47 641.35 168.9 641.35"/><polyline class="cls-6" points="166.47 641.35 166.47 612.77 164.11 612.77 164.11 641.35 166.47 641.35"/><line class="cls-6" x1="27.9" y1="603.24" x2="20.29" y2="603.24"/><line class="cls-6" x1="27.9" y1="593.72" x2="20.29" y2="593.72"/><polyline class="cls-6" points="168.9 593.72 168.9 603.25 173.63 603.25 173.63 593.72 168.9 593.72"/><polyline class="cls-6" points="27.9 593.72 27.9 603.25 35.51 603.25 35.51 593.72 27.9 593.72"/><polyline class="cls-6" points="35.51 688.99 35.51 679.46 40.25 679.46 40.25 688.99 35.51 688.99"/><polyline class="cls-6" points="40.25 603.25 40.25 612.77 35.51 612.77 35.51 603.25 40.25 603.25"/><line class="cls-6" x1="37.88" y1="679.46" x2="37.88" y2="612.77"/><polyline class="cls-6" points="168.9 650.88 168.9 641.35 164.11 641.35 164.11 650.88 168.9 650.88"/><polyline class="cls-6" points="164.11 603.25 164.11 612.77 168.9 612.77 168.9 603.25 164.11 603.25"/><line class="cls-6" x1="166.48" y1="641.35" x2="166.48" y2="612.77"/><polyline class="cls-6" points="173.63 593.72 173.63 603.25 173.63 593.72"/><line class="cls-6" x1="173.63" y1="708.05" x2="183.16" y2="708.05"/><polyline class="cls-6" points="173.63 603.25 183.16 603.25 183.16 593.72"/><line class="cls-6" x1="173.63" y1="603.24" x2="173.63" y2="708.05"/><line class="cls-6" x1="183.16" y1="603.24" x2="183.16" y2="708.05"/><line class="cls-6" x1="173.63" y1="603.24" x2="173.63" y2="608.03"/><line class="cls-6" x1="173.63" y1="608.03" x2="183.16" y2="608.03"/><line class="cls-6" x1="183.16" y1="608.03" x2="183.16" y2="603.24"/><line class="cls-6" x1="183.16" y1="708.05" x2="183.16" y2="698.52"/><line class="cls-6" x1="183.16" y1="698.52" x2="173.63" y2="698.52"/><line class="cls-6" x1="173.63" y1="698.52" x2="173.63" y2="708.05"/><line class="cls-6" x1="178.42" y1="608.03" x2="178.42" y2="698.52"/><line class="cls-6" x1="173.63" y1="608.03" x2="173.63" y2="698.52"/><line class="cls-6" x1="183.16" y1="698.52" x2="183.16" y2="608.03"/><line class="cls-6" x1="188.86" y1="822.38" x2="188.86" y2="742.32"/><line class="cls-6" x1="290.84" y1="853.78" x2="302.23" y2="853.78"/><line class="cls-6" x1="302.23" y1="842.39" x2="298.6" y2="842.39"/><polyline class="cls-6" points="298.6 842.39 291.74 842.39 290.84 842.39 290.84 853.78"/><polyline class="cls-6" points="545.15 43.95 545.15 22.17 493.73 22.17 493.73 43.95"/><line class="cls-6" x1="511.33" y1="22.17" x2="527.56" y2="22.17"/><line class="cls-6" x1="515.11" y1="39.62" x2="517.88" y2="39.62"/><line class="cls-6" x1="519.44" y1="35.33" x2="519.44" y2="38.05"/><line class="cls-6" x1="521.06" y1="39.62" x2="523.78" y2="39.62"/><line class="cls-6" x1="519.44" y1="41.23" x2="519.44" y2="43.95"/><path class="cls-6" d="M542,45.28a22.88,22.88,0,0,0-8.88-10.83"/><path class="cls-6" d="M533.15,34.43a23,23,0,0,0-13.66-3.21"/><path class="cls-6" d="M505.82,34.46A22.94,22.94,0,0,0,497,45.3"/><path class="cls-6" d="M519.49,31.22a23,23,0,0,0-13.66,3.21"/><path class="cls-6" d="M521.27,61.13a42.27,42.27,0,0,0,15.62-4.26"/><path class="cls-6" d="M493.75,43.92a13.09,13.09,0,0,0,4.88,10.77"/><path class="cls-6" d="M517.68,61.18a27,27,0,0,0,3.6,0"/><path class="cls-6" d="M533.88,35.23a93.52,93.52,0,0,0-28.78,0"/><path class="cls-6" d="M502.39,26.29a32.39,32.39,0,0,0-7.29,21"/><path class="cls-6" d="M519.48,23.18a64.55,64.55,0,0,0-14.73,1.6"/><path class="cls-6" d="M504.75,24.75a4.26,4.26,0,0,0-2.38,1.48"/><path class="cls-6" d="M519.47,25.2A109.87,109.87,0,0,0,505,26.25"/><path class="cls-6" d="M502.35,27.69a29.06,29.06,0,0,0-7.25,19.6"/><path class="cls-6" d="M505,26.25a4.27,4.27,0,0,0-2.64,1.42"/><path class="cls-6" d="M543.89,47.23a29.08,29.08,0,0,0-7.29-19.58"/><path class="cls-6" d="M543.84,47.25a32.35,32.35,0,0,0-7.33-21"/><path class="cls-6" d="M534,26.22a109.84,109.84,0,0,0-14.5-1"/><path class="cls-6" d="M534.15,24.75a64.5,64.5,0,0,0-14.72-1.57"/><path class="cls-6" d="M536.61,27.61A4.31,4.31,0,0,0,534,26.2"/><path class="cls-6" d="M536.56,26.22a4.33,4.33,0,0,0-2.38-1.47"/><path class="cls-6" d="M540.31,54.68a13.07,13.07,0,0,0,4.88-10.77"/><path class="cls-6" d="M536.9,56.88a20.18,20.18,0,0,0,3.42-2.21"/><path class="cls-6" d="M498.62,54.73a20.67,20.67,0,0,0,3.43,2.21"/><path class="cls-6" d="M502.07,56.88a42.31,42.31,0,0,0,15.62,4.25"/><path class="cls-6" d="M512.4,57.53a30.08,30.08,0,0,0,14.15,0"/><path class="cls-6" d="M539.36,51.61A7.68,7.68,0,0,0,542,45.26"/><path class="cls-6" d="M526.54,57.49a27.86,27.86,0,0,0,12.82-5.89"/><path class="cls-6" d="M496.93,45.27a7.65,7.65,0,0,0,2.65,6.34"/><path class="cls-6" d="M499.59,51.61a27.88,27.88,0,0,0,12.83,5.88"/><path class="cls-6" d="M522.82,39.59a3.35,3.35,0,1,0-3.35,3.35,3.35,3.35,0,0,0,3.35-3.35"/><path class="cls-6" d="M521.86,39.59A2.4,2.4,0,1,0,519.47,42a2.39,2.39,0,0,0,2.39-2.39"/><line class="cls-6" x1="636.24" y1="119.82" x2="602.62" y2="119.82"/><polyline class="cls-6" points="638.31 118.36 650.91 118.36 650.91 154.6"/><line class="cls-6" x1="630.34" y1="136.45" x2="630.34" y2="149.91"/><polyline class="cls-6" points="602.67 119.82 630.34 123.04 630.34 136.45"/><line class="cls-6" x1="602.67" y1="153.14" x2="630.34" y2="149.91"/><line class="cls-6" x1="602.67" y1="120.67" x2="630.34" y2="123.9"/><line class="cls-6" x1="602.67" y1="152.28" x2="630.34" y2="149.05"/><line class="cls-6" x1="636.29" y1="153.14" x2="602.62" y2="153.14"/><line class="cls-6" x1="650.91" y1="154.6" x2="638.31" y2="154.6"/><polyline class="cls-6" points="602.67 119.82 598.94 120.27 595.41 121.68 592.34 124 589.87 126.97 588.1 130.56 587.19 134.49 587.19 138.47 588.1 142.4 589.87 145.98 592.34 148.95 595.41 151.27 598.94 152.68 602.67 153.14"/><polyline class="cls-6" points="602.67 120.67 599.14 121.13 595.81 122.49 592.89 124.66 590.57 127.48 588.91 130.86 588.05 134.59 588.05 138.37 588.91 142.1 590.57 145.48 592.89 148.3 595.81 150.47 599.14 151.83 602.67 152.28"/><path class="cls-6" d="M636.2,120.2a153.61,153.61,0,0,0,0,32.44"/><path class="cls-6" d="M638.33,118.36a2.12,2.12,0,0,0-2.13,1.86"/><path class="cls-6" d="M636.2,152.67a2.12,2.12,0,0,0,2.13,1.88"/><path class="cls-6" d="M644.76,136.43a1.79,1.79,0,1,0-1.79,1.74,1.77,1.77,0,0,0,1.79-1.74"/><polyline class="cls-6" points="666.13 727.1 666.13 166.95 650.91 166.95 650.91 727.1"/><polyline class="cls-6" points="306.06 822.38 325.11 822.38 325.11 727.1 306.06 727.1"/><polyline class="cls-6" points="327.48 527.08 303.69 527.08 303.69 412.75 327.48 412.75 327.48 527.08"/><line class="cls-6" x1="1.23" y1="822.38" x2="20.29" y2="822.38"/><line class="cls-6" x1="20.29" y1="727.1" x2="1.23" y2="727.1"/><polyline class="cls-6" points="20.29 508.02 1.23 508.02 1.23 412.75 20.29 412.75 20.29 508.02"/><polyline class="cls-6" points="372.75 0.75 372.75 24.54 467.98 24.54 467.98 0.75 372.75 0.75"/><polyline class="cls-6" points="650.91 727.1 650.91 803.32 650.91 822.38 666.13 822.38 666.13 803.32 666.13 727.1"/><rect class="cls-7" x="0.27" y="853.78" width="183.94" height="140.5"/><line class="cls-7" x1="0.27" y1="853.78" x2="184.22" y2="994.28"/><line class="cls-7" x1="184.05" y1="855.53" x2="0.44" y2="994.28"/><line class="cls-6" x1="173.63" y1="853.78" x2="173.63" y2="829.95"/><text class="cls-8" transform="translate(483.75 448.17)">№6</text><text class="cls-8" transform="translate(467.23 501.9)">50.78</text><text class="cls-8" transform="translate(467.89 391.16)">Офис</text><polyline class="cls-9" points="445.1 518.57 445.1 350.69 585.11 350.69 585.11 518.57"/><line class="cls-9" x1="445.1" y1="406.75" x2="585.11" y2="406.75"/><line class="cls-9" x1="445.1" y1="518.56" x2="585.11" y2="518.56"/><line class="cls-9" x1="445.1" y1="462.82" x2="585.11" y2="462.82"/><text class="cls-10" transform="translate(472.02 666.15)">42.23</text><text class="cls-10" transform="translate(77.97 756.82)">3.45</text><text class="cls-10" transform="translate(482.83 152.71)">5.10</text></svg>