<svg xmlns="http://www.w3.org/2000/svg" width="19" height="26" viewBox="0 0 19 26">
    <g fill="none" fill-rule="evenodd" stroke="#CDA571">
        <path d="M1.693 11.88l-.021 4.481A7.828 7.828 0 0 0 9.5 24.19a7.828 7.828 0 0 0 7.828-7.828l-.021-4.48"/>
        <path d="M17.307 11.88a1.19 1.19 0 0 0 1.18-1.357c-.656-4.375-4.43-7.73-8.987-7.73-4.558 0-8.33 3.354-8.987 7.73a1.19 1.19 0 0 0 1.18 1.357h15.614z"/>
        <path stroke-linecap="round" d="M9.5 2.793V.5M9.5 25.374V24.19"/>
        <path d="M1.938 11.955l8.885-8.885M9.5 11.955l6.462-6.462M17.062 11.955L8.177 3.07M9.5 11.955L3.038 5.493"/>
    </g>
</svg>
