<svg id="_347" data-name="347" xmlns="http://www.w3.org/2000/svg" viewBox="0 0 370.06 694.11"><defs><style>.cls-1{isolation:isolate;font-size:12px;fill:#969696;}.cls-1,.cls-4,.cls-5,.cls-7{font-family:PTSans-Regular, PT Sans;}.cls-2{letter-spacing:-0.01em;}.cls-10,.cls-11,.cls-12,.cls-13,.cls-14,.cls-3,.cls-6,.cls-8,.cls-9{fill:none;stroke-linecap:round;stroke-linejoin:round;}.cls-3{stroke:#969696;stroke-width:0.75px;}.cls-4{font-size:40px;}.cls-5{font-size:40.54px;}.cls-10,.cls-11,.cls-12,.cls-13,.cls-14,.cls-6,.cls-8,.cls-9{stroke:#000;}.cls-12,.cls-13,.cls-6{stroke-width:0.5px;}.cls-7{font-size:36px;}.cls-10,.cls-11,.cls-8,.cls-9{stroke-width:0.25px;}.cls-9{stroke-dasharray:0.99 0.99;}.cls-10{stroke-dasharray:0.99 0.99;}.cls-11{stroke-dasharray:0.99 0.99;}.cls-12{stroke-dasharray:3.05 3.05;}.cls-13{stroke-dasharray:3 3;}</style></defs><title>9floor_347flat</title><text class="cls-1" transform="translate(176.78 690.91)"><tspan class="cls-2">у</tspan><tspan x="5.42" y="0">лица</tspan></text><line class="cls-3" x1="166.02" y1="693.74" x2="166.02" y2="684.94"/><polyline class="cls-3" points="162.52 690.24 166.02 693.74 169.52 690.24"/><text class="cls-4" transform="translate(84.33 402.84)">CT</text><text class="cls-5" transform="translate(58.32 453.02)">24.38</text><text class="cls-4" transform="translate(53.69 352.94)">№347</text><polyline class="cls-6" points="44.68 463.83 44.68 314.76 169 314.76 169 463.83"/><line class="cls-6" x1="44.68" y1="364.54" x2="169" y2="364.54"/><line class="cls-6" x1="44.68" y1="463.83" x2="169" y2="463.83"/><line class="cls-6" x1="44.68" y1="414.33" x2="169" y2="414.33"/><text class="cls-7" transform="translate(135.73 535.76)">13.89</text><text class="cls-7" transform="translate(75.75 129.83)">4.43</text><text class="cls-7" transform="translate(227.71 129.83)">3.57</text><text class="cls-7" transform="translate(220.29 314.76)">2.49</text><line class="cls-8" x1="198.89" y1="92.4" x2="198.89" y2="92.9"/><line class="cls-9" x1="198.89" y1="93.89" x2="198.89" y2="150.86"/><line class="cls-8" x1="198.89" y1="151.36" x2="198.89" y2="151.86"/><line class="cls-8" x1="205.63" y1="92.4" x2="205.63" y2="92.9"/><line class="cls-9" x1="205.63" y1="93.89" x2="205.63" y2="150.86"/><line class="cls-8" x1="205.63" y1="151.36" x2="205.63" y2="151.86"/><line class="cls-8" x1="146.77" y1="188.49" x2="146.27" y2="188.49"/><line class="cls-10" x1="145.28" y1="188.49" x2="72.3" y2="188.49"/><line class="cls-8" x1="71.8" y1="188.49" x2="71.3" y2="188.49"/><line class="cls-8" x1="146.77" y1="195.14" x2="146.27" y2="195.14"/><line class="cls-10" x1="145.28" y1="195.14" x2="72.3" y2="195.14"/><line class="cls-8" x1="71.8" y1="195.14" x2="71.3" y2="195.14"/><line class="cls-8" x1="26.11" y1="0.53" x2="26.61" y2="0.53"/><line class="cls-11" x1="27.61" y1="0.53" x2="102.69" y2="0.53"/><line class="cls-8" x1="103.19" y1="0.53" x2="103.69" y2="0.53"/><line class="cls-6" x1="352.78" y1="357.88" x2="351.28" y2="357.88"/><line class="cls-12" x1="348.23" y1="357.88" x2="203.39" y2="357.88"/><polyline class="cls-6" points="201.87 357.88 200.37 357.88 200.37 356.38"/><line class="cls-13" x1="200.37" y1="353.38" x2="200.37" y2="246.76"/><line class="cls-6" x1="200.37" y1="245.26" x2="200.37" y2="243.76"/><line class="cls-14" x1="44.98" y1="590.18" x2="107.84" y2="590.18"/><line class="cls-14" x1="279" y1="590.18" x2="369.56" y2="590.18"/><line class="cls-14" x1="275.63" y1="590.18" x2="275.63" y2="581.83"/><line class="cls-14" x1="111.21" y1="590.18" x2="111.21" y2="581.83"/><line class="cls-14" x1="275.63" y1="591.07" x2="275.63" y2="590.18"/><line class="cls-14" x1="111.21" y1="591.07" x2="111.21" y2="590.18"/><line class="cls-14" x1="279" y1="581.83" x2="279" y2="581.83"/><polyline class="cls-14" points="279 590.18 276.52 590.18 276.52 581.83 276.52 590.18"/><line class="cls-14" x1="276.52" y1="591.07" x2="275.63" y2="591.07"/><line class="cls-14" x1="107.84" y1="581.83" x2="107.84" y2="581.83"/><polyline class="cls-14" points="107.83 590.18 110.41 590.18 110.41 581.83 110.41 590.18"/><line class="cls-14" x1="110.41" y1="591.07" x2="111.21" y2="591.07"/><polyline class="cls-14" points="279 581.83 279 576.77 279 560.88"/><polyline class="cls-14" points="107.83 581.83 107.83 576.77 107.83 560.88"/><line class="cls-14" x1="369.56" y1="560.88" x2="279" y2="560.88"/><polyline class="cls-14" points="107.83 560.88 34.95 560.88 34.95 581.83"/><line class="cls-14" x1="44.98" y1="591.07" x2="110.41" y2="591.07"/><line class="cls-14" x1="276.52" y1="591.07" x2="369.56" y2="591.07"/><polyline class="cls-14" points="275.63 591.07 111.21 591.07 111.21 595.24 275.63 595.24 275.63 591.07"/><line class="cls-14" x1="107.84" y1="560.88" x2="279" y2="560.88"/><polyline class="cls-14" points="107.83 576.77 112.45 576.77 112.45 580.15 114.58 580.15 114.58 581.83 107.83 581.83"/><polyline class="cls-14" points="165.99 581.83 162.7 581.83 162.7 580.15 164.74 580.15 164.74 576.77 165.99 576.77"/><line class="cls-14" x1="162.7" y1="581.83" x2="114.58" y2="581.83"/><polyline class="cls-14" points="112.45 575.09 117.51 575.09 159.77 575.09"/><polyline class="cls-14" points="117.51 575.09 117.51 580.15 112.45 580.15 112.45 575.09"/><polyline class="cls-14" points="164.74 580.15 159.77 580.15 159.77 575.09 164.74 575.09 164.74 580.15"/><line class="cls-14" x1="159.77" y1="580.15" x2="117.51" y2="580.15"/><line class="cls-14" x1="117.51" y1="575.09" x2="159.77" y2="575.09"/><line class="cls-14" x1="117.51" y1="577.66" x2="159.77" y2="577.66"/><polyline class="cls-14" points="165.99 576.77 167.32 576.77 167.32 580.15 169.36 580.15 169.36 581.83 165.99 581.83"/><polyline class="cls-14" points="220.85 581.83 217.48 581.83 217.48 580.15 219.61 580.15 219.61 576.77 220.85 576.77"/><line class="cls-14" x1="217.48" y1="581.83" x2="169.36" y2="581.83"/><polyline class="cls-14" points="167.32 575.09 172.29 575.09 214.55 575.09"/><polyline class="cls-14" points="172.29 575.09 172.29 580.15 167.32 580.15 167.32 575.09"/><polyline class="cls-14" points="219.61 580.15 214.55 580.15 214.55 575.09 219.61 575.09 219.61 580.15"/><line class="cls-14" x1="214.55" y1="580.15" x2="172.29" y2="580.15"/><line class="cls-14" x1="172.29" y1="575.09" x2="214.55" y2="575.09"/><line class="cls-14" x1="172.29" y1="577.66" x2="214.55" y2="577.66"/><polyline class="cls-14" points="220.85 576.77 222.1 576.77 222.1 580.15 224.23 580.15 224.23 581.83 220.85 581.83"/><polyline class="cls-14" points="279 581.83 272.26 581.83 272.26 580.15 274.39 580.15 274.39 576.77 279 576.77"/><line class="cls-14" x1="272.26" y1="581.83" x2="224.23" y2="581.83"/><polyline class="cls-14" points="222.1 575.09 227.16 575.09 269.33 575.09"/><polyline class="cls-14" points="227.16 575.09 227.16 580.15 222.1 580.15 222.1 575.09"/><polyline class="cls-14" points="274.39 580.15 269.33 580.15 269.33 575.09 274.39 575.09 274.39 580.15"/><line class="cls-14" x1="269.33" y1="580.15" x2="227.16" y2="580.15"/><line class="cls-14" x1="227.16" y1="575.09" x2="269.33" y2="575.09"/><line class="cls-14" x1="227.16" y1="577.66" x2="269.33" y2="577.66"/><polyline class="cls-14" points="107.83 560.88 107.83 576.77 107.83 581.83 107.83 576.77"/><polyline class="cls-14" points="279 560.88 279 576.77 279 581.83 279 576.77"/><line class="cls-14" x1="111.21" y1="591.07" x2="111.21" y2="590.18"/><polyline class="cls-14" points="111.21 581.83 110.41 581.83 111.21 581.83"/><polyline class="cls-14" points="110.41 581.83 107.83 581.83 110.41 581.83"/><line class="cls-14" x1="275.63" y1="591.07" x2="275.63" y2="590.18"/><polyline class="cls-14" points="275.63 581.83 276.52 581.83 275.63 581.83"/><polyline class="cls-14" points="276.52 581.83 279 581.83 276.52 581.83"/><line class="cls-14" x1="111.21" y1="590.18" x2="111.21" y2="581.83"/><line class="cls-14" x1="275.63" y1="590.18" x2="275.63" y2="581.83"/><line class="cls-14" x1="0.5" y1="595.24" x2="34.86" y2="595.24"/><line class="cls-14" x1="0.5" y1="594.35" x2="34.86" y2="594.35"/><line class="cls-14" x1="34.95" y1="560.88" x2="0.5" y2="560.88"/><polyline class="cls-14" points="34.86 605.27 0.5 605.27 0.5 534.23"/><line class="cls-14" x1="34.95" y1="581.83" x2="34.95" y2="560.88"/><line class="cls-14" x1="199.28" y1="151.52" x2="206.03" y2="151.52"/><line class="cls-14" x1="199.28" y1="92.74" x2="206.03" y2="92.74"/><line class="cls-14" x1="206.03" y1="237.01" x2="206.03" y2="195.11"/><line class="cls-14" x1="206.03" y1="188.36" x2="206.03" y2="151.52"/><polyline class="cls-14" points="206.03 92.74 206.03 17.28 199.28 17.28 199.28 92.74"/><line class="cls-14" x1="199.28" y1="151.52" x2="199.28" y2="243.76"/><line class="cls-14" x1="199.28" y1="92.74" x2="206.03" y2="92.74"/><line class="cls-14" x1="199.28" y1="151.52" x2="206.03" y2="151.52"/><line class="cls-14" x1="147.25" y1="188.36" x2="147.25" y2="195.11"/><polyline class="cls-14" points="71.79 188.36 71.79 195.11 17.28 195.11"/><polyline class="cls-14" points="147.25 195.11 199.28 195.11 199.28 188.36 147.25 188.36"/><polyline class="cls-14" points="71.79 188.36 17.28 188.36 17.28 195.11"/><line class="cls-14" x1="71.79" y1="188.36" x2="71.79" y2="195.11"/><line class="cls-14" x1="147.25" y1="188.36" x2="147.25" y2="195.11"/><polyline class="cls-14" points="348.61 188.36 348.61 191.73 348.61 195.11"/><polyline class="cls-14" points="315.05 188.36 315.05 191.73 315.05 195.11"/><line class="cls-14" x1="206.03" y1="195.11" x2="304.13" y2="195.11"/><line class="cls-14" x1="310.88" y1="195.11" x2="315.05" y2="195.11"/><polyline class="cls-14" points="348.61 195.11 352.78 195.11 352.78 188.36 348.61 188.36"/><line class="cls-14" x1="315.05" y1="188.36" x2="206.03" y2="188.36"/><line class="cls-14" x1="315.05" y1="188.36" x2="348.61" y2="188.36"/><line class="cls-14" x1="315.05" y1="195.11" x2="348.61" y2="195.11"/><path class="cls-14" d="M316.94,176.35a33.5,33.5,0,0,0-2,11.46" transform="translate(0.22 0.5)"/><line class="cls-14" x1="348.61" y1="188.36" x2="317.09" y2="176.91"/><polyline class="cls-14" points="315.05 195.11 315.05 191.73 315.05 188.36 315.05 191.73"/><polyline class="cls-14" points="348.61 195.11 348.61 191.73 348.61 188.36 348.61 191.73"/><line class="cls-14" x1="310.88" y1="237.01" x2="310.88" y2="195.11"/><line class="cls-14" x1="304.13" y1="195.11" x2="304.13" y2="237.01"/><polyline class="cls-14" points="199.28 243.76 206.03 243.76 352.78 243.76 352.78 237.01 310.88 237.01"/><line class="cls-14" x1="304.13" y1="237.01" x2="206.03" y2="237.01"/><line class="cls-14" x1="0.5" y1="0.5" x2="0.5" y2="99.85"/><polyline class="cls-14" points="0.5 81.82 0.5 560.88 17.28 560.88 17.28 17.28"/><polyline class="cls-14" points="23.14 0.5 23.14 7.25 23.14 17.28"/><polyline class="cls-14" points="107.04 0.5 107.04 7.25 107.04 17.28"/><line class="cls-14" x1="369.56" y1="0.5" x2="130.56" y2="0.5"/><line class="cls-14" x1="139.99" y1="0.5" x2="107.04" y2="0.5"/><polyline class="cls-14" points="0.5 0.5 17.28 0.5 23.14 0.5"/><line class="cls-14" x1="17.28" y1="17.28" x2="23.14" y2="17.28"/><line class="cls-14" x1="107.04" y1="17.28" x2="352.78" y2="17.28"/><path class="cls-14" d="M26.34,83.9A77.19,77.19,0,0,0,103.53,6.7" transform="translate(0.22 0.5)"/><polyline class="cls-14" points="107.04 0.5 103.66 0.5 103.66 7.25 107.04 7.25 107.04 0.5"/><polyline class="cls-14" points="23.14 7.25 26.51 7.25 26.51 0.5 23.14 0.5 23.14 7.25"/><line class="cls-14" x1="26.51" y1="7.25" x2="26.51" y2="84.4"/><polyline class="cls-14" points="107.04 17.28 107.04 7.25 107.04 0.5 107.04 7.25"/><polyline class="cls-14" points="23.14 17.28 23.14 7.25 23.14 0.5 23.14 7.25"/><polyline class="cls-14" points="352.78 17.28 352.78 560.88 369.56 560.88"/><polyline class="cls-14" points="369.56 0.5 369.56 17.28 369.56 590.62"/><polyline class="cls-14" points="34.86 605.27 34.95 605.27 44.98 605.27 44.98 581.83 34.86 581.83 34.86 595.24"/><line class="cls-14" x1="346.39" y1="29" x2="346.39" y2="71.79"/><line class="cls-14" x1="341.59" y1="76.85" x2="237.81" y2="76.85"/><line class="cls-14" x1="341.59" y1="24.03" x2="237.81" y2="24.03"/><line class="cls-14" x1="208.51" y1="81.82" x2="351.18" y2="81.82"/><polyline class="cls-14" points="208.51 81.82 208.51 18.97 351.18 18.97 351.18 81.82"/><line class="cls-14" x1="254.5" y1="32.73" x2="335.73" y2="32.73"/><line class="cls-14" x1="338.13" y1="35.21" x2="338.13" y2="65.58"/><line class="cls-14" x1="254.5" y1="68.06" x2="335.73" y2="68.06"/><line class="cls-14" x1="321.44" y1="48.89" x2="321.44" y2="45.78"/><line class="cls-14" x1="322.86" y1="50.39" x2="325.79" y2="50.39"/><line class="cls-14" x1="321.44" y1="51.99" x2="321.44" y2="55.1"/><line class="cls-14" x1="319.93" y1="50.39" x2="317" y2="50.39"/><path class="cls-14" d="M237.63,23.44c-13.8,0-25,11.82-25,26.41s11.19,26.41,25,26.41" transform="translate(0.22 0.5)"/><path class="cls-14" d="M341.42,76.26a4.89,4.89,0,0,0,4.75-5" transform="translate(0.22 0.5)"/><path class="cls-14" d="M346.17,28.45a4.89,4.89,0,0,0-4.75-5" transform="translate(0.22 0.5)"/><path class="cls-14" d="M321.27,47.23a2.63,2.63,0,1,0,2.44,2.62,2.54,2.54,0,0,0-2.44-2.62" transform="translate(0.22 0.5)"/><path class="cls-14" d="M254.32,32.14c-9.19,0-16.64,7.93-16.64,17.71s7.45,17.71,16.64,17.71" transform="translate(0.22 0.5)"/><path class="cls-14" d="M337.91,34.67a2.44,2.44,0,0,0-2.35-2.53" transform="translate(0.22 0.5)"/><path class="cls-14" d="M335.56,67.56A2.44,2.44,0,0,0,337.91,65" transform="translate(0.22 0.5)"/><path class="cls-14" d="M321.27,46.34a3.52,3.52,0,1,0,3.32,3.51,3.42,3.42,0,0,0-3.32-3.51" transform="translate(0.22 0.5)"/><polyline class="cls-14" points="223.87 167.59 223.87 186.76 269.15 186.76 269.15 167.59"/><line class="cls-14" x1="253.7" y1="186.76" x2="239.41" y2="186.76"/><line class="cls-14" x1="250.33" y1="171.31" x2="247.93" y2="171.31"/><line class="cls-14" x1="246.51" y1="175.13" x2="246.51" y2="172.73"/><line class="cls-14" x1="245.09" y1="171.31" x2="242.69" y2="171.31"/><line class="cls-14" x1="246.51" y1="169.98" x2="246.51" y2="167.5"/><path class="cls-14" d="M226.48,165.85a20.21,20.21,0,0,0,7.84,9.55" transform="translate(0.22 0.5)"/><path class="cls-14" d="M234.32,175.38a20.33,20.33,0,0,0,12,2.83" transform="translate(0.22 0.5)"/><path class="cls-14" d="M258.44,175.4a20.13,20.13,0,0,0,7.83-9.55" transform="translate(0.22 0.5)"/><path class="cls-14" d="M246.4,178.21a20.33,20.33,0,0,0,12-2.83" transform="translate(0.22 0.5)"/><path class="cls-14" d="M244.76,151.83A37.25,37.25,0,0,0,231,155.57" transform="translate(0.22 0.5)"/><path class="cls-14" d="M269,167a11.52,11.52,0,0,0-4.29-9.46" transform="translate(0.22 0.5)"/><path class="cls-14" d="M247.92,151.78a24,24,0,0,0-3.17,0" transform="translate(0.22 0.5)"/><path class="cls-14" d="M233.66,174.63a82.81,82.81,0,0,0,25.34,0" transform="translate(0.22 0.5)"/><path class="cls-14" d="M261.35,182.56a28.41,28.41,0,0,0,6.42-18.49" transform="translate(0.22 0.5)"/><path class="cls-14" d="M246.35,185.28a55.94,55.94,0,0,0,13-1.4" transform="translate(0.22 0.5)"/><path class="cls-14" d="M259.33,183.86a3.8,3.8,0,0,0,2.09-1.29" transform="translate(0.22 0.5)"/><path class="cls-14" d="M246.35,183.51a97.7,97.7,0,0,0,12.78-.92" transform="translate(0.22 0.5)"/><path class="cls-14" d="M261.46,181.31a25.57,25.57,0,0,0,6.4-17.27" transform="translate(0.22 0.5)"/><path class="cls-14" d="M259.11,182.59a3.82,3.82,0,0,0,2.31-1.25" transform="translate(0.22 0.5)"/><path class="cls-14" d="M224.9,164.07a25.57,25.57,0,0,0,6.42,17.27" transform="translate(0.22 0.5)"/><path class="cls-14" d="M224.9,164.1a28.43,28.43,0,0,0,6.44,18.49" transform="translate(0.22 0.5)"/><path class="cls-14" d="M233.59,182.61a97.41,97.41,0,0,0,12.77.9" transform="translate(0.22 0.5)"/><path class="cls-14" d="M233.43,183.9a56.62,56.62,0,0,0,13,1.38" transform="translate(0.22 0.5)"/><path class="cls-14" d="M231.26,181.35a3.8,3.8,0,0,0,2.31,1.24" transform="translate(0.22 0.5)"/><path class="cls-14" d="M231.34,182.57a3.78,3.78,0,0,0,2.09,1.29" transform="translate(0.22 0.5)"/><path class="cls-14" d="M228,157.54a11.5,11.5,0,0,0-4.29,9.46" transform="translate(0.22 0.5)"/><path class="cls-14" d="M231,155.56a18.1,18.1,0,0,0-3,1.95" transform="translate(0.22 0.5)"/><path class="cls-14" d="M264.71,157.51a18.1,18.1,0,0,0-3-1.95" transform="translate(0.22 0.5)"/><path class="cls-14" d="M261.66,155.57a37.25,37.25,0,0,0-13.75-3.74" transform="translate(0.22 0.5)"/><path class="cls-14" d="M252.57,155a26.55,26.55,0,0,0-12.47,0" transform="translate(0.22 0.5)"/><path class="cls-14" d="M228.85,160.21a6.79,6.79,0,0,0-2.34,5.61" transform="translate(0.22 0.5)"/><path class="cls-14" d="M240.12,155a24.55,24.55,0,0,0-11.28,5.17" transform="translate(0.22 0.5)"/><path class="cls-14" d="M266.25,165.82a6.79,6.79,0,0,0-2.34-5.61" transform="translate(0.22 0.5)"/><path class="cls-14" d="M263.83,160.2A24.55,24.55,0,0,0,252.55,155" transform="translate(0.22 0.5)"/><path class="cls-14" d="M249.31,170.77a3,3,0,1,0-3,3,3,3,0,0,0,3-3" transform="translate(0.22 0.5)"/><path class="cls-14" d="M248.42,170.77a2.09,2.09,0,1,0-2.09,2.09,2.09,2.09,0,0,0,2.09-2.09" transform="translate(0.22 0.5)"/><line class="cls-14" x1="304.57" y1="173.8" x2="304.57" y2="144.24"/><polyline class="cls-14" points="303.33 175.57 303.33 186.76 335.2 186.76"/><line class="cls-14" x1="319.22" y1="168.65" x2="331.12" y2="168.65"/><polyline class="cls-14" points="304.57 144.24 307.41 168.65 319.22 168.65"/><line class="cls-14" x1="333.96" y1="144.24" x2="331.12" y2="168.65"/><line class="cls-14" x1="305.37" y1="144.24" x2="308.21" y2="168.65"/><line class="cls-14" x1="333.16" y1="144.24" x2="330.32" y2="168.65"/><line class="cls-14" x1="333.96" y1="173.8" x2="333.96" y2="144.24"/><line class="cls-14" x1="335.2" y1="186.76" x2="335.2" y2="175.57"/><polyline class="cls-14" points="304.57 144.24 305.02 140.95 306.26 137.84 308.3 135.18 310.88 132.96 314.07 131.45 317.53 130.65 321 130.65 324.46 131.45 327.65 132.96 330.23 135.18 332.27 137.84 333.51 140.95 333.96 144.24"/><polyline class="cls-14" points="305.37 144.24 305.73 141.13 306.97 138.2 308.83 135.62 311.32 133.58 314.34 132.07 317.62 131.36 320.91 131.36 324.19 132.07 327.21 133.58 329.7 135.62 331.56 138.2 332.8 141.13 333.16 144.24"/><path class="cls-14" d="M333.33,173.26a135.17,135.17,0,0,0-28.58,0" transform="translate(0.22 0.5)"/><path class="cls-14" d="M304.82,173.13a1.89,1.89,0,0,0-1.62,1.9" transform="translate(0.22 0.5)"/><path class="cls-14" d="M335,175a1.88,1.88,0,0,0-1.64-1.9" transform="translate(0.22 0.5)"/><path class="cls-14" d="M319.05,177.65a1.56,1.56,0,1,0,1.55,1.55,1.56,1.56,0,0,0-1.55-1.55" transform="translate(0.22 0.5)"/><polyline class="cls-14" points="304.13 294.1 304.13 247.93 350.29 247.93 350.29 294.1 304.13 294.1"/><polyline class="cls-14" points="346.12 289.92 308.39 289.92 308.39 256.37 346.12 256.37 346.12 289.92"/><polyline class="cls-14" points="195.55 593.11 195.55 639.27 195.11 639.27 195.11 593.11 195.55 593.11"/><polyline class="cls-14" points="196.79 640.52 273.94 640.52 273.94 640.96 196.79 640.96 196.79 640.52"/><polyline class="cls-14" points="275.19 639.27 275.19 593.11 275.63 593.11 275.63 639.27 275.19 639.27"/><polyline class="cls-14" points="196.79 591.07 196.79 593.11 194.66 593.11 194.66 591.07 196.79 591.07"/><polyline class="cls-14" points="196.79 639.27 196.79 641.4 194.66 641.4 194.66 639.27 196.79 639.27"/><polyline class="cls-14" points="273.94 639.27 276.07 639.27 276.07 641.4 273.94 641.4 273.94 639.27"/><polyline class="cls-14" points="273.94 593.11 273.94 591.07 276.07 591.07 276.07 593.11 273.94 593.11"/><line class="cls-14" x1="196.79" y1="592.13" x2="196.79" y2="639.27"/><line class="cls-14" x1="194.66" y1="641.4" x2="194.66" y2="592.13"/><line class="cls-14" x1="196.79" y1="639.27" x2="273.94" y2="639.27"/><line class="cls-14" x1="276.07" y1="641.4" x2="194.66" y2="641.4"/><line class="cls-14" x1="273.94" y1="639.27" x2="273.94" y2="592.13"/><line class="cls-14" x1="276.07" y1="592.13" x2="276.07" y2="641.4"/><polyline class="cls-14" points="194.66 592.13 194.66 591.07 196.79 591.07 196.79 592.13"/><polyline class="cls-14" points="273.94 592.13 273.94 591.07 276.07 591.07 276.07 592.13"/><polyline class="cls-14" points="276.07 641.4 194.66 641.4 194.66 592.13 196.79 592.13 196.79 639.27 273.94 639.27 273.94 592.13 276.07 592.13 276.07 641.4"/><polyline class="cls-14" points="271.9 626.31 198.92 626.31 198.92 599.41 271.9 599.41 271.9 626.31"/><polyline class="cls-14" points="271.9 623.56 198.92 623.56 198.92 599.41 271.9 599.41 271.9 623.56"/><polyline class="cls-14" points="17.28 216.95 0.5 216.95 0.5 300.84 17.28 300.84 17.28 216.95"/><polyline class="cls-14" points="369.56 216.95 352.78 216.95 352.78 300.84 369.56 300.84 369.56 216.95"/><polyline class="cls-14" points="17.28 493.76 0.5 493.76 0.5 577.66 17.28 577.66 17.28 493.76"/><polyline class="cls-14" points="369.56 493.76 352.78 493.76 352.78 577.66 369.56 577.66 369.56 493.76"/><polyline class="cls-14" points="285.75 0.5 285.75 17.28 369.56 17.28 369.56 0.5 285.75 0.5"/></svg>