<svg id="_2" data-name="2" xmlns="http://www.w3.org/2000/svg" viewBox="0 0 322.08 669.93"><defs><style>.cls-1{isolation:isolate;font-size:12px;fill:#969696;}.cls-1,.cls-10,.cls-11{font-family:PTSans-Regular, PT Sans;}.cls-2{letter-spacing:-0.01em;}.cls-3,.cls-4,.cls-5,.cls-6,.cls-7,.cls-8,.cls-9{fill:none;stroke-linecap:round;stroke-linejoin:round;}.cls-3{stroke:#969696;}.cls-3,.cls-4,.cls-9{stroke-width:0.75px;}.cls-4,.cls-5,.cls-6,.cls-7,.cls-8{stroke:#000;}.cls-5,.cls-6,.cls-7,.cls-8{stroke-width:0.25px;}.cls-6{stroke-dasharray:0.92 0.92;}.cls-7{stroke-dasharray:0.92 0.92;}.cls-8{stroke-dasharray:0.92 0.92;}.cls-9{stroke:#1c1c1c;}.cls-10{font-size:40px;}.cls-11{font-size:36px;}</style></defs><title>2floor_2flat</title><text class="cls-1" transform="translate(152.9 10.2)"><tspan class="cls-2">у</tspan><tspan x="5.42" y="0">лица</tspan></text><line class="cls-3" x1="142.14" y1="4.22" x2="142.14" y2="13.02"/><polyline class="cls-3" points="145.64 7.72 142.14 4.22 138.64 7.72"/><line class="cls-4" x1="66.23" y1="103.7" x2="66.23" y2="130.33"/><line class="cls-4" x1="69.39" y1="98.14" x2="69.39" y2="98.97"/><line class="cls-4" x1="69.39" y1="88.77" x2="69.39" y2="98.14"/><line class="cls-4" x1="69.39" y1="98.97" x2="66.23" y2="98.97"/><line class="cls-4" x1="66.23" y1="98.97" x2="66.23" y2="103.7"/><line class="cls-4" x1="226.15" y1="103.7" x2="226.15" y2="130.33"/><line class="cls-4" x1="223" y1="98.14" x2="223" y2="98.97"/><line class="cls-4" x1="223" y1="88.77" x2="223" y2="98.14"/><line class="cls-4" x1="223" y1="98.97" x2="226.15" y2="98.97"/><line class="cls-4" x1="226.15" y1="98.97" x2="226.15" y2="103.7"/><line class="cls-4" x1="14.48" y1="130.33" x2="66.23" y2="130.33"/><line class="cls-4" x1="226.15" y1="130.33" x2="321.7" y2="130.33"/><line class="cls-4" x1="321.7" y1="88.77" x2="223" y2="88.77"/><line class="cls-4" x1="69.39" y1="88.77" x2="14.48" y2="88.77"/><polyline class="cls-4" points="69.39 88.77 223 88.77 223 84.87 69.39 84.87 69.39 88.77"/><line class="cls-4" x1="226.15" y1="130.33" x2="66.23" y2="130.33"/><polyline class="cls-4" points="226.15 103.7 221.84 103.7 221.84 100.55 219.85 100.55 219.85 98.97 226.15 98.97"/><polyline class="cls-4" points="171.82 98.97 174.89 98.97 174.89 100.55 172.98 100.55 172.98 103.7 171.82 103.7"/><line class="cls-4" x1="174.89" y1="98.97" x2="219.85" y2="98.97"/><polyline class="cls-4" points="221.84 105.19 217.11 105.19 177.63 105.19"/><polyline class="cls-4" points="217.11 105.19 217.11 100.55 221.84 100.55 221.84 105.19"/><polyline class="cls-4" points="172.98 100.55 177.63 100.55 177.63 105.19 172.98 105.19 172.98 100.55"/><line class="cls-4" x1="177.63" y1="100.55" x2="217.11" y2="100.55"/><line class="cls-4" x1="217.11" y1="105.19" x2="177.63" y2="105.19"/><line class="cls-4" x1="217.11" y1="102.87" x2="177.63" y2="102.87"/><polyline class="cls-4" points="171.82 103.7 170.58 103.7 170.58 100.55 168.67 100.55 168.67 98.97 171.82 98.97"/><polyline class="cls-4" points="120.56 98.97 123.72 98.97 123.72 100.55 121.72 100.55 121.72 103.7 120.56 103.7"/><line class="cls-4" x1="123.71" y1="98.97" x2="168.67" y2="98.97"/><polyline class="cls-4" points="170.58 105.19 165.93 105.19 126.45 105.19"/><polyline class="cls-4" points="165.93 105.19 165.93 100.55 170.58 100.55 170.58 105.19"/><polyline class="cls-4" points="121.72 100.55 126.45 100.55 126.45 105.19 121.72 105.19 121.72 100.55"/><line class="cls-4" x1="126.45" y1="100.55" x2="165.93" y2="100.55"/><line class="cls-4" x1="165.93" y1="105.19" x2="126.45" y2="105.19"/><line class="cls-4" x1="165.93" y1="102.87" x2="126.45" y2="102.87"/><polyline class="cls-4" points="120.56 103.7 119.4 103.7 119.4 100.55 117.41 100.55 117.41 98.97 120.56 98.97"/><polyline class="cls-4" points="66.23 98.97 72.54 98.97 72.54 100.55 70.55 100.55 70.55 103.7 66.23 103.7"/><line class="cls-4" x1="72.54" y1="98.97" x2="117.41" y2="98.97"/><polyline class="cls-4" points="119.4 105.19 114.67 105.19 75.28 105.19"/><polyline class="cls-4" points="114.67 105.19 114.67 100.55 119.4 100.55 119.4 105.19"/><polyline class="cls-4" points="70.55 100.55 75.28 100.55 75.28 105.19 70.55 105.19 70.55 100.55"/><line class="cls-4" x1="75.27" y1="100.55" x2="114.67" y2="100.55"/><line class="cls-4" x1="114.67" y1="105.19" x2="75.27" y2="105.19"/><line class="cls-4" x1="114.67" y1="102.87" x2="75.27" y2="102.87"/><polyline class="cls-4" points="226.15 103.7 226.15 98.97 226.15 103.7"/><polyline class="cls-4" points="226.15 98.97 223 98.97 226.15 98.97"/><polyline class="cls-4" points="223 88.77 223 98.14 223 98.97"/><line class="cls-4" x1="226.15" y1="103.7" x2="226.15" y2="130.33"/><polyline class="cls-4" points="66.23 103.7 66.23 98.97 66.23 103.7"/><polyline class="cls-4" points="66.23 98.97 69.39 98.97 66.23 98.97"/><polyline class="cls-4" points="69.39 88.77 69.39 98.14 69.39 98.97"/><line class="cls-4" x1="66.23" y1="103.7" x2="66.23" y2="130.33"/><line class="cls-4" x1="0.38" y1="130.33" x2="14.48" y2="130.33"/><line class="cls-4" x1="14.48" y1="88.77" x2="0.38" y2="88.77"/><polyline class="cls-4" points="145.36 669.55 145.36 663.25 145.36 653.88"/><polyline class="cls-4" points="67.06 669.55 67.06 663.25 67.06 653.88"/><line class="cls-4" x1="306.03" y1="653.88" x2="145.36" y2="653.88"/><line class="cls-4" x1="67.06" y1="653.88" x2="16.05" y2="653.88"/><line class="cls-4" x1="0.38" y1="653.88" x2="0.38" y2="653.88"/><line class="cls-4" x1="0.38" y1="669.55" x2="67.06" y2="669.55"/><line class="cls-4" x1="145.36" y1="669.55" x2="306.03" y2="669.55"/><line class="cls-4" x1="67.06" y1="669.55" x2="67.23" y2="669.55"/><line class="cls-4" x1="67.31" y1="669.55" x2="67.31" y2="669.55"/><line class="cls-4" x1="67.39" y1="669.55" x2="67.39" y2="669.55"/><line class="cls-4" x1="67.48" y1="669.55" x2="67.64" y2="669.55"/><line class="cls-4" x1="67.73" y1="669.55" x2="67.73" y2="669.55"/><line class="cls-4" x1="67.81" y1="669.55" x2="67.81" y2="669.55"/><line class="cls-4" x1="67.89" y1="669.55" x2="68.14" y2="669.55"/><polyline class="cls-4" points="68.22 669.55 68.31 669.55 68.56 669.55"/><line class="cls-4" x1="68.64" y1="669.55" x2="68.64" y2="669.55"/><line class="cls-4" x1="68.72" y1="669.55" x2="68.72" y2="669.55"/><polyline class="cls-4" points="68.81 669.55 69.05 669.55 69.14 669.55 69.22 669.55 69.47 669.55"/><line class="cls-4" x1="69.55" y1="669.55" x2="69.55" y2="669.55"/><line class="cls-4" x1="69.63" y1="669.55" x2="69.63" y2="669.55"/><line class="cls-4" x1="69.72" y1="669.55" x2="69.88" y2="669.55"/><line class="cls-4" x1="69.97" y1="669.55" x2="69.97" y2="669.55"/><line class="cls-4" x1="70.05" y1="669.55" x2="70.05" y2="669.55"/><line class="cls-5" x1="70.21" y1="669.55" x2="70.68" y2="669.55"/><line class="cls-6" x1="71.6" y1="669.55" x2="141.37" y2="669.55"/><line class="cls-5" x1="141.83" y1="669.55" x2="142.29" y2="669.55"/><line class="cls-4" x1="142.38" y1="669.55" x2="142.38" y2="669.55"/><line class="cls-4" x1="142.46" y1="669.55" x2="142.46" y2="669.55"/><line class="cls-4" x1="142.54" y1="669.55" x2="142.71" y2="669.55"/><line class="cls-4" x1="142.79" y1="669.55" x2="142.79" y2="669.55"/><line class="cls-4" x1="142.87" y1="669.55" x2="142.87" y2="669.55"/><polyline class="cls-4" points="142.96 669.55 143.21 669.55 143.29 669.55 143.37 669.55 143.62 669.55"/><line class="cls-4" x1="143.7" y1="669.55" x2="143.7" y2="669.55"/><line class="cls-4" x1="143.79" y1="669.55" x2="143.79" y2="669.55"/><line class="cls-4" x1="143.87" y1="669.55" x2="144.04" y2="669.55"/><line class="cls-4" x1="144.12" y1="669.55" x2="144.12" y2="669.55"/><line class="cls-4" x1="144.2" y1="669.55" x2="144.2" y2="669.55"/><line class="cls-4" x1="144.28" y1="669.55" x2="144.53" y2="669.55"/><polyline class="cls-4" points="144.62 669.55 144.7 669.55 144.95 669.55"/><line class="cls-4" x1="145.03" y1="669.55" x2="145.03" y2="669.55"/><line class="cls-4" x1="145.11" y1="669.55" x2="145.11" y2="669.55"/><line class="cls-4" x1="145.2" y1="669.55" x2="145.36" y2="669.55"/><line class="cls-4" x1="145.11" y1="653.88" x2="145.11" y2="653.88"/><line class="cls-4" x1="145.2" y1="653.88" x2="145.36" y2="653.88"/><path class="cls-4" d="M140.76,619.51a72.12,72.12,0,0,0-72.12,72.12" transform="translate(1.58 -28.34)"/><polyline class="cls-4" points="67.06 669.55 70.13 669.55 70.13 663.25 67.06 663.25 67.06 669.55"/><polyline class="cls-4" points="145.36 663.25 142.29 663.25 142.29 669.55 145.36 669.55 145.36 663.25"/><line class="cls-4" x1="142.29" y1="663.25" x2="142.29" y2="591.17"/><polyline class="cls-4" points="67.06 653.88 67.06 663.25 67.06 669.55 67.06 663.25"/><polyline class="cls-4" points="145.36 653.88 145.36 663.25 145.36 669.55 145.36 663.25"/><line class="cls-4" x1="306.03" y1="130.33" x2="306.03" y2="653.88"/><polyline class="cls-4" points="321.7 669.55 321.7 653.88 321.7 130.32 306.03 130.32"/><line class="cls-4" x1="162.62" y1="528.46" x2="168.92" y2="528.46"/><line class="cls-4" x1="162.62" y1="583.29" x2="168.92" y2="583.29"/><line class="cls-4" x1="162.62" y1="442.2" x2="162.62" y2="528.46"/><polyline class="cls-4" points="162.62 583.29 162.62 653.88 168.92 653.88 168.92 583.29"/><line class="cls-4" x1="168.92" y1="528.46" x2="168.92" y2="448.5"/><line class="cls-4" x1="162.62" y1="583.29" x2="162.62" y2="583.04"/><line class="cls-4" x1="162.62" y1="582.96" x2="162.62" y2="582.96"/><line class="cls-4" x1="162.62" y1="582.87" x2="162.62" y2="582.87"/><line class="cls-7" x1="162.62" y1="583.29" x2="162.62" y2="528.46"/><line class="cls-4" x1="168.92" y1="583.29" x2="168.92" y2="583.04"/><line class="cls-4" x1="168.92" y1="582.96" x2="168.92" y2="582.96"/><line class="cls-4" x1="168.92" y1="582.87" x2="168.92" y2="582.87"/><line class="cls-7" x1="168.92" y1="583.29" x2="168.92" y2="528.46"/><line class="cls-4" x1="162.62" y1="583.29" x2="168.92" y2="583.29"/><line class="cls-4" x1="162.62" y1="528.46" x2="168.92" y2="528.46"/><line class="cls-4" x1="145.36" y1="497.86" x2="145.36" y2="491.63"/><polyline class="cls-4" points="16.05 497.86 74.86 497.86 74.86 491.63"/><polyline class="cls-4" points="145.36 497.86 162.62 497.86 162.62 491.63 145.36 491.63"/><polyline class="cls-4" points="74.86 491.63 16.05 491.63 16.05 497.86"/><polyline class="cls-7" points="74.86 497.86 146.24 497.86 146.32 497.86 146.4 497.86 146.65 497.86"/><line class="cls-4" x1="145.03" y1="497.86" x2="145.03" y2="497.86"/><line class="cls-4" x1="145.11" y1="497.86" x2="145.36" y2="497.86"/><polyline class="cls-7" points="74.86 491.63 146.24 491.63 146.32 491.63 146.4 491.63 146.65 491.63"/><line class="cls-4" x1="145.03" y1="491.63" x2="145.03" y2="491.63"/><line class="cls-4" x1="145.11" y1="491.63" x2="145.36" y2="491.63"/><line class="cls-4" x1="74.86" y1="497.86" x2="74.86" y2="491.63"/><line class="cls-4" x1="145.36" y1="497.86" x2="145.36" y2="491.63"/><line class="cls-4" x1="266.88" y1="479.86" x2="266.88" y2="448.5"/><polyline class="cls-4" points="168.92 448.5 260.57 448.5 260.57 486.16"/><polyline class="cls-4" points="266.88 448.5 306.03 448.5 306.03 442.2"/><polyline class="cls-4" points="162.62 442.2 168.92 442.2 306.03 442.2"/><line class="cls-4" x1="0.38" y1="130.33" x2="0.38" y2="669.55"/><polyline class="cls-4" points="16.05 653.88 16.05 130.32 0.38 130.32"/><polyline class="cls-4" points="321.7 669.55 312.33 669.55 306.03 669.55 306.03 669.55"/><line class="cls-4" x1="321.7" y1="669.55" x2="321.7" y2="669.55"/><line class="cls-4" x1="306.03" y1="669.55" x2="306.03" y2="669.55"/><line class="cls-4" x1="306.03" y1="669.55" x2="306.03" y2="669.55"/><line class="cls-4" x1="306.03" y1="669.55" x2="306.03" y2="669.55"/><line class="cls-4" x1="306.03" y1="669.55" x2="306.03" y2="669.55"/><line class="cls-4" x1="306.03" y1="669.55" x2="306.03" y2="669.55"/><polyline class="cls-4" points="306.03 669.55 306.03 669.55 306.03 669.55 306.03 669.55 306.03 669.55"/><line class="cls-4" x1="306.03" y1="669.55" x2="306.03" y2="669.55"/><line class="cls-4" x1="306.03" y1="669.55" x2="306.03" y2="669.55"/><line class="cls-4" x1="306.03" y1="669.55" x2="306.03" y2="669.55"/><line class="cls-4" x1="306.03" y1="669.55" x2="306.03" y2="669.55"/><line class="cls-4" x1="306.03" y1="669.55" x2="306.03" y2="669.55"/><line class="cls-4" x1="306.03" y1="669.55" x2="306.03" y2="669.55"/><polyline class="cls-4" points="306.03 669.55 306.03 669.55 306.03 669.55"/><line class="cls-4" x1="306.03" y1="669.55" x2="306.03" y2="669.55"/><line class="cls-4" x1="306.03" y1="669.55" x2="306.03" y2="669.55"/><polyline class="cls-4" points="306.03 669.55 306.03 669.55 306.03 669.55 306.03 669.55 306.03 669.55"/><line class="cls-4" x1="306.03" y1="669.55" x2="306.03" y2="669.55"/><line class="cls-7" x1="306.03" y1="669.55" x2="306.03" y2="669.55"/><polyline class="cls-4" points="306.03 669.55 306.03 669.55 312.33 669.55 312.33 669.55 306.03 669.55"/><polyline class="cls-4" points="306.03 669.55 312.33 669.55 306.03 669.55"/><line class="cls-4" x1="321.7" y1="669.55" x2="312.33" y2="669.55"/><polyline class="cls-4" points="302.13 486.16 302.13 483.01 302.13 479.86"/><polyline class="cls-4" points="270.78 486.16 270.78 483.01 270.78 479.86"/><polyline class="cls-4" points="260.57 486.16 266.88 486.16 270.78 486.16"/><polyline class="cls-4" points="302.13 486.16 306.03 486.16 306.03 479.86 302.13 479.86"/><line class="cls-4" x1="270.78" y1="479.86" x2="266.88" y2="479.86"/><line class="cls-5" x1="270.78" y1="486.16" x2="271.24" y2="486.16"/><line class="cls-8" x1="272.16" y1="486.16" x2="301.21" y2="486.16"/><line class="cls-5" x1="301.67" y1="486.16" x2="302.13" y2="486.16"/><line class="cls-5" x1="270.78" y1="479.86" x2="271.24" y2="479.86"/><line class="cls-8" x1="272.16" y1="479.86" x2="301.21" y2="479.86"/><line class="cls-5" x1="301.67" y1="479.86" x2="302.13" y2="479.86"/><path class="cls-4" d="M269.28,514.54a31.3,31.3,0,0,0,1.89,10.71" transform="translate(1.58 -28.34)"/><line class="cls-4" x1="302.13" y1="486.16" x2="272.68" y2="496.86"/><polyline class="cls-4" points="270.78 479.86 270.78 483.01 270.78 486.16 270.78 483.01"/><polyline class="cls-4" points="302.13 479.86 302.13 483.01 302.13 486.16 302.13 483.01"/><line class="cls-4" x1="299.31" y1="642.1" x2="299.31" y2="602.12"/><line class="cls-4" x1="294.83" y1="597.39" x2="197.87" y2="597.39"/><line class="cls-4" x1="294.83" y1="646.82" x2="197.87" y2="646.82"/><line class="cls-4" x1="170.5" y1="592.74" x2="303.71" y2="592.74"/><polyline class="cls-4" points="170.5 592.75 170.5 651.47 303.71 651.47 303.71 592.75"/><line class="cls-4" x1="213.46" y1="638.61" x2="289.36" y2="638.61"/><line class="cls-4" x1="291.51" y1="636.29" x2="291.51" y2="607.92"/><line class="cls-4" x1="213.46" y1="605.6" x2="289.36" y2="605.6"/><line class="cls-4" x1="275.92" y1="623.52" x2="275.92" y2="626.42"/><line class="cls-4" x1="277.33" y1="622.11" x2="280.07" y2="622.11"/><line class="cls-4" x1="275.92" y1="620.7" x2="275.92" y2="617.79"/><line class="cls-4" x1="274.59" y1="622.11" x2="271.85" y2="622.11"/><path class="cls-4" d="M196.33,625.81c-12.89,0-23.35,11.05-23.35,24.68s10.46,24.67,23.35,24.67" transform="translate(1.58 -28.34)"/><path class="cls-4" d="M297.73,630.5a4.56,4.56,0,0,0-4.43-4.69" transform="translate(1.58 -28.34)"/><path class="cls-4" d="M293.3,675.16a4.56,4.56,0,0,0,4.43-4.68" transform="translate(1.58 -28.34)"/><path class="cls-4" d="M274.38,652.93a2.45,2.45,0,1,0-2.28-2.44,2.36,2.36,0,0,0,2.28,2.44" transform="translate(1.58 -28.34)"/><path class="cls-4" d="M211.93,633.94c-8.59,0-15.56,7.41-15.56,16.55s7,16.54,15.56,16.54" transform="translate(1.58 -28.34)"/><path class="cls-4" d="M287.82,667a2.28,2.28,0,0,0,2.2-2.36" transform="translate(1.58 -28.34)"/><path class="cls-4" d="M290,636.3a2.29,2.29,0,0,0-2.2-2.36" transform="translate(1.58 -28.34)"/><path class="cls-4" d="M274.38,653.76a3.28,3.28,0,1,0-3.11-3.27,3.19,3.19,0,0,0,3.11,3.27" transform="translate(1.58 -28.34)"/><polyline class="cls-4" points="285.79 550.36 303.71 550.36 303.71 592.75 285.79 592.75"/><line class="cls-4" x1="303.71" y1="578.23" x2="303.71" y2="564.88"/><line class="cls-4" x1="289.36" y1="575.08" x2="289.36" y2="572.84"/><line class="cls-4" x1="292.92" y1="571.51" x2="290.68" y2="571.51"/><line class="cls-4" x1="289.36" y1="570.27" x2="289.36" y2="567.94"/><line class="cls-4" x1="288.03" y1="571.51" x2="285.79" y2="571.51"/><path class="cls-4" d="M292.06,588.66a18.93,18.93,0,0,0-8.92-7.32" transform="translate(1.58 -28.34)"/><path class="cls-4" d="M294.77,599.91a18.83,18.83,0,0,0-2.65-11.25" transform="translate(1.58 -28.34)"/><path class="cls-4" d="M283.14,618.52a18.93,18.93,0,0,0,8.92-7.32" transform="translate(1.58 -28.34)"/><path class="cls-4" d="M292.12,611.2A18.81,18.81,0,0,0,294.77,600" transform="translate(1.58 -28.34)"/><path class="cls-4" d="M273.62,585.57a34.89,34.89,0,0,0-3.5,12.85" transform="translate(1.58 -28.34)"/><path class="cls-4" d="M275.46,617.06a10.72,10.72,0,0,0,8.84,4" transform="translate(1.58 -28.34)"/><path class="cls-4" d="M270.08,598.49a21,21,0,0,0,0,3" transform="translate(1.58 -28.34)"/><path class="cls-4" d="M291.43,611.73a77.06,77.06,0,0,0,0-23.68" transform="translate(1.58 -28.34)"/><path class="cls-4" d="M281.48,620a26.55,26.55,0,0,0,17.27-6" transform="translate(1.58 -28.34)"/><path class="cls-4" d="M300,612a53,53,0,0,0,1.31-12.11" transform="translate(1.58 -28.34)"/><path class="cls-4" d="M298.84,614a3.46,3.46,0,0,0,1.21-2" transform="translate(1.58 -28.34)"/><path class="cls-4" d="M298.78,611.84a90,90,0,0,0,.86-11.94" transform="translate(1.58 -28.34)"/><path class="cls-4" d="M281.53,620a23.93,23.93,0,0,0,16.14-6" transform="translate(1.58 -28.34)"/><path class="cls-4" d="M297.62,614.06a3.53,3.53,0,0,0,1.16-2.16" transform="translate(1.58 -28.34)"/><path class="cls-4" d="M297.7,585.86a24,24,0,0,0-16.13-6" transform="translate(1.58 -28.34)"/><path class="cls-4" d="M298.78,585.88a26.6,26.6,0,0,0-17.27-6" transform="translate(1.58 -28.34)"/><path class="cls-4" d="M299.64,599.91A91.36,91.36,0,0,0,298.8,588" transform="translate(1.58 -28.34)"/><path class="cls-4" d="M301.3,600a53,53,0,0,0-1.3-12.11" transform="translate(1.58 -28.34)"/><path class="cls-4" d="M298.78,588.05a3.53,3.53,0,0,0-1.16-2.16" transform="translate(1.58 -28.34)"/><path class="cls-4" d="M300.05,587.83a3.52,3.52,0,0,0-1.2-2" transform="translate(1.58 -28.34)"/><path class="cls-4" d="M284.3,578.79a10.72,10.72,0,0,0-8.84,4" transform="translate(1.58 -28.34)"/><path class="cls-4" d="M275.35,582.73a16.28,16.28,0,0,0-1.82,2.81" transform="translate(1.58 -28.34)"/><path class="cls-4" d="M273.53,614.32a16.75,16.75,0,0,0,1.82,2.82" transform="translate(1.58 -28.34)"/><path class="cls-4" d="M270.12,601.45a34.89,34.89,0,0,0,3.5,12.84" transform="translate(1.58 -28.34)"/><path class="cls-4" d="M273,594.15a24.93,24.93,0,0,0,0,11.65" transform="translate(1.58 -28.34)"/><path class="cls-4" d="M283.2,581.37a6.33,6.33,0,0,0-5.24,2.18" transform="translate(1.58 -28.34)"/><path class="cls-4" d="M278,583.54a23,23,0,0,0-4.84,10.54" transform="translate(1.58 -28.34)"/><path class="cls-4" d="M278,616.31a6.36,6.36,0,0,0,5.24,2.19" transform="translate(1.58 -28.34)"/><path class="cls-4" d="M273.11,605.78A23,23,0,0,0,278,616.32" transform="translate(1.58 -28.34)"/><path class="cls-4" d="M287.82,602.67a2.78,2.78,0,1,0-2.78-2.78,2.78,2.78,0,0,0,2.78,2.78" transform="translate(1.58 -28.34)"/><path class="cls-4" d="M287.82,601.84a1.95,1.95,0,1,0-1.95-2,1.95,1.95,0,0,0,1.95,2" transform="translate(1.58 -28.34)"/><line class="cls-4" x1="291.68" y1="513.2" x2="263.97" y2="513.2"/><polyline class="cls-4" points="293.34 511.96 303.71 511.96 303.71 541.73"/><line class="cls-4" x1="286.78" y1="526.89" x2="286.78" y2="537.92"/><polyline class="cls-4" points="264.06 513.2 286.79 515.86 286.79 526.89"/><line class="cls-4" x1="264.06" y1="540.57" x2="286.78" y2="537.92"/><line class="cls-4" x1="264.06" y1="513.86" x2="286.78" y2="516.52"/><line class="cls-4" x1="264.06" y1="539.91" x2="286.78" y2="537.25"/><line class="cls-4" x1="291.68" y1="540.57" x2="263.97" y2="540.57"/><line class="cls-4" x1="303.71" y1="541.73" x2="293.34" y2="541.73"/><polyline class="cls-4" points="264.06 513.2 260.99 513.53 258.09 514.69 255.51 516.6 253.44 519.09 252.03 521.99 251.28 525.23 251.28 528.54 252.03 531.78 253.44 534.68 255.51 537.17 258.09 539 260.99 540.24 264.06 540.57"/><polyline class="cls-4" points="264.06 513.86 261.15 514.28 258.42 515.36 256.01 517.18 254.02 519.5 252.69 522.24 252.03 525.31 252.03 528.46 252.69 531.53 254.02 534.27 256.01 536.59 258.42 538.42 261.15 539.49 264.06 539.91"/><path class="cls-4" d="M290.06,541.91a126.75,126.75,0,0,0,0,26.7" transform="translate(1.58 -28.34)"/><path class="cls-4" d="M291.8,540.38a1.75,1.75,0,0,0-1.77,1.51" transform="translate(1.58 -28.34)"/><path class="cls-4" d="M290,568.62a1.75,1.75,0,0,0,1.77,1.53" transform="translate(1.58 -28.34)"/><path class="cls-4" d="M297.07,555.27a1.45,1.45,0,1,0-1.45,1.45,1.45,1.45,0,0,0,1.45-1.45" transform="translate(1.58 -28.34)"/><polyline class="cls-4" points="303.71 395.25 260.57 395.25 260.57 438.3 303.71 438.3 303.71 395.25"/><polyline class="cls-4" points="299.81 399.15 264.56 399.15 264.56 430.5 299.81 430.5 299.81 399.15"/><polyline class="cls-4" points="147.35 86.78 147.77 86.78 147.77 43.73 147.35 43.73 147.35 86.78"/><polyline class="cls-4" points="148.93 42.16 148.93 42.57 221.01 42.57 221.01 42.16 148.93 42.16"/><polyline class="cls-4" points="222.59 43.73 222.17 43.73 222.17 86.78 222.59 86.78 222.59 43.73"/><polyline class="cls-4" points="146.94 88.77 148.93 88.77 148.93 86.78 146.94 86.78 146.94 88.77"/><polyline class="cls-4" points="146.94 43.73 148.93 43.73 148.93 41.74 146.94 41.74 146.94 43.73"/><polyline class="cls-4" points="221.01 41.74 221.01 43.73 223 43.73 223 41.74 221.01 41.74"/><polyline class="cls-4" points="223 86.78 221.01 86.78 221.01 88.77 223 88.77 223 86.78"/><line class="cls-4" x1="148.93" y1="87.77" x2="148.93" y2="43.73"/><line class="cls-4" x1="146.94" y1="41.74" x2="146.94" y2="87.77"/><line class="cls-4" x1="148.93" y1="43.73" x2="221.01" y2="43.73"/><line class="cls-4" x1="223" y1="41.74" x2="146.94" y2="41.74"/><line class="cls-4" x1="221.01" y1="43.73" x2="221.01" y2="87.77"/><line class="cls-4" x1="223" y1="87.77" x2="223" y2="41.74"/><polyline class="cls-4" points="146.94 87.78 146.94 88.77 148.93 88.77 148.93 87.78"/><polyline class="cls-4" points="221.01 87.78 221.01 88.77 223 88.77 223 87.78"/><polyline class="cls-4" points="223 41.74 146.94 41.74 146.94 87.78 148.93 87.78 148.93 43.73 221.01 43.73 221.01 87.78 223 87.78 223 41.74"/><polyline class="cls-4" points="219.1 55.84 150.92 55.84 150.92 80.97 219.1 80.97 219.1 55.84"/><polyline class="cls-4" points="219.1 58.33 150.92 58.33 150.92 80.97 219.1 80.97 219.1 58.33"/><line class="cls-9" x1="234.78" y1="98.97" x2="234.61" y2="98.97"/><line class="cls-9" x1="234.45" y1="98.97" x2="234.45" y2="98.97"/><line class="cls-9" x1="234.28" y1="98.97" x2="234.03" y2="98.97"/><line class="cls-9" x1="233.87" y1="98.97" x2="233.87" y2="98.97"/><line class="cls-9" x1="233.7" y1="98.97" x2="233.45" y2="98.97"/><line class="cls-9" x1="233.29" y1="98.97" x2="233.29" y2="98.97"/><line class="cls-9" x1="233.2" y1="98.97" x2="232.87" y2="98.97"/><line class="cls-9" x1="232.79" y1="98.97" x2="232.79" y2="98.97"/><line class="cls-9" x1="232.62" y1="98.97" x2="232.37" y2="98.97"/><line class="cls-9" x1="232.21" y1="98.97" x2="232.21" y2="98.97"/><line class="cls-9" x1="232.04" y1="98.97" x2="231.79" y2="98.97"/><line class="cls-9" x1="231.63" y1="98.97" x2="231.63" y2="98.97"/><line class="cls-9" x1="231.46" y1="98.97" x2="231.21" y2="98.97"/><line class="cls-9" x1="231.05" y1="98.97" x2="231.05" y2="98.97"/><line class="cls-9" x1="230.96" y1="98.97" x2="230.63" y2="98.97"/><line class="cls-9" x1="230.55" y1="98.97" x2="230.55" y2="98.97"/><line class="cls-9" x1="230.38" y1="98.97" x2="230.13" y2="98.97"/><line class="cls-9" x1="229.97" y1="98.97" x2="229.97" y2="98.97"/><line class="cls-9" x1="229.8" y1="98.97" x2="229.55" y2="98.97"/><line class="cls-9" x1="229.39" y1="98.97" x2="229.39" y2="98.97"/><line class="cls-9" x1="229.22" y1="98.97" x2="228.97" y2="98.97"/><line class="cls-9" x1="228.81" y1="98.97" x2="228.81" y2="98.97"/><line class="cls-9" x1="228.72" y1="98.97" x2="228.39" y2="98.97"/><line class="cls-9" x1="228.31" y1="98.97" x2="228.31" y2="98.97"/><line class="cls-9" x1="228.14" y1="98.97" x2="227.89" y2="98.97"/><line class="cls-9" x1="227.73" y1="98.97" x2="227.73" y2="98.97"/><line class="cls-9" x1="227.56" y1="98.97" x2="227.31" y2="98.97"/><line class="cls-9" x1="227.15" y1="98.97" x2="227.15" y2="98.97"/><line class="cls-9" x1="226.98" y1="98.97" x2="226.73" y2="98.97"/><line class="cls-9" x1="226.57" y1="98.97" x2="226.57" y2="98.97"/><line class="cls-9" x1="226.48" y1="98.97" x2="226.15" y2="98.97"/><line class="cls-9" x1="226.07" y1="98.97" x2="226.07" y2="98.97"/><line class="cls-9" x1="225.9" y1="98.97" x2="225.65" y2="98.97"/><line class="cls-9" x1="225.49" y1="98.97" x2="225.49" y2="98.97"/><line class="cls-9" x1="225.32" y1="98.97" x2="225.07" y2="98.97"/><line class="cls-9" x1="224.91" y1="98.97" x2="224.91" y2="98.97"/><line class="cls-9" x1="224.74" y1="98.97" x2="224.49" y2="98.97"/><line class="cls-9" x1="224.33" y1="98.97" x2="224.33" y2="98.97"/><line class="cls-9" x1="224.24" y1="98.97" x2="223.91" y2="98.97"/><line class="cls-9" x1="223.83" y1="98.97" x2="223.83" y2="98.97"/><line class="cls-9" x1="223.66" y1="98.97" x2="223.41" y2="98.97"/><line class="cls-9" x1="223.25" y1="98.97" x2="223.25" y2="98.97"/><line class="cls-9" x1="223.08" y1="98.97" x2="222.83" y2="98.97"/><line class="cls-9" x1="222.67" y1="98.97" x2="222.67" y2="98.97"/><line class="cls-9" x1="222.5" y1="98.97" x2="222.25" y2="98.97"/><line class="cls-9" x1="222.09" y1="98.97" x2="222.09" y2="98.97"/><line class="cls-9" x1="222" y1="98.97" x2="221.67" y2="98.97"/><line class="cls-9" x1="221.59" y1="98.97" x2="221.59" y2="98.97"/><line class="cls-9" x1="221.42" y1="98.97" x2="221.18" y2="98.97"/><line class="cls-9" x1="221.01" y1="98.97" x2="221.01" y2="98.97"/><line class="cls-9" x1="220.84" y1="98.97" x2="220.59" y2="98.97"/><line class="cls-9" x1="220.43" y1="98.97" x2="220.43" y2="98.97"/><line class="cls-9" x1="220.26" y1="98.97" x2="220.01" y2="98.97"/><line class="cls-9" x1="219.85" y1="98.97" x2="219.85" y2="98.97"/><line class="cls-9" x1="219.77" y1="98.97" x2="219.43" y2="98.97"/><line class="cls-9" x1="219.35" y1="98.97" x2="219.27" y2="98.97"/><line class="cls-9" x1="219.18" y1="98.97" x2="218.85" y2="98.97"/><line class="cls-9" x1="218.77" y1="98.97" x2="218.77" y2="98.97"/><line class="cls-9" x1="218.6" y1="98.97" x2="218.35" y2="98.97"/><line class="cls-9" x1="218.19" y1="98.97" x2="218.19" y2="98.97"/><line class="cls-9" x1="218.02" y1="98.97" x2="217.77" y2="98.97"/><line class="cls-9" x1="217.61" y1="98.97" x2="217.61" y2="98.97"/><line class="cls-9" x1="217.53" y1="98.97" x2="217.19" y2="98.97"/><line class="cls-9" x1="217.11" y1="98.97" x2="217.03" y2="98.97"/><line class="cls-9" x1="216.94" y1="98.97" x2="216.61" y2="98.97"/><line class="cls-9" x1="216.53" y1="98.97" x2="216.53" y2="98.97"/><line class="cls-9" x1="216.36" y1="98.97" x2="216.12" y2="98.97"/><line class="cls-9" x1="215.95" y1="98.97" x2="215.95" y2="98.97"/><line class="cls-9" x1="215.78" y1="98.97" x2="215.53" y2="98.97"/><line class="cls-9" x1="215.37" y1="98.97" x2="215.37" y2="98.97"/><line class="cls-9" x1="215.29" y1="98.97" x2="214.95" y2="98.97"/><line class="cls-9" x1="214.87" y1="98.97" x2="214.79" y2="98.97"/><line class="cls-9" x1="214.71" y1="98.97" x2="214.37" y2="98.97"/><line class="cls-9" x1="214.29" y1="98.97" x2="214.29" y2="98.97"/><line class="cls-9" x1="214.12" y1="98.97" x2="213.88" y2="98.97"/><line class="cls-9" x1="213.71" y1="98.97" x2="213.71" y2="98.97"/><line class="cls-9" x1="213.54" y1="98.97" x2="213.3" y2="98.97"/><line class="cls-9" x1="213.13" y1="98.97" x2="213.13" y2="98.97"/><line class="cls-9" x1="213.05" y1="98.97" x2="212.71" y2="98.97"/><line class="cls-9" x1="212.63" y1="98.97" x2="212.55" y2="98.97"/><line class="cls-9" x1="212.47" y1="98.97" x2="212.13" y2="98.97"/><line class="cls-9" x1="212.05" y1="98.97" x2="212.05" y2="98.97"/><line class="cls-9" x1="211.89" y1="98.97" x2="211.64" y2="98.97"/><line class="cls-9" x1="211.47" y1="98.97" x2="211.47" y2="98.97"/><line class="cls-9" x1="211.3" y1="98.97" x2="211.06" y2="98.97"/><line class="cls-9" x1="210.89" y1="98.97" x2="210.89" y2="98.97"/><line class="cls-9" x1="210.72" y1="98.97" x2="210.48" y2="98.97"/><line class="cls-9" x1="210.31" y1="98.97" x2="210.31" y2="98.97"/><line class="cls-9" x1="210.23" y1="98.97" x2="209.89" y2="98.97"/><line class="cls-9" x1="209.81" y1="98.97" x2="209.81" y2="98.97"/><line class="cls-9" x1="209.65" y1="98.97" x2="209.4" y2="98.97"/><line class="cls-9" x1="209.23" y1="98.97" x2="209.23" y2="98.97"/><line class="cls-9" x1="209.07" y1="98.97" x2="208.82" y2="98.97"/><line class="cls-9" x1="208.65" y1="98.97" x2="208.65" y2="98.97"/><line class="cls-9" x1="208.48" y1="98.97" x2="208.24" y2="98.97"/><line class="cls-9" x1="208.07" y1="98.97" x2="208.07" y2="98.97"/><line class="cls-9" x1="207.99" y1="98.97" x2="207.66" y2="98.97"/><line class="cls-9" x1="207.57" y1="98.97" x2="207.57" y2="98.97"/><line class="cls-9" x1="207.41" y1="98.97" x2="207.16" y2="98.97"/><line class="cls-9" x1="206.99" y1="98.97" x2="206.99" y2="98.97"/><line class="cls-9" x1="206.83" y1="98.97" x2="206.58" y2="98.97"/><line class="cls-9" x1="206.41" y1="98.97" x2="206.41" y2="98.97"/><line class="cls-9" x1="206.24" y1="98.97" x2="206" y2="98.97"/><line class="cls-9" x1="205.83" y1="98.97" x2="205.83" y2="98.97"/><line class="cls-9" x1="205.75" y1="98.97" x2="205.42" y2="98.97"/><line class="cls-9" x1="205.33" y1="98.97" x2="205.33" y2="98.97"/><line class="cls-9" x1="205.17" y1="98.97" x2="204.92" y2="98.97"/><line class="cls-9" x1="204.75" y1="98.97" x2="204.75" y2="98.97"/><line class="cls-9" x1="204.59" y1="98.97" x2="204.34" y2="98.97"/><line class="cls-9" x1="204.17" y1="98.97" x2="204.17" y2="98.97"/><line class="cls-9" x1="204.01" y1="98.97" x2="203.76" y2="98.97"/><line class="cls-9" x1="203.59" y1="98.97" x2="203.59" y2="98.97"/><line class="cls-9" x1="203.51" y1="98.97" x2="203.18" y2="98.97"/><line class="cls-9" x1="203.09" y1="98.97" x2="203.09" y2="98.97"/><line class="cls-9" x1="202.93" y1="98.97" x2="202.68" y2="98.97"/><line class="cls-9" x1="202.51" y1="98.97" x2="202.51" y2="98.97"/><line class="cls-9" x1="202.35" y1="98.97" x2="202.1" y2="98.97"/><line class="cls-9" x1="201.93" y1="98.97" x2="201.93" y2="98.97"/><line class="cls-9" x1="201.77" y1="98.97" x2="201.52" y2="98.97"/><line class="cls-9" x1="201.35" y1="98.97" x2="201.35" y2="98.97"/><line class="cls-9" x1="201.27" y1="98.97" x2="200.94" y2="98.97"/><line class="cls-9" x1="200.85" y1="98.97" x2="200.85" y2="98.97"/><line class="cls-9" x1="200.69" y1="98.97" x2="200.44" y2="98.97"/><line class="cls-9" x1="200.27" y1="98.97" x2="200.27" y2="98.97"/><line class="cls-9" x1="200.11" y1="98.97" x2="199.86" y2="98.97"/><line class="cls-9" x1="199.69" y1="98.97" x2="199.69" y2="98.97"/><line class="cls-9" x1="199.53" y1="98.97" x2="199.28" y2="98.97"/><line class="cls-9" x1="199.11" y1="98.97" x2="199.11" y2="98.97"/><line class="cls-9" x1="199.03" y1="98.97" x2="198.7" y2="98.97"/><line class="cls-9" x1="198.61" y1="98.97" x2="198.61" y2="98.97"/><line class="cls-9" x1="198.45" y1="98.97" x2="198.2" y2="98.97"/><line class="cls-9" x1="198.03" y1="98.97" x2="198.03" y2="98.97"/><line class="cls-9" x1="197.87" y1="98.97" x2="197.62" y2="98.97"/><line class="cls-9" x1="197.45" y1="98.97" x2="197.45" y2="98.97"/><line class="cls-9" x1="197.29" y1="98.97" x2="197.04" y2="98.97"/><line class="cls-9" x1="196.87" y1="98.97" x2="196.87" y2="98.97"/><line class="cls-9" x1="196.79" y1="98.97" x2="196.46" y2="98.97"/><line class="cls-9" x1="196.37" y1="98.97" x2="196.29" y2="98.97"/><line class="cls-9" x1="196.21" y1="98.97" x2="195.88" y2="98.97"/><line class="cls-9" x1="195.79" y1="98.97" x2="195.79" y2="98.97"/><line class="cls-9" x1="195.63" y1="98.97" x2="195.38" y2="98.97"/><line class="cls-9" x1="195.21" y1="98.97" x2="195.21" y2="98.97"/><line class="cls-9" x1="195.05" y1="98.97" x2="194.8" y2="98.97"/><line class="cls-9" x1="194.63" y1="98.97" x2="194.63" y2="98.97"/><line class="cls-9" x1="194.55" y1="98.97" x2="194.22" y2="98.97"/><line class="cls-9" x1="194.13" y1="98.97" x2="194.05" y2="98.97"/><line class="cls-9" x1="193.97" y1="98.97" x2="193.64" y2="98.97"/><line class="cls-9" x1="193.55" y1="98.97" x2="193.55" y2="98.97"/><line class="cls-9" x1="193.39" y1="98.97" x2="193.14" y2="98.97"/><line class="cls-9" x1="192.97" y1="98.97" x2="192.97" y2="98.97"/><line class="cls-9" x1="192.81" y1="98.97" x2="192.56" y2="98.97"/><line class="cls-9" x1="192.39" y1="98.97" x2="192.39" y2="98.97"/><line class="cls-9" x1="192.31" y1="98.97" x2="191.98" y2="98.97"/><line class="cls-9" x1="191.9" y1="98.97" x2="191.81" y2="98.97"/><line class="cls-9" x1="191.73" y1="98.97" x2="191.4" y2="98.97"/><line class="cls-9" x1="191.31" y1="98.97" x2="191.31" y2="98.97"/><line class="cls-9" x1="191.15" y1="98.97" x2="190.9" y2="98.97"/><line class="cls-9" x1="190.73" y1="98.97" x2="190.73" y2="98.97"/><line class="cls-9" x1="190.57" y1="98.97" x2="190.32" y2="98.97"/><line class="cls-9" x1="190.15" y1="98.97" x2="190.15" y2="98.97"/><line class="cls-9" x1="190.07" y1="98.97" x2="189.74" y2="98.97"/><line class="cls-9" x1="189.66" y1="98.97" x2="189.57" y2="98.97"/><line class="cls-9" x1="189.49" y1="98.97" x2="189.16" y2="98.97"/><line class="cls-9" x1="189.08" y1="98.97" x2="189.08" y2="98.97"/><line class="cls-9" x1="188.91" y1="98.97" x2="188.66" y2="98.97"/><line class="cls-9" x1="188.49" y1="98.97" x2="188.49" y2="98.97"/><line class="cls-9" x1="188.33" y1="98.97" x2="188.08" y2="98.97"/><line class="cls-9" x1="187.91" y1="98.97" x2="187.91" y2="98.97"/><line class="cls-9" x1="187.75" y1="98.97" x2="187.5" y2="98.97"/><line class="cls-9" x1="187.33" y1="98.97" x2="187.33" y2="98.97"/><line class="cls-9" x1="187.25" y1="98.97" x2="186.92" y2="98.97"/><line class="cls-9" x1="186.84" y1="98.97" x2="186.84" y2="98.97"/><line class="cls-9" x1="186.67" y1="98.97" x2="186.42" y2="98.97"/><line class="cls-9" x1="186.26" y1="98.97" x2="186.26" y2="98.97"/><line class="cls-9" x1="186.09" y1="98.97" x2="185.84" y2="98.97"/><line class="cls-9" x1="185.67" y1="98.97" x2="185.67" y2="98.97"/><line class="cls-9" x1="185.51" y1="98.97" x2="185.26" y2="98.97"/><line class="cls-9" x1="185.09" y1="98.97" x2="185.09" y2="98.97"/><line class="cls-9" x1="185.01" y1="98.97" x2="184.68" y2="98.97"/><line class="cls-9" x1="184.6" y1="98.97" x2="184.6" y2="98.97"/><line class="cls-9" x1="184.43" y1="98.97" x2="184.18" y2="98.97"/><line class="cls-9" x1="184.02" y1="98.97" x2="184.02" y2="98.97"/><line class="cls-9" x1="183.85" y1="98.97" x2="183.6" y2="98.97"/><line class="cls-9" x1="183.44" y1="98.97" x2="183.44" y2="98.97"/><line class="cls-9" x1="183.27" y1="98.97" x2="183.02" y2="98.97"/><line class="cls-9" x1="182.85" y1="98.97" x2="182.85" y2="98.97"/><line class="cls-9" x1="182.77" y1="98.97" x2="182.44" y2="98.97"/><line class="cls-9" x1="182.36" y1="98.97" x2="182.36" y2="98.97"/><line class="cls-9" x1="182.19" y1="98.97" x2="181.94" y2="98.97"/><line class="cls-9" x1="181.78" y1="98.97" x2="181.78" y2="98.97"/><line class="cls-9" x1="181.61" y1="98.97" x2="181.36" y2="98.97"/><line class="cls-9" x1="181.2" y1="98.97" x2="181.2" y2="98.97"/><line class="cls-9" x1="181.03" y1="98.97" x2="180.78" y2="98.97"/><line class="cls-9" x1="180.61" y1="98.97" x2="180.61" y2="98.97"/><line class="cls-9" x1="180.53" y1="98.97" x2="180.2" y2="98.97"/><line class="cls-9" x1="180.12" y1="98.97" x2="180.12" y2="98.97"/><line class="cls-9" x1="179.95" y1="98.97" x2="179.7" y2="98.97"/><line class="cls-9" x1="179.54" y1="98.97" x2="179.54" y2="98.97"/><line class="cls-9" x1="179.37" y1="98.97" x2="179.12" y2="98.97"/><line class="cls-9" x1="178.96" y1="98.97" x2="178.96" y2="98.97"/><line class="cls-9" x1="178.79" y1="98.97" x2="178.54" y2="98.97"/><line class="cls-9" x1="178.38" y1="98.97" x2="178.38" y2="98.97"/><line class="cls-9" x1="178.29" y1="98.97" x2="177.96" y2="98.97"/><line class="cls-9" x1="177.88" y1="98.97" x2="177.88" y2="98.97"/><line class="cls-9" x1="177.71" y1="98.97" x2="177.46" y2="98.97"/><line class="cls-9" x1="177.3" y1="98.97" x2="177.3" y2="98.97"/><line class="cls-9" x1="177.13" y1="98.97" x2="176.88" y2="98.97"/><line class="cls-9" x1="176.72" y1="98.97" x2="176.72" y2="98.97"/><line class="cls-9" x1="176.55" y1="98.97" x2="176.3" y2="98.97"/><line class="cls-9" x1="176.14" y1="98.97" x2="176.14" y2="98.97"/><line class="cls-9" x1="176.05" y1="98.97" x2="175.72" y2="98.97"/><line class="cls-9" x1="175.64" y1="98.97" x2="175.64" y2="98.97"/><line class="cls-9" x1="175.47" y1="98.97" x2="175.22" y2="98.97"/><line class="cls-9" x1="175.06" y1="98.97" x2="175.06" y2="98.97"/><line class="cls-9" x1="174.89" y1="98.97" x2="174.64" y2="98.97"/><line class="cls-9" x1="174.48" y1="98.97" x2="174.48" y2="98.97"/><line class="cls-9" x1="174.31" y1="98.97" x2="174.06" y2="98.97"/><line class="cls-9" x1="173.9" y1="98.97" x2="173.9" y2="98.97"/><line class="cls-9" x1="173.81" y1="98.97" x2="173.48" y2="98.97"/><line class="cls-9" x1="173.4" y1="98.97" x2="173.32" y2="98.97"/><line class="cls-9" x1="173.23" y1="98.97" x2="172.9" y2="98.97"/><line class="cls-9" x1="172.82" y1="98.97" x2="172.82" y2="98.97"/><line class="cls-9" x1="172.65" y1="98.97" x2="172.4" y2="98.97"/><line class="cls-9" x1="172.24" y1="98.97" x2="172.24" y2="98.97"/><line class="cls-9" x1="172.07" y1="98.97" x2="171.82" y2="98.97"/><line class="cls-9" x1="171.66" y1="98.97" x2="171.66" y2="98.97"/><line class="cls-9" x1="171.57" y1="98.97" x2="171.24" y2="98.97"/><line class="cls-9" x1="171.16" y1="98.97" x2="171.08" y2="98.97"/><line class="cls-9" x1="170.99" y1="98.97" x2="170.66" y2="98.97"/><line class="cls-9" x1="170.58" y1="98.97" x2="170.58" y2="98.97"/><line class="cls-9" x1="170.41" y1="98.97" x2="170.16" y2="98.97"/><line class="cls-9" x1="170" y1="98.97" x2="170" y2="98.97"/><line class="cls-9" x1="169.83" y1="98.97" x2="169.58" y2="98.97"/><line class="cls-9" x1="169.42" y1="98.97" x2="169.42" y2="98.97"/><line class="cls-9" x1="169.33" y1="98.97" x2="169" y2="98.97"/><line class="cls-9" x1="168.92" y1="98.97" x2="168.84" y2="98.97"/><line class="cls-9" x1="168.75" y1="98.97" x2="168.42" y2="98.97"/><line class="cls-9" x1="168.34" y1="98.97" x2="168.34" y2="98.97"/><line class="cls-9" x1="168.17" y1="98.97" x2="167.92" y2="98.97"/><line class="cls-9" x1="167.76" y1="98.97" x2="167.76" y2="98.97"/><line class="cls-9" x1="167.59" y1="98.97" x2="167.34" y2="98.97"/><line class="cls-9" x1="167.18" y1="98.97" x2="167.18" y2="98.97"/><line class="cls-9" x1="167.09" y1="98.97" x2="166.76" y2="98.97"/><line class="cls-9" x1="166.68" y1="98.97" x2="166.6" y2="98.97"/><line class="cls-9" x1="166.51" y1="98.97" x2="166.18" y2="98.97"/><line class="cls-9" x1="166.1" y1="98.97" x2="166.1" y2="98.97"/><line class="cls-9" x1="165.93" y1="98.97" x2="165.68" y2="98.97"/><line class="cls-9" x1="165.52" y1="98.97" x2="165.52" y2="98.97"/><line class="cls-9" x1="165.35" y1="98.97" x2="165.1" y2="98.97"/><line class="cls-9" x1="164.94" y1="98.97" x2="164.94" y2="98.97"/><line class="cls-9" x1="164.77" y1="98.97" x2="164.52" y2="98.97"/><line class="cls-9" x1="164.36" y1="98.97" x2="164.36" y2="98.97"/><line class="cls-9" x1="164.27" y1="98.97" x2="163.94" y2="98.97"/><line class="cls-9" x1="163.86" y1="98.97" x2="163.86" y2="98.97"/><line class="cls-9" x1="163.69" y1="98.97" x2="163.45" y2="98.97"/><line class="cls-9" x1="163.28" y1="98.97" x2="163.28" y2="98.97"/><line class="cls-9" x1="163.11" y1="98.97" x2="162.86" y2="98.97"/><line class="cls-9" x1="162.7" y1="98.97" x2="162.7" y2="98.97"/><line class="cls-9" x1="162.53" y1="98.97" x2="162.28" y2="98.97"/><line class="cls-9" x1="162.12" y1="98.97" x2="162.12" y2="98.97"/><line class="cls-9" x1="162.04" y1="98.97" x2="161.7" y2="98.97"/><line class="cls-9" x1="161.62" y1="98.97" x2="161.62" y2="98.97"/><line class="cls-9" x1="161.45" y1="98.97" x2="161.21" y2="98.97"/><line class="cls-9" x1="161.04" y1="98.97" x2="161.04" y2="98.97"/><line class="cls-9" x1="160.87" y1="98.97" x2="160.63" y2="98.97"/><line class="cls-9" x1="160.46" y1="98.97" x2="160.46" y2="98.97"/><line class="cls-9" x1="160.29" y1="98.97" x2="160.04" y2="98.97"/><line class="cls-9" x1="159.88" y1="98.97" x2="159.88" y2="98.97"/><line class="cls-9" x1="159.8" y1="98.97" x2="159.46" y2="98.97"/><line class="cls-9" x1="159.38" y1="98.97" x2="159.38" y2="98.97"/><line class="cls-9" x1="159.22" y1="98.97" x2="158.97" y2="98.97"/><line class="cls-9" x1="158.8" y1="98.97" x2="158.8" y2="98.97"/><line class="cls-9" x1="158.63" y1="98.97" x2="158.39" y2="98.97"/><line class="cls-9" x1="158.22" y1="98.97" x2="158.22" y2="98.97"/><line class="cls-9" x1="158.05" y1="98.97" x2="157.8" y2="98.97"/><line class="cls-9" x1="157.64" y1="98.97" x2="157.64" y2="98.97"/><line class="cls-9" x1="157.56" y1="98.97" x2="157.22" y2="98.97"/><line class="cls-9" x1="157.14" y1="98.97" x2="157.14" y2="98.97"/><line class="cls-9" x1="156.98" y1="98.97" x2="156.73" y2="98.97"/><line class="cls-9" x1="156.56" y1="98.97" x2="156.56" y2="98.97"/><line class="cls-9" x1="156.39" y1="98.97" x2="156.15" y2="98.97"/><line class="cls-9" x1="155.98" y1="98.97" x2="155.98" y2="98.97"/><line class="cls-9" x1="155.81" y1="98.97" x2="155.57" y2="98.97"/><line class="cls-9" x1="155.4" y1="98.97" x2="155.4" y2="98.97"/><line class="cls-9" x1="155.32" y1="98.97" x2="154.98" y2="98.97"/><line class="cls-9" x1="154.9" y1="98.97" x2="154.9" y2="98.97"/><line class="cls-9" x1="154.74" y1="98.97" x2="154.49" y2="98.97"/><line class="cls-9" x1="154.32" y1="98.97" x2="154.32" y2="98.97"/><line class="cls-9" x1="154.16" y1="98.97" x2="153.91" y2="98.97"/><line class="cls-9" x1="153.74" y1="98.97" x2="153.74" y2="98.97"/><line class="cls-9" x1="153.57" y1="98.97" x2="153.33" y2="98.97"/><line class="cls-9" x1="153.16" y1="98.97" x2="153.16" y2="98.97"/><line class="cls-9" x1="153.08" y1="98.97" x2="152.75" y2="98.97"/><line class="cls-9" x1="152.66" y1="98.97" x2="152.66" y2="98.97"/><line class="cls-9" x1="152.5" y1="98.97" x2="152.25" y2="98.97"/><line class="cls-9" x1="152.08" y1="98.97" x2="152.08" y2="98.97"/><line class="cls-9" x1="151.92" y1="98.97" x2="151.67" y2="98.97"/><line class="cls-9" x1="151.5" y1="98.97" x2="151.5" y2="98.97"/><line class="cls-9" x1="151.34" y1="98.97" x2="151.09" y2="98.97"/><line class="cls-9" x1="150.92" y1="98.97" x2="150.92" y2="98.97"/><line class="cls-9" x1="150.84" y1="98.97" x2="150.51" y2="98.97"/><line class="cls-9" x1="150.42" y1="98.97" x2="150.34" y2="98.97"/><line class="cls-9" x1="150.26" y1="98.97" x2="149.93" y2="98.97"/><line class="cls-9" x1="149.84" y1="98.97" x2="149.84" y2="98.97"/><line class="cls-9" x1="149.68" y1="98.97" x2="149.43" y2="98.97"/><line class="cls-9" x1="149.26" y1="98.97" x2="149.26" y2="98.97"/><line class="cls-9" x1="149.1" y1="98.97" x2="148.85" y2="98.97"/><line class="cls-9" x1="148.68" y1="98.97" x2="148.68" y2="98.97"/><line class="cls-9" x1="148.6" y1="98.97" x2="148.27" y2="98.97"/><line class="cls-9" x1="148.18" y1="98.97" x2="148.1" y2="98.97"/><line class="cls-9" x1="148.02" y1="98.97" x2="147.69" y2="98.97"/><line class="cls-9" x1="147.6" y1="98.97" x2="147.6" y2="98.97"/><line class="cls-9" x1="147.44" y1="98.97" x2="147.19" y2="98.97"/><line class="cls-9" x1="147.02" y1="98.97" x2="147.02" y2="98.97"/><line class="cls-9" x1="146.86" y1="98.97" x2="146.61" y2="98.97"/><line class="cls-9" x1="146.44" y1="98.97" x2="146.44" y2="98.97"/><line class="cls-9" x1="146.36" y1="98.97" x2="146.03" y2="98.97"/><line class="cls-9" x1="145.94" y1="98.97" x2="145.86" y2="98.97"/><line class="cls-9" x1="145.78" y1="98.97" x2="145.45" y2="98.97"/><line class="cls-9" x1="145.36" y1="98.97" x2="145.36" y2="98.97"/><line class="cls-9" x1="145.2" y1="98.97" x2="144.95" y2="98.97"/><line class="cls-9" x1="144.78" y1="98.97" x2="144.78" y2="98.97"/><line class="cls-9" x1="144.62" y1="98.97" x2="144.37" y2="98.97"/><line class="cls-9" x1="144.2" y1="98.97" x2="144.2" y2="98.97"/><line class="cls-9" x1="144.12" y1="98.97" x2="143.79" y2="98.97"/><line class="cls-9" x1="143.7" y1="98.97" x2="143.62" y2="98.97"/><line class="cls-9" x1="143.54" y1="98.97" x2="143.21" y2="98.97"/><line class="cls-9" x1="143.12" y1="98.97" x2="143.12" y2="98.97"/><line class="cls-9" x1="142.96" y1="98.97" x2="142.71" y2="98.97"/><line class="cls-9" x1="142.54" y1="98.97" x2="142.54" y2="98.97"/><line class="cls-9" x1="142.38" y1="98.97" x2="142.13" y2="98.97"/><line class="cls-9" x1="141.96" y1="98.97" x2="141.96" y2="98.97"/><line class="cls-9" x1="141.8" y1="98.97" x2="141.55" y2="98.97"/><line class="cls-9" x1="141.38" y1="98.97" x2="141.38" y2="98.97"/><line class="cls-9" x1="141.3" y1="98.97" x2="140.97" y2="98.97"/><line class="cls-9" x1="140.88" y1="98.97" x2="140.88" y2="98.97"/><line class="cls-9" x1="140.72" y1="98.97" x2="140.47" y2="98.97"/><line class="cls-9" x1="140.3" y1="98.97" x2="140.3" y2="98.97"/><line class="cls-9" x1="140.14" y1="98.97" x2="139.89" y2="98.97"/><line class="cls-9" x1="139.72" y1="98.97" x2="139.72" y2="98.97"/><line class="cls-9" x1="139.56" y1="98.97" x2="139.31" y2="98.97"/><line class="cls-9" x1="139.14" y1="98.97" x2="139.14" y2="98.97"/><line class="cls-9" x1="139.06" y1="98.97" x2="138.73" y2="98.97"/><line class="cls-9" x1="138.64" y1="98.97" x2="138.64" y2="98.97"/><line class="cls-9" x1="138.48" y1="98.97" x2="138.23" y2="98.97"/><line class="cls-9" x1="138.06" y1="98.97" x2="138.06" y2="98.97"/><line class="cls-9" x1="137.9" y1="98.97" x2="137.65" y2="98.97"/><line class="cls-9" x1="137.48" y1="98.97" x2="137.48" y2="98.97"/><line class="cls-9" x1="137.32" y1="98.97" x2="137.07" y2="98.97"/><line class="cls-9" x1="136.9" y1="98.97" x2="136.9" y2="98.97"/><line class="cls-9" x1="136.82" y1="98.97" x2="136.49" y2="98.97"/><line class="cls-9" x1="136.41" y1="98.97" x2="136.41" y2="98.97"/><line class="cls-9" x1="136.24" y1="98.97" x2="135.99" y2="98.97"/><line class="cls-9" x1="135.82" y1="98.97" x2="135.82" y2="98.97"/><line class="cls-9" x1="135.66" y1="98.97" x2="135.41" y2="98.97"/><line class="cls-9" x1="135.24" y1="98.97" x2="135.24" y2="98.97"/><line class="cls-9" x1="135.08" y1="98.97" x2="134.83" y2="98.97"/><line class="cls-9" x1="134.66" y1="98.97" x2="134.66" y2="98.97"/><line class="cls-9" x1="134.58" y1="98.97" x2="134.25" y2="98.97"/><line class="cls-9" x1="134.17" y1="98.97" x2="134.17" y2="98.97"/><line class="cls-9" x1="134" y1="98.97" x2="133.75" y2="98.97"/><line class="cls-9" x1="133.59" y1="98.97" x2="133.59" y2="98.97"/><line class="cls-9" x1="133.42" y1="98.97" x2="133.17" y2="98.97"/><line class="cls-9" x1="133" y1="98.97" x2="133" y2="98.97"/><line class="cls-9" x1="132.84" y1="98.97" x2="132.59" y2="98.97"/><line class="cls-9" x1="132.42" y1="98.97" x2="132.42" y2="98.97"/><line class="cls-9" x1="132.34" y1="98.97" x2="132.01" y2="98.97"/><line class="cls-9" x1="131.93" y1="98.97" x2="131.93" y2="98.97"/><line class="cls-9" x1="131.76" y1="98.97" x2="131.51" y2="98.97"/><line class="cls-9" x1="131.35" y1="98.97" x2="131.35" y2="98.97"/><line class="cls-9" x1="131.18" y1="98.97" x2="130.93" y2="98.97"/><line class="cls-9" x1="130.76" y1="98.97" x2="130.76" y2="98.97"/><line class="cls-9" x1="130.6" y1="98.97" x2="130.35" y2="98.97"/><line class="cls-9" x1="130.18" y1="98.97" x2="130.18" y2="98.97"/><line class="cls-9" x1="130.1" y1="98.97" x2="129.77" y2="98.97"/><line class="cls-9" x1="129.69" y1="98.97" x2="129.69" y2="98.97"/><line class="cls-9" x1="129.52" y1="98.97" x2="129.27" y2="98.97"/><line class="cls-9" x1="129.11" y1="98.97" x2="129.11" y2="98.97"/><line class="cls-9" x1="128.94" y1="98.97" x2="128.69" y2="98.97"/><line class="cls-9" x1="128.53" y1="98.97" x2="128.53" y2="98.97"/><line class="cls-9" x1="128.36" y1="98.97" x2="128.11" y2="98.97"/><line class="cls-9" x1="127.94" y1="98.97" x2="127.94" y2="98.97"/><line class="cls-9" x1="127.86" y1="98.97" x2="127.53" y2="98.97"/><line class="cls-9" x1="127.45" y1="98.97" x2="127.36" y2="98.97"/><line class="cls-9" x1="127.28" y1="98.97" x2="126.95" y2="98.97"/><line class="cls-9" x1="126.87" y1="98.97" x2="126.87" y2="98.97"/><line class="cls-9" x1="126.7" y1="98.97" x2="126.45" y2="98.97"/><line class="cls-9" x1="126.29" y1="98.97" x2="126.29" y2="98.97"/><line class="cls-9" x1="126.12" y1="98.97" x2="125.87" y2="98.97"/><line class="cls-9" x1="125.71" y1="98.97" x2="125.71" y2="98.97"/><line class="cls-9" x1="125.62" y1="98.97" x2="125.29" y2="98.97"/><line class="cls-9" x1="125.21" y1="98.97" x2="125.12" y2="98.97"/><line class="cls-9" x1="125.04" y1="98.97" x2="124.71" y2="98.97"/><line class="cls-9" x1="124.63" y1="98.97" x2="124.63" y2="98.97"/><line class="cls-9" x1="124.46" y1="98.97" x2="124.21" y2="98.97"/><line class="cls-9" x1="124.05" y1="98.97" x2="124.05" y2="98.97"/><line class="cls-9" x1="123.88" y1="98.97" x2="123.63" y2="98.97"/><line class="cls-9" x1="123.47" y1="98.97" x2="123.47" y2="98.97"/><line class="cls-9" x1="123.38" y1="98.97" x2="123.05" y2="98.97"/><line class="cls-9" x1="122.97" y1="98.97" x2="122.89" y2="98.97"/><line class="cls-9" x1="122.8" y1="98.97" x2="122.47" y2="98.97"/><line class="cls-9" x1="122.39" y1="98.97" x2="122.39" y2="98.97"/><line class="cls-9" x1="122.22" y1="98.97" x2="121.97" y2="98.97"/><line class="cls-9" x1="121.81" y1="98.97" x2="121.81" y2="98.97"/><line class="cls-9" x1="121.64" y1="98.97" x2="121.39" y2="98.97"/><line class="cls-9" x1="121.23" y1="98.97" x2="121.23" y2="98.97"/><line class="cls-9" x1="121.14" y1="98.97" x2="120.81" y2="98.97"/><line class="cls-9" x1="120.73" y1="98.97" x2="120.65" y2="98.97"/><line class="cls-9" x1="120.56" y1="98.97" x2="120.23" y2="98.97"/><line class="cls-9" x1="120.15" y1="98.97" x2="120.15" y2="98.97"/><line class="cls-9" x1="119.98" y1="98.97" x2="119.73" y2="98.97"/><line class="cls-9" x1="119.57" y1="98.97" x2="119.57" y2="98.97"/><line class="cls-9" x1="119.4" y1="98.97" x2="119.15" y2="98.97"/><line class="cls-9" x1="118.99" y1="98.97" x2="118.99" y2="98.97"/><line class="cls-9" x1="118.82" y1="98.97" x2="118.57" y2="98.97"/><line class="cls-9" x1="118.41" y1="98.97" x2="118.41" y2="98.97"/><line class="cls-9" x1="118.32" y1="98.97" x2="117.99" y2="98.97"/><line class="cls-9" x1="117.91" y1="98.97" x2="117.91" y2="98.97"/><line class="cls-9" x1="117.74" y1="98.97" x2="117.49" y2="98.97"/><line class="cls-9" x1="117.33" y1="98.97" x2="117.33" y2="98.97"/><line class="cls-9" x1="117.16" y1="98.97" x2="116.91" y2="98.97"/><line class="cls-9" x1="116.75" y1="98.97" x2="116.75" y2="98.97"/><line class="cls-9" x1="116.58" y1="98.97" x2="116.33" y2="98.97"/><line class="cls-9" x1="116.17" y1="98.97" x2="116.17" y2="98.97"/><line class="cls-9" x1="116.08" y1="98.97" x2="115.75" y2="98.97"/><line class="cls-9" x1="115.67" y1="98.97" x2="115.67" y2="98.97"/><line class="cls-9" x1="115.5" y1="98.97" x2="115.25" y2="98.97"/><line class="cls-9" x1="115.09" y1="98.97" x2="115.09" y2="98.97"/><line class="cls-9" x1="114.92" y1="98.97" x2="114.67" y2="98.97"/><line class="cls-9" x1="114.51" y1="98.97" x2="114.51" y2="98.97"/><line class="cls-9" x1="114.34" y1="98.97" x2="114.09" y2="98.97"/><line class="cls-9" x1="113.93" y1="98.97" x2="113.93" y2="98.97"/><line class="cls-9" x1="113.84" y1="98.97" x2="113.51" y2="98.97"/><line class="cls-9" x1="113.43" y1="98.97" x2="113.43" y2="98.97"/><line class="cls-9" x1="113.26" y1="98.97" x2="113.01" y2="98.97"/><line class="cls-9" x1="112.85" y1="98.97" x2="112.85" y2="98.97"/><line class="cls-9" x1="112.68" y1="98.97" x2="112.43" y2="98.97"/><line class="cls-9" x1="112.27" y1="98.97" x2="112.27" y2="98.97"/><line class="cls-9" x1="112.1" y1="98.97" x2="111.85" y2="98.97"/><line class="cls-9" x1="111.69" y1="98.97" x2="111.69" y2="98.97"/><line class="cls-9" x1="111.6" y1="98.97" x2="111.27" y2="98.97"/><line class="cls-9" x1="111.19" y1="98.97" x2="111.19" y2="98.97"/><line class="cls-9" x1="111.02" y1="98.97" x2="110.78" y2="98.97"/><line class="cls-9" x1="110.61" y1="98.97" x2="110.61" y2="98.97"/><line class="cls-9" x1="110.44" y1="98.97" x2="110.19" y2="98.97"/><line class="cls-9" x1="110.03" y1="98.97" x2="110.03" y2="98.97"/><line class="cls-9" x1="109.86" y1="98.97" x2="109.61" y2="98.97"/><line class="cls-9" x1="109.45" y1="98.97" x2="109.45" y2="98.97"/><line class="cls-9" x1="109.37" y1="98.97" x2="109.03" y2="98.97"/><line class="cls-9" x1="108.95" y1="98.97" x2="108.95" y2="98.97"/><line class="cls-9" x1="108.78" y1="98.97" x2="108.54" y2="98.97"/><line class="cls-9" x1="108.37" y1="98.97" x2="108.37" y2="98.97"/><line class="cls-9" x1="108.2" y1="98.97" x2="107.95" y2="98.97"/><line class="cls-9" x1="107.79" y1="98.97" x2="107.79" y2="98.97"/><line class="cls-9" x1="107.62" y1="98.97" x2="107.37" y2="98.97"/><line class="cls-9" x1="107.21" y1="98.97" x2="107.21" y2="98.97"/><line class="cls-9" x1="107.13" y1="98.97" x2="106.79" y2="98.97"/><line class="cls-9" x1="106.71" y1="98.97" x2="106.71" y2="98.97"/><line class="cls-9" x1="106.54" y1="98.97" x2="106.3" y2="98.97"/><line class="cls-9" x1="106.13" y1="98.97" x2="106.13" y2="98.97"/><line class="cls-9" x1="105.96" y1="98.97" x2="105.72" y2="98.97"/><line class="cls-9" x1="105.55" y1="98.97" x2="105.55" y2="98.97"/><line class="cls-9" x1="105.38" y1="98.97" x2="105.13" y2="98.97"/><line class="cls-9" x1="104.97" y1="98.97" x2="104.97" y2="98.97"/><line class="cls-9" x1="104.89" y1="98.97" x2="104.55" y2="98.97"/><line class="cls-9" x1="104.47" y1="98.97" x2="104.39" y2="98.97"/><line class="cls-9" x1="104.31" y1="98.97" x2="103.97" y2="98.97"/><line class="cls-9" x1="103.89" y1="98.97" x2="103.89" y2="98.97"/><line class="cls-9" x1="103.72" y1="98.97" x2="103.48" y2="98.97"/><line class="cls-9" x1="103.31" y1="98.97" x2="103.31" y2="98.97"/><line class="cls-9" x1="103.14" y1="98.97" x2="102.9" y2="98.97"/><line class="cls-9" x1="102.73" y1="98.97" x2="102.73" y2="98.97"/><line class="cls-9" x1="102.65" y1="98.97" x2="102.31" y2="98.97"/><line class="cls-9" x1="102.23" y1="98.97" x2="102.15" y2="98.97"/><line class="cls-9" x1="102.07" y1="98.97" x2="101.73" y2="98.97"/><line class="cls-9" x1="101.65" y1="98.97" x2="101.65" y2="98.97"/><line class="cls-9" x1="101.49" y1="98.97" x2="101.24" y2="98.97"/><line class="cls-9" x1="101.07" y1="98.97" x2="101.07" y2="98.97"/><line class="cls-9" x1="100.9" y1="98.97" x2="100.66" y2="98.97"/><line class="cls-9" x1="100.49" y1="98.97" x2="100.49" y2="98.97"/><line class="cls-9" x1="100.41" y1="98.97" x2="100.08" y2="98.97"/><line class="cls-9" x1="99.99" y1="98.97" x2="99.91" y2="98.97"/><line class="cls-9" x1="99.83" y1="98.97" x2="99.49" y2="98.97"/><line class="cls-9" x1="99.41" y1="98.97" x2="99.41" y2="98.97"/><line class="cls-9" x1="99.25" y1="98.97" x2="99" y2="98.97"/><line class="cls-9" x1="98.83" y1="98.97" x2="98.83" y2="98.97"/><line class="cls-9" x1="98.67" y1="98.97" x2="98.42" y2="98.97"/><line class="cls-9" x1="98.25" y1="98.97" x2="98.25" y2="98.97"/><line class="cls-9" x1="98.17" y1="98.97" x2="97.84" y2="98.97"/><line class="cls-9" x1="97.75" y1="98.97" x2="97.67" y2="98.97"/><line class="cls-9" x1="97.59" y1="98.97" x2="97.26" y2="98.97"/><line class="cls-9" x1="97.17" y1="98.97" x2="97.17" y2="98.97"/><line class="cls-9" x1="97.01" y1="98.97" x2="96.76" y2="98.97"/><line class="cls-9" x1="96.59" y1="98.97" x2="96.59" y2="98.97"/><line class="cls-9" x1="96.43" y1="98.97" x2="96.18" y2="98.97"/><line class="cls-9" x1="96.01" y1="98.97" x2="96.01" y2="98.97"/><line class="cls-9" x1="95.84" y1="98.97" x2="95.6" y2="98.97"/><line class="cls-9" x1="95.43" y1="98.97" x2="95.43" y2="98.97"/><line class="cls-9" x1="95.35" y1="98.97" x2="95.02" y2="98.97"/><line class="cls-9" x1="94.93" y1="98.97" x2="94.93" y2="98.97"/><line class="cls-9" x1="94.77" y1="98.97" x2="94.52" y2="98.97"/><line class="cls-9" x1="94.35" y1="98.97" x2="94.35" y2="98.97"/><line class="cls-9" x1="94.19" y1="98.97" x2="93.94" y2="98.97"/><line class="cls-9" x1="93.77" y1="98.97" x2="93.77" y2="98.97"/><line class="cls-9" x1="93.61" y1="98.97" x2="93.36" y2="98.97"/><line class="cls-9" x1="93.19" y1="98.97" x2="93.19" y2="98.97"/><line class="cls-9" x1="93.11" y1="98.97" x2="92.78" y2="98.97"/><line class="cls-9" x1="92.69" y1="98.97" x2="92.69" y2="98.97"/><line class="cls-9" x1="92.53" y1="98.97" x2="92.28" y2="98.97"/><line class="cls-9" x1="92.11" y1="98.97" x2="92.11" y2="98.97"/><line class="cls-9" x1="91.95" y1="98.97" x2="91.7" y2="98.97"/><line class="cls-9" x1="91.53" y1="98.97" x2="91.53" y2="98.97"/><line class="cls-9" x1="91.37" y1="98.97" x2="91.12" y2="98.97"/><line class="cls-9" x1="90.95" y1="98.97" x2="90.95" y2="98.97"/><line class="cls-9" x1="90.87" y1="98.97" x2="90.54" y2="98.97"/><line class="cls-9" x1="90.45" y1="98.97" x2="90.45" y2="98.97"/><line class="cls-9" x1="90.29" y1="98.97" x2="90.04" y2="98.97"/><line class="cls-9" x1="89.87" y1="98.97" x2="89.87" y2="98.97"/><line class="cls-9" x1="89.71" y1="98.97" x2="89.46" y2="98.97"/><line class="cls-9" x1="89.29" y1="98.97" x2="89.29" y2="98.97"/><line class="cls-9" x1="89.13" y1="98.97" x2="88.88" y2="98.97"/><line class="cls-9" x1="88.71" y1="98.97" x2="88.71" y2="98.97"/><line class="cls-9" x1="88.63" y1="98.97" x2="88.3" y2="98.97"/><line class="cls-9" x1="88.21" y1="98.97" x2="88.21" y2="98.97"/><line class="cls-9" x1="88.05" y1="98.97" x2="87.8" y2="98.97"/><line class="cls-9" x1="87.63" y1="98.97" x2="87.63" y2="98.97"/><line class="cls-9" x1="87.47" y1="98.97" x2="87.22" y2="98.97"/><line class="cls-9" x1="87.05" y1="98.97" x2="87.05" y2="98.97"/><line class="cls-9" x1="86.89" y1="98.97" x2="86.64" y2="98.97"/><line class="cls-9" x1="86.47" y1="98.97" x2="86.47" y2="98.97"/><line class="cls-9" x1="86.39" y1="98.97" x2="86.06" y2="98.97"/><line class="cls-9" x1="85.97" y1="98.97" x2="85.97" y2="98.97"/><line class="cls-9" x1="85.81" y1="98.97" x2="85.56" y2="98.97"/><line class="cls-9" x1="85.39" y1="98.97" x2="85.39" y2="98.97"/><line class="cls-9" x1="85.23" y1="98.97" x2="84.98" y2="98.97"/><line class="cls-9" x1="84.81" y1="98.97" x2="84.81" y2="98.97"/><line class="cls-9" x1="84.65" y1="98.97" x2="84.4" y2="98.97"/><line class="cls-9" x1="84.23" y1="98.97" x2="84.23" y2="98.97"/><line class="cls-9" x1="84.15" y1="98.97" x2="83.82" y2="98.97"/><line class="cls-9" x1="83.73" y1="98.97" x2="83.73" y2="98.97"/><line class="cls-9" x1="83.57" y1="98.97" x2="83.32" y2="98.97"/><line class="cls-9" x1="83.15" y1="98.97" x2="83.15" y2="98.97"/><line class="cls-9" x1="82.99" y1="98.97" x2="82.74" y2="98.97"/><line class="cls-9" x1="82.57" y1="98.97" x2="82.57" y2="98.97"/><line class="cls-9" x1="82.41" y1="98.97" x2="82.16" y2="98.97"/><line class="cls-9" x1="81.99" y1="98.97" x2="81.99" y2="98.97"/><line class="cls-9" x1="81.91" y1="98.97" x2="81.58" y2="98.97"/><line class="cls-9" x1="81.5" y1="98.97" x2="81.41" y2="98.97"/><line class="cls-9" x1="81.33" y1="98.97" x2="81" y2="98.97"/><line class="cls-9" x1="80.91" y1="98.97" x2="80.91" y2="98.97"/><line class="cls-9" x1="80.75" y1="98.97" x2="80.5" y2="98.97"/><line class="cls-9" x1="80.33" y1="98.97" x2="80.33" y2="98.97"/><line class="cls-9" x1="80.17" y1="98.97" x2="79.92" y2="98.97"/><line class="cls-9" x1="79.75" y1="98.97" x2="79.75" y2="98.97"/><line class="cls-9" x1="79.67" y1="98.97" x2="79.34" y2="98.97"/><line class="cls-9" x1="79.26" y1="98.97" x2="79.17" y2="98.97"/><line class="cls-9" x1="79.09" y1="98.97" x2="78.76" y2="98.97"/><line class="cls-9" x1="78.68" y1="98.97" x2="78.68" y2="98.97"/><line class="cls-9" x1="78.51" y1="98.97" x2="78.26" y2="98.97"/><line class="cls-9" x1="78.09" y1="98.97" x2="78.09" y2="98.97"/><line class="cls-9" x1="77.93" y1="98.97" x2="77.68" y2="98.97"/><line class="cls-9" x1="77.51" y1="98.97" x2="77.51" y2="98.97"/><line class="cls-9" x1="77.43" y1="98.97" x2="77.1" y2="98.97"/><line class="cls-9" x1="77.02" y1="98.97" x2="76.93" y2="98.97"/><line class="cls-9" x1="76.85" y1="98.97" x2="76.52" y2="98.97"/><line class="cls-9" x1="76.44" y1="98.97" x2="76.44" y2="98.97"/><line class="cls-9" x1="76.27" y1="98.97" x2="76.02" y2="98.97"/><line class="cls-9" x1="75.86" y1="98.97" x2="75.86" y2="98.97"/><line class="cls-9" x1="75.69" y1="98.97" x2="75.44" y2="98.97"/><line class="cls-9" x1="75.27" y1="98.97" x2="75.27" y2="98.97"/><line class="cls-9" x1="75.19" y1="98.97" x2="74.86" y2="98.97"/><line class="cls-9" x1="74.78" y1="98.97" x2="74.69" y2="98.97"/><line class="cls-9" x1="74.61" y1="98.97" x2="74.28" y2="98.97"/><line class="cls-9" x1="74.2" y1="98.97" x2="74.2" y2="98.97"/><line class="cls-9" x1="74.03" y1="98.97" x2="73.78" y2="98.97"/><line class="cls-9" x1="73.62" y1="98.97" x2="73.62" y2="98.97"/><line class="cls-9" x1="73.45" y1="98.97" x2="73.2" y2="98.97"/><line class="cls-9" x1="73.04" y1="98.97" x2="73.04" y2="98.97"/><line class="cls-9" x1="72.87" y1="98.97" x2="72.62" y2="98.97"/><line class="cls-9" x1="72.45" y1="98.97" x2="72.45" y2="98.97"/><line class="cls-9" x1="72.37" y1="98.97" x2="72.04" y2="98.97"/><line class="cls-9" x1="71.96" y1="98.97" x2="71.96" y2="98.97"/><line class="cls-9" x1="71.79" y1="98.97" x2="71.54" y2="98.97"/><line class="cls-9" x1="71.38" y1="98.97" x2="71.38" y2="98.97"/><line class="cls-9" x1="71.21" y1="98.97" x2="70.96" y2="98.97"/><line class="cls-9" x1="70.8" y1="98.97" x2="70.8" y2="98.97"/><line class="cls-9" x1="70.63" y1="98.97" x2="70.38" y2="98.97"/><line class="cls-9" x1="70.21" y1="98.97" x2="70.21" y2="98.97"/><line class="cls-9" x1="70.13" y1="98.97" x2="69.8" y2="98.97"/><line class="cls-9" x1="69.72" y1="98.97" x2="69.72" y2="98.97"/><line class="cls-9" x1="69.55" y1="98.97" x2="69.3" y2="98.97"/><line class="cls-9" x1="69.14" y1="98.97" x2="69.14" y2="98.97"/><line class="cls-9" x1="68.97" y1="98.97" x2="68.72" y2="98.97"/><line class="cls-9" x1="68.56" y1="98.97" x2="68.56" y2="98.97"/><line class="cls-9" x1="68.39" y1="98.97" x2="68.14" y2="98.97"/><line class="cls-9" x1="67.98" y1="98.97" x2="67.98" y2="98.97"/><line class="cls-9" x1="67.89" y1="98.97" x2="67.56" y2="98.97"/><line class="cls-9" x1="67.48" y1="98.97" x2="67.48" y2="98.97"/><line class="cls-9" x1="67.31" y1="98.97" x2="67.06" y2="98.97"/><line class="cls-9" x1="66.9" y1="98.97" x2="66.9" y2="98.97"/><line class="cls-9" x1="66.73" y1="98.97" x2="66.48" y2="98.97"/><line class="cls-9" x1="66.32" y1="98.97" x2="66.32" y2="98.97"/><line class="cls-9" x1="66.15" y1="98.97" x2="65.9" y2="98.97"/><line class="cls-9" x1="65.74" y1="98.97" x2="65.74" y2="98.97"/><line class="cls-9" x1="65.65" y1="98.97" x2="65.32" y2="98.97"/><line class="cls-9" x1="65.24" y1="98.97" x2="65.24" y2="98.97"/><line class="cls-9" x1="65.07" y1="98.97" x2="64.82" y2="98.97"/><line class="cls-9" x1="64.66" y1="98.97" x2="64.66" y2="98.97"/><line class="cls-9" x1="64.49" y1="98.97" x2="64.24" y2="98.97"/><line class="cls-9" x1="64.08" y1="98.97" x2="64.08" y2="98.97"/><line class="cls-9" x1="63.91" y1="98.97" x2="63.66" y2="98.97"/><line class="cls-9" x1="63.5" y1="98.97" x2="63.5" y2="98.97"/><line class="cls-9" x1="63.41" y1="98.97" x2="63.08" y2="98.97"/><line class="cls-9" x1="63" y1="98.97" x2="63" y2="98.97"/><line class="cls-9" x1="62.83" y1="98.97" x2="62.58" y2="98.97"/><line class="cls-9" x1="62.42" y1="98.97" x2="62.42" y2="98.97"/><line class="cls-9" x1="62.25" y1="98.97" x2="62" y2="98.97"/><line class="cls-9" x1="61.84" y1="98.97" x2="61.84" y2="98.97"/><line class="cls-9" x1="61.67" y1="98.97" x2="61.42" y2="98.97"/><line class="cls-9" x1="61.26" y1="98.97" x2="61.26" y2="98.97"/><line class="cls-9" x1="61.17" y1="98.97" x2="60.84" y2="98.97"/><line class="cls-9" x1="60.76" y1="98.97" x2="60.76" y2="98.97"/><line class="cls-9" x1="60.59" y1="98.97" x2="60.34" y2="98.97"/><line class="cls-9" x1="60.18" y1="98.97" x2="60.18" y2="98.97"/><line class="cls-9" x1="60.01" y1="98.97" x2="59.76" y2="98.97"/><line class="cls-9" x1="59.6" y1="98.97" x2="59.6" y2="98.97"/><line class="cls-9" x1="59.43" y1="98.97" x2="59.18" y2="98.97"/><line class="cls-9" x1="59.02" y1="98.97" x2="59.02" y2="98.97"/><line class="cls-9" x1="58.93" y1="98.97" x2="58.6" y2="98.97"/><line class="cls-9" x1="58.52" y1="98.97" x2="58.44" y2="98.97"/><line class="cls-9" x1="58.35" y1="98.97" x2="58.02" y2="98.97"/><line class="cls-9" x1="57.94" y1="98.97" x2="57.94" y2="98.97"/><line class="cls-9" x1="57.77" y1="98.97" x2="57.61" y2="98.97"/><polyline class="cls-9" points="234.78 98.97 234.78 89.19 57.61 89.19 57.61 98.97 234.78 98.97"/><polyline class="cls-4" points="306.03 193.03 321.7 193.03 321.7 88.77 306.03 88.77 306.03 193.03"/><polyline class="cls-4" points="306.03 459.45 321.7 459.45 321.7 381.07 306.03 381.07 306.03 459.45"/><polyline class="cls-4" points="0.38 459.45 16.05 459.45 16.05 381.07 0.38 381.07 0.38 459.45"/><polyline class="cls-4" points="0.38 193.03 16.05 193.03 16.05 88.77 0.38 88.77 0.38 193.03"/><text class="cls-10" transform="translate(138.33 298.3)">СТ</text><text class="cls-10" transform="translate(112.98 348.47)">23.94</text><text class="cls-10" transform="translate(129.5 248.39)">№2</text><polyline class="cls-5" points="98.69 359.29 98.69 210.21 223.01 210.21 223.01 359.29"/><line class="cls-5" x1="98.69" y1="260" x2="223.01" y2="260"/><line class="cls-5" x1="98.69" y1="359.29" x2="223.01" y2="359.29"/><line class="cls-5" x1="98.69" y1="309.78" x2="223.01" y2="309.78"/><text class="cls-11" transform="translate(59.25 574.83)">3.72</text><text class="cls-11" transform="translate(179.31 540.22)">4.31</text><text class="cls-11" transform="translate(163.09 414.85)">2.20</text><text class="cls-11" transform="translate(117.76 176.52)">13.71</text></svg>