<svg id="_1" data-name="1" xmlns="http://www.w3.org/2000/svg" viewBox="0 0 318.93 669.55"><defs><style>.cls-1{isolation:isolate;font-size:12px;fill:#969696;}.cls-1,.cls-12,.cls-13{font-family:PTSans-Regular, PT Sans;}.cls-2{letter-spacing:-0.01em;}.cls-10,.cls-11,.cls-3,.cls-4,.cls-5,.cls-6,.cls-7,.cls-8,.cls-9{fill:none;stroke-linecap:round;stroke-linejoin:round;}.cls-3{stroke:#969696;}.cls-10,.cls-3,.cls-4{stroke-width:0.75px;}.cls-10,.cls-4,.cls-5,.cls-6,.cls-7,.cls-8,.cls-9{stroke:#000;}.cls-5,.cls-6,.cls-7,.cls-8,.cls-9{stroke-width:0.25px;}.cls-6{stroke-dasharray:0.93 0.93;}.cls-7{stroke-dasharray:0.92 0.92;}.cls-8{stroke-dasharray:1.06 1.06;}.cls-9{stroke-dasharray:0.92 0.92;}.cls-10{stroke-dasharray:0.92 0.92;}.cls-11{stroke:#1c1c1c;stroke-width:0.55px;}.cls-12{font-size:40px;}.cls-13{font-size:36px;}</style></defs><title>2floor_1flat</title><text class="cls-1" transform="translate(151.32 10.2)"><tspan class="cls-2">у</tspan><tspan x="5.42" y="0">лица</tspan></text><line class="cls-3" x1="140.56" y1="4.22" x2="140.56" y2="13.02"/><polyline class="cls-3" points="144.06 7.72 140.56 4.22 137.06 7.72"/><line class="cls-4" x1="0.38" y1="129.95" x2="0.38" y2="129.95"/><line class="cls-4" x1="0.38" y1="88.4" x2="0.38" y2="88.4"/><line class="cls-4" x1="318.55" y1="129.95" x2="318.55" y2="129.95"/><line class="cls-4" x1="318.55" y1="88.4" x2="318.55" y2="88.4"/><line class="cls-4" x1="74.86" y1="103.33" x2="74.86" y2="129.95"/><line class="cls-4" x1="78.01" y1="97.77" x2="78.01" y2="98.6"/><line class="cls-4" x1="78.01" y1="88.4" x2="78.01" y2="97.77"/><line class="cls-4" x1="78.01" y1="98.6" x2="74.86" y2="98.6"/><line class="cls-4" x1="74.86" y1="98.6" x2="74.86" y2="103.33"/><line class="cls-4" x1="234.69" y1="103.33" x2="234.69" y2="129.95"/><line class="cls-4" x1="231.63" y1="97.77" x2="231.63" y2="98.6"/><line class="cls-4" x1="231.63" y1="88.4" x2="231.63" y2="97.77"/><line class="cls-4" x1="231.63" y1="98.6" x2="234.69" y2="98.6"/><line class="cls-4" x1="234.69" y1="98.6" x2="234.69" y2="103.33"/><line class="cls-4" x1="0.38" y1="129.95" x2="74.86" y2="129.95"/><line class="cls-4" x1="234.69" y1="129.95" x2="318.55" y2="129.95"/><line class="cls-4" x1="318.55" y1="88.4" x2="231.63" y2="88.4"/><line class="cls-4" x1="78.01" y1="88.4" x2="0.38" y2="88.4"/><polyline class="cls-4" points="78.01 88.4 231.63 88.4 231.63 84.5 78.01 84.5 78.01 88.4"/><line class="cls-4" x1="234.69" y1="129.95" x2="74.86" y2="129.95"/><polyline class="cls-4" points="234.69 103.33 230.38 103.33 230.38 100.18 228.47 100.18 228.47 98.6 234.69 98.6"/><polyline class="cls-4" points="180.37 98.6 183.52 98.6 183.52 100.18 181.53 100.18 181.53 103.33 180.37 103.33"/><line class="cls-4" x1="183.52" y1="98.6" x2="228.47" y2="98.6"/><polyline class="cls-4" points="230.38 104.82 225.74 104.82 186.25 104.82"/><polyline class="cls-4" points="225.74 104.82 225.74 100.18 230.38 100.18 230.38 104.82"/><polyline class="cls-4" points="181.53 100.18 186.25 100.18 186.25 104.82 181.53 104.82 181.53 100.18"/><line class="cls-4" x1="186.25" y1="100.18" x2="225.74" y2="100.18"/><line class="cls-4" x1="225.74" y1="104.82" x2="186.25" y2="104.82"/><line class="cls-4" x1="225.74" y1="102.5" x2="186.25" y2="102.5"/><polyline class="cls-4" points="180.37 103.33 179.2 103.33 179.2 100.18 177.21 100.18 177.21 98.6 180.37 98.6"/><polyline class="cls-4" points="129.19 98.6 132.34 98.6 132.34 100.18 130.35 100.18 130.35 103.33 129.19 103.33"/><line class="cls-4" x1="132.34" y1="98.6" x2="177.21" y2="98.6"/><polyline class="cls-4" points="179.2 104.82 174.48 104.82 135.08 104.82"/><polyline class="cls-4" points="174.48 104.82 174.48 100.18 179.2 100.18 179.2 104.82"/><polyline class="cls-4" points="130.35 100.18 135.08 100.18 135.08 104.82 130.35 104.82 130.35 100.18"/><line class="cls-4" x1="135.08" y1="100.18" x2="174.48" y2="100.18"/><line class="cls-4" x1="174.48" y1="104.82" x2="135.08" y2="104.82"/><line class="cls-4" x1="174.48" y1="102.5" x2="135.08" y2="102.5"/><polyline class="cls-4" points="129.19 103.33 128.03 103.33 128.03 100.18 126.04 100.18 126.04 98.6 129.19 98.6"/><polyline class="cls-4" points="74.86 98.6 81.08 98.6 81.08 100.18 79.17 100.18 79.17 103.33 74.86 103.33"/><line class="cls-4" x1="81.08" y1="98.6" x2="126.04" y2="98.6"/><polyline class="cls-4" points="128.03 104.82 123.3 104.82 83.82 104.82"/><polyline class="cls-4" points="123.3 104.82 123.3 100.18 128.03 100.18 128.03 104.82"/><polyline class="cls-4" points="79.17 100.18 83.82 100.18 83.82 104.82 79.17 104.82 79.17 100.18"/><line class="cls-4" x1="83.82" y1="100.18" x2="123.3" y2="100.18"/><line class="cls-4" x1="123.3" y1="104.82" x2="83.82" y2="104.82"/><line class="cls-4" x1="123.3" y1="102.5" x2="83.82" y2="102.5"/><polyline class="cls-4" points="234.69 103.33 234.69 98.6 234.69 103.33"/><polyline class="cls-4" points="234.69 98.6 231.63 98.6 234.69 98.6"/><polyline class="cls-4" points="231.63 88.4 231.63 97.77 231.63 98.6"/><line class="cls-4" x1="234.69" y1="103.33" x2="234.69" y2="129.95"/><polyline class="cls-4" points="74.86 103.33 74.86 98.6 74.86 103.33"/><polyline class="cls-4" points="74.86 98.6 78.01 98.6 74.86 98.6"/><polyline class="cls-4" points="78.01 88.4 78.01 97.77 78.01 98.6"/><line class="cls-4" x1="74.86" y1="103.33" x2="74.86" y2="129.95"/><polyline class="cls-4" points="175.14 669.18 175.14 662.87 175.14 653.5"/><polyline class="cls-4" points="253.52 669.18 253.52 662.87 253.52 653.5"/><line class="cls-4" x1="318.55" y1="653.5" x2="318.55" y2="653.5"/><line class="cls-4" x1="304.45" y1="653.5" x2="253.52" y2="653.5"/><polyline class="cls-4" points="175.14 653.5 12.9 653.5 12.9 669.18 175.14 669.18"/><line class="cls-4" x1="253.52" y1="669.18" x2="318.55" y2="669.18"/><line class="cls-4" x1="253.52" y1="669.18" x2="253.36" y2="669.18"/><line class="cls-4" x1="253.27" y1="669.18" x2="253.27" y2="669.18"/><line class="cls-4" x1="253.19" y1="669.18" x2="253.19" y2="669.18"/><line class="cls-4" x1="253.11" y1="669.18" x2="252.86" y2="669.18"/><polyline class="cls-4" points="252.78 669.18 252.69 669.18 252.44 669.18"/><line class="cls-4" x1="252.36" y1="669.18" x2="252.36" y2="669.18"/><line class="cls-4" x1="252.28" y1="669.18" x2="252.28" y2="669.18"/><polyline class="cls-4" points="252.19 669.18 251.95 669.18 251.86 669.18 251.78 669.18 251.53 669.18"/><line class="cls-4" x1="251.45" y1="669.18" x2="251.45" y2="669.18"/><line class="cls-4" x1="251.37" y1="669.18" x2="251.37" y2="669.18"/><line class="cls-4" x1="251.28" y1="669.18" x2="251.12" y2="669.18"/><line class="cls-4" x1="251.03" y1="669.18" x2="251.03" y2="669.18"/><line class="cls-4" x1="250.95" y1="669.18" x2="250.95" y2="669.18"/><polyline class="cls-4" points="250.87 669.18 250.62 669.18 250.54 669.18 250.45 669.18 250.21 669.18"/><line class="cls-4" x1="250.12" y1="669.18" x2="250.12" y2="669.18"/><line class="cls-4" x1="250.04" y1="669.18" x2="250.04" y2="669.18"/><line class="cls-4" x1="178.62" y1="669.18" x2="178.62" y2="669.18"/><line class="cls-5" x1="250.45" y1="669.18" x2="249.99" y2="669.18"/><line class="cls-6" x1="249.07" y1="669.18" x2="179.21" y2="669.18"/><line class="cls-5" x1="178.75" y1="669.18" x2="178.29" y2="669.18"/><line class="cls-4" x1="178.21" y1="669.18" x2="178.21" y2="669.18"/><line class="cls-4" x1="178.13" y1="669.18" x2="178.13" y2="669.18"/><polyline class="cls-4" points="178.04 669.18 177.79 669.18 177.71 669.18 177.63 669.18 177.38 669.18"/><line class="cls-4" x1="177.3" y1="669.18" x2="177.3" y2="669.18"/><line class="cls-4" x1="177.21" y1="669.18" x2="177.21" y2="669.18"/><line class="cls-4" x1="177.13" y1="669.18" x2="176.96" y2="669.18"/><line class="cls-4" x1="176.88" y1="669.18" x2="176.88" y2="669.18"/><line class="cls-4" x1="176.8" y1="669.18" x2="176.8" y2="669.18"/><line class="cls-4" x1="176.72" y1="669.18" x2="176.47" y2="669.18"/><polyline class="cls-4" points="176.38 669.18 176.3 669.18 176.05 669.18"/><line class="cls-4" x1="175.97" y1="669.18" x2="175.97" y2="669.18"/><line class="cls-4" x1="175.89" y1="669.18" x2="175.89" y2="669.18"/><polyline class="cls-4" points="175.8 669.18 175.55 669.18 175.47 669.18 175.39 669.18 175.14 669.18"/><line class="cls-4" x1="253.52" y1="653.5" x2="253.36" y2="653.5"/><line class="cls-4" x1="253.27" y1="653.5" x2="253.27" y2="653.5"/><line class="cls-4" x1="253.19" y1="653.5" x2="253.19" y2="653.5"/><path class="cls-4" d="M250.45,691.25a72.12,72.12,0,0,0-72.12-72.12" transform="translate(0 -28.34)"/><polyline class="cls-4" points="253.52 669.18 250.37 669.18 250.37 662.87 253.52 662.87 253.52 669.18"/><polyline class="cls-4" points="175.14 662.87 178.29 662.87 178.29 669.18 175.14 669.18 175.14 662.87"/><line class="cls-4" x1="178.29" y1="662.87" x2="178.29" y2="590.79"/><polyline class="cls-4" points="253.52 653.5 253.52 662.87 253.52 669.18 253.52 662.87"/><polyline class="cls-4" points="175.14 653.5 175.14 662.87 175.14 669.18 175.14 662.87"/><line class="cls-4" x1="156.31" y1="528.09" x2="150.09" y2="528.09"/><line class="cls-4" x1="156.31" y1="582.91" x2="150.09" y2="582.91"/><line class="cls-4" x1="150.09" y1="448.13" x2="150.09" y2="528.09"/><polyline class="cls-4" points="150.09 582.91 150.09 653.5 156.31 653.5 156.31 582.91"/><line class="cls-4" x1="156.31" y1="528.09" x2="156.31" y2="441.83"/><line class="cls-5" x1="156.31" y1="583.32" x2="156.31" y2="582.86"/><line class="cls-7" x1="156.31" y1="581.94" x2="156.31" y2="529.01"/><line class="cls-5" x1="156.31" y1="528.55" x2="156.31" y2="528.09"/><line class="cls-5" x1="150.09" y1="583.32" x2="150.09" y2="582.86"/><line class="cls-7" x1="150.09" y1="581.94" x2="150.09" y2="529.01"/><line class="cls-5" x1="150.09" y1="528.55" x2="150.09" y2="528.09"/><line class="cls-4" x1="156.31" y1="582.91" x2="150.09" y2="582.91"/><line class="cls-4" x1="156.31" y1="528.09" x2="150.09" y2="528.09"/><line class="cls-4" x1="175.14" y1="497.48" x2="175.14" y2="491.26"/><polyline class="cls-4" points="245.73 497.48 245.73 491.26 304.45 491.26"/><polyline class="cls-4" points="175.14 491.26 156.31 491.26 156.31 497.48 175.14 497.48"/><polyline class="cls-4" points="245.73 497.48 304.45 497.48 304.45 491.26"/><line class="cls-4" x1="245.73" y1="497.48" x2="245.73" y2="491.26"/><line class="cls-5" x1="175.14" y1="491.26" x2="175.14" y2="491.72"/><line class="cls-8" x1="175.14" y1="492.78" x2="175.14" y2="496.49"/><polyline class="cls-5" points="175.14 497.02 175.14 497.48 175.6 497.48"/><line class="cls-9" x1="176.52" y1="497.48" x2="251.59" y2="497.48"/><line class="cls-5" x1="252.05" y1="497.48" x2="252.51" y2="497.48"/><line class="cls-4" x1="58.35" y1="485.79" x2="58.35" y2="448.13"/><line class="cls-4" x1="52.13" y1="448.13" x2="52.13" y2="479.48"/><polyline class="cls-4" points="156.31 441.82 150.09 441.82 12.9 441.82 12.9 448.13 52.13 448.13"/><line class="cls-4" x1="58.35" y1="448.13" x2="150.09" y2="448.13"/><line class="cls-4" x1="318.55" y1="497.48" x2="318.55" y2="497.48"/><polyline class="cls-4" points="318.55 491.26 318.55 491.26 318.55 497.48"/><line class="cls-4" x1="304.45" y1="129.95" x2="304.45" y2="653.5"/><polyline class="cls-4" points="318.55 669.18 318.55 129.95 304.45 129.95"/><polyline class="cls-4" points="16.8 485.79 16.8 482.63 16.8 479.48"/><polyline class="cls-4" points="48.15 485.79 48.15 482.63 48.15 479.48 52.13 479.48"/><polyline class="cls-4" points="16.8 479.48 12.9 479.48 12.9 485.79 16.8 485.79"/><polyline class="cls-4" points="58.35 485.79 52.13 485.79 48.15 485.79"/><line class="cls-10" x1="48.15" y1="485.79" x2="16.8" y2="485.79"/><line class="cls-10" x1="48.15" y1="479.48" x2="16.8" y2="479.48"/><path class="cls-4" d="M46.26,524.87a31.24,31.24,0,0,0,1.89-10.7" transform="translate(0 -28.34)"/><line class="cls-4" x1="16.8" y1="485.79" x2="46.33" y2="496.49"/><polyline class="cls-4" points="48.15 479.48 48.15 482.63 48.15 485.79 48.15 482.63"/><polyline class="cls-4" points="16.8 479.48 16.8 482.63 16.8 485.79 16.8 482.63"/><line class="cls-4" x1="19.7" y1="641.72" x2="19.7" y2="601.74"/><line class="cls-4" x1="24.18" y1="597.01" x2="121.14" y2="597.01"/><line class="cls-4" x1="24.18" y1="646.45" x2="121.14" y2="646.45"/><line class="cls-4" x1="148.51" y1="592.37" x2="15.31" y2="592.37"/><polyline class="cls-4" points="148.51 592.37 148.51 651.1 15.3 651.1 15.3 592.37"/><line class="cls-4" x1="105.55" y1="638.24" x2="29.65" y2="638.24"/><line class="cls-4" x1="27.42" y1="635.92" x2="27.42" y2="607.55"/><line class="cls-4" x1="105.55" y1="605.23" x2="29.65" y2="605.23"/><line class="cls-4" x1="43.01" y1="623.14" x2="43.01" y2="626.05"/><line class="cls-4" x1="41.68" y1="621.73" x2="38.94" y2="621.73"/><line class="cls-4" x1="43.01" y1="620.32" x2="43.01" y2="617.42"/><line class="cls-4" x1="44.42" y1="621.73" x2="47.16" y2="621.73"/><path class="cls-4" d="M121.18,674.79c12.9,0,23.35-11,23.35-24.68s-10.45-24.67-23.35-24.67" transform="translate(0 -28.34)"/><path class="cls-4" d="M24.22,625.44a4.56,4.56,0,0,0-4.44,4.68" transform="translate(0 -28.34)"/><path class="cls-4" d="M19.78,670.1a4.57,4.57,0,0,0,4.44,4.69" transform="translate(0 -28.34)"/><path class="cls-4" d="M43.05,652.56a2.46,2.46,0,1,0-2.28-2.45,2.37,2.37,0,0,0,2.28,2.45" transform="translate(0 -28.34)"/><path class="cls-4" d="M105.59,666.66c8.59,0,15.55-7.41,15.55-16.55s-7-16.55-15.55-16.55" transform="translate(0 -28.34)"/><path class="cls-4" d="M27.5,664.3a2.28,2.28,0,0,0,2.2,2.36" transform="translate(0 -28.34)"/><path class="cls-4" d="M29.7,633.56a2.29,2.29,0,0,0-2.2,2.37" transform="translate(0 -28.34)"/><path class="cls-4" d="M43.05,653.39a3.28,3.28,0,1,0-3.11-3.28,3.2,3.2,0,0,0,3.11,3.28" transform="translate(0 -28.34)"/><polyline class="cls-4" points="33.14 549.99 15.3 549.99 15.3 592.37 33.14 592.37"/><line class="cls-4" x1="15.31" y1="577.85" x2="15.31" y2="564.5"/><line class="cls-4" x1="29.65" y1="574.7" x2="29.65" y2="572.46"/><line class="cls-4" x1="26.09" y1="571.14" x2="28.33" y2="571.14"/><line class="cls-4" x1="29.65" y1="569.89" x2="29.65" y2="567.57"/><line class="cls-4" x1="30.98" y1="571.14" x2="33.22" y2="571.14"/><path class="cls-4" d="M34.29,581a18.93,18.93,0,0,0-8.92,7.32" transform="translate(0 -28.34)"/><path class="cls-4" d="M25.39,588.29a18.88,18.88,0,0,0-2.64,11.25" transform="translate(0 -28.34)"/><path class="cls-4" d="M25.37,610.83a18.85,18.85,0,0,0,8.92,7.31" transform="translate(0 -28.34)"/><path class="cls-4" d="M22.75,599.58a18.89,18.89,0,0,0,2.64,11.25" transform="translate(0 -28.34)"/><path class="cls-4" d="M47.39,598A34.69,34.69,0,0,0,43.9,585.2" transform="translate(0 -28.34)"/><path class="cls-4" d="M33.22,620.7a10.76,10.76,0,0,0,8.84-4" transform="translate(0 -28.34)"/><path class="cls-4" d="M47.44,601.08a24.36,24.36,0,0,0,0-3" transform="translate(0 -28.34)"/><path class="cls-4" d="M26.09,587.67a77.06,77.06,0,0,0,0,23.68" transform="translate(0 -28.34)"/><path class="cls-4" d="M18.68,613.63a26.63,26.63,0,0,0,17.28,6" transform="translate(0 -28.34)"/><path class="cls-4" d="M16.22,599.53a53,53,0,0,0,1.31,12.11" transform="translate(0 -28.34)"/><path class="cls-4" d="M17.47,611.66a3.52,3.52,0,0,0,1.2,2" transform="translate(0 -28.34)"/><path class="cls-4" d="M17.79,599.53a91.82,91.82,0,0,0,.86,11.94" transform="translate(0 -28.34)"/><path class="cls-4" d="M19.84,613.65a23.92,23.92,0,0,0,16.14,6" transform="translate(0 -28.34)"/><path class="cls-4" d="M18.74,611.53a3.55,3.55,0,0,0,1.16,2.16" transform="translate(0 -28.34)"/><path class="cls-4" d="M36,579.49a23.94,23.94,0,0,0-16.13,6" transform="translate(0 -28.34)"/><path class="cls-4" d="M35.92,579.49a26.56,26.56,0,0,0-17.27,6" transform="translate(0 -28.34)"/><path class="cls-4" d="M18.64,587.61a89.81,89.81,0,0,0-.85,11.93" transform="translate(0 -28.34)"/><path class="cls-4" d="M17.51,587.46a53.09,53.09,0,0,0-1.29,12.11" transform="translate(0 -28.34)"/><path class="cls-4" d="M19.81,585.51a3.52,3.52,0,0,0-1.15,2.16" transform="translate(0 -28.34)"/><path class="cls-4" d="M18.67,585.51a3.55,3.55,0,0,0-1.21,2" transform="translate(0 -28.34)"/><path class="cls-4" d="M42.06,582.43a10.74,10.74,0,0,0-8.84-4" transform="translate(0 -28.34)"/><path class="cls-4" d="M43.9,585.17a16.75,16.75,0,0,0-1.82-2.82" transform="translate(0 -28.34)"/><path class="cls-4" d="M42.08,616.76A16.67,16.67,0,0,0,43.9,614" transform="translate(0 -28.34)"/><path class="cls-4" d="M43.9,613.91a34.58,34.58,0,0,0,3.49-12.84" transform="translate(0 -28.34)"/><path class="cls-4" d="M44.39,605.43a25,25,0,0,0,0-11.66" transform="translate(0 -28.34)"/><path class="cls-4" d="M39.56,583.18A6.36,6.36,0,0,0,34.32,581" transform="translate(0 -28.34)"/><path class="cls-4" d="M44.4,593.71a22.88,22.88,0,0,0-4.83-10.54" transform="translate(0 -28.34)"/><path class="cls-4" d="M34.32,618.12a6.35,6.35,0,0,0,5.24-2.18" transform="translate(0 -28.34)"/><path class="cls-4" d="M39.57,616A23,23,0,0,0,44.4,605.4" transform="translate(0 -28.34)"/><path class="cls-4" d="M29.7,602.29a2.78,2.78,0,1,0-2.78-2.77,2.77,2.77,0,0,0,2.78,2.77" transform="translate(0 -28.34)"/><path class="cls-4" d="M29.7,601.46a1.95,1.95,0,1,0-1.95-1.94,2,2,0,0,0,1.95,1.94" transform="translate(0 -28.34)"/><line class="cls-4" x1="27.33" y1="512.83" x2="54.95" y2="512.83"/><polyline class="cls-4" points="25.67 511.58 15.3 511.58 15.3 541.36"/><line class="cls-4" x1="32.14" y1="526.51" x2="32.14" y2="537.54"/><polyline class="cls-4" points="54.95 512.83 32.14 515.48 32.14 526.51"/><line class="cls-4" x1="54.95" y1="540.2" x2="32.14" y2="537.54"/><line class="cls-4" x1="54.95" y1="513.49" x2="32.14" y2="516.14"/><line class="cls-4" x1="54.95" y1="539.53" x2="32.14" y2="536.88"/><line class="cls-4" x1="27.33" y1="540.2" x2="54.95" y2="540.2"/><line class="cls-4" x1="15.31" y1="541.36" x2="25.67" y2="541.36"/><polyline class="cls-4" points="54.95 512.83 58.02 513.16 60.92 514.32 63.5 516.23 65.49 518.72 66.98 521.62 67.73 524.85 67.73 528.17 66.98 531.41 65.49 534.31 63.5 536.8 60.92 538.62 58.02 539.87 54.95 540.2"/><polyline class="cls-4" points="54.95 513.49 57.86 513.9 60.59 514.98 63 516.81 64.91 519.13 66.32 521.87 66.98 524.94 66.98 528.09 66.32 531.16 64.91 533.89 63 536.22 60.59 538.04 57.86 539.12 54.95 539.53"/><path class="cls-4" d="M27.37,568.23a126.66,126.66,0,0,0,0-26.69" transform="translate(0 -28.34)"/><path class="cls-4" d="M27.49,541.52A1.77,1.77,0,0,0,25.71,540" transform="translate(0 -28.34)"/><path class="cls-4" d="M25.71,569.78a1.75,1.75,0,0,0,1.78-1.53" transform="translate(0 -28.34)"/><path class="cls-4" d="M23.35,554.89a1.45,1.45,0,1,0-1.45,1.45,1.45,1.45,0,0,0,1.45-1.45" transform="translate(0 -28.34)"/><polyline class="cls-4" points="58.35 394.88 58.35 437.93 15.3 437.93 15.3 394.88 58.35 394.88"/><polyline class="cls-4" points="19.2 398.78 54.45 398.78 54.45 430.13 19.2 430.13 19.2 398.78"/><polyline class="cls-4" points="155.98 86.41 156.31 86.41 156.31 43.36 155.98 43.36 155.98 86.41"/><polyline class="cls-4" points="157.56 41.78 157.56 42.2 229.63 42.2 229.63 41.78 157.56 41.78"/><polyline class="cls-4" points="231.21 43.36 230.8 43.36 230.8 86.41 231.21 86.41 231.21 43.36"/><polyline class="cls-4" points="155.56 88.4 157.56 88.4 157.56 86.41 155.56 86.41 155.56 88.4"/><polyline class="cls-4" points="155.56 43.36 157.56 43.36 157.56 41.37 155.56 41.37 155.56 43.36"/><polyline class="cls-4" points="229.63 41.37 229.63 43.36 231.63 43.36 231.63 41.37 229.63 41.37"/><polyline class="cls-4" points="231.63 86.41 229.63 86.41 229.63 88.4 231.63 88.4 231.63 86.41"/><line class="cls-4" x1="157.56" y1="87.4" x2="157.56" y2="43.36"/><line class="cls-4" x1="155.56" y1="41.37" x2="155.56" y2="87.4"/><line class="cls-4" x1="157.56" y1="43.36" x2="229.63" y2="43.36"/><line class="cls-4" x1="231.63" y1="41.37" x2="155.56" y2="41.37"/><line class="cls-4" x1="229.63" y1="43.36" x2="229.63" y2="87.4"/><line class="cls-4" x1="231.63" y1="87.4" x2="231.63" y2="41.37"/><polyline class="cls-4" points="155.56 87.4 155.56 88.4 157.56 88.4 157.56 87.4"/><polyline class="cls-4" points="229.63 87.4 229.63 88.4 231.63 88.4 231.63 87.4"/><polyline class="cls-4" points="231.63 41.37 155.56 41.37 155.56 87.4 157.56 87.4 157.56 43.36 229.63 43.36 229.63 87.4 231.63 87.4 231.63 41.37"/><polyline class="cls-4" points="227.64 55.47 159.46 55.47 159.46 80.6 227.64 80.6 227.64 55.47"/><polyline class="cls-4" points="227.64 57.96 159.46 57.96 159.46 80.6 227.64 80.6 227.64 57.96"/><line class="cls-11" x1="243.32" y1="98.6" x2="243.15" y2="98.6"/><line class="cls-11" x1="243.07" y1="98.6" x2="243.07" y2="98.6"/><line class="cls-11" x1="242.91" y1="98.6" x2="242.66" y2="98.6"/><line class="cls-11" x1="242.49" y1="98.6" x2="242.49" y2="98.6"/><line class="cls-11" x1="242.32" y1="98.6" x2="242.08" y2="98.6"/><line class="cls-11" x1="241.91" y1="98.6" x2="241.91" y2="98.6"/><line class="cls-11" x1="241.74" y1="98.6" x2="241.5" y2="98.6"/><line class="cls-11" x1="241.33" y1="98.6" x2="241.33" y2="98.6"/><line class="cls-11" x1="241.25" y1="98.6" x2="240.91" y2="98.6"/><line class="cls-11" x1="240.83" y1="98.6" x2="240.83" y2="98.6"/><line class="cls-11" x1="240.67" y1="98.6" x2="240.42" y2="98.6"/><line class="cls-11" x1="240.25" y1="98.6" x2="240.25" y2="98.6"/><line class="cls-11" x1="240.09" y1="98.6" x2="239.84" y2="98.6"/><line class="cls-11" x1="239.67" y1="98.6" x2="239.67" y2="98.6"/><line class="cls-11" x1="239.5" y1="98.6" x2="239.26" y2="98.6"/><line class="cls-11" x1="239.09" y1="98.6" x2="239.09" y2="98.6"/><line class="cls-11" x1="239.01" y1="98.6" x2="238.68" y2="98.6"/><line class="cls-11" x1="238.59" y1="98.6" x2="238.59" y2="98.6"/><line class="cls-11" x1="238.43" y1="98.6" x2="238.18" y2="98.6"/><line class="cls-11" x1="238.01" y1="98.6" x2="238.01" y2="98.6"/><line class="cls-11" x1="237.85" y1="98.6" x2="237.6" y2="98.6"/><line class="cls-11" x1="237.43" y1="98.6" x2="237.43" y2="98.6"/><line class="cls-11" x1="237.27" y1="98.6" x2="237.02" y2="98.6"/><line class="cls-11" x1="236.85" y1="98.6" x2="236.85" y2="98.6"/><line class="cls-11" x1="236.77" y1="98.6" x2="236.44" y2="98.6"/><line class="cls-11" x1="236.35" y1="98.6" x2="236.35" y2="98.6"/><line class="cls-11" x1="236.19" y1="98.6" x2="235.94" y2="98.6"/><line class="cls-11" x1="235.77" y1="98.6" x2="235.77" y2="98.6"/><line class="cls-11" x1="235.61" y1="98.6" x2="235.36" y2="98.6"/><line class="cls-11" x1="235.19" y1="98.6" x2="235.19" y2="98.6"/><line class="cls-11" x1="235.03" y1="98.6" x2="234.78" y2="98.6"/><line class="cls-11" x1="234.61" y1="98.6" x2="234.61" y2="98.6"/><line class="cls-11" x1="234.53" y1="98.6" x2="234.2" y2="98.6"/><line class="cls-11" x1="234.11" y1="98.6" x2="234.03" y2="98.6"/><line class="cls-11" x1="233.95" y1="98.6" x2="233.62" y2="98.6"/><line class="cls-11" x1="233.53" y1="98.6" x2="233.53" y2="98.6"/><line class="cls-11" x1="233.37" y1="98.6" x2="233.12" y2="98.6"/><line class="cls-11" x1="232.95" y1="98.6" x2="232.95" y2="98.6"/><line class="cls-11" x1="232.79" y1="98.6" x2="232.54" y2="98.6"/><line class="cls-11" x1="232.37" y1="98.6" x2="232.37" y2="98.6"/><line class="cls-11" x1="232.29" y1="98.6" x2="231.96" y2="98.6"/><line class="cls-11" x1="231.87" y1="98.6" x2="231.79" y2="98.6"/><line class="cls-11" x1="231.71" y1="98.6" x2="231.38" y2="98.6"/><line class="cls-11" x1="231.29" y1="98.6" x2="231.29" y2="98.6"/><line class="cls-11" x1="231.13" y1="98.6" x2="230.88" y2="98.6"/><line class="cls-11" x1="230.71" y1="98.6" x2="230.71" y2="98.6"/><line class="cls-11" x1="230.55" y1="98.6" x2="230.3" y2="98.6"/><line class="cls-11" x1="230.13" y1="98.6" x2="230.13" y2="98.6"/><line class="cls-11" x1="230.05" y1="98.6" x2="229.72" y2="98.6"/><line class="cls-11" x1="229.63" y1="98.6" x2="229.55" y2="98.6"/><line class="cls-11" x1="229.47" y1="98.6" x2="229.14" y2="98.6"/><line class="cls-11" x1="229.05" y1="98.6" x2="229.05" y2="98.6"/><line class="cls-11" x1="228.89" y1="98.6" x2="228.64" y2="98.6"/><line class="cls-11" x1="228.47" y1="98.6" x2="228.47" y2="98.6"/><line class="cls-11" x1="228.31" y1="98.6" x2="228.06" y2="98.6"/><line class="cls-11" x1="227.89" y1="98.6" x2="227.89" y2="98.6"/><line class="cls-11" x1="227.81" y1="98.6" x2="227.48" y2="98.6"/><line class="cls-11" x1="227.39" y1="98.6" x2="227.31" y2="98.6"/><line class="cls-11" x1="227.23" y1="98.6" x2="226.9" y2="98.6"/><line class="cls-11" x1="226.81" y1="98.6" x2="226.81" y2="98.6"/><line class="cls-11" x1="226.65" y1="98.6" x2="226.4" y2="98.6"/><line class="cls-11" x1="226.23" y1="98.6" x2="226.23" y2="98.6"/><line class="cls-11" x1="226.07" y1="98.6" x2="225.82" y2="98.6"/><line class="cls-11" x1="225.65" y1="98.6" x2="225.65" y2="98.6"/><line class="cls-11" x1="225.49" y1="98.6" x2="225.24" y2="98.6"/><line class="cls-11" x1="225.07" y1="98.6" x2="225.07" y2="98.6"/><line class="cls-11" x1="224.99" y1="98.6" x2="224.66" y2="98.6"/><line class="cls-11" x1="224.57" y1="98.6" x2="224.57" y2="98.6"/><line class="cls-11" x1="224.41" y1="98.6" x2="224.16" y2="98.6"/><line class="cls-11" x1="223.99" y1="98.6" x2="223.99" y2="98.6"/><line class="cls-11" x1="223.83" y1="98.6" x2="223.58" y2="98.6"/><line class="cls-11" x1="223.41" y1="98.6" x2="223.41" y2="98.6"/><line class="cls-11" x1="223.25" y1="98.6" x2="223" y2="98.6"/><line class="cls-11" x1="222.83" y1="98.6" x2="222.83" y2="98.6"/><line class="cls-11" x1="222.75" y1="98.6" x2="222.42" y2="98.6"/><line class="cls-11" x1="222.34" y1="98.6" x2="222.34" y2="98.6"/><line class="cls-11" x1="222.17" y1="98.6" x2="221.92" y2="98.6"/><line class="cls-11" x1="221.75" y1="98.6" x2="221.75" y2="98.6"/><line class="cls-11" x1="221.59" y1="98.6" x2="221.34" y2="98.6"/><line class="cls-11" x1="221.17" y1="98.6" x2="221.17" y2="98.6"/><line class="cls-11" x1="221.01" y1="98.6" x2="220.76" y2="98.6"/><line class="cls-11" x1="220.59" y1="98.6" x2="220.59" y2="98.6"/><line class="cls-11" x1="220.51" y1="98.6" x2="220.18" y2="98.6"/><line class="cls-11" x1="220.1" y1="98.6" x2="220.1" y2="98.6"/><line class="cls-11" x1="219.93" y1="98.6" x2="219.68" y2="98.6"/><line class="cls-11" x1="219.52" y1="98.6" x2="219.52" y2="98.6"/><line class="cls-11" x1="219.35" y1="98.6" x2="219.1" y2="98.6"/><line class="cls-11" x1="218.93" y1="98.6" x2="218.93" y2="98.6"/><line class="cls-11" x1="218.77" y1="98.6" x2="218.52" y2="98.6"/><line class="cls-11" x1="218.35" y1="98.6" x2="218.35" y2="98.6"/><line class="cls-11" x1="218.27" y1="98.6" x2="217.94" y2="98.6"/><line class="cls-11" x1="217.86" y1="98.6" x2="217.86" y2="98.6"/><line class="cls-11" x1="217.69" y1="98.6" x2="217.44" y2="98.6"/><line class="cls-11" x1="217.28" y1="98.6" x2="217.28" y2="98.6"/><line class="cls-11" x1="217.11" y1="98.6" x2="216.86" y2="98.6"/><line class="cls-11" x1="216.69" y1="98.6" x2="216.69" y2="98.6"/><line class="cls-11" x1="216.53" y1="98.6" x2="216.28" y2="98.6"/><line class="cls-11" x1="216.11" y1="98.6" x2="216.11" y2="98.6"/><line class="cls-11" x1="216.03" y1="98.6" x2="215.7" y2="98.6"/><line class="cls-11" x1="215.62" y1="98.6" x2="215.62" y2="98.6"/><line class="cls-11" x1="215.45" y1="98.6" x2="215.2" y2="98.6"/><line class="cls-11" x1="215.04" y1="98.6" x2="215.04" y2="98.6"/><line class="cls-11" x1="214.87" y1="98.6" x2="214.62" y2="98.6"/><line class="cls-11" x1="214.46" y1="98.6" x2="214.46" y2="98.6"/><line class="cls-11" x1="214.29" y1="98.6" x2="214.04" y2="98.6"/><line class="cls-11" x1="213.87" y1="98.6" x2="213.87" y2="98.6"/><line class="cls-11" x1="213.79" y1="98.6" x2="213.46" y2="98.6"/><line class="cls-11" x1="213.38" y1="98.6" x2="213.38" y2="98.6"/><line class="cls-11" x1="213.21" y1="98.6" x2="212.96" y2="98.6"/><line class="cls-11" x1="212.8" y1="98.6" x2="212.8" y2="98.6"/><line class="cls-11" x1="212.63" y1="98.6" x2="212.38" y2="98.6"/><line class="cls-11" x1="212.22" y1="98.6" x2="212.22" y2="98.6"/><line class="cls-11" x1="212.05" y1="98.6" x2="211.8" y2="98.6"/><line class="cls-11" x1="211.64" y1="98.6" x2="211.64" y2="98.6"/><line class="cls-11" x1="211.55" y1="98.6" x2="211.22" y2="98.6"/><line class="cls-11" x1="211.14" y1="98.6" x2="211.05" y2="98.6"/><line class="cls-11" x1="210.97" y1="98.6" x2="210.64" y2="98.6"/><line class="cls-11" x1="210.56" y1="98.6" x2="210.56" y2="98.6"/><line class="cls-11" x1="210.39" y1="98.6" x2="210.14" y2="98.6"/><line class="cls-11" x1="209.98" y1="98.6" x2="209.98" y2="98.6"/><line class="cls-11" x1="209.81" y1="98.6" x2="209.56" y2="98.6"/><line class="cls-11" x1="209.4" y1="98.6" x2="209.4" y2="98.6"/><line class="cls-11" x1="209.31" y1="98.6" x2="208.98" y2="98.6"/><line class="cls-11" x1="208.9" y1="98.6" x2="208.82" y2="98.6"/><line class="cls-11" x1="208.73" y1="98.6" x2="208.4" y2="98.6"/><line class="cls-11" x1="208.32" y1="98.6" x2="208.32" y2="98.6"/><line class="cls-11" x1="208.15" y1="98.6" x2="207.9" y2="98.6"/><line class="cls-11" x1="207.74" y1="98.6" x2="207.74" y2="98.6"/><line class="cls-11" x1="207.57" y1="98.6" x2="207.32" y2="98.6"/><line class="cls-11" x1="207.16" y1="98.6" x2="207.16" y2="98.6"/><line class="cls-11" x1="207.07" y1="98.6" x2="206.74" y2="98.6"/><line class="cls-11" x1="206.66" y1="98.6" x2="206.58" y2="98.6"/><line class="cls-11" x1="206.49" y1="98.6" x2="206.16" y2="98.6"/><line class="cls-11" x1="206.08" y1="98.6" x2="206.08" y2="98.6"/><line class="cls-11" x1="205.91" y1="98.6" x2="205.66" y2="98.6"/><line class="cls-11" x1="205.5" y1="98.6" x2="205.5" y2="98.6"/><line class="cls-11" x1="205.33" y1="98.6" x2="205.08" y2="98.6"/><line class="cls-11" x1="204.92" y1="98.6" x2="204.92" y2="98.6"/><line class="cls-11" x1="204.83" y1="98.6" x2="204.5" y2="98.6"/><line class="cls-11" x1="204.42" y1="98.6" x2="204.34" y2="98.6"/><line class="cls-11" x1="204.25" y1="98.6" x2="203.92" y2="98.6"/><line class="cls-11" x1="203.84" y1="98.6" x2="203.84" y2="98.6"/><line class="cls-11" x1="203.67" y1="98.6" x2="203.42" y2="98.6"/><line class="cls-11" x1="203.26" y1="98.6" x2="203.26" y2="98.6"/><line class="cls-11" x1="203.09" y1="98.6" x2="202.84" y2="98.6"/><line class="cls-11" x1="202.68" y1="98.6" x2="202.68" y2="98.6"/><line class="cls-11" x1="202.51" y1="98.6" x2="202.26" y2="98.6"/><line class="cls-11" x1="202.1" y1="98.6" x2="202.1" y2="98.6"/><line class="cls-11" x1="202.01" y1="98.6" x2="201.68" y2="98.6"/><line class="cls-11" x1="201.6" y1="98.6" x2="201.6" y2="98.6"/><line class="cls-11" x1="201.43" y1="98.6" x2="201.18" y2="98.6"/><line class="cls-11" x1="201.02" y1="98.6" x2="201.02" y2="98.6"/><line class="cls-11" x1="200.85" y1="98.6" x2="200.6" y2="98.6"/><line class="cls-11" x1="200.44" y1="98.6" x2="200.44" y2="98.6"/><line class="cls-11" x1="200.27" y1="98.6" x2="200.02" y2="98.6"/><line class="cls-11" x1="199.86" y1="98.6" x2="199.86" y2="98.6"/><line class="cls-11" x1="199.77" y1="98.6" x2="199.44" y2="98.6"/><line class="cls-11" x1="199.36" y1="98.6" x2="199.36" y2="98.6"/><line class="cls-11" x1="199.19" y1="98.6" x2="198.94" y2="98.6"/><line class="cls-11" x1="198.78" y1="98.6" x2="198.78" y2="98.6"/><line class="cls-11" x1="198.61" y1="98.6" x2="198.36" y2="98.6"/><line class="cls-11" x1="198.2" y1="98.6" x2="198.2" y2="98.6"/><line class="cls-11" x1="198.03" y1="98.6" x2="197.78" y2="98.6"/><line class="cls-11" x1="197.62" y1="98.6" x2="197.62" y2="98.6"/><line class="cls-11" x1="197.53" y1="98.6" x2="197.2" y2="98.6"/><line class="cls-11" x1="197.12" y1="98.6" x2="197.12" y2="98.6"/><line class="cls-11" x1="196.95" y1="98.6" x2="196.71" y2="98.6"/><line class="cls-11" x1="196.54" y1="98.6" x2="196.54" y2="98.6"/><line class="cls-11" x1="196.37" y1="98.6" x2="196.12" y2="98.6"/><line class="cls-11" x1="195.96" y1="98.6" x2="195.96" y2="98.6"/><line class="cls-11" x1="195.79" y1="98.6" x2="195.54" y2="98.6"/><line class="cls-11" x1="195.38" y1="98.6" x2="195.38" y2="98.6"/><line class="cls-11" x1="195.3" y1="98.6" x2="194.96" y2="98.6"/><line class="cls-11" x1="194.88" y1="98.6" x2="194.88" y2="98.6"/><line class="cls-11" x1="194.71" y1="98.6" x2="194.47" y2="98.6"/><line class="cls-11" x1="194.3" y1="98.6" x2="194.3" y2="98.6"/><line class="cls-11" x1="194.13" y1="98.6" x2="193.89" y2="98.6"/><line class="cls-11" x1="193.72" y1="98.6" x2="193.72" y2="98.6"/><line class="cls-11" x1="193.55" y1="98.6" x2="193.3" y2="98.6"/><line class="cls-11" x1="193.14" y1="98.6" x2="193.14" y2="98.6"/><line class="cls-11" x1="193.06" y1="98.6" x2="192.72" y2="98.6"/><line class="cls-11" x1="192.64" y1="98.6" x2="192.64" y2="98.6"/><line class="cls-11" x1="192.48" y1="98.6" x2="192.23" y2="98.6"/><line class="cls-11" x1="192.06" y1="98.6" x2="192.06" y2="98.6"/><line class="cls-11" x1="191.89" y1="98.6" x2="191.65" y2="98.6"/><line class="cls-11" x1="191.48" y1="98.6" x2="191.48" y2="98.6"/><line class="cls-11" x1="191.31" y1="98.6" x2="191.07" y2="98.6"/><line class="cls-11" x1="190.9" y1="98.6" x2="190.9" y2="98.6"/><line class="cls-11" x1="190.82" y1="98.6" x2="190.48" y2="98.6"/><line class="cls-11" x1="190.4" y1="98.6" x2="190.4" y2="98.6"/><line class="cls-11" x1="190.24" y1="98.6" x2="189.99" y2="98.6"/><line class="cls-11" x1="189.82" y1="98.6" x2="189.82" y2="98.6"/><line class="cls-11" x1="189.66" y1="98.6" x2="189.41" y2="98.6"/><line class="cls-11" x1="189.24" y1="98.6" x2="189.24" y2="98.6"/><line class="cls-11" x1="189.07" y1="98.6" x2="188.83" y2="98.6"/><line class="cls-11" x1="188.66" y1="98.6" x2="188.66" y2="98.6"/><line class="cls-11" x1="188.58" y1="98.6" x2="188.24" y2="98.6"/><line class="cls-11" x1="188.16" y1="98.6" x2="188.08" y2="98.6"/><line class="cls-11" x1="188" y1="98.6" x2="187.66" y2="98.6"/><line class="cls-11" x1="187.58" y1="98.6" x2="187.58" y2="98.6"/><line class="cls-11" x1="187.42" y1="98.6" x2="187.17" y2="98.6"/><line class="cls-11" x1="187" y1="98.6" x2="187" y2="98.6"/><line class="cls-11" x1="186.83" y1="98.6" x2="186.59" y2="98.6"/><line class="cls-11" x1="186.42" y1="98.6" x2="186.42" y2="98.6"/><line class="cls-11" x1="186.34" y1="98.6" x2="186.01" y2="98.6"/><line class="cls-11" x1="185.92" y1="98.6" x2="185.84" y2="98.6"/><line class="cls-11" x1="185.76" y1="98.6" x2="185.42" y2="98.6"/><line class="cls-11" x1="185.34" y1="98.6" x2="185.34" y2="98.6"/><line class="cls-11" x1="185.18" y1="98.6" x2="184.93" y2="98.6"/><line class="cls-11" x1="184.76" y1="98.6" x2="184.76" y2="98.6"/><line class="cls-11" x1="184.6" y1="98.6" x2="184.35" y2="98.6"/><line class="cls-11" x1="184.18" y1="98.6" x2="184.18" y2="98.6"/><line class="cls-11" x1="184.1" y1="98.6" x2="183.77" y2="98.6"/><line class="cls-11" x1="183.68" y1="98.6" x2="183.6" y2="98.6"/><line class="cls-11" x1="183.52" y1="98.6" x2="183.19" y2="98.6"/><line class="cls-11" x1="183.1" y1="98.6" x2="183.1" y2="98.6"/><line class="cls-11" x1="182.94" y1="98.6" x2="182.69" y2="98.6"/><line class="cls-11" x1="182.52" y1="98.6" x2="182.52" y2="98.6"/><line class="cls-11" x1="182.36" y1="98.6" x2="182.11" y2="98.6"/><line class="cls-11" x1="181.94" y1="98.6" x2="181.94" y2="98.6"/><line class="cls-11" x1="181.86" y1="98.6" x2="181.53" y2="98.6"/><line class="cls-11" x1="181.44" y1="98.6" x2="181.36" y2="98.6"/><line class="cls-11" x1="181.28" y1="98.6" x2="180.95" y2="98.6"/><line class="cls-11" x1="180.86" y1="98.6" x2="180.86" y2="98.6"/><line class="cls-11" x1="180.7" y1="98.6" x2="180.45" y2="98.6"/><line class="cls-11" x1="180.28" y1="98.6" x2="180.28" y2="98.6"/><line class="cls-11" x1="180.12" y1="98.6" x2="179.87" y2="98.6"/><line class="cls-11" x1="179.7" y1="98.6" x2="179.7" y2="98.6"/><line class="cls-11" x1="179.54" y1="98.6" x2="179.29" y2="98.6"/><line class="cls-11" x1="179.12" y1="98.6" x2="179.12" y2="98.6"/><line class="cls-11" x1="179.04" y1="98.6" x2="178.71" y2="98.6"/><line class="cls-11" x1="178.62" y1="98.6" x2="178.62" y2="98.6"/><line class="cls-11" x1="178.46" y1="98.6" x2="178.21" y2="98.6"/><line class="cls-11" x1="178.04" y1="98.6" x2="178.04" y2="98.6"/><line class="cls-11" x1="177.88" y1="98.6" x2="177.63" y2="98.6"/><line class="cls-11" x1="177.46" y1="98.6" x2="177.46" y2="98.6"/><line class="cls-11" x1="177.3" y1="98.6" x2="177.05" y2="98.6"/><line class="cls-11" x1="176.88" y1="98.6" x2="176.88" y2="98.6"/><line class="cls-11" x1="176.8" y1="98.6" x2="176.47" y2="98.6"/><line class="cls-11" x1="176.38" y1="98.6" x2="176.38" y2="98.6"/><line class="cls-11" x1="176.22" y1="98.6" x2="175.97" y2="98.6"/><line class="cls-11" x1="175.8" y1="98.6" x2="175.8" y2="98.6"/><line class="cls-11" x1="175.64" y1="98.6" x2="175.39" y2="98.6"/><line class="cls-11" x1="175.22" y1="98.6" x2="175.22" y2="98.6"/><line class="cls-11" x1="175.06" y1="98.6" x2="174.81" y2="98.6"/><line class="cls-11" x1="174.64" y1="98.6" x2="174.64" y2="98.6"/><line class="cls-11" x1="174.56" y1="98.6" x2="174.23" y2="98.6"/><line class="cls-11" x1="174.14" y1="98.6" x2="174.14" y2="98.6"/><line class="cls-11" x1="173.98" y1="98.6" x2="173.73" y2="98.6"/><line class="cls-11" x1="173.56" y1="98.6" x2="173.56" y2="98.6"/><line class="cls-11" x1="173.4" y1="98.6" x2="173.15" y2="98.6"/><line class="cls-11" x1="172.98" y1="98.6" x2="172.98" y2="98.6"/><line class="cls-11" x1="172.82" y1="98.6" x2="172.57" y2="98.6"/><line class="cls-11" x1="172.4" y1="98.6" x2="172.4" y2="98.6"/><line class="cls-11" x1="172.32" y1="98.6" x2="171.99" y2="98.6"/><line class="cls-11" x1="171.9" y1="98.6" x2="171.9" y2="98.6"/><line class="cls-11" x1="171.74" y1="98.6" x2="171.49" y2="98.6"/><line class="cls-11" x1="171.32" y1="98.6" x2="171.32" y2="98.6"/><line class="cls-11" x1="171.16" y1="98.6" x2="170.91" y2="98.6"/><line class="cls-11" x1="170.74" y1="98.6" x2="170.74" y2="98.6"/><line class="cls-11" x1="170.58" y1="98.6" x2="170.33" y2="98.6"/><line class="cls-11" x1="170.16" y1="98.6" x2="170.16" y2="98.6"/><line class="cls-11" x1="170.08" y1="98.6" x2="169.75" y2="98.6"/><line class="cls-11" x1="169.67" y1="98.6" x2="169.67" y2="98.6"/><line class="cls-11" x1="169.5" y1="98.6" x2="169.25" y2="98.6"/><line class="cls-11" x1="169.08" y1="98.6" x2="169.08" y2="98.6"/><line class="cls-11" x1="168.92" y1="98.6" x2="168.67" y2="98.6"/><line class="cls-11" x1="168.5" y1="98.6" x2="168.5" y2="98.6"/><line class="cls-11" x1="168.34" y1="98.6" x2="168.09" y2="98.6"/><line class="cls-11" x1="167.92" y1="98.6" x2="167.92" y2="98.6"/><line class="cls-11" x1="167.84" y1="98.6" x2="167.51" y2="98.6"/><line class="cls-11" x1="167.43" y1="98.6" x2="167.43" y2="98.6"/><line class="cls-11" x1="167.26" y1="98.6" x2="167.01" y2="98.6"/><line class="cls-11" x1="166.85" y1="98.6" x2="166.85" y2="98.6"/><line class="cls-11" x1="166.68" y1="98.6" x2="166.43" y2="98.6"/><line class="cls-11" x1="166.26" y1="98.6" x2="166.26" y2="98.6"/><line class="cls-11" x1="166.1" y1="98.6" x2="165.85" y2="98.6"/><line class="cls-11" x1="165.68" y1="98.6" x2="165.68" y2="98.6"/><line class="cls-11" x1="165.6" y1="98.6" x2="165.27" y2="98.6"/><line class="cls-11" x1="165.19" y1="98.6" x2="165.1" y2="98.6"/><line class="cls-11" x1="165.02" y1="98.6" x2="164.69" y2="98.6"/><line class="cls-11" x1="164.61" y1="98.6" x2="164.61" y2="98.6"/><line class="cls-11" x1="164.44" y1="98.6" x2="164.19" y2="98.6"/><line class="cls-11" x1="164.03" y1="98.6" x2="164.03" y2="98.6"/><line class="cls-11" x1="163.86" y1="98.6" x2="163.61" y2="98.6"/><line class="cls-11" x1="163.44" y1="98.6" x2="163.44" y2="98.6"/><line class="cls-11" x1="163.36" y1="98.6" x2="163.03" y2="98.6"/><line class="cls-11" x1="162.95" y1="98.6" x2="162.86" y2="98.6"/><line class="cls-11" x1="162.78" y1="98.6" x2="162.45" y2="98.6"/><line class="cls-11" x1="162.37" y1="98.6" x2="162.37" y2="98.6"/><line class="cls-11" x1="162.2" y1="98.6" x2="161.95" y2="98.6"/><line class="cls-11" x1="161.79" y1="98.6" x2="161.79" y2="98.6"/><line class="cls-11" x1="161.62" y1="98.6" x2="161.37" y2="98.6"/><line class="cls-11" x1="161.2" y1="98.6" x2="161.2" y2="98.6"/><line class="cls-11" x1="161.12" y1="98.6" x2="160.79" y2="98.6"/><line class="cls-11" x1="160.71" y1="98.6" x2="160.62" y2="98.6"/><line class="cls-11" x1="160.54" y1="98.6" x2="160.21" y2="98.6"/><line class="cls-11" x1="160.13" y1="98.6" x2="160.13" y2="98.6"/><line class="cls-11" x1="159.96" y1="98.6" x2="159.71" y2="98.6"/><line class="cls-11" x1="159.55" y1="98.6" x2="159.55" y2="98.6"/><line class="cls-11" x1="159.38" y1="98.6" x2="159.13" y2="98.6"/><line class="cls-11" x1="158.97" y1="98.6" x2="158.97" y2="98.6"/><line class="cls-11" x1="158.8" y1="98.6" x2="158.55" y2="98.6"/><line class="cls-11" x1="158.47" y1="98.6" x2="158.38" y2="98.6"/><line class="cls-11" x1="158.3" y1="98.6" x2="157.97" y2="98.6"/><line class="cls-11" x1="157.89" y1="98.6" x2="157.89" y2="98.6"/><line class="cls-11" x1="157.72" y1="98.6" x2="157.47" y2="98.6"/><line class="cls-11" x1="157.31" y1="98.6" x2="157.31" y2="98.6"/><line class="cls-11" x1="157.14" y1="98.6" x2="156.89" y2="98.6"/><line class="cls-11" x1="156.73" y1="98.6" x2="156.73" y2="98.6"/><line class="cls-11" x1="156.56" y1="98.6" x2="156.31" y2="98.6"/><line class="cls-11" x1="156.15" y1="98.6" x2="156.15" y2="98.6"/><line class="cls-11" x1="156.06" y1="98.6" x2="155.73" y2="98.6"/><line class="cls-11" x1="155.65" y1="98.6" x2="155.65" y2="98.6"/><line class="cls-11" x1="155.48" y1="98.6" x2="155.23" y2="98.6"/><line class="cls-11" x1="155.07" y1="98.6" x2="155.07" y2="98.6"/><line class="cls-11" x1="154.9" y1="98.6" x2="154.65" y2="98.6"/><line class="cls-11" x1="154.49" y1="98.6" x2="154.49" y2="98.6"/><line class="cls-11" x1="154.32" y1="98.6" x2="154.07" y2="98.6"/><line class="cls-11" x1="153.91" y1="98.6" x2="153.91" y2="98.6"/><line class="cls-11" x1="153.82" y1="98.6" x2="153.49" y2="98.6"/><line class="cls-11" x1="153.41" y1="98.6" x2="153.41" y2="98.6"/><line class="cls-11" x1="153.24" y1="98.6" x2="152.99" y2="98.6"/><line class="cls-11" x1="152.83" y1="98.6" x2="152.83" y2="98.6"/><line class="cls-11" x1="152.66" y1="98.6" x2="152.41" y2="98.6"/><line class="cls-11" x1="152.25" y1="98.6" x2="152.25" y2="98.6"/><line class="cls-11" x1="152.08" y1="98.6" x2="151.83" y2="98.6"/><line class="cls-11" x1="151.67" y1="98.6" x2="151.67" y2="98.6"/><line class="cls-11" x1="151.58" y1="98.6" x2="151.25" y2="98.6"/><line class="cls-11" x1="151.17" y1="98.6" x2="151.17" y2="98.6"/><line class="cls-11" x1="151" y1="98.6" x2="150.75" y2="98.6"/><line class="cls-11" x1="150.59" y1="98.6" x2="150.59" y2="98.6"/><line class="cls-11" x1="150.42" y1="98.6" x2="150.17" y2="98.6"/><line class="cls-11" x1="150.01" y1="98.6" x2="150.01" y2="98.6"/><line class="cls-11" x1="149.84" y1="98.6" x2="149.59" y2="98.6"/><line class="cls-11" x1="149.43" y1="98.6" x2="149.43" y2="98.6"/><line class="cls-11" x1="149.34" y1="98.6" x2="149.01" y2="98.6"/><line class="cls-11" x1="148.93" y1="98.6" x2="148.93" y2="98.6"/><line class="cls-11" x1="148.76" y1="98.6" x2="148.51" y2="98.6"/><line class="cls-11" x1="148.35" y1="98.6" x2="148.35" y2="98.6"/><line class="cls-11" x1="148.18" y1="98.6" x2="147.93" y2="98.6"/><line class="cls-11" x1="147.77" y1="98.6" x2="147.77" y2="98.6"/><line class="cls-11" x1="147.6" y1="98.6" x2="147.35" y2="98.6"/><line class="cls-11" x1="147.19" y1="98.6" x2="147.19" y2="98.6"/><line class="cls-11" x1="147.1" y1="98.6" x2="146.77" y2="98.6"/><line class="cls-11" x1="146.69" y1="98.6" x2="146.69" y2="98.6"/><line class="cls-11" x1="146.52" y1="98.6" x2="146.27" y2="98.6"/><line class="cls-11" x1="146.11" y1="98.6" x2="146.11" y2="98.6"/><line class="cls-11" x1="145.94" y1="98.6" x2="145.69" y2="98.6"/><line class="cls-11" x1="145.53" y1="98.6" x2="145.53" y2="98.6"/><line class="cls-11" x1="145.36" y1="98.6" x2="145.11" y2="98.6"/><line class="cls-11" x1="144.95" y1="98.6" x2="144.95" y2="98.6"/><line class="cls-11" x1="144.86" y1="98.6" x2="144.53" y2="98.6"/><line class="cls-11" x1="144.45" y1="98.6" x2="144.45" y2="98.6"/><line class="cls-11" x1="144.28" y1="98.6" x2="144.04" y2="98.6"/><line class="cls-11" x1="143.87" y1="98.6" x2="143.87" y2="98.6"/><line class="cls-11" x1="143.7" y1="98.6" x2="143.45" y2="98.6"/><line class="cls-11" x1="143.29" y1="98.6" x2="143.29" y2="98.6"/><line class="cls-11" x1="143.12" y1="98.6" x2="142.87" y2="98.6"/><line class="cls-11" x1="142.71" y1="98.6" x2="142.71" y2="98.6"/><line class="cls-11" x1="142.63" y1="98.6" x2="142.29" y2="98.6"/><line class="cls-11" x1="142.21" y1="98.6" x2="142.13" y2="98.6"/><line class="cls-11" x1="142.04" y1="98.6" x2="141.71" y2="98.6"/><line class="cls-11" x1="141.63" y1="98.6" x2="141.63" y2="98.6"/><line class="cls-11" x1="141.46" y1="98.6" x2="141.22" y2="98.6"/><line class="cls-11" x1="141.05" y1="98.6" x2="141.05" y2="98.6"/><line class="cls-11" x1="140.88" y1="98.6" x2="140.63" y2="98.6"/><line class="cls-11" x1="140.47" y1="98.6" x2="140.47" y2="98.6"/><line class="cls-11" x1="140.39" y1="98.6" x2="140.05" y2="98.6"/><line class="cls-11" x1="139.97" y1="98.6" x2="139.89" y2="98.6"/><line class="cls-11" x1="139.81" y1="98.6" x2="139.47" y2="98.6"/><line class="cls-11" x1="139.39" y1="98.6" x2="139.39" y2="98.6"/><line class="cls-11" x1="139.22" y1="98.6" x2="138.98" y2="98.6"/><line class="cls-11" x1="138.81" y1="98.6" x2="138.81" y2="98.6"/><line class="cls-11" x1="138.64" y1="98.6" x2="138.4" y2="98.6"/><line class="cls-11" x1="138.23" y1="98.6" x2="138.23" y2="98.6"/><line class="cls-11" x1="138.15" y1="98.6" x2="137.81" y2="98.6"/><line class="cls-11" x1="137.73" y1="98.6" x2="137.65" y2="98.6"/><line class="cls-11" x1="137.57" y1="98.6" x2="137.23" y2="98.6"/><line class="cls-11" x1="137.15" y1="98.6" x2="137.15" y2="98.6"/><line class="cls-11" x1="136.99" y1="98.6" x2="136.74" y2="98.6"/><line class="cls-11" x1="136.57" y1="98.6" x2="136.57" y2="98.6"/><line class="cls-11" x1="136.4" y1="98.6" x2="136.16" y2="98.6"/><line class="cls-11" x1="135.99" y1="98.6" x2="135.99" y2="98.6"/><line class="cls-11" x1="135.82" y1="98.6" x2="135.58" y2="98.6"/><line class="cls-11" x1="135.41" y1="98.6" x2="135.41" y2="98.6"/><line class="cls-11" x1="135.33" y1="98.6" x2="134.99" y2="98.6"/><line class="cls-11" x1="134.91" y1="98.6" x2="134.91" y2="98.6"/><line class="cls-11" x1="134.75" y1="98.6" x2="134.5" y2="98.6"/><line class="cls-11" x1="134.33" y1="98.6" x2="134.33" y2="98.6"/><line class="cls-11" x1="134.16" y1="98.6" x2="133.92" y2="98.6"/><line class="cls-11" x1="133.75" y1="98.6" x2="133.75" y2="98.6"/><line class="cls-11" x1="133.58" y1="98.6" x2="133.34" y2="98.6"/><line class="cls-11" x1="133.17" y1="98.6" x2="133.17" y2="98.6"/><line class="cls-11" x1="133.09" y1="98.6" x2="132.75" y2="98.6"/><line class="cls-11" x1="132.67" y1="98.6" x2="132.67" y2="98.6"/><line class="cls-11" x1="132.51" y1="98.6" x2="132.26" y2="98.6"/><line class="cls-11" x1="132.09" y1="98.6" x2="132.09" y2="98.6"/><line class="cls-11" x1="131.93" y1="98.6" x2="131.68" y2="98.6"/><line class="cls-11" x1="131.51" y1="98.6" x2="131.51" y2="98.6"/><line class="cls-11" x1="131.34" y1="98.6" x2="131.1" y2="98.6"/><line class="cls-11" x1="130.93" y1="98.6" x2="130.93" y2="98.6"/><line class="cls-11" x1="130.85" y1="98.6" x2="130.52" y2="98.6"/><line class="cls-11" x1="130.43" y1="98.6" x2="130.43" y2="98.6"/><line class="cls-11" x1="130.27" y1="98.6" x2="130.02" y2="98.6"/><line class="cls-11" x1="129.85" y1="98.6" x2="129.85" y2="98.6"/><line class="cls-11" x1="129.69" y1="98.6" x2="129.44" y2="98.6"/><line class="cls-11" x1="129.27" y1="98.6" x2="129.27" y2="98.6"/><line class="cls-11" x1="129.11" y1="98.6" x2="128.86" y2="98.6"/><line class="cls-11" x1="128.69" y1="98.6" x2="128.69" y2="98.6"/><line class="cls-11" x1="128.61" y1="98.6" x2="128.28" y2="98.6"/><line class="cls-11" x1="128.19" y1="98.6" x2="128.19" y2="98.6"/><line class="cls-11" x1="128.03" y1="98.6" x2="127.78" y2="98.6"/><line class="cls-11" x1="127.61" y1="98.6" x2="127.61" y2="98.6"/><line class="cls-11" x1="127.45" y1="98.6" x2="127.2" y2="98.6"/><line class="cls-11" x1="127.03" y1="98.6" x2="127.03" y2="98.6"/><line class="cls-11" x1="126.87" y1="98.6" x2="126.62" y2="98.6"/><line class="cls-11" x1="126.45" y1="98.6" x2="126.45" y2="98.6"/><line class="cls-11" x1="126.37" y1="98.6" x2="126.04" y2="98.6"/><line class="cls-11" x1="125.95" y1="98.6" x2="125.95" y2="98.6"/><line class="cls-11" x1="125.79" y1="98.6" x2="125.54" y2="98.6"/><line class="cls-11" x1="125.37" y1="98.6" x2="125.37" y2="98.6"/><line class="cls-11" x1="125.21" y1="98.6" x2="124.96" y2="98.6"/><line class="cls-11" x1="124.79" y1="98.6" x2="124.79" y2="98.6"/><line class="cls-11" x1="124.63" y1="98.6" x2="124.38" y2="98.6"/><line class="cls-11" x1="124.21" y1="98.6" x2="124.21" y2="98.6"/><line class="cls-11" x1="124.13" y1="98.6" x2="123.8" y2="98.6"/><line class="cls-11" x1="123.71" y1="98.6" x2="123.71" y2="98.6"/><line class="cls-11" x1="123.55" y1="98.6" x2="123.3" y2="98.6"/><line class="cls-11" x1="123.13" y1="98.6" x2="123.13" y2="98.6"/><line class="cls-11" x1="122.97" y1="98.6" x2="122.72" y2="98.6"/><line class="cls-11" x1="122.55" y1="98.6" x2="122.55" y2="98.6"/><line class="cls-11" x1="122.39" y1="98.6" x2="122.14" y2="98.6"/><line class="cls-11" x1="121.97" y1="98.6" x2="121.97" y2="98.6"/><line class="cls-11" x1="121.89" y1="98.6" x2="121.56" y2="98.6"/><line class="cls-11" x1="121.47" y1="98.6" x2="121.47" y2="98.6"/><line class="cls-11" x1="121.31" y1="98.6" x2="121.06" y2="98.6"/><line class="cls-11" x1="120.89" y1="98.6" x2="120.89" y2="98.6"/><line class="cls-11" x1="120.73" y1="98.6" x2="120.48" y2="98.6"/><line class="cls-11" x1="120.31" y1="98.6" x2="120.31" y2="98.6"/><line class="cls-11" x1="120.15" y1="98.6" x2="119.9" y2="98.6"/><line class="cls-11" x1="119.73" y1="98.6" x2="119.73" y2="98.6"/><line class="cls-11" x1="119.65" y1="98.6" x2="119.32" y2="98.6"/><line class="cls-11" x1="119.23" y1="98.6" x2="119.15" y2="98.6"/><line class="cls-11" x1="119.07" y1="98.6" x2="118.74" y2="98.6"/><line class="cls-11" x1="118.65" y1="98.6" x2="118.65" y2="98.6"/><line class="cls-11" x1="118.49" y1="98.6" x2="118.24" y2="98.6"/><line class="cls-11" x1="118.07" y1="98.6" x2="118.07" y2="98.6"/><line class="cls-11" x1="117.91" y1="98.6" x2="117.66" y2="98.6"/><line class="cls-11" x1="117.49" y1="98.6" x2="117.49" y2="98.6"/><line class="cls-11" x1="117.41" y1="98.6" x2="117.08" y2="98.6"/><line class="cls-11" x1="117" y1="98.6" x2="116.91" y2="98.6"/><line class="cls-11" x1="116.83" y1="98.6" x2="116.5" y2="98.6"/><line class="cls-11" x1="116.41" y1="98.6" x2="116.41" y2="98.6"/><line class="cls-11" x1="116.25" y1="98.6" x2="116" y2="98.6"/><line class="cls-11" x1="115.83" y1="98.6" x2="115.83" y2="98.6"/><line class="cls-11" x1="115.67" y1="98.6" x2="115.42" y2="98.6"/><line class="cls-11" x1="115.25" y1="98.6" x2="115.25" y2="98.6"/><line class="cls-11" x1="115.17" y1="98.6" x2="114.84" y2="98.6"/><line class="cls-11" x1="114.76" y1="98.6" x2="114.67" y2="98.6"/><line class="cls-11" x1="114.59" y1="98.6" x2="114.26" y2="98.6"/><line class="cls-11" x1="114.18" y1="98.6" x2="114.18" y2="98.6"/><line class="cls-11" x1="114.01" y1="98.6" x2="113.76" y2="98.6"/><line class="cls-11" x1="113.59" y1="98.6" x2="113.59" y2="98.6"/><line class="cls-11" x1="113.43" y1="98.6" x2="113.18" y2="98.6"/><line class="cls-11" x1="113.01" y1="98.6" x2="113.01" y2="98.6"/><line class="cls-11" x1="112.85" y1="98.6" x2="112.6" y2="98.6"/><line class="cls-11" x1="112.43" y1="98.6" x2="112.43" y2="98.6"/><line class="cls-11" x1="112.35" y1="98.6" x2="112.02" y2="98.6"/><line class="cls-11" x1="111.94" y1="98.6" x2="111.94" y2="98.6"/><line class="cls-11" x1="111.77" y1="98.6" x2="111.52" y2="98.6"/><line class="cls-11" x1="111.36" y1="98.6" x2="111.36" y2="98.6"/><line class="cls-11" x1="111.19" y1="98.6" x2="110.94" y2="98.6"/><line class="cls-11" x1="110.77" y1="98.6" x2="110.77" y2="98.6"/><line class="cls-11" x1="110.61" y1="98.6" x2="110.36" y2="98.6"/><line class="cls-11" x1="110.19" y1="98.6" x2="110.19" y2="98.6"/><line class="cls-11" x1="110.11" y1="98.6" x2="109.78" y2="98.6"/><line class="cls-11" x1="109.7" y1="98.6" x2="109.7" y2="98.6"/><line class="cls-11" x1="109.53" y1="98.6" x2="109.28" y2="98.6"/><line class="cls-11" x1="109.12" y1="98.6" x2="109.12" y2="98.6"/><line class="cls-11" x1="108.95" y1="98.6" x2="108.7" y2="98.6"/><line class="cls-11" x1="108.53" y1="98.6" x2="108.53" y2="98.6"/><line class="cls-11" x1="108.37" y1="98.6" x2="108.12" y2="98.6"/><line class="cls-11" x1="107.95" y1="98.6" x2="107.95" y2="98.6"/><line class="cls-11" x1="107.87" y1="98.6" x2="107.54" y2="98.6"/><line class="cls-11" x1="107.46" y1="98.6" x2="107.46" y2="98.6"/><line class="cls-11" x1="107.29" y1="98.6" x2="107.04" y2="98.6"/><line class="cls-11" x1="106.88" y1="98.6" x2="106.88" y2="98.6"/><line class="cls-11" x1="106.71" y1="98.6" x2="106.46" y2="98.6"/><line class="cls-11" x1="106.3" y1="98.6" x2="106.3" y2="98.6"/><line class="cls-11" x1="106.13" y1="98.6" x2="105.88" y2="98.6"/><line class="cls-11" x1="105.71" y1="98.6" x2="105.71" y2="98.6"/><line class="cls-11" x1="105.63" y1="98.6" x2="105.3" y2="98.6"/><line class="cls-11" x1="105.22" y1="98.6" x2="105.22" y2="98.6"/><line class="cls-11" x1="105.05" y1="98.6" x2="104.8" y2="98.6"/><line class="cls-11" x1="104.64" y1="98.6" x2="104.64" y2="98.6"/><line class="cls-11" x1="104.47" y1="98.6" x2="104.22" y2="98.6"/><line class="cls-11" x1="104.06" y1="98.6" x2="104.06" y2="98.6"/><line class="cls-11" x1="103.89" y1="98.6" x2="103.64" y2="98.6"/><line class="cls-11" x1="103.48" y1="98.6" x2="103.48" y2="98.6"/><line class="cls-11" x1="103.39" y1="98.6" x2="103.06" y2="98.6"/><line class="cls-11" x1="102.98" y1="98.6" x2="102.98" y2="98.6"/><line class="cls-11" x1="102.81" y1="98.6" x2="102.56" y2="98.6"/><line class="cls-11" x1="102.4" y1="98.6" x2="102.4" y2="98.6"/><line class="cls-11" x1="102.23" y1="98.6" x2="101.98" y2="98.6"/><line class="cls-11" x1="101.82" y1="98.6" x2="101.82" y2="98.6"/><line class="cls-11" x1="101.65" y1="98.6" x2="101.4" y2="98.6"/><line class="cls-11" x1="101.24" y1="98.6" x2="101.24" y2="98.6"/><line class="cls-11" x1="101.15" y1="98.6" x2="100.82" y2="98.6"/><line class="cls-11" x1="100.74" y1="98.6" x2="100.74" y2="98.6"/><line class="cls-11" x1="100.57" y1="98.6" x2="100.32" y2="98.6"/><line class="cls-11" x1="100.16" y1="98.6" x2="100.16" y2="98.6"/><line class="cls-11" x1="99.99" y1="98.6" x2="99.74" y2="98.6"/><line class="cls-11" x1="99.58" y1="98.6" x2="99.58" y2="98.6"/><line class="cls-11" x1="99.41" y1="98.6" x2="99.16" y2="98.6"/><line class="cls-11" x1="99" y1="98.6" x2="99" y2="98.6"/><line class="cls-11" x1="98.91" y1="98.6" x2="98.58" y2="98.6"/><line class="cls-11" x1="98.5" y1="98.6" x2="98.42" y2="98.6"/><line class="cls-11" x1="98.33" y1="98.6" x2="98.08" y2="98.6"/><line class="cls-11" x1="97.92" y1="98.6" x2="97.92" y2="98.6"/><line class="cls-11" x1="97.75" y1="98.6" x2="97.5" y2="98.6"/><line class="cls-11" x1="97.34" y1="98.6" x2="97.34" y2="98.6"/><line class="cls-11" x1="97.17" y1="98.6" x2="96.92" y2="98.6"/><line class="cls-11" x1="96.76" y1="98.6" x2="96.76" y2="98.6"/><line class="cls-11" x1="96.67" y1="98.6" x2="96.34" y2="98.6"/><line class="cls-11" x1="96.26" y1="98.6" x2="96.18" y2="98.6"/><line class="cls-11" x1="96.09" y1="98.6" x2="95.76" y2="98.6"/><line class="cls-11" x1="95.68" y1="98.6" x2="95.68" y2="98.6"/><line class="cls-11" x1="95.51" y1="98.6" x2="95.26" y2="98.6"/><line class="cls-11" x1="95.1" y1="98.6" x2="95.1" y2="98.6"/><line class="cls-11" x1="94.93" y1="98.6" x2="94.68" y2="98.6"/><line class="cls-11" x1="94.52" y1="98.6" x2="94.52" y2="98.6"/><line class="cls-11" x1="94.43" y1="98.6" x2="94.1" y2="98.6"/><line class="cls-11" x1="94.02" y1="98.6" x2="93.94" y2="98.6"/><line class="cls-11" x1="93.85" y1="98.6" x2="93.52" y2="98.6"/><line class="cls-11" x1="93.44" y1="98.6" x2="93.44" y2="98.6"/><line class="cls-11" x1="93.27" y1="98.6" x2="93.02" y2="98.6"/><line class="cls-11" x1="92.86" y1="98.6" x2="92.86" y2="98.6"/><line class="cls-11" x1="92.69" y1="98.6" x2="92.44" y2="98.6"/><line class="cls-11" x1="92.28" y1="98.6" x2="92.28" y2="98.6"/><line class="cls-11" x1="92.19" y1="98.6" x2="91.86" y2="98.6"/><line class="cls-11" x1="91.78" y1="98.6" x2="91.7" y2="98.6"/><line class="cls-11" x1="91.61" y1="98.6" x2="91.28" y2="98.6"/><line class="cls-11" x1="91.2" y1="98.6" x2="91.2" y2="98.6"/><line class="cls-11" x1="91.03" y1="98.6" x2="90.78" y2="98.6"/><line class="cls-11" x1="90.62" y1="98.6" x2="90.62" y2="98.6"/><line class="cls-11" x1="90.45" y1="98.6" x2="90.2" y2="98.6"/><line class="cls-11" x1="90.04" y1="98.6" x2="90.04" y2="98.6"/><line class="cls-11" x1="89.87" y1="98.6" x2="89.62" y2="98.6"/><line class="cls-11" x1="89.46" y1="98.6" x2="89.46" y2="98.6"/><line class="cls-11" x1="89.37" y1="98.6" x2="89.04" y2="98.6"/><line class="cls-11" x1="88.96" y1="98.6" x2="88.96" y2="98.6"/><line class="cls-11" x1="88.79" y1="98.6" x2="88.55" y2="98.6"/><line class="cls-11" x1="88.38" y1="98.6" x2="88.38" y2="98.6"/><line class="cls-11" x1="88.21" y1="98.6" x2="87.96" y2="98.6"/><line class="cls-11" x1="87.8" y1="98.6" x2="87.8" y2="98.6"/><line class="cls-11" x1="87.63" y1="98.6" x2="87.38" y2="98.6"/><line class="cls-11" x1="87.22" y1="98.6" x2="87.22" y2="98.6"/><line class="cls-11" x1="87.14" y1="98.6" x2="86.8" y2="98.6"/><line class="cls-11" x1="86.72" y1="98.6" x2="86.72" y2="98.6"/><line class="cls-11" x1="86.55" y1="98.6" x2="86.31" y2="98.6"/><line class="cls-11" x1="86.14" y1="98.6" x2="86.14" y2="98.6"/><line class="cls-11" x1="85.97" y1="98.6" x2="85.73" y2="98.6"/><line class="cls-11" x1="85.56" y1="98.6" x2="85.56" y2="98.6"/><line class="cls-11" x1="85.39" y1="98.6" x2="85.14" y2="98.6"/><line class="cls-11" x1="84.98" y1="98.6" x2="84.98" y2="98.6"/><line class="cls-11" x1="84.9" y1="98.6" x2="84.56" y2="98.6"/><line class="cls-11" x1="84.48" y1="98.6" x2="84.48" y2="98.6"/><line class="cls-11" x1="84.32" y1="98.6" x2="84.07" y2="98.6"/><line class="cls-11" x1="83.9" y1="98.6" x2="83.9" y2="98.6"/><line class="cls-11" x1="83.73" y1="98.6" x2="83.49" y2="98.6"/><line class="cls-11" x1="83.32" y1="98.6" x2="83.32" y2="98.6"/><line class="cls-11" x1="83.15" y1="98.6" x2="82.91" y2="98.6"/><line class="cls-11" x1="82.74" y1="98.6" x2="82.74" y2="98.6"/><line class="cls-11" x1="82.66" y1="98.6" x2="82.32" y2="98.6"/><line class="cls-11" x1="82.24" y1="98.6" x2="82.24" y2="98.6"/><line class="cls-11" x1="82.08" y1="98.6" x2="81.83" y2="98.6"/><line class="cls-11" x1="81.66" y1="98.6" x2="81.66" y2="98.6"/><line class="cls-11" x1="81.5" y1="98.6" x2="81.25" y2="98.6"/><line class="cls-11" x1="81.08" y1="98.6" x2="81.08" y2="98.6"/><line class="cls-11" x1="80.91" y1="98.6" x2="80.67" y2="98.6"/><line class="cls-11" x1="80.5" y1="98.6" x2="80.5" y2="98.6"/><line class="cls-11" x1="80.42" y1="98.6" x2="80.08" y2="98.6"/><line class="cls-11" x1="80" y1="98.6" x2="80" y2="98.6"/><line class="cls-11" x1="79.84" y1="98.6" x2="79.59" y2="98.6"/><line class="cls-11" x1="79.42" y1="98.6" x2="79.42" y2="98.6"/><line class="cls-11" x1="79.26" y1="98.6" x2="79.01" y2="98.6"/><line class="cls-11" x1="78.84" y1="98.6" x2="78.84" y2="98.6"/><line class="cls-11" x1="78.67" y1="98.6" x2="78.43" y2="98.6"/><line class="cls-11" x1="78.26" y1="98.6" x2="78.26" y2="98.6"/><line class="cls-11" x1="78.18" y1="98.6" x2="77.85" y2="98.6"/><line class="cls-11" x1="77.76" y1="98.6" x2="77.76" y2="98.6"/><line class="cls-11" x1="77.6" y1="98.6" x2="77.35" y2="98.6"/><line class="cls-11" x1="77.18" y1="98.6" x2="77.18" y2="98.6"/><line class="cls-11" x1="77.02" y1="98.6" x2="76.77" y2="98.6"/><line class="cls-11" x1="76.6" y1="98.6" x2="76.6" y2="98.6"/><line class="cls-11" x1="76.44" y1="98.6" x2="76.19" y2="98.6"/><line class="cls-11" x1="76.02" y1="98.6" x2="76.02" y2="98.6"/><line class="cls-11" x1="75.94" y1="98.6" x2="75.61" y2="98.6"/><line class="cls-11" x1="75.52" y1="98.6" x2="75.44" y2="98.6"/><line class="cls-11" x1="75.36" y1="98.6" x2="75.03" y2="98.6"/><line class="cls-11" x1="74.94" y1="98.6" x2="74.94" y2="98.6"/><line class="cls-11" x1="74.78" y1="98.6" x2="74.53" y2="98.6"/><line class="cls-11" x1="74.36" y1="98.6" x2="74.36" y2="98.6"/><line class="cls-11" x1="74.2" y1="98.6" x2="73.95" y2="98.6"/><line class="cls-11" x1="73.78" y1="98.6" x2="73.78" y2="98.6"/><line class="cls-11" x1="73.7" y1="98.6" x2="73.37" y2="98.6"/><line class="cls-11" x1="73.28" y1="98.6" x2="73.2" y2="98.6"/><line class="cls-11" x1="73.12" y1="98.6" x2="72.79" y2="98.6"/><line class="cls-11" x1="72.7" y1="98.6" x2="72.7" y2="98.6"/><line class="cls-11" x1="72.54" y1="98.6" x2="72.29" y2="98.6"/><line class="cls-11" x1="72.12" y1="98.6" x2="72.12" y2="98.6"/><line class="cls-11" x1="71.96" y1="98.6" x2="71.71" y2="98.6"/><line class="cls-11" x1="71.54" y1="98.6" x2="71.54" y2="98.6"/><line class="cls-11" x1="71.46" y1="98.6" x2="71.13" y2="98.6"/><line class="cls-11" x1="71.04" y1="98.6" x2="70.96" y2="98.6"/><line class="cls-11" x1="70.88" y1="98.6" x2="70.55" y2="98.6"/><line class="cls-11" x1="70.46" y1="98.6" x2="70.46" y2="98.6"/><line class="cls-11" x1="70.3" y1="98.6" x2="70.05" y2="98.6"/><line class="cls-11" x1="69.88" y1="98.6" x2="69.88" y2="98.6"/><line class="cls-11" x1="69.72" y1="98.6" x2="69.47" y2="98.6"/><line class="cls-11" x1="69.3" y1="98.6" x2="69.3" y2="98.6"/><line class="cls-11" x1="69.22" y1="98.6" x2="68.89" y2="98.6"/><line class="cls-11" x1="68.8" y1="98.6" x2="68.72" y2="98.6"/><line class="cls-11" x1="68.64" y1="98.6" x2="68.31" y2="98.6"/><line class="cls-11" x1="68.22" y1="98.6" x2="68.22" y2="98.6"/><line class="cls-11" x1="68.06" y1="98.6" x2="67.81" y2="98.6"/><line class="cls-11" x1="67.64" y1="98.6" x2="67.64" y2="98.6"/><line class="cls-11" x1="67.48" y1="98.6" x2="67.23" y2="98.6"/><line class="cls-11" x1="67.06" y1="98.6" x2="67.06" y2="98.6"/><line class="cls-11" x1="66.9" y1="98.6" x2="66.65" y2="98.6"/><line class="cls-11" x1="66.48" y1="98.6" x2="66.48" y2="98.6"/><line class="cls-11" x1="66.4" y1="98.6" x2="66.23" y2="98.6"/><polyline class="cls-11" points="243.32 98.6 243.32 88.81 66.23 88.81 66.23 98.6 243.32 98.6"/><line class="cls-4" x1="0.38" y1="669.18" x2="0.38" y2="669.18"/><polyline class="cls-4" points="0.38 656.57 0.38 660.55 0.38 656.57 0.38 656.57"/><line class="cls-4" x1="0.38" y1="660.55" x2="0.38" y2="669.18"/><line class="cls-4" x1="0.38" y1="656.57" x2="0.38" y2="656.57"/><line class="cls-4" x1="0.38" y1="669.18" x2="0.38" y2="669.18"/><polyline class="cls-4" points="0.38 660.55 0.38 660.55 0.38 669.18 0.38 669.18 0.38 660.55"/><line class="cls-4" x1="0.38" y1="660.55" x2="0.38" y2="590.96"/><polyline class="cls-4" points="0.38 669.18 0.38 660.55 0.38 669.18"/><polyline class="cls-4" points="0.38 660.55 0.38 656.57 0.38 660.55 0.38 656.57 0.38 656.57 0.38 656.57"/><polyline class="cls-4" points="0.38 669.18 0.38 669.18 0.38 669.18"/><line class="cls-4" x1="0.38" y1="129.95" x2="0.38" y2="656.57"/><polyline class="cls-4" points="0.38 669.18 12.9 669.18 12.9 129.95 0.38 129.95"/><polyline class="cls-4" points="12.9 192.66 0.38 192.66 0.38 88.4 12.9 88.4 12.9 192.66"/><polyline class="cls-4" points="304.45 459.08 318.55 459.08 318.55 380.69 304.45 380.69 304.45 459.08"/><polyline class="cls-4" points="304.45 192.66 318.55 192.66 318.55 88.4 304.45 88.4 304.45 192.66"/><line class="cls-5" x1="175.14" y1="491.26" x2="175.6" y2="491.26"/><line class="cls-9" x1="176.52" y1="491.26" x2="251.59" y2="491.26"/><line class="cls-5" x1="252.05" y1="491.26" x2="252.51" y2="491.26"/><text class="cls-12" transform="translate(133.8 297.93)">СТ</text><text class="cls-12" transform="translate(108.44 348.1)">24.07</text><text class="cls-12" transform="translate(124.96 248.02)">№1</text><polyline class="cls-4" points="94.15 358.91 94.15 209.84 218.47 209.84 218.47 358.91"/><line class="cls-4" x1="94.15" y1="259.62" x2="218.47" y2="259.62"/><line class="cls-4" x1="94.15" y1="358.91" x2="218.47" y2="358.91"/><line class="cls-4" x1="94.15" y1="309.41" x2="218.47" y2="309.41"/><text class="cls-13" transform="translate(194.86 574.45)">3.76</text><text class="cls-13" transform="translate(76.52 539.85)">4.31</text><text class="cls-13" transform="translate(75.67 414.48)">2.20</text><text class="cls-13" transform="translate(113.22 176.15)">13.80</text></svg>