<svg id="_189" data-name="189" xmlns="http://www.w3.org/2000/svg" viewBox="0 0 324.69 717.22"><defs><style>.cls-1{isolation:isolate;font-size:12px;fill:#969696;}.cls-1,.cls-6,.cls-8{font-family:PTSans-Regular, PT Sans;}.cls-2,.cls-3,.cls-4,.cls-5,.cls-7{fill:none;stroke-linecap:round;stroke-linejoin:round;}.cls-2{stroke:#969696;stroke-width:0.75px;}.cls-3{stroke:#7d7d7d;stroke-dasharray:4 4;}.cls-3,.cls-7{stroke-width:0.5px;}.cls-4{stroke:#356e5f;}.cls-5,.cls-7{stroke:#000;}.cls-6{font-size:28px;}.cls-8{font-size:24px;}</style></defs><title>4floor_190flat</title><text class="cls-1" transform="translate(156.78 10.2)">двор</text><line class="cls-2" x1="146.02" y1="1.57" x2="146.02" y2="10.37"/><polyline class="cls-2" points="149.52 5.07 146.02 1.57 142.52 5.07"/><polyline class="cls-3" points="17.49 384.53 17.49 460.34 173.37 460.34 173.37 358.08 17.49 358.08 17.49 384.53"/><line class="cls-4" x1="58.83" y1="99.83" x2="58.83" y2="99.83"/><line class="cls-4" x1="62.56" y1="98.86" x2="62.56" y2="98.86"/><line class="cls-5" x1="23.22" y1="109.89" x2="24.72" y2="107.36"/><line class="cls-5" x1="24.6" y1="116.03" x2="30.27" y2="106.15"/><line class="cls-5" x1="30.15" y1="114.89" x2="35.87" y2="105.01"/><line class="cls-5" x1="35.75" y1="113.74" x2="41.47" y2="103.86"/><line class="cls-5" x1="41.35" y1="112.6" x2="47.02" y2="102.72"/><line class="cls-5" x1="46.9" y1="111.45" x2="52.62" y2="101.57"/><line class="cls-5" x1="52.5" y1="110.31" x2="58.16" y2="100.43"/><line class="cls-5" x1="58.04" y1="109.17" x2="63.77" y2="99.28"/><line class="cls-5" x1="63.65" y1="108.02" x2="66" y2="103.92"/><line class="cls-5" x1="27.19" y1="115.49" x2="23.1" y2="108.38"/><line class="cls-5" x1="31.59" y1="114.59" x2="27.13" y2="106.82"/><line class="cls-5" x1="35.99" y1="113.68" x2="31.53" y2="105.91"/><line class="cls-5" x1="40.39" y1="112.78" x2="35.93" y2="105.01"/><line class="cls-5" x1="44.79" y1="111.88" x2="40.33" y2="104.1"/><line class="cls-5" x1="49.19" y1="110.97" x2="44.67" y2="103.2"/><line class="cls-5" x1="53.59" y1="110.07" x2="49.07" y2="102.3"/><line class="cls-5" x1="57.98" y1="109.17" x2="53.46" y2="101.39"/><line class="cls-5" x1="62.38" y1="108.26" x2="57.86" y2="100.49"/><line class="cls-5" x1="66.72" y1="107.3" x2="62.26" y2="99.58"/><line class="cls-5" x1="24.96" y1="126.64" x2="25.63" y2="125.92"/><line class="cls-5" x1="28.64" y1="122.9" x2="37.68" y2="113.93"/><line class="cls-5" x1="41.29" y1="134.35" x2="49.73" y2="125.92"/><line class="cls-5" x1="52.74" y1="122.9" x2="61.78" y2="113.93"/><line class="cls-5" x1="64.79" y1="110.91" x2="68.71" y2="107"/><line class="cls-5" x1="71.66" y1="128.09" x2="73.83" y2="125.92"/><line class="cls-5" x1="28.64" y1="134.95" x2="37.68" y2="125.92"/><line class="cls-5" x1="40.69" y1="122.9" x2="49.73" y2="113.93"/><line class="cls-5" x1="52.74" y1="110.91" x2="53.52" y2="110.07"/><line class="cls-5" x1="56.48" y1="131.22" x2="61.78" y2="125.92"/><line class="cls-5" x1="64.79" y1="122.9" x2="73.83" y2="113.93"/><line class="cls-5" x1="66" y1="103.92" x2="69.37" y2="98.14"/><line class="cls-5" x1="69.25" y1="106.88" x2="73.71" y2="99.1"/><line class="cls-5" x1="74.8" y1="105.73" x2="75.04" y2="105.37"/><line class="cls-5" x1="66.78" y1="107.36" x2="66.72" y2="107.3"/><line class="cls-5" x1="71.18" y1="106.45" x2="66.66" y2="98.68"/><line class="cls-5" x1="74.8" y1="104.22" x2="71.06" y2="97.78"/><line class="cls-5" x1="65.03" y1="99.04" x2="22.98" y2="107.66"/><line class="cls-5" x1="66.72" y1="107.36" x2="23.88" y2="116.22"/><line class="cls-5" x1="74.19" y1="97.17" x2="75.88" y2="105.49"/><line class="cls-5" x1="72.57" y1="106.15" x2="75.1" y2="105.67"/><line class="cls-5" x1="75.1" y1="105.67" x2="75.88" y2="105.49"/><line class="cls-5" x1="74.01" y1="96.33" x2="74.19" y2="97.17"/><line class="cls-5" x1="72.57" y1="106.15" x2="72.57" y2="106.15"/><line class="cls-5" x1="66.72" y1="107.36" x2="72.57" y2="106.15"/><line class="cls-5" x1="66.72" y1="107.36" x2="66.72" y2="107.36"/><polyline class="cls-5" points="65.03 99.04 73.35 97.3 75.1 105.67 73.35 97.3"/><line class="cls-5" x1="73.17" y1="96.51" x2="74.01" y2="96.33"/><polyline class="cls-5" points="72.57 106.15 73.59 111.15 76.84 127.06 26.05 137.49"/><line class="cls-5" x1="73.17" y1="96.51" x2="22.91" y2="106.82"/><line class="cls-5" x1="148.67" y1="80.97" x2="74.01" y2="96.33"/><line class="cls-5" x1="148.67" y1="112.24" x2="76.84" y2="127.06"/><polyline class="cls-5" points="148.67 95.73 144.09 96.69 143.43 93.32 141.32 93.74 140.96 92.11 147.64 90.73 148.67 90.49"/><polyline class="cls-5" points="72.57 106.15 79.25 104.83 79.62 106.45 77.51 106.88 78.17 110.25 73.59 111.15"/><line class="cls-5" x1="79.25" y1="104.83" x2="140.96" y2="92.11"/><polyline class="cls-5" points="144.45 98.32 139.45 99.4 83.53 110.85"/><polyline class="cls-5" points="139.45 99.4 138.43 94.34 143.43 93.32 144.45 98.32"/><polyline class="cls-5" points="77.51 106.88 82.51 105.85 83.53 110.85 78.53 111.94 77.51 106.88"/><line class="cls-5" x1="82.51" y1="105.85" x2="138.43" y2="94.34"/><line class="cls-5" x1="139.45" y1="99.4" x2="83.53" y2="110.85"/><line class="cls-5" x1="138.91" y1="96.87" x2="83.05" y2="108.38"/><line class="cls-5" x1="147.64" y1="90.73" x2="148.67" y2="95.73"/><polyline class="cls-5" points="76.84 127.06 73.59 111.15 72.57 106.15 73.59 111.15"/><line class="cls-5" x1="74.01" y1="96.33" x2="74.19" y2="97.17"/><polyline class="cls-5" points="75.88 105.49 75.1 105.67 75.88 105.49"/><polyline class="cls-5" points="75.1 105.67 72.57 106.15 75.1 105.67"/><line class="cls-5" x1="74.19" y1="97.17" x2="75.88" y2="105.49"/><line class="cls-4" x1="270.69" y1="106.15" x2="270.69" y2="106.15"/><line class="cls-5" x1="269.54" y1="122.9" x2="273.16" y2="119.29"/><line class="cls-5" x1="269.54" y1="134.95" x2="271.83" y2="132.73"/><line class="cls-4" x1="267.73" y1="113.32" x2="267.73" y2="113.32"/><line class="cls-5" x1="269.36" y1="109.53" x2="270.81" y2="106.94"/><line class="cls-5" x1="270.75" y1="115.61" x2="275.21" y2="107.84"/><line class="cls-5" x1="275.15" y1="116.52" x2="277.44" y2="112.54"/><line class="cls-5" x1="273.46" y1="116.22" x2="269.42" y2="109.17"/><line class="cls-5" x1="277.13" y1="113.99" x2="273.4" y2="107.48"/><line class="cls-5" x1="269.06" y1="106.57" x2="267.37" y2="114.95"/><line class="cls-5" x1="270.69" y1="115.61" x2="268.22" y2="115.13"/><line class="cls-5" x1="268.22" y1="115.13" x2="267.37" y2="114.95"/><line class="cls-5" x1="269.24" y1="105.73" x2="269.06" y2="106.57"/><line class="cls-5" x1="270.69" y1="115.61" x2="270.69" y2="115.61"/><line class="cls-5" x1="276.53" y1="116.82" x2="270.69" y2="115.61"/><line class="cls-5" x1="276.53" y1="116.82" x2="276.53" y2="116.82"/><polyline class="cls-5" points="278.22 108.5 269.9 106.75 268.22 115.13 269.9 106.75"/><line class="cls-5" x1="270.08" y1="105.91" x2="269.24" y2="105.73"/><polyline class="cls-5" points="270.69 115.61 269.66 120.61 266.41 136.46 271.35 137.49"/><line class="cls-5" x1="274.48" y1="106.82" x2="270.08" y2="105.91"/><line class="cls-5" x1="148.67" y1="80.97" x2="269.24" y2="105.73"/><line class="cls-5" x1="148.67" y1="112.24" x2="266.41" y2="136.46"/><polyline class="cls-5" points="148.67 95.73 153.25 96.69 153.97 93.32 156.02 93.74 156.38 92.11 149.69 90.73 148.67 90.49"/><polyline class="cls-5" points="220.61 105.31 217.3 104.65 216.94 106.27 219.05 106.75 218.32 110.07 219.59 110.31"/><line class="cls-5" x1="217.3" y1="104.65" x2="156.38" y2="92.11"/><polyline class="cls-5" points="152.95 98.32 157.95 99.4 213.02 110.73"/><polyline class="cls-5" points="157.95 99.4 158.97 94.34 153.97 93.32 152.95 98.32"/><polyline class="cls-5" points="219.05 106.75 214.05 105.67 213.02 110.73 218.02 111.76 219.05 106.75"/><line class="cls-5" x1="214.05" y1="105.67" x2="158.97" y2="94.34"/><line class="cls-5" x1="157.95" y1="99.4" x2="213.02" y2="110.73"/><line class="cls-5" x1="158.43" y1="96.87" x2="213.5" y2="108.2"/><line class="cls-5" x1="149.69" y1="90.73" x2="148.67" y2="95.73"/><polyline class="cls-5" points="219.59 110.31 220.85 110.61 221.52 107.24 223.63 107.66 223.99 106.03 220.61 105.31"/><polyline class="cls-5" points="270.69 115.61 264 114.23 263.7 115.91 265.75 116.34 265.08 119.71 269.66 120.61"/><line class="cls-5" x1="264" y1="114.23" x2="223.99" y2="106.03"/><polyline class="cls-5" points="220.49 112.24 225.5 113.26 259.72 120.31"/><polyline class="cls-5" points="225.5 113.26 226.52 108.26 221.52 107.24 220.49 112.24"/><polyline class="cls-5" points="265.75 116.34 260.74 115.31 259.72 120.31 264.72 121.34 265.75 116.34"/><line class="cls-5" x1="260.74" y1="115.31" x2="226.52" y2="108.26"/><line class="cls-5" x1="225.49" y1="113.26" x2="259.72" y2="120.31"/><line class="cls-5" x1="226.04" y1="110.79" x2="260.26" y2="117.84"/><polyline class="cls-5" points="266.41 136.46 269.66 120.61 270.69 115.61 269.66 120.61"/><line class="cls-5" x1="269.24" y1="105.73" x2="269.06" y2="106.57"/><polyline class="cls-5" points="267.37 114.95 268.22 115.13 267.37 114.95"/><polyline class="cls-5" points="268.22 115.13 270.69 115.61 268.22 115.13"/><line class="cls-5" x1="269.06" y1="106.57" x2="267.37" y2="114.95"/><line class="cls-4" x1="22.85" y1="107.3" x2="22.85" y2="107.3"/><line class="cls-5" x1="0.84" y1="114.59" x2="4.84" y2="107.66"/><line class="cls-5" x1="4.84" y1="116.22" x2="9.72" y2="107.66"/><line class="cls-5" x1="9.72" y1="116.22" x2="14.66" y2="107.66"/><line class="cls-5" x1="14.66" y1="116.22" x2="19.6" y2="107.66"/><line class="cls-5" x1="19.6" y1="116.22" x2="23.22" y2="109.89"/><line class="cls-5" x1="3.03" y1="116.22" x2="0.5" y2="111.83"/><line class="cls-5" x1="7.91" y1="116.22" x2="3.03" y2="107.66"/><line class="cls-5" x1="12.85" y1="116.22" x2="7.91" y2="107.66"/><line class="cls-5" x1="17.79" y1="116.22" x2="12.85" y2="107.66"/><line class="cls-5" x1="22.67" y1="116.22" x2="17.79" y2="107.66"/><line class="cls-5" x1="23.1" y1="108.38" x2="22.67" y2="107.66"/><line class="cls-5" x1="17.49" y1="134.05" x2="24.96" y2="126.64"/><line class="cls-5" x1="17.49" y1="122" x2="23.34" y2="116.22"/><line class="cls-5" x1="22.98" y1="107.66" x2="0.5" y2="107.66"/><line class="cls-5" x1="23.88" y1="116.22" x2="17.49" y2="116.22"/><line class="cls-5" x1="17.49" y1="137.49" x2="26.05" y2="137.49"/><line class="cls-5" x1="22.91" y1="106.82" x2="0.5" y2="106.82"/><line class="cls-4" x1="301.18" y1="107.18" x2="301.18" y2="107.18"/><line class="cls-5" x1="274.18" y1="109.65" x2="275.33" y2="107.66"/><line class="cls-5" x1="275.33" y1="116.22" x2="280.21" y2="107.66"/><line class="cls-5" x1="280.21" y1="116.22" x2="285.15" y2="107.66"/><line class="cls-5" x1="285.15" y1="116.22" x2="290.09" y2="107.66"/><line class="cls-5" x1="290.09" y1="116.22" x2="294.97" y2="107.66"/><line class="cls-5" x1="294.97" y1="116.22" x2="299.91" y2="107.66"/><line class="cls-5" x1="299.91" y1="116.22" x2="304.79" y2="107.66"/><line class="cls-5" x1="304.79" y1="116.22" x2="307.14" y2="112.24"/><line class="cls-5" x1="307.26" y1="111.94" x2="309.73" y2="107.66"/><line class="cls-5" x1="312.2" y1="111.94" x2="314.67" y2="107.66"/><line class="cls-5" x1="317.08" y1="111.94" x2="319.55" y2="107.66"/><line class="cls-5" x1="278.4" y1="116.22" x2="274.24" y2="108.98"/><line class="cls-5" x1="283.34" y1="116.22" x2="278.4" y2="107.66"/><line class="cls-5" x1="288.22" y1="116.22" x2="283.34" y2="107.66"/><line class="cls-5" x1="293.16" y1="116.22" x2="288.22" y2="107.66"/><line class="cls-5" x1="298.1" y1="116.22" x2="293.16" y2="107.66"/><line class="cls-5" x1="302.98" y1="116.22" x2="298.1" y2="107.66"/><line class="cls-5" x1="307.14" y1="114.83" x2="302.98" y2="107.66"/><line class="cls-5" x1="310.4" y1="111.94" x2="307.92" y2="107.66"/><line class="cls-5" x1="315.28" y1="111.94" x2="312.81" y2="107.66"/><line class="cls-5" x1="320.22" y1="111.94" x2="317.75" y2="107.66"/><line class="cls-5" x1="273.16" y1="119.29" x2="276.29" y2="116.22"/><line class="cls-5" x1="281.59" y1="134.95" x2="290.63" y2="125.92"/><line class="cls-5" x1="293.64" y1="122.9" x2="300.39" y2="116.22"/><line class="cls-5" x1="305.7" y1="134.95" x2="307.14" y2="133.57"/><line class="cls-5" x1="271.83" y1="132.73" x2="278.58" y2="125.92"/><line class="cls-5" x1="281.59" y1="122.9" x2="288.34" y2="116.22"/><line class="cls-5" x1="293.64" y1="134.95" x2="302.68" y2="125.92"/><line class="cls-5" x1="305.7" y1="122.9" x2="307.14" y2="121.52"/><line class="cls-5" x1="321.12" y1="107.66" x2="274.36" y2="107.66"/><line class="cls-5" x1="307.14" y1="116.22" x2="273.52" y2="116.22"/><line class="cls-5" x1="271.35" y1="137.49" x2="307.14" y2="137.49"/><line class="cls-5" x1="324.13" y1="137.49" x2="324.19" y2="137.49"/><line class="cls-5" x1="324.13" y1="106.82" x2="274.48" y2="106.82"/><line class="cls-5" x1="324.13" y1="683.46" x2="324.13" y2="683.46"/><line class="cls-5" x1="324.13" y1="659.36" x2="324.13" y2="659.36"/><line class="cls-5" x1="320.4" y1="631.52" x2="317.02" y2="628.15"/><line class="cls-5" x1="314.73" y1="625.86" x2="307.99" y2="619.11"/><line class="cls-5" x1="324.13" y1="611.16" x2="320.04" y2="607.06"/><line class="cls-5" x1="317.75" y1="604.77" x2="311" y2="598.02"/><line class="cls-5" x1="308.71" y1="595.73" x2="307.14" y2="594.16"/><line class="cls-5" x1="324.13" y1="587.11" x2="323.05" y2="585.97"/><line class="cls-5" x1="320.76" y1="583.68" x2="314.01" y2="576.93"/><line class="cls-5" x1="311.72" y1="574.64" x2="307.14" y2="570.06"/><line class="cls-5" x1="323.77" y1="562.65" x2="317.02" y2="555.84"/><line class="cls-5" x1="314.73" y1="553.61" x2="307.99" y2="546.8"/><line class="cls-5" x1="324.13" y1="538.91" x2="320.04" y2="534.75"/><line class="cls-5" x1="317.75" y1="532.52" x2="311" y2="525.71"/><line class="cls-5" x1="308.71" y1="523.48" x2="307.14" y2="521.86"/><line class="cls-5" x1="324.13" y1="514.81" x2="323.05" y2="513.66"/><line class="cls-5" x1="324.13" y1="695.51" x2="324.13" y2="695.51"/><line class="cls-5" x1="324.13" y1="671.41" x2="324.13" y2="671.41"/><line class="cls-5" x1="308.35" y1="631.52" x2="307.14" y2="630.26"/><line class="cls-5" x1="324.13" y1="623.21" x2="318.53" y2="617.6"/><line class="cls-5" x1="316.24" y1="615.31" x2="309.49" y2="608.56"/><line class="cls-5" x1="307.2" y1="606.28" x2="307.14" y2="606.21"/><line class="cls-5" x1="324.13" y1="599.16" x2="321.54" y2="596.51"/><line class="cls-5" x1="319.25" y1="594.22" x2="312.5" y2="587.48"/><line class="cls-5" x1="310.21" y1="585.19" x2="307.14" y2="582.11"/><line class="cls-5" x1="322.27" y1="573.13" x2="315.52" y2="566.39"/><line class="cls-5" x1="313.23" y1="564.16" x2="307.14" y2="558.01"/><line class="cls-5" x1="324.13" y1="550.96" x2="318.53" y2="545.3"/><line class="cls-5" x1="316.24" y1="543.07" x2="309.49" y2="536.26"/><line class="cls-5" x1="307.2" y1="534.03" x2="307.14" y2="533.91"/><line class="cls-5" x1="324.13" y1="526.86" x2="321.54" y2="524.21"/><line class="cls-5" x1="319.25" y1="521.98" x2="312.5" y2="515.17"/><line class="cls-5" x1="310.21" y1="512.94" x2="309.55" y2="512.28"/><line class="cls-5" x1="314.79" y1="505.47" x2="314.01" y2="504.62"/><line class="cls-5" x1="311.72" y1="502.39" x2="307.14" y2="497.75"/><line class="cls-5" x1="323.77" y1="490.34" x2="320.16" y2="486.73"/><line class="cls-5" x1="322.27" y1="500.89" x2="315.52" y2="494.08"/><line class="cls-5" x1="313.23" y1="491.85" x2="308.11" y2="486.73"/><line class="cls-5" x1="324.13" y1="394.36" x2="320.04" y2="390.2"/><line class="cls-5" x1="317.75" y1="387.97" x2="311" y2="381.16"/><line class="cls-5" x1="308.71" y1="378.93" x2="307.14" y2="377.3"/><line class="cls-5" x1="324.13" y1="370.25" x2="323.05" y2="369.11"/><line class="cls-5" x1="320.76" y1="366.88" x2="314.01" y2="360.07"/><line class="cls-5" x1="311.72" y1="357.84" x2="307.14" y2="353.2"/><line class="cls-5" x1="323.77" y1="345.79" x2="317.02" y2="339.04"/><line class="cls-5" x1="314.73" y1="336.75" x2="307.99" y2="330"/><line class="cls-5" x1="324.13" y1="322.05" x2="320.04" y2="317.95"/><line class="cls-5" x1="317.75" y1="315.66" x2="311" y2="308.91"/><line class="cls-5" x1="308.71" y1="306.62" x2="307.14" y2="305.06"/><line class="cls-5" x1="324.13" y1="298.01" x2="323.05" y2="296.86"/><line class="cls-5" x1="320.76" y1="294.57" x2="314.01" y2="287.82"/><line class="cls-5" x1="311.72" y1="285.53" x2="307.14" y2="280.95"/><line class="cls-5" x1="323.77" y1="273.48" x2="317.02" y2="266.73"/><line class="cls-5" x1="314.73" y1="264.5" x2="307.99" y2="257.7"/><line class="cls-5" x1="324.13" y1="249.8" x2="320.04" y2="245.64"/><line class="cls-5" x1="317.75" y1="243.41" x2="311" y2="236.61"/><line class="cls-5" x1="308.71" y1="234.38" x2="307.14" y2="232.75"/><line class="cls-5" x1="324.13" y1="225.7" x2="323.05" y2="224.55"/><line class="cls-5" x1="320.76" y1="222.33" x2="314.01" y2="215.52"/><line class="cls-5" x1="311.72" y1="213.29" x2="307.14" y2="208.65"/><line class="cls-5" x1="319.31" y1="401.53" x2="318.53" y2="400.74"/><line class="cls-5" x1="316.24" y1="398.51" x2="309.49" y2="391.7"/><line class="cls-5" x1="307.2" y1="389.47" x2="307.14" y2="389.35"/><line class="cls-5" x1="324.13" y1="382.3" x2="321.54" y2="379.65"/><line class="cls-5" x1="319.25" y1="377.42" x2="312.5" y2="370.61"/><line class="cls-5" x1="310.21" y1="368.39" x2="307.14" y2="365.25"/><line class="cls-5" x1="322.27" y1="356.33" x2="315.52" y2="349.53"/><line class="cls-5" x1="313.23" y1="347.3" x2="307.14" y2="341.15"/><line class="cls-5" x1="324.13" y1="334.1" x2="318.53" y2="328.5"/><line class="cls-5" x1="316.24" y1="326.21" x2="309.49" y2="319.46"/><line class="cls-5" x1="307.2" y1="317.17" x2="307.14" y2="317.11"/><line class="cls-5" x1="324.13" y1="310" x2="321.54" y2="307.41"/><line class="cls-5" x1="319.25" y1="305.12" x2="312.5" y2="298.37"/><line class="cls-5" x1="310.21" y1="296.08" x2="307.14" y2="293.01"/><line class="cls-5" x1="322.27" y1="284.03" x2="315.52" y2="277.28"/><line class="cls-5" x1="313.23" y1="274.99" x2="307.14" y2="268.9"/><line class="cls-5" x1="324.13" y1="261.85" x2="318.53" y2="256.19"/><line class="cls-5" x1="316.24" y1="253.96" x2="309.49" y2="247.15"/><line class="cls-5" x1="307.2" y1="244.92" x2="307.14" y2="244.8"/><line class="cls-5" x1="324.13" y1="237.75" x2="321.54" y2="235.1"/><line class="cls-5" x1="319.25" y1="232.87" x2="312.5" y2="226.06"/><line class="cls-5" x1="310.21" y1="223.83" x2="307.14" y2="220.7"/><line class="cls-5" x1="322.27" y1="211.78" x2="316.12" y2="205.63"/><line class="cls-5" x1="324.13" y1="699.67" x2="324.13" y2="512.28"/><line class="cls-5" x1="324.13" y1="505.47" x2="324.13" y2="486.73"/><line class="cls-5" x1="324.13" y1="401.53" x2="324.13" y2="205.63"/><line class="cls-5" x1="307.14" y1="205.63" x2="307.14" y2="401.53"/><line class="cls-5" x1="307.14" y1="486.73" x2="307.14" y2="505.47"/><line class="cls-5" x1="307.14" y1="512.28" x2="307.14" y2="631.52"/><line class="cls-5" x1="309.19" y1="716.72" x2="309.19" y2="716.72"/><line class="cls-5" x1="321.24" y1="716.72" x2="321.24" y2="716.72"/><line class="cls-5" x1="320.76" y1="511.43" x2="314.79" y2="505.47"/><line class="cls-5" x1="309.55" y1="512.28" x2="307.14" y2="509.81"/><line class="cls-5" x1="324.13" y1="512.28" x2="324.13" y2="505.47"/><line class="cls-5" x1="307.14" y1="505.47" x2="307.14" y2="512.28"/><line class="cls-5" x1="3.09" y1="699.67" x2="0.5" y2="697.08"/><line class="cls-5" x1="16.59" y1="689.13" x2="9.84" y2="682.32"/><line class="cls-5" x1="7.55" y1="680.09" x2="0.8" y2="673.28"/><line class="cls-5" x1="17.49" y1="665.93" x2="12.85" y2="661.23"/><line class="cls-5" x1="10.56" y1="659" x2="3.81" y2="652.19"/><line class="cls-5" x1="1.52" y1="649.96" x2="0.5" y2="648.88"/><line class="cls-5" x1="17.49" y1="641.83" x2="15.87" y2="640.14"/><line class="cls-5" x1="13.58" y1="637.91" x2="6.83" y2="631.16"/><line class="cls-5" x1="4.54" y1="628.87" x2="0.5" y2="624.77"/><line class="cls-5" x1="16.59" y1="616.82" x2="9.84" y2="610.07"/><line class="cls-5" x1="7.55" y1="607.78" x2="0.8" y2="601.03"/><line class="cls-5" x1="17.49" y1="593.62" x2="12.85" y2="588.98"/><line class="cls-5" x1="10.56" y1="586.69" x2="3.81" y2="579.94"/><line class="cls-5" x1="1.52" y1="577.65" x2="0.5" y2="576.63"/><line class="cls-5" x1="17.49" y1="569.58" x2="15.87" y2="567.89"/><line class="cls-5" x1="13.58" y1="565.66" x2="6.83" y2="558.85"/><line class="cls-5" x1="4.54" y1="556.62" x2="0.5" y2="552.53"/><line class="cls-5" x1="16.59" y1="544.57" x2="9.84" y2="537.76"/><line class="cls-5" x1="7.55" y1="535.53" x2="0.8" y2="528.73"/><line class="cls-5" x1="17.49" y1="521.37" x2="12.85" y2="516.67"/><line class="cls-5" x1="10.56" y1="514.45" x2="3.81" y2="507.64"/><line class="cls-5" x1="1.52" y1="505.41" x2="0.5" y2="504.32"/><line class="cls-5" x1="17.49" y1="497.27" x2="15.87" y2="495.59"/><line class="cls-5" x1="13.58" y1="493.36" x2="6.95" y2="486.73"/><line class="cls-5" x1="0.5" y1="480.22" x2="0.5" y2="480.22"/><line class="cls-5" x1="0.5" y1="432.08" x2="0.5" y2="432.08"/><line class="cls-5" x1="0.5" y1="407.97" x2="0.5" y2="407.97"/><line class="cls-5" x1="1.1" y1="384.53" x2="0.8" y2="384.17"/><line class="cls-5" x1="17.49" y1="376.82" x2="12.85" y2="372.12"/><line class="cls-5" x1="10.56" y1="369.89" x2="3.81" y2="363.08"/><line class="cls-5" x1="1.52" y1="360.85" x2="0.5" y2="359.77"/><line class="cls-5" x1="17.49" y1="352.72" x2="15.87" y2="351.03"/><line class="cls-5" x1="13.58" y1="348.8" x2="6.83" y2="342.05"/><line class="cls-5" x1="4.54" y1="339.76" x2="0.5" y2="335.67"/><line class="cls-5" x1="16.59" y1="327.71" x2="9.84" y2="320.96"/><line class="cls-5" x1="7.55" y1="318.67" x2="0.8" y2="311.93"/><line class="cls-5" x1="17.49" y1="304.51" x2="12.85" y2="299.87"/><line class="cls-5" x1="10.56" y1="297.58" x2="3.81" y2="290.84"/><line class="cls-5" x1="1.52" y1="288.55" x2="0.5" y2="287.52"/><line class="cls-5" x1="17.49" y1="280.47" x2="15.87" y2="278.79"/><line class="cls-5" x1="13.58" y1="276.5" x2="6.83" y2="269.75"/><line class="cls-5" x1="4.54" y1="267.52" x2="0.5" y2="263.42"/><line class="cls-5" x1="16.59" y1="255.47" x2="9.84" y2="248.66"/><line class="cls-5" x1="7.55" y1="246.43" x2="0.8" y2="239.62"/><line class="cls-5" x1="17.49" y1="232.27" x2="12.85" y2="227.57"/><line class="cls-5" x1="10.56" y1="225.34" x2="3.81" y2="218.53"/><line class="cls-5" x1="1.52" y1="216.3" x2="0.5" y2="215.22"/><line class="cls-5" x1="17.49" y1="208.17" x2="15.87" y2="206.48"/><line class="cls-5" x1="15.08" y1="699.67" x2="8.33" y2="692.86"/><line class="cls-5" x1="6.04" y1="690.63" x2="0.5" y2="685.03"/><line class="cls-5" x1="17.49" y1="677.98" x2="11.35" y2="671.77"/><line class="cls-5" x1="9.06" y1="669.54" x2="2.31" y2="662.73"/><line class="cls-5" x1="17.49" y1="653.88" x2="14.36" y2="650.68"/><line class="cls-5" x1="12.07" y1="648.45" x2="5.32" y2="641.65"/><line class="cls-5" x1="3.03" y1="639.42" x2="0.5" y2="636.82"/><line class="cls-5" x1="17.49" y1="629.77" x2="17.37" y2="629.65"/><line class="cls-5" x1="15.08" y1="627.36" x2="8.33" y2="620.62"/><line class="cls-5" x1="6.04" y1="618.33" x2="0.5" y2="612.72"/><line class="cls-5" x1="17.49" y1="605.67" x2="11.35" y2="599.53"/><line class="cls-5" x1="9.06" y1="597.24" x2="2.31" y2="590.49"/><line class="cls-5" x1="17.49" y1="581.57" x2="14.36" y2="578.44"/><line class="cls-5" x1="12.07" y1="576.15" x2="5.32" y2="569.4"/><line class="cls-5" x1="3.03" y1="567.11" x2="0.5" y2="564.58"/><line class="cls-5" x1="17.49" y1="557.53" x2="17.37" y2="557.35"/><line class="cls-5" x1="15.08" y1="555.12" x2="8.33" y2="548.31"/><line class="cls-5" x1="6.04" y1="546.08" x2="0.5" y2="540.48"/><line class="cls-5" x1="17.49" y1="533.43" x2="11.35" y2="527.22"/><line class="cls-5" x1="9.06" y1="524.99" x2="2.31" y2="518.18"/><line class="cls-5" x1="17.49" y1="509.32" x2="14.36" y2="506.13"/><line class="cls-5" x1="12.07" y1="503.9" x2="5.32" y2="497.09"/><line class="cls-5" x1="3.03" y1="494.86" x2="0.5" y2="492.27"/><line class="cls-5" x1="0.5" y1="468.17" x2="0.5" y2="468.17"/><line class="cls-5" x1="0.5" y1="420.02" x2="0.5" y2="420.02"/><line class="cls-5" x1="0.5" y1="395.92" x2="0.5" y2="395.92"/><line class="cls-5" x1="13.15" y1="384.53" x2="11.35" y2="382.67"/><line class="cls-5" x1="9.06" y1="380.44" x2="2.31" y2="373.63"/><line class="cls-5" x1="17.49" y1="364.77" x2="14.36" y2="361.58"/><line class="cls-5" x1="12.07" y1="359.35" x2="5.32" y2="352.54"/><line class="cls-5" x1="3.03" y1="350.31" x2="0.5" y2="347.72"/><line class="cls-5" x1="17.49" y1="340.67" x2="17.37" y2="340.55"/><line class="cls-5" x1="15.08" y1="338.26" x2="8.33" y2="331.51"/><line class="cls-5" x1="6.04" y1="329.22" x2="0.5" y2="323.62"/><line class="cls-5" x1="17.49" y1="316.57" x2="11.35" y2="310.42"/><line class="cls-5" x1="9.06" y1="308.13" x2="2.31" y2="301.38"/><line class="cls-5" x1="17.49" y1="292.46" x2="14.36" y2="289.33"/><line class="cls-5" x1="12.07" y1="287.04" x2="5.32" y2="280.29"/><line class="cls-5" x1="3.03" y1="278" x2="0.5" y2="275.47"/><line class="cls-5" x1="17.49" y1="268.42" x2="17.37" y2="268.24"/><line class="cls-5" x1="15.08" y1="266.01" x2="8.33" y2="259.2"/><line class="cls-5" x1="6.04" y1="256.97" x2="0.5" y2="251.37"/><line class="cls-5" x1="17.49" y1="244.32" x2="11.35" y2="238.11"/><line class="cls-5" x1="9.06" y1="235.88" x2="2.31" y2="229.07"/><line class="cls-5" x1="17.49" y1="220.22" x2="14.36" y2="217.02"/><line class="cls-5" x1="12.07" y1="214.79" x2="5.32" y2="207.98"/><line class="cls-5" x1="3.03" y1="205.76" x2="2.91" y2="205.63"/><line class="cls-5" x1="17.49" y1="699.67" x2="17.49" y2="486.73"/><line class="cls-5" x1="17.49" y1="384.53" x2="17.49" y2="205.63"/><line class="cls-5" x1="0.5" y1="205.63" x2="0.5" y2="699.67"/><line class="cls-5" x1="166.56" y1="460.82" x2="167.11" y2="460.34"/><line class="cls-5" x1="166.56" y1="466.84" x2="173.07" y2="460.34"/><line class="cls-5" x1="17.49" y1="465.34" x2="22.55" y2="460.34"/><line class="cls-5" x1="21.71" y1="467.14" x2="28.58" y2="460.34"/><line class="cls-5" x1="27.74" y1="467.14" x2="34.54" y2="460.34"/><line class="cls-5" x1="33.76" y1="467.14" x2="40.57" y2="460.34"/><line class="cls-5" x1="39.79" y1="467.14" x2="46.6" y2="460.34"/><line class="cls-5" x1="45.81" y1="467.14" x2="52.62" y2="460.34"/><line class="cls-5" x1="51.84" y1="467.14" x2="58.65" y2="460.34"/><line class="cls-5" x1="57.86" y1="467.14" x2="64.67" y2="460.34"/><line class="cls-5" x1="63.89" y1="467.14" x2="70.7" y2="460.34"/><line class="cls-5" x1="69.91" y1="467.14" x2="76.72" y2="460.34"/><line class="cls-5" x1="75.94" y1="467.14" x2="82.75" y2="460.34"/><line class="cls-5" x1="81.97" y1="467.14" x2="88.77" y2="460.34"/><line class="cls-5" x1="87.99" y1="467.14" x2="94.8" y2="460.34"/><line class="cls-5" x1="94.02" y1="467.14" x2="100.83" y2="460.34"/><line class="cls-5" x1="100.04" y1="467.14" x2="106.85" y2="460.34"/><line class="cls-5" x1="106.07" y1="467.14" x2="112.88" y2="460.34"/><line class="cls-5" x1="112.09" y1="467.14" x2="118.9" y2="460.34"/><line class="cls-5" x1="118.12" y1="467.14" x2="124.93" y2="460.34"/><line class="cls-5" x1="124.14" y1="467.14" x2="130.95" y2="460.34"/><line class="cls-5" x1="130.17" y1="467.14" x2="136.98" y2="460.34"/><line class="cls-5" x1="136.2" y1="467.14" x2="143" y2="460.34"/><line class="cls-5" x1="142.22" y1="467.14" x2="149.03" y2="460.34"/><line class="cls-5" x1="148.25" y1="467.14" x2="155.06" y2="460.34"/><line class="cls-5" x1="154.21" y1="467.14" x2="161.08" y2="460.34"/><line class="cls-5" x1="160.24" y1="467.14" x2="166.56" y2="460.82"/><line class="cls-5" x1="166.26" y1="467.14" x2="166.56" y2="466.84"/><line class="cls-5" x1="17.49" y1="467.14" x2="60.09" y2="467.14"/><line class="cls-5" x1="66.9" y1="467.14" x2="166.56" y2="467.14"/><line class="cls-5" x1="173.37" y1="460.34" x2="17.49" y2="460.34"/><line class="cls-5" x1="172.29" y1="467.14" x2="173.37" y2="466.06"/><line class="cls-5" x1="173.37" y1="460.34" x2="173.37" y2="467.14"/><line class="cls-5" x1="166.56" y1="472.87" x2="172.29" y2="467.14"/><line class="cls-5" x1="166.56" y1="478.89" x2="173.37" y2="472.09"/><line class="cls-5" x1="166.56" y1="484.92" x2="173.37" y2="478.11"/><line class="cls-5" x1="166.56" y1="490.95" x2="173.37" y2="484.14"/><line class="cls-5" x1="166.56" y1="496.97" x2="173.37" y2="490.16"/><line class="cls-5" x1="166.56" y1="503" x2="173.37" y2="496.19"/><line class="cls-5" x1="170.12" y1="505.47" x2="173.37" y2="502.21"/><line class="cls-5" x1="166.56" y1="515.05" x2="169.34" y2="512.28"/><line class="cls-5" x1="166.56" y1="521.07" x2="173.37" y2="514.26"/><line class="cls-5" x1="166.56" y1="527.1" x2="173.37" y2="520.29"/><line class="cls-5" x1="166.56" y1="533.12" x2="173.37" y2="526.32"/><line class="cls-5" x1="166.56" y1="539.15" x2="173.37" y2="532.34"/><line class="cls-5" x1="166.56" y1="545.18" x2="173.37" y2="538.37"/><line class="cls-5" x1="166.56" y1="551.2" x2="173.37" y2="544.39"/><line class="cls-5" x1="166.56" y1="557.23" x2="173.37" y2="550.36"/><line class="cls-5" x1="166.56" y1="563.25" x2="173.37" y2="556.38"/><line class="cls-5" x1="172.41" y1="563.37" x2="173.37" y2="562.41"/><line class="cls-5" x1="166.56" y1="623.45" x2="166.99" y2="623.03"/><line class="cls-5" x1="166.56" y1="629.47" x2="173.01" y2="623.03"/><line class="cls-5" x1="166.56" y1="635.5" x2="173.37" y2="628.69"/><line class="cls-5" x1="166.56" y1="641.52" x2="173.37" y2="634.72"/><line class="cls-5" x1="166.56" y1="647.55" x2="173.37" y2="640.74"/><line class="cls-5" x1="166.56" y1="653.58" x2="173.37" y2="646.77"/><line class="cls-5" x1="166.56" y1="659.6" x2="173.37" y2="652.79"/><line class="cls-5" x1="166.56" y1="665.63" x2="173.37" y2="658.82"/><line class="cls-5" x1="166.56" y1="671.65" x2="173.37" y2="664.84"/><line class="cls-5" x1="166.56" y1="677.68" x2="173.37" y2="670.87"/><line class="cls-5" x1="166.56" y1="683.7" x2="173.37" y2="676.89"/><line class="cls-5" x1="166.56" y1="689.73" x2="173.37" y2="682.92"/><line class="cls-5" x1="166.56" y1="695.75" x2="173.37" y2="688.95"/><line class="cls-5" x1="168.67" y1="699.67" x2="173.37" y2="694.97"/><line class="cls-5" x1="166.56" y1="623.03" x2="173.37" y2="623.03"/><line class="cls-5" x1="166.56" y1="563.37" x2="173.37" y2="563.37"/><line class="cls-5" x1="166.56" y1="467.14" x2="166.56" y2="505.47"/><line class="cls-5" x1="166.56" y1="512.28" x2="166.56" y2="563.37"/><polyline class="cls-5" points="166.56 623.03 166.56 699.67 173.37 699.67 173.37 623.03"/><line class="cls-5" x1="173.37" y1="563.37" x2="173.37" y2="512.28"/><line class="cls-5" x1="173.37" y1="505.47" x2="173.37" y2="467.14"/><line class="cls-3" x1="173.37" y1="563.37" x2="173.37" y2="623.03"/><line class="cls-3" x1="166.56" y1="563.37" x2="166.56" y2="623.03"/><line class="cls-5" x1="17.49" y1="507.52" x2="19.54" y2="505.47"/><line class="cls-5" x1="18.76" y1="512.28" x2="25.57" y2="505.47"/><line class="cls-5" x1="24.78" y1="512.28" x2="26.05" y2="511.01"/><line class="cls-5" x1="60.09" y1="507.09" x2="61.72" y2="505.47"/><line class="cls-5" x1="60.94" y1="512.28" x2="67.75" y2="505.47"/><line class="cls-5" x1="66.96" y1="512.28" x2="73.77" y2="505.47"/><line class="cls-5" x1="72.99" y1="512.28" x2="79.8" y2="505.47"/><line class="cls-5" x1="78.95" y1="512.28" x2="85.82" y2="505.47"/><line class="cls-5" x1="84.98" y1="512.28" x2="91.85" y2="505.47"/><line class="cls-5" x1="91" y1="512.28" x2="97.81" y2="505.47"/><line class="cls-5" x1="97.03" y1="512.28" x2="103.84" y2="505.47"/><line class="cls-5" x1="103.06" y1="512.28" x2="109.86" y2="505.47"/><line class="cls-5" x1="109.08" y1="512.28" x2="115.89" y2="505.47"/><line class="cls-5" x1="115.11" y1="512.28" x2="121.92" y2="505.47"/><line class="cls-5" x1="121.13" y1="512.28" x2="127.94" y2="505.47"/><line class="cls-5" x1="127.16" y1="512.28" x2="133.97" y2="505.47"/><line class="cls-5" x1="133.18" y1="512.28" x2="139.99" y2="505.47"/><line class="cls-5" x1="139.21" y1="512.28" x2="146.02" y2="505.47"/><line class="cls-5" x1="145.23" y1="512.28" x2="152.04" y2="505.47"/><line class="cls-5" x1="151.26" y1="512.28" x2="158.07" y2="505.47"/><line class="cls-5" x1="157.29" y1="512.28" x2="164.09" y2="505.47"/><line class="cls-5" x1="163.31" y1="512.28" x2="170.12" y2="505.47"/><line class="cls-5" x1="169.34" y1="512.28" x2="176.15" y2="505.47"/><line class="cls-5" x1="175.36" y1="512.28" x2="182.17" y2="505.47"/><line class="cls-5" x1="181.39" y1="512.28" x2="188.2" y2="505.47"/><line class="cls-5" x1="187.41" y1="512.28" x2="190.43" y2="509.26"/><line class="cls-5" x1="267.07" y1="510.89" x2="272.49" y2="505.47"/><line class="cls-5" x1="271.71" y1="512.28" x2="278.52" y2="505.47"/><line class="cls-5" x1="277.74" y1="512.28" x2="284.55" y2="505.47"/><line class="cls-5" x1="283.76" y1="512.28" x2="290.57" y2="505.47"/><line class="cls-5" x1="289.79" y1="512.28" x2="296.6" y2="505.47"/><line class="cls-5" x1="295.81" y1="512.28" x2="302.62" y2="505.47"/><line class="cls-5" x1="301.84" y1="512.28" x2="307.14" y2="506.97"/><line class="cls-5" x1="190.43" y1="505.47" x2="190.43" y2="512.28"/><line class="cls-5" x1="267.07" y1="505.47" x2="267.07" y2="512.28"/><polyline class="cls-5" points="26.05 512.28 26.05 508.9 26.05 505.47"/><polyline class="cls-5" points="60.09 512.28 60.09 508.9 60.09 505.47"/><line class="cls-5" x1="307.14" y1="505.47" x2="267.07" y2="505.47"/><line class="cls-5" x1="190.43" y1="505.47" x2="173.37" y2="505.47"/><line class="cls-5" x1="166.56" y1="505.47" x2="66.9" y2="505.47"/><polyline class="cls-5" points="26.05 505.47 17.49 505.47 17.49 512.28 26.05 512.28"/><line class="cls-5" x1="60.09" y1="512.28" x2="166.56" y2="512.28"/><line class="cls-5" x1="173.37" y1="512.28" x2="190.43" y2="512.28"/><polyline class="cls-5" points="267.07 512.28 307.14 512.28 307.14 505.47"/><line class="cls-3" x1="267.07" y1="512.28" x2="190.43" y2="512.28"/><line class="cls-3" x1="267.07" y1="505.47" x2="190.43" y2="505.47"/><line class="cls-5" x1="60.09" y1="512.28" x2="26.05" y2="512.28"/><line class="cls-5" x1="60.09" y1="505.47" x2="26.05" y2="505.47"/><path class="cls-5" d="M58,552.23a34,34,0,0,0,2.05-11.65" transform="translate(0.03 -28.33)"/><line class="cls-5" x1="26.05" y1="512.28" x2="58.04" y2="523.97"/><polyline class="cls-5" points="60.09 505.47 60.09 508.9 60.09 512.28 60.09 508.9"/><polyline class="cls-5" points="26.05 505.47 26.05 508.9 26.05 512.28 26.05 508.9"/><line class="cls-5" x1="324.13" y1="512.28" x2="324.13" y2="505.47"/><line class="cls-5" x1="307.14" y1="505.47" x2="307.14" y2="512.28"/><line class="cls-5" x1="287.62" y1="671.05" x2="285.81" y2="669.24"/><line class="cls-5" x1="307.14" y1="666.41" x2="301.96" y2="661.23"/><line class="cls-5" x1="299.67" y1="659" x2="296.05" y2="655.38"/><line class="cls-5" x1="301.06" y1="672.44" x2="300.45" y2="671.77"/><line class="cls-5" x1="298.16" y1="669.54" x2="291.41" y2="662.73"/><line class="cls-5" x1="289.12" y1="660.51" x2="285.81" y2="657.19"/><line class="cls-5" x1="285.81" y1="669.24" x2="280.87" y2="664.24"/><line class="cls-5" x1="278.58" y1="662.01" x2="272.01" y2="655.38"/><line class="cls-5" x1="285.81" y1="657.19" x2="284" y2="655.38"/><line class="cls-5" x1="307.14" y1="655.38" x2="268.76" y2="655.38"/><line class="cls-5" x1="285.81" y1="672.44" x2="307.14" y2="672.44"/><line class="cls-5" x1="276.95" y1="672.44" x2="270.33" y2="665.75"/><line class="cls-5" x1="268.76" y1="655.38" x2="268.76" y2="672.44"/><line class="cls-5" x1="284.61" y1="692.14" x2="277.86" y2="685.33"/><line class="cls-5" x1="275.57" y1="683.1" x2="268.82" y2="676.29"/><line class="cls-5" x1="280.15" y1="699.67" x2="276.35" y2="695.88"/><line class="cls-5" x1="274.06" y1="693.65" x2="268.76" y2="688.34"/><line class="cls-5" x1="285.81" y1="681.29" x2="279.36" y2="674.79"/><line class="cls-5" x1="277.07" y1="672.56" x2="276.95" y2="672.44"/><line class="cls-5" x1="285.81" y1="705.34" x2="285.39" y2="704.91"/><line class="cls-5" x1="283.1" y1="702.68" x2="280.15" y2="699.67"/><line class="cls-5" x1="268.76" y1="672.44" x2="268.76" y2="699.67"/><line class="cls-5" x1="285.81" y1="716.72" x2="285.81" y2="672.44"/><line class="cls-5" x1="285.15" y1="716.72" x2="283.88" y2="715.46"/><line class="cls-5" x1="281.59" y1="713.23" x2="274.84" y2="706.42"/><line class="cls-5" x1="272.55" y1="704.19" x2="268.76" y2="700.39"/><line class="cls-5" x1="271.05" y1="714.68" x2="268.76" y2="712.45"/><line class="cls-5" x1="285.81" y1="716.72" x2="268.76" y2="716.72"/><polyline class="cls-5" points="324.13 716.72 324.13 709.91 324.13 699.67"/><line class="cls-5" x1="307.14" y1="716.72" x2="324.13" y2="716.72"/><polyline class="cls-5" points="324.13 699.67 324.13 709.91 324.13 716.72 324.13 709.91"/><line class="cls-5" x1="285.81" y1="709.01" x2="288.34" y2="706.48"/><line class="cls-5" x1="291.66" y1="716.72" x2="301.9" y2="706.48"/><line class="cls-5" x1="305.21" y1="716.72" x2="307.14" y2="714.8"/><line class="cls-5" x1="287.14" y1="716.72" x2="297.38" y2="706.48"/><line class="cls-5" x1="300.69" y1="716.72" x2="307.14" y2="710.28"/><line class="cls-5" x1="285.81" y1="716.72" x2="307.14" y2="716.72"/><polyline class="cls-5" points="307.14 706.48 285.81 706.48 285.81 716.72"/><line class="cls-5" x1="20.14" y1="716.72" x2="17.49" y2="714.13"/><line class="cls-5" x1="3.09" y1="699.67" x2="3.09" y2="699.67"/><line class="cls-5" x1="43.7" y1="716.18" x2="36.95" y2="709.43"/><line class="cls-5" x1="34.67" y1="707.2" x2="27.92" y2="700.39"/><line class="cls-5" x1="68.29" y1="716.72" x2="67.02" y2="715.46"/><line class="cls-5" x1="64.79" y1="713.23" x2="57.98" y2="706.42"/><line class="cls-5" x1="55.75" y1="704.19" x2="51.24" y2="699.67"/><line class="cls-5" x1="92.39" y1="716.72" x2="88.11" y2="712.45"/><line class="cls-5" x1="85.88" y1="710.22" x2="79.07" y2="703.41"/><line class="cls-5" x1="76.84" y1="701.18" x2="75.34" y2="699.67"/><line class="cls-5" x1="115.95" y1="716.18" x2="109.2" y2="709.43"/><line class="cls-5" x1="106.97" y1="707.2" x2="100.16" y2="700.39"/><line class="cls-5" x1="140.59" y1="716.72" x2="139.33" y2="715.46"/><line class="cls-5" x1="137.04" y1="713.23" x2="130.29" y2="706.42"/><line class="cls-5" x1="128" y1="704.19" x2="123.54" y2="699.67"/><line class="cls-5" x1="164.7" y1="716.72" x2="160.42" y2="712.45"/><line class="cls-5" x1="158.13" y1="710.22" x2="151.38" y2="703.41"/><line class="cls-5" x1="149.09" y1="701.18" x2="147.64" y2="699.67"/><line class="cls-5" x1="179.22" y1="707.2" x2="172.47" y2="700.39"/><line class="cls-5" x1="0.5" y1="699.67" x2="0.5" y2="699.67"/><line class="cls-5" x1="32.13" y1="716.72" x2="26.41" y2="710.94"/><line class="cls-5" x1="24.12" y1="708.71" x2="17.49" y2="702.08"/><line class="cls-5" x1="54.25" y1="714.68" x2="47.44" y2="707.93"/><line class="cls-5" x1="45.21" y1="705.7" x2="39.24" y2="699.67"/><line class="cls-5" x1="80.34" y1="716.72" x2="77.57" y2="713.95"/><line class="cls-5" x1="75.34" y1="711.72" x2="68.53" y2="704.91"/><line class="cls-5" x1="66.3" y1="702.68" x2="63.29" y2="699.67"/><line class="cls-5" x1="104.44" y1="716.72" x2="98.66" y2="710.94"/><line class="cls-5" x1="96.43" y1="708.71" x2="89.62" y2="701.9"/><line class="cls-5" x1="126.49" y1="714.68" x2="119.75" y2="707.93"/><line class="cls-5" x1="117.46" y1="705.7" x2="111.49" y2="699.67"/><line class="cls-5" x1="152.65" y1="716.72" x2="149.87" y2="713.95"/><line class="cls-5" x1="147.58" y1="711.72" x2="140.84" y2="704.91"/><line class="cls-5" x1="138.55" y1="702.68" x2="135.59" y2="699.67"/><line class="cls-5" x1="176.69" y1="716.72" x2="170.96" y2="710.94"/><line class="cls-5" x1="168.67" y1="708.71" x2="161.93" y2="701.9"/><polyline class="cls-5" points="268.76 716.72 268.76 709.91 268.76 699.67"/><polyline class="cls-5" points="179.34 716.72 179.34 709.91 179.34 699.67"/><line class="cls-5" x1="17.49" y1="716.72" x2="179.34" y2="716.72"/><line class="cls-5" x1="179.34" y1="699.67" x2="17.49" y2="699.67"/><path class="cls-5" d="M261.05,659.86a78.36,78.36,0,0,0-78.37,78.36" transform="translate(0.03 -28.33)"/><line class="cls-5" x1="264.54" y1="709.91" x2="268.76" y2="709.91"/><polyline class="cls-5" points="264.54 716.72 268.76 716.72 268.76 709.91"/><polyline class="cls-5" points="179.34 716.72 182.77 716.72 182.77 709.91 179.34 709.91 179.34 716.72"/><polyline class="cls-5" points="264.54 709.91 261.11 709.91 261.11 716.72 264.54 716.72 264.54 709.91"/><line class="cls-5" x1="261.11" y1="709.91" x2="261.11" y2="631.52"/><polyline class="cls-5" points="179.34 699.67 179.34 709.91 179.34 716.72 179.34 709.91"/><polyline class="cls-5" points="268.76 699.67 268.76 709.91 268.76 716.72 268.76 709.91"/><line class="cls-5" x1="60.09" y1="470.94" x2="63.89" y2="467.14"/><line class="cls-5" x1="60.09" y1="476.97" x2="66.9" y2="470.16"/><line class="cls-5" x1="60.09" y1="482.99" x2="66.9" y2="476.18"/><line class="cls-5" x1="60.09" y1="489.02" x2="66.9" y2="482.21"/><line class="cls-5" x1="60.09" y1="495.04" x2="66.9" y2="488.23"/><line class="cls-5" x1="60.09" y1="501.07" x2="66.9" y2="494.26"/><line class="cls-5" x1="61.72" y1="505.47" x2="66.9" y2="500.29"/><line class="cls-5" x1="66.9" y1="505.47" x2="66.9" y2="467.14"/><line class="cls-5" x1="60.09" y1="467.14" x2="60.09" y2="505.47"/><line class="cls-5" x1="2.37" y1="120.43" x2="4.84" y2="116.22"/><line class="cls-5" x1="7.31" y1="120.43" x2="9.72" y2="116.22"/><line class="cls-5" x1="12.19" y1="120.43" x2="14.66" y2="116.22"/><line class="cls-5" x1="17.13" y1="120.43" x2="17.49" y2="119.77"/><line class="cls-5" x1="0.56" y1="120.43" x2="0.5" y2="120.31"/><line class="cls-5" x1="5.44" y1="120.43" x2="3.03" y2="116.22"/><line class="cls-5" x1="10.38" y1="120.43" x2="7.91" y2="116.22"/><line class="cls-5" x1="15.32" y1="120.43" x2="12.85" y2="116.22"/><polyline class="cls-5" points="0.5 106.81 0.5 120.43 17.49 120.43 17.49 116.22"/><line class="cls-5" x1="307.26" y1="120.43" x2="309.73" y2="116.22"/><line class="cls-5" x1="312.2" y1="120.43" x2="314.67" y2="116.22"/><line class="cls-5" x1="317.08" y1="120.43" x2="319.55" y2="116.22"/><line class="cls-5" x1="322.02" y1="120.43" x2="324.13" y2="116.76"/><line class="cls-5" x1="310.4" y1="120.43" x2="307.92" y2="116.22"/><line class="cls-5" x1="315.28" y1="120.43" x2="312.81" y2="116.22"/><line class="cls-5" x1="320.22" y1="120.43" x2="317.75" y2="116.22"/><line class="cls-5" x1="324.13" y1="118.75" x2="322.57" y2="116.09"/><line class="cls-5" x1="321.6" y1="112.6" x2="322.02" y2="111.94"/><line class="cls-5" x1="322.57" y1="116.09" x2="321.84" y2="114.77"/><line class="cls-5" x1="307.14" y1="112.24" x2="307.26" y2="111.94"/><line class="cls-5" x1="309.73" y1="116.22" x2="312.2" y2="111.94"/><line class="cls-5" x1="314.67" y1="116.22" x2="317.08" y2="111.94"/><line class="cls-5" x1="319.55" y1="116.22" x2="321.6" y2="112.6"/><line class="cls-5" x1="307.92" y1="116.22" x2="307.14" y2="114.83"/><line class="cls-5" x1="312.81" y1="116.22" x2="310.4" y2="111.94"/><line class="cls-5" x1="317.75" y1="116.22" x2="315.28" y2="111.94"/><line class="cls-5" x1="321.84" y1="114.77" x2="320.22" y2="111.94"/><polyline class="cls-5" points="307.14 116.22 307.14 120.43 324.13 120.43 324.13 106.81"/><line class="cls-5" x1="22.31" y1="689.43" x2="22.31" y2="646.04"/><line class="cls-5" x1="27.13" y1="640.92" x2="132.58" y2="640.92"/><line class="cls-5" x1="27.13" y1="694.55" x2="132.58" y2="694.55"/><line class="cls-5" x1="162.29" y1="635.8" x2="17.49" y2="635.8"/><line class="cls-5" x1="162.29" y1="699.67" x2="17.49" y2="699.67"/><line class="cls-5" x1="162.29" y1="699.67" x2="162.29" y2="635.8"/><line class="cls-5" x1="17.49" y1="699.67" x2="17.49" y2="635.8"/><line class="cls-5" x1="115.65" y1="685.69" x2="33.16" y2="685.69"/><line class="cls-5" x1="30.75" y1="683.1" x2="30.75" y2="652.37"/><line class="cls-5" x1="115.65" y1="649.78" x2="33.16" y2="649.78"/><line class="cls-5" x1="47.68" y1="669.3" x2="47.68" y2="672.44"/><line class="cls-5" x1="46.17" y1="667.74" x2="43.22" y2="667.74"/><line class="cls-5" x1="47.68" y1="666.17" x2="47.68" y2="663.04"/><line class="cls-5" x1="49.19" y1="667.74" x2="52.14" y2="667.74"/><path class="cls-5" d="M132.52,722.88c14,0,25.34-12,25.34-26.84s-11.34-26.84-25.34-26.84" transform="translate(0.03 -28.33)"/><path class="cls-5" d="M27.07,669.26a5,5,0,0,0-4.85,5.09" transform="translate(0.03 -28.33)"/><path class="cls-5" d="M22.22,717.73a5,5,0,0,0,4.85,5.09" transform="translate(0.03 -28.33)"/><path class="cls-5" d="M47.62,693.36a2.69,2.69,0,1,0,2.5,2.68,2.6,2.6,0,0,0-2.5-2.68" transform="translate(0.03 -28.33)"/><path class="cls-5" d="M115.59,714c9.37,0,17-8,17-17.93s-7.59-17.93-17-17.93" transform="translate(0.03 -28.33)"/><path class="cls-5" d="M30.66,711.41A2.5,2.5,0,0,0,33.1,714" transform="translate(0.03 -28.33)"/><path class="cls-5" d="M33.1,678.11a2.51,2.51,0,0,0-2.44,2.57" transform="translate(0.03 -28.33)"/><path class="cls-5" d="M47.62,692.45A3.6,3.6,0,1,0,51,696a3.47,3.47,0,0,0-3.35-3.59" transform="translate(0.03 -28.33)"/><line class="cls-5" x1="17.49" y1="587.23" x2="17.49" y2="633.21"/><line class="cls-5" x1="17.49" y1="633.21" x2="36.95" y2="633.21"/><line class="cls-5" x1="17.49" y1="587.23" x2="36.95" y2="587.23"/><line class="cls-5" x1="17.49" y1="617.48" x2="17.49" y2="603.02"/><line class="cls-5" x1="33.1" y1="614.11" x2="33.1" y2="611.64"/><line class="cls-5" x1="29.24" y1="610.25" x2="31.71" y2="610.25"/><line class="cls-5" x1="33.1" y1="608.81" x2="33.1" y2="606.34"/><line class="cls-5" x1="34.54" y1="610.25" x2="37.01" y2="610.25"/><path class="cls-5" d="M38.1,618.39a20.44,20.44,0,0,0-9.7,8" transform="translate(0.03 -28.33)"/><path class="cls-5" d="M28.42,626.28a20.61,20.61,0,0,0-2.88,12.24" transform="translate(0.03 -28.33)"/><path class="cls-5" d="M28.4,650.77a20.44,20.44,0,0,0,9.7,8" transform="translate(0.03 -28.33)"/><path class="cls-5" d="M25.54,638.54a20.6,20.6,0,0,0,2.88,12.23" transform="translate(0.03 -28.33)"/><path class="cls-5" d="M52.31,636.93a37.94,37.94,0,0,0-3.8-14" transform="translate(0.03 -28.33)"/><path class="cls-5" d="M36.94,661.53a11.73,11.73,0,0,0,9.64-4.37" transform="translate(0.03 -28.33)"/><path class="cls-5" d="M52.3,640.16a24.56,24.56,0,0,0,0-3.21" transform="translate(0.03 -28.33)"/><path class="cls-5" d="M29.12,625.68a84.15,84.15,0,0,0,0,25.74" transform="translate(0.03 -28.33)"/><path class="cls-5" d="M21.1,653.86a28.94,28.94,0,0,0,18.82,6.53" transform="translate(0.03 -28.33)"/><path class="cls-5" d="M18.37,638.54a57.76,57.76,0,0,0,1.42,13.17" transform="translate(0.03 -28.33)"/><path class="cls-5" d="M19.79,651.69a3.82,3.82,0,0,0,1.31,2.12" transform="translate(0.03 -28.33)"/><path class="cls-5" d="M20.18,638.57a97.05,97.05,0,0,0,.93,13" transform="translate(0.03 -28.33)"/><path class="cls-5" d="M22.35,653.84a26,26,0,0,0,17.54,6.5" transform="translate(0.03 -28.33)"/><path class="cls-5" d="M21.12,651.5a3.8,3.8,0,0,0,1.26,2.34" transform="translate(0.03 -28.33)"/><path class="cls-5" d="M39.91,616.72a26,26,0,0,0-17.52,6.51" transform="translate(0.03 -28.33)"/><path class="cls-5" d="M39.89,616.72a29,29,0,0,0-18.82,6.55" transform="translate(0.03 -28.33)"/><path class="cls-5" d="M21.09,625.59a98.69,98.69,0,0,0-.91,13" transform="translate(0.03 -28.33)"/><path class="cls-5" d="M19.77,625.42a57.74,57.74,0,0,0-1.4,13.17" transform="translate(0.03 -28.33)"/><path class="cls-5" d="M22.37,623.28a3.88,3.88,0,0,0-1.26,2.34" transform="translate(0.03 -28.33)"/><path class="cls-5" d="M21.09,623.3a3.81,3.81,0,0,0-1.3,2.12" transform="translate(0.03 -28.33)"/><path class="cls-5" d="M46.58,619.89a11.73,11.73,0,0,0-9.64-4.37" transform="translate(0.03 -28.33)"/><path class="cls-5" d="M48.49,623a18.52,18.52,0,0,0-2-3" transform="translate(0.03 -28.33)"/><path class="cls-5" d="M46.51,657.16a18.11,18.11,0,0,0,2-3" transform="translate(0.03 -28.33)"/><path class="cls-5" d="M48.51,654.08a37.89,37.89,0,0,0,3.8-14" transform="translate(0.03 -28.33)"/><path class="cls-5" d="M49.07,644.88a27,27,0,0,0,0-12.65" transform="translate(0.03 -28.33)"/><path class="cls-5" d="M43.81,620.73a6.91,6.91,0,0,0-5.7-2.37" transform="translate(0.03 -28.33)"/><path class="cls-5" d="M49.08,632.23a25,25,0,0,0-5.27-11.48" transform="translate(0.03 -28.33)"/><path class="cls-5" d="M38.11,658.7a7,7,0,0,0,5.7-2.38" transform="translate(0.03 -28.33)"/><path class="cls-5" d="M43.81,656.36a25,25,0,0,0,5.27-11.48" transform="translate(0.03 -28.33)"/><path class="cls-5" d="M33,641.54a3,3,0,1,0-3-3,3,3,0,0,0,3,3" transform="translate(0.03 -28.33)"/><path class="cls-5" d="M33,640.7a2.14,2.14,0,1,0-2.14-2.14A2.14,2.14,0,0,0,33,640.7" transform="translate(0.03 -28.33)"/><line class="cls-5" x1="30.63" y1="544.21" x2="60.7" y2="544.21"/><line class="cls-5" x1="17.49" y1="542.95" x2="17.49" y2="575.3"/><line class="cls-5" x1="17.49" y1="542.95" x2="28.76" y2="542.95"/><line class="cls-5" x1="35.87" y1="559.16" x2="35.87" y2="571.15"/><line class="cls-5" x1="60.64" y1="544.21" x2="35.87" y2="547.1"/><line class="cls-5" x1="35.87" y1="559.16" x2="35.87" y2="547.1"/><line class="cls-5" x1="60.64" y1="574.04" x2="35.87" y2="571.15"/><line class="cls-5" x1="60.64" y1="545" x2="35.87" y2="547.89"/><line class="cls-5" x1="60.64" y1="573.25" x2="35.87" y2="570.36"/><line class="cls-5" x1="30.57" y1="574.04" x2="60.7" y2="574.04"/><line class="cls-5" x1="17.49" y1="575.3" x2="28.76" y2="575.3"/><line class="cls-5" x1="60.64" y1="544.21" x2="63.95" y2="544.63"/><line class="cls-5" x1="63.95" y1="544.63" x2="67.08" y2="545.9"/><line class="cls-5" x1="67.08" y1="545.9" x2="69.85" y2="547.95"/><line class="cls-5" x1="69.85" y1="547.95" x2="72.08" y2="550.66"/><line class="cls-5" x1="72.08" y1="550.66" x2="73.65" y2="553.85"/><line class="cls-5" x1="73.65" y1="553.85" x2="74.49" y2="557.35"/><line class="cls-5" x1="74.49" y1="557.35" x2="74.49" y2="560.9"/><line class="cls-5" x1="74.49" y1="560.9" x2="73.65" y2="564.4"/><line class="cls-5" x1="73.65" y1="564.4" x2="72.08" y2="567.59"/><line class="cls-5" x1="72.08" y1="567.59" x2="69.85" y2="570.3"/><line class="cls-5" x1="69.85" y1="570.3" x2="67.08" y2="572.35"/><line class="cls-5" x1="67.08" y1="572.35" x2="63.95" y2="573.62"/><line class="cls-5" x1="63.95" y1="573.62" x2="60.64" y2="574.04"/><line class="cls-5" x1="60.64" y1="545" x2="63.77" y2="545.42"/><line class="cls-5" x1="63.77" y1="545.42" x2="66.78" y2="546.62"/><line class="cls-5" x1="66.78" y1="546.62" x2="69.37" y2="548.55"/><line class="cls-5" x1="69.37" y1="548.55" x2="71.48" y2="551.08"/><line class="cls-5" x1="71.48" y1="551.08" x2="72.93" y2="554.09"/><line class="cls-5" x1="72.93" y1="554.09" x2="73.71" y2="557.41"/><line class="cls-5" x1="73.71" y1="557.41" x2="73.71" y2="560.84"/><line class="cls-5" x1="73.71" y1="560.84" x2="72.93" y2="564.16"/><line class="cls-5" x1="72.93" y1="564.16" x2="71.48" y2="567.17"/><line class="cls-5" x1="71.48" y1="567.17" x2="69.37" y2="569.7"/><line class="cls-5" x1="69.37" y1="569.7" x2="66.78" y2="571.63"/><line class="cls-5" x1="66.78" y1="571.63" x2="63.77" y2="572.83"/><line class="cls-5" x1="63.77" y1="572.83" x2="60.64" y2="573.25"/><path class="cls-5" d="M30.61,602a136.56,136.56,0,0,0,0-29" transform="translate(0.03 -28.33)"/><path class="cls-5" d="M30.59,572.91a1.9,1.9,0,0,0-1.89-1.69" transform="translate(0.03 -28.33)"/><path class="cls-5" d="M28.7,603.64a1.9,1.9,0,0,0,1.89-1.71" transform="translate(0.03 -28.33)"/><path class="cls-5" d="M23,587.46a1.6,1.6,0,1,0,1.59-1.6,1.6,1.6,0,0,0-1.59,1.6" transform="translate(0.03 -28.33)"/><line class="cls-5" x1="21.77" y1="460.34" x2="68.59" y2="460.34"/><line class="cls-5" x1="68.59" y1="460.34" x2="68.59" y2="413.46"/><line class="cls-5" x1="68.59" y1="413.46" x2="21.77" y2="413.46"/><line class="cls-5" x1="21.77" y1="413.46" x2="21.77" y2="460.34"/><line class="cls-5" x1="26.05" y1="456.06" x2="64.37" y2="456.06"/><line class="cls-5" x1="64.37" y1="456.06" x2="64.37" y2="422.01"/><line class="cls-5" x1="64.37" y1="422.01" x2="26.05" y2="422.01"/><line class="cls-5" x1="26.05" y1="422.01" x2="26.05" y2="456.06"/><line class="cls-5" x1="0.5" y1="716.72" x2="0.5" y2="635.8"/><line class="cls-5" x1="0.5" y1="587.23" x2="0.5" y2="633.21"/><line class="cls-5" x1="0.5" y1="617.48" x2="0.5" y2="603.02"/><line class="cls-5" x1="0.5" y1="542.95" x2="0.5" y2="575.3"/><polyline class="cls-5" points="268.82 103.5 278.28 57.59 278.7 57.71 269.24 103.56 268.82 103.5"/><polyline class="cls-5" points="277.25 56.08 200.55 40.29 200.61 39.87 277.38 55.66 277.25 56.08"/><polyline class="cls-5" points="199.04 41.32 189.58 87.17 189.16 87.11 198.62 41.2 199.04 41.32"/><polyline class="cls-5" points="267.13 105.31 267.61 103.26 269.66 103.68 269.24 105.73 267.13 105.31"/><polyline class="cls-5" points="277.01 57.34 277.44 55.3 279.54 55.72 279.12 57.77 277.01 57.34"/><polyline class="cls-5" points="200.25 41.56 198.2 41.14 198.62 39.03 200.67 39.45 200.25 41.56"/><polyline class="cls-5" points="190.85 87.47 190.43 89.52 188.32 89.1 188.74 86.99 190.85 87.47"/><line class="cls-5" x1="267.37" y1="104.28" x2="277.01" y2="57.35"/><line class="cls-5" x1="279.54" y1="55.72" x2="269.48" y2="104.71"/><line class="cls-5" x1="277.01" y1="57.35" x2="200.25" y2="41.56"/><line class="cls-5" x1="198.62" y1="39.03" x2="279.54" y2="55.72"/><line class="cls-5" x1="200.25" y1="41.56" x2="190.61" y2="88.5"/><line class="cls-5" x1="188.5" y1="88.08" x2="198.62" y2="39.03"/><polyline class="cls-5" points="269.48 104.71 269.24 105.73 267.13 105.31 267.37 104.28"/><polyline class="cls-5" points="190.61 88.5 190.43 89.52 188.32 89.1 188.5 88.08"/><polyline class="cls-5" points="198.62 39.03 279.54 55.72 269.48 104.71 267.37 104.28 277.01 57.34 200.25 41.56 190.61 88.5 188.5 88.08 198.62 39.03"/><polyline class="cls-5" points="199.71 54.94 272.25 69.88 266.77 96.57 194.22 81.63 199.71 54.94"/><polyline class="cls-5" points="199.16 57.59 271.71 72.53 266.77 96.57 194.22 81.63 199.16 57.59"/><line class="cls-5" x1="0.5" y1="127" x2="7.01" y2="120.43"/><line class="cls-5" x1="0.5" y1="134.23" x2="14.24" y2="120.43"/><line class="cls-5" x1="0.5" y1="141.46" x2="17.49" y2="124.41"/><line class="cls-5" x1="0.5" y1="148.69" x2="17.49" y2="131.64"/><line class="cls-5" x1="0.5" y1="155.92" x2="17.49" y2="138.87"/><line class="cls-5" x1="0.5" y1="163.15" x2="17.49" y2="146.1"/><line class="cls-5" x1="0.5" y1="170.38" x2="17.49" y2="153.33"/><line class="cls-5" x1="0.5" y1="177.62" x2="17.49" y2="160.56"/><line class="cls-5" x1="0.5" y1="184.85" x2="17.49" y2="167.79"/><line class="cls-5" x1="0.5" y1="192.08" x2="17.49" y2="175.02"/><line class="cls-5" x1="0.5" y1="199.31" x2="17.49" y2="182.26"/><line class="cls-5" x1="1.34" y1="205.63" x2="17.49" y2="189.49"/><line class="cls-5" x1="8.57" y1="205.63" x2="17.49" y2="196.72"/><line class="cls-5" x1="15.8" y1="205.63" x2="17.49" y2="203.95"/><line class="cls-5" x1="1.22" y1="122.6" x2="3.39" y2="120.43"/><line class="cls-5" x1="0.5" y1="130.62" x2="3.03" y2="128.03"/><line class="cls-5" x1="3.93" y1="127.12" x2="3.93" y2="127.12"/><line class="cls-5" x1="4.84" y1="126.22" x2="7.55" y2="123.51"/><line class="cls-5" x1="8.45" y1="122.6" x2="8.45" y2="122.6"/><line class="cls-5" x1="9.36" y1="121.7" x2="10.62" y2="120.43"/><line class="cls-5" x1="0.5" y1="137.85" x2="2.13" y2="136.16"/><line class="cls-5" x1="3.03" y1="135.26" x2="3.03" y2="135.26"/><line class="cls-5" x1="3.93" y1="134.35" x2="6.65" y2="131.64"/><line class="cls-5" x1="7.55" y1="130.74" x2="7.55" y2="130.74"/><line class="cls-5" x1="8.45" y1="129.83" x2="11.17" y2="127.12"/><line class="cls-5" x1="12.07" y1="126.22" x2="12.07" y2="126.22"/><line class="cls-5" x1="12.97" y1="125.31" x2="15.68" y2="122.6"/><line class="cls-5" x1="16.59" y1="121.7" x2="16.59" y2="121.7"/><line class="cls-5" x1="17.49" y1="120.85" x2="17.49" y2="120.79"/><line class="cls-5" x1="0.5" y1="145.08" x2="1.22" y2="144.29"/><line class="cls-5" x1="2.13" y1="143.39" x2="2.13" y2="143.39"/><line class="cls-5" x1="3.03" y1="142.49" x2="5.74" y2="139.78"/><line class="cls-5" x1="6.65" y1="138.87" x2="6.65" y2="138.87"/><line class="cls-5" x1="7.55" y1="137.97" x2="10.26" y2="135.26"/><line class="cls-5" x1="11.17" y1="134.35" x2="11.17" y2="134.35"/><line class="cls-5" x1="12.07" y1="133.45" x2="14.78" y2="130.74"/><line class="cls-5" x1="15.68" y1="129.83" x2="15.68" y2="129.83"/><line class="cls-5" x1="16.59" y1="128.93" x2="17.49" y2="128.03"/><line class="cls-5" x1="1.22" y1="151.52" x2="1.22" y2="151.52"/><line class="cls-5" x1="2.13" y1="150.62" x2="4.84" y2="147.91"/><line class="cls-5" x1="5.74" y1="147.01" x2="5.74" y2="147.01"/><line class="cls-5" x1="6.65" y1="146.1" x2="9.36" y2="143.39"/><line class="cls-5" x1="10.26" y1="142.49" x2="10.26" y2="142.49"/><line class="cls-5" x1="11.17" y1="141.58" x2="13.88" y2="138.87"/><line class="cls-5" x1="14.78" y1="137.97" x2="14.78" y2="137.97"/><line class="cls-5" x1="15.68" y1="137.06" x2="17.49" y2="135.26"/><line class="cls-5" x1="1.22" y1="158.76" x2="3.93" y2="156.04"/><line class="cls-5" x1="4.84" y1="155.14" x2="4.84" y2="155.14"/><line class="cls-5" x1="5.74" y1="154.24" x2="8.45" y2="151.52"/><line class="cls-5" x1="9.36" y1="150.62" x2="9.36" y2="150.62"/><line class="cls-5" x1="10.26" y1="149.72" x2="12.97" y2="147.01"/><line class="cls-5" x1="13.88" y1="146.1" x2="13.88" y2="146.1"/><line class="cls-5" x1="14.78" y1="145.2" x2="17.49" y2="142.49"/><line class="cls-5" x1="0.5" y1="166.77" x2="3.03" y2="164.18"/><line class="cls-5" x1="3.93" y1="163.27" x2="3.93" y2="163.27"/><line class="cls-5" x1="4.84" y1="162.37" x2="7.55" y2="159.66"/><line class="cls-5" x1="8.45" y1="158.76" x2="8.45" y2="158.76"/><line class="cls-5" x1="9.36" y1="157.85" x2="12.07" y2="155.14"/><line class="cls-5" x1="12.97" y1="154.24" x2="12.97" y2="154.24"/><line class="cls-5" x1="13.88" y1="153.33" x2="16.59" y2="150.62"/><line class="cls-5" x1="17.49" y1="149.72" x2="17.49" y2="149.72"/><line class="cls-5" x1="0.5" y1="174" x2="2.13" y2="172.31"/><line class="cls-5" x1="3.03" y1="171.41" x2="3.03" y2="171.41"/><line class="cls-5" x1="3.93" y1="170.51" x2="6.65" y2="167.79"/><line class="cls-5" x1="7.55" y1="166.89" x2="7.55" y2="166.89"/><line class="cls-5" x1="8.45" y1="165.99" x2="11.17" y2="163.27"/><line class="cls-5" x1="12.07" y1="162.37" x2="12.07" y2="162.37"/><line class="cls-5" x1="12.97" y1="161.47" x2="15.68" y2="158.76"/><line class="cls-5" x1="16.59" y1="157.85" x2="16.59" y2="157.85"/><line class="cls-5" x1="17.49" y1="156.95" x2="17.49" y2="156.95"/><line class="cls-5" x1="0.5" y1="181.23" x2="1.22" y2="180.45"/><line class="cls-5" x1="2.13" y1="179.54" x2="2.13" y2="179.54"/><line class="cls-5" x1="3.03" y1="178.64" x2="5.74" y2="175.93"/><line class="cls-5" x1="6.65" y1="175.02" x2="6.65" y2="175.02"/><line class="cls-5" x1="7.55" y1="174.12" x2="10.26" y2="171.41"/><line class="cls-5" x1="11.17" y1="170.51" x2="11.17" y2="170.51"/><line class="cls-5" x1="12.07" y1="169.6" x2="14.78" y2="166.89"/><line class="cls-5" x1="15.68" y1="165.99" x2="15.68" y2="165.99"/><line class="cls-5" x1="16.59" y1="165.08" x2="17.49" y2="164.18"/><line class="cls-5" x1="1.22" y1="187.68" x2="1.22" y2="187.68"/><line class="cls-5" x1="2.13" y1="186.77" x2="4.84" y2="184.06"/><line class="cls-5" x1="5.74" y1="183.16" x2="5.74" y2="183.16"/><line class="cls-5" x1="6.65" y1="182.26" x2="9.36" y2="179.54"/><line class="cls-5" x1="10.26" y1="178.64" x2="10.26" y2="178.64"/><line class="cls-5" x1="11.17" y1="177.74" x2="13.88" y2="175.02"/><line class="cls-5" x1="14.78" y1="174.12" x2="14.78" y2="174.12"/><line class="cls-5" x1="15.68" y1="173.22" x2="17.49" y2="171.41"/><line class="cls-5" x1="1.22" y1="194.91" x2="3.93" y2="192.2"/><line class="cls-5" x1="4.84" y1="191.29" x2="4.84" y2="191.29"/><line class="cls-5" x1="5.74" y1="190.39" x2="8.45" y2="187.68"/><line class="cls-5" x1="9.36" y1="186.77" x2="9.36" y2="186.77"/><line class="cls-5" x1="10.26" y1="185.87" x2="12.97" y2="183.16"/><line class="cls-5" x1="13.88" y1="182.26" x2="13.88" y2="182.26"/><line class="cls-5" x1="14.78" y1="181.35" x2="17.49" y2="178.64"/><line class="cls-5" x1="0.5" y1="202.92" x2="3.03" y2="200.33"/><line class="cls-5" x1="3.93" y1="199.43" x2="3.93" y2="199.43"/><line class="cls-5" x1="4.84" y1="198.52" x2="7.55" y2="195.81"/><line class="cls-5" x1="8.45" y1="194.91" x2="8.45" y2="194.91"/><line class="cls-5" x1="9.36" y1="194.01" x2="12.07" y2="191.29"/><line class="cls-5" x1="12.97" y1="190.39" x2="12.97" y2="190.39"/><line class="cls-5" x1="13.88" y1="189.49" x2="16.59" y2="186.77"/><line class="cls-5" x1="17.49" y1="185.87" x2="17.49" y2="185.87"/><line class="cls-5" x1="4.96" y1="205.63" x2="6.65" y2="203.95"/><line class="cls-5" x1="7.55" y1="203.04" x2="7.55" y2="203.04"/><line class="cls-5" x1="8.45" y1="202.14" x2="11.17" y2="199.43"/><line class="cls-5" x1="12.07" y1="198.52" x2="12.07" y2="198.52"/><line class="cls-5" x1="12.97" y1="197.62" x2="15.68" y2="194.91"/><line class="cls-5" x1="16.59" y1="194.01" x2="16.59" y2="194.01"/><line class="cls-5" x1="17.49" y1="193.1" x2="17.49" y2="193.1"/><line class="cls-5" x1="12.19" y1="205.63" x2="14.78" y2="203.04"/><line class="cls-5" x1="15.68" y1="202.14" x2="15.68" y2="202.14"/><line class="cls-5" x1="16.59" y1="201.24" x2="17.49" y2="200.33"/><polyline class="cls-5" points="0.5 205.63 17.49 205.63 17.49 120.43 0.5 120.43 0.5 205.63"/><line class="cls-5" x1="0.5" y1="387.19" x2="3.15" y2="384.53"/><line class="cls-5" x1="0.5" y1="394.42" x2="10.38" y2="384.53"/><line class="cls-5" x1="0.5" y1="401.65" x2="17.49" y2="384.65"/><line class="cls-5" x1="0.5" y1="408.88" x2="17.49" y2="391.89"/><line class="cls-5" x1="0.5" y1="416.11" x2="17.49" y2="399.12"/><line class="cls-5" x1="0.5" y1="423.34" x2="17.49" y2="406.29"/><line class="cls-5" x1="0.5" y1="430.57" x2="17.49" y2="413.52"/><line class="cls-5" x1="0.5" y1="437.8" x2="17.49" y2="420.75"/><line class="cls-5" x1="0.5" y1="445.03" x2="17.49" y2="427.98"/><line class="cls-5" x1="0.5" y1="452.26" x2="17.49" y2="435.21"/><line class="cls-5" x1="0.5" y1="459.49" x2="17.49" y2="442.44"/><line class="cls-5" x1="0.5" y1="466.72" x2="17.49" y2="449.67"/><line class="cls-5" x1="0.5" y1="473.95" x2="17.49" y2="456.9"/><line class="cls-5" x1="0.5" y1="481.18" x2="17.49" y2="464.13"/><line class="cls-5" x1="2.13" y1="486.73" x2="17.49" y2="471.36"/><line class="cls-5" x1="9.36" y1="486.73" x2="17.49" y2="478.59"/><line class="cls-5" x1="16.59" y1="486.73" x2="17.49" y2="485.82"/><line class="cls-5" x1="0.5" y1="390.8" x2="2.13" y2="389.17"/><line class="cls-5" x1="3.03" y1="388.27" x2="3.03" y2="388.27"/><line class="cls-5" x1="3.93" y1="387.37" x2="6.65" y2="384.65"/><line class="cls-5" x1="0.5" y1="398.03" x2="1.22" y2="397.31"/><line class="cls-5" x1="2.13" y1="396.4" x2="2.13" y2="396.4"/><line class="cls-5" x1="3.03" y1="395.5" x2="5.74" y2="392.79"/><line class="cls-5" x1="6.65" y1="391.89" x2="6.65" y2="391.89"/><line class="cls-5" x1="7.55" y1="390.98" x2="10.26" y2="388.27"/><line class="cls-5" x1="11.17" y1="387.37" x2="11.17" y2="387.37"/><line class="cls-5" x1="12.07" y1="386.46" x2="14" y2="384.53"/><line class="cls-5" x1="1.22" y1="404.54" x2="1.22" y2="404.54"/><line class="cls-5" x1="2.13" y1="403.64" x2="4.84" y2="400.92"/><line class="cls-5" x1="5.74" y1="400.02" x2="5.74" y2="400.02"/><line class="cls-5" x1="6.65" y1="399.12" x2="9.36" y2="396.4"/><line class="cls-5" x1="10.26" y1="395.5" x2="10.26" y2="395.5"/><line class="cls-5" x1="11.17" y1="394.6" x2="13.88" y2="391.89"/><line class="cls-5" x1="14.78" y1="390.98" x2="14.78" y2="390.98"/><line class="cls-5" x1="15.68" y1="390.08" x2="17.49" y2="388.27"/><line class="cls-5" x1="1.22" y1="411.77" x2="3.93" y2="409.06"/><line class="cls-5" x1="4.84" y1="408.15" x2="4.84" y2="408.15"/><line class="cls-5" x1="5.74" y1="407.25" x2="8.45" y2="404.54"/><line class="cls-5" x1="9.36" y1="403.64" x2="9.36" y2="403.64"/><line class="cls-5" x1="10.26" y1="402.73" x2="12.97" y2="400.02"/><line class="cls-5" x1="13.88" y1="399.12" x2="13.88" y2="399.12"/><line class="cls-5" x1="14.78" y1="398.21" x2="17.49" y2="395.5"/><line class="cls-5" x1="0.5" y1="419.72" x2="3.03" y2="417.19"/><line class="cls-5" x1="3.93" y1="416.29" x2="3.93" y2="416.29"/><line class="cls-5" x1="4.84" y1="415.38" x2="7.55" y2="412.67"/><line class="cls-5" x1="8.45" y1="411.77" x2="8.45" y2="411.77"/><line class="cls-5" x1="9.36" y1="410.87" x2="12.07" y2="408.15"/><line class="cls-5" x1="12.97" y1="407.25" x2="12.97" y2="407.25"/><line class="cls-5" x1="13.88" y1="406.35" x2="16.59" y2="403.64"/><line class="cls-5" x1="17.49" y1="402.73" x2="17.49" y2="402.73"/><line class="cls-5" x1="0.5" y1="426.95" x2="2.13" y2="425.27"/><line class="cls-5" x1="3.03" y1="424.36" x2="3.03" y2="424.36"/><line class="cls-5" x1="3.93" y1="423.46" x2="6.65" y2="420.75"/><line class="cls-5" x1="7.55" y1="419.84" x2="7.55" y2="419.84"/><line class="cls-5" x1="8.45" y1="418.94" x2="11.17" y2="416.29"/><line class="cls-5" x1="12.07" y1="415.38" x2="12.07" y2="415.38"/><line class="cls-5" x1="12.97" y1="414.48" x2="15.68" y2="411.77"/><line class="cls-5" x1="16.59" y1="410.87" x2="16.59" y2="410.87"/><line class="cls-5" x1="17.49" y1="409.96" x2="17.49" y2="409.9"/><line class="cls-5" x1="0.5" y1="434.18" x2="1.22" y2="433.4"/><line class="cls-5" x1="2.13" y1="432.5" x2="2.13" y2="432.5"/><line class="cls-5" x1="3.03" y1="431.59" x2="5.74" y2="428.88"/><line class="cls-5" x1="6.65" y1="427.98" x2="6.65" y2="427.98"/><line class="cls-5" x1="7.55" y1="427.07" x2="10.26" y2="424.36"/><line class="cls-5" x1="11.17" y1="423.46" x2="11.17" y2="423.46"/><line class="cls-5" x1="12.07" y1="422.56" x2="14.78" y2="419.84"/><line class="cls-5" x1="15.68" y1="418.94" x2="15.68" y2="418.94"/><line class="cls-5" x1="16.59" y1="418.04" x2="17.49" y2="417.13"/><line class="cls-5" x1="1.22" y1="440.63" x2="1.22" y2="440.63"/><line class="cls-5" x1="2.13" y1="439.73" x2="4.84" y2="437.02"/><line class="cls-5" x1="5.74" y1="436.11" x2="5.74" y2="436.11"/><line class="cls-5" x1="6.65" y1="435.21" x2="9.36" y2="432.5"/><line class="cls-5" x1="10.26" y1="431.59" x2="10.26" y2="431.59"/><line class="cls-5" x1="11.17" y1="430.69" x2="13.88" y2="427.98"/><line class="cls-5" x1="14.78" y1="427.07" x2="14.78" y2="427.07"/><line class="cls-5" x1="15.68" y1="426.17" x2="17.49" y2="424.36"/><line class="cls-5" x1="1.22" y1="447.86" x2="3.93" y2="445.15"/><line class="cls-5" x1="4.84" y1="444.25" x2="4.84" y2="444.25"/><line class="cls-5" x1="5.74" y1="443.34" x2="8.45" y2="440.63"/><line class="cls-5" x1="9.36" y1="439.73" x2="9.36" y2="439.73"/><line class="cls-5" x1="10.26" y1="438.82" x2="12.97" y2="436.11"/><line class="cls-5" x1="13.88" y1="435.21" x2="13.88" y2="435.21"/><line class="cls-5" x1="14.78" y1="434.31" x2="17.49" y2="431.59"/><line class="cls-5" x1="0.5" y1="455.88" x2="3.03" y2="453.29"/><line class="cls-5" x1="3.93" y1="452.38" x2="3.93" y2="452.38"/><line class="cls-5" x1="4.84" y1="451.48" x2="7.55" y2="448.77"/><line class="cls-5" x1="8.45" y1="447.86" x2="8.45" y2="447.86"/><line class="cls-5" x1="9.36" y1="446.96" x2="12.07" y2="444.25"/><line class="cls-5" x1="12.97" y1="443.34" x2="12.97" y2="443.34"/><line class="cls-5" x1="13.88" y1="442.44" x2="16.59" y2="439.73"/><line class="cls-5" x1="17.49" y1="438.82" x2="17.49" y2="438.82"/><line class="cls-5" x1="0.5" y1="463.11" x2="2.13" y2="461.42"/><line class="cls-5" x1="3.03" y1="460.52" x2="3.03" y2="460.52"/><line class="cls-5" x1="3.93" y1="459.61" x2="6.65" y2="456.9"/><line class="cls-5" x1="7.55" y1="456" x2="7.55" y2="456"/><line class="cls-5" x1="8.45" y1="455.09" x2="11.17" y2="452.38"/><line class="cls-5" x1="12.07" y1="451.48" x2="12.07" y2="451.48"/><line class="cls-5" x1="12.97" y1="450.57" x2="15.68" y2="447.86"/><line class="cls-5" x1="16.59" y1="446.96" x2="16.59" y2="446.96"/><line class="cls-5" x1="17.49" y1="446.06" x2="17.49" y2="446.06"/><line class="cls-5" x1="0.5" y1="470.34" x2="1.22" y2="469.55"/><line class="cls-5" x1="2.13" y1="468.65" x2="2.13" y2="468.65"/><line class="cls-5" x1="3.03" y1="467.75" x2="5.74" y2="465.04"/><line class="cls-5" x1="6.65" y1="464.13" x2="6.65" y2="464.13"/><line class="cls-5" x1="7.55" y1="463.23" x2="10.26" y2="460.52"/><line class="cls-5" x1="11.17" y1="459.61" x2="11.17" y2="459.61"/><line class="cls-5" x1="12.07" y1="458.71" x2="14.78" y2="456"/><line class="cls-5" x1="15.68" y1="455.09" x2="15.68" y2="455.09"/><line class="cls-5" x1="16.59" y1="454.19" x2="17.49" y2="453.29"/><line class="cls-5" x1="1.22" y1="476.79" x2="1.22" y2="476.79"/><line class="cls-5" x1="2.13" y1="475.88" x2="4.84" y2="473.17"/><line class="cls-5" x1="5.74" y1="472.27" x2="5.74" y2="472.27"/><line class="cls-5" x1="6.65" y1="471.36" x2="9.36" y2="468.65"/><line class="cls-5" x1="10.26" y1="467.75" x2="10.26" y2="467.75"/><line class="cls-5" x1="11.17" y1="466.84" x2="13.88" y2="464.13"/><line class="cls-5" x1="14.78" y1="463.23" x2="14.78" y2="463.23"/><line class="cls-5" x1="15.68" y1="462.32" x2="17.49" y2="460.52"/><line class="cls-5" x1="1.22" y1="484.02" x2="3.93" y2="481.3"/><line class="cls-5" x1="4.84" y1="480.4" x2="4.84" y2="480.4"/><line class="cls-5" x1="5.74" y1="479.5" x2="8.45" y2="476.79"/><line class="cls-5" x1="9.36" y1="475.88" x2="9.36" y2="475.88"/><line class="cls-5" x1="10.26" y1="474.98" x2="12.97" y2="472.27"/><line class="cls-5" x1="13.88" y1="471.36" x2="13.88" y2="471.36"/><line class="cls-5" x1="14.78" y1="470.46" x2="17.49" y2="467.75"/><line class="cls-5" x1="5.74" y1="486.73" x2="7.55" y2="484.92"/><line class="cls-5" x1="8.45" y1="484.02" x2="8.45" y2="484.02"/><line class="cls-5" x1="9.36" y1="483.11" x2="12.07" y2="480.4"/><line class="cls-5" x1="12.97" y1="479.5" x2="12.97" y2="479.5"/><line class="cls-5" x1="13.88" y1="478.59" x2="16.59" y2="475.88"/><line class="cls-5" x1="17.49" y1="474.98" x2="17.49" y2="474.98"/><line class="cls-5" x1="12.97" y1="486.73" x2="15.68" y2="484.02"/><line class="cls-5" x1="16.59" y1="483.11" x2="16.59" y2="483.11"/><line class="cls-5" x1="17.49" y1="482.21" x2="17.49" y2="482.21"/><polyline class="cls-5" points="17.49 384.53 0.5 384.53 0.5 486.73 17.49 486.73 17.49 384.53"/><line class="cls-5" x1="307.14" y1="123.93" x2="310.58" y2="120.43"/><line class="cls-5" x1="307.14" y1="131.16" x2="317.81" y2="120.43"/><line class="cls-5" x1="307.14" y1="138.39" x2="324.13" y2="121.34"/><line class="cls-5" x1="307.14" y1="145.62" x2="324.13" y2="128.57"/><line class="cls-5" x1="307.14" y1="152.85" x2="324.13" y2="135.8"/><line class="cls-5" x1="307.14" y1="160.08" x2="324.13" y2="143.03"/><line class="cls-5" x1="307.14" y1="167.31" x2="324.13" y2="150.26"/><line class="cls-5" x1="307.14" y1="174.54" x2="324.13" y2="157.49"/><line class="cls-5" x1="307.14" y1="181.77" x2="324.13" y2="164.72"/><line class="cls-5" x1="307.14" y1="189" x2="324.13" y2="171.95"/><line class="cls-5" x1="307.14" y1="196.23" x2="324.13" y2="179.18"/><line class="cls-5" x1="307.14" y1="203.47" x2="324.13" y2="186.41"/><line class="cls-5" x1="312.14" y1="205.63" x2="324.13" y2="193.64"/><line class="cls-5" x1="319.37" y1="205.63" x2="324.13" y2="200.87"/><line class="cls-5" x1="307.14" y1="127.54" x2="308.41" y2="126.22"/><line class="cls-5" x1="309.31" y1="125.31" x2="309.31" y2="125.31"/><line class="cls-5" x1="310.21" y1="124.41" x2="312.93" y2="121.7"/><line class="cls-5" x1="313.83" y1="120.85" x2="313.83" y2="120.85"/><line class="cls-5" x1="307.14" y1="134.77" x2="307.5" y2="134.35"/><line class="cls-5" x1="308.41" y1="133.45" x2="308.41" y2="133.45"/><line class="cls-5" x1="309.31" y1="132.54" x2="312.02" y2="129.83"/><line class="cls-5" x1="312.93" y1="128.93" x2="312.93" y2="128.93"/><line class="cls-5" x1="313.83" y1="128.03" x2="316.54" y2="125.31"/><line class="cls-5" x1="317.45" y1="124.41" x2="317.45" y2="124.41"/><line class="cls-5" x1="318.35" y1="123.51" x2="321.06" y2="120.85"/><line class="cls-5" x1="307.5" y1="141.58" x2="307.5" y2="141.58"/><line class="cls-5" x1="308.41" y1="140.68" x2="311.12" y2="137.97"/><line class="cls-5" x1="312.02" y1="137.06" x2="312.02" y2="137.06"/><line class="cls-5" x1="312.93" y1="136.16" x2="315.64" y2="133.45"/><line class="cls-5" x1="316.54" y1="132.54" x2="316.54" y2="132.54"/><line class="cls-5" x1="317.45" y1="131.64" x2="320.16" y2="128.93"/><line class="cls-5" x1="321.06" y1="128.03" x2="321.06" y2="128.03"/><line class="cls-5" x1="321.96" y1="127.12" x2="324.13" y2="124.95"/><line class="cls-5" x1="307.5" y1="148.81" x2="310.21" y2="146.1"/><line class="cls-5" x1="311.12" y1="145.2" x2="311.12" y2="145.2"/><line class="cls-5" x1="312.02" y1="144.29" x2="314.73" y2="141.58"/><line class="cls-5" x1="315.64" y1="140.68" x2="315.64" y2="140.68"/><line class="cls-5" x1="316.54" y1="139.78" x2="319.25" y2="137.06"/><line class="cls-5" x1="320.16" y1="136.16" x2="320.16" y2="136.16"/><line class="cls-5" x1="321.06" y1="135.26" x2="323.77" y2="132.54"/><line class="cls-5" x1="307.14" y1="156.47" x2="309.31" y2="154.24"/><line class="cls-5" x1="310.21" y1="153.33" x2="310.21" y2="153.33"/><line class="cls-5" x1="311.12" y1="152.43" x2="313.83" y2="149.72"/><line class="cls-5" x1="314.73" y1="148.81" x2="314.73" y2="148.81"/><line class="cls-5" x1="315.64" y1="147.91" x2="318.35" y2="145.2"/><line class="cls-5" x1="319.25" y1="144.29" x2="319.25" y2="144.29"/><line class="cls-5" x1="320.16" y1="143.39" x2="322.87" y2="140.68"/><line class="cls-5" x1="323.77" y1="139.78" x2="323.77" y2="139.78"/><line class="cls-5" x1="307.14" y1="163.7" x2="308.41" y2="162.37"/><line class="cls-5" x1="309.31" y1="161.47" x2="309.31" y2="161.47"/><line class="cls-5" x1="310.21" y1="160.56" x2="312.93" y2="157.85"/><line class="cls-5" x1="313.83" y1="156.95" x2="313.83" y2="156.95"/><line class="cls-5" x1="314.73" y1="156.04" x2="317.45" y2="153.33"/><line class="cls-5" x1="318.35" y1="152.43" x2="318.35" y2="152.43"/><line class="cls-5" x1="319.25" y1="151.52" x2="321.96" y2="148.81"/><line class="cls-5" x1="322.87" y1="147.91" x2="322.87" y2="147.91"/><line class="cls-5" x1="323.77" y1="147.01" x2="324.13" y2="146.64"/><line class="cls-5" x1="307.14" y1="170.93" x2="307.5" y2="170.51"/><line class="cls-5" x1="308.41" y1="169.6" x2="308.41" y2="169.6"/><line class="cls-5" x1="309.31" y1="168.7" x2="312.02" y2="165.99"/><line class="cls-5" x1="312.93" y1="165.08" x2="312.93" y2="165.08"/><line class="cls-5" x1="313.83" y1="164.18" x2="316.54" y2="161.47"/><line class="cls-5" x1="317.45" y1="160.56" x2="317.45" y2="160.56"/><line class="cls-5" x1="318.35" y1="159.66" x2="321.06" y2="156.95"/><line class="cls-5" x1="321.96" y1="156.04" x2="321.96" y2="156.04"/><line class="cls-5" x1="322.87" y1="155.14" x2="324.13" y2="153.87"/><line class="cls-5" x1="307.5" y1="177.74" x2="307.5" y2="177.74"/><line class="cls-5" x1="308.41" y1="176.83" x2="311.12" y2="174.12"/><line class="cls-5" x1="312.02" y1="173.22" x2="312.02" y2="173.22"/><line class="cls-5" x1="312.93" y1="172.31" x2="315.64" y2="169.6"/><line class="cls-5" x1="316.54" y1="168.7" x2="316.54" y2="168.7"/><line class="cls-5" x1="317.45" y1="167.79" x2="320.16" y2="165.08"/><line class="cls-5" x1="321.06" y1="164.18" x2="321.06" y2="164.18"/><line class="cls-5" x1="321.96" y1="163.27" x2="324.13" y2="161.11"/><line class="cls-5" x1="307.5" y1="184.97" x2="310.21" y2="182.26"/><line class="cls-5" x1="311.12" y1="181.35" x2="311.12" y2="181.35"/><line class="cls-5" x1="312.02" y1="180.45" x2="314.73" y2="177.74"/><line class="cls-5" x1="315.64" y1="176.83" x2="315.64" y2="176.83"/><line class="cls-5" x1="316.54" y1="175.93" x2="319.25" y2="173.22"/><line class="cls-5" x1="320.16" y1="172.31" x2="320.16" y2="172.31"/><line class="cls-5" x1="321.06" y1="171.41" x2="323.77" y2="168.7"/><line class="cls-5" x1="307.14" y1="192.62" x2="309.31" y2="190.39"/><line class="cls-5" x1="310.21" y1="189.49" x2="310.21" y2="189.49"/><line class="cls-5" x1="311.12" y1="188.58" x2="313.83" y2="185.87"/><line class="cls-5" x1="314.73" y1="184.97" x2="314.73" y2="184.97"/><line class="cls-5" x1="315.64" y1="184.06" x2="318.35" y2="181.35"/><line class="cls-5" x1="319.25" y1="180.45" x2="319.25" y2="180.45"/><line class="cls-5" x1="320.16" y1="179.54" x2="322.87" y2="176.83"/><line class="cls-5" x1="323.77" y1="175.93" x2="323.77" y2="175.93"/><line class="cls-5" x1="307.14" y1="199.85" x2="308.41" y2="198.52"/><line class="cls-5" x1="309.31" y1="197.62" x2="309.31" y2="197.62"/><line class="cls-5" x1="310.21" y1="196.72" x2="312.93" y2="194.01"/><line class="cls-5" x1="313.83" y1="193.1" x2="313.83" y2="193.1"/><line class="cls-5" x1="314.73" y1="192.2" x2="317.45" y2="189.49"/><line class="cls-5" x1="318.35" y1="188.58" x2="318.35" y2="188.58"/><line class="cls-5" x1="319.25" y1="187.68" x2="321.96" y2="184.97"/><line class="cls-5" x1="322.87" y1="184.06" x2="322.87" y2="184.06"/><line class="cls-5" x1="323.77" y1="183.16" x2="324.13" y2="182.8"/><line class="cls-5" x1="309.31" y1="204.85" x2="312.02" y2="202.14"/><line class="cls-5" x1="312.93" y1="201.24" x2="312.93" y2="201.24"/><line class="cls-5" x1="313.83" y1="200.33" x2="316.54" y2="197.62"/><line class="cls-5" x1="317.45" y1="196.72" x2="317.45" y2="196.72"/><line class="cls-5" x1="318.35" y1="195.81" x2="321.06" y2="193.1"/><line class="cls-5" x1="321.96" y1="192.2" x2="321.96" y2="192.2"/><line class="cls-5" x1="322.87" y1="191.29" x2="324.13" y2="190.03"/><line class="cls-5" x1="316.54" y1="204.85" x2="316.54" y2="204.85"/><line class="cls-5" x1="317.45" y1="203.95" x2="320.16" y2="201.24"/><line class="cls-5" x1="321.06" y1="200.33" x2="321.06" y2="200.33"/><line class="cls-5" x1="321.96" y1="199.43" x2="324.13" y2="197.26"/><line class="cls-5" x1="322.99" y1="205.63" x2="323.77" y2="204.85"/><polyline class="cls-5" points="307.14 205.63 324.13 205.63 324.13 120.43 307.14 120.43 307.14 205.63"/><line class="cls-5" x1="307.14" y1="405.8" x2="311.36" y2="401.53"/><line class="cls-5" x1="307.14" y1="413.03" x2="318.59" y2="401.53"/><line class="cls-5" x1="307.14" y1="420.27" x2="324.13" y2="403.21"/><line class="cls-5" x1="307.14" y1="427.5" x2="324.13" y2="410.44"/><line class="cls-5" x1="307.14" y1="434.73" x2="324.13" y2="417.67"/><line class="cls-5" x1="307.14" y1="441.96" x2="324.13" y2="424.91"/><line class="cls-5" x1="307.14" y1="449.19" x2="324.13" y2="432.14"/><line class="cls-5" x1="307.14" y1="456.42" x2="324.13" y2="439.37"/><line class="cls-5" x1="307.14" y1="463.65" x2="324.13" y2="446.6"/><line class="cls-5" x1="307.14" y1="470.88" x2="324.13" y2="453.83"/><line class="cls-5" x1="307.14" y1="478.11" x2="324.13" y2="461.06"/><line class="cls-5" x1="307.14" y1="485.34" x2="324.13" y2="468.29"/><line class="cls-5" x1="312.93" y1="486.73" x2="324.13" y2="475.52"/><line class="cls-5" x1="320.16" y1="486.73" x2="324.13" y2="482.75"/><line class="cls-5" x1="307.5" y1="401.83" x2="307.74" y2="401.53"/><line class="cls-5" x1="307.14" y1="409.42" x2="309.31" y2="407.25"/><line class="cls-5" x1="310.21" y1="406.35" x2="310.21" y2="406.35"/><line class="cls-5" x1="311.12" y1="405.44" x2="313.83" y2="402.73"/><line class="cls-5" x1="314.73" y1="401.83" x2="314.73" y2="401.83"/><line class="cls-5" x1="307.14" y1="416.65" x2="308.41" y2="415.38"/><line class="cls-5" x1="309.31" y1="414.48" x2="309.31" y2="414.48"/><line class="cls-5" x1="310.21" y1="413.58" x2="312.93" y2="410.87"/><line class="cls-5" x1="313.83" y1="409.96" x2="313.83" y2="409.96"/><line class="cls-5" x1="314.73" y1="409.06" x2="317.45" y2="406.35"/><line class="cls-5" x1="318.35" y1="405.44" x2="318.35" y2="405.44"/><line class="cls-5" x1="319.25" y1="404.54" x2="321.96" y2="401.83"/><line class="cls-5" x1="307.14" y1="423.88" x2="307.5" y2="423.46"/><line class="cls-5" x1="308.41" y1="422.56" x2="308.41" y2="422.56"/><line class="cls-5" x1="309.31" y1="421.65" x2="312.02" y2="418.94"/><line class="cls-5" x1="312.93" y1="418.04" x2="312.93" y2="418.04"/><line class="cls-5" x1="313.83" y1="417.19" x2="316.54" y2="414.48"/><line class="cls-5" x1="317.45" y1="413.58" x2="317.45" y2="413.58"/><line class="cls-5" x1="318.35" y1="412.67" x2="321.06" y2="409.96"/><line class="cls-5" x1="321.96" y1="409.06" x2="321.96" y2="409.06"/><line class="cls-5" x1="322.87" y1="408.15" x2="324.13" y2="406.83"/><line class="cls-5" x1="307.5" y1="430.69" x2="307.5" y2="430.69"/><line class="cls-5" x1="308.41" y1="429.79" x2="311.12" y2="427.07"/><line class="cls-5" x1="312.02" y1="426.17" x2="312.02" y2="426.17"/><line class="cls-5" x1="312.93" y1="425.27" x2="315.64" y2="422.56"/><line class="cls-5" x1="316.54" y1="421.65" x2="316.54" y2="421.65"/><line class="cls-5" x1="317.45" y1="420.75" x2="320.16" y2="418.04"/><line class="cls-5" x1="321.06" y1="417.19" x2="321.06" y2="417.19"/><line class="cls-5" x1="321.96" y1="416.29" x2="324.13" y2="414.06"/><line class="cls-5" x1="307.5" y1="437.92" x2="310.21" y2="435.21"/><line class="cls-5" x1="311.12" y1="434.31" x2="311.12" y2="434.31"/><line class="cls-5" x1="312.02" y1="433.4" x2="314.73" y2="430.69"/><line class="cls-5" x1="315.64" y1="429.79" x2="315.64" y2="429.79"/><line class="cls-5" x1="316.54" y1="428.88" x2="319.25" y2="426.17"/><line class="cls-5" x1="320.16" y1="425.27" x2="320.16" y2="425.27"/><line class="cls-5" x1="321.06" y1="424.36" x2="323.77" y2="421.65"/><line class="cls-5" x1="307.14" y1="445.57" x2="309.31" y2="443.34"/><line class="cls-5" x1="310.21" y1="442.44" x2="310.21" y2="442.44"/><line class="cls-5" x1="311.12" y1="441.54" x2="313.83" y2="438.82"/><line class="cls-5" x1="314.73" y1="437.92" x2="314.73" y2="437.92"/><line class="cls-5" x1="315.64" y1="437.02" x2="318.35" y2="434.31"/><line class="cls-5" x1="319.25" y1="433.4" x2="319.25" y2="433.4"/><line class="cls-5" x1="320.16" y1="432.5" x2="322.87" y2="429.79"/><line class="cls-5" x1="323.77" y1="428.88" x2="323.77" y2="428.88"/><line class="cls-5" x1="307.14" y1="452.8" x2="308.41" y2="451.48"/><line class="cls-5" x1="309.31" y1="450.57" x2="309.31" y2="450.57"/><line class="cls-5" x1="310.21" y1="449.67" x2="312.93" y2="446.96"/><line class="cls-5" x1="313.83" y1="446.06" x2="313.83" y2="446.06"/><line class="cls-5" x1="314.73" y1="445.15" x2="317.45" y2="442.44"/><line class="cls-5" x1="318.35" y1="441.54" x2="318.35" y2="441.54"/><line class="cls-5" x1="319.25" y1="440.63" x2="321.96" y2="437.92"/><line class="cls-5" x1="322.87" y1="437.02" x2="322.87" y2="437.02"/><line class="cls-5" x1="323.77" y1="436.11" x2="324.13" y2="435.75"/><line class="cls-5" x1="307.14" y1="460.03" x2="307.5" y2="459.61"/><line class="cls-5" x1="308.41" y1="458.71" x2="308.41" y2="458.71"/><line class="cls-5" x1="309.31" y1="457.8" x2="312.02" y2="455.09"/><line class="cls-5" x1="312.93" y1="454.19" x2="312.93" y2="454.19"/><line class="cls-5" x1="313.83" y1="453.29" x2="316.54" y2="450.57"/><line class="cls-5" x1="317.45" y1="449.67" x2="317.45" y2="449.67"/><line class="cls-5" x1="318.35" y1="448.77" x2="321.06" y2="446.06"/><line class="cls-5" x1="321.96" y1="445.15" x2="321.96" y2="445.15"/><line class="cls-5" x1="322.87" y1="444.25" x2="324.13" y2="442.98"/><line class="cls-5" x1="307.5" y1="466.84" x2="307.5" y2="466.84"/><line class="cls-5" x1="308.41" y1="465.94" x2="311.12" y2="463.23"/><line class="cls-5" x1="312.02" y1="462.32" x2="312.02" y2="462.32"/><line class="cls-5" x1="312.93" y1="461.42" x2="315.64" y2="458.71"/><line class="cls-5" x1="316.54" y1="457.8" x2="316.54" y2="457.8"/><line class="cls-5" x1="317.45" y1="456.9" x2="320.16" y2="454.19"/><line class="cls-5" x1="321.06" y1="453.29" x2="321.06" y2="453.29"/><line class="cls-5" x1="321.96" y1="452.38" x2="324.13" y2="450.21"/><line class="cls-5" x1="307.5" y1="474.07" x2="310.21" y2="471.36"/><line class="cls-5" x1="311.12" y1="470.46" x2="311.12" y2="470.46"/><line class="cls-5" x1="312.02" y1="469.55" x2="314.73" y2="466.84"/><line class="cls-5" x1="315.64" y1="465.94" x2="315.64" y2="465.94"/><line class="cls-5" x1="316.54" y1="465.04" x2="319.25" y2="462.32"/><line class="cls-5" x1="320.16" y1="461.42" x2="320.16" y2="461.42"/><line class="cls-5" x1="321.06" y1="460.52" x2="323.77" y2="457.8"/><line class="cls-5" x1="307.14" y1="481.73" x2="309.31" y2="479.5"/><line class="cls-5" x1="310.21" y1="478.59" x2="310.21" y2="478.59"/><line class="cls-5" x1="311.12" y1="477.69" x2="313.83" y2="474.98"/><line class="cls-5" x1="314.73" y1="474.07" x2="314.73" y2="474.07"/><line class="cls-5" x1="315.64" y1="473.17" x2="318.35" y2="470.46"/><line class="cls-5" x1="319.25" y1="469.55" x2="319.25" y2="469.55"/><line class="cls-5" x1="320.16" y1="468.65" x2="322.87" y2="465.94"/><line class="cls-5" x1="323.77" y1="465.04" x2="323.77" y2="465.04"/><line class="cls-5" x1="310.21" y1="485.82" x2="312.93" y2="483.11"/><line class="cls-5" x1="313.83" y1="482.21" x2="313.83" y2="482.21"/><line class="cls-5" x1="314.73" y1="481.3" x2="317.45" y2="478.59"/><line class="cls-5" x1="318.35" y1="477.69" x2="318.35" y2="477.69"/><line class="cls-5" x1="319.25" y1="476.79" x2="321.96" y2="474.07"/><line class="cls-5" x1="322.87" y1="473.17" x2="322.87" y2="473.17"/><line class="cls-5" x1="323.77" y1="472.27" x2="324.13" y2="471.9"/><line class="cls-5" x1="317.45" y1="485.82" x2="317.45" y2="485.82"/><line class="cls-5" x1="318.35" y1="484.92" x2="321.06" y2="482.21"/><line class="cls-5" x1="321.96" y1="481.3" x2="321.96" y2="481.3"/><line class="cls-5" x1="322.87" y1="480.4" x2="324.13" y2="479.14"/><line class="cls-5" x1="323.77" y1="486.73" x2="324.13" y2="486.37"/><polyline class="cls-5" points="324.13 401.53 307.14 401.53 307.14 486.73 324.13 486.73 324.13 401.53"/><line class="cls-5" x1="3.45" y1="716.72" x2="17.49" y2="702.62"/><line class="cls-5" x1="10.68" y1="716.72" x2="17.49" y2="709.85"/><line class="cls-5" x1="0.5" y1="699.97" x2="0.5" y2="699.97"/><line class="cls-5" x1="0.5" y1="716.72" x2="0.5" y2="716.18"/><line class="cls-5" x1="1.22" y1="700.88" x2="2.43" y2="699.67"/><line class="cls-5" x1="3.93" y1="705.4" x2="3.93" y2="705.4"/><line class="cls-5" x1="4.84" y1="704.49" x2="7.55" y2="701.78"/><line class="cls-5" x1="8.45" y1="700.88" x2="8.45" y2="700.88"/><line class="cls-5" x1="9.36" y1="699.97" x2="9.66" y2="699.67"/><line class="cls-5" x1="3.03" y1="713.53" x2="3.03" y2="713.53"/><line class="cls-5" x1="3.93" y1="712.63" x2="6.65" y2="709.91"/><line class="cls-5" x1="7.55" y1="709.01" x2="7.55" y2="709.01"/><line class="cls-5" x1="8.45" y1="708.11" x2="11.17" y2="705.4"/><line class="cls-5" x1="12.07" y1="704.49" x2="12.07" y2="704.49"/><line class="cls-5" x1="12.97" y1="703.59" x2="15.68" y2="700.88"/><line class="cls-5" x1="16.59" y1="699.97" x2="16.59" y2="699.97"/><line class="cls-5" x1="7.55" y1="716.18" x2="10.26" y2="713.53"/><line class="cls-5" x1="11.17" y1="712.63" x2="11.17" y2="712.63"/><line class="cls-5" x1="12.07" y1="711.72" x2="14.78" y2="709.01"/><line class="cls-5" x1="15.68" y1="708.11" x2="15.68" y2="708.11"/><line class="cls-5" x1="16.59" y1="707.2" x2="17.49" y2="706.24"/><line class="cls-5" x1="14.78" y1="716.18" x2="14.78" y2="716.18"/><line class="cls-5" x1="15.68" y1="715.28" x2="17.49" y2="713.47"/><polyline class="cls-5" points="0.5 699.67 17.49 699.67 17.49 716.72 0.5 716.72"/><line class="cls-5" x1="307.14" y1="637.13" x2="312.68" y2="631.52"/><line class="cls-5" x1="307.14" y1="644.36" x2="319.92" y2="631.52"/><line class="cls-5" x1="307.14" y1="651.59" x2="324.13" y2="634.53"/><line class="cls-5" x1="307.14" y1="658.76" x2="324.13" y2="641.77"/><line class="cls-5" x1="307.14" y1="665.99" x2="324.13" y2="649"/><line class="cls-5" x1="307.14" y1="673.22" x2="324.13" y2="656.23"/><line class="cls-5" x1="307.14" y1="680.45" x2="324.13" y2="663.46"/><line class="cls-5" x1="307.14" y1="687.68" x2="324.13" y2="670.69"/><line class="cls-5" x1="307.14" y1="694.91" x2="324.13" y2="677.86"/><line class="cls-5" x1="307.14" y1="702.14" x2="324.13" y2="685.09"/><line class="cls-5" x1="307.14" y1="709.37" x2="324.13" y2="692.32"/><line class="cls-5" x1="307.14" y1="716.6" x2="324.13" y2="699.55"/><line class="cls-5" x1="314.25" y1="716.72" x2="324.13" y2="706.78"/><line class="cls-5" x1="321.48" y1="716.72" x2="324.13" y2="714.01"/><line class="cls-5" x1="307.14" y1="633.51" x2="308.41" y2="632.19"/><line class="cls-5" x1="307.14" y1="640.74" x2="307.5" y2="640.32"/><line class="cls-5" x1="308.41" y1="639.42" x2="308.41" y2="639.42"/><line class="cls-5" x1="309.31" y1="638.51" x2="312.02" y2="635.8"/><line class="cls-5" x1="312.93" y1="634.9" x2="312.93" y2="634.9"/><line class="cls-5" x1="313.83" y1="633.99" x2="316.3" y2="631.52"/><line class="cls-5" x1="307.5" y1="647.55" x2="307.5" y2="647.55"/><line class="cls-5" x1="308.41" y1="646.65" x2="311.12" y2="643.93"/><line class="cls-5" x1="312.02" y1="643.03" x2="312.02" y2="643.03"/><line class="cls-5" x1="312.93" y1="642.13" x2="315.64" y2="639.42"/><line class="cls-5" x1="316.54" y1="638.51" x2="316.54" y2="638.51"/><line class="cls-5" x1="317.45" y1="637.61" x2="320.16" y2="634.9"/><line class="cls-5" x1="321.06" y1="633.99" x2="321.06" y2="633.99"/><line class="cls-5" x1="321.96" y1="633.09" x2="323.53" y2="631.52"/><line class="cls-5" x1="307.5" y1="654.78" x2="310.21" y2="652.07"/><line class="cls-5" x1="311.12" y1="651.17" x2="311.12" y2="651.17"/><line class="cls-5" x1="312.02" y1="650.26" x2="314.73" y2="647.55"/><line class="cls-5" x1="315.64" y1="646.65" x2="315.64" y2="646.65"/><line class="cls-5" x1="316.54" y1="645.74" x2="319.25" y2="643.03"/><line class="cls-5" x1="320.16" y1="642.13" x2="320.16" y2="642.13"/><line class="cls-5" x1="321.06" y1="641.22" x2="323.77" y2="638.51"/><line class="cls-5" x1="307.14" y1="662.37" x2="309.31" y2="660.2"/><line class="cls-5" x1="310.21" y1="659.3" x2="310.21" y2="659.3"/><line class="cls-5" x1="311.12" y1="658.4" x2="313.83" y2="655.68"/><line class="cls-5" x1="314.73" y1="654.78" x2="314.73" y2="654.78"/><line class="cls-5" x1="315.64" y1="653.88" x2="318.35" y2="651.17"/><line class="cls-5" x1="319.25" y1="650.26" x2="319.25" y2="650.26"/><line class="cls-5" x1="320.16" y1="649.36" x2="322.87" y2="646.65"/><line class="cls-5" x1="323.77" y1="645.74" x2="323.77" y2="645.74"/><line class="cls-5" x1="307.14" y1="669.6" x2="308.41" y2="668.34"/><line class="cls-5" x1="309.31" y1="667.43" x2="309.31" y2="667.43"/><line class="cls-5" x1="310.21" y1="666.53" x2="312.93" y2="663.82"/><line class="cls-5" x1="313.83" y1="662.92" x2="313.83" y2="662.92"/><line class="cls-5" x1="314.73" y1="662.01" x2="317.45" y2="659.3"/><line class="cls-5" x1="318.35" y1="658.4" x2="318.35" y2="658.4"/><line class="cls-5" x1="319.25" y1="657.49" x2="321.96" y2="654.78"/><line class="cls-5" x1="322.87" y1="653.88" x2="322.87" y2="653.88"/><line class="cls-5" x1="323.77" y1="652.97" x2="324.13" y2="652.61"/><line class="cls-5" x1="307.14" y1="676.83" x2="307.5" y2="676.47"/><line class="cls-5" x1="308.41" y1="675.57" x2="308.41" y2="675.57"/><line class="cls-5" x1="309.31" y1="674.67" x2="312.02" y2="671.95"/><line class="cls-5" x1="312.93" y1="671.05" x2="312.93" y2="671.05"/><line class="cls-5" x1="313.83" y1="670.15" x2="316.54" y2="667.43"/><line class="cls-5" x1="317.45" y1="666.53" x2="317.45" y2="666.53"/><line class="cls-5" x1="318.35" y1="665.63" x2="321.06" y2="662.92"/><line class="cls-5" x1="321.96" y1="662.01" x2="321.96" y2="662.01"/><line class="cls-5" x1="322.87" y1="661.11" x2="324.13" y2="659.84"/><line class="cls-5" x1="307.5" y1="683.7" x2="307.5" y2="683.7"/><line class="cls-5" x1="308.41" y1="682.8" x2="311.12" y2="680.09"/><line class="cls-5" x1="312.02" y1="679.18" x2="312.02" y2="679.18"/><line class="cls-5" x1="312.93" y1="678.28" x2="315.64" y2="675.57"/><line class="cls-5" x1="316.54" y1="674.67" x2="316.54" y2="674.67"/><line class="cls-5" x1="317.45" y1="673.76" x2="320.16" y2="671.05"/><line class="cls-5" x1="321.06" y1="670.15" x2="321.06" y2="670.15"/><line class="cls-5" x1="321.96" y1="669.24" x2="324.13" y2="667.07"/><line class="cls-5" x1="307.5" y1="690.93" x2="310.21" y2="688.22"/><line class="cls-5" x1="311.12" y1="687.32" x2="311.12" y2="687.32"/><line class="cls-5" x1="312.02" y1="686.42" x2="314.73" y2="683.7"/><line class="cls-5" x1="315.64" y1="682.8" x2="315.64" y2="682.8"/><line class="cls-5" x1="316.54" y1="681.9" x2="319.25" y2="679.18"/><line class="cls-5" x1="320.16" y1="678.28" x2="320.16" y2="678.28"/><line class="cls-5" x1="321.06" y1="677.38" x2="323.77" y2="674.67"/><line class="cls-5" x1="307.14" y1="698.53" x2="309.31" y2="696.36"/><line class="cls-5" x1="310.21" y1="695.45" x2="310.21" y2="695.45"/><line class="cls-5" x1="311.12" y1="694.55" x2="313.83" y2="691.84"/><line class="cls-5" x1="314.73" y1="690.93" x2="314.73" y2="690.93"/><line class="cls-5" x1="315.64" y1="690.03" x2="318.35" y2="687.32"/><line class="cls-5" x1="319.25" y1="686.42" x2="319.25" y2="686.42"/><line class="cls-5" x1="320.16" y1="685.51" x2="322.87" y2="682.8"/><line class="cls-5" x1="323.77" y1="681.9" x2="323.77" y2="681.9"/><line class="cls-5" x1="307.14" y1="705.76" x2="308.41" y2="704.49"/><line class="cls-5" x1="309.31" y1="703.59" x2="309.31" y2="703.59"/><line class="cls-5" x1="310.21" y1="702.68" x2="312.93" y2="699.97"/><line class="cls-5" x1="313.83" y1="699.07" x2="313.83" y2="699.07"/><line class="cls-5" x1="314.73" y1="698.17" x2="317.45" y2="695.45"/><line class="cls-5" x1="318.35" y1="694.55" x2="318.35" y2="694.55"/><line class="cls-5" x1="319.25" y1="693.65" x2="321.96" y2="690.93"/><line class="cls-5" x1="322.87" y1="690.03" x2="322.87" y2="690.03"/><line class="cls-5" x1="323.77" y1="689.13" x2="324.13" y2="688.7"/><line class="cls-5" x1="307.14" y1="712.99" x2="307.5" y2="712.63"/><line class="cls-5" x1="308.41" y1="711.72" x2="308.41" y2="711.72"/><line class="cls-5" x1="309.31" y1="710.82" x2="312.02" y2="708.11"/><line class="cls-5" x1="312.93" y1="707.2" x2="312.93" y2="707.2"/><line class="cls-5" x1="313.83" y1="706.3" x2="316.54" y2="703.59"/><line class="cls-5" x1="317.45" y1="702.68" x2="317.45" y2="702.68"/><line class="cls-5" x1="318.35" y1="701.78" x2="321.06" y2="699.07"/><line class="cls-5" x1="321.96" y1="698.17" x2="321.96" y2="698.17"/><line class="cls-5" x1="322.87" y1="697.26" x2="324.13" y2="695.94"/><line class="cls-5" x1="310.64" y1="716.72" x2="311.12" y2="716.18"/><line class="cls-5" x1="312.02" y1="715.28" x2="312.02" y2="715.28"/><line class="cls-5" x1="312.93" y1="714.37" x2="315.64" y2="711.72"/><line class="cls-5" x1="316.54" y1="710.82" x2="316.54" y2="710.82"/><line class="cls-5" x1="317.45" y1="709.91" x2="320.16" y2="707.2"/><line class="cls-5" x1="321.06" y1="706.3" x2="321.06" y2="706.3"/><line class="cls-5" x1="321.96" y1="705.4" x2="324.13" y2="703.17"/><line class="cls-5" x1="317.87" y1="716.72" x2="319.25" y2="715.28"/><line class="cls-5" x1="320.16" y1="714.37" x2="320.16" y2="714.37"/><line class="cls-5" x1="321.06" y1="713.53" x2="323.77" y2="710.82"/><polyline class="cls-5" points="324.13 716.72 307.14 716.72 307.14 631.52 324.13 631.52 324.13 716.72"/><text class="cls-6" transform="translate(151.34 294.37)">CT</text><text class="cls-6" transform="translate(133.59 331.35)">21.22</text><text class="cls-6" transform="translate(129.9 257.96)">№190</text><polyline class="cls-7" points="121.75 340.7 121.75 231.93 212.46 231.93 212.46 340.7"/><line class="cls-7" x1="121.75" y1="268.26" x2="212.46" y2="268.26"/><line class="cls-7" x1="121.75" y1="340.7" x2="212.46" y2="340.7"/><line class="cls-7" x1="121.75" y1="304.58" x2="212.46" y2="304.58"/><text class="cls-8" transform="translate(220.11 592.42)">3.22</text><text class="cls-8" transform="translate(87.01 592.42)">3.85</text><text class="cls-8" transform="translate(91.2 402.73)">2.20</text><text class="cls-8" transform="translate(135.37 183.55)">11.95</text></svg>