<svg width="64" height="64" viewBox="0 0 64 64" fill="none" xmlns="http://www.w3.org/2000/svg">
<path d="M61.3041 1.43989C60.9898 1.07319 56.5371 3.27335 56.5371 3.27335C56.5895 3.22096 56.6419 3.16858 56.7466 3.1162C57.6372 2.53996 58.9992 1.75419 58.4753 1.12558C58.2134 0.811271 57.6372 0.968425 55.9609 2.01612C55.1751 2.48758 51.0367 4.26866 46.7412 6.1545C43.2314 7.72604 36.7881 10.5548 36.2118 11.2358L36.1595 11.2882C36.1071 11.393 36.0547 11.4977 36.0023 11.6549C35.7928 12.1787 35.5308 12.9645 35.3213 13.9074C35.3213 13.9598 35.3213 13.9598 35.3213 14.0122C35.3213 14.0646 35.3213 14.117 35.2689 14.2217C35.007 15.5314 34.7451 17.1029 34.5355 18.884C33.7498 24.2272 33.0164 32.1373 33.0164 32.1373C33.0164 32.1373 32.8068 37.5329 32.3354 40.0997C32.2306 40.5712 32.1258 40.9379 32.0211 41.1998C31.9687 41.357 31.9687 41.4618 31.9163 41.5665C31.7592 42.038 31.4972 42.5094 31.1829 42.8761C30.1876 43.9762 27.7779 43.6095 27.0969 43.5571C25.5254 43.3476 24.0062 42.2475 23.7967 41.9332C23.5872 41.6189 22.4871 40.1521 21.1251 39.995C20.706 39.9426 19.0297 40.2569 18.4535 40.2569C17.8772 40.2569 17.1438 39.4187 16.2533 39.3664C15.3628 39.2616 13.9484 40.1521 13.9484 40.1521C13.9484 40.1521 17.4058 41.4618 17.8772 42.0904C18.2963 42.6666 19.344 44.1858 20.6012 44.762C21.8585 45.3382 26.3112 50.4719 26.3112 50.4719C26.3112 50.4719 27.2017 51.4148 28.7208 52.6197C27.4112 53.0911 26.0492 53.4054 24.5825 53.5626C14.5246 54.6627 6.09068 48.0098 4.99061 38.1091C4.72868 35.9614 4.88584 33.7612 5.40968 31.7182C6.0383 29.2561 6.98122 26.8464 8.60515 24.8034C11.5911 21.0317 15.7295 18.5697 20.4965 18.0458C23.43 17.7315 26.4159 18.1506 29.1399 19.2507C29.1399 18.9364 29.0875 18.622 29.0875 18.3077C26.3635 17.26 23.3776 16.841 20.3917 17.2077C15.4675 17.7839 11.0672 20.1936 7.97653 24.0701C5.72399 26.7417 4.41438 29.9895 3.9953 33.3945C3.89053 33.866 3.89053 34.2327 3.83814 34.8089C3.73338 35.9614 3.78576 38.1615 3.89053 39.3664C4.99061 49.4242 14.0531 56.6533 24.111 55.5008C26.2588 55.2389 28.2494 54.6627 30.0828 53.7721C31.5496 54.8198 33.2783 55.9723 35.2165 56.8104C39.9312 58.9058 45.7458 59.1154 47.0555 59.2725C49.7271 59.6392 52.1892 63.0966 52.9225 63.7776C53.6559 64.4586 58.7372 63.3585 58.7372 63.3585C58.7372 63.3585 58.3705 62.3108 58.161 61.0012C57.9515 59.6916 56.4847 59.063 56.2228 58.7487C55.9609 58.4344 49.4128 55.4484 48.3651 54.7674C47.3174 54.1388 46.0078 52.7244 44.6458 50.4195C43.2838 48.1146 43.86 46.3335 44.0695 45.9144C44.3315 45.4954 44.8553 45.3906 45.1172 44.8144C45.4315 44.2381 45.1696 44.1857 45.1696 43.8714C45.1696 43.5571 45.2744 43.3476 45.5363 42.8761C45.7982 42.3523 45.6935 42.4047 45.6935 42.4047C45.6935 42.4047 45.6935 42.4047 45.7458 41.7761C45.7982 41.1474 45.7459 41.7761 45.8506 41.5665C45.9554 41.357 45.9554 41.357 45.9554 41.357C45.9554 41.357 45.903 41.0427 46.0602 40.8331C46.1649 40.6236 45.903 40.4141 45.9554 40.1521C46.0078 39.8902 46.0602 39.9426 46.1649 39.4187C46.2697 38.8949 46.2173 39.1568 46.2173 38.633C46.2697 38.1091 46.3745 38.3187 46.6364 38.0044C46.8983 37.6901 46.3745 37.271 46.3745 37.271C46.3745 37.271 46.4268 37.0091 46.8459 36.0661C47.265 35.0708 46.8459 36.0661 46.9507 35.6471C47.0555 35.228 46.7935 34.9137 46.7412 34.4946C46.6888 34.0755 46.7935 34.2327 46.8983 33.7088C47.0031 33.185 46.8983 33.7088 47.0555 33.2374C47.2126 32.7659 47.1602 32.5564 47.1602 32.5564L47.0031 31.6134C47.0031 31.6134 47.0031 31.6134 47.1602 31.3515C47.3174 31.0372 47.1602 30.5134 47.1602 30.5134L46.7412 29.3609C46.7412 29.3609 46.7412 28.8371 46.7935 28.5751C46.8459 28.3132 46.4269 27.1607 46.4269 27.1607L46.6888 26.0083L46.3221 24.332L46.0602 22.9176C46.0602 22.9176 46.0078 20.7174 46.0078 19.8793C46.0078 19.0411 46.0078 17.9934 46.1125 16.8934C46.2697 15.7409 49.5175 14.3789 49.8842 13.6979C50.1985 13.0693 47.8936 13.7503 47.8936 13.7503C47.8936 13.7503 52.032 12.5454 52.2939 12.0216C52.5035 11.6549 49.6223 12.2311 49.6223 12.2311C49.3604 12.2835 49.6223 12.2311 49.6223 12.2311C50.7224 11.9692 53.7083 11.2358 54.7036 10.3977C55.8561 9.40235 52.713 10.1357 52.1892 10.2929C52.713 10.1357 56.1704 9.19281 56.6419 8.19751C56.9038 7.62127 54.075 8.04035 54.075 8.04035C55.4894 7.67366 57.2181 7.14981 58.2658 6.62597C60.3088 5.57827 60.4135 4.7925 60.0469 4.58297C59.6278 4.37343 56.2228 5.52589 56.2228 5.52589C56.1704 5.57827 56.118 5.57827 56.0656 5.57827C56.1704 5.52589 56.2228 5.52589 56.2228 5.52589C57.2181 5.1592 58.2658 4.68774 58.8944 4.26866C60.204 3.22097 61.8279 2.12089 61.3041 1.43989ZM56.0132 3.53527C56.118 3.48289 56.3275 3.37812 56.4323 3.32573C56.2228 3.4305 56.0656 3.53527 56.0132 3.53527Z" fill="#005187"/>
<path d="M52.5035 0.0778537C52.1892 -0.288839 50.0938 0.758854 50.0938 0.758854C50.0938 0.758854 37.3119 6.94024 31.6544 10.0309C30.4495 10.7119 28.9304 11.7072 28.9304 13.6979C28.878 20.0888 30.1352 29.4656 30.7639 34.3898C31.3925 39.3139 31.8115 41.357 31.8115 41.5665C31.8639 41.4093 32.0735 40.9379 32.2306 40.0997C32.7545 37.5329 32.9116 32.1373 32.9116 32.1373C32.9116 32.1373 33.6974 24.1748 34.4308 18.8839C34.9546 15.3218 35.3737 12.4406 36.1071 11.3406C36.5785 10.6072 46.8983 6.15447 48.6794 5.31632C50.9319 4.21624 51.1939 3.90193 51.2462 3.16855C51.2986 2.43516 48.9413 3.22093 48.9413 3.22093C48.9413 3.22093 50.9843 2.12085 51.7177 1.59701C52.4511 1.12555 52.8178 0.496931 52.5035 0.0778537ZM9.86239 23.2842L13.1626 18.5696L9.129 22.6032L7.29554 15.7932L7.60985 22.708L4.20485 20.4555L7.29554 23.6509L3 24.9082L7.34792 24.6462L3.73338 29.7276L8.02892 25.432L9.81 31.7182L9.49569 25.432L12.7435 27.5274L9.60046 24.2796L13.9484 23.0747L9.86239 23.2842Z" fill="#009FE3"/>
</svg>
