<svg xmlns="http://www.w3.org/2000/svg" width="22" height="32" viewBox="0 0 22 32">
    <path fill="#475493" fill-rule="evenodd" d="M11.484 10.67c.272-.02.545.018.8.114l-.055-7.242h.908a66.984 66.984 0 0 0 .282 7.41c4.314.914 7.635 4.268 8.41 8.493.777 4.225-1.145 8.488-4.867 10.797-.054-.053-.172-.22-.281-.335-3.262-4.037-4.062-10.06-4.289-15.307.453.1.91.174 1.372.22.685 4.467 2.74 8.63 5.897 11.942 2.394-2.807 2.197-6.924-.454-9.503a10.969 10.969 0 0 0-5.261-3.039 12.414 12.414 0 0 0-2.917-.335c-.982.002-1.96.115-2.916.335C3.879 15.271.735 18.478.735 22.293a7.523 7.523 0 0 0 1.6 4.478c3.18-3.313 5.236-7.498 5.887-11.985a13.51 13.51 0 0 0 1.426-.221C9.421 19.82 8.622 25.782 5.36 29.818v-.017c-.1.157-.216.305-.345.441-3.723-2.322-5.633-6.6-4.836-10.83.797-4.229 4.143-7.57 8.47-8.46.282-5.414.227-7.41.227-7.41h.909l-.055 7.242c.237-.089.492-.125.745-.106V0h.972v10.67h.037zm.054 3.868c.118 5.026.455 11.332 2.172 15.59.172.441.454.936.69 1.377-1.1.304-2.236.47-3.38.495a13.057 13.057 0 0 1-3.37-.495c.281-.556.517-1.05.745-1.545 1.599-4.205 2.062-10.45 2.117-15.422h1.026z"/>
</svg>
