<svg xmlns="http://www.w3.org/2000/svg" width="26" height="37" viewBox="0 0 26 37">
    <path fill="#475493" fill-rule="evenodd" d="M13.6 12.08a2 2 0 0 1 .88.13l-.06-8.2h1a78 78 0 0 0 .31 8.39 12 12 0 0 1 3.9 21.84c-.06-.06-.19-.25-.31-.38-3.59-4.57-4.47-11.39-4.72-17.33a12.69 12.69 0 0 0 1.51.25A25.41 25.41 0 0 0 22.6 30.3a8 8 0 0 0-.5-10.76 12 12 0 0 0-5.79-3.44 13.3 13.3 0 0 0-3.21-.38 14.08 14.08 0 0 0-3.21.38c-4.66 1.19-8.12 4.82-8.12 9.14a8.67 8.67 0 0 0 1.76 5.07 25 25 0 0 0 6.48-13.57c.5-.06 1-.12 1.57-.25-.25 5.95-1.13 12.7-4.72 17.27v-.02a3.41 3.41 0 0 1-.38.5 12 12 0 0 1 4-21.84c.31-6.13.25-8.39.25-8.39h1l-.06 8.2c.26-.1.541-.142.82-.12V0h1.07v12.08h.04zm.06 4.38c.13 5.69.5 12.83 2.39 17.65.19.5.5 1.06.76 1.56a14.85 14.85 0 0 1-3.72.56 14 14 0 0 1-3.71-.56c.31-.63.57-1.19.82-1.75 1.76-4.76 2.27-11.83 2.33-17.46h1.13z"/>
</svg>
