<svg id="_401" data-name="401" xmlns="http://www.w3.org/2000/svg" viewBox="0 0 337.86 715.37"><defs><style>.cls-1{isolation:isolate;font-size:12px;fill:#969696;}.cls-1,.cls-4,.cls-5{font-family:PTSans-Regular, PT Sans;}.cls-2{letter-spacing:-0.01em;}.cls-3,.cls-6,.cls-7,.cls-8{fill:none;stroke-linecap:round;stroke-linejoin:round;}.cls-3{stroke:#969696;stroke-width:0.75px;}.cls-4{font-size:24px;}.cls-5{font-size:28px;}.cls-6,.cls-8{stroke:#000;}.cls-6{stroke-width:0.5px;}.cls-7{stroke:#7d7d7d;stroke-width:0.8px;stroke-dasharray:4 4;}</style></defs><title>4floor_401flat</title><text class="cls-1" transform="translate(160.79 711.72)"><tspan class="cls-2">у</tspan><tspan x="5.42" y="0">лица</tspan></text><line class="cls-3" x1="150.03" y1="715" x2="150.03" y2="706.2"/><polyline class="cls-3" points="146.53 711.5 150.03 715 153.53 711.5"/><text class="cls-4" transform="translate(140.67 546.43)">11.11</text><text class="cls-4" transform="translate(225.88 129.48)">3.82</text><text class="cls-4" transform="translate(82.49 129.48)">3.75</text><text class="cls-4" transform="translate(90.77 349.43)">2.29</text><text class="cls-5" transform="translate(226.59 414.93)">CT</text><text class="cls-5" transform="translate(208.84 451.9)">20.97</text><text class="cls-5" transform="translate(205.14 378.51)">№401</text><polyline class="cls-6" points="197 461.25 197 352.49 287.71 352.49 287.71 461.25"/><line class="cls-6" x1="197" y1="388.81" x2="287.71" y2="388.81"/><line class="cls-6" x1="197" y1="461.25" x2="287.71" y2="461.25"/><line class="cls-6" x1="197" y1="425.14" x2="287.71" y2="425.14"/><polyline class="cls-7" points="18.6 271.88 18.6 379.55 176.25 379.55 176.25 271.88 18.6 271.88"/><line class="cls-8" x1="10.21" y1="623.37" x2="20.52" y2="613.01"/><line class="cls-8" x1="23.88" y1="623.37" x2="34.24" y2="613.01"/><line class="cls-8" x1="37.61" y1="623.37" x2="47.96" y2="613.01"/><line class="cls-8" x1="51.33" y1="623.37" x2="58.27" y2="616.43"/><line class="cls-8" x1="5.65" y1="623.37" x2="15.96" y2="613.01"/><line class="cls-8" x1="19.33" y1="623.37" x2="29.68" y2="613.01"/><line class="cls-8" x1="33.05" y1="623.37" x2="43.36" y2="613.01"/><line class="cls-8" x1="46.72" y1="623.37" x2="57.08" y2="613.01"/><line class="cls-8" x1="260.72" y1="619.59" x2="267.24" y2="613.01"/><line class="cls-8" x1="270.61" y1="623.37" x2="280.97" y2="613.01"/><line class="cls-8" x1="284.33" y1="623.37" x2="294.64" y2="613.01"/><line class="cls-8" x1="298" y1="623.37" x2="308.36" y2="613.01"/><line class="cls-8" x1="311.73" y1="623.37" x2="322.09" y2="613.01"/><line class="cls-8" x1="260.72" y1="614.98" x2="262.68" y2="613.01"/><line class="cls-8" x1="266.05" y1="623.37" x2="276.41" y2="613.01"/><line class="cls-8" x1="279.77" y1="623.37" x2="290.08" y2="613.01"/><line class="cls-8" x1="293.45" y1="623.37" x2="303.8" y2="613.01"/><line class="cls-8" x1="307.17" y1="623.37" x2="317.48" y2="613.01"/><line class="cls-8" x1="2.8" y1="612.13" x2="9.54" y2="605.4"/><line class="cls-8" x1="12.59" y1="602.4" x2="21.76" y2="593.23"/><line class="cls-8" x1="24.76" y1="590.17" x2="33.93" y2="581.06"/><line class="cls-8" x1="36.99" y1="578" x2="37.3" y2="577.69"/><line class="cls-8" x1="38.13" y1="612.13" x2="39.42" y2="610.89"/><line class="cls-8" x1="42.48" y1="607.83" x2="51.59" y2="598.72"/><line class="cls-8" x1="54.65" y1="595.66" x2="54.8" y2="595.51"/><line class="cls-8" x1="18.6" y1="578.68" x2="19.01" y2="578.31"/><line class="cls-8" x1="20.46" y1="612.13" x2="24.5" y2="608.14"/><line class="cls-8" x1="27.51" y1="605.09" x2="36.67" y2="595.97"/><line class="cls-8" x1="39.73" y1="592.92" x2="48.85" y2="583.8"/><line class="cls-8" x1="51.9" y1="580.75" x2="54.8" y2="577.85"/><line class="cls-8" x1="264.13" y1="598.15" x2="267.24" y2="595.04"/><line class="cls-8" x1="270.3" y1="592.04" x2="279.41" y2="582.87"/><line class="cls-8" x1="282.47" y1="579.82" x2="284.59" y2="577.69"/><line class="cls-8" x1="287.96" y1="609.7" x2="297.07" y2="600.53"/><line class="cls-8" x1="300.13" y1="597.48" x2="309.24" y2="588.36"/><line class="cls-8" x1="312.3" y1="585.3" x2="319.91" y2="577.69"/><line class="cls-8" x1="320.79" y1="612.13" x2="326.9" y2="606.02"/><line class="cls-8" x1="337.36" y1="612.13" x2="337.36" y2="611.51"/><line class="cls-8" x1="264.13" y1="580.49" x2="264.5" y2="580.13"/><line class="cls-8" x1="267.81" y1="612.13" x2="269.99" y2="610.01"/><line class="cls-8" x1="273.04" y1="606.95" x2="282.16" y2="597.79"/><line class="cls-8" x1="285.21" y1="594.78" x2="294.33" y2="585.62"/><line class="cls-8" x1="297.38" y1="582.56" x2="302.25" y2="577.69"/><line class="cls-8" x1="303.13" y1="612.13" x2="311.99" y2="603.28"/><line class="cls-8" x1="315.04" y1="600.22" x2="320.38" y2="594.94"/><line class="cls-8" x1="1.41" y1="613.01" x2="58.27" y2="613.01"/><line class="cls-8" x1="260.72" y1="613.01" x2="337.36" y2="613.01"/><line class="cls-8" x1="1.41" y1="612.13" x2="54.8" y2="612.13"/><line class="cls-8" x1="264.13" y1="612.13" x2="337.36" y2="612.13"/><line class="cls-8" x1="264.13" y1="607" x2="264.13" y2="577.69"/><line class="cls-8" x1="260.72" y1="613.01" x2="260.72" y2="612.13"/><line class="cls-8" x1="260.72" y1="623.37" x2="260.72" y2="613.01"/><line class="cls-8" x1="260.72" y1="612.13" x2="264.13" y2="612.13"/><line class="cls-8" x1="264.13" y1="612.13" x2="264.13" y2="607"/><line class="cls-8" x1="54.8" y1="607" x2="54.8" y2="577.69"/><line class="cls-8" x1="58.27" y1="613.01" x2="58.27" y2="612.13"/><line class="cls-8" x1="58.27" y1="623.37" x2="58.27" y2="613.01"/><line class="cls-8" x1="58.27" y1="612.13" x2="54.8" y2="612.13"/><line class="cls-8" x1="54.8" y1="612.13" x2="54.8" y2="607"/><line class="cls-8" x1="337.36" y1="612.13" x2="337.36" y2="612.13"/><line class="cls-8" x1="337.36" y1="623.37" x2="337.36" y2="591.12"/><line class="cls-8" x1="337.36" y1="613.01" x2="337.36" y2="613.01"/><line class="cls-8" x1="320.12" y1="577.69" x2="264.13" y2="577.69"/><line class="cls-8" x1="54.8" y1="577.69" x2="18.6" y2="577.69"/><polyline class="cls-8" points="58.27 623.37 1.41 623.37 1.41 582.56"/><line class="cls-8" x1="260.72" y1="623.37" x2="337.36" y2="623.37"/><line class="cls-8" x1="58.27" y1="623.37" x2="260.72" y2="623.37"/><line class="cls-8" x1="54.8" y1="577.69" x2="264.13" y2="577.69"/><polyline class="cls-8" points="54.8 607 59.51 607 59.51 610.42 61.69 610.42 61.69 612.13 54.8 612.13"/><polyline class="cls-8" points="125.75 612.13 122.28 612.13 122.28 610.42 124.46 610.42 124.46 607 125.75 607"/><line class="cls-8" x1="122.28" y1="612.13" x2="61.69" y2="612.13"/><polyline class="cls-8" points="59.51 605.24 64.69 605.24 119.28 605.24"/><polyline class="cls-8" points="64.69 605.24 64.69 610.42 59.51 610.42 59.51 605.24"/><polyline class="cls-8" points="124.46 610.42 119.28 610.42 119.28 605.24 124.46 605.24 124.46 610.42"/><line class="cls-8" x1="119.28" y1="610.42" x2="64.69" y2="610.42"/><line class="cls-8" x1="64.69" y1="605.24" x2="119.28" y2="605.24"/><line class="cls-8" x1="64.69" y1="607.83" x2="119.28" y2="607.83"/><polyline class="cls-8" points="125.75 607 127.05 607 127.05 610.42 129.17 610.42 129.17 612.13 125.75 612.13"/><polyline class="cls-8" points="193.23 612.13 189.76 612.13 189.76 610.42 191.94 610.42 191.94 607 193.23 607"/><line class="cls-8" x1="189.76" y1="612.13" x2="129.17" y2="612.13"/><polyline class="cls-8" points="127.05 605.24 132.17 605.24 186.76 605.24"/><polyline class="cls-8" points="132.17 605.24 132.17 610.42 127.05 610.42 127.05 605.24"/><polyline class="cls-8" points="191.94 610.42 186.76 610.42 186.76 605.24 191.94 605.24 191.94 610.42"/><line class="cls-8" x1="186.76" y1="610.42" x2="132.17" y2="610.42"/><line class="cls-8" x1="132.17" y1="605.24" x2="186.76" y2="605.24"/><line class="cls-8" x1="132.17" y1="607.83" x2="186.76" y2="607.83"/><polyline class="cls-8" points="193.23 607 194.53 607 194.53 610.42 196.65 610.42 196.65 612.13 193.23 612.13"/><polyline class="cls-8" points="264.13 612.13 257.25 612.13 257.25 610.42 259.42 610.42 259.42 607 264.13 607"/><line class="cls-8" x1="257.25" y1="612.13" x2="196.65" y2="612.13"/><polyline class="cls-8" points="194.53 605.24 199.66 605.24 254.24 605.24"/><polyline class="cls-8" points="199.66 605.24 199.66 610.42 194.53 610.42 194.53 605.24"/><polyline class="cls-8" points="259.42 610.42 254.24 610.42 254.24 605.24 259.42 605.24 259.42 610.42"/><line class="cls-8" x1="254.24" y1="610.42" x2="199.66" y2="610.42"/><line class="cls-8" x1="199.66" y1="605.24" x2="254.24" y2="605.24"/><line class="cls-8" x1="199.66" y1="607.83" x2="254.24" y2="607.83"/><polyline class="cls-8" points="54.8 607 54.8 612.13 54.8 607"/><polyline class="cls-8" points="54.8 612.13 58.27 612.13 54.8 612.13"/><polyline class="cls-8" points="58.27 623.37 58.27 613.01 58.27 612.13"/><line class="cls-8" x1="54.8" y1="607" x2="54.8" y2="577.69"/><polyline class="cls-8" points="264.13 607 264.13 612.13 264.13 607"/><polyline class="cls-8" points="264.13 612.13 260.71 612.13 264.13 612.13"/><polyline class="cls-8" points="260.71 623.37 260.71 613.01 260.71 612.13"/><line class="cls-8" x1="264.13" y1="607" x2="264.13" y2="577.69"/><line class="cls-8" x1="22.95" y1="323.56" x2="70.29" y2="323.56"/><line class="cls-8" x1="70.29" y1="323.56" x2="70.29" y2="276.17"/><line class="cls-8" x1="70.29" y1="276.17" x2="22.95" y2="276.17"/><line class="cls-8" x1="22.95" y1="276.17" x2="22.95" y2="323.56"/><line class="cls-8" x1="27.25" y1="319.26" x2="65.99" y2="319.26"/><line class="cls-8" x1="65.99" y1="319.26" x2="65.99" y2="284.77"/><line class="cls-8" x1="65.99" y1="284.77" x2="27.25" y2="284.77"/><line class="cls-8" x1="27.25" y1="284.77" x2="27.25" y2="319.26"/><line class="cls-8" x1="109.39" y1="30.64" x2="155.89" y2="30.64"/><line class="cls-8" x1="155.89" y1="30.64" x2="155.89" y2="50.32"/><line class="cls-8" x1="109.39" y1="30.64" x2="109.39" y2="50.32"/><line class="cls-8" x1="139.99" y1="30.64" x2="125.34" y2="30.64"/><line class="cls-8" x1="136.58" y1="46.44" x2="134.09" y2="46.44"/><line class="cls-8" x1="132.64" y1="42.5" x2="132.64" y2="44.99"/><line class="cls-8" x1="131.19" y1="46.44" x2="128.7" y2="46.44"/><line class="cls-8" x1="132.64" y1="47.89" x2="132.64" y2="50.37"/><path class="cls-8" d="M120.28,41.73a20.66,20.66,0,0,0-8,9.8"/><path class="cls-8" d="M132.62,38.79a20.76,20.76,0,0,0-12.36,2.9"/><path class="cls-8" d="M153.05,51.53a20.74,20.74,0,0,0-8.05-9.8"/><path class="cls-8" d="M145,41.69a20.76,20.76,0,0,0-12.36-2.9"/><path class="cls-8" d="M116.89,62A38.31,38.31,0,0,0,131,65.86"/><path class="cls-8" d="M151.47,60a11.84,11.84,0,0,0,4.41-9.73"/><path class="cls-8" d="M131,65.9a22,22,0,0,0,3.25,0"/><path class="cls-8" d="M145.63,42.47a84.84,84.84,0,0,0-26,0"/><path class="cls-8" d="M154.65,53.33a29.23,29.23,0,0,0-6.6-19"/><path class="cls-8" d="M146,33a57.8,57.8,0,0,0-13.31-1.43"/><path class="cls-8" d="M148.08,34.34A3.8,3.8,0,0,0,146,33"/><path class="cls-8" d="M145.73,34.33a99.31,99.31,0,0,0-13.12-.94"/><path class="cls-8" d="M154.7,53.33a26.26,26.26,0,0,0-6.56-17.72"/><path class="cls-8" d="M148.09,35.63a3.79,3.79,0,0,0-2.36-1.27"/><path class="cls-8" d="M117.17,35.58a26.27,26.27,0,0,0-6.59,17.72"/><path class="cls-8" d="M117.2,34.3a29.26,29.26,0,0,0-6.62,19"/><path class="cls-8" d="M132.65,33.39a101,101,0,0,0-13.11.92"/><path class="cls-8" d="M132.67,31.58A57.94,57.94,0,0,0,119.35,33"/><path class="cls-8" d="M119.56,34.35a3.89,3.89,0,0,0-2.37,1.27"/><path class="cls-8" d="M119.34,33a3.92,3.92,0,0,0-2.14,1.32"/><path class="cls-8" d="M109.35,50.31A11.78,11.78,0,0,0,113.76,60"/><path class="cls-8" d="M113.82,60a18.25,18.25,0,0,0,3.08,2"/><path class="cls-8" d="M148.38,62a18.25,18.25,0,0,0,3.08-2"/><path class="cls-8" d="M134.23,65.86A38.31,38.31,0,0,0,148.34,62"/><path class="cls-8" d="M126.22,62.56a27.37,27.37,0,0,0,12.79,0"/><path class="cls-8" d="M112.25,51.53a7,7,0,0,0,2.4,5.75"/><path class="cls-8" d="M114.61,57.3a25.24,25.24,0,0,0,11.6,5.33"/><path class="cls-8" d="M150.63,57.28a7,7,0,0,0,2.4-5.75"/><path class="cls-8" d="M139,62.63a25.24,25.24,0,0,0,11.6-5.33"/><path class="cls-8" d="M135.64,46.41a3,3,0,1,0-3,3,3,3,0,0,0,3-3"/><path class="cls-8" d="M134.76,46.41a2.15,2.15,0,1,0-2.15,2.15,2.15,2.15,0,0,0,2.15-2.15"/><line class="cls-8" x1="31.86" y1="164.62" x2="62.26" y2="164.62"/><line class="cls-8" x1="18.6" y1="163.33" x2="18.6" y2="196.06"/><line class="cls-8" x1="18.6" y1="163.33" x2="30.05" y2="163.33"/><line class="cls-8" x1="37.19" y1="179.69" x2="37.19" y2="191.81"/><line class="cls-8" x1="62.26" y1="164.62" x2="37.19" y2="167.57"/><line class="cls-8" x1="37.19" y1="179.69" x2="37.19" y2="167.57"/><line class="cls-8" x1="62.26" y1="194.76" x2="37.19" y2="191.81"/><line class="cls-8" x1="62.26" y1="165.4" x2="37.19" y2="168.3"/><line class="cls-8" x1="62.26" y1="193.98" x2="37.19" y2="191.03"/><line class="cls-8" x1="31.86" y1="194.76" x2="62.26" y2="194.76"/><line class="cls-8" x1="18.6" y1="196.06" x2="30.05" y2="196.06"/><line class="cls-8" x1="62.26" y1="164.62" x2="65.63" y2="165.03"/><line class="cls-8" x1="65.63" y1="165.03" x2="68.78" y2="166.33"/><line class="cls-8" x1="68.78" y1="166.33" x2="71.58" y2="168.4"/><line class="cls-8" x1="71.58" y1="168.4" x2="73.86" y2="171.09"/><line class="cls-8" x1="73.86" y1="171.09" x2="75.41" y2="174.36"/><line class="cls-8" x1="75.41" y1="174.36" x2="76.24" y2="177.88"/><line class="cls-8" x1="76.24" y1="177.88" x2="76.24" y2="181.5"/><line class="cls-8" x1="76.24" y1="181.5" x2="75.41" y2="185.03"/><line class="cls-8" x1="75.41" y1="185.03" x2="73.86" y2="188.24"/><line class="cls-8" x1="73.86" y1="188.24" x2="71.58" y2="190.98"/><line class="cls-8" x1="71.58" y1="190.98" x2="68.78" y2="193.05"/><line class="cls-8" x1="68.78" y1="193.05" x2="65.63" y2="194.35"/><line class="cls-8" x1="65.63" y1="194.35" x2="62.26" y2="194.76"/><line class="cls-8" x1="62.26" y1="165.4" x2="65.42" y2="165.81"/><line class="cls-8" x1="65.42" y1="165.81" x2="68.42" y2="167"/><line class="cls-8" x1="68.42" y1="167" x2="71.06" y2="168.97"/><line class="cls-8" x1="71.06" y1="168.97" x2="73.19" y2="171.56"/><line class="cls-8" x1="73.19" y1="171.56" x2="74.69" y2="174.62"/><line class="cls-8" x1="74.69" y1="174.62" x2="75.47" y2="177.98"/><line class="cls-8" x1="75.47" y1="177.98" x2="75.47" y2="181.4"/><line class="cls-8" x1="75.47" y1="181.4" x2="74.69" y2="184.77"/><line class="cls-8" x1="74.69" y1="184.77" x2="73.19" y2="187.82"/><line class="cls-8" x1="73.19" y1="187.82" x2="71.06" y2="190.41"/><line class="cls-8" x1="71.06" y1="190.41" x2="68.42" y2="192.33"/><line class="cls-8" x1="68.42" y1="192.33" x2="65.42" y2="193.57"/><line class="cls-8" x1="65.42" y1="193.57" x2="62.26" y2="193.98"/><path class="cls-8" d="M31.91,194.33a138.34,138.34,0,0,0,0-29.34"/><path class="cls-8" d="M32,165A1.92,1.92,0,0,0,30,163.33"/><path class="cls-8" d="M30,196A1.91,1.91,0,0,0,32,194.3"/><path class="cls-8" d="M24.14,179.67a1.63,1.63,0,1,0,1.63-1.58,1.6,1.6,0,0,0-1.63,1.58"/><line class="cls-8" x1="31.39" y1="50.48" x2="36.31" y2="50.48"/><line class="cls-8" x1="38.44" y1="48.3" x2="38.44" y2="43.43"/><line class="cls-8" x1="40.56" y1="50.48" x2="45.48" y2="50.48"/><line class="cls-8" x1="38.44" y1="57.52" x2="38.44" y2="52.6"/><line class="cls-8" x1="23.78" y1="103.87" x2="44.44" y2="103.87"/><line class="cls-8" x1="43.61" y1="34.94" x2="91" y2="34.94"/><line class="cls-8" x1="91.83" y1="56.48" x2="91.83" y2="35.82"/><line class="cls-8" x1="23.78" y1="103.87" x2="44.44" y2="103.87"/><line class="cls-8" x1="22.95" y1="102.99" x2="22.95" y2="55.66"/><line class="cls-8" x1="19.48" y1="108.17" x2="44.44" y2="108.17"/><line class="cls-8" x1="19.48" y1="30.64" x2="95.3" y2="30.64"/><line class="cls-8" x1="96.13" y1="56.48" x2="96.13" y2="31.52"/><line class="cls-8" x1="18.6" y1="107.34" x2="18.6" y2="31.52"/><path class="cls-8" d="M23.12,54.26a4.23,4.23,0,0,0-.22,1.37"/><path class="cls-8" d="M22.9,103a.85.85,0,0,0,.85.85"/><path class="cls-8" d="M23.12,54.26a4.23,4.23,0,0,0-.22,1.37"/><path class="cls-8" d="M44.42,108.17A51.71,51.71,0,0,0,96.13,56.46"/><path class="cls-8" d="M18.6,107.32a.85.85,0,0,0,.85.85"/><path class="cls-8" d="M44.42,103.82A47.36,47.36,0,0,0,91.78,56.46"/><path class="cls-8" d="M96.13,31.5a.85.85,0,0,0-.86-.86"/><path class="cls-8" d="M91.83,35.79a.85.85,0,0,0-.85-.85"/><path class="cls-8" d="M19.45,30.64a.85.85,0,0,0-.85.86"/><path class="cls-8" d="M42.76,35A46.49,46.49,0,0,0,23,54.8"/><path class="cls-8" d="M43.59,34.89a4.33,4.33,0,0,0-1.38.22"/><path class="cls-8" d="M42.24,35.16A30.34,30.34,0,0,0,23.12,54.28"/><path class="cls-8" d="M43.59,34.89a4.33,4.33,0,0,0-1.38.22"/><path class="cls-8" d="M38.41,54.31a3.86,3.86,0,1,0-3.86-3.86,3.86,3.86,0,0,0,3.86,3.86"/><path class="cls-8" d="M38.41,55.86A5.41,5.41,0,1,0,33,50.45a5.41,5.41,0,0,0,5.41,5.41"/><line class="cls-8" x1="1.41" y1="163.33" x2="1.41" y2="196.06"/><line class="cls-8" x1="1.41" y1="133.18" x2="1.41" y2="57.36"/><path class="cls-8" d="M.5,134a.85.85,0,0,0,.85-.85"/><line class="cls-7" x1="191.63" y1="221.9" x2="271.02" y2="221.9"/><line class="cls-7" x1="191.63" y1="215.01" x2="271.02" y2="215.01"/><line class="cls-7" x1="176.25" y1="148.67" x2="176.25" y2="88.33"/><line class="cls-7" x1="169.36" y1="148.67" x2="169.36" y2="88.33"/><polyline class="cls-8" points="260.71 625.49 260.25 625.49 260.25 672.88 260.71 672.88 260.71 625.49"/><polyline class="cls-8" points="258.95 674.59 258.95 674.17 179.72 674.17 179.72 674.59 258.95 674.59"/><polyline class="cls-8" points="178.01 672.88 178.42 672.88 178.42 625.49 178.01 625.49 178.01 672.88"/><polyline class="cls-8" points="261.13 623.37 258.95 623.37 258.95 625.49 261.13 625.49 261.13 623.37"/><polyline class="cls-8" points="261.13 672.88 258.95 672.88 258.95 675.06 261.13 675.06 261.13 672.88"/><polyline class="cls-8" points="179.72 675.06 179.72 672.88 177.54 672.88 177.54 675.06 179.72 675.06"/><polyline class="cls-8" points="177.54 625.49 179.72 625.49 179.72 623.37 177.54 623.37 177.54 625.49"/><line class="cls-8" x1="258.95" y1="624.41" x2="258.95" y2="672.88"/><line class="cls-8" x1="261.13" y1="675.06" x2="261.13" y2="624.41"/><line class="cls-8" x1="258.95" y1="672.88" x2="179.72" y2="672.88"/><line class="cls-8" x1="177.54" y1="675.06" x2="261.13" y2="675.06"/><line class="cls-8" x1="179.72" y1="672.88" x2="179.72" y2="624.41"/><line class="cls-8" x1="177.54" y1="624.41" x2="177.54" y2="675.06"/><polyline class="cls-8" points="261.13 624.41 261.13 623.37 258.95 623.37 258.95 624.41"/><polyline class="cls-8" points="179.72 624.41 179.72 623.37 177.54 623.37 177.54 624.41"/><polyline class="cls-8" points="177.54 675.06 261.13 675.06 261.13 624.41 258.95 624.41 258.95 672.88 179.72 672.88 179.72 624.41 177.54 624.41 177.54 675.06"/><polyline class="cls-8" points="181.89 659.52 256.83 659.52 256.83 631.97 181.89 631.97 181.89 659.52"/><polyline class="cls-8" points="181.89 656.77 256.83 656.77 256.83 631.97 181.89 631.97 181.89 656.77"/><line class="cls-8" x1="8.81" y1="233.09" x2="8.19" y2="232.46"/><line class="cls-8" x1="5.91" y1="230.19" x2="1.41" y2="225.68"/><line class="cls-8" x1="18.08" y1="217.96" x2="11.25" y2="211.13"/><line class="cls-8" x1="8.97" y1="208.85" x2="2.08" y2="202.01"/><line class="cls-8" x1="18.6" y1="194.14" x2="14.25" y2="189.79"/><line class="cls-8" x1="11.97" y1="187.51" x2="5.14" y2="180.68"/><line class="cls-8" x1="2.86" y1="178.4" x2="1.41" y2="176.95"/><line class="cls-8" x1="18.6" y1="169.8" x2="17.31" y2="168.5"/><line class="cls-8" x1="15.03" y1="166.23" x2="8.19" y2="159.34"/><line class="cls-8" x1="5.91" y1="157.06" x2="1.41" y2="152.55"/><line class="cls-8" x1="18.08" y1="144.89" x2="11.25" y2="138.05"/><line class="cls-8" x1="8.97" y1="135.77" x2="2.08" y2="128.89"/><line class="cls-8" x1="18.6" y1="121.07" x2="14.25" y2="116.72"/><line class="cls-8" x1="11.97" y1="114.44" x2="5.14" y2="107.6"/><line class="cls-8" x1="2.86" y1="105.27" x2="1.41" y2="103.82"/><line class="cls-8" x1="18.6" y1="96.67" x2="17.31" y2="95.38"/><line class="cls-8" x1="15.03" y1="93.1" x2="8.55" y2="86.63"/><line class="cls-8" x1="16.58" y1="228.63" x2="9.69" y2="221.8"/><line class="cls-8" x1="7.41" y1="219.52" x2="1.41" y2="213.46"/><line class="cls-8" x1="18.6" y1="206.36" x2="12.75" y2="200.46"/><line class="cls-8" x1="10.47" y1="198.18" x2="3.63" y2="191.34"/><line class="cls-8" x1="18.6" y1="181.97" x2="15.8" y2="179.17"/><line class="cls-8" x1="13.53" y1="176.84" x2="6.64" y2="170.01"/><line class="cls-8" x1="4.36" y1="167.73" x2="1.41" y2="164.72"/><line class="cls-8" x1="16.58" y1="155.56" x2="9.69" y2="148.67"/><line class="cls-8" x1="7.41" y1="146.39" x2="1.41" y2="140.38"/><line class="cls-8" x1="18.6" y1="133.24" x2="12.75" y2="127.38"/><line class="cls-8" x1="10.47" y1="125.11" x2="3.63" y2="118.22"/><line class="cls-8" x1="18.6" y1="108.9" x2="15.8" y2="106.05"/><line class="cls-8" x1="13.53" y1="103.77" x2="6.64" y2="96.93"/><line class="cls-8" x1="4.36" y1="94.65" x2="1.41" y2="91.65"/><line class="cls-8" x1="16.48" y1="508.76" x2="11.25" y2="503.53"/><line class="cls-8" x1="8.97" y1="501.25" x2="2.08" y2="494.41"/><line class="cls-8" x1="18.6" y1="486.54" x2="14.25" y2="482.19"/><line class="cls-8" x1="11.97" y1="479.91" x2="5.14" y2="473.08"/><line class="cls-8" x1="2.86" y1="470.8" x2="1.41" y2="469.35"/><line class="cls-8" x1="18.6" y1="462.2" x2="17.31" y2="460.91"/><line class="cls-8" x1="15.03" y1="458.63" x2="8.19" y2="451.74"/><line class="cls-8" x1="5.91" y1="449.46" x2="1.41" y2="444.96"/><line class="cls-8" x1="18.08" y1="437.29" x2="11.25" y2="430.45"/><line class="cls-8" x1="8.97" y1="428.12" x2="2.08" y2="421.29"/><line class="cls-8" x1="18.6" y1="413.47" x2="14.25" y2="409.12"/><line class="cls-8" x1="11.97" y1="406.84" x2="5.14" y2="399.95"/><line class="cls-8" x1="2.86" y1="397.67" x2="1.41" y2="396.22"/><line class="cls-8" x1="18.6" y1="389.08" x2="17.31" y2="387.78"/><line class="cls-8" x1="15.03" y1="385.5" x2="8.19" y2="378.67"/><line class="cls-8" x1="5.91" y1="376.39" x2="1.41" y2="371.88"/><line class="cls-8" x1="18.08" y1="364.16" x2="11.25" y2="357.33"/><line class="cls-8" x1="8.97" y1="355.05" x2="2.08" y2="348.21"/><line class="cls-8" x1="18.6" y1="340.34" x2="14.72" y2="336.46"/><line class="cls-8" x1="4.31" y1="508.76" x2="1.41" y2="505.86"/><line class="cls-8" x1="18.6" y1="498.76" x2="12.75" y2="492.86"/><line class="cls-8" x1="10.47" y1="490.58" x2="3.63" y2="483.75"/><line class="cls-8" x1="18.6" y1="474.37" x2="15.8" y2="471.58"/><line class="cls-8" x1="13.53" y1="469.25" x2="6.64" y2="462.41"/><line class="cls-8" x1="4.36" y1="460.13" x2="1.41" y2="457.13"/><line class="cls-8" x1="16.58" y1="447.96" x2="9.69" y2="441.07"/><line class="cls-8" x1="7.41" y1="438.79" x2="1.41" y2="432.79"/><line class="cls-8" x1="18.6" y1="425.64" x2="12.75" y2="419.79"/><line class="cls-8" x1="10.47" y1="417.51" x2="3.63" y2="410.62"/><line class="cls-8" x1="18.6" y1="401.3" x2="15.8" y2="398.45"/><line class="cls-8" x1="13.53" y1="396.17" x2="6.64" y2="389.33"/><line class="cls-8" x1="4.36" y1="387.06" x2="1.41" y2="384.05"/><line class="cls-8" x1="16.58" y1="374.83" x2="9.69" y2="368"/><line class="cls-8" x1="7.41" y1="365.72" x2="1.41" y2="359.66"/><line class="cls-8" x1="18.6" y1="352.56" x2="12.75" y2="346.66"/><line class="cls-8" x1="10.47" y1="344.38" x2="3.63" y2="337.54"/><line class="cls-8" x1="1.41" y1="86.63" x2="1.41" y2="233.09"/><line class="cls-8" x1="1.41" y1="336.46" x2="1.41" y2="508.76"/><line class="cls-8" x1="18.6" y1="508.76" x2="18.6" y2="336.46"/><line class="cls-8" x1="18.6" y1="233.09" x2="18.6" y2="86.63"/><line class="cls-8" x1="325.61" y1="233.09" x2="321.88" y2="229.41"/><line class="cls-8" x1="337.36" y1="220.5" x2="334.1" y2="217.24"/><line class="cls-8" x1="331.82" y1="214.96" x2="324.93" y2="208.07"/><line class="cls-8" x1="322.66" y1="205.79" x2="320.12" y2="203.26"/><line class="cls-8" x1="337.36" y1="196.16" x2="337.16" y2="195.9"/><line class="cls-8" x1="334.83" y1="193.62" x2="327.99" y2="186.79"/><line class="cls-8" x1="325.71" y1="184.51" x2="320.12" y2="178.91"/><line class="cls-8" x1="337.36" y1="171.77" x2="331.05" y2="165.45"/><line class="cls-8" x1="328.77" y1="163.17" x2="321.88" y2="156.33"/><line class="cls-8" x1="337.36" y1="147.43" x2="334.1" y2="144.11"/><line class="cls-8" x1="331.82" y1="141.83" x2="324.93" y2="135"/><line class="cls-8" x1="322.66" y1="132.72" x2="320.12" y2="130.18"/><line class="cls-8" x1="337.36" y1="123.03" x2="337.16" y2="122.83"/><line class="cls-8" x1="334.83" y1="120.5" x2="327.99" y2="113.66"/><line class="cls-8" x1="325.71" y1="111.38" x2="320.12" y2="105.79"/><line class="cls-8" x1="337.36" y1="98.69" x2="331.05" y2="92.32"/><line class="cls-8" x1="328.77" y1="90.04" x2="325.35" y2="86.63"/><line class="cls-8" x1="337.36" y1="232.67" x2="332.55" y2="227.91"/><line class="cls-8" x1="330.27" y1="225.58" x2="323.43" y2="218.74"/><line class="cls-8" x1="321.15" y1="216.46" x2="320.12" y2="215.48"/><line class="cls-8" x1="337.36" y1="208.33" x2="335.6" y2="206.57"/><line class="cls-8" x1="333.32" y1="204.29" x2="326.49" y2="197.4"/><line class="cls-8" x1="324.21" y1="195.12" x2="320.12" y2="191.08"/><line class="cls-8" x1="336.38" y1="182.95" x2="329.49" y2="176.12"/><line class="cls-8" x1="327.21" y1="173.84" x2="320.38" y2="166.95"/><line class="cls-8" x1="337.36" y1="159.6" x2="332.55" y2="154.78"/><line class="cls-8" x1="330.27" y1="152.5" x2="323.43" y2="145.67"/><line class="cls-8" x1="321.15" y1="143.39" x2="320.12" y2="142.35"/><line class="cls-8" x1="337.36" y1="135.2" x2="335.6" y2="133.44"/><line class="cls-8" x1="333.32" y1="131.16" x2="326.49" y2="124.33"/><line class="cls-8" x1="324.21" y1="122.05" x2="320.12" y2="118.01"/><line class="cls-8" x1="336.38" y1="109.88" x2="329.49" y2="102.99"/><line class="cls-8" x1="327.21" y1="100.71" x2="320.38" y2="93.88"/><line class="cls-8" x1="331.82" y1="507.36" x2="324.93" y2="500.47"/><line class="cls-8" x1="322.66" y1="498.2" x2="320.12" y2="495.66"/><line class="cls-8" x1="337.36" y1="488.56" x2="337.16" y2="488.3"/><line class="cls-8" x1="334.83" y1="486.02" x2="327.99" y2="479.19"/><line class="cls-8" x1="325.71" y1="476.86" x2="320.12" y2="471.32"/><line class="cls-8" x1="337.36" y1="464.17" x2="331.05" y2="457.85"/><line class="cls-8" x1="328.77" y1="455.57" x2="321.88" y2="448.68"/><line class="cls-8" x1="337.36" y1="439.83" x2="334.1" y2="436.51"/><line class="cls-8" x1="331.82" y1="434.24" x2="324.93" y2="427.4"/><line class="cls-8" x1="322.66" y1="425.12" x2="320.12" y2="422.58"/><line class="cls-8" x1="337.36" y1="415.44" x2="337.16" y2="415.23"/><line class="cls-8" x1="334.83" y1="412.9" x2="327.99" y2="406.06"/><line class="cls-8" x1="325.71" y1="403.78" x2="320.12" y2="398.19"/><line class="cls-8" x1="337.36" y1="391.09" x2="331.05" y2="384.72"/><line class="cls-8" x1="328.77" y1="382.45" x2="321.88" y2="375.61"/><line class="cls-8" x1="337.36" y1="366.7" x2="334.1" y2="363.44"/><line class="cls-8" x1="331.82" y1="361.16" x2="324.93" y2="354.27"/><line class="cls-8" x1="322.66" y1="351.99" x2="320.12" y2="349.46"/><line class="cls-8" x1="337.36" y1="342.36" x2="337.16" y2="342.1"/><line class="cls-8" x1="334.83" y1="339.82" x2="327.99" y2="332.99"/><line class="cls-8" x1="325.71" y1="330.71" x2="320.12" y2="325.12"/><line class="cls-8" x1="321.05" y1="508.76" x2="320.12" y2="507.88"/><line class="cls-8" x1="337.36" y1="500.73" x2="335.6" y2="498.97"/><line class="cls-8" x1="333.32" y1="496.69" x2="326.49" y2="489.81"/><line class="cls-8" x1="324.21" y1="487.53" x2="320.12" y2="483.49"/><line class="cls-8" x1="336.38" y1="475.36" x2="329.49" y2="468.52"/><line class="cls-8" x1="327.21" y1="466.24" x2="320.38" y2="459.35"/><line class="cls-8" x1="337.36" y1="452" x2="332.55" y2="447.18"/><line class="cls-8" x1="330.27" y1="444.9" x2="323.43" y2="438.07"/><line class="cls-8" x1="321.15" y1="435.79" x2="320.12" y2="434.75"/><line class="cls-8" x1="337.36" y1="427.61" x2="335.6" y2="425.85"/><line class="cls-8" x1="333.32" y1="423.57" x2="326.49" y2="416.73"/><line class="cls-8" x1="324.21" y1="414.45" x2="320.12" y2="410.41"/><line class="cls-8" x1="336.38" y1="402.28" x2="329.49" y2="395.39"/><line class="cls-8" x1="327.21" y1="393.11" x2="320.38" y2="386.28"/><line class="cls-8" x1="337.36" y1="378.87" x2="332.55" y2="374.11"/><line class="cls-8" x1="330.27" y1="371.78" x2="323.43" y2="364.94"/><line class="cls-8" x1="321.15" y1="362.66" x2="320.12" y2="361.68"/><line class="cls-8" x1="337.36" y1="354.53" x2="335.6" y2="352.77"/><line class="cls-8" x1="333.32" y1="350.49" x2="326.49" y2="343.6"/><line class="cls-8" x1="324.21" y1="341.33" x2="320.12" y2="337.29"/><line class="cls-8" x1="336.38" y1="329.15" x2="329.49" y2="322.32"/><line class="cls-8" x1="327.21" y1="320.04" x2="326.44" y2="319.26"/><line class="cls-8" x1="320.12" y1="86.63" x2="320.12" y2="233.09"/><line class="cls-8" x1="320.12" y1="319.26" x2="320.12" y2="508.76"/><line class="cls-8" x1="337.36" y1="508.76" x2="337.36" y2="319.26"/><line class="cls-8" x1="337.36" y1="233.09" x2="337.36" y2="86.63"/><line class="cls-8" x1="61.69" y1="223.09" x2="62.88" y2="221.9"/><line class="cls-8" x1="61.69" y1="229.2" x2="68.58" y2="222.31"/><line class="cls-8" x1="61.69" y1="235.31" x2="68.58" y2="228.42"/><line class="cls-8" x1="61.69" y1="241.37" x2="68.58" y2="234.48"/><line class="cls-8" x1="61.69" y1="247.48" x2="68.58" y2="240.6"/><line class="cls-8" x1="61.69" y1="253.59" x2="68.58" y2="246.65"/><line class="cls-8" x1="61.69" y1="259.65" x2="68.58" y2="252.77"/><line class="cls-8" x1="62.47" y1="264.99" x2="68.58" y2="258.88"/><line class="cls-8" x1="68.58" y1="264.99" x2="68.58" y2="264.94"/><line class="cls-8" x1="61.69" y1="221.9" x2="61.69" y2="264.99"/><line class="cls-8" x1="68.58" y1="264.99" x2="68.58" y2="221.9"/><line class="cls-8" x1="176.25" y1="218.17" x2="179.46" y2="215.01"/><line class="cls-8" x1="178.63" y1="221.9" x2="185.52" y2="215.01"/><line class="cls-8" x1="184.74" y1="221.9" x2="191.63" y2="215.01"/><line class="cls-8" x1="190.85" y1="221.9" x2="193.49" y2="219.21"/><line class="cls-8" x1="271.02" y1="220.86" x2="276.93" y2="215.01"/><line class="cls-8" x1="276.1" y1="221.9" x2="282.98" y2="215.01"/><line class="cls-8" x1="282.21" y1="221.9" x2="289.1" y2="215.01"/><line class="cls-8" x1="288.32" y1="221.9" x2="295.21" y2="215.01"/><line class="cls-8" x1="294.38" y1="221.9" x2="301.27" y2="215.01"/><line class="cls-8" x1="300.49" y1="221.9" x2="307.38" y2="215.01"/><line class="cls-8" x1="306.55" y1="221.9" x2="313.44" y2="215.01"/><line class="cls-8" x1="312.66" y1="221.9" x2="319.55" y2="215.01"/><line class="cls-8" x1="318.77" y1="221.9" x2="320.12" y2="220.5"/><line class="cls-8" x1="271.02" y1="221.9" x2="271.02" y2="215.01"/><line class="cls-8" x1="193.49" y1="221.9" x2="193.49" y2="215.01"/><line class="cls-8" x1="320.12" y1="215.01" x2="271.02" y2="215.01"/><line class="cls-8" x1="193.49" y1="215.01" x2="176.25" y2="215.01"/><line class="cls-8" x1="176.25" y1="221.9" x2="193.49" y2="221.9"/><polyline class="cls-8" points="271.02 221.9 320.12 221.9 320.12 215.01"/><line class="cls-8" x1="169.36" y1="151.98" x2="172.67" y2="148.67"/><line class="cls-8" x1="169.36" y1="158.04" x2="176.25" y2="151.16"/><line class="cls-8" x1="169.36" y1="164.15" x2="176.25" y2="157.27"/><line class="cls-8" x1="169.36" y1="170.27" x2="176.25" y2="163.38"/><line class="cls-8" x1="169.36" y1="176.32" x2="176.25" y2="169.44"/><line class="cls-8" x1="169.36" y1="182.44" x2="176.25" y2="175.55"/><line class="cls-8" x1="169.36" y1="188.55" x2="176.25" y2="181.61"/><line class="cls-8" x1="169.36" y1="194.61" x2="176.25" y2="187.72"/><line class="cls-8" x1="169.36" y1="200.72" x2="176.25" y2="193.83"/><line class="cls-8" x1="169.36" y1="206.78" x2="176.25" y2="199.89"/><line class="cls-8" x1="169.36" y1="212.89" x2="176.25" y2="206"/><line class="cls-8" x1="169.36" y1="219" x2="176.25" y2="212.11"/><line class="cls-8" x1="169.36" y1="225.06" x2="176.25" y2="218.17"/><line class="cls-8" x1="169.36" y1="231.17" x2="176.25" y2="224.28"/><line class="cls-8" x1="169.36" y1="237.28" x2="176.25" y2="230.34"/><line class="cls-8" x1="169.36" y1="243.34" x2="176.25" y2="236.45"/><line class="cls-8" x1="169.36" y1="249.45" x2="176.25" y2="242.56"/><line class="cls-8" x1="169.36" y1="255.51" x2="176.25" y2="248.62"/><line class="cls-8" x1="169.36" y1="261.62" x2="176.25" y2="254.73"/><line class="cls-8" x1="172.1" y1="264.99" x2="176.25" y2="260.84"/><line class="cls-8" x1="169.36" y1="17.95" x2="169.62" y2="17.75"/><line class="cls-8" x1="169.36" y1="24.06" x2="175.68" y2="17.75"/><line class="cls-8" x1="169.36" y1="30.12" x2="176.25" y2="23.24"/><line class="cls-8" x1="169.36" y1="36.23" x2="176.25" y2="29.35"/><line class="cls-8" x1="169.36" y1="42.35" x2="176.25" y2="35.41"/><line class="cls-8" x1="169.36" y1="48.41" x2="176.25" y2="41.52"/><line class="cls-8" x1="169.36" y1="54.52" x2="176.25" y2="47.63"/><line class="cls-8" x1="169.36" y1="60.58" x2="176.25" y2="53.69"/><line class="cls-8" x1="169.36" y1="66.69" x2="176.25" y2="59.8"/><line class="cls-8" x1="169.36" y1="72.8" x2="176.25" y2="65.91"/><line class="cls-8" x1="169.36" y1="78.86" x2="176.25" y2="71.97"/><line class="cls-8" x1="169.36" y1="84.97" x2="176.25" y2="78.08"/><line class="cls-8" x1="172.05" y1="88.39" x2="176.25" y2="84.14"/><line class="cls-8" x1="170.76" y1="266.33" x2="172.1" y2="264.99"/><line class="cls-8" x1="173.81" y1="269.39" x2="176.25" y2="266.9"/><line class="cls-8" x1="169.36" y1="88.39" x2="176.25" y2="88.39"/><line class="cls-8" x1="169.36" y1="148.67" x2="176.25" y2="148.67"/><line class="cls-8" x1="176.25" y1="271.88" x2="176.25" y2="221.9"/><line class="cls-8" x1="176.25" y1="215.01" x2="176.25" y2="148.67"/><polyline class="cls-8" points="176.25 88.39 176.25 17.75 169.36 17.75 169.36 88.39"/><line class="cls-8" x1="169.36" y1="148.67" x2="169.36" y2="215.01"/><line class="cls-8" x1="169.36" y1="221.9" x2="169.36" y2="264.99"/><line class="cls-8" x1="169.36" y1="267.73" x2="170.76" y2="266.33"/><line class="cls-8" x1="171.33" y1="271.88" x2="173.81" y2="269.39"/><line class="cls-8" x1="176.25" y1="271.88" x2="169.36" y2="271.88"/><line class="cls-8" x1="18.6" y1="217.45" x2="21.09" y2="215.01"/><line class="cls-8" x1="20.26" y1="221.9" x2="27.15" y2="215.01"/><line class="cls-8" x1="26.37" y1="221.9" x2="27.25" y2="221.02"/><line class="cls-8" x1="61.69" y1="217.03" x2="63.71" y2="215.01"/><line class="cls-8" x1="62.88" y1="221.9" x2="69.82" y2="215.01"/><line class="cls-8" x1="68.99" y1="221.9" x2="75.88" y2="215.01"/><line class="cls-8" x1="75.1" y1="221.9" x2="81.99" y2="215.01"/><line class="cls-8" x1="81.16" y1="221.9" x2="88.05" y2="215.01"/><line class="cls-8" x1="87.27" y1="221.9" x2="94.16" y2="215.01"/><line class="cls-8" x1="93.38" y1="221.9" x2="100.27" y2="215.01"/><line class="cls-8" x1="99.44" y1="221.9" x2="106.33" y2="215.01"/><line class="cls-8" x1="105.55" y1="221.9" x2="112.44" y2="215.01"/><line class="cls-8" x1="111.61" y1="221.9" x2="118.55" y2="215.01"/><line class="cls-8" x1="117.73" y1="221.9" x2="124.61" y2="215.01"/><line class="cls-8" x1="123.84" y1="221.9" x2="130.72" y2="215.01"/><line class="cls-8" x1="129.9" y1="221.9" x2="136.78" y2="215.01"/><line class="cls-8" x1="136.01" y1="221.9" x2="142.89" y2="215.01"/><line class="cls-8" x1="142.12" y1="221.9" x2="149.01" y2="215.01"/><line class="cls-8" x1="148.18" y1="221.9" x2="155.07" y2="215.01"/><line class="cls-8" x1="154.29" y1="221.9" x2="161.18" y2="215.01"/><line class="cls-8" x1="160.35" y1="221.9" x2="167.29" y2="215.01"/><line class="cls-8" x1="166.46" y1="221.9" x2="169.36" y2="219"/><polyline class="cls-8" points="27.25 215.01 27.25 218.43 27.25 221.9"/><polyline class="cls-8" points="61.69 215.01 61.69 218.43 61.69 221.9"/><line class="cls-8" x1="18.6" y1="221.9" x2="27.25" y2="221.9"/><line class="cls-8" x1="68.58" y1="221.9" x2="169.36" y2="221.9"/><line class="cls-8" x1="169.36" y1="215.01" x2="61.69" y2="215.01"/><polyline class="cls-8" points="27.25 215.01 18.6 215.01 18.6 221.9"/><line class="cls-8" x1="61.69" y1="215.01" x2="27.25" y2="215.01"/><line class="cls-8" x1="61.69" y1="221.9" x2="27.25" y2="221.9"/><path class="cls-8" d="M61.69,215a34.33,34.33,0,0,0-2.08-11.79"/><line class="cls-8" x1="27.25" y1="215.01" x2="59.62" y2="203.2"/><polyline class="cls-8" points="61.69 221.9 61.69 218.43 61.69 215.01 61.69 218.43"/><polyline class="cls-8" points="27.25 221.9 27.25 218.43 27.25 215.01 27.25 218.43"/><line class="cls-8" x1="18.6" y1="266.18" x2="19.84" y2="264.99"/><line class="cls-8" x1="19.01" y1="271.88" x2="25.9" y2="264.99"/><line class="cls-8" x1="25.13" y1="271.88" x2="32.01" y2="264.99"/><line class="cls-8" x1="31.24" y1="271.88" x2="38.13" y2="264.99"/><line class="cls-8" x1="37.3" y1="271.88" x2="44.18" y2="264.99"/><line class="cls-8" x1="43.41" y1="271.88" x2="50.3" y2="264.99"/><line class="cls-8" x1="49.47" y1="271.88" x2="56.35" y2="264.99"/><line class="cls-8" x1="55.58" y1="271.88" x2="62.47" y2="264.99"/><line class="cls-8" x1="61.69" y1="271.88" x2="68.58" y2="264.99"/><line class="cls-8" x1="67.75" y1="271.88" x2="74.64" y2="264.99"/><line class="cls-8" x1="73.86" y1="271.88" x2="80.75" y2="264.99"/><line class="cls-8" x1="79.97" y1="271.88" x2="86.86" y2="264.99"/><line class="cls-8" x1="86.03" y1="271.88" x2="92.92" y2="264.99"/><line class="cls-8" x1="92.14" y1="271.88" x2="99.03" y2="264.99"/><line class="cls-8" x1="98.2" y1="271.88" x2="105.09" y2="264.99"/><line class="cls-8" x1="104.31" y1="271.88" x2="111.2" y2="264.99"/><line class="cls-8" x1="110.42" y1="271.88" x2="117.31" y2="264.99"/><line class="cls-8" x1="116.48" y1="271.88" x2="123.37" y2="264.99"/><line class="cls-8" x1="122.59" y1="271.88" x2="129.48" y2="264.99"/><line class="cls-8" x1="128.65" y1="271.88" x2="135.59" y2="264.99"/><line class="cls-8" x1="134.76" y1="271.88" x2="141.65" y2="264.99"/><line class="cls-8" x1="140.87" y1="271.88" x2="147.76" y2="264.99"/><line class="cls-8" x1="146.93" y1="271.88" x2="153.82" y2="264.99"/><line class="cls-8" x1="153.05" y1="271.88" x2="159.93" y2="264.99"/><line class="cls-8" x1="159.16" y1="271.88" x2="166.04" y2="264.99"/><line class="cls-8" x1="165.22" y1="271.88" x2="169.36" y2="267.73"/><line class="cls-8" x1="169.36" y1="264.99" x2="68.58" y2="264.99"/><line class="cls-8" x1="61.69" y1="264.99" x2="18.6" y2="264.99"/><line class="cls-8" x1="18.6" y1="271.88" x2="169.36" y2="271.88"/><line class="cls-8" x1="176.25" y1="10.65" x2="175.73" y2="10.13"/><line class="cls-8" x1="173.4" y1="7.8" x2="166.77" y2="1.17"/><line class="cls-8" x1="171.12" y1="17.75" x2="166.77" y2="13.4"/><line class="cls-8" x1="280.81" y1="17.75" x2="279.26" y2="16.19"/><line class="cls-8" x1="276.98" y1="13.91" x2="270.14" y2="7.08"/><line class="cls-8" x1="267.86" y1="4.8" x2="266.72" y2="3.66"/><line class="cls-8" x1="305.15" y1="17.75" x2="300.59" y2="13.14"/><line class="cls-8" x1="298.31" y1="10.86" x2="291.43" y2="4.02"/><line class="cls-8" x1="289.15" y1="1.74" x2="287.9" y2="0.5"/><line class="cls-8" x1="319.6" y1="7.8" x2="312.76" y2="0.97"/><line class="cls-8" x1="268.59" y1="17.75" x2="268.59" y2="17.75"/><line class="cls-8" x1="292.98" y1="17.75" x2="289.92" y2="14.69"/><line class="cls-8" x1="287.65" y1="12.41" x2="280.81" y2="5.52"/><line class="cls-8" x1="278.48" y1="3.24" x2="275.73" y2="0.5"/><line class="cls-8" x1="317.32" y1="17.75" x2="311.26" y2="11.63"/><line class="cls-8" x1="308.98" y1="9.36" x2="302.1" y2="2.52"/><line class="cls-8" x1="166.77" y1="1.17" x2="166.56" y2="0.97"/><line class="cls-8" x1="166.77" y1="13.4" x2="165.06" y2="11.63"/><line class="cls-8" x1="162.78" y1="9.36" x2="155.89" y2="2.52"/><polyline class="cls-8" points="176.25 0.5 176.25 7.39 176.25 17.75"/><polyline class="cls-8" points="266.72 0.5 266.72 7.39 266.72 17.75"/><line class="cls-8" x1="166.77" y1="17.75" x2="176.25" y2="17.75"/><line class="cls-8" x1="266.72" y1="17.75" x2="320.12" y2="17.75"/><line class="cls-8" x1="320.12" y1="0.5" x2="266.72" y2="0.5"/><line class="cls-8" x1="176.25" y1="0.5" x2="149.58" y2="0.5"/><path class="cls-8" d="M184,86.63A79.26,79.26,0,0,0,263.25,7.36"/><line class="cls-8" x1="180.6" y1="7.39" x2="176.25" y2="7.39"/><polyline class="cls-8" points="180.6 0.5 176.25 0.5 176.25 7.39"/><polyline class="cls-8" points="266.72 0.5 263.31 0.5 263.31 7.39 266.72 7.39 266.72 0.5"/><polyline class="cls-8" points="180.6 7.39 184.01 7.39 184.01 0.5 180.6 0.5 180.6 7.39"/><line class="cls-8" x1="184.02" y1="7.39" x2="184.02" y2="86.63"/><polyline class="cls-8" points="266.72 17.75 266.72 7.39 266.72 0.5 266.72 7.39"/><polyline class="cls-8" points="176.25 17.75 176.25 7.39 176.25 0.5 176.25 7.39"/><line class="cls-8" x1="159.67" y1="30.64" x2="152.84" y2="23.81"/><line class="cls-8" x1="150.56" y1="21.53" x2="149.58" y2="20.54"/><line class="cls-8" x1="24.19" y1="29.14" x2="18.6" y2="23.6"/><line class="cls-8" x1="50.04" y1="30.64" x2="47.76" y2="28.36"/><line class="cls-8" x1="45.48" y1="26.08" x2="38.64" y2="19.25"/><line class="cls-8" x1="36.36" y1="16.97" x2="32.79" y2="13.4"/><line class="cls-8" x1="74.43" y1="30.64" x2="69.1" y2="25.36"/><line class="cls-8" x1="66.82" y1="23.03" x2="59.98" y2="16.19"/><line class="cls-8" x1="57.7" y1="13.91" x2="57.18" y2="13.4"/><line class="cls-8" x1="97.27" y1="29.14" x2="90.43" y2="22.3"/><line class="cls-8" x1="88.15" y1="20.02" x2="81.52" y2="13.4"/><line class="cls-8" x1="123.16" y1="30.64" x2="120.88" y2="28.36"/><line class="cls-8" x1="118.61" y1="26.08" x2="111.72" y2="19.25"/><line class="cls-8" x1="109.44" y1="16.97" x2="105.92" y2="13.4"/><line class="cls-8" x1="147.5" y1="30.64" x2="142.22" y2="25.36"/><line class="cls-8" x1="139.89" y1="23.03" x2="133.05" y2="16.19"/><line class="cls-8" x1="130.78" y1="13.91" x2="130.26" y2="13.4"/><line class="cls-8" x1="37.87" y1="30.64" x2="37.14" y2="29.92"/><line class="cls-8" x1="34.81" y1="27.64" x2="27.97" y2="20.75"/><line class="cls-8" x1="25.7" y1="18.47" x2="20.62" y2="13.4"/><line class="cls-8" x1="62.21" y1="30.64" x2="58.43" y2="26.86"/><line class="cls-8" x1="56.15" y1="24.58" x2="49.31" y2="17.75"/><line class="cls-8" x1="47.03" y1="15.42" x2="45.01" y2="13.4"/><line class="cls-8" x1="86.6" y1="30.64" x2="79.76" y2="23.81"/><line class="cls-8" x1="77.48" y1="21.53" x2="70.65" y2="14.69"/><line class="cls-8" x1="110.94" y1="30.64" x2="110.22" y2="29.92"/><line class="cls-8" x1="107.94" y1="27.64" x2="101.1" y2="20.75"/><line class="cls-8" x1="98.82" y1="18.47" x2="93.75" y2="13.4"/><line class="cls-8" x1="135.33" y1="30.64" x2="131.55" y2="26.86"/><line class="cls-8" x1="129.27" y1="24.58" x2="122.39" y2="17.75"/><line class="cls-8" x1="120.11" y1="15.42" x2="118.09" y2="13.4"/><line class="cls-8" x1="149.58" y1="20.54" x2="143.72" y2="14.69"/><line class="cls-8" x1="18.6" y1="30.64" x2="166.77" y2="30.64"/><line class="cls-8" x1="149.58" y1="13.4" x2="18.6" y2="13.4"/><line class="cls-8" x1="166.77" y1="25.57" x2="163.51" y2="22.3"/><line class="cls-8" x1="161.23" y1="20.02" x2="154.39" y2="13.14"/><line class="cls-8" x1="152.11" y1="10.86" x2="149.58" y2="8.32"/><line class="cls-8" x1="166.77" y1="30.64" x2="166.77" y2="17.75"/><line class="cls-8" x1="149.58" y1="0.5" x2="149.58" y2="13.4"/><line class="cls-8" x1="1.41" y1="238.32" x2="6.64" y2="233.09"/><line class="cls-8" x1="1.41" y1="245.67" x2="13.94" y2="233.09"/><line class="cls-8" x1="1.41" y1="252.97" x2="18.6" y2="235.73"/><line class="cls-8" x1="1.41" y1="260.28" x2="18.6" y2="243.03"/><line class="cls-8" x1="1.41" y1="267.58" x2="18.6" y2="250.33"/><line class="cls-8" x1="1.41" y1="274.88" x2="18.6" y2="257.63"/><line class="cls-8" x1="1.41" y1="282.18" x2="18.6" y2="264.99"/><line class="cls-8" x1="1.41" y1="289.48" x2="18.6" y2="272.29"/><line class="cls-8" x1="1.41" y1="296.84" x2="18.6" y2="279.59"/><line class="cls-8" x1="1.41" y1="304.14" x2="18.6" y2="286.89"/><line class="cls-8" x1="1.41" y1="311.44" x2="18.6" y2="294.2"/><line class="cls-8" x1="1.41" y1="318.75" x2="18.6" y2="301.5"/><line class="cls-8" x1="1.41" y1="326.05" x2="18.6" y2="308.8"/><line class="cls-8" x1="1.41" y1="333.35" x2="18.6" y2="316.16"/><line class="cls-8" x1="5.6" y1="336.46" x2="18.6" y2="323.46"/><line class="cls-8" x1="12.9" y1="336.46" x2="18.6" y2="330.76"/><line class="cls-8" x1="1.41" y1="234.69" x2="2.55" y2="233.5"/><line class="cls-8" x1="1.41" y1="241.99" x2="1.61" y2="241.73"/><line class="cls-8" x1="2.55" y1="240.85" x2="2.55" y2="240.85"/><line class="cls-8" x1="3.48" y1="239.92" x2="6.22" y2="237.18"/><line class="cls-8" x1="7.1" y1="236.24" x2="7.1" y2="236.24"/><line class="cls-8" x1="8.04" y1="235.36" x2="10.26" y2="233.09"/><line class="cls-8" x1="1.61" y1="249.04" x2="1.61" y2="249.04"/><line class="cls-8" x1="2.55" y1="248.16" x2="5.29" y2="245.41"/><line class="cls-8" x1="6.22" y1="244.48" x2="6.22" y2="244.48"/><line class="cls-8" x1="7.1" y1="243.55" x2="9.85" y2="240.85"/><line class="cls-8" x1="10.78" y1="239.92" x2="10.78" y2="239.92"/><line class="cls-8" x1="11.71" y1="238.99" x2="14.41" y2="236.24"/><line class="cls-8" x1="15.34" y1="235.36" x2="15.34" y2="235.36"/><line class="cls-8" x1="16.27" y1="234.43" x2="17.62" y2="233.09"/><line class="cls-8" x1="1.61" y1="256.34" x2="4.36" y2="253.65"/><line class="cls-8" x1="5.29" y1="252.71" x2="5.29" y2="252.71"/><line class="cls-8" x1="6.22" y1="251.78" x2="8.97" y2="249.04"/><line class="cls-8" x1="9.85" y1="248.16" x2="9.85" y2="248.16"/><line class="cls-8" x1="10.78" y1="247.22" x2="13.53" y2="244.48"/><line class="cls-8" x1="14.41" y1="243.55" x2="14.41" y2="243.55"/><line class="cls-8" x1="15.34" y1="242.67" x2="18.08" y2="239.92"/><line class="cls-8" x1="1.41" y1="263.9" x2="3.48" y2="261.83"/><line class="cls-8" x1="4.36" y1="260.95" x2="4.36" y2="260.95"/><line class="cls-8" x1="5.29" y1="260.02" x2="8.04" y2="257.27"/><line class="cls-8" x1="8.97" y1="256.34" x2="8.97" y2="256.34"/><line class="cls-8" x1="9.85" y1="255.46" x2="12.59" y2="252.71"/><line class="cls-8" x1="13.53" y1="251.78" x2="13.53" y2="251.78"/><line class="cls-8" x1="14.41" y1="250.9" x2="17.15" y2="248.16"/><line class="cls-8" x1="18.08" y1="247.22" x2="18.08" y2="247.22"/><line class="cls-8" x1="3.48" y1="269.13" x2="3.48" y2="269.13"/><line class="cls-8" x1="4.36" y1="268.25" x2="7.1" y2="265.51"/><line class="cls-8" x1="8.04" y1="264.57" x2="8.04" y2="264.57"/><line class="cls-8" x1="8.97" y1="263.69" x2="11.71" y2="260.95"/><line class="cls-8" x1="12.59" y1="260.02" x2="12.59" y2="260.02"/><line class="cls-8" x1="13.53" y1="259.08" x2="16.27" y2="256.34"/><line class="cls-8" x1="17.15" y1="255.46" x2="17.15" y2="255.46"/><line class="cls-8" x1="18.08" y1="254.53" x2="18.6" y2="254.01"/><line class="cls-8" x1="1.41" y1="278.56" x2="1.61" y2="278.3"/><line class="cls-8" x1="2.55" y1="277.37" x2="2.55" y2="277.37"/><line class="cls-8" x1="3.48" y1="276.49" x2="6.22" y2="273.74"/><line class="cls-8" x1="7.1" y1="272.81" x2="7.1" y2="272.81"/><line class="cls-8" x1="8.04" y1="271.88" x2="10.78" y2="269.13"/><line class="cls-8" x1="11.71" y1="268.25" x2="11.71" y2="268.25"/><line class="cls-8" x1="12.59" y1="267.32" x2="15.34" y2="264.57"/><line class="cls-8" x1="16.27" y1="263.69" x2="16.27" y2="263.69"/><line class="cls-8" x1="17.15" y1="262.76" x2="18.6" y2="261.31"/><line class="cls-8" x1="1.61" y1="285.6" x2="1.61" y2="285.6"/><line class="cls-8" x1="2.55" y1="284.67" x2="5.29" y2="281.97"/><line class="cls-8" x1="6.22" y1="281.04" x2="6.22" y2="281.04"/><line class="cls-8" x1="7.1" y1="280.11" x2="9.85" y2="277.37"/><line class="cls-8" x1="10.78" y1="276.49" x2="10.78" y2="276.49"/><line class="cls-8" x1="11.71" y1="275.55" x2="14.41" y2="272.81"/><line class="cls-8" x1="15.34" y1="271.88" x2="15.34" y2="271.88"/><line class="cls-8" x1="16.27" y1="271" x2="18.6" y2="268.61"/><line class="cls-8" x1="1.61" y1="292.9" x2="4.36" y2="290.16"/><line class="cls-8" x1="5.29" y1="289.28" x2="5.29" y2="289.28"/><line class="cls-8" x1="6.22" y1="288.35" x2="8.97" y2="285.6"/><line class="cls-8" x1="9.85" y1="284.67" x2="9.85" y2="284.67"/><line class="cls-8" x1="10.78" y1="283.79" x2="13.53" y2="281.04"/><line class="cls-8" x1="14.41" y1="280.11" x2="14.41" y2="280.11"/><line class="cls-8" x1="15.34" y1="279.23" x2="18.08" y2="276.49"/><line class="cls-8" x1="1.41" y1="300.46" x2="3.48" y2="298.39"/><line class="cls-8" x1="4.36" y1="297.46" x2="4.36" y2="297.46"/><line class="cls-8" x1="5.29" y1="296.58" x2="8.04" y2="293.83"/><line class="cls-8" x1="8.97" y1="292.9" x2="8.97" y2="292.9"/><line class="cls-8" x1="9.85" y1="292.02" x2="12.59" y2="289.28"/><line class="cls-8" x1="13.53" y1="288.35" x2="13.53" y2="288.35"/><line class="cls-8" x1="14.41" y1="287.41" x2="17.15" y2="284.67"/><line class="cls-8" x1="18.08" y1="283.79" x2="18.08" y2="283.79"/><line class="cls-8" x1="1.41" y1="307.77" x2="2.55" y2="306.63"/><line class="cls-8" x1="3.48" y1="305.69" x2="3.48" y2="305.69"/><line class="cls-8" x1="4.36" y1="304.81" x2="7.1" y2="302.07"/><line class="cls-8" x1="8.04" y1="301.14" x2="8.04" y2="301.14"/><line class="cls-8" x1="8.97" y1="300.2" x2="11.71" y2="297.46"/><line class="cls-8" x1="12.59" y1="296.58" x2="12.59" y2="296.58"/><line class="cls-8" x1="13.53" y1="295.65" x2="16.27" y2="292.9"/><line class="cls-8" x1="17.15" y1="292.02" x2="17.15" y2="292.02"/><line class="cls-8" x1="18.08" y1="291.09" x2="18.6" y2="290.57"/><line class="cls-8" x1="1.41" y1="315.07" x2="1.61" y2="314.86"/><line class="cls-8" x1="2.55" y1="313.93" x2="2.55" y2="313.93"/><line class="cls-8" x1="3.48" y1="313" x2="6.22" y2="310.25"/><line class="cls-8" x1="7.1" y1="309.37" x2="7.1" y2="309.37"/><line class="cls-8" x1="8.04" y1="308.44" x2="10.78" y2="305.69"/><line class="cls-8" x1="11.71" y1="304.81" x2="11.71" y2="304.81"/><line class="cls-8" x1="12.59" y1="303.88" x2="15.34" y2="301.14"/><line class="cls-8" x1="16.27" y1="300.2" x2="16.27" y2="300.2"/><line class="cls-8" x1="17.15" y1="299.32" x2="18.6" y2="297.87"/><line class="cls-8" x1="1.61" y1="322.16" x2="1.61" y2="322.16"/><line class="cls-8" x1="2.55" y1="321.23" x2="5.29" y2="318.49"/><line class="cls-8" x1="6.22" y1="317.61" x2="6.22" y2="317.61"/><line class="cls-8" x1="7.1" y1="316.67" x2="9.85" y2="313.93"/><line class="cls-8" x1="10.78" y1="313" x2="10.78" y2="313"/><line class="cls-8" x1="11.71" y1="312.12" x2="14.41" y2="309.37"/><line class="cls-8" x1="15.34" y1="308.44" x2="15.34" y2="308.44"/><line class="cls-8" x1="16.27" y1="307.56" x2="18.6" y2="305.18"/><line class="cls-8" x1="1.61" y1="329.47" x2="4.36" y2="326.72"/><line class="cls-8" x1="5.29" y1="325.79" x2="5.29" y2="325.79"/><line class="cls-8" x1="6.22" y1="324.91" x2="8.97" y2="322.16"/><line class="cls-8" x1="9.85" y1="321.23" x2="9.85" y2="321.23"/><line class="cls-8" x1="10.78" y1="320.35" x2="13.53" y2="317.61"/><line class="cls-8" x1="14.41" y1="316.67" x2="14.41" y2="316.67"/><line class="cls-8" x1="15.34" y1="315.74" x2="18.08" y2="313"/><line class="cls-8" x1="1.92" y1="336.46" x2="3.48" y2="334.96"/><line class="cls-8" x1="4.36" y1="334.02" x2="4.36" y2="334.02"/><line class="cls-8" x1="5.29" y1="333.14" x2="8.04" y2="330.4"/><line class="cls-8" x1="8.97" y1="329.47" x2="8.97" y2="329.47"/><line class="cls-8" x1="9.85" y1="328.53" x2="12.59" y2="325.79"/><line class="cls-8" x1="13.53" y1="324.91" x2="13.53" y2="324.91"/><line class="cls-8" x1="14.41" y1="323.98" x2="17.15" y2="321.23"/><line class="cls-8" x1="18.08" y1="320.35" x2="18.08" y2="320.35"/><line class="cls-8" x1="9.23" y1="336.46" x2="11.71" y2="334.02"/><line class="cls-8" x1="12.59" y1="333.14" x2="12.59" y2="333.14"/><line class="cls-8" x1="13.53" y1="332.21" x2="16.27" y2="329.47"/><line class="cls-8" x1="17.15" y1="328.53" x2="17.15" y2="328.53"/><line class="cls-8" x1="18.08" y1="327.65" x2="18.6" y2="327.08"/><line class="cls-8" x1="17.15" y1="335.84" x2="18.6" y2="334.44"/><polyline class="cls-8" points="18.6 336.46 1.41 336.46 1.41 233.09 18.6 233.09 18.6 336.46"/><line class="cls-8" x1="1.41" y1="508.81" x2="1.41" y2="508.76"/><line class="cls-8" x1="1.41" y1="516.11" x2="8.71" y2="508.76"/><line class="cls-8" x1="1.41" y1="523.42" x2="16.06" y2="508.76"/><line class="cls-8" x1="1.41" y1="530.72" x2="18.6" y2="513.52"/><line class="cls-8" x1="1.41" y1="538.02" x2="18.6" y2="520.83"/><line class="cls-8" x1="1.41" y1="545.38" x2="18.6" y2="528.13"/><line class="cls-8" x1="1.41" y1="552.68" x2="18.6" y2="535.43"/><line class="cls-8" x1="1.41" y1="559.98" x2="18.6" y2="542.73"/><line class="cls-8" x1="1.41" y1="567.28" x2="18.6" y2="550.04"/><line class="cls-8" x1="1.41" y1="574.58" x2="18.6" y2="557.39"/><line class="cls-8" x1="1.41" y1="581.89" x2="18.6" y2="564.69"/><line class="cls-8" x1="1.41" y1="589.24" x2="18.6" y2="572"/><line class="cls-8" x1="3.01" y1="594.94" x2="18.6" y2="579.3"/><line class="cls-8" x1="10.31" y1="594.94" x2="18.6" y2="586.6"/><line class="cls-8" x1="17.62" y1="594.94" x2="18.6" y2="593.9"/><line class="cls-8" x1="1.61" y1="512.23" x2="4.36" y2="509.49"/><line class="cls-8" x1="1.41" y1="519.79" x2="3.48" y2="517.72"/><line class="cls-8" x1="4.36" y1="516.79" x2="4.36" y2="516.79"/><line class="cls-8" x1="5.29" y1="515.86" x2="8.04" y2="513.11"/><line class="cls-8" x1="8.97" y1="512.23" x2="8.97" y2="512.23"/><line class="cls-8" x1="9.85" y1="511.3" x2="12.39" y2="508.76"/><line class="cls-8" x1="1.41" y1="527.09" x2="2.55" y2="525.9"/><line class="cls-8" x1="3.48" y1="525.02" x2="3.48" y2="525.02"/><line class="cls-8" x1="4.36" y1="524.09" x2="7.1" y2="521.35"/><line class="cls-8" x1="8.04" y1="520.41" x2="8.04" y2="520.41"/><line class="cls-8" x1="8.97" y1="519.53" x2="11.71" y2="516.79"/><line class="cls-8" x1="12.59" y1="515.86" x2="12.59" y2="515.86"/><line class="cls-8" x1="13.53" y1="514.98" x2="16.27" y2="512.23"/><line class="cls-8" x1="17.15" y1="511.3" x2="17.15" y2="511.3"/><line class="cls-8" x1="18.08" y1="510.37" x2="18.6" y2="509.85"/><line class="cls-8" x1="1.41" y1="534.4" x2="1.61" y2="534.14"/><line class="cls-8" x1="2.55" y1="533.26" x2="2.55" y2="533.26"/><line class="cls-8" x1="3.48" y1="532.32" x2="6.22" y2="529.58"/><line class="cls-8" x1="7.1" y1="528.65" x2="7.1" y2="528.65"/><line class="cls-8" x1="8.04" y1="527.77" x2="10.78" y2="525.02"/><line class="cls-8" x1="11.71" y1="524.09" x2="11.71" y2="524.09"/><line class="cls-8" x1="12.59" y1="523.16" x2="15.34" y2="520.41"/><line class="cls-8" x1="16.27" y1="519.53" x2="16.27" y2="519.53"/><line class="cls-8" x1="17.15" y1="518.6" x2="18.6" y2="517.15"/><line class="cls-8" x1="1.61" y1="541.44" x2="1.61" y2="541.44"/><line class="cls-8" x1="2.55" y1="540.56" x2="5.29" y2="537.81"/><line class="cls-8" x1="6.22" y1="536.88" x2="6.22" y2="536.88"/><line class="cls-8" x1="7.1" y1="535.95" x2="9.85" y2="533.26"/><line class="cls-8" x1="10.78" y1="532.32" x2="10.78" y2="532.32"/><line class="cls-8" x1="11.71" y1="531.39" x2="14.41" y2="528.65"/><line class="cls-8" x1="15.34" y1="527.77" x2="15.34" y2="527.77"/><line class="cls-8" x1="16.27" y1="526.83" x2="18.6" y2="524.45"/><line class="cls-8" x1="1.61" y1="548.74" x2="4.36" y2="546.05"/><line class="cls-8" x1="5.29" y1="545.12" x2="5.29" y2="545.12"/><line class="cls-8" x1="6.22" y1="544.18" x2="8.97" y2="541.44"/><line class="cls-8" x1="9.85" y1="540.56" x2="9.85" y2="540.56"/><line class="cls-8" x1="10.78" y1="539.63" x2="13.53" y2="536.88"/><line class="cls-8" x1="14.41" y1="535.95" x2="14.41" y2="535.95"/><line class="cls-8" x1="15.34" y1="535.07" x2="18.08" y2="532.32"/><line class="cls-8" x1="1.41" y1="556.3" x2="3.48" y2="554.23"/><line class="cls-8" x1="4.36" y1="553.35" x2="4.36" y2="553.35"/><line class="cls-8" x1="5.29" y1="552.42" x2="8.04" y2="549.67"/><line class="cls-8" x1="8.97" y1="548.74" x2="8.97" y2="548.74"/><line class="cls-8" x1="9.85" y1="547.86" x2="12.59" y2="545.12"/><line class="cls-8" x1="13.53" y1="544.18" x2="13.53" y2="544.18"/><line class="cls-8" x1="14.41" y1="543.3" x2="17.15" y2="540.56"/><line class="cls-8" x1="18.08" y1="539.63" x2="18.08" y2="539.63"/><line class="cls-8" x1="1.41" y1="563.66" x2="2.55" y2="562.47"/><line class="cls-8" x1="3.48" y1="561.53" x2="3.48" y2="561.53"/><line class="cls-8" x1="4.36" y1="560.65" x2="7.1" y2="557.91"/><line class="cls-8" x1="8.04" y1="556.98" x2="8.04" y2="556.98"/><line class="cls-8" x1="8.97" y1="556.1" x2="11.71" y2="553.35"/><line class="cls-8" x1="12.59" y1="552.42" x2="12.59" y2="552.42"/><line class="cls-8" x1="13.53" y1="551.49" x2="16.27" y2="548.74"/><line class="cls-8" x1="17.15" y1="547.86" x2="17.15" y2="547.86"/><line class="cls-8" x1="18.08" y1="546.93" x2="18.6" y2="546.41"/><line class="cls-8" x1="1.41" y1="570.96" x2="1.61" y2="570.7"/><line class="cls-8" x1="2.55" y1="569.77" x2="2.55" y2="569.77"/><line class="cls-8" x1="3.48" y1="568.89" x2="6.22" y2="566.14"/><line class="cls-8" x1="7.1" y1="565.21" x2="7.1" y2="565.21"/><line class="cls-8" x1="8.04" y1="564.28" x2="10.78" y2="561.53"/><line class="cls-8" x1="11.71" y1="560.65" x2="11.71" y2="560.65"/><line class="cls-8" x1="12.59" y1="559.72" x2="15.34" y2="556.98"/><line class="cls-8" x1="16.27" y1="556.1" x2="16.27" y2="556.1"/><line class="cls-8" x1="17.15" y1="555.16" x2="18.6" y2="553.71"/><line class="cls-8" x1="1.61" y1="578" x2="1.61" y2="578"/><line class="cls-8" x1="2.55" y1="577.07" x2="5.29" y2="574.33"/><line class="cls-8" x1="6.22" y1="573.45" x2="6.22" y2="573.45"/><line class="cls-8" x1="7.1" y1="572.51" x2="9.85" y2="569.77"/><line class="cls-8" x1="10.78" y1="568.89" x2="10.78" y2="568.89"/><line class="cls-8" x1="11.71" y1="567.96" x2="14.41" y2="565.21"/><line class="cls-8" x1="15.34" y1="564.28" x2="15.34" y2="564.28"/><line class="cls-8" x1="16.27" y1="563.4" x2="18.6" y2="561.02"/><line class="cls-8" x1="1.61" y1="585.3" x2="4.36" y2="582.56"/><line class="cls-8" x1="5.29" y1="581.68" x2="5.29" y2="581.68"/><line class="cls-8" x1="6.22" y1="580.75" x2="8.97" y2="578"/><line class="cls-8" x1="9.85" y1="577.07" x2="9.85" y2="577.07"/><line class="cls-8" x1="10.78" y1="576.19" x2="13.53" y2="573.45"/><line class="cls-8" x1="14.41" y1="572.51" x2="14.41" y2="572.51"/><line class="cls-8" x1="15.34" y1="571.63" x2="18.08" y2="568.89"/><line class="cls-8" x1="1.41" y1="592.87" x2="3.48" y2="590.79"/><line class="cls-8" x1="4.36" y1="589.86" x2="4.36" y2="589.86"/><line class="cls-8" x1="5.29" y1="588.98" x2="8.04" y2="586.24"/><line class="cls-8" x1="8.97" y1="585.3" x2="8.97" y2="585.3"/><line class="cls-8" x1="9.85" y1="584.42" x2="12.59" y2="581.68"/><line class="cls-8" x1="13.53" y1="580.75" x2="13.53" y2="580.75"/><line class="cls-8" x1="14.41" y1="579.82" x2="17.15" y2="577.07"/><line class="cls-8" x1="18.08" y1="576.19" x2="18.08" y2="576.19"/><line class="cls-8" x1="6.64" y1="594.94" x2="7.1" y2="594.47"/><line class="cls-8" x1="8.04" y1="593.54" x2="8.04" y2="593.54"/><line class="cls-8" x1="8.97" y1="592.61" x2="11.71" y2="589.86"/><line class="cls-8" x1="12.59" y1="588.98" x2="12.59" y2="588.98"/><line class="cls-8" x1="13.53" y1="588.05" x2="16.27" y2="585.3"/><line class="cls-8" x1="17.15" y1="584.42" x2="17.15" y2="584.42"/><line class="cls-8" x1="18.08" y1="583.49" x2="18.6" y2="582.97"/><line class="cls-8" x1="13.94" y1="594.94" x2="15.34" y2="593.54"/><line class="cls-8" x1="16.27" y1="592.61" x2="16.27" y2="592.61"/><line class="cls-8" x1="17.15" y1="591.73" x2="18.6" y2="590.28"/><polyline class="cls-8" points="18.6 594.94 1.41 594.94 1.41 508.76 18.6 508.76 18.6 594.94"/><line class="cls-8" x1="320.12" y1="233.91" x2="320.95" y2="233.09"/><line class="cls-8" x1="320.12" y1="241.22" x2="328.25" y2="233.09"/><line class="cls-8" x1="320.12" y1="248.52" x2="335.55" y2="233.09"/><line class="cls-8" x1="320.12" y1="255.82" x2="337.36" y2="238.63"/><line class="cls-8" x1="320.12" y1="263.18" x2="337.36" y2="245.93"/><line class="cls-8" x1="320.12" y1="270.48" x2="337.36" y2="253.23"/><line class="cls-8" x1="320.12" y1="277.78" x2="337.36" y2="260.53"/><line class="cls-8" x1="320.12" y1="285.08" x2="337.36" y2="267.84"/><line class="cls-8" x1="320.12" y1="292.38" x2="337.36" y2="275.19"/><line class="cls-8" x1="320.12" y1="299.69" x2="337.36" y2="282.49"/><line class="cls-8" x1="320.12" y1="306.99" x2="337.36" y2="289.8"/><line class="cls-8" x1="320.12" y1="314.34" x2="337.36" y2="297.1"/><line class="cls-8" x1="322.5" y1="319.26" x2="337.36" y2="304.4"/><line class="cls-8" x1="329.85" y1="319.26" x2="337.36" y2="311.7"/><line class="cls-8" x1="337.16" y1="319.26" x2="337.36" y2="319"/><line class="cls-8" x1="320.53" y1="237.18" x2="323.28" y2="234.43"/><line class="cls-8" x1="324.21" y1="233.5" x2="324.21" y2="233.5"/><line class="cls-8" x1="320.12" y1="244.89" x2="322.34" y2="242.67"/><line class="cls-8" x1="323.28" y1="241.73" x2="323.28" y2="241.73"/><line class="cls-8" x1="324.21" y1="240.85" x2="326.9" y2="238.11"/><line class="cls-8" x1="327.83" y1="237.18" x2="327.83" y2="237.18"/><line class="cls-8" x1="328.77" y1="236.24" x2="331.51" y2="233.5"/><line class="cls-8" x1="320.12" y1="252.2" x2="321.46" y2="250.9"/><line class="cls-8" x1="322.34" y1="249.97" x2="322.34" y2="249.97"/><line class="cls-8" x1="323.28" y1="249.04" x2="326.02" y2="246.29"/><line class="cls-8" x1="326.9" y1="245.41" x2="326.9" y2="245.41"/><line class="cls-8" x1="327.83" y1="244.48" x2="330.58" y2="241.73"/><line class="cls-8" x1="331.51" y1="240.85" x2="331.51" y2="240.85"/><line class="cls-8" x1="332.39" y1="239.92" x2="335.14" y2="237.18"/><line class="cls-8" x1="336.07" y1="236.24" x2="336.07" y2="236.24"/><line class="cls-8" x1="337" y1="235.36" x2="337.36" y2="234.95"/><line class="cls-8" x1="320.12" y1="259.5" x2="320.53" y2="259.08"/><line class="cls-8" x1="321.46" y1="258.2" x2="321.46" y2="258.2"/><line class="cls-8" x1="322.34" y1="257.27" x2="325.09" y2="254.53"/><line class="cls-8" x1="326.02" y1="253.65" x2="326.02" y2="253.65"/><line class="cls-8" x1="326.9" y1="252.71" x2="329.65" y2="249.97"/><line class="cls-8" x1="330.58" y1="249.04" x2="330.58" y2="249.04"/><line class="cls-8" x1="331.51" y1="248.16" x2="334.26" y2="245.41"/><line class="cls-8" x1="335.14" y1="244.48" x2="335.14" y2="244.48"/><line class="cls-8" x1="336.07" y1="243.55" x2="337.36" y2="242.25"/><line class="cls-8" x1="320.53" y1="266.44" x2="320.53" y2="266.44"/><line class="cls-8" x1="321.46" y1="265.51" x2="324.21" y2="262.76"/><line class="cls-8" x1="325.09" y1="261.83" x2="325.09" y2="261.83"/><line class="cls-8" x1="326.02" y1="260.95" x2="328.77" y2="258.2"/><line class="cls-8" x1="329.65" y1="257.27" x2="329.65" y2="257.27"/><line class="cls-8" x1="330.58" y1="256.34" x2="333.32" y2="253.65"/><line class="cls-8" x1="334.26" y1="252.71" x2="334.26" y2="252.71"/><line class="cls-8" x1="335.14" y1="251.78" x2="337.36" y2="249.55"/><line class="cls-8" x1="320.53" y1="273.74" x2="323.28" y2="271"/><line class="cls-8" x1="324.21" y1="270.06" x2="324.21" y2="270.06"/><line class="cls-8" x1="325.09" y1="269.13" x2="327.83" y2="266.44"/><line class="cls-8" x1="328.77" y1="265.51" x2="328.77" y2="265.51"/><line class="cls-8" x1="329.65" y1="264.57" x2="332.39" y2="261.83"/><line class="cls-8" x1="333.32" y1="260.95" x2="333.32" y2="260.95"/><line class="cls-8" x1="334.26" y1="260.02" x2="337" y2="257.27"/><line class="cls-8" x1="320.12" y1="281.41" x2="322.34" y2="279.23"/><line class="cls-8" x1="323.28" y1="278.3" x2="323.28" y2="278.3"/><line class="cls-8" x1="324.21" y1="277.37" x2="326.9" y2="274.62"/><line class="cls-8" x1="327.83" y1="273.74" x2="327.83" y2="273.74"/><line class="cls-8" x1="328.77" y1="272.81" x2="331.51" y2="270.06"/><line class="cls-8" x1="332.39" y1="269.13" x2="332.39" y2="269.13"/><line class="cls-8" x1="333.32" y1="268.25" x2="336.07" y2="265.51"/><line class="cls-8" x1="337" y1="264.57" x2="337" y2="264.57"/><line class="cls-8" x1="320.12" y1="288.76" x2="321.46" y2="287.41"/><line class="cls-8" x1="322.34" y1="286.53" x2="322.34" y2="286.53"/><line class="cls-8" x1="323.28" y1="285.6" x2="326.02" y2="282.86"/><line class="cls-8" x1="326.9" y1="281.97" x2="326.9" y2="281.97"/><line class="cls-8" x1="327.83" y1="281.04" x2="330.58" y2="278.3"/><line class="cls-8" x1="331.51" y1="277.37" x2="331.51" y2="277.37"/><line class="cls-8" x1="332.39" y1="276.49" x2="335.14" y2="273.74"/><line class="cls-8" x1="336.07" y1="272.81" x2="336.07" y2="272.81"/><line class="cls-8" x1="337" y1="271.88" x2="337.36" y2="271.51"/><line class="cls-8" x1="320.12" y1="296.06" x2="320.53" y2="295.65"/><line class="cls-8" x1="321.46" y1="294.77" x2="321.46" y2="294.77"/><line class="cls-8" x1="322.34" y1="293.83" x2="325.09" y2="291.09"/><line class="cls-8" x1="326.02" y1="290.16" x2="326.02" y2="290.16"/><line class="cls-8" x1="326.9" y1="289.28" x2="329.65" y2="286.53"/><line class="cls-8" x1="330.58" y1="285.6" x2="330.58" y2="285.6"/><line class="cls-8" x1="331.51" y1="284.67" x2="334.26" y2="281.97"/><line class="cls-8" x1="335.14" y1="281.04" x2="335.14" y2="281.04"/><line class="cls-8" x1="336.07" y1="280.11" x2="337.36" y2="278.82"/><line class="cls-8" x1="320.53" y1="302.95" x2="320.53" y2="302.95"/><line class="cls-8" x1="321.46" y1="302.07" x2="324.21" y2="299.32"/><line class="cls-8" x1="325.09" y1="298.39" x2="325.09" y2="298.39"/><line class="cls-8" x1="326.02" y1="297.46" x2="328.77" y2="294.77"/><line class="cls-8" x1="329.65" y1="293.83" x2="329.65" y2="293.83"/><line class="cls-8" x1="330.58" y1="292.9" x2="333.32" y2="290.16"/><line class="cls-8" x1="334.26" y1="289.28" x2="334.26" y2="289.28"/><line class="cls-8" x1="335.14" y1="288.35" x2="337.36" y2="286.12"/><line class="cls-8" x1="320.53" y1="310.25" x2="323.28" y2="307.56"/><line class="cls-8" x1="324.21" y1="306.63" x2="324.21" y2="306.63"/><line class="cls-8" x1="325.09" y1="305.69" x2="327.83" y2="302.95"/><line class="cls-8" x1="328.77" y1="302.07" x2="328.77" y2="302.07"/><line class="cls-8" x1="329.65" y1="301.14" x2="332.39" y2="298.39"/><line class="cls-8" x1="333.32" y1="297.46" x2="333.32" y2="297.46"/><line class="cls-8" x1="334.26" y1="296.58" x2="337" y2="293.83"/><line class="cls-8" x1="320.12" y1="317.97" x2="322.34" y2="315.74"/><line class="cls-8" x1="323.28" y1="314.86" x2="323.28" y2="314.86"/><line class="cls-8" x1="324.21" y1="313.93" x2="326.9" y2="311.18"/><line class="cls-8" x1="327.83" y1="310.25" x2="327.83" y2="310.25"/><line class="cls-8" x1="328.77" y1="309.37" x2="331.51" y2="306.63"/><line class="cls-8" x1="332.39" y1="305.69" x2="332.39" y2="305.69"/><line class="cls-8" x1="333.32" y1="304.81" x2="336.07" y2="302.07"/><line class="cls-8" x1="337" y1="301.14" x2="337" y2="301.14"/><line class="cls-8" x1="326.9" y1="318.49" x2="326.9" y2="318.49"/><line class="cls-8" x1="327.83" y1="317.61" x2="330.58" y2="314.86"/><line class="cls-8" x1="331.51" y1="313.93" x2="331.51" y2="313.93"/><line class="cls-8" x1="332.39" y1="313" x2="335.14" y2="310.25"/><line class="cls-8" x1="336.07" y1="309.37" x2="336.07" y2="309.37"/><line class="cls-8" x1="337" y1="308.44" x2="337.36" y2="308.08"/><line class="cls-8" x1="333.48" y1="319.26" x2="334.26" y2="318.49"/><line class="cls-8" x1="335.14" y1="317.61" x2="335.14" y2="317.61"/><line class="cls-8" x1="336.07" y1="316.67" x2="337.36" y2="315.38"/><polyline class="cls-8" points="337.36 319.26 320.12 319.26 320.12 233.09 337.36 233.09 337.36 319.26"/><line class="cls-8" x1="320.12" y1="511.71" x2="323.07" y2="508.76"/><line class="cls-8" x1="320.12" y1="519.01" x2="330.37" y2="508.76"/><line class="cls-8" x1="320.12" y1="526.32" x2="337.36" y2="509.07"/><line class="cls-8" x1="320.12" y1="533.62" x2="337.36" y2="516.37"/><line class="cls-8" x1="320.12" y1="540.92" x2="337.36" y2="523.73"/><line class="cls-8" x1="320.12" y1="548.22" x2="337.36" y2="531.03"/><line class="cls-8" x1="320.12" y1="555.58" x2="337.36" y2="538.33"/><line class="cls-8" x1="320.12" y1="562.88" x2="337.36" y2="545.63"/><line class="cls-8" x1="320.12" y1="570.18" x2="337.36" y2="552.94"/><line class="cls-8" x1="320.12" y1="577.48" x2="337.36" y2="560.24"/><line class="cls-8" x1="320.12" y1="584.79" x2="337.36" y2="567.54"/><line class="cls-8" x1="320.12" y1="592.09" x2="337.36" y2="574.9"/><line class="cls-8" x1="324.62" y1="594.94" x2="337.36" y2="582.2"/><line class="cls-8" x1="331.93" y1="594.94" x2="337.36" y2="589.5"/><line class="cls-8" x1="320.12" y1="515.34" x2="320.53" y2="514.98"/><line class="cls-8" x1="321.46" y1="514.04" x2="321.46" y2="514.04"/><line class="cls-8" x1="322.34" y1="513.11" x2="325.09" y2="510.37"/><line class="cls-8" x1="326.02" y1="509.49" x2="326.02" y2="509.49"/><line class="cls-8" x1="320.53" y1="522.28" x2="320.53" y2="522.28"/><line class="cls-8" x1="321.46" y1="521.35" x2="324.21" y2="518.6"/><line class="cls-8" x1="325.09" y1="517.72" x2="325.09" y2="517.72"/><line class="cls-8" x1="326.02" y1="516.79" x2="328.77" y2="514.04"/><line class="cls-8" x1="329.65" y1="513.11" x2="329.65" y2="513.11"/><line class="cls-8" x1="330.58" y1="512.23" x2="333.32" y2="509.49"/><line class="cls-8" x1="320.53" y1="529.58" x2="323.28" y2="526.83"/><line class="cls-8" x1="324.21" y1="525.9" x2="324.21" y2="525.9"/><line class="cls-8" x1="325.09" y1="525.02" x2="327.83" y2="522.28"/><line class="cls-8" x1="328.77" y1="521.35" x2="328.77" y2="521.35"/><line class="cls-8" x1="329.65" y1="520.41" x2="332.39" y2="517.72"/><line class="cls-8" x1="333.32" y1="516.79" x2="333.32" y2="516.79"/><line class="cls-8" x1="334.26" y1="515.86" x2="337" y2="513.11"/><line class="cls-8" x1="320.12" y1="537.3" x2="322.34" y2="535.07"/><line class="cls-8" x1="323.28" y1="534.14" x2="323.28" y2="534.14"/><line class="cls-8" x1="324.21" y1="533.26" x2="326.9" y2="530.51"/><line class="cls-8" x1="327.83" y1="529.58" x2="327.83" y2="529.58"/><line class="cls-8" x1="328.77" y1="528.65" x2="331.51" y2="525.9"/><line class="cls-8" x1="332.39" y1="525.02" x2="332.39" y2="525.02"/><line class="cls-8" x1="333.32" y1="524.09" x2="336.07" y2="521.35"/><line class="cls-8" x1="337" y1="520.41" x2="337" y2="520.41"/><line class="cls-8" x1="320.12" y1="544.6" x2="321.46" y2="543.3"/><line class="cls-8" x1="322.34" y1="542.37" x2="322.34" y2="542.37"/><line class="cls-8" x1="323.28" y1="541.44" x2="326.02" y2="538.69"/><line class="cls-8" x1="326.9" y1="537.81" x2="326.9" y2="537.81"/><line class="cls-8" x1="327.83" y1="536.88" x2="330.58" y2="534.14"/><line class="cls-8" x1="331.51" y1="533.26" x2="331.51" y2="533.26"/><line class="cls-8" x1="332.39" y1="532.32" x2="335.14" y2="529.58"/><line class="cls-8" x1="336.07" y1="528.65" x2="336.07" y2="528.65"/><line class="cls-8" x1="337" y1="527.77" x2="337.36" y2="527.35"/><line class="cls-8" x1="320.12" y1="551.9" x2="320.53" y2="551.49"/><line class="cls-8" x1="321.46" y1="550.61" x2="321.46" y2="550.61"/><line class="cls-8" x1="322.34" y1="549.67" x2="325.09" y2="546.93"/><line class="cls-8" x1="326.02" y1="546.05" x2="326.02" y2="546.05"/><line class="cls-8" x1="326.9" y1="545.12" x2="329.65" y2="542.37"/><line class="cls-8" x1="330.58" y1="541.44" x2="330.58" y2="541.44"/><line class="cls-8" x1="331.51" y1="540.56" x2="334.26" y2="537.81"/><line class="cls-8" x1="335.14" y1="536.88" x2="335.14" y2="536.88"/><line class="cls-8" x1="336.07" y1="535.95" x2="337.36" y2="534.65"/><line class="cls-8" x1="320.53" y1="558.84" x2="320.53" y2="558.84"/><line class="cls-8" x1="321.46" y1="557.91" x2="324.21" y2="555.16"/><line class="cls-8" x1="325.09" y1="554.23" x2="325.09" y2="554.23"/><line class="cls-8" x1="326.02" y1="553.35" x2="328.77" y2="550.61"/><line class="cls-8" x1="329.65" y1="549.67" x2="329.65" y2="549.67"/><line class="cls-8" x1="330.58" y1="548.74" x2="333.32" y2="546.05"/><line class="cls-8" x1="334.26" y1="545.12" x2="334.26" y2="545.12"/><line class="cls-8" x1="335.14" y1="544.18" x2="337.36" y2="541.96"/><line class="cls-8" x1="320.53" y1="566.14" x2="323.28" y2="563.4"/><line class="cls-8" x1="324.21" y1="562.47" x2="324.21" y2="562.47"/><line class="cls-8" x1="325.09" y1="561.53" x2="327.83" y2="558.84"/><line class="cls-8" x1="328.77" y1="557.91" x2="328.77" y2="557.91"/><line class="cls-8" x1="329.65" y1="556.98" x2="332.39" y2="554.23"/><line class="cls-8" x1="333.32" y1="553.35" x2="333.32" y2="553.35"/><line class="cls-8" x1="334.26" y1="552.42" x2="337" y2="549.67"/><line class="cls-8" x1="320.12" y1="573.81" x2="322.34" y2="571.63"/><line class="cls-8" x1="323.28" y1="570.7" x2="323.28" y2="570.7"/><line class="cls-8" x1="324.21" y1="569.77" x2="326.9" y2="567.02"/><line class="cls-8" x1="327.83" y1="566.14" x2="327.83" y2="566.14"/><line class="cls-8" x1="328.77" y1="565.21" x2="331.51" y2="562.47"/><line class="cls-8" x1="332.39" y1="561.53" x2="332.39" y2="561.53"/><line class="cls-8" x1="333.32" y1="560.65" x2="336.07" y2="557.91"/><line class="cls-8" x1="337" y1="556.98" x2="337" y2="556.98"/><line class="cls-8" x1="320.12" y1="581.16" x2="321.46" y2="579.82"/><line class="cls-8" x1="322.34" y1="578.93" x2="322.34" y2="578.93"/><line class="cls-8" x1="323.28" y1="578" x2="326.02" y2="575.26"/><line class="cls-8" x1="326.9" y1="574.33" x2="326.9" y2="574.33"/><line class="cls-8" x1="327.83" y1="573.45" x2="330.58" y2="570.7"/><line class="cls-8" x1="331.51" y1="569.77" x2="331.51" y2="569.77"/><line class="cls-8" x1="332.39" y1="568.89" x2="335.14" y2="566.14"/><line class="cls-8" x1="336.07" y1="565.21" x2="336.07" y2="565.21"/><line class="cls-8" x1="337" y1="564.28" x2="337.36" y2="563.92"/><line class="cls-8" x1="320.12" y1="588.46" x2="320.53" y2="588.05"/><line class="cls-8" x1="321.46" y1="587.12" x2="321.46" y2="587.12"/><line class="cls-8" x1="322.34" y1="586.24" x2="325.09" y2="583.49"/><line class="cls-8" x1="326.02" y1="582.56" x2="326.02" y2="582.56"/><line class="cls-8" x1="326.9" y1="581.68" x2="329.65" y2="578.93"/><line class="cls-8" x1="330.58" y1="578" x2="330.58" y2="578"/><line class="cls-8" x1="331.51" y1="577.07" x2="334.26" y2="574.33"/><line class="cls-8" x1="335.14" y1="573.45" x2="335.14" y2="573.45"/><line class="cls-8" x1="336.07" y1="572.51" x2="337.36" y2="571.22"/><line class="cls-8" x1="321.46" y1="594.47" x2="324.21" y2="591.73"/><line class="cls-8" x1="325.09" y1="590.79" x2="325.09" y2="590.79"/><line class="cls-8" x1="326.02" y1="589.86" x2="328.77" y2="587.12"/><line class="cls-8" x1="329.65" y1="586.24" x2="329.65" y2="586.24"/><line class="cls-8" x1="330.58" y1="585.3" x2="333.32" y2="582.56"/><line class="cls-8" x1="334.26" y1="581.68" x2="334.26" y2="581.68"/><line class="cls-8" x1="335.14" y1="580.75" x2="337.36" y2="578.52"/><line class="cls-8" x1="328.77" y1="594.47" x2="328.77" y2="594.47"/><line class="cls-8" x1="329.65" y1="593.54" x2="332.39" y2="590.79"/><line class="cls-8" x1="333.32" y1="589.86" x2="333.32" y2="589.86"/><line class="cls-8" x1="334.26" y1="588.98" x2="337" y2="586.24"/><line class="cls-8" x1="335.6" y1="594.94" x2="336.07" y2="594.47"/><line class="cls-8" x1="337" y1="593.54" x2="337" y2="593.54"/><polyline class="cls-8" points="337.36 594.94 320.12 594.94 320.12 508.76 337.36 508.76 337.36 594.94"/><line class="cls-8" x1="1.41" y1="13.4" x2="5.29" y2="13.4"/><line class="cls-8" x1="1.41" y1="13.4" x2="12.64" y2="13.4"/><line class="cls-8" x1="1.41" y1="19.04" x2="6.66" y2="13.4"/><line class="cls-8" x1="1.41" y1="26.34" x2="14.9" y2="13.4"/><line class="cls-8" x1="1.41" y1="33.65" x2="18.6" y2="16.45"/><line class="cls-8" x1="1.41" y1="40.95" x2="18.6" y2="23.75"/><line class="cls-8" x1="1.41" y1="48.3" x2="18.6" y2="31.06"/><line class="cls-8" x1="1.41" y1="55.6" x2="18.6" y2="38.36"/><line class="cls-8" x1="1.41" y1="62.91" x2="18.6" y2="45.66"/><line class="cls-8" x1="1.41" y1="70.21" x2="18.6" y2="52.96"/><line class="cls-8" x1="1.41" y1="77.51" x2="18.6" y2="60.26"/><line class="cls-8" x1="1.41" y1="84.81" x2="18.6" y2="67.62"/><line class="cls-8" x1="6.9" y1="86.63" x2="18.6" y2="74.92"/><line class="cls-8" x1="14.2" y1="86.63" x2="18.6" y2="82.22"/><line class="cls-8" x1="1.61" y1="13.4" x2="1.67" y2="13.4"/><line class="cls-8" x1="1.41" y1="13.4" x2="3.48" y2="13.4"/><line class="cls-8" x1="4.36" y1="13.4" x2="4.36" y2="13.4"/><line class="cls-8" x1="5.29" y1="13.4" x2="8.04" y2="13.4"/><line class="cls-8" x1="8.97" y1="13.4" x2="8.97" y2="13.4"/><line class="cls-8" x1="1.41" y1="15.36" x2="2.55" y2="14.22"/><line class="cls-8" x1="3.48" y1="13.4" x2="3.48" y2="13.4"/><line class="cls-8" x1="4.36" y1="13.4" x2="7.1" y2="13.4"/><line class="cls-8" x1="8.04" y1="13.4" x2="8.04" y2="13.4"/><line class="cls-8" x1="8.97" y1="13.4" x2="11.71" y2="13.4"/><line class="cls-8" x1="12.59" y1="13.4" x2="12.59" y2="13.4"/><line class="cls-8" x1="13.53" y1="13.4" x2="16.27" y2="13.4"/><line class="cls-8" x1="1.41" y1="22.67" x2="1.61" y2="22.46"/><line class="cls-8" x1="2.55" y1="21.53" x2="2.55" y2="21.53"/><line class="cls-8" x1="3.48" y1="20.59" x2="6.22" y2="17.9"/><line class="cls-8" x1="7.1" y1="16.97" x2="7.1" y2="16.97"/><line class="cls-8" x1="8.04" y1="16.04" x2="10.78" y2="13.4"/><line class="cls-8" x1="11.71" y1="13.4" x2="11.71" y2="13.4"/><line class="cls-8" x1="12.59" y1="13.4" x2="15.34" y2="13.4"/><line class="cls-8" x1="16.27" y1="13.4" x2="16.27" y2="13.4"/><line class="cls-8" x1="17.15" y1="13.4" x2="18.6" y2="13.4"/><line class="cls-8" x1="1.61" y1="29.76" x2="1.61" y2="29.76"/><line class="cls-8" x1="2.55" y1="28.83" x2="5.29" y2="26.08"/><line class="cls-8" x1="6.22" y1="25.2" x2="6.22" y2="25.2"/><line class="cls-8" x1="7.1" y1="24.27" x2="9.85" y2="21.53"/><line class="cls-8" x1="10.78" y1="20.59" x2="10.78" y2="20.59"/><line class="cls-8" x1="11.71" y1="19.71" x2="14.41" y2="16.97"/><line class="cls-8" x1="15.34" y1="16.04" x2="15.34" y2="16.04"/><line class="cls-8" x1="16.27" y1="15.16" x2="18.6" y2="13.4"/><line class="cls-8" x1="1.61" y1="37.06" x2="4.36" y2="34.32"/><line class="cls-8" x1="5.29" y1="33.39" x2="5.29" y2="33.39"/><line class="cls-8" x1="6.22" y1="32.51" x2="8.97" y2="29.76"/><line class="cls-8" x1="9.85" y1="28.83" x2="9.85" y2="28.83"/><line class="cls-8" x1="10.78" y1="27.95" x2="13.53" y2="25.2"/><line class="cls-8" x1="14.41" y1="24.27" x2="14.41" y2="24.27"/><line class="cls-8" x1="15.34" y1="23.34" x2="18.08" y2="20.59"/><line class="cls-8" x1="1.41" y1="44.62" x2="3.48" y2="42.55"/><line class="cls-8" x1="4.36" y1="41.62" x2="4.36" y2="41.62"/><line class="cls-8" x1="5.29" y1="40.74" x2="8.04" y2="38"/><line class="cls-8" x1="8.97" y1="37.06" x2="8.97" y2="37.06"/><line class="cls-8" x1="9.85" y1="36.13" x2="12.59" y2="33.39"/><line class="cls-8" x1="13.53" y1="32.51" x2="13.53" y2="32.51"/><line class="cls-8" x1="14.41" y1="31.57" x2="17.15" y2="28.83"/><line class="cls-8" x1="18.08" y1="27.95" x2="18.08" y2="27.95"/><line class="cls-8" x1="1.41" y1="51.93" x2="2.55" y2="50.79"/><line class="cls-8" x1="3.48" y1="49.86" x2="3.48" y2="49.86"/><line class="cls-8" x1="4.36" y1="48.92" x2="7.1" y2="46.18"/><line class="cls-8" x1="8.04" y1="45.3" x2="8.04" y2="45.3"/><line class="cls-8" x1="8.97" y1="44.37" x2="11.71" y2="41.62"/><line class="cls-8" x1="12.59" y1="40.74" x2="12.59" y2="40.74"/><line class="cls-8" x1="13.53" y1="39.81" x2="16.27" y2="37.06"/><line class="cls-8" x1="17.15" y1="36.13" x2="17.15" y2="36.13"/><line class="cls-8" x1="18.08" y1="35.25" x2="18.6" y2="34.68"/><line class="cls-8" x1="1.41" y1="59.23" x2="1.61" y2="58.97"/><line class="cls-8" x1="2.55" y1="58.09" x2="2.55" y2="58.09"/><line class="cls-8" x1="3.48" y1="57.16" x2="6.22" y2="54.41"/><line class="cls-8" x1="7.1" y1="53.53" x2="7.1" y2="53.53"/><line class="cls-8" x1="8.04" y1="52.6" x2="10.78" y2="49.86"/><line class="cls-8" x1="11.71" y1="48.92" x2="11.71" y2="48.92"/><line class="cls-8" x1="12.59" y1="48.04" x2="15.34" y2="45.3"/><line class="cls-8" x1="16.27" y1="44.37" x2="16.27" y2="44.37"/><line class="cls-8" x1="17.15" y1="43.49" x2="18.6" y2="42.04"/><line class="cls-8" x1="1.61" y1="66.32" x2="1.61" y2="66.32"/><line class="cls-8" x1="2.55" y1="65.39" x2="5.29" y2="62.65"/><line class="cls-8" x1="6.22" y1="61.71" x2="6.22" y2="61.71"/><line class="cls-8" x1="7.1" y1="60.83" x2="9.85" y2="58.09"/><line class="cls-8" x1="10.78" y1="57.16" x2="10.78" y2="57.16"/><line class="cls-8" x1="11.71" y1="56.28" x2="14.41" y2="53.53"/><line class="cls-8" x1="15.34" y1="52.6" x2="15.34" y2="52.6"/><line class="cls-8" x1="16.27" y1="51.67" x2="18.6" y2="49.34"/><line class="cls-8" x1="1.61" y1="73.63" x2="4.36" y2="70.88"/><line class="cls-8" x1="5.29" y1="69.95" x2="5.29" y2="69.95"/><line class="cls-8" x1="6.22" y1="69.07" x2="8.97" y2="66.32"/><line class="cls-8" x1="9.85" y1="65.39" x2="9.85" y2="65.39"/><line class="cls-8" x1="10.78" y1="64.46" x2="13.53" y2="61.71"/><line class="cls-8" x1="14.41" y1="60.83" x2="14.41" y2="60.83"/><line class="cls-8" x1="15.34" y1="59.9" x2="18.08" y2="57.16"/><line class="cls-8" x1="1.41" y1="81.19" x2="3.48" y2="79.12"/><line class="cls-8" x1="4.36" y1="78.18" x2="4.36" y2="78.18"/><line class="cls-8" x1="5.29" y1="77.25" x2="8.04" y2="74.51"/><line class="cls-8" x1="8.97" y1="73.63" x2="8.97" y2="73.63"/><line class="cls-8" x1="9.85" y1="72.69" x2="12.59" y2="69.95"/><line class="cls-8" x1="13.53" y1="69.07" x2="13.53" y2="69.07"/><line class="cls-8" x1="14.41" y1="68.14" x2="17.15" y2="65.39"/><line class="cls-8" x1="18.08" y1="64.46" x2="18.08" y2="64.46"/><line class="cls-8" x1="3.48" y1="86.42" x2="3.48" y2="86.42"/><line class="cls-8" x1="4.36" y1="85.49" x2="7.1" y2="82.74"/><line class="cls-8" x1="8.04" y1="81.86" x2="8.04" y2="81.86"/><line class="cls-8" x1="8.97" y1="80.93" x2="11.71" y2="78.18"/><line class="cls-8" x1="12.59" y1="77.25" x2="12.59" y2="77.25"/><line class="cls-8" x1="13.53" y1="76.37" x2="16.27" y2="73.63"/><line class="cls-8" x1="17.15" y1="72.69" x2="17.15" y2="72.69"/><line class="cls-8" x1="18.08" y1="71.76" x2="18.6" y2="71.24"/><line class="cls-8" x1="10.52" y1="86.63" x2="10.78" y2="86.42"/><line class="cls-8" x1="11.71" y1="85.49" x2="11.71" y2="85.49"/><line class="cls-8" x1="12.59" y1="84.55" x2="15.34" y2="81.86"/><line class="cls-8" x1="16.27" y1="80.93" x2="16.27" y2="80.93"/><line class="cls-8" x1="17.15" y1="80" x2="18.6" y2="78.55"/><line class="cls-8" x1="17.82" y1="86.63" x2="18.6" y2="85.85"/><polyline class="cls-8" points="1.41 13.4 18.6 13.4 18.6 86.63 1.41 86.63 1.41 13.4"/><line class="cls-8" x1="320.12" y1="7.28" x2="326.95" y2="0.5"/><line class="cls-8" x1="320.12" y1="14.64" x2="334.26" y2="0.5"/><line class="cls-8" x1="320.12" y1="21.94" x2="337.36" y2="4.69"/><line class="cls-8" x1="320.12" y1="29.24" x2="337.36" y2="12"/><line class="cls-8" x1="320.12" y1="36.55" x2="337.36" y2="19.3"/><line class="cls-8" x1="320.12" y1="43.85" x2="337.36" y2="26.6"/><line class="cls-8" x1="320.12" y1="51.15" x2="337.36" y2="33.96"/><line class="cls-8" x1="320.12" y1="58.45" x2="337.36" y2="41.26"/><line class="cls-8" x1="320.12" y1="65.81" x2="337.36" y2="48.56"/><line class="cls-8" x1="320.12" y1="73.11" x2="337.36" y2="55.86"/><line class="cls-8" x1="320.12" y1="80.41" x2="337.36" y2="63.17"/><line class="cls-8" x1="321.21" y1="86.63" x2="337.36" y2="70.47"/><line class="cls-8" x1="328.51" y1="86.63" x2="337.36" y2="77.77"/><line class="cls-8" x1="335.81" y1="86.63" x2="337.36" y2="85.12"/><line class="cls-8" x1="320.12" y1="3.66" x2="320.53" y2="3.24"/><line class="cls-8" x1="321.46" y1="2.36" x2="321.46" y2="2.36"/><line class="cls-8" x1="322.34" y1="1.43" x2="323.28" y2="0.5"/><line class="cls-8" x1="320.53" y1="10.55" x2="320.53" y2="10.55"/><line class="cls-8" x1="321.46" y1="9.67" x2="324.21" y2="6.92"/><line class="cls-8" x1="325.09" y1="5.99" x2="325.09" y2="5.99"/><line class="cls-8" x1="326.02" y1="5.06" x2="328.77" y2="2.36"/><line class="cls-8" x1="329.65" y1="1.43" x2="329.65" y2="1.43"/><line class="cls-8" x1="330.58" y1="0.5" x2="330.58" y2="0.5"/><line class="cls-8" x1="320.53" y1="17.9" x2="323.28" y2="15.16"/><line class="cls-8" x1="324.21" y1="14.22" x2="324.21" y2="14.22"/><line class="cls-8" x1="325.09" y1="13.29" x2="327.83" y2="10.55"/><line class="cls-8" x1="328.77" y1="9.67" x2="328.77" y2="9.67"/><line class="cls-8" x1="329.65" y1="8.73" x2="332.39" y2="5.99"/><line class="cls-8" x1="333.32" y1="5.06" x2="333.32" y2="5.06"/><line class="cls-8" x1="334.26" y1="4.18" x2="337" y2="1.43"/><line class="cls-8" x1="320.12" y1="25.57" x2="322.34" y2="23.34"/><line class="cls-8" x1="323.28" y1="22.46" x2="323.28" y2="22.46"/><line class="cls-8" x1="324.21" y1="21.53" x2="326.9" y2="18.78"/><line class="cls-8" x1="327.83" y1="17.9" x2="327.83" y2="17.9"/><line class="cls-8" x1="328.77" y1="16.97" x2="331.51" y2="14.22"/><line class="cls-8" x1="332.39" y1="13.29" x2="332.39" y2="13.29"/><line class="cls-8" x1="333.32" y1="12.41" x2="336.07" y2="9.67"/><line class="cls-8" x1="337" y1="8.73" x2="337" y2="8.73"/><line class="cls-8" x1="320.12" y1="32.87" x2="321.46" y2="31.57"/><line class="cls-8" x1="322.34" y1="30.69" x2="322.34" y2="30.69"/><line class="cls-8" x1="323.28" y1="29.76" x2="326.02" y2="27.02"/><line class="cls-8" x1="326.9" y1="26.08" x2="326.9" y2="26.08"/><line class="cls-8" x1="327.83" y1="25.2" x2="330.58" y2="22.46"/><line class="cls-8" x1="331.51" y1="21.53" x2="331.51" y2="21.53"/><line class="cls-8" x1="332.39" y1="20.59" x2="335.14" y2="17.9"/><line class="cls-8" x1="336.07" y1="16.97" x2="336.07" y2="16.97"/><line class="cls-8" x1="337" y1="16.04" x2="337.36" y2="15.67"/><line class="cls-8" x1="320.12" y1="40.22" x2="320.53" y2="39.81"/><line class="cls-8" x1="321.46" y1="38.88" x2="321.46" y2="38.88"/><line class="cls-8" x1="322.34" y1="38" x2="325.09" y2="35.25"/><line class="cls-8" x1="326.02" y1="34.32" x2="326.02" y2="34.32"/><line class="cls-8" x1="326.9" y1="33.39" x2="329.65" y2="30.69"/><line class="cls-8" x1="330.58" y1="29.76" x2="330.58" y2="29.76"/><line class="cls-8" x1="331.51" y1="28.83" x2="334.26" y2="26.08"/><line class="cls-8" x1="335.14" y1="25.2" x2="335.14" y2="25.2"/><line class="cls-8" x1="336.07" y1="24.27" x2="337.36" y2="22.98"/><line class="cls-8" x1="320.53" y1="47.11" x2="320.53" y2="47.11"/><line class="cls-8" x1="321.46" y1="46.18" x2="324.21" y2="43.49"/><line class="cls-8" x1="325.09" y1="42.55" x2="325.09" y2="42.55"/><line class="cls-8" x1="326.02" y1="41.62" x2="328.77" y2="38.88"/><line class="cls-8" x1="329.65" y1="38" x2="329.65" y2="38"/><line class="cls-8" x1="330.58" y1="37.06" x2="333.32" y2="34.32"/><line class="cls-8" x1="334.26" y1="33.39" x2="334.26" y2="33.39"/><line class="cls-8" x1="335.14" y1="32.51" x2="337.36" y2="30.28"/><line class="cls-8" x1="320.53" y1="54.41" x2="323.28" y2="51.67"/><line class="cls-8" x1="324.21" y1="50.79" x2="324.21" y2="50.79"/><line class="cls-8" x1="325.09" y1="49.86" x2="327.83" y2="47.11"/><line class="cls-8" x1="328.77" y1="46.18" x2="328.77" y2="46.18"/><line class="cls-8" x1="329.65" y1="45.3" x2="332.39" y2="42.55"/><line class="cls-8" x1="333.32" y1="41.62" x2="333.32" y2="41.62"/><line class="cls-8" x1="334.26" y1="40.74" x2="337" y2="38"/><line class="cls-8" x1="320.12" y1="62.13" x2="322.34" y2="59.9"/><line class="cls-8" x1="323.28" y1="58.97" x2="323.28" y2="58.97"/><line class="cls-8" x1="324.21" y1="58.09" x2="326.9" y2="55.34"/><line class="cls-8" x1="327.83" y1="54.41" x2="327.83" y2="54.41"/><line class="cls-8" x1="328.77" y1="53.53" x2="331.51" y2="50.79"/><line class="cls-8" x1="332.39" y1="49.86" x2="332.39" y2="49.86"/><line class="cls-8" x1="333.32" y1="48.92" x2="336.07" y2="46.18"/><line class="cls-8" x1="337" y1="45.3" x2="337" y2="45.3"/><line class="cls-8" x1="320.12" y1="69.43" x2="321.46" y2="68.14"/><line class="cls-8" x1="322.34" y1="67.2" x2="322.34" y2="67.2"/><line class="cls-8" x1="323.28" y1="66.32" x2="326.02" y2="63.58"/><line class="cls-8" x1="326.9" y1="62.65" x2="326.9" y2="62.65"/><line class="cls-8" x1="327.83" y1="61.71" x2="330.58" y2="58.97"/><line class="cls-8" x1="331.51" y1="58.09" x2="331.51" y2="58.09"/><line class="cls-8" x1="332.39" y1="57.16" x2="335.14" y2="54.41"/><line class="cls-8" x1="336.07" y1="53.53" x2="336.07" y2="53.53"/><line class="cls-8" x1="337" y1="52.6" x2="337.36" y2="52.19"/><line class="cls-8" x1="320.12" y1="76.73" x2="320.53" y2="76.37"/><line class="cls-8" x1="321.46" y1="75.44" x2="321.46" y2="75.44"/><line class="cls-8" x1="322.34" y1="74.51" x2="325.09" y2="71.76"/><line class="cls-8" x1="326.02" y1="70.88" x2="326.02" y2="70.88"/><line class="cls-8" x1="326.9" y1="69.95" x2="329.65" y2="67.2"/><line class="cls-8" x1="330.58" y1="66.32" x2="330.58" y2="66.32"/><line class="cls-8" x1="331.51" y1="65.39" x2="334.26" y2="62.65"/><line class="cls-8" x1="335.14" y1="61.71" x2="335.14" y2="61.71"/><line class="cls-8" x1="336.07" y1="60.83" x2="337.36" y2="59.54"/><line class="cls-8" x1="320.53" y1="83.67" x2="320.53" y2="83.67"/><line class="cls-8" x1="321.46" y1="82.74" x2="324.21" y2="80"/><line class="cls-8" x1="325.09" y1="79.12" x2="325.09" y2="79.12"/><line class="cls-8" x1="326.02" y1="78.18" x2="328.77" y2="75.44"/><line class="cls-8" x1="329.65" y1="74.51" x2="329.65" y2="74.51"/><line class="cls-8" x1="330.58" y1="73.63" x2="333.32" y2="70.88"/><line class="cls-8" x1="334.26" y1="69.95" x2="334.26" y2="69.95"/><line class="cls-8" x1="335.14" y1="69.07" x2="337.36" y2="66.84"/><line class="cls-8" x1="325.09" y1="86.42" x2="327.83" y2="83.67"/><line class="cls-8" x1="328.77" y1="82.74" x2="328.77" y2="82.74"/><line class="cls-8" x1="329.65" y1="81.86" x2="332.39" y2="79.12"/><line class="cls-8" x1="333.32" y1="78.18" x2="333.32" y2="78.18"/><line class="cls-8" x1="334.26" y1="77.25" x2="337" y2="74.51"/><line class="cls-8" x1="332.39" y1="86.42" x2="332.39" y2="86.42"/><line class="cls-8" x1="333.32" y1="85.49" x2="336.07" y2="82.74"/><line class="cls-8" x1="337" y1="81.86" x2="337" y2="81.86"/><polyline class="cls-8" points="337.36 86.63 320.12 86.63 320.12 0.5 337.36 0.5 337.36 86.63"/></svg>