<svg id="_448" data-name="448" xmlns="http://www.w3.org/2000/svg" viewBox="0 0 320.23 717.46"><defs><style>.cls-1{isolation:isolate;font-size:12px;fill:#969696;}.cls-1,.cls-4,.cls-5{font-family:PTSans-Regular, PT Sans;}.cls-2{letter-spacing:-0.01em;}.cls-3,.cls-6,.cls-7,.cls-8{fill:none;stroke-linecap:round;stroke-linejoin:round;}.cls-3{stroke:#969696;stroke-width:0.75px;}.cls-4{font-size:24px;}.cls-5{font-size:28px;}.cls-6,.cls-8{stroke:#000;}.cls-6{stroke-width:0.5px;}.cls-7{stroke:#7d7d7d;stroke-width:0.6px;stroke-dasharray:4.8 4.8;}</style></defs><title>4floor_448flat</title><text class="cls-1" transform="translate(151.98 713.81)"><tspan class="cls-2">у</tspan><tspan x="5.42" y="0">лица</tspan></text><line class="cls-3" x1="141.22" y1="717.09" x2="141.22" y2="708.29"/><polyline class="cls-3" points="137.72 713.59 141.22 717.09 144.72 713.59"/><text class="cls-4" transform="translate(217.32 153.95)">3.62</text><text class="cls-4" transform="translate(95.44 153.95)">3.24</text><text class="cls-4" transform="translate(92.93 369.92)">1.96</text><text class="cls-4" transform="translate(124.62 544.99)">10.03</text><text class="cls-5" transform="translate(209.21 443.45)">CT</text><text class="cls-5" transform="translate(191.45 480.43)">18.85</text><text class="cls-5" transform="translate(187.76 407.03)">№448</text><polyline class="cls-6" points="179.62 489.78 179.62 381.01 270.32 381.01 270.32 489.78"/><line class="cls-6" x1="179.62" y1="417.34" x2="270.32" y2="417.34"/><line class="cls-6" x1="179.62" y1="489.78" x2="270.32" y2="489.78"/><line class="cls-6" x1="179.62" y1="453.66" x2="270.32" y2="453.66"/><polyline class="cls-7" points="17.95 290.44 17.95 393.95 158.55 393.95 158.55 240.44 68 240.44 68 290.44 17.95 290.44"/><line class="cls-7" x1="263.77" y1="240.44" x2="186.17" y2="240.44"/><line class="cls-7" x1="263.77" y1="233.39" x2="186.17" y2="233.39"/><line class="cls-7" x1="177.54" y1="164.52" x2="177.54" y2="104.14"/><line class="cls-7" x1="170.62" y1="164.52" x2="170.62" y2="104.14"/><line class="cls-8" x1="60.98" y1="243.41" x2="64.14" y2="240.31"/><line class="cls-8" x1="60.98" y1="249.51" x2="67.9" y2="242.59"/><line class="cls-8" x1="60.98" y1="255.6" x2="67.9" y2="248.69"/><line class="cls-8" x1="60.98" y1="261.7" x2="67.9" y2="254.79"/><line class="cls-8" x1="60.98" y1="267.8" x2="67.9" y2="260.88"/><line class="cls-8" x1="60.98" y1="273.89" x2="67.9" y2="266.98"/><line class="cls-8" x1="60.98" y1="279.99" x2="67.9" y2="273.08"/><line class="cls-8" x1="63.7" y1="283.42" x2="67.9" y2="279.23"/><line class="cls-8" x1="60.98" y1="240.31" x2="60.98" y2="283.42"/><line class="cls-8" x1="67.9" y1="283.42" x2="67.9" y2="240.31"/><line class="cls-8" x1="172.26" y1="235.84" x2="174.71" y2="233.39"/><line class="cls-8" x1="173.89" y1="240.31" x2="180.8" y2="233.39"/><line class="cls-8" x1="179.99" y1="240.31" x2="186.08" y2="234.21"/><line class="cls-8" x1="263.71" y1="235.9" x2="266.16" y2="233.39"/><line class="cls-8" x1="265.4" y1="240.31" x2="272.26" y2="233.39"/><line class="cls-8" x1="271.5" y1="240.31" x2="278.36" y2="233.39"/><line class="cls-8" x1="277.6" y1="240.31" x2="284.46" y2="233.39"/><line class="cls-8" x1="283.69" y1="240.31" x2="290.61" y2="233.39"/><line class="cls-8" x1="289.79" y1="240.31" x2="296.7" y2="233.39"/><line class="cls-8" x1="295.89" y1="240.31" x2="302.53" y2="233.66"/><line class="cls-8" x1="301.98" y1="240.31" x2="302.53" y2="239.76"/><line class="cls-8" x1="263.71" y1="240.31" x2="263.71" y2="233.39"/><line class="cls-8" x1="186.08" y1="240.31" x2="186.08" y2="233.39"/><line class="cls-8" x1="302.53" y1="233.39" x2="263.71" y2="233.39"/><line class="cls-8" x1="186.08" y1="233.39" x2="177.43" y2="233.39"/><line class="cls-8" x1="172.26" y1="240.31" x2="186.08" y2="240.31"/><line class="cls-8" x1="263.71" y1="240.31" x2="302.53" y2="240.31"/><line class="cls-8" x1="151.57" y1="244.33" x2="155.6" y2="240.31"/><line class="cls-8" x1="151.57" y1="250.43" x2="158.48" y2="243.52"/><line class="cls-8" x1="151.57" y1="256.53" x2="158.48" y2="249.61"/><line class="cls-8" x1="151.57" y1="262.63" x2="158.48" y2="255.71"/><line class="cls-8" x1="151.57" y1="268.72" x2="158.48" y2="261.81"/><line class="cls-8" x1="151.57" y1="274.82" x2="158.48" y2="267.91"/><line class="cls-8" x1="151.57" y1="280.92" x2="158.48" y2="274"/><polyline class="cls-8" points="153.37 285.22 155.16 283.42 158.48 280.1"/><line class="cls-8" x1="156.41" y1="288.27" x2="158.48" y2="286.2"/><line class="cls-8" x1="158.48" y1="290.33" x2="158.48" y2="240.31"/><line class="cls-8" x1="151.57" y1="240.31" x2="151.57" y2="283.42"/><line class="cls-8" x1="151.57" y1="287.01" x2="153.37" y2="285.22"/><line class="cls-8" x1="154.35" y1="290.33" x2="156.41" y2="288.27"/><line class="cls-8" x1="158.48" y1="290.33" x2="151.57" y2="290.33"/><line class="cls-8" x1="17.87" y1="237.75" x2="22.22" y2="233.39"/><line class="cls-8" x1="21.4" y1="240.31" x2="26.52" y2="235.24"/><line class="cls-8" x1="60.98" y1="237.31" x2="64.9" y2="233.39"/><line class="cls-8" x1="64.14" y1="240.31" x2="71" y2="233.39"/><line class="cls-8" x1="70.24" y1="240.31" x2="77.1" y2="233.39"/><line class="cls-8" x1="76.33" y1="240.31" x2="83.19" y2="233.39"/><line class="cls-8" x1="82.43" y1="240.31" x2="89.29" y2="233.39"/><line class="cls-8" x1="88.53" y1="240.31" x2="95.39" y2="233.39"/><line class="cls-8" x1="94.63" y1="240.31" x2="101.54" y2="233.39"/><line class="cls-8" x1="100.72" y1="240.31" x2="107.64" y2="233.39"/><line class="cls-8" x1="106.82" y1="240.31" x2="113.73" y2="233.39"/><line class="cls-8" x1="112.92" y1="240.31" x2="119.83" y2="233.39"/><line class="cls-8" x1="119.01" y1="240.31" x2="125.93" y2="233.39"/><line class="cls-8" x1="125.11" y1="240.31" x2="132.03" y2="233.39"/><line class="cls-8" x1="131.21" y1="240.31" x2="138.12" y2="233.39"/><line class="cls-8" x1="137.31" y1="240.31" x2="144.22" y2="233.39"/><line class="cls-8" x1="143.4" y1="240.31" x2="150.32" y2="233.39"/><line class="cls-8" x1="149.5" y1="240.31" x2="156.41" y2="233.39"/><line class="cls-8" x1="155.6" y1="240.31" x2="162.51" y2="233.39"/><line class="cls-8" x1="161.69" y1="240.31" x2="168.61" y2="233.39"/><line class="cls-8" x1="167.79" y1="240.31" x2="172.26" y2="235.84"/><polyline class="cls-8" points="26.52 233.39 26.52 236.82 26.52 240.31"/><polyline class="cls-8" points="60.98 233.39 60.98 236.82 60.98 240.31"/><line class="cls-8" x1="17.87" y1="240.31" x2="26.52" y2="240.31"/><line class="cls-8" x1="67.9" y1="240.31" x2="151.57" y2="240.31"/><line class="cls-8" x1="158.48" y1="240.31" x2="172.26" y2="240.31"/><line class="cls-8" x1="172.26" y1="233.39" x2="60.98" y2="233.39"/><line class="cls-8" x1="26.52" y1="233.39" x2="17.87" y2="233.39"/><line class="cls-8" x1="60.98" y1="233.39" x2="26.52" y2="233.39"/><line class="cls-8" x1="60.98" y1="240.31" x2="26.52" y2="240.31"/><path class="cls-8" d="M61,232.86a34.61,34.61,0,0,0-2.08-11.79" transform="translate(0 0.5)"/><line class="cls-8" x1="26.52" y1="233.39" x2="58.91" y2="221.58"/><polyline class="cls-8" points="60.98 240.31 60.98 236.82 60.98 233.39 60.98 236.82"/><polyline class="cls-8" points="26.52 240.31 26.52 236.82 26.52 233.39 26.52 236.82"/><line class="cls-8" x1="17.87" y1="286.52" x2="20.97" y2="283.42"/><line class="cls-8" x1="20.21" y1="290.33" x2="27.07" y2="283.42"/><line class="cls-8" x1="26.3" y1="290.33" x2="33.16" y2="283.42"/><line class="cls-8" x1="32.4" y1="290.33" x2="39.32" y2="283.42"/><line class="cls-8" x1="38.5" y1="290.33" x2="45.41" y2="283.42"/><line class="cls-8" x1="44.6" y1="290.33" x2="51.51" y2="283.42"/><line class="cls-8" x1="50.69" y1="290.33" x2="57.61" y2="283.42"/><line class="cls-8" x1="56.79" y1="290.33" x2="63.7" y2="283.42"/><line class="cls-8" x1="62.89" y1="290.33" x2="69.8" y2="283.42"/><line class="cls-8" x1="68.98" y1="290.33" x2="75.9" y2="283.42"/><line class="cls-8" x1="75.08" y1="290.33" x2="82" y2="283.42"/><line class="cls-8" x1="81.18" y1="290.33" x2="88.09" y2="283.42"/><line class="cls-8" x1="87.28" y1="290.33" x2="94.19" y2="283.42"/><line class="cls-8" x1="93.37" y1="290.33" x2="100.29" y2="283.42"/><line class="cls-8" x1="99.47" y1="290.33" x2="106.38" y2="283.42"/><line class="cls-8" x1="105.57" y1="290.33" x2="112.48" y2="283.42"/><line class="cls-8" x1="111.67" y1="290.33" x2="118.58" y2="283.42"/><line class="cls-8" x1="117.76" y1="290.33" x2="124.68" y2="283.42"/><line class="cls-8" x1="123.86" y1="290.33" x2="130.77" y2="283.42"/><line class="cls-8" x1="129.96" y1="290.33" x2="136.87" y2="283.42"/><line class="cls-8" x1="136.05" y1="290.33" x2="142.97" y2="283.42"/><line class="cls-8" x1="142.15" y1="290.33" x2="149.06" y2="283.42"/><line class="cls-8" x1="148.25" y1="290.33" x2="151.57" y2="287.01"/><line class="cls-8" x1="151.57" y1="283.42" x2="67.9" y2="283.42"/><line class="cls-8" x1="60.98" y1="283.42" x2="17.87" y2="283.42"/><line class="cls-8" x1="17.87" y1="290.33" x2="151.57" y2="290.33"/><line class="cls-8" x1="170.51" y1="170.46" x2="176.61" y2="164.36"/><line class="cls-8" x1="170.51" y1="176.56" x2="177.43" y2="169.64"/><line class="cls-8" x1="170.51" y1="182.65" x2="177.43" y2="175.74"/><line class="cls-8" x1="170.51" y1="188.75" x2="177.43" y2="181.84"/><line class="cls-8" x1="170.51" y1="194.85" x2="177.43" y2="187.93"/><line class="cls-8" x1="170.51" y1="200.95" x2="177.43" y2="194.03"/><line class="cls-8" x1="170.51" y1="207.04" x2="177.43" y2="200.13"/><line class="cls-8" x1="170.51" y1="213.14" x2="177.43" y2="206.28"/><line class="cls-8" x1="170.51" y1="219.24" x2="177.43" y2="212.38"/><line class="cls-8" x1="170.51" y1="225.33" x2="177.43" y2="218.48"/><line class="cls-8" x1="170.51" y1="231.43" x2="177.43" y2="224.57"/><line class="cls-8" x1="174.71" y1="233.39" x2="177.43" y2="230.67"/><line class="cls-8" x1="170.51" y1="79" x2="173.94" y2="75.57"/><line class="cls-8" x1="170.51" y1="85.1" x2="177.43" y2="78.18"/><line class="cls-8" x1="170.51" y1="91.2" x2="177.43" y2="84.28"/><line class="cls-8" x1="170.51" y1="97.29" x2="177.43" y2="90.38"/><line class="cls-8" x1="170.51" y1="103.39" x2="177.43" y2="96.48"/><line class="cls-8" x1="176.01" y1="103.99" x2="177.43" y2="102.57"/><line class="cls-8" x1="170.51" y1="103.99" x2="177.43" y2="103.99"/><polyline class="cls-8" points="170.51 164.36 177.43 164.36 177.43 233.39"/><polyline class="cls-8" points="177.43 103.99 177.43 75.57 170.51 75.57 170.51 103.99"/><line class="cls-8" x1="170.51" y1="164.36" x2="170.51" y2="233.39"/><line class="cls-8" x1="17.87" y1="2.95" x2="20.32" y2="0.5"/><line class="cls-8" x1="23.69" y1="10.84" x2="34.03" y2="0.5"/><line class="cls-8" x1="37.41" y1="10.84" x2="47.75" y2="0.5"/><line class="cls-8" x1="51.13" y1="10.84" x2="61.47" y2="0.5"/><line class="cls-8" x1="64.85" y1="10.84" x2="75.19" y2="0.5"/><line class="cls-8" x1="78.57" y1="10.84" x2="88.91" y2="0.5"/><line class="cls-8" x1="92.28" y1="10.84" x2="102.63" y2="0.5"/><line class="cls-8" x1="106" y1="10.84" x2="116.35" y2="0.5"/><line class="cls-8" x1="119.72" y1="10.84" x2="130.07" y2="0.5"/><line class="cls-8" x1="133.44" y1="10.84" x2="143.78" y2="0.5"/><line class="cls-8" x1="147.16" y1="10.84" x2="157.5" y2="0.5"/><line class="cls-8" x1="19.12" y1="10.84" x2="29.46" y2="0.5"/><line class="cls-8" x1="32.84" y1="10.84" x2="43.18" y2="0.5"/><line class="cls-8" x1="46.56" y1="10.84" x2="56.9" y2="0.5"/><line class="cls-8" x1="60.27" y1="10.84" x2="70.62" y2="0.5"/><line class="cls-8" x1="73.99" y1="10.84" x2="84.34" y2="0.5"/><line class="cls-8" x1="87.71" y1="10.84" x2="98.06" y2="0.5"/><line class="cls-8" x1="101.43" y1="10.84" x2="111.77" y2="0.5"/><line class="cls-8" x1="115.15" y1="10.84" x2="125.49" y2="0.5"/><line class="cls-8" x1="128.87" y1="10.84" x2="139.21" y2="0.5"/><line class="cls-8" x1="142.59" y1="10.84" x2="152.93" y2="0.5"/><line class="cls-8" x1="156.31" y1="10.84" x2="160.17" y2="6.98"/><line class="cls-8" x1="17.87" y1="10.84" x2="115.31" y2="10.84"/><polyline class="cls-8" points="125.71 10.84 160.17 10.84 160.17 0.5 17.87 0.5"/><line class="cls-8" x1="115.31" y1="15.25" x2="119.72" y2="10.84"/><line class="cls-8" x1="115.31" y1="28.97" x2="125.71" y2="18.63"/><line class="cls-8" x1="115.31" y1="42.69" x2="125.71" y2="32.35"/><line class="cls-8" x1="115.31" y1="56.41" x2="125.71" y2="46.07"/><line class="cls-8" x1="115.31" y1="24.4" x2="125.71" y2="14.06"/><line class="cls-8" x1="115.31" y1="38.12" x2="125.71" y2="27.77"/><line class="cls-8" x1="115.31" y1="51.84" x2="125.71" y2="41.49"/><line class="cls-8" x1="122.61" y1="58.31" x2="125.71" y2="55.21"/><polyline class="cls-8" points="115.31 10.84 115.31 58.31 125.71 58.31 125.71 10.84"/><line class="cls-8" x1="0.5" y1="624.1" x2="10.84" y2="613.76"/><line class="cls-8" x1="14.22" y1="624.1" x2="24.56" y2="613.76"/><line class="cls-8" x1="27.94" y1="624.1" x2="38.28" y2="613.76"/><line class="cls-8" x1="41.66" y1="624.1" x2="52" y2="613.76"/><line class="cls-8" x1="55.37" y1="624.1" x2="65.72" y2="613.76"/><line class="cls-8" x1="69.09" y1="624.1" x2="73.07" y2="620.13"/><line class="cls-8" x1="9.65" y1="624.1" x2="19.99" y2="613.76"/><line class="cls-8" x1="23.36" y1="624.1" x2="33.71" y2="613.76"/><line class="cls-8" x1="37.08" y1="624.1" x2="47.43" y2="613.76"/><line class="cls-8" x1="50.8" y1="624.1" x2="61.15" y2="613.76"/><line class="cls-8" x1="64.52" y1="624.1" x2="73.07" y2="615.56"/><line class="cls-8" x1="275.75" y1="623.29" x2="285.27" y2="613.76"/><line class="cls-8" x1="288.65" y1="624.1" x2="298.99" y2="613.76"/><line class="cls-8" x1="302.37" y1="624.1" x2="312.76" y2="613.76"/><line class="cls-8" x1="275.75" y1="618.71" x2="280.7" y2="613.76"/><line class="cls-8" x1="284.07" y1="624.1" x2="294.42" y2="613.76"/><line class="cls-8" x1="297.79" y1="624.1" x2="308.19" y2="613.76"/><line class="cls-8" x1="17.87" y1="585.4" x2="19.06" y2="584.2"/><line class="cls-8" x1="22.11" y1="581.15" x2="24.83" y2="578.43"/><line class="cls-8" x1="27.61" y1="611.04" x2="36.76" y2="601.89"/><line class="cls-8" x1="39.81" y1="598.84" x2="48.95" y2="589.7"/><line class="cls-8" x1="52" y1="586.65" x2="60.22" y2="578.43"/><line class="cls-8" x1="61.09" y1="612.89" x2="66.64" y2="607.39"/><line class="cls-8" x1="8.07" y1="612.89" x2="9.59" y2="611.36"/><line class="cls-8" x1="12.64" y1="608.31" x2="21.79" y2="599.17"/><line class="cls-8" x1="24.83" y1="596.12" x2="33.98" y2="586.97"/><line class="cls-8" x1="37.03" y1="583.87" x2="42.53" y2="578.43"/><line class="cls-8" x1="43.4" y1="612.89" x2="51.67" y2="604.61"/><line class="cls-8" x1="54.72" y1="601.56" x2="63.87" y2="592.42"/><line class="cls-8" x1="66.92" y1="589.37" x2="69.64" y2="586.7"/><line class="cls-8" x1="279.23" y1="607.06" x2="282.55" y2="603.74"/><line class="cls-8" x1="285.6" y1="600.69" x2="294.74" y2="591.55"/><line class="cls-8" x1="297.79" y1="588.5" x2="302.53" y2="583.76"/><line class="cls-8" x1="308.74" y1="612.89" x2="312.44" y2="609.19"/><line class="cls-8" x1="279.23" y1="589.37" x2="279.77" y2="588.77"/><line class="cls-8" x1="282.82" y1="585.72" x2="290.17" y2="578.43"/><line class="cls-8" x1="291.04" y1="612.89" x2="297.47" y2="606.46"/><line class="cls-8" x1="300.52" y1="603.42" x2="308.3" y2="595.63"/><line class="cls-8" x1="0.61" y1="613.76" x2="73.07" y2="613.76"/><line class="cls-8" x1="275.75" y1="613.76" x2="319.73" y2="613.76"/><line class="cls-8" x1="0.61" y1="612.89" x2="69.64" y2="612.89"/><line class="cls-8" x1="279.23" y1="612.89" x2="319.73" y2="612.89"/><line class="cls-8" x1="279.23" y1="607.72" x2="279.23" y2="578.43"/><line class="cls-8" x1="275.75" y1="613.76" x2="275.75" y2="612.89"/><line class="cls-8" x1="275.75" y1="624.1" x2="275.75" y2="613.76"/><line class="cls-8" x1="275.75" y1="612.89" x2="279.23" y2="612.89"/><line class="cls-8" x1="279.23" y1="612.89" x2="279.23" y2="607.72"/><line class="cls-8" x1="69.64" y1="607.72" x2="69.64" y2="578.43"/><line class="cls-8" x1="73.07" y1="613.76" x2="73.07" y2="612.89"/><line class="cls-8" x1="73.07" y1="624.1" x2="73.07" y2="613.76"/><line class="cls-8" x1="73.07" y1="612.89" x2="69.64" y2="612.89"/><line class="cls-8" x1="69.64" y1="612.89" x2="69.64" y2="607.72"/><line class="cls-8" x1="302.53" y1="578.43" x2="279.23" y2="578.43"/><line class="cls-8" x1="69.64" y1="578.43" x2="17.87" y2="578.43"/><polyline class="cls-8" points="73.07 624.1 0.61 624.1 0.61 594.79"/><polyline class="cls-8" points="275.75 624.1 319.73 624.1 319.73 534.82"/><line class="cls-8" x1="73.07" y1="624.1" x2="275.75" y2="624.1"/><line class="cls-8" x1="69.64" y1="578.43" x2="279.23" y2="578.43"/><polyline class="cls-8" points="69.64 607.72 74.37 607.72 74.37 611.2 76.55 611.2 76.55 612.89 69.64 612.89"/><polyline class="cls-8" points="140.63 612.89 137.2 612.89 137.2 611.2 139.32 611.2 139.32 607.72 140.63 607.72"/><line class="cls-8" x1="137.2" y1="612.89" x2="76.55" y2="612.89"/><polyline class="cls-8" points="74.37 606.03 79.55 606.03 134.15 606.03"/><polyline class="cls-8" points="79.55 606.03 79.55 611.2 74.37 611.2 74.37 606.03"/><polyline class="cls-8" points="139.32 611.2 134.15 611.2 134.15 606.03 139.32 606.03 139.32 611.2"/><line class="cls-8" x1="134.15" y1="611.2" x2="79.55" y2="611.2"/><line class="cls-8" x1="79.55" y1="606.03" x2="134.15" y2="606.03"/><line class="cls-8" x1="79.55" y1="608.59" x2="134.15" y2="608.59"/><polyline class="cls-8" points="140.63 607.72 141.93 607.72 141.93 611.2 144.11 611.2 144.11 612.89 140.63 612.89"/><polyline class="cls-8" points="208.19 612.89 204.76 612.89 204.76 611.2 206.93 611.2 206.93 607.72 208.19 607.72"/><line class="cls-8" x1="204.76" y1="612.89" x2="144.11" y2="612.89"/><polyline class="cls-8" points="141.93 606.03 147.1 606.03 201.76 606.03"/><polyline class="cls-8" points="147.1 606.03 147.1 611.2 141.93 611.2 141.93 606.03"/><polyline class="cls-8" points="206.93 611.2 201.76 611.2 201.76 606.03 206.93 606.03 206.93 611.2"/><line class="cls-8" x1="201.76" y1="611.2" x2="147.11" y2="611.2"/><line class="cls-8" x1="147.11" y1="606.03" x2="201.76" y2="606.03"/><line class="cls-8" x1="147.11" y1="608.59" x2="201.76" y2="608.59"/><polyline class="cls-8" points="208.19 607.72 209.49 607.72 209.49 611.2 211.67 611.2 211.67 612.89 208.19 612.89"/><polyline class="cls-8" points="279.23 612.89 272.31 612.89 272.31 611.2 274.49 611.2 274.49 607.72 279.23 607.72"/><line class="cls-8" x1="272.32" y1="612.89" x2="211.67" y2="612.89"/><polyline class="cls-8" points="209.49 606.03 214.66 606.03 269.32 606.03"/><polyline class="cls-8" points="214.66 606.03 214.66 611.2 209.49 611.2 209.49 606.03"/><polyline class="cls-8" points="274.49 611.2 269.32 611.2 269.32 606.03 274.49 606.03 274.49 611.2"/><line class="cls-8" x1="269.32" y1="611.2" x2="214.66" y2="611.2"/><line class="cls-8" x1="214.66" y1="606.03" x2="269.32" y2="606.03"/><line class="cls-8" x1="214.66" y1="608.59" x2="269.32" y2="608.59"/><polyline class="cls-8" points="69.64 607.72 69.64 612.89 69.64 607.72"/><polyline class="cls-8" points="69.64 612.89 73.07 612.89 69.64 612.89"/><polyline class="cls-8" points="73.07 624.1 73.07 613.76 73.07 612.89"/><line class="cls-8" x1="69.64" y1="607.72" x2="69.64" y2="578.43"/><polyline class="cls-8" points="279.23 607.72 279.23 612.89 279.23 607.72"/><polyline class="cls-8" points="279.23 612.89 275.75 612.89 279.23 612.89"/><polyline class="cls-8" points="275.75 624.1 275.75 613.76 275.75 612.89"/><line class="cls-8" x1="279.23" y1="607.72" x2="279.23" y2="578.43"/><line class="cls-8" x1="15.91" y1="233.39" x2="9.16" y2="226.64"/><line class="cls-8" x1="6.87" y1="224.35" x2="0.61" y2="218.15"/><line class="cls-8" x1="17.87" y1="210.96" x2="12.2" y2="205.3"/><line class="cls-8" x1="9.92" y1="203.01" x2="3.06" y2="196.15"/><line class="cls-8" x1="0.77" y1="193.87" x2="0.61" y2="193.71"/><line class="cls-8" x1="17.87" y1="186.57" x2="15.25" y2="183.96"/><line class="cls-8" x1="12.97" y1="181.67" x2="6.11" y2="174.81"/><line class="cls-8" x1="3.82" y1="172.53" x2="0.61" y2="169.32"/><line class="cls-8" x1="16.02" y1="160.33" x2="9.16" y2="153.47"/><line class="cls-8" x1="6.87" y1="151.19" x2="0.61" y2="144.93"/><line class="cls-8" x1="17.87" y1="137.8" x2="12.2" y2="132.13"/><line class="cls-8" x1="9.92" y1="129.85" x2="3.06" y2="122.99"/><line class="cls-8" x1="0.77" y1="120.7" x2="0.61" y2="120.54"/><line class="cls-8" x1="17.87" y1="113.41" x2="15.25" y2="110.74"/><line class="cls-8" x1="12.97" y1="108.45" x2="6.11" y2="101.59"/><line class="cls-8" x1="3.82" y1="99.31" x2="0.61" y2="96.15"/><line class="cls-8" x1="16.02" y1="87.11" x2="15.63" y2="86.79"/><line class="cls-8" x1="3.71" y1="233.39" x2="0.61" y2="230.34"/><line class="cls-8" x1="17.54" y1="222.83" x2="10.68" y2="215.97"/><line class="cls-8" x1="8.39" y1="213.68" x2="1.53" y2="206.82"/><line class="cls-8" x1="17.87" y1="198.77" x2="13.73" y2="194.63"/><line class="cls-8" x1="11.44" y1="192.34" x2="4.58" y2="185.48"/><line class="cls-8" x1="2.3" y1="183.2" x2="0.61" y2="181.51"/><line class="cls-8" x1="17.87" y1="174.38" x2="16.78" y2="173.29"/><line class="cls-8" x1="14.49" y1="171" x2="7.63" y2="164.14"/><line class="cls-8" x1="5.35" y1="161.86" x2="0.61" y2="157.12"/><line class="cls-8" x1="17.54" y1="149.66" x2="10.68" y2="142.8"/><line class="cls-8" x1="8.39" y1="140.52" x2="1.53" y2="133.66"/><line class="cls-8" x1="17.87" y1="125.6" x2="13.73" y2="121.46"/><line class="cls-8" x1="11.44" y1="119.18" x2="4.58" y2="112.26"/><line class="cls-8" x1="2.3" y1="109.98" x2="0.61" y2="108.34"/><line class="cls-8" x1="17.87" y1="101.21" x2="16.78" y2="100.07"/><line class="cls-8" x1="14.49" y1="97.78" x2="7.63" y2="90.92"/><line class="cls-8" x1="5.35" y1="88.64" x2="3.44" y2="86.79"/><line class="cls-8" x1="17.87" y1="503.74" x2="12.2" y2="498.08"/><line class="cls-8" x1="9.92" y1="495.79" x2="3.06" y2="488.93"/><line class="cls-8" x1="0.77" y1="486.64" x2="0.61" y2="486.48"/><line class="cls-8" x1="17.87" y1="479.35" x2="15.25" y2="476.73"/><line class="cls-8" x1="12.97" y1="474.39" x2="6.11" y2="467.53"/><line class="cls-8" x1="3.82" y1="465.25" x2="0.61" y2="462.09"/><line class="cls-8" x1="16.02" y1="453.05" x2="9.16" y2="446.19"/><line class="cls-8" x1="6.87" y1="443.91" x2="0.61" y2="437.7"/><line class="cls-8" x1="17.87" y1="430.52" x2="12.2" y2="424.85"/><line class="cls-8" x1="9.92" y1="422.57" x2="3.06" y2="415.71"/><line class="cls-8" x1="0.77" y1="413.42" x2="0.61" y2="413.31"/><line class="cls-8" x1="17.87" y1="406.13" x2="15.25" y2="403.51"/><line class="cls-8" x1="12.97" y1="401.23" x2="6.11" y2="394.37"/><line class="cls-8" x1="3.82" y1="392.08" x2="0.61" y2="388.87"/><line class="cls-8" x1="16.02" y1="379.89" x2="9.16" y2="373.03"/><line class="cls-8" x1="6.87" y1="370.74" x2="0.61" y2="364.48"/><line class="cls-8" x1="17.87" y1="357.35" x2="12.2" y2="351.69"/><line class="cls-8" x1="9.92" y1="349.4" x2="3.06" y2="342.54"/><line class="cls-8" x1="0.77" y1="340.26" x2="0.61" y2="340.09"/><line class="cls-8" x1="11.33" y1="509.4" x2="10.68" y2="508.75"/><line class="cls-8" x1="8.39" y1="506.46" x2="1.53" y2="499.6"/><line class="cls-8" x1="17.87" y1="491.54" x2="13.73" y2="487.41"/><line class="cls-8" x1="11.44" y1="485.12" x2="4.58" y2="478.26"/><line class="cls-8" x1="2.3" y1="475.92" x2="0.61" y2="474.29"/><line class="cls-8" x1="17.87" y1="467.15" x2="16.78" y2="466.01"/><line class="cls-8" x1="14.49" y1="463.72" x2="7.63" y2="456.86"/><line class="cls-8" x1="5.35" y1="454.58" x2="0.61" y2="449.9"/><line class="cls-8" x1="17.54" y1="442.38" x2="10.68" y2="435.52"/><line class="cls-8" x1="8.39" y1="433.24" x2="1.53" y2="426.38"/><line class="cls-8" x1="17.87" y1="418.32" x2="13.73" y2="414.18"/><line class="cls-8" x1="11.44" y1="411.9" x2="4.58" y2="405.04"/><line class="cls-8" x1="2.3" y1="402.75" x2="0.61" y2="401.12"/><line class="cls-8" x1="17.87" y1="393.93" x2="16.78" y2="392.84"/><line class="cls-8" x1="14.49" y1="390.56" x2="7.63" y2="383.7"/><line class="cls-8" x1="5.35" y1="381.41" x2="0.61" y2="376.68"/><line class="cls-8" x1="17.54" y1="369.22" x2="10.68" y2="362.36"/><line class="cls-8" x1="8.39" y1="360.07" x2="1.53" y2="353.21"/><line class="cls-8" x1="17.87" y1="345.16" x2="13.73" y2="341.02"/><line class="cls-8" x1="11.44" y1="338.73" x2="9.59" y2="336.88"/><line class="cls-8" x1="0.61" y1="86.79" x2="0.61" y2="233.39"/><line class="cls-8" x1="0.61" y1="336.88" x2="0.61" y2="509.4"/><line class="cls-8" x1="17.87" y1="509.4" x2="17.87" y2="336.88"/><line class="cls-8" x1="17.87" y1="233.39" x2="17.87" y2="86.79"/><line class="cls-8" x1="287.4" y1="17" x2="280.54" y2="10.14"/><line class="cls-8" x1="278.25" y1="7.85" x2="271.39" y2="0.99"/><line class="cls-8" x1="302.53" y1="7.69" x2="301.88" y2="7.09"/><line class="cls-8" x1="299.59" y1="4.8" x2="295.34" y2="0.5"/><line class="cls-8" x1="275.96" y1="17.76" x2="269.87" y2="11.66"/><line class="cls-8" x1="300.35" y1="17.76" x2="300.35" y2="17.76"/><line class="cls-8" x1="298.07" y1="15.47" x2="291.21" y2="8.61"/><line class="cls-8" x1="288.92" y1="6.33" x2="283.15" y2="0.5"/><line class="cls-8" x1="177.43" y1="4.58" x2="176.88" y2="4.04"/><line class="cls-8" x1="174.6" y1="1.75" x2="173.34" y2="0.5"/><line class="cls-8" x1="177.43" y1="16.78" x2="175.36" y2="14.71"/><line class="cls-8" x1="173.07" y1="12.42" x2="166.21" y2="5.56"/><line class="cls-8" x1="163.93" y1="3.28" x2="161.15" y2="0.5"/><polyline class="cls-8" points="177.43 0.5 177.43 7.41 177.43 17.76"/><polyline class="cls-8" points="302.53 0.5 268.01 0.5 268.01 7.41 268.01 17.76"/><line class="cls-8" x1="177.43" y1="0.5" x2="160.17" y2="0.5"/><line class="cls-8" x1="268.01" y1="17.76" x2="302.53" y2="17.76"/><path class="cls-8" d="M185.19,86.23A79.34,79.34,0,0,0,264.53,6.89" transform="translate(0 0.5)"/><line class="cls-8" x1="181.73" y1="7.41" x2="177.43" y2="7.41"/><polyline class="cls-8" points="181.73 0.5 177.43 0.5 177.43 7.41"/><polyline class="cls-8" points="268.01 0.5 264.53 0.5 264.53 7.41 268.01 7.41 268.01 0.5"/><polyline class="cls-8" points="181.73 7.41 185.21 7.41 185.21 0.5 181.73 0.5 181.73 7.41"/><line class="cls-8" x1="185.21" y1="7.41" x2="185.21" y2="86.79"/><polyline class="cls-8" points="268.01 17.76 268.01 7.41 268.01 0.5 268.01 7.41"/><polyline class="cls-8" points="177.43 17.76 177.43 7.41 177.43 0.5 177.43 7.41"/><line class="cls-8" x1="166.21" y1="17.76" x2="164.69" y2="16.23"/><line class="cls-8" x1="162.4" y1="13.95" x2="160.17" y2="11.77"/><line class="cls-8" x1="160.17" y1="0.5" x2="160.17" y2="17.76"/><line class="cls-8" x1="174.6" y1="74.92" x2="167.74" y2="68.06"/><line class="cls-8" x1="165.45" y1="65.77" x2="160.17" y2="60.55"/><line class="cls-8" x1="163" y1="75.57" x2="160.17" y2="72.74"/><line class="cls-8" x1="28.21" y1="74.92" x2="21.35" y2="68.06"/><line class="cls-8" x1="19.06" y1="65.77" x2="17.87" y2="64.58"/><line class="cls-8" x1="53.2" y1="75.57" x2="51.84" y2="74.16"/><line class="cls-8" x1="49.55" y1="71.87" x2="42.69" y2="65.01"/><line class="cls-8" x1="40.4" y1="62.72" x2="35.99" y2="58.31"/><line class="cls-8" x1="77.64" y1="75.57" x2="73.18" y2="71.11"/><line class="cls-8" x1="70.89" y1="68.82" x2="64.03" y2="61.96"/><line class="cls-8" x1="61.74" y1="59.68" x2="60.38" y2="58.31"/><line class="cls-8" x1="101.38" y1="74.92" x2="94.52" y2="68.06"/><line class="cls-8" x1="92.23" y1="65.77" x2="85.37" y2="58.91"/><line class="cls-8" x1="126.42" y1="75.57" x2="125" y2="74.16"/><line class="cls-8" x1="122.72" y1="71.87" x2="115.86" y2="65.01"/><line class="cls-8" x1="113.57" y1="62.72" x2="109.16" y2="58.31"/><line class="cls-8" x1="150.81" y1="75.57" x2="146.4" y2="71.11"/><line class="cls-8" x1="144.11" y1="68.82" x2="137.25" y2="61.96"/><line class="cls-8" x1="134.97" y1="59.68" x2="133.55" y2="58.31"/><line class="cls-8" x1="160.17" y1="60.55" x2="158.59" y2="58.91"/><line class="cls-8" x1="38.88" y1="73.39" x2="32.02" y2="66.53"/><line class="cls-8" x1="29.73" y1="64.25" x2="23.75" y2="58.31"/><line class="cls-8" x1="65.39" y1="75.57" x2="62.51" y2="72.63"/><line class="cls-8" x1="60.22" y1="70.35" x2="53.36" y2="63.49"/><line class="cls-8" x1="51.07" y1="61.2" x2="48.19" y2="58.31"/><line class="cls-8" x1="89.83" y1="75.57" x2="83.85" y2="69.58"/><line class="cls-8" x1="81.56" y1="67.3" x2="74.7" y2="60.44"/><line class="cls-8" x1="112.05" y1="73.39" x2="105.19" y2="66.53"/><line class="cls-8" x1="102.9" y1="64.25" x2="96.97" y2="58.31"/><line class="cls-8" x1="138.61" y1="75.57" x2="135.73" y2="72.63"/><line class="cls-8" x1="133.44" y1="70.35" x2="126.53" y2="63.49"/><line class="cls-8" x1="124.24" y1="61.2" x2="121.36" y2="58.31"/><line class="cls-8" x1="160.17" y1="72.74" x2="157.07" y2="69.58"/><line class="cls-8" x1="154.78" y1="67.3" x2="147.92" y2="60.44"/><line class="cls-8" x1="160.17" y1="58.31" x2="17.87" y2="58.31"/><line class="cls-8" x1="17.87" y1="75.57" x2="177.43" y2="75.57"/><line class="cls-8" x1="176.12" y1="64.25" x2="170.13" y2="58.31"/><line class="cls-8" x1="177.43" y1="75.57" x2="177.43" y2="58.31"/><line class="cls-8" x1="177.43" y1="53.42" x2="170.79" y2="46.72"/><line class="cls-8" x1="168.5" y1="44.43" x2="161.64" y2="37.57"/><line class="cls-8" x1="177.43" y1="29.03" x2="173.83" y2="25.38"/><line class="cls-8" x1="171.55" y1="23.09" x2="166.21" y2="17.76"/><line class="cls-8" x1="170.13" y1="58.31" x2="169.26" y2="57.39"/><line class="cls-8" x1="166.98" y1="55.1" x2="160.17" y2="48.35"/><line class="cls-8" x1="177.43" y1="41.22" x2="172.31" y2="36.05"/><line class="cls-8" x1="170.02" y1="33.76" x2="163.16" y2="26.9"/><line class="cls-8" x1="160.88" y1="24.62" x2="160.17" y2="23.96"/><line class="cls-8" x1="160.17" y1="17.76" x2="160.17" y2="58.31"/><line class="cls-8" x1="177.43" y1="58.31" x2="177.43" y2="17.76"/><line class="cls-8" x1="0.61" y1="181.62" x2="0.61" y2="214.39"/><line class="cls-8" x1="0.61" y1="107.47" x2="0.61" y2="31.58"/><line class="cls-8" x1="22.17" y1="342.05" x2="69.64" y2="342.05"/><line class="cls-8" x1="69.64" y1="342.05" x2="69.64" y2="294.64"/><line class="cls-8" x1="69.64" y1="294.64" x2="22.17" y2="294.64"/><line class="cls-8" x1="22.17" y1="294.64" x2="22.17" y2="342.05"/><line class="cls-8" x1="26.52" y1="337.75" x2="65.34" y2="337.75"/><line class="cls-8" x1="65.34" y1="337.75" x2="65.34" y2="303.24"/><line class="cls-8" x1="65.34" y1="303.24" x2="26.52" y2="303.24"/><line class="cls-8" x1="26.52" y1="303.24" x2="26.52" y2="337.75"/><line class="cls-8" x1="163.27" y1="233.39" x2="116.67" y2="233.39"/><line class="cls-8" x1="116.67" y1="233.39" x2="116.67" y2="213.68"/><line class="cls-8" x1="163.27" y1="233.39" x2="163.27" y2="213.68"/><line class="cls-8" x1="132.62" y1="233.39" x2="147.32" y2="233.39"/><line class="cls-8" x1="136.05" y1="217.6" x2="138.56" y2="217.6"/><line class="cls-8" x1="139.97" y1="221.52" x2="139.97" y2="219.02"/><line class="cls-8" x1="141.39" y1="217.6" x2="143.89" y2="217.6"/><line class="cls-8" x1="139.97" y1="216.13" x2="139.97" y2="213.68"/><path class="cls-8" d="M152.3,221.79a20.76,20.76,0,0,0,8-9.82" transform="translate(0 0.5)"/><path class="cls-8" d="M139.92,224.66a20.76,20.76,0,0,0,12.38-2.91" transform="translate(0 0.5)"/><path class="cls-8" d="M119.49,212a20.82,20.82,0,0,0,8.05,9.82" transform="translate(0 0.5)"/><path class="cls-8" d="M127.55,221.75a20.76,20.76,0,0,0,12.38,2.91" transform="translate(0 0.5)"/><path class="cls-8" d="M155.69,201.4a38.37,38.37,0,0,0-14.13-3.85" transform="translate(0 0.5)"/><path class="cls-8" d="M121.05,203.43a11.85,11.85,0,0,0-4.42,9.74" transform="translate(0 0.5)"/><path class="cls-8" d="M141.58,197.56a25.33,25.33,0,0,0-3.26,0" transform="translate(0 0.5)"/><path class="cls-8" d="M126.92,221A85,85,0,0,0,153,221" transform="translate(0 0.5)"/><path class="cls-8" d="M117.82,210.1a29.3,29.3,0,0,0,6.62,19.05" transform="translate(0 0.5)"/><path class="cls-8" d="M126.63,230.47A58.54,58.54,0,0,0,140,231.91" transform="translate(0 0.5)"/><path class="cls-8" d="M124.47,229.18a3.9,3.9,0,0,0,2.15,1.33" transform="translate(0 0.5)"/><path class="cls-8" d="M126.79,229.17a99.73,99.73,0,0,0,13.14.94" transform="translate(0 0.5)"/><path class="cls-8" d="M117.88,210.09a26.28,26.28,0,0,0,6.57,17.75" transform="translate(0 0.5)"/><path class="cls-8" d="M124.4,227.87a3.9,3.9,0,0,0,2.38,1.28" transform="translate(0 0.5)"/><path class="cls-8" d="M155.42,227.87a26.29,26.29,0,0,0,6.6-17.75" transform="translate(0 0.5)"/><path class="cls-8" d="M155.44,229.18a29.39,29.39,0,0,0,6.64-19.05" transform="translate(0 0.5)"/><path class="cls-8" d="M139.94,230.11a97.76,97.76,0,0,0,13.13-.92" transform="translate(0 0.5)"/><path class="cls-8" d="M139.92,231.91a58.64,58.64,0,0,0,13.33-1.42" transform="translate(0 0.5)"/><path class="cls-8" d="M153.05,229.15a3.85,3.85,0,0,0,2.39-1.28" transform="translate(0 0.5)"/><path class="cls-8" d="M153.27,230.51a3.9,3.9,0,0,0,2.16-1.33" transform="translate(0 0.5)"/><path class="cls-8" d="M163.21,213.17a11.85,11.85,0,0,0-4.42-9.74" transform="translate(0 0.5)"/><path class="cls-8" d="M158.84,203.39a19.12,19.12,0,0,0-3.1-2" transform="translate(0 0.5)"/><path class="cls-8" d="M124.16,201.38a18.7,18.7,0,0,0-3.1,2" transform="translate(0 0.5)"/><path class="cls-8" d="M138.28,197.55a38.48,38.48,0,0,0-14.13,3.85" transform="translate(0 0.5)"/><path class="cls-8" d="M146.35,200.88a27.46,27.46,0,0,0-12.81,0" transform="translate(0 0.5)"/><path class="cls-8" d="M160.37,212a7,7,0,0,0-2.4-5.78" transform="translate(0 0.5)"/><path class="cls-8" d="M158,206.16a25.34,25.34,0,0,0-11.63-5.33" transform="translate(0 0.5)"/><path class="cls-8" d="M121.93,206.17a7,7,0,0,0-2.41,5.78" transform="translate(0 0.5)"/><path class="cls-8" d="M133.54,200.83a25.35,25.35,0,0,0-11.62,5.33" transform="translate(0 0.5)"/><path class="cls-8" d="M136.93,217.08a3,3,0,1,0,3-3,3,3,0,0,0-3,3" transform="translate(0 0.5)"/><path class="cls-8" d="M137.8,217.08a2.15,2.15,0,1,0,2.15-2.15,2.15,2.15,0,0,0-2.15,2.15" transform="translate(0 0.5)"/><line class="cls-8" x1="31.15" y1="182.93" x2="61.58" y2="182.93"/><line class="cls-8" x1="17.87" y1="181.62" x2="17.87" y2="214.39"/><line class="cls-8" x1="17.87" y1="181.62" x2="29.3" y2="181.62"/><line class="cls-8" x1="36.48" y1="198.01" x2="36.48" y2="210.2"/><line class="cls-8" x1="61.53" y1="182.93" x2="36.48" y2="185.87"/><line class="cls-8" x1="36.48" y1="198.01" x2="36.48" y2="185.87"/><line class="cls-8" x1="61.53" y1="213.14" x2="36.48" y2="210.2"/><line class="cls-8" x1="61.53" y1="183.69" x2="36.48" y2="186.63"/><line class="cls-8" x1="61.53" y1="212.32" x2="36.48" y2="209.38"/><line class="cls-8" x1="31.1" y1="213.14" x2="61.58" y2="213.14"/><line class="cls-8" x1="17.87" y1="214.39" x2="29.3" y2="214.39"/><line class="cls-8" x1="61.53" y1="182.93" x2="64.9" y2="183.36"/><line class="cls-8" x1="64.9" y1="183.36" x2="68.11" y2="184.67"/><line class="cls-8" x1="68.11" y1="184.67" x2="70.89" y2="186.74"/><line class="cls-8" x1="70.89" y1="186.74" x2="73.18" y2="189.46"/><line class="cls-8" x1="73.18" y1="189.46" x2="74.76" y2="192.67"/><line class="cls-8" x1="74.76" y1="192.67" x2="75.57" y2="196.21"/><line class="cls-8" x1="75.57" y1="196.21" x2="75.57" y2="199.86"/><line class="cls-8" x1="75.57" y1="199.86" x2="74.76" y2="203.4"/><line class="cls-8" x1="74.76" y1="203.4" x2="73.18" y2="206.61"/><line class="cls-8" x1="73.18" y1="206.61" x2="70.89" y2="209.33"/><line class="cls-8" x1="70.89" y1="209.33" x2="68.11" y2="211.4"/><line class="cls-8" x1="68.11" y1="211.4" x2="64.9" y2="212.7"/><line class="cls-8" x1="64.9" y1="212.7" x2="61.53" y2="213.14"/><line class="cls-8" x1="61.53" y1="183.69" x2="64.74" y2="184.12"/><line class="cls-8" x1="64.74" y1="184.12" x2="67.73" y2="185.32"/><line class="cls-8" x1="67.73" y1="185.32" x2="70.4" y2="187.34"/><line class="cls-8" x1="70.4" y1="187.34" x2="72.52" y2="189.89"/><line class="cls-8" x1="72.52" y1="189.89" x2="73.99" y2="192.94"/><line class="cls-8" x1="73.99" y1="192.94" x2="74.81" y2="196.32"/><line class="cls-8" x1="74.81" y1="196.32" x2="74.81" y2="199.75"/><line class="cls-8" x1="74.81" y1="199.75" x2="73.99" y2="203.12"/><line class="cls-8" x1="73.99" y1="203.12" x2="72.52" y2="206.17"/><line class="cls-8" x1="72.52" y1="206.17" x2="70.4" y2="208.73"/><line class="cls-8" x1="70.4" y1="208.73" x2="67.73" y2="210.69"/><line class="cls-8" x1="67.73" y1="210.69" x2="64.74" y2="211.94"/><line class="cls-8" x1="64.74" y1="211.94" x2="61.53" y2="212.32"/><path class="cls-8" d="M31.19,212.16a138.63,138.63,0,0,0,0-29.37" transform="translate(0 0.5)"/><path class="cls-8" d="M31.19,182.79a1.9,1.9,0,0,0-1.92-1.67" transform="translate(0 0.5)"/><path class="cls-8" d="M29.27,213.84a1.91,1.91,0,0,0,1.93-1.69" transform="translate(0 0.5)"/><path class="cls-8" d="M23.48,197.48a1.61,1.61,0,1,0,1.6-1.61,1.6,1.6,0,0,0-1.6,1.61" transform="translate(0 0.5)"/><line class="cls-8" x1="30.66" y1="95.39" x2="35.56" y2="95.39"/><line class="cls-8" x1="37.74" y1="93.26" x2="37.74" y2="88.31"/><line class="cls-8" x1="39.86" y1="95.39" x2="44.76" y2="95.39"/><line class="cls-8" x1="37.74" y1="102.46" x2="37.74" y2="97.51"/><line class="cls-8" x1="23.04" y1="148.85" x2="43.72" y2="148.85"/><line class="cls-8" x1="42.91" y1="79.87" x2="90.32" y2="79.87"/><line class="cls-8" x1="91.2" y1="101.43" x2="91.2" y2="80.74"/><line class="cls-8" x1="23.04" y1="148.85" x2="43.72" y2="148.85"/><line class="cls-8" x1="22.17" y1="147.98" x2="22.17" y2="100.61"/><line class="cls-8" x1="18.74" y1="153.2" x2="43.72" y2="153.2"/><line class="cls-8" x1="18.74" y1="75.57" x2="94.63" y2="75.57"/><line class="cls-8" x1="95.5" y1="101.43" x2="95.5" y2="76.39"/><line class="cls-8" x1="17.87" y1="152.33" x2="17.87" y2="76.39"/><path class="cls-8" d="M22.39,98.71a4.63,4.63,0,0,0-.22,1.38" transform="translate(0 0.5)"/><path class="cls-8" d="M22.17,147.45a.84.84,0,0,0,.84.84" transform="translate(0 0.5)"/><path class="cls-8" d="M22.39,98.71a4.63,4.63,0,0,0-.22,1.38" transform="translate(0 0.5)"/><path class="cls-8" d="M43.7,152.65A51.74,51.74,0,0,0,95.44,100.9" transform="translate(0 0.5)"/><path class="cls-8" d="M17.87,151.8a.85.85,0,0,0,.84.85" transform="translate(0 0.5)"/><path class="cls-8" d="M43.7,148.35A47.44,47.44,0,0,0,91.14,100.9" transform="translate(0 0.5)"/><path class="cls-8" d="M95.44,75.86A.84.84,0,0,0,94.6,75" transform="translate(0 0.5)"/><path class="cls-8" d="M91.14,80.22a.84.84,0,0,0-.84-.85" transform="translate(0 0.5)"/><path class="cls-8" d="M18.71,75a.85.85,0,0,0-.84.84" transform="translate(0 0.5)"/><path class="cls-8" d="M42.06,79.39A46.47,46.47,0,0,0,22.24,99.21" transform="translate(0 0.5)"/><path class="cls-8" d="M42.88,79.32a4.27,4.27,0,0,0-1.37.22" transform="translate(0 0.5)"/><path class="cls-8" d="M41.52,79.58A30.37,30.37,0,0,0,22.38,98.72" transform="translate(0 0.5)"/><path class="cls-8" d="M42.88,79.32a4.27,4.27,0,0,0-1.37.22" transform="translate(0 0.5)"/><path class="cls-8" d="M37.71,98.75a3.89,3.89,0,1,0-3.89-3.89,3.89,3.89,0,0,0,3.89,3.89" transform="translate(0 0.5)"/><path class="cls-8" d="M37.71,100.28a5.42,5.42,0,1,0-5.41-5.42,5.42,5.42,0,0,0,5.41,5.42" transform="translate(0 0.5)"/><polyline class="cls-8" points="275.75 626.28 275.36 626.28 275.36 673.7 275.75 673.7 275.75 626.28"/><polyline class="cls-8" points="274.06 675.44 274.06 675 194.69 675 194.69 675.44 274.06 675.44"/><polyline class="cls-8" points="192.94 673.7 193.38 673.7 193.38 626.28 192.94 626.28 192.94 673.7"/><polyline class="cls-8" points="276.18 624.1 274.06 624.1 274.06 626.28 276.18 626.28 276.18 624.1"/><polyline class="cls-8" points="276.18 673.7 274.06 673.7 274.06 675.87 276.18 675.87 276.18 673.7"/><polyline class="cls-8" points="194.69 675.87 194.69 673.7 192.56 673.7 192.56 675.87 194.69 675.87"/><polyline class="cls-8" points="192.56 626.28 194.69 626.28 194.69 624.1 192.56 624.1 192.56 626.28"/><line class="cls-8" x1="274.06" y1="625.19" x2="274.06" y2="673.7"/><line class="cls-8" x1="276.18" y1="675.87" x2="276.18" y2="625.19"/><line class="cls-8" x1="274.06" y1="673.7" x2="194.68" y2="673.7"/><line class="cls-8" x1="192.56" y1="675.87" x2="276.18" y2="675.87"/><line class="cls-8" x1="194.68" y1="673.7" x2="194.68" y2="625.19"/><line class="cls-8" x1="192.56" y1="625.19" x2="192.56" y2="675.87"/><polyline class="cls-8" points="276.18 625.19 276.18 624.1 274.06 624.1 274.06 625.19"/><polyline class="cls-8" points="194.69 625.19 194.69 624.1 192.56 624.1 192.56 625.19"/><polyline class="cls-8" points="192.56 675.87 276.18 675.87 276.18 625.19 274.06 625.19 274.06 673.7 194.69 673.7 194.69 625.19 192.56 625.19 192.56 675.87"/><polyline class="cls-8" points="196.86 660.36 271.88 660.36 271.88 632.76 196.86 632.76 196.86 660.36"/><polyline class="cls-8" points="196.86 657.58 271.88 657.58 271.88 632.76 196.86 632.76 196.86 657.58"/><line class="cls-8" x1="316.3" y1="509.4" x2="314.07" y2="507.22"/><line class="cls-8" x1="311.78" y1="504.93" x2="304.92" y2="498.08"/><line class="cls-8" x1="302.64" y1="495.79" x2="302.53" y2="495.63"/><line class="cls-8" x1="319.73" y1="488.49" x2="317.12" y2="485.88"/><line class="cls-8" x1="314.83" y1="483.59" x2="307.97" y2="476.73"/><line class="cls-8" x1="305.69" y1="474.39" x2="302.53" y2="471.24"/><line class="cls-8" x1="317.88" y1="462.2" x2="311.02" y2="455.34"/><line class="cls-8" x1="308.74" y1="453.05" x2="302.53" y2="446.85"/><line class="cls-8" x1="319.73" y1="439.66" x2="314.07" y2="434"/><line class="cls-8" x1="311.78" y1="431.71" x2="304.92" y2="424.85"/><line class="cls-8" x1="302.64" y1="422.57" x2="302.53" y2="422.4"/><line class="cls-8" x1="319.73" y1="415.27" x2="317.12" y2="412.66"/><line class="cls-8" x1="314.83" y1="410.37" x2="307.97" y2="403.51"/><line class="cls-8" x1="305.69" y1="401.23" x2="302.53" y2="398.02"/><line class="cls-8" x1="317.88" y1="389.03" x2="311.02" y2="382.17"/><line class="cls-8" x1="308.74" y1="379.89" x2="302.53" y2="373.63"/><line class="cls-8" x1="319.73" y1="366.5" x2="314.07" y2="360.83"/><line class="cls-8" x1="311.78" y1="358.55" x2="304.92" y2="351.69"/><line class="cls-8" x1="302.64" y1="349.4" x2="302.53" y2="349.24"/><line class="cls-8" x1="319.73" y1="342.11" x2="317.12" y2="339.49"/><line class="cls-8" x1="314.83" y1="337.21" x2="307.97" y2="330.35"/><line class="cls-8" x1="305.69" y1="328.06" x2="302.53" y2="324.85"/><line class="cls-8" x1="304.11" y1="509.4" x2="303.4" y2="508.75"/><line class="cls-8" x1="319.73" y1="500.69" x2="315.59" y2="496.55"/><line class="cls-8" x1="313.31" y1="494.26" x2="306.45" y2="487.41"/><line class="cls-8" x1="304.16" y1="485.12" x2="302.53" y2="483.43"/><line class="cls-8" x1="319.73" y1="476.25" x2="318.64" y2="475.16"/><line class="cls-8" x1="316.36" y1="472.87" x2="309.5" y2="466.01"/><line class="cls-8" x1="307.21" y1="463.72" x2="302.53" y2="459.04"/><line class="cls-8" x1="319.41" y1="451.53" x2="312.55" y2="444.67"/><line class="cls-8" x1="310.26" y1="442.38" x2="303.4" y2="435.52"/><line class="cls-8" x1="319.73" y1="427.47" x2="315.59" y2="423.33"/><line class="cls-8" x1="313.31" y1="421.04" x2="306.45" y2="414.18"/><line class="cls-8" x1="304.16" y1="411.9" x2="302.53" y2="410.21"/><line class="cls-8" x1="319.73" y1="403.08" x2="318.64" y2="401.99"/><line class="cls-8" x1="316.36" y1="399.7" x2="309.5" y2="392.84"/><line class="cls-8" x1="307.21" y1="390.56" x2="302.53" y2="385.82"/><line class="cls-8" x1="319.41" y1="378.36" x2="312.55" y2="371.5"/><line class="cls-8" x1="310.26" y1="369.22" x2="303.4" y2="362.36"/><line class="cls-8" x1="319.73" y1="354.3" x2="315.59" y2="350.16"/><line class="cls-8" x1="313.31" y1="347.88" x2="306.45" y2="341.02"/><line class="cls-8" x1="304.16" y1="338.73" x2="302.53" y2="337.04"/><line class="cls-8" x1="319.73" y1="329.91" x2="318.64" y2="328.82"/><line class="cls-8" x1="316.36" y1="326.54" x2="309.5" y2="319.68"/><line class="cls-8" x1="308.63" y1="233.39" x2="302.53" y2="227.24"/><line class="cls-8" x1="319.73" y1="220.11" x2="314.07" y2="214.45"/><line class="cls-8" x1="311.78" y1="212.16" x2="304.92" y2="205.3"/><line class="cls-8" x1="302.64" y1="203.01" x2="302.53" y2="202.85"/><line class="cls-8" x1="319.73" y1="195.72" x2="317.12" y2="193.11"/><line class="cls-8" x1="314.83" y1="190.82" x2="307.97" y2="183.96"/><line class="cls-8" x1="305.69" y1="181.67" x2="302.53" y2="178.46"/><line class="cls-8" x1="317.88" y1="169.48" x2="311.02" y2="162.62"/><line class="cls-8" x1="308.74" y1="160.33" x2="302.53" y2="154.07"/><line class="cls-8" x1="319.73" y1="146.94" x2="314.07" y2="141.28"/><line class="cls-8" x1="311.78" y1="138.99" x2="304.92" y2="132.13"/><line class="cls-8" x1="302.64" y1="129.85" x2="302.53" y2="129.68"/><line class="cls-8" x1="319.73" y1="122.55" x2="317.12" y2="119.94"/><line class="cls-8" x1="314.83" y1="117.65" x2="307.97" y2="110.74"/><line class="cls-8" x1="305.69" y1="108.45" x2="302.53" y2="105.3"/><line class="cls-8" x1="317.88" y1="96.26" x2="311.02" y2="89.4"/><line class="cls-8" x1="308.74" y1="87.11" x2="308.41" y2="86.79"/><line class="cls-8" x1="319.41" y1="231.98" x2="312.55" y2="225.12"/><line class="cls-8" x1="310.26" y1="222.83" x2="303.4" y2="215.97"/><line class="cls-8" x1="319.73" y1="207.91" x2="315.59" y2="203.78"/><line class="cls-8" x1="313.31" y1="201.49" x2="306.45" y2="194.63"/><line class="cls-8" x1="304.16" y1="192.34" x2="302.53" y2="190.66"/><line class="cls-8" x1="319.73" y1="183.52" x2="318.64" y2="182.44"/><line class="cls-8" x1="316.36" y1="180.15" x2="309.5" y2="173.29"/><line class="cls-8" x1="307.21" y1="171" x2="302.53" y2="166.27"/><line class="cls-8" x1="319.41" y1="158.81" x2="312.55" y2="151.95"/><line class="cls-8" x1="310.26" y1="149.66" x2="303.4" y2="142.8"/><line class="cls-8" x1="319.73" y1="134.75" x2="315.59" y2="130.61"/><line class="cls-8" x1="313.31" y1="128.32" x2="306.45" y2="121.46"/><line class="cls-8" x1="304.16" y1="119.18" x2="302.53" y2="117.49"/><line class="cls-8" x1="319.73" y1="110.3" x2="318.64" y2="109.22"/><line class="cls-8" x1="316.36" y1="106.93" x2="309.5" y2="100.07"/><line class="cls-8" x1="307.21" y1="97.78" x2="302.53" y2="93.1"/><line class="cls-8" x1="302.53" y1="86.79" x2="302.53" y2="233.39"/><line class="cls-8" x1="302.53" y1="319.62" x2="302.53" y2="509.4"/><line class="cls-8" x1="319.73" y1="509.4" x2="319.73" y2="319.62"/><line class="cls-8" x1="319.73" y1="233.39" x2="319.73" y2="86.79"/><line class="cls-8" x1="302.53" y1="239.76" x2="308.9" y2="233.39"/><line class="cls-8" x1="302.53" y1="247.06" x2="316.19" y2="233.39"/><line class="cls-8" x1="302.53" y1="254.4" x2="319.73" y2="237.15"/><line class="cls-8" x1="302.53" y1="261.7" x2="319.73" y2="244.44"/><line class="cls-8" x1="302.53" y1="269.05" x2="319.73" y2="251.79"/><line class="cls-8" x1="302.53" y1="276.34" x2="319.73" y2="259.09"/><line class="cls-8" x1="302.53" y1="283.69" x2="319.73" y2="266.44"/><line class="cls-8" x1="302.53" y1="290.99" x2="319.73" y2="273.73"/><line class="cls-8" x1="302.53" y1="298.34" x2="319.73" y2="281.08"/><line class="cls-8" x1="302.53" y1="305.63" x2="319.73" y2="288.38"/><line class="cls-8" x1="302.53" y1="312.93" x2="319.73" y2="295.72"/><line class="cls-8" x1="303.13" y1="319.62" x2="319.73" y2="303.02"/><line class="cls-8" x1="310.42" y1="319.62" x2="319.73" y2="310.31"/><line class="cls-8" x1="317.77" y1="319.62" x2="319.73" y2="317.66"/><line class="cls-8" x1="302.96" y1="235.62" x2="302.96" y2="235.62"/><line class="cls-8" x1="303.89" y1="234.75" x2="305.2" y2="233.39"/><line class="cls-8" x1="302.96" y1="242.97" x2="305.69" y2="240.2"/><line class="cls-8" x1="306.61" y1="239.33" x2="306.61" y2="239.33"/><line class="cls-8" x1="307.54" y1="238.4" x2="310.26" y2="235.62"/><line class="cls-8" x1="311.19" y1="234.75" x2="311.19" y2="234.75"/><line class="cls-8" x1="312.11" y1="233.83" x2="312.55" y2="233.39"/><line class="cls-8" x1="302.53" y1="250.76" x2="304.82" y2="248.47"/><line class="cls-8" x1="305.69" y1="247.55" x2="305.69" y2="247.55"/><line class="cls-8" x1="306.61" y1="246.62" x2="309.39" y2="243.9"/><line class="cls-8" x1="310.26" y1="242.97" x2="310.26" y2="242.97"/><line class="cls-8" x1="311.19" y1="242.05" x2="313.96" y2="239.33"/><line class="cls-8" x1="314.83" y1="238.4" x2="314.83" y2="238.4"/><line class="cls-8" x1="315.76" y1="237.47" x2="318.53" y2="234.75"/><line class="cls-8" x1="319.41" y1="233.83" x2="319.41" y2="233.83"/><line class="cls-8" x1="302.53" y1="258.05" x2="303.89" y2="256.69"/><line class="cls-8" x1="304.82" y1="255.77" x2="304.82" y2="255.77"/><line class="cls-8" x1="305.69" y1="254.84" x2="308.46" y2="252.12"/><line class="cls-8" x1="309.39" y1="251.19" x2="309.39" y2="251.19"/><line class="cls-8" x1="310.26" y1="250.27" x2="313.04" y2="247.55"/><line class="cls-8" x1="313.96" y1="246.62" x2="313.96" y2="246.62"/><line class="cls-8" x1="314.83" y1="245.69" x2="317.61" y2="242.97"/><line class="cls-8" x1="318.53" y1="242.05" x2="318.53" y2="242.05"/><line class="cls-8" x1="319.41" y1="241.12" x2="319.73" y2="240.8"/><line class="cls-8" x1="302.53" y1="265.4" x2="302.96" y2="264.91"/><line class="cls-8" x1="303.89" y1="263.99" x2="303.89" y2="263.99"/><line class="cls-8" x1="304.82" y1="263.12" x2="307.54" y2="260.34"/><line class="cls-8" x1="308.46" y1="259.41" x2="308.46" y2="259.41"/><line class="cls-8" x1="309.39" y1="258.49" x2="312.11" y2="255.77"/><line class="cls-8" x1="313.04" y1="254.84" x2="313.04" y2="254.84"/><line class="cls-8" x1="313.96" y1="253.91" x2="316.68" y2="251.19"/><line class="cls-8" x1="317.61" y1="250.27" x2="317.61" y2="250.27"/><line class="cls-8" x1="318.53" y1="249.34" x2="319.73" y2="248.14"/><line class="cls-8" x1="302.96" y1="272.26" x2="302.96" y2="272.26"/><line class="cls-8" x1="303.89" y1="271.34" x2="306.61" y2="268.56"/><line class="cls-8" x1="307.54" y1="267.69" x2="307.54" y2="267.69"/><line class="cls-8" x1="308.46" y1="266.76" x2="311.19" y2="263.99"/><line class="cls-8" x1="312.11" y1="263.12" x2="312.11" y2="263.12"/><line class="cls-8" x1="313.04" y1="262.19" x2="315.76" y2="259.41"/><line class="cls-8" x1="316.68" y1="258.49" x2="316.68" y2="258.49"/><line class="cls-8" x1="317.61" y1="257.62" x2="319.73" y2="255.44"/><line class="cls-8" x1="302.96" y1="279.56" x2="305.69" y2="276.83"/><line class="cls-8" x1="306.61" y1="275.91" x2="306.61" y2="275.91"/><line class="cls-8" x1="307.54" y1="274.98" x2="310.26" y2="272.26"/><line class="cls-8" x1="311.19" y1="271.34" x2="311.19" y2="271.34"/><line class="cls-8" x1="312.11" y1="270.41" x2="314.83" y2="267.69"/><line class="cls-8" x1="315.76" y1="266.76" x2="315.76" y2="266.76"/><line class="cls-8" x1="316.68" y1="265.84" x2="319.41" y2="263.12"/><line class="cls-8" x1="302.53" y1="287.34" x2="304.82" y2="285.05"/><line class="cls-8" x1="305.69" y1="284.13" x2="305.69" y2="284.13"/><line class="cls-8" x1="306.61" y1="283.2" x2="309.39" y2="280.48"/><line class="cls-8" x1="310.26" y1="279.56" x2="310.26" y2="279.56"/><line class="cls-8" x1="311.19" y1="278.63" x2="313.96" y2="275.91"/><line class="cls-8" x1="314.83" y1="274.98" x2="314.83" y2="274.98"/><line class="cls-8" x1="315.76" y1="274.06" x2="318.53" y2="271.34"/><line class="cls-8" x1="319.41" y1="270.41" x2="319.41" y2="270.41"/><line class="cls-8" x1="302.53" y1="294.64" x2="303.89" y2="293.27"/><line class="cls-8" x1="304.82" y1="292.35" x2="304.82" y2="292.35"/><line class="cls-8" x1="305.69" y1="291.42" x2="308.46" y2="288.7"/><line class="cls-8" x1="309.39" y1="287.78" x2="309.39" y2="287.78"/><line class="cls-8" x1="310.26" y1="286.85" x2="313.04" y2="284.13"/><line class="cls-8" x1="313.96" y1="283.2" x2="313.96" y2="283.2"/><line class="cls-8" x1="314.83" y1="282.28" x2="317.61" y2="279.56"/><line class="cls-8" x1="318.53" y1="278.63" x2="318.53" y2="278.63"/><line class="cls-8" x1="319.41" y1="277.7" x2="319.73" y2="277.38"/><line class="cls-8" x1="302.53" y1="301.98" x2="302.96" y2="301.49"/><line class="cls-8" x1="303.89" y1="300.62" x2="303.89" y2="300.62"/><line class="cls-8" x1="304.82" y1="299.7" x2="307.54" y2="296.92"/><line class="cls-8" x1="308.46" y1="296.05" x2="308.46" y2="296.05"/><line class="cls-8" x1="309.39" y1="295.13" x2="312.11" y2="292.35"/><line class="cls-8" x1="313.04" y1="291.42" x2="313.04" y2="291.42"/><line class="cls-8" x1="313.96" y1="290.55" x2="316.68" y2="287.78"/><line class="cls-8" x1="317.61" y1="286.85" x2="317.61" y2="286.85"/><line class="cls-8" x1="318.53" y1="285.98" x2="319.73" y2="284.73"/><line class="cls-8" x1="302.96" y1="308.84" x2="302.96" y2="308.84"/><line class="cls-8" x1="303.89" y1="307.92" x2="306.61" y2="305.2"/><line class="cls-8" x1="307.54" y1="304.27" x2="307.54" y2="304.27"/><line class="cls-8" x1="308.46" y1="303.35" x2="311.19" y2="300.62"/><line class="cls-8" x1="312.11" y1="299.7" x2="312.11" y2="299.7"/><line class="cls-8" x1="313.04" y1="298.77" x2="315.76" y2="296.05"/><line class="cls-8" x1="316.68" y1="295.13" x2="316.68" y2="295.13"/><line class="cls-8" x1="317.61" y1="294.2" x2="319.73" y2="292.02"/><line class="cls-8" x1="302.96" y1="316.14" x2="305.69" y2="313.42"/><line class="cls-8" x1="306.61" y1="312.49" x2="306.61" y2="312.49"/><line class="cls-8" x1="307.54" y1="311.57" x2="310.26" y2="308.84"/><line class="cls-8" x1="311.19" y1="307.92" x2="311.19" y2="307.92"/><line class="cls-8" x1="312.11" y1="306.99" x2="314.83" y2="304.27"/><line class="cls-8" x1="315.76" y1="303.35" x2="315.76" y2="303.35"/><line class="cls-8" x1="316.68" y1="302.42" x2="319.41" y2="299.7"/><line class="cls-8" x1="306.78" y1="319.62" x2="309.39" y2="317.06"/><line class="cls-8" x1="310.26" y1="316.14" x2="310.26" y2="316.14"/><line class="cls-8" x1="311.19" y1="315.21" x2="313.96" y2="312.49"/><line class="cls-8" x1="314.83" y1="311.57" x2="314.83" y2="311.57"/><line class="cls-8" x1="315.76" y1="310.64" x2="318.53" y2="307.92"/><line class="cls-8" x1="319.41" y1="306.99" x2="319.41" y2="306.99"/><line class="cls-8" x1="314.83" y1="318.92" x2="317.61" y2="316.14"/><line class="cls-8" x1="318.53" y1="315.21" x2="318.53" y2="315.21"/><line class="cls-8" x1="319.41" y1="314.34" x2="319.73" y2="314.02"/><polyline class="cls-8" points="319.73 319.62 302.53 319.62 302.53 233.39 319.73 233.39 319.73 319.62"/><line class="cls-8" x1="302.53" y1="510.54" x2="303.67" y2="509.4"/><line class="cls-8" x1="302.53" y1="517.89" x2="310.97" y2="509.4"/><line class="cls-8" x1="302.53" y1="525.19" x2="318.32" y2="509.4"/><line class="cls-8" x1="302.53" y1="532.54" x2="319.73" y2="515.28"/><line class="cls-8" x1="302.53" y1="539.83" x2="319.73" y2="522.57"/><line class="cls-8" x1="302.53" y1="547.18" x2="319.73" y2="529.92"/><line class="cls-8" x1="302.53" y1="554.47" x2="319.73" y2="537.22"/><line class="cls-8" x1="302.53" y1="561.77" x2="319.73" y2="544.57"/><line class="cls-8" x1="302.53" y1="569.12" x2="319.73" y2="551.86"/><line class="cls-8" x1="302.53" y1="576.41" x2="319.73" y2="559.16"/><line class="cls-8" x1="302.53" y1="583.76" x2="319.73" y2="566.51"/><line class="cls-8" x1="302.53" y1="591.06" x2="319.73" y2="573.8"/><line class="cls-8" x1="305.25" y1="595.63" x2="319.73" y2="581.15"/><line class="cls-8" x1="312.55" y1="595.63" x2="319.73" y2="588.44"/><line class="cls-8" x1="302.53" y1="514.24" x2="303.89" y2="512.83"/><line class="cls-8" x1="304.82" y1="511.9" x2="304.82" y2="511.9"/><line class="cls-8" x1="305.69" y1="511.03" x2="307.32" y2="509.4"/><line class="cls-8" x1="302.53" y1="521.54" x2="302.96" y2="521.1"/><line class="cls-8" x1="303.89" y1="520.18" x2="303.89" y2="520.18"/><line class="cls-8" x1="304.82" y1="519.25" x2="307.54" y2="516.53"/><line class="cls-8" x1="308.46" y1="515.6" x2="308.46" y2="515.6"/><line class="cls-8" x1="309.39" y1="514.68" x2="312.11" y2="511.9"/><line class="cls-8" x1="313.04" y1="511.03" x2="313.04" y2="511.03"/><line class="cls-8" x1="313.96" y1="510.11" x2="314.61" y2="509.4"/><line class="cls-8" x1="302.96" y1="528.4" x2="302.96" y2="528.4"/><line class="cls-8" x1="303.89" y1="527.47" x2="306.61" y2="524.75"/><line class="cls-8" x1="307.54" y1="523.83" x2="307.54" y2="523.83"/><line class="cls-8" x1="308.46" y1="522.9" x2="311.19" y2="520.18"/><line class="cls-8" x1="312.11" y1="519.25" x2="312.11" y2="519.25"/><line class="cls-8" x1="313.04" y1="518.33" x2="315.76" y2="515.6"/><line class="cls-8" x1="316.68" y1="514.68" x2="316.68" y2="514.68"/><line class="cls-8" x1="317.61" y1="513.75" x2="319.73" y2="511.63"/><line class="cls-8" x1="302.96" y1="535.69" x2="305.69" y2="532.97"/><line class="cls-8" x1="306.61" y1="532.05" x2="306.61" y2="532.05"/><line class="cls-8" x1="307.54" y1="531.12" x2="310.26" y2="528.4"/><line class="cls-8" x1="311.19" y1="527.47" x2="311.19" y2="527.47"/><line class="cls-8" x1="312.11" y1="526.55" x2="314.83" y2="523.83"/><line class="cls-8" x1="315.76" y1="522.9" x2="315.76" y2="522.9"/><line class="cls-8" x1="316.68" y1="521.97" x2="319.41" y2="519.25"/><line class="cls-8" x1="302.53" y1="543.48" x2="304.82" y2="541.19"/><line class="cls-8" x1="305.69" y1="540.27" x2="305.69" y2="540.27"/><line class="cls-8" x1="306.61" y1="539.39" x2="309.39" y2="536.62"/><line class="cls-8" x1="310.26" y1="535.69" x2="310.26" y2="535.69"/><line class="cls-8" x1="311.19" y1="534.82" x2="313.96" y2="532.05"/><line class="cls-8" x1="314.83" y1="531.12" x2="314.83" y2="531.12"/><line class="cls-8" x1="315.76" y1="530.25" x2="318.53" y2="527.47"/><line class="cls-8" x1="319.41" y1="526.55" x2="319.41" y2="526.55"/><line class="cls-8" x1="302.53" y1="550.83" x2="303.89" y2="549.47"/><line class="cls-8" x1="304.82" y1="548.54" x2="304.82" y2="548.54"/><line class="cls-8" x1="305.69" y1="547.62" x2="308.46" y2="544.84"/><line class="cls-8" x1="309.39" y1="543.97" x2="309.39" y2="543.97"/><line class="cls-8" x1="310.26" y1="543.04" x2="313.04" y2="540.27"/><line class="cls-8" x1="313.96" y1="539.39" x2="313.96" y2="539.39"/><line class="cls-8" x1="314.83" y1="538.47" x2="317.61" y2="535.69"/><line class="cls-8" x1="318.53" y1="534.82" x2="318.53" y2="534.82"/><line class="cls-8" x1="319.41" y1="533.9" x2="319.73" y2="533.57"/><line class="cls-8" x1="302.53" y1="558.12" x2="302.96" y2="557.69"/><line class="cls-8" x1="303.89" y1="556.76" x2="303.89" y2="556.76"/><line class="cls-8" x1="304.82" y1="555.84" x2="307.54" y2="553.11"/><line class="cls-8" x1="308.46" y1="552.19" x2="308.46" y2="552.19"/><line class="cls-8" x1="309.39" y1="551.26" x2="312.11" y2="548.54"/><line class="cls-8" x1="313.04" y1="547.62" x2="313.04" y2="547.62"/><line class="cls-8" x1="313.96" y1="546.69" x2="316.68" y2="543.97"/><line class="cls-8" x1="317.61" y1="543.04" x2="317.61" y2="543.04"/><line class="cls-8" x1="318.53" y1="542.12" x2="319.73" y2="540.86"/><line class="cls-8" x1="302.96" y1="564.98" x2="302.96" y2="564.98"/><line class="cls-8" x1="303.89" y1="564.06" x2="306.61" y2="561.33"/><line class="cls-8" x1="307.54" y1="560.41" x2="307.54" y2="560.41"/><line class="cls-8" x1="308.46" y1="559.48" x2="311.19" y2="556.76"/><line class="cls-8" x1="312.11" y1="555.84" x2="312.11" y2="555.84"/><line class="cls-8" x1="313.04" y1="554.91" x2="315.76" y2="552.19"/><line class="cls-8" x1="316.68" y1="551.26" x2="316.68" y2="551.26"/><line class="cls-8" x1="317.61" y1="550.34" x2="319.73" y2="548.21"/><line class="cls-8" x1="302.96" y1="572.33" x2="305.69" y2="569.55"/><line class="cls-8" x1="306.61" y1="568.63" x2="306.61" y2="568.63"/><line class="cls-8" x1="307.54" y1="567.76" x2="310.26" y2="564.98"/><line class="cls-8" x1="311.19" y1="564.06" x2="311.19" y2="564.06"/><line class="cls-8" x1="312.11" y1="563.18" x2="314.83" y2="560.41"/><line class="cls-8" x1="315.76" y1="559.48" x2="315.76" y2="559.48"/><line class="cls-8" x1="316.68" y1="558.61" x2="319.41" y2="555.84"/><line class="cls-8" x1="302.53" y1="580.06" x2="304.82" y2="577.77"/><line class="cls-8" x1="305.69" y1="576.9" x2="305.69" y2="576.9"/><line class="cls-8" x1="306.61" y1="575.98" x2="309.39" y2="573.2"/><line class="cls-8" x1="310.26" y1="572.33" x2="310.26" y2="572.33"/><line class="cls-8" x1="311.19" y1="571.4" x2="313.96" y2="568.63"/><line class="cls-8" x1="314.83" y1="567.76" x2="314.83" y2="567.76"/><line class="cls-8" x1="315.76" y1="566.83" x2="318.53" y2="564.06"/><line class="cls-8" x1="319.41" y1="563.18" x2="319.41" y2="563.18"/><line class="cls-8" x1="302.53" y1="587.41" x2="303.89" y2="586.05"/><line class="cls-8" x1="304.82" y1="585.12" x2="304.82" y2="585.12"/><line class="cls-8" x1="305.69" y1="584.2" x2="308.46" y2="581.48"/><line class="cls-8" x1="309.39" y1="580.55" x2="309.39" y2="580.55"/><line class="cls-8" x1="310.26" y1="579.63" x2="313.04" y2="576.9"/><line class="cls-8" x1="313.96" y1="575.98" x2="313.96" y2="575.98"/><line class="cls-8" x1="314.83" y1="575.05" x2="317.61" y2="572.33"/><line class="cls-8" x1="318.53" y1="571.4" x2="318.53" y2="571.4"/><line class="cls-8" x1="319.41" y1="570.48" x2="319.73" y2="570.15"/><line class="cls-8" x1="302.53" y1="594.7" x2="302.96" y2="594.27"/><line class="cls-8" x1="303.89" y1="593.34" x2="303.89" y2="593.34"/><line class="cls-8" x1="304.82" y1="592.42" x2="307.54" y2="589.7"/><line class="cls-8" x1="308.46" y1="588.77" x2="308.46" y2="588.77"/><line class="cls-8" x1="309.39" y1="587.85" x2="312.11" y2="585.12"/><line class="cls-8" x1="313.04" y1="584.2" x2="313.04" y2="584.2"/><line class="cls-8" x1="313.96" y1="583.27" x2="316.68" y2="580.55"/><line class="cls-8" x1="317.61" y1="579.63" x2="317.61" y2="579.63"/><line class="cls-8" x1="318.53" y1="578.7" x2="319.73" y2="577.45"/><line class="cls-8" x1="308.9" y1="595.63" x2="311.19" y2="593.34"/><line class="cls-8" x1="312.11" y1="592.42" x2="312.11" y2="592.42"/><line class="cls-8" x1="313.04" y1="591.55" x2="315.76" y2="588.77"/><line class="cls-8" x1="316.68" y1="587.85" x2="316.68" y2="587.85"/><line class="cls-8" x1="317.61" y1="586.97" x2="319.73" y2="584.8"/><line class="cls-8" x1="316.68" y1="595.19" x2="319.41" y2="592.42"/><polyline class="cls-8" points="319.73 595.63 302.53 595.63 302.53 509.4 319.73 509.4 319.73 595.63"/><line class="cls-8" x1="0.61" y1="234.26" x2="1.48" y2="233.39"/><line class="cls-8" x1="0.61" y1="241.56" x2="8.83" y2="233.39"/><line class="cls-8" x1="0.61" y1="248.91" x2="16.12" y2="233.39"/><line class="cls-8" x1="0.61" y1="256.2" x2="17.87" y2="238.94"/><line class="cls-8" x1="0.61" y1="263.55" x2="17.87" y2="246.29"/><line class="cls-8" x1="0.61" y1="270.85" x2="17.87" y2="253.59"/><line class="cls-8" x1="0.61" y1="278.19" x2="17.87" y2="260.94"/><line class="cls-8" x1="0.61" y1="285.49" x2="17.87" y2="268.23"/><line class="cls-8" x1="0.61" y1="292.78" x2="17.87" y2="275.58"/><line class="cls-8" x1="0.61" y1="300.13" x2="17.87" y2="282.88"/><line class="cls-8" x1="0.61" y1="307.43" x2="17.87" y2="290.17"/><line class="cls-8" x1="0.61" y1="314.78" x2="17.87" y2="297.52"/><line class="cls-8" x1="0.61" y1="322.07" x2="17.87" y2="304.82"/><line class="cls-8" x1="0.61" y1="329.42" x2="17.87" y2="312.17"/><line class="cls-8" x1="0.61" y1="336.72" x2="17.87" y2="319.46"/><line class="cls-8" x1="7.79" y1="336.88" x2="17.87" y2="326.81"/><line class="cls-8" x1="15.09" y1="336.88" x2="17.87" y2="334.1"/><line class="cls-8" x1="0.61" y1="237.91" x2="1.04" y2="237.47"/><line class="cls-8" x1="1.97" y1="236.55" x2="1.97" y2="236.55"/><line class="cls-8" x1="2.9" y1="235.62" x2="5.13" y2="233.39"/><line class="cls-8" x1="1.04" y1="244.77" x2="1.04" y2="244.77"/><line class="cls-8" x1="1.97" y1="243.9" x2="4.75" y2="241.12"/><line class="cls-8" x1="5.62" y1="240.2" x2="5.62" y2="240.2"/><line class="cls-8" x1="6.54" y1="239.33" x2="9.32" y2="236.55"/><line class="cls-8" x1="10.19" y1="235.62" x2="10.19" y2="235.62"/><line class="cls-8" x1="11.12" y1="234.75" x2="12.48" y2="233.39"/><line class="cls-8" x1="1.04" y1="252.12" x2="3.82" y2="249.34"/><line class="cls-8" x1="4.75" y1="248.47" x2="4.75" y2="248.47"/><line class="cls-8" x1="5.62" y1="247.55" x2="8.39" y2="244.77"/><line class="cls-8" x1="9.32" y1="243.9" x2="9.32" y2="243.9"/><line class="cls-8" x1="10.19" y1="242.97" x2="12.97" y2="240.2"/><line class="cls-8" x1="13.89" y1="239.33" x2="13.89" y2="239.33"/><line class="cls-8" x1="14.76" y1="238.4" x2="17.54" y2="235.62"/><line class="cls-8" x1="0.61" y1="259.85" x2="2.9" y2="257.62"/><line class="cls-8" x1="3.82" y1="256.69" x2="3.82" y2="256.69"/><line class="cls-8" x1="4.75" y1="255.77" x2="7.47" y2="253.04"/><line class="cls-8" x1="8.39" y1="252.12" x2="8.39" y2="252.12"/><line class="cls-8" x1="9.32" y1="251.19" x2="12.04" y2="248.47"/><line class="cls-8" x1="12.97" y1="247.55" x2="12.97" y2="247.55"/><line class="cls-8" x1="13.89" y1="246.62" x2="16.61" y2="243.9"/><line class="cls-8" x1="17.54" y1="242.97" x2="17.54" y2="242.97"/><line class="cls-8" x1="0.61" y1="267.2" x2="1.97" y2="265.84"/><line class="cls-8" x1="2.9" y1="264.91" x2="2.9" y2="264.91"/><line class="cls-8" x1="3.82" y1="263.99" x2="6.54" y2="261.26"/><line class="cls-8" x1="7.47" y1="260.34" x2="7.47" y2="260.34"/><line class="cls-8" x1="8.39" y1="259.41" x2="11.12" y2="256.69"/><line class="cls-8" x1="12.04" y1="255.77" x2="12.04" y2="255.77"/><line class="cls-8" x1="12.97" y1="254.84" x2="15.69" y2="252.12"/><line class="cls-8" x1="16.61" y1="251.19" x2="16.61" y2="251.19"/><line class="cls-8" x1="17.54" y1="250.27" x2="17.87" y2="249.94"/><line class="cls-8" x1="0.61" y1="274.49" x2="1.04" y2="274.06"/><line class="cls-8" x1="1.97" y1="273.13" x2="1.97" y2="273.13"/><line class="cls-8" x1="2.9" y1="272.26" x2="5.62" y2="269.48"/><line class="cls-8" x1="6.54" y1="268.56" x2="6.54" y2="268.56"/><line class="cls-8" x1="7.47" y1="267.69" x2="10.19" y2="264.91"/><line class="cls-8" x1="11.12" y1="263.99" x2="11.12" y2="263.99"/><line class="cls-8" x1="12.04" y1="263.12" x2="14.76" y2="260.34"/><line class="cls-8" x1="15.69" y1="259.41" x2="15.69" y2="259.41"/><line class="cls-8" x1="16.61" y1="258.49" x2="17.87" y2="257.24"/><line class="cls-8" x1="1.04" y1="281.41" x2="1.04" y2="281.41"/><line class="cls-8" x1="1.97" y1="280.48" x2="4.75" y2="277.7"/><line class="cls-8" x1="5.62" y1="276.83" x2="5.62" y2="276.83"/><line class="cls-8" x1="6.54" y1="275.91" x2="9.32" y2="273.13"/><line class="cls-8" x1="10.19" y1="272.26" x2="10.19" y2="272.26"/><line class="cls-8" x1="11.12" y1="271.34" x2="13.89" y2="268.56"/><line class="cls-8" x1="14.76" y1="267.69" x2="14.76" y2="267.69"/><line class="cls-8" x1="15.69" y1="266.76" x2="17.87" y2="264.59"/><line class="cls-8" x1="1.04" y1="288.7" x2="3.82" y2="285.98"/><line class="cls-8" x1="4.75" y1="285.05" x2="4.75" y2="285.05"/><line class="cls-8" x1="5.62" y1="284.13" x2="8.39" y2="281.41"/><line class="cls-8" x1="9.32" y1="280.48" x2="9.32" y2="280.48"/><line class="cls-8" x1="10.19" y1="279.56" x2="12.97" y2="276.83"/><line class="cls-8" x1="13.89" y1="275.91" x2="13.89" y2="275.91"/><line class="cls-8" x1="14.76" y1="274.98" x2="17.54" y2="272.26"/><line class="cls-8" x1="0.61" y1="296.49" x2="2.9" y2="294.2"/><line class="cls-8" x1="3.82" y1="293.27" x2="3.82" y2="293.27"/><line class="cls-8" x1="4.75" y1="292.35" x2="7.47" y2="289.63"/><line class="cls-8" x1="8.39" y1="288.7" x2="8.39" y2="288.7"/><line class="cls-8" x1="9.32" y1="287.78" x2="12.04" y2="285.05"/><line class="cls-8" x1="12.97" y1="284.13" x2="12.97" y2="284.13"/><line class="cls-8" x1="13.89" y1="283.2" x2="16.61" y2="280.48"/><line class="cls-8" x1="17.54" y1="279.56" x2="17.54" y2="279.56"/><line class="cls-8" x1="0.61" y1="303.78" x2="1.97" y2="302.42"/><line class="cls-8" x1="2.9" y1="301.49" x2="2.9" y2="301.49"/><line class="cls-8" x1="3.82" y1="300.62" x2="6.54" y2="297.85"/><line class="cls-8" x1="7.47" y1="296.92" x2="7.47" y2="296.92"/><line class="cls-8" x1="8.39" y1="296.05" x2="11.12" y2="293.27"/><line class="cls-8" x1="12.04" y1="292.35" x2="12.04" y2="292.35"/><line class="cls-8" x1="12.97" y1="291.42" x2="15.69" y2="288.7"/><line class="cls-8" x1="16.61" y1="287.78" x2="16.61" y2="287.78"/><line class="cls-8" x1="17.54" y1="286.85" x2="17.87" y2="286.52"/><line class="cls-8" x1="0.61" y1="311.13" x2="1.04" y2="310.64"/><line class="cls-8" x1="1.97" y1="309.77" x2="1.97" y2="309.77"/><line class="cls-8" x1="2.9" y1="308.84" x2="5.62" y2="306.07"/><line class="cls-8" x1="6.54" y1="305.2" x2="6.54" y2="305.2"/><line class="cls-8" x1="7.47" y1="304.27" x2="10.19" y2="301.49"/><line class="cls-8" x1="11.12" y1="300.62" x2="11.12" y2="300.62"/><line class="cls-8" x1="12.04" y1="299.7" x2="14.76" y2="296.92"/><line class="cls-8" x1="15.69" y1="296.05" x2="15.69" y2="296.05"/><line class="cls-8" x1="16.61" y1="295.13" x2="17.87" y2="293.87"/><line class="cls-8" x1="1.04" y1="317.99" x2="1.04" y2="317.99"/><line class="cls-8" x1="1.97" y1="317.06" x2="4.75" y2="314.34"/><line class="cls-8" x1="5.62" y1="313.42" x2="5.62" y2="313.42"/><line class="cls-8" x1="6.54" y1="312.49" x2="9.32" y2="309.77"/><line class="cls-8" x1="10.19" y1="308.84" x2="10.19" y2="308.84"/><line class="cls-8" x1="11.12" y1="307.92" x2="13.89" y2="305.2"/><line class="cls-8" x1="14.76" y1="304.27" x2="14.76" y2="304.27"/><line class="cls-8" x1="15.69" y1="303.35" x2="17.87" y2="301.17"/><line class="cls-8" x1="1.04" y1="325.28" x2="3.82" y2="322.56"/><line class="cls-8" x1="4.75" y1="321.64" x2="4.75" y2="321.64"/><line class="cls-8" x1="5.62" y1="320.71" x2="8.39" y2="317.99"/><line class="cls-8" x1="9.32" y1="317.06" x2="9.32" y2="317.06"/><line class="cls-8" x1="10.19" y1="316.14" x2="12.97" y2="313.42"/><line class="cls-8" x1="13.89" y1="312.49" x2="13.89" y2="312.49"/><line class="cls-8" x1="14.76" y1="311.57" x2="17.54" y2="308.84"/><line class="cls-8" x1="0.61" y1="333.07" x2="2.9" y2="330.78"/><line class="cls-8" x1="3.82" y1="329.86" x2="3.82" y2="329.86"/><line class="cls-8" x1="4.75" y1="328.93" x2="7.47" y2="326.21"/><line class="cls-8" x1="8.39" y1="325.28" x2="8.39" y2="325.28"/><line class="cls-8" x1="9.32" y1="324.36" x2="12.04" y2="321.64"/><line class="cls-8" x1="12.97" y1="320.71" x2="12.97" y2="320.71"/><line class="cls-8" x1="13.89" y1="319.79" x2="16.61" y2="317.06"/><line class="cls-8" x1="17.54" y1="316.14" x2="17.54" y2="316.14"/><line class="cls-8" x1="4.09" y1="336.88" x2="6.54" y2="334.43"/><line class="cls-8" x1="7.47" y1="333.56" x2="7.47" y2="333.56"/><line class="cls-8" x1="8.39" y1="332.63" x2="11.12" y2="329.86"/><line class="cls-8" x1="12.04" y1="328.93" x2="12.04" y2="328.93"/><line class="cls-8" x1="12.97" y1="328.06" x2="15.69" y2="325.28"/><line class="cls-8" x1="16.61" y1="324.36" x2="16.61" y2="324.36"/><line class="cls-8" x1="17.54" y1="323.49" x2="17.87" y2="323.11"/><line class="cls-8" x1="12.04" y1="336.28" x2="14.76" y2="333.56"/><line class="cls-8" x1="15.69" y1="332.63" x2="15.69" y2="332.63"/><line class="cls-8" x1="16.61" y1="331.71" x2="17.87" y2="330.46"/><polyline class="cls-8" points="0.61 336.88 17.87 336.88 17.87 233.39 0.61 233.39 0.61 336.88"/><line class="cls-8" x1="0.61" y1="512.39" x2="3.6" y2="509.4"/><line class="cls-8" x1="0.61" y1="519.69" x2="10.9" y2="509.4"/><line class="cls-8" x1="0.61" y1="527.04" x2="17.87" y2="509.78"/><line class="cls-8" x1="0.61" y1="534.33" x2="17.87" y2="517.07"/><line class="cls-8" x1="0.61" y1="541.63" x2="17.87" y2="524.42"/><line class="cls-8" x1="0.61" y1="548.98" x2="17.87" y2="531.72"/><line class="cls-8" x1="0.61" y1="556.27" x2="17.87" y2="539.01"/><line class="cls-8" x1="0.61" y1="563.62" x2="17.87" y2="546.36"/><line class="cls-8" x1="0.61" y1="570.92" x2="17.87" y2="553.66"/><line class="cls-8" x1="0.61" y1="578.26" x2="17.87" y2="561.01"/><line class="cls-8" x1="0.61" y1="585.56" x2="17.87" y2="568.3"/><line class="cls-8" x1="0.61" y1="592.85" x2="17.87" y2="575.65"/><line class="cls-8" x1="5.18" y1="595.63" x2="17.87" y2="582.95"/><line class="cls-8" x1="12.48" y1="595.63" x2="17.87" y2="590.24"/><line class="cls-8" x1="0.61" y1="516.04" x2="2.9" y2="513.75"/><line class="cls-8" x1="3.82" y1="512.83" x2="3.82" y2="512.83"/><line class="cls-8" x1="4.75" y1="511.9" x2="7.25" y2="509.4"/><line class="cls-8" x1="0.61" y1="523.34" x2="1.97" y2="521.97"/><line class="cls-8" x1="2.9" y1="521.1" x2="2.9" y2="521.1"/><line class="cls-8" x1="3.82" y1="520.18" x2="6.54" y2="517.4"/><line class="cls-8" x1="7.47" y1="516.53" x2="7.47" y2="516.53"/><line class="cls-8" x1="8.39" y1="515.6" x2="11.12" y2="512.83"/><line class="cls-8" x1="12.04" y1="511.9" x2="12.04" y2="511.9"/><line class="cls-8" x1="12.97" y1="511.03" x2="14.6" y2="509.4"/><line class="cls-8" x1="0.61" y1="530.68" x2="1.04" y2="530.25"/><line class="cls-8" x1="1.97" y1="529.32" x2="1.97" y2="529.32"/><line class="cls-8" x1="2.9" y1="528.4" x2="5.62" y2="525.68"/><line class="cls-8" x1="6.54" y1="524.75" x2="6.54" y2="524.75"/><line class="cls-8" x1="7.47" y1="523.83" x2="10.19" y2="521.1"/><line class="cls-8" x1="11.12" y1="520.18" x2="11.12" y2="520.18"/><line class="cls-8" x1="12.04" y1="519.25" x2="14.76" y2="516.53"/><line class="cls-8" x1="15.69" y1="515.6" x2="15.69" y2="515.6"/><line class="cls-8" x1="16.61" y1="514.68" x2="17.87" y2="513.43"/><line class="cls-8" x1="1.04" y1="537.54" x2="1.04" y2="537.54"/><line class="cls-8" x1="1.97" y1="536.62" x2="4.75" y2="533.9"/><line class="cls-8" x1="5.62" y1="532.97" x2="5.62" y2="532.97"/><line class="cls-8" x1="6.54" y1="532.05" x2="9.32" y2="529.32"/><line class="cls-8" x1="10.19" y1="528.4" x2="10.19" y2="528.4"/><line class="cls-8" x1="11.12" y1="527.47" x2="13.89" y2="524.75"/><line class="cls-8" x1="14.76" y1="523.83" x2="14.76" y2="523.83"/><line class="cls-8" x1="15.69" y1="522.9" x2="17.87" y2="520.72"/><line class="cls-8" x1="1.04" y1="544.84" x2="3.82" y2="542.12"/><line class="cls-8" x1="4.75" y1="541.19" x2="4.75" y2="541.19"/><line class="cls-8" x1="5.62" y1="540.27" x2="8.39" y2="537.54"/><line class="cls-8" x1="9.32" y1="536.62" x2="9.32" y2="536.62"/><line class="cls-8" x1="10.19" y1="535.69" x2="12.97" y2="532.97"/><line class="cls-8" x1="13.89" y1="532.05" x2="13.89" y2="532.05"/><line class="cls-8" x1="14.76" y1="531.12" x2="17.54" y2="528.4"/><line class="cls-8" x1="0.61" y1="552.62" x2="2.9" y2="550.34"/><line class="cls-8" x1="3.82" y1="549.47" x2="3.82" y2="549.47"/><line class="cls-8" x1="4.75" y1="548.54" x2="7.47" y2="545.76"/><line class="cls-8" x1="8.39" y1="544.84" x2="8.39" y2="544.84"/><line class="cls-8" x1="9.32" y1="543.97" x2="12.04" y2="541.19"/><line class="cls-8" x1="12.97" y1="540.27" x2="12.97" y2="540.27"/><line class="cls-8" x1="13.89" y1="539.39" x2="16.61" y2="536.62"/><line class="cls-8" x1="17.54" y1="535.69" x2="17.54" y2="535.69"/><line class="cls-8" x1="0.61" y1="559.97" x2="1.97" y2="558.61"/><line class="cls-8" x1="2.9" y1="557.69" x2="2.9" y2="557.69"/><line class="cls-8" x1="3.82" y1="556.76" x2="6.54" y2="554.04"/><line class="cls-8" x1="7.47" y1="553.11" x2="7.47" y2="553.11"/><line class="cls-8" x1="8.39" y1="552.19" x2="11.12" y2="549.47"/><line class="cls-8" x1="12.04" y1="548.54" x2="12.04" y2="548.54"/><line class="cls-8" x1="12.97" y1="547.62" x2="15.69" y2="544.84"/><line class="cls-8" x1="16.61" y1="543.97" x2="16.61" y2="543.97"/><line class="cls-8" x1="17.54" y1="543.04" x2="17.87" y2="542.72"/><line class="cls-8" x1="0.61" y1="567.27" x2="1.04" y2="566.83"/><line class="cls-8" x1="1.97" y1="565.91" x2="1.97" y2="565.91"/><line class="cls-8" x1="2.9" y1="564.98" x2="5.62" y2="562.26"/><line class="cls-8" x1="6.54" y1="561.33" x2="6.54" y2="561.33"/><line class="cls-8" x1="7.47" y1="560.41" x2="10.19" y2="557.69"/><line class="cls-8" x1="11.12" y1="556.76" x2="11.12" y2="556.76"/><line class="cls-8" x1="12.04" y1="555.84" x2="14.76" y2="553.11"/><line class="cls-8" x1="15.69" y1="552.19" x2="15.69" y2="552.19"/><line class="cls-8" x1="16.61" y1="551.26" x2="17.87" y2="550.01"/><line class="cls-8" x1="1.04" y1="574.13" x2="1.04" y2="574.13"/><line class="cls-8" x1="1.97" y1="573.2" x2="4.75" y2="570.48"/><line class="cls-8" x1="5.62" y1="569.55" x2="5.62" y2="569.55"/><line class="cls-8" x1="6.54" y1="568.63" x2="9.32" y2="565.91"/><line class="cls-8" x1="10.19" y1="564.98" x2="10.19" y2="564.98"/><line class="cls-8" x1="11.12" y1="564.06" x2="13.89" y2="561.33"/><line class="cls-8" x1="14.76" y1="560.41" x2="14.76" y2="560.41"/><line class="cls-8" x1="15.69" y1="559.48" x2="17.87" y2="557.36"/><line class="cls-8" x1="1.04" y1="581.48" x2="3.82" y2="578.7"/><line class="cls-8" x1="4.75" y1="577.77" x2="4.75" y2="577.77"/><line class="cls-8" x1="5.62" y1="576.9" x2="8.39" y2="574.13"/><line class="cls-8" x1="9.32" y1="573.2" x2="9.32" y2="573.2"/><line class="cls-8" x1="10.19" y1="572.33" x2="12.97" y2="569.55"/><line class="cls-8" x1="13.89" y1="568.63" x2="13.89" y2="568.63"/><line class="cls-8" x1="14.76" y1="567.76" x2="17.54" y2="564.98"/><line class="cls-8" x1="0.61" y1="589.21" x2="2.9" y2="586.97"/><line class="cls-8" x1="3.82" y1="586.05" x2="3.82" y2="586.05"/><line class="cls-8" x1="4.75" y1="585.12" x2="7.47" y2="582.35"/><line class="cls-8" x1="8.39" y1="581.48" x2="8.39" y2="581.48"/><line class="cls-8" x1="9.32" y1="580.55" x2="12.04" y2="577.77"/><line class="cls-8" x1="12.97" y1="576.9" x2="12.97" y2="576.9"/><line class="cls-8" x1="13.89" y1="575.98" x2="16.61" y2="573.2"/><line class="cls-8" x1="17.54" y1="572.33" x2="17.54" y2="572.33"/><line class="cls-8" x1="1.53" y1="595.63" x2="1.97" y2="595.19"/><line class="cls-8" x1="2.9" y1="594.27" x2="2.9" y2="594.27"/><line class="cls-8" x1="3.82" y1="593.34" x2="6.54" y2="590.62"/><line class="cls-8" x1="7.47" y1="589.7" x2="7.47" y2="589.7"/><line class="cls-8" x1="8.39" y1="588.77" x2="11.12" y2="586.05"/><line class="cls-8" x1="12.04" y1="585.12" x2="12.04" y2="585.12"/><line class="cls-8" x1="12.97" y1="584.2" x2="15.69" y2="581.48"/><line class="cls-8" x1="16.61" y1="580.55" x2="16.61" y2="580.55"/><line class="cls-8" x1="17.54" y1="579.63" x2="17.87" y2="579.3"/><line class="cls-8" x1="8.83" y1="595.63" x2="10.19" y2="594.27"/><line class="cls-8" x1="11.12" y1="593.34" x2="11.12" y2="593.34"/><line class="cls-8" x1="12.04" y1="592.42" x2="14.76" y2="589.7"/><line class="cls-8" x1="15.69" y1="588.77" x2="15.69" y2="588.77"/><line class="cls-8" x1="16.61" y1="587.85" x2="17.87" y2="586.59"/><line class="cls-8" x1="16.12" y1="595.63" x2="17.87" y2="593.94"/><polyline class="cls-8" points="0.61 595.63 17.87 595.63 17.87 509.4 0.61 509.4 0.61 595.63"/><line class="cls-8" x1="0.61" y1="7.36" x2="7.47" y2="0.5"/><line class="cls-8" x1="0.61" y1="14.71" x2="14.82" y2="0.5"/><line class="cls-8" x1="0.61" y1="22" x2="17.87" y2="4.75"/><line class="cls-8" x1="0.61" y1="29.35" x2="17.87" y2="12.1"/><line class="cls-8" x1="0.61" y1="36.65" x2="17.87" y2="19.39"/><line class="cls-8" x1="0.61" y1="43.94" x2="17.87" y2="26.74"/><line class="cls-8" x1="0.61" y1="51.29" x2="17.87" y2="34.03"/><line class="cls-8" x1="0.61" y1="58.59" x2="17.87" y2="41.33"/><line class="cls-8" x1="0.61" y1="65.94" x2="17.87" y2="48.68"/><line class="cls-8" x1="0.61" y1="73.23" x2="17.87" y2="55.97"/><line class="cls-8" x1="0.61" y1="80.58" x2="17.87" y2="63.32"/><line class="cls-8" x1="1.75" y1="86.79" x2="17.87" y2="70.62"/><line class="cls-8" x1="9.05" y1="86.79" x2="17.87" y2="77.97"/><line class="cls-8" x1="16.4" y1="86.79" x2="17.87" y2="85.26"/><line class="cls-8" x1="0.61" y1="3.71" x2="2.9" y2="1.43"/><line class="cls-8" x1="3.82" y1="0.5" x2="3.82" y2="0.5"/><line class="cls-8" x1="0.61" y1="11.01" x2="1.97" y2="9.7"/><line class="cls-8" x1="2.9" y1="8.77" x2="2.9" y2="8.77"/><line class="cls-8" x1="3.82" y1="7.85" x2="6.54" y2="5.13"/><line class="cls-8" x1="7.47" y1="4.2" x2="7.47" y2="4.2"/><line class="cls-8" x1="8.39" y1="3.28" x2="11.12" y2="0.5"/><line class="cls-8" x1="0.61" y1="18.36" x2="1.04" y2="17.92"/><line class="cls-8" x1="1.97" y1="17" x2="1.97" y2="17"/><line class="cls-8" x1="2.9" y1="16.07" x2="5.62" y2="13.35"/><line class="cls-8" x1="6.54" y1="12.42" x2="6.54" y2="12.42"/><line class="cls-8" x1="7.47" y1="11.5" x2="10.19" y2="8.77"/><line class="cls-8" x1="11.12" y1="7.85" x2="11.12" y2="7.85"/><line class="cls-8" x1="12.04" y1="6.92" x2="14.76" y2="4.2"/><line class="cls-8" x1="15.69" y1="3.28" x2="15.69" y2="3.28"/><line class="cls-8" x1="16.61" y1="2.35" x2="17.87" y2="1.1"/><line class="cls-8" x1="1.04" y1="25.22" x2="1.04" y2="25.22"/><line class="cls-8" x1="1.97" y1="24.29" x2="4.75" y2="21.57"/><line class="cls-8" x1="5.62" y1="20.64" x2="5.62" y2="20.64"/><line class="cls-8" x1="6.54" y1="19.72" x2="9.32" y2="17"/><line class="cls-8" x1="10.19" y1="16.07" x2="10.19" y2="16.07"/><line class="cls-8" x1="11.12" y1="15.14" x2="13.89" y2="12.42"/><line class="cls-8" x1="14.76" y1="11.5" x2="14.76" y2="11.5"/><line class="cls-8" x1="15.69" y1="10.57" x2="17.87" y2="8.39"/><line class="cls-8" x1="1.04" y1="32.56" x2="3.82" y2="29.79"/><line class="cls-8" x1="4.75" y1="28.86" x2="4.75" y2="28.86"/><line class="cls-8" x1="5.62" y1="27.99" x2="8.39" y2="25.22"/><line class="cls-8" x1="9.32" y1="24.29" x2="9.32" y2="24.29"/><line class="cls-8" x1="10.19" y1="23.42" x2="12.97" y2="20.64"/><line class="cls-8" x1="13.89" y1="19.72" x2="13.89" y2="19.72"/><line class="cls-8" x1="14.76" y1="18.85" x2="17.54" y2="16.07"/><line class="cls-8" x1="0.61" y1="40.3" x2="2.9" y2="38.01"/><line class="cls-8" x1="3.82" y1="37.14" x2="3.82" y2="37.14"/><line class="cls-8" x1="4.75" y1="36.21" x2="7.47" y2="33.44"/><line class="cls-8" x1="8.39" y1="32.56" x2="8.39" y2="32.56"/><line class="cls-8" x1="9.32" y1="31.64" x2="12.04" y2="28.86"/><line class="cls-8" x1="12.97" y1="27.99" x2="12.97" y2="27.99"/><line class="cls-8" x1="13.89" y1="27.07" x2="16.61" y2="24.29"/><line class="cls-8" x1="17.54" y1="23.42" x2="17.54" y2="23.42"/><line class="cls-8" x1="0.61" y1="47.64" x2="1.97" y2="46.28"/><line class="cls-8" x1="2.9" y1="45.36" x2="2.9" y2="45.36"/><line class="cls-8" x1="3.82" y1="44.43" x2="6.54" y2="41.71"/><line class="cls-8" x1="7.47" y1="40.79" x2="7.47" y2="40.79"/><line class="cls-8" x1="8.39" y1="39.86" x2="11.12" y2="37.14"/><line class="cls-8" x1="12.04" y1="36.21" x2="12.04" y2="36.21"/><line class="cls-8" x1="12.97" y1="35.29" x2="15.69" y2="32.56"/><line class="cls-8" x1="16.61" y1="31.64" x2="16.61" y2="31.64"/><line class="cls-8" x1="17.54" y1="30.71" x2="17.87" y2="30.39"/><line class="cls-8" x1="0.61" y1="54.94" x2="1.04" y2="54.5"/><line class="cls-8" x1="1.97" y1="53.58" x2="1.97" y2="53.58"/><line class="cls-8" x1="2.9" y1="52.65" x2="5.62" y2="49.93"/><line class="cls-8" x1="6.54" y1="49.01" x2="6.54" y2="49.01"/><line class="cls-8" x1="7.47" y1="48.08" x2="10.19" y2="45.36"/><line class="cls-8" x1="11.12" y1="44.43" x2="11.12" y2="44.43"/><line class="cls-8" x1="12.04" y1="43.51" x2="14.76" y2="40.79"/><line class="cls-8" x1="15.69" y1="39.86" x2="15.69" y2="39.86"/><line class="cls-8" x1="16.61" y1="38.93" x2="17.87" y2="37.68"/><line class="cls-8" x1="1.04" y1="61.8" x2="1.04" y2="61.8"/><line class="cls-8" x1="1.97" y1="60.93" x2="4.75" y2="58.15"/><line class="cls-8" x1="5.62" y1="57.23" x2="5.62" y2="57.23"/><line class="cls-8" x1="6.54" y1="56.35" x2="9.32" y2="53.58"/><line class="cls-8" x1="10.19" y1="52.65" x2="10.19" y2="52.65"/><line class="cls-8" x1="11.12" y1="51.78" x2="13.89" y2="49.01"/><line class="cls-8" x1="14.76" y1="48.08" x2="14.76" y2="48.08"/><line class="cls-8" x1="15.69" y1="47.21" x2="17.87" y2="45.03"/><line class="cls-8" x1="1.04" y1="69.15" x2="3.82" y2="66.37"/><line class="cls-8" x1="4.75" y1="65.5" x2="4.75" y2="65.5"/><line class="cls-8" x1="5.62" y1="64.58" x2="8.39" y2="61.8"/><line class="cls-8" x1="9.32" y1="60.93" x2="9.32" y2="60.93"/><line class="cls-8" x1="10.19" y1="60" x2="12.97" y2="57.23"/><line class="cls-8" x1="13.89" y1="56.35" x2="13.89" y2="56.35"/><line class="cls-8" x1="14.76" y1="55.43" x2="17.54" y2="52.65"/><line class="cls-8" x1="0.61" y1="76.88" x2="2.9" y2="74.65"/><line class="cls-8" x1="3.82" y1="73.72" x2="3.82" y2="73.72"/><line class="cls-8" x1="4.75" y1="72.8" x2="7.47" y2="70.07"/><line class="cls-8" x1="8.39" y1="69.15" x2="8.39" y2="69.15"/><line class="cls-8" x1="9.32" y1="68.22" x2="12.04" y2="65.5"/><line class="cls-8" x1="12.97" y1="64.58" x2="12.97" y2="64.58"/><line class="cls-8" x1="13.89" y1="63.65" x2="16.61" y2="60.93"/><line class="cls-8" x1="17.54" y1="60" x2="17.54" y2="60"/><line class="cls-8" x1="0.61" y1="84.23" x2="1.97" y2="82.87"/><line class="cls-8" x1="2.9" y1="81.94" x2="2.9" y2="81.94"/><line class="cls-8" x1="3.82" y1="81.02" x2="6.54" y2="78.29"/><line class="cls-8" x1="7.47" y1="77.37" x2="7.47" y2="77.37"/><line class="cls-8" x1="8.39" y1="76.44" x2="11.12" y2="73.72"/><line class="cls-8" x1="12.04" y1="72.8" x2="12.04" y2="72.8"/><line class="cls-8" x1="12.97" y1="71.87" x2="15.69" y2="69.15"/><line class="cls-8" x1="16.61" y1="68.22" x2="16.61" y2="68.22"/><line class="cls-8" x1="17.54" y1="67.3" x2="17.87" y2="66.97"/><line class="cls-8" x1="5.4" y1="86.79" x2="5.62" y2="86.51"/><line class="cls-8" x1="6.54" y1="85.59" x2="6.54" y2="85.59"/><line class="cls-8" x1="7.47" y1="84.72" x2="10.19" y2="81.94"/><line class="cls-8" x1="11.12" y1="81.02" x2="11.12" y2="81.02"/><line class="cls-8" x1="12.04" y1="80.14" x2="14.76" y2="77.37"/><line class="cls-8" x1="15.69" y1="76.44" x2="15.69" y2="76.44"/><line class="cls-8" x1="16.61" y1="75.52" x2="17.87" y2="74.27"/><line class="cls-8" x1="12.75" y1="86.79" x2="13.89" y2="85.59"/><line class="cls-8" x1="14.76" y1="84.72" x2="14.76" y2="84.72"/><line class="cls-8" x1="15.69" y1="83.79" x2="17.87" y2="81.61"/><polyline class="cls-8" points="17.87 0.5 0.61 0.5 0.61 86.79 17.87 86.79 17.87 0.5"/><line class="cls-8" x1="302.53" y1="5.56" x2="307.54" y2="0.5"/><line class="cls-8" x1="302.53" y1="12.86" x2="314.89" y2="0.5"/><line class="cls-8" x1="302.53" y1="20.21" x2="319.73" y2="2.95"/><line class="cls-8" x1="302.53" y1="27.5" x2="319.73" y2="10.24"/><line class="cls-8" x1="302.53" y1="34.85" x2="319.73" y2="17.59"/><line class="cls-8" x1="302.53" y1="42.15" x2="319.73" y2="24.89"/><line class="cls-8" x1="302.53" y1="49.5" x2="319.73" y2="32.24"/><line class="cls-8" x1="302.53" y1="56.79" x2="319.73" y2="39.53"/><line class="cls-8" x1="302.53" y1="64.09" x2="319.73" y2="46.88"/><line class="cls-8" x1="302.53" y1="71.43" x2="319.73" y2="54.18"/><line class="cls-8" x1="302.53" y1="78.73" x2="319.73" y2="61.47"/><line class="cls-8" x1="302.53" y1="86.08" x2="319.73" y2="68.82"/><line class="cls-8" x1="309.12" y1="86.79" x2="319.73" y2="76.12"/><line class="cls-8" x1="316.47" y1="86.79" x2="319.73" y2="83.47"/><line class="cls-8" x1="302.53" y1="1.92" x2="303.89" y2="0.5"/><line class="cls-8" x1="302.53" y1="9.21" x2="302.96" y2="8.77"/><line class="cls-8" x1="303.89" y1="7.85" x2="303.89" y2="7.85"/><line class="cls-8" x1="304.82" y1="6.92" x2="307.54" y2="4.2"/><line class="cls-8" x1="308.46" y1="3.28" x2="308.46" y2="3.28"/><line class="cls-8" x1="309.39" y1="2.35" x2="311.24" y2="0.5"/><line class="cls-8" x1="302.96" y1="16.07" x2="302.96" y2="16.07"/><line class="cls-8" x1="303.89" y1="15.14" x2="306.61" y2="12.42"/><line class="cls-8" x1="307.54" y1="11.5" x2="307.54" y2="11.5"/><line class="cls-8" x1="308.46" y1="10.57" x2="311.19" y2="7.85"/><line class="cls-8" x1="312.11" y1="6.92" x2="312.11" y2="6.92"/><line class="cls-8" x1="313.04" y1="6" x2="315.76" y2="3.28"/><line class="cls-8" x1="316.68" y1="2.35" x2="316.68" y2="2.35"/><line class="cls-8" x1="317.61" y1="1.43" x2="318.53" y2="0.5"/><line class="cls-8" x1="302.96" y1="23.42" x2="305.69" y2="20.64"/><line class="cls-8" x1="306.61" y1="19.72" x2="306.61" y2="19.72"/><line class="cls-8" x1="307.54" y1="18.85" x2="310.26" y2="16.07"/><line class="cls-8" x1="311.19" y1="15.14" x2="311.19" y2="15.14"/><line class="cls-8" x1="312.11" y1="14.27" x2="314.83" y2="11.5"/><line class="cls-8" x1="315.76" y1="10.57" x2="315.76" y2="10.57"/><line class="cls-8" x1="316.68" y1="9.7" x2="319.41" y2="6.92"/><line class="cls-8" x1="302.53" y1="31.15" x2="304.82" y2="28.86"/><line class="cls-8" x1="305.69" y1="27.99" x2="305.69" y2="27.99"/><line class="cls-8" x1="306.61" y1="27.07" x2="309.39" y2="24.29"/><line class="cls-8" x1="310.26" y1="23.42" x2="310.26" y2="23.42"/><line class="cls-8" x1="311.19" y1="22.49" x2="313.96" y2="19.72"/><line class="cls-8" x1="314.83" y1="18.85" x2="314.83" y2="18.85"/><line class="cls-8" x1="315.76" y1="17.92" x2="318.53" y2="15.14"/><line class="cls-8" x1="319.41" y1="14.27" x2="319.41" y2="14.27"/><line class="cls-8" x1="302.53" y1="38.5" x2="303.89" y2="37.14"/><line class="cls-8" x1="304.82" y1="36.21" x2="304.82" y2="36.21"/><line class="cls-8" x1="305.69" y1="35.29" x2="308.46" y2="32.56"/><line class="cls-8" x1="309.39" y1="31.64" x2="309.39" y2="31.64"/><line class="cls-8" x1="310.26" y1="30.71" x2="313.04" y2="27.99"/><line class="cls-8" x1="313.96" y1="27.07" x2="313.96" y2="27.07"/><line class="cls-8" x1="314.83" y1="26.14" x2="317.61" y2="23.42"/><line class="cls-8" x1="318.53" y1="22.49" x2="318.53" y2="22.49"/><line class="cls-8" x1="319.41" y1="21.57" x2="319.73" y2="21.24"/><line class="cls-8" x1="302.53" y1="45.79" x2="302.96" y2="45.36"/><line class="cls-8" x1="303.89" y1="44.43" x2="303.89" y2="44.43"/><line class="cls-8" x1="304.82" y1="43.51" x2="307.54" y2="40.79"/><line class="cls-8" x1="308.46" y1="39.86" x2="308.46" y2="39.86"/><line class="cls-8" x1="309.39" y1="38.93" x2="312.11" y2="36.21"/><line class="cls-8" x1="313.04" y1="35.29" x2="313.04" y2="35.29"/><line class="cls-8" x1="313.96" y1="34.36" x2="316.68" y2="31.64"/><line class="cls-8" x1="317.61" y1="30.71" x2="317.61" y2="30.71"/><line class="cls-8" x1="318.53" y1="29.79" x2="319.73" y2="28.54"/><line class="cls-8" x1="302.96" y1="52.65" x2="302.96" y2="52.65"/><line class="cls-8" x1="303.89" y1="51.78" x2="306.61" y2="49.01"/><line class="cls-8" x1="307.54" y1="48.08" x2="307.54" y2="48.08"/><line class="cls-8" x1="308.46" y1="47.21" x2="311.19" y2="44.43"/><line class="cls-8" x1="312.11" y1="43.51" x2="312.11" y2="43.51"/><line class="cls-8" x1="313.04" y1="42.64" x2="315.76" y2="39.86"/><line class="cls-8" x1="316.68" y1="38.93" x2="316.68" y2="38.93"/><line class="cls-8" x1="317.61" y1="38.01" x2="319.73" y2="35.89"/><line class="cls-8" x1="302.96" y1="60" x2="305.69" y2="57.23"/><line class="cls-8" x1="306.61" y1="56.35" x2="306.61" y2="56.35"/><line class="cls-8" x1="307.54" y1="55.43" x2="310.26" y2="52.65"/><line class="cls-8" x1="311.19" y1="51.78" x2="311.19" y2="51.78"/><line class="cls-8" x1="312.11" y1="50.86" x2="314.83" y2="48.08"/><line class="cls-8" x1="315.76" y1="47.21" x2="315.76" y2="47.21"/><line class="cls-8" x1="316.68" y1="46.28" x2="319.41" y2="43.51"/><line class="cls-8" x1="302.53" y1="67.79" x2="304.82" y2="65.5"/><line class="cls-8" x1="305.69" y1="64.58" x2="305.69" y2="64.58"/><line class="cls-8" x1="306.61" y1="63.65" x2="309.39" y2="60.93"/><line class="cls-8" x1="310.26" y1="60" x2="310.26" y2="60"/><line class="cls-8" x1="311.19" y1="59.08" x2="313.96" y2="56.35"/><line class="cls-8" x1="314.83" y1="55.43" x2="314.83" y2="55.43"/><line class="cls-8" x1="315.76" y1="54.5" x2="318.53" y2="51.78"/><line class="cls-8" x1="319.41" y1="50.86" x2="319.41" y2="50.86"/><line class="cls-8" x1="302.53" y1="75.08" x2="303.89" y2="73.72"/><line class="cls-8" x1="304.82" y1="72.8" x2="304.82" y2="72.8"/><line class="cls-8" x1="305.69" y1="71.87" x2="308.46" y2="69.15"/><line class="cls-8" x1="309.39" y1="68.22" x2="309.39" y2="68.22"/><line class="cls-8" x1="310.26" y1="67.3" x2="313.04" y2="64.58"/><line class="cls-8" x1="313.96" y1="63.65" x2="313.96" y2="63.65"/><line class="cls-8" x1="314.83" y1="62.72" x2="317.61" y2="60"/><line class="cls-8" x1="318.53" y1="59.08" x2="318.53" y2="59.08"/><line class="cls-8" x1="319.41" y1="58.15" x2="319.73" y2="57.82"/><line class="cls-8" x1="302.53" y1="82.43" x2="302.96" y2="81.94"/><line class="cls-8" x1="303.89" y1="81.02" x2="303.89" y2="81.02"/><line class="cls-8" x1="304.82" y1="80.14" x2="307.54" y2="77.37"/><line class="cls-8" x1="308.46" y1="76.44" x2="308.46" y2="76.44"/><line class="cls-8" x1="309.39" y1="75.52" x2="312.11" y2="72.8"/><line class="cls-8" x1="313.04" y1="71.87" x2="313.04" y2="71.87"/><line class="cls-8" x1="313.96" y1="70.94" x2="316.68" y2="68.22"/><line class="cls-8" x1="317.61" y1="67.3" x2="317.61" y2="67.3"/><line class="cls-8" x1="318.53" y1="66.37" x2="319.73" y2="65.17"/><line class="cls-8" x1="305.47" y1="86.79" x2="306.61" y2="85.59"/><line class="cls-8" x1="307.54" y1="84.72" x2="307.54" y2="84.72"/><line class="cls-8" x1="308.46" y1="83.79" x2="311.19" y2="81.02"/><line class="cls-8" x1="312.11" y1="80.14" x2="312.11" y2="80.14"/><line class="cls-8" x1="313.04" y1="79.22" x2="315.76" y2="76.44"/><line class="cls-8" x1="316.68" y1="75.52" x2="316.68" y2="75.52"/><line class="cls-8" x1="317.61" y1="74.65" x2="319.73" y2="72.47"/><line class="cls-8" x1="312.76" y1="86.79" x2="314.83" y2="84.72"/><line class="cls-8" x1="315.76" y1="83.79" x2="315.76" y2="83.79"/><line class="cls-8" x1="316.68" y1="82.87" x2="319.41" y2="80.14"/><polyline class="cls-8" points="319.73 0.5 302.53 0.5 302.53 86.79 319.73 86.79 319.73 0.5"/></svg>